  0
SECTION
  2
HEADER
  9
$ACADVER
  1
AC1006
  9
$EXTMIN
 10
0.000000
 20
0.000000
 30
0.000000
  9
$EXTMAX
 10
219.000000
 20
200.000000
 30
0.000000
  0
ENDSEC
  0
SECTION
  2
ENTITIES
  0
POLYLINE
  8
0
 66
1
 70
1
  0
VERTEX
  8
0
 10
73.000000
 20
198.712087
 42
0.130610
  0
VERTEX
  8
0
 10
71.076020
 20
197.003781
 42
0.132580
  0
VERTEX
  8
0
 10
70.267693
 20
194.575426
 42
0.092815
  0
VERTEX
  8
0
 10
70.679728
 20
191.358477
 42
0.039601
  0
VERTEX
  8
0
 10
72.342523
 20
187.332184
 42
0.057186
  0
VERTEX
  8
0
 10
75.886485
 20
181.982157
 42
0.064443
  0
VERTEX
  8
0
 10
80.426531
 20
177.813454
 42
0.060520
  0
VERTEX
  8
0
 10
86.127501
 20
174.749276
 42
0.042411
  0
VERTEX
  8
0
 10
93.126151
 20
172.679687
 42
0.000000
  0
VERTEX
  8
0
 10
99.500000
 20
171.369406
 42
0.000000
  0
VERTEX
  8
0
 10
89.817309
 20
170.669251
 42
0.069817
  0
VERTEX
  8
0
 10
59.988203
 20
164.261707
 42
0.075143
  0
VERTEX
  8
0
 10
33.887537
 20
149.968727
 42
0.078323
  0
VERTEX
  8
0
 10
14.024000
 20
129.213940
 42
0.086190
  0
VERTEX
  8
0
 10
2.301954
 20
104.000000
 42
0.045705
  0
VERTEX
  8
0
 10
0.931107
 20
96.102936
 42
0.020135
  0
VERTEX
  8
0
 10
0.503947
 20
85.500000
 42
0.020135
  0
VERTEX
  8
0
 10
0.931107
 20
74.897064
 42
0.045705
  0
VERTEX
  8
0
 10
2.301954
 20
67.000000
 42
0.071878
  0
VERTEX
  8
0
 10
11.534882
 20
45.565523
 42
0.067833
  0
VERTEX
  8
0
 10
26.606070
 20
27.144033
 42
0.064869
  0
VERTEX
  8
0
 10
46.732762
 20
12.772902
 42
0.056696
  0
VERTEX
  8
0
 10
70.794188
 20
3.238994
 42
0.018562
  0
VERTEX
  8
0
 10
77.418613
 20
1.709837
 42
0.030527
  0
VERTEX
  8
0
 10
83.120373
 20
0.971893
 42
0.015273
  0
VERTEX
  8
0
 10
91.078533
 20
0.676270
 42
0.001647
  0
VERTEX
  8
0
 10
109.500000
 20
0.615607
 42
0.001647
  0
VERTEX
  8
0
 10
127.921467
 20
0.676270
 42
0.015273
  0
VERTEX
  8
0
 10
135.879627
 20
0.971893
 42
0.030527
  0
VERTEX
  8
0
 10
141.581387
 20
1.709837
 42
0.018562
  0
VERTEX
  8
0
 10
148.205812
 20
3.238994
 42
0.046899
  0
VERTEX
  8
0
 10
168.791654
 20
10.933852
 42
0.054077
  0
VERTEX
  8
0
 10
186.546334
 20
22.052595
 42
0.056364
  0
VERTEX
  8
0
 10
200.902970
 20
36.259356
 42
0.059263
  0
VERTEX
  8
0
 10
211.445943
 20
53.088754
 42
0.021540
  0
VERTEX
  8
0
 10
214.893297
 20
61.283821
 42
0.035591
  0
VERTEX
  8
0
 10
216.996064
 20
68.488669
 42
0.034466
  0
VERTEX
  8
0
 10
218.096213
 20
76.080476
 42
0.018754
  0
VERTEX
  8
0
 10
218.449637
 20
85.500000
 42
0.018754
  0
VERTEX
  8
0
 10
218.096213
 20
94.919524
 42
0.034466
  0
VERTEX
  8
0
 10
216.996064
 20
102.511331
 42
0.035591
  0
VERTEX
  8
0
 10
214.893297
 20
109.716179
 42
0.021540
  0
VERTEX
  8
0
 10
211.445943
 20
117.911246
 42
0.044855
  0
VERTEX
  8
0
 10
203.569270
 20
131.326464
 42
0.046334
  0
VERTEX
  8
0
 10
193.501821
 20
142.964495
 42
0.044764
  0
VERTEX
  8
0
 10
181.130806
 20
152.877958
 42
0.036983
  0
VERTEX
  8
0
 10
166.397324
 20
161.161086
 42
0.025773
  0
VERTEX
  8
0
 10
156.751913
 20
165.088621
 42
0.027260
  0
VERTEX
  8
0
 10
146.930758
 20
167.919634
 42
0.026058
  0
VERTEX
  8
0
 10
136.467339
 20
169.759273
 42
0.019944
  0
VERTEX
  8
0
 10
124.887536
 20
170.711544
 42
0.000000
  0
VERTEX
  8
0
 10
111.275073
 20
171.285900
 42
0.000000
  0
VERTEX
  8
0
 10
110.687934
 20
180.892950
 42
0.012490
  0
VERTEX
  8
0
 10
110.034053
 20
188.475856
 42
0.034732
  0
VERTEX
  8
0
 10
109.075045
 20
193.733077
 42
0.051428
  0
VERTEX
  8
0
 10
107.857087
 20
197.042589
 42
0.286309
  0
VERTEX
  8
0
 10
106.322154
 20
198.000000
 42
0.133693
  0
VERTEX
  8
0
 10
105.576161
 20
197.796902
 42
0.203158
  0
VERTEX
  8
0
 10
105.181398
 20
197.264826
 42
0.089152
  0
VERTEX
  8
0
 10
105.119371
 20
196.225749
 42
0.015053
  0
VERTEX
  8
0
 10
105.414569
 20
194.250000
 42
-0.013798
  0
VERTEX
  8
0
 10
105.713790
 20
192.281142
 42
-0.004079
  0
VERTEX
  8
0
 10
106.063953
 20
189.251563
 42
-0.004091
  0
VERTEX
  8
0
 10
106.402093
 20
185.837877
 42
-0.004396
  0
VERTEX
  8
0
 10
106.675606
 20
182.500000
 42
0.000000
  0
VERTEX
  8
0
 10
107.260390
 20
174.500000
 42
0.000000
  0
VERTEX
  8
0
 10
103.581476
 20
181.500000
 42
0.017909
  0
VERTEX
  8
0
 10
101.871553
 20
184.488530
 42
0.013109
  0
VERTEX
  8
0
 10
99.771380
 20
187.682011
 42
0.013280
  0
VERTEX
  8
0
 10
97.619897
 20
190.605074
 42
0.028398
  0
VERTEX
  8
0
 10
95.777073
 20
192.715357
 42
0.069343
  0
VERTEX
  8
0
 10
90.570238
 20
196.737317
 42
0.065545
  0
VERTEX
  8
0
 10
84.363626
 20
199.276544
 42
0.070374
  0
VERTEX
  8
0
 10
78.168644
 20
200.004189
 42
0.111141
  0
SEQEND
  0
ENDSEC
  0
EOF
