  0
SECTION
  2
HEADER
  9
$ACADVER
  1
AC1006
  9
$EXTMIN
 10
0.000000
 20
0.000000
 30
0.000000
  9
$EXTMAX
 10
215.000000
 20
216.000000
 30
0.000000
  0
ENDSEC
  0
SECTION
  2
ENTITIES
  0
POLYLINE
  8
0
 66
1
 70
1
  0
VERTEX
  8
0
 10
129.238723
 20
213.211951
 42
0.029396
  0
VERTEX
  8
0
 10
125.941083
 20
211.547173
 42
0.025685
  0
VERTEX
  8
0
 10
122.703570
 20
209.436935
 42
0.022411
  0
VERTEX
  8
0
 10
119.314300
 20
206.730634
 42
0.013619
  0
VERTEX
  8
0
 10
115.547040
 20
203.250000
 42
-0.002831
  0
VERTEX
  8
0
 10
112.666223
 20
200.470795
 42
-0.004506
  0
VERTEX
  8
0
 10
110.167155
 20
198.129687
 42
-0.001162
  0
VERTEX
  8
0
 10
107.969615
 20
196.117326
 42
-0.186911
  0
VERTEX
  8
0
 10
107.666725
 20
196.000000
 42
-0.277159
  0
VERTEX
  8
0
 10
107.458795
 20
196.124850
 42
-0.020984
  0
VERTEX
  8
0
 10
107.162802
 20
196.741781
 42
-0.024164
  0
VERTEX
  8
0
 10
106.858495
 20
197.557501
 42
-0.015711
  0
VERTEX
  8
0
 10
106.583028
 20
198.525211
 42
0.093204
  0
VERTEX
  8
0
 10
105.388068
 20
201.118599
 42
0.022725
  0
VERTEX
  8
0
 10
102.476801
 20
204.845900
 42
0.017762
  0
VERTEX
  8
0
 10
99.296114
 20
208.301118
 42
0.207731
  0
VERTEX
  8
0
 10
97.633638
 20
208.968197
 42
0.080841
  0
VERTEX
  8
0
 10
97.069934
 20
208.860148
 42
0.025179
  0
VERTEX
  8
0
 10
96.273989
 20
208.522635
 42
0.024437
  0
VERTEX
  8
0
 10
95.408786
 20
208.049671
 42
0.024692
  0
VERTEX
  8
0
 10
94.596964
 20
207.496052
 42
0.078085
  0
VERTEX
  8
0
 10
93.649485
 20
206.513174
 42
0.246688
  0
VERTEX
  8
0
 10
93.536816
 20
205.634222
 42
0.090747
  0
VERTEX
  8
0
 10
94.241547
 20
204.451120
 42
0.006622
  0
VERTEX
  8
0
 10
96.784015
 20
201.618490
 42
-0.046339
  0
VERTEX
  8
0
 10
99.548748
 20
197.997467
 42
-0.045713
  0
VERTEX
  8
0
 10
101.613815
 20
193.913150
 42
-0.049607
  0
VERTEX
  8
0
 10
102.719741
 20
190.032583
 42
-0.122058
  0
VERTEX
  8
0
 10
102.530276
 20
187.095392
 42
-0.200055
  0
VERTEX
  8
0
 10
101.695073
 20
186.108275
 42
-0.072598
  0
VERTEX
  8
0
 10
99.924032
 20
185.504162
 42
-0.030144
  0
VERTEX
  8
0
 10
96.642222
 20
185.096727
 42
-0.004098
  0
VERTEX
  8
0
 10
89.728493
 20
184.715731
 42
0.042627
  0
VERTEX
  8
0
 10
71.282520
 20
182.265530
 42
0.050294
  0
VERTEX
  8
0
 10
54.561752
 20
176.765912
 42
0.051084
  0
VERTEX
  8
0
 10
39.489165
 20
168.129013
 42
0.046366
  0
VERTEX
  8
0
 10
25.938652
 20
156.361501
 42
0.014888
  0
VERTEX
  8
0
 10
20.490104
 20
150.313055
 42
0.024920
  0
VERTEX
  8
0
 10
16.328585
 20
144.880277
 42
0.024831
  0
VERTEX
  8
0
 10
12.718285
 20
139.046631
 42
0.014654
  0
VERTEX
  8
0
 10
8.968587
 20
131.759408
 42
0.022191
  0
VERTEX
  8
0
 10
4.832220
 20
122.017993
 42
0.037258
  0
VERTEX
  8
0
 10
2.353833
 20
113.485614
 42
0.034996
  0
VERTEX
  8
0
 10
1.077760
 20
104.313941
 42
0.017072
  0
VERTEX
  8
0
 10
0.674269
 20
92.500000
 42
0.017118
  0
VERTEX
  8
0
 10
1.079838
 20
80.656964
 42
0.035226
  0
VERTEX
  8
0
 10
2.363204
 20
71.476069
 42
0.037346
  0
VERTEX
  8
0
 10
4.862624
 20
62.912109
 42
0.021835
  0
VERTEX
  8
0
 10
9.049664
 20
53.071624
 42
0.020229
  0
VERTEX
  8
0
 10
13.130074
 20
45.354907
 42
0.024619
  0
VERTEX
  8
0
 10
17.582930
 20
38.499966
 42
0.024756
  0
VERTEX
  8
0
 10
22.665982
 20
32.147071
 42
0.020864
  0
VERTEX
  8
0
 10
28.638499
 20
25.938652
 42
0.014888
  0
VERTEX
  8
0
 10
34.686945
 20
20.490104
 42
0.024920
  0
VERTEX
  8
0
 10
40.119723
 20
16.328585
 42
0.024831
  0
VERTEX
  8
0
 10
45.953369
 20
12.718285
 42
0.014654
  0
VERTEX
  8
0
 10
53.240592
 20
8.968587
 42
0.022939
  0
VERTEX
  8
0
 10
62.456126
 20
5.071772
 42
0.033668
  0
VERTEX
  8
0
 10
70.891998
 20
2.583127
 42
0.033138
  0
VERTEX
  8
0
 10
79.685619
 20
1.224324
 42
0.021302
  0
VERTEX
  8
0
 10
90.000000
 20
0.765438
 42
0.002794
  0
VERTEX
  8
0
 10
118.648543
 20
0.872147
 42
0.017852
  0
VERTEX
  8
0
 10
133.156983
 20
1.525673
 42
0.033059
  0
VERTEX
  8
0
 10
143.377809
 20
3.037047
 42
0.029455
  0
VERTEX
  8
0
 10
153.722314
 20
5.919975
 42
0.091680
  0
VERTEX
  8
0
 10
181.418610
 20
21.541033
 42
0.087511
  0
VERTEX
  8
0
 10
202.228255
 20
46.255550
 42
0.086812
  0
VERTEX
  8
0
 10
213.443292
 20
76.783543
 42
0.088290
  0
VERTEX
  8
0
 10
213.532226
 20
109.119010
 42
0.077717
  0
VERTEX
  8
0
 10
203.595227
 20
138.273037
 42
0.084187
  0
VERTEX
  8
0
 10
185.417988
 20
162.104958
 42
0.085215
  0
VERTEX
  8
0
 10
160.609337
 20
178.401459
 42
0.082180
  0
VERTEX
  8
0
 10
131.470699
 20
185.754678
 42
0.000000
  0
VERTEX
  8
0
 10
122.533312
 20
186.500000
 42
0.000000
  0
VERTEX
  8
0
 10
127.738258
 20
189.836022
 42
0.046628
  0
VERTEX
  8
0
 10
132.369450
 20
193.453849
 42
0.011409
  0
VERTEX
  8
0
 10
139.262585
 20
200.261640
 42
0.005795
  0
VERTEX
  8
0
 10
146.132827
 20
207.530384
 42
0.188597
  0
VERTEX
  8
0
 10
147.000000
 20
209.747617
 42
0.111485
  0
VERTEX
  8
0
 10
146.878984
 20
210.283619
 42
0.019045
  0
VERTEX
  8
0
 10
146.391180
 20
211.215614
 42
0.019946
  0
VERTEX
  8
0
 10
145.720918
 20
212.284311
 42
0.016618
  0
VERTEX
  8
0
 10
144.927420
 20
213.365141
 42
0.125052
  0
VERTEX
  8
0
 10
142.438619
 20
215.278703
 42
0.104483
  0
VERTEX
  8
0
 10
139.161704
 20
215.937668
 42
0.071485
  0
VERTEX
  8
0
 10
134.860362
 20
215.276619
 42
0.028387
  0
SEQEND
  0
ENDSEC
  0
EOF
