  0
SECTION
  2
HEADER
  9
$ACADVER
  1
AC1006
  9
$EXTMIN
 10
0.000000
 20
0.000000
 30
0.000000
  9
$EXTMAX
 10
298.000000
 20
305.000000
 30
0.000000
  0
ENDSEC
  0
SECTION
  2
ENTITIES
  0
POLYLINE
  8
0
 66
1
 70
1
  0
VERTEX
  8
0
 10
132.474307
 20
302.320444
 42
0.013210
  0
VERTEX
  8
0
 10
131.909814
 20
301.407169
 42
0.016157
  0
VERTEX
  8
0
 10
131.433078
 20
300.523809
 42
0.014720
  0
VERTEX
  8
0
 10
131.081990
 20
299.764582
 42
0.101270
  0
VERTEX
  8
0
 10
131.000000
 20
299.363924
 42
-0.124484
  0
VERTEX
  8
0
 10
130.903568
 20
298.982600
 42
-0.020742
  0
VERTEX
  8
0
 10
130.513847
 20
298.327806
 42
-0.021636
  0
VERTEX
  8
0
 10
129.978654
 20
297.580689
 42
-0.017673
  0
VERTEX
  8
0
 10
129.345012
 20
296.828741
 42
0.027930
  0
VERTEX
  8
0
 10
128.426691
 20
295.692481
 42
0.167422
  0
VERTEX
  8
0
 10
128.210867
 20
294.974764
 42
0.152954
  0
VERTEX
  8
0
 10
128.473113
 20
294.240920
 42
0.022202
  0
VERTEX
  8
0
 10
129.496804
 20
293.003531
 42
0.035094
  0
VERTEX
  8
0
 10
130.395242
 20
292.140892
 42
0.095196
  0
VERTEX
  8
0
 10
131.164676
 20
291.715444
 42
0.137952
  0
VERTEX
  8
0
 10
131.858841
 20
291.686897
 42
0.115421
  0
VERTEX
  8
0
 10
132.520785
 20
292.017250
 42
-0.144066
  0
VERTEX
  8
0
 10
134.153698
 20
292.720299
 42
-0.102036
  0
VERTEX
  8
0
 10
136.154221
 20
292.553935
 42
-0.081027
  0
VERTEX
  8
0
 10
138.319433
 20
291.513255
 42
-0.053463
  0
VERTEX
  8
0
 10
140.406396
 20
289.695502
 42
-0.011403
  0
VERTEX
  8
0
 10
141.322441
 20
288.660710
 42
-0.022522
  0
VERTEX
  8
0
 10
141.992307
 20
287.791804
 42
-0.026919
  0
VERTEX
  8
0
 10
142.389223
 20
287.155748
 42
-0.570860
  0
VERTEX
  8
0
 10
142.297264
 20
287.000000
 42
0.506266
  0
VERTEX
  8
0
 10
142.193097
 20
286.858179
 42
0.057650
  0
VERTEX
  8
0
 10
142.383330
 20
286.431010
 42
0.034126
  0
VERTEX
  8
0
 10
142.812454
 20
285.806934
 42
0.016245
  0
VERTEX
  8
0
 10
143.442974
 20
285.063013
 42
-0.040228
  0
VERTEX
  8
0
 10
144.068682
 20
284.248676
 42
-0.050872
  0
VERTEX
  8
0
 10
144.501077
 20
283.403905
 42
-0.059940
  0
VERTEX
  8
0
 10
144.694231
 20
282.652747
 42
-0.173080
  0
VERTEX
  8
0
 10
144.583441
 20
282.135010
 42
0.196079
  0
VERTEX
  8
0
 10
144.511608
 20
281.707131
 42
0.122943
  0
VERTEX
  8
0
 10
144.742641
 20
281.247285
 42
0.086139
  0
VERTEX
  8
0
 10
145.259168
 20
280.822096
 42
0.052429
  0
VERTEX
  8
0
 10
145.985479
 20
280.504609
 42
-0.081345
  0
VERTEX
  8
0
 10
146.841052
 20
280.070369
 42
-0.090203
  0
VERTEX
  8
0
 10
147.478351
 20
279.398343
 42
-0.084196
  0
VERTEX
  8
0
 10
147.867968
 20
278.504280
 42
-0.060818
  0
VERTEX
  8
0
 10
148.000000
 20
277.422825
 42
0.065176
  0
VERTEX
  8
0
 10
148.137864
 20
276.369686
 42
0.043552
  0
VERTEX
  8
0
 10
148.552330
 20
275.224960
 42
0.043466
  0
VERTEX
  8
0
 10
149.160448
 20
274.166077
 42
0.063714
  0
VERTEX
  8
0
 10
149.880273
 20
273.370485
 42
-0.021123
  0
VERTEX
  8
0
 10
150.988008
 20
272.337825
 42
-0.188787
  0
VERTEX
  8
0
 10
151.245342
 20
271.737620
 42
-0.186009
  0
VERTEX
  8
0
 10
151.028753
 20
271.117366
 42
-0.020409
  0
VERTEX
  8
0
 10
149.988062
 20
269.988062
 42
0.119736
  0
VERTEX
  8
0
 10
148.953784
 20
268.289933
 42
0.060571
  0
VERTEX
  8
0
 10
148.483507
 20
265.814355
 42
0.059438
  0
VERTEX
  8
0
 10
148.618376
 20
263.223167
 42
0.096002
  0
VERTEX
  8
0
 10
149.398343
 20
261.164484
 42
-0.051513
  0
VERTEX
  8
0
 10
149.614398
 20
260.717946
 42
-0.111910
  0
VERTEX
  8
0
 10
149.661557
 20
260.342067
 42
-0.186401
  0
VERTEX
  8
0
 10
149.538728
 20
260.098243
 42
-0.185994
  0
VERTEX
  8
0
 10
149.283761
 20
260.000000
 42
0.324794
  0
VERTEX
  8
0
 10
148.965775
 20
259.769080
 42
0.034232
  0
VERTEX
  8
0
 10
148.728554
 20
258.825000
 42
0.032043
  0
VERTEX
  8
0
 10
148.581084
 20
257.533276
 42
0.019636
  0
VERTEX
  8
0
 10
148.565228
 20
256.000000
 42
-0.014574
  0
VERTEX
  8
0
 10
148.564894
 20
254.466475
 42
-0.024056
  0
VERTEX
  8
0
 10
148.464648
 20
253.175000
 42
-0.020957
  0
VERTEX
  8
0
 10
148.298633
 20
252.193010
 42
-0.354134
  0
VERTEX
  8
0
 10
148.060299
 20
252.000000
 42
0.361225
  0
VERTEX
  8
0
 10
147.819618
 20
251.800027
 42
0.016956
  0
VERTEX
  8
0
 10
147.649682
 20
250.678125
 42
0.021402
  0
VERTEX
  8
0
 10
147.542528
 20
249.225270
 42
0.012950
  0
VERTEX
  8
0
 10
147.534033
 20
247.500000
 42
-0.011767
  0
VERTEX
  8
0
 10
147.529620
 20
245.774770
 42
-0.019494
  0
VERTEX
  8
0
 10
147.434966
 20
244.322255
 42
-0.014282
  0
VERTEX
  8
0
 10
147.283581
 20
243.187438
 42
-0.368406
  0
VERTEX
  8
0
 10
147.064218
 20
243.001293
 42
0.411305
  0
VERTEX
  8
0
 10
146.464210
 20
242.409939
 42
0.013298
  0
VERTEX
  8
0
 10
146.517756
 20
238.681373
 42
0.015270
  0
VERTEX
  8
0
 10
146.784488
 20
234.956812
 42
0.214453
  0
VERTEX
  8
0
 10
147.440299
 20
233.823371
 42
-0.190626
  0
VERTEX
  8
0
 10
147.764303
 20
233.318228
 42
-0.056627
  0
VERTEX
  8
0
 10
147.839400
 20
232.386735
 42
-0.043266
  0
VERTEX
  8
0
 10
147.690283
 20
231.141306
 42
-0.023039
  0
VERTEX
  8
0
 10
147.303414
 20
229.636954
 42
0.015966
  0
VERTEX
  8
0
 10
146.795456
 20
227.771519
 42
0.081535
  0
VERTEX
  8
0
 10
146.719249
 20
226.703247
 42
0.160022
  0
VERTEX
  8
0
 10
147.010090
 20
226.031963
 42
0.120120
  0
VERTEX
  8
0
 10
147.676497
 20
225.570645
 42
-0.063023
  0
VERTEX
  8
0
 10
148.191887
 20
225.294227
 42
-0.093894
  0
VERTEX
  8
0
 10
148.545413
 20
224.926265
 42
-0.121681
  0
VERTEX
  8
0
 10
148.684457
 20
224.528112
 42
-0.163275
  0
VERTEX
  8
0
 10
148.597962
 20
224.158507
 42
0.206195
  0
VERTEX
  8
0
 10
148.527911
 20
223.685028
 42
0.049134
  0
VERTEX
  8
0
 10
148.813281
 20
222.922239
 42
0.042514
  0
VERTEX
  8
0
 10
149.344785
 20
222.037881
 42
0.030982
  0
VERTEX
  8
0
 10
150.073536
 20
221.151444
 42
-0.014428
  0
VERTEX
  8
0
 10
150.799875
 20
220.325250
 42
-0.029791
  0
VERTEX
  8
0
 10
151.308269
 20
219.631987
 42
-0.045798
  0
VERTEX
  8
0
 10
151.561317
 20
219.147882
 42
-0.533683
  0
VERTEX
  8
0
 10
151.462230
 20
219.000000
 42
0.640987
  0
VERTEX
  8
0
 10
151.396195
 20
218.856307
 42
0.017987
  0
VERTEX
  8
0
 10
152.004631
 20
218.196914
 42
0.016896
  0
VERTEX
  8
0
 10
152.939610
 20
217.315691
 42
0.008532
  0
VERTEX
  8
0
 10
154.173275
 20
216.266091
 42
-0.002312
  0
VERTEX
  8
0
 10
155.483886
 20
215.178834
 42
-0.003037
  0
VERTEX
  8
0
 10
156.669649
 20
214.173539
 42
-0.002220
  0
VERTEX
  8
0
 10
157.654078
 20
213.320983
 42
-0.028837
  0
VERTEX
  8
0
 10
158.000000
 20
212.981616
 42
0.033450
  0
VERTEX
  8
0
 10
158.334503
 20
212.659448
 42
0.003512
  0
VERTEX
  8
0
 10
159.171233
 20
211.965032
 42
0.004337
  0
VERTEX
  8
0
 10
160.181988
 20
211.152640
 42
0.003464
  0
VERTEX
  8
0
 10
161.285048
 20
210.294037
 42
-0.005882
  0
VERTEX
  8
0
 10
163.140257
 20
208.835514
 42
-0.177834
  0
VERTEX
  8
0
 10
163.440423
 20
208.335657
 42
-0.358030
  0
VERTEX
  8
0
 10
163.230768
 20
207.950806
 42
-0.019258
  0
VERTEX
  8
0
 10
161.829280
 20
207.445815
 42
-0.040809
  0
VERTEX
  8
0
 10
160.880104
 20
207.227814
 42
-0.076094
  0
VERTEX
  8
0
 10
160.092976
 20
207.233882
 42
-0.106954
  0
VERTEX
  8
0
 10
159.526158
 20
207.455493
 42
-0.167348
  0
VERTEX
  8
0
 10
159.210899
 20
207.867304
 42
0.093616
  0
VERTEX
  8
0
 10
158.969622
 20
208.300234
 42
0.070160
  0
VERTEX
  8
0
 10
158.564065
 20
208.667271
 42
0.068536
  0
VERTEX
  8
0
 10
158.062066
 20
208.915130
 42
0.080617
  0
VERTEX
  8
0
 10
157.539111
 20
209.000000
 42
-0.084801
  0
VERTEX
  8
0
 10
156.960963
 20
209.098766
 42
-0.043764
  0
VERTEX
  8
0
 10
156.290793
 20
209.402775
 42
-0.041843
  0
VERTEX
  8
0
 10
155.637974
 20
209.846503
 42
-0.049404
  0
VERTEX
  8
0
 10
155.106936
 20
210.371150
 42
0.122862
  0
VERTEX
  8
0
 10
154.319423
 20
210.949659
 42
0.053274
  0
VERTEX
  8
0
 10
153.062567
 20
211.314653
 42
0.040662
  0
VERTEX
  8
0
 10
151.372917
 20
211.475489
 42
0.020580
  0
VERTEX
  8
0
 10
149.234491
 20
211.416604
 42
-0.027430
  0
VERTEX
  8
0
 10
147.095157
 20
211.386998
 42
-0.016614
  0
VERTEX
  8
0
 10
144.568882
 20
211.574877
 42
-0.016625
  0
VERTEX
  8
0
 10
142.066027
 20
211.929387
 42
-0.027946
  0
VERTEX
  8
0
 10
140.000000
 20
212.412767
 42
0.046018
  0
VERTEX
  8
0
 10
135.606638
 20
213.274745
 42
0.038041
  0
VERTEX
  8
0
 10
130.835619
 20
213.397496
 42
0.039563
  0
VERTEX
  8
0
 10
126.490235
 20
212.832005
 42
0.093154
  0
VERTEX
  8
0
 10
123.483091
 20
211.580878
 42
-0.025839
  0
VERTEX
  8
0
 10
122.391181
 20
210.943492
 42
-0.018245
  0
VERTEX
  8
0
 10
121.105817
 20
210.338016
 42
-0.018473
  0
VERTEX
  8
0
 10
119.831127
 20
209.848304
 42
-0.036526
  0
VERTEX
  8
0
 10
118.783382
 20
209.573130
 42
0.005894
  0
VERTEX
  8
0
 10
117.907946
 20
209.399675
 42
0.009633
  0
VERTEX
  8
0
 10
117.170744
 20
209.229663
 42
0.003732
  0
VERTEX
  8
0
 10
116.553667
 20
209.069871
 42
0.339720
  0
VERTEX
  8
0
 10
116.500000
 20
209.000000
 42
-0.340330
  0
VERTEX
  8
0
 10
116.446201
 20
208.930115
 42
-0.003605
  0
VERTEX
  8
0
 10
115.816865
 20
208.768446
 42
-0.009464
  0
VERTEX
  8
0
 10
115.066047
 20
208.596356
 42
-0.005788
  0
VERTEX
  8
0
 10
114.174435
 20
208.420432
 42
0.026401
  0
VERTEX
  8
0
 10
113.126612
 20
208.168428
 42
0.015182
  0
VERTEX
  8
0
 10
111.893264
 20
207.760842
 42
0.015141
  0
VERTEX
  8
0
 10
110.675804
 20
207.274836
 42
0.024369
  0
VERTEX
  8
0
 10
109.674435
 20
206.780178
 42
-0.006702
  0
VERTEX
  8
0
 10
108.805181
 20
206.311888
 42
-0.008576
  0
VERTEX
  8
0
 10
107.991865
 20
205.905286
 42
-0.006880
  0
VERTEX
  8
0
 10
107.302785
 20
205.587022
 42
-0.069641
  0
VERTEX
  8
0
 10
107.000000
 20
205.500000
 42
0.070407
  0
VERTEX
  8
0
 10
106.694656
 20
205.411739
 42
0.006518
  0
VERTEX
  8
0
 10
105.979867
 20
205.079585
 42
0.008294
  0
VERTEX
  8
0
 10
105.135453
 20
204.656348
 42
0.006415
  0
VERTEX
  8
0
 10
104.229333
 20
204.168320
 42
-0.031983
  0
VERTEX
  8
0
 10
103.295876
 20
203.725524
 42
-0.038481
  0
VERTEX
  8
0
 10
102.368776
 20
203.436646
 42
-0.042226
  0
VERTEX
  8
0
 10
101.572974
 20
203.323905
 42
-0.153669
  0
VERTEX
  8
0
 10
101.084118
 20
203.448012
 42
0.165673
  0
VERTEX
  8
0
 10
100.705688
 20
203.534710
 42
0.121247
  0
VERTEX
  8
0
 10
100.296986
 20
203.388078
 42
0.092940
  0
VERTEX
  8
0
 10
99.918207
 20
203.019955
 42
0.062057
  0
VERTEX
  8
0
 10
99.632610
 20
202.484981
 42
-0.045306
  0
VERTEX
  8
0
 10
99.354388
 20
201.919103
 42
-0.057609
  0
VERTEX
  8
0
 10
98.996647
 20
201.460623
 42
-0.069351
  0
VERTEX
  8
0
 10
98.617819
 20
201.169861
 42
-0.171365
  0
VERTEX
  8
0
 10
98.277826
 20
201.109146
 42
0.036985
  0
VERTEX
  8
0
 10
97.925509
 20
201.140508
 42
0.022615
  0
VERTEX
  8
0
 10
97.508174
 20
201.127826
 42
0.022615
  0
VERTEX
  8
0
 10
97.093662
 20
201.077499
 42
0.036965
  0
VERTEX
  8
0
 10
96.750000
 20
200.993421
 42
-0.003054
  0
VERTEX
  8
0
 10
96.408551
 20
200.884901
 42
-0.001809
  0
VERTEX
  8
0
 10
96.000000
 20
200.759416
 42
-0.001810
  0
VERTEX
  8
0
 10
95.591398
 20
200.637144
 42
-0.003112
  0
VERTEX
  8
0
 10
95.250000
 20
200.538633
 42
0.017918
  0
VERTEX
  8
0
 10
93.775156
 20
200.065340
 42
0.009103
  0
VERTEX
  8
0
 10
91.954623
 20
199.370580
 42
0.009104
  0
VERTEX
  8
0
 10
90.159358
 20
198.609483
 42
0.017796
  0
VERTEX
  8
0
 10
88.763569
 20
197.927002
 42
-0.028199
  0
VERTEX
  8
0
 10
87.997712
 20
197.572068
 42
-0.022094
  0
VERTEX
  8
0
 10
87.132218
 20
197.272307
 42
-0.022581
  0
VERTEX
  8
0
 10
86.299826
 20
197.065004
 42
-0.049772
  0
VERTEX
  8
0
 10
85.648428
 20
197.000000
 42
0.092567
  0
VERTEX
  8
0
 10
84.950310
 20
196.869638
 42
0.025613
  0
VERTEX
  8
0
 10
83.927828
 20
196.412500
 42
0.024941
  0
VERTEX
  8
0
 10
82.801769
 20
195.765495
 42
0.023787
  0
VERTEX
  8
0
 10
81.727129
 20
195.000000
 42
-0.071486
  0
VERTEX
  8
0
 10
79.476858
 20
193.700239
 42
-0.069973
  0
VERTEX
  8
0
 10
76.935128
 20
193.074621
 42
-0.082276
  0
VERTEX
  8
0
 10
74.714456
 20
193.213722
 42
-0.200234
  0
VERTEX
  8
0
 10
73.406374
 20
194.151490
 42
0.111385
  0
VERTEX
  8
0
 10
73.007703
 20
194.558190
 42
0.216106
  0
VERTEX
  8
0
 10
72.566689
 20
194.623872
 42
0.131255
  0
VERTEX
  8
0
 10
72.058141
 20
194.319836
 42
0.034906
  0
VERTEX
  8
0
 10
71.443357
 20
193.591650
 42
-0.039353
  0
VERTEX
  8
0
 10
70.861729
 20
192.915019
 42
-0.116030
  0
VERTEX
  8
0
 10
70.342504
 20
192.595917
 42
-0.193825
  0
VERTEX
  8
0
 10
69.897369
 20
192.623936
 42
-0.143844
  0
VERTEX
  8
0
 10
69.526902
 20
192.956471
 42
0.085193
  0
VERTEX
  8
0
 10
69.202388
 20
193.323831
 42
0.093572
  0
VERTEX
  8
0
 10
68.783724
 20
193.547501
 42
0.100395
  0
VERTEX
  8
0
 10
68.337079
 20
193.594097
 42
0.114852
  0
VERTEX
  8
0
 10
67.930902
 20
193.457295
 42
-0.078726
  0
VERTEX
  8
0
 10
67.575029
 20
193.308323
 42
-0.156664
  0
VERTEX
  8
0
 10
67.273452
 20
193.329917
 42
-0.185009
  0
VERTEX
  8
0
 10
67.073454
 20
193.515551
 42
-0.114686
  0
VERTEX
  8
0
 10
67.000000
 20
193.831577
 42
0.246722
  0
VERTEX
  8
0
 10
66.790325
 20
194.230633
 42
0.046102
  0
VERTEX
  8
0
 10
66.045312
 20
194.648433
 42
0.039885
  0
VERTEX
  8
0
 10
64.994949
 20
195.019074
 42
0.026894
  0
VERTEX
  8
0
 10
63.750000
 20
195.278868
 42
-0.009899
  0
VERTEX
  8
0
 10
60.209234
 20
195.893042
 42
-0.024415
  0
VERTEX
  8
0
 10
57.648515
 20
196.520687
 42
-0.033354
  0
VERTEX
  8
0
 10
55.774095
 20
197.217400
 42
-0.067645
  0
VERTEX
  8
0
 10
54.441777
 20
198.048321
 42
0.057554
  0
VERTEX
  8
0
 10
53.851370
 20
198.433235
 42
0.060696
  0
VERTEX
  8
0
 10
53.199076
 20
198.665091
 42
0.067844
  0
VERTEX
  8
0
 10
52.585932
 20
198.717208
 42
0.126389
  0
VERTEX
  8
0
 10
52.112903
 20
198.569778
 42
-0.091769
  0
VERTEX
  8
0
 10
51.698240
 20
198.408683
 42
-0.095936
  0
VERTEX
  8
0
 10
51.260120
 20
198.410332
 42
-0.099456
  0
VERTEX
  8
0
 10
50.866733
 20
198.573559
 42
-0.106817
  0
VERTEX
  8
0
 10
50.578547
 20
198.872909
 42
0.112384
  0
VERTEX
  8
0
 10
50.192120
 20
199.265564
 42
0.028497
  0
VERTEX
  8
0
 10
49.407383
 20
199.707182
 42
0.027605
  0
VERTEX
  8
0
 10
48.429689
 20
200.121020
 42
0.024833
  0
VERTEX
  8
0
 10
47.377496
 20
200.441390
 42
-0.050254
  0
VERTEX
  8
0
 10
46.238165
 20
200.852543
 42
-0.031282
  0
VERTEX
  8
0
 10
44.996937
 20
201.545684
 42
-0.031212
  0
VERTEX
  8
0
 10
43.846520
 20
202.391961
 42
-0.048412
  0
VERTEX
  8
0
 10
42.982664
 20
203.269737
 42
0.025037
  0
VERTEX
  8
0
 10
41.960082
 20
204.410733
 42
0.139518
  0
VERTEX
  8
0
 10
41.251048
 20
204.809913
 42
0.183851
  0
VERTEX
  8
0
 10
40.545693
 20
204.719043
 42
0.050282
  0
VERTEX
  8
0
 10
39.598584
 20
204.081818
 42
0.081089
  0
VERTEX
  8
0
 10
38.961296
 20
203.349684
 42
0.061877
  0
VERTEX
  8
0
 10
38.516901
 20
202.382823
 42
0.058014
  0
VERTEX
  8
0
 10
38.301639
 20
201.271550
 42
0.054233
  0
VERTEX
  8
0
 10
38.339750
 20
200.114251
 42
-0.034442
  0
VERTEX
  8
0
 10
38.423872
 20
198.954703
 42
-0.023281
  0
VERTEX
  8
0
 10
38.366878
 20
197.629753
 42
-0.023502
  0
VERTEX
  8
0
 10
38.190779
 20
196.348012
 42
-0.042509
  0
VERTEX
  8
0
 10
37.909983
 20
195.327461
 42
0.050939
  0
VERTEX
  8
0
 10
37.641291
 20
194.282485
 42
0.086947
  0
VERTEX
  8
0
 10
37.662471
 20
193.384066
 42
0.096009
  0
VERTEX
  8
0
 10
37.980130
 20
192.607879
 42
0.074684
  0
VERTEX
  8
0
 10
38.588940
 20
191.926187
 42
0.073077
  0
VERTEX
  8
0
 10
39.436365
 20
191.410316
 42
0.166940
  0
VERTEX
  8
0
 10
40.173355
 20
191.358565
 42
0.114598
  0
VERTEX
  8
0
 10
40.971573
 20
191.783223
 42
0.025918
  0
VERTEX
  8
0
 10
42.082605
 20
192.858291
 42
-0.034823
  0
VERTEX
  8
0
 10
43.125330
 20
193.831939
 42
-0.089490
  0
VERTEX
  8
0
 10
44.025698
 20
194.327360
 42
-0.117134
  0
VERTEX
  8
0
 10
44.887962
 20
194.406322
 42
-0.087601
  0
VERTEX
  8
0
 10
45.797867
 20
194.108178
 42
0.022235
  0
VERTEX
  8
0
 10
46.502165
 20
193.770623
 42
0.024581
  0
VERTEX
  8
0
 10
47.210788
 20
193.509287
 42
0.024985
  0
VERTEX
  8
0
 10
47.831902
 20
193.347904
 42
0.103409
  0
VERTEX
  8
0
 10
48.217580
 20
193.348612
 42
-0.158907
  0
VERTEX
  8
0
 10
48.615411
 20
193.305777
 42
-0.025372
  0
VERTEX
  8
0
 10
49.321394
 20
192.944342
 42
-0.025927
  0
VERTEX
  8
0
 10
50.136822
 20
192.415046
 42
-0.020131
  0
VERTEX
  8
0
 10
50.967580
 20
191.759787
 42
0.013465
  0
VERTEX
  8
0
 10
51.747868
 20
191.127289
 42
0.026918
  0
VERTEX
  8
0
 10
52.402977
 20
190.678704
 42
0.036276
  0
VERTEX
  8
0
 10
52.871617
 20
190.438245
 42
0.537361
  0
VERTEX
  8
0
 10
53.000000
 20
190.523207
 42
-0.473836
  0
VERTEX
  8
0
 10
53.160561
 20
190.654594
 42
-0.017279
  0
VERTEX
  8
0
 10
54.035323
 20
190.446312
 42
-0.020428
  0
VERTEX
  8
0
 10
55.172512
 20
190.083100
 42
-0.011444
  0
VERTEX
  8
0
 10
56.524504
 20
189.554208
 42
0.023253
  0
VERTEX
  8
0
 10
57.970310
 20
189.027625
 42
0.026355
  0
VERTEX
  8
0
 10
59.400050
 20
188.662423
 42
0.026927
  0
VERTEX
  8
0
 10
60.632093
 20
188.484345
 42
0.114525
  0
VERTEX
  8
0
 10
61.364291
 20
188.586297
 42
-0.109585
  0
VERTEX
  8
0
 10
61.954289
 20
188.674325
 42
-0.069712
  0
VERTEX
  8
0
 10
62.636261
 20
188.529403
 42
-0.064838
  0
VERTEX
  8
0
 10
63.302668
 20
188.184087
 42
-0.067727
  0
VERTEX
  8
0
 10
63.847410
 20
187.683859
 42
0.093970
  0
VERTEX
  8
0
 10
64.475677
 20
187.164606
 42
0.050671
  0
VERTEX
  8
0
 10
65.403067
 20
186.770283
 42
0.047991
  0
VERTEX
  8
0
 10
66.464983
 20
186.549629
 42
0.054629
  0
VERTEX
  8
0
 10
67.503321
 20
186.549822
 42
-0.035896
  0
VERTEX
  8
0
 10
68.497041
 20
186.587177
 42
-0.043036
  0
VERTEX
  8
0
 10
69.425997
 20
186.474969
 42
-0.048325
  0
VERTEX
  8
0
 10
70.167191
 20
186.243414
 42
-0.155702
  0
VERTEX
  8
0
 10
70.554714
 20
185.911471
 42
0.152668
  0
VERTEX
  8
0
 10
70.960629
 20
185.559581
 42
0.038168
  0
VERTEX
  8
0
 10
71.799136
 20
185.267745
 42
0.035432
  0
VERTEX
  8
0
 10
72.855428
 20
185.067012
 42
0.029249
  0
VERTEX
  8
0
 10
74.000000
 20
185.000000
 42
-0.046620
  0
VERTEX
  8
0
 10
76.309996
 20
184.784147
 42
-0.230835
  0
VERTEX
  8
0
 10
77.327808
 20
184.026235
 42
-0.239111
  0
VERTEX
  8
0
 10
77.337274
 20
182.780453
 42
-0.049561
  0
VERTEX
  8
0
 10
76.135704
 20
180.867537
 42
0.058750
  0
VERTEX
  8
0
 10
75.065325
 20
179.092066
 42
0.119466
  0
VERTEX
  8
0
 10
74.763653
 20
177.500807
 42
0.196889
  0
VERTEX
  8
0
 10
75.264434
 20
176.435017
 42
0.187848
  0
VERTEX
  8
0
 10
76.381470
 20
176.000000
 42
0.141460
  0
VERTEX
  8
0
 10
77.046468
 20
176.191983
 42
0.019258
  0
VERTEX
  8
0
 10
78.253409
 20
177.018798
 42
0.020904
  0
VERTEX
  8
0
 10
79.637456
 20
178.140162
 42
0.016259
  0
VERTEX
  8
0
 10
81.048136
 20
179.468249
 42
-0.010563
  0
VERTEX
  8
0
 10
82.429886
 20
180.799110
 42
-0.014684
  0
VERTEX
  8
0
 10
83.725927
 20
181.927026
 42
-0.011093
  0
VERTEX
  8
0
 10
84.838529
 20
182.798752
 42
-0.152045
  0
VERTEX
  8
0
 10
85.316722
 20
182.968249
 42
0.117969
  0
VERTEX
  8
0
 10
85.798343
 20
183.103466
 42
0.011310
  0
VERTEX
  8
0
 10
86.856347
 20
183.725048
 42
0.013910
  0
VERTEX
  8
0
 10
88.096186
 20
184.540222
 42
0.010542
  0
VERTEX
  8
0
 10
89.411113
 20
185.500000
 42
-0.015604
  0
VERTEX
  8
0
 10
90.750734
 20
186.457174
 42
-0.018934
  0
VERTEX
  8
0
 10
92.065427
 20
187.265625
 42
-0.017798
  0
VERTEX
  8
0
 10
93.206475
 20
187.856586
 42
-0.111023
  0
VERTEX
  8
0
 10
93.844391
 20
188.000000
 42
0.087427
  0
VERTEX
  8
0
 10
94.285636
 20
188.077748
 42
0.094437
  0
VERTEX
  8
0
 10
94.660540
 20
188.301021
 42
0.100130
  0
VERTEX
  8
0
 10
94.911319
 20
188.633831
 42
0.112004
  0
VERTEX
  8
0
 10
95.000000
 20
189.024751
 42
-0.162437
  0
VERTEX
  8
0
 10
95.154219
 20
189.486929
 42
-0.049129
  0
VERTEX
  8
0
 10
95.660938
 20
190.039322
 42
-0.043468
  0
VERTEX
  8
0
 10
96.388863
 20
190.585191
 42
-0.035518
  0
VERTEX
  8
0
 10
97.250000
 20
191.039598
 42
0.015293
  0
VERTEX
  8
0
 10
98.323084
 20
191.551522
 42
0.006620
  0
VERTEX
  8
0
 10
99.720312
 20
192.294902
 42
0.006543
  0
VERTEX
  8
0
 10
101.186795
 20
193.125379
 42
0.008631
  0
VERTEX
  8
0
 10
102.500000
 20
193.922625
 42
-0.018048
  0
VERTEX
  8
0
 10
107.317434
 20
196.724535
 42
-0.010100
  0
VERTEX
  8
0
 10
113.360301
 20
199.797935
 42
-0.005914
  0
VERTEX
  8
0
 10
119.254638
 20
202.561917
 42
-0.107069
  0
VERTEX
  8
0
 10
121.276987
 20
203.000000
 42
-0.051231
  0
VERTEX
  8
0
 10
121.936266
 20
202.932272
 42
-0.071166
  0
VERTEX
  8
0
 10
122.493865
 20
202.730729
 42
-0.091227
  0
VERTEX
  8
0
 10
122.868707
 20
202.433221
 42
-0.181444
  0
VERTEX
  8
0
 10
123.000000
 20
202.083333
 42
0.201713
  0
VERTEX
  8
0
 10
123.176082
 20
201.664625
 42
0.041240
  0
VERTEX
  8
0
 10
123.807812
 20
201.140899
 42
0.037406
  0
VERTEX
  8
0
 10
124.696971
 20
200.613955
 42
0.027514
  0
VERTEX
  8
0
 10
125.750000
 20
200.162281
 42
-0.017955
  0
VERTEX
  8
0
 10
126.718885
 20
199.768444
 42
-0.076419
  0
VERTEX
  8
0
 10
127.242072
 20
199.429742
 42
-0.420705
  0
VERTEX
  8
0
 10
127.252383
 20
199.211774
 42
-0.194949
  0
VERTEX
  8
0
 10
126.967693
 20
199.078947
 42
0.167053
  0
VERTEX
  8
0
 10
125.197243
 20
198.366617
 42
0.009979
  0
VERTEX
  8
0
 10
120.858770
 20
194.456360
 42
0.009118
  0
VERTEX
  8
0
 10
116.644469
 20
190.355763
 42
0.197727
  0
VERTEX
  8
0
 10
116.000000
 20
188.789783
 42
-0.108206
  0
VERTEX
  8
0
 10
115.933310
 20
188.485225
 42
-0.181896
  0
VERTEX
  8
0
 10
115.749494
 20
188.303458
 42
-0.161812
  0
VERTEX
  8
0
 10
115.473040
 20
188.275974
 42
-0.083147
  0
VERTEX
  8
0
 10
115.147214
 20
188.409017
 42
0.283457
  0
VERTEX
  8
0
 10
114.649106
 20
188.409590
 42
0.032581
  0
VERTEX
  8
0
 10
113.693877
 20
187.732804
 42
0.031525
  0
VERTEX
  8
0
 10
112.569238
 20
186.696422
 42
0.020336
  0
VERTEX
  8
0
 10
111.397214
 20
185.366901
 42
-0.008323
  0
VERTEX
  8
0
 10
107.703594
 20
180.968314
 42
-0.092517
  0
VERTEX
  8
0
 10
105.915992
 20
179.548760
 42
-0.103289
  0
VERTEX
  8
0
 10
103.800144
 20
178.938548
 42
-0.011464
  0
VERTEX
  8
0
 10
98.750000
 20
178.675673
 42
0.023455
  0
VERTEX
  8
0
 10
97.696154
 20
178.595447
 42
0.037071
  0
VERTEX
  8
0
 10
96.807812
 20
178.418154
 42
0.042497
  0
VERTEX
  8
0
 10
96.171160
 20
178.181391
 42
0.290213
  0
VERTEX
  8
0
 10
96.000000
 20
177.911340
 42
-0.267736
  0
VERTEX
  8
0
 10
95.827385
 20
177.612088
 42
-0.032140
  0
VERTEX
  8
0
 10
95.116962
 20
177.259988
 42
-0.031337
  0
VERTEX
  8
0
 10
94.145727
 20
176.923811
 42
-0.020635
  0
VERTEX
  8
0
 10
92.993915
 20
176.654961
 42
0.002050
  0
VERTEX
  8
0
 10
91.744468
 20
176.411887
 42
0.001950
  0
VERTEX
  8
0
 10
90.476141
 20
176.154592
 42
0.001934
  0
VERTEX
  8
0
 10
89.356850
 20
175.918462
 42
0.006918
  0
VERTEX
  8
0
 10
88.644081
 20
175.754864
 42
0.086826
  0
VERTEX
  8
0
 10
85.793379
 20
174.506801
 42
0.024786
  0
VERTEX
  8
0
 10
81.892418
 20
171.629873
 42
0.017610
  0
VERTEX
  8
0
 10
78.352362
 20
168.523591
 42
0.423015
  0
VERTEX
  8
0
 10
78.334515
 20
167.332152
 42
-0.307838
  0
VERTEX
  8
0
 10
78.434192
 20
166.808599
 42
-0.050555
  0
VERTEX
  8
0
 10
77.903777
 20
165.860688
 42
-0.020703
  0
VERTEX
  8
0
 10
76.658688
 20
164.231593
 42
-0.002328
  0
VERTEX
  8
0
 10
73.663554
 20
160.665790
 42
0.005040
  0
VERTEX
  8
0
 10
70.796769
 20
157.214962
 42
0.010418
  0
VERTEX
  8
0
 10
68.640994
 20
154.450412
 42
0.006343
  0
VERTEX
  8
0
 10
67.028748
 20
152.233474
 42
0.201622
  0
VERTEX
  8
0
 10
66.886291
 20
151.590932
 42
-0.208251
  0
VERTEX
  8
0
 10
66.717075
 20
150.871160
 42
-0.007761
  0
VERTEX
  8
0
 10
64.979269
 20
148.618372
 42
-0.013204
  0
VERTEX
  8
0
 10
62.802154
 20
146.028286
 42
-0.009587
  0
VERTEX
  8
0
 10
60.250000
 20
143.258719
 42
0.014308
  0
VERTEX
  8
0
 10
59.388334
 20
142.305755
 42
0.018785
  0
VERTEX
  8
0
 10
58.660938
 20
141.385635
 42
0.016511
  0
VERTEX
  8
0
 10
58.118621
 20
140.590145
 42
0.142285
  0
VERTEX
  8
0
 10
58.000000
 20
140.181742
 42
-0.126795
  0
VERTEX
  8
0
 10
57.877364
 20
139.705920
 42
-0.004991
  0
VERTEX
  8
0
 10
56.983653
 20
138.124806
 42
-0.008564
  0
VERTEX
  8
0
 10
55.865727
 20
136.266487
 42
-0.005919
  0
VERTEX
  8
0
 10
54.540094
 20
134.200791
 42
0.006214
  0
VERTEX
  8
0
 10
53.229082
 20
132.155228
 42
0.009733
  0
VERTEX
  8
0
 10
52.158195
 20
130.360841
 42
0.004320
  0
VERTEX
  8
0
 10
51.299224
 20
128.825044
 42
0.240853
  0
VERTEX
  8
0
 10
51.290094
 20
128.506016
 42
-0.231393
  0
VERTEX
  8
0
 10
51.287182
 20
128.233606
 42
-0.020794
  0
VERTEX
  8
0
 10
50.946017
 20
127.619444
 42
-0.023683
  0
VERTEX
  8
0
 10
50.450859
 20
126.889412
 42
-0.016189
  0
VERTEX
  8
0
 10
49.824006
 20
126.107422
 42
0.057790
  0
VERTEX
  8
0
 10
49.217815
 20
125.207224
 42
0.048438
  0
VERTEX
  8
0
 10
48.790177
 20
124.137786
 42
0.050414
  0
VERTEX
  8
0
 10
48.591419
 20
123.062944
 42
0.084673
  0
VERTEX
  8
0
 10
48.670829
 20
122.150751
 42
-0.246878
  0
VERTEX
  8
0
 10
48.243910
 20
120.313348
 42
-0.080522
  0
VERTEX
  8
0
 10
46.041928
 20
118.467197
 42
-0.068688
  0
VERTEX
  8
0
 10
42.914452
 20
117.145423
 42
-0.083332
  0
VERTEX
  8
0
 10
39.750000
 20
116.839349
 42
0.036707
  0
VERTEX
  8
0
 10
38.584435
 20
116.835242
 42
0.080951
  0
VERTEX
  8
0
 10
37.721836
 20
116.625561
 42
0.123429
  0
VERTEX
  8
0
 10
37.195190
 20
116.228829
 42
0.171543
  0
VERTEX
  8
0
 10
37.000000
 20
115.676649
 42
-0.182005
  0
VERTEX
  8
0
 10
36.786907
 20
115.110638
 42
-0.122725
  0
VERTEX
  8
0
 10
36.213679
 20
114.713037
 42
-0.075333
  0
VERTEX
  8
0
 10
35.254502
 20
114.506771
 42
-0.030224
  0
VERTEX
  8
0
 10
33.909001
 20
114.505414
 42
0.037453
  0
VERTEX
  8
0
 10
32.612251
 20
114.485376
 42
0.058136
  0
VERTEX
  8
0
 10
31.518279
 20
114.256246
 42
0.073398
  0
VERTEX
  8
0
 10
30.714068
 20
113.848606
 42
0.148251
  0
VERTEX
  8
0
 10
30.282209
 20
113.293042
 42
-0.129858
  0
VERTEX
  8
0
 10
29.866336
 20
112.716237
 42
-0.114226
  0
VERTEX
  8
0
 10
29.199966
 20
112.385767
 42
-0.079215
  0
VERTEX
  8
0
 10
28.245647
 20
112.314236
 42
-0.033242
  0
VERTEX
  8
0
 10
26.968408
 20
112.506939
 42
0.034662
  0
VERTEX
  8
0
 10
25.861887
 20
112.670676
 42
0.044577
  0
VERTEX
  8
0
 10
24.834017
 20
112.658873
 42
0.051303
  0
VERTEX
  8
0
 10
24.019371
 20
112.491110
 42
0.179804
  0
VERTEX
  8
0
 10
23.603428
 20
112.167350
 42
-0.186242
  0
VERTEX
  8
0
 10
23.158183
 20
111.829605
 42
-0.039641
  0
VERTEX
  8
0
 10
22.188012
 20
111.631474
 42
-0.036406
  0
VERTEX
  8
0
 10
20.956802
 20
111.570564
 42
-0.027659
  0
VERTEX
  8
0
 10
19.609250
 20
111.676771
 42
0.029972
  0
VERTEX
  8
0
 10
18.258160
 20
111.776975
 42
0.038591
  0
VERTEX
  8
0
 10
17.015962
 20
111.698563
 42
0.042702
  0
VERTEX
  8
0
 10
16.034941
 20
111.473478
 42
0.178442
  0
VERTEX
  8
0
 10
15.565621
 20
111.106177
 42
-0.151407
  0
VERTEX
  8
0
 10
15.136731
 20
110.732515
 42
-0.093326
  0
VERTEX
  8
0
 10
14.479695
 20
110.578641
 42
-0.067389
  0
VERTEX
  8
0
 10
13.613345
 20
110.657382
 42
-0.034541
  0
VERTEX
  8
0
 10
12.567421
 20
110.974367
 42
0.028694
  0
VERTEX
  8
0
 10
11.618998
 20
111.273942
 42
0.037356
  0
VERTEX
  8
0
 10
10.722338
 20
111.431461
 42
0.040979
  0
VERTEX
  8
0
 10
9.988766
 20
111.444161
 42
0.182175
  0
VERTEX
  8
0
 10
9.602823
 20
111.269489
 42
-0.142903
  0
VERTEX
  8
0
 10
9.374651
 20
111.144390
 42
-0.260509
  0
VERTEX
  8
0
 10
9.177079
 20
111.203790
 42
-0.144812
  0
VERTEX
  8
0
 10
9.041752
 20
111.462826
 42
-0.048489
  0
VERTEX
  8
0
 10
9.000000
 20
111.892350
 42
0.108605
  0
VERTEX
  8
0
 10
8.909663
 20
112.303343
 42
0.182109
  0
VERTEX
  8
0
 10
8.660863
 20
112.548391
 42
0.161491
  0
VERTEX
  8
0
 10
8.286614
 20
112.584927
 42
0.082857
  0
VERTEX
  8
0
 10
7.845492
 20
112.404508
 42
-0.028921
  0
VERTEX
  8
0
 10
7.378974
 20
112.152218
 42
-0.337595
  0
VERTEX
  8
0
 10
7.188951
 20
112.193364
 42
-0.297834
  0
VERTEX
  8
0
 10
7.162510
 20
112.399689
 42
-0.025529
  0
VERTEX
  8
0
 10
7.431687
 20
112.889468
 42
0.146629
  0
VERTEX
  8
0
 10
7.602127
 20
113.524054
 42
0.051966
  0
VERTEX
  8
0
 10
7.476468
 20
114.465939
 42
0.046101
  0
VERTEX
  8
0
 10
7.112389
 20
115.533723
 42
0.039846
  0
VERTEX
  8
0
 10
6.543993
 20
116.573202
 42
0.018346
  0
VERTEX
  8
0
 10
5.555030
 20
117.968111
 42
0.156377
  0
VERTEX
  8
0
 10
4.933150
 20
118.400112
 42
0.230666
  0
VERTEX
  8
0
 10
4.305664
 20
118.301097
 42
0.043901
  0
VERTEX
  8
0
 10
3.394040
 20
117.536897
 42
0.050557
  0
VERTEX
  8
0
 10
2.858186
 20
116.880146
 42
0.060549
  0
VERTEX
  8
0
 10
2.502381
 20
116.166295
 42
0.071278
  0
VERTEX
  8
0
 10
2.369019
 20
115.505427
 42
0.153792
  0
VERTEX
  8
0
 10
2.495259
 20
115.007671
 42
-0.092873
  0
VERTEX
  8
0
 10
2.643678
 20
114.623143
 42
-0.171314
  0
VERTEX
  8
0
 10
2.592163
 20
114.296003
 42
-0.174304
  0
VERTEX
  8
0
 10
2.348022
 20
114.077459
 42
-0.096546
  0
VERTEX
  8
0
 10
1.950609
 20
114.000000
 42
0.195344
  0
VERTEX
  8
0
 10
1.510641
 20
113.821290
 42
0.144808
  0
VERTEX
  8
0
 10
1.251037
 20
113.358832
 42
0.084129
  0
VERTEX
  8
0
 10
1.208230
 20
112.595782
 42
0.033533
  0
VERTEX
  8
0
 10
1.395262
 20
111.561285
 42
-0.032795
  0
VERTEX
  8
0
 10
1.571973
 20
110.592049
 42
-0.043503
  0
VERTEX
  8
0
 10
1.596899
 20
109.696398
 42
-0.050159
  0
VERTEX
  8
0
 10
1.483216
 20
108.989086
 42
-0.191704
  0
VERTEX
  8
0
 10
1.222171
 20
108.637309
 42
0.154628
  0
VERTEX
  8
0
 10
0.903892
 20
108.267311
 42
0.029651
  0
VERTEX
  8
0
 10
0.601253
 20
107.423286
 42
0.029058
  0
VERTEX
  8
0
 10
0.355093
 20
106.357090
 42
0.023192
  0
VERTEX
  8
0
 10
0.210988
 20
105.185895
 42
0.083200
  0
VERTEX
  8
0
 10
0.422448
 20
102.841828
 42
0.246597
  0
VERTEX
  8
0
 10
1.477172
 20
101.685625
 42
0.238276
  0
VERTEX
  8
0
 10
3.061992
 20
101.876899
 42
0.079250
  0
VERTEX
  8
0
 10
4.830457
 20
103.511590
 42
-0.027175
  0
VERTEX
  8
0
 10
5.605654
 20
104.393921
 42
-0.044963
  0
VERTEX
  8
0
 10
6.359769
 20
105.036540
 42
-0.058758
  0
VERTEX
  8
0
 10
6.990800
 20
105.380042
 42
-0.300187
  0
VERTEX
  8
0
 10
7.362878
 20
105.303788
 42
0.159467
  0
VERTEX
  8
0
 10
7.832448
 20
105.065778
 42
0.015578
  0
VERTEX
  8
0
 10
9.111462
 20
104.909342
 42
0.018487
  0
VERTEX
  8
0
 10
10.685975
 20
104.824896
 42
0.013606
  0
VERTEX
  8
0
 10
12.433087
 20
104.843411
 42
-0.020721
  0
VERTEX
  8
0
 10
14.177846
 20
104.837076
 42
-0.028072
  0
VERTEX
  8
0
 10
15.745770
 20
104.677865
 42
-0.027700
  0
VERTEX
  8
0
 10
16.983033
 20
104.410643
 42
-0.189502
  0
VERTEX
  8
0
 10
17.472855
 20
104.043921
 42
0.167545
  0
VERTEX
  8
0
 10
17.864977
 20
103.723430
 42
0.070861
  0
VERTEX
  8
0
 10
18.538259
 20
103.578711
 42
0.058005
  0
VERTEX
  8
0
 10
19.381764
 20
103.617236
 42
0.043263
  0
VERTEX
  8
0
 10
20.285402
 20
103.846043
 42
-0.031010
  0
VERTEX
  8
0
 10
21.296826
 20
104.128649
 42
-0.019313
  0
VERTEX
  8
0
 10
22.510399
 20
104.339270
 42
-0.019359
  0
VERTEX
  8
0
 10
23.728002
 20
104.454687
 42
-0.032957
  0
VERTEX
  8
0
 10
24.750000
 20
104.444368
 42
0.039731
  0
VERTEX
  8
0
 10
25.611698
 20
104.447329
 42
0.061550
  0
VERTEX
  8
0
 10
26.339062
 20
104.599172
 42
0.084051
  0
VERTEX
  8
0
 10
26.831444
 20
104.865899
 42
0.230621
  0
VERTEX
  8
0
 10
27.000000
 20
105.211902
 42
-0.268087
  0
VERTEX
  8
0
 10
27.197346
 20
105.553514
 42
-0.070100
  0
VERTEX
  8
0
 10
27.807813
 20
105.799549
 42
-0.051896
  0
VERTEX
  8
0
 10
28.696314
 20
105.924255
 42
-0.032215
  0
VERTEX
  8
0
 10
29.750000
 20
105.894044
 42
0.048194
  0
VERTEX
  8
0
 10
32.259424
 20
105.902177
 42
0.051825
  0
VERTEX
  8
0
 10
34.657970
 20
106.396164
 42
0.060083
  0
VERTEX
  8
0
 10
36.449703
 20
107.210728
 42
0.261765
  0
VERTEX
  8
0
 10
37.000000
 20
108.189832
 42
-0.118667
  0
VERTEX
  8
0
 10
37.091914
 20
108.571656
 42
-0.292838
  0
VERTEX
  8
0
 10
37.330011
 20
108.710710
 42
-0.135542
  0
VERTEX
  8
0
 10
37.733438
 20
108.581215
 42
-0.028178
  0
VERTEX
  8
0
 10
38.337637
 20
108.134749
 42
0.124554
  0
VERTEX
  8
0
 10
39.203190
 20
107.722078
 42
0.089180
  0
VERTEX
  8
0
 10
40.279978
 20
107.701432
 42
0.055510
  0
VERTEX
  8
0
 10
41.721200
 20
108.099718
 42
0.017388
  0
VERTEX
  8
0
 10
43.774061
 20
109.004926
 42
0.012828
  0
VERTEX
  8
0
 10
45.389045
 20
109.836957
 42
0.015703
  0
VERTEX
  8
0
 10
46.851715
 20
110.699443
 42
0.014236
  0
VERTEX
  8
0
 10
48.025683
 20
111.490008
 42
0.099348
  0
VERTEX
  8
0
 10
48.495440
 20
111.992622
 42
-0.099309
  0
VERTEX
  8
0
 10
49.445865
 20
113.009683
 42
-0.503642
  0
VERTEX
  8
0
 10
50.070173
 20
112.808441
 42
-0.133949
  0
VERTEX
  8
0
 10
50.157380
 20
111.345558
 42
-0.033116
  0
VERTEX
  8
0
 10
49.503396
 20
109.009626
 42
0.011168
  0
VERTEX
  8
0
 10
48.721379
 20
106.624683
 42
0.092638
  0
VERTEX
  8
0
 10
48.597148
 20
105.497455
 42
0.181967
  0
VERTEX
  8
0
 10
48.944131
 20
104.750707
 42
0.071227
  0
VERTEX
  8
0
 10
49.874693
 20
104.067062
 42
0.071242
  0
VERTEX
  8
0
 10
50.814641
 20
103.724857
 42
0.124726
  0
VERTEX
  8
0
 10
51.637249
 20
103.758819
 42
0.103917
  0
VERTEX
  8
0
 10
52.445833
 20
104.196906
 42
0.039792
  0
VERTEX
  8
0
 10
53.357111
 20
105.104107
 42
0.038209
  0
VERTEX
  8
0
 10
53.965592
 20
105.935652
 42
0.048391
  0
VERTEX
  8
0
 10
54.386946
 20
106.789044
 42
0.056490
  0
VERTEX
  8
0
 10
54.578223
 20
107.541091
 42
0.174174
  0
VERTEX
  8
0
 10
54.471156
 20
108.046670
 42
-0.085822
  0
VERTEX
  8
0
 10
54.324730
 20
108.410788
 42
-0.164668
  0
VERTEX
  8
0
 10
54.360530
 20
108.719959
 42
-0.179884
  0
VERTEX
  8
0
 10
54.571500
 20
108.925823
 42
-0.104677
  0
VERTEX
  8
0
 10
54.921931
 20
109.000000
 42
0.189922
  0
VERTEX
  8
0
 10
55.365389
 20
109.174748
 42
0.058024
  0
VERTEX
  8
0
 10
55.840723
 20
109.734375
 42
0.048811
  0
VERTEX
  8
0
 10
56.272741
 20
110.543024
 42
0.036821
  0
VERTEX
  8
0
 10
56.589356
 20
111.500000
 42
-0.023976
  0
VERTEX
  8
0
 10
56.879146
 20
112.457644
 42
-0.034938
  0
VERTEX
  8
0
 10
57.231894
 20
113.265625
 42
-0.037762
  0
VERTEX
  8
0
 10
57.594013
 20
113.847118
 42
-0.238983
  0
VERTEX
  8
0
 10
57.895604
 20
114.000000
 42
0.251381
  0
VERTEX
  8
0
 10
58.168164
 20
114.146277
 42
0.054059
  0
VERTEX
  8
0
 10
58.423116
 20
114.638790
 42
0.044317
  0
VERTEX
  8
0
 10
58.626031
 20
115.341582
 42
0.029339
  0
VERTEX
  8
0
 10
58.738199
 20
116.174606
 42
-0.044682
  0
VERTEX
  8
0
 10
59.063241
 20
118.132799
 42
-0.018942
  0
VERTEX
  8
0
 10
59.829369
 20
120.684540
 42
-0.014814
  0
VERTEX
  8
0
 10
61.037705
 20
123.902769
 42
-0.006922
  0
VERTEX
  8
0
 10
62.782795
 20
128.000000
 42
0.009432
  0
VERTEX
  8
0
 10
63.357924
 20
129.369346
 42
0.014181
  0
VERTEX
  8
0
 10
63.802566
 20
130.585908
 42
0.008956
  0
VERTEX
  8
0
 10
64.121559
 20
131.602222
 42
0.218406
  0
VERTEX
  8
0
 10
64.080140
 20
131.888197
 42
-0.205516
  0
VERTEX
  8
0
 10
64.047193
 20
132.081865
 42
-0.076917
  0
VERTEX
  8
0
 10
64.154280
 20
132.342078
 42
-0.059785
  0
VERTEX
  8
0
 10
64.375769
 20
132.625484
 42
-0.041856
  0
VERTEX
  8
0
 10
64.684944
 20
132.888197
 42
0.108455
  0
VERTEX
  8
0
 10
65.424544
 20
133.707919
 42
0.015581
  0
VERTEX
  8
0
 10
66.487037
 20
135.715167
 42
0.018662
  0
VERTEX
  8
0
 10
67.440933
 20
137.860683
 42
0.046932
  0
VERTEX
  8
0
 10
67.925202
 20
139.500000
 42
-0.088750
  0
VERTEX
  8
0
 10
68.128634
 20
140.023744
 42
-0.017584
  0
VERTEX
  8
0
 10
68.684472
 20
140.867188
 42
-0.018114
  0
VERTEX
  8
0
 10
69.411294
 20
141.815235
 42
-0.015974
  0
VERTEX
  8
0
 10
70.234863
 20
142.750000
 42
0.021291
  0
VERTEX
  8
0
 10
70.982208
 20
143.616648
 42
0.047164
  0
VERTEX
  8
0
 10
71.456192
 20
144.348405
 42
0.097111
  0
VERTEX
  8
0
 10
71.599186
 20
144.833045
 42
0.431573
  0
VERTEX
  8
0
 10
71.424314
 20
145.031803
 42
-0.355086
  0
VERTEX
  8
0
 10
71.256367
 20
145.178153
 42
-0.188452
  0
VERTEX
  8
0
 10
71.314995
 20
145.466003
 42
-0.063776
  0
VERTEX
  8
0
 10
71.701064
 20
145.923578
 42
-0.023562
  0
VERTEX
  8
0
 10
72.350138
 20
146.465269
 42
0.051392
  0
VERTEX
  8
0
 10
73.009133
 20
147.080469
 42
0.066971
  0
VERTEX
  8
0
 10
73.463171
 20
147.768487
 42
0.082587
  0
VERTEX
  8
0
 10
73.654077
 20
148.420639
 42
0.169997
  0
VERTEX
  8
0
 10
73.541121
 20
148.933465
 42
-0.076081
  0
VERTEX
  8
0
 10
73.367861
 20
149.341325
 42
-0.153318
  0
VERTEX
  8
0
 10
73.386679
 20
149.686705
 42
-0.186698
  0
VERTEX
  8
0
 10
73.590422
 20
149.915362
 42
-0.119008
  0
VERTEX
  8
0
 10
73.940983
 20
150.000000
 42
0.140337
  0
VERTEX
  8
0
 10
74.344827
 20
150.115626
 42
0.099915
  0
VERTEX
  8
0
 10
74.688914
 20
150.440625
 42
0.085131
  0
VERTEX
  8
0
 10
74.920655
 20
150.926682
 42
0.068870
  0
VERTEX
  8
0
 10
75.000000
 20
151.500000
 42
-0.064853
  0
VERTEX
  8
0
 10
75.074694
 20
152.073457
 42
-0.082425
  0
VERTEX
  8
0
 10
75.293750
 20
152.559375
 42
-0.098894
  0
VERTEX
  8
0
 10
75.618646
 20
152.884432
 42
-0.148195
  0
VERTEX
  8
0
 10
76.000000
 20
153.000000
 42
0.109778
  0
VERTEX
  8
0
 10
76.381501
 20
153.084783
 42
0.099872
  0
VERTEX
  8
0
 10
76.706250
 20
153.324783
 42
0.095093
  0
VERTEX
  8
0
 10
76.924049
 20
153.683513
 42
0.089245
  0
VERTEX
  8
0
 10
77.000000
 20
154.105644
 42
-0.114235
  0
VERTEX
  8
0
 10
77.137123
 20
154.697993
 42
-0.021150
  0
VERTEX
  8
0
 10
77.674519
 20
155.688125
 42
-0.021703
  0
VERTEX
  8
0
 10
78.417150
 20
156.814347
 42
-0.018290
  0
VERTEX
  8
0
 10
79.296234
 20
157.940207
 42
-0.030072
  0
VERTEX
  8
0
 10
80.483877
 20
159.190687
 42
-0.076555
  0
VERTEX
  8
0
 10
81.514992
 20
159.893432
 42
-0.104013
  0
VERTEX
  8
0
 10
82.504594
 20
160.133648
 42
-0.093988
  0
VERTEX
  8
0
 10
83.546234
 20
159.969212
 42
0.063584
  0
VERTEX
  8
0
 10
84.469041
 20
159.765761
 42
0.034185
  0
VERTEX
  8
0
 10
85.636084
 20
159.740479
 42
0.033415
  0
VERTEX
  8
0
 10
86.848331
 20
159.878648
 42
0.044442
  0
VERTEX
  8
0
 10
87.917031
 20
160.173404
 42
-0.034094
  0
VERTEX
  8
0
 10
89.067570
 20
160.516464
 42
-0.083495
  0
VERTEX
  8
0
 10
89.946753
 20
160.564882
 42
-0.116098
  0
VERTEX
  8
0
 10
90.612316
 20
160.327388
 42
-0.111285
  0
VERTEX
  8
0
 10
91.114245
 20
159.815148
 42
-0.063217
  0
VERTEX
  8
0
 10
91.351912
 20
159.293224
 42
-0.079937
  0
VERTEX
  8
0
 10
91.426597
 20
158.768977
 42
-0.096051
  0
VERTEX
  8
0
 10
91.331993
 20
158.324126
 42
-0.149813
  0
VERTEX
  8
0
 10
91.081995
 20
158.026393
 42
0.098306
  0
VERTEX
  8
0
 10
90.722665
 20
157.677338
 42
0.026135
  0
VERTEX
  8
0
 10
90.301952
 20
156.993691
 42
0.025460
  0
VERTEX
  8
0
 10
89.895935
 20
156.149928
 42
0.023776
  0
VERTEX
  8
0
 10
89.567394
 20
155.250000
 42
-0.027269
  0
VERTEX
  8
0
 10
89.245994
 20
154.388354
 42
-0.037917
  0
VERTEX
  8
0
 10
88.860478
 20
153.660938
 42
-0.042159
  0
VERTEX
  8
0
 10
88.469546
 20
153.143916
 42
-0.212912
  0
VERTEX
  8
0
 10
88.146898
 20
153.000000
 42
0.213651
  0
VERTEX
  8
0
 10
87.863446
 20
152.873087
 42
0.071452
  0
VERTEX
  8
0
 10
87.606359
 20
152.485938
 42
0.055957
  0
VERTEX
  8
0
 10
87.411426
 20
151.920025
 42
0.038869
  0
VERTEX
  8
0
 10
87.315478
 20
151.250000
 42
-0.015726
  0
VERTEX
  8
0
 10
87.225786
 20
150.318416
 42
-0.004177
  0
VERTEX
  8
0
 10
87.023666
 20
148.839062
 42
-0.004232
  0
VERTEX
  8
0
 10
86.765390
 20
147.159766
 42
-0.004347
  0
VERTEX
  8
0
 10
86.480886
 20
145.500000
 42
0.021091
  0
VERTEX
  8
0
 10
86.208799
 20
143.515847
 42
0.008305
  0
VERTEX
  8
0
 10
85.995245
 20
140.765625
 42
0.008203
  0
VERTEX
  8
0
 10
85.862433
 20
137.781685
 42
0.010150
  0
VERTEX
  8
0
 10
85.840807
 20
135.000000
 42
0.011601
  0
VERTEX
  8
0
 10
86.033745
 20
129.601792
 42
0.016330
  0
VERTEX
  8
0
 10
86.474293
 20
124.804952
 42
0.015506
  0
VERTEX
  8
0
 10
87.247728
 20
119.863252
 42
0.009090
  0
VERTEX
  8
0
 10
88.463407
 20
114.000000
 42
-0.009994
  0
VERTEX
  8
0
 10
89.159978
 20
110.609615
 42
-0.010759
  0
VERTEX
  8
0
 10
89.701765
 20
107.276354
 42
-0.011253
  0
VERTEX
  8
0
 10
90.046655
 20
104.344766
 42
-0.032410
  0
VERTEX
  8
0
 10
90.107633
 20
102.299559
 42
0.042617
  0
VERTEX
  8
0
 10
90.152222
 20
101.411918
 42
0.045369
  0
VERTEX
  8
0
 10
90.347279
 20
100.563767
 42
0.050021
  0
VERTEX
  8
0
 10
90.652761
 20
99.873571
 42
0.125802
  0
VERTEX
  8
0
 10
91.031615
 20
99.480461
 42
-0.091865
  0
VERTEX
  8
0
 10
91.369990
 20
99.173481
 42
-0.095967
  0
VERTEX
  8
0
 10
91.569575
 20
98.770082
 42
-0.099439
  0
VERTEX
  8
0
 10
91.600132
 20
98.333460
 42
-0.106707
  0
VERTEX
  8
0
 10
91.457295
 20
97.930902
 42
0.075995
  0
VERTEX
  8
0
 10
91.305995
 20
97.574906
 42
0.153205
  0
VERTEX
  8
0
 10
91.322249
 20
97.273452
 42
0.186751
  0
VERTEX
  8
0
 10
91.499825
 20
97.073889
 42
0.119156
  0
VERTEX
  8
0
 10
91.805474
 20
97.000000
 42
-0.137697
  0
VERTEX
  8
0
 10
92.338179
 20
96.850460
 42
-0.013960
  0
VERTEX
  8
0
 10
93.452195
 20
96.128105
 42
-0.016639
  0
VERTEX
  8
0
 10
94.750464
 20
95.168611
 42
-0.012518
  0
VERTEX
  8
0
 10
96.114491
 20
94.031847
 42
0.043363
  0
VERTEX
  8
0
 10
98.799181
 20
92.061489
 42
0.050338
  0
VERTEX
  8
0
 10
101.656874
 20
90.695591
 42
0.057716
  0
VERTEX
  8
0
 10
104.224751
 20
90.094405
 42
0.168633
  0
VERTEX
  8
0
 10
105.975601
 20
90.484921
 42
-0.065450
  0
VERTEX
  8
0
 10
106.367855
 20
90.661438
 42
-0.137724
  0
VERTEX
  8
0
 10
106.699083
 20
90.667540
 42
-0.191287
  0
VERTEX
  8
0
 10
106.916611
 20
90.507831
 42
-0.140789
  0
VERTEX
  8
0
 10
107.000000
 20
90.217552
 42
0.359768
  0
VERTEX
  8
0
 10
107.259725
 20
89.903311
 42
0.035287
  0
VERTEX
  8
0
 10
108.309730
 20
89.777924
 42
0.031690
  0
VERTEX
  8
0
 10
109.758813
 20
89.799737
 42
0.018052
  0
VERTEX
  8
0
 10
111.500000
 20
90.000000
 42
-0.018052
  0
VERTEX
  8
0
 10
113.241187
 20
90.200263
 42
-0.031690
  0
VERTEX
  8
0
 10
114.690270
 20
90.222076
 42
-0.035287
  0
VERTEX
  8
0
 10
115.740275
 20
90.096689
 42
-0.359768
  0
VERTEX
  8
0
 10
116.000000
 20
89.782448
 42
0.121615
  0
VERTEX
  8
0
 10
116.073355
 20
89.485320
 42
0.187579
  0
VERTEX
  8
0
 10
116.270625
 20
89.313738
 42
0.151337
  0
VERTEX
  8
0
 10
116.568900
 20
89.300419
 42
0.074589
  0
VERTEX
  8
0
 10
116.921277
 20
89.451346
 42
-0.093650
  0
VERTEX
  8
0
 10
118.509403
 20
90.061519
 42
-0.029193
  0
VERTEX
  8
0
 10
121.055080
 20
90.372856
 42
-0.022915
  0
VERTEX
  8
0
 10
123.498965
 20
90.415640
 42
-0.405944
  0
VERTEX
  8
0
 10
124.000000
 20
89.900212
 42
0.190600
  0
VERTEX
  8
0
 10
124.109132
 20
89.624326
 42
0.145613
  0
VERTEX
  8
0
 10
124.392067
 20
89.459219
 42
0.097544
  0
VERTEX
  8
0
 10
124.823551
 20
89.439974
 42
0.054179
  0
VERTEX
  8
0
 10
125.334697
 20
89.574941
 42
-0.062233
  0
VERTEX
  8
0
 10
126.224381
 20
89.794645
 42
-0.005131
  0
VERTEX
  8
0
 10
128.602447
 20
90.051363
 42
-0.006805
  0
VERTEX
  8
0
 10
131.455790
 20
90.290649
 42
-0.005191
  0
VERTEX
  8
0
 10
134.584697
 20
90.477586
 42
0.001683
  0
VERTEX
  8
0
 10
137.619792
 20
90.637551
 42
0.002802
  0
VERTEX
  8
0
 10
140.174880
 20
90.795212
 42
0.000317
  0
VERTEX
  8
0
 10
142.442877
 20
90.949365
 42
0.394290
  0
VERTEX
  8
0
 10
142.500000
 20
91.010541
 42
-0.332959
  0
VERTEX
  8
0
 10
142.582403
 20
91.120566
 42
-0.005110
  0
VERTEX
  8
0
 10
143.392863
 20
91.349167
 42
-0.006641
  0
VERTEX
  8
0
 10
144.676862
 20
91.678971
 42
-0.001010
  0
VERTEX
  8
0
 10
147.250000
 20
92.298093
 42
0.034076
  0
VERTEX
  8
0
 10
147.880786
 20
92.494758
 42
0.010750
  0
VERTEX
  8
0
 10
148.793750
 20
92.872016
 42
0.010681
  0
VERTEX
  8
0
 10
149.796878
 20
93.337809
 42
0.011657
  0
VERTEX
  8
0
 10
150.750000
 20
93.833276
 42
-0.018004
  0
VERTEX
  8
0
 10
151.613437
 20
94.268294
 42
-0.034451
  0
VERTEX
  8
0
 10
152.339063
 20
94.542931
 42
-0.047481
  0
VERTEX
  8
0
 10
152.851572
 20
94.645785
 42
-0.444763
  0
VERTEX
  8
0
 10
153.000000
 20
94.511930
 42
0.593260
  0
VERTEX
  8
0
 10
153.166806
 20
94.420826
 42
0.006670
  0
VERTEX
  8
0
 10
154.495128
 20
95.299365
 42
0.011461
  0
VERTEX
  8
0
 10
156.137083
 20
96.473064
 42
0.006343
  0
VERTEX
  8
0
 10
158.089798
 20
97.976746
 42
-0.006364
  0
VERTEX
  8
0
 10
160.091893
 20
99.518318
 42
-0.009335
  0
VERTEX
  8
0
 10
161.894409
 20
100.818169
 42
-0.005293
  0
VERTEX
  8
0
 10
163.434154
 20
101.861454
 42
-0.147283
  0
VERTEX
  8
0
 10
163.894290
 20
102.000000
 42
-0.324275
  0
VERTEX
  8
0
 10
164.187108
 20
101.787776
 42
-0.023039
  0
VERTEX
  8
0
 10
164.472259
 20
100.759143
 42
-0.025519
  0
VERTEX
  8
0
 10
164.711097
 20
99.395011
 42
-0.015843
  0
VERTEX
  8
0
 10
164.858230
 20
97.775805
 42
0.015305
  0
VERTEX
  8
0
 10
165.006936
 20
96.119557
 42
0.020778
  0
VERTEX
  8
0
 10
165.248616
 20
94.638012
 42
0.018251
  0
VERTEX
  8
0
 10
165.538572
 20
93.451865
 42
0.169125
  0
VERTEX
  8
0
 10
165.837196
 20
93.025805
 42
-0.103029
  0
VERTEX
  8
0
 10
166.105059
 20
92.733077
 42
-0.056185
  0
VERTEX
  8
0
 10
166.306013
 20
92.287268
 42
-0.052521
  0
VERTEX
  8
0
 10
166.414858
 20
91.767147
 42
-0.056921
  0
VERTEX
  8
0
 10
166.408458
 20
91.250000
 42
0.000593
  0
VERTEX
  8
0
 10
166.338681
 20
90.694282
 42
0.000393
  0
VERTEX
  8
0
 10
166.259828
 20
90.056101
 42
0.000395
  0
VERTEX
  8
0
 10
166.184202
 20
89.436007
 42
0.000770
  0
VERTEX
  8
0
 10
166.125000
 20
88.940983
 42
-0.077868
  0
VERTEX
  8
0
 10
166.020956
 20
88.569259
 42
-0.132419
  0
VERTEX
  8
0
 10
165.816406
 20
88.322247
 42
-0.159862
  0
VERTEX
  8
0
 10
165.545205
 20
88.238709
 42
-0.128739
  0
VERTEX
  8
0
 10
165.250000
 20
88.321778
 42
0.301172
  0
VERTEX
  8
0
 10
164.802207
 20
88.297263
 42
0.023993
  0
VERTEX
  8
0
 10
163.839063
 20
87.506014
 42
0.026185
  0
VERTEX
  8
0
 10
162.704032
 20
86.364914
 42
0.016620
  0
VERTEX
  8
0
 10
161.500000
 20
84.927100
 42
-0.016594
  0
VERTEX
  8
0
 10
160.267597
 20
83.455255
 42
-0.021952
  0
VERTEX
  8
0
 10
159.045490
 20
82.205389
 42
-0.020078
  0
VERTEX
  8
0
 10
157.966809
 20
81.273381
 42
-0.159313
  0
VERTEX
  8
0
 10
157.356989
 20
81.046305
 42
0.114630
  0
VERTEX
  8
0
 10
156.875363
 20
80.913657
 42
0.062244
  0
VERTEX
  8
0
 10
156.373509
 20
80.554359
 42
0.057012
  0
VERTEX
  8
0
 10
155.928527
 20
80.037931
 42
0.057792
  0
VERTEX
  8
0
 10
155.614052
 20
79.436618
 42
-0.069916
  0
VERTEX
  8
0
 10
155.308867
 20
78.885878
 42
-0.100178
  0
VERTEX
  8
0
 10
154.892454
 20
78.516591
 42
-0.123689
  0
VERTEX
  8
0
 10
154.433307
 20
78.384724
 42
-0.147843
  0
VERTEX
  8
0
 10
154.000000
 20
78.500000
 42
0.147843
  0
VERTEX
  8
0
 10
153.566693
 20
78.615276
 42
0.123689
  0
VERTEX
  8
0
 10
153.107546
 20
78.483409
 42
0.100178
  0
VERTEX
  8
0
 10
152.691133
 20
78.114122
 42
0.069916
  0
VERTEX
  8
0
 10
152.385948
 20
77.563382
 42
-0.071345
  0
VERTEX
  8
0
 10
152.052528
 20
76.965703
 42
-0.063660
  0
VERTEX
  8
0
 10
151.553054
 20
76.459243
 42
-0.066843
  0
VERTEX
  8
0
 10
150.970370
 20
76.116502
 42
-0.099885
  0
VERTEX
  8
0
 10
150.393011
 20
76.000000
 42
0.059915
  0
VERTEX
  8
0
 10
149.860294
 20
75.935934
 42
0.078726
  0
VERTEX
  8
0
 10
149.409197
 20
75.747070
 42
0.096954
  0
VERTEX
  8
0
 10
149.107114
 20
75.467375
 42
0.158958
  0
VERTEX
  8
0
 10
149.000000
 20
75.138962
 42
-0.223504
  0
VERTEX
  8
0
 10
148.787598
 20
74.687533
 42
-0.016502
  0
VERTEX
  8
0
 10
147.678125
 20
73.829600
 42
-0.020433
  0
VERTEX
  8
0
 10
146.224112
 20
72.867861
 42
-0.013942
  0
VERTEX
  8
0
 10
144.500000
 20
71.890679
 42
0.012178
  0
VERTEX
  8
0
 10
142.775705
 20
70.921415
 42
0.018157
  0
VERTEX
  8
0
 10
141.321875
 20
69.983870
 42
0.013434
  0
VERTEX
  8
0
 10
140.195482
 20
69.152302
 42
0.230978
  0
VERTEX
  8
0
 10
140.000000
 20
68.751717
 42
-0.190729
  0
VERTEX
  8
0
 10
139.886364
 20
68.464655
 42
-0.088321
  0
VERTEX
  8
0
 10
139.559375
 20
68.220817
 42
-0.068141
  0
VERTEX
  8
0
 10
139.074060
 20
68.055402
 42
-0.048142
  0
VERTEX
  8
0
 10
138.500000
 20
68.000000
 42
0.054008
  0
VERTEX
  8
0
 10
137.926154
 20
67.937834
 42
0.073734
  0
VERTEX
  8
0
 10
137.440625
 20
67.753401
 42
0.093425
  0
VERTEX
  8
0
 10
137.114746
 20
67.480842
 42
0.173704
  0
VERTEX
  8
0
 10
137.000000
 20
67.160515
 42
-0.247141
  0
VERTEX
  8
0
 10
136.623061
 20
66.444495
 42
-0.025555
  0
VERTEX
  8
0
 10
134.944446
 20
65.414051
 42
-0.031326
  0
VERTEX
  8
0
 10
133.072385
 20
64.539981
 42
-0.079674
  0
VERTEX
  8
0
 10
131.611803
 20
64.220757
 42
0.074599
  0
VERTEX
  8
0
 10
131.226992
 20
64.140712
 42
0.044829
  0
VERTEX
  8
0
 10
130.804797
 20
63.940087
 42
0.043813
  0
VERTEX
  8
0
 10
130.411428
 20
63.658797
 42
0.057651
  0
VERTEX
  8
0
 10
130.111803
 20
63.335410
 42
-0.088209
  0
VERTEX
  8
0
 10
129.121529
 20
62.389040
 42
-0.022267
  0
VERTEX
  8
0
 10
127.205232
 20
61.234509
 42
-0.021512
  0
VERTEX
  8
0
 10
125.206956
 20
60.257630
 42
-0.103285
  0
VERTEX
  8
0
 10
123.973076
 20
60.000000
 42
0.107469
  0
VERTEX
  8
0
 10
123.391971
 20
59.873639
 42
0.017724
  0
VERTEX
  8
0
 10
122.359290
 20
59.357258
 42
0.018773
  0
VERTEX
  8
0
 10
121.169869
 20
58.649665
 42
0.015609
  0
VERTEX
  8
0
 10
119.959507
 20
57.811942
 42
0.044495
  0
VERTEX
  8
0
 10
118.092429
 20
56.155898
 42
0.105980
  0
VERTEX
  8
0
 10
117.135691
 20
54.578204
 42
0.234025
  0
VERTEX
  8
0
 10
117.276317
 20
53.466464
 42
0.227081
  0
VERTEX
  8
0
 10
118.250000
 20
52.884650
 42
-0.000719
  0
VERTEX
  8
0
 10
118.835931
 20
52.829731
 42
-0.000364
  0
VERTEX
  8
0
 10
119.573437
 20
52.758993
 42
-0.000362
  0
VERTEX
  8
0
 10
120.334611
 20
52.684870
 42
-0.000540
  0
VERTEX
  8
0
 10
121.000000
 20
52.618862
 42
0.061700
  0
VERTEX
  8
0
 10
121.677269
 20
52.634635
 42
0.035506
  0
VERTEX
  8
0
 10
122.475288
 20
52.811002
 42
0.034936
  0
VERTEX
  8
0
 10
123.263841
 20
53.106320
 42
0.048575
  0
VERTEX
  8
0
 10
123.915874
 20
53.484212
 42
-0.054587
  0
VERTEX
  8
0
 10
124.617040
 20
53.879422
 42
-0.432640
  0
VERTEX
  8
0
 10
124.922102
 20
53.745942
 42
-0.137216
  0
VERTEX
  8
0
 10
124.962831
 20
53.156298
 42
-0.010113
  0
VERTEX
  8
0
 10
124.599578
 20
51.561766
 42
-0.037199
  0
VERTEX
  8
0
 10
124.199865
 20
50.349815
 42
-0.031474
  0
VERTEX
  8
0
 10
123.605701
 20
49.138007
 42
-0.032667
  0
VERTEX
  8
0
 10
122.919202
 20
48.099512
 42
-0.072629
  0
VERTEX
  8
0
 10
122.244320
 20
47.436701
 42
0.109125
  0
VERTEX
  8
0
 10
121.564090
 20
46.664305
 42
0.044095
  0
VERTEX
  8
0
 10
120.992845
 20
45.373055
 42
0.038275
  0
VERTEX
  8
0
 10
120.571073
 20
43.734045
 42
0.028329
  0
VERTEX
  8
0
 10
120.349331
 20
41.874935
 42
-0.000894
  0
VERTEX
  8
0
 10
120.217141
 20
39.807721
 42
-0.000436
  0
VERTEX
  8
0
 10
120.041390
 20
37.169512
 42
-0.000432
  0
VERTEX
  8
0
 10
119.853768
 20
34.424973
 42
-0.000625
  0
VERTEX
  8
0
 10
119.682839
 20
32.000000
 42
0.015601
  0
VERTEX
  8
0
 10
119.589520
 20
29.692574
 42
0.014160
  0
VERTEX
  8
0
 10
119.635068
 20
27.307813
 42
0.014341
  0
VERTEX
  8
0
 10
119.797543
 20
25.176845
 42
0.043438
  0
VERTEX
  8
0
 10
120.074319
 20
23.750000
 42
-0.026105
  0
VERTEX
  8
0
 10
120.337734
 20
22.605523
 42
-0.063146
  0
VERTEX
  8
0
 10
120.379215
 20
21.740187
 42
-0.113044
  0
VERTEX
  8
0
 10
120.210782
 20
21.202090
 42
-0.266639
  0
VERTEX
  8
0
 10
119.858766
 20
21.000000
 42
0.289068
  0
VERTEX
  8
0
 10
119.628383
 20
20.854663
 42
0.200905
  0
VERTEX
  8
0
 10
119.612977
 20
20.538393
 42
0.079321
  0
VERTEX
  8
0
 10
119.893123
 20
20.033022
 42
0.030239
  0
VERTEX
  8
0
 10
120.428571
 20
19.428571
 42
-0.043674
  0
VERTEX
  8
0
 10
121.353722
 20
18.325961
 42
-0.066147
  0
VERTEX
  8
0
 10
121.929749
 20
17.216024
 42
-0.069959
  0
VERTEX
  8
0
 10
122.176198
 20
16.042016
 42
-0.056015
  0
VERTEX
  8
0
 10
122.118421
 20
14.750000
 42
0.145617
  0
VERTEX
  8
0
 10
122.156510
 20
14.464438
 42
0.119530
  0
VERTEX
  8
0
 10
122.345872
 20
14.220312
 42
0.098132
  0
VERTEX
  8
0
 10
122.663103
 20
14.056168
 42
0.070581
  0
VERTEX
  8
0
 10
123.059017
 20
14.000000
 42
-0.109986
  0
VERTEX
  8
0
 10
123.413514
 20
13.921066
 42
-0.182824
  0
VERTEX
  8
0
 10
123.624161
 20
13.704245
 42
-0.160384
  0
VERTEX
  8
0
 10
123.654020
 20
13.377918
 42
-0.081872
  0
VERTEX
  8
0
 10
123.495782
 20
12.993176
 42
0.183122
  0
VERTEX
  8
0
 10
123.385239
 20
12.422521
 42
0.043227
  0
VERTEX
  8
0
 10
123.636613
 20
11.467155
 42
0.038912
  0
VERTEX
  8
0
 10
124.138357
 20
10.348035
 42
0.029889
  0
VERTEX
  8
0
 10
124.849006
 20
9.212051
 42
-0.029987
  0
VERTEX
  8
0
 10
125.701053
 20
7.849447
 42
-0.066072
  0
VERTEX
  8
0
 10
126.140701
 20
6.705476
 42
-0.087705
  0
VERTEX
  8
0
 10
126.200614
 20
5.708113
 42
-0.099133
  0
VERTEX
  8
0
 10
125.906011
 20
4.796534
 42
0.074338
  0
VERTEX
  8
0
 10
125.591049
 20
3.964319
 42
0.104000
  0
VERTEX
  8
0
 10
125.586178
 20
3.171479
 42
0.094308
  0
VERTEX
  8
0
 10
125.907500
 20
2.387925
 42
0.052090
  0
VERTEX
  8
0
 10
126.561468
 20
1.581389
 42
0.065268
  0
VERTEX
  8
0
 10
127.539399
 20
0.830145
 42
0.227907
  0
VERTEX
  8
0
 10
128.311449
 20
0.770940
 42
0.114862
  0
VERTEX
  8
0
 10
129.187229
 20
1.370539
 42
0.012281
  0
VERTEX
  8
0
 10
130.817699
 20
3.240187
 42
-0.000124
  0
VERTEX
  8
0
 10
131.949861
 20
4.603985
 42
-0.000109
  0
VERTEX
  8
0
 10
133.133598
 20
6.028556
 42
-0.000110
  0
VERTEX
  8
0
 10
134.203164
 20
7.314583
 42
-0.000328
  0
VERTEX
  8
0
 10
134.934975
 20
8.192933
 42
0.030477
  0
VERTEX
  8
0
 10
135.500485
 20
8.961482
 42
0.024660
  0
VERTEX
  8
0
 10
136.013089
 20
9.848274
 42
0.025315
  0
VERTEX
  8
0
 10
136.405009
 20
10.716107
 42
0.057022
  0
VERTEX
  8
0
 10
136.590079
 20
11.412789
 42
0.140892
  0
VERTEX
  8
0
 10
136.403448
 20
12.794981
 42
0.111863
  0
VERTEX
  8
0
 10
135.503657
 20
14.011209
 42
0.157863
  0
VERTEX
  8
0
 10
134.387800
 20
14.480227
 42
0.282683
  0
VERTEX
  8
0
 10
133.530011
 20
14.048558
 42
-0.102286
  0
VERTEX
  8
0
 10
132.770919
 20
13.245786
 42
-0.190759
  0
VERTEX
  8
0
 10
131.913114
 20
13.042668
 42
-0.227047
  0
VERTEX
  8
0
 10
131.254598
 20
13.484541
 42
-0.134112
  0
VERTEX
  8
0
 10
131.000000
 20
14.416667
 42
0.066548
  0
VERTEX
  8
0
 10
130.924219
 20
14.983517
 42
0.064672
  0
VERTEX
  8
0
 10
130.702030
 20
15.516511
 42
0.069936
  0
VERTEX
  8
0
 10
130.373487
 20
15.936552
 42
0.111870
  0
VERTEX
  8
0
 10
129.985633
 20
16.171456
 42
-0.198140
  0
VERTEX
  8
0
 10
129.561514
 20
16.538188
 42
-0.031481
  0
VERTEX
  8
0
 10
129.120736
 20
17.570124
 42
-0.030797
  0
VERTEX
  8
0
 10
128.733442
 20
18.921230
 42
-0.022566
  0
VERTEX
  8
0
 10
128.465733
 20
20.458071
 42
0.022998
  0
VERTEX
  8
0
 10
128.192444
 20
22.018986
 42
0.028156
  0
VERTEX
  8
0
 10
127.789435
 20
23.444011
 42
0.028653
  0
VERTEX
  8
0
 10
127.325746
 20
24.574635
 42
0.143660
  0
VERTEX
  8
0
 10
126.873338
 20
25.078281
 42
-0.060785
  0
VERTEX
  8
0
 10
126.457021
 20
25.411508
 42
-0.182518
  0
VERTEX
  8
0
 10
126.313179
 20
25.739477
 42
-0.197810
  0
VERTEX
  8
0
 10
126.426762
 20
26.062299
 42
-0.072207
  0
VERTEX
  8
0
 10
126.805267
 20
26.379649
 42
0.172510
  0
VERTEX
  8
0
 10
127.165151
 20
26.828745
 42
0.047382
  0
VERTEX
  8
0
 10
127.383193
 20
27.722784
 42
0.041985
  0
VERTEX
  8
0
 10
127.451635
 20
28.850802
 42
0.033261
  0
VERTEX
  8
0
 10
127.342028
 20
30.067838
 42
-0.040502
  0
VERTEX
  8
0
 10
127.245657
 20
31.344286
 42
-0.037802
  0
VERTEX
  8
0
 10
127.351874
 20
32.649996
 42
-0.040073
  0
VERTEX
  8
0
 10
127.628475
 20
33.795959
 42
-0.094223
  0
VERTEX
  8
0
 10
128.052443
 20
34.563190
 42
0.038252
  0
VERTEX
  8
0
 10
128.443493
 20
35.115307
 42
0.095423
  0
VERTEX
  8
0
 10
128.612115
 20
35.577937
 42
0.203759
  0
VERTEX
  8
0
 10
128.539244
 20
35.872187
 42
0.235731
  0
VERTEX
  8
0
 10
128.283209
 20
36.000000
 42
-0.387816
  0
VERTEX
  8
0
 10
127.525667
 20
36.691591
 42
-0.047390
  0
VERTEX
  8
0
 10
127.534859
 20
39.143190
 42
-0.044996
  0
VERTEX
  8
0
 10
128.029188
 20
41.736026
 42
-0.186855
  0
VERTEX
  8
0
 10
128.973009
 20
42.983319
 42
0.085336
  0
VERTEX
  8
0
 10
129.410963
 20
43.370415
 42
0.093629
  0
VERTEX
  8
0
 10
129.677439
 20
43.870020
 42
0.100380
  0
VERTEX
  8
0
 10
129.732650
 20
44.403186
 42
0.114666
  0
VERTEX
  8
0
 10
129.569098
 20
44.888197
 42
-0.065632
  0
VERTEX
  8
0
 10
129.377710
 20
45.313910
 42
-0.138021
  0
VERTEX
  8
0
 10
129.371557
 20
45.673408
 42
-0.191250
  0
VERTEX
  8
0
 10
129.545587
 20
45.909538
 42
-0.140343
  0
VERTEX
  8
0
 10
129.861528
 20
46.000000
 42
0.225756
  0
VERTEX
  8
0
 10
130.283803
 20
46.200901
 42
0.047152
  0
VERTEX
  8
0
 10
130.751370
 20
46.901609
 42
0.040892
  0
VERTEX
  8
0
 10
131.185514
 20
47.893820
 42
0.028636
  0
VERTEX
  8
0
 10
131.515222
 20
49.069306
 42
-0.013329
  0
VERTEX
  8
0
 10
131.959033
 20
50.860667
 42
-0.177154
  0
VERTEX
  8
0
 10
132.347739
 20
51.404929
 42
-0.304617
  0
VERTEX
  8
0
 10
132.873568
 20
51.409435
 42
-0.036349
  0
VERTEX
  8
0
 10
133.844677
 20
50.662772
 42
0.029151
  0
VERTEX
  8
0
 10
134.800917
 20
49.905414
 42
0.149192
  0
VERTEX
  8
0
 10
135.437523
 20
49.697716
 42
0.171893
  0
VERTEX
  8
0
 10
136.030760
 20
49.895158
 42
0.041769
  0
VERTEX
  8
0
 10
136.801217
 20
50.606087
 42
0.054488
  0
VERTEX
  8
0
 10
137.253495
 20
51.222243
 42
0.061259
  0
VERTEX
  8
0
 10
137.540945
 20
51.898408
 42
0.070232
  0
VERTEX
  8
0
 10
137.629539
 20
52.529955
 42
0.139065
  0
VERTEX
  8
0
 10
137.492200
 20
53.012621
 42
-0.084637
  0
VERTEX
  8
0
 10
137.339489
 20
53.389800
 42
-0.163426
  0
VERTEX
  8
0
 10
137.374251
 20
53.709958
 42
-0.180785
  0
VERTEX
  8
0
 10
137.589203
 20
53.923004
 42
-0.106207
  0
VERTEX
  8
0
 10
137.947596
 20
54.000000
 42
0.136874
  0
VERTEX
  8
0
 10
138.492856
 20
54.152113
 42
0.027750
  0
VERTEX
  8
0
 10
139.330017
 20
54.724356
 42
0.027361
  0
VERTEX
  8
0
 10
140.258267
 20
55.521884
 42
0.022652
  0
VERTEX
  8
0
 10
141.157293
 20
56.465892
 42
-0.024721
  0
VERTEX
  8
0
 10
142.032496
 20
57.377310
 42
-0.036989
  0
VERTEX
  8
0
 10
142.888895
 20
58.073095
 42
-0.041377
  0
VERTEX
  8
0
 10
143.620978
 20
58.497755
 42
-0.254411
  0
VERTEX
  8
0
 10
144.041295
 20
58.474478
 42
0.271166
  0
VERTEX
  8
0
 10
144.436112
 20
58.465009
 42
0.051675
  0
VERTEX
  8
0
 10
145.049537
 20
58.892719
 42
0.042436
  0
VERTEX
  8
0
 10
145.747358
 20
59.606863
 42
0.027251
  0
VERTEX
  8
0
 10
146.434548
 20
60.540452
 42
-0.035395
  0
VERTEX
  8
0
 10
147.137550
 20
61.463670
 42
-0.053001
  0
VERTEX
  8
0
 10
147.883047
 20
62.148946
 42
-0.068399
  0
VERTEX
  8
0
 10
148.558887
 20
62.518900
 42
-0.233572
  0
VERTEX
  8
0
 10
149.043932
 20
62.472848
 42
0.082068
  0
VERTEX
  8
0
 10
149.409270
 20
62.322757
 42
0.160606
  0
VERTEX
  8
0
 10
149.719155
 20
62.351489
 42
0.182683
  0
VERTEX
  8
0
 10
149.925074
 20
62.552095
 42
0.109709
  0
VERTEX
  8
0
 10
150.000000
 20
62.889461
 42
-0.128917
  0
VERTEX
  8
0
 10
150.143412
 20
63.436433
 42
-0.020188
  0
VERTEX
  8
0
 10
150.734375
 20
64.393408
 42
-0.021313
  0
VERTEX
  8
0
 10
151.542787
 20
65.487844
 42
-0.017149
  0
VERTEX
  8
0
 10
152.500000
 20
66.594501
 42
-0.012473
  0
VERTEX
  8
0
 10
153.460134
 20
67.580018
 42
-0.025914
  0
VERTEX
  8
0
 10
154.265625
 20
68.288890
 42
-0.038464
  0
VERTEX
  8
0
 10
154.833494
 20
68.671563
 42
-0.574848
  0
VERTEX
  8
0
 10
155.000000
 20
68.574594
 42
0.406154
  0
VERTEX
  8
0
 10
155.133230
 20
68.437636
 42
0.127801
  0
VERTEX
  8
0
 10
155.440625
 20
68.508519
 42
0.053621
  0
VERTEX
  8
0
 10
155.923368
 20
68.830343
 42
0.022569
  0
VERTEX
  8
0
 10
156.500000
 20
69.357143
 42
0.032161
  0
VERTEX
  8
0
 10
157.074034
 20
70.010186
 42
0.032192
  0
VERTEX
  8
0
 10
157.559375
 20
70.731250
 42
0.033960
  0
VERTEX
  8
0
 10
157.897730
 20
71.413868
 42
0.098387
  0
VERTEX
  8
0
 10
158.000000
 20
71.928571
 42
-0.069231
  0
VERTEX
  8
0
 10
158.056974
 20
72.338075
 42
-0.085361
  0
VERTEX
  8
0
 10
158.223314
 20
72.685268
 42
-0.099986
  0
VERTEX
  8
0
 10
158.470318
 20
72.917409
 42
-0.139668
  0
VERTEX
  8
0
 10
158.760218
 20
73.000000
 42
0.200881
  0
VERTEX
  8
0
 10
160.815319
 20
73.860382
 42
0.011197
  0
VERTEX
  8
0
 10
165.674084
 20
79.019441
 42
0.009263
  0
VERTEX
  8
0
 10
170.372788
 20
84.436403
 42
0.322965
  0
VERTEX
  8
0
 10
170.485938
 20
86.022753
 42
-0.068554
  0
VERTEX
  8
0
 10
170.320379
 20
86.396814
 42
-0.142640
  0
VERTEX
  8
0
 10
170.321511
 20
86.712934
 42
-0.190419
  0
VERTEX
  8
0
 10
170.484142
 20
86.921068
 42
-0.133582
  0
VERTEX
  8
0
 10
170.774316
 20
87.000000
 42
0.185521
  0
VERTEX
  8
0
 10
171.992485
 20
87.468104
 42
0.014113
  0
VERTEX
  8
0
 10
174.589057
 20
89.945758
 42
0.015375
  0
VERTEX
  8
0
 10
177.024262
 20
92.560513
 42
0.152218
  0
VERTEX
  8
0
 10
177.625000
 20
93.916667
 42
-0.014945
  0
VERTEX
  8
0
 10
177.688138
 20
94.349755
 42
-0.017583
  0
VERTEX
  8
0
 10
177.774479
 20
94.755208
 42
-0.016673
  0
VERTEX
  8
0
 10
177.870016
 20
95.089560
 42
-0.096062
  0
VERTEX
  8
0
 10
177.958333
 20
95.250000
 42
0.161802
  0
VERTEX
  8
0
 10
178.859812
 20
97.547506
 42
0.006037
  0
VERTEX
  8
0
 10
179.245461
 20
106.944990
 42
0.006177
  0
VERTEX
  8
0
 10
179.401174
 20
116.332182
 42
0.156127
  0
VERTEX
  8
0
 10
178.638606
 20
118.750000
 42
-0.047704
  0
VERTEX
  8
0
 10
178.333437
 20
119.283066
 42
-0.166156
  0
VERTEX
  8
0
 10
178.296217
 20
119.672447
 42
-0.240609
  0
VERTEX
  8
0
 10
178.501959
 20
119.913638
 42
-0.098393
  0
VERTEX
  8
0
 10
178.936572
 20
120.000000
 42
0.081795
  0
VERTEX
  8
0
 10
179.346346
 20
120.067486
 42
0.160296
  0
VERTEX
  8
0
 10
179.607846
 20
120.263955
 42
0.182880
  0
VERTEX
  8
0
 10
179.681524
 20
120.556394
 42
0.110096
  0
VERTEX
  8
0
 10
179.562686
 20
120.898572
 42
-0.228661
  0
VERTEX
  8
0
 10
179.510434
 20
121.399271
 42
-0.047244
  0
VERTEX
  8
0
 10
179.898694
 20
122.223920
 42
-0.040895
  0
VERTEX
  8
0
 10
180.577473
 20
123.182404
 42
-0.028476
  0
VERTEX
  8
0
 10
181.486393
 20
124.148572
 42
0.024136
  0
VERTEX
  8
0
 10
182.436589
 20
125.141220
 42
0.027596
  0
VERTEX
  8
0
 10
183.242300
 20
126.179129
 42
0.028366
  0
VERTEX
  8
0
 10
183.818422
 20
127.122580
 42
0.120016
  0
VERTEX
  8
0
 10
183.982723
 20
127.759102
 42
-0.126135
  0
VERTEX
  8
0
 10
184.165267
 20
128.432634
 42
-0.021419
  0
VERTEX
  8
0
 10
184.876175
 20
129.570486
 42
-0.022209
  0
VERTEX
  8
0
 10
185.850141
 20
130.863219
 42
-0.018160
  0
VERTEX
  8
0
 10
187.000000
 20
132.157416
 42
0.012853
  0
VERTEX
  8
0
 10
188.149003
 20
133.423336
 42
0.017278
  0
VERTEX
  8
0
 10
189.118750
 20
134.630505
 42
0.014441
  0
VERTEX
  8
0
 10
189.849894
 20
135.669226
 42
0.147161
  0
VERTEX
  8
0
 10
190.000000
 20
136.168186
 42
-0.111760
  0
VERTEX
  8
0
 10
190.121131
 20
136.703342
 42
-0.008967
  0
VERTEX
  8
0
 10
190.771690
 20
138.006160
 42
-0.011760
  0
VERTEX
  8
0
 10
191.620839
 20
139.543750
 42
-0.008751
  0
VERTEX
  8
0
 10
192.627031
 20
141.201231
 42
0.000000
  0
VERTEX
  8
0
 10
195.254063
 20
145.362718
 42
0.000000
  0
VERTEX
  8
0
 10
196.789957
 20
142.431359
 42
-0.008796
  0
VERTEX
  8
0
 10
197.371627
 20
141.272038
 42
-0.012279
  0
VERTEX
  8
0
 10
197.847689
 20
140.214212
 42
-0.008725
  0
VERTEX
  8
0
 10
198.204530
 20
139.323074
 42
-0.137147
  0
VERTEX
  8
0
 10
198.233959
 20
139.000000
 42
0.203716
  0
VERTEX
  8
0
 10
198.288469
 20
138.756436
 42
0.042935
  0
VERTEX
  8
0
 10
198.578248
 20
138.417882
 42
0.038511
  0
VERTEX
  8
0
 10
199.008374
 20
138.055541
 42
0.028227
  0
VERTEX
  8
0
 10
199.535047
 20
137.720449
 42
-0.097200
  0
VERTEX
  8
0
 10
200.125018
 20
137.219479
 42
-0.130148
  0
VERTEX
  8
0
 10
200.406310
 20
136.579592
 42
-0.095054
  0
VERTEX
  8
0
 10
200.377197
 20
135.728998
 42
-0.034907
  0
VERTEX
  8
0
 10
200.027858
 20
134.573271
 42
0.028624
  0
VERTEX
  8
0
 10
199.727428
 20
133.622607
 42
0.037289
  0
VERTEX
  8
0
 10
199.569192
 20
132.724056
 42
0.040886
  0
VERTEX
  8
0
 10
199.555928
 20
131.989042
 42
0.182413
  0
VERTEX
  8
0
 10
199.730511
 20
131.602823
 42
-0.125240
  0
VERTEX
  8
0
 10
199.866453
 20
131.374079
 42
-0.258149
  0
VERTEX
  8
0
 10
199.822765
 20
131.177079
 42
-0.160031
  0
VERTEX
  8
0
 10
199.592280
 20
131.042057
 42
-0.053189
  0
VERTEX
  8
0
 10
199.198051
 20
131.000000
 42
0.153432
  0
VERTEX
  8
0
 10
198.813169
 20
130.879046
 42
0.152337
  0
VERTEX
  8
0
 10
198.565342
 20
130.559375
 42
0.114556
  0
VERTEX
  8
0
 10
198.502351
 20
130.073796
 42
0.066923
  0
VERTEX
  8
0
 10
198.638374
 20
129.500000
 42
-0.069008
  0
VERTEX
  8
0
 10
198.771857
 20
128.926317
 42
-0.116977
  0
VERTEX
  8
0
 10
198.702380
 20
128.440625
 42
-0.152575
  0
VERTEX
  8
0
 10
198.444764
 20
128.120613
 42
-0.148627
  0
VERTEX
  8
0
 10
198.047972
 20
128.000000
 42
0.087957
  0
VERTEX
  8
0
 10
197.646711
 20
127.928862
 42
0.166811
  0
VERTEX
  8
0
 10
197.394756
 20
127.724489
 42
0.178229
  0
VERTEX
  8
0
 10
197.331055
 20
127.419589
 42
0.102048
  0
VERTEX
  8
0
 10
197.461627
 20
127.062089
 42
-0.226593
  0
VERTEX
  8
0
 10
197.620345
 20
125.597016
 42
-0.006251
  0
VERTEX
  8
0
 10
195.364624
 20
119.422221
 42
-0.008053
  0
VERTEX
  8
0
 10
192.980123
 20
113.432333
 42
-0.146951
  0
VERTEX
  8
0
 10
191.692399
 20
111.861803
 42
0.112151
  0
VERTEX
  8
0
 10
191.383043
 20
111.533190
 42
0.096175
  0
VERTEX
  8
0
 10
191.224274
 20
111.084485
 42
0.090468
  0
VERTEX
  8
0
 10
191.240330
 20
110.584715
 42
0.085460
  0
VERTEX
  8
0
 10
191.430902
 20
110.111803
 42
-0.069584
  0
VERTEX
  8
0
 10
191.618190
 20
109.686290
 42
-0.144206
  0
VERTEX
  8
0
 10
191.614322
 20
109.326592
 42
-0.190031
  0
VERTEX
  8
0
 10
191.425471
 20
109.089574
 42
-0.131358
  0
VERTEX
  8
0
 10
191.090402
 20
109.000000
 42
0.155202
  0
VERTEX
  8
0
 10
190.742497
 20
108.889343
 42
0.152206
  0
VERTEX
  8
0
 10
190.519174
 20
108.597281
 42
0.113676
  0
VERTEX
  8
0
 10
190.463713
 20
108.153512
 42
0.066186
  0
VERTEX
  8
0
 10
190.588855
 20
107.629042
 42
-0.112844
  0
VERTEX
  8
0
 10
190.669989
 20
107.060188
 42
-0.100215
  0
VERTEX
  8
0
 10
190.502897
 20
106.485242
 42
-0.094184
  0
VERTEX
  8
0
 10
190.112279
 20
105.992611
 42
-0.086758
  0
VERTEX
  8
0
 10
189.557471
 20
105.660427
 42
0.061019
  0
VERTEX
  8
0
 10
188.961936
 20
105.344080
 42
0.060246
  0
VERTEX
  8
0
 10
188.457507
 20
104.892179
 42
0.065743
  0
VERTEX
  8
0
 10
188.115218
 20
104.379436
 42
0.114833
  0
VERTEX
  8
0
 10
188.000000
 20
103.884377
 42
-0.129819
  0
VERTEX
  8
0
 10
187.820055
 20
103.202999
 42
-0.013814
  0
VERTEX
  8
0
 10
186.964091
 20
101.787946
 42
-0.016299
  0
VERTEX
  8
0
 10
185.824048
 20
100.136597
 42
-0.012412
  0
VERTEX
  8
0
 10
184.473502
 20
98.402357
 42
0.006567
  0
VERTEX
  8
0
 10
182.287157
 20
95.661558
 42
0.094808
  0
VERTEX
  8
0
 10
181.725092
 20
94.558211
 42
0.269608
  0
VERTEX
  8
0
 10
181.914279
 20
93.800207
 42
0.077182
  0
VERTEX
  8
0
 10
182.920112
 20
93.042755
 42
0.036424
  0
VERTEX
  8
0
 10
183.918093
 20
92.598782
 42
0.115607
  0
VERTEX
  8
0
 10
184.639080
 20
92.515083
 42
0.152461
  0
VERTEX
  8
0
 10
185.204252
 20
92.765586
 42
0.080776
  0
VERTEX
  8
0
 10
185.696610
 20
93.362396
 42
-0.114919
  0
VERTEX
  8
0
 10
186.950031
 20
94.687985
 42
-0.095517
  0
VERTEX
  8
0
 10
188.745978
 20
95.434806
 42
-0.117849
  0
VERTEX
  8
0
 10
190.405956
 20
95.383349
 42
-0.239102
  0
VERTEX
  8
0
 10
191.350191
 20
94.529801
 42
-0.054509
  0
VERTEX
  8
0
 10
191.533191
 20
93.834893
 42
-0.036006
  0
VERTEX
  8
0
 10
191.596454
 20
93.010709
 42
-0.036107
  0
VERTEX
  8
0
 10
191.540934
 20
92.190112
 42
-0.056728
  0
VERTEX
  8
0
 10
191.364180
 20
91.506654
 42
0.125377
  0
VERTEX
  8
0
 10
191.267972
 20
90.687809
 42
0.030888
  0
VERTEX
  8
0
 10
191.531464
 20
89.348461
 42
0.029677
  0
VERTEX
  8
0
 10
192.035178
 20
87.804413
 42
0.025890
  0
VERTEX
  8
0
 10
192.738368
 20
86.256654
 42
-0.020727
  0
VERTEX
  8
0
 10
193.452585
 20
84.726744
 42
-0.025096
  0
VERTEX
  8
0
 10
193.988428
 20
83.236330
 42
-0.024953
  0
VERTEX
  8
0
 10
194.307047
 20
81.962292
 42
-0.131683
  0
VERTEX
  8
0
 10
194.259470
 20
81.250000
 42
0.070456
  0
VERTEX
  8
0
 10
194.168604
 20
80.772049
 42
0.114334
  0
VERTEX
  8
0
 10
194.242480
 20
80.367188
 42
0.145967
  0
VERTEX
  8
0
 10
194.466632
 20
80.100010
 42
0.146754
  0
VERTEX
  8
0
 10
194.800035
 20
80.000000
 42
-0.264695
  0
VERTEX
  8
0
 10
195.692073
 20
79.492186
 42
-0.081845
  0
VERTEX
  8
0
 10
196.275683
 20
77.998279
 42
-0.095111
  0
VERTEX
  8
0
 10
196.304291
 20
76.527819
 42
-0.356542
  0
VERTEX
  8
0
 10
195.656380
 20
75.964565
 42
0.370485
  0
VERTEX
  8
0
 10
195.482290
 20
75.805526
 42
0.219237
  0
VERTEX
  8
0
 10
195.574062
 20
75.519732
 42
0.057950
  0
VERTEX
  8
0
 10
196.113936
 20
75.053183
 42
0.019398
  0
VERTEX
  8
0
 10
197.000000
 20
74.500000
 42
-0.013649
  0
VERTEX
  8
0
 10
197.907426
 20
73.947876
 42
-0.033248
  0
VERTEX
  8
0
 10
198.534977
 20
73.480268
 42
-0.083917
  0
VERTEX
  8
0
 10
198.790569
 20
73.174657
 42
-0.564213
  0
VERTEX
  8
0
 10
198.714816
 20
73.035435
 42
0.362012
  0
VERTEX
  8
0
 10
198.510947
 20
72.849371
 42
0.084200
  0
VERTEX
  8
0
 10
198.526773
 20
72.349472
 42
0.050684
  0
VERTEX
  8
0
 10
198.754451
 20
71.615875
 42
0.026027
  0
VERTEX
  8
0
 10
199.177268
 20
70.750000
 42
-0.019642
  0
VERTEX
  8
0
 10
199.639344
 20
69.833579
 42
-0.023872
  0
VERTEX
  8
0
 10
199.996003
 20
68.940625
 42
-0.023446
  0
VERTEX
  8
0
 10
200.220442
 20
68.175652
 42
-0.129349
  0
VERTEX
  8
0
 10
200.212452
 20
67.750000
 42
0.135841
  0
VERTEX
  8
0
 10
200.210737
 20
67.464615
 42
0.137301
  0
VERTEX
  8
0
 10
200.356158
 20
67.220312
 42
0.114349
  0
VERTEX
  8
0
 10
200.633859
 20
67.056379
 42
0.076540
  0
VERTEX
  8
0
 10
201.000000
 20
67.000000
 42
-0.191087
  0
VERTEX
  8
0
 10
201.381882
 20
66.848523
 42
-0.088204
  0
VERTEX
  8
0
 10
201.706250
 20
66.412500
 42
-0.068025
  0
VERTEX
  8
0
 10
201.926307
 20
65.765418
 42
-0.048028
  0
VERTEX
  8
0
 10
202.000000
 20
65.000000
 42
0.048028
  0
VERTEX
  8
0
 10
202.073693
 20
64.234582
 42
0.068025
  0
VERTEX
  8
0
 10
202.293750
 20
63.587500
 42
0.088204
  0
VERTEX
  8
0
 10
202.618118
 20
63.151477
 42
0.191087
  0
VERTEX
  8
0
 10
203.000000
 20
63.000000
 42
-0.148195
  0
VERTEX
  8
0
 10
203.381354
 20
62.884432
 42
-0.098894
  0
VERTEX
  8
0
 10
203.706250
 20
62.559375
 42
-0.082425
  0
VERTEX
  8
0
 10
203.925306
 20
62.073457
 42
-0.064853
  0
VERTEX
  8
0
 10
204.000000
 20
61.500000
 42
0.067246
  0
VERTEX
  8
0
 10
204.077464
 20
60.926627
 42
0.084069
  0
VERTEX
  8
0
 10
204.304085
 20
60.440625
 42
0.099557
  0
VERTEX
  8
0
 10
204.640425
 20
60.115614
 42
0.143424
  0
VERTEX
  8
0
 10
205.035184
 20
60.000000
 42
-0.193564
  0
VERTEX
  8
0
 10
205.401104
 20
59.852828
 42
-0.210433
  0
VERTEX
  8
0
 10
205.546731
 20
59.499744
 42
-0.092439
  0
VERTEX
  8
0
 10
205.416844
 20
58.884261
 42
-0.024770
  0
VERTEX
  8
0
 10
204.987365
 20
57.976391
 42
0.044769
  0
VERTEX
  8
0
 10
204.533438
 20
56.908468
 42
0.108728
  0
VERTEX
  8
0
 10
204.451944
 20
56.060712
 42
0.114250
  0
VERTEX
  8
0
 10
204.734192
 20
55.283353
 42
0.052448
  0
VERTEX
  8
0
 10
205.416467
 20
54.440676
 42
0.043078
  0
VERTEX
  8
0
 10
206.331873
 20
53.670741
 42
0.188718
  0
VERTEX
  8
0
 10
207.005733
 20
53.505733
 42
0.142635
  0
VERTEX
  8
0
 10
207.727969
 20
53.825031
 42
0.021447
  0
VERTEX
  8
0
 10
208.907381
 20
54.907381
 42
-0.032973
  0
VERTEX
  8
0
 10
209.797666
 20
55.687395
 42
-0.027598
  0
VERTEX
  8
0
 10
210.835694
 20
56.395069
 42
-0.028493
  0
VERTEX
  8
0
 10
211.860344
 20
56.936639
 42
-0.065343
  0
VERTEX
  8
0
 10
212.693096
 20
57.193096
 42
0.105411
  0
VERTEX
  8
0
 10
214.585386
 20
57.945153
 42
0.111181
  0
VERTEX
  8
0
 10
215.963973
 20
59.392687
 42
0.131501
  0
VERTEX
  8
0
 10
216.450294
 20
61.096406
 42
0.179201
  0
VERTEX
  8
0
 10
215.925064
 20
62.590292
 42
0.034152
  0
VERTEX
  8
0
 10
215.280107
 20
63.267511
 42
0.149209
  0
VERTEX
  8
0
 10
214.786537
 20
63.503069
 42
0.215878
  0
VERTEX
  8
0
 10
214.355265
 20
63.380837
 42
0.079118
  0
VERTEX
  8
0
 10
213.931778
 20
62.889615
 42
-0.455940
  0
VERTEX
  8
0
 10
212.577700
 20
62.668791
 42
-0.037319
  0
VERTEX
  8
0
 10
209.659895
 20
65.489671
 42
-0.035023
  0
VERTEX
  8
0
 10
206.988538
 20
68.948321
 42
-0.196964
  0
VERTEX
  8
0
 10
206.536873
 20
71.191466
 42
0.096490
  0
VERTEX
  8
0
 10
206.535155
 20
71.997162
 42
0.068561
  0
VERTEX
  8
0
 10
206.240450
 20
72.853571
 42
0.065371
  0
VERTEX
  8
0
 10
205.705019
 20
73.638078
 42
0.070895
  0
VERTEX
  8
0
 10
204.998131
 20
74.233240
 42
-0.043216
  0
VERTEX
  8
0
 10
204.194469
 20
74.837401
 42
-0.118578
  0
VERTEX
  8
0
 10
203.794197
 20
75.417810
 42
-0.162491
  0
VERTEX
  8
0
 10
203.767698
 20
75.999604
 42
-0.104395
  0
VERTEX
  8
0
 10
204.085358
 20
76.602850
 42
0.096000
  0
VERTEX
  8
0
 10
204.422643
 20
77.218327
 42
0.123767
  0
VERTEX
  8
0
 10
204.463486
 20
77.859493
 42
0.101591
  0
VERTEX
  8
0
 10
204.188592
 20
78.537574
 42
0.049479
  0
VERTEX
  8
0
 10
203.593923
 20
79.263220
 42
-0.076181
  0
VERTEX
  8
0
 10
203.068980
 20
79.978179
 42
-0.054740
  0
VERTEX
  8
0
 10
202.708405
 20
80.902631
 42
-0.054651
  0
VERTEX
  8
0
 10
202.556554
 20
81.885218
 42
-0.075119
  0
VERTEX
  8
0
 10
202.650827
 20
82.772762
 42
0.063619
  0
VERTEX
  8
0
 10
202.776542
 20
83.744087
 42
0.129195
  0
VERTEX
  8
0
 10
202.583410
 20
84.484003
 42
0.127464
  0
VERTEX
  8
0
 10
202.048970
 20
85.039759
 42
0.061089
  0
VERTEX
  8
0
 10
201.142569
 20
85.454750
 42
-0.052736
  0
VERTEX
  8
0
 10
200.168398
 20
85.881292
 42
-0.159360
  0
VERTEX
  8
0
 10
199.687764
 20
86.411223
 42
-0.149904
  0
VERTEX
  8
0
 10
199.597037
 20
87.145116
 42
-0.044961
  0
VERTEX
  8
0
 10
199.894748
 20
88.244514
 42
0.076732
  0
VERTEX
  8
0
 10
200.127053
 20
89.383787
 42
0.041018
  0
VERTEX
  8
0
 10
200.078084
 20
90.823184
 42
0.036304
  0
VERTEX
  8
0
 10
199.767811
 20
92.448986
 42
0.028293
  0
VERTEX
  8
0
 10
199.205659
 20
94.158361
 42
-0.017087
  0
VERTEX
  8
0
 10
198.424846
 20
96.364820
 42
-0.079445
  0
VERTEX
  8
0
 10
198.227093
 20
97.696736
 42
-0.103234
  0
VERTEX
  8
0
 10
198.480807
 20
98.848055
 42
-0.039370
  0
VERTEX
  8
0
 10
199.274167
 20
100.295679
 42
0.054547
  0
VERTEX
  8
0
 10
199.852501
 20
101.431240
 42
0.031546
  0
VERTEX
  8
0
 10
200.304436
 20
102.897426
 42
0.031190
  0
VERTEX
  8
0
 10
200.575619
 20
104.444126
 42
0.045112
  0
VERTEX
  8
0
 10
200.604799
 20
105.830677
 42
-0.029019
  0
VERTEX
  8
0
 10
200.591317
 20
107.045154
 42
-0.046737
  0
VERTEX
  8
0
 10
200.735941
 20
108.069012
 42
-0.060747
  0
VERTEX
  8
0
 10
200.999954
 20
108.781037
 42
-0.280631
  0
VERTEX
  8
0
 10
201.359357
 20
109.000000
 42
0.063112
  0
VERTEX
  8
0
 10
201.691054
 20
109.042036
 42
0.187798
  0
VERTEX
  8
0
 10
201.873795
 20
109.173433
 42
0.245226
  0
VERTEX
  8
0
 10
201.892125
 20
109.365434
 42
0.100238
  0
VERTEX
  8
0
 10
201.742924
 20
109.590409
 42
-0.223102
  0
VERTEX
  8
0
 10
201.584733
 20
110.028690
 42
-0.021231
  0
VERTEX
  8
0
 10
201.742177
 20
111.187107
 42
-0.023899
  0
VERTEX
  8
0
 10
202.069573
 20
112.615396
 42
-0.016518
  0
VERTEX
  8
0
 10
202.569466
 20
114.196889
 42
0.016124
  0
VERTEX
  8
0
 10
203.075678
 20
115.793987
 42
0.021691
  0
VERTEX
  8
0
 10
203.423478
 20
117.270621
 42
0.019501
  0
VERTEX
  8
0
 10
203.606574
 20
118.490763
 42
0.167420
  0
VERTEX
  8
0
 10
203.486979
 20
119.021069
 42
-0.118696
  0
VERTEX
  8
0
 10
203.377088
 20
119.355712
 42
-0.128889
  0
VERTEX
  8
0
 10
203.436786
 20
119.692643
 42
-0.117377
  0
VERTEX
  8
0
 10
203.662275
 20
119.979957
 42
-0.087711
  0
VERTEX
  8
0
 10
204.017452
 20
120.172484
 42
0.217350
  0
VERTEX
  8
0
 10
204.451990
 20
120.577130
 42
0.024325
  0
VERTEX
  8
0
 10
204.919699
 20
121.881374
 42
0.026017
  0
VERTEX
  8
0
 10
205.339637
 20
123.570599
 42
0.018239
  0
VERTEX
  8
0
 10
205.642669
 20
125.507894
 42
-0.008789
  0
VERTEX
  8
0
 10
205.919811
 20
127.529108
 42
-0.009693
  0
VERTEX
  8
0
 10
206.260170
 20
129.474194
 42
-0.009166
  0
VERTEX
  8
0
 10
206.612913
 20
131.121507
 42
-0.047857
  0
VERTEX
  8
0
 10
206.908840
 20
132.000000
 42
0.061017
  0
VERTEX
  8
0
 10
207.165792
 20
132.834561
 42
0.015643
  0
VERTEX
  8
0
 10
207.370934
 20
134.234375
 42
0.015695
  0
VERTEX
  8
0
 10
207.505797
 20
135.858602
 42
0.015356
  0
VERTEX
  8
0
 10
207.539854
 20
137.500000
 42
-0.027040
  0
VERTEX
  8
0
 10
207.611484
 20
139.123065
 42
-0.028908
  0
VERTEX
  8
0
 10
207.858283
 20
140.692558
 42
-0.030142
  0
VERTEX
  8
0
 10
208.227199
 20
142.004921
 42
-0.105823
  0
VERTEX
  8
0
 10
208.679833
 20
142.751261
 42
0.098270
  0
VERTEX
  8
0
 10
209.144474
 20
143.492188
 42
0.072792
  0
VERTEX
  8
0
 10
209.354937
 20
144.438349
 42
0.057462
  0
VERTEX
  8
0
 10
209.306677
 20
145.607579
 42
0.030822
  0
VERTEX
  8
0
 10
208.994333
 20
147.019760
 42
-0.002084
  0
VERTEX
  8
0
 10
208.658185
 20
148.210548
 42
-0.002801
  0
VERTEX
  8
0
 10
208.364245
 20
149.292125
 42
-0.001925
  0
VERTEX
  8
0
 10
208.126361
 20
150.201314
 42
-0.029732
  0
VERTEX
  8
0
 10
208.064500
 20
150.518498
 42
0.009214
  0
VERTEX
  8
0
 10
208.030825
 20
150.738936
 42
0.005176
  0
VERTEX
  8
0
 10
207.982228
 20
151.005434
 42
0.005164
  0
VERTEX
  8
0
 10
207.927569
 20
151.273629
 42
0.008400
  0
VERTEX
  8
0
 10
207.875000
 20
151.500000
 42
-0.004966
  0
VERTEX
  8
0
 10
207.816551
 20
151.744070
 42
-0.002087
  0
VERTEX
  8
0
 10
207.742573
 20
152.073438
 42
-0.002065
  0
VERTEX
  8
0
 10
207.666399
 20
152.426255
 42
-0.002687
  0
VERTEX
  8
0
 10
207.599716
 20
152.750000
 42
0.055163
  0
VERTEX
  8
0
 10
207.006640
 20
154.614460
 42
0.018913
  0
VERTEX
  8
0
 10
205.756676
 20
157.162851
 42
0.011034
  0
VERTEX
  8
0
 10
204.361745
 20
159.622478
 42
0.264103
  0
VERTEX
  8
0
 10
203.696872
 20
160.000000
 42
-0.157777
  0
VERTEX
  8
0
 10
203.439456
 20
160.083302
 42
-0.191276
  0
VERTEX
  8
0
 10
203.304174
 20
160.295825
 42
-0.127066
  0
VERTEX
  8
0
 10
203.324993
 20
160.621182
 42
-0.059294
  0
VERTEX
  8
0
 10
203.504365
 20
161.007063
 42
0.127011
  0
VERTEX
  8
0
 10
203.635959
 20
161.431111
 42
0.123826
  0
VERTEX
  8
0
 10
203.547766
 20
161.870325
 42
0.108888
  0
VERTEX
  8
0
 10
203.246106
 20
162.257822
 42
0.081677
  0
VERTEX
  8
0
 10
202.778106
 20
162.531654
 42
-0.163508
  0
VERTEX
  8
0
 10
202.235854
 20
162.979701
 42
-0.064918
  0
VERTEX
  8
0
 10
201.831259
 20
163.870252
 42
-0.051015
  0
VERTEX
  8
0
 10
201.589784
 20
165.093846
 42
-0.031529
  0
VERTEX
  8
0
 10
201.545959
 20
166.560669
 42
0.042877
  0
VERTEX
  8
0
 10
201.455550
 20
168.280049
 42
0.053530
  0
VERTEX
  8
0
 10
201.067676
 20
169.830119
 42
0.054017
  0
VERTEX
  8
0
 10
200.363332
 20
171.251453
 42
0.044879
  0
VERTEX
  8
0
 10
199.331236
 20
172.587599
 42
-0.022590
  0
VERTEX
  8
0
 10
198.438878
 20
173.642245
 42
-0.025638
  0
VERTEX
  8
0
 10
197.684800
 20
174.730872
 42
-0.026072
  0
VERTEX
  8
0
 10
197.146976
 20
175.709755
 42
-0.113046
  0
VERTEX
  8
0
 10
197.000000
 20
176.351522
 42
0.070128
  0
VERTEX
  8
0
 10
196.921482
 20
176.908585
 42
0.038915
  0
VERTEX
  8
0
 10
196.680655
 20
177.552605
 42
0.037927
  0
VERTEX
  8
0
 10
196.328980
 20
178.179177
 42
0.049573
  0
VERTEX
  8
0
 10
195.912868
 20
178.687132
 42
-0.061981
  0
VERTEX
  8
0
 10
195.543485
 20
179.161513
 42
-0.110291
  0
VERTEX
  8
0
 10
195.389388
 20
179.629497
 42
-0.142798
  0
VERTEX
  8
0
 10
195.465647
 20
180.036373
 42
-0.137932
  0
VERTEX
  8
0
 10
195.749200
 20
180.344997
 42
-0.255475
  0
VERTEX
  8
0
 10
196.313405
 20
180.375112
 42
-0.028658
  0
VERTEX
  8
0
 10
197.478281
 20
179.732329
 42
-0.029163
  0
VERTEX
  8
0
 10
198.867000
 20
178.741252
 42
-0.019514
  0
VERTEX
  8
0
 10
200.338652
 20
177.457865
 42
0.017251
  0
VERTEX
  8
0
 10
201.843052
 20
176.133892
 42
0.021499
  0
VERTEX
  8
0
 10
203.331731
 20
175.015748
 42
0.020370
  0
VERTEX
  8
0
 10
204.634292
 20
174.198239
 42
0.130672
  0
VERTEX
  8
0
 10
205.379875
 20
174.000000
 42
-0.087511
  0
VERTEX
  8
0
 10
205.997699
 20
173.891033
 42
-0.043416
  0
VERTEX
  8
0
 10
206.721320
 20
173.553954
 42
-0.041319
  0
VERTEX
  8
0
 10
207.431501
 20
173.062546
 42
-0.047581
  0
VERTEX
  8
0
 10
208.015316
 20
172.481546
 42
0.105044
  0
VERTEX
  8
0
 10
210.726452
 20
170.339143
 42
0.037679
  0
VERTEX
  8
0
 10
215.315115
 20
168.484480
 42
0.033339
  0
VERTEX
  8
0
 10
219.841689
 20
167.366517
 42
0.307338
  0
VERTEX
  8
0
 10
221.592965
 20
168.150421
 42
-0.105479
  0
VERTEX
  8
0
 10
221.872807
 20
168.442647
 42
-0.099240
  0
VERTEX
  8
0
 10
222.253562
 20
168.603192
 42
-0.096305
  0
VERTEX
  8
0
 10
222.676613
 20
168.607076
 42
-0.092951
  0
VERTEX
  8
0
 10
223.076161
 20
168.452930
 42
0.163175
  0
VERTEX
  8
0
 10
223.481309
 20
168.358035
 42
0.121698
  0
VERTEX
  8
0
 10
223.917704
 20
168.510262
 42
0.093934
  0
VERTEX
  8
0
 10
224.320960
 20
168.897512
 42
0.063063
  0
VERTEX
  8
0
 10
224.623846
 20
169.462141
 42
-0.067920
  0
VERTEX
  8
0
 10
224.951805
 20
170.059568
 42
-0.131792
  0
VERTEX
  8
0
 10
225.375187
 20
170.395719
 42
-0.155402
  0
VERTEX
  8
0
 10
225.859566
 20
170.444633
 42
-0.107022
  0
VERTEX
  8
0
 10
226.366783
 20
170.217559
 42
0.090518
  0
VERTEX
  8
0
 10
226.975562
 20
169.920766
 42
0.034694
  0
VERTEX
  8
0
 10
227.901493
 20
169.729491
 42
0.032952
  0
VERTEX
  8
0
 10
228.959709
 20
169.656924
 42
0.034690
  0
VERTEX
  8
0
 10
230.000000
 20
169.726482
 42
-0.007009
  0
VERTEX
  8
0
 10
231.085205
 20
169.859647
 42
-0.005304
  0
VERTEX
  8
0
 10
232.279687
 20
169.976447
 42
-0.005364
  0
VERTEX
  8
0
 10
233.403850
 20
170.062206
 42
-0.012396
  0
VERTEX
  8
0
 10
234.250000
 20
170.096595
 42
0.037408
  0
VERTEX
  8
0
 10
234.920294
 20
170.157497
 42
0.055647
  0
VERTEX
  8
0
 10
235.486521
 20
170.318216
 42
0.072405
  0
VERTEX
  8
0
 10
235.874223
 20
170.546580
 42
0.226520
  0
VERTEX
  8
0
 10
236.001987
 20
170.812149
 42
-0.276490
  0
VERTEX
  8
0
 10
236.171786
 20
171.093886
 42
-0.040445
  0
VERTEX
  8
0
 10
236.810620
 20
171.370070
 42
-0.036157
  0
VERTEX
  8
0
 10
237.698881
 20
171.601552
 42
-0.023388
  0
VERTEX
  8
0
 10
238.751987
 20
171.745536
 42
0.012220
  0
VERTEX
  8
0
 10
240.771712
 20
171.975871
 42
0.009750
  0
VERTEX
  8
0
 10
242.936715
 20
172.319683
 42
0.009148
  0
VERTEX
  8
0
 10
244.876415
 20
172.703362
 42
0.039561
  0
VERTEX
  8
0
 10
246.000000
 20
173.041910
 42
-0.053202
  0
VERTEX
  8
0
 10
246.244774
 20
173.108451
 42
-0.024504
  0
VERTEX
  8
0
 10
246.573438
 20
173.144795
 42
-0.023940
  0
VERTEX
  8
0
 10
246.926200
 20
173.149473
 42
-0.030507
  0
VERTEX
  8
0
 10
247.250000
 20
173.118421
 42
0.137085
  0
VERTEX
  8
0
 10
247.535622
 20
173.151665
 42
0.119953
  0
VERTEX
  8
0
 10
247.779687
 20
173.328536
 42
0.101574
  0
VERTEX
  8
0
 10
247.943594
 20
173.626809
 42
0.075146
  0
VERTEX
  8
0
 10
248.000000
 20
174.000000
 42
-0.191087
  0
VERTEX
  8
0
 10
248.151477
 20
174.381882
 42
-0.088204
  0
VERTEX
  8
0
 10
248.587500
 20
174.706250
 42
-0.068025
  0
VERTEX
  8
0
 10
249.234582
 20
174.926307
 42
-0.048028
  0
VERTEX
  8
0
 10
250.000000
 20
175.000000
 42
0.041588
  0
VERTEX
  8
0
 10
250.765725
 20
175.063800
 42
0.061115
  0
VERTEX
  8
0
 10
251.412500
 20
175.255633
 42
0.080324
  0
VERTEX
  8
0
 10
251.851409
 20
175.537403
 42
0.213084
  0
VERTEX
  8
0
 10
252.000000
 20
175.870240
 42
-0.293066
  0
VERTEX
  8
0
 10
252.210365
 20
176.198317
 42
-0.050345
  0
VERTEX
  8
0
 10
252.944109
 20
176.449526
 42
-0.041117
  0
VERTEX
  8
0
 10
253.982286
 20
176.603314
 42
-0.025573
  0
VERTEX
  8
0
 10
255.213990
 20
176.620240
 42
0.037837
  0
VERTEX
  8
0
 10
256.811021
 20
176.681348
 42
0.085529
  0
VERTEX
  8
0
 10
257.968668
 20
177.019915
 42
0.099043
  0
VERTEX
  8
0
 10
258.841012
 20
177.686678
 42
0.064073
  0
VERTEX
  8
0
 10
259.553249
 20
178.744074
 42
-0.020765
  0
VERTEX
  8
0
 10
260.014261
 20
179.575413
 42
-0.037367
  0
VERTEX
  8
0
 10
260.468626
 20
180.208445
 42
-0.048653
  0
VERTEX
  8
0
 10
260.857355
 20
180.590181
 42
-0.383232
  0
VERTEX
  8
0
 10
261.089259
 20
180.577914
 42
0.129193
  0
VERTEX
  8
0
 10
261.396141
 20
180.399006
 42
0.011801
  0
VERTEX
  8
0
 10
262.260595
 20
180.180801
 42
0.014647
  0
VERTEX
  8
0
 10
263.321024
 20
179.972061
 42
0.010953
  0
VERTEX
  8
0
 10
264.500000
 20
179.802113
 42
-0.079130
  0
VERTEX
  8
0
 10
270.519786
 20
178.076377
 42
-0.020747
  0
VERTEX
  8
0
 10
279.459311
 20
173.438154
 42
-0.012918
  0
VERTEX
  8
0
 10
288.030628
 20
168.230885
 42
-0.408895
  0
VERTEX
  8
0
 10
288.526264
 20
166.042496
 42
0.220386
  0
VERTEX
  8
0
 10
288.475758
 20
165.622709
 42
0.053672
  0
VERTEX
  8
0
 10
288.768472
 20
164.969598
 42
0.045009
  0
VERTEX
  8
0
 10
289.301764
 20
164.220283
 42
0.031694
  0
VERTEX
  8
0
 10
290.023581
 20
163.478659
 42
0.020919
  0
VERTEX
  8
0
 10
290.918665
 20
162.734282
 42
0.100030
  0
VERTEX
  8
0
 10
291.513160
 20
162.445272
 42
0.291223
  0
VERTEX
  8
0
 10
291.851725
 20
162.555094
 42
0.174324
  0
VERTEX
  8
0
 10
292.000000
 20
162.967457
 42
-0.059975
  0
VERTEX
  8
0
 10
292.070195
 20
163.550556
 42
-0.335105
  0
VERTEX
  8
0
 10
292.298999
 20
163.737287
 42
-0.165817
  0
VERTEX
  8
0
 10
292.700680
 20
163.617053
 42
-0.018313
  0
VERTEX
  8
0
 10
293.472121
 20
163.023137
 42
0.058040
  0
VERTEX
  8
0
 10
294.293819
 20
162.488568
 42
0.151291
  0
VERTEX
  8
0
 10
294.982308
 20
162.377093
 42
0.126693
  0
VERTEX
  8
0
 10
295.692114
 20
162.670380
 42
0.035396
  0
VERTEX
  8
0
 10
296.607093
 20
163.464236
 42
0.042646
  0
VERTEX
  8
0
 10
297.440930
 20
164.453884
 42
0.132668
  0
VERTEX
  8
0
 10
297.738306
 20
165.265714
 42
0.116202
  0
VERTEX
  8
0
 10
297.605459
 20
166.181638
 42
0.029007
  0
VERTEX
  8
0
 10
296.965992
 20
167.563544
 42
0.017614
  0
VERTEX
  8
0
 10
296.423390
 20
168.496830
 42
0.024860
  0
VERTEX
  8
0
 10
295.871191
 20
169.284291
 42
0.022858
  0
VERTEX
  8
0
 10
295.371335
 20
169.869408
 42
0.207428
  0
VERTEX
  8
0
 10
295.070091
 20
170.000000
 42
-0.156553
  0
VERTEX
  8
0
 10
294.695024
 20
170.120386
 42
-0.005873
  0
VERTEX
  8
0
 10
293.488719
 20
171.005316
 42
-0.010114
  0
VERTEX
  8
0
 10
292.078309
 20
172.111026
 42
-0.006890
  0
VERTEX
  8
0
 10
290.517944
 20
173.422353
 42
0.016126
  0
VERTEX
  8
0
 10
288.942186
 20
174.697712
 42
0.024360
  0
VERTEX
  8
0
 10
287.484983
 20
175.693490
 42
0.021399
  0
VERTEX
  8
0
 10
286.268350
 20
176.370770
 42
0.260339
  0
VERTEX
  8
0
 10
285.754097
 20
176.348023
 42
-0.073906
  0
VERTEX
  8
0
 10
285.466261
 20
176.224277
 42
-0.235658
  0
VERTEX
  8
0
 10
285.267235
 20
176.265531
 42
-0.231309
  0
VERTEX
  8
0
 10
285.178086
 20
176.450594
 42
-0.071756
  0
VERTEX
  8
0
 10
285.225223
 20
176.764668
 42
0.277000
  0
VERTEX
  8
0
 10
284.922681
 20
177.958430
 42
0.020441
  0
VERTEX
  8
0
 10
282.330117
 20
180.331675
 42
0.024221
  0
VERTEX
  8
0
 10
279.527125
 20
182.471168
 42
0.152035
  0
VERTEX
  8
0
 10
277.828150
 20
183.000000
 42
-0.076367
  0
VERTEX
  8
0
 10
277.145553
 20
183.104868
 42
-0.025678
  0
VERTEX
  8
0
 10
276.198448
 20
183.457282
 42
-0.024858
  0
VERTEX
  8
0
 10
275.174970
 20
183.960890
 42
-0.026015
  0
VERTEX
  8
0
 10
274.222506
 20
184.556704
 42
0.019165
  0
VERTEX
  8
0
 10
273.369247
 20
185.106857
 42
0.038873
  0
VERTEX
  8
0
 10
272.652861
 20
185.458810
 42
0.063545
  0
VERTEX
  8
0
 10
272.162538
 20
185.585071
 42
0.451351
  0
VERTEX
  8
0
 10
272.000000
 20
185.441694
 42
-0.468380
  0
VERTEX
  8
0
 10
271.826146
 20
185.296818
 42
-0.048741
  0
VERTEX
  8
0
 10
271.241893
 20
185.464027
 42
-0.033796
  0
VERTEX
  8
0
 10
270.409817
 20
185.859532
 42
-0.017192
  0
VERTEX
  8
0
 10
269.419212
 20
186.460978
 42
0.035695
  0
VERTEX
  8
0
 10
268.329254
 20
187.068768
 42
0.038322
  0
VERTEX
  8
0
 10
267.189044
 20
187.498877
 42
0.041477
  0
VERTEX
  8
0
 10
266.162194
 20
187.708315
 42
0.121772
  0
VERTEX
  8
0
 10
265.451237
 20
187.619661
 42
-0.125857
  0
VERTEX
  8
0
 10
264.216465
 20
187.475770
 42
-0.298139
  0
VERTEX
  8
0
 10
263.547897
 20
188.054957
 42
-0.194290
  0
VERTEX
  8
0
 10
263.669024
 20
189.189206
 42
-0.073937
  0
VERTEX
  8
0
 10
264.633666
 20
190.490809
 42
0.028564
  0
VERTEX
  8
0
 10
265.490435
 20
191.451490
 42
0.150177
  0
VERTEX
  8
0
 10
265.745137
 20
192.102280
 42
0.174912
  0
VERTEX
  8
0
 10
265.571072
 20
192.727822
 42
0.041945
  0
VERTEX
  8
0
 10
264.864364
 20
193.564207
 42
0.089966
  0
VERTEX
  8
0
 10
263.949781
 20
194.197927
 42
0.159834
  0
VERTEX
  8
0
 10
263.047773
 20
194.297104
 42
0.083947
  0
VERTEX
  8
0
 10
261.864509
 20
193.831372
 42
0.013593
  0
VERTEX
  8
0
 10
259.774561
 20
192.492779
 42
-0.012286
  0
VERTEX
  8
0
 10
258.292781
 20
191.538239
 42
-0.015486
  0
VERTEX
  8
0
 10
256.874381
 20
190.732254
 42
-0.013617
  0
VERTEX
  8
0
 10
255.660554
 20
190.133078
 42
-0.108246
  0
VERTEX
  8
0
 10
255.053054
 20
190.000000
 42
0.093881
  0
VERTEX
  8
0
 10
254.651084
 20
189.923854
 42
0.096583
  0
VERTEX
  8
0
 10
254.309335
 20
189.706250
 42
0.099061
  0
VERTEX
  8
0
 10
254.080585
 20
189.381564
 42
0.104447
  0
VERTEX
  8
0
 10
254.000000
 20
189.000000
 42
-0.140362
  0
VERTEX
  8
0
 10
253.890798
 20
188.618662
 42
-0.099913
  0
VERTEX
  8
0
 10
253.583854
 20
188.293750
 42
-0.085122
  0
VERTEX
  8
0
 10
253.124800
 20
188.074923
 42
-0.068857
  0
VERTEX
  8
0
 10
252.583333
 20
188.000000
 42
0.051036
  0
VERTEX
  8
0
 10
252.016727
 20
187.942014
 42
0.054017
  0
VERTEX
  8
0
 10
251.484896
 20
187.770540
 42
0.060280
  0
VERTEX
  8
0
 10
251.064031
 20
187.518121
 42
0.127384
  0
VERTEX
  8
0
 10
250.833333
 20
187.218858
 42
-0.177973
  0
VERTEX
  8
0
 10
249.917520
 20
186.246749
 42
-0.003319
  0
VERTEX
  8
0
 10
243.521165
 20
183.107002
 42
-0.004934
  0
VERTEX
  8
0
 10
237.266550
 20
180.163920
 42
-0.101668
  0
VERTEX
  8
0
 10
235.250000
 20
179.697497
 42
0.064614
  0
VERTEX
  8
0
 10
234.772123
 20
179.623460
 42
0.080707
  0
VERTEX
  8
0
 10
234.367188
 20
179.430932
 42
0.096162
  0
VERTEX
  8
0
 10
234.095992
 20
179.153581
 42
0.146649
  0
VERTEX
  8
0
 10
234.000000
 20
178.833333
 42
-0.091814
  0
VERTEX
  8
0
 10
233.942775
 20
178.524323
 42
-0.111235
  0
VERTEX
  8
0
 10
233.779687
 20
178.279578
 42
-0.117903
  0
VERTEX
  8
0
 10
233.535898
 20
178.137807
 42
-0.112625
  0
VERTEX
  8
0
 10
233.250000
 20
178.118421
 42
0.030259
  0
VERTEX
  8
0
 10
232.926200
 20
178.149635
 42
0.023750
  0
VERTEX
  8
0
 10
232.573438
 20
178.145441
 42
0.024306
  0
VERTEX
  8
0
 10
232.244761
 20
178.109812
 42
0.052881
  0
VERTEX
  8
0
 10
232.000000
 20
178.044111
 42
-0.056310
  0
VERTEX
  8
0
 10
229.956384
 20
177.510494
 42
-0.056728
  0
VERTEX
  8
0
 10
227.850436
 20
177.448191
 42
-0.058513
  0
VERTEX
  8
0
 10
225.845698
 20
177.855932
 42
-0.068212
  0
VERTEX
  8
0
 10
224.099865
 20
178.707371
 42
0.008547
  0
VERTEX
  8
0
 10
223.049461
 20
179.384921
 42
0.010434
  0
VERTEX
  8
0
 10
222.043398
 20
179.981056
 42
0.009079
  0
VERTEX
  8
0
 10
221.181942
 20
180.447089
 42
0.069881
  0
VERTEX
  8
0
 10
220.750000
 20
180.599009
 42
-0.017107
  0
VERTEX
  8
0
 10
220.444536
 20
180.671459
 42
-0.017466
  0
VERTEX
  8
0
 10
220.146875
 20
180.764194
 42
-0.017514
  0
VERTEX
  8
0
 10
219.894669
 20
180.862587
 42
-0.066614
  0
VERTEX
  8
0
 10
219.750000
 20
180.949310
 42
0.104766
  0
VERTEX
  8
0
 10
219.557893
 20
181.045517
 42
0.004933
  0
VERTEX
  8
0
 10
218.851814
 20
181.222537
 42
0.007946
  0
VERTEX
  8
0
 10
218.002718
 20
181.412312
 42
0.005613
  0
VERTEX
  8
0
 10
217.043410
 20
181.599564
 42
-0.033476
  0
VERTEX
  8
0
 10
216.054992
 20
181.850339
 42
-0.034180
  0
VERTEX
  8
0
 10
215.115974
 20
182.229463
 42
-0.036319
  0
VERTEX
  8
0
 10
214.351679
 20
182.671820
 42
-0.105374
  0
VERTEX
  8
0
 10
213.931606
 20
183.110664
 42
0.043733
  0
VERTEX
  8
0
 10
213.633709
 20
183.509949
 42
0.049185
  0
VERTEX
  8
0
 10
213.281392
 20
183.834310
 42
0.055498
  0
VERTEX
  8
0
 10
212.929740
 20
184.042687
 42
0.140181
  0
VERTEX
  8
0
 10
212.638197
 20
184.085410
 42
-0.024590
  0
VERTEX
  8
0
 10
212.357315
 20
184.061797
 42
-0.017369
  0
VERTEX
  8
0
 10
212.040595
 20
184.061808
 42
-0.017583
  0
VERTEX
  8
0
 10
211.737131
 20
184.083064
 42
-0.034985
  0
VERTEX
  8
0
 10
211.500000
 20
184.125000
 42
0.000000
  0
VERTEX
  8
0
 10
211.241308
 20
184.189673
 42
0.000000
  0
VERTEX
  8
0
 10
210.853125
 20
184.286719
 42
-0.009324
  0
VERTEX
  8
0
 10
210.419526
 20
184.395119
 42
0.000000
  0
VERTEX
  8
0
 10
210.000000
 20
184.500000
 42
0.011517
  0
VERTEX
  8
0
 10
209.535459
 20
184.604830
 42
0.006258
  0
VERTEX
  8
0
 10
208.960385
 20
184.713281
 42
0.006231
  0
VERTEX
  8
0
 10
208.372352
 20
184.809034
 42
0.009814
  0
VERTEX
  8
0
 10
207.865141
 20
184.875000
 42
-0.439860
  0
VERTEX
  8
0
 10
207.688325
 20
185.116333
 42
-0.111173
  0
VERTEX
  8
0
 10
207.911075
 20
185.617955
 42
-0.047970
  0
VERTEX
  8
0
 10
208.585109
 20
186.363292
 42
-0.020491
  0
VERTEX
  8
0
 10
209.615141
 20
187.228677
 42
0.008248
  0
VERTEX
  8
0
 10
212.516147
 20
189.547238
 42
0.040975
  0
VERTEX
  8
0
 10
214.009538
 20
191.003087
 42
0.088681
  0
VERTEX
  8
0
 10
214.639188
 20
192.055115
 42
0.233088
  0
VERTEX
  8
0
 10
214.557527
 20
192.906919
 42
-0.093675
  0
VERTEX
  8
0
 10
214.412483
 20
193.284490
 42
-0.118427
  0
VERTEX
  8
0
 10
214.433276
 20
193.656792
 42
-0.124741
  0
VERTEX
  8
0
 10
214.618053
 20
193.965223
 42
-0.111101
  0
VERTEX
  8
0
 10
214.934954
 20
194.164590
 42
0.237297
  0
VERTEX
  8
0
 10
215.900341
 20
195.171067
 42
0.050156
  0
VERTEX
  8
0
 10
216.394541
 20
197.629736
 42
0.050344
  0
VERTEX
  8
0
 10
216.387807
 20
200.353345
 42
0.101591
  0
VERTEX
  8
0
 10
215.744878
 20
202.391524
 42
-0.013228
  0
VERTEX
  8
0
 10
215.292840
 20
203.256433
 42
-0.014852
  0
VERTEX
  8
0
 10
214.905326
 20
204.111662
 42
-0.014224
  0
VERTEX
  8
0
 10
214.619238
 20
204.855232
 42
-0.073587
  0
VERTEX
  8
0
 10
214.535435
 20
205.286475
 42
0.130274
  0
VERTEX
  8
0
 10
214.420222
 20
205.653572
 42
0.040356
  0
VERTEX
  8
0
 10
214.069784
 20
206.120460
 42
0.037275
  0
VERTEX
  8
0
 10
213.576654
 20
206.600299
 42
0.033389
  0
VERTEX
  8
0
 10
213.000000
 20
207.021162
 42
-0.009086
  0
VERTEX
  8
0
 10
212.124871
 20
207.596885
 42
-0.247563
  0
VERTEX
  8
0
 10
212.000000
 20
207.833628
 42
-0.371237
  0
VERTEX
  8
0
 10
212.143983
 20
208.000826
 42
-0.015002
  0
VERTEX
  8
0
 10
213.000000
 20
208.103108
 42
-0.009457
  0
VERTEX
  8
0
 10
213.625256
 20
208.146953
 42
-0.008941
  0
VERTEX
  8
0
 10
214.263522
 20
208.168160
 42
-0.008933
  0
VERTEX
  8
0
 10
214.829079
 20
208.166728
 42
-0.030665
  0
VERTEX
  8
0
 10
215.194968
 20
208.136765
 42
0.274011
  0
VERTEX
  8
0
 10
216.575372
 20
208.707212
 42
0.040778
  0
VERTEX
  8
0
 10
218.247292
 20
211.359088
 42
0.042864
  0
VERTEX
  8
0
 10
219.511146
 20
214.387691
 42
0.139791
  0
VERTEX
  8
0
 10
219.579728
 20
216.538360
 42
-0.023270
  0
VERTEX
  8
0
 10
219.320396
 20
217.821818
 42
-0.167222
  0
VERTEX
  8
0
 10
219.430969
 20
218.434554
 42
-0.267317
  0
VERTEX
  8
0
 10
219.855186
 20
218.687958
 42
-0.058965
  0
VERTEX
  8
0
 10
220.731827
 20
218.598453
 42
-0.014139
  0
VERTEX
  8
0
 10
223.247686
 20
217.961900
 42
-0.026036
  0
VERTEX
  8
0
 10
225.245981
 20
217.281562
 42
-0.025926
  0
VERTEX
  8
0
 10
226.682261
 20
216.619287
 42
-0.278617
  0
VERTEX
  8
0
 10
227.000000
 20
216.093344
 42
0.175159
  0
VERTEX
  8
0
 10
227.261941
 20
215.368563
 42
0.003100
  0
VERTEX
  8
0
 10
229.976958
 20
212.143875
 42
0.007381
  0
VERTEX
  8
0
 10
233.247894
 20
208.420212
 42
0.004824
  0
VERTEX
  8
0
 10
237.124427
 20
204.218557
 42
0.020586
  0
VERTEX
  8
0
 10
237.981950
 20
203.379003
 42
0.033524
  0
VERTEX
  8
0
 10
238.782176
 20
202.749410
 42
0.036835
  0
VERTEX
  8
0
 10
239.439241
 20
202.367983
 42
0.319699
  0
VERTEX
  8
0
 10
239.754271
 20
202.420937
 42
-0.226345
  0
VERTEX
  8
0
 10
240.036028
 20
202.520672
 42
-0.067393
  0
VERTEX
  8
0
 10
240.491432
 20
202.409439
 42
-0.052844
  0
VERTEX
  8
0
 10
241.033433
 20
202.127451
 42
-0.035936
  0
VERTEX
  8
0
 10
241.584344
 20
201.702381
 42
0.011069
  0
VERTEX
  8
0
 10
243.790603
 20
199.818006
 42
0.055913
  0
VERTEX
  8
0
 10
245.149589
 20
198.941128
 42
0.091731
  0
VERTEX
  8
0
 10
246.332410
 20
198.603094
 42
0.061793
  0
VERTEX
  8
0
 10
247.739878
 20
198.642532
 42
-0.046070
  0
VERTEX
  8
0
 10
248.611837
 20
198.694359
 42
-0.051255
  0
VERTEX
  8
0
 10
249.446892
 20
198.580830
 42
-0.057898
  0
VERTEX
  8
0
 10
250.126087
 20
198.330428
 42
-0.137951
  0
VERTEX
  8
0
 10
250.518712
 20
197.969724
 42
0.091737
  0
VERTEX
  8
0
 10
250.826004
 20
197.630833
 42
0.095926
  0
VERTEX
  8
0
 10
251.229675
 20
197.430819
 42
0.099461
  0
VERTEX
  8
0
 10
251.666475
 20
197.399976
 42
0.106853
  0
VERTEX
  8
0
 10
252.069098
 20
197.542705
 42
-0.104936
  0
VERTEX
  8
0
 10
252.423803
 20
197.669963
 42
-0.180040
  0
VERTEX
  8
0
 10
252.726548
 20
197.601977
 42
-0.164457
  0
VERTEX
  8
0
 10
252.929656
 20
197.344360
 42
-0.085618
  0
VERTEX
  8
0
 10
253.000000
 20
196.936572
 42
0.083070
  0
VERTEX
  8
0
 10
253.077541
 20
196.473071
 42
0.279568
  0
VERTEX
  8
0
 10
253.304166
 20
196.284477
 42
0.172043
  0
VERTEX
  8
0
 10
253.680410
 20
196.357579
 42
0.034804
  0
VERTEX
  8
0
 10
254.250000
 20
196.749130
 42
-0.080807
  0
VERTEX
  8
0
 10
254.873962
 20
197.098603
 42
-0.044670
  0
VERTEX
  8
0
 10
255.720312
 20
197.323760
 42
-0.043068
  0
VERTEX
  8
0
 10
256.642395
 20
197.401998
 42
-0.053075
  0
VERTEX
  8
0
 10
257.500000
 20
197.309459
 42
0.045307
  0
VERTEX
  8
0
 10
259.518609
 20
197.059936
 42
0.008005
  0
VERTEX
  8
0
 10
263.337623
 20
196.997202
 42
0.008331
  0
VERTEX
  8
0
 10
267.163574
 20
197.059363
 42
0.039907
  0
VERTEX
  8
0
 10
269.330309
 20
197.304548
 42
0.081568
  0
VERTEX
  8
0
 10
269.835212
 20
197.491848
 42
0.020802
  0
VERTEX
  8
0
 10
270.577237
 20
197.956648
 42
0.020638
  0
VERTEX
  8
0
 10
271.391157
 20
198.565777
 42
0.019604
  0
VERTEX
  8
0
 10
272.166667
 20
199.250000
 42
-0.044672
  0
VERTEX
  8
0
 10
273.007135
 20
199.919788
 42
-0.035938
  0
VERTEX
  8
0
 10
274.015174
 20
200.485938
 42
-0.037164
  0
VERTEX
  8
0
 10
275.030719
 20
200.874689
 42
-0.072953
  0
VERTEX
  8
0
 10
275.884990
 20
201.000000
 42
0.103453
  0
VERTEX
  8
0
 10
276.722503
 20
201.175161
 42
0.049573
  0
VERTEX
  8
0
 10
277.684939
 20
201.715289
 42
0.046190
  0
VERTEX
  8
0
 10
278.615465
 20
202.503504
 42
0.048953
  0
VERTEX
  8
0
 10
279.365470
 20
203.435026
 42
-0.018146
  0
VERTEX
  8
0
 10
280.148169
 20
204.539941
 42
-0.009498
  0
VERTEX
  8
0
 10
281.197187
 20
205.859664
 42
-0.009434
  0
VERTEX
  8
0
 10
282.325457
 20
207.173731
 42
-0.014266
  0
VERTEX
  8
0
 10
283.360625
 20
208.269716
 42
0.042544
  0
VERTEX
  8
0
 10
285.320685
 20
210.595070
 42
0.088452
  0
VERTEX
  8
0
 10
286.325171
 20
212.734934
 42
0.114777
  0
VERTEX
  8
0
 10
286.392171
 20
214.711477
 42
0.109611
  0
VERTEX
  8
0
 10
285.585557
 20
216.552107
 42
0.037723
  0
VERTEX
  8
0
 10
284.648885
 20
217.648977
 42
0.266835
  0
VERTEX
  8
0
 10
283.998732
 20
217.826873
 42
0.141082
  0
VERTEX
  8
0
 10
283.247525
 20
217.381923
 42
0.009307
  0
VERTEX
  8
0
 10
281.538754
 20
215.499650
 42
0.016687
  0
VERTEX
  8
0
 10
280.379537
 20
214.081111
 42
0.009262
  0
VERTEX
  8
0
 10
279.057054
 20
212.279585
 42
0.009229
  0
VERTEX
  8
0
 10
277.784133
 20
210.403948
 42
0.014707
  0
VERTEX
  8
0
 10
276.773746
 20
208.750000
 42
-0.027705
  0
VERTEX
  8
0
 10
275.838712
 20
207.305172
 42
-0.033326
  0
VERTEX
  8
0
 10
274.800968
 20
206.064073
 42
-0.035390
  0
VERTEX
  8
0
 10
273.809272
 20
205.163971
 42
-0.147288
  0
VERTEX
  8
0
 10
273.065859
 20
204.872377
 42
0.006783
  0
VERTEX
  8
0
 10
269.948011
 20
204.575637
 42
0.027223
  0
VERTEX
  8
0
 10
268.058687
 20
204.265142
 42
0.045009
  0
VERTEX
  8
0
 10
266.770927
 20
203.856503
 42
0.069416
  0
VERTEX
  8
0
 10
265.768020
 20
203.260985
 42
-0.094398
  0
VERTEX
  8
0
 10
265.136160
 20
202.927025
 42
-0.053782
  0
VERTEX
  8
0
 10
264.284981
 20
202.762871
 42
-0.051060
  0
VERTEX
  8
0
 10
263.359100
 20
202.780444
 42
-0.058604
  0
VERTEX
  8
0
 10
262.500000
 20
202.988935
 42
0.054972
  0
VERTEX
  8
0
 10
261.585706
 20
203.217843
 42
0.034951
  0
VERTEX
  8
0
 10
260.489642
 20
203.289864
 42
0.034881
  0
VERTEX
  8
0
 10
259.390122
 20
203.208358
 42
0.053352
  0
VERTEX
  8
0
 10
258.464739
 20
202.971745
 42
-0.066533
  0
VERTEX
  8
0
 10
257.496698
 20
202.751140
 42
-0.061226
  0
VERTEX
  8
0
 10
256.476044
 20
202.782901
 42
-0.060080
  0
VERTEX
  8
0
 10
255.475657
 20
203.063457
 42
-0.059553
  0
VERTEX
  8
0
 10
254.567417
 20
203.574362
 42
0.039447
  0
VERTEX
  8
0
 10
253.788698
 20
204.054501
 42
0.047271
  0
VERTEX
  8
0
 10
252.988944
 20
204.373187
 42
0.054010
  0
VERTEX
  8
0
 10
252.283711
 20
204.499193
 42
0.156885
  0
VERTEX
  8
0
 10
251.808702
 20
204.381771
 42
-0.172409
  0
VERTEX
  8
0
 10
251.302789
 20
204.272822
 42
-0.043089
  0
VERTEX
  8
0
 10
250.464318
 20
204.456339
 42
-0.038924
  0
VERTEX
  8
0
 10
249.483782
 20
204.847302
 42
-0.030716
  0
VERTEX
  8
0
 10
248.491207
 20
205.413804
 42
0.025732
  0
VERTEX
  8
0
 10
247.451656
 20
206.020924
 42
0.023955
  0
VERTEX
  8
0
 10
246.330528
 20
206.534055
 42
0.024701
  0
VERTEX
  8
0
 10
245.290337
 20
206.892601
 42
0.070754
  0
VERTEX
  8
0
 10
244.535183
 20
207.000000
 42
-0.077007
  0
VERTEX
  8
0
 10
243.967468
 20
207.087957
 42
-0.108005
  0
VERTEX
  8
0
 10
243.524398
 20
207.343172
 42
-0.127518
  0
VERTEX
  8
0
 10
243.275574
 20
207.723491
 42
-0.134937
  0
VERTEX
  8
0
 10
243.250000
 20
208.168247
 42
0.166591
  0
VERTEX
  8
0
 10
243.186300
 20
208.699512
 42
0.063339
  0
VERTEX
  8
0
 10
242.774341
 20
209.333828
 42
0.053658
  0
VERTEX
  8
0
 10
242.110816
 20
209.965845
 42
0.043207
  0
VERTEX
  8
0
 10
241.279671
 20
210.495668
 42
-0.045162
  0
VERTEX
  8
0
 10
240.269928
 20
211.144894
 42
-0.019751
  0
VERTEX
  8
0
 10
239.052398
 20
212.172843
 42
-0.019356
  0
VERTEX
  8
0
 10
237.837191
 20
213.373490
 42
-0.024485
  0
VERTEX
  8
0
 10
236.815375
 20
214.577421
 42
0.009953
  0
VERTEX
  8
0
 10
235.825507
 20
215.814848
 42
0.007830
  0
VERTEX
  8
0
 10
234.706023
 20
217.116573
 42
0.007928
  0
VERTEX
  8
0
 10
233.627106
 20
218.293952
 42
0.019303
  0
VERTEX
  8
0
 10
232.785704
 20
219.117295
 42
-0.019977
  0
VERTEX
  8
0
 10
232.102013
 20
219.788119
 42
-0.024819
  0
VERTEX
  8
0
 10
231.524551
 20
220.466349
 42
-0.024368
  0
VERTEX
  8
0
 10
231.105894
 20
221.069242
 42
-0.140473
  0
VERTEX
  8
0
 10
231.000000
 20
221.438724
 42
0.168638
  0
VERTEX
  8
0
 10
230.675577
 20
222.373262
 42
0.043655
  0
VERTEX
  8
0
 10
229.566643
 20
223.550528
 42
0.042625
  0
VERTEX
  8
0
 10
228.327707
 20
224.478420
 42
0.306245
  0
VERTEX
  8
0
 10
227.619048
 20
224.452381
 42
-0.032425
  0
VERTEX
  8
0
 10
227.413913
 20
224.321978
 42
-0.531075
  0
VERTEX
  8
0
 10
227.353199
 20
224.353199
 42
-0.182203
  0
VERTEX
  8
0
 10
227.383565
 20
224.476736
 42
-0.014893
  0
VERTEX
  8
0
 10
227.583333
 20
224.750000
 42
-0.046956
  0
VERTEX
  8
0
 10
227.855779
 20
225.039600
 42
-0.040288
  0
VERTEX
  8
0
 10
228.191146
 20
225.290097
 42
-0.042211
  0
VERTEX
  8
0
 10
228.535832
 20
225.468070
 42
-0.084993
  0
VERTEX
  8
0
 10
228.833333
 20
225.535435
 42
0.077736
  0
VERTEX
  8
0
 10
229.212204
 20
225.615501
 42
0.011969
  0
VERTEX
  8
0
 10
229.926481
 20
225.906905
 42
0.013116
  0
VERTEX
  8
0
 10
230.758538
 20
226.296108
 42
0.011055
  0
VERTEX
  8
0
 10
231.618517
 20
226.750252
 42
-0.033257
  0
VERTEX
  8
0
 10
232.475904
 20
227.155447
 42
-0.044613
  0
VERTEX
  8
0
 10
233.300218
 20
227.397691
 42
-0.051989
  0
VERTEX
  8
0
 10
233.981308
 20
227.461062
 42
-0.196027
  0
VERTEX
  8
0
 10
234.368517
 20
227.298150
 42
0.222224
  0
VERTEX
  8
0
 10
234.605842
 20
227.212042
 42
0.237774
  0
VERTEX
  8
0
 10
234.814502
 20
227.341748
 42
0.101051
  0
VERTEX
  8
0
 10
234.956608
 20
227.735523
 42
0.036245
  0
VERTEX
  8
0
 10
235.000000
 20
228.333333
 42
-0.084312
  0
VERTEX
  8
0
 10
235.108093
 20
228.969812
 42
-0.093213
  0
VERTEX
  8
0
 10
235.419305
 20
229.510417
 42
-0.100482
  0
VERTEX
  8
0
 10
235.882945
 20
229.871945
 42
-0.116013
  0
VERTEX
  8
0
 10
236.427420
 20
230.000000
 42
0.124783
  0
VERTEX
  8
0
 10
237.114725
 20
230.174241
 42
0.036684
  0
VERTEX
  8
0
 10
238.037982
 20
230.765887
 42
0.034343
  0
VERTEX
  8
0
 10
239.015646
 20
231.609439
 42
0.030942
  0
VERTEX
  8
0
 10
239.905723
 20
232.607276
 42
0.000000
  0
VERTEX
  8
0
 10
241.956607
 20
235.214552
 42
0.000000
  0
VERTEX
  8
0
 10
239.728304
 20
237.073863
 42
0.016302
  0
VERTEX
  8
0
 10
238.285854
 20
238.199769
 42
0.167448
  0
VERTEX
  8
0
 10
237.573339
 20
238.418889
 42
0.189423
  0
VERTEX
  8
0
 10
236.921322
 20
238.137146
 42
0.021904
  0
VERTEX
  8
0
 10
235.820640
 20
236.943040
 42
-0.028152
  0
VERTEX
  8
0
 10
235.117516
 20
236.199097
 42
-0.037052
  0
VERTEX
  8
0
 10
234.393530
 20
235.609750
 42
-0.040578
  0
VERTEX
  8
0
 10
233.745990
 20
235.232035
 42
-0.186651
  0
VERTEX
  8
0
 10
233.320640
 20
235.198837
 42
0.146816
  0
VERTEX
  8
0
 10
232.853842
 20
235.198658
 42
0.024996
  0
VERTEX
  8
0
 10
232.006688
 20
234.897162
 42
0.025423
  0
VERTEX
  8
0
 10
231.017328
 20
234.428087
 42
0.020231
  0
VERTEX
  8
0
 10
230.000000
 20
233.826509
 42
-0.038464
  0
VERTEX
  8
0
 10
227.800740
 20
232.631929
 42
-0.025284
  0
VERTEX
  8
0
 10
225.113582
 20
231.589242
 42
-0.069284
  0
VERTEX
  8
0
 10
223.661975
 20
231.323237
 42
-0.726626
  0
VERTEX
  8
0
 10
223.527257
 20
231.684493
 42
0.172565
  0
VERTEX
  8
0
 10
224.160976
 20
232.699706
 42
0.049767
  0
VERTEX
  8
0
 10
224.379899
 20
234.565122
 42
0.037529
  0
VERTEX
  8
0
 10
224.232243
 20
237.123510
 42
0.017706
  0
VERTEX
  8
0
 10
223.678458
 20
240.387147
 42
0.067221
  0
VERTEX
  8
0
 10
222.918912
 20
242.549943
 42
0.059874
  0
VERTEX
  8
0
 10
221.589559
 20
244.528604
 42
0.053850
  0
VERTEX
  8
0
 10
219.686322
 20
246.308833
 42
0.038275
  0
VERTEX
  8
0
 10
217.221367
 20
247.881528
 42
0.052419
  0
VERTEX
  8
0
 10
215.968310
 20
248.391709
 42
0.198653
  0
VERTEX
  8
0
 10
215.144558
 20
248.300488
 42
0.129978
  0
VERTEX
  8
0
 10
214.412690
 20
247.603494
 42
0.018137
  0
VERTEX
  8
0
 10
213.373166
 20
245.766793
 42
-0.017620
  0
VERTEX
  8
0
 10
212.580957
 20
244.363687
 42
-0.082129
  0
VERTEX
  8
0
 10
211.975260
 20
243.663432
 42
-0.273978
  0
VERTEX
  8
0
 10
211.529164
 20
243.591918
 42
-0.220939
  0
VERTEX
  8
0
 10
211.188802
 20
243.950000
 42
-0.080711
  0
VERTEX
  8
0
 10
211.092142
 20
244.533851
 42
-0.091909
  0
VERTEX
  8
0
 10
211.193659
 20
245.090753
 42
-0.101106
  0
VERTEX
  8
0
 10
211.474834
 20
245.534157
 42
-0.121183
  0
VERTEX
  8
0
 10
211.891738
 20
245.797246
 42
0.083097
  0
VERTEX
  8
0
 10
212.383188
 20
246.057844
 42
0.217903
  0
VERTEX
  8
0
 10
212.566149
 20
246.402254
 42
0.152000
  0
VERTEX
  8
0
 10
212.452135
 20
246.863220
 42
0.037158
  0
VERTEX
  8
0
 10
211.993179
 20
247.508218
 42
-0.045517
  0
VERTEX
  8
0
 10
211.559036
 20
248.140423
 42
-0.122992
  0
VERTEX
  8
0
 10
211.416925
 20
248.661958
 42
-0.162673
  0
VERTEX
  8
0
 10
211.552416
 20
249.098034
 42
-0.098682
  0
VERTEX
  8
0
 10
211.951442
 20
249.469989
 42
0.107553
  0
VERTEX
  8
0
 10
212.353464
 20
249.858149
 42
0.051006
  0
VERTEX
  8
0
 10
212.691986
 20
250.497835
 42
0.047243
  0
VERTEX
  8
0
 10
212.922288
 20
251.268486
 42
0.049033
  0
VERTEX
  8
0
 10
213.000000
 20
252.059017
 42
-0.069556
  0
VERTEX
  8
0
 10
213.103700
 20
252.800853
 42
-0.085566
  0
VERTEX
  8
0
 10
213.406365
 20
253.429836
 42
-0.100046
  0
VERTEX
  8
0
 10
213.855837
 20
253.850380
 42
-0.139069
  0
VERTEX
  8
0
 10
214.383369
 20
254.000000
 42
0.219277
  0
VERTEX
  8
0
 10
215.634268
 20
254.576296
 42
0.155213
  0
VERTEX
  8
0
 10
216.244407
 20
256.021888
 42
0.120547
  0
VERTEX
  8
0
 10
215.969285
 20
257.860671
 42
0.119119
  0
VERTEX
  8
0
 10
214.876023
 20
259.374124
 42
0.017779
  0
VERTEX
  8
0
 10
214.155520
 20
259.947935
 42
0.037493
  0
VERTEX
  8
0
 10
213.551082
 20
260.328606
 42
0.065904
  0
VERTEX
  8
0
 10
213.141488
 20
260.480664
 42
0.481406
  0
VERTEX
  8
0
 10
213.000000
 20
260.367768
 42
-0.382084
  0
VERTEX
  8
0
 10
212.881159
 20
260.234955
 42
-0.120625
  0
VERTEX
  8
0
 10
212.593680
 20
260.272294
 42
-0.056063
  0
VERTEX
  8
0
 10
212.148212
 20
260.504925
 42
-0.024868
  0
VERTEX
  8
0
 10
211.616783
 20
260.903079
 42
0.051510
  0
VERTEX
  8
0
 10
210.892198
 20
261.388013
 42
0.194854
  0
VERTEX
  8
0
 10
210.360065
 20
261.442469
 42
0.178588
  0
VERTEX
  8
0
 10
209.909951
 20
261.109883
 42
0.042318
  0
VERTEX
  8
0
 10
209.458024
 20
260.275523
 42
0.020803
  0
VERTEX
  8
0
 10
209.172847
 20
259.540749
 42
0.022276
  0
VERTEX
  8
0
 10
208.956934
 20
258.801247
 42
0.022532
  0
VERTEX
  8
0
 10
208.829305
 20
258.153270
 42
0.089744
  0
VERTEX
  8
0
 10
208.841241
 20
257.750000
 42
-0.132409
  0
VERTEX
  8
0
 10
208.825609
 20
257.464439
 42
-0.127123
  0
VERTEX
  8
0
 10
208.668834
 20
257.220312
 42
-0.108866
  0
VERTEX
  8
0
 10
208.389443
 20
257.056551
 42
-0.078482
  0
VERTEX
  8
0
 10
208.031385
 20
257.000000
 42
0.184534
  0
VERTEX
  8
0
 10
207.710807
 20
256.877514
 42
0.147206
  0
VERTEX
  8
0
 10
207.516384
 20
256.559375
 42
0.100118
  0
VERTEX
  8
0
 10
207.488865
 20
256.074366
 42
0.055937
  0
VERTEX
  8
0
 10
207.638374
 20
255.500000
 42
-0.062452
  0
VERTEX
  8
0
 10
207.779863
 20
254.925965
 42
-0.109022
  0
VERTEX
  8
0
 10
207.731038
 20
254.440625
 42
-0.151124
  0
VERTEX
  8
0
 10
207.504556
 20
254.121650
 42
-0.164816
  0
VERTEX
  8
0
 10
207.145533
 20
254.000000
 42
0.237749
  0
VERTEX
  8
0
 10
206.665803
 20
253.758223
 42
0.036217
  0
VERTEX
  8
0
 10
206.074549
 20
252.825000
 42
0.033977
  0
VERTEX
  8
0
 10
205.490400
 20
251.532238
 42
0.023364
  0
VERTEX
  8
0
 10
205.000000
 20
250.000000
 42
-0.015738
  0
VERTEX
  8
0
 10
204.535717
 20
248.469370
 42
-0.024373
  0
VERTEX
  8
0
 10
204.030316
 20
247.184342
 42
-0.021254
  0
VERTEX
  8
0
 10
203.544009
 20
246.217311
 42
-0.284042
  0
VERTEX
  8
0
 10
203.211456
 20
246.031803
 42
-0.133676
  0
VERTEX
  8
0
 10
202.211219
 20
246.352701
 42
-0.025315
  0
VERTEX
  8
0
 10
200.645346
 20
247.486851
 42
-0.021291
  0
VERTEX
  8
0
 10
199.200346
 20
248.754310
 42
-0.247362
  0
VERTEX
  8
0
 10
198.969125
 20
249.444648
 42
0.159948
  0
VERTEX
  8
0
 10
198.916541
 20
249.780265
 42
0.028190
  0
VERTEX
  8
0
 10
198.590261
 20
250.338428
 42
0.028041
  0
VERTEX
  8
0
 10
198.116221
 20
250.973224
 42
0.021980
  0
VERTEX
  8
0
 10
197.535714
 20
251.607143
 42
0.019767
  0
VERTEX
  8
0
 10
196.945522
 20
252.152428
 42
0.045099
  0
VERTEX
  8
0
 10
196.451116
 20
252.502564
 42
0.098430
  0
VERTEX
  8
0
 10
196.129961
 20
252.612510
 42
0.453912
  0
VERTEX
  8
0
 10
196.000000
 20
252.498848
 42
-0.519240
  0
VERTEX
  8
0
 10
195.832789
 20
252.381245
 42
-0.038001
  0
VERTEX
  8
0
 10
195.226010
 20
252.652838
 42
-0.028205
  0
VERTEX
  8
0
 10
194.376634
 20
253.177360
 42
-0.014228
  0
VERTEX
  8
0
 10
193.365141
 20
253.927420
 42
0.018752
  0
VERTEX
  8
0
 10
192.274591
 20
254.720914
 42
0.021599
  0
VERTEX
  8
0
 10
191.176700
 20
255.391510
 42
0.021300
  0
VERTEX
  8
0
 10
190.208193
 20
255.874423
 42
0.105119
  0
VERTEX
  8
0
 10
189.615141
 20
256.001123
 42
-0.193984
  0
VERTEX
  8
0
 10
187.417041
 20
256.889835
 42
-0.019754
  0
VERTEX
  8
0
 10
183.449709
 20
261.031772
 42
-0.021012
  0
VERTEX
  8
0
 10
179.834643
 20
265.480796
 42
-0.161464
  0
VERTEX
  8
0
 10
179.000000
 20
267.998022
 42
0.090200
  0
VERTEX
  8
0
 10
178.858575
 20
268.775594
 42
0.039790
  0
VERTEX
  8
0
 10
178.412500
 20
269.724679
 42
0.037690
  0
VERTEX
  8
0
 10
177.765297
 20
270.682472
 42
0.041434
  0
VERTEX
  8
0
 10
177.000000
 20
271.500000
 42
-0.058693
  0
VERTEX
  8
0
 10
175.701901
 20
272.986085
 42
-0.102389
  0
VERTEX
  8
0
 10
175.072440
 20
274.488863
 42
-0.194454
  0
VERTEX
  8
0
 10
175.276333
 20
275.540421
 42
-0.254054
  0
VERTEX
  8
0
 10
176.122445
 20
276.000000
 42
0.083263
  0
VERTEX
  8
0
 10
176.583144
 20
276.077254
 42
0.318136
  0
VERTEX
  8
0
 10
176.743602
 20
276.300836
 42
0.152929
  0
VERTEX
  8
0
 10
176.625263
 20
276.687439
 42
0.023048
  0
VERTEX
  8
0
 10
176.131121
 20
277.342009
 42
-0.050768
  0
VERTEX
  8
0
 10
175.753708
 20
277.904134
 42
-0.066538
  0
VERTEX
  8
0
 10
175.537806
 20
278.483088
 42
-0.082297
  0
VERTEX
  8
0
 10
175.507446
 20
278.989854
 42
-0.171918
  0
VERTEX
  8
0
 10
175.675343
 20
279.342009
 42
0.081098
  0
VERTEX
  8
0
 10
175.856343
 20
279.593646
 42
0.223356
  0
VERTEX
  8
0
 10
175.861078
 20
279.806715
 42
0.215497
  0
VERTEX
  8
0
 10
175.698814
 20
279.951639
 42
0.076275
  0
VERTEX
  8
0
 10
175.383645
 20
280.000000
 42
-0.350653
  0
VERTEX
  8
0
 10
174.754209
 20
280.503313
 42
-0.058449
  0
VERTEX
  8
0
 10
174.580083
 20
282.155466
 42
-0.045075
  0
VERTEX
  8
0
 10
174.812735
 20
284.431883
 42
-0.030686
  0
VERTEX
  8
0
 10
175.465413
 20
286.953360
 42
-0.050621
  0
VERTEX
  8
0
 10
176.351110
 20
288.959292
 42
-0.054467
  0
VERTEX
  8
0
 10
177.604208
 20
290.693281
 42
-0.070145
  0
VERTEX
  8
0
 10
178.850310
 20
291.734644
 42
-0.348533
  0
VERTEX
  8
0
 10
179.696098
 20
291.637235
 42
0.284038
  0
VERTEX
  8
0
 10
180.054393
 20
291.552624
 42
0.059410
  0
VERTEX
  8
0
 10
180.664339
 20
291.839982
 42
0.045940
  0
VERTEX
  8
0
 10
181.395423
 20
292.396647
 42
0.028447
  0
VERTEX
  8
0
 10
182.148479
 20
293.171198
 42
-0.015094
  0
VERTEX
  8
0
 10
182.859958
 20
293.943182
 42
-0.033551
  0
VERTEX
  8
0
 10
183.456116
 20
294.475512
 42
-0.065348
  0
VERTEX
  8
0
 10
183.854754
 20
294.709784
 42
-0.537118
  0
VERTEX
  8
0
 10
184.000000
 20
294.613583
 42
0.366098
  0
VERTEX
  8
0
 10
184.123091
 20
294.468002
 42
0.144364
  0
VERTEX
  8
0
 10
184.403818
 20
294.501773
 42
0.060837
  0
VERTEX
  8
0
 10
184.846273
 20
294.759824
 42
0.025466
  0
VERTEX
  8
0
 10
185.374701
 20
295.205310
 42
0.201866
  0
VERTEX
  8
0
 10
186.211892
 20
297.074697
 42
0.141061
  0
VERTEX
  8
0
 10
185.616098
 20
299.336241
 42
0.136583
  0
VERTEX
  8
0
 10
183.887277
 20
300.984163
 42
0.188625
  0
VERTEX
  8
0
 10
181.779528
 20
301.232094
 42
0.068348
  0
VERTEX
  8
0
 10
181.099309
 20
300.950687
 42
0.069040
  0
VERTEX
  8
0
 10
180.522736
 20
300.497071
 42
0.075422
  0
VERTEX
  8
0
 10
180.133513
 20
299.946965
 42
0.116830
  0
VERTEX
  8
0
 10
180.000000
 20
299.383369
 42
-0.143115
  0
VERTEX
  8
0
 10
179.845846
 20
298.855833
 42
-0.099595
  0
VERTEX
  8
0
 10
179.412500
 20
298.406365
 42
-0.084175
  0
VERTEX
  8
0
 10
178.764490
 20
298.103532
 42
-0.067406
  0
VERTEX
  8
0
 10
178.000000
 20
298.000000
 42
0.035679
  0
VERTEX
  8
0
 10
177.233840
 20
297.945259
 42
0.053985
  0
VERTEX
  8
0
 10
176.586811
 20
297.779688
 42
0.070490
  0
VERTEX
  8
0
 10
176.142635
 20
297.537533
 42
0.236198
  0
VERTEX
  8
0
 10
175.997654
 20
297.250000
 42
-0.143967
  0
VERTEX
  8
0
 10
175.863405
 20
296.798638
 42
-0.010060
  0
VERTEX
  8
0
 10
175.114234
 20
295.692187
 42
-0.013606
  0
VERTEX
  8
0
 10
174.143587
 20
294.395332
 42
-0.009797
  0
VERTEX
  8
0
 10
172.993563
 20
293.000000
 42
0.022282
  0
VERTEX
  8
0
 10
171.876575
 20
291.573652
 42
0.029873
  0
VERTEX
  8
0
 10
171.004197
 20
290.182414
 42
0.030278
  0
VERTEX
  8
0
 10
170.442468
 20
288.988634
 42
0.187272
  0
VERTEX
  8
0
 10
170.436468
 20
288.323113
 42
-0.116728
  0
VERTEX
  8
0
 10
170.505632
 20
287.789245
 42
-0.068598
  0
VERTEX
  8
0
 10
170.351466
 20
287.160766
 42
-0.062651
  0
VERTEX
  8
0
 10
170.008908
 20
286.537681
 42
-0.062647
  0
VERTEX
  8
0
 10
169.522696
 20
286.018836
 42
0.186897
  0
VERTEX
  8
0
 10
168.769065
 20
284.666900
 42
0.036490
  0
VERTEX
  8
0
 10
168.581599
 20
281.833377
 42
0.038866
  0
VERTEX
  8
0
 10
168.832372
 20
278.875441
 42
0.098139
  0
VERTEX
  8
0
 10
169.585737
 20
276.861274
 42
-0.088918
  0
VERTEX
  8
0
 10
169.715630
 20
276.532447
 42
-0.167739
  0
VERTEX
  8
0
 10
169.678086
 20
276.252999
 42
-0.177472
  0
VERTEX
  8
0
 10
169.479477
 20
276.066644
 42
-0.100913
  0
VERTEX
  8
0
 10
169.152637
 20
276.000000
 42
0.230584
  0
VERTEX
  8
0
 10
168.826866
 20
275.841329
 42
0.112121
  0
VERTEX
  8
0
 10
168.624459
 20
275.412500
 42
0.074735
  0
VERTEX
  8
0
 10
168.580120
 20
274.766183
 42
0.043798
  0
VERTEX
  8
0
 10
168.710251
 20
274.000000
 42
0.043617
  0
VERTEX
  8
0
 10
168.983514
 20
273.234705
 42
0.054461
  0
VERTEX
  8
0
 10
169.370546
 20
272.587500
 42
0.064564
  0
VERTEX
  8
0
 10
169.806257
 20
272.144155
 42
0.167833
  0
VERTEX
  8
0
 10
170.223620
 20
272.000000
 42
-0.183036
  0
VERTEX
  8
0
 10
170.551769
 20
271.875710
 42
-0.147574
  0
VERTEX
  8
0
 10
170.751420
 20
271.552712
 42
-0.100764
  0
VERTEX
  8
0
 10
170.780875
 20
271.060348
 42
-0.056387
  0
VERTEX
  8
0
 10
170.629670
 20
270.477319
 42
0.130985
  0
VERTEX
  8
0
 10
170.551488
 20
269.741964
 42
0.058918
  0
VERTEX
  8
0
 10
170.814603
 20
268.799575
 42
0.052174
  0
VERTEX
  8
0
 10
171.351195
 20
267.803706
 42
0.046766
  0
VERTEX
  8
0
 10
172.100000
 20
266.900000
 42
-0.040494
  0
VERTEX
  8
0
 10
172.849489
 20
266.018179
 42
-0.047077
  0
VERTEX
  8
0
 10
173.405142
 20
265.068584
 42
-0.053305
  0
VERTEX
  8
0
 10
173.704116
 20
264.192399
 42
-0.148255
  0
VERTEX
  8
0
 10
173.657801
 20
263.550628
 42
0.266612
  0
VERTEX
  8
0
 10
173.921470
 20
261.859808
 42
0.017044
  0
VERTEX
  8
0
 10
177.308762
 20
257.918005
 42
0.024851
  0
VERTEX
  8
0
 10
181.231133
 20
254.059907
 42
0.048508
  0
VERTEX
  8
0
 10
184.770977
 20
251.476216
 42
-0.016782
  0
VERTEX
  8
0
 10
186.007846
 20
250.688431
 42
-0.023562
  0
VERTEX
  8
0
 10
187.051474
 20
249.898677
 42
-0.021199
  0
VERTEX
  8
0
 10
187.829917
 20
249.191722
 42
-0.200393
  0
VERTEX
  8
0
 10
188.000000
 20
248.784392
 42
0.194732
  0
VERTEX
  8
0
 10
188.121286
 20
248.484783
 42
0.086987
  0
VERTEX
  8
0
 10
188.471658
 20
248.230415
 42
0.066856
  0
VERTEX
  8
0
 10
188.991105
 20
248.057751
 42
0.046884
  0
VERTEX
  8
0
 10
189.605644
 20
248.000000
 42
-0.098801
  0
VERTEX
  8
0
 10
190.418658
 20
247.837763
 42
-0.026513
  0
VERTEX
  8
0
 10
191.612385
 20
247.265625
 42
-0.025785
  0
VERTEX
  8
0
 10
192.927025
 20
246.456874
 42
-0.024113
  0
VERTEX
  8
0
 10
194.182369
 20
245.500000
 42
-0.009348
  0
VERTEX
  8
0
 10
195.280771
 20
244.540117
 42
-0.018731
  0
VERTEX
  8
0
 10
196.104511
 20
243.734375
 42
-0.021730
  0
VERTEX
  8
0
 10
196.621171
 20
243.139962
 42
-0.627952
  0
VERTEX
  8
0
 10
196.553672
 20
243.000000
 42
0.482819
  0
VERTEX
  8
0
 10
196.426611
 20
242.840008
 42
0.041323
  0
VERTEX
  8
0
 10
196.611260
 20
242.265625
 42
0.030778
  0
VERTEX
  8
0
 10
197.005802
 20
241.459538
 42
0.015833
  0
VERTEX
  8
0
 10
197.591957
 20
240.500000
 42
-0.010887
  0
VERTEX
  8
0
 10
198.194182
 20
239.535725
 42
-0.019312
  0
VERTEX
  8
0
 10
198.641617
 20
238.712546
 42
-0.015414
  0
VERTEX
  8
0
 10
198.937954
 20
238.063714
 42
-0.473093
  0
VERTEX
  8
0
 10
198.865010
 20
237.925690
 42
-0.004314
  0
VERTEX
  8
0
 10
198.618875
 20
237.877789
 42
-0.000256
  0
VERTEX
  8
0
 10
197.872847
 20
237.739667
 42
-0.000386
  0
VERTEX
  8
0
 10
196.984201
 20
237.576320
 42
-0.000284
  0
VERTEX
  8
0
 10
196.000000
 20
237.396771
 42
0.032630
  0
VERTEX
  8
0
 10
195.018614
 20
237.151282
 42
0.038980
  0
VERTEX
  8
0
 10
194.136458
 20
236.790448
 42
0.042858
  0
VERTEX
  8
0
 10
193.462988
 20
236.375818
 42
0.151805
  0
VERTEX
  8
0
 10
193.166667
 20
235.971081
 42
-0.115149
  0
VERTEX
  8
0
 10
192.933855
 20
235.599698
 42
-0.068849
  0
VERTEX
  8
0
 10
192.515104
 20
235.285255
 42
-0.063118
  0
VERTEX
  8
0
 10
191.983179
 20
235.072469
 42
-0.063702
  0
VERTEX
  8
0
 10
191.416667
 20
235.000000
 42
0.086757
  0
VERTEX
  8
0
 10
190.874553
 20
234.905223
 42
0.093140
  0
VERTEX
  8
0
 10
190.411648
 20
234.632812
 42
0.098871
  0
VERTEX
  8
0
 10
190.099163
 20
234.226876
 42
0.112140
  0
VERTEX
  8
0
 10
189.984687
 20
233.750000
 42
-0.053929
  0
VERTEX
  8
0
 10
189.914580
 20
233.168597
 42
-0.025888
  0
VERTEX
  8
0
 10
189.707009
 20
232.445451
 42
-0.025314
  0
VERTEX
  8
0
 10
189.409862
 20
231.705587
 42
-0.032924
  0
VERTEX
  8
0
 10
189.060903
 20
231.064302
 42
-0.050784
  0
VERTEX
  8
0
 10
188.519775
 20
230.375141
 42
-0.189171
  0
VERTEX
  8
0
 10
188.027586
 20
230.149567
 42
-0.156345
  0
VERTEX
  8
0
 10
187.450943
 20
230.299489
 42
-0.032057
  0
VERTEX
  8
0
 10
186.588950
 20
230.926178
 42
0.062521
  0
VERTEX
  8
0
 10
185.878592
 20
231.379338
 42
0.053538
  0
VERTEX
  8
0
 10
185.040376
 20
231.672070
 42
0.056066
  0
VERTEX
  8
0
 10
184.206730
 20
231.770055
 42
0.093117
  0
VERTEX
  8
0
 10
183.512735
 20
231.643260
 42
-0.048756
  0
VERTEX
  8
0
 10
182.933158
 20
231.483498
 42
-0.089163
  0
VERTEX
  8
0
 10
182.444366
 20
231.486585
 42
-0.138944
  0
VERTEX
  8
0
 10
182.123916
 20
231.645467
 42
-0.211676
  0
VERTEX
  8
0
 10
182.000000
 20
231.925055
 42
0.380925
  0
VERTEX
  8
0
 10
181.756771
 20
232.197989
 42
0.038771
  0
VERTEX
  8
0
 10
180.815134
 20
232.233292
 42
0.033189
  0
VERTEX
  8
0
 10
179.513272
 20
232.094271
 42
0.018962
  0
VERTEX
  8
0
 10
177.966415
 20
231.763507
 42
0.064252
  0
VERTEX
  8
0
 10
174.495735
 20
230.389714
 42
0.051804
  0
VERTEX
  8
0
 10
171.202610
 20
228.094222
 42
0.054974
  0
VERTEX
  8
0
 10
168.765048
 20
225.470832
 42
0.161087
  0
VERTEX
  8
0
 10
168.000000
 20
223.157807
 42
-0.040020
  0
VERTEX
  8
0
 10
167.934170
 20
222.336665
 42
-0.042821
  0
VERTEX
  8
0
 10
167.738382
 20
221.555528
 42
-0.046966
  0
VERTEX
  8
0
 10
167.451562
 20
220.921856
 42
-0.125229
  0
VERTEX
  8
0
 10
167.109384
 20
220.567603
 42
-0.353705
  0
VERTEX
  8
0
 10
166.193322
 20
220.683985
 42
-0.029883
  0
VERTEX
  8
0
 10
164.540172
 20
222.627908
 42
-0.034089
  0
VERTEX
  8
0
 10
163.084730
 20
224.864787
 42
-0.127861
  0
VERTEX
  8
0
 10
162.666667
 20
226.472890
 42
0.172335
  0
VERTEX
  8
0
 10
162.467150
 20
227.034561
 42
0.018724
  0
VERTEX
  8
0
 10
161.546852
 20
228.083684
 42
0.021207
  0
VERTEX
  8
0
 10
160.314604
 20
229.280631
 42
0.015582
  0
VERTEX
  8
0
 10
158.854533
 20
230.503707
 42
0.000000
  0
VERTEX
  8
0
 10
155.042400
 20
233.500000
 42
0.000000
  0
VERTEX
  8
0
 10
155.593102
 20
239.500000
 42
0.000273
  0
VERTEX
  8
0
 10
155.814381
 20
241.925456
 42
0.000310
  0
VERTEX
  8
0
 10
156.023860
 20
244.251563
 42
0.000282
  0
VERTEX
  8
0
 10
156.199536
 20
246.228506
 42
0.001721
  0
VERTEX
  8
0
 10
156.286187
 20
247.250000
 42
-0.030679
  0
VERTEX
  8
0
 10
156.382374
 20
247.920314
 42
-0.045890
  0
VERTEX
  8
0
 10
156.554603
 20
248.485938
 42
-0.056457
  0
VERTEX
  8
0
 10
156.770325
 20
248.880733
 42
-0.244164
  0
VERTEX
  8
0
 10
157.000000
 20
249.000000
 42
0.245176
  0
VERTEX
  8
0
 10
157.228932
 20
249.119436
 42
0.056825
  0
VERTEX
  8
0
 10
157.442235
 20
249.514062
 42
0.046062
  0
VERTEX
  8
0
 10
157.610991
 20
250.079679
 42
0.030715
  0
VERTEX
  8
0
 10
157.703050
 20
250.750000
 42
-0.019663
  0
VERTEX
  8
0
 10
157.898923
 20
252.454835
 42
-0.023077
  0
VERTEX
  8
0
 10
158.221861
 20
254.049110
 42
-0.025243
  0
VERTEX
  8
0
 10
158.645337
 20
255.435373
 42
-0.046659
  0
VERTEX
  8
0
 10
159.146806
 20
256.500000
 42
0.044952
  0
VERTEX
  8
0
 10
159.645908
 20
257.550301
 42
0.002651
  0
VERTEX
  8
0
 10
160.851868
 20
260.869851
 42
0.003966
  0
VERTEX
  8
0
 10
161.991452
 20
264.140952
 42
0.019904
  0
VERTEX
  8
0
 10
162.541147
 20
266.000000
 42
-0.028879
  0
VERTEX
  8
0
 10
162.642595
 20
266.321754
 42
-0.002154
  0
VERTEX
  8
0
 10
162.973019
 20
267.180061
 42
-0.002980
  0
VERTEX
  8
0
 10
163.377910
 20
268.200428
 42
-0.002259
  0
VERTEX
  8
0
 10
163.833794
 20
269.315100
 42
0.012905
  0
VERTEX
  8
0
 10
164.714094
 20
271.605493
 42
0.085386
  0
VERTEX
  8
0
 10
164.921658
 20
272.809105
 42
0.140594
  0
VERTEX
  8
0
 10
164.657670
 20
273.730812
 42
0.056835
  0
VERTEX
  8
0
 10
163.836039
 20
274.763961
 42
0.097188
  0
VERTEX
  8
0
 10
163.180638
 20
275.204338
 42
0.174145
  0
VERTEX
  8
0
 10
162.540797
 20
275.238301
 42
0.112331
  0
VERTEX
  8
0
 10
161.825382
 20
274.832922
 42
0.029283
  0
VERTEX
  8
0
 10
160.896891
 20
273.881115
 42
-0.021847
  0
VERTEX
  8
0
 10
159.738361
 20
272.657633
 42
-0.355286
  0
VERTEX
  8
0
 10
159.212501
 20
272.612181
 42
-0.173171
  0
VERTEX
  8
0
 10
158.793974
 20
273.184613
 42
-0.006337
  0
VERTEX
  8
0
 10
158.049995
 20
275.814331
 42
0.029969
  0
VERTEX
  8
0
 10
157.525510
 20
277.381497
 42
0.034472
  0
VERTEX
  8
0
 10
156.837047
 20
278.800227
 42
0.036882
  0
VERTEX
  8
0
 10
156.095542
 20
279.897118
 42
0.134864
  0
VERTEX
  8
0
 10
155.425761
 20
280.390115
 42
-0.069914
  0
VERTEX
  8
0
 10
154.878844
 20
280.693178
 42
-0.100176
  0
VERTEX
  8
0
 10
154.512120
 20
281.106695
 42
-0.123689
  0
VERTEX
  8
0
 10
154.381165
 20
281.562647
 42
-0.147846
  0
VERTEX
  8
0
 10
154.495635
 20
281.992937
 42
0.081847
  0
VERTEX
  8
0
 10
154.653933
 20
282.377772
 42
0.160356
  0
VERTEX
  8
0
 10
154.624118
 20
282.704175
 42
0.182842
  0
VERTEX
  8
0
 10
154.413498
 20
282.921043
 42
0.110022
  0
VERTEX
  8
0
 10
154.059017
 20
283.000000
 42
-0.140337
  0
VERTEX
  8
0
 10
153.655173
 20
283.115626
 42
-0.099915
  0
VERTEX
  8
0
 10
153.311086
 20
283.440625
 42
-0.085131
  0
VERTEX
  8
0
 10
153.079345
 20
283.926682
 42
-0.068870
  0
VERTEX
  8
0
 10
153.000000
 20
284.500000
 42
0.064853
  0
VERTEX
  8
0
 10
152.925306
 20
285.073457
 42
0.082425
  0
VERTEX
  8
0
 10
152.706250
 20
285.559375
 42
0.098894
  0
VERTEX
  8
0
 10
152.381354
 20
285.884432
 42
0.148195
  0
VERTEX
  8
0
 10
152.000000
 20
286.000000
 42
-0.076460
  0
VERTEX
  8
0
 10
151.633457
 20
286.056382
 42
-0.113570
  0
VERTEX
  8
0
 10
151.354580
 20
286.220312
 42
-0.136277
  0
VERTEX
  8
0
 10
151.207371
 20
286.464605
 42
-0.136038
  0
VERTEX
  8
0
 10
151.207080
 20
286.750000
 42
0.251182
  0
VERTEX
  8
0
 10
150.985572
 20
287.727755
 42
0.007552
  0
VERTEX
  8
0
 10
148.105175
 20
290.945899
 42
0.008473
  0
VERTEX
  8
0
 10
145.148179
 20
294.043851
 42
0.200558
  0
VERTEX
  8
0
 10
144.056719
 20
294.500000
 42
-0.144717
  0
VERTEX
  8
0
 10
143.646232
 20
294.621350
 42
-0.009151
  0
VERTEX
  8
0
 10
142.591928
 20
295.332126
 42
-0.012847
  0
VERTEX
  8
0
 10
141.355067
 20
296.247595
 42
-0.009161
  0
VERTEX
  8
0
 10
140.016372
 20
297.332770
 42
-0.018183
  0
VERTEX
  8
0
 10
138.545556
 20
298.664653
 42
-0.064131
  0
VERTEX
  8
0
 10
137.754683
 20
299.661925
 42
-0.141704
  0
VERTEX
  8
0
 10
137.560294
 20
300.390132
 42
-0.254423
  0
VERTEX
  8
0
 10
137.858778
 20
300.912720
 42
0.207404
  0
VERTEX
  8
0
 10
138.579110
 20
301.947290
 42
0.170637
  0
VERTEX
  8
0
 10
138.391338
 20
303.291281
 42
0.143748
  0
VERTEX
  8
0
 10
137.345461
 20
304.386466
 42
0.150642
  0
VERTEX
  8
0
 10
135.893503
 20
304.717025
 42
0.088256
  0
VERTEX
  8
0
 10
135.041539
 20
304.498355
 42
0.046044
  0
VERTEX
  8
0
 10
134.086847
 20
303.952596
 42
0.043865
  0
VERTEX
  8
0
 10
133.182224
 20
303.192161
 42
0.051061
  0
SEQEND
  0
ENDSEC
  0
EOF
