  0
SECTION
  2
HEADER
  9
$ACADVER
  1
AC1006
  9
$EXTMIN
 10
0.000000
 20
0.000000
 30
0.000000
  9
$EXTMAX
 10
595.000000
 20
619.000000
 30
0.000000
  0
ENDSEC
  0
SECTION
  2
ENTITIES
  0
POLYLINE
  8
0
 66
1
 70
1
  0
VERTEX
  8
0
 10
234.000000
 20
616.500000
 42
-0.033464
  0
VERTEX
  8
0
 10
233.560849
 20
615.543021
 42
-0.042913
  0
VERTEX
  8
0
 10
233.027690
 20
614.734375
 42
-0.048871
  0
VERTEX
  8
0
 10
232.483781
 20
614.169328
 42
-0.178560
  0
VERTEX
  8
0
 10
232.024751
 20
614.000000
 42
0.187270
  0
VERTEX
  8
0
 10
231.633497
 20
613.848134
 42
0.089436
  0
VERTEX
  8
0
 10
231.301021
 20
613.412500
 42
0.069261
  0
VERTEX
  8
0
 10
231.075593
 20
612.765358
 42
0.049264
  0
VERTEX
  8
0
 10
231.000000
 20
612.000000
 42
0.048028
  0
VERTEX
  8
0
 10
231.073693
 20
611.234582
 42
0.068025
  0
VERTEX
  8
0
 10
231.293750
 20
610.587500
 42
0.088204
  0
VERTEX
  8
0
 10
231.618118
 20
610.151477
 42
0.191087
  0
VERTEX
  8
0
 10
232.000000
 20
610.000000
 42
-0.131032
  0
VERTEX
  8
0
 10
232.381351
 20
609.898315
 42
-0.100633
  0
VERTEX
  8
0
 10
232.706250
 20
609.612349
 42
-0.088305
  0
VERTEX
  8
0
 10
232.924786
 20
609.184572
 42
-0.074172
  0
VERTEX
  8
0
 10
233.000000
 20
608.680335
 42
0.123354
  0
VERTEX
  8
0
 10
233.163198
 20
608.028901
 42
0.032564
  0
VERTEX
  8
0
 10
233.734375
 20
607.109792
 42
0.031006
  0
VERTEX
  8
0
 10
234.543134
 20
606.116062
 42
0.027499
  0
VERTEX
  8
0
 10
235.500000
 20
605.186949
 42
-0.040241
  0
VERTEX
  8
0
 10
236.456599
 20
604.209577
 42
-0.037896
  0
VERTEX
  8
0
 10
237.265625
 20
603.072650
 42
-0.040234
  0
VERTEX
  8
0
 10
237.824096
 20
601.951883
 42
-0.095755
  0
VERTEX
  8
0
 10
238.000000
 20
601.041797
 42
0.148608
  0
VERTEX
  8
0
 10
238.461743
 20
599.522551
 42
0.095756
  0
VERTEX
  8
0
 10
239.767035
 20
598.205842
 42
0.081356
  0
VERTEX
  8
0
 10
241.692660
 20
597.307589
 42
0.068636
  0
VERTEX
  8
0
 10
243.922828
 20
597.000000
 42
-0.109754
  0
VERTEX
  8
0
 10
245.933715
 20
596.553213
 42
-0.069004
  0
VERTEX
  8
0
 10
247.962303
 20
595.238441
 42
-0.071217
  0
VERTEX
  8
0
 10
249.487348
 20
593.484694
 42
-0.144382
  0
VERTEX
  8
0
 10
250.000000
 20
591.746374
 42
0.067705
  0
VERTEX
  8
0
 10
250.099272
 20
591.016610
 42
0.062618
  0
VERTEX
  8
0
 10
250.390596
 20
590.318781
 42
0.066657
  0
VERTEX
  8
0
 10
250.821173
 20
589.756675
 42
0.104782
  0
VERTEX
  8
0
 10
251.329690
 20
589.426981
 42
-0.122332
  0
VERTEX
  8
0
 10
251.931019
 20
589.006823
 42
-0.030603
  0
VERTEX
  8
0
 10
252.667389
 20
588.050722
 42
-0.029421
  0
VERTEX
  8
0
 10
253.399129
 20
586.819631
 42
-0.025892
  0
VERTEX
  8
0
 10
254.016336
 20
585.458365
 42
0.029586
  0
VERTEX
  8
0
 10
254.628507
 20
584.134284
 42
0.039078
  0
VERTEX
  8
0
 10
255.345888
 20
583.015895
 42
0.043559
  0
VERTEX
  8
0
 10
256.060307
 20
582.226392
 42
0.189267
  0
VERTEX
  8
0
 10
256.636956
 20
582.000000
 42
-0.090842
  0
VERTEX
  8
0
 10
257.179428
 20
581.900622
 42
-0.054590
  0
VERTEX
  8
0
 10
257.764328
 20
581.602449
 42
-0.052298
  0
VERTEX
  8
0
 10
258.300637
 20
581.164288
 42
-0.061975
  0
VERTEX
  8
0
 10
258.700310
 20
580.646633
 42
0.053890
  0
VERTEX
  8
0
 10
259.112634
 20
580.094420
 42
0.035713
  0
VERTEX
  8
0
 10
259.691836
 20
579.554455
 42
0.035838
  0
VERTEX
  8
0
 10
260.338027
 20
579.105398
 42
0.056656
  0
VERTEX
  8
0
 10
260.952748
 20
578.829051
 42
-0.192612
  0
VERTEX
  8
0
 10
261.632104
 20
578.268524
 42
-0.065048
  0
VERTEX
  8
0
 10
262.105377
 20
577.050013
 42
-0.040408
  0
VERTEX
  8
0
 10
262.415563
 20
575.125279
 42
-0.013133
  0
VERTEX
  8
0
 10
262.567568
 20
572.246169
 42
0.016315
  0
VERTEX
  8
0
 10
262.738721
 20
569.353969
 42
0.035967
  0
VERTEX
  8
0
 10
263.099073
 20
567.171536
 42
0.048074
  0
VERTEX
  8
0
 10
263.658165
 20
565.547834
 42
0.089666
  0
VERTEX
  8
0
 10
264.448569
 20
564.408574
 42
-0.059981
  0
VERTEX
  8
0
 10
265.970052
 20
562.470588
 42
-0.050964
  0
VERTEX
  8
0
 10
267.087986
 20
560.119913
 42
-0.047268
  0
VERTEX
  8
0
 10
267.771160
 20
557.417514
 42
-0.038306
  0
VERTEX
  8
0
 10
268.000000
 20
554.434900
 42
0.027547
  0
VERTEX
  8
0
 10
268.072566
 20
553.118767
 42
0.043312
  0
VERTEX
  8
0
 10
268.293750
 20
552.009002
 42
0.053554
  0
VERTEX
  8
0
 10
268.614496
 20
551.229379
 42
0.275005
  0
VERTEX
  8
0
 10
269.000000
 20
551.000000
 42
-0.254951
  0
VERTEX
  8
0
 10
269.384262
 20
550.790443
 42
-0.062710
  0
VERTEX
  8
0
 10
269.706250
 20
550.118750
 42
-0.048861
  0
VERTEX
  8
0
 10
269.927234
 20
549.149251
 42
-0.031626
  0
VERTEX
  8
0
 10
270.000000
 20
548.000000
 42
0.031626
  0
VERTEX
  8
0
 10
270.072766
 20
546.850749
 42
0.048861
  0
VERTEX
  8
0
 10
270.293750
 20
545.881250
 42
0.062710
  0
VERTEX
  8
0
 10
270.615738
 20
545.209557
 42
0.254951
  0
VERTEX
  8
0
 10
271.000000
 20
545.000000
 42
-0.191087
  0
VERTEX
  8
0
 10
271.381882
 20
544.848523
 42
-0.088204
  0
VERTEX
  8
0
 10
271.706250
 20
544.412500
 42
-0.068025
  0
VERTEX
  8
0
 10
271.926307
 20
543.765418
 42
-0.048028
  0
VERTEX
  8
0
 10
272.000000
 20
543.000000
 42
0.042500
  0
VERTEX
  8
0
 10
272.065201
 20
542.234318
 42
0.062142
  0
VERTEX
  8
0
 10
272.261058
 20
541.587500
 42
0.081598
  0
VERTEX
  8
0
 10
272.548900
 20
541.149103
 42
0.209741
  0
VERTEX
  8
0
 10
272.888709
 20
541.000000
 42
-0.255886
  0
VERTEX
  8
0
 10
273.272979
 20
540.789562
 42
-0.037769
  0
VERTEX
  8
0
 10
273.707466
 20
539.981318
 42
-0.034823
  0
VERTEX
  8
0
 10
274.114141
 20
538.860719
 42
-0.023271
  0
VERTEX
  8
0
 10
274.427992
 20
537.532146
 42
0.031931
  0
VERTEX
  8
0
 10
274.796302
 20
536.085414
 42
0.026728
  0
VERTEX
  8
0
 10
275.364185
 20
534.606248
 42
0.027569
  0
VERTEX
  8
0
 10
276.032400
 20
533.307345
 42
0.063871
  0
VERTEX
  8
0
 10
276.701462
 20
532.441395
 42
-0.025622
  0
VERTEX
  8
0
 10
277.498286
 20
531.558436
 42
-0.141821
  0
VERTEX
  8
0
 10
277.745524
 20
530.975566
 42
-0.217897
  0
VERTEX
  8
0
 10
277.590580
 20
530.491325
 42
-0.069726
  0
VERTEX
  8
0
 10
276.994765
 20
529.996765
 42
0.190047
  0
VERTEX
  8
0
 10
276.366218
 20
529.155386
 42
0.038552
  0
VERTEX
  8
0
 10
276.009662
 20
527.290617
 42
0.025966
  0
VERTEX
  8
0
 10
275.837110
 20
524.415301
 42
0.007521
  0
VERTEX
  8
0
 10
275.868339
 20
519.968857
 42
0.006672
  0
VERTEX
  8
0
 10
276.053341
 20
514.746380
 42
0.040217
  0
VERTEX
  8
0
 10
276.402631
 20
512.056798
 42
0.080132
  0
VERTEX
  8
0
 10
277.057387
 20
510.365975
 42
0.090435
  0
VERTEX
  8
0
 10
278.191098
 20
509.046342
 42
-0.040575
  0
VERTEX
  8
0
 10
279.317597
 20
507.971872
 42
-0.135456
  0
VERTEX
  8
0
 10
279.765809
 20
507.064147
 42
-0.109636
  0
VERTEX
  8
0
 10
279.733247
 20
505.942358
 42
-0.022007
  0
VERTEX
  8
0
 10
279.155345
 20
504.015777
 42
0.057674
  0
VERTEX
  8
0
 10
278.177193
 20
499.645860
 42
0.071192
  0
VERTEX
  8
0
 10
278.332104
 20
495.478780
 42
0.082251
  0
VERTEX
  8
0
 10
279.569032
 20
492.019869
 42
0.124155
  0
VERTEX
  8
0
 10
281.750000
 20
489.700310
 42
-0.204488
  0
VERTEX
  8
0
 10
282.754684
 20
488.226223
 42
-0.056260
  0
VERTEX
  8
0
 10
282.990921
 20
485.366803
 42
-0.056671
  0
VERTEX
  8
0
 10
282.588720
 20
482.577206
 42
-0.241533
  0
VERTEX
  8
0
 10
281.500000
 20
481.361626
 42
0.201479
  0
VERTEX
  8
0
 10
280.502747
 20
480.406085
 42
0.081879
  0
VERTEX
  8
0
 10
280.036276
 20
478.546123
 42
0.086165
  0
VERTEX
  8
0
 10
280.200894
 20
476.713183
 42
0.252034
  0
VERTEX
  8
0
 10
281.042624
 20
475.819125
 42
-0.272657
  0
VERTEX
  8
0
 10
282.067738
 20
474.642454
 42
-0.011257
  0
VERTEX
  8
0
 10
283.004981
 20
468.899986
 42
-0.019067
  0
VERTEX
  8
0
 10
283.592146
 20
463.114492
 42
-0.060730
  0
VERTEX
  8
0
 10
283.366211
 20
459.243326
 42
0.050690
  0
VERTEX
  8
0
 10
283.069141
 20
455.457795
 42
0.038625
  0
VERTEX
  8
0
 10
283.485317
 20
451.317835
 42
0.035957
  0
VERTEX
  8
0
 10
284.364895
 20
447.862829
 42
0.322983
  0
VERTEX
  8
0
 10
285.561273
 20
447.000000
 42
-0.168088
  0
VERTEX
  8
0
 10
286.583610
 20
446.646323
 42
-0.185793
  0
VERTEX
  8
0
 10
287.117047
 20
445.750893
 42
-0.035690
  0
VERTEX
  8
0
 10
287.329103
 20
443.605685
 42
-0.001347
  0
VERTEX
  8
0
 10
287.526575
 20
435.542734
 42
0.008110
  0
VERTEX
  8
0
 10
287.688677
 20
431.280138
 42
0.018808
  0
VERTEX
  8
0
 10
287.982142
 20
428.093820
 42
0.017103
  0
VERTEX
  8
0
 10
288.363403
 20
425.785031
 42
0.269018
  0
VERTEX
  8
0
 10
288.871797
 20
425.209401
 42
-0.154094
  0
VERTEX
  8
0
 10
289.304377
 20
424.895633
 42
-0.061597
  0
VERTEX
  8
0
 10
289.668590
 20
424.251244
 42
-0.053150
  0
VERTEX
  8
0
 10
289.916552
 20
423.405534
 42
-0.044782
  0
VERTEX
  8
0
 10
290.000000
 20
422.475684
 42
0.038918
  0
VERTEX
  8
0
 10
290.073882
 20
421.527908
 42
0.042177
  0
VERTEX
  8
0
 10
290.293750
 20
420.629046
 42
0.046287
  0
VERTEX
  8
0
 10
290.615662
 20
419.901776
 42
0.127689
  0
VERTEX
  8
0
 10
291.000000
 20
419.500000
 42
-0.111412
  0
VERTEX
  8
0
 10
291.383556
 20
419.123976
 42
-0.050262
  0
VERTEX
  8
0
 10
291.706250
 20
418.493350
 42
-0.046318
  0
VERTEX
  8
0
 10
291.925923
 20
417.729296
 42
-0.046881
  0
VERTEX
  8
0
 10
292.000000
 20
416.940983
 42
0.049547
  0
VERTEX
  8
0
 10
292.073784
 20
416.198222
 42
0.069539
  0
VERTEX
  8
0
 10
292.293750
 20
415.570164
 42
0.089706
  0
VERTEX
  8
0
 10
292.618213
 20
415.147465
 42
0.186414
  0
VERTEX
  8
0
 10
293.000000
 20
415.000000
 42
-0.277684
  0
VERTEX
  8
0
 10
293.385692
 20
414.767902
 42
-0.052312
  0
VERTEX
  8
0
 10
293.706250
 20
413.971875
 42
-0.042582
  0
VERTEX
  8
0
 10
293.927458
 20
412.841111
 42
-0.027026
  0
VERTEX
  8
0
 10
294.000000
 20
411.500000
 42
-0.028993
  0
VERTEX
  8
0
 10
293.922177
 20
410.159021
 42
-0.045312
  0
VERTEX
  8
0
 10
293.685268
 20
409.028125
 42
-0.056917
  0
VERTEX
  8
0
 10
293.341092
 20
408.237924
 42
-0.267711
  0
VERTEX
  8
0
 10
292.928571
 20
408.000000
 42
0.268253
  0
VERTEX
  8
0
 10
292.673832
 20
407.852734
 42
0.213175
  0
VERTEX
  8
0
 10
292.640779
 20
407.531096
 42
0.085249
  0
VERTEX
  8
0
 10
292.913088
 20
407.017785
 42
0.031902
  0
VERTEX
  8
0
 10
293.453413
 20
406.403729
 42
-0.081028
  0
VERTEX
  8
0
 10
294.061931
 20
405.557982
 42
-0.043391
  0
VERTEX
  8
0
 10
294.534798
 20
404.357611
 42
-0.041169
  0
VERTEX
  8
0
 10
294.819735
 20
402.995726
 42
-0.045777
  0
VERTEX
  8
0
 10
294.863318
 20
401.653729
 42
0.037976
  0
VERTEX
  8
0
 10
294.919575
 20
398.323338
 42
0.042457
  0
VERTEX
  8
0
 10
295.486649
 20
395.165258
 42
0.046141
  0
VERTEX
  8
0
 10
296.407582
 20
392.679074
 42
0.191652
  0
VERTEX
  8
0
 10
297.561107
 20
391.614925
 42
-0.084199
  0
VERTEX
  8
0
 10
298.111167
 20
391.289368
 42
-0.066095
  0
VERTEX
  8
0
 10
298.577325
 20
390.775121
 42
-0.066209
  0
VERTEX
  8
0
 10
298.892443
 20
390.158079
 42
-0.085190
  0
VERTEX
  8
0
 10
299.000000
 20
389.531385
 42
0.096942
  0
VERTEX
  8
0
 10
299.114397
 20
388.946902
 42
0.097427
  0
VERTEX
  8
0
 10
299.440625
 20
388.449844
 42
0.098422
  0
VERTEX
  8
0
 10
299.927588
 20
388.117025
 42
0.101174
  0
VERTEX
  8
0
 10
300.500000
 20
388.000000
 42
-0.099038
  0
VERTEX
  8
0
 10
301.072457
 20
387.885486
 42
-0.097945
  0
VERTEX
  8
0
 10
301.559375
 20
387.559375
 42
-0.097945
  0
VERTEX
  8
0
 10
301.885486
 20
387.072457
 42
-0.099038
  0
VERTEX
  8
0
 10
302.000000
 20
386.500000
 42
-0.151261
  0
VERTEX
  8
0
 10
301.799609
 20
385.852754
 42
-0.126143
  0
VERTEX
  8
0
 10
301.255864
 20
385.376483
 42
-0.082960
  0
VERTEX
  8
0
 10
300.337525
 20
385.089546
 42
-0.034338
  0
VERTEX
  8
0
 10
299.035184
 20
385.000000
 42
0.047302
  0
VERTEX
  8
0
 10
297.674219
 20
384.870958
 42
0.069729
  0
VERTEX
  8
0
 10
296.539657
 20
384.484495
 42
0.077305
  0
VERTEX
  8
0
 10
295.640203
 20
383.839870
 42
0.075961
  0
VERTEX
  8
0
 10
294.972695
 20
382.948981
 42
-0.036641
  0
VERTEX
  8
0
 10
294.353394
 20
381.971303
 42
-0.013547
  0
VERTEX
  8
0
 10
293.346527
 20
380.687246
 42
-0.013341
  0
VERTEX
  8
0
 10
292.167766
 20
379.339906
 42
-0.015658
  0
VERTEX
  8
0
 10
290.978214
 20
378.129615
 42
0.042531
  0
VERTEX
  8
0
 10
289.691354
 20
376.671407
 42
0.041022
  0
VERTEX
  8
0
 10
288.652296
 20
374.999439
 42
0.040386
  0
VERTEX
  8
0
 10
287.886617
 20
373.154180
 42
0.038527
  0
VERTEX
  8
0
 10
287.412894
 20
371.180634
 42
-0.026973
  0
VERTEX
  8
0
 10
287.063928
 20
369.563208
 42
-0.041249
  0
VERTEX
  8
0
 10
286.573697
 20
368.215534
 42
-0.048979
  0
VERTEX
  8
0
 10
286.021872
 20
367.272015
 42
-0.240404
  0
VERTEX
  8
0
 10
285.488823
 20
367.000000
 42
0.140008
  0
VERTEX
  8
0
 10
284.969760
 20
366.851748
 42
0.072004
  0
VERTEX
  8
0
 10
284.448449
 20
366.412500
 42
0.062602
  0
VERTEX
  8
0
 10
284.003647
 20
365.764870
 42
0.055307
  0
VERTEX
  8
0
 10
283.710251
 20
365.000000
 42
-0.173260
  0
VERTEX
  8
0
 10
282.792697
 20
363.655621
 42
-0.134701
  0
VERTEX
  8
0
 10
281.124630
 20
363.025848
 42
-0.139520
  0
VERTEX
  8
0
 10
279.412297
 20
363.344592
 42
-0.187942
  0
VERTEX
  8
0
 10
278.361626
 20
364.500000
 42
0.144074
  0
VERTEX
  8
0
 10
277.878031
 20
365.132735
 42
0.071920
  0
VERTEX
  8
0
 10
276.980063
 20
365.609899
 42
0.054712
  0
VERTEX
  8
0
 10
275.719786
 20
365.912346
 42
0.030513
  0
VERTEX
  8
0
 10
274.143011
 20
366.015313
 42
-0.032520
  0
VERTEX
  8
0
 10
271.087926
 20
366.227127
 42
-0.131527
  0
VERTEX
  8
0
 10
269.380198
 20
366.940685
 42
-0.145675
  0
VERTEX
  8
0
 10
268.353535
 20
368.366256
 42
-0.043139
  0
VERTEX
  8
0
 10
267.684954
 20
371.000000
 42
0.016137
  0
VERTEX
  8
0
 10
266.816704
 20
375.404169
 42
0.016354
  0
VERTEX
  8
0
 10
265.669454
 20
379.723371
 42
0.008483
  0
VERTEX
  8
0
 10
264.460563
 20
383.506524
 42
0.321579
  0
VERTEX
  8
0
 10
263.772640
 20
384.000000
 42
-0.180488
  0
VERTEX
  8
0
 10
263.477739
 20
384.110036
 42
-0.091510
  0
VERTEX
  8
0
 10
263.226963
 20
384.423968
 42
-0.071481
  0
VERTEX
  8
0
 10
263.057102
 20
384.891057
 42
-0.051563
  0
VERTEX
  8
0
 10
263.000000
 20
385.443296
 42
0.099484
  0
VERTEX
  8
0
 10
262.869949
 20
386.090454
 42
0.046774
  0
VERTEX
  8
0
 10
262.466593
 20
386.846468
 42
0.043816
  0
VERTEX
  8
0
 10
261.878854
 20
387.586553
 42
0.047108
  0
VERTEX
  8
0
 10
261.184146
 20
388.193296
 42
-0.039076
  0
VERTEX
  8
0
 10
260.441048
 20
388.821587
 42
-0.027869
  0
VERTEX
  8
0
 10
259.709951
 20
389.630218
 42
-0.028300
  0
VERTEX
  8
0
 10
259.095986
 20
390.485191
 42
-0.052340
  0
VERTEX
  8
0
 10
258.715531
 20
391.250000
 42
0.067062
  0
VERTEX
  8
0
 10
258.357852
 20
391.919054
 42
0.062927
  0
VERTEX
  8
0
 10
257.829153
 20
392.485937
 42
0.067306
  0
VERTEX
  8
0
 10
257.217052
 20
392.869812
 42
0.106836
  0
VERTEX
  8
0
 10
256.614718
 20
393.000000
 42
-0.148510
  0
VERTEX
  8
0
 10
255.498518
 20
393.339012
 42
-0.175625
  0
VERTEX
  8
0
 10
254.849087
 20
394.223465
 42
-0.080015
  0
VERTEX
  8
0
 10
254.632681
 20
395.932327
 42
-0.015340
  0
VERTEX
  8
0
 10
254.834488
 20
399.061642
 42
-0.026696
  0
VERTEX
  8
0
 10
255.073611
 20
400.660510
 42
-0.049497
  0
VERTEX
  8
0
 10
255.461975
 20
401.912651
 42
-0.067938
  0
VERTEX
  8
0
 10
255.949873
 20
402.735270
 42
-0.228822
  0
VERTEX
  8
0
 10
256.498047
 20
403.000000
 42
0.198508
  0
VERTEX
  8
0
 10
257.572127
 20
403.443921
 42
0.106320
  0
VERTEX
  8
0
 10
258.365804
 20
404.668355
 42
0.064976
  0
VERTEX
  8
0
 10
258.850807
 20
406.707630
 42
0.025937
  0
VERTEX
  8
0
 10
259.000000
 20
409.581787
 42
-0.024064
  0
VERTEX
  8
0
 10
259.063081
 20
410.891743
 42
-0.038347
  0
VERTEX
  8
0
 10
259.255906
 20
411.995900
 42
-0.045002
  0
VERTEX
  8
0
 10
259.534105
 20
412.783628
 42
-0.293345
  0
VERTEX
  8
0
 10
259.871169
 20
413.000000
 42
0.303678
  0
VERTEX
  8
0
 10
260.245977
 20
413.250768
 42
0.023092
  0
VERTEX
  8
0
 10
260.679608
 20
414.456224
 42
0.025605
  0
VERTEX
  8
0
 10
261.084922
 20
416.057345
 42
0.016215
  0
VERTEX
  8
0
 10
261.399955
 20
417.957357
 42
-0.021404
  0
VERTEX
  8
0
 10
261.752665
 20
419.955879
 42
-0.023240
  0
VERTEX
  8
0
 10
262.267795
 20
421.861889
 42
-0.023547
  0
VERTEX
  8
0
 10
262.857848
 20
423.441388
 42
-0.095488
  0
VERTEX
  8
0
 10
263.430842
 20
424.287985
 42
0.145721
  0
VERTEX
  8
0
 10
264.404036
 20
426.086497
 42
0.015169
  0
VERTEX
  8
0
 10
265.255545
 20
430.867611
 42
0.015764
  0
VERTEX
  8
0
 10
265.991865
 20
437.276509
 42
0.007662
  0
VERTEX
  8
0
 10
266.548125
 20
445.500000
 42
0.013325
  0
VERTEX
  8
0
 10
266.672365
 20
450.358077
 42
0.066527
  0
VERTEX
  8
0
 10
266.309171
 20
453.053511
 42
0.150353
  0
VERTEX
  8
0
 10
265.417658
 20
454.458998
 42
0.178630
  0
VERTEX
  8
0
 10
263.951664
 20
455.000000
 42
-0.103536
  0
VERTEX
  8
0
 10
263.083339
 20
455.181754
 42
-0.101178
  0
VERTEX
  8
0
 10
262.352617
 20
455.697206
 42
-0.082645
  0
VERTEX
  8
0
 10
261.776959
 20
456.557207
 42
-0.046267
  0
VERTEX
  8
0
 10
261.365080
 20
457.750000
 42
0.028211
  0
VERTEX
  8
0
 10
261.026753
 20
458.857727
 42
0.028798
  0
VERTEX
  8
0
 10
260.567798
 20
459.912500
 42
0.030064
  0
VERTEX
  8
0
 10
260.063525
 20
460.776911
 42
0.095912
  0
VERTEX
  8
0
 10
259.596028
 20
461.250000
 42
-0.096183
  0
VERTEX
  8
0
 10
259.204871
 20
461.646260
 42
-0.206359
  0
VERTEX
  8
0
 10
259.129413
 20
462.060613
 42
-0.146401
  0
VERTEX
  8
0
 10
259.382918
 20
462.505841
 42
-0.043641
  0
VERTEX
  8
0
 10
260.000000
 20
463.000000
 42
0.028427
  0
VERTEX
  8
0
 10
260.766488
 20
463.576473
 42
0.205124
  0
VERTEX
  8
0
 10
260.968866
 20
463.980387
 42
0.232217
  0
VERTEX
  8
0
 10
260.804289
 20
464.373478
 42
0.036407
  0
VERTEX
  8
0
 10
260.113449
 20
464.893410
 42
-0.144458
  0
VERTEX
  8
0
 10
259.546343
 20
465.551226
 42
-0.029627
  0
VERTEX
  8
0
 10
258.992475
 20
466.999323
 42
-0.028911
  0
VERTEX
  8
0
 10
258.530905
 20
468.820112
 42
-0.023672
  0
VERTEX
  8
0
 10
258.244436
 20
470.807901
 42
0.017142
  0
VERTEX
  8
0
 10
257.917594
 20
473.306457
 42
0.060236
  0
VERTEX
  8
0
 10
257.462880
 20
474.860351
 42
0.101318
  0
VERTEX
  8
0
 10
256.807651
 20
475.803948
 42
0.127209
  0
VERTEX
  8
0
 10
255.880987
 20
476.320872
 42
-0.102953
  0
VERTEX
  8
0
 10
254.996829
 20
476.759985
 42
-0.118850
  0
VERTEX
  8
0
 10
254.415076
 20
477.497217
 42
-0.080905
  0
VERTEX
  8
0
 10
254.095280
 20
478.652661
 42
-0.027145
  0
VERTEX
  8
0
 10
254.000000
 20
480.406380
 42
0.025007
  0
VERTEX
  8
0
 10
253.919091
 20
482.023116
 42
0.069949
  0
VERTEX
  8
0
 10
253.650336
 20
483.122890
 42
0.118740
  0
VERTEX
  8
0
 10
253.197193
 20
483.763405
 42
0.181635
  0
VERTEX
  8
0
 10
252.567388
 20
484.000000
 42
-0.117184
  0
VERTEX
  8
0
 10
251.974905
 20
484.140792
 42
-0.070711
  0
VERTEX
  8
0
 10
251.379450
 20
484.555016
 42
-0.064554
  0
VERTEX
  8
0
 10
250.871331
 20
485.167062
 42
-0.064244
  0
VERTEX
  8
0
 10
250.535098
 20
485.889416
 42
0.123984
  0
VERTEX
  8
0
 10
249.993004
 20
486.765630
 42
0.058420
  0
VERTEX
  8
0
 10
248.929187
 20
487.579971
 42
0.046065
  0
VERTEX
  8
0
 10
247.408814
 20
488.304235
 42
0.026463
  0
VERTEX
  8
0
 10
245.467710
 20
488.903814
 42
-0.023808
  0
VERTEX
  8
0
 10
243.598685
 20
489.470280
 42
-0.046765
  0
VERTEX
  8
0
 10
242.191149
 20
490.124942
 42
-0.063807
  0
VERTEX
  8
0
 10
241.288183
 20
490.820335
 42
-0.199355
  0
VERTEX
  8
0
 10
241.000000
 20
491.514398
 42
0.065511
  0
VERTEX
  8
0
 10
240.925268
 20
492.082327
 42
0.082887
  0
VERTEX
  8
0
 10
240.706250
 20
492.563604
 42
0.099094
  0
VERTEX
  8
0
 10
240.381350
 20
492.885525
 42
0.146855
  0
VERTEX
  8
0
 10
240.000000
 20
493.000000
 42
-0.148195
  0
VERTEX
  8
0
 10
239.618646
 20
493.115568
 42
-0.098894
  0
VERTEX
  8
0
 10
239.293750
 20
493.440625
 42
-0.082425
  0
VERTEX
  8
0
 10
239.074694
 20
493.926543
 42
-0.064853
  0
VERTEX
  8
0
 10
239.000000
 20
494.500000
 42
-0.064853
  0
VERTEX
  8
0
 10
239.074694
 20
495.073457
 42
-0.082425
  0
VERTEX
  8
0
 10
239.293750
 20
495.559375
 42
-0.098894
  0
VERTEX
  8
0
 10
239.618646
 20
495.884432
 42
-0.148195
  0
VERTEX
  8
0
 10
240.000000
 20
496.000000
 42
0.331944
  0
VERTEX
  8
0
 10
240.833522
 20
496.621889
 42
0.113976
  0
VERTEX
  8
0
 10
240.932371
 20
498.218707
 42
0.076625
  0
VERTEX
  8
0
 10
240.257118
 20
500.269386
 42
0.078749
  0
VERTEX
  8
0
 10
239.000000
 20
502.000000
 42
0.059585
  0
VERTEX
  8
0
 10
237.385376
 20
503.269676
 42
0.087710
  0
VERTEX
  8
0
 10
235.708539
 20
503.924629
 42
0.156733
  0
VERTEX
  8
0
 10
234.508462
 20
503.787782
 42
0.294691
  0
VERTEX
  8
0
 10
234.000000
 20
503.000000
 42
-0.148195
  0
VERTEX
  8
0
 10
233.884432
 20
502.618646
 42
-0.098894
  0
VERTEX
  8
0
 10
233.559375
 20
502.293750
 42
-0.082425
  0
VERTEX
  8
0
 10
233.073457
 20
502.074694
 42
-0.064853
  0
VERTEX
  8
0
 10
232.500000
 20
502.000000
 42
0.127982
  0
VERTEX
  8
0
 10
231.927957
 20
501.851140
 42
0.100741
  0
VERTEX
  8
0
 10
231.440625
 20
501.432295
 42
0.089331
  0
VERTEX
  8
0
 10
231.112972
 20
500.805749
 42
0.076059
  0
VERTEX
  8
0
 10
231.000000
 20
500.067388
 42
-0.098272
  0
VERTEX
  8
0
 10
230.837658
 20
499.249380
 42
-0.078054
  0
VERTEX
  8
0
 10
230.367778
 20
498.478879
 42
-0.072760
  0
VERTEX
  8
0
 10
229.647325
 20
497.844284
 42
-0.067484
  0
VERTEX
  8
0
 10
228.757118
 20
497.422912
 42
0.049472
  0
VERTEX
  8
0
 10
227.703277
 20
496.969640
 42
0.019782
  0
VERTEX
  8
0
 10
226.358019
 20
496.154786
 42
0.019347
  0
VERTEX
  8
0
 10
224.966378
 20
495.155250
 42
0.023108
  0
VERTEX
  8
0
 10
223.739550
 20
494.105525
 42
0.029419
  0
VERTEX
  8
0
 10
222.350009
 20
492.637703
 42
0.082160
  0
VERTEX
  8
0
 10
221.629227
 20
491.422161
 42
0.094408
  0
VERTEX
  8
0
 10
221.392243
 20
490.141838
 42
0.047453
  0
VERTEX
  8
0
 10
221.557088
 20
488.500000
 42
0.012068
  0
VERTEX
  8
0
 10
222.495992
 20
484.282263
 42
0.136595
  0
VERTEX
  8
0
 10
223.330100
 20
482.807321
 42
0.175080
  0
VERTEX
  8
0
 10
224.728298
 20
482.152558
 42
0.022832
  0
VERTEX
  8
0
 10
228.067388
 20
482.000000
 42
0.000000
  0
VERTEX
  8
0
 10
233.000000
 20
482.000000
 42
0.000000
  0
VERTEX
  8
0
 10
233.000000
 20
478.625000
 42
0.024648
  0
VERTEX
  8
0
 10
233.180409
 20
474.967475
 42
0.038042
  0
VERTEX
  8
0
 10
233.730119
 20
471.851467
 42
0.043827
  0
VERTEX
  8
0
 10
234.518827
 20
469.609436
 42
0.294316
  0
VERTEX
  8
0
 10
235.464485
 20
469.000000
 42
-0.154796
  0
VERTEX
  8
0
 10
236.010347
 20
468.826857
 42
-0.050355
  0
VERTEX
  8
0
 10
236.656819
 20
468.265625
 42
-0.044590
  0
VERTEX
  8
0
 10
237.292575
 20
467.456723
 42
-0.037384
  0
VERTEX
  8
0
 10
237.818046
 20
466.500000
 42
0.031507
  0
VERTEX
  8
0
 10
238.329133
 20
465.543009
 42
0.039814
  0
VERTEX
  8
0
 10
238.922566
 20
464.734375
 42
0.044326
  0
VERTEX
  8
0
 10
239.508889
 20
464.166384
 42
0.171894
  0
VERTEX
  8
0
 10
239.978561
 20
464.000000
 42
-0.307983
  0
VERTEX
  8
0
 10
240.375141
 20
463.730122
 42
-0.038152
  0
VERTEX
  8
0
 10
240.699952
 20
462.678125
 42
-0.034418
  0
VERTEX
  8
0
 10
240.926150
 20
461.224725
 42
-0.021399
  0
VERTEX
  8
0
 10
241.000000
 20
459.500000
 42
0.020945
  0
VERTEX
  8
0
 10
241.072283
 20
457.775243
 42
0.033738
  0
VERTEX
  8
0
 10
241.293750
 20
456.321875
 42
0.036969
  0
VERTEX
  8
0
 10
241.611488
 20
455.267028
 42
0.310520
  0
VERTEX
  8
0
 10
242.000000
 20
455.000000
 42
-0.191087
  0
VERTEX
  8
0
 10
242.381882
 20
454.848523
 42
-0.088204
  0
VERTEX
  8
0
 10
242.706250
 20
454.412500
 42
-0.068025
  0
VERTEX
  8
0
 10
242.926307
 20
453.765418
 42
-0.048028
  0
VERTEX
  8
0
 10
243.000000
 20
453.000000
 42
0.048028
  0
VERTEX
  8
0
 10
243.073693
 20
452.234582
 42
0.068025
  0
VERTEX
  8
0
 10
243.293750
 20
451.587500
 42
0.088204
  0
VERTEX
  8
0
 10
243.618118
 20
451.151477
 42
0.191087
  0
VERTEX
  8
0
 10
244.000000
 20
451.000000
 42
-0.148195
  0
VERTEX
  8
0
 10
244.381354
 20
450.884432
 42
-0.098894
  0
VERTEX
  8
0
 10
244.706250
 20
450.559375
 42
-0.082425
  0
VERTEX
  8
0
 10
244.925306
 20
450.073457
 42
-0.064853
  0
VERTEX
  8
0
 10
245.000000
 20
449.500000
 42
-0.067503
  0
VERTEX
  8
0
 10
244.922238
 20
448.926635
 42
-0.084240
  0
VERTEX
  8
0
 10
244.694807
 20
448.440625
 42
-0.099619
  0
VERTEX
  8
0
 10
244.357241
 20
448.115617
 42
-0.142928
  0
VERTEX
  8
0
 10
243.961045
 20
448.000000
 42
0.380656
  0
VERTEX
  8
0
 10
243.747149
 20
447.809565
 42
0.135025
  0
VERTEX
  8
0
 10
243.814810
 20
447.369363
 42
0.057828
  0
VERTEX
  8
0
 10
244.225726
 20
446.678325
 42
0.024513
  0
VERTEX
  8
0
 10
244.922184
 20
445.853151
 42
-0.074416
  0
VERTEX
  8
0
 10
245.977539
 20
444.315388
 42
-0.078341
  0
VERTEX
  8
0
 10
246.513106
 20
442.562628
 42
-0.040577
  0
VERTEX
  8
0
 10
246.669942
 20
439.910760
 42
-0.006607
  0
VERTEX
  8
0
 10
246.488144
 20
434.755561
 42
-0.007424
  0
VERTEX
  8
0
 10
246.044239
 20
427.753623
 42
-0.021341
  0
VERTEX
  8
0
 10
245.457414
 20
422.920931
 42
-0.023553
  0
VERTEX
  8
0
 10
244.763267
 20
419.673919
 42
-0.340595
  0
VERTEX
  8
0
 10
243.888709
 20
419.000000
 42
0.332807
  0
VERTEX
  8
0
 10
243.541128
 20
418.739828
 42
0.026723
  0
VERTEX
  8
0
 10
243.261058
 20
417.555729
 42
0.027711
  0
VERTEX
  8
0
 10
243.064114
 20
415.968068
 42
0.017004
  0
VERTEX
  8
0
 10
243.000000
 20
414.083333
 42
-0.020541
  0
VERTEX
  8
0
 10
242.916001
 20
412.039574
 42
-0.035345
  0
VERTEX
  8
0
 10
242.656780
 20
410.356497
 42
-0.041998
  0
VERTEX
  8
0
 10
242.264851
 20
409.122029
 42
-0.187865
  0
VERTEX
  8
0
 10
241.750000
 20
408.583333
 42
0.029131
  0
VERTEX
  8
0
 10
241.142530
 20
408.255505
 42
0.260055
  0
VERTEX
  8
0
 10
241.000000
 20
408.000000
 42
0.260055
  0
VERTEX
  8
0
 10
241.142530
 20
407.744495
 42
0.029131
  0
VERTEX
  8
0
 10
241.750000
 20
407.416667
 42
-0.151536
  0
VERTEX
  8
0
 10
242.595242
 20
406.648889
 42
-0.115399
  0
VERTEX
  8
0
 10
242.970337
 20
405.448315
 42
-0.151336
  0
VERTEX
  8
0
 10
242.732660
 20
404.420978
 42
-0.266838
  0
VERTEX
  8
0
 10
242.000000
 20
404.000000
 42
0.140362
  0
VERTEX
  8
0
 10
241.618662
 20
403.890798
 42
0.099913
  0
VERTEX
  8
0
 10
241.293750
 20
403.583854
 42
0.085122
  0
VERTEX
  8
0
 10
241.074923
 20
403.124800
 42
0.068857
  0
VERTEX
  8
0
 10
241.000000
 20
402.583333
 42
-0.079041
  0
VERTEX
  8
0
 10
240.906914
 20
401.998166
 42
-0.060848
  0
VERTEX
  8
0
 10
240.632812
 20
401.411458
 42
-0.061238
  0
VERTEX
  8
0
 10
240.228021
 20
400.911833
 42
-0.082920
  0
VERTEX
  8
0
 10
239.750000
 20
400.583333
 42
0.029131
  0
VERTEX
  8
0
 10
239.142530
 20
400.255505
 42
0.260055
  0
VERTEX
  8
0
 10
239.000000
 20
400.000000
 42
0.260055
  0
VERTEX
  8
0
 10
239.142530
 20
399.744495
 42
0.029131
  0
VERTEX
  8
0
 10
239.750000
 20
399.416667
 42
-0.229784
  0
VERTEX
  8
0
 10
240.338454
 20
398.692602
 42
-0.028064
  0
VERTEX
  8
0
 10
240.703782
 20
396.621569
 42
-0.022364
  0
VERTEX
  8
0
 10
240.933166
 20
393.517737
 42
-0.007262
  0
VERTEX
  8
0
 10
241.000000
 20
388.916667
 42
0.008137
  0
VERTEX
  8
0
 10
241.065830
 20
384.871947
 42
0.016990
  0
VERTEX
  8
0
 10
241.275210
 20
381.729167
 42
0.012605
  0
VERTEX
  8
0
 10
241.573821
 20
379.366268
 42
0.370671
  0
VERTEX
  8
0
 10
242.000000
 20
379.000000
 42
-0.277684
  0
VERTEX
  8
0
 10
242.385692
 20
378.767902
 42
-0.052312
  0
VERTEX
  8
0
 10
242.706250
 20
377.971875
 42
-0.042582
  0
VERTEX
  8
0
 10
242.927458
 20
376.841111
 42
-0.027026
  0
VERTEX
  8
0
 10
243.000000
 20
375.500000
 42
0.023121
  0
VERTEX
  8
0
 10
243.062060
 20
374.158645
 42
0.036970
  0
VERTEX
  8
0
 10
243.251903
 20
373.028125
 42
0.042601
  0
VERTEX
  8
0
 10
243.525368
 20
372.217683
 42
0.298472
  0
VERTEX
  8
0
 10
243.857544
 20
372.000000
 42
-0.329235
  0
VERTEX
  8
0
 10
244.224236
 20
371.729189
 42
-0.015635
  0
VERTEX
  8
0
 10
244.652847
 20
370.164062
 42
-0.020537
  0
VERTEX
  8
0
 10
245.051381
 20
368.145857
 42
-0.012738
  0
VERTEX
  8
0
 10
245.360750
 20
365.750000
 42
0.017633
  0
VERTEX
  8
0
 10
245.724890
 20
363.131992
 42
0.027455
  0
VERTEX
  8
0
 10
246.240493
 20
360.913548
 42
0.030464
  0
VERTEX
  8
0
 10
246.847929
 20
359.218843
 42
0.132651
  0
VERTEX
  8
0
 10
247.503207
 20
358.389757
 42
-0.087575
  0
VERTEX
  8
0
 10
248.076763
 20
357.783750
 42
-0.047344
  0
VERTEX
  8
0
 10
248.560317
 20
356.874054
 42
-0.045223
  0
VERTEX
  8
0
 10
248.889257
 20
355.823979
 42
-0.053347
  0
VERTEX
  8
0
 10
249.000000
 20
354.788981
 42
0.052453
  0
VERTEX
  8
0
 10
249.276108
 20
352.164273
 42
0.032324
  0
VERTEX
  8
0
 10
250.117976
 20
349.171861
 42
0.026189
  0
VERTEX
  8
0
 10
251.189609
 20
346.573968
 42
0.289503
  0
VERTEX
  8
0
 10
252.097825
 20
346.000000
 42
-0.308340
  0
VERTEX
  8
0
 10
252.797705
 20
345.523054
 42
-0.122449
  0
VERTEX
  8
0
 10
252.957047
 20
344.311333
 42
-0.083350
  0
VERTEX
  8
0
 10
252.509967
 20
342.752162
 42
-0.085163
  0
VERTEX
  8
0
 10
251.580357
 20
341.437500
 42
-0.027494
  0
VERTEX
  8
0
 10
250.847834
 20
340.781393
 42
-0.146730
  0
VERTEX
  8
0
 10
250.355558
 20
340.582446
 42
-0.243144
  0
VERTEX
  8
0
 10
249.978072
 20
340.735124
 42
-0.081545
  0
VERTEX
  8
0
 10
249.659305
 20
341.258929
 42
0.009653
  0
VERTEX
  8
0
 10
249.383852
 20
341.904547
 42
0.299395
  0
VERTEX
  8
0
 10
249.243771
 20
341.993629
 42
0.377751
  0
VERTEX
  8
0
 10
249.135116
 20
341.894866
 42
0.011905
  0
VERTEX
  8
0
 10
249.078947
 20
341.250000
 42
-0.232012
  0
VERTEX
  8
0
 10
248.781017
 20
340.728482
 42
-0.074750
  0
VERTEX
  8
0
 10
247.955246
 20
340.333059
 42
-0.050649
  0
VERTEX
  8
0
 10
246.681015
 20
340.079859
 42
-0.023740
  0
VERTEX
  8
0
 10
245.000000
 20
340.000000
 42
0.018303
  0
VERTEX
  8
0
 10
242.943262
 20
339.924684
 42
0.087290
  0
VERTEX
  8
0
 10
241.807598
 20
339.637912
 42
0.167335
  0
VERTEX
  8
0
 10
241.217833
 20
339.085086
 42
0.122131
  0
VERTEX
  8
0
 10
241.000000
 20
338.206592
 42
-0.143040
  0
VERTEX
  8
0
 10
240.744492
 20
337.331731
 42
-0.097697
  0
VERTEX
  8
0
 10
240.024204
 20
336.578555
 42
-0.063794
  0
VERTEX
  8
0
 10
238.772362
 20
335.918018
 42
-0.024323
  0
VERTEX
  8
0
 10
236.890339
 20
335.316252
 42
-0.017308
  0
VERTEX
  8
0
 10
234.544489
 20
334.776329
 42
-0.080946
  0
VERTEX
  8
0
 10
233.163640
 20
334.734798
 42
-0.113448
  0
VERTEX
  8
0
 10
232.078949
 20
335.139865
 42
-0.050559
  0
VERTEX
  8
0
 10
230.890339
 20
336.109661
 42
-0.024165
  0
VERTEX
  8
0
 10
230.166770
 20
336.906767
 42
-0.027397
  0
VERTEX
  8
0
 10
229.555287
 20
337.738463
 42
-0.028167
  0
VERTEX
  8
0
 10
229.120525
 20
338.492750
 42
-0.117171
  0
VERTEX
  8
0
 10
229.000000
 20
339.000000
 42
0.295869
  0
VERTEX
  8
0
 10
228.748945
 20
339.387127
 42
0.043820
  0
VERTEX
  8
0
 10
227.825000
 20
339.706250
 42
0.037669
  0
VERTEX
  8
0
 10
226.532944
 20
339.927610
 42
0.023598
  0
VERTEX
  8
0
 10
225.000000
 20
340.000000
 42
-0.021335
  0
VERTEX
  8
0
 10
223.466907
 20
340.065445
 42
-0.034321
  0
VERTEX
  8
0
 10
222.175000
 20
340.265909
 42
-0.037983
  0
VERTEX
  8
0
 10
221.239534
 20
340.553731
 42
-0.308345
  0
VERTEX
  8
0
 10
221.000000
 20
340.905221
 42
0.379922
  0
VERTEX
  8
0
 10
220.022606
 20
342.005864
 42
0.010174
  0
VERTEX
  8
0
 10
213.034951
 20
342.693800
 42
0.019310
  0
VERTEX
  8
0
 10
205.656378
 20
342.982972
 42
0.032890
  0
VERTEX
  8
0
 10
199.500000
 20
342.580999
 42
0.013975
  0
VERTEX
  8
0
 10
195.770863
 20
341.983376
 42
0.045174
  0
VERTEX
  8
0
 10
193.359978
 20
341.297573
 42
0.062432
  0
VERTEX
  8
0
 10
191.558761
 20
340.331895
 42
0.050307
  0
VERTEX
  8
0
 10
189.902293
 20
338.886783
 42
-0.036969
  0
VERTEX
  8
0
 10
188.695148
 20
337.775703
 42
-0.027486
  0
VERTEX
  8
0
 10
187.215114
 20
336.729962
 42
-0.028041
  0
VERTEX
  8
0
 10
185.700999
 20
335.894734
 42
-0.054751
  0
VERTEX
  8
0
 10
184.402293
 20
335.437335
 42
0.028518
  0
VERTEX
  8
0
 10
183.217858
 20
335.088708
 42
0.027031
  0
VERTEX
  8
0
 10
182.058799
 20
334.602317
 42
0.028073
  0
VERTEX
  8
0
 10
181.082326
 20
334.059315
 42
0.079741
  0
VERTEX
  8
0
 10
180.500000
 20
333.545704
 42
-0.073312
  0
VERTEX
  8
0
 10
179.933979
 20
333.033464
 42
-0.028446
  0
VERTEX
  8
0
 10
179.021038
 20
332.495703
 42
-0.027419
  0
VERTEX
  8
0
 10
177.949909
 20
332.016565
 42
-0.030476
  0
VERTEX
  8
0
 10
176.869492
 20
331.676582
 42
0.058934
  0
VERTEX
  8
0
 10
175.825629
 20
331.281683
 42
0.053113
  0
VERTEX
  8
0
 10
174.862300
 20
330.642906
 42
0.056434
  0
VERTEX
  8
0
 10
174.117892
 20
329.869660
 42
0.099798
  0
VERTEX
  8
0
 10
173.730402
 20
329.077058
 42
-0.109366
  0
VERTEX
  8
0
 10
173.276371
 20
328.191245
 42
-0.078267
  0
VERTEX
  8
0
 10
172.438843
 20
327.452113
 42
-0.061496
  0
VERTEX
  8
0
 10
171.215718
 20
326.870273
 42
-0.033947
  0
VERTEX
  8
0
 10
169.610910
 20
326.454829
 42
0.033334
  0
VERTEX
  8
0
 10
168.228282
 20
326.098708
 42
0.046737
  0
VERTEX
  8
0
 10
167.060705
 20
325.588269
 42
0.056131
  0
VERTEX
  8
0
 10
166.248119
 20
325.010986
 42
0.213394
  0
VERTEX
  8
0
 10
166.000000
 20
324.456097
 42
-0.117645
  0
VERTEX
  8
0
 10
165.869574
 20
323.909450
 42
-0.070661
  0
VERTEX
  8
0
 10
165.485734
 20
323.359692
 42
-0.064436
  0
VERTEX
  8
0
 10
164.918631
 20
322.890209
 42
-0.063956
  0
VERTEX
  8
0
 10
164.249308
 20
322.579127
 42
0.096839
  0
VERTEX
  8
0
 10
163.486583
 20
322.162046
 42
0.039339
  0
VERTEX
  8
0
 10
162.634827
 20
321.332617
 42
0.037039
  0
VERTEX
  8
0
 10
161.833371
 20
320.269546
 42
0.038828
  0
VERTEX
  8
0
 10
161.211623
 20
319.115961
 42
-0.051047
  0
VERTEX
  8
0
 10
160.409195
 20
317.710336
 42
-0.077952
  0
VERTEX
  8
0
 10
159.427224
 20
316.710369
 42
-0.073366
  0
VERTEX
  8
0
 10
158.140495
 20
316.020038
 42
-0.040148
  0
VERTEX
  8
0
 10
156.409759
 20
315.549048
 42
0.033091
  0
VERTEX
  8
0
 10
155.024791
 20
315.193041
 42
0.038397
  0
VERTEX
  8
0
 10
153.768807
 20
314.670116
 42
0.041950
  0
VERTEX
  8
0
 10
152.800030
 20
314.069299
 42
0.142302
  0
VERTEX
  8
0
 10
152.355062
 20
313.482894
 42
-0.084120
  0
VERTEX
  8
0
 10
152.010164
 20
312.899946
 42
-0.045177
  0
VERTEX
  8
0
 10
151.413448
 20
312.311518
 42
-0.043315
  0
VERTEX
  8
0
 10
150.677415
 20
311.806307
 42
-0.051954
  0
VERTEX
  8
0
 10
149.907619
 20
311.470679
 42
0.058989
  0
VERTEX
  8
0
 10
149.178183
 20
311.140398
 42
0.062204
  0
VERTEX
  8
0
 10
148.560363
 20
310.653675
 42
0.069514
  0
VERTEX
  8
0
 10
148.141436
 20
310.091579
 42
0.126081
  0
VERTEX
  8
0
 10
148.000000
 20
309.539601
 42
-0.194056
  0
VERTEX
  8
0
 10
147.559510
 20
308.447386
 42
-0.108750
  0
VERTEX
  8
0
 10
146.349520
 20
307.641687
 42
-0.066441
  0
VERTEX
  8
0
 10
144.327392
 20
307.150875
 42
-0.026363
  0
VERTEX
  8
0
 10
141.467903
 20
307.000000
 42
0.034144
  0
VERTEX
  8
0
 10
140.119828
 20
306.907836
 42
0.038728
  0
VERTEX
  8
0
 10
138.853975
 20
306.632813
 42
0.042266
  0
VERTEX
  8
0
 10
137.836433
 20
306.231297
 42
0.136167
  0
VERTEX
  8
0
 10
137.299690
 20
305.750000
 42
-0.052202
  0
VERTEX
  8
0
 10
136.853449
 20
305.190715
 42
-0.021899
  0
VERTEX
  8
0
 10
136.147409
 20
304.533959
 42
-0.021381
  0
VERTEX
  8
0
 10
135.324353
 20
303.891607
 42
-0.026005
  0
VERTEX
  8
0
 10
134.500000
 20
303.365604
 42
0.078772
  0
VERTEX
  8
0
 10
133.574521
 20
302.627603
 42
0.090863
  0
VERTEX
  8
0
 10
132.976482
 20
301.671976
 42
0.071544
  0
VERTEX
  8
0
 10
132.667746
 20
300.383094
 42
0.030960
  0
VERTEX
  8
0
 10
132.614063
 20
298.615604
 42
-0.018838
  0
VERTEX
  8
0
 10
132.600897
 20
296.469343
 42
-0.152783
  0
VERTEX
  8
0
 10
132.270448
 20
295.555645
 42
-0.197624
  0
VERTEX
  8
0
 10
131.521136
 20
295.116277
 42
-0.035042
  0
VERTEX
  8
0
 10
129.864063
 20
295.000000
 42
0.034133
  0
VERTEX
  8
0
 10
128.480794
 20
294.905459
 42
0.112094
  0
VERTEX
  8
0
 10
127.629103
 20
294.585137
 42
0.157707
  0
VERTEX
  8
0
 10
127.163266
 20
294.003111
 42
0.090781
  0
VERTEX
  8
0
 10
127.000000
 20
293.111291
 42
-0.111123
  0
VERTEX
  8
0
 10
126.798959
 20
292.217867
 42
-0.117846
  0
VERTEX
  8
0
 10
126.236698
 20
291.518695
 42
-0.083917
  0
VERTEX
  8
0
 10
125.246440
 20
290.988646
 42
-0.033303
  0
VERTEX
  8
0
 10
123.750000
 20
290.594668
 42
0.048961
  0
VERTEX
  8
0
 10
122.333938
 20
290.174107
 42
0.030061
  0
VERTEX
  8
0
 10
120.762918
 20
289.421712
 42
0.029967
  0
VERTEX
  8
0
 10
119.283549
 20
288.480431
 42
0.046371
  0
VERTEX
  8
0
 10
118.145040
 20
287.483377
 42
-0.045393
  0
VERTEX
  8
0
 10
116.897703
 20
286.386704
 42
-0.054932
  0
VERTEX
  8
0
 10
115.546553
 20
285.611770
 42
-0.055405
  0
VERTEX
  8
0
 10
114.069027
 20
285.154260
 42
-0.047432
  0
VERTEX
  8
0
 10
112.446562
 20
285.000000
 42
0.092756
  0
VERTEX
  8
0
 10
109.671732
 20
284.480771
 42
0.073468
  0
VERTEX
  8
0
 10
107.013621
 20
282.970684
 42
0.071564
  0
VERTEX
  8
0
 10
104.844376
 20
280.709285
 42
0.079470
  0
VERTEX
  8
0
 10
103.493463
 20
278.003838
 42
-0.065169
  0
VERTEX
  8
0
 10
102.573490
 20
276.022303
 42
-0.074145
  0
VERTEX
  8
0
 10
101.205907
 20
274.440309
 42
-0.079652
  0
VERTEX
  8
0
 10
99.529523
 20
273.410262
 42
-0.093838
  0
VERTEX
  8
0
 10
97.708187
 20
273.031803
 42
0.120687
  0
VERTEX
  8
0
 10
96.083342
 20
272.603106
 42
0.055625
  0
VERTEX
  8
0
 10
94.278022
 20
271.343188
 42
0.053451
  0
VERTEX
  8
0
 10
92.687542
 20
269.613690
 42
0.073090
  0
VERTEX
  8
0
 10
91.691489
 20
267.750000
 42
-0.092989
  0
VERTEX
  8
0
 10
91.299216
 20
267.081038
 42
-0.068384
  0
VERTEX
  8
0
 10
90.650737
 20
266.514063
 42
-0.066717
  0
VERTEX
  8
0
 10
89.854926
 20
266.130966
 42
-0.079017
  0
VERTEX
  8
0
 10
89.031385
 20
266.000000
 42
0.070174
  0
VERTEX
  8
0
 10
88.244940
 20
265.889078
 42
0.089187
  0
VERTEX
  8
0
 10
87.588564
 20
265.565397
 42
0.103496
  0
VERTEX
  8
0
 10
87.154775
 20
265.079202
 42
0.131307
  0
VERTEX
  8
0
 10
87.000000
 20
264.500000
 42
-0.064853
  0
VERTEX
  8
0
 10
86.925306
 20
263.926543
 42
-0.082425
  0
VERTEX
  8
0
 10
86.706250
 20
263.440625
 42
-0.098894
  0
VERTEX
  8
0
 10
86.381354
 20
263.115568
 42
-0.148195
  0
VERTEX
  8
0
 10
86.000000
 20
263.000000
 42
0.226478
  0
VERTEX
  8
0
 10
85.617064
 20
262.817169
 42
0.074992
  0
VERTEX
  8
0
 10
85.293750
 20
262.265625
 42
0.057076
  0
VERTEX
  8
0
 10
85.073116
 20
261.457356
 42
0.038131
  0
VERTEX
  8
0
 10
85.000000
 20
260.500000
 42
0.030614
  0
VERTEX
  8
0
 10
85.058697
 20
259.542239
 42
0.047511
  0
VERTEX
  8
0
 10
85.237121
 20
258.734375
 42
0.060537
  0
VERTEX
  8
0
 10
85.496817
 20
258.172941
 42
0.259774
  0
VERTEX
  8
0
 10
85.807222
 20
258.000000
 42
-0.169072
  0
VERTEX
  8
0
 10
87.297056
 20
257.481398
 42
-0.020307
  0
VERTEX
  8
0
 10
89.975951
 20
255.176208
 42
-0.019599
  0
VERTEX
  8
0
 10
92.463726
 20
252.663625
 42
-0.187462
  0
VERTEX
  8
0
 10
93.000000
 20
251.283537
 42
0.131445
  0
VERTEX
  8
0
 10
93.402560
 20
249.778707
 42
0.082840
  0
VERTEX
  8
0
 10
94.564664
 20
248.365163
 42
0.079177
  0
VERTEX
  8
0
 10
96.184720
 20
247.350856
 42
0.100678
  0
VERTEX
  8
0
 10
97.909519
 20
247.000000
 42
0.089882
  0
VERTEX
  8
0
 10
98.863731
 20
247.172929
 42
0.108252
  0
VERTEX
  8
0
 10
99.627361
 20
247.666959
 42
0.089916
  0
VERTEX
  8
0
 10
100.211259
 20
248.517596
 42
0.045579
  0
VERTEX
  8
0
 10
100.634920
 20
249.750000
 42
-0.027501
  0
VERTEX
  8
0
 10
100.973234
 20
250.863340
 42
-0.027355
  0
VERTEX
  8
0
 10
101.432202
 20
251.934863
 42
-0.028435
  0
VERTEX
  8
0
 10
101.936433
 20
252.823251
 42
-0.088179
  0
VERTEX
  8
0
 10
102.403972
 20
253.326131
 42
0.051808
  0
VERTEX
  8
0
 10
102.844758
 20
253.736288
 42
0.211267
  0
VERTEX
  8
0
 10
102.950881
 20
254.077612
 42
0.216581
  0
VERTEX
  8
0
 10
102.769055
 20
254.379886
 42
0.054358
  0
VERTEX
  8
0
 10
102.250000
 20
254.659464
 42
-0.232916
  0
VERTEX
  8
0
 10
101.215050
 20
255.821399
 42
-0.094053
  0
VERTEX
  8
0
 10
101.035478
 20
257.994820
 42
-0.084819
  0
VERTEX
  8
0
 10
101.680967
 20
260.288266
 42
-0.143208
  0
VERTEX
  8
0
 10
103.000000
 20
261.767927
 42
0.048682
  0
VERTEX
  8
0
 10
103.765087
 20
262.356259
 42
0.046919
  0
VERTEX
  8
0
 10
104.412500
 20
263.088184
 42
0.050645
  0
VERTEX
  8
0
 10
104.856181
 20
263.846761
 42
0.107418
  0
VERTEX
  8
0
 10
105.000000
 20
264.508474
 42
-0.320871
  0
VERTEX
  8
0
 10
105.916727
 20
265.789894
 42
-0.099947
  0
VERTEX
  8
0
 10
108.399538
 20
266.113460
 42
-0.087022
  0
VERTEX
  8
0
 10
111.051857
 20
265.455261
 42
-0.228393
  0
VERTEX
  8
0
 10
112.289749
 20
264.000000
 42
0.074043
  0
VERTEX
  8
0
 10
112.616163
 20
263.235631
 42
0.071090
  0
VERTEX
  8
0
 10
113.154753
 20
262.587500
 42
0.075827
  0
VERTEX
  8
0
 10
113.815973
 20
262.150369
 42
0.108617
  0
VERTEX
  8
0
 10
114.500000
 20
262.000000
 42
0.108617
  0
VERTEX
  8
0
 10
115.184027
 20
262.150369
 42
0.075827
  0
VERTEX
  8
0
 10
115.845247
 20
262.587500
 42
0.071090
  0
VERTEX
  8
0
 10
116.383837
 20
263.235631
 42
0.074043
  0
VERTEX
  8
0
 10
116.710251
 20
264.000000
 42
-0.039981
  0
VERTEX
  8
0
 10
116.977316
 20
264.765440
 42
-0.051415
  0
VERTEX
  8
0
 10
117.346388
 20
265.412500
 42
-0.061089
  0
VERTEX
  8
0
 10
117.755713
 20
265.857984
 42
-0.178265
  0
VERTEX
  8
0
 10
118.141382
 20
266.000000
 42
0.191188
  0
VERTEX
  8
0
 10
118.554216
 20
266.163847
 42
0.043995
  0
VERTEX
  8
0
 10
119.061950
 20
266.734375
 42
0.039353
  0
VERTEX
  8
0
 10
119.569519
 20
267.542831
 42
0.029669
  0
VERTEX
  8
0
 10
120.000000
 20
268.500000
 42
-0.055067
  0
VERTEX
  8
0
 10
120.601495
 20
269.674383
 42
-0.099283
  0
VERTEX
  8
0
 10
121.360126
 20
270.439282
 42
-0.097086
  0
VERTEX
  8
0
 10
122.367558
 20
270.862879
 42
-0.050901
  0
VERTEX
  8
0
 10
123.725249
 20
271.002875
 42
0.064029
  0
VERTEX
  8
0
 10
125.110082
 20
271.182402
 42
0.076081
  0
VERTEX
  8
0
 10
126.318692
 20
271.705794
 42
0.067361
  0
VERTEX
  8
0
 10
127.422922
 20
272.626586
 42
0.038101
  0
VERTEX
  8
0
 10
128.500000
 20
274.000000
 42
-0.023897
  0
VERTEX
  8
0
 10
129.895465
 20
275.887329
 42
-0.092057
  0
VERTEX
  8
0
 10
131.003642
 20
276.825940
 42
-0.327498
  0
VERTEX
  8
0
 10
131.672478
 20
276.749474
 42
-0.208960
  0
VERTEX
  8
0
 10
132.000000
 20
276.000000
 42
0.099038
  0
VERTEX
  8
0
 10
132.076342
 20
275.618362
 42
0.097945
  0
VERTEX
  8
0
 10
132.293750
 20
275.293750
 42
0.097945
  0
VERTEX
  8
0
 10
132.618362
 20
275.076342
 42
0.099038
  0
VERTEX
  8
0
 10
133.000000
 20
275.000000
 42
0.148195
  0
VERTEX
  8
0
 10
133.381354
 20
275.115568
 42
0.098894
  0
VERTEX
  8
0
 10
133.706250
 20
275.440625
 42
0.082425
  0
VERTEX
  8
0
 10
133.925306
 20
275.926543
 42
0.064853
  0
VERTEX
  8
0
 10
134.000000
 20
276.500000
 42
-0.064853
  0
VERTEX
  8
0
 10
134.074694
 20
277.073457
 42
-0.082425
  0
VERTEX
  8
0
 10
134.293750
 20
277.559375
 42
-0.098894
  0
VERTEX
  8
0
 10
134.618646
 20
277.884432
 42
-0.148195
  0
VERTEX
  8
0
 10
135.000000
 20
278.000000
 42
0.200919
  0
VERTEX
  8
0
 10
135.382115
 20
278.160008
 42
0.084835
  0
VERTEX
  8
0
 10
135.706250
 20
278.625344
 42
0.064892
  0
VERTEX
  8
0
 10
135.926486
 20
279.313954
 42
0.045016
  0
VERTEX
  8
0
 10
136.000000
 20
280.128831
 42
-0.081562
  0
VERTEX
  8
0
 10
136.190772
 20
281.290540
 42
-0.243466
  0
VERTEX
  8
0
 10
136.753033
 20
281.833167
 42
-0.097146
  0
VERTEX
  8
0
 10
137.939740
 20
281.947810
 42
-0.008627
  0
VERTEX
  8
0
 10
140.938617
 20
281.602531
 42
0.018151
  0
VERTEX
  8
0
 10
143.901285
 20
281.318473
 42
0.086102
  0
VERTEX
  8
0
 10
145.588197
 20
281.509040
 42
0.096698
  0
VERTEX
  8
0
 10
147.015911
 20
282.247008
 42
0.026049
  0
VERTEX
  8
0
 10
148.938617
 20
283.939996
 42
0.023917
  0
VERTEX
  8
0
 10
150.110454
 20
285.200564
 42
0.027415
  0
VERTEX
  8
0
 10
151.100719
 20
286.513262
 42
0.028136
  0
VERTEX
  8
0
 10
151.805816
 20
287.702393
 42
0.120317
  0
VERTEX
  8
0
 10
152.000000
 20
288.497681
 42
-0.099786
  0
VERTEX
  8
0
 10
152.130508
 20
289.145110
 42
-0.067408
  0
VERTEX
  8
0
 10
152.514063
 20
289.796088
 42
-0.064266
  0
VERTEX
  8
0
 10
153.080996
 20
290.351786
 42
-0.072067
  0
VERTEX
  8
0
 10
153.750000
 20
290.720006
 42
0.088377
  0
VERTEX
  8
0
 10
155.676987
 20
291.863501
 42
0.025743
  0
VERTEX
  8
0
 10
158.179782
 20
294.258194
 42
0.025818
  0
VERTEX
  8
0
 10
160.425609
 20
296.901009
 42
0.086569
  0
VERTEX
  8
0
 10
161.471161
 20
298.909138
 42
-0.115260
  0
VERTEX
  8
0
 10
161.956929
 20
299.725361
 42
-0.033786
  0
VERTEX
  8
0
 10
163.044701
 20
300.712433
 42
-0.031981
  0
VERTEX
  8
0
 10
164.457830
 20
301.690483
 42
-0.029469
  0
VERTEX
  8
0
 10
166.022389
 20
302.510096
 42
0.016000
  0
VERTEX
  8
0
 10
167.546300
 20
303.256841
 42
0.023413
  0
VERTEX
  8
0
 10
168.831577
 20
304.017601
 42
0.020422
  0
VERTEX
  8
0
 10
169.799004
 20
304.711330
 42
0.230943
  0
VERTEX
  8
0
 10
170.000000
 20
305.123282
 42
-0.243639
  0
VERTEX
  8
0
 10
170.190474
 20
305.490974
 42
-0.034783
  0
VERTEX
  8
0
 10
170.939857
 20
305.945620
 42
-0.033056
  0
VERTEX
  8
0
 10
171.973836
 20
306.394651
 42
-0.022520
  0
VERTEX
  8
0
 10
173.199514
 20
306.771894
 42
0.043810
  0
VERTEX
  8
0
 10
174.810755
 20
307.343869
 42
0.090306
  0
VERTEX
  8
0
 10
175.904105
 20
308.106083
 42
0.089649
  0
VERTEX
  8
0
 10
176.663438
 20
309.208761
 42
0.042697
  0
VERTEX
  8
0
 10
177.238107
 20
310.839078
 42
-0.060949
  0
VERTEX
  8
0
 10
178.389463
 20
313.761535
 42
-0.082096
  0
VERTEX
  8
0
 10
180.131704
 20
316.002368
 42
-0.086533
  0
VERTEX
  8
0
 10
182.423114
 20
317.482325
 42
-0.076438
  0
VERTEX
  8
0
 10
185.181535
 20
318.181535
 42
0.040363
  0
VERTEX
  8
0
 10
186.735232
 20
318.458418
 42
0.070324
  0
VERTEX
  8
0
 10
187.939830
 20
318.964106
 42
0.081049
  0
VERTEX
  8
0
 10
188.840833
 20
319.722422
 42
0.074134
  0
VERTEX
  8
0
 10
189.487128
 20
320.750000
 42
-0.026530
  0
VERTEX
  8
0
 10
189.920955
 20
321.611532
 42
-0.035392
  0
VERTEX
  8
0
 10
190.408381
 20
322.339062
 42
-0.038191
  0
VERTEX
  8
0
 10
190.879543
 20
322.857785
 42
-0.191558
  0
VERTEX
  8
0
 10
191.237128
 20
323.000000
 42
0.179086
  0
VERTEX
  8
0
 10
191.528283
 20
323.107739
 42
0.091919
  0
VERTEX
  8
0
 10
191.775906
 20
323.414805
 42
0.071944
  0
VERTEX
  8
0
 10
191.943597
 20
323.871816
 42
0.052056
  0
VERTEX
  8
0
 10
192.000000
 20
324.412102
 42
-0.202584
  0
VERTEX
  8
0
 10
192.265262
 20
325.039930
 42
-0.072035
  0
VERTEX
  8
0
 10
193.070213
 20
325.623705
 42
-0.051923
  0
VERTEX
  8
0
 10
194.323352
 20
326.124059
 42
-0.027198
  0
VERTEX
  8
0
 10
195.963302
 20
326.493800
 42
-0.027237
  0
VERTEX
  8
0
 10
198.803316
 20
326.815829
 42
-0.096860
  0
VERTEX
  8
0
 10
200.609633
 20
326.571089
 42
-0.172695
  0
VERTEX
  8
0
 10
201.617804
 20
325.772680
 42
-0.140660
  0
VERTEX
  8
0
 10
202.000000
 20
324.440983
 42
0.092358
  0
VERTEX
  8
0
 10
202.102484
 20
323.890898
 42
0.096122
  0
VERTEX
  8
0
 10
202.395678
 20
323.423289
 42
0.099350
  0
VERTEX
  8
0
 10
202.833056
 20
323.110348
 42
0.106146
  0
VERTEX
  8
0
 10
203.346990
 20
323.000000
 42
-0.098015
  0
VERTEX
  8
0
 10
204.020527
 20
322.866686
 42
-0.028058
  0
VERTEX
  8
0
 10
204.984919
 20
322.404501
 42
-0.027085
  0
VERTEX
  8
0
 10
206.037609
 20
321.748662
 42
-0.025787
  0
VERTEX
  8
0
 10
207.031398
 20
320.972769
 42
0.031897
  0
VERTEX
  8
0
 10
208.112834
 20
320.149499
 42
0.021905
  0
VERTEX
  8
0
 10
209.432933
 20
319.352614
 42
0.022144
  0
VERTEX
  8
0
 10
210.777139
 20
318.694950
 42
0.041231
  0
VERTEX
  8
0
 10
211.924505
 20
318.304100
 42
-0.056767
  0
VERTEX
  8
0
 10
213.859667
 20
317.577208
 42
-0.048724
  0
VERTEX
  8
0
 10
215.691787
 20
316.402617
 42
-0.120514
  0
VERTEX
  8
0
 10
216.420564
 20
315.470263
 42
-0.544479
  0
VERTEX
  8
0
 10
216.116742
 20
315.000000
 42
0.235297
  0
VERTEX
  8
0
 10
215.679616
 20
314.782235
 42
0.046871
  0
VERTEX
  8
0
 10
215.207675
 20
314.017212
 42
0.040548
  0
VERTEX
  8
0
 10
214.778212
 20
312.935786
 42
0.027890
  0
VERTEX
  8
0
 10
214.462977
 20
311.654340
 42
-0.043442
  0
VERTEX
  8
0
 10
213.988043
 20
309.953348
 42
-0.085231
  0
VERTEX
  8
0
 10
213.280611
 20
308.743614
 42
-0.083793
  0
VERTEX
  8
0
 10
212.201285
 20
307.826371
 42
-0.040845
  0
VERTEX
  8
0
 10
210.573116
 20
307.028688
 42
0.047854
  0
VERTEX
  8
0
 10
209.039881
 20
306.250732
 42
0.059830
  0
VERTEX
  8
0
 10
207.804697
 20
305.242251
 42
0.059268
  0
VERTEX
  8
0
 10
206.834873
 20
303.961686
 42
0.045734
  0
VERTEX
  8
0
 10
206.090724
 20
302.374348
 42
-0.031552
  0
VERTEX
  8
0
 10
205.529165
 20
301.082517
 42
-0.041490
  0
VERTEX
  8
0
 10
204.850928
 20
299.991215
 42
-0.047073
  0
VERTEX
  8
0
 10
204.161175
 20
299.225235
 42
-0.188081
  0
VERTEX
  8
0
 10
203.583586
 20
299.000000
 42
0.129999
  0
VERTEX
  8
0
 10
202.909237
 20
298.821657
 42
0.024460
  0
VERTEX
  8
0
 10
201.823292
 20
298.131706
 42
0.024678
  0
VERTEX
  8
0
 10
200.602328
 20
297.175743
 42
0.020409
  0
VERTEX
  8
0
 10
199.398314
 20
296.044105
 42
0.002245
  0
VERTEX
  8
0
 10
193.964771
 20
290.452604
 42
0.011714
  0
VERTEX
  8
0
 10
191.057885
 20
287.289132
 42
0.015877
  0
VERTEX
  8
0
 10
189.350744
 20
285.212163
 42
0.165544
  0
VERTEX
  8
0
 10
189.000000
 20
284.181825
 42
-0.136813
  0
VERTEX
  8
0
 10
188.860036
 20
283.679886
 42
-0.049558
  0
VERTEX
  8
0
 10
188.412500
 20
283.082438
 42
-0.044550
  0
VERTEX
  8
0
 10
187.765262
 20
282.491678
 42
-0.039864
  0
VERTEX
  8
0
 10
187.000000
 20
282.000000
 42
0.052011
  0
VERTEX
  8
0
 10
186.235006
 20
281.481872
 42
0.050946
  0
VERTEX
  8
0
 10
185.587500
 20
280.813763
 42
0.055403
  0
VERTEX
  8
0
 10
185.145075
 20
280.103741
 42
0.112104
  0
VERTEX
  8
0
 10
185.000000
 20
279.464816
 42
-0.101490
  0
VERTEX
  8
0
 10
184.885357
 20
278.905837
 42
-0.098489
  0
VERTEX
  8
0
 10
184.559375
 20
278.430290
 42
-0.097349
  0
VERTEX
  8
0
 10
184.072511
 20
278.111697
 42
-0.096639
  0
VERTEX
  8
0
 10
183.500000
 20
278.000000
 42
0.081886
  0
VERTEX
  8
0
 10
182.926795
 20
277.905491
 42
0.091911
  0
VERTEX
  8
0
 10
182.439452
 20
277.632812
 42
0.100313
  0
VERTEX
  8
0
 10
182.112844
 20
277.226778
 42
0.119122
  0
VERTEX
  8
0
 10
181.996005
 20
276.750000
 42
-0.155563
  0
VERTEX
  8
0
 10
181.768366
 20
276.043849
 42
-0.015324
  0
VERTEX
  8
0
 10
180.672483
 20
274.605713
 42
-0.018192
  0
VERTEX
  8
0
 10
179.218303
 20
272.941593
 42
-0.013445
  0
VERTEX
  8
0
 10
177.496005
 20
271.205618
 42
0.020550
  0
VERTEX
  8
0
 10
175.774734
 20
269.420657
 42
0.024970
  0
VERTEX
  8
0
 10
174.320702
 20
267.608583
 42
0.024768
  0
VERTEX
  8
0
 10
173.271047
 20
265.995070
 42
0.132576
  0
VERTEX
  8
0
 10
173.000000
 20
264.990802
 42
-0.096495
  0
VERTEX
  8
0
 10
172.840138
 20
264.170168
 42
-0.057358
  0
VERTEX
  8
0
 10
172.361539
 20
263.292801
 42
-0.054432
  0
VERTEX
  8
0
 10
171.657764
 20
262.494780
 42
-0.062059
  0
VERTEX
  8
0
 10
170.826516
 20
261.907154
 42
0.045958
  0
VERTEX
  8
0
 10
168.680966
 20
260.491473
 42
0.026767
  0
VERTEX
  8
0
 10
166.378316
 20
258.436494
 42
0.021963
  0
VERTEX
  8
0
 10
164.443018
 20
256.337030
 42
0.177019
  0
VERTEX
  8
0
 10
164.000000
 20
255.124910
 42
-0.224707
  0
VERTEX
  8
0
 10
163.803057
 20
254.708815
 42
-0.047600
  0
VERTEX
  8
0
 10
163.118750
 20
254.249118
 42
-0.041186
  0
VERTEX
  8
0
 10
162.148927
 20
253.822898
 42
-0.028894
  0
VERTEX
  8
0
 10
161.000000
 20
253.500000
 42
0.027524
  0
VERTEX
  8
0
 10
159.850988
 20
253.180468
 42
0.039605
  0
VERTEX
  8
0
 10
158.881250
 20
252.764234
 42
0.045180
  0
VERTEX
  8
0
 10
158.193748
 20
252.318790
 42
0.230346
  0
VERTEX
  8
0
 10
158.000000
 20
251.920545
 42
-0.306311
  0
VERTEX
  8
0
 10
157.758477
 20
251.563290
 42
-0.038933
  0
VERTEX
  8
0
 10
156.825000
 20
251.270410
 42
-0.034867
  0
VERTEX
  8
0
 10
155.533070
 20
251.066567
 42
-0.021700
  0
VERTEX
  8
0
 10
154.000000
 20
251.000000
 42
0.023598
  0
VERTEX
  8
0
 10
152.467056
 20
250.927610
 42
0.037669
  0
VERTEX
  8
0
 10
151.175000
 20
250.706250
 42
0.043820
  0
VERTEX
  8
0
 10
150.251055
 20
250.387127
 42
0.295869
  0
VERTEX
  8
0
 10
150.000000
 20
250.000000
 42
-0.226478
  0
VERTEX
  8
0
 10
149.817169
 20
249.617064
 42
-0.074992
  0
VERTEX
  8
0
 10
149.265625
 20
249.293750
 42
-0.057076
  0
VERTEX
  8
0
 10
148.457356
 20
249.073116
 42
-0.038131
  0
VERTEX
  8
0
 10
147.500000
 20
249.000000
 42
0.038131
  0
VERTEX
  8
0
 10
146.542644
 20
248.926884
 42
0.057076
  0
VERTEX
  8
0
 10
145.734375
 20
248.706250
 42
0.074992
  0
VERTEX
  8
0
 10
145.182831
 20
248.382936
 42
0.226478
  0
VERTEX
  8
0
 10
145.000000
 20
248.000000
 42
-0.241185
  0
VERTEX
  8
0
 10
144.803335
 20
247.616011
 42
-0.068500
  0
VERTEX
  8
0
 10
144.192187
 20
247.292112
 42
-0.052624
  0
VERTEX
  8
0
 10
143.303304
 20
247.069484
 42
-0.034571
  0
VERTEX
  8
0
 10
142.250000
 20
246.994423
 42
0.043287
  0
VERTEX
  8
0
 10
139.158720
 20
246.719980
 42
0.028353
  0
VERTEX
  8
0
 10
135.675477
 20
245.897939
 42
0.020992
  0
VERTEX
  8
0
 10
132.610267
 20
244.846564
 42
0.308895
  0
VERTEX
  8
0
 10
132.000000
 20
243.952996
 42
-0.156290
  0
VERTEX
  8
0
 10
131.883543
 20
243.589527
 42
-0.097489
  0
VERTEX
  8
0
 10
131.555389
 20
243.279943
 42
-0.079640
  0
VERTEX
  8
0
 10
131.065210
 20
243.070974
 42
-0.061085
  0
VERTEX
  8
0
 10
130.486431
 20
243.000000
 42
0.090521
  0
VERTEX
  8
0
 10
128.849451
 20
242.701189
 42
0.035949
  0
VERTEX
  8
0
 10
126.767853
 20
241.739035
 42
0.035981
  0
VERTEX
  8
0
 10
124.841585
 20
240.485889
 42
0.088470
  0
VERTEX
  8
0
 10
123.700310
 20
239.250000
 42
-0.066931
  0
VERTEX
  8
0
 10
123.295226
 20
238.771792
 42
-0.051399
  0
VERTEX
  8
0
 10
122.742192
 20
238.367187
 42
-0.052408
  0
VERTEX
  8
0
 10
122.132975
 20
238.092055
 42
-0.080040
  0
VERTEX
  8
0
 10
121.561601
 20
238.000000
 42
0.208118
  0
VERTEX
  8
0
 10
120.998720
 20
237.755102
 42
0.058751
  0
VERTEX
  8
0
 10
120.420208
 20
236.966099
 42
0.048329
  0
VERTEX
  8
0
 10
119.911975
 20
235.824114
 42
0.034187
  0
VERTEX
  8
0
 10
119.559339
 20
234.464610
 42
-0.032147
  0
VERTEX
  8
0
 10
119.081743
 20
232.591996
 42
-0.104050
  0
VERTEX
  8
0
 10
118.446039
 20
231.485174
 42
-0.116297
  0
VERTEX
  8
0
 10
117.462215
 20
230.796766
 42
-0.045430
  0
VERTEX
  8
0
 10
115.862100
 20
230.322420
 42
0.036497
  0
VERTEX
  8
0
 10
114.662647
 20
229.990001
 42
0.040407
  0
VERTEX
  8
0
 10
113.566284
 20
229.495011
 42
0.044248
  0
VERTEX
  8
0
 10
112.716391
 20
228.921894
 42
0.131412
  0
VERTEX
  8
0
 10
112.307063
 20
228.357810
 42
-0.082735
  0
VERTEX
  8
0
 10
112.001889
 20
227.838750
 42
-0.065908
  0
VERTEX
  8
0
 10
111.522611
 20
227.398857
 42
-0.066363
  0
VERTEX
  8
0
 10
110.949193
 20
227.101482
 42
-0.086687
  0
VERTEX
  8
0
 10
110.368260
 20
227.000000
 42
0.144029
  0
VERTEX
  8
0
 10
109.756260
 20
226.819973
 42
0.060140
  0
VERTEX
  8
0
 10
109.087757
 20
226.265625
 42
0.052668
  0
VERTEX
  8
0
 10
108.468615
 20
225.456410
 42
0.046169
  0
VERTEX
  8
0
 10
108.000000
 20
224.500000
 42
-0.049595
  0
VERTEX
  8
0
 10
107.523315
 20
223.543720
 42
-0.054776
  0
VERTEX
  8
0
 10
106.880815
 20
222.734375
 42
-0.062060
  0
VERTEX
  8
0
 10
106.177987
 20
222.181650
 42
-0.136450
  0
VERTEX
  8
0
 10
105.524751
 20
222.000000
 42
0.064192
  0
VERTEX
  8
0
 10
104.941808
 20
221.924850
 42
0.081954
  0
VERTEX
  8
0
 10
104.447896
 20
221.704307
 42
0.098681
  0
VERTEX
  8
0
 10
104.117455
 20
221.377268
 42
0.149562
  0
VERTEX
  8
0
 10
104.000000
 20
220.993387
 42
-0.141486
  0
VERTEX
  8
0
 10
103.849361
 20
220.471700
 42
-0.026001
  0
VERTEX
  8
0
 10
103.265625
 20
219.643935
 42
-0.026092
  0
VERTEX
  8
0
 10
102.457139
 20
218.719089
 42
-0.021142
  0
VERTEX
  8
0
 10
101.500000
 20
217.813051
 42
0.026142
  0
VERTEX
  8
0
 10
100.543083
 20
216.888917
 42
0.030049
  0
VERTEX
  8
0
 10
99.734375
 20
215.910004
 42
0.031337
  0
VERTEX
  8
0
 10
99.161014
 20
215.011012
 42
0.126947
  0
VERTEX
  8
0
 10
99.000000
 20
214.387052
 42
-0.137147
  0
VERTEX
  8
0
 10
98.852951
 20
213.861038
 42
-0.067417
  0
VERTEX
  8
0
 10
98.412500
 20
213.316166
 42
-0.059142
  0
VERTEX
  8
0
 10
97.764926
 20
212.835825
 42
-0.053231
  0
VERTEX
  8
0
 10
97.000000
 20
212.500000
 42
0.039709
  0
VERTEX
  8
0
 10
96.234602
 20
212.188321
 42
0.049700
  0
VERTEX
  8
0
 10
95.587500
 20
211.777735
 42
0.058089
  0
VERTEX
  8
0
 10
95.141156
 20
211.335507
 42
0.170109
  0
VERTEX
  8
0
 10
95.000000
 20
210.932612
 42
-0.156266
  0
VERTEX
  8
0
 10
94.886052
 20
210.576918
 42
-0.097494
  0
VERTEX
  8
0
 10
94.564972
 20
210.273955
 42
-0.079648
  0
VERTEX
  8
0
 10
94.085356
 20
210.069456
 42
-0.061095
  0
VERTEX
  8
0
 10
93.519052
 20
210.000000
 42
0.158908
  0
VERTEX
  8
0
 10
92.902291
 20
209.798906
 42
0.068770
  0
VERTEX
  8
0
 10
92.273690
 20
209.192188
 42
0.058196
  0
VERTEX
  8
0
 10
91.728537
 20
208.302073
 42
0.047840
  0
VERTEX
  8
0
 10
91.359151
 20
207.250000
 42
-0.074198
  0
VERTEX
  8
0
 10
90.550248
 20
205.283117
 42
-0.041544
  0
VERTEX
  8
0
 10
89.041481
 20
203.175708
 42
-0.040104
  0
VERTEX
  8
0
 10
87.347573
 20
201.478911
 42
-0.178378
  0
VERTEX
  8
0
 10
86.047879
 20
201.000000
 42
0.253468
  0
VERTEX
  8
0
 10
85.732299
 20
200.829037
 42
0.019480
  0
VERTEX
  8
0
 10
85.219794
 20
199.971875
 42
0.022965
  0
VERTEX
  8
0
 10
84.667981
 20
198.841117
 42
0.015278
  0
VERTEX
  8
0
 10
84.136160
 20
197.500000
 42
-0.034657
  0
VERTEX
  8
0
 10
83.543875
 20
196.160281
 42
-0.044349
  0
VERTEX
  8
0
 10
82.811488
 20
195.028125
 42
-0.050906
  0
VERTEX
  8
0
 10
82.054877
 20
194.239297
 42
-0.177973
  0
VERTEX
  8
0
 10
81.403887
 20
194.000000
 42
0.091872
  0
VERTEX
  8
0
 10
80.800245
 20
193.888140
 42
0.066734
  0
VERTEX
  8
0
 10
80.199221
 20
193.560011
 42
0.065141
  0
VERTEX
  8
0
 10
79.691825
 20
193.074755
 42
0.077955
  0
VERTEX
  8
0
 10
79.362457
 20
192.502165
 42
-0.077457
  0
VERTEX
  8
0
 10
78.868774
 20
191.641950
 42
-0.007984
  0
VERTEX
  8
0
 10
77.372082
 20
189.834359
 42
-0.009790
  0
VERTEX
  8
0
 10
75.501426
 20
187.731943
 42
-0.007675
  0
VERTEX
  8
0
 10
73.393842
 20
185.523617
 42
0.017013
  0
VERTEX
  8
0
 10
71.328518
 20
183.277038
 42
0.021508
  0
VERTEX
  8
0
 10
69.584441
 20
181.059063
 42
0.020196
  0
VERTEX
  8
0
 10
68.305365
 20
179.119321
 42
0.136481
  0
VERTEX
  8
0
 10
68.000000
 20
178.021453
 42
-0.043279
  0
VERTEX
  8
0
 10
67.932890
 20
177.247594
 42
-0.063007
  0
VERTEX
  8
0
 10
67.731468
 20
176.593802
 42
-0.082643
  0
VERTEX
  8
0
 10
67.435311
 20
176.151113
 42
-0.206948
  0
VERTEX
  8
0
 10
67.085849
 20
176.000000
 42
0.153107
  0
VERTEX
  8
0
 10
66.554907
 20
175.833515
 42
0.012846
  0
VERTEX
  8
0
 10
65.381543
 20
174.971875
 42
0.016151
  0
VERTEX
  8
0
 10
64.014763
 20
173.840627
 42
0.011767
  0
VERTEX
  8
0
 10
62.567658
 20
172.500000
 42
-0.018015
  0
VERTEX
  8
0
 10
61.084403
 20
171.159926
 42
-0.022336
  0
VERTEX
  8
0
 10
59.608005
 20
170.028125
 42
-0.021410
  0
VERTEX
  8
0
 10
58.311094
 20
169.203127
 42
-0.131690
  0
VERTEX
  8
0
 10
57.553237
 20
169.000000
 42
0.070280
  0
VERTEX
  8
0
 10
56.917480
 20
168.910194
 42
0.037136
  0
VERTEX
  8
0
 10
56.168987
 20
168.632812
 42
0.036067
  0
VERTEX
  8
0
 10
55.430976
 20
168.228450
 42
0.046105
  0
VERTEX
  8
0
 10
54.821429
 20
167.750000
 42
-0.051193
  0
VERTEX
  8
0
 10
52.703072
 20
166.121722
 42
-0.049209
  0
VERTEX
  8
0
 10
50.270606
 20
164.932584
 42
-0.053283
  0
VERTEX
  8
0
 10
47.914461
 20
164.331230
 42
-0.113169
  0
VERTEX
  8
0
 10
46.048986
 20
164.484452
 42
0.045951
  0
VERTEX
  8
0
 10
44.936403
 20
164.727988
 42
0.149892
  0
VERTEX
  8
0
 10
44.202059
 20
164.598973
 42
0.158811
  0
VERTEX
  8
0
 10
43.691706
 20
164.087520
 42
0.053439
  0
VERTEX
  8
0
 10
43.313196
 20
163.089660
 42
-0.047123
  0
VERTEX
  8
0
 10
43.020218
 20
162.286932
 42
-0.055734
  0
VERTEX
  8
0
 10
42.594332
 20
161.600770
 42
-0.064843
  0
VERTEX
  8
0
 10
42.107293
 20
161.124276
 42
-0.152599
  0
VERTEX
  8
0
 10
41.633369
 20
160.955516
 42
0.009964
  0
VERTEX
  8
0
 10
35.830074
 20
160.611814
 42
0.046595
  0
VERTEX
  8
0
 10
32.535639
 20
160.038821
 42
0.075882
  0
VERTEX
  8
0
 10
30.229742
 20
159.017904
 42
0.060020
  0
VERTEX
  8
0
 10
28.120637
 20
157.283651
 42
-0.047232
  0
VERTEX
  8
0
 10
26.664057
 20
156.022339
 42
-0.028099
  0
VERTEX
  8
0
 10
24.721981
 20
154.796355
 42
-0.027260
  0
VERTEX
  8
0
 10
22.554946
 20
153.743110
 42
-0.032487
  0
VERTEX
  8
0
 10
20.407693
 20
153.000530
 42
0.019268
  0
VERTEX
  8
0
 10
18.470139
 20
152.387274
 42
0.023278
  0
VERTEX
  8
0
 10
16.706726
 20
151.659085
 42
0.022801
  0
VERTEX
  8
0
 10
15.303801
 20
150.921998
 42
0.125376
  0
VERTEX
  8
0
 10
14.700310
 20
150.326418
 42
-0.162905
  0
VERTEX
  8
0
 10
14.034376
 20
149.759473
 42
-0.043323
  0
VERTEX
  8
0
 10
12.682154
 20
149.347522
 42
-0.034530
  0
VERTEX
  8
0
 10
10.813384
 20
149.083996
 42
-0.017767
  0
VERTEX
  8
0
 10
8.450310
 20
149.000000
 42
0.012087
  0
VERTEX
  8
0
 10
5.701093
 20
148.933530
 42
0.056451
  0
VERTEX
  8
0
 10
4.139768
 20
148.679757
 42
0.124510
  0
VERTEX
  8
0
 10
3.311362
 20
148.203622
 42
0.203074
  0
VERTEX
  8
0
 10
3.000000
 20
147.468615
 42
-0.088478
  0
VERTEX
  8
0
 10
2.887915
 20
146.840167
 42
-0.066520
  0
VERTEX
  8
0
 10
2.559375
 20
146.217991
 42
-0.065663
  0
VERTEX
  8
0
 10
2.073415
 20
145.696157
 42
-0.081035
  0
VERTEX
  8
0
 10
1.500000
 20
145.361626
 42
0.137416
  0
VERTEX
  8
0
 10
0.893876
 20
144.910785
 42
0.068959
  0
VERTEX
  8
0
 10
0.415517
 20
144.076181
 42
0.056558
  0
VERTEX
  8
0
 10
0.105234
 20
142.953969
 42
0.039439
  0
VERTEX
  8
0
 10
0.002875
 20
141.643011
 42
0.049802
  0
VERTEX
  8
0
 10
0.165718
 20
140.027122
 42
0.082105
  0
VERTEX
  8
0
 10
0.653003
 20
138.747317
 42
0.076201
  0
VERTEX
  8
0
 10
1.556694
 20
137.629234
 42
0.037530
  0
VERTEX
  8
0
 10
3.000000
 20
136.500000
 42
-0.026641
  0
VERTEX
  8
0
 10
4.146438
 20
135.642575
 42
-0.032618
  0
VERTEX
  8
0
 10
5.115533
 20
134.720313
 42
-0.034428
  0
VERTEX
  8
0
 10
5.804899
 20
133.861026
 42
-0.152410
  0
VERTEX
  8
0
 10
5.997125
 20
133.250000
 42
0.151999
  0
VERTEX
  8
0
 10
6.146680
 20
132.773274
 42
0.097993
  0
VERTEX
  8
0
 10
6.565673
 20
132.367188
 42
0.080907
  0
VERTEX
  8
0
 10
7.190971
 20
132.093233
 42
0.062950
  0
VERTEX
  8
0
 10
7.928571
 20
132.000000
 42
-0.066533
  0
VERTEX
  8
0
 10
8.781552
 20
131.885993
 42
-0.039086
  0
VERTEX
  8
0
 10
9.752232
 20
131.538393
 42
-0.038394
  0
VERTEX
  8
0
 10
10.685366
 20
131.030127
 42
-0.052522
  0
VERTEX
  8
0
 10
11.428571
 20
130.428571
 42
0.027743
  0
VERTEX
  8
0
 10
12.384995
 20
129.572776
 42
0.170230
  0
VERTEX
  8
0
 10
13.000000
 20
129.357143
 42
0.170230
  0
VERTEX
  8
0
 10
13.615005
 20
129.572776
 42
0.027743
  0
VERTEX
  8
0
 10
14.571429
 20
130.428571
 42
-0.026870
  0
VERTEX
  8
0
 10
15.241238
 20
131.030014
 42
-0.029203
  0
VERTEX
  8
0
 10
15.954018
 20
131.538393
 42
-0.030460
  0
VERTEX
  8
0
 10
16.609970
 20
131.896964
 42
-0.110284
  0
VERTEX
  8
0
 10
17.071429
 20
132.000000
 42
0.153714
  0
VERTEX
  8
0
 10
17.425567
 20
132.111507
 42
0.097973
  0
VERTEX
  8
0
 10
17.727232
 20
132.425490
 42
0.080525
  0
VERTEX
  8
0
 10
17.930782
 20
132.894630
 42
0.062246
  0
VERTEX
  8
0
 10
18.000000
 20
133.448478
 42
-0.109128
  0
VERTEX
  8
0
 10
18.162376
 20
134.183589
 42
-0.027411
  0
VERTEX
  8
0
 10
18.742965
 20
135.273139
 42
-0.026671
  0
VERTEX
  8
0
 10
19.561147
 20
136.474906
 42
-0.024091
  0
VERTEX
  8
0
 10
20.529244
 20
137.626055
 42
-0.041198
  0
VERTEX
  8
0
 10
22.060474
 20
139.027122
 42
-0.075831
  0
VERTEX
  8
0
 10
23.533376
 20
139.845818
 42
-0.063646
  0
VERTEX
  8
0
 10
25.354628
 20
140.269989
 42
-0.021812
  0
VERTEX
  8
0
 10
28.064731
 20
140.427577
 42
-0.019073
  0
VERTEX
  8
0
 10
30.364968
 20
140.373109
 42
-0.043245
  0
VERTEX
  8
0
 10
32.084657
 20
140.116276
 42
-0.060207
  0
VERTEX
  8
0
 10
33.303937
 20
139.664343
 42
-0.131787
  0
VERTEX
  8
0
 10
34.035488
 20
139.000000
 42
0.045653
  0
VERTEX
  8
0
 10
34.507795
 20
138.394803
 42
0.144327
  0
VERTEX
  8
0
 10
34.946879
 20
138.137423
 42
0.203183
  0
VERTEX
  8
0
 10
35.359304
 20
138.202876
 42
0.101070
  0
VERTEX
  8
0
 10
35.750000
 20
138.574031
 42
-0.120758
  0
VERTEX
  8
0
 10
36.310238
 20
139.066247
 42
-0.018030
  0
VERTEX
  8
0
 10
37.675000
 20
139.716182
 42
-0.019395
  0
VERTEX
  8
0
 10
39.376335
 20
140.375297
 42
-0.015631
  0
VERTEX
  8
0
 10
41.250000
 20
140.953992
 42
0.013010
  0
VERTEX
  8
0
 10
43.070474
 20
141.505824
 42
0.020239
  0
VERTEX
  8
0
 10
44.604687
 20
142.084728
 42
0.015425
  0
VERTEX
  8
0
 10
45.791283
 20
142.631988
 42
0.284260
  0
VERTEX
  8
0
 10
46.000000
 20
142.969446
 42
-0.205567
  0
VERTEX
  8
0
 10
46.147177
 20
143.312297
 42
-0.030789
  0
VERTEX
  8
0
 10
46.734375
 20
143.805151
 42
-0.030371
  0
VERTEX
  8
0
 10
47.542521
 20
144.329998
 42
-0.021938
  0
VERTEX
  8
0
 10
48.500000
 20
144.818046
 42
0.044792
  0
VERTEX
  8
0
 10
49.456432
 20
145.361923
 42
0.049611
  0
VERTEX
  8
0
 10
50.265625
 20
146.051443
 42
0.055783
  0
VERTEX
  8
0
 10
50.821404
 20
146.775765
 42
0.136599
  0
VERTEX
  8
0
 10
51.000000
 20
147.417288
 42
-0.204034
  0
VERTEX
  8
0
 10
51.287968
 20
148.093596
 42
-0.080855
  0
VERTEX
  8
0
 10
52.135998
 20
148.679197
 42
-0.052201
  0
VERTEX
  8
0
 10
53.529103
 20
149.169929
 42
-0.021385
  0
VERTEX
  8
0
 10
55.500000
 20
149.552271
 42
0.015703
  0
VERTEX
  8
0
 10
57.224717
 20
149.866570
 42
0.024750
  0
VERTEX
  8
0
 10
58.678125
 20
150.254996
 42
0.021779
  0
VERTEX
  8
0
 10
59.776999
 20
150.661341
 42
0.301971
  0
VERTEX
  8
0
 10
60.000000
 20
150.996912
 42
-0.202398
  0
VERTEX
  8
0
 10
60.140653
 20
151.330144
 42
-0.052026
  0
VERTEX
  8
0
 10
60.609300
 20
151.699937
 42
-0.044469
  0
VERTEX
  8
0
 10
61.280057
 20
152.045057
 42
-0.032647
  0
VERTEX
  8
0
 10
62.074213
 20
152.309156
 42
0.076712
  0
VERTEX
  8
0
 10
62.907877
 20
152.670405
 42
0.055901
  0
VERTEX
  8
0
 10
63.698461
 20
153.301539
 42
0.055901
  0
VERTEX
  8
0
 10
64.329595
 20
154.092123
 42
0.076712
  0
VERTEX
  8
0
 10
64.690844
 20
154.925787
 42
-0.111967
  0
VERTEX
  8
0
 10
65.481060
 20
156.448171
 42
-0.282419
  0
VERTEX
  8
0
 10
66.619371
 20
156.823511
 42
-0.127229
  0
VERTEX
  8
0
 10
68.252685
 20
155.962596
 42
-0.022520
  0
VERTEX
  8
0
 10
70.726033
 20
153.500000
 42
0.018917
  0
VERTEX
  8
0
 10
73.312474
 20
150.887435
 42
0.157536
  0
VERTEX
  8
0
 10
74.799905
 20
150.187017
 42
0.307401
  0
VERTEX
  8
0
 10
75.853064
 20
150.720500
 42
0.064979
  0
VERTEX
  8
0
 10
76.649617
 20
152.740097
 42
-0.029549
  0
VERTEX
  8
0
 10
77.010607
 20
153.886800
 42
-0.024080
  0
VERTEX
  8
0
 10
77.526398
 20
155.066369
 42
-0.024719
  0
VERTEX
  8
0
 10
78.109047
 20
156.108505
 42
-0.056604
  0
VERTEX
  8
0
 10
78.668669
 20
156.811526
 42
0.093178
  0
VERTEX
  8
0
 10
79.180632
 20
157.560539
 42
0.035272
  0
VERTEX
  8
0
 10
79.608921
 20
158.758921
 42
0.033430
  0
VERTEX
  8
0
 10
79.901787
 20
160.161177
 42
0.034779
  0
VERTEX
  8
0
 10
80.000000
 20
161.571429
 42
-0.027579
  0
VERTEX
  8
0
 10
80.082788
 20
163.071226
 42
-0.068805
  0
VERTEX
  8
0
 10
80.351327
 20
164.133183
 42
-0.111593
  0
VERTEX
  8
0
 10
80.792493
 20
164.767986
 42
-0.187448
  0
VERTEX
  8
0
 10
81.389624
 20
165.000000
 42
0.215952
  0
VERTEX
  8
0
 10
82.020542
 20
165.285826
 42
0.044190
  0
VERTEX
  8
0
 10
82.761663
 20
166.298610
 42
0.038461
  0
VERTEX
  8
0
 10
83.490986
 20
167.746830
 42
0.025639
  0
VERTEX
  8
0
 10
84.107939
 20
169.500000
 42
-0.014967
  0
VERTEX
  8
0
 10
84.673742
 20
171.224456
 42
-0.022892
  0
VERTEX
  8
0
 10
85.275947
 20
172.678125
 42
-0.019203
  0
VERTEX
  8
0
 10
85.847188
 20
173.783677
 42
-0.270168
  0
VERTEX
  8
0
 10
86.218315
 20
174.000000
 42
0.211548
  0
VERTEX
  8
0
 10
86.517245
 20
174.132402
 42
0.080913
  0
VERTEX
  8
0
 10
86.770380
 20
174.522652
 42
0.061586
  0
VERTEX
  8
0
 10
86.942673
 20
175.098053
 42
0.042004
  0
VERTEX
  8
0
 10
87.000000
 20
175.779241
 42
-0.092974
  0
VERTEX
  8
0
 10
87.147848
 20
176.567471
 42
-0.047816
  0
VERTEX
  8
0
 10
87.601137
 20
177.467865
 42
-0.045258
  0
VERTEX
  8
0
 10
88.263518
 20
178.334851
 42
-0.051238
  0
VERTEX
  8
0
 10
89.046424
 20
179.029241
 42
0.080418
  0
VERTEX
  8
0
 10
89.906976
 20
179.886798
 42
0.031573
  0
VERTEX
  8
0
 10
90.804308
 20
181.306917
 42
0.030246
  0
VERTEX
  8
0
 10
91.598953
 20
182.995167
 42
0.033088
  0
VERTEX
  8
0
 10
92.157008
 20
184.717710
 42
-0.029102
  0
VERTEX
  8
0
 10
92.726901
 20
186.525786
 42
-0.046653
  0
VERTEX
  8
0
 10
93.439869
 20
187.976610
 42
-0.057596
  0
VERTEX
  8
0
 10
94.248568
 20
189.007779
 42
-0.121425
  0
VERTEX
  8
0
 10
95.110584
 20
189.535098
 42
0.043542
  0
VERTEX
  8
0
 10
95.833525
 20
189.835959
 42
0.052719
  0
VERTEX
  8
0
 10
96.444984
 20
190.242475
 42
0.061478
  0
VERTEX
  8
0
 10
96.864516
 20
190.687496
 42
0.159616
  0
VERTEX
  8
0
 10
97.000000
 20
191.101091
 42
-0.147107
  0
VERTEX
  8
0
 10
97.160857
 20
191.635994
 42
-0.017900
  0
VERTEX
  8
0
 10
97.881250
 20
192.645001
 42
-0.019992
  0
VERTEX
  8
0
 10
98.851130
 20
193.806325
 42
-0.015244
  0
VERTEX
  8
0
 10
100.000000
 20
195.000000
 42
0.015410
  0
VERTEX
  8
0
 10
101.148858
 20
196.194454
 42
0.020157
  0
VERTEX
  8
0
 10
102.118750
 20
197.358137
 42
0.018131
  0
VERTEX
  8
0
 10
102.838345
 20
198.369840
 42
0.146534
  0
VERTEX
  8
0
 10
103.000000
 20
198.909592
 42
-0.140311
  0
VERTEX
  8
0
 10
103.135007
 20
199.381222
 42
-0.036808
  0
VERTEX
  8
0
 10
103.603694
 20
200.022442
 42
-0.034407
  0
VERTEX
  8
0
 10
104.268522
 20
200.703208
 42
-0.029369
  0
VERTEX
  8
0
 10
105.055130
 20
201.326061
 42
0.061013
  0
VERTEX
  8
0
 10
105.897834
 20
202.084606
 42
0.034247
  0
VERTEX
  8
0
 10
106.730090
 20
203.184936
 42
0.033643
  0
VERTEX
  8
0
 10
107.429242
 20
204.429484
 42
0.046325
  0
VERTEX
  8
0
 10
107.871193
 20
205.632765
 42
-0.046926
  0
VERTEX
  8
0
 10
108.391487
 20
207.044107
 42
-0.101553
  0
VERTEX
  8
0
 10
109.087750
 20
207.961158
 42
-0.102612
  0
VERTEX
  8
0
 10
110.083801
 20
208.524190
 42
-0.048588
  0
VERTEX
  8
0
 10
111.532287
 20
208.837287
 42
0.096552
  0
VERTEX
  8
0
 10
113.872598
 20
209.582536
 42
0.057525
  0
VERTEX
  8
0
 10
116.267521
 20
211.276859
 42
0.056200
  0
VERTEX
  8
0
 10
118.280378
 20
213.535713
 42
0.077218
  0
VERTEX
  8
0
 10
119.489771
 20
215.967773
 42
-0.057058
  0
VERTEX
  8
0
 10
119.838055
 20
216.744910
 42
-0.061236
  0
VERTEX
  8
0
 10
120.346340
 20
217.403033
 42
-0.068911
  0
VERTEX
  8
0
 10
120.929958
 20
217.849689
 42
-0.129627
  0
VERTEX
  8
0
 10
121.500000
 20
218.000000
 42
0.127946
  0
VERTEX
  8
0
 10
122.069292
 20
218.148101
 42
0.069205
  0
VERTEX
  8
0
 10
122.650655
 20
218.587500
 42
0.061697
  0
VERTEX
  8
0
 10
123.155594
 20
219.235212
 42
0.057963
  0
VERTEX
  8
0
 10
123.500000
 20
220.000000
 42
-0.062073
  0
VERTEX
  8
0
 10
123.851920
 20
220.764682
 42
-0.063632
  0
VERTEX
  8
0
 10
124.378359
 20
221.412500
 42
-0.070290
  0
VERTEX
  8
0
 10
124.991679
 20
221.851239
 42
-0.120733
  0
VERTEX
  8
0
 10
125.598772
 20
222.000000
 42
0.092141
  0
VERTEX
  8
0
 10
126.201460
 20
222.112015
 42
0.066746
  0
VERTEX
  8
0
 10
126.801804
 20
222.440625
 42
0.065097
  0
VERTEX
  8
0
 10
127.308888
 20
222.926582
 42
0.077719
  0
VERTEX
  8
0
 10
127.638374
 20
223.500000
 42
-0.153735
  0
VERTEX
  8
0
 10
128.165783
 20
224.163673
 42
-0.075400
  0
VERTEX
  8
0
 10
129.150819
 20
224.631880
 42
-0.051552
  0
VERTEX
  8
0
 10
130.610805
 20
224.912941
 42
-0.021796
  0
VERTEX
  8
0
 10
132.606989
 20
225.000000
 42
-0.013406
  0
VERTEX
  8
0
 10
135.195335
 20
224.930591
 42
-0.114473
  0
VERTEX
  8
0
 10
136.302564
 20
224.610315
 42
-0.207751
  0
VERTEX
  8
0
 10
136.833647
 20
223.914015
 42
-0.060554
  0
VERTEX
  8
0
 10
137.000000
 20
222.545455
 42
-0.079024
  0
VERTEX
  8
0
 10
136.821887
 20
221.425535
 42
-0.037986
  0
VERTEX
  8
0
 10
136.265625
 20
220.077557
 42
-0.036442
  0
VERTEX
  8
0
 10
135.456735
 20
218.728619
 42
-0.043123
  0
VERTEX
  8
0
 10
134.500000
 20
217.590909
 42
0.009196
  0
VERTEX
  8
0
 10
133.542197
 20
216.597210
 42
0.013221
  0
VERTEX
  8
0
 10
132.734375
 20
215.680191
 42
0.008980
  0
VERTEX
  8
0
 10
132.101862
 20
214.894450
 42
0.166467
  0
VERTEX
  8
0
 10
132.000000
 20
214.596976
 42
-0.159403
  0
VERTEX
  8
0
 10
131.900990
 20
214.294304
 42
-0.008051
  0
VERTEX
  8
0
 10
131.265625
 20
213.455733
 42
-0.012231
  0
VERTEX
  8
0
 10
130.457814
 20
212.474888
 42
-0.008497
  0
VERTEX
  8
0
 10
129.500000
 20
211.405499
 42
0.030777
  0
VERTEX
  8
0
 10
128.543248
 20
210.236483
 42
0.030525
  0
VERTEX
  8
0
 10
127.734375
 20
208.955752
 42
0.032033
  0
VERTEX
  8
0
 10
127.169831
 20
207.751080
 42
0.093822
  0
VERTEX
  8
0
 10
127.000000
 20
206.853977
 42
-0.056849
  0
VERTEX
  8
0
 10
126.919111
 20
206.144840
 42
-0.076214
  0
VERTEX
  8
0
 10
126.679868
 20
205.544606
 42
-0.095304
  0
VERTEX
  8
0
 10
126.325935
 20
205.142243
 42
-0.166337
  0
VERTEX
  8
0
 10
125.910190
 20
205.000000
 42
0.172401
  0
VERTEX
  8
0
 10
124.469641
 20
204.488081
 42
0.020641
  0
VERTEX
  8
0
 10
121.899010
 20
202.214442
 42
0.020226
  0
VERTEX
  8
0
 10
119.522152
 20
199.738123
 42
0.183122
  0
VERTEX
  8
0
 10
119.000000
 20
198.360236
 42
-0.110368
  0
VERTEX
  8
0
 10
118.892833
 20
197.880651
 42
-0.066233
  0
VERTEX
  8
0
 10
118.575582
 20
197.387827
 42
-0.061333
  0
VERTEX
  8
0
 10
118.107599
 20
196.957028
 42
-0.063869
  0
VERTEX
  8
0
 10
117.555173
 20
196.659545
 42
0.139245
  0
VERTEX
  8
0
 10
116.954466
 20
196.209375
 42
0.042953
  0
VERTEX
  8
0
 10
116.342807
 20
195.244762
 42
0.039225
  0
VERTEX
  8
0
 10
115.813475
 20
193.995744
 42
0.034263
  0
VERTEX
  8
0
 10
115.456877
 20
192.621826
 42
-0.033267
  0
VERTEX
  8
0
 10
115.103501
 20
191.249094
 42
-0.038523
  0
VERTEX
  8
0
 10
114.583614
 20
190.003750
 42
-0.042104
  0
VERTEX
  8
0
 10
113.985768
 20
189.043009
 42
-0.141838
  0
VERTEX
  8
0
 10
113.401704
 20
188.600654
 42
0.080182
  0
VERTEX
  8
0
 10
112.865865
 20
188.289262
 42
0.065529
  0
VERTEX
  8
0
 10
112.411751
 20
187.805189
 42
0.066588
  0
VERTEX
  8
0
 10
112.104726
 20
187.229059
 42
0.089399
  0
VERTEX
  8
0
 10
112.000000
 20
186.648016
 42
-0.126780
  0
VERTEX
  8
0
 10
111.850551
 20
186.068085
 42
-0.074330
  0
VERTEX
  8
0
 10
111.412500
 20
185.495212
 42
-0.066360
  0
VERTEX
  8
0
 10
110.764655
 20
185.015807
 42
-0.062272
  0
VERTEX
  8
0
 10
110.000000
 20
184.710251
 42
0.081620
  0
VERTEX
  8
0
 10
109.220517
 20
184.363410
 42
0.076991
  0
VERTEX
  8
0
 10
108.575028
 20
183.779660
 42
0.078758
  0
VERTEX
  8
0
 10
108.147720
 20
183.041437
 42
0.092139
  0
VERTEX
  8
0
 10
108.000000
 20
182.246629
 42
-0.075225
  0
VERTEX
  8
0
 10
107.863414
 20
181.343915
 42
-0.033588
  0
VERTEX
  8
0
 10
107.430535
 20
180.219475
 42
-0.032287
  0
VERTEX
  8
0
 10
106.803351
 20
179.069200
 42
-0.037696
  0
VERTEX
  8
0
 10
106.061397
 20
178.070791
 42
0.038899
  0
VERTEX
  8
0
 10
105.272043
 20
177.003247
 42
0.023711
  0
VERTEX
  8
0
 10
104.504008
 20
175.635063
 42
0.023694
  0
VERTEX
  8
0
 10
103.867765
 20
174.197719
 42
0.038305
  0
VERTEX
  8
0
 10
103.481942
 20
172.917782
 42
-0.023341
  0
VERTEX
  8
0
 10
103.181144
 20
171.800010
 42
-0.034530
  0
VERTEX
  8
0
 10
102.806081
 20
170.857098
 42
-0.037199
  0
VERTEX
  8
0
 10
102.414789
 20
170.176820
 42
-0.248550
  0
VERTEX
  8
0
 10
102.081060
 20
170.000000
 42
0.267401
  0
VERTEX
  8
0
 10
101.237729
 20
169.514252
 42
0.027491
  0
VERTEX
  8
0
 10
100.154340
 20
167.385021
 42
0.033319
  0
VERTEX
  8
0
 10
99.278463
 20
164.978772
 42
0.070737
  0
VERTEX
  8
0
 10
99.000000
 20
163.020335
 42
-0.096687
  0
VERTEX
  8
0
 10
98.850042
 20
162.252099
 42
-0.071432
  0
VERTEX
  8
0
 10
98.412500
 20
161.502193
 42
-0.069203
  0
VERTEX
  8
0
 10
97.764394
 20
160.883952
 42
-0.079241
  0
VERTEX
  8
0
 10
97.000000
 20
160.500000
 42
0.060770
  0
VERTEX
  8
0
 10
96.235286
 20
160.150468
 42
0.063046
  0
VERTEX
  8
0
 10
95.587500
 20
159.630860
 42
0.069989
  0
VERTEX
  8
0
 10
95.148573
 20
159.027698
 42
0.122947
  0
VERTEX
  8
0
 10
95.000000
 20
158.432612
 42
-0.068054
  0
VERTEX
  8
0
 10
94.925123
 20
157.885024
 42
-0.084602
  0
VERTEX
  8
0
 10
94.706250
 20
157.420830
 42
-0.099744
  0
VERTEX
  8
0
 10
94.381340
 20
157.110427
 42
-0.141874
  0
VERTEX
  8
0
 10
94.000000
 20
157.000000
 42
0.358912
  0
VERTEX
  8
0
 10
93.586179
 20
156.659026
 42
0.017020
  0
VERTEX
  8
0
 10
93.281250
 20
154.750000
 42
0.020476
  0
VERTEX
  8
0
 10
93.067911
 20
152.198174
 42
0.010616
  0
VERTEX
  8
0
 10
93.000000
 20
149.000000
 42
0.010616
  0
VERTEX
  8
0
 10
93.067911
 20
145.801826
 42
0.020476
  0
VERTEX
  8
0
 10
93.281250
 20
143.250000
 42
0.017020
  0
VERTEX
  8
0
 10
93.586179
 20
141.340974
 42
0.358912
  0
VERTEX
  8
0
 10
94.000000
 20
141.000000
 42
-0.254951
  0
VERTEX
  8
0
 10
94.384262
 20
140.790443
 42
-0.062710
  0
VERTEX
  8
0
 10
94.706250
 20
140.118750
 42
-0.048861
  0
VERTEX
  8
0
 10
94.927234
 20
139.149251
 42
-0.031626
  0
VERTEX
  8
0
 10
95.000000
 20
138.000000
 42
0.031626
  0
VERTEX
  8
0
 10
95.072766
 20
136.850749
 42
0.048861
  0
VERTEX
  8
0
 10
95.293750
 20
135.881250
 42
0.062710
  0
VERTEX
  8
0
 10
95.615738
 20
135.209557
 42
0.254951
  0
VERTEX
  8
0
 10
96.000000
 20
135.000000
 42
-0.137184
  0
VERTEX
  8
0
 10
96.381339
 20
134.893366
 42
-0.100221
  0
VERTEX
  8
0
 10
96.706250
 20
134.593635
 42
-0.086212
  0
VERTEX
  8
0
 10
96.924980
 20
134.145317
 42
-0.070596
  0
VERTEX
  8
0
 10
97.000000
 20
133.616631
 42
0.129214
  0
VERTEX
  8
0
 10
97.149263
 20
133.048695
 42
0.073972
  0
VERTEX
  8
0
 10
97.587500
 20
132.485993
 42
0.065681
  0
VERTEX
  8
0
 10
98.235306
 20
132.013407
 42
0.060903
  0
VERTEX
  8
0
 10
99.000000
 20
131.710251
 42
-0.074316
  0
VERTEX
  8
0
 10
99.764364
 20
131.383349
 42
-0.071178
  0
VERTEX
  8
0
 10
100.412500
 20
130.843373
 42
-0.075834
  0
VERTEX
  8
0
 10
100.849621
 20
130.180084
 42
-0.108248
  0
VERTEX
  8
0
 10
101.000000
 20
129.493620
 42
0.122627
  0
VERTEX
  8
0
 10
101.217522
 20
128.620030
 42
0.026237
  0
VERTEX
  8
0
 10
102.028125
 20
127.269376
 42
0.025937
  0
VERTEX
  8
0
 10
103.160184
 20
125.764224
 42
0.022173
  0
VERTEX
  8
0
 10
104.500000
 20
124.300000
 42
-0.027696
  0
VERTEX
  8
0
 10
105.840546
 20
122.802108
 42
-0.029580
  0
VERTEX
  8
0
 10
106.975886
 20
121.196562
 42
-0.030935
  0
VERTEX
  8
0
 10
107.776990
 20
119.710810
 42
-0.106982
  0
VERTEX
  8
0
 10
108.013655
 20
118.650000
 42
0.035527
  0
VERTEX
  8
0
 10
108.212084
 20
116.090608
 42
0.054604
  0
VERTEX
  8
0
 10
108.777472
 20
113.943653
 42
0.071861
  0
VERTEX
  8
0
 10
109.596910
 20
112.478941
 42
0.233418
  0
VERTEX
  8
0
 10
110.566941
 20
112.000000
 42
-0.096602
  0
VERTEX
  8
0
 10
111.140090
 20
111.888222
 42
-0.055924
  0
VERTEX
  8
0
 10
111.759360
 20
111.552367
 42
-0.052969
  0
VERTEX
  8
0
 10
112.328174
 20
111.058973
 42
-0.060132
  0
VERTEX
  8
0
 10
112.753413
 20
110.476144
 42
0.151324
  0
VERTEX
  8
0
 10
113.474906
 20
109.790094
 42
0.030153
  0
VERTEX
  8
0
 10
115.133057
 20
109.089886
 42
0.027586
  0
VERTEX
  8
0
 10
117.340573
 20
108.445242
 42
0.017324
  0
VERTEX
  8
0
 10
119.979366
 20
107.925920
 42
-0.018123
  0
VERTEX
  8
0
 10
122.816500
 20
107.362856
 42
-0.030357
  0
VERTEX
  8
0
 10
125.143703
 20
106.661148
 42
-0.036644
  0
VERTEX
  8
0
 10
126.924745
 20
105.851200
 42
-0.089307
  0
VERTEX
  8
0
 10
128.043559
 20
104.949776
 42
0.033760
  0
VERTEX
  8
0
 10
128.784554
 20
104.203646
 42
0.034870
  0
VERTEX
  8
0
 10
129.611636
 20
103.572747
 42
0.037166
  0
VERTEX
  8
0
 10
130.401756
 20
103.133239
 42
0.108759
  0
VERTEX
  8
0
 10
131.007053
 20
103.000000
 42
-0.104075
  0
VERTEX
  8
0
 10
131.584243
 20
102.878543
 42
-0.045288
  0
VERTEX
  8
0
 10
132.273276
 20
102.497349
 42
-0.042195
  0
VERTEX
  8
0
 10
132.957897
 20
101.943528
 42
-0.043756
  0
VERTEX
  8
0
 10
133.530739
 20
101.288849
 42
0.119520
  0
VERTEX
  8
0
 10
134.510894
 20
100.460739
 42
0.054067
  0
VERTEX
  8
0
 10
136.097116
 20
99.871688
 42
0.035706
  0
VERTEX
  8
0
 10
138.438424
 20
99.454923
 42
0.012084
  0
VERTEX
  8
0
 10
141.890982
 20
99.176002
 42
-0.011673
  0
VERTEX
  8
0
 10
144.616373
 20
98.958079
 42
-0.019056
  0
VERTEX
  8
0
 10
146.911726
 20
98.631704
 42
-0.013632
  0
VERTEX
  8
0
 10
148.709601
 20
98.254863
 42
-0.347258
  0
VERTEX
  8
0
 10
149.000000
 20
97.887153
 42
0.323974
  0
VERTEX
  8
0
 10
149.250473
 20
97.541165
 42
0.030742
  0
VERTEX
  8
0
 10
150.321875
 20
97.260601
 42
0.030114
  0
VERTEX
  8
0
 10
151.775084
 20
97.064048
 42
0.018559
  0
VERTEX
  8
0
 10
153.500000
 20
97.000000
 42
0.019264
  0
VERTEX
  8
0
 10
155.224871
 20
97.066482
 42
0.031193
  0
VERTEX
  8
0
 10
156.678125
 20
97.270410
 42
0.032580
  0
VERTEX
  8
0
 10
157.744345
 20
97.561962
 42
0.319980
  0
VERTEX
  8
0
 10
158.000000
 20
97.920545
 42
-0.230346
  0
VERTEX
  8
0
 10
158.193748
 20
98.318790
 42
-0.045180
  0
VERTEX
  8
0
 10
158.881250
 20
98.764234
 42
-0.039605
  0
VERTEX
  8
0
 10
159.850988
 20
99.180468
 42
-0.027524
  0
VERTEX
  8
0
 10
161.000000
 20
99.500000
 42
0.029677
  0
VERTEX
  8
0
 10
162.148878
 20
99.824824
 42
0.042073
  0
VERTEX
  8
0
 10
163.118750
 20
100.256748
 42
0.048937
  0
VERTEX
  8
0
 10
163.801367
 20
100.724619
 42
0.221556
  0
VERTEX
  8
0
 10
164.000000
 20
101.150884
 42
-0.154891
  0
VERTEX
  8
0
 10
164.379325
 20
102.346000
 42
-0.060225
  0
VERTEX
  8
0
 10
165.555930
 20
103.647655
 42
-0.059407
  0
VERTEX
  8
0
 10
167.052530
 20
104.664599
 42
-0.120113
  0
VERTEX
  8
0
 10
168.428571
 20
105.000000
 42
0.061768
  0
VERTEX
  8
0
 10
169.029450
 20
105.074515
 42
0.080164
  0
VERTEX
  8
0
 10
169.538393
 20
105.293750
 42
0.097780
  0
VERTEX
  8
0
 10
169.879052
 20
105.618614
 42
0.154765
  0
VERTEX
  8
0
 10
170.000000
 20
106.000000
 42
-0.256202
  0
VERTEX
  8
0
 10
170.210767
 20
106.384331
 42
-0.062149
  0
VERTEX
  8
0
 10
170.888521
 20
106.706250
 42
-0.048510
  0
VERTEX
  8
0
 10
171.866001
 20
106.927247
 42
-0.031362
  0
VERTEX
  8
0
 10
173.024751
 20
107.000000
 42
0.042136
  0
VERTEX
  8
0
 10
174.531830
 20
107.127231
 42
0.096309
  0
VERTEX
  8
0
 10
175.594715
 20
107.527876
 42
0.105941
  0
VERTEX
  8
0
 10
176.368215
 20
108.268356
 42
0.058263
  0
VERTEX
  8
0
 10
176.975629
 20
109.435898
 42
-0.054556
  0
VERTEX
  8
0
 10
178.236351
 20
111.903578
 42
-0.035994
  0
VERTEX
  8
0
 10
180.174544
 20
114.435839
 42
-0.033649
  0
VERTEX
  8
0
 10
182.228825
 20
116.461086
 42
-0.179648
  0
VERTEX
  8
0
 10
183.680335
 20
117.000000
 42
0.112905
  0
VERTEX
  8
0
 10
184.183746
 20
117.115143
 42
0.100221
  0
VERTEX
  8
0
 10
184.612349
 20
117.440625
 42
0.094166
  0
VERTEX
  8
0
 10
184.899920
 20
117.927237
 42
0.086709
  0
VERTEX
  8
0
 10
185.000000
 20
118.500000
 42
-0.068204
  0
VERTEX
  8
0
 10
185.078573
 20
119.073340
 42
-0.084700
  0
VERTEX
  8
0
 10
185.308214
 20
119.559375
 42
-0.099777
  0
VERTEX
  8
0
 10
185.649123
 20
119.884377
 42
-0.141590
  0
VERTEX
  8
0
 10
186.049239
 20
120.000000
 42
0.170777
  0
VERTEX
  8
0
 10
186.691253
 20
120.225870
 42
0.007472
  0
VERTEX
  8
0
 10
188.547300
 20
121.762500
 42
0.011949
  0
VERTEX
  8
0
 10
190.711910
 20
123.701072
 42
0.008173
  0
VERTEX
  8
0
 10
193.079876
 20
126.000000
 42
-0.007554
  0
VERTEX
  8
0
 10
195.442116
 20
128.299049
 42
-0.011155
  0
VERTEX
  8
0
 10
197.588989
 20
130.237500
 42
-0.006587
  0
VERTEX
  8
0
 10
199.431535
 20
131.786129
 42
-0.173142
  0
VERTEX
  8
0
 10
200.030637
 20
132.000000
 42
0.146134
  0
VERTEX
  8
0
 10
200.400301
 20
132.110399
 42
0.099196
  0
VERTEX
  8
0
 10
200.715250
 20
132.420830
 42
0.083135
  0
VERTEX
  8
0
 10
200.927537
 20
132.884952
 42
0.065870
  0
VERTEX
  8
0
 10
201.000000
 20
133.432612
 42
-0.114995
  0
VERTEX
  8
0
 10
201.137864
 20
134.024122
 42
-0.070931
  0
VERTEX
  8
0
 10
201.542921
 20
134.616711
 42
-0.065110
  0
VERTEX
  8
0
 10
202.141658
 20
135.120552
 42
-0.065637
  0
VERTEX
  8
0
 10
202.848243
 20
135.451834
 42
0.080594
  0
VERTEX
  8
0
 10
203.635955
 20
135.850155
 42
0.041303
  0
VERTEX
  8
0
 10
204.476524
 20
136.574945
 42
0.039658
  0
VERTEX
  8
0
 10
205.238816
 20
137.484773
 42
0.047684
  0
VERTEX
  8
0
 10
205.795921
 20
138.451440
 42
-0.044311
  0
VERTEX
  8
0
 10
207.239945
 20
140.996499
 42
-0.033702
  0
VERTEX
  8
0
 10
209.237160
 20
143.506909
 42
-0.031378
  0
VERTEX
  8
0
 10
211.282873
 20
145.485202
 42
-0.178332
  0
VERTEX
  8
0
 10
212.680335
 20
146.000000
 42
0.109107
  0
VERTEX
  8
0
 10
213.183799
 20
146.111186
 42
0.099785
  0
VERTEX
  8
0
 10
213.612349
 20
146.426029
 42
0.095288
  0
VERTEX
  8
0
 10
213.899738
 20
146.896601
 42
0.089807
  0
VERTEX
  8
0
 10
214.000000
 20
147.450310
 42
-0.074843
  0
VERTEX
  8
0
 10
214.092427
 20
148.064321
 42
-0.052257
  0
VERTEX
  8
0
 10
214.367667
 20
148.709500
 42
-0.052020
  0
VERTEX
  8
0
 10
214.772744
 20
149.287109
 42
-0.071800
  0
VERTEX
  8
0
 10
215.251631
 20
149.700310
 42
0.068298
  0
VERTEX
  8
0
 10
215.828288
 20
150.190901
 42
0.021196
  0
VERTEX
  8
0
 10
216.551942
 20
151.072904
 42
0.020756
  0
VERTEX
  8
0
 10
217.286031
 20
152.138577
 42
0.021455
  0
VERTEX
  8
0
 10
217.920611
 20
153.250000
 42
-0.026929
  0
VERTEX
  8
0
 10
219.172576
 20
155.388051
 42
-0.270282
  0
VERTEX
  8
0
 10
220.064153
 20
155.828966
 42
-0.257861
  0
VERTEX
  8
0
 10
220.918603
 20
155.277170
 42
-0.024995
  0
VERTEX
  8
0
 10
222.013059
 20
152.968472
 42
-0.088025
  0
VERTEX
  8
0
 10
222.875979
 20
149.056377
 42
-0.030508
  0
VERTEX
  8
0
 10
222.762880
 20
143.255465
 42
-0.026475
  0
VERTEX
  8
0
 10
222.016426
 20
137.694336
 42
-0.190520
  0
VERTEX
  8
0
 10
220.599870
 20
135.449368
 42
0.033143
  0
VERTEX
  8
0
 10
219.987523
 20
134.936068
 42
0.036543
  0
VERTEX
  8
0
 10
219.469603
 20
134.361793
 42
0.039398
  0
VERTEX
  8
0
 10
219.107545
 20
133.811623
 42
0.126140
  0
VERTEX
  8
0
 10
218.998779
 20
133.389757
 42
-0.130071
  0
VERTEX
  8
0
 10
218.864972
 20
132.886892
 42
-0.015932
  0
VERTEX
  8
0
 10
218.263900
 20
131.907864
 42
-0.017995
  0
VERTEX
  8
0
 10
217.455754
 20
130.772170
 42
-0.013958
  0
VERTEX
  8
0
 10
216.498779
 20
129.594461
 42
0.013282
  0
VERTEX
  8
0
 10
215.541846
 20
128.420048
 42
0.017345
  0
VERTEX
  8
0
 10
214.734016
 20
127.294363
 42
0.015019
  0
VERTEX
  8
0
 10
214.130198
 20
126.326405
 42
0.132697
  0
VERTEX
  8
0
 10
214.000000
 20
125.844461
 42
-0.223022
  0
VERTEX
  8
0
 10
213.848262
 20
125.521196
 42
-0.076400
  0
VERTEX
  8
0
 10
213.393188
 20
125.248060
 42
-0.058106
  0
VERTEX
  8
0
 10
212.725278
 20
125.061785
 42
-0.038995
  0
VERTEX
  8
0
 10
211.934259
 20
125.000000
 42
0.071300
  0
VERTEX
  8
0
 10
209.589151
 20
124.663881
 42
0.096131
  0
VERTEX
  8
0
 10
207.688549
 20
123.683115
 42
0.097312
  0
VERTEX
  8
0
 10
206.308694
 20
122.073596
 42
0.074765
  0
VERTEX
  8
0
 10
205.479464
 20
119.906499
 42
-0.064378
  0
VERTEX
  8
0
 10
204.666002
 20
117.641389
 42
-0.044380
  0
VERTEX
  8
0
 10
203.211369
 20
115.331819
 42
-0.044298
  0
VERTEX
  8
0
 10
201.561392
 20
113.522263
 42
-0.187905
  0
VERTEX
  8
0
 10
200.220759
 20
113.000000
 42
0.158903
  0
VERTEX
  8
0
 10
199.828757
 20
112.872192
 42
0.029756
  0
VERTEX
  8
0
 10
199.238385
 20
112.385102
 42
0.029189
  0
VERTEX
  8
0
 10
198.590984
 20
111.708175
 42
0.023071
  0
VERTEX
  8
0
 10
197.970759
 20
110.906729
 42
-0.007542
  0
VERTEX
  8
0
 10
197.281496
 20
109.956528
 42
-0.004248
  0
VERTEX
  8
0
 10
196.417973
 20
108.823308
 42
-0.004238
  0
VERTEX
  8
0
 10
195.526829
 20
107.694118
 42
-0.006921
  0
VERTEX
  8
0
 10
194.750000
 20
106.753719
 42
0.015418
  0
VERTEX
  8
0
 10
194.079921
 20
105.913887
 42
0.019318
  0
VERTEX
  8
0
 10
193.514062
 20
105.093793
 42
0.017814
  0
VERTEX
  8
0
 10
193.097713
 20
104.382745
 42
0.124157
  0
VERTEX
  8
0
 10
193.000000
 20
103.995304
 42
-0.195707
  0
VERTEX
  8
0
 10
192.338939
 20
102.371086
 42
-0.026921
  0
VERTEX
  8
0
 10
189.596730
 20
99.847472
 42
-0.030125
  0
VERTEX
  8
0
 10
186.529879
 20
97.612101
 42
-0.114357
  0
VERTEX
  8
0
 10
184.310343
 20
96.822245
 42
0.045328
  0
VERTEX
  8
0
 10
183.004549
 20
96.551070
 42
0.094348
  0
VERTEX
  8
0
 10
182.087539
 20
96.069586
 42
0.110656
  0
VERTEX
  8
0
 10
181.501874
 20
95.343491
 42
0.079363
  0
VERTEX
  8
0
 10
181.192773
 20
94.344045
 42
-0.084208
  0
VERTEX
  8
0
 10
180.896938
 20
93.419130
 42
-0.076237
  0
VERTEX
  8
0
 10
180.305306
 20
92.607294
 42
-0.072195
  0
VERTEX
  8
0
 10
179.464479
 20
91.975085
 42
-0.063752
  0
VERTEX
  8
0
 10
178.442773
 20
91.574993
 42
0.051298
  0
VERTEX
  8
0
 10
177.508396
 20
91.235601
 42
0.060485
  0
VERTEX
  8
0
 10
176.717565
 20
90.726760
 42
0.070716
  0
VERTEX
  8
0
 10
176.179987
 20
90.134499
 42
0.150072
  0
VERTEX
  8
0
 10
176.000000
 20
89.548336
 42
-0.124325
  0
VERTEX
  8
0
 10
175.851550
 20
88.960541
 42
-0.069787
  0
VERTEX
  8
0
 10
175.412500
 20
88.363543
 42
-0.062678
  0
VERTEX
  8
0
 10
174.764735
 20
87.848082
 42
-0.059977
  0
VERTEX
  8
0
 10
174.000000
 20
87.500000
 42
0.038070
  0
VERTEX
  8
0
 10
173.234539
 20
87.191213
 42
0.048320
  0
VERTEX
  8
0
 10
172.587500
 20
86.789057
 42
0.056431
  0
VERTEX
  8
0
 10
172.139993
 20
86.359093
 42
0.174913
  0
VERTEX
  8
0
 10
172.000000
 20
85.971156
 42
-0.254871
  0
VERTEX
  8
0
 10
171.777216
 20
85.562494
 42
-0.028684
  0
VERTEX
  8
0
 10
170.825000
 20
85.023326
 42
-0.029178
  0
VERTEX
  8
0
 10
169.532546
 20
84.477613
 42
-0.019540
  0
VERTEX
  8
0
 10
168.000000
 20
84.000000
 42
0.019275
  0
VERTEX
  8
0
 10
166.467433
 20
83.523269
 42
0.028835
  0
VERTEX
  8
0
 10
165.175000
 20
82.980219
 42
0.028148
  0
VERTEX
  8
0
 10
164.221268
 20
82.444594
 42
0.256089
  0
VERTEX
  8
0
 10
164.000000
 20
82.040911
 42
-0.237635
  0
VERTEX
  8
0
 10
163.806679
 20
81.657122
 42
-0.042010
  0
VERTEX
  8
0
 10
163.099935
 20
81.220311
 42
-0.037569
  0
VERTEX
  8
0
 10
162.109602
 20
80.807986
 42
-0.025809
  0
VERTEX
  8
0
 10
160.935949
 20
80.485932
 42
0.099725
  0
VERTEX
  8
0
 10
158.714039
 20
79.506994
 42
0.095942
  0
VERTEX
  8
0
 10
157.008760
 20
77.733211
 42
0.102761
  0
VERTEX
  8
0
 10
156.167586
 20
75.561956
 42
0.133590
  0
VERTEX
  8
0
 10
156.381334
 20
73.448643
 42
0.146220
  0
VERTEX
  8
0
 10
157.026139
 20
72.612292
 42
0.122225
  0
VERTEX
  8
0
 10
158.071085
 20
72.194465
 42
0.052848
  0
VERTEX
  8
0
 10
159.897380
 20
72.136844
 42
0.008157
  0
VERTEX
  8
0
 10
163.512794
 20
72.464467
 42
-0.006063
  0
VERTEX
  8
0
 10
167.429996
 20
72.835981
 42
-0.067345
  0
VERTEX
  8
0
 10
168.995408
 20
72.754422
 42
-0.214191
  0
VERTEX
  8
0
 10
169.720611
 20
72.249133
 42
-0.135889
  0
VERTEX
  8
0
 10
170.000000
 20
71.240109
 42
-0.107339
  0
VERTEX
  8
0
 10
169.822836
 20
70.424359
 42
-0.061532
  0
VERTEX
  8
0
 10
169.293669
 20
69.562478
 42
-0.057162
  0
VERTEX
  8
0
 10
168.514485
 20
68.786927
 42
-0.060407
  0
VERTEX
  8
0
 10
167.593523
 20
68.224566
 42
0.071119
  0
VERTEX
  8
0
 10
166.563988
 20
67.565356
 42
0.055582
  0
VERTEX
  8
0
 10
165.659888
 20
66.591409
 42
0.053059
  0
VERTEX
  8
0
 10
164.954933
 20
65.391426
 42
0.052281
  0
VERTEX
  8
0
 10
164.514068
 20
64.064051
 42
-0.023463
  0
VERTEX
  8
0
 10
164.197887
 20
62.890252
 42
-0.034683
  0
VERTEX
  8
0
 10
163.803111
 20
61.900065
 42
-0.037442
  0
VERTEX
  8
0
 10
163.390933
 20
61.186093
 42
-0.248000
  0
VERTEX
  8
0
 10
163.038822
 20
61.000000
 42
0.356033
  0
VERTEX
  8
0
 10
162.695248
 20
60.719839
 42
0.007624
  0
VERTEX
  8
0
 10
162.260999
 20
58.429687
 42
0.014000
  0
VERTEX
  8
0
 10
161.850946
 20
55.604699
 42
0.008539
  0
VERTEX
  8
0
 10
161.517504
 20
52.250000
 42
-0.009505
  0
VERTEX
  8
0
 10
161.073178
 20
47.865840
 42
-0.030883
  0
VERTEX
  8
0
 10
160.545259
 20
44.993425
 42
-0.047770
  0
VERTEX
  8
0
 10
159.855306
 20
43.036578
 42
-0.095500
  0
VERTEX
  8
0
 10
158.899227
 20
41.711045
 42
0.096079
  0
VERTEX
  8
0
 10
157.539800
 20
39.821733
 42
0.111654
  0
VERTEX
  8
0
 10
157.079691
 20
37.660480
 42
0.113010
  0
VERTEX
  8
0
 10
157.595466
 20
35.531590
 42
0.100319
  0
VERTEX
  8
0
 10
159.000000
 20
33.732028
 42
-0.139251
  0
VERTEX
  8
0
 10
160.481325
 20
31.500259
 42
-0.074587
  0
VERTEX
  8
0
 10
161.013674
 20
28.208999
 42
-0.072284
  0
VERTEX
  8
0
 10
160.556005
 20
24.784474
 42
-0.109756
  0
VERTEX
  8
0
 10
159.132705
 20
22.153010
 42
-0.090499
  0
VERTEX
  8
0
 10
157.471496
 20
20.821046
 42
-0.077528
  0
VERTEX
  8
0
 10
155.355630
 20
20.071188
 42
-0.112872
  0
VERTEX
  8
0
 10
153.660686
 20
20.137242
 42
-0.338912
  0
VERTEX
  8
0
 10
153.000000
 20
21.000000
 42
0.146420
  0
VERTEX
  8
0
 10
152.885879
 20
21.381348
 42
0.099156
  0
VERTEX
  8
0
 10
152.564972
 20
21.706250
 42
0.083036
  0
VERTEX
  8
0
 10
152.085195
 20
21.925255
 42
0.065727
  0
VERTEX
  8
0
 10
151.519052
 20
22.000000
 42
0.239053
  0
VERTEX
  8
0
 10
150.375198
 20
21.419969
 42
0.083518
  0
VERTEX
  8
0
 10
149.522351
 20
19.722349
 42
0.061690
  0
VERTEX
  8
0
 10
149.083316
 20
17.248991
 42
0.041701
  0
VERTEX
  8
0
 10
149.171918
 20
14.382670
 42
0.048071
  0
VERTEX
  8
0
 10
149.497757
 20
12.856347
 42
0.134757
  0
VERTEX
  8
0
 10
150.086424
 20
11.946555
 42
0.113573
  0
VERTEX
  8
0
 10
151.125469
 20
11.375638
 42
0.029143
  0
VERTEX
  8
0
 10
153.008959
 20
10.958439
 42
-0.061652
  0
VERTEX
  8
0
 10
155.787959
 20
10.150710
 42
-0.053698
  0
VERTEX
  8
0
 10
158.429233
 20
8.661819
 42
-0.058295
  0
VERTEX
  8
0
 10
160.385258
 20
6.886330
 42
-0.181268
  0
VERTEX
  8
0
 10
161.000000
 20
5.246374
 42
0.101706
  0
VERTEX
  8
0
 10
161.111705
 20
4.702899
 42
0.066795
  0
VERTEX
  8
0
 10
161.440625
 20
4.152708
 42
0.063283
  0
VERTEX
  8
0
 10
161.926541
 20
3.679464
 42
0.069959
  0
VERTEX
  8
0
 10
162.500000
 20
3.361626
 42
-0.074185
  0
VERTEX
  8
0
 10
163.073431
 20
3.037471
 42
-0.064359
  0
VERTEX
  8
0
 10
163.559375
 20
2.545909
 42
-0.066860
  0
VERTEX
  8
0
 10
163.888097
 20
1.968559
 42
-0.096313
  0
VERTEX
  8
0
 10
164.000000
 20
1.393011
 42
0.142170
  0
VERTEX
  8
0
 10
164.154161
 20
0.861800
 42
0.099710
  0
VERTEX
  8
0
 10
164.587500
 20
0.409197
 42
0.084500
  0
VERTEX
  8
0
 10
165.235532
 20
0.104293
 42
0.067898
  0
VERTEX
  8
0
 10
166.000000
 20
0.000000
 42
0.072314
  0
VERTEX
  8
0
 10
166.769411
 20
0.111864
 42
0.088920
  0
VERTEX
  8
0
 10
167.416667
 20
0.437500
 42
0.102140
  0
VERTEX
  8
0
 10
167.846791
 20
0.924246
 42
0.130775
  0
VERTEX
  8
0
 10
168.000000
 20
1.500000
 42
-0.124756
  0
VERTEX
  8
0
 10
168.144994
 20
2.072067
 42
-0.100781
  0
VERTEX
  8
0
 10
168.553240
 20
2.559375
 42
-0.090403
  0
VERTEX
  8
0
 10
169.163903
 20
2.886866
 42
-0.078143
  0
VERTEX
  8
0
 10
169.883369
 20
3.000000
 42
0.186440
  0
VERTEX
  8
0
 10
171.326267
 20
3.557405
 42
0.129476
  0
VERTEX
  8
0
 10
172.288431
 20
5.038938
 42
0.147373
  0
VERTEX
  8
0
 10
172.330424
 20
6.664860
 42
0.238782
  0
VERTEX
  8
0
 10
171.422377
 20
7.668160
 42
-0.138359
  0
VERTEX
  8
0
 10
170.457164
 20
8.388877
 42
-0.147558
  0
VERTEX
  8
0
 10
170.040876
 20
9.490021
 42
-0.162399
  0
VERTEX
  8
0
 10
170.318294
 20
10.560620
 42
-0.169987
  0
VERTEX
  8
0
 10
171.178484
 20
11.226161
 42
0.249050
  0
VERTEX
  8
0
 10
171.706241
 20
11.780457
 42
0.019671
  0
VERTEX
  8
0
 10
172.192107
 20
13.824480
 42
0.021173
  0
VERTEX
  8
0
 10
172.615902
 20
16.596760
 42
0.010580
  0
VERTEX
  8
0
 10
172.928484
 20
20.131750
 42
-0.010225
  0
VERTEX
  8
0
 10
173.290085
 20
24.254492
 42
-0.028645
  0
VERTEX
  8
0
 10
173.766761
 20
27.113511
 42
-0.041445
  0
VERTEX
  8
0
 10
174.395791
 20
29.109303
 42
-0.099696
  0
VERTEX
  8
0
 10
175.250000
 20
30.393684
 42
0.056261
  0
VERTEX
  8
0
 10
176.450152
 20
31.898528
 42
0.101336
  0
VERTEX
  8
0
 10
177.002177
 20
33.370264
 42
0.031911
  0
VERTEX
  8
0
 10
177.231602
 20
35.828421
 42
0.001430
  0
VERTEX
  8
0
 10
177.456515
 20
44.344677
 42
-0.009350
  0
VERTEX
  8
0
 10
177.622230
 20
48.265104
 42
-0.015458
  0
VERTEX
  8
0
 10
177.926138
 20
51.564302
 42
-0.010983
  0
VERTEX
  8
0
 10
178.308346
 20
54.186581
 42
-0.215894
  0
VERTEX
  8
0
 10
178.752391
 20
54.846969
 42
0.139477
  0
VERTEX
  8
0
 10
179.206377
 20
55.344111
 42
0.026158
  0
VERTEX
  8
0
 10
179.703357
 20
56.485736
 42
0.026176
  0
VERTEX
  8
0
 10
180.157497
 20
57.923540
 42
0.021336
  0
VERTEX
  8
0
 10
180.495535
 20
59.502292
 42
-0.009161
  0
VERTEX
  8
0
 10
181.288644
 20
63.703428
 42
-0.071317
  0
VERTEX
  8
0
 10
181.965550
 20
65.573462
 42
-0.120684
  0
VERTEX
  8
0
 10
183.006999
 20
66.737425
 42
-0.046024
  0
VERTEX
  8
0
 10
184.920641
 20
67.804578
 42
0.049902
  0
VERTEX
  8
0
 10
186.297998
 20
68.586703
 42
0.070533
  0
VERTEX
  8
0
 10
187.321992
 20
69.554118
 42
0.070131
  0
VERTEX
  8
0
 10
188.040687
 20
70.772515
 42
0.048686
  0
VERTEX
  8
0
 10
188.507037
 20
72.303886
 42
-0.011114
  0
VERTEX
  8
0
 10
189.353373
 20
76.079008
 42
-0.071535
  0
VERTEX
  8
0
 10
190.086916
 20
77.886148
 42
-0.114439
  0
VERTEX
  8
0
 10
191.152087
 20
79.015171
 42
-0.048514
  0
VERTEX
  8
0
 10
193.000000
 20
80.000000
 42
0.042769
  0
VERTEX
  8
0
 10
194.166820
 20
80.604770
 42
0.039417
  0
VERTEX
  8
0
 10
195.248217
 20
81.414067
 42
0.041796
  0
VERTEX
  8
0
 10
196.095614
 20
82.295002
 42
0.094056
  0
VERTEX
  8
0
 10
196.534134
 20
83.107546
 42
-0.041961
  0
VERTEX
  8
0
 10
196.832823
 20
83.831705
 42
-0.051508
  0
VERTEX
  8
0
 10
197.232292
 20
84.444092
 42
-0.060160
  0
VERTEX
  8
0
 10
197.666746
 20
84.865111
 42
-0.163823
  0
VERTEX
  8
0
 10
198.067388
 20
85.000000
 42
0.158110
  0
VERTEX
  8
0
 10
198.423094
 20
85.115365
 42
0.097128
  0
VERTEX
  8
0
 10
198.726045
 20
85.440625
 42
0.079016
  0
VERTEX
  8
0
 10
198.930588
 20
85.926381
 42
0.060283
  0
VERTEX
  8
0
 10
199.000000
 20
86.500000
 42
-0.099038
  0
VERTEX
  8
0
 10
199.114514
 20
87.072457
 42
-0.097945
  0
VERTEX
  8
0
 10
199.440625
 20
87.559375
 42
-0.097945
  0
VERTEX
  8
0
 10
199.927543
 20
87.885486
 42
-0.099038
  0
VERTEX
  8
0
 10
200.500000
 20
88.000000
 42
0.095649
  0
VERTEX
  8
0
 10
201.072534
 20
88.110536
 42
0.097084
  0
VERTEX
  8
0
 10
201.559375
 20
88.426029
 42
0.098701
  0
VERTEX
  8
0
 10
201.885305
 20
88.896887
 42
0.102534
  0
VERTEX
  8
0
 10
202.000000
 20
89.450310
 42
-0.078232
  0
VERTEX
  8
0
 10
202.096663
 20
90.064324
 42
-0.053684
  0
VERTEX
  8
0
 10
202.384438
 20
90.709500
 42
-0.053095
  0
VERTEX
  8
0
 10
202.808058
 20
91.286968
 42
-0.070942
  0
VERTEX
  8
0
 10
203.308724
 20
91.700310
 42
0.086993
  0
VERTEX
  8
0
 10
203.899261
 20
92.220398
 42
0.024937
  0
VERTEX
  8
0
 10
204.615600
 20
93.212572
 42
0.024289
  0
VERTEX
  8
0
 10
205.325056
 20
94.432074
 42
0.023643
  0
VERTEX
  8
0
 10
205.919882
 20
95.725468
 42
-0.048721
  0
VERTEX
  8
0
 10
206.698345
 20
97.216599
 42
-0.056830
  0
VERTEX
  8
0
 10
207.717489
 20
98.446297
 42
-0.056664
  0
VERTEX
  8
0
 10
208.990040
 20
99.417739
 42
-0.047994
  0
VERTEX
  8
0
 10
210.519724
 20
100.143293
 42
0.040030
  0
VERTEX
  8
0
 10
212.084697
 20
100.855334
 42
0.074052
  0
VERTEX
  8
0
 10
213.190089
 20
101.704140
 42
0.082182
  0
VERTEX
  8
0
 10
213.926854
 20
102.771601
 42
0.060757
  0
VERTEX
  8
0
 10
214.377315
 20
104.136575
 42
-0.069656
  0
VERTEX
  8
0
 10
214.848149
 20
105.482647
 42
-0.023826
  0
VERTEX
  8
0
 10
215.883688
 20
107.277853
 42
-0.023151
  0
VERTEX
  8
0
 10
217.230239
 20
109.175437
 42
-0.024736
  0
VERTEX
  8
0
 10
218.718750
 20
110.897074
 42
0.005389
  0
VERTEX
  8
0
 10
222.273975
 20
114.701217
 42
0.036133
  0
VERTEX
  8
0
 10
223.876572
 20
116.729980
 42
0.061397
  0
VERTEX
  8
0
 10
224.782294
 20
118.496795
 42
0.033727
  0
VERTEX
  8
0
 10
225.463456
 20
120.833616
 42
-0.039362
  0
VERTEX
  8
0
 10
225.831579
 20
122.045566
 42
-0.052001
  0
VERTEX
  8
0
 10
226.361571
 20
123.069875
 42
-0.062611
  0
VERTEX
  8
0
 10
226.963181
 20
123.774854
 42
-0.186956
  0
VERTEX
  8
0
 10
227.544272
 20
124.000000
 42
0.126638
  0
VERTEX
  8
0
 10
228.160798
 20
124.158696
 42
0.052308
  0
VERTEX
  8
0
 10
228.873162
 20
124.654876
 42
0.047261
  0
VERTEX
  8
0
 10
229.563735
 20
125.376473
 42
0.044425
  0
VERTEX
  8
0
 10
230.122752
 20
126.229364
 42
-0.018204
  0
VERTEX
  8
0
 10
230.677592
 20
127.181116
 42
-0.013276
  0
VERTEX
  8
0
 10
231.359624
 20
128.198084
 42
-0.013447
  0
VERTEX
  8
0
 10
232.058668
 20
129.128789
 42
-0.028584
  0
VERTEX
  8
0
 10
232.657936
 20
129.800793
 42
0.059028
  0
VERTEX
  8
0
 10
233.171876
 20
130.452870
 42
0.039007
  0
VERTEX
  8
0
 10
233.605769
 20
131.303701
 42
0.039029
  0
VERTEX
  8
0
 10
233.901928
 20
132.210756
 42
0.059464
  0
VERTEX
  8
0
 10
234.000000
 20
133.032473
 42
-0.078360
  0
VERTEX
  8
0
 10
234.134502
 20
133.885437
 42
-0.039716
  0
VERTEX
  8
0
 10
234.551052
 20
134.892520
 42
-0.038202
  0
VERTEX
  8
0
 10
235.158025
 20
135.887089
 42
-0.046235
  0
VERTEX
  8
0
 10
235.875921
 20
136.711045
 42
0.039863
  0
VERTEX
  8
0
 10
236.650373
 20
137.577412
 42
0.024374
  0
VERTEX
  8
0
 10
237.426134
 20
138.708869
 42
0.024357
  0
VERTEX
  8
0
 10
238.089243
 20
139.912439
 42
0.039305
  0
VERTEX
  8
0
 10
238.518968
 20
141.000000
 42
-0.040883
  0
VERTEX
  8
0
 10
238.947778
 20
142.075321
 42
-0.026568
  0
VERTEX
  8
0
 10
239.606231
 20
143.240706
 42
-0.026700
  0
VERTEX
  8
0
 10
240.375867
 20
144.316932
 42
-0.045050
  0
VERTEX
  8
0
 10
241.143047
 20
145.117295
 42
0.044430
  0
VERTEX
  8
0
 10
241.853589
 20
145.856739
 42
0.039412
  0
VERTEX
  8
0
 10
242.454520
 20
146.739117
 42
0.041514
  0
VERTEX
  8
0
 10
242.867657
 20
147.625582
 42
0.088515
  0
VERTEX
  8
0
 10
243.000000
 20
148.367295
 42
-0.059344
  0
VERTEX
  8
0
 10
243.074371
 20
148.991699
 42
-0.078271
  0
VERTEX
  8
0
 10
243.293750
 20
149.520393
 42
-0.096675
  0
VERTEX
  8
0
 10
243.618574
 20
149.874498
 42
-0.160289
  0
VERTEX
  8
0
 10
244.000000
 20
150.000000
 42
0.148195
  0
VERTEX
  8
0
 10
244.381354
 20
150.115568
 42
0.098894
  0
VERTEX
  8
0
 10
244.706250
 20
150.440625
 42
0.082425
  0
VERTEX
  8
0
 10
244.925306
 20
150.926543
 42
0.064853
  0
VERTEX
  8
0
 10
245.000000
 20
151.500000
 42
0.064853
  0
VERTEX
  8
0
 10
244.925306
 20
152.073457
 42
0.082425
  0
VERTEX
  8
0
 10
244.706250
 20
152.559375
 42
0.098894
  0
VERTEX
  8
0
 10
244.381354
 20
152.884432
 42
0.148195
  0
VERTEX
  8
0
 10
244.000000
 20
153.000000
 42
-0.148195
  0
VERTEX
  8
0
 10
243.618646
 20
153.115568
 42
-0.098894
  0
VERTEX
  8
0
 10
243.293750
 20
153.440625
 42
-0.082425
  0
VERTEX
  8
0
 10
243.074694
 20
153.926543
 42
-0.064853
  0
VERTEX
  8
0
 10
243.000000
 20
154.500000
 42
-0.064853
  0
VERTEX
  8
0
 10
243.074694
 20
155.073457
 42
-0.082425
  0
VERTEX
  8
0
 10
243.293750
 20
155.559375
 42
-0.098894
  0
VERTEX
  8
0
 10
243.618646
 20
155.884432
 42
-0.148195
  0
VERTEX
  8
0
 10
244.000000
 20
156.000000
 42
0.322437
  0
VERTEX
  8
0
 10
244.389817
 20
156.280551
 42
0.031449
  0
VERTEX
  8
0
 10
244.706250
 20
157.468750
 42
0.030530
  0
VERTEX
  8
0
 10
244.927795
 20
159.083446
 42
0.018830
  0
VERTEX
  8
0
 10
245.000000
 20
161.000000
 42
0.018830
  0
VERTEX
  8
0
 10
244.927795
 20
162.916554
 42
0.030530
  0
VERTEX
  8
0
 10
244.706250
 20
164.531250
 42
0.031449
  0
VERTEX
  8
0
 10
244.389817
 20
165.719449
 42
0.322437
  0
VERTEX
  8
0
 10
244.000000
 20
166.000000
 42
-0.191087
  0
VERTEX
  8
0
 10
243.618118
 20
166.151477
 42
-0.088204
  0
VERTEX
  8
0
 10
243.293750
 20
166.587500
 42
-0.068025
  0
VERTEX
  8
0
 10
243.073693
 20
167.234582
 42
-0.048028
  0
VERTEX
  8
0
 10
243.000000
 20
168.000000
 42
-0.048028
  0
VERTEX
  8
0
 10
243.073693
 20
168.765418
 42
-0.068025
  0
VERTEX
  8
0
 10
243.293750
 20
169.412500
 42
-0.088204
  0
VERTEX
  8
0
 10
243.618118
 20
169.848523
 42
-0.191087
  0
VERTEX
  8
0
 10
244.000000
 20
170.000000
 42
0.310876
  0
VERTEX
  8
0
 10
244.388548
 20
170.267426
 42
0.036803
  0
VERTEX
  8
0
 10
244.706250
 20
171.325861
 42
0.033642
  0
VERTEX
  8
0
 10
244.927720
 20
172.783607
 42
0.020882
  0
VERTEX
  8
0
 10
245.000000
 20
174.513569
 42
-0.036121
  0
VERTEX
  8
0
 10
245.220981
 20
177.568455
 42
-0.051471
  0
VERTEX
  8
0
 10
245.886321
 20
180.204094
 42
-0.053759
  0
VERTEX
  8
0
 10
247.047259
 20
182.561864
 42
-0.044601
  0
VERTEX
  8
0
 10
248.750000
 20
184.782760
 42
0.043269
  0
VERTEX
  8
0
 10
249.228433
 20
185.403358
 42
0.034858
  0
VERTEX
  8
0
 10
249.632812
 20
186.142541
 42
0.036038
  0
VERTEX
  8
0
 10
249.910688
 20
186.883357
 42
0.071825
  0
VERTEX
  8
0
 10
250.000000
 20
187.501878
 42
-0.152106
  0
VERTEX
  8
0
 10
250.169196
 20
188.045190
 42
-0.081692
  0
VERTEX
  8
0
 10
250.660937
 20
188.555554
 42
-0.068683
  0
VERTEX
  8
0
 10
251.389511
 20
188.957183
 42
-0.056453
  0
VERTEX
  8
0
 10
252.250000
 20
189.180449
 42
0.071286
  0
VERTEX
  8
0
 10
253.227453
 20
189.465132
 42
0.090158
  0
VERTEX
  8
0
 10
254.000000
 20
190.000000
 42
0.090158
  0
VERTEX
  8
0
 10
254.534868
 20
190.772547
 42
0.071286
  0
VERTEX
  8
0
 10
254.819551
 20
191.750000
 42
-0.059475
  0
VERTEX
  8
0
 10
255.048322
 20
192.610354
 42
-0.070703
  0
VERTEX
  8
0
 10
255.465428
 20
193.339063
 42
-0.083039
  0
VERTEX
  8
0
 10
255.999009
 20
193.830253
 42
-0.145606
  0
VERTEX
  8
0
 10
256.569551
 20
194.000000
 42
0.106225
  0
VERTEX
  8
0
 10
257.115327
 20
194.117274
 42
0.099362
  0
VERTEX
  8
0
 10
257.579806
 20
194.449844
 42
0.096100
  0
VERTEX
  8
0
 10
257.891171
 20
194.946788
 42
0.092288
  0
VERTEX
  8
0
 10
258.000000
 20
195.531385
 42
-0.083536
  0
VERTEX
  8
0
 10
258.105292
 20
196.157205
 42
-0.066013
  0
VERTEX
  8
0
 10
258.413730
 20
196.771688
 42
-0.066281
  0
VERTEX
  8
0
 10
258.870018
 20
197.282163
 42
-0.085863
  0
VERTEX
  8
0
 10
259.408443
 20
197.603240
 42
0.105479
  0
VERTEX
  8
0
 10
260.032923
 20
198.009341
 42
0.034232
  0
VERTEX
  8
0
 10
260.759439
 20
198.845090
 42
0.032379
  0
VERTEX
  8
0
 10
261.461760
 20
199.911421
 42
0.031257
  0
VERTEX
  8
0
 10
262.029763
 20
201.071855
 42
-0.024602
  0
VERTEX
  8
0
 10
262.560268
 20
202.193204
 42
-0.033699
  0
VERTEX
  8
0
 10
263.151741
 20
203.139857
 42
-0.035708
  0
VERTEX
  8
0
 10
263.721252
 20
203.819839
 42
-0.203282
  0
VERTEX
  8
0
 10
264.146071
 20
204.000000
 42
0.192768
  0
VERTEX
  8
0
 10
264.557554
 20
204.164764
 42
0.043365
  0
VERTEX
  8
0
 10
265.066190
 20
204.741903
 42
0.038909
  0
VERTEX
  8
0
 10
265.575887
 20
205.558622
 42
0.029217
  0
VERTEX
  8
0
 10
266.009743
 20
206.525626
 42
-0.040033
  0
VERTEX
  8
0
 10
266.489057
 20
207.534980
 42
-0.037352
  0
VERTEX
  8
0
 10
267.132947
 20
208.480124
 42
-0.039567
  0
VERTEX
  8
0
 10
267.835580
 20
209.231632
 42
-0.093646
  0
VERTEX
  8
0
 10
268.484992
 20
209.632615
 42
0.073493
  0
VERTEX
  8
0
 10
269.064164
 20
209.958964
 42
0.064198
  0
VERTEX
  8
0
 10
269.554966
 20
210.452399
 42
0.066866
  0
VERTEX
  8
0
 10
269.887005
 20
211.031012
 42
0.097164
  0
VERTEX
  8
0
 10
270.000000
 20
211.606989
 42
-0.070083
  0
VERTEX
  8
0
 10
270.074991
 20
212.139376
 42
-0.085896
  0
VERTEX
  8
0
 10
270.293750
 20
212.590803
 42
-0.100138
  0
VERTEX
  8
0
 10
270.618662
 20
212.892621
 42
-0.138107
  0
VERTEX
  8
0
 10
271.000000
 20
213.000000
 42
0.098149
  0
VERTEX
  8
0
 10
271.381651
 20
213.075646
 42
0.097731
  0
VERTEX
  8
0
 10
271.706250
 20
213.291195
 42
0.098151
  0
VERTEX
  8
0
 10
271.923626
 20
213.612996
 42
0.099935
  0
VERTEX
  8
0
 10
272.000000
 20
213.991302
 42
-0.144295
  0
VERTEX
  8
0
 10
272.159117
 20
214.531181
 42
-0.019788
  0
VERTEX
  8
0
 10
272.841531
 20
215.501777
 42
-0.021383
  0
VERTEX
  8
0
 10
273.767779
 20
216.612404
 42
-0.016596
  0
VERTEX
  8
0
 10
274.864786
 20
217.741302
 42
0.024861
  0
VERTEX
  8
0
 10
276.013071
 20
218.962712
 42
0.021504
  0
VERTEX
  8
0
 10
277.094530
 20
220.350882
 42
0.022065
  0
VERTEX
  8
0
 10
277.965434
 20
221.695618
 42
0.057041
  0
VERTEX
  8
0
 10
278.432511
 20
222.751061
 42
-0.054096
  0
VERTEX
  8
0
 10
278.840163
 20
223.687036
 42
-0.038169
  0
VERTEX
  8
0
 10
279.483926
 20
224.637882
 42
-0.038630
  0
VERTEX
  8
0
 10
280.249800
 20
225.462177
 42
-0.063460
  0
VERTEX
  8
0
 10
281.024691
 20
226.013214
 42
0.098877
  0
VERTEX
  8
0
 10
281.796265
 20
226.648092
 42
0.042677
  0
VERTEX
  8
0
 10
282.551176
 20
227.751853
 42
0.040030
  0
VERTEX
  8
0
 10
283.178252
 20
229.102901
 42
0.042297
  0
VERTEX
  8
0
 10
283.568258
 20
230.512153
 42
-0.034151
  0
VERTEX
  8
0
 10
283.924076
 20
231.884330
 42
-0.052018
  0
VERTEX
  8
0
 10
284.432229
 20
233.004313
 42
-0.065966
  0
VERTEX
  8
0
 10
285.018532
 20
233.757232
 42
-0.196843
  0
VERTEX
  8
0
 10
285.611291
 20
234.000000
 42
0.108760
  0
VERTEX
  8
0
 10
286.141100
 20
234.116624
 42
0.099738
  0
VERTEX
  8
0
 10
286.592067
 20
234.446923
 42
0.095387
  0
VERTEX
  8
0
 10
286.894475
 20
234.940582
 42
0.090098
  0
VERTEX
  8
0
 10
287.000000
 20
235.521439
 42
-0.132600
  0
VERTEX
  8
0
 10
287.179578
 20
236.186674
 42
-0.056806
  0
VERTEX
  8
0
 10
287.734375
 20
236.930559
 42
-0.050694
  0
VERTEX
  8
0
 10
288.543632
 20
237.633475
 42
-0.046624
  0
VERTEX
  8
0
 10
289.500000
 20
238.181954
 42
0.041165
  0
VERTEX
  8
0
 10
290.456567
 20
238.716778
 42
0.047285
  0
VERTEX
  8
0
 10
291.265625
 20
239.379900
 42
0.053401
  0
VERTEX
  8
0
 10
291.823739
 20
240.065845
 42
0.145081
  0
VERTEX
  8
0
 10
292.000000
 20
240.660515
 42
-0.073022
  0
VERTEX
  8
0
 10
292.075153
 20
241.172358
 42
-0.087654
  0
VERTEX
  8
0
 10
292.293750
 20
241.606526
 42
-0.100532
  0
VERTEX
  8
0
 10
292.618655
 20
241.896771
 42
-0.132956
  0
VERTEX
  8
0
 10
293.000000
 20
242.000000
 42
0.123684
  0
VERTEX
  8
0
 10
293.382594
 20
242.096112
 42
0.099425
  0
VERTEX
  8
0
 10
293.710748
 20
242.367188
 42
0.089546
  0
VERTEX
  8
0
 10
293.934037
 20
242.772489
 42
0.078330
  0
VERTEX
  8
0
 10
294.015313
 20
243.250000
 42
-0.052495
  0
VERTEX
  8
0
 10
294.083316
 20
243.827855
 42
-0.026071
  0
VERTEX
  8
0
 10
294.283277
 20
244.538831
 42
-0.025549
  0
VERTEX
  8
0
 10
294.569707
 20
245.261441
 42
-0.034040
  0
VERTEX
  8
0
 10
294.906029
 20
245.882192
 42
-0.282030
  0
VERTEX
  8
0
 10
296.435572
 20
246.633231
 42
-0.092616
  0
VERTEX
  8
0
 10
298.951798
 20
245.915001
 42
-0.075788
  0
VERTEX
  8
0
 10
301.501287
 20
244.117753
 42
-0.103562
  0
VERTEX
  8
0
 10
303.081303
 20
241.803718
 42
0.059709
  0
VERTEX
  8
0
 10
303.720095
 20
240.666988
 42
0.037734
  0
VERTEX
  8
0
 10
304.709039
 20
239.508679
 42
0.037533
  0
VERTEX
  8
0
 10
305.871074
 20
238.502483
 42
0.055531
  0
VERTEX
  8
0
 10
307.034619
 20
237.824383
 42
-0.125667
  0
VERTEX
  8
0
 10
309.104601
 20
236.195375
 42
-0.098392
  0
VERTEX
  8
0
 10
310.372604
 20
233.622342
 42
-0.070447
  0
VERTEX
  8
0
 10
310.813898
 20
229.994931
 42
-0.031679
  0
VERTEX
  8
0
 10
310.415530
 20
225.202720
 42
-0.030797
  0
VERTEX
  8
0
 10
309.933844
 20
222.918722
 42
-0.043475
  0
VERTEX
  8
0
 10
309.208735
 20
220.970595
 42
-0.046487
  0
VERTEX
  8
0
 10
308.203308
 20
219.278451
 42
-0.043677
  0
VERTEX
  8
0
 10
306.883539
 20
217.762510
 42
0.031471
  0
VERTEX
  8
0
 10
305.747927
 20
216.520568
 42
0.025189
  0
VERTEX
  8
0
 10
304.683523
 20
215.052762
 42
0.025849
  0
VERTEX
  8
0
 10
303.835233
 20
213.589455
 42
0.057005
  0
VERTEX
  8
0
 10
303.381021
 20
212.381973
 42
-0.056134
  0
VERTEX
  8
0
 10
302.989248
 20
211.334968
 42
-0.052098
  0
VERTEX
  8
0
 10
302.366490
 20
210.372531
 42
-0.055822
  0
VERTEX
  8
0
 10
301.619166
 20
209.631962
 42
-0.103758
  0
VERTEX
  8
0
 10
300.858829
 20
209.252832
 42
0.093868
  0
VERTEX
  8
0
 10
300.092851
 20
208.889445
 42
0.090134
  0
VERTEX
  8
0
 10
299.500054
 20
208.266820
 42
0.082407
  0
VERTEX
  8
0
 10
299.126948
 20
207.423727
 42
0.063132
  0
VERTEX
  8
0
 10
299.000000
 20
206.422324
 42
-0.066395
  0
VERTEX
  8
0
 10
298.862844
 20
205.393997
 42
-0.040618
  0
VERTEX
  8
0
 10
298.446718
 20
204.241076
 42
-0.040065
  0
VERTEX
  8
0
 10
297.837517
 20
203.145961
 42
-0.055907
  0
VERTEX
  8
0
 10
297.116487
 20
202.288955
 42
0.055941
  0
VERTEX
  8
0
 10
296.344205
 20
201.370904
 42
0.028629
  0
VERTEX
  8
0
 10
295.581822
 20
200.070818
 42
0.028041
  0
VERTEX
  8
0
 10
294.941444
 20
198.625421
 42
0.037527
  0
VERTEX
  8
0
 10
294.537031
 20
197.250000
 42
-0.025456
  0
VERTEX
  8
0
 10
294.203390
 20
196.005087
 42
-0.037217
  0
VERTEX
  8
0
 10
293.775112
 20
194.954687
 42
-0.041483
  0
VERTEX
  8
0
 10
293.320602
 20
194.204074
 42
-0.240325
  0
VERTEX
  8
0
 10
292.920545
 20
194.000000
 42
0.189257
  0
VERTEX
  8
0
 10
292.569040
 20
193.862008
 42
0.088800
  0
VERTEX
  8
0
 10
292.270410
 20
193.465474
 42
0.068616
  0
VERTEX
  8
0
 10
292.067870
 20
192.876712
 42
0.048616
  0
VERTEX
  8
0
 10
292.000000
 20
192.180335
 42
-0.101180
  0
VERTEX
  8
0
 10
291.826081
 20
191.329678
 42
-0.039019
  0
VERTEX
  8
0
 10
291.265625
 20
190.256667
 42
-0.036633
  0
VERTEX
  8
0
 10
290.456626
 20
189.153085
 42
-0.037339
  0
VERTEX
  8
0
 10
289.500000
 20
188.186949
 42
0.021142
  0
VERTEX
  8
0
 10
288.542861
 20
187.280911
 42
0.026092
  0
VERTEX
  8
0
 10
287.734375
 20
186.356065
 42
0.026001
  0
VERTEX
  8
0
 10
287.150639
 20
185.528300
 42
0.141486
  0
VERTEX
  8
0
 10
287.000000
 20
185.006613
 42
-0.097483
  0
VERTEX
  8
0
 10
286.924378
 20
184.622428
 42
-0.097565
  0
VERTEX
  8
0
 10
286.708805
 20
184.295693
 42
-0.098302
  0
VERTEX
  8
0
 10
286.386994
 20
184.076904
 42
-0.100616
  0
VERTEX
  8
0
 10
286.008698
 20
184.000000
 42
0.193717
  0
VERTEX
  8
0
 10
284.416780
 20
183.359189
 42
0.025180
  0
VERTEX
  8
0
 10
281.857499
 20
180.639702
 42
0.026865
  0
VERTEX
  8
0
 10
279.584043
 20
177.655268
 42
0.150439
  0
VERTEX
  8
0
 10
279.000000
 20
175.758066
 42
0.091716
  0
VERTEX
  8
0
 10
279.147532
 20
174.960546
 42
0.078946
  0
VERTEX
  8
0
 10
279.574244
 20
174.221132
 42
0.077231
  0
VERTEX
  8
0
 10
280.219558
 20
173.637006
 42
0.081615
  0
VERTEX
  8
0
 10
281.000000
 20
173.289749
 42
-0.192240
  0
VERTEX
  8
0
 10
282.480753
 20
172.197302
 42
-0.156791
  0
VERTEX
  8
0
 10
282.960716
 20
170.271697
 42
-0.115042
  0
VERTEX
  8
0
 10
282.246818
 20
167.929491
 42
-0.082730
  0
VERTEX
  8
0
 10
280.500000
 20
165.813051
 42
0.037339
  0
VERTEX
  8
0
 10
279.543374
 20
164.846915
 42
0.036633
  0
VERTEX
  8
0
 10
278.734375
 20
163.743333
 42
0.039019
  0
VERTEX
  8
0
 10
278.173919
 20
162.670322
 42
0.101180
  0
VERTEX
  8
0
 10
278.000000
 20
161.819665
 42
-0.052991
  0
VERTEX
  8
0
 10
277.926009
 20
161.123481
 42
-0.072811
  0
VERTEX
  8
0
 10
277.706250
 20
160.534526
 42
-0.092664
  0
VERTEX
  8
0
 10
277.381616
 20
160.139019
 42
-0.176473
  0
VERTEX
  8
0
 10
277.000000
 20
160.000000
 42
0.244356
  0
VERTEX
  8
0
 10
276.616287
 20
159.800566
 42
0.067403
  0
VERTEX
  8
0
 10
276.293750
 20
159.177313
 42
0.051864
  0
VERTEX
  8
0
 10
276.072887
 20
158.272106
 42
0.033933
  0
VERTEX
  8
0
 10
276.000000
 20
157.199365
 42
-0.058942
  0
VERTEX
  8
0
 10
275.710766
 20
154.754347
 42
-0.035566
  0
VERTEX
  8
0
 10
274.828940
 20
151.968880
 42
-0.030676
  0
VERTEX
  8
0
 10
273.708477
 20
149.582884
 42
-0.271390
  0
VERTEX
  8
0
 10
272.750000
 20
149.007802
 42
0.229714
  0
VERTEX
  8
0
 10
272.462606
 20
148.864698
 42
0.072220
  0
VERTEX
  8
0
 10
272.220312
 20
148.434587
 42
0.055335
  0
VERTEX
  8
0
 10
272.054805
 20
147.808071
 42
0.036946
  0
VERTEX
  8
0
 10
272.000000
 20
147.067388
 42
-0.092316
  0
VERTEX
  8
0
 10
271.853819
 20
146.282391
 42
-0.071151
  0
VERTEX
  8
0
 10
271.427526
 20
145.520784
 42
-0.069966
  0
VERTEX
  8
0
 10
270.795968
 20
144.897569
 42
-0.083119
  0
VERTEX
  8
0
 10
270.051152
 20
144.516235
 42
0.071769
  0
VERTEX
  8
0
 10
269.258737
 20
144.132846
 42
0.049297
  0
VERTEX
  8
0
 10
268.489151
 20
143.494529
 42
0.049112
  0
VERTEX
  8
0
 10
267.855946
 20
142.714227
 42
0.069167
  0
VERTEX
  8
0
 10
267.470380
 20
141.906675
 42
0.088604
  0
VERTEX
  8
0
 10
267.140002
 20
139.391077
 42
0.034984
  0
VERTEX
  8
0
 10
267.545838
 20
135.911328
 42
0.029447
  0
VERTEX
  8
0
 10
268.341870
 20
132.726409
 42
0.324142
  0
VERTEX
  8
0
 10
269.337898
 20
131.984687
 42
-0.039392
  0
VERTEX
  8
0
 10
269.814698
 20
131.940736
 42
-0.327719
  0
VERTEX
  8
0
 10
269.956505
 20
131.793542
 42
-0.251591
  0
VERTEX
  8
0
 10
269.873940
 20
131.573906
 42
-0.028218
  0
VERTEX
  8
0
 10
269.438529
 20
131.234687
 42
0.105933
  0
VERTEX
  8
0
 10
268.966310
 20
130.732131
 42
0.023465
  0
VERTEX
  8
0
 10
268.400755
 20
129.687689
 42
0.023381
  0
VERTEX
  8
0
 10
267.849704
 20
128.393764
 42
0.020662
  0
VERTEX
  8
0
 10
267.396255
 20
127.000000
 42
-0.030553
  0
VERTEX
  8
0
 10
266.791820
 20
125.259852
 42
-0.090238
  0
VERTEX
  8
0
 10
266.105776
 20
124.202110
 42
-0.116943
  0
VERTEX
  8
0
 10
265.205273
 20
123.608785
 42
-0.072179
  0
VERTEX
  8
0
 10
263.957726
 20
123.348540
 42
-0.000316
  0
VERTEX
  8
0
 10
262.888770
 20
123.283342
 42
-0.000235
  0
VERTEX
  8
0
 10
261.707895
 20
123.212625
 42
-0.000237
  0
VERTEX
  8
0
 10
260.593528
 20
123.146946
 42
-0.000537
  0
VERTEX
  8
0
 10
259.750000
 20
123.098540
 42
0.083192
  0
VERTEX
  8
0
 10
259.081612
 20
122.947495
 42
0.088214
  0
VERTEX
  8
0
 10
258.514063
 20
122.588321
 42
0.094515
  0
VERTEX
  8
0
 10
258.133843
 20
122.079909
 42
0.113903
  0
VERTEX
  8
0
 10
258.000000
 20
121.500000
 42
-0.099038
  0
VERTEX
  8
0
 10
257.885486
 20
120.927543
 42
-0.097945
  0
VERTEX
  8
0
 10
257.559375
 20
120.440625
 42
-0.097945
  0
VERTEX
  8
0
 10
257.072457
 20
120.114514
 42
-0.099038
  0
VERTEX
  8
0
 10
256.500000
 20
120.000000
 42
0.130775
  0
VERTEX
  8
0
 10
255.924246
 20
119.846791
 42
0.102140
  0
VERTEX
  8
0
 10
255.437500
 20
119.416667
 42
0.088920
  0
VERTEX
  8
0
 10
255.111864
 20
118.769411
 42
0.072314
  0
VERTEX
  8
0
 10
255.000000
 20
118.000000
 42
0.060522
  0
VERTEX
  8
0
 10
255.093072
 20
117.233913
 42
0.078397
  0
VERTEX
  8
0
 10
255.367188
 20
116.582425
 42
0.095767
  0
VERTEX
  8
0
 10
255.773168
 20
116.142853
 42
0.156339
  0
VERTEX
  8
0
 10
256.250000
 20
115.982723
 42
-0.120547
  0
VERTEX
  8
0
 10
256.882939
 20
115.818572
 42
-0.028170
  0
VERTEX
  8
0
 10
257.824582
 20
115.241222
 42
-0.027446
  0
VERTEX
  8
0
 10
258.861631
 20
114.434332
 42
-0.023930
  0
VERTEX
  8
0
 10
259.854960
 20
113.482723
 42
0.034136
  0
VERTEX
  8
0
 10
260.888062
 20
112.532647
 42
0.033873
  0
VERTEX
  8
0
 10
262.043390
 20
111.729300
 42
0.035880
  0
VERTEX
  8
0
 10
263.148201
 20
111.170672
 42
0.099429
  0
VERTEX
  8
0
 10
263.997971
 20
111.000000
 42
-0.072170
  0
VERTEX
  8
0
 10
264.721838
 20
110.894969
 42
-0.063873
  0
VERTEX
  8
0
 10
265.419237
 20
110.587074
 42
-0.066859
  0
VERTEX
  8
0
 10
265.985896
 20
110.131787
 42
-0.098826
  0
VERTEX
  8
0
 10
266.325442
 20
109.594296
 42
0.198723
  0
VERTEX
  8
0
 10
267.580551
 20
108.270428
 42
0.064202
  0
VERTEX
  8
0
 10
270.220742
 20
107.478280
 42
0.061221
  0
VERTEX
  8
0
 10
273.214420
 20
107.355560
 42
0.102880
  0
VERTEX
  8
0
 10
275.618604
 20
108.063475
 42
0.095924
  0
VERTEX
  8
0
 10
277.127821
 20
109.290575
 42
0.121745
  0
VERTEX
  8
0
 10
277.913985
 20
110.899223
 42
0.161765
  0
VERTEX
  8
0
 10
277.753778
 20
112.370362
 42
0.196263
  0
VERTEX
  8
0
 10
276.750000
 20
113.312954
 42
-0.181890
  0
VERTEX
  8
0
 10
276.381564
 20
113.640174
 42
-0.234634
  0
VERTEX
  8
0
 10
276.370942
 20
114.086405
 42
-0.099504
  0
VERTEX
  8
0
 10
276.812282
 20
114.684789
 42
-0.025306
  0
VERTEX
  8
0
 10
277.750000
 20
115.452991
 42
0.035110
  0
VERTEX
  8
0
 10
278.611001
 20
116.186994
 42
0.037677
  0
VERTEX
  8
0
 10
279.339063
 20
117.018201
 42
0.040687
  0
VERTEX
  8
0
 10
279.845872
 20
117.821753
 42
0.120926
  0
VERTEX
  8
0
 10
280.000000
 20
118.449715
 42
-0.091454
  0
VERTEX
  8
0
 10
280.101411
 20
118.999510
 42
-0.066713
  0
VERTEX
  8
0
 10
280.398857
 20
119.546538
 42
-0.065209
  0
VERTEX
  8
0
 10
280.838749
 20
120.007979
 42
-0.078324
  0
VERTEX
  8
0
 10
281.357810
 20
120.307063
 42
0.132844
  0
VERTEX
  8
0
 10
281.922594
 20
120.719330
 42
0.043815
  0
VERTEX
  8
0
 10
282.498063
 20
121.581545
 42
0.040026
  0
VERTEX
  8
0
 10
282.996438
 20
122.694704
 42
0.035902
  0
VERTEX
  8
0
 10
283.332810
 20
123.914052
 42
-0.037247
  0
VERTEX
  8
0
 10
283.662754
 20
125.097677
 42
-0.049833
  0
VERTEX
  8
0
 10
284.143232
 20
126.102845
 42
-0.059751
  0
VERTEX
  8
0
 10
284.691913
 20
126.802786
 42
-0.192748
  0
VERTEX
  8
0
 10
285.225000
 20
127.031803
 42
0.190930
  0
VERTEX
  8
0
 10
288.201211
 20
128.298054
 42
0.100157
  0
VERTEX
  8
0
 10
290.479744
 20
131.689560
 42
0.100155
  0
VERTEX
  8
0
 10
291.260545
 20
135.700140
 42
0.190920
  0
VERTEX
  8
0
 10
290.046820
 20
138.698251
 42
-0.022002
  0
VERTEX
  8
0
 10
289.133895
 20
139.743415
 42
-0.148059
  0
VERTEX
  8
0
 10
288.881448
 20
140.375487
 42
-0.208670
  0
VERTEX
  8
0
 10
289.066445
 20
140.923745
 42
-0.049627
  0
VERTEX
  8
0
 10
289.797958
 20
141.584681
 42
0.125877
  0
VERTEX
  8
0
 10
290.413124
 20
142.338014
 42
0.040039
  0
VERTEX
  8
0
 10
290.919739
 20
143.707555
 42
0.034608
  0
VERTEX
  8
0
 10
291.288279
 20
145.479312
 42
0.023570
  0
VERTEX
  8
0
 10
291.470809
 20
147.530232
 42
-0.020951
  0
VERTEX
  8
0
 10
291.628950
 20
149.419043
 42
-0.029947
  0
VERTEX
  8
0
 10
291.938711
 20
151.071518
 42
-0.030004
  0
VERTEX
  8
0
 10
292.337166
 20
152.336415
 42
-0.224640
  0
VERTEX
  8
0
 10
292.779308
 20
152.759769
 42
0.198454
  0
VERTEX
  8
0
 10
293.275909
 20
153.189703
 42
0.021106
  0
VERTEX
  8
0
 10
293.916785
 20
154.612539
 42
0.023463
  0
VERTEX
  8
0
 10
294.553182
 20
156.446051
 42
0.016752
  0
VERTEX
  8
0
 10
295.098461
 20
158.549367
 42
-0.018091
  0
VERTEX
  8
0
 10
295.843499
 20
161.391849
 42
-0.061515
  0
VERTEX
  8
0
 10
296.614954
 20
163.140933
 42
-0.087619
  0
VERTEX
  8
0
 10
297.621728
 20
164.305008
 42
-0.066654
  0
VERTEX
  8
0
 10
299.062171
 20
165.187813
 42
0.067998
  0
VERTEX
  8
0
 10
300.525114
 20
166.089803
 42
0.091840
  0
VERTEX
  8
0
 10
301.523477
 20
167.276698
 42
0.061103
  0
VERTEX
  8
0
 10
302.281905
 20
169.100399
 42
0.015738
  0
VERTEX
  8
0
 10
303.043008
 20
172.202664
 42
-0.010430
  0
VERTEX
  8
0
 10
303.563269
 20
174.424931
 42
-0.016649
  0
VERTEX
  8
0
 10
304.109970
 20
176.297033
 42
-0.010704
  0
VERTEX
  8
0
 10
304.633546
 20
177.782705
 42
-0.312232
  0
VERTEX
  8
0
 10
304.947594
 20
178.000000
 42
0.294308
  0
VERTEX
  8
0
 10
305.267319
 20
178.206042
 42
0.013259
  0
VERTEX
  8
0
 10
305.800252
 20
179.468750
 42
0.018638
  0
VERTEX
  8
0
 10
306.363466
 20
181.083572
 42
0.011856
  0
VERTEX
  8
0
 10
306.903362
 20
183.000000
 42
-0.016033
  0
VERTEX
  8
0
 10
307.460467
 20
184.916054
 42
-0.024579
  0
VERTEX
  8
0
 10
308.076126
 20
186.531250
 42
-0.021611
  0
VERTEX
  8
0
 10
308.674601
 20
187.749809
 42
-0.274351
  0
VERTEX
  8
0
 10
309.096250
 20
188.000000
 42
0.263750
  0
VERTEX
  8
0
 10
309.516421
 20
188.238211
 42
0.024987
  0
VERTEX
  8
0
 10
310.093493
 20
189.321875
 42
0.026795
  0
VERTEX
  8
0
 10
310.683949
 20
190.775721
 42
0.017718
  0
VERTEX
  8
0
 10
311.211243
 20
192.500000
 42
-0.015403
  0
VERTEX
  8
0
 10
311.729883
 20
194.224477
 42
-0.023645
  0
VERTEX
  8
0
 10
312.294087
 20
195.678125
 42
-0.020244
  0
VERTEX
  8
0
 10
312.837297
 20
196.780075
 42
-0.274692
  0
VERTEX
  8
0
 10
313.207405
 20
197.000000
 42
0.222508
  0
VERTEX
  8
0
 10
313.510800
 20
197.142049
 42
0.076608
  0
VERTEX
  8
0
 10
313.767175
 20
197.567705
 42
0.058260
  0
VERTEX
  8
0
 10
313.942004
 20
198.192577
 42
0.039125
  0
VERTEX
  8
0
 10
314.000000
 20
198.932612
 42
-0.092316
  0
VERTEX
  8
0
 10
314.146181
 20
199.717609
 42
-0.071151
  0
VERTEX
  8
0
 10
314.572474
 20
200.479216
 42
-0.069966
  0
VERTEX
  8
0
 10
315.204032
 20
201.102431
 42
-0.083119
  0
VERTEX
  8
0
 10
315.948848
 20
201.483765
 42
0.097256
  0
VERTEX
  8
0
 10
317.235551
 20
202.188756
 42
0.113299
  0
VERTEX
  8
0
 10
318.077767
 20
203.296580
 42
0.055645
  0
VERTEX
  8
0
 10
318.712150
 20
205.255311
 42
0.008728
  0
VERTEX
  8
0
 10
319.457994
 20
209.250000
 42
-0.020548
  0
VERTEX
  8
0
 10
319.761584
 20
210.686906
 42
-0.031429
  0
VERTEX
  8
0
 10
320.152538
 20
211.898438
 42
-0.032328
  0
VERTEX
  8
0
 10
320.569378
 20
212.784742
 42
-0.273141
  0
VERTEX
  8
0
 10
320.934022
 20
213.000000
 42
0.262562
  0
VERTEX
  8
0
 10
321.300592
 20
213.206747
 42
0.034782
  0
VERTEX
  8
0
 10
321.722766
 20
214.029286
 42
0.032972
  0
VERTEX
  8
0
 10
322.121653
 20
215.161452
 42
0.021847
  0
VERTEX
  8
0
 10
322.434763
 20
216.503951
 42
-0.036973
  0
VERTEX
  8
0
 10
322.824914
 20
217.974361
 42
-0.029274
  0
VERTEX
  8
0
 10
323.453121
 20
219.494846
 42
-0.030100
  0
VERTEX
  8
0
 10
324.207780
 20
220.842368
 42
-0.062600
  0
VERTEX
  8
0
 10
324.978431
 20
221.765279
 42
0.102803
  0
VERTEX
  8
0
 10
325.974893
 20
223.173278
 42
0.069079
  0
VERTEX
  8
0
 10
326.508142
 20
225.077361
 42
0.032888
  0
VERTEX
  8
0
 10
326.723138
 20
228.171663
 42
0.005135
  0
VERTEX
  8
0
 10
326.682377
 20
234.298846
 42
0.007626
  0
VERTEX
  8
0
 10
326.533530
 20
238.923682
 42
0.016935
  0
VERTEX
  8
0
 10
326.247285
 20
242.437172
 42
0.015124
  0
VERTEX
  8
0
 10
325.867922
 20
245.027788
 42
0.212911
  0
VERTEX
  8
0
 10
325.353491
 20
245.787518
 42
-0.123593
  0
VERTEX
  8
0
 10
324.839979
 20
246.318339
 42
-0.022700
  0
VERTEX
  8
0
 10
324.208296
 20
247.539146
 42
-0.023157
  0
VERTEX
  8
0
 10
323.586276
 20
249.070647
 42
-0.019247
  0
VERTEX
  8
0
 10
323.064947
 20
250.750000
 42
0.015934
  0
VERTEX
  8
0
 10
322.571167
 20
252.378628
 42
0.024370
  0
VERTEX
  8
0
 10
322.030784
 20
253.751563
 42
0.021319
  0
VERTEX
  8
0
 10
321.509039
 20
254.788077
 42
0.271873
  0
VERTEX
  8
0
 10
321.148102
 20
255.000000
 42
-0.234917
  0
VERTEX
  8
0
 10
320.771820
 20
255.187117
 42
-0.024354
  0
VERTEX
  8
0
 10
320.197488
 20
256.028125
 42
-0.026204
  0
VERTEX
  8
0
 10
319.582454
 20
257.159126
 42
-0.017942
  0
VERTEX
  8
0
 10
319.000000
 20
258.500000
 42
0.033562
  0
VERTEX
  8
0
 10
318.303510
 20
259.975565
 42
0.057679
  0
VERTEX
  8
0
 10
317.510800
 20
261.078138
 42
0.074371
  0
VERTEX
  8
0
 10
316.666702
 20
261.765991
 42
0.134627
  0
VERTEX
  8
0
 10
315.813354
 20
262.000000
 42
-0.088888
  0
VERTEX
  8
0
 10
315.052723
 20
262.136299
 42
-0.120500
  0
VERTEX
  8
0
 10
314.476669
 20
262.525732
 42
-0.113007
  0
VERTEX
  8
0
 10
314.121248
 20
263.159011
 42
-0.071716
  0
VERTEX
  8
0
 10
314.000000
 20
264.000000
 42
0.048028
  0
VERTEX
  8
0
 10
313.926307
 20
264.765418
 42
0.068025
  0
VERTEX
  8
0
 10
313.706250
 20
265.412500
 42
0.088204
  0
VERTEX
  8
0
 10
313.381882
 20
265.848523
 42
0.191087
  0
VERTEX
  8
0
 10
313.000000
 20
266.000000
 42
-0.277684
  0
VERTEX
  8
0
 10
312.614308
 20
266.232098
 42
-0.052312
  0
VERTEX
  8
0
 10
312.293750
 20
267.028125
 42
-0.042582
  0
VERTEX
  8
0
 10
312.072542
 20
268.158889
 42
-0.027026
  0
VERTEX
  8
0
 10
312.000000
 20
269.500000
 42
-0.027026
  0
VERTEX
  8
0
 10
312.072542
 20
270.841111
 42
-0.042582
  0
VERTEX
  8
0
 10
312.293750
 20
271.971875
 42
-0.052312
  0
VERTEX
  8
0
 10
312.614308
 20
272.767902
 42
-0.277684
  0
VERTEX
  8
0
 10
313.000000
 20
273.000000
 42
0.346759
  0
VERTEX
  8
0
 10
313.401883
 20
273.316807
 42
0.021507
  0
VERTEX
  8
0
 10
313.712308
 20
274.908176
 42
0.023911
  0
VERTEX
  8
0
 10
313.929899
 20
277.037646
 42
0.013504
  0
VERTEX
  8
0
 10
314.000000
 20
279.632705
 42
-0.035193
  0
VERTEX
  8
0
 10
314.380130
 20
285.026643
 42
-0.150876
  0
VERTEX
  8
0
 10
315.737349
 20
287.908003
 42
-0.181475
  0
VERTEX
  8
0
 10
318.314734
 20
289.223893
 42
-0.055612
  0
VERTEX
  8
0
 10
322.760069
 20
289.232347
 42
-0.015951
  0
VERTEX
  8
0
 10
324.600155
 20
288.970961
 42
-0.022967
  0
VERTEX
  8
0
 10
326.205562
 20
288.613760
 42
-0.020048
  0
VERTEX
  8
0
 10
327.461675
 20
288.218375
 42
-0.216945
  0
VERTEX
  8
0
 10
327.833333
 20
287.856320
 42
0.220598
  0
VERTEX
  8
0
 10
328.180048
 20
287.523243
 42
0.030835
  0
VERTEX
  8
0
 10
329.163881
 20
287.251544
 42
0.030483
  0
VERTEX
  8
0
 10
330.442485
 20
287.062418
 42
0.021479
  0
VERTEX
  8
0
 10
331.894772
 20
287.000000
 42
-0.038834
  0
VERTEX
  8
0
 10
333.601808
 20
286.867217
 42
-0.043244
  0
VERTEX
  8
0
 10
335.205341
 20
286.471927
 42
-0.046062
  0
VERTEX
  8
0
 10
336.621229
 20
285.839312
 42
-0.059514
  0
VERTEX
  8
0
 10
337.769625
 20
285.000000
 42
0.094033
  0
VERTEX
  8
0
 10
339.497207
 20
283.910842
 42
0.062130
  0
VERTEX
  8
0
 10
341.776928
 20
283.326555
 42
0.027947
  0
VERTEX
  8
0
 10
345.535092
 20
283.059583
 42
0.003760
  0
VERTEX
  8
0
 10
353.458187
 20
283.000000
 42
0.006038
  0
VERTEX
  8
0
 10
358.650605
 20
283.062706
 42
0.010042
  0
VERTEX
  8
0
 10
363.022092
 20
283.256206
 42
0.003994
  0
VERTEX
  8
0
 10
366.675798
 20
283.520854
 42
0.390887
  0
VERTEX
  8
0
 10
367.000000
 20
283.872192
 42
-0.278942
  0
VERTEX
  8
0
 10
367.227647
 20
284.248497
 42
-0.030794
  0
VERTEX
  8
0
 10
368.186241
 20
284.677865
 42
-0.030472
  0
VERTEX
  8
0
 10
369.490826
 20
285.079455
 42
-0.019787
  0
VERTEX
  8
0
 10
371.038268
 20
285.390129
 42
0.027879
  0
VERTEX
  8
0
 10
372.621564
 20
285.734733
 42
0.034811
  0
VERTEX
  8
0
 10
374.039826
 20
286.235860
 42
0.037344
  0
VERTEX
  8
0
 10
375.128761
 20
286.808170
 42
0.162878
  0
VERTEX
  8
0
 10
375.585581
 20
287.362423
 42
-0.223033
  0
VERTEX
  8
0
 10
376.254369
 20
288.005119
 42
-0.019729
  0
VERTEX
  8
0
 10
378.559761
 20
288.685972
 42
-0.020052
  0
VERTEX
  8
0
 10
381.767526
 20
289.361693
 42
-0.008982
  0
VERTEX
  8
0
 10
386.030567
 20
290.004046
 42
0.006491
  0
VERTEX
  8
0
 10
391.279907
 20
290.768282
 42
0.033477
  0
VERTEX
  8
0
 10
394.141400
 20
291.421650
 42
0.066935
  0
VERTEX
  8
0
 10
395.776967
 20
292.162044
 42
0.178023
  0
VERTEX
  8
0
 10
396.550642
 20
293.159559
 42
-0.100174
  0
VERTEX
  8
0
 10
397.003960
 20
293.975695
 42
-0.099777
  0
VERTEX
  8
0
 10
397.739500
 20
294.552711
 42
-0.078275
  0
VERTEX
  8
0
 10
398.796018
 20
294.891236
 42
-0.038481
  0
VERTEX
  8
0
 10
400.207145
 20
295.000000
 42
0.047642
  0
VERTEX
  8
0
 10
401.470823
 20
295.120682
 42
0.043724
  0
VERTEX
  8
0
 10
402.727265
 20
295.479007
 42
0.046539
  0
VERTEX
  8
0
 10
403.794269
 20
296.005288
 42
0.097355
  0
VERTEX
  8
0
 10
404.471884
 20
296.630662
 42
-0.114811
  0
VERTEX
  8
0
 10
405.293498
 20
297.338013
 42
-0.039877
  0
VERTEX
  8
0
 10
406.740901
 20
297.954188
 42
-0.034090
  0
VERTEX
  8
0
 10
408.623247
 20
298.444080
 42
-0.022669
  0
VERTEX
  8
0
 10
410.832127
 20
298.757891
 42
0.015716
  0
VERTEX
  8
0
 10
412.812966
 20
299.011269
 42
0.025096
  0
VERTEX
  8
0
 10
414.481937
 20
299.364968
 42
0.022333
  0
VERTEX
  8
0
 10
415.742702
 20
299.760055
 42
0.315499
  0
VERTEX
  8
0
 10
416.000000
 20
300.127229
 42
-0.392190
  0
VERTEX
  8
0
 10
416.745229
 20
300.931179
 42
-0.030256
  0
VERTEX
  8
0
 10
419.956768
 20
300.980256
 42
-0.030004
  0
VERTEX
  8
0
 10
423.236117
 20
300.633978
 42
-0.261229
  0
VERTEX
  8
0
 10
424.337719
 20
299.750000
 42
0.009076
  0
VERTEX
  8
0
 10
424.617987
 20
299.090194
 42
0.295955
  0
VERTEX
  8
0
 10
424.757018
 20
299.000000
 42
0.382689
  0
VERTEX
  8
0
 10
424.864758
 20
299.096611
 42
0.011437
  0
VERTEX
  8
0
 10
424.921053
 20
299.750000
 42
-0.346940
  0
VERTEX
  8
0
 10
425.758689
 20
300.684174
 42
-0.036130
  0
VERTEX
  8
0
 10
428.895670
 20
300.998002
 42
-0.035757
  0
VERTEX
  8
0
 10
432.090627
 20
300.857326
 42
-0.291228
  0
VERTEX
  8
0
 10
433.174376
 20
299.976872
 42
0.192090
  0
VERTEX
  8
0
 10
433.526303
 20
299.560156
 42
0.037721
  0
VERTEX
  8
0
 10
434.441098
 20
299.157625
 42
0.035069
  0
VERTEX
  8
0
 10
435.645519
 20
298.825574
 42
0.026244
  0
VERTEX
  8
0
 10
437.007709
 20
298.624678
 42
-0.014077
  0
VERTEX
  8
0
 10
442.452076
 20
297.956586
 42
-0.055966
  0
VERTEX
  8
0
 10
445.698955
 20
297.085643
 42
-0.095270
  0
VERTEX
  8
0
 10
447.726808
 20
295.803368
 42
-0.106468
  0
VERTEX
  8
0
 10
449.039760
 20
293.904010
 42
0.073863
  0
VERTEX
  8
0
 10
450.068670
 20
292.188138
 42
0.109188
  0
VERTEX
  8
0
 10
451.443969
 20
291.108216
 42
0.243227
  0
VERTEX
  8
0
 10
452.492684
 20
291.138672
 42
0.272611
  0
VERTEX
  8
0
 10
453.000000
 20
292.000000
 42
-0.148195
  0
VERTEX
  8
0
 10
453.115568
 20
292.381354
 42
-0.098894
  0
VERTEX
  8
0
 10
453.440625
 20
292.706250
 42
-0.082425
  0
VERTEX
  8
0
 10
453.926543
 20
292.925306
 42
-0.064853
  0
VERTEX
  8
0
 10
454.500000
 20
293.000000
 42
0.081115
  0
VERTEX
  8
0
 10
455.078067
 20
293.094401
 42
0.087567
  0
VERTEX
  8
0
 10
455.579256
 20
293.367188
 42
0.094864
  0
VERTEX
  8
0
 10
455.927055
 20
293.773049
 42
0.116841
  0
VERTEX
  8
0
 10
456.067680
 20
294.250000
 42
-0.236551
  0
VERTEX
  8
0
 10
456.202720
 20
294.486591
 42
-0.337536
  0
VERTEX
  8
0
 10
456.434238
 20
294.471875
 42
-0.080032
  0
VERTEX
  8
0
 10
456.796903
 20
294.038268
 42
-0.021865
  0
VERTEX
  8
0
 10
457.220495
 20
293.250000
 42
0.028440
  0
VERTEX
  8
0
 10
457.698080
 20
292.388599
 42
0.036638
  0
VERTEX
  8
0
 10
458.235731
 20
291.660937
 42
0.039920
  0
VERTEX
  8
0
 10
458.755341
 20
291.145453
 42
0.177225
  0
VERTEX
  8
0
 10
459.152814
 20
291.000000
 42
-0.334691
  0
VERTEX
  8
0
 10
459.841028
 20
290.481209
 42
-0.093115
  0
VERTEX
  8
0
 10
459.974919
 20
289.048996
 42
-0.079486
  0
VERTEX
  8
0
 10
459.578406
 20
287.503332
 42
-0.212957
  0
VERTEX
  8
0
 10
458.758929
 20
286.752976
 42
0.373644
  0
VERTEX
  8
0
 10
458.354694
 20
286.069162
 42
0.133960
  0
VERTEX
  8
0
 10
458.885263
 20
284.964075
 42
0.061506
  0
VERTEX
  8
0
 10
460.460075
 20
283.543391
 42
0.029943
  0
VERTEX
  8
0
 10
462.770636
 20
282.122752
 42
0.107325
  0
VERTEX
  8
0
 10
464.508385
 20
281.627632
 42
0.076388
  0
VERTEX
  8
0
 10
466.531670
 20
281.807664
 42
0.073616
  0
VERTEX
  8
0
 10
468.480166
 20
282.604489
 42
0.085821
  0
VERTEX
  8
0
 10
470.000000
 20
283.901298
 42
-0.073311
  0
VERTEX
  8
0
 10
470.350490
 20
284.215744
 42
-0.009127
  0
VERTEX
  8
0
 10
471.216212
 20
284.766540
 42
-0.010599
  0
VERTEX
  8
0
 10
472.276516
 20
285.383784
 42
-0.008597
  0
VERTEX
  8
0
 10
473.438167
 20
286.001594
 42
0.041204
  0
VERTEX
  8
0
 10
476.416208
 20
287.843713
 42
0.050054
  0
VERTEX
  8
0
 10
478.846480
 20
290.046539
 42
0.057478
  0
VERTEX
  8
0
 10
480.470546
 20
292.323381
 42
0.126865
  0
VERTEX
  8
0
 10
481.000000
 20
294.376475
 42
0.156328
  0
VERTEX
  8
0
 10
480.392102
 20
296.273266
 42
0.101484
  0
VERTEX
  8
0
 10
478.690643
 20
297.852728
 42
0.095328
  0
VERTEX
  8
0
 10
476.398997
 20
298.704535
 42
0.118836
  0
VERTEX
  8
0
 10
474.139862
 20
298.544390
 42
-0.132798
  0
VERTEX
  8
0
 10
472.845523
 20
298.488335
 42
-0.084280
  0
VERTEX
  8
0
 10
471.440527
 20
299.064111
 42
-0.047279
  0
VERTEX
  8
0
 10
469.656311
 20
300.424936
 42
-0.011806
  0
VERTEX
  8
0
 10
467.020702
 20
302.978968
 42
-0.012662
  0
VERTEX
  8
0
 10
465.097701
 20
305.034163
 42
-0.017170
  0
VERTEX
  8
0
 10
463.474831
 20
306.990412
 42
-0.014164
  0
VERTEX
  8
0
 10
462.247625
 20
308.674062
 42
-0.151527
  0
VERTEX
  8
0
 10
462.000000
 20
309.472398
 42
0.120992
  0
VERTEX
  8
0
 10
461.858131
 20
310.050092
 42
0.070257
  0
VERTEX
  8
0
 10
461.439637
 20
310.633934
 42
0.063564
  0
VERTEX
  8
0
 10
460.821746
 20
311.135285
 42
0.061919
  0
VERTEX
  8
0
 10
460.092381
 20
311.470679
 42
-0.050153
  0
VERTEX
  8
0
 10
459.324112
 20
311.802361
 42
-0.042836
  0
VERTEX
  8
0
 10
458.592601
 20
312.295754
 42
-0.044894
  0
VERTEX
  8
0
 10
458.002146
 20
312.866862
 42
-0.086695
  0
VERTEX
  8
0
 10
457.665531
 20
313.429229
 42
0.206765
  0
VERTEX
  8
0
 10
457.052488
 20
314.056170
 42
0.032351
  0
VERTEX
  8
0
 10
455.375083
 20
314.619766
 42
0.027474
  0
VERTEX
  8
0
 10
452.983704
 20
315.115810
 42
0.012606
  0
VERTEX
  8
0
 10
449.823150
 20
315.510971
 42
-0.012268
  0
VERTEX
  8
0
 10
446.969863
 20
315.865755
 42
-0.017459
  0
VERTEX
  8
0
 10
444.457977
 20
316.331037
 42
-0.013535
  0
VERTEX
  8
0
 10
442.438049
 20
316.836363
 42
-0.185749
  0
VERTEX
  8
0
 10
441.842303
 20
317.279477
 42
0.214880
  0
VERTEX
  8
0
 10
441.201865
 20
317.702291
 42
0.011431
  0
VERTEX
  8
0
 10
438.723054
 20
318.044850
 42
0.016005
  0
VERTEX
  8
0
 10
435.628531
 20
318.300594
 42
0.010151
  0
VERTEX
  8
0
 10
432.011709
 20
318.409668
 42
-0.007009
  0
VERTEX
  8
0
 10
427.117876
 20
318.526481
 42
-0.034112
  0
VERTEX
  8
0
 10
424.360914
 20
318.820043
 42
-0.064663
  0
VERTEX
  8
0
 10
422.652565
 20
319.354916
 42
-0.127394
  0
VERTEX
  8
0
 10
421.559164
 20
320.250000
 42
0.146353
  0
VERTEX
  8
0
 10
419.763817
 20
321.611363
 42
0.097803
  0
VERTEX
  8
0
 10
417.201419
 20
322.033155
 42
0.108681
  0
VERTEX
  8
0
 10
414.880477
 20
321.444590
 42
0.215797
  0
VERTEX
  8
0
 10
413.710251
 20
320.000000
 42
-0.081600
  0
VERTEX
  8
0
 10
413.350538
 20
319.191502
 42
-0.084380
  0
VERTEX
  8
0
 10
412.754322
 20
318.551274
 42
-0.083929
  0
VERTEX
  8
0
 10
411.977061
 20
318.141521
 42
-0.079589
  0
VERTEX
  8
0
 10
411.093620
 20
318.000000
 42
0.040675
  0
VERTEX
  8
0
 10
410.292006
 20
317.934681
 42
0.060070
  0
VERTEX
  8
0
 10
409.615001
 20
317.738095
 42
0.078994
  0
VERTEX
  8
0
 10
409.154969
 20
317.449511
 42
0.216510
  0
VERTEX
  8
0
 10
409.000000
 20
317.108408
 42
-0.208396
  0
VERTEX
  8
0
 10
408.831931
 20
316.722675
 42
-0.050787
  0
VERTEX
  8
0
 10
408.265625
 20
316.294405
 42
-0.043524
  0
VERTEX
  8
0
 10
407.457251
 20
315.894893
 42
-0.031538
  0
VERTEX
  8
0
 10
406.500000
 20
315.589356
 42
0.052514
  0
VERTEX
  8
0
 10
405.543788
 20
315.239404
 42
0.061291
  0
VERTEX
  8
0
 10
404.734375
 20
314.711184
 42
0.071387
  0
VERTEX
  8
0
 10
404.184637
 20
314.093964
 42
0.147328
  0
VERTEX
  8
0
 10
404.000000
 20
313.480948
 42
-0.141434
  0
VERTEX
  8
0
 10
403.827042
 20
312.881735
 42
-0.113287
  0
VERTEX
  8
0
 10
403.349074
 20
312.405889
 42
-0.087510
  0
VERTEX
  8
0
 10
402.592853
 20
312.101223
 42
-0.052150
  0
VERTEX
  8
0
 10
401.625000
 20
312.000000
 42
0.031018
  0
VERTEX
  8
0
 10
398.251680
 20
311.790532
 42
0.052644
  0
VERTEX
  8
0
 10
395.500030
 20
311.148509
 42
0.068991
  0
VERTEX
  8
0
 10
393.564918
 20
310.160236
 42
0.178118
  0
VERTEX
  8
0
 10
392.682195
 20
308.892715
 42
-0.107836
  0
VERTEX
  8
0
 10
392.215867
 20
307.976092
 42
-0.124769
  0
VERTEX
  8
0
 10
391.430228
 20
307.394707
 42
-0.076573
  0
VERTEX
  8
0
 10
390.149800
 20
307.086819
 42
-0.020785
  0
VERTEX
  8
0
 10
388.062235
 20
307.000000
 42
0.024728
  0
VERTEX
  8
0
 10
386.254349
 20
306.910533
 42
0.049931
  0
VERTEX
  8
0
 10
384.857623
 20
306.629331
 42
0.068569
  0
VERTEX
  8
0
 10
383.885903
 20
306.177340
 42
0.159351
  0
VERTEX
  8
0
 10
383.385075
 20
305.561107
 42
-0.121006
  0
VERTEX
  8
0
 10
382.969927
 20
304.963625
 42
-0.045463
  0
VERTEX
  8
0
 10
382.141774
 20
304.357463
 42
-0.041693
  0
VERTEX
  8
0
 10
381.080252
 20
303.834644
 42
-0.039546
  0
VERTEX
  8
0
 10
379.927928
 20
303.484170
 42
0.023974
  0
VERTEX
  8
0
 10
378.774012
 20
303.172080
 42
0.027529
  0
VERTEX
  8
0
 10
377.708697
 20
302.762402
 42
0.028264
  0
VERTEX
  8
0
 10
376.857389
 20
302.320627
 42
0.121094
  0
VERTEX
  8
0
 10
376.452451
 20
301.923063
 42
-0.164257
  0
VERTEX
  8
0
 10
376.020899
 20
301.565716
 42
-0.033815
  0
VERTEX
  8
0
 10
375.063236
 20
301.271150
 42
-0.032230
  0
VERTEX
  8
0
 10
373.851634
 20
301.067703
 42
-0.025487
  0
VERTEX
  8
0
 10
372.524316
 20
301.000000
 42
0.034620
  0
VERTEX
  8
0
 10
371.208635
 20
300.908794
 42
0.044904
  0
VERTEX
  8
0
 10
370.031455
 20
300.635435
 42
0.051898
  0
VERTEX
  8
0
 10
369.142049
 20
300.236522
 42
0.182931
  0
VERTEX
  8
0
 10
368.752976
 20
299.758929
 42
-0.129629
  0
VERTEX
  8
0
 10
368.455445
 20
299.304373
 42
-0.242659
  0
VERTEX
  8
0
 10
368.041127
 20
299.195358
 42
-0.116967
  0
VERTEX
  8
0
 10
367.460140
 20
299.477228
 42
-0.025210
  0
VERTEX
  8
0
 10
366.624972
 20
300.232171
 42
0.056587
  0
VERTEX
  8
0
 10
365.694333
 20
300.973031
 42
0.021648
  0
VERTEX
  8
0
 10
364.252360
 20
301.791012
 42
0.021108
  0
VERTEX
  8
0
 10
362.595377
 20
302.551948
 42
0.024304
  0
VERTEX
  8
0
 10
360.955329
 20
303.131530
 42
-0.016104
  0
VERTEX
  8
0
 10
359.439693
 20
303.639355
 42
-0.024417
  0
VERTEX
  8
0
 10
358.161878
 20
304.186142
 42
-0.021451
  0
VERTEX
  8
0
 10
357.198579
 20
304.707468
 42
-0.263841
  0
VERTEX
  8
0
 10
357.000000
 20
305.057594
 42
0.308774
  0
VERTEX
  8
0
 10
356.781352
 20
305.377896
 42
0.020774
  0
VERTEX
  8
0
 10
355.678125
 20
305.757392
 42
0.024086
  0
VERTEX
  8
0
 10
354.224792
 20
306.115520
 42
0.015186
  0
VERTEX
  8
0
 10
352.500000
 20
306.399306
 42
-0.006885
  0
VERTEX
  8
0
 10
350.451466
 20
306.672760
 42
0.000000
  0
VERTEX
  8
0
 10
348.000000
 20
307.000000
 42
0.000000
  0
VERTEX
  8
0
 10
345.548534
 20
307.327240
 42
0.000000
  0
VERTEX
  8
0
 10
343.500000
 20
307.600694
 42
-0.021599
  0
VERTEX
  8
0
 10
341.563653
 20
307.944844
 42
-0.049826
  0
VERTEX
  8
0
 10
340.161290
 20
308.407481
 42
-0.074993
  0
VERTEX
  8
0
 10
339.289491
 20
308.963733
 42
-0.216585
  0
VERTEX
  8
0
 10
339.000000
 20
309.600694
 42
0.069753
  0
VERTEX
  8
0
 10
338.925027
 20
310.135497
 42
0.085690
  0
VERTEX
  8
0
 10
338.706250
 20
310.588954
 42
0.100081
  0
VERTEX
  8
0
 10
338.381338
 20
310.892135
 42
0.138708
  0
VERTEX
  8
0
 10
338.000000
 20
311.000000
 42
-0.275259
  0
VERTEX
  8
0
 10
337.614478
 20
311.229636
 42
-0.053437
  0
VERTEX
  8
0
 10
337.293750
 20
312.010789
 42
-0.043243
  0
VERTEX
  8
0
 10
337.072564
 20
313.122516
 42
-0.027497
  0
VERTEX
  8
0
 10
337.000000
 20
314.440983
 42
0.026918
  0
VERTEX
  8
0
 10
336.926586
 20
315.803639
 42
0.033489
  0
VERTEX
  8
0
 10
336.706250
 20
317.052725
 42
0.035556
  0
VERTEX
  8
0
 10
336.386693
 20
318.041340
 42
0.159713
  0
VERTEX
  8
0
 10
336.000000
 20
318.500000
 42
-0.172127
  0
VERTEX
  8
0
 10
335.096176
 20
319.626156
 42
-0.139409
  0
VERTEX
  8
0
 10
335.005255
 20
321.182221
 42
-0.147480
  0
VERTEX
  8
0
 10
335.740680
 20
322.492312
 42
-0.193987
  0
VERTEX
  8
0
 10
337.000000
 20
323.000000
 42
0.066978
  0
VERTEX
  8
0
 10
337.764510
 20
323.102873
 42
0.083889
  0
VERTEX
  8
0
 10
338.412500
 20
323.403906
 42
0.099491
  0
VERTEX
  8
0
 10
338.845853
 20
323.850654
 42
0.143944
  0
VERTEX
  8
0
 10
339.000000
 20
324.375000
 42
-0.183021
  0
VERTEX
  8
0
 10
339.216014
 20
324.945366
 42
-0.066225
  0
VERTEX
  8
0
 10
339.881250
 20
325.522344
 42
-0.054647
  0
VERTEX
  8
0
 10
340.851844
 20
326.019073
 42
-0.041636
  0
VERTEX
  8
0
 10
342.000000
 20
326.350000
 42
0.041467
  0
VERTEX
  8
0
 10
343.216462
 20
326.700171
 42
0.065235
  0
VERTEX
  8
0
 10
344.172597
 20
327.214411
 42
0.083887
  0
VERTEX
  8
0
 10
344.787488
 20
327.836379
 42
0.154281
  0
VERTEX
  8
0
 10
345.000000
 20
328.508704
 42
-0.123205
  0
VERTEX
  8
0
 10
345.199900
 20
329.307638
 42
-0.027111
  0
VERTEX
  8
0
 10
345.938171
 20
330.526629
 42
-0.026641
  0
VERTEX
  8
0
 10
346.971206
 20
331.879796
 42
-0.022868
  0
VERTEX
  8
0
 10
348.193774
 20
333.189420
 42
0.028223
  0
VERTEX
  8
0
 10
349.753692
 20
334.896686
 42
0.061917
  0
VERTEX
  8
0
 10
350.692470
 20
336.393320
 42
0.070146
  0
VERTEX
  8
0
 10
351.168047
 20
337.950098
 42
0.046223
  0
VERTEX
  8
0
 10
351.288054
 20
339.821425
 42
-0.057583
  0
VERTEX
  8
0
 10
351.544570
 20
342.772651
 42
-0.132186
  0
VERTEX
  8
0
 10
352.536112
 20
344.751090
 42
-0.235592
  0
VERTEX
  8
0
 10
353.974414
 20
345.326594
 42
-0.177651
  0
VERTEX
  8
0
 10
355.542643
 20
344.600215
 42
0.089572
  0
VERTEX
  8
0
 10
356.462679
 20
343.961649
 42
0.025423
  0
VERTEX
  8
0
 10
358.088358
 20
343.317548
 42
0.024740
  0
VERTEX
  8
0
 10
360.031693
 20
342.765200
 42
0.023897
  0
VERTEX
  8
0
 10
362.042643
 20
342.399955
 42
-0.016215
  0
VERTEX
  8
0
 10
363.942655
 20
342.084922
 42
-0.025605
  0
VERTEX
  8
0
 10
365.543776
 20
341.679608
 42
-0.023092
  0
VERTEX
  8
0
 10
366.749232
 20
341.245977
 42
-0.303678
  0
VERTEX
  8
0
 10
367.000000
 20
340.871169
 42
0.248135
  0
VERTEX
  8
0
 10
367.176864
 20
340.536727
 42
0.065743
  0
VERTEX
  8
0
 10
367.734375
 20
340.255906
 42
0.050786
  0
VERTEX
  8
0
 10
368.542367
 20
340.063458
 42
0.033097
  0
VERTEX
  8
0
 10
369.500000
 20
340.000000
 42
-0.038131
  0
VERTEX
  8
0
 10
370.457356
 20
339.926884
 42
-0.057076
  0
VERTEX
  8
0
 10
371.265625
 20
339.706250
 42
-0.074992
  0
VERTEX
  8
0
 10
371.817169
 20
339.382936
 42
-0.226478
  0
VERTEX
  8
0
 10
372.000000
 20
339.000000
 42
0.226478
  0
VERTEX
  8
0
 10
372.182831
 20
338.617064
 42
0.074992
  0
VERTEX
  8
0
 10
372.734375
 20
338.293750
 42
0.057076
  0
VERTEX
  8
0
 10
373.542644
 20
338.073116
 42
0.038131
  0
VERTEX
  8
0
 10
374.500000
 20
338.000000
 42
0.038131
  0
VERTEX
  8
0
 10
375.457356
 20
338.073116
 42
0.057076
  0
VERTEX
  8
0
 10
376.265625
 20
338.293750
 42
0.074992
  0
VERTEX
  8
0
 10
376.817169
 20
338.617064
 42
0.226478
  0
VERTEX
  8
0
 10
377.000000
 20
339.000000
 42
-0.148195
  0
VERTEX
  8
0
 10
377.115568
 20
339.381354
 42
-0.098894
  0
VERTEX
  8
0
 10
377.440625
 20
339.706250
 42
-0.082425
  0
VERTEX
  8
0
 10
377.926543
 20
339.925306
 42
-0.064853
  0
VERTEX
  8
0
 10
378.500000
 20
340.000000
 42
0.064853
  0
VERTEX
  8
0
 10
379.073457
 20
340.074694
 42
0.082425
  0
VERTEX
  8
0
 10
379.559375
 20
340.293750
 42
0.098894
  0
VERTEX
  8
0
 10
379.884432
 20
340.618646
 42
0.148195
  0
VERTEX
  8
0
 10
380.000000
 20
341.000000
 42
-0.191087
  0
VERTEX
  8
0
 10
380.151477
 20
341.381882
 42
-0.088204
  0
VERTEX
  8
0
 10
380.587500
 20
341.706250
 42
-0.068025
  0
VERTEX
  8
0
 10
381.234582
 20
341.926307
 42
-0.048028
  0
VERTEX
  8
0
 10
382.000000
 20
342.000000
 42
-0.048028
  0
VERTEX
  8
0
 10
382.765418
 20
341.926307
 42
-0.068025
  0
VERTEX
  8
0
 10
383.412500
 20
341.706250
 42
-0.088204
  0
VERTEX
  8
0
 10
383.848523
 20
341.381882
 42
-0.191087
  0
VERTEX
  8
0
 10
384.000000
 20
341.000000
 42
0.354925
  0
VERTEX
  8
0
 10
384.332853
 20
340.590162
 42
0.018508
  0
VERTEX
  8
0
 10
386.125000
 20
340.283333
 42
0.021620
  0
VERTEX
  8
0
 10
388.522473
 20
340.068623
 42
0.011522
  0
VERTEX
  8
0
 10
391.500000
 20
340.000000
 42
-0.011522
  0
VERTEX
  8
0
 10
394.477527
 20
339.931377
 42
-0.021620
  0
VERTEX
  8
0
 10
396.875000
 20
339.716667
 42
-0.018508
  0
VERTEX
  8
0
 10
398.667147
 20
339.409838
 42
-0.354925
  0
VERTEX
  8
0
 10
399.000000
 20
339.000000
 42
0.226478
  0
VERTEX
  8
0
 10
399.182831
 20
338.617064
 42
0.074992
  0
VERTEX
  8
0
 10
399.734375
 20
338.293750
 42
0.057076
  0
VERTEX
  8
0
 10
400.542644
 20
338.073116
 42
0.038131
  0
VERTEX
  8
0
 10
401.500000
 20
338.000000
 42
0.038131
  0
VERTEX
  8
0
 10
402.457356
 20
338.073116
 42
0.057076
  0
VERTEX
  8
0
 10
403.265625
 20
338.293750
 42
0.074992
  0
VERTEX
  8
0
 10
403.817169
 20
338.617064
 42
0.226478
  0
VERTEX
  8
0
 10
404.000000
 20
339.000000
 42
-0.339565
  0
VERTEX
  8
0
 10
404.303225
 20
339.395008
 42
-0.024068
  0
VERTEX
  8
0
 10
405.750000
 20
339.708333
 42
-0.025878
  0
VERTEX
  8
0
 10
407.683687
 20
339.928566
 42
-0.015416
  0
VERTEX
  8
0
 10
410.000000
 20
340.000000
 42
-0.015416
  0
VERTEX
  8
0
 10
412.316313
 20
339.928566
 42
-0.025878
  0
VERTEX
  8
0
 10
414.250000
 20
339.708333
 42
-0.024068
  0
VERTEX
  8
0
 10
415.696775
 20
339.395008
 42
-0.339565
  0
VERTEX
  8
0
 10
416.000000
 20
339.000000
 42
0.191087
  0
VERTEX
  8
0
 10
416.151477
 20
338.618118
 42
0.088204
  0
VERTEX
  8
0
 10
416.587500
 20
338.293750
 42
0.068025
  0
VERTEX
  8
0
 10
417.234582
 20
338.073693
 42
0.048028
  0
VERTEX
  8
0
 10
418.000000
 20
338.000000
 42
0.048028
  0
VERTEX
  8
0
 10
418.765418
 20
338.073693
 42
0.068025
  0
VERTEX
  8
0
 10
419.412500
 20
338.293750
 42
0.088204
  0
VERTEX
  8
0
 10
419.848523
 20
338.618118
 42
0.191087
  0
VERTEX
  8
0
 10
420.000000
 20
339.000000
 42
-0.254951
  0
VERTEX
  8
0
 10
420.209557
 20
339.384262
 42
-0.062710
  0
VERTEX
  8
0
 10
420.881250
 20
339.706250
 42
-0.048861
  0
VERTEX
  8
0
 10
421.850749
 20
339.927234
 42
-0.031626
  0
VERTEX
  8
0
 10
423.000000
 20
340.000000
 42
-0.031626
  0
VERTEX
  8
0
 10
424.149251
 20
339.927234
 42
-0.048861
  0
VERTEX
  8
0
 10
425.118750
 20
339.706250
 42
-0.062710
  0
VERTEX
  8
0
 10
425.790443
 20
339.384262
 42
-0.254951
  0
VERTEX
  8
0
 10
426.000000
 20
339.000000
 42
0.140362
  0
VERTEX
  8
0
 10
426.109202
 20
338.618662
 42
0.099913
  0
VERTEX
  8
0
 10
426.416146
 20
338.293750
 42
0.085122
  0
VERTEX
  8
0
 10
426.875200
 20
338.074923
 42
0.068857
  0
VERTEX
  8
0
 10
427.416667
 20
338.000000
 42
-0.080074
  0
VERTEX
  8
0
 10
427.995939
 20
337.906632
 42
-0.064399
  0
VERTEX
  8
0
 10
428.565351
 20
337.632813
 42
-0.065245
  0
VERTEX
  8
0
 10
429.039141
 20
337.227909
 42
-0.087674
  0
VERTEX
  8
0
 10
429.337719
 20
336.750000
 42
0.009076
  0
VERTEX
  8
0
 10
429.617987
 20
336.090194
 42
0.295955
  0
VERTEX
  8
0
 10
429.757018
 20
336.000000
 42
0.382689
  0
VERTEX
  8
0
 10
429.864758
 20
336.096611
 42
0.011437
  0
VERTEX
  8
0
 10
429.921053
 20
336.750000
 42
-0.116386
  0
VERTEX
  8
0
 10
430.065889
 20
337.226981
 42
-0.093931
  0
VERTEX
  8
0
 10
430.417434
 20
337.632812
 42
-0.086824
  0
VERTEX
  8
0
 10
430.921074
 20
337.905619
 42
-0.080979
  0
VERTEX
  8
0
 10
431.500000
 20
338.000000
 42
0.064853
  0
VERTEX
  8
0
 10
432.073457
 20
338.074694
 42
0.082425
  0
VERTEX
  8
0
 10
432.559375
 20
338.293750
 42
0.098894
  0
VERTEX
  8
0
 10
432.884432
 20
338.618646
 42
0.148195
  0
VERTEX
  8
0
 10
433.000000
 20
339.000000
 42
-0.277684
  0
VERTEX
  8
0
 10
433.232098
 20
339.385692
 42
-0.052312
  0
VERTEX
  8
0
 10
434.028125
 20
339.706250
 42
-0.042582
  0
VERTEX
  8
0
 10
435.158889
 20
339.927458
 42
-0.027026
  0
VERTEX
  8
0
 10
436.500000
 20
340.000000
 42
-0.027026
  0
VERTEX
  8
0
 10
437.841111
 20
339.927458
 42
-0.042582
  0
VERTEX
  8
0
 10
438.971875
 20
339.706250
 42
-0.052312
  0
VERTEX
  8
0
 10
439.767902
 20
339.385692
 42
-0.277684
  0
VERTEX
  8
0
 10
440.000000
 20
339.000000
 42
0.191087
  0
VERTEX
  8
0
 10
440.151477
 20
338.618118
 42
0.088204
  0
VERTEX
  8
0
 10
440.587500
 20
338.293750
 42
0.068025
  0
VERTEX
  8
0
 10
441.234582
 20
338.073693
 42
0.048028
  0
VERTEX
  8
0
 10
442.000000
 20
338.000000
 42
0.048028
  0
VERTEX
  8
0
 10
442.765418
 20
338.073693
 42
0.068025
  0
VERTEX
  8
0
 10
443.412500
 20
338.293750
 42
0.088204
  0
VERTEX
  8
0
 10
443.848523
 20
338.618118
 42
0.191087
  0
VERTEX
  8
0
 10
444.000000
 20
339.000000
 42
-0.250638
  0
VERTEX
  8
0
 10
444.205409
 20
339.384030
 42
-0.064635
  0
VERTEX
  8
0
 10
444.856771
 20
339.706250
 42
-0.050076
  0
VERTEX
  8
0
 10
445.799395
 20
339.927186
 42
-0.032551
  0
VERTEX
  8
0
 10
446.916667
 20
340.000000
 42
0.029779
  0
VERTEX
  8
0
 10
448.057815
 20
340.068026
 42
0.039806
  0
VERTEX
  8
0
 10
449.074479
 20
340.272687
 42
0.044727
  0
VERTEX
  8
0
 10
449.846509
 20
340.570014
 42
0.194665
  0
VERTEX
  8
0
 10
450.166667
 20
340.928297
 42
-0.311750
  0
VERTEX
  8
0
 10
451.670363
 20
342.005554
 42
-0.002114
  0
VERTEX
  8
0
 10
468.474136
 20
342.224375
 42
-0.002086
  0
VERTEX
  8
0
 10
485.289611
 20
342.302078
 42
-0.322945
  0
VERTEX
  8
0
 10
486.749991
 20
341.250000
 42
0.255647
  0
VERTEX
  8
0
 10
487.701388
 20
340.366403
 42
0.052026
  0
VERTEX
  8
0
 10
490.059630
 20
340.024602
 42
0.055646
  0
VERTEX
  8
0
 10
492.322380
 20
340.185981
 42
0.361751
  0
VERTEX
  8
0
 10
493.000000
 20
341.000000
 42
-0.350432
  0
VERTEX
  8
0
 10
493.323933
 20
341.405433
 42
-0.020168
  0
VERTEX
  8
0
 10
495.000000
 20
341.714286
 42
-0.022889
  0
VERTEX
  8
0
 10
497.243014
 20
341.930567
 42
-0.012590
  0
VERTEX
  8
0
 10
500.000000
 20
342.000000
 42
-0.012590
  0
VERTEX
  8
0
 10
502.756986
 20
341.930567
 42
-0.022889
  0
VERTEX
  8
0
 10
505.000000
 20
341.714286
 42
-0.020168
  0
VERTEX
  8
0
 10
506.676067
 20
341.405433
 42
-0.350432
  0
VERTEX
  8
0
 10
507.000000
 20
341.000000
 42
0.277684
  0
VERTEX
  8
0
 10
507.232098
 20
340.614308
 42
0.052312
  0
VERTEX
  8
0
 10
508.028125
 20
340.293750
 42
0.042582
  0
VERTEX
  8
0
 10
509.158889
 20
340.072542
 42
0.027026
  0
VERTEX
  8
0
 10
510.500000
 20
340.000000
 42
-0.027026
  0
VERTEX
  8
0
 10
511.841111
 20
339.927458
 42
-0.042582
  0
VERTEX
  8
0
 10
512.971875
 20
339.706250
 42
-0.052312
  0
VERTEX
  8
0
 10
513.767902
 20
339.385692
 42
-0.277684
  0
VERTEX
  8
0
 10
514.000000
 20
339.000000
 42
0.148195
  0
VERTEX
  8
0
 10
514.115568
 20
338.618646
 42
0.098894
  0
VERTEX
  8
0
 10
514.440625
 20
338.293750
 42
0.082425
  0
VERTEX
  8
0
 10
514.926543
 20
338.074694
 42
0.064853
  0
VERTEX
  8
0
 10
515.500000
 20
338.000000
 42
0.064853
  0
VERTEX
  8
0
 10
516.073457
 20
338.074694
 42
0.082425
  0
VERTEX
  8
0
 10
516.559375
 20
338.293750
 42
0.098894
  0
VERTEX
  8
0
 10
516.884432
 20
338.618646
 42
0.148195
  0
VERTEX
  8
0
 10
517.000000
 20
339.000000
 42
-0.322437
  0
VERTEX
  8
0
 10
517.280551
 20
339.389817
 42
-0.031449
  0
VERTEX
  8
0
 10
518.468750
 20
339.706250
 42
-0.030530
  0
VERTEX
  8
0
 10
520.083446
 20
339.927795
 42
-0.018830
  0
VERTEX
  8
0
 10
522.000000
 20
340.000000
 42
-0.018830
  0
VERTEX
  8
0
 10
523.916554
 20
339.927795
 42
-0.030530
  0
VERTEX
  8
0
 10
525.531250
 20
339.706250
 42
-0.031449
  0
VERTEX
  8
0
 10
526.719449
 20
339.389817
 42
-0.322437
  0
VERTEX
  8
0
 10
527.000000
 20
339.000000
 42
0.148195
  0
VERTEX
  8
0
 10
527.115568
 20
338.618646
 42
0.098894
  0
VERTEX
  8
0
 10
527.440625
 20
338.293750
 42
0.082425
  0
VERTEX
  8
0
 10
527.926543
 20
338.074694
 42
0.064853
  0
VERTEX
  8
0
 10
528.500000
 20
338.000000
 42
-0.051999
  0
VERTEX
  8
0
 10
529.073919
 20
337.940152
 42
-0.071891
  0
VERTEX
  8
0
 10
529.559375
 20
337.762206
 42
-0.091873
  0
VERTEX
  8
0
 10
529.885564
 20
337.499447
 42
-0.179247
  0
VERTEX
  8
0
 10
530.000000
 20
337.190489
 42
0.350362
  0
VERTEX
  8
0
 10
530.288853
 20
336.828870
 42
0.005358
  0
VERTEX
  8
0
 10
533.084375
 20
336.226905
 42
0.011642
  0
VERTEX
  8
0
 10
536.474348
 20
335.616698
 42
0.007111
  0
VERTEX
  8
0
 10
540.500000
 20
335.046960
 42
-0.007523
  0
VERTEX
  8
0
 10
544.525606
 20
334.473838
 42
-0.012301
  0
VERTEX
  8
0
 10
547.915625
 20
333.853222
 42
-0.005961
  0
VERTEX
  8
0
 10
550.697128
 20
333.238258
 42
-0.348481
  0
VERTEX
  8
0
 10
551.000000
 20
332.856471
 42
0.290541
  0
VERTEX
  8
0
 10
551.420501
 20
332.193907
 42
0.140753
  0
VERTEX
  8
0
 10
552.452355
 20
332.027281
 42
0.108693
  0
VERTEX
  8
0
 10
553.617035
 20
332.434174
 42
0.171177
  0
VERTEX
  8
0
 10
554.275530
 20
333.250000
 42
-0.312349
  0
VERTEX
  8
0
 10
554.683224
 20
333.544322
 42
-0.128739
  0
VERTEX
  8
0
 10
555.379966
 20
333.376563
 42
-0.058155
  0
VERTEX
  8
0
 10
556.398420
 20
332.666973
 42
-0.019003
  0
VERTEX
  8
0
 10
557.724035
 20
331.400187
 42
0.043446
  0
VERTEX
  8
0
 10
559.209642
 20
330.113229
 42
0.024477
  0
VERTEX
  8
0
 10
561.208721
 20
328.808946
 42
0.024271
  0
VERTEX
  8
0
 10
563.370929
 20
327.681588
 42
0.036260
  0
VERTEX
  8
0
 10
565.365172
 20
326.931871
 42
-0.023847
  0
VERTEX
  8
0
 10
567.140471
 20
326.314268
 42
-0.034251
  0
VERTEX
  8
0
 10
568.638519
 20
325.588872
 42
-0.036605
  0
VERTEX
  8
0
 10
569.717803
 20
324.862156
 42
-0.230195
  0
VERTEX
  8
0
 10
570.000000
 20
324.281685
 42
0.076477
  0
VERTEX
  8
0
 10
570.075336
 20
323.792024
 42
0.089551
  0
VERTEX
  8
0
 10
570.293750
 20
323.376495
 42
0.100755
  0
VERTEX
  8
0
 10
570.618635
 20
323.098713
 42
0.127323
  0
VERTEX
  8
0
 10
571.000000
 20
323.000000
 42
-0.094386
  0
VERTEX
  8
0
 10
571.381710
 20
322.927296
 42
-0.096730
  0
VERTEX
  8
0
 10
571.706250
 20
322.719602
 42
-0.098961
  0
VERTEX
  8
0
 10
571.923492
 20
322.409682
 42
-0.103894
  0
VERTEX
  8
0
 10
572.000000
 20
322.045455
 42
0.189145
  0
VERTEX
  8
0
 10
572.658525
 20
320.366943
 42
0.041049
  0
VERTEX
  8
0
 10
574.998789
 20
318.225790
 42
0.042511
  0
VERTEX
  8
0
 10
577.887321
 20
316.358097
 42
0.076035
  0
VERTEX
  8
0
 10
580.549242
 20
315.424784
 42
-0.026994
  0
VERTEX
  8
0
 10
582.009101
 20
315.068429
 42
-0.024999
  0
VERTEX
  8
0
 10
583.460877
 20
314.549351
 42
-0.025836
  0
VERTEX
  8
0
 10
584.705162
 20
313.955902
 42
-0.072303
  0
VERTEX
  8
0
 10
585.477639
 20
313.379504
 42
0.086763
  0
VERTEX
  8
0
 10
586.796160
 20
312.453431
 42
0.089108
  0
VERTEX
  8
0
 10
588.338503
 20
312.040710
 42
0.131513
  0
VERTEX
  8
0
 10
589.526433
 20
312.254183
 42
0.290660
  0
VERTEX
  8
0
 10
590.000000
 20
313.000000
 42
-0.186414
  0
VERTEX
  8
0
 10
590.147465
 20
313.381787
 42
-0.089706
  0
VERTEX
  8
0
 10
590.570164
 20
313.706250
 42
-0.069539
  0
VERTEX
  8
0
 10
591.198222
 20
313.926216
 42
-0.049547
  0
VERTEX
  8
0
 10
591.940983
 20
314.000000
 42
0.098344
  0
VERTEX
  8
0
 10
593.561722
 20
314.321893
 42
0.212675
  0
VERTEX
  8
0
 10
594.418826
 20
315.224447
 42
0.100480
  0
VERTEX
  8
0
 10
594.674133
 20
317.033748
 42
0.014446
  0
VERTEX
  8
0
 10
594.340465
 20
320.773121
 42
0.017550
  0
VERTEX
  8
0
 10
593.957703
 20
323.255554
 42
0.057715
  0
VERTEX
  8
0
 10
593.463215
 20
324.835151
 42
0.094818
  0
VERTEX
  8
0
 10
592.789547
 20
325.803644
 42
0.130277
  0
VERTEX
  8
0
 10
591.870512
 20
326.323611
 42
-0.066167
  0
VERTEX
  8
0
 10
591.155463
 20
326.615798
 42
-0.068139
  0
VERTEX
  8
0
 10
590.549463
 20
327.082371
 42
-0.075117
  0
VERTEX
  8
0
 10
590.140171
 20
327.645325
 42
-0.120249
  0
VERTEX
  8
0
 10
590.000000
 20
328.219734
 42
0.179432
  0
VERTEX
  8
0
 10
589.764743
 20
328.854187
 42
0.047368
  0
VERTEX
  8
0
 10
588.971875
 20
329.616814
 42
0.041846
  0
VERTEX
  8
0
 10
587.839815
 20
330.370944
 42
0.032535
  0
VERTEX
  8
0
 10
586.500000
 20
331.000000
 42
-0.018561
  0
VERTEX
  8
0
 10
585.159172
 20
331.584405
 42
-0.026968
  0
VERTEX
  8
0
 10
584.028125
 20
332.205339
 42
-0.025505
  0
VERTEX
  8
0
 10
583.190352
 20
332.787129
 42
-0.232247
  0
VERTEX
  8
0
 10
583.000000
 20
333.174829
 42
0.286115
  0
VERTEX
  8
0
 10
582.783275
 20
333.522562
 42
0.027583
  0
VERTEX
  8
0
 10
581.825000
 20
333.928804
 42
0.028472
  0
VERTEX
  8
0
 10
580.532880
 20
334.312819
 42
0.018350
  0
VERTEX
  8
0
 10
579.000000
 20
334.615991
 42
-0.027943
  0
VERTEX
  8
0
 10
577.467859
 20
334.949668
 42
-0.041069
  0
VERTEX
  8
0
 10
576.175000
 20
335.425118
 42
-0.047919
  0
VERTEX
  8
0
 10
575.261375
 20
335.960743
 42
-0.240686
  0
VERTEX
  8
0
 10
575.000000
 20
336.472269
 42
0.161865
  0
VERTEX
  8
0
 10
574.274777
 20
338.653781
 42
0.074151
  0
VERTEX
  8
0
 10
572.119403
 20
340.789730
 42
0.064556
  0
VERTEX
  8
0
 10
569.044310
 20
342.485301
 42
0.061781
  0
VERTEX
  8
0
 10
565.592422
 20
343.372490
 42
-0.024344
  0
VERTEX
  8
0
 10
563.356389
 20
343.772092
 42
-0.042416
  0
VERTEX
  8
0
 10
561.563777
 20
344.346916
 42
-0.052525
  0
VERTEX
  8
0
 10
560.203691
 20
345.090005
 42
-0.088931
  0
VERTEX
  8
0
 10
559.285718
 20
346.002468
 42
0.043899
  0
VERTEX
  8
0
 10
558.643637
 20
346.766702
 42
0.042958
  0
VERTEX
  8
0
 10
557.873617
 20
347.413225
 42
0.046295
  0
VERTEX
  8
0
 10
557.096562
 20
347.858189
 42
0.107291
  0
VERTEX
  8
0
 10
556.443296
 20
348.000000
 42
-0.067526
  0
VERTEX
  8
0
 10
555.891607
 20
348.074848
 42
-0.084255
  0
VERTEX
  8
0
 10
555.423968
 20
348.293750
 42
-0.099624
  0
VERTEX
  8
0
 10
555.111246
 20
348.618659
 42
-0.142884
  0
VERTEX
  8
0
 10
555.000000
 20
349.000000
 42
0.226478
  0
VERTEX
  8
0
 10
554.817169
 20
349.382936
 42
0.074992
  0
VERTEX
  8
0
 10
554.265625
 20
349.706250
 42
0.057076
  0
VERTEX
  8
0
 10
553.457356
 20
349.926884
 42
0.038131
  0
VERTEX
  8
0
 10
552.500000
 20
350.000000
 42
0.038131
  0
VERTEX
  8
0
 10
551.542644
 20
349.926884
 42
0.057076
  0
VERTEX
  8
0
 10
550.734375
 20
349.706250
 42
0.074992
  0
VERTEX
  8
0
 10
550.182831
 20
349.382936
 42
0.226478
  0
VERTEX
  8
0
 10
550.000000
 20
349.000000
 42
-0.148195
  0
VERTEX
  8
0
 10
549.884432
 20
348.618646
 42
-0.098894
  0
VERTEX
  8
0
 10
549.559375
 20
348.293750
 42
-0.082425
  0
VERTEX
  8
0
 10
549.073457
 20
348.074694
 42
-0.064853
  0
VERTEX
  8
0
 10
548.500000
 20
348.000000
 42
-0.053928
  0
VERTEX
  8
0
 10
547.926151
 20
348.062074
 42
-0.073663
  0
VERTEX
  8
0
 10
547.440625
 20
348.246249
 42
-0.093367
  0
VERTEX
  8
0
 10
547.114735
 20
348.518420
 42
-0.173919
  0
VERTEX
  8
0
 10
547.000000
 20
348.838295
 42
0.347418
  0
VERTEX
  8
0
 10
546.704934
 20
349.211696
 42
0.006275
  0
VERTEX
  8
0
 10
544.062500
 20
349.804693
 42
0.012632
  0
VERTEX
  8
0
 10
540.833887
 20
350.402027
 42
0.007731
  0
VERTEX
  8
0
 10
537.000000
 20
350.950981
 42
-0.007789
  0
VERTEX
  8
0
 10
532.504092
 20
351.595255
 42
-0.023057
  0
VERTEX
  8
0
 10
529.451470
 20
352.226826
 42
-0.027540
  0
VERTEX
  8
0
 10
527.448200
 20
352.857917
 42
-0.312226
  0
VERTEX
  8
0
 10
527.000000
 20
353.505697
 42
0.248022
  0
VERTEX
  8
0
 10
526.339161
 20
354.755967
 42
0.099684
  0
VERTEX
  8
0
 10
524.503024
 20
355.531458
 42
0.045369
  0
VERTEX
  8
0
 10
521.113873
 20
355.906583
 42
0.009814
  0
VERTEX
  8
0
 10
515.213318
 20
355.906172
 42
-0.008748
  0
VERTEX
  8
0
 10
511.241815
 20
355.897423
 42
-0.026802
  0
VERTEX
  8
0
 10
508.557249
 20
356.082635
 42
-0.037793
  0
VERTEX
  8
0
 10
506.774061
 20
356.440435
 42
-0.188084
  0
VERTEX
  8
0
 10
505.973092
 20
357.043538
 42
0.258211
  0
VERTEX
  8
0
 10
502.527065
 20
358.979431
 42
0.002181
  0
VERTEX
  8
0
 10
470.844106
 20
359.045783
 42
0.001878
  0
VERTEX
  8
0
 10
438.947382
 20
358.853671
 42
0.411352
  0
VERTEX
  8
0
 10
437.000000
 20
356.887153
 42
-0.259809
  0
VERTEX
  8
0
 10
436.622163
 20
356.209092
 42
-0.188331
  0
VERTEX
  8
0
 10
435.754250
 20
356.049598
 42
-0.108727
  0
VERTEX
  8
0
 10
434.592790
 20
356.550493
 42
-0.079079
  0
VERTEX
  8
0
 10
433.590920
 20
357.544772
 42
0.070746
  0
VERTEX
  8
0
 10
433.012934
 20
358.137713
 42
0.047593
  0
VERTEX
  8
0
 10
432.211341
 20
358.642283
 42
0.047320
  0
VERTEX
  8
0
 10
431.321937
 20
358.989418
 42
0.066686
  0
VERTEX
  8
0
 10
430.480677
 20
359.111724
 42
0.034107
  0
VERTEX
  8
0
 10
427.384503
 20
358.935079
 42
0.021426
  0
VERTEX
  8
0
 10
423.808682
 20
358.328537
 42
0.012530
  0
VERTEX
  8
0
 10
420.512921
 20
357.536221
 42
0.339681
  0
VERTEX
  8
0
 10
420.000000
 20
356.868331
 42
-0.400916
  0
VERTEX
  8
0
 10
419.148561
 20
355.977142
 42
-0.023789
  0
VERTEX
  8
0
 10
415.062889
 20
355.985135
 42
-0.023963
  0
VERTEX
  8
0
 10
410.921274
 20
356.389984
 42
-0.271122
  0
VERTEX
  8
0
 10
409.684568
 20
357.379619
 42
0.207864
  0
VERTEX
  8
0
 10
409.047415
 20
358.028474
 42
0.058443
  0
VERTEX
  8
0
 10
407.647613
 20
358.412648
 42
0.034585
  0
VERTEX
  8
0
 10
405.394989
 20
358.597685
 42
0.009457
  0
VERTEX
  8
0
 10
401.827579
 20
358.575935
 42
-0.016739
  0
VERTEX
  8
0
 10
394.231577
 20
358.640227
 42
-0.011610
  0
VERTEX
  8
0
 10
385.662514
 20
359.199351
 42
-0.004748
  0
VERTEX
  8
0
 10
377.443770
 20
360.006306
 42
-0.227523
  0
VERTEX
  8
0
 10
376.068933
 20
360.858324
 42
0.128809
  0
VERTEX
  8
0
 10
375.648013
 20
361.247331
 42
0.024255
  0
VERTEX
  8
0
 10
374.692588
 20
361.698656
 42
0.024493
  0
VERTEX
  8
0
 10
373.494272
 20
362.127718
 42
0.020294
  0
VERTEX
  8
0
 10
372.182430
 20
362.468664
 42
-0.034100
  0
VERTEX
  8
0
 10
370.873050
 20
362.847827
 42
-0.038434
  0
VERTEX
  8
0
 10
369.680943
 20
363.390039
 42
-0.041861
  0
VERTEX
  8
0
 10
368.758525
 20
364.004139
 42
-0.134133
  0
VERTEX
  8
0
 10
368.325442
 20
364.594296
 42
0.126128
  0
VERTEX
  8
0
 10
367.943396
 20
365.132466
 42
0.063968
  0
VERTEX
  8
0
 10
367.241530
 20
365.587074
 42
0.057330
  0
VERTEX
  8
0
 10
366.348310
 20
365.895490
 42
0.054537
  0
VERTEX
  8
0
 10
365.393011
 20
366.000000
 42
-0.150737
  0
VERTEX
  8
0
 10
363.677571
 20
366.529185
 42
-0.249118
  0
VERTEX
  8
0
 10
362.989024
 20
367.838760
 42
-0.186280
  0
VERTEX
  8
0
 10
363.631669
 20
369.483070
 42
-0.100930
  0
VERTEX
  8
0
 10
365.413265
 20
370.778527
 42
0.052542
  0
VERTEX
  8
0
 10
366.385051
 20
371.351200
 42
0.040735
  0
VERTEX
  8
0
 10
367.309782
 20
372.160496
 42
0.041884
  0
VERTEX
  8
0
 10
368.055102
 20
373.069591
 42
0.074054
  0
VERTEX
  8
0
 10
368.480653
 20
373.939042
 42
-0.038536
  0
VERTEX
  8
0
 10
368.799698
 20
374.727815
 42
-0.048718
  0
VERTEX
  8
0
 10
369.216582
 20
375.394594
 42
-0.056916
  0
VERTEX
  8
0
 10
369.663241
 20
375.855385
 42
-0.173526
  0
VERTEX
  8
0
 10
370.067388
 20
376.000000
 42
0.236786
  0
VERTEX
  8
0
 10
370.424916
 20
376.179372
 42
0.070673
  0
VERTEX
  8
0
 10
370.726045
 20
376.731017
 42
0.054048
  0
VERTEX
  8
0
 10
370.931938
 20
377.535453
 42
0.035659
  0
VERTEX
  8
0
 10
371.000000
 20
378.488569
 42
0.095719
  0
VERTEX
  8
0
 10
370.598235
 20
380.568021
 42
0.059396
  0
VERTEX
  8
0
 10
369.401648
 20
382.756464
 42
0.061943
  0
VERTEX
  8
0
 10
367.841151
 20
384.456106
 42
0.177924
  0
VERTEX
  8
0
 10
366.361092
 20
385.000000
 42
-0.093378
  0
VERTEX
  8
0
 10
365.866577
 20
385.093166
 42
-0.065377
  0
VERTEX
  8
0
 10
365.368539
 20
385.367188
 42
-0.063344
  0
VERTEX
  8
0
 10
364.942575
 20
385.772113
 42
-0.074822
  0
VERTEX
  8
0
 10
364.659464
 20
386.250000
 42
0.046698
  0
VERTEX
  8
0
 10
364.371409
 20
386.804940
 42
0.239352
  0
VERTEX
  8
0
 10
364.080881
 20
386.974703
 42
0.216797
  0
VERTEX
  8
0
 10
363.750739
 20
386.847399
 42
0.038912
  0
VERTEX
  8
0
 10
363.316114
 20
386.329284
 42
-0.088146
  0
VERTEX
  8
0
 10
362.807804
 20
385.831681
 42
-0.030052
  0
VERTEX
  8
0
 10
361.918158
 20
385.299814
 42
-0.028789
  0
VERTEX
  8
0
 10
360.844847
 20
384.818979
 42
-0.029438
  0
VERTEX
  8
0
 10
359.731278
 20
384.468691
 42
0.056077
  0
VERTEX
  8
0
 10
358.529125
 20
384.019020
 42
0.068501
  0
VERTEX
  8
0
 10
357.543727
 20
383.335038
 42
0.072282
  0
VERTEX
  8
0
 10
356.819501
 20
382.444797
 42
0.073309
  0
VERTEX
  8
0
 10
356.382887
 20
381.389407
 42
-0.052794
  0
VERTEX
  8
0
 10
356.047842
 20
380.475507
 42
-0.061473
  0
VERTEX
  8
0
 10
355.541347
 20
379.701888
 42
-0.071534
  0
VERTEX
  8
0
 10
354.948992
 20
379.176559
 42
-0.146708
  0
VERTEX
  8
0
 10
354.360207
 20
379.000000
 42
0.094510
  0
VERTEX
  8
0
 10
353.773203
 20
378.888044
 42
0.066829
  0
VERTEX
  8
0
 10
353.186146
 20
378.559375
 42
0.064689
  0
VERTEX
  8
0
 10
352.688034
 20
378.073425
 42
0.075682
  0
VERTEX
  8
0
 10
352.361626
 20
377.500000
 42
-0.233368
  0
VERTEX
  8
0
 10
351.000430
 20
376.242401
 42
-0.287316
  0
VERTEX
  8
0
 10
349.366853
 20
376.698429
 42
-0.144947
  0
VERTEX
  8
0
 10
348.237847
 20
379.028989
 42
-0.118186
  0
VERTEX
  8
0
 10
348.438237
 20
381.805401
 42
0.183929
  0
VERTEX
  8
0
 10
348.333960
 20
383.650362
 42
0.079109
  0
VERTEX
  8
0
 10
346.965306
 20
385.747874
 42
0.069735
  0
VERTEX
  8
0
 10
344.769684
 20
387.580478
 42
0.077749
  0
VERTEX
  8
0
 10
342.232226
 20
388.656563
 42
-0.028393
  0
VERTEX
  8
0
 10
341.101352
 20
389.009701
 42
-0.023754
  0
VERTEX
  8
0
 10
339.946483
 20
389.507456
 42
-0.024416
  0
VERTEX
  8
0
 10
338.932660
 20
390.065620
 42
-0.058393
  0
VERTEX
  8
0
 10
338.259903
 20
390.597240
 42
-0.113717
  0
VERTEX
  8
0
 10
337.395564
 20
391.979143
 42
-0.071222
  0
VERTEX
  8
0
 10
337.033208
 20
393.860507
 42
-0.088441
  0
VERTEX
  8
0
 10
337.237092
 20
395.440228
 42
-0.327515
  0
VERTEX
  8
0
 10
338.000000
 20
396.000000
 42
0.175783
  0
VERTEX
  8
0
 10
338.381605
 20
396.138437
 42
0.092856
  0
VERTEX
  8
0
 10
338.706250
 20
396.532110
 42
0.073041
  0
VERTEX
  8
0
 10
338.925994
 20
397.118414
 42
0.053242
  0
VERTEX
  8
0
 10
339.000000
 20
397.811439
 42
-0.080974
  0
VERTEX
  8
0
 10
339.137471
 20
398.654730
 42
-0.035138
  0
VERTEX
  8
0
 10
339.574361
 20
399.707271
 42
-0.033597
  0
VERTEX
  8
0
 10
340.206993
 20
400.784890
 42
-0.038019
  0
VERTEX
  8
0
 10
340.955271
 20
401.721614
 42
0.017570
  0
VERTEX
  8
0
 10
341.939010
 20
402.854873
 42
0.121117
  0
VERTEX
  8
0
 10
342.249678
 20
403.517020
 42
0.261014
  0
VERTEX
  8
0
 10
342.097943
 20
403.985855
 42
0.095477
  0
VERTEX
  8
0
 10
341.485070
 20
404.367356
 42
-0.115407
  0
VERTEX
  8
0
 10
340.888515
 20
404.772166
 42
-0.044283
  0
VERTEX
  8
0
 10
340.273156
 20
405.571160
 42
-0.040862
  0
VERTEX
  8
0
 10
339.733735
 20
406.592044
 42
-0.039649
  0
VERTEX
  8
0
 10
339.361131
 20
407.697277
 42
0.027751
  0
VERTEX
  8
0
 10
339.001195
 20
408.855141
 42
0.023559
  0
VERTEX
  8
0
 10
338.497741
 20
410.032809
 42
0.024227
  0
VERTEX
  8
0
 10
337.935564
 20
411.062991
 42
0.059423
  0
VERTEX
  8
0
 10
337.402760
 20
411.740097
 42
0.111475
  0
VERTEX
  8
0
 10
335.823894
 20
412.737383
 42
0.117046
  0
VERTEX
  8
0
 10
333.998651
 20
412.935834
 42
0.130354
  0
VERTEX
  8
0
 10
332.422352
 20
412.298959
 42
0.156315
  0
VERTEX
  8
0
 10
331.500000
 20
411.000000
 42
-0.055553
  0
VERTEX
  8
0
 10
331.159973
 20
410.235144
 42
-0.060441
  0
VERTEX
  8
0
 10
330.667579
 20
409.587500
 42
-0.068373
  0
VERTEX
  8
0
 10
330.104838
 20
409.147610
 42
-0.132503
  0
VERTEX
  8
0
 10
329.557612
 20
409.000000
 42
0.184209
  0
VERTEX
  8
0
 10
329.014823
 20
408.793003
 42
0.065811
  0
VERTEX
  8
0
 10
328.464943
 20
408.154157
 42
0.054295
  0
VERTEX
  8
0
 10
327.990821
 20
407.222584
 42
0.041248
  0
VERTEX
  8
0
 10
327.674107
 20
406.120536
 42
-0.063497
  0
VERTEX
  8
0
 10
326.865221
 20
403.713706
 42
-0.075835
  0
VERTEX
  8
0
 10
325.510539
 20
401.743842
 42
-0.085907
  0
VERTEX
  8
0
 10
323.793934
 20
400.450759
 42
-0.119109
  0
VERTEX
  8
0
 10
321.928571
 20
400.000000
 42
-0.078448
  0
VERTEX
  8
0
 10
321.089220
 20
400.132506
 42
-0.127325
  0
VERTEX
  8
0
 10
320.483399
 20
400.517781
 42
-0.121213
  0
VERTEX
  8
0
 10
320.121743
 20
401.164608
 42
-0.067244
  0
VERTEX
  8
0
 10
320.000000
 20
402.065741
 42
0.076231
  0
VERTEX
  8
0
 10
319.667712
 20
404.232546
 42
0.057871
  0
VERTEX
  8
0
 10
318.686357
 20
406.430375
 42
0.042069
  0
VERTEX
  8
0
 10
316.911749
 20
408.917979
 42
0.016670
  0
VERTEX
  8
0
 10
314.087548
 20
412.029225
 42
0.000000
  0
VERTEX
  8
0
 10
310.329249
 20
415.901896
 42
0.000000
  0
VERTEX
  8
0
 10
310.152383
 20
427.200948
 42
0.007793
  0
VERTEX
  8
0
 10
310.013756
 20
431.637236
 42
0.013241
  0
VERTEX
  8
0
 10
309.741839
 20
435.339957
 42
0.007425
  0
VERTEX
  8
0
 10
309.397005
 20
438.334853
 42
0.286431
  0
VERTEX
  8
0
 10
308.987759
 20
438.833333
 42
-0.162003
  0
VERTEX
  8
0
 10
308.608673
 20
439.119535
 42
-0.058779
  0
VERTEX
  8
0
 10
308.290154
 20
439.723256
 42
-0.050589
  0
VERTEX
  8
0
 10
308.072918
 20
440.517564
 42
-0.041491
  0
VERTEX
  8
0
 10
308.000000
 20
441.394772
 42
0.068916
  0
VERTEX
  8
0
 10
307.861024
 20
442.398286
 42
0.036768
  0
VERTEX
  8
0
 10
307.432125
 20
443.577914
 42
0.035772
  0
VERTEX
  8
0
 10
306.806784
 20
444.739808
 42
0.046224
  0
VERTEX
  8
0
 10
306.066807
 20
445.697916
 42
-0.133192
  0
VERTEX
  8
0
 10
304.738756
 20
448.216809
 42
-0.027003
  0
VERTEX
  8
0
 10
303.894400
 20
453.244776
 42
-0.014535
  0
VERTEX
  8
0
 10
303.183347
 20
461.759223
 42
-0.002225
  0
VERTEX
  8
0
 10
302.336494
 20
478.750000
 42
0.007313
  0
VERTEX
  8
0
 10
302.064745
 20
483.275453
 42
0.020516
  0
VERTEX
  8
0
 10
301.698544
 20
486.428337
 42
0.021600
  0
VERTEX
  8
0
 10
301.264294
 20
488.572222
 42
0.344692
  0
VERTEX
  8
0
 10
300.717498
 20
489.000000
 42
-0.131455
  0
VERTEX
  8
0
 10
300.137940
 20
489.155051
 42
-0.030307
  0
VERTEX
  8
0
 10
299.286416
 20
489.717109
 42
-0.029280
  0
VERTEX
  8
0
 10
298.353765
 20
490.506752
 42
-0.024966
  0
VERTEX
  8
0
 10
297.465994
 20
491.441221
 42
-0.057588
  0
VERTEX
  8
0
 10
296.399664
 20
493.017379
 42
-0.069687
  0
VERTEX
  8
0
 10
295.803671
 20
494.698969
 42
-0.046301
  0
VERTEX
  8
0
 10
295.554902
 20
496.973775
 42
-0.012016
  0
VERTEX
  8
0
 10
295.583077
 20
500.660736
 42
0.027051
  0
VERTEX
  8
0
 10
295.459867
 20
506.156234
 42
0.027265
  0
VERTEX
  8
0
 10
294.743595
 20
511.591688
 42
0.021368
  0
VERTEX
  8
0
 10
293.695643
 20
516.102542
 42
0.332691
  0
VERTEX
  8
0
 10
292.513349
 20
517.015313
 42
-0.202769
  0
VERTEX
  8
0
 10
292.274540
 20
517.120593
 42
-0.303911
  0
VERTEX
  8
0
 10
292.238296
 20
517.337743
 42
-0.102795
  0
VERTEX
  8
0
 10
292.488522
 20
517.681243
 42
-0.030211
  0
VERTEX
  8
0
 10
293.000000
 20
518.091444
 42
0.028560
  0
VERTEX
  8
0
 10
293.686265
 20
518.638110
 42
0.172412
  0
VERTEX
  8
0
 10
293.901057
 20
519.031686
 42
0.274217
  0
VERTEX
  8
0
 10
293.771084
 20
519.359790
 42
0.068328
  0
VERTEX
  8
0
 10
293.250000
 20
519.659464
 42
-0.212438
  0
VERTEX
  8
0
 10
292.703481
 20
520.226835
 42
-0.041155
  0
VERTEX
  8
0
 10
292.320535
 20
521.633667
 42
-0.031970
  0
VERTEX
  8
0
 10
292.075853
 20
523.670050
 42
-0.013917
  0
VERTEX
  8
0
 10
292.000000
 20
526.394772
 42
0.014761
  0
VERTEX
  8
0
 10
291.904750
 20
529.620519
 42
0.044688
  0
VERTEX
  8
0
 10
291.580305
 20
531.791384
 42
0.063500
  0
VERTEX
  8
0
 10
290.962415
 20
533.410793
 42
0.064763
  0
VERTEX
  8
0
 10
289.961045
 20
534.811439
 42
-0.024038
  0
VERTEX
  8
0
 10
289.249712
 20
535.652616
 42
-0.056384
  0
VERTEX
  8
0
 10
288.826226
 20
536.357110
 42
-0.130554
  0
VERTEX
  8
0
 10
288.749512
 20
536.806830
 42
-0.387895
  0
VERTEX
  8
0
 10
288.961045
 20
537.000000
 42
0.185131
  0
VERTEX
  8
0
 10
289.357679
 20
537.152070
 42
0.090107
  0
VERTEX
  8
0
 10
289.694807
 20
537.587500
 42
0.069958
  0
VERTEX
  8
0
 10
289.923315
 20
538.234676
 42
0.049975
  0
VERTEX
  8
0
 10
290.000000
 20
539.000000
 42
0.046312
  0
VERTEX
  8
0
 10
289.928944
 20
539.765501
 42
0.066262
  0
VERTEX
  8
0
 10
289.716368
 20
540.412500
 42
0.086350
  0
VERTEX
  8
0
 10
289.403293
 20
540.849142
 42
0.196594
  0
VERTEX
  8
0
 10
289.034443
 20
541.000000
 42
-0.295374
  0
VERTEX
  8
0
 10
288.621563
 20
541.267222
 42
-0.026767
  0
VERTEX
  8
0
 10
288.157681
 20
542.468750
 42
-0.027942
  0
VERTEX
  8
0
 10
287.729684
 20
544.083776
 42
-0.017827
  0
VERTEX
  8
0
 10
287.405612
 20
546.000000
 42
0.018729
  0
VERTEX
  8
0
 10
287.035744
 20
548.163285
 42
0.044940
  0
VERTEX
  8
0
 10
286.560754
 20
549.717437
 42
0.067368
  0
VERTEX
  8
0
 10
286.003476
 20
550.688573
 42
0.232904
  0
VERTEX
  8
0
 10
285.371169
 20
551.000000
 42
-0.108596
  0
VERTEX
  8
0
 10
284.848049
 20
551.114974
 42
-0.099716
  0
VERTEX
  8
0
 10
284.402781
 20
551.440625
 42
-0.095434
  0
VERTEX
  8
0
 10
284.104201
 20
551.927331
 42
-0.090237
  0
VERTEX
  8
0
 10
284.000000
 20
552.500000
 42
-0.099038
  0
VERTEX
  8
0
 10
284.114514
 20
553.072457
 42
-0.097945
  0
VERTEX
  8
0
 10
284.440625
 20
553.559375
 42
-0.097945
  0
VERTEX
  8
0
 10
284.927543
 20
553.885486
 42
-0.099038
  0
VERTEX
  8
0
 10
285.500000
 20
554.000000
 42
0.140575
  0
VERTEX
  8
0
 10
286.119980
 20
554.177821
 42
0.118484
  0
VERTEX
  8
0
 10
286.600000
 20
554.666667
 42
0.088208
  0
VERTEX
  8
0
 10
286.901370
 20
555.456621
 42
0.047160
  0
VERTEX
  8
0
 10
287.000000
 20
556.500000
 42
0.043643
  0
VERTEX
  8
0
 10
286.916304
 20
557.457036
 42
0.063407
  0
VERTEX
  8
0
 10
286.665196
 20
558.265625
 42
0.083119
  0
VERTEX
  8
0
 10
286.295907
 20
558.812887
 42
0.205661
  0
VERTEX
  8
0
 10
285.860243
 20
559.000000
 42
-0.177277
  0
VERTEX
  8
0
 10
284.666565
 20
559.436956
 42
-0.059798
  0
VERTEX
  8
0
 10
283.384454
 20
560.814515
 42
-0.057721
  0
VERTEX
  8
0
 10
282.385563
 20
562.580514
 42
-0.095608
  0
VERTEX
  8
0
 10
282.031803
 20
564.250000
 42
0.040858
  0
VERTEX
  8
0
 10
281.964629
 20
564.920569
 42
0.059313
  0
VERTEX
  8
0
 10
281.789030
 20
565.488229
 42
0.076976
  0
VERTEX
  8
0
 10
281.539381
 20
565.875889
 42
0.211733
  0
VERTEX
  8
0
 10
281.250000
 20
566.007802
 42
-0.273999
  0
VERTEX
  8
0
 10
280.246351
 20
566.616636
 42
-0.033218
  0
VERTEX
  8
0
 10
279.139895
 20
569.066346
 42
-0.037012
  0
VERTEX
  8
0
 10
278.284373
 20
571.999071
 42
-0.052511
  0
VERTEX
  8
0
 10
278.000000
 20
574.699365
 42
0.028689
  0
VERTEX
  8
0
 10
277.927380
 20
575.963980
 42
0.044895
  0
VERTEX
  8
0
 10
277.706250
 20
577.030438
 42
0.056220
  0
VERTEX
  8
0
 10
277.385117
 20
577.776425
 42
0.269228
  0
VERTEX
  8
0
 10
277.000000
 20
578.000000
 42
-0.134453
  0
VERTEX
  8
0
 10
276.618658
 20
578.104433
 42
-0.100435
  0
VERTEX
  8
0
 10
276.293750
 20
578.398021
 42
-0.087145
  0
VERTEX
  8
0
 10
276.075105
 20
578.837181
 42
-0.072148
  0
VERTEX
  8
0
 10
276.000000
 20
579.354965
 42
0.189967
  0
VERTEX
  8
0
 10
275.472697
 20
580.692761
 42
0.018512
  0
VERTEX
  8
0
 10
272.960632
 20
583.192085
 42
0.019320
  0
VERTEX
  8
0
 10
270.269504
 20
585.492123
 42
0.168716
  0
VERTEX
  8
0
 10
268.807222
 20
586.000000
 42
-0.220286
  0
VERTEX
  8
0
 10
268.498292
 20
586.143047
 42
-0.077500
  0
VERTEX
  8
0
 10
268.237121
 20
586.570164
 42
-0.058928
  0
VERTEX
  8
0
 10
268.059092
 20
587.197768
 42
-0.039692
  0
VERTEX
  8
0
 10
268.000000
 20
587.940983
 42
0.041080
  0
VERTEX
  8
0
 10
267.935606
 20
588.723415
 42
0.043419
  0
VERTEX
  8
0
 10
267.744191
 20
589.469901
 42
0.047577
  0
VERTEX
  8
0
 10
267.463637
 20
590.077019
 42
0.122929
  0
VERTEX
  8
0
 10
267.129162
 20
590.420174
 42
-0.129277
  0
VERTEX
  8
0
 10
266.754693
 20
590.814090
 42
-0.027120
  0
VERTEX
  8
0
 10
266.338496
 20
591.678466
 42
-0.026747
  0
VERTEX
  8
0
 10
265.953252
 20
592.763975
 42
-0.022542
  0
VERTEX
  8
0
 10
265.660412
 20
593.947941
 42
0.037820
  0
VERTEX
  8
0
 10
265.301432
 20
595.230053
 42
0.026493
  0
VERTEX
  8
0
 10
264.714894
 20
596.611256
 42
0.026847
  0
VERTEX
  8
0
 10
264.007262
 20
597.881594
 42
0.049240
  0
VERTEX
  8
0
 10
263.281250
 20
598.816443
 42
-0.013059
  0
VERTEX
  8
0
 10
262.464095
 20
599.724790
 42
-0.006384
  0
VERTEX
  8
0
 10
261.468033
 20
600.922561
 42
-0.006329
  0
VERTEX
  8
0
 10
260.463473
 20
602.195012
 42
-0.009122
  0
VERTEX
  8
0
 10
259.609927
 20
603.347693
 42
0.030297
  0
VERTEX
  8
0
 10
258.789501
 20
604.362826
 42
0.034921
  0
VERTEX
  8
0
 10
257.887954
 20
605.220885
 42
0.037455
  0
VERTEX
  8
0
 10
257.035559
 20
605.824283
 42
0.136112
  0
VERTEX
  8
0
 10
256.402034
 20
606.000000
 42
-0.140604
  0
VERTEX
  8
0
 10
255.664309
 20
606.211638
 42
-0.016855
  0
VERTEX
  8
0
 10
254.243430
 20
607.168067
 42
-0.019010
  0
VERTEX
  8
0
 10
252.601239
 20
608.453619
 42
-0.014560
  0
VERTEX
  8
0
 10
250.904151
 20
609.976398
 42
0.013430
  0
VERTEX
  8
0
 10
249.167228
 20
611.542017
 42
0.014859
  0
VERTEX
  8
0
 10
247.405007
 20
612.958332
 42
0.014339
  0
VERTEX
  8
0
 10
245.836912
 20
614.074515
 42
0.070768
  0
VERTEX
  8
0
 10
244.862044
 20
614.543785
 42
-0.060405
  0
VERTEX
  8
0
 10
244.150070
 20
614.868586
 42
-0.062878
  0
VERTEX
  8
0
 10
243.546976
 20
615.350574
 42
-0.069898
  0
VERTEX
  8
0
 10
243.138273
 20
615.909488
 42
-0.123578
  0
VERTEX
  8
0
 10
243.000000
 20
616.460399
 42
0.186181
  0
VERTEX
  8
0
 10
242.599191
 20
617.499485
 42
0.102654
  0
VERTEX
  8
0
 10
241.483274
 20
618.312967
 42
0.070344
  0
VERTEX
  8
0
 10
239.709030
 20
618.832516
 42
0.036118
  0
VERTEX
  8
0
 10
237.393462
 20
619.000000
 42
0.066258
  0
VERTEX
  8
0
 10
236.242393
 20
618.846792
 42
0.092839
  0
VERTEX
  8
0
 10
235.310544
 20
618.396894
 42
0.088453
  0
VERTEX
  8
0
 10
234.573749
 20
617.620770
 42
0.054965
  0
SEQEND
  0
POLYLINE
  8
0
 66
1
 70
1
  0
VERTEX
  8
0
 10
351.683114
 20
363.812500
 42
-0.054073
  0
VERTEX
  8
0
 10
351.461564
 20
363.395823
 42
-0.470617
  0
VERTEX
  8
0
 10
351.279315
 20
363.378580
 42
-0.168741
  0
VERTEX
  8
0
 10
351.137993
 20
363.670344
 42
-0.018894
  0
VERTEX
  8
0
 10
351.078947
 20
364.416667
 42
-0.028489
  0
VERTEX
  8
0
 10
351.089945
 20
365.112848
 42
-0.077125
  0
VERTEX
  8
0
 10
351.200665
 20
365.592839
 42
-0.208169
  0
VERTEX
  8
0
 10
351.385309
 20
365.775380
 42
-0.296942
  0
VERTEX
  8
0
 10
351.604167
 20
365.729167
 42
-0.126455
  0
VERTEX
  8
0
 10
351.797407
 20
365.402231
 42
-0.060344
  0
VERTEX
  8
0
 10
351.876576
 20
364.916927
 42
-0.054150
  0
VERTEX
  8
0
 10
351.839148
 20
364.359369
 42
-0.051402
  0
SEQEND
  0
ENDSEC
  0
EOF
