  0
SECTION
  2
HEADER
  9
$ACADVER
  1
AC1006
  9
$EXTMIN
 10
0.000000
 20
0.000000
 30
0.000000
  9
$EXTMAX
 10
273.000000
 20
300.000000
 30
0.000000
  0
ENDSEC
  0
SECTION
  2
ENTITIES
  0
POLYLINE
  8
0
 66
1
 70
1
  0
VERTEX
  8
0
 10
232.000000
 20
298.000000
 42
-0.072212
  0
VERTEX
  8
0
 10
231.887567
 20
297.225569
 42
-0.090507
  0
VERTEX
  8
0
 10
231.560188
 20
296.579273
 42
-0.103734
  0
VERTEX
  8
0
 10
231.068055
 20
296.152255
 42
-0.127673
  0
VERTEX
  8
0
 10
230.481502
 20
296.000000
 42
0.200221
  0
VERTEX
  8
0
 10
229.759430
 20
295.698776
 42
0.130460
  0
VERTEX
  8
0
 10
229.303629
 20
294.904380
 42
0.058479
  0
VERTEX
  8
0
 10
229.084867
 20
293.402366
 42
0.012365
  0
VERTEX
  8
0
 10
229.076713
 20
290.750000
 42
-0.025591
  0
VERTEX
  8
0
 10
228.931771
 20
285.840789
 42
-0.022214
  0
VERTEX
  8
0
 10
228.289237
 20
280.731814
 42
-0.022834
  0
VERTEX
  8
0
 10
227.288136
 20
276.151688
 42
-0.058397
  0
VERTEX
  8
0
 10
226.038390
 20
273.000000
 42
-0.042265
  0
VERTEX
  8
0
 10
225.233855
 20
271.768407
 42
-0.012713
  0
VERTEX
  8
0
 10
223.810574
 20
270.038846
 42
-0.012643
  0
VERTEX
  8
0
 10
222.108246
 20
268.171735
 42
-0.013404
  0
VERTEX
  8
0
 10
220.345741
 20
266.430113
 42
0.013425
  0
VERTEX
  8
0
 10
218.681255
 20
264.785211
 42
0.018259
  0
VERTEX
  8
0
 10
217.276561
 20
263.209097
 42
0.015305
  0
VERTEX
  8
0
 10
216.217224
 20
261.846498
 42
0.158873
  0
VERTEX
  8
0
 10
216.000000
 20
261.180113
 42
-0.061657
  0
VERTEX
  8
0
 10
215.944116
 20
260.728649
 42
-0.079849
  0
VERTEX
  8
0
 10
215.779687
 20
260.345814
 42
-0.097320
  0
VERTEX
  8
0
 10
215.536053
 20
260.088998
 42
-0.154683
  0
VERTEX
  8
0
 10
215.250000
 20
259.997125
 42
0.187294
  0
VERTEX
  8
0
 10
214.852846
 20
259.841192
 42
0.020144
  0
VERTEX
  8
0
 10
214.140779
 20
259.130102
 42
0.022566
  0
VERTEX
  8
0
 10
213.337467
 20
258.177685
 42
0.016315
  0
VERTEX
  8
0
 10
212.527122
 20
257.049594
 42
-0.037011
  0
VERTEX
  8
0
 10
211.613589
 20
255.882878
 42
-0.032742
  0
VERTEX
  8
0
 10
210.502057
 20
254.811379
 42
-0.034208
  0
VERTEX
  8
0
 10
209.368212
 20
253.979085
 42
-0.079899
  0
VERTEX
  8
0
 10
208.403711
 20
253.565189
 42
0.097972
  0
VERTEX
  8
0
 10
207.482775
 20
253.130251
 42
0.046099
  0
VERTEX
  8
0
 10
206.496812
 20
252.250243
 42
0.043181
  0
VERTEX
  8
0
 10
205.598565
 20
251.101614
 42
0.046201
  0
VERTEX
  8
0
 10
204.933968
 20
249.840584
 42
-0.022071
  0
VERTEX
  8
0
 10
204.399609
 20
248.696147
 42
-0.055875
  0
VERTEX
  8
0
 10
203.887504
 20
247.935594
 42
-0.150700
  0
VERTEX
  8
0
 10
203.493087
 20
247.684225
 42
-0.398632
  0
VERTEX
  8
0
 10
203.224045
 20
247.827864
 42
0.130177
  0
VERTEX
  8
0
 10
202.929742
 20
248.276431
 42
0.067425
  0
VERTEX
  8
0
 10
202.371325
 20
248.655685
 42
0.059892
  0
VERTEX
  8
0
 10
201.649790
 20
248.912800
 42
0.055726
  0
VERTEX
  8
0
 10
200.869828
 20
249.000000
 42
0.116089
  0
VERTEX
  8
0
 10
199.843146
 20
248.758371
 42
0.197781
  0
VERTEX
  8
0
 10
199.271967
 20
248.104484
 42
0.080577
  0
VERTEX
  8
0
 10
199.043791
 20
246.748076
 42
0.010037
  0
VERTEX
  8
0
 10
199.086422
 20
243.750000
 42
-0.048762
  0
VERTEX
  8
0
 10
198.765715
 20
238.678679
 42
-0.019226
  0
VERTEX
  8
0
 10
197.381149
 20
231.814919
 42
-0.018217
  0
VERTEX
  8
0
 10
195.242275
 20
224.203051
 42
-0.017552
  0
VERTEX
  8
0
 10
192.531414
 20
216.670617
 42
0.010229
  0
VERTEX
  8
0
 10
191.562284
 20
214.096706
 42
0.011671
  0
VERTEX
  8
0
 10
190.743603
 20
211.595332
 42
0.010885
  0
VERTEX
  8
0
 10
190.146657
 20
209.448388
 42
0.062437
  0
VERTEX
  8
0
 10
190.000000
 20
208.278528
 42
-0.147096
  0
VERTEX
  8
0
 10
189.405320
 20
206.300871
 42
-0.269104
  0
VERTEX
  8
0
 10
187.944002
 20
205.575322
 42
-0.195825
  0
VERTEX
  8
0
 10
186.165197
 20
206.438237
 42
-0.100180
  0
VERTEX
  8
0
 10
184.884273
 20
208.611046
 42
0.057546
  0
VERTEX
  8
0
 10
184.585515
 20
209.232769
 42
0.008663
  0
VERTEX
  8
0
 10
183.826128
 20
210.391227
 42
0.009626
  0
VERTEX
  8
0
 10
182.875301
 20
211.732084
 42
0.008182
  0
VERTEX
  8
0
 10
181.821696
 20
213.111046
 42
-0.004805
  0
VERTEX
  8
0
 10
180.407276
 20
214.936555
 42
-0.001269
  0
VERTEX
  8
0
 10
178.181943
 20
217.881889
 42
-0.001288
  0
VERTEX
  8
0
 10
175.666998
 20
221.246181
 42
-0.001324
  0
VERTEX
  8
0
 10
173.192070
 20
224.593256
 42
0.026085
  0
VERTEX
  8
0
 10
168.908932
 20
229.823045
 42
0.054097
  0
VERTEX
  8
0
 10
164.961997
 20
233.315174
 42
0.069548
  0
VERTEX
  8
0
 10
161.096289
 20
235.314825
 42
0.084828
  0
VERTEX
  8
0
 10
157.086752
 20
236.000000
 42
-0.121197
  0
VERTEX
  8
0
 10
155.645639
 20
236.354526
 42
-0.178282
  0
VERTEX
  8
0
 10
154.779475
 20
237.311743
 42
-0.159942
  0
VERTEX
  8
0
 10
154.689088
 20
238.690791
 42
-0.095192
  0
VERTEX
  8
0
 10
155.399146
 20
240.192961
 42
-0.101022
  0
VERTEX
  8
0
 10
156.208862
 20
240.929433
 42
-0.085318
  0
VERTEX
  8
0
 10
157.291793
 20
241.345079
 42
-0.057060
  0
VERTEX
  8
0
 10
158.815001
 20
241.470657
 42
-0.019307
  0
VERTEX
  8
0
 10
161.037903
 20
241.314018
 42
0.042944
  0
VERTEX
  8
0
 10
164.953515
 20
241.223454
 42
0.072985
  0
VERTEX
  8
0
 10
168.152489
 20
241.900014
 42
0.104016
  0
VERTEX
  8
0
 10
170.244656
 20
243.215840
 42
0.203254
  0
VERTEX
  8
0
 10
171.000000
 20
244.997206
 42
0.095147
  0
VERTEX
  8
0
 10
170.330641
 20
248.482867
 42
0.023076
  0
VERTEX
  8
0
 10
167.898031
 20
253.849404
 42
0.019146
  0
VERTEX
  8
0
 10
165.047160
 20
258.945856
 42
0.180719
  0
VERTEX
  8
0
 10
163.108949
 20
260.465421
 42
0.133664
  0
VERTEX
  8
0
 10
159.748886
 20
260.605206
 42
0.176162
  0
VERTEX
  8
0
 10
157.192090
 20
258.955821
 42
0.160906
  0
VERTEX
  8
0
 10
156.147601
 20
255.906952
 42
0.110066
  0
VERTEX
  8
0
 10
156.910525
 20
252.297032
 42
-0.034065
  0
VERTEX
  8
0
 10
157.689243
 20
250.224564
 42
-0.281756
  0
VERTEX
  8
0
 10
157.443504
 20
249.293132
 42
-0.286420
  0
VERTEX
  8
0
 10
156.508503
 20
249.098073
 42
-0.034805
  0
VERTEX
  8
0
 10
154.507036
 20
249.996234
 42
0.037810
  0
VERTEX
  8
0
 10
153.148041
 20
250.596313
 42
0.076879
  0
VERTEX
  8
0
 10
152.003515
 20
250.812602
 42
0.077124
  0
VERTEX
  8
0
 10
150.849503
 20
250.672720
 42
0.038258
  0
VERTEX
  8
0
 10
149.461490
 20
250.164408
 42
-0.049511
  0
VERTEX
  8
0
 10
146.612277
 20
249.192981
 42
-0.083077
  0
VERTEX
  8
0
 10
144.094697
 20
249.031956
 42
-0.117320
  0
VERTEX
  8
0
 10
142.254344
 20
249.673596
 42
-0.188686
  0
VERTEX
  8
0
 10
141.289749
 20
251.000000
 42
0.153411
  0
VERTEX
  8
0
 10
140.485954
 20
252.281427
 42
0.136758
  0
VERTEX
  8
0
 10
139.056040
 20
252.944657
 42
0.153369
  0
VERTEX
  8
0
 10
137.608786
 20
252.737897
 42
0.196750
  0
VERTEX
  8
0
 10
136.713987
 20
251.750000
 42
-0.099419
  0
VERTEX
  8
0
 10
136.378558
 20
251.197510
 42
-0.209739
  0
VERTEX
  8
0
 10
135.928426
 20
251.000000
 42
-0.112809
  0
VERTEX
  8
0
 10
135.260569
 20
251.152623
 42
-0.021008
  0
VERTEX
  8
0
 10
134.144222
 20
251.750000
 42
0.046400
  0
VERTEX
  8
0
 10
132.315559
 20
252.612291
 42
0.073849
  0
VERTEX
  8
0
 10
130.623783
 20
252.956041
 42
0.121537
  0
VERTEX
  8
0
 10
129.454830
 20
252.732612
 42
0.292989
  0
VERTEX
  8
0
 10
129.000000
 20
252.023053
 42
-0.160391
  0
VERTEX
  8
0
 10
128.841160
 20
251.540629
 42
-0.032545
  0
VERTEX
  8
0
 10
128.252194
 20
250.843103
 42
-0.031269
  0
VERTEX
  8
0
 10
127.428903
 20
250.088341
 42
-0.024866
  0
VERTEX
  8
0
 10
126.454276
 20
249.378084
 42
-0.038446
  0
VERTEX
  8
0
 10
124.915185
 20
248.530895
 42
-0.093349
  0
VERTEX
  8
0
 10
123.660840
 20
248.223703
 42
-0.074802
  0
VERTEX
  8
0
 10
122.215707
 20
248.361853
 42
-0.018538
  0
VERTEX
  8
0
 10
119.924246
 20
249.025001
 42
0.016771
  0
VERTEX
  8
0
 10
117.906250
 20
249.616741
 42
0.055953
  0
VERTEX
  8
0
 10
116.541310
 20
249.808963
 42
0.089961
  0
VERTEX
  8
0
 10
115.551863
 20
249.658087
 42
0.114152
  0
VERTEX
  8
0
 10
114.769970
 20
249.169970
 42
-0.051861
  0
VERTEX
  8
0
 10
114.218140
 20
248.722109
 42
-0.038300
  0
VERTEX
  8
0
 10
113.528020
 20
248.343679
 42
-0.039060
  0
VERTEX
  8
0
 10
112.812022
 20
248.084802
 42
-0.067316
  0
VERTEX
  8
0
 10
112.184990
 20
248.000000
 42
-0.111518
  0
VERTEX
  8
0
 10
111.574330
 20
248.137914
 42
-0.317077
  0
VERTEX
  8
0
 10
111.371762
 20
248.497973
 42
-0.107261
  0
VERTEX
  8
0
 10
111.596169
 20
249.185859
 42
-0.012749
  0
VERTEX
  8
0
 10
112.445845
 20
250.557693
 42
0.047871
  0
VERTEX
  8
0
 10
113.064831
 20
251.734071
 42
0.033596
  0
VERTEX
  8
0
 10
113.538111
 20
253.154929
 42
0.034031
  0
VERTEX
  8
0
 10
113.808818
 20
254.590874
 42
0.058379
  0
VERTEX
  8
0
 10
113.810855
 20
255.807693
 42
0.048669
  0
VERTEX
  8
0
 10
113.487886
 20
257.306694
 42
0.177596
  0
VERTEX
  8
0
 10
112.900243
 20
258.062302
 42
0.122050
  0
VERTEX
  8
0
 10
111.816031
 20
258.416038
 42
0.018120
  0
VERTEX
  8
0
 10
109.500000
 20
258.500000
 42
0.036781
  0
VERTEX
  8
0
 10
107.121671
 20
258.324810
 42
0.111401
  0
VERTEX
  8
0
 10
105.616758
 20
257.742937
 42
0.083036
  0
VERTEX
  8
0
 10
104.266715
 20
256.468692
 42
0.014862
  0
VERTEX
  8
0
 10
102.250000
 20
253.636986
 42
0.044437
  0
VERTEX
  8
0
 10
100.193164
 20
249.874870
 42
0.062932
  0
VERTEX
  8
0
 10
99.118465
 20
246.217624
 42
0.080304
  0
VERTEX
  8
0
 10
99.118931
 20
243.182484
 42
0.186982
  0
VERTEX
  8
0
 10
100.250000
 20
241.252559
 42
0.108457
  0
VERTEX
  8
0
 10
101.099679
 20
240.836950
 42
0.013338
  0
VERTEX
  8
0
 10
103.132078
 20
240.399134
 42
0.015266
  0
VERTEX
  8
0
 10
105.608363
 20
240.012278
 42
0.012067
  0
VERTEX
  8
0
 10
108.306010
 20
239.740771
 42
-0.005883
  0
VERTEX
  8
0
 10
110.947967
 20
239.507830
 42
-0.008791
  0
VERTEX
  8
0
 10
113.250091
 20
239.236568
 42
-0.004536
  0
VERTEX
  8
0
 10
115.178645
 20
238.957030
 42
-0.159426
  0
VERTEX
  8
0
 10
115.579548
 20
238.753785
 42
-0.255168
  0
VERTEX
  8
0
 10
115.865176
 20
237.781482
 42
-0.104357
  0
VERTEX
  8
0
 10
115.282901
 20
236.484264
 42
-0.090033
  0
VERTEX
  8
0
 10
114.129467
 20
235.385028
 42
-0.146475
  0
VERTEX
  8
0
 10
112.843351
 20
235.000000
 42
0.108616
  0
VERTEX
  8
0
 10
109.825631
 20
234.336625
 42
0.062350
  0
VERTEX
  8
0
 10
106.649827
 20
232.357449
 42
0.042132
  0
VERTEX
  8
0
 10
102.994463
 20
228.840791
 42
0.015233
  0
VERTEX
  8
0
 10
98.403512
 20
223.278920
 42
-0.001520
  0
VERTEX
  8
0
 10
95.749985
 20
219.878426
 42
-0.002289
  0
VERTEX
  8
0
 10
93.414393
 20
216.931933
 42
-0.000900
  0
VERTEX
  8
0
 10
91.393719
 20
214.415867
 42
-0.052858
  0
VERTEX
  8
0
 10
90.978969
 20
214.000000
 42
0.091314
  0
VERTEX
  8
0
 10
90.640087
 20
213.603773
 42
0.005659
  0
VERTEX
  8
0
 10
89.876409
 20
212.251563
 42
0.008233
  0
VERTEX
  8
0
 10
89.006396
 20
210.605920
 42
0.006003
  0
VERTEX
  8
0
 10
88.091836
 20
208.750000
 42
-0.021017
  0
VERTEX
  8
0
 10
86.968175
 20
206.632544
 42
-0.048005
  0
VERTEX
  8
0
 10
85.910013
 20
205.168499
 42
-0.068254
  0
VERTEX
  8
0
 10
84.895937
 20
204.292062
 42
-0.145112
  0
VERTEX
  8
0
 10
83.910794
 20
204.000000
 42
-0.039088
  0
VERTEX
  8
0
 10
83.179112
 20
204.057288
 42
-0.058217
  0
VERTEX
  8
0
 10
82.561296
 20
204.229987
 42
-0.076549
  0
VERTEX
  8
0
 10
82.140420
 20
204.483233
 42
-0.222653
  0
VERTEX
  8
0
 10
82.000000
 20
204.782934
 42
0.126410
  0
VERTEX
  8
0
 10
81.884309
 20
205.233225
 42
0.014297
  0
VERTEX
  8
0
 10
81.346057
 20
206.148594
 42
0.016587
  0
VERTEX
  8
0
 10
80.626342
 20
207.215813
 42
0.012768
  0
VERTEX
  8
0
 10
79.773810
 20
208.332549
 42
-0.091447
  0
VERTEX
  8
0
 10
77.526748
 20
212.493320
 42
-0.009871
  0
VERTEX
  8
0
 10
74.355336
 20
223.003812
 42
-0.011848
  0
VERTEX
  8
0
 10
71.645573
 20
233.633236
 42
-0.056280
  0
VERTEX
  8
0
 10
70.935930
 20
239.860022
 42
0.011087
  0
VERTEX
  8
0
 10
70.874515
 20
242.506019
 42
0.127188
  0
VERTEX
  8
0
 10
70.570816
 20
243.493404
 42
0.253648
  0
VERTEX
  8
0
 10
69.909341
 20
243.874396
 42
0.053709
  0
VERTEX
  8
0
 10
68.535944
 20
243.762120
 42
-0.048155
  0
VERTEX
  8
0
 10
67.320685
 20
243.649207
 42
-0.139660
  0
VERTEX
  8
0
 10
66.517269
 20
243.881202
 42
-0.142061
  0
VERTEX
  8
0
 10
65.964901
 20
244.498524
 42
-0.050490
  0
VERTEX
  8
0
 10
65.558426
 20
245.623233
 42
0.065745
  0
VERTEX
  8
0
 10
65.171983
 20
246.598666
 42
0.041967
  0
VERTEX
  8
0
 10
64.489891
 20
247.612138
 42
0.041619
  0
VERTEX
  8
0
 10
63.637752
 20
248.509660
 42
0.059488
  0
VERTEX
  8
0
 10
62.738193
 20
249.137451
 42
-0.055396
  0
VERTEX
  8
0
 10
60.886072
 20
250.407685
 42
-0.013149
  0
VERTEX
  8
0
 10
58.113274
 20
252.929983
 42
-0.007363
  0
VERTEX
  8
0
 10
55.379873
 20
255.629419
 42
-0.196711
  0
VERTEX
  8
0
 10
55.000000
 20
256.557618
 42
0.187068
  0
VERTEX
  8
0
 10
54.913372
 20
256.781055
 42
0.002959
  0
VERTEX
  8
0
 10
53.971875
 20
257.800558
 42
0.007359
  0
VERTEX
  8
0
 10
52.841463
 20
258.975048
 42
0.004755
  0
VERTEX
  8
0
 10
51.500000
 20
260.302881
 42
-0.013365
  0
VERTEX
  8
0
 10
50.159474
 20
261.676280
 42
-0.018072
  0
VERTEX
  8
0
 10
49.028125
 20
262.991411
 42
-0.015203
  0
VERTEX
  8
0
 10
48.175818
 20
264.126937
 42
-0.154582
  0
VERTEX
  8
0
 10
48.000000
 20
264.682039
 42
0.168707
  0
VERTEX
  8
0
 10
47.838471
 20
265.147140
 42
0.038677
  0
VERTEX
  8
0
 10
47.265625
 20
265.767191
 42
0.035776
  0
VERTEX
  8
0
 10
46.457065
 20
266.415858
 42
0.028306
  0
VERTEX
  8
0
 10
45.500000
 20
267.000000
 42
-0.038233
  0
VERTEX
  8
0
 10
44.543363
 20
267.610243
 42
-0.043483
  0
VERTEX
  8
0
 10
43.734375
 20
268.335921
 42
-0.048383
  0
VERTEX
  8
0
 10
43.173639
 20
269.064377
 42
-0.140753
  0
VERTEX
  8
0
 10
43.000000
 20
269.668980
 42
0.056542
  0
VERTEX
  8
0
 10
42.942242
 20
270.178098
 42
0.075953
  0
VERTEX
  8
0
 10
42.771355
 20
270.609013
 42
0.095118
  0
VERTEX
  8
0
 10
42.518575
 20
270.897907
 42
0.167107
  0
VERTEX
  8
0
 10
42.221634
 20
271.000000
 42
-0.330062
  0
VERTEX
  8
0
 10
41.159398
 20
271.786937
 42
-0.010234
  0
VERTEX
  8
0
 10
39.595221
 20
277.328266
 42
-0.016007
  0
VERTEX
  8
0
 10
38.352483
 20
282.817581
 42
-0.109568
  0
VERTEX
  8
0
 10
38.428619
 20
285.571618
 42
0.045422
  0
VERTEX
  8
0
 10
38.615695
 20
286.767910
 42
0.017717
  0
VERTEX
  8
0
 10
38.664109
 20
288.441965
 42
0.017366
  0
VERTEX
  8
0
 10
38.588716
 20
290.268714
 42
0.020650
  0
VERTEX
  8
0
 10
38.386825
 20
291.982393
 42
0.019190
  0
VERTEX
  8
0
 10
37.924681
 20
294.298614
 42
0.123061
  0
VERTEX
  8
0
 10
37.376680
 20
295.350701
 42
0.168570
  0
VERTEX
  8
0
 10
36.483296
 20
295.852423
 42
0.044455
  0
VERTEX
  8
0
 10
34.826737
 20
296.000000
 42
0.113200
  0
VERTEX
  8
0
 10
32.031646
 20
295.358977
 42
0.085083
  0
VERTEX
  8
0
 10
29.456939
 20
293.518392
 42
0.084771
  0
VERTEX
  8
0
 10
27.634476
 20
290.917865
 42
0.110985
  0
VERTEX
  8
0
 10
27.000000
 20
288.094676
 42
0.043368
  0
VERTEX
  8
0
 10
27.439846
 20
283.033069
 42
0.040266
  0
VERTEX
  8
0
 10
28.747919
 20
277.991281
 42
0.037463
  0
VERTEX
  8
0
 10
30.956487
 20
272.899054
 42
0.028515
  0
VERTEX
  8
0
 10
34.089727
 20
267.685425
 42
-0.006826
  0
VERTEX
  8
0
 10
35.966047
 20
264.849453
 42
-0.009700
  0
VERTEX
  8
0
 10
37.549792
 20
262.274659
 42
-0.006190
  0
VERTEX
  8
0
 10
38.800903
 20
260.087855
 42
-0.125955
  0
VERTEX
  8
0
 10
38.993014
 20
259.355966
 42
0.182496
  0
VERTEX
  8
0
 10
39.262664
 20
258.654777
 42
0.006337
  0
VERTEX
  8
0
 10
41.269435
 20
256.460614
 42
0.011089
  0
VERTEX
  8
0
 10
43.769091
 20
253.911860
 42
0.007440
  0
VERTEX
  8
0
 10
46.732721
 20
251.105966
 42
-0.004971
  0
VERTEX
  8
0
 10
50.743503
 20
247.346033
 42
-0.037278
  0
VERTEX
  8
0
 10
52.485945
 20
245.411502
 42
-0.190883
  0
VERTEX
  8
0
 10
52.756471
 20
244.475845
 42
-0.386432
  0
VERTEX
  8
0
 10
52.232721
 20
244.000000
 42
0.157032
  0
VERTEX
  8
0
 10
50.684993
 20
243.501625
 42
0.228609
  0
VERTEX
  8
0
 10
50.011370
 20
242.263463
 42
0.170086
  0
VERTEX
  8
0
 10
50.491837
 20
240.642605
 42
0.097161
  0
VERTEX
  8
0
 10
52.000000
 20
239.232073
 42
-0.086534
  0
VERTEX
  8
0
 10
53.423965
 20
237.955469
 42
-0.168383
  0
VERTEX
  8
0
 10
53.917893
 20
236.530377
 42
-0.176117
  0
VERTEX
  8
0
 10
53.416567
 20
235.151248
 42
-0.095812
  0
VERTEX
  8
0
 10
52.000000
 20
234.000000
 42
0.112206
  0
VERTEX
  8
0
 10
50.301046
 20
232.525240
 42
0.247003
  0
VERTEX
  8
0
 10
50.054529
 20
230.873261
 42
0.176023
  0
VERTEX
  8
0
 10
51.342373
 20
229.295777
 42
0.061720
  0
VERTEX
  8
0
 10
54.061862
 20
228.099612
 42
-0.019652
  0
VERTEX
  8
0
 10
56.186612
 20
227.370893
 42
-0.092261
  0
VERTEX
  8
0
 10
57.280322
 20
226.694759
 42
-0.154562
  0
VERTEX
  8
0
 10
57.766113
 20
225.858762
 42
-0.090514
  0
VERTEX
  8
0
 10
57.811862
 20
224.691324
 42
-0.074975
  0
VERTEX
  8
0
 10
57.529387
 20
223.748304
 42
-0.088918
  0
VERTEX
  8
0
 10
56.991201
 20
222.991377
 42
-0.087810
  0
VERTEX
  8
0
 10
56.217469
 20
222.461838
 42
-0.071101
  0
VERTEX
  8
0
 10
55.250000
 20
222.180449
 42
0.148953
  0
VERTEX
  8
0
 10
53.620996
 20
221.419884
 42
0.237901
  0
VERTEX
  8
0
 10
53.075567
 20
220.018371
 42
0.149063
  0
VERTEX
  8
0
 10
53.838137
 20
218.173351
 42
0.061648
  0
VERTEX
  8
0
 10
55.816775
 20
216.293585
 42
-0.062863
  0
VERTEX
  8
0
 10
57.128214
 20
215.041627
 42
-0.018319
  0
VERTEX
  8
0
 10
58.812840
 20
212.808986
 42
-0.018099
  0
VERTEX
  8
0
 10
60.541733
 20
210.132778
 42
-0.018454
  0
VERTEX
  8
0
 10
62.060673
 20
207.355527
 42
0.006649
  0
VERTEX
  8
0
 10
65.982906
 20
199.763709
 42
0.035194
  0
VERTEX
  8
0
 10
68.470122
 20
195.801178
 42
0.068646
  0
VERTEX
  8
0
 10
70.581075
 20
193.615297
 42
0.112864
  0
VERTEX
  8
0
 10
72.895441
 20
192.522965
 42
-0.044216
  0
VERTEX
  8
0
 10
74.217546
 20
192.107348
 42
-0.075238
  0
VERTEX
  8
0
 10
75.207494
 20
191.509702
 42
-0.089597
  0
VERTEX
  8
0
 10
75.860615
 20
190.732306
 42
-0.093214
  0
VERTEX
  8
0
 10
76.189109
 20
189.786046
 42
0.118543
  0
VERTEX
  8
0
 10
76.889793
 20
188.053069
 42
0.126848
  0
VERTEX
  8
0
 10
78.288002
 20
186.879587
 42
0.066457
  0
VERTEX
  8
0
 10
80.826512
 20
186.057557
 42
0.013583
  0
VERTEX
  8
0
 10
85.500000
 20
185.335519
 42
-0.003691
  0
VERTEX
  8
0
 10
88.536864
 20
184.927664
 42
-0.059976
  0
VERTEX
  8
0
 10
89.530142
 20
184.662694
 42
-0.734558
  0
VERTEX
  8
0
 10
89.512622
 20
184.435005
 42
-0.029799
  0
VERTEX
  8
0
 10
88.274268
 20
184.225832
 42
0.097497
  0
VERTEX
  8
0
 10
85.856660
 20
183.472327
 42
0.087390
  0
VERTEX
  8
0
 10
83.797195
 20
181.837858
 42
0.058846
  0
VERTEX
  8
0
 10
81.834701
 20
179.018288
 42
0.019797
  0
VERTEX
  8
0
 10
79.647046
 20
174.500000
 42
-0.040215
  0
VERTEX
  8
0
 10
78.519229
 20
172.394232
 42
-0.061521
  0
VERTEX
  8
0
 10
77.194489
 20
170.805331
 42
-0.053271
  0
VERTEX
  8
0
 10
75.381788
 20
169.437331
 42
-0.022653
  0
VERTEX
  8
0
 10
72.701115
 20
167.991105
 42
0.015437
  0
VERTEX
  8
0
 10
69.788008
 20
166.473324
 42
0.076232
  0
VERTEX
  8
0
 10
68.334138
 20
165.337118
 42
0.112199
  0
VERTEX
  8
0
 10
67.569730
 20
164.037855
 42
0.053229
  0
VERTEX
  8
0
 10
67.177955
 20
162.124638
 42
-0.049225
  0
VERTEX
  8
0
 10
66.802584
 20
160.214014
 42
-0.119387
  0
VERTEX
  8
0
 10
66.080575
 20
158.981788
 42
-0.084330
  0
VERTEX
  8
0
 10
64.707978
 20
157.970736
 42
-0.016718
  0
VERTEX
  8
0
 10
61.927955
 20
156.685064
 42
0.019717
  0
VERTEX
  8
0
 10
60.040278
 20
155.798298
 42
0.028128
  0
VERTEX
  8
0
 10
58.447587
 20
154.854732
 42
0.027336
  0
VERTEX
  8
0
 10
57.276353
 20
153.972204
 42
0.221100
  0
VERTEX
  8
0
 10
57.000000
 20
153.377806
 42
-0.266295
  0
VERTEX
  8
0
 10
56.690023
 20
152.837060
 42
-0.039084
  0
VERTEX
  8
0
 10
55.508974
 20
152.264149
 42
-0.034241
  0
VERTEX
  8
0
 10
53.827888
 20
151.734787
 42
-0.019848
  0
VERTEX
  8
0
 10
51.750000
 20
151.320243
 42
0.014490
  0
VERTEX
  8
0
 10
48.925360
 20
150.788122
 42
0.072689
  0
VERTEX
  8
0
 10
47.423537
 20
150.222311
 42
0.132237
  0
VERTEX
  8
0
 10
46.601033
 20
149.427345
 42
0.099843
  0
VERTEX
  8
0
 10
46.179637
 20
148.237774
 42
0.065188
  0
VERTEX
  8
0
 10
46.167532
 20
147.159991
 42
0.111777
  0
VERTEX
  8
0
 10
46.467228
 20
146.317024
 42
0.107090
  0
VERTEX
  8
0
 10
47.112377
 20
145.661713
 42
0.056443
  0
VERTEX
  8
0
 10
48.136810
 20
145.145094
 42
-0.038843
  0
VERTEX
  8
0
 10
49.394903
 20
144.565118
 42
-0.399999
  0
VERTEX
  8
0
 10
49.549108
 20
144.066931
 42
-0.129996
  0
VERTEX
  8
0
 10
48.988709
 20
143.427175
 42
-0.005536
  0
VERTEX
  8
0
 10
46.457173
 20
141.762037
 42
-0.036299
  0
VERTEX
  8
0
 10
44.366555
 20
140.624886
 42
-0.030393
  0
VERTEX
  8
0
 10
42.007082
 20
139.723718
 42
-0.028576
  0
VERTEX
  8
0
 10
39.406508
 20
139.068171
 42
-0.024046
  0
VERTEX
  8
0
 10
36.593702
 20
138.666869
 42
0.024603
  0
VERTEX
  8
0
 10
32.804888
 20
138.122022
 42
0.095108
  0
VERTEX
  8
0
 10
30.610602
 20
137.241353
 42
0.150753
  0
VERTEX
  8
0
 10
29.443906
 20
135.856850
 42
0.098314
  0
VERTEX
  8
0
 10
29.015313
 20
133.795313
 42
0.144028
  0
VERTEX
  8
0
 10
29.243484
 20
132.993095
 42
0.107722
  0
VERTEX
  8
0
 10
29.891863
 20
132.334804
 42
0.070686
  0
VERTEX
  8
0
 10
31.017074
 20
131.808881
 42
0.027668
  0
VERTEX
  8
0
 10
32.685633
 20
131.399197
 42
0.000000
  0
VERTEX
  8
0
 10
36.371265
 20
130.707768
 42
0.000000
  0
VERTEX
  8
0
 10
33.685633
 20
128.566320
 42
0.022224
  0
VERTEX
  8
0
 10
32.657426
 20
127.668910
 42
0.027603
  0
VERTEX
  8
0
 10
31.788905
 20
126.743296
 42
0.027844
  0
VERTEX
  8
0
 10
31.163353
 20
125.907872
 42
0.147825
  0
VERTEX
  8
0
 10
31.000000
 20
125.367423
 42
-0.121548
  0
VERTEX
  8
0
 10
30.870240
 20
124.841529
 42
-0.031315
  0
VERTEX
  8
0
 10
30.412500
 20
124.088920
 42
-0.029987
  0
VERTEX
  8
0
 10
29.765507
 20
123.270585
 42
-0.026576
  0
VERTEX
  8
0
 10
29.000000
 20
122.500000
 42
0.022381
  0
VERTEX
  8
0
 10
28.234355
 20
121.742093
 42
0.026849
  0
VERTEX
  8
0
 10
27.587500
 20
120.961588
 42
0.027167
  0
VERTEX
  8
0
 10
27.123362
 20
120.259352
 42
0.133207
  0
VERTEX
  8
0
 10
27.000000
 20
119.804520
 42
-0.141462
  0
VERTEX
  8
0
 10
26.661729
 20
118.632821
 42
-0.010020
  0
VERTEX
  8
0
 10
24.771476
 20
115.761212
 42
-0.010571
  0
VERTEX
  8
0
 10
22.771990
 20
112.980128
 42
-0.127711
  0
VERTEX
  8
0
 10
21.750000
 20
112.166667
 42
0.154544
  0
VERTEX
  8
0
 10
21.461712
 20
111.911315
 42
0.051400
  0
VERTEX
  8
0
 10
21.220313
 20
111.393910
 42
0.045387
  0
VERTEX
  8
0
 10
21.055324
 20
110.728694
 42
0.038120
  0
VERTEX
  8
0
 10
21.000000
 20
110.004091
 42
-0.182396
  0
VERTEX
  8
0
 10
20.621666
 20
109.001474
 42
-0.068113
  0
VERTEX
  8
0
 10
19.465163
 20
108.001118
 42
-0.040793
  0
VERTEX
  8
0
 10
17.440633
 20
106.906723
 42
-0.012259
  0
VERTEX
  8
0
 10
14.198058
 20
105.575682
 42
0.043484
  0
VERTEX
  8
0
 10
8.440838
 20
102.781028
 42
0.060335
  0
VERTEX
  8
0
 10
3.912115
 20
99.270966
 42
0.072327
  0
VERTEX
  8
0
 10
0.992145
 20
95.402055
 42
0.126193
  0
VERTEX
  8
0
 10
0.000000
 20
91.533589
 42
0.065938
  0
VERTEX
  8
0
 10
0.305362
 20
89.228133
 42
0.192625
  0
VERTEX
  8
0
 10
1.250848
 20
87.968688
 42
0.115335
  0
VERTEX
  8
0
 10
3.174103
 20
87.338606
 42
0.017403
  0
VERTEX
  8
0
 10
7.250000
 20
87.125912
 42
0.017932
  0
VERTEX
  8
0
 10
9.572733
 20
87.168947
 42
0.169811
  0
VERTEX
  8
0
 10
10.479217
 20
87.542408
 42
0.189767
  0
VERTEX
  8
0
 10
10.902559
 20
88.378896
 42
0.023364
  0
VERTEX
  8
0
 10
11.000000
 20
90.463064
 42
-0.031234
  0
VERTEX
  8
0
 10
11.103773
 20
92.122643
 42
-0.083968
  0
VERTEX
  8
0
 10
11.443610
 20
93.251404
 42
-0.113087
  0
VERTEX
  8
0
 10
12.060603
 20
94.006325
 42
-0.088493
  0
VERTEX
  8
0
 10
13.000000
 20
94.500000
 42
0.039709
  0
VERTEX
  8
0
 10
13.765398
 20
94.811679
 42
0.049700
  0
VERTEX
  8
0
 10
14.412500
 20
95.222265
 42
0.058089
  0
VERTEX
  8
0
 10
14.858844
 20
95.664493
 42
0.170109
  0
VERTEX
  8
0
 10
15.000000
 20
96.067388
 42
-0.152094
  0
VERTEX
  8
0
 10
15.110753
 20
96.423059
 42
-0.098260
  0
VERTEX
  8
0
 10
15.422495
 20
96.726045
 42
-0.081082
  0
VERTEX
  8
0
 10
15.888358
 20
96.930440
 42
-0.062994
  0
VERTEX
  8
0
 10
16.438282
 20
97.000000
 42
0.118655
  0
VERTEX
  8
0
 10
17.195883
 20
97.182354
 42
0.023378
  0
VERTEX
  8
0
 10
18.418914
 20
97.881250
 42
0.023584
  0
VERTEX
  8
0
 10
19.798144
 20
98.851528
 42
0.019983
  0
VERTEX
  8
0
 10
21.161143
 20
100.000000
 42
-0.012532
  0
VERTEX
  8
0
 10
22.484247
 20
101.148993
 42
-0.016790
  0
VERTEX
  8
0
 10
23.742981
 20
102.118750
 42
-0.013979
  0
VERTEX
  8
0
 10
24.823989
 20
102.850259
 42
-0.142696
  0
VERTEX
  8
0
 10
25.337991
 20
103.000000
 42
0.195817
  0
VERTEX
  8
0
 10
26.362959
 20
103.417417
 42
0.007498
  0
VERTEX
  8
0
 10
29.318619
 20
106.391328
 42
0.013737
  0
VERTEX
  8
0
 10
32.454189
 20
109.826381
 42
0.014763
  0
VERTEX
  8
0
 10
35.319312
 20
113.348819
 42
-0.008959
  0
VERTEX
  8
0
 10
36.296792
 20
114.579460
 42
-0.006391
  0
VERTEX
  8
0
 10
37.433062
 20
115.923170
 42
-0.006455
  0
VERTEX
  8
0
 10
38.549735
 20
117.176908
 42
-0.013692
  0
VERTEX
  8
0
 10
39.452816
 20
118.112099
 42
-0.017559
  0
VERTEX
  8
0
 10
40.579785
 20
119.141881
 42
-0.141668
  0
VERTEX
  8
0
 10
41.212253
 20
119.427203
 42
-0.245716
  0
VERTEX
  8
0
 10
41.716193
 20
119.249190
 42
-0.059858
  0
VERTEX
  8
0
 10
42.252506
 20
118.513280
 42
0.134622
  0
VERTEX
  8
0
 10
43.614597
 20
117.130440
 42
0.231242
  0
VERTEX
  8
0
 10
45.193927
 20
117.018393
 42
0.171974
  0
VERTEX
  8
0
 10
46.612591
 20
118.273452
 42
0.080284
  0
VERTEX
  8
0
 10
47.455317
 20
120.613510
 42
-0.038989
  0
VERTEX
  8
0
 10
48.201337
 20
123.380151
 42
-0.071775
  0
VERTEX
  8
0
 10
49.285424
 20
125.439169
 42
-0.029066
  0
VERTEX
  8
0
 10
51.440173
 20
128.071039
 42
-0.001990
  0
VERTEX
  8
0
 10
58.000000
 20
135.138806
 42
0.003282
  0
VERTEX
  8
0
 10
60.898066
 20
138.277509
 42
0.004854
  0
VERTEX
  8
0
 10
63.394792
 20
141.071415
 42
0.002301
  0
VERTEX
  8
0
 10
65.480814
 20
143.474057
 42
0.091146
  0
VERTEX
  8
0
 10
65.833333
 20
144.077667
 42
-0.118363
  0
VERTEX
  8
0
 10
66.065740
 20
144.430525
 42
-0.067022
  0
VERTEX
  8
0
 10
66.484896
 20
144.729065
 42
-0.060967
  0
VERTEX
  8
0
 10
67.016797
 20
144.931261
 42
-0.060445
  0
VERTEX
  8
0
 10
67.583333
 20
145.000000
 42
0.063711
  0
VERTEX
  8
0
 10
68.124969
 20
145.069298
 42
0.081607
  0
VERTEX
  8
0
 10
68.583854
 20
145.272768
 42
0.098518
  0
VERTEX
  8
0
 10
68.890886
 20
145.574448
 42
0.150570
  0
VERTEX
  8
0
 10
69.000000
 20
145.928571
 42
-0.161455
  0
VERTEX
  8
0
 10
69.359876
 20
147.013998
 42
-0.040191
  0
VERTEX
  8
0
 10
70.610882
 20
148.438527
 42
-0.040401
  0
VERTEX
  8
0
 10
72.079258
 20
149.648125
 42
-0.153260
  0
VERTEX
  8
0
 10
73.200259
 20
150.000000
 42
-0.327637
  0
VERTEX
  8
0
 10
73.622346
 20
149.690157
 42
-0.059488
  0
VERTEX
  8
0
 10
73.812681
 20
148.675882
 42
-0.037102
  0
VERTEX
  8
0
 10
73.800543
 20
147.058974
 42
-0.013042
  0
VERTEX
  8
0
 10
73.550761
 20
144.750000
 42
0.010984
  0
VERTEX
  8
0
 10
73.226260
 20
141.861548
 42
0.002531
  0
VERTEX
  8
0
 10
72.810960
 20
136.978542
 42
0.002614
  0
VERTEX
  8
0
 10
72.390356
 20
131.347568
 42
0.002550
  0
VERTEX
  8
0
 10
72.024956
 20
125.666313
 42
-0.003629
  0
VERTEX
  8
0
 10
71.486903
 20
117.573148
 42
-0.028753
  0
VERTEX
  8
0
 10
70.996202
 20
113.852594
 42
-0.068081
  0
VERTEX
  8
0
 10
70.282464
 20
111.731370
 42
-0.125466
  0
VERTEX
  8
0
 10
69.103026
 20
110.359609
 42
0.039844
  0
VERTEX
  8
0
 10
68.298366
 20
109.694603
 42
0.041003
  0
VERTEX
  8
0
 10
67.617764
 20
108.916305
 42
0.044440
  0
VERTEX
  8
0
 10
67.147197
 20
108.144904
 42
0.115239
  0
VERTEX
  8
0
 10
67.000000
 20
107.514725
 42
-0.083335
  0
VERTEX
  8
0
 10
66.893773
 20
106.881799
 42
-0.037305
  0
VERTEX
  8
0
 10
66.558500
 20
106.104344
 42
-0.035592
  0
VERTEX
  8
0
 10
66.072182
 20
105.316236
 42
-0.040364
  0
VERTEX
  8
0
 10
65.497023
 20
104.639880
 42
0.076558
  0
VERTEX
  8
0
 10
64.832528
 20
103.733432
 42
0.019443
  0
VERTEX
  8
0
 10
64.051765
 20
102.078783
 42
0.019363
  0
VERTEX
  8
0
 10
63.298164
 20
100.096429
 42
0.018507
  0
VERTEX
  8
0
 10
62.687559
 20
98.031814
 42
-0.029499
  0
VERTEX
  8
0
 10
61.990693
 20
95.852748
 42
-0.021611
  0
VERTEX
  8
0
 10
60.974508
 20
93.525652
 42
-0.021969
  0
VERTEX
  8
0
 10
59.815877
 20
91.399064
 42
-0.044389
  0
VERTEX
  8
0
 10
58.690536
 20
89.860535
 42
0.026861
  0
VERTEX
  8
0
 10
57.660796
 20
88.551460
 42
0.027822
  0
VERTEX
  8
0
 10
56.790345
 20
87.154351
 42
0.028930
  0
VERTEX
  8
0
 10
56.178415
 20
85.866955
 42
0.096767
  0
VERTEX
  8
0
 10
56.000000
 20
84.953708
 42
-0.125104
  0
VERTEX
  8
0
 10
55.788591
 20
84.121999
 42
-0.048830
  0
VERTEX
  8
0
 10
55.118750
 20
83.133192
 42
-0.044394
  0
VERTEX
  8
0
 10
54.147803
 20
82.155087
 42
-0.041719
  0
VERTEX
  8
0
 10
53.000000
 20
81.340929
 42
0.088998
  0
VERTEX
  8
0
 10
51.069496
 20
79.677936
 42
0.114881
  0
VERTEX
  8
0
 10
50.047708
 20
77.580992
 42
0.171574
  0
VERTEX
  8
0
 10
50.253062
 20
75.806029
 42
0.230171
  0
VERTEX
  8
0
 10
51.510642
 20
74.823324
 42
-0.308969
  0
VERTEX
  8
0
 10
52.017305
 20
74.290906
 42
-0.121153
  0
VERTEX
  8
0
 10
51.932296
 20
73.228441
 42
-0.043643
  0
VERTEX
  8
0
 10
51.117702
 20
71.344976
 42
-0.007801
  0
VERTEX
  8
0
 10
49.242101
 20
68.000000
 42
-0.011024
  0
VERTEX
  8
0
 10
46.846349
 20
64.080886
 42
-0.070401
  0
VERTEX
  8
0
 10
45.329618
 20
62.320923
 42
-0.099503
  0
VERTEX
  8
0
 10
43.610824
 20
61.335507
 42
-0.032660
  0
VERTEX
  8
0
 10
40.775928
 20
60.590708
 42
0.018546
  0
VERTEX
  8
0
 10
38.154261
 20
59.980426
 42
0.090767
  0
VERTEX
  8
0
 10
36.787437
 20
59.325499
 42
0.128690
  0
VERTEX
  8
0
 10
35.984508
 20
58.346579
 42
0.053744
  0
VERTEX
  8
0
 10
35.437577
 20
56.715788
 42
0.032770
  0
VERTEX
  8
0
 10
35.240985
 20
55.421036
 42
0.057530
  0
VERTEX
  8
0
 10
35.273183
 20
54.339595
 42
0.075348
  0
VERTEX
  8
0
 10
35.521937
 20
53.521287
 42
0.143907
  0
VERTEX
  8
0
 10
35.976954
 20
53.014244
 42
-0.060786
  0
VERTEX
  8
0
 10
36.447631
 20
52.637503
 42
-0.271112
  0
VERTEX
  8
0
 10
36.530029
 20
52.307776
 42
-0.197588
  0
VERTEX
  8
0
 10
36.279689
 20
51.994867
 42
-0.034883
  0
VERTEX
  8
0
 10
35.583846
 20
51.670548
 42
0.050430
  0
VERTEX
  8
0
 10
34.978025
 20
51.364956
 42
0.055138
  0
VERTEX
  8
0
 10
34.465255
 20
50.951887
 42
0.062277
  0
VERTEX
  8
0
 10
34.115274
 20
50.499180
 42
0.134227
  0
VERTEX
  8
0
 10
34.000000
 20
50.077517
 42
-0.156786
  0
VERTEX
  8
0
 10
33.806761
 20
49.476418
 42
-0.008520
  0
VERTEX
  8
0
 10
32.604687
 20
47.858943
 42
-0.012591
  0
VERTEX
  8
0
 10
31.069785
 20
45.966070
 42
-0.008808
  0
VERTEX
  8
0
 10
29.250000
 20
43.908471
 42
0.000079
  0
VERTEX
  8
0
 10
27.229846
 20
41.703130
 42
0.000066
  0
VERTEX
  8
0
 10
25.087500
 20
39.363037
 42
0.000066
  0
VERTEX
  8
0
 10
23.130020
 20
37.223737
 42
0.000183
  0
VERTEX
  8
0
 10
21.750000
 20
35.714024
 42
0.013765
  0
VERTEX
  8
0
 10
20.696849
 20
34.495317
 42
0.018056
  0
VERTEX
  8
0
 10
19.807813
 20
33.323457
 42
0.015718
  0
VERTEX
  8
0
 10
19.143771
 20
32.313168
 42
0.138383
  0
VERTEX
  8
0
 10
19.000000
 20
31.803649
 42
-0.117556
  0
VERTEX
  8
0
 10
18.863950
 20
31.232983
 42
-0.006893
  0
VERTEX
  8
0
 10
18.030927
 20
29.640144
 42
-0.010120
  0
VERTEX
  8
0
 10
16.964780
 20
27.760193
 42
-0.007261
  0
VERTEX
  8
0
 10
15.701027
 20
25.701963
 42
0.010008
  0
VERTEX
  8
0
 10
14.337639
 20
23.453859
 42
0.008203
  0
VERTEX
  8
0
 10
12.969094
 20
20.999952
 42
0.008303
  0
VERTEX
  8
0
 10
11.785203
 20
18.701971
 42
0.021594
  0
VERTEX
  8
0
 10
11.033430
 20
17.000000
 42
-0.006798
  0
VERTEX
  8
0
 10
10.458505
 20
15.586702
 42
-0.007483
  0
VERTEX
  8
0
 10
9.862824
 20
14.234375
 42
-0.007035
  0
VERTEX
  8
0
 10
9.320872
 20
13.094897
 42
-0.037271
  0
VERTEX
  8
0
 10
8.970290
 20
12.500000
 42
0.081770
  0
VERTEX
  8
0
 10
8.011290
 20
10.483188
 42
0.046795
  0
VERTEX
  8
0
 10
7.508485
 20
7.828132
 42
0.046533
  0
VERTEX
  8
0
 10
7.506742
 20
5.097433
 42
0.075226
  0
VERTEX
  8
0
 10
8.063682
 20
2.846259
 42
0.044457
  0
VERTEX
  8
0
 10
8.855697
 20
1.330695
 42
0.122557
  0
VERTEX
  8
0
 10
9.725857
 20
0.509445
 42
0.102593
  0
VERTEX
  8
0
 10
10.977133
 20
0.111220
 42
0.025918
  0
VERTEX
  8
0
 10
13.121320
 20
0.000000
 42
0.022376
  0
VERTEX
  8
0
 10
14.868310
 20
0.078219
 42
0.063915
  0
VERTEX
  8
0
 10
16.053904
 20
0.339786
 42
0.110984
  0
VERTEX
  8
0
 10
16.746503
 20
0.779689
 42
0.198515
  0
VERTEX
  8
0
 10
17.000000
 20
1.393011
 42
-0.092766
  0
VERTEX
  8
0
 10
17.107377
 20
1.966785
 42
-0.066773
  0
VERTEX
  8
0
 10
17.422436
 20
2.538929
 42
-0.064992
  0
VERTEX
  8
0
 10
17.888332
 20
3.022772
 42
-0.077174
  0
VERTEX
  8
0
 10
18.438081
 20
3.337866
 42
0.160739
  0
VERTEX
  8
0
 10
19.061074
 20
3.846995
 42
0.072127
  0
VERTEX
  8
0
 10
19.500093
 20
4.822519
 42
0.050473
  0
VERTEX
  8
0
 10
19.756952
 20
6.250125
 42
0.022743
  0
VERTEX
  8
0
 10
19.817303
 20
8.154595
 42
-0.024732
  0
VERTEX
  8
0
 10
19.876538
 20
9.815320
 42
-0.035002
  0
VERTEX
  8
0
 10
20.104962
 20
11.276414
 42
-0.037731
  0
VERTEX
  8
0
 10
20.448496
 20
12.385067
 42
-0.221818
  0
VERTEX
  8
0
 10
20.879221
 20
12.793074
 42
0.105689
  0
VERTEX
  8
0
 10
21.307685
 20
13.045471
 42
0.070299
  0
VERTEX
  8
0
 10
21.670771
 20
13.487657
 42
0.066121
  0
VERTEX
  8
0
 10
21.916167
 20
14.044528
 42
0.070873
  0
VERTEX
  8
0
 10
22.000000
 20
14.632993
 42
-0.095752
  0
VERTEX
  8
0
 10
22.318014
 20
16.278378
 42
-0.018362
  0
VERTEX
  8
0
 10
23.559666
 20
19.069533
 42
-0.020286
  0
VERTEX
  8
0
 10
25.050193
 20
21.825034
 42
-0.056205
  0
VERTEX
  8
0
 10
26.379675
 20
23.578574
 42
0.019362
  0
VERTEX
  8
0
 10
26.913041
 20
24.183904
 42
0.007344
  0
VERTEX
  8
0
 10
27.611529
 20
25.067587
 42
0.007261
  0
VERTEX
  8
0
 10
28.343615
 20
26.051537
 42
0.008807
  0
VERTEX
  8
0
 10
29.000000
 20
26.995636
 42
-0.026071
  0
VERTEX
  8
0
 10
29.920199
 20
28.226290
 42
-0.004847
  0
VERTEX
  8
0
 10
31.747996
 20
30.379353
 42
-0.005183
  0
VERTEX
  8
0
 10
33.937705
 20
32.856260
 42
-0.004711
  0
VERTEX
  8
0
 10
36.248499
 20
35.368165
 42
0.005684
  0
VERTEX
  8
0
 10
38.451578
 20
37.772352
 42
0.008594
  0
VERTEX
  8
0
 10
40.308817
 20
39.919086
 42
0.004170
  0
VERTEX
  8
0
 10
41.827620
 20
41.767974
 42
0.170976
  0
VERTEX
  8
0
 10
41.998499
 20
42.250000
 42
-0.236373
  0
VERTEX
  8
0
 10
42.143191
 20
42.537528
 42
-0.070572
  0
VERTEX
  8
0
 10
42.587059
 20
42.779688
 42
-0.054018
  0
VERTEX
  8
0
 10
43.233900
 20
42.945261
 42
-0.035680
  0
VERTEX
  8
0
 10
44.000000
 20
43.000000
 42
0.072314
  0
VERTEX
  8
0
 10
44.769411
 20
43.111864
 42
0.088920
  0
VERTEX
  8
0
 10
45.416667
 20
43.437500
 42
0.102140
  0
VERTEX
  8
0
 10
45.846791
 20
43.924246
 42
0.130775
  0
VERTEX
  8
0
 10
46.000000
 20
44.500000
 42
-0.064853
  0
VERTEX
  8
0
 10
46.074694
 20
45.073457
 42
-0.082425
  0
VERTEX
  8
0
 10
46.293750
 20
45.559375
 42
-0.098894
  0
VERTEX
  8
0
 10
46.618646
 20
45.884432
 42
-0.148195
  0
VERTEX
  8
0
 10
47.000000
 20
46.000000
 42
0.153634
  0
VERTEX
  8
0
 10
47.381379
 20
46.120018
 42
0.097988
  0
VERTEX
  8
0
 10
47.706250
 20
46.457961
 42
0.080552
  0
VERTEX
  8
0
 10
47.925455
 20
46.962904
 42
0.062283
  0
VERTEX
  8
0
 10
48.000000
 20
47.559017
 42
-0.066118
  0
VERTEX
  8
0
 10
48.073267
 20
48.110654
 42
-0.138808
  0
VERTEX
  8
0
 10
48.293750
 20
48.478525
 42
-0.191142
  0
VERTEX
  8
0
 10
48.620352
 20
48.607943
 42
-0.139169
  0
VERTEX
  8
0
 10
49.000000
 20
48.500000
 42
-0.170670
  0
VERTEX
  8
0
 10
49.387806
 20
48.019590
 42
-0.031293
  0
VERTEX
  8
0
 10
49.706250
 20
46.905850
 42
-0.030444
  0
VERTEX
  8
0
 10
49.926750
 20
45.495210
 42
-0.023552
  0
VERTEX
  8
0
 10
50.000000
 20
43.940983
 42
0.016657
  0
VERTEX
  8
0
 10
50.075955
 20
41.661602
 42
0.125320
  0
VERTEX
  8
0
 10
50.408590
 20
40.644098
 42
0.200006
  0
VERTEX
  8
0
 10
51.114257
 20
40.150167
 42
0.054025
  0
VERTEX
  8
0
 10
52.500000
 20
40.000000
 42
0.045527
  0
VERTEX
  8
0
 10
53.768514
 20
40.115743
 42
0.152009
  0
VERTEX
  8
0
 10
54.500000
 20
40.500000
 42
0.152009
  0
VERTEX
  8
0
 10
54.884257
 20
41.231486
 42
0.045527
  0
VERTEX
  8
0
 10
55.000000
 20
42.500000
 42
-0.038131
  0
VERTEX
  8
0
 10
55.073116
 20
43.457356
 42
-0.057076
  0
VERTEX
  8
0
 10
55.293750
 20
44.265625
 42
-0.074992
  0
VERTEX
  8
0
 10
55.617064
 20
44.817169
 42
-0.226478
  0
VERTEX
  8
0
 10
56.000000
 20
45.000000
 42
0.142422
  0
VERTEX
  8
0
 10
56.381340
 20
45.110872
 42
0.099680
  0
VERTEX
  8
0
 10
56.706250
 20
45.422532
 42
0.084413
  0
VERTEX
  8
0
 10
56.925139
 20
45.888595
 42
0.067766
  0
VERTEX
  8
0
 10
57.000000
 20
46.438407
 42
-0.090056
  0
VERTEX
  8
0
 10
57.153319
 20
47.282739
 42
-0.011302
  0
VERTEX
  8
0
 10
57.848766
 20
49.014562
 42
-0.012994
  0
VERTEX
  8
0
 10
58.783018
 20
51.049252
 42
-0.010445
  0
VERTEX
  8
0
 10
59.889416
 20
53.188407
 42
0.001870
  0
VERTEX
  8
0
 10
63.865167
 20
60.562575
 42
0.012319
  0
VERTEX
  8
0
 10
65.749690
 20
64.308667
 42
0.023862
  0
VERTEX
  8
0
 10
66.723401
 20
66.652476
 42
0.086724
  0
VERTEX
  8
0
 10
67.000000
 20
68.235191
 42
-0.045729
  0
VERTEX
  8
0
 10
67.061910
 20
68.910697
 42
-0.065650
  0
VERTEX
  8
0
 10
67.247241
 20
69.481587
 42
-0.085681
  0
VERTEX
  8
0
 10
67.520108
 20
69.867087
 42
-0.198521
  0
VERTEX
  8
0
 10
67.841673
 20
70.000000
 42
0.281604
  0
VERTEX
  8
0
 10
68.250237
 20
70.249926
 42
0.013681
  0
VERTEX
  8
0
 10
68.965094
 20
71.747134
 42
0.018887
  0
VERTEX
  8
0
 10
69.733103
 20
73.668165
 42
0.012139
  0
VERTEX
  8
0
 10
70.484162
 20
75.947689
 42
-0.019614
  0
VERTEX
  8
0
 10
72.057387
 20
80.492870
 42
-0.156626
  0
VERTEX
  8
0
 10
73.440171
 20
82.191783
 42
-0.451813
  0
VERTEX
  8
0
 10
74.614349
 20
81.864512
 42
-0.066298
  0
VERTEX
  8
0
 10
75.489401
 20
79.204805
 42
0.016040
  0
VERTEX
  8
0
 10
75.911666
 20
77.294276
 42
0.004591
  0
VERTEX
  8
0
 10
76.687939
 20
74.361816
 42
0.004616
  0
VERTEX
  8
0
 10
77.625257
 20
71.067446
 42
0.004888
  0
VERTEX
  8
0
 10
78.606142
 20
67.853345
 42
0.043404
  0
VERTEX
  8
0
 10
81.428063
 20
61.041255
 42
0.025544
  0
VERTEX
  8
0
 10
85.891369
 20
53.433421
 42
0.025536
  0
VERTEX
  8
0
 10
91.112015
 20
46.313655
 42
0.043053
  0
VERTEX
  8
0
 10
96.262613
 20
41.000000
 42
-0.006690
  0
VERTEX
  8
0
 10
98.215422
 20
39.258351
 42
-0.002724
  0
VERTEX
  8
0
 10
100.827333
 20
36.839062
 42
-0.002694
  0
VERTEX
  8
0
 10
103.607077
 20
34.207785
 42
-0.003434
  0
VERTEX
  8
0
 10
106.140610
 20
31.750000
 42
0.004385
  0
VERTEX
  8
0
 10
108.421065
 20
29.546131
 42
0.006804
  0
VERTEX
  8
0
 10
110.430778
 20
27.689062
 42
0.002597
  0
VERTEX
  8
0
 10
112.176806
 20
26.135481
 42
0.182472
  0
VERTEX
  8
0
 10
112.535682
 20
26.000000
 42
-0.141520
  0
VERTEX
  8
0
 10
113.131635
 20
25.827873
 42
-0.022927
  0
VERTEX
  8
0
 10
114.131827
 20
25.131506
 42
-0.013927
  0
VERTEX
  8
0
 10
115.678619
 20
23.875827
 42
-0.002464
  0
VERTEX
  8
0
 10
118.500000
 20
21.427755
 42
0.029159
  0
VERTEX
  8
0
 10
121.720708
 20
18.921433
 42
0.047098
  0
VERTEX
  8
0
 10
124.751865
 20
17.230413
 42
0.046625
  0
VERTEX
  8
0
 10
128.068110
 20
16.125685
 42
0.027909
  0
VERTEX
  8
0
 10
132.163872
 20
15.411743
 42
0.049409
  0
VERTEX
  8
0
 10
137.773091
 20
15.310557
 42
0.063168
  0
VERTEX
  8
0
 10
142.826597
 20
16.371145
 42
0.054011
  0
VERTEX
  8
0
 10
148.028449
 20
18.826151
 42
0.025526
  0
VERTEX
  8
0
 10
154.161500
 20
23.021231
 42
-0.005343
  0
VERTEX
  8
0
 10
157.310110
 20
25.366833
 42
-0.005735
  0
VERTEX
  8
0
 10
160.435188
 20
27.588967
 42
-0.005451
  0
VERTEX
  8
0
 10
163.160599
 20
29.436529
 42
-0.026904
  0
VERTEX
  8
0
 10
164.760032
 20
30.375908
 42
0.071284
  0
VERTEX
  8
0
 10
168.101883
 20
32.759555
 42
0.004586
  0
VERTEX
  8
0
 10
176.706611
 20
41.121282
 42
0.003271
  0
VERTEX
  8
0
 10
185.409914
 20
49.848858
 42
0.115129
  0
VERTEX
  8
0
 10
186.899944
 20
52.288931
 42
-0.028244
  0
VERTEX
  8
0
 10
187.097141
 20
52.789262
 42
-0.024250
  0
VERTEX
  8
0
 10
187.358671
 20
53.291123
 42
-0.024975
  0
VERTEX
  8
0
 10
187.641537
 20
53.723972
 42
-0.061912
  0
VERTEX
  8
0
 10
187.899944
 20
54.000000
 42
0.095941
  0
VERTEX
  8
0
 10
190.831750
 20
57.590070
 42
0.018530
  0
VERTEX
  8
0
 10
194.545305
 20
65.152687
 42
0.020745
  0
VERTEX
  8
0
 10
197.804692
 20
73.362803
 42
0.043762
  0
VERTEX
  8
0
 10
199.492103
 20
80.000000
 42
-0.011198
  0
VERTEX
  8
0
 10
199.832986
 20
81.832805
 42
-0.011758
  0
VERTEX
  8
0
 10
200.250774
 20
83.618750
 42
-0.011472
  0
VERTEX
  8
0
 10
200.682221
 20
85.140579
 42
-0.050332
  0
VERTEX
  8
0
 10
201.045352
 20
86.000000
 42
-0.031289
  0
VERTEX
  8
0
 10
201.511468
 20
86.738675
 42
-0.330055
  0
VERTEX
  8
0
 10
201.831599
 20
86.840421
 42
-0.219311
  0
VERTEX
  8
0
 10
202.126941
 20
86.558783
 42
-0.016887
  0
VERTEX
  8
0
 10
202.505752
 20
85.500000
 42
0.011531
  0
VERTEX
  8
0
 10
202.848911
 20
84.507478
 42
0.004247
  0
VERTEX
  8
0
 10
203.377110
 20
83.122846
 42
0.004206
  0
VERTEX
  8
0
 10
203.979723
 20
81.619945
 42
0.005043
  0
VERTEX
  8
0
 10
204.573002
 20
80.216073
 42
-0.010524
  0
VERTEX
  8
0
 10
205.119332
 20
78.882725
 42
-0.012223
  0
VERTEX
  8
0
 10
205.580819
 20
77.592034
 42
-0.011284
  0
VERTEX
  8
0
 10
205.918503
 20
76.486209
 42
-0.068559
  0
VERTEX
  8
0
 10
206.000000
 20
75.894644
 42
0.100402
  0
VERTEX
  8
0
 10
206.101670
 20
75.393433
 42
0.033414
  0
VERTEX
  8
0
 10
206.440625
 20
74.721284
 42
0.031700
  0
VERTEX
  8
0
 10
206.925957
 20
74.007678
 42
0.031202
  0
VERTEX
  8
0
 10
207.500000
 20
73.357143
 42
-0.064887
  0
VERTEX
  8
0
 10
208.074675
 20
72.610236
 42
-0.039121
  0
VERTEX
  8
0
 10
208.559375
 20
71.601711
 42
-0.038575
  0
VERTEX
  8
0
 10
208.889926
 20
70.504810
 42
-0.053948
  0
VERTEX
  8
0
 10
209.000000
 20
69.487588
 42
0.038729
  0
VERTEX
  8
0
 10
209.073877
 20
68.535256
 42
0.042064
  0
VERTEX
  8
0
 10
209.293750
 20
67.632543
 42
0.046167
  0
VERTEX
  8
0
 10
209.615638
 20
66.902480
 42
0.128117
  0
VERTEX
  8
0
 10
210.000000
 20
66.500000
 42
-0.092927
  0
VERTEX
  8
0
 10
210.382947
 20
66.151109
 42
-0.052990
  0
VERTEX
  8
0
 10
210.706250
 20
65.612608
 42
-0.050419
  0
VERTEX
  8
0
 10
210.925820
 20
64.979969
 42
-0.058394
  0
VERTEX
  8
0
 10
211.000000
 20
64.346967
 42
0.097481
  0
VERTEX
  8
0
 10
211.201365
 20
63.323942
 42
0.004260
  0
VERTEX
  8
0
 10
212.615625
 20
59.952778
 42
0.007094
  0
VERTEX
  8
0
 10
214.392882
 20
55.972210
 42
0.004990
  0
VERTEX
  8
0
 10
216.500000
 20
51.543554
 42
-0.003708
  0
VERTEX
  8
0
 10
218.607526
 20
47.143162
 42
-0.005486
  0
VERTEX
  8
0
 10
220.384375
 20
43.251076
 42
-0.002640
  0
VERTEX
  8
0
 10
221.837292
 20
39.926569
 42
-0.102037
  0
VERTEX
  8
0
 10
222.000000
 20
39.137570
 42
0.167827
  0
VERTEX
  8
0
 10
222.149890
 20
38.703586
 42
0.094942
  0
VERTEX
  8
0
 10
222.574189
 20
38.334161
 42
0.075710
  0
VERTEX
  8
0
 10
223.207001
 20
38.084393
 42
0.056258
  0
VERTEX
  8
0
 10
223.954687
 20
38.000000
 42
0.105676
  0
VERTEX
  8
0
 10
224.900075
 20
38.202066
 42
0.125482
  0
VERTEX
  8
0
 10
225.613273
 20
38.768028
 42
0.086418
  0
VERTEX
  8
0
 10
226.143713
 20
39.792081
 42
0.030028
  0
VERTEX
  8
0
 10
226.549191
 20
41.410516
 42
0.000000
  0
VERTEX
  8
0
 10
227.189007
 20
44.821032
 42
0.000000
  0
VERTEX
  8
0
 10
230.620342
 20
42.796495
 42
-0.022078
  0
VERTEX
  8
0
 10
231.999687
 20
41.898312
 42
-0.021501
  0
VERTEX
  8
0
 10
233.307137
 20
40.874470
 42
-0.021989
  0
VERTEX
  8
0
 10
234.375277
 20
39.876782
 42
-0.071150
  0
VERTEX
  8
0
 10
234.948410
 20
39.096397
 42
0.062655
  0
VERTEX
  8
0
 10
235.472987
 20
38.356202
 42
0.026963
  0
VERTEX
  8
0
 10
236.338847
 20
37.507834
 42
0.026162
  0
VERTEX
  8
0
 10
237.370052
 20
36.692588
 42
0.031325
  0
VERTEX
  8
0
 10
238.422571
 20
36.041439
 42
-0.037111
  0
VERTEX
  8
0
 10
239.408880
 20
35.415372
 42
-0.042718
  0
VERTEX
  8
0
 10
240.242880
 20
34.676252
 42
-0.047512
  0
VERTEX
  8
0
 10
240.822006
 20
33.938167
 42
-0.143561
  0
VERTEX
  8
0
 10
241.000000
 20
33.331020
 42
0.054377
  0
VERTEX
  8
0
 10
241.055560
 20
32.821661
 42
0.073905
  0
VERTEX
  8
0
 10
241.220313
 20
32.390298
 42
0.093369
  0
VERTEX
  8
0
 10
241.463817
 20
32.100363
 42
0.172402
  0
VERTEX
  8
0
 10
241.750000
 20
31.997654
 42
-0.175822
  0
VERTEX
  8
0
 10
243.301611
 20
31.429137
 42
-0.022008
  0
VERTEX
  8
0
 10
245.982596
 20
28.964844
 42
-0.022016
  0
VERTEX
  8
0
 10
248.436547
 20
26.274375
 42
-0.175631
  0
VERTEX
  8
0
 10
249.000000
 20
24.719773
 42
0.044659
  0
VERTEX
  8
0
 10
249.058916
 20
24.061461
 42
0.064509
  0
VERTEX
  8
0
 10
249.235488
 20
23.505183
 42
0.084400
  0
VERTEX
  8
0
 10
249.495308
 20
23.129126
 42
0.202137
  0
VERTEX
  8
0
 10
249.801660
 20
23.000000
 42
-0.292848
  0
VERTEX
  8
0
 10
250.191390
 20
22.750324
 42
-0.010888
  0
VERTEX
  8
0
 10
250.917972
 20
21.076285
 42
-0.016698
  0
VERTEX
  8
0
 10
251.700381
 20
18.961319
 42
-0.010598
  0
VERTEX
  8
0
 10
252.476138
 20
16.451184
 42
0.008924
  0
VERTEX
  8
0
 10
253.253650
 20
13.905189
 42
0.012720
  0
VERTEX
  8
0
 10
254.041313
 20
11.676211
 42
0.008698
  0
VERTEX
  8
0
 10
254.770692
 20
9.863310
 42
0.155566
  0
VERTEX
  8
0
 10
255.174478
 20
9.392167
 42
-0.127456
  0
VERTEX
  8
0
 10
255.491747
 20
9.060806
 42
-0.046352
  0
VERTEX
  8
0
 10
255.757503
 20
8.461674
 42
-0.042238
  0
VERTEX
  8
0
 10
255.939006
 20
7.721360
 42
-0.039020
  0
VERTEX
  8
0
 10
256.000000
 20
6.940983
 42
0.075715
  0
VERTEX
  8
0
 10
256.112945
 20
6.199409
 42
0.089148
  0
VERTEX
  8
0
 10
256.440625
 20
5.570164
 42
0.100726
  0
VERTEX
  8
0
 10
256.927960
 20
5.149516
 42
0.128528
  0
VERTEX
  8
0
 10
257.500000
 20
5.000000
 42
-0.064853
  0
VERTEX
  8
0
 10
258.073457
 20
4.925306
 42
-0.082425
  0
VERTEX
  8
0
 10
258.559375
 20
4.706250
 42
-0.098894
  0
VERTEX
  8
0
 10
258.884432
 20
4.381354
 42
-0.148195
  0
VERTEX
  8
0
 10
259.000000
 20
4.000000
 42
0.274404
  0
VERTEX
  8
0
 10
259.228771
 20
3.614537
 42
0.053832
  0
VERTEX
  8
0
 10
260.004785
 20
3.293750
 42
0.043476
  0
VERTEX
  8
0
 10
261.109920
 20
3.072571
 42
0.027665
  0
VERTEX
  8
0
 10
262.420545
 20
3.000000
 42
0.028977
  0
VERTEX
  8
0
 10
264.331861
 20
3.110861
 42
0.130283
  0
VERTEX
  8
0
 10
265.364780
 20
3.517422
 42
0.143358
  0
VERTEX
  8
0
 10
266.007411
 20
4.359376
 42
0.037757
  0
VERTEX
  8
0
 10
266.500000
 20
6.000000
 42
0.055688
  0
VERTEX
  8
0
 10
266.800429
 20
8.852249
 42
0.049090
  0
VERTEX
  8
0
 10
266.488538
 20
11.828345
 42
0.052364
  0
VERTEX
  8
0
 10
265.668044
 20
14.415122
 42
0.117103
  0
VERTEX
  8
0
 10
264.435721
 20
16.053347
 42
-0.050501
  0
VERTEX
  8
0
 10
263.886360
 20
16.611840
 42
-0.042133
  0
VERTEX
  8
0
 10
263.421743
 20
17.302732
 42
-0.043941
  0
VERTEX
  8
0
 10
263.103629
 20
18.015115
 42
-0.083230
  0
VERTEX
  8
0
 10
263.000000
 20
18.633343
 42
0.100356
  0
VERTEX
  8
0
 10
262.542387
 20
20.890321
 42
0.019147
  0
VERTEX
  8
0
 10
260.755925
 20
24.701068
 42
0.021457
  0
VERTEX
  8
0
 10
258.568649
 20
28.525037
 42
0.046331
  0
VERTEX
  8
0
 10
256.505240
 20
31.210923
 42
-0.014900
  0
VERTEX
  8
0
 10
255.545887
 20
32.309451
 42
-0.019235
  0
VERTEX
  8
0
 10
254.735914
 20
33.375787
 42
-0.017287
  0
VERTEX
  8
0
 10
254.135437
 20
34.299200
 42
-0.136336
  0
VERTEX
  8
0
 10
254.000000
 20
34.786670
 42
0.153501
  0
VERTEX
  8
0
 10
253.833126
 20
35.317422
 42
0.009035
  0
VERTEX
  8
0
 10
252.829147
 20
36.702186
 42
0.012967
  0
VERTEX
  8
0
 10
251.541098
 20
38.323578
 42
0.009146
  0
VERTEX
  8
0
 10
250.014116
 20
40.080314
 42
-0.013074
  0
VERTEX
  8
0
 10
248.486599
 20
41.865801
 42
-0.017229
  0
VERTEX
  8
0
 10
247.194939
 20
43.575202
 42
-0.014741
  0
VERTEX
  8
0
 10
246.224539
 20
45.046198
 42
-0.136482
  0
VERTEX
  8
0
 10
246.014116
 20
45.771439
 42
0.148820
  0
VERTEX
  8
0
 10
245.834289
 20
46.339514
 42
0.051141
  0
VERTEX
  8
0
 10
245.269772
 20
47.003996
 42
0.045382
  0
VERTEX
  8
0
 10
244.457693
 20
47.652224
 42
0.038878
  0
VERTEX
  8
0
 10
243.500000
 20
48.181954
 42
-0.051531
  0
VERTEX
  8
0
 10
242.543782
 20
48.742858
 42
-0.053305
  0
VERTEX
  8
0
 10
241.734375
 20
49.481886
 42
-0.059014
  0
VERTEX
  8
0
 10
241.181691
 20
50.278719
 42
-0.122742
  0
VERTEX
  8
0
 10
241.000000
 20
51.007701
 42
0.112014
  0
VERTEX
  8
0
 10
240.835461
 20
51.732944
 42
0.058985
  0
VERTEX
  8
0
 10
240.339063
 20
52.517670
 42
0.054265
  0
VERTEX
  8
0
 10
239.610519
 20
53.239127
 42
0.055736
  0
VERTEX
  8
0
 10
238.750000
 20
53.779505
 42
-0.011790
  0
VERTEX
  8
0
 10
237.695690
 20
54.318979
 42
-0.148483
  0
VERTEX
  8
0
 10
237.385057
 20
54.633326
 42
-0.492839
  0
VERTEX
  8
0
 10
237.482078
 20
54.844229
 42
-0.045697
  0
VERTEX
  8
0
 10
238.143011
 20
54.932320
 42
0.143750
  0
VERTEX
  8
0
 10
239.257796
 20
55.310071
 42
0.099374
  0
VERTEX
  8
0
 10
240.181601
 20
56.281176
 42
0.081475
  0
VERTEX
  8
0
 10
240.793014
 20
57.728303
 42
0.059360
  0
VERTEX
  8
0
 10
241.000000
 20
59.465644
 42
0.223561
  0
VERTEX
  8
0
 10
240.704576
 20
60.093344
 42
0.027802
  0
VERTEX
  8
0
 10
239.457812
 20
61.012785
 42
0.028463
  0
VERTEX
  8
0
 10
237.761058
 20
61.990892
 42
0.019892
  0
VERTEX
  8
0
 10
235.750000
 20
62.904069
 42
-0.026268
  0
VERTEX
  8
0
 10
233.581266
 20
63.922383
 42
-0.022321
  0
VERTEX
  8
0
 10
231.406318
 20
65.214745
 42
-0.022919
  0
VERTEX
  8
0
 10
229.530289
 20
66.572872
 42
-0.057039
  0
VERTEX
  8
0
 10
228.335337
 20
67.770212
 42
0.003450
  0
VERTEX
  8
0
 10
227.348869
 20
68.996739
 42
0.002102
  0
VERTEX
  8
0
 10
226.167624
 20
70.432500
 42
0.002107
  0
VERTEX
  8
0
 10
224.984711
 20
71.845870
 42
0.003731
  0
VERTEX
  8
0
 10
223.995630
 20
73.000000
 42
-0.012098
  0
VERTEX
  8
0
 10
222.832041
 20
74.404662
 42
-0.116316
  0
VERTEX
  8
0
 10
222.506460
 20
75.103446
 42
-0.314102
  0
VERTEX
  8
0
 10
222.691963
 20
75.537040
 42
-0.089538
  0
VERTEX
  8
0
 10
223.410293
 20
75.823324
 42
0.235514
  0
VERTEX
  8
0
 10
224.651184
 20
76.792858
 42
0.140777
  0
VERTEX
  8
0
 10
224.965963
 20
78.680515
 42
0.107746
  0
VERTEX
  8
0
 10
224.220777
 20
80.862171
 42
0.112204
  0
VERTEX
  8
0
 10
222.642774
 20
82.498408
 42
-0.047086
  0
VERTEX
  8
0
 10
221.589690
 20
83.339841
 42
-0.085984
  0
VERTEX
  8
0
 10
220.942649
 20
84.225403
 42
-0.094669
  0
VERTEX
  8
0
 10
220.667940
 20
85.215359
 42
-0.067802
  0
VERTEX
  8
0
 10
220.729508
 20
86.365344
 42
0.110341
  0
VERTEX
  8
0
 10
220.687887
 20
87.711483
 42
0.102791
  0
VERTEX
  8
0
 10
220.080617
 20
88.950972
 42
0.058243
  0
VERTEX
  8
0
 10
218.705163
 20
90.350337
 42
0.013669
  0
VERTEX
  8
0
 10
216.086733
 20
92.342220
 42
-0.013518
  0
VERTEX
  8
0
 10
213.110328
 20
94.604998
 42
-0.078158
  0
VERTEX
  8
0
 10
211.785601
 20
96.062409
 42
-0.108427
  0
VERTEX
  8
0
 10
211.183083
 20
97.635711
 42
-0.037448
  0
VERTEX
  8
0
 10
211.000000
 20
100.076756
 42
0.038205
  0
VERTEX
  8
0
 10
210.824653
 20
102.368230
 42
0.075395
  0
VERTEX
  8
0
 10
210.280829
 20
104.106241
 42
0.063533
  0
VERTEX
  8
0
 10
209.177518
 20
105.787867
 42
0.020715
  0
VERTEX
  8
0
 10
207.152358
 20
107.966219
 42
0.000000
  0
VERTEX
  8
0
 10
203.304715
 20
111.775600
 42
0.000000
  0
VERTEX
  8
0
 10
202.620108
 20
124.637800
 42
0.004914
  0
VERTEX
  8
0
 10
202.282359
 20
129.991493
 42
0.004639
  0
VERTEX
  8
0
 10
201.833871
 20
135.441293
 42
0.004614
  0
VERTEX
  8
0
 10
201.347369
 20
140.260187
 42
0.016107
  0
VERTEX
  8
0
 10
200.904918
 20
143.353834
 42
-0.008122
  0
VERTEX
  8
0
 10
200.542287
 20
145.629493
 42
-0.012325
  0
VERTEX
  8
0
 10
200.308159
 20
147.619195
 42
-0.007026
  0
VERTEX
  8
0
 10
200.177976
 20
149.275606
 42
-0.215700
  0
VERTEX
  8
0
 10
200.320599
 20
149.653932
 42
-0.342760
  0
VERTEX
  8
0
 10
200.644858
 20
149.694669
 42
-0.016765
  0
VERTEX
  8
0
 10
201.616730
 20
149.073140
 42
-0.021328
  0
VERTEX
  8
0
 10
202.793921
 20
148.187215
 42
-0.013088
  0
VERTEX
  8
0
 10
204.106293
 20
147.050098
 42
0.010759
  0
VERTEX
  8
0
 10
205.442076
 20
145.881759
 42
0.014861
  0
VERTEX
  8
0
 10
206.693049
 20
144.895966
 42
0.011397
  0
VERTEX
  8
0
 10
207.763248
 20
144.140185
 42
0.149112
  0
VERTEX
  8
0
 10
208.222861
 20
144.000000
 42
-0.185545
  0
VERTEX
  8
0
 10
208.519550
 20
143.885977
 42
-0.089978
  0
VERTEX
  8
0
 10
208.771715
 20
143.559375
 42
-0.069822
  0
VERTEX
  8
0
 10
208.942646
 20
143.073998
 42
-0.049836
  0
VERTEX
  8
0
 10
209.000000
 20
142.500000
 42
0.064853
  0
VERTEX
  8
0
 10
209.074694
 20
141.926543
 42
0.082425
  0
VERTEX
  8
0
 10
209.293750
 20
141.440625
 42
0.098894
  0
VERTEX
  8
0
 10
209.618646
 20
141.115568
 42
0.148195
  0
VERTEX
  8
0
 10
210.000000
 20
141.000000
 42
-0.097870
  0
VERTEX
  8
0
 10
210.381655
 20
140.924573
 42
-0.097662
  0
VERTEX
  8
0
 10
210.706250
 20
140.709608
 42
-0.098215
  0
VERTEX
  8
0
 10
210.923616
 20
140.388690
 42
-0.100219
  0
VERTEX
  8
0
 10
211.000000
 20
140.011431
 42
0.151054
  0
VERTEX
  8
0
 10
211.404719
 20
138.702345
 42
0.038089
  0
VERTEX
  8
0
 10
212.816203
 20
136.941896
 42
0.037571
  0
VERTEX
  8
0
 10
214.466088
 20
135.424098
 42
0.168729
  0
VERTEX
  8
0
 10
215.687057
 20
135.000000
 42
-0.126656
  0
VERTEX
  8
0
 10
216.240055
 20
134.857635
 42
-0.052304
  0
VERTEX
  8
0
 10
216.879046
 20
134.412500
 42
-0.047256
  0
VERTEX
  8
0
 10
217.498515
 20
133.765143
 42
-0.044416
  0
VERTEX
  8
0
 10
218.000000
 20
133.000000
 42
0.045861
  0
VERTEX
  8
0
 10
218.504622
 20
132.234890
 42
0.048035
  0
VERTEX
  8
0
 10
219.133263
 20
131.587500
 42
0.053025
  0
VERTEX
  8
0
 10
219.785599
 20
131.142989
 42
0.123673
  0
VERTEX
  8
0
 10
220.354848
 20
131.000000
 42
-0.186533
  0
VERTEX
  8
0
 10
221.971737
 20
130.375049
 42
-0.041303
  0
VERTEX
  8
0
 10
224.034056
 20
128.163889
 42
-0.040819
  0
VERTEX
  8
0
 10
225.966466
 20
125.255381
 42
-0.047089
  0
VERTEX
  8
0
 10
227.295417
 20
122.203820
 42
0.069759
  0
VERTEX
  8
0
 10
228.456192
 20
119.836675
 42
0.116352
  0
VERTEX
  8
0
 10
230.081342
 20
118.341020
 42
0.182069
  0
VERTEX
  8
0
 10
231.709850
 20
118.091441
 42
0.205080
  0
VERTEX
  8
0
 10
232.998132
 20
118.996977
 42
-0.240952
  0
VERTEX
  8
0
 10
233.533885
 20
119.321287
 42
-0.131028
  0
VERTEX
  8
0
 10
234.308530
 20
119.173008
 42
-0.062924
  0
VERTEX
  8
0
 10
235.391452
 20
118.470639
 42
-0.018245
  0
VERTEX
  8
0
 10
236.867959
 20
117.129074
 42
-0.014084
  0
VERTEX
  8
0
 10
238.067489
 20
115.888536
 42
-0.018809
  0
VERTEX
  8
0
 10
239.079963
 20
114.693327
 42
-0.016249
  0
VERTEX
  8
0
 10
239.838263
 20
113.659188
 42
-0.151189
  0
VERTEX
  8
0
 10
240.000000
 20
113.136531
 42
0.173120
  0
VERTEX
  8
0
 10
240.582621
 20
111.504250
 42
0.026435
  0
VERTEX
  8
0
 10
242.944781
 20
108.909656
 42
0.026560
  0
VERTEX
  8
0
 10
245.569071
 20
106.578609
 42
0.169902
  0
VERTEX
  8
0
 10
247.222684
 20
106.000000
 42
-0.041546
  0
VERTEX
  8
0
 10
247.903154
 20
105.943360
 42
-0.061067
  0
VERTEX
  8
0
 10
248.477914
 20
105.773050
 42
-0.080265
  0
VERTEX
  8
0
 10
248.867975
 20
105.522899
 42
-0.213238
  0
VERTEX
  8
0
 10
249.000000
 20
105.227404
 42
0.214875
  0
VERTEX
  8
0
 10
249.180226
 20
104.827394
 42
0.019431
  0
VERTEX
  8
0
 10
250.050254
 20
104.116159
 42
0.022488
  0
VERTEX
  8
0
 10
251.205642
 20
103.323190
 42
0.015631
  0
VERTEX
  8
0
 10
252.575331
 20
102.529365
 42
-0.019763
  0
VERTEX
  8
0
 10
255.594393
 20
100.746141
 42
-0.033233
  0
VERTEX
  8
0
 10
257.955443
 20
98.990136
 42
-0.038489
  0
VERTEX
  8
0
 10
259.555009
 20
97.398657
 42
-0.179644
  0
VERTEX
  8
0
 10
260.000000
 20
96.200092
 42
0.155028
  0
VERTEX
  8
0
 10
260.144285
 20
95.745924
 42
0.062848
  0
VERTEX
  8
0
 10
260.587500
 20
95.261247
 42
0.054040
  0
VERTEX
  8
0
 10
261.234812
 20
94.821671
 42
0.045341
  0
VERTEX
  8
0
 10
262.000000
 20
94.500000
 42
-0.076670
  0
VERTEX
  8
0
 10
262.764420
 20
94.120915
 42
-0.068603
  0
VERTEX
  8
0
 10
263.412500
 20
93.516677
 42
-0.071531
  0
VERTEX
  8
0
 10
263.850112
 20
92.787591
 42
-0.099770
  0
VERTEX
  8
0
 10
264.000000
 20
92.043903
 42
0.123939
  0
VERTEX
  8
0
 10
264.217991
 20
91.177982
 42
0.116314
  0
VERTEX
  8
0
 10
264.823321
 20
90.494491
 42
0.078140
  0
VERTEX
  8
0
 10
265.891390
 20
89.967418
 42
0.029261
  0
VERTEX
  8
0
 10
267.517010
 20
89.562787
 42
0.019934
  0
VERTEX
  8
0
 10
268.935567
 20
89.354798
 42
0.023530
  0
VERTEX
  8
0
 10
270.289652
 20
89.275266
 42
0.023313
  0
VERTEX
  8
0
 10
271.421996
 20
89.314917
 42
0.118539
  0
VERTEX
  8
0
 10
272.017010
 20
89.510513
 42
0.188424
  0
VERTEX
  8
0
 10
272.400428
 20
90.020417
 42
0.024035
  0
VERTEX
  8
0
 10
272.711247
 20
91.383445
 42
0.025433
  0
VERTEX
  8
0
 10
272.928256
 20
93.106460
 42
0.018610
  0
VERTEX
  8
0
 10
273.000000
 20
95.033337
 42
0.016811
  0
VERTEX
  8
0
 10
272.904018
 20
97.887260
 42
0.089813
  0
VERTEX
  8
0
 10
272.525482
 20
99.392415
 42
0.123480
  0
VERTEX
  8
0
 10
271.700084
 20
100.431586
 42
0.044174
  0
VERTEX
  8
0
 10
270.090347
 20
101.453280
 42
-0.018310
  0
VERTEX
  8
0
 10
268.951414
 20
102.096145
 42
-0.022179
  0
VERTEX
  8
0
 10
267.935427
 20
102.783537
 42
-0.021488
  0
VERTEX
  8
0
 10
267.144374
 20
103.426051
 42
-0.122643
  0
VERTEX
  8
0
 10
266.840347
 20
103.868916
 42
0.169406
  0
VERTEX
  8
0
 10
266.441059
 20
104.349594
 42
0.008208
  0
VERTEX
  8
0
 10
264.617164
 20
105.407459
 42
0.012596
  0
VERTEX
  8
0
 10
262.360909
 20
106.593524
 42
0.008681
  0
VERTEX
  8
0
 10
259.750000
 20
107.827240
 42
-0.016189
  0
VERTEX
  8
0
 10
257.163954
 20
109.097043
 42
-0.023646
  0
VERTEX
  8
0
 10
254.982813
 20
110.392937
 42
-0.020763
  0
VERTEX
  8
0
 10
253.343299
 20
111.575568
 42
-0.230027
  0
VERTEX
  8
0
 10
253.000000
 20
112.282297
 42
0.102312
  0
VERTEX
  8
0
 10
252.862247
 20
112.948454
 42
0.037091
  0
VERTEX
  8
0
 10
252.412500
 20
113.808185
 42
0.034898
  0
VERTEX
  8
0
 10
251.765335
 20
114.703496
 42
0.034908
  0
VERTEX
  8
0
 10
251.000000
 20
115.500000
 42
-0.034176
  0
VERTEX
  8
0
 10
250.234655
 20
116.294184
 42
-0.034530
  0
VERTEX
  8
0
 10
249.587500
 20
117.182612
 42
-0.036698
  0
VERTEX
  8
0
 10
249.137228
 20
118.032597
 42
-0.103819
  0
VERTEX
  8
0
 10
249.000000
 20
118.686372
 42
0.097339
  0
VERTEX
  8
0
 10
248.888130
 20
119.255567
 42
0.066866
  0
VERTEX
  8
0
 10
248.559375
 20
119.827537
 42
0.064164
  0
VERTEX
  8
0
 10
248.073435
 20
120.315469
 42
0.073352
  0
VERTEX
  8
0
 10
247.500000
 20
120.638374
 42
-0.098143
  0
VERTEX
  8
0
 10
246.926463
 20
120.999607
 42
-0.066864
  0
VERTEX
  8
0
 10
246.440625
 20
121.600966
 42
-0.064008
  0
VERTEX
  8
0
 10
246.112085
 20
122.340293
 42
-0.072710
  0
VERTEX
  8
0
 10
246.000000
 20
123.106989
 42
0.050854
  0
VERTEX
  8
0
 10
245.926137
 20
123.831332
 42
0.070807
  0
VERTEX
  8
0
 10
245.706250
 20
124.443928
 42
0.090900
  0
VERTEX
  8
0
 10
245.381715
 20
124.855843
 42
0.182536
  0
VERTEX
  8
0
 10
245.000000
 20
125.000000
 42
-0.186612
  0
VERTEX
  8
0
 10
244.618209
 20
125.147635
 42
-0.089644
  0
VERTEX
  8
0
 10
244.293750
 20
125.570893
 42
-0.069475
  0
VERTEX
  8
0
 10
244.073780
 20
126.199751
 42
-0.049481
  0
VERTEX
  8
0
 10
244.000000
 20
126.943464
 42
0.117359
  0
VERTEX
  8
0
 10
243.790037
 20
127.825671
 42
0.052597
  0
VERTEX
  8
0
 10
243.140298
 20
128.834025
 42
0.047213
  0
VERTEX
  8
0
 10
242.179732
 20
129.820975
 42
0.042782
  0
VERTEX
  8
0
 10
241.020372
 20
130.647037
 42
-0.058533
  0
VERTEX
  8
0
 10
239.252563
 20
131.992320
 42
-0.362851
  0
VERTEX
  8
0
 10
239.139425
 20
133.043538
 42
-0.215934
  0
VERTEX
  8
0
 10
240.330940
 20
133.784789
 42
-0.031413
  0
VERTEX
  8
0
 10
243.250000
 20
133.984687
 42
0.037650
  0
VERTEX
  8
0
 10
244.520961
 20
134.087647
 42
0.104661
  0
VERTEX
  8
0
 10
245.353595
 20
134.405492
 42
0.147155
  0
VERTEX
  8
0
 10
245.821780
 20
134.955331
 42
0.105867
  0
VERTEX
  8
0
 10
245.984687
 20
135.750000
 42
0.102088
  0
VERTEX
  8
0
 10
245.548215
 20
137.775719
 42
0.163141
  0
VERTEX
  8
0
 10
244.366877
 20
139.071778
 42
0.086799
  0
VERTEX
  8
0
 10
242.029445
 20
139.885685
 42
0.016114
  0
VERTEX
  8
0
 10
237.500000
 20
140.476399
 42
-0.005548
  0
VERTEX
  8
0
 10
230.455295
 20
141.244154
 42
-0.091316
  0
VERTEX
  8
0
 10
228.204214
 20
141.944885
 42
-0.255293
  0
VERTEX
  8
0
 10
227.355453
 20
143.220847
 42
-0.068236
  0
VERTEX
  8
0
 10
227.479606
 20
145.742983
 42
0.056511
  0
VERTEX
  8
0
 10
227.669889
 20
148.361414
 42
0.189762
  0
VERTEX
  8
0
 10
226.988716
 20
149.905688
 42
0.158499
  0
VERTEX
  8
0
 10
225.332826
 20
150.738349
 42
0.036747
  0
VERTEX
  8
0
 10
222.184259
 20
150.984687
 42
-0.045830
  0
VERTEX
  8
0
 10
219.252199
 20
151.267664
 42
-0.080449
  0
VERTEX
  8
0
 10
216.967472
 20
152.097413
 42
-0.109159
  0
VERTEX
  8
0
 10
215.522545
 20
153.381094
 42
-0.158038
  0
VERTEX
  8
0
 10
215.000000
 20
154.993030
 42
0.141593
  0
VERTEX
  8
0
 10
214.715940
 20
155.976002
 42
0.054093
  0
VERTEX
  8
0
 10
213.821967
 20
157.102741
 42
0.042243
  0
VERTEX
  8
0
 10
212.408452
 20
158.311733
 42
0.023265
  0
VERTEX
  8
0
 10
210.500000
 20
159.552868
 42
-0.022342
  0
VERTEX
  8
0
 10
208.776832
 20
160.668988
 42
-0.029571
  0
VERTEX
  8
0
 10
207.321875
 20
161.842112
 42
-0.029950
  0
VERTEX
  8
0
 10
206.268931
 20
162.921013
 42
-0.180250
  0
VERTEX
  8
0
 10
206.000000
 20
163.642771
 42
0.175606
  0
VERTEX
  8
0
 10
205.324365
 20
165.507167
 42
0.049284
  0
VERTEX
  8
0
 10
203.080739
 20
167.713299
 42
0.048528
  0
VERTEX
  8
0
 10
200.197270
 20
169.608659
 42
0.074909
  0
VERTEX
  8
0
 10
197.385422
 20
170.587473
 42
-0.041116
  0
VERTEX
  8
0
 10
195.565421
 20
171.086535
 42
-0.107474
  0
VERTEX
  8
0
 10
194.425517
 20
171.807474
 42
-0.096506
  0
VERTEX
  8
0
 10
193.617667
 20
172.987515
 42
-0.029208
  0
VERTEX
  8
0
 10
192.871011
 20
175.036189
 42
0.036140
  0
VERTEX
  8
0
 10
192.230545
 20
176.720622
 42
0.021265
  0
VERTEX
  8
0
 10
191.238804
 20
178.634372
 42
0.021202
  0
VERTEX
  8
0
 10
190.078861
 20
180.472091
 42
0.033691
  0
VERTEX
  8
0
 10
188.920180
 20
181.926249
 42
-0.015795
  0
VERTEX
  8
0
 10
187.744123
 20
183.298498
 42
-0.064935
  0
VERTEX
  8
0
 10
187.175557
 20
184.231527
 42
-0.212343
  0
VERTEX
  8
0
 10
187.176012
 20
184.753118
 42
-0.296087
  0
VERTEX
  8
0
 10
187.556371
 20
185.000000
 42
0.066673
  0
VERTEX
  8
0
 10
188.108216
 20
185.073915
 42
0.083684
  0
VERTEX
  8
0
 10
188.575934
 20
185.290279
 42
0.099414
  0
VERTEX
  8
0
 10
188.888738
 20
185.611345
 42
0.144541
  0
VERTEX
  8
0
 10
189.000000
 20
185.988182
 42
-0.265319
  0
VERTEX
  8
0
 10
189.240986
 20
186.410357
 42
-0.036930
  0
VERTEX
  8
0
 10
190.178986
 20
186.874614
 42
-0.034242
  0
VERTEX
  8
0
 10
191.475802
 20
187.300498
 42
-0.022576
  0
VERTEX
  8
0
 10
193.013570
 20
187.618161
 42
0.025090
  0
VERTEX
  8
0
 10
195.118961
 20
188.064123
 42
0.089061
  0
VERTEX
  8
0
 10
196.364529
 20
188.645282
 42
0.118868
  0
VERTEX
  8
0
 10
197.133400
 20
189.521990
 42
0.063571
  0
VERTEX
  8
0
 10
197.638919
 20
190.879978
 42
-0.061954
  0
VERTEX
  8
0
 10
198.098555
 20
192.126979
 42
-0.022692
  0
VERTEX
  8
0
 10
199.037618
 20
193.758494
 42
-0.022086
  0
VERTEX
  8
0
 10
200.236784
 20
195.467644
 42
-0.024656
  0
VERTEX
  8
0
 10
201.541354
 20
197.000000
 42
0.035566
  0
VERTEX
  8
0
 10
203.091530
 20
198.903390
 42
0.011550
  0
VERTEX
  8
0
 10
205.109363
 20
201.921799
 42
0.011448
  0
VERTEX
  8
0
 10
207.204068
 20
205.390417
 42
0.012638
  0
VERTEX
  8
0
 10
209.066846
 20
208.840166
 42
-0.012873
  0
VERTEX
  8
0
 10
210.994766
 20
212.406536
 42
-0.022293
  0
VERTEX
  8
0
 10
212.800997
 20
215.250053
 42
-0.025178
  0
VERTEX
  8
0
 10
214.410437
 20
217.320239
 42
-0.108446
  0
VERTEX
  8
0
 10
215.650841
 20
218.250681
 42
0.111695
  0
VERTEX
  8
0
 10
217.375381
 20
219.561666
 42
0.201913
  0
VERTEX
  8
0
 10
217.890688
 20
221.228295
 42
0.170944
  0
VERTEX
  8
0
 10
217.073800
 20
222.976090
 42
0.079597
  0
VERTEX
  8
0
 10
215.034411
 20
224.482205
 42
-0.077726
  0
VERTEX
  8
0
 10
213.102728
 20
225.897704
 42
-0.260741
  0
VERTEX
  8
0
 10
212.694524
 20
227.354816
 42
-0.168366
  0
VERTEX
  8
0
 10
213.726035
 20
228.962050
 42
-0.033403
  0
VERTEX
  8
0
 10
216.589304
 20
230.920190
 42
0.054236
  0
VERTEX
  8
0
 10
218.923157
 20
232.662970
 42
0.166647
  0
VERTEX
  8
0
 10
219.839798
 20
234.378355
 42
0.187697
  0
VERTEX
  8
0
 10
219.459583
 20
236.157185
 42
0.071426
  0
VERTEX
  8
0
 10
217.750000
 20
238.089707
 42
0.000000
  0
VERTEX
  8
0
 10
215.500000
 20
240.000000
 42
0.000000
  0
VERTEX
  8
0
 10
217.750000
 20
241.910293
 42
0.037067
  0
VERTEX
  8
0
 10
218.610962
 20
242.758649
 42
0.036851
  0
VERTEX
  8
0
 10
219.339063
 20
243.726413
 42
0.039337
  0
VERTEX
  8
0
 10
219.843775
 20
244.666521
 42
0.103889
  0
VERTEX
  8
0
 10
220.000000
 20
245.410293
 42
0.124156
  0
VERTEX
  8
0
 10
219.836511
 20
246.058545
 42
0.108108
  0
VERTEX
  8
0
 10
219.379432
 20
246.590886
 42
0.089969
  0
VERTEX
  8
0
 10
218.660906
 20
246.952701
 42
0.060018
  0
VERTEX
  8
0
 10
217.750000
 20
247.106381
 42
-0.007639
  0
VERTEX
  8
0
 10
216.378102
 20
247.192268
 42
-0.511069
  0
VERTEX
  8
0
 10
216.273069
 20
247.364326
 42
-0.198654
  0
VERTEX
  8
0
 10
216.508318
 20
247.597858
 42
-0.003304
  0
VERTEX
  8
0
 10
218.250000
 20
248.299422
 42
0.039729
  0
VERTEX
  8
0
 10
219.302338
 20
248.815223
 42
0.047753
  0
VERTEX
  8
0
 10
220.192187
 20
249.464822
 42
0.054704
  0
VERTEX
  8
0
 10
220.806833
 20
250.144112
 42
0.157836
  0
VERTEX
  8
0
 10
221.000000
 20
250.740791
 42
-0.118914
  0
VERTEX
  8
0
 10
221.162562
 20
251.414654
 42
-0.031100
  0
VERTEX
  8
0
 10
221.734375
 20
252.378148
 42
-0.029792
  0
VERTEX
  8
0
 10
222.543127
 20
253.425921
 42
-0.026622
  0
VERTEX
  8
0
 10
223.500000
 20
254.412420
 42
0.015311
  0
VERTEX
  8
0
 10
224.457424
 20
255.355834
 42
0.020280
  0
VERTEX
  8
0
 10
225.265625
 20
256.274356
 42
0.018073
  0
VERTEX
  8
0
 10
225.866925
 20
257.073758
 42
0.153375
  0
VERTEX
  8
0
 10
226.000000
 20
257.497375
 42
-0.141525
  0
VERTEX
  8
0
 10
226.114875
 20
257.895091
 42
-0.026111
  0
VERTEX
  8
0
 10
226.559427
 20
258.524987
 42
-0.026177
  0
VERTEX
  8
0
 10
227.175311
 20
259.228428
 42
-0.021222
  0
VERTEX
  8
0
 10
227.904431
 20
259.917113
 42
0.069239
  0
VERTEX
  8
0
 10
228.877008
 20
261.030291
 42
0.010207
  0
VERTEX
  8
0
 10
230.467474
 20
263.570397
 42
0.011350
  0
VERTEX
  8
0
 10
232.228217
 20
266.672107
 42
0.009537
  0
VERTEX
  8
0
 10
233.955376
 20
270.034409
 42
-0.000655
  0
VERTEX
  8
0
 10
235.604624
 20
273.390396
 42
-0.000843
  0
VERTEX
  8
0
 10
237.130200
 20
276.471371
 42
-0.000643
  0
VERTEX
  8
0
 10
238.416814
 20
279.050450
 42
-0.007335
  0
VERTEX
  8
0
 10
238.940524
 20
280.059620
 42
0.046973
  0
VERTEX
  8
0
 10
239.334598
 20
280.993027
 42
0.008329
  0
VERTEX
  8
0
 10
239.876017
 20
282.814322
 42
0.008948
  0
VERTEX
  8
0
 10
240.438696
 20
284.978182
 42
0.007954
  0
VERTEX
  8
0
 10
240.947524
 20
287.247226
 42
0.057083
  0
VERTEX
  8
0
 10
241.436507
 20
292.626686
 42
0.120673
  0
VERTEX
  8
0
 10
240.352267
 20
296.644523
 42
0.153840
  0
VERTEX
  8
0
 10
237.772939
 20
299.104637
 42
0.114613
  0
VERTEX
  8
0
 10
233.918213
 20
300.000000
 42
0.078953
  0
VERTEX
  8
0
 10
233.094591
 20
299.869130
 42
0.123399
  0
VERTEX
  8
0
 10
232.489777
 20
299.489341
 42
0.119873
  0
VERTEX
  8
0
 10
232.124377
 20
298.859829
 42
0.071952
  0
SEQEND
  0
POLYLINE
  8
0
 66
1
 70
1
  0
VERTEX
  8
0
 10
80.683114
 20
145.812500
 42
-0.054073
  0
VERTEX
  8
0
 10
80.461564
 20
145.395823
 42
-0.470617
  0
VERTEX
  8
0
 10
80.279315
 20
145.378580
 42
-0.168741
  0
VERTEX
  8
0
 10
80.137993
 20
145.670344
 42
-0.018894
  0
VERTEX
  8
0
 10
80.078947
 20
146.416667
 42
-0.028489
  0
VERTEX
  8
0
 10
80.089945
 20
147.112848
 42
-0.077125
  0
VERTEX
  8
0
 10
80.200665
 20
147.592839
 42
-0.208169
  0
VERTEX
  8
0
 10
80.385309
 20
147.775380
 42
-0.296942
  0
VERTEX
  8
0
 10
80.604167
 20
147.729167
 42
-0.126455
  0
VERTEX
  8
0
 10
80.797407
 20
147.402231
 42
-0.060344
  0
VERTEX
  8
0
 10
80.876576
 20
146.916927
 42
-0.054150
  0
VERTEX
  8
0
 10
80.839148
 20
146.359369
 42
-0.051402
  0
SEQEND
  0
POLYLINE
  8
0
 66
1
 70
1
  0
VERTEX
  8
0
 10
128.000000
 20
117.000000
 42
-0.105053
  0
VERTEX
  8
0
 10
127.918938
 20
116.618444
 42
-0.099167
  0
VERTEX
  8
0
 10
127.688914
 20
116.293750
 42
-0.096420
  0
VERTEX
  8
0
 10
127.345238
 20
116.076123
 42
-0.093332
  0
VERTEX
  8
0
 10
126.940983
 20
116.000000
 42
-0.108972
  0
VERTEX
  8
0
 10
126.586039
 20
116.078288
 42
-0.182303
  0
VERTEX
  8
0
 10
126.374600
 20
116.293750
 42
-0.161196
  0
VERTEX
  8
0
 10
126.343488
 20
116.617900
 42
-0.082592
  0
VERTEX
  8
0
 10
126.500000
 20
117.000000
 42
-0.029505
  0
VERTEX
  8
0
 10
126.768994
 20
117.382774
 42
-0.035638
  0
VERTEX
  8
0
 10
127.066025
 20
117.706250
 42
-0.038439
  0
VERTEX
  8
0
 10
127.348290
 20
117.934461
 42
-0.151918
  0
VERTEX
  8
0
 10
127.559017
 20
118.000000
 42
-0.210953
  0
VERTEX
  8
0
 10
127.727648
 20
117.925540
 42
-0.081139
  0
VERTEX
  8
0
 10
127.870461
 20
117.706250
 42
-0.061769
  0
VERTEX
  8
0
 10
127.967655
 20
117.382849
 42
-0.042167
  0
SEQEND
  0
ENDSEC
  0
EOF
