  0
SECTION
  2
HEADER
  9
$ACADVER
  1
AC1006
  9
$EXTMIN
 10
0.000000
 20
0.000000
 30
0.000000
  9
$EXTMAX
 10
95.000000
 20
109.000000
 30
0.000000
  0
ENDSEC
  0
SECTION
  2
ENTITIES
  0
POLYLINE
  8
0
 66
1
 70
1
  0
VERTEX
  8
0
 10
42.750000
 20
108.435947
 42
0.136338
  0
VERTEX
  8
0
 10
42.457691
 20
107.903040
 42
0.019784
  0
VERTEX
  8
0
 10
42.220312
 20
106.676273
 42
0.021184
  0
VERTEX
  8
0
 10
42.054900
 20
105.167705
 42
0.016714
  0
VERTEX
  8
0
 10
42.000000
 20
103.525834
 42
-0.032891
  0
VERTEX
  8
0
 10
41.839616
 20
101.090334
 42
-0.103636
  0
VERTEX
  8
0
 10
41.299534
 20
99.554026
 42
-0.085333
  0
VERTEX
  8
0
 10
40.125865
 20
98.201842
 42
-0.017931
  0
VERTEX
  8
0
 10
37.623578
 20
96.300214
 42
0.068383
  0
VERTEX
  8
0
 10
34.463034
 20
93.352692
 42
0.032864
  0
VERTEX
  8
0
 10
31.244971
 20
88.825922
 42
0.032030
  0
VERTEX
  8
0
 10
28.736077
 20
84.102435
 42
0.106454
  0
VERTEX
  8
0
 10
28.000000
 20
80.684370
 42
-0.083728
  0
VERTEX
  8
0
 10
27.891801
 20
80.042762
 42
-0.043887
  0
VERTEX
  8
0
 10
27.559375
 20
79.302051
 42
-0.042042
  0
VERTEX
  8
0
 10
27.073954
 20
78.582680
 42
-0.050151
  0
VERTEX
  8
0
 10
26.500000
 20
78.000000
 42
0.107188
  0
VERTEX
  8
0
 10
25.900254
 20
77.234394
 42
0.042913
  0
VERTEX
  8
0
 10
25.422279
 20
75.984221
 42
0.038309
  0
VERTEX
  8
0
 10
25.105757
 20
74.445116
 42
0.031572
  0
VERTEX
  8
0
 10
25.000000
 20
72.771900
 42
-0.043286
  0
VERTEX
  8
0
 10
24.617554
 20
68.362480
 42
-0.020123
  0
VERTEX
  8
0
 10
23.400860
 20
62.744451
 42
-0.015353
  0
VERTEX
  8
0
 10
21.860343
 20
57.471070
 42
-0.145200
  0
VERTEX
  8
0
 10
20.538687
 20
55.552872
 42
0.115032
  0
VERTEX
  8
0
 10
19.999066
 20
54.861354
 42
0.027377
  0
VERTEX
  8
0
 10
19.455359
 20
53.495499
 42
0.026727
  0
VERTEX
  8
0
 10
18.989604
 20
51.816911
 42
0.023618
  0
VERTEX
  8
0
 10
18.682466
 20
50.027551
 42
-0.030813
  0
VERTEX
  8
0
 10
18.254546
 20
47.732918
 42
-0.058062
  0
VERTEX
  8
0
 10
17.588258
 20
45.973287
 42
-0.061699
  0
VERTEX
  8
0
 10
16.566883
 20
44.484198
 42
-0.039583
  0
VERTEX
  8
0
 10
15.056305
 20
43.027551
 42
0.033780
  0
VERTEX
  8
0
 10
13.880495
 20
41.919732
 42
0.035681
  0
VERTEX
  8
0
 10
12.887704
 20
40.682695
 42
0.038204
  0
VERTEX
  8
0
 10
12.197123
 20
39.500260
 42
0.114739
  0
VERTEX
  8
0
 10
11.990985
 20
38.594391
 42
-0.126054
  0
VERTEX
  8
0
 10
11.523600
 20
36.733368
 42
-0.025154
  0
VERTEX
  8
0
 10
9.726591
 20
33.783466
 42
-0.023564
  0
VERTEX
  8
0
 10
7.104940
 20
30.295604
 42
-0.015185
  0
VERTEX
  8
0
 10
3.762195
 20
26.500000
 42
0.112457
  0
VERTEX
  8
0
 10
0.512823
 20
20.934273
 42
0.263337
  0
VERTEX
  8
0
 10
1.485872
 20
16.380638
 42
0.120669
  0
VERTEX
  8
0
 10
7.315096
 20
12.348717
 42
0.020947
  0
VERTEX
  8
0
 10
20.111527
 20
8.064749
 42
0.008096
  0
VERTEX
  8
0
 10
24.435348
 20
6.891474
 42
0.008956
  0
VERTEX
  8
0
 10
28.652182
 20
5.900270
 42
0.008432
  0
VERTEX
  8
0
 10
32.275183
 20
5.180576
 42
0.044838
  0
VERTEX
  8
0
 10
34.284802
 20
5.000000
 42
-0.046086
  0
VERTEX
  8
0
 10
36.015174
 20
4.840169
 42
-0.045350
  0
VERTEX
  8
0
 10
37.696753
 20
4.365983
 42
-0.044166
  0
VERTEX
  8
0
 10
39.305072
 20
3.581596
 42
-0.039387
  0
VERTEX
  8
0
 10
40.817631
 20
2.500000
 42
0.087690
  0
VERTEX
  8
0
 10
43.886828
 20
0.724009
 42
0.076095
  0
VERTEX
  8
0
 10
47.536087
 20
-0.007156
 42
0.077952
  0
VERTEX
  8
0
 10
51.153462
 20
0.391435
 42
0.100633
  0
VERTEX
  8
0
 10
54.132007
 20
1.889197
 42
-0.077664
  0
VERTEX
  8
0
 10
55.810960
 20
2.831644
 42
-0.036809
  0
VERTEX
  8
0
 10
58.200137
 20
3.526170
 42
-0.025188
  0
VERTEX
  8
0
 10
61.576457
 20
4.067408
 42
-0.008607
  0
VERTEX
  8
0
 10
66.516866
 20
4.520087
 42
0.028532
  0
VERTEX
  8
0
 10
77.919866
 20
6.024876
 42
0.051046
  0
VERTEX
  8
0
 10
86.967617
 20
8.727382
 42
0.069511
  0
VERTEX
  8
0
 10
92.966899
 20
12.251014
 42
0.224237
  0
VERTEX
  8
0
 10
94.966731
 20
16.289838
 42
0.100595
  0
VERTEX
  8
0
 10
94.585209
 20
18.363725
 42
0.017213
  0
VERTEX
  8
0
 10
92.953779
 20
22.047880
 42
0.019804
  0
VERTEX
  8
0
 10
90.910171
 20
25.871012
 42
0.033148
  0
VERTEX
  8
0
 10
88.862552
 20
28.884859
 42
-0.046446
  0
VERTEX
  8
0
 10
88.149245
 20
29.997188
 42
-0.031965
  0
VERTEX
  8
0
 10
87.547125
 20
31.369461
 42
-0.032305
  0
VERTEX
  8
0
 10
87.134612
 20
32.777546
 42
-0.055156
  0
VERTEX
  8
0
 10
87.000000
 20
33.994128
 42
0.082054
  0
VERTEX
  8
0
 10
86.770552
 20
35.382870
 42
0.032154
  0
VERTEX
  8
0
 10
86.026814
 20
37.183153
 42
0.029300
  0
VERTEX
  8
0
 10
84.910890
 20
39.156623
 42
0.024609
  0
VERTEX
  8
0
 10
83.509706
 20
41.109269
 42
-0.024299
  0
VERTEX
  8
0
 10
82.075122
 20
43.105847
 42
-0.031002
  0
VERTEX
  8
0
 10
80.964056
 20
45.080676
 42
-0.034818
  0
VERTEX
  8
0
 10
80.241406
 20
46.885316
 42
-0.077119
  0
VERTEX
  8
0
 10
80.009706
 20
48.345708
 42
0.039904
  0
VERTEX
  8
0
 10
79.902815
 20
49.627859
 42
0.023389
  0
VERTEX
  8
0
 10
79.581995
 20
51.135187
 42
0.023290
  0
VERTEX
  8
0
 10
79.117003
 20
52.622295
 42
0.036349
  0
VERTEX
  8
0
 10
78.567299
 20
53.845708
 42
-0.035924
  0
VERTEX
  8
0
 10
76.763307
 20
57.851556
 42
-0.025258
  0
VERTEX
  8
0
 10
75.298065
 20
62.574641
 42
-0.025327
  0
VERTEX
  8
0
 10
74.321780
 20
67.399033
 42
-0.037273
  0
VERTEX
  8
0
 10
74.000000
 20
71.709524
 42
0.015582
  0
VERTEX
  8
0
 10
73.921008
 20
74.243662
 42
0.046403
  0
VERTEX
  8
0
 10
73.653068
 20
75.957758
 42
0.074611
  0
VERTEX
  8
0
 10
73.190547
 20
77.061726
 42
0.166179
  0
VERTEX
  8
0
 10
72.500000
 20
77.638374
 42
-0.058866
  0
VERTEX
  8
0
 10
71.926408
 20
77.939918
 42
-0.059349
  0
VERTEX
  8
0
 10
71.440625
 20
78.366119
 42
-0.065262
  0
VERTEX
  8
0
 10
71.110701
 20
78.846572
 42
-0.118399
  0
VERTEX
  8
0
 10
71.000000
 20
79.307509
 42
0.072938
  0
VERTEX
  8
0
 10
70.470913
 20
82.915175
 42
0.027005
  0
VERTEX
  8
0
 10
68.728767
 20
87.759363
 42
0.026541
  0
VERTEX
  8
0
 10
66.505934
 20
92.334073
 42
0.086320
  0
VERTEX
  8
0
 10
64.400266
 20
94.950871
 42
-0.031321
  0
VERTEX
  8
0
 10
62.746584
 20
96.598683
 42
-0.083890
  0
VERTEX
  8
0
 10
61.870264
 20
98.005276
 42
-0.078254
  0
VERTEX
  8
0
 10
61.471873
 20
99.679664
 42
-0.024800
  0
VERTEX
  8
0
 10
61.400266
 20
102.253773
 42
0.015755
  0
VERTEX
  8
0
 10
61.382663
 20
104.063028
 42
0.020587
  0
VERTEX
  8
0
 10
61.246485
 20
105.711851
 42
0.018646
  0
VERTEX
  8
0
 10
61.029418
 20
107.049600
 42
0.147808
  0
VERTEX
  8
0
 10
60.736703
 20
107.596223
 42
0.181019
  0
VERTEX
  8
0
 10
59.110969
 20
108.336915
 42
0.005673
  0
VERTEX
  8
0
 10
51.699944
 20
108.767224
 42
0.005191
  0
VERTEX
  8
0
 10
44.231606
 20
109.038223
 42
0.208958
  0
SEQEND
  0
ENDSEC
  0
EOF
