  0
SECTION
  2
HEADER
  9
$ACADVER
  1
AC1006
  9
$EXTMIN
 10
0.000000
 20
0.000000
 30
0.000000
  9
$EXTMAX
 10
175.000000
 20
257.000000
 30
0.000000
  0
ENDSEC
  0
SECTION
  2
ENTITIES
  0
POLYLINE
  8
0
 66
1
 70
1
  0
VERTEX
  8
0
 10
81.500000
 20
255.308350
 42
0.041236
  0
VERTEX
  8
0
 10
77.620486
 20
252.792150
 42
0.017347
  0
VERTEX
  8
0
 10
72.831093
 20
248.819161
 42
0.015735
  0
VERTEX
  8
0
 10
68.467026
 20
244.682517
 42
0.076003
  0
VERTEX
  8
0
 10
66.462111
 20
241.926731
 42
0.039991
  0
VERTEX
  8
0
 10
64.827124
 20
238.030437
 42
0.045856
  0
VERTEX
  8
0
 10
63.923881
 20
234.097070
 42
0.051205
  0
VERTEX
  8
0
 10
63.811476
 20
230.558314
 42
0.102022
  0
VERTEX
  8
0
 10
64.566323
 20
227.871746
 42
-0.037078
  0
VERTEX
  8
0
 10
65.115851
 20
226.583237
 42
-0.022651
  0
VERTEX
  8
0
 10
65.578857
 20
224.995286
 42
-0.022648
  0
VERTEX
  8
0
 10
65.896422
 20
223.371435
 42
-0.036976
  0
VERTEX
  8
0
 10
66.000000
 20
221.972737
 42
-0.118416
  0
VERTEX
  8
0
 10
65.276566
 20
218.960945
 42
-0.072988
  0
VERTEX
  8
0
 10
63.156836
 20
215.974029
 42
-0.073812
  0
VERTEX
  8
0
 10
60.301373
 20
213.755445
 42
-0.129003
  0
VERTEX
  8
0
 10
57.422087
 20
213.000000
 42
0.151664
  0
VERTEX
  8
0
 10
54.535526
 20
212.103810
 42
0.048595
  0
VERTEX
  8
0
 10
51.059256
 20
209.180641
 42
0.048553
  0
VERTEX
  8
0
 10
48.074851
 20
205.470924
 42
0.096054
  0
VERTEX
  8
0
 10
46.647613
 20
201.988067
 42
0.023830
  0
VERTEX
  8
0
 10
46.397992
 20
200.333569
 42
0.008164
  0
VERTEX
  8
0
 10
46.190236
 20
197.917209
 42
0.008093
  0
VERTEX
  8
0
 10
46.047501
 20
195.239483
 42
0.009267
  0
VERTEX
  8
0
 10
46.000000
 20
192.676899
 42
-0.030929
  0
VERTEX
  8
0
 10
45.329361
 20
181.845731
 42
-0.014292
  0
VERTEX
  8
0
 10
43.187948
 20
167.890228
 42
-0.014306
  0
VERTEX
  8
0
 10
40.242936
 20
154.035644
 42
-0.029906
  0
VERTEX
  8
0
 10
37.008658
 20
143.500000
 42
0.020820
  0
VERTEX
  8
0
 10
35.048324
 20
137.504542
 42
0.010111
  0
VERTEX
  8
0
 10
33.021244
 20
129.701312
 42
0.010068
  0
VERTEX
  8
0
 10
31.256938
 20
121.575304
 42
0.015654
  0
VERTEX
  8
0
 10
30.098003
 20
114.500000
 42
-0.023093
  0
VERTEX
  8
0
 10
29.573945
 20
111.574069
 42
-0.009221
  0
VERTEX
  8
0
 10
28.598267
 20
107.618750
 42
-0.009102
  0
VERTEX
  8
0
 10
27.387842
 20
103.385317
 42
-0.011332
  0
VERTEX
  8
0
 10
26.103064
 20
99.500000
 42
0.002164
  0
VERTEX
  8
0
 10
24.777244
 20
95.724261
 42
0.001977
  0
VERTEX
  8
0
 10
23.443151
 20
91.821875
 42
0.001976
  0
VERTEX
  8
0
 10
22.279060
 20
88.326734
 42
0.006445
  0
VERTEX
  8
0
 10
21.547410
 20
86.000000
 42
-0.013791
  0
VERTEX
  8
0
 10
20.788358
 20
83.704529
 42
-0.004407
  0
VERTEX
  8
0
 10
19.535982
 20
80.333918
 42
-0.004393
  0
VERTEX
  8
0
 10
18.074519
 20
76.603043
 42
-0.004892
  0
VERTEX
  8
0
 10
16.597926
 20
73.030359
 42
0.004059
  0
VERTEX
  8
0
 10
15.219354
 20
69.710521
 42
0.005828
  0
VERTEX
  8
0
 10
14.056507
 20
66.746006
 42
0.003275
  0
VERTEX
  8
0
 10
13.122910
 20
64.232246
 42
0.087167
  0
VERTEX
  8
0
 10
12.998693
 20
63.530359
 42
-0.127067
  0
VERTEX
  8
0
 10
12.829681
 20
62.879454
 42
-0.007027
  0
VERTEX
  8
0
 10
11.774796
 20
61.040809
 42
-0.010501
  0
VERTEX
  8
0
 10
10.429087
 20
58.874845
 42
-0.007462
  0
VERTEX
  8
0
 10
8.834067
 20
56.502182
 42
0.020760
  0
VERTEX
  8
0
 10
5.251712
 20
50.854550
 42
0.024294
  0
VERTEX
  8
0
 10
2.348594
 20
45.211860
 42
0.018672
  0
VERTEX
  8
0
 10
0.374260
 20
40.398579
 42
0.423077
  0
VERTEX
  8
0
 10
0.960888
 20
39.179704
 42
-0.051849
  0
VERTEX
  8
0
 10
1.647853
 20
38.868500
 42
-0.004844
  0
VERTEX
  8
0
 10
3.244778
 20
37.914184
 42
-0.006181
  0
VERTEX
  8
0
 10
5.128481
 20
36.731358
 42
-0.004819
  0
VERTEX
  8
0
 10
7.146745
 20
35.401248
 42
0.012091
  0
VERTEX
  8
0
 10
9.186956
 20
34.098827
 42
0.015268
  0
VERTEX
  8
0
 10
11.137169
 20
32.999117
 42
0.013366
  0
VERTEX
  8
0
 10
12.804896
 20
32.180759
 42
0.107777
  0
VERTEX
  8
0
 10
13.633733
 20
32.000000
 42
-0.083506
  0
VERTEX
  8
0
 10
14.471631
 20
31.859078
 42
-0.011087
  0
VERTEX
  8
0
 10
16.161683
 20
31.231751
 42
-0.012590
  0
VERTEX
  8
0
 10
18.146483
 20
30.386087
 42
-0.010268
  0
VERTEX
  8
0
 10
20.227568
 20
29.384683
 42
0.019215
  0
VERTEX
  8
0
 10
25.212771
 20
27.094753
 42
0.015627
  0
VERTEX
  8
0
 10
30.712434
 20
25.018872
 42
0.014700
  0
VERTEX
  8
0
 10
35.750654
 20
23.458859
 42
0.065156
  0
VERTEX
  8
0
 10
38.815741
 20
23.024588
 42
-0.035168
  0
VERTEX
  8
0
 10
39.840824
 20
22.941452
 42
-0.022727
  0
VERTEX
  8
0
 10
41.009084
 20
22.708671
 42
-0.022845
  0
VERTEX
  8
0
 10
42.135853
 20
22.375116
 42
-0.039497
  0
VERTEX
  8
0
 10
43.030546
 20
21.983652
 42
0.065271
  0
VERTEX
  8
0
 10
46.829416
 20
20.549239
 42
0.004077
  0
VERTEX
  8
0
 10
58.558221
 20
17.895318
 42
0.004840
  0
VERTEX
  8
0
 10
70.186229
 20
15.481350
 42
0.048792
  0
VERTEX
  8
0
 10
75.107204
 20
15.000000
 42
0.000000
  0
VERTEX
  8
0
 10
79.000000
 20
15.000000
 42
0.000000
  0
VERTEX
  8
0
 10
79.000000
 20
10.423077
 42
0.128284
  0
VERTEX
  8
0
 10
80.524694
 20
4.578227
 42
0.157265
  0
VERTEX
  8
0
 10
84.639676
 20
0.756454
 42
0.165168
  0
VERTEX
  8
0
 10
90.048272
 20
0.163940
 42
0.142741
  0
VERTEX
  8
0
 10
95.076923
 20
2.923077
 42
0.033517
  0
VERTEX
  8
0
 10
96.501439
 20
4.552541
 42
0.062532
  0
VERTEX
  8
0
 10
97.380957
 20
6.065825
 42
0.063916
  0
VERTEX
  8
0
 10
97.847630
 20
7.726685
 42
0.036582
  0
VERTEX
  8
0
 10
98.000000
 20
9.806500
 42
-0.052720
  0
VERTEX
  8
0
 10
98.285956
 20
12.510998
 42
-0.221816
  0
VERTEX
  8
0
 10
99.245179
 20
13.780029
 42
-0.070381
  0
VERTEX
  8
0
 10
101.491247
 20
14.590897
 42
-0.002512
  0
VERTEX
  8
0
 10
110.500000
 20
16.425521
 42
0.008131
  0
VERTEX
  8
0
 10
115.456286
 20
17.493011
 42
0.006119
  0
VERTEX
  8
0
 10
120.871027
 20
18.821766
 42
0.003629
  0
VERTEX
  8
0
 10
128.448098
 20
20.838542
 42
0.000787
  0
VERTEX
  8
0
 10
141.500000
 20
24.436278
 42
0.006031
  0
VERTEX
  8
0
 10
144.405978
 20
25.280110
 42
0.002560
  0
VERTEX
  8
0
 10
148.281448
 20
26.478033
 42
0.002532
  0
VERTEX
  8
0
 10
152.405469
 20
27.798939
 42
0.003314
  0
VERTEX
  8
0
 10
156.160247
 20
29.050169
 42
-0.006913
  0
VERTEX
  8
0
 10
159.632942
 20
30.179691
 42
-0.008501
  0
VERTEX
  8
0
 10
162.904999
 20
31.133487
 42
-0.007234
  0
VERTEX
  8
0
 10
165.670508
 20
31.846029
 42
-0.059495
  0
VERTEX
  8
0
 10
166.959907
 20
32.000000
 42
0.080454
  0
VERTEX
  8
0
 10
168.922816
 20
32.317906
 42
0.023616
  0
VERTEX
  8
0
 10
171.780267
 20
33.420782
 42
0.016413
  0
VERTEX
  8
0
 10
174.505512
 20
34.731836
 42
0.279338
  0
VERTEX
  8
0
 10
175.000000
 20
35.547878
 42
0.110716
  0
VERTEX
  8
0
 10
174.919162
 20
35.908473
 42
0.001094
  0
VERTEX
  8
0
 10
173.776416
 20
38.315460
 42
0.003528
  0
VERTEX
  8
0
 10
172.431143
 20
41.082718
 42
0.002272
  0
VERTEX
  8
0
 10
170.834609
 20
44.272197
 42
-0.010703
  0
VERTEX
  8
0
 10
169.147816
 20
47.788914
 42
-0.009228
  0
VERTEX
  8
0
 10
167.524067
 20
51.551833
 42
-0.009326
  0
VERTEX
  8
0
 10
166.177844
 20
55.019942
 42
-0.026418
  0
VERTEX
  8
0
 10
165.413950
 20
57.500000
 42
0.010754
  0
VERTEX
  8
0
 10
164.790325
 20
59.775635
 42
0.006125
  0
VERTEX
  8
0
 10
163.943894
 20
62.500000
 42
0.006114
  0
VERTEX
  8
0
 10
163.024178
 20
65.223150
 42
0.010058
  0
VERTEX
  8
0
 10
162.172221
 20
67.500000
 42
-0.002598
  0
VERTEX
  8
0
 10
161.322964
 20
69.670407
 42
-0.001970
  0
VERTEX
  8
0
 10
160.413264
 20
72.059375
 42
-0.001991
  0
VERTEX
  8
0
 10
159.577316
 20
74.308077
 42
-0.004644
  0
VERTEX
  8
0
 10
158.973781
 20
76.000000
 42
0.000529
  0
VERTEX
  8
0
 10
158.385745
 20
77.692366
 42
0.000230
  0
VERTEX
  8
0
 10
157.600733
 20
79.940625
 42
0.000227
  0
VERTEX
  8
0
 10
156.764123
 20
82.329643
 42
0.000303
  0
VERTEX
  8
0
 10
156.001503
 20
84.500000
 42
-0.008699
  0
VERTEX
  8
0
 10
153.676043
 20
91.491301
 42
-0.006116
  0
VERTEX
  8
0
 10
151.293477
 20
99.432502
 42
-0.006109
  0
VERTEX
  8
0
 10
149.232390
 20
106.966695
 42
-0.015489
  0
VERTEX
  8
0
 10
147.972726
 20
112.500000
 42
0.006718
  0
VERTEX
  8
0
 10
147.323368
 20
115.602929
 42
0.002070
  0
VERTEX
  8
0
 10
146.262443
 20
120.262500
 42
0.002071
  0
VERTEX
  8
0
 10
145.032334
 20
125.465684
 42
0.002272
  0
VERTEX
  8
0
 10
143.795889
 20
130.500000
 42
-0.005233
  0
VERTEX
  8
0
 10
142.547479
 20
135.716227
 42
-0.003948
  0
VERTEX
  8
0
 10
141.281235
 20
141.471875
 42
-0.003992
  0
VERTEX
  8
0
 10
140.177110
 20
146.900001
 42
-0.009212
  0
VERTEX
  8
0
 10
139.455308
 20
151.000000
 42
0.004359
  0
VERTEX
  8
0
 10
138.872278
 20
154.510938
 42
0.004286
  0
VERTEX
  8
0
 10
138.224961
 20
158.031250
 42
0.004218
  0
VERTEX
  8
0
 10
137.605078
 20
161.107289
 42
0.016272
  0
VERTEX
  8
0
 10
137.142235
 20
163.000000
 42
-0.037502
  0
VERTEX
  8
0
 10
136.195729
 20
167.732338
 42
-0.005604
  0
VERTEX
  8
0
 10
135.117723
 20
177.384391
 42
-0.006691
  0
VERTEX
  8
0
 10
134.257265
 20
187.291270
 42
-0.018316
  0
VERTEX
  8
0
 10
134.000000
 20
194.311819
 42
0.030295
  0
VERTEX
  8
0
 10
133.657759
 20
199.955185
 42
0.062414
  0
VERTEX
  8
0
 10
132.583141
 20
204.238564
 42
0.074533
  0
VERTEX
  8
0
 10
130.647884
 20
207.624323
 42
0.063708
  0
VERTEX
  8
0
 10
127.710956
 20
210.503646
 42
-0.007884
  0
VERTEX
  8
0
 10
125.943712
 20
211.886628
 42
-0.004778
  0
VERTEX
  8
0
 10
123.894250
 20
213.575859
 42
-0.004786
  0
VERTEX
  8
0
 10
121.891655
 20
215.291827
 42
-0.008398
  0
VERTEX
  8
0
 10
120.272951
 20
216.754597
 42
-0.019891
  0
VERTEX
  8
0
 10
118.271945
 20
218.779810
 42
-0.094519
  0
VERTEX
  8
0
 10
117.422831
 20
220.161242
 42
-0.102641
  0
VERTEX
  8
0
 10
117.177187
 20
221.702127
 42
-0.025584
  0
VERTEX
  8
0
 10
117.427193
 20
224.254597
 42
0.004121
  0
VERTEX
  8
0
 10
118.535517
 20
232.088195
 42
0.038810
  0
VERTEX
  8
0
 10
118.721247
 20
235.478492
 42
0.075353
  0
VERTEX
  8
0
 10
118.288034
 20
237.953591
 42
0.037029
  0
VERTEX
  8
0
 10
117.046542
 20
240.908770
 42
0.038695
  0
VERTEX
  8
0
 10
114.464809
 20
245.128235
 42
0.030838
  0
VERTEX
  8
0
 10
111.074903
 20
249.251430
 42
0.031676
  0
VERTEX
  8
0
 10
107.371746
 20
252.754959
 42
0.055715
  0
VERTEX
  8
0
 10
103.858052
 20
255.072417
 42
0.083528
  0
VERTEX
  8
0
 10
99.246989
 20
256.524462
 42
0.031974
  0
VERTEX
  8
0
 10
92.517688
 20
257.026577
 42
0.031678
  0
VERTEX
  8
0
 10
85.845002
 20
256.674047
 42
0.094489
  0
SEQEND
  0
ENDSEC
  0
EOF
