  0
SECTION
  2
HEADER
  9
$ACADVER
  1
AC1006
  9
$EXTMIN
 10
0.000000
 20
0.000000
 30
0.000000
  9
$EXTMAX
 10
189.000000
 20
252.000000
 30
0.000000
  0
ENDSEC
  0
SECTION
  2
ENTITIES
  0
POLYLINE
  8
0
 66
1
 70
1
  0
VERTEX
  8
0
 10
87.250000
 20
249.329692
 42
0.014657
  0
VERTEX
  8
0
 10
86.771512
 20
248.198878
 42
0.015279
  0
VERTEX
  8
0
 10
86.367188
 20
247.057402
 42
0.015122
  0
VERTEX
  8
0
 10
86.078526
 20
246.052131
 42
0.062427
  0
VERTEX
  8
0
 10
86.000000
 20
245.425635
 42
-0.295681
  0
VERTEX
  8
0
 10
85.414841
 20
244.522635
 42
-0.040698
  0
VERTEX
  8
0
 10
83.198104
 20
243.739774
 42
-0.037409
  0
VERTEX
  8
0
 10
80.201705
 20
243.184139
 42
-0.027149
  0
VERTEX
  8
0
 10
76.812897
 20
243.000000
 42
0.057298
  0
VERTEX
  8
0
 10
73.350237
 20
242.601889
 42
0.026693
  0
VERTEX
  8
0
 10
69.003220
 20
241.340988
 42
0.026637
  0
VERTEX
  8
0
 10
64.844272
 20
239.636541
 42
0.061669
  0
VERTEX
  8
0
 10
62.000000
 20
237.831890
 42
0.158438
  0
VERTEX
  8
0
 10
59.999703
 20
234.697088
 42
0.066948
  0
VERTEX
  8
0
 10
59.395023
 20
229.682296
 42
0.054601
  0
VERTEX
  8
0
 10
60.157991
 20
223.499935
 42
0.038597
  0
VERTEX
  8
0
 10
62.287665
 20
216.829445
 42
-0.013310
  0
VERTEX
  8
0
 10
64.290963
 20
211.500362
 42
-0.074266
  0
VERTEX
  8
0
 10
64.849991
 20
208.508117
 42
-0.160381
  0
VERTEX
  8
0
 10
64.303235
 20
206.618237
 42
-0.136742
  0
VERTEX
  8
0
 10
62.708771
 20
205.277076
 42
0.062180
  0
VERTEX
  8
0
 10
61.660241
 20
204.631725
 42
0.023892
  0
VERTEX
  8
0
 10
60.376033
 20
203.496956
 42
0.023215
  0
VERTEX
  8
0
 10
59.084575
 20
202.118709
 42
0.026443
  0
VERTEX
  8
0
 10
57.985006
 20
200.683069
 42
-0.040880
  0
VERTEX
  8
0
 10
56.552646
 20
198.920626
 42
-0.051859
  0
VERTEX
  8
0
 10
54.953298
 20
197.565257
 42
-0.047143
  0
VERTEX
  8
0
 10
52.987348
 20
196.478017
 42
-0.026559
  0
VERTEX
  8
0
 10
50.431616
 20
195.522309
 42
0.059951
  0
VERTEX
  8
0
 10
45.887640
 20
193.468518
 42
0.110031
  0
VERTEX
  8
0
 10
42.967068
 20
190.673475
 42
0.089129
  0
VERTEX
  8
0
 10
41.141055
 20
186.476645
 42
0.029769
  0
VERTEX
  8
0
 10
39.983600
 20
179.856204
 42
0.010035
  0
VERTEX
  8
0
 10
39.637564
 20
176.165782
 42
0.021171
  0
VERTEX
  8
0
 10
39.548191
 20
173.291839
 42
0.026144
  0
VERTEX
  8
0
 10
39.685628
 20
171.131177
 42
0.094176
  0
VERTEX
  8
0
 10
40.096490
 20
169.819707
 42
-0.069686
  0
VERTEX
  8
0
 10
40.447701
 20
168.864239
 42
-0.033933
  0
VERTEX
  8
0
 10
40.636215
 20
167.575640
 42
-0.032840
  0
VERTEX
  8
0
 10
40.652585
 20
166.184392
 42
-0.040600
  0
VERTEX
  8
0
 10
40.478122
 20
164.900389
 42
0.035570
  0
VERTEX
  8
0
 10
40.298327
 20
163.669934
 42
0.036666
  0
VERTEX
  8
0
 10
40.297484
 20
162.438978
 42
0.039288
  0
VERTEX
  8
0
 10
40.458861
 20
161.379455
 42
0.110788
  0
VERTEX
  8
0
 10
40.783006
 20
160.709041
 42
-0.212846
  0
VERTEX
  8
0
 10
41.857392
 20
156.529371
 42
-0.004689
  0
VERTEX
  8
0
 10
38.086868
 20
135.475102
 42
-0.011117
  0
VERTEX
  8
0
 10
33.777598
 20
115.139458
 42
-0.032910
  0
VERTEX
  8
0
 10
29.605483
 20
101.500000
 42
0.015705
  0
VERTEX
  8
0
 10
29.021260
 20
99.801219
 42
0.014042
  0
VERTEX
  8
0
 10
28.520716
 20
98.004843
 42
0.014236
  0
VERTEX
  8
0
 10
28.162453
 20
96.365807
 42
0.041897
  0
VERTEX
  8
0
 10
28.043893
 20
95.218615
 42
-0.059153
  0
VERTEX
  8
0
 10
27.917441
 20
94.304134
 42
-0.058562
  0
VERTEX
  8
0
 10
27.580259
 20
93.441370
 42
-0.064000
  0
VERTEX
  8
0
 10
27.094068
 20
92.756558
 42
-0.115302
  0
VERTEX
  8
0
 10
26.527200
 20
92.372064
 42
0.141945
  0
VERTEX
  8
0
 10
25.914131
 20
91.907539
 42
0.042278
  0
VERTEX
  8
0
 10
25.288057
 20
90.899715
 42
0.038657
  0
VERTEX
  8
0
 10
24.744793
 20
89.593311
 42
0.033386
  0
VERTEX
  8
0
 10
24.377027
 20
88.153449
 42
-0.055930
  0
VERTEX
  8
0
 10
23.341703
 20
84.747113
 42
-0.010201
  0
VERTEX
  8
0
 10
20.605843
 20
78.737556
 42
-0.007263
  0
VERTEX
  8
0
 10
17.614549
 20
72.732349
 42
-0.114921
  0
VERTEX
  8
0
 10
16.144456
 20
71.006367
 42
0.078384
  0
VERTEX
  8
0
 10
15.806498
 20
70.663298
 42
0.013954
  0
VERTEX
  8
0
 10
15.301201
 20
69.914370
 42
0.014784
  0
VERTEX
  8
0
 10
14.754563
 20
68.994250
 42
0.012855
  0
VERTEX
  8
0
 10
14.235946
 20
68.000000
 42
-0.011785
  0
VERTEX
  8
0
 10
12.758482
 20
65.152676
 42
-0.009240
  0
VERTEX
  8
0
 10
11.027490
 20
62.134317
 42
-0.009183
  0
VERTEX
  8
0
 10
9.171426
 20
59.157612
 42
-0.011083
  0
VERTEX
  8
0
 10
7.316489
 20
56.435008
 42
0.025207
  0
VERTEX
  8
0
 10
6.429039
 20
55.049953
 42
0.017768
  0
VERTEX
  8
0
 10
5.568525
 20
53.412670
 42
0.017987
  0
VERTEX
  8
0
 10
4.855919
 20
51.783784
 42
0.035602
  0
VERTEX
  8
0
 10
4.432180
 20
50.439005
 42
-0.024163
  0
VERTEX
  8
0
 10
4.073786
 20
49.203791
 42
-0.019820
  0
VERTEX
  8
0
 10
3.576391
 20
47.922708
 42
-0.020265
  0
VERTEX
  8
0
 10
3.023820
 20
46.780273
 42
-0.048829
  0
VERTEX
  8
0
 10
2.502954
 20
46.000000
 42
0.090777
  0
VERTEX
  8
0
 10
1.433119
 20
44.065347
 42
0.035698
  0
VERTEX
  8
0
 10
0.668635
 20
41.104858
 42
0.035828
  0
VERTEX
  8
0
 10
0.325637
 20
37.991209
 42
0.071119
  0
VERTEX
  8
0
 10
0.582630
 20
35.526797
 42
0.238072
  0
VERTEX
  8
0
 10
4.800518
 20
30.652680
 42
0.019407
  0
VERTEX
  8
0
 10
21.131749
 20
24.669136
 42
0.025637
  0
VERTEX
  8
0
 10
40.047393
 20
19.614359
 42
0.032179
  0
VERTEX
  8
0
 10
58.000000
 20
16.983143
 42
0.004862
  0
VERTEX
  8
0
 10
63.031277
 20
16.622949
 42
0.003511
  0
VERTEX
  8
0
 10
68.647717
 20
16.315292
 42
0.003546
  0
VERTEX
  8
0
 10
73.990834
 20
16.098190
 42
0.007691
  0
VERTEX
  8
0
 10
78.098613
 20
16.023682
 42
0.000000
  0
VERTEX
  8
0
 10
86.697225
 20
16.000000
 42
0.000000
  0
VERTEX
  8
0
 10
85.846019
 20
10.571922
 42
0.019139
  0
VERTEX
  8
0
 10
85.570327
 20
8.231900
 42
0.022020
  0
VERTEX
  8
0
 10
85.491721
 20
5.984897
 42
0.023651
  0
VERTEX
  8
0
 10
85.601041
 20
4.047196
 42
0.065009
  0
VERTEX
  8
0
 10
85.917218
 20
2.717733
 42
0.094749
  0
VERTEX
  8
0
 10
86.764387
 20
1.342929
 42
0.150025
  0
VERTEX
  8
0
 10
87.947883
 20
0.646666
 42
0.056609
  0
VERTEX
  8
0
 10
90.106164
 20
0.384552
 42
0.004892
  0
VERTEX
  8
0
 10
95.660307
 20
0.395812
 42
0.000000
  0
VERTEX
  8
0
 10
104.480991
 20
0.500000
 42
0.000000
  0
VERTEX
  8
0
 10
105.100603
 20
3.500000
 42
0.035158
  0
VERTEX
  8
0
 10
105.306484
 20
5.034323
 42
0.012062
  0
VERTEX
  8
0
 10
105.393900
 20
7.276012
 42
0.011921
  0
VERTEX
  8
0
 10
105.371560
 20
9.761734
 42
0.013508
  0
VERTEX
  8
0
 10
105.228967
 20
12.141741
 42
-0.033629
  0
VERTEX
  8
0
 10
105.149848
 20
16.173506
 42
-0.245591
  0
VERTEX
  8
0
 10
106.094402
 20
17.788336
 42
-0.111488
  0
VERTEX
  8
0
 10
108.432951
 20
18.609854
 42
-0.004980
  0
VERTEX
  8
0
 10
117.000000
 20
19.519723
 42
0.019590
  0
VERTEX
  8
0
 10
124.355315
 20
20.518953
 42
0.006606
  0
VERTEX
  8
0
 10
134.987100
 20
22.535143
 42
0.003807
  0
VERTEX
  8
0
 10
145.637266
 20
24.785551
 42
0.074601
  0
VERTEX
  8
0
 10
148.762369
 20
25.978937
 42
-0.040953
  0
VERTEX
  8
0
 10
149.986625
 20
26.543149
 42
-0.002264
  0
VERTEX
  8
0
 10
153.955196
 20
27.971410
 42
-0.003491
  0
VERTEX
  8
0
 10
158.702175
 20
29.618350
 42
-0.002545
  0
VERTEX
  8
0
 10
164.000000
 20
31.385040
 42
0.007321
  0
VERTEX
  8
0
 10
179.945697
 20
36.872291
 42
0.073115
  0
VERTEX
  8
0
 10
186.149597
 20
40.197648
 42
0.195388
  0
VERTEX
  8
0
 10
188.411233
 20
43.912500
 42
0.110957
  0
VERTEX
  8
0
 10
188.090487
 20
49.247051
 42
0.048154
  0
VERTEX
  8
0
 10
186.664614
 20
52.845182
 42
0.015687
  0
VERTEX
  8
0
 10
183.897408
 20
57.852037
 42
0.016050
  0
VERTEX
  8
0
 10
180.761429
 20
62.762206
 42
0.037796
  0
VERTEX
  8
0
 10
178.043115
 20
66.151181
 42
-0.011959
  0
VERTEX
  8
0
 10
177.281033
 20
67.006764
 42
-0.004116
  0
VERTEX
  8
0
 10
176.218915
 20
68.279299
 42
-0.004088
  0
VERTEX
  8
0
 10
175.070288
 20
69.702306
 42
-0.004726
  0
VERTEX
  8
0
 10
174.000000
 20
71.077157
 42
0.002714
  0
VERTEX
  8
0
 10
172.969531
 20
72.411901
 42
0.002846
  0
VERTEX
  8
0
 10
171.940625
 20
73.714416
 42
0.002728
  0
VERTEX
  8
0
 10
171.039849
 20
74.828957
 42
0.012657
  0
VERTEX
  8
0
 10
170.500000
 20
75.456410
 42
-0.038307
  0
VERTEX
  8
0
 10
169.210693
 20
77.120320
 42
-0.012614
  0
VERTEX
  8
0
 10
167.572088
 20
79.748963
 42
-0.012340
  0
VERTEX
  8
0
 10
166.078275
 20
82.435180
 42
-0.043963
  0
VERTEX
  8
0
 10
165.321721
 20
84.250000
 42
0.055721
  0
VERTEX
  8
0
 10
165.024115
 20
84.919245
 42
0.060542
  0
VERTEX
  8
0
 10
164.592695
 20
85.485937
 42
0.068452
  0
VERTEX
  8
0
 10
164.099326
 20
85.870806
 42
0.132209
  0
VERTEX
  8
0
 10
163.619269
 20
86.000000
 42
-0.212814
  0
VERTEX
  8
0
 10
163.066164
 20
86.246585
 42
-0.029896
  0
VERTEX
  8
0
 10
162.268721
 20
87.248438
 42
-0.029809
  0
VERTEX
  8
0
 10
161.420976
 20
88.622176
 42
-0.021244
  0
VERTEX
  8
0
 10
160.632997
 20
90.250000
 42
0.008434
  0
VERTEX
  8
0
 10
159.879370
 20
91.914246
 42
0.011230
  0
VERTEX
  8
0
 10
159.135629
 20
93.398438
 42
0.008646
  0
VERTEX
  8
0
 10
158.469767
 20
94.604978
 42
0.103546
  0
VERTEX
  8
0
 10
158.117723
 20
95.000000
 42
-0.144905
  0
VERTEX
  8
0
 10
157.747902
 20
95.490046
 42
-0.001464
  0
VERTEX
  8
0
 10
156.216190
 20
99.612500
 42
-0.004604
  0
VERTEX
  8
0
 10
154.501014
 20
104.406121
 42
-0.002953
  0
VERTEX
  8
0
 10
152.594357
 20
110.000000
 42
0.002465
  0
VERTEX
  8
0
 10
150.681897
 20
115.628867
 42
0.003669
  0
VERTEX
  8
0
 10
148.947791
 20
120.534375
 42
0.001622
  0
VERTEX
  8
0
 10
147.424637
 20
124.702247
 42
0.074305
  0
VERTEX
  8
0
 10
146.986795
 20
125.500000
 42
-0.084818
  0
VERTEX
  8
0
 10
146.650990
 20
126.143353
 42
-0.013132
  0
VERTEX
  8
0
 10
146.244429
 20
127.528125
 42
-0.014320
  0
VERTEX
  8
0
 10
145.850900
 20
129.203794
 42
-0.012017
  0
VERTEX
  8
0
 10
145.527760
 20
131.000000
 42
0.006077
  0
VERTEX
  8
0
 10
145.131895
 20
133.361044
 42
0.001749
  0
VERTEX
  8
0
 10
144.462366
 20
137.003731
 42
0.001759
  0
VERTEX
  8
0
 10
143.678513
 20
141.106323
 42
0.001872
  0
VERTEX
  8
0
 10
142.881577
 20
145.119083
 42
-0.016437
  0
VERTEX
  8
0
 10
141.996386
 20
150.372739
 42
-0.011973
  0
VERTEX
  8
0
 10
141.345437
 20
156.260771
 42
-0.010527
  0
VERTEX
  8
0
 10
140.909679
 20
162.944033
 42
-0.007004
  0
VERTEX
  8
0
 10
140.678983
 20
170.619083
 42
0.003690
  0
VERTEX
  8
0
 10
140.462355
 20
179.866563
 42
0.023036
  0
VERTEX
  8
0
 10
140.098842
 20
184.586496
 42
0.043914
  0
VERTEX
  8
0
 10
139.415320
 20
187.782415
 42
0.046332
  0
VERTEX
  8
0
 10
138.191777
 20
190.750000
 42
0.016509
  0
VERTEX
  8
0
 10
137.266762
 20
192.378089
 42
0.023617
  0
VERTEX
  8
0
 10
136.333317
 20
193.751563
 42
0.021005
  0
VERTEX
  8
0
 10
135.491296
 20
194.779821
 42
0.213834
  0
VERTEX
  8
0
 10
135.000000
 20
195.000000
 42
-0.216758
  0
VERTEX
  8
0
 10
134.512725
 20
195.221656
 42
-0.021606
  0
VERTEX
  8
0
 10
133.692938
 20
196.248437
 42
-0.024088
  0
VERTEX
  8
0
 10
132.788378
 20
197.621902
 42
-0.016799
  0
VERTEX
  8
0
 10
131.897604
 20
199.250000
 42
0.028981
  0
VERTEX
  8
0
 10
129.829873
 20
202.819983
 42
0.058904
  0
VERTEX
  8
0
 10
127.742103
 20
205.295646
 42
0.068016
  0
VERTEX
  8
0
 10
125.350536
 20
206.991123
 42
0.052919
  0
VERTEX
  8
0
 10
122.381181
 20
208.160419
 42
-0.032564
  0
VERTEX
  8
0
 10
121.002618
 20
208.639563
 42
-0.036099
  0
VERTEX
  8
0
 10
119.746669
 20
209.280356
 42
-0.038862
  0
VERTEX
  8
0
 10
118.772364
 20
209.978320
 42
-0.126944
  0
VERTEX
  8
0
 10
118.315921
 20
210.619106
 42
-0.123339
  0
VERTEX
  8
0
 10
118.200069
 20
211.572129
 42
-0.013258
  0
VERTEX
  8
0
 10
118.537137
 20
213.787638
 42
-0.015661
  0
VERTEX
  8
0
 10
119.099803
 20
216.442919
 42
-0.012002
  0
VERTEX
  8
0
 10
119.874367
 20
219.306839
 42
0.025943
  0
VERTEX
  8
0
 10
121.240290
 20
224.980151
 42
0.031412
  0
VERTEX
  8
0
 10
121.904179
 20
230.413276
 42
0.034357
  0
VERTEX
  8
0
 10
121.858435
 20
235.034436
 42
0.103571
  0
VERTEX
  8
0
 10
120.977082
 20
238.042823
 42
0.103310
  0
VERTEX
  8
0
 10
119.293904
 20
240.052205
 42
0.079743
  0
VERTEX
  8
0
 10
116.791274
 20
241.447055
 42
0.052677
  0
VERTEX
  8
0
 10
113.076310
 20
242.372187
 42
0.017605
  0
VERTEX
  8
0
 10
107.500000
 20
242.951977
 42
0.000000
  0
VERTEX
  8
0
 10
99.500000
 20
243.500000
 42
0.000000
  0
VERTEX
  8
0
 10
99.000000
 20
247.500000
 42
0.000000
  0
VERTEX
  8
0
 10
98.500000
 20
251.500000
 42
0.000000
  0
VERTEX
  8
0
 10
93.500000
 20
251.779056
 42
0.013843
  0
VERTEX
  8
0
 10
90.523948
 20
251.862611
 42
0.093745
  0
VERTEX
  8
0
 10
89.082925
 20
251.590611
 42
0.144433
  0
VERTEX
  8
0
 10
88.137368
 20
250.856177
 42
0.048520
  0
SEQEND
  0
ENDSEC
  0
EOF
