  0
SECTION
  2
HEADER
  9
$ACADVER
  1
AC1006
  9
$EXTMIN
 10
0.000000
 20
0.000000
 30
0.000000
  9
$EXTMAX
 10
95.000000
 20
109.000000
 30
0.000000
  0
ENDSEC
  0
SECTION
  2
ENTITIES
  0
POLYLINE
  8
0
 66
1
 70
1
  0
VERTEX
  8
0
 10
36.344045
 20
108.326106
 42
0.157240
  0
VERTEX
  8
0
 10
34.781048
 20
107.444639
 42
0.101162
  0
VERTEX
  8
0
 10
33.695514
 20
105.648931
 42
0.082852
  0
VERTEX
  8
0
 10
33.261829
 20
103.221115
 42
0.064425
  0
VERTEX
  8
0
 10
33.576064
 20
100.552961
 42
-0.075780
  0
VERTEX
  8
0
 10
33.705250
 20
99.191915
 42
-0.103513
  0
VERTEX
  8
0
 10
33.386014
 20
98.005872
 42
-0.073080
  0
VERTEX
  8
0
 10
32.509472
 20
96.765308
 42
-0.022207
  0
VERTEX
  8
0
 10
30.845116
 20
95.166318
 42
0.042301
  0
VERTEX
  8
0
 10
29.229156
 20
93.483994
 42
0.039639
  0
VERTEX
  8
0
 10
27.880052
 20
91.518312
 42
0.035487
  0
VERTEX
  8
0
 10
26.739694
 20
89.165473
 42
0.023158
  0
VERTEX
  8
0
 10
25.750000
 20
86.313878
 42
0.004645
  0
VERTEX
  8
0
 10
25.079763
 20
83.969487
 42
0.006102
  0
VERTEX
  8
0
 10
24.514063
 20
81.816712
 42
0.004551
  0
VERTEX
  8
0
 10
24.079644
 20
80.007570
 42
0.056701
  0
VERTEX
  8
0
 10
24.000000
 20
79.307509
 42
-0.118399
  0
VERTEX
  8
0
 10
23.889299
 20
78.846572
 42
-0.065262
  0
VERTEX
  8
0
 10
23.559375
 20
78.366119
 42
-0.059349
  0
VERTEX
  8
0
 10
23.073592
 20
77.939918
 42
-0.058866
  0
VERTEX
  8
0
 10
22.500000
 20
77.638374
 42
0.166179
  0
VERTEX
  8
0
 10
21.809453
 20
77.061726
 42
0.074611
  0
VERTEX
  8
0
 10
21.346932
 20
75.957758
 42
0.046403
  0
VERTEX
  8
0
 10
21.078992
 20
74.243662
 42
0.015582
  0
VERTEX
  8
0
 10
21.000000
 20
71.709524
 42
-0.037273
  0
VERTEX
  8
0
 10
20.678220
 20
67.399033
 42
-0.025327
  0
VERTEX
  8
0
 10
19.701935
 20
62.574641
 42
-0.025258
  0
VERTEX
  8
0
 10
18.236693
 20
57.851556
 42
-0.035924
  0
VERTEX
  8
0
 10
16.432701
 20
53.845708
 42
0.036349
  0
VERTEX
  8
0
 10
15.882997
 20
52.622295
 42
0.023290
  0
VERTEX
  8
0
 10
15.418005
 20
51.135187
 42
0.023389
  0
VERTEX
  8
0
 10
15.097185
 20
49.627859
 42
0.039904
  0
VERTEX
  8
0
 10
14.990294
 20
48.345708
 42
-0.077119
  0
VERTEX
  8
0
 10
14.758594
 20
46.885316
 42
-0.034818
  0
VERTEX
  8
0
 10
14.035944
 20
45.080676
 42
-0.031002
  0
VERTEX
  8
0
 10
12.924878
 20
43.105847
 42
-0.024299
  0
VERTEX
  8
0
 10
11.490294
 20
41.109269
 42
0.024609
  0
VERTEX
  8
0
 10
10.089110
 20
39.156623
 42
0.029300
  0
VERTEX
  8
0
 10
8.973186
 20
37.183153
 42
0.032154
  0
VERTEX
  8
0
 10
8.229448
 20
35.382870
 42
0.082054
  0
VERTEX
  8
0
 10
8.000000
 20
33.994128
 42
-0.055156
  0
VERTEX
  8
0
 10
7.865388
 20
32.777546
 42
-0.032305
  0
VERTEX
  8
0
 10
7.452875
 20
31.369461
 42
-0.031965
  0
VERTEX
  8
0
 10
6.850755
 20
29.997188
 42
-0.046446
  0
VERTEX
  8
0
 10
6.137448
 20
28.884859
 42
0.033148
  0
VERTEX
  8
0
 10
4.089829
 20
25.871012
 42
0.019804
  0
VERTEX
  8
0
 10
2.046221
 20
22.047880
 42
0.017213
  0
VERTEX
  8
0
 10
0.414791
 20
18.363725
 42
0.100595
  0
VERTEX
  8
0
 10
0.033269
 20
16.289838
 42
0.224237
  0
VERTEX
  8
0
 10
2.033101
 20
12.251014
 42
0.069511
  0
VERTEX
  8
0
 10
8.032383
 20
8.727382
 42
0.051046
  0
VERTEX
  8
0
 10
17.080134
 20
6.024876
 42
0.028532
  0
VERTEX
  8
0
 10
28.483134
 20
4.520087
 42
-0.008607
  0
VERTEX
  8
0
 10
33.423543
 20
4.067408
 42
-0.025188
  0
VERTEX
  8
0
 10
36.799863
 20
3.526170
 42
-0.036809
  0
VERTEX
  8
0
 10
39.189040
 20
2.831644
 42
-0.077664
  0
VERTEX
  8
0
 10
40.867993
 20
1.889197
 42
0.100633
  0
VERTEX
  8
0
 10
43.846538
 20
0.391435
 42
0.077952
  0
VERTEX
  8
0
 10
47.463913
 20
-0.007156
 42
0.076095
  0
VERTEX
  8
0
 10
51.113172
 20
0.724009
 42
0.087690
  0
VERTEX
  8
0
 10
54.182369
 20
2.500000
 42
-0.039387
  0
VERTEX
  8
0
 10
55.694928
 20
3.581596
 42
-0.044166
  0
VERTEX
  8
0
 10
57.303247
 20
4.365983
 42
-0.045350
  0
VERTEX
  8
0
 10
58.984826
 20
4.840169
 42
-0.046086
  0
VERTEX
  8
0
 10
60.715198
 20
5.000000
 42
0.060945
  0
VERTEX
  8
0
 10
65.593161
 20
5.596796
 42
0.009642
  0
VERTEX
  8
0
 10
74.929140
 20
8.108027
 42
0.010499
  0
VERTEX
  8
0
 10
84.191686
 20
11.004217
 42
0.046457
  0
VERTEX
  8
0
 10
89.409119
 20
13.314749
 42
0.018234
  0
VERTEX
  8
0
 10
90.978087
 20
14.268508
 42
0.018688
  0
VERTEX
  8
0
 10
92.460199
 20
15.326679
 42
0.018803
  0
VERTEX
  8
0
 10
93.673513
 20
16.338331
 42
0.071019
  0
VERTEX
  8
0
 10
94.306373
 20
17.095223
 42
0.134566
  0
VERTEX
  8
0
 10
94.870690
 20
19.006763
 42
0.083927
  0
VERTEX
  8
0
 10
94.524249
 20
21.331656
 42
0.066793
  0
VERTEX
  8
0
 10
93.289461
 20
23.895873
 42
0.042587
  0
VERTEX
  8
0
 10
91.237805
 20
26.500000
 42
-0.015185
  0
VERTEX
  8
0
 10
87.895060
 20
30.295604
 42
-0.023564
  0
VERTEX
  8
0
 10
85.273409
 20
33.783466
 42
-0.025154
  0
VERTEX
  8
0
 10
83.476400
 20
36.733368
 42
-0.126054
  0
VERTEX
  8
0
 10
83.009015
 20
38.594391
 42
0.114739
  0
VERTEX
  8
0
 10
82.802877
 20
39.500260
 42
0.038204
  0
VERTEX
  8
0
 10
82.112296
 20
40.682695
 42
0.035681
  0
VERTEX
  8
0
 10
81.119505
 20
41.919732
 42
0.033780
  0
VERTEX
  8
0
 10
79.943695
 20
43.027551
 42
-0.039583
  0
VERTEX
  8
0
 10
78.433117
 20
44.484198
 42
-0.061699
  0
VERTEX
  8
0
 10
77.411742
 20
45.973287
 42
-0.058062
  0
VERTEX
  8
0
 10
76.745454
 20
47.732918
 42
-0.030813
  0
VERTEX
  8
0
 10
76.317534
 20
50.027551
 42
0.023618
  0
VERTEX
  8
0
 10
76.010396
 20
51.816911
 42
0.026727
  0
VERTEX
  8
0
 10
75.544641
 20
53.495499
 42
0.027377
  0
VERTEX
  8
0
 10
75.000934
 20
54.861354
 42
0.115032
  0
VERTEX
  8
0
 10
74.461313
 20
55.552872
 42
-0.145200
  0
VERTEX
  8
0
 10
73.139657
 20
57.471070
 42
-0.015353
  0
VERTEX
  8
0
 10
71.599140
 20
62.744451
 42
-0.020123
  0
VERTEX
  8
0
 10
70.382446
 20
68.362480
 42
-0.043286
  0
VERTEX
  8
0
 10
70.000000
 20
72.771900
 42
0.031572
  0
VERTEX
  8
0
 10
69.894243
 20
74.445116
 42
0.038309
  0
VERTEX
  8
0
 10
69.577721
 20
75.984221
 42
0.042913
  0
VERTEX
  8
0
 10
69.099746
 20
77.234394
 42
0.107188
  0
VERTEX
  8
0
 10
68.500000
 20
78.000000
 42
-0.050151
  0
VERTEX
  8
0
 10
67.926046
 20
78.582680
 42
-0.042042
  0
VERTEX
  8
0
 10
67.440625
 20
79.302051
 42
-0.043887
  0
VERTEX
  8
0
 10
67.108199
 20
80.042762
 42
-0.083728
  0
VERTEX
  8
0
 10
67.000000
 20
80.684370
 42
0.106695
  0
VERTEX
  8
0
 10
66.284749
 20
83.998071
 42
0.029851
  0
VERTEX
  8
0
 10
63.799937
 20
88.714899
 42
0.030912
  0
VERTEX
  8
0
 10
60.658320
 20
93.245054
 42
0.069437
  0
VERTEX
  8
0
 10
57.644031
 20
96.133010
 42
-0.023142
  0
VERTEX
  8
0
 10
55.355406
 20
97.952230
 42
-0.077406
  0
VERTEX
  8
0
 10
54.126182
 20
99.416381
 42
-0.081798
  0
VERTEX
  8
0
 10
53.436296
 20
101.140340
 42
-0.027797
  0
VERTEX
  8
0
 10
53.000000
 20
103.812519
 42
0.000000
  0
VERTEX
  8
0
 10
52.500000
 20
108.500000
 42
0.000000
  0
VERTEX
  8
0
 10
45.500000
 20
108.633333
 42
0.006225
  0
VERTEX
  8
0
 10
42.661947
 20
108.652048
 42
0.006922
  0
VERTEX
  8
0
 10
39.922938
 20
108.598085
 42
0.006453
  0
VERTEX
  8
0
 10
37.590709
 20
108.489678
 42
0.035569
  0
SEQEND
  0
ENDSEC
  0
EOF
