  0
SECTION
  2
HEADER
  9
$ACADVER
  1
AC1006
  9
$EXTMIN
 10
0.000000
 20
0.000000
 30
0.000000
  9
$EXTMAX
 10
110.000000
 20
148.000000
 30
0.000000
  0
ENDSEC
  0
SECTION
  2
ENTITIES
  0
POLYLINE
  8
0
 66
1
 70
1
  0
VERTEX
  8
0
 10
52.300300
 20
146.798158
 42
0.049834
  0
VERTEX
  8
0
 10
51.861110
 20
146.110760
 42
0.018821
  0
VERTEX
  8
0
 10
51.383753
 20
145.073521
 42
0.018423
  0
VERTEX
  8
0
 10
50.945544
 20
143.898064
 42
0.021379
  0
VERTEX
  8
0
 10
50.618835
 20
142.750000
 42
-0.052003
  0
VERTEX
  8
0
 10
50.075086
 20
141.205010
 42
-0.165069
  0
VERTEX
  8
0
 10
49.323188
 20
140.428823
 42
-0.103741
  0
VERTEX
  8
0
 10
48.029550
 20
140.074471
 42
-0.014376
  0
VERTEX
  8
0
 10
45.230948
 20
139.985258
 42
0.063222
  0
VERTEX
  8
0
 10
39.278190
 20
139.210688
 42
0.187231
  0
VERTEX
  8
0
 10
35.996831
 20
136.839022
 42
0.190358
  0
VERTEX
  8
0
 10
35.205577
 20
132.906593
 42
0.065532
  0
VERTEX
  8
0
 10
36.999667
 20
127.277322
 42
-0.019612
  0
VERTEX
  8
0
 10
37.758726
 20
125.482916
 42
-0.030196
  0
VERTEX
  8
0
 10
38.257678
 20
123.873331
 42
-0.030343
  0
VERTEX
  8
0
 10
38.489453
 20
122.596382
 42
-0.278905
  0
VERTEX
  8
0
 10
38.266759
 20
122.104463
 42
0.100626
  0
VERTEX
  8
0
 10
37.845116
 20
121.668331
 42
0.016338
  0
VERTEX
  8
0
 10
37.240908
 20
120.649436
 42
0.017449
  0
VERTEX
  8
0
 10
36.601948
 20
119.384334
 42
0.014569
  0
VERTEX
  8
0
 10
36.010677
 20
118.000000
 42
-0.018039
  0
VERTEX
  8
0
 10
35.351435
 20
116.485703
 42
-0.012621
  0
VERTEX
  8
0
 10
34.505160
 20
114.827573
 42
-0.012753
  0
VERTEX
  8
0
 10
33.612409
 20
113.277934
 42
-0.025761
  0
VERTEX
  8
0
 10
32.817451
 20
112.115141
 42
0.024131
  0
VERTEX
  8
0
 10
32.121834
 20
111.104734
 42
0.024823
  0
VERTEX
  8
0
 10
31.533876
 20
110.041268
 42
0.025533
  0
VERTEX
  8
0
 10
31.119319
 20
109.072522
 42
0.088554
  0
VERTEX
  8
0
 10
31.000000
 20
108.404096
 42
-0.107276
  0
VERTEX
  8
0
 10
30.861016
 20
107.763763
 42
-0.034502
  0
VERTEX
  8
0
 10
30.395397
 20
106.904204
 42
-0.032601
  0
VERTEX
  8
0
 10
29.729450
 20
105.991989
 42
-0.031259
  0
VERTEX
  8
0
 10
28.941778
 20
105.160385
 42
0.078807
  0
VERTEX
  8
0
 10
27.974559
 20
103.923060
 42
0.041072
  0
VERTEX
  8
0
 10
27.166822
 20
102.134034
 42
0.032755
  0
VERTEX
  8
0
 10
26.501271
 20
99.788744
 42
0.017588
  0
VERTEX
  8
0
 10
25.974795
 20
96.825850
 42
-0.008235
  0
VERTEX
  8
0
 10
25.264519
 20
92.343429
 42
-0.006358
  0
VERTEX
  8
0
 10
24.347835
 20
87.481012
 42
-0.004591
  0
VERTEX
  8
0
 10
23.044835
 20
81.314407
 42
-0.001620
  0
VERTEX
  8
0
 10
21.067658
 20
72.500000
 42
-0.003615
  0
VERTEX
  8
0
 10
19.146001
 20
64.334381
 42
-0.010085
  0
VERTEX
  8
0
 10
17.641256
 20
58.644208
 42
-0.011055
  0
VERTEX
  8
0
 10
16.402897
 20
54.652342
 42
-0.091679
  0
VERTEX
  8
0
 10
15.487819
 20
53.000000
 42
0.063687
  0
VERTEX
  8
0
 10
14.967366
 20
52.172449
 42
0.021253
  0
VERTEX
  8
0
 10
14.420186
 20
50.847710
 42
0.020760
  0
VERTEX
  8
0
 10
13.932759
 20
49.313871
 42
0.022236
  0
VERTEX
  8
0
 10
13.586871
 20
47.779437
 42
-0.040748
  0
VERTEX
  8
0
 10
13.153578
 20
46.142066
 42
-0.024926
  0
VERTEX
  8
0
 10
12.393503
 20
44.292925
 42
-0.024905
  0
VERTEX
  8
0
 10
11.451297
 20
42.524898
 42
-0.040040
  0
VERTEX
  8
0
 10
10.460209
 20
41.135081
 42
0.016502
  0
VERTEX
  8
0
 10
9.518258
 20
39.937555
 42
0.020225
  0
VERTEX
  8
0
 10
8.722686
 20
38.757177
 42
0.019117
  0
VERTEX
  8
0
 10
8.141442
 20
37.728669
 42
0.119605
  0
VERTEX
  8
0
 10
8.000000
 20
37.145839
 42
-0.118125
  0
VERTEX
  8
0
 10
7.837548
 20
36.467803
 42
-0.006689
  0
VERTEX
  8
0
 10
6.827791
 20
34.545620
 42
-0.009951
  0
VERTEX
  8
0
 10
5.538184
 20
32.277384
 42
-0.007114
  0
VERTEX
  8
0
 10
4.009500
 20
29.790195
 42
0.020334
  0
VERTEX
  8
0
 10
1.228698
 20
24.985582
 42
0.082776
  0
VERTEX
  8
0
 10
0.174045
 20
21.790572
 42
0.178227
  0
VERTEX
  8
0
 10
0.591794
 20
19.720103
 42
0.180743
  0
VERTEX
  8
0
 10
2.250000
 20
18.429624
 42
-0.015438
  0
VERTEX
  8
0
 10
3.438644
 20
18.016394
 42
-0.004100
  0
VERTEX
  8
0
 10
5.307813
 20
17.283548
 42
-0.004155
  0
VERTEX
  8
0
 10
7.420703
 20
16.414635
 42
-0.004268
  0
VERTEX
  8
0
 10
9.500000
 20
15.518301
 42
0.018561
  0
VERTEX
  8
0
 10
17.165433
 20
12.470645
 42
0.027420
  0
VERTEX
  8
0
 10
24.106635
 20
10.425910
 42
0.026416
  0
VERTEX
  8
0
 10
31.420317
 20
9.103890
 42
0.015636
  0
VERTEX
  8
0
 10
40.250000
 20
8.264870
 42
-0.006468
  0
VERTEX
  8
0
 10
44.543686
 20
7.936172
 42
-0.085193
  0
VERTEX
  8
0
 10
46.077616
 20
7.529234
 42
-0.214400
  0
VERTEX
  8
0
 10
46.777278
 20
6.730054
 42
-0.072867
  0
VERTEX
  8
0
 10
47.015313
 20
5.167941
 42
0.058441
  0
VERTEX
  8
0
 10
47.366738
 20
2.313281
 42
0.197393
  0
VERTEX
  8
0
 10
48.450531
 20
0.823749
 42
0.129988
  0
VERTEX
  8
0
 10
50.610609
 20
0.170961
 42
0.020518
  0
VERTEX
  8
0
 10
55.084861
 20
0.198157
 42
0.007697
  0
VERTEX
  8
0
 10
59.175649
 20
0.454167
 42
0.092120
  0
VERTEX
  8
0
 10
60.698074
 20
0.861800
 42
0.188199
  0
VERTEX
  8
0
 10
61.497077
 20
1.713625
 42
0.052910
  0
VERTEX
  8
0
 10
62.002344
 20
3.500000
 42
-0.089564
  0
VERTEX
  8
0
 10
62.662164
 20
5.315604
 42
-0.166616
  0
VERTEX
  8
0
 10
63.833087
 20
6.328928
 42
-0.055343
  0
VERTEX
  8
0
 10
66.245389
 20
7.003308
 42
-0.003521
  0
VERTEX
  8
0
 10
73.508541
 20
8.138093
 42
0.012903
  0
VERTEX
  8
0
 10
81.861754
 20
9.604242
 42
0.013830
  0
VERTEX
  8
0
 10
89.935762
 20
11.470987
 42
0.014325
  0
VERTEX
  8
0
 10
97.606741
 20
13.706056
 42
0.016694
  0
VERTEX
  8
0
 10
104.750000
 20
16.277591
 42
0.015420
  0
VERTEX
  8
0
 10
107.460945
 20
17.455117
 42
0.064421
  0
VERTEX
  8
0
 10
108.956640
 20
18.412276
 42
0.111560
  0
VERTEX
  8
0
 10
109.726364
 20
19.423412
 42
0.107526
  0
VERTEX
  8
0
 10
110.000000
 20
20.681113
 42
0.095432
  0
VERTEX
  8
0
 10
109.722897
 20
22.119732
 42
0.007799
  0
VERTEX
  8
0
 10
108.237500
 20
25.670862
 42
0.010246
  0
VERTEX
  8
0
 10
106.298018
 20
29.874692
 42
0.007705
  0
VERTEX
  8
0
 10
104.000000
 20
34.419328
 42
-0.008068
  0
VERTEX
  8
0
 10
101.702071
 20
38.971986
 42
-0.010619
  0
VERTEX
  8
0
 10
99.762500
 20
43.200415
 42
-0.008284
  0
VERTEX
  8
0
 10
98.284085
 20
46.774084
 42
-0.094200
  0
VERTEX
  8
0
 10
98.000000
 20
48.268590
 42
0.044132
  0
VERTEX
  8
0
 10
97.899567
 20
49.404250
 42
0.021179
  0
VERTEX
  8
0
 10
97.581795
 20
50.833578
 42
0.020811
  0
VERTEX
  8
0
 10
97.121525
 20
52.307225
 42
0.027886
  0
VERTEX
  8
0
 10
96.576324
 20
53.596362
 42
-0.061791
  0
VERTEX
  8
0
 10
94.816587
 20
58.693338
 42
-0.007060
  0
VERTEX
  8
0
 10
92.456987
 20
70.646854
 42
-0.005581
  0
VERTEX
  8
0
 10
90.366570
 20
82.853257
 42
-0.093938
  0
VERTEX
  8
0
 10
90.484286
 20
86.928455
 42
0.056451
  0
VERTEX
  8
0
 10
90.638627
 20
88.415480
 42
0.047827
  0
VERTEX
  8
0
 10
90.473036
 20
89.987625
 42
0.042824
  0
VERTEX
  8
0
 10
89.981720
 20
91.657689
 42
0.030082
  0
VERTEX
  8
0
 10
89.161180
 20
93.438089
 42
-0.030594
  0
VERTEX
  8
0
 10
88.452485
 20
94.979955
 42
-0.030444
  0
VERTEX
  8
0
 10
87.935912
 20
96.599288
 42
-0.031944
  0
VERTEX
  8
0
 10
87.662972
 20
98.065366
 42
-0.094272
  0
VERTEX
  8
0
 10
87.732102
 20
99.083558
 42
0.160035
  0
VERTEX
  8
0
 10
87.587609
 20
101.426196
 42
0.012305
  0
VERTEX
  8
0
 10
85.076643
 20
107.306265
 42
0.009461
  0
VERTEX
  8
0
 10
82.262736
 20
113.174599
 42
0.283432
  0
VERTEX
  8
0
 10
80.923628
 20
114.000000
 42
-0.210148
  0
VERTEX
  8
0
 10
80.535088
 20
114.170847
 42
-0.024889
  0
VERTEX
  8
0
 10
79.919096
 20
114.913420
 42
-0.026331
  0
VERTEX
  8
0
 10
79.246070
 20
115.918438
 42
-0.018674
  0
VERTEX
  8
0
 10
78.595253
 20
117.109515
 42
-0.050769
  0
VERTEX
  8
0
 10
77.882383
 20
118.996041
 42
-0.042359
  0
VERTEX
  8
0
 10
77.508853
 20
121.106564
 42
-0.031471
  0
VERTEX
  8
0
 10
77.435262
 20
123.773839
 42
-0.012249
  0
VERTEX
  8
0
 10
77.656020
 20
127.458948
 42
0.007171
  0
VERTEX
  8
0
 10
77.967667
 20
131.904518
 42
0.062433
  0
VERTEX
  8
0
 10
77.831268
 20
133.876521
 42
0.126937
  0
VERTEX
  8
0
 10
77.222546
 20
135.148719
 42
0.065337
  0
VERTEX
  8
0
 10
75.911502
 20
136.349433
 42
0.061956
  0
VERTEX
  8
0
 10
74.715323
 20
136.983254
 42
0.028607
  0
VERTEX
  8
0
 10
73.033493
 20
137.515146
 42
0.027800
  0
VERTEX
  8
0
 10
71.177939
 20
137.878785
 42
0.034498
  0
VERTEX
  8
0
 10
69.423171
 20
138.000000
 42
-0.024042
  0
VERTEX
  8
0
 10
66.838382
 20
138.124361
 42
-0.152048
  0
VERTEX
  8
0
 10
65.638332
 20
138.628816
 42
-0.126734
  0
VERTEX
  8
0
 10
64.826432
 20
139.768597
 42
-0.014722
  0
VERTEX
  8
0
 10
63.780557
 20
142.750000
 42
0.016206
  0
VERTEX
  8
0
 10
62.728904
 20
145.719634
 42
0.124944
  0
VERTEX
  8
0
 10
61.876956
 20
146.909557
 42
0.138096
  0
VERTEX
  8
0
 10
60.596658
 20
147.491123
 42
0.021342
  0
VERTEX
  8
0
 10
57.797292
 20
147.798158
 42
0.022921
  0
VERTEX
  8
0
 10
55.857706
 20
147.838377
 42
0.038732
  0
VERTEX
  8
0
 10
54.241190
 20
147.672061
 42
0.047723
  0
VERTEX
  8
0
 10
53.012937
 20
147.325082
 42
0.133782
  0
SEQEND
  0
ENDSEC
  0
EOF
