  0
SECTION
  2
HEADER
  9
$ACADVER
  1
AC1006
  9
$EXTMIN
 10
0.000000
 20
0.000000
 30
0.000000
  9
$EXTMAX
 10
357.000000
 20
439.000000
 30
0.000000
  0
ENDSEC
  0
SECTION
  2
ENTITIES
  0
POLYLINE
  8
0
 66
1
 70
1
  0
VERTEX
  8
0
 10
264.516549
 20
437.828746
 42
0.003535
  0
VERTEX
  8
0
 10
255.409481
 20
437.348732
 42
0.010630
  0
VERTEX
  8
0
 10
249.205810
 20
436.845213
 42
0.007704
  0
VERTEX
  8
0
 10
244.753426
 20
436.318941
 42
0.235422
  0
VERTEX
  8
0
 10
243.852501
 20
435.708539
 42
-0.026160
  0
VERTEX
  8
0
 10
243.301609
 20
434.839914
 42
-0.000461
  0
VERTEX
  8
0
 10
240.084106
 20
430.318012
 42
-0.001159
  0
VERTEX
  8
0
 10
236.318006
 20
425.061261
 42
-0.000773
  0
VERTEX
  8
0
 10
231.979654
 20
419.054908
 42
0.000000
  0
VERTEX
  8
0
 10
220.787404
 20
403.609816
 42
0.000000
  0
VERTEX
  8
0
 10
229.893032
 20
380.782587
 42
0.000000
  0
VERTEX
  8
0
 10
238.998659
 20
357.955358
 42
0.000000
  0
VERTEX
  8
0
 10
153.467276
 20
224.193558
 42
0.000000
  0
VERTEX
  8
0
 10
67.935893
 20
90.431759
 42
0.000000
  0
VERTEX
  8
0
 10
47.938600
 20
100.506679
 42
0.000000
  0
VERTEX
  8
0
 10
27.941307
 20
110.581600
 42
0.000000
  0
VERTEX
  8
0
 10
14.120622
 20
96.663726
 42
0.000000
  0
VERTEX
  8
0
 10
0.299938
 20
82.745853
 42
0.000000
  0
VERTEX
  8
0
 10
3.950358
 20
65.210860
 42
0.004144
  0
VERTEX
  8
0
 10
5.741744
 20
56.949592
 42
0.014572
  0
VERTEX
  8
0
 10
7.092506
 20
51.680815
 42
0.014148
  0
VERTEX
  8
0
 10
8.212728
 20
48.164382
 42
0.282494
  0
VERTEX
  8
0
 10
9.050389
 20
47.482193
 42
0.009521
  0
VERTEX
  8
0
 10
10.088304
 20
47.363589
 42
0.000299
  0
VERTEX
  8
0
 10
14.333552
 20
46.962763
 42
0.000582
  0
VERTEX
  8
0
 10
19.339160
 20
46.499048
 42
0.000404
  0
VERTEX
  8
0
 10
25.000000
 20
45.985891
 42
-0.003546
  0
VERTEX
  8
0
 10
39.414678
 20
44.587799
 42
-0.168653
  0
VERTEX
  8
0
 10
42.024968
 20
43.365479
 42
-0.273133
  0
VERTEX
  8
0
 10
42.676367
 20
40.969293
 42
-0.009843
  0
VERTEX
  8
0
 10
39.876259
 20
31.500000
 42
0.002131
  0
VERTEX
  8
0
 10
36.585125
 20
20.970200
 42
0.024236
  0
VERTEX
  8
0
 10
35.506086
 20
16.748016
 42
0.087653
  0
VERTEX
  8
0
 10
35.451777
 20
14.728590
 42
0.371508
  0
VERTEX
  8
0
 10
36.297021
 20
14.000000
 42
-0.083941
  0
VERTEX
  8
0
 10
37.342596
 20
13.823222
 42
-0.001588
  0
VERTEX
  8
0
 10
42.575621
 20
11.982975
 42
-0.003821
  0
VERTEX
  8
0
 10
48.671566
 20
9.764885
 42
-0.002543
  0
VERTEX
  8
0
 10
55.626477
 20
7.133533
 42
0.000000
  0
VERTEX
  8
0
 10
73.500000
 20
0.267066
 42
0.000000
  0
VERTEX
  8
0
 10
91.277320
 20
12.341147
 42
0.004701
  0
VERTEX
  8
0
 10
98.065374
 20
17.045354
 42
0.007682
  0
VERTEX
  8
0
 10
103.719476
 20
21.174667
 42
0.002421
  0
VERTEX
  8
0
 10
108.480629
 20
24.801594
 42
0.328261
  0
VERTEX
  8
0
 10
108.669699
 20
25.457613
 42
-0.032390
  0
VERTEX
  8
0
 10
108.425775
 20
26.278024
 42
-0.000244
  0
VERTEX
  8
0
 10
106.868439
 20
33.121602
 42
-0.000912
  0
VERTEX
  8
0
 10
105.101722
 20
40.969076
 42
-0.000585
  0
VERTEX
  8
0
 10
103.078307
 20
50.084011
 42
0.000000
  0
VERTEX
  8
0
 10
97.871857
 20
73.668022
 42
0.000000
  0
VERTEX
  8
0
 10
185.994274
 20
204.084011
 42
-0.000213
  0
VERTEX
  8
0
 10
219.880381
 20
254.187352
 42
-0.000349
  0
VERTEX
  8
0
 10
248.636640
 20
296.602859
 42
-0.000027
  0
VERTEX
  8
0
 10
274.490006
 20
334.674857
 42
-0.045202
  0
VERTEX
  8
0
 10
275.498507
 20
335.904446
 42
-0.228122
  0
VERTEX
  8
0
 10
277.084681
 20
336.474388
 42
-0.023192
  0
VERTEX
  8
0
 10
281.151074
 20
335.859852
 42
-0.013814
  0
VERTEX
  8
0
 10
288.034558
 20
334.291698
 42
-0.001923
  0
VERTEX
  8
0
 10
302.190161
 20
330.594705
 42
-0.000136
  0
VERTEX
  8
0
 10
312.011063
 20
327.986554
 42
-0.000206
  0
VERTEX
  8
0
 10
320.557628
 20
325.710566
 42
-0.000076
  0
VERTEX
  8
0
 10
327.916947
 20
323.746298
 42
-0.005061
  0
VERTEX
  8
0
 10
329.176233
 20
323.396284
 42
0.270089
  0
VERTEX
  8
0
 10
330.454504
 20
323.717734
 42
0.015279
  0
VERTEX
  8
0
 10
333.394203
 20
326.772004
 42
0.014691
  0
VERTEX
  8
0
 10
337.520220
 20
331.607923
 42
0.003900
  0
VERTEX
  8
0
 10
343.812581
 20
339.563841
 42
0.000000
  0
VERTEX
  8
0
 10
356.772695
 20
356.215632
 42
0.000000
  0
VERTEX
  8
0
 10
349.759497
 20
377.357816
 42
0.002097
  0
VERTEX
  8
0
 10
347.011742
 20
385.526472
 42
0.003246
  0
VERTEX
  8
0
 10
344.563639
 20
392.554845
 42
0.001024
  0
VERTEX
  8
0
 10
342.392520
 20
398.620741
 42
0.099133
  0
VERTEX
  8
0
 10
341.919791
 20
399.403359
 42
0.279723
  0
VERTEX
  8
0
 10
340.781039
 20
399.736110
 42
0.000479
  0
VERTEX
  8
0
 10
320.350020
 20
394.253558
 42
0.003066
  0
VERTEX
  8
0
 10
302.058505
 20
389.205850
 42
0.022758
  0
VERTEX
  8
0
 10
293.490007
 20
386.357792
 42
-0.396091
  0
VERTEX
  8
0
 10
292.707442
 20
386.677510
 42
-0.076114
  0
VERTEX
  8
0
 10
292.247902
 20
388.295441
 42
-0.025838
  0
VERTEX
  8
0
 10
291.997493
 20
391.712985
 42
-0.003235
  0
VERTEX
  8
0
 10
291.885995
 20
399.143011
 42
0.003114
  0
VERTEX
  8
0
 10
291.796583
 20
405.198857
 42
0.001864
  0
VERTEX
  8
0
 10
291.618656
 20
412.395135
 42
0.001866
  0
VERTEX
  8
0
 10
291.388097
 20
419.557415
 42
0.003243
  0
VERTEX
  8
0
 10
291.135995
 20
425.500000
 42
0.000000
  0
VERTEX
  8
0
 10
290.500000
 20
438.500000
 42
0.000000
  0
VERTEX
  8
0
 10
287.500000
 20
438.620207
 42
0.017538
  0
VERTEX
  8
0
 10
285.488797
 20
438.630212
 42
0.001081
  0
VERTEX
  8
0
 10
279.511111
 20
438.437301
 42
0.001604
  0
VERTEX
  8
0
 10
272.389568
 20
438.169185
 42
0.001188
  0
SEQEND
  0
ENDSEC
  0
EOF
