  0
SECTION
  2
HEADER
  9
$ACADVER
  1
AC1006
  9
$EXTMIN
 10
0.000000
 20
0.000000
 30
0.000000
  9
$EXTMAX
 10
357.000000
 20
439.000000
 30
0.000000
  0
ENDSEC
  0
SECTION
  2
ENTITIES
  0
POLYLINE
  8
0
 66
1
 70
1
  0
VERTEX
  8
0
 10
264.542843
 20
437.807828
 42
0.000959
  0
VERTEX
  8
0
 10
256.882884
 20
437.451967
 42
0.001585
  0
VERTEX
  8
0
 10
250.416193
 20
437.118563
 42
0.000117
  0
VERTEX
  8
0
 10
244.616692
 20
436.799761
 42
0.265309
  0
VERTEX
  8
0
 10
244.477063
 20
436.709510
 42
-0.035736
  0
VERTEX
  8
0
 10
244.377267
 20
436.546648
 42
-0.000019
  0
VERTEX
  8
0
 10
240.934509
 20
431.736749
 42
-0.000258
  0
VERTEX
  8
0
 10
237.101342
 20
426.387668
 42
-0.000157
  0
VERTEX
  8
0
 10
232.569840
 20
420.075169
 42
0.000000
  0
VERTEX
  8
0
 10
220.771240
 20
403.650338
 42
0.000000
  0
VERTEX
  8
0
 10
229.879137
 20
380.817421
 42
0.000000
  0
VERTEX
  8
0
 10
238.987033
 20
357.984504
 42
0.000000
  0
VERTEX
  8
0
 10
153.458810
 20
224.209468
 42
0.000000
  0
VERTEX
  8
0
 10
67.930587
 20
90.434432
 42
0.000000
  0
VERTEX
  8
0
 10
47.935947
 20
100.508016
 42
0.000000
  0
VERTEX
  8
0
 10
27.941307
 20
110.581600
 42
0.000000
  0
VERTEX
  8
0
 10
14.120622
 20
96.663726
 42
0.000000
  0
VERTEX
  8
0
 10
0.299938
 20
82.745853
 42
0.000000
  0
VERTEX
  8
0
 10
3.950358
 20
65.210860
 42
0.004144
  0
VERTEX
  8
0
 10
5.741744
 20
56.949592
 42
0.014572
  0
VERTEX
  8
0
 10
7.092506
 20
51.680815
 42
0.014148
  0
VERTEX
  8
0
 10
8.212728
 20
48.164382
 42
0.282494
  0
VERTEX
  8
0
 10
9.050389
 20
47.482193
 42
0.009521
  0
VERTEX
  8
0
 10
10.088304
 20
47.363589
 42
0.000299
  0
VERTEX
  8
0
 10
14.333552
 20
46.962763
 42
0.000582
  0
VERTEX
  8
0
 10
19.339160
 20
46.499048
 42
0.000404
  0
VERTEX
  8
0
 10
25.000000
 20
45.985891
 42
-0.003546
  0
VERTEX
  8
0
 10
39.414678
 20
44.587799
 42
-0.168653
  0
VERTEX
  8
0
 10
42.024968
 20
43.365479
 42
-0.273133
  0
VERTEX
  8
0
 10
42.676367
 20
40.969293
 42
-0.009843
  0
VERTEX
  8
0
 10
39.876259
 20
31.500000
 42
0.002131
  0
VERTEX
  8
0
 10
36.585125
 20
20.970200
 42
0.024236
  0
VERTEX
  8
0
 10
35.506086
 20
16.748016
 42
0.087653
  0
VERTEX
  8
0
 10
35.451777
 20
14.728590
 42
0.371508
  0
VERTEX
  8
0
 10
36.297021
 20
14.000000
 42
-0.083941
  0
VERTEX
  8
0
 10
37.342596
 20
13.823222
 42
-0.001588
  0
VERTEX
  8
0
 10
42.575621
 20
11.982975
 42
-0.003821
  0
VERTEX
  8
0
 10
48.671566
 20
9.764885
 42
-0.002543
  0
VERTEX
  8
0
 10
55.626477
 20
7.133533
 42
0.000000
  0
VERTEX
  8
0
 10
73.500000
 20
0.267066
 42
0.000000
  0
VERTEX
  8
0
 10
91.277320
 20
12.341147
 42
0.004701
  0
VERTEX
  8
0
 10
98.065374
 20
17.045354
 42
0.007682
  0
VERTEX
  8
0
 10
103.719476
 20
21.174667
 42
0.002421
  0
VERTEX
  8
0
 10
108.480629
 20
24.801594
 42
0.328261
  0
VERTEX
  8
0
 10
108.669699
 20
25.457613
 42
-0.032391
  0
VERTEX
  8
0
 10
108.425768
 20
26.278050
 42
-0.000244
  0
VERTEX
  8
0
 10
106.867715
 20
33.124873
 42
-0.000911
  0
VERTEX
  8
0
 10
105.100203
 20
40.975942
 42
-0.000585
  0
VERTEX
  8
0
 10
103.075842
 20
50.095147
 42
0.000000
  0
VERTEX
  8
0
 10
97.866927
 20
73.690293
 42
0.000000
  0
VERTEX
  8
0
 10
186.999434
 20
205.595147
 42
0.000000
  0
VERTEX
  8
0
 10
276.131941
 20
337.500000
 42
0.000000
  0
VERTEX
  8
0
 10
291.815970
 20
342.808714
 42
-0.008842
  0
VERTEX
  8
0
 10
301.080992
 20
345.763183
 42
-0.016285
  0
VERTEX
  8
0
 10
308.729314
 20
347.785018
 42
-0.013724
  0
VERTEX
  8
0
 10
317.312053
 20
349.510741
 42
-0.004537
  0
VERTEX
  8
0
 10
330.000000
 20
351.583085
 42
0.000568
  0
VERTEX
  8
0
 10
338.778596
 20
352.945453
 42
0.000823
  0
VERTEX
  8
0
 10
346.528787
 20
354.170301
 42
0.000414
  0
VERTEX
  8
0
 10
353.106291
 20
355.226491
 42
0.013829
  0
VERTEX
  8
0
 10
354.672466
 20
355.523963
 42
0.304984
  0
VERTEX
  8
0
 10
355.662129
 20
356.558166
 42
0.098299
  0
VERTEX
  8
0
 10
355.607187
 20
358.789167
 42
0.023445
  0
VERTEX
  8
0
 10
354.323452
 20
363.473674
 42
0.001433
  0
VERTEX
  8
0
 10
349.800718
 20
377.249592
 42
0.003017
  0
VERTEX
  8
0
 10
347.019428
 20
385.473455
 42
0.004587
  0
VERTEX
  8
0
 10
344.494318
 20
392.581745
 42
0.001798
  0
VERTEX
  8
0
 10
342.253765
 20
398.642503
 42
0.110179
  0
VERTEX
  8
0
 10
341.628252
 20
399.603158
 42
0.153818
  0
VERTEX
  8
0
 10
340.658178
 20
400.094593
 42
0.003849
  0
VERTEX
  8
0
 10
335.708374
 20
400.872927
 42
0.007922
  0
VERTEX
  8
0
 10
329.824870
 20
401.656643
 42
0.005274
  0
VERTEX
  8
0
 10
323.059831
 20
402.376660
 42
-0.001108
  0
VERTEX
  8
0
 10
316.359387
 20
403.033381
 42
-0.001814
  0
VERTEX
  8
0
 10
310.686486
 20
403.622875
 42
-0.000190
  0
VERTEX
  8
0
 10
305.624014
 20
404.169451
 42
-0.192641
  0
VERTEX
  8
0
 10
305.428254
 20
404.273502
 42
-0.075869
  0
VERTEX
  8
0
 10
305.305063
 20
404.474350
 42
-0.000095
  0
VERTEX
  8
0
 10
303.466903
 20
408.839716
 42
-0.000844
  0
VERTEX
  8
0
 10
301.417310
 20
413.732871
 42
-0.000519
  0
VERTEX
  8
0
 10
299.020101
 20
419.500000
 42
0.002992
  0
VERTEX
  8
0
 10
293.893342
 20
431.663755
 42
0.035645
  0
VERTEX
  8
0
 10
291.553506
 20
436.200963
 42
0.111588
  0
VERTEX
  8
0
 10
289.605494
 20
438.211334
 42
0.159959
  0
VERTEX
  8
0
 10
287.226947
 20
438.848319
 42
-0.002310
  0
VERTEX
  8
0
 10
285.368289
 20
438.753546
 42
-0.000122
  0
VERTEX
  8
0
 10
279.438626
 20
438.480106
 42
-0.000192
  0
VERTEX
  8
0
 10
272.386232
 20
438.159342
 42
-0.000140
  0
SEQEND
  0
ENDSEC
  0
EOF
