  0
SECTION
  2
HEADER
  9
$ACADVER
  1
AC1006
  9
$EXTMIN
 10
0.000000
 20
0.000000
 30
0.000000
  9
$EXTMAX
 10
45.000000
 20
145.000000
 30
0.000000
  0
ENDSEC
  0
SECTION
  2
ENTITIES
  0
POLYLINE
  8
0
 66
1
 70
1
  0
VERTEX
  8
0
 10
34.728150
 20
144.281637
 42
0.059690
  0
VERTEX
  8
0
 10
33.565633
 20
143.960954
 42
0.042786
  0
VERTEX
  8
0
 10
32.364961
 20
143.345125
 42
0.043303
  0
VERTEX
  8
0
 10
31.306930
 20
142.547478
 42
0.068605
  0
VERTEX
  8
0
 10
30.575636
 20
141.681469
 42
0.082942
  0
VERTEX
  8
0
 10
29.534762
 20
139.211022
 42
0.013336
  0
VERTEX
  8
0
 10
28.458492
 20
134.075445
 42
0.013171
  0
VERTEX
  8
0
 10
27.434001
 20
127.456819
 42
0.007752
  0
VERTEX
  8
0
 10
26.541308
 20
119.500000
 42
-0.011772
  0
VERTEX
  8
0
 10
26.197695
 20
116.644673
 42
-0.005458
  0
VERTEX
  8
0
 10
25.623798
 20
112.953049
 42
-0.005403
  0
VERTEX
  8
0
 10
24.936387
 20
109.086518
 42
-0.007494
  0
VERTEX
  8
0
 10
24.231096
 20
105.638040
 42
-0.015296
  0
VERTEX
  8
0
 10
23.008283
 20
100.794973
 42
-0.059669
  0
VERTEX
  8
0
 10
21.815843
 20
97.951666
 42
-0.053799
  0
VERTEX
  8
0
 10
19.927990
 20
95.328396
 42
-0.010900
  0
VERTEX
  8
0
 10
16.000000
 20
91.138040
 42
0.011286
  0
VERTEX
  8
0
 10
12.162124
 20
87.037488
 42
0.049902
  0
VERTEX
  8
0
 10
10.216311
 20
84.368922
 42
0.056728
  0
VERTEX
  8
0
 10
8.959144
 20
81.530746
 42
0.017354
  0
VERTEX
  8
0
 10
7.710410
 20
77.000000
 42
0.014046
  0
VERTEX
  8
0
 10
6.334552
 20
70.420485
 42
0.011164
  0
VERTEX
  8
0
 10
5.208884
 20
63.250412
 42
0.008464
  0
VERTEX
  8
0
 10
4.166221
 20
54.338659
 42
0.003396
  0
VERTEX
  8
0
 10
3.029566
 20
42.118707
 42
-0.004883
  0
VERTEX
  8
0
 10
2.545426
 20
37.076505
 42
-0.005248
  0
VERTEX
  8
0
 10
1.973134
 20
32.164549
 42
-0.004980
  0
VERTEX
  8
0
 10
1.395669
 20
27.958599
 42
-0.024741
  0
VERTEX
  8
0
 10
0.931388
 20
25.618707
 42
0.051428
  0
VERTEX
  8
0
 10
0.149679
 20
20.173352
 42
0.022286
  0
VERTEX
  8
0
 10
0.184485
 20
12.845419
 42
0.014413
  0
VERTEX
  8
0
 10
0.737871
 20
5.777793
 42
0.256264
  0
VERTEX
  8
0
 10
2.000000
 20
3.966931
 42
0.043907
  0
VERTEX
  8
0
 10
2.971475
 20
3.587208
 42
0.004618
  0
VERTEX
  8
0
 10
5.320482
 20
2.922867
 42
0.005688
  0
VERTEX
  8
0
 10
8.140079
 20
2.187845
 42
0.004533
  0
VERTEX
  8
0
 10
11.197385
 20
1.457252
 42
0.041111
  0
VERTEX
  8
0
 10
18.611440
 20
0.387285
 42
0.022141
  0
VERTEX
  8
0
 10
27.849388
 20
0.231374
 42
0.016311
  0
VERTEX
  8
0
 10
36.529810
 20
0.752994
 42
0.178904
  0
VERTEX
  8
0
 10
39.626716
 20
2.236391
 42
0.156843
  0
VERTEX
  8
0
 10
40.217363
 20
3.431896
 42
0.007222
  0
VERTEX
  8
0
 10
40.828425
 20
7.989273
 42
0.009987
  0
VERTEX
  8
0
 10
41.426246
 20
14.016083
 42
0.004412
  0
VERTEX
  8
0
 10
41.986623
 20
22.000000
 42
-0.002001
  0
VERTEX
  8
0
 10
42.485389
 20
29.632813
 42
-0.001995
  0
VERTEX
  8
0
 10
43.045688
 20
37.268750
 42
-0.001952
  0
VERTEX
  8
0
 10
43.587815
 20
43.935484
 42
-0.007860
  0
VERTEX
  8
0
 10
43.998760
 20
48.000000
 42
0.018521
  0
VERTEX
  8
0
 10
44.739964
 20
57.310135
 42
0.014618
  0
VERTEX
  8
0
 10
44.873128
 20
67.417843
 42
0.014945
  0
VERTEX
  8
0
 10
44.430163
 20
77.051734
 42
0.027357
  0
VERTEX
  8
0
 10
43.406978
 20
84.845556
 42
-0.015221
  0
VERTEX
  8
0
 10
42.725891
 20
89.210280
 42
-0.016584
  0
VERTEX
  8
0
 10
42.334960
 20
93.485373
 42
-0.016336
  0
VERTEX
  8
0
 10
42.224649
 20
97.834874
 42
-0.013904
  0
VERTEX
  8
0
 10
42.385867
 20
102.423486
 42
0.002373
  0
VERTEX
  8
0
 10
42.649686
 20
106.952916
 42
0.000886
  0
VERTEX
  8
0
 10
42.978581
 20
113.313754
 42
0.000878
  0
VERTEX
  8
0
 10
43.312533
 20
120.246821
 42
0.001064
  0
VERTEX
  8
0
 10
43.600507
 20
126.750996
 42
0.006787
  0
VERTEX
  8
0
 10
43.957134
 20
139.241534
 42
0.121465
  0
VERTEX
  8
0
 10
43.060858
 20
143.125816
 42
0.276646
  0
VERTEX
  8
0
 10
40.630992
 20
144.657644
 42
0.043180
  0
SEQEND
  0
ENDSEC
  0
EOF
