  0
SECTION
  2
HEADER
  9
$ACADVER
  1
AC1006
  9
$EXTMIN
 10
0.000000
 20
0.000000
 30
0.000000
  9
$EXTMAX
 10
59.000000
 20
172.000000
 30
0.000000
  0
ENDSEC
  0
SECTION
  2
ENTITIES
  0
POLYLINE
  8
0
 66
1
 70
1
  0
VERTEX
  8
0
 10
10.321178
 20
170.811266
 42
0.064223
  0
VERTEX
  8
0
 10
9.411905
 20
170.217359
 42
0.036952
  0
VERTEX
  8
0
 10
8.480981
 20
169.295068
 42
0.036293
  0
VERTEX
  8
0
 10
7.668983
 20
168.212697
 42
0.049783
  0
VERTEX
  8
0
 10
7.116300
 20
167.128946
 42
0.078601
  0
VERTEX
  8
0
 10
6.688765
 20
165.173294
 42
0.002768
  0
VERTEX
  8
0
 10
6.279074
 20
157.423131
 42
0.005016
  0
VERTEX
  8
0
 10
5.933527
 20
148.149954
 42
0.003324
  0
VERTEX
  8
0
 10
5.714475
 20
137.500000
 42
-0.001717
  0
VERTEX
  8
0
 10
5.417400
 20
120.379497
 42
-0.016638
  0
VERTEX
  8
0
 10
5.025045
 20
113.128328
 42
-0.035507
  0
VERTEX
  8
0
 10
4.230116
 20
108.149076
 42
-0.025302
  0
VERTEX
  8
0
 10
2.669353
 20
102.719103
 42
0.017476
  0
VERTEX
  8
0
 10
1.214956
 20
97.941966
 42
0.033645
  0
VERTEX
  8
0
 10
0.446689
 20
94.017538
 42
0.025349
  0
VERTEX
  8
0
 10
0.095109
 20
89.361630
 42
0.006171
  0
VERTEX
  8
0
 10
0.000000
 20
81.655523
 42
0.009008
  0
VERTEX
  8
0
 10
0.106216
 20
75.760126
 42
0.005997
  0
VERTEX
  8
0
 10
0.430654
 20
69.009458
 42
0.006038
  0
VERTEX
  8
0
 10
0.903278
 20
62.464928
 42
0.011743
  0
VERTEX
  8
0
 10
1.466055
 20
57.257366
 42
-0.006336
  0
VERTEX
  8
0
 10
2.105433
 20
51.885436
 42
-0.002785
  0
VERTEX
  8
0
 10
2.822006
 20
44.759660
 42
-0.002755
  0
VERTEX
  8
0
 10
3.498473
 20
37.191248
 42
-0.003692
  0
VERTEX
  8
0
 10
4.023343
 20
30.320946
 42
0.006058
  0
VERTEX
  8
0
 10
4.938576
 20
19.043674
 42
0.028852
  0
VERTEX
  8
0
 10
5.909693
 20
12.652068
 42
0.047615
  0
VERTEX
  8
0
 10
7.345413
 20
8.069749
 42
0.043328
  0
VERTEX
  8
0
 10
9.657892
 20
3.685730
 42
0.000000
  0
VERTEX
  8
0
 10
12.113441
 20
-0.128540
 42
0.000000
  0
VERTEX
  8
0
 10
32.806720
 20
0.307084
 42
0.003825
  0
VERTEX
  8
0
 10
42.118820
 20
0.574399
 42
0.009149
  0
VERTEX
  8
0
 10
49.020766
 20
0.951936
 42
0.009231
  0
VERTEX
  8
0
 10
54.077209
 20
1.415407
 42
0.082341
  0
VERTEX
  8
0
 10
56.219350
 20
2.017904
 42
0.051042
  0
VERTEX
  8
0
 10
57.795072
 20
2.963471
 42
0.161793
  0
VERTEX
  8
0
 10
58.487926
 20
3.960061
 42
0.085670
  0
VERTEX
  8
0
 10
58.672487
 20
5.546920
 42
0.008436
  0
VERTEX
  8
0
 10
58.394805
 20
9.396550
 42
0.009846
  0
VERTEX
  8
0
 10
58.089024
 20
12.201919
 42
0.005440
  0
VERTEX
  8
0
 10
57.610825
 20
15.616487
 42
0.005422
  0
VERTEX
  8
0
 10
57.050742
 20
19.068102
 42
0.008681
  0
VERTEX
  8
0
 10
56.489705
 20
22.000000
 42
-0.014118
  0
VERTEX
  8
0
 10
55.888555
 20
25.337689
 42
-0.004683
  0
VERTEX
  8
0
 10
55.191531
 20
30.262500
 42
-0.004658
  0
VERTEX
  8
0
 10
54.520697
 20
35.737629
 42
-0.005281
  0
VERTEX
  8
0
 10
53.981868
 20
41.000000
 42
0.011075
  0
VERTEX
  8
0
 10
50.993352
 20
67.188652
 42
0.020606
  0
VERTEX
  8
0
 10
47.231760
 20
88.220753
 42
0.025439
  0
VERTEX
  8
0
 10
42.634924
 20
104.891748
 42
0.049983
  0
VERTEX
  8
0
 10
37.033755
 20
117.441003
 42
-0.033074
  0
VERTEX
  8
0
 10
34.238122
 20
123.176175
 42
-0.024524
  0
VERTEX
  8
0
 10
31.896556
 20
129.829540
 42
-0.023488
  0
VERTEX
  8
0
 10
30.117893
 20
137.023186
 42
-0.023158
  0
VERTEX
  8
0
 10
29.011765
 20
144.385973
 42
0.029973
  0
VERTEX
  8
0
 10
27.564238
 20
153.202200
 42
0.029410
  0
VERTEX
  8
0
 10
25.066827
 20
161.839472
 42
0.026782
  0
VERTEX
  8
0
 10
22.126554
 20
168.915444
 42
0.191546
  0
VERTEX
  8
0
 10
19.455198
 20
171.378819
 42
0.068400
  0
VERTEX
  8
0
 10
17.443844
 20
171.849382
 42
0.038842
  0
VERTEX
  8
0
 10
14.939815
 20
171.888417
 42
0.038483
  0
VERTEX
  8
0
 10
12.412419
 20
171.534868
 42
0.058671
  0
SEQEND
  0
ENDSEC
  0
EOF
