  0
SECTION
  2
HEADER
  9
$ACADVER
  1
AC1006
  9
$EXTMIN
 10
0.000000
 20
0.000000
 30
0.000000
  9
$EXTMAX
 10
231.000000
 20
102.000000
 30
0.000000
  0
ENDSEC
  0
SECTION
  2
ENTITIES
  0
POLYLINE
  8
0
 66
1
 70
1
  0
VERTEX
  8
0
 10
35.711226
 20
101.084378
 42
0.011493
  0
VERTEX
  8
0
 10
30.632040
 20
100.585673
 42
0.088109
  0
VERTEX
  8
0
 10
28.349926
 20
99.888172
 42
0.117597
  0
VERTEX
  8
0
 10
26.741085
 20
98.515079
 42
0.027019
  0
VERTEX
  8
0
 10
24.782252
 20
95.500000
 42
0.085232
  0
VERTEX
  8
0
 10
24.294546
 20
94.172471
 42
0.009107
  0
VERTEX
  8
0
 10
23.757010
 20
90.920319
 42
0.011007
  0
VERTEX
  8
0
 10
23.269215
 20
86.993201
 42
0.008643
  0
VERTEX
  8
0
 10
22.908050
 20
82.718108
 42
-0.006437
  0
VERTEX
  8
0
 10
22.381030
 20
76.133701
 42
-0.041834
  0
VERTEX
  8
0
 10
21.798125
 20
72.862915
 42
-0.065519
  0
VERTEX
  8
0
 10
20.778275
 20
70.387729
 42
-0.029227
  0
VERTEX
  8
0
 10
18.842311
 20
67.433593
 42
-0.004285
  0
VERTEX
  8
0
 10
13.650942
 20
60.563794
 42
-0.024964
  0
VERTEX
  8
0
 10
10.710389
 20
57.112154
 42
-0.043405
  0
VERTEX
  8
0
 10
8.214924
 20
54.885602
 42
-0.034029
  0
VERTEX
  8
0
 10
5.166895
 20
52.915858
 42
0.000000
  0
VERTEX
  8
0
 10
0.500000
 20
50.331716
 42
0.000000
  0
VERTEX
  8
0
 10
0.593778
 20
44.915858
 42
0.037541
  0
VERTEX
  8
0
 10
1.058674
 20
39.896633
 42
0.022059
  0
VERTEX
  8
0
 10
2.325078
 20
33.998923
 42
0.019386
  0
VERTEX
  8
0
 10
3.953292
 20
28.628902
 42
0.109913
  0
VERTEX
  8
0
 10
5.511265
 20
26.099764
 42
0.106394
  0
VERTEX
  8
0
 10
6.503504
 20
25.438632
 42
0.090532
  0
VERTEX
  8
0
 10
7.740118
 20
25.194146
 42
0.047007
  0
VERTEX
  8
0
 10
9.607833
 20
25.342623
 42
0.008960
  0
VERTEX
  8
0
 10
12.957244
 20
25.990927
 42
-0.047982
  0
VERTEX
  8
0
 10
21.306717
 20
26.940327
 42
-0.011817
  0
VERTEX
  8
0
 10
35.125192
 20
26.853230
 42
-0.005797
  0
VERTEX
  8
0
 10
49.408805
 20
26.259686
 42
-0.208735
  0
VERTEX
  8
0
 10
52.294786
 20
24.812949
 42
0.044532
  0
VERTEX
  8
0
 10
54.537082
 20
22.562367
 42
0.008110
  0
VERTEX
  8
0
 10
59.111324
 20
18.848064
 42
0.009326
  0
VERTEX
  8
0
 10
64.125384
 20
15.058869
 42
0.016164
  0
VERTEX
  8
0
 10
68.445781
 20
12.127336
 42
0.062188
  0
VERTEX
  8
0
 10
73.160079
 20
9.910048
 42
0.081849
  0
VERTEX
  8
0
 10
77.850359
 20
9.191182
 42
0.035884
  0
VERTEX
  8
0
 10
84.934205
 20
9.780410
 42
0.003660
  0
VERTEX
  8
0
 10
101.569876
 20
12.500000
 42
-0.004621
  0
VERTEX
  8
0
 10
113.476228
 20
14.422953
 42
-0.014611
  0
VERTEX
  8
0
 10
121.494851
 20
15.403362
 42
-0.016249
  0
VERTEX
  8
0
 10
129.096703
 20
15.859625
 42
-0.006863
  0
VERTEX
  8
0
 10
139.322839
 20
16.000000
 42
0.000000
  0
VERTEX
  8
0
 10
156.608439
 20
16.000000
 42
0.000000
  0
VERTEX
  8
0
 10
161.245899
 20
13.059010
 42
-0.011271
  0
VERTEX
  8
0
 10
163.412503
 20
11.615507
 42
-0.005392
  0
VERTEX
  8
0
 10
166.132771
 20
9.669215
 42
-0.005342
  0
VERTEX
  8
0
 10
168.930787
 20
7.575056
 42
-0.007585
  0
VERTEX
  8
0
 10
171.369882
 20
5.649185
 42
0.009385
  0
VERTEX
  8
0
 10
173.608987
 20
3.894275
 42
0.010982
  0
VERTEX
  8
0
 10
175.799760
 20
2.316914
 42
0.010006
  0
VERTEX
  8
0
 10
177.700530
 20
1.066010
 42
0.063764
  0
VERTEX
  8
0
 10
178.745840
 20
0.580667
 42
0.130663
  0
VERTEX
  8
0
 10
183.976997
 20
0.332117
 42
0.013490
  0
VERTEX
  8
0
 10
196.076789
 20
3.284858
 42
0.015497
  0
VERTEX
  8
0
 10
207.954129
 20
6.924150
 42
0.091355
  0
VERTEX
  8
0
 10
213.611406
 20
10.092459
 42
0.177084
  0
VERTEX
  8
0
 10
214.282826
 20
11.244884
 42
0.094684
  0
VERTEX
  8
0
 10
214.263125
 20
12.914399
 42
0.082335
  0
VERTEX
  8
0
 10
213.589104
 20
14.678802
 42
0.087439
  0
VERTEX
  8
0
 10
212.391935
 20
16.089686
 42
-0.124846
  0
VERTEX
  8
0
 10
211.814929
 20
16.881622
 42
-0.039694
  0
VERTEX
  8
0
 10
211.377479
 20
18.286260
 42
-0.033833
  0
VERTEX
  8
0
 10
211.093166
 20
20.106711
 42
-0.021825
  0
VERTEX
  8
0
 10
211.000000
 20
22.240092
 42
-0.025410
  0
VERTEX
  8
0
 10
211.150624
 20
25.202036
 42
-0.082059
  0
VERTEX
  8
0
 10
211.665837
 20
27.097731
 42
-0.073087
  0
VERTEX
  8
0
 10
212.797191
 20
28.843386
 42
-0.017439
  0
VERTEX
  8
0
 10
215.176398
 20
31.367647
 42
0.044745
  0
VERTEX
  8
0
 10
218.440975
 20
35.233527
 42
0.018992
  0
VERTEX
  8
0
 10
222.126241
 20
40.934525
 42
0.015335
  0
VERTEX
  8
0
 10
225.288532
 20
46.652047
 42
0.119196
  0
VERTEX
  8
0
 10
226.000000
 20
49.594102
 42
-0.137365
  0
VERTEX
  8
0
 10
226.178399
 20
50.231212
 42
-0.055580
  0
VERTEX
  8
0
 10
226.734375
 20
50.951903
 42
-0.049403
  0
VERTEX
  8
0
 10
227.543556
 20
51.638932
 42
-0.044451
  0
VERTEX
  8
0
 10
228.500000
 20
52.181954
 42
0.147712
  0
VERTEX
  8
0
 10
230.243064
 20
53.713301
 42
0.127331
  0
VERTEX
  8
0
 10
230.973767
 20
56.047635
 42
0.080309
  0
VERTEX
  8
0
 10
230.607861
 20
59.354202
 42
0.029485
  0
VERTEX
  8
0
 10
229.082849
 20
63.814619
 42
-0.009051
  0
VERTEX
  8
0
 10
228.301136
 20
65.828315
 42
-0.007436
  0
VERTEX
  8
0
 10
227.537755
 20
68.004919
 42
-0.007523
  0
VERTEX
  8
0
 10
226.896134
 20
70.026016
 42
-0.019703
  0
VERTEX
  8
0
 10
226.515126
 20
71.500000
 42
0.046685
  0
VERTEX
  8
0
 10
225.154206
 20
75.794997
 42
0.171644
  0
VERTEX
  8
0
 10
223.260880
 20
77.867986
 42
0.109336
  0
VERTEX
  8
0
 10
219.951623
 20
78.794127
 42
0.013770
  0
VERTEX
  8
0
 10
212.477392
 20
79.000000
 42
-0.018597
  0
VERTEX
  8
0
 10
204.200238
 20
79.307972
 42
-0.012938
  0
VERTEX
  8
0
 10
194.893062
 20
80.244207
 42
-0.012923
  0
VERTEX
  8
0
 10
186.182861
 20
81.578227
 42
-0.033158
  0
VERTEX
  8
0
 10
180.000000
 20
83.118246
 42
-0.026089
  0
VERTEX
  8
0
 10
178.442293
 20
83.709145
 42
-0.015409
  0
VERTEX
  8
0
 10
176.646875
 20
84.566602
 42
-0.015395
  0
VERTEX
  8
0
 10
174.902288
 20
85.535944
 42
-0.025396
  0
VERTEX
  8
0
 10
173.500000
 20
86.472260
 42
0.034263
  0
VERTEX
  8
0
 10
168.500957
 20
89.683569
 42
0.076669
  0
VERTEX
  8
0
 10
164.269951
 20
91.225439
 42
0.043900
  0
VERTEX
  8
0
 10
158.481662
 20
91.857012
 42
0.005448
  0
VERTEX
  8
0
 10
145.799660
 20
91.984379
 42
0.005635
  0
VERTEX
  8
0
 10
133.953068
 20
91.840741
 42
0.025222
  0
VERTEX
  8
0
 10
127.032000
 20
91.328848
 42
0.028107
  0
VERTEX
  8
0
 10
120.546213
 20
90.145563
 42
0.008160
  0
VERTEX
  8
0
 10
110.701210
 20
87.600477
 42
-0.028005
  0
VERTEX
  8
0
 10
107.654477
 20
86.940567
 42
-0.014128
  0
VERTEX
  8
0
 10
103.754928
 20
86.434512
 42
-0.013161
  0
VERTEX
  8
0
 10
99.387387
 20
86.108625
 42
-0.012040
  0
VERTEX
  8
0
 10
94.876973
 20
86.000000
 42
0.000000
  0
VERTEX
  8
0
 10
84.851525
 20
86.000000
 42
0.000000
  0
VERTEX
  8
0
 10
79.175763
 20
91.383570
 42
0.013978
  0
VERTEX
  8
0
 10
72.058900
 20
97.765776
 42
0.075352
  0
VERTEX
  8
0
 10
67.647324
 20
100.486674
 42
0.084482
  0
VERTEX
  8
0
 10
62.854766
 20
101.627394
 42
0.020006
  0
VERTEX
  8
0
 10
54.610453
 20
101.834378
 42
0.003539
  0
VERTEX
  8
0
 10
49.786914
 20
101.728323
 42
0.002651
  0
VERTEX
  8
0
 10
44.475743
 20
101.545747
 42
0.002679
  0
VERTEX
  8
0
 10
39.476718
 20
101.320533
 42
0.006127
  0
SEQEND
  0
ENDSEC
  0
EOF
