  0
SECTION
  2
HEADER
  9
$ACADVER
  1
AC1006
  9
$EXTMIN
 10
0.000000
 20
0.000000
 30
0.000000
  9
$EXTMAX
 10
334.000000
 20
517.000000
 30
0.000000
  0
ENDSEC
  0
SECTION
  2
ENTITIES
  0
POLYLINE
  8
0
 66
1
 70
1
  0
VERTEX
  8
0
 10
304.947266
 20
514.666231
 42
0.016560
  0
VERTEX
  8
0
 10
302.077598
 20
513.610935
 42
0.011087
  0
VERTEX
  8
0
 10
298.866138
 20
512.223975
 42
0.011171
  0
VERTEX
  8
0
 10
295.811013
 20
510.739897
 42
0.021521
  0
VERTEX
  8
0
 10
293.447266
 20
509.394111
 42
-0.005778
  0
VERTEX
  8
0
 10
291.077439
 20
507.944243
 42
-0.002726
  0
VERTEX
  8
0
 10
287.986704
 20
506.124834
 42
-0.002701
  0
VERTEX
  8
0
 10
284.729856
 20
504.254946
 42
-0.003809
  0
VERTEX
  8
0
 10
281.805344
 20
502.626120
 42
0.008823
  0
VERTEX
  8
0
 10
279.023689
 20
501.040100
 42
0.007962
  0
VERTEX
  8
0
 10
276.201765
 20
499.303094
 42
0.008003
  0
VERTEX
  8
0
 10
273.722832
 20
497.665846
 42
0.024956
  0
VERTEX
  8
0
 10
272.130337
 20
496.456218
 42
-0.038186
  0
VERTEX
  8
0
 10
270.520762
 20
495.299405
 42
-0.012613
  0
VERTEX
  8
0
 10
267.994673
 20
493.847653
 42
-0.012478
  0
VERTEX
  8
0
 10
265.102031
 20
492.373068
 42
-0.013840
  0
VERTEX
  8
0
 10
262.236655
 20
491.097589
 42
0.013780
  0
VERTEX
  8
0
 10
259.279830
 20
489.781832
 42
0.010452
  0
VERTEX
  8
0
 10
256.110419
 20
488.183262
 42
0.010590
  0
VERTEX
  8
0
 10
253.197588
 20
486.556906
 42
0.024131
  0
VERTEX
  8
0
 10
251.089462
 20
485.179766
 42
-0.039820
  0
VERTEX
  8
0
 10
246.670582
 20
482.486826
 42
-0.038091
  0
VERTEX
  8
0
 10
241.815797
 20
480.482309
 42
-0.040582
  0
VERTEX
  8
0
 10
237.183365
 20
479.376577
 42
-0.084862
  0
VERTEX
  8
0
 10
233.488545
 20
479.436171
 42
0.060294
  0
VERTEX
  8
0
 10
231.445155
 20
479.569186
 42
0.049682
  0
VERTEX
  8
0
 10
229.285435
 20
479.232340
 42
0.034442
  0
VERTEX
  8
0
 10
226.601902
 20
478.334521
 42
0.011398
  0
VERTEX
  8
0
 10
222.798044
 20
476.660801
 42
-0.017406
  0
VERTEX
  8
0
 10
218.999778
 20
475.043723
 42
-0.024340
  0
VERTEX
  8
0
 10
215.496609
 20
473.886628
 42
-0.025160
  0
VERTEX
  8
0
 10
211.990496
 20
473.102456
 42
-0.020702
  0
VERTEX
  8
0
 10
208.187203
 20
472.611683
 42
0.021677
  0
VERTEX
  8
0
 10
202.829762
 20
471.909748
 42
0.036011
  0
VERTEX
  8
0
 10
198.413509
 20
470.802692
 42
0.041437
  0
VERTEX
  8
0
 10
194.676810
 20
469.220924
 42
0.045846
  0
VERTEX
  8
0
 10
191.384973
 20
467.088180
 42
-0.038099
  0
VERTEX
  8
0
 10
190.092468
 20
466.222109
 42
-0.015208
  0
VERTEX
  8
0
 10
188.203869
 20
465.229791
 42
-0.014947
  0
VERTEX
  8
0
 10
186.093427
 20
464.278516
 42
-0.018227
  0
VERTEX
  8
0
 10
184.063700
 20
463.521158
 42
0.059408
  0
VERTEX
  8
0
 10
179.386688
 20
461.322979
 42
0.051185
  0
VERTEX
  8
0
 10
175.094982
 20
457.990003
 42
0.054825
  0
VERTEX
  8
0
 10
171.985424
 20
454.288150
 42
0.148354
  0
VERTEX
  8
0
 10
171.000000
 20
451.040055
 42
-0.013685
  0
VERTEX
  8
0
 10
170.968096
 20
449.874573
 42
-0.022483
  0
VERTEX
  8
0
 10
170.869916
 20
448.893016
 42
-0.018502
  0
VERTEX
  8
0
 10
170.731592
 20
448.139927
 42
-0.351529
  0
VERTEX
  8
0
 10
170.557160
 20
448.000000
 42
-0.116878
  0
VERTEX
  8
0
 10
170.262045
 20
448.069940
 42
-0.004201
  0
VERTEX
  8
0
 10
169.221971
 20
448.603250
 42
-0.007527
  0
VERTEX
  8
0
 10
167.999447
 20
449.266776
 42
-0.005183
  0
VERTEX
  8
0
 10
166.633697
 20
450.053618
 42
0.084315
  0
VERTEX
  8
0
 10
161.306692
 20
452.088037
 42
0.021322
  0
VERTEX
  8
0
 10
152.112959
 20
453.514618
 42
0.021747
  0
VERTEX
  8
0
 10
141.621228
 20
454.227223
 42
0.024363
  0
VERTEX
  8
0
 10
131.500000
 20
453.980343
 42
-0.021465
  0
VERTEX
  8
0
 10
129.600787
 20
453.923006
 42
-0.010237
  0
VERTEX
  8
0
 10
127.157995
 20
454.004176
 42
-0.010127
  0
VERTEX
  8
0
 10
124.605188
 20
454.193282
 42
-0.014185
  0
VERTEX
  8
0
 10
122.335728
 20
454.472839
 42
0.017258
  0
VERTEX
  8
0
 10
119.388280
 20
454.817541
 42
0.063919
  0
VERTEX
  8
0
 10
117.521947
 20
454.732085
 42
0.077737
  0
VERTEX
  8
0
 10
115.931473
 20
454.189827
 42
0.033771
  0
VERTEX
  8
0
 10
114.023450
 20
453.016698
 42
-0.053189
  0
VERTEX
  8
0
 10
112.120493
 20
451.946013
 42
-0.032012
  0
VERTEX
  8
0
 10
109.678006
 20
451.075916
 42
-0.025803
  0
VERTEX
  8
0
 10
106.599655
 20
450.366104
 42
-0.013680
  0
VERTEX
  8
0
 10
102.726024
 20
449.789894
 42
0.011550
  0
VERTEX
  8
0
 10
97.758241
 20
449.072540
 42
0.056970
  0
VERTEX
  8
0
 10
95.043895
 20
448.291064
 42
0.065968
  0
VERTEX
  8
0
 10
92.762242
 20
446.966784
 42
0.018672
  0
VERTEX
  8
0
 10
89.600957
 20
444.331134
 42
-0.016366
  0
VERTEX
  8
0
 10
85.587661
 20
440.953650
 42
-0.038461
  0
VERTEX
  8
0
 10
82.335154
 20
438.776056
 42
-0.042410
  0
VERTEX
  8
0
 10
78.988091
 20
437.247834
 42
-0.024223
  0
VERTEX
  8
0
 10
74.733300
 20
435.954429
 42
0.051257
  0
VERTEX
  8
0
 10
71.192897
 20
434.665695
 42
0.080964
  0
VERTEX
  8
0
 10
68.555848
 20
432.810423
 42
0.072765
  0
VERTEX
  8
0
 10
66.461789
 20
430.060669
 42
0.034105
  0
VERTEX
  8
0
 10
64.563033
 20
426.000000
 42
-0.020183
  0
VERTEX
  8
0
 10
62.921280
 20
422.218180
 42
-0.076219
  0
VERTEX
  8
0
 10
61.463495
 20
420.096788
 42
-0.067153
  0
VERTEX
  8
0
 10
59.346201
 20
418.375929
 42
-0.013440
  0
VERTEX
  8
0
 10
55.117702
 20
415.946465
 42
0.035081
  0
VERTEX
  8
0
 10
50.476765
 20
413.006046
 42
0.084793
  0
VERTEX
  8
0
 10
47.668318
 20
410.090751
 42
0.079013
  0
VERTEX
  8
0
 10
45.874450
 20
406.278888
 42
0.027561
  0
VERTEX
  8
0
 10
44.505275
 20
400.352518
 42
-0.015788
  0
VERTEX
  8
0
 10
43.727050
 20
396.581501
 42
-0.032030
  0
VERTEX
  8
0
 10
42.834863
 20
393.688347
 42
-0.038686
  0
VERTEX
  8
0
 10
41.716122
 20
391.315061
 42
-0.039772
  0
VERTEX
  8
0
 10
40.254046
 20
389.165673
 42
0.024390
  0
VERTEX
  8
0
 10
36.823981
 20
384.442076
 42
0.063645
  0
VERTEX
  8
0
 10
34.993458
 20
380.673565
 42
0.065589
  0
VERTEX
  8
0
 10
34.199378
 20
376.633301
 42
0.027172
  0
VERTEX
  8
0
 10
34.150590
 20
371.055197
 42
0.017165
  0
VERTEX
  8
0
 10
34.497645
 20
366.721435
 42
0.037005
  0
VERTEX
  8
0
 10
35.123616
 20
363.434927
 42
0.035401
  0
VERTEX
  8
0
 10
36.246515
 20
360.188021
 42
0.014469
  0
VERTEX
  8
0
 10
38.204902
 20
355.947775
 42
0.011442
  0
VERTEX
  8
0
 10
39.810123
 20
352.897935
 42
0.011095
  0
VERTEX
  8
0
 10
41.569112
 20
349.892792
 42
0.011067
  0
VERTEX
  8
0
 10
43.232485
 20
347.319735
 42
0.039692
  0
VERTEX
  8
0
 10
44.454902
 20
345.793644
 42
-0.010991
  0
VERTEX
  8
0
 10
45.429803
 20
344.710211
 42
-0.015198
  0
VERTEX
  8
0
 10
46.252377
 20
343.693722
 42
-0.011716
  0
VERTEX
  8
0
 10
46.882513
 20
342.823123
 42
-0.151925
  0
VERTEX
  8
0
 10
47.000000
 20
342.445387
 42
0.211778
  0
VERTEX
  8
0
 10
47.512913
 20
341.288729
 42
0.008412
  0
VERTEX
  8
0
 10
51.069740
 20
338.174212
 42
0.015304
  0
VERTEX
  8
0
 10
54.749809
 20
335.248068
 42
0.045188
  0
VERTEX
  8
0
 10
57.500000
 20
333.558710
 42
-0.017669
  0
VERTEX
  8
0
 10
59.047406
 20
332.721648
 42
-0.005079
  0
VERTEX
  8
0
 10
61.381250
 20
331.318368
 42
-0.005103
  0
VERTEX
  8
0
 10
63.982820
 20
329.681077
 42
-0.005409
  0
VERTEX
  8
0
 10
66.500000
 20
328.022009
 42
0.013594
  0
VERTEX
  8
0
 10
69.053911
 20
326.398056
 42
0.012474
  0
VERTEX
  8
0
 10
71.765625
 20
324.866091
 42
0.012586
  0
VERTEX
  8
0
 10
74.252833
 20
323.621000
 42
0.039509
  0
VERTEX
  8
0
 10
76.000000
 20
322.963406
 42
-0.055388
  0
VERTEX
  8
0
 10
77.676198
 20
322.271136
 42
-0.019804
  0
VERTEX
  8
0
 10
79.895607
 20
320.934932
 42
-0.019367
  0
VERTEX
  8
0
 10
82.234250
 20
319.264433
 42
-0.021685
  0
VERTEX
  8
0
 10
84.346747
 20
317.476587
 42
0.000000
  0
VERTEX
  8
0
 10
89.193494
 20
313.000000
 42
0.000000
  0
VERTEX
  8
0
 10
83.346747
 20
312.881685
 42
0.012515
  0
VERTEX
  8
0
 10
77.179327
 20
312.602349
 42
0.064551
  0
VERTEX
  8
0
 10
73.836189
 20
311.927404
 42
0.136149
  0
VERTEX
  8
0
 10
72.027212
 20
310.693087
 42
0.147729
  0
VERTEX
  8
0
 10
71.183137
 20
308.740687
 42
0.089740
  0
VERTEX
  8
0
 10
71.325292
 20
306.532092
 42
0.121114
  0
VERTEX
  8
0
 10
72.253943
 20
304.767022
 42
0.075542
  0
VERTEX
  8
0
 10
74.275100
 20
303.083145
 42
0.018626
  0
VERTEX
  8
0
 10
78.062688
 20
300.981549
 42
-0.007835
  0
VERTEX
  8
0
 10
79.798691
 20
300.066723
 42
-0.010459
  0
VERTEX
  8
0
 10
81.343415
 20
299.179031
 42
-0.007924
  0
VERTEX
  8
0
 10
82.599193
 20
298.394614
 42
-0.098715
  0
VERTEX
  8
0
 10
83.000000
 20
298.005198
 42
0.088868
  0
VERTEX
  8
0
 10
83.368972
 20
297.632436
 42
0.011391
  0
VERTEX
  8
0
 10
84.307812
 20
297.003210
 42
0.013027
  0
VERTEX
  8
0
 10
85.468947
 20
296.304629
 42
0.010519
  0
VERTEX
  8
0
 10
86.750000
 20
295.613852
 42
-0.005345
  0
VERTEX
  8
0
 10
89.690841
 20
294.067135
 42
-0.450971
  0
VERTEX
  8
0
 10
89.793289
 20
293.626814
 42
-0.299816
  0
VERTEX
  8
0
 10
89.256405
 20
293.418887
 42
-0.004320
  0
VERTEX
  8
0
 10
85.750000
 20
294.209326
 42
0.058267
  0
VERTEX
  8
0
 10
80.164174
 20
294.848659
 42
0.008804
  0
VERTEX
  8
0
 10
68.892845
 20
294.622664
 42
0.009030
  0
VERTEX
  8
0
 10
54.690298
 20
293.830566
 42
0.005553
  0
VERTEX
  8
0
 10
38.000000
 20
292.410480
 42
0.007530
  0
VERTEX
  8
0
 10
25.343733
 20
290.999230
 42
0.058407
  0
VERTEX
  8
0
 10
19.579590
 20
289.571597
 42
0.112851
  0
VERTEX
  8
0
 10
15.994274
 20
287.200916
 42
0.062529
  0
VERTEX
  8
0
 10
12.858729
 20
282.962432
 42
-0.021305
  0
VERTEX
  8
0
 10
11.918666
 20
281.444986
 42
-0.028726
  0
VERTEX
  8
0
 10
10.935337
 20
280.163964
 42
-0.028644
  0
VERTEX
  8
0
 10
10.032717
 20
279.231967
 42
-0.188211
  0
VERTEX
  8
0
 10
9.438304
 20
279.000000
 42
0.219227
  0
VERTEX
  8
0
 10
7.769266
 20
278.231257
 42
0.106076
  0
VERTEX
  8
0
 10
6.625274
 20
276.118060
 42
0.050350
  0
VERTEX
  8
0
 10
5.898711
 20
272.218479
 42
0.011570
  0
VERTEX
  8
0
 10
5.493706
 20
265.527149
 42
-0.008799
  0
VERTEX
  8
0
 10
5.176530
 20
259.756973
 42
-0.026834
  0
VERTEX
  8
0
 10
4.682968
 20
255.865755
 42
-0.035265
  0
VERTEX
  8
0
 10
3.866572
 20
252.672793
 42
-0.027134
  0
VERTEX
  8
0
 10
2.548316
 20
249.324570
 42
0.043473
  0
VERTEX
  8
0
 10
0.559459
 20
243.745519
 42
0.069099
  0
VERTEX
  8
0
 10
-0.034187
 20
238.719510
 42
0.076757
  0
VERTEX
  8
0
 10
0.774053
 20
234.111229
 42
0.069183
  0
VERTEX
  8
0
 10
2.947283
 20
229.779236
 42
-0.020768
  0
VERTEX
  8
0
 10
5.189870
 20
226.214925
 42
-0.090447
  0
VERTEX
  8
0
 10
6.017438
 20
223.872915
 42
-0.079413
  0
VERTEX
  8
0
 10
6.019450
 20
221.243579
 42
-0.013884
  0
VERTEX
  8
0
 10
5.102840
 20
216.358975
 42
0.043004
  0
VERTEX
  8
0
 10
4.422938
 20
211.047218
 42
0.079431
  0
VERTEX
  8
0
 10
4.930524
 20
206.735268
 42
0.081874
  0
VERTEX
  8
0
 10
6.739764
 20
202.883097
 42
0.048269
  0
VERTEX
  8
0
 10
10.019201
 20
198.981180
 42
-0.026647
  0
VERTEX
  8
0
 10
11.980541
 20
196.842258
 42
-0.057860
  0
VERTEX
  8
0
 10
13.187622
 20
194.972417
 42
-0.056678
  0
VERTEX
  8
0
 10
13.948532
 20
192.851196
 42
-0.024656
  0
VERTEX
  8
0
 10
14.490906
 20
189.902082
 42
0.039891
  0
VERTEX
  8
0
 10
15.682295
 20
184.375254
 42
0.076919
  0
VERTEX
  8
0
 10
17.628753
 20
180.300007
 42
0.081618
  0
VERTEX
  8
0
 10
20.627117
 20
177.157962
 42
0.050057
  0
VERTEX
  8
0
 10
25.012376
 20
174.494085
 42
-0.033866
  0
VERTEX
  8
0
 10
28.674962
 20
172.428219
 42
-0.070978
  0
VERTEX
  8
0
 10
31.121776
 20
170.269237
 42
-0.089550
  0
VERTEX
  8
0
 10
32.515526
 20
167.876624
 42
-0.087433
  0
VERTEX
  8
0
 10
33.000000
 20
165.127261
 42
0.156962
  0
VERTEX
  8
0
 10
33.647901
 20
163.114225
 42
0.073948
  0
VERTEX
  8
0
 10
35.570998
 20
161.132530
 42
0.064466
  0
VERTEX
  8
0
 10
38.330700
 20
159.537653
 42
0.061087
  0
VERTEX
  8
0
 10
41.456183
 20
158.661708
 42
-0.046240
  0
VERTEX
  8
0
 10
43.595590
 20
158.129895
 42
-0.061146
  0
VERTEX
  8
0
 10
45.394786
 20
157.242525
 42
-0.050214
  0
VERTEX
  8
0
 10
47.171527
 20
155.803742
 42
-0.020631
  0
VERTEX
  8
0
 10
49.283989
 20
153.529412
 42
0.017989
  0
VERTEX
  8
0
 10
51.343422
 20
151.288553
 42
0.052047
  0
VERTEX
  8
0
 10
52.969699
 20
149.952913
 42
0.073122
  0
VERTEX
  8
0
 10
54.486282
 20
149.243372
 42
0.073034
  0
VERTEX
  8
0
 10
56.143547
 20
149.000000
 42
-0.056469
  0
VERTEX
  8
0
 10
58.832587
 20
148.695331
 42
-0.063002
  0
VERTEX
  8
0
 10
61.281239
 20
147.797408
 42
-0.056132
  0
VERTEX
  8
0
 10
63.645251
 20
146.216423
 42
-0.033205
  0
VERTEX
  8
0
 10
66.089199
 20
143.856113
 42
0.039609
  0
VERTEX
  8
0
 10
67.752585
 20
142.290276
 42
0.090162
  0
VERTEX
  8
0
 10
69.264372
 20
141.471857
 42
0.065463
  0
VERTEX
  8
0
 10
71.257550
 20
141.097603
 42
0.013718
  0
VERTEX
  8
0
 10
74.814448
 20
141.000000
 42
0.000000
  0
VERTEX
  8
0
 10
80.950498
 20
141.000000
 42
0.000000
  0
VERTEX
  8
0
 10
79.975249
 20
138.434900
 42
0.069439
  0
VERTEX
  8
0
 10
79.088579
 20
134.554921
 42
0.034480
  0
VERTEX
  8
0
 10
79.002222
 20
129.498957
 42
0.033461
  0
VERTEX
  8
0
 10
79.574755
 20
124.700358
 42
0.118037
  0
VERTEX
  8
0
 10
80.834221
 20
121.884859
 42
-0.016084
  0
VERTEX
  8
0
 10
81.645954
 20
120.756099
 42
-0.008706
  0
VERTEX
  8
0
 10
82.574771
 20
119.319302
 42
-0.008664
  0
VERTEX
  8
0
 10
83.470411
 20
117.822213
 42
-0.013520
  0
VERTEX
  8
0
 10
84.183783
 20
116.500000
 42
0.005220
  0
VERTEX
  8
0
 10
88.332854
 20
108.494669
 42
0.024817
  0
VERTEX
  8
0
 10
90.976263
 20
104.067102
 42
0.043934
  0
VERTEX
  8
0
 10
93.188285
 20
101.307338
 42
0.066173
  0
VERTEX
  8
0
 10
95.591524
 20
99.383089
 42
-0.039030
  0
VERTEX
  8
0
 10
99.715273
 20
96.432698
 42
-0.020690
  0
VERTEX
  8
0
 10
104.357070
 20
92.190710
 42
-0.020590
  0
VERTEX
  8
0
 10
108.542184
 20
87.678653
 42
-0.048692
  0
VERTEX
  8
0
 10
111.163561
 20
83.922772
 42
0.013548
  0
VERTEX
  8
0
 10
112.062690
 20
82.419827
 42
0.019806
  0
VERTEX
  8
0
 10
112.940733
 20
81.152314
 42
0.015767
  0
VERTEX
  8
0
 10
113.719745
 20
80.182980
 42
0.218977
  0
VERTEX
  8
0
 10
114.117518
 20
80.000000
 42
-0.175906
  0
VERTEX
  8
0
 10
114.579738
 20
79.832192
 42
-0.006523
  0
VERTEX
  8
0
 10
116.009162
 20
78.604687
 42
-0.011148
  0
VERTEX
  8
0
 10
117.673400
 20
77.070105
 42
-0.007529
  0
VERTEX
  8
0
 10
119.505039
 20
75.250000
 42
-0.039400
  0
VERTEX
  8
0
 10
122.607104
 20
71.527534
 42
-0.022276
  0
VERTEX
  8
0
 10
125.785356
 20
66.584648
 42
-0.019467
  0
VERTEX
  8
0
 10
128.358869
 20
61.736025
 42
-0.112732
  0
VERTEX
  8
0
 10
129.000000
 20
58.928551
 42
0.112867
  0
VERTEX
  8
0
 10
129.118675
 20
58.409520
 42
0.026376
  0
VERTEX
  8
0
 10
129.551273
 20
57.621979
 42
0.025882
  0
VERTEX
  8
0
 10
130.158321
 20
56.747476
 42
0.022873
  0
VERTEX
  8
0
 10
130.876673
 20
55.902001
 42
-0.056310
  0
VERTEX
  8
0
 10
133.357707
 20
52.552425
 42
-0.019528
  0
VERTEX
  8
0
 10
136.170475
 20
47.227470
 42
-0.019739
  0
VERTEX
  8
0
 10
138.716139
 20
41.329248
 42
-0.029303
  0
VERTEX
  8
0
 10
140.429016
 20
35.970615
 42
0.010851
  0
VERTEX
  8
0
 10
141.638020
 20
31.644192
 42
0.029221
  0
VERTEX
  8
0
 10
142.740390
 20
28.648651
 42
0.020788
  0
VERTEX
  8
0
 10
144.376182
 20
25.284830
 42
0.003391
  0
VERTEX
  8
0
 10
147.859789
 20
18.922830
 42
0.061070
  0
VERTEX
  8
0
 10
152.734587
 20
12.233297
 42
0.047894
  0
VERTEX
  8
0
 10
159.469331
 20
6.286430
 42
0.049962
  0
VERTEX
  8
0
 10
166.700741
 20
2.070815
 42
0.105994
  0
VERTEX
  8
0
 10
173.000000
 20
0.683619
 42
0.070377
  0
VERTEX
  8
0
 10
177.312507
 20
1.269221
 42
0.041917
  0
VERTEX
  8
0
 10
182.171684
 20
3.094199
 42
0.040374
  0
VERTEX
  8
0
 10
186.908283
 20
5.829901
 42
0.047492
  0
VERTEX
  8
0
 10
190.871923
 20
9.164219
 42
0.052235
  0
VERTEX
  8
0
 10
194.461400
 20
13.675155
 42
0.012340
  0
VERTEX
  8
0
 10
199.441953
 20
21.926275
 42
0.013367
  0
VERTEX
  8
0
 10
204.249761
 20
30.903898
 42
0.024439
  0
VERTEX
  8
0
 10
207.606201
 20
38.500000
 42
0.014373
  0
VERTEX
  8
0
 10
211.313993
 20
49.033559
 42
0.012083
  0
VERTEX
  8
0
 10
214.647159
 20
60.387623
 42
0.012055
  0
VERTEX
  8
0
 10
217.436560
 20
71.922435
 42
0.014072
  0
VERTEX
  8
0
 10
219.509833
 20
83.000000
 42
0.006266
  0
VERTEX
  8
0
 10
222.851160
 20
105.987182
 42
0.012263
  0
VERTEX
  8
0
 10
224.832488
 20
124.383525
 42
0.014450
  0
VERTEX
  8
0
 10
225.710563
 20
140.668538
 42
0.014389
  0
VERTEX
  8
0
 10
225.648406
 20
157.000000
 42
0.005719
  0
VERTEX
  8
0
 10
225.313808
 20
164.596091
 42
0.005858
  0
VERTEX
  8
0
 10
224.807499
 20
172.121875
 42
0.005695
  0
VERTEX
  8
0
 10
224.217289
 20
178.641564
 42
0.024381
  0
VERTEX
  8
0
 10
223.632476
 20
182.500000
 42
-0.000281
  0
VERTEX
  8
0
 10
222.970738
 20
185.787886
 42
-0.000141
  0
VERTEX
  8
0
 10
222.138583
 20
189.940625
 42
-0.000140
  0
VERTEX
  8
0
 10
221.280485
 20
194.235378
 42
-0.000208
  0
VERTEX
  8
0
 10
220.531031
 20
198.000000
 42
0.026310
  0
VERTEX
  8
0
 10
217.308379
 20
210.689707
 42
0.016908
  0
VERTEX
  8
0
 10
212.312307
 20
225.035728
 42
0.016985
  0
VERTEX
  8
0
 10
206.436413
 20
238.821985
 42
0.029587
  0
VERTEX
  8
0
 10
200.522724
 20
249.750000
 42
-0.005188
  0
VERTEX
  8
0
 10
198.881937
 20
252.457660
 42
-0.097173
  0
VERTEX
  8
0
 10
198.550614
 20
253.392237
 42
-0.373739
  0
VERTEX
  8
0
 10
198.841666
 20
253.847948
 42
-0.071897
  0
VERTEX
  8
0
 10
199.893630
 20
254.000000
 42
-0.060542
  0
VERTEX
  8
0
 10
200.720649
 20
253.899493
 42
-0.051951
  0
VERTEX
  8
0
 10
201.545976
 20
253.602258
 42
-0.054481
  0
VERTEX
  8
0
 10
202.246979
 20
253.164380
 42
-0.092794
  0
VERTEX
  8
0
 10
202.700310
 20
252.645985
 42
0.141939
  0
VERTEX
  8
0
 10
204.919205
 20
250.556718
 42
0.070220
  0
VERTEX
  8
0
 10
208.607619
 20
249.280494
 42
0.067762
  0
VERTEX
  8
0
 10
212.682408
 20
249.045576
 42
0.103787
  0
VERTEX
  8
0
 10
216.065832
 20
250.035232
 42
-0.206830
  0
VERTEX
  8
0
 10
217.311764
 20
250.139496
 42
-0.149002
  0
VERTEX
  8
0
 10
218.461442
 20
249.318303
 42
-0.045417
  0
VERTEX
  8
0
 10
219.909146
 20
247.029318
 42
-0.004636
  0
VERTEX
  8
0
 10
222.783048
 20
241.285232
 42
-0.006858
  0
VERTEX
  8
0
 10
225.707102
 20
235.088924
 42
-0.017052
  0
VERTEX
  8
0
 10
227.627344
 20
230.458307
 42
-0.015672
  0
VERTEX
  8
0
 10
229.317401
 20
225.486244
 42
-0.005019
  0
VERTEX
  8
0
 10
231.521092
 20
218.000000
 42
-0.010836
  0
VERTEX
  8
0
 10
233.388268
 20
210.824538
 42
-0.009644
  0
VERTEX
  8
0
 10
235.022365
 20
203.291448
 42
-0.008602
  0
VERTEX
  8
0
 10
236.522197
 20
194.912414
 42
-0.005543
  0
VERTEX
  8
0
 10
237.985100
 20
185.155968
 42
0.003072
  0
VERTEX
  8
0
 10
238.820933
 20
179.387353
 42
0.003579
  0
VERTEX
  8
0
 10
239.688075
 20
173.916465
 42
0.003179
  0
VERTEX
  8
0
 10
240.483942
 20
169.299755
 42
0.021494
  0
VERTEX
  8
0
 10
240.990168
 20
167.036515
 42
0.046916
  0
VERTEX
  8
0
 10
242.317296
 20
163.476142
 42
0.061970
  0
VERTEX
  8
0
 10
244.196492
 20
160.572166
 42
0.074567
  0
VERTEX
  8
0
 10
246.369839
 20
158.651279
 42
0.144737
  0
VERTEX
  8
0
 10
248.572580
 20
158.000000
 42
0.057053
  0
VERTEX
  8
0
 10
249.897261
 20
158.151649
 42
0.196048
  0
VERTEX
  8
0
 10
250.590301
 20
158.641362
 42
0.124669
  0
VERTEX
  8
0
 10
250.921856
 20
159.640525
 42
0.018087
  0
VERTEX
  8
0
 10
251.000000
 20
161.800000
 42
0.020141
  0
VERTEX
  8
0
 10
250.938568
 20
163.324454
 42
0.023448
  0
VERTEX
  8
0
 10
250.754267
 20
164.762812
 42
0.023332
  0
VERTEX
  8
0
 10
250.487818
 20
165.948871
 42
0.114075
  0
VERTEX
  8
0
 10
250.163462
 20
166.550000
 42
-0.079476
  0
VERTEX
  8
0
 10
248.784352
 20
168.733398
 42
-0.011571
  0
VERTEX
  8
0
 10
246.822728
 20
173.622000
 42
-0.014060
  0
VERTEX
  8
0
 10
245.014927
 20
178.894069
 42
-0.026684
  0
VERTEX
  8
0
 10
243.909960
 20
183.242045
 42
-0.004880
  0
VERTEX
  8
0
 10
243.414952
 20
185.876247
 42
-0.001801
  0
VERTEX
  8
0
 10
242.766726
 20
189.599226
 42
-0.001785
  0
VERTEX
  8
0
 10
242.088176
 20
193.668893
 42
-0.002147
  0
VERTEX
  8
0
 10
241.480332
 20
197.500000
 42
0.005595
  0
VERTEX
  8
0
 10
240.807070
 20
201.562229
 42
0.003394
  0
VERTEX
  8
0
 10
239.924266
 20
206.353125
 42
0.003400
  0
VERTEX
  8
0
 10
238.983538
 20
211.095814
 42
0.005985
  0
VERTEX
  8
0
 10
238.132671
 20
215.000000
 42
0.010884
  0
VERTEX
  8
0
 10
236.762650
 20
220.403348
 42
0.012640
  0
VERTEX
  8
0
 10
235.219075
 20
225.476518
 42
0.009367
  0
VERTEX
  8
0
 10
233.072656
 20
231.556429
 42
0.003008
  0
VERTEX
  8
0
 10
229.664078
 20
240.500000
 42
0.018733
  0
VERTEX
  8
0
 10
229.001875
 20
242.033646
 42
0.005712
  0
VERTEX
  8
0
 10
227.887260
 20
244.303363
 42
0.005710
  0
VERTEX
  8
0
 10
226.579632
 20
246.819188
 42
0.006208
  0
VERTEX
  8
0
 10
225.250000
 20
249.234851
 42
-0.003251
  0
VERTEX
  8
0
 10
224.004459
 20
251.466395
 42
-0.004949
  0
VERTEX
  8
0
 10
222.954688
 20
253.421872
 42
-0.001947
  0
VERTEX
  8
0
 10
222.079224
 20
255.108059
 42
-0.119309
  0
VERTEX
  8
0
 10
222.000000
 20
255.435343
 42
-0.398756
  0
VERTEX
  8
0
 10
222.173266
 20
255.618055
 42
-0.004054
  0
VERTEX
  8
0
 10
224.112829
 20
255.705307
 42
-0.010114
  0
VERTEX
  8
0
 10
226.434657
 20
255.743899
 42
-0.006065
  0
VERTEX
  8
0
 10
229.192609
 20
255.700492
 42
0.000000
  0
VERTEX
  8
0
 10
236.385218
 20
255.500000
 42
0.000000
  0
VERTEX
  8
0
 10
237.303478
 20
259.298751
 42
0.075816
  0
VERTEX
  8
0
 10
237.567139
 20
262.362975
 42
0.134523
  0
VERTEX
  8
0
 10
236.744513
 20
264.741723
 42
0.126906
  0
VERTEX
  8
0
 10
234.778453
 20
266.458955
 42
0.063678
  0
VERTEX
  8
0
 10
231.646308
 20
267.560916
 42
-0.012213
  0
VERTEX
  8
0
 10
228.427117
 20
268.333504
 42
-0.286985
  0
VERTEX
  8
0
 10
227.814681
 20
268.988432
 42
-0.313968
  0
VERTEX
  8
0
 10
228.161701
 20
269.774975
 42
-0.013733
  0
VERTEX
  8
0
 10
230.907105
 20
271.344627
 42
0.030640
  0
VERTEX
  8
0
 10
237.768533
 20
275.581439
 42
0.016723
  0
VERTEX
  8
0
 10
245.660482
 20
281.554552
 42
0.015476
  0
VERTEX
  8
0
 10
253.982790
 20
288.740744
 42
0.013740
  0
VERTEX
  8
0
 10
262.190813
 20
296.710965
 42
-0.000115
  0
VERTEX
  8
0
 10
266.923977
 20
301.564449
 42
-0.000106
  0
VERTEX
  8
0
 10
271.793551
 20
306.553385
 42
-0.000106
  0
VERTEX
  8
0
 10
276.137750
 20
311.000292
 42
-0.000351
  0
VERTEX
  8
0
 10
279.000000
 20
313.924861
 42
-0.025238
  0
VERTEX
  8
0
 10
282.097551
 20
316.781729
 42
-0.021519
  0
VERTEX
  8
0
 10
285.631700
 20
319.476797
 42
-0.019128
  0
VERTEX
  8
0
 10
289.781966
 20
322.138280
 42
-0.012532
  0
VERTEX
  8
0
 10
294.750000
 20
324.897059
 42
0.005048
  0
VERTEX
  8
0
 10
300.835502
 20
328.158184
 42
0.043674
  0
VERTEX
  8
0
 10
303.390832
 20
329.866635
 42
0.108069
  0
VERTEX
  8
0
 10
304.577104
 20
331.336975
 42
0.116415
  0
VERTEX
  8
0
 10
305.000000
 20
333.128697
 42
0.037324
  0
VERTEX
  8
0
 10
304.875499
 20
334.794225
 42
0.197546
  0
VERTEX
  8
0
 10
304.415225
 20
335.563308
 42
0.144109
  0
VERTEX
  8
0
 10
303.451366
 20
335.920817
 42
0.017236
  0
VERTEX
  8
0
 10
301.155036
 20
336.000000
 42
0.114352
  0
VERTEX
  8
0
 10
296.159662
 20
334.842402
 42
0.040754
  0
VERTEX
  8
0
 10
289.827164
 20
331.073212
 42
0.030988
  0
VERTEX
  8
0
 10
282.192771
 20
324.895636
 42
0.014205
  0
VERTEX
  8
0
 10
273.000000
 20
315.969644
 42
0.000948
  0
VERTEX
  8
0
 10
268.377121
 20
311.200408
 42
0.001100
  0
VERTEX
  8
0
 10
263.996875
 20
306.644280
 42
0.000978
  0
VERTEX
  8
0
 10
260.304943
 20
302.772011
 42
0.006561
  0
VERTEX
  8
0
 10
258.500000
 20
300.820826
 42
-0.028241
  0
VERTEX
  8
0
 10
253.554495
 20
295.918946
 42
-0.007444
  0
VERTEX
  8
0
 10
245.100084
 20
288.657810
 42
-0.007725
  0
VERTEX
  8
0
 10
236.326482
 20
281.573432
 42
-0.022691
  0
VERTEX
  8
0
 10
230.002136
 20
277.073192
 42
0.000000
  0
VERTEX
  8
0
 10
223.504271
 20
272.880005
 42
0.000000
  0
VERTEX
  8
0
 10
222.837297
 20
276.141147
 42
0.068023
  0
VERTEX
  8
0
 10
221.949162
 20
278.671361
 42
0.099522
  0
VERTEX
  8
0
 10
220.484350
 20
280.513442
 42
0.101755
  0
VERTEX
  8
0
 10
218.448288
 20
281.619910
 42
0.073878
  0
VERTEX
  8
0
 10
215.889910
 20
282.000000
 42
-0.079400
  0
VERTEX
  8
0
 10
213.492117
 20
282.383185
 42
-0.032078
  0
VERTEX
  8
0
 10
210.407786
 20
283.618935
 42
-0.026219
  0
VERTEX
  8
0
 10
207.636537
 20
285.124359
 42
-0.258589
  0
VERTEX
  8
0
 10
207.006323
 20
286.238839
 42
-0.262030
  0
VERTEX
  8
0
 10
207.233435
 20
286.650662
 42
-0.004873
  0
VERTEX
  8
0
 10
209.425295
 20
287.978066
 42
-0.010596
  0
VERTEX
  8
0
 10
212.088140
 20
289.480145
 42
-0.006719
  0
VERTEX
  8
0
 10
215.250000
 20
291.122091
 42
0.009921
  0
VERTEX
  8
0
 10
221.378731
 20
294.354723
 42
0.009098
  0
VERTEX
  8
0
 10
227.556080
 20
297.919633
 42
0.008265
  0
VERTEX
  8
0
 10
232.879312
 20
301.243184
 42
0.044626
  0
VERTEX
  8
0
 10
235.562636
 20
303.342341
 42
-0.011936
  0
VERTEX
  8
0
 10
236.268052
 20
303.972583
 42
-0.002494
  0
VERTEX
  8
0
 10
237.535931
 20
305.041188
 42
-0.002615
  0
VERTEX
  8
0
 10
239.020313
 20
306.266546
 42
-0.002470
  0
VERTEX
  8
0
 10
240.545844
 20
307.500000
 42
0.015366
  0
VERTEX
  8
0
 10
247.744753
 20
313.634255
 42
0.009456
  0
VERTEX
  8
0
 10
255.852067
 20
321.268550
 42
0.009310
  0
VERTEX
  8
0
 10
263.295472
 20
328.824289
 42
0.025681
  0
VERTEX
  8
0
 10
268.153613
 20
334.500000
 42
-0.008193
  0
VERTEX
  8
0
 10
269.280314
 20
335.913483
 42
-0.003798
  0
VERTEX
  8
0
 10
270.787583
 20
337.714062
 42
-0.003761
  0
VERTEX
  8
0
 10
272.399874
 20
339.581984
 42
-0.005228
  0
VERTEX
  8
0
 10
273.873733
 20
341.228722
 42
0.006658
  0
VERTEX
  8
0
 10
275.292308
 20
342.822838
 42
0.005791
  0
VERTEX
  8
0
 10
276.736377
 20
344.529319
 42
0.005834
  0
VERTEX
  8
0
 10
278.007200
 20
346.103896
 42
0.017055
  0
VERTEX
  8
0
 10
278.832981
 20
347.228722
 42
-0.008512
  0
VERTEX
  8
0
 10
279.474746
 20
348.134947
 42
-0.009696
  0
VERTEX
  8
0
 10
280.120402
 20
348.979687
 42
-0.008970
  0
VERTEX
  8
0
 10
280.693975
 20
349.674732
 42
-0.052501
  0
VERTEX
  8
0
 10
281.037564
 20
350.000000
 42
0.069876
  0
VERTEX
  8
0
 10
281.443164
 20
350.411510
 42
0.002370
  0
VERTEX
  8
0
 10
282.792907
 20
352.247641
 42
0.004427
  0
VERTEX
  8
0
 10
284.360537
 20
354.442069
 42
0.003069
  0
VERTEX
  8
0
 10
286.095529
 20
356.949415
 42
0.020344
  0
VERTEX
  8
0
 10
296.444778
 20
373.512140
 42
0.013557
  0
VERTEX
  8
0
 10
306.991597
 20
393.252127
 42
0.013369
  0
VERTEX
  8
0
 10
316.676599
 20
413.993517
 42
0.017030
  0
VERTEX
  8
0
 10
324.430091
 20
433.629972
 42
0.030510
  0
VERTEX
  8
0
 10
329.848013
 20
452.400431
 42
0.029418
  0
VERTEX
  8
0
 10
333.021864
 20
471.920465
 42
0.031122
  0
VERTEX
  8
0
 10
333.740384
 20
489.809971
 42
0.067666
  0
VERTEX
  8
0
 10
331.592869
 20
503.357678
 42
0.040988
  0
VERTEX
  8
0
 10
329.709593
 20
508.152470
 42
0.066200
  0
VERTEX
  8
0
 10
327.279596
 20
511.794342
 42
0.075685
  0
VERTEX
  8
0
 10
324.254235
 20
514.337966
 42
0.075481
  0
VERTEX
  8
0
 10
320.606264
 20
515.868925
 42
0.024693
  0
VERTEX
  8
0
 10
316.552869
 20
516.679196
 42
0.056203
  0
VERTEX
  8
0
 10
313.437161
 20
516.790268
 42
0.047319
  0
VERTEX
  8
0
 10
310.061967
 20
516.206642
 42
0.013372
  0
SEQEND
  0
POLYLINE
  8
0
 66
1
 70
1
  0
VERTEX
  8
0
 10
311.372659
 20
474.750000
 42
-0.003052
  0
VERTEX
  8
0
 10
310.727517
 20
470.703298
 42
-0.285361
  0
VERTEX
  8
0
 10
310.351790
 20
470.275033
 42
-0.498792
  0
VERTEX
  8
0
 10
310.028247
 20
470.511257
 42
-0.003695
  0
VERTEX
  8
0
 10
310.000000
 20
474.333333
 42
-0.020430
  0
VERTEX
  8
0
 10
310.073117
 20
476.122007
 42
-0.032963
  0
VERTEX
  8
0
 10
310.297221
 20
477.629167
 42
-0.035626
  0
VERTEX
  8
0
 10
310.618411
 20
478.726548
 42
-0.313406
  0
VERTEX
  8
0
 10
311.011818
 20
479.000000
 42
-0.319042
  0
VERTEX
  8
0
 10
311.392683
 20
478.729435
 42
-0.062772
  0
VERTEX
  8
0
 10
311.577910
 20
477.860753
 42
-0.041455
  0
VERTEX
  8
0
 10
311.580366
 20
476.524726
 42
-0.017743
  0
SEQEND
  0
POLYLINE
  8
0
 66
1
 70
1
  0
VERTEX
  8
0
 10
231.000000
 20
441.606989
 42
-0.225200
  0
VERTEX
  8
0
 10
230.911231
 20
441.419896
 42
-0.029412
  0
VERTEX
  8
0
 10
230.544118
 20
441.154486
 42
-0.029555
  0
VERTEX
  8
0
 10
230.042538
 20
440.875192
 42
-0.020646
  0
VERTEX
  8
0
 10
229.448062
 20
440.618443
 42
-0.036408
  0
VERTEX
  8
0
 10
228.868281
 20
440.443138
 42
-0.155351
  0
VERTEX
  8
0
 10
228.512472
 20
440.474315
 42
-0.329480
  0
VERTEX
  8
0
 10
228.393111
 20
440.674071
 42
-0.114400
  0
VERTEX
  8
0
 10
228.507079
 20
441.011454
 42
-0.115814
  0
VERTEX
  8
0
 10
229.098109
 20
441.603931
 42
-0.080554
  0
VERTEX
  8
0
 10
229.973761
 20
441.969265
 42
-0.115534
  0
VERTEX
  8
0
 10
230.708846
 20
441.972535
 42
-0.349578
  0
SEQEND
  0
POLYLINE
  8
0
 66
1
 70
1
  0
VERTEX
  8
0
 10
251.000000
 20
439.893011
 42
-0.164455
  0
VERTEX
  8
0
 10
250.884842
 20
439.552359
 42
-0.095748
  0
VERTEX
  8
0
 10
250.559375
 20
439.262322
 42
-0.076852
  0
VERTEX
  8
0
 10
250.073715
 20
439.066322
 42
-0.057609
  0
VERTEX
  8
0
 10
249.500000
 20
439.000000
 42
-0.096899
  0
VERTEX
  8
0
 10
248.927495
 20
439.112001
 42
-0.097416
  0
VERTEX
  8
0
 10
248.440625
 20
439.431406
 42
-0.098432
  0
VERTEX
  8
0
 10
248.114629
 20
439.908181
 42
-0.101220
  0
VERTEX
  8
0
 10
248.000000
 20
440.468615
 42
-0.094119
  0
VERTEX
  8
0
 10
248.106211
 20
441.027855
 42
-0.166113
  0
VERTEX
  8
0
 10
248.407358
 20
441.382077
 42
-0.151899
  0
VERTEX
  8
0
 10
248.885039
 20
441.496694
 42
-0.075244
  0
VERTEX
  8
0
 10
249.500000
 20
441.361626
 42
-0.048303
  0
VERTEX
  8
0
 10
250.073796
 20
441.075237
 42
-0.053891
  0
VERTEX
  8
0
 10
250.559375
 20
440.692784
 42
-0.061199
  0
VERTEX
  8
0
 10
250.891374
 20
440.276919
 42
-0.138750
  0
SEQEND
  0
POLYLINE
  8
0
 66
1
 70
1
  0
VERTEX
  8
0
 10
243.000000
 20
439.000000
 42
0.052224
  0
VERTEX
  8
0
 10
243.683198
 20
438.234851
 42
0.045499
  0
VERTEX
  8
0
 10
244.540724
 20
437.587500
 42
0.047927
  0
VERTEX
  8
0
 10
245.434551
 20
437.144747
 42
0.091287
  0
VERTEX
  8
0
 10
246.220759
 20
437.000000
 42
-0.098288
  0
VERTEX
  8
0
 10
247.014349
 20
436.842478
 42
-0.141016
  0
VERTEX
  8
0
 10
247.572076
 20
436.398727
 42
-0.109673
  0
VERTEX
  8
0
 10
247.897114
 20
435.630070
 42
-0.045428
  0
VERTEX
  8
0
 10
248.000000
 20
434.500000
 42
0.044917
  0
VERTEX
  8
0
 10
248.106468
 20
433.317234
 42
0.124434
  0
VERTEX
  8
0
 10
248.450000
 20
432.562500
 42
0.149477
  0
VERTEX
  8
0
 10
249.064742
 20
432.142566
 42
0.075780
  0
VERTEX
  8
0
 10
250.000000
 20
432.000000
 42
0.080090
  0
VERTEX
  8
0
 10
250.968996
 20
432.156215
 42
0.163534
  0
VERTEX
  8
0
 10
251.577965
 20
432.613298
 42
0.118469
  0
VERTEX
  8
0
 10
251.905455
 20
433.465511
 42
0.032773
  0
VERTEX
  8
0
 10
252.000000
 20
434.906380
 42
-0.024757
  0
VERTEX
  8
0
 10
252.074894
 20
436.418011
 42
-0.143736
  0
VERTEX
  8
0
 10
252.371174
 20
437.150167
 42
-0.224267
  0
VERTEX
  8
0
 10
252.936267
 20
437.429806
 42
-0.068624
  0
VERTEX
  8
0
 10
253.907546
 20
437.313926
 42
-0.194623
  0
VERTEX
  8
0
 10
255.770123
 20
435.926524
 42
-0.137988
  0
VERTEX
  8
0
 10
256.477900
 20
433.387847
 42
-0.045392
  0
VERTEX
  8
0
 10
256.024167
 20
428.526923
 42
-0.004960
  0
VERTEX
  8
0
 10
253.860955
 20
417.500000
 42
-0.026407
  0
VERTEX
  8
0
 10
252.185723
 20
411.111109
 42
-0.022848
  0
VERTEX
  8
0
 10
249.776588
 20
404.610833
 42
-0.047650
  0
VERTEX
  8
0
 10
247.846339
 20
401.042333
 42
-0.740868
  0
VERTEX
  8
0
 10
247.000000
 20
401.300000
 42
0.223958
  0
VERTEX
  8
0
 10
246.419577
 20
402.530836
 42
0.191303
  0
VERTEX
  8
0
 10
245.042578
 20
402.974159
 42
0.148954
  0
VERTEX
  8
0
 10
243.460854
 20
402.374635
 42
0.152524
  0
VERTEX
  8
0
 10
242.500000
 20
401.000000
 42
-0.054917
  0
VERTEX
  8
0
 10
242.161126
 20
400.235125
 42
-0.060094
  0
VERTEX
  8
0
 10
241.672037
 20
399.587500
 42
-0.068127
  0
VERTEX
  8
0
 10
241.114200
 20
399.147465
 42
-0.133750
  0
VERTEX
  8
0
 10
240.572790
 20
399.000000
 42
-0.380787
  0
VERTEX
  8
0
 10
239.883319
 20
399.614131
 42
-0.014802
  0
VERTEX
  8
0
 10
239.566875
 20
403.290731
 42
-0.012918
  0
VERTEX
  8
0
 10
239.386710
 20
409.211087
 42
-0.002454
  0
VERTEX
  8
0
 10
239.390178
 20
419.999336
 42
-0.003129
  0
VERTEX
  8
0
 10
239.550948
 20
433.992787
 42
-0.042525
  0
VERTEX
  8
0
 10
240.073953
 20
439.065082
 42
-0.385454
  0
VERTEX
  8
0
 10
241.281687
 20
439.977962
 42
-0.217775
  0
SEQEND
  0
POLYLINE
  8
0
 66
1
 70
1
  0
VERTEX
  8
0
 10
230.000000
 20
434.883369
 42
-0.203935
  0
VERTEX
  8
0
 10
229.856320
 20
434.545749
 42
-0.083750
  0
VERTEX
  8
0
 10
229.436979
 20
434.259490
 42
-0.063946
  0
VERTEX
  8
0
 10
228.817038
 20
434.064894
 42
-0.044138
  0
VERTEX
  8
0
 10
228.083333
 20
434.000000
 42
0.060580
  0
VERTEX
  8
0
 10
227.317185
 20
433.906832
 42
0.061209
  0
VERTEX
  8
0
 10
226.598549
 20
433.632812
 42
0.067324
  0
VERTEX
  8
0
 10
226.032984
 20
433.228198
 42
0.118634
  0
VERTEX
  8
0
 10
225.720238
 20
432.750000
 42
-0.083441
  0
VERTEX
  8
0
 10
225.479040
 20
432.318310
 42
-0.158535
  0
VERTEX
  8
0
 10
225.149648
 20
432.102349
 42
-0.168297
  0
VERTEX
  8
0
 10
224.770915
 20
432.127988
 42
-0.096381
  0
VERTEX
  8
0
 10
224.386905
 20
432.386905
 42
-0.096381
  0
VERTEX
  8
0
 10
224.127988
 20
432.770915
 42
-0.168297
  0
VERTEX
  8
0
 10
224.102349
 20
433.149648
 42
-0.158535
  0
VERTEX
  8
0
 10
224.318310
 20
433.479040
 42
-0.083441
  0
VERTEX
  8
0
 10
224.750000
 20
433.720238
 42
0.085621
  0
VERTEX
  8
0
 10
225.227799
 20
433.989919
 42
0.067878
  0
VERTEX
  8
0
 10
225.632812
 20
434.424173
 42
0.067940
  0
VERTEX
  8
0
 10
225.906431
 20
434.950576
 42
0.086133
  0
VERTEX
  8
0
 10
226.000000
 20
435.489714
 42
-0.138708
  0
VERTEX
  8
0
 10
226.144460
 20
436.000427
 42
-0.161113
  0
VERTEX
  8
0
 10
226.529088
 20
436.324397
 42
-0.111351
  0
VERTEX
  8
0
 10
227.158168
 20
436.425100
 42
-0.048218
  0
VERTEX
  8
0
 10
228.000000
 20
436.289749
 42
-0.038887
  0
VERTEX
  8
0
 10
228.765484
 20
436.024544
 42
-0.050447
  0
VERTEX
  8
0
 10
229.412500
 20
435.660882
 42
-0.059916
  0
VERTEX
  8
0
 10
229.858742
 20
435.259476
 42
-0.181596
  0
SEQEND
  0
POLYLINE
  8
0
 66
1
 70
1
  0
VERTEX
  8
0
 10
234.168213
 20
431.491525
 42
-0.235692
  0
VERTEX
  8
0
 10
234.808744
 20
430.794438
 42
-0.044839
  0
VERTEX
  8
0
 10
235.145071
 20
429.051195
 42
-0.027112
  0
VERTEX
  8
0
 10
235.278101
 20
426.208434
 42
-0.006527
  0
VERTEX
  8
0
 10
235.181380
 20
421.491525
 42
-0.009193
  0
VERTEX
  8
0
 10
234.992186
 20
417.852431
 42
-0.015155
  0
VERTEX
  8
0
 10
234.682762
 20
414.788135
 42
-0.008864
  0
VERTEX
  8
0
 10
234.313602
 20
412.323381
 42
-0.366275
  0
VERTEX
  8
0
 10
233.931380
 20
412.000000
 42
-0.106541
  0
VERTEX
  8
0
 10
233.576023
 20
412.076590
 42
-0.099413
  0
VERTEX
  8
0
 10
233.273593
 20
412.293750
 42
-0.096013
  0
VERTEX
  8
0
 10
233.070849
 20
412.618251
 42
-0.092010
  0
VERTEX
  8
0
 10
233.000000
 20
413.000000
 42
0.148195
  0
VERTEX
  8
0
 10
232.884432
 20
413.381354
 42
0.098894
  0
VERTEX
  8
0
 10
232.559375
 20
413.706250
 42
0.082425
  0
VERTEX
  8
0
 10
232.073457
 20
413.925306
 42
0.064853
  0
VERTEX
  8
0
 10
231.500000
 20
414.000000
 42
-0.140575
  0
VERTEX
  8
0
 10
230.880020
 20
414.177821
 42
-0.118484
  0
VERTEX
  8
0
 10
230.400000
 20
414.666667
 42
-0.088208
  0
VERTEX
  8
0
 10
230.098630
 20
415.456621
 42
-0.047160
  0
VERTEX
  8
0
 10
230.000000
 20
416.500000
 42
0.038131
  0
VERTEX
  8
0
 10
229.926884
 20
417.457356
 42
0.057076
  0
VERTEX
  8
0
 10
229.706250
 20
418.265625
 42
0.074992
  0
VERTEX
  8
0
 10
229.382936
 20
418.817169
 42
0.226478
  0
VERTEX
  8
0
 10
229.000000
 20
419.000000
 42
-0.103907
  0
VERTEX
  8
0
 10
228.618429
 20
419.080162
 42
-0.098963
  0
VERTEX
  8
0
 10
228.293750
 20
419.307776
 42
-0.096726
  0
VERTEX
  8
0
 10
228.076165
 20
419.647813
 42
-0.094374
  0
VERTEX
  8
0
 10
228.000000
 20
420.047749
 42
0.135400
  0
VERTEX
  8
0
 10
227.849290
 20
420.594085
 42
0.025178
  0
VERTEX
  8
0
 10
227.265625
 20
421.468317
 42
0.025344
  0
VERTEX
  8
0
 10
226.457119
 20
422.448539
 42
0.020757
  0
VERTEX
  8
0
 10
225.500000
 20
423.412420
 42
-0.043404
  0
VERTEX
  8
0
 10
224.419409
 20
424.603894
 42
-0.055905
  0
VERTEX
  8
0
 10
223.662304
 20
425.872146
 42
-0.059325
  0
VERTEX
  8
0
 10
223.236176
 20
427.211728
 42
-0.059228
  0
VERTEX
  8
0
 10
223.136182
 20
428.614671
 42
-0.002647
  0
VERTEX
  8
0
 10
223.221883
 20
430.246884
 42
-0.169883
  0
VERTEX
  8
0
 10
223.329865
 20
430.506396
 42
-0.612594
  0
VERTEX
  8
0
 10
223.456256
 20
430.472865
 42
-0.005485
  0
VERTEX
  8
0
 10
223.705733
 20
429.250000
 42
0.147899
  0
VERTEX
  8
0
 10
224.608948
 20
427.531680
 42
0.250930
  0
VERTEX
  8
0
 10
226.121422
 20
427.061374
 42
0.119641
  0
VERTEX
  8
0
 10
228.337789
 20
428.073514
 42
0.030746
  0
VERTEX
  8
0
 10
231.297894
 20
430.711963
 42
-0.007727
  0
VERTEX
  8
0
 10
232.267479
 20
431.659747
 42
-0.123974
  0
VERTEX
  8
0
 10
232.663938
 20
431.882493
 42
-0.146418
  0
VERTEX
  8
0
 10
233.096016
 20
431.871441
 42
-0.012094
  0
SEQEND
  0
POLYLINE
  8
0
 66
1
 70
1
  0
VERTEX
  8
0
 10
262.986967
 20
422.000000
 42
-0.236660
  0
VERTEX
  8
0
 10
263.358333
 20
421.813796
 42
-0.042437
  0
VERTEX
  8
0
 10
263.779979
 20
421.135902
 42
-0.037840
  0
VERTEX
  8
0
 10
264.177447
 20
420.185128
 42
-0.026035
  0
VERTEX
  8
0
 10
264.487176
 20
419.058389
 42
0.043338
  0
VERTEX
  8
0
 10
264.948174
 20
417.582884
 42
0.108395
  0
VERTEX
  8
0
 10
265.587012
 20
416.659817
 42
0.112333
  0
VERTEX
  8
0
 10
266.537956
 20
416.108083
 42
0.048558
  0
VERTEX
  8
0
 10
267.979605
 20
415.808389
 42
0.000000
  0
VERTEX
  8
0
 10
270.825949
 20
415.500000
 42
0.000000
  0
VERTEX
  8
0
 10
266.576832
 20
405.000000
 42
-0.003178
  0
VERTEX
  8
0
 10
261.248337
 20
392.069696
 42
-0.011549
  0
VERTEX
  8
0
 10
257.622046
 20
383.956867
 42
-0.011252
  0
VERTEX
  8
0
 10
254.906381
 20
378.556543
 42
-0.193160
  0
VERTEX
  8
0
 10
253.421553
 20
377.304027
 42
-0.244535
  0
VERTEX
  8
0
 10
252.883363
 20
377.391180
 42
-0.044151
  0
VERTEX
  8
0
 10
252.102081
 20
378.088179
 42
-0.038769
  0
VERTEX
  8
0
 10
251.250103
 20
379.149084
 42
-0.026284
  0
VERTEX
  8
0
 10
250.444149
 20
380.473851
 42
0.015848
  0
VERTEX
  8
0
 10
249.660470
 20
381.824681
 42
0.022750
  0
VERTEX
  8
0
 10
248.876061
 20
382.964194
 42
0.019807
  0
VERTEX
  8
0
 10
248.171867
 20
383.820929
 42
0.213980
  0
VERTEX
  8
0
 10
247.772596
 20
384.000000
 42
-0.372537
  0
VERTEX
  8
0
 10
247.123219
 20
384.561803
 42
-0.102599
  0
VERTEX
  8
0
 10
247.211209
 20
386.023559
 42
-0.044905
  0
VERTEX
  8
0
 10
248.130096
 20
388.507239
 42
-0.013072
  0
VERTEX
  8
0
 10
249.980077
 20
392.146961
 42
0.032961
  0
VERTEX
  8
0
 10
252.720185
 20
398.113908
 42
0.009175
  0
VERTEX
  8
0
 10
256.213103
 20
407.795638
 42
0.006785
  0
VERTEX
  8
0
 10
259.387457
 20
417.559949
 42
0.075329
  0
VERTEX
  8
0
 10
260.000000
 20
421.602639
 42
-0.027489
  0
VERTEX
  8
0
 10
260.054404
 20
422.591447
 42
-0.018126
  0
VERTEX
  8
0
 10
260.220312
 20
423.718338
 42
-0.018256
  0
VERTEX
  8
0
 10
260.462292
 20
424.805887
 42
-0.033305
  0
VERTEX
  8
0
 10
260.750000
 20
425.668213
 42
-0.020699
  0
VERTEX
  8
0
 10
261.173377
 20
426.591350
 42
-0.486222
  0
VERTEX
  8
0
 10
261.418579
 20
426.639594
 42
-0.181040
  0
VERTEX
  8
0
 10
261.618508
 20
426.275134
 42
-0.007244
  0
VERTEX
  8
0
 10
261.816422
 20
424.750000
 42
0.028934
  0
VERTEX
  8
0
 10
261.999856
 20
423.696621
 42
0.043067
  0
VERTEX
  8
0
 10
262.290794
 20
422.807813
 42
0.051542
  0
VERTEX
  8
0
 10
262.636562
 20
422.182957
 42
0.245349
  0
SEQEND
  0
POLYLINE
  8
0
 66
1
 70
1
  0
VERTEX
  8
0
 10
268.000000
 20
425.000000
 42
-0.048028
  0
VERTEX
  8
0
 10
267.926307
 20
424.234582
 42
-0.068025
  0
VERTEX
  8
0
 10
267.706250
 20
423.587500
 42
-0.088204
  0
VERTEX
  8
0
 10
267.381882
 20
423.151477
 42
-0.191087
  0
VERTEX
  8
0
 10
267.000000
 20
423.000000
 42
-0.191087
  0
VERTEX
  8
0
 10
266.618118
 20
423.151477
 42
-0.088204
  0
VERTEX
  8
0
 10
266.293750
 20
423.587500
 42
-0.068025
  0
VERTEX
  8
0
 10
266.073693
 20
424.234582
 42
-0.048028
  0
VERTEX
  8
0
 10
266.000000
 20
425.000000
 42
-0.048028
  0
VERTEX
  8
0
 10
266.073693
 20
425.765418
 42
-0.068025
  0
VERTEX
  8
0
 10
266.293750
 20
426.412500
 42
-0.088204
  0
VERTEX
  8
0
 10
266.618118
 20
426.848523
 42
-0.191087
  0
VERTEX
  8
0
 10
267.000000
 20
427.000000
 42
-0.191087
  0
VERTEX
  8
0
 10
267.381882
 20
426.848523
 42
-0.088204
  0
VERTEX
  8
0
 10
267.706250
 20
426.412500
 42
-0.068025
  0
VERTEX
  8
0
 10
267.926307
 20
425.765418
 42
-0.048028
  0
SEQEND
  0
POLYLINE
  8
0
 66
1
 70
1
  0
VERTEX
  8
0
 10
275.073324
 20
403.000000
 42
-0.196365
  0
VERTEX
  8
0
 10
275.427316
 20
402.855401
 42
-0.086429
  0
VERTEX
  8
0
 10
275.727789
 20
402.436979
 42
-0.066335
  0
VERTEX
  8
0
 10
275.931801
 20
401.816935
 42
-0.046382
  0
VERTEX
  8
0
 10
276.000000
 20
401.083333
 42
0.049354
  0
VERTEX
  8
0
 10
276.075021
 20
400.325159
 42
0.056219
  0
VERTEX
  8
0
 10
276.297174
 20
399.630629
 42
0.064525
  0
VERTEX
  8
0
 10
276.624142
 20
399.098249
 42
0.143321
  0
VERTEX
  8
0
 10
277.011658
 20
398.829447
 42
-0.437374
  0
VERTEX
  8
0
 10
277.440515
 20
397.880450
 42
-0.006397
  0
VERTEX
  8
0
 10
274.690208
 20
391.603539
 42
-0.013822
  0
VERTEX
  8
0
 10
271.248804
 20
384.540752
 42
-0.011611
  0
VERTEX
  8
0
 10
267.225368
 20
377.250000
 42
-0.012751
  0
VERTEX
  8
0
 10
265.315621
 20
374.155915
 42
-0.045257
  0
VERTEX
  8
0
 10
263.871180
 20
372.328747
 42
-0.075857
  0
VERTEX
  8
0
 10
262.595472
 20
371.338716
 42
-0.127827
  0
VERTEX
  8
0
 10
261.292224
 20
371.000000
 42
-0.144146
  0
VERTEX
  8
0
 10
259.731868
 20
371.459384
 42
-0.271476
  0
VERTEX
  8
0
 10
259.158748
 20
372.593308
 42
-0.085635
  0
VERTEX
  8
0
 10
259.697035
 20
374.861142
 42
-0.010254
  0
VERTEX
  8
0
 10
261.826069
 20
379.572787
 42
0.005212
  0
VERTEX
  8
0
 10
263.213025
 20
382.561495
 42
0.001891
  0
VERTEX
  8
0
 10
265.120229
 20
386.829017
 42
0.001875
  0
VERTEX
  8
0
 10
267.172497
 20
391.515589
 42
0.002235
  0
VERTEX
  8
0
 10
269.071709
 20
395.951526
 42
-0.007983
  0
VERTEX
  8
0
 10
270.791986
 20
399.845198
 42
-0.016279
  0
VERTEX
  8
0
 10
272.289289
 20
402.833093
 42
-0.019298
  0
VERTEX
  8
0
 10
273.441883
 20
404.774834
 42
-0.675749
  0
VERTEX
  8
0
 10
273.818964
 20
404.701526
 42
0.049740
  0
VERTEX
  8
0
 10
274.012963
 20
404.050597
 42
0.061629
  0
VERTEX
  8
0
 10
274.322602
 20
403.499823
 42
0.073764
  0
VERTEX
  8
0
 10
274.694538
 20
403.125739
 42
0.161640
  0
SEQEND
  0
POLYLINE
  8
0
 66
1
 70
1
  0
VERTEX
  8
0
 10
143.322915
 20
385.500000
 42
-0.002323
  0
VERTEX
  8
0
 10
144.002727
 20
383.232315
 42
-0.001398
  0
VERTEX
  8
0
 10
144.789059
 20
380.536533
 42
-0.001400
  0
VERTEX
  8
0
 10
145.555741
 20
377.852316
 42
-0.002449
  0
VERTEX
  8
0
 10
146.173589
 20
375.624367
 42
0.019812
  0
VERTEX
  8
0
 10
146.772953
 20
373.722147
 42
0.025863
  0
VERTEX
  8
0
 10
147.477554
 20
372.039553
 42
0.025142
  0
VERTEX
  8
0
 10
148.186886
 20
370.736673
 42
0.165071
  0
VERTEX
  8
0
 10
148.750000
 20
370.267378
 42
-0.116682
  0
VERTEX
  8
0
 10
149.228295
 20
369.940232
 42
-0.065399
  0
VERTEX
  8
0
 10
149.632812
 20
369.358950
 42
-0.059688
  0
VERTEX
  8
0
 10
149.906883
 20
368.626662
 42
-0.059794
  0
VERTEX
  8
0
 10
150.000000
 20
367.850805
 42
0.042593
  0
VERTEX
  8
0
 10
150.070789
 20
367.021324
 42
0.031933
  0
VERTEX
  8
0
 10
150.283534
 20
366.129268
 42
0.032648
  0
VERTEX
  8
0
 10
150.595037
 20
365.309730
 42
0.061508
  0
VERTEX
  8
0
 10
150.965221
 20
364.707794
 42
0.006775
  0
VERTEX
  8
0
 10
154.265538
 20
360.690891
 42
0.020020
  0
VERTEX
  8
0
 10
156.676803
 20
358.057325
 42
0.024805
  0
VERTEX
  8
0
 10
158.493723
 20
356.398981
 42
0.174283
  0
VERTEX
  8
0
 10
159.603592
 20
356.000000
 42
-0.028353
  0
VERTEX
  8
0
 10
160.138625
 20
355.969636
 42
-0.044431
  0
VERTEX
  8
0
 10
160.589805
 20
355.877150
 42
-0.055444
  0
VERTEX
  8
0
 10
160.905793
 20
355.742894
 42
-0.270915
  0
VERTEX
  8
0
 10
161.000000
 20
355.581787
 42
0.065182
  0
VERTEX
  8
0
 10
161.032484
 20
355.333672
 42
0.008575
  0
VERTEX
  8
0
 10
161.178303
 20
354.821775
 42
0.009838
  0
VERTEX
  8
0
 10
161.374575
 20
354.218074
 42
0.008099
  0
VERTEX
  8
0
 10
161.606989
 20
353.581787
 42
-0.067159
  0
VERTEX
  8
0
 10
161.769113
 20
352.896449
 42
-0.167010
  0
VERTEX
  8
0
 10
161.651801
 20
352.401650
 42
-0.176865
  0
VERTEX
  8
0
 10
161.262395
 20
352.101342
 42
-0.076855
  0
VERTEX
  8
0
 10
160.606989
 20
352.000000
 42
0.272705
  0
VERTEX
  8
0
 10
159.507455
 20
351.352122
 42
0.110361
  0
VERTEX
  8
0
 10
158.997627
 20
349.618637
 42
0.099571
  0
VERTEX
  8
0
 10
159.252798
 20
347.700890
 42
0.209241
  0
VERTEX
  8
0
 10
160.250000
 20
346.615982
 42
-0.555132
  0
VERTEX
  8
0
 10
160.269149
 20
346.482309
 42
-0.179571
  0
VERTEX
  8
0
 10
160.031250
 20
346.397037
 42
-0.027034
  0
VERTEX
  8
0
 10
159.114754
 20
346.456910
 42
-0.008452
  0
VERTEX
  8
0
 10
157.750000
 20
346.643939
 42
0.014252
  0
VERTEX
  8
0
 10
155.585635
 20
346.915013
 42
0.121615
  0
VERTEX
  8
0
 10
154.625523
 20
346.773884
 42
0.232948
  0
VERTEX
  8
0
 10
154.151659
 20
346.239099
 42
0.066935
  0
VERTEX
  8
0
 10
154.000000
 20
345.111291
 42
0.053296
  0
VERTEX
  8
0
 10
154.086344
 20
344.303551
 42
0.073090
  0
VERTEX
  8
0
 10
154.342708
 20
343.620192
 42
0.092897
  0
VERTEX
  8
0
 10
154.721463
 20
343.161364
 42
0.175635
  0
VERTEX
  8
0
 10
155.166667
 20
343.000000
 42
-0.059575
  0
VERTEX
  8
0
 10
155.566759
 20
342.952159
 42
-0.178606
  0
VERTEX
  8
0
 10
155.791690
 20
342.801065
 42
-0.250575
  0
VERTEX
  8
0
 10
155.821597
 20
342.580488
 42
-0.107695
  0
VERTEX
  8
0
 10
155.656107
 20
342.322773
 42
-0.375721
  0
VERTEX
  8
0
 10
154.687687
 20
342.258188
 42
-0.045556
  0
VERTEX
  8
0
 10
152.984280
 20
343.823770
 42
-0.044942
  0
VERTEX
  8
0
 10
151.462807
 20
345.839096
 42
-0.140116
  0
VERTEX
  8
0
 10
151.000000
 20
347.458187
 42
0.185132
  0
VERTEX
  8
0
 10
150.624402
 20
348.437827
 42
0.180587
  0
VERTEX
  8
0
 10
149.685697
 20
348.928003
 42
0.092701
  0
VERTEX
  8
0
 10
148.081067
 20
348.830063
 42
0.029380
  0
VERTEX
  8
0
 10
145.783745
 20
348.107880
 42
-0.127849
  0
VERTEX
  8
0
 10
144.287826
 20
347.944173
 42
-0.140439
  0
VERTEX
  8
0
 10
142.961360
 20
348.543503
 42
-0.054704
  0
VERTEX
  8
0
 10
141.316770
 20
350.280517
 42
-0.006317
  0
VERTEX
  8
0
 10
138.121892
 20
354.606336
 42
-0.011819
  0
VERTEX
  8
0
 10
135.174327
 20
358.915997
 42
-0.040997
  0
VERTEX
  8
0
 10
133.573429
 20
361.886652
 42
-0.048818
  0
VERTEX
  8
0
 10
132.624828
 20
364.800003
 42
-0.022251
  0
VERTEX
  8
0
 10
131.935965
 20
368.748457
 42
-0.006910
  0
VERTEX
  8
0
 10
131.596927
 20
371.698870
 42
-0.005042
  0
VERTEX
  8
0
 10
131.298650
 20
374.985484
 42
-0.005095
  0
VERTEX
  8
0
 10
131.079031
 20
378.107316
 42
-0.011181
  0
VERTEX
  8
0
 10
130.988826
 20
380.500000
 42
0.020111
  0
VERTEX
  8
0
 10
130.868165
 20
382.670385
 42
0.014816
  0
VERTEX
  8
0
 10
130.567048
 20
385.059375
 42
0.015023
  0
VERTEX
  8
0
 10
130.146739
 20
387.304641
 42
0.032096
  0
VERTEX
  8
0
 10
129.660569
 20
389.000000
 42
0.000000
  0
VERTEX
  8
0
 10
128.408924
 20
392.500000
 42
0.000000
  0
VERTEX
  8
0
 10
133.396836
 20
392.577121
 42
0.018855
  0
VERTEX
  8
0
 10
135.566890
 20
392.692602
 42
0.040866
  0
VERTEX
  8
0
 10
137.210993
 20
392.979154
 42
0.055976
  0
VERTEX
  8
0
 10
138.334669
 20
393.409928
 42
0.195206
  0
VERTEX
  8
0
 10
138.829645
 20
393.988936
 42
-0.537134
  0
VERTEX
  8
0
 10
139.513557
 20
394.173233
 42
-0.090591
  0
VERTEX
  8
0
 10
140.533759
 20
392.878898
 42
-0.034819
  0
VERTEX
  8
0
 10
141.862788
 20
389.880380
 42
-0.012925
  0
SEQEND
  0
POLYLINE
  8
0
 66
1
 70
1
  0
VERTEX
  8
0
 10
153.673435
 20
392.389736
 42
-0.203104
  0
VERTEX
  8
0
 10
155.397393
 20
391.043992
 42
-0.059332
  0
VERTEX
  8
0
 10
156.699793
 20
387.863862
 42
-0.033224
  0
VERTEX
  8
0
 10
157.807326
 20
382.503727
 42
-0.008010
  0
VERTEX
  8
0
 10
158.904988
 20
373.500000
 42
0.005513
  0
VERTEX
  8
0
 10
159.324769
 20
369.907435
 42
0.006726
  0
VERTEX
  8
0
 10
159.799748
 20
366.556250
 42
0.005724
  0
VERTEX
  8
0
 10
160.268455
 20
363.753455
 42
0.046442
  0
VERTEX
  8
0
 10
160.615305
 20
362.500000
 42
-0.008033
  0
VERTEX
  8
0
 10
161.046022
 20
361.307891
 42
-0.335103
  0
VERTEX
  8
0
 10
160.966230
 20
361.063876
 42
-0.325754
  0
VERTEX
  8
0
 10
160.705892
 20
361.069540
 42
-0.007806
  0
VERTEX
  8
0
 10
159.699312
 20
361.862418
 42
-0.043036
  0
VERTEX
  8
0
 10
158.906659
 20
362.629223
 42
-0.013867
  0
VERTEX
  8
0
 10
157.867257
 20
363.893166
 42
-0.013715
  0
VERTEX
  8
0
 10
156.783643
 20
365.369855
 42
-0.014957
  0
VERTEX
  8
0
 10
155.814868
 20
366.862418
 42
0.005842
  0
VERTEX
  8
0
 10
154.923549
 20
368.292049
 42
0.007610
  0
VERTEX
  8
0
 10
154.072714
 20
369.578335
 42
0.005855
  0
VERTEX
  8
0
 10
153.333790
 20
370.632599
 42
0.067184
  0
VERTEX
  8
0
 10
152.986545
 20
371.000000
 42
-0.140718
  0
VERTEX
  8
0
 10
152.669092
 20
371.452502
 42
-0.003555
  0
VERTEX
  8
0
 10
151.861110
 20
373.850000
 42
-0.007339
  0
VERTEX
  8
0
 10
150.967246
 20
376.706521
 42
-0.004907
  0
VERTEX
  8
0
 10
150.024550
 20
380.000000
 42
0.003771
  0
VERTEX
  8
0
 10
149.065994
 20
383.377860
 42
0.004718
  0
VERTEX
  8
0
 10
148.123406
 20
386.496830
 42
0.003832
  0
VERTEX
  8
0
 10
147.288534
 20
389.097921
 42
0.036192
  0
VERTEX
  8
0
 10
146.842696
 20
390.180699
 42
-0.063929
  0
VERTEX
  8
0
 10
146.549679
 20
391.021689
 42
-0.201560
  0
VERTEX
  8
0
 10
146.660274
 20
391.596093
 42
-0.161255
  0
VERTEX
  8
0
 10
147.179115
 20
392.001300
 42
-0.038257
  0
VERTEX
  8
0
 10
148.251905
 20
392.294517
 42
0.001029
  0
VERTEX
  8
0
 10
149.149328
 20
392.469332
 42
0.001264
  0
VERTEX
  8
0
 10
149.986497
 20
392.636400
 42
0.001047
  0
VERTEX
  8
0
 10
150.689507
 20
392.780077
 42
0.009157
  0
VERTEX
  8
0
 10
151.000000
 20
392.850163
 42
-0.092062
  0
VERTEX
  8
0
 10
151.309087
 20
392.867711
 42
-0.010914
  0
VERTEX
  8
0
 10
151.991572
 20
392.765455
 42
-0.012743
  0
VERTEX
  8
0
 10
152.804592
 20
392.604001
 42
-0.010133
  0
SEQEND
  0
POLYLINE
  8
0
 66
1
 70
1
  0
VERTEX
  8
0
 10
126.362922
 20
378.775175
 42
-0.001827
  0
VERTEX
  8
0
 10
127.273817
 20
373.383186
 42
-0.057392
  0
VERTEX
  8
0
 10
127.339813
 20
372.038578
 42
-0.640855
  0
VERTEX
  8
0
 10
126.975403
 20
371.899187
 42
-0.041637
  0
VERTEX
  8
0
 10
125.986248
 20
373.042870
 42
0.013416
  0
VERTEX
  8
0
 10
124.156404
 20
375.416838
 42
0.007064
  0
VERTEX
  8
0
 10
121.764094
 20
378.270751
 42
0.006939
  0
VERTEX
  8
0
 10
119.177494
 20
381.186548
 42
0.009095
  0
VERTEX
  8
0
 10
116.730335
 20
383.773124
 42
0.000000
  0
VERTEX
  8
0
 10
114.500000
 20
386.046249
 42
0.000000
  0
VERTEX
  8
0
 10
117.502281
 20
385.447668
 42
0.036213
  0
VERTEX
  8
0
 10
119.234379
 20
385.231075
 42
0.154947
  0
VERTEX
  8
0
 10
120.229304
 20
385.490897
 42
0.133884
  0
VERTEX
  8
0
 10
120.973079
 20
386.302655
 42
0.024465
  0
VERTEX
  8
0
 10
121.823912
 20
388.174544
 42
-0.005347
  0
VERTEX
  8
0
 10
122.710776
 20
390.341994
 42
-0.183887
  0
VERTEX
  8
0
 10
123.086263
 20
390.734851
 42
-0.413567
  0
VERTEX
  8
0
 10
123.443445
 20
390.608501
 42
-0.016917
  0
VERTEX
  8
0
 10
124.045953
 20
389.232305
 42
-0.034489
  0
VERTEX
  8
0
 10
124.478052
 20
387.882855
 42
-0.005723
  0
VERTEX
  8
0
 10
125.098922
 20
385.225099
 42
-0.006258
  0
VERTEX
  8
0
 10
125.755257
 20
382.076822
 42
-0.005502
  0
SEQEND
  0
POLYLINE
  8
0
 66
1
 70
1
  0
VERTEX
  8
0
 10
281.000000
 20
385.678332
 42
-0.093268
  0
VERTEX
  8
0
 10
280.814843
 20
384.694353
 42
-0.046200
  0
VERTEX
  8
0
 10
280.243736
 20
383.554085
 42
-0.043662
  0
VERTEX
  8
0
 10
279.410466
 20
382.444055
 42
-0.048908
  0
VERTEX
  8
0
 10
278.425485
 20
381.541317
 42
0.037088
  0
VERTEX
  8
0
 10
277.109838
 20
380.391442
 42
0.103575
  0
VERTEX
  8
0
 10
276.449815
 20
379.366179
 42
0.102380
  0
VERTEX
  8
0
 10
276.252472
 20
378.154975
 42
0.035742
  0
VERTEX
  8
0
 10
276.454356
 20
376.391613
 42
-0.032237
  0
VERTEX
  8
0
 10
276.678412
 20
374.548876
 42
-0.133433
  0
VERTEX
  8
0
 10
276.448066
 20
373.461528
 42
-0.129555
  0
VERTEX
  8
0
 10
275.694758
 20
372.622689
 42
-0.029672
  0
VERTEX
  8
0
 10
274.028871
 20
371.664289
 42
-0.033600
  0
VERTEX
  8
0
 10
271.784091
 20
370.726924
 42
-0.511282
  0
VERTEX
  8
0
 10
271.198939
 20
371.141913
 42
-0.123515
  0
VERTEX
  8
0
 10
271.538063
 20
372.545151
 42
-0.005214
  0
VERTEX
  8
0
 10
273.981885
 20
377.090231
 42
0.012261
  0
VERTEX
  8
0
 10
275.124857
 20
379.289725
 42
0.014486
  0
VERTEX
  8
0
 10
276.093162
 20
381.424943
 42
0.013391
  0
VERTEX
  8
0
 10
276.805104
 20
383.260476
 42
0.083410
  0
VERTEX
  8
0
 10
276.981885
 20
384.250000
 42
-0.055135
  0
VERTEX
  8
0
 10
277.062950
 20
384.919428
 42
-0.074197
  0
VERTEX
  8
0
 10
277.288429
 20
385.485937
 42
-0.093150
  0
VERTEX
  8
0
 10
277.617029
 20
385.866174
 42
-0.169689
  0
VERTEX
  8
0
 10
278.000000
 20
386.000000
 42
0.153634
  0
VERTEX
  8
0
 10
278.381379
 20
386.120018
 42
0.097988
  0
VERTEX
  8
0
 10
278.706250
 20
386.457961
 42
0.080552
  0
VERTEX
  8
0
 10
278.925455
 20
386.962904
 42
0.062283
  0
VERTEX
  8
0
 10
279.000000
 20
387.559017
 42
-0.066118
  0
VERTEX
  8
0
 10
279.073267
 20
388.110654
 42
-0.138808
  0
VERTEX
  8
0
 10
279.293750
 20
388.478525
 42
-0.191142
  0
VERTEX
  8
0
 10
279.620352
 20
388.607943
 42
-0.139169
  0
VERTEX
  8
0
 10
280.000000
 20
388.500000
 42
-0.121969
  0
VERTEX
  8
0
 10
280.384035
 20
388.107488
 42
-0.047825
  0
VERTEX
  8
0
 10
280.706250
 20
387.416196
 42
-0.043667
  0
VERTEX
  8
0
 10
280.926043
 20
386.567156
 42
-0.041532
  0
SEQEND
  0
POLYLINE
  8
0
 66
1
 70
1
  0
VERTEX
  8
0
 10
169.000000
 20
382.571429
 42
-0.234203
  0
VERTEX
  8
0
 10
168.891466
 20
382.352429
 42
-0.071771
  0
VERTEX
  8
0
 10
168.559375
 20
382.167857
 42
-0.054800
  0
VERTEX
  8
0
 10
168.074476
 20
382.041722
 42
-0.036265
  0
VERTEX
  8
0
 10
167.500000
 20
382.000000
 42
0.140575
  0
VERTEX
  8
0
 10
166.880020
 20
381.822179
 42
0.118484
  0
VERTEX
  8
0
 10
166.400000
 20
381.333333
 42
0.088208
  0
VERTEX
  8
0
 10
166.098630
 20
380.543379
 42
0.047160
  0
VERTEX
  8
0
 10
166.000000
 20
379.500000
 42
0.038131
  0
VERTEX
  8
0
 10
166.073116
 20
378.542644
 42
0.057076
  0
VERTEX
  8
0
 10
166.293750
 20
377.734375
 42
0.074992
  0
VERTEX
  8
0
 10
166.617064
 20
377.182831
 42
0.226478
  0
VERTEX
  8
0
 10
167.000000
 20
377.000000
 42
-0.223288
  0
VERTEX
  8
0
 10
167.382815
 20
376.820073
 42
-0.076293
  0
VERTEX
  8
0
 10
167.706250
 20
376.280221
 42
-0.058027
  0
VERTEX
  8
0
 10
167.926839
 20
375.487973
 42
-0.038928
  0
VERTEX
  8
0
 10
168.000000
 20
374.549690
 42
0.056160
  0
VERTEX
  8
0
 10
168.112705
 20
373.549418
 42
0.051726
  0
VERTEX
  8
0
 10
168.445854
 20
372.569646
 42
0.055305
  0
VERTEX
  8
0
 10
168.936492
 20
371.754136
 42
0.102475
  0
VERTEX
  8
0
 10
169.517801
 20
371.249976
 42
-0.090910
  0
VERTEX
  8
0
 10
170.233590
 20
370.657371
 42
-0.152499
  0
VERTEX
  8
0
 10
170.531661
 20
369.942989
 42
-0.089024
  0
VERTEX
  8
0
 10
170.443346
 20
368.906026
 42
-0.018224
  0
VERTEX
  8
0
 10
169.899421
 20
367.141323
 42
0.042020
  0
VERTEX
  8
0
 10
169.507676
 20
365.616276
 42
0.023479
  0
VERTEX
  8
0
 10
169.277178
 20
363.712665
 42
0.023279
  0
VERTEX
  8
0
 10
169.224249
 20
361.752673
 42
0.034767
  0
VERTEX
  8
0
 10
169.376636
 20
360.046113
 42
-0.020007
  0
VERTEX
  8
0
 10
169.598750
 20
358.181387
 42
-0.065654
  0
VERTEX
  8
0
 10
169.533700
 20
356.945205
 42
-0.111246
  0
VERTEX
  8
0
 10
169.190367
 20
356.144938
 42
-0.145395
  0
VERTEX
  8
0
 10
168.562170
 20
355.662230
 42
-0.423578
  0
VERTEX
  8
0
 10
167.264966
 20
356.264902
 42
-0.019407
  0
VERTEX
  8
0
 10
165.689024
 20
361.437570
 42
-0.023825
  0
VERTEX
  8
0
 10
164.269340
 20
368.121792
 42
-0.017134
  0
VERTEX
  8
0
 10
163.299894
 20
375.691424
 42
-0.007412
  0
VERTEX
  8
0
 10
163.022506
 20
379.227340
 42
-0.057373
  0
VERTEX
  8
0
 10
163.107152
 20
380.880570
 42
-0.166934
  0
VERTEX
  8
0
 10
163.541926
 20
381.682900
 42
-0.188016
  0
VERTEX
  8
0
 10
164.355395
 20
382.000000
 42
0.109714
  0
VERTEX
  8
0
 10
165.024346
 20
382.148575
 42
0.116181
  0
VERTEX
  8
0
 10
165.551513
 20
382.564882
 42
0.101297
  0
VERTEX
  8
0
 10
165.886269
 20
383.225312
 42
0.066907
  0
VERTEX
  8
0
 10
166.000000
 20
384.071429
 42
-0.015801
  0
VERTEX
  8
0
 10
166.037548
 20
385.259279
 42
-0.293958
  0
VERTEX
  8
0
 10
166.250000
 20
385.547619
 42
-0.279599
  0
VERTEX
  8
0
 10
166.610465
 20
385.481543
 42
-0.014708
  0
VERTEX
  8
0
 10
167.500000
 20
384.642857
 42
-0.017569
  0
VERTEX
  8
0
 10
168.074343
 20
384.026667
 42
-0.022100
  0
VERTEX
  8
0
 10
168.559375
 20
383.415625
 42
-0.020956
  0
VERTEX
  8
0
 10
168.914185
 20
382.879742
 42
-0.136573
  0
SEQEND
  0
POLYLINE
  8
0
 66
1
 70
1
  0
VERTEX
  8
0
 10
108.052886
 20
381.449733
 42
-0.015540
  0
VERTEX
  8
0
 10
107.705958
 20
380.407410
 42
-0.073633
  0
VERTEX
  8
0
 10
107.405445
 20
379.856522
 42
-0.485267
  0
VERTEX
  8
0
 10
107.208350
 20
379.852417
 42
-0.160497
  0
VERTEX
  8
0
 10
107.085953
 20
380.168213
 42
-0.056462
  0
VERTEX
  8
0
 10
107.177685
 20
381.662152
 42
-0.035917
  0
VERTEX
  8
0
 10
107.602318
 20
383.353807
 42
-0.037992
  0
VERTEX
  8
0
 10
108.150175
 20
384.672763
 42
-0.510031
  0
VERTEX
  8
0
 10
108.590472
 20
384.742861
 42
-0.225746
  0
VERTEX
  8
0
 10
108.685979
 20
384.474023
 42
-0.014780
  0
VERTEX
  8
0
 10
108.574207
 20
383.633854
 42
-0.019144
  0
VERTEX
  8
0
 10
108.365511
 20
382.604866
 42
-0.012962
  0
SEQEND
  0
POLYLINE
  8
0
 66
1
 70
1
  0
VERTEX
  8
0
 10
121.878313
 20
369.000000
 42
-0.016063
  0
VERTEX
  8
0
 10
123.113260
 20
367.513239
 42
-0.015748
  0
VERTEX
  8
0
 10
124.258729
 20
365.940625
 42
-0.015841
  0
VERTEX
  8
0
 10
125.174935
 20
364.499669
 42
-0.055803
  0
VERTEX
  8
0
 10
125.625179
 20
363.500000
 42
0.020758
  0
VERTEX
  8
0
 10
125.920958
 20
362.697690
 42
0.022179
  0
VERTEX
  8
0
 10
126.276501
 20
361.940625
 42
0.022435
  0
VERTEX
  8
0
 10
126.638128
 20
361.320978
 42
0.089015
  0
VERTEX
  8
0
 10
126.937568
 20
361.000000
 42
-0.074151
  0
VERTEX
  8
0
 10
127.308753
 20
360.624956
 42
-0.006564
  0
VERTEX
  8
0
 10
128.083551
 20
359.537521
 42
-0.008466
  0
VERTEX
  8
0
 10
128.972957
 20
358.206318
 42
-0.006496
  0
VERTEX
  8
0
 10
129.900738
 20
356.723477
 42
0.007775
  0
VERTEX
  8
0
 10
130.866969
 20
355.187932
 42
0.007985
  0
VERTEX
  8
0
 10
131.872134
 20
353.696911
 42
0.007783
  0
VERTEX
  8
0
 10
132.784213
 20
352.431933
 42
0.033140
  0
VERTEX
  8
0
 10
133.388876
 20
351.723477
 42
-0.030327
  0
VERTEX
  8
0
 10
134.815648
 20
350.070694
 42
-0.016364
  0
VERTEX
  8
0
 10
136.376247
 20
347.879045
 42
-0.011437
  0
VERTEX
  8
0
 10
137.738647
 20
345.721266
 42
-0.135905
  0
VERTEX
  8
0
 10
138.000000
 20
344.777494
 42
-0.308496
  0
VERTEX
  8
0
 10
137.550451
 20
344.118220
 42
-0.169207
  0
VERTEX
  8
0
 10
136.530508
 20
344.078803
 42
-0.091826
  0
VERTEX
  8
0
 10
135.165309
 20
344.789105
 42
-0.070965
  0
VERTEX
  8
0
 10
134.000000
 20
346.000000
 42
0.031272
  0
VERTEX
  8
0
 10
133.372047
 20
346.765439
 42
0.035491
  0
VERTEX
  8
0
 10
132.677858
 20
347.412500
 42
0.038155
  0
VERTEX
  8
0
 10
132.018665
 20
347.866437
 42
0.132461
  0
VERTEX
  8
0
 10
131.523352
 20
348.000000
 42
-0.189474
  0
VERTEX
  8
0
 10
131.038599
 20
348.190536
 42
-0.038668
  0
VERTEX
  8
0
 10
130.402213
 20
348.881250
 42
-0.035724
  0
VERTEX
  8
0
 10
129.744559
 20
349.851320
 42
-0.026915
  0
VERTEX
  8
0
 10
129.160294
 20
351.000000
 42
0.044282
  0
VERTEX
  8
0
 10
128.524921
 20
352.148732
 42
0.049782
  0
VERTEX
  8
0
 10
127.718418
 20
353.119541
 42
0.056231
  0
VERTEX
  8
0
 10
126.869884
 20
353.785955
 42
0.139243
  0
VERTEX
  8
0
 10
126.116182
 20
354.000000
 42
-0.103227
  0
VERTEX
  8
0
 10
124.561686
 20
354.324389
 42
-0.096303
  0
VERTEX
  8
0
 10
123.222504
 20
355.247398
 42
-0.095391
  0
VERTEX
  8
0
 10
122.317366
 20
356.613644
 42
-0.099048
  0
VERTEX
  8
0
 10
122.000000
 20
358.200000
 42
0.096580
  0
VERTEX
  8
0
 10
121.848963
 20
358.974637
 42
0.120649
  0
VERTEX
  8
0
 10
121.421389
 20
359.566942
 42
0.104607
  0
VERTEX
  8
0
 10
120.714157
 20
359.950500
 42
0.059313
  0
VERTEX
  8
0
 10
119.750000
 20
360.116001
 42
-0.005718
  0
VERTEX
  8
0
 10
118.607705
 20
360.187999
 42
-0.197309
  0
VERTEX
  8
0
 10
118.371220
 20
360.306344
 42
-0.541772
  0
VERTEX
  8
0
 10
118.411700
 20
360.449367
 42
-0.011590
  0
VERTEX
  8
0
 10
119.250000
 20
360.689326
 42
0.100871
  0
VERTEX
  8
0
 10
119.918633
 20
361.017832
 42
0.075756
  0
VERTEX
  8
0
 10
120.485938
 20
361.612515
 42
0.072836
  0
VERTEX
  8
0
 10
120.868540
 20
362.374754
 42
0.080118
  0
VERTEX
  8
0
 10
121.000000
 20
363.189901
 42
0.058104
  0
VERTEX
  8
0
 10
120.881976
 20
364.202091
 42
0.197308
  0
VERTEX
  8
0
 10
120.502589
 20
364.731533
 42
0.155349
  0
VERTEX
  8
0
 10
119.789226
 20
364.914585
 42
0.032970
  0
VERTEX
  8
0
 10
118.500000
 20
364.755249
 42
-0.031701
  0
VERTEX
  8
0
 10
117.541823
 20
364.634359
 42
-0.053628
  0
VERTEX
  8
0
 10
116.734375
 20
364.670744
 42
-0.076393
  0
VERTEX
  8
0
 10
116.183445
 20
364.843992
 42
-0.285831
  0
VERTEX
  8
0
 10
116.000000
 20
365.138672
 42
0.169832
  0
VERTEX
  8
0
 10
115.885065
 20
365.467290
 42
0.094439
  0
VERTEX
  8
0
 10
115.559375
 20
365.746985
 42
0.075034
  0
VERTEX
  8
0
 10
115.073793
 20
365.936141
 42
0.055475
  0
VERTEX
  8
0
 10
114.500000
 20
366.000000
 42
-0.130775
  0
VERTEX
  8
0
 10
113.924246
 20
366.153209
 42
-0.102140
  0
VERTEX
  8
0
 10
113.437500
 20
366.583333
 42
-0.088920
  0
VERTEX
  8
0
 10
113.111864
 20
367.230589
 42
-0.072314
  0
VERTEX
  8
0
 10
113.000000
 20
368.000000
 42
-0.048028
  0
VERTEX
  8
0
 10
113.073693
 20
368.765418
 42
-0.068025
  0
VERTEX
  8
0
 10
113.293750
 20
369.412500
 42
-0.088204
  0
VERTEX
  8
0
 10
113.618118
 20
369.848523
 42
-0.191087
  0
VERTEX
  8
0
 10
114.000000
 20
370.000000
 42
0.191087
  0
VERTEX
  8
0
 10
114.381882
 20
370.151477
 42
0.088204
  0
VERTEX
  8
0
 10
114.706250
 20
370.587500
 42
0.068025
  0
VERTEX
  8
0
 10
114.926307
 20
371.234582
 42
0.048028
  0
VERTEX
  8
0
 10
115.000000
 20
372.000000
 42
0.072254
  0
VERTEX
  8
0
 10
114.873159
 20
372.873159
 42
0.124864
  0
VERTEX
  8
0
 10
114.500000
 20
373.500000
 42
0.124864
  0
VERTEX
  8
0
 10
113.873159
 20
373.873159
 42
0.072254
  0
VERTEX
  8
0
 10
113.000000
 20
374.000000
 42
-0.145747
  0
VERTEX
  8
0
 10
111.647611
 20
374.402768
 42
-0.232843
  0
VERTEX
  8
0
 10
111.045912
 20
375.419533
 42
-0.222377
  0
VERTEX
  8
0
 10
111.474807
 20
376.556186
 42
-0.138514
  0
VERTEX
  8
0
 10
112.750000
 20
377.247989
 42
-0.125572
  0
VERTEX
  8
0
 10
113.592264
 20
377.224366
 42
-0.058192
  0
VERTEX
  8
0
 10
114.610066
 20
376.801076
 42
-0.050546
  0
VERTEX
  8
0
 10
115.668379
 20
376.059217
 42
-0.041218
  0
VERTEX
  8
0
 10
116.637916
 20
375.071313
 42
0.003194
  0
VERTEX
  8
0
 10
117.675463
 20
373.839528
 42
0.001418
  0
VERTEX
  8
0
 10
119.059173
 20
372.227198
 42
0.001403
  0
VERTEX
  8
0
 10
120.534125
 20
370.528041
 42
0.001894
  0
SEQEND
  0
POLYLINE
  8
0
 66
1
 70
1
  0
VERTEX
  8
0
 10
108.000000
 20
245.071429
 42
-0.163307
  0
VERTEX
  8
0
 10
107.607325
 20
243.901228
 42
-0.048958
  0
VERTEX
  8
0
 10
106.314846
 20
242.500841
 42
-0.049190
  0
VERTEX
  8
0
 10
104.745153
 20
241.358011
 42
-0.133538
  0
VERTEX
  8
0
 10
103.428571
 20
241.000000
 42
0.104136
  0
VERTEX
  8
0
 10
102.883474
 20
240.885227
 42
0.099005
  0
VERTEX
  8
0
 10
102.419643
 20
240.559375
 42
0.096665
  0
VERTEX
  8
0
 10
102.108796
 20
240.072570
 42
0.094164
  0
VERTEX
  8
0
 10
102.000000
 20
239.500000
 42
-0.096725
  0
VERTEX
  8
0
 10
101.888202
 20
238.927491
 42
-0.097371
  0
VERTEX
  8
0
 10
101.569341
 20
238.440625
 42
-0.098470
  0
VERTEX
  8
0
 10
101.093387
 20
238.114638
 42
-0.101401
  0
VERTEX
  8
0
 10
100.533927
 20
238.000000
 42
0.090143
  0
VERTEX
  8
0
 10
98.941490
 20
237.710554
 42
0.010479
  0
VERTEX
  8
0
 10
95.563781
 20
236.359270
 42
0.010098
  0
VERTEX
  8
0
 10
92.238442
 20
234.867436
 42
0.097606
  0
VERTEX
  8
0
 10
91.000000
 20
233.952079
 42
-0.123939
  0
VERTEX
  8
0
 10
90.556348
 20
233.658566
 42
-0.002240
  0
VERTEX
  8
0
 10
87.856250
 20
232.723521
 42
-0.005422
  0
VERTEX
  8
0
 10
84.676927
 20
231.676801
 42
-0.003576
  0
VERTEX
  8
0
 10
81.000000
 20
230.539173
 42
0.006295
  0
VERTEX
  8
0
 10
77.210202
 20
229.344006
 42
0.007572
  0
VERTEX
  8
0
 10
73.679676
 20
228.121976
 42
0.006586
  0
VERTEX
  8
0
 10
70.741825
 20
227.010989
 42
0.049500
  0
VERTEX
  8
0
 10
69.420174
 20
226.333586
 42
-0.035278
  0
VERTEX
  8
0
 10
68.574762
 20
225.869511
 42
-0.048130
  0
VERTEX
  8
0
 10
67.754434
 20
225.583650
 42
-0.057653
  0
VERTEX
  8
0
 10
67.072283
 20
225.498663
 42
-0.201193
  0
VERTEX
  8
0
 10
66.670174
 20
225.663159
 42
-0.147935
  0
VERTEX
  8
0
 10
66.120726
 20
226.689167
 42
-0.067791
  0
VERTEX
  8
0
 10
66.024905
 20
228.219177
 42
-0.076245
  0
VERTEX
  8
0
 10
66.330504
 20
229.554242
 42
-0.307577
  0
VERTEX
  8
0
 10
66.986580
 20
230.000000
 42
0.211046
  0
VERTEX
  8
0
 10
67.456647
 20
230.207661
 42
0.032084
  0
VERTEX
  8
0
 10
68.112930
 20
231.028125
 42
0.031279
  0
VERTEX
  8
0
 10
68.803462
 20
232.159502
 42
0.022423
  0
VERTEX
  8
0
 10
69.435553
 20
233.500000
 42
-0.029478
  0
VERTEX
  8
0
 10
70.090853
 20
234.840387
 42
-0.038495
  0
VERTEX
  8
0
 10
70.850545
 20
235.973513
 42
-0.042639
  0
VERTEX
  8
0
 10
71.601101
 20
236.774691
 42
-0.184165
  0
VERTEX
  8
0
 10
72.198973
 20
237.005577
 42
0.041823
  0
VERTEX
  8
0
 10
72.927722
 20
237.069787
 42
0.008228
  0
VERTEX
  8
0
 10
74.219386
 20
237.315435
 42
0.008672
  0
VERTEX
  8
0
 10
75.718903
 20
237.653489
 42
0.007952
  0
VERTEX
  8
0
 10
77.250000
 20
238.052581
 42
0.027436
  0
VERTEX
  8
0
 10
78.994361
 20
238.641789
 42
0.072654
  0
VERTEX
  8
0
 10
80.130589
 20
239.300913
 42
0.106893
  0
VERTEX
  8
0
 10
80.771474
 20
240.082018
 42
0.119091
  0
VERTEX
  8
0
 10
81.000000
 20
241.027874
 42
-0.097109
  0
VERTEX
  8
0
 10
81.197481
 20
242.035084
 42
-0.228571
  0
VERTEX
  8
0
 10
81.752001
 20
242.535495
 42
-0.094835
  0
VERTEX
  8
0
 10
82.896486
 20
242.645273
 42
-0.010685
  0
VERTEX
  8
0
 10
85.500000
 20
242.344946
 42
0.011370
  0
VERTEX
  8
0
 10
88.061946
 20
242.052971
 42
0.090004
  0
VERTEX
  8
0
 10
89.246325
 20
242.158406
 42
0.209420
  0
VERTEX
  8
0
 10
89.849377
 20
242.647253
 42
0.104202
  0
VERTEX
  8
0
 10
90.116001
 20
243.614076
 42
-0.002846
  0
VERTEX
  8
0
 10
90.194676
 20
244.784394
 42
-0.327287
  0
VERTEX
  8
0
 10
90.288804
 20
244.894926
 42
-0.403751
  0
VERTEX
  8
0
 10
90.399780
 20
244.829203
 42
-0.003256
  0
VERTEX
  8
0
 10
90.689326
 20
243.750000
 42
0.181080
  0
VERTEX
  8
0
 10
91.522448
 20
242.567800
 42
0.133070
  0
VERTEX
  8
0
 10
93.050716
 20
242.037412
 42
0.163249
  0
VERTEX
  8
0
 10
94.428617
 20
242.395393
 42
0.253471
  0
VERTEX
  8
0
 10
95.000000
 20
243.450096
 42
-0.230294
  0
VERTEX
  8
0
 10
95.337415
 20
244.143817
 42
-0.090319
  0
VERTEX
  8
0
 10
96.303520
 20
244.653254
 42
-0.047576
  0
VERTEX
  8
0
 10
98.010100
 20
245.017047
 42
-0.013070
  0
VERTEX
  8
0
 10
100.750000
 20
245.261012
 42
0.002281
  0
VERTEX
  8
0
 10
103.007250
 20
245.412996
 42
0.003152
  0
VERTEX
  8
0
 10
105.031250
 20
245.571384
 42
0.001986
  0
VERTEX
  8
0
 10
106.730691
 20
245.721957
 42
0.038675
  0
VERTEX
  8
0
 10
107.250000
 20
245.810916
 42
-0.125648
  0
VERTEX
  8
0
 10
107.535585
 20
245.810053
 42
-0.132094
  0
VERTEX
  8
0
 10
107.779687
 20
245.671689
 42
-0.115973
  0
VERTEX
  8
0
 10
107.943225
 20
245.411734
 42
-0.082846
  0
SEQEND
  0
POLYLINE
  8
0
 66
1
 70
1
  0
VERTEX
  8
0
 10
128.000000
 20
242.160515
 42
0.190598
  0
VERTEX
  8
0
 10
128.156824
 20
241.764062
 42
0.037004
  0
VERTEX
  8
0
 10
128.734375
 20
241.233025
 42
0.034577
  0
VERTEX
  8
0
 10
129.542731
 20
240.679567
 42
0.025934
  0
VERTEX
  8
0
 10
130.500000
 20
240.181954
 42
-0.046624
  0
VERTEX
  8
0
 10
131.456368
 20
239.633475
 42
-0.050694
  0
VERTEX
  8
0
 10
132.265625
 20
238.930559
 42
-0.056806
  0
VERTEX
  8
0
 10
132.820422
 20
238.186674
 42
-0.132600
  0
VERTEX
  8
0
 10
133.000000
 20
237.521439
 42
0.093624
  0
VERTEX
  8
0
 10
133.109710
 20
236.940672
 42
0.096507
  0
VERTEX
  8
0
 10
133.423289
 20
236.446923
 42
0.099111
  0
VERTEX
  8
0
 10
133.891161
 20
236.116442
 42
0.104730
  0
VERTEX
  8
0
 10
134.440983
 20
236.000000
 42
-0.245470
  0
VERTEX
  8
0
 10
136.129226
 20
235.118029
 42
-0.230929
  0
VERTEX
  8
0
 10
136.428871
 20
233.188345
 42
-0.092226
  0
VERTEX
  8
0
 10
134.810224
 20
230.107710
 42
-0.033095
  0
VERTEX
  8
0
 10
131.476472
 20
226.411447
 42
-0.035634
  0
VERTEX
  8
0
 10
129.660576
 20
224.883442
 42
-0.052749
  0
VERTEX
  8
0
 10
127.859277
 20
223.845194
 42
-0.048978
  0
VERTEX
  8
0
 10
125.782035
 20
223.157742
 42
-0.025965
  0
VERTEX
  8
0
 10
123.106712
 20
222.699044
 42
0.054156
  0
VERTEX
  8
0
 10
118.228000
 20
221.576816
 42
0.039986
  0
VERTEX
  8
0
 10
113.152139
 20
219.345123
 42
0.024021
  0
VERTEX
  8
0
 10
106.488585
 20
215.330914
 42
0.005642
  0
VERTEX
  8
0
 10
95.752768
 20
207.962350
 42
-0.003258
  0
VERTEX
  8
0
 10
87.663274
 20
202.353169
 42
-0.025306
  0
VERTEX
  8
0
 10
83.744939
 20
199.955342
 42
-0.085799
  0
VERTEX
  8
0
 10
81.759597
 20
199.281116
 42
-0.460741
  0
VERTEX
  8
0
 10
81.000000
 20
199.930449
 42
0.201231
  0
VERTEX
  8
0
 10
80.840711
 20
200.310208
 42
0.066251
  0
VERTEX
  8
0
 10
80.346416
 20
200.681447
 42
0.053574
  0
VERTEX
  8
0
 10
79.626783
 20
200.989796
 42
0.038800
  0
VERTEX
  8
0
 10
78.775032
 20
201.180449
 42
-0.083865
  0
VERTEX
  8
0
 10
77.834102
 20
201.481837
 42
-0.050036
  0
VERTEX
  8
0
 10
76.846544
 20
202.125063
 42
-0.048361
  0
VERTEX
  8
0
 10
75.964177
 20
202.987446
 42
-0.059869
  0
VERTEX
  8
0
 10
75.334391
 20
203.947426
 42
-0.031033
  0
VERTEX
  8
0
 10
74.740385
 20
205.356426
 42
-0.146724
  0
VERTEX
  8
0
 10
74.700905
 20
206.222442
 42
-0.152682
  0
VERTEX
  8
0
 10
75.144625
 20
206.948060
 42
-0.034474
  0
VERTEX
  8
0
 10
76.309359
 20
207.833524
 42
0.049593
  0
VERTEX
  8
0
 10
79.255814
 20
210.217190
 42
0.005782
  0
VERTEX
  8
0
 10
85.221131
 20
216.248166
 42
0.002308
  0
VERTEX
  8
0
 10
91.493371
 20
222.798104
 42
0.192094
  0
VERTEX
  8
0
 10
92.000000
 20
224.068149
 42
-0.250824
  0
VERTEX
  8
0
 10
92.685897
 20
225.349419
 42
-0.008489
  0
VERTEX
  8
0
 10
97.664149
 20
228.545967
 42
-0.016502
  0
VERTEX
  8
0
 10
102.916456
 20
231.558989
 42
-0.032986
  0
VERTEX
  8
0
 10
107.282655
 20
233.518648
 42
0.011152
  0
VERTEX
  8
0
 10
109.152801
 20
234.261778
 42
0.014842
  0
VERTEX
  8
0
 10
110.815025
 20
235.024546
 42
0.012083
  0
VERTEX
  8
0
 10
112.150504
 20
235.726725
 42
0.127939
  0
VERTEX
  8
0
 10
112.591672
 20
236.148329
 42
-0.124381
  0
VERTEX
  8
0
 10
113.234193
 20
236.771025
 42
-0.142124
  0
VERTEX
  8
0
 10
114.063223
 20
236.973799
 42
-0.183833
  0
VERTEX
  8
0
 10
114.728189
 20
236.687876
 42
-0.202998
  0
VERTEX
  8
0
 10
115.000000
 20
236.045974
 42
-0.245393
  0
VERTEX
  8
0
 10
114.741115
 20
235.550249
 42
-0.013672
  0
VERTEX
  8
0
 10
113.237500
 20
234.563188
 42
-0.018534
  0
VERTEX
  8
0
 10
111.299200
 20
233.462391
 42
-0.012278
  0
VERTEX
  8
0
 10
109.000000
 20
232.337888
 42
0.015580
  0
VERTEX
  8
0
 10
106.313812
 20
231.002069
 42
0.038958
  0
VERTEX
  8
0
 10
104.471329
 20
229.819766
 42
0.056084
  0
VERTEX
  8
0
 10
103.349888
 20
228.752958
 42
0.176373
  0
VERTEX
  8
0
 10
103.000000
 20
227.791913
 42
0.185235
  0
VERTEX
  8
0
 10
103.455246
 20
226.605245
 42
0.203222
  0
VERTEX
  8
0
 10
104.566844
 20
226.085754
 42
0.087580
  0
VERTEX
  8
0
 10
106.575548
 20
226.365793
 42
0.020639
  0
VERTEX
  8
0
 10
109.766486
 20
227.546898
 42
-0.019169
  0
VERTEX
  8
0
 10
111.385522
 20
228.151593
 42
-0.049118
  0
VERTEX
  8
0
 10
112.604685
 20
228.425446
 42
-0.081206
  0
VERTEX
  8
0
 10
113.427022
 20
228.393146
 42
-0.268093
  0
VERTEX
  8
0
 10
113.817701
 20
228.046898
 42
0.252782
  0
VERTEX
  8
0
 10
114.635046
 20
227.279555
 42
0.062685
  0
VERTEX
  8
0
 10
116.518814
 20
227.026645
 42
0.061374
  0
VERTEX
  8
0
 10
118.465265
 20
227.250179
 42
0.197584
  0
VERTEX
  8
0
 10
119.500000
 20
228.000000
 42
-0.108356
  0
VERTEX
  8
0
 10
119.871391
 20
228.383435
 42
-0.050858
  0
VERTEX
  8
0
 10
120.485668
 20
228.706250
 42
-0.047053
  0
VERTEX
  8
0
 10
121.226605
 20
228.925894
 42
-0.048576
  0
VERTEX
  8
0
 10
121.987588
 20
229.000000
 42
0.065713
  0
VERTEX
  8
0
 10
122.812824
 20
229.108928
 42
0.039107
  0
VERTEX
  8
0
 10
123.748586
 20
229.440625
 42
0.038487
  0
VERTEX
  8
0
 10
124.645655
 20
229.925768
 42
0.053226
  0
VERTEX
  8
0
 10
125.357143
 20
230.500000
 42
-0.035653
  0
VERTEX
  8
0
 10
126.019424
 20
231.074014
 42
-0.033810
  0
VERTEX
  8
0
 10
126.767969
 20
231.559375
 42
-0.035655
  0
VERTEX
  8
0
 10
127.489489
 20
231.895867
 42
-0.091529
  0
VERTEX
  8
0
 10
128.053571
 20
232.000000
 42
0.405415
  0
VERTEX
  8
0
 10
128.783716
 20
232.708468
 42
0.046620
  0
VERTEX
  8
0
 10
128.625039
 20
235.222231
 42
0.043093
  0
VERTEX
  8
0
 10
127.980365
 20
237.830114
 42
0.232466
  0
VERTEX
  8
0
 10
126.977355
 20
238.833333
 42
-0.236342
  0
VERTEX
  8
0
 10
126.257831
 20
239.563664
 42
-0.079973
  0
VERTEX
  8
0
 10
126.021972
 20
241.081365
 42
-0.087927
  0
VERTEX
  8
0
 10
126.281481
 20
242.500720
 42
-0.313328
  0
VERTEX
  8
0
 10
127.000000
 20
243.000000
 42
-0.082567
  0
VERTEX
  8
0
 10
127.381921
 20
242.936499
 42
-0.092471
  0
VERTEX
  8
0
 10
127.706250
 20
242.753401
 42
-0.100624
  0
VERTEX
  8
0
 10
127.923119
 20
242.480712
 42
-0.118371
  0
SEQEND
  0
POLYLINE
  8
0
 66
1
 70
1
  0
VERTEX
  8
0
 10
84.357289
 20
222.750000
 42
0.000339
  0
VERTEX
  8
0
 10
83.055304
 20
221.353908
 42
0.000270
  0
VERTEX
  8
0
 10
81.652397
 20
219.845922
 42
0.000273
  0
VERTEX
  8
0
 10
80.354320
 20
218.447579
 42
0.000687
  0
VERTEX
  8
0
 10
79.411123
 20
217.427607
 42
-0.022324
  0
VERTEX
  8
0
 10
78.450164
 20
216.474645
 42
-0.009971
  0
VERTEX
  8
0
 10
77.106705
 20
215.304305
 42
-0.009848
  0
VERTEX
  8
0
 10
75.634205
 20
214.120835
 42
-0.013165
  0
VERTEX
  8
0
 10
74.250000
 20
213.109513
 42
0.000000
  0
VERTEX
  8
0
 10
71.000000
 20
210.863812
 42
0.000000
  0
VERTEX
  8
0
 10
70.986345
 20
213.681906
 42
0.016581
  0
VERTEX
  8
0
 10
70.939383
 20
214.917006
 42
0.011696
  0
VERTEX
  8
0
 10
70.808212
 20
216.300101
 42
0.011821
  0
VERTEX
  8
0
 10
70.620335
 20
217.618146
 42
0.024236
  0
VERTEX
  8
0
 10
70.399110
 20
218.637588
 42
-0.145274
  0
VERTEX
  8
0
 10
70.432009
 20
219.884695
 42
-0.164330
  0
VERTEX
  8
0
 10
71.145148
 20
220.841213
 42
-0.060821
  0
VERTEX
  8
0
 10
72.937341
 20
221.780873
 42
-0.007235
  0
VERTEX
  8
0
 10
77.162765
 20
223.308641
 42
-0.004594
  0
VERTEX
  8
0
 10
83.790292
 20
225.529118
 42
-0.098211
  0
VERTEX
  8
0
 10
85.833776
 20
225.772001
 42
-0.576692
  0
VERTEX
  8
0
 10
86.187046
 20
225.035218
 42
-0.038042
  0
SEQEND
  0
POLYLINE
  8
0
 66
1
 70
1
  0
VERTEX
  8
0
 10
132.484652
 20
217.250000
 42
0.007073
  0
VERTEX
  8
0
 10
131.893963
 20
216.013727
 42
0.004575
  0
VERTEX
  8
0
 10
131.243775
 20
214.567233
 42
0.004599
  0
VERTEX
  8
0
 10
130.634242
 20
213.141804
 42
0.008672
  0
VERTEX
  8
0
 10
130.173067
 20
211.978878
 42
-0.048417
  0
VERTEX
  8
0
 10
129.521406
 20
210.653456
 42
-0.010807
  0
VERTEX
  8
0
 10
128.147756
 20
208.535290
 42
-0.011121
  0
VERTEX
  8
0
 10
126.446929
 20
206.148740
 42
-0.010539
  0
VERTEX
  8
0
 10
124.611770
 20
203.796324
 42
0.008581
  0
VERTEX
  8
0
 10
122.845044
 20
201.549826
 42
0.012104
  0
VERTEX
  8
0
 10
121.354707
 20
199.484376
 42
0.008357
  0
VERTEX
  8
0
 10
120.191805
 20
197.725282
 42
0.142812
  0
VERTEX
  8
0
 10
120.000000
 20
197.067446
 42
-0.128188
  0
VERTEX
  8
0
 10
119.893890
 20
196.660364
 42
-0.100736
  0
VERTEX
  8
0
 10
119.595343
 20
196.313562
 42
-0.089262
  0
VERTEX
  8
0
 10
119.148749
 20
196.080387
 42
-0.075929
  0
VERTEX
  8
0
 10
118.622445
 20
196.000000
 42
0.085841
  0
VERTEX
  8
0
 10
118.005737
 20
195.893336
 42
0.043637
  0
VERTEX
  8
0
 10
117.288033
 20
195.564403
 42
0.041645
  0
VERTEX
  8
0
 10
116.586889
 20
195.084513
 42
0.048694
  0
VERTEX
  8
0
 10
116.014207
 20
194.517118
 42
-0.112632
  0
VERTEX
  8
0
 10
114.613690
 20
193.444122
 42
-0.019568
  0
VERTEX
  8
0
 10
111.511344
 20
192.167791
 42
-0.014079
  0
VERTEX
  8
0
 10
108.300780
 20
191.093091
 42
-0.276827
  0
VERTEX
  8
0
 10
107.330775
 20
191.335892
 42
-0.403026
  0
VERTEX
  8
0
 10
107.326414
 20
191.563309
 42
-0.000726
  0
VERTEX
  8
0
 10
110.148699
 20
194.601937
 42
-0.004248
  0
VERTEX
  8
0
 10
113.401437
 20
198.034888
 42
-0.002549
  0
VERTEX
  8
0
 10
117.319264
 20
202.058787
 42
0.003802
  0
VERTEX
  8
0
 10
121.458266
 20
206.331228
 42
0.004180
  0
VERTEX
  8
0
 10
125.402114
 20
210.534456
 42
0.003904
  0
VERTEX
  8
0
 10
128.713843
 20
214.180357
 42
0.021039
  0
VERTEX
  8
0
 10
130.413407
 20
216.250000
 42
-0.003317
  0
VERTEX
  8
0
 10
132.714984
 20
219.264474
 42
-0.116086
  0
VERTEX
  8
0
 10
133.400328
 20
219.819743
 42
-0.701105
  0
VERTEX
  8
0
 10
133.606972
 20
219.618104
 42
-0.008650
  0
SEQEND
  0
POLYLINE
  8
0
 66
1
 70
1
  0
VERTEX
  8
0
 10
120.452948
 20
213.784354
 42
-0.007239
  0
VERTEX
  8
0
 10
111.664336
 20
204.679521
 42
-0.012784
  0
VERTEX
  8
0
 10
104.114888
 20
197.460565
 42
-0.007079
  0
VERTEX
  8
0
 10
97.791888
 20
191.877861
 42
-0.288593
  0
VERTEX
  8
0
 10
96.054876
 20
191.620271
 42
0.048208
  0
VERTEX
  8
0
 10
93.464940
 20
192.473818
 42
0.048149
  0
VERTEX
  8
0
 10
90.758412
 20
192.816072
 42
0.056133
  0
VERTEX
  8
0
 10
88.624870
 20
192.639470
 42
0.351677
  0
VERTEX
  8
0
 10
87.968197
 20
191.859406
 42
-0.105095
  0
VERTEX
  8
0
 10
87.857932
 20
191.394372
 42
-0.381636
  0
VERTEX
  8
0
 10
87.600975
 20
191.285911
 42
-0.129039
  0
VERTEX
  8
0
 10
87.179232
 20
191.566099
 42
-0.019849
  0
VERTEX
  8
0
 10
86.534875
 20
192.349942
 42
-0.239724
  0
VERTEX
  8
0
 10
86.293006
 20
193.696076
 42
-0.134330
  0
VERTEX
  8
0
 10
87.197528
 20
195.139291
 42
-0.036836
  0
VERTEX
  8
0
 10
89.904956
 20
197.285345
 42
-0.003182
  0
VERTEX
  8
0
 10
97.231881
 20
202.193716
 42
0.002435
  0
VERTEX
  8
0
 10
101.964455
 20
205.353880
 42
0.003381
  0
VERTEX
  8
0
 10
106.171643
 20
208.234540
 42
0.002099
  0
VERTEX
  8
0
 10
109.681743
 20
210.694845
 42
0.042489
  0
VERTEX
  8
0
 10
110.675698
 20
211.532841
 42
-0.054737
  0
VERTEX
  8
0
 10
111.427287
 20
212.135708
 42
-0.018033
  0
VERTEX
  8
0
 10
112.650854
 20
212.853615
 42
-0.017717
  0
VERTEX
  8
0
 10
114.075879
 20
213.558069
 42
-0.019179
  0
VERTEX
  8
0
 10
115.510496
 20
214.139956
 42
0.017214
  0
VERTEX
  8
0
 10
116.847453
 20
214.676124
 42
0.025491
  0
VERTEX
  8
0
 10
117.974958
 20
215.244317
 42
0.023201
  0
VERTEX
  8
0
 10
118.817749
 20
215.777598
 42
0.244782
  0
VERTEX
  8
0
 10
119.000000
 20
216.127564
 42
-0.261922
  0
VERTEX
  8
0
 10
119.281611
 20
216.628269
 42
-0.042631
  0
VERTEX
  8
0
 10
120.318025
 20
217.142944
 42
-0.037917
  0
VERTEX
  8
0
 10
121.759730
 20
217.588772
 42
-0.025751
  0
VERTEX
  8
0
 10
123.452948
 20
217.883999
 42
-0.620257
  0
VERTEX
  8
0
 10
123.588103
 20
217.678411
 42
-0.025740
  0
VERTEX
  8
0
 10
122.964789
 20
216.727579
 42
-0.020367
  0
VERTEX
  8
0
 10
121.903680
 20
215.394972
 42
-0.010016
  0
SEQEND
  0
POLYLINE
  8
0
 66
1
 70
1
  0
VERTEX
  8
0
 10
190.118421
 20
148.643011
 42
-0.010999
  0
VERTEX
  8
0
 10
190.174151
 20
146.965332
 42
-0.030251
  0
VERTEX
  8
0
 10
190.115858
 20
145.783227
 42
-0.011415
  0
VERTEX
  8
0
 10
189.897832
 20
144.148449
 42
-0.000480
  0
VERTEX
  8
0
 10
188.985305
 20
138.360553
 42
-0.010398
  0
VERTEX
  8
0
 10
187.534834
 20
130.304093
 42
-0.008070
  0
VERTEX
  8
0
 10
185.633373
 20
121.599477
 42
-0.008173
  0
VERTEX
  8
0
 10
183.594558
 20
113.532383
 42
-0.019383
  0
VERTEX
  8
0
 10
181.749045
 20
107.621977
 42
-0.007346
  0
VERTEX
  8
0
 10
180.541228
 20
104.374874
 42
-0.071710
  0
VERTEX
  8
0
 10
179.822994
 20
103.102742
 42
-0.303067
  0
VERTEX
  8
0
 10
179.178741
 20
102.885585
 42
-0.170627
  0
VERTEX
  8
0
 10
178.469955
 20
103.371977
 42
0.103163
  0
VERTEX
  8
0
 10
177.211966
 20
104.506468
 42
0.122733
  0
VERTEX
  8
0
 10
175.681298
 20
104.953224
 42
0.178578
  0
VERTEX
  8
0
 10
174.494278
 20
104.568147
 42
0.229841
  0
VERTEX
  8
0
 10
174.000000
 20
103.549690
 42
-0.169031
  0
VERTEX
  8
0
 10
173.497423
 20
102.105528
 42
-0.130531
  0
VERTEX
  8
0
 10
172.152553
 20
101.101270
 42
-0.109065
  0
VERTEX
  8
0
 10
170.267754
 20
100.788314
 42
-0.093974
  0
VERTEX
  8
0
 10
168.314029
 20
101.266688
 42
-0.069280
  0
VERTEX
  8
0
 10
166.690804
 20
102.297679
 42
-0.205207
  0
VERTEX
  8
0
 10
166.115117
 20
103.454395
 42
-0.162388
  0
VERTEX
  8
0
 10
166.498970
 20
104.869047
 42
-0.040797
  0
VERTEX
  8
0
 10
168.000000
 20
106.769625
 42
0.029384
  0
VERTEX
  8
0
 10
168.765417
 20
107.694626
 42
0.029879
  0
VERTEX
  8
0
 10
169.412500
 20
108.698011
 42
0.031308
  0
VERTEX
  8
0
 10
169.865439
 20
109.634600
 42
0.097268
  0
VERTEX
  8
0
 10
170.000000
 20
110.319762
 42
-0.089355
  0
VERTEX
  8
0
 10
170.163327
 20
111.226380
 42
-0.005591
  0
VERTEX
  8
0
 10
171.144982
 20
113.775005
 42
-0.008111
  0
VERTEX
  8
0
 10
172.404756
 20
116.796155
 42
-0.005925
  0
VERTEX
  8
0
 10
173.897811
 20
120.111575
 42
0.010910
  0
VERTEX
  8
0
 10
175.439455
 20
123.628123
 42
0.010466
  0
VERTEX
  8
0
 10
176.848776
 20
127.257244
 42
0.010452
  0
VERTEX
  8
0
 10
177.957252
 20
130.508530
 42
0.036728
  0
VERTEX
  8
0
 10
178.470126
 20
132.657767
 42
-0.022569
  0
VERTEX
  8
0
 10
178.830919
 20
134.384712
 42
-0.020298
  0
VERTEX
  8
0
 10
179.356535
 20
136.135346
 42
-0.020788
  0
VERTEX
  8
0
 10
179.957245
 20
137.666645
 42
-0.058318
  0
VERTEX
  8
0
 10
180.540512
 20
138.657767
 42
0.070603
  0
VERTEX
  8
0
 10
181.079272
 20
139.626742
 42
0.029137
  0
VERTEX
  8
0
 10
181.535695
 20
141.060407
 42
0.028112
  0
VERTEX
  8
0
 10
181.853302
 20
142.679115
 42
0.032276
  0
VERTEX
  8
0
 10
181.968197
 20
144.250000
 42
-0.020442
  0
VERTEX
  8
0
 10
182.063690
 20
146.183103
 42
-0.095777
  0
VERTEX
  8
0
 10
182.371300
 20
147.248000
 42
-0.170822
  0
VERTEX
  8
0
 10
182.952531
 20
147.800694
 42
-0.105858
  0
VERTEX
  8
0
 10
183.883369
 20
148.000000
 42
0.097548
  0
VERTEX
  8
0
 10
184.645778
 20
148.150171
 42
0.076465
  0
VERTEX
  8
0
 10
185.369562
 20
148.585598
 42
0.074084
  0
VERTEX
  8
0
 10
185.948722
 20
149.234496
 42
0.081428
  0
VERTEX
  8
0
 10
186.290828
 20
150.004126
 42
-0.173851
  0
VERTEX
  8
0
 10
187.125477
 20
151.224025
 42
-0.246879
  0
VERTEX
  8
0
 10
188.401547
 20
151.406997
 42
-0.179880
  0
VERTEX
  8
0
 10
189.600837
 20
150.401731
 42
-0.116023
  0
SEQEND
  0
POLYLINE
  8
0
 66
1
 70
1
  0
VERTEX
  8
0
 10
203.026779
 20
148.000000
 42
-0.088074
  0
VERTEX
  8
0
 10
203.163215
 20
146.358903
 42
-0.009132
  0
VERTEX
  8
0
 10
202.732272
 20
142.492906
 42
-0.010844
  0
VERTEX
  8
0
 10
202.015042
 20
137.777979
 42
-0.007599
  0
VERTEX
  8
0
 10
201.011772
 20
132.500000
 42
-0.002423
  0
VERTEX
  8
0
 10
198.710160
 20
121.588518
 42
-0.030411
  0
VERTEX
  8
0
 10
197.571859
 20
117.531401
 42
-0.102594
  0
VERTEX
  8
0
 10
196.459313
 20
115.670381
 42
-0.209881
  0
VERTEX
  8
0
 10
194.932612
 20
115.000000
 42
0.076980
  0
VERTEX
  8
0
 10
194.181691
 20
114.883699
 42
0.094119
  0
VERTEX
  8
0
 10
193.557461
 20
114.546722
 42
0.104600
  0
VERTEX
  8
0
 10
193.146288
 20
114.037918
 42
0.118355
  0
VERTEX
  8
0
 10
193.000000
 20
113.428571
 42
-0.120647
  0
VERTEX
  8
0
 10
192.651769
 20
112.006396
 42
-0.065072
  0
VERTEX
  8
0
 10
191.612043
 20
110.519496
 42
-0.066041
  0
VERTEX
  8
0
 10
190.253629
 20
109.378291
 42
-0.142663
  0
VERTEX
  8
0
 10
188.954797
 20
109.000000
 42
-0.173831
  0
VERTEX
  8
0
 10
188.502995
 20
109.161969
 42
-0.168772
  0
VERTEX
  8
0
 10
188.250224
 20
109.576142
 42
-0.095372
  0
VERTEX
  8
0
 10
188.233900
 20
110.273732
 42
-0.033734
  0
VERTEX
  8
0
 10
188.466832
 20
111.250000
 42
0.017561
  0
VERTEX
  8
0
 10
188.798385
 20
112.464316
 42
0.004637
  0
VERTEX
  8
0
 10
189.241861
 20
114.427673
 42
0.004700
  0
VERTEX
  8
0
 10
189.705045
 20
116.672538
 42
0.004813
  0
VERTEX
  8
0
 10
190.122118
 20
118.908036
 42
-0.004969
  0
VERTEX
  8
0
 10
190.518501
 20
121.028961
 42
-0.006834
  0
VERTEX
  8
0
 10
190.919697
 20
122.926440
 42
-0.004563
  0
VERTEX
  8
0
 10
191.291296
 20
124.505225
 42
-0.078482
  0
VERTEX
  8
0
 10
191.495950
 20
124.993446
 42
0.090760
  0
VERTEX
  8
0
 10
192.068221
 20
126.457801
 42
0.002391
  0
VERTEX
  8
0
 10
193.370025
 20
133.347540
 42
0.004734
  0
VERTEX
  8
0
 10
194.517660
 20
139.934430
 42
0.030011
  0
VERTEX
  8
0
 10
194.867255
 20
143.315661
 42
-0.044258
  0
VERTEX
  8
0
 10
195.024426
 20
144.504159
 42
-0.035049
  0
VERTEX
  8
0
 10
195.395179
 20
145.746541
 42
-0.036145
  0
VERTEX
  8
0
 10
195.908018
 20
146.857902
 42
-0.070316
  0
VERTEX
  8
0
 10
196.494233
 20
147.637090
 42
0.029973
  0
VERTEX
  8
0
 10
197.070497
 20
148.286920
 42
0.031039
  0
VERTEX
  8
0
 10
197.557681
 20
148.993736
 42
0.032660
  0
VERTEX
  8
0
 10
197.898776
 20
149.655154
 42
0.103071
  0
VERTEX
  8
0
 10
198.000000
 20
150.140980
 42
-0.363242
  0
VERTEX
  8
0
 10
198.693435
 20
150.969546
 42
-0.145961
  0
VERTEX
  8
0
 10
200.272242
 20
150.790746
 42
-0.089935
  0
VERTEX
  8
0
 10
202.080045
 20
149.601070
 42
-0.138560
  0
SEQEND
  0
POLYLINE
  8
0
 66
1
 70
1
  0
VERTEX
  8
0
 10
173.378831
 20
143.013655
 42
-0.453286
  0
VERTEX
  8
0
 10
175.244126
 20
140.853859
 42
-0.039897
  0
VERTEX
  8
0
 10
173.474521
 20
132.886418
 42
-0.030349
  0
VERTEX
  8
0
 10
169.218459
 20
121.544458
 42
-0.014496
  0
VERTEX
  8
0
 10
162.461531
 20
107.508497
 42
-0.006940
  0
VERTEX
  8
0
 10
159.691460
 20
102.334201
 42
-0.072464
  0
VERTEX
  8
0
 10
158.237424
 20
100.421836
 42
-0.121010
  0
VERTEX
  8
0
 10
156.555629
 20
99.424680
 42
-0.032070
  0
VERTEX
  8
0
 10
153.493789
 20
98.707046
 42
-0.046279
  0
VERTEX
  8
0
 10
149.903466
 20
98.442268
 42
-0.054743
  0
VERTEX
  8
0
 10
146.529175
 20
98.877424
 42
-0.059340
  0
VERTEX
  8
0
 10
143.569246
 20
99.978633
 42
-0.074967
  0
VERTEX
  8
0
 10
141.202181
 20
101.684160
 42
-0.169601
  0
VERTEX
  8
0
 10
140.602485
 20
102.892229
 42
-0.112061
  0
VERTEX
  8
0
 10
140.756233
 20
104.449277
 42
-0.069730
  0
VERTEX
  8
0
 10
141.729228
 20
106.408952
 42
-0.026755
  0
VERTEX
  8
0
 10
143.582756
 20
108.829106
 42
0.023855
  0
VERTEX
  8
0
 10
146.127328
 20
112.111957
 42
0.002539
  0
VERTEX
  8
0
 10
151.636377
 20
120.051538
 42
0.003436
  0
VERTEX
  8
0
 10
157.400567
 20
128.574510
 42
0.005778
  0
VERTEX
  8
0
 10
162.106922
 20
135.817497
 42
-0.007043
  0
VERTEX
  8
0
 10
165.020659
 20
140.276952
 42
-0.040999
  0
VERTEX
  8
0
 10
166.772822
 20
142.466940
 42
-0.091408
  0
VERTEX
  8
0
 10
168.127428
 20
143.458232
 42
-0.179859
  0
VERTEX
  8
0
 10
169.437889
 20
143.581152
 42
0.018063
  0
VERTEX
  8
0
 10
170.364179
 20
143.367912
 42
0.011782
  0
VERTEX
  8
0
 10
171.446161
 20
143.185990
 42
0.011854
  0
VERTEX
  8
0
 10
172.511068
 20
143.058328
 42
0.022088
  0
SEQEND
  0
POLYLINE
  8
0
 66
1
 70
1
  0
VERTEX
  8
0
 10
210.525680
 20
139.049660
 42
0.024912
  0
VERTEX
  8
0
 10
209.941603
 20
137.767446
 42
0.020804
  0
VERTEX
  8
0
 10
209.448169
 20
136.354675
 42
0.021308
  0
VERTEX
  8
0
 10
209.105421
 20
135.022438
 42
0.052348
  0
VERTEX
  8
0
 10
209.000000
 20
134.018275
 42
-0.066456
  0
VERTEX
  8
0
 10
208.888045
 20
133.179673
 42
-0.062221
  0
VERTEX
  8
0
 10
208.559375
 20
132.379454
 42
-0.066546
  0
VERTEX
  8
0
 10
208.073686
 20
131.736427
 42
-0.106550
  0
VERTEX
  8
0
 10
207.500000
 20
131.361626
 42
0.082416
  0
VERTEX
  8
0
 10
206.926584
 20
131.024983
 42
0.065864
  0
VERTEX
  8
0
 10
206.440625
 20
130.496951
 42
0.066395
  0
VERTEX
  8
0
 10
206.112105
 20
129.865608
 42
0.087019
  0
VERTEX
  8
0
 10
206.000000
 20
129.226345
 42
-0.036123
  0
VERTEX
  8
0
 10
205.959521
 20
128.666782
 42
-0.100604
  0
VERTEX
  8
0
 10
205.826958
 20
128.297864
 42
-0.237226
  0
VERTEX
  8
0
 10
205.632296
 20
128.175967
 42
-0.223361
  0
VERTEX
  8
0
 10
205.410921
 20
128.255746
 42
-0.253033
  0
VERTEX
  8
0
 10
204.952507
 20
129.793401
 42
-0.015978
  0
VERTEX
  8
0
 10
206.102781
 20
134.537367
 42
-0.015023
  0
VERTEX
  8
0
 10
207.545861
 20
139.204491
 42
-0.320569
  0
VERTEX
  8
0
 10
208.659130
 20
140.000000
 42
0.072943
  0
VERTEX
  8
0
 10
209.171504
 20
140.075148
 42
0.087608
  0
VERTEX
  8
0
 10
209.606119
 20
140.293750
 42
0.100524
  0
VERTEX
  8
0
 10
209.896663
 20
140.618655
 42
0.133090
  0
VERTEX
  8
0
 10
210.000000
 20
141.000000
 42
-0.101660
  0
VERTEX
  8
0
 10
210.078397
 20
141.381601
 42
-0.098524
  0
VERTEX
  8
0
 10
210.301294
 20
141.706250
 42
-0.097306
  0
VERTEX
  8
0
 10
210.634202
 20
141.923753
 42
-0.096477
  0
VERTEX
  8
0
 10
211.025680
 20
142.000000
 42
-0.351832
  0
VERTEX
  8
0
 10
211.308852
 20
141.772592
 42
-0.096661
  0
VERTEX
  8
0
 10
211.324100
 20
141.159012
 42
-0.053181
  0
VERTEX
  8
0
 10
211.058873
 20
140.215874
 42
-0.024217
  0
SEQEND
  0
POLYLINE
  8
0
 66
1
 70
1
  0
VERTEX
  8
0
 10
153.729167
 20
132.395833
 42
-0.126455
  0
VERTEX
  8
0
 10
153.402231
 20
132.202593
 42
-0.060344
  0
VERTEX
  8
0
 10
152.916927
 20
132.123424
 42
-0.054150
  0
VERTEX
  8
0
 10
152.359369
 20
132.160852
 42
-0.051402
  0
VERTEX
  8
0
 10
151.812500
 20
132.316886
 42
-0.054073
  0
VERTEX
  8
0
 10
151.395823
 20
132.538436
 42
-0.470617
  0
VERTEX
  8
0
 10
151.378580
 20
132.720685
 42
-0.168741
  0
VERTEX
  8
0
 10
151.670344
 20
132.862007
 42
-0.018894
  0
VERTEX
  8
0
 10
152.416667
 20
132.921053
 42
-0.028489
  0
VERTEX
  8
0
 10
153.112848
 20
132.910055
 42
-0.077125
  0
VERTEX
  8
0
 10
153.592839
 20
132.799335
 42
-0.208169
  0
VERTEX
  8
0
 10
153.775380
 20
132.614691
 42
-0.296942
  0
SEQEND
  0
POLYLINE
  8
0
 66
1
 70
1
  0
VERTEX
  8
0
 10
148.791810
 20
126.050461
 42
-0.061226
  0
VERTEX
  8
0
 10
147.641444
 20
124.027544
 42
-0.004390
  0
VERTEX
  8
0
 10
143.736194
 20
118.870563
 42
-0.001721
  0
VERTEX
  8
0
 10
139.495508
 20
113.410583
 42
-0.220510
  0
VERTEX
  8
0
 10
138.750000
 20
113.029148
 42
-0.304266
  0
VERTEX
  8
0
 10
138.459821
 20
113.207813
 42
-0.045253
  0
VERTEX
  8
0
 10
138.220313
 20
113.889812
 42
-0.038229
  0
VERTEX
  8
0
 10
138.054236
 20
114.852309
 42
-0.023615
  0
VERTEX
  8
0
 10
138.000000
 20
116.000000
 42
0.033607
  0
VERTEX
  8
0
 10
137.911037
 20
117.322075
 42
0.082504
  0
VERTEX
  8
0
 10
137.625000
 20
118.250000
 42
0.126510
  0
VERTEX
  8
0
 10
137.148955
 20
118.797909
 42
0.152103
  0
VERTEX
  8
0
 10
136.500000
 20
119.000000
 42
-0.117638
  0
VERTEX
  8
0
 10
135.303866
 20
119.285371
 42
-0.414265
  0
VERTEX
  8
0
 10
135.081760
 20
119.962595
 42
-0.165421
  0
VERTEX
  8
0
 10
135.965709
 20
120.827221
 42
-0.050518
  0
VERTEX
  8
0
 10
137.750000
 20
121.469503
 42
0.055245
  0
VERTEX
  8
0
 10
140.011221
 20
122.307628
 42
0.053541
  0
VERTEX
  8
0
 10
142.059993
 20
123.627518
 42
0.059259
  0
VERTEX
  8
0
 10
143.530911
 20
125.134989
 42
0.165164
  0
VERTEX
  8
0
 10
144.000000
 20
126.516316
 42
-0.193750
  0
VERTEX
  8
0
 10
144.186007
 20
126.978313
 42
-0.133049
  0
VERTEX
  8
0
 10
144.676064
 20
127.272559
 42
-0.081334
  0
VERTEX
  8
0
 10
145.474993
 20
127.363939
 42
-0.035129
  0
VERTEX
  8
0
 10
146.541810
 20
127.236758
 42
-0.027267
  0
VERTEX
  8
0
 10
147.495216
 20
127.000002
 42
-0.046855
  0
VERTEX
  8
0
 10
148.251244
 20
126.687851
 42
-0.064599
  0
VERTEX
  8
0
 10
148.725162
 20
126.353633
 42
-0.315460
  0
SEQEND
  0
POLYLINE
  8
0
 66
1
 70
1
  0
VERTEX
  8
0
 10
186.006619
 20
41.023079
 42
-0.048429
  0
VERTEX
  8
0
 10
185.484460
 20
39.700744
 42
-0.025923
  0
VERTEX
  8
0
 10
184.603925
 20
38.179474
 42
-0.025560
  0
VERTEX
  8
0
 10
183.535400
 20
36.706675
 42
-0.036175
  0
VERTEX
  8
0
 10
182.430402
 20
35.523079
 42
-0.010878
  0
VERTEX
  8
0
 10
180.504269
 20
33.814364
 42
-0.067944
  0
VERTEX
  8
0
 10
179.396167
 20
33.106884
 42
-0.671908
  0
VERTEX
  8
0
 10
179.167279
 20
33.320417
 42
-0.067666
  0
VERTEX
  8
0
 10
179.673034
 20
34.250000
 42
0.007235
  0
VERTEX
  8
0
 10
180.193507
 20
34.980695
 42
0.001249
  0
VERTEX
  8
0
 10
181.155721
 20
36.381250
 42
0.001359
  0
VERTEX
  8
0
 10
182.276665
 20
38.031214
 42
0.001215
  0
VERTEX
  8
0
 10
183.431480
 20
39.750000
 42
-0.004476
  0
VERTEX
  8
0
 10
184.541568
 20
41.379157
 42
-0.007107
  0
VERTEX
  8
0
 10
185.524018
 20
42.751562
 42
-0.002407
  0
VERTEX
  8
0
 10
186.387855
 20
43.911012
 42
-0.235637
  0
VERTEX
  8
0
 10
186.566195
 20
44.000000
 42
-0.458920
  0
VERTEX
  8
0
 10
186.654139
 20
43.897746
 42
-0.008903
  0
VERTEX
  8
0
 10
186.523175
 20
43.125529
 42
-0.014800
  0
VERTEX
  8
0
 10
186.312969
 20
42.164792
 42
-0.008575
  0
SEQEND
  0
POLYLINE
  8
0
 66
1
 70
1
  0
VERTEX
  8
0
 10
175.089661
 20
37.735828
 42
-0.028463
  0
VERTEX
  8
0
 10
174.630264
 20
36.707750
 42
-0.027038
  0
VERTEX
  8
0
 10
174.049959
 20
35.720062
 42
-0.028082
  0
VERTEX
  8
0
 10
173.441103
 20
34.904724
 42
-0.080084
  0
VERTEX
  8
0
 10
172.907175
 20
34.442631
 42
-0.026648
  0
VERTEX
  8
0
 10
172.442096
 20
34.188382
 42
-0.218190
  0
VERTEX
  8
0
 10
172.206291
 20
34.184288
 42
-0.396852
  0
VERTEX
  8
0
 10
172.139719
 20
34.340466
 42
-0.050274
  0
VERTEX
  8
0
 10
172.315465
 20
34.701416
 42
0.027371
  0
VERTEX
  8
0
 10
172.623450
 20
35.266729
 42
0.006659
  0
VERTEX
  8
0
 10
173.067294
 20
36.232471
 42
0.006808
  0
VERTEX
  8
0
 10
173.547071
 20
37.355134
 42
0.006732
  0
VERTEX
  8
0
 10
173.997952
 20
38.494613
 42
-0.020504
  0
VERTEX
  8
0
 10
174.439536
 20
39.526594
 42
-0.038410
  0
VERTEX
  8
0
 10
174.892043
 20
40.313065
 42
-0.053910
  0
VERTEX
  8
0
 10
175.291663
 20
40.781199
 42
-0.405767
  0
VERTEX
  8
0
 10
175.555957
 20
40.777377
 42
-0.206017
  0
VERTEX
  8
0
 10
175.693167
 20
40.432896
 42
-0.031216
  0
VERTEX
  8
0
 10
175.625232
 20
39.677672
 42
-0.030665
  0
VERTEX
  8
0
 10
175.423244
 20
38.745715
 42
-0.022148
  0
SEQEND
  0
POLYLINE
  8
0
 66
1
 70
1
  0
VERTEX
  8
0
 10
91.000000
 20
452.000000
 42
0.072254
  0
VERTEX
  8
0
 10
91.126841
 20
451.126841
 42
0.124864
  0
VERTEX
  8
0
 10
91.500000
 20
450.500000
 42
0.124864
  0
VERTEX
  8
0
 10
92.126841
 20
450.126841
 42
0.072254
  0
VERTEX
  8
0
 10
93.000000
 20
450.000000
 42
0.072254
  0
VERTEX
  8
0
 10
93.873159
 20
450.126841
 42
0.124864
  0
VERTEX
  8
0
 10
94.500000
 20
450.500000
 42
0.124864
  0
VERTEX
  8
0
 10
94.873159
 20
451.126841
 42
0.072254
  0
VERTEX
  8
0
 10
95.000000
 20
452.000000
 42
0.072254
  0
VERTEX
  8
0
 10
94.873159
 20
452.873159
 42
0.124864
  0
VERTEX
  8
0
 10
94.500000
 20
453.500000
 42
0.124864
  0
VERTEX
  8
0
 10
93.873159
 20
453.873159
 42
0.072254
  0
VERTEX
  8
0
 10
93.000000
 20
454.000000
 42
0.072254
  0
VERTEX
  8
0
 10
92.126841
 20
453.873159
 42
0.124864
  0
VERTEX
  8
0
 10
91.500000
 20
453.500000
 42
0.124864
  0
VERTEX
  8
0
 10
91.126841
 20
452.873159
 42
0.072254
  0
SEQEND
  0
POLYLINE
  8
0
 66
1
 70
1
  0
VERTEX
  8
0
 10
157.666667
 20
117.333333
 42
0.099590
  0
VERTEX
  8
0
 10
157.409978
 20
116.947356
 42
0.033637
  0
VERTEX
  8
0
 10
157.195833
 20
116.303528
 42
0.031899
  0
VERTEX
  8
0
 10
157.049156
 20
115.541158
 42
0.031585
  0
VERTEX
  8
0
 10
157.000000
 20
114.763782
 42
0.241362
  0
VERTEX
  8
0
 10
157.689238
 20
113.419148
 42
0.209306
  0
VERTEX
  8
0
 10
159.253234
 20
113.084464
 42
0.150466
  0
VERTEX
  8
0
 10
160.972817
 20
114.025069
 42
0.158941
  0
VERTEX
  8
0
 10
161.819551
 20
115.750000
 42
0.046099
  0
VERTEX
  8
0
 10
161.871965
 20
116.820001
 42
0.143478
  0
VERTEX
  8
0
 10
161.641650
 20
117.496379
 42
0.169862
  0
VERTEX
  8
0
 10
161.113430
 20
117.874339
 42
0.071261
  0
VERTEX
  8
0
 10
160.236218
 20
118.000000
 42
0.031585
  0
VERTEX
  8
0
 10
159.458842
 20
117.950844
 42
0.031899
  0
VERTEX
  8
0
 10
158.696472
 20
117.804167
 42
0.033637
  0
VERTEX
  8
0
 10
158.052644
 20
117.590022
 42
0.099590
  0
SEQEND
  0
POLYLINE
  8
0
 66
1
 70
1
  0
VERTEX
  8
0
 10
155.000000
 20
109.912102
 42
-0.285218
  0
VERTEX
  8
0
 10
154.736606
 20
109.487924
 42
-0.089430
  0
VERTEX
  8
0
 10
153.986095
 20
109.271259
 42
-0.049846
  0
VERTEX
  8
0
 10
152.751726
 20
109.267489
 42
-0.017705
  0
VERTEX
  8
0
 10
151.000000
 20
109.500000
 42
0.012085
  0
VERTEX
  8
0
 10
148.649792
 20
109.838867
 42
0.115104
  0
VERTEX
  8
0
 10
147.648032
 20
109.728055
 42
0.242113
  0
VERTEX
  8
0
 10
147.158782
 20
109.209517
 42
0.070431
  0
VERTEX
  8
0
 10
147.000000
 20
108.087898
 42
0.066557
  0
VERTEX
  8
0
 10
147.109261
 20
107.270725
 42
0.089526
  0
VERTEX
  8
0
 10
147.429606
 20
106.597983
 42
0.105810
  0
VERTEX
  8
0
 10
147.914864
 20
106.157584
 42
0.132299
  0
VERTEX
  8
0
 10
148.500000
 20
106.000000
 42
-0.064853
  0
VERTEX
  8
0
 10
149.073457
 20
105.925306
 42
-0.082425
  0
VERTEX
  8
0
 10
149.559375
 20
105.706250
 42
-0.098894
  0
VERTEX
  8
0
 10
149.884432
 20
105.381354
 42
-0.148195
  0
VERTEX
  8
0
 10
150.000000
 20
105.000000
 42
0.186414
  0
VERTEX
  8
0
 10
150.147465
 20
104.618213
 42
0.089706
  0
VERTEX
  8
0
 10
150.570164
 20
104.293750
 42
0.069539
  0
VERTEX
  8
0
 10
151.198222
 20
104.073784
 42
0.049547
  0
VERTEX
  8
0
 10
151.940983
 20
104.000000
 42
0.046881
  0
VERTEX
  8
0
 10
152.729296
 20
104.074077
 42
0.046318
  0
VERTEX
  8
0
 10
153.493350
 20
104.293750
 42
0.050262
  0
VERTEX
  8
0
 10
154.123976
 20
104.616444
 42
0.111412
  0
VERTEX
  8
0
 10
154.500000
 20
105.000000
 42
-0.111412
  0
VERTEX
  8
0
 10
154.876024
 20
105.383556
 42
-0.050262
  0
VERTEX
  8
0
 10
155.506650
 20
105.706250
 42
-0.046318
  0
VERTEX
  8
0
 10
156.270704
 20
105.925923
 42
-0.046881
  0
VERTEX
  8
0
 10
157.059017
 20
106.000000
 42
0.081061
  0
VERTEX
  8
0
 10
157.956027
 20
106.146387
 42
0.147833
  0
VERTEX
  8
0
 10
158.555902
 20
106.572002
 42
0.120661
  0
VERTEX
  8
0
 10
158.894518
 20
107.330218
 42
0.044995
  0
VERTEX
  8
0
 10
159.000000
 20
108.500000
 42
0.044917
  0
VERTEX
  8
0
 10
158.893532
 20
109.682766
 42
0.124434
  0
VERTEX
  8
0
 10
158.550000
 20
110.437500
 42
0.149477
  0
VERTEX
  8
0
 10
157.935258
 20
110.857434
 42
0.075780
  0
VERTEX
  8
0
 10
157.000000
 20
111.000000
 42
0.052428
  0
VERTEX
  8
0
 10
156.234795
 20
110.919542
 42
0.072292
  0
VERTEX
  8
0
 10
155.587500
 20
110.680430
 42
0.092221
  0
VERTEX
  8
0
 10
155.152677
 20
110.327287
 42
0.178038
  0
SEQEND
  0
ENDSEC
  0
EOF
