  0
SECTION
  2
HEADER
  9
$ACADVER
  1
AC1006
  9
$EXTMIN
 10
0.000000
 20
0.000000
 30
0.000000
  9
$EXTMAX
 10
222.000000
 20
302.000000
 30
0.000000
  0
ENDSEC
  0
SECTION
  2
ENTITIES
  0
POLYLINE
  8
0
 66
1
 70
1
  0
VERTEX
  8
0
 10
34.923077
 20
299.076923
 42
0.035798
  0
VERTEX
  8
0
 10
33.804487
 20
297.785569
 42
0.033871
  0
VERTEX
  8
0
 10
32.858654
 20
296.324616
 42
0.035716
  0
VERTEX
  8
0
 10
32.203057
 20
294.915374
 42
0.091260
  0
VERTEX
  8
0
 10
32.000000
 20
293.812114
 42
-0.058545
  0
VERTEX
  8
0
 10
31.864306
 20
292.657202
 42
-0.021056
  0
VERTEX
  8
0
 10
31.412500
 20
291.062118
 42
-0.020550
  0
VERTEX
  8
0
 10
30.765572
 20
289.339331
 42
-0.022927
  0
VERTEX
  8
0
 10
30.000000
 20
287.738815
 42
0.023294
  0
VERTEX
  8
0
 10
29.234420
 20
286.135263
 42
0.020687
  0
VERTEX
  8
0
 10
28.587500
 20
284.403343
 42
0.021204
  0
VERTEX
  8
0
 10
28.136086
 20
282.795495
 42
0.057892
  0
VERTEX
  8
0
 10
28.000000
 20
281.624086
 42
-0.104248
  0
VERTEX
  8
0
 10
27.732692
 20
280.355943
 42
-0.054042
  0
VERTEX
  8
0
 10
26.919871
 20
278.947680
 42
-0.041730
  0
VERTEX
  8
0
 10
25.571298
 20
277.394050
 42
-0.021516
  0
VERTEX
  8
0
 10
23.650645
 20
275.676955
 42
0.020603
  0
VERTEX
  8
0
 10
21.704185
 20
273.943169
 42
0.010942
  0
VERTEX
  8
0
 10
19.433099
 20
271.647605
 42
0.010872
  0
VERTEX
  8
0
 10
17.210435
 20
269.195770
 42
0.016571
  0
VERTEX
  8
0
 10
15.400645
 20
266.964744
 42
-0.025979
  0
VERTEX
  8
0
 10
13.614183
 20
264.845228
 42
-0.020340
  0
VERTEX
  8
0
 10
11.470814
 20
262.734025
 42
-0.020760
  0
VERTEX
  8
0
 10
9.309716
 20
260.929774
 42
-0.046420
  0
VERTEX
  8
0
 10
7.500000
 20
259.791740
 42
0.030553
  0
VERTEX
  8
0
 10
2.688697
 20
256.974818
 42
0.122924
  0
VERTEX
  8
0
 10
0.420925
 20
254.468207
 42
0.217443
  0
VERTEX
  8
0
 10
0.268100
 20
252.029129
 42
0.117939
  0
VERTEX
  8
0
 10
2.000000
 20
249.500000
 42
-0.071836
  0
VERTEX
  8
0
 10
2.958512
 20
248.342907
 42
-0.068466
  0
VERTEX
  8
0
 10
3.569600
 20
246.943295
 42
-0.050034
  0
VERTEX
  8
0
 10
3.900100
 20
245.073637
 42
-0.018747
  0
VERTEX
  8
0
 10
4.000000
 20
242.410112
 42
0.027720
  0
VERTEX
  8
0
 10
4.257225
 20
237.773965
 42
0.074390
  0
VERTEX
  8
0
 10
5.102568
 20
234.588015
 42
0.092221
  0
VERTEX
  8
0
 10
6.710640
 20
232.195569
 42
0.060452
  0
VERTEX
  8
0
 10
9.312200
 20
230.116067
 42
0.045147
  0
VERTEX
  8
0
 10
11.345707
 20
229.100090
 42
0.037783
  0
VERTEX
  8
0
 10
13.652823
 20
228.392530
 42
0.030400
  0
VERTEX
  8
0
 10
16.479816
 20
227.932634
 42
0.014729
  0
VERTEX
  8
0
 10
20.135086
 20
227.672563
 42
-0.022176
  0
VERTEX
  8
0
 10
25.561434
 20
227.205189
 42
-0.281969
  0
VERTEX
  8
0
 10
27.086220
 20
225.972325
 42
-0.120180
  0
VERTEX
  8
0
 10
27.349038
 20
223.404201
 42
-0.003181
  0
VERTEX
  8
0
 10
25.700156
 20
212.000000
 42
0.004159
  0
VERTEX
  8
0
 10
24.458599
 20
203.292728
 42
0.003670
  0
VERTEX
  8
0
 10
23.306424
 20
194.195159
 42
0.003649
  0
VERTEX
  8
0
 10
22.280965
 20
185.022939
 42
0.003970
  0
VERTEX
  8
0
 10
21.419954
 20
176.091006
 42
-0.013181
  0
VERTEX
  8
0
 10
21.065027
 20
173.005307
 42
-0.012190
  0
VERTEX
  8
0
 10
20.540561
 20
169.860645
 42
-0.012282
  0
VERTEX
  8
0
 10
19.936653
 20
167.084529
 42
-0.039274
  0
VERTEX
  8
0
 10
19.345881
 20
165.285384
 42
0.046943
  0
VERTEX
  8
0
 10
18.717591
 20
163.268319
 42
0.035197
  0
VERTEX
  8
0
 10
18.397929
 20
160.962940
 42
0.027254
  0
VERTEX
  8
0
 10
18.361059
 20
158.109983
 42
0.012201
  0
VERTEX
  8
0
 10
18.608516
 20
154.364431
 42
0.008166
  0
VERTEX
  8
0
 10
19.072345
 20
150.034006
 42
0.055835
  0
VERTEX
  8
0
 10
19.570429
 20
147.949879
 42
0.117668
  0
VERTEX
  8
0
 10
20.355251
 20
146.753035
 42
0.098521
  0
VERTEX
  8
0
 10
21.645176
 20
145.944804
 42
-0.068829
  0
VERTEX
  8
0
 10
22.864438
 20
145.277512
 42
-0.128710
  0
VERTEX
  8
0
 10
23.564056
 20
144.406281
 42
-0.085940
  0
VERTEX
  8
0
 10
23.907717
 20
143.055380
 42
-0.019415
  0
VERTEX
  8
0
 10
24.000000
 20
140.679738
 42
0.054442
  0
VERTEX
  8
0
 10
24.336158
 20
137.601600
 42
0.098339
  0
VERTEX
  8
0
 10
25.351674
 20
135.287929
 42
0.111240
  0
VERTEX
  8
0
 10
27.069070
 20
133.721120
 42
0.084371
  0
VERTEX
  8
0
 10
29.471760
 20
132.844981
 42
-0.130792
  0
VERTEX
  8
0
 10
30.441780
 20
132.386620
 42
-0.060484
  0
VERTEX
  8
0
 10
31.398186
 20
131.356769
 42
-0.045365
  0
VERTEX
  8
0
 10
32.332955
 20
129.786493
 42
-0.022695
  0
VERTEX
  8
0
 10
33.235623
 20
127.656819
 42
-0.012890
  0
VERTEX
  8
0
 10
34.205280
 20
124.823481
 42
-0.065556
  0
VERTEX
  8
0
 10
34.491722
 20
123.184628
 42
-0.094444
  0
VERTEX
  8
0
 10
34.290738
 20
121.819899
 42
-0.042865
  0
VERTEX
  8
0
 10
33.551288
 20
120.165076
 42
0.004651
  0
VERTEX
  8
0
 10
32.794322
 20
118.768205
 42
0.001394
  0
VERTEX
  8
0
 10
31.667095
 20
116.626661
 42
0.001397
  0
VERTEX
  8
0
 10
30.415306
 20
114.215910
 42
0.001514
  0
VERTEX
  8
0
 10
29.210311
 20
111.861857
 42
-0.019314
  0
VERTEX
  8
0
 10
27.790750
 20
109.316266
 42
-0.010568
  0
VERTEX
  8
0
 10
25.867079
 20
106.304873
 42
-0.010519
  0
VERTEX
  8
0
 10
23.781192
 20
103.324446
 42
-0.016480
  0
VERTEX
  8
0
 10
21.851640
 20
100.861857
 42
0.015825
  0
VERTEX
  8
0
 10
18.401357
 20
96.470289
 42
0.020755
  0
VERTEX
  8
0
 10
15.551898
 20
92.240072
 42
0.020329
  0
VERTEX
  8
0
 10
13.509549
 20
88.594230
 42
0.118038
  0
VERTEX
  8
0
 10
13.000000
 20
86.465893
 42
0.195160
  0
VERTEX
  8
0
 10
13.642486
 20
84.882535
 42
0.071760
  0
VERTEX
  8
0
 10
15.589691
 20
83.381964
 42
0.069162
  0
VERTEX
  8
0
 10
17.991882
 20
82.435854
 42
0.136953
  0
VERTEX
  8
0
 10
20.022700
 20
82.507205
 42
-0.153905
  0
VERTEX
  8
0
 10
22.044002
 20
82.511082
 42
-0.106719
  0
VERTEX
  8
0
 10
24.045637
 20
81.375289
 42
-0.062370
  0
VERTEX
  8
0
 10
26.225429
 20
78.877180
 42
-0.019091
  0
VERTEX
  8
0
 10
28.869461
 20
74.609790
 42
0.046823
  0
VERTEX
  8
0
 10
32.944770
 20
68.780149
 42
0.019910
  0
VERTEX
  8
0
 10
39.400253
 20
61.759608
 42
0.019239
  0
VERTEX
  8
0
 10
46.219013
 20
55.419787
 42
0.065254
  0
VERTEX
  8
0
 10
51.288422
 20
52.096864
 42
0.000000
  0
VERTEX
  8
0
 10
56.076844
 20
49.784388
 42
0.000000
  0
VERTEX
  8
0
 10
63.513244
 20
51.535632
 42
0.024548
  0
VERTEX
  8
0
 10
69.810237
 20
53.348872
 42
0.141089
  0
VERTEX
  8
0
 10
72.626412
 20
55.316237
 42
0.158866
  0
VERTEX
  8
0
 10
73.789548
 20
58.354760
 42
0.033545
  0
VERTEX
  8
0
 10
73.694180
 20
64.107827
 42
0.045743
  0
VERTEX
  8
0
 10
72.581749
 20
70.397246
 42
0.140576
  0
VERTEX
  8
0
 10
70.358905
 20
74.057158
 42
0.226048
  0
VERTEX
  8
0
 10
67.267693
 20
75.016926
 42
0.126667
  0
VERTEX
  8
0
 10
63.558870
 20
73.468197
 42
-0.039464
  0
VERTEX
  8
0
 10
62.679372
 20
72.906110
 42
-0.030274
  0
VERTEX
  8
0
 10
61.642004
 20
72.431283
 42
-0.031029
  0
VERTEX
  8
0
 10
60.610687
 20
72.104681
 42
-0.061240
  0
VERTEX
  8
0
 10
59.759210
 20
72.000000
 42
0.059107
  0
VERTEX
  8
0
 10
58.829708
 20
71.889734
 42
0.019836
  0
VERTEX
  8
0
 10
57.512377
 20
71.516882
 42
0.019421
  0
VERTEX
  8
0
 10
56.074301
 20
70.984885
 42
0.021025
  0
VERTEX
  8
0
 10
54.720266
 20
70.355344
 42
0.000000
  0
VERTEX
  8
0
 10
51.539853
 20
68.710688
 42
0.000000
  0
VERTEX
  8
0
 10
42.290062
 20
78.605344
 42
-0.005420
  0
VERTEX
  8
0
 10
38.743816
 20
82.482216
 42
-0.008207
  0
VERTEX
  8
0
 10
35.751482
 20
85.938094
 42
-0.003882
  0
VERTEX
  8
0
 10
33.295782
 20
88.916789
 42
-0.167678
  0
VERTEX
  8
0
 10
33.020136
 20
89.673275
 42
-0.120255
  0
VERTEX
  8
0
 10
33.163913
 20
90.309649
 42
-0.020527
  0
VERTEX
  8
0
 10
33.766402
 20
91.405688
 42
-0.021359
  0
VERTEX
  8
0
 10
34.599187
 20
92.659295
 42
-0.017608
  0
VERTEX
  8
0
 10
35.588894
 20
93.923275
 42
-0.033697
  0
VERTEX
  8
0
 10
37.179369
 20
95.573789
 42
-0.086332
  0
VERTEX
  8
0
 10
38.576413
 20
96.458084
 42
-0.076083
  0
VERTEX
  8
0
 10
40.295582
 20
96.879162
 42
-0.022086
  0
VERTEX
  8
0
 10
43.029877
 20
97.000000
 42
0.016564
  0
VERTEX
  8
0
 10
44.927289
 20
97.062874
 42
0.023159
  0
VERTEX
  8
0
 10
46.613309
 20
97.253455
 42
0.020736
  0
VERTEX
  8
0
 10
47.951725
 20
97.525231
 42
0.196321
  0
VERTEX
  8
0
 10
48.415222
 20
97.862826
 42
-0.142906
  0
VERTEX
  8
0
 10
48.865194
 20
98.268223
 42
-0.014445
  0
VERTEX
  8
0
 10
50.194714
 20
98.862834
 42
-0.017168
  0
VERTEX
  8
0
 10
51.856238
 20
99.483186
 42
-0.012858
  0
VERTEX
  8
0
 10
53.724239
 20
100.055481
 42
0.039501
  0
VERTEX
  8
0
 10
56.157953
 20
100.945332
 42
0.032213
  0
VERTEX
  8
0
 10
58.601035
 20
102.260709
 42
0.028964
  0
VERTEX
  8
0
 10
61.096063
 20
104.027722
 42
0.020526
  0
VERTEX
  8
0
 10
63.686985
 20
106.278114
 42
-0.023888
  0
VERTEX
  8
0
 10
67.935041
 20
109.918044
 42
-0.174181
  0
VERTEX
  8
0
 10
70.444827
 20
110.738043
 42
-0.290228
  0
VERTEX
  8
0
 10
72.138726
 20
109.593923
 42
-0.060757
  0
VERTEX
  8
0
 10
73.212736
 20
106.000710
 42
0.032565
  0
VERTEX
  8
0
 10
73.718362
 20
103.881289
 42
0.014517
  0
VERTEX
  8
0
 10
74.644257
 20
101.163343
 42
0.014299
  0
VERTEX
  8
0
 10
75.793862
 20
98.334152
 42
0.018787
  0
VERTEX
  8
0
 10
77.011558
 20
95.826936
 42
-0.015074
  0
VERTEX
  8
0
 10
78.572119
 20
92.673562
 42
-0.047397
  0
VERTEX
  8
0
 10
79.347036
 20
90.445265
 42
-0.060796
  0
VERTEX
  8
0
 10
79.586928
 20
88.430572
 42
-0.038928
  0
VERTEX
  8
0
 10
79.396622
 20
86.078877
 42
0.031047
  0
VERTEX
  8
0
 10
79.220069
 20
84.254803
 42
0.027952
  0
VERTEX
  8
0
 10
79.260824
 20
82.357132
 42
0.029130
  0
VERTEX
  8
0
 10
79.502185
 20
80.588174
 42
0.049754
  0
VERTEX
  8
0
 10
79.932773
 20
79.162301
 42
-0.086334
  0
VERTEX
  8
0
 10
80.450613
 20
76.851549
 42
-0.021851
  0
VERTEX
  8
0
 10
80.468077
 20
72.988480
 42
-0.013581
  0
VERTEX
  8
0
 10
80.072438
 20
67.032979
 42
-0.003038
  0
VERTEX
  8
0
 10
79.060242
 20
56.901000
 42
-0.002565
  0
VERTEX
  8
0
 10
76.991393
 20
38.301575
 42
-0.022736
  0
VERTEX
  8
0
 10
75.665729
 20
30.158033
 42
-0.056257
  0
VERTEX
  8
0
 10
74.235798
 20
25.831943
 42
-0.198033
  0
VERTEX
  8
0
 10
72.130809
 20
23.878149
 42
0.032632
  0
VERTEX
  8
0
 10
65.853705
 20
21.056880
 42
0.023250
  0
VERTEX
  8
0
 10
59.216624
 20
17.131156
 42
0.022305
  0
VERTEX
  8
0
 10
53.494349
 20
13.000628
 42
0.086620
  0
VERTEX
  8
0
 10
50.596083
 20
9.750000
 42
0.150944
  0
VERTEX
  8
0
 10
50.121339
 20
7.934157
 42
0.147251
  0
VERTEX
  8
0
 10
50.746253
 20
6.146568
 42
0.085542
  0
VERTEX
  8
0
 10
52.662152
 20
4.283488
 42
0.026945
  0
VERTEX
  8
0
 10
56.087222
 20
2.198250
 42
0.082294
  0
VERTEX
  8
0
 10
61.099692
 20
0.488166
 42
0.052897
  0
VERTEX
  8
0
 10
67.245928
 20
0.125909
 42
0.049085
  0
VERTEX
  8
0
 10
73.853803
 20
1.090248
 42
0.046976
  0
VERTEX
  8
0
 10
80.250000
 20
3.330453
 42
0.010559
  0
VERTEX
  8
0
 10
83.874462
 20
5.089712
 42
0.097848
  0
VERTEX
  8
0
 10
85.235669
 20
6.163887
 42
0.145512
  0
VERTEX
  8
0
 10
85.835031
 20
7.510921
 42
0.032424
  0
VERTEX
  8
0
 10
86.000000
 20
10.052186
 42
0.024307
  0
VERTEX
  8
0
 10
85.916449
 20
11.769872
 42
0.021027
  0
VERTEX
  8
0
 10
85.665897
 20
13.557466
 42
0.021561
  0
VERTEX
  8
0
 10
85.300271
 20
15.159259
 42
0.056025
  0
VERTEX
  8
0
 10
84.862628
 20
16.256681
 42
-0.139255
  0
VERTEX
  8
0
 10
84.157241
 20
19.492030
 42
-0.012261
  0
VERTEX
  8
0
 10
84.888865
 20
27.920540
 42
-0.016889
  0
VERTEX
  8
0
 10
86.237465
 20
37.163541
 42
-0.022019
  0
VERTEX
  8
0
 10
88.125217
 20
45.500000
 42
0.016273
  0
VERTEX
  8
0
 10
88.933269
 20
48.887270
 42
0.007315
  0
VERTEX
  8
0
 10
89.783608
 20
53.381250
 42
0.007233
  0
VERTEX
  8
0
 10
90.544465
 20
58.159387
 42
0.009778
  0
VERTEX
  8
0
 10
91.084994
 20
62.500000
 42
-0.008668
  0
VERTEX
  8
0
 10
92.599618
 20
74.887142
 42
-0.034199
  0
VERTEX
  8
0
 10
94.180510
 20
82.400862
 42
-0.053927
  0
VERTEX
  8
0
 10
96.328374
 20
87.724285
 42
-0.056925
  0
VERTEX
  8
0
 10
99.534226
 20
92.360597
 42
0.018909
  0
VERTEX
  8
0
 10
101.325986
 20
94.572280
 42
0.016853
  0
VERTEX
  8
0
 10
103.018930
 20
96.997745
 42
0.017164
  0
VERTEX
  8
0
 10
104.392412
 20
99.282080
 42
0.049011
  0
VERTEX
  8
0
 10
105.129178
 20
100.981515
 42
-0.029876
  0
VERTEX
  8
0
 10
106.420355
 20
104.301912
 42
-0.123293
  0
VERTEX
  8
0
 10
107.758306
 20
105.970213
 42
-0.129046
  0
VERTEX
  8
0
 10
109.689937
 20
106.770608
 42
-0.034051
  0
VERTEX
  8
0
 10
113.054351
 20
107.000000
 42
-0.020555
  0
VERTEX
  8
0
 10
115.788589
 20
106.887547
 42
-0.082163
  0
VERTEX
  8
0
 10
117.408749
 20
106.480462
 42
-0.098693
  0
VERTEX
  8
0
 10
118.655954
 20
105.614560
 42
-0.037117
  0
VERTEX
  8
0
 10
120.020439
 20
103.971297
 42
-0.026426
  0
VERTEX
  8
0
 10
120.915682
 20
102.562018
 42
-0.016350
  0
VERTEX
  8
0
 10
121.822588
 20
100.821704
 42
-0.016388
  0
VERTEX
  8
0
 10
122.607838
 20
99.039073
 42
-0.028195
  0
VERTEX
  8
0
 10
123.126962
 20
97.502351
 42
0.035335
  0
VERTEX
  8
0
 10
123.668012
 20
95.973027
 42
0.020324
  0
VERTEX
  8
0
 10
124.520913
 20
94.213341
 42
0.020234
  0
VERTEX
  8
0
 10
125.526305
 20
92.506929
 42
0.031664
  0
VERTEX
  8
0
 10
126.538429
 20
91.136699
 42
-0.017167
  0
VERTEX
  8
0
 10
127.480867
 20
89.935270
 42
-0.020788
  0
VERTEX
  8
0
 10
128.276914
 20
88.744480
 42
-0.019895
  0
VERTEX
  8
0
 10
128.856333
 20
87.703536
 42
-0.117571
  0
VERTEX
  8
0
 10
129.000000
 20
87.100999
 42
-0.103562
  0
VERTEX
  8
0
 10
128.841440
 20
86.343676
 42
-0.003277
  0
VERTEX
  8
0
 10
127.553197
 20
83.453746
 42
-0.006235
  0
VERTEX
  8
0
 10
125.961892
 20
80.059107
 42
-0.004269
  0
VERTEX
  8
0
 10
124.074713
 20
76.243945
 42
0.009721
  0
VERTEX
  8
0
 10
122.032694
 20
71.999949
 42
0.007533
  0
VERTEX
  8
0
 10
119.969789
 20
67.304457
 42
0.007626
  0
VERTEX
  8
0
 10
118.177182
 20
62.863289
 42
0.018154
  0
VERTEX
  8
0
 10
117.016864
 20
59.498590
 42
-0.000237
  0
VERTEX
  8
0
 10
116.124642
 20
56.575495
 42
-0.000220
  0
VERTEX
  8
0
 10
115.207317
 20
53.579981
 42
-0.000220
  0
VERTEX
  8
0
 10
114.389016
 20
50.916202
 42
-0.000743
  0
VERTEX
  8
0
 10
113.851366
 20
49.177941
 42
0.055546
  0
VERTEX
  8
0
 10
113.440407
 20
47.046580
 42
0.151005
  0
VERTEX
  8
0
 10
113.772645
 20
45.562562
 42
0.072447
  0
VERTEX
  8
0
 10
115.060494
 20
43.918961
 42
0.006496
  0
VERTEX
  8
0
 10
118.909215
 20
40.344037
 42
-0.008985
  0
VERTEX
  8
0
 10
122.625435
 20
36.857564
 42
-0.065646
  0
VERTEX
  8
0
 10
124.134945
 20
34.945211
 42
-0.100483
  0
VERTEX
  8
0
 10
124.799629
 20
33.046957
 42
-0.034143
  0
VERTEX
  8
0
 10
125.000000
 20
30.116097
 42
0.071074
  0
VERTEX
  8
0
 10
125.731747
 20
24.994329
 42
0.300154
  0
VERTEX
  8
0
 10
127.981589
 20
23.084722
 42
0.181691
  0
VERTEX
  8
0
 10
131.717890
 20
23.994604
 42
0.030550
  0
VERTEX
  8
0
 10
137.639098
 20
28.584562
 42
0.008875
  0
VERTEX
  8
0
 10
141.384925
 20
31.992821
 42
0.058135
  0
VERTEX
  8
0
 10
143.016438
 20
33.935095
 42
0.097612
  0
VERTEX
  8
0
 10
143.758727
 20
35.751677
 42
0.048364
  0
VERTEX
  8
0
 10
144.000000
 20
38.240171
 42
0.083230
  0
VERTEX
  8
0
 10
143.407696
 20
41.773764
 42
0.060248
  0
VERTEX
  8
0
 10
141.659074
 20
45.370667
 42
0.064546
  0
VERTEX
  8
0
 10
139.338281
 20
48.116147
 42
0.187170
  0
VERTEX
  8
0
 10
137.059893
 20
49.000000
 42
-0.071450
  0
VERTEX
  8
0
 10
136.202280
 20
49.123183
 42
-0.031963
  0
VERTEX
  8
0
 10
135.128862
 20
49.514063
 42
-0.030823
  0
VERTEX
  8
0
 10
134.027351
 20
50.080191
 42
-0.036497
  0
VERTEX
  8
0
 10
133.067647
 20
50.750000
 42
0.000000
  0
VERTEX
  8
0
 10
130.913727
 20
52.500000
 42
0.000000
  0
VERTEX
  8
0
 10
133.520779
 20
61.500000
 42
-0.027356
  0
VERTEX
  8
0
 10
137.364108
 20
72.481662
 42
-0.032061
  0
VERTEX
  8
0
 10
142.217211
 20
82.390015
 42
-0.029795
  0
VERTEX
  8
0
 10
147.072799
 20
89.815361
 42
-0.336532
  0
VERTEX
  8
0
 10
150.243377
 20
90.736849
 42
-0.210515
  0
VERTEX
  8
0
 10
151.569462
 20
89.421384
 42
-0.009383
  0
VERTEX
  8
0
 10
153.870864
 20
83.226218
 42
-0.016227
  0
VERTEX
  8
0
 10
155.848256
 20
76.933571
 42
-0.048641
  0
VERTEX
  8
0
 10
156.631284
 20
72.500000
 42
-0.064404
  0
VERTEX
  8
0
 10
156.424138
 20
68.443830
 42
-0.009817
  0
VERTEX
  8
0
 10
154.817197
 20
60.487485
 42
-0.011728
  0
VERTEX
  8
0
 10
152.700548
 20
51.926285
 42
-0.017621
  0
VERTEX
  8
0
 10
150.419316
 20
44.579542
 42
0.005403
  0
VERTEX
  8
0
 10
149.492730
 20
41.834166
 42
0.007118
  0
VERTEX
  8
0
 10
148.710674
 20
39.310121
 42
0.005324
  0
VERTEX
  8
0
 10
148.110293
 20
37.186926
 42
0.066329
  0
VERTEX
  8
0
 10
148.000000
 20
36.359178
 42
-0.103374
  0
VERTEX
  8
0
 10
147.456310
 20
33.757553
 42
-0.016820
  0
VERTEX
  8
0
 10
145.220440
 20
29.077288
 42
-0.013693
  0
VERTEX
  8
0
 10
142.687032
 20
24.512740
 42
-0.172393
  0
VERTEX
  8
0
 10
141.197039
 20
23.269674
 42
0.046409
  0
VERTEX
  8
0
 10
140.277140
 20
22.829144
 42
0.008941
  0
VERTEX
  8
0
 10
138.707826
 20
21.851262
 42
0.009448
  0
VERTEX
  8
0
 10
136.912829
 20
20.638909
 42
0.008589
  0
VERTEX
  8
0
 10
135.106198
 20
19.321382
 42
-0.025823
  0
VERTEX
  8
0
 10
133.230617
 20
18.050176
 42
-0.025631
  0
VERTEX
  8
0
 10
131.229428
 20
16.975656
 42
-0.026503
  0
VERTEX
  8
0
 10
129.387218
 20
16.221600
 42
-0.084078
  0
VERTEX
  8
0
 10
128.078704
 20
16.000000
 42
0.082564
  0
VERTEX
  8
0
 10
125.487526
 20
15.569188
 42
0.082233
  0
VERTEX
  8
0
 10
123.171168
 20
14.322922
 42
0.091075
  0
VERTEX
  8
0
 10
121.564140
 20
12.532408
 42
0.138321
  0
VERTEX
  8
0
 10
121.000000
 20
10.532190
 42
0.153781
  0
VERTEX
  8
0
 10
121.839890
 20
7.865971
 42
0.083006
  0
VERTEX
  8
0
 10
124.274584
 20
5.384960
 42
0.075019
  0
VERTEX
  8
0
 10
127.677990
 20
3.615579
 42
0.083550
  0
VERTEX
  8
0
 10
131.326725
 20
3.015668
 42
0.040363
  0
VERTEX
  8
0
 10
136.154483
 20
3.424281
 42
0.008192
  0
VERTEX
  8
0
 10
144.611914
 20
4.976416
 42
0.004088
  0
VERTEX
  8
0
 10
153.384819
 20
6.810224
 42
0.143768
  0
VERTEX
  8
0
 10
155.203165
 20
7.803165
 42
0.122638
  0
VERTEX
  8
0
 10
155.540759
 20
8.364650
 42
0.013805
  0
VERTEX
  8
0
 10
155.940059
 20
9.809254
 42
0.016081
  0
VERTEX
  8
0
 10
156.318219
 20
11.584268
 42
0.012408
  0
VERTEX
  8
0
 10
156.619737
 20
13.540402
 42
-0.028506
  0
VERTEX
  8
0
 10
157.055552
 20
15.867705
 42
-0.036978
  0
VERTEX
  8
0
 10
157.729959
 20
17.930145
 42
-0.040392
  0
VERTEX
  8
0
 10
158.636535
 20
19.711790
 42
-0.049409
  0
VERTEX
  8
0
 10
159.767366
 20
21.198793
 42
0.043451
  0
VERTEX
  8
0
 10
161.163973
 20
22.990655
 42
0.095160
  0
VERTEX
  8
0
 10
161.815429
 20
24.596150
 42
0.058207
  0
VERTEX
  8
0
 10
161.990009
 20
26.789269
 42
0.008773
  0
VERTEX
  8
0
 10
161.749930
 20
31.198793
 42
-0.012385
  0
VERTEX
  8
0
 10
161.569612
 20
35.018844
 42
-0.033843
  0
VERTEX
  8
0
 10
161.691888
 20
37.718623
 42
-0.044924
  0
VERTEX
  8
0
 10
162.139985
 20
39.898816
 42
-0.042872
  0
VERTEX
  8
0
 10
162.974812
 20
42.000000
 42
0.014719
  0
VERTEX
  8
0
 10
163.764180
 20
43.701190
 42
0.006669
  0
VERTEX
  8
0
 10
164.701821
 20
45.971470
 42
0.006596
  0
VERTEX
  8
0
 10
165.628107
 20
48.394519
 42
0.008979
  0
VERTEX
  8
0
 10
166.395120
 20
50.605004
 42
-0.022566
  0
VERTEX
  8
0
 10
167.265518
 20
52.909329
 42
-0.012617
  0
VERTEX
  8
0
 10
168.519285
 20
55.632226
 42
-0.012567
  0
VERTEX
  8
0
 10
169.928252
 20
58.326233
 42
-0.019928
  0
VERTEX
  8
0
 10
171.282207
 20
60.550223
 42
0.007154
  0
VERTEX
  8
0
 10
177.075423
 20
69.540810
 42
0.024077
  0
VERTEX
  8
0
 10
180.490547
 20
75.646949
 42
0.037164
  0
VERTEX
  8
0
 10
182.363789
 20
80.236545
 42
0.076909
  0
VERTEX
  8
0
 10
182.978038
 20
84.050000
 42
0.021529
  0
VERTEX
  8
0
 10
182.925344
 20
85.478725
 42
0.024520
  0
VERTEX
  8
0
 10
182.749319
 20
86.836250
 42
0.024740
  0
VERTEX
  8
0
 10
182.489162
 20
87.960269
 42
0.110956
  0
VERTEX
  8
0
 10
182.168578
 20
88.550000
 42
-0.098219
  0
VERTEX
  8
0
 10
181.281736
 20
90.087744
 42
-0.013289
  0
VERTEX
  8
0
 10
180.173441
 20
93.661223
 42
-0.015779
  0
VERTEX
  8
0
 10
179.261740
 20
97.345168
 42
-0.052811
  0
VERTEX
  8
0
 10
179.000000
 20
99.816329
 42
-0.069402
  0
VERTEX
  8
0
 10
179.120605
 20
100.681027
 42
-0.055055
  0
VERTEX
  8
0
 10
179.477110
 20
101.555364
 42
-0.056377
  0
VERTEX
  8
0
 10
180.002742
 20
102.307753
 42
-0.084742
  0
VERTEX
  8
0
 10
180.624204
 20
102.809570
 42
0.174042
  0
VERTEX
  8
0
 10
181.465704
 20
103.776874
 42
0.054158
  0
VERTEX
  8
0
 10
181.974276
 20
105.664948
 42
0.028248
  0
VERTEX
  8
0
 10
182.287968
 20
108.841845
 42
0.005473
  0
VERTEX
  8
0
 10
182.466788
 20
114.609260
 42
-0.010070
  0
VERTEX
  8
0
 10
182.691932
 20
120.208549
 42
-0.019689
  0
VERTEX
  8
0
 10
183.136317
 20
124.651011
 42
-0.022928
  0
VERTEX
  8
0
 10
183.868502
 20
128.565221
 42
-0.021221
  0
VERTEX
  8
0
 10
184.971071
 20
132.500000
 42
-0.007466
  0
VERTEX
  8
0
 10
186.816072
 20
137.876436
 42
-0.071082
  0
VERTEX
  8
0
 10
187.951100
 20
140.017634
 42
-0.250405
  0
VERTEX
  8
0
 10
189.079742
 20
140.563838
 42
-0.164646
  0
VERTEX
  8
0
 10
190.457618
 20
140.035174
 42
-0.150804
  0
VERTEX
  8
0
 10
191.243281
 20
138.832640
 42
-0.042041
  0
VERTEX
  8
0
 10
191.684921
 20
136.600520
 42
-0.023768
  0
VERTEX
  8
0
 10
191.915962
 20
132.982651
 42
-0.004967
  0
VERTEX
  8
0
 10
191.956088
 20
126.627555
 42
-0.005741
  0
VERTEX
  8
0
 10
191.877957
 20
121.454956
 42
-0.004732
  0
VERTEX
  8
0
 10
191.679069
 20
115.940343
 42
-0.004781
  0
VERTEX
  8
0
 10
191.400152
 20
110.881105
 42
-0.012694
  0
VERTEX
  8
0
 10
191.074710
 20
107.275740
 42
0.034825
  0
VERTEX
  8
0
 10
190.758569
 20
100.376066
 42
0.031746
  0
VERTEX
  8
0
 10
191.379751
 20
93.278981
 42
0.031804
  0
VERTEX
  8
0
 10
192.704875
 20
87.192244
 42
0.127547
  0
VERTEX
  8
0
 10
194.620857
 20
83.934699
 42
0.084318
  0
VERTEX
  8
0
 10
195.918796
 20
83.013643
 42
0.024669
  0
VERTEX
  8
0
 10
198.180701
 20
82.058411
 42
0.022162
  0
VERTEX
  8
0
 10
201.059581
 20
81.149076
 42
0.015116
  0
VERTEX
  8
0
 10
204.400747
 20
80.361829
 42
0.008858
  0
VERTEX
  8
0
 10
208.971216
 20
79.513816
 42
0.039681
  0
VERTEX
  8
0
 10
211.681706
 20
79.278992
 42
0.053824
  0
VERTEX
  8
0
 10
213.984801
 20
79.511108
 42
0.026084
  0
VERTEX
  8
0
 10
216.848909
 20
80.273468
 42
0.018135
  0
VERTEX
  8
0
 10
219.118035
 20
81.098087
 42
0.066375
  0
VERTEX
  8
0
 10
220.444894
 20
81.853208
 42
0.117879
  0
VERTEX
  8
0
 10
221.112794
 20
82.668794
 42
0.143960
  0
VERTEX
  8
0
 10
221.274649
 20
83.637579
 42
0.011177
  0
VERTEX
  8
0
 10
219.733038
 20
94.362295
 42
0.060306
  0
VERTEX
  8
0
 10
218.076885
 20
100.002938
 42
0.102677
  0
VERTEX
  8
0
 10
215.552565
 20
103.609399
 42
0.067516
  0
VERTEX
  8
0
 10
211.416683
 20
106.566060
 42
-0.075901
  0
VERTEX
  8
0
 10
207.314485
 20
109.603314
 42
-0.077342
  0
VERTEX
  8
0
 10
204.336452
 20
113.708582
 42
-0.065637
  0
VERTEX
  8
0
 10
202.414542
 20
119.105354
 42
-0.036783
  0
VERTEX
  8
0
 10
201.458333
 20
126.015777
 42
0.016931
  0
VERTEX
  8
0
 10
200.783525
 20
132.891867
 42
0.016748
  0
VERTEX
  8
0
 10
199.643348
 20
139.731770
 42
0.017404
  0
VERTEX
  8
0
 10
198.218095
 20
145.725044
 42
0.047630
  0
VERTEX
  8
0
 10
196.672095
 20
149.789582
 42
-0.030215
  0
VERTEX
  8
0
 10
196.077815
 20
151.202108
 42
-0.010264
  0
VERTEX
  8
0
 10
195.382484
 20
153.319440
 42
-0.010163
  0
VERTEX
  8
0
 10
194.708355
 20
155.695515
 42
-0.011523
  0
VERTEX
  8
0
 10
194.161284
 20
158.000000
 42
0.002707
  0
VERTEX
  8
0
 10
191.567214
 20
169.853410
 42
0.008332
  0
VERTEX
  8
0
 10
189.635368
 20
177.832998
 42
0.012089
  0
VERTEX
  8
0
 10
188.006286
 20
183.533283
 42
0.028065
  0
VERTEX
  8
0
 10
186.446101
 20
187.695165
 42
-0.020883
  0
VERTEX
  8
0
 10
185.609491
 20
189.832988
 42
-0.023187
  0
VERTEX
  8
0
 10
184.986440
 20
191.960470
 42
-0.023363
  0
VERTEX
  8
0
 10
184.627713
 20
193.807709
 42
-0.100554
  0
VERTEX
  8
0
 10
184.689335
 20
194.920016
 42
0.103586
  0
VERTEX
  8
0
 10
184.742403
 20
195.994667
 42
0.058875
  0
VERTEX
  8
0
 10
184.387838
 20
197.252733
 42
0.047791
  0
VERTEX
  8
0
 10
183.645186
 20
198.652361
 42
0.029049
  0
VERTEX
  8
0
 10
182.523451
 20
200.154499
 42
-0.027789
  0
VERTEX
  8
0
 10
181.117947
 20
202.026782
 42
-0.076906
  0
VERTEX
  8
0
 10
180.425769
 20
203.516850
 42
-0.077807
  0
VERTEX
  8
0
 10
180.220541
 20
205.136249
 42
-0.028921
  0
VERTEX
  8
0
 10
180.420731
 20
207.429648
 42
0.030668
  0
VERTEX
  8
0
 10
180.994245
 20
214.275580
 42
0.007129
  0
VERTEX
  8
0
 10
181.086688
 20
225.823152
 42
0.003529
  0
VERTEX
  8
0
 10
180.927100
 20
237.811572
 42
0.115644
  0
VERTEX
  8
0
 10
180.213344
 20
240.599477
 42
-0.003390
  0
VERTEX
  8
0
 10
179.708139
 20
241.583971
 42
-0.001069
  0
VERTEX
  8
0
 10
178.966389
 20
243.061718
 42
-0.001068
  0
VERTEX
  8
0
 10
178.146035
 20
244.713639
 42
-0.001185
  0
VERTEX
  8
0
 10
177.360867
 20
246.312755
 42
0.032709
  0
VERTEX
  8
0
 10
175.446957
 20
249.659759
 42
0.084549
  0
VERTEX
  8
0
 10
173.549898
 20
251.681722
 42
0.075860
  0
VERTEX
  8
0
 10
170.965534
 20
253.083952
 42
0.022728
  0
VERTEX
  8
0
 10
166.674107
 20
254.412635
 42
0.019280
  0
VERTEX
  8
0
 10
163.558120
 20
255.097172
 42
0.033239
  0
VERTEX
  8
0
 10
160.920159
 20
255.391840
 42
0.033677
  0
VERTEX
  8
0
 10
158.290401
 20
255.332552
 42
0.020423
  0
VERTEX
  8
0
 10
155.203355
 20
254.926730
 42
0.013587
  0
VERTEX
  8
0
 10
150.504529
 20
253.980478
 42
0.041862
  0
VERTEX
  8
0
 10
147.419204
 20
252.993627
 42
0.069404
  0
VERTEX
  8
0
 10
145.591835
 20
251.918444
 42
0.228975
  0
VERTEX
  8
0
 10
145.000000
 20
250.693847
 42
-0.074453
  0
VERTEX
  8
0
 10
144.874470
 20
249.855502
 42
-0.006899
  0
VERTEX
  8
0
 10
144.231161
 20
247.854512
 42
-0.008763
  0
VERTEX
  8
0
 10
143.385033
 20
245.480541
 42
-0.006768
  0
VERTEX
  8
0
 10
142.382677
 20
242.922408
 42
0.024566
  0
VERTEX
  8
0
 10
141.042734
 20
239.108495
 42
0.027722
  0
VERTEX
  8
0
 10
140.145134
 20
235.331297
 42
0.021491
  0
VERTEX
  8
0
 10
139.524283
 20
230.757119
 42
0.007984
  0
VERTEX
  8
0
 10
139.031449
 20
224.281723
 42
-0.010110
  0
VERTEX
  8
0
 10
138.432410
 20
216.829695
 42
-0.041062
  0
VERTEX
  8
0
 10
137.607102
 20
212.358075
 42
-0.080414
  0
VERTEX
  8
0
 10
136.470876
 20
209.848026
 42
-0.251415
  0
VERTEX
  8
0
 10
134.890975
 20
209.000000
 42
-0.306950
  0
VERTEX
  8
0
 10
133.292504
 20
210.083377
 42
-0.043639
  0
VERTEX
  8
0
 10
132.088478
 20
214.084669
 42
-0.035862
  0
VERTEX
  8
0
 10
131.317770
 20
219.828791
 42
-0.019364
  0
VERTEX
  8
0
 10
131.153817
 20
226.967723
 42
0.018927
  0
VERTEX
  8
0
 10
130.943097
 20
236.505458
 42
0.059839
  0
VERTEX
  8
0
 10
129.804243
 20
242.782673
 42
0.076444
  0
VERTEX
  8
0
 10
127.399006
 20
247.741626
 42
0.046422
  0
VERTEX
  8
0
 10
123.206408
 20
252.750000
 42
0.000000
  0
VERTEX
  8
0
 10
117.910563
 20
258.000000
 42
0.000000
  0
VERTEX
  8
0
 10
111.205281
 20
257.976143
 42
0.020738
  0
VERTEX
  8
0
 10
104.862322
 20
257.690338
 42
0.048462
  0
VERTEX
  8
0
 10
100.196106
 20
256.825086
 42
0.061810
  0
VERTEX
  8
0
 10
96.523078
 20
255.256296
 42
0.060449
  0
VERTEX
  8
0
 10
93.314333
 20
252.827758
 42
0.059381
  0
VERTEX
  8
0
 10
90.056770
 20
248.828565
 42
0.029656
  0
VERTEX
  8
0
 10
86.890644
 20
243.109869
 42
0.029350
  0
VERTEX
  8
0
 10
84.336080
 20
236.853604
 42
0.044465
  0
VERTEX
  8
0
 10
82.938959
 20
231.147017
 42
0.000620
  0
VERTEX
  8
0
 10
82.526925
 20
228.420613
 42
0.000272
  0
VERTEX
  8
0
 10
81.987669
 20
224.808811
 42
0.000269
  0
VERTEX
  8
0
 10
81.419648
 20
220.975942
 42
0.000361
  0
VERTEX
  8
0
 10
80.908998
 20
217.500000
 42
-0.026338
  0
VERTEX
  8
0
 10
79.555034
 20
210.744668
 42
-0.044868
  0
VERTEX
  8
0
 10
77.635349
 20
205.320329
 42
-0.054750
  0
VERTEX
  8
0
 10
75.154400
 20
201.174080
 42
-0.082578
  0
VERTEX
  8
0
 10
72.102117
 20
198.288035
 42
-0.027297
  0
VERTEX
  8
0
 10
69.259096
 20
196.591378
 42
-0.126534
  0
VERTEX
  8
0
 10
67.412384
 20
196.155600
 42
-0.136775
  0
VERTEX
  8
0
 10
65.661908
 20
196.681507
 42
-0.033960
  0
VERTEX
  8
0
 10
63.223262
 20
198.465591
 42
-0.093676
  0
VERTEX
  8
0
 10
59.979068
 20
202.440815
 42
-0.053701
  0
VERTEX
  8
0
 10
57.615968
 20
208.183516
 42
-0.043357
  0
VERTEX
  8
0
 10
56.140404
 20
215.599016
 42
-0.025184
  0
VERTEX
  8
0
 10
55.601019
 20
224.668717
 42
-0.016180
  0
VERTEX
  8
0
 10
55.788708
 20
232.718248
 42
-0.078756
  0
VERTEX
  8
0
 10
56.749562
 20
237.163954
 42
-0.107611
  0
VERTEX
  8
0
 10
58.890262
 20
240.399918
 42
-0.043628
  0
VERTEX
  8
0
 10
63.007548
 20
243.761939
 42
0.041422
  0
VERTEX
  8
0
 10
64.412446
 20
244.898852
 42
0.024908
  0
VERTEX
  8
0
 10
65.887454
 20
246.457489
 42
0.024845
  0
VERTEX
  8
0
 10
67.208611
 20
248.165580
 42
0.039291
  0
VERTEX
  8
0
 10
68.144229
 20
249.761939
 42
-0.003392
  0
VERTEX
  8
0
 10
68.904663
 20
251.303072
 42
-0.003334
  0
VERTEX
  8
0
 10
69.690215
 20
252.842570
 42
-0.003279
  0
VERTEX
  8
0
 10
70.396668
 20
254.182962
 42
-0.012686
  0
VERTEX
  8
0
 10
70.861204
 20
255.000000
 42
0.065613
  0
VERTEX
  8
0
 10
71.761526
 20
257.064046
 42
0.011334
  0
VERTEX
  8
0
 10
72.850185
 20
261.196187
 42
0.012441
  0
VERTEX
  8
0
 10
73.749293
 20
265.413265
 42
0.046328
  0
VERTEX
  8
0
 10
74.000000
 20
268.113222
 42
0.052814
  0
VERTEX
  8
0
 10
73.890524
 20
269.146769
 42
0.018835
  0
VERTEX
  8
0
 10
73.524747
 20
270.586935
 42
0.018446
  0
VERTEX
  8
0
 10
73.001445
 20
272.148898
 42
0.020729
  0
VERTEX
  8
0
 10
72.382119
 20
273.607173
 42
-0.026265
  0
VERTEX
  8
0
 10
71.624859
 20
275.446538
 42
-0.063615
  0
VERTEX
  8
0
 10
71.317730
 20
276.880647
 42
-0.072768
  0
VERTEX
  8
0
 10
71.400365
 20
278.225573
 42
-0.043793
  0
VERTEX
  8
0
 10
71.864728
 20
279.758303
 42
0.048601
  0
VERTEX
  8
0
 10
72.290165
 20
281.212697
 42
0.040686
  0
VERTEX
  8
0
 10
72.460560
 20
282.812237
 42
0.036808
  0
VERTEX
  8
0
 10
72.374731
 20
284.570244
 42
0.026718
  0
VERTEX
  8
0
 10
72.031961
 20
286.500000
 42
0.091288
  0
VERTEX
  8
0
 10
70.210393
 20
290.676365
 42
0.115379
  0
VERTEX
  8
0
 10
67.129591
 20
293.533202
 42
0.117557
  0
VERTEX
  8
0
 10
63.149060
 20
294.694717
 42
0.097326
  0
VERTEX
  8
0
 10
58.767650
 20
294.058662
 42
-0.018373
  0
VERTEX
  8
0
 10
56.928856
 20
293.486907
 42
-0.101869
  0
VERTEX
  8
0
 10
55.901159
 20
293.423434
 42
-0.161656
  0
VERTEX
  8
0
 10
55.173178
 20
293.785828
 42
-0.067812
  0
VERTEX
  8
0
 10
54.500000
 20
294.665954
 42
0.030478
  0
VERTEX
  8
0
 10
53.936555
 20
295.528836
 42
0.010065
  0
VERTEX
  8
0
 10
53.008534
 20
296.725732
 42
0.009981
  0
VERTEX
  8
0
 10
51.923651
 20
298.014737
 42
0.011161
  0
VERTEX
  8
0
 10
50.826923
 20
299.211270
 42
0.038295
  0
VERTEX
  8
0
 10
49.199522
 20
300.667712
 42
0.077955
  0
VERTEX
  8
0
 10
47.695773
 20
301.485062
 42
0.065236
  0
VERTEX
  8
0
 10
45.843127
 20
301.883792
 42
0.020428
  0
VERTEX
  8
0
 10
43.000000
 20
302.000000
 42
0.021106
  0
VERTEX
  8
0
 10
40.135353
 20
301.879026
 42
0.065802
  0
VERTEX
  8
0
 10
38.253361
 20
301.466418
 42
0.075500
  0
VERTEX
  8
0
 10
36.687289
 20
300.615022
 42
0.034195
  0
SEQEND
  0
ENDSEC
  0
EOF
