  0
SECTION
  2
HEADER
  9
$ACADVER
  1
AC1006
  9
$EXTMIN
 10
0.000000
 20
0.000000
 30
0.000000
  9
$EXTMAX
 10
248.000000
 20
279.000000
 30
0.000000
  0
ENDSEC
  0
SECTION
  2
ENTITIES
  0
POLYLINE
  8
0
 66
1
 70
1
  0
VERTEX
  8
0
 10
40.472506
 20
277.642289
 42
-0.032073
  0
VERTEX
  8
0
 10
39.460973
 20
277.037706
 42
-0.012572
  0
VERTEX
  8
0
 10
37.996216
 20
276.331135
 42
-0.012384
  0
VERTEX
  8
0
 10
36.368878
 20
275.643982
 42
-0.015090
  0
VERTEX
  8
0
 10
34.812483
 20
275.085358
 42
0.051973
  0
VERTEX
  8
0
 10
30.844254
 20
273.321459
 42
0.071004
  0
VERTEX
  8
0
 10
27.767067
 20
270.913957
 42
0.056018
  0
VERTEX
  8
0
 10
25.003276
 20
267.302468
 42
0.020577
  0
VERTEX
  8
0
 10
21.918548
 20
261.657779
 42
0.009974
  0
VERTEX
  8
0
 10
19.684782
 20
256.901155
 42
0.040159
  0
VERTEX
  8
0
 10
18.618768
 20
253.876233
 42
0.052140
  0
VERTEX
  8
0
 10
18.190875
 20
251.126237
 42
0.025464
  0
VERTEX
  8
0
 10
18.193517
 20
247.572672
 42
0.000000
  0
VERTEX
  8
0
 10
18.500000
 20
241.645344
 42
0.000000
  0
VERTEX
  8
0
 10
13.942161
 20
240.063591
 42
0.035385
  0
VERTEX
  8
0
 10
8.112695
 20
237.566040
 42
0.081974
  0
VERTEX
  8
0
 10
4.303715
 20
234.735407
 42
0.095073
  0
VERTEX
  8
0
 10
1.942651
 20
231.120133
 42
0.060536
  0
VERTEX
  8
0
 10
0.607887
 20
226.260188
 42
0.073828
  0
VERTEX
  8
0
 10
0.608906
 20
222.582274
 42
0.151308
  0
VERTEX
  8
0
 10
1.845334
 20
220.009572
 42
0.143149
  0
VERTEX
  8
0
 10
4.379334
 20
218.497194
 42
0.063516
  0
VERTEX
  8
0
 10
8.277494
 20
218.000000
 42
-0.033387
  0
VERTEX
  8
0
 10
10.094855
 20
217.878512
 42
-0.027803
  0
VERTEX
  8
0
 10
11.996847
 20
217.514517
 42
-0.028725
  0
VERTEX
  8
0
 10
13.710869
 20
216.980334
 42
-0.062949
  0
VERTEX
  8
0
 10
14.924458
 20
216.340358
 42
0.072918
  0
VERTEX
  8
0
 10
16.442784
 20
215.577801
 42
0.036386
  0
VERTEX
  8
0
 10
18.532745
 20
215.050562
 42
0.027701
  0
VERTEX
  8
0
 10
21.284625
 20
214.721567
 42
0.012706
  0
VERTEX
  8
0
 10
24.896964
 20
214.583544
 42
-0.010329
  0
VERTEX
  8
0
 10
31.481653
 20
214.363287
 42
-0.146947
  0
VERTEX
  8
0
 10
33.670901
 20
213.574307
 42
-0.363650
  0
VERTEX
  8
0
 10
34.027220
 20
212.089523
 42
-0.049618
  0
VERTEX
  8
0
 10
32.195434
 20
209.175512
 42
0.014747
  0
VERTEX
  8
0
 10
30.876988
 20
207.370474
 42
0.006607
  0
VERTEX
  8
0
 10
29.246179
 20
204.925039
 42
0.006534
  0
VERTEX
  8
0
 10
27.588951
 20
202.292666
 42
0.008824
  0
VERTEX
  8
0
 10
26.164050
 20
199.867175
 42
-0.010096
  0
VERTEX
  8
0
 10
24.833946
 20
197.616178
 42
-0.011385
  0
VERTEX
  8
0
 10
23.464395
 20
195.510483
 42
-0.010689
  0
VERTEX
  8
0
 10
22.224218
 20
193.776271
 42
-0.059041
  0
VERTEX
  8
0
 10
21.434704
 20
192.945809
 42
0.088935
  0
VERTEX
  8
0
 10
20.752544
 20
192.137019
 42
0.083721
  0
VERTEX
  8
0
 10
20.375871
 20
191.124690
 42
0.062685
  0
VERTEX
  8
0
 10
20.291206
 20
189.802675
 42
0.026536
  0
VERTEX
  8
0
 10
20.494295
 20
188.033768
 42
-0.037497
  0
VERTEX
  8
0
 10
20.643059
 20
186.428527
 42
-0.025995
  0
VERTEX
  8
0
 10
20.580119
 20
184.606271
 42
-0.026303
  0
VERTEX
  8
0
 10
20.334213
 20
182.849845
 42
-0.047285
  0
VERTEX
  8
0
 10
19.923789
 20
181.455133
 42
0.037796
  0
VERTEX
  8
0
 10
19.447830
 20
179.944028
 42
0.013920
  0
VERTEX
  8
0
 10
18.999596
 20
177.752445
 42
0.013705
  0
VERTEX
  8
0
 10
18.641041
 20
175.322424
 42
0.016028
  0
VERTEX
  8
0
 10
18.438401
 20
173.000000
 42
-0.001282
  0
VERTEX
  8
0
 10
18.279411
 20
170.240150
 42
-0.000465
  0
VERTEX
  8
0
 10
18.040133
 20
166.325000
 42
-0.000461
  0
VERTEX
  8
0
 10
17.770301
 20
162.040313
 42
-0.000550
  0
VERTEX
  8
0
 10
17.507656
 20
158.000000
 42
0.002340
  0
VERTEX
  8
0
 10
17.059229
 20
150.698078
 42
0.017529
  0
VERTEX
  8
0
 10
16.984324
 20
147.231116
 42
0.014485
  0
VERTEX
  8
0
 10
17.140493
 20
143.551797
 42
0.001285
  0
VERTEX
  8
0
 10
17.826596
 20
134.291634
 42
0.008661
  0
VERTEX
  8
0
 10
18.268733
 20
129.594279
 42
0.014875
  0
VERTEX
  8
0
 10
18.820995
 20
125.701209
 42
0.013985
  0
VERTEX
  8
0
 10
19.427356
 20
122.688807
 42
0.117061
  0
VERTEX
  8
0
 10
20.039279
 20
121.452671
 42
-0.112216
  0
VERTEX
  8
0
 10
20.631141
 20
120.285278
 42
-0.019571
  0
VERTEX
  8
0
 10
21.140803
 20
117.853500
 42
-0.018736
  0
VERTEX
  8
0
 10
21.552635
 20
114.703180
 42
-0.011188
  0
VERTEX
  8
0
 10
21.817555
 20
110.932831
 42
0.011318
  0
VERTEX
  8
0
 10
22.062505
 20
107.459611
 42
0.015960
  0
VERTEX
  8
0
 10
22.449273
 20
104.380643
 42
0.012103
  0
VERTEX
  8
0
 10
22.907094
 20
101.880130
 42
0.170266
  0
VERTEX
  8
0
 10
23.371277
 20
101.110279
 42
0.074110
  0
VERTEX
  8
0
 10
24.004955
 20
100.727877
 42
0.023658
  0
VERTEX
  8
0
 10
25.042881
 20
100.351700
 42
0.023026
  0
VERTEX
  8
0
 10
26.254383
 20
100.036725
 42
0.023778
  0
VERTEX
  8
0
 10
27.476829
 20
99.838485
 42
-0.052637
  0
VERTEX
  8
0
 10
28.835692
 20
99.536904
 42
-0.065088
  0
VERTEX
  8
0
 10
30.000297
 20
98.969206
 42
-0.067731
  0
VERTEX
  8
0
 10
30.944234
 20
98.143290
 42
-0.064175
  0
VERTEX
  8
0
 10
31.653366
 20
97.080864
 42
0.030616
  0
VERTEX
  8
0
 10
32.220081
 20
96.094726
 42
0.026333
  0
VERTEX
  8
0
 10
32.930078
 20
95.132035
 42
0.027201
  0
VERTEX
  8
0
 10
33.669630
 20
94.326150
 42
0.066021
  0
VERTEX
  8
0
 10
34.314924
 20
93.843636
 42
-0.090594
  0
VERTEX
  8
0
 10
34.923948
 20
93.340063
 42
-0.038140
  0
VERTEX
  8
0
 10
35.546091
 20
92.474030
 42
-0.036127
  0
VERTEX
  8
0
 10
36.086527
 20
91.421837
 42
-0.039111
  0
VERTEX
  8
0
 10
36.453322
 20
90.329956
 42
0.095387
  0
VERTEX
  8
0
 10
38.298223
 20
86.371184
 42
0.060764
  0
VERTEX
  8
0
 10
41.763947
 20
82.633629
 42
0.061775
  0
VERTEX
  8
0
 10
45.933493
 20
79.911721
 42
0.113252
  0
VERTEX
  8
0
 10
49.864810
 20
78.993677
 42
-0.136482
  0
VERTEX
  8
0
 10
50.612234
 20
78.782668
 42
-0.046782
  0
VERTEX
  8
0
 10
51.523053
 20
78.104610
 42
-0.042329
  0
VERTEX
  8
0
 10
52.437202
 20
77.128741
 42
-0.037715
  0
VERTEX
  8
0
 10
53.213667
 20
75.975944
 42
0.047167
  0
VERTEX
  8
0
 10
54.142711
 20
74.651265
 42
0.053522
  0
VERTEX
  8
0
 10
55.268843
 20
73.585276
 42
0.055504
  0
VERTEX
  8
0
 10
56.556542
 20
72.813159
 42
0.058026
  0
VERTEX
  8
0
 10
57.963667
 20
72.357267
 42
-0.037055
  0
VERTEX
  8
0
 10
59.126023
 20
72.033732
 42
-0.050305
  0
VERTEX
  8
0
 10
60.108077
 20
71.564093
 42
-0.060824
  0
VERTEX
  8
0
 10
60.786292
 20
71.028873
 42
-0.197822
  0
VERTEX
  8
0
 10
61.000000
 20
70.509859
 42
0.141395
  0
VERTEX
  8
0
 10
61.484787
 20
68.829834
 42
0.037811
  0
VERTEX
  8
0
 10
63.157435
 20
66.571258
 42
0.034812
  0
VERTEX
  8
0
 10
65.049431
 20
64.668737
 42
0.329213
  0
VERTEX
  8
0
 10
66.128633
 20
64.579500
 42
0.120712
  0
VERTEX
  8
0
 10
66.461500
 20
64.918032
 42
0.144810
  0
VERTEX
  8
0
 10
66.571228
 20
65.349416
 42
0.110789
  0
VERTEX
  8
0
 10
66.435358
 20
65.861769
 42
0.053256
  0
VERTEX
  8
0
 10
66.057234
 20
66.431037
 42
-0.103183
  0
VERTEX
  8
0
 10
65.583498
 20
67.325469
 42
-0.167757
  0
VERTEX
  8
0
 10
65.626849
 20
68.175231
 42
-0.179774
  0
VERTEX
  8
0
 10
66.175750
 20
68.777418
 42
-0.119542
  0
VERTEX
  8
0
 10
67.093425
 20
69.000000
 42
-0.270020
  0
VERTEX
  8
0
 10
68.077084
 20
68.427008
 42
-0.022098
  0
VERTEX
  8
0
 10
69.483121
 20
65.670548
 42
-0.028791
  0
VERTEX
  8
0
 10
70.646451
 20
62.670590
 42
-0.078250
  0
VERTEX
  8
0
 10
71.000000
 20
60.425319
 42
-0.054312
  0
VERTEX
  8
0
 10
70.540525
 20
56.207835
 42
-0.009928
  0
VERTEX
  8
0
 10
68.695836
 20
48.566935
 42
-0.009350
  0
VERTEX
  8
0
 10
66.558721
 20
41.005348
 42
-0.064130
  0
VERTEX
  8
0
 10
64.977328
 20
37.485254
 42
-0.056108
  0
VERTEX
  8
0
 10
62.717755
 20
34.588276
 42
-0.040773
  0
VERTEX
  8
0
 10
59.627688
 20
31.906449
 42
-0.037002
  0
VERTEX
  8
0
 10
55.811889
 20
29.517768
 42
-0.029215
  0
VERTEX
  8
0
 10
51.376401
 20
27.500000
 42
0.037408
  0
VERTEX
  8
0
 10
48.841815
 20
26.296532
 42
0.020488
  0
VERTEX
  8
0
 10
45.925362
 20
24.471922
 42
0.019241
  0
VERTEX
  8
0
 10
42.900687
 20
22.226980
 42
0.018591
  0
VERTEX
  8
0
 10
40.021487
 20
19.731369
 42
0.007436
  0
VERTEX
  8
0
 10
36.450145
 20
16.294590
 42
0.056316
  0
VERTEX
  8
0
 10
34.986878
 20
14.474747
 42
0.124152
  0
VERTEX
  8
0
 10
34.505852
 20
13.011755
 42
0.098409
  0
VERTEX
  8
0
 10
34.714971
 20
11.355088
 42
0.214644
  0
VERTEX
  8
0
 10
38.097878
 20
7.684408
 42
0.043175
  0
VERTEX
  8
0
 10
46.748589
 20
4.846380
 42
0.043453
  0
VERTEX
  8
0
 10
55.812877
 20
3.533350
 42
0.196661
  0
VERTEX
  8
0
 10
60.763404
 20
5.236554
 42
-0.027324
  0
VERTEX
  8
0
 10
61.653441
 20
5.934606
 42
-0.011016
  0
VERTEX
  8
0
 10
62.938586
 20
6.792157
 42
-0.010862
  0
VERTEX
  8
0
 10
64.365880
 20
7.656810
 42
-0.013534
  0
VERTEX
  8
0
 10
65.729655
 20
8.394570
 42
0.084844
  0
VERTEX
  8
0
 10
69.269818
 20
11.019933
 42
0.035472
  0
VERTEX
  8
0
 10
73.074631
 20
15.606545
 42
0.034544
  0
VERTEX
  8
0
 10
76.114367
 20
20.536503
 42
0.121458
  0
VERTEX
  8
0
 10
77.000000
 20
24.128560
 42
0.038215
  0
VERTEX
  8
0
 10
76.896948
 20
25.474906
 42
0.032813
  0
VERTEX
  8
0
 10
76.589075
 20
26.862173
 42
0.034165
  0
VERTEX
  8
0
 10
76.138274
 20
28.088407
 42
0.076266
  0
VERTEX
  8
0
 10
75.601105
 20
28.921259
 42
-0.133829
  0
VERTEX
  8
0
 10
74.955968
 20
30.226681
 42
-0.063607
  0
VERTEX
  8
0
 10
74.831575
 20
32.112253
 42
-0.029737
  0
VERTEX
  8
0
 10
75.203871
 20
35.183679
 42
-0.004677
  0
VERTEX
  8
0
 10
76.351105
 20
41.167164
 42
-0.004069
  0
VERTEX
  8
0
 10
77.218509
 20
45.298986
 42
-0.006157
  0
VERTEX
  8
0
 10
78.046799
 20
48.878740
 42
-0.002664
  0
VERTEX
  8
0
 10
78.805320
 20
51.912273
 42
-0.134670
  0
VERTEX
  8
0
 10
79.106081
 20
52.439913
 42
-0.271810
  0
VERTEX
  8
0
 10
79.598177
 20
52.567764
 42
-0.010157
  0
VERTEX
  8
0
 10
81.497907
 20
51.986517
 42
-0.015905
  0
VERTEX
  8
0
 10
83.791310
 20
51.151858
 42
-0.010225
  0
VERTEX
  8
0
 10
86.397374
 20
50.046045
 42
-0.032330
  0
VERTEX
  8
0
 10
91.072754
 20
47.573920
 42
-0.108251
  0
VERTEX
  8
0
 10
93.555339
 20
45.182546
 42
-0.074886
  0
VERTEX
  8
0
 10
95.280010
 20
41.509156
 42
-0.010438
  0
VERTEX
  8
0
 10
97.516520
 20
33.383379
 42
-0.017371
  0
VERTEX
  8
0
 10
98.648005
 20
28.151075
 42
-0.088389
  0
VERTEX
  8
0
 10
98.653677
 20
25.183028
 42
-0.199984
  0
VERTEX
  8
0
 10
97.650270
 20
23.614710
 42
-0.152891
  0
VERTEX
  8
0
 10
95.686974
 20
23.000000
 42
0.112331
  0
VERTEX
  8
0
 10
94.363361
 20
22.698835
 42
0.026937
  0
VERTEX
  8
0
 10
92.374768
 20
21.609081
 42
0.024586
  0
VERTEX
  8
0
 10
90.043098
 20
19.999031
 42
0.016347
  0
VERTEX
  8
0
 10
87.528827
 20
17.939995
 42
-0.004744
  0
VERTEX
  8
0
 10
85.134288
 20
15.884379
 42
-0.004866
  0
VERTEX
  8
0
 10
82.721113
 20
13.892031
 42
-0.004721
  0
VERTEX
  8
0
 10
80.594521
 20
12.203797
 42
-0.020380
  0
VERTEX
  8
0
 10
79.282041
 20
11.265231
 42
0.074006
  0
VERTEX
  8
0
 10
77.329556
 20
9.525698
 42
0.071483
  0
VERTEX
  8
0
 10
75.940813
 20
7.273491
 42
0.085402
  0
VERTEX
  8
0
 10
75.413150
 20
5.111949
 42
0.216919
  0
VERTEX
  8
0
 10
75.966614
 20
3.633386
 42
0.086495
  0
VERTEX
  8
0
 10
76.647719
 20
3.154468
 42
0.015017
  0
VERTEX
  8
0
 10
78.095978
 20
2.524589
 42
0.015927
  0
VERTEX
  8
0
 10
79.860347
 20
1.883818
 42
0.013668
  0
VERTEX
  8
0
 10
81.753774
 20
1.320494
 42
0.069511
  0
VERTEX
  8
0
 10
88.127174
 20
0.532317
 42
0.020409
  0
VERTEX
  8
0
 10
97.994201
 20
1.091083
 42
0.017736
  0
VERTEX
  8
0
 10
107.637860
 20
2.379836
 42
0.121385
  0
VERTEX
  8
0
 10
112.000000
 20
4.275271
 42
-0.021969
  0
VERTEX
  8
0
 10
113.191828
 20
5.103945
 42
-0.011886
  0
VERTEX
  8
0
 10
114.724442
 20
6.022350
 42
-0.011820
  0
VERTEX
  8
0
 10
116.332212
 20
6.884985
 42
-0.018248
  0
VERTEX
  8
0
 10
117.764058
 20
7.545688
 42
0.065951
  0
VERTEX
  8
0
 10
120.627558
 20
9.214016
 42
0.250163
  0
VERTEX
  8
0
 10
121.446842
 20
11.042323
 42
0.143195
  0
VERTEX
  8
0
 10
120.536252
 20
13.510507
 42
0.019494
  0
VERTEX
  8
0
 10
117.052366
 20
17.846327
 42
-0.015687
  0
VERTEX
  8
0
 10
114.652694
 20
20.786691
 42
-0.031353
  0
VERTEX
  8
0
 10
112.982554
 20
23.278758
 42
-0.039428
  0
VERTEX
  8
0
 10
111.908748
 20
25.507775
 42
-0.056509
  0
VERTEX
  8
0
 10
111.351318
 20
27.626894
 42
0.020170
  0
VERTEX
  8
0
 10
110.975603
 20
29.638370
 42
0.005929
  0
VERTEX
  8
0
 10
110.238671
 20
32.691365
 42
0.005943
  0
VERTEX
  8
0
 10
109.327291
 20
36.109146
 42
0.006353
  0
VERTEX
  8
0
 10
108.354031
 20
39.428816
 42
-0.012745
  0
VERTEX
  8
0
 10
107.368694
 20
42.956064
 42
-0.020278
  0
VERTEX
  8
0
 10
106.726765
 20
46.022418
 42
-0.023279
  0
VERTEX
  8
0
 10
106.426592
 20
48.527332
 42
-0.072356
  0
VERTEX
  8
0
 10
106.548201
 20
50.219457
 42
0.049004
  0
VERTEX
  8
0
 10
106.714062
 20
51.615270
 42
0.051760
  0
VERTEX
  8
0
 10
106.599536
 20
52.990526
 42
0.051392
  0
VERTEX
  8
0
 10
106.203499
 20
54.321531
 42
0.047070
  0
VERTEX
  8
0
 10
105.535461
 20
55.586223
 42
-0.044277
  0
VERTEX
  8
0
 10
104.950225
 20
56.679362
 42
-0.040567
  0
VERTEX
  8
0
 10
104.546189
 20
57.890636
 42
-0.043030
  0
VERTEX
  8
0
 10
104.367396
 20
59.035919
 42
-0.094325
  0
VERTEX
  8
0
 10
104.472531
 20
59.913453
 42
-0.100050
  0
VERTEX
  8
0
 10
105.762741
 20
62.237644
 42
-0.012497
  0
VERTEX
  8
0
 10
109.634789
 20
66.553958
 42
-0.014013
  0
VERTEX
  8
0
 10
113.731724
 20
70.660618
 42
-0.072701
  0
VERTEX
  8
0
 10
116.344423
 20
72.499988
 42
0.099377
  0
VERTEX
  8
0
 10
117.500324
 20
73.408946
 42
0.115312
  0
VERTEX
  8
0
 10
118.141150
 20
74.649801
 42
0.054061
  0
VERTEX
  8
0
 10
118.433036
 20
76.734851
 42
0.007767
  0
VERTEX
  8
0
 10
118.500000
 20
81.045127
 42
0.000000
  0
VERTEX
  8
0
 10
118.500000
 20
88.500000
 42
0.000000
  0
VERTEX
  8
0
 10
131.000000
 20
89.264069
 42
-0.005198
  0
VERTEX
  8
0
 10
143.210622
 20
89.883116
 42
-0.117369
  0
VERTEX
  8
0
 10
146.646416
 20
89.210183
 42
-0.190202
  0
VERTEX
  8
0
 10
148.740454
 20
87.041123
 42
-0.018084
  0
VERTEX
  8
0
 10
151.356439
 20
80.000000
 42
0.005579
  0
VERTEX
  8
0
 10
153.350905
 20
74.190770
 42
0.053205
  0
VERTEX
  8
0
 10
154.486099
 20
71.829803
 42
0.126135
  0
VERTEX
  8
0
 10
155.720649
 20
70.643769
 42
0.088202
  0
VERTEX
  8
0
 10
157.549483
 20
70.000000
 42
-0.048177
  0
VERTEX
  8
0
 10
158.943636
 20
69.630922
 42
-0.023823
  0
VERTEX
  8
0
 10
160.630091
 20
68.912500
 42
-0.023393
  0
VERTEX
  8
0
 10
162.323089
 20
67.993915
 42
-0.031538
  0
VERTEX
  8
0
 10
163.754406
 20
67.000000
 42
-0.023460
  0
VERTEX
  8
0
 10
165.631240
 20
65.364057
 42
-0.126317
  0
VERTEX
  8
0
 10
166.339868
 20
64.222781
 42
-0.112193
  0
VERTEX
  8
0
 10
166.453950
 20
62.815678
 42
-0.016733
  0
VERTEX
  8
0
 10
165.953168
 20
60.000000
 42
-0.002810
  0
VERTEX
  8
0
 10
164.054310
 20
51.308618
 42
-0.008607
  0
VERTEX
  8
0
 10
162.633039
 20
45.448282
 42
-0.006047
  0
VERTEX
  8
0
 10
161.483505
 20
41.249617
 42
-0.186594
  0
VERTEX
  8
0
 10
160.841456
 20
40.402014
 42
0.141652
  0
VERTEX
  8
0
 10
160.517312
 20
40.044002
 42
0.041997
  0
VERTEX
  8
0
 10
160.247178
 20
39.348389
 42
0.038441
  0
VERTEX
  8
0
 10
160.062002
 20
38.478006
 42
0.033208
  0
VERTEX
  8
0
 10
160.000000
 20
37.545486
 42
-0.092104
  0
VERTEX
  8
0
 10
159.778493
 20
36.353207
 42
-0.088682
  0
VERTEX
  8
0
 10
159.142361
 20
35.302211
 42
-0.066041
  0
VERTEX
  8
0
 10
158.005682
 20
34.309836
 42
-0.027693
  0
VERTEX
  8
0
 10
156.250000
 20
33.280064
 42
0.000915
  0
VERTEX
  8
0
 10
154.595429
 20
32.425146
 42
0.000627
  0
VERTEX
  8
0
 10
152.720313
 20
31.448934
 42
0.000632
  0
VERTEX
  8
0
 10
150.916271
 20
30.503946
 42
0.001282
  0
VERTEX
  8
0
 10
149.500000
 20
29.755158
 42
-0.011445
  0
VERTEX
  8
0
 10
148.034275
 20
29.017943
 42
-0.005006
  0
VERTEX
  8
0
 10
146.059375
 20
28.104745
 42
-0.004951
  0
VERTEX
  8
0
 10
143.942389
 20
27.176557
 42
-0.006595
  0
VERTEX
  8
0
 10
142.000000
 20
26.377871
 42
0.017035
  0
VERTEX
  8
0
 10
139.807069
 20
25.422172
 42
0.006625
  0
VERTEX
  8
0
 10
136.839063
 20
23.957931
 42
0.006549
  0
VERTEX
  8
0
 10
133.664008
 20
22.286133
 42
0.008073
  0
VERTEX
  8
0
 10
130.750000
 20
20.641210
 42
0.011692
  0
VERTEX
  8
0
 10
127.436260
 20
18.593880
 42
0.041072
  0
VERTEX
  8
0
 10
125.455290
 20
17.059901
 42
0.068727
  0
VERTEX
  8
0
 10
124.364878
 20
15.745571
 42
0.139727
  0
VERTEX
  8
0
 10
124.000000
 20
14.465380
 42
0.113990
  0
VERTEX
  8
0
 10
124.461205
 20
12.468658
 42
0.132267
  0
VERTEX
  8
0
 10
125.739346
 20
11.002541
 42
0.070552
  0
VERTEX
  8
0
 10
128.262805
 20
9.783848
 42
0.014563
  0
VERTEX
  8
0
 10
133.018564
 20
8.416732
 42
0.018663
  0
VERTEX
  8
0
 10
136.712327
 20
7.616016
 42
0.034637
  0
VERTEX
  8
0
 10
139.760246
 20
7.288935
 42
0.030363
  0
VERTEX
  8
0
 10
143.079000
 20
7.365443
 42
0.011156
  0
VERTEX
  8
0
 10
147.742863
 20
7.861987
 42
0.005558
  0
VERTEX
  8
0
 10
153.652418
 20
8.691712
 42
0.046222
  0
VERTEX
  8
0
 10
156.275316
 20
9.341884
 42
0.129489
  0
VERTEX
  8
0
 10
157.529183
 20
10.186711
 42
0.182058
  0
VERTEX
  8
0
 10
158.000000
 20
11.436896
 42
-0.177708
  0
VERTEX
  8
0
 10
158.282146
 20
12.205674
 42
-0.010952
  0
VERTEX
  8
0
 10
159.924368
 20
14.057843
 42
-0.015168
  0
VERTEX
  8
0
 10
162.041267
 20
16.207912
 42
-0.010585
  0
VERTEX
  8
0
 10
164.551040
 20
18.507252
 42
0.007716
  0
VERTEX
  8
0
 10
168.287338
 20
21.891049
 42
0.052876
  0
VERTEX
  8
0
 10
169.909834
 20
23.764333
 42
0.111004
  0
VERTEX
  8
0
 10
170.534970
 20
25.298105
 42
0.095823
  0
VERTEX
  8
0
 10
170.491161
 20
27.040245
 42
-0.072938
  0
VERTEX
  8
0
 10
170.247494
 20
30.486554
 42
-0.010445
  0
VERTEX
  8
0
 10
170.926794
 20
37.546795
 42
-0.012168
  0
VERTEX
  8
0
 10
172.071817
 20
45.605427
 42
-0.012623
  0
VERTEX
  8
0
 10
173.596002
 20
53.500000
 42
-0.030681
  0
VERTEX
  8
0
 10
175.223619
 20
59.218107
 42
-0.101643
  0
VERTEX
  8
0
 10
177.229417
 20
62.554885
 42
-0.122073
  0
VERTEX
  8
0
 10
180.161184
 20
64.492582
 42
-0.054248
  0
VERTEX
  8
0
 10
184.700553
 20
65.568324
 42
-0.016333
  0
VERTEX
  8
0
 10
188.167987
 20
65.886956
 42
-0.096259
  0
VERTEX
  8
0
 10
189.968762
 20
65.646116
 42
-0.095050
  0
VERTEX
  8
0
 10
191.558638
 20
64.747576
 42
-0.015727
  0
VERTEX
  8
0
 10
194.181019
 20
62.375175
 42
0.000000
  0
VERTEX
  8
0
 10
198.202744
 20
58.500000
 42
0.000000
  0
VERTEX
  8
0
 10
197.536644
 20
45.500000
 42
-0.006842
  0
VERTEX
  8
0
 10
197.184932
 20
40.086505
 42
-0.012928
  0
VERTEX
  8
0
 10
196.728998
 20
35.735963
 42
-0.010037
  0
VERTEX
  8
0
 10
196.219245
 20
32.371041
 42
-0.160979
  0
VERTEX
  8
0
 10
195.685272
 20
31.369076
 42
-0.086369
  0
VERTEX
  8
0
 10
194.830136
 20
30.796976
 42
-0.007755
  0
VERTEX
  8
0
 10
192.446775
 20
29.784224
 42
-0.009906
  0
VERTEX
  8
0
 10
189.542433
 20
28.669459
 42
-0.007576
  0
VERTEX
  8
0
 10
186.325026
 20
27.561940
 42
0.010704
  0
VERTEX
  8
0
 10
183.106902
 20
26.431612
 42
0.013724
  0
VERTEX
  8
0
 10
180.199693
 20
25.248024
 42
0.011591
  0
VERTEX
  8
0
 10
177.840515
 20
24.145258
 42
0.104789
  0
VERTEX
  8
0
 10
176.952581
 20
23.442864
 42
-0.033541
  0
VERTEX
  8
0
 10
176.428016
 20
22.890712
 42
-0.035307
  0
VERTEX
  8
0
 10
175.842788
 20
22.423841
 42
-0.037744
  0
VERTEX
  8
0
 10
175.283776
 20
22.098305
 42
-0.113454
  0
VERTEX
  8
0
 10
174.856115
 20
22.000000
 42
0.114134
  0
VERTEX
  8
0
 10
174.312714
 20
21.874322
 42
0.010102
  0
VERTEX
  8
0
 10
173.052497
 20
21.226590
 42
0.012789
  0
VERTEX
  8
0
 10
171.567947
 20
20.375503
 42
0.009619
  0
VERTEX
  8
0
 10
169.978560
 20
19.367114
 42
0.068588
  0
VERTEX
  8
0
 10
167.042727
 20
16.784047
 42
0.150407
  0
VERTEX
  8
0
 10
165.851777
 20
14.071368
 42
0.188925
  0
VERTEX
  8
0
 10
166.510039
 20
11.580159
 42
0.115958
  0
VERTEX
  8
0
 10
168.846782
 20
9.579232
 42
0.035942
  0
VERTEX
  8
0
 10
170.076530
 20
9.051462
 42
0.032089
  0
VERTEX
  8
0
 10
171.416392
 20
8.681526
 42
0.033528
  0
VERTEX
  8
0
 10
172.666466
 20
8.507654
 42
0.080140
  0
VERTEX
  8
0
 10
173.596782
 20
8.590454
 42
-0.037638
  0
VERTEX
  8
0
 10
174.896829
 20
8.818257
 42
-0.002196
  0
VERTEX
  8
0
 10
178.906555
 20
9.195614
 42
-0.003319
  0
VERTEX
  8
0
 10
183.690203
 20
9.592627
 42
-0.002436
  0
VERTEX
  8
0
 10
189.000000
 20
9.971829
 42
0.006311
  0
VERTEX
  8
0
 10
199.605050
 20
10.811842
 42
0.015123
  0
VERTEX
  8
0
 10
207.434046
 20
11.771021
 42
0.016665
  0
VERTEX
  8
0
 10
213.076514
 20
12.829752
 42
0.119037
  0
VERTEX
  8
0
 10
215.552128
 20
14.043263
 42
0.118307
  0
VERTEX
  8
0
 10
216.159753
 20
14.855030
 42
0.043348
  0
VERTEX
  8
0
 10
216.614246
 20
16.224705
 42
0.036036
  0
VERTEX
  8
0
 10
216.905020
 20
18.007117
 42
0.022421
  0
VERTEX
  8
0
 10
217.000000
 20
20.124108
 42
0.023561
  0
VERTEX
  8
0
 10
216.857880
 20
23.138486
 42
0.107403
  0
VERTEX
  8
0
 10
216.328505
 20
24.801328
 42
0.091894
  0
VERTEX
  8
0
 10
215.118406
 20
26.222162
 42
0.014767
  0
VERTEX
  8
0
 10
212.212914
 20
28.442505
 42
-0.015867
  0
VERTEX
  8
0
 10
209.226576
 20
30.735047
 42
-0.099424
  0
VERTEX
  8
0
 10
208.013620
 20
32.216277
 42
-0.097469
  0
VERTEX
  8
0
 10
207.455109
 20
34.063386
 42
-0.014960
  0
VERTEX
  8
0
 10
207.187745
 20
37.910328
 42
-0.028680
  0
VERTEX
  8
0
 10
207.244451
 20
41.082837
 42
-0.015983
  0
VERTEX
  8
0
 10
207.658044
 20
44.926912
 42
-0.014581
  0
VERTEX
  8
0
 10
208.385142
 20
49.206211
 42
-0.012047
  0
VERTEX
  8
0
 10
209.401783
 20
53.719486
 42
0.002953
  0
VERTEX
  8
0
 10
210.427674
 20
57.916288
 42
0.002377
  0
VERTEX
  8
0
 10
211.482573
 20
62.440309
 42
0.002402
  0
VERTEX
  8
0
 10
212.417204
 20
66.629172
 42
0.006149
  0
VERTEX
  8
0
 10
213.041920
 20
69.673054
 42
-0.019798
  0
VERTEX
  8
0
 10
213.759640
 20
72.742269
 42
-0.039600
  0
VERTEX
  8
0
 10
214.609922
 20
75.082778
 42
-0.047548
  0
VERTEX
  8
0
 10
215.693731
 20
76.964122
 42
-0.047321
  0
VERTEX
  8
0
 10
217.114967
 20
78.610145
 42
0.036724
  0
VERTEX
  8
0
 10
218.311504
 20
79.938072
 42
0.043547
  0
VERTEX
  8
0
 10
219.226667
 20
81.356643
 42
0.047994
  0
VERTEX
  8
0
 10
219.806725
 20
82.767824
 42
0.073652
  0
VERTEX
  8
0
 10
220.000000
 20
84.072784
 42
-0.042899
  0
VERTEX
  8
0
 10
220.106559
 20
85.312456
 42
-0.022717
  0
VERTEX
  8
0
 10
220.438815
 20
86.820062
 42
-0.022438
  0
VERTEX
  8
0
 10
220.921635
 20
88.341901
 42
-0.032172
  0
VERTEX
  8
0
 10
221.493839
 20
89.635693
 42
0.019804
  0
VERTEX
  8
0
 10
222.066095
 20
90.847700
 42
0.018877
  0
VERTEX
  8
0
 10
222.550673
 20
92.120508
 42
0.019212
  0
VERTEX
  8
0
 10
222.892536
 20
93.276207
 42
0.061394
  0
VERTEX
  8
0
 10
222.993839
 20
94.072418
 42
-0.090657
  0
VERTEX
  8
0
 10
223.167003
 20
94.999075
 42
-0.011011
  0
VERTEX
  8
0
 10
223.952878
 20
96.924166
 42
-0.012775
  0
VERTEX
  8
0
 10
225.005056
 20
99.187570
 42
-0.010208
  0
VERTEX
  8
0
 10
226.250000
 20
101.572418
 42
0.023867
  0
VERTEX
  8
0
 10
228.016231
 20
105.193597
 42
0.040009
  0
VERTEX
  8
0
 10
229.100310
 20
108.399296
 42
0.030423
  0
VERTEX
  8
0
 10
229.831135
 20
112.298137
 42
0.008432
  0
VERTEX
  8
0
 10
230.500000
 20
118.490045
 42
-0.005315
  0
VERTEX
  8
0
 10
231.094245
 20
124.331972
 42
-0.030046
  0
VERTEX
  8
0
 10
231.630261
 20
127.416145
 42
-0.062604
  0
VERTEX
  8
0
 10
232.268949
 20
129.127504
 42
-0.228996
  0
VERTEX
  8
0
 10
233.173508
 20
129.798639
 42
-0.272337
  0
VERTEX
  8
0
 10
234.998220
 20
129.145603
 42
-0.040231
  0
VERTEX
  8
0
 10
237.350878
 20
125.814482
 42
-0.041427
  0
VERTEX
  8
0
 10
239.424245
 20
121.540783
 42
-0.052637
  0
VERTEX
  8
0
 10
240.566562
 20
117.309941
 42
-0.032813
  0
VERTEX
  8
0
 10
240.780014
 20
115.019682
 42
-0.050577
  0
VERTEX
  8
0
 10
240.633581
 20
113.037434
 42
-0.046321
  0
VERTEX
  8
0
 10
240.076533
 20
111.003968
 42
-0.022725
  0
VERTEX
  8
0
 10
239.016772
 20
108.534646
 42
0.042685
  0
VERTEX
  8
0
 10
237.759904
 20
105.250612
 42
0.135371
  0
VERTEX
  8
0
 10
237.734030
 20
102.919298
 42
0.212168
  0
VERTEX
  8
0
 10
238.854914
 20
101.522217
 42
0.119696
  0
VERTEX
  8
0
 10
241.005094
 20
101.000000
 42
0.254490
  0
VERTEX
  8
0
 10
243.136799
 20
102.160132
 42
0.038838
  0
VERTEX
  8
0
 10
245.522929
 20
106.565986
 42
0.041222
  0
VERTEX
  8
0
 10
247.383512
 20
111.887976
 42
0.063566
  0
VERTEX
  8
0
 10
248.000000
 20
116.717575
 42
0.085206
  0
VERTEX
  8
0
 10
247.046573
 20
122.271821
 42
0.027652
  0
VERTEX
  8
0
 10
243.826659
 20
129.988771
 42
0.026940
  0
VERTEX
  8
0
 10
239.275512
 20
138.232283
 42
0.029165
  0
VERTEX
  8
0
 10
233.972713
 20
145.713398
 42
-0.008500
  0
VERTEX
  8
0
 10
232.067722
 20
148.178432
 42
-0.011975
  0
VERTEX
  8
0
 10
230.460734
 20
150.443793
 42
-0.008267
  0
VERTEX
  8
0
 10
229.206852
 20
152.372289
 42
-0.140915
  0
VERTEX
  8
0
 10
229.000000
 20
153.091672
 42
0.100476
  0
VERTEX
  8
0
 10
228.855952
 20
153.801261
 42
0.009258
  0
VERTEX
  8
0
 10
228.121848
 20
155.449214
 42
0.011648
  0
VERTEX
  8
0
 10
227.155454
 20
157.395421
 42
0.008876
  0
VERTEX
  8
0
 10
226.010547
 20
159.481566
 42
0.041111
  0
VERTEX
  8
0
 10
222.917661
 20
163.984428
 42
0.025929
  0
VERTEX
  8
0
 10
218.634374
 20
168.714371
 42
0.026095
  0
VERTEX
  8
0
 10
214.012551
 20
172.857924
 42
0.052623
  0
VERTEX
  8
0
 10
209.907205
 20
175.509999
 42
-0.030587
  0
VERTEX
  8
0
 10
206.269073
 20
177.639534
 42
-0.066743
  0
VERTEX
  8
0
 10
203.852482
 20
179.776264
 42
-0.086866
  0
VERTEX
  8
0
 10
202.478046
 20
182.068134
 42
-0.091984
  0
VERTEX
  8
0
 10
202.000000
 20
184.644679
 42
0.048722
  0
VERTEX
  8
0
 10
201.841000
 20
186.272523
 42
0.017910
  0
VERTEX
  8
0
 10
201.312671
 20
188.523407
 42
0.017555
  0
VERTEX
  8
0
 10
200.555889
 20
190.957214
 42
0.020152
  0
VERTEX
  8
0
 10
199.660157
 20
193.220365
 42
-0.005359
  0
VERTEX
  8
0
 10
198.633829
 20
195.604851
 42
-0.003349
  0
VERTEX
  8
0
 10
197.480704
 20
198.417857
 42
-0.003361
  0
VERTEX
  8
0
 10
196.381569
 20
201.205169
 42
-0.006107
  0
VERTEX
  8
0
 10
195.526482
 20
203.500000
 42
0.065510
  0
VERTEX
  8
0
 10
192.414392
 20
209.547053
 42
0.087937
  0
VERTEX
  8
0
 10
188.081552
 20
213.913360
 42
0.094609
  0
VERTEX
  8
0
 10
182.777974
 20
216.314735
 42
0.088832
  0
VERTEX
  8
0
 10
176.839371
 20
216.667382
 42
0.015130
  0
VERTEX
  8
0
 10
174.862723
 20
216.372391
 42
0.014478
  0
VERTEX
  8
0
 10
172.878034
 20
215.954852
 42
0.014579
  0
VERTEX
  8
0
 10
171.149367
 20
215.484856
 42
0.049234
  0
VERTEX
  8
0
 10
170.069277
 20
215.037076
 42
0.087992
  0
VERTEX
  8
0
 10
167.406399
 20
212.940683
 42
0.048648
  0
VERTEX
  8
0
 10
164.956501
 20
209.588465
 42
0.043016
  0
VERTEX
  8
0
 10
162.899665
 20
205.307785
 42
0.034314
  0
VERTEX
  8
0
 10
161.418201
 20
200.403174
 42
-0.006558
  0
VERTEX
  8
0
 10
160.746559
 20
197.632903
 42
-0.007625
  0
VERTEX
  8
0
 10
160.033412
 20
195.017731
 42
-0.006873
  0
VERTEX
  8
0
 10
159.366939
 20
192.826146
 42
-0.044600
  0
VERTEX
  8
0
 10
158.920059
 20
191.763569
 42
0.056270
  0
VERTEX
  8
0
 10
158.565953
 20
190.863509
 42
0.021218
  0
VERTEX
  8
0
 10
158.270267
 20
189.541072
 42
0.020700
  0
VERTEX
  8
0
 10
158.067597
 20
188.061710
 42
0.023694
  0
VERTEX
  8
0
 10
158.000000
 20
186.636014
 42
-0.064811
  0
VERTEX
  8
0
 10
157.667797
 20
184.083907
 42
-0.126405
  0
VERTEX
  8
0
 10
156.671773
 20
182.304745
 42
-0.124092
  0
VERTEX
  8
0
 10
154.926645
 20
181.205670
 42
-0.061242
  0
VERTEX
  8
0
 10
152.337601
 20
180.700258
 42
-0.037157
  0
VERTEX
  8
0
 10
150.667720
 20
180.706644
 42
-0.213163
  0
VERTEX
  8
0
 10
149.908674
 20
181.119484
 42
-0.145126
  0
VERTEX
  8
0
 10
149.546153
 20
182.069967
 42
-0.014867
  0
VERTEX
  8
0
 10
149.433310
 20
184.500000
 42
0.013920
  0
VERTEX
  8
0
 10
149.199473
 20
189.750274
 42
0.054700
  0
VERTEX
  8
0
 10
148.614978
 20
192.932721
 42
0.058109
  0
VERTEX
  8
0
 10
147.371605
 20
195.816981
 42
0.017058
  0
VERTEX
  8
0
 10
144.817177
 20
199.916662
 42
0.037614
  0
VERTEX
  8
0
 10
140.675297
 20
205.182148
 42
0.088288
  0
VERTEX
  8
0
 10
136.714178
 20
208.211968
 42
0.095951
  0
VERTEX
  8
0
 10
132.167049
 20
209.546776
 42
0.050267
  0
VERTEX
  8
0
 10
126.247511
 20
209.509864
 42
0.017633
  0
VERTEX
  8
0
 10
122.661485
 20
208.997391
 42
0.052186
  0
VERTEX
  8
0
 10
120.275397
 20
208.307417
 42
0.059255
  0
VERTEX
  8
0
 10
118.254260
 20
207.192385
 42
0.028059
  0
VERTEX
  8
0
 10
115.934009
 20
205.321416
 42
0.054908
  0
VERTEX
  8
0
 10
112.669994
 20
201.647449
 42
0.038868
  0
VERTEX
  8
0
 10
109.835961
 20
196.908562
 42
0.035936
  0
VERTEX
  8
0
 10
107.560412
 20
191.363805
 42
0.031032
  0
VERTEX
  8
0
 10
105.969069
 20
185.272887
 42
-0.017059
  0
VERTEX
  8
0
 10
105.188657
 20
181.903808
 42
-0.054001
  0
VERTEX
  8
0
 10
104.353268
 20
179.747662
 42
-0.068721
  0
VERTEX
  8
0
 10
103.198656
 20
178.112297
 42
-0.041826
  0
VERTEX
  8
0
 10
101.441119
 20
176.522887
 42
-0.026608
  0
VERTEX
  8
0
 10
100.024868
 20
175.557301
 42
-0.026121
  0
VERTEX
  8
0
 10
98.505518
 20
174.741098
 42
-0.027060
  0
VERTEX
  8
0
 10
97.100858
 20
174.169231
 42
-0.083323
  0
VERTEX
  8
0
 10
96.092402
 20
174.000000
 42
0.103294
  0
VERTEX
  8
0
 10
95.169649
 20
173.807314
 42
0.064299
  0
VERTEX
  8
0
 10
94.218079
 20
173.236737
 42
0.057090
  0
VERTEX
  8
0
 10
93.333873
 20
172.357438
 42
0.047948
  0
VERTEX
  8
0
 10
92.610999
 20
171.250000
 42
-0.034868
  0
VERTEX
  8
0
 10
91.817551
 20
169.962188
 42
-0.014296
  0
VERTEX
  8
0
 10
90.573671
 20
168.327596
 42
-0.014063
  0
VERTEX
  8
0
 10
89.133167
 20
166.642150
 42
-0.017501
  0
VERTEX
  8
0
 10
87.698047
 20
165.163094
 42
-0.033572
  0
VERTEX
  8
0
 10
85.199311
 20
163.065452
 42
-0.256680
  0
VERTEX
  8
0
 10
83.731935
 20
162.875515
 42
-0.328608
  0
VERTEX
  8
0
 10
83.041463
 20
163.971898
 42
-0.044975
  0
VERTEX
  8
0
 10
83.507258
 20
166.806835
 42
0.016484
  0
VERTEX
  8
0
 10
84.406923
 20
170.834271
 42
0.008231
  0
VERTEX
  8
0
 10
85.292352
 20
175.981595
 42
0.008224
  0
VERTEX
  8
0
 10
86.020009
 20
181.242514
 42
0.014069
  0
VERTEX
  8
0
 10
86.430967
 20
185.655456
 42
-0.013613
  0
VERTEX
  8
0
 10
86.622052
 20
187.727810
 42
-0.015660
  0
VERTEX
  8
0
 10
86.919809
 20
189.691456
 42
-0.014859
  0
VERTEX
  8
0
 10
87.271633
 20
191.329884
 42
-0.082242
  0
VERTEX
  8
0
 10
87.625898
 20
192.155456
 42
0.048520
  0
VERTEX
  8
0
 10
87.962356
 20
192.813738
 42
0.024897
  0
VERTEX
  8
0
 10
88.259202
 20
193.692540
 42
0.024488
  0
VERTEX
  8
0
 10
88.477087
 20
194.635836
 42
0.033734
  0
VERTEX
  8
0
 10
88.573049
 20
195.500000
 42
-0.022159
  0
VERTEX
  8
0
 10
88.676855
 20
196.683850
 42
-0.003260
  0
VERTEX
  8
0
 10
89.008550
 20
199.067071
 42
-0.003674
  0
VERTEX
  8
0
 10
89.439877
 20
201.879879
 42
-0.003149
  0
VERTEX
  8
0
 10
89.934342
 20
204.834710
 42
0.016838
  0
VERTEX
  8
0
 10
90.390045
 20
208.105586
 42
0.014141
  0
VERTEX
  8
0
 10
90.657506
 20
211.596036
 42
0.014564
  0
VERTEX
  8
0
 10
90.720151
 20
214.880588
 42
0.028568
  0
VERTEX
  8
0
 10
90.544686
 20
217.488639
 42
-0.015288
  0
VERTEX
  8
0
 10
90.326760
 20
219.807010
 42
-0.032919
  0
VERTEX
  8
0
 10
90.331535
 20
221.599870
 42
-0.041827
  0
VERTEX
  8
0
 10
90.528076
 20
222.882210
 42
-0.197908
  0
VERTEX
  8
0
 10
90.955078
 20
223.472236
 42
0.259502
  0
VERTEX
  8
0
 10
91.660942
 20
224.735878
 42
0.005350
  0
VERTEX
  8
0
 10
91.592840
 20
232.231900
 42
0.008160
  0
VERTEX
  8
0
 10
91.330788
 20
239.487014
 42
0.125947
  0
VERTEX
  8
0
 10
90.591398
 20
241.852115
 42
-0.183725
  0
VERTEX
  8
0
 10
90.477921
 20
242.441597
 42
-0.014340
  0
VERTEX
  8
0
 10
90.805050
 20
244.039796
 42
-0.018058
  0
VERTEX
  8
0
 10
91.333070
 20
245.972556
 42
-0.012774
  0
VERTEX
  8
0
 10
92.058639
 20
248.102335
 42
0.042561
  0
VERTEX
  8
0
 10
93.542045
 20
253.486942
 42
0.108188
  0
VERTEX
  8
0
 10
93.413897
 20
257.517140
 42
0.115770
  0
VERTEX
  8
0
 10
91.632006
 20
260.957983
 42
0.052780
  0
VERTEX
  8
0
 10
87.929503
 20
264.455839
 42
0.017028
  0
VERTEX
  8
0
 10
85.504710
 20
266.177678
 42
0.040473
  0
VERTEX
  8
0
 10
83.567889
 20
267.242105
 42
0.055970
  0
VERTEX
  8
0
 10
81.954084
 20
267.758678
 42
0.097015
  0
VERTEX
  8
0
 10
80.551269
 20
267.765050
 42
-0.099172
  0
VERTEX
  8
0
 10
79.141862
 20
267.777473
 42
-0.080329
  0
VERTEX
  8
0
 10
77.727554
 20
268.320870
 42
-0.051394
  0
VERTEX
  8
0
 10
76.070713
 20
269.528479
 42
-0.015561
  0
VERTEX
  8
0
 10
73.820529
 20
271.682868
 42
0.025607
  0
VERTEX
  8
0
 10
71.613118
 20
273.712927
 42
0.032031
  0
VERTEX
  8
0
 10
69.362139
 20
275.348384
 42
0.033778
  0
VERTEX
  8
0
 10
67.029542
 20
276.612877
 42
0.035153
  0
VERTEX
  8
0
 10
64.578307
 20
277.532589
 42
0.049773
  0
VERTEX
  8
0
 10
58.889328
 20
278.622028
 42
0.021302
  0
VERTEX
  8
0
 10
51.148212
 20
278.987279
 42
0.017257
  0
VERTEX
  8
0
 10
43.709703
 20
278.764353
 42
0.135411
  0
SEQEND
  0
ENDSEC
  0
EOF
