  0
SECTION
  2
HEADER
  9
$ACADVER
  1
AC1006
  9
$EXTMIN
 10
0.000000
 20
0.000000
 30
0.000000
  9
$EXTMAX
 10
306.000000
 20
288.000000
 30
0.000000
  0
ENDSEC
  0
SECTION
  2
ENTITIES
  0
POLYLINE
  8
0
 66
1
 70
1
  0
VERTEX
  8
0
 10
248.000000
 20
287.000000
 42
-0.061882
  0
VERTEX
  8
0
 10
247.226629
 20
286.626298
 42
-0.025755
  0
VERTEX
  8
0
 10
246.108812
 20
286.310881
 42
-0.025002
  0
VERTEX
  8
0
 10
244.862482
 20
286.092410
 42
-0.029540
  0
VERTEX
  8
0
 10
243.668297
 20
286.015313
 42
0.075809
  0
VERTEX
  8
0
 10
242.254461
 20
285.791880
 42
0.032111
  0
VERTEX
  8
0
 10
240.461273
 20
285.091686
 42
0.029632
  0
VERTEX
  8
0
 10
238.530296
 20
284.047507
 42
0.026825
  0
VERTEX
  8
0
 10
236.668297
 20
282.750000
 42
-0.006160
  0
VERTEX
  8
0
 10
234.925743
 20
281.425533
 42
-0.006011
  0
VERTEX
  8
0
 10
233.136937
 20
280.133375
 42
-0.005939
  0
VERTEX
  8
0
 10
231.539140
 20
279.036335
 42
-0.022334
  0
VERTEX
  8
0
 10
230.500000
 20
278.406171
 42
0.089188
  0
VERTEX
  8
0
 10
228.174779
 20
276.532091
 42
0.047909
  0
VERTEX
  8
0
 10
226.030956
 20
273.521332
 42
0.045359
  0
VERTEX
  8
0
 10
224.360818
 20
269.902348
 42
0.050848
  0
VERTEX
  8
0
 10
223.448674
 20
266.176737
 42
-0.047508
  0
VERTEX
  8
0
 10
222.843933
 20
263.633455
 42
-0.010082
  0
VERTEX
  8
0
 10
221.286927
 20
259.348791
 42
-0.010465
  0
VERTEX
  8
0
 10
219.270015
 20
254.437198
 42
-0.009774
  0
VERTEX
  8
0
 10
217.004968
 20
249.500000
 42
0.005581
  0
VERTEX
  8
0
 10
214.661261
 20
244.502341
 42
0.005435
  0
VERTEX
  8
0
 10
212.408370
 20
239.409375
 42
0.005370
  0
VERTEX
  8
0
 10
210.525779
 20
234.892128
 42
0.020137
  0
VERTEX
  8
0
 10
209.490152
 20
232.000000
 42
-0.010065
  0
VERTEX
  8
0
 10
208.692860
 20
229.623724
 42
-0.007458
  0
VERTEX
  8
0
 10
207.719978
 20
227.029303
 42
-0.007543
  0
VERTEX
  8
0
 10
206.727553
 20
224.606455
 42
-0.016810
  0
VERTEX
  8
0
 10
205.883571
 20
222.801882
 42
0.019619
  0
VERTEX
  8
0
 10
205.162587
 20
221.237470
 42
0.018664
  0
VERTEX
  8
0
 10
204.553299
 20
219.595376
 42
0.018988
  0
VERTEX
  8
0
 10
204.124753
 20
218.105070
 42
0.060581
  0
VERTEX
  8
0
 10
204.000000
 20
217.079217
 42
-0.095430
  0
VERTEX
  8
0
 10
203.475673
 20
214.357049
 42
-0.016714
  0
VERTEX
  8
0
 10
201.366294
 20
209.556302
 42
-0.017583
  0
VERTEX
  8
0
 10
198.923448
 20
204.893428
 42
-0.079540
  0
VERTEX
  8
0
 10
197.006746
 20
202.506105
 42
-0.130788
  0
VERTEX
  8
0
 10
195.348726
 20
201.652456
 42
-0.135860
  0
VERTEX
  8
0
 10
193.511564
 20
201.753050
 42
-0.074375
  0
VERTEX
  8
0
 10
191.150945
 20
202.961810
 42
-0.018039
  0
VERTEX
  8
0
 10
187.673275
 20
205.648568
 42
0.022442
  0
VERTEX
  8
0
 10
186.486828
 20
206.548621
 42
0.024622
  0
VERTEX
  8
0
 10
185.259659
 20
207.309267
 42
0.025071
  0
VERTEX
  8
0
 10
184.155691
 20
207.850071
 42
0.101694
  0
VERTEX
  8
0
 10
183.426156
 20
208.000000
 42
-0.128717
  0
VERTEX
  8
0
 10
182.646825
 20
208.204006
 42
-0.019017
  0
VERTEX
  8
0
 10
181.247156
 20
209.062306
 42
-0.020389
  0
VERTEX
  8
0
 10
179.639586
 20
210.231662
 42
-0.016266
  0
VERTEX
  8
0
 10
178.002881
 20
211.616362
 42
-0.019802
  0
VERTEX
  8
0
 10
175.800738
 20
213.770205
 42
-0.073046
  0
VERTEX
  8
0
 10
174.687088
 20
215.360018
 42
-0.084430
  0
VERTEX
  8
0
 10
174.161324
 20
217.079369
 42
-0.032086
  0
VERTEX
  8
0
 10
174.000000
 20
219.590682
 42
-0.022252
  0
VERTEX
  8
0
 10
174.107475
 20
222.004464
 42
-0.087615
  0
VERTEX
  8
0
 10
174.494111
 20
223.436085
 42
-0.111028
  0
VERTEX
  8
0
 10
175.294538
 20
224.468042
 42
-0.047311
  0
VERTEX
  8
0
 10
176.750000
 20
225.453948
 42
0.038346
  0
VERTEX
  8
0
 10
181.348967
 20
228.450558
 42
0.129270
  0
VERTEX
  8
0
 10
183.529968
 20
231.263418
 42
0.198246
  0
VERTEX
  8
0
 10
183.560536
 20
234.040433
 42
0.109484
  0
VERTEX
  8
0
 10
181.617601
 20
236.889520
 42
-0.057370
  0
VERTEX
  8
0
 10
180.648111
 20
238.035894
 42
-0.032936
  0
VERTEX
  8
0
 10
179.745166
 20
239.607335
 42
-0.032216
  0
VERTEX
  8
0
 10
179.026570
 20
241.349197
 42
-0.042100
  0
VERTEX
  8
0
 10
178.612619
 20
243.021083
 42
0.098820
  0
VERTEX
  8
0
 10
176.086712
 20
249.823106
 42
0.071228
  0
VERTEX
  8
0
 10
170.889718
 20
256.058976
 42
0.072466
  0
VERTEX
  8
0
 10
164.264235
 20
260.486676
 42
0.111570
  0
VERTEX
  8
0
 10
157.566691
 20
262.000000
 42
0.051801
  0
VERTEX
  8
0
 10
152.932257
 20
261.518573
 42
0.045356
  0
VERTEX
  8
0
 10
148.274301
 20
260.089593
 42
0.045875
  0
VERTEX
  8
0
 10
144.005937
 20
257.867426
 42
0.056463
  0
VERTEX
  8
0
 10
140.529608
 20
255.030321
 42
-0.023578
  0
VERTEX
  8
0
 10
138.767005
 20
253.387779
 42
-0.032844
  0
VERTEX
  8
0
 10
137.034518
 20
252.105006
 42
-0.037520
  0
VERTEX
  8
0
 10
135.472601
 20
251.258459
 42
-0.105810
  0
VERTEX
  8
0
 10
134.264934
 20
251.000000
 42
0.072177
  0
VERTEX
  8
0
 10
131.452871
 20
250.591941
 42
0.041807
  0
VERTEX
  8
0
 10
128.264584
 20
249.348807
 42
0.037726
  0
VERTEX
  8
0
 10
124.949999
 20
247.403365
 42
0.031559
  0
VERTEX
  8
0
 10
121.750007
 20
244.871957
 42
0.000000
  0
VERTEX
  8
0
 10
118.000014
 20
241.500000
 42
0.000000
  0
VERTEX
  8
0
 10
118.959266
 20
235.000887
 42
-0.013967
  0
VERTEX
  8
0
 10
119.419840
 20
231.135908
 42
-0.053040
  0
VERTEX
  8
0
 10
119.382665
 20
228.707624
 42
-0.058063
  0
VERTEX
  8
0
 10
118.837393
 20
226.452959
 42
-0.019015
  0
VERTEX
  8
0
 10
117.531620
 20
223.288100
 42
-0.019525
  0
VERTEX
  8
0
 10
116.240915
 20
220.736933
 42
-0.051785
  0
VERTEX
  8
0
 10
115.070127
 20
219.064996
 42
-0.071975
  0
VERTEX
  8
0
 10
113.845095
 20
218.006242
 42
-0.080954
  0
VERTEX
  8
0
 10
112.416769
 20
217.389754
 42
-0.117350
  0
VERTEX
  8
0
 10
110.228288
 20
217.362895
 42
-0.149927
  0
VERTEX
  8
0
 10
108.486060
 20
218.358109
 42
-0.123016
  0
VERTEX
  8
0
 10
107.373285
 20
220.350476
 42
-0.066236
  0
VERTEX
  8
0
 10
107.000000
 20
223.155946
 42
0.053651
  0
VERTEX
  8
0
 10
106.866904
 20
224.392749
 42
0.066433
  0
VERTEX
  8
0
 10
106.473259
 20
225.481029
 42
0.071563
  0
VERTEX
  8
0
 10
105.839258
 20
226.364185
 42
0.078634
  0
VERTEX
  8
0
 10
105.000000
 20
227.000000
 42
-0.046731
  0
VERTEX
  8
0
 10
104.234909
 20
227.506520
 42
-0.048486
  0
VERTEX
  8
0
 10
103.587500
 20
228.140709
 42
-0.053428
  0
VERTEX
  8
0
 10
103.143337
 20
228.801129
 42
-0.121926
  0
VERTEX
  8
0
 10
103.000000
 20
229.380196
 42
0.185137
  0
VERTEX
  8
0
 10
102.301143
 20
231.202913
 42
0.044538
  0
VERTEX
  8
0
 10
99.889596
 20
233.447360
 42
0.035683
  0
VERTEX
  8
0
 10
96.208677
 20
235.907532
 42
0.018601
  0
VERTEX
  8
0
 10
91.312186
 20
238.460684
 42
0.075012
  0
VERTEX
  8
0
 10
88.444708
 20
239.327939
 42
0.065618
  0
VERTEX
  8
0
 10
85.310154
 20
239.368396
 42
0.054946
  0
VERTEX
  8
0
 10
81.797862
 20
238.553701
 42
0.031526
  0
VERTEX
  8
0
 10
77.789838
 20
236.855646
 42
-0.015571
  0
VERTEX
  8
0
 10
76.251708
 20
236.145326
 42
-0.016393
  0
VERTEX
  8
0
 10
74.698227
 20
235.545096
 42
-0.016241
  0
VERTEX
  8
0
 10
73.329102
 20
235.116400
 42
-0.067846
  0
VERTEX
  8
0
 10
72.475220
 20
235.000000
 42
0.066471
  0
VERTEX
  8
0
 10
71.570169
 20
234.879147
 42
0.011717
  0
VERTEX
  8
0
 10
69.923014
 20
234.389538
 42
0.012512
  0
VERTEX
  8
0
 10
68.007082
 20
233.717435
 42
0.010963
  0
VERTEX
  8
0
 10
66.039927
 20
232.921830
 42
0.062144
  0
VERTEX
  8
0
 10
61.711887
 20
230.383722
 42
0.057493
  0
VERTEX
  8
0
 10
58.011825
 20
226.800398
 42
0.058806
  0
VERTEX
  8
0
 10
55.298080
 20
222.558077
 42
0.072127
  0
VERTEX
  8
0
 10
53.875137
 20
218.079086
 42
0.035059
  0
VERTEX
  8
0
 10
53.008465
 20
208.838457
 42
0.090934
  0
VERTEX
  8
0
 10
54.056357
 20
202.259033
 42
0.133974
  0
VERTEX
  8
0
 10
57.003797
 20
198.002781
 42
0.126550
  0
VERTEX
  8
0
 10
61.767242
 20
195.719368
 42
-0.060844
  0
VERTEX
  8
0
 10
64.613817
 20
194.786212
 42
-0.094738
  0
VERTEX
  8
0
 10
66.698017
 20
193.275420
 42
-0.123549
  0
VERTEX
  8
0
 10
67.732120
 20
191.421487
 42
-0.158651
  0
VERTEX
  8
0
 10
67.631743
 20
189.482720
 42
-0.139809
  0
VERTEX
  8
0
 10
66.429296
 20
187.881875
 42
-0.004019
  0
VERTEX
  8
0
 10
59.525657
 20
182.734135
 42
-0.008915
  0
VERTEX
  8
0
 10
52.166929
 20
177.537697
 42
-0.012813
  0
VERTEX
  8
0
 10
45.456562
 20
173.223351
 42
0.023233
  0
VERTEX
  8
0
 10
43.187165
 20
171.696532
 42
0.017346
  0
VERTEX
  8
0
 10
40.829247
 20
169.815483
 42
0.017623
  0
VERTEX
  8
0
 10
38.727512
 20
167.883637
 42
0.037719
  0
VERTEX
  8
0
 10
37.280565
 20
166.223351
 42
-0.004171
  0
VERTEX
  8
0
 10
36.121916
 20
164.698548
 42
-0.004193
  0
VERTEX
  8
0
 10
34.939939
 20
163.195900
 42
-0.004096
  0
VERTEX
  8
0
 10
33.887807
 20
161.903019
 42
-0.016760
  0
VERTEX
  8
0
 10
33.217099
 20
161.145670
 42
0.065441
  0
VERTEX
  8
0
 10
31.289764
 20
158.489045
 42
0.026384
  0
VERTEX
  8
0
 10
29.360252
 20
154.434491
 42
0.023193
  0
VERTEX
  8
0
 10
27.543042
 20
149.378487
 42
0.016372
  0
VERTEX
  8
0
 10
25.956254
 20
143.552649
 42
-0.006090
  0
VERTEX
  8
0
 10
25.006418
 20
139.759446
 42
-0.003795
  0
VERTEX
  8
0
 10
23.805280
 20
135.335740
 42
-0.003808
  0
VERTEX
  8
0
 10
22.554443
 20
130.991331
 42
-0.006894
  0
VERTEX
  8
0
 10
21.454910
 20
127.458620
 42
0.004662
  0
VERTEX
  8
0
 10
20.355351
 20
123.980623
 42
0.002766
  0
VERTEX
  8
0
 10
19.106354
 20
119.815661
 42
0.002768
  0
VERTEX
  8
0
 10
17.906488
 20
115.647403
 42
0.004766
  0
VERTEX
  8
0
 10
16.959740
 20
112.161735
 42
-0.005951
  0
VERTEX
  8
0
 10
14.535067
 20
103.317678
 42
-0.011060
  0
VERTEX
  8
0
 10
12.325866
 20
96.216281
 42
-0.012351
  0
VERTEX
  8
0
 10
10.362469
 20
90.811071
 42
-0.055820
  0
VERTEX
  8
0
 10
8.801072
 20
87.845630
 42
0.015066
  0
VERTEX
  8
0
 10
8.111527
 20
86.760412
 42
0.017869
  0
VERTEX
  8
0
 10
7.529065
 20
85.694667
 42
0.016896
  0
VERTEX
  8
0
 10
7.104570
 20
84.770667
 42
0.099542
  0
VERTEX
  8
0
 10
7.000000
 20
84.250617
 42
-0.132532
  0
VERTEX
  8
0
 10
6.869894
 20
83.768391
 42
-0.027418
  0
VERTEX
  8
0
 10
6.382426
 20
83.027392
 42
-0.027033
  0
VERTEX
  8
0
 10
5.702450
 20
82.204774
 42
-0.022611
  0
VERTEX
  8
0
 10
4.897621
 20
81.407348
 42
0.029552
  0
VERTEX
  8
0
 10
3.991131
 20
80.483925
 42
0.016800
  0
VERTEX
  8
0
 10
3.002264
 20
79.269699
 42
0.016733
  0
VERTEX
  8
0
 10
2.085307
 20
77.975459
 42
0.026429
  0
VERTEX
  8
0
 10
1.397621
 20
76.802020
 42
0.084809
  0
VERTEX
  8
0
 10
0.504398
 20
73.994594
 42
0.021940
  0
VERTEX
  8
0
 10
0.052644
 20
69.251187
 42
0.022050
  0
VERTEX
  8
0
 10
0.019310
 20
64.480178
 42
0.082512
  0
VERTEX
  8
0
 10
0.618031
 20
61.553012
 42
0.172207
  0
VERTEX
  8
0
 10
2.170338
 20
59.737764
 42
0.038160
  0
VERTEX
  8
0
 10
5.917456
 20
57.946288
 42
0.036253
  0
VERTEX
  8
0
 10
10.712694
 20
56.477583
 42
0.031564
  0
VERTEX
  8
0
 10
15.897442
 20
55.632193
 42
0.023229
  0
VERTEX
  8
0
 10
20.472475
 20
55.393733
 42
0.103164
  0
VERTEX
  8
0
 10
23.097107
 20
55.925704
 42
0.183100
  0
VERTEX
  8
0
 10
24.491663
 20
57.271924
 42
0.110659
  0
VERTEX
  8
0
 10
25.000000
 20
59.540657
 42
-0.037718
  0
VERTEX
  8
0
 10
25.152310
 20
61.556820
 42
-0.050067
  0
VERTEX
  8
0
 10
25.608591
 20
63.337425
 42
-0.061039
  0
VERTEX
  8
0
 10
26.257994
 20
64.606953
 42
-0.248971
  0
VERTEX
  8
0
 10
26.998409
 20
65.000000
 42
-0.246378
  0
VERTEX
  8
0
 10
27.389074
 20
64.795056
 42
-0.018520
  0
VERTEX
  8
0
 10
28.054236
 20
63.751562
 42
-0.022208
  0
VERTEX
  8
0
 10
28.779676
 20
62.378462
 42
-0.014862
  0
VERTEX
  8
0
 10
29.491170
 20
60.750000
 42
-0.085445
  0
VERTEX
  8
0
 10
31.061586
 20
53.443714
 42
-0.024257
  0
VERTEX
  8
0
 10
30.976902
 20
41.780811
 42
-0.024494
  0
VERTEX
  8
0
 10
29.752642
 20
30.135467
 42
-0.079889
  0
VERTEX
  8
0
 10
27.371713
 20
22.782792
 42
0.056026
  0
VERTEX
  8
0
 10
26.819837
 20
21.319574
 42
0.017381
  0
VERTEX
  8
0
 10
26.319745
 20
19.018194
 42
0.017139
  0
VERTEX
  8
0
 10
25.935753
 20
16.387481
 42
0.018073
  0
VERTEX
  8
0
 10
25.741277
 20
13.782792
 42
0.000000
  0
VERTEX
  8
0
 10
25.500000
 20
7.500000
 42
0.000000
  0
VERTEX
  8
0
 10
29.487320
 20
7.175487
 42
-0.016147
  0
VERTEX
  8
0
 10
31.088102
 20
6.993017
 42
-0.018543
  0
VERTEX
  8
0
 10
32.600840
 20
6.713255
 42
-0.017940
  0
VERTEX
  8
0
 10
33.855395
 20
6.385113
 42
-0.093480
  0
VERTEX
  8
0
 10
34.487320
 20
6.057632
 42
0.146335
  0
VERTEX
  8
0
 10
36.538629
 20
5.252706
 42
0.003869
  0
VERTEX
  8
0
 10
46.385960
 20
4.506939
 42
0.008923
  0
VERTEX
  8
0
 10
56.601238
 20
3.995710
 42
0.013566
  0
VERTEX
  8
0
 10
65.487735
 20
3.951031
 42
0.012852
  0
VERTEX
  8
0
 10
71.298845
 20
4.229042
 42
0.059360
  0
VERTEX
  8
0
 10
74.597662
 20
4.870612
 42
0.128236
  0
VERTEX
  8
0
 10
76.343446
 20
5.979158
 42
0.189721
  0
VERTEX
  8
0
 10
77.000000
 20
7.647196
 42
-0.237250
  0
VERTEX
  8
0
 10
77.625269
 20
8.890765
 42
-0.066106
  0
VERTEX
  8
0
 10
79.588448
 20
9.981173
 42
-0.053391
  0
VERTEX
  8
0
 10
82.365557
 20
10.744681
 42
-0.040427
  0
VERTEX
  8
0
 10
85.518182
 20
11.000000
 42
0.039743
  0
VERTEX
  8
0
 10
87.399562
 20
11.149781
 42
0.114235
  0
VERTEX
  8
0
 10
88.605221
 20
11.640270
 42
0.101343
  0
VERTEX
  8
0
 10
89.554997
 20
12.649736
 42
0.027477
  0
VERTEX
  8
0
 10
90.608233
 20
14.586842
 42
0.029675
  0
VERTEX
  8
0
 10
91.389524
 20
16.521942
 42
0.053744
  0
VERTEX
  8
0
 10
91.756819
 20
18.187788
 42
0.055152
  0
VERTEX
  8
0
 10
91.755873
 20
19.864128
 42
0.033041
  0
VERTEX
  8
0
 10
91.405151
 20
21.826965
 42
0.108501
  0
VERTEX
  8
0
 10
89.881701
 20
24.909375
 42
0.118190
  0
VERTEX
  8
0
 10
87.245813
 20
26.956465
 42
0.071637
  0
VERTEX
  8
0
 10
82.882513
 20
28.220625
 42
0.019126
  0
VERTEX
  8
0
 10
75.668574
 20
28.949729
 42
-0.031477
  0
VERTEX
  8
0
 10
68.131246
 20
29.899994
 42
-0.198555
  0
VERTEX
  8
0
 10
64.960038
 20
31.979290
 42
-0.171468
  0
VERTEX
  8
0
 10
63.925071
 20
35.888803
 42
-0.022381
  0
VERTEX
  8
0
 10
65.020688
 20
44.566341
 42
-0.009485
  0
VERTEX
  8
0
 10
66.943832
 20
54.602897
 42
-0.019957
  0
VERTEX
  8
0
 10
68.893125
 20
62.294776
 42
-0.020458
  0
VERTEX
  8
0
 10
71.416902
 20
69.686659
 42
-0.010502
  0
VERTEX
  8
0
 10
75.147800
 20
78.739102
 42
0.005178
  0
VERTEX
  8
0
 10
75.857326
 20
80.409931
 42
0.007186
  0
VERTEX
  8
0
 10
76.455916
 20
81.922415
 42
0.004691
  0
VERTEX
  8
0
 10
76.926377
 20
83.198963
 42
0.086141
  0
VERTEX
  8
0
 10
77.000000
 20
83.623131
 42
-0.107509
  0
VERTEX
  8
0
 10
77.098977
 20
84.078133
 42
-0.001995
  0
VERTEX
  8
0
 10
78.131672
 20
86.315803
 42
-0.004804
  0
VERTEX
  8
0
 10
79.376120
 20
88.918687
 42
-0.003182
  0
VERTEX
  8
0
 10
80.852500
 20
91.884030
 42
0.006550
  0
VERTEX
  8
0
 10
82.373953
 20
94.992209
 42
0.007271
  0
VERTEX
  8
0
 10
83.759805
 20
98.033477
 42
0.006793
  0
VERTEX
  8
0
 10
84.867789
 20
100.658198
 42
0.037129
  0
VERTEX
  8
0
 10
85.339815
 20
102.123551
 42
-0.035562
  0
VERTEX
  8
0
 10
85.710425
 20
103.286527
 42
-0.020977
  0
VERTEX
  8
0
 10
86.307268
 20
104.617514
 42
-0.020921
  0
VERTEX
  8
0
 10
87.018617
 20
105.903309
 42
-0.033387
  0
VERTEX
  8
0
 10
87.741830
 20
106.929501
 42
0.000000
  0
VERTEX
  8
0
 10
89.509028
 20
109.111899
 42
0.000000
  0
VERTEX
  8
0
 10
96.504514
 20
106.905978
 42
-0.006414
  0
VERTEX
  8
0
 10
99.512272
 20
105.914930
 42
-0.004949
  0
VERTEX
  8
0
 10
102.766951
 20
104.759891
 42
-0.005006
  0
VERTEX
  8
0
 10
105.786405
 20
103.620154
 42
-0.011925
  0
VERTEX
  8
0
 10
108.000000
 20
102.697827
 42
0.010871
  0
VERTEX
  8
0
 10
109.942684
 20
101.883571
 42
0.008811
  0
VERTEX
  8
0
 10
112.059375
 20
101.092796
 42
0.008923
  0
VERTEX
  8
0
 10
114.037592
 20
100.432697
 42
0.022712
  0
VERTEX
  8
0
 10
115.500000
 20
100.045537
 42
-0.033783
  0
VERTEX
  8
0
 10
117.189804
 20
99.557930
 42
-0.161132
  0
VERTEX
  8
0
 10
117.968030
 20
98.943926
 42
-0.143323
  0
VERTEX
  8
0
 10
118.275727
 20
97.944223
 42
-0.024880
  0
VERTEX
  8
0
 10
118.204081
 20
95.947739
 42
0.013804
  0
VERTEX
  8
0
 10
118.088326
 20
93.954703
 42
0.002414
  0
VERTEX
  8
0
 10
117.992108
 20
90.194450
 42
0.002618
  0
VERTEX
  8
0
 10
117.923612
 20
85.781264
 42
0.002346
  0
VERTEX
  8
0
 10
117.898018
 20
81.203581
 42
0.000000
  0
VERTEX
  8
0
 10
117.887874
 20
69.907161
 42
0.000000
  0
VERTEX
  8
0
 10
120.943937
 20
67.052371
 42
-0.015555
  0
VERTEX
  8
0
 10
122.114291
 20
65.888856
 42
-0.020495
  0
VERTEX
  8
0
 10
123.102281
 20
64.753797
 42
-0.018409
  0
VERTEX
  8
0
 10
123.835905
 20
63.765247
 42
-0.151551
  0
VERTEX
  8
0
 10
124.000000
 20
63.236295
 42
0.130940
  0
VERTEX
  8
0
 10
124.151055
 20
62.669377
 42
0.012081
  0
VERTEX
  8
0
 10
124.911186
 20
61.415432
 42
0.014927
  0
VERTEX
  8
0
 10
125.913876
 20
59.946568
 42
0.011162
  0
VERTEX
  8
0
 10
127.101908
 20
58.387505
 42
-0.021596
  0
VERTEX
  8
0
 10
128.784991
 20
56.080488
 42
-0.072604
  0
VERTEX
  8
0
 10
129.582737
 20
54.395351
 42
-0.077295
  0
VERTEX
  8
0
 10
129.839633
 20
52.609934
 42
-0.026644
  0
VERTEX
  8
0
 10
129.670653
 20
50.000000
 42
-0.033465
  0
VERTEX
  8
0
 10
129.252071
 20
47.761234
 42
-0.011816
  0
VERTEX
  8
0
 10
128.364163
 20
44.618750
 42
-0.011669
  0
VERTEX
  8
0
 10
127.222829
 20
41.201452
 42
-0.013435
  0
VERTEX
  8
0
 10
125.971725
 20
38.000000
 42
0.017278
  0
VERTEX
  8
0
 10
123.414170
 20
31.304175
 42
0.029114
  0
VERTEX
  8
0
 10
121.798626
 20
25.514071
 42
0.032162
  0
VERTEX
  8
0
 10
120.968854
 20
20.008394
 42
0.028353
  0
VERTEX
  8
0
 10
120.802814
 20
14.203141
 42
0.022043
  0
VERTEX
  8
0
 10
121.129426
 20
9.685849
 42
0.058588
  0
VERTEX
  8
0
 10
121.876090
 20
6.543663
 42
0.097941
  0
VERTEX
  8
0
 10
123.014688
 20
4.668100
 42
0.210513
  0
VERTEX
  8
0
 10
124.531202
 20
4.000000
 42
-0.060838
  0
VERTEX
  8
0
 10
125.415235
 20
3.892036
 42
-0.007169
  0
VERTEX
  8
0
 10
127.335379
 20
3.386602
 42
-0.008496
  0
VERTEX
  8
0
 10
129.608560
 20
2.711432
 42
-0.006866
  0
VERTEX
  8
0
 10
132.025953
 20
1.911838
 42
0.055788
  0
VERTEX
  8
0
 10
138.338625
 20
0.488867
 42
0.036612
  0
VERTEX
  8
0
 10
145.794050
 20
0.212464
 42
0.036855
  0
VERTEX
  8
0
 10
153.114262
 20
1.019551
 42
0.061951
  0
VERTEX
  8
0
 10
159.000000
 20
2.886964
 42
-0.033268
  0
VERTEX
  8
0
 10
161.532618
 20
3.853178
 42
-0.031814
  0
VERTEX
  8
0
 10
164.208920
 20
4.492098
 42
-0.027182
  0
VERTEX
  8
0
 10
167.302902
 20
4.853840
 42
-0.014791
  0
VERTEX
  8
0
 10
171.127876
 20
4.978038
 42
0.027690
  0
VERTEX
  8
0
 10
176.997900
 20
5.320321
 42
0.051152
  0
VERTEX
  8
0
 10
181.661156
 20
6.342684
 42
0.065307
  0
VERTEX
  8
0
 10
185.160407
 20
8.026399
 42
0.103331
  0
VERTEX
  8
0
 10
187.506933
 20
10.370237
 42
0.196324
  0
VERTEX
  8
0
 10
188.269600
 20
14.286777
 42
0.173469
  0
VERTEX
  8
0
 10
186.124478
 20
17.874211
 42
0.094187
  0
VERTEX
  8
0
 10
180.689789
 20
20.847021
 42
0.035452
  0
VERTEX
  8
0
 10
172.235161
 20
22.932584
 42
-0.013589
  0
VERTEX
  8
0
 10
169.010081
 20
23.580135
 42
-0.029470
  0
VERTEX
  8
0
 10
166.584941
 20
24.288670
 42
-0.037411
  0
VERTEX
  8
0
 10
164.885881
 20
25.043273
 42
-0.148298
  0
VERTEX
  8
0
 10
164.088561
 20
25.843469
 42
-0.058371
  0
VERTEX
  8
0
 10
163.674671
 20
26.902590
 42
-0.007191
  0
VERTEX
  8
0
 10
163.079878
 20
29.316945
 42
-0.008422
  0
VERTEX
  8
0
 10
162.460587
 20
32.217898
 42
-0.006870
  0
VERTEX
  8
0
 10
161.892961
 20
35.341874
 42
-0.007868
  0
VERTEX
  8
0
 10
161.138071
 20
40.327792
 42
-0.056560
  0
VERTEX
  8
0
 10
161.085782
 20
42.756361
 42
-0.077430
  0
VERTEX
  8
0
 10
161.603007
 20
44.816115
 42
-0.021349
  0
VERTEX
  8
0
 10
163.039561
 20
47.841874
 42
-0.029528
  0
VERTEX
  8
0
 10
164.340607
 20
49.987972
 42
-0.038296
  0
VERTEX
  8
0
 10
165.787916
 20
51.775580
 42
-0.041539
  0
VERTEX
  8
0
 10
167.379044
 20
53.201293
 42
-0.048223
  0
VERTEX
  8
0
 10
169.110089
 20
54.265515
 42
0.036070
  0
VERTEX
  8
0
 10
170.842616
 20
55.273567
 42
0.013179
  0
VERTEX
  8
0
 10
173.143713
 20
56.935255
 42
0.012986
  0
VERTEX
  8
0
 10
175.573178
 20
58.890846
 42
0.015162
  0
VERTEX
  8
0
 10
177.772090
 20
60.874758
 42
-0.007886
  0
VERTEX
  8
0
 10
179.812426
 20
62.770170
 42
-0.009897
  0
VERTEX
  8
0
 10
181.764910
 20
64.458693
 42
-0.008277
  0
VERTEX
  8
0
 10
183.445601
 20
65.808601
 42
-0.073562
  0
VERTEX
  8
0
 10
184.270491
 20
66.273556
 42
0.159748
  0
VERTEX
  8
0
 10
184.873301
 20
66.764249
 42
0.038517
  0
VERTEX
  8
0
 10
185.491529
 20
67.912897
 42
0.035678
  0
VERTEX
  8
0
 10
186.029780
 20
69.408608
 42
0.028894
  0
VERTEX
  8
0
 10
186.395975
 20
71.074831
 42
-0.039751
  0
VERTEX
  8
0
 10
186.867020
 20
73.016287
 42
-0.020394
  0
VERTEX
  8
0
 10
187.745755
 20
75.363163
 42
-0.020133
  0
VERTEX
  8
0
 10
188.853241
 20
77.719819
 42
-0.028534
  0
VERTEX
  8
0
 10
190.037486
 20
79.710650
 42
0.026403
  0
VERTEX
  8
0
 10
191.283733
 20
81.785552
 42
0.031866
  0
VERTEX
  8
0
 10
192.219546
 20
83.856685
 42
0.035027
  0
VERTEX
  8
0
 10
192.806629
 20
85.819418
 42
0.055211
  0
VERTEX
  8
0
 10
193.000000
 20
87.565281
 42
-0.058275
  0
VERTEX
  8
0
 10
193.204473
 20
89.313712
 42
-0.024736
  0
VERTEX
  8
0
 10
193.862757
 20
91.583314
 42
-0.023232
  0
VERTEX
  8
0
 10
194.844652
 20
94.054444
 42
-0.022287
  0
VERTEX
  8
0
 10
196.063906
 20
96.459241
 42
-0.022087
  0
VERTEX
  8
0
 10
198.322092
 20
100.077390
 42
-0.180109
  0
VERTEX
  8
0
 10
199.890761
 20
101.179050
 42
-0.192016
  0
VERTEX
  8
0
 10
201.742144
 20
100.949138
 42
-0.025627
  0
VERTEX
  8
0
 10
205.154370
 20
98.837275
 42
0.056297
  0
VERTEX
  8
0
 10
206.653840
 20
98.031734
 42
0.039048
  0
VERTEX
  8
0
 10
208.492260
 20
97.458115
 42
0.033758
  0
VERTEX
  8
0
 10
210.672002
 20
97.113282
 42
0.022356
  0
VERTEX
  8
0
 10
213.204370
 20
97.000000
 42
-0.015601
  0
VERTEX
  8
0
 10
215.340010
 20
96.933348
 42
-0.020059
  0
VERTEX
  8
0
 10
217.294096
 20
96.732328
 42
-0.018282
  0
VERTEX
  8
0
 10
218.883405
 20
96.444464
 42
-0.138074
  0
VERTEX
  8
0
 10
219.550000
 20
96.088777
 42
0.172187
  0
VERTEX
  8
0
 10
220.267426
 20
95.765346
 42
0.025613
  0
VERTEX
  8
0
 10
221.877185
 20
95.714958
 42
0.024447
  0
VERTEX
  8
0
 10
223.970623
 20
95.859227
 42
0.014043
  0
VERTEX
  8
0
 10
226.473863
 20
96.226737
 42
0.048669
  0
VERTEX
  8
0
 10
230.961123
 20
97.474020
 42
0.072563
  0
VERTEX
  8
0
 10
234.504144
 20
99.470986
 42
0.027457
  0
VERTEX
  8
0
 10
239.210505
 20
103.541049
 42
0.001869
  0
VERTEX
  8
0
 10
251.885395
 20
115.872442
 42
0.005330
  0
VERTEX
  8
0
 10
259.921724
 20
123.919430
 42
0.026797
  0
VERTEX
  8
0
 10
264.117335
 20
128.698337
 42
0.050133
  0
VERTEX
  8
0
 10
266.300942
 20
132.129691
 42
0.117170
  0
VERTEX
  8
0
 10
267.000000
 20
135.071835
 42
-0.047061
  0
VERTEX
  8
0
 10
267.105075
 20
136.185728
 42
-0.041160
  0
VERTEX
  8
0
 10
267.417662
 20
137.313527
 42
-0.043304
  0
VERTEX
  8
0
 10
267.876524
 20
138.290226
 42
-0.088307
  0
VERTEX
  8
0
 10
268.421828
 20
138.935123
 42
0.093328
  0
VERTEX
  8
0
 10
269.013780
 20
139.649499
 42
0.029127
  0
VERTEX
  8
0
 10
269.618795
 20
140.909686
 42
0.027977
  0
VERTEX
  8
0
 10
270.144068
 20
142.426256
 42
0.027536
  0
VERTEX
  8
0
 10
270.500000
 20
144.000000
 42
-0.027536
  0
VERTEX
  8
0
 10
270.855932
 20
145.573744
 42
-0.027977
  0
VERTEX
  8
0
 10
271.381205
 20
147.090314
 42
-0.029127
  0
VERTEX
  8
0
 10
271.986220
 20
148.350501
 42
-0.093328
  0
VERTEX
  8
0
 10
272.578172
 20
149.064877
 42
0.062650
  0
VERTEX
  8
0
 10
273.122407
 20
149.645645
 42
0.044213
  0
VERTEX
  8
0
 10
273.582338
 20
150.413919
 42
0.044559
  0
VERTEX
  8
0
 10
273.895828
 20
151.241743
 42
0.068342
  0
VERTEX
  8
0
 10
274.000000
 20
152.000321
 42
-0.052486
  0
VERTEX
  8
0
 10
274.095374
 20
152.906373
 42
-0.015392
  0
VERTEX
  8
0
 10
274.429177
 20
154.267259
 42
-0.015277
  0
VERTEX
  8
0
 10
274.901765
 20
155.784954
 42
-0.015841
  0
VERTEX
  8
0
 10
275.461027
 20
157.252482
 42
0.035211
  0
VERTEX
  8
0
 10
276.805619
 20
161.237901
 42
0.005706
  0
VERTEX
  8
0
 10
278.778917
 20
169.178254
 42
0.006716
  0
VERTEX
  8
0
 10
280.609668
 20
177.413994
 42
0.016665
  0
VERTEX
  8
0
 10
281.666772
 20
183.500000
 42
-0.020371
  0
VERTEX
  8
0
 10
281.962862
 20
185.132815
 42
-0.020547
  0
VERTEX
  8
0
 10
282.390190
 20
186.731374
 42
-0.020866
  0
VERTEX
  8
0
 10
282.876512
 20
188.088772
 42
-0.073911
  0
VERTEX
  8
0
 10
283.345635
 20
188.883399
 42
0.131107
  0
VERTEX
  8
0
 10
283.801731
 20
189.904353
 42
0.010880
  0
VERTEX
  8
0
 10
284.203784
 20
192.806775
 42
0.013803
  0
VERTEX
  8
0
 10
284.519287
 20
196.371218
 42
0.009783
  0
VERTEX
  8
0
 10
284.684338
 20
200.383399
 42
-0.007630
  0
VERTEX
  8
0
 10
284.850639
 20
204.899412
 42
-0.004928
  0
VERTEX
  8
0
 10
285.174515
 20
210.123004
 42
-0.004953
  0
VERTEX
  8
0
 10
285.592142
 20
215.224348
 42
-0.009315
  0
VERTEX
  8
0
 10
286.046862
 20
219.333210
 42
0.010807
  0
VERTEX
  8
0
 10
286.437885
 20
222.965589
 42
0.011136
  0
VERTEX
  8
0
 10
286.666873
 20
226.575347
 42
0.010922
  0
VERTEX
  8
0
 10
286.727153
 20
229.708578
 42
0.045742
  0
VERTEX
  8
0
 10
286.550368
 20
231.583210
 42
-0.017074
  0
VERTEX
  8
0
 10
286.216981
 20
233.769843
 42
-0.210539
  0
VERTEX
  8
0
 10
286.458624
 20
234.556967
 42
-0.201611
  0
VERTEX
  8
0
 10
287.208772
 20
234.928653
 42
-0.015536
  0
VERTEX
  8
0
 10
289.504347
 20
235.000000
 42
0.055330
  0
VERTEX
  8
0
 10
293.260279
 20
235.416910
 42
0.082980
  0
VERTEX
  8
0
 10
296.308963
 20
236.658258
 42
0.105311
  0
VERTEX
  8
0
 10
298.288985
 20
238.548126
 42
0.150839
  0
VERTEX
  8
0
 10
299.000000
 20
240.851366
 42
-0.064251
  0
VERTEX
  8
0
 10
299.164681
 20
242.127616
 42
-0.045592
  0
VERTEX
  8
0
 10
299.657179
 20
243.486201
 42
-0.044269
  0
VERTEX
  8
0
 10
300.410048
 20
244.778909
 42
-0.050230
  0
VERTEX
  8
0
 10
301.351395
 20
245.860393
 42
0.072711
  0
VERTEX
  8
0
 10
303.810909
 20
248.955670
 42
0.078713
  0
VERTEX
  8
0
 10
305.199554
 20
252.544719
 42
0.072795
  0
VERTEX
  8
0
 10
305.472035
 20
256.621582
 42
0.051123
  0
VERTEX
  8
0
 10
304.643970
 20
261.152756
 42
0.080868
  0
VERTEX
  8
0
 10
301.808762
 20
267.108584
 42
0.095163
  0
VERTEX
  8
0
 10
297.353318
 20
271.475463
 42
0.087888
  0
VERTEX
  8
0
 10
291.292854
 20
274.111540
 42
0.058806
  0
VERTEX
  8
0
 10
283.764809
 20
275.000000
 42
-0.010401
  0
VERTEX
  8
0
 10
281.168972
 20
275.054006
 42
-0.017078
  0
VERTEX
  8
0
 10
278.977880
 20
275.220312
 42
-0.011114
  0
VERTEX
  8
0
 10
277.234696
 20
275.451997
 42
-0.357771
  0
VERTEX
  8
0
 10
276.968399
 20
275.750000
 42
0.131197
  0
VERTEX
  8
0
 10
276.832417
 20
276.184944
 42
0.012547
  0
VERTEX
  8
0
 10
276.209649
 20
277.117063
 42
0.015315
  0
VERTEX
  8
0
 10
275.392269
 20
278.204121
 42
0.011498
  0
VERTEX
  8
0
 10
274.429797
 20
279.350640
 42
0.053885
  0
VERTEX
  8
0
 10
272.825004
 20
280.821223
 42
0.053915
  0
VERTEX
  8
0
 10
270.943340
 20
281.914628
 42
0.039846
  0
VERTEX
  8
0
 10
268.416405
 20
282.805713
 42
0.014444
  0
VERTEX
  8
0
 10
264.711399
 20
283.675110
 42
-0.011675
  0
VERTEX
  8
0
 10
261.788143
 20
284.344008
 42
-0.012527
  0
VERTEX
  8
0
 10
258.967746
 20
285.134751
 42
-0.012142
  0
VERTEX
  8
0
 10
256.584568
 20
285.931617
 42
-0.056289
  0
VERTEX
  8
0
 10
255.285183
 20
286.574469
 42
0.054791
  0
VERTEX
  8
0
 10
253.371661
 20
287.528280
 42
0.073782
  0
VERTEX
  8
0
 10
251.479503
 20
287.922967
 42
0.079770
  0
VERTEX
  8
0
 10
249.670784
 20
287.739920
 42
0.078579
  0
SEQEND
  0
ENDSEC
  0
EOF
