  0
SECTION
  2
HEADER
  9
$ACADVER
  1
AC1006
  9
$EXTMIN
 10
0.000000
 20
0.000000
 30
0.000000
  9
$EXTMAX
 10
290.000000
 20
257.000000
 30
0.000000
  0
ENDSEC
  0
SECTION
  2
ENTITIES
  0
POLYLINE
  8
0
 66
1
 70
1
  0
VERTEX
  8
0
 10
231.328737
 20
255.542239
 42
0.036672
  0
VERTEX
  8
0
 10
230.033362
 20
254.861889
 42
0.030415
  0
VERTEX
  8
0
 10
228.763446
 20
253.959617
 42
0.031463
  0
VERTEX
  8
0
 10
227.698384
 20
252.984279
 42
0.068869
  0
VERTEX
  8
0
 10
227.049093
 20
252.091731
 42
-0.058685
  0
VERTEX
  8
0
 10
226.422674
 20
251.192845
 42
-0.028463
  0
VERTEX
  8
0
 10
225.433369
 20
250.198342
 42
-0.027763
  0
VERTEX
  8
0
 10
224.272075
 20
249.267678
 42
-0.035723
  0
VERTEX
  8
0
 10
223.105209
 20
248.554405
 42
0.052157
  0
VERTEX
  8
0
 10
221.722492
 20
247.645586
 42
0.077333
  0
VERTEX
  8
0
 10
220.756494
 20
246.567784
 42
0.069789
  0
VERTEX
  8
0
 10
220.100355
 20
245.163282
 42
0.034795
  0
VERTEX
  8
0
 10
219.655555
 20
243.247419
 42
-0.085296
  0
VERTEX
  8
0
 10
218.685596
 20
240.403992
 42
-0.070134
  0
VERTEX
  8
0
 10
216.770419
 20
237.826138
 42
-0.055307
  0
VERTEX
  8
0
 10
213.776701
 20
235.398825
 42
-0.027771
  0
VERTEX
  8
0
 10
209.535489
 20
232.997063
 42
0.042388
  0
VERTEX
  8
0
 10
208.063368
 20
232.105677
 42
0.080936
  0
VERTEX
  8
0
 10
207.093408
 20
231.125363
 42
0.083368
  0
VERTEX
  8
0
 10
206.502288
 20
229.908548
 42
0.047365
  0
VERTEX
  8
0
 10
206.190384
 20
228.297242
 42
0.047205
  0
VERTEX
  8
0
 10
206.186385
 20
226.486954
 42
0.116797
  0
VERTEX
  8
0
 10
206.607013
 20
225.237243
 42
0.090699
  0
VERTEX
  8
0
 10
207.620260
 20
224.123338
 42
0.021445
  0
VERTEX
  8
0
 10
209.690384
 20
222.679886
 42
-0.028500
  0
VERTEX
  8
0
 10
213.638425
 20
219.843444
 42
-0.079765
  0
VERTEX
  8
0
 10
215.907768
 20
217.315899
 42
-0.086954
  0
VERTEX
  8
0
 10
217.163421
 20
214.337365
 42
-0.038339
  0
VERTEX
  8
0
 10
217.799431
 20
210.096082
 42
-0.043000
  0
VERTEX
  8
0
 10
217.728466
 20
204.931000
 42
-0.020316
  0
VERTEX
  8
0
 10
216.795580
 20
198.326051
 42
-0.020255
  0
VERTEX
  8
0
 10
215.288103
 20
191.630205
 42
-0.032978
  0
VERTEX
  8
0
 10
213.412627
 20
186.116676
 42
-0.071720
  0
VERTEX
  8
0
 10
210.939282
 20
181.962376
 42
-0.027397
  0
VERTEX
  8
0
 10
206.414255
 20
176.956444
 42
-0.027639
  0
VERTEX
  8
0
 10
201.229946
 20
172.356285
 42
-0.054011
  0
VERTEX
  8
0
 10
196.562847
 20
169.413411
 42
-0.050902
  0
VERTEX
  8
0
 10
192.423490
 20
167.888565
 42
-0.039974
  0
VERTEX
  8
0
 10
187.708694
 20
167.072778
 42
-0.041323
  0
VERTEX
  8
0
 10
183.309039
 20
167.033947
 42
-0.103343
  0
VERTEX
  8
0
 10
180.236431
 20
167.916585
 42
0.015463
  0
VERTEX
  8
0
 10
179.345896
 20
168.352002
 42
0.005425
  0
VERTEX
  8
0
 10
178.041536
 20
168.923552
 42
0.005380
  0
VERTEX
  8
0
 10
176.592500
 20
169.521518
 42
0.006271
  0
VERTEX
  8
0
 10
175.202842
 20
170.057439
 42
-0.050060
  0
VERTEX
  8
0
 10
173.836746
 20
170.726748
 42
-0.035852
  0
VERTEX
  8
0
 10
172.458569
 20
171.725866
 42
-0.036405
  0
VERTEX
  8
0
 10
171.271697
 20
172.880731
 42
-0.062340
  0
VERTEX
  8
0
 10
170.490689
 20
174.018005
 42
-0.049272
  0
VERTEX
  8
0
 10
168.394646
 20
179.284394
 42
-0.021747
  0
VERTEX
  8
0
 10
166.634830
 20
186.575570
 42
-0.020020
  0
VERTEX
  8
0
 10
165.327443
 20
195.036280
 42
-0.017285
  0
VERTEX
  8
0
 10
164.620444
 20
204.000000
 42
0.005635
  0
VERTEX
  8
0
 10
164.104098
 20
213.308425
 42
0.018795
  0
VERTEX
  8
0
 10
163.467135
 20
219.395056
 42
0.028605
  0
VERTEX
  8
0
 10
162.599093
 20
223.698218
 42
0.056246
  0
VERTEX
  8
0
 10
161.342757
 20
226.950655
 42
-0.015139
  0
VERTEX
  8
0
 10
160.833018
 20
228.003968
 42
-0.016308
  0
VERTEX
  8
0
 10
160.401327
 20
229.060693
 42
-0.016025
  0
VERTEX
  8
0
 10
160.090828
 20
229.987810
 42
-0.071439
  0
VERTEX
  8
0
 10
160.006161
 20
230.553833
 42
0.146429
  0
VERTEX
  8
0
 10
159.828544
 20
231.134936
 42
0.018149
  0
VERTEX
  8
0
 10
159.047122
 20
232.220933
 42
0.020168
  0
VERTEX
  8
0
 10
157.995045
 20
233.469126
 42
0.015423
  0
VERTEX
  8
0
 10
156.750000
 20
234.749216
 42
0.038555
  0
VERTEX
  8
0
 10
154.694602
 20
236.450316
 42
0.064120
  0
VERTEX
  8
0
 10
152.709739
 20
237.499410
 42
0.046729
  0
VERTEX
  8
0
 10
150.112989
 20
238.203479
 42
0.012108
  0
VERTEX
  8
0
 10
145.822133
 20
238.839539
 42
0.026233
  0
VERTEX
  8
0
 10
138.634253
 20
239.347092
 42
0.065933
  0
VERTEX
  8
0
 10
133.426367
 20
238.752740
 42
0.081554
  0
VERTEX
  8
0
 10
129.233961
 20
236.940262
 42
0.059368
  0
VERTEX
  8
0
 10
125.307729
 20
233.703738
 42
0.040820
  0
VERTEX
  8
0
 10
122.251647
 20
229.933831
 42
0.048965
  0
VERTEX
  8
0
 10
120.055920
 20
225.931303
 42
0.044548
  0
VERTEX
  8
0
 10
118.538820
 20
221.273360
 42
0.026206
  0
VERTEX
  8
0
 10
117.527394
 20
215.500000
 42
-0.017018
  0
VERTEX
  8
0
 10
116.785114
 20
210.751410
 42
-0.068976
  0
VERTEX
  8
0
 10
115.847327
 20
207.984944
 42
-0.099102
  0
VERTEX
  8
0
 10
114.383727
 20
206.107348
 42
-0.058534
  0
VERTEX
  8
0
 10
112.020016
 20
204.510350
 42
-0.065193
  0
VERTEX
  8
0
 10
107.978458
 20
203.048569
 42
-0.165873
  0
VERTEX
  8
0
 10
104.919718
 20
203.392295
 42
-0.132530
  0
VERTEX
  8
0
 10
102.268804
 20
205.644157
 42
-0.035817
  0
VERTEX
  8
0
 10
99.450470
 20
210.437969
 42
0.006893
  0
VERTEX
  8
0
 10
98.449452
 20
212.390852
 42
0.002560
  0
VERTEX
  8
0
 10
96.989653
 20
215.110839
 42
0.002536
  0
VERTEX
  8
0
 10
95.367062
 20
218.061568
 42
0.003061
  0
VERTEX
  8
0
 10
93.812177
 20
220.815698
 42
0.015093
  0
VERTEX
  8
0
 10
91.514872
 20
224.560496
 42
0.060766
  0
VERTEX
  8
0
 10
89.785551
 20
226.606013
 42
0.068145
  0
VERTEX
  8
0
 10
87.714832
 20
228.057918
 42
0.022151
  0
VERTEX
  8
0
 10
84.312177
 20
229.623098
 42
0.023551
  0
VERTEX
  8
0
 10
79.646670
 20
231.272097
 42
0.062438
  0
VERTEX
  8
0
 10
76.165190
 20
231.862313
 42
0.063698
  0
VERTEX
  8
0
 10
72.686307
 20
231.569381
 42
0.025295
  0
VERTEX
  8
0
 10
68.047908
 20
230.326478
 42
0.056738
  0
VERTEX
  8
0
 10
62.476554
 20
227.799988
 42
0.075290
  0
VERTEX
  8
0
 10
58.188042
 20
224.264895
 42
0.062698
  0
VERTEX
  8
0
 10
54.612275
 20
219.103528
 42
0.027346
  0
VERTEX
  8
0
 10
51.162226
 20
211.500000
 42
0.002270
  0
VERTEX
  8
0
 10
49.578926
 20
207.378125
 42
0.002304
  0
VERTEX
  8
0
 10
48.041088
 20
203.262500
 42
0.002240
  0
VERTEX
  8
0
 10
46.735987
 20
199.670503
 42
0.009466
  0
VERTEX
  8
0
 10
46.004414
 20
197.500000
 42
-0.015975
  0
VERTEX
  8
0
 10
45.324850
 20
195.567286
 42
-0.006593
  0
VERTEX
  8
0
 10
44.287514
 20
192.994388
 42
-0.006515
  0
VERTEX
  8
0
 10
43.101722
 20
190.262083
 42
-0.008331
  0
VERTEX
  8
0
 10
41.935195
 20
187.778768
 42
0.015192
  0
VERTEX
  8
0
 10
40.752619
 20
185.168835
 42
0.009432
  0
VERTEX
  8
0
 10
39.516978
 20
182.040635
 42
0.009460
  0
VERTEX
  8
0
 10
38.413240
 20
178.904515
 42
0.016838
  0
VERTEX
  8
0
 10
37.641643
 20
176.278768
 42
-0.017030
  0
VERTEX
  8
0
 10
36.789053
 20
173.381511
 42
-0.005897
  0
VERTEX
  8
0
 10
35.367901
 20
169.260013
 42
-0.005851
  0
VERTEX
  8
0
 10
33.694083
 20
164.752298
 42
-0.006768
  0
VERTEX
  8
0
 10
31.991812
 20
160.500000
 42
0.019081
  0
VERTEX
  8
0
 10
29.307536
 20
153.284648
 42
0.029007
  0
VERTEX
  8
0
 10
27.588252
 20
146.821785
 42
0.021863
  0
VERTEX
  8
0
 10
26.340071
 20
139.002213
 42
0.006289
  0
VERTEX
  8
0
 10
25.092425
 20
126.811562
 42
-0.025144
  0
VERTEX
  8
0
 10
24.022726
 20
119.203692
 42
-0.084247
  0
VERTEX
  8
0
 10
22.264218
 20
114.504227
 42
-0.103904
  0
VERTEX
  8
0
 10
19.281538
 20
111.192859
 42
-0.050336
  0
VERTEX
  8
0
 10
14.340524
 20
108.298359
 42
0.014824
  0
VERTEX
  8
0
 10
11.490237
 20
106.889807
 42
0.066868
  0
VERTEX
  8
0
 10
9.984467
 20
105.809899
 42
0.111317
  0
VERTEX
  8
0
 10
9.212445
 20
104.665238
 42
0.084266
  0
VERTEX
  8
0
 10
8.905244
 20
103.176693
 42
-0.012673
  0
VERTEX
  8
0
 10
7.996678
 20
88.234236
 42
-0.017621
  0
VERTEX
  8
0
 10
6.374445
 20
74.927569
 42
-0.019969
  0
VERTEX
  8
0
 10
4.144468
 20
63.724647
 42
-0.042509
  0
VERTEX
  8
0
 10
1.355938
 20
55.348871
 42
0.042093
  0
VERTEX
  8
0
 10
0.224352
 20
51.959391
 42
0.099838
  0
VERTEX
  8
0
 10
0.120954
 20
49.313982
 42
0.118979
  0
VERTEX
  8
0
 10
1.037578
 20
47.126440
 42
0.075272
  0
VERTEX
  8
0
 10
3.000000
 20
45.158121
 42
-0.024264
  0
VERTEX
  8
0
 10
4.148592
 20
44.219462
 42
-0.029870
  0
VERTEX
  8
0
 10
5.119134
 20
43.233268
 42
-0.030813
  0
VERTEX
  8
0
 10
5.813873
 20
42.330808
 42
-0.149447
  0
VERTEX
  8
0
 10
6.001307
 20
41.720063
 42
0.120785
  0
VERTEX
  8
0
 10
6.184481
 20
40.976305
 42
0.009508
  0
VERTEX
  8
0
 10
7.170188
 20
39.175829
 42
0.012491
  0
VERTEX
  8
0
 10
8.455633
 20
37.054997
 42
0.009229
  0
VERTEX
  8
0
 10
9.978643
 20
34.772123
 42
-0.015111
  0
VERTEX
  8
0
 10
12.925869
 20
30.239876
 42
-0.028259
  0
VERTEX
  8
0
 10
14.983758
 20
26.380329
 42
-0.032447
  0
VERTEX
  8
0
 10
16.403251
 20
22.703939
 42
-0.029630
  0
VERTEX
  8
0
 10
17.386110
 20
18.762153
 42
0.038423
  0
VERTEX
  8
0
 10
17.795726
 20
17.234217
 42
0.040186
  0
VERTEX
  8
0
 10
18.429794
 20
15.810775
 42
0.043701
  0
VERTEX
  8
0
 10
19.190024
 20
14.667298
 42
0.101677
  0
VERTEX
  8
0
 10
19.977292
 20
14.012153
 42
0.097266
  0
VERTEX
  8
0
 10
21.277841
 20
13.613441
 42
0.007822
  0
VERTEX
  8
0
 10
24.864552
 20
13.297320
 42
0.010325
  0
VERTEX
  8
0
 10
29.190290
 20
13.073843
 42
0.007742
  0
VERTEX
  8
0
 10
33.959009
 20
13.000000
 42
0.000000
  0
VERTEX
  8
0
 10
46.049502
 20
13.000000
 42
0.000000
  0
VERTEX
  8
0
 10
47.105581
 20
15.750000
 42
0.080483
  0
VERTEX
  8
0
 10
47.776127
 20
18.958210
 42
0.071070
  0
VERTEX
  8
0
 10
47.446770
 20
22.361420
 42
0.068943
  0
VERTEX
  8
0
 10
46.156577
 20
25.629072
 42
0.068025
  0
VERTEX
  8
0
 10
44.022037
 20
28.439501
 42
0.034626
  0
VERTEX
  8
0
 10
42.105027
 20
30.107913
 42
0.080114
  0
VERTEX
  8
0
 10
40.423504
 20
30.998478
 42
0.061405
  0
VERTEX
  8
0
 10
38.282129
 20
31.442638
 42
0.014100
  0
VERTEX
  8
0
 10
34.588180
 20
31.641066
 42
-0.017767
  0
VERTEX
  8
0
 10
28.831087
 20
31.992673
 42
-0.090351
  0
VERTEX
  8
0
 10
25.754744
 20
32.866445
 42
-0.102162
  0
VERTEX
  8
0
 10
23.368496
 20
34.720612
 42
-0.025878
  0
VERTEX
  8
0
 10
20.362324
 20
38.635374
 42
-0.016328
  0
VERTEX
  8
0
 10
18.148255
 20
42.086088
 42
-0.061139
  0
VERTEX
  8
0
 10
17.110108
 20
44.437987
 42
-0.058728
  0
VERTEX
  8
0
 10
16.650610
 20
47.018173
 42
-0.014292
  0
VERTEX
  8
0
 10
16.519195
 20
51.348598
 42
-0.030610
  0
VERTEX
  8
0
 10
16.884227
 20
57.482049
 42
-0.016550
  0
VERTEX
  8
0
 10
18.042850
 20
64.958731
 42
-0.016467
  0
VERTEX
  8
0
 10
19.723567
 20
72.482809
 42
-0.025917
  0
VERTEX
  8
0
 10
21.708174
 20
78.797165
 42
-0.041296
  0
VERTEX
  8
0
 10
23.104327
 20
81.771334
 42
-0.094535
  0
VERTEX
  8
0
 10
24.712007
 20
83.641959
 42
-0.106476
  0
VERTEX
  8
0
 10
26.763592
 20
84.658890
 42
-0.062088
  0
VERTEX
  8
0
 10
29.500000
 20
85.000000
 42
0.032802
  0
VERTEX
  8
0
 10
30.648936
 20
85.075455
 42
0.022954
  0
VERTEX
  8
0
 10
31.926673
 20
85.304085
 42
0.023248
  0
VERTEX
  8
0
 10
33.135898
 20
85.638028
 42
0.043894
  0
VERTEX
  8
0
 10
34.065741
 20
86.035184
 42
-0.067932
  0
VERTEX
  8
0
 10
35.362536
 20
86.517006
 42
-0.405447
  0
VERTEX
  8
0
 10
35.920252
 20
86.174837
 42
-0.140509
  0
VERTEX
  8
0
 10
35.887449
 20
85.047119
 42
-0.013764
  0
VERTEX
  8
0
 10
34.981359
 20
82.450971
 42
0.061568
  0
VERTEX
  8
0
 10
34.587329
 20
80.843194
 42
0.097054
  0
VERTEX
  8
0
 10
34.695060
 20
79.431068
 42
0.064143
  0
VERTEX
  8
0
 10
35.388014
 20
77.781763
 42
0.014791
  0
VERTEX
  8
0
 10
36.981359
 20
75.214427
 42
-0.014193
  0
VERTEX
  8
0
 10
38.139137
 20
73.353876
 42
-0.016839
  0
VERTEX
  8
0
 10
39.121579
 20
71.532122
 42
-0.015792
  0
VERTEX
  8
0
 10
39.843348
 20
69.955512
 42
-0.095244
  0
VERTEX
  8
0
 10
40.028270
 20
69.078555
 42
0.106192
  0
VERTEX
  8
0
 10
40.244728
 20
68.151991
 42
0.011830
  0
VERTEX
  8
0
 10
41.222809
 20
66.201201
 42
0.013966
  0
VERTEX
  8
0
 10
42.521791
 20
63.913081
 42
0.010893
  0
VERTEX
  8
0
 10
44.055087
 20
61.500000
 42
-0.016892
  0
VERTEX
  8
0
 10
46.022828
 20
58.319537
 42
-0.005178
  0
VERTEX
  8
0
 10
48.780559
 20
53.388400
 42
-0.005175
  0
VERTEX
  8
0
 10
51.755211
 20
47.800869
 42
-0.005645
  0
VERTEX
  8
0
 10
54.526817
 20
42.311575
 42
-0.004914
  0
VERTEX
  8
0
 10
58.309936
 20
34.408437
 42
-0.029567
  0
VERTEX
  8
0
 10
59.988016
 20
30.176477
 42
-0.049190
  0
VERTEX
  8
0
 10
60.750188
 20
26.769590
 42
-0.030457
  0
VERTEX
  8
0
 10
61.000000
 20
22.672359
 42
0.049353
  0
VERTEX
  8
0
 10
61.636526
 20
16.239395
 42
0.239842
  0
VERTEX
  8
0
 10
63.838056
 20
13.449386
 42
0.098624
  0
VERTEX
  8
0
 10
68.721427
 20
12.278391
 42
0.005448
  0
VERTEX
  8
0
 10
84.500000
 20
11.838969
 42
0.000000
  0
VERTEX
  8
0
 10
104.500000
 20
11.500000
 42
0.000000
  0
VERTEX
  8
0
 10
104.789085
 20
18.515950
 42
0.009983
  0
VERTEX
  8
0
 10
104.884163
 20
22.996682
 42
0.076770
  0
VERTEX
  8
0
 10
104.566999
 20
25.067359
 42
0.101252
  0
VERTEX
  8
0
 10
103.659294
 20
26.701439
 42
0.023138
  0
VERTEX
  8
0
 10
101.480825
 20
29.015950
 42
0.000000
  0
VERTEX
  8
0
 10
97.883480
 20
32.500000
 42
0.000000
  0
VERTEX
  8
0
 10
84.778817
 20
32.500000
 42
0.000000
  0
VERTEX
  8
0
 10
71.674154
 20
32.500000
 42
0.000000
  0
VERTEX
  8
0
 10
68.916054
 20
37.000000
 42
-0.056123
  0
VERTEX
  8
0
 10
66.864467
 20
41.383638
 42
-0.011989
  0
VERTEX
  8
0
 10
64.362559
 20
49.425374
 42
-0.012996
  0
VERTEX
  8
0
 10
62.041399
 20
58.453449
 42
-0.016776
  0
VERTEX
  8
0
 10
60.407210
 20
66.854913
 42
-0.022483
  0
VERTEX
  8
0
 10
60.142819
 20
69.172167
 42
-0.072395
  0
VERTEX
  8
0
 10
60.260164
 20
70.715409
 42
-0.088533
  0
VERTEX
  8
0
 10
60.793239
 20
71.986742
 42
-0.045167
  0
VERTEX
  8
0
 10
61.863670
 20
73.354883
 42
0.053203
  0
VERTEX
  8
0
 10
62.787447
 20
74.575408
 42
0.020337
  0
VERTEX
  8
0
 10
63.812039
 20
76.446873
 42
0.019867
  0
VERTEX
  8
0
 10
64.768668
 20
78.586093
 42
0.023032
  0
VERTEX
  8
0
 10
65.501399
 20
80.692755
 42
-0.019316
  0
VERTEX
  8
0
 10
66.192346
 20
82.727878
 42
-0.020806
  0
VERTEX
  8
0
 10
67.023311
 20
84.652735
 42
-0.020872
  0
VERTEX
  8
0
 10
67.869320
 20
86.235495
 42
-0.086580
  0
VERTEX
  8
0
 10
68.569093
 20
87.057342
 42
0.047016
  0
VERTEX
  8
0
 10
69.276331
 20
87.766406
 42
0.017866
  0
VERTEX
  8
0
 10
70.127598
 20
88.875988
 42
0.017509
  0
VERTEX
  8
0
 10
70.972694
 20
90.155603
 42
0.020488
  0
VERTEX
  8
0
 10
71.680098
 20
91.427167
 42
-0.023661
  0
VERTEX
  8
0
 10
72.454879
 20
92.799282
 42
-0.013309
  0
VERTEX
  8
0
 10
73.516316
 20
94.391585
 42
-0.013260
  0
VERTEX
  8
0
 10
74.675902
 20
95.945469
 42
-0.021084
  0
VERTEX
  8
0
 10
75.756951
 20
97.203759
 42
-0.020888
  0
VERTEX
  8
0
 10
77.399288
 20
98.819018
 42
-0.135394
  0
VERTEX
  8
0
 10
78.426455
 20
99.335836
 42
-0.130177
  0
VERTEX
  8
0
 10
79.592651
 20
99.263574
 42
-0.018751
  0
VERTEX
  8
0
 10
81.847195
 20
98.419379
 42
0.021874
  0
VERTEX
  8
0
 10
83.844195
 20
97.685801
 42
0.004893
  0
VERTEX
  8
0
 10
87.313479
 20
96.618285
 42
0.005069
  0
VERTEX
  8
0
 10
91.347269
 20
95.464524
 42
0.004882
  0
VERTEX
  8
0
 10
95.454405
 20
94.377719
 42
0.014878
  0
VERTEX
  8
0
 10
102.008410
 20
92.917851
 42
0.030211
  0
VERTEX
  8
0
 10
107.242810
 20
92.238802
 42
0.018341
  0
VERTEX
  8
0
 10
113.945834
 20
92.024737
 42
0.002617
  0
VERTEX
  8
0
 10
127.699813
 20
92.162099
 42
-0.002952
  0
VERTEX
  8
0
 10
138.018652
 20
92.258239
 42
-0.009365
  0
VERTEX
  8
0
 10
144.921206
 20
92.152519
 42
-0.007312
  0
VERTEX
  8
0
 10
149.823032
 20
91.913771
 42
-0.182492
  0
VERTEX
  8
0
 10
151.032339
 20
91.367473
 42
-0.230268
  0
VERTEX
  8
0
 10
151.679825
 20
89.494477
 42
-0.008694
  0
VERTEX
  8
0
 10
150.637879
 20
81.947742
 42
-0.014824
  0
VERTEX
  8
0
 10
149.274965
 20
74.633802
 42
-0.069491
  0
VERTEX
  8
0
 10
147.800389
 20
70.627023
 42
0.079769
  0
VERTEX
  8
0
 10
146.956895
 20
68.181972
 42
0.006341
  0
VERTEX
  8
0
 10
145.860088
 20
61.398997
 42
0.009103
  0
VERTEX
  8
0
 10
144.970086
 20
54.560792
 42
0.029638
  0
VERTEX
  8
0
 10
144.732897
 20
50.000000
 42
-0.034652
  0
VERTEX
  8
0
 10
144.369028
 20
44.136421
 42
-0.010212
  0
VERTEX
  8
0
 10
143.007375
 20
35.227902
 42
-0.009150
  0
VERTEX
  8
0
 10
141.323032
 20
26.488583
 42
-0.053085
  0
VERTEX
  8
0
 10
139.871124
 20
22.029286
 42
0.040847
  0
VERTEX
  8
0
 10
138.143876
 20
17.133776
 42
0.042306
  0
VERTEX
  8
0
 10
137.260834
 20
12.079792
 42
0.046023
  0
VERTEX
  8
0
 10
137.276757
 20
7.615057
 42
0.121719
  0
VERTEX
  8
0
 10
138.328064
 20
4.622063
 42
0.119390
  0
VERTEX
  8
0
 10
140.960020
 20
2.154852
 42
0.080116
  0
VERTEX
  8
0
 10
144.843148
 20
0.712906
 42
0.048109
  0
VERTEX
  8
0
 10
150.702043
 20
0.127900
 42
0.013504
  0
VERTEX
  8
0
 10
159.905474
 20
0.345437
 42
0.009753
  0
VERTEX
  8
0
 10
169.212637
 20
0.999361
 42
0.098446
  0
VERTEX
  8
0
 10
172.923238
 20
2.090142
 42
0.168425
  0
VERTEX
  8
0
 10
175.038863
 20
4.338869
 42
0.042689
  0
VERTEX
  8
0
 10
176.716180
 20
9.143653
 42
0.010946
  0
VERTEX
  8
0
 10
177.454813
 20
12.317564
 42
0.077832
  0
VERTEX
  8
0
 10
177.535726
 20
13.890140
 42
0.121130
  0
VERTEX
  8
0
 10
177.101236
 20
15.099055
 42
0.042043
  0
VERTEX
  8
0
 10
175.942371
 20
16.561344
 42
0.090652
  0
VERTEX
  8
0
 10
173.601434
 20
18.289030
 42
0.038815
  0
VERTEX
  8
0
 10
169.973910
 20
19.726965
 42
0.035799
  0
VERTEX
  8
0
 10
166.381906
 20
20.561327
 42
0.207336
  0
VERTEX
  8
0
 10
164.538905
 20
20.086392
 42
-0.171265
  0
VERTEX
  8
0
 10
162.832490
 20
19.517401
 42
-0.034458
  0
VERTEX
  8
0
 10
159.594075
 20
19.797504
 42
-0.032749
  0
VERTEX
  8
0
 10
156.461554
 20
20.500111
 42
-0.233688
  0
VERTEX
  8
0
 10
155.352662
 20
21.523362
 42
-0.137994
  0
VERTEX
  8
0
 10
155.267161
 20
22.448572
 42
-0.005148
  0
VERTEX
  8
0
 10
155.941781
 20
25.911506
 42
-0.008983
  0
VERTEX
  8
0
 10
156.864085
 20
30.023117
 42
-0.006160
  0
VERTEX
  8
0
 10
158.051485
 20
34.654989
 42
0.001885
  0
VERTEX
  8
0
 10
159.401320
 20
39.739379
 42
0.001511
  0
VERTEX
  8
0
 10
160.817515
 20
45.223653
 42
0.001527
  0
VERTEX
  8
0
 10
162.096501
 20
50.303865
 42
0.003885
  0
VERTEX
  8
0
 10
162.984610
 20
54.000000
 42
-0.006988
  0
VERTEX
  8
0
 10
164.465741
 20
59.999985
 42
-0.004475
  0
VERTEX
  8
0
 10
166.345256
 20
66.927213
 42
-0.004313
  0
VERTEX
  8
0
 10
168.455264
 20
74.195967
 42
-0.004643
  0
VERTEX
  8
0
 10
170.640662
 20
81.250000
 42
-0.017360
  0
VERTEX
  8
0
 10
171.293547
 20
83.069980
 42
-0.025956
  0
VERTEX
  8
0
 10
171.999344
 20
84.604687
 42
-0.023801
  0
VERTEX
  8
0
 10
172.671924
 20
85.751175
 42
-0.253389
  0
VERTEX
  8
0
 10
173.131393
 20
86.000000
 42
-0.209379
  0
VERTEX
  8
0
 10
173.592756
 20
85.797943
 42
-0.032791
  0
VERTEX
  8
0
 10
174.231739
 20
85.007203
 42
-0.031748
  0
VERTEX
  8
0
 10
174.902504
 20
83.914671
 42
-0.022845
  0
VERTEX
  8
0
 10
175.514197
 20
82.620265
 42
0.090928
  0
VERTEX
  8
0
 10
177.228254
 20
79.987643
 42
0.025851
  0
VERTEX
  8
0
 10
180.779674
 20
76.608056
 42
0.026818
  0
VERTEX
  8
0
 10
184.791400
 20
73.524657
 42
0.060092
  0
VERTEX
  8
0
 10
188.191733
 20
71.747340
 42
-0.142702
  0
VERTEX
  8
0
 10
190.396753
 20
70.088120
 42
-0.081545
  0
VERTEX
  8
0
 10
191.946209
 20
67.108218
 42
-0.045269
  0
VERTEX
  8
0
 10
193.076580
 20
62.198495
 42
-0.011262
  0
VERTEX
  8
0
 10
194.009357
 20
54.000000
 42
0.007954
  0
VERTEX
  8
0
 10
194.545367
 20
48.994199
 42
0.009462
  0
VERTEX
  8
0
 10
195.215413
 20
44.290625
 42
0.008416
  0
VERTEX
  8
0
 10
195.920179
 20
40.356406
 42
0.058674
  0
VERTEX
  8
0
 10
196.517507
 20
38.500000
 42
-0.043931
  0
VERTEX
  8
0
 10
197.534842
 20
35.630539
 42
-0.015524
  0
VERTEX
  8
0
 10
198.495448
 20
31.372056
 42
-0.010017
  0
VERTEX
  8
0
 10
199.581260
 20
25.076107
 42
-0.002666
  0
VERTEX
  8
0
 10
201.056904
 20
15.000000
 42
0.018996
  0
VERTEX
  8
0
 10
202.199621
 20
8.650806
 42
0.091522
  0
VERTEX
  8
0
 10
203.618271
 20
5.282197
 42
0.158147
  0
VERTEX
  8
0
 10
205.726019
 20
3.591744
 42
0.094910
  0
VERTEX
  8
0
 10
208.915810
 20
3.034267
 42
-0.016589
  0
VERTEX
  8
0
 10
210.934323
 20
3.000065
 42
-0.003315
  0
VERTEX
  8
0
 10
214.531519
 20
2.795719
 42
-0.003502
  0
VERTEX
  8
0
 10
218.717236
 20
2.500648
 42
-0.003259
  0
VERTEX
  8
0
 10
223.000000
 20
2.140483
 42
0.000000
  0
VERTEX
  8
0
 10
233.500000
 20
1.188514
 42
0.000000
  0
VERTEX
  8
0
 10
235.742061
 20
3.844257
 42
0.043423
  0
VERTEX
  8
0
 10
236.775097
 20
5.308716
 42
0.058530
  0
VERTEX
  8
0
 10
237.421961
 20
6.794473
 42
0.055225
  0
VERTEX
  8
0
 10
237.730127
 20
8.456231
 42
0.033543
  0
VERTEX
  8
0
 10
237.742061
 20
10.456983
 42
0.040159
  0
VERTEX
  8
0
 10
237.424573
 20
12.687755
 42
0.085398
  0
VERTEX
  8
0
 10
236.760582
 20
14.293803
 42
0.069646
  0
VERTEX
  8
0
 10
235.504106
 20
15.781067
 42
0.019953
  0
VERTEX
  8
0
 10
233.172261
 20
17.706983
 42
0.023663
  0
VERTEX
  8
0
 10
230.488600
 20
19.555328
 42
0.067996
  0
VERTEX
  8
0
 10
228.427959
 20
20.475623
 42
0.057587
  0
VERTEX
  8
0
 10
226.009766
 20
20.888724
 42
0.013538
  0
VERTEX
  8
0
 10
221.900822
 20
21.000000
 42
-0.008245
  0
VERTEX
  8
0
 10
217.837190
 20
21.067015
 42
-0.061186
  0
VERTEX
  8
0
 10
215.929490
 20
21.365488
 42
-0.130687
  0
VERTEX
  8
0
 10
214.811866
 20
22.031360
 42
-0.093061
  0
VERTEX
  8
0
 10
213.999467
 20
23.250000
 42
-0.039301
  0
VERTEX
  8
0
 10
212.605746
 20
27.402261
 42
-0.011271
  0
VERTEX
  8
0
 10
211.105926
 20
34.024213
 42
-0.011623
  0
VERTEX
  8
0
 10
209.801460
 20
41.319133
 42
-0.015491
  0
VERTEX
  8
0
 10
208.977425
 20
48.000000
 42
0.009229
  0
VERTEX
  8
0
 10
208.556992
 20
51.799722
 42
0.005870
  0
VERTEX
  8
0
 10
207.934226
 20
56.206250
 42
0.005896
  0
VERTEX
  8
0
 10
207.221184
 20
60.516879
 42
0.010880
  0
VERTEX
  8
0
 10
206.524247
 20
64.000000
 42
-0.017894
  0
VERTEX
  8
0
 10
205.601050
 20
68.975647
 42
-0.040282
  0
VERTEX
  8
0
 10
205.343753
 20
72.801480
 42
-0.035356
  0
VERTEX
  8
0
 10
205.690067
 20
76.912008
 42
-0.011073
  0
VERTEX
  8
0
 10
206.778282
 20
83.000000
 42
-0.012271
  0
VERTEX
  8
0
 10
208.094848
 20
88.790502
 42
-0.033527
  0
VERTEX
  8
0
 10
209.395598
 20
92.780538
 42
-0.047915
  0
VERTEX
  8
0
 10
210.693949
 20
95.287146
 42
-0.254575
  0
VERTEX
  8
0
 10
212.003300
 20
96.000000
 42
0.087401
  0
VERTEX
  8
0
 10
212.773372
 20
96.135647
 42
0.040284
  0
VERTEX
  8
0
 10
213.701938
 20
96.560659
 42
0.038282
  0
VERTEX
  8
0
 10
214.631816
 20
97.178289
 42
0.043129
  0
VERTEX
  8
0
 10
215.417307
 20
97.908625
 42
-0.040033
  0
VERTEX
  8
0
 10
216.285855
 20
98.726255
 42
-0.020788
  0
VERTEX
  8
0
 10
217.486653
 20
99.608446
 42
-0.020532
  0
VERTEX
  8
0
 10
218.802825
 20
100.417194
 42
-0.029317
  0
VERTEX
  8
0
 10
220.036344
 20
101.015054
 42
0.073909
  0
VERTEX
  8
0
 10
221.395544
 20
101.830259
 42
0.027493
  0
VERTEX
  8
0
 10
223.041085
 20
103.341171
 42
0.025964
  0
VERTEX
  8
0
 10
224.719438
 20
105.250391
 42
0.024983
  0
VERTEX
  8
0
 10
226.214050
 20
107.347220
 42
-0.008746
  0
VERTEX
  8
0
 10
227.676445
 20
109.546548
 42
-0.006614
  0
VERTEX
  8
0
 10
229.355408
 20
111.910726
 42
-0.006692
  0
VERTEX
  8
0
 10
230.991689
 20
114.089584
 42
-0.015401
  0
VERTEX
  8
0
 10
232.293724
 20
115.672604
 42
0.067904
  0
VERTEX
  8
0
 10
234.946933
 20
119.691427
 42
0.011310
  0
VERTEX
  8
0
 10
238.774954
 20
128.143055
 42
0.010097
  0
VERTEX
  8
0
 10
242.246783
 20
136.773242
 42
0.089754
  0
VERTEX
  8
0
 10
242.990338
 20
140.785183
 42
-0.056481
  0
VERTEX
  8
0
 10
243.115275
 20
141.847497
 42
-0.027072
  0
VERTEX
  8
0
 10
243.500626
 20
143.167478
 42
-0.026430
  0
VERTEX
  8
0
 10
244.057017
 20
144.517123
 42
-0.034056
  0
VERTEX
  8
0
 10
244.713922
 20
145.686142
 42
0.059799
  0
VERTEX
  8
0
 10
245.810035
 20
147.895266
 42
0.035020
  0
VERTEX
  8
0
 10
246.601915
 20
150.744177
 42
0.015380
  0
VERTEX
  8
0
 10
247.415690
 20
155.475088
 42
0.001836
  0
VERTEX
  8
0
 10
248.855068
 20
166.000000
 42
-0.008953
  0
VERTEX
  8
0
 10
249.322762
 20
169.091406
 42
-0.008833
  0
VERTEX
  8
0
 10
249.902715
 20
172.178125
 42
-0.008737
  0
VERTEX
  8
0
 10
250.505382
 20
174.862331
 42
-0.033237
  0
VERTEX
  8
0
 10
251.020571
 20
176.500000
 42
0.055409
  0
VERTEX
  8
0
 10
251.478498
 20
178.217725
 42
0.023984
  0
VERTEX
  8
0
 10
251.719445
 20
180.574903
 42
0.020928
  0
VERTEX
  8
0
 10
251.753547
 20
183.403480
 42
0.014410
  0
VERTEX
  8
0
 10
251.565752
 20
186.603892
 42
0.000000
  0
VERTEX
  8
0
 10
250.943079
 20
193.707784
 42
0.000000
  0
VERTEX
  8
0
 10
255.089186
 20
197.853892
 42
-0.018736
  0
VERTEX
  8
0
 10
257.368091
 20
199.968116
 42
-0.054858
  0
VERTEX
  8
0
 10
259.133035
 20
201.177796
 42
-0.071088
  0
VERTEX
  8
0
 10
260.841706
 20
201.800176
 42
-0.050833
  0
VERTEX
  8
0
 10
262.867647
 20
202.015313
 42
0.035254
  0
VERTEX
  8
0
 10
265.733551
 20
202.229776
 42
0.093708
  0
VERTEX
  8
0
 10
267.666020
 20
202.896106
 42
0.092942
  0
VERTEX
  8
0
 10
269.231019
 20
204.225735
 42
0.034311
  0
VERTEX
  8
0
 10
270.902526
 20
206.604176
 42
-0.063548
  0
VERTEX
  8
0
 10
272.048691
 20
208.048167
 42
-0.050483
  0
VERTEX
  8
0
 10
273.607931
 20
209.288751
 42
-0.040377
  0
VERTEX
  8
0
 10
275.707807
 20
210.410098
 42
-0.020205
  0
VERTEX
  8
0
 10
278.516995
 20
211.497632
 42
0.019285
  0
VERTEX
  8
0
 10
281.954886
 20
212.821294
 42
0.072802
  0
VERTEX
  8
0
 10
283.914715
 20
214.026758
 42
0.073845
  0
VERTEX
  8
0
 10
285.432592
 20
215.734554
 42
0.020203
  0
VERTEX
  8
0
 10
287.286519
 20
218.836042
 42
0.049859
  0
VERTEX
  8
0
 10
289.237633
 20
223.467255
 42
0.101326
  0
VERTEX
  8
0
 10
289.619111
 20
227.382343
 42
0.112857
  0
VERTEX
  8
0
 10
288.431403
 20
230.854452
 42
0.071968
  0
VERTEX
  8
0
 10
285.676460
 20
234.138254
 42
-0.002784
  0
VERTEX
  8
0
 10
284.242900
 20
235.433183
 42
-0.001664
  0
VERTEX
  8
0
 10
282.551835
 20
236.988255
 42
-0.001665
  0
VERTEX
  8
0
 10
280.878121
 20
238.548062
 42
-0.002890
  0
VERTEX
  8
0
 10
279.500000
 20
239.856053
 42
0.062962
  0
VERTEX
  8
0
 10
276.476737
 20
242.103793
 42
0.093293
  0
VERTEX
  8
0
 10
273.358534
 20
243.163190
 42
0.081038
  0
VERTEX
  8
0
 10
269.749136
 20
243.090057
 42
0.037363
  0
VERTEX
  8
0
 10
265.191360
 20
241.893812
 42
-0.027134
  0
VERTEX
  8
0
 10
261.172957
 20
240.750868
 42
-0.143518
  0
VERTEX
  8
0
 10
258.912331
 20
240.891741
 42
-0.196148
  0
VERTEX
  8
0
 10
257.475876
 20
242.189471
 42
-0.058193
  0
VERTEX
  8
0
 10
256.490434
 20
245.043555
 42
0.119178
  0
VERTEX
  8
0
 10
255.130905
 20
247.833445
 42
0.051758
  0
VERTEX
  8
0
 10
252.169074
 20
250.744171
 42
0.046302
  0
VERTEX
  8
0
 10
248.157297
 20
253.376781
 42
0.041182
  0
VERTEX
  8
0
 10
243.571861
 20
255.347344
 42
0.019730
  0
VERTEX
  8
0
 10
239.621955
 20
256.500755
 42
0.057247
  0
VERTEX
  8
0
 10
236.804546
 20
256.869915
 42
0.068441
  0
VERTEX
  8
0
 10
234.269834
 20
256.562348
 42
0.038239
  0
SEQEND
  0
ENDSEC
  0
EOF
