  0
SECTION
  2
HEADER
  9
$ACADVER
  1
AC1006
  9
$EXTMIN
 10
0.000000
 20
0.000000
 30
0.000000
  9
$EXTMAX
 10
254.000000
 20
243.000000
 30
0.000000
  0
ENDSEC
  0
SECTION
  2
ENTITIES
  0
POLYLINE
  8
0
 66
1
 70
1
  0
VERTEX
  8
0
 10
52.500000
 20
242.026606
 42
0.013239
  0
VERTEX
  8
0
 10
46.403591
 20
241.276734
 42
0.050971
  0
VERTEX
  8
0
 10
42.710263
 20
240.330846
 42
0.060828
  0
VERTEX
  8
0
 10
39.620364
 20
238.745394
 42
0.024476
  0
VERTEX
  8
0
 10
35.820594
 20
235.889465
 42
-0.016516
  0
VERTEX
  8
0
 10
33.903576
 20
234.400301
 42
-0.020170
  0
VERTEX
  8
0
 10
32.013138
 20
233.142530
 42
-0.019098
  0
VERTEX
  8
0
 10
30.365805
 20
232.224204
 42
-0.118136
  0
VERTEX
  8
0
 10
29.430125
 20
232.000000
 42
0.063972
  0
VERTEX
  8
0
 10
28.511613
 20
231.882000
 42
0.014847
  0
VERTEX
  8
0
 10
27.014512
 20
231.443012
 42
0.015085
  0
VERTEX
  8
0
 10
25.308369
 20
230.829699
 42
0.014260
  0
VERTEX
  8
0
 10
23.609531
 20
230.103871
 42
-0.019010
  0
VERTEX
  8
0
 10
20.473856
 20
228.799235
 42
-0.014396
  0
VERTEX
  8
0
 10
16.944541
 20
227.600322
 42
-0.013263
  0
VERTEX
  8
0
 10
13.041765
 20
226.511126
 42
-0.010559
  0
VERTEX
  8
0
 10
8.778865
 20
225.537623
 42
0.061023
  0
VERTEX
  8
0
 10
7.653016
 20
225.157901
 42
0.044882
  0
VERTEX
  8
0
 10
6.520453
 20
224.483780
 42
0.045586
  0
VERTEX
  8
0
 10
5.549722
 20
223.636308
 42
0.072324
  0
VERTEX
  8
0
 10
4.911825
 20
222.738193
 42
-0.028090
  0
VERTEX
  8
0
 10
4.346462
 20
221.771831
 42
-0.018103
  0
VERTEX
  8
0
 10
3.590562
 20
220.716844
 42
-0.018200
  0
VERTEX
  8
0
 10
2.773598
 20
219.735638
 42
-0.032372
  0
VERTEX
  8
0
 10
2.023050
 20
219.000000
 42
0.091163
  0
VERTEX
  8
0
 10
1.159094
 20
217.927960
 42
0.089403
  0
VERTEX
  8
0
 10
0.725491
 20
216.611461
 42
0.050203
  0
VERTEX
  8
0
 10
0.647955
 20
214.650292
 42
0.010569
  0
VERTEX
  8
0
 10
0.929049
 20
211.227708
 42
0.017481
  0
VERTEX
  8
0
 10
1.426331
 20
207.648236
 42
0.059593
  0
VERTEX
  8
0
 10
2.102641
 20
205.398702
 42
0.067184
  0
VERTEX
  8
0
 10
3.244575
 20
203.516194
 42
0.026499
  0
VERTEX
  8
0
 10
5.275041
 20
201.258292
 42
0.000000
  0
VERTEX
  8
0
 10
8.972165
 20
197.561169
 42
0.000000
  0
VERTEX
  8
0
 10
19.274347
 20
197.442371
 42
-0.007770
  0
VERTEX
  8
0
 10
24.432733
 20
197.302697
 42
-0.024016
  0
VERTEX
  8
0
 10
27.903658
 20
196.987251
 42
-0.035789
  0
VERTEX
  8
0
 10
30.360682
 20
196.463031
 42
-0.074711
  0
VERTEX
  8
0
 10
32.134139
 20
195.647764
 42
-0.095596
  0
VERTEX
  8
0
 10
34.801441
 20
193.057990
 42
-0.080141
  0
VERTEX
  8
0
 10
36.517728
 20
189.501298
 42
-0.081816
  0
VERTEX
  8
0
 10
37.006146
 20
185.657291
 42
-0.107170
  0
VERTEX
  8
0
 10
36.131159
 20
182.236431
 42
-0.000059
  0
VERTEX
  8
0
 10
35.632870
 20
181.240862
 42
-0.000011
  0
VERTEX
  8
0
 10
34.708409
 20
179.394452
 42
-0.000011
  0
VERTEX
  8
0
 10
33.626102
 20
177.233016
 42
-0.000010
  0
VERTEX
  8
0
 10
32.507829
 20
175.000000
 42
-0.002877
  0
VERTEX
  8
0
 10
31.271622
 20
172.566693
 42
-0.001924
  0
VERTEX
  8
0
 10
29.830039
 20
169.795354
 42
-0.001937
  0
VERTEX
  8
0
 10
28.411972
 20
167.119886
 42
-0.003809
  0
VERTEX
  8
0
 10
27.259955
 20
165.005461
 42
0.024253
  0
VERTEX
  8
0
 10
25.952363
 20
162.352884
 42
0.056907
  0
VERTEX
  8
0
 10
25.309197
 20
160.242390
 42
0.051677
  0
VERTEX
  8
0
 10
25.125723
 20
157.920411
 42
0.017134
  0
VERTEX
  8
0
 10
25.326325
 20
154.505461
 42
-0.022468
  0
VERTEX
  8
0
 10
25.470436
 20
151.506043
 42
-0.008401
  0
VERTEX
  8
0
 10
25.412606
 20
147.291616
 42
-0.008304
  0
VERTEX
  8
0
 10
25.195825
 20
142.695295
 42
-0.009965
  0
VERTEX
  8
0
 10
24.834011
 20
138.380890
 42
0.021260
  0
VERTEX
  8
0
 10
24.353843
 20
130.529737
 42
0.082115
  0
VERTEX
  8
0
 10
25.058359
 20
125.714981
 42
0.100606
  0
VERTEX
  8
0
 10
27.188937
 20
121.903271
 42
0.041102
  0
VERTEX
  8
0
 10
31.433928
 20
117.717220
 42
-0.027683
  0
VERTEX
  8
0
 10
33.566606
 20
115.724037
 42
-0.039446
  0
VERTEX
  8
0
 10
35.206186
 20
113.717085
 42
-0.040372
  0
VERTEX
  8
0
 10
36.483055
 20
111.514858
 42
-0.031025
  0
VERTEX
  8
0
 10
37.521525
 20
108.935195
 42
0.039421
  0
VERTEX
  8
0
 10
38.649622
 20
106.263141
 42
0.025970
  0
VERTEX
  8
0
 10
40.337665
 20
103.383501
 42
0.022605
  0
VERTEX
  8
0
 10
42.584543
 20
100.284565
 42
0.015160
  0
VERTEX
  8
0
 10
45.413894
 20
96.944868
 42
-0.022221
  0
VERTEX
  8
0
 10
48.751979
 20
92.889981
 42
-0.020416
  0
VERTEX
  8
0
 10
51.818124
 20
88.441523
 42
-0.016679
  0
VERTEX
  8
0
 10
55.006453
 20
82.991160
 42
-0.007943
  0
VERTEX
  8
0
 10
58.759218
 20
75.783770
 42
-0.012911
  0
VERTEX
  8
0
 10
63.823683
 20
64.979976
 42
-0.039113
  0
VERTEX
  8
0
 10
66.486743
 20
57.313986
 42
-0.055475
  0
VERTEX
  8
0
 10
67.413537
 20
50.981388
 42
-0.058353
  0
VERTEX
  8
0
 10
66.897618
 20
44.710688
 42
-0.010255
  0
VERTEX
  8
0
 10
64.851674
 20
35.525814
 42
-0.054154
  0
VERTEX
  8
0
 10
63.095186
 20
30.682118
 42
-0.086627
  0
VERTEX
  8
0
 10
60.737681
 20
27.441329
 42
-0.051537
  0
VERTEX
  8
0
 10
56.974703
 20
24.484031
 42
0.062990
  0
VERTEX
  8
0
 10
54.117193
 20
22.130851
 42
0.157106
  0
VERTEX
  8
0
 10
52.967485
 20
19.716387
 42
0.190138
  0
VERTEX
  8
0
 10
53.542019
 20
17.399247
 42
0.097656
  0
VERTEX
  8
0
 10
55.750000
 20
15.312143
 42
-0.036632
  0
VERTEX
  8
0
 10
57.214138
 20
14.231560
 42
-0.007438
  0
VERTEX
  8
0
 10
59.633054
 20
12.093237
 42
-0.007805
  0
VERTEX
  8
0
 10
62.375932
 20
9.515394
 42
-0.007244
  0
VERTEX
  8
0
 10
65.107204
 20
6.789090
 42
0.007515
  0
VERTEX
  8
0
 10
69.192297
 20
2.715856
 42
0.054132
  0
VERTEX
  8
0
 10
71.384702
 20
1.011665
 42
0.093658
  0
VERTEX
  8
0
 10
73.375527
 20
0.249044
 42
0.045112
  0
VERTEX
  8
0
 10
76.107204
 20
0.005577
 42
0.033433
  0
VERTEX
  8
0
 10
80.218279
 20
0.286018
 42
0.031049
  0
VERTEX
  8
0
 10
84.360422
 20
1.112874
 42
0.032488
  0
VERTEX
  8
0
 10
87.947613
 20
2.317827
 42
0.084611
  0
VERTEX
  8
0
 10
90.250000
 20
3.754377
 42
0.145159
  0
VERTEX
  8
0
 10
91.207722
 20
5.296195
 42
0.043725
  0
VERTEX
  8
0
 10
91.707429
 20
8.040162
 42
0.020061
  0
VERTEX
  8
0
 10
91.959167
 20
12.819246
 42
0.002684
  0
VERTEX
  8
0
 10
92.031192
 20
22.904988
 42
-0.014469
  0
VERTEX
  8
0
 10
92.623615
 20
42.190970
 42
-0.027762
  0
VERTEX
  8
0
 10
94.401297
 20
57.560302
 42
-0.034025
  0
VERTEX
  8
0
 10
97.488290
 20
70.247031
 42
-0.044717
  0
VERTEX
  8
0
 10
102.083909
 20
81.236431
 42
0.036014
  0
VERTEX
  8
0
 10
102.434957
 20
82.036533
 42
0.022992
  0
VERTEX
  8
0
 10
102.730898
 20
83.008744
 42
0.023083
  0
VERTEX
  8
0
 10
102.934030
 20
83.993840
 42
0.039319
  0
VERTEX
  8
0
 10
103.000000
 20
84.831444
 42
-0.129582
  0
VERTEX
  8
0
 10
103.410559
 20
86.389010
 42
-0.055448
  0
VERTEX
  8
0
 10
104.682069
 20
88.146772
 42
-0.055681
  0
VERTEX
  8
0
 10
106.278767
 20
89.554339
 42
-0.154021
  0
VERTEX
  8
0
 10
107.691203
 20
90.000000
 42
-0.082093
  0
VERTEX
  8
0
 10
108.375560
 20
89.886876
 42
-0.004322
  0
VERTEX
  8
0
 10
110.476807
 20
89.152364
 42
-0.006719
  0
VERTEX
  8
0
 10
112.966656
 20
88.219824
 42
-0.004830
  0
VERTEX
  8
0
 10
115.722502
 20
87.114431
 42
0.031691
  0
VERTEX
  8
0
 10
122.303739
 20
84.876639
 42
0.038331
  0
VERTEX
  8
0
 10
128.711007
 20
83.659159
 42
0.035253
  0
VERTEX
  8
0
 10
135.652636
 20
83.376651
 42
0.021162
  0
VERTEX
  8
0
 10
143.883794
 20
83.971299
 42
-0.007802
  0
VERTEX
  8
0
 10
147.613507
 20
84.341115
 42
-0.009982
  0
VERTEX
  8
0
 10
151.058336
 20
84.559337
 42
-0.008117
  0
VERTEX
  8
0
 10
153.934479
 20
84.637198
 42
-0.079709
  0
VERTEX
  8
0
 10
155.130524
 20
84.458573
 42
-0.105491
  0
VERTEX
  8
0
 10
156.009832
 20
83.957988
 42
-0.027350
  0
VERTEX
  8
0
 10
157.171764
 20
82.802943
 42
-0.026572
  0
VERTEX
  8
0
 10
158.380936
 20
81.309354
 42
-0.024337
  0
VERTEX
  8
0
 10
159.463390
 20
79.652683
 42
0.020234
  0
VERTEX
  8
0
 10
160.637882
 20
77.822545
 42
0.013174
  0
VERTEX
  8
0
 10
162.132556
 20
75.803956
 42
0.013254
  0
VERTEX
  8
0
 10
163.697533
 20
73.908626
 42
0.024493
  0
VERTEX
  8
0
 10
165.081500
 20
72.469033
 42
-0.092284
  0
VERTEX
  8
0
 10
169.471586
 20
66.455853
 42
-0.078010
  0
VERTEX
  8
0
 10
171.733078
 20
58.901638
 42
-0.069263
  0
VERTEX
  8
0
 10
171.705833
 20
50.204603
 42
-0.051233
  0
VERTEX
  8
0
 10
169.380699
 20
40.857880
 42
-0.020217
  0
VERTEX
  8
0
 10
166.837179
 20
34.610148
 42
-0.041464
  0
VERTEX
  8
0
 10
164.258817
 20
29.999896
 42
-0.048809
  0
VERTEX
  8
0
 10
161.266681
 20
26.377127
 42
-0.042256
  0
VERTEX
  8
0
 10
157.489700
 20
23.205848
 42
0.050724
  0
VERTEX
  8
0
 10
154.366932
 20
20.492586
 42
0.136624
  0
VERTEX
  8
0
 10
153.014714
 20
17.911144
 42
0.189895
  0
VERTEX
  8
0
 10
153.406085
 20
15.551508
 42
0.113248
  0
VERTEX
  8
0
 10
155.404915
 20
13.470345
 42
0.065514
  0
VERTEX
  8
0
 10
157.041608
 20
12.681350
 42
0.096168
  0
VERTEX
  8
0
 10
158.622028
 20
12.480177
 42
0.048111
  0
VERTEX
  8
0
 10
160.859312
 20
12.844176
 42
0.006336
  0
VERTEX
  8
0
 10
165.499010
 20
14.128768
 42
-0.009022
  0
VERTEX
  8
0
 10
169.951870
 20
15.335922
 42
-0.041296
  0
VERTEX
  8
0
 10
172.592951
 20
15.773381
 42
-0.059944
  0
VERTEX
  8
0
 10
174.775387
 20
15.690095
 42
-0.034436
  0
VERTEX
  8
0
 10
177.344094
 20
15.097497
 42
0.012969
  0
VERTEX
  8
0
 10
179.486669
 20
14.505351
 42
0.004263
  0
VERTEX
  8
0
 10
182.667914
 20
13.743082
 42
0.004243
  0
VERTEX
  8
0
 10
186.213708
 20
12.956988
 42
0.004791
  0
VERTEX
  8
0
 10
189.631782
 20
12.263747
 42
0.005565
  0
VERTEX
  8
0
 10
194.817990
 20
11.323281
 42
0.053499
  0
VERTEX
  8
0
 10
197.053931
 20
11.185903
 42
0.102123
  0
VERTEX
  8
0
 10
198.683999
 20
11.600519
 42
0.043131
  0
VERTEX
  8
0
 10
200.631782
 20
12.764960
 42
0.111140
  0
VERTEX
  8
0
 10
203.631735
 20
16.155222
 42
0.018716
  0
VERTEX
  8
0
 10
207.545503
 20
23.944768
 42
0.018872
  0
VERTEX
  8
0
 10
211.659811
 20
33.941684
 42
0.013149
  0
VERTEX
  8
0
 10
215.572311
 20
45.500000
 42
0.008485
  0
VERTEX
  8
0
 10
217.708953
 20
52.843786
 42
0.028674
  0
VERTEX
  8
0
 10
218.744379
 20
57.729757
 42
0.027352
  0
VERTEX
  8
0
 10
219.238498
 20
62.818032
 42
0.007202
  0
VERTEX
  8
0
 10
219.465290
 20
71.000000
 42
-0.006343
  0
VERTEX
  8
0
 10
219.655457
 20
78.314419
 42
-0.020543
  0
VERTEX
  8
0
 10
220.042395
 20
83.155493
 42
-0.028342
  0
VERTEX
  8
0
 10
220.738792
 20
87.037395
 42
-0.024735
  0
VERTEX
  8
0
 10
221.893880
 20
91.000000
 42
-0.011945
  0
VERTEX
  8
0
 10
224.116945
 20
96.960490
 42
-0.013771
  0
VERTEX
  8
0
 10
226.526329
 20
102.528108
 42
-0.009861
  0
VERTEX
  8
0
 10
228.804894
 20
107.177515
 42
-0.136290
  0
VERTEX
  8
0
 10
230.064958
 20
108.540146
 42
-0.284203
  0
VERTEX
  8
0
 10
231.694155
 20
108.539773
 42
-0.109998
  0
VERTEX
  8
0
 10
233.378815
 20
106.895889
 42
-0.066345
  0
VERTEX
  8
0
 10
234.875922
 20
103.765025
 42
-0.035297
  0
VERTEX
  8
0
 10
235.911267
 20
99.588143
 42
0.019508
  0
VERTEX
  8
0
 10
237.251748
 20
93.342634
 42
0.016942
  0
VERTEX
  8
0
 10
239.129906
 20
86.915675
 42
0.015186
  0
VERTEX
  8
0
 10
241.151401
 20
81.352963
 42
0.087722
  0
VERTEX
  8
0
 10
242.790666
 20
78.702667
 42
0.127688
  0
VERTEX
  8
0
 10
244.862780
 20
77.321648
 42
0.151233
  0
VERTEX
  8
0
 10
247.205836
 20
77.242706
 42
0.129930
  0
VERTEX
  8
0
 10
249.448932
 20
78.541723
 42
0.083698
  0
VERTEX
  8
0
 10
251.205609
 20
81.000000
 42
0.058510
  0
VERTEX
  8
0
 10
252.054875
 20
83.427349
 42
0.027948
  0
VERTEX
  8
0
 10
252.594669
 20
86.693378
 42
0.018229
  0
VERTEX
  8
0
 10
252.927563
 20
91.343953
 42
0.005354
  0
VERTEX
  8
0
 10
253.101464
 20
98.500000
 42
0.014759
  0
VERTEX
  8
0
 10
252.924242
 20
109.625893
 42
0.077189
  0
VERTEX
  8
0
 10
251.713862
 20
115.611795
 42
0.081445
  0
VERTEX
  8
0
 10
248.769931
 20
120.800089
 42
0.017455
  0
VERTEX
  8
0
 10
241.972479
 20
128.651794
 42
-0.004680
  0
VERTEX
  8
0
 10
238.916933
 20
132.004211
 42
-0.007196
  0
VERTEX
  8
0
 10
236.341916
 20
134.967824
 42
-0.002976
  0
VERTEX
  8
0
 10
234.202878
 20
137.533258
 42
-0.173989
  0
VERTEX
  8
0
 10
234.000000
 20
138.098628
 42
0.120267
  0
VERTEX
  8
0
 10
233.865400
 20
138.650121
 42
0.006391
  0
VERTEX
  8
0
 10
233.005807
 20
140.255686
 42
0.009737
  0
VERTEX
  8
0
 10
231.912085
 20
142.149164
 42
0.006914
  0
VERTEX
  8
0
 10
230.615515
 20
144.230583
 42
0.037330
  0
VERTEX
  8
0
 10
227.568595
 20
148.275763
 42
0.015857
  0
VERTEX
  8
0
 10
222.930435
 20
153.235591
 42
0.013931
  0
VERTEX
  8
0
 10
217.057513
 20
158.810009
 42
0.009603
  0
VERTEX
  8
0
 10
210.114766
 20
164.804868
 42
-0.030663
  0
VERTEX
  8
0
 10
207.921980
 20
166.865615
 42
-0.064741
  0
VERTEX
  8
0
 10
206.557209
 20
168.753961
 42
-0.053118
  0
VERTEX
  8
0
 10
205.567323
 20
171.159505
 42
-0.015153
  0
VERTEX
  8
0
 10
204.551584
 20
175.073016
 42
0.020527
  0
VERTEX
  8
0
 10
203.379284
 20
179.398073
 42
0.067122
  0
VERTEX
  8
0
 10
202.120137
 20
182.074189
 42
0.050751
  0
VERTEX
  8
0
 10
200.023080
 20
184.692829
 42
0.008252
  0
VERTEX
  8
0
 10
195.376170
 20
189.268147
 42
0.007753
  0
VERTEX
  8
0
 10
192.348569
 20
192.064008
 42
0.010611
  0
VERTEX
  8
0
 10
189.532154
 20
194.479407
 42
0.007634
  0
VERTEX
  8
0
 10
187.121328
 20
196.398869
 42
0.111782
  0
VERTEX
  8
0
 10
186.142260
 20
196.853238
 42
-0.047371
  0
VERTEX
  8
0
 10
185.399562
 20
197.088310
 42
-0.024190
  0
VERTEX
  8
0
 10
184.517800
 20
197.513788
 42
-0.023799
  0
VERTEX
  8
0
 10
183.644026
 20
198.044148
 42
-0.032815
  0
VERTEX
  8
0
 10
182.918336
 20
198.605883
 42
0.107883
  0
VERTEX
  8
0
 10
181.839537
 20
199.208473
 42
0.029194
  0
VERTEX
  8
0
 10
179.925565
 20
199.668946
 42
0.025149
  0
VERTEX
  8
0
 10
177.430591
 20
199.988637
 42
0.014686
  0
VERTEX
  8
0
 10
174.418336
 20
200.132676
 42
0.043931
  0
VERTEX
  8
0
 10
168.349998
 20
199.710883
 42
0.072416
  0
VERTEX
  8
0
 10
163.449715
 20
198.185476
 42
0.073719
  0
VERTEX
  8
0
 10
159.247297
 20
195.350166
 42
0.047232
  0
VERTEX
  8
0
 10
155.289623
 20
190.978148
 42
-0.014459
  0
VERTEX
  8
0
 10
153.778224
 20
189.071284
 42
-0.020139
  0
VERTEX
  8
0
 10
152.310857
 20
187.462331
 42
-0.017040
  0
VERTEX
  8
0
 10
151.026700
 20
186.249012
 42
-0.182735
  0
VERTEX
  8
0
 10
150.368105
 20
186.000000
 42
-0.166152
  0
VERTEX
  8
0
 10
149.776166
 20
186.202288
 42
-0.033009
  0
VERTEX
  8
0
 10
148.926202
 20
186.954688
 42
-0.031653
  0
VERTEX
  8
0
 10
148.010083
 20
188.005700
 42
-0.024862
  0
VERTEX
  8
0
 10
147.151608
 20
189.250000
 42
0.054256
  0
VERTEX
  8
0
 10
143.383258
 20
194.079235
 42
0.059304
  0
VERTEX
  8
0
 10
138.765761
 20
197.823141
 42
0.063296
  0
VERTEX
  8
0
 10
133.696824
 20
200.187280
 42
0.080326
  0
VERTEX
  8
0
 10
128.596362
 20
200.956449
 42
0.046425
  0
VERTEX
  8
0
 10
121.595580
 20
200.229872
 42
0.062862
  0
VERTEX
  8
0
 10
115.568160
 20
198.220693
 42
0.072488
  0
VERTEX
  8
0
 10
110.912517
 20
195.089722
 42
0.100615
  0
VERTEX
  8
0
 10
107.944656
 20
191.048851
 42
-0.001668
  0
VERTEX
  8
0
 10
107.434626
 20
189.954892
 42
-0.001319
  0
VERTEX
  8
0
 10
106.875942
 20
188.775038
 42
-0.001333
  0
VERTEX
  8
0
 10
106.351590
 20
187.682708
 42
-0.003320
  0
VERTEX
  8
0
 10
105.960693
 20
186.887448
 42
0.045174
  0
VERTEX
  8
0
 10
105.577956
 20
185.909974
 42
0.007263
  0
VERTEX
  8
0
 10
105.034432
 20
183.933744
 42
0.007977
  0
VERTEX
  8
0
 10
104.463702
 20
181.580317
 42
0.006927
  0
VERTEX
  8
0
 10
103.939246
 20
179.096718
 42
-0.031302
  0
VERTEX
  8
0
 10
102.697811
 20
174.369994
 42
-0.069242
  0
VERTEX
  8
0
 10
101.053632
 20
171.032054
 42
-0.079579
  0
VERTEX
  8
0
 10
98.726340
 20
168.557673
 42
-0.053585
  0
VERTEX
  8
0
 10
95.413692
 20
166.526068
 42
-0.014356
  0
VERTEX
  8
0
 10
93.317933
 20
165.604310
 42
-0.083665
  0
VERTEX
  8
0
 10
92.145034
 20
165.343621
 42
-0.140925
  0
VERTEX
  8
0
 10
91.250113
 20
165.551503
 42
-0.069398
  0
VERTEX
  8
0
 10
90.309791
 20
166.261638
 42
-0.129505
  0
VERTEX
  8
0
 10
88.935138
 20
168.619555
 42
-0.052256
  0
VERTEX
  8
0
 10
88.315316
 20
172.322967
 42
-0.046302
  0
VERTEX
  8
0
 10
88.452366
 20
176.724506
 42
-0.039832
  0
VERTEX
  8
0
 10
89.387498
 20
181.261004
 42
0.016491
  0
VERTEX
  8
0
 10
90.005037
 20
183.680168
 42
0.012567
  0
VERTEX
  8
0
 10
90.526328
 20
186.364330
 42
0.012747
  0
VERTEX
  8
0
 10
90.887770
 20
188.907127
 42
0.028934
  0
VERTEX
  8
0
 10
91.000000
 20
190.844890
 42
-0.022998
  0
VERTEX
  8
0
 10
91.073221
 20
192.435939
 42
-0.029915
  0
VERTEX
  8
0
 10
91.293750
 20
193.877623
 42
-0.030538
  0
VERTEX
  8
0
 10
91.611982
 20
195.015701
 42
-0.172559
  0
VERTEX
  8
0
 10
92.000000
 20
195.500000
 42
0.269203
  0
VERTEX
  8
0
 10
92.969893
 20
197.312752
 42
0.027356
  0
VERTEX
  8
0
 10
92.517004
 20
202.367863
 42
0.032261
  0
VERTEX
  8
0
 10
91.432972
 20
207.490239
 42
0.111935
  0
VERTEX
  8
0
 10
89.831422
 20
210.450000
 42
-0.131243
  0
VERTEX
  8
0
 10
89.506533
 20
211.109161
 42
-0.016459
  0
VERTEX
  8
0
 10
89.244230
 20
212.693929
 42
-0.018445
  0
VERTEX
  8
0
 10
89.060801
 20
214.634815
 42
-0.014337
  0
VERTEX
  8
0
 10
89.000000
 20
216.754864
 42
0.050454
  0
VERTEX
  8
0
 10
88.443833
 20
222.252471
 42
0.070970
  0
VERTEX
  8
0
 10
86.786761
 20
226.887548
 42
0.071999
  0
VERTEX
  8
0
 10
83.922188
 20
230.826315
 42
0.053738
  0
VERTEX
  8
0
 10
79.777670
 20
234.253040
 42
0.019175
  0
VERTEX
  8
0
 10
71.890217
 20
239.036479
 42
0.057361
  0
VERTEX
  8
0
 10
66.070196
 20
241.443915
 42
0.064403
  0
VERTEX
  8
0
 10
60.239586
 20
242.319107
 42
0.029076
  0
SEQEND
  0
ENDSEC
  0
EOF
