  0
SECTION
  2
HEADER
  9
$ACADVER
  1
AC1006
  9
$EXTMIN
 10
0.000000
 20
0.000000
 30
0.000000
  9
$EXTMAX
 10
175.000000
 20
86.000000
 30
0.000000
  0
ENDSEC
  0
SECTION
  2
ENTITIES
  0
POLYLINE
  8
0
 66
1
 70
1
  0
VERTEX
  8
0
 10
81.826157
 20
84.078994
 42
0.097974
  0
VERTEX
  8
0
 10
79.722458
 20
81.625046
 42
0.033169
  0
VERTEX
  8
0
 10
77.679177
 20
77.363191
 42
0.031013
  0
VERTEX
  8
0
 10
76.237015
 20
72.992887
 42
0.157058
  0
VERTEX
  8
0
 10
76.375897
 20
70.462812
 42
-0.281406
  0
VERTEX
  8
0
 10
76.243728
 20
69.745516
 42
-0.156805
  0
VERTEX
  8
0
 10
75.449619
 20
69.281428
 42
-0.047625
  0
VERTEX
  8
0
 10
73.592135
 20
69.052506
 42
-0.006862
  0
VERTEX
  8
0
 10
69.766222
 20
69.000000
 42
0.010694
  0
VERTEX
  8
0
 10
65.406707
 20
68.906749
 42
0.063721
  0
VERTEX
  8
0
 10
63.168434
 20
68.522434
 42
0.088093
  0
VERTEX
  8
0
 10
61.431713
 20
67.633577
 42
0.030260
  0
VERTEX
  8
0
 10
59.280476
 20
65.787229
 42
-0.016326
  0
VERTEX
  8
0
 10
57.246553
 20
63.940752
 42
-0.098269
  0
VERTEX
  8
0
 10
56.005750
 20
63.249024
 42
-0.131130
  0
VERTEX
  8
0
 10
54.765035
 20
63.184586
 42
-0.038029
  0
VERTEX
  8
0
 10
52.909984
 20
63.727876
 42
0.043371
  0
VERTEX
  8
0
 10
50.421594
 20
64.427920
 42
0.129095
  0
VERTEX
  8
0
 10
48.669198
 20
64.306424
 42
0.145061
  0
VERTEX
  8
0
 10
47.325148
 20
63.358812
 42
0.060337
  0
VERTEX
  8
0
 10
46.156889
 20
61.444988
 42
-0.053947
  0
VERTEX
  8
0
 10
45.599233
 20
60.504719
 42
-0.052794
  0
VERTEX
  8
0
 10
44.849758
 20
59.697944
 42
-0.057451
  0
VERTEX
  8
0
 10
44.031149
 20
59.135573
 42
-0.112528
  0
VERTEX
  8
0
 10
43.271439
 20
58.930991
 42
0.002725
  0
VERTEX
  8
0
 10
25.849148
 20
58.157173
 42
0.018101
  0
VERTEX
  8
0
 10
17.183850
 20
57.409826
 42
0.036932
  0
VERTEX
  8
0
 10
11.667671
 20
56.314239
 42
0.057197
  0
VERTEX
  8
0
 10
7.170413
 20
54.496233
 42
0.018421
  0
VERTEX
  8
0
 10
5.059668
 20
53.244523
 42
0.020092
  0
VERTEX
  8
0
 10
3.108862
 20
51.874417
 42
0.020015
  0
VERTEX
  8
0
 10
1.543277
 20
50.575717
 42
0.086940
  0
VERTEX
  8
0
 10
0.802072
 20
49.630169
 42
0.125215
  0
VERTEX
  8
0
 10
0.145232
 20
46.972147
 42
0.016918
  0
VERTEX
  8
0
 10
0.380947
 20
41.184448
 42
0.016843
  0
VERTEX
  8
0
 10
1.196558
 20
33.677292
 42
0.009106
  0
VERTEX
  8
0
 10
2.678672
 20
24.500000
 42
0.009699
  0
VERTEX
  8
0
 10
3.784083
 20
18.982403
 42
0.053614
  0
VERTEX
  8
0
 10
4.747644
 20
16.115605
 42
0.067180
  0
VERTEX
  8
0
 10
6.208416
 20
13.814019
 42
0.020286
  0
VERTEX
  8
0
 10
9.007570
 20
10.750000
 42
0.015159
  0
VERTEX
  8
0
 10
11.572402
 20
8.313915
 42
0.050130
  0
VERTEX
  8
0
 10
13.453873
 20
6.944507
 42
0.071718
  0
VERTEX
  8
0
 10
15.171666
 20
6.246821
 42
0.061859
  0
VERTEX
  8
0
 10
17.107143
 20
6.015313
 42
0.034984
  0
VERTEX
  8
0
 10
19.848386
 20
6.219782
 42
0.110580
  0
VERTEX
  8
0
 10
21.558521
 20
6.872587
 42
0.101517
  0
VERTEX
  8
0
 10
22.908408
 20
8.227514
 42
0.026894
  0
VERTEX
  8
0
 10
24.453496
 20
10.880237
 42
0.000000
  0
VERTEX
  8
0
 10
26.186057
 20
14.260474
 42
0.000000
  0
VERTEX
  8
0
 10
36.843028
 20
13.585062
 42
-0.008915
  0
VERTEX
  8
0
 10
41.253122
 20
13.226518
 42
-0.008656
  0
VERTEX
  8
0
 10
45.691390
 20
12.708177
 42
-0.008595
  0
VERTEX
  8
0
 10
49.576813
 20
12.117925
 42
-0.031461
  0
VERTEX
  8
0
 10
52.000000
 20
11.548374
 42
0.016573
  0
VERTEX
  8
0
 10
54.268364
 20
10.943455
 42
0.006132
  0
VERTEX
  8
0
 10
57.499480
 20
10.237167
 42
0.006069
  0
VERTEX
  8
0
 10
61.047092
 20
9.551937
 42
0.007275
  0
VERTEX
  8
0
 10
64.402486
 20
8.996269
 42
-0.014098
  0
VERTEX
  8
0
 10
68.841303
 20
8.198808
 42
-0.042952
  0
VERTEX
  8
0
 10
71.772401
 20
7.318361
 42
-0.049325
  0
VERTEX
  8
0
 10
74.284565
 20
6.022519
 42
-0.023528
  0
VERTEX
  8
0
 10
77.242284
 20
3.902720
 42
0.017589
  0
VERTEX
  8
0
 10
79.275557
 20
2.408616
 42
0.020755
  0
VERTEX
  8
0
 10
81.302084
 20
1.146424
 42
0.020129
  0
VERTEX
  8
0
 10
83.078200
 20
0.232380
 42
0.109189
  0
VERTEX
  8
0
 10
84.129636
 20
-0.000000
 42
0.116441
  0
VERTEX
  8
0
 10
88.294946
 20
0.983361
 42
0.065945
  0
VERTEX
  8
0
 10
92.609606
 20
3.905989
 42
0.067320
  0
VERTEX
  8
0
 10
95.904738
 20
7.745213
 42
0.144709
  0
VERTEX
  8
0
 10
97.000000
 20
11.450340
 42
-0.349090
  0
VERTEX
  8
0
 10
97.684380
 20
12.311118
 42
-0.037026
  0
VERTEX
  8
0
 10
100.395851
 20
12.730133
 42
-0.017665
  0
VERTEX
  8
0
 10
105.441871
 20
12.952179
 42
-0.002162
  0
VERTEX
  8
0
 10
116.500000
 20
13.000000
 42
-0.003900
  0
VERTEX
  8
0
 10
123.977171
 20
12.941679
 42
-0.006497
  0
VERTEX
  8
0
 10
130.271875
 20
12.761640
 42
-0.001691
  0
VERTEX
  8
0
 10
135.686117
 20
12.518000
 42
-0.400122
  0
VERTEX
  8
0
 10
136.000000
 20
12.188561
 42
0.129896
  0
VERTEX
  8
0
 10
136.116554
 20
11.747488
 42
0.020064
  0
VERTEX
  8
0
 10
136.598943
 20
10.972593
 42
0.021241
  0
VERTEX
  8
0
 10
137.258261
 20
10.085974
 42
0.017036
  0
VERTEX
  8
0
 10
138.038955
 20
9.188561
 42
0.127300
  0
VERTEX
  8
0
 10
140.756065
 20
7.456415
 42
0.079425
  0
VERTEX
  8
0
 10
144.507184
 20
6.867291
 42
0.082182
  0
VERTEX
  8
0
 10
148.122834
 20
7.475787
 42
0.158573
  0
VERTEX
  8
0
 10
150.443296
 20
9.222506
 42
0.041534
  0
VERTEX
  8
0
 10
151.039477
 20
10.244723
 42
0.029084
  0
VERTEX
  8
0
 10
151.542718
 20
11.480147
 42
0.029472
  0
VERTEX
  8
0
 10
151.888081
 20
12.729287
 42
0.052753
  0
VERTEX
  8
0
 10
152.000000
 20
13.787125
 42
-0.055747
  0
VERTEX
  8
0
 10
152.136794
 20
15.010230
 42
-0.015277
  0
VERTEX
  8
0
 10
152.623674
 20
16.891010
 42
-0.015245
  0
VERTEX
  8
0
 10
153.310437
 20
19.003270
 42
-0.015356
  0
VERTEX
  8
0
 10
154.123144
 20
21.064619
 42
-0.015577
  0
VERTEX
  8
0
 10
155.400712
 20
23.796691
 42
-0.081012
  0
VERTEX
  8
0
 10
156.378141
 20
25.136611
 42
-0.129062
  0
VERTEX
  8
0
 10
157.502392
 20
25.783586
 42
-0.066468
  0
VERTEX
  8
0
 10
159.123144
 20
26.000000
 42
0.100091
  0
VERTEX
  8
0
 10
161.573707
 20
26.495521
 42
0.084533
  0
VERTEX
  8
0
 10
163.807578
 20
27.920122
 42
0.080043
  0
VERTEX
  8
0
 10
165.541053
 20
30.087211
 42
0.076290
  0
VERTEX
  8
0
 10
166.541758
 20
32.724564
 42
-0.040862
  0
VERTEX
  8
0
 10
167.008911
 20
34.278411
 42
-0.007341
  0
VERTEX
  8
0
 10
168.154789
 20
37.078753
 42
-0.007879
  0
VERTEX
  8
0
 10
169.600495
 20
40.326174
 42
-0.007050
  0
VERTEX
  8
0
 10
171.200722
 20
43.649915
 42
0.021726
  0
VERTEX
  8
0
 10
174.039873
 20
50.018597
 42
0.116558
  0
VERTEX
  8
0
 10
174.580645
 20
53.752192
 42
0.159523
  0
VERTEX
  8
0
 10
173.308694
 20
56.722385
 42
0.051597
  0
VERTEX
  8
0
 10
169.753263
 20
60.012781
 42
0.000000
  0
VERTEX
  8
0
 10
165.500000
 20
63.203381
 42
0.000000
  0
VERTEX
  8
0
 10
150.821315
 20
62.581792
 42
-0.003887
  0
VERTEX
  8
0
 10
143.424779
 20
62.326162
 42
-0.017145
  0
VERTEX
  8
0
 10
139.063803
 20
62.358933
 42
-0.023509
  0
VERTEX
  8
0
 10
136.305316
 20
62.604564
 42
-0.218607
  0
VERTEX
  8
0
 10
135.321315
 20
63.230101
 42
-0.099585
  0
VERTEX
  8
0
 10
134.974533
 20
64.109609
 42
-0.008836
  0
VERTEX
  8
0
 10
134.594386
 20
66.474436
 42
-0.011264
  0
VERTEX
  8
0
 10
134.251451
 20
69.338067
 42
-0.008544
  0
VERTEX
  8
0
 10
134.000000
 20
72.491382
 42
0.039580
  0
VERTEX
  8
0
 10
133.122680
 20
78.645508
 42
0.206880
  0
VERTEX
  8
0
 10
131.154830
 20
81.351706
 42
0.104913
  0
VERTEX
  8
0
 10
127.041080
 20
82.737853
 42
0.006891
  0
VERTEX
  8
0
 10
114.500000
 20
84.023568
 42
0.002066
  0
VERTEX
  8
0
 10
96.730050
 20
85.524240
 42
0.019608
  0
VERTEX
  8
0
 10
89.104498
 20
85.836354
 42
0.048814
  0
VERTEX
  8
0
 10
84.742933
 20
85.416996
 42
0.118897
  0
SEQEND
  0
ENDSEC
  0
EOF
