  0
SECTION
  2
HEADER
  9
$ACADVER
  1
AC1006
  9
$EXTMIN
 10
0.000000
 20
0.000000
 30
0.000000
  9
$EXTMAX
 10
196.000000
 20
97.000000
 30
0.000000
  0
ENDSEC
  0
SECTION
  2
ENTITIES
  0
POLYLINE
  8
0
 66
1
 70
1
  0
VERTEX
  8
0
 10
88.708942
 20
95.566085
 42
0.111874
  0
VERTEX
  8
0
 10
87.833431
 20
94.177589
 42
0.051381
  0
VERTEX
  8
0
 10
87.328187
 20
92.086596
 42
0.027863
  0
VERTEX
  8
0
 10
87.067241
 20
88.777804
 42
0.005748
  0
VERTEX
  8
0
 10
87.000000
 20
82.928571
 42
0.000000
  0
VERTEX
  8
0
 10
87.000000
 20
72.000000
 42
0.000000
  0
VERTEX
  8
0
 10
83.737128
 20
72.000000
 42
-0.037112
  0
VERTEX
  8
0
 10
82.129310
 20
72.119503
 42
-0.084832
  0
VERTEX
  8
0
 10
80.977983
 20
72.498028
 42
-0.100275
  0
VERTEX
  8
0
 10
80.136456
 20
73.188027
 42
-0.067778
  0
VERTEX
  8
0
 10
79.487128
 20
74.250000
 42
0.081622
  0
VERTEX
  8
0
 10
78.745592
 20
75.390965
 42
0.105345
  0
VERTEX
  8
0
 10
77.732379
 20
76.116878
 42
0.068838
  0
VERTEX
  8
0
 10
76.183091
 20
76.552842
 42
0.018342
  0
VERTEX
  8
0
 10
73.625641
 20
76.809870
 42
0.025040
  0
VERTEX
  8
0
 10
70.599205
 20
76.850477
 42
0.101986
  0
VERTEX
  8
0
 10
68.820892
 20
76.415441
 42
0.081839
  0
VERTEX
  8
0
 10
67.165345
 20
75.266939
 42
0.012792
  0
VERTEX
  8
0
 10
64.372303
 20
72.417449
 42
0.000000
  0
VERTEX
  8
0
 10
59.993324
 20
67.715158
 42
0.000000
  0
VERTEX
  8
0
 10
57.544411
 20
70.357579
 42
0.083279
  0
VERTEX
  8
0
 10
54.868254
 20
72.422627
 42
0.191617
  0
VERTEX
  8
0
 10
52.384075
 20
72.703009
 42
0.222160
  0
VERTEX
  8
0
 10
50.638283
 20
71.222152
 42
0.107942
  0
VERTEX
  8
0
 10
50.000000
 20
68.300000
 42
-0.137598
  0
VERTEX
  8
0
 10
49.634836
 20
66.998198
 42
-0.201068
  0
VERTEX
  8
0
 10
48.683006
 20
66.308576
 42
-0.054111
  0
VERTEX
  8
0
 10
46.526923
 20
66.044144
 42
-0.003480
  0
VERTEX
  8
0
 10
40.183659
 20
66.000000
 42
0.017042
  0
VERTEX
  8
0
 10
31.236370
 20
65.694957
 42
0.032561
  0
VERTEX
  8
0
 10
24.111798
 20
64.739887
 42
0.037536
  0
VERTEX
  8
0
 10
17.884302
 20
62.993602
 42
0.033541
  0
VERTEX
  8
0
 10
11.739579
 20
60.282736
 42
0.014221
  0
VERTEX
  8
0
 10
8.063181
 20
58.221570
 42
0.049234
  0
VERTEX
  8
0
 10
5.873862
 20
56.598969
 42
0.064935
  0
VERTEX
  8
0
 10
4.373135
 20
54.834900
 42
0.039709
  0
VERTEX
  8
0
 10
3.071128
 20
52.427893
 42
0.032616
  0
VERTEX
  8
0
 10
1.422554
 20
47.929255
 42
0.066152
  0
VERTEX
  8
0
 10
0.845658
 20
44.211425
 42
0.089021
  0
VERTEX
  8
0
 10
1.311421
 20
41.245040
 42
0.122471
  0
VERTEX
  8
0
 10
2.777777
 20
38.992405
 42
-0.080878
  0
VERTEX
  8
0
 10
4.000838
 20
37.414451
 42
-0.082221
  0
VERTEX
  8
0
 10
4.651453
 20
35.538818
 42
-0.037639
  0
VERTEX
  8
0
 10
4.937226
 20
32.526187
 42
-0.004833
  0
VERTEX
  8
0
 10
5.000000
 20
26.032473
 42
0.006760
  0
VERTEX
  8
0
 10
5.070438
 20
20.822383
 42
0.021031
  0
VERTEX
  8
0
 10
5.312815
 20
17.320004
 42
0.028788
  0
VERTEX
  8
0
 10
5.716213
 20
14.951634
 42
0.140700
  0
VERTEX
  8
0
 10
6.368068
 20
13.774789
 42
-0.041221
  0
VERTEX
  8
0
 10
6.940743
 20
13.099013
 42
-0.022659
  0
VERTEX
  8
0
 10
7.530975
 20
12.188816
 42
-0.022448
  0
VERTEX
  8
0
 10
8.049743
 20
11.204638
 42
-0.033232
  0
VERTEX
  8
0
 10
8.405784
 20
10.296849
 42
0.162859
  0
VERTEX
  8
0
 10
9.629067
 20
8.619844
 42
0.039344
  0
VERTEX
  8
0
 10
12.618006
 20
6.832043
 42
0.040638
  0
VERTEX
  8
0
 10
16.085894
 20
5.450257
 42
0.074623
  0
VERTEX
  8
0
 10
19.085978
 20
5.000000
 42
0.074062
  0
VERTEX
  8
0
 10
21.261505
 20
5.324027
 42
0.055199
  0
VERTEX
  8
0
 10
23.494003
 20
6.283733
 42
0.050286
  0
VERTEX
  8
0
 10
25.659422
 20
7.819110
 42
0.041356
  0
VERTEX
  8
0
 10
27.634607
 20
9.852519
 42
0.000000
  0
VERTEX
  8
0
 10
29.769214
 20
12.448325
 42
0.000000
  0
VERTEX
  8
0
 10
53.455042
 20
12.841579
 42
0.001707
  0
VERTEX
  8
0
 10
67.778376
 20
13.128294
 42
0.016963
  0
VERTEX
  8
0
 10
73.776746
 20
13.472684
 42
0.041929
  0
VERTEX
  8
0
 10
77.083755
 20
14.057672
 42
0.141402
  0
VERTEX
  8
0
 10
78.948353
 20
15.174938
 42
-0.020452
  0
VERTEX
  8
0
 10
80.114092
 20
16.327869
 42
-0.359332
  0
VERTEX
  8
0
 10
80.608310
 20
16.352129
 42
-0.182598
  0
VERTEX
  8
0
 10
80.962079
 20
15.798619
 42
-0.006667
  0
VERTEX
  8
0
 10
81.451894
 20
13.307522
 42
0.022329
  0
VERTEX
  8
0
 10
81.823850
 20
11.685847
 42
0.017417
  0
VERTEX
  8
0
 10
82.366676
 20
9.961300
 42
0.017736
  0
VERTEX
  8
0
 10
82.986412
 20
8.388006
 42
0.040375
  0
VERTEX
  8
0
 10
83.588601
 20
7.262863
 42
0.093972
  0
VERTEX
  8
0
 10
85.686249
 20
5.053734
 42
0.045108
  0
VERTEX
  8
0
 10
89.064287
 20
3.057527
 42
0.040840
  0
VERTEX
  8
0
 10
93.237174
 20
1.477590
 42
0.036360
  0
VERTEX
  8
0
 10
97.776707
 20
0.521320
 42
0.051454
  0
VERTEX
  8
0
 10
102.172013
 20
0.380127
 42
0.114401
  0
VERTEX
  8
0
 10
105.354528
 20
1.359427
 42
0.108014
  0
VERTEX
  8
0
 10
107.894294
 20
3.685568
 42
0.042852
  0
VERTEX
  8
0
 10
110.292061
 20
7.792702
 42
0.000000
  0
VERTEX
  8
0
 10
112.524147
 20
12.500000
 42
0.000000
  0
VERTEX
  8
0
 10
129.012074
 20
13.164834
 42
0.002272
  0
VERTEX
  8
0
 10
135.764489
 20
13.467847
 42
0.002370
  0
VERTEX
  8
0
 10
142.419172
 20
13.828413
 42
0.002277
  0
VERTEX
  8
0
 10
148.167766
 20
14.193500
 42
0.010419
  0
VERTEX
  8
0
 10
151.500000
 20
14.490232
 42
-0.008839
  0
VERTEX
  8
0
 10
155.381543
 20
14.848243
 42
-0.094799
  0
VERTEX
  8
0
 10
156.944858
 20
14.668081
 42
-0.155970
  0
VERTEX
  8
0
 10
157.998673
 20
13.926491
 42
-0.035588
  0
VERTEX
  8
0
 10
159.203490
 20
12.075398
 42
0.103545
  0
VERTEX
  8
0
 10
160.993634
 20
10.001914
 42
0.127634
  0
VERTEX
  8
0
 10
163.340639
 20
9.014173
 42
0.113338
  0
VERTEX
  8
0
 10
166.091521
 20
9.238191
 42
0.070231
  0
VERTEX
  8
0
 10
169.027494
 20
10.646304
 42
0.044220
  0
VERTEX
  8
0
 10
171.702499
 20
12.791023
 42
0.104037
  0
VERTEX
  8
0
 10
173.138879
 20
14.893861
 42
0.079556
  0
VERTEX
  8
0
 10
173.816576
 20
17.747501
 42
0.018599
  0
VERTEX
  8
0
 10
174.000000
 20
22.676734
 42
0.000000
  0
VERTEX
  8
0
 10
174.000000
 20
29.971210
 42
0.000000
  0
VERTEX
  8
0
 10
180.033842
 20
33.017083
 42
0.038083
  0
VERTEX
  8
0
 10
184.174357
 20
35.519382
 42
0.061866
  0
VERTEX
  8
0
 10
187.196089
 20
38.296899
 42
0.067226
  0
VERTEX
  8
0
 10
189.278259
 20
41.547806
 42
0.055130
  0
VERTEX
  8
0
 10
190.597480
 20
45.459620
 42
-0.050223
  0
VERTEX
  8
0
 10
191.032609
 20
46.792834
 42
-0.029314
  0
VERTEX
  8
0
 10
191.801404
 20
48.289786
 42
-0.029069
  0
VERTEX
  8
0
 10
192.756574
 20
49.712728
 42
-0.043192
  0
VERTEX
  8
0
 10
193.763082
 20
50.824758
 42
0.042289
  0
VERTEX
  8
0
 10
195.124519
 20
52.323487
 42
0.102962
  0
VERTEX
  8
0
 10
195.767623
 20
53.662650
 42
0.072637
  0
VERTEX
  8
0
 10
195.939870
 20
55.423947
 42
0.013829
  0
VERTEX
  8
0
 10
195.697312
 20
58.643825
 42
0.016089
  0
VERTEX
  8
0
 10
195.398140
 20
60.846106
 42
0.018586
  0
VERTEX
  8
0
 10
194.968315
 20
62.920008
 42
0.017933
  0
VERTEX
  8
0
 10
194.480087
 20
64.634717
 42
0.095154
  0
VERTEX
  8
0
 10
194.011923
 20
65.485634
 42
0.180208
  0
VERTEX
  8
0
 10
192.815378
 20
66.173087
 42
0.017706
  0
VERTEX
  8
0
 10
189.461910
 20
66.609751
 42
0.014662
  0
VERTEX
  8
0
 10
184.365002
 20
66.940256
 42
0.003866
  0
VERTEX
  8
0
 10
176.196799
 20
67.166567
 42
0.000000
  0
VERTEX
  8
0
 10
159.500000
 20
67.500000
 42
0.000000
  0
VERTEX
  8
0
 10
155.251644
 20
71.500000
 42
-0.017331
  0
VERTEX
  8
0
 10
152.693200
 20
74.081875
 42
-0.086822
  0
VERTEX
  8
0
 10
151.593621
 20
75.786202
 42
-0.084266
  0
VERTEX
  8
0
 10
151.121976
 20
77.785879
 42
-0.015807
  0
VERTEX
  8
0
 10
151.001644
 20
81.558870
 42
0.025619
  0
VERTEX
  8
0
 10
150.785252
 20
85.757108
 42
0.090405
  0
VERTEX
  8
0
 10
150.033839
 20
88.340588
 42
0.099482
  0
VERTEX
  8
0
 10
148.462003
 20
90.358887
 42
0.034796
  0
VERTEX
  8
0
 10
145.500000
 20
92.569970
 42
0.069597
  0
VERTEX
  8
0
 10
143.307867
 20
93.582530
 42
0.035909
  0
VERTEX
  8
0
 10
140.355132
 20
94.248874
 42
0.021143
  0
VERTEX
  8
0
 10
135.938185
 20
94.727248
 42
0.004942
  0
VERTEX
  8
0
 10
128.500000
 20
95.142124
 42
-0.001118
  0
VERTEX
  8
0
 10
122.263297
 20
95.442148
 42
-0.000732
  0
VERTEX
  8
0
 10
115.075439
 20
95.814582
 42
-0.000736
  0
VERTEX
  8
0
 10
108.073333
 20
96.198003
 42
-0.001412
  0
VERTEX
  8
0
 10
102.458942
 20
96.529637
 42
0.004052
  0
VERTEX
  8
0
 10
95.519460
 20
96.902798
 42
0.028903
  0
VERTEX
  8
0
 10
92.157164
 20
96.861871
 42
0.064440
  0
VERTEX
  8
0
 10
90.139249
 20
96.455624
 42
0.115011
  0
SEQEND
  0
ENDSEC
  0
EOF
