  0
SECTION
  2
HEADER
  9
$ACADVER
  1
AC1006
  9
$EXTMIN
 10
0.000000
 20
0.000000
 30
0.000000
  9
$EXTMAX
 10
191.000000
 20
95.000000
 30
0.000000
  0
ENDSEC
  0
SECTION
  2
ENTITIES
  0
POLYLINE
  8
0
 66
1
 70
1
  0
VERTEX
  8
0
 10
89.223264
 20
94.328807
 42
0.168786
  0
VERTEX
  8
0
 10
87.246283
 20
92.606427
 42
0.039770
  0
VERTEX
  8
0
 10
85.351171
 20
88.582993
 42
0.037609
  0
VERTEX
  8
0
 10
83.849605
 20
83.467551
 42
0.033830
  0
VERTEX
  8
0
 10
83.064048
 20
78.000000
 42
-0.006281
  0
VERTEX
  8
0
 10
82.656812
 20
73.364526
 42
-0.068885
  0
VERTEX
  8
0
 10
82.217796
 20
71.552831
 42
-0.178238
  0
VERTEX
  8
0
 10
81.425295
 20
70.663816
 42
-0.095142
  0
VERTEX
  8
0
 10
80.000000
 20
70.222533
 42
-0.068301
  0
VERTEX
  8
0
 10
78.710433
 20
70.255884
 42
-0.104651
  0
VERTEX
  8
0
 10
77.672189
 20
70.659526
 42
-0.085844
  0
VERTEX
  8
0
 10
76.749696
 20
71.519958
 42
-0.034113
  0
VERTEX
  8
0
 10
75.796510
 20
72.972533
 42
0.041403
  0
VERTEX
  8
0
 10
74.634727
 20
74.688010
 42
0.124043
  0
VERTEX
  8
0
 10
73.512454
 20
75.533978
 42
0.086178
  0
VERTEX
  8
0
 10
71.887170
 20
75.909681
 42
0.013811
  0
VERTEX
  8
0
 10
68.617939
 20
76.000000
 42
0.033987
  0
VERTEX
  8
0
 10
64.876804
 20
75.745405
 42
0.092411
  0
VERTEX
  8
0
 10
62.365878
 20
74.912771
 42
0.116577
  0
VERTEX
  8
0
 10
60.666711
 20
73.371845
 42
0.073824
  0
VERTEX
  8
0
 10
59.486739
 20
70.958218
 42
-0.086285
  0
VERTEX
  8
0
 10
58.961941
 20
69.948884
 42
-0.138281
  0
VERTEX
  8
0
 10
58.190903
 20
69.369573
 42
-0.086958
  0
VERTEX
  8
0
 10
56.961093
 20
69.125322
 42
-0.020381
  0
VERTEX
  8
0
 10
54.853546
 20
69.163639
 42
0.053317
  0
VERTEX
  8
0
 10
52.083818
 20
69.031707
 42
0.132179
  0
VERTEX
  8
0
 10
50.241808
 20
68.215808
 42
0.174342
  0
VERTEX
  8
0
 10
49.358530
 20
66.761407
 42
0.109378
  0
VERTEX
  8
0
 10
49.393377
 20
64.750000
 42
-0.226168
  0
VERTEX
  8
0
 10
49.150841
 20
63.610085
 42
-0.189150
  0
VERTEX
  8
0
 10
48.081031
 20
62.965284
 42
-0.047056
  0
VERTEX
  8
0
 10
45.466297
 20
62.770139
 42
-0.004162
  0
VERTEX
  8
0
 10
38.842748
 20
62.954793
 42
0.020458
  0
VERTEX
  8
0
 10
34.942163
 20
62.936399
 42
0.044513
  0
VERTEX
  8
0
 10
31.978187
 20
62.535038
 42
0.038297
  0
VERTEX
  8
0
 10
28.868851
 20
61.572806
 42
0.011773
  0
VERTEX
  8
0
 10
24.342748
 20
59.658034
 42
-0.008221
  0
VERTEX
  8
0
 10
20.981472
 20
58.207810
 42
-0.006864
  0
VERTEX
  8
0
 10
17.366655
 20
56.775927
 42
-0.006937
  0
VERTEX
  8
0
 10
14.023161
 20
55.557158
 42
-0.018725
  0
VERTEX
  8
0
 10
11.607567
 20
54.814608
 42
0.027041
  0
VERTEX
  8
0
 10
9.010115
 20
53.968650
 42
0.061764
  0
VERTEX
  8
0
 10
7.197227
 20
52.996333
 42
0.065110
  0
VERTEX
  8
0
 10
5.734425
 20
51.645292
 42
0.033002
  0
VERTEX
  8
0
 10
4.256866
 20
49.614850
 42
0.013254
  0
VERTEX
  8
0
 10
3.238385
 20
47.902553
 42
0.010077
  0
VERTEX
  8
0
 10
2.210912
 20
45.975910
 42
0.010209
  0
VERTEX
  8
0
 10
1.320157
 20
44.128877
 42
0.023382
  0
VERTEX
  8
0
 10
0.743954
 20
42.695350
 42
0.027990
  0
VERTEX
  8
0
 10
0.251061
 20
40.977789
 42
0.113041
  0
VERTEX
  8
0
 10
0.252826
 20
39.894714
 42
0.127060
  0
VERTEX
  8
0
 10
0.723653
 20
38.989280
 42
0.039484
  0
VERTEX
  8
0
 10
1.844655
 20
37.924707
 42
-0.088947
  0
VERTEX
  8
0
 10
3.013987
 20
36.571711
 42
-0.087414
  0
VERTEX
  8
0
 10
3.649222
 20
34.888655
 42
-0.040930
  0
VERTEX
  8
0
 10
3.935187
 20
32.167334
 42
-0.005721
  0
VERTEX
  8
0
 10
4.000000
 20
26.503085
 42
0.000000
  0
VERTEX
  8
0
 10
4.000000
 20
16.826755
 42
0.000000
  0
VERTEX
  8
0
 10
9.544719
 20
11.413377
 42
0.010393
  0
VERTEX
  8
0
 10
13.072272
 20
8.109762
 42
0.068383
  0
VERTEX
  8
0
 10
15.071512
 20
6.755790
 42
0.090193
  0
VERTEX
  8
0
 10
17.127160
 20
6.167270
 42
0.024739
  0
VERTEX
  8
0
 10
20.505763
 20
6.000000
 42
0.017966
  0
VERTEX
  8
0
 10
23.314253
 20
6.100946
 42
0.052528
  0
VERTEX
  8
0
 10
25.219702
 20
6.441413
 42
0.071849
  0
VERTEX
  8
0
 10
26.656293
 20
7.091981
 42
0.063108
  0
VERTEX
  8
0
 10
27.922226
 20
8.146895
 42
-0.134246
  0
VERTEX
  8
0
 10
29.945802
 20
9.398375
 42
-0.057558
  0
VERTEX
  8
0
 10
33.102626
 20
9.946735
 42
-0.018013
  0
VERTEX
  8
0
 10
39.079984
 20
10.072161
 42
-0.001177
  0
VERTEX
  8
0
 10
56.385394
 20
9.771107
 42
0.002376
  0
VERTEX
  8
0
 10
68.837416
 20
9.584349
 42
0.008011
  0
VERTEX
  8
0
 10
76.979748
 20
9.631382
 42
0.005828
  0
VERTEX
  8
0
 10
82.745534
 20
9.824344
 42
0.178888
  0
VERTEX
  8
0
 10
84.049213
 20
10.374213
 42
-0.045408
  0
VERTEX
  8
0
 10
84.583143
 20
10.790673
 42
-0.123648
  0
VERTEX
  8
0
 10
85.034022
 20
10.942907
 42
-0.191007
  0
VERTEX
  8
0
 10
85.382943
 20
10.835777
 42
-0.134610
  0
VERTEX
  8
0
 10
85.626645
 20
10.500000
 42
0.026307
  0
VERTEX
  8
0
 10
87.316059
 20
6.642730
 42
0.064250
  0
VERTEX
  8
0
 10
89.047854
 20
4.077061
 42
0.078489
  0
VERTEX
  8
0
 10
91.139180
 20
2.343706
 42
0.057324
  0
VERTEX
  8
0
 10
93.897657
 20
1.108886
 42
0.053506
  0
VERTEX
  8
0
 10
98.004004
 20
0.278791
 42
0.124352
  0
VERTEX
  8
0
 10
101.085369
 20
0.759895
 42
0.121480
  0
VERTEX
  8
0
 10
103.613596
 20
2.658399
 42
0.049838
  0
VERTEX
  8
0
 10
106.000000
 20
6.258764
 42
-0.016044
  0
VERTEX
  8
0
 10
107.557218
 20
8.992245
 42
-0.090181
  0
VERTEX
  8
0
 10
108.673779
 20
10.240439
 42
-0.123908
  0
VERTEX
  8
0
 10
109.989040
 20
10.819254
 42
-0.041826
  0
VERTEX
  8
0
 10
112.091069
 20
10.997106
 42
0.030364
  0
VERTEX
  8
0
 10
113.813115
 20
11.103170
 42
0.013403
  0
VERTEX
  8
0
 10
116.069260
 20
11.441907
 42
0.013208
  0
VERTEX
  8
0
 10
118.448757
 20
11.929819
 42
0.017313
  0
VERTEX
  8
0
 10
120.591069
 20
12.507258
 42
-0.009695
  0
VERTEX
  8
0
 10
127.279330
 20
14.419768
 42
-0.010987
  0
VERTEX
  8
0
 10
133.764475
 20
15.987258
 42
-0.011752
  0
VERTEX
  8
0
 10
139.831007
 20
17.164550
 42
-0.016927
  0
VERTEX
  8
0
 10
145.250000
 20
17.896887
 42
-0.005273
  0
VERTEX
  8
0
 10
149.518503
 20
18.281803
 42
-0.074146
  0
VERTEX
  8
0
 10
151.049544
 20
18.176557
 42
-0.238409
  0
VERTEX
  8
0
 10
151.746226
 20
17.607700
 42
-0.104877
  0
VERTEX
  8
0
 10
152.000000
 20
16.411148
 42
0.199953
  0
VERTEX
  8
0
 10
153.241895
 20
13.429840
 42
0.134096
  0
VERTEX
  8
0
 10
156.498518
 20
11.587672
 42
0.101068
  0
VERTEX
  8
0
 10
161.080700
 20
11.373347
 42
0.079424
  0
VERTEX
  8
0
 10
165.821020
 20
12.908691
 42
0.046679
  0
VERTEX
  8
0
 10
169.069711
 20
14.968312
 42
0.073102
  0
VERTEX
  8
0
 10
171.360708
 20
17.347450
 42
0.073703
  0
VERTEX
  8
0
 10
172.858047
 20
20.270214
 42
0.048279
  0
VERTEX
  8
0
 10
173.721715
 20
23.961901
 42
-0.021606
  0
VERTEX
  8
0
 10
174.075368
 20
25.944319
 42
-0.078688
  0
VERTEX
  8
0
 10
174.544358
 20
27.129535
 42
-0.134328
  0
VERTEX
  8
0
 10
175.202055
 20
27.767147
 42
-0.126376
  0
VERTEX
  8
0
 10
176.108616
 20
28.000000
 42
0.181916
  0
VERTEX
  8
0
 10
177.919954
 20
28.681579
 42
0.073972
  0
VERTEX
  8
0
 10
179.650859
 20
30.722758
 42
0.056918
  0
VERTEX
  8
0
 10
181.120011
 20
33.827802
 42
0.035899
  0
VERTEX
  8
0
 10
182.138348
 20
37.711146
 42
-0.020828
  0
VERTEX
  8
0
 10
182.583352
 20
39.643538
 42
-0.018711
  0
VERTEX
  8
0
 10
183.201317
 20
41.603640
 42
-0.019109
  0
VERTEX
  8
0
 10
183.888951
 20
43.320072
 42
-0.054395
  0
VERTEX
  8
0
 10
184.536817
 20
44.431053
 42
0.007988
  0
VERTEX
  8
0
 10
189.494311
 20
51.365772
 42
0.097161
  0
VERTEX
  8
0
 10
190.793676
 20
54.347573
 42
0.189803
  0
VERTEX
  8
0
 10
190.405368
 20
56.786249
 42
0.047760
  0
VERTEX
  8
0
 10
187.995680
 20
60.101686
 42
-0.000742
  0
VERTEX
  8
0
 10
186.735770
 20
61.531093
 42
-0.000667
  0
VERTEX
  8
0
 10
185.434523
 20
63.015808
 42
-0.000668
  0
VERTEX
  8
0
 10
184.270842
 20
64.350736
 42
-0.002108
  0
VERTEX
  8
0
 10
183.495680
 20
65.250000
 42
0.141960
  0
VERTEX
  8
0
 10
182.058076
 20
66.195079
 42
0.049072
  0
VERTEX
  8
0
 10
179.599400
 20
66.697208
 42
0.022639
  0
VERTEX
  8
0
 10
175.359698
 20
66.943903
 42
0.003213
  0
VERTEX
  8
0
 10
166.629961
 20
67.000000
 42
0.000000
  0
VERTEX
  8
0
 10
151.259922
 20
67.000000
 42
0.000000
  0
VERTEX
  8
0
 10
150.134784
 20
71.250000
 42
-0.018019
  0
VERTEX
  8
0
 10
149.684894
 20
73.236042
 42
-0.009629
  0
VERTEX
  8
0
 10
149.265301
 20
75.717991
 42
-0.009574
  0
VERTEX
  8
0
 10
148.933894
 20
78.271365
 42
-0.014732
  0
VERTEX
  8
0
 10
148.754823
 20
80.492097
 42
0.064680
  0
VERTEX
  8
0
 10
148.085328
 20
84.167490
 42
0.161186
  0
VERTEX
  8
0
 10
146.498044
 20
86.349154
 42
0.092917
  0
VERTEX
  8
0
 10
143.301987
 20
87.841671
 42
0.013465
  0
VERTEX
  8
0
 10
136.265695
 20
89.449584
 42
-0.000852
  0
VERTEX
  8
0
 10
132.973225
 20
90.115064
 42
-0.000359
  0
VERTEX
  8
0
 10
128.549923
 20
91.020267
 42
-0.000355
  0
VERTEX
  8
0
 10
123.823813
 20
91.994472
 42
-0.000463
  0
VERTEX
  8
0
 10
119.500000
 20
92.893128
 42
0.025262
  0
VERTEX
  8
0
 10
111.674903
 20
94.118494
 42
0.014360
  0
VERTEX
  8
0
 10
102.118122
 20
94.847180
 42
0.011004
  0
VERTEX
  8
0
 10
93.118062
 20
95.075619
 42
0.096708
  0
SEQEND
  0
ENDSEC
  0
EOF
