  0
SECTION
  2
HEADER
  9
$ACADVER
  1
AC1006
  9
$EXTMIN
 10
0.000000
 20
0.000000
 30
0.000000
  9
$EXTMAX
 10
170.000000
 20
77.000000
 30
0.000000
  0
ENDSEC
  0
SECTION
  2
ENTITIES
  0
POLYLINE
  8
0
 66
1
 70
1
  0
VERTEX
  8
0
 10
81.947211
 20
73.182505
 42
0.026647
  0
VERTEX
  8
0
 10
80.440093
 20
71.505578
 42
0.024209
  0
VERTEX
  8
0
 10
79.067682
 20
69.624976
 42
0.024974
  0
VERTEX
  8
0
 10
78.006062
 20
67.821707
 42
0.068193
  0
VERTEX
  8
0
 10
77.505297
 20
66.432505
 42
-0.013387
  0
VERTEX
  8
0
 10
77.208107
 20
65.199778
 42
-0.011519
  0
VERTEX
  8
0
 10
76.831485
 20
63.920798
 42
-0.011668
  0
VERTEX
  8
0
 10
76.435770
 20
62.775787
 42
-0.032513
  0
VERTEX
  8
0
 10
76.088311
 20
62.000000
 42
-0.149514
  0
VERTEX
  8
0
 10
74.952696
 20
60.858742
 42
-0.080991
  0
VERTEX
  8
0
 10
73.061709
 20
60.212261
 42
-0.081696
  0
VERTEX
  8
0
 10
71.080973
 20
60.202833
 42
-0.158079
  0
VERTEX
  8
0
 10
69.684665
 20
60.915335
 42
0.140334
  0
VERTEX
  8
0
 10
68.215273
 20
61.730611
 42
0.113284
  0
VERTEX
  8
0
 10
66.403116
 20
61.734412
 42
0.049878
  0
VERTEX
  8
0
 10
63.633980
 20
60.806963
 42
0.007711
  0
VERTEX
  8
0
 10
58.384792
 20
58.346803
 42
0.014486
  0
VERTEX
  8
0
 10
54.986635
 20
56.566158
 42
0.027930
  0
VERTEX
  8
0
 10
52.396948
 20
54.915443
 42
0.035145
  0
VERTEX
  8
0
 10
50.541836
 20
53.373134
 42
0.082612
  0
VERTEX
  8
0
 10
49.466396
 20
51.935018
 42
0.000000
  0
VERTEX
  8
0
 10
48.039875
 20
49.176429
 42
0.000000
  0
VERTEX
  8
0
 10
32.269937
 20
48.838215
 42
0.003565
  0
VERTEX
  8
0
 10
23.017547
 20
48.573766
 42
0.023940
  0
VERTEX
  8
0
 10
18.438594
 20
48.190191
 42
0.047728
  0
VERTEX
  8
0
 10
15.417291
 20
47.492873
 42
0.052938
  0
VERTEX
  8
0
 10
12.692840
 20
46.250000
 42
-0.019224
  0
VERTEX
  8
0
 10
11.098706
 20
45.388769
 42
-0.019755
  0
VERTEX
  8
0
 10
9.457349
 20
44.660937
 42
-0.019942
  0
VERTEX
  8
0
 10
7.988919
 20
44.144809
 42
-0.074667
  0
VERTEX
  8
0
 10
7.024627
 20
44.000000
 42
0.106041
  0
VERTEX
  8
0
 10
3.083326
 20
43.154612
 42
0.221500
  0
VERTEX
  8
0
 10
1.077564
 20
40.831642
 42
0.096145
  0
VERTEX
  8
0
 10
0.680417
 20
36.147803
 42
0.012842
  0
VERTEX
  8
0
 10
1.999120
 20
26.275858
 42
0.008630
  0
VERTEX
  8
0
 10
3.776556
 20
16.266059
 42
0.023400
  0
VERTEX
  8
0
 10
5.488174
 20
9.265399
 42
0.032166
  0
VERTEX
  8
0
 10
7.255642
 20
4.436753
 42
0.109304
  0
VERTEX
  8
0
 10
9.226729
 20
1.750000
 42
0.154573
  0
VERTEX
  8
0
 10
13.025793
 20
0.083466
 42
0.085180
  0
VERTEX
  8
0
 10
18.137131
 20
0.407326
 42
0.075404
  0
VERTEX
  8
0
 10
23.462214
 20
2.557418
 42
0.077009
  0
VERTEX
  8
0
 10
27.867002
 20
6.177974
 42
0.000000
  0
VERTEX
  8
0
 10
30.834523
 20
9.500000
 42
0.000000
  0
VERTEX
  8
0
 10
48.417261
 20
9.848951
 42
-0.001758
  0
VERTEX
  8
0
 10
59.651158
 20
10.032385
 42
-0.026284
  0
VERTEX
  8
0
 10
63.570171
 20
9.876538
 42
-0.103810
  0
VERTEX
  8
0
 10
65.347984
 20
9.328190
 42
-0.272654
  0
VERTEX
  8
0
 10
66.000000
 20
8.221396
 42
0.135629
  0
VERTEX
  8
0
 10
66.590343
 20
6.085106
 42
0.162532
  0
VERTEX
  8
0
 10
68.166069
 20
4.732569
 42
0.088676
  0
VERTEX
  8
0
 10
71.081796
 20
4.110520
 42
0.022441
  0
VERTEX
  8
0
 10
75.946332
 20
4.166810
 42
0.015184
  0
VERTEX
  8
0
 10
79.478686
 20
4.474231
 42
0.035795
  0
VERTEX
  8
0
 10
82.074910
 20
4.970138
 42
0.045880
  0
VERTEX
  8
0
 10
84.145675
 20
5.730706
 42
0.048275
  0
VERTEX
  8
0
 10
86.005551
 20
6.845983
 42
-0.055172
  0
VERTEX
  8
0
 10
87.989261
 20
7.998718
 42
-0.039895
  0
VERTEX
  8
0
 10
90.405068
 20
8.843578
 42
-0.028415
  0
VERTEX
  8
0
 10
93.641899
 20
9.499257
 42
-0.010284
  0
VERTEX
  8
0
 10
98.298392
 20
10.072460
 42
0.004039
  0
VERTEX
  8
0
 10
102.219537
 20
10.505504
 42
0.003333
  0
VERTEX
  8
0
 10
106.393165
 20
11.028831
 42
0.003366
  0
VERTEX
  8
0
 10
110.216946
 20
11.560419
 42
0.008983
  0
VERTEX
  8
0
 10
112.933659
 20
12.006745
 42
-0.026911
  0
VERTEX
  8
0
 10
118.523215
 20
12.720412
 42
-0.017449
  0
VERTEX
  8
0
 10
125.036771
 20
12.969922
 42
-0.008477
  0
VERTEX
  8
0
 10
131.209710
 20
12.886208
 42
-0.405304
  0
VERTEX
  8
0
 10
132.000000
 20
12.071429
 42
0.183862
  0
VERTEX
  8
0
 10
132.657858
 20
10.342912
 42
0.110770
  0
VERTEX
  8
0
 10
134.461940
 20
9.047243
 42
0.070495
  0
VERTEX
  8
0
 10
137.444223
 20
8.249324
 42
0.030177
  0
VERTEX
  8
0
 10
141.571429
 20
8.000000
 42
0.034273
  0
VERTEX
  8
0
 10
146.270429
 20
8.322478
 42
0.107473
  0
VERTEX
  8
0
 10
149.225333
 20
9.404999
 42
0.118676
  0
VERTEX
  8
0
 10
151.297606
 20
11.545254
 42
0.046543
  0
VERTEX
  8
0
 10
153.059189
 20
15.287141
 42
-0.044475
  0
VERTEX
  8
0
 10
153.801001
 20
16.879895
 42
-0.051348
  0
VERTEX
  8
0
 10
154.783767
 20
18.235276
 42
-0.053012
  0
VERTEX
  8
0
 10
155.991639
 20
19.326932
 42
-0.053222
  0
VERTEX
  8
0
 10
157.400511
 20
20.138532
 42
0.066309
  0
VERTEX
  8
0
 10
158.971510
 20
21.098941
 42
0.049141
  0
VERTEX
  8
0
 10
160.421038
 20
22.531017
 42
0.039169
  0
VERTEX
  8
0
 10
161.836069
 20
24.534410
 42
0.019861
  0
VERTEX
  8
0
 10
163.308830
 20
27.250000
 42
-0.011725
  0
VERTEX
  8
0
 10
164.457826
 20
29.453402
 42
-0.017680
  0
VERTEX
  8
0
 10
165.569965
 20
31.310938
 42
-0.012676
  0
VERTEX
  8
0
 10
166.560312
 20
32.757958
 42
-0.240815
  0
VERTEX
  8
0
 10
167.033716
 20
33.000000
 42
0.153981
  0
VERTEX
  8
0
 10
167.448965
 20
33.130987
 42
0.044058
  0
VERTEX
  8
0
 10
167.971893
 20
33.570713
 42
0.039857
  0
VERTEX
  8
0
 10
168.505489
 20
34.199253
 42
0.033215
  0
VERTEX
  8
0
 10
168.969416
 20
34.942853
 42
0.136788
  0
VERTEX
  8
0
 10
169.443543
 20
37.068012
 42
0.099762
  0
VERTEX
  8
0
 10
168.838873
 20
39.423817
 42
0.091137
  0
VERTEX
  8
0
 10
167.291703
 20
41.537412
 42
0.091363
  0
VERTEX
  8
0
 10
165.095304
 20
42.960524
 42
-0.050234
  0
VERTEX
  8
0
 10
164.011064
 20
43.543144
 42
-0.037100
  0
VERTEX
  8
0
 10
162.940679
 20
44.387042
 42
-0.037847
  0
VERTEX
  8
0
 10
162.040098
 20
45.347294
 42
-0.066136
  0
VERTEX
  8
0
 10
161.475024
 20
46.278112
 42
0.080287
  0
VERTEX
  8
0
 10
160.758961
 20
47.386091
 42
0.103753
  0
VERTEX
  8
0
 10
159.782941
 20
48.097787
 42
0.071228
  0
VERTEX
  8
0
 10
158.321288
 20
48.519770
 42
0.021135
  0
VERTEX
  8
0
 10
156.000000
 20
48.744659
 42
-0.021798
  0
VERTEX
  8
0
 10
150.913441
 20
49.244250
 42
-0.014961
  0
VERTEX
  8
0
 10
145.199617
 20
50.233376
 42
-0.014384
  0
VERTEX
  8
0
 10
139.971902
 20
51.457948
 42
-0.051221
  0
VERTEX
  8
0
 10
136.759418
 20
52.671598
 42
-0.077164
  0
VERTEX
  8
0
 10
134.069563
 20
54.582150
 42
-0.086807
  0
VERTEX
  8
0
 10
132.212564
 20
57.150588
 42
-0.066073
  0
VERTEX
  8
0
 10
131.011987
 20
60.762953
 42
-0.026324
  0
VERTEX
  8
0
 10
130.301393
 20
65.944981
 42
0.051062
  0
VERTEX
  8
0
 10
129.044115
 20
72.638354
 42
0.220349
  0
VERTEX
  8
0
 10
126.438126
 20
75.600768
 42
0.097780
  0
VERTEX
  8
0
 10
121.106664
 20
76.796418
 42
0.006418
  0
VERTEX
  8
0
 10
105.247494
 20
77.000000
 42
0.000000
  0
VERTEX
  8
0
 10
85.764706
 20
77.000000
 42
0.000000
  0
SEQEND
  0
ENDSEC
  0
EOF
