  0
SECTION
  2
HEADER
  9
$ACADVER
  1
AC1006
  9
$EXTMIN
 10
0.000000
 20
0.000000
 30
0.000000
  9
$EXTMAX
 10
180.000000
 20
81.000000
 30
0.000000
  0
ENDSEC
  0
SECTION
  2
ENTITIES
  0
POLYLINE
  8
0
 66
1
 70
1
  0
VERTEX
  8
0
 10
82.125708
 20
77.665589
 42
0.030514
  0
VERTEX
  8
0
 10
80.361853
 20
75.586884
 42
0.059584
  0
VERTEX
  8
0
 10
79.276727
 20
73.707421
 42
0.053744
  0
VERTEX
  8
0
 10
78.600424
 20
71.499185
 42
0.020700
  0
VERTEX
  8
0
 10
78.125708
 20
68.324156
 42
0.000000
  0
VERTEX
  8
0
 10
77.500000
 20
62.500000
 42
0.000000
  0
VERTEX
  8
0
 10
74.000000
 20
62.723091
 42
-0.006714
  0
VERTEX
  8
0
 10
72.316812
 20
62.853093
 42
-0.002986
  0
VERTEX
  8
0
 10
70.101472
 20
63.067500
 42
-0.002954
  0
VERTEX
  8
0
 10
67.758704
 20
63.322366
 42
-0.003990
  0
VERTEX
  8
0
 10
65.643310
 20
63.582270
 42
0.020213
  0
VERTEX
  8
0
 10
62.966299
 20
63.823340
 42
0.061219
  0
VERTEX
  8
0
 10
61.144816
 20
63.690324
 42
0.072771
  0
VERTEX
  8
0
 10
59.588736
 20
63.139059
 42
0.037739
  0
VERTEX
  8
0
 10
57.839498
 20
62.039457
 42
-0.039354
  0
VERTEX
  8
0
 10
56.378434
 20
61.127568
 42
-0.045132
  0
VERTEX
  8
0
 10
54.856479
 20
60.503560
 42
-0.047411
  0
VERTEX
  8
0
 10
53.317553
 20
60.184952
 42
-0.053203
  0
VERTEX
  8
0
 10
51.805762
 20
60.180278
 42
0.037642
  0
VERTEX
  8
0
 10
50.289764
 20
60.222686
 42
0.083592
  0
VERTEX
  8
0
 10
49.164078
 20
59.977949
 42
0.099665
  0
VERTEX
  8
0
 10
48.305003
 20
59.415663
 42
0.071638
  0
VERTEX
  8
0
 10
47.609573
 20
58.500000
 42
-0.089527
  0
VERTEX
  8
0
 10
46.007204
 20
56.538986
 42
-0.122975
  0
VERTEX
  8
0
 10
43.977372
 20
55.527214
 42
-0.049408
  0
VERTEX
  8
0
 10
40.466115
 20
55.107567
 42
-0.004751
  0
VERTEX
  8
0
 10
31.855335
 20
55.015313
 42
0.019116
  0
VERTEX
  8
0
 10
20.653719
 20
54.573300
 42
0.049894
  0
VERTEX
  8
0
 10
12.729236
 20
53.152786
 42
0.071072
  0
VERTEX
  8
0
 10
7.058648
 20
50.627376
 42
0.096043
  0
VERTEX
  8
0
 10
2.970585
 20
46.800696
 42
0.045956
  0
VERTEX
  8
0
 10
0.959210
 20
43.407355
 42
0.093744
  0
VERTEX
  8
0
 10
0.177087
 20
40.422591
 42
0.087652
  0
VERTEX
  8
0
 10
0.515516
 20
37.227345
 42
0.036415
  0
VERTEX
  8
0
 10
2.021962
 20
33.140796
 42
-0.034777
  0
VERTEX
  8
0
 10
2.924918
 20
30.715823
 42
-0.030069
  0
VERTEX
  8
0
 10
3.535829
 20
28.068640
 42
-0.026057
  0
VERTEX
  8
0
 10
3.886251
 20
25.023875
 42
-0.015622
  0
VERTEX
  8
0
 10
4.000000
 20
21.384183
 42
0.009226
  0
VERTEX
  8
0
 10
4.079633
 20
17.068858
 42
0.054702
  0
VERTEX
  8
0
 10
4.407951
 20
14.839177
 42
0.093551
  0
VERTEX
  8
0
 10
5.135585
 20
13.301784
 42
0.056682
  0
VERTEX
  8
0
 10
6.500000
 20
11.813051
 42
-0.026552
  0
VERTEX
  8
0
 10
7.456901
 20
10.887415
 42
-0.030343
  0
VERTEX
  8
0
 10
8.265625
 20
9.904030
 42
-0.031717
  0
VERTEX
  8
0
 10
8.838302
 20
8.998990
 42
-0.125846
  0
VERTEX
  8
0
 10
9.000000
 20
8.366718
 42
0.088451
  0
VERTEX
  8
0
 10
9.361275
 20
6.340464
 42
0.054483
  0
VERTEX
  8
0
 10
10.443391
 20
4.165892
 42
0.054510
  0
VERTEX
  8
0
 10
11.968647
 20
2.277868
 42
0.088945
  0
VERTEX
  8
0
 10
13.657325
 20
1.110272
 42
0.097651
  0
VERTEX
  8
0
 10
18.034457
 20
0.072263
 42
0.089694
  0
VERTEX
  8
0
 10
22.620421
 20
0.722032
 42
0.096922
  0
VERTEX
  8
0
 10
26.400745
 20
2.850994
 42
0.140241
  0
VERTEX
  8
0
 10
28.508279
 20
6.026085
 42
-0.225864
  0
VERTEX
  8
0
 10
29.566789
 20
7.158670
 42
-0.069892
  0
VERTEX
  8
0
 10
31.896504
 20
7.717354
 42
-0.022230
  0
VERTEX
  8
0
 10
36.556674
 20
7.956886
 42
-0.001726
  0
VERTEX
  8
0
 10
49.048336
 20
8.000000
 42
0.000000
  0
VERTEX
  8
0
 10
68.961896
 20
8.000000
 42
0.000000
  0
VERTEX
  8
0
 10
69.595211
 20
5.476671
 42
0.110375
  0
VERTEX
  8
0
 10
70.960863
 20
2.759766
 42
0.131208
  0
VERTEX
  8
0
 10
73.283103
 20
1.086971
 42
0.074069
  0
VERTEX
  8
0
 10
77.199367
 20
0.229899
 42
0.016898
  0
VERTEX
  8
0
 10
84.000000
 20
0.000000
 42
0.016458
  0
VERTEX
  8
0
 10
90.546017
 20
0.215526
 42
0.066534
  0
VERTEX
  8
0
 10
94.452906
 20
1.002196
 42
0.091961
  0
VERTEX
  8
0
 10
97.350468
 20
2.641954
 42
0.049772
  0
VERTEX
  8
0
 10
100.220587
 20
5.584419
 42
-0.098148
  0
VERTEX
  8
0
 10
101.610378
 20
6.758915
 42
-0.071626
  0
VERTEX
  8
0
 10
103.505321
 20
7.478583
 42
-0.034678
  0
VERTEX
  8
0
 10
106.602984
 20
7.948721
 42
-0.005536
  0
VERTEX
  8
0
 10
112.720587
 20
8.379018
 42
0.001367
  0
VERTEX
  8
0
 10
117.376168
 20
8.667488
 42
0.001053
  0
VERTEX
  8
0
 10
122.454650
 20
9.006837
 42
0.001064
  0
VERTEX
  8
0
 10
127.199929
 20
9.344104
 42
0.002542
  0
VERTEX
  8
0
 10
130.720775
 20
9.619876
 42
-0.006166
  0
VERTEX
  8
0
 10
135.296322
 20
9.944905
 42
-0.069852
  0
VERTEX
  8
0
 10
137.101529
 20
9.798558
 42
-0.161589
  0
VERTEX
  8
0
 10
138.168502
 20
9.157854
 42
-0.070638
  0
VERTEX
  8
0
 10
139.068033
 20
7.750028
 42
0.121499
  0
VERTEX
  8
0
 10
140.934836
 20
5.390508
 42
0.065965
  0
VERTEX
  8
0
 10
144.148357
 20
3.516682
 42
0.050847
  0
VERTEX
  8
0
 10
148.624470
 20
2.158699
 42
0.027627
  0
VERTEX
  8
0
 10
154.323744
 20
1.368846
 42
0.041296
  0
VERTEX
  8
0
 10
160.160656
 20
1.369273
 42
0.130720
  0
VERTEX
  8
0
 10
163.810722
 20
2.671052
 42
0.106453
  0
VERTEX
  8
0
 10
166.754546
 20
5.792378
 42
0.022588
  0
VERTEX
  8
0
 10
170.351246
 20
12.393903
 42
0.013074
  0
VERTEX
  8
0
 10
172.327197
 20
16.730378
 42
0.039212
  0
VERTEX
  8
0
 10
173.359891
 20
19.815410
 42
0.042939
  0
VERTEX
  8
0
 10
173.848764
 20
22.867832
 42
0.018248
  0
VERTEX
  8
0
 10
174.000000
 20
27.010263
 42
-0.014581
  0
VERTEX
  8
0
 10
174.112555
 20
30.869155
 42
-0.039360
  0
VERTEX
  8
0
 10
174.486732
 20
33.583299
 42
-0.047565
  0
VERTEX
  8
0
 10
175.230138
 20
35.898200
 42
-0.031084
  0
VERTEX
  8
0
 10
176.495962
 20
38.402897
 42
0.029326
  0
VERTEX
  8
0
 10
177.498344
 20
40.369133
 42
0.018483
  0
VERTEX
  8
0
 10
178.444635
 20
42.767128
 42
0.018548
  0
VERTEX
  8
0
 10
179.202867
 20
45.202706
 42
0.032135
  0
VERTEX
  8
0
 10
179.624774
 20
47.279078
 42
0.021275
  0
VERTEX
  8
0
 10
179.884216
 20
50.040629
 42
0.091576
  0
VERTEX
  8
0
 10
179.668705
 20
51.669891
 42
0.094579
  0
VERTEX
  8
0
 10
178.888848
 20
53.088122
 42
0.023517
  0
VERTEX
  8
0
 10
177.097991
 20
55.055855
 42
0.028253
  0
VERTEX
  8
0
 10
174.982699
 20
56.944711
 42
0.107366
  0
VERTEX
  8
0
 10
173.403489
 20
57.724190
 42
0.072413
  0
VERTEX
  8
0
 10
171.339320
 20
57.931336
 42
0.008532
  0
VERTEX
  8
0
 10
166.719180
 20
57.646288
 42
-0.000268
  0
VERTEX
  8
0
 10
163.329517
 20
57.380859
 42
-0.000135
  0
VERTEX
  8
0
 10
159.050715
 20
57.049278
 42
-0.000134
  0
VERTEX
  8
0
 10
154.627117
 20
56.708870
 42
-0.000199
  0
VERTEX
  8
0
 10
150.751340
 20
56.413213
 42
0.000000
  0
VERTEX
  8
0
 10
142.002680
 20
55.749338
 42
0.000000
  0
VERTEX
  8
0
 10
140.365668
 20
59.624669
 42
-0.025333
  0
VERTEX
  8
0
 10
139.707486
 20
61.433229
 42
-0.014298
  0
VERTEX
  8
0
 10
139.085247
 20
63.683496
 42
-0.014244
  0
VERTEX
  8
0
 10
138.586001
 20
65.995205
 42
-0.022621
  0
VERTEX
  8
0
 10
138.305573
 20
68.000000
 42
0.011479
  0
VERTEX
  8
0
 10
137.658242
 20
73.521754
 42
0.104664
  0
VERTEX
  8
0
 10
136.836527
 20
75.785314
 42
0.147256
  0
VERTEX
  8
0
 10
135.261774
 20
77.170919
 42
0.029798
  0
VERTEX
  8
0
 10
131.749813
 20
78.531475
 42
0.040371
  0
VERTEX
  8
0
 10
128.169002
 20
79.367355
 42
0.016173
  0
VERTEX
  8
0
 10
123.166896
 20
79.951661
 42
0.011295
  0
VERTEX
  8
0
 10
116.199007
 20
80.379709
 42
0.003781
  0
VERTEX
  8
0
 10
106.000000
 20
80.698074
 42
0.000000
  0
VERTEX
  8
0
 10
85.500000
 20
81.182865
 42
0.000000
  0
SEQEND
  0
ENDSEC
  0
EOF
