  0
SECTION
  2
HEADER
  9
$ACADVER
  1
AC1006
  9
$EXTMIN
 10
0.000000
 20
0.000000
 30
0.000000
  9
$EXTMAX
 10
206.000000
 20
91.000000
 30
0.000000
  0
ENDSEC
  0
SECTION
  2
ENTITIES
  0
POLYLINE
  8
0
 66
1
 70
1
  0
VERTEX
  8
0
 10
116.321178
 20
89.811266
 42
0.106516
  0
VERTEX
  8
0
 10
114.359072
 20
88.280401
 42
0.080470
  0
VERTEX
  8
0
 10
112.960733
 20
85.923152
 42
0.083669
  0
VERTEX
  8
0
 10
112.415932
 20
83.340097
 42
0.133870
  0
VERTEX
  8
0
 10
112.916260
 20
81.156469
 42
-0.061971
  0
VERTEX
  8
0
 10
113.859066
 20
78.708378
 42
-0.121470
  0
VERTEX
  8
0
 10
113.863365
 20
76.632564
 42
-0.132857
  0
VERTEX
  8
0
 10
112.916602
 20
74.915281
 42
-0.081562
  0
VERTEX
  8
0
 10
111.051679
 20
73.526724
 42
0.019736
  0
VERTEX
  8
0
 10
107.598579
 20
71.564634
 42
0.008933
  0
VERTEX
  8
0
 10
103.228748
 20
68.738675
 42
0.005413
  0
VERTEX
  8
0
 10
99.033835
 20
65.851860
 42
0.089483
  0
VERTEX
  8
0
 10
97.846027
 20
64.648121
 42
0.088179
  0
VERTEX
  8
0
 10
97.556522
 20
64.007326
 42
0.009925
  0
VERTEX
  8
0
 10
97.193392
 20
62.446520
 42
0.011791
  0
VERTEX
  8
0
 10
96.839148
 20
60.555227
 42
0.009320
  0
VERTEX
  8
0
 10
96.542635
 20
58.494942
 42
-0.021597
  0
VERTEX
  8
0
 10
96.078507
 20
55.749732
 42
-0.060093
  0
VERTEX
  8
0
 10
95.444597
 20
53.903330
 42
-0.073910
  0
VERTEX
  8
0
 10
94.477347
 20
52.484351
 42
-0.047110
  0
VERTEX
  8
0
 10
92.987101
 20
51.148584
 42
-0.039743
  0
VERTEX
  8
0
 10
91.666777
 20
50.325959
 42
-0.029892
  0
VERTEX
  8
0
 10
90.102437
 20
49.631147
 42
-0.030559
  0
VERTEX
  8
0
 10
88.542316
 20
49.153466
 42
-0.059073
  0
VERTEX
  8
0
 10
87.247897
 20
49.000000
 42
-0.056861
  0
VERTEX
  8
0
 10
85.655387
 20
49.181690
 42
-0.154210
  0
VERTEX
  8
0
 10
84.687932
 20
49.752713
 42
-0.100926
  0
VERTEX
  8
0
 10
83.987758
 20
50.946594
 42
-0.016976
  0
VERTEX
  8
0
 10
83.212645
 20
53.494760
 42
0.043961
  0
VERTEX
  8
0
 10
81.970279
 20
56.906634
 42
0.065239
  0
VERTEX
  8
0
 10
80.263016
 20
59.585709
 42
0.076427
  0
VERTEX
  8
0
 10
78.167560
 20
61.425717
 42
0.096947
  0
VERTEX
  8
0
 10
75.775436
 20
62.366586
 42
-0.003422
  0
VERTEX
  8
0
 10
74.524446
 20
62.604956
 42
-0.000776
  0
VERTEX
  8
0
 10
72.405909
 20
63.027097
 42
-0.000804
  0
VERTEX
  8
0
 10
69.963978
 20
63.521707
 42
-0.000781
  0
VERTEX
  8
0
 10
67.500000
 20
64.028917
 42
0.018516
  0
VERTEX
  8
0
 10
64.420616
 20
64.549744
 42
0.006188
  0
VERTEX
  8
0
 10
59.884148
 20
65.088209
 42
0.006148
  0
VERTEX
  8
0
 10
54.842376
 20
65.560857
 42
0.006980
  0
VERTEX
  8
0
 10
49.999226
 20
65.886896
 42
-0.016193
  0
VERTEX
  8
0
 10
41.711074
 20
66.598447
 42
-0.071909
  0
VERTEX
  8
0
 10
37.000379
 20
67.859638
 42
-0.085845
  0
VERTEX
  8
0
 10
33.256216
 20
70.293659
 42
-0.028794
  0
VERTEX
  8
0
 10
28.720784
 20
75.013098
 42
0.054756
  0
VERTEX
  8
0
 10
25.007784
 20
78.496110
 42
0.055045
  0
VERTEX
  8
0
 10
20.633555
 20
81.083000
 42
0.061296
  0
VERTEX
  8
0
 10
16.400831
 20
82.399990
 42
0.146431
  0
VERTEX
  8
0
 10
13.162994
 20
82.037197
 42
0.161145
  0
VERTEX
  8
0
 10
10.011902
 20
79.262751
 42
0.016953
  0
VERTEX
  8
0
 10
5.281709
 20
70.509377
 42
0.013171
  0
VERTEX
  8
0
 10
1.044143
 20
61.394698
 42
0.333311
  0
VERTEX
  8
0
 10
1.645337
 20
58.879381
 42
0.193350
  0
VERTEX
  8
0
 10
3.310019
 20
58.344784
 42
0.056494
  0
VERTEX
  8
0
 10
6.005075
 20
58.846675
 42
0.051905
  0
VERTEX
  8
0
 10
8.943848
 20
60.091601
 42
0.057372
  0
VERTEX
  8
0
 10
11.456981
 20
61.882101
 42
-0.031304
  0
VERTEX
  8
0
 10
12.391334
 20
62.623973
 42
-0.022983
  0
VERTEX
  8
0
 10
13.510733
 20
63.329723
 42
-0.023380
  0
VERTEX
  8
0
 10
14.636468
 20
63.901297
 42
-0.046829
  0
VERTEX
  8
0
 10
15.579556
 20
64.223774
 42
-0.094751
  0
VERTEX
  8
0
 10
16.701278
 20
64.276474
 42
-0.180976
  0
VERTEX
  8
0
 10
17.482120
 20
63.849830
 42
-0.096435
  0
VERTEX
  8
0
 10
18.099367
 20
62.772730
 42
-0.016692
  0
VERTEX
  8
0
 10
18.784854
 20
60.514593
 42
0.038709
  0
VERTEX
  8
0
 10
19.502869
 20
58.476514
 42
0.044550
  0
VERTEX
  8
0
 10
20.500419
 20
56.672623
 42
0.044201
  0
VERTEX
  8
0
 10
21.809233
 20
55.062474
 42
0.037097
  0
VERTEX
  8
0
 10
23.455298
 20
53.601894
 42
0.000000
  0
VERTEX
  8
0
 10
27.000000
 20
50.898217
 42
0.000000
  0
VERTEX
  8
0
 10
26.999829
 20
41.199109
 42
-0.012761
  0
VERTEX
  8
0
 10
26.890282
 20
36.910542
 42
-0.008639
  0
VERTEX
  8
0
 10
26.556412
 20
32.032490
 42
-0.008708
  0
VERTEX
  8
0
 10
26.069922
 20
27.327351
 42
-0.017158
  0
VERTEX
  8
0
 10
25.490567
 20
23.613623
 42
0.016916
  0
VERTEX
  8
0
 10
24.666386
 20
18.347268
 42
0.078450
  0
VERTEX
  8
0
 10
24.774329
 20
15.279178
 42
0.174927
  0
VERTEX
  8
0
 10
25.750717
 20
13.643269
 42
0.173291
  0
VERTEX
  8
0
 10
27.551016
 20
13.000000
 42
0.156484
  0
VERTEX
  8
0
 10
29.413210
 20
13.597438
 42
0.117611
  0
VERTEX
  8
0
 10
30.833876
 20
15.231190
 42
0.081433
  0
VERTEX
  8
0
 10
31.716904
 20
17.903933
 42
0.039166
  0
VERTEX
  8
0
 10
32.000000
 20
21.512412
 42
-0.017668
  0
VERTEX
  8
0
 10
32.074320
 20
23.614971
 42
-0.024401
  0
VERTEX
  8
0
 10
32.299336
 20
25.489659
 42
-0.022533
  0
VERTEX
  8
0
 10
32.621001
 20
26.974708
 42
-0.192023
  0
VERTEX
  8
0
 10
33.019016
 20
27.511752
 42
0.101517
  0
VERTEX
  8
0
 10
33.543773
 20
28.006445
 42
0.011582
  0
VERTEX
  8
0
 10
34.453176
 20
29.366498
 42
0.013610
  0
VERTEX
  8
0
 10
35.464377
 20
31.057293
 42
0.010688
  0
VERTEX
  8
0
 10
36.470305
 20
32.941400
 42
-0.050707
  0
VERTEX
  8
0
 10
38.684865
 20
36.393756
 42
-0.136998
  0
VERTEX
  8
0
 10
41.022173
 20
38.086560
 42
-0.078697
  0
VERTEX
  8
0
 10
44.669305
 20
38.816185
 42
-0.009728
  0
VERTEX
  8
0
 10
52.801027
 20
38.986345
 42
0.000000
  0
VERTEX
  8
0
 10
62.102053
 20
39.000000
 42
0.000000
  0
VERTEX
  8
0
 10
63.711106
 20
35.250000
 42
-0.040492
  0
VERTEX
  8
0
 10
64.372085
 20
33.284326
 42
-0.013420
  0
VERTEX
  8
0
 10
65.026434
 20
30.310796
 42
-0.013263
  0
VERTEX
  8
0
 10
65.577957
 20
26.962340
 42
-0.014693
  0
VERTEX
  8
0
 10
65.929300
 20
23.701646
 42
0.017216
  0
VERTEX
  8
0
 10
66.498953
 20
18.654060
 42
0.084621
  0
VERTEX
  8
0
 10
67.385791
 20
15.938421
 42
0.158547
  0
VERTEX
  8
0
 10
68.822479
 20
14.540193
 42
0.112302
  0
VERTEX
  8
0
 10
71.027494
 20
14.015313
 42
0.072845
  0
VERTEX
  8
0
 10
71.767627
 20
14.116150
 42
0.027292
  0
VERTEX
  8
0
 10
72.759147
 20
14.461780
 42
0.026345
  0
VERTEX
  8
0
 10
73.814408
 20
14.962013
 42
0.028926
  0
VERTEX
  8
0
 10
74.777494
 20
15.556704
 42
0.088901
  0
VERTEX
  8
0
 10
75.989692
 20
16.776077
 42
0.099457
  0
VERTEX
  8
0
 10
76.644356
 20
18.295404
 42
0.046036
  0
VERTEX
  8
0
 10
76.935135
 20
20.778280
 42
0.006144
  0
VERTEX
  8
0
 10
77.000000
 20
26.056704
 42
0.000000
  0
VERTEX
  8
0
 10
77.000000
 20
35.000000
 42
0.000000
  0
VERTEX
  8
0
 10
82.856520
 20
35.000000
 42
0.000000
  0
VERTEX
  8
0
 10
88.713041
 20
35.000000
 42
0.000000
  0
VERTEX
  8
0
 10
89.393564
 20
25.985253
 42
0.003899
  0
VERTEX
  8
0
 10
89.688849
 20
22.441968
 42
0.005324
  0
VERTEX
  8
0
 10
90.013741
 20
19.254907
 42
0.003562
  0
VERTEX
  8
0
 10
90.333260
 20
16.590752
 42
0.060052
  0
VERTEX
  8
0
 10
90.549176
 20
15.732445
 42
0.143160
  0
VERTEX
  8
0
 10
91.836974
 20
14.041224
 42
0.013432
  0
VERTEX
  8
0
 10
96.170684
 20
11.020373
 42
0.018346
  0
VERTEX
  8
0
 10
100.859264
 20
8.176672
 42
0.041541
  0
VERTEX
  8
0
 10
104.635803
 20
6.465314
 42
0.066308
  0
VERTEX
  8
0
 10
110.586488
 20
5.196860
 42
0.093049
  0
VERTEX
  8
0
 10
115.973912
 20
5.780807
 42
0.102441
  0
VERTEX
  8
0
 10
120.409944
 20
8.191007
 42
0.096973
  0
VERTEX
  8
0
 10
123.627307
 20
12.205777
 42
0.083259
  0
VERTEX
  8
0
 10
125.074006
 20
16.628926
 42
0.023812
  0
VERTEX
  8
0
 10
125.813899
 20
23.832186
 42
0.024374
  0
VERTEX
  8
0
 10
125.857900
 20
31.161425
 42
0.069120
  0
VERTEX
  8
0
 10
124.940961
 20
36.178890
 42
-0.049325
  0
VERTEX
  8
0
 10
124.265830
 20
39.195118
 42
-0.115119
  0
VERTEX
  8
0
 10
124.512803
 20
41.481615
 42
-0.155686
  0
VERTEX
  8
0
 10
125.656238
 20
42.999171
 42
-0.118161
  0
VERTEX
  8
0
 10
127.602128
 20
43.778538
 42
-0.261274
  0
VERTEX
  8
0
 10
129.494759
 20
43.054454
 42
-0.036054
  0
VERTEX
  8
0
 10
132.043738
 20
39.500543
 42
-0.035700
  0
VERTEX
  8
0
 10
134.550349
 20
34.671079
 42
-0.029686
  0
VERTEX
  8
0
 10
136.524330
 20
29.230027
 42
0.024378
  0
VERTEX
  8
0
 10
137.228623
 20
27.222562
 42
0.020165
  0
VERTEX
  8
0
 10
138.166340
 20
25.158834
 42
0.020631
  0
VERTEX
  8
0
 10
139.182474
 20
23.333974
 42
0.050217
  0
VERTEX
  8
0
 10
140.113075
 20
22.109003
 42
0.059163
  0
VERTEX
  8
0
 10
141.635900
 20
20.819603
 42
0.105993
  0
VERTEX
  8
0
 10
143.155477
 20
20.224618
 42
0.053785
  0
VERTEX
  8
0
 10
145.418785
 20
20.101070
 42
0.006549
  0
VERTEX
  8
0
 10
150.388406
 20
20.429688
 42
0.000000
  0
VERTEX
  8
0
 10
158.500000
 20
21.072872
 42
0.000000
  0
VERTEX
  8
0
 10
162.500000
 20
13.786436
 42
0.013207
  0
VERTEX
  8
0
 10
165.036249
 20
9.442431
 42
0.058054
  0
VERTEX
  8
0
 10
166.878496
 20
7.121158
 42
0.063996
  0
VERTEX
  8
0
 10
169.119729
 20
5.395497
 42
0.018225
  0
VERTEX
  8
0
 10
173.000000
 20
3.316368
 42
0.017176
  0
VERTEX
  8
0
 10
176.547078
 20
1.727670
 42
0.034536
  0
VERTEX
  8
0
 10
179.459038
 20
0.770094
 42
0.036876
  0
VERTEX
  8
0
 10
182.348302
 20
0.259426
 42
0.022676
  0
VERTEX
  8
0
 10
185.799660
 20
0.066368
 42
0.038406
  0
VERTEX
  8
0
 10
191.201331
 20
0.424699
 42
0.089186
  0
VERTEX
  8
0
 10
195.039941
 20
1.700681
 42
0.086757
  0
VERTEX
  8
0
 10
198.257432
 20
4.259713
 42
0.034936
  0
VERTEX
  8
0
 10
201.694563
 20
8.725427
 42
0.017842
  0
VERTEX
  8
0
 10
203.878881
 20
12.284557
 42
0.056674
  0
VERTEX
  8
0
 10
204.968591
 20
14.850923
 42
0.049875
  0
VERTEX
  8
0
 10
205.525194
 20
17.766328
 42
0.011596
  0
VERTEX
  8
0
 10
205.853431
 20
22.748246
 42
0.011942
  0
VERTEX
  8
0
 10
205.974973
 20
29.241227
 42
0.051839
  0
VERTEX
  8
0
 10
205.557507
 20
33.064824
 42
0.075788
  0
VERTEX
  8
0
 10
204.451359
 20
35.971583
 42
0.046182
  0
VERTEX
  8
0
 10
202.350915
 20
38.994808
 42
-0.047900
  0
VERTEX
  8
0
 10
200.905564
 20
41.090429
 42
-0.064046
  0
VERTEX
  8
0
 10
200.049287
 20
43.233426
 42
-0.039151
  0
VERTEX
  8
0
 10
199.522133
 20
46.233202
 42
-0.007794
  0
VERTEX
  8
0
 10
199.086252
 20
51.663000
 42
0.018516
  0
VERTEX
  8
0
 10
198.354889
 20
58.840724
 42
0.131936
  0
VERTEX
  8
0
 10
197.003568
 20
62.028661
 42
0.185034
  0
VERTEX
  8
0
 10
194.460599
 20
63.558474
 42
0.043942
  0
VERTEX
  8
0
 10
189.446375
 20
64.000000
 42
-0.078110
  0
VERTEX
  8
0
 10
184.464564
 20
64.783034
 42
-0.092530
  0
VERTEX
  8
0
 10
180.279688
 20
67.049395
 42
-0.076936
  0
VERTEX
  8
0
 10
176.649957
 20
71.053841
 42
-0.037893
  0
VERTEX
  8
0
 10
173.304384
 20
77.076758
 42
0.019864
  0
VERTEX
  8
0
 10
170.740734
 20
82.111059
 42
0.114739
  0
VERTEX
  8
0
 10
168.742425
 20
84.303051
 42
0.262017
  0
VERTEX
  8
0
 10
166.854304
 20
84.474578
 42
0.120452
  0
VERTEX
  8
0
 10
164.840259
 20
82.906091
 42
0.024985
  0
VERTEX
  8
0
 10
162.869586
 20
80.142327
 42
0.024076
  0
VERTEX
  8
0
 10
161.158036
 20
77.162176
 42
0.025288
  0
VERTEX
  8
0
 10
159.840735
 20
74.232940
 42
0.041753
  0
VERTEX
  8
0
 10
159.069001
 20
71.633425
 42
-0.071110
  0
VERTEX
  8
0
 10
158.506951
 20
70.079773
 42
-0.098783
  0
VERTEX
  8
0
 10
157.571859
 20
68.937563
 42
-0.065791
  0
VERTEX
  8
0
 10
155.978570
 20
67.946505
 42
-0.017005
  0
VERTEX
  8
0
 10
153.176076
 20
66.791076
 42
0.038687
  0
VERTEX
  8
0
 10
149.839343
 20
65.243051
 42
0.087364
  0
VERTEX
  8
0
 10
147.690880
 20
63.484239
 42
0.078005
  0
VERTEX
  8
0
 10
146.130849
 20
60.967038
 42
0.026250
  0
VERTEX
  8
0
 10
144.658950
 20
56.892190
 42
-0.199345
  0
VERTEX
  8
0
 10
143.704354
 20
55.730078
 42
-0.052873
  0
VERTEX
  8
0
 10
141.432258
 20
54.812165
 42
-0.042968
  0
VERTEX
  8
0
 10
138.291151
 20
54.200203
 42
-0.026639
  0
VERTEX
  8
0
 10
134.536140
 20
54.000000
 42
0.000000
  0
VERTEX
  8
0
 10
131.322280
 20
54.000000
 42
0.000000
  0
VERTEX
  8
0
 10
130.132663
 20
62.750000
 42
0.010602
  0
VERTEX
  8
0
 10
129.533330
 20
66.552485
 42
0.007754
  0
VERTEX
  8
0
 10
128.713361
 20
70.747241
 42
0.007841
  0
VERTEX
  8
0
 10
127.812206
 20
74.698549
 42
0.017140
  0
VERTEX
  8
0
 10
126.971523
 20
77.687416
 42
-0.008447
  0
VERTEX
  8
0
 10
126.216747
 20
80.202295
 42
-0.009533
  0
VERTEX
  8
0
 10
125.579135
 20
82.642180
 42
-0.008873
  0
VERTEX
  8
0
 10
125.114332
 20
84.732497
 42
-0.050306
  0
VERTEX
  8
0
 10
125.000000
 20
85.865987
 42
0.133076
  0
VERTEX
  8
0
 10
124.283314
 20
88.511060
 42
0.154957
  0
VERTEX
  8
0
 10
122.356677
 20
90.249627
 42
0.132666
  0
VERTEX
  8
0
 10
119.519550
 20
90.715840
 42
0.087575
  0
SEQEND
  0
ENDSEC
  0
EOF
