  0
SECTION
  2
HEADER
  9
$ACADVER
  1
AC1006
  9
$EXTMIN
 10
0.000000
 20
0.000000
 30
0.000000
  9
$EXTMAX
 10
206.000000
 20
87.000000
 30
0.000000
  0
ENDSEC
  0
SECTION
  2
ENTITIES
  0
POLYLINE
  8
0
 66
1
 70
1
  0
VERTEX
  8
0
 10
112.705535
 20
83.508690
 42
0.043081
  0
VERTEX
  8
0
 10
112.042614
 20
81.741390
 42
0.021244
  0
VERTEX
  8
0
 10
111.494600
 20
79.403730
 42
0.020740
  0
VERTEX
  8
0
 10
111.123359
 20
76.884570
 42
0.026216
  0
VERTEX
  8
0
 10
111.000000
 20
74.533461
 42
-0.012637
  0
VERTEX
  8
0
 10
110.924937
 20
71.563858
 42
-0.069788
  0
VERTEX
  8
0
 10
110.623781
 20
69.997046
 42
-0.133392
  0
VERTEX
  8
0
 10
110.000675
 20
69.075342
 42
-0.101291
  0
VERTEX
  8
0
 10
108.931003
 20
68.478101
 42
0.133643
  0
VERTEX
  8
0
 10
106.392276
 20
66.839935
 42
0.086170
  0
VERTEX
  8
0
 10
104.521134
 20
63.856249
 42
0.064005
  0
VERTEX
  8
0
 10
103.374690
 20
59.553150
 42
0.033023
  0
VERTEX
  8
0
 10
103.003738
 20
53.984719
 42
0.000000
  0
VERTEX
  8
0
 10
103.000000
 20
46.469438
 42
0.000000
  0
VERTEX
  8
0
 10
98.115786
 20
44.734719
 42
-0.026245
  0
VERTEX
  8
0
 10
95.877399
 20
44.069695
 42
-0.015977
  0
VERTEX
  8
0
 10
93.174870
 20
43.509574
 42
-0.015995
  0
VERTEX
  8
0
 10
90.452276
 20
43.124716
 42
-0.027116
  0
VERTEX
  8
0
 10
88.154330
 20
43.000000
 42
0.000000
  0
VERTEX
  8
0
 10
83.077088
 20
43.000000
 42
0.000000
  0
VERTEX
  8
0
 10
82.026551
 20
47.250000
 42
0.005110
  0
VERTEX
  8
0
 10
79.996327
 20
55.117307
 42
0.074505
  0
VERTEX
  8
0
 10
78.851631
 20
57.740219
 42
0.135181
  0
VERTEX
  8
0
 10
77.150092
 20
59.299573
 42
0.028775
  0
VERTEX
  8
0
 10
73.441522
 20
60.935995
 42
0.031633
  0
VERTEX
  8
0
 10
69.925524
 20
62.003536
 42
0.031764
  0
VERTEX
  8
0
 10
66.307787
 20
62.617193
 42
0.020748
  0
VERTEX
  8
0
 10
61.508542
 20
62.920084
 42
0.005287
  0
VERTEX
  8
0
 10
53.712487
 20
63.005577
 42
-0.008483
  0
VERTEX
  8
0
 10
42.050407
 20
63.208030
 42
-0.056072
  0
VERTEX
  8
0
 10
36.291736
 20
64.056881
 42
-0.109133
  0
VERTEX
  8
0
 10
32.657745
 20
65.929337
 42
-0.078642
  0
VERTEX
  8
0
 10
29.637758
 20
69.368128
 42
0.039432
  0
VERTEX
  8
0
 10
25.659201
 20
74.683864
 42
0.060739
  0
VERTEX
  8
0
 10
21.377170
 20
78.501578
 42
0.080024
  0
VERTEX
  8
0
 10
17.368292
 20
80.423769
 42
0.197597
  0
VERTEX
  8
0
 10
14.184525
 20
80.095399
 42
0.088544
  0
VERTEX
  8
0
 10
13.328197
 20
79.417568
 42
0.014469
  0
VERTEX
  8
0
 10
11.966704
 20
77.786844
 42
0.015543
  0
VERTEX
  8
0
 10
10.463521
 20
75.749438
 42
0.013145
  0
VERTEX
  8
0
 10
9.000000
 20
73.507180
 42
-0.001934
  0
VERTEX
  8
0
 10
7.459417
 20
71.027106
 42
-0.001393
  0
VERTEX
  8
0
 10
5.721687
 20
68.270760
 42
-0.001407
  0
VERTEX
  8
0
 10
4.054198
 20
65.658375
 42
-0.003048
  0
VERTEX
  8
0
 10
2.754680
 20
63.661923
 42
0.000000
  0
VERTEX
  8
0
 10
0.009361
 20
59.500000
 42
0.000000
  0
VERTEX
  8
0
 10
2.560444
 20
57.250000
 42
0.033594
  0
VERTEX
  8
0
 10
3.680059
 20
56.388919
 42
0.031105
  0
VERTEX
  8
0
 10
4.933266
 20
55.660938
 42
0.032554
  0
VERTEX
  8
0
 10
6.131592
 20
55.155736
 42
0.083667
  0
VERTEX
  8
0
 10
7.055764
 20
55.000000
 42
0.128428
  0
VERTEX
  8
0
 10
8.746263
 20
55.441495
 42
0.047140
  0
VERTEX
  8
0
 10
10.792496
 20
56.856844
 42
0.046585
  0
VERTEX
  8
0
 10
12.494583
 20
58.583063
 42
0.173010
  0
VERTEX
  8
0
 10
13.000000
 20
60.000000
 42
-0.288945
  0
VERTEX
  8
0
 10
13.243730
 20
60.386547
 42
-0.047062
  0
VERTEX
  8
0
 10
14.115207
 20
60.706250
 42
-0.039532
  0
VERTEX
  8
0
 10
15.341598
 20
60.927555
 42
-0.024882
  0
VERTEX
  8
0
 10
16.796451
 20
61.000000
 42
0.000000
  0
VERTEX
  8
0
 10
20.592901
 20
61.000000
 42
0.000000
  0
VERTEX
  8
0
 10
21.796451
 20
53.981441
 42
-0.014474
  0
VERTEX
  8
0
 10
22.256590
 20
50.736982
 42
-0.008008
  0
VERTEX
  8
0
 10
22.639876
 20
46.753472
 42
-0.007979
  0
VERTEX
  8
0
 10
22.899343
 20
42.701557
 42
-0.012723
  0
VERTEX
  8
0
 10
22.977594
 20
39.231441
 42
-0.014430
  0
VERTEX
  8
0
 10
22.839730
 20
34.891577
 42
-0.038250
  0
VERTEX
  8
0
 10
22.415815
 20
31.818432
 42
-0.041456
  0
VERTEX
  8
0
 10
21.551812
 20
28.989345
 42
-0.019599
  0
VERTEX
  8
0
 10
20.000000
 20
25.500000
 42
0.042332
  0
VERTEX
  8
0
 10
17.619587
 20
19.417685
 42
0.091917
  0
VERTEX
  8
0
 10
17.095222
 20
14.447360
 42
0.160465
  0
VERTEX
  8
0
 10
18.423756
 20
11.273495
 42
0.217368
  0
VERTEX
  8
0
 10
21.214698
 20
10.000000
 42
0.199705
  0
VERTEX
  8
0
 10
22.848556
 20
10.679687
 42
0.043365
  0
VERTEX
  8
0
 10
24.847767
 20
13.074186
 42
0.044824
  0
VERTEX
  8
0
 10
26.477269
 20
15.924071
 42
0.107343
  0
VERTEX
  8
0
 10
26.996262
 20
18.289838
 42
-0.065920
  0
VERTEX
  8
0
 10
27.122194
 20
19.225844
 42
-0.017338
  0
VERTEX
  8
0
 10
27.570157
 20
20.673664
 42
-0.017296
  0
VERTEX
  8
0
 10
28.200035
 20
22.300887
 42
-0.016959
  0
VERTEX
  8
0
 10
28.944699
 20
23.891602
 42
-0.030849
  0
VERTEX
  8
0
 10
30.286526
 20
26.163863
 42
-0.119257
  0
VERTEX
  8
0
 10
31.488917
 20
27.258012
 42
-0.087249
  0
VERTEX
  8
0
 10
33.252378
 20
27.855842
 42
-0.012163
  0
VERTEX
  8
0
 10
37.091390
 20
28.351764
 42
-0.016666
  0
VERTEX
  8
0
 10
45.243760
 20
28.930023
 42
-0.015849
  0
VERTEX
  8
0
 10
53.554687
 20
28.978119
 42
-0.011521
  0
VERTEX
  8
0
 10
60.843388
 20
28.621047
 42
-0.140764
  0
VERTEX
  8
0
 10
63.438005
 20
27.668990
 42
-0.142209
  0
VERTEX
  8
0
 10
64.458869
 20
26.345172
 42
-0.093507
  0
VERTEX
  8
0
 10
64.820691
 20
24.442328
 42
-0.049998
  0
VERTEX
  8
0
 10
64.533395
 20
21.534416
 42
-0.011655
  0
VERTEX
  8
0
 10
63.453670
 20
16.744254
 42
0.091073
  0
VERTEX
  8
0
 10
63.291642
 20
14.190490
 42
0.177032
  0
VERTEX
  8
0
 10
64.202432
 20
12.391764
 42
0.139328
  0
VERTEX
  8
0
 10
66.266509
 20
11.330864
 42
0.049515
  0
VERTEX
  8
0
 10
69.599392
 20
11.000000
 42
0.084113
  0
VERTEX
  8
0
 10
73.306039
 20
11.627996
 42
0.161150
  0
VERTEX
  8
0
 10
75.672509
 20
13.446544
 42
0.120860
  0
VERTEX
  8
0
 10
76.899262
 20
16.750956
 42
0.037766
  0
VERTEX
  8
0
 10
77.109119
 20
22.071010
 42
0.000000
  0
VERTEX
  8
0
 10
76.895163
 20
28.000000
 42
0.000000
  0
VERTEX
  8
0
 10
82.447582
 20
28.000000
 42
0.000000
  0
VERTEX
  8
0
 10
88.000000
 20
28.000000
 42
0.000000
  0
VERTEX
  8
0
 10
88.000000
 20
20.960162
 42
0.050999
  0
VERTEX
  8
0
 10
88.803110
 20
13.106790
 42
0.123310
  0
VERTEX
  8
0
 10
91.319147
 20
7.887515
 42
0.111082
  0
VERTEX
  8
0
 10
96.192276
 20
4.144645
 42
0.037045
  0
VERTEX
  8
0
 10
104.661101
 20
0.960344
 42
0.050196
  0
VERTEX
  8
0
 10
108.732946
 20
0.197133
 42
0.114749
  0
VERTEX
  8
0
 10
111.806643
 20
0.641322
 42
0.112657
  0
VERTEX
  8
0
 10
114.404197
 20
2.404656
 42
0.047359
  0
VERTEX
  8
0
 10
116.992877
 20
5.772033
 42
0.033287
  0
VERTEX
  8
0
 10
118.764358
 20
9.059910
 42
0.069908
  0
VERTEX
  8
0
 10
119.587172
 20
11.836876
 42
0.033783
  0
VERTEX
  8
0
 10
119.908138
 20
15.794156
 42
0.003036
  0
VERTEX
  8
0
 10
119.981000
 20
25.750000
 42
0.000000
  0
VERTEX
  8
0
 10
120.000000
 20
41.000000
 42
0.000000
  0
VERTEX
  8
0
 10
126.829063
 20
41.000000
 42
0.000000
  0
VERTEX
  8
0
 10
133.658125
 20
41.000000
 42
0.000000
  0
VERTEX
  8
0
 10
135.781700
 20
36.250000
 42
-0.013389
  0
VERTEX
  8
0
 10
136.643383
 20
34.175214
 42
-0.010286
  0
VERTEX
  8
0
 10
137.476183
 20
31.867188
 42
-0.010424
  0
VERTEX
  8
0
 10
138.166020
 20
29.675010
 42
-0.024220
  0
VERTEX
  8
0
 10
138.568110
 20
28.000000
 42
0.045844
  0
VERTEX
  8
0
 10
139.541187
 20
24.600525
 42
0.170698
  0
VERTEX
  8
0
 10
140.968266
 20
22.935339
 42
0.115502
  0
VERTEX
  8
0
 10
143.476616
 20
22.175531
 42
0.016036
  0
VERTEX
  8
0
 10
148.948131
 20
22.000000
 42
-0.031540
  0
VERTEX
  8
0
 10
154.686952
 20
21.637636
 42
-0.116604
  0
VERTEX
  8
0
 10
158.063257
 20
20.373421
 42
-0.133865
  0
VERTEX
  8
0
 10
160.258247
 20
17.841362
 42
-0.047205
  0
VERTEX
  8
0
 10
161.937010
 20
13.295002
 42
0.037346
  0
VERTEX
  8
0
 10
163.060503
 20
10.057688
 42
0.077887
  0
VERTEX
  8
0
 10
164.484215
 20
7.807665
 42
0.091691
  0
VERTEX
  8
0
 10
166.356696
 20
6.329330
 42
0.069821
  0
VERTEX
  8
0
 10
168.819927
 20
5.441271
 42
-0.006076
  0
VERTEX
  8
0
 10
171.682107
 20
4.804965
 42
-0.013355
  0
VERTEX
  8
0
 10
173.850163
 20
4.233742
 42
-0.010295
  0
VERTEX
  8
0
 10
176.301881
 20
3.462112
 42
-0.002366
  0
VERTEX
  8
0
 10
180.405226
 20
2.055530
 42
0.035830
  0
VERTEX
  8
0
 10
186.605234
 20
0.384004
 42
0.059438
  0
VERTEX
  8
0
 10
192.000041
 20
-0.010376
 42
0.069534
  0
VERTEX
  8
0
 10
196.701964
 20
0.867631
 42
0.076011
  0
VERTEX
  8
0
 10
200.828600
 20
2.990798
 42
0.052687
  0
VERTEX
  8
0
 10
203.798731
 20
5.660551
 42
0.105559
  0
VERTEX
  8
0
 10
205.367372
 20
8.381333
 42
0.076394
  0
VERTEX
  8
0
 10
205.964634
 20
12.078558
 42
0.018223
  0
VERTEX
  8
0
 10
205.784890
 20
18.323293
 42
0.033326
  0
VERTEX
  8
0
 10
205.075466
 20
23.672824
 42
0.043585
  0
VERTEX
  8
0
 10
203.686243
 20
28.404321
 42
0.048660
  0
VERTEX
  8
0
 10
201.675385
 20
32.363512
 42
0.067196
  0
VERTEX
  8
0
 10
199.106410
 20
35.404988
 42
-0.084962
  0
VERTEX
  8
0
 10
197.976097
 20
36.843321
 42
-0.079201
  0
VERTEX
  8
0
 10
197.353976
 20
38.610664
 42
-0.039049
  0
VERTEX
  8
0
 10
197.067403
 20
41.401326
 42
-0.006068
  0
VERTEX
  8
0
 10
197.000000
 20
46.954988
 42
0.008898
  0
VERTEX
  8
0
 10
196.925348
 20
51.149733
 42
0.018655
  0
VERTEX
  8
0
 10
196.687792
 20
54.402831
 42
0.019536
  0
VERTEX
  8
0
 10
196.326460
 20
56.805500
 42
0.150384
  0
VERTEX
  8
0
 10
195.800000
 20
57.800000
 42
0.137228
  0
VERTEX
  8
0
 10
194.937494
 20
58.285450
 42
0.022419
  0
VERTEX
  8
0
 10
193.037641
 20
58.660813
 42
0.022344
  0
VERTEX
  8
0
 10
190.627853
 20
58.916118
 42
0.015219
  0
VERTEX
  8
0
 10
187.872580
 20
59.000000
 42
-0.036626
  0
VERTEX
  8
0
 10
183.043794
 20
59.354193
 42
-0.121218
  0
VERTEX
  8
0
 10
180.113843
 20
60.550685
 42
-0.106853
  0
VERTEX
  8
0
 10
177.868649
 20
63.064861
 42
-0.025139
  0
VERTEX
  8
0
 10
175.322301
 20
68.130552
 42
0.030912
  0
VERTEX
  8
0
 10
174.393451
 20
69.926462
 42
0.055473
  0
VERTEX
  8
0
 10
173.390192
 20
71.246320
 42
0.067577
  0
VERTEX
  8
0
 10
172.282604
 20
72.132977
 42
0.081013
  0
VERTEX
  8
0
 10
171.043040
 20
72.625837
 42
-0.001735
  0
VERTEX
  8
0
 10
169.959481
 20
72.868414
 42
-0.001434
  0
VERTEX
  8
0
 10
168.806393
 20
73.134241
 42
-0.001447
  0
VERTEX
  8
0
 10
167.750041
 20
73.384186
 42
-0.003882
  0
VERTEX
  8
0
 10
167.000000
 20
73.570117
 42
0.054626
  0
VERTEX
  8
0
 10
166.343776
 20
73.663674
 42
0.040732
  0
VERTEX
  8
0
 10
165.612898
 20
73.627870
 42
0.041579
  0
VERTEX
  8
0
 10
164.920794
 20
73.477834
 42
0.070375
  0
VERTEX
  8
0
 10
164.384334
 20
73.227172
 42
0.121133
  0
VERTEX
  8
0
 10
162.811594
 20
71.545965
 42
0.023985
  0
VERTEX
  8
0
 10
160.955927
 20
67.828831
 42
0.025919
  0
VERTEX
  8
0
 10
159.447798
 20
63.861127
 42
0.078010
  0
VERTEX
  8
0
 10
159.000000
 20
61.008453
 42
-0.038366
  0
VERTEX
  8
0
 10
158.893618
 20
59.624098
 42
-0.074813
  0
VERTEX
  8
0
 10
158.564215
 20
58.569460
 42
-0.096539
  0
VERTEX
  8
0
 10
158.013104
 20
57.836274
 42
-0.110051
  0
VERTEX
  8
0
 10
157.250000
 20
57.404878
 42
0.033670
  0
VERTEX
  8
0
 10
154.107476
 20
56.212613
 42
0.035363
  0
VERTEX
  8
0
 10
151.206879
 20
54.625635
 42
0.037975
  0
VERTEX
  8
0
 10
148.912891
 20
52.891709
 42
0.105418
  0
VERTEX
  8
0
 10
147.715997
 20
51.276027
 42
-0.072018
  0
VERTEX
  8
0
 10
146.971919
 20
50.118510
 42
-0.116070
  0
VERTEX
  8
0
 10
146.025554
 20
49.436312
 42
-0.078625
  0
VERTEX
  8
0
 10
144.608090
 20
49.094600
 42
-0.019910
  0
VERTEX
  8
0
 10
142.233389
 20
49.000000
 42
-0.131738
  0
VERTEX
  8
0
 10
135.975856
 20
50.677833
 42
-0.095983
  0
VERTEX
  8
0
 10
130.513250
 20
55.423831
 42
-0.081600
  0
VERTEX
  8
0
 10
126.547974
 20
62.660523
 42
-0.062878
  0
VERTEX
  8
0
 10
124.643430
 20
71.473587
 42
0.016462
  0
VERTEX
  8
0
 10
124.198230
 20
75.160735
 42
0.039137
  0
VERTEX
  8
0
 10
123.565511
 20
77.847064
 42
0.046178
  0
VERTEX
  8
0
 10
122.598105
 20
80.123493
 42
0.032860
  0
VERTEX
  8
0
 10
121.125269
 20
82.473587
 42
0.037588
  0
VERTEX
  8
0
 10
118.439154
 20
85.658338
 42
0.169770
  0
VERTEX
  8
0
 10
116.290642
 20
86.719223
 42
0.240618
  0
VERTEX
  8
0
 10
114.424016
 20
86.037989
 42
0.076054
  0
SEQEND
  0
ENDSEC
  0
EOF
