  0
SECTION
  2
HEADER
  9
$ACADVER
  1
AC1006
  9
$EXTMIN
 10
0.000000
 20
0.000000
 30
0.000000
  9
$EXTMAX
 10
420.000000
 20
254.000000
 30
0.000000
  0
ENDSEC
  0
SECTION
  2
ENTITIES
  0
POLYLINE
  8
0
 66
1
 70
1
  0
VERTEX
  8
0
 10
27.000000
 20
252.673193
 42
-0.178073
  0
VERTEX
  8
0
 10
26.797332
 20
252.122179
 42
-0.145660
  0
VERTEX
  8
0
 10
26.267697
 20
251.777740
 42
-0.081358
  0
VERTEX
  8
0
 10
25.351274
 20
251.662620
 42
-0.027090
  0
VERTEX
  8
0
 10
24.000000
 20
251.786692
 42
0.023507
  0
VERTEX
  8
0
 10
22.342918
 20
251.950819
 42
0.150129
  0
VERTEX
  8
0
 10
21.533609
 20
251.747344
 42
0.208569
  0
VERTEX
  8
0
 10
21.122258
 20
251.165273
 42
0.051036
  0
VERTEX
  8
0
 10
21.000000
 20
249.970642
 42
0.166290
  0
VERTEX
  8
0
 10
21.757566
 20
247.755788
 42
0.019949
  0
VERTEX
  8
0
 10
25.132126
 20
243.741415
 42
0.024744
  0
VERTEX
  8
0
 10
29.144154
 20
239.753355
 42
0.042260
  0
VERTEX
  8
0
 10
32.906666
 20
236.902246
 42
0.000000
  0
VERTEX
  8
0
 10
35.313332
 20
235.379999
 42
0.000000
  0
VERTEX
  8
0
 10
31.619475
 20
231.686142
 42
0.046558
  0
VERTEX
  8
0
 10
29.011881
 20
228.541781
 42
0.027545
  0
VERTEX
  8
0
 10
26.486162
 20
224.368305
 42
0.026519
  0
VERTEX
  8
0
 10
24.552026
 20
220.218238
 42
0.096068
  0
VERTEX
  8
0
 10
24.000000
 20
217.371640
 42
-0.103221
  0
VERTEX
  8
0
 10
23.850055
 20
216.653047
 42
-0.031271
  0
VERTEX
  8
0
 10
23.339063
 20
215.656845
 42
-0.029851
  0
VERTEX
  8
0
 10
22.611112
 20
214.583969
 42
-0.028501
  0
VERTEX
  8
0
 10
21.750000
 20
213.587831
 42
0.022894
  0
VERTEX
  8
0
 10
19.758695
 20
211.335793
 42
0.029434
  0
VERTEX
  8
0
 10
18.154325
 20
209.085622
 42
0.018896
  0
VERTEX
  8
0
 10
16.370583
 20
205.990087
 42
0.004084
  0
VERTEX
  8
0
 10
13.534644
 20
200.500000
 42
-0.005637
  0
VERTEX
  8
0
 10
10.284710
 20
194.256117
 42
-0.009449
  0
VERTEX
  8
0
 10
7.396388
 20
189.093506
 42
-0.011214
  0
VERTEX
  8
0
 10
4.790769
 20
184.857039
 42
-0.019444
  0
VERTEX
  8
0
 10
2.415018
 20
181.477470
 42
0.073717
  0
VERTEX
  8
0
 10
0.784348
 20
178.523756
 42
0.072305
  0
VERTEX
  8
0
 10
0.066728
 20
175.204265
 42
0.075613
  0
VERTEX
  8
0
 10
0.335079
 20
171.954512
 42
0.094703
  0
VERTEX
  8
0
 10
1.572122
 20
169.200495
 42
0.101971
  0
VERTEX
  8
0
 10
4.215767
 20
166.705170
 42
0.025615
  0
VERTEX
  8
0
 10
9.437379
 20
163.838435
 42
0.027079
  0
VERTEX
  8
0
 10
15.181355
 20
161.432092
 42
0.056232
  0
VERTEX
  8
0
 10
19.905736
 20
160.324758
 42
0.020395
  0
VERTEX
  8
0
 10
22.619936
 20
160.115071
 42
0.075973
  0
VERTEX
  8
0
 10
24.317197
 20
160.311699
 42
0.087644
  0
VERTEX
  8
0
 10
25.749836
 20
160.989370
 42
0.032695
  0
VERTEX
  8
0
 10
27.483985
 20
162.397577
 42
-0.063463
  0
VERTEX
  8
0
 10
29.764775
 20
164.028101
 42
-0.155585
  0
VERTEX
  8
0
 10
31.768574
 20
164.403506
 42
-0.077251
  0
VERTEX
  8
0
 10
34.469487
 20
163.633592
 42
-0.008265
  0
VERTEX
  8
0
 10
40.360917
 20
160.799202
 42
0.020416
  0
VERTEX
  8
0
 10
44.258526
 20
159.039342
 42
0.064702
  0
VERTEX
  8
0
 10
47.023184
 20
158.321409
 42
0.040678
  0
VERTEX
  8
0
 10
50.486062
 20
158.170550
 42
0.004566
  0
VERTEX
  8
0
 10
58.360917
 20
158.540198
 42
-0.004980
  0
VERTEX
  8
0
 10
65.889208
 20
158.887334
 42
-0.034651
  0
VERTEX
  8
0
 10
69.571658
 20
158.765195
 42
-0.055104
  0
VERTEX
  8
0
 10
72.467386
 20
158.140344
 42
-0.023914
  0
VERTEX
  8
0
 10
76.144565
 20
156.712241
 42
-0.061259
  0
VERTEX
  8
0
 10
85.080686
 20
151.348080
 42
-0.055049
  0
VERTEX
  8
0
 10
92.815348
 20
143.803218
 42
-0.046062
  0
VERTEX
  8
0
 10
99.789720
 20
133.515769
 42
-0.025257
  0
VERTEX
  8
0
 10
106.461346
 20
119.816961
 42
0.037262
  0
VERTEX
  8
0
 10
107.314095
 20
118.167721
 42
0.019354
  0
VERTEX
  8
0
 10
108.604929
 20
116.241457
 42
0.019135
  0
VERTEX
  8
0
 10
110.090854
 20
114.355690
 42
0.027555
  0
VERTEX
  8
0
 10
111.555461
 20
112.816961
 42
-0.026360
  0
VERTEX
  8
0
 10
113.112400
 20
111.189031
 42
-0.013656
  0
VERTEX
  8
0
 10
114.889248
 20
109.005607
 42
-0.013539
  0
VERTEX
  8
0
 10
116.597320
 20
106.656561
 42
-0.020003
  0
VERTEX
  8
0
 10
117.954275
 20
104.500000
 42
0.013905
  0
VERTEX
  8
0
 10
119.225807
 20
102.423458
 42
0.012072
  0
VERTEX
  8
0
 10
120.669994
 20
100.318778
 42
0.012231
  0
VERTEX
  8
0
 10
122.070343
 20
98.476686
 42
0.034529
  0
VERTEX
  8
0
 10
123.163956
 20
97.287328
 42
0.005506
  0
VERTEX
  8
0
 10
128.490652
 20
92.352083
 42
0.019217
  0
VERTEX
  8
0
 10
132.080709
 20
89.341520
 42
0.027283
  0
VERTEX
  8
0
 10
135.166182
 20
87.208613
 42
0.023744
  0
VERTEX
  8
0
 10
138.609137
 20
85.315121
 42
-0.011915
  0
VERTEX
  8
0
 10
142.006630
 20
83.549956
 42
-0.103570
  0
VERTEX
  8
0
 10
143.291495
 20
82.446923
 42
-0.137864
  0
VERTEX
  8
0
 10
143.852811
 20
81.045613
 42
-0.026754
  0
VERTEX
  8
0
 10
144.000000
 20
78.296834
 42
0.045507
  0
VERTEX
  8
0
 10
144.306447
 20
74.936771
 42
0.014365
  0
VERTEX
  8
0
 10
145.361342
 20
70.002785
 42
0.014024
  0
VERTEX
  8
0
 10
146.879085
 20
64.462909
 42
0.013899
  0
VERTEX
  8
0
 10
148.709147
 20
59.000000
 42
-0.087451
  0
VERTEX
  8
0
 10
149.157800
 20
56.485751
 42
-0.025099
  0
VERTEX
  8
0
 10
148.967075
 20
52.520276
 42
-0.025782
  0
VERTEX
  8
0
 10
148.364948
 20
48.530843
 42
-0.069084
  0
VERTEX
  8
0
 10
147.410811
 20
45.827528
 42
0.022244
  0
VERTEX
  8
0
 10
146.870767
 20
44.658542
 42
0.019905
  0
VERTEX
  8
0
 10
146.414426
 20
43.402486
 42
0.020372
  0
VERTEX
  8
0
 10
146.095621
 20
42.241266
 42
0.056862
  0
VERTEX
  8
0
 10
146.000000
 20
41.403165
 42
-0.101511
  0
VERTEX
  8
0
 10
145.803696
 20
40.446215
 42
-0.015192
  0
VERTEX
  8
0
 10
144.971875
 20
38.656320
 42
-0.016548
  0
VERTEX
  8
0
 10
143.840083
 20
36.577233
 42
-0.013597
  0
VERTEX
  8
0
 10
142.500000
 20
34.434038
 42
0.007893
  0
VERTEX
  8
0
 10
141.159284
 20
32.343270
 42
0.010923
  0
VERTEX
  8
0
 10
140.028125
 20
30.424022
 42
0.007699
  0
VERTEX
  8
0
 10
139.149130
 20
28.797013
 42
0.120562
  0
VERTEX
  8
0
 10
139.000000
 20
28.187521
 42
-0.129909
  0
VERTEX
  8
0
 10
138.890353
 20
27.772627
 42
-0.063219
  0
VERTEX
  8
0
 10
138.559375
 20
27.330872
 42
-0.056315
  0
VERTEX
  8
0
 10
138.073705
 20
26.930844
 42
-0.052570
  0
VERTEX
  8
0
 10
137.500000
 20
26.638374
 42
0.081035
  0
VERTEX
  8
0
 10
136.926585
 20
26.303843
 42
0.065663
  0
VERTEX
  8
0
 10
136.440625
 20
25.782009
 42
0.066520
  0
VERTEX
  8
0
 10
136.112085
 20
25.159833
 42
0.088478
  0
VERTEX
  8
0
 10
136.000000
 20
24.531385
 42
-0.049248
  0
VERTEX
  8
0
 10
135.942138
 20
23.945355
 42
-0.069245
  0
VERTEX
  8
0
 10
135.769585
 20
23.449844
 42
-0.089420
  0
VERTEX
  8
0
 10
135.515092
 20
23.116279
 42
-0.187320
  0
VERTEX
  8
0
 10
135.215608
 20
23.000000
 42
0.246231
  0
VERTEX
  8
0
 10
134.266302
 20
22.502329
 42
0.019968
  0
VERTEX
  8
0
 10
132.710331
 20
20.048703
 42
0.025270
  0
VERTEX
  8
0
 10
131.368676
 20
17.437892
 42
0.106440
  0
VERTEX
  8
0
 10
131.000000
 20
15.725669
 42
0.294414
  0
VERTEX
  8
0
 10
131.878558
 20
14.362952
 42
0.034877
  0
VERTEX
  8
0
 10
135.417394
 20
13.047971
 42
0.038899
  0
VERTEX
  8
0
 10
139.517095
 20
12.181476
 42
0.069175
  0
VERTEX
  8
0
 10
142.961426
 20
12.207646
 42
-0.025237
  0
VERTEX
  8
0
 10
144.126213
 20
12.318948
 42
-0.042397
  0
VERTEX
  8
0
 10
145.107419
 20
12.279737
 42
-0.054632
  0
VERTEX
  8
0
 10
145.796472
 20
12.115606
 42
-0.316968
  0
VERTEX
  8
0
 10
146.000000
 20
11.826807
 42
0.336893
  0
VERTEX
  8
0
 10
146.539936
 20
11.116409
 42
0.106432
  0
VERTEX
  8
0
 10
147.957265
 20
11.032790
 42
0.084427
  0
VERTEX
  8
0
 10
149.527653
 20
11.555973
 42
0.180509
  0
VERTEX
  8
0
 10
150.361626
 20
12.500000
 42
-0.097446
  0
VERTEX
  8
0
 10
150.721747
 20
13.073527
 42
-0.066866
  0
VERTEX
  8
0
 10
151.319735
 20
13.559375
 42
-0.064143
  0
VERTEX
  8
0
 10
152.054118
 20
13.887907
 42
-0.073267
  0
VERTEX
  8
0
 10
152.814977
 20
14.000000
 42
0.086851
  0
VERTEX
  8
0
 10
155.416336
 20
14.455296
 42
0.057140
  0
VERTEX
  8
0
 10
158.145194
 20
15.809648
 42
0.058941
  0
VERTEX
  8
0
 10
160.371667
 20
17.656956
 42
0.129353
  0
VERTEX
  8
0
 10
161.431169
 20
19.581780
 42
0.040979
  0
VERTEX
  8
0
 10
161.631460
 20
20.792153
 42
0.020070
  0
VERTEX
  8
0
 10
161.697051
 20
22.354993
 42
0.019763
  0
VERTEX
  8
0
 10
161.635191
 20
23.994554
 42
0.027060
  0
VERTEX
  8
0
 10
161.441799
 20
25.458544
 42
-0.027823
  0
VERTEX
  8
0
 10
161.240428
 20
27.001056
 42
-0.060927
  0
VERTEX
  8
0
 10
161.296922
 20
28.188960
 42
-0.084666
  0
VERTEX
  8
0
 10
161.603776
 20
29.061546
 42
-0.125273
  0
VERTEX
  8
0
 10
162.157719
 20
29.648667
 42
0.128489
  0
VERTEX
  8
0
 10
164.189729
 20
31.829879
 42
0.055102
  0
VERTEX
  8
0
 10
165.693710
 20
35.548540
 42
0.066759
  0
VERTEX
  8
0
 10
166.168182
 20
38.893246
 42
0.416441
  0
VERTEX
  8
0
 10
165.069806
 20
40.000000
 42
-0.317582
  0
VERTEX
  8
0
 10
164.750818
 20
40.225337
 42
-0.085398
  0
VERTEX
  8
0
 10
164.639611
 20
40.871699
 42
-0.049535
  0
VERTEX
  8
0
 10
164.740871
 20
41.891288
 42
-0.020333
  0
VERTEX
  8
0
 10
165.069806
 20
43.243398
 42
0.025958
  0
VERTEX
  8
0
 10
165.426954
 20
44.786846
 42
0.012881
  0
VERTEX
  8
0
 10
165.726755
 20
46.774159
 42
0.012748
  0
VERTEX
  8
0
 10
165.932350
 20
48.855254
 42
0.018246
  0
VERTEX
  8
0
 10
166.000000
 20
50.708451
 42
-0.043213
  0
VERTEX
  8
0
 10
166.299474
 20
54.167092
 42
-0.019639
  0
VERTEX
  8
0
 10
167.255911
 20
58.610426
 42
-0.019630
  0
VERTEX
  8
0
 10
168.556336
 20
62.959581
 42
-0.043799
  0
VERTEX
  8
0
 10
169.954734
 20
66.113486
 42
0.064047
  0
VERTEX
  8
0
 10
170.382078
 20
67.192929
 42
0.005998
  0
VERTEX
  8
0
 10
171.054365
 20
69.975729
 42
0.007621
  0
VERTEX
  8
0
 10
171.768261
 20
73.328284
 42
0.005920
  0
VERTEX
  8
0
 10
172.445976
 20
76.995799
 42
-0.003837
  0
VERTEX
  8
0
 10
173.098501
 20
80.611211
 42
-0.005514
  0
VERTEX
  8
0
 10
173.736137
 20
83.801582
 42
-0.003066
  0
VERTEX
  8
0
 10
174.319558
 20
86.480622
 42
-0.083447
  0
VERTEX
  8
0
 10
174.591855
 20
87.148624
 42
-0.337563
  0
VERTEX
  8
0
 10
175.485758
 20
87.491349
 42
-0.188240
  0
VERTEX
  8
0
 10
176.459451
 20
86.740154
 42
-0.052697
  0
VERTEX
  8
0
 10
177.611509
 20
84.269095
 42
-0.011008
  0
VERTEX
  8
0
 10
179.066708
 20
79.709744
 42
0.021903
  0
VERTEX
  8
0
 10
180.220270
 20
76.349948
 42
0.019990
  0
VERTEX
  8
0
 10
181.695248
 20
72.997712
 42
0.020444
  0
VERTEX
  8
0
 10
183.389295
 20
69.862299
 42
0.026770
  0
VERTEX
  8
0
 10
185.200273
 20
67.156209
 42
-0.021504
  0
VERTEX
  8
0
 10
187.560322
 20
63.708731
 42
-0.061370
  0
VERTEX
  8
0
 10
188.782498
 20
61.076630
 42
-0.044717
  0
VERTEX
  8
0
 10
189.525576
 20
57.796071
 42
-0.007509
  0
VERTEX
  8
0
 10
190.287217
 20
51.391151
 42
-0.004309
  0
VERTEX
  8
0
 10
190.912105
 20
44.813930
 42
-0.042477
  0
VERTEX
  8
0
 10
190.915445
 20
42.035189
 42
-0.092083
  0
VERTEX
  8
0
 10
190.405480
 20
40.173368
 42
-0.055805
  0
VERTEX
  8
0
 10
189.183444
 20
38.234942
 42
0.033657
  0
VERTEX
  8
0
 10
186.739931
 20
34.714110
 42
0.031583
  0
VERTEX
  8
0
 10
184.732848
 20
30.823459
 42
0.030893
  0
VERTEX
  8
0
 10
183.431637
 20
27.273700
 42
0.150347
  0
VERTEX
  8
0
 10
183.450425
 20
25.156198
 42
0.189406
  0
VERTEX
  8
0
 10
185.289408
 20
22.890024
 42
0.043463
  0
VERTEX
  8
0
 10
189.858810
 20
20.806347
 42
0.043867
  0
VERTEX
  8
0
 10
195.259544
 20
19.408383
 42
0.065444
  0
VERTEX
  8
0
 10
200.128676
 20
19.238342
 42
0.014909
  0
VERTEX
  8
0
 10
202.122966
 20
19.490167
 42
0.020050
  0
VERTEX
  8
0
 10
203.908609
 20
19.843810
 42
0.017551
  0
VERTEX
  8
0
 10
205.339662
 20
20.240961
 42
0.160659
  0
VERTEX
  8
0
 10
205.856590
 20
20.613449
 42
-0.056863
  0
VERTEX
  8
0
 10
206.236617
 20
21.028480
 42
-0.017400
  0
VERTEX
  8
0
 10
206.898498
 20
21.564811
 42
-0.017169
  0
VERTEX
  8
0
 10
207.687137
 20
22.118200
 42
-0.017986
  0
VERTEX
  8
0
 10
208.500000
 20
22.607183
 42
0.093933
  0
VERTEX
  8
0
 10
209.958489
 20
23.818087
 42
0.109635
  0
VERTEX
  8
0
 10
210.775836
 20
25.418538
 42
0.136187
  0
VERTEX
  8
0
 10
210.749754
 20
26.958405
 42
0.184444
  0
VERTEX
  8
0
 10
209.912695
 20
28.053957
 42
-0.063196
  0
VERTEX
  8
0
 10
209.320720
 20
28.532468
 42
-0.196191
  0
VERTEX
  8
0
 10
209.135231
 20
29.000521
 42
-0.142608
  0
VERTEX
  8
0
 10
209.306828
 20
29.568386
 42
-0.028999
  0
VERTEX
  8
0
 10
209.936747
 20
30.423785
 42
-0.046053
  0
VERTEX
  8
0
 10
210.539082
 20
31.026881
 42
-0.040838
  0
VERTEX
  8
0
 10
211.265279
 20
31.536987
 42
-0.043068
  0
VERTEX
  8
0
 10
212.000480
 20
31.887284
 42
-0.089881
  0
VERTEX
  8
0
 10
212.622445
 20
32.000000
 42
0.340977
  0
VERTEX
  8
0
 10
213.594468
 20
32.750082
 42
0.049743
  0
VERTEX
  8
0
 10
214.010809
 20
35.381155
 42
0.048266
  0
VERTEX
  8
0
 10
213.904694
 20
38.106215
 42
0.282891
  0
VERTEX
  8
0
 10
213.035239
 20
39.166667
 42
-0.210555
  0
VERTEX
  8
0
 10
212.546872
 20
39.619548
 42
-0.005856
  0
VERTEX
  8
0
 10
211.408635
 20
42.339583
 42
-0.011065
  0
VERTEX
  8
0
 10
210.155670
 20
45.643490
 42
-0.007258
  0
VERTEX
  8
0
 10
208.852636
 20
49.500000
 42
-0.011610
  0
VERTEX
  8
0
 10
207.157264
 20
55.220910
 42
-0.025406
  0
VERTEX
  8
0
 10
206.186620
 20
59.685425
 42
-0.024788
  0
VERTEX
  8
0
 10
205.660438
 20
64.292686
 42
-0.010542
  0
VERTEX
  8
0
 10
205.392951
 20
70.500000
 42
0.010827
  0
VERTEX
  8
0
 10
205.186676
 20
75.224196
 42
0.008544
  0
VERTEX
  8
0
 10
204.765537
 20
80.325000
 42
0.008653
  0
VERTEX
  8
0
 10
204.211274
 20
85.050052
 42
0.021113
  0
VERTEX
  8
0
 10
203.596685
 20
88.500000
 42
-0.006226
  0
VERTEX
  8
0
 10
202.744752
 20
92.575647
 42
-0.047135
  0
VERTEX
  8
0
 10
202.549930
 20
94.528929
 42
-0.111158
  0
VERTEX
  8
0
 10
202.811636
 20
95.720519
 42
-0.122988
  0
VERTEX
  8
0
 10
203.554284
 20
96.634485
 42
-0.133776
  0
VERTEX
  8
0
 10
206.374878
 20
97.753637
 42
-0.012105
  0
VERTEX
  8
0
 10
213.998759
 20
98.422788
 42
-0.016013
  0
VERTEX
  8
0
 10
222.776724
 20
98.697755
 42
-0.016313
  0
VERTEX
  8
0
 10
231.500000
 20
98.406884
 42
-0.001873
  0
VERTEX
  8
0
 10
253.290990
 20
96.885575
 42
-0.043479
  0
VERTEX
  8
0
 10
259.423490
 20
95.893716
 42
-0.226531
  0
VERTEX
  8
0
 10
261.694330
 20
94.008816
 42
-0.165046
  0
VERTEX
  8
0
 10
262.044421
 20
90.696955
 42
-0.016454
  0
VERTEX
  8
0
 10
261.679857
 20
89.296865
 42
-0.012111
  0
VERTEX
  8
0
 10
261.188009
 20
87.771161
 42
-0.012267
  0
VERTEX
  8
0
 10
260.651894
 20
86.349477
 42
-0.026570
  0
VERTEX
  8
0
 10
260.156389
 20
85.292216
 42
0.049361
  0
VERTEX
  8
0
 10
258.967464
 20
82.422357
 42
0.193356
  0
VERTEX
  8
0
 10
259.132537
 20
80.548877
 42
0.191839
  0
VERTEX
  8
0
 10
260.550039
 20
79.301004
 42
0.048518
  0
VERTEX
  8
0
 10
263.585571
 20
78.539439
 42
0.058770
  0
VERTEX
  8
0
 10
267.147858
 20
78.427389
 42
0.171676
  0
VERTEX
  8
0
 10
269.354434
 20
79.428706
 42
0.155014
  0
VERTEX
  8
0
 10
270.576167
 20
81.680141
 42
0.045512
  0
VERTEX
  8
0
 10
270.968197
 20
85.641592
 42
-0.019733
  0
VERTEX
  8
0
 10
271.074869
 20
87.902828
 42
-0.095442
  0
VERTEX
  8
0
 10
271.424828
 20
89.134171
 42
-0.145990
  0
VERTEX
  8
0
 10
272.126400
 20
89.876547
 42
-0.069565
  0
VERTEX
  8
0
 10
273.355765
 20
90.374443
 42
0.092928
  0
VERTEX
  8
0
 10
274.443353
 20
90.874853
 42
0.031686
  0
VERTEX
  8
0
 10
275.800436
 20
91.972058
 42
0.030222
  0
VERTEX
  8
0
 10
277.178928
 20
93.401896
 42
0.030531
  0
VERTEX
  8
0
 10
278.369954
 20
94.982851
 42
-0.026861
  0
VERTEX
  8
0
 10
279.606102
 20
96.648985
 42
-0.042146
  0
VERTEX
  8
0
 10
280.854852
 20
97.920751
 42
-0.051274
  0
VERTEX
  8
0
 10
282.031578
 20
98.739387
 42
-0.127019
  0
VERTEX
  8
0
 10
283.040912
 20
99.000000
 42
0.068490
  0
VERTEX
  8
0
 10
285.221807
 20
99.300146
 42
0.003613
  0
VERTEX
  8
0
 10
291.996923
 20
101.253916
 42
0.006264
  0
VERTEX
  8
0
 10
298.746362
 20
103.345537
 42
0.016584
  0
VERTEX
  8
0
 10
303.500000
 20
105.060329
 42
-0.005489
  0
VERTEX
  8
0
 10
304.633400
 20
105.497837
 42
-0.001090
  0
VERTEX
  8
0
 10
306.671433
 20
106.253888
 42
-0.001153
  0
VERTEX
  8
0
 10
309.048741
 20
107.123688
 42
-0.001073
  0
VERTEX
  8
0
 10
311.487856
 20
108.003805
 42
0.005730
  0
VERTEX
  8
0
 10
313.854909
 20
108.882918
 42
0.007320
  0
VERTEX
  8
0
 10
316.014096
 20
109.749596
 42
0.005827
  0
VERTEX
  8
0
 10
317.799059
 20
110.521151
 42
0.059817
  0
VERTEX
  8
0
 10
318.487856
 20
110.933235
 42
-0.077923
  0
VERTEX
  8
0
 10
320.320698
 20
111.941923
 42
-0.009770
  0
VERTEX
  8
0
 10
324.624942
 20
113.406788
 42
-0.010398
  0
VERTEX
  8
0
 10
328.978828
 20
114.695150
 42
-0.066826
  0
VERTEX
  8
0
 10
331.249567
 20
115.000000
 42
-0.129859
  0
VERTEX
  8
0
 10
333.288988
 20
114.461240
 42
-0.116402
  0
VERTEX
  8
0
 10
334.895352
 20
112.969829
 42
-0.076077
  0
VERTEX
  8
0
 10
336.133292
 20
110.332526
 42
-0.027553
  0
VERTEX
  8
0
 10
337.086575
 20
106.295976
 42
0.022459
  0
VERTEX
  8
0
 10
338.281854
 20
100.993941
 42
0.021028
  0
VERTEX
  8
0
 10
339.969794
 20
95.700658
 42
0.018637
  0
VERTEX
  8
0
 10
342.294319
 20
90.013464
 42
0.011499
  0
VERTEX
  8
0
 10
345.426848
 20
83.500000
 42
-0.014704
  0
VERTEX
  8
0
 10
347.501778
 20
79.113852
 42
-0.050270
  0
VERTEX
  8
0
 10
348.469367
 20
76.113941
 42
-0.043662
  0
VERTEX
  8
0
 10
348.886872
 20
72.771848
 42
-0.009173
  0
VERTEX
  8
0
 10
348.996919
 20
66.876630
 42
-0.016560
  0
VERTEX
  8
0
 10
348.787871
 20
60.504788
 42
-0.027759
  0
VERTEX
  8
0
 10
348.139112
 20
55.187794
 42
-0.018816
  0
VERTEX
  8
0
 10
346.730118
 20
48.721544
 42
-0.003923
  0
VERTEX
  8
0
 10
343.744722
 20
37.500000
 42
-0.026609
  0
VERTEX
  8
0
 10
342.949152
 20
35.107860
 42
-0.044395
  0
VERTEX
  8
0
 10
342.002012
 20
33.210545
 42
-0.051069
  0
VERTEX
  8
0
 10
340.848907
 20
31.705582
 42
-0.054302
  0
VERTEX
  8
0
 10
339.436211
 20
30.500000
 42
0.042074
  0
VERTEX
  8
0
 10
335.901563
 20
27.629596
 42
0.017475
  0
VERTEX
  8
0
 10
331.617525
 20
23.208815
 42
0.011361
  0
VERTEX
  8
0
 10
327.690286
 20
18.658417
 42
0.174052
  0
VERTEX
  8
0
 10
327.000000
 20
16.735501
 42
0.256060
  0
VERTEX
  8
0
 10
328.083204
 20
14.759051
 42
0.050100
  0
VERTEX
  8
0
 10
331.834222
 20
12.863169
 42
0.046232
  0
VERTEX
  8
0
 10
336.763948
 20
11.469751
 42
0.045800
  0
VERTEX
  8
0
 10
341.881466
 20
11.000000
 42
0.041772
  0
VERTEX
  8
0
 10
347.422239
 20
11.463711
 42
0.086207
  0
VERTEX
  8
0
 10
351.509480
 20
12.904836
 42
0.120495
  0
VERTEX
  8
0
 10
354.015504
 20
15.243209
 42
0.141647
  0
VERTEX
  8
0
 10
354.968197
 20
18.336864
 42
-0.123042
  0
VERTEX
  8
0
 10
355.189831
 20
19.162808
 42
-0.072327
  0
VERTEX
  8
0
 10
355.813408
 20
19.980669
 42
-0.060400
  0
VERTEX
  8
0
 10
356.775669
 20
20.718763
 42
-0.043212
  0
VERTEX
  8
0
 10
358.000000
 20
21.306102
 42
0.038841
  0
VERTEX
  8
0
 10
359.535597
 20
22.026344
 42
0.108963
  0
VERTEX
  8
0
 10
360.413035
 20
22.816775
 42
0.112586
  0
VERTEX
  8
0
 10
360.860523
 20
23.886443
 42
0.043024
  0
VERTEX
  8
0
 10
361.000000
 20
25.504351
 42
-0.056055
  0
VERTEX
  8
0
 10
361.285269
 20
28.040907
 42
-0.015043
  0
VERTEX
  8
0
 10
362.306232
 20
31.972534
 42
-0.010948
  0
VERTEX
  8
0
 10
364.046790
 20
37.481082
 42
-0.003610
  0
VERTEX
  8
0
 10
366.839805
 20
45.500000
 42
0.001980
  0
VERTEX
  8
0
 10
367.395777
 20
47.079630
 42
0.000569
  0
VERTEX
  8
0
 10
368.243552
 20
49.528125
 42
0.000573
  0
VERTEX
  8
0
 10
369.193257
 20
52.291415
 42
0.000610
  0
VERTEX
  8
0
 10
370.117004
 20
55.000000
 42
-0.005445
  0
VERTEX
  8
0
 10
371.066394
 20
57.698082
 42
-0.005127
  0
VERTEX
  8
0
 10
372.093044
 20
60.429843
 42
-0.005104
  0
VERTEX
  8
0
 10
373.052399
 20
62.832094
 42
-0.017675
  0
VERTEX
  8
0
 10
373.743438
 20
64.356911
 42
-0.010455
  0
VERTEX
  8
0
 10
374.653150
 20
66.096806
 42
-0.178301
  0
VERTEX
  8
0
 10
375.132351
 20
66.513072
 42
-0.318247
  0
VERTEX
  8
0
 10
375.611833
 20
66.388653
 42
-0.029905
  0
VERTEX
  8
0
 10
376.381442
 20
65.356911
 42
-0.088558
  0
VERTEX
  8
0
 10
378.726402
 20
59.878579
 42
-0.015644
  0
VERTEX
  8
0
 10
380.917951
 20
48.869802
 42
-0.017707
  0
VERTEX
  8
0
 10
382.410697
 20
37.434718
 42
-0.047830
  0
VERTEX
  8
0
 10
382.400959
 20
29.255139
 42
-0.017422
  0
VERTEX
  8
0
 10
381.842655
 20
25.037838
 42
-0.074037
  0
VERTEX
  8
0
 10
381.058387
 20
22.624964
 42
-0.064624
  0
VERTEX
  8
0
 10
379.558235
 20
20.389940
 42
-0.011314
  0
VERTEX
  8
0
 10
376.122582
 20
16.648606
 42
-0.002241
  0
VERTEX
  8
0
 10
373.768245
 20
14.220337
 42
-0.002108
  0
VERTEX
  8
0
 10
371.343821
 20
11.762913
 42
-0.002095
  0
VERTEX
  8
0
 10
369.176230
 20
9.602445
 42
-0.007293
  0
VERTEX
  8
0
 10
367.750000
 20
8.233308
 42
0.051390
  0
VERTEX
  8
0
 10
365.930873
 20
6.149624
 42
0.110636
  0
VERTEX
  8
0
 10
365.115983
 20
4.193115
 42
0.174402
  0
VERTEX
  8
0
 10
365.384713
 20
2.637460
 42
0.173717
  0
VERTEX
  8
0
 10
366.583261
 20
1.606423
 42
0.055054
  0
VERTEX
  8
0
 10
367.613216
 20
1.336389
 42
0.005373
  0
VERTEX
  8
0
 10
370.166385
 20
0.987867
 42
0.006754
  0
VERTEX
  8
0
 10
373.228627
 20
0.645275
 42
0.005297
  0
VERTEX
  8
0
 10
376.557825
 20
0.353862
 42
0.042518
  0
VERTEX
  8
0
 10
385.177638
 20
0.425138
 42
0.089364
  0
VERTEX
  8
0
 10
391.607221
 20
2.215009
 42
0.129116
  0
VERTEX
  8
0
 10
395.543418
 20
5.574879
 42
0.153032
  0
VERTEX
  8
0
 10
397.000000
 20
10.222506
 42
-0.039068
  0
VERTEX
  8
0
 10
397.092553
 20
11.405195
 42
-0.082467
  0
VERTEX
  8
0
 10
397.381847
 20
12.275965
 42
-0.119259
  0
VERTEX
  8
0
 10
397.849253
 20
12.805975
 42
-0.153868
  0
VERTEX
  8
0
 10
398.464816
 20
13.000000
 42
0.200580
  0
VERTEX
  8
0
 10
399.979203
 20
13.632978
 42
0.101240
  0
VERTEX
  8
0
 10
401.128385
 20
15.397797
 42
0.078492
  0
VERTEX
  8
0
 10
401.692810
 20
17.936903
 42
0.061959
  0
VERTEX
  8
0
 10
401.519051
 20
20.750140
 42
-0.014917
  0
VERTEX
  8
0
 10
401.235736
 20
22.556056
 42
-0.005097
  0
VERTEX
  8
0
 10
400.929898
 20
25.190210
 42
-0.005061
  0
VERTEX
  8
0
 10
400.651217
 20
28.106468
 42
-0.005821
  0
VERTEX
  8
0
 10
400.445881
 20
30.894843
 42
0.006157
  0
VERTEX
  8
0
 10
400.209675
 20
34.073303
 42
0.002731
  0
VERTEX
  8
0
 10
399.823504
 20
38.261044
 42
0.002703
  0
VERTEX
  8
0
 10
399.366277
 20
42.692119
 42
0.003645
  0
VERTEX
  8
0
 10
398.901698
 20
46.695944
 42
-0.008521
  0
VERTEX
  8
0
 10
398.418707
 20
51.245493
 42
-0.021814
  0
VERTEX
  8
0
 10
398.269384
 20
54.553947
 42
-0.030044
  0
VERTEX
  8
0
 10
398.417480
 20
57.078740
 42
-0.054245
  0
VERTEX
  8
0
 10
398.883331
 20
59.095167
 42
0.037529
  0
VERTEX
  8
0
 10
399.313848
 20
60.710885
 42
0.014499
  0
VERTEX
  8
0
 10
399.675211
 20
63.002711
 42
0.014259
  0
VERTEX
  8
0
 10
399.924931
 20
65.520057
 42
0.017100
  0
VERTEX
  8
0
 10
400.011006
 20
67.899223
 42
-0.010934
  0
VERTEX
  8
0
 10
400.069094
 20
70.336088
 42
-0.008065
  0
VERTEX
  8
0
 10
400.235858
 20
73.029772
 42
-0.008158
  0
VERTEX
  8
0
 10
400.476246
 20
75.572048
 42
-0.018026
  0
VERTEX
  8
0
 10
400.761006
 20
77.500000
 42
-0.697302
  0
VERTEX
  8
0
 10
401.123024
 20
77.562248
 42
-0.105169
  0
VERTEX
  8
0
 10
401.471464
 20
76.488123
 42
-0.014170
  0
VERTEX
  8
0
 10
401.795578
 20
72.219134
 42
-0.002754
  0
VERTEX
  8
0
 10
402.119429
 20
64.500000
 42
0.008828
  0
VERTEX
  8
0
 10
402.746653
 20
52.912333
 42
0.015915
  0
VERTEX
  8
0
 10
403.729783
 20
43.452885
 42
0.010229
  0
VERTEX
  8
0
 10
404.894212
 20
36.041741
 42
0.363470
  0
VERTEX
  8
0
 10
406.137942
 20
35.000000
 42
-0.276871
  0
VERTEX
  8
0
 10
406.470381
 20
34.800631
 42
-0.052689
  0
VERTEX
  8
0
 10
406.746770
 20
34.118750
 42
-0.042803
  0
VERTEX
  8
0
 10
406.937459
 20
33.149515
 42
-0.027183
  0
VERTEX
  8
0
 10
407.000000
 20
32.000000
 42
0.030703
  0
VERTEX
  8
0
 10
407.092253
 20
30.499083
 42
0.116834
  0
VERTEX
  8
0
 10
407.416667
 20
29.625000
 42
0.166173
  0
VERTEX
  8
0
 10
408.024683
 20
29.159458
 42
0.081208
  0
VERTEX
  8
0
 10
409.000000
 20
29.000000
 42
0.072254
  0
VERTEX
  8
0
 10
409.873159
 20
29.126841
 42
0.124864
  0
VERTEX
  8
0
 10
410.500000
 20
29.500000
 42
0.124864
  0
VERTEX
  8
0
 10
410.873159
 20
30.126841
 42
0.072254
  0
VERTEX
  8
0
 10
411.000000
 20
31.000000
 42
-0.048028
  0
VERTEX
  8
0
 10
411.073693
 20
31.765418
 42
-0.068025
  0
VERTEX
  8
0
 10
411.293750
 20
32.412500
 42
-0.088204
  0
VERTEX
  8
0
 10
411.618118
 20
32.848523
 42
-0.191087
  0
VERTEX
  8
0
 10
412.000000
 20
33.000000
 42
0.241532
  0
VERTEX
  8
0
 10
412.383578
 20
33.196772
 42
0.068632
  0
VERTEX
  8
0
 10
412.706250
 20
33.807922
 42
0.052675
  0
VERTEX
  8
0
 10
412.927079
 20
34.696922
 42
0.034569
  0
VERTEX
  8
0
 10
413.000000
 20
35.750374
 42
-0.031303
  0
VERTEX
  8
0
 10
413.093957
 20
37.249655
 42
-0.007286
  0
VERTEX
  8
0
 10
413.445513
 20
39.748965
 42
-0.007488
  0
VERTEX
  8
0
 10
413.936058
 20
42.618849
 42
-0.007277
  0
VERTEX
  8
0
 10
414.516641
 20
45.500374
 42
0.004328
  0
VERTEX
  8
0
 10
417.363214
 20
59.210338
 42
0.023606
  0
VERTEX
  8
0
 10
418.486860
 20
66.702833
 42
0.028409
  0
VERTEX
  8
0
 10
418.799364
 20
73.665141
 42
0.008070
  0
VERTEX
  8
0
 10
418.494967
 20
84.500000
 42
0.006332
  0
VERTEX
  8
0
 10
418.118952
 20
91.102344
 42
0.006285
  0
VERTEX
  8
0
 10
417.575129
 20
97.709375
 42
0.006182
  0
VERTEX
  8
0
 10
416.955615
 20
103.473954
 42
0.024248
  0
VERTEX
  8
0
 10
416.357934
 20
107.000000
 42
-0.009537
  0
VERTEX
  8
0
 10
414.441143
 20
116.587563
 42
-0.022691
  0
VERTEX
  8
0
 10
413.478380
 20
123.790413
 42
-0.023648
  0
VERTEX
  8
0
 10
413.193442
 20
130.871698
 42
-0.011223
  0
VERTEX
  8
0
 10
413.462945
 20
140.000000
 42
0.002678
  0
VERTEX
  8
0
 10
413.723324
 20
145.582915
 42
0.002641
  0
VERTEX
  8
0
 10
413.925227
 20
151.194161
 42
0.002594
  0
VERTEX
  8
0
 10
414.050617
 20
156.110999
 42
0.010134
  0
VERTEX
  8
0
 10
414.050742
 20
159.150336
 42
-0.022772
  0
VERTEX
  8
0
 10
414.112643
 20
161.595471
 42
-0.017119
  0
VERTEX
  8
0
 10
414.394909
 20
164.271725
 42
-0.017397
  0
VERTEX
  8
0
 10
414.835247
 20
166.775242
 42
-0.037647
  0
VERTEX
  8
0
 10
415.382883
 20
168.650336
 42
0.038384
  0
VERTEX
  8
0
 10
415.979789
 20
170.705360
 42
0.011350
  0
VERTEX
  8
0
 10
416.577316
 20
173.929394
 42
0.011319
  0
VERTEX
  8
0
 10
417.086314
 20
177.596495
 42
0.011965
  0
VERTEX
  8
0
 10
417.417860
 20
181.215685
 42
-0.007524
  0
VERTEX
  8
0
 10
417.725385
 20
184.936151
 42
-0.006133
  0
VERTEX
  8
0
 10
418.163273
 20
188.908761
 42
-0.006202
  0
VERTEX
  8
0
 10
418.656732
 20
192.556685
 42
-0.016102
  0
VERTEX
  8
0
 10
419.128985
 20
195.165835
 42
0.053414
  0
VERTEX
  8
0
 10
419.928387
 20
202.785145
 42
0.024815
  0
VERTEX
  8
0
 10
419.412756
 20
212.728309
 42
0.020508
  0
VERTEX
  8
0
 10
418.069691
 20
222.093346
 42
0.154005
  0
VERTEX
  8
0
 10
415.990641
 20
226.000000
 42
-0.045205
  0
VERTEX
  8
0
 10
415.681928
 20
226.363319
 42
-0.002753
  0
VERTEX
  8
0
 10
414.866341
 20
227.534068
 42
-0.004088
  0
VERTEX
  8
0
 10
413.912594
 20
228.943882
 42
-0.003012
  0
VERTEX
  8
0
 10
412.878507
 20
230.520230
 42
0.040326
  0
VERTEX
  8
0
 10
411.349467
 20
232.510159
 42
0.038126
  0
VERTEX
  8
0
 10
409.493853
 20
234.269615
 42
0.034286
  0
VERTEX
  8
0
 10
407.209917
 20
235.879688
 42
0.022570
  0
VERTEX
  8
0
 10
404.387866
 20
237.422722
 42
-0.009805
  0
VERTEX
  8
0
 10
402.060181
 20
238.619321
 42
-0.012010
  0
VERTEX
  8
0
 10
399.935811
 20
239.831345
 42
-0.010538
  0
VERTEX
  8
0
 10
398.207083
 20
240.923776
 42
-0.079944
  0
VERTEX
  8
0
 10
397.500000
 20
241.574859
 42
0.214082
  0
VERTEX
  8
0
 10
395.562823
 20
242.588155
 42
0.004141
  0
VERTEX
  8
0
 10
384.034756
 20
243.186526
 42
0.004245
  0
VERTEX
  8
0
 10
372.518377
 20
243.590752
 42
0.205751
  0
VERTEX
  8
0
 10
370.422677
 20
242.755540
 42
-0.189429
  0
VERTEX
  8
0
 10
369.791497
 20
242.480714
 42
-0.006478
  0
VERTEX
  8
0
 10
367.043695
 20
242.416725
 42
-0.011354
  0
VERTEX
  8
0
 10
363.741428
 20
242.457606
 42
-0.007589
  0
VERTEX
  8
0
 10
359.965831
 20
242.647539
 42
0.013217
  0
VERTEX
  8
0
 10
355.618270
 20
242.817213
 42
0.009643
  0
VERTEX
  8
0
 10
350.783351
 20
242.784764
 42
0.009778
  0
VERTEX
  8
0
 10
346.130888
 20
242.572682
 42
0.018220
  0
VERTEX
  8
0
 10
342.376958
 20
242.190172
 42
-0.003326
  0
VERTEX
  8
0
 10
338.583803
 20
241.689137
 42
-0.001484
  0
VERTEX
  8
0
 10
333.582606
 20
241.077426
 42
-0.001469
  0
VERTEX
  8
0
 10
328.287479
 20
240.461476
 42
-0.001990
  0
VERTEX
  8
0
 10
323.500000
 20
239.938114
 42
0.004486
  0
VERTEX
  8
0
 10
318.703717
 20
239.389549
 42
0.003268
  0
VERTEX
  8
0
 10
313.381250
 20
238.697036
 42
0.003301
  0
VERTEX
  8
0
 10
308.341937
 20
237.973923
 42
0.007251
  0
VERTEX
  8
0
 10
304.500000
 20
237.339619
 42
-0.007769
  0
VERTEX
  8
0
 10
300.722944
 20
236.720048
 42
-0.003848
  0
VERTEX
  8
0
 10
295.912500
 20
236.045325
 42
-0.003818
  0
VERTEX
  8
0
 10
290.912184
 20
235.421983
 42
-0.005582
  0
VERTEX
  8
0
 10
286.500000
 20
234.956011
 42
0.001022
  0
VERTEX
  8
0
 10
282.048849
 20
234.526930
 42
0.000672
  0
VERTEX
  8
0
 10
276.926143
 20
234.015587
 42
0.000676
  0
VERTEX
  8
0
 10
271.941006
 20
233.504402
 42
0.001303
  0
VERTEX
  8
0
 10
267.950699
 20
233.079265
 42
-0.029159
  0
VERTEX
  8
0
 10
259.134085
 20
232.634117
 42
-0.012367
  0
VERTEX
  8
0
 10
247.299626
 20
233.019901
 42
-0.010550
  0
VERTEX
  8
0
 10
232.908582
 20
234.150751
 42
-0.006469
  0
VERTEX
  8
0
 10
216.000000
 20
236.060303
 42
0.002495
  0
VERTEX
  8
0
 10
198.750859
 20
238.147315
 42
0.008435
  0
VERTEX
  8
0
 10
187.457726
 20
239.263848
 42
0.009708
  0
VERTEX
  8
0
 10
176.973728
 20
239.917451
 42
0.004203
  0
VERTEX
  8
0
 10
163.000000
 20
240.398912
 42
-0.004666
  0
VERTEX
  8
0
 10
154.006605
 20
240.717126
 42
-0.009337
  0
VERTEX
  8
0
 10
146.908011
 20
241.167596
 42
-0.011344
  0
VERTEX
  8
0
 10
141.439298
 20
241.742467
 42
-0.035140
  0
VERTEX
  8
0
 10
137.801825
 20
242.471012
 42
0.045016
  0
VERTEX
  8
0
 10
127.764793
 20
244.276212
 42
0.016870
  0
VERTEX
  8
0
 10
113.473662
 20
245.052157
 42
0.016998
  0
VERTEX
  8
0
 10
99.047304
 20
244.857582
 42
0.040765
  0
VERTEX
  8
0
 10
88.448926
 20
243.483142
 42
-0.031473
  0
VERTEX
  8
0
 10
86.749401
 20
243.230585
 42
-0.129029
  0
VERTEX
  8
0
 10
85.731386
 20
243.407473
 42
-0.140011
  0
VERTEX
  8
0
 10
84.977374
 20
244.051506
 42
-0.039561
  0
VERTEX
  8
0
 10
84.220365
 20
245.415697
 42
0.051809
  0
VERTEX
  8
0
 10
83.554211
 20
246.549902
 42
0.077624
  0
VERTEX
  8
0
 10
82.740220
 20
247.357217
 42
0.084074
  0
VERTEX
  8
0
 10
81.771278
 20
247.835576
 42
0.072837
  0
VERTEX
  8
0
 10
80.648557
 20
248.000000
 42
0.079897
  0
VERTEX
  8
0
 10
78.161396
 20
247.600014
 42
0.019813
  0
VERTEX
  8
0
 10
74.284587
 20
246.147270
 42
0.021127
  0
VERTEX
  8
0
 10
70.375625
 20
244.305093
 42
0.043818
  0
VERTEX
  8
0
 10
67.538594
 20
242.485729
 42
-0.057577
  0
VERTEX
  8
0
 10
66.318189
 20
241.749560
 42
-0.198121
  0
VERTEX
  8
0
 10
65.412570
 20
241.716419
 42
-0.108784
  0
VERTEX
  8
0
 10
64.412855
 20
242.359058
 42
-0.012135
  0
VERTEX
  8
0
 10
62.538594
 20
244.336963
 42
0.056593
  0
VERTEX
  8
0
 10
59.741652
 20
246.807441
 42
0.076660
  0
VERTEX
  8
0
 10
56.721223
 20
248.294187
 42
0.054006
  0
VERTEX
  8
0
 10
52.638824
 20
249.106798
 42
0.015260
  0
VERTEX
  8
0
 10
46.156071
 20
249.483608
 42
-0.011271
  0
VERTEX
  8
0
 10
43.294765
 20
249.627034
 42
-0.016293
  0
VERTEX
  8
0
 10
40.776700
 20
249.892937
 42
-0.011945
  0
VERTEX
  8
0
 10
38.734883
 20
250.225966
 42
-0.192067
  0
VERTEX
  8
0
 10
38.156071
 20
250.592963
 42
0.132555
  0
VERTEX
  8
0
 10
35.724332
 20
252.563527
 42
0.058340
  0
VERTEX
  8
0
 10
31.737391
 20
253.800755
 42
0.069271
  0
VERTEX
  8
0
 10
28.177511
 20
253.964723
 42
0.387432
  0
SEQEND
  0
POLYLINE
  8
0
 66
1
 70
1
  0
VERTEX
  8
0
 10
374.287263
 20
236.354111
 42
-0.005542
  0
VERTEX
  8
0
 10
379.609597
 20
236.037976
 42
-0.008680
  0
VERTEX
  8
0
 10
384.177783
 20
235.635987
 42
-0.003583
  0
VERTEX
  8
0
 10
388.038161
 20
235.200648
 42
-0.228286
  0
VERTEX
  8
0
 10
388.596280
 20
234.844216
 42
-0.180220
  0
VERTEX
  8
0
 10
388.660045
 20
234.524672
 42
-0.187798
  0
VERTEX
  8
0
 10
388.497588
 20
234.247988
 42
-0.114782
  0
VERTEX
  8
0
 10
388.099882
 20
234.060736
 42
-0.052919
  0
VERTEX
  8
0
 10
387.527632
 20
234.000000
 42
0.079385
  0
VERTEX
  8
0
 10
386.879947
 20
233.896515
 42
0.065396
  0
VERTEX
  8
0
 10
386.248381
 20
233.593393
 42
0.066646
  0
VERTEX
  8
0
 10
385.727937
 20
233.144984
 42
0.090271
  0
VERTEX
  8
0
 10
385.406065
 20
232.615805
 42
-0.219036
  0
VERTEX
  8
0
 10
384.778945
 20
232.003890
 42
-0.101633
  0
VERTEX
  8
0
 10
383.626876
 20
231.842368
 42
-0.041366
  0
VERTEX
  8
0
 10
381.595945
 20
232.140931
 42
-0.006578
  0
VERTEX
  8
0
 10
377.687450
 20
233.104875
 42
0.025724
  0
VERTEX
  8
0
 10
372.058516
 20
234.266567
 42
0.022747
  0
VERTEX
  8
0
 10
366.103769
 20
234.903752
 42
0.013036
  0
VERTEX
  8
0
 10
357.693828
 20
235.198575
 42
0.002531
  0
VERTEX
  8
0
 10
342.500000
 20
235.257981
 42
0.000000
  0
VERTEX
  8
0
 10
329.500000
 20
235.243016
 42
0.000000
  0
VERTEX
  8
0
 10
340.000000
 20
236.531355
 42
-0.008373
  0
VERTEX
  8
0
 10
344.386713
 20
236.995183
 42
-0.007836
  0
VERTEX
  8
0
 10
348.884375
 20
237.323759
 42
-0.007833
  0
VERTEX
  8
0
 10
352.884979
 20
237.490231
 42
-0.026442
  0
VERTEX
  8
0
 10
355.500000
 20
237.419743
 42
0.004759
  0
VERTEX
  8
0
 10
358.278205
 20
237.224105
 42
0.001031
  0
VERTEX
  8
0
 10
363.081258
 20
236.941733
 42
0.001075
  0
VERTEX
  8
0
 10
368.642132
 20
236.638312
 42
0.001029
  0
SEQEND
  0
POLYLINE
  8
0
 66
1
 70
1
  0
VERTEX
  8
0
 10
157.000000
 20
234.000000
 42
-0.080545
  0
VERTEX
  8
0
 10
156.781900
 20
232.654888
 42
-0.257077
  0
VERTEX
  8
0
 10
156.136764
 20
232.058621
 42
-0.280535
  0
VERTEX
  8
0
 10
155.340294
 20
232.308679
 42
-0.088522
  0
VERTEX
  8
0
 10
154.668138
 20
233.422436
 42
0.105841
  0
VERTEX
  8
0
 10
154.292247
 20
233.999554
 42
0.051183
  0
VERTEX
  8
0
 10
153.603738
 20
234.556687
 42
0.047527
  0
VERTEX
  8
0
 10
152.735704
 20
235.011974
 42
0.049883
  0
VERTEX
  8
0
 10
151.811149
 20
235.286254
 42
-0.034206
  0
VERTEX
  8
0
 10
151.055684
 20
235.484874
 42
-0.696836
  0
VERTEX
  8
0
 10
151.051052
 20
235.649535
 42
-0.079947
  0
VERTEX
  8
0
 10
151.648836
 20
235.784570
 42
-0.006577
  0
VERTEX
  8
0
 10
153.250000
 20
235.863818
 42
-0.018472
  0
VERTEX
  8
0
 10
155.268677
 20
235.862525
 42
-0.106318
  0
VERTEX
  8
0
 10
156.298273
 20
235.600262
 42
-0.191834
  0
VERTEX
  8
0
 10
156.819124
 20
235.018807
 42
-0.088080
  0
SEQEND
  0
POLYLINE
  8
0
 66
1
 70
1
  0
VERTEX
  8
0
 10
174.834535
 20
235.123425
 42
-0.072836
  0
VERTEX
  8
0
 10
175.340989
 20
234.687776
 42
-0.341354
  0
VERTEX
  8
0
 10
175.361513
 20
234.328699
 42
-0.158922
  0
VERTEX
  8
0
 10
174.937817
 20
234.003393
 42
-0.020679
  0
VERTEX
  8
0
 10
173.834535
 20
233.664255
 42
-0.040488
  0
VERTEX
  8
0
 10
172.916342
 20
233.501021
 42
-0.057463
  0
VERTEX
  8
0
 10
172.087853
 20
233.517422
 42
-0.073152
  0
VERTEX
  8
0
 10
171.464701
 20
233.697043
 42
-0.206494
  0
VERTEX
  8
0
 10
171.166667
 20
234.025517
 42
0.236423
  0
VERTEX
  8
0
 10
170.436202
 20
234.743656
 42
0.079842
  0
VERTEX
  8
0
 10
168.918411
 20
234.978053
 42
0.087748
  0
VERTEX
  8
0
 10
167.498956
 20
234.718036
 42
0.313333
  0
VERTEX
  8
0
 10
167.000000
 20
234.000000
 42
-0.148195
  0
VERTEX
  8
0
 10
166.884432
 20
233.618646
 42
-0.098894
  0
VERTEX
  8
0
 10
166.559375
 20
233.293750
 42
-0.082425
  0
VERTEX
  8
0
 10
166.073457
 20
233.074694
 42
-0.064853
  0
VERTEX
  8
0
 10
165.500000
 20
233.000000
 42
-0.099038
  0
VERTEX
  8
0
 10
164.927543
 20
233.114514
 42
-0.097945
  0
VERTEX
  8
0
 10
164.440625
 20
233.440625
 42
-0.097945
  0
VERTEX
  8
0
 10
164.114514
 20
233.927543
 42
-0.099038
  0
VERTEX
  8
0
 10
164.000000
 20
234.500000
 42
-0.194308
  0
VERTEX
  8
0
 10
164.283558
 20
235.202111
 42
-0.125702
  0
VERTEX
  8
0
 10
165.039115
 20
235.668509
 42
-0.061443
  0
VERTEX
  8
0
 10
166.428840
 20
235.921702
 42
-0.015177
  0
VERTEX
  8
0
 10
168.750000
 20
235.984687
 42
-0.016119
  0
VERTEX
  8
0
 10
170.666368
 20
235.916706
 42
-0.018232
  0
VERTEX
  8
0
 10
172.496707
 20
235.725375
 42
-0.017732
  0
VERTEX
  8
0
 10
174.029629
 20
235.452641
 42
-0.088589
  0
SEQEND
  0
POLYLINE
  8
0
 66
1
 70
1
  0
VERTEX
  8
0
 10
185.729167
 20
234.395833
 42
-0.126455
  0
VERTEX
  8
0
 10
185.402231
 20
234.202593
 42
-0.060344
  0
VERTEX
  8
0
 10
184.916927
 20
234.123424
 42
-0.054150
  0
VERTEX
  8
0
 10
184.359369
 20
234.160852
 42
-0.051402
  0
VERTEX
  8
0
 10
183.812500
 20
234.316886
 42
-0.054073
  0
VERTEX
  8
0
 10
183.395823
 20
234.538436
 42
-0.470617
  0
VERTEX
  8
0
 10
183.378580
 20
234.720685
 42
-0.168741
  0
VERTEX
  8
0
 10
183.670344
 20
234.862007
 42
-0.018894
  0
VERTEX
  8
0
 10
184.416667
 20
234.921053
 42
-0.028489
  0
VERTEX
  8
0
 10
185.112848
 20
234.910055
 42
-0.077125
  0
VERTEX
  8
0
 10
185.592839
 20
234.799335
 42
-0.208169
  0
VERTEX
  8
0
 10
185.775380
 20
234.614691
 42
-0.296942
  0
SEQEND
  0
POLYLINE
  8
0
 66
1
 70
1
  0
VERTEX
  8
0
 10
329.000000
 20
234.616577
 42
-0.361190
  0
VERTEX
  8
0
 10
328.526458
 20
234.046566
 42
-0.026700
  0
VERTEX
  8
0
 10
326.363830
 20
233.761687
 42
-0.031322
  0
VERTEX
  8
0
 10
324.103817
 20
233.727871
 42
-0.130096
  0
VERTEX
  8
0
 10
322.814646
 20
234.135717
 42
-0.251563
  0
VERTEX
  8
0
 10
322.624852
 20
234.472836
 42
-0.324531
  0
VERTEX
  8
0
 10
322.821687
 20
234.755816
 42
-0.068249
  0
VERTEX
  8
0
 10
323.698318
 20
234.932735
 42
-0.014694
  0
VERTEX
  8
0
 10
325.250000
 20
234.984687
 42
-0.009593
  0
VERTEX
  8
0
 10
326.687806
 20
234.962972
 42
-0.015892
  0
VERTEX
  8
0
 10
327.898438
 20
234.882871
 42
-0.009714
  0
VERTEX
  8
0
 10
328.867358
 20
234.768715
 42
-0.374717
  0
SEQEND
  0
POLYLINE
  8
0
 66
1
 70
1
  0
VERTEX
  8
0
 10
196.000000
 20
232.700801
 42
-0.204188
  0
VERTEX
  8
0
 10
195.767122
 20
232.154322
 42
-0.129942
  0
VERTEX
  8
0
 10
195.153559
 20
231.813787
 42
-0.069185
  0
VERTEX
  8
0
 10
194.087296
 20
231.695919
 42
-0.022045
  0
VERTEX
  8
0
 10
192.490732
 20
231.811289
 42
-0.023075
  0
VERTEX
  8
0
 10
189.359148
 20
232.324251
 42
-0.286529
  0
VERTEX
  8
0
 10
188.528687
 20
233.124075
 42
-0.454250
  0
VERTEX
  8
0
 10
189.023735
 20
233.837413
 42
-0.027845
  0
VERTEX
  8
0
 10
191.940983
 20
234.000000
 42
-0.021791
  0
VERTEX
  8
0
 10
193.711896
 20
233.922783
 42
-0.055713
  0
VERTEX
  8
0
 10
194.968939
 20
233.669981
 42
-0.092029
  0
VERTEX
  8
0
 10
195.732132
 20
233.259647
 42
-0.227281
  0
SEQEND
  0
POLYLINE
  8
0
 66
1
 70
1
  0
VERTEX
  8
0
 10
319.671135
 20
233.337802
 42
-0.187759
  0
VERTEX
  8
0
 10
318.602374
 20
232.867937
 42
-0.014793
  0
VERTEX
  8
0
 10
315.440855
 20
232.825507
 42
-0.015094
  0
VERTEX
  8
0
 10
312.285827
 20
232.971844
 42
-0.179095
  0
VERTEX
  8
0
 10
311.191797
 20
233.474870
 42
-0.594299
  0
VERTEX
  8
0
 10
311.252298
 20
233.679827
 42
-0.022513
  0
VERTEX
  8
0
 10
312.240715
 20
233.845743
 42
-0.020108
  0
VERTEX
  8
0
 10
313.681691
 20
233.962837
 42
-0.010218
  0
VERTEX
  8
0
 10
315.500000
 20
234.000000
 42
-0.012893
  0
VERTEX
  8
0
 10
317.309390
 20
233.953334
 42
-0.026474
  0
VERTEX
  8
0
 10
318.719021
 20
233.805479
 42
-0.038243
  0
VERTEX
  8
0
 10
319.609261
 20
233.593377
 42
-0.561281
  0
SEQEND
  0
POLYLINE
  8
0
 66
1
 70
1
  0
VERTEX
  8
0
 10
163.060585
 20
228.486693
 42
-0.092349
  0
VERTEX
  8
0
 10
164.767995
 20
227.764047
 42
-0.120230
  0
VERTEX
  8
0
 10
165.917397
 20
226.522625
 42
-0.269630
  0
VERTEX
  8
0
 10
165.897943
 20
225.505190
 42
-0.261995
  0
VERTEX
  8
0
 10
165.000000
 20
225.000000
 42
0.182890
  0
VERTEX
  8
0
 10
164.618279
 20
224.855542
 42
0.090793
  0
VERTEX
  8
0
 10
164.293750
 20
224.442655
 42
0.070691
  0
VERTEX
  8
0
 10
164.073855
 20
223.828662
 42
0.050733
  0
VERTEX
  8
0
 10
164.000000
 20
223.102655
 42
0.160669
  0
VERTEX
  8
0
 10
164.331402
 20
222.097955
 42
0.123397
  0
VERTEX
  8
0
 10
165.229601
 20
221.359632
 42
0.056852
  0
VERTEX
  8
0
 10
166.990778
 20
220.758590
 42
0.010721
  0
VERTEX
  8
0
 10
170.331913
 20
220.102655
 42
0.008240
  0
VERTEX
  8
0
 10
173.017252
 20
219.680494
 42
0.007114
  0
VERTEX
  8
0
 10
175.849899
 20
219.323905
 42
0.007177
  0
VERTEX
  8
0
 10
178.427676
 20
219.073993
 42
0.020576
  0
VERTEX
  8
0
 10
180.224924
 20
219.000000
 42
-0.031549
  0
VERTEX
  8
0
 10
181.762139
 20
218.902908
 42
-0.055484
  0
VERTEX
  8
0
 10
182.998422
 20
218.604286
 42
-0.072451
  0
VERTEX
  8
0
 10
183.882959
 20
218.129627
 42
-0.142765
  0
VERTEX
  8
0
 10
184.361626
 20
217.500000
 42
0.176412
  0
VERTEX
  8
0
 10
185.393775
 20
216.312779
 42
0.154540
  0
VERTEX
  8
0
 10
187.012431
 20
215.985887
 42
0.167704
  0
VERTEX
  8
0
 10
188.431684
 20
216.653520
 42
0.202393
  0
VERTEX
  8
0
 10
189.000000
 20
218.000000
 42
-0.072314
  0
VERTEX
  8
0
 10
189.111864
 20
218.769411
 42
-0.088920
  0
VERTEX
  8
0
 10
189.437500
 20
219.416667
 42
-0.102140
  0
VERTEX
  8
0
 10
189.924246
 20
219.846791
 42
-0.130775
  0
VERTEX
  8
0
 10
190.500000
 20
220.000000
 42
0.140575
  0
VERTEX
  8
0
 10
191.119980
 20
220.177821
 42
0.118484
  0
VERTEX
  8
0
 10
191.600000
 20
220.666667
 42
0.088208
  0
VERTEX
  8
0
 10
191.901370
 20
221.456621
 42
0.047160
  0
VERTEX
  8
0
 10
192.000000
 20
222.500000
 42
-0.031373
  0
VERTEX
  8
0
 10
192.060153
 20
223.457723
 42
-0.048525
  0
VERTEX
  8
0
 10
192.242875
 20
224.265625
 42
-0.062173
  0
VERTEX
  8
0
 10
192.509042
 20
224.825779
 42
-0.256148
  0
VERTEX
  8
0
 10
192.826807
 20
225.000000
 42
-0.314934
  0
VERTEX
  8
0
 10
193.115710
 20
224.797993
 42
-0.055623
  0
VERTEX
  8
0
 10
193.281400
 20
224.118750
 42
-0.042928
  0
VERTEX
  8
0
 10
193.322426
 20
223.149985
 42
-0.025568
  0
VERTEX
  8
0
 10
193.213308
 20
222.000000
 42
-0.041788
  0
VERTEX
  8
0
 10
192.942136
 20
220.837963
 42
-0.058612
  0
VERTEX
  8
0
 10
192.498503
 20
219.870322
 42
-0.073547
  0
VERTEX
  8
0
 10
191.955523
 20
219.217492
 42
-0.184598
  0
VERTEX
  8
0
 10
191.386501
 20
219.000000
 42
0.188532
  0
VERTEX
  8
0
 10
190.790898
 20
218.767143
 42
0.111048
  0
VERTEX
  8
0
 10
190.350734
 20
218.129556
 42
0.068428
  0
VERTEX
  8
0
 10
190.082647
 20
217.063614
 42
0.027444
  0
VERTEX
  8
0
 10
190.000000
 20
215.559017
 42
0.029990
  0
VERTEX
  8
0
 10
190.149768
 20
213.064305
 42
0.172352
  0
VERTEX
  8
0
 10
190.729892
 20
211.897139
 42
0.131580
  0
VERTEX
  8
0
 10
192.003278
 20
211.190676
 42
0.014854
  0
VERTEX
  8
0
 10
195.257616
 20
210.479494
 42
0.013391
  0
VERTEX
  8
0
 10
197.421062
 20
210.133321
 42
0.118645
  0
VERTEX
  8
0
 10
198.375201
 20
210.233203
 42
0.241093
  0
VERTEX
  8
0
 10
198.846547
 20
210.731961
 42
0.071118
  0
VERTEX
  8
0
 10
199.000000
 20
211.805376
 42
0.098318
  0
VERTEX
  8
0
 10
198.815862
 20
212.732760
 42
0.086363
  0
VERTEX
  8
0
 10
198.287172
 20
213.568013
 42
0.073563
  0
VERTEX
  8
0
 10
197.421603
 20
214.278516
 42
0.047607
  0
VERTEX
  8
0
 10
196.250000
 20
214.837719
 42
-0.017455
  0
VERTEX
  8
0
 10
195.251103
 20
215.242594
 42
-0.091606
  0
VERTEX
  8
0
 10
194.765075
 20
215.577030
 42
-0.474711
  0
VERTEX
  8
0
 10
194.787407
 20
215.797329
 42
-0.134811
  0
VERTEX
  8
0
 10
195.166667
 20
215.921053
 42
0.062782
  0
VERTEX
  8
0
 10
195.832597
 20
216.037238
 42
0.060797
  0
VERTEX
  8
0
 10
196.456688
 20
216.315623
 42
0.065871
  0
VERTEX
  8
0
 10
196.947242
 20
216.706325
 42
0.111691
  0
VERTEX
  8
0
 10
197.217803
 20
217.153409
 42
-0.307703
  0
VERTEX
  8
0
 10
197.566825
 20
217.419856
 42
-0.123753
  0
VERTEX
  8
0
 10
198.185825
 20
217.300013
 42
-0.062147
  0
VERTEX
  8
0
 10
199.058836
 20
216.750694
 42
-0.024914
  0
VERTEX
  8
0
 10
200.107063
 20
215.802028
 42
-0.026577
  0
VERTEX
  8
0
 10
201.344746
 20
214.425278
 42
-0.089827
  0
VERTEX
  8
0
 10
201.922169
 20
213.368161
 42
-0.119255
  0
VERTEX
  8
0
 10
202.007314
 20
212.349335
 42
-0.066520
  0
VERTEX
  8
0
 10
201.653112
 20
211.148619
 42
-0.026747
  0
VERTEX
  8
0
 10
201.231912
 20
210.325923
 42
-0.035510
  0
VERTEX
  8
0
 10
200.758985
 20
209.631157
 42
-0.038357
  0
VERTEX
  8
0
 10
200.302177
 20
209.136184
 42
-0.189417
  0
VERTEX
  8
0
 10
199.955594
 20
209.000000
 42
0.231485
  0
VERTEX
  8
0
 10
199.629597
 20
208.840528
 42
0.041035
  0
VERTEX
  8
0
 10
199.246797
 20
208.254792
 42
0.037031
  0
VERTEX
  8
0
 10
198.877848
 20
207.434802
 42
0.025724
  0
VERTEX
  8
0
 10
198.580101
 20
206.463123
 42
-0.019740
  0
VERTEX
  8
0
 10
198.135871
 20
204.948983
 42
-0.230555
  0
VERTEX
  8
0
 10
197.715478
 20
204.522361
 42
-0.222785
  0
VERTEX
  8
0
 10
197.110937
 20
204.582316
 42
-0.018440
  0
VERTEX
  8
0
 10
195.749186
 20
205.463123
 42
0.070911
  0
VERTEX
  8
0
 10
193.735604
 20
206.484506
 42
0.065167
  0
VERTEX
  8
0
 10
191.457531
 20
206.940825
 42
0.070224
  0
VERTEX
  8
0
 10
189.316066
 20
206.784919
 42
0.119355
  0
VERTEX
  8
0
 10
187.707794
 20
206.007084
 42
0.005203
  0
VERTEX
  8
0
 10
183.640690
 20
202.592025
 42
0.016562
  0
VERTEX
  8
0
 10
181.025399
 20
200.194435
 42
0.019164
  0
VERTEX
  8
0
 10
179.359104
 20
198.431960
 42
0.181719
  0
VERTEX
  8
0
 10
179.000000
 20
197.476516
 42
-0.154034
  0
VERTEX
  8
0
 10
178.836280
 20
196.957682
 42
-0.050606
  0
VERTEX
  8
0
 10
178.306644
 20
196.344540
 42
-0.044802
  0
VERTEX
  8
0
 10
177.542913
 20
195.742359
 42
-0.037668
  0
VERTEX
  8
0
 10
176.639640
 20
195.245578
 42
0.076678
  0
VERTEX
  8
0
 10
175.449221
 20
194.464660
 42
0.094930
  0
VERTEX
  8
0
 10
174.650581
 20
193.409425
 42
0.066238
  0
VERTEX
  8
0
 10
174.119530
 20
191.840040
 42
0.020444
  0
VERTEX
  8
0
 10
173.737994
 20
189.367848
 42
-0.020292
  0
VERTEX
  8
0
 10
173.450581
 20
187.501767
 42
-0.028459
  0
VERTEX
  8
0
 10
173.033069
 20
185.868691
 42
-0.027945
  0
VERTEX
  8
0
 10
172.556964
 20
184.615518
 42
-0.210555
  0
VERTEX
  8
0
 10
172.098354
 20
184.199451
 42
0.301353
  0
VERTEX
  8
0
 10
171.219218
 20
183.075196
 42
0.017464
  0
VERTEX
  8
0
 10
171.020590
 20
178.494191
 42
0.018484
  0
VERTEX
  8
0
 10
171.151509
 20
173.911103
 42
0.242519
  0
VERTEX
  8
0
 10
172.000000
 20
172.500000
 42
-0.103952
  0
VERTEX
  8
0
 10
172.378123
 20
172.140084
 42
-0.054842
  0
VERTEX
  8
0
 10
172.686369
 20
171.566787
 42
-0.051138
  0
VERTEX
  8
0
 10
172.883970
 20
170.883647
 42
-0.054901
  0
VERTEX
  8
0
 10
172.932320
 20
170.190983
 42
-0.035275
  0
VERTEX
  8
0
 10
172.850370
 20
169.452537
 42
-0.495841
  0
VERTEX
  8
0
 10
172.645526
 20
169.348709
 42
-0.158658
  0
VERTEX
  8
0
 10
172.342857
 20
169.639973
 42
-0.010133
  0
VERTEX
  8
0
 10
171.779505
 20
170.750000
 42
0.028440
  0
VERTEX
  8
0
 10
171.301920
 20
171.611401
 42
0.036638
  0
VERTEX
  8
0
 10
170.764269
 20
172.339063
 42
0.039920
  0
VERTEX
  8
0
 10
170.244659
 20
172.854547
 42
0.177225
  0
VERTEX
  8
0
 10
169.847186
 20
173.000000
 42
-0.208606
  0
VERTEX
  8
0
 10
169.523282
 20
173.141285
 42
-0.082025
  0
VERTEX
  8
0
 10
169.248861
 20
173.556072
 42
-0.062493
  0
VERTEX
  8
0
 10
169.062171
 20
174.168303
 42
-0.042815
  0
VERTEX
  8
0
 10
169.000000
 20
174.893011
 42
0.072710
  0
VERTEX
  8
0
 10
168.887915
 20
175.659707
 42
0.064008
  0
VERTEX
  8
0
 10
168.559375
 20
176.399034
 42
0.066864
  0
VERTEX
  8
0
 10
168.073537
 20
177.000393
 42
0.098143
  0
VERTEX
  8
0
 10
167.500000
 20
177.361626
 42
-0.255434
  0
VERTEX
  8
0
 10
166.187737
 20
178.906333
 42
-0.062835
  0
VERTEX
  8
0
 10
165.917073
 20
182.345461
 42
-0.060891
  0
VERTEX
  8
0
 10
166.527065
 20
185.929155
 42
-0.165498
  0
VERTEX
  8
0
 10
168.000000
 20
188.000000
 42
0.095932
  0
VERTEX
  8
0
 10
169.275254
 20
189.355256
 42
0.098066
  0
VERTEX
  8
0
 10
169.940027
 20
191.078343
 42
0.153011
  0
VERTEX
  8
0
 10
169.761687
 20
192.432266
 42
0.291934
  0
VERTEX
  8
0
 10
168.872192
 20
193.000000
 42
-0.273061
  0
VERTEX
  8
0
 10
168.422393
 20
193.265437
 42
-0.096973
  0
VERTEX
  8
0
 10
168.184631
 20
194.004620
 42
-0.051900
  0
VERTEX
  8
0
 10
168.167065
 20
195.245489
 42
-0.017255
  0
VERTEX
  8
0
 10
168.392364
 20
197.052248
 42
0.036193
  0
VERTEX
  8
0
 10
168.565081
 20
199.050719
 42
0.014586
  0
VERTEX
  8
0
 10
168.523107
 20
201.791312
 42
0.014344
  0
VERTEX
  8
0
 10
168.306138
 20
204.751223
 42
0.017641
  0
VERTEX
  8
0
 10
167.927515
 20
207.494840
 42
0.010830
  0
VERTEX
  8
0
 10
167.245983
 20
210.962377
 42
0.059689
  0
VERTEX
  8
0
 10
166.621075
 20
212.757655
 42
0.121751
  0
VERTEX
  8
0
 10
165.815446
 20
213.720930
 42
0.123227
  0
VERTEX
  8
0
 10
164.657342
 20
214.192591
 42
-0.087054
  0
VERTEX
  8
0
 10
163.574488
 20
214.545691
 42
-0.137238
  0
VERTEX
  8
0
 10
162.871615
 20
215.215952
 42
-0.090301
  0
VERTEX
  8
0
 10
162.440214
 20
216.375209
 42
-0.023551
  0
VERTEX
  8
0
 10
162.183443
 20
218.353854
 42
0.015781
  0
VERTEX
  8
0
 10
161.927903
 20
220.595306
 42
0.134974
  0
VERTEX
  8
0
 10
161.525828
 20
221.511854
 42
0.221682
  0
VERTEX
  8
0
 10
160.807511
 20
221.861287
 42
0.051379
  0
VERTEX
  8
0
 10
159.433443
 20
221.742526
 42
-0.042233
  0
VERTEX
  8
0
 10
158.061818
 20
221.598712
 42
-0.226785
  0
VERTEX
  8
0
 10
157.396390
 20
221.900654
 42
-0.157458
  0
VERTEX
  8
0
 10
157.071928
 20
222.698041
 42
-0.018526
  0
VERTEX
  8
0
 10
157.000000
 20
224.638672
 42
-0.028161
  0
VERTEX
  8
0
 10
157.072595
 20
225.926575
 42
-0.044166
  0
VERTEX
  8
0
 10
157.293750
 20
227.012610
 42
-0.054998
  0
VERTEX
  8
0
 10
157.614708
 20
227.773768
 42
-0.271883
  0
VERTEX
  8
0
 10
158.000000
 20
228.000000
 42
0.203393
  0
VERTEX
  8
0
 10
158.391231
 20
228.166015
 42
0.077085
  0
VERTEX
  8
0
 10
158.740325
 20
228.660937
 42
0.060062
  0
VERTEX
  8
0
 10
158.998138
 20
229.388690
 42
0.042269
  0
VERTEX
  8
0
 10
159.116001
 20
230.250000
 42
-0.007511
  0
VERTEX
  8
0
 10
159.186334
 20
231.305560
 42
-0.176527
  0
VERTEX
  8
0
 10
159.309414
 20
231.573217
 42
-0.557008
  0
VERTEX
  8
0
 10
159.458354
 20
231.538960
 42
-0.017543
  0
VERTEX
  8
0
 10
159.676586
 20
230.816149
 42
0.123513
  0
VERTEX
  8
0
 10
160.058193
 20
230.124081
 42
0.054608
  0
VERTEX
  8
0
 10
160.854027
 20
229.437282
 42
0.049409
  0
VERTEX
  8
0
 10
161.903196
 20
228.858463
 42
0.047335
  0
SEQEND
  0
POLYLINE
  8
0
 66
1
 70
1
  0
VERTEX
  8
0
 10
304.000000
 20
231.606989
 42
-0.222225
  0
VERTEX
  8
0
 10
303.912889
 20
231.420671
 42
-0.030693
  0
VERTEX
  8
0
 10
303.559375
 20
231.160341
 42
-0.030395
  0
VERTEX
  8
0
 10
303.074558
 20
230.887494
 42
-0.021360
  0
VERTEX
  8
0
 10
302.500000
 20
230.638374
 42
-0.055937
  0
VERTEX
  8
0
 10
301.925634
 20
230.488865
 42
-0.100118
  0
VERTEX
  8
0
 10
301.440625
 20
230.516384
 42
-0.147206
  0
VERTEX
  8
0
 10
301.122486
 20
230.710807
 42
-0.184534
  0
VERTEX
  8
0
 10
301.000000
 20
231.031385
 42
-0.152681
  0
VERTEX
  8
0
 10
301.115494
 20
231.400789
 42
-0.098158
  0
VERTEX
  8
0
 10
301.440625
 20
231.715469
 42
-0.080880
  0
VERTEX
  8
0
 10
301.926468
 20
231.927770
 42
-0.062722
  0
VERTEX
  8
0
 10
302.500000
 20
232.000000
 42
-0.024748
  0
VERTEX
  8
0
 10
303.074824
 20
231.971531
 42
-0.039339
  0
VERTEX
  8
0
 10
303.559375
 20
231.884553
 42
-0.046727
  0
VERTEX
  8
0
 10
303.903916
 20
231.758929
 42
-0.289661
  0
SEQEND
  0
POLYLINE
  8
0
 66
1
 70
1
  0
VERTEX
  8
0
 10
358.172531
 20
221.898898
 42
0.022240
  0
VERTEX
  8
0
 10
358.114579
 20
219.719154
 42
0.045463
  0
VERTEX
  8
0
 10
358.300096
 20
218.020054
 42
0.059039
  0
VERTEX
  8
0
 10
358.731146
 20
216.708604
 42
0.087699
  0
VERTEX
  8
0
 10
359.422531
 20
215.720326
 42
-0.030671
  0
VERTEX
  8
0
 10
360.026227
 20
215.037647
 42
-0.031419
  0
VERTEX
  8
0
 10
360.536618
 20
214.291507
 42
-0.033096
  0
VERTEX
  8
0
 10
360.893448
 20
213.590689
 42
-0.101542
  0
VERTEX
  8
0
 10
361.000000
 20
213.071429
 42
0.077535
  0
VERTEX
  8
0
 10
361.063856
 20
212.662119
 42
0.090096
  0
VERTEX
  8
0
 10
361.248803
 20
212.314732
 42
0.100778
  0
VERTEX
  8
0
 10
361.523971
 20
212.082499
 42
0.125682
  0
VERTEX
  8
0
 10
361.846990
 20
212.000000
 42
-0.187685
  0
VERTEX
  8
0
 10
363.528000
 20
211.345961
 42
-0.058450
  0
VERTEX
  8
0
 10
365.329304
 20
209.258402
 42
-0.046815
  0
VERTEX
  8
0
 10
367.042212
 20
206.134772
 42
-0.029668
  0
VERTEX
  8
0
 10
368.462003
 20
202.229600
 42
0.022282
  0
VERTEX
  8
0
 10
369.489375
 20
199.268371
 42
0.030423
  0
VERTEX
  8
0
 10
370.690354
 20
196.712905
 42
0.033593
  0
VERTEX
  8
0
 10
372.074863
 20
194.540089
 42
0.041385
  0
VERTEX
  8
0
 10
373.653855
 20
192.729600
 42
-0.027401
  0
VERTEX
  8
0
 10
375.299939
 20
190.945346
 42
-0.061213
  0
VERTEX
  8
0
 10
376.291337
 20
189.392069
 42
-0.068454
  0
VERTEX
  8
0
 10
376.812856
 20
187.758990
 42
-0.042420
  0
VERTEX
  8
0
 10
376.989352
 20
185.750000
 42
-0.019734
  0
VERTEX
  8
0
 10
376.903861
 20
183.416748
 42
-0.173763
  0
VERTEX
  8
0
 10
376.489269
 20
182.488805
 42
-0.173608
  0
VERTEX
  8
0
 10
375.579483
 20
182.034948
 42
-0.019691
  0
VERTEX
  8
0
 10
373.250000
 20
181.849200
 42
-0.006795
  0
VERTEX
  8
0
 10
371.622229
 20
181.805887
 42
-0.005105
  0
VERTEX
  8
0
 10
369.830500
 20
181.800865
 42
-0.005162
  0
VERTEX
  8
0
 10
368.144540
 20
181.830760
 42
-0.011811
  0
VERTEX
  8
0
 10
366.875107
 20
181.896416
 42
0.049068
  0
VERTEX
  8
0
 10
365.762841
 20
181.871094
 42
0.069139
  0
VERTEX
  8
0
 10
364.805273
 20
181.617512
 42
0.082472
  0
VERTEX
  8
0
 10
364.082883
 20
181.163091
 42
0.120151
  0
VERTEX
  8
0
 10
363.656492
 20
180.547216
 42
-0.134983
  0
VERTEX
  8
0
 10
363.175550
 20
179.894133
 42
-0.075928
  0
VERTEX
  8
0
 10
362.312966
 20
179.404668
 42
-0.058274
  0
VERTEX
  8
0
 10
361.107800
 20
179.099311
 42
-0.032945
  0
VERTEX
  8
0
 10
359.602232
 20
179.000000
 42
0.050214
  0
VERTEX
  8
0
 10
357.619695
 20
178.800396
 42
0.103805
  0
VERTEX
  8
0
 10
356.196719
 20
178.186060
 42
0.074139
  0
VERTEX
  8
0
 10
354.854778
 20
176.904389
 42
0.016673
  0
VERTEX
  8
0
 10
352.996236
 20
174.339315
 42
0.022003
  0
VERTEX
  8
0
 10
351.790911
 20
172.371955
 42
0.029263
  0
VERTEX
  8
0
 10
350.884146
 20
170.481159
 42
0.031465
  0
VERTEX
  8
0
 10
350.336479
 20
168.859799
 42
0.130386
  0
VERTEX
  8
0
 10
350.332860
 20
167.835144
 42
-0.083892
  0
VERTEX
  8
0
 10
350.411005
 20
166.953307
 42
-0.147943
  0
VERTEX
  8
0
 10
350.146979
 20
166.278128
 42
-0.119786
  0
VERTEX
  8
0
 10
349.499677
 20
165.769668
 42
-0.045406
  0
VERTEX
  8
0
 10
348.407471
 20
165.387421
 42
0.058748
  0
VERTEX
  8
0
 10
347.405070
 20
165.006373
 42
0.082444
  0
VERTEX
  8
0
 10
346.641542
 20
164.431766
 42
0.092814
  0
VERTEX
  8
0
 10
346.166295
 20
163.700081
 42
0.098048
  0
VERTEX
  8
0
 10
346.000000
 20
162.860207
 42
-0.071639
  0
VERTEX
  8
0
 10
345.887932
 20
162.082054
 42
-0.063737
  0
VERTEX
  8
0
 10
345.559375
 20
161.333021
 42
-0.066849
  0
VERTEX
  8
0
 10
345.073557
 20
160.725038
 42
-0.099506
  0
VERTEX
  8
0
 10
344.500000
 20
160.361626
 42
0.092758
  0
VERTEX
  8
0
 10
343.926527
 20
160.008927
 42
0.066773
  0
VERTEX
  8
0
 10
343.440625
 20
159.433294
 42
0.064994
  0
VERTEX
  8
0
 10
343.112133
 20
158.731746
 42
0.077181
  0
VERTEX
  8
0
 10
343.000000
 20
158.009643
 42
-0.103654
  0
VERTEX
  8
0
 10
342.849520
 20
157.291565
 42
-0.075828
  0
VERTEX
  8
0
 10
342.412500
 20
156.601440
 42
-0.072227
  0
VERTEX
  8
0
 10
341.764301
 20
156.043483
 42
-0.077841
  0
VERTEX
  8
0
 10
341.000000
 20
155.710251
 42
0.090805
  0
VERTEX
  8
0
 10
340.060900
 20
155.271701
 42
0.115375
  0
VERTEX
  8
0
 10
339.429652
 20
154.556398
 42
0.085536
  0
VERTEX
  8
0
 10
339.063450
 20
153.461138
 42
0.032112
  0
VERTEX
  8
0
 10
338.921053
 20
151.843620
 42
-0.014496
  0
VERTEX
  8
0
 10
338.857442
 20
150.635328
 42
-0.047572
  0
VERTEX
  8
0
 10
338.717133
 20
149.849376
 42
-0.253982
  0
VERTEX
  8
0
 10
338.532021
 20
149.658159
 42
-0.391158
  0
VERTEX
  8
0
 10
338.337719
 20
149.750000
 42
0.159303
  0
VERTEX
  8
0
 10
337.933580
 20
150.230319
 42
0.053467
  0
VERTEX
  8
0
 10
337.097225
 20
150.632812
 42
0.046773
  0
VERTEX
  8
0
 10
336.012236
 20
150.907804
 42
0.038706
  0
VERTEX
  8
0
 10
334.823047
 20
151.000000
 42
-0.038337
  0
VERTEX
  8
0
 10
333.391121
 20
151.109952
 42
-0.090699
  0
VERTEX
  8
0
 10
332.384253
 20
151.459533
 42
-0.114517
  0
VERTEX
  8
0
 10
331.709247
 20
152.079743
 42
-0.086177
  0
VERTEX
  8
0
 10
331.289749
 20
153.000000
 42
0.038887
  0
VERTEX
  8
0
 10
331.024544
 20
153.765484
 42
0.050447
  0
VERTEX
  8
0
 10
330.660882
 20
154.412500
 42
0.059916
  0
VERTEX
  8
0
 10
330.259476
 20
154.858742
 42
0.181596
  0
VERTEX
  8
0
 10
329.883369
 20
155.000000
 42
-0.120530
  0
VERTEX
  8
0
 10
329.546448
 20
155.082415
 42
-0.100714
  0
VERTEX
  8
0
 10
329.259490
 20
155.314732
 42
-0.091781
  0
VERTEX
  8
0
 10
329.066754
 20
155.662195
 42
-0.081024
  0
VERTEX
  8
0
 10
329.000000
 20
156.071429
 42
0.103750
  0
VERTEX
  8
0
 10
328.890399
 20
156.593940
 42
0.032463
  0
VERTEX
  8
0
 10
328.520033
 20
157.308092
 42
0.030869
  0
VERTEX
  8
0
 10
327.991388
 20
158.072508
 42
0.029668
  0
VERTEX
  8
0
 10
327.366071
 20
158.776786
 42
-0.022526
  0
VERTEX
  8
0
 10
326.593410
 20
159.622392
 42
-0.135722
  0
VERTEX
  8
0
 10
326.350117
 20
160.159225
 42
-0.265622
  0
VERTEX
  8
0
 10
326.497498
 20
160.546616
 42
-0.091821
  0
VERTEX
  8
0
 10
327.041071
 20
160.847024
 42
0.073419
  0
VERTEX
  8
0
 10
327.736644
 20
161.198886
 42
0.013266
  0
VERTEX
  8
0
 10
328.900799
 20
162.068240
 42
0.014046
  0
VERTEX
  8
0
 10
330.218996
 20
163.169671
 42
0.012309
  0
VERTEX
  8
0
 10
331.533990
 20
164.391667
 42
-0.010426
  0
VERTEX
  8
0
 10
332.891725
 20
165.662946
 42
-0.009608
  0
VERTEX
  8
0
 10
334.338167
 20
166.912401
 42
-0.009649
  0
VERTEX
  8
0
 10
335.669865
 20
167.976027
 42
-0.031171
  0
VERTEX
  8
0
 10
336.608990
 20
168.607997
 42
0.146616
  0
VERTEX
  8
0
 10
338.494109
 20
170.633037
 42
0.011751
  0
VERTEX
  8
0
 10
341.604336
 20
177.326714
 42
0.014553
  0
VERTEX
  8
0
 10
344.336856
 20
184.121337
 42
0.088546
  0
VERTEX
  8
0
 10
345.000000
 20
187.836622
 42
0.064679
  0
VERTEX
  8
0
 10
344.839295
 20
189.073746
 42
0.017374
  0
VERTEX
  8
0
 10
344.265625
 20
190.974608
 42
0.017299
  0
VERTEX
  8
0
 10
343.456944
 20
193.107235
 42
0.017108
  0
VERTEX
  8
0
 10
342.500000
 20
195.186935
 42
-0.025817
  0
VERTEX
  8
0
 10
341.419350
 20
197.647401
 42
-0.028302
  0
VERTEX
  8
0
 10
340.635215
 20
200.132651
 42
-0.029340
  0
VERTEX
  8
0
 10
340.159244
 20
202.602526
 42
-0.032940
  0
VERTEX
  8
0
 10
340.000000
 20
205.017062
 42
0.015481
  0
VERTEX
  8
0
 10
339.937203
 20
207.044773
 42
0.014198
  0
VERTEX
  8
0
 10
339.748876
 20
209.124369
 42
0.014366
  0
VERTEX
  8
0
 10
339.474800
 20
210.969807
 42
0.044421
  0
VERTEX
  8
0
 10
339.145108
 20
212.184900
 42
-0.022970
  0
VERTEX
  8
0
 10
338.772677
 20
213.356407
 42
-0.008564
  0
VERTEX
  8
0
 10
338.354166
 20
215.032123
 42
-0.008465
  0
VERTEX
  8
0
 10
337.959628
 20
216.876973
 42
-0.010139
  0
VERTEX
  8
0
 10
337.653026
 20
218.626584
 42
-0.013820
  0
VERTEX
  8
0
 10
337.326782
 20
221.211169
 42
-0.140994
  0
VERTEX
  8
0
 10
337.520511
 20
222.262550
 42
-0.198293
  0
VERTEX
  8
0
 10
338.221653
 20
222.873702
 42
-0.032018
  0
VERTEX
  8
0
 10
340.007918
 20
223.351584
 42
0.041555
  0
VERTEX
  8
0
 10
341.224245
 20
223.701946
 42
0.065835
  0
VERTEX
  8
0
 10
342.177193
 20
224.216373
 42
0.084757
  0
VERTEX
  8
0
 10
342.788324
 20
224.840090
 42
0.152694
  0
VERTEX
  8
0
 10
343.000000
 20
225.517064
 42
-0.238111
  0
VERTEX
  8
0
 10
343.393878
 20
226.297261
 42
-0.118731
  0
VERTEX
  8
0
 10
344.439794
 20
226.738740
 42
-0.043746
  0
VERTEX
  8
0
 10
346.523945
 20
226.896645
 42
-0.006463
  0
VERTEX
  8
0
 10
350.750000
 20
226.792064
 42
0.000000
  0
VERTEX
  8
0
 10
358.500000
 20
226.500000
 42
0.000000
  0
SEQEND
  0
POLYLINE
  8
0
 66
1
 70
1
  0
VERTEX
  8
0
 10
303.389756
 20
211.178379
 42
-0.218933
  0
VERTEX
  8
0
 10
303.443577
 20
210.741258
 42
-0.057725
  0
VERTEX
  8
0
 10
303.146408
 20
210.082682
 42
-0.047517
  0
VERTEX
  8
0
 10
302.595834
 20
209.334120
 42
-0.033406
  0
VERTEX
  8
0
 10
301.848270
 20
208.602113
 42
0.129374
  0
VERTEX
  8
0
 10
300.611456
 20
206.814971
 42
0.092490
  0
VERTEX
  8
0
 10
300.213516
 20
204.404393
 42
0.064880
  0
VERTEX
  8
0
 10
300.689076
 20
201.266904
 42
0.028137
  0
VERTEX
  8
0
 10
302.084475
 20
197.274828
 42
-0.030606
  0
VERTEX
  8
0
 10
302.707050
 20
195.465096
 42
-0.064806
  0
VERTEX
  8
0
 10
302.914659
 20
193.999407
 42
-0.062657
  0
VERTEX
  8
0
 10
302.742984
 20
192.498299
 42
-0.026995
  0
VERTEX
  8
0
 10
302.160146
 20
190.566332
 42
0.080664
  0
VERTEX
  8
0
 10
301.537009
 20
187.254797
 42
0.054939
  0
VERTEX
  8
0
 10
301.862059
 20
183.428548
 42
0.057555
  0
VERTEX
  8
0
 10
302.913079
 20
180.141791
 42
0.197486
  0
VERTEX
  8
0
 10
304.510857
 20
178.634207
 42
-0.103182
  0
VERTEX
  8
0
 10
305.080324
 20
178.267552
 42
-0.066737
  0
VERTEX
  8
0
 10
305.562564
 20
177.645984
 42
-0.062968
  0
VERTEX
  8
0
 10
305.888797
 20
176.876067
 42
-0.068864
  0
VERTEX
  8
0
 10
306.000000
 20
176.072486
 42
0.104219
  0
VERTEX
  8
0
 10
306.798423
 20
172.283598
 42
0.074501
  0
VERTEX
  8
0
 10
309.121836
 20
168.611283
 42
0.077612
  0
VERTEX
  8
0
 10
312.296279
 20
165.920892
 42
0.137899
  0
VERTEX
  8
0
 10
315.571804
 20
165.000000
 42
-0.139700
  0
VERTEX
  8
0
 10
316.206919
 20
164.819017
 42
-0.061267
  0
VERTEX
  8
0
 10
316.894637
 20
164.265625
 42
-0.053876
  0
VERTEX
  8
0
 10
317.526866
 20
163.456336
 42
-0.048090
  0
VERTEX
  8
0
 10
318.000000
 20
162.500000
 42
0.033464
  0
VERTEX
  8
0
 10
318.439151
 20
161.543021
 42
0.042913
  0
VERTEX
  8
0
 10
318.972310
 20
160.734375
 42
0.048871
  0
VERTEX
  8
0
 10
319.516219
 20
160.169328
 42
0.178560
  0
VERTEX
  8
0
 10
319.975249
 20
160.000000
 42
-0.103684
  0
VERTEX
  8
0
 10
320.366267
 20
159.918034
 42
-0.098922
  0
VERTEX
  8
0
 10
320.698979
 20
159.685268
 42
-0.096785
  0
VERTEX
  8
0
 10
320.921941
 20
159.337543
 42
-0.094579
  0
VERTEX
  8
0
 10
321.000000
 20
158.928571
 42
0.101400
  0
VERTEX
  8
0
 10
321.106357
 20
158.409519
 42
0.033136
  0
VERTEX
  8
0
 10
321.462330
 20
157.709545
 42
0.031454
  0
VERTEX
  8
0
 10
321.971563
 20
156.964564
 42
0.030737
  0
VERTEX
  8
0
 10
322.573889
 20
156.283254
 42
-0.028331
  0
VERTEX
  8
0
 10
323.316875
 20
155.450936
 42
-0.136652
  0
VERTEX
  8
0
 10
323.561886
 20
154.872212
 42
-0.210431
  0
VERTEX
  8
0
 10
323.420869
 20
154.392574
 42
-0.079281
  0
VERTEX
  8
0
 10
322.879411
 20
153.925472
 42
-0.161897
  0
VERTEX
  8
0
 10
322.207100
 20
153.766234
 42
-0.092113
  0
VERTEX
  8
0
 10
321.393985
 20
153.993153
 42
-0.066373
  0
VERTEX
  8
0
 10
320.482252
 20
154.601513
 42
-0.035009
  0
VERTEX
  8
0
 10
319.523685
 20
155.570789
 42
0.064889
  0
VERTEX
  8
0
 10
317.743342
 20
157.168368
 42
0.109202
  0
VERTEX
  8
0
 10
315.890179
 20
157.917597
 42
0.199390
  0
VERTEX
  8
0
 10
314.572721
 20
157.613350
 42
0.242127
  0
VERTEX
  8
0
 10
314.000000
 20
156.500000
 42
-0.092647
  0
VERTEX
  8
0
 10
313.892981
 20
155.927393
 42
-0.096212
  0
VERTEX
  8
0
 10
313.586876
 20
155.440625
 42
-0.099296
  0
VERTEX
  8
0
 10
313.130220
 20
155.114852
 42
-0.105820
  0
VERTEX
  8
0
 10
312.593620
 20
155.000000
 42
-0.120310
  0
VERTEX
  8
0
 10
312.038097
 20
155.135633
 42
-0.165568
  0
VERTEX
  8
0
 10
311.685376
 20
155.504005
 42
-0.121733
  0
VERTEX
  8
0
 10
311.566642
 20
156.110691
 42
-0.051739
  0
VERTEX
  8
0
 10
311.693226
 20
156.934898
 42
0.097442
  0
VERTEX
  8
0
 10
311.750862
 20
157.870758
 42
0.057763
  0
VERTEX
  8
0
 10
311.475283
 20
158.958361
 42
0.051808
  0
VERTEX
  8
0
 10
310.909040
 20
160.081193
 42
0.044885
  0
VERTEX
  8
0
 10
310.099607
 20
161.123460
 42
-0.014948
  0
VERTEX
  8
0
 10
309.295586
 20
162.039934
 42
-0.019302
  0
VERTEX
  8
0
 10
308.616760
 20
162.929862
 42
-0.017358
  0
VERTEX
  8
0
 10
308.113566
 20
163.700714
 42
-0.136746
  0
VERTEX
  8
0
 10
308.000000
 20
164.108195
 42
0.272512
  0
VERTEX
  8
0
 10
307.788634
 20
164.467205
 42
0.014463
  0
VERTEX
  8
0
 10
306.562137
 20
165.102096
 42
0.019424
  0
VERTEX
  8
0
 10
304.981061
 20
165.789086
 42
0.012593
  0
VERTEX
  8
0
 10
303.105147
 20
166.465076
 42
0.039932
  0
VERTEX
  8
0
 10
299.106616
 20
167.447231
 42
0.080678
  0
VERTEX
  8
0
 10
295.871911
 20
167.447335
 42
0.132281
  0
VERTEX
  8
0
 10
293.798087
 20
166.511229
 42
0.224604
  0
VERTEX
  8
0
 10
293.000000
 20
164.824204
 42
-0.053778
  0
VERTEX
  8
0
 10
292.896087
 20
163.860879
 42
-0.213904
  0
VERTEX
  8
0
 10
292.551123
 20
163.394021
 42
-0.171454
  0
VERTEX
  8
0
 10
291.911860
 20
163.282068
 42
-0.033007
  0
VERTEX
  8
0
 10
290.750000
 20
163.556840
 42
-0.016445
  0
VERTEX
  8
0
 10
288.688831
 20
164.265386
 42
-0.183983
  0
VERTEX
  8
0
 10
288.052571
 20
164.832370
 42
-0.322398
  0
VERTEX
  8
0
 10
288.146861
 20
165.479261
 42
-0.042759
  0
VERTEX
  8
0
 10
289.251572
 20
166.442004
 42
0.038632
  0
VERTEX
  8
0
 10
289.920576
 20
167.015402
 42
0.039762
  0
VERTEX
  8
0
 10
290.486399
 20
167.679735
 42
0.042964
  0
VERTEX
  8
0
 10
290.878172
 20
168.333114
 42
0.114055
  0
VERTEX
  8
0
 10
291.000000
 20
168.860243
 42
-0.110880
  0
VERTEX
  8
0
 10
291.097622
 20
169.295048
 42
-0.100005
  0
VERTEX
  8
0
 10
291.373825
 20
169.665196
 42
-0.094771
  0
VERTEX
  8
0
 10
291.786703
 20
169.913480
 42
-0.088337
  0
VERTEX
  8
0
 10
292.272596
 20
170.000000
 42
0.243030
  0
VERTEX
  8
0
 10
293.903288
 20
170.842367
 42
0.051347
  0
VERTEX
  8
0
 10
295.530433
 20
173.720424
 42
0.050913
  0
VERTEX
  8
0
 10
296.645525
 20
177.198890
 42
0.091462
  0
VERTEX
  8
0
 10
296.723402
 20
180.185837
 42
-0.048565
  0
VERTEX
  8
0
 10
296.628143
 20
181.790451
 42
-0.021149
  0
VERTEX
  8
0
 10
296.799040
 20
183.920816
 42
-0.020692
  0
VERTEX
  8
0
 10
297.173312
 20
186.186444
 42
-0.025900
  0
VERTEX
  8
0
 10
297.714520
 20
188.246729
 42
0.054282
  0
VERTEX
  8
0
 10
298.616132
 20
192.689664
 42
0.051587
  0
VERTEX
  8
0
 10
298.563898
 20
197.301214
 42
0.056192
  0
VERTEX
  8
0
 10
297.643960
 20
201.289879
 42
0.131693
  0
VERTEX
  8
0
 10
295.928017
 20
203.793662
 42
-0.033325
  0
VERTEX
  8
0
 10
294.624916
 20
205.069233
 42
-0.120200
  0
VERTEX
  8
0
 10
294.081774
 20
206.087038
 42
-0.298773
  0
VERTEX
  8
0
 10
294.299602
 20
206.723573
 42
-0.166621
  0
VERTEX
  8
0
 10
295.106080
 20
207.000000
 42
0.140354
  0
VERTEX
  8
0
 10
295.658468
 20
207.158175
 42
0.031319
  0
VERTEX
  8
0
 10
296.464908
 20
207.734375
 42
0.030162
  0
VERTEX
  8
0
 10
297.344624
 20
208.542994
 42
0.025171
  0
VERTEX
  8
0
 10
298.178660
 20
209.500000
 42
-0.051604
  0
VERTEX
  8
0
 10
299.660091
 20
211.028893
 42
-0.096917
  0
VERTEX
  8
0
 10
301.160188
 20
211.857805
 42
-0.146637
  0
VERTEX
  8
0
 10
302.449800
 20
211.884102
 42
-0.188799
  0
SEQEND
  0
POLYLINE
  8
0
 66
1
 70
1
  0
VERTEX
  8
0
 10
254.683114
 20
194.812500
 42
-0.054073
  0
VERTEX
  8
0
 10
254.461564
 20
194.395823
 42
-0.470617
  0
VERTEX
  8
0
 10
254.279315
 20
194.378580
 42
-0.168741
  0
VERTEX
  8
0
 10
254.137993
 20
194.670344
 42
-0.018894
  0
VERTEX
  8
0
 10
254.078947
 20
195.416667
 42
-0.028489
  0
VERTEX
  8
0
 10
254.089945
 20
196.112848
 42
-0.077125
  0
VERTEX
  8
0
 10
254.200665
 20
196.592839
 42
-0.208169
  0
VERTEX
  8
0
 10
254.385309
 20
196.775380
 42
-0.296942
  0
VERTEX
  8
0
 10
254.604167
 20
196.729167
 42
-0.126455
  0
VERTEX
  8
0
 10
254.797407
 20
196.402231
 42
-0.060344
  0
VERTEX
  8
0
 10
254.876576
 20
195.916927
 42
-0.054150
  0
VERTEX
  8
0
 10
254.839148
 20
195.359369
 42
-0.051402
  0
SEQEND
  0
POLYLINE
  8
0
 66
1
 70
1
  0
VERTEX
  8
0
 10
247.000000
 20
185.000000
 42
-0.099038
  0
VERTEX
  8
0
 10
246.923658
 20
184.618362
 42
-0.097945
  0
VERTEX
  8
0
 10
246.706250
 20
184.293750
 42
-0.097945
  0
VERTEX
  8
0
 10
246.381638
 20
184.076342
 42
-0.099038
  0
VERTEX
  8
0
 10
246.000000
 20
184.000000
 42
-0.099038
  0
VERTEX
  8
0
 10
245.618362
 20
184.076342
 42
-0.097945
  0
VERTEX
  8
0
 10
245.293750
 20
184.293750
 42
-0.097945
  0
VERTEX
  8
0
 10
245.076342
 20
184.618362
 42
-0.099038
  0
VERTEX
  8
0
 10
245.000000
 20
185.000000
 42
-0.099038
  0
VERTEX
  8
0
 10
245.076342
 20
185.381638
 42
-0.097945
  0
VERTEX
  8
0
 10
245.293750
 20
185.706250
 42
-0.097945
  0
VERTEX
  8
0
 10
245.618362
 20
185.923658
 42
-0.099038
  0
VERTEX
  8
0
 10
246.000000
 20
186.000000
 42
-0.099038
  0
VERTEX
  8
0
 10
246.381638
 20
185.923658
 42
-0.097945
  0
VERTEX
  8
0
 10
246.706250
 20
185.706250
 42
-0.097945
  0
VERTEX
  8
0
 10
246.923658
 20
185.381638
 42
-0.099038
  0
SEQEND
  0
POLYLINE
  8
0
 66
1
 70
1
  0
VERTEX
  8
0
 10
245.000000
 20
179.000000
 42
0.148195
  0
VERTEX
  8
0
 10
245.115568
 20
178.618646
 42
0.098894
  0
VERTEX
  8
0
 10
245.440625
 20
178.293750
 42
0.082425
  0
VERTEX
  8
0
 10
245.926543
 20
178.074694
 42
0.064853
  0
VERTEX
  8
0
 10
246.500000
 20
178.000000
 42
-0.058967
  0
VERTEX
  8
0
 10
247.073666
 20
177.932109
 42
-0.077967
  0
VERTEX
  8
0
 10
247.559375
 20
177.731766
 42
-0.096483
  0
VERTEX
  8
0
 10
247.884727
 20
177.435165
 42
-0.161180
  0
VERTEX
  8
0
 10
248.000000
 20
177.086864
 42
-0.354894
  0
VERTEX
  8
0
 10
247.782515
 20
176.819048
 42
-0.070023
  0
VERTEX
  8
0
 10
247.118750
 20
176.774597
 42
-0.046720
  0
VERTEX
  8
0
 10
246.150710
 20
176.937105
 42
-0.025312
  0
VERTEX
  8
0
 10
245.000000
 20
177.306102
 42
-0.033343
  0
VERTEX
  8
0
 10
243.026745
 20
178.205318
 42
-0.143087
  0
VERTEX
  8
0
 10
242.116615
 20
179.102962
 42
-0.433975
  0
VERTEX
  8
0
 10
242.319793
 20
179.735424
 42
-0.110715
  0
VERTEX
  8
0
 10
243.500000
 20
180.000000
 42
-0.064853
  0
VERTEX
  8
0
 10
244.073457
 20
179.925306
 42
-0.082425
  0
VERTEX
  8
0
 10
244.559375
 20
179.706250
 42
-0.098894
  0
VERTEX
  8
0
 10
244.884432
 20
179.381354
 42
-0.148195
  0
SEQEND
  0
POLYLINE
  8
0
 66
1
 70
1
  0
VERTEX
  8
0
 10
228.442363
 20
175.093259
 42
-0.236417
  0
VERTEX
  8
0
 10
228.468510
 20
174.801120
 42
-0.238295
  0
VERTEX
  8
0
 10
228.250238
 20
174.606613
 42
-0.095442
  0
VERTEX
  8
0
 10
227.733252
 20
174.570513
 42
-0.033809
  0
VERTEX
  8
0
 10
227.001380
 20
174.709890
 42
-0.020231
  0
VERTEX
  8
0
 10
225.524947
 20
175.160521
 42
-0.209047
  0
VERTEX
  8
0
 10
225.069405
 20
175.583925
 42
-0.493596
  0
VERTEX
  8
0
 10
225.252137
 20
175.912738
 42
-0.036651
  0
VERTEX
  8
0
 10
226.440983
 20
176.000000
 42
-0.056553
  0
VERTEX
  8
0
 10
227.033747
 20
175.932740
 42
-0.049897
  0
VERTEX
  8
0
 10
227.623294
 20
175.733645
 42
-0.052741
  0
VERTEX
  8
0
 10
228.122626
 20
175.440555
 42
-0.095554
  0
SEQEND
  0
POLYLINE
  8
0
 66
1
 70
1
  0
VERTEX
  8
0
 10
194.218616
 20
165.636718
 42
-0.027440
  0
VERTEX
  8
0
 10
194.382754
 20
164.419310
 42
-0.180082
  0
VERTEX
  8
0
 10
194.217076
 20
163.836999
 42
-0.250361
  0
VERTEX
  8
0
 10
193.752968
 20
163.614739
 42
-0.052991
  0
VERTEX
  8
0
 10
192.835193
 20
163.753349
 42
-0.062836
  0
VERTEX
  8
0
 10
192.133563
 20
164.034634
 42
-0.066631
  0
VERTEX
  8
0
 10
191.539088
 20
164.477114
 42
-0.074464
  0
VERTEX
  8
0
 10
191.137199
 20
165.006628
 42
-0.125799
  0
VERTEX
  8
0
 10
191.000000
 20
165.543307
 42
0.120757
  0
VERTEX
  8
0
 10
190.868883
 20
166.078286
 42
0.075080
  0
VERTEX
  8
0
 10
190.485938
 20
166.602865
 42
0.068017
  0
VERTEX
  8
0
 10
189.918987
 20
167.037912
 42
0.065863
  0
VERTEX
  8
0
 10
189.250000
 20
167.310674
 42
-0.115808
  0
VERTEX
  8
0
 10
188.905882
 20
167.492546
 42
-0.556712
  0
VERTEX
  8
0
 10
188.934505
 20
167.667734
 42
-0.075394
  0
VERTEX
  8
0
 10
189.518145
 20
167.812032
 42
-0.013719
  0
VERTEX
  8
0
 10
190.633423
 20
167.883999
 42
-0.031532
  0
VERTEX
  8
0
 10
192.273268
 20
167.841289
 42
-0.118254
  0
VERTEX
  8
0
 10
193.242524
 20
167.515246
 42
-0.147446
  0
VERTEX
  8
0
 10
193.839584
 20
166.831891
 42
-0.059178
  0
SEQEND
  0
POLYLINE
  8
0
 66
1
 70
1
  0
VERTEX
  8
0
 10
71.250000
 20
164.337719
 42
-0.057986
  0
VERTEX
  8
0
 10
70.679992
 20
164.181385
 42
-0.037979
  0
VERTEX
  8
0
 10
70.000000
 20
164.129660
 42
-0.037979
  0
VERTEX
  8
0
 10
69.320008
 20
164.181385
 42
-0.057986
  0
VERTEX
  8
0
 10
68.750000
 20
164.337719
 42
-0.174857
  0
VERTEX
  8
0
 10
68.540618
 20
164.525001
 42
-0.447206
  0
VERTEX
  8
0
 10
68.601562
 20
164.693942
 42
-0.078554
  0
VERTEX
  8
0
 10
69.108560
 20
164.810911
 42
-0.017491
  0
VERTEX
  8
0
 10
70.000000
 20
164.842105
 42
-0.017491
  0
VERTEX
  8
0
 10
70.891440
 20
164.810911
 42
-0.078554
  0
VERTEX
  8
0
 10
71.398438
 20
164.693942
 42
-0.447206
  0
VERTEX
  8
0
 10
71.459382
 20
164.525001
 42
-0.174857
  0
SEQEND
  0
POLYLINE
  8
0
 66
1
 70
1
  0
VERTEX
  8
0
 10
404.301558
 20
145.000000
 42
0.000182
  0
VERTEX
  8
0
 10
404.168757
 20
141.147475
 42
0.000059
  0
VERTEX
  8
0
 10
403.974891
 20
135.443750
 42
0.000059
  0
VERTEX
  8
0
 10
403.760808
 20
129.101427
 42
0.000066
  0
VERTEX
  8
0
 10
403.556378
 20
123.000000
 42
-0.005248
  0
VERTEX
  8
0
 10
403.298270
 20
117.118679
 42
-0.005801
  0
VERTEX
  8
0
 10
402.923011
 20
111.437500
 42
-0.005415
  0
VERTEX
  8
0
 10
402.494091
 20
106.597535
 42
-0.029483
  0
VERTEX
  8
0
 10
402.079781
 20
104.000000
 42
0.018742
  0
VERTEX
  8
0
 10
401.695341
 20
101.882996
 42
0.009621
  0
VERTEX
  8
0
 10
401.364651
 20
99.206250
 42
0.009547
  0
VERTEX
  8
0
 10
401.129590
 20
96.433856
 42
0.014199
  0
VERTEX
  8
0
 10
401.039270
 20
94.000000
 42
0.000000
  0
VERTEX
  8
0
 10
400.991438
 20
88.500000
 42
0.000000
  0
VERTEX
  8
0
 10
398.000000
 20
93.000000
 42
-0.006798
  0
VERTEX
  8
0
 10
396.853661
 20
94.776347
 42
-0.009631
  0
VERTEX
  8
0
 10
395.886040
 20
96.389732
 42
-0.006193
  0
VERTEX
  8
0
 10
395.122567
 20
97.759183
 42
-0.123182
  0
VERTEX
  8
0
 10
395.004281
 20
98.220365
 42
0.091851
  0
VERTEX
  8
0
 10
394.911037
 20
98.707483
 42
0.003565
  0
VERTEX
  8
0
 10
394.230147
 20
100.414942
 42
0.006248
  0
VERTEX
  8
0
 10
393.380987
 20
102.428595
 42
0.004358
  0
VERTEX
  8
0
 10
392.374942
 20
104.679691
 42
-0.017898
  0
VERTEX
  8
0
 10
390.984422
 20
108.031885
 42
-0.047821
  0
VERTEX
  8
0
 10
390.315418
 20
110.528171
 42
-0.047465
  0
VERTEX
  8
0
 10
390.130231
 20
113.116749
 42
-0.017420
  0
VERTEX
  8
0
 10
390.344012
 20
116.781024
 42
-0.040919
  0
VERTEX
  8
0
 10
391.396977
 20
122.739743
 42
-0.009872
  0
VERTEX
  8
0
 10
394.133980
 20
132.387153
 42
-0.009003
  0
VERTEX
  8
0
 10
397.216484
 20
141.873232
 42
-0.055579
  0
VERTEX
  8
0
 10
399.412990
 20
146.500000
 42
0.037909
  0
VERTEX
  8
0
 10
399.981524
 20
147.596071
 42
0.010735
  0
VERTEX
  8
0
 10
400.697127
 20
149.381250
 42
0.010751
  0
VERTEX
  8
0
 10
401.421064
 20
151.439063
 42
0.011173
  0
VERTEX
  8
0
 10
402.046032
 20
153.500000
 42
-0.002589
  0
VERTEX
  8
0
 10
402.979232
 20
156.779041
 42
-0.123576
  0
VERTEX
  8
0
 10
403.323032
 20
157.368040
 42
-0.589093
  0
VERTEX
  8
0
 10
403.618547
 20
157.286833
 42
-0.013268
  0
VERTEX
  8
0
 10
404.001940
 20
155.500000
 42
-0.031289
  0
VERTEX
  8
0
 10
404.202606
 20
153.867007
 42
-0.007796
  0
VERTEX
  8
0
 10
404.321317
 20
151.178125
 42
-0.007938
  0
VERTEX
  8
0
 10
404.360371
 20
148.091406
 42
-0.007899
  0
SEQEND
  0
POLYLINE
  8
0
 66
1
 70
1
  0
VERTEX
  8
0
 10
265.097048
 20
144.000000
 42
0.003921
  0
VERTEX
  8
0
 10
267.097798
 20
135.629671
 42
0.031746
  0
VERTEX
  8
0
 10
268.285973
 20
131.867929
 42
0.076329
  0
VERTEX
  8
0
 10
269.465589
 20
129.816136
 42
0.123475
  0
VERTEX
  8
0
 10
271.058712
 20
128.602636
 42
-0.066261
  0
VERTEX
  8
0
 10
273.797828
 20
126.969740
 42
-0.173119
  0
VERTEX
  8
0
 10
274.994026
 20
125.053491
 42
-0.316741
  0
VERTEX
  8
0
 10
274.383640
 20
123.602824
 42
-0.140675
  0
VERTEX
  8
0
 10
272.283433
 20
123.000000
 42
0.064793
  0
VERTEX
  8
0
 10
269.398573
 20
122.624586
 42
0.020816
  0
VERTEX
  8
0
 10
265.266027
 20
121.344262
 42
0.019695
  0
VERTEX
  8
0
 10
261.310024
 20
119.757538
 42
0.087967
  0
VERTEX
  8
0
 10
259.250000
 20
118.359313
 42
0.044269
  0
VERTEX
  8
0
 10
258.765737
 20
117.796498
 42
0.034928
  0
VERTEX
  8
0
 10
258.343997
 20
117.112021
 42
0.035999
  0
VERTEX
  8
0
 10
258.040874
 20
116.415391
 42
0.069807
  0
VERTEX
  8
0
 10
257.921053
 20
115.821429
 42
-0.012687
  0
VERTEX
  8
0
 10
257.865128
 20
115.165423
 42
-0.347711
  0
VERTEX
  8
0
 10
257.751095
 20
115.050080
 42
-0.326182
  0
VERTEX
  8
0
 10
257.604555
 20
115.131810
 42
-0.011978
  0
VERTEX
  8
0
 10
257.337719
 20
115.750000
 42
0.113869
  0
VERTEX
  8
0
 10
257.003208
 20
116.228318
 42
0.064373
  0
VERTEX
  8
0
 10
256.418476
 20
116.632812
 42
0.059088
  0
VERTEX
  8
0
 10
255.687147
 20
116.906890
 42
0.060204
  0
VERTEX
  8
0
 10
254.916667
 20
117.000000
 42
0.063363
  0
VERTEX
  8
0
 10
254.183683
 20
116.906738
 42
0.081241
  0
VERTEX
  8
0
 10
253.562358
 20
116.632812
 42
0.098198
  0
VERTEX
  8
0
 10
253.146177
 20
116.226718
 42
0.151158
  0
VERTEX
  8
0
 10
252.997744
 20
115.750000
 42
-0.393996
  0
VERTEX
  8
0
 10
252.183761
 20
114.880522
 42
-0.013979
  0
VERTEX
  8
0
 10
247.186543
 20
114.681748
 42
-0.021395
  0
VERTEX
  8
0
 10
241.337928
 20
114.863009
 42
-0.020191
  0
VERTEX
  8
0
 10
235.411101
 20
115.542459
 42
0.022911
  0
VERTEX
  8
0
 10
233.369001
 20
115.765324
 42
0.057345
  0
VERTEX
  8
0
 10
231.873728
 20
115.687990
 42
0.076851
  0
VERTEX
  8
0
 10
230.714077
 20
115.304159
 42
0.078249
  0
VERTEX
  8
0
 10
229.732529
 20
114.589672
 42
-0.011822
  0
VERTEX
  8
0
 10
229.094123
 20
113.980760
 42
-0.016294
  0
VERTEX
  8
0
 10
228.490925
 20
113.466966
 42
-0.012914
  0
VERTEX
  8
0
 10
227.972593
 20
113.075283
 42
-0.156583
  0
VERTEX
  8
0
 10
227.738095
 20
113.000000
 42
-0.388147
  0
VERTEX
  8
0
 10
227.575284
 20
113.148808
 42
-0.004748
  0
VERTEX
  8
0
 10
227.451312
 20
114.689063
 42
-0.010969
  0
VERTEX
  8
0
 10
227.360505
 20
116.545261
 42
-0.006600
  0
VERTEX
  8
0
 10
227.330200
 20
118.750000
 42
0.031416
  0
VERTEX
  8
0
 10
227.005578
 20
123.866951
 42
0.049212
  0
VERTEX
  8
0
 10
226.024578
 20
128.162769
 42
0.058073
  0
VERTEX
  8
0
 10
224.402506
 20
131.618372
 42
0.079185
  0
VERTEX
  8
0
 10
222.155415
 20
134.217274
 42
-0.038266
  0
VERTEX
  8
0
 10
220.696834
 20
135.649625
 42
-0.099760
  0
VERTEX
  8
0
 10
219.970743
 20
136.920375
 42
-0.080750
  0
VERTEX
  8
0
 10
219.711987
 20
138.532956
 42
-0.019371
  0
VERTEX
  8
0
 10
219.822860
 20
141.250000
 42
0.016797
  0
VERTEX
  8
0
 10
219.906663
 20
143.073273
 42
0.027698
  0
VERTEX
  8
0
 10
219.840304
 20
144.614030
 42
0.026882
  0
VERTEX
  8
0
 10
219.663353
 20
145.767855
 42
0.344622
  0
VERTEX
  8
0
 10
219.350694
 20
146.031803
 42
-0.093970
  0
VERTEX
  8
0
 10
218.901487
 20
146.134501
 42
-0.020203
  0
VERTEX
  8
0
 10
218.180107
 20
146.485238
 42
-0.020423
  0
VERTEX
  8
0
 10
217.365322
 20
146.966792
 42
-0.018238
  0
VERTEX
  8
0
 10
216.560309
 20
147.530751
 42
-0.021897
  0
VERTEX
  8
0
 10
215.385487
 20
148.503061
 42
-0.227720
  0
VERTEX
  8
0
 10
215.154821
 20
149.067672
 42
-0.179165
  0
VERTEX
  8
0
 10
215.424334
 20
149.680175
 42
-0.012921
  0
VERTEX
  8
0
 10
216.768496
 20
150.998948
 42
-0.070842
  0
VERTEX
  8
0
 10
219.111838
 20
152.631791
 42
-0.192232
  0
VERTEX
  8
0
 10
221.092342
 20
152.805123
 42
-0.155824
  0
VERTEX
  8
0
 10
222.931313
 20
151.542432
 42
-0.043074
  0
VERTEX
  8
0
 10
224.857373
 20
148.562781
 42
0.035078
  0
VERTEX
  8
0
 10
226.039469
 20
146.668376
 42
0.022553
  0
VERTEX
  8
0
 10
227.654685
 20
144.642549
 42
0.022659
  0
VERTEX
  8
0
 10
229.424008
 20
142.794016
 42
0.039011
  0
VERTEX
  8
0
 10
231.074604
 20
141.448300
 42
-0.025228
  0
VERTEX
  8
0
 10
232.601333
 20
140.272040
 42
-0.025553
  0
VERTEX
  8
0
 10
233.994992
 20
138.952738
 42
-0.026386
  0
VERTEX
  8
0
 10
235.083404
 20
137.683741
 42
-0.087435
  0
VERTEX
  8
0
 10
235.591303
 20
136.712330
 42
0.073697
  0
VERTEX
  8
0
 10
236.890487
 20
134.053152
 42
0.036008
  0
VERTEX
  8
0
 10
239.250032
 20
131.096632
 42
0.033246
  0
VERTEX
  8
0
 10
241.828745
 20
128.651704
 42
0.174826
  0
VERTEX
  8
0
 10
243.635647
 20
128.000000
 42
-0.088519
  0
VERTEX
  8
0
 10
244.376515
 20
127.867802
 42
-0.010999
  0
VERTEX
  8
0
 10
245.905649
 20
127.265625
 42
-0.012691
  0
VERTEX
  8
0
 10
247.703510
 20
126.457288
 42
-0.010195
  0
VERTEX
  8
0
 10
249.596025
 20
125.500000
 42
0.034748
  0
VERTEX
  8
0
 10
253.449431
 20
123.782773
 42
0.076147
  0
VERTEX
  8
0
 10
256.608012
 20
123.149885
 42
0.096958
  0
VERTEX
  8
0
 10
259.307059
 20
123.551077
 42
0.088831
  0
VERTEX
  8
0
 10
261.750000
 20
124.943562
 42
0.100269
  0
VERTEX
  8
0
 10
263.312887
 20
126.893506
 42
0.115452
  0
VERTEX
  8
0
 10
263.892176
 20
129.201615
 42
0.087552
  0
VERTEX
  8
0
 10
263.440599
 20
132.024170
 42
0.037581
  0
VERTEX
  8
0
 10
261.919692
 20
135.538558
 42
-0.022971
  0
VERTEX
  8
0
 10
259.900720
 20
139.853724
 42
-0.018715
  0
VERTEX
  8
0
 10
258.130857
 20
144.638880
 42
-0.015826
  0
VERTEX
  8
0
 10
256.851690
 20
149.001971
 42
-0.112766
  0
VERTEX
  8
0
 10
256.788362
 20
151.188506
 42
-0.107357
  0
VERTEX
  8
0
 10
257.079311
 20
151.858795
 42
-0.068231
  0
VERTEX
  8
0
 10
257.667551
 20
152.478111
 42
-0.063758
  0
VERTEX
  8
0
 10
258.449809
 20
152.955066
 42
-0.067674
  0
VERTEX
  8
0
 10
259.311481
 20
153.207559
 42
-0.193545
  0
VERTEX
  8
0
 10
261.004185
 20
152.806833
 42
-0.099065
  0
VERTEX
  8
0
 10
262.529698
 20
151.196933
 42
-0.060552
  0
VERTEX
  8
0
 10
263.892929
 20
148.301609
 42
-0.023081
  0
SEQEND
  0
POLYLINE
  8
0
 66
1
 70
1
  0
VERTEX
  8
0
 10
136.000000
 20
151.000000
 42
-0.072266
  0
VERTEX
  8
0
 10
135.887875
 20
150.228274
 42
-0.089650
  0
VERTEX
  8
0
 10
135.561441
 20
149.581461
 42
-0.102880
  0
VERTEX
  8
0
 10
135.072226
 20
149.152774
 42
-0.129343
  0
VERTEX
  8
0
 10
134.491526
 20
149.000000
 42
-0.059310
  0
VERTEX
  8
0
 10
133.756928
 20
149.087446
 42
-0.310659
  0
VERTEX
  8
0
 10
133.499338
 20
149.374460
 42
-0.156511
  0
VERTEX
  8
0
 10
133.596264
 20
149.902617
 42
-0.016563
  0
VERTEX
  8
0
 10
134.232073
 20
151.000000
 42
-0.008719
  0
VERTEX
  8
0
 10
134.729521
 20
151.766461
 42
-0.013272
  0
VERTEX
  8
0
 10
135.190408
 20
152.412500
 42
-0.007835
  0
VERTEX
  8
0
 10
135.593138
 20
152.929406
 42
-0.227100
  0
VERTEX
  8
0
 10
135.740547
 20
153.000000
 42
-0.359825
  0
VERTEX
  8
0
 10
135.843124
 20
152.915201
 42
-0.015048
  0
VERTEX
  8
0
 10
135.923786
 20
152.412500
 42
-0.020074
  0
VERTEX
  8
0
 10
135.981318
 20
151.766782
 42
-0.012181
  0
SEQEND
  0
POLYLINE
  8
0
 66
1
 70
1
  0
VERTEX
  8
0
 10
334.765058
 20
128.357714
 42
-0.009700
  0
VERTEX
  8
0
 10
336.449559
 20
126.640835
 42
-0.031340
  0
VERTEX
  8
0
 10
337.471079
 20
125.412722
 42
-0.202976
  0
VERTEX
  8
0
 10
337.574319
 20
124.973084
 42
-0.508825
  0
VERTEX
  8
0
 10
337.327977
 20
124.851166
 42
-0.019774
  0
VERTEX
  8
0
 10
336.395334
 20
125.386820
 42
-0.013872
  0
VERTEX
  8
0
 10
335.387952
 20
126.059313
 42
-0.014024
  0
VERTEX
  8
0
 10
334.457860
 20
126.758208
 42
-0.028243
  0
VERTEX
  8
0
 10
333.773714
 20
127.369143
 42
0.041088
  0
VERTEX
  8
0
 10
332.986025
 20
128.037019
 42
0.011219
  0
VERTEX
  8
0
 10
331.638448
 20
128.956382
 42
0.011267
  0
VERTEX
  8
0
 10
330.057716
 20
129.933674
 42
0.011512
  0
VERTEX
  8
0
 10
328.445738
 20
130.831495
 42
-0.002892
  0
VERTEX
  8
0
 10
325.846936
 20
132.220797
 42
-0.142655
  0
VERTEX
  8
0
 10
325.435666
 20
132.627746
 42
-0.550216
  0
VERTEX
  8
0
 10
325.576609
 20
132.886518
 42
-0.012516
  0
VERTEX
  8
0
 10
327.265058
 20
132.955804
 42
-0.087957
  0
VERTEX
  8
0
 10
328.811983
 20
132.706987
 42
-0.053811
  0
VERTEX
  8
0
 10
330.486823
 20
131.913463
 42
-0.039487
  0
VERTEX
  8
0
 10
332.414910
 20
130.510871
 42
-0.016919
  0
SEQEND
  0
POLYLINE
  8
0
 66
1
 70
1
  0
VERTEX
  8
0
 10
196.588887
 20
120.500000
 42
0.027314
  0
VERTEX
  8
0
 10
197.996547
 20
119.543177
 42
0.026458
  0
VERTEX
  8
0
 10
199.514826
 20
118.734375
 42
0.027441
  0
VERTEX
  8
0
 10
200.924408
 20
118.168587
 42
0.081891
  0
VERTEX
  8
0
 10
201.946847
 20
118.000000
 42
-0.090204
  0
VERTEX
  8
0
 10
204.602181
 20
117.517026
 42
-0.058661
  0
VERTEX
  8
0
 10
207.379569
 20
116.081558
 42
-0.067061
  0
VERTEX
  8
0
 10
209.345928
 20
114.328410
 42
-0.326488
  0
VERTEX
  8
0
 10
209.454870
 20
112.926979
 42
-0.193504
  0
VERTEX
  8
0
 10
209.067142
 20
112.641337
 42
-0.011814
  0
VERTEX
  8
0
 10
207.638885
 20
112.308386
 42
-0.016212
  0
VERTEX
  8
0
 10
205.870944
 20
111.999484
 42
-0.011191
  0
VERTEX
  8
0
 10
203.852980
 20
111.759895
 42
0.021765
  0
VERTEX
  8
0
 10
201.502771
 20
111.430337
 42
0.039777
  0
VERTEX
  8
0
 10
199.634173
 20
110.928539
 42
0.050291
  0
VERTEX
  8
0
 10
198.234908
 20
110.265747
 42
0.099467
  0
VERTEX
  8
0
 10
197.332127
 20
109.439532
 42
-0.007088
  0
VERTEX
  8
0
 10
196.469139
 20
108.293773
 42
-0.304286
  0
VERTEX
  8
0
 10
196.194131
 20
108.202544
 42
-0.328428
  0
VERTEX
  8
0
 10
196.021505
 20
108.422383
 42
-0.007755
  0
VERTEX
  8
0
 10
196.000000
 20
109.808870
 42
0.059560
  0
VERTEX
  8
0
 10
195.880685
 20
110.806952
 42
0.128966
  0
VERTEX
  8
0
 10
195.516637
 20
111.482177
 42
0.136100
  0
VERTEX
  8
0
 10
194.883510
 20
111.869711
 42
0.069795
  0
VERTEX
  8
0
 10
193.954687
 20
112.000000
 42
-0.066837
  0
VERTEX
  8
0
 10
192.876618
 20
112.144756
 42
-0.235759
  0
VERTEX
  8
0
 10
192.370668
 20
112.597550
 42
-0.126051
  0
VERTEX
  8
0
 10
192.254912
 20
113.504532
 42
-0.015403
  0
VERTEX
  8
0
 10
192.565978
 20
115.500000
 42
0.015372
  0
VERTEX
  8
0
 10
192.878002
 20
117.500784
 42
0.127200
  0
VERTEX
  8
0
 10
192.760577
 20
118.405455
 42
0.236177
  0
VERTEX
  8
0
 10
192.251004
 20
118.856752
 42
0.065335
  0
VERTEX
  8
0
 10
191.159429
 20
119.000000
 42
0.115441
  0
VERTEX
  8
0
 10
190.123954
 20
118.757699
 42
0.029523
  0
VERTEX
  8
0
 10
188.618888
 20
117.898438
 42
0.028477
  0
VERTEX
  8
0
 10
186.971494
 20
116.685334
 42
0.025512
  0
VERTEX
  8
0
 10
185.407973
 20
115.250000
 42
-0.007112
  0
VERTEX
  8
0
 10
184.019315
 20
113.877714
 42
-0.016355
  0
VERTEX
  8
0
 10
182.927146
 20
112.895313
 42
-0.031524
  0
VERTEX
  8
0
 10
182.259360
 20
112.401428
 42
-0.738388
  0
VERTEX
  8
0
 10
182.141923
 20
112.500000
 42
-0.016480
  0
VERTEX
  8
0
 10
183.428042
 20
115.285931
 42
-0.035520
  0
VERTEX
  8
0
 10
184.635041
 20
117.315746
 42
-0.046416
  0
VERTEX
  8
0
 10
185.734655
 20
118.620615
 42
-0.196936
  0
VERTEX
  8
0
 10
186.660515
 20
119.000000
 42
0.102423
  0
VERTEX
  8
0
 10
187.311301
 20
119.134724
 42
0.032846
  0
VERTEX
  8
0
 10
188.194026
 20
119.587500
 42
0.031200
  0
VERTEX
  8
0
 10
189.135862
 20
120.234595
 42
0.030267
  0
VERTEX
  8
0
 10
190.000000
 20
121.000000
 42
-0.029401
  0
VERTEX
  8
0
 10
191.685792
 20
122.498395
 42
-0.188064
  0
VERTEX
  8
0
 10
192.758776
 20
122.825663
 42
-0.132617
  0
VERTEX
  8
0
 10
193.972558
 20
122.397074
 42
-0.012119
  0
SEQEND
  0
POLYLINE
  8
0
 66
1
 70
1
  0
VERTEX
  8
0
 10
135.000000
 20
117.096028
 42
0.057002
  0
VERTEX
  8
0
 10
135.314060
 20
116.798181
 42
0.011594
  0
VERTEX
  8
0
 10
135.938412
 20
116.350714
 42
0.012082
  0
VERTEX
  8
0
 10
136.693004
 20
115.862250
 42
0.011066
  0
VERTEX
  8
0
 10
137.492467
 20
115.395765
 42
-0.128405
  0
VERTEX
  8
0
 10
139.144550
 20
113.820889
 42
-0.064648
  0
VERTEX
  8
0
 10
140.339805
 20
111.178455
 42
-0.064031
  0
VERTEX
  8
0
 10
140.831134
 20
108.277700
 42
-0.115408
  0
VERTEX
  8
0
 10
140.378279
 20
105.921731
 42
-0.022943
  0
VERTEX
  8
0
 10
139.756275
 20
104.683705
 42
-0.250015
  0
VERTEX
  8
0
 10
139.301820
 20
104.392829
 42
-0.188395
  0
VERTEX
  8
0
 10
138.723600
 20
104.567304
 42
-0.012787
  0
VERTEX
  8
0
 10
137.374865
 20
105.682855
 42
-0.048035
  0
VERTEX
  8
0
 10
136.360393
 20
106.754128
 42
-0.012377
  0
VERTEX
  8
0
 10
134.941607
 20
108.669995
 42
-0.012482
  0
VERTEX
  8
0
 10
133.425021
 20
110.946332
 42
-0.012406
  0
VERTEX
  8
0
 10
132.020699
 20
113.300108
 42
0.000000
  0
VERTEX
  8
0
 10
128.752524
 20
119.100217
 42
0.000000
  0
VERTEX
  8
0
 10
131.626262
 20
118.396136
 42
-0.014286
  0
VERTEX
  8
0
 10
132.763211
 20
118.082894
 42
-0.017605
  0
VERTEX
  8
0
 10
133.802715
 20
117.723796
 42
-0.016158
  0
VERTEX
  8
0
 10
134.644485
 20
117.367765
 42
-0.110531
  0
SEQEND
  0
POLYLINE
  8
0
 66
1
 70
1
  0
VERTEX
  8
0
 10
224.916667
 20
112.637587
 42
-0.150130
  0
VERTEX
  8
0
 10
223.593620
 20
112.050177
 42
-0.014763
  0
VERTEX
  8
0
 10
220.080537
 20
111.732146
 42
-0.010728
  0
VERTEX
  8
0
 10
216.512384
 20
111.591836
 42
-0.419450
  0
VERTEX
  8
0
 10
216.000000
 20
112.095157
 42
-0.325726
  0
VERTEX
  8
0
 10
216.257314
 20
112.448235
 42
-0.029940
  0
VERTEX
  8
0
 10
217.370833
 20
112.734202
 42
-0.029640
  0
VERTEX
  8
0
 10
218.877845
 20
112.934684
 42
-0.018251
  0
VERTEX
  8
0
 10
220.666667
 20
113.000000
 42
-0.007298
  0
VERTEX
  8
0
 10
222.428257
 20
112.974287
 42
-0.013970
  0
VERTEX
  8
0
 10
223.840104
 20
112.893541
 42
-0.011896
  0
VERTEX
  8
0
 10
224.873746
 20
112.780574
 42
-0.645588
  0
SEQEND
  0
POLYLINE
  8
0
 66
1
 70
1
  0
VERTEX
  8
0
 10
384.713171
 20
107.377325
 42
-0.178851
  0
VERTEX
  8
0
 10
384.695934
 20
106.908048
 42
-0.100208
  0
VERTEX
  8
0
 10
384.373992
 20
106.427660
 42
-0.077180
  0
VERTEX
  8
0
 10
383.794482
 20
106.008170
 42
-0.054237
  0
VERTEX
  8
0
 10
383.040892
 20
105.720944
 42
-0.036239
  0
VERTEX
  8
0
 10
382.258688
 20
105.575914
 42
-0.063013
  0
VERTEX
  8
0
 10
381.599512
 20
105.585785
 42
-0.095498
  0
VERTEX
  8
0
 10
381.157709
 20
105.737732
 42
-0.268466
  0
VERTEX
  8
0
 10
381.000000
 20
106.010286
 42
0.210687
  0
VERTEX
  8
0
 10
380.831117
 20
106.393286
 42
0.036145
  0
VERTEX
  8
0
 10
380.192187
 20
106.897338
 42
0.033991
  0
VERTEX
  8
0
 10
379.303184
 20
107.415507
 42
0.024483
  0
VERTEX
  8
0
 10
378.250000
 20
107.874270
 42
-0.007530
  0
VERTEX
  8
0
 10
376.621275
 20
108.518984
 42
-0.643551
  0
VERTEX
  8
0
 10
376.614159
 20
108.721256
 42
-0.125844
  0
VERTEX
  8
0
 10
377.109015
 20
108.827731
 42
-0.002118
  0
VERTEX
  8
0
 10
379.922279
 20
108.707603
 42
-0.023325
  0
VERTEX
  8
0
 10
381.642907
 20
108.546163
 42
-0.032674
  0
VERTEX
  8
0
 10
383.153794
 20
108.231198
 42
-0.034156
  0
VERTEX
  8
0
 10
384.303609
 20
107.825590
 42
-0.214746
  0
SEQEND
  0
POLYLINE
  8
0
 66
1
 70
1
  0
VERTEX
  8
0
 10
375.267975
 20
98.750000
 42
-0.011422
  0
VERTEX
  8
0
 10
375.575228
 20
96.368247
 42
-0.114363
  0
VERTEX
  8
0
 10
375.453577
 20
95.378412
 42
-0.367403
  0
VERTEX
  8
0
 10
374.974311
 20
95.106172
 42
-0.091749
  0
VERTEX
  8
0
 10
374.066531
 20
95.458881
 42
-0.208684
  0
VERTEX
  8
0
 10
373.296057
 20
96.571277
 42
-0.041719
  0
VERTEX
  8
0
 10
373.022608
 20
99.026743
 42
-0.042774
  0
VERTEX
  8
0
 10
373.158605
 20
101.369706
 42
-0.372788
  0
VERTEX
  8
0
 10
373.886501
 20
102.000000
 42
-0.255097
  0
VERTEX
  8
0
 10
374.260767
 20
101.795761
 42
-0.042473
  0
VERTEX
  8
0
 10
374.657990
 20
101.045312
 42
-0.037624
  0
VERTEX
  8
0
 10
375.013875
 20
99.995069
 42
-0.025096
  0
SEQEND
  0
POLYLINE
  8
0
 66
1
 70
1
  0
VERTEX
  8
0
 10
155.000000
 20
92.440983
 42
-0.067639
  0
VERTEX
  8
0
 10
154.925146
 20
91.890182
 42
-0.084330
  0
VERTEX
  8
0
 10
154.706250
 20
91.423289
 42
-0.099650
  0
VERTEX
  8
0
 10
154.381340
 20
91.111069
 42
-0.142666
  0
VERTEX
  8
0
 10
154.000000
 20
91.000000
 42
-0.195654
  0
VERTEX
  8
0
 10
153.618015
 20
91.155423
 42
-0.086673
  0
VERTEX
  8
0
 10
153.293750
 20
91.604836
 42
-0.066561
  0
VERTEX
  8
0
 10
153.073608
 20
92.270941
 42
-0.046600
  0
VERTEX
  8
0
 10
153.000000
 20
93.059017
 42
-0.047867
  0
VERTEX
  8
0
 10
153.071541
 20
93.804599
 42
-0.104212
  0
VERTEX
  8
0
 10
153.293750
 20
94.331650
 42
-0.181468
  0
VERTEX
  8
0
 10
153.621877
 20
94.558599
 42
-0.202618
  0
VERTEX
  8
0
 10
154.000000
 20
94.500000
 42
-0.088250
  0
VERTEX
  8
0
 10
154.382836
 20
94.157656
 42
-0.053305
  0
VERTEX
  8
0
 10
154.706250
 20
93.640225
 42
-0.051278
  0
VERTEX
  8
0
 10
154.925833
 20
93.038022
 42
-0.061875
  0
SEQEND
  0
POLYLINE
  8
0
 66
1
 70
1
  0
VERTEX
  8
0
 10
166.365682
 20
89.765313
 42
-0.243589
  0
VERTEX
  8
0
 10
166.524066
 20
89.487515
 42
-0.302910
  0
VERTEX
  8
0
 10
166.372651
 20
89.239410
 42
-0.083544
  0
VERTEX
  8
0
 10
165.751142
 20
89.068807
 42
-0.023912
  0
VERTEX
  8
0
 10
164.750000
 20
89.015313
 42
-0.036699
  0
VERTEX
  8
0
 10
163.427128
 20
89.105136
 42
-0.116465
  0
VERTEX
  8
0
 10
162.606698
 20
89.426229
 42
-0.157071
  0
VERTEX
  8
0
 10
162.156274
 20
90.013513
 42
-0.085878
  0
VERTEX
  8
0
 10
162.000000
 20
90.916667
 42
-0.114134
  0
VERTEX
  8
0
 10
162.334301
 20
92.362096
 42
-0.183430
  0
VERTEX
  8
0
 10
163.245778
 20
93.217030
 42
-0.267374
  0
VERTEX
  8
0
 10
164.230192
 20
93.086376
 42
-0.174530
  0
VERTEX
  8
0
 10
164.865682
 20
92.096539
 42
0.049444
  0
VERTEX
  8
0
 10
165.089036
 20
91.431405
 42
0.037260
  0
VERTEX
  8
0
 10
165.457151
 20
90.753169
 42
0.038135
  0
VERTEX
  8
0
 10
165.904486
 20
90.162258
 42
0.068062
  0
SEQEND
  0
POLYLINE
  8
0
 66
1
 70
1
  0
VERTEX
  8
0
 10
380.361626
 20
92.500000
 42
-0.055937
  0
VERTEX
  8
0
 10
380.511135
 20
91.925634
 42
-0.100118
  0
VERTEX
  8
0
 10
380.483616
 20
91.440625
 42
-0.147206
  0
VERTEX
  8
0
 10
380.289193
 20
91.122486
 42
-0.184534
  0
VERTEX
  8
0
 10
379.968615
 20
91.000000
 42
-0.152681
  0
VERTEX
  8
0
 10
379.599211
 20
91.115494
 42
-0.098158
  0
VERTEX
  8
0
 10
379.284531
 20
91.440625
 42
-0.080880
  0
VERTEX
  8
0
 10
379.072230
 20
91.926468
 42
-0.062722
  0
VERTEX
  8
0
 10
379.000000
 20
92.500000
 42
-0.024748
  0
VERTEX
  8
0
 10
379.028469
 20
93.074824
 42
-0.039339
  0
VERTEX
  8
0
 10
379.115447
 20
93.559375
 42
-0.046727
  0
VERTEX
  8
0
 10
379.241071
 20
93.903916
 42
-0.289661
  0
VERTEX
  8
0
 10
379.393011
 20
94.000000
 42
-0.222225
  0
VERTEX
  8
0
 10
379.579329
 20
93.912889
 42
-0.030693
  0
VERTEX
  8
0
 10
379.839659
 20
93.559375
 42
-0.030395
  0
VERTEX
  8
0
 10
380.112506
 20
93.074558
 42
-0.021360
  0
SEQEND
  0
POLYLINE
  8
0
 66
1
 70
1
  0
VERTEX
  8
0
 10
378.289749
 20
88.000000
 42
-0.026779
  0
VERTEX
  8
0
 10
378.592798
 20
86.521964
 42
-0.371158
  0
VERTEX
  8
0
 10
378.323798
 20
86.094906
 42
-0.258288
  0
VERTEX
  8
0
 10
377.727087
 20
86.220618
 42
-0.018060
  0
VERTEX
  8
0
 10
376.428571
 20
87.428571
 42
-0.026046
  0
VERTEX
  8
0
 10
375.345390
 20
88.630889
 42
-0.167455
  0
VERTEX
  8
0
 10
375.069339
 20
89.388527
 42
-0.330718
  0
VERTEX
  8
0
 10
375.396321
 20
89.845370
 42
-0.077855
  0
VERTEX
  8
0
 10
376.383369
 20
90.000000
 42
-0.129214
  0
VERTEX
  8
0
 10
376.951305
 20
89.850737
 42
-0.073972
  0
VERTEX
  8
0
 10
377.514007
 20
89.412500
 42
-0.065681
  0
VERTEX
  8
0
 10
377.986593
 20
88.764694
 42
-0.060903
  0
SEQEND
  0
POLYLINE
  8
0
 66
1
 70
1
  0
VERTEX
  8
0
 10
153.983684
 20
83.607509
 42
-0.010854
  0
VERTEX
  8
0
 10
154.274637
 20
81.362922
 42
-0.068608
  0
VERTEX
  8
0
 10
154.240372
 20
80.213543
 42
-0.228951
  0
VERTEX
  8
0
 10
153.907946
 20
79.744883
 42
-0.221025
  0
VERTEX
  8
0
 10
153.326604
 20
79.704912
 42
-0.183297
  0
VERTEX
  8
0
 10
152.766329
 20
80.205281
 42
-0.055875
  0
VERTEX
  8
0
 10
152.350647
 20
81.284632
 42
-0.042318
  0
VERTEX
  8
0
 10
152.084840
 20
82.820258
 42
-0.021706
  0
VERTEX
  8
0
 10
152.000000
 20
84.773655
 42
-0.013955
  0
VERTEX
  8
0
 10
152.096680
 20
88.236929
 42
-0.561471
  0
VERTEX
  8
0
 10
152.647050
 20
88.531738
 42
-0.216036
  0
VERTEX
  8
0
 10
153.299677
 20
87.605513
 42
-0.009417
  0
SEQEND
  0
POLYLINE
  8
0
 66
1
 70
1
  0
VERTEX
  8
0
 10
161.213308
 20
83.000000
 42
-0.011827
  0
VERTEX
  8
0
 10
161.016637
 20
81.850008
 42
-0.018975
  0
VERTEX
  8
0
 10
160.788807
 20
80.881250
 42
-0.013551
  0
VERTEX
  8
0
 10
160.557592
 20
80.123137
 42
-0.322443
  0
VERTEX
  8
0
 10
160.386501
 20
80.000000
 42
-0.360284
  0
VERTEX
  8
0
 10
160.233661
 20
80.126560
 42
-0.014861
  0
VERTEX
  8
0
 10
160.113535
 20
80.881250
 42
-0.019939
  0
VERTEX
  8
0
 10
160.027830
 20
81.849825
 42
-0.012096
  0
VERTEX
  8
0
 10
160.000000
 20
83.000000
 42
-0.026053
  0
VERTEX
  8
0
 10
160.059941
 20
84.149578
 42
-0.041208
  0
VERTEX
  8
0
 10
160.242875
 20
85.118750
 42
-0.049958
  0
VERTEX
  8
0
 10
160.507607
 20
85.803812
 42
-0.282744
  0
VERTEX
  8
0
 10
160.826807
 20
86.000000
 42
-0.314934
  0
VERTEX
  8
0
 10
161.115710
 20
85.797993
 42
-0.055623
  0
VERTEX
  8
0
 10
161.281400
 20
85.118750
 42
-0.042928
  0
VERTEX
  8
0
 10
161.322426
 20
84.149985
 42
-0.025568
  0
SEQEND
  0
POLYLINE
  8
0
 66
1
 70
1
  0
VERTEX
  8
0
 10
383.968197
 20
78.178571
 42
-0.068083
  0
VERTEX
  8
0
 10
383.904980
 20
77.615955
 42
-0.377539
  0
VERTEX
  8
0
 10
383.673998
 20
77.457607
 42
-0.150916
  0
VERTEX
  8
0
 10
383.264854
 20
77.640615
 42
-0.016307
  0
VERTEX
  8
0
 10
382.500000
 20
78.357143
 42
-0.050576
  0
VERTEX
  8
0
 10
381.925836
 20
79.060903
 42
-0.038100
  0
VERTEX
  8
0
 10
381.440625
 20
79.934269
 42
-0.038989
  0
VERTEX
  8
0
 10
381.108514
 20
80.835678
 42
-0.068875
  0
VERTEX
  8
0
 10
381.000000
 20
81.619701
 42
-0.017928
  0
VERTEX
  8
0
 10
381.036256
 20
82.630503
 42
-0.428736
  0
VERTEX
  8
0
 10
381.233576
 20
82.793037
 42
-0.196320
  0
VERTEX
  8
0
 10
381.557311
 20
82.612488
 42
-0.006696
  0
VERTEX
  8
0
 10
382.468197
 20
81.441130
 42
-0.028091
  0
VERTEX
  8
0
 10
383.032474
 20
80.600901
 42
-0.026077
  0
VERTEX
  8
0
 10
383.514453
 20
79.682037
 42
-0.027014
  0
VERTEX
  8
0
 10
383.855861
 20
78.819578
 42
-0.074852
  0
SEQEND
  0
POLYLINE
  8
0
 66
1
 70
1
  0
VERTEX
  8
0
 10
367.689326
 20
73.250000
 42
-0.161593
  0
VERTEX
  8
0
 10
367.521012
 20
72.990860
 42
-0.542911
  0
VERTEX
  8
0
 10
367.366341
 20
73.042187
 42
-0.052887
  0
VERTEX
  8
0
 10
367.259713
 20
73.748017
 42
-0.011065
  0
VERTEX
  8
0
 10
367.232003
 20
75.000000
 42
-0.011065
  0
VERTEX
  8
0
 10
367.259713
 20
76.251983
 42
-0.052887
  0
VERTEX
  8
0
 10
367.366341
 20
76.957813
 42
-0.542911
  0
VERTEX
  8
0
 10
367.521012
 20
77.009140
 42
-0.161593
  0
VERTEX
  8
0
 10
367.689326
 20
76.750000
 42
-0.039571
  0
VERTEX
  8
0
 10
367.831531
 20
75.952734
 42
-0.024357
  0
VERTEX
  8
0
 10
367.877971
 20
75.000000
 42
-0.024357
  0
VERTEX
  8
0
 10
367.831531
 20
74.047266
 42
-0.039571
  0
SEQEND
  0
POLYLINE
  8
0
 66
1
 70
1
  0
VERTEX
  8
0
 10
363.787763
 20
61.863290
 42
-0.170804
  0
VERTEX
  8
0
 10
363.564152
 20
61.575227
 42
-0.353106
  0
VERTEX
  8
0
 10
363.298474
 20
61.603634
 42
-0.106885
  0
VERTEX
  8
0
 10
363.004403
 20
62.059974
 42
-0.025930
  0
VERTEX
  8
0
 10
362.731213
 20
62.919841
 42
-0.013933
  0
VERTEX
  8
0
 10
362.479614
 20
64.004581
 42
-0.131195
  0
VERTEX
  8
0
 10
362.508441
 20
64.477725
 42
-0.470166
  0
VERTEX
  8
0
 10
362.729330
 20
64.563414
 42
-0.069225
  0
VERTEX
  8
0
 10
363.168450
 20
64.231550
 42
-0.074100
  0
VERTEX
  8
0
 10
363.539971
 20
63.729912
 42
-0.058506
  0
VERTEX
  8
0
 10
363.786200
 20
63.100047
 42
-0.059552
  0
VERTEX
  8
0
 10
363.876600
 20
62.443426
 42
-0.085105
  0
SEQEND
  0
POLYLINE
  8
0
 66
1
 70
1
  0
VERTEX
  8
0
 10
356.052886
 20
52.449733
 42
-0.001416
  0
VERTEX
  8
0
 10
355.433345
 20
50.396584
 42
-0.232216
  0
VERTEX
  8
0
 10
355.276677
 20
50.229166
 42
-0.511146
  0
VERTEX
  8
0
 10
355.153508
 20
50.310363
 42
-0.002412
  0
VERTEX
  8
0
 10
355.085953
 20
52.083333
 42
-0.024395
  0
VERTEX
  8
0
 10
355.102062
 20
53.121194
 42
-0.028136
  0
VERTEX
  8
0
 10
355.221082
 20
54.103646
 42
-0.028978
  0
VERTEX
  8
0
 10
355.414250
 20
54.911326
 42
-0.123803
  0
VERTEX
  8
0
 10
355.666667
 20
55.333333
 42
-0.131040
  0
VERTEX
  8
0
 10
356.293319
 20
55.696138
 42
-0.453143
  0
VERTEX
  8
0
 10
356.636067
 20
55.468272
 42
-0.091806
  0
VERTEX
  8
0
 10
356.584384
 20
54.434553
 42
-0.014295
  0
SEQEND
  0
POLYLINE
  8
0
 66
1
 70
1
  0
VERTEX
  8
0
 10
389.875788
 20
38.614020
 42
0.014761
  0
VERTEX
  8
0
 10
390.291586
 20
35.880952
 42
0.073201
  0
VERTEX
  8
0
 10
390.789142
 20
34.412258
 42
0.134894
  0
VERTEX
  8
0
 10
391.527835
 20
33.604797
 42
0.105410
  0
VERTEX
  8
0
 10
392.648063
 20
33.193807
 42
-0.083931
  0
VERTEX
  8
0
 10
393.525523
 20
32.913642
 42
-0.066037
  0
VERTEX
  8
0
 10
394.345608
 20
32.342407
 42
-0.065195
  0
VERTEX
  8
0
 10
394.998033
 20
31.568289
 42
-0.077178
  0
VERTEX
  8
0
 10
395.384409
 20
30.693807
 42
-0.046936
  0
VERTEX
  8
0
 10
395.801323
 20
28.238373
 42
-0.022627
  0
VERTEX
  8
0
 10
395.894374
 20
25.045813
 42
-0.044559
  0
VERTEX
  8
0
 10
395.680590
 20
23.020520
 42
-0.749742
  0
VERTEX
  8
0
 10
395.260178
 20
22.982624
 42
0.063002
  0
VERTEX
  8
0
 10
394.882400
 20
23.674373
 42
0.022824
  0
VERTEX
  8
0
 10
394.185112
 20
24.552092
 42
0.022210
  0
VERTEX
  8
0
 10
393.325680
 20
25.453817
 42
0.024625
  0
VERTEX
  8
0
 10
392.417553
 20
26.243513
 42
-0.075175
  0
VERTEX
  8
0
 10
391.278637
 20
27.455777
 42
-0.065386
  0
VERTEX
  8
0
 10
390.483308
 20
29.007791
 42
-0.044605
  0
VERTEX
  8
0
 10
389.914018
 20
31.202295
 42
-0.014498
  0
VERTEX
  8
0
 10
389.460442
 20
34.524791
 42
0.011664
  0
VERTEX
  8
0
 10
389.129515
 20
37.055790
 42
0.016745
  0
VERTEX
  8
0
 10
388.709508
 20
39.277672
 42
0.012575
  0
VERTEX
  8
0
 10
388.260992
 20
41.068053
 42
0.188851
  0
VERTEX
  8
0
 10
387.882014
 20
41.572919
 42
-0.151340
  0
VERTEX
  8
0
 10
387.543759
 20
41.961067
 42
-0.039795
  0
VERTEX
  8
0
 10
387.268024
 20
42.748383
 42
-0.036665
  0
VERTEX
  8
0
 10
387.083654
 20
43.738912
 42
-0.030517
  0
VERTEX
  8
0
 10
387.030409
 20
44.809017
 42
-0.005667
  0
VERTEX
  8
0
 10
387.067750
 20
46.458549
 42
-0.233107
  0
VERTEX
  8
0
 10
387.231885
 20
46.764795
 42
-0.429327
  0
VERTEX
  8
0
 10
387.483708
 20
46.716286
 42
-0.010814
  0
VERTEX
  8
0
 10
388.156197
 20
45.614020
 42
-0.056437
  0
VERTEX
  8
0
 10
388.619647
 20
44.557638
 42
-0.014948
  0
VERTEX
  8
0
 10
389.113171
 20
42.779804
 42
-0.014971
  0
VERTEX
  8
0
 10
389.556335
 20
40.710221
 42
-0.014888
  0
SEQEND
  0
POLYLINE
  8
0
 66
1
 70
1
  0
VERTEX
  8
0
 10
160.209894
 20
39.023261
 42
-0.038223
  0
VERTEX
  8
0
 10
160.390749
 20
36.418466
 42
-0.148820
  0
VERTEX
  8
0
 10
159.914748
 20
34.893518
 42
-0.265942
  0
VERTEX
  8
0
 10
158.881890
 20
34.390871
 42
-0.115355
  0
VERTEX
  8
0
 10
157.369085
 20
34.853258
 42
-0.027452
  0
VERTEX
  8
0
 10
156.727243
 20
35.274890
 42
-0.107497
  0
VERTEX
  8
0
 10
156.416231
 20
35.629125
 42
-0.355237
  0
VERTEX
  8
0
 10
156.456743
 20
35.856500
 42
-0.173584
  0
VERTEX
  8
0
 10
156.750000
 20
35.969591
 42
0.209605
  0
VERTEX
  8
0
 10
157.240856
 20
36.199209
 42
0.082385
  0
VERTEX
  8
0
 10
157.643299
 20
36.847404
 42
0.060637
  0
VERTEX
  8
0
 10
157.911711
 20
37.816881
 42
0.037260
  0
VERTEX
  8
0
 10
158.000000
 20
39.000000
 42
-0.039869
  0
VERTEX
  8
0
 10
158.184446
 20
41.309487
 42
-0.365278
  0
VERTEX
  8
0
 10
158.891782
 20
41.918651
 42
-0.332469
  0
VERTEX
  8
0
 10
159.688953
 20
41.335686
 42
-0.037944
  0
SEQEND
  0
POLYLINE
  8
0
 66
1
 70
1
  0
VERTEX
  8
0
 10
205.604167
 20
39.270833
 42
-0.198339
  0
VERTEX
  8
0
 10
204.941134
 20
38.995338
 42
-0.274516
  0
VERTEX
  8
0
 10
204.399603
 20
39.315272
 42
-0.160291
  0
VERTEX
  8
0
 10
204.239822
 20
40.176395
 42
-0.105175
  0
VERTEX
  8
0
 10
204.582949
 20
41.134215
 42
-0.024362
  0
VERTEX
  8
0
 10
205.012891
 20
41.759582
 42
-0.233206
  0
VERTEX
  8
0
 10
205.294341
 20
41.899578
 42
-0.286646
  0
VERTEX
  8
0
 10
205.536207
 20
41.749629
 42
-0.033951
  0
VERTEX
  8
0
 10
205.787251
 20
41.138246
 42
-0.052621
  0
VERTEX
  8
0
 10
205.903448
 20
40.610215
 42
-0.052345
  0
VERTEX
  8
0
 10
205.907167
 20
40.068604
 42
-0.057227
  0
VERTEX
  8
0
 10
205.805016
 20
39.594136
 42
-0.115259
  0
SEQEND
  0
POLYLINE
  8
0
 66
1
 70
1
  0
VERTEX
  8
0
 10
344.728082
 20
21.250000
 42
-0.008005
  0
VERTEX
  8
0
 10
344.443691
 20
20.139850
 42
-0.338063
  0
VERTEX
  8
0
 10
344.260491
 20
20.000000
 42
-0.291205
  0
VERTEX
  8
0
 10
344.052024
 20
20.132663
 42
-0.006693
  0
VERTEX
  8
0
 10
343.547769
 20
21.250000
 42
-0.061668
  0
VERTEX
  8
0
 10
343.311862
 20
22.048201
 42
-0.041070
  0
VERTEX
  8
0
 10
343.233549
 20
23.000000
 42
-0.041070
  0
VERTEX
  8
0
 10
343.311862
 20
23.951799
 42
-0.061668
  0
VERTEX
  8
0
 10
343.547769
 20
24.750000
 42
-0.006693
  0
VERTEX
  8
0
 10
344.052024
 20
25.867337
 42
-0.291205
  0
VERTEX
  8
0
 10
344.260491
 20
26.000000
 42
-0.338063
  0
VERTEX
  8
0
 10
344.443691
 20
25.860150
 42
-0.008005
  0
VERTEX
  8
0
 10
344.728082
 20
24.750000
 42
-0.036447
  0
VERTEX
  8
0
 10
344.858290
 20
23.952829
 42
-0.022265
  0
VERTEX
  8
0
 10
344.900741
 20
23.000000
 42
-0.022265
  0
VERTEX
  8
0
 10
344.858290
 20
22.047171
 42
-0.036447
  0
SEQEND
  0
POLYLINE
  8
0
 66
1
 70
1
  0
VERTEX
  8
0
 10
386.000000
 20
6.625000
 42
-0.189688
  0
VERTEX
  8
0
 10
385.774656
 20
6.052386
 42
-0.063856
  0
VERTEX
  8
0
 10
385.071832
 20
5.468273
 42
-0.052681
  0
VERTEX
  8
0
 10
384.049705
 20
4.961084
 42
-0.039508
  0
VERTEX
  8
0
 10
382.840278
 20
4.618056
 42
-0.018802
  0
VERTEX
  8
0
 10
380.484212
 20
4.238327
 42
-0.136669
  0
VERTEX
  8
0
 10
379.361951
 20
4.407317
 42
-0.633029
  0
VERTEX
  8
0
 10
379.352896
 20
4.838807
 42
-0.038955
  0
VERTEX
  8
0
 10
380.924639
 20
5.476082
 42
0.038269
  0
VERTEX
  8
0
 10
381.718936
 20
5.796868
 42
0.048491
  0
VERTEX
  8
0
 10
382.390363
 20
6.215239
 42
0.056639
  0
VERTEX
  8
0
 10
382.854578
 20
6.662948
 42
0.174319
  0
VERTEX
  8
0
 10
383.000000
 20
7.067388
 42
-0.158110
  0
VERTEX
  8
0
 10
383.115365
 20
7.423094
 42
-0.097128
  0
VERTEX
  8
0
 10
383.440625
 20
7.726045
 42
-0.079016
  0
VERTEX
  8
0
 10
383.926381
 20
7.930588
 42
-0.060283
  0
VERTEX
  8
0
 10
384.500000
 20
8.000000
 42
-0.090500
  0
VERTEX
  8
0
 10
385.072662
 20
7.895493
 42
-0.095522
  0
VERTEX
  8
0
 10
385.559375
 20
7.596094
 42
-0.099673
  0
VERTEX
  8
0
 10
385.885039
 20
7.149587
 42
-0.108288
  0
SEQEND
  0
POLYLINE
  8
0
 66
1
 70
1
  0
VERTEX
  8
0
 10
177.000000
 20
215.939296
 42
0.000406
  0
VERTEX
  8
0
 10
175.459268
 20
215.572292
 42
0.000282
  0
VERTEX
  8
0
 10
173.720312
 20
215.155542
 42
0.000285
  0
VERTEX
  8
0
 10
172.052248
 20
214.753781
 42
0.000589
  0
VERTEX
  8
0
 10
170.750000
 20
214.437718
 42
0.046340
  0
VERTEX
  8
0
 10
169.561555
 20
214.028130
 42
0.081902
  0
VERTEX
  8
0
 10
168.700557
 20
213.454203
 42
0.100414
  0
VERTEX
  8
0
 10
168.182668
 20
212.727633
 42
0.105160
  0
VERTEX
  8
0
 10
168.000000
 20
211.868711
 42
0.172595
  0
VERTEX
  8
0
 10
168.357104
 20
210.865013
 42
0.173536
  0
VERTEX
  8
0
 10
169.267092
 20
210.315197
 42
0.053486
  0
VERTEX
  8
0
 10
171.228193
 20
210.132323
 42
0.005202
  0
VERTEX
  8
0
 10
176.000000
 20
210.248264
 42
-0.008937
  0
VERTEX
  8
0
 10
179.067443
 20
210.299874
 42
-0.014885
  0
VERTEX
  8
0
 10
181.650000
 20
210.220257
 42
-0.008590
  0
VERTEX
  8
0
 10
183.731695
 20
210.058046
 42
-0.386671
  0
VERTEX
  8
0
 10
184.000000
 20
209.762976
 42
0.233981
  0
VERTEX
  8
0
 10
184.144759
 20
209.470573
 42
0.071865
  0
VERTEX
  8
0
 10
184.587500
 20
209.224124
 42
0.054865
  0
VERTEX
  8
0
 10
185.234034
 20
209.055709
 42
0.036317
  0
VERTEX
  8
0
 10
186.000000
 20
209.000000
 42
0.069187
  0
VERTEX
  8
0
 10
186.764409
 20
209.106283
 42
0.085333
  0
VERTEX
  8
0
 10
187.412500
 20
209.416600
 42
0.099977
  0
VERTEX
  8
0
 10
187.845831
 20
209.877394
 42
0.139749
  0
VERTEX
  8
0
 10
188.000000
 20
210.418213
 42
0.055169
  0
VERTEX
  8
0
 10
187.806370
 20
212.167748
 42
0.074350
  0
VERTEX
  8
0
 10
187.232760
 20
213.651574
 42
0.093632
  0
VERTEX
  8
0
 10
186.385993
 20
214.648717
 42
0.171670
  0
VERTEX
  8
0
 10
185.393011
 20
215.000000
 42
-0.070083
  0
VERTEX
  8
0
 10
184.860624
 20
215.074991
 42
-0.085896
  0
VERTEX
  8
0
 10
184.409197
 20
215.293750
 42
-0.100138
  0
VERTEX
  8
0
 10
184.107379
 20
215.618662
 42
-0.138107
  0
VERTEX
  8
0
 10
184.000000
 20
216.000000
 42
0.309895
  0
VERTEX
  8
0
 10
183.569940
 20
216.627243
 42
0.094638
  0
VERTEX
  8
0
 10
182.377018
 20
216.844370
 42
0.044493
  0
VERTEX
  8
0
 10
180.292178
 20
216.640242
 42
0.011627
  0
SEQEND
  0
ENDSEC
  0
EOF
