  0
SECTION
  2
HEADER
  9
$ACADVER
  1
AC1006
  9
$EXTMIN
 10
0.000000
 20
0.000000
 30
0.000000
  9
$EXTMAX
 10
393.000000
 20
124.000000
 30
0.000000
  0
ENDSEC
  0
SECTION
  2
ENTITIES
  0
POLYLINE
  8
0
 66
1
 70
1
  0
VERTEX
  8
0
 10
103.500000
 20
122.995632
 42
0.004270
  0
VERTEX
  8
0
 10
100.077534
 20
122.584360
 42
0.003446
  0
VERTEX
  8
0
 10
96.408285
 20
122.085881
 42
0.003482
  0
VERTEX
  8
0
 10
93.027239
 20
121.578747
 42
0.008944
  0
VERTEX
  8
0
 10
90.592034
 20
121.151356
 42
-0.036383
  0
VERTEX
  8
0
 10
87.760462
 20
120.813114
 42
-0.006659
  0
VERTEX
  8
0
 10
82.486805
 20
120.639870
 42
-0.007128
  0
VERTEX
  8
0
 10
76.297786
 20
120.607286
 42
-0.006424
  0
VERTEX
  8
0
 10
69.891803
 20
120.747214
 42
0.003414
  0
VERTEX
  8
0
 10
61.141229
 20
120.991068
 42
0.019709
  0
VERTEX
  8
0
 10
56.514067
 20
120.906009
 42
0.038209
  0
VERTEX
  8
0
 10
53.628837
 20
120.516550
 42
0.092635
  0
VERTEX
  8
0
 10
51.652606
 20
119.691948
 42
-0.116998
  0
VERTEX
  8
0
 10
48.924171
 20
118.704938
 42
-0.027504
  0
VERTEX
  8
0
 10
44.045164
 20
118.415897
 42
-0.012689
  0
VERTEX
  8
0
 10
35.520219
 20
118.596640
 42
-0.001462
  0
VERTEX
  8
0
 10
16.385336
 20
119.544593
 42
0.011711
  0
VERTEX
  8
0
 10
8.147048
 20
119.783597
 42
0.104793
  0
VERTEX
  8
0
 10
4.621984
 20
119.057123
 42
0.177347
  0
VERTEX
  8
0
 10
2.557984
 20
117.083133
 42
0.048440
  0
VERTEX
  8
0
 10
0.945007
 20
112.795770
 42
0.049771
  0
VERTEX
  8
0
 10
0.309605
 20
108.945967
 42
0.063729
  0
VERTEX
  8
0
 10
0.536209
 20
105.363725
 42
0.075064
  0
VERTEX
  8
0
 10
1.564901
 20
102.458491
 42
0.130426
  0
VERTEX
  8
0
 10
3.296733
 20
100.597788
 42
0.105893
  0
VERTEX
  8
0
 10
5.225071
 20
99.891991
 42
0.010768
  0
VERTEX
  8
0
 10
10.091857
 20
99.313387
 42
0.010041
  0
VERTEX
  8
0
 10
17.072545
 20
98.776801
 42
0.003317
  0
VERTEX
  8
0
 10
27.343676
 20
98.262802
 42
-0.003183
  0
VERTEX
  8
0
 10
42.842640
 20
97.491349
 42
-0.051825
  0
VERTEX
  8
0
 10
47.980020
 20
96.664092
 42
-0.217530
  0
VERTEX
  8
0
 10
50.007211
 20
94.985515
 42
-0.158527
  0
VERTEX
  8
0
 10
50.410427
 20
92.047095
 42
0.022620
  0
VERTEX
  8
0
 10
49.820241
 20
87.630245
 42
0.001941
  0
VERTEX
  8
0
 10
48.866498
 20
76.264904
 42
0.002830
  0
VERTEX
  8
0
 10
47.995939
 20
64.550578
 42
0.006289
  0
VERTEX
  8
0
 10
47.495661
 20
55.616900
 42
0.036229
  0
VERTEX
  8
0
 10
47.741024
 20
47.177373
 42
0.017064
  0
VERTEX
  8
0
 10
49.216399
 20
36.365148
 42
0.016842
  0
VERTEX
  8
0
 10
51.379354
 20
25.879448
 42
0.045203
  0
VERTEX
  8
0
 10
53.827810
 20
18.671290
 42
0.062810
  0
VERTEX
  8
0
 10
56.226739
 20
14.698618
 42
0.042796
  0
VERTEX
  8
0
 10
59.844761
 20
10.847861
 42
0.043310
  0
VERTEX
  8
0
 10
63.982698
 20
7.738320
 42
0.073844
  0
VERTEX
  8
0
 10
67.940361
 20
6.016059
 42
0.028935
  0
VERTEX
  8
0
 10
70.247687
 20
5.535886
 42
0.005829
  0
VERTEX
  8
0
 10
74.402602
 20
4.968713
 42
0.006137
  0
VERTEX
  8
0
 10
79.258733
 20
4.423837
 42
0.005702
  0
VERTEX
  8
0
 10
84.247036
 20
3.983440
 42
-0.002614
  0
VERTEX
  8
0
 10
89.667368
 20
3.538629
 42
-0.001771
  0
VERTEX
  8
0
 10
95.838192
 20
2.977711
 42
-0.001784
  0
VERTEX
  8
0
 10
101.795538
 20
2.393460
 42
-0.003568
  0
VERTEX
  8
0
 10
106.500000
 20
1.881181
 42
0.022133
  0
VERTEX
  8
0
 10
118.475820
 20
1.025343
 42
0.004254
  0
VERTEX
  8
0
 10
140.241676
 20
0.620960
 42
0.001525
  0
VERTEX
  8
0
 10
163.521639
 20
0.457528
 42
0.109372
  0
VERTEX
  8
0
 10
167.258776
 20
1.269347
 42
-0.067651
  0
VERTEX
  8
0
 10
168.455802
 20
1.635292
 42
-0.005156
  0
VERTEX
  8
0
 10
171.803020
 20
2.145555
 42
-0.007016
  0
VERTEX
  8
0
 10
175.825005
 20
2.658848
 42
-0.005286
  0
VERTEX
  8
0
 10
180.258776
 20
3.114155
 42
0.000721
  0
VERTEX
  8
0
 10
185.219198
 20
3.577817
 42
0.000496
  0
VERTEX
  8
0
 10
190.841640
 20
4.117165
 42
0.000500
  0
VERTEX
  8
0
 10
196.252093
 20
4.647049
 42
0.001018
  0
VERTEX
  8
0
 10
200.500000
 20
5.076102
 42
-0.012978
  0
VERTEX
  8
0
 10
209.877590
 20
5.797200
 42
-0.002127
  0
VERTEX
  8
0
 10
228.059471
 20
6.643962
 42
-0.001738
  0
VERTEX
  8
0
 10
254.093076
 20
7.654783
 42
-0.000568
  0
VERTEX
  8
0
 10
292.500000
 20
8.968643
 42
0.003467
  0
VERTEX
  8
0
 10
317.831135
 20
9.982269
 42
0.003450
  0
VERTEX
  8
0
 10
343.187910
 20
11.348452
 42
0.002891
  0
VERTEX
  8
0
 10
365.226790
 20
12.816373
 42
0.021534
  0
VERTEX
  8
0
 10
375.652273
 20
14.024326
 42
0.022413
  0
VERTEX
  8
0
 10
380.902013
 20
15.106175
 42
0.047944
  0
VERTEX
  8
0
 10
384.794403
 20
16.500011
 42
0.065356
  0
VERTEX
  8
0
 10
387.474922
 20
18.218924
 42
0.120810
  0
VERTEX
  8
0
 10
388.989632
 20
20.298100
 42
0.076821
  0
VERTEX
  8
0
 10
390.375620
 20
26.066277
 42
0.004568
  0
VERTEX
  8
0
 10
391.693522
 20
44.005092
 42
0.007414
  0
VERTEX
  8
0
 10
392.671470
 20
63.796444
 42
0.008703
  0
VERTEX
  8
0
 10
392.993411
 20
82.576853
 42
0.001844
  0
VERTEX
  8
0
 10
392.936355
 20
97.010271
 42
0.014118
  0
VERTEX
  8
0
 10
392.693182
 20
103.785567
 42
0.029951
  0
VERTEX
  8
0
 10
392.198440
 20
107.755151
 42
0.100121
  0
VERTEX
  8
0
 10
391.221561
 20
110.176617
 42
0.048268
  0
VERTEX
  8
0
 10
388.995059
 20
112.932787
 42
0.045988
  0
VERTEX
  8
0
 10
386.247535
 20
115.260795
 42
0.041645
  0
VERTEX
  8
0
 10
382.868320
 20
117.230662
 42
0.028300
  0
VERTEX
  8
0
 10
378.744914
 20
118.915737
 42
0.066986
  0
VERTEX
  8
0
 10
370.718396
 20
120.522685
 42
0.007066
  0
VERTEX
  8
0
 10
351.583093
 20
121.474283
 42
0.006119
  0
VERTEX
  8
0
 10
323.243398
 20
122.135303
 42
0.001670
  0
VERTEX
  8
0
 10
278.500000
 20
122.481738
 42
-0.000509
  0
VERTEX
  8
0
 10
255.162310
 20
122.608231
 42
-0.000264
  0
VERTEX
  8
0
 10
226.003125
 20
122.811355
 42
-0.000262
  0
VERTEX
  8
0
 10
196.038419
 20
123.051607
 42
-0.000398
  0
VERTEX
  8
0
 10
170.000000
 20
123.294782
 42
0.001536
  0
VERTEX
  8
0
 10
146.977908
 20
123.457384
 42
0.002122
  0
VERTEX
  8
0
 10
126.313088
 20
123.452128
 42
0.001361
  0
VERTEX
  8
0
 10
108.968564
 20
123.326880
 42
0.025283
  0
SEQEND
  0
ENDSEC
  0
EOF
