  0
SECTION
  2
HEADER
  9
$ACADVER
  1
AC1006
  9
$EXTMIN
 10
0.000000
 20
0.000000
 30
0.000000
  9
$EXTMAX
 10
324.000000
 20
121.000000
 30
0.000000
  0
ENDSEC
  0
SECTION
  2
ENTITIES
  0
POLYLINE
  8
0
 66
1
 70
1
  0
VERTEX
  8
0
 10
109.000000
 20
119.905947
 42
0.005562
  0
VERTEX
  8
0
 10
89.042916
 20
119.156455
 42
0.015911
  0
VERTEX
  8
0
 10
75.204630
 20
118.040336
 42
0.020568
  0
VERTEX
  8
0
 10
65.563891
 20
116.549438
 42
0.100756
  0
VERTEX
  8
0
 10
60.501719
 20
114.436604
 42
-0.079220
  0
VERTEX
  8
0
 10
57.743571
 20
113.144446
 42
-0.043582
  0
VERTEX
  8
0
 10
54.077061
 20
112.428260
 42
-0.017271
  0
VERTEX
  8
0
 10
47.771701
 20
111.978206
 42
-0.001707
  0
VERTEX
  8
0
 10
32.586807
 20
111.472304
 42
0.003248
  0
VERTEX
  8
0
 10
23.104922
 20
111.127145
 42
0.005230
  0
VERTEX
  8
0
 10
15.032190
 20
110.696133
 42
0.001311
  0
VERTEX
  8
0
 10
8.021627
 20
110.229795
 42
0.241587
  0
VERTEX
  8
0
 10
7.416094
 20
109.864237
 42
-0.176042
  0
VERTEX
  8
0
 10
7.044513
 20
109.570630
 42
-0.055995
  0
VERTEX
  8
0
 10
6.343426
 20
109.422426
 42
-0.047970
  0
VERTEX
  8
0
 10
5.462479
 20
109.421909
 42
-0.037674
  0
VERTEX
  8
0
 10
4.520880
 20
109.584115
 42
0.054689
  0
VERTEX
  8
0
 10
3.326756
 20
109.748298
 42
0.115643
  0
VERTEX
  8
0
 10
2.416772
 20
109.561087
 42
0.112285
  0
VERTEX
  8
0
 10
1.667831
 20
108.983666
 42
0.049784
  0
VERTEX
  8
0
 10
0.968617
 20
107.941361
 42
0.106429
  0
VERTEX
  8
0
 10
0.329912
 20
105.714635
 42
0.024801
  0
VERTEX
  8
0
 10
0.260752
 20
101.804320
 42
0.021987
  0
VERTEX
  8
0
 10
0.554412
 20
97.941403
 42
0.167942
  0
VERTEX
  8
0
 10
1.339306
 20
96.327360
 42
0.190147
  0
VERTEX
  8
0
 10
2.801361
 20
95.692619
 42
0.000424
  0
VERTEX
  8
0
 10
27.146142
 20
94.890562
 42
0.000523
  0
VERTEX
  8
0
 10
51.316562
 20
94.140053
 42
0.146936
  0
VERTEX
  8
0
 10
53.260248
 20
94.660842
 42
-0.475666
  0
VERTEX
  8
0
 10
53.688429
 20
94.512066
 42
-0.070430
  0
VERTEX
  8
0
 10
53.906023
 20
93.479919
 42
-0.031360
  0
VERTEX
  8
0
 10
53.914741
 20
91.519706
 42
-0.008376
  0
VERTEX
  8
0
 10
53.680821
 20
88.406771
 42
0.008103
  0
VERTEX
  8
0
 10
53.393986
 20
84.617361
 42
0.001883
  0
VERTEX
  8
0
 10
53.039255
 20
78.241364
 42
0.001942
  0
VERTEX
  8
0
 10
52.687033
 20
70.897842
 42
0.001902
  0
VERTEX
  8
0
 10
52.389198
 20
63.500000
 42
0.004888
  0
VERTEX
  8
0
 10
52.108544
 20
52.974964
 42
0.016963
  0
VERTEX
  8
0
 10
52.224542
 20
46.167644
 42
0.019545
  0
VERTEX
  8
0
 10
52.791430
 20
39.889148
 42
0.008221
  0
VERTEX
  8
0
 10
54.021366
 20
31.500000
 42
0.008270
  0
VERTEX
  8
0
 10
56.168435
 20
19.603333
 42
0.061597
  0
VERTEX
  8
0
 10
57.962057
 20
14.156846
 42
0.130038
  0
VERTEX
  8
0
 10
60.471932
 20
11.175771
 42
0.089482
  0
VERTEX
  8
0
 10
64.500000
 20
9.309412
 42
0.017766
  0
VERTEX
  8
0
 10
66.942101
 20
8.763633
 42
0.007634
  0
VERTEX
  8
0
 10
70.234375
 20
8.201615
 42
0.007543
  0
VERTEX
  8
0
 10
73.762549
 20
7.709004
 42
0.009880
  0
VERTEX
  8
0
 10
77.000000
 20
7.371479
 42
-0.013540
  0
VERTEX
  8
0
 10
80.485779
 20
6.982250
 42
-0.028282
  0
VERTEX
  8
0
 10
83.164167
 20
6.453720
 42
-0.036614
  0
VERTEX
  8
0
 10
85.165092
 20
5.780466
 42
-0.084463
  0
VERTEX
  8
0
 10
86.500000
 20
4.931794
 42
0.061882
  0
VERTEX
  8
0
 10
87.656980
 20
4.121065
 42
0.064922
  0
VERTEX
  8
0
 10
88.958933
 20
3.634058
 42
0.054581
  0
VERTEX
  8
0
 10
90.527020
 20
3.446203
 42
0.028290
  0
VERTEX
  8
0
 10
92.500000
 20
3.537790
 42
-0.005369
  0
VERTEX
  8
0
 10
94.682312
 20
3.739604
 42
-0.001284
  0
VERTEX
  8
0
 10
98.312689
 20
4.026670
 42
-0.001319
  0
VERTEX
  8
0
 10
102.483574
 20
4.334635
 42
-0.001305
  0
VERTEX
  8
0
 10
106.670855
 20
4.621720
 42
-0.006252
  0
VERTEX
  8
0
 10
113.002187
 20
4.959747
 42
-0.042673
  0
VERTEX
  8
0
 10
116.123136
 20
4.820898
 42
-0.064074
  0
VERTEX
  8
0
 10
118.629598
 20
4.160219
 42
-0.024026
  0
VERTEX
  8
0
 10
121.933038
 20
2.630194
 42
0.040271
  0
VERTEX
  8
0
 10
125.680992
 20
1.039880
 42
0.082290
  0
VERTEX
  8
0
 10
128.827483
 20
0.543124
 42
0.098289
  0
VERTEX
  8
0
 10
131.592996
 20
1.114019
 42
0.078910
  0
VERTEX
  8
0
 10
134.177369
 20
2.723567
 42
-0.138445
  0
VERTEX
  8
0
 10
136.653065
 20
3.887166
 42
-0.052100
  0
VERTEX
  8
0
 10
140.511014
 20
4.119391
 42
-0.049428
  0
VERTEX
  8
0
 10
144.744560
 20
3.510870
 42
-0.061302
  0
VERTEX
  8
0
 10
148.461442
 20
2.094884
 42
0.021077
  0
VERTEX
  8
0
 10
151.747490
 20
0.530624
 42
0.112539
  0
VERTEX
  8
0
 10
153.690065
 20
0.181133
 42
0.097349
  0
VERTEX
  8
0
 10
155.723980
 20
0.679325
 42
0.013770
  0
VERTEX
  8
0
 10
159.601061
 20
2.609093
 42
-0.021145
  0
VERTEX
  8
0
 10
162.553204
 20
4.024555
 42
-0.058678
  0
VERTEX
  8
0
 10
164.756894
 20
4.676365
 42
-0.053086
  0
VERTEX
  8
0
 10
167.173966
 20
4.831964
 42
-0.014949
  0
VERTEX
  8
0
 10
170.947586
 20
4.561000
 42
0.025172
  0
VERTEX
  8
0
 10
181.976775
 20
3.995328
 42
0.000384
  0
VERTEX
  8
0
 10
245.952829
 20
3.986170
 42
0.000206
  0
VERTEX
  8
0
 10
312.017001
 20
4.054614
 42
0.049026
  0
VERTEX
  8
0
 10
318.014169
 20
4.652834
 42
0.050005
  0
VERTEX
  8
0
 10
319.263492
 20
5.035633
 42
0.042168
  0
VERTEX
  8
0
 10
320.489833
 20
5.676478
 42
0.044072
  0
VERTEX
  8
0
 10
321.515547
 20
6.462579
 42
0.084551
  0
VERTEX
  8
0
 10
322.149346
 20
7.279056
 42
0.112211
  0
VERTEX
  8
0
 10
322.662314
 20
9.147734
 42
0.001989
  0
VERTEX
  8
0
 10
323.086552
 20
19.631814
 42
0.004222
  0
VERTEX
  8
0
 10
323.464602
 20
33.120511
 42
0.001740
  0
VERTEX
  8
0
 10
323.758784
 20
51.396953
 42
0.003380
  0
VERTEX
  8
0
 10
323.937785
 20
81.971030
 42
0.015185
  0
VERTEX
  8
0
 10
323.378536
 20
99.848755
 42
0.021119
  0
VERTEX
  8
0
 10
322.196721
 20
111.185521
 42
0.173944
  0
VERTEX
  8
0
 10
319.790824
 20
115.690190
 42
0.173545
  0
VERTEX
  8
0
 10
316.099421
 20
117.216802
 42
0.004186
  0
VERTEX
  8
0
 10
297.316050
 20
117.970433
 42
0.004572
  0
VERTEX
  8
0
 10
266.744690
 20
118.660987
 42
0.000575
  0
VERTEX
  8
0
 10
200.563080
 20
119.474444
 42
-0.000243
  0
VERTEX
  8
0
 10
175.939336
 20
119.760751
 42
-0.000390
  0
VERTEX
  8
0
 10
154.948476
 20
120.031384
 42
-0.000058
  0
VERTEX
  8
0
 10
136.312101
 20
120.288371
 42
-0.025699
  0
VERTEX
  8
0
 10
135.063080
 20
120.370037
 42
0.033167
  0
VERTEX
  8
0
 10
133.884154
 20
120.429466
 42
0.000465
  0
VERTEX
  8
0
 10
126.762280
 20
120.309284
 42
0.001298
  0
VERTEX
  8
0
 10
118.502530
 20
120.140757
 42
0.000854
  0
SEQEND
  0
ENDSEC
  0
EOF
