  0
SECTION
  2
HEADER
  9
$ACADVER
  1
AC1006
  9
$EXTMIN
 10
0.000000
 20
0.000000
 30
0.000000
  9
$EXTMAX
 10
315.000000
 20
104.000000
 30
0.000000
  0
ENDSEC
  0
SECTION
  2
ENTITIES
  0
POLYLINE
  8
0
 66
1
 70
1
  0
VERTEX
  8
0
 10
184.592235
 20
103.149240
 42
-0.252698
  0
VERTEX
  8
0
 10
183.976064
 20
102.794651
 42
-0.000244
  0
VERTEX
  8
0
 10
167.245910
 20
102.348370
 42
-0.002260
  0
VERTEX
  8
0
 10
148.474770
 20
101.941701
 42
-0.001374
  0
VERTEX
  8
0
 10
126.282182
 20
101.622268
 42
0.000598
  0
VERTEX
  8
0
 10
103.708012
 20
101.332378
 42
0.000859
  0
VERTEX
  8
0
 10
83.711016
 20
101.017278
 42
0.000453
  0
VERTEX
  8
0
 10
66.770747
 20
100.705875
 42
0.013555
  0
VERTEX
  8
0
 10
62.500000
 20
100.507592
 42
-0.010518
  0
VERTEX
  8
0
 10
58.794615
 20
100.312996
 42
-0.001223
  0
VERTEX
  8
0
 10
50.493074
 20
100.072281
 42
-0.001469
  0
VERTEX
  8
0
 10
40.617736
 20
99.839139
 42
-0.001200
  0
VERTEX
  8
0
 10
30.050890
 20
99.646108
 42
0.001244
  0
VERTEX
  8
0
 10
12.922919
 20
99.331715
 42
0.018119
  0
VERTEX
  8
0
 10
6.880198
 20
98.986449
 42
0.056510
  0
VERTEX
  8
0
 10
3.713679
 20
98.324070
 42
0.143735
  0
VERTEX
  8
0
 10
1.800890
 20
97.002437
 42
0.111959
  0
VERTEX
  8
0
 10
0.300951
 20
93.957183
 42
0.081172
  0
VERTEX
  8
0
 10
0.025470
 20
90.174172
 42
0.100131
  0
VERTEX
  8
0
 10
0.935538
 20
87.112118
 42
0.277379
  0
VERTEX
  8
0
 10
2.785991
 20
86.000000
 42
-0.038791
  0
VERTEX
  8
0
 10
3.594619
 20
85.937170
 42
-0.011961
  0
VERTEX
  8
0
 10
4.798331
 20
85.719363
 42
-0.011886
  0
VERTEX
  8
0
 10
6.137937
 20
85.410359
 42
-0.012782
  0
VERTEX
  8
0
 10
7.429002
 20
85.044640
 42
0.045732
  0
VERTEX
  8
0
 10
9.452436
 20
84.612935
 42
0.003797
  0
VERTEX
  8
0
 10
14.797151
 20
84.016103
 42
0.005046
  0
VERTEX
  8
0
 10
21.196720
 20
83.415855
 42
0.003871
  0
VERTEX
  8
0
 10
28.199599
 20
82.884807
 42
-0.002908
  0
VERTEX
  8
0
 10
35.055854
 20
82.378160
 42
-0.004443
  0
VERTEX
  8
0
 10
40.995759
 20
81.851321
 42
-0.001663
  0
VERTEX
  8
0
 10
46.088799
 20
81.336834
 42
-0.112869
  0
VERTEX
  8
0
 10
46.906241
 20
81.057946
 42
-0.253525
  0
VERTEX
  8
0
 10
47.297215
 20
80.376099
 42
-0.019608
  0
VERTEX
  8
0
 10
47.264143
 20
78.195511
 42
-0.019504
  0
VERTEX
  8
0
 10
46.978693
 20
75.147534
 42
-0.007634
  0
VERTEX
  8
0
 10
46.357029
 20
70.967779
 42
0.038522
  0
VERTEX
  8
0
 10
45.014676
 20
55.381523
 42
0.022926
  0
VERTEX
  8
0
 10
45.703016
 20
36.754814
 42
0.020739
  0
VERTEX
  8
0
 10
47.851675
 20
19.551359
 42
0.103951
  0
VERTEX
  8
0
 10
51.369249
 20
10.559208
 42
0.089327
  0
VERTEX
  8
0
 10
53.260408
 20
8.562354
 42
0.044033
  0
VERTEX
  8
0
 10
56.257644
 20
6.739600
 42
0.043571
  0
VERTEX
  8
0
 10
59.616034
 20
5.432012
 42
0.071171
  0
VERTEX
  8
0
 10
62.635693
 20
5.000000
 42
-0.032337
  0
VERTEX
  8
0
 10
63.678291
 20
4.932501
 42
-0.022826
  0
VERTEX
  8
0
 10
64.834727
 20
4.728097
 42
-0.023136
  0
VERTEX
  8
0
 10
65.926892
 20
4.429529
 42
-0.044186
  0
VERTEX
  8
0
 10
66.763569
 20
4.074374
 42
0.096764
  0
VERTEX
  8
0
 10
69.937942
 20
3.103478
 42
0.005627
  0
VERTEX
  8
0
 10
80.081039
 20
2.161144
 42
0.003536
  0
VERTEX
  8
0
 10
90.609855
 20
1.377277
 42
0.190242
  0
VERTEX
  8
0
 10
92.487666
 20
1.976205
 42
-0.161416
  0
VERTEX
  8
0
 10
95.317336
 20
3.056412
 42
-0.025229
  0
VERTEX
  8
0
 10
101.377063
 20
3.020973
 42
-0.028886
  0
VERTEX
  8
0
 10
107.913909
 20
2.272189
 42
-0.048187
  0
VERTEX
  8
0
 10
113.250428
 20
0.806134
 42
0.060802
  0
VERTEX
  8
0
 10
114.927496
 20
0.390477
 42
0.031438
  0
VERTEX
  8
0
 10
117.087080
 20
0.263691
 42
0.024336
  0
VERTEX
  8
0
 10
119.828374
 20
0.408777
 42
0.011528
  0
VERTEX
  8
0
 10
123.340668
 20
0.848665
 42
-0.015534
  0
VERTEX
  8
0
 10
126.988095
 20
1.275832
 42
-0.019480
  0
VERTEX
  8
0
 10
130.389126
 20
1.434306
 42
-0.020508
  0
VERTEX
  8
0
 10
133.636645
 20
1.325790
 42
-0.021319
  0
VERTEX
  8
0
 10
136.822245
 20
0.951224
 42
0.021383
  0
VERTEX
  8
0
 10
139.957537
 20
0.582985
 42
0.018872
  0
VERTEX
  8
0
 10
143.246722
 20
0.463158
 42
0.018091
  0
VERTEX
  8
0
 10
146.676127
 20
0.591831
 42
0.015995
  0
VERTEX
  8
0
 10
150.232005
 20
0.968984
 42
-0.023449
  0
VERTEX
  8
0
 10
158.490178
 20
1.720631
 42
-0.010850
  0
VERTEX
  8
0
 10
169.269146
 20
1.959754
 42
-0.006329
  0
VERTEX
  8
0
 10
179.822184
 20
1.831250
 42
-0.117172
  0
VERTEX
  8
0
 10
183.028428
 20
0.984786
 42
0.119094
  0
VERTEX
  8
0
 10
184.868535
 20
0.506442
 42
0.001608
  0
VERTEX
  8
0
 10
196.636916
 20
0.341231
 42
0.003761
  0
VERTEX
  8
0
 10
211.904127
 20
0.290853
 42
0.001426
  0
VERTEX
  8
0
 10
233.219373
 20
0.441631
 42
0.001062
  0
VERTEX
  8
0
 10
274.925576
 20
0.944186
 42
0.007213
  0
VERTEX
  8
0
 10
295.529250
 20
1.533590
 42
0.007790
  0
VERTEX
  8
0
 10
308.220800
 20
2.278229
 42
0.197632
  0
VERTEX
  8
0
 10
311.261306
 20
3.801419
 42
0.177230
  0
VERTEX
  8
0
 10
314.385781
 20
11.970117
 42
0.005272
  0
VERTEX
  8
0
 10
314.533307
 20
49.202442
 42
0.007377
  0
VERTEX
  8
0
 10
313.759660
 20
85.458219
 42
0.104181
  0
VERTEX
  8
0
 10
310.641225
 20
98.000000
 42
0.129669
  0
VERTEX
  8
0
 10
309.376504
 20
99.473753
 42
0.106365
  0
VERTEX
  8
0
 10
307.452788
 20
100.268444
 42
0.032023
  0
VERTEX
  8
0
 10
303.733811
 20
100.701010
 42
0.002119
  0
VERTEX
  8
0
 10
292.964765
 20
101.213251
 42
0.004440
  0
VERTEX
  8
0
 10
284.049979
 20
101.520149
 42
0.001101
  0
VERTEX
  8
0
 10
269.439650
 20
101.861069
 42
0.001126
  0
VERTEX
  8
0
 10
252.713037
 20
102.176853
 42
0.001129
  0
VERTEX
  8
0
 10
236.000000
 20
102.417001
 42
-0.001111
  0
VERTEX
  8
0
 10
220.107610
 20
102.644779
 42
-0.001543
  0
VERTEX
  8
0
 10
205.872328
 20
102.924370
 42
-0.000944
  0
VERTEX
  8
0
 10
193.890771
 20
103.219322
 42
-0.019674
  0
VERTEX
  8
0
 10
190.310054
 20
103.455428
 42
0.016193
  0
VERTEX
  8
0
 10
188.283375
 20
103.603236
 42
0.023484
  0
VERTEX
  8
0
 10
186.489592
 20
103.591505
 42
0.020637
  0
VERTEX
  8
0
 10
185.063895
 20
103.455989
 42
0.223931
  0
SEQEND
  0
ENDSEC
  0
EOF
