  0
SECTION
  2
HEADER
  9
$ACADVER
  1
AC1006
  9
$EXTMIN
 10
0.000000
 20
0.000000
 30
0.000000
  9
$EXTMAX
 10
106.000000
 20
97.000000
 30
0.000000
  0
ENDSEC
  0
SECTION
  2
ENTITIES
  0
POLYLINE
  8
0
 66
1
 70
1
  0
VERTEX
  8
0
 10
89.000000
 20
94.000000
 42
-0.031626
  0
VERTEX
  8
0
 10
88.927234
 20
92.850749
 42
-0.048861
  0
VERTEX
  8
0
 10
88.706250
 20
91.881250
 42
-0.062710
  0
VERTEX
  8
0
 10
88.384262
 20
91.209557
 42
-0.254951
  0
VERTEX
  8
0
 10
88.000000
 20
91.000000
 42
0.161918
  0
VERTEX
  8
0
 10
87.618560
 20
90.873151
 42
0.096322
  0
VERTEX
  8
0
 10
87.293750
 20
90.515021
 42
0.077716
  0
VERTEX
  8
0
 10
87.074331
 20
89.980433
 42
0.058657
  0
VERTEX
  8
0
 10
87.000000
 20
89.349009
 42
-0.294252
  0
VERTEX
  8
0
 10
86.440422
 20
88.480490
 42
-0.086967
  0
VERTEX
  8
0
 10
84.834598
 20
88.066012
 42
-0.028205
  0
VERTEX
  8
0
 10
81.535214
 20
87.991093
 42
-0.002904
  0
VERTEX
  8
0
 10
73.750000
 20
88.298770
 42
0.018064
  0
VERTEX
  8
0
 10
61.546486
 20
88.410867
 42
0.029321
  0
VERTEX
  8
0
 10
51.217423
 20
87.524911
 42
0.034038
  0
VERTEX
  8
0
 10
43.220266
 20
85.801653
 42
0.121060
  0
VERTEX
  8
0
 10
38.708200
 20
83.210812
 42
0.036243
  0
VERTEX
  8
0
 10
37.618056
 20
82.007662
 42
0.042838
  0
VERTEX
  8
0
 10
36.779290
 20
80.722063
 42
0.048113
  0
VERTEX
  8
0
 10
36.268469
 20
79.501308
 42
0.108031
  0
VERTEX
  8
0
 10
36.183719
 20
78.505793
 42
-0.132686
  0
VERTEX
  8
0
 10
35.897695
 20
76.376520
 42
-0.027125
  0
VERTEX
  8
0
 10
34.224739
 20
72.927323
 42
-0.023098
  0
VERTEX
  8
0
 10
32.234385
 20
69.695656
 42
-0.248054
  0
VERTEX
  8
0
 10
30.918441
 20
69.000000
 42
0.116728
  0
VERTEX
  8
0
 10
30.568116
 20
68.917085
 42
0.100530
  0
VERTEX
  8
0
 10
30.269792
 20
68.683059
 42
0.092989
  0
VERTEX
  8
0
 10
30.069527
 20
68.333100
 42
0.083776
  0
VERTEX
  8
0
 10
30.000000
 20
67.921053
 42
-0.158385
  0
VERTEX
  8
0
 10
29.795496
 20
67.291659
 42
-0.012188
  0
VERTEX
  8
0
 10
28.701316
 20
65.860362
 42
-0.015747
  0
VERTEX
  8
0
 10
27.272460
 20
64.193149
 42
-0.011336
  0
VERTEX
  8
0
 10
25.578947
 20
62.421053
 42
-0.018176
  0
VERTEX
  8
0
 10
23.337092
 20
60.336521
 42
-0.043048
  0
VERTEX
  8
0
 10
21.492249
 20
59.000836
 42
-0.057980
  0
VERTEX
  8
0
 10
19.839142
 20
58.253094
 42
-0.077393
  0
VERTEX
  8
0
 10
18.213806
 20
58.000000
 42
0.054955
  0
VERTEX
  8
0
 10
16.901544
 20
57.855333
 42
0.032499
  0
VERTEX
  8
0
 10
15.387658
 20
57.412500
 42
0.032190
  0
VERTEX
  8
0
 10
13.915869
 20
56.765963
 42
0.047097
  0
VERTEX
  8
0
 10
12.727129
 20
56.000000
 42
-0.009575
  0
VERTEX
  8
0
 10
11.713854
 20
55.233905
 42
-0.013172
  0
VERTEX
  8
0
 10
10.772798
 20
54.587500
 42
-0.009837
  0
VERTEX
  8
0
 10
9.971749
 20
54.089890
 42
-0.134856
  0
VERTEX
  8
0
 10
9.644530
 20
54.000000
 42
-0.357522
  0
VERTEX
  8
0
 10
9.418816
 20
54.185049
 42
-0.009570
  0
VERTEX
  8
0
 10
9.174359
 20
55.542188
 42
-0.015778
  0
VERTEX
  8
0
 10
8.957026
 20
57.237192
 42
-0.009615
  0
VERTEX
  8
0
 10
8.802260
 20
59.250000
 42
0.011259
  0
VERTEX
  8
0
 10
8.547556
 20
62.425958
 42
0.100087
  0
VERTEX
  8
0
 10
8.132260
 20
63.758797
 42
0.183206
  0
VERTEX
  8
0
 10
7.324617
 20
64.448563
 42
0.057535
  0
VERTEX
  8
0
 10
5.750000
 20
64.816422
 42
0.032073
  0
VERTEX
  8
0
 10
4.467019
 20
64.881185
 42
0.103603
  0
VERTEX
  8
0
 10
3.638397
 20
64.695753
 42
0.165427
  0
VERTEX
  8
0
 10
3.172197
 20
64.257497
 42
0.122711
  0
VERTEX
  8
0
 10
3.000000
 20
63.566422
 42
-0.101839
  0
VERTEX
  8
0
 10
2.876977
 20
62.968678
 42
-0.098561
  0
VERTEX
  8
0
 10
2.527237
 20
62.460137
 42
-0.097261
  0
VERTEX
  8
0
 10
2.004871
 20
62.119425
 42
-0.096306
  0
VERTEX
  8
0
 10
1.390594
 20
62.000000
 42
0.316875
  0
VERTEX
  8
0
 10
0.453012
 20
61.339484
 42
0.101176
  0
VERTEX
  8
0
 10
0.198498
 20
59.554943
 42
0.044191
  0
VERTEX
  8
0
 10
0.674128
 20
56.371801
 42
0.010538
  0
VERTEX
  8
0
 10
2.039976
 20
51.189999
 42
-0.018007
  0
VERTEX
  8
0
 10
2.606435
 20
48.902908
 42
-0.052056
  0
VERTEX
  8
0
 10
2.773613
 20
47.281812
 42
-0.068723
  0
VERTEX
  8
0
 10
2.585385
 20
45.931315
 42
-0.053972
  0
VERTEX
  8
0
 10
2.031661
 20
44.559159
 42
0.091365
  0
VERTEX
  8
0
 10
1.364802
 20
42.471411
 42
0.089473
  0
VERTEX
  8
0
 10
1.478483
 20
40.266901
 42
0.112678
  0
VERTEX
  8
0
 10
2.286746
 20
38.612303
 42
0.226768
  0
VERTEX
  8
0
 10
3.567388
 20
38.000000
 42
-0.153794
  0
VERTEX
  8
0
 10
4.146288
 20
37.817624
 42
-0.110456
  0
VERTEX
  8
0
 10
4.606739
 20
37.313734
 42
-0.082491
  0
VERTEX
  8
0
 10
4.902411
 20
36.517983
 42
-0.047823
  0
VERTEX
  8
0
 10
5.000000
 20
35.500000
 42
0.172357
  0
VERTEX
  8
0
 10
5.641662
 20
33.693868
 42
0.213863
  0
VERTEX
  8
0
 10
7.218716
 20
32.899323
 42
0.175182
  0
VERTEX
  8
0
 10
9.126529
 20
33.492672
 42
0.127938
  0
VERTEX
  8
0
 10
10.512872
 20
35.250000
 42
-0.083952
  0
VERTEX
  8
0
 10
11.168191
 20
36.248163
 42
-0.056229
  0
VERTEX
  8
0
 10
12.206232
 20
37.140382
 42
-0.049891
  0
VERTEX
  8
0
 10
13.555847
 20
37.874106
 42
-0.039019
  0
VERTEX
  8
0
 10
15.139532
 20
38.399379
 42
-0.038269
  0
VERTEX
  8
0
 10
18.571918
 20
38.973601
 42
-0.162636
  0
VERTEX
  8
0
 10
20.569230
 20
38.499221
 42
-0.196751
  0
VERTEX
  8
0
 10
21.658557
 20
36.994522
 42
-0.059591
  0
VERTEX
  8
0
 10
22.000000
 20
34.139793
 42
0.021710
  0
VERTEX
  8
0
 10
22.093789
 20
31.980738
 42
0.104264
  0
VERTEX
  8
0
 10
22.449304
 20
30.809092
 42
0.147477
  0
VERTEX
  8
0
 10
23.179819
 20
30.092793
 42
0.059275
  0
VERTEX
  8
0
 10
24.500000
 20
29.589356
 42
-0.053971
  0
VERTEX
  8
0
 10
25.686181
 20
29.151330
 42
-0.112046
  0
VERTEX
  8
0
 10
26.446312
 20
28.530660
 42
-0.112134
  0
VERTEX
  8
0
 10
26.863711
 20
27.643036
 42
-0.054109
  0
VERTEX
  8
0
 10
27.000000
 20
26.387328
 42
0.052575
  0
VERTEX
  8
0
 10
27.122007
 20
25.230226
 42
0.088799
  0
VERTEX
  8
0
 10
27.489262
 20
24.329722
 42
0.101213
  0
VERTEX
  8
0
 10
28.104023
 20
23.690783
 42
0.087010
  0
VERTEX
  8
0
 10
28.953211
 20
23.301985
 42
-0.123349
  0
VERTEX
  8
0
 10
29.949130
 20
22.756313
 42
-0.118984
  0
VERTEX
  8
0
 10
30.586332
 20
21.798945
 42
-0.061812
  0
VERTEX
  8
0
 10
30.969110
 20
20.141203
 42
-0.012735
  0
VERTEX
  8
0
 10
31.203211
 20
17.145604
 42
0.013792
  0
VERTEX
  8
0
 10
31.446419
 20
14.115923
 42
0.062299
  0
VERTEX
  8
0
 10
31.853824
 20
12.392437
 42
0.107484
  0
VERTEX
  8
0
 10
32.547076
 20
11.312549
 42
0.093324
  0
VERTEX
  8
0
 10
33.659228
 20
10.551956
 42
-0.075913
  0
VERTEX
  8
0
 10
34.599240
 20
9.955706
 42
-0.033304
  0
VERTEX
  8
0
 10
35.646720
 20
8.912450
 42
-0.031991
  0
VERTEX
  8
0
 10
36.631372
 20
7.635522
 42
-0.037003
  0
VERTEX
  8
0
 10
37.393050
 20
6.301956
 42
0.033685
  0
VERTEX
  8
0
 10
38.267533
 20
4.747048
 42
0.076379
  0
VERTEX
  8
0
 10
39.167080
 20
3.746157
 42
0.094928
  0
VERTEX
  8
0
 10
40.189919
 20
3.191458
 42
0.077060
  0
VERTEX
  8
0
 10
41.424804
 20
3.000000
 42
-0.037394
  0
VERTEX
  8
0
 10
42.410675
 20
2.926166
 42
-0.041246
  0
VERTEX
  8
0
 10
43.341722
 20
2.706250
 42
-0.045273
  0
VERTEX
  8
0
 10
44.092398
 20
2.384541
 42
-0.131209
  0
VERTEX
  8
0
 10
44.500000
 20
2.000000
 42
0.177227
  0
VERTEX
  8
0
 10
45.434835
 20
1.264820
 42
0.082286
  0
VERTEX
  8
0
 10
46.982987
 20
1.028629
 42
0.086363
  0
VERTEX
  8
0
 10
48.457917
 20
1.304807
 42
0.226678
  0
VERTEX
  8
0
 10
49.186673
 20
2.060019
 42
-0.247450
  0
VERTEX
  8
0
 10
49.542689
 20
2.401041
 42
-0.106859
  0
VERTEX
  8
0
 10
50.217801
 20
2.445547
 42
-0.060386
  0
VERTEX
  8
0
 10
51.213755
 20
2.172365
 42
-0.023082
  0
VERTEX
  8
0
 10
52.520006
 20
1.566180
 42
0.034891
  0
VERTEX
  8
0
 10
55.112337
 20
0.436726
 42
0.082920
  0
VERTEX
  8
0
 10
57.176525
 20
0.070322
 42
0.158360
  0
VERTEX
  8
0
 10
58.471871
 20
0.476561
 42
0.242806
  0
VERTEX
  8
0
 10
59.000000
 20
1.500000
 42
-0.146843
  0
VERTEX
  8
0
 10
59.191321
 20
2.137398
 42
-0.123730
  0
VERTEX
  8
0
 10
59.712916
 20
2.614986
 42
-0.085297
  0
VERTEX
  8
0
 10
60.579927
 20
2.907117
 42
-0.038722
  0
VERTEX
  8
0
 10
61.777494
 20
3.000000
 42
0.079263
  0
VERTEX
  8
0
 10
64.426812
 20
3.422642
 42
0.081189
  0
VERTEX
  8
0
 10
66.789020
 20
4.647677
 42
0.091164
  0
VERTEX
  8
0
 10
68.425520
 20
6.409513
 42
0.142633
  0
VERTEX
  8
0
 10
69.000000
 20
8.382390
 42
0.084964
  0
VERTEX
  8
0
 10
68.822393
 20
9.420034
 42
0.039315
  0
VERTEX
  8
0
 10
68.265625
 20
10.674768
 42
0.037460
  0
VERTEX
  8
0
 10
67.456658
 20
11.933801
 42
0.042680
  0
VERTEX
  8
0
 10
66.500000
 20
13.000000
 42
-0.045795
  0
VERTEX
  8
0
 10
65.482141
 20
14.148696
 42
-0.045158
  0
VERTEX
  8
0
 10
64.684975
 20
15.468664
 42
-0.047396
  0
VERTEX
  8
0
 10
64.171898
 20
16.838715
 42
-0.065997
  0
VERTEX
  8
0
 10
64.000000
 20
18.135359
 42
0.056150
  0
VERTEX
  8
0
 10
63.865027
 20
19.333479
 42
0.039509
  0
VERTEX
  8
0
 10
63.459531
 20
20.628993
 42
0.039938
  0
VERTEX
  8
0
 10
62.864874
 20
21.822766
 42
0.064451
  0
VERTEX
  8
0
 10
62.160105
 20
22.711045
 42
-0.028444
  0
VERTEX
  8
0
 10
61.406350
 20
23.532307
 42
-0.020812
  0
VERTEX
  8
0
 10
60.663119
 20
24.522103
 42
-0.021148
  0
VERTEX
  8
0
 10
60.036028
 20
25.521967
 42
-0.042936
  0
VERTEX
  8
0
 10
59.647667
 20
26.364200
 42
0.077652
  0
VERTEX
  8
0
 10
59.194832
 20
27.190696
 42
0.123639
  0
VERTEX
  8
0
 10
58.565600
 20
27.687721
 42
0.106064
  0
VERTEX
  8
0
 10
57.702091
 20
27.872839
 42
0.047217
  0
VERTEX
  8
0
 10
56.537663
 20
27.762449
 42
-0.118798
  0
VERTEX
  8
0
 10
54.327725
 20
27.867732
 42
-0.338091
  0
VERTEX
  8
0
 10
53.469843
 20
29.032920
 42
-0.163970
  0
VERTEX
  8
0
 10
54.209449
 20
31.107571
 42
-0.044085
  0
VERTEX
  8
0
 10
56.640799
 20
33.688251
 42
-0.014102
  0
VERTEX
  8
0
 10
58.149957
 20
34.956478
 42
-0.018286
  0
VERTEX
  8
0
 10
59.605879
 20
36.027174
 42
-0.016161
  0
VERTEX
  8
0
 10
60.862055
 20
36.823879
 42
-0.134017
  0
VERTEX
  8
0
 10
61.507339
 20
37.000000
 42
0.184948
  0
VERTEX
  8
0
 10
62.896945
 20
37.532216
 42
0.036821
  0
VERTEX
  8
0
 10
64.773320
 20
39.484165
 42
0.034269
  0
VERTEX
  8
0
 10
66.747745
 20
42.229226
 42
0.025466
  0
VERTEX
  8
0
 10
68.552049
 20
45.500000
 42
-0.006699
  0
VERTEX
  8
0
 10
69.342059
 20
47.068497
 42
-0.008898
  0
VERTEX
  8
0
 10
70.104678
 20
48.471875
 42
-0.006671
  0
VERTEX
  8
0
 10
70.776094
 20
49.620665
 42
-0.084093
  0
VERTEX
  8
0
 10
71.102173
 20
50.000000
 42
0.086138
  0
VERTEX
  8
0
 10
71.424360
 20
50.377903
 42
0.007175
  0
VERTEX
  8
0
 10
72.066360
 20
51.499749
 42
0.009402
  0
VERTEX
  8
0
 10
72.792329
 20
52.871925
 42
0.007118
  0
VERTEX
  8
0
 10
73.538908
 20
54.403402
 42
-0.052503
  0
VERTEX
  8
0
 10
75.988323
 20
58.450418
 42
-0.045331
  0
VERTEX
  8
0
 10
79.338748
 20
62.121422
 42
-0.042699
  0
VERTEX
  8
0
 10
83.506086
 20
65.322971
 42
-0.036230
  0
VERTEX
  8
0
 10
88.386319
 20
67.971984
 42
0.021495
  0
VERTEX
  8
0
 10
90.987575
 20
69.286324
 42
0.015883
  0
VERTEX
  8
0
 10
93.749532
 20
70.951708
 42
0.016115
  0
VERTEX
  8
0
 10
96.262540
 20
72.695383
 42
0.034341
  0
VERTEX
  8
0
 10
98.058897
 20
74.231539
 42
-0.012296
  0
VERTEX
  8
0
 10
99.582195
 20
75.655028
 42
-0.011308
  0
VERTEX
  8
0
 10
101.216005
 20
77.043318
 42
-0.011386
  0
VERTEX
  8
0
 10
102.728684
 20
78.214772
 42
-0.036211
  0
VERTEX
  8
0
 10
103.808897
 20
78.897725
 42
0.223295
  0
VERTEX
  8
0
 10
105.809173
 20
81.584202
 42
0.122454
  0
VERTEX
  8
0
 10
105.628848
 20
85.769591
 42
0.117166
  0
VERTEX
  8
0
 10
103.484719
 20
89.514204
 42
0.200342
  0
VERTEX
  8
0
 10
100.250000
 20
90.966731
 42
-0.057812
  0
VERTEX
  8
0
 10
99.771426
 20
91.035200
 42
-0.075068
  0
VERTEX
  8
0
 10
99.365180
 20
91.210540
 42
-0.092183
  0
VERTEX
  8
0
 10
99.091252
 20
91.461242
 42
-0.160529
  0
VERTEX
  8
0
 10
98.993167
 20
91.750000
 42
0.236545
  0
VERTEX
  8
0
 10
98.430430
 20
92.847848
 42
0.017217
  0
VERTEX
  8
0
 10
95.536380
 20
94.819932
 42
0.021652
  0
VERTEX
  8
0
 10
92.502422
 20
96.558771
 42
0.119851
  0
VERTEX
  8
0
 10
90.688120
 20
97.000000
 42
0.119033
  0
VERTEX
  8
0
 10
89.919354
 20
96.814352
 42
0.147135
  0
VERTEX
  8
0
 10
89.390677
 20
96.305719
 42
0.096319
  0
VERTEX
  8
0
 10
89.090044
 20
95.400048
 42
0.032124
  0
SEQEND
  0
ENDSEC
  0
EOF
