  0
SECTION
  2
HEADER
  9
$ACADVER
  1
AC1006
  9
$EXTMIN
 10
0.000000
 20
0.000000
 30
0.000000
  9
$EXTMAX
 10
380.000000
 20
408.000000
 30
0.000000
  0
ENDSEC
  0
SECTION
  2
ENTITIES
  0
POLYLINE
  8
0
 66
1
 70
1
  0
VERTEX
  8
0
 10
77.149694
 20
406.003122
 42
0.007413
  0
VERTEX
  8
0
 10
75.016921
 20
405.199970
 42
0.008863
  0
VERTEX
  8
0
 10
73.033318
 20
404.378324
 42
0.007815
  0
VERTEX
  8
0
 10
71.389334
 20
403.632185
 42
0.056178
  0
VERTEX
  8
0
 10
70.649694
 20
403.174701
 42
-0.100711
  0
VERTEX
  8
0
 10
69.885756
 20
402.791039
 42
-0.013839
  0
VERTEX
  8
0
 10
68.145388
 20
402.370674
 42
-0.015425
  0
VERTEX
  8
0
 10
66.028981
 20
401.988887
 42
-0.012494
  0
VERTEX
  8
0
 10
63.738862
 20
401.706607
 42
0.044278
  0
VERTEX
  8
0
 10
59.479393
 20
400.904400
 42
0.045735
  0
VERTEX
  8
0
 10
55.475925
 20
399.369727
 42
0.033252
  0
VERTEX
  8
0
 10
50.875320
 20
396.711453
 42
0.011181
  0
VERTEX
  8
0
 10
44.529629
 20
392.250000
 42
-0.012495
  0
VERTEX
  8
0
 10
42.745233
 20
391.002444
 42
-0.015731
  0
VERTEX
  8
0
 10
41.030506
 20
389.942375
 42
-0.013886
  0
VERTEX
  8
0
 10
39.558298
 20
389.148636
 42
-0.109109
  0
VERTEX
  8
0
 10
38.809991
 20
388.958084
 42
0.115629
  0
VERTEX
  8
0
 10
36.271036
 20
388.276623
 42
0.037469
  0
VERTEX
  8
0
 10
32.969751
 20
386.172878
 42
0.030647
  0
VERTEX
  8
0
 10
29.126304
 20
382.912281
 42
0.016944
  0
VERTEX
  8
0
 10
24.829832
 20
378.500000
 42
0.016364
  0
VERTEX
  8
0
 10
15.895544
 20
368.010276
 42
0.034101
  0
VERTEX
  8
0
 10
9.795214
 20
359.180682
 42
0.044614
  0
VERTEX
  8
0
 10
6.172799
 20
351.628670
 42
0.089759
  0
VERTEX
  8
0
 10
5.000000
 20
345.148254
 42
-0.018501
  0
VERTEX
  8
0
 10
4.900235
 20
342.452984
 42
-0.072702
  0
VERTEX
  8
0
 10
4.539657
 20
340.834021
 42
-0.100989
  0
VERTEX
  8
0
 10
3.800601
 20
339.669718
 42
-0.056027
  0
VERTEX
  8
0
 10
2.500000
 20
338.591957
 42
0.069702
  0
VERTEX
  8
0
 10
1.103664
 20
337.369202
 42
0.115209
  0
VERTEX
  8
0
 10
0.379180
 20
335.987703
 42
0.056468
  0
VERTEX
  8
0
 10
0.067706
 20
333.789671
 42
0.006988
  0
VERTEX
  8
0
 10
0.000000
 20
328.945562
 42
0.009558
  0
VERTEX
  8
0
 10
0.069658
 20
325.301893
 42
0.027003
  0
VERTEX
  8
0
 10
0.303992
 20
322.768184
 42
0.035532
  0
VERTEX
  8
0
 10
0.677322
 20
321.076891
 42
0.233139
  0
VERTEX
  8
0
 10
1.250000
 20
320.457688
 42
-0.259628
  0
VERTEX
  8
0
 10
1.860961
 20
319.727066
 42
-0.022944
  0
VERTEX
  8
0
 10
2.215171
 20
317.258594
 42
-0.018893
  0
VERTEX
  8
0
 10
2.437604
 20
313.483925
 42
-0.005270
  0
VERTEX
  8
0
 10
2.500000
 20
307.563576
 42
0.015638
  0
VERTEX
  8
0
 10
2.783702
 20
298.494902
 42
0.076487
  0
VERTEX
  8
0
 10
3.876377
 20
293.496618
 42
0.134416
  0
VERTEX
  8
0
 10
6.087628
 20
290.496292
 42
0.094071
  0
VERTEX
  8
0
 10
9.831419
 20
288.543203
 42
-0.035232
  0
VERTEX
  8
0
 10
11.608287
 20
287.866882
 42
-0.139846
  0
VERTEX
  8
0
 10
12.483511
 20
287.111525
 42
-0.121876
  0
VERTEX
  8
0
 10
12.893065
 20
285.947565
 42
-0.023949
  0
VERTEX
  8
0
 10
13.000000
 20
283.716280
 42
0.038325
  0
VERTEX
  8
0
 10
13.155271
 20
281.693562
 42
0.063365
  0
VERTEX
  8
0
 10
13.627646
 20
280.049505
 42
0.061318
  0
VERTEX
  8
0
 10
14.509916
 20
278.539664
 42
0.033534
  0
VERTEX
  8
0
 10
15.923077
 20
276.923077
 42
0.128422
  0
VERTEX
  8
0
 10
20.444142
 20
274.274391
 42
0.153029
  0
VERTEX
  8
0
 10
25.364054
 20
274.418059
 42
0.142430
  0
VERTEX
  8
0
 10
29.576568
 20
277.399109
 42
0.106730
  0
VERTEX
  8
0
 10
32.109263
 20
282.519642
 42
-0.012157
  0
VERTEX
  8
0
 10
32.776580
 20
284.921603
 42
-0.100602
  0
VERTEX
  8
0
 10
33.312597
 20
285.912573
 42
-0.256238
  0
VERTEX
  8
0
 10
33.966590
 20
286.168306
 42
-0.107744
  0
VERTEX
  8
0
 10
34.885104
 20
285.839681
 42
-0.092914
  0
VERTEX
  8
0
 10
35.648252
 20
285.137883
 42
-0.023478
  0
VERTEX
  8
0
 10
36.597458
 20
283.735467
 42
-0.023134
  0
VERTEX
  8
0
 10
37.548564
 20
282.001913
 42
-0.021530
  0
VERTEX
  8
0
 10
38.360513
 20
280.146423
 42
0.000428
  0
VERTEX
  8
0
 10
39.114539
 20
278.204050
 42
0.000395
  0
VERTEX
  8
0
 10
39.892335
 20
276.210174
 42
0.000394
  0
VERTEX
  8
0
 10
40.588092
 20
274.434876
 42
0.001314
  0
VERTEX
  8
0
 10
41.048744
 20
273.271190
 42
0.127957
  0
VERTEX
  8
0
 10
42.796337
 20
270.894789
 42
0.031443
  0
VERTEX
  8
0
 10
46.778385
 20
268.056108
 42
0.032273
  0
VERTEX
  8
0
 10
51.138401
 20
265.719755
 42
0.105552
  0
VERTEX
  8
0
 10
54.315741
 20
265.019000
 42
0.032452
  0
VERTEX
  8
0
 10
55.541008
 20
265.090310
 42
0.023178
  0
VERTEX
  8
0
 10
56.895437
 20
265.321917
 42
0.023521
  0
VERTEX
  8
0
 10
58.171089
 20
265.665016
 42
0.045437
  0
VERTEX
  8
0
 10
59.143663
 20
266.076886
 42
-0.270755
  0
VERTEX
  8
0
 10
60.209655
 20
266.036963
 42
-0.232090
  0
VERTEX
  8
0
 10
60.802845
 20
265.066020
 42
-0.033346
  0
VERTEX
  8
0
 10
60.880226
 20
262.050360
 42
-0.001638
  0
VERTEX
  8
0
 10
60.438752
 20
252.088792
 42
0.005787
  0
VERTEX
  8
0
 10
60.171212
 20
244.658190
 42
0.013016
  0
VERTEX
  8
0
 10
60.180321
 20
239.018764
 42
0.016929
  0
VERTEX
  8
0
 10
60.456618
 20
234.531769
 42
0.027604
  0
VERTEX
  8
0
 10
61.028491
 20
230.761906
 42
0.019768
  0
VERTEX
  8
0
 10
62.459304
 20
225.045827
 42
0.031059
  0
VERTEX
  8
0
 10
64.180096
 20
220.285990
 42
0.036269
  0
VERTEX
  8
0
 10
66.051681
 20
216.704201
 42
0.115139
  0
VERTEX
  8
0
 10
67.946512
 20
214.801331
 42
-0.073196
  0
VERTEX
  8
0
 10
68.822715
 20
214.056732
 42
-0.067869
  0
VERTEX
  8
0
 10
69.473897
 20
213.073051
 42
-0.062653
  0
VERTEX
  8
0
 10
69.875499
 20
211.877545
 42
-0.048475
  0
VERTEX
  8
0
 10
70.015621
 20
210.509453
 42
0.046186
  0
VERTEX
  8
0
 10
70.464791
 20
205.917074
 42
0.025949
  0
VERTEX
  8
0
 10
71.807387
 20
200.470634
 42
0.024865
  0
VERTEX
  8
0
 10
73.825989
 20
194.823385
 42
0.027400
  0
VERTEX
  8
0
 10
76.339762
 20
189.590140
 42
-0.006276
  0
VERTEX
  8
0
 10
77.741922
 20
186.961590
 42
-0.008759
  0
VERTEX
  8
0
 10
78.924805
 20
184.573885
 42
-0.005784
  0
VERTEX
  8
0
 10
79.853238
 20
182.554172
 42
-0.105213
  0
VERTEX
  8
0
 10
80.000000
 20
181.864444
 42
0.189632
  0
VERTEX
  8
0
 10
80.832600
 20
179.748080
 42
0.006472
  0
VERTEX
  8
0
 10
87.111050
 20
173.176228
 42
0.011857
  0
VERTEX
  8
0
 10
93.427981
 20
167.031640
 42
0.054859
  0
VERTEX
  8
0
 10
97.514723
 20
164.000000
 42
-0.004819
  0
VERTEX
  8
0
 10
99.433150
 20
162.854525
 42
-0.002970
  0
VERTEX
  8
0
 10
101.669274
 20
161.471652
 42
-0.002978
  0
VERTEX
  8
0
 10
103.863847
 20
160.078114
 42
-0.005333
  0
VERTEX
  8
0
 10
105.647441
 20
158.903497
 42
0.051299
  0
VERTEX
  8
0
 10
109.394600
 20
156.902244
 42
0.034860
  0
VERTEX
  8
0
 10
113.990611
 20
155.387680
 42
0.027584
  0
VERTEX
  8
0
 10
119.781878
 20
154.252964
 42
0.013545
  0
VERTEX
  8
0
 10
127.250000
 20
153.418755
 42
-0.007746
  0
VERTEX
  8
0
 10
131.348369
 20
153.009015
 42
-0.044074
  0
VERTEX
  8
0
 10
133.492035
 20
152.567263
 42
-0.104155
  0
VERTEX
  8
0
 10
134.599089
 20
151.964086
 42
-0.219516
  0
VERTEX
  8
0
 10
135.000000
 20
151.094920
 42
0.186723
  0
VERTEX
  8
0
 10
135.839308
 20
148.925815
 42
0.018106
  0
VERTEX
  8
0
 10
139.854295
 20
144.823152
 42
0.023902
  0
VERTEX
  8
0
 10
144.417955
 20
140.883095
 42
0.051210
  0
VERTEX
  8
0
 10
148.350266
 20
138.406371
 42
-0.006338
  0
VERTEX
  8
0
 10
154.563012
 20
135.231585
 42
-0.058154
  0
VERTEX
  8
0
 10
157.058010
 20
133.520003
 42
-0.098806
  0
VERTEX
  8
0
 10
158.530322
 20
131.608686
 42
-0.033257
  0
VERTEX
  8
0
 10
159.884106
 20
128.342343
 42
-0.026364
  0
VERTEX
  8
0
 10
160.514782
 20
126.095976
 42
-0.019925
  0
VERTEX
  8
0
 10
160.976456
 20
123.575302
 42
-0.020309
  0
VERTEX
  8
0
 10
161.222499
 20
121.139994
 42
-0.038808
  0
VERTEX
  8
0
 10
161.188114
 20
119.175367
 42
0.036815
  0
VERTEX
  8
0
 10
161.138135
 20
116.849078
 42
0.061427
  0
VERTEX
  8
0
 10
161.478331
 20
114.922915
 42
0.052219
  0
VERTEX
  8
0
 10
162.324412
 20
112.932078
 42
0.019707
  0
VERTEX
  8
0
 10
163.896324
 20
110.342807
 42
-0.008955
  0
VERTEX
  8
0
 10
165.085098
 20
108.476320
 42
-0.012091
  0
VERTEX
  8
0
 10
166.088295
 20
106.744436
 42
-0.009185
  0
VERTEX
  8
0
 10
166.857565
 20
105.275694
 42
-0.116550
  0
VERTEX
  8
0
 10
167.000000
 20
104.672946
 42
0.112535
  0
VERTEX
  8
0
 10
167.126512
 20
104.117963
 42
0.015809
  0
VERTEX
  8
0
 10
167.672488
 20
103.068903
 42
0.017385
  0
VERTEX
  8
0
 10
168.412739
 20
101.851295
 42
0.013987
  0
VERTEX
  8
0
 10
169.289320
 20
100.594391
 42
-0.022136
  0
VERTEX
  8
0
 10
170.303115
 20
99.089050
 42
-0.010800
  0
VERTEX
  8
0
 10
171.467582
 20
97.087102
 42
-0.010690
  0
VERTEX
  8
0
 10
172.591190
 20
94.948999
 42
-0.015210
  0
VERTEX
  8
0
 10
173.489891
 20
93.000000
 42
0.018237
  0
VERTEX
  8
0
 10
174.416421
 20
91.022220
 42
0.011684
  0
VERTEX
  8
0
 10
175.627899
 20
88.793750
 42
0.011742
  0
VERTEX
  8
0
 10
176.918549
 20
86.663842
 42
0.021448
  0
VERTEX
  8
0
 10
178.084331
 20
85.000000
 42
-0.033217
  0
VERTEX
  8
0
 10
179.964857
 20
82.177041
 42
-0.014802
  0
VERTEX
  8
0
 10
182.075247
 20
78.236015
 42
-0.006201
  0
VERTEX
  8
0
 10
184.017078
 20
74.212349
 42
-0.439589
  0
VERTEX
  8
0
 10
183.763127
 20
73.596460
 42
0.034445
  0
VERTEX
  8
0
 10
183.582980
 20
73.515959
 42
0.001252
  0
VERTEX
  8
0
 10
182.920342
 20
73.161148
 42
0.002288
  0
VERTEX
  8
0
 10
182.139519
 20
72.735914
 42
0.001602
  0
VERTEX
  8
0
 10
181.263569
 20
72.250000
 42
-0.022809
  0
VERTEX
  8
0
 10
180.307620
 20
71.771533
 42
-0.020958
  0
VERTEX
  8
0
 10
179.285006
 20
71.367188
 42
-0.021479
  0
VERTEX
  8
0
 10
178.342726
 20
71.084277
 42
-0.062262
  0
VERTEX
  8
0
 10
177.668556
 20
71.000000
 42
0.154853
  0
VERTEX
  8
0
 10
176.263472
 20
70.554146
 42
0.055595
  0
VERTEX
  8
0
 10
174.674313
 20
69.144505
 42
0.055354
  0
VERTEX
  8
0
 10
173.408732
 20
67.384884
 42
0.128938
  0
VERTEX
  8
0
 10
173.000000
 20
65.826247
 42
-0.097370
  0
VERTEX
  8
0
 10
172.860633
 20
65.117372
 42
-0.038294
  0
VERTEX
  8
0
 10
172.412500
 20
64.223700
 42
-0.036075
  0
VERTEX
  8
0
 10
171.765310
 20
63.304538
 42
-0.037426
  0
VERTEX
  8
0
 10
171.000000
 20
62.500000
 42
0.093229
  0
VERTEX
  8
0
 10
169.602152
 20
60.658590
 42
0.110841
  0
VERTEX
  8
0
 10
169.078994
 20
58.544679
 42
0.113527
  0
VERTEX
  8
0
 10
169.513145
 20
56.448831
 42
0.101569
  0
VERTEX
  8
0
 10
170.828741
 20
54.654988
 42
0.099201
  0
VERTEX
  8
0
 10
172.191079
 20
53.842415
 42
0.047471
  0
VERTEX
  8
0
 10
174.176144
 20
53.345721
 42
0.029421
  0
VERTEX
  8
0
 10
177.119161
 20
53.075726
 42
0.008165
  0
VERTEX
  8
0
 10
181.756161
 20
53.000000
 42
0.005945
  0
VERTEX
  8
0
 10
187.287109
 20
53.065768
 42
0.049133
  0
VERTEX
  8
0
 10
189.779744
 20
53.371305
 42
0.102702
  0
VERTEX
  8
0
 10
191.362842
 20
54.087483
 42
0.068797
  0
VERTEX
  8
0
 10
192.798598
 20
55.471088
 42
-0.012884
  0
VERTEX
  8
0
 10
194.089848
 20
57.028347
 42
-0.180318
  0
VERTEX
  8
0
 10
194.719329
 20
57.368927
 42
-0.226126
  0
VERTEX
  8
0
 10
195.344976
 20
57.171526
 42
-0.021211
  0
VERTEX
  8
0
 10
196.508466
 20
55.990645
 42
0.064139
  0
VERTEX
  8
0
 10
197.440908
 20
55.193826
 42
0.030842
  0
VERTEX
  8
0
 10
198.810300
 20
54.414548
 42
0.029962
  0
VERTEX
  8
0
 10
200.360483
 20
53.766812
 42
0.037629
  0
VERTEX
  8
0
 10
201.864428
 20
53.365655
 42
-0.046049
  0
VERTEX
  8
0
 10
203.374176
 20
52.935640
 42
-0.034409
  0
VERTEX
  8
0
 10
204.941859
 20
52.200858
 42
-0.035173
  0
VERTEX
  8
0
 10
206.333765
 20
51.294070
 42
-0.064226
  0
VERTEX
  8
0
 10
207.299720
 20
50.346097
 42
0.052831
  0
VERTEX
  8
0
 10
208.173787
 20
49.448434
 42
0.043849
  0
VERTEX
  8
0
 10
209.270589
 20
48.689166
 42
0.045692
  0
VERTEX
  8
0
 10
210.413071
 20
48.169966
 42
0.084003
  0
VERTEX
  8
0
 10
211.417593
 20
48.000000
 42
0.158099
  0
VERTEX
  8
0
 10
214.320856
 20
48.941539
 42
0.130165
  0
VERTEX
  8
0
 10
216.390396
 20
51.476201
 42
0.140035
  0
VERTEX
  8
0
 10
216.848428
 20
54.557179
 42
0.189054
  0
VERTEX
  8
0
 10
215.500000
 20
57.000000
 42
-0.075363
  0
VERTEX
  8
0
 10
214.925408
 20
57.645132
 42
-0.044520
  0
VERTEX
  8
0
 10
214.440625
 20
58.557944
 42
-0.043405
  0
VERTEX
  8
0
 10
214.110624
 20
59.579448
 42
-0.056489
  0
VERTEX
  8
0
 10
214.000000
 20
60.555495
 42
0.179497
  0
VERTEX
  8
0
 10
213.107157
 20
62.962436
 42
0.034964
  0
VERTEX
  8
0
 10
209.795404
 20
66.307992
 42
0.036068
  0
VERTEX
  8
0
 10
206.002260
 20
69.182425
 42
0.145098
  0
VERTEX
  8
0
 10
203.244246
 20
70.000000
 42
-0.203974
  0
VERTEX
  8
0
 10
201.425327
 20
70.774237
 42
-0.022071
  0
VERTEX
  8
0
 10
198.341786
 20
74.277192
 42
-0.025448
  0
VERTEX
  8
0
 10
195.059735
 20
78.809129
 42
-0.022318
  0
VERTEX
  8
0
 10
192.097764
 20
83.849690
 42
0.019348
  0
VERTEX
  8
0
 10
191.389008
 20
85.072386
 42
0.009477
  0
VERTEX
  8
0
 10
190.397608
 20
86.575794
 42
0.009387
  0
VERTEX
  8
0
 10
189.306795
 20
88.101458
 42
0.013451
  0
VERTEX
  8
0
 10
188.279095
 20
89.408334
 42
-0.032680
  0
VERTEX
  8
0
 10
187.252721
 20
90.822131
 42
-0.053944
  0
VERTEX
  8
0
 10
186.604956
 20
92.146753
 42
-0.064643
  0
VERTEX
  8
0
 10
186.330533
 20
93.385952
 42
-0.083879
  0
VERTEX
  8
0
 10
186.421665
 20
94.543911
 42
0.060995
  0
VERTEX
  8
0
 10
186.545393
 20
95.536063
 42
0.066314
  0
VERTEX
  8
0
 10
186.419193
 20
96.499813
 42
0.070224
  0
VERTEX
  8
0
 10
186.057158
 20
97.349327
 42
0.083946
  0
VERTEX
  8
0
 10
185.490334
 20
98.008022
 42
-0.044509
  0
VERTEX
  8
0
 10
184.920099
 20
98.574038
 42
-0.040313
  0
VERTEX
  8
0
 10
184.437786
 20
99.250248
 42
-0.042660
  0
VERTEX
  8
0
 10
184.106156
 20
99.930306
 42
-0.092374
  0
VERTEX
  8
0
 10
184.000000
 20
100.500000
 42
0.094152
  0
VERTEX
  8
0
 10
183.891351
 20
101.071870
 42
0.042343
  0
VERTEX
  8
0
 10
183.550603
 20
101.759388
 42
0.039927
  0
VERTEX
  8
0
 10
183.055498
 20
102.446217
 42
0.043446
  0
VERTEX
  8
0
 10
182.470137
 20
103.024784
 42
-0.118187
  0
VERTEX
  8
0
 10
181.755501
 20
103.979045
 42
-0.063846
  0
VERTEX
  8
0
 10
181.347579
 20
105.397694
 42
-0.039938
  0
VERTEX
  8
0
 10
181.195410
 20
107.488971
 42
-0.012112
  0
VERTEX
  8
0
 10
181.295385
 20
110.669815
 42
0.012963
  0
VERTEX
  8
0
 10
181.383676
 20
113.639888
 42
0.033225
  0
VERTEX
  8
0
 10
181.249138
 20
115.785106
 42
0.046836
  0
VERTEX
  8
0
 10
180.909275
 20
117.286155
 42
0.141382
  0
VERTEX
  8
0
 10
180.325248
 20
118.145031
 42
-0.138933
  0
VERTEX
  8
0
 10
179.437574
 20
119.437061
 42
-0.064944
  0
VERTEX
  8
0
 10
179.038452
 20
121.445482
 42
-0.067058
  0
VERTEX
  8
0
 10
179.169585
 20
123.386576
 42
-0.206839
  0
VERTEX
  8
0
 10
179.906120
 20
124.441979
 42
0.156898
  0
VERTEX
  8
0
 10
180.224647
 20
124.815603
 42
0.055653
  0
VERTEX
  8
0
 10
180.423512
 20
125.498133
 42
0.048504
  0
VERTEX
  8
0
 10
180.487788
 20
126.349057
 42
0.040493
  0
VERTEX
  8
0
 10
180.395032
 20
127.250996
 42
-0.012422
  0
VERTEX
  8
0
 10
180.266286
 20
128.056041
 42
-0.077480
  0
VERTEX
  8
0
 10
180.274990
 20
128.472168
 42
-0.603945
  0
VERTEX
  8
0
 10
180.388464
 20
128.508342
 42
-0.087442
  0
VERTEX
  8
0
 10
180.572245
 20
128.250000
 42
0.195029
  0
VERTEX
  8
0
 10
181.591796
 20
127.315898
 42
0.106220
  0
VERTEX
  8
0
 10
183.298382
 20
127.067008
 42
0.076911
  0
VERTEX
  8
0
 10
185.468388
 20
127.553055
 42
0.048589
  0
VERTEX
  8
0
 10
187.785183
 20
128.732738
 42
-0.001790
  0
VERTEX
  8
0
 10
189.598746
 20
129.881130
 42
-0.147773
  0
VERTEX
  8
0
 10
189.914596
 20
129.967691
 42
-0.610966
  0
VERTEX
  8
0
 10
189.979183
 20
129.833292
 42
-0.005355
  0
VERTEX
  8
0
 10
189.099264
 20
128.698649
 42
0.047036
  0
VERTEX
  8
0
 10
188.436059
 20
127.678234
 42
0.113716
  0
VERTEX
  8
0
 10
188.209746
 20
126.813132
 42
0.099591
  0
VERTEX
  8
0
 10
188.371743
 20
125.864381
 42
0.030948
  0
VERTEX
  8
0
 10
188.977010
 20
124.542958
 42
-0.052970
  0
VERTEX
  8
0
 10
189.421386
 20
123.448081
 42
-0.036121
  0
VERTEX
  8
0
 10
189.698376
 20
122.132427
 42
-0.036396
  0
VERTEX
  8
0
 10
189.781266
 20
120.808591
 42
-0.058987
  0
VERTEX
  8
0
 10
189.637412
 20
119.691469
 42
0.049359
  0
VERTEX
  8
0
 10
189.469766
 20
118.561321
 42
0.069556
  0
VERTEX
  8
0
 10
189.561454
 20
117.548255
 42
0.077889
  0
VERTEX
  8
0
 10
189.910080
 20
116.686962
 42
0.084701
  0
VERTEX
  8
0
 10
190.498048
 20
116.001620
 42
-0.106663
  0
VERTEX
  8
0
 10
191.096558
 20
115.239221
 42
-0.049729
  0
VERTEX
  8
0
 10
191.533900
 20
114.054557
 42
-0.042561
  0
VERTEX
  8
0
 10
191.787142
 20
112.572180
 42
-0.030833
  0
VERTEX
  8
0
 10
191.824820
 20
110.896672
 42
0.033901
  0
VERTEX
  8
0
 10
191.875870
 20
109.112914
 42
0.044233
  0
VERTEX
  8
0
 10
192.175734
 20
107.508747
 42
0.049242
  0
VERTEX
  8
0
 10
192.711343
 20
106.134380
 42
0.066486
  0
VERTEX
  8
0
 10
193.466865
 20
105.036613
 42
-0.054894
  0
VERTEX
  8
0
 10
194.242074
 20
103.964154
 42
-0.069092
  0
VERTEX
  8
0
 10
194.694167
 20
102.826461
 42
-0.065695
  0
VERTEX
  8
0
 10
194.832523
 20
101.563054
 42
-0.043845
  0
VERTEX
  8
0
 10
194.672872
 20
100.114358
 42
0.037817
  0
VERTEX
  8
0
 10
194.506502
 20
98.755168
 42
0.063276
  0
VERTEX
  8
0
 10
194.598606
 20
97.608976
 42
0.076216
  0
VERTEX
  8
0
 10
194.947019
 20
96.679691
 42
0.092066
  0
VERTEX
  8
0
 10
195.542444
 20
95.964775
 42
-0.052882
  0
VERTEX
  8
0
 10
196.100182
 20
95.392354
 42
-0.042700
  0
VERTEX
  8
0
 10
196.571843
 20
94.674632
 42
-0.044244
  0
VERTEX
  8
0
 10
196.894379
 20
93.927671
 42
-0.079965
  0
VERTEX
  8
0
 10
197.000000
 20
93.271475
 42
0.116969
  0
VERTEX
  8
0
 10
197.166507
 20
92.569456
 42
0.039062
  0
VERTEX
  8
0
 10
197.716293
 20
91.660222
 42
0.036376
  0
VERTEX
  8
0
 10
198.505317
 20
90.713224
 42
0.034241
  0
VERTEX
  8
0
 10
199.438443
 20
89.869760
 42
-0.056053
  0
VERTEX
  8
0
 10
200.460065
 20
88.862126
 42
-0.047373
  0
VERTEX
  8
0
 10
201.299408
 20
87.596606
 42
-0.046864
  0
VERTEX
  8
0
 10
201.893649
 20
86.180419
 42
-0.051884
  0
VERTEX
  8
0
 10
202.188443
 20
84.725840
 42
0.050331
  0
VERTEX
  8
0
 10
202.522909
 20
83.048833
 42
0.085534
  0
VERTEX
  8
0
 10
203.166550
 20
81.775717
 42
0.075942
  0
VERTEX
  8
0
 10
204.259036
 20
80.693962
 42
0.032510
  0
VERTEX
  8
0
 10
206.000000
 20
79.593050
 42
-0.064056
  0
VERTEX
  8
0
 10
210.206756
 20
76.546335
 42
-0.035754
  0
VERTEX
  8
0
 10
214.498664
 20
71.888834
 42
-0.035677
  0
VERTEX
  8
0
 10
217.949344
 20
66.864091
 42
-0.093239
  0
VERTEX
  8
0
 10
219.422738
 20
62.757804
 42
0.027017
  0
VERTEX
  8
0
 10
219.798393
 20
61.017421
 42
0.024390
  0
VERTEX
  8
0
 10
220.369853
 20
59.265895
 42
0.025167
  0
VERTEX
  8
0
 10
221.038011
 20
57.747189
 42
0.067797
  0
VERTEX
  8
0
 10
221.702604
 20
56.776125
 42
0.098319
  0
VERTEX
  8
0
 10
223.215939
 20
55.651203
 42
0.078103
  0
VERTEX
  8
0
 10
225.172732
 20
55.072959
 42
0.082526
  0
VERTEX
  8
0
 10
227.105496
 20
55.137226
 42
0.136861
  0
VERTEX
  8
0
 10
228.550000
 20
55.870892
 42
-0.065753
  0
VERTEX
  8
0
 10
229.087121
 20
56.246826
 42
-0.020726
  0
VERTEX
  8
0
 10
229.976480
 20
56.663237
 42
-0.020302
  0
VERTEX
  8
0
 10
231.017687
 20
57.050228
 42
-0.021200
  0
VERTEX
  8
0
 10
232.072058
 20
57.345283
 42
-0.080707
  0
VERTEX
  8
0
 10
233.560071
 20
57.448723
 42
-0.097742
  0
VERTEX
  8
0
 10
234.899952
 20
57.053950
 42
-0.062743
  0
VERTEX
  8
0
 10
236.400776
 20
56.012323
 42
-0.016318
  0
VERTEX
  8
0
 10
238.525006
 20
53.974391
 42
0.040228
  0
VERTEX
  8
0
 10
241.423872
 20
51.447811
 42
0.095546
  0
VERTEX
  8
0
 10
243.993924
 20
50.219118
 42
0.141957
  0
VERTEX
  8
0
 10
246.187215
 20
50.277441
 42
0.143334
  0
VERTEX
  8
0
 10
248.000000
 20
51.500000
 42
-0.084651
  0
VERTEX
  8
0
 10
248.670166
 20
52.075063
 42
-0.043782
  0
VERTEX
  8
0
 10
249.665735
 20
52.559375
 42
-0.041871
  0
VERTEX
  8
0
 10
250.805949
 20
52.889178
 42
-0.049508
  0
VERTEX
  8
0
 10
251.922445
 20
53.000000
 42
0.036250
  0
VERTEX
  8
0
 10
253.027284
 20
53.080206
 42
0.034060
  0
VERTEX
  8
0
 10
254.132813
 20
53.319345
 42
0.035902
  0
VERTEX
  8
0
 10
255.082910
 20
53.669280
 42
0.090427
  0
VERTEX
  8
0
 10
255.687132
 20
54.087132
 42
-0.047458
  0
VERTEX
  8
0
 10
256.231562
 20
54.536977
 42
-0.150038
  0
VERTEX
  8
0
 10
256.678773
 20
54.674265
 42
-0.181024
  0
VERTEX
  8
0
 10
257.072821
 20
54.526767
 42
-0.075363
  0
VERTEX
  8
0
 10
257.446149
 20
54.087132
 42
0.160702
  0
VERTEX
  8
0
 10
257.946848
 20
53.666645
 42
0.035181
  0
VERTEX
  8
0
 10
259.032804
 20
53.319345
 42
0.033216
  0
VERTEX
  8
0
 10
260.405329
 20
53.079795
 42
0.026603
  0
VERTEX
  8
0
 10
261.904029
 20
53.000000
 42
0.070976
  0
VERTEX
  8
0
 10
264.740134
 20
53.404628
 42
0.098076
  0
VERTEX
  8
0
 10
267.015930
 20
54.586410
 42
0.111109
  0
VERTEX
  8
0
 10
268.478245
 20
56.413315
 42
0.113913
  0
VERTEX
  8
0
 10
269.000000
 20
58.673753
 42
0.124223
  0
VERTEX
  8
0
 10
268.556972
 20
60.429426
 42
0.070118
  0
VERTEX
  8
0
 10
267.247750
 20
62.208682
 42
0.070451
  0
VERTEX
  8
0
 10
265.507285
 20
63.547661
 42
0.129487
  0
VERTEX
  8
0
 10
263.789917
 20
64.000000
 42
-0.120939
  0
VERTEX
  8
0
 10
262.999465
 20
64.194032
 42
-0.027909
  0
VERTEX
  8
0
 10
261.812350
 20
64.901151
 42
-0.027243
  0
VERTEX
  8
0
 10
260.500233
 20
65.893463
 42
-0.023681
  0
VERTEX
  8
0
 10
259.238024
 20
67.067747
 42
0.056372
  0
VERTEX
  8
0
 10
253.703023
 20
71.580940
 42
0.047467
  0
VERTEX
  8
0
 10
246.978786
 20
75.052365
 42
0.046371
  0
VERTEX
  8
0
 10
239.551026
 20
77.261047
 42
0.047985
  0
VERTEX
  8
0
 10
231.929002
 20
78.029313
 42
-0.041462
  0
VERTEX
  8
0
 10
227.191771
 20
78.444578
 42
-0.101344
  0
VERTEX
  8
0
 10
223.945857
 20
79.712184
 42
-0.064209
  0
VERTEX
  8
0
 10
220.639889
 20
82.511206
 42
-0.009665
  0
VERTEX
  8
0
 10
214.897052
 20
89.050075
 42
-0.016351
  0
VERTEX
  8
0
 10
211.114148
 20
93.838239
 42
-0.042981
  0
VERTEX
  8
0
 10
208.828683
 20
97.565608
 42
-0.054681
  0
VERTEX
  8
0
 10
207.534131
 20
101.059085
 42
-0.044616
  0
VERTEX
  8
0
 10
206.912505
 20
105.000000
 42
-0.047731
  0
VERTEX
  8
0
 10
207.020682
 20
108.846512
 42
-0.028317
  0
VERTEX
  8
0
 10
207.843204
 20
113.363442
 42
-0.026350
  0
VERTEX
  8
0
 10
209.061136
 20
117.453312
 42
-0.120105
  0
VERTEX
  8
0
 10
210.413969
 20
119.512859
 42
0.039223
  0
VERTEX
  8
0
 10
210.931719
 20
120.077800
 42
0.012079
  0
VERTEX
  8
0
 10
211.621603
 20
121.005787
 42
0.012003
  0
VERTEX
  8
0
 10
212.346019
 20
122.085116
 42
0.012894
  0
VERTEX
  8
0
 10
213.000000
 20
123.172854
 42
-0.034594
  0
VERTEX
  8
0
 10
215.326494
 20
126.687707
 42
-0.018281
  0
VERTEX
  8
0
 10
218.658735
 20
130.721718
 42
-0.011258
  0
VERTEX
  8
0
 10
222.071158
 20
134.388453
 42
-0.202395
  0
VERTEX
  8
0
 10
223.520044
 20
135.000000
 42
0.052701
  0
VERTEX
  8
0
 10
224.047101
 20
135.055708
 42
0.054251
  0
VERTEX
  8
0
 10
224.545471
 20
135.220313
 42
0.060010
  0
VERTEX
  8
0
 10
224.943277
 20
135.462721
 42
0.121954
  0
VERTEX
  8
0
 10
225.166667
 20
135.750000
 42
-0.102673
  0
VERTEX
  8
0
 10
225.493883
 20
136.205591
 42
-0.004096
  0
VERTEX
  8
0
 10
227.017708
 20
137.583417
 42
-0.007067
  0
VERTEX
  8
0
 10
228.868576
 20
139.183326
 42
-0.004926
  0
VERTEX
  8
0
 10
231.000000
 20
140.938229
 42
0.017470
  0
VERTEX
  8
0
 10
235.825018
 20
145.118317
 42
0.016890
  0
VERTEX
  8
0
 10
240.402989
 20
149.670875
 42
0.017752
  0
VERTEX
  8
0
 10
244.344011
 20
154.174214
 42
0.031591
  0
VERTEX
  8
0
 10
247.206590
 20
158.181873
 42
-0.031941
  0
VERTEX
  8
0
 10
248.755981
 20
160.347842
 42
-0.109055
  0
VERTEX
  8
0
 10
250.107665
 20
161.415951
 42
-0.078865
  0
VERTEX
  8
0
 10
252.014608
 20
161.993502
 42
-0.011846
  0
VERTEX
  8
0
 10
256.000000
 20
162.445739
 42
0.002408
  0
VERTEX
  8
0
 10
268.569301
 20
163.632207
 42
0.006037
  0
VERTEX
  8
0
 10
277.723138
 20
164.652522
 42
0.008028
  0
VERTEX
  8
0
 10
284.525156
 20
165.605066
 42
0.021377
  0
VERTEX
  8
0
 10
289.330767
 20
166.568889
 42
-0.005606
  0
VERTEX
  8
0
 10
291.676556
 20
167.116836
 42
-0.006662
  0
VERTEX
  8
0
 10
293.902986
 20
167.579611
 42
-0.005850
  0
VERTEX
  8
0
 10
295.787883
 20
167.922438
 42
-0.042079
  0
VERTEX
  8
0
 10
296.707882
 20
168.000000
 42
0.106628
  0
VERTEX
  8
0
 10
298.949317
 20
168.483498
 42
0.005322
  0
VERTEX
  8
0
 10
305.804899
 20
171.673805
 42
0.003681
  0
VERTEX
  8
0
 10
312.798218
 20
175.082710
 42
0.181567
  0
VERTEX
  8
0
 10
313.833333
 20
176.192372
 42
-0.108494
  0
VERTEX
  8
0
 10
314.048178
 20
176.501360
 42
-0.064303
  0
VERTEX
  8
0
 10
314.415379
 20
176.762759
 42
-0.059734
  0
VERTEX
  8
0
 10
314.870636
 20
176.939804
 42
-0.062974
  0
VERTEX
  8
0
 10
315.346682
 20
177.000000
 42
0.146122
  0
VERTEX
  8
0
 10
317.530694
 20
177.652189
 42
0.010541
  0
VERTEX
  8
0
 10
322.788242
 20
181.260364
 42
0.015552
  0
VERTEX
  8
0
 10
328.375125
 20
185.539756
 42
0.019547
  0
VERTEX
  8
0
 10
333.260076
 20
189.857445
 42
0.034566
  0
VERTEX
  8
0
 10
337.198372
 20
194.181291
 42
0.035639
  0
VERTEX
  8
0
 10
340.459524
 20
198.964367
 42
0.035009
  0
VERTEX
  8
0
 10
343.056408
 20
204.243271
 42
0.031048
  0
VERTEX
  8
0
 10
345.012595
 20
210.046774
 42
-0.018327
  0
VERTEX
  8
0
 10
345.484158
 20
211.572928
 42
-0.022413
  0
VERTEX
  8
0
 10
346.039688
 20
212.959168
 42
-0.021657
  0
VERTEX
  8
0
 10
346.599433
 20
214.063089
 42
-0.126834
  0
VERTEX
  8
0
 10
347.046191
 20
214.528547
 42
0.105827
  0
VERTEX
  8
0
 10
347.563239
 20
215.024369
 42
0.010373
  0
VERTEX
  8
0
 10
348.507871
 20
216.482871
 42
0.012753
  0
VERTEX
  8
0
 10
349.564486
 20
218.292492
 42
0.009769
  0
VERTEX
  8
0
 10
350.629326
 20
220.320769
 42
-0.010709
  0
VERTEX
  8
0
 10
351.752442
 20
222.450317
 42
-0.010186
  0
VERTEX
  8
0
 10
352.983925
 20
224.566101
 42
-0.010184
  0
VERTEX
  8
0
 10
354.148206
 20
226.391156
 42
-0.035160
  0
VERTEX
  8
0
 10
355.006143
 20
227.500000
 42
0.055330
  0
VERTEX
  8
0
 10
355.951664
 20
228.829334
 42
0.006678
  0
VERTEX
  8
0
 10
357.658933
 20
231.996875
 42
0.007874
  0
VERTEX
  8
0
 10
359.584698
 20
235.833044
 42
0.006406
  0
VERTEX
  8
0
 10
361.529591
 20
240.000000
 42
-0.006156
  0
VERTEX
  8
0
 10
363.471956
 20
244.166968
 42
-0.007579
  0
VERTEX
  8
0
 10
365.390095
 20
248.003125
 42
-0.006402
  0
VERTEX
  8
0
 10
367.087355
 20
251.172765
 42
-0.053720
  0
VERTEX
  8
0
 10
368.018473
 20
252.500000
 42
0.078557
  0
VERTEX
  8
0
 10
368.742487
 20
253.648918
 42
0.026603
  0
VERTEX
  8
0
 10
369.426516
 20
255.509392
 42
0.025284
  0
VERTEX
  8
0
 10
369.986003
 20
257.713626
 42
0.024055
  0
VERTEX
  8
0
 10
370.331359
 20
260.000000
 42
-0.002265
  0
VERTEX
  8
0
 10
370.640870
 20
262.899427
 42
-0.000641
  0
VERTEX
  8
0
 10
371.148832
 20
267.409375
 42
-0.000646
  0
VERTEX
  8
0
 10
371.735749
 20
272.502356
 42
-0.000683
  0
VERTEX
  8
0
 10
372.325150
 20
277.500000
 42
0.024934
  0
VERTEX
  8
0
 10
373.242909
 20
290.798626
 42
0.012697
  0
VERTEX
  8
0
 10
373.136530
 20
307.556791
 42
0.009627
  0
VERTEX
  8
0
 10
372.323710
 20
323.482512
 42
0.086294
  0
VERTEX
  8
0
 10
370.650295
 20
330.250000
 42
-0.005149
  0
VERTEX
  8
0
 10
368.007110
 20
336.427949
 42
-0.026669
  0
VERTEX
  8
0
 10
366.766781
 20
339.927052
 42
-0.042578
  0
VERTEX
  8
0
 10
366.190464
 20
342.738026
 42
-0.029287
  0
VERTEX
  8
0
 10
366.000000
 20
345.986874
 42
-0.020277
  0
VERTEX
  8
0
 10
366.083866
 20
348.053982
 42
-0.017874
  0
VERTEX
  8
0
 10
366.335419
 20
350.197095
 42
-0.018239
  0
VERTEX
  8
0
 10
366.702120
 20
352.113516
 42
-0.050540
  0
VERTEX
  8
0
 10
367.141851
 20
353.411983
 42
0.040998
  0
VERTEX
  8
0
 10
367.641914
 20
354.800960
 42
0.091015
  0
VERTEX
  8
0
 10
367.733826
 20
355.918011
 42
0.086267
  0
VERTEX
  8
0
 10
367.423572
 20
357.032351
 42
0.034111
  0
VERTEX
  8
0
 10
366.641851
 20
358.423853
 42
-0.029329
  0
VERTEX
  8
0
 10
366.013386
 20
359.517939
 42
-0.025296
  0
VERTEX
  8
0
 10
365.482294
 20
360.732645
 42
-0.026096
  0
VERTEX
  8
0
 10
365.113702
 20
361.885649
 42
-0.064397
  0
VERTEX
  8
0
 10
365.000000
 20
362.764817
 42
0.052253
  0
VERTEX
  8
0
 10
364.917765
 20
363.549567
 42
0.038356
  0
VERTEX
  8
0
 10
364.671157
 20
364.389758
 42
0.039076
  0
VERTEX
  8
0
 10
364.309494
 20
365.157414
 42
0.066850
  0
VERTEX
  8
0
 10
363.880534
 20
365.719466
 42
-0.103951
  0
VERTEX
  8
0
 10
363.430864
 20
366.408452
 42
-0.102013
  0
VERTEX
  8
0
 10
363.292591
 20
367.224935
 42
-0.070223
  0
VERTEX
  8
0
 10
363.478329
 20
368.270682
 42
-0.025186
  0
VERTEX
  8
0
 10
364.021689
 20
369.686870
 42
-0.069776
  0
VERTEX
  8
0
 10
365.721615
 20
372.422268
 42
-0.077116
  0
VERTEX
  8
0
 10
368.058952
 20
374.478471
 42
-0.069226
  0
VERTEX
  8
0
 10
371.127068
 20
375.883118
 42
-0.043332
  0
VERTEX
  8
0
 10
375.000676
 20
376.686486
 42
0.014880
  0
VERTEX
  8
0
 10
376.916914
 20
376.971479
 42
0.023713
  0
VERTEX
  8
0
 10
378.531449
 20
377.340696
 42
0.020218
  0
VERTEX
  8
0
 10
379.759953
 20
377.737834
 42
0.314191
  0
VERTEX
  8
0
 10
380.000000
 20
378.082131
 42
0.128380
  0
VERTEX
  8
0
 10
379.618451
 20
379.543653
 42
0.010906
  0
VERTEX
  8
0
 10
377.630510
 20
382.916861
 42
0.013765
  0
VERTEX
  8
0
 10
375.491824
 20
386.167845
 42
0.072706
  0
VERTEX
  8
0
 10
374.034245
 20
387.718197
 42
0.061540
  0
VERTEX
  8
0
 10
373.265120
 20
388.187795
 42
0.031679
  0
VERTEX
  8
0
 10
372.208233
 20
388.587890
 42
0.030928
  0
VERTEX
  8
0
 10
371.052695
 20
388.866651
 42
0.040597
  0
VERTEX
  8
0
 10
369.972506
 20
388.968197
 42
-0.046589
  0
VERTEX
  8
0
 10
368.851580
 20
389.087114
 42
-0.028855
  0
VERTEX
  8
0
 10
367.569786
 20
389.423296
 42
-0.028815
  0
VERTEX
  8
0
 10
366.331418
 20
389.906186
 42
-0.045430
  0
VERTEX
  8
0
 10
365.342279
 20
390.472812
 42
-0.063757
  0
VERTEX
  8
0
 10
364.289403
 20
391.431010
 42
-0.107834
  0
VERTEX
  8
0
 10
363.730166
 20
392.478812
 42
-0.076580
  0
VERTEX
  8
0
 10
363.553541
 20
393.912696
 42
-0.020237
  0
VERTEX
  8
0
 10
363.717296
 20
396.222812
 42
0.120068
  0
VERTEX
  8
0
 10
363.040062
 20
401.494988
 42
0.161125
  0
VERTEX
  8
0
 10
360.008034
 20
405.196870
 42
0.105882
  0
VERTEX
  8
0
 10
354.204575
 20
407.342070
 42
0.035597
  0
VERTEX
  8
0
 10
345.150000
 20
407.994423
 42
0.009972
  0
VERTEX
  8
0
 10
340.587993
 20
407.906896
 42
0.066781
  0
VERTEX
  8
0
 10
338.358505
 20
407.518473
 42
0.092437
  0
VERTEX
  8
0
 10
336.631352
 20
406.596780
 42
0.027718
  0
VERTEX
  8
0
 10
334.400000
 20
404.600000
 42
0.021333
  0
VERTEX
  8
0
 10
333.098414
 20
403.182340
 42
0.025287
  0
VERTEX
  8
0
 10
331.998750
 20
401.734347
 42
0.025360
  0
VERTEX
  8
0
 10
331.208717
 20
400.440677
 42
0.125029
  0
VERTEX
  8
0
 10
331.000000
 20
399.619052
 42
-0.133626
  0
VERTEX
  8
0
 10
330.823456
 20
398.970259
 42
-0.074226
  0
VERTEX
  8
0
 10
330.304545
 20
398.327960
 42
-0.065270
  0
VERTEX
  8
0
 10
329.537765
 20
397.788926
 42
-0.059185
  0
VERTEX
  8
0
 10
328.632495
 20
397.443898
 42
0.070920
  0
VERTEX
  8
0
 10
327.572196
 20
397.011143
 42
0.032456
  0
VERTEX
  8
0
 10
326.331018
 20
396.172896
 42
0.031324
  0
VERTEX
  8
0
 10
325.116614
 20
395.104515
 42
0.037520
  0
VERTEX
  8
0
 10
324.122263
 20
393.951500
 42
0.018124
  0
VERTEX
  8
0
 10
321.520681
 20
390.151993
 42
0.011888
  0
VERTEX
  8
0
 10
318.791398
 20
385.602720
 42
0.007242
  0
VERTEX
  8
0
 10
316.393714
 20
381.235771
 42
0.122516
  0
VERTEX
  8
0
 10
316.000000
 20
379.653097
 42
-0.095071
  0
VERTEX
  8
0
 10
315.841167
 20
378.825306
 42
-0.004852
  0
VERTEX
  8
0
 10
314.799428
 20
376.282668
 42
-0.007598
  0
VERTEX
  8
0
 10
313.478643
 20
373.274671
 42
-0.005424
  0
VERTEX
  8
0
 10
311.912948
 20
369.947103
 42
0.009484
  0
VERTEX
  8
0
 10
310.204269
 20
366.237771
 42
0.007001
  0
VERTEX
  8
0
 10
308.449374
 20
362.071961
 42
0.007080
  0
VERTEX
  8
0
 10
306.901279
 20
358.086966
 42
0.015717
  0
VERTEX
  8
0
 10
305.861322
 20
355.000000
 42
-0.001798
  0
VERTEX
  8
0
 10
305.032034
 20
352.291416
 42
-0.001682
  0
VERTEX
  8
0
 10
304.164913
 20
349.528125
 42
-0.001674
  0
VERTEX
  8
0
 10
303.378711
 20
347.080338
 42
-0.005761
  0
VERTEX
  8
0
 10
302.845075
 20
345.500000
 42
0.013072
  0
VERTEX
  8
0
 10
302.345444
 20
343.945761
 42
0.004219
  0
VERTEX
  8
0
 10
301.685236
 20
341.618750
 42
0.004204
  0
VERTEX
  8
0
 10
300.994257
 20
339.017146
 42
0.004705
  0
VERTEX
  8
0
 10
300.373505
 20
336.500000
 42
-0.007624
  0
VERTEX
  8
0
 10
299.727917
 20
333.946347
 42
-0.006227
  0
VERTEX
  8
0
 10
298.961796
 20
331.234375
 42
-0.006297
  0
VERTEX
  8
0
 10
298.194206
 20
328.756203
 42
-0.016396
  0
VERTEX
  8
0
 10
297.561584
 20
327.000000
 42
0.003090
  0
VERTEX
  8
0
 10
296.987078
 20
325.529101
 42
0.002809
  0
VERTEX
  8
0
 10
296.411978
 20
324.003824
 42
0.002810
  0
VERTEX
  8
0
 10
295.912952
 20
322.633865
 42
0.009058
  0
VERTEX
  8
0
 10
295.602790
 20
321.715146
 42
-0.042784
  0
VERTEX
  8
0
 10
295.189985
 20
320.719361
 42
-0.270621
  0
VERTEX
  8
0
 10
294.744273
 20
320.437612
 42
-0.143816
  0
VERTEX
  8
0
 10
294.075975
 20
320.608641
 42
-0.010957
  0
VERTEX
  8
0
 10
292.479520
 20
321.605376
 42
0.073664
  0
VERTEX
  8
0
 10
288.486548
 20
323.451044
 42
0.026165
  0
VERTEX
  8
0
 10
282.351531
 20
324.910813
 42
0.019469
  0
VERTEX
  8
0
 10
273.890053
 20
326.123478
 42
0.007775
  0
VERTEX
  8
0
 10
262.221886
 20
327.151334
 42
0.004491
  0
VERTEX
  8
0
 10
253.988568
 20
327.673458
 42
0.013425
  0
VERTEX
  8
0
 10
248.347867
 20
327.828621
 42
0.019437
  0
VERTEX
  8
0
 10
244.188685
 20
327.669597
 42
0.037460
  0
VERTEX
  8
0
 10
240.895596
 20
327.165259
 42
-0.034433
  0
VERTEX
  8
0
 10
238.048866
 20
326.711648
 42
-0.007239
  0
VERTEX
  8
0
 10
233.019919
 20
326.335287
 42
-0.007555
  0
VERTEX
  8
0
 10
227.161722
 20
326.070840
 42
-0.007094
  0
VERTEX
  8
0
 10
221.173710
 20
325.976143
 42
0.007650
  0
VERTEX
  8
0
 10
210.121751
 20
325.789069
 42
0.036020
  0
VERTEX
  8
0
 10
203.812714
 20
325.129060
 42
0.057532
  0
VERTEX
  8
0
 10
199.173664
 20
323.738741
 42
0.044756
  0
VERTEX
  8
0
 10
194.537143
 20
321.232399
 42
-0.032639
  0
VERTEX
  8
0
 10
192.203633
 20
319.897036
 42
-0.012233
  0
VERTEX
  8
0
 10
188.775665
 20
318.324694
 42
-0.012059
  0
VERTEX
  8
0
 10
184.947252
 20
316.789055
 42
-0.014330
  0
VERTEX
  8
0
 10
181.261791
 20
315.532072
 42
0.002201
  0
VERTEX
  8
0
 10
171.461605
 20
312.452814
 42
0.007589
  0
VERTEX
  8
0
 10
165.148165
 20
310.332425
 42
0.008674
  0
VERTEX
  8
0
 10
160.886677
 20
308.745193
 42
0.079871
  0
VERTEX
  8
0
 10
159.193767
 20
307.745787
 42
-0.274651
  0
VERTEX
  8
0
 10
158.180931
 20
307.585854
 42
-0.061425
  0
VERTEX
  8
0
 10
156.583178
 20
308.463212
 42
-0.032187
  0
VERTEX
  8
0
 10
154.218487
 20
310.411760
 42
-0.007121
  0
VERTEX
  8
0
 10
150.439703
 20
314.059895
 42
0.000000
  0
VERTEX
  8
0
 10
142.991873
 20
321.458018
 42
0.000000
  0
VERTEX
  8
0
 10
143.625919
 20
326.237693
 42
0.022967
  0
VERTEX
  8
0
 10
143.858863
 20
328.940964
 42
0.064431
  0
VERTEX
  8
0
 10
143.690975
 20
330.829792
 42
0.067166
  0
VERTEX
  8
0
 10
143.053224
 20
332.568989
 42
0.026598
  0
VERTEX
  8
0
 10
141.744278
 20
334.758684
 42
-0.038895
  0
VERTEX
  8
0
 10
140.629873
 20
336.731406
 42
-0.029653
  0
VERTEX
  8
0
 10
139.715881
 20
339.038626
 42
-0.027858
  0
VERTEX
  8
0
 10
139.029287
 20
341.597039
 42
-0.024615
  0
VERTEX
  8
0
 10
138.596889
 20
344.323779
 42
0.027132
  0
VERTEX
  8
0
 10
137.727930
 20
349.630820
 42
0.052300
  0
VERTEX
  8
0
 10
136.370452
 20
353.712766
 42
0.066522
  0
VERTEX
  8
0
 10
134.490915
 20
356.721325
 42
0.090787
  0
VERTEX
  8
0
 10
132.047882
 20
358.772659
 42
-0.051400
  0
VERTEX
  8
0
 10
130.237631
 20
360.065276
 42
-0.141047
  0
VERTEX
  8
0
 10
129.401295
 20
361.376575
 42
-0.066314
  0
VERTEX
  8
0
 10
129.071445
 20
363.486640
 42
-0.005474
  0
VERTEX
  8
0
 10
129.006323
 20
369.058870
 42
0.010248
  0
VERTEX
  8
0
 10
128.921098
 20
373.071757
 42
0.024452
  0
VERTEX
  8
0
 10
128.651397
 20
376.039652
 42
0.032558
  0
VERTEX
  8
0
 10
128.203347
 20
378.198770
 42
0.094746
  0
VERTEX
  8
0
 10
127.531803
 20
379.558870
 42
-0.033437
  0
VERTEX
  8
0
 10
126.967475
 20
380.418882
 42
-0.028078
  0
VERTEX
  8
0
 10
126.485547
 20
381.397191
 42
-0.029013
  0
VERTEX
  8
0
 10
126.146860
 20
382.343885
 42
-0.066491
  0
VERTEX
  8
0
 10
126.031803
 20
383.091140
 42
0.144776
  0
VERTEX
  8
0
 10
125.543600
 20
384.628225
 42
0.005628
  0
VERTEX
  8
0
 10
122.117811
 20
389.568094
 42
0.008573
  0
VERTEX
  8
0
 10
117.506480
 20
395.829960
 42
0.003983
  0
VERTEX
  8
0
 10
111.318404
 20
403.805512
 42
0.115955
  0
VERTEX
  8
0
 10
108.886297
 20
405.740654
 42
0.057657
  0
VERTEX
  8
0
 10
105.133502
 20
407.009442
 42
0.038943
  0
VERTEX
  8
0
 10
99.734692
 20
407.731716
 42
0.014109
  0
VERTEX
  8
0
 10
92.000000
 20
407.940068
 42
0.011393
  0
VERTEX
  8
0
 10
87.290269
 20
407.826680
 42
0.020714
  0
VERTEX
  8
0
 10
83.455870
 20
407.487308
 42
0.024576
  0
VERTEX
  8
0
 10
80.169003
 20
406.893133
 42
0.029344
  0
SEQEND
  0
POLYLINE
  8
0
 66
1
 70
1
  0
VERTEX
  8
0
 10
199.683114
 20
99.812500
 42
-0.054073
  0
VERTEX
  8
0
 10
199.461564
 20
99.395823
 42
-0.470617
  0
VERTEX
  8
0
 10
199.279315
 20
99.378580
 42
-0.168741
  0
VERTEX
  8
0
 10
199.137993
 20
99.670344
 42
-0.018894
  0
VERTEX
  8
0
 10
199.078947
 20
100.416667
 42
-0.028489
  0
VERTEX
  8
0
 10
199.089945
 20
101.112848
 42
-0.077125
  0
VERTEX
  8
0
 10
199.200665
 20
101.592839
 42
-0.208169
  0
VERTEX
  8
0
 10
199.385309
 20
101.775380
 42
-0.296942
  0
VERTEX
  8
0
 10
199.604167
 20
101.729167
 42
-0.126455
  0
VERTEX
  8
0
 10
199.797407
 20
101.402231
 42
-0.060344
  0
VERTEX
  8
0
 10
199.876576
 20
100.916927
 42
-0.054150
  0
VERTEX
  8
0
 10
199.839148
 20
100.359369
 42
-0.051402
  0
SEQEND
  0
POLYLINE
  8
0
 66
1
 70
1
  0
VERTEX
  8
0
 10
285.000000
 20
1.000000
 42
0.027275
  0
VERTEX
  8
0
 10
284.445888
 20
0.597454
 42
0.147021
  0
VERTEX
  8
0
 10
284.239151
 20
0.292684
 42
0.379910
  0
VERTEX
  8
0
 10
284.327599
 20
0.095709
 42
0.102799
  0
VERTEX
  8
0
 10
284.690983
 20
0.015313
 42
0.074131
  0
VERTEX
  8
0
 10
285.192374
 20
0.083483
 42
0.053889
  0
VERTEX
  8
0
 10
285.713662
 20
0.298248
 42
0.054031
  0
VERTEX
  8
0
 10
286.175433
 20
0.618541
 42
0.075854
  0
VERTEX
  8
0
 10
286.500000
 20
1.000000
 42
0.034464
  0
VERTEX
  8
0
 10
286.886554
 20
1.734105
 42
0.541951
  0
VERTEX
  8
0
 10
286.758161
 20
1.931144
 42
0.136158
  0
VERTEX
  8
0
 10
286.281145
 20
1.798791
 42
0.008108
  0
SEQEND
  0
ENDSEC
  0
EOF
