  0
SECTION
  2
HEADER
  9
$ACADVER
  1
AC1006
  9
$EXTMIN
 10
0.000000
 20
0.000000
 30
0.000000
  9
$EXTMAX
 10
58.000000
 20
166.000000
 30
0.000000
  0
ENDSEC
  0
SECTION
  2
ENTITIES
  0
POLYLINE
  8
0
 66
1
 70
1
  0
VERTEX
  8
0
 10
11.185914
 20
163.019716
 42
0.095517
  0
VERTEX
  8
0
 10
6.034530
 20
157.527957
 42
0.126770
  0
VERTEX
  8
0
 10
3.948205
 20
151.032255
 42
0.116500
  0
VERTEX
  8
0
 10
5.193873
 20
143.919423
 42
0.072674
  0
VERTEX
  8
0
 10
9.640694
 20
136.673275
 42
-0.066769
  0
VERTEX
  8
0
 10
11.532629
 20
133.670089
 42
-0.153422
  0
VERTEX
  8
0
 10
11.860477
 20
131.047382
 42
-0.131135
  0
VERTEX
  8
0
 10
10.627320
 20
128.434048
 42
-0.043245
  0
VERTEX
  8
0
 10
7.590493
 20
125.413652
 42
0.043997
  0
VERTEX
  8
0
 10
3.784019
 20
121.616394
 42
0.075102
  0
VERTEX
  8
0
 10
1.446479
 20
117.793049
 42
0.077003
  0
VERTEX
  8
0
 10
0.377327
 20
113.519078
 42
0.048597
  0
VERTEX
  8
0
 10
0.406673
 20
108.366571
 42
-0.001395
  0
VERTEX
  8
0
 10
0.701329
 20
105.430504
 42
-0.000514
  0
VERTEX
  8
0
 10
1.101309
 20
101.285805
 42
-0.000509
  0
VERTEX
  8
0
 10
1.528861
 20
96.758575
 42
-0.000612
  0
VERTEX
  8
0
 10
1.921411
 20
92.500000
 42
0.009871
  0
VERTEX
  8
0
 10
2.385877
 20
88.311411
 42
0.008893
  0
VERTEX
  8
0
 10
3.029177
 20
83.995502
 42
0.008949
  0
VERTEX
  8
0
 10
3.743980
 20
80.147086
 42
0.027680
  0
VERTEX
  8
0
 10
4.415430
 20
77.591069
 42
-0.020392
  0
VERTEX
  8
0
 10
5.022461
 20
75.410064
 42
-0.014283
  0
VERTEX
  8
0
 10
5.534533
 20
72.911059
 42
-0.014439
  0
VERTEX
  8
0
 10
5.887989
 20
70.484979
 42
-0.028957
  0
VERTEX
  8
0
 10
6.000000
 20
68.552511
 42
0.038502
  0
VERTEX
  8
0
 10
6.143872
 20
66.686935
 42
0.022381
  0
VERTEX
  8
0
 10
6.587500
 20
64.483615
 42
0.022281
  0
VERTEX
  8
0
 10
7.233601
 20
62.302563
 42
0.034746
  0
VERTEX
  8
0
 10
8.000000
 20
60.500000
 42
-0.011361
  0
VERTEX
  8
0
 10
8.765739
 20
58.909760
 42
-0.013533
  0
VERTEX
  8
0
 10
9.412500
 20
57.375633
 42
-0.012344
  0
VERTEX
  8
0
 10
9.887816
 20
56.062185
 42
-0.080809
  0
VERTEX
  8
0
 10
10.000000
 20
55.372587
 42
0.165647
  0
VERTEX
  8
0
 10
10.219332
 20
54.728705
 42
0.021079
  0
VERTEX
  8
0
 10
11.175000
 20
53.591272
 42
0.022844
  0
VERTEX
  8
0
 10
12.468135
 20
52.301259
 42
0.017166
  0
VERTEX
  8
0
 10
14.000000
 20
51.000000
 42
-0.065767
  0
VERTEX
  8
0
 10
16.779976
 20
48.130760
 42
-0.130363
  0
VERTEX
  8
0
 10
17.943832
 20
45.208266
 42
-0.099748
  0
VERTEX
  8
0
 10
17.654492
 20
41.558623
 42
-0.028751
  0
VERTEX
  8
0
 10
15.781968
 20
36.187252
 42
0.000000
  0
VERTEX
  8
0
 10
13.563937
 20
30.835852
 42
0.000000
  0
VERTEX
  8
0
 10
15.808455
 20
24.404619
 42
-0.016819
  0
VERTEX
  8
0
 10
16.918117
 20
20.844534
 42
-0.035582
  0
VERTEX
  8
0
 10
17.484639
 20
18.011761
 42
-0.037093
  0
VERTEX
  8
0
 10
17.631125
 20
15.202596
 42
-0.019920
  0
VERTEX
  8
0
 10
17.416348
 20
11.736693
 42
0.010480
  0
VERTEX
  8
0
 10
17.135167
 20
8.262783
 42
0.053827
  0
VERTEX
  8
0
 10
17.227279
 20
6.334991
 42
0.096062
  0
VERTEX
  8
0
 10
17.697477
 20
5.034093
 42
0.082369
  0
VERTEX
  8
0
 10
18.639862
 20
3.921444
 42
0.098999
  0
VERTEX
  8
0
 10
21.381119
 20
2.401248
 42
0.027034
  0
VERTEX
  8
0
 10
26.192063
 20
1.147529
 42
0.026135
  0
VERTEX
  8
0
 10
31.936790
 20
0.287449
 42
0.024093
  0
VERTEX
  8
0
 10
37.898708
 20
-0.000000
 42
0.017923
  0
VERTEX
  8
0
 10
41.675467
 20
0.135428
 42
0.042765
  0
VERTEX
  8
0
 10
44.445256
 20
0.574360
 42
0.043812
  0
VERTEX
  8
0
 10
47.060032
 20
1.470599
 42
0.019655
  0
VERTEX
  8
0
 10
50.322418
 20
3.075109
 42
0.031640
  0
VERTEX
  8
0
 10
54.952419
 20
5.975614
 42
0.260703
  0
VERTEX
  8
0
 10
55.968628
 20
8.146342
 42
0.241101
  0
VERTEX
  8
0
 10
54.677961
 20
10.273435
 42
0.027720
  0
VERTEX
  8
0
 10
49.602633
 20
13.025132
 42
-0.009056
  0
VERTEX
  8
0
 10
47.075877
 20
14.275437
 42
-0.011252
  0
VERTEX
  8
0
 10
44.775015
 20
15.532749
 42
-0.009649
  0
VERTEX
  8
0
 10
42.899239
 20
16.662034
 42
-0.079381
  0
VERTEX
  8
0
 10
42.151725
 20
17.317183
 42
-0.167694
  0
VERTEX
  8
0
 10
41.791313
 20
18.273455
 42
-0.050193
  0
VERTEX
  8
0
 10
41.905235
 20
19.849261
 42
-0.033085
  0
VERTEX
  8
0
 10
42.453401
 20
22.102780
 42
-0.010858
  0
VERTEX
  8
0
 10
43.549091
 20
25.338800
 42
0.010693
  0
VERTEX
  8
0
 10
44.487332
 20
28.106798
 42
0.011580
  0
VERTEX
  8
0
 10
45.280046
 20
30.840241
 42
0.011137
  0
VERTEX
  8
0
 10
45.851786
 20
33.209062
 42
0.053691
  0
VERTEX
  8
0
 10
46.000000
 20
34.585327
 42
-0.054003
  0
VERTEX
  8
0
 10
46.132008
 20
35.803994
 42
-0.020605
  0
VERTEX
  8
0
 10
46.566610
 20
37.457608
 42
-0.020122
  0
VERTEX
  8
0
 10
47.190490
 20
39.230028
 42
-0.023268
  0
VERTEX
  8
0
 10
47.928884
 20
40.860601
 42
0.031543
  0
VERTEX
  8
0
 10
48.795744
 20
42.862304
 42
0.044345
  0
VERTEX
  8
0
 10
49.290144
 20
44.743638
 42
0.044247
  0
VERTEX
  8
0
 10
49.445688
 20
46.685880
 42
0.031213
  0
VERTEX
  8
0
 10
49.290409
 20
48.871507
 42
-0.025386
  0
VERTEX
  8
0
 10
49.091250
 20
51.277976
 42
-0.082382
  0
VERTEX
  8
0
 10
49.302292
 20
52.860431
 42
-0.086807
  0
VERTEX
  8
0
 10
50.005606
 20
54.244473
 42
-0.030171
  0
VERTEX
  8
0
 10
51.458700
 20
55.956892
 42
0.028494
  0
VERTEX
  8
0
 10
52.665359
 20
57.369274
 42
0.060535
  0
VERTEX
  8
0
 10
53.389961
 20
58.608482
 42
0.079924
  0
VERTEX
  8
0
 10
53.676904
 20
59.738437
 42
0.099453
  0
VERTEX
  8
0
 10
53.559159
 20
60.813606
 42
-0.095996
  0
VERTEX
  8
0
 10
53.435804
 20
61.872908
 42
-0.076720
  0
VERTEX
  8
0
 10
53.696774
 20
62.994468
 42
-0.060291
  0
VERTEX
  8
0
 10
54.364127
 20
64.209709
 42
-0.031205
  0
VERTEX
  8
0
 10
55.461984
 20
65.553481
 42
0.052626
  0
VERTEX
  8
0
 10
57.089006
 20
67.728487
 42
0.095427
  0
VERTEX
  8
0
 10
57.841554
 20
69.810622
 42
0.083523
  0
VERTEX
  8
0
 10
57.817265
 20
72.212036
 42
0.032992
  0
VERTEX
  8
0
 10
57.020694
 20
75.429002
 42
0.001026
  0
VERTEX
  8
0
 10
56.439362
 20
77.239161
 42
0.000158
  0
VERTEX
  8
0
 10
55.277056
 20
80.829144
 42
0.000176
  0
VERTEX
  8
0
 10
53.903036
 20
85.063370
 42
0.000153
  0
VERTEX
  8
0
 10
52.460100
 20
89.500000
 42
-0.011238
  0
VERTEX
  8
0
 10
51.015233
 20
94.301961
 42
-0.011756
  0
VERTEX
  8
0
 10
49.810899
 20
99.092638
 42
-0.012356
  0
VERTEX
  8
0
 10
48.951433
 20
103.375049
 42
-0.032115
  0
VERTEX
  8
0
 10
48.608991
 20
106.500000
 42
0.016692
  0
VERTEX
  8
0
 10
48.139416
 20
112.483176
 42
0.034895
  0
VERTEX
  8
0
 10
47.296772
 20
117.075637
 42
0.044030
  0
VERTEX
  8
0
 10
46.004141
 20
120.738817
 42
0.055236
  0
VERTEX
  8
0
 10
44.161195
 20
123.830168
 42
-0.021342
  0
VERTEX
  8
0
 10
42.639195
 20
126.029882
 42
-0.115418
  0
VERTEX
  8
0
 10
42.167904
 20
127.393449
 42
-0.091943
  0
VERTEX
  8
0
 10
42.294596
 20
128.965583
 42
-0.010965
  0
VERTEX
  8
0
 10
43.282942
 20
132.330168
 42
0.022985
  0
VERTEX
  8
0
 10
43.955188
 20
134.840207
 42
0.010370
  0
VERTEX
  8
0
 10
44.615647
 20
138.184487
 42
0.010242
  0
VERTEX
  8
0
 10
45.168280
 20
141.750299
 42
0.013773
  0
VERTEX
  8
0
 10
45.513161
 20
145.000000
 42
0.010394
  0
VERTEX
  8
0
 10
45.778122
 20
149.610880
 42
0.057479
  0
VERTEX
  8
0
 10
45.584243
 20
152.084525
 42
0.072078
  0
VERTEX
  8
0
 10
44.845186
 20
154.194204
 42
0.021694
  0
VERTEX
  8
0
 10
43.138999
 20
157.144996
 42
0.080382
  0
VERTEX
  8
0
 10
39.693167
 20
161.010616
 42
0.071054
  0
VERTEX
  8
0
 10
35.062580
 20
163.789239
 42
0.061127
  0
VERTEX
  8
0
 10
29.204863
 20
165.451420
 42
0.038616
  0
VERTEX
  8
0
 10
22.112526
 20
166.000000
 42
0.014303
  0
VERTEX
  8
0
 10
18.204646
 20
165.888190
 42
0.052315
  0
VERTEX
  8
0
 10
15.762136
 20
165.489651
 42
0.062903
  0
VERTEX
  8
0
 10
13.692472
 20
164.634260
 42
0.027345
  0
SEQEND
  0
ENDSEC
  0
EOF
