  0
SECTION
  2
HEADER
  9
$ACADVER
  1
AC1006
  9
$EXTMIN
 10
0.000000
 20
0.000000
 30
0.000000
  9
$EXTMAX
 10
57.000000
 20
166.000000
 30
0.000000
  0
ENDSEC
  0
SECTION
  2
ENTITIES
  0
POLYLINE
  8
0
 66
1
 70
1
  0
VERTEX
  8
0
 10
12.502229
 20
164.424597
 42
0.050938
  0
VERTEX
  8
0
 10
8.233720
 20
161.613217
 42
0.078182
  0
VERTEX
  8
0
 10
5.285694
 20
158.322618
 42
0.081958
  0
VERTEX
  8
0
 10
3.579626
 20
154.407402
 42
0.061927
  0
VERTEX
  8
0
 10
3.000000
 20
149.745441
 42
0.076472
  0
VERTEX
  8
0
 10
3.552833
 20
146.151957
 42
0.039887
  0
VERTEX
  8
0
 10
5.258829
 20
141.942224
 42
0.039601
  0
VERTEX
  8
0
 10
7.654544
 20
137.980829
 42
0.065103
  0
VERTEX
  8
0
 10
10.329208
 20
135.127555
 42
-0.072360
  0
VERTEX
  8
0
 10
10.969055
 20
134.424909
 42
-0.044906
  0
VERTEX
  8
0
 10
11.509205
 20
133.446507
 42
-0.044134
  0
VERTEX
  8
0
 10
11.876898
 20
132.360543
 42
-0.059636
  0
VERTEX
  8
0
 10
12.000000
 20
131.332101
 42
-0.127007
  0
VERTEX
  8
0
 10
11.476917
 20
129.306052
 42
-0.043350
  0
VERTEX
  8
0
 10
9.769241
 20
126.766418
 42
-0.042209
  0
VERTEX
  8
0
 10
7.711722
 20
124.614520
 42
-0.182860
  0
VERTEX
  8
0
 10
6.087608
 20
124.000000
 42
0.206359
  0
VERTEX
  8
0
 10
5.561275
 20
123.773110
 42
0.019075
  0
VERTEX
  8
0
 10
4.606034
 20
122.680987
 42
0.022098
  0
VERTEX
  8
0
 10
3.533919
 20
121.229865
 42
0.015508
  0
VERTEX
  8
0
 10
2.452842
 20
119.509743
 42
0.023185
  0
VERTEX
  8
0
 10
1.024903
 20
116.791721
 42
0.063089
  0
VERTEX
  8
0
 10
0.360085
 20
114.725940
 42
0.055756
  0
VERTEX
  8
0
 10
0.189041
 20
112.417174
 42
0.015157
  0
VERTEX
  8
0
 10
0.437240
 20
108.759743
 42
-0.003555
  0
VERTEX
  8
0
 10
0.701763
 20
105.859591
 42
-0.001916
  0
VERTEX
  8
0
 10
0.988592
 20
102.282549
 42
-0.001908
  0
VERTEX
  8
0
 10
1.253000
 20
98.635142
 42
-0.003001
  0
VERTEX
  8
0
 10
1.449351
 20
95.500000
 42
0.015652
  0
VERTEX
  8
0
 10
1.720745
 20
92.418601
 42
0.010713
  0
VERTEX
  8
0
 10
2.212909
 20
88.940625
 42
0.010808
  0
VERTEX
  8
0
 10
2.832069
 20
85.606560
 42
0.021421
  0
VERTEX
  8
0
 10
3.492265
 20
83.000000
 42
-0.011234
  0
VERTEX
  8
0
 10
4.181161
 20
80.495586
 42
-0.006781
  0
VERTEX
  8
0
 10
4.890160
 20
77.500000
 42
-0.006791
  0
VERTEX
  8
0
 10
5.514033
 20
74.503401
 42
-0.011820
  0
VERTEX
  8
0
 10
5.938714
 20
72.000000
 42
0.008335
  0
VERTEX
  8
0
 10
7.408917
 20
62.951491
 42
0.038233
  0
VERTEX
  8
0
 10
8.745491
 20
57.806679
 42
0.063175
  0
VERTEX
  8
0
 10
10.480771
 20
54.275728
 42
0.058284
  0
VERTEX
  8
0
 10
13.083354
 20
51.182079
 42
-0.053848
  0
VERTEX
  8
0
 10
15.703519
 20
48.122866
 42
-0.108390
  0
VERTEX
  8
0
 10
16.890019
 20
45.192459
 42
-0.093824
  0
VERTEX
  8
0
 10
16.826985
 20
41.752150
 42
-0.033454
  0
VERTEX
  8
0
 10
15.500000
 20
37.000000
 42
0.034685
  0
VERTEX
  8
0
 10
14.395956
 20
33.008369
 42
0.058437
  0
VERTEX
  8
0
 10
14.105626
 20
29.550267
 42
0.053025
  0
VERTEX
  8
0
 10
14.617132
 20
25.892282
 42
0.023602
  0
VERTEX
  8
0
 10
16.020474
 20
21.225017
 42
-0.014719
  0
VERTEX
  8
0
 10
17.088167
 20
17.890025
 42
-0.050987
  0
VERTEX
  8
0
 10
17.490073
 20
15.662603
 42
-0.058163
  0
VERTEX
  8
0
 10
17.406684
 20
13.556095
 42
-0.023400
  0
VERTEX
  8
0
 10
16.826276
 20
10.729912
 42
0.012638
  0
VERTEX
  8
0
 10
16.202243
 20
7.991671
 42
0.069071
  0
VERTEX
  8
0
 10
16.110084
 20
6.479507
 42
0.113797
  0
VERTEX
  8
0
 10
16.458068
 20
5.369032
 42
0.063864
  0
VERTEX
  8
0
 10
17.326999
 20
4.244429
 42
0.144123
  0
VERTEX
  8
0
 10
22.216887
 20
1.578630
 42
0.034030
  0
VERTEX
  8
0
 10
31.518686
 20
0.222076
 42
0.034465
  0
VERTEX
  8
0
 10
40.965682
 20
0.147616
 42
0.131738
  0
VERTEX
  8
0
 10
46.500000
 20
2.000000
 42
-0.028490
  0
VERTEX
  8
0
 10
47.804781
 20
2.760976
 42
-0.025066
  0
VERTEX
  8
0
 10
49.243719
 20
3.405128
 42
-0.025875
  0
VERTEX
  8
0
 10
50.602480
 20
3.853968
 42
-0.066149
  0
VERTEX
  8
0
 10
51.627555
 20
3.993411
 42
0.188779
  0
VERTEX
  8
0
 10
54.498125
 20
5.127534
 42
0.218762
  0
VERTEX
  8
0
 10
55.608428
 20
7.823827
 42
0.181817
  0
VERTEX
  8
0
 10
54.336905
 20
10.832804
 42
0.150103
  0
VERTEX
  8
0
 10
51.284009
 20
12.553696
 42
-0.020983
  0
VERTEX
  8
0
 10
47.953753
 20
13.429900
 42
-0.033546
  0
VERTEX
  8
0
 10
45.208570
 20
14.482989
 42
-0.039656
  0
VERTEX
  8
0
 10
43.017911
 20
15.715948
 42
-0.060906
  0
VERTEX
  8
0
 10
41.374234
 20
17.138970
 42
-0.046072
  0
VERTEX
  8
0
 10
40.402788
 20
18.434273
 42
-0.140551
  0
VERTEX
  8
0
 10
40.110217
 20
19.482702
 42
-0.081358
  0
VERTEX
  8
0
 10
40.343905
 20
20.848180
 42
-0.009259
  0
VERTEX
  8
0
 10
41.421775
 20
23.797594
 42
0.010350
  0
VERTEX
  8
0
 10
42.208740
 20
25.965652
 42
0.005909
  0
VERTEX
  8
0
 10
43.073745
 20
28.614200
 42
0.005900
  0
VERTEX
  8
0
 10
43.881492
 20
31.300829
 42
0.009734
  0
VERTEX
  8
0
 10
44.492714
 20
33.591172
 42
-0.017531
  0
VERTEX
  8
0
 10
45.101429
 20
35.737245
 42
-0.014537
  0
VERTEX
  8
0
 10
45.894508
 20
37.975597
 42
-0.014786
  0
VERTEX
  8
0
 10
46.742316
 20
39.985579
 42
-0.037846
  0
VERTEX
  8
0
 10
47.505185
 20
41.367569
 42
0.047492
  0
VERTEX
  8
0
 10
48.315918
 20
42.905537
 42
0.059031
  0
VERTEX
  8
0
 10
48.750434
 20
44.461679
 42
0.049772
  0
VERTEX
  8
0
 10
48.850195
 20
46.276841
 42
0.022919
  0
VERTEX
  8
0
 10
48.636305
 20
48.636793
 42
-0.021653
  0
VERTEX
  8
0
 10
48.396105
 20
51.214469
 42
-0.071208
  0
VERTEX
  8
0
 10
48.553649
 20
52.911689
 42
-0.081713
  0
VERTEX
  8
0
 10
49.165602
 20
54.368020
 42
-0.034675
  0
VERTEX
  8
0
 10
50.417269
 20
56.084049
 42
0.035335
  0
VERTEX
  8
0
 10
51.347549
 20
57.362995
 42
0.043777
  0
VERTEX
  8
0
 10
52.015049
 20
58.674690
 42
0.049833
  0
VERTEX
  8
0
 10
52.367010
 20
59.882073
 42
0.110406
  0
VERTEX
  8
0
 10
52.332814
 20
60.835318
 42
-0.112513
  0
VERTEX
  8
0
 10
52.302218
 20
61.800336
 42
-0.056972
  0
VERTEX
  8
0
 10
52.670683
 20
62.965799
 42
-0.048014
  0
VERTEX
  8
0
 10
53.389618
 20
64.233220
 42
-0.033881
  0
VERTEX
  8
0
 10
54.419544
 20
65.507687
 42
0.070365
  0
VERTEX
  8
0
 10
56.029778
 20
67.826806
 42
0.077945
  0
VERTEX
  8
0
 10
56.863816
 20
70.423029
 42
0.074784
  0
VERTEX
  8
0
 10
56.880630
 20
73.239359
 42
0.058197
  0
VERTEX
  8
0
 10
56.093576
 20
76.202947
 42
-0.018554
  0
VERTEX
  8
0
 10
55.617439
 20
77.554370
 42
-0.003131
  0
VERTEX
  8
0
 10
54.819968
 20
80.175241
 42
-0.003420
  0
VERTEX
  8
0
 10
53.922804
 20
83.268731
 42
-0.003035
  0
VERTEX
  8
0
 10
53.030740
 20
86.500000
 42
0.005723
  0
VERTEX
  8
0
 10
52.092136
 20
89.829950
 42
0.005320
  0
VERTEX
  8
0
 10
51.055300
 20
93.219839
 42
0.005311
  0
VERTEX
  8
0
 10
50.069337
 20
96.214249
 42
0.017855
  0
VERTEX
  8
0
 10
49.333990
 20
98.142004
 42
-0.032664
  0
VERTEX
  8
0
 10
48.724484
 20
99.893884
 42
-0.036138
  0
VERTEX
  8
0
 10
48.373043
 20
101.652275
 42
-0.038123
  0
VERTEX
  8
0
 10
48.290129
 20
103.349626
 42
-0.047236
  0
VERTEX
  8
0
 10
48.482260
 20
104.919228
 42
0.074048
  0
VERTEX
  8
0
 10
48.679000
 20
107.792027
 42
0.021176
  0
VERTEX
  8
0
 10
48.135018
 20
112.236245
 42
0.022063
  0
VERTEX
  8
0
 10
47.159980
 20
116.850134
 42
0.039840
  0
VERTEX
  8
0
 10
45.901570
 20
120.500000
 42
0.028433
  0
VERTEX
  8
0
 10
45.422578
 20
121.446460
 42
0.011884
  0
VERTEX
  8
0
 10
44.676083
 20
122.666423
 42
0.011713
  0
VERTEX
  8
0
 10
43.813381
 20
123.937453
 42
0.014889
  0
VERTEX
  8
0
 10
42.955900
 20
125.066546
 42
-0.029686
  0
VERTEX
  8
0
 10
41.766066
 20
126.733415
 42
-0.126562
  0
VERTEX
  8
0
 10
41.397351
 20
127.889255
 42
-0.092749
  0
VERTEX
  8
0
 10
41.573861
 20
129.261156
 42
-0.011975
  0
VERTEX
  8
0
 10
42.556383
 20
132.066546
 42
0.067394
  0
VERTEX
  8
0
 10
43.732331
 20
137.175301
 42
0.024393
  0
VERTEX
  8
0
 10
44.052144
 20
144.628849
 42
0.023231
  0
VERTEX
  8
0
 10
43.669679
 20
151.928372
 42
0.094896
  0
VERTEX
  8
0
 10
42.414314
 20
156.165698
 42
0.071507
  0
VERTEX
  8
0
 10
40.507024
 20
158.837195
 42
0.043933
  0
VERTEX
  8
0
 10
37.595421
 20
161.391874
 42
0.042294
  0
VERTEX
  8
0
 10
34.117323
 20
163.514037
 42
0.049205
  0
VERTEX
  8
0
 10
30.500000
 20
164.896221
 42
0.042422
  0
VERTEX
  8
0
 10
25.876628
 20
165.746412
 42
0.030826
  0
VERTEX
  8
0
 10
20.646495
 20
165.931809
 42
0.031174
  0
VERTEX
  8
0
 10
15.798985
 20
165.501553
 42
0.082632
  0
SEQEND
  0
ENDSEC
  0
EOF
