  0
SECTION
  2
HEADER
  9
$ACADVER
  1
AC1006
  9
$EXTMIN
 10
0.000000
 20
0.000000
 30
0.000000
  9
$EXTMAX
 10
58.000000
 20
166.000000
 30
0.000000
  0
ENDSEC
  0
SECTION
  2
ENTITIES
  0
POLYLINE
  8
0
 66
1
 70
1
  0
VERTEX
  8
0
 10
12.500000
 20
164.411134
 42
0.057362
  0
VERTEX
  8
0
 10
7.528394
 20
160.883409
 42
0.083942
  0
VERTEX
  8
0
 10
4.196658
 20
156.691670
 42
0.093326
  0
VERTEX
  8
0
 10
2.650016
 20
151.992742
 42
0.089332
  0
VERTEX
  8
0
 10
2.882564
 20
146.976474
 42
0.025670
  0
VERTEX
  8
0
 10
3.765758
 20
143.856338
 42
0.045497
  0
VERTEX
  8
0
 10
4.850436
 20
141.415043
 42
0.047252
  0
VERTEX
  8
0
 10
6.327308
 20
139.272311
 42
0.030228
  0
VERTEX
  8
0
 10
8.408178
 20
137.075686
 42
-0.096300
  0
VERTEX
  8
0
 10
10.491316
 20
134.199143
 42
-0.125111
  0
VERTEX
  8
0
 10
11.090381
 20
131.012686
 42
-0.115793
  0
VERTEX
  8
0
 10
10.101359
 20
127.742066
 42
-0.074757
  0
VERTEX
  8
0
 10
7.622184
 20
124.634870
 42
0.028733
  0
VERTEX
  8
0
 10
6.171436
 20
123.124403
 42
0.016694
  0
VERTEX
  8
0
 10
4.600694
 20
121.159600
 42
0.016653
  0
VERTEX
  8
0
 10
3.153233
 20
119.078473
 42
0.026862
  0
VERTEX
  8
0
 10
2.079577
 20
117.206321
 42
0.022515
  0
VERTEX
  8
0
 10
0.898852
 20
114.576245
 42
0.069802
  0
VERTEX
  8
0
 10
0.442099
 20
112.689919
 42
0.061119
  0
VERTEX
  8
0
 10
0.491631
 20
110.617607
 42
0.014472
  0
VERTEX
  8
0
 10
1.094517
 20
107.206321
 42
-0.008408
  0
VERTEX
  8
0
 10
1.596477
 20
104.554187
 42
-0.004515
  0
VERTEX
  8
0
 10
2.131067
 20
101.266857
 42
-0.004494
  0
VERTEX
  8
0
 10
2.615973
 20
97.903652
 42
-0.007024
  0
VERTEX
  8
0
 10
2.966555
 20
95.000000
 42
0.013861
  0
VERTEX
  8
0
 10
3.345926
 20
92.182218
 42
0.010237
  0
VERTEX
  8
0
 10
3.915543
 20
89.087500
 42
0.010363
  0
VERTEX
  8
0
 10
4.574818
 20
86.183258
 42
0.022746
  0
VERTEX
  8
0
 10
5.224975
 20
84.000000
 42
-0.021297
  0
VERTEX
  8
0
 10
5.900711
 20
81.754645
 42
-0.008435
  0
VERTEX
  8
0
 10
6.644458
 20
78.618750
 42
-0.008331
  0
VERTEX
  8
0
 10
7.334878
 20
75.201181
 42
-0.010342
  0
VERTEX
  8
0
 10
7.858037
 20
72.000000
 42
0.019897
  0
VERTEX
  8
0
 10
9.231513
 20
64.499079
 42
0.032434
  0
VERTEX
  8
0
 10
11.054609
 20
58.293335
 42
0.039020
  0
VERTEX
  8
0
 10
13.269782
 20
53.445136
 42
0.078373
  0
VERTEX
  8
0
 10
15.852944
 20
50.137371
 42
-0.069783
  0
VERTEX
  8
0
 10
18.061568
 20
47.406700
 42
-0.125743
  0
VERTEX
  8
0
 10
18.881363
 20
44.665353
 42
-0.097023
  0
VERTEX
  8
0
 10
18.373811
 20
41.374627
 42
-0.030647
  0
VERTEX
  8
0
 10
16.392679
 20
36.788212
 42
0.000000
  0
VERTEX
  8
0
 10
13.785358
 20
31.642912
 42
0.000000
  0
VERTEX
  8
0
 10
15.527768
 20
24.244026
 42
-0.010764
  0
VERTEX
  8
0
 10
16.373666
 20
20.270534
 42
-0.033511
  0
VERTEX
  8
0
 10
16.704507
 20
17.554867
 42
-0.045996
  0
VERTEX
  8
0
 10
16.620619
 20
15.330495
 42
-0.040390
  0
VERTEX
  8
0
 10
16.135089
 20
13.056550
 42
0.045737
  0
VERTEX
  8
0
 10
15.109381
 20
7.988426
 42
0.172334
  0
VERTEX
  8
0
 10
15.846375
 20
4.883348
 42
0.158930
  0
VERTEX
  8
0
 10
18.429587
 20
2.789193
 42
0.037394
  0
VERTEX
  8
0
 10
23.826290
 20
1.171444
 42
0.030995
  0
VERTEX
  8
0
 10
30.202341
 20
0.178299
 42
0.032702
  0
VERTEX
  8
0
 10
36.538230
 20
0.006108
 42
0.034857
  0
VERTEX
  8
0
 10
42.002770
 20
0.598012
 42
0.102197
  0
VERTEX
  8
0
 10
45.500000
 20
2.000000
 42
-0.028490
  0
VERTEX
  8
0
 10
46.804781
 20
2.760976
 42
-0.025066
  0
VERTEX
  8
0
 10
48.243719
 20
3.405128
 42
-0.025875
  0
VERTEX
  8
0
 10
49.602480
 20
3.853968
 42
-0.066149
  0
VERTEX
  8
0
 10
50.627555
 20
3.993411
 42
0.063434
  0
VERTEX
  8
0
 10
51.538563
 20
4.112324
 42
0.044114
  0
VERTEX
  8
0
 10
52.516263
 20
4.463312
 42
0.044336
  0
VERTEX
  8
0
 10
53.410338
 20
4.976951
 42
0.067102
  0
VERTEX
  8
0
 10
54.069567
 20
5.583823
 42
0.155718
  0
VERTEX
  8
0
 10
54.735380
 20
7.232730
 42
0.180737
  0
VERTEX
  8
0
 10
54.265616
 20
8.849332
 42
0.109178
  0
VERTEX
  8
0
 10
52.520304
 20
10.358268
 42
0.040548
  0
VERTEX
  8
0
 10
49.532503
 20
11.672321
 42
-0.025219
  0
VERTEX
  8
0
 10
47.819243
 20
12.364021
 42
-0.014891
  0
VERTEX
  8
0
 10
45.845786
 20
13.351443
 42
-0.014879
  0
VERTEX
  8
0
 10
43.929158
 20
14.457664
 42
-0.024601
  0
VERTEX
  8
0
 10
42.389829
 20
15.516234
 42
-0.017345
  0
VERTEX
  8
0
 10
40.336514
 20
17.198142
 42
-0.141924
  0
VERTEX
  8
0
 10
39.691639
 20
18.209003
 42
-0.140347
  0
VERTEX
  8
0
 10
39.683189
 20
19.413133
 42
-0.016834
  0
VERTEX
  8
0
 10
40.491261
 20
21.975231
 42
0.016076
  0
VERTEX
  8
0
 10
41.110040
 20
23.926836
 42
0.006593
  0
VERTEX
  8
0
 10
41.828950
 20
26.610915
 42
0.006515
  0
VERTEX
  8
0
 10
42.525769
 20
29.515108
 42
0.008297
  0
VERTEX
  8
0
 10
43.088886
 20
32.211791
 42
-0.014448
  0
VERTEX
  8
0
 10
43.680621
 20
34.881013
 42
-0.011776
  0
VERTEX
  8
0
 10
44.463120
 20
37.701750
 42
-0.011950
  0
VERTEX
  8
0
 10
45.307293
 20
40.265813
 42
-0.030252
  0
VERTEX
  8
0
 10
46.075610
 20
42.070763
 42
0.034933
  0
VERTEX
  8
0
 10
46.843121
 20
43.921663
 42
0.040932
  0
VERTEX
  8
0
 10
47.297411
 20
45.766604
 42
0.040457
  0
VERTEX
  8
0
 10
47.448330
 20
47.679187
 42
0.032814
  0
VERTEX
  8
0
 10
47.309045
 20
49.732567
 42
-0.025284
  0
VERTEX
  8
0
 10
47.099447
 20
52.258914
 42
-0.130886
  0
VERTEX
  8
0
 10
47.413498
 20
53.611919
 42
-0.113453
  0
VERTEX
  8
0
 10
48.380120
 20
54.726763
 42
-0.016864
  0
VERTEX
  8
0
 10
50.856354
 20
56.409320
 42
0.014197
  0
VERTEX
  8
0
 10
53.194502
 20
57.979888
 42
0.099035
  0
VERTEX
  8
0
 10
54.131442
 20
58.978612
 42
0.168851
  0
VERTEX
  8
0
 10
54.364101
 20
60.011668
 42
0.062655
  0
VERTEX
  8
0
 10
54.007635
 20
61.479920
 42
-0.053763
  0
VERTEX
  8
0
 10
53.642643
 20
62.874965
 42
-0.109492
  0
VERTEX
  8
0
 10
53.721068
 20
63.999272
 42
-0.088420
  0
VERTEX
  8
0
 10
54.290754
 20
65.137253
 42
-0.026729
  0
VERTEX
  8
0
 10
55.531441
 20
66.628426
 42
0.023631
  0
VERTEX
  8
0
 10
56.476326
 20
67.749876
 42
0.026361
  0
VERTEX
  8
0
 10
57.274861
 20
68.916605
 42
0.027013
  0
VERTEX
  8
0
 10
57.842356
 20
69.971708
 42
0.110309
  0
VERTEX
  8
0
 10
58.000000
 20
70.677568
 42
0.074721
  0
VERTEX
  8
0
 10
57.746757
 20
72.362700
 42
0.006009
  0
VERTEX
  8
0
 10
56.372026
 20
76.649220
 42
0.005974
  0
VERTEX
  8
0
 10
54.245824
 20
82.770422
 42
0.001813
  0
VERTEX
  8
0
 10
50.877963
 20
92.000000
 42
-0.014574
  0
VERTEX
  8
0
 10
49.660428
 20
95.621007
 42
-0.012742
  0
VERTEX
  8
0
 10
48.595756
 20
99.471875
 42
-0.012914
  0
VERTEX
  8
0
 10
47.812298
 20
103.001464
 42
-0.036774
  0
VERTEX
  8
0
 10
47.513346
 20
105.500000
 42
0.022709
  0
VERTEX
  8
0
 10
47.001117
 20
111.114584
 42
0.030775
  0
VERTEX
  8
0
 10
45.999931
 20
116.106886
 42
0.034768
  0
VERTEX
  8
0
 10
44.550190
 20
120.353806
 42
0.055041
  0
VERTEX
  8
0
 10
42.679845
 20
123.709823
 42
0.000000
  0
VERTEX
  8
0
 10
40.123275
 20
127.302981
 42
0.000000
  0
VERTEX
  8
0
 10
41.938069
 20
132.079130
 42
0.031665
  0
VERTEX
  8
0
 10
42.800037
 20
134.867499
 42
0.032848
  0
VERTEX
  8
0
 10
43.290146
 20
137.708513
 42
0.026106
  0
VERTEX
  8
0
 10
43.470001
 20
141.101532
 42
0.010937
  0
VERTEX
  8
0
 10
43.373358
 20
145.677639
 42
0.022490
  0
VERTEX
  8
0
 10
42.793918
 20
152.248032
 42
0.086191
  0
VERTEX
  8
0
 10
41.565747
 20
156.150656
 42
0.099315
  0
VERTEX
  8
0
 10
39.191421
 20
159.118021
 42
0.035411
  0
VERTEX
  8
0
 10
34.776853
 20
162.317804
 42
0.072457
  0
VERTEX
  8
0
 10
29.715590
 20
164.528061
 42
0.043373
  0
VERTEX
  8
0
 10
23.246144
 20
165.707884
 42
0.043809
  0
VERTEX
  8
0
 10
16.942931
 20
165.746534
 42
0.105664
  0
SEQEND
  0
ENDSEC
  0
EOF
