  0
SECTION
  2
HEADER
  9
$ACADVER
  1
AC1006
  9
$EXTMIN
 10
0.000000
 20
0.000000
 30
0.000000
  9
$EXTMAX
 10
58.000000
 20
166.000000
 30
0.000000
  0
ENDSEC
  0
SECTION
  2
ENTITIES
  0
POLYLINE
  8
0
 66
1
 70
1
  0
VERTEX
  8
0
 10
13.500000
 20
164.395207
 42
0.083199
  0
VERTEX
  8
0
 10
6.729065
 20
159.091762
 42
0.134283
  0
VERTEX
  8
0
 10
3.412041
 20
152.615680
 42
0.139042
  0
VERTEX
  8
0
 10
3.909025
 20
145.519749
 42
0.092055
  0
VERTEX
  8
0
 10
8.063082
 20
138.427114
 42
-0.038120
  0
VERTEX
  8
0
 10
11.058840
 20
134.380044
 42
-0.150449
  0
VERTEX
  8
0
 10
11.853425
 20
131.421225
 42
-0.163672
  0
VERTEX
  8
0
 10
10.818095
 20
128.677009
 42
-0.047364
  0
VERTEX
  8
0
 10
7.590493
 20
125.413652
 42
0.044069
  0
VERTEX
  8
0
 10
3.854963
 20
121.686100
 42
0.071707
  0
VERTEX
  8
0
 10
1.497415
 20
117.885491
 42
0.075236
  0
VERTEX
  8
0
 10
0.378301
 20
113.709909
 42
0.053819
  0
VERTEX
  8
0
 10
0.358270
 20
108.866571
 42
0.002232
  0
VERTEX
  8
0
 10
1.585466
 20
97.533396
 42
0.008700
  0
VERTEX
  8
0
 10
2.497572
 20
90.541928
 42
0.013751
  0
VERTEX
  8
0
 10
3.332862
 20
85.807379
 42
0.036412
  0
VERTEX
  8
0
 10
4.265747
 20
82.500000
 42
-0.033270
  0
VERTEX
  8
0
 10
4.873435
 20
80.396173
 42
-0.010453
  0
VERTEX
  8
0
 10
5.504848
 20
77.178574
 42
-0.010391
  0
VERTEX
  8
0
 10
6.061225
 20
73.548593
 42
-0.011328
  0
VERTEX
  8
0
 10
6.448146
 20
70.001528
 42
0.017650
  0
VERTEX
  8
0
 10
7.255474
 20
63.378155
 42
0.049637
  0
VERTEX
  8
0
 10
8.435147
 20
58.867114
 42
0.059567
  0
VERTEX
  8
0
 10
10.338751
 20
55.156139
 42
0.035453
  0
VERTEX
  8
0
 10
13.402830
 20
51.239235
 42
-0.052266
  0
VERTEX
  8
0
 10
15.794579
 20
47.960787
 42
-0.094284
  0
VERTEX
  8
0
 10
16.892975
 20
44.834069
 42
-0.090871
  0
VERTEX
  8
0
 10
16.786357
 20
41.442792
 42
-0.045809
  0
VERTEX
  8
0
 10
15.500000
 20
37.345757
 42
0.048789
  0
VERTEX
  8
0
 10
14.398625
 20
33.763475
 42
0.057681
  0
VERTEX
  8
0
 10
14.095978
 20
30.234156
 42
0.049883
  0
VERTEX
  8
0
 10
14.603215
 20
26.335335
 42
0.025583
  0
VERTEX
  8
0
 10
15.967834
 20
21.593491
 42
-0.015629
  0
VERTEX
  8
0
 10
16.986827
 20
18.300629
 42
-0.048106
  0
VERTEX
  8
0
 10
17.387201
 20
16.005587
 42
-0.053290
  0
VERTEX
  8
0
 10
17.321420
 20
13.806470
 42
-0.022622
  0
VERTEX
  8
0
 10
16.788109
 20
10.902381
 42
0.012506
  0
VERTEX
  8
0
 10
16.229441
 20
8.172238
 42
0.058297
  0
VERTEX
  8
0
 10
16.132670
 20
6.571190
 42
0.099523
  0
VERTEX
  8
0
 10
16.428158
 20
5.435251
 42
0.083322
  0
VERTEX
  8
0
 10
17.152151
 20
4.419278
 42
0.142711
  0
VERTEX
  8
0
 10
21.786389
 20
1.876194
 42
0.029391
  0
VERTEX
  8
0
 10
31.084734
 20
0.379279
 42
0.030096
  0
VERTEX
  8
0
 10
40.546473
 20
-0.005817
 42
0.125609
  0
VERTEX
  8
0
 10
46.000000
 20
1.500000
 42
-0.036359
  0
VERTEX
  8
0
 10
47.148710
 20
2.050121
 42
-0.023936
  0
VERTEX
  8
0
 10
48.537469
 20
2.519732
 42
-0.024099
  0
VERTEX
  8
0
 10
49.940336
 20
2.848247
 42
-0.042114
  0
VERTEX
  8
0
 10
51.127555
 20
2.964565
 42
0.087228
  0
VERTEX
  8
0
 10
53.154322
 20
3.349103
 42
0.100177
  0
VERTEX
  8
0
 10
54.819722
 20
4.396021
 42
0.121484
  0
VERTEX
  8
0
 10
55.735863
 20
5.831256
 42
0.174939
  0
VERTEX
  8
0
 10
55.705955
 20
7.323886
 42
0.136312
  0
VERTEX
  8
0
 10
55.208926
 20
7.995138
 42
0.017467
  0
VERTEX
  8
0
 10
53.743616
 20
9.058034
 42
0.019375
  0
VERTEX
  8
0
 10
51.872044
 20
10.215512
 42
0.015030
  0
VERTEX
  8
0
 10
49.752769
 20
11.332530
 42
-0.014969
  0
VERTEX
  8
0
 10
47.536596
 20
12.500275
 42
-0.014539
  0
VERTEX
  8
0
 10
45.372192
 20
13.809372
 42
-0.014606
  0
VERTEX
  8
0
 10
43.538338
 20
15.070041
 42
-0.050988
  0
VERTEX
  8
0
 10
42.472840
 20
16.030012
 42
-0.059244
  0
VERTEX
  8
0
 10
41.468596
 20
17.445017
 42
-0.135194
  0
VERTEX
  8
0
 10
41.172433
 20
18.709308
 42
-0.062576
  0
VERTEX
  8
0
 10
41.470011
 20
20.511478
 42
-0.005736
  0
VERTEX
  8
0
 10
42.814150
 20
24.855050
 42
0.010815
  0
VERTEX
  8
0
 10
43.653494
 20
27.668247
 42
0.010890
  0
VERTEX
  8
0
 10
44.368316
 20
30.508668
 42
0.010754
  0
VERTEX
  8
0
 10
44.883523
 20
33.008478
 42
0.042437
  0
VERTEX
  8
0
 10
45.035435
 20
34.570947
 42
-0.038736
  0
VERTEX
  8
0
 10
45.152448
 20
35.874420
 42
-0.024137
  0
VERTEX
  8
0
 10
45.480268
 20
37.373966
 42
-0.024168
  0
VERTEX
  8
0
 10
45.949656
 20
38.830178
 42
-0.039813
  0
VERTEX
  8
0
 10
46.500000
 20
40.000000
 42
0.063695
  0
VERTEX
  8
0
 10
47.053120
 20
41.337630
 42
0.021371
  0
VERTEX
  8
0
 10
47.519732
 20
43.403483
 42
0.020869
  0
VERTEX
  8
0
 10
47.845897
 20
45.757624
 42
0.022400
  0
VERTEX
  8
0
 10
47.964565
 20
48.075686
 42
-0.017215
  0
VERTEX
  8
0
 10
48.089240
 20
51.131162
 42
-0.060085
  0
VERTEX
  8
0
 10
48.471392
 20
53.063653
 42
-0.079192
  0
VERTEX
  8
0
 10
49.236271
 20
54.557155
 42
-0.046344
  0
VERTEX
  8
0
 10
50.570580
 20
56.066306
 42
0.036855
  0
VERTEX
  8
0
 10
51.665238
 20
57.258123
 42
0.059077
  0
VERTEX
  8
0
 10
52.387650
 20
58.433142
 42
0.069927
  0
VERTEX
  8
0
 10
52.735638
 20
59.584157
 42
0.085923
  0
VERTEX
  8
0
 10
52.716070
 20
60.704954
 42
-0.089393
  0
VERTEX
  8
0
 10
52.703926
 20
61.853598
 42
-0.076040
  0
VERTEX
  8
0
 10
53.085245
 20
63.006086
 42
-0.060900
  0
VERTEX
  8
0
 10
53.889006
 20
64.198859
 42
-0.032101
  0
VERTEX
  8
0
 10
55.145490
 20
65.472048
 42
0.038864
  0
VERTEX
  8
0
 10
56.311591
 20
66.686028
 42
0.044218
  0
VERTEX
  8
0
 10
57.220747
 20
68.017173
 42
0.048564
  0
VERTEX
  8
0
 10
57.805858
 20
69.349569
 42
0.079350
  0
VERTEX
  8
0
 10
58.000000
 20
70.565197
 42
0.067060
  0
VERTEX
  8
0
 10
57.607767
 20
73.476529
 42
0.004832
  0
VERTEX
  8
0
 10
55.374740
 20
81.315761
 42
0.007435
  0
VERTEX
  8
0
 10
52.766494
 20
89.687126
 42
0.010736
  0
VERTEX
  8
0
 10
50.193023
 20
97.000000
 42
-0.027990
  0
VERTEX
  8
0
 10
49.539279
 20
99.084681
 42
-0.016286
  0
VERTEX
  8
0
 10
48.978825
 20
101.646875
 42
-0.016250
  0
VERTEX
  8
0
 10
48.583344
 20
104.258615
 42
-0.026304
  0
VERTEX
  8
0
 10
48.437019
 20
106.500000
 42
0.027582
  0
VERTEX
  8
0
 10
48.072478
 20
111.872786
 42
0.035195
  0
VERTEX
  8
0
 10
47.119357
 20
116.743141
 42
0.039557
  0
VERTEX
  8
0
 10
45.654823
 20
120.848188
 42
0.069548
  0
VERTEX
  8
0
 10
43.742323
 20
123.894385
 42
-0.021473
  0
VERTEX
  8
0
 10
42.230312
 20
125.856457
 42
-0.120091
  0
VERTEX
  8
0
 10
41.748420
 20
127.082157
 42
-0.105620
  0
VERTEX
  8
0
 10
41.852269
 20
128.465962
 42
-0.014827
  0
VERTEX
  8
0
 10
42.745104
 20
131.205812
 42
0.038364
  0
VERTEX
  8
0
 10
43.364716
 20
133.462340
 42
0.012189
  0
VERTEX
  8
0
 10
43.944509
 20
136.903614
 42
0.012088
  0
VERTEX
  8
0
 10
44.405962
 20
140.784046
 42
0.013175
  0
VERTEX
  8
0
 10
44.663356
 20
144.572448
 42
0.007462
  0
VERTEX
  8
0
 10
44.803948
 20
149.863261
 42
0.040666
  0
VERTEX
  8
0
 10
44.604724
 20
152.719241
 42
0.066306
  0
VERTEX
  8
0
 10
43.989473
 20
154.832166
 42
0.042715
  0
VERTEX
  8
0
 10
42.762265
 20
157.072448
 42
0.083281
  0
VERTEX
  8
0
 10
39.615746
 20
160.431747
 42
0.057671
  0
VERTEX
  8
0
 10
35.132887
 20
163.098826
 42
0.051826
  0
VERTEX
  8
0
 10
29.641448
 20
164.905995
 42
0.042222
  0
VERTEX
  8
0
 10
23.500000
 20
165.708747
 42
0.014003
  0
VERTEX
  8
0
 10
20.059424
 20
165.769227
 42
0.030054
  0
VERTEX
  8
0
 10
17.413293
 20
165.582321
 42
0.038545
  0
VERTEX
  8
0
 10
15.293287
 20
165.135646
 42
0.053483
  0
SEQEND
  0
ENDSEC
  0
EOF
