  0
SECTION
  2
HEADER
  9
$ACADVER
  1
AC1006
  9
$EXTMIN
 10
0.000000
 20
0.000000
 30
0.000000
  9
$EXTMAX
 10
59.000000
 20
166.000000
 30
0.000000
  0
ENDSEC
  0
SECTION
  2
ENTITIES
  0
POLYLINE
  8
0
 66
1
 70
1
  0
VERTEX
  8
0
 10
11.256229
 20
163.070651
 42
0.029640
  0
VERTEX
  8
0
 10
7.550960
 20
160.036314
 42
0.078060
  0
VERTEX
  8
0
 10
5.426948
 20
157.352897
 42
0.086376
  0
VERTEX
  8
0
 10
4.347871
 20
154.316197
 42
0.042301
  0
VERTEX
  8
0
 10
4.000000
 20
150.211752
 42
0.029569
  0
VERTEX
  8
0
 10
4.232909
 20
146.276752
 42
0.064794
  0
VERTEX
  8
0
 10
4.971261
 20
143.356489
 42
0.060962
  0
VERTEX
  8
0
 10
6.464973
 20
140.614629
 42
0.023660
  0
VERTEX
  8
0
 10
9.146650
 20
137.215204
 42
-0.061622
  0
VERTEX
  8
0
 10
11.375216
 20
133.902106
 42
-0.149064
  0
VERTEX
  8
0
 10
11.878200
 20
131.025417
 42
-0.131089
  0
VERTEX
  8
0
 10
10.703351
 20
128.113965
 42
-0.043045
  0
VERTEX
  8
0
 10
7.594152
 20
124.641573
 42
0.029206
  0
VERTEX
  8
0
 10
3.358681
 20
120.166617
 42
0.085339
  0
VERTEX
  8
0
 10
1.220238
 20
116.510586
 42
0.093623
  0
VERTEX
  8
0
 10
0.531267
 20
112.551133
 42
0.039849
  0
VERTEX
  8
0
 10
1.038813
 20
107.171926
 42
-0.005793
  0
VERTEX
  8
0
 10
1.544928
 20
104.077963
 42
-0.003127
  0
VERTEX
  8
0
 10
2.100215
 20
100.256753
 42
-0.003113
  0
VERTEX
  8
0
 10
2.617365
 20
96.356563
 42
-0.004897
  0
VERTEX
  8
0
 10
3.007825
 20
93.000000
 42
0.009391
  0
VERTEX
  8
0
 10
3.393927
 20
89.922178
 42
0.009531
  0
VERTEX
  8
0
 10
3.893733
 20
86.876189
 42
0.009360
  0
VERTEX
  8
0
 10
4.428178
 20
84.245316
 42
0.038133
  0
VERTEX
  8
0
 10
4.902958
 20
82.684900
 42
-0.039543
  0
VERTEX
  8
0
 10
5.326487
 20
81.278729
 42
-0.016300
  0
VERTEX
  8
0
 10
5.684658
 20
79.320547
 42
-0.016007
  0
VERTEX
  8
0
 10
5.934163
 20
77.184903
 42
-0.019819
  0
VERTEX
  8
0
 10
6.023536
 20
75.184900
 42
0.042641
  0
VERTEX
  8
0
 10
6.419120
 20
70.813790
 42
0.012874
  0
VERTEX
  8
0
 10
7.752944
 20
64.275184
 42
0.012226
  0
VERTEX
  8
0
 10
9.395852
 20
57.879196
 42
0.054645
  0
VERTEX
  8
0
 10
10.847873
 20
54.296567
 42
0.041036
  0
VERTEX
  8
0
 10
11.395843
 20
53.453342
 42
0.015796
  0
VERTEX
  8
0
 10
12.285206
 20
52.375514
 42
0.015516
  0
VERTEX
  8
0
 10
13.328268
 20
51.261472
 42
0.018468
  0
VERTEX
  8
0
 10
14.381485
 20
50.279649
 42
-0.066830
  0
VERTEX
  8
0
 10
16.512163
 20
47.869528
 42
-0.112417
  0
VERTEX
  8
0
 10
17.475567
 20
45.360225
 42
-0.096805
  0
VERTEX
  8
0
 10
17.327202
 20
42.414502
 42
-0.040428
  0
VERTEX
  8
0
 10
16.055250
 20
38.628893
 42
0.037503
  0
VERTEX
  8
0
 10
14.598819
 20
34.376679
 42
0.062912
  0
VERTEX
  8
0
 10
14.112354
 20
30.637076
 42
0.058110
  0
VERTEX
  8
0
 10
14.557669
 20
26.691578
 42
0.027383
  0
VERTEX
  8
0
 10
15.992852
 20
21.760662
 42
-0.015678
  0
VERTEX
  8
0
 10
17.036249
 20
18.465221
 42
-0.049822
  0
VERTEX
  8
0
 10
17.439784
 20
16.192419
 42
-0.054389
  0
VERTEX
  8
0
 10
17.368262
 20
13.993372
 42
-0.021421
  0
VERTEX
  8
0
 10
16.813126
 20
11.010761
 42
0.050719
  0
VERTEX
  8
0
 10
16.302484
 20
6.963421
 42
0.171511
  0
VERTEX
  8
0
 10
17.117097
 20
4.468217
 42
0.141530
  0
VERTEX
  8
0
 10
19.447608
 20
2.753519
 42
0.030890
  0
VERTEX
  8
0
 10
24.271197
 20
1.306887
 42
0.051376
  0
VERTEX
  8
0
 10
33.138573
 20
0.175095
 42
0.038299
  0
VERTEX
  8
0
 10
42.993503
 20
0.690728
 42
0.037012
  0
VERTEX
  8
0
 10
51.572236
 20
2.454979
 42
0.184385
  0
VERTEX
  8
0
 10
55.442011
 20
5.345172
 42
0.173188
  0
VERTEX
  8
0
 10
55.774430
 20
6.820228
 42
0.145703
  0
VERTEX
  8
0
 10
55.131572
 20
8.296540
 42
0.103967
  0
VERTEX
  8
0
 10
53.532019
 20
9.547084
 42
0.060981
  0
VERTEX
  8
0
 10
51.227574
 20
10.348149
 42
-0.060120
  0
VERTEX
  8
0
 10
49.910795
 20
10.803353
 42
-0.020997
  0
VERTEX
  8
0
 10
48.143667
 20
11.757109
 42
-0.020501
  0
VERTEX
  8
0
 10
46.268297
 20
12.980172
 42
-0.022519
  0
VERTEX
  8
0
 10
44.559378
 20
14.317255
 42
0.000000
  0
VERTEX
  8
0
 10
40.618757
 20
17.697182
 42
0.000000
  0
VERTEX
  8
0
 10
42.812545
 20
25.098591
 42
0.007962
  0
VERTEX
  8
0
 10
43.654758
 20
28.115556
 42
0.008790
  0
VERTEX
  8
0
 10
44.371388
 20
31.060211
 42
0.008281
  0
VERTEX
  8
0
 10
44.896646
 20
33.591748
 42
0.043807
  0
VERTEX
  8
0
 10
45.038603
 20
35.000000
 42
-0.043819
  0
VERTEX
  8
0
 10
45.153336
 20
36.137921
 42
-0.024077
  0
VERTEX
  8
0
 10
45.481199
 20
37.500000
 42
-0.023829
  0
VERTEX
  8
0
 10
45.950196
 20
38.860320
 42
-0.034929
  0
VERTEX
  8
0
 10
46.500000
 20
40.000000
 42
0.064343
  0
VERTEX
  8
0
 10
47.053229
 20
41.342798
 42
0.021215
  0
VERTEX
  8
0
 10
47.519732
 20
43.430187
 42
0.020731
  0
VERTEX
  8
0
 10
47.845891
 20
45.813734
 42
0.022075
  0
VERTEX
  8
0
 10
47.964565
 20
48.166593
 42
-0.014655
  0
VERTEX
  8
0
 10
48.078230
 20
51.361654
 42
-0.067423
  0
VERTEX
  8
0
 10
48.444621
 20
53.173672
 42
-0.099074
  0
VERTEX
  8
0
 10
49.205746
 20
54.467788
 42
-0.053068
  0
VERTEX
  8
0
 10
50.585782
 20
55.716798
 42
0.050965
  0
VERTEX
  8
0
 10
51.719140
 20
56.733934
 42
0.057461
  0
VERTEX
  8
0
 10
52.572203
 20
57.921922
 42
0.057704
  0
VERTEX
  8
0
 10
53.129883
 20
59.268356
 42
0.052117
  0
VERTEX
  8
0
 10
53.389891
 20
60.753989
 42
-0.057052
  0
VERTEX
  8
0
 10
53.662535
 20
62.226335
 42
-0.044772
  0
VERTEX
  8
0
 10
54.275102
 20
63.731233
 42
-0.043159
  0
VERTEX
  8
0
 10
55.175432
 20
65.159915
 42
-0.043729
  0
VERTEX
  8
0
 10
56.304110
 20
66.406035
 42
0.045172
  0
VERTEX
  8
0
 10
58.119661
 20
68.422139
 42
0.126699
  0
VERTEX
  8
0
 10
58.837780
 20
70.165348
 42
0.100826
  0
VERTEX
  8
0
 10
58.705953
 20
72.280013
 42
0.022746
  0
VERTEX
  8
0
 10
57.605791
 20
75.729764
 42
-0.006274
  0
VERTEX
  8
0
 10
56.894201
 20
77.730891
 42
-0.001760
  0
VERTEX
  8
0
 10
55.832929
 20
80.874513
 42
-0.001775
  0
VERTEX
  8
0
 10
54.657902
 20
84.438011
 42
-0.001868
  0
VERTEX
  8
0
 10
53.528342
 20
87.949429
 42
0.005383
  0
VERTEX
  8
0
 10
52.395142
 20
91.389017
 42
0.005706
  0
VERTEX
  8
0
 10
51.209197
 20
94.736972
 42
0.005460
  0
VERTEX
  8
0
 10
50.123905
 20
97.596245
 42
0.025896
  0
VERTEX
  8
0
 10
49.401333
 20
99.190800
 42
-0.043954
  0
VERTEX
  8
0
 10
48.868505
 20
100.489271
 42
-0.038428
  0
VERTEX
  8
0
 10
48.541321
 20
101.920597
 42
-0.039660
  0
VERTEX
  8
0
 10
48.444577
 20
103.328052
 42
-0.058882
  0
VERTEX
  8
0
 10
48.602490
 20
104.552328
 42
0.091903
  0
VERTEX
  8
0
 10
48.831046
 20
108.197781
 42
0.027086
  0
VERTEX
  8
0
 10
47.852928
 20
113.735165
 42
0.027951
  0
VERTEX
  8
0
 10
46.223574
 20
119.298966
 42
0.062304
  0
VERTEX
  8
0
 10
44.247902
 20
123.234831
 42
-0.020280
  0
VERTEX
  8
0
 10
42.836585
 20
125.541334
 42
-0.088183
  0
VERTEX
  8
0
 10
42.315326
 20
127.050104
 42
-0.088994
  0
VERTEX
  8
0
 10
42.348360
 20
128.639239
 42
-0.020868
  0
VERTEX
  8
0
 10
42.983640
 20
131.234831
 42
0.033150
  0
VERTEX
  8
0
 10
44.300660
 20
137.251726
 42
0.021349
  0
VERTEX
  8
0
 10
45.060027
 20
144.353545
 42
0.019537
  0
VERTEX
  8
0
 10
45.223209
 20
150.942744
 42
0.093108
  0
VERTEX
  8
0
 10
44.478200
 20
154.618178
 42
0.108532
  0
VERTEX
  8
0
 10
41.377633
 20
159.131956
 42
0.070288
  0
VERTEX
  8
0
 10
36.173009
 20
162.787774
 42
0.062932
  0
VERTEX
  8
0
 10
29.524618
 20
165.186809
 42
0.055207
  0
VERTEX
  8
0
 10
22.182157
 20
166.000000
 42
0.013959
  0
VERTEX
  8
0
 10
18.242066
 20
165.889977
 42
0.051575
  0
VERTEX
  8
0
 10
15.787732
 20
165.496690
 42
0.063021
  0
VERTEX
  8
0
 10
13.724640
 20
164.653889
 42
0.028311
  0
SEQEND
  0
ENDSEC
  0
EOF
