  0
SECTION
  2
HEADER
  9
$ACADVER
  1
AC1006
  9
$EXTMIN
 10
0.000000
 20
0.000000
 30
0.000000
  9
$EXTMAX
 10
195.000000
 20
133.000000
 30
0.000000
  0
ENDSEC
  0
SECTION
  2
ENTITIES
  0
POLYLINE
  8
0
 66
1
 70
1
  0
VERTEX
  8
0
 10
77.000000
 20
131.500000
 42
-0.053052
  0
VERTEX
  8
0
 10
75.742274
 20
130.948398
 42
-0.023415
  0
VERTEX
  8
0
 10
73.985938
 20
130.480268
 42
-0.022859
  0
VERTEX
  8
0
 10
72.060467
 20
130.153808
 42
-0.028484
  0
VERTEX
  8
0
 10
70.250000
 20
130.035435
 42
0.029994
  0
VERTEX
  8
0
 10
68.252088
 20
129.898749
 42
0.046117
  0
VERTEX
  8
0
 10
66.561798
 20
129.519974
 42
0.053107
  0
VERTEX
  8
0
 10
65.158760
 20
128.895551
 42
0.065230
  0
VERTEX
  8
0
 10
64.022681
 20
128.022681
 42
0.088099
  0
VERTEX
  8
0
 10
62.723829
 20
126.162940
 42
0.230443
  0
VERTEX
  8
0
 10
62.754087
 20
124.576158
 42
0.178944
  0
VERTEX
  8
0
 10
64.100778
 20
123.335072
 42
0.053865
  0
VERTEX
  8
0
 10
66.819269
 20
122.544978
 42
-0.004719
  0
VERTEX
  8
0
 10
68.356805
 20
122.257790
 42
-0.004336
  0
VERTEX
  8
0
 10
69.932848
 20
121.933768
 42
-0.004334
  0
VERTEX
  8
0
 10
71.333525
 20
121.620395
 42
-0.014237
  0
VERTEX
  8
0
 10
72.250000
 20
121.379295
 42
-0.174435
  0
VERTEX
  8
0
 10
73.399399
 20
120.539294
 42
-0.127121
  0
VERTEX
  8
0
 10
73.933757
 20
119.035409
 42
-0.096354
  0
VERTEX
  8
0
 10
73.731856
 20
117.093462
 42
-0.065728
  0
VERTEX
  8
0
 10
72.810164
 20
115.067632
 42
0.138736
  0
VERTEX
  8
0
 10
72.334143
 20
113.427884
 42
0.129074
  0
VERTEX
  8
0
 10
72.767357
 20
111.730617
 42
0.129030
  0
VERTEX
  8
0
 10
73.978574
 20
110.464593
 42
0.138596
  0
VERTEX
  8
0
 10
75.622445
 20
110.000000
 42
-0.161510
  0
VERTEX
  8
0
 10
76.156579
 20
109.822843
 42
-0.099768
  0
VERTEX
  8
0
 10
76.602669
 20
109.325786
 42
-0.078532
  0
VERTEX
  8
0
 10
76.899954
 20
108.572290
 42
-0.054817
  0
VERTEX
  8
0
 10
77.000000
 20
107.662488
 42
-0.140984
  0
VERTEX
  8
0
 10
76.612397
 20
106.315179
 42
-0.152326
  0
VERTEX
  8
0
 10
75.576741
 20
105.428197
 42
-0.052262
  0
VERTEX
  8
0
 10
73.321596
 20
104.726973
 42
-0.005071
  0
VERTEX
  8
0
 10
67.692465
 20
103.662488
 42
-0.009994
  0
VERTEX
  8
0
 10
63.657393
 20
103.024695
 42
-0.007667
  0
VERTEX
  8
0
 10
59.226544
 20
102.483933
 42
-0.007761
  0
VERTEX
  8
0
 10
55.063991
 20
102.105815
 42
-0.018185
  0
VERTEX
  8
0
 10
51.942465
 20
101.984944
 42
0.027492
  0
VERTEX
  8
0
 10
46.823679
 20
101.691278
 42
0.045404
  0
VERTEX
  8
0
 10
42.584708
 20
100.818641
 42
0.036206
  0
VERTEX
  8
0
 10
37.956334
 20
99.043929
 42
0.011482
  0
VERTEX
  8
0
 10
31.333112
 20
95.750123
 42
0.049358
  0
VERTEX
  8
0
 10
24.515095
 20
91.252963
 42
0.027867
  0
VERTEX
  8
0
 10
17.177273
 20
84.587122
 42
0.027384
  0
VERTEX
  8
0
 10
10.921508
 20
77.495742
 42
0.081914
  0
VERTEX
  8
0
 10
7.804908
 20
71.853430
 42
0.017839
  0
VERTEX
  8
0
 10
5.403407
 20
64.239112
 42
0.018252
  0
VERTEX
  8
0
 10
3.571268
 20
56.530514
 42
0.017554
  0
VERTEX
  8
0
 10
2.250265
 20
48.434449
 42
0.014115
  0
VERTEX
  8
0
 10
1.383405
 20
39.653940
 42
0.022644
  0
VERTEX
  8
0
 10
1.186673
 20
31.753705
 42
0.175794
  0
VERTEX
  8
0
 10
2.494155
 20
28.366813
 42
0.174144
  0
VERTEX
  8
0
 10
5.675915
 20
26.589082
 42
0.022134
  0
VERTEX
  8
0
 10
13.594805
 20
25.630800
 42
-0.010346
  0
VERTEX
  8
0
 10
17.443392
 20
25.256868
 42
-0.007849
  0
VERTEX
  8
0
 10
21.646599
 20
24.693477
 42
-0.007944
  0
VERTEX
  8
0
 10
25.575389
 20
24.039967
 42
-0.018297
  0
VERTEX
  8
0
 10
28.500000
 20
23.394233
 42
0.004282
  0
VERTEX
  8
0
 10
31.035468
 20
22.759416
 42
0.003766
  0
VERTEX
  8
0
 10
33.692188
 20
22.139508
 42
0.003786
  0
VERTEX
  8
0
 10
36.097627
 20
21.616414
 42
0.011374
  0
VERTEX
  8
0
 10
37.750000
 20
21.309222
 42
-0.079170
  0
VERTEX
  8
0
 10
39.785799
 20
20.636670
 42
-0.185032
  0
VERTEX
  8
0
 10
40.835904
 20
19.458019
 42
-0.126819
  0
VERTEX
  8
0
 10
41.047791
 20
17.531952
 42
-0.029845
  0
VERTEX
  8
0
 10
40.391126
 20
14.331879
 42
-0.205781
  0
VERTEX
  8
0
 10
38.576960
 20
12.032385
 42
-0.047280
  0
VERTEX
  8
0
 10
33.925393
 20
10.052290
 42
-0.037470
  0
VERTEX
  8
0
 10
27.255982
 20
8.469179
 42
-0.019520
  0
VERTEX
  8
0
 10
18.764472
 20
7.452883
 42
-0.008464
  0
VERTEX
  8
0
 10
14.289409
 20
7.169881
 42
-0.046584
  0
VERTEX
  8
0
 10
11.876964
 20
7.283039
 42
-0.078452
  0
VERTEX
  8
0
 10
10.136849
 20
7.814759
 42
-0.053395
  0
VERTEX
  8
0
 10
8.379613
 20
8.916036
 42
0.048222
  0
VERTEX
  8
0
 10
6.153990
 20
10.343052
 42
0.098553
  0
VERTEX
  8
0
 10
4.167099
 20
10.908598
 42
0.127043
  0
VERTEX
  8
0
 10
2.450555
 20
10.610585
 42
0.113848
  0
VERTEX
  8
0
 10
1.010777
 20
9.512986
 42
0.146788
  0
VERTEX
  8
0
 10
0.236182
 20
7.687157
 42
0.115872
  0
VERTEX
  8
0
 10
0.496448
 20
5.546371
 42
0.097001
  0
VERTEX
  8
0
 10
1.774033
 20
3.439455
 42
0.074824
  0
VERTEX
  8
0
 10
3.863127
 20
1.739924
 42
0.079379
  0
VERTEX
  8
0
 10
6.201365
 20
0.819157
 42
0.033550
  0
VERTEX
  8
0
 10
9.546762
 20
0.314786
 42
0.017554
  0
VERTEX
  8
0
 10
14.871343
 20
0.061890
 42
0.003089
  0
VERTEX
  8
0
 10
24.888847
 20
0.000000
 42
0.005235
  0
VERTEX
  8
0
 10
35.548854
 20
0.111619
 42
0.017658
  0
VERTEX
  8
0
 10
42.506320
 20
0.503417
 42
0.019330
  0
VERTEX
  8
0
 10
49.090353
 20
1.365682
 42
0.007269
  0
VERTEX
  8
0
 10
58.234555
 20
3.061925
 42
0.012247
  0
VERTEX
  8
0
 10
68.272701
 20
5.332433
 42
0.020730
  0
VERTEX
  8
0
 10
76.535947
 20
7.783829
 42
0.020766
  0
VERTEX
  8
0
 10
82.776717
 20
10.214258
 42
0.149018
  0
VERTEX
  8
0
 10
85.203347
 20
12.294782
 42
0.086251
  0
VERTEX
  8
0
 10
85.501227
 20
13.011080
 42
0.018610
  0
VERTEX
  8
0
 10
85.748852
 20
14.335655
 42
0.018898
  0
VERTEX
  8
0
 10
85.922547
 20
15.911115
 42
0.017060
  0
VERTEX
  8
0
 10
85.984687
 20
17.550000
 42
-0.026835
  0
VERTEX
  8
0
 10
86.078901
 20
19.188433
 42
-0.029104
  0
VERTEX
  8
0
 10
86.348002
 20
20.762812
 42
-0.030347
  0
VERTEX
  8
0
 10
86.735813
 20
22.071185
 42
-0.109577
  0
VERTEX
  8
0
 10
87.200000
 20
22.800000
 42
-0.165074
  0
VERTEX
  8
0
 10
88.345393
 20
23.364919
 42
-0.013907
  0
VERTEX
  8
0
 10
91.669455
 20
23.709154
 42
-0.013881
  0
VERTEX
  8
0
 10
96.373099
 20
23.933307
 42
-0.004965
  0
VERTEX
  8
0
 10
103.089444
 20
24.000000
 42
0.005988
  0
VERTEX
  8
0
 10
111.441502
 20
24.100027
 42
0.020678
  0
VERTEX
  8
0
 10
116.841054
 20
24.453127
 42
0.026031
  0
VERTEX
  8
0
 10
121.519606
 20
25.201915
 42
0.014419
  0
VERTEX
  8
0
 10
127.139444
 20
26.574724
 42
-0.004979
  0
VERTEX
  8
0
 10
131.077946
 20
27.615981
 42
-0.004500
  0
VERTEX
  8
0
 10
135.171231
 20
28.615541
 42
-0.004510
  0
VERTEX
  8
0
 10
138.853888
 20
29.444811
 42
-0.014300
  0
VERTEX
  8
0
 10
141.337087
 20
29.906616
 42
0.033978
  0
VERTEX
  8
0
 10
144.157196
 20
30.546739
 42
0.068422
  0
VERTEX
  8
0
 10
146.228372
 20
31.491024
 42
0.095894
  0
VERTEX
  8
0
 10
147.507392
 20
32.695999
 42
0.150907
  0
VERTEX
  8
0
 10
147.984687
 20
34.115141
 42
0.135155
  0
VERTEX
  8
0
 10
147.893973
 20
34.479834
 42
0.012163
  0
VERTEX
  8
0
 10
147.408002
 20
35.296470
 42
0.015114
  0
VERTEX
  8
0
 10
146.764900
 20
36.254162
 42
0.011236
  0
VERTEX
  8
0
 10
146.000000
 20
37.272871
 42
-0.031933
  0
VERTEX
  8
0
 10
145.234542
 20
38.385347
 42
-0.028799
  0
VERTEX
  8
0
 10
144.587500
 20
39.624428
 42
-0.029956
  0
VERTEX
  8
0
 10
144.138345
 20
40.804204
 42
-0.076115
  0
VERTEX
  8
0
 10
144.000000
 20
41.707729
 42
0.106347
  0
VERTEX
  8
0
 10
143.595898
 20
43.586164
 42
0.136198
  0
VERTEX
  8
0
 10
142.468441
 20
44.939699
 42
0.105122
  0
VERTEX
  8
0
 10
140.547640
 20
45.742909
 42
0.046682
  0
VERTEX
  8
0
 10
137.800000
 20
46.000000
 42
-0.017690
  0
VERTEX
  8
0
 10
135.534243
 20
46.080189
 42
-0.145734
  0
VERTEX
  8
0
 10
134.579123
 20
46.439898
 42
-0.196154
  0
VERTEX
  8
0
 10
134.122793
 20
47.212000
 42
-0.036617
  0
VERTEX
  8
0
 10
134.000000
 20
48.886456
 42
-0.049780
  0
VERTEX
  8
0
 10
134.166656
 20
50.556245
 42
-0.182545
  0
VERTEX
  8
0
 10
134.721576
 20
51.441221
 42
-0.112014
  0
VERTEX
  8
0
 10
135.906159
 20
51.979507
 42
-0.013642
  0
VERTEX
  8
0
 10
138.734720
 20
52.482928
 42
0.045494
  0
VERTEX
  8
0
 10
143.411151
 20
53.626212
 42
0.018742
  0
VERTEX
  8
0
 10
149.502132
 20
55.975936
 42
0.017798
  0
VERTEX
  8
0
 10
155.250849
 20
58.691127
 42
0.068263
  0
VERTEX
  8
0
 10
158.479613
 20
60.962994
 42
-0.052870
  0
VERTEX
  8
0
 10
162.390507
 20
63.898188
 42
-0.016869
  0
VERTEX
  8
0
 10
168.768552
 20
67.419511
 42
-0.017356
  0
VERTEX
  8
0
 10
175.551187
 20
70.579644
 42
-0.037644
  0
VERTEX
  8
0
 10
180.994152
 20
72.419990
 42
0.018286
  0
VERTEX
  8
0
 10
185.845841
 20
73.853871
 42
0.047236
  0
VERTEX
  8
0
 10
189.178714
 20
75.335577
 42
0.061890
  0
VERTEX
  8
0
 10
191.616504
 20
77.136848
 42
0.057759
  0
VERTEX
  8
0
 10
193.604363
 20
79.518933
 42
0.026209
  0
VERTEX
  8
0
 10
194.388809
 20
80.865062
 42
0.094613
  0
VERTEX
  8
0
 10
194.668117
 20
81.812920
 42
0.129116
  0
VERTEX
  8
0
 10
194.537084
 20
82.630533
 42
0.069361
  0
VERTEX
  8
0
 10
193.995845
 20
83.505006
 42
0.217295
  0
VERTEX
  8
0
 10
191.069319
 20
84.919167
 42
0.004834
  0
VERTEX
  8
0
 10
175.021009
 20
85.120271
 42
0.008203
  0
VERTEX
  8
0
 10
159.607202
 20
84.911525
 42
0.091714
  0
VERTEX
  8
0
 10
153.634287
 20
83.620555
 42
-0.037492
  0
VERTEX
  8
0
 10
150.695397
 20
82.643931
 42
-0.012534
  0
VERTEX
  8
0
 10
146.273859
 20
81.651412
 42
-0.008743
  0
VERTEX
  8
0
 10
139.956221
 20
80.513135
 42
-0.002774
  0
VERTEX
  8
0
 10
130.500000
 20
79.033356
 42
-0.012192
  0
VERTEX
  8
0
 10
127.177657
 20
78.614881
 42
-0.050131
  0
VERTEX
  8
0
 10
125.151586
 20
78.613386
 42
-0.075551
  0
VERTEX
  8
0
 10
123.608001
 20
79.007949
 42
-0.055252
  0
VERTEX
  8
0
 10
122.063051
 20
79.875101
 42
-0.021096
  0
VERTEX
  8
0
 10
121.102552
 20
80.626786
 42
-0.022578
  0
VERTEX
  8
0
 10
120.231262
 20
81.440713
 42
-0.022872
  0
VERTEX
  8
0
 10
119.550656
 20
82.203477
 42
-0.090509
  0
VERTEX
  8
0
 10
119.249272
 20
82.752184
 42
-0.315559
  0
VERTEX
  8
0
 10
119.591437
 20
83.900525
 42
-0.047848
  0
VERTEX
  8
0
 10
121.717198
 20
85.275840
 42
-0.042042
  0
VERTEX
  8
0
 10
124.753096
 20
86.540074
 42
-0.032885
  0
VERTEX
  8
0
 10
128.217854
 20
87.405634
 42
0.050855
  0
VERTEX
  8
0
 10
131.306879
 20
88.296184
 42
0.103866
  0
VERTEX
  8
0
 10
133.394692
 20
89.691962
 42
0.117858
  0
VERTEX
  8
0
 10
134.584509
 20
91.677427
 42
0.077671
  0
VERTEX
  8
0
 10
134.984687
 20
94.321429
 42
0.089813
  0
VERTEX
  8
0
 10
134.329548
 20
97.842440
 42
0.147324
  0
VERTEX
  8
0
 10
132.495243
 20
100.227259
 42
0.114036
  0
VERTEX
  8
0
 10
129.253069
 20
101.580902
 42
0.042130
  0
VERTEX
  8
0
 10
124.287982
 20
102.000000
 42
-0.021591
  0
VERTEX
  8
0
 10
121.879599
 20
102.104048
 42
-0.052485
  0
VERTEX
  8
0
 10
120.135849
 20
102.441620
 42
-0.069363
  0
VERTEX
  8
0
 10
118.813561
 20
103.055430
 42
-0.072525
  0
VERTEX
  8
0
 10
117.732028
 20
104.000000
 42
0.073491
  0
VERTEX
  8
0
 10
116.634670
 20
104.954679
 42
0.070668
  0
VERTEX
  8
0
 10
115.293754
 20
105.566665
 42
0.051974
  0
VERTEX
  8
0
 10
113.499632
 20
105.899079
 42
0.019839
  0
VERTEX
  8
0
 10
110.957193
 20
106.000000
 42
-0.021050
  0
VERTEX
  8
0
 10
108.543646
 20
106.101653
 42
-0.009694
  0
VERTEX
  8
0
 10
105.414523
 20
106.426908
 42
-0.009582
  0
VERTEX
  8
0
 10
102.131711
 20
106.896633
 42
-0.013100
  0
VERTEX
  8
0
 10
99.197405
 20
107.453303
 42
0.013197
  0
VERTEX
  8
0
 10
96.339974
 20
107.994820
 42
0.011144
  0
VERTEX
  8
0
 10
93.292363
 20
108.419978
 42
0.011294
  0
VERTEX
  8
0
 10
90.494676
 20
108.682991
 42
0.030492
  0
VERTEX
  8
0
 10
88.500000
 20
108.703303
 42
-0.015428
  0
VERTEX
  8
0
 10
86.047098
 20
108.654414
 42
-0.146323
  0
VERTEX
  8
0
 10
85.055171
 20
108.962892
 42
-0.200854
  0
VERTEX
  8
0
 10
84.554826
 20
109.722811
 42
-0.033309
  0
VERTEX
  8
0
 10
84.341893
 20
111.500000
 42
0.000876
  0
VERTEX
  8
0
 10
84.274619
 20
112.735286
 42
0.000885
  0
VERTEX
  8
0
 10
84.203236
 20
113.966142
 42
0.000862
  0
VERTEX
  8
0
 10
84.137327
 20
115.037816
 42
0.003600
  0
VERTEX
  8
0
 10
84.091893
 20
115.682612
 42
0.135084
  0
VERTEX
  8
0
 10
83.911890
 20
116.181784
 42
0.060290
  0
VERTEX
  8
0
 10
83.439494
 20
116.704298
 42
0.053418
  0
VERTEX
  8
0
 10
82.771860
 20
117.169489
 42
0.048662
  0
VERTEX
  8
0
 10
82.000000
 20
117.500000
 42
-0.087456
  0
VERTEX
  8
0
 10
81.069679
 20
117.986464
 42
-0.110857
  0
VERTEX
  8
0
 10
80.451169
 20
118.730217
 42
-0.084714
  0
VERTEX
  8
0
 10
80.106734
 20
119.828565
 42
-0.033727
  0
VERTEX
  8
0
 10
80.000000
 20
121.409100
 42
-0.038110
  0
VERTEX
  8
0
 10
80.142794
 20
123.279841
 42
-0.142532
  0
VERTEX
  8
0
 10
80.635137
 20
124.337915
 42
-0.118263
  0
VERTEX
  8
0
 10
81.675632
 20
125.075540
 42
-0.022543
  0
VERTEX
  8
0
 10
83.881373
 20
125.846312
 42
0.035752
  0
VERTEX
  8
0
 10
87.052476
 20
127.049236
 42
0.100583
  0
VERTEX
  8
0
 10
88.953924
 20
128.448861
 42
0.182856
  0
VERTEX
  8
0
 10
89.546042
 20
129.957315
 42
0.178114
  0
VERTEX
  8
0
 10
89.000000
 20
131.500000
 42
0.173921
  0
VERTEX
  8
0
 10
87.129838
 20
132.605010
 42
0.047354
  0
VERTEX
  8
0
 10
83.659401
 20
132.934429
 42
0.047387
  0
VERTEX
  8
0
 10
79.916014
 20
132.578858
 42
0.082665
  0
SEQEND
  0
ENDSEC
  0
EOF
