  0
SECTION
  2
HEADER
  9
$ACADVER
  1
AC1006
  9
$EXTMIN
 10
0.000000
 20
0.000000
 30
0.000000
  9
$EXTMAX
 10
191.000000
 20
132.000000
 30
0.000000
  0
ENDSEC
  0
SECTION
  2
ENTITIES
  0
POLYLINE
  8
0
 66
1
 70
1
  0
VERTEX
  8
0
 10
63.399704
 20
131.251379
 42
0.093769
  0
VERTEX
  8
0
 10
62.122836
 20
129.972615
 42
0.045726
  0
VERTEX
  8
0
 10
61.000439
 20
127.948379
 42
0.045358
  0
VERTEX
  8
0
 10
60.296386
 20
125.853569
 42
0.151132
  0
VERTEX
  8
0
 10
60.391612
 20
124.421859
 42
0.167526
  0
VERTEX
  8
0
 10
60.911481
 20
123.802611
 42
0.066947
  0
VERTEX
  8
0
 10
61.942313
 20
123.358547
 42
0.047123
  0
VERTEX
  8
0
 10
63.452705
 20
123.085437
 42
0.021181
  0
VERTEX
  8
0
 10
65.468615
 20
123.000000
 42
-0.012627
  0
VERTEX
  8
0
 10
68.151007
 20
122.932246
 42
-0.111359
  0
VERTEX
  8
0
 10
69.285906
 20
122.615329
 42
-0.209527
  0
VERTEX
  8
0
 10
69.828438
 20
121.921462
 42
-0.062713
  0
VERTEX
  8
0
 10
70.000000
 20
120.559017
 42
-0.037634
  0
VERTEX
  8
0
 10
69.926158
 20
119.579340
 42
-0.041396
  0
VERTEX
  8
0
 10
69.706250
 20
118.653525
 42
-0.045439
  0
VERTEX
  8
0
 10
69.384508
 20
117.906663
 42
-0.130646
  0
VERTEX
  8
0
 10
69.000000
 20
117.500000
 42
0.159357
  0
VERTEX
  8
0
 10
68.096627
 20
116.430009
 42
0.211625
  0
VERTEX
  8
0
 10
68.136882
 20
115.172042
 42
0.150490
  0
VERTEX
  8
0
 10
69.195255
 20
114.030990
 42
0.081892
  0
VERTEX
  8
0
 10
71.000000
 20
113.350000
 42
-0.090448
  0
VERTEX
  8
0
 10
73.540265
 20
112.341858
 42
-0.366117
  0
VERTEX
  8
0
 10
74.011424
 20
110.874375
 42
-0.182338
  0
VERTEX
  8
0
 10
72.447491
 20
109.202202
 42
-0.038208
  0
VERTEX
  8
0
 10
68.662108
 20
107.682622
 42
-0.011646
  0
VERTEX
  8
0
 10
66.439527
 20
107.038519
 42
-0.011431
  0
VERTEX
  8
0
 10
64.175586
 20
106.494270
 42
-0.011379
  0
VERTEX
  8
0
 10
62.170118
 20
106.107945
 42
-0.041912
  0
VERTEX
  8
0
 10
60.884607
 20
106.000000
 42
0.072870
  0
VERTEX
  8
0
 10
56.504788
 20
105.358274
 42
0.005450
  0
VERTEX
  8
0
 10
44.970150
 20
101.766572
 42
0.006764
  0
VERTEX
  8
0
 10
33.665717
 20
97.941250
 42
0.047603
  0
VERTEX
  8
0
 10
28.402917
 20
95.495973
 42
0.066274
  0
VERTEX
  8
0
 10
22.451470
 20
90.853659
 42
0.039321
  0
VERTEX
  8
0
 10
16.663619
 20
83.945617
 42
0.039139
  0
VERTEX
  8
0
 10
11.983066
 20
76.147063
 42
0.061531
  0
VERTEX
  8
0
 10
9.385038
 20
68.788705
 42
0.002745
  0
VERTEX
  8
0
 10
6.647968
 20
56.010699
 42
0.009762
  0
VERTEX
  8
0
 10
5.099653
 20
47.782659
 42
0.015069
  0
VERTEX
  8
0
 10
4.278853
 20
41.799860
 42
0.026207
  0
VERTEX
  8
0
 10
4.009413
 20
36.797053
 42
0.024537
  0
VERTEX
  8
0
 10
4.285586
 20
31.006856
 42
0.091139
  0
VERTEX
  8
0
 10
5.285645
 20
27.509319
 42
0.132676
  0
VERTEX
  8
0
 10
7.226563
 20
25.314519
 42
0.079922
  0
VERTEX
  8
0
 10
10.414710
 20
23.877785
 42
-0.001980
  0
VERTEX
  8
0
 10
12.190832
 20
23.390341
 42
-0.001465
  0
VERTEX
  8
0
 10
14.151593
 20
22.837671
 42
-0.001480
  0
VERTEX
  8
0
 10
16.000640
 20
22.304716
 42
-0.003328
  0
VERTEX
  8
0
 10
17.399223
 20
21.886991
 42
0.043442
  0
VERTEX
  8
0
 10
19.010635
 20
21.543414
 42
0.010229
  0
VERTEX
  8
0
 10
21.752965
 20
21.260554
 42
0.010459
  0
VERTEX
  8
0
 10
24.930943
 20
21.065160
 42
0.010122
  0
VERTEX
  8
0
 10
28.149223
 20
21.000000
 42
0.000000
  0
VERTEX
  8
0
 10
36.000000
 20
21.000000
 42
0.000000
  0
VERTEX
  8
0
 10
36.000000
 20
15.608580
 42
0.000000
  0
VERTEX
  8
0
 10
36.000000
 20
10.217159
 42
0.000000
  0
VERTEX
  8
0
 10
31.782206
 20
8.529533
 42
-0.039330
  0
VERTEX
  8
0
 10
29.571709
 20
7.840919
 42
-0.012876
  0
VERTEX
  8
0
 10
26.223616
 20
7.170511
 42
-0.012740
  0
VERTEX
  8
0
 10
22.453885
 20
6.614669
 42
-0.014056
  0
VERTEX
  8
0
 10
18.782206
 20
6.272932
 42
0.000000
  0
VERTEX
  8
0
 10
10.000000
 20
5.703958
 42
0.000000
  0
VERTEX
  8
0
 10
10.000000
 20
8.795275
 42
0.102875
  0
VERTEX
  8
0
 10
9.562144
 20
10.900851
 42
0.072526
  0
VERTEX
  8
0
 10
8.284625
 20
12.962008
 42
0.075884
  0
VERTEX
  8
0
 10
6.549855
 20
14.482487
 42
0.143010
  0
VERTEX
  8
0
 10
4.777494
 20
15.000000
 42
0.190133
  0
VERTEX
  8
0
 10
3.309145
 20
14.420694
 42
0.054758
  0
VERTEX
  8
0
 10
1.688355
 20
12.534363
 42
0.053756
  0
VERTEX
  8
0
 10
0.419754
 20
10.173136
 42
0.096701
  0
VERTEX
  8
0
 10
0.000000
 20
8.023053
 42
0.120703
  0
VERTEX
  8
0
 10
0.609702
 20
5.534211
 42
0.126770
  0
VERTEX
  8
0
 10
2.294361
 20
3.661864
 42
0.076859
  0
VERTEX
  8
0
 10
5.420823
 20
2.218521
 42
0.022050
  0
VERTEX
  8
0
 10
10.622845
 20
0.973076
 42
0.033352
  0
VERTEX
  8
0
 10
16.260785
 20
0.269105
 42
0.039745
  0
VERTEX
  8
0
 10
21.616841
 20
0.386459
 42
0.036770
  0
VERTEX
  8
0
 10
27.215669
 20
1.375585
 42
0.022812
  0
VERTEX
  8
0
 10
33.607278
 20
3.310689
 42
-0.025870
  0
VERTEX
  8
0
 10
40.442351
 20
5.334526
 42
-0.021006
  0
VERTEX
  8
0
 10
47.941452
 20
6.808944
 42
-0.016129
  0
VERTEX
  8
0
 10
57.234661
 20
7.928324
 42
-0.006720
  0
VERTEX
  8
0
 10
69.832355
 20
8.864522
 42
0.007566
  0
VERTEX
  8
0
 10
80.782661
 20
9.696935
 42
0.087046
  0
VERTEX
  8
0
 10
84.933095
 20
10.821763
 42
0.263072
  0
VERTEX
  8
0
 10
86.401392
 20
12.887194
 42
0.105965
  0
VERTEX
  8
0
 10
86.016402
 20
16.450302
 42
-0.049832
  0
VERTEX
  8
0
 10
85.332635
 20
19.519656
 42
-0.077314
  0
VERTEX
  8
0
 10
85.426614
 20
22.226256
 42
-0.099901
  0
VERTEX
  8
0
 10
86.263311
 20
24.272383
 42
-0.155505
  0
VERTEX
  8
0
 10
87.738779
 20
25.453254
 42
-0.069337
  0
VERTEX
  8
0
 10
91.754135
 20
26.384763
 42
-0.006263
  0
VERTEX
  8
0
 10
102.056407
 20
27.179344
 42
-0.008281
  0
VERTEX
  8
0
 10
114.114141
 20
27.757194
 42
-0.007342
  0
VERTEX
  8
0
 10
126.678571
 20
27.966325
 42
0.003145
  0
VERTEX
  8
0
 10
135.959213
 20
28.042894
 42
0.017716
  0
VERTEX
  8
0
 10
140.909280
 20
28.290449
 42
0.031696
  0
VERTEX
  8
0
 10
143.899685
 20
28.738638
 42
0.144304
  0
VERTEX
  8
0
 10
145.428571
 20
29.571429
 42
0.072616
  0
VERTEX
  8
0
 10
146.594559
 20
31.136095
 42
0.143730
  0
VERTEX
  8
0
 10
146.914414
 20
32.637209
 42
0.151648
  0
VERTEX
  8
0
 10
146.368431
 20
34.017908
 42
0.083941
  0
VERTEX
  8
0
 10
145.000000
 20
35.232073
 42
-0.076217
  0
VERTEX
  8
0
 10
144.146656
 20
35.966122
 42
-0.068524
  0
VERTEX
  8
0
 10
143.515490
 20
36.947724
 42
-0.062248
  0
VERTEX
  8
0
 10
143.129495
 20
38.151623
 42
-0.046516
  0
VERTEX
  8
0
 10
143.000000
 20
39.540547
 42
0.065790
  0
VERTEX
  8
0
 10
142.658532
 20
42.124469
 42
0.147569
  0
VERTEX
  8
0
 10
141.624686
 20
43.788958
 42
0.132582
  0
VERTEX
  8
0
 10
139.755090
 20
44.711388
 42
0.048717
  0
VERTEX
  8
0
 10
136.800000
 20
45.000000
 42
0.000000
  0
VERTEX
  8
0
 10
133.000000
 20
45.000000
 42
0.000000
  0
VERTEX
  8
0
 10
133.000000
 20
49.377555
 42
-0.037609
  0
VERTEX
  8
0
 10
133.224602
 20
52.359388
 42
-0.116544
  0
VERTEX
  8
0
 10
133.972682
 20
54.219342
 42
-0.124658
  0
VERTEX
  8
0
 10
135.439963
 20
55.476217
 42
-0.046023
  0
VERTEX
  8
0
 10
138.000000
 20
56.464153
 42
0.029914
  0
VERTEX
  8
0
 10
146.170499
 20
59.318810
 42
0.009946
  0
VERTEX
  8
0
 10
157.776305
 20
64.443676
 42
0.009484
  0
VERTEX
  8
0
 10
169.027617
 20
69.943856
 42
0.038786
  0
VERTEX
  8
0
 10
175.500000
 20
73.922680
 42
-0.058662
  0
VERTEX
  8
0
 10
176.123570
 20
74.272732
 42
-0.009585
  0
VERTEX
  8
0
 10
177.414914
 20
74.781288
 42
-0.010442
  0
VERTEX
  8
0
 10
178.965976
 20
75.321443
 42
-0.009036
  0
VERTEX
  8
0
 10
180.614601
 20
75.824492
 42
0.065728
  0
VERTEX
  8
0
 10
185.566898
 20
77.973122
 42
0.090547
  0
VERTEX
  8
0
 10
189.201011
 20
81.168372
 42
0.126877
  0
VERTEX
  8
0
 10
190.726754
 20
84.616720
 42
0.217558
  0
VERTEX
  8
0
 10
189.920615
 20
87.595653
 42
0.186163
  0
VERTEX
  8
0
 10
187.974432
 20
88.684167
 42
0.035955
  0
VERTEX
  8
0
 10
183.875948
 20
88.971406
 42
0.038239
  0
VERTEX
  8
0
 10
179.400483
 20
88.620035
 42
0.064148
  0
VERTEX
  8
0
 10
175.783927
 20
87.568666
 42
-0.007763
  0
VERTEX
  8
0
 10
165.306195
 20
83.194126
 42
-0.034155
  0
VERTEX
  8
0
 10
158.934408
 20
81.141118
 42
-0.037954
  0
VERTEX
  8
0
 10
152.657875
 20
80.079558
 42
-0.011115
  0
VERTEX
  8
0
 10
142.892300
 20
79.400298
 42
-0.009451
  0
VERTEX
  8
0
 10
133.082400
 20
79.122476
 42
-0.047468
  0
VERTEX
  8
0
 10
127.616883
 20
79.590659
 42
-0.086308
  0
VERTEX
  8
0
 10
124.013601
 20
80.916204
 42
-0.088574
  0
VERTEX
  8
0
 10
121.106404
 20
83.371790
 42
-0.079586
  0
VERTEX
  8
0
 10
120.604224
 20
84.221289
 42
-0.228716
  0
VERTEX
  8
0
 10
120.653964
 20
84.886375
 42
-0.124186
  0
VERTEX
  8
0
 10
121.286233
 20
85.536529
 42
-0.018749
  0
VERTEX
  8
0
 10
122.879577
 20
86.437727
 42
-0.018012
  0
VERTEX
  8
0
 10
124.145758
 20
87.035724
 42
-0.018008
  0
VERTEX
  8
0
 10
125.451787
 20
87.541082
 42
-0.018166
  0
VERTEX
  8
0
 10
126.621193
 20
87.898803
 42
-0.065226
  0
VERTEX
  8
0
 10
127.393636
 20
88.000000
 42
0.255944
  0
VERTEX
  8
0
 10
129.818595
 20
89.328324
 42
0.077263
  0
VERTEX
  8
0
 10
131.569173
 20
93.308993
 42
0.073465
  0
VERTEX
  8
0
 10
132.085074
 20
97.837785
 42
0.190288
  0
VERTEX
  8
0
 10
130.800000
 20
100.800000
 42
0.128104
  0
VERTEX
  8
0
 10
130.006199
 20
101.265718
 42
0.024215
  0
VERTEX
  8
0
 10
128.355872
 20
101.647500
 42
0.024448
  0
VERTEX
  8
0
 10
126.333573
 20
101.911953
 42
0.020289
  0
VERTEX
  8
0
 10
124.164671
 20
102.000000
 42
-0.017759
  0
VERTEX
  8
0
 10
121.208075
 20
102.105043
 42
-0.060306
  0
VERTEX
  8
0
 10
119.317543
 20
102.471556
 42
-0.079605
  0
VERTEX
  8
0
 10
117.860119
 20
103.213403
 42
-0.048458
  0
VERTEX
  8
0
 10
116.412420
 20
104.500000
 42
0.057511
  0
VERTEX
  8
0
 10
114.799950
 20
105.881739
 42
0.091350
  0
VERTEX
  8
0
 10
113.138531
 20
106.606614
 42
0.049918
  0
VERTEX
  8
0
 10
110.685921
 20
106.925903
 42
0.007426
  0
VERTEX
  8
0
 10
105.696972
 20
107.000000
 42
-0.009885
  0
VERTEX
  8
0
 10
102.269004
 20
107.067781
 42
-0.010491
  0
VERTEX
  8
0
 10
98.913867
 20
107.271091
 42
-0.010150
  0
VERTEX
  8
0
 10
96.036940
 20
107.564989
 42
-0.046551
  0
VERTEX
  8
0
 10
94.399223
 20
107.922862
 42
0.013377
  0
VERTEX
  8
0
 10
93.021624
 20
108.321116
 42
0.006579
  0
VERTEX
  8
0
 10
91.250084
 20
108.757478
 42
0.006523
  0
VERTEX
  8
0
 10
89.397334
 20
109.162666
 42
0.009443
  0
VERTEX
  8
0
 10
87.750000
 20
109.468175
 42
-0.023997
  0
VERTEX
  8
0
 10
85.846830
 20
109.878742
 42
-0.093273
  0
VERTEX
  8
0
 10
84.764177
 20
110.397009
 42
-0.144459
  0
VERTEX
  8
0
 10
84.198597
 20
111.138847
 42
-0.091368
  0
VERTEX
  8
0
 10
84.000000
 20
112.216572
 42
-0.064525
  0
VERTEX
  8
0
 10
84.123257
 20
113.167701
 42
-0.036171
  0
VERTEX
  8
0
 10
84.501714
 20
114.272409
 42
-0.035440
  0
VERTEX
  8
0
 10
85.054103
 20
115.351256
 42
-0.047911
  0
VERTEX
  8
0
 10
85.707962
 20
116.229795
 42
0.126840
  0
VERTEX
  8
0
 10
86.646129
 20
118.017717
 42
0.185029
  0
VERTEX
  8
0
 10
86.409197
 20
119.761808
 42
0.154414
  0
VERTEX
  8
0
 10
84.985381
 20
121.124447
 42
0.084742
  0
VERTEX
  8
0
 10
82.649138
 20
121.816422
 42
-0.119061
  0
VERTEX
  8
0
 10
80.455610
 20
122.631787
 42
-0.337615
  0
VERTEX
  8
0
 10
79.963671
 20
124.083582
 42
-0.172197
  0
VERTEX
  8
0
 10
81.366843
 20
125.871010
 42
-0.049890
  0
VERTEX
  8
0
 10
84.549467
 20
127.465741
 42
0.046708
  0
VERTEX
  8
0
 10
88.275750
 20
129.303378
 42
0.580899
  0
VERTEX
  8
0
 10
88.233924
 20
130.561941
 42
0.108062
  0
VERTEX
  8
0
 10
85.122470
 20
131.422309
 42
0.008350
  0
VERTEX
  8
0
 10
76.418300
 20
131.751379
 42
0.006049
  0
VERTEX
  8
0
 10
71.771873
 20
131.793154
 42
0.008820
  0
VERTEX
  8
0
 10
67.677789
 20
131.708198
 42
0.005032
  0
VERTEX
  8
0
 10
64.251605
 20
131.542065
 42
0.135988
  0
SEQEND
  0
ENDSEC
  0
EOF
