  0
SECTION
  2
HEADER
  9
$ACADVER
  1
AC1006
  9
$EXTMIN
 10
0.000000
 20
0.000000
 30
0.000000
  9
$EXTMAX
 10
554.000000
 20
239.000000
 30
0.000000
  0
ENDSEC
  0
SECTION
  2
ENTITIES
  0
POLYLINE
  8
0
 66
1
 70
1
  0
VERTEX
  8
0
 10
88.500000
 20
237.989183
 42
0.008929
  0
VERTEX
  8
0
 10
69.755335
 20
236.818177
 42
0.011696
  0
VERTEX
  8
0
 10
52.687227
 20
235.042878
 42
0.012900
  0
VERTEX
  8
0
 10
38.264470
 20
232.821327
 42
0.032869
  0
VERTEX
  8
0
 10
28.000000
 20
230.262147
 42
0.000000
  0
VERTEX
  8
0
 10
22.500000
 20
228.500000
 42
0.000000
  0
VERTEX
  8
0
 10
22.168100
 20
223.500000
 42
0.021731
  0
VERTEX
  8
0
 10
22.116129
 20
221.223618
 42
0.012734
  0
VERTEX
  8
0
 10
22.241765
 20
218.500000
 42
0.012722
  0
VERTEX
  8
0
 10
22.506747
 20
215.776914
 42
0.021080
  0
VERTEX
  8
0
 10
22.884947
 20
213.500000
 42
-0.013612
  0
VERTEX
  8
0
 10
23.410888
 20
210.601982
 42
-0.002390
  0
VERTEX
  8
0
 10
24.225267
 20
205.121875
 42
-0.002590
  0
VERTEX
  8
0
 10
25.116581
 20
198.683711
 42
-0.002324
  0
VERTEX
  8
0
 10
25.975033
 20
192.000000
 42
0.001845
  0
VERTEX
  8
0
 10
26.864368
 20
185.022960
 42
0.001594
  0
VERTEX
  8
0
 10
27.848605
 20
177.703125
 42
0.001604
  0
VERTEX
  8
0
 10
28.783342
 20
171.072757
 42
0.004666
  0
VERTEX
  8
0
 10
29.486588
 20
166.500000
 42
-0.001018
  0
VERTEX
  8
0
 10
30.051527
 20
162.996908
 42
-0.001507
  0
VERTEX
  8
0
 10
30.531272
 20
159.923438
 42
-0.000663
  0
VERTEX
  8
0
 10
30.929644
 20
157.296499
 42
-0.030105
  0
VERTEX
  8
0
 10
30.978402
 20
156.750000
 42
-0.396354
  0
VERTEX
  8
0
 10
30.710813
 20
156.448530
 42
-0.004835
  0
VERTEX
  8
0
 10
27.881189
 20
156.220313
 42
-0.011066
  0
VERTEX
  8
0
 10
24.465610
 20
156.053913
 42
-0.006637
  0
VERTEX
  8
0
 10
20.404370
 20
156.000000
 42
0.006524
  0
VERTEX
  8
0
 10
14.672271
 20
155.925200
 42
0.028867
  0
VERTEX
  8
0
 10
11.311137
 20
155.642826
 42
0.049569
  0
VERTEX
  8
0
 10
9.019561
 20
155.080607
 42
0.069760
  0
VERTEX
  8
0
 10
7.154370
 20
154.112075
 42
0.000000
  0
VERTEX
  8
0
 10
4.500000
 20
152.224151
 42
0.000000
  0
VERTEX
  8
0
 10
5.150334
 20
136.362075
 42
-0.002280
  0
VERTEX
  8
0
 10
5.406769
 20
129.323523
 42
-0.001525
  0
VERTEX
  8
0
 10
5.638909
 20
121.267297
 42
-0.001535
  0
VERTEX
  8
0
 10
5.816091
 20
113.458383
 42
-0.003023
  0
VERTEX
  8
0
 10
5.900334
 20
107.250000
 42
0.000000
  0
VERTEX
  8
0
 10
6.000000
 20
94.000000
 42
0.000000
  0
VERTEX
  8
0
 10
3.000000
 20
94.000000
 42
0.000000
  0
VERTEX
  8
0
 10
0.000000
 20
94.000000
 42
0.000000
  0
VERTEX
  8
0
 10
-0.000000
 20
85.366020
 42
0.011852
  0
VERTEX
  8
0
 10
0.085088
 20
81.776905
 42
0.011249
  0
VERTEX
  8
0
 10
0.340247
 20
78.132628
 42
0.011271
  0
VERTEX
  8
0
 10
0.710992
 20
74.921314
 42
0.038422
  0
VERTEX
  8
0
 10
1.158288
 20
72.866020
 42
0.022448
  0
VERTEX
  8
0
 10
1.915899
 20
70.696620
 42
0.114860
  0
VERTEX
  8
0
 10
2.641649
 20
69.657330
 42
0.144603
  0
VERTEX
  8
0
 10
3.664243
 20
69.169312
 42
0.043061
  0
VERTEX
  8
0
 10
5.408288
 20
69.043551
 42
0.017643
  0
VERTEX
  8
0
 10
6.887313
 20
69.116627
 42
0.008002
  0
VERTEX
  8
0
 10
8.816316
 20
69.311447
 42
0.007912
  0
VERTEX
  8
0
 10
10.846487
 20
69.581991
 42
0.010747
  0
VERTEX
  8
0
 10
12.668534
 20
69.894380
 42
-0.006254
  0
VERTEX
  8
0
 10
15.425765
 20
70.392650
 42
-0.157763
  0
VERTEX
  8
0
 10
16.174744
 20
70.282003
 42
-0.355786
  0
VERTEX
  8
0
 10
16.399505
 20
69.788727
 42
-0.026812
  0
VERTEX
  8
0
 10
15.918534
 20
68.285729
 42
0.056440
  0
VERTEX
  8
0
 10
15.206308
 20
65.502924
 42
0.042779
  0
VERTEX
  8
0
 10
15.041464
 20
62.353511
 42
0.042597
  0
VERTEX
  8
0
 10
15.369302
 20
59.596494
 42
0.200859
  0
VERTEX
  8
0
 10
16.250000
 20
58.309017
 42
0.046775
  0
VERTEX
  8
0
 10
18.190055
 20
57.296703
 42
0.003903
  0
VERTEX
  8
0
 10
23.461934
 20
55.193211
 42
0.004922
  0
VERTEX
  8
0
 10
28.717080
 20
53.203172
 42
0.028503
  0
VERTEX
  8
0
 10
31.555105
 20
52.340293
 42
-0.115474
  0
VERTEX
  8
0
 10
32.561028
 20
51.831720
 42
-0.074828
  0
VERTEX
  8
0
 10
33.427884
 20
50.850093
 42
-0.053374
  0
VERTEX
  8
0
 10
34.194096
 20
49.331797
 42
-0.022925
  0
VERTEX
  8
0
 10
34.897992
 20
47.170679
 42
0.034500
  0
VERTEX
  8
0
 10
38.673403
 20
36.429645
 42
0.049719
  0
VERTEX
  8
0
 10
43.555359
 20
27.626281
 42
0.052707
  0
VERTEX
  8
0
 10
49.830115
 20
20.340892
 42
0.046022
  0
VERTEX
  8
0
 10
57.764992
 20
14.150804
 42
0.057676
  0
VERTEX
  8
0
 10
66.536376
 20
9.856328
 42
0.051235
  0
VERTEX
  8
0
 10
76.414236
 20
7.463229
 42
0.051950
  0
VERTEX
  8
0
 10
86.426338
 20
7.147722
 42
0.063664
  0
VERTEX
  8
0
 10
95.593450
 20
9.000837
 42
0.011713
  0
VERTEX
  8
0
 10
102.127532
 20
11.386276
 42
0.047083
  0
VERTEX
  8
0
 10
105.918487
 20
13.300354
 42
0.044348
  0
VERTEX
  8
0
 10
109.392167
 20
15.942705
 42
0.009604
  0
VERTEX
  8
0
 10
114.873550
 20
21.133167
 42
0.033000
  0
VERTEX
  8
0
 10
119.048132
 20
25.821749
 42
0.033185
  0
VERTEX
  8
0
 10
122.561052
 20
31.010392
 42
0.032872
  0
VERTEX
  8
0
 10
125.385154
 20
36.666555
 42
0.031074
  0
VERTEX
  8
0
 10
127.504537
 20
42.750000
 42
-0.064783
  0
VERTEX
  8
0
 10
127.871177
 20
43.611195
 42
-0.066164
  0
VERTEX
  8
0
 10
128.443910
 20
44.343074
 42
-0.072839
  0
VERTEX
  8
0
 10
129.127043
 20
44.840348
 42
-0.119487
  0
VERTEX
  8
0
 10
129.817388
 20
45.013655
 42
0.025279
  0
VERTEX
  8
0
 10
130.620296
 20
45.060809
 42
0.011503
  0
VERTEX
  8
0
 10
131.663101
 20
45.199489
 42
0.011356
  0
VERTEX
  8
0
 10
132.757987
 20
45.396383
 42
0.015309
  0
VERTEX
  8
0
 10
133.737849
 20
45.627108
 42
-0.050157
  0
VERTEX
  8
0
 10
134.812988
 20
45.802423
 42
-0.114258
  0
VERTEX
  8
0
 10
135.619430
 20
45.667211
 42
-0.129485
  0
VERTEX
  8
0
 10
136.221431
 20
45.208438
 42
-0.074051
  0
VERTEX
  8
0
 10
136.673780
 20
44.407733
 42
0.089349
  0
VERTEX
  8
0
 10
139.574563
 20
39.618939
 42
0.022837
  0
VERTEX
  8
0
 10
145.900690
 20
33.075628
 42
0.024154
  0
VERTEX
  8
0
 10
153.106672
 20
26.903063
 42
0.050678
  0
VERTEX
  8
0
 10
159.354152
 20
22.997186
 42
0.020245
  0
VERTEX
  8
0
 10
163.214685
 20
21.287129
 42
0.038696
  0
VERTEX
  8
0
 10
166.453390
 20
20.288308
 42
0.031911
  0
VERTEX
  8
0
 10
170.194292
 20
19.692303
 42
0.009787
  0
VERTEX
  8
0
 10
175.901887
 20
19.265610
 42
0.006043
  0
VERTEX
  8
0
 10
180.659400
 20
19.061097
 42
0.022287
  0
VERTEX
  8
0
 10
183.667417
 20
19.102287
 42
0.030380
  0
VERTEX
  8
0
 10
185.561057
 20
19.328700
 42
0.362497
  0
VERTEX
  8
0
 10
186.000000
 20
19.854587
 42
-0.191962
  0
VERTEX
  8
0
 10
186.174367
 20
20.292022
 42
-0.087915
  0
VERTEX
  8
0
 10
186.676699
 20
20.663535
 42
-0.067744
  0
VERTEX
  8
0
 10
187.422010
 20
20.915610
 42
-0.047750
  0
VERTEX
  8
0
 10
188.303656
 20
21.000000
 42
0.142675
  0
VERTEX
  8
0
 10
195.869176
 20
23.203687
 42
0.044445
  0
VERTEX
  8
0
 10
205.342089
 20
30.490728
 42
0.044842
  0
VERTEX
  8
0
 10
213.656324
 20
39.658157
 42
0.098658
  0
VERTEX
  8
0
 10
217.756686
 20
48.139461
 42
0.000000
  0
VERTEX
  8
0
 10
218.627842
 20
51.500000
 42
0.000000
  0
VERTEX
  8
0
 10
246.563921
 20
51.102213
 42
-0.000582
  0
VERTEX
  8
0
 10
257.628031
 20
50.931783
 42
-0.000757
  0
VERTEX
  8
0
 10
267.762527
 20
50.748521
 42
-0.000563
  0
VERTEX
  8
0
 10
276.257229
 20
50.572471
 42
-0.006912
  0
VERTEX
  8
0
 10
279.500000
 20
50.456747
 42
0.000480
  0
VERTEX
  8
0
 10
282.309784
 20
50.320263
 42
0.000097
  0
VERTEX
  8
0
 10
287.290625
 20
50.084084
 42
0.000103
  0
VERTEX
  8
0
 10
293.082009
 20
49.811795
 42
0.000096
  0
VERTEX
  8
0
 10
299.000000
 20
49.535915
 42
-0.009728
  0
VERTEX
  8
0
 10
305.564323
 20
49.103057
 42
-0.005825
  0
VERTEX
  8
0
 10
313.345703
 20
48.346283
 42
-0.005830
  0
VERTEX
  8
0
 10
321.076022
 20
47.412133
 42
-0.010085
  0
VERTEX
  8
0
 10
327.474734
 20
46.431381
 42
0.006555
  0
VERTEX
  8
0
 10
333.273526
 20
45.500627
 42
0.006401
  0
VERTEX
  8
0
 10
339.140731
 20
44.714218
 42
0.006326
  0
VERTEX
  8
0
 10
344.308933
 20
44.154985
 42
0.023788
  0
VERTEX
  8
0
 10
347.564674
 20
44.000000
 42
0.000000
  0
VERTEX
  8
0
 10
353.679881
 20
44.000000
 42
0.000000
  0
VERTEX
  8
0
 10
355.039479
 20
39.750000
 42
0.016037
  0
VERTEX
  8
0
 10
355.708738
 20
37.868145
 42
0.010189
  0
VERTEX
  8
0
 10
356.602018
 20
35.720312
 42
0.010233
  0
VERTEX
  8
0
 10
357.565861
 20
33.646022
 42
0.018628
  0
VERTEX
  8
0
 10
358.449538
 20
32.000000
 42
-0.004894
  0
VERTEX
  8
0
 10
359.378687
 20
30.377809
 42
-0.002698
  0
VERTEX
  8
0
 10
360.484423
 20
28.377491
 42
-0.002690
  0
VERTEX
  8
0
 10
361.583884
 20
26.336895
 42
-0.004314
  0
VERTEX
  8
0
 10
362.497435
 20
24.582947
 42
0.044793
  0
VERTEX
  8
0
 10
365.203360
 20
20.277352
 42
0.023691
  0
VERTEX
  8
0
 10
369.260344
 20
15.441024
 42
0.023654
  0
VERTEX
  8
0
 10
373.796318
 20
10.970474
 42
0.041329
  0
VERTEX
  8
0
 10
378.000000
 20
7.786588
 42
0.071230
  0
VERTEX
  8
0
 10
389.991026
 20
2.382871
 42
0.059640
  0
VERTEX
  8
0
 10
403.775352
 20
0.129602
 42
0.060411
  0
VERTEX
  8
0
 10
417.513939
 20
1.200374
 42
0.077958
  0
VERTEX
  8
0
 10
429.367597
 20
5.581890
 42
0.055309
  0
VERTEX
  8
0
 10
435.118471
 20
9.688923
 42
0.023803
  0
VERTEX
  8
0
 10
441.840036
 20
16.315314
 42
0.018734
  0
VERTEX
  8
0
 10
447.718294
 20
23.189393
 42
0.169085
  0
VERTEX
  8
0
 10
449.000000
 20
26.871158
 42
-0.192727
  0
VERTEX
  8
0
 10
449.451861
 20
27.999894
 42
-0.267567
  0
VERTEX
  8
0
 10
450.473806
 20
28.300785
 42
-0.099571
  0
VERTEX
  8
0
 10
452.214693
 20
27.491745
 42
-0.025188
  0
VERTEX
  8
0
 10
454.645700
 20
25.510206
 42
0.032390
  0
VERTEX
  8
0
 10
456.701292
 20
23.883344
 42
0.011199
  0
VERTEX
  8
0
 10
459.864674
 20
21.800194
 42
0.011073
  0
VERTEX
  8
0
 10
463.463071
 20
19.653962
 42
0.012634
  0
VERTEX
  8
0
 10
467.000000
 20
17.765650
 42
0.000000
  0
VERTEX
  8
0
 10
475.500000
 20
13.500000
 42
0.000000
  0
VERTEX
  8
0
 10
487.000000
 20
13.500000
 42
0.006226
  0
VERTEX
  8
0
 10
494.256959
 20
13.590373
 42
0.040722
  0
VERTEX
  8
0
 10
497.877193
 20
13.976674
 42
0.054195
  0
VERTEX
  8
0
 10
500.949384
 20
14.913521
 42
0.015897
  0
VERTEX
  8
0
 10
505.427016
 20
17.000000
 42
0.041812
  0
VERTEX
  8
0
 10
512.355304
 20
21.261392
 42
0.041780
  0
VERTEX
  8
0
 10
518.479936
 20
26.617034
 42
0.041259
  0
VERTEX
  8
0
 10
523.695587
 20
32.984318
 42
0.038714
  0
VERTEX
  8
0
 10
527.920398
 20
40.254148
 42
0.015761
  0
VERTEX
  8
0
 10
529.491676
 20
43.796139
 42
0.013461
  0
VERTEX
  8
0
 10
530.927009
 20
47.619968
 42
0.013669
  0
VERTEX
  8
0
 10
532.043649
 20
51.168925
 42
0.037102
  0
VERTEX
  8
0
 10
532.575801
 20
53.750000
 42
-0.010859
  0
VERTEX
  8
0
 10
533.089918
 20
57.131759
 42
-0.125431
  0
VERTEX
  8
0
 10
533.635385
 20
58.346200
 42
-0.185824
  0
VERTEX
  8
0
 10
534.620437
 20
58.925522
 42
-0.029851
  0
VERTEX
  8
0
 10
536.878831
 20
59.162372
 42
0.000014
  0
VERTEX
  8
0
 10
538.483903
 20
59.234387
 42
0.000009
  0
VERTEX
  8
0
 10
540.317532
 20
59.316740
 42
0.000009
  0
VERTEX
  8
0
 10
542.092351
 20
59.396517
 42
0.000018
  0
VERTEX
  8
0
 10
543.500000
 20
59.459867
 42
0.034489
  0
VERTEX
  8
0
 10
548.942325
 20
60.082783
 42
0.136645
  0
VERTEX
  8
0
 10
551.938654
 20
61.546920
 42
0.159412
  0
VERTEX
  8
0
 10
553.489900
 20
64.203577
 42
0.052089
  0
VERTEX
  8
0
 10
553.986345
 20
68.771439
 42
0.037681
  0
VERTEX
  8
0
 10
553.867719
 20
70.435819
 42
0.091969
  0
VERTEX
  8
0
 10
553.471076
 20
71.594185
 42
0.102799
  0
VERTEX
  8
0
 10
552.718283
 20
72.455612
 42
0.055103
  0
VERTEX
  8
0
 10
551.500000
 20
73.181954
 42
-0.054643
  0
VERTEX
  8
0
 10
550.543862
 20
73.750816
 42
-0.054753
  0
VERTEX
  8
0
 10
549.734375
 20
74.512953
 42
-0.060062
  0
VERTEX
  8
0
 10
549.182716
 20
75.343791
 42
-0.117071
  0
VERTEX
  8
0
 10
549.000000
 20
76.113462
 42
0.045779
  0
VERTEX
  8
0
 10
548.920825
 20
76.976397
 42
0.019181
  0
VERTEX
  8
0
 10
548.664385
 20
78.115961
 42
0.018786
  0
VERTEX
  8
0
 10
548.294917
 20
79.322002
 42
0.023176
  0
VERTEX
  8
0
 10
547.857482
 20
80.413448
 42
0.079432
  0
VERTEX
  8
0
 10
546.929685
 20
81.811029
 42
0.128609
  0
VERTEX
  8
0
 10
545.735867
 20
82.576894
 42
0.061353
  0
VERTEX
  8
0
 10
543.719918
 20
82.968843
 42
0.007664
  0
VERTEX
  8
0
 10
539.261383
 20
83.210501
 42
0.000000
  0
VERTEX
  8
0
 10
531.807803
 20
83.500000
 42
0.000000
  0
VERTEX
  8
0
 10
530.418958
 20
87.500000
 42
-0.008190
  0
VERTEX
  8
0
 10
529.886125
 20
89.119754
 42
-0.009489
  0
VERTEX
  8
0
 10
529.433663
 20
90.678835
 42
-0.008651
  0
VERTEX
  8
0
 10
529.099382
 20
92.009210
 42
-0.054145
  0
VERTEX
  8
0
 10
529.015056
 20
92.704545
 42
0.139349
  0
VERTEX
  8
0
 10
528.703879
 20
93.749555
 42
0.031778
  0
VERTEX
  8
0
 10
527.605663
 20
95.256220
 42
0.013993
  0
VERTEX
  8
0
 10
525.417004
 20
97.744701
 42
0.001489
  0
VERTEX
  8
0
 10
520.147887
 20
103.374204
 42
-0.011514
  0
VERTEX
  8
0
 10
518.859938
 20
104.806762
 42
-0.038239
  0
VERTEX
  8
0
 10
518.111239
 20
105.827554
 42
-0.243624
  0
VERTEX
  8
0
 10
518.082410
 20
106.194302
 42
-0.438797
  0
VERTEX
  8
0
 10
518.337184
 20
106.285661
 42
0.166615
  0
VERTEX
  8
0
 10
520.747195
 20
105.915278
 42
0.077510
  0
VERTEX
  8
0
 10
523.774896
 20
106.960519
 42
0.071038
  0
VERTEX
  8
0
 10
526.622366
 20
109.032138
 42
0.089470
  0
VERTEX
  8
0
 10
528.517549
 20
111.678224
 42
0.022100
  0
VERTEX
  8
0
 10
529.341154
 20
113.632371
 42
0.088086
  0
VERTEX
  8
0
 10
529.571726
 20
114.906981
 42
0.093615
  0
VERTEX
  8
0
 10
529.342448
 20
116.142782
 42
0.026787
  0
VERTEX
  8
0
 10
528.537806
 20
117.926891
 42
0.114947
  0
VERTEX
  8
0
 10
524.497716
 20
122.664129
 42
0.035523
  0
VERTEX
  8
0
 10
516.525940
 20
127.714973
 42
0.035255
  0
VERTEX
  8
0
 10
507.048671
 20
131.984322
 42
0.046210
  0
VERTEX
  8
0
 10
497.877644
 20
134.428139
 42
-0.029957
  0
VERTEX
  8
0
 10
495.709936
 20
134.931038
 42
-0.154011
  0
VERTEX
  8
0
 10
494.699881
 20
135.612427
 42
-0.123882
  0
VERTEX
  8
0
 10
494.148648
 20
136.829783
 42
-0.016612
  0
VERTEX
  8
0
 10
493.737605
 20
139.635603
 42
0.050792
  0
VERTEX
  8
0
 10
492.965868
 20
143.191123
 42
0.058582
  0
VERTEX
  8
0
 10
491.513220
 20
146.339702
 42
0.061963
  0
VERTEX
  8
0
 10
489.456589
 20
148.919340
 42
0.069675
  0
VERTEX
  8
0
 10
486.903601
 20
150.799747
 42
0.109909
  0
VERTEX
  8
0
 10
484.164302
 20
151.577885
 42
0.018773
  0
VERTEX
  8
0
 10
478.714488
 20
151.688492
 42
0.020701
  0
VERTEX
  8
0
 10
473.197789
 20
151.364602
 42
0.072432
  0
VERTEX
  8
0
 10
469.750000
 20
150.503857
 42
-0.075726
  0
VERTEX
  8
0
 10
468.849868
 20
150.285394
 42
-0.267293
  0
VERTEX
  8
0
 10
468.330491
 20
150.527019
 42
-0.136079
  0
VERTEX
  8
0
 10
468.061605
 20
151.281176
 42
-0.018000
  0
VERTEX
  8
0
 10
468.000000
 20
152.991882
 42
0.066594
  0
VERTEX
  8
0
 10
467.556148
 20
156.309620
 42
0.049929
  0
VERTEX
  8
0
 10
466.236509
 20
159.755228
 42
0.048450
  0
VERTEX
  8
0
 10
464.203634
 20
162.980781
 42
0.053076
  0
VERTEX
  8
0
 10
461.642309
 20
165.647524
 42
-0.030067
  0
VERTEX
  8
0
 10
460.242746
 20
166.976734
 42
-0.059623
  0
VERTEX
  8
0
 10
459.339971
 20
168.209846
 42
-0.075110
  0
VERTEX
  8
0
 10
458.884007
 20
169.410607
 42
-0.086029
  0
VERTEX
  8
0
 10
458.833331
 20
170.635901
 42
0.119110
  0
VERTEX
  8
0
 10
458.688096
 20
171.990575
 42
0.245603
  0
VERTEX
  8
0
 10
457.926407
 20
172.693386
 42
0.062464
  0
VERTEX
  8
0
 10
456.030078
 20
172.958257
 42
0.003503
  0
VERTEX
  8
0
 10
450.071566
 20
173.000000
 42
0.004319
  0
VERTEX
  8
0
 10
444.491350
 20
172.951795
 42
0.051525
  0
VERTEX
  8
0
 10
442.351444
 20
172.693256
 42
0.176299
  0
VERTEX
  8
0
 10
441.379154
 20
172.067021
 42
0.163838
  0
VERTEX
  8
0
 10
441.000000
 20
170.940983
 42
-0.041436
  0
VERTEX
  8
0
 10
440.937609
 20
170.189415
 42
-0.089870
  0
VERTEX
  8
0
 10
440.742384
 20
169.646018
 42
-0.167213
  0
VERTEX
  8
0
 10
440.454358
 20
169.395800
 42
-0.238759
  0
VERTEX
  8
0
 10
440.123008
 20
169.423977
 42
0.135225
  0
VERTEX
  8
0
 10
439.360769
 20
169.647091
 42
0.000240
  0
VERTEX
  8
0
 10
425.881561
 20
169.855421
 42
0.001763
  0
VERTEX
  8
0
 10
410.714758
 20
170.029068
 42
0.001088
  0
VERTEX
  8
0
 10
392.873008
 20
170.131602
 42
-0.001469
  0
VERTEX
  8
0
 10
374.952888
 20
170.248247
 42
-0.002297
  0
VERTEX
  8
0
 10
359.531120
 20
170.464784
 42
-0.000618
  0
VERTEX
  8
0
 10
346.090508
 20
170.731887
 42
-0.082598
  0
VERTEX
  8
0
 10
344.488252
 20
171.033274
 42
-0.184364
  0
VERTEX
  8
0
 10
342.926498
 20
172.390335
 42
-0.038758
  0
VERTEX
  8
0
 10
341.447381
 20
175.762980
 42
-0.038897
  0
VERTEX
  8
0
 10
340.363745
 20
179.868336
 42
-0.045110
  0
VERTEX
  8
0
 10
340.000000
 20
183.891906
 42
0.046573
  0
VERTEX
  8
0
 10
339.889145
 20
185.079439
 42
0.041006
  0
VERTEX
  8
0
 10
339.559375
 20
186.279731
 42
0.043193
  0
VERTEX
  8
0
 10
339.075334
 20
187.317513
 42
0.089064
  0
VERTEX
  8
0
 10
338.500000
 20
188.000000
 42
-0.054513
  0
VERTEX
  8
0
 10
337.922700
 20
188.596366
 42
-0.041788
  0
VERTEX
  8
0
 10
337.427731
 20
189.357298
 42
-0.042865
  0
VERTEX
  8
0
 10
337.081905
 20
190.158434
 42
-0.073851
  0
VERTEX
  8
0
 10
336.956107
 20
190.872445
 42
0.046825
  0
VERTEX
  8
0
 10
336.849635
 20
191.751421
 42
0.010933
  0
VERTEX
  8
0
 10
336.502037
 20
193.196906
 42
0.011179
  0
VERTEX
  8
0
 10
336.026524
 20
194.849226
 42
0.010760
  0
VERTEX
  8
0
 10
335.471972
 20
196.500000
 42
-0.018156
  0
VERTEX
  8
0
 10
334.873424
 20
198.373048
 42
-0.009770
  0
VERTEX
  8
0
 10
334.265421
 20
200.720312
 42
-0.009717
  0
VERTEX
  8
0
 10
333.738290
 20
203.140199
 42
-0.015038
  0
VERTEX
  8
0
 10
333.387034
 20
205.250000
 42
0.000000
  0
VERTEX
  8
0
 10
332.742339
 20
210.000000
 42
0.000000
  0
VERTEX
  8
0
 10
335.789382
 20
210.000000
 42
0.031240
  0
VERTEX
  8
0
 10
338.826808
 20
210.189962
 42
0.109922
  0
VERTEX
  8
0
 10
340.658977
 20
210.846083
 42
0.160984
  0
VERTEX
  8
0
 10
341.651076
 20
212.051279
 42
0.092636
  0
VERTEX
  8
0
 10
342.000000
 20
213.918427
 42
0.104374
  0
VERTEX
  8
0
 10
341.506915
 20
216.254803
 42
0.067404
  0
VERTEX
  8
0
 10
340.054912
 20
218.619928
 42
0.070253
  0
VERTEX
  8
0
 10
338.121419
 20
220.404343
 42
0.152203
  0
VERTEX
  8
0
 10
336.211045
 20
221.001490
 42
-0.028169
  0
VERTEX
  8
0
 10
332.388367
 20
221.220363
 42
-0.000767
  0
VERTEX
  8
0
 10
315.761584
 20
223.141781
 42
-0.001691
  0
VERTEX
  8
0
 10
299.813258
 20
225.064310
 42
-0.006645
  0
VERTEX
  8
0
 10
290.000000
 20
226.413600
 42
0.014031
  0
VERTEX
  8
0
 10
242.556764
 20
232.224250
 42
0.009107
  0
VERTEX
  8
0
 10
187.451049
 20
236.398003
 42
0.009154
  0
VERTEX
  8
0
 10
133.175929
 20
238.520007
 42
0.016327
  0
SEQEND
  0
ENDSEC
  0
EOF
