  0
SECTION
  2
HEADER
  9
$ACADVER
  1
AC1006
  9
$EXTMIN
 10
0.000000
 20
0.000000
 30
0.000000
  9
$EXTMAX
 10
375.000000
 20
137.000000
 30
0.000000
  0
ENDSEC
  0
SECTION
  2
ENTITIES
  0
POLYLINE
  8
0
 66
1
 70
1
  0
VERTEX
  8
0
 10
231.500000
 20
135.861525
 42
0.000464
  0
VERTEX
  8
0
 10
210.840175
 20
134.616643
 42
0.001163
  0
VERTEX
  8
0
 10
195.774653
 20
133.659635
 42
0.001167
  0
VERTEX
  8
0
 10
184.770928
 20
132.909141
 42
0.010704
  0
VERTEX
  8
0
 10
180.000000
 20
132.469747
 42
0.003857
  0
VERTEX
  8
0
 10
168.991120
 20
131.131576
 42
0.006278
  0
VERTEX
  8
0
 10
159.670513
 20
129.806414
 42
0.002637
  0
VERTEX
  8
0
 10
151.846258
 20
128.551308
 42
0.150287
  0
VERTEX
  8
0
 10
150.550000
 20
127.904760
 42
-0.069059
  0
VERTEX
  8
0
 10
150.067308
 20
127.557889
 42
-0.037452
  0
VERTEX
  8
0
 10
149.395840
 20
127.265773
 42
-0.036473
  0
VERTEX
  8
0
 10
148.654512
 20
127.066530
 42
-0.047447
  0
VERTEX
  8
0
 10
147.954988
 20
127.000000
 42
0.171940
  0
VERTEX
  8
0
 10
145.721229
 20
126.208455
 42
0.115041
  0
VERTEX
  8
0
 10
144.041309
 20
124.046676
 42
0.063604
  0
VERTEX
  8
0
 10
142.819340
 20
120.158571
 42
0.018597
  0
VERTEX
  8
0
 10
141.941333
 20
113.940829
 42
-0.002171
  0
VERTEX
  8
0
 10
141.555407
 20
110.362422
 42
-0.003485
  0
VERTEX
  8
0
 10
141.191748
 20
107.314274
 42
-0.000720
  0
VERTEX
  8
0
 10
140.850124
 20
104.642078
 42
-0.181360
  0
VERTEX
  8
0
 10
140.739872
 20
104.434082
 42
-0.177482
  0
VERTEX
  8
0
 10
140.511491
 20
104.344645
 42
-0.000042
  0
VERTEX
  8
0
 10
129.114212
 20
104.095387
 42
-0.000827
  0
VERTEX
  8
0
 10
116.470933
 20
103.840868
 42
-0.000500
  0
VERTEX
  8
0
 10
101.500000
 20
103.579242
 42
0.001295
  0
VERTEX
  8
0
 10
86.313347
 20
103.289695
 42
0.001906
  0
VERTEX
  8
0
 10
72.973374
 20
102.949905
 42
0.000879
  0
VERTEX
  8
0
 10
61.607045
 20
102.597030
 42
0.036006
  0
VERTEX
  8
0
 10
59.154040
 20
102.339072
 42
0.096280
  0
VERTEX
  8
0
 10
56.040339
 20
101.135944
 42
0.049329
  0
VERTEX
  8
0
 10
52.718508
 20
98.561723
 42
0.049338
  0
VERTEX
  8
0
 10
49.966691
 20
95.388210
 42
0.096685
  0
VERTEX
  8
0
 10
48.599130
 20
92.350231
 42
-0.010963
  0
VERTEX
  8
0
 10
48.269630
 20
91.071212
 42
-0.006712
  0
VERTEX
  8
0
 10
47.827941
 20
89.577384
 42
-0.006727
  0
VERTEX
  8
0
 10
47.350606
 20
88.109307
 42
-0.011885
  0
VERTEX
  8
0
 10
46.911847
 20
86.913205
 42
0.000000
  0
VERTEX
  8
0
 10
45.892563
 20
84.326411
 42
0.000000
  0
VERTEX
  8
0
 10
41.276803
 20
86.663205
 42
0.026231
  0
VERTEX
  8
0
 10
37.018921
 20
88.545270
 42
0.111305
  0
VERTEX
  8
0
 10
34.278658
 20
88.937167
 42
0.187311
  0
VERTEX
  8
0
 10
32.417968
 20
88.038405
 42
0.104139
  0
VERTEX
  8
0
 10
31.097825
 20
85.850777
 42
0.022746
  0
VERTEX
  8
0
 10
30.677212
 20
84.440995
 42
0.015477
  0
VERTEX
  8
0
 10
30.322486
 20
82.804924
 42
0.015620
  0
VERTEX
  8
0
 10
30.077984
 20
81.201504
 42
0.030030
  0
VERTEX
  8
0
 10
30.000000
 20
79.904231
 42
-0.083879
  0
VERTEX
  8
0
 10
29.732814
 20
78.322751
 42
-0.091053
  0
VERTEX
  8
0
 10
28.962895
 20
76.966569
 42
-0.057080
  0
VERTEX
  8
0
 10
27.453295
 20
75.535168
 42
-0.014699
  0
VERTEX
  8
0
 10
24.706488
 20
73.593276
 42
0.033452
  0
VERTEX
  8
0
 10
18.196603
 20
68.614916
 42
0.044077
  0
VERTEX
  8
0
 10
13.034373
 20
63.215605
 42
0.051045
  0
VERTEX
  8
0
 10
9.751073
 20
58.125263
 42
0.166579
  0
VERTEX
  8
0
 10
9.196480
 20
54.210416
 42
0.133318
  0
VERTEX
  8
0
 10
9.554242
 20
53.478169
 42
0.049439
  0
VERTEX
  8
0
 10
10.398789
 20
52.687510
 42
0.044580
  0
VERTEX
  8
0
 10
11.540354
 20
51.964538
 42
0.040460
  0
VERTEX
  8
0
 10
12.829017
 20
51.427914
 42
-0.012969
  0
VERTEX
  8
0
 10
14.639867
 20
50.788082
 42
-0.136151
  0
VERTEX
  8
0
 10
15.266300
 20
50.325350
 42
-0.328468
  0
VERTEX
  8
0
 10
15.281177
 20
49.816217
 42
-0.068244
  0
VERTEX
  8
0
 10
14.638671
 20
49.115087
 42
-0.076331
  0
VERTEX
  8
0
 10
13.738720
 20
48.575192
 42
-0.115300
  0
VERTEX
  8
0
 10
12.840096
 20
48.431642
 42
-0.079601
  0
VERTEX
  8
0
 10
11.738100
 20
48.689724
 42
-0.022087
  0
VERTEX
  8
0
 10
10.121495
 20
49.437173
 42
0.046321
  0
VERTEX
  8
0
 10
7.470379
 20
50.510454
 42
0.062945
  0
VERTEX
  8
0
 10
4.927305
 20
50.937496
 42
0.075484
  0
VERTEX
  8
0
 10
2.756803
 20
50.697697
 42
0.131928
  0
VERTEX
  8
0
 10
1.200000
 20
49.800000
 42
0.113248
  0
VERTEX
  8
0
 10
0.736444
 20
49.060391
 42
0.029494
  0
VERTEX
  8
0
 10
0.352500
 20
47.701455
 42
0.028432
  0
VERTEX
  8
0
 10
0.088307
 20
46.059521
 42
0.025678
  0
VERTEX
  8
0
 10
-0.000000
 20
44.341124
 42
0.023924
  0
VERTEX
  8
0
 10
0.128690
 20
41.653144
 42
0.150766
  0
VERTEX
  8
0
 10
0.650435
 20
40.401540
 42
0.121189
  0
VERTEX
  8
0
 10
1.838965
 20
39.525170
 42
0.013223
  0
VERTEX
  8
0
 10
5.033776
 20
38.294408
 42
-0.030066
  0
VERTEX
  8
0
 10
8.414525
 20
36.859529
 42
-0.145256
  0
VERTEX
  8
0
 10
9.925269
 20
35.452146
 42
-0.068010
  0
VERTEX
  8
0
 10
10.955069
 20
32.992467
 42
-0.003386
  0
VERTEX
  8
0
 10
13.159013
 20
24.500000
 42
0.025070
  0
VERTEX
  8
0
 10
13.702140
 20
22.727115
 42
0.015463
  0
VERTEX
  8
0
 10
14.507997
 20
20.699666
 42
0.015497
  0
VERTEX
  8
0
 10
15.431089
 20
18.740121
 42
0.026700
  0
VERTEX
  8
0
 10
16.334111
 20
17.179715
 42
0.102547
  0
VERTEX
  8
0
 10
20.274326
 20
13.215679
 42
0.041838
  0
VERTEX
  8
0
 10
26.974012
 20
9.552096
 42
0.041249
  0
VERTEX
  8
0
 10
34.589181
 20
6.906840
 42
0.063519
  0
VERTEX
  8
0
 10
41.500000
 20
6.038410
 42
0.027355
  0
VERTEX
  8
0
 10
47.770185
 20
6.393415
 42
0.072937
  0
VERTEX
  8
0
 10
52.092819
 20
7.528855
 42
0.075107
  0
VERTEX
  8
0
 10
55.834197
 20
9.835187
 42
0.030311
  0
VERTEX
  8
0
 10
60.181564
 20
13.991665
 42
-0.004619
  0
VERTEX
  8
0
 10
63.745666
 20
17.768116
 42
-0.066105
  0
VERTEX
  8
0
 10
65.188869
 20
18.918711
 42
-0.270998
  0
VERTEX
  8
0
 10
66.123680
 20
18.929707
 42
-0.141401
  0
VERTEX
  8
0
 10
66.964149
 20
18.066989
 42
0.059360
  0
VERTEX
  8
0
 10
68.979743
 20
15.182975
 42
0.017575
  0
VERTEX
  8
0
 10
72.710325
 20
11.286914
 42
0.017728
  0
VERTEX
  8
0
 10
76.720094
 20
7.651336
 42
0.056006
  0
VERTEX
  8
0
 10
79.730923
 20
5.639145
 42
0.047038
  0
VERTEX
  8
0
 10
84.583019
 20
3.682890
 42
0.026289
  0
VERTEX
  8
0
 10
90.777072
 20
2.188950
 42
0.026255
  0
VERTEX
  8
0
 10
97.123856
 20
1.348826
 42
0.045100
  0
VERTEX
  8
0
 10
102.455052
 20
1.407648
 42
0.075242
  0
VERTEX
  8
0
 10
109.104736
 20
3.115325
 42
0.056903
  0
VERTEX
  8
0
 10
115.672521
 20
6.834554
 42
0.055394
  0
VERTEX
  8
0
 10
121.408898
 20
12.068357
 42
0.062091
  0
VERTEX
  8
0
 10
125.606138
 20
18.250000
 42
-0.019258
  0
VERTEX
  8
0
 10
126.625862
 20
20.068876
 42
-0.026963
  0
VERTEX
  8
0
 10
127.682837
 20
21.602652
 42
-0.025844
  0
VERTEX
  8
0
 10
128.650594
 20
22.730882
 42
-0.206813
  0
VERTEX
  8
0
 10
129.266846
 20
22.993071
 42
0.005686
  0
VERTEX
  8
0
 10
140.154964
 20
23.055705
 42
0.000455
  0
VERTEX
  8
0
 10
168.908854
 20
23.574270
 42
0.000496
  0
VERTEX
  8
0
 10
197.490443
 20
24.144074
 42
0.004877
  0
VERTEX
  8
0
 10
209.531002
 20
24.513589
 42
0.000000
  0
VERTEX
  8
0
 10
223.562005
 20
25.081229
 42
0.000000
  0
VERTEX
  8
0
 10
225.705368
 20
20.669540
 42
0.062263
  0
VERTEX
  8
0
 10
228.578156
 20
16.252220
 42
0.054193
  0
VERTEX
  8
0
 10
232.574830
 20
12.441892
 42
0.052878
  0
VERTEX
  8
0
 10
237.402465
 20
9.497978
 42
0.053239
  0
VERTEX
  8
0
 10
242.729308
 20
7.640228
 42
0.017537
  0
VERTEX
  8
0
 10
246.420822
 20
6.914515
 42
0.046667
  0
VERTEX
  8
0
 10
249.098265
 20
6.738146
 42
0.040015
  0
VERTEX
  8
0
 10
251.987042
 20
7.049818
 42
0.010236
  0
VERTEX
  8
0
 10
256.592004
 20
8.021388
 42
0.012561
  0
VERTEX
  8
0
 10
260.963345
 20
9.154010
 42
0.048365
  0
VERTEX
  8
0
 10
263.571384
 20
10.181514
 42
0.063731
  0
VERTEX
  8
0
 10
265.555622
 20
11.536814
 42
0.033866
  0
VERTEX
  8
0
 10
267.644404
 20
13.662876
 42
0.012905
  0
VERTEX
  8
0
 10
268.950501
 20
15.268004
 42
0.013426
  0
VERTEX
  8
0
 10
270.154294
 20
16.917712
 42
0.013213
  0
VERTEX
  8
0
 10
271.117242
 20
18.396796
 42
0.055480
  0
VERTEX
  8
0
 10
271.568093
 20
19.354866
 42
-0.080709
  0
VERTEX
  8
0
 10
272.037914
 20
20.235563
 42
-0.148670
  0
VERTEX
  8
0
 10
272.690867
 20
20.706152
 42
-0.103995
  0
VERTEX
  8
0
 10
273.669504
 20
20.826207
 42
-0.028061
  0
VERTEX
  8
0
 10
275.225671
 20
20.604866
 42
0.014155
  0
VERTEX
  8
0
 10
276.583633
 20
20.373037
 42
0.009103
  0
VERTEX
  8
0
 10
278.169416
 20
20.177679
 42
0.009149
  0
VERTEX
  8
0
 10
279.729426
 20
20.043073
 42
0.016945
  0
VERTEX
  8
0
 10
281.000000
 20
20.000000
 42
-0.046790
  0
VERTEX
  8
0
 10
282.438771
 20
19.865063
 42
-0.134799
  0
VERTEX
  8
0
 10
283.330959
 20
19.428564
 42
-0.125338
  0
VERTEX
  8
0
 10
283.912903
 20
18.575071
 42
-0.037934
  0
VERTEX
  8
0
 10
284.339299
 20
17.053503
 42
0.118487
  0
VERTEX
  8
0
 10
285.638240
 20
14.245501
 42
0.027853
  0
VERTEX
  8
0
 10
289.094361
 20
10.343197
 42
0.028810
  0
VERTEX
  8
0
 10
293.429781
 20
6.442495
 42
0.036132
  0
VERTEX
  8
0
 10
297.882617
 20
3.377616
 42
0.045139
  0
VERTEX
  8
0
 10
299.862122
 20
2.444788
 42
0.024046
  0
VERTEX
  8
0
 10
302.449124
 20
1.638639
 42
0.021840
  0
VERTEX
  8
0
 10
305.444859
 20
0.999108
 42
0.018014
  0
VERTEX
  8
0
 10
308.683912
 20
0.573577
 42
0.011621
  0
VERTEX
  8
0
 10
312.701319
 20
0.286395
 42
0.042136
  0
VERTEX
  8
0
 10
315.259042
 20
0.378768
 42
0.056482
  0
VERTEX
  8
0
 10
317.358229
 20
0.877295
 42
0.034793
  0
VERTEX
  8
0
 10
319.683912
 20
1.903541
 42
0.068845
  0
VERTEX
  8
0
 10
325.582775
 20
6.137968
 42
0.043824
  0
VERTEX
  8
0
 10
331.183662
 20
12.483667
 42
0.044093
  0
VERTEX
  8
0
 10
335.539488
 20
19.629629
 42
0.075322
  0
VERTEX
  8
0
 10
337.659627
 20
26.272886
 42
0.000000
  0
VERTEX
  8
0
 10
338.284935
 20
30.183349
 42
0.000000
  0
VERTEX
  8
0
 10
347.392468
 20
29.633409
 42
-0.003781
  0
VERTEX
  8
0
 10
351.198478
 20
29.374693
 42
-0.003491
  0
VERTEX
  8
0
 10
355.102889
 20
29.052185
 42
-0.003485
  0
VERTEX
  8
0
 10
358.576772
 20
28.716386
 42
-0.011599
  0
VERTEX
  8
0
 10
360.851410
 20
28.427028
 42
0.026317
  0
VERTEX
  8
0
 10
362.712803
 20
28.245704
 42
0.026750
  0
VERTEX
  8
0
 10
364.572743
 20
28.262448
 42
0.028357
  0
VERTEX
  8
0
 10
366.210498
 20
28.458581
 42
0.071020
  0
VERTEX
  8
0
 10
367.351410
 20
28.833745
 42
-0.020485
  0
VERTEX
  8
0
 10
368.317699
 20
29.263558
 42
-0.013966
  0
VERTEX
  8
0
 10
369.447520
 20
29.675503
 42
-0.014094
  0
VERTEX
  8
0
 10
370.561427
 20
30.012173
 42
-0.027385
  0
VERTEX
  8
0
 10
371.469936
 20
30.206357
 42
0.119242
  0
VERTEX
  8
0
 10
372.435954
 20
30.607037
 42
0.099083
  0
VERTEX
  8
0
 10
373.190244
 20
31.428601
 42
0.064983
  0
VERTEX
  8
0
 10
373.790615
 20
32.789677
 42
0.022605
  0
VERTEX
  8
0
 10
374.302090
 20
34.875751
 42
0.020695
  0
VERTEX
  8
0
 10
374.572726
 20
36.620875
 42
0.027930
  0
VERTEX
  8
0
 10
374.663121
 20
38.215521
 42
0.028170
  0
VERTEX
  8
0
 10
374.591660
 20
39.500753
 42
0.169991
  0
VERTEX
  8
0
 10
374.306168
 20
40.093832
 42
0.119601
  0
VERTEX
  8
0
 10
373.687164
 20
40.471074
 42
0.013403
  0
VERTEX
  8
0
 10
372.092114
 20
40.933976
 42
0.015665
  0
VERTEX
  8
0
 10
370.133025
 20
41.380961
 42
0.012109
  0
VERTEX
  8
0
 10
367.974013
 20
41.748847
 42
0.000000
  0
VERTEX
  8
0
 10
362.500000
 20
42.545721
 42
0.000000
  0
VERTEX
  8
0
 10
362.385837
 20
51.522861
 42
0.002069
  0
VERTEX
  8
0
 10
362.245479
 20
59.850063
 42
0.039189
  0
VERTEX
  8
0
 10
361.987118
 20
62.442547
 42
0.173926
  0
VERTEX
  8
0
 10
361.344612
 20
63.559325
 42
0.177921
  0
VERTEX
  8
0
 10
360.145413
 20
64.000000
 42
-0.214460
  0
VERTEX
  8
0
 10
359.139461
 20
64.452275
 42
-0.122480
  0
VERTEX
  8
0
 10
358.510364
 20
65.654750
 42
-0.041111
  0
VERTEX
  8
0
 10
358.115429
 20
68.164382
 42
-0.004716
  0
VERTEX
  8
0
 10
357.746591
 20
73.876689
 42
0.009393
  0
VERTEX
  8
0
 10
357.455414
 20
77.813209
 42
0.011548
  0
VERTEX
  8
0
 10
357.030045
 20
81.472783
 42
0.010054
  0
VERTEX
  8
0
 10
356.542638
 20
84.513977
 42
0.078252
  0
VERTEX
  8
0
 10
356.071533
 20
85.866339
 42
0.106765
  0
VERTEX
  8
0
 10
354.114527
 20
88.170444
 42
0.078700
  0
VERTEX
  8
0
 10
351.162939
 20
89.770953
 42
0.058271
  0
VERTEX
  8
0
 10
347.049028
 20
90.705558
 42
0.026751
  0
VERTEX
  8
0
 10
341.549660
 20
91.000000
 42
0.000000
  0
VERTEX
  8
0
 10
334.000000
 20
91.000000
 42
0.000000
  0
VERTEX
  8
0
 10
334.000000
 20
96.789901
 42
0.042824
  0
VERTEX
  8
0
 10
333.342589
 20
104.451507
 42
0.042409
  0
VERTEX
  8
0
 10
331.389371
 20
111.915060
 42
0.044545
  0
VERTEX
  8
0
 10
328.344914
 20
118.557556
 42
0.062672
  0
VERTEX
  8
0
 10
324.436046
 20
123.764279
 42
0.084824
  0
VERTEX
  8
0
 10
318.746824
 20
127.933335
 42
0.038154
  0
VERTEX
  8
0
 10
310.143313
 20
131.438573
 42
0.033920
  0
VERTEX
  8
0
 10
299.628823
 20
134.042864
 42
0.026848
  0
VERTEX
  8
0
 10
288.000000
 20
135.460422
 42
0.009794
  0
VERTEX
  8
0
 10
275.100380
 20
136.080479
 42
0.005336
  0
VERTEX
  8
0
 10
259.247419
 20
136.362231
 42
0.005327
  0
VERTEX
  8
0
 10
243.612749
 20
136.306653
 42
0.011262
  0
SEQEND
  0
ENDSEC
  0
EOF
