  0
SECTION
  2
HEADER
  9
$ACADVER
  1
AC1006
  9
$EXTMIN
 10
0.000000
 20
0.000000
 30
0.000000
  9
$EXTMAX
 10
568.000000
 20
239.000000
 30
0.000000
  0
ENDSEC
  0
SECTION
  2
ENTITIES
  0
POLYLINE
  8
0
 66
1
 70
1
  0
VERTEX
  8
0
 10
403.500000
 20
238.351884
 42
-0.005226
  0
VERTEX
  8
0
 10
401.424320
 20
238.222822
 42
-0.000239
  0
VERTEX
  8
0
 10
394.331250
 20
237.859566
 42
-0.000398
  0
VERTEX
  8
0
 10
385.912334
 20
237.439171
 42
-0.000286
  0
VERTEX
  8
0
 10
376.500000
 20
236.982080
 42
0.006007
  0
VERTEX
  8
0
 10
347.459403
 20
235.238501
 42
0.005422
  0
VERTEX
  8
0
 10
317.457747
 20
232.747943
 42
0.005594
  0
VERTEX
  8
0
 10
288.826266
 20
229.734741
 42
0.008472
  0
VERTEX
  8
0
 10
264.000000
 20
226.413600
 42
-0.006645
  0
VERTEX
  8
0
 10
254.186742
 20
225.064310
 42
-0.001691
  0
VERTEX
  8
0
 10
238.238416
 20
223.141781
 42
-0.000767
  0
VERTEX
  8
0
 10
221.611633
 20
221.220363
 42
-0.028169
  0
VERTEX
  8
0
 10
217.788955
 20
221.001490
 42
0.152203
  0
VERTEX
  8
0
 10
215.878581
 20
220.404343
 42
0.070253
  0
VERTEX
  8
0
 10
213.945088
 20
218.619928
 42
0.067404
  0
VERTEX
  8
0
 10
212.493085
 20
216.254803
 42
0.104374
  0
VERTEX
  8
0
 10
212.000000
 20
213.918427
 42
0.092636
  0
VERTEX
  8
0
 10
212.348924
 20
212.051279
 42
0.160984
  0
VERTEX
  8
0
 10
213.341023
 20
210.846083
 42
0.109922
  0
VERTEX
  8
0
 10
215.173192
 20
210.189962
 42
0.031240
  0
VERTEX
  8
0
 10
218.210618
 20
210.000000
 42
0.000000
  0
VERTEX
  8
0
 10
221.257661
 20
210.000000
 42
0.000000
  0
VERTEX
  8
0
 10
220.612966
 20
205.250000
 42
-0.015038
  0
VERTEX
  8
0
 10
220.261710
 20
203.140199
 42
-0.009717
  0
VERTEX
  8
0
 10
219.734579
 20
200.720312
 42
-0.009770
  0
VERTEX
  8
0
 10
219.126576
 20
198.373048
 42
-0.018156
  0
VERTEX
  8
0
 10
218.528028
 20
196.500000
 42
0.010760
  0
VERTEX
  8
0
 10
217.973476
 20
194.849226
 42
0.011179
  0
VERTEX
  8
0
 10
217.497963
 20
193.196906
 42
0.010933
  0
VERTEX
  8
0
 10
217.150365
 20
191.751421
 42
0.046825
  0
VERTEX
  8
0
 10
217.043893
 20
190.872445
 42
-0.073851
  0
VERTEX
  8
0
 10
216.918095
 20
190.158434
 42
-0.042865
  0
VERTEX
  8
0
 10
216.572269
 20
189.357298
 42
-0.041788
  0
VERTEX
  8
0
 10
216.077300
 20
188.596366
 42
-0.054513
  0
VERTEX
  8
0
 10
215.500000
 20
188.000000
 42
0.094531
  0
VERTEX
  8
0
 10
214.923156
 20
187.300468
 42
0.041897
  0
VERTEX
  8
0
 10
214.436166
 20
186.202077
 42
0.039491
  0
VERTEX
  8
0
 10
214.101474
 20
184.916235
 42
0.042737
  0
VERTEX
  8
0
 10
213.984819
 20
183.627555
 42
-0.047639
  0
VERTEX
  8
0
 10
213.609460
 20
179.888697
 42
-0.032681
  0
VERTEX
  8
0
 10
212.510211
 20
175.766525
 42
-0.027843
  0
VERTEX
  8
0
 10
211.088931
 20
172.224714
 42
-0.239046
  0
VERTEX
  8
0
 10
209.785877
 20
171.204559
 42
-0.147382
  0
VERTEX
  8
0
 10
209.092944
 20
171.272487
 42
-0.057001
  0
VERTEX
  8
0
 10
208.239182
 20
171.743627
 42
-0.049995
  0
VERTEX
  8
0
 10
207.370506
 20
172.502506
 42
-0.043230
  0
VERTEX
  8
0
 10
206.621731
 20
173.454559
 42
0.160101
  0
VERTEX
  8
0
 10
203.989236
 20
175.554124
 42
0.121066
  0
VERTEX
  8
0
 10
200.292890
 20
175.980274
 42
0.121368
  0
VERTEX
  8
0
 10
196.827011
 20
174.645025
 42
0.161318
  0
VERTEX
  8
0
 10
194.819131
 20
171.957392
 42
-0.309325
  0
VERTEX
  8
0
 10
194.103454
 20
171.414385
 42
-0.001522
  0
VERTEX
  8
0
 10
184.555213
 20
170.974453
 42
-0.004895
  0
VERTEX
  8
0
 10
172.061402
 20
170.559406
 42
-0.001623
  0
VERTEX
  8
0
 10
153.728977
 20
170.189535
 42
-0.000771
  0
VERTEX
  8
0
 10
128.413210
 20
169.800018
 42
-0.009969
  0
VERTEX
  8
0
 10
118.968485
 20
169.857574
 42
-0.019747
  0
VERTEX
  8
0
 10
113.955997
 20
170.186456
 42
-0.383924
  0
VERTEX
  8
0
 10
112.999132
 20
171.250000
 42
0.094893
  0
VERTEX
  8
0
 10
112.863560
 20
171.959810
 42
0.112868
  0
VERTEX
  8
0
 10
112.477766
 20
172.520436
 42
0.107282
  0
VERTEX
  8
0
 10
111.868897
 20
172.876804
 42
0.079112
  0
VERTEX
  8
0
 10
111.095157
 20
173.000000
 42
-0.090487
  0
VERTEX
  8
0
 10
110.124472
 20
173.177119
 42
-0.218476
  0
VERTEX
  8
0
 10
109.623186
 20
173.684213
 42
-0.106222
  0
VERTEX
  8
0
 10
109.482312
 20
174.700062
 42
-0.014871
  0
VERTEX
  8
0
 10
109.702806
 20
176.820922
 42
0.071659
  0
VERTEX
  8
0
 10
109.673062
 20
179.874666
 42
0.131137
  0
VERTEX
  8
0
 10
108.679088
 20
182.139280
 42
0.139442
  0
VERTEX
  8
0
 10
106.742496
 20
183.519834
 42
0.085764
  0
VERTEX
  8
0
 10
103.963755
 20
184.000000
 42
0.113093
  0
VERTEX
  8
0
 10
101.689128
 20
183.478845
 42
0.139535
  0
VERTEX
  8
0
 10
100.071022
 20
182.037353
 42
0.121628
  0
VERTEX
  8
0
 10
99.315592
 20
179.785792
 42
0.074600
  0
VERTEX
  8
0
 10
99.504765
 20
176.978305
 42
-0.029495
  0
VERTEX
  8
0
 10
99.763768
 20
175.344614
 42
-0.153005
  0
VERTEX
  8
0
 10
99.579691
 20
174.461061
 42
-0.168087
  0
VERTEX
  8
0
 10
98.935851
 20
173.886402
 42
-0.037447
  0
VERTEX
  8
0
 10
97.515805
 20
173.414611
 42
0.042706
  0
VERTEX
  8
0
 10
96.253490
 20
172.980452
 42
0.119783
  0
VERTEX
  8
0
 10
95.517259
 20
172.414871
 42
0.137998
  0
VERTEX
  8
0
 10
95.181857
 20
171.628266
 42
0.064862
  0
VERTEX
  8
0
 10
95.182702
 20
170.513555
 42
-0.094904
  0
VERTEX
  8
0
 10
95.114838
 20
169.363476
 42
-0.069567
  0
VERTEX
  8
0
 10
94.631182
 20
168.177051
 42
-0.055629
  0
VERTEX
  8
0
 10
93.717580
 20
166.942643
 42
-0.030761
  0
VERTEX
  8
0
 10
92.357691
 20
165.647524
 42
0.053076
  0
VERTEX
  8
0
 10
89.796366
 20
162.980781
 42
0.048450
  0
VERTEX
  8
0
 10
87.763491
 20
159.755228
 42
0.049929
  0
VERTEX
  8
0
 10
86.443852
 20
156.309620
 42
0.066594
  0
VERTEX
  8
0
 10
86.000000
 20
152.991882
 42
-0.018000
  0
VERTEX
  8
0
 10
85.938395
 20
151.281176
 42
-0.136079
  0
VERTEX
  8
0
 10
85.669509
 20
150.527019
 42
-0.267293
  0
VERTEX
  8
0
 10
85.150132
 20
150.285394
 42
-0.075726
  0
VERTEX
  8
0
 10
84.250000
 20
150.503857
 42
0.072432
  0
VERTEX
  8
0
 10
80.802211
 20
151.364602
 42
0.020701
  0
VERTEX
  8
0
 10
75.285512
 20
151.688492
 42
0.018773
  0
VERTEX
  8
0
 10
69.835698
 20
151.577885
 42
0.109909
  0
VERTEX
  8
0
 10
67.096399
 20
150.799747
 42
0.069675
  0
VERTEX
  8
0
 10
64.543411
 20
148.919340
 42
0.061963
  0
VERTEX
  8
0
 10
62.486780
 20
146.339702
 42
0.058582
  0
VERTEX
  8
0
 10
61.034132
 20
143.191123
 42
0.050792
  0
VERTEX
  8
0
 10
60.262395
 20
139.635603
 42
-0.016578
  0
VERTEX
  8
0
 10
59.851385
 20
136.828673
 42
-0.124065
  0
VERTEX
  8
0
 10
59.300506
 20
135.612829
 42
-0.154323
  0
VERTEX
  8
0
 10
58.290938
 20
134.933523
 42
-0.029926
  0
VERTEX
  8
0
 10
56.122356
 20
134.434406
 42
0.036276
  0
VERTEX
  8
0
 10
52.123552
 20
133.460469
 42
0.011310
  0
VERTEX
  8
0
 10
46.284190
 20
131.433905
 42
0.011356
  0
VERTEX
  8
0
 10
39.918878
 20
128.896113
 42
0.013258
  0
VERTEX
  8
0
 10
34.000000
 20
126.191594
 42
0.022334
  0
VERTEX
  8
0
 10
30.943888
 20
124.522919
 42
0.060164
  0
VERTEX
  8
0
 10
28.999132
 20
122.999133
 42
0.060139
  0
VERTEX
  8
0
 10
27.472573
 20
121.055799
 42
0.022300
  0
VERTEX
  8
0
 10
25.798677
 20
118.000000
 42
0.014159
  0
VERTEX
  8
0
 10
24.718913
 20
115.634559
 42
0.011950
  0
VERTEX
  8
0
 10
23.708448
 20
113.075071
 42
0.012121
  0
VERTEX
  8
0
 10
22.898951
 20
110.695214
 42
0.032532
  0
VERTEX
  8
0
 10
22.476349
 20
108.957689
 42
0.025210
  0
VERTEX
  8
0
 10
22.227238
 20
106.944915
 42
0.114147
  0
VERTEX
  8
0
 10
22.408156
 20
105.783875
 42
0.134614
  0
VERTEX
  8
0
 10
23.062884
 20
104.921746
 42
0.040590
  0
VERTEX
  8
0
 10
24.458464
 20
104.022230
 42
0.051328
  0
VERTEX
  8
0
 10
26.088113
 20
103.354580
 42
0.097608
  0
VERTEX
  8
0
 10
27.493728
 20
103.225372
 42
0.062567
  0
VERTEX
  8
0
 10
29.228526
 20
103.627733
 42
0.011716
  0
VERTEX
  8
0
 10
32.268693
 20
104.829022
 42
0.000000
  0
VERTEX
  8
0
 10
37.475801
 20
107.028962
 42
0.000000
  0
VERTEX
  8
0
 10
33.840014
 20
103.264481
 42
0.002535
  0
VERTEX
  8
0
 10
29.057824
 20
98.262508
 42
0.015015
  0
VERTEX
  8
0
 10
26.649332
 20
95.559479
 42
0.026009
  0
VERTEX
  8
0
 10
25.330581
 20
93.809558
 42
0.146357
  0
VERTEX
  8
0
 10
24.984944
 20
92.704545
 42
-0.054018
  0
VERTEX
  8
0
 10
24.900796
 20
92.009198
 42
-0.008634
  0
VERTEX
  8
0
 10
24.567288
 20
90.678835
 42
-0.009469
  0
VERTEX
  8
0
 10
24.115873
 20
89.119754
 42
-0.008174
  0
VERTEX
  8
0
 10
23.584280
 20
87.500000
 42
-0.024042
  0
VERTEX
  8
0
 10
22.674909
 20
85.233378
 42
-0.109238
  0
VERTEX
  8
0
 10
21.822389
 20
84.105471
 42
-0.122242
  0
VERTEX
  8
0
 10
20.624384
 20
83.507920
 42
-0.033496
  0
VERTEX
  8
0
 10
18.522893
 20
83.185077
 42
-0.037745
  0
VERTEX
  8
0
 10
16.951704
 20
83.169345
 42
-0.030783
  0
VERTEX
  8
0
 10
15.282872
 20
83.382412
 42
-0.031799
  0
VERTEX
  8
0
 10
13.761095
 20
83.774410
 42
-0.066184
  0
VERTEX
  8
0
 10
12.658890
 20
84.303934
 42
0.055733
  0
VERTEX
  8
0
 10
10.000673
 20
85.649839
 42
0.048988
  0
VERTEX
  8
0
 10
6.993072
 20
86.448128
 42
0.052145
  0
VERTEX
  8
0
 10
4.159421
 20
86.610810
 42
0.111597
  0
VERTEX
  8
0
 10
2.058652
 20
86.031389
 42
0.083509
  0
VERTEX
  8
0
 10
1.054464
 20
85.255204
 42
0.098293
  0
VERTEX
  8
0
 10
0.426962
 20
84.232138
 42
0.067579
  0
VERTEX
  8
0
 10
0.096341
 20
82.748577
 42
0.021083
  0
VERTEX
  8
0
 10
-0.000000
 20
80.464816
 42
0.012900
  0
VERTEX
  8
0
 10
0.068501
 20
77.810201
 42
0.115216
  0
VERTEX
  8
0
 10
0.389983
 20
76.696482
 42
0.209798
  0
VERTEX
  8
0
 10
1.094337
 20
76.164620
 42
0.058357
  0
VERTEX
  8
0
 10
2.500000
 20
76.000000
 42
-0.051947
  0
VERTEX
  8
0
 10
4.362419
 20
75.805983
 42
-0.354636
  0
VERTEX
  8
0
 10
4.903860
 20
75.138613
 42
-0.254069
  0
VERTEX
  8
0
 10
4.409844
 20
74.229160
 42
-0.037030
  0
VERTEX
  8
0
 10
2.500000
 20
73.181954
 42
0.055103
  0
VERTEX
  8
0
 10
1.281717
 20
72.455612
 42
0.102799
  0
VERTEX
  8
0
 10
0.528924
 20
71.594185
 42
0.091969
  0
VERTEX
  8
0
 10
0.132281
 20
70.435819
 42
0.037681
  0
VERTEX
  8
0
 10
0.013655
 20
68.771439
 42
0.052089
  0
VERTEX
  8
0
 10
0.510100
 20
64.203577
 42
0.159412
  0
VERTEX
  8
0
 10
2.061346
 20
61.546920
 42
0.136645
  0
VERTEX
  8
0
 10
5.057675
 20
60.082783
 42
0.034489
  0
VERTEX
  8
0
 10
10.500000
 20
59.459867
 42
0.000018
  0
VERTEX
  8
0
 10
11.907649
 20
59.396517
 42
0.000009
  0
VERTEX
  8
0
 10
13.682468
 20
59.316740
 42
0.000009
  0
VERTEX
  8
0
 10
15.516097
 20
59.234387
 42
0.000014
  0
VERTEX
  8
0
 10
17.121169
 20
59.162372
 42
-0.029851
  0
VERTEX
  8
0
 10
19.379563
 20
58.925522
 42
-0.185824
  0
VERTEX
  8
0
 10
20.364615
 20
58.346200
 42
-0.125431
  0
VERTEX
  8
0
 10
20.910082
 20
57.131759
 42
-0.010859
  0
VERTEX
  8
0
 10
21.424199
 20
53.750000
 42
0.037102
  0
VERTEX
  8
0
 10
21.956351
 20
51.168925
 42
0.013669
  0
VERTEX
  8
0
 10
23.072991
 20
47.619968
 42
0.013461
  0
VERTEX
  8
0
 10
24.508324
 20
43.796139
 42
0.015761
  0
VERTEX
  8
0
 10
26.079602
 20
40.254148
 42
0.038714
  0
VERTEX
  8
0
 10
30.304413
 20
32.984318
 42
0.041259
  0
VERTEX
  8
0
 10
35.520064
 20
26.617034
 42
0.041780
  0
VERTEX
  8
0
 10
41.644696
 20
21.261392
 42
0.041812
  0
VERTEX
  8
0
 10
48.572984
 20
17.000000
 42
0.015897
  0
VERTEX
  8
0
 10
53.050616
 20
14.913521
 42
0.054195
  0
VERTEX
  8
0
 10
56.122807
 20
13.976674
 42
0.040722
  0
VERTEX
  8
0
 10
59.743041
 20
13.590373
 42
0.006226
  0
VERTEX
  8
0
 10
67.000000
 20
13.500000
 42
0.000000
  0
VERTEX
  8
0
 10
78.500000
 20
13.500000
 42
0.000000
  0
VERTEX
  8
0
 10
87.000000
 20
17.765650
 42
0.012634
  0
VERTEX
  8
0
 10
90.536929
 20
19.653962
 42
0.011073
  0
VERTEX
  8
0
 10
94.135326
 20
21.800194
 42
0.011199
  0
VERTEX
  8
0
 10
97.298708
 20
23.883344
 42
0.032390
  0
VERTEX
  8
0
 10
99.354300
 20
25.510206
 42
-0.025188
  0
VERTEX
  8
0
 10
101.785307
 20
27.491745
 42
-0.099571
  0
VERTEX
  8
0
 10
103.526194
 20
28.300785
 42
-0.267567
  0
VERTEX
  8
0
 10
104.548139
 20
27.999894
 42
-0.192727
  0
VERTEX
  8
0
 10
105.000000
 20
26.871158
 42
0.169085
  0
VERTEX
  8
0
 10
106.281706
 20
23.189393
 42
0.018734
  0
VERTEX
  8
0
 10
112.159964
 20
16.315314
 42
0.023803
  0
VERTEX
  8
0
 10
118.881529
 20
9.688923
 42
0.055309
  0
VERTEX
  8
0
 10
124.632403
 20
5.581890
 42
0.077958
  0
VERTEX
  8
0
 10
136.486061
 20
1.200374
 42
0.060411
  0
VERTEX
  8
0
 10
150.224648
 20
0.129602
 42
0.059640
  0
VERTEX
  8
0
 10
164.008974
 20
2.382871
 42
0.071230
  0
VERTEX
  8
0
 10
176.000000
 20
7.786588
 42
0.041329
  0
VERTEX
  8
0
 10
180.203682
 20
10.970474
 42
0.023654
  0
VERTEX
  8
0
 10
184.739656
 20
15.441024
 42
0.023691
  0
VERTEX
  8
0
 10
188.796640
 20
20.277352
 42
0.044793
  0
VERTEX
  8
0
 10
191.502565
 20
24.582947
 42
-0.004314
  0
VERTEX
  8
0
 10
192.416116
 20
26.336895
 42
-0.002690
  0
VERTEX
  8
0
 10
193.515577
 20
28.377491
 42
-0.002698
  0
VERTEX
  8
0
 10
194.621313
 20
30.377809
 42
-0.004894
  0
VERTEX
  8
0
 10
195.550462
 20
32.000000
 42
0.018628
  0
VERTEX
  8
0
 10
196.434139
 20
33.646022
 42
0.010233
  0
VERTEX
  8
0
 10
197.397982
 20
35.720312
 42
0.010189
  0
VERTEX
  8
0
 10
198.291262
 20
37.868145
 42
0.016037
  0
VERTEX
  8
0
 10
198.960521
 20
39.750000
 42
0.000000
  0
VERTEX
  8
0
 10
200.320119
 20
44.000000
 42
0.000000
  0
VERTEX
  8
0
 10
206.435326
 20
44.000000
 42
0.023788
  0
VERTEX
  8
0
 10
209.691067
 20
44.154985
 42
0.006326
  0
VERTEX
  8
0
 10
214.859269
 20
44.714218
 42
0.006401
  0
VERTEX
  8
0
 10
220.726474
 20
45.500627
 42
0.006555
  0
VERTEX
  8
0
 10
226.525266
 20
46.431381
 42
-0.010085
  0
VERTEX
  8
0
 10
232.923978
 20
47.412133
 42
-0.005830
  0
VERTEX
  8
0
 10
240.654297
 20
48.346283
 42
-0.005825
  0
VERTEX
  8
0
 10
248.435677
 20
49.103057
 42
-0.009728
  0
VERTEX
  8
0
 10
255.000000
 20
49.535915
 42
0.000096
  0
VERTEX
  8
0
 10
260.917991
 20
49.811795
 42
0.000103
  0
VERTEX
  8
0
 10
266.709375
 20
50.084084
 42
0.000097
  0
VERTEX
  8
0
 10
271.690216
 20
50.320263
 42
0.000480
  0
VERTEX
  8
0
 10
274.500000
 20
50.456747
 42
-0.006912
  0
VERTEX
  8
0
 10
277.742771
 20
50.572471
 42
-0.000563
  0
VERTEX
  8
0
 10
286.237473
 20
50.748521
 42
-0.000757
  0
VERTEX
  8
0
 10
296.371969
 20
50.931783
 42
-0.000582
  0
VERTEX
  8
0
 10
307.436079
 20
51.102213
 42
0.000000
  0
VERTEX
  8
0
 10
335.372158
 20
51.500000
 42
0.000000
  0
VERTEX
  8
0
 10
336.243314
 20
48.139461
 42
0.098658
  0
VERTEX
  8
0
 10
340.343676
 20
39.658157
 42
0.044842
  0
VERTEX
  8
0
 10
348.657911
 20
30.490728
 42
0.044445
  0
VERTEX
  8
0
 10
358.130824
 20
23.203687
 42
0.142675
  0
VERTEX
  8
0
 10
365.696344
 20
21.000000
 42
-0.047750
  0
VERTEX
  8
0
 10
366.577990
 20
20.915610
 42
-0.067744
  0
VERTEX
  8
0
 10
367.323301
 20
20.663535
 42
-0.087915
  0
VERTEX
  8
0
 10
367.825633
 20
20.292022
 42
-0.191962
  0
VERTEX
  8
0
 10
368.000000
 20
19.854587
 42
0.362497
  0
VERTEX
  8
0
 10
368.438943
 20
19.328700
 42
0.030380
  0
VERTEX
  8
0
 10
370.332583
 20
19.102287
 42
0.022287
  0
VERTEX
  8
0
 10
373.340600
 20
19.061097
 42
0.006043
  0
VERTEX
  8
0
 10
378.098113
 20
19.265610
 42
0.009787
  0
VERTEX
  8
0
 10
383.805708
 20
19.692303
 42
0.031911
  0
VERTEX
  8
0
 10
387.546610
 20
20.288308
 42
0.038696
  0
VERTEX
  8
0
 10
390.785315
 20
21.287129
 42
0.020245
  0
VERTEX
  8
0
 10
394.645848
 20
22.997186
 42
0.050678
  0
VERTEX
  8
0
 10
400.893328
 20
26.903063
 42
0.024154
  0
VERTEX
  8
0
 10
408.099310
 20
33.075628
 42
0.022837
  0
VERTEX
  8
0
 10
414.425437
 20
39.618939
 42
0.089349
  0
VERTEX
  8
0
 10
417.326220
 20
44.407733
 42
-0.074051
  0
VERTEX
  8
0
 10
417.778569
 20
45.208438
 42
-0.129485
  0
VERTEX
  8
0
 10
418.380570
 20
45.667211
 42
-0.114258
  0
VERTEX
  8
0
 10
419.187012
 20
45.802423
 42
-0.050157
  0
VERTEX
  8
0
 10
420.262151
 20
45.627108
 42
0.015309
  0
VERTEX
  8
0
 10
421.242013
 20
45.396383
 42
0.011356
  0
VERTEX
  8
0
 10
422.336899
 20
45.199489
 42
0.011503
  0
VERTEX
  8
0
 10
423.379704
 20
45.060809
 42
0.025279
  0
VERTEX
  8
0
 10
424.182612
 20
45.013655
 42
-0.119487
  0
VERTEX
  8
0
 10
424.872957
 20
44.840348
 42
-0.072839
  0
VERTEX
  8
0
 10
425.556090
 20
44.343074
 42
-0.066164
  0
VERTEX
  8
0
 10
426.128823
 20
43.611195
 42
-0.064783
  0
VERTEX
  8
0
 10
426.495463
 20
42.750000
 42
0.031074
  0
VERTEX
  8
0
 10
428.614846
 20
36.666555
 42
0.032872
  0
VERTEX
  8
0
 10
431.438948
 20
31.010392
 42
0.033185
  0
VERTEX
  8
0
 10
434.951868
 20
25.821749
 42
0.033000
  0
VERTEX
  8
0
 10
439.126450
 20
21.133167
 42
0.009604
  0
VERTEX
  8
0
 10
444.607833
 20
15.942705
 42
0.044348
  0
VERTEX
  8
0
 10
448.081513
 20
13.300354
 42
0.047083
  0
VERTEX
  8
0
 10
451.872468
 20
11.386276
 42
0.011713
  0
VERTEX
  8
0
 10
458.406550
 20
9.000837
 42
0.063664
  0
VERTEX
  8
0
 10
467.573662
 20
7.147722
 42
0.051950
  0
VERTEX
  8
0
 10
477.585764
 20
7.463229
 42
0.051235
  0
VERTEX
  8
0
 10
487.463624
 20
9.856328
 42
0.057676
  0
VERTEX
  8
0
 10
496.235008
 20
14.150804
 42
0.046022
  0
VERTEX
  8
0
 10
504.169885
 20
20.340892
 42
0.052707
  0
VERTEX
  8
0
 10
510.444641
 20
27.626281
 42
0.049719
  0
VERTEX
  8
0
 10
515.326597
 20
36.429645
 42
0.034500
  0
VERTEX
  8
0
 10
519.102008
 20
47.170679
 42
-0.022925
  0
VERTEX
  8
0
 10
519.805904
 20
49.331797
 42
-0.053374
  0
VERTEX
  8
0
 10
520.572116
 20
50.850093
 42
-0.074828
  0
VERTEX
  8
0
 10
521.438972
 20
51.831720
 42
-0.115474
  0
VERTEX
  8
0
 10
522.444895
 20
52.340293
 42
0.028503
  0
VERTEX
  8
0
 10
525.282920
 20
53.203172
 42
0.004922
  0
VERTEX
  8
0
 10
530.538066
 20
55.193211
 42
0.003903
  0
VERTEX
  8
0
 10
535.809945
 20
57.296703
 42
0.046775
  0
VERTEX
  8
0
 10
537.750000
 20
58.309017
 42
0.200859
  0
VERTEX
  8
0
 10
538.630698
 20
59.596494
 42
0.042597
  0
VERTEX
  8
0
 10
538.958536
 20
62.353511
 42
0.042779
  0
VERTEX
  8
0
 10
538.793692
 20
65.502924
 42
0.056440
  0
VERTEX
  8
0
 10
538.081466
 20
68.285729
 42
-0.026812
  0
VERTEX
  8
0
 10
537.600495
 20
69.788727
 42
-0.355786
  0
VERTEX
  8
0
 10
537.825256
 20
70.282003
 42
-0.157763
  0
VERTEX
  8
0
 10
538.574235
 20
70.392650
 42
-0.006254
  0
VERTEX
  8
0
 10
541.331466
 20
69.894380
 42
0.016810
  0
VERTEX
  8
0
 10
543.300264
 20
69.581350
 42
0.008408
  0
VERTEX
  8
0
 10
545.807345
 20
69.311447
 42
0.008338
  0
VERTEX
  8
0
 10
548.414128
 20
69.118843
 42
0.012182
  0
VERTEX
  8
0
 10
550.714816
 20
69.043551
 42
-0.015994
  0
VERTEX
  8
0
 10
553.432300
 20
68.933878
 42
-0.060583
  0
VERTEX
  8
0
 10
555.098515
 20
68.607659
 42
-0.097786
  0
VERTEX
  8
0
 10
556.198308
 20
67.993479
 42
-0.094061
  0
VERTEX
  8
0
 10
557.000000
 20
67.000000
 42
0.124229
  0
VERTEX
  8
0
 10
558.246600
 20
65.630867
 42
0.139330
  0
VERTEX
  8
0
 10
559.940852
 20
65.091623
 42
0.096498
  0
VERTEX
  8
0
 10
562.165696
 20
65.453260
 42
0.038214
  0
VERTEX
  8
0
 10
564.993711
 20
66.750000
 42
0.029738
  0
VERTEX
  8
0
 10
566.834623
 20
67.919028
 42
0.139125
  0
VERTEX
  8
0
 10
567.605617
 20
68.894025
 42
0.114157
  0
VERTEX
  8
0
 10
567.828468
 20
70.230066
 42
0.017061
  0
VERTEX
  8
0
 10
567.565153
 20
72.959598
 42
0.015531
  0
VERTEX
  8
0
 10
567.276705
 20
74.731774
 42
0.018911
  0
VERTEX
  8
0
 10
566.893064
 20
76.368582
 42
0.017732
  0
VERTEX
  8
0
 10
566.475019
 20
77.703413
 42
0.112074
  0
VERTEX
  8
0
 10
566.097765
 20
78.302235
 42
-0.171312
  0
VERTEX
  8
0
 10
565.842558
 20
78.835901
 42
-0.062077
  0
VERTEX
  8
0
 10
565.857257
 20
79.687608
 42
-0.050447
  0
VERTEX
  8
0
 10
566.113971
 20
80.727357
 42
-0.034521
  0
VERTEX
  8
0
 10
566.601203
 20
81.842636
 42
0.039693
  0
VERTEX
  8
0
 10
567.569789
 20
84.123697
 42
0.072847
  0
VERTEX
  8
0
 10
567.924037
 20
86.106820
 42
0.073588
  0
VERTEX
  8
0
 10
567.693255
 20
88.094648
 42
0.041282
  0
VERTEX
  8
0
 10
566.869022
 20
90.388120
 42
0.093785
  0
VERTEX
  8
0
 10
565.883238
 20
91.784986
 42
0.116686
  0
VERTEX
  8
0
 10
564.521246
 20
92.595681
 42
0.050704
  0
VERTEX
  8
0
 10
562.136990
 20
93.087089
 42
0.005967
  0
VERTEX
  8
0
 10
556.731762
 20
93.574895
 42
0.000000
  0
VERTEX
  8
0
 10
547.725480
 20
94.279444
 42
0.000000
  0
VERTEX
  8
0
 10
548.442288
 20
122.389722
 42
-0.002980
  0
VERTEX
  8
0
 10
548.783485
 20
133.233697
 42
-0.004717
  0
VERTEX
  8
0
 10
549.218917
 20
142.521668
 42
-0.001310
  0
VERTEX
  8
0
 10
549.693868
 20
150.575953
 42
-0.178893
  0
VERTEX
  8
0
 10
550.079548
 20
151.450000
 42
0.083677
  0
VERTEX
  8
0
 10
550.433073
 20
151.963832
 42
0.036079
  0
VERTEX
  8
0
 10
550.729617
 20
152.743280
 42
0.034409
  0
VERTEX
  8
0
 10
550.932115
 20
153.637786
 42
0.038478
  0
VERTEX
  8
0
 10
551.000000
 20
154.518612
 42
0.212596
  0
VERTEX
  8
0
 10
550.474963
 20
155.697624
 42
0.154726
  0
VERTEX
  8
0
 10
549.150698
 20
156.298352
 42
0.035575
  0
VERTEX
  8
0
 10
546.126716
 20
156.442803
 42
0.002129
  0
VERTEX
  8
0
 10
537.000000
 20
156.190426
 42
-0.005847
  0
VERTEX
  8
0
 10
531.623991
 20
156.081768
 42
-0.009842
  0
VERTEX
  8
0
 10
527.111699
 20
156.132166
 42
-0.003862
  0
VERTEX
  8
0
 10
523.342191
 20
156.277649
 42
-0.407869
  0
VERTEX
  8
0
 10
523.021598
 20
156.621813
 42
-0.030447
  0
VERTEX
  8
0
 10
523.075366
 20
157.249414
 42
-0.000888
  0
VERTEX
  8
0
 10
523.468728
 20
159.885783
 42
-0.001783
  0
VERTEX
  8
0
 10
523.948524
 20
162.987861
 42
-0.001227
  0
VERTEX
  8
0
 10
524.513412
 20
166.500000
 42
0.004666
  0
VERTEX
  8
0
 10
525.216658
 20
171.072757
 42
0.001604
  0
VERTEX
  8
0
 10
526.151395
 20
177.703125
 42
0.001594
  0
VERTEX
  8
0
 10
527.135632
 20
185.022960
 42
0.001845
  0
VERTEX
  8
0
 10
528.024967
 20
192.000000
 42
-0.002324
  0
VERTEX
  8
0
 10
528.883419
 20
198.683711
 42
-0.002590
  0
VERTEX
  8
0
 10
529.774733
 20
205.121875
 42
-0.002390
  0
VERTEX
  8
0
 10
530.589112
 20
210.601982
 42
-0.013612
  0
VERTEX
  8
0
 10
531.115053
 20
213.500000
 42
0.021080
  0
VERTEX
  8
0
 10
531.493253
 20
215.776914
 42
0.012722
  0
VERTEX
  8
0
 10
531.758235
 20
218.500000
 42
0.012734
  0
VERTEX
  8
0
 10
531.883871
 20
221.223618
 42
0.021731
  0
VERTEX
  8
0
 10
531.831900
 20
223.500000
 42
0.000000
  0
VERTEX
  8
0
 10
531.500000
 20
228.500000
 42
0.000000
  0
VERTEX
  8
0
 10
526.000000
 20
230.262147
 42
0.023611
  0
VERTEX
  8
0
 10
519.996153
 20
231.877594
 42
0.011122
  0
VERTEX
  8
0
 10
512.113062
 20
233.421368
 42
0.010825
  0
VERTEX
  8
0
 10
503.588103
 20
234.705369
 42
0.012902
  0
VERTEX
  8
0
 10
495.500000
 20
235.533559
 42
-0.006173
  0
VERTEX
  8
0
 10
492.059570
 20
235.839123
 42
-0.004838
  0
VERTEX
  8
0
 10
488.335567
 20
236.252707
 42
-0.004893
  0
VERTEX
  8
0
 10
484.878080
 20
236.704970
 42
-0.011950
  0
VERTEX
  8
0
 10
482.344482
 20
237.123604
 42
0.042266
  0
VERTEX
  8
0
 10
476.357279
 20
237.743508
 42
0.000778
  0
VERTEX
  8
0
 10
444.533669
 20
238.288796
 42
0.001357
  0
VERTEX
  8
0
 10
414.045820
 20
238.681014
 42
0.020678
  0
SEQEND
  0
ENDSEC
  0
EOF
