  0
SECTION
  2
HEADER
  9
$ACADVER
  1
AC1006
  9
$EXTMIN
 10
0.000000
 20
0.000000
 30
0.000000
  9
$EXTMAX
 10
1108.000000
 20
487.000000
 30
0.000000
  0
ENDSEC
  0
SECTION
  2
ENTITIES
  0
POLYLINE
  8
0
 66
1
 70
1
  0
VERTEX
  8
0
 10
294.000000
 20
486.767218
 42
-0.183782
  0
VERTEX
  8
0
 10
293.527790
 20
486.554364
 42
-0.000814
  0
VERTEX
  8
0
 10
287.918750
 20
486.226689
 42
-0.003728
  0
VERTEX
  8
0
 10
281.511468
 20
485.910750
 42
-0.002326
  0
VERTEX
  8
0
 10
274.000000
 20
485.631490
 42
0.005208
  0
VERTEX
  8
0
 10
255.598565
 20
484.841137
 42
0.003275
  0
VERTEX
  8
0
 10
234.112662
 20
483.552791
 42
0.002839
  0
VERTEX
  8
0
 10
214.170342
 20
482.112093
 42
0.015784
  0
VERTEX
  8
0
 10
203.500000
 20
480.940501
 42
-0.003216
  0
VERTEX
  8
0
 10
200.179112
 20
480.491145
 42
-0.001544
  0
VERTEX
  8
0
 10
195.912500
 20
479.955125
 42
-0.001530
  0
VERTEX
  8
0
 10
191.456772
 20
479.423148
 42
-0.002187
  0
VERTEX
  8
0
 10
187.500000
 20
478.980553
 42
0.012246
  0
VERTEX
  8
0
 10
172.493553
 20
476.995581
 42
0.004524
  0
VERTEX
  8
0
 10
151.447518
 20
473.490035
 42
0.004057
  0
VERTEX
  8
0
 10
130.949896
 20
469.713226
 42
0.020813
  0
VERTEX
  8
0
 10
119.698183
 20
467.055610
 42
0.020236
  0
VERTEX
  8
0
 10
96.885323
 20
459.646454
 42
0.077686
  0
VERTEX
  8
0
 10
83.896705
 20
452.388657
 42
0.106741
  0
VERTEX
  8
0
 10
75.942669
 20
442.819718
 42
0.058163
  0
VERTEX
  8
0
 10
70.470961
 20
428.484365
 42
0.017706
  0
VERTEX
  8
0
 10
69.069186
 20
422.003776
 42
0.027569
  0
VERTEX
  8
0
 10
68.371120
 20
416.333339
 42
0.015235
  0
VERTEX
  8
0
 10
68.087132
 20
408.640690
 42
0.002100
  0
VERTEX
  8
0
 10
68.051351
 20
392.621775
 42
0.002568
  0
VERTEX
  8
0
 10
68.125881
 20
382.126931
 42
0.003028
  0
VERTEX
  8
0
 10
68.307584
 20
372.195372
 42
0.002652
  0
VERTEX
  8
0
 10
68.556255
 20
363.812196
 42
0.018952
  0
VERTEX
  8
0
 10
68.851523
 20
359.766724
 42
-0.011938
  0
VERTEX
  8
0
 10
69.086342
 20
357.070776
 42
-0.021506
  0
VERTEX
  8
0
 10
69.130705
 20
354.852994
 42
-0.018302
  0
VERTEX
  8
0
 10
69.029466
 20
353.156537
 42
-0.296464
  0
VERTEX
  8
0
 10
68.689611
 20
352.729870
 42
0.333739
  0
VERTEX
  8
0
 10
68.359116
 20
352.251744
 42
0.005636
  0
VERTEX
  8
0
 10
68.531341
 20
348.856959
 42
0.011558
  0
VERTEX
  8
0
 10
68.886698
 20
344.690125
 42
0.006416
  0
VERTEX
  8
0
 10
69.502560
 20
339.626267
 42
-0.004948
  0
VERTEX
  8
0
 10
70.273677
 20
333.437568
 42
-0.017555
  0
VERTEX
  8
0
 10
70.589113
 20
329.451048
 42
-0.022190
  0
VERTEX
  8
0
 10
70.587736
 20
326.789929
 42
-0.187271
  0
VERTEX
  8
0
 10
70.113120
 20
325.713120
 42
0.124835
  0
VERTEX
  8
0
 10
69.304028
 20
324.354160
 42
0.074552
  0
VERTEX
  8
0
 10
69.040397
 20
322.480673
 42
0.074203
  0
VERTEX
  8
0
 10
69.338069
 20
320.602272
 42
0.120605
  0
VERTEX
  8
0
 10
70.171675
 20
319.228325
 42
-0.215681
  0
VERTEX
  8
0
 10
70.503556
 20
318.348058
 42
-0.087396
  0
VERTEX
  8
0
 10
70.193517
 20
317.073730
 42
-0.044025
  0
VERTEX
  8
0
 10
69.169258
 20
315.203291
 42
-0.010370
  0
VERTEX
  8
0
 10
67.126103
 20
312.278325
 42
0.007248
  0
VERTEX
  8
0
 10
60.419616
 20
302.803926
 42
0.024305
  0
VERTEX
  8
0
 10
56.426812
 20
296.333410
 42
0.032781
  0
VERTEX
  8
0
 10
53.741674
 20
290.611165
 42
0.024177
  0
VERTEX
  8
0
 10
51.507330
 20
283.976969
 42
0.003959
  0
VERTEX
  8
0
 10
49.265660
 20
275.832794
 42
0.013308
  0
VERTEX
  8
0
 10
47.983278
 20
270.454446
 42
0.019955
  0
VERTEX
  8
0
 10
47.296413
 20
266.393290
 42
0.029000
  0
VERTEX
  8
0
 10
47.043551
 20
262.769052
 42
-0.024608
  0
VERTEX
  8
0
 10
46.919758
 20
260.738143
 42
-0.107310
  0
VERTEX
  8
0
 10
46.538658
 20
259.602934
 42
-0.142038
  0
VERTEX
  8
0
 10
45.782893
 20
258.897568
 42
-0.055764
  0
VERTEX
  8
0
 10
44.434921
 20
258.394310
 42
-0.062680
  0
VERTEX
  8
0
 10
43.054706
 20
258.226893
 42
-0.088003
  0
VERTEX
  8
0
 10
41.836336
 20
258.448650
 42
-0.072321
  0
VERTEX
  8
0
 10
40.602229
 20
259.122821
 42
-0.029911
  0
VERTEX
  8
0
 10
39.148745
 20
260.357494
 42
0.061003
  0
VERTEX
  8
0
 10
36.439860
 20
262.383352
 42
0.074600
  0
VERTEX
  8
0
 10
33.495638
 20
263.529878
 42
0.092646
  0
VERTEX
  8
0
 10
30.883115
 20
263.628309
 42
0.184803
  0
VERTEX
  8
0
 10
29.106767
 20
262.628647
 42
-0.083753
  0
VERTEX
  8
0
 10
28.371866
 20
261.995754
 42
-0.076509
  0
VERTEX
  8
0
 10
27.447182
 20
261.614445
 42
-0.066332
  0
VERTEX
  8
0
 10
26.334436
 20
261.496126
 42
-0.042740
  0
VERTEX
  8
0
 10
25.043782
 20
261.641244
 42
0.230228
  0
VERTEX
  8
0
 10
21.093241
 20
260.610699
 42
0.114440
  0
VERTEX
  8
0
 10
17.948837
 20
256.344502
 42
0.086125
  0
VERTEX
  8
0
 10
16.405316
 20
249.910389
 42
0.074907
  0
VERTEX
  8
0
 10
17.000740
 20
242.996917
 42
0.013661
  0
VERTEX
  8
0
 10
17.527267
 20
241.039469
 42
0.018259
  0
VERTEX
  8
0
 10
18.117421
 20
239.297222
 42
0.015620
  0
VERTEX
  8
0
 10
18.696537
 20
237.905622
 42
0.148997
  0
VERTEX
  8
0
 10
19.116792
 20
237.427818
 42
-0.265492
  0
VERTEX
  8
0
 10
19.566457
 20
236.601202
 42
-0.255419
  0
VERTEX
  8
0
 10
19.090333
 20
235.771453
 42
-0.078885
  0
VERTEX
  8
0
 10
17.252938
 20
235.011314
 42
-0.022785
  0
VERTEX
  8
0
 10
14.226692
 20
234.431633
 42
0.013714
  0
VERTEX
  8
0
 10
12.335074
 20
234.104736
 42
0.016001
  0
VERTEX
  8
0
 10
10.559996
 20
233.688083
 42
0.015082
  0
VERTEX
  8
0
 10
9.091661
 20
233.245574
 42
0.087141
  0
VERTEX
  8
0
 10
8.381806
 20
232.860800
 42
0.214470
  0
VERTEX
  8
0
 10
7.512568
 20
231.181730
 42
0.005851
  0
VERTEX
  8
0
 10
7.145224
 20
222.734267
 42
0.012761
  0
VERTEX
  8
0
 10
7.092961
 20
214.353157
 42
0.031813
  0
VERTEX
  8
0
 10
7.600004
 20
208.250000
 42
0.000000
  0
VERTEX
  8
0
 10
8.227088
 20
204.000000
 42
0.000000
  0
VERTEX
  8
0
 10
12.865524
 20
204.000000
 42
0.036525
  0
VERTEX
  8
0
 10
17.579193
 20
204.344797
 42
0.006811
  0
VERTEX
  8
0
 10
26.147563
 20
205.724555
 42
0.007608
  0
VERTEX
  8
0
 10
34.838402
 20
207.382431
 42
0.022264
  0
VERTEX
  8
0
 10
40.750000
 20
208.880791
 42
-0.075598
  0
VERTEX
  8
0
 10
42.980054
 20
209.199253
 42
-0.374478
  0
VERTEX
  8
0
 10
43.853766
 20
208.424112
 42
-0.081091
  0
VERTEX
  8
0
 10
43.778543
 20
206.169056
 42
-0.003281
  0
VERTEX
  8
0
 10
42.137193
 20
198.143550
 42
-0.011855
  0
VERTEX
  8
0
 10
41.271377
 20
194.478867
 42
-0.024928
  0
VERTEX
  8
0
 10
40.391685
 20
191.690067
 42
-0.029641
  0
VERTEX
  8
0
 10
39.519502
 20
189.708700
 42
-0.147725
  0
VERTEX
  8
0
 10
38.685477
 20
188.843860
 42
-0.097982
  0
VERTEX
  8
0
 10
37.599675
 20
188.490216
 42
-0.352068
  0
VERTEX
  8
0
 10
37.023484
 20
188.849463
 42
-0.091405
  0
VERTEX
  8
0
 10
36.824644
 20
190.130826
 42
-0.006560
  0
VERTEX
  8
0
 10
36.974381
 20
193.739322
 42
0.126597
  0
VERTEX
  8
0
 10
36.012381
 20
198.552618
 42
0.146435
  0
VERTEX
  8
0
 10
32.869777
 20
201.994881
 42
0.177345
  0
VERTEX
  8
0
 10
28.822173
 20
202.769243
 42
0.185428
  0
VERTEX
  8
0
 10
25.322580
 20
200.724872
 42
-0.083482
  0
VERTEX
  8
0
 10
24.049102
 20
199.587934
 42
-0.039577
  0
VERTEX
  8
0
 10
22.094910
 20
198.562795
 42
-0.029957
  0
VERTEX
  8
0
 10
19.401636
 20
197.597605
 42
-0.013694
  0
VERTEX
  8
0
 10
15.787752
 20
196.648488
 42
0.024511
  0
VERTEX
  8
0
 10
10.069045
 20
195.013592
 42
0.060259
  0
VERTEX
  8
0
 10
6.136505
 20
193.124411
 42
0.091710
  0
VERTEX
  8
0
 10
3.814996
 20
190.956833
 42
0.160550
  0
VERTEX
  8
0
 10
3.000000
 20
188.484124
 42
0.134629
  0
VERTEX
  8
0
 10
3.511093
 20
186.620377
 42
0.076307
  0
VERTEX
  8
0
 10
5.006933
 20
184.799153
 42
0.074086
  0
VERTEX
  8
0
 10
7.038555
 20
183.459492
 42
0.109195
  0
VERTEX
  8
0
 10
9.117471
 20
183.000000
 42
-0.149860
  0
VERTEX
  8
0
 10
9.911799
 20
182.756454
 42
-0.126013
  0
VERTEX
  8
0
 10
10.497859
 20
182.095057
 42
-0.072917
  0
VERTEX
  8
0
 10
10.905080
 20
180.901491
 42
-0.022039
  0
VERTEX
  8
0
 10
11.171390
 20
179.000000
 42
-0.007350
  0
VERTEX
  8
0
 10
11.294943
 20
177.466174
 42
-0.012346
  0
VERTEX
  8
0
 10
11.347895
 20
176.175000
 42
-0.006018
  0
VERTEX
  8
0
 10
11.352413
 20
175.114928
 42
-0.411939
  0
VERTEX
  8
0
 10
11.236588
 20
175.000000
 42
-0.108851
  0
VERTEX
  8
0
 10
11.012523
 20
175.049364
 42
-0.001842
  0
VERTEX
  8
0
 10
9.861631
 20
175.587500
 42
-0.004623
  0
VERTEX
  8
0
 10
8.525305
 20
176.233527
 42
-0.003047
  0
VERTEX
  8
0
 10
7.000000
 20
177.000000
 42
0.020123
  0
VERTEX
  8
0
 10
3.371563
 20
178.670686
 42
0.135203
  0
VERTEX
  8
0
 10
1.422029
 20
178.910681
 42
0.275577
  0
VERTEX
  8
0
 10
0.366868
 20
178.050246
 42
0.087446
  0
VERTEX
  8
0
 10
0.000000
 20
175.968615
 42
0.042163
  0
VERTEX
  8
0
 10
0.105577
 20
174.718840
 42
0.056447
  0
VERTEX
  8
0
 10
0.421176
 20
173.626775
 42
0.067387
  0
VERTEX
  8
0
 10
0.901561
 20
172.804388
 42
0.136118
  0
VERTEX
  8
0
 10
1.500000
 20
172.361626
 42
-0.144485
  0
VERTEX
  8
0
 10
2.136013
 20
171.874715
 42
-0.073255
  0
VERTEX
  8
0
 10
2.609491
 20
170.974439
 42
-0.054978
  0
VERTEX
  8
0
 10
2.904744
 20
169.702439
 42
-0.029567
  0
VERTEX
  8
0
 10
3.000000
 20
168.093011
 42
0.051080
  0
VERTEX
  8
0
 10
3.299232
 20
165.171587
 42
0.137849
  0
VERTEX
  8
0
 10
4.250234
 20
163.336437
 42
0.145932
  0
VERTEX
  8
0
 10
5.977434
 20
162.327007
 42
0.059840
  0
VERTEX
  8
0
 10
8.700000
 20
162.000000
 42
-0.028044
  0
VERTEX
  8
0
 10
10.744839
 20
161.885217
 42
-0.209460
  0
VERTEX
  8
0
 10
11.566667
 20
161.409091
 42
-0.147203
  0
VERTEX
  8
0
 10
11.930634
 20
160.381613
 42
-0.012034
  0
VERTEX
  8
0
 10
12.000000
 20
157.500000
 42
-0.011803
  0
VERTEX
  8
0
 10
11.959268
 20
155.774725
 42
-0.019466
  0
VERTEX
  8
0
 10
11.833813
 20
154.321875
 42
-0.014217
  0
VERTEX
  8
0
 10
11.658150
 20
153.186461
 42
-0.361878
  0
VERTEX
  8
0
 10
11.434259
 20
153.000000
 42
-0.119106
  0
VERTEX
  8
0
 10
10.286588
 20
153.277324
 42
-0.021759
  0
VERTEX
  8
0
 10
8.374045
 20
154.366547
 42
-0.024068
  0
VERTEX
  8
0
 10
6.524041
 20
155.657736
 42
-0.069568
  0
VERTEX
  8
0
 10
5.433903
 20
156.772083
 42
0.149602
  0
VERTEX
  8
0
 10
3.938419
 20
157.881568
 42
0.195752
  0
VERTEX
  8
0
 10
2.254390
 20
157.805186
 42
0.160572
  0
VERTEX
  8
0
 10
0.858217
 20
156.503557
 42
0.101555
  0
VERTEX
  8
0
 10
0.195248
 20
154.357209
 42
0.159971
  0
VERTEX
  8
0
 10
0.860350
 20
151.384133
 42
0.119092
  0
VERTEX
  8
0
 10
3.227504
 20
148.964357
 42
0.093009
  0
VERTEX
  8
0
 10
7.012270
 20
147.479640
 42
0.063383
  0
VERTEX
  8
0
 10
11.638647
 20
147.193550
 42
0.000000
  0
VERTEX
  8
0
 10
16.358549
 20
147.500000
 42
0.000000
  0
VERTEX
  8
0
 10
17.545532
 20
152.791962
 42
-0.037320
  0
VERTEX
  8
0
 10
18.577464
 20
156.184898
 42
-0.073904
  0
VERTEX
  8
0
 10
19.965885
 20
158.624532
 42
-0.087583
  0
VERTEX
  8
0
 10
21.822756
 20
160.290094
 42
-0.073685
  0
VERTEX
  8
0
 10
24.250000
 20
161.343077
 42
-0.069896
  0
VERTEX
  8
0
 10
25.050802
 20
161.441788
 42
-0.177111
  0
VERTEX
  8
0
 10
25.589853
 20
161.234257
 42
-0.159967
  0
VERTEX
  8
0
 10
25.902084
 20
160.707973
 42
-0.054608
  0
VERTEX
  8
0
 10
26.000000
 20
159.814110
 42
0.071912
  0
VERTEX
  8
0
 10
26.136017
 20
158.873276
 42
0.030780
  0
VERTEX
  8
0
 10
26.571086
 20
157.676544
 42
0.029662
  0
VERTEX
  8
0
 10
27.200020
 20
156.436989
 42
0.034431
  0
VERTEX
  8
0
 10
27.944124
 20
155.343906
 42
-0.037547
  0
VERTEX
  8
0
 10
28.648528
 20
154.295168
 42
-0.041769
  0
VERTEX
  8
0
 10
29.159921
 20
153.188609
 42
-0.045998
  0
VERTEX
  8
0
 10
29.424245
 20
152.184850
 42
-0.133781
  0
VERTEX
  8
0
 10
29.352961
 20
151.477418
 42
0.142988
  0
VERTEX
  8
0
 10
29.179681
 20
149.378175
 42
0.046829
  0
VERTEX
  8
0
 10
30.092099
 20
146.378531
 42
0.046393
  0
VERTEX
  8
0
 10
31.520686
 20
143.645108
 42
0.174013
  0
VERTEX
  8
0
 10
33.036037
 20
142.488562
 42
0.118922
  0
VERTEX
  8
0
 10
35.208111
 20
142.334961
 42
0.018567
  0
VERTEX
  8
0
 10
39.449967
 20
143.209247
 42
0.013589
  0
VERTEX
  8
0
 10
45.778756
 20
144.944227
 42
0.003515
  0
VERTEX
  8
0
 10
55.877146
 20
148.087654
 42
-0.003170
  0
VERTEX
  8
0
 10
59.486024
 20
149.213758
 42
-0.005210
  0
VERTEX
  8
0
 10
62.555116
 20
150.115274
 42
-0.001129
  0
VERTEX
  8
0
 10
65.238618
 20
150.866706
 42
-0.327103
  0
VERTEX
  8
0
 10
65.442752
 20
150.789520
 42
-0.082142
  0
VERTEX
  8
0
 10
65.550615
 20
150.543448
 42
-0.000296
  0
VERTEX
  8
0
 10
66.333595
 20
147.459153
 42
-0.001567
  0
VERTEX
  8
0
 10
67.208313
 20
143.958850
 42
-0.000982
  0
VERTEX
  8
0
 10
68.210765
 20
139.858660
 42
0.027668
  0
VERTEX
  8
0
 10
72.631463
 20
125.212804
 42
0.037241
  0
VERTEX
  8
0
 10
78.314393
 20
112.586076
 42
0.037564
  0
VERTEX
  8
0
 10
85.764389
 20
101.025567
 42
0.028899
  0
VERTEX
  8
0
 10
95.500000
 20
89.591209
 42
0.056144
  0
VERTEX
  8
0
 10
101.023406
 20
84.981075
 42
0.026044
  0
VERTEX
  8
0
 10
109.090235
 20
80.240802
 42
0.024769
  0
VERTEX
  8
0
 10
118.437186
 20
75.957853
 42
0.026117
  0
VERTEX
  8
0
 10
128.000000
 20
72.704583
 42
0.021413
  0
VERTEX
  8
0
 10
132.642184
 20
71.603550
 42
0.026294
  0
VERTEX
  8
0
 10
137.054443
 20
70.993089
 42
0.018259
  0
VERTEX
  8
0
 10
142.621862
 20
70.723442
 42
0.004870
  0
VERTEX
  8
0
 10
151.500000
 20
70.704433
 42
0.004279
  0
VERTEX
  8
0
 10
161.010256
 20
70.858103
 42
0.023299
  0
VERTEX
  8
0
 10
166.146809
 20
71.224977
 42
0.035932
  0
VERTEX
  8
0
 10
170.177520
 20
71.999013
 42
0.020458
  0
VERTEX
  8
0
 10
174.917216
 20
73.477998
 42
0.023558
  0
VERTEX
  8
0
 10
184.223164
 20
77.308542
 42
0.026206
  0
VERTEX
  8
0
 10
192.792035
 20
81.879015
 42
0.027827
  0
VERTEX
  8
0
 10
200.320360
 20
87.007719
 42
0.037038
  0
VERTEX
  8
0
 10
206.500000
 20
92.512617
 42
0.040763
  0
VERTEX
  8
0
 10
210.422493
 20
97.288928
 42
0.016786
  0
VERTEX
  8
0
 10
214.963000
 20
104.333763
 42
0.016822
  0
VERTEX
  8
0
 10
219.033130
 20
111.691115
 42
0.039278
  0
VERTEX
  8
0
 10
221.442276
 20
117.500000
 42
-0.018980
  0
VERTEX
  8
0
 10
223.236284
 20
122.375592
 42
-0.182974
  0
VERTEX
  8
0
 10
224.719327
 20
123.959632
 42
-0.128951
  0
VERTEX
  8
0
 10
227.110152
 20
124.443991
 42
-0.007731
  0
VERTEX
  8
0
 10
234.500000
 20
123.910531
 42
-0.000100
  0
VERTEX
  8
0
 10
239.531368
 20
123.468013
 42
-0.000036
  0
VERTEX
  8
0
 10
246.703125
 20
122.835272
 42
-0.000036
  0
VERTEX
  8
0
 10
254.566915
 20
122.140340
 42
-0.000042
  0
VERTEX
  8
0
 10
262.000000
 20
121.482302
 42
0.000034
  0
VERTEX
  8
0
 10
269.505846
 20
120.817692
 42
0.000027
  0
VERTEX
  8
0
 10
277.590625
 20
120.102804
 42
0.000027
  0
VERTEX
  8
0
 10
285.070162
 20
119.442250
 42
0.000069
  0
VERTEX
  8
0
 10
290.500000
 20
118.963767
 42
0.002223
  0
VERTEX
  8
0
 10
295.805644
 20
118.520730
 42
0.000981
  0
VERTEX
  8
0
 10
302.821875
 20
117.980110
 42
0.000971
  0
VERTEX
  8
0
 10
310.261129
 20
117.436111
 42
0.001307
  0
VERTEX
  8
0
 10
317.000000
 20
116.974184
 42
-0.004691
  0
VERTEX
  8
0
 10
328.598345
 20
116.100247
 42
-0.002488
  0
VERTEX
  8
0
 10
342.952954
 20
114.811106
 42
-0.002144
  0
VERTEX
  8
0
 10
359.891650
 20
113.131577
 42
-0.001383
  0
VERTEX
  8
0
 10
379.500000
 20
111.047573
 42
0.001483
  0
VERTEX
  8
0
 10
383.456830
 20
110.627833
 42
0.001042
  0
VERTEX
  8
0
 10
387.912500
 20
110.177915
 42
0.001051
  0
VERTEX
  8
0
 10
392.179417
 20
109.765090
 42
0.002202
  0
VERTEX
  8
0
 10
395.500000
 20
109.465617
 42
-0.002172
  0
VERTEX
  8
0
 10
399.121468
 20
109.139230
 42
-0.000676
  0
VERTEX
  8
0
 10
404.556250
 20
108.618190
 42
-0.000676
  0
VERTEX
  8
0
 10
410.626641
 20
108.019637
 42
-0.000746
  0
VERTEX
  8
0
 10
416.500000
 20
107.423643
 42
0.002772
  0
VERTEX
  8
0
 10
423.238284
 20
106.767452
 42
0.001237
  0
VERTEX
  8
0
 10
432.115625
 20
105.974752
 42
0.001225
  0
VERTEX
  8
0
 10
441.510477
 20
105.182453
 42
0.001660
  0
VERTEX
  8
0
 10
450.000000
 20
104.515816
 42
-0.001076
  0
VERTEX
  8
0
 10
465.971010
 20
103.280482
 42
-0.000862
  0
VERTEX
  8
0
 10
483.165169
 20
101.883488
 42
-0.000706
  0
VERTEX
  8
0
 10
503.426060
 20
100.173362
 42
-0.000355
  0
VERTEX
  8
0
 10
529.000000
 20
97.960126
 42
0.003795
  0
VERTEX
  8
0
 10
539.468675
 20
97.126657
 42
0.002002
  0
VERTEX
  8
0
 10
552.475656
 20
96.242727
 42
0.001992
  0
VERTEX
  8
0
 10
565.798020
 20
95.444220
 42
0.003074
  0
VERTEX
  8
0
 10
577.321384
 20
94.870639
 42
0.002486
  0
VERTEX
  8
0
 10
592.236998
 20
94.294387
 42
0.012138
  0
VERTEX
  8
0
 10
600.684208
 20
94.215254
 42
0.019131
  0
VERTEX
  8
0
 10
607.198002
 20
94.561888
 42
0.014390
  0
VERTEX
  8
0
 10
614.321384
 20
95.422275
 42
0.011287
  0
VERTEX
  8
0
 10
627.114043
 20
97.638685
 42
0.017964
  0
VERTEX
  8
0
 10
637.926844
 20
100.171019
 42
0.021095
  0
VERTEX
  8
0
 10
646.893078
 20
103.024971
 42
0.036791
  0
VERTEX
  8
0
 10
654.000000
 20
106.231965
 42
0.004796
  0
VERTEX
  8
0
 10
661.315630
 20
110.295579
 42
0.007040
  0
VERTEX
  8
0
 10
667.661903
 20
114.019979
 42
0.003111
  0
VERTEX
  8
0
 10
673.015375
 20
117.309638
 42
0.149945
  0
VERTEX
  8
0
 10
673.833333
 20
118.250000
 42
-0.209433
  0
VERTEX
  8
0
 10
674.152988
 20
118.541682
 42
-0.030208
  0
VERTEX
  8
0
 10
675.025243
 20
118.779688
 42
-0.029999
  0
VERTEX
  8
0
 10
676.151370
 20
118.945281
 42
-0.021509
  0
VERTEX
  8
0
 10
677.422814
 20
119.000000
 42
-0.033202
  0
VERTEX
  8
0
 10
683.130398
 20
118.620571
 42
-0.002331
  0
VERTEX
  8
0
 10
699.012667
 20
116.424152
 42
-0.003591
  0
VERTEX
  8
0
 10
714.948248
 20
114.027711
 42
-0.010351
  0
VERTEX
  8
0
 10
725.945124
 20
112.059020
 42
0.004842
  0
VERTEX
  8
0
 10
730.085216
 20
111.270685
 42
0.005656
  0
VERTEX
  8
0
 10
734.031186
 20
110.604837
 42
0.005039
  0
VERTEX
  8
0
 10
737.376828
 20
110.113634
 42
0.033938
  0
VERTEX
  8
0
 10
739.049043
 20
110.000000
 42
-0.027490
  0
VERTEX
  8
0
 10
740.171693
 20
109.938231
 42
-0.033978
  0
VERTEX
  8
0
 10
741.202489
 20
109.752937
 42
-0.036222
  0
VERTEX
  8
0
 10
742.018859
 20
109.484030
 42
-0.157947
  0
VERTEX
  8
0
 10
742.401774
 20
109.158933
 42
-0.092196
  0
VERTEX
  8
0
 10
742.661922
 20
108.487618
 42
-0.001660
  0
VERTEX
  8
0
 10
743.362670
 20
104.690817
 42
-0.004075
  0
VERTEX
  8
0
 10
744.130677
 20
100.244459
 42
-0.002701
  0
VERTEX
  8
0
 10
744.942965
 20
95.129399
 42
0.012244
  0
VERTEX
  8
0
 10
746.394412
 20
86.994916
 42
0.018158
  0
VERTEX
  8
0
 10
748.096839
 20
79.958195
 42
0.015137
  0
VERTEX
  8
0
 10
750.532135
 20
72.194492
 42
0.005731
  0
VERTEX
  8
0
 10
754.383773
 20
61.500000
 42
0.029736
  0
VERTEX
  8
0
 10
755.955068
 20
57.949122
 42
0.005652
  0
VERTEX
  8
0
 10
759.267533
 20
51.699308
 42
0.002623
  0
VERTEX
  8
0
 10
762.856045
 20
45.191315
 42
0.108909
  0
VERTEX
  8
0
 10
763.913895
 20
44.000000
 42
-0.068654
  0
VERTEX
  8
0
 10
764.325190
 20
43.605312
 42
-0.003860
  0
VERTEX
  8
0
 10
765.413558
 20
42.206395
 42
-0.005875
  0
VERTEX
  8
0
 10
766.680317
 20
40.511088
 42
-0.004268
  0
VERTEX
  8
0
 10
768.051487
 20
38.596237
 42
0.053650
  0
VERTEX
  8
0
 10
778.640190
 20
26.525637
 42
0.039632
  0
VERTEX
  8
0
 10
792.640452
 20
15.563487
 42
0.039344
  0
VERTEX
  8
0
 10
808.335212
 20
6.858173
 42
0.050115
  0
VERTEX
  8
0
 10
824.000000
 20
1.534188
 42
0.040086
  0
VERTEX
  8
0
 10
831.537306
 20
0.415498
 42
0.016943
  0
VERTEX
  8
0
 10
841.768191
 20
0.074353
 42
0.016112
  0
VERTEX
  8
0
 10
853.178747
 20
0.448421
 42
0.016112
  0
VERTEX
  8
0
 10
864.541536
 20
1.556509
 42
0.009180
  0
VERTEX
  8
0
 10
871.615137
 20
2.609609
 42
0.030711
  0
VERTEX
  8
0
 10
876.182171
 20
3.667172
 42
0.032220
  0
VERTEX
  8
0
 10
880.471472
 20
5.249308
 42
0.010888
  0
VERTEX
  8
0
 10
886.500000
 20
8.084232
 42
0.004193
  0
VERTEX
  8
0
 10
896.455450
 20
13.137856
 42
0.030213
  0
VERTEX
  8
0
 10
901.073093
 20
15.896542
 42
0.038716
  0
VERTEX
  8
0
 10
904.863383
 20
18.938628
 42
0.009401
  0
VERTEX
  8
0
 10
910.616357
 20
24.545297
 42
0.030512
  0
VERTEX
  8
0
 10
919.890759
 20
35.152337
 42
0.037837
  0
VERTEX
  8
0
 10
927.095074
 20
46.104788
 42
0.039077
  0
VERTEX
  8
0
 10
932.388779
 20
57.706353
 42
0.036556
  0
VERTEX
  8
0
 10
935.953437
 20
70.250000
 42
-0.010091
  0
VERTEX
  8
0
 10
936.455560
 20
72.454162
 42
-0.016150
  0
VERTEX
  8
0
 10
936.982381
 20
74.310938
 42
-0.010105
  0
VERTEX
  8
0
 10
937.487225
 20
75.789795
 42
-0.315267
  0
VERTEX
  8
0
 10
937.787465
 20
76.000000
 42
-0.075308
  0
VERTEX
  8
0
 10
938.211131
 20
75.935825
 42
-0.004495
  0
VERTEX
  8
0
 10
939.446248
 20
75.540654
 42
-0.006672
  0
VERTEX
  8
0
 10
940.912235
 20
75.035261
 42
-0.004870
  0
VERTEX
  8
0
 10
942.527702
 20
74.436270
 42
-0.029501
  0
VERTEX
  8
0
 10
944.582452
 20
73.509306
 42
-0.068521
  0
VERTEX
  8
0
 10
945.955641
 20
72.529786
 42
-0.079672
  0
VERTEX
  8
0
 10
946.888247
 20
71.316536
 42
-0.052496
  0
VERTEX
  8
0
 10
947.561135
 20
69.686270
 42
0.033160
  0
VERTEX
  8
0
 10
948.254389
 20
67.803743
 42
0.167200
  0
VERTEX
  8
0
 10
949.007680
 20
66.995914
 42
0.124078
  0
VERTEX
  8
0
 10
950.223923
 20
66.695582
 42
0.015018
  0
VERTEX
  8
0
 10
953.000000
 20
66.792333
 42
-0.006987
  0
VERTEX
  8
0
 10
958.718555
 20
67.083648
 42
-0.007491
  0
VERTEX
  8
0
 10
964.311631
 20
67.206393
 42
-0.006604
  0
VERTEX
  8
0
 10
970.480424
 20
67.167857
 42
-0.003669
  0
VERTEX
  8
0
 10
978.000000
 20
66.966342
 42
0.013537
  0
VERTEX
  8
0
 10
983.235203
 20
66.929390
 42
0.010716
  0
VERTEX
  8
0
 10
988.890958
 20
67.163925
 42
0.010405
  0
VERTEX
  8
0
 10
994.725395
 20
67.653323
 42
0.010591
  0
VERTEX
  8
0
 10
1000.500000
 20
68.382899
 42
0.027917
  0
VERTEX
  8
0
 10
1010.598322
 20
70.458078
 42
0.038678
  0
VERTEX
  8
0
 10
1019.322205
 20
73.502997
 42
0.036721
  0
VERTEX
  8
0
 10
1027.804287
 20
77.989598
 42
0.021969
  0
VERTEX
  8
0
 10
1037.197902
 20
84.469730
 42
0.019161
  0
VERTEX
  8
0
 10
1045.470772
 20
91.243916
 42
0.034411
  0
VERTEX
  8
0
 10
1051.624394
 20
97.494807
 42
0.029589
  0
VERTEX
  8
0
 10
1057.438385
 20
105.149073
 42
0.010606
  0
VERTEX
  8
0
 10
1064.824413
 20
116.691868
 42
-0.062438
  0
VERTEX
  8
0
 10
1066.579997
 20
118.895406
 42
-0.021371
  0
VERTEX
  8
0
 10
1069.627308
 20
121.625867
 42
-0.016669
  0
VERTEX
  8
0
 10
1073.929076
 20
124.927031
 42
-0.007420
  0
VERTEX
  8
0
 10
1079.801915
 20
129.000000
 42
-0.002450
  0
VERTEX
  8
0
 10
1084.850825
 20
132.355929
 42
-0.003094
  0
VERTEX
  8
0
 10
1089.555685
 20
135.408506
 42
-0.002457
  0
VERTEX
  8
0
 10
1093.528758
 20
137.924062
 42
-0.024803
  0
VERTEX
  8
0
 10
1095.238070
 20
138.880021
 42
0.080518
  0
VERTEX
  8
0
 10
1099.206641
 20
141.719356
 42
0.057497
  0
VERTEX
  8
0
 10
1102.622524
 20
145.993813
 42
0.093754
  0
VERTEX
  8
0
 10
1104.017173
 20
149.564233
 42
0.469627
  0
VERTEX
  8
0
 10
1102.825686
 20
151.000000
 42
-0.397222
  0
VERTEX
  8
0
 10
1102.590976
 20
151.221396
 42
-0.125802
  0
VERTEX
  8
0
 10
1102.691811
 20
151.740309
 42
-0.054654
  0
VERTEX
  8
0
 10
1103.190781
 20
152.551572
 42
-0.023398
  0
VERTEX
  8
0
 10
1104.018979
 20
153.520203
 42
0.058950
  0
VERTEX
  8
0
 10
1105.202419
 20
155.121602
 42
0.051438
  0
VERTEX
  8
0
 10
1106.044676
 20
157.028725
 42
0.037617
  0
VERTEX
  8
0
 10
1106.659492
 20
159.564192
 42
0.014063
  0
VERTEX
  8
0
 10
1107.151022
 20
163.194708
 42
0.007732
  0
VERTEX
  8
0
 10
1107.555815
 20
167.631584
 42
0.063736
  0
VERTEX
  8
0
 10
1107.451093
 20
169.652149
 42
0.114046
  0
VERTEX
  8
0
 10
1106.839341
 20
171.074466
 42
0.047557
  0
VERTEX
  8
0
 10
1105.440787
 20
172.642458
 42
-0.038215
  0
VERTEX
  8
0
 10
1104.179890
 20
174.004119
 42
-0.091273
  0
VERTEX
  8
0
 10
1103.535696
 20
175.216057
 42
-0.084075
  0
VERTEX
  8
0
 10
1103.336827
 20
176.640010
 42
-0.028980
  0
VERTEX
  8
0
 10
1103.517937
 20
178.717953
 42
0.022180
  0
VERTEX
  8
0
 10
1103.671537
 20
180.240698
 42
0.026173
  0
VERTEX
  8
0
 10
1103.677103
 20
181.688753
 42
0.026461
  0
VERTEX
  8
0
 10
1103.554803
 20
182.890722
 42
0.126006
  0
VERTEX
  8
0
 10
1103.284879
 20
183.520354
 42
0.102341
  0
VERTEX
  8
0
 10
1102.015161
 20
184.614218
 42
0.027147
  0
VERTEX
  8
0
 10
1099.597296
 20
185.790780
 42
0.028241
  0
VERTEX
  8
0
 10
1097.000758
 20
186.715504
 42
0.071538
  0
VERTEX
  8
0
 10
1095.022498
 20
187.000000
 42
-0.093751
  0
VERTEX
  8
0
 10
1094.210534
 20
187.153594
 42
-0.105907
  0
VERTEX
  8
0
 10
1093.549927
 20
187.591079
 42
-0.095504
  0
VERTEX
  8
0
 10
1093.079197
 20
188.302715
 42
-0.063307
  0
VERTEX
  8
0
 10
1092.819551
 20
189.250000
 42
0.163095
  0
VERTEX
  8
0
 10
1091.902719
 20
191.080123
 42
0.192203
  0
VERTEX
  8
0
 10
1090.131538
 20
191.835779
 42
0.136656
  0
VERTEX
  8
0
 10
1087.813286
 20
191.248408
 42
0.076049
  0
VERTEX
  8
0
 10
1085.514899
 20
189.421576
 42
0.041373
  0
VERTEX
  8
0
 10
1084.369718
 20
187.960291
 42
0.053680
  0
VERTEX
  8
0
 10
1083.592289
 20
186.447673
 42
0.053005
  0
VERTEX
  8
0
 10
1083.148158
 20
184.788744
 42
0.038938
  0
VERTEX
  8
0
 10
1083.000000
 20
182.889161
 42
-0.064175
  0
VERTEX
  8
0
 10
1082.664169
 20
180.283428
 42
-0.136843
  0
VERTEX
  8
0
 10
1081.648830
 20
178.543932
 42
-0.098971
  0
VERTEX
  8
0
 10
1079.630057
 20
177.240958
 42
-0.024144
  0
VERTEX
  8
0
 10
1075.860613
 20
175.960024
 42
-0.025922
  0
VERTEX
  8
0
 10
1074.059991
 20
175.543227
 42
-0.267878
  0
VERTEX
  8
0
 10
1073.370862
 20
175.793085
 42
-0.166786
  0
VERTEX
  8
0
 10
1073.052750
 20
176.615757
 42
-0.009611
  0
VERTEX
  8
0
 10
1073.000000
 20
179.359707
 42
0.023617
  0
VERTEX
  8
0
 10
1072.905293
 20
181.363684
 42
0.011053
  0
VERTEX
  8
0
 10
1072.603173
 20
183.944053
 42
0.010923
  0
VERTEX
  8
0
 10
1072.166556
 20
186.640952
 42
0.015049
  0
VERTEX
  8
0
 10
1071.649100
 20
189.039901
 42
-0.002022
  0
VERTEX
  8
0
 10
1071.035797
 20
191.562472
 42
-0.001107
  0
VERTEX
  8
0
 10
1070.303536
 20
194.658596
 42
-0.001103
  0
VERTEX
  8
0
 10
1069.573787
 20
197.806152
 42
-0.001760
  0
VERTEX
  8
0
 10
1068.965462
 20
200.500000
 42
0.016001
  0
VERTEX
  8
0
 10
1068.249325
 20
203.297915
 42
0.007976
  0
VERTEX
  8
0
 10
1067.173583
 20
206.793750
 42
0.007908
  0
VERTEX
  8
0
 10
1065.943229
 20
210.382341
 42
0.011534
  0
VERTEX
  8
0
 10
1064.736955
 20
213.500000
 42
-0.003727
  0
VERTEX
  8
0
 10
1061.833983
 20
220.668232
 42
-0.110957
  0
VERTEX
  8
0
 10
1061.531252
 20
222.588968
 42
-0.286117
  0
VERTEX
  8
0
 10
1062.344225
 20
223.722862
 42
-0.032532
  0
VERTEX
  8
0
 10
1065.467613
 20
224.780095
 42
0.071193
  0
VERTEX
  8
0
 10
1069.116866
 20
226.338005
 42
0.158235
  0
VERTEX
  8
0
 10
1071.067638
 20
228.601669
 42
0.114000
  0
VERTEX
  8
0
 10
1071.673698
 20
232.123814
 42
0.028268
  0
VERTEX
  8
0
 10
1071.008315
 20
237.979833
 42
0.009834
  0
VERTEX
  8
0
 10
1069.910915
 20
243.706734
 42
0.019973
  0
VERTEX
  8
0
 10
1068.781471
 20
248.149757
 42
0.016984
  0
VERTEX
  8
0
 10
1067.690626
 20
251.410465
 42
0.313173
  0
VERTEX
  8
0
 10
1066.841712
 20
252.000000
 42
-0.122838
  0
VERTEX
  8
0
 10
1066.520693
 20
252.080075
 42
-0.100768
  0
VERTEX
  8
0
 10
1066.247253
 20
252.305645
 42
-0.091032
  0
VERTEX
  8
0
 10
1066.063539
 20
252.643041
 42
-0.079429
  0
VERTEX
  8
0
 10
1066.000000
 20
253.040493
 42
0.146569
  0
VERTEX
  8
0
 10
1065.478838
 20
254.780172
 42
0.033647
  0
VERTEX
  8
0
 10
1063.603893
 20
257.249618
 42
0.032375
  0
VERTEX
  8
0
 10
1061.441058
 20
259.429832
 42
0.183176
  0
VERTEX
  8
0
 10
1059.936942
 20
260.000000
 42
-0.129607
  0
VERTEX
  8
0
 10
1059.204123
 20
260.193203
 42
-0.091969
  0
VERTEX
  8
0
 10
1058.550260
 20
260.742804
 42
-0.073755
  0
VERTEX
  8
0
 10
1058.025641
 20
261.615716
 42
-0.046954
  0
VERTEX
  8
0
 10
1057.674676
 20
262.750000
 42
0.175239
  0
VERTEX
  8
0
 10
1052.492985
 20
271.141392
 42
0.037069
  0
VERTEX
  8
0
 10
1038.032078
 20
280.961542
 42
0.037392
  0
VERTEX
  8
0
 10
1019.897878
 20
289.669850
 42
0.043096
  0
VERTEX
  8
0
 10
1001.500000
 20
295.096065
 42
-0.009574
  0
VERTEX
  8
0
 10
999.132820
 20
295.624948
 42
-0.012371
  0
VERTEX
  8
0
 10
996.983438
 20
296.205255
 42
-0.010170
  0
VERTEX
  8
0
 10
995.222030
 20
296.767114
 42
-0.099310
  0
VERTEX
  8
0
 10
994.550000
 20
297.158245
 42
0.059857
  0
VERTEX
  8
0
 10
994.084030
 20
297.480799
 42
0.035710
  0
VERTEX
  8
0
 10
993.466027
 20
297.752734
 42
0.035298
  0
VERTEX
  8
0
 10
992.801858
 20
297.938387
 42
0.050544
  0
VERTEX
  8
0
 10
992.193920
 20
298.000000
 42
-0.122788
  0
VERTEX
  8
0
 10
991.519934
 20
298.168049
 42
-0.037314
  0
VERTEX
  8
0
 10
990.623217
 20
298.734375
 42
-0.034867
  0
VERTEX
  8
0
 10
989.677567
 20
299.543245
 42
-0.031755
  0
VERTEX
  8
0
 10
988.821340
 20
300.500000
 42
0.031970
  0
VERTEX
  8
0
 10
987.964379
 20
301.456748
 42
0.035003
  0
VERTEX
  8
0
 10
987.016552
 20
302.265625
 42
0.037475
  0
VERTEX
  8
0
 10
986.116795
 20
302.831702
 42
0.122268
  0
VERTEX
  8
0
 10
985.438851
 20
303.000000
 42
-0.132254
  0
VERTEX
  8
0
 10
983.879631
 20
303.419769
 42
-0.048489
  0
VERTEX
  8
0
 10
982.010337
 20
304.762383
 42
-0.048169
  0
VERTEX
  8
0
 10
980.465914
 20
306.404454
 42
-0.166128
  0
VERTEX
  8
0
 10
980.000000
 20
307.768025
 42
0.431960
  0
VERTEX
  8
0
 10
978.384893
 20
309.288705
 42
0.010981
  0
VERTEX
  8
0
 10
967.286739
 20
308.374725
 42
0.013336
  0
VERTEX
  8
0
 10
956.285882
 20
306.927547
 42
0.194975
  0
VERTEX
  8
0
 10
953.000000
 20
304.946307
 42
-0.083051
  0
VERTEX
  8
0
 10
952.635865
 20
304.598833
 42
-0.009874
  0
VERTEX
  8
0
 10
951.697160
 20
303.988482
 42
-0.011569
  0
VERTEX
  8
0
 10
950.541526
 20
303.305720
 42
-0.009256
  0
VERTEX
  8
0
 10
949.266927
 20
302.622606
 42
0.044604
  0
VERTEX
  8
0
 10
947.916118
 20
301.770766
 42
0.029800
  0
VERTEX
  8
0
 10
946.530428
 20
300.576453
 42
0.030018
  0
VERTEX
  8
0
 10
945.316131
 20
299.246146
 42
0.050686
  0
VERTEX
  8
0
 10
944.491247
 20
297.983073
 42
-0.055310
  0
VERTEX
  8
0
 10
942.704136
 20
295.300977
 42
-0.420294
  0
VERTEX
  8
0
 10
941.340913
 20
295.196105
 42
-0.173575
  0
VERTEX
  8
0
 10
940.275493
 20
297.109371
 42
-0.018410
  0
VERTEX
  8
0
 10
939.616208
 20
302.250000
 42
0.026170
  0
VERTEX
  8
0
 10
938.298077
 20
311.400551
 42
0.039289
  0
VERTEX
  8
0
 10
936.116756
 20
319.163422
 42
0.045835
  0
VERTEX
  8
0
 10
933.120950
 20
325.460236
 42
0.069702
  0
VERTEX
  8
0
 10
929.341583
 20
330.183325
 42
0.057499
  0
VERTEX
  8
0
 10
925.907068
 20
332.750579
 42
0.018078
  0
VERTEX
  8
0
 10
920.239982
 20
335.779664
 42
0.015938
  0
VERTEX
  8
0
 10
914.483502
 20
338.370020
 42
0.097965
  0
VERTEX
  8
0
 10
911.309017
 20
338.999211
 42
-0.077321
  0
VERTEX
  8
0
 10
909.583588
 20
339.268275
 42
-0.173666
  0
VERTEX
  8
0
 10
908.545432
 20
340.062299
 42
-0.208806
  0
VERTEX
  8
0
 10
908.356406
 20
341.216975
 42
-0.111279
  0
VERTEX
  8
0
 10
909.025577
 20
342.530819
 42
0.087452
  0
VERTEX
  8
0
 10
909.440622
 20
343.258637
 42
0.047787
  0
VERTEX
  8
0
 10
909.693906
 20
344.257649
 42
0.045681
  0
VERTEX
  8
0
 10
909.761445
 20
345.354416
 42
0.054079
  0
VERTEX
  8
0
 10
909.618782
 20
346.382756
 42
-0.042146
  0
VERTEX
  8
0
 10
909.438303
 20
347.489407
 42
-0.092005
  0
VERTEX
  8
0
 10
909.528966
 20
348.340943
 42
-0.120755
  0
VERTEX
  8
0
 10
909.889730
 20
348.956794
 42
-0.108961
  0
VERTEX
  8
0
 10
910.507115
 20
349.364357
 42
0.119968
  0
VERTEX
  8
0
 10
911.078442
 20
349.759601
 42
0.065027
  0
VERTEX
  8
0
 10
911.561465
 20
350.470309
 42
0.058946
  0
VERTEX
  8
0
 10
911.888860
 20
351.369158
 42
0.057951
  0
VERTEX
  8
0
 10
912.000000
 20
352.324839
 42
-0.112387
  0
VERTEX
  8
0
 10
912.309576
 20
353.684718
 42
-0.191671
  0
VERTEX
  8
0
 10
913.154500
 20
354.463019
 42
-0.065257
  0
VERTEX
  8
0
 10
915.018067
 20
354.909791
 42
-0.005441
  0
VERTEX
  8
0
 10
919.973409
 20
355.377405
 42
0.007146
  0
VERTEX
  8
0
 10
926.423188
 20
356.008230
 42
0.063008
  0
VERTEX
  8
0
 10
929.201422
 20
356.681157
 42
0.169568
  0
VERTEX
  8
0
 10
930.508803
 20
357.781069
 42
0.134662
  0
VERTEX
  8
0
 10
931.000000
 20
359.571805
 42
0.146936
  0
VERTEX
  8
0
 10
930.372196
 20
361.661997
 42
0.152383
  0
VERTEX
  8
0
 10
928.703778
 20
363.024444
 42
0.092983
  0
VERTEX
  8
0
 10
925.811926
 20
363.601368
 42
0.032130
  0
VERTEX
  8
0
 10
921.540520
 20
363.375817
 42
-0.006851
  0
VERTEX
  8
0
 10
918.009682
 20
363.009809
 42
-0.098358
  0
VERTEX
  8
0
 10
916.760363
 20
363.143361
 42
-0.252889
  0
VERTEX
  8
0
 10
916.175413
 20
363.743209
 42
-0.067130
  0
VERTEX
  8
0
 10
915.977764
 20
365.112319
 42
0.057985
  0
VERTEX
  8
0
 10
915.841708
 20
366.193758
 42
0.031236
  0
VERTEX
  8
0
 10
915.439763
 20
367.477457
 42
0.030652
  0
VERTEX
  8
0
 10
914.859925
 20
368.751235
 42
0.041859
  0
VERTEX
  8
0
 10
914.177497
 20
369.810938
 42
0.052428
  0
VERTEX
  8
0
 10
912.993311
 20
371.055459
 42
0.119867
  0
VERTEX
  8
0
 10
911.844009
 20
371.634761
 42
0.077006
  0
VERTEX
  8
0
 10
910.242873
 20
371.754386
 42
0.013188
  0
VERTEX
  8
0
 10
907.199733
 20
371.432108
 42
0.014292
  0
VERTEX
  8
0
 10
904.546113
 20
371.002600
 42
0.064946
  0
VERTEX
  8
0
 10
903.062501
 20
370.512994
 42
0.130078
  0
VERTEX
  8
0
 10
902.287120
 20
369.850338
 42
0.152394
  0
VERTEX
  8
0
 10
902.000000
 20
368.930186
 42
0.050026
  0
VERTEX
  8
0
 10
902.074127
 20
368.191164
 42
0.047645
  0
VERTEX
  8
0
 10
902.293750
 20
367.468806
 42
0.051309
  0
VERTEX
  8
0
 10
902.616658
 20
366.867624
 42
0.105841
  0
VERTEX
  8
0
 10
903.000000
 20
366.500000
 42
-0.143042
  0
VERTEX
  8
0
 10
903.763224
 20
365.652401
 42
-0.268558
  0
VERTEX
  8
0
 10
903.695604
 20
364.762308
 42
-0.099079
  0
VERTEX
  8
0
 10
902.592914
 20
363.687220
 42
-0.015796
  0
VERTEX
  8
0
 10
900.000000
 20
362.120156
 42
0.013877
  0
VERTEX
  8
0
 10
898.467497
 20
361.201975
 42
0.020219
  0
VERTEX
  8
0
 10
897.175000
 20
360.302524
 42
0.016334
  0
VERTEX
  8
0
 10
896.189233
 20
359.503632
 42
0.217606
  0
VERTEX
  8
0
 10
896.000000
 20
359.089416
 42
-0.192340
  0
VERTEX
  8
0
 10
895.431435
 20
357.666077
 42
-0.013017
  0
VERTEX
  8
0
 10
892.281641
 20
354.520770
 42
-0.017212
  0
VERTEX
  8
0
 10
888.976615
 20
351.597193
 42
-0.095913
  0
VERTEX
  8
0
 10
886.907398
 20
350.470609
 42
0.070495
  0
VERTEX
  8
0
 10
885.798875
 20
349.937742
 42
0.162333
  0
VERTEX
  8
0
 10
885.238449
 20
349.215780
 42
0.100244
  0
VERTEX
  8
0
 10
885.076938
 20
348.056366
 42
0.017983
  0
VERTEX
  8
0
 10
885.290200
 20
345.873065
 42
0.000000
  0
VERTEX
  8
0
 10
885.815646
 20
341.955570
 42
0.000000
  0
VERTEX
  8
0
 10
881.157823
 20
342.485544
 42
0.005229
  0
VERTEX
  8
0
 10
875.585813
 20
343.060584
 42
0.000970
  0
VERTEX
  8
0
 10
865.328964
 20
343.990747
 42
0.001041
  0
VERTEX
  8
0
 10
853.342288
 20
345.029173
 42
0.000955
  0
VERTEX
  8
0
 10
841.000000
 20
346.048772
 42
-0.001426
  0
VERTEX
  8
0
 10
832.672810
 20
346.744577
 42
-0.001402
  0
VERTEX
  8
0
 10
824.301921
 20
347.491720
 42
-0.001033
  0
VERTEX
  8
0
 10
813.971610
 20
348.464475
 42
-0.000354
  0
VERTEX
  8
0
 10
799.000000
 20
349.916175
 42
0.005384
  0
VERTEX
  8
0
 10
792.774873
 20
350.456623
 42
0.000809
  0
VERTEX
  8
0
 10
780.275000
 20
351.385982
 42
0.000909
  0
VERTEX
  8
0
 10
765.510042
 20
352.432747
 42
0.000785
  0
VERTEX
  8
0
 10
750.000000
 20
353.479555
 42
-0.001309
  0
VERTEX
  8
0
 10
734.767629
 20
354.523674
 42
-0.001712
  0
VERTEX
  8
0
 10
720.848614
 20
355.562303
 42
-0.001258
  0
VERTEX
  8
0
 10
709.188382
 20
356.502078
 42
-0.016032
  0
VERTEX
  8
0
 10
704.825067
 20
357.006084
 42
0.009704
  0
VERTEX
  8
0
 10
702.170182
 20
357.346841
 42
0.012423
  0
VERTEX
  8
0
 10
699.714159
 20
357.552152
 42
0.010358
  0
VERTEX
  8
0
 10
697.667161
 20
357.629651
 42
0.096179
  0
VERTEX
  8
0
 10
696.799539
 20
357.476570
 42
-0.238320
  0
VERTEX
  8
0
 10
696.119916
 20
357.545793
 42
-0.103123
  0
VERTEX
  8
0
 10
695.452137
 20
358.199740
 42
-0.056691
  0
VERTEX
  8
0
 10
694.786820
 20
359.486851
 42
-0.019181
  0
VERTEX
  8
0
 10
694.111337
 20
361.488492
 42
0.070429
  0
VERTEX
  8
0
 10
692.590705
 20
364.824087
 42
0.163920
  0
VERTEX
  8
0
 10
690.476981
 20
366.524606
 42
0.112885
  0
VERTEX
  8
0
 10
687.194676
 20
366.946114
 42
0.024978
  0
VERTEX
  8
0
 10
681.549645
 20
366.110013
 42
0.019511
  0
VERTEX
  8
0
 10
678.676799
 20
365.419125
 42
0.037474
  0
VERTEX
  8
0
 10
676.452453
 20
364.607331
 42
0.046784
  0
VERTEX
  8
0
 10
674.745577
 20
363.633769
 42
0.066462
  0
VERTEX
  8
0
 10
673.462435
 20
362.451319
 42
-0.037336
  0
VERTEX
  8
0
 10
672.556309
 20
361.513330
 42
-0.037286
  0
VERTEX
  8
0
 10
671.520378
 20
360.720075
 42
-0.039867
  0
VERTEX
  8
0
 10
670.512279
 20
360.170304
 42
-0.105281
  0
VERTEX
  8
0
 10
669.712435
 20
360.000000
 42
-0.362953
  0
VERTEX
  8
0
 10
668.507152
 20
361.007669
 42
-0.031947
  0
VERTEX
  8
0
 10
668.019156
 20
365.260203
 42
-0.010822
  0
VERTEX
  8
0
 10
667.768997
 20
373.962144
 42
-0.000568
  0
VERTEX
  8
0
 10
667.602890
 20
401.834944
 42
-0.003347
  0
VERTEX
  8
0
 10
667.620495
 20
411.244838
 42
-0.008747
  0
VERTEX
  8
0
 10
667.796681
 20
418.004482
 42
-0.005257
  0
VERTEX
  8
0
 10
668.071238
 20
423.077659
 42
-0.206211
  0
VERTEX
  8
0
 10
668.571427
 20
424.059187
 42
-0.143455
  0
VERTEX
  8
0
 10
670.059095
 20
424.701902
 42
-0.004224
  0
VERTEX
  8
0
 10
676.908317
 20
425.488859
 42
-0.005542
  0
VERTEX
  8
0
 10
687.051313
 20
426.453960
 42
-0.001252
  0
VERTEX
  8
0
 10
704.306216
 20
427.859451
 42
0.008423
  0
VERTEX
  8
0
 10
708.523893
 20
428.263964
 42
0.012001
  0
VERTEX
  8
0
 10
712.252150
 20
428.775913
 42
0.008060
  0
VERTEX
  8
0
 10
715.320851
 20
429.323498
 42
0.149268
  0
VERTEX
  8
0
 10
716.181520
 20
429.781520
 42
0.203911
  0
VERTEX
  8
0
 10
716.889496
 20
431.538280
 42
0.053332
  0
VERTEX
  8
0
 10
716.499839
 20
434.619875
 42
0.052081
  0
VERTEX
  8
0
 10
715.368789
 20
437.854194
 42
0.083734
  0
VERTEX
  8
0
 10
713.705305
 20
440.246705
 42
0.065158
  0
VERTEX
  8
0
 10
709.487850
 20
443.560831
 42
0.018503
  0
VERTEX
  8
0
 10
702.149087
 20
447.559502
 42
0.017451
  0
VERTEX
  8
0
 10
693.074175
 20
451.688484
 42
0.013806
  0
VERTEX
  8
0
 10
683.000000
 20
455.532115
 42
-0.000095
  0
VERTEX
  8
0
 10
678.851185
 20
456.986027
 42
-0.000069
  0
VERTEX
  8
0
 10
674.234375
 20
458.605651
 42
-0.000070
  0
VERTEX
  8
0
 10
669.853033
 20
460.144039
 42
-0.000153
  0
VERTEX
  8
0
 10
666.500000
 20
461.323048
 42
0.026409
  0
VERTEX
  8
0
 10
659.994444
 20
463.233410
 42
0.007281
  0
VERTEX
  8
0
 10
649.582015
 20
465.542746
 42
0.006698
  0
VERTEX
  8
0
 10
636.732982
 20
468.017822
 42
0.004508
  0
VERTEX
  8
0
 10
622.000000
 20
470.514798
 42
0.009589
  0
VERTEX
  8
0
 10
613.537859
 20
471.704665
 42
0.003664
  0
VERTEX
  8
0
 10
601.717291
 20
473.048371
 42
0.003155
  0
VERTEX
  8
0
 10
587.178310
 20
474.500541
 42
0.001926
  0
VERTEX
  8
0
 10
570.000000
 20
476.040191
 42
-0.000993
  0
VERTEX
  8
0
 10
564.107692
 20
476.557220
 42
-0.000490
  0
VERTEX
  8
0
 10
556.618750
 20
477.236736
 42
-0.000486
  0
VERTEX
  8
0
 10
548.846152
 20
477.957277
 42
-0.000709
  0
VERTEX
  8
0
 10
542.000000
 20
478.608437
 42
0.001753
  0
VERTEX
  8
0
 10
521.783516
 20
480.488702
 42
0.003032
  0
VERTEX
  8
0
 10
504.961394
 20
481.891012
 42
0.003615
  0
VERTEX
  8
0
 10
490.725980
 20
482.887328
 42
0.005705
  0
VERTEX
  8
0
 10
478.500000
 20
483.514267
 42
-0.001398
  0
VERTEX
  8
0
 10
471.535549
 20
483.811271
 42
-0.000743
  0
VERTEX
  8
0
 10
462.912500
 20
484.216006
 42
-0.000739
  0
VERTEX
  8
0
 10
454.099829
 20
484.655825
 42
-0.001148
  0
VERTEX
  8
0
 10
446.500000
 20
485.063884
 42
0.010430
  0
VERTEX
  8
0
 10
424.413525
 20
485.838957
 42
0.000762
  0
VERTEX
  8
0
 10
363.628879
 20
486.610568
 42
0.000056
  0
VERTEX
  8
0
 10
295.460667
 20
487.364264
 42
0.202173
  0
SEQEND
  0
ENDSEC
  0
EOF
