  0
SECTION
  2
HEADER
  9
$ACADVER
  1
AC1006
  9
$EXTMIN
 10
0.000000
 20
0.000000
 30
0.000000
  9
$EXTMAX
 10
283.000000
 20
412.000000
 30
0.000000
  0
ENDSEC
  0
SECTION
  2
ENTITIES
  0
POLYLINE
  8
0
 66
1
 70
1
  0
VERTEX
  8
0
 10
133.000000
 20
398.643263
 42
0.000000
  0
VERTEX
  8
0
 10
89.500000
 20
385.421423
 42
0.000000
  0
VERTEX
  8
0
 10
89.652069
 20
320.960711
 42
0.001777
  0
VERTEX
  8
0
 10
89.844466
 20
288.427457
 42
0.002418
  0
VERTEX
  8
0
 10
90.264298
 20
259.081063
 42
0.002562
  0
VERTEX
  8
0
 10
90.941686
 20
231.171921
 42
0.002489
  0
VERTEX
  8
0
 10
91.910317
 20
203.000000
 42
-0.001236
  0
VERTEX
  8
0
 10
93.577327
 20
157.812952
 42
-0.006872
  0
VERTEX
  8
0
 10
94.078986
 20
133.533358
 42
-0.012619
  0
VERTEX
  8
0
 10
93.794867
 20
118.026237
 42
-0.033360
  0
VERTEX
  8
0
 10
92.574260
 20
107.000000
 42
-0.041650
  0
VERTEX
  8
0
 10
86.914362
 20
85.741005
 42
-0.048855
  0
VERTEX
  8
0
 10
78.012448
 20
66.885296
 42
-0.047670
  0
VERTEX
  8
0
 10
65.413309
 20
49.749149
 42
-0.036720
  0
VERTEX
  8
0
 10
48.713683
 20
33.616368
 42
-0.016639
  0
VERTEX
  8
0
 10
44.889085
 20
30.639164
 42
-0.003825
  0
VERTEX
  8
0
 10
38.234110
 20
25.882807
 42
-0.003949
  0
VERTEX
  8
0
 10
30.477539
 20
20.519351
 42
-0.003845
  0
VERTEX
  8
0
 10
22.568263
 20
15.230614
 42
0.000079
  0
VERTEX
  8
0
 10
15.016136
 20
10.262610
 42
0.000114
  0
VERTEX
  8
0
 10
8.351114
 20
5.874491
 42
0.000057
  0
VERTEX
  8
0
 10
2.690465
 20
2.144864
 42
0.001941
  0
VERTEX
  8
0
 10
1.354580
 20
1.257017
 42
0.019637
  0
VERTEX
  8
0
 10
0.402633
 20
0.563331
 42
0.559571
  0
VERTEX
  8
0
 10
0.432231
 20
0.314784
 42
0.138576
  0
VERTEX
  8
0
 10
0.945823
 20
0.233718
 42
0.004675
  0
VERTEX
  8
0
 10
3.000000
 20
0.498511
 42
-0.008930
  0
VERTEX
  8
0
 10
5.324025
 20
0.778007
 42
-0.000609
  0
VERTEX
  8
0
 10
11.934375
 20
1.445341
 42
-0.000871
  0
VERTEX
  8
0
 10
19.818381
 20
2.217681
 42
-0.000654
  0
VERTEX
  8
0
 10
28.500000
 20
3.041433
 42
0.007454
  0
VERTEX
  8
0
 10
69.202267
 20
7.462777
 42
0.018169
  0
VERTEX
  8
0
 10
98.989248
 20
12.252797
 42
0.023917
  0
VERTEX
  8
0
 10
122.676169
 20
18.139930
 42
0.030549
  0
VERTEX
  8
0
 10
143.780417
 20
25.903624
 42
-0.012235
  0
VERTEX
  8
0
 10
147.280482
 20
27.338739
 42
-0.005649
  0
VERTEX
  8
0
 10
151.897760
 20
29.041741
 42
-0.005591
  0
VERTEX
  8
0
 10
156.794418
 20
30.723742
 42
-0.007729
  0
VERTEX
  8
0
 10
161.226803
 20
32.115418
 42
0.057798
  0
VERTEX
  8
0
 10
197.427764
 20
47.602264
 42
0.057915
  0
VERTEX
  8
0
 10
229.096021
 20
70.955508
 42
0.059553
  0
VERTEX
  8
0
 10
253.807485
 20
100.251096
 42
0.068556
  0
VERTEX
  8
0
 10
269.533526
 20
133.238424
 42
0.026888
  0
VERTEX
  8
0
 10
272.760405
 20
145.658181
 42
0.029967
  0
VERTEX
  8
0
 10
274.493657
 20
157.911551
 42
0.012284
  0
VERTEX
  8
0
 10
275.559972
 20
176.920325
 42
0.001060
  0
VERTEX
  8
0
 10
276.986280
 20
225.500000
 42
-0.001142
  0
VERTEX
  8
0
 10
278.414346
 20
273.867141
 42
-0.001322
  0
VERTEX
  8
0
 10
280.001494
 20
319.926457
 42
-0.000932
  0
VERTEX
  8
0
 10
281.541383
 20
359.437901
 42
-0.012340
  0
VERTEX
  8
0
 10
282.496509
 20
374.000000
 42
0.015740
  0
VERTEX
  8
0
 10
282.625829
 20
376.200675
 42
0.019166
  0
VERTEX
  8
0
 10
282.602901
 20
378.264653
 42
0.018012
  0
VERTEX
  8
0
 10
282.456352
 20
379.975396
 42
0.113115
  0
VERTEX
  8
0
 10
282.160348
 20
380.794564
 42
0.177124
  0
VERTEX
  8
0
 10
281.248983
 20
381.484755
 42
0.000523
  0
VERTEX
  8
0
 10
266.762764
 20
385.910521
 42
0.002933
  0
VERTEX
  8
0
 10
250.300530
 20
390.815840
 42
0.001818
  0
VERTEX
  8
0
 10
230.913441
 20
396.392686
 42
-0.000029
  0
VERTEX
  8
0
 10
211.444903
 20
401.917624
 42
-0.000046
  0
VERTEX
  8
0
 10
194.721448
 20
406.666250
 42
-0.000011
  0
VERTEX
  8
0
 10
180.059639
 20
410.831262
 42
-0.001874
  0
VERTEX
  8
0
 10
178.500000
 20
411.280674
 42
0.138443
  0
VERTEX
  8
0
 10
176.864854
 20
411.295657
 42
0.001236
  0
VERTEX
  8
0
 10
164.870589
 20
407.996217
 42
0.003931
  0
VERTEX
  8
0
 10
150.578088
 20
403.905237
 42
0.002109
  0
SEQEND
  0
ENDSEC
  0
EOF
