  0
SECTION
  2
HEADER
  9
$ACADVER
  1
AC1006
  9
$EXTMIN
 10
0.000000
 20
0.000000
 30
0.000000
  9
$EXTMAX
 10
282.000000
 20
359.000000
 30
0.000000
  0
ENDSEC
  0
SECTION
  2
ENTITIES
  0
POLYLINE
  8
0
 66
1
 70
1
  0
VERTEX
  8
0
 10
185.112801
 20
335.833652
 42
0.000215
  0
VERTEX
  8
0
 10
148.522972
 20
327.080803
 42
0.000357
  0
VERTEX
  8
0
 10
117.686476
 20
319.666915
 42
0.000008
  0
VERTEX
  8
0
 10
89.744376
 20
312.927325
 42
0.179391
  0
VERTEX
  8
0
 10
89.524357
 20
312.779468
 42
0.164366
  0
VERTEX
  8
0
 10
89.319020
 20
312.111583
 42
0.000040
  0
VERTEX
  8
0
 10
90.206183
 20
280.008813
 42
0.000820
  0
VERTEX
  8
0
 10
91.210878
 20
245.785544
 42
0.000610
  0
VERTEX
  8
0
 10
92.428334
 20
208.000000
 42
-0.000264
  0
VERTEX
  8
0
 10
94.211425
 20
153.823895
 42
-0.003788
  0
VERTEX
  8
0
 10
94.689532
 20
134.546577
 42
-0.010894
  0
VERTEX
  8
0
 10
94.640000
 20
123.703759
 42
-0.024462
  0
VERTEX
  8
0
 10
94.021325
 20
115.500000
 42
-0.030438
  0
VERTEX
  8
0
 10
90.663599
 20
97.561873
 42
-0.036598
  0
VERTEX
  8
0
 10
85.281876
 20
81.270885
 42
-0.037953
  0
VERTEX
  8
0
 10
77.786244
 20
66.444887
 42
-0.037661
  0
VERTEX
  8
0
 10
68.118605
 20
52.881658
 42
-0.025581
  0
VERTEX
  8
0
 10
57.816487
 20
41.727112
 42
-0.026815
  0
VERTEX
  8
0
 10
46.582626
 20
31.867529
 42
-0.019764
  0
VERTEX
  8
0
 10
31.712821
 20
21.089416
 42
-0.006659
  0
VERTEX
  8
0
 10
9.227536
 20
6.538417
 42
0.003235
  0
VERTEX
  8
0
 10
5.691443
 20
4.284290
 42
0.005457
  0
VERTEX
  8
0
 10
2.759372
 20
2.342710
 42
0.001227
  0
VERTEX
  8
0
 10
0.247017
 20
0.630318
 42
0.469401
  0
VERTEX
  8
0
 10
0.229161
 20
0.437505
 42
0.224104
  0
VERTEX
  8
0
 10
0.823062
 20
0.224425
 42
0.000129
  0
VERTEX
  8
0
 10
19.806103
 20
2.065913
 42
0.001778
  0
VERTEX
  8
0
 10
39.008898
 20
4.002674
 42
0.001844
  0
VERTEX
  8
0
 10
57.966057
 20
6.053455
 42
0.010937
  0
VERTEX
  8
0
 10
85.240847
 20
9.711426
 42
0.018031
  0
VERTEX
  8
0
 10
108.073596
 20
14.132207
 42
0.020837
  0
VERTEX
  8
0
 10
127.840056
 20
19.580904
 42
0.025604
  0
VERTEX
  8
0
 10
145.739134
 20
26.355746
 42
-0.010836
  0
VERTEX
  8
0
 10
149.523753
 20
27.917465
 42
-0.004724
  0
VERTEX
  8
0
 10
154.610839
 20
29.833675
 42
-0.004672
  0
VERTEX
  8
0
 10
160.055417
 20
31.768521
 42
-0.006212
  0
VERTEX
  8
0
 10
165.042444
 20
33.419420
 42
0.047751
  0
VERTEX
  8
0
 10
195.634568
 20
46.450643
 42
0.049047
  0
VERTEX
  8
0
 10
222.904379
 20
64.952564
 42
0.050077
  0
VERTEX
  8
0
 10
245.550643
 20
88.002013
 42
0.054369
  0
VERTEX
  8
0
 10
262.455580
 20
114.500000
 42
0.011851
  0
VERTEX
  8
0
 10
266.602013
 20
123.410485
 42
0.020455
  0
VERTEX
  8
0
 10
269.565609
 20
131.030201
 42
0.020409
  0
VERTEX
  8
0
 10
271.901013
 20
138.878714
 42
0.011732
  0
VERTEX
  8
0
 10
274.102511
 20
148.500000
 42
0.032006
  0
VERTEX
  8
0
 10
275.355359
 20
157.554725
 42
0.007251
  0
VERTEX
  8
0
 10
276.270698
 20
173.050726
 42
0.003590
  0
VERTEX
  8
0
 10
277.258666
 20
199.510702
 42
0.000438
  0
VERTEX
  8
0
 10
278.956207
 20
257.500000
 42
0.000627
  0
VERTEX
  8
0
 10
279.988451
 20
295.533681
 42
0.001030
  0
VERTEX
  8
0
 10
280.755455
 20
327.728417
 42
0.000079
  0
VERTEX
  8
0
 10
281.379821
 20
356.628597
 42
0.141607
  0
VERTEX
  8
0
 10
281.133693
 20
357.554185
 42
0.323346
  0
VERTEX
  8
0
 10
280.260594
 20
357.927534
 42
0.000269
  0
VERTEX
  8
0
 10
256.244377
 20
352.508491
 42
0.002164
  0
VERTEX
  8
0
 10
226.586888
 20
345.664723
 42
0.000814
  0
SEQEND
  0
ENDSEC
  0
EOF
