  0
SECTION
  2
HEADER
  9
$ACADVER
  1
AC1006
  9
$EXTMIN
 10
0.000000
 20
0.000000
 30
0.000000
  9
$EXTMAX
 10
283.000000
 20
444.000000
 30
0.000000
  0
ENDSEC
  0
SECTION
  2
ENTITIES
  0
POLYLINE
  8
0
 66
1
 70
1
  0
VERTEX
  8
0
 10
184.299974
 20
415.111162
 42
0.000302
  0
VERTEX
  8
0
 10
148.146646
 20
404.080891
 42
0.000500
  0
VERTEX
  8
0
 10
117.630877
 20
394.717080
 42
0.000021
  0
VERTEX
  8
0
 10
90.081144
 20
386.231968
 42
0.122249
  0
VERTEX
  8
0
 10
89.622235
 20
385.955568
 42
0.203369
  0
VERTEX
  8
0
 10
89.431353
 20
385.483335
 42
0.000019
  0
VERTEX
  8
0
 10
90.088461
 20
347.220584
 42
0.000580
  0
VERTEX
  8
0
 10
90.865594
 20
304.918098
 42
0.000349
  0
VERTEX
  8
0
 10
91.880221
 20
254.762624
 42
-0.000570
  0
VERTEX
  8
0
 10
92.987456
 20
198.810375
 42
-0.001274
  0
VERTEX
  8
0
 10
93.672307
 20
156.276938
 42
-0.000629
  0
VERTEX
  8
0
 10
94.083973
 20
122.796650
 42
-0.029034
  0
VERTEX
  8
0
 10
93.761709
 20
115.947247
 42
-0.030557
  0
VERTEX
  8
0
 10
91.320132
 20
101.388894
 42
-0.028882
  0
VERTEX
  8
0
 10
87.090695
 20
86.953144
 42
-0.029177
  0
VERTEX
  8
0
 10
81.280746
 20
73.253111
 42
-0.032966
  0
VERTEX
  8
0
 10
74.116506
 20
60.894038
 42
-0.028548
  0
VERTEX
  8
0
 10
68.981195
 20
54.115389
 42
-0.013083
  0
VERTEX
  8
0
 10
61.568611
 20
45.858607
 42
-0.013114
  0
VERTEX
  8
0
 10
53.647992
 20
37.915275
 42
-0.025533
  0
VERTEX
  8
0
 10
46.858339
 20
32.084706
 42
-0.015316
  0
VERTEX
  8
0
 10
40.029847
 20
27.128248
 42
-0.001837
  0
VERTEX
  8
0
 10
24.583276
 20
16.706039
 42
-0.001548
  0
VERTEX
  8
0
 10
8.891770
 20
6.272446
 42
-0.020901
  0
VERTEX
  8
0
 10
2.988819
 20
2.718777
 42
0.012637
  0
VERTEX
  8
0
 10
1.766123
 20
2.009952
 42
0.022290
  0
VERTEX
  8
0
 10
0.799876
 20
1.355664
 42
0.019701
  0
VERTEX
  8
0
 10
0.117908
 20
0.805094
 42
0.444980
  0
VERTEX
  8
0
 10
0.114557
 20
0.579685
 42
0.213061
  0
VERTEX
  8
0
 10
0.777034
 20
0.353901
 42
0.000226
  0
VERTEX
  8
0
 10
16.268117
 20
1.780380
 42
0.002081
  0
VERTEX
  8
0
 10
33.485859
 20
3.446027
 42
0.001327
  0
VERTEX
  8
0
 10
53.500000
 20
5.519989
 42
0.012117
  0
VERTEX
  8
0
 10
80.665971
 20
9.075530
 42
0.016166
  0
VERTEX
  8
0
 10
105.111828
 20
13.693465
 42
0.018141
  0
VERTEX
  8
0
 10
125.964010
 20
19.136057
 42
0.035543
  0
VERTEX
  8
0
 10
142.000000
 20
25.220564
 42
-0.013430
  0
VERTEX
  8
0
 10
145.145025
 20
26.575712
 42
-0.006160
  0
VERTEX
  8
0
 10
149.312330
 20
28.180887
 42
-0.006095
  0
VERTEX
  8
0
 10
153.742787
 20
29.763868
 42
-0.008378
  0
VERTEX
  8
0
 10
157.765380
 20
31.071131
 42
0.034938
  0
VERTEX
  8
0
 10
186.201428
 20
42.012394
 42
0.042539
  0
VERTEX
  8
0
 10
210.921799
 20
56.237985
 42
0.043954
  0
VERTEX
  8
0
 10
232.217618
 20
73.996076
 42
0.041970
  0
VERTEX
  8
0
 10
250.445519
 20
95.462420
 42
0.025961
  0
VERTEX
  8
0
 10
257.984652
 20
107.271435
 42
0.025234
  0
VERTEX
  8
0
 10
264.337534
 20
119.908316
 42
0.025216
  0
VERTEX
  8
0
 10
269.389022
 20
133.130026
 42
0.025834
  0
VERTEX
  8
0
 10
273.037260
 20
146.687559
 42
0.037446
  0
VERTEX
  8
0
 10
274.397702
 20
156.603135
 42
0.005702
  0
VERTEX
  8
0
 10
275.398191
 20
176.560498
 42
0.002753
  0
VERTEX
  8
0
 10
276.577035
 20
212.077257
 42
0.000258
  0
VERTEX
  8
0
 10
278.951787
 20
299.500000
 42
0.000301
  0
VERTEX
  8
0
 10
280.381265
 20
354.384672
 42
0.000499
  0
VERTEX
  8
0
 10
281.513754
 20
400.714062
 42
0.000019
  0
VERTEX
  8
0
 10
282.493952
 20
442.587706
 42
0.139436
  0
VERTEX
  8
0
 10
282.322214
 20
443.250000
 42
0.135239
  0
VERTEX
  8
0
 10
282.033626
 20
443.530478
 42
0.052204
  0
VERTEX
  8
0
 10
281.514563
 20
443.748703
 42
0.046759
  0
VERTEX
  8
0
 10
280.870516
 20
443.879407
 42
0.042292
  0
VERTEX
  8
0
 10
280.190983
 20
443.894521
 42
0.057327
  0
VERTEX
  8
0
 10
278.857184
 20
443.656182
 42
0.000064
  0
VERTEX
  8
0
 10
251.325469
 20
435.395899
 42
0.000606
  0
VERTEX
  8
0
 10
220.537109
 20
426.113576
 42
0.000372
  0
SEQEND
  0
ENDSEC
  0
EOF
