  0
SECTION
  2
HEADER
  9
$ACADVER
  1
AC1006
  9
$EXTMIN
 10
0.000000
 20
0.000000
 30
0.000000
  9
$EXTMAX
 10
191.000000
 20
113.000000
 30
0.000000
  0
ENDSEC
  0
SECTION
  2
ENTITIES
  0
POLYLINE
  8
0
 66
1
 70
1
  0
VERTEX
  8
0
 10
97.500000
 20
112.000000
 42
-0.035492
  0
VERTEX
  8
0
 10
96.537653
 20
111.665091
 42
-0.017667
  0
VERTEX
  8
0
 10
95.279688
 20
111.372382
 42
-0.017442
  0
VERTEX
  8
0
 10
93.949101
 20
111.159830
 42
-0.024498
  0
VERTEX
  8
0
 10
92.750000
 20
111.070285
 42
0.034517
  0
VERTEX
  8
0
 10
91.696749
 20
110.970393
 42
0.051945
  0
VERTEX
  8
0
 10
90.807812
 20
110.726896
 42
0.066864
  0
VERTEX
  8
0
 10
90.195655
 20
110.388739
 42
0.237463
  0
VERTEX
  8
0
 10
90.000000
 20
110.000000
 42
-0.182536
  0
VERTEX
  8
0
 10
89.855843
 20
109.618285
 42
-0.090900
  0
VERTEX
  8
0
 10
89.443928
 20
109.293750
 42
-0.070807
  0
VERTEX
  8
0
 10
88.831332
 20
109.073863
 42
-0.050854
  0
VERTEX
  8
0
 10
88.106989
 20
109.000000
 42
0.139676
  0
VERTEX
  8
0
 10
86.725511
 20
108.606402
 42
0.136687
  0
VERTEX
  8
0
 10
85.745183
 20
107.541338
 42
0.086978
  0
VERTEX
  8
0
 10
85.173546
 20
105.685410
 42
0.031327
  0
VERTEX
  8
0
 10
85.000000
 20
102.918213
 42
-0.036490
  0
VERTEX
  8
0
 10
84.910411
 20
101.692271
 42
-0.075007
  0
VERTEX
  8
0
 10
84.630662
 20
100.773724
 42
-0.110478
  0
VERTEX
  8
0
 10
84.185332
 20
100.206308
 42
-0.173022
  0
VERTEX
  8
0
 10
83.606989
 20
100.000000
 42
0.181255
  0
VERTEX
  8
0
 10
82.516306
 20
99.591186
 42
0.108928
  0
VERTEX
  8
0
 10
81.684355
 20
98.465732
 42
0.071808
  0
VERTEX
  8
0
 10
81.164752
 20
96.632499
 42
0.033218
  0
VERTEX
  8
0
 10
81.000000
 20
94.155341
 42
-0.055410
  0
VERTEX
  8
0
 10
80.861198
 20
92.906684
 42
-0.082382
  0
VERTEX
  8
0
 10
80.448151
 20
91.889727
 42
-0.086003
  0
VERTEX
  8
0
 10
79.745073
 20
91.090979
 42
-0.066094
  0
VERTEX
  8
0
 10
78.750000
 20
90.487128
 42
0.128371
  0
VERTEX
  8
0
 10
76.851515
 20
88.986805
 42
0.175585
  0
VERTEX
  8
0
 10
76.214984
 20
86.922069
 42
0.127499
  0
VERTEX
  8
0
 10
77.000414
 20
84.402767
 42
0.055973
  0
VERTEX
  8
0
 10
79.180267
 20
81.638122
 42
-0.004453
  0
VERTEX
  8
0
 10
80.552141
 20
80.225027
 42
-0.004172
  0
VERTEX
  8
0
 10
81.928985
 20
78.756971
 42
-0.004155
  0
VERTEX
  8
0
 10
83.128999
 20
77.433977
 42
-0.014274
  0
VERTEX
  8
0
 10
83.875852
 20
76.546989
 42
0.072105
  0
VERTEX
  8
0
 10
84.618833
 20
75.847098
 42
0.072719
  0
VERTEX
  8
0
 10
85.527914
 20
75.389426
 42
0.069617
  0
VERTEX
  8
0
 10
86.565333
 20
75.198280
 42
0.058086
  0
VERTEX
  8
0
 10
87.683885
 20
75.279903
 42
-0.024395
  0
VERTEX
  8
0
 10
88.861033
 20
75.445913
 42
-0.145259
  0
VERTEX
  8
0
 10
89.462948
 20
75.325666
 42
-0.281157
  0
VERTEX
  8
0
 10
89.684647
 20
74.953250
 42
-0.089035
  0
VERTEX
  8
0
 10
89.558032
 20
74.290634
 42
0.008784
  0
VERTEX
  8
0
 10
89.344377
 20
73.703207
 42
0.010407
  0
VERTEX
  8
0
 10
89.163922
 20
73.140749
 42
0.009345
  0
VERTEX
  8
0
 10
89.030900
 20
72.661887
 42
0.063151
  0
VERTEX
  8
0
 10
89.000000
 20
72.418213
 42
-0.413428
  0
VERTEX
  8
0
 10
88.450990
 20
71.867727
 42
-0.070799
  0
VERTEX
  8
0
 10
86.830086
 20
72.093963
 42
-0.055444
  0
VERTEX
  8
0
 10
84.913995
 20
72.883408
 42
-0.083604
  0
VERTEX
  8
0
 10
83.500000
 20
74.000000
 42
0.111277
  0
VERTEX
  8
0
 10
81.406788
 20
75.474202
 42
0.095779
  0
VERTEX
  8
0
 10
78.764523
 20
76.012495
 42
0.115251
  0
VERTEX
  8
0
 10
76.481311
 20
75.503144
 42
0.219957
  0
VERTEX
  8
0
 10
75.311161
 20
74.081879
 42
-0.158138
  0
VERTEX
  8
0
 10
74.161771
 20
72.286524
 42
-0.079662
  0
VERTEX
  8
0
 10
71.814588
 20
70.915446
 42
-0.076951
  0
VERTEX
  8
0
 10
69.059194
 20
70.310595
 42
-0.124512
  0
VERTEX
  8
0
 10
66.713397
 20
70.750218
 42
-0.008201
  0
VERTEX
  8
0
 10
65.265273
 20
71.448689
 42
-0.367163
  0
VERTEX
  8
0
 10
65.143964
 20
71.734637
 42
-0.253002
  0
VERTEX
  8
0
 10
65.407117
 20
71.991164
 42
-0.005106
  0
VERTEX
  8
0
 10
67.258705
 20
72.497293
 42
0.055913
  0
VERTEX
  8
0
 10
68.443732
 20
72.954643
 42
0.064673
  0
VERTEX
  8
0
 10
69.435483
 20
73.646624
 42
0.068797
  0
VERTEX
  8
0
 10
70.169387
 20
74.526754
 42
0.078100
  0
VERTEX
  8
0
 10
70.598642
 20
75.536997
 42
-0.048191
  0
VERTEX
  8
0
 10
70.959311
 20
76.549466
 42
-0.028401
  0
VERTEX
  8
0
 10
71.570218
 20
77.680310
 42
-0.028212
  0
VERTEX
  8
0
 10
72.315930
 20
78.750672
 42
-0.042606
  0
VERTEX
  8
0
 10
73.089937
 20
79.581391
 42
0.107719
  0
VERTEX
  8
0
 10
74.591516
 20
81.681952
 42
0.120778
  0
VERTEX
  8
0
 10
75.000558
 20
84.129129
 42
0.130742
  0
VERTEX
  8
0
 10
74.229720
 20
86.344958
 42
0.137986
  0
VERTEX
  8
0
 10
72.471935
 20
87.830833
 42
-0.036345
  0
VERTEX
  8
0
 10
71.461792
 20
88.382918
 42
-0.033838
  0
VERTEX
  8
0
 10
70.516430
 20
89.087503
 42
-0.035617
  0
VERTEX
  8
0
 10
69.763613
 20
89.831261
 42
-0.088691
  0
VERTEX
  8
0
 10
69.364946
 20
90.491348
 42
0.119166
  0
VERTEX
  8
0
 10
68.966894
 20
91.068683
 42
0.065149
  0
VERTEX
  8
0
 10
68.253134
 20
91.556834
 42
0.059152
  0
VERTEX
  8
0
 10
67.351204
 20
91.887668
 42
0.058417
  0
VERTEX
  8
0
 10
66.393011
 20
92.000000
 42
-0.049332
  0
VERTEX
  8
0
 10
65.292205
 20
92.108875
 42
-0.120876
  0
VERTEX
  8
0
 10
64.560205
 20
92.451480
 42
-0.143119
  0
VERTEX
  8
0
 10
64.143509
 20
93.050036
 42
-0.081138
  0
VERTEX
  8
0
 10
64.000000
 20
93.928571
 42
0.114032
  0
VERTEX
  8
0
 10
63.585739
 20
95.721374
 42
0.082998
  0
VERTEX
  8
0
 10
62.392941
 20
97.392941
 42
0.082998
  0
VERTEX
  8
0
 10
60.721374
 20
98.585739
 42
0.114032
  0
VERTEX
  8
0
 10
58.928571
 20
99.000000
 42
-0.080080
  0
VERTEX
  8
0
 10
58.046253
 20
99.142224
 42
-0.037832
  0
VERTEX
  8
0
 10
56.979018
 20
99.587500
 42
-0.036240
  0
VERTEX
  8
0
 10
55.907595
 20
100.234621
 42
-0.042427
  0
VERTEX
  8
0
 10
55.000000
 20
101.000000
 42
0.152109
  0
VERTEX
  8
0
 10
51.376180
 20
102.902729
 42
0.119705
  0
VERTEX
  8
0
 10
46.926491
 20
102.650230
 42
0.130115
  0
VERTEX
  8
0
 10
43.350172
 20
100.439131
 42
0.191874
  0
VERTEX
  8
0
 10
42.000000
 20
97.050285
 42
-0.047235
  0
VERTEX
  8
0
 10
41.888262
 20
95.870148
 42
-0.061025
  0
VERTEX
  8
0
 10
41.555855
 20
94.834936
 42
-0.071450
  0
VERTEX
  8
0
 10
41.045948
 20
94.048540
 42
-0.122222
  0
VERTEX
  8
0
 10
40.408211
 20
93.603151
 42
0.155118
  0
VERTEX
  8
0
 10
39.643637
 20
92.992181
 42
0.099431
  0
VERTEX
  8
0
 10
39.207424
 20
91.932815
 42
0.051084
  0
VERTEX
  8
0
 10
39.048011
 20
90.172609
 42
0.011445
  0
VERTEX
  8
0
 10
39.152529
 20
87.157430
 42
-0.019138
  0
VERTEX
  8
0
 10
39.209542
 20
84.198733
 42
-0.036666
  0
VERTEX
  8
0
 10
38.990762
 20
81.835246
 42
-0.042685
  0
VERTEX
  8
0
 10
38.464624
 20
79.782606
 42
-0.039460
  0
VERTEX
  8
0
 10
37.587228
 20
77.791831
 42
0.052386
  0
VERTEX
  8
0
 10
36.344144
 20
74.761861
 42
0.179576
  0
VERTEX
  8
0
 10
36.492052
 20
72.673861
 42
0.170062
  0
VERTEX
  8
0
 10
37.980987
 20
71.116638
 42
0.046026
  0
VERTEX
  8
0
 10
41.198503
 20
69.835533
 42
0.000000
  0
VERTEX
  8
0
 10
45.500000
 20
68.566244
 42
0.000000
  0
VERTEX
  8
0
 10
42.250000
 20
68.219764
 42
0.035991
  0
VERTEX
  8
0
 10
40.971742
 20
67.989590
 42
0.056340
  0
VERTEX
  8
0
 10
39.928142
 20
67.593590
 42
0.073773
  0
VERTEX
  8
0
 10
39.231134
 20
67.093342
 42
0.202972
  0
VERTEX
  8
0
 10
39.000000
 20
66.547425
 42
-0.095784
  0
VERTEX
  8
0
 10
38.871143
 20
65.880951
 42
-0.027031
  0
VERTEX
  8
0
 10
38.422273
 20
64.917558
 42
-0.026189
  0
VERTEX
  8
0
 10
37.786017
 20
63.861955
 42
-0.024953
  0
VERTEX
  8
0
 10
37.033269
 20
62.860784
 42
0.000000
  0
VERTEX
  8
0
 10
35.066539
 20
60.500000
 42
0.000000
  0
VERTEX
  8
0
 10
35.033269
 20
63.550000
 42
0.034899
  0
VERTEX
  8
0
 10
34.931719
 20
64.805996
 42
0.033165
  0
VERTEX
  8
0
 10
34.656065
 20
66.057770
 42
0.034936
  0
VERTEX
  8
0
 10
34.261179
 20
67.129904
 42
0.090913
  0
VERTEX
  8
0
 10
33.795890
 20
67.804110
 42
-0.106664
  0
VERTEX
  8
0
 10
33.348134
 20
68.498271
 42
-0.037419
  0
VERTEX
  8
0
 10
33.012062
 20
69.643052
 42
-0.035117
  0
VERTEX
  8
0
 10
32.820542
 20
70.996832
 42
-0.034408
  0
VERTEX
  8
0
 10
32.818416
 20
72.373459
 42
0.033675
  0
VERTEX
  8
0
 10
32.818267
 20
74.273208
 42
0.127606
  0
VERTEX
  8
0
 10
32.446264
 20
75.391112
 42
0.122698
  0
VERTEX
  8
0
 10
31.568578
 20
76.211290
 42
0.030080
  0
VERTEX
  8
0
 10
29.772527
 20
77.072742
 42
-0.023221
  0
VERTEX
  8
0
 10
28.439171
 20
77.689931
 42
-0.021764
  0
VERTEX
  8
0
 10
27.138829
 20
78.440463
 42
-0.022327
  0
VERTEX
  8
0
 10
26.045000
 20
79.207636
 42
-0.066610
  0
VERTEX
  8
0
 10
25.402209
 20
79.855477
 42
0.111273
  0
VERTEX
  8
0
 10
24.656899
 20
80.484136
 42
0.076900
  0
VERTEX
  8
0
 10
23.607510
 20
80.838390
 42
0.054207
  0
VERTEX
  8
0
 10
22.169920
 20
80.930181
 42
0.022201
  0
VERTEX
  8
0
 10
20.219233
 20
80.756231
 42
-0.019089
  0
VERTEX
  8
0
 10
18.261486
 20
80.569370
 42
-0.059687
  0
VERTEX
  8
0
 10
16.943427
 20
80.651522
 42
-0.100244
  0
VERTEX
  8
0
 10
16.090141
 20
80.993623
 42
-0.157090
  0
VERTEX
  8
0
 10
15.598409
 20
81.604146
 42
0.221035
  0
VERTEX
  8
0
 10
14.535777
 20
82.633133
 42
0.087960
  0
VERTEX
  8
0
 10
12.483484
 20
82.961743
 42
0.087210
  0
VERTEX
  8
0
 10
10.428601
 20
82.565107
 42
0.213073
  0
VERTEX
  8
0
 10
9.361626
 20
81.500000
 42
-0.133108
  0
VERTEX
  8
0
 10
8.938778
 20
80.921352
 42
-0.063498
  0
VERTEX
  8
0
 10
8.146131
 20
80.437291
 42
-0.055829
  0
VERTEX
  8
0
 10
7.125263
 20
80.110418
 42
-0.049624
  0
VERTEX
  8
0
 10
6.015456
 20
80.000000
 42
0.040687
  0
VERTEX
  8
0
 10
4.882054
 20
79.907617
 42
0.039542
  0
VERTEX
  8
0
 10
3.767327
 20
79.632812
 42
0.042312
  0
VERTEX
  8
0
 10
2.828725
 20
79.230082
 42
0.102874
  0
VERTEX
  8
0
 10
2.252835
 20
78.750000
 42
0.099290
  0
VERTEX
  8
0
 10
1.318972
 20
76.924790
 42
0.027948
  0
VERTEX
  8
0
 10
0.620302
 20
73.787278
 42
0.027706
  0
VERTEX
  8
0
 10
0.275452
 20
70.601564
 42
0.105094
  0
VERTEX
  8
0
 10
0.586860
 20
68.634243
 42
0.226590
  0
VERTEX
  8
0
 10
1.921696
 20
67.368759
 42
0.081752
  0
VERTEX
  8
0
 10
4.575228
 20
66.967888
 42
0.078869
  0
VERTEX
  8
0
 10
7.309389
 20
67.438961
 42
0.185216
  0
VERTEX
  8
0
 10
8.876446
 20
68.743705
 42
-0.050101
  0
VERTEX
  8
0
 10
9.519900
 20
69.663714
 42
-0.261913
  0
VERTEX
  8
0
 10
10.079718
 20
69.866820
 42
-0.136463
  0
VERTEX
  8
0
 10
10.798291
 20
69.532446
 42
-0.011853
  0
VERTEX
  8
0
 10
12.315145
 20
68.173662
 42
-0.042590
  0
VERTEX
  8
0
 10
13.300783
 20
67.075561
 42
-0.029568
  0
VERTEX
  8
0
 10
14.225117
 20
65.686736
 42
-0.029929
  0
VERTEX
  8
0
 10
14.958731
 20
64.236314
 42
-0.052808
  0
VERTEX
  8
0
 10
15.358676
 20
62.956622
 42
0.049645
  0
VERTEX
  8
0
 10
15.771628
 20
61.605427
 42
0.081530
  0
VERTEX
  8
0
 10
16.403828
 20
60.593714
 42
0.086974
  0
VERTEX
  8
0
 10
17.293128
 20
59.880331
 42
0.064252
  0
VERTEX
  8
0
 10
18.469667
 20
59.418257
 42
-0.045761
  0
VERTEX
  8
0
 10
19.437798
 20
59.078664
 42
-0.056485
  0
VERTEX
  8
0
 10
20.256715
 20
58.585921
 42
-0.066959
  0
VERTEX
  8
0
 10
20.816130
 20
58.023319
 42
-0.163648
  0
VERTEX
  8
0
 10
21.000000
 20
57.476579
 42
0.157901
  0
VERTEX
  8
0
 10
21.231746
 20
56.761041
 42
0.018667
  0
VERTEX
  8
0
 10
22.274958
 20
55.427261
 42
0.020843
  0
VERTEX
  8
0
 10
23.678070
 20
53.899118
 42
0.015671
  0
VERTEX
  8
0
 10
25.340283
 20
52.334987
 42
-0.022295
  0
VERTEX
  8
0
 10
28.787416
 20
49.004084
 42
-0.067228
  0
VERTEX
  8
0
 10
30.692117
 20
46.356905
 42
-0.094115
  0
VERTEX
  8
0
 10
31.474594
 20
43.843184
 42
-0.078031
  0
VERTEX
  8
0
 10
31.357717
 20
41.038583
 42
0.040946
  0
VERTEX
  8
0
 10
31.166449
 20
39.390655
 42
0.079019
  0
VERTEX
  8
0
 10
31.330297
 20
38.076186
 42
0.078446
  0
VERTEX
  8
0
 10
31.895073
 20
36.871191
 42
0.039852
  0
VERTEX
  8
0
 10
32.943177
 20
35.560485
 42
-0.043423
  0
VERTEX
  8
0
 10
34.078803
 20
34.119383
 42
-0.091037
  0
VERTEX
  8
0
 10
34.631154
 20
32.809416
 42
-0.072046
  0
VERTEX
  8
0
 10
34.750170
 20
31.195608
 42
-0.019658
  0
VERTEX
  8
0
 10
34.470161
 20
28.649589
 42
0.011582
  0
VERTEX
  8
0
 10
34.113448
 20
25.826425
 42
0.115518
  0
VERTEX
  8
0
 10
34.263935
 20
24.652472
 42
0.198133
  0
VERTEX
  8
0
 10
34.903181
 20
23.964512
 42
0.046279
  0
VERTEX
  8
0
 10
36.419706
 20
23.430797
 42
-0.086648
  0
VERTEX
  8
0
 10
38.382799
 20
22.557029
 42
-0.087877
  0
VERTEX
  8
0
 10
39.922563
 20
21.073092
 42
-0.128461
  0
VERTEX
  8
0
 10
40.514284
 20
19.561109
 42
-0.291546
  0
VERTEX
  8
0
 10
40.002704
 20
18.501671
 42
0.158140
  0
VERTEX
  8
0
 10
39.615112
 20
18.044798
 42
0.036149
  0
VERTEX
  8
0
 10
39.294544
 20
17.069596
 42
0.033924
  0
VERTEX
  8
0
 10
39.073637
 20
15.838160
 42
0.027427
  0
VERTEX
  8
0
 10
39.000000
 20
14.496747
 42
0.096349
  0
VERTEX
  8
0
 10
39.654631
 20
11.131097
 42
0.102049
  0
VERTEX
  8
0
 10
41.518130
 20
8.333439
 42
0.085624
  0
VERTEX
  8
0
 10
44.642613
 20
6.154489
 42
0.048598
  0
VERTEX
  8
0
 10
49.000000
 20
4.608151
 42
0.012851
  0
VERTEX
  8
0
 10
58.918588
 20
2.408973
 42
0.023800
  0
VERTEX
  8
0
 10
67.079988
 20
1.218028
 42
0.018982
  0
VERTEX
  8
0
 10
76.451529
 20
0.661164
 42
0.005439
  0
VERTEX
  8
0
 10
91.000000
 20
0.508195
 42
0.008829
  0
VERTEX
  8
0
 10
107.950760
 20
0.813698
 42
0.020162
  0
VERTEX
  8
0
 10
120.701188
 20
1.784546
 42
0.025953
  0
VERTEX
  8
0
 10
131.042883
 20
3.540694
 42
0.032930
  0
VERTEX
  8
0
 10
140.335171
 20
6.272575
 42
0.049622
  0
VERTEX
  8
0
 10
143.228127
 20
7.673375
 42
0.118942
  0
VERTEX
  8
0
 10
144.899889
 20
9.350066
 42
0.104251
  0
VERTEX
  8
0
 10
145.748287
 20
11.753018
 42
0.032925
  0
VERTEX
  8
0
 10
146.000000
 20
15.571429
 42
-0.014044
  0
VERTEX
  8
0
 10
146.058468
 20
17.652588
 42
-0.023055
  0
VERTEX
  8
0
 10
146.238360
 20
19.405357
 42
-0.019358
  0
VERTEX
  8
0
 10
146.492087
 20
20.745691
 42
-0.349523
  0
VERTEX
  8
0
 10
146.811439
 20
21.000000
 42
0.178685
  0
VERTEX
  8
0
 10
148.561308
 20
21.645977
 42
0.070400
  0
VERTEX
  8
0
 10
150.286693
 20
23.601528
 42
0.064429
  0
VERTEX
  8
0
 10
151.564430
 20
26.221833
 42
0.081435
  0
VERTEX
  8
0
 10
152.000000
 20
28.878440
 42
-0.027565
  0
VERTEX
  8
0
 10
152.110785
 20
30.886416
 42
-0.089813
  0
VERTEX
  8
0
 10
152.489380
 20
32.157986
 42
-0.112219
  0
VERTEX
  8
0
 10
153.234492
 20
33.057062
 42
-0.056996
  0
VERTEX
  8
0
 10
154.500000
 20
33.818046
 42
0.058069
  0
VERTEX
  8
0
 10
155.785550
 20
34.594831
 42
0.116491
  0
VERTEX
  8
0
 10
156.526530
 20
35.512412
 42
0.088252
  0
VERTEX
  8
0
 10
156.895625
 20
36.839157
 42
0.023827
  0
VERTEX
  8
0
 10
157.000000
 20
39.028221
 42
-0.053479
  0
VERTEX
  8
0
 10
157.335404
 20
42.155103
 42
-0.038575
  0
VERTEX
  8
0
 10
158.342096
 20
45.518472
 42
-0.035554
  0
VERTEX
  8
0
 10
159.647460
 20
48.298345
 42
-0.271572
  0
VERTEX
  8
0
 10
160.844027
 20
49.000000
 42
0.151224
  0
VERTEX
  8
0
 10
161.324473
 20
49.148711
 42
0.009291
  0
VERTEX
  8
0
 10
162.558771
 20
50.027895
 42
0.013133
  0
VERTEX
  8
0
 10
164.004505
 20
51.158707
 42
0.009308
  0
VERTEX
  8
0
 10
165.568347
 20
52.499218
 42
-0.019712
  0
VERTEX
  8
0
 10
167.198618
 20
53.838856
 42
-0.023188
  0
VERTEX
  8
0
 10
168.845829
 20
54.970770
 42
-0.022944
  0
VERTEX
  8
0
 10
170.304549
 20
55.786368
 42
-0.116391
  0
VERTEX
  8
0
 10
171.204687
 20
55.999218
 42
0.135732
  0
VERTEX
  8
0
 10
171.982583
 20
56.214736
 42
0.102645
  0
VERTEX
  8
0
 10
172.637213
 20
56.818092
 42
0.073483
  0
VERTEX
  8
0
 10
173.156675
 20
57.828536
 42
0.034649
  0
VERTEX
  8
0
 10
173.533119
 20
59.250000
 42
-0.055570
  0
VERTEX
  8
0
 10
174.005994
 20
60.775207
 42
-0.023075
  0
VERTEX
  8
0
 10
174.960827
 20
62.713073
 42
-0.022487
  0
VERTEX
  8
0
 10
176.185185
 20
64.714906
 42
-0.026985
  0
VERTEX
  8
0
 10
177.517503
 20
66.475356
 42
0.000000
  0
VERTEX
  8
0
 10
180.878141
 20
70.450712
 42
0.000000
  0
VERTEX
  8
0
 10
181.914320
 20
67.725356
 42
0.186769
  0
VERTEX
  8
0
 10
184.071322
 20
65.327672
 42
0.207565
  0
VERTEX
  8
0
 10
187.163554
 20
65.143188
 42
0.168154
  0
VERTEX
  8
0
 10
189.902436
 20
67.371275
 42
0.136362
  0
VERTEX
  8
0
 10
190.968197
 20
71.027494
 42
0.086010
  0
VERTEX
  8
0
 10
190.578607
 20
73.456835
 42
0.073596
  0
VERTEX
  8
0
 10
189.386136
 20
75.761186
 42
0.080877
  0
VERTEX
  8
0
 10
187.717534
 20
77.428215
 42
0.157156
  0
VERTEX
  8
0
 10
185.943296
 20
78.000000
 42
-0.075621
  0
VERTEX
  8
0
 10
185.200834
 20
78.112937
 42
-0.089098
  0
VERTEX
  8
0
 10
184.570843
 20
78.440625
 42
-0.100722
  0
VERTEX
  8
0
 10
184.149697
 20
78.927961
 42
-0.128679
  0
VERTEX
  8
0
 10
184.000000
 20
79.500000
 42
0.185719
  0
VERTEX
  8
0
 10
183.732916
 20
80.194254
 42
0.127222
  0
VERTEX
  8
0
 10
183.020407
 20
80.664336
 42
0.065183
  0
VERTEX
  8
0
 10
181.726193
 20
80.926599
 42
0.017440
  0
VERTEX
  8
0
 10
179.622445
 20
81.000000
 42
0.026785
  0
VERTEX
  8
0
 10
177.737946
 20
80.898973
 42
0.038419
  0
VERTEX
  8
0
 10
176.094383
 20
80.593241
 42
0.045033
  0
VERTEX
  8
0
 10
174.798985
 20
80.119326
 42
0.109775
  0
VERTEX
  8
0
 10
174.000000
 20
79.500000
 42
-0.071191
  0
VERTEX
  8
0
 10
173.365736
 20
78.925577
 42
-0.044602
  0
VERTEX
  8
0
 10
172.487751
 20
78.440625
 42
-0.043930
  0
VERTEX
  8
0
 10
171.516538
 20
78.110459
 42
-0.060045
  0
VERTEX
  8
0
 10
170.600062
 20
78.000000
 42
0.050842
  0
VERTEX
  8
0
 10
169.631721
 20
77.901281
 42
0.029306
  0
VERTEX
  8
0
 10
168.498634
 20
77.597686
 42
0.029022
  0
VERTEX
  8
0
 10
167.385158
 20
77.155002
 42
0.042645
  0
VERTEX
  8
0
 10
166.472506
 20
76.630420
 42
-0.053200
  0
VERTEX
  8
0
 10
165.456028
 20
76.074305
 42
-0.022201
  0
VERTEX
  8
0
 10
163.986277
 20
75.537936
 42
-0.021664
  0
VERTEX
  8
0
 10
162.348061
 20
75.098263
 42
-0.026215
  0
VERTEX
  8
0
 10
160.778651
 20
74.834566
 42
-0.049145
  0
VERTEX
  8
0
 10
158.143727
 20
74.792825
 42
-0.212582
  0
VERTEX
  8
0
 10
156.803640
 20
75.527182
 42
-0.144106
  0
VERTEX
  8
0
 10
156.151391
 20
77.237550
 42
-0.019524
  0
VERTEX
  8
0
 10
156.000000
 20
81.113172
 42
0.026648
  0
VERTEX
  8
0
 10
155.908593
 20
82.827044
 42
0.050804
  0
VERTEX
  8
0
 10
155.623852
 20
84.175607
 42
0.068320
  0
VERTEX
  8
0
 10
155.170103
 20
85.124522
 42
0.156746
  0
VERTEX
  8
0
 10
154.559741
 20
85.615449
 42
-0.091406
  0
VERTEX
  8
0
 10
153.912984
 20
86.010835
 42
-0.179803
  0
VERTEX
  8
0
 10
153.636378
 20
86.537028
 42
-0.113125
  0
VERTEX
  8
0
 10
153.710853
 20
87.301447
 42
-0.026284
  0
VERTEX
  8
0
 10
154.186657
 20
88.510322
 42
0.089659
  0
VERTEX
  8
0
 10
154.761549
 20
90.774183
 42
0.069573
  0
VERTEX
  8
0
 10
154.585759
 20
93.314988
 42
0.082199
  0
VERTEX
  8
0
 10
153.804127
 20
95.318149
 42
0.264613
  0
VERTEX
  8
0
 10
152.605948
 20
96.000000
 42
-0.185287
  0
VERTEX
  8
0
 10
152.042739
 20
96.216130
 42
-0.065433
  0
VERTEX
  8
0
 10
151.471410
 20
96.884498
 42
-0.053977
  0
VERTEX
  8
0
 10
150.978116
 20
97.858621
 42
-0.040900
  0
VERTEX
  8
0
 10
150.647789
 20
99.011055
 42
0.053402
  0
VERTEX
  8
0
 10
150.232363
 20
100.334778
 42
0.056451
  0
VERTEX
  8
0
 10
149.551544
 20
101.514036
 42
0.058775
  0
VERTEX
  8
0
 10
148.653986
 20
102.470229
 42
0.068124
  0
VERTEX
  8
0
 10
147.599315
 20
103.136703
 42
0.096648
  0
VERTEX
  8
0
 10
145.161707
 20
103.719885
 42
0.041186
  0
VERTEX
  8
0
 10
141.795385
 20
103.584511
 42
0.038147
  0
VERTEX
  8
0
 10
138.772725
 20
102.975638
 42
0.335769
  0
VERTEX
  8
0
 10
138.000000
 20
101.954687
 42
-0.263020
  0
VERTEX
  8
0
 10
137.792429
 20
101.587392
 42
-0.059062
  0
VERTEX
  8
0
 10
137.112452
 20
101.280439
 42
-0.046609
  0
VERTEX
  8
0
 10
136.136129
 20
101.069388
 42
-0.029945
  0
VERTEX
  8
0
 10
134.978561
 20
101.000000
 42
0.044510
  0
VERTEX
  8
0
 10
133.491433
 20
100.867354
 42
0.088516
  0
VERTEX
  8
0
 10
132.385886
 20
100.458159
 42
0.095270
  0
VERTEX
  8
0
 10
131.541706
 20
99.716215
 42
0.058134
  0
VERTEX
  8
0
 10
130.853092
 20
98.576917
 42
-0.060534
  0
VERTEX
  8
0
 10
130.260444
 20
97.606906
 42
-0.044980
  0
VERTEX
  8
0
 10
129.395431
 20
96.695463
 42
-0.045779
  0
VERTEX
  8
0
 10
128.405693
 20
95.973626
 42
-0.073315
  0
VERTEX
  8
0
 10
127.441181
 20
95.574593
 42
0.069043
  0
VERTEX
  8
0
 10
126.509178
 20
95.198257
 42
0.052582
  0
VERTEX
  8
0
 10
125.616480
 20
94.551871
 42
0.053432
  0
VERTEX
  8
0
 10
124.894270
 20
93.748518
 42
0.079709
  0
VERTEX
  8
0
 10
124.470288
 20
92.906387
 42
-0.097212
  0
VERTEX
  8
0
 10
123.975973
 20
92.004008
 42
-0.040928
  0
VERTEX
  8
0
 10
123.002218
 20
91.013304
 42
-0.038484
  0
VERTEX
  8
0
 10
121.754968
 20
90.093779
 42
-0.040667
  0
VERTEX
  8
0
 10
120.403638
 20
89.395291
 42
0.030729
  0
VERTEX
  8
0
 10
118.660563
 20
88.537718
 42
0.095544
  0
VERTEX
  8
0
 10
117.671224
 20
87.688785
 42
0.114033
  0
VERTEX
  8
0
 10
117.165075
 20
86.624821
 42
0.054291
  0
VERTEX
  8
0
 10
117.000000
 20
85.109025
 42
0.046560
  0
VERTEX
  8
0
 10
117.110855
 20
83.921136
 42
0.041002
  0
VERTEX
  8
0
 10
117.440625
 20
82.720543
 42
0.043189
  0
VERTEX
  8
0
 10
117.924665
 20
81.682548
 42
0.089085
  0
VERTEX
  8
0
 10
118.500000
 20
81.000000
 42
-0.087203
  0
VERTEX
  8
0
 10
119.075216
 20
80.322745
 42
-0.043459
  0
VERTEX
  8
0
 10
119.559375
 20
79.303016
 42
-0.041380
  0
VERTEX
  8
0
 10
119.889155
 20
78.128377
 42
-0.047784
  0
VERTEX
  8
0
 10
120.000000
 20
76.971175
 42
-0.026622
  0
VERTEX
  8
0
 10
119.922659
 20
75.519649
 42
-0.153709
  0
VERTEX
  8
0
 10
119.619033
 20
74.823911
 42
-0.220660
  0
VERTEX
  8
0
 10
119.040554
 20
74.565639
 42
-0.060406
  0
VERTEX
  8
0
 10
118.025149
 20
74.703674
 42
0.106673
  0
VERTEX
  8
0
 10
116.994101
 20
74.748281
 42
0.055517
  0
VERTEX
  8
0
 10
115.751279
 20
74.390598
 42
0.046259
  0
VERTEX
  8
0
 10
114.377300
 20
73.668992
 42
0.030873
  0
VERTEX
  8
0
 10
112.948423
 20
72.610055
 42
-0.026268
  0
VERTEX
  8
0
 10
110.532285
 20
70.784771
 42
-0.115245
  0
VERTEX
  8
0
 10
108.873063
 20
70.150779
 42
-0.140869
  0
VERTEX
  8
0
 10
107.286270
 20
70.381504
 42
-0.046715
  0
VERTEX
  8
0
 10
105.222506
 20
71.556704
 42
-0.038898
  0
VERTEX
  8
0
 10
103.393243
 20
73.062683
 42
-0.309962
  0
VERTEX
  8
0
 10
103.183980
 20
74.078685
 42
-0.248738
  0
VERTEX
  8
0
 10
104.083120
 20
74.813549
 42
-0.028769
  0
VERTEX
  8
0
 10
106.750000
 20
75.189635
 42
0.023563
  0
VERTEX
  8
0
 10
108.781750
 20
75.454626
 42
0.109367
  0
VERTEX
  8
0
 10
109.867463
 20
75.906864
 42
0.151756
  0
VERTEX
  8
0
 10
110.473121
 20
76.692040
 42
0.059994
  0
VERTEX
  8
0
 10
110.795428
 20
78.032432
 42
-0.067759
  0
VERTEX
  8
0
 10
111.070558
 20
79.103472
 42
-0.058440
  0
VERTEX
  8
0
 10
111.631477
 20
80.121734
 42
-0.059318
  0
VERTEX
  8
0
 10
112.402275
 20
80.968025
 42
-0.075134
  0
VERTEX
  8
0
 10
113.295428
 20
81.532432
 42
0.070251
  0
VERTEX
  8
0
 10
114.405378
 20
82.218841
 42
0.124892
  0
VERTEX
  8
0
 10
115.033220
 20
83.083249
 42
0.086899
  0
VERTEX
  8
0
 10
115.301763
 20
84.366340
 42
0.022122
  0
VERTEX
  8
0
 10
115.277685
 20
86.500000
 42
-0.002072
  0
VERTEX
  8
0
 10
115.190170
 20
88.201862
 42
-0.001736
  0
VERTEX
  8
0
 10
115.111077
 20
90.007987
 42
-0.001751
  0
VERTEX
  8
0
 10
115.050296
 20
91.659323
 42
-0.004809
  0
VERTEX
  8
0
 10
115.022696
 20
92.825064
 42
0.059935
  0
VERTEX
  8
0
 10
114.717070
 20
95.095988
 42
0.069201
  0
VERTEX
  8
0
 10
113.883852
 20
97.113332
 42
0.083328
  0
VERTEX
  8
0
 10
112.710272
 20
98.517623
 42
0.178971
  0
VERTEX
  8
0
 10
111.405799
 20
99.000000
 42
-0.066575
  0
VERTEX
  8
0
 10
110.866925
 20
99.072070
 42
-0.139541
  0
VERTEX
  8
0
 10
110.508051
 20
99.288753
 42
-0.191029
  0
VERTEX
  8
0
 10
110.382510
 20
99.609762
 42
-0.138083
  0
VERTEX
  8
0
 10
110.489487
 20
99.982990
 42
0.118539
  0
VERTEX
  8
0
 10
110.685083
 20
100.578004
 42
0.023313
  0
VERTEX
  8
0
 10
110.724734
 20
101.710348
 42
0.023530
  0
VERTEX
  8
0
 10
110.645202
 20
103.064433
 42
0.019934
  0
VERTEX
  8
0
 10
110.437213
 20
104.482990
 42
0.028619
  0
VERTEX
  8
0
 10
110.024440
 20
106.150446
 42
0.083442
  0
VERTEX
  8
0
 10
109.492955
 20
107.206172
 42
0.124162
  0
VERTEX
  8
0
 10
108.786291
 20
107.790417
 42
0.111405
  0
VERTEX
  8
0
 10
107.857324
 20
108.000000
 42
-0.083105
  0
VERTEX
  8
0
 10
107.075051
 20
108.130926
 42
-0.066830
  0
VERTEX
  8
0
 10
106.311591
 20
108.514062
 42
-0.067367
  0
VERTEX
  8
0
 10
105.681992
 20
109.081040
 42
-0.087646
  0
VERTEX
  8
0
 10
105.291557
 20
109.750000
 42
0.096000
  0
VERTEX
  8
0
 10
104.124666
 20
111.675318
 42
0.139234
  0
VERTEX
  8
0
 10
102.448152
 20
112.721315
 42
0.116544
  0
VERTEX
  8
0
 10
100.237083
 20
112.829933
 42
0.055783
  0
SEQEND
  0
POLYLINE
  8
0
 66
1
 70
1
  0
VERTEX
  8
0
 10
57.081787
 20
93.000000
 42
-0.147388
  0
VERTEX
  8
0
 10
58.403660
 20
92.601690
 42
-0.254822
  0
VERTEX
  8
0
 10
58.926142
 20
91.613670
 42
-0.149910
  0
VERTEX
  8
0
 10
58.457099
 20
90.150373
 42
-0.056921
  0
VERTEX
  8
0
 10
57.025427
 20
88.523011
 42
-0.018782
  0
VERTEX
  8
0
 10
55.757849
 20
87.459661
 42
-0.248952
  0
VERTEX
  8
0
 10
55.176201
 20
87.358344
 42
-0.212362
  0
VERTEX
  8
0
 10
54.709076
 20
87.779785
 42
-0.013735
  0
VERTEX
  8
0
 10
53.995400
 20
89.512099
 42
0.006843
  0
VERTEX
  8
0
 10
53.544796
 20
90.650142
 42
0.006868
  0
VERTEX
  8
0
 10
53.063743
 20
91.774033
 42
0.006736
  0
VERTEX
  8
0
 10
52.617674
 20
92.742475
 42
0.027123
  0
VERTEX
  8
0
 10
52.305929
 20
93.314014
 42
-0.111693
  0
VERTEX
  8
0
 10
52.179473
 20
93.681868
 42
-0.356446
  0
VERTEX
  8
0
 10
52.311077
 20
93.884429
 42
-0.142246
  0
VERTEX
  8
0
 10
52.715885
 20
93.895452
 42
-0.027766
  0
VERTEX
  8
0
 10
53.417743
 20
93.669939
 42
0.029191
  0
VERTEX
  8
0
 10
54.225089
 20
93.413065
 42
0.017210
  0
VERTEX
  8
0
 10
55.214212
 20
93.196795
 42
0.017185
  0
VERTEX
  8
0
 10
56.220521
 20
93.048329
 42
0.028035
  0
SEQEND
  0
POLYLINE
  8
0
 66
1
 70
1
  0
VERTEX
  8
0
 10
49.013655
 20
90.750000
 42
0.031667
  0
VERTEX
  8
0
 10
49.061298
 20
90.109395
 42
0.010046
  0
VERTEX
  8
0
 10
49.211742
 20
89.162965
 42
0.009985
  0
VERTEX
  8
0
 10
49.422234
 20
88.112176
 42
0.010949
  0
VERTEX
  8
0
 10
49.668819
 20
87.102648
 42
-0.023919
  0
VERTEX
  8
0
 10
49.977196
 20
85.681210
 42
-0.281789
  0
VERTEX
  8
0
 10
49.774419
 20
85.178674
 42
-0.209962
  0
VERTEX
  8
0
 10
49.175428
 20
85.042194
 42
-0.014005
  0
VERTEX
  8
0
 10
47.415182
 20
85.431932
 42
-0.073727
  0
VERTEX
  8
0
 10
44.911363
 20
86.470203
 42
-0.116144
  0
VERTEX
  8
0
 10
43.250954
 20
88.085197
 42
-0.301354
  0
VERTEX
  8
0
 10
43.273033
 20
89.354966
 42
-0.246841
  0
VERTEX
  8
0
 10
44.500000
 20
90.000000
 42
0.064853
  0
VERTEX
  8
0
 10
45.073457
 20
90.074694
 42
0.082425
  0
VERTEX
  8
0
 10
45.559375
 20
90.293750
 42
0.098894
  0
VERTEX
  8
0
 10
45.884432
 20
90.618646
 42
0.148195
  0
VERTEX
  8
0
 10
46.000000
 20
91.000000
 42
-0.148195
  0
VERTEX
  8
0
 10
46.115568
 20
91.381354
 42
-0.098894
  0
VERTEX
  8
0
 10
46.440625
 20
91.706250
 42
-0.082425
  0
VERTEX
  8
0
 10
46.926543
 20
91.925306
 42
-0.064853
  0
VERTEX
  8
0
 10
47.500000
 20
92.000000
 42
-0.081769
  0
VERTEX
  8
0
 10
48.073943
 20
91.905507
 42
-0.091236
  0
VERTEX
  8
0
 10
48.563386
 20
91.632812
 42
-0.099467
  0
VERTEX
  8
0
 10
48.893209
 20
91.226804
 42
-0.118810
  0
SEQEND
  0
POLYLINE
  8
0
 66
1
 70
1
  0
VERTEX
  8
0
 10
82.683114
 20
87.812500
 42
-0.054073
  0
VERTEX
  8
0
 10
82.461564
 20
87.395823
 42
-0.470617
  0
VERTEX
  8
0
 10
82.279315
 20
87.378580
 42
-0.168741
  0
VERTEX
  8
0
 10
82.137993
 20
87.670344
 42
-0.018894
  0
VERTEX
  8
0
 10
82.078947
 20
88.416667
 42
-0.028489
  0
VERTEX
  8
0
 10
82.089945
 20
89.112848
 42
-0.077125
  0
VERTEX
  8
0
 10
82.200665
 20
89.592839
 42
-0.208169
  0
VERTEX
  8
0
 10
82.385309
 20
89.775380
 42
-0.296942
  0
VERTEX
  8
0
 10
82.604167
 20
89.729167
 42
-0.126455
  0
VERTEX
  8
0
 10
82.797407
 20
89.402231
 42
-0.060344
  0
VERTEX
  8
0
 10
82.876576
 20
88.916927
 42
-0.054150
  0
VERTEX
  8
0
 10
82.839148
 20
88.359369
 42
-0.051402
  0
SEQEND
  0
POLYLINE
  8
0
 66
1
 70
1
  0
VERTEX
  8
0
 10
64.500000
 20
85.000000
 42
-0.139169
  0
VERTEX
  8
0
 10
64.607943
 20
84.620352
 42
-0.191142
  0
VERTEX
  8
0
 10
64.478525
 20
84.293750
 42
-0.138808
  0
VERTEX
  8
0
 10
64.110654
 20
84.073267
 42
-0.066118
  0
VERTEX
  8
0
 10
63.559017
 20
84.000000
 42
-0.062283
  0
VERTEX
  8
0
 10
62.962904
 20
84.074545
 42
-0.080552
  0
VERTEX
  8
0
 10
62.457961
 20
84.293750
 42
-0.097988
  0
VERTEX
  8
0
 10
62.120018
 20
84.618621
 42
-0.153634
  0
VERTEX
  8
0
 10
62.000000
 20
85.000000
 42
-0.092995
  0
VERTEX
  8
0
 10
62.071618
 20
85.381732
 42
-0.096318
  0
VERTEX
  8
0
 10
62.276414
 20
85.706250
 42
-0.099231
  0
VERTEX
  8
0
 10
62.581949
 20
85.923444
 42
-0.105429
  0
VERTEX
  8
0
 10
62.940983
 20
86.000000
 42
-0.089642
  0
VERTEX
  8
0
 10
63.346558
 20
85.926698
 42
-0.053229
  0
VERTEX
  8
0
 10
63.787100
 20
85.706250
 42
-0.051032
  0
VERTEX
  8
0
 10
64.193797
 20
85.382515
 42
-0.060810
  0
SEQEND
  0
POLYLINE
  8
0
 66
1
 70
1
  0
VERTEX
  8
0
 10
46.435239
 20
80.104785
 42
-0.160704
  0
VERTEX
  8
0
 10
46.527613
 20
79.718783
 42
-0.122111
  0
VERTEX
  8
0
 10
46.387051
 20
79.304103
 42
-0.094924
  0
VERTEX
  8
0
 10
46.024563
 20
78.922037
 42
-0.064087
  0
VERTEX
  8
0
 10
45.494256
 20
78.636170
 42
-0.076022
  0
VERTEX
  8
0
 10
44.882944
 20
78.502894
 42
-0.151817
  0
VERTEX
  8
0
 10
44.406756
 20
78.618633
 42
-0.165347
  0
VERTEX
  8
0
 10
44.106064
 20
78.973240
 42
-0.094172
  0
VERTEX
  8
0
 10
44.000000
 20
79.531385
 42
-0.128597
  0
VERTEX
  8
0
 10
44.245023
 20
80.468306
 42
-0.210000
  0
VERTEX
  8
0
 10
44.890389
 20
80.954077
 42
-0.198008
  0
VERTEX
  8
0
 10
45.717023
 20
80.820919
 42
-0.117169
  0
SEQEND
  0
POLYLINE
  8
0
 66
1
 70
1
  0
VERTEX
  8
0
 10
65.756322
 20
78.750000
 42
-0.174068
  0
VERTEX
  8
0
 10
65.367453
 20
78.250883
 42
-0.047256
  0
VERTEX
  8
0
 10
64.461013
 20
77.790671
 42
-0.041866
  0
VERTEX
  8
0
 10
63.263419
 20
77.431110
 42
-0.033022
  0
VERTEX
  8
0
 10
61.922988
 20
77.239520
 42
0.000000
  0
VERTEX
  8
0
 10
58.500000
 20
76.979039
 42
0.000000
  0
VERTEX
  8
0
 10
61.000000
 20
78.454084
 42
-0.032177
  0
VERTEX
  8
0
 10
63.107119
 20
79.521025
 42
-0.085771
  0
VERTEX
  8
0
 10
64.740962
 20
79.909199
 42
-0.226652
  0
VERTEX
  8
0
 10
65.579596
 20
79.570696
 42
-0.271001
  0
SEQEND
  0
POLYLINE
  8
0
 66
1
 70
1
  0
VERTEX
  8
0
 10
52.000000
 20
74.001446
 42
-0.030219
  0
VERTEX
  8
0
 10
50.259198
 20
72.802761
 42
-0.108078
  0
VERTEX
  8
0
 10
48.987084
 20
72.370889
 42
-0.218797
  0
VERTEX
  8
0
 10
48.149342
 20
72.647433
 42
-0.161837
  0
VERTEX
  8
0
 10
47.675000
 20
73.515179
 42
-0.299936
  0
VERTEX
  8
0
 10
47.923240
 20
74.096750
 42
-0.057471
  0
VERTEX
  8
0
 10
48.998964
 20
74.642848
 42
-0.032728
  0
VERTEX
  8
0
 10
50.893562
 20
75.207203
 42
-0.008558
  0
VERTEX
  8
0
 10
54.000000
 20
75.859449
 42
-0.724299
  0
VERTEX
  8
0
 10
54.044317
 20
75.779650
 42
-0.018860
  0
VERTEX
  8
0
 10
53.618750
 20
75.353294
 42
-0.014427
  0
VERTEX
  8
0
 10
52.925208
 20
74.745309
 42
-0.006866
  0
SEQEND
  0
POLYLINE
  8
0
 66
1
 70
1
  0
VERTEX
  8
0
 10
126.116971
 20
72.000000
 42
-0.015810
  0
VERTEX
  8
0
 10
127.824672
 20
71.945989
 42
-0.190319
  0
VERTEX
  8
0
 10
128.409078
 20
71.671308
 42
-0.285383
  0
VERTEX
  8
0
 10
128.515847
 20
71.142695
 42
-0.033690
  0
VERTEX
  8
0
 10
128.000000
 20
70.000000
 42
-0.118127
  0
VERTEX
  8
0
 10
126.709932
 20
68.548434
 42
-0.181616
  0
VERTEX
  8
0
 10
125.099291
 20
68.137586
 42
-0.142796
  0
VERTEX
  8
0
 10
123.318014
 20
68.876530
 42
-0.065991
  0
VERTEX
  8
0
 10
121.570720
 20
70.707210
 42
-0.004748
  0
VERTEX
  8
0
 10
120.406174
 20
72.335646
 42
-0.132281
  0
VERTEX
  8
0
 10
120.229363
 20
72.822626
 42
-0.520248
  0
VERTEX
  8
0
 10
120.431548
 20
72.991756
 42
-0.025903
  0
VERTEX
  8
0
 10
121.402508
 20
72.675785
 42
0.039784
  0
VERTEX
  8
0
 10
122.283535
 20
72.415865
 42
0.016247
  0
VERTEX
  8
0
 10
123.513822
 20
72.198512
 42
0.015954
  0
VERTEX
  8
0
 10
124.857143
 20
72.049512
 42
0.019643
  0
SEQEND
  0
POLYLINE
  8
0
 66
1
 70
1
  0
VERTEX
  8
0
 10
64.581963
 20
65.390073
 42
0.039581
  0
VERTEX
  8
0
 10
65.794825
 20
65.185890
 42
0.018780
  0
VERTEX
  8
0
 10
67.378559
 20
65.106466
 42
0.018481
  0
VERTEX
  8
0
 10
69.050131
 20
65.147267
 42
0.024884
  0
VERTEX
  8
0
 10
70.554286
 20
65.315096
 42
-0.049700
  0
VERTEX
  8
0
 10
73.155510
 20
65.475423
 42
-0.370889
  0
VERTEX
  8
0
 10
73.993668
 20
64.697592
 42
-0.283177
  0
VERTEX
  8
0
 10
73.424638
 20
63.487374
 42
-0.040687
  0
VERTEX
  8
0
 10
70.914617
 20
62.122499
 42
-0.029624
  0
VERTEX
  8
0
 10
69.282625
 20
61.512890
 42
-0.063655
  0
VERTEX
  8
0
 10
67.961590
 20
61.284605
 42
-0.071410
  0
VERTEX
  8
0
 10
66.724586
 20
61.406968
 42
-0.046622
  0
VERTEX
  8
0
 10
65.367564
 20
61.878388
 42
0.051570
  0
VERTEX
  8
0
 10
62.858214
 20
62.722451
 42
0.064995
  0
VERTEX
  8
0
 10
60.420022
 20
62.946471
 42
0.079662
  0
VERTEX
  8
0
 10
58.445237
 20
62.551969
 42
0.177951
  0
VERTEX
  8
0
 10
57.299190
 20
61.570139
 42
-0.110881
  0
VERTEX
  8
0
 10
56.047992
 20
60.175017
 42
-0.032972
  0
VERTEX
  8
0
 10
53.596454
 20
58.661992
 42
-0.028772
  0
VERTEX
  8
0
 10
51.054911
 20
57.497912
 42
-0.235608
  0
VERTEX
  8
0
 10
49.821700
 20
57.610195
 42
-0.126361
  0
VERTEX
  8
0
 10
49.124927
 20
58.334782
 42
-0.223752
  0
VERTEX
  8
0
 10
49.064724
 20
59.144769
 42
-0.196427
  0
VERTEX
  8
0
 10
49.666358
 20
59.785451
 42
-0.103046
  0
VERTEX
  8
0
 10
50.750000
 20
60.031803
 42
0.095608
  0
VERTEX
  8
0
 10
52.419486
 20
60.385563
 42
0.057721
  0
VERTEX
  8
0
 10
54.185485
 20
61.384454
 42
0.059798
  0
VERTEX
  8
0
 10
55.563044
 20
62.666565
 42
0.177277
  0
VERTEX
  8
0
 10
56.000000
 20
63.860243
 42
-0.086463
  0
VERTEX
  8
0
 10
56.075826
 20
64.295455
 42
-0.094072
  0
VERTEX
  8
0
 10
56.293750
 20
64.665196
 42
-0.100251
  0
VERTEX
  8
0
 10
56.618535
 20
64.912501
 42
-0.113217
  0
VERTEX
  8
0
 10
57.000000
 20
65.000000
 42
0.237970
  0
VERTEX
  8
0
 10
57.383415
 20
65.193436
 42
0.070167
  0
VERTEX
  8
0
 10
57.706250
 20
65.789765
 42
0.053704
  0
VERTEX
  8
0
 10
57.927035
 20
66.658833
 42
0.035385
  0
VERTEX
  8
0
 10
58.000000
 20
67.688561
 42
0.000000
  0
VERTEX
  8
0
 10
58.000000
 20
70.377123
 42
0.000000
  0
VERTEX
  8
0
 10
60.027677
 20
68.200667
 42
0.039696
  0
VERTEX
  8
0
 10
60.988552
 20
67.320794
 42
0.027294
  0
VERTEX
  8
0
 10
62.201916
 20
66.477267
 42
0.027600
  0
VERTEX
  8
0
 10
63.467426
 20
65.789633
 42
0.049201
  0
SEQEND
  0
POLYLINE
  8
0
 66
1
 70
1
  0
VERTEX
  8
0
 10
155.915702
 20
65.842488
 42
0.000000
  0
VERTEX
  8
0
 10
154.701696
 20
63.574097
 42
0.000000
  0
VERTEX
  8
0
 10
153.840668
 20
65.901680
 42
0.050756
  0
VERTEX
  8
0
 10
153.291861
 20
67.021345
 42
0.127892
  0
VERTEX
  8
0
 10
152.638235
 20
67.641624
 42
0.125795
  0
VERTEX
  8
0
 10
151.757884
 20
67.870685
 42
0.048327
  0
VERTEX
  8
0
 10
150.489819
 20
67.753303
 42
-0.029646
  0
VERTEX
  8
0
 10
149.535454
 20
67.628912
 42
-0.050359
  0
VERTEX
  8
0
 10
148.731384
 20
67.653282
 42
-0.070563
  0
VERTEX
  8
0
 10
148.179116
 20
67.807211
 42
-0.297890
  0
VERTEX
  8
0
 10
148.000000
 20
68.081174
 42
-0.373957
  0
VERTEX
  8
0
 10
148.600166
 20
68.771408
 42
-0.014349
  0
VERTEX
  8
0
 10
152.244308
 20
69.176381
 42
-0.014744
  0
VERTEX
  8
0
 10
155.917525
 20
69.369383
 42
-0.300647
  0
VERTEX
  8
0
 10
156.814854
 20
68.805439
 42
-0.153746
  0
VERTEX
  8
0
 10
156.864028
 20
68.399341
 42
-0.027515
  0
VERTEX
  8
0
 10
156.680605
 20
67.648565
 42
-0.027445
  0
VERTEX
  8
0
 10
156.357438
 20
66.761896
 42
-0.021756
  0
SEQEND
  0
POLYLINE
  8
0
 66
1
 70
1
  0
VERTEX
  8
0
 10
54.000000
 20
67.019052
 42
-0.288735
  0
VERTEX
  8
0
 10
53.427486
 20
66.110286
 42
-0.055772
  0
VERTEX
  8
0
 10
51.506149
 20
65.441414
 42
-0.054364
  0
VERTEX
  8
0
 10
49.325818
 20
65.189663
 42
-0.140898
  0
VERTEX
  8
0
 10
47.816917
 20
65.613152
 42
-0.102594
  0
VERTEX
  8
0
 10
47.387164
 20
66.020015
 42
-0.331955
  0
VERTEX
  8
0
 10
47.399263
 20
66.389421
 42
-0.135604
  0
VERTEX
  8
0
 10
47.884240
 20
66.741151
 42
-0.021615
  0
VERTEX
  8
0
 10
49.010081
 20
67.107615
 42
-0.013347
  0
VERTEX
  8
0
 10
51.431006
 20
67.712309
 42
-0.059024
  0
VERTEX
  8
0
 10
52.890144
 20
67.858955
 42
-0.143637
  0
VERTEX
  8
0
 10
53.683400
 20
67.610902
 42
-0.250661
  0
SEQEND
  0
POLYLINE
  8
0
 66
1
 70
1
  0
VERTEX
  8
0
 10
145.102233
 20
66.316483
 42
-0.053637
  0
VERTEX
  8
0
 10
146.505758
 20
66.526607
 42
-0.423199
  0
VERTEX
  8
0
 10
146.934845
 20
66.119392
 42
-0.227460
  0
VERTEX
  8
0
 10
146.577274
 20
65.352820
 42
-0.032208
  0
VERTEX
  8
0
 10
145.124023
 20
64.309527
 42
-0.052040
  0
VERTEX
  8
0
 10
144.086525
 20
63.802894
 42
-0.107701
  0
VERTEX
  8
0
 10
143.197349
 20
63.681487
 42
-0.096773
  0
VERTEX
  8
0
 10
142.276539
 20
63.938134
 42
-0.036578
  0
VERTEX
  8
0
 10
141.124023
 20
64.625684
 42
-0.041265
  0
VERTEX
  8
0
 10
139.488119
 20
65.985496
 42
-0.198919
  0
VERTEX
  8
0
 10
139.024306
 20
67.076106
 42
-0.481680
  0
VERTEX
  8
0
 10
139.562282
 20
67.513305
 42
-0.069122
  0
VERTEX
  8
0
 10
141.102233
 20
66.945287
 42
0.047958
  0
VERTEX
  8
0
 10
142.046374
 20
66.551050
 42
0.035962
  0
VERTEX
  8
0
 10
143.144403
 20
66.296480
 42
0.036780
  0
VERTEX
  8
0
 10
144.223102
 20
66.207396
 42
0.066259
  0
SEQEND
  0
POLYLINE
  8
0
 66
1
 70
1
  0
VERTEX
  8
0
 10
78.000000
 20
57.640233
 42
-0.296153
  0
VERTEX
  8
0
 10
77.529146
 20
56.915003
 42
-0.025782
  0
VERTEX
  8
0
 10
75.377357
 20
56.086463
 42
-0.022099
  0
VERTEX
  8
0
 10
72.100220
 20
55.173118
 42
-0.007443
  0
VERTEX
  8
0
 10
67.250000
 20
54.125497
 42
0.001238
  0
VERTEX
  8
0
 10
62.968908
 20
53.256267
 42
0.001544
  0
VERTEX
  8
0
 10
58.996875
 20
52.426744
 42
0.001248
  0
VERTEX
  8
0
 10
55.666522
 20
51.711794
 42
0.011857
  0
VERTEX
  8
0
 10
54.250000
 20
51.368633
 42
-0.038495
  0
VERTEX
  8
0
 10
53.332959
 20
51.197552
 42
-0.083289
  0
VERTEX
  8
0
 10
52.618990
 20
51.239516
 42
-0.135835
  0
VERTEX
  8
0
 10
52.171494
 20
51.481039
 42
-0.204236
  0
VERTEX
  8
0
 10
52.000000
 20
51.883369
 42
-0.175094
  0
VERTEX
  8
0
 10
52.153935
 20
52.309470
 42
-0.093046
  0
VERTEX
  8
0
 10
52.591486
 20
52.671990
 42
-0.073270
  0
VERTEX
  8
0
 10
53.243225
 20
52.917345
 42
-0.053494
  0
VERTEX
  8
0
 10
54.013569
 20
53.000000
 42
0.076067
  0
VERTEX
  8
0
 10
55.781758
 20
53.270568
 42
0.035072
  0
VERTEX
  8
0
 10
57.954576
 20
54.122833
 42
0.034899
  0
VERTEX
  8
0
 10
59.954721
 20
55.251325
 42
0.090248
  0
VERTEX
  8
0
 10
61.147077
 20
56.392484
 42
-0.201061
  0
VERTEX
  8
0
 10
61.665738
 20
56.708083
 42
-0.024067
  0
VERTEX
  8
0
 10
63.029621
 20
56.847244
 42
-0.025637
  0
VERTEX
  8
0
 10
64.741103
 20
56.851170
 42
-0.018393
  0
VERTEX
  8
0
 10
66.647077
 20
56.687329
 42
0.024024
  0
VERTEX
  8
0
 10
68.931484
 20
56.516838
 42
0.031258
  0
VERTEX
  8
0
 10
71.027533
 20
56.592411
 42
0.034598
  0
VERTEX
  8
0
 10
72.897135
 20
56.908921
 42
0.048187
  0
VERTEX
  8
0
 10
74.500000
 20
57.463626
 42
-0.000854
  0
VERTEX
  8
0
 10
75.667713
 20
57.996002
 42
-0.001270
  0
VERTEX
  8
0
 10
76.692188
 20
58.457826
 42
-0.000545
  0
VERTEX
  8
0
 10
77.569796
 20
58.849620
 42
-0.026175
  0
VERTEX
  8
0
 10
77.750000
 20
58.918781
 42
-0.408219
  0
VERTEX
  8
0
 10
77.847190
 20
58.870504
 42
-0.035398
  0
VERTEX
  8
0
 10
77.926563
 20
58.576710
 42
-0.030938
  0
VERTEX
  8
0
 10
77.982101
 20
58.155966
 42
-0.017348
  0
SEQEND
  0
POLYLINE
  8
0
 66
1
 70
1
  0
VERTEX
  8
0
 10
76.833333
 20
41.977355
 42
0.114736
  0
VERTEX
  8
0
 10
77.066191
 20
41.603586
 42
0.069066
  0
VERTEX
  8
0
 10
77.484896
 20
41.287098
 42
0.063386
  0
VERTEX
  8
0
 10
78.016824
 20
41.072950
 42
0.064121
  0
VERTEX
  8
0
 10
78.583333
 20
41.000000
 42
-0.123118
  0
VERTEX
  8
0
 10
79.122420
 20
40.865215
 42
-0.101744
  0
VERTEX
  8
0
 10
79.579356
 20
40.485937
 42
-0.091811
  0
VERTEX
  8
0
 10
79.883576
 20
39.918462
 42
-0.079603
  0
VERTEX
  8
0
 10
79.984687
 20
39.250000
 42
-0.016184
  0
VERTEX
  8
0
 10
79.949078
 20
38.384412
 42
-0.268667
  0
VERTEX
  8
0
 10
79.792808
 20
38.155216
 42
-0.354973
  0
VERTEX
  8
0
 10
79.558646
 20
38.211220
 42
-0.022226
  0
VERTEX
  8
0
 10
79.122403
 20
38.836189
 42
0.096853
  0
VERTEX
  8
0
 10
78.658348
 20
39.326339
 42
0.063025
  0
VERTEX
  8
0
 10
77.969712
 20
39.696973
 42
0.060213
  0
VERTEX
  8
0
 10
77.172650
 20
39.898448
 42
0.069035
  0
VERTEX
  8
0
 10
76.387715
 20
39.890168
 42
-0.044516
  0
VERTEX
  8
0
 10
75.403827
 20
39.831630
 42
-0.013558
  0
VERTEX
  8
0
 10
73.912426
 20
39.916227
 42
-0.013458
  0
VERTEX
  8
0
 10
72.239035
 20
40.102219
 42
-0.014306
  0
VERTEX
  8
0
 10
70.612033
 20
40.375175
 42
0.039345
  0
VERTEX
  8
0
 10
68.266831
 20
40.648871
 42
0.086180
  0
VERTEX
  8
0
 10
66.481159
 20
40.407412
 42
0.061532
  0
VERTEX
  8
0
 10
64.530187
 20
39.514423
 42
0.012740
  0
VERTEX
  8
0
 10
61.362033
 20
37.449418
 42
0.026189
  0
VERTEX
  8
0
 10
57.097914
 20
34.170754
 42
0.215726
  0
VERTEX
  8
0
 10
56.084853
 20
32.007696
 42
0.298586
  0
VERTEX
  8
0
 10
57.176425
 20
30.294349
 42
0.044088
  0
VERTEX
  8
0
 10
61.250000
 20
28.875763
 42
0.000000
  0
VERTEX
  8
0
 10
66.500000
 20
27.552044
 42
0.000000
  0
VERTEX
  8
0
 10
62.500000
 20
27.026022
 42
-0.019816
  0
VERTEX
  8
0
 10
60.681975
 20
26.859889
 42
-0.054409
  0
VERTEX
  8
0
 10
59.397342
 20
26.933462
 42
-0.089702
  0
VERTEX
  8
0
 10
58.572137
 20
27.229872
 42
-0.201127
  0
VERTEX
  8
0
 10
58.176676
 20
27.750000
 42
0.122970
  0
VERTEX
  8
0
 10
57.917010
 20
28.227785
 42
0.075073
  0
VERTEX
  8
0
 10
57.414505
 20
28.632812
 42
0.067635
  0
VERTEX
  8
0
 10
56.754971
 20
28.906597
 42
0.064692
  0
VERTEX
  8
0
 10
56.036082
 20
29.000000
 42
-0.123920
  0
VERTEX
  8
0
 10
55.158447
 20
29.220905
 42
-0.134558
  0
VERTEX
  8
0
 10
54.521662
 20
29.826955
 42
-0.082075
  0
VERTEX
  8
0
 10
54.079195
 20
30.938523
 42
-0.024308
  0
VERTEX
  8
0
 10
53.774877
 20
32.750000
 42
-0.024775
  0
VERTEX
  8
0
 10
53.546256
 20
36.092345
 42
-0.086282
  0
VERTEX
  8
0
 10
53.875614
 20
38.222797
 42
-0.138175
  0
VERTEX
  8
0
 10
54.789657
 20
39.558476
 42
-0.112097
  0
VERTEX
  8
0
 10
56.340679
 20
40.351799
 42
-0.008603
  0
VERTEX
  8
0
 10
65.761882
 20
42.580831
 42
-0.034004
  0
VERTEX
  8
0
 10
71.650103
 20
43.453527
 42
-0.061297
  0
VERTEX
  8
0
 10
75.279783
 20
43.296329
 42
-0.275786
  0
SEQEND
  0
POLYLINE
  8
0
 66
1
 70
1
  0
VERTEX
  8
0
 10
80.000000
 20
31.009643
 42
-0.210072
  0
VERTEX
  8
0
 10
79.850808
 20
30.670215
 42
-0.048186
  0
VERTEX
  8
0
 10
79.339062
 20
30.284200
 42
-0.041828
  0
VERTEX
  8
0
 10
78.611564
 20
29.917990
 42
-0.030235
  0
VERTEX
  8
0
 10
77.750000
 20
29.630286
 42
-0.014236
  0
VERTEX
  8
0
 10
75.050942
 20
28.988728
 42
-0.163464
  0
VERTEX
  8
0
 10
73.982186
 20
29.116696
 42
-0.497007
  0
VERTEX
  8
0
 10
73.863551
 20
29.687086
 42
-0.043203
  0
VERTEX
  8
0
 10
75.106567
 20
30.885210
 42
-0.065559
  0
VERTEX
  8
0
 10
76.745420
 20
31.889384
 42
-0.098662
  0
VERTEX
  8
0
 10
78.375072
 20
32.257417
 42
-0.159478
  0
VERTEX
  8
0
 10
79.527992
 20
31.912279
 42
-0.245680
  0
SEQEND
  0
POLYLINE
  8
0
 66
1
 70
1
  0
VERTEX
  8
0
 10
106.106601
 20
10.087045
 42
0.104575
  0
VERTEX
  8
0
 10
105.590855
 20
9.584050
 42
0.078677
  0
VERTEX
  8
0
 10
105.257870
 20
8.862745
 42
0.071274
  0
VERTEX
  8
0
 10
105.142842
 20
8.003998
 42
0.061735
  0
VERTEX
  8
0
 10
105.262982
 20
7.102358
 42
-0.038867
  0
VERTEX
  8
0
 10
105.407989
 20
6.296715
 42
-0.067203
  0
VERTEX
  8
0
 10
105.385014
 20
5.617568
 42
-0.101947
  0
VERTEX
  8
0
 10
105.208616
 20
5.164405
 42
-0.254381
  0
VERTEX
  8
0
 10
104.906380
 20
5.000000
 42
-0.081061
  0
VERTEX
  8
0
 10
104.559151
 20
5.056666
 42
-0.090344
  0
VERTEX
  8
0
 10
104.262238
 20
5.220313
 42
-0.098706
  0
VERTEX
  8
0
 10
104.061155
 20
5.463907
 42
-0.119339
  0
VERTEX
  8
0
 10
103.986345
 20
5.750000
 42
0.038866
  0
VERTEX
  8
0
 10
103.945571
 20
6.173885
 42
0.007282
  0
VERTEX
  8
0
 10
103.799577
 20
6.940625
 42
0.007754
  0
VERTEX
  8
0
 10
103.601554
 20
7.833587
 42
0.007025
  0
VERTEX
  8
0
 10
103.369714
 20
8.750000
 42
-0.037799
  0
VERTEX
  8
0
 10
103.144764
 20
9.943628
 42
-0.197209
  0
VERTEX
  8
0
 10
103.325156
 20
10.574021
 42
-0.193434
  0
VERTEX
  8
0
 10
103.899369
 20
10.903187
 42
-0.036226
  0
VERTEX
  8
0
 10
105.133369
 20
10.984687
 42
-0.014013
  0
VERTEX
  8
0
 10
106.272538
 20
10.945377
 42
-0.172300
  0
VERTEX
  8
0
 10
106.666320
 20
10.777138
 42
-0.439379
  0
VERTEX
  8
0
 10
106.665743
 20
10.514370
 42
-0.044064
  0
SEQEND
  0
ENDSEC
  0
EOF
