  0
SECTION
  2
HEADER
  9
$ACADVER
  1
AC1006
  9
$EXTMIN
 10
0.000000
 20
0.000000
 30
0.000000
  9
$EXTMAX
 10
132.000000
 20
76.000000
 30
0.000000
  0
ENDSEC
  0
SECTION
  2
ENTITIES
  0
POLYLINE
  8
0
 66
1
 70
1
  0
VERTEX
  8
0
 10
63.666667
 20
75.333333
 42
0.082457
  0
VERTEX
  8
0
 10
63.410747
 20
74.975506
 42
0.037455
  0
VERTEX
  8
0
 10
63.195833
 20
74.439672
 42
0.035771
  0
VERTEX
  8
0
 10
63.049173
 20
73.827265
 42
0.040909
  0
VERTEX
  8
0
 10
63.000000
 20
73.227253
 42
-0.121079
  0
VERTEX
  8
0
 10
62.831083
 20
72.539928
 42
-0.037841
  0
VERTEX
  8
0
 10
62.265375
 20
71.632812
 42
-0.035313
  0
VERTEX
  8
0
 10
61.456207
 20
70.679624
 42
-0.032467
  0
VERTEX
  8
0
 10
60.499148
 20
69.820670
 42
0.065687
  0
VERTEX
  8
0
 10
59.082200
 20
68.368417
 42
0.111125
  0
VERTEX
  8
0
 10
58.391333
 20
66.823726
 42
0.051263
  0
VERTEX
  8
0
 10
58.154955
 20
64.389171
 42
0.005421
  0
VERTEX
  8
0
 10
58.249148
 20
58.676750
 42
0.005423
  0
VERTEX
  8
0
 10
58.459406
 20
53.171536
 42
0.048097
  0
VERTEX
  8
0
 10
58.810277
 20
50.771066
 42
0.118885
  0
VERTEX
  8
0
 10
59.504974
 20
49.429875
 42
0.111149
  0
VERTEX
  8
0
 10
60.750000
 20
48.512872
 42
-0.095803
  0
VERTEX
  8
0
 10
62.225847
 20
47.493498
 42
-0.164509
  0
VERTEX
  8
0
 10
62.868390
 20
46.160672
 42
-0.135918
  0
VERTEX
  8
0
 10
62.624839
 20
44.516480
 42
-0.057690
  0
VERTEX
  8
0
 10
61.484100
 20
42.580620
 42
-0.024364
  0
VERTEX
  8
0
 10
60.564138
 20
41.480524
 42
-0.189711
  0
VERTEX
  8
0
 10
59.973482
 20
41.194731
 42
-0.182528
  0
VERTEX
  8
0
 10
59.333555
 20
41.382491
 42
-0.022275
  0
VERTEX
  8
0
 10
58.187163
 20
42.330620
 42
0.099084
  0
VERTEX
  8
0
 10
56.021328
 20
43.623125
 42
0.095882
  0
VERTEX
  8
0
 10
53.498857
 20
44.002655
 42
0.116466
  0
VERTEX
  8
0
 10
51.384322
 20
43.408946
 42
0.205159
  0
VERTEX
  8
0
 10
50.289749
 20
42.000000
 42
-0.282495
  0
VERTEX
  8
0
 10
48.639159
 20
40.417384
 42
-0.280477
  0
VERTEX
  8
0
 10
46.471250
 20
41.167621
 42
-0.113395
  0
VERTEX
  8
0
 10
44.651600
 20
44.795513
 42
-0.101963
  0
VERTEX
  8
0
 10
44.500644
 20
49.003815
 42
0.055599
  0
VERTEX
  8
0
 10
44.674016
 20
52.080850
 42
0.086247
  0
VERTEX
  8
0
 10
44.077255
 20
54.665981
 42
0.098020
  0
VERTEX
  8
0
 10
42.724536
 20
56.667396
 42
0.093193
  0
VERTEX
  8
0
 10
40.689198
 20
58.045480
 42
-0.015166
  0
VERTEX
  8
0
 10
39.723640
 20
58.499643
 42
-0.009693
  0
VERTEX
  8
0
 10
38.629014
 20
59.082623
 42
-0.009739
  0
VERTEX
  8
0
 10
37.577496
 20
59.696240
 42
-0.017877
  0
VERTEX
  8
0
 10
36.750000
 20
60.242497
 42
0.048541
  0
VERTEX
  8
0
 10
35.821268
 20
60.776984
 42
0.097079
  0
VERTEX
  8
0
 10
35.000000
 20
60.970711
 42
0.099226
  0
VERTEX
  8
0
 10
34.178332
 20
60.838360
 42
0.052375
  0
VERTEX
  8
0
 10
33.250000
 20
60.375914
 42
0.112458
  0
VERTEX
  8
0
 10
32.405110
 20
59.521857
 42
0.079484
  0
VERTEX
  8
0
 10
31.881002
 20
58.273161
 42
0.048550
  0
VERTEX
  8
0
 10
31.612701
 20
56.392885
 42
0.013870
  0
VERTEX
  8
0
 10
31.562634
 20
53.443484
 42
0.015418
  0
VERTEX
  8
0
 10
31.666804
 20
50.940690
 42
0.033544
  0
VERTEX
  8
0
 10
31.933986
 20
49.037755
 42
0.042767
  0
VERTEX
  8
0
 10
32.330240
 20
47.719694
 42
0.221396
  0
VERTEX
  8
0
 10
32.868739
 20
47.210420
 42
-0.098256
  0
VERTEX
  8
0
 10
34.296720
 20
46.397294
 42
-0.030349
  0
VERTEX
  8
0
 10
36.074764
 20
44.658649
 42
-0.027780
  0
VERTEX
  8
0
 10
37.604387
 20
42.768561
 42
-0.161189
  0
VERTEX
  8
0
 10
37.984687
 20
41.561439
 42
-0.062413
  0
VERTEX
  8
0
 10
37.913064
 20
41.049820
 42
-0.024524
  0
VERTEX
  8
0
 10
37.693584
 20
40.371173
 42
-0.023814
  0
VERTEX
  8
0
 10
37.381567
 20
39.652202
 42
-0.027378
  0
VERTEX
  8
0
 10
37.015200
 20
39.000000
 42
-0.059282
  0
VERTEX
  8
0
 10
36.430801
 20
38.284641
 42
-0.172544
  0
VERTEX
  8
0
 10
35.858133
 20
38.025000
 42
-0.131449
  0
VERTEX
  8
0
 10
35.145521
 20
38.152800
 42
-0.028998
  0
VERTEX
  8
0
 10
34.044081
 20
38.750000
 42
0.044826
  0
VERTEX
  8
0
 10
33.089531
 20
39.229156
 42
0.026611
  0
VERTEX
  8
0
 10
31.881254
 20
39.632813
 42
0.026486
  0
VERTEX
  8
0
 10
30.623108
 20
39.909209
 42
0.040846
  0
VERTEX
  8
0
 10
29.513569
 20
40.000000
 42
0.044655
  0
VERTEX
  8
0
 10
28.253584
 20
39.887246
 42
0.145794
  0
VERTEX
  8
0
 10
27.514302
 20
39.513528
 42
0.153395
  0
VERTEX
  8
0
 10
27.121743
 20
38.809718
 42
0.051136
  0
VERTEX
  8
0
 10
27.000000
 20
37.622445
 42
-0.096829
  0
VERTEX
  8
0
 10
26.628839
 20
35.723837
 42
-0.101625
  0
VERTEX
  8
0
 10
25.572422
 20
34.141489
 42
-0.118537
  0
VERTEX
  8
0
 10
24.123080
 20
33.265600
 42
-0.170122
  0
VERTEX
  8
0
 10
22.636340
 20
33.309308
 42
-0.129499
  0
VERTEX
  8
0
 10
22.102133
 20
33.693896
 42
-0.094078
  0
VERTEX
  8
0
 10
21.748276
 20
34.339085
 42
-0.076159
  0
VERTEX
  8
0
 10
21.607926
 20
35.197709
 42
-0.049763
  0
VERTEX
  8
0
 10
21.697731
 20
36.199113
 42
0.068772
  0
VERTEX
  8
0
 10
21.756282
 20
37.333813
 42
0.070219
  0
VERTEX
  8
0
 10
21.503488
 20
38.433353
 42
0.066142
  0
VERTEX
  8
0
 10
20.937554
 20
39.473530
 42
0.051259
  0
VERTEX
  8
0
 10
20.074126
 20
40.432917
 42
-0.052674
  0
VERTEX
  8
0
 10
19.280325
 20
41.319961
 42
-0.040727
  0
VERTEX
  8
0
 10
18.609274
 20
42.431056
 42
-0.041855
  0
VERTEX
  8
0
 10
18.150342
 20
43.585931
 42
-0.073781
  0
VERTEX
  8
0
 10
18.000000
 20
44.599224
 42
0.075059
  0
VERTEX
  8
0
 10
17.840605
 20
45.655044
 42
0.034907
  0
VERTEX
  8
0
 10
17.339062
 20
46.950216
 42
0.033583
  0
VERTEX
  8
0
 10
16.611131
 20
48.262701
 42
0.039872
  0
VERTEX
  8
0
 10
15.750000
 20
49.387911
 42
0.059309
  0
VERTEX
  8
0
 10
14.279333
 20
50.676201
 42
0.066043
  0
VERTEX
  8
0
 10
12.597561
 20
51.528407
 42
0.045774
  0
VERTEX
  8
0
 10
10.285863
 20
52.107954
 42
0.013683
  0
VERTEX
  8
0
 10
6.677201
 20
52.567968
 42
0.000000
  0
VERTEX
  8
0
 10
-0.145599
 20
53.248586
 42
0.000000
  0
VERTEX
  8
0
 10
0.575420
 20
45.874293
 42
0.029183
  0
VERTEX
  8
0
 10
1.400208
 20
40.623833
 42
0.094749
  0
VERTEX
  8
0
 10
2.776864
 20
37.395674
 42
0.141619
  0
VERTEX
  8
0
 10
4.886405
 20
35.628206
 42
0.102278
  0
VERTEX
  8
0
 10
7.903010
 20
34.978358
 42
-0.068016
  0
VERTEX
  8
0
 10
9.216958
 20
34.787621
 42
-0.097972
  0
VERTEX
  8
0
 10
10.258740
 20
34.251466
 42
-0.081584
  0
VERTEX
  8
0
 10
11.145253
 20
33.275424
 42
-0.034915
  0
VERTEX
  8
0
 10
12.000000
 20
31.728358
 42
0.060580
  0
VERTEX
  8
0
 10
13.019405
 20
30.087715
 42
0.048899
  0
VERTEX
  8
0
 10
14.471739
 20
28.603967
 42
0.039735
  0
VERTEX
  8
0
 10
16.469666
 20
27.180796
 42
0.020644
  0
VERTEX
  8
0
 10
19.160728
 20
25.716803
 42
-0.013077
  0
VERTEX
  8
0
 10
22.687107
 20
23.866961
 42
-0.094171
  0
VERTEX
  8
0
 10
24.152420
 20
22.640111
 42
-0.114541
  0
VERTEX
  8
0
 10
24.931538
 20
21.059098
 42
-0.023280
  0
VERTEX
  8
0
 10
25.504566
 20
17.966803
 42
0.016814
  0
VERTEX
  8
0
 10
25.831919
 20
16.063232
 42
0.026445
  0
VERTEX
  8
0
 10
26.253197
 20
14.458998
 42
0.024397
  0
VERTEX
  8
0
 10
26.703679
 20
13.256609
 42
0.299378
  0
VERTEX
  8
0
 10
27.093838
 20
13.000000
 42
-0.304426
  0
VERTEX
  8
0
 10
27.445346
 20
12.764123
 42
-0.039814
  0
VERTEX
  8
0
 10
27.733815
 20
11.860968
 42
-0.035372
  0
VERTEX
  8
0
 10
27.934461
 20
10.608564
 42
-0.022040
  0
VERTEX
  8
0
 10
28.000000
 20
9.122445
 42
0.033287
  0
VERTEX
  8
0
 10
28.105440
 20
7.540375
 42
0.035906
  0
VERTEX
  8
0
 10
28.419946
 20
6.026829
 42
0.038725
  0
VERTEX
  8
0
 10
28.882046
 20
4.776722
 42
0.112114
  0
VERTEX
  8
0
 10
29.440438
 20
4.049432
 42
0.162256
  0
VERTEX
  8
0
 10
37.927066
 20
0.747867
 42
0.011209
  0
VERTEX
  8
0
 10
63.968278
 20
0.047495
 42
0.013717
  0
VERTEX
  8
0
 10
89.733278
 20
0.639218
 42
0.104829
  0
VERTEX
  8
0
 10
101.376948
 20
3.727829
 42
0.040187
  0
VERTEX
  8
0
 10
103.063391
 20
4.758353
 42
0.158273
  0
VERTEX
  8
0
 10
103.769596
 20
5.730992
 42
0.097641
  0
VERTEX
  8
0
 10
103.945182
 20
7.194524
 42
0.010433
  0
VERTEX
  8
0
 10
103.615060
 20
10.618150
 42
-0.011463
  0
VERTEX
  8
0
 10
103.347955
 20
13.449242
 42
-0.053869
  0
VERTEX
  8
0
 10
103.407490
 20
15.080047
 42
-0.108698
  0
VERTEX
  8
0
 10
103.776474
 20
16.058345
 42
-0.158091
  0
VERTEX
  8
0
 10
104.488112
 20
16.633812
 42
0.131549
  0
VERTEX
  8
0
 10
105.073695
 20
17.058980
 42
0.064423
  0
VERTEX
  8
0
 10
105.561225
 20
17.849668
 42
0.056488
  0
VERTEX
  8
0
 10
105.889221
 20
18.870076
 42
0.049578
  0
VERTEX
  8
0
 10
106.000000
 20
19.984544
 42
-0.075832
  0
VERTEX
  8
0
 10
106.327153
 20
22.129240
 42
-0.137318
  0
VERTEX
  8
0
 10
107.286541
 20
23.607482
 42
-0.083862
  0
VERTEX
  8
0
 10
109.239667
 20
24.818048
 42
-0.016607
  0
VERTEX
  8
0
 10
113.113266
 20
26.250989
 42
0.031911
  0
VERTEX
  8
0
 10
116.789249
 20
27.740162
 42
0.054175
  0
VERTEX
  8
0
 10
119.603449
 20
29.492575
 42
0.070456
  0
VERTEX
  8
0
 10
121.400720
 20
31.364984
 42
0.157341
  0
VERTEX
  8
0
 10
122.000000
 20
33.222241
 42
-0.099112
  0
VERTEX
  8
0
 10
122.159431
 20
34.018640
 42
-0.142448
  0
VERTEX
  8
0
 10
122.607958
 20
34.575399
 42
-0.109061
  0
VERTEX
  8
0
 10
123.388519
 20
34.898435
 42
-0.043810
  0
VERTEX
  8
0
 10
124.545455
 20
35.000000
 42
0.075857
  0
VERTEX
  8
0
 10
125.697555
 20
35.175802
 42
0.038394
  0
VERTEX
  8
0
 10
127.064205
 20
35.721023
 42
0.037017
  0
VERTEX
  8
0
 10
128.418504
 20
36.515163
 42
0.045294
  0
VERTEX
  8
0
 10
129.545455
 20
37.454545
 42
0.048357
  0
VERTEX
  8
0
 10
130.811210
 20
38.992051
 42
0.076309
  0
VERTEX
  8
0
 10
131.537242
 20
40.535051
 42
0.056477
  0
VERTEX
  8
0
 10
131.891061
 20
42.540405
 42
0.016113
  0
VERTEX
  8
0
 10
131.984687
 20
45.704545
 42
0.019595
  0
VERTEX
  8
0
 10
131.751030
 20
51.287600
 42
0.220199
  0
VERTEX
  8
0
 10
130.686451
 20
53.170908
 42
0.216503
  0
VERTEX
  8
0
 10
128.549914
 20
53.596001
 42
0.018923
  0
VERTEX
  8
0
 10
123.085062
 20
52.096088
 42
0.023234
  0
VERTEX
  8
0
 10
118.388047
 20
50.369978
 42
0.089056
  0
VERTEX
  8
0
 10
115.786175
 20
48.679133
 42
0.129373
  0
VERTEX
  8
0
 10
114.455038
 20
46.553862
 42
0.075705
  0
VERTEX
  8
0
 10
114.000000
 20
43.565741
 42
-0.037126
  0
VERTEX
  8
0
 10
113.926940
 20
42.583152
 42
-0.055859
  0
VERTEX
  8
0
 10
113.706250
 20
41.753687
 42
-0.073287
  0
VERTEX
  8
0
 10
113.383099
 20
41.186603
 42
-0.230594
  0
VERTEX
  8
0
 10
113.000000
 20
41.000000
 42
0.254951
  0
VERTEX
  8
0
 10
112.615738
 20
40.790443
 42
0.062710
  0
VERTEX
  8
0
 10
112.293750
 20
40.118750
 42
0.048861
  0
VERTEX
  8
0
 10
112.072766
 20
39.149251
 42
0.031626
  0
VERTEX
  8
0
 10
112.000000
 20
38.000000
 42
-0.042558
  0
VERTEX
  8
0
 10
111.813252
 20
35.809917
 42
-0.324466
  0
VERTEX
  8
0
 10
111.115320
 20
35.128847
 42
-0.257474
  0
VERTEX
  8
0
 10
110.082592
 20
35.515599
 42
-0.032118
  0
VERTEX
  8
0
 10
108.591957
 20
37.500000
 42
0.099398
  0
VERTEX
  8
0
 10
107.037638
 20
39.076905
 42
0.102843
  0
VERTEX
  8
0
 10
105.013253
 20
39.907854
 42
0.110877
  0
VERTEX
  8
0
 10
102.948704
 20
39.832841
 42
0.132830
  0
VERTEX
  8
0
 10
101.267217
 20
38.867217
 42
-0.156560
  0
VERTEX
  8
0
 10
99.956317
 20
38.193389
 42
-0.161790
  0
VERTEX
  8
0
 10
98.517705
 20
38.420534
 42
-0.147682
  0
VERTEX
  8
0
 10
97.408548
 20
39.497436
 42
-0.127410
  0
VERTEX
  8
0
 10
97.000000
 20
41.074695
 42
-0.092439
  0
VERTEX
  8
0
 10
97.179144
 20
42.035396
 42
-0.044635
  0
VERTEX
  8
0
 10
97.734375
 20
43.161939
 42
-0.042202
  0
VERTEX
  8
0
 10
98.543488
 20
44.268200
 42
-0.047145
  0
VERTEX
  8
0
 10
99.500000
 20
45.178660
 42
0.092810
  0
VERTEX
  8
0
 10
101.110715
 20
47.018141
 42
0.101371
  0
VERTEX
  8
0
 10
101.883904
 20
49.260465
 42
0.073094
  0
VERTEX
  8
0
 10
101.837024
 20
52.202940
 42
0.027264
  0
VERTEX
  8
0
 10
100.947419
 20
56.250000
 42
0.024885
  0
VERTEX
  8
0
 10
100.297045
 20
58.208326
 42
0.097961
  0
VERTEX
  8
0
 10
99.618822
 20
59.276524
 42
0.135940
  0
VERTEX
  8
0
 10
98.713257
 20
59.818819
 42
0.067439
  0
VERTEX
  8
0
 10
97.376073
 20
60.000000
 42
0.134862
  0
VERTEX
  8
0
 10
94.564329
 20
59.227559
 42
0.074005
  0
VERTEX
  8
0
 10
91.776555
 20
56.954912
 42
0.072416
  0
VERTEX
  8
0
 10
89.711181
 20
53.900199
 42
0.114128
  0
VERTEX
  8
0
 10
89.015313
 20
50.826923
 42
0.023019
  0
VERTEX
  8
0
 10
89.084943
 20
49.452867
 42
0.022261
  0
VERTEX
  8
0
 10
89.280707
 20
48.075424
 42
0.022826
  0
VERTEX
  8
0
 10
89.562082
 20
46.880887
 42
0.072052
  0
VERTEX
  8
0
 10
89.897279
 20
46.131966
 42
-0.123095
  0
VERTEX
  8
0
 10
90.137948
 20
45.405073
 42
-0.102054
  0
VERTEX
  8
0
 10
90.033102
 20
44.594466
 42
-0.076053
  0
VERTEX
  8
0
 10
89.562470
 20
43.698895
 42
-0.037452
  0
VERTEX
  8
0
 10
88.721286
 20
42.721286
 42
0.000000
  0
VERTEX
  8
0
 10
86.678640
 20
40.678640
 42
0.000000
  0
VERTEX
  8
0
 10
84.929027
 20
42.839320
 42
0.081780
  0
VERTEX
  8
0
 10
83.205423
 20
44.372336
 42
0.142979
  0
VERTEX
  8
0
 10
81.383291
 20
44.895730
 42
0.128396
  0
VERTEX
  8
0
 10
79.424921
 20
44.375356
 42
0.059841
  0
VERTEX
  8
0
 10
77.293841
 20
42.806324
 42
-0.018963
  0
VERTEX
  8
0
 10
75.944400
 20
41.631653
 42
-0.120257
  0
VERTEX
  8
0
 10
75.126945
 20
41.247826
 42
-0.191801
  0
VERTEX
  8
0
 10
74.420150
 20
41.375989
 42
-0.063195
  0
VERTEX
  8
0
 10
73.586714
 20
42.056324
 42
-0.062456
  0
VERTEX
  8
0
 10
72.216695
 20
43.914876
 42
-0.078407
  0
VERTEX
  8
0
 10
71.475825
 20
45.919702
 42
-0.129933
  0
VERTEX
  8
0
 10
71.566092
 20
47.399289
 42
-0.323486
  0
VERTEX
  8
0
 10
72.397429
 20
48.000000
 42
0.190169
  0
VERTEX
  8
0
 10
73.843125
 20
48.570484
 42
0.091641
  0
VERTEX
  8
0
 10
75.045785
 20
50.198235
 42
0.080509
  0
VERTEX
  8
0
 10
75.703800
 20
52.380303
 42
0.094812
  0
VERTEX
  8
0
 10
75.581361
 20
54.531855
 42
-0.043574
  0
VERTEX
  8
0
 10
75.430278
 20
55.475173
 42
-0.052732
  0
VERTEX
  8
0
 10
75.460419
 20
56.370631
 42
-0.061484
  0
VERTEX
  8
0
 10
75.653630
 20
57.091631
 42
-0.159478
  0
VERTEX
  8
0
 10
75.996330
 20
57.497732
 42
0.176947
  0
VERTEX
  8
0
 10
76.386288
 20
57.993038
 42
0.028765
  0
VERTEX
  8
0
 10
76.705172
 20
59.195766
 42
0.028684
  0
VERTEX
  8
0
 10
76.926576
 20
60.719394
 42
0.021741
  0
VERTEX
  8
0
 10
77.000000
 20
62.407212
 42
0.038112
  0
VERTEX
  8
0
 10
76.812661
 20
64.861400
 42
0.071358
  0
VERTEX
  8
0
 10
76.235226
 20
66.762736
 42
0.056886
  0
VERTEX
  8
0
 10
75.050193
 20
68.691371
 42
0.016854
  0
VERTEX
  8
0
 10
72.819979
 20
71.348195
 42
0.034393
  0
VERTEX
  8
0
 10
70.030054
 20
74.053534
 42
0.072783
  0
VERTEX
  8
0
 10
67.477504
 20
75.639444
 42
0.111308
  0
VERTEX
  8
0
 10
65.322933
 20
76.051406
 42
0.190407
  0
SEQEND
  0
POLYLINE
  8
0
 66
1
 70
1
  0
VERTEX
  8
0
 10
68.746097
 20
65.657912
 42
-0.074619
  0
VERTEX
  8
0
 10
69.373203
 20
63.465244
 42
-0.213890
  0
VERTEX
  8
0
 10
68.927768
 20
61.982448
 42
-0.203416
  0
VERTEX
  8
0
 10
67.497687
 20
61.280696
 42
-0.067863
  0
VERTEX
  8
0
 10
65.124920
 20
61.472563
 42
-0.068787
  0
VERTEX
  8
0
 10
62.986401
 20
62.261827
 42
-0.228951
  0
VERTEX
  8
0
 10
62.128088
 20
63.439687
 42
-0.222844
  0
VERTEX
  8
0
 10
62.506944
 20
64.869977
 42
-0.065676
  0
VERTEX
  8
0
 10
64.222506
 20
66.443296
 42
-0.019567
  0
VERTEX
  8
0
 10
66.141958
 20
67.678714
 42
-0.178011
  0
VERTEX
  8
0
 10
67.104905
 20
67.854364
 42
-0.216012
  0
VERTEX
  8
0
 10
67.849765
 20
67.347623
 42
-0.030107
  0
SEQEND
  0
POLYLINE
  8
0
 66
1
 70
1
  0
VERTEX
  8
0
 10
124.000000
 20
45.059017
 42
-0.041798
  0
VERTEX
  8
0
 10
123.934417
 20
44.275865
 42
-0.043811
  0
VERTEX
  8
0
 10
123.739534
 20
43.527221
 42
-0.047968
  0
VERTEX
  8
0
 10
123.453803
 20
42.917271
 42
-0.121409
  0
VERTEX
  8
0
 10
123.113307
 20
42.570027
 42
-0.273619
  0
VERTEX
  8
0
 10
122.133746
 20
42.551011
 42
-0.098762
  0
VERTEX
  8
0
 10
121.037176
 20
43.496671
 42
-0.091300
  0
VERTEX
  8
0
 10
120.331132
 20
44.852266
 42
-0.216191
  0
VERTEX
  8
0
 10
120.472927
 20
45.956195
 42
-0.144465
  0
VERTEX
  8
0
 10
121.440764
 20
46.822813
 42
-0.174855
  0
VERTEX
  8
0
 10
122.646935
 20
46.940331
 42
-0.180587
  0
VERTEX
  8
0
 10
123.622734
 20
46.263529
 42
-0.152942
  0
SEQEND
  0
POLYLINE
  8
0
 66
1
 70
1
  0
VERTEX
  8
0
 10
9.812423
 20
43.735492
 42
-0.180854
  0
VERTEX
  8
0
 10
9.587197
 20
42.404159
 42
-0.150092
  0
VERTEX
  8
0
 10
8.526810
 20
41.421425
 42
-0.144478
  0
VERTEX
  8
0
 10
7.064085
 20
41.181650
 42
-0.166747
  0
VERTEX
  8
0
 10
5.800000
 20
41.800000
 42
-0.166747
  0
VERTEX
  8
0
 10
5.181650
 20
43.064085
 42
-0.144478
  0
VERTEX
  8
0
 10
5.421425
 20
44.526810
 42
-0.150092
  0
VERTEX
  8
0
 10
6.404159
 20
45.587197
 42
-0.180854
  0
VERTEX
  8
0
 10
7.735492
 20
45.812423
 42
-0.083965
  0
VERTEX
  8
0
 10
8.426344
 20
45.554125
 42
-0.065109
  0
VERTEX
  8
0
 10
9.063976
 20
45.063976
 42
-0.065109
  0
VERTEX
  8
0
 10
9.554125
 20
44.426344
 42
-0.083965
  0
SEQEND
  0
POLYLINE
  8
0
 66
1
 70
1
  0
VERTEX
  8
0
 10
55.823180
 20
33.197413
 42
0.039294
  0
VERTEX
  8
0
 10
54.716766
 20
32.977617
 42
0.034378
  0
VERTEX
  8
0
 10
53.605938
 20
32.580449
 42
0.035943
  0
VERTEX
  8
0
 10
52.650029
 20
32.077967
 42
0.080738
  0
VERTEX
  8
0
 10
52.034062
 20
31.541042
 42
-0.116920
  0
VERTEX
  8
0
 10
51.296061
 20
30.985477
 42
-0.064237
  0
VERTEX
  8
0
 10
50.204807
 20
30.666704
 42
-0.048314
  0
VERTEX
  8
0
 10
48.755734
 20
30.580590
 42
-0.024039
  0
VERTEX
  8
0
 10
46.921287
 20
30.737383
 42
0.022464
  0
VERTEX
  8
0
 10
44.835258
 20
30.922293
 42
0.072420
  0
VERTEX
  8
0
 10
43.453259
 20
30.782097
 42
0.100934
  0
VERTEX
  8
0
 10
42.430780
 20
30.292120
 42
0.072970
  0
VERTEX
  8
0
 10
41.542166
 20
29.388552
 42
-0.039200
  0
VERTEX
  8
0
 10
40.964377
 20
28.715970
 42
-0.063665
  0
VERTEX
  8
0
 10
40.368069
 20
28.257412
 42
-0.090734
  0
VERTEX
  8
0
 10
39.846656
 20
28.068606
 42
-0.242557
  0
VERTEX
  8
0
 10
39.481210
 20
28.185457
 42
-0.249791
  0
VERTEX
  8
0
 10
39.356280
 20
28.595360
 42
-0.060136
  0
VERTEX
  8
0
 10
39.582993
 20
29.293832
 42
-0.047709
  0
VERTEX
  8
0
 10
40.074418
 20
30.133852
 42
-0.031348
  0
VERTEX
  8
0
 10
40.785848
 20
31.000509
 42
-0.047588
  0
VERTEX
  8
0
 10
41.936612
 20
32.021407
 42
-0.087546
  0
VERTEX
  8
0
 10
43.057404
 20
32.571016
 42
-0.079714
  0
VERTEX
  8
0
 10
44.370365
 20
32.732235
 42
-0.033965
  0
VERTEX
  8
0
 10
46.136399
 20
32.546447
 42
0.039635
  0
VERTEX
  8
0
 10
47.665186
 20
32.403102
 42
0.035218
  0
VERTEX
  8
0
 10
49.260170
 20
32.492746
 42
0.036422
  0
VERTEX
  8
0
 10
50.759977
 20
32.795778
 42
0.054461
  0
VERTEX
  8
0
 10
52.000000
 20
33.292481
 42
-0.044019
  0
VERTEX
  8
0
 10
53.104107
 20
33.761663
 42
-0.035733
  0
VERTEX
  8
0
 10
54.353125
 20
34.070505
 42
-0.037001
  0
VERTEX
  8
0
 10
55.554054
 20
34.187366
 42
-0.073667
  0
VERTEX
  8
0
 10
56.500000
 20
34.069432
 42
-0.010616
  0
VERTEX
  8
0
 10
57.589174
 20
33.741643
 42
-0.519742
  0
VERTEX
  8
0
 10
57.645906
 20
33.557332
 42
-0.196073
  0
VERTEX
  8
0
 10
57.362770
 20
33.393887
 42
-0.004686
  0
SEQEND
  0
POLYLINE
  8
0
 66
1
 70
1
  0
VERTEX
  8
0
 10
74.000000
 20
6.031385
 42
-0.184534
  0
VERTEX
  8
0
 10
73.877514
 20
5.710807
 42
-0.147206
  0
VERTEX
  8
0
 10
73.559375
 20
5.516384
 42
-0.100118
  0
VERTEX
  8
0
 10
73.074366
 20
5.488865
 42
-0.055937
  0
VERTEX
  8
0
 10
72.500000
 20
5.638374
 42
-0.021360
  0
VERTEX
  8
0
 10
71.925442
 20
5.887494
 42
-0.030395
  0
VERTEX
  8
0
 10
71.440625
 20
6.160341
 42
-0.030693
  0
VERTEX
  8
0
 10
71.087111
 20
6.420671
 42
-0.222225
  0
VERTEX
  8
0
 10
71.000000
 20
6.606989
 42
-0.289661
  0
VERTEX
  8
0
 10
71.096084
 20
6.758929
 42
-0.046727
  0
VERTEX
  8
0
 10
71.440625
 20
6.884553
 42
-0.039339
  0
VERTEX
  8
0
 10
71.925176
 20
6.971531
 42
-0.024748
  0
VERTEX
  8
0
 10
72.500000
 20
7.000000
 42
-0.062722
  0
VERTEX
  8
0
 10
73.073532
 20
6.927770
 42
-0.080880
  0
VERTEX
  8
0
 10
73.559375
 20
6.715469
 42
-0.098158
  0
VERTEX
  8
0
 10
73.884506
 20
6.400789
 42
-0.152681
  0
SEQEND
  0
ENDSEC
  0
EOF
