  0
SECTION
  2
HEADER
  9
$ACADVER
  1
AC1006
  9
$EXTMIN
 10
0.000000
 20
0.000000
 30
0.000000
  9
$EXTMAX
 10
301.000000
 20
320.000000
 30
0.000000
  0
ENDSEC
  0
SECTION
  2
ENTITIES
  0
POLYLINE
  8
0
 66
1
 70
1
  0
VERTEX
  8
0
 10
50.500000
 20
318.923128
 42
0.013390
  0
VERTEX
  8
0
 10
30.528862
 20
317.562460
 42
0.048846
  0
VERTEX
  8
0
 10
18.076309
 20
315.136324
 42
0.078319
  0
VERTEX
  8
0
 10
9.678701
 20
311.117512
 42
0.090776
  0
VERTEX
  8
0
 10
3.409067
 20
304.868783
 42
0.080783
  0
VERTEX
  8
0
 10
1.223836
 20
300.284260
 42
0.059071
  0
VERTEX
  8
0
 10
0.292767
 20
294.712526
 42
0.032722
  0
VERTEX
  8
0
 10
0.439859
 20
286.472469
 42
0.006734
  0
VERTEX
  8
0
 10
1.844280
 20
272.000000
 42
-0.002176
  0
VERTEX
  8
0
 10
2.709330
 20
263.858568
 42
-0.001522
  0
VERTEX
  8
0
 10
3.616488
 20
254.675000
 42
-0.001535
  0
VERTEX
  8
0
 10
4.432024
 20
245.868976
 42
-0.003197
  0
VERTEX
  8
0
 10
5.002654
 20
239.000000
 42
0.001403
  0
VERTEX
  8
0
 10
5.497155
 20
232.776806
 42
0.001118
  0
VERTEX
  8
0
 10
6.064497
 20
226.065558
 42
0.001129
  0
VERTEX
  8
0
 10
6.617979
 20
219.851119
 42
0.002847
  0
VERTEX
  8
0
 10
7.056954
 20
215.329561
 42
-0.012123
  0
VERTEX
  8
0
 10
7.424558
 20
210.640220
 42
-0.004042
  0
VERTEX
  8
0
 10
7.740491
 20
203.762380
 42
-0.004021
  0
VERTEX
  8
0
 10
7.967625
 20
196.136779
 42
-0.004574
  0
VERTEX
  8
0
 10
8.059611
 20
188.829561
 42
0.004574
  0
VERTEX
  8
0
 10
8.147751
 20
181.828215
 42
0.005197
  0
VERTEX
  8
0
 10
8.363312
 20
175.121808
 42
0.004744
  0
VERTEX
  8
0
 10
8.659497
 20
169.432566
 42
0.028698
  0
VERTEX
  8
0
 10
9.009778
 20
166.500000
 42
-0.029750
  0
VERTEX
  8
0
 10
9.716936
 20
160.472105
 42
-0.001538
  0
VERTEX
  8
0
 10
10.778312
 20
140.916665
 42
-0.002635
  0
VERTEX
  8
0
 10
11.775142
 20
119.203569
 42
-0.002833
  0
VERTEX
  8
0
 10
12.516343
 20
98.000000
 42
0.000433
  0
VERTEX
  8
0
 10
13.848621
 20
53.814316
 42
0.009728
  0
VERTEX
  8
0
 10
14.493215
 20
41.051663
 42
0.035590
  0
VERTEX
  8
0
 10
15.466777
 20
34.196143
 42
0.064285
  0
VERTEX
  8
0
 10
17.358442
 20
28.858859
 42
0.034280
  0
VERTEX
  8
0
 10
20.438109
 20
23.692385
 42
0.025031
  0
VERTEX
  8
0
 10
24.515658
 20
18.396247
 42
0.025312
  0
VERTEX
  8
0
 10
29.014232
 20
13.632604
 42
0.040211
  0
VERTEX
  8
0
 10
33.362305
 20
10.094737
 42
0.046079
  0
VERTEX
  8
0
 10
36.328406
 20
8.433497
 42
0.050749
  0
VERTEX
  8
0
 10
39.455503
 20
7.407469
 42
0.025481
  0
VERTEX
  8
0
 10
44.163713
 20
6.625037
 42
0.003527
  0
VERTEX
  8
0
 10
54.023083
 20
5.569287
 42
-0.007077
  0
VERTEX
  8
0
 10
60.869568
 20
4.786957
 42
-0.006706
  0
VERTEX
  8
0
 10
67.815575
 20
3.798619
 42
-0.006678
  0
VERTEX
  8
0
 10
73.937011
 20
2.759756
 42
-0.023318
  0
VERTEX
  8
0
 10
77.838450
 20
1.854117
 42
0.025189
  0
VERTEX
  8
0
 10
82.772152
 20
0.728286
 42
0.030213
  0
VERTEX
  8
0
 10
87.503202
 20
0.188634
 42
0.016404
  0
VERTEX
  8
0
 10
94.134251
 20
0.053595
 42
0.002511
  0
VERTEX
  8
0
 10
107.338450
 20
0.284219
 42
0.006694
  0
VERTEX
  8
0
 10
122.576297
 20
0.831087
 42
0.022772
  0
VERTEX
  8
0
 10
132.465532
 20
1.771377
 42
0.027128
  0
VERTEX
  8
0
 10
141.302218
 20
3.512810
 42
0.012854
  0
VERTEX
  8
0
 10
152.480884
 20
6.661103
 42
0.038251
  0
VERTEX
  8
0
 10
162.719701
 20
10.711411
 42
0.026907
  0
VERTEX
  8
0
 10
173.553351
 20
16.728135
 42
0.027229
  0
VERTEX
  8
0
 10
183.126779
 20
23.493651
 42
0.063036
  0
VERTEX
  8
0
 10
189.275337
 20
29.768418
 42
0.064373
  0
VERTEX
  8
0
 10
192.764916
 20
35.852293
 42
0.052052
  0
VERTEX
  8
0
 10
194.906540
 20
43.076815
 42
0.030745
  0
VERTEX
  8
0
 10
196.200321
 20
53.567546
 42
0.006962
  0
VERTEX
  8
0
 10
197.049402
 20
71.500000
 42
-0.001599
  0
VERTEX
  8
0
 10
197.418541
 20
81.584735
 42
-0.001835
  0
VERTEX
  8
0
 10
197.837183
 20
91.212500
 42
-0.001650
  0
VERTEX
  8
0
 10
198.249062
 20
99.373563
 42
-0.010570
  0
VERTEX
  8
0
 10
198.558564
 20
103.500000
 42
0.015691
  0
VERTEX
  8
0
 10
198.855319
 20
108.085623
 42
0.001195
  0
VERTEX
  8
0
 10
199.238101
 20
120.487500
 42
0.001643
  0
VERTEX
  8
0
 10
199.610811
 20
135.286288
 42
0.001251
  0
VERTEX
  8
0
 10
199.925279
 20
151.500000
 42
-0.001913
  0
VERTEX
  8
0
 10
200.563384
 20
182.294990
 42
-0.034889
  0
VERTEX
  8
0
 10
201.486977
 20
192.060728
 42
-0.093200
  0
VERTEX
  8
0
 10
203.776126
 20
198.333688
 42
-0.043290
  0
VERTEX
  8
0
 10
208.848052
 20
205.403744
 42
0.022593
  0
VERTEX
  8
0
 10
211.047986
 20
208.217094
 42
0.016848
  0
VERTEX
  8
0
 10
213.222926
 20
211.502427
 42
0.017027
  0
VERTEX
  8
0
 10
215.134554
 20
214.864258
 42
0.026226
  0
VERTEX
  8
0
 10
216.530510
 20
217.903744
 42
-0.032043
  0
VERTEX
  8
0
 10
221.142779
 20
227.646103
 42
-0.073481
  0
VERTEX
  8
0
 10
226.063597
 20
234.079991
 42
-0.097242
  0
VERTEX
  8
0
 10
231.657112
 20
237.723135
 42
-0.096151
  0
VERTEX
  8
0
 10
238.235619
 20
239.000000
 42
-0.097366
  0
VERTEX
  8
0
 10
245.915940
 20
237.490085
 42
-0.091683
  0
VERTEX
  8
0
 10
252.638641
 20
233.170669
 42
-0.066011
  0
VERTEX
  8
0
 10
258.979793
 20
225.409103
 42
-0.026023
  0
VERTEX
  8
0
 10
265.621487
 20
213.284771
 42
-0.009505
  0
VERTEX
  8
0
 10
271.427322
 20
200.629034
 42
-0.026421
  0
VERTEX
  8
0
 10
274.856813
 20
191.469721
 42
-0.035706
  0
VERTEX
  8
0
 10
276.693667
 20
183.765611
 42
-0.037435
  0
VERTEX
  8
0
 10
277.377544
 20
176.000000
 42
-0.054613
  0
VERTEX
  8
0
 10
276.490238
 20
166.796648
 42
-0.098678
  0
VERTEX
  8
0
 10
273.538987
 20
159.854077
 42
-0.093095
  0
VERTEX
  8
0
 10
268.010953
 20
154.314165
 42
-0.044522
  0
VERTEX
  8
0
 10
259.211592
 20
149.370985
 42
-0.043646
  0
VERTEX
  8
0
 10
251.501750
 20
146.681749
 42
-0.015260
  0
VERTEX
  8
0
 10
240.025277
 20
144.141206
 42
-0.015488
  0
VERTEX
  8
0
 10
227.722778
 20
142.201684
 42
-0.023964
  0
VERTEX
  8
0
 10
217.000000
 20
141.369292
 42
0.000000
  0
VERTEX
  8
0
 10
205.500000
 20
141.029331
 42
0.000000
  0
VERTEX
  8
0
 10
204.257098
 20
117.264665
 42
0.001628
  0
VERTEX
  8
0
 10
203.798696
 20
107.916434
 42
0.002224
  0
VERTEX
  8
0
 10
203.450651
 20
99.492373
 42
0.001449
  0
VERTEX
  8
0
 10
203.210328
 20
92.415558
 42
0.025782
  0
VERTEX
  8
0
 10
203.257098
 20
90.134904
 42
0.000000
  0
VERTEX
  8
0
 10
203.500000
 20
86.769807
 42
0.000000
  0
VERTEX
  8
0
 10
213.920436
 20
96.415976
 42
-0.010992
  0
VERTEX
  8
0
 10
223.982235
 20
105.327535
 42
-0.037775
  0
VERTEX
  8
0
 10
231.041152
 20
110.445710
 42
-0.050347
  0
VERTEX
  8
0
 10
237.648298
 20
113.647335
 42
-0.033189
  0
VERTEX
  8
0
 10
245.759426
 20
116.017214
 42
0.003096
  0
VERTEX
  8
0
 10
259.779463
 20
119.212821
 42
0.014294
  0
VERTEX
  8
0
 10
267.824543
 20
121.343349
 42
0.023043
  0
VERTEX
  8
0
 10
273.723242
 20
123.387183
 42
0.021448
  0
VERTEX
  8
0
 10
279.555065
 20
126.009084
 42
0.018377
  0
VERTEX
  8
0
 10
286.652724
 20
129.906363
 42
0.045690
  0
VERTEX
  8
0
 10
291.435098
 20
133.394814
 42
0.055547
  0
VERTEX
  8
0
 10
294.938157
 20
137.244514
 42
0.040997
  0
VERTEX
  8
0
 10
297.929146
 20
142.174123
 42
0.022006
  0
VERTEX
  8
0
 10
299.737415
 20
146.229785
 42
0.055484
  0
VERTEX
  8
0
 10
300.581544
 20
149.345820
 42
0.034090
  0
VERTEX
  8
0
 10
300.924827
 20
153.349177
 42
0.004346
  0
VERTEX
  8
0
 10
301.000000
 20
161.996851
 42
0.008892
  0
VERTEX
  8
0
 10
300.894615
 20
167.922210
 42
0.006723
  0
VERTEX
  8
0
 10
300.575809
 20
174.421551
 42
0.006802
  0
VERTEX
  8
0
 10
300.111111
 20
180.519299
 42
0.015642
  0
VERTEX
  8
0
 10
299.555945
 20
185.087129
 42
0.047090
  0
VERTEX
  8
0
 10
295.016025
 20
203.142592
 42
0.030984
  0
VERTEX
  8
0
 10
286.619934
 20
222.869367
 42
0.031088
  0
VERTEX
  8
0
 10
276.452931
 20
240.361813
 42
0.081436
  0
VERTEX
  8
0
 10
266.568764
 20
250.946949
 42
0.026772
  0
VERTEX
  8
0
 10
259.807956
 20
255.607928
 42
0.066069
  0
VERTEX
  8
0
 10
254.312857
 20
258.049416
 42
0.056263
  0
VERTEX
  8
0
 10
247.859350
 20
259.182151
 42
0.015338
  0
VERTEX
  8
0
 10
237.500000
 20
259.500000
 42
0.004989
  0
VERTEX
  8
0
 10
231.736720
 20
259.442496
 42
0.005044
  0
VERTEX
  8
0
 10
225.996875
 20
259.270005
 42
0.004922
  0
VERTEX
  8
0
 10
221.003582
 20
259.020261
 42
0.020400
  0
VERTEX
  8
0
 10
218.000000
 20
258.717040
 42
-0.048339
  0
VERTEX
  8
0
 10
212.749517
 20
258.481642
 42
-0.276158
  0
VERTEX
  8
0
 10
210.526344
 20
259.972381
 42
-0.105515
  0
VERTEX
  8
0
 10
209.634173
 20
263.766060
 42
-0.005181
  0
VERTEX
  8
0
 10
209.500000
 20
276.714739
 42
0.002706
  0
VERTEX
  8
0
 10
209.441495
 20
287.523356
 42
0.028968
  0
VERTEX
  8
0
 10
209.140227
 20
291.898850
 42
0.063158
  0
VERTEX
  8
0
 10
208.372523
 20
294.870536
 42
0.038140
  0
VERTEX
  8
0
 10
206.771366
 20
298.141611
 42
0.060792
  0
VERTEX
  8
0
 10
203.740097
 20
302.105289
 42
0.047583
  0
VERTEX
  8
0
 10
199.599634
 20
305.602579
 42
0.038462
  0
VERTEX
  8
0
 10
194.041195
 20
308.854934
 42
0.019851
  0
VERTEX
  8
0
 10
186.657227
 20
312.089060
 42
0.020653
  0
VERTEX
  8
0
 10
181.107500
 20
314.001326
 42
0.040743
  0
VERTEX
  8
0
 10
176.549270
 20
314.968533
 42
0.020997
  0
VERTEX
  8
0
 10
170.295365
 20
315.505550
 42
0.002165
  0
VERTEX
  8
0
 10
155.500000
 20
316.087915
 42
-0.003943
  0
VERTEX
  8
0
 10
145.668390
 20
316.509918
 42
-0.003208
  0
VERTEX
  8
0
 10
135.143750
 20
317.112580
 42
-0.003241
  0
VERTEX
  8
0
 10
125.456076
 20
317.792794
 42
-0.008446
  0
VERTEX
  8
0
 10
118.500000
 20
318.444904
 42
0.016756
  0
VERTEX
  8
0
 10
106.111817
 20
319.398882
 42
0.009079
  0
VERTEX
  8
0
 10
90.831997
 20
319.783851
 42
0.007609
  0
VERTEX
  8
0
 10
72.469227
 20
319.633546
 42
0.004461
  0
SEQEND
  0
ENDSEC
  0
EOF
