  0
SECTION
  2
HEADER
  9
$ACADVER
  1
AC1006
  9
$EXTMIN
 10
0.000000
 20
0.000000
 30
0.000000
  9
$EXTMAX
 10
327.000000
 20
288.000000
 30
0.000000
  0
ENDSEC
  0
SECTION
  2
ENTITIES
  0
POLYLINE
  8
0
 66
1
 70
1
  0
VERTEX
  8
0
 10
85.935417
 20
287.637552
 42
-0.173152
  0
VERTEX
  8
0
 10
84.355419
 20
286.829117
 42
-0.001986
  0
VERTEX
  8
0
 10
72.449175
 20
285.320172
 42
-0.006579
  0
VERTEX
  8
0
 10
60.069749
 20
283.966254
 42
-0.008123
  0
VERTEX
  8
0
 10
48.500000
 20
283.044131
 42
0.006425
  0
VERTEX
  8
0
 10
41.511019
 20
282.510980
 42
0.016803
  0
VERTEX
  8
0
 10
36.513549
 20
281.895262
 42
0.023153
  0
VERTEX
  8
0
 10
32.726759
 20
281.117826
 42
0.039362
  0
VERTEX
  8
0
 10
29.667095
 20
280.078459
 42
-0.017668
  0
VERTEX
  8
0
 10
27.620782
 20
279.282838
 42
-0.016325
  0
VERTEX
  8
0
 10
25.469124
 20
278.610547
 42
-0.016570
  0
VERTEX
  8
0
 10
23.514440
 20
278.138296
 42
-0.051024
  0
VERTEX
  8
0
 10
22.162762
 20
278.000000
 42
0.072285
  0
VERTEX
  8
0
 10
18.994409
 20
277.539547
 42
0.011021
  0
VERTEX
  8
0
 10
12.899433
 20
275.582597
 42
0.010611
  0
VERTEX
  8
0
 10
6.890749
 20
273.362380
 42
0.079558
  0
VERTEX
  8
0
 10
4.285954
 20
271.822358
 42
0.047094
  0
VERTEX
  8
0
 10
3.638517
 20
271.173048
 42
0.017118
  0
VERTEX
  8
0
 10
2.845125
 20
270.141442
 42
0.016798
  0
VERTEX
  8
0
 10
2.048842
 20
268.946433
 42
0.019236
  0
VERTEX
  8
0
 10
1.371996
 20
267.752468
 42
0.089772
  0
VERTEX
  8
0
 10
0.607769
 20
265.265951
 42
0.030559
  0
VERTEX
  8
0
 10
0.387806
 20
261.479137
 42
0.014311
  0
VERTEX
  8
0
 10
0.589489
 20
255.118527
 42
0.001896
  0
VERTEX
  8
0
 10
1.452235
 20
241.679635
 42
0.001730
  0
VERTEX
  8
0
 10
2.131156
 20
232.181955
 42
0.001799
  0
VERTEX
  8
0
 10
2.867425
 20
222.812143
 42
0.001730
  0
VERTEX
  8
0
 10
3.561453
 20
214.712195
 42
0.007846
  0
VERTEX
  8
0
 10
4.056279
 20
210.000000
 42
-0.013115
  0
VERTEX
  8
0
 10
4.491230
 20
205.390993
 42
-0.003260
  0
VERTEX
  8
0
 10
4.955743
 20
197.828125
 42
-0.003331
  0
VERTEX
  8
0
 10
5.373371
 20
189.163281
 42
-0.003338
  0
VERTEX
  8
0
 10
5.675169
 20
180.500000
 42
0.004263
  0
VERTEX
  8
0
 10
5.984812
 20
172.059984
 42
0.006938
  0
VERTEX
  8
0
 10
6.408099
 20
164.902777
 42
0.004208
  0
VERTEX
  8
0
 10
6.885069
 20
159.053558
 42
0.102622
  0
VERTEX
  8
0
 10
7.355968
 20
157.500000
 42
-0.061257
  0
VERTEX
  8
0
 10
7.790203
 20
156.401590
 42
-0.017737
  0
VERTEX
  8
0
 10
8.186345
 20
154.618750
 42
-0.017549
  0
VERTEX
  8
0
 10
8.493314
 20
152.560936
 42
-0.017895
  0
VERTEX
  8
0
 10
8.652732
 20
150.500000
 42
0.013123
  0
VERTEX
  8
0
 10
8.976866
 20
145.716425
 42
0.004812
  0
VERTEX
  8
0
 10
9.677161
 20
138.976002
 42
0.004339
  0
VERTEX
  8
0
 10
10.659986
 20
130.948355
 42
0.003118
  0
VERTEX
  8
0
 10
11.891244
 20
122.000000
 42
-0.007198
  0
VERTEX
  8
0
 10
12.490629
 20
117.364070
 42
-0.000836
  0
VERTEX
  8
0
 10
13.665637
 20
106.964463
 42
-0.001005
  0
VERTEX
  8
0
 10
15.017563
 20
94.590704
 42
-0.000821
  0
VERTEX
  8
0
 10
16.415595
 20
81.347107
 42
0.001914
  0
VERTEX
  8
0
 10
18.270308
 20
64.137892
 42
0.008631
  0
VERTEX
  8
0
 10
19.565716
 20
54.108507
 42
0.012872
  0
VERTEX
  8
0
 10
20.679172
 20
47.678041
 42
0.069907
  0
VERTEX
  8
0
 10
21.845401
 20
44.347107
 42
0.048738
  0
VERTEX
  8
0
 10
23.970920
 20
41.058354
 42
0.025238
  0
VERTEX
  8
0
 10
27.206360
 20
37.381564
 42
0.025240
  0
VERTEX
  8
0
 10
30.789582
 20
34.055287
 42
0.049550
  0
VERTEX
  8
0
 10
34.000000
 20
31.864853
 42
-0.023469
  0
VERTEX
  8
0
 10
36.998624
 20
30.040167
 42
-0.006787
  0
VERTEX
  8
0
 10
41.451111
 20
26.947049
 42
-0.007044
  0
VERTEX
  8
0
 10
46.166143
 20
23.474324
 42
-0.010050
  0
VERTEX
  8
0
 10
50.244264
 20
20.250000
 42
0.027309
  0
VERTEX
  8
0
 10
51.934203
 20
19.006148
 42
0.027357
  0
VERTEX
  8
0
 10
53.748679
 20
17.954687
 42
0.028433
  0
VERTEX
  8
0
 10
55.427885
 20
17.217561
 42
0.089436
  0
VERTEX
  8
0
 10
56.634452
 20
17.000000
 42
-0.055995
  0
VERTEX
  8
0
 10
57.841964
 20
16.864346
 42
-0.020173
  0
VERTEX
  8
0
 10
59.512987
 20
16.412500
 42
-0.019714
  0
VERTEX
  8
0
 10
61.319639
 20
15.765587
 42
-0.022122
  0
VERTEX
  8
0
 10
63.000000
 20
15.000000
 42
0.010558
  0
VERTEX
  8
0
 10
64.582752
 20
14.234215
 42
0.012864
  0
VERTEX
  8
0
 10
66.096367
 20
13.587500
 42
0.011430
  0
VERTEX
  8
0
 10
67.386815
 20
13.108828
 42
0.083278
  0
VERTEX
  8
0
 10
68.035689
 20
13.000000
 42
-0.112052
  0
VERTEX
  8
0
 10
68.758108
 20
12.836045
 42
-0.005704
  0
VERTEX
  8
0
 10
70.930917
 20
11.765605
 42
-0.008875
  0
VERTEX
  8
0
 10
73.495892
 20
10.407643
 42
-0.006298
  0
VERTEX
  8
0
 10
76.325527
 20
8.797803
 42
0.017524
  0
VERTEX
  8
0
 10
79.402456
 20
7.137566
 42
0.015513
  0
VERTEX
  8
0
 10
82.714374
 20
5.623708
 42
0.015771
  0
VERTEX
  8
0
 10
85.782966
 20
4.446991
 42
0.044987
  0
VERTEX
  8
0
 10
88.000000
 20
3.893329
 42
-0.016123
  0
VERTEX
  8
0
 10
90.013478
 20
3.512242
 42
-0.009976
  0
VERTEX
  8
0
 10
92.353125
 20
2.941553
 42
-0.010004
  0
VERTEX
  8
0
 10
94.643771
 20
2.284834
 42
-0.017708
  0
VERTEX
  8
0
 10
96.500000
 20
1.639419
 42
0.071617
  0
VERTEX
  8
0
 10
101.186120
 20
0.556768
 42
0.016329
  0
VERTEX
  8
0
 10
109.339217
 20
0.137279
 42
0.016370
  0
VERTEX
  8
0
 10
118.965479
 20
0.271921
 42
0.014337
  0
VERTEX
  8
0
 10
129.000000
 20
1.029911
 42
0.001986
  0
VERTEX
  8
0
 10
140.908174
 20
2.321488
 42
0.007177
  0
VERTEX
  8
0
 10
148.475802
 20
3.282890
 42
0.008308
  0
VERTEX
  8
0
 10
153.575571
 20
4.091943
 42
0.077644
  0
VERTEX
  8
0
 10
155.674937
 20
4.808514
 42
-0.043919
  0
VERTEX
  8
0
 10
156.671400
 20
5.225268
 42
-0.012463
  0
VERTEX
  8
0
 10
158.285763
 20
5.695467
 42
-0.012453
  0
VERTEX
  8
0
 10
160.143315
 20
6.137441
 42
-0.012877
  0
VERTEX
  8
0
 10
162.000000
 20
6.480928
 42
0.011113
  0
VERTEX
  8
0
 10
164.082208
 20
6.858545
 42
0.005883
  0
VERTEX
  8
0
 10
166.646875
 20
7.414292
 42
0.005851
  0
VERTEX
  8
0
 10
169.258229
 20
8.044651
 42
0.009011
  0
VERTEX
  8
0
 10
171.500000
 20
8.656839
 42
-0.000429
  0
VERTEX
  8
0
 10
173.706149
 20
9.300180
 42
-0.000296
  0
VERTEX
  8
0
 10
176.206250
 20
10.025308
 42
-0.000298
  0
VERTEX
  8
0
 10
178.611857
 20
10.719930
 42
-0.000610
  0
VERTEX
  8
0
 10
180.500000
 20
11.261419
 42
0.038731
  0
VERTEX
  8
0
 10
184.739874
 20
12.835530
 42
0.007865
  0
VERTEX
  8
0
 10
191.969871
 20
16.315931
 42
0.008636
  0
VERTEX
  8
0
 10
199.860616
 20
20.440455
 42
0.010927
  0
VERTEX
  8
0
 10
207.000000
 20
24.535495
 42
0.025216
  0
VERTEX
  8
0
 10
211.487370
 20
27.559862
 42
0.041012
  0
VERTEX
  8
0
 10
214.923429
 20
30.606769
 42
0.034270
  0
VERTEX
  8
0
 10
218.209915
 20
34.549572
 42
0.012367
  0
VERTEX
  8
0
 10
222.342106
 20
40.568707
 42
-0.007785
  0
VERTEX
  8
0
 10
224.258018
 20
43.415055
 42
-0.008453
  0
VERTEX
  8
0
 10
226.210975
 20
46.122334
 42
-0.008035
  0
VERTEX
  8
0
 10
227.958615
 20
48.383930
 42
-0.040338
  0
VERTEX
  8
0
 10
229.053486
 20
49.548404
 42
0.077607
  0
VERTEX
  8
0
 10
231.496444
 20
52.567365
 42
0.068470
  0
VERTEX
  8
0
 10
233.032204
 20
56.317390
 42
0.049437
  0
VERTEX
  8
0
 10
233.810598
 20
61.359224
 42
0.018664
  0
VERTEX
  8
0
 10
233.932434
 20
68.500000
 42
-0.012606
  0
VERTEX
  8
0
 10
233.959789
 20
74.028902
 42
-0.002791
  0
VERTEX
  8
0
 10
234.298203
 20
83.493750
 42
-0.002899
  0
VERTEX
  8
0
 10
234.813876
 20
94.429681
 42
-0.002790
  0
VERTEX
  8
0
 10
235.462188
 20
105.500000
 42
0.004358
  0
VERTEX
  8
0
 10
236.158401
 20
118.063293
 42
0.002297
  0
VERTEX
  8
0
 10
236.815258
 20
133.675000
 42
0.002285
  0
VERTEX
  8
0
 10
237.341337
 20
149.666380
 42
0.003522
  0
VERTEX
  8
0
 10
237.635635
 20
163.500000
 42
-0.001349
  0
VERTEX
  8
0
 10
237.839459
 20
175.542595
 42
-0.002022
  0
VERTEX
  8
0
 10
238.088280
 20
186.054507
 42
-0.000819
  0
VERTEX
  8
0
 10
238.352790
 20
195.064283
 42
-0.044902
  0
VERTEX
  8
0
 10
238.557232
 20
196.749385
 42
-0.098619
  0
VERTEX
  8
0
 10
239.000862
 20
197.778295
 42
-0.034881
  0
VERTEX
  8
0
 10
240.006314
 20
199.038526
 42
-0.033001
  0
VERTEX
  8
0
 10
241.334358
 20
200.304989
 42
-0.033160
  0
VERTEX
  8
0
 10
242.815443
 20
201.383494
 42
0.044454
  0
VERTEX
  8
0
 10
244.852155
 20
202.938079
 42
0.056672
  0
VERTEX
  8
0
 10
246.403204
 20
204.718070
 42
0.042935
  0
VERTEX
  8
0
 10
247.799248
 20
207.169157
 42
0.014511
  0
VERTEX
  8
0
 10
249.411416
 20
210.951656
 42
-0.016898
  0
VERTEX
  8
0
 10
251.087435
 20
214.832495
 42
-0.042204
  0
VERTEX
  8
0
 10
252.636252
 20
217.501383
 42
-0.047069
  0
VERTEX
  8
0
 10
254.503780
 20
219.699556
 42
-0.025902
  0
VERTEX
  8
0
 10
257.157448
 20
222.030221
 42
-0.101046
  0
VERTEX
  8
0
 10
266.187091
 20
226.588449
 42
-0.091112
  0
VERTEX
  8
0
 10
276.631266
 20
227.471566
 42
-0.090091
  0
VERTEX
  8
0
 10
286.807306
 20
224.577716
 42
-0.095900
  0
VERTEX
  8
0
 10
295.063455
 20
218.327683
 42
-0.095753
  0
VERTEX
  8
0
 10
300.464478
 20
209.331313
 42
-0.059514
  0
VERTEX
  8
0
 10
303.290601
 20
197.308352
 42
-0.044159
  0
VERTEX
  8
0
 10
303.664196
 20
181.562561
 42
-0.019923
  0
VERTEX
  8
0
 10
301.510093
 20
161.000000
 42
-0.006590
  0
VERTEX
  8
0
 10
299.999085
 20
151.479521
 42
-0.023252
  0
VERTEX
  8
0
 10
298.665124
 20
145.431172
 42
-0.030593
  0
VERTEX
  8
0
 10
296.983744
 20
140.436810
 42
-0.019075
  0
VERTEX
  8
0
 10
294.441618
 20
134.805661
 42
-0.042413
  0
VERTEX
  8
0
 10
288.953720
 20
125.793554
 42
-0.074247
  0
VERTEX
  8
0
 10
282.822348
 20
119.595256
 42
-0.082403
  0
VERTEX
  8
0
 10
275.631401
 20
115.868273
 42
-0.065012
  0
VERTEX
  8
0
 10
267.000000
 20
114.262856
 42
-0.042022
  0
VERTEX
  8
0
 10
260.131090
 20
114.468576
 42
-0.086928
  0
VERTEX
  8
0
 10
254.998877
 20
115.985321
 42
-0.097293
  0
VERTEX
  8
0
 10
251.054474
 20
119.013545
 42
-0.063324
  0
VERTEX
  8
0
 10
247.822374
 20
123.782879
 42
-0.002342
  0
VERTEX
  8
0
 10
246.764315
 20
125.894868
 42
-0.002900
  0
VERTEX
  8
0
 10
245.799884
 20
127.871441
 42
-0.002378
  0
VERTEX
  8
0
 10
245.007672
 20
129.539511
 42
-0.021602
  0
VERTEX
  8
0
 10
244.697374
 20
130.282879
 42
0.070672
  0
VERTEX
  8
0
 10
244.419751
 20
130.799197
 42
0.223702
  0
VERTEX
  8
0
 10
244.083359
 20
130.981304
 42
0.166357
  0
VERTEX
  8
0
 10
243.652168
 20
130.860263
 42
0.037463
  0
VERTEX
  8
0
 10
243.050254
 20
130.375254
 42
0.169817
  0
VERTEX
  8
0
 10
242.476777
 20
129.277001
 42
0.007353
  0
VERTEX
  8
0
 10
241.905035
 20
124.907094
 42
0.010361
  0
VERTEX
  8
0
 10
241.356687
 20
119.132214
 42
0.004567
  0
VERTEX
  8
0
 10
240.859774
 20
111.476449
 42
0.002533
  0
VERTEX
  8
0
 10
240.348405
 20
101.382243
 42
0.018309
  0
VERTEX
  8
0
 10
240.304937
 20
96.517786
 42
0.038020
  0
VERTEX
  8
0
 10
240.598562
 20
93.695959
 42
0.152596
  0
VERTEX
  8
0
 10
241.394079
 20
92.177350
 42
0.144331
  0
VERTEX
  8
0
 10
242.850158
 20
91.384317
 42
0.031979
  0
VERTEX
  8
0
 10
245.688557
 20
90.960860
 42
0.018494
  0
VERTEX
  8
0
 10
250.318098
 20
90.742292
 42
0.003566
  0
VERTEX
  8
0
 10
258.709559
 20
90.716614
 42
0.032404
  0
VERTEX
  8
0
 10
279.230512
 20
92.131862
 42
0.077641
  0
VERTEX
  8
0
 10
293.812892
 20
96.461421
 42
0.094100
  0
VERTEX
  8
0
 10
304.661814
 20
104.392030
 42
0.065850
  0
VERTEX
  8
0
 10
313.489064
 20
116.746091
 42
0.023876
  0
VERTEX
  8
0
 10
317.346259
 20
124.914819
 42
0.024044
  0
VERTEX
  8
0
 10
320.397065
 20
133.395197
 42
0.021798
  0
VERTEX
  8
0
 10
322.848871
 20
142.852503
 42
0.014010
  0
VERTEX
  8
0
 10
324.901094
 20
154.000000
 42
0.007564
  0
VERTEX
  8
0
 10
325.867625
 20
160.912915
 42
0.019572
  0
VERTEX
  8
0
 10
326.293185
 20
165.928314
 42
0.022554
  0
VERTEX
  8
0
 10
326.295063
 20
170.533731
 42
0.013459
  0
VERTEX
  8
0
 10
325.902960
 20
176.000000
 42
-0.002165
  0
VERTEX
  8
0
 10
325.160526
 20
183.858497
 42
-0.017349
  0
VERTEX
  8
0
 10
324.960067
 20
187.488198
 42
-0.029388
  0
VERTEX
  8
0
 10
325.069491
 20
190.345138
 42
-0.013096
  0
VERTEX
  8
0
 10
325.532616
 20
194.084286
 42
0.024209
  0
VERTEX
  8
0
 10
325.765619
 20
196.383103
 42
0.041565
  0
VERTEX
  8
0
 10
325.706967
 20
198.306945
 42
0.046976
  0
VERTEX
  8
0
 10
325.346159
 20
200.021246
 42
0.044010
  0
VERTEX
  8
0
 10
324.666561
 20
201.677906
 42
-0.038649
  0
VERTEX
  8
0
 10
324.020116
 20
203.206938
 42
-0.015342
  0
VERTEX
  8
0
 10
323.363379
 20
205.391371
 42
-0.015076
  0
VERTEX
  8
0
 10
322.795585
 20
207.803114
 42
-0.018311
  0
VERTEX
  8
0
 10
322.415478
 20
210.093619
 42
0.052623
  0
VERTEX
  8
0
 10
320.791240
 20
216.938585
 42
0.055123
  0
VERTEX
  8
0
 10
317.789518
 20
223.180290
 42
0.047827
  0
VERTEX
  8
0
 10
313.097022
 20
229.302276
 42
0.026815
  0
VERTEX
  8
0
 10
306.344376
 20
235.819005
 42
0.009196
  0
VERTEX
  8
0
 10
300.808427
 20
240.440509
 42
0.035501
  0
VERTEX
  8
0
 10
297.131413
 20
242.989975
 42
0.040097
  0
VERTEX
  8
0
 10
293.354939
 20
244.838158
 42
0.014079
  0
VERTEX
  8
0
 10
287.672630
 20
246.891898
 42
0.010481
  0
VERTEX
  8
0
 10
281.771783
 20
248.702389
 42
0.036953
  0
VERTEX
  8
0
 10
277.887851
 20
249.501302
 42
0.033986
  0
VERTEX
  8
0
 10
273.769085
 20
249.753063
 42
0.007884
  0
VERTEX
  8
0
 10
266.828254
 20
249.595728
 42
0.009987
  0
VERTEX
  8
0
 10
262.014643
 20
249.314270
 42
0.008346
  0
VERTEX
  8
0
 10
256.918300
 20
248.828294
 42
0.008444
  0
VERTEX
  8
0
 10
252.271458
 20
248.227160
 42
0.022699
  0
VERTEX
  8
0
 10
249.000000
 20
247.594854
 42
-0.027758
  0
VERTEX
  8
0
 10
241.029450
 20
246.137760
 42
-0.171026
  0
VERTEX
  8
0
 10
237.015779
 20
247.007785
 42
-0.195217
  0
VERTEX
  8
0
 10
234.731927
 20
250.120664
 42
-0.037775
  0
VERTEX
  8
0
 10
233.513950
 20
257.137178
 42
0.014497
  0
VERTEX
  8
0
 10
232.612191
 20
264.293217
 42
0.020812
  0
VERTEX
  8
0
 10
231.368146
 20
270.560131
 42
0.021794
  0
VERTEX
  8
0
 10
229.936052
 20
275.518688
 42
0.103068
  0
VERTEX
  8
0
 10
228.448053
 20
278.057401
 42
0.173420
  0
VERTEX
  8
0
 10
219.350639
 20
282.931000
 42
0.017223
  0
VERTEX
  8
0
 10
194.373668
 20
285.789267
 42
0.018160
  0
VERTEX
  8
0
 10
161.214358
 20
287.222053
 42
0.009250
  0
VERTEX
  8
0
 10
119.500000
 20
286.736811
 42
-0.013542
  0
VERTEX
  8
0
 10
116.712496
 20
286.728312
 42
-0.002870
  0
VERTEX
  8
0
 10
111.856250
 20
286.872942
 42
-0.003002
  0
VERTEX
  8
0
 10
106.226572
 20
287.106811
 42
-0.002848
  0
VERTEX
  8
0
 10
100.500000
 20
287.411857
 42
0.004216
  0
VERTEX
  8
0
 10
95.092849
 20
287.685054
 42
0.006639
  0
VERTEX
  8
0
 10
90.446654
 20
287.818775
 42
0.002274
  0
VERTEX
  8
0
 10
86.460352
 20
287.862419
 42
0.208506
  0
SEQEND
  0
ENDSEC
  0
EOF
