  0
SECTION
  2
HEADER
  9
$ACADVER
  1
AC1006
  9
$EXTMIN
 10
0.000000
 20
0.000000
 30
0.000000
  9
$EXTMAX
 10
293.000000
 20
252.000000
 30
0.000000
  0
ENDSEC
  0
SECTION
  2
ENTITIES
  0
POLYLINE
  8
0
 66
1
 70
1
  0
VERTEX
  8
0
 10
44.500000
 20
251.397003
 42
-0.025226
  0
VERTEX
  8
0
 10
43.088785
 20
251.224386
 42
-0.000989
  0
VERTEX
  8
0
 10
37.876993
 20
250.862658
 42
-0.001753
  0
VERTEX
  8
0
 10
31.703086
 20
250.468153
 42
-0.001237
  0
VERTEX
  8
0
 10
24.762104
 20
250.066288
 42
0.004982
  0
VERTEX
  8
0
 10
17.822043
 20
249.612292
 42
0.007034
  0
VERTEX
  8
0
 10
11.650392
 20
249.059349
 42
0.004326
  0
VERTEX
  8
0
 10
6.490294
 20
248.478596
 42
0.092934
  0
VERTEX
  8
0
 10
5.035023
 20
248.018744
 42
0.125273
  0
VERTEX
  8
0
 10
2.672496
 20
245.858752
 42
0.099861
  0
VERTEX
  8
0
 10
1.381608
 20
242.643986
 42
0.043304
  0
VERTEX
  8
0
 10
0.845121
 20
237.085861
 42
0.006022
  0
VERTEX
  8
0
 10
0.872617
 20
225.500000
 42
0.007493
  0
VERTEX
  8
0
 10
1.497266
 20
204.261401
 42
0.001960
  0
VERTEX
  8
0
 10
3.143620
 20
170.207907
 42
0.002080
  0
VERTEX
  8
0
 10
5.119548
 20
135.203427
 42
0.004841
  0
VERTEX
  8
0
 10
6.962829
 20
109.000000
 42
0.008934
  0
VERTEX
  8
0
 10
9.416482
 20
83.986301
 42
0.007387
  0
VERTEX
  8
0
 10
12.899424
 20
57.432606
 42
0.005132
  0
VERTEX
  8
0
 10
16.644907
 20
33.533857
 42
0.062339
  0
VERTEX
  8
0
 10
19.295485
 20
24.659322
 42
0.045079
  0
VERTEX
  8
0
 10
21.441392
 20
20.776160
 42
0.060533
  0
VERTEX
  8
0
 10
24.077309
 20
17.745606
 42
0.049675
  0
VERTEX
  8
0
 10
27.761876
 20
15.032276
 42
0.020128
  0
VERTEX
  8
0
 10
33.255436
 20
12.065115
 42
0.064348
  0
VERTEX
  8
0
 10
55.325578
 20
4.592894
 42
0.033618
  0
VERTEX
  8
0
 10
84.151344
 20
0.803050
 42
0.030661
  0
VERTEX
  8
0
 10
116.884667
 20
0.730664
 42
0.026589
  0
VERTEX
  8
0
 10
151.000000
 20
4.576535
 42
0.014604
  0
VERTEX
  8
0
 10
169.380868
 20
8.199866
 42
0.036110
  0
VERTEX
  8
0
 10
182.511914
 20
12.204663
 42
0.048932
  0
VERTEX
  8
0
 10
192.237391
 20
17.096042
 42
0.065669
  0
VERTEX
  8
0
 10
199.807520
 20
23.407010
 42
0.017854
  0
VERTEX
  8
0
 10
201.901259
 20
25.847819
 42
0.048995
  0
VERTEX
  8
0
 10
203.135224
 20
27.750316
 42
0.064491
  0
VERTEX
  8
0
 10
203.781152
 20
29.527132
 42
0.055024
  0
VERTEX
  8
0
 10
204.000000
 20
31.509776
 42
-0.035391
  0
VERTEX
  8
0
 10
204.115462
 20
33.138961
 42
-0.019292
  0
VERTEX
  8
0
 10
204.474714
 20
35.112242
 42
-0.019137
  0
VERTEX
  8
0
 10
204.996862
 20
37.099541
 42
-0.028715
  0
VERTEX
  8
0
 10
205.616048
 20
38.782119
 42
0.057099
  0
VERTEX
  8
0
 10
206.401370
 20
41.357688
 42
0.015704
  0
VERTEX
  8
0
 10
207.037738
 20
45.554721
 42
0.012414
  0
VERTEX
  8
0
 10
207.578446
 20
51.274998
 42
0.005201
  0
VERTEX
  8
0
 10
208.034876
 20
59.000000
 42
-0.009594
  0
VERTEX
  8
0
 10
209.007829
 20
73.327676
 42
-0.005767
  0
VERTEX
  8
0
 10
210.684381
 20
90.289107
 42
-0.002717
  0
VERTEX
  8
0
 10
212.590852
 20
106.723083
 42
-0.080422
  0
VERTEX
  8
0
 10
213.752584
 20
110.741584
 42
0.103567
  0
VERTEX
  8
0
 10
214.094996
 20
112.168435
 42
0.000790
  0
VERTEX
  8
0
 10
214.425774
 20
124.174090
 42
0.002890
  0
VERTEX
  8
0
 10
214.704203
 20
137.965914
 42
0.001846
  0
VERTEX
  8
0
 10
214.876010
 20
154.000000
 42
-0.001608
  0
VERTEX
  8
0
 10
215.072551
 20
173.192526
 42
-0.004923
  0
VERTEX
  8
0
 10
215.375793
 20
186.203614
 42
-0.003402
  0
VERTEX
  8
0
 10
215.752749
 20
195.633838
 42
-0.099268
  0
VERTEX
  8
0
 10
216.333738
 20
197.961103
 42
-0.067889
  0
VERTEX
  8
0
 10
217.036707
 20
199.038518
 42
-0.059273
  0
VERTEX
  8
0
 10
218.032493
 20
199.945419
 42
-0.056006
  0
VERTEX
  8
0
 10
219.270740
 20
200.635467
 42
-0.048892
  0
VERTEX
  8
0
 10
220.688861
 20
201.072300
 42
0.063927
  0
VERTEX
  8
0
 10
222.230359
 20
201.598214
 42
0.021895
  0
VERTEX
  8
0
 10
224.305588
 20
202.732592
 42
0.021351
  0
VERTEX
  8
0
 10
226.510499
 20
204.198482
 42
0.023094
  0
VERTEX
  8
0
 10
228.523150
 20
205.811462
 42
-0.035906
  0
VERTEX
  8
0
 10
232.724350
 20
209.005279
 42
-0.062659
  0
VERTEX
  8
0
 10
236.651555
 20
210.917242
 42
-0.063125
  0
VERTEX
  8
0
 10
240.909449
 20
211.788505
 42
-0.037007
  0
VERTEX
  8
0
 10
246.119409
 20
211.797744
 42
-0.041361
  0
VERTEX
  8
0
 10
250.626263
 20
211.094074
 42
-0.074755
  0
VERTEX
  8
0
 10
254.078273
 20
209.688039
 42
-0.067256
  0
VERTEX
  8
0
 10
257.196919
 20
207.215579
 42
-0.027893
  0
VERTEX
  8
0
 10
260.711985
 20
203.129192
 42
-0.062332
  0
VERTEX
  8
0
 10
263.565115
 20
198.260858
 42
-0.018870
  0
VERTEX
  8
0
 10
266.650637
 20
190.255088
 42
-0.019157
  0
VERTEX
  8
0
 10
269.353225
 20
181.258448
 42
-0.024902
  0
VERTEX
  8
0
 10
271.094010
 20
172.832043
 42
-0.034533
  0
VERTEX
  8
0
 10
271.837011
 20
164.100401
 42
-0.013329
  0
VERTEX
  8
0
 10
271.705567
 20
151.938797
 42
-0.012836
  0
VERTEX
  8
0
 10
270.951860
 20
140.016434
 42
-0.045746
  0
VERTEX
  8
0
 10
269.582293
 20
132.500000
 42
-0.041026
  0
VERTEX
  8
0
 10
265.487275
 20
121.408117
 42
-0.040262
  0
VERTEX
  8
0
 10
259.614927
 20
111.059759
 42
-0.040714
  0
VERTEX
  8
0
 10
252.233762
 20
101.895026
 42
-0.044232
  0
VERTEX
  8
0
 10
243.652027
 20
94.322753
 42
-0.047171
  0
VERTEX
  8
0
 10
238.430951
 20
91.190880
 42
-0.087377
  0
VERTEX
  8
0
 10
233.683084
 20
89.868040
 42
-0.101307
  0
VERTEX
  8
0
 10
229.256365
 20
90.332371
 42
-0.082485
  0
VERTEX
  8
0
 10
225.000000
 20
92.500000
 42
0.047595
  0
VERTEX
  8
0
 10
222.452568
 20
94.028785
 42
0.063954
  0
VERTEX
  8
0
 10
219.898351
 20
94.868599
 42
0.083037
  0
VERTEX
  8
0
 10
217.796429
 20
94.919543
 42
0.222507
  0
VERTEX
  8
0
 10
216.574063
 20
94.119836
 42
0.102830
  0
VERTEX
  8
0
 10
216.333711
 20
93.458588
 42
0.004328
  0
VERTEX
  8
0
 10
215.995484
 20
90.969164
 42
0.007304
  0
VERTEX
  8
0
 10
215.661385
 20
87.992581
 42
0.005113
  0
VERTEX
  8
0
 10
215.368309
 20
84.630120
 42
0.000000
  0
VERTEX
  8
0
 10
214.706526
 20
76.020568
 42
0.000000
  0
VERTEX
  8
0
 10
218.321145
 20
74.510284
 42
0.043824
  0
VERTEX
  8
0
 10
220.146349
 20
73.929266
 42
0.017442
  0
VERTEX
  8
0
 10
222.731062
 20
73.443646
 42
0.017103
  0
VERTEX
  8
0
 10
225.572300
 20
73.110748
 42
0.020611
  0
VERTEX
  8
0
 10
228.257783
 20
73.000000
 42
0.079212
  0
VERTEX
  8
0
 10
244.226367
 20
75.545787
 42
0.067878
  0
VERTEX
  8
0
 10
259.558125
 20
82.984731
 42
0.065969
  0
VERTEX
  8
0
 10
272.722100
 20
94.507881
 42
0.067103
  0
VERTEX
  8
0
 10
282.341924
 20
109.000000
 42
0.070558
  0
VERTEX
  8
0
 10
290.866619
 20
135.509707
 42
0.061707
  0
VERTEX
  8
0
 10
292.235203
 20
164.616525
 42
0.064464
  0
VERTEX
  8
0
 10
286.573948
 20
191.841178
 42
0.096530
  0
VERTEX
  8
0
 10
274.410828
 20
212.780465
 42
0.027044
  0
VERTEX
  8
0
 10
271.696765
 20
215.563917
 42
0.033079
  0
VERTEX
  8
0
 10
268.866033
 20
217.842791
 42
0.028056
  0
VERTEX
  8
0
 10
265.399778
 20
219.994672
 42
0.012872
  0
VERTEX
  8
0
 10
260.664641
 20
222.422284
 42
0.028262
  0
VERTEX
  8
0
 10
252.387167
 20
225.839209
 42
0.039940
  0
VERTEX
  8
0
 10
244.672987
 20
227.851288
 42
0.042086
  0
VERTEX
  8
0
 10
237.060321
 20
228.547373
 42
0.037004
  0
VERTEX
  8
0
 10
229.096729
 20
228.013719
 42
-0.028621
  0
VERTEX
  8
0
 10
223.215542
 20
227.520551
 42
-0.118252
  0
VERTEX
  8
0
 10
219.749305
 20
228.255649
 42
-0.157495
  0
VERTEX
  8
0
 10
217.539397
 20
230.342689
 42
-0.063665
  0
VERTEX
  8
0
 10
216.005120
 20
234.247326
 42
0.007411
  0
VERTEX
  8
0
 10
215.523014
 20
236.044657
 42
0.006289
  0
VERTEX
  8
0
 10
214.961933
 20
237.928547
 42
0.006349
  0
VERTEX
  8
0
 10
214.407444
 20
239.631719
 42
0.017683
  0
VERTEX
  8
0
 10
213.961186
 20
240.807303
 42
-0.046083
  0
VERTEX
  8
0
 10
213.630391
 20
241.854141
 42
-0.031046
  0
VERTEX
  8
0
 10
213.440638
 20
243.093792
 42
-0.031296
  0
VERTEX
  8
0
 10
213.407026
 20
244.327043
 42
-0.052694
  0
VERTEX
  8
0
 10
213.551973
 20
245.351054
 42
0.072090
  0
VERTEX
  8
0
 10
213.665920
 20
246.464602
 42
0.080826
  0
VERTEX
  8
0
 10
213.448582
 20
247.519095
 42
0.072564
  0
VERTEX
  8
0
 10
212.879915
 20
248.537086
 42
0.045244
  0
VERTEX
  8
0
 10
211.951959
 20
249.543751
 42
0.169132
  0
VERTEX
  8
0
 10
208.968842
 20
250.806894
 42
0.010163
  0
VERTEX
  8
0
 10
199.087699
 20
251.253060
 42
0.005467
  0
VERTEX
  8
0
 10
180.868538
 20
251.505652
 42
0.000358
  0
VERTEX
  8
0
 10
128.145316
 20
251.622377
 42
0.000402
  0
VERTEX
  8
0
 10
96.701333
 20
251.644228
 42
0.000646
  0
VERTEX
  8
0
 10
69.895811
 20
251.606654
 42
0.000097
  0
VERTEX
  8
0
 10
46.104125
 20
251.537916
 42
0.042293
  0
SEQEND
  0
ENDSEC
  0
EOF
