  0
SECTION
  2
HEADER
  9
$ACADVER
  1
AC1006
  9
$EXTMIN
 10
0.000000
 20
0.000000
 30
0.000000
  9
$EXTMAX
 10
205.000000
 20
215.000000
 30
0.000000
  0
ENDSEC
  0
SECTION
  2
ENTITIES
  0
POLYLINE
  8
0
 66
1
 70
1
  0
VERTEX
  8
0
 10
109.500000
 20
213.563074
 42
0.005127
  0
VERTEX
  8
0
 10
89.937192
 20
211.618912
 42
0.015515
  0
VERTEX
  8
0
 10
76.683825
 20
209.746655
 42
0.021476
  0
VERTEX
  8
0
 10
67.522988
 20
207.752759
 42
0.080715
  0
VERTEX
  8
0
 10
62.166474
 20
205.371355
 42
0.103832
  0
VERTEX
  8
0
 10
59.798550
 20
202.998960
 42
0.071889
  0
VERTEX
  8
0
 10
58.199253
 20
199.548288
 42
0.051376
  0
VERTEX
  8
0
 10
57.282787
 20
194.726041
 42
0.021290
  0
VERTEX
  8
0
 10
57.000000
 20
188.087882
 42
-0.007403
  0
VERTEX
  8
0
 10
56.922654
 20
182.864464
 42
-0.042933
  0
VERTEX
  8
0
 10
56.605420
 20
180.128295
 42
-0.074589
  0
VERTEX
  8
0
 10
55.904670
 20
178.209412
 42
-0.052880
  0
VERTEX
  8
0
 10
54.599523
 20
176.320806
 42
-0.059752
  0
VERTEX
  8
0
 10
52.847651
 20
174.717755
 42
-0.091117
  0
VERTEX
  8
0
 10
50.987726
 20
173.842198
 42
-0.043968
  0
VERTEX
  8
0
 10
48.086976
 20
173.343183
 42
-0.005153
  0
VERTEX
  8
0
 10
41.532372
 20
172.869261
 42
0.008949
  0
VERTEX
  8
0
 10
35.509677
 20
172.387810
 42
0.030490
  0
VERTEX
  8
0
 10
31.625954
 20
171.766524
 42
0.038292
  0
VERTEX
  8
0
 10
28.328517
 20
170.760455
 42
0.021200
  0
VERTEX
  8
0
 10
24.474823
 20
169.062220
 42
0.044357
  0
VERTEX
  8
0
 10
18.965151
 20
165.713533
 42
0.057030
  0
VERTEX
  8
0
 10
14.625447
 20
161.681088
 42
0.053059
  0
VERTEX
  8
0
 10
11.088095
 20
156.534074
 42
0.032021
  0
VERTEX
  8
0
 10
7.985343
 20
149.805772
 42
0.031824
  0
VERTEX
  8
0
 10
5.292385
 20
141.235181
 42
0.016653
  0
VERTEX
  8
0
 10
2.987158
 20
130.286240
 42
0.016544
  0
VERTEX
  8
0
 10
1.372754
 20
118.922789
 42
0.025388
  0
VERTEX
  8
0
 10
0.803789
 20
109.000000
 42
0.016065
  0
VERTEX
  8
0
 10
0.944758
 20
103.497951
 42
0.022525
  0
VERTEX
  8
0
 10
1.449002
 20
98.609416
 42
0.018364
  0
VERTEX
  8
0
 10
2.478144
 20
93.096368
 42
0.006818
  0
VERTEX
  8
0
 10
4.314875
 20
85.421841
 42
0.011693
  0
VERTEX
  8
0
 10
8.614216
 20
70.003045
 42
0.030466
  0
VERTEX
  8
0
 10
12.628621
 20
59.214588
 42
0.041641
  0
VERTEX
  8
0
 10
16.995821
 20
51.227586
 42
0.054247
  0
VERTEX
  8
0
 10
22.309325
 20
44.815720
 42
0.052779
  0
VERTEX
  8
0
 10
28.634738
 20
39.856148
 42
0.065726
  0
VERTEX
  8
0
 10
35.424478
 20
36.756768
 42
0.064470
  0
VERTEX
  8
0
 10
42.892768
 20
35.488582
 42
0.048242
  0
VERTEX
  8
0
 10
51.234185
 20
35.964273
 42
0.013307
  0
VERTEX
  8
0
 10
54.110153
 20
36.487573
 42
0.016698
  0
VERTEX
  8
0
 10
56.742115
 20
37.131634
 42
0.014945
  0
VERTEX
  8
0
 10
58.886365
 20
37.802621
 42
0.112748
  0
VERTEX
  8
0
 10
59.781525
 20
38.360985
 42
0.143090
  0
VERTEX
  8
0
 10
60.371123
 20
39.429316
 42
0.048725
  0
VERTEX
  8
0
 10
60.590158
 20
41.205957
 42
0.028182
  0
VERTEX
  8
0
 10
60.504248
 20
43.971436
 42
0.006664
  0
VERTEX
  8
0
 10
60.039730
 20
48.567240
 42
-0.001955
  0
VERTEX
  8
0
 10
59.647241
 20
52.116001
 42
-0.002495
  0
VERTEX
  8
0
 10
59.314600
 20
55.390064
 42
-0.001938
  0
VERTEX
  8
0
 10
59.060116
 20
58.136802
 42
-0.020958
  0
VERTEX
  8
0
 10
59.008205
 20
59.250000
 42
0.084304
  0
VERTEX
  8
0
 10
58.891490
 20
59.918307
 42
0.092819
  0
VERTEX
  8
0
 10
58.561785
 20
60.485937
 42
0.099964
  0
VERTEX
  8
0
 10
58.072809
 20
60.865597
 42
0.115748
  0
VERTEX
  8
0
 10
57.500000
 20
61.000000
 42
0.093802
  0
VERTEX
  8
0
 10
56.927421
 20
60.891628
 42
0.096560
  0
VERTEX
  8
0
 10
56.440625
 20
60.581913
 42
0.099077
  0
VERTEX
  8
0
 10
56.114792
 20
60.119794
 42
0.104534
  0
VERTEX
  8
0
 10
56.000000
 20
59.576725
 42
-0.152639
  0
VERTEX
  8
0
 10
55.416523
 20
57.709958
 42
-0.029729
  0
VERTEX
  8
0
 10
53.213080
 20
54.901818
 42
-0.032393
  0
VERTEX
  8
0
 10
50.497358
 20
52.208404
 42
-0.059887
  0
VERTEX
  8
0
 10
47.930544
 20
50.464083
 42
-0.063825
  0
VERTEX
  8
0
 10
44.906945
 20
49.361163
 42
-0.073812
  0
VERTEX
  8
0
 10
41.851794
 20
49.131786
 42
-0.061424
  0
VERTEX
  8
0
 10
38.432968
 20
49.807437
 42
-0.029489
  0
VERTEX
  8
0
 10
34.268488
 20
51.455199
 42
-0.056721
  0
VERTEX
  8
0
 10
30.088391
 20
54.012577
 42
-0.083271
  0
VERTEX
  8
0
 10
27.181967
 20
57.181178
 42
-0.053791
  0
VERTEX
  8
0
 10
24.693812
 20
62.096097
 42
-0.011954
  0
VERTEX
  8
0
 10
21.571734
 20
71.000000
 42
-0.029403
  0
VERTEX
  8
0
 10
18.661278
 20
82.185676
 42
-0.028210
  0
VERTEX
  8
0
 10
17.033410
 20
93.791321
 42
-0.026791
  0
VERTEX
  8
0
 10
16.672684
 20
106.064905
 42
-0.021486
  0
VERTEX
  8
0
 10
17.559747
 20
119.254860
 42
-0.015789
  0
VERTEX
  8
0
 10
19.693647
 20
134.214016
 42
-0.046645
  0
VERTEX
  8
0
 10
22.424732
 20
144.218561
 42
-0.071404
  0
VERTEX
  8
0
 10
26.071008
 20
150.856988
 42
-0.114042
  0
VERTEX
  8
0
 10
31.003303
 20
155.001685
 42
-0.032274
  0
VERTEX
  8
0
 10
34.219138
 20
156.388769
 42
-0.074115
  0
VERTEX
  8
0
 10
36.799765
 20
156.897760
 42
-0.082723
  0
VERTEX
  8
0
 10
39.236606
 20
156.608144
 42
-0.048509
  0
VERTEX
  8
0
 10
41.970822
 20
155.515089
 42
-0.065520
  0
VERTEX
  8
0
 10
44.452310
 20
153.787726
 42
-0.048000
  0
VERTEX
  8
0
 10
46.707023
 20
151.298040
 42
-0.041093
  0
VERTEX
  8
0
 10
48.748293
 20
148.026525
 42
-0.026350
  0
VERTEX
  8
0
 10
50.586985
 20
143.942334
 42
0.017187
  0
VERTEX
  8
0
 10
51.483320
 20
141.849779
 42
0.007895
  0
VERTEX
  8
0
 10
52.786852
 20
139.184411
 42
0.007809
  0
VERTEX
  8
0
 10
54.248062
 20
136.420122
 42
0.010707
  0
VERTEX
  8
0
 10
55.653968
 20
133.983320
 42
-0.056393
  0
VERTEX
  8
0
 10
58.218064
 20
128.422459
 42
-0.041127
  0
VERTEX
  8
0
 10
59.818398
 20
121.801836
 42
-0.028536
  0
VERTEX
  8
0
 10
60.689226
 20
112.935813
 42
-0.009643
  0
VERTEX
  8
0
 10
60.969124
 20
99.958771
 42
0.019562
  0
VERTEX
  8
0
 10
61.528055
 20
86.465216
 42
0.004049
  0
VERTEX
  8
0
 10
63.631173
 20
62.794124
 42
0.003839
  0
VERTEX
  8
0
 10
66.103228
 20
39.199281
 42
0.022985
  0
VERTEX
  8
0
 10
68.047279
 20
27.000000
 42
-0.000617
  0
VERTEX
  8
0
 10
68.513819
 20
24.730644
 42
-0.000617
  0
VERTEX
  8
0
 10
68.974773
 20
22.460075
 42
-0.000602
  0
VERTEX
  8
0
 10
69.372359
 20
20.476858
 42
-0.002448
  0
VERTEX
  8
0
 10
69.606977
 20
19.268340
 42
0.105579
  0
VERTEX
  8
0
 10
70.719925
 20
16.615534
 42
0.034416
  0
VERTEX
  8
0
 10
73.392741
 20
13.285960
 42
0.034617
  0
VERTEX
  8
0
 10
76.716166
 20
10.150087
 42
0.053907
  0
VERTEX
  8
0
 10
80.008213
 20
7.995810
 42
0.030985
  0
VERTEX
  8
0
 10
82.085645
 20
7.093400
 42
0.007252
  0
VERTEX
  8
0
 10
85.673774
 20
5.850960
 42
0.007448
  0
VERTEX
  8
0
 10
89.851216
 20
4.540646
 42
0.007252
  0
VERTEX
  8
0
 10
94.102893
 20
3.343124
 42
0.012991
  0
VERTEX
  8
0
 10
100.709480
 20
1.767899
 42
0.029533
  0
VERTEX
  8
0
 10
105.782558
 20
1.006190
 42
0.020420
  0
VERTEX
  8
0
 10
111.923508
 20
0.704113
 42
0.003577
  0
VERTEX
  8
0
 10
123.500000
 20
0.690659
 42
0.007706
  0
VERTEX
  8
0
 10
142.375244
 20
1.094727
 42
0.019514
  0
VERTEX
  8
0
 10
156.057121
 20
2.134340
 42
0.025112
  0
VERTEX
  8
0
 10
167.371720
 20
4.019253
 42
0.024817
  0
VERTEX
  8
0
 10
178.485888
 20
7.034389
 42
0.007836
  0
VERTEX
  8
0
 10
183.420472
 20
8.725742
 42
0.008742
  0
VERTEX
  8
0
 10
188.121391
 20
10.513245
 42
0.008178
  0
VERTEX
  8
0
 10
192.069415
 20
12.169437
 42
0.044889
  0
VERTEX
  8
0
 10
194.091870
 20
13.282928
 42
0.079273
  0
VERTEX
  8
0
 10
198.751327
 20
17.634189
 42
0.087106
  0
VERTEX
  8
0
 10
201.643665
 20
23.088242
 42
0.075613
  0
VERTEX
  8
0
 10
202.753130
 20
29.839093
 42
0.043933
  0
VERTEX
  8
0
 10
202.129252
 20
38.047377
 42
-0.022652
  0
VERTEX
  8
0
 10
201.282424
 20
45.167863
 42
-0.021873
  0
VERTEX
  8
0
 10
201.069619
 20
52.419712
 42
-0.021202
  0
VERTEX
  8
0
 10
201.493740
 20
59.878438
 42
-0.018541
  0
VERTEX
  8
0
 10
202.555191
 20
67.619010
 42
0.019949
  0
VERTEX
  8
0
 10
203.258069
 20
72.854155
 42
0.010462
  0
VERTEX
  8
0
 10
203.735095
 20
79.409004
 42
0.008510
  0
VERTEX
  8
0
 10
204.015560
 20
87.487594
 42
0.004519
  0
VERTEX
  8
0
 10
204.102115
 20
97.500000
 42
-0.000564
  0
VERTEX
  8
0
 10
204.109004
 20
106.885925
 42
-0.000363
  0
VERTEX
  8
0
 10
204.137159
 20
117.765625
 42
-0.000365
  0
VERTEX
  8
0
 10
204.180197
 20
128.408213
 42
-0.000687
  0
VERTEX
  8
0
 10
204.233023
 20
137.000000
 42
0.002779
  0
VERTEX
  8
0
 10
204.250165
 20
145.724675
 42
0.001368
  0
VERTEX
  8
0
 10
204.179935
 20
156.821875
 42
0.001357
  0
VERTEX
  8
0
 10
204.044217
 20
168.344640
 42
0.001978
  0
VERTEX
  8
0
 10
203.856862
 20
178.500000
 42
0.002472
  0
VERTEX
  8
0
 10
203.514220
 20
191.026363
 42
0.013300
  0
VERTEX
  8
0
 10
203.112856
 20
197.833904
 42
0.023984
  0
VERTEX
  8
0
 10
202.539522
 20
202.104656
 42
0.075033
  0
VERTEX
  8
0
 10
201.599764
 20
204.837637
 42
0.099508
  0
VERTEX
  8
0
 10
199.320268
 20
207.660284
 42
0.065213
  0
VERTEX
  8
0
 10
195.773134
 20
209.898260
 42
0.048682
  0
VERTEX
  8
0
 10
190.767412
 20
211.642655
 42
0.022547
  0
VERTEX
  8
0
 10
184.000000
 20
212.964860
 42
0.029481
  0
VERTEX
  8
0
 10
171.611751
 20
214.069301
 42
0.005486
  0
VERTEX
  8
0
 10
148.762962
 20
214.503505
 42
0.006129
  0
VERTEX
  8
0
 10
125.479801
 20
214.405074
 42
0.018081
  0
SEQEND
  0
ENDSEC
  0
EOF
