  0
SECTION
  2
HEADER
  9
$ACADVER
  1
AC1006
  9
$EXTMIN
 10
0.000000
 20
0.000000
 30
0.000000
  9
$EXTMAX
 10
531.000000
 20
649.000000
 30
0.000000
  0
ENDSEC
  0
SECTION
  2
ENTITIES
  0
POLYLINE
  8
0
 66
1
 70
1
  0
VERTEX
  8
0
 10
96.106738
 20
647.628612
 42
0.133296
  0
VERTEX
  8
0
 10
93.474188
 20
641.853359
 42
0.022614
  0
VERTEX
  8
0
 10
92.042371
 20
629.717951
 42
0.025411
  0
VERTEX
  8
0
 10
91.753009
 20
616.206853
 42
0.035626
  0
VERTEX
  8
0
 10
92.964913
 20
604.203148
 42
0.018642
  0
VERTEX
  8
0
 10
94.475514
 20
597.085228
 42
0.006622
  0
VERTEX
  8
0
 10
97.147125
 20
587.028071
 42
0.005314
  0
VERTEX
  8
0
 10
99.998832
 20
577.240745
 42
0.041427
  0
VERTEX
  8
0
 10
101.746352
 20
572.826534
 42
-0.074017
  0
VERTEX
  8
0
 10
102.987478
 20
568.978447
 42
-0.013364
  0
VERTEX
  8
0
 10
104.020895
 20
561.510438
 42
-0.014296
  0
VERTEX
  8
0
 10
104.745935
 20
552.708839
 42
-0.013208
  0
VERTEX
  8
0
 10
104.992411
 20
543.644614
 42
-0.011907
  0
VERTEX
  8
0
 10
104.867670
 20
538.232058
 42
-0.024715
  0
VERTEX
  8
0
 10
104.461669
 20
534.028001
 42
-0.025744
  0
VERTEX
  8
0
 10
103.655825
 20
529.994091
 42
-0.014106
  0
VERTEX
  8
0
 10
102.277814
 20
525.144614
 42
-0.004338
  0
VERTEX
  8
0
 10
100.821614
 20
520.656563
 42
-0.042267
  0
VERTEX
  8
0
 10
100.032200
 20
518.824783
 42
-0.472002
  0
VERTEX
  8
0
 10
99.561907
 20
518.730717
 42
-0.193109
  0
VERTEX
  8
0
 10
99.197918
 20
519.389638
 42
-0.049876
  0
VERTEX
  8
0
 10
99.159633
 20
521.018759
 42
-0.009947
  0
VERTEX
  8
0
 10
99.439122
 20
523.919141
 42
-0.010431
  0
VERTEX
  8
0
 10
99.904043
 20
527.295968
 42
-0.009552
  0
VERTEX
  8
0
 10
100.521359
 20
530.751434
 42
0.013241
  0
VERTEX
  8
0
 10
101.214379
 20
534.803051
 42
0.017685
  0
VERTEX
  8
0
 10
101.614924
 20
538.512523
 42
0.019605
  0
VERTEX
  8
0
 10
101.725775
 20
541.871430
 42
0.027614
  0
VERTEX
  8
0
 10
101.541845
 20
544.861796
 42
0.007982
  0
VERTEX
  8
0
 10
100.834248
 20
550.166496
 42
0.066357
  0
VERTEX
  8
0
 10
100.162654
 20
552.492473
 42
0.167394
  0
VERTEX
  8
0
 10
99.147349
 20
553.592597
 42
0.124070
  0
VERTEX
  8
0
 10
97.530799
 20
554.000000
 42
0.099229
  0
VERTEX
  8
0
 10
96.230507
 20
553.739381
 42
0.183652
  0
VERTEX
  8
0
 10
95.459737
 20
553.008449
 42
0.076873
  0
VERTEX
  8
0
 10
94.985335
 20
551.448464
 42
0.008573
  0
VERTEX
  8
0
 10
94.521994
 20
547.750000
 42
-0.008339
  0
VERTEX
  8
0
 10
94.191332
 20
545.100547
 42
-0.007030
  0
VERTEX
  8
0
 10
93.755249
 20
542.307812
 42
-0.007103
  0
VERTEX
  8
0
 10
93.285249
 20
539.770547
 42
-0.019496
  0
VERTEX
  8
0
 10
92.858801
 20
538.000000
 42
0.009164
  0
VERTEX
  8
0
 10
91.680785
 20
533.517919
 42
0.002170
  0
VERTEX
  8
0
 10
89.885661
 20
525.998604
 42
0.002305
  0
VERTEX
  8
0
 10
88.129671
 20
518.340410
 42
0.006610
  0
VERTEX
  8
0
 10
87.004970
 20
513.000000
 42
0.016323
  0
VERTEX
  8
0
 10
86.659658
 20
510.883219
 42
0.008329
  0
VERTEX
  8
0
 10
86.357479
 20
508.206250
 42
0.008267
  0
VERTEX
  8
0
 10
86.137403
 20
505.433847
 42
0.012278
  0
VERTEX
  8
0
 10
86.044561
 20
503.000000
 42
-0.018857
  0
VERTEX
  8
0
 10
85.873894
 20
499.674971
 42
-0.084819
  0
VERTEX
  8
0
 10
85.378513
 20
497.799391
 42
-0.086833
  0
VERTEX
  8
0
 10
84.293880
 20
496.216329
 42
-0.020294
  0
VERTEX
  8
0
 10
81.944632
 20
494.000000
 42
0.000829
  0
VERTEX
  8
0
 10
80.247782
 20
492.519628
 42
0.000725
  0
VERTEX
  8
0
 10
78.477860
 20
490.965793
 42
0.000728
  0
VERTEX
  8
0
 10
76.882429
 20
489.556913
 42
0.002170
  0
VERTEX
  8
0
 10
75.795359
 20
488.585677
 42
-0.086321
  0
VERTEX
  8
0
 10
72.729546
 20
486.657984
 42
-0.086071
  0
VERTEX
  8
0
 10
69.189761
 20
485.876183
 42
-0.075557
  0
VERTEX
  8
0
 10
65.210863
 20
486.296214
 42
-0.048832
  0
VERTEX
  8
0
 10
60.857037
 20
487.903222
 42
-0.050400
  0
VERTEX
  8
0
 10
54.800881
 20
491.632070
 42
-0.047712
  0
VERTEX
  8
0
 10
49.490283
 20
496.559204
 42
-0.041360
  0
VERTEX
  8
0
 10
44.610980
 20
503.047213
 42
-0.024309
  0
VERTEX
  8
0
 10
39.838483
 20
511.509056
 42
0.005577
  0
VERTEX
  8
0
 10
34.601235
 20
521.666000
 42
0.016008
  0
VERTEX
  8
0
 10
30.663923
 20
528.554750
 42
0.022580
  0
VERTEX
  8
0
 10
27.228901
 20
533.614607
 42
0.032120
  0
VERTEX
  8
0
 10
23.704651
 20
537.750000
 42
0.028438
  0
VERTEX
  8
0
 10
20.418312
 20
540.774547
 42
0.122630
  0
VERTEX
  8
0
 10
18.037404
 20
541.904279
 42
0.305759
  0
VERTEX
  8
0
 10
16.600674
 20
541.306185
 42
0.146756
  0
VERTEX
  8
0
 10
16.000000
 20
539.303751
 42
0.105019
  0
VERTEX
  8
0
 10
16.490232
 20
536.995473
 42
0.022284
  0
VERTEX
  8
0
 10
18.336996
 20
533.296905
 42
0.023225
  0
VERTEX
  8
0
 10
20.530432
 20
529.752050
 42
0.085720
  0
VERTEX
  8
0
 10
22.359751
 20
527.871415
 42
-0.139710
  0
VERTEX
  8
0
 10
23.228665
 20
526.763241
 42
-0.006690
  0
VERTEX
  8
0
 10
24.965689
 20
522.336936
 42
-0.011014
  0
VERTEX
  8
0
 10
26.793613
 20
517.145687
 42
-0.009415
  0
VERTEX
  8
0
 10
28.494757
 20
511.601281
 42
0.012924
  0
VERTEX
  8
0
 10
29.108877
 20
509.648697
 42
0.015153
  0
VERTEX
  8
0
 10
29.794214
 20
507.832747
 42
0.014153
  0
VERTEX
  8
0
 10
30.458766
 20
506.342548
 42
0.084605
  0
VERTEX
  8
0
 10
30.948719
 20
505.651281
 42
-0.057746
  0
VERTEX
  8
0
 10
31.351272
 20
505.143207
 42
-0.038929
  0
VERTEX
  8
0
 10
31.691186
 20
504.485245
 42
-0.039082
  0
VERTEX
  8
0
 10
31.923268
 20
503.787048
 42
-0.060772
  0
VERTEX
  8
0
 10
32.000000
 20
503.158063
 42
0.132071
  0
VERTEX
  8
0
 10
32.512828
 20
501.250444
 42
0.005713
  0
VERTEX
  8
0
 10
36.085717
 20
495.244712
 42
0.005063
  0
VERTEX
  8
0
 10
39.822709
 20
489.260521
 42
0.158272
  0
VERTEX
  8
0
 10
41.152093
 20
488.166667
 42
-0.095708
  0
VERTEX
  8
0
 10
41.476299
 20
487.960959
 42
-0.066232
  0
VERTEX
  8
0
 10
41.750927
 20
487.622937
 42
-0.063807
  0
VERTEX
  8
0
 10
41.936652
 20
487.209911
 42
-0.073919
  0
VERTEX
  8
0
 10
42.000000
 20
486.783756
 42
0.185022
  0
VERTEX
  8
0
 10
42.250383
 20
486.130291
 42
0.005230
  0
VERTEX
  8
0
 10
44.317137
 20
483.877131
 42
0.009999
  0
VERTEX
  8
0
 10
46.865252
 20
481.263631
 42
0.006629
  0
VERTEX
  8
0
 10
49.888125
 20
478.362735
 42
-0.012063
  0
VERTEX
  8
0
 10
53.031685
 20
475.279704
 42
-0.012859
  0
VERTEX
  8
0
 10
55.954785
 20
472.112101
 42
-0.012515
  0
VERTEX
  8
0
 10
58.324964
 20
469.266683
 42
-0.056669
  0
VERTEX
  8
0
 10
59.463643
 20
467.435373
 42
-0.016359
  0
VERTEX
  8
0
 10
60.406406
 20
465.268337
 42
-0.092818
  0
VERTEX
  8
0
 10
60.646143
 20
464.038565
 42
-0.115681
  0
VERTEX
  8
0
 10
60.395889
 20
462.934576
 42
-0.031707
  0
VERTEX
  8
0
 10
59.508654
 20
461.372864
 42
-0.038591
  0
VERTEX
  8
0
 10
56.929306
 20
458.030013
 42
-0.023962
  0
VERTEX
  8
0
 10
53.434400
 20
454.512971
 42
-0.022123
  0
VERTEX
  8
0
 10
49.910108
 20
451.566115
 42
-0.101915
  0
VERTEX
  8
0
 10
47.525436
 20
450.417028
 42
0.048843
  0
VERTEX
  8
0
 10
46.559326
 20
450.071457
 42
0.058780
  0
VERTEX
  8
0
 10
45.741847
 20
449.560596
 42
0.069198
  0
VERTEX
  8
0
 10
45.185065
 20
448.970848
 42
0.155863
  0
VERTEX
  8
0
 10
45.000000
 20
448.391592
 42
-0.106970
  0
VERTEX
  8
0
 10
44.885096
 20
447.860654
 42
-0.099479
  0
VERTEX
  8
0
 10
44.559375
 20
447.408780
 42
-0.095894
  0
VERTEX
  8
0
 10
44.072633
 20
447.105835
 42
-0.091635
  0
VERTEX
  8
0
 10
43.500000
 20
447.000000
 42
0.064853
  0
VERTEX
  8
0
 10
42.926543
 20
446.925306
 42
0.082425
  0
VERTEX
  8
0
 10
42.440625
 20
446.706250
 42
0.098894
  0
VERTEX
  8
0
 10
42.115568
 20
446.381354
 42
0.148195
  0
VERTEX
  8
0
 10
42.000000
 20
446.000000
 42
-0.254951
  0
VERTEX
  8
0
 10
41.790443
 20
445.615738
 42
-0.062710
  0
VERTEX
  8
0
 10
41.118750
 20
445.293750
 42
-0.048861
  0
VERTEX
  8
0
 10
40.149251
 20
445.072766
 42
-0.031626
  0
VERTEX
  8
0
 10
39.000000
 20
445.000000
 42
0.026700
  0
VERTEX
  8
0
 10
37.850458
 20
444.938571
 42
0.042123
  0
VERTEX
  8
0
 10
36.881250
 20
444.751197
 42
0.051529
  0
VERTEX
  8
0
 10
36.198041
 20
444.479790
 42
0.279369
  0
VERTEX
  8
0
 10
36.000000
 20
444.153010
 42
-0.163794
  0
VERTEX
  8
0
 10
35.542002
 20
442.792423
 42
-0.039109
  0
VERTEX
  8
0
 10
33.932397
 20
440.985055
 42
-0.039402
  0
VERTEX
  8
0
 10
32.052053
 20
439.444899
 42
-0.153055
  0
VERTEX
  8
0
 10
30.632705
 20
439.000000
 42
0.090710
  0
VERTEX
  8
0
 10
30.009386
 20
438.885979
 42
0.095592
  0
VERTEX
  8
0
 10
29.479607
 20
438.559375
 42
0.099638
  0
VERTEX
  8
0
 10
29.125120
 20
438.072281
 42
0.108041
  0
VERTEX
  8
0
 10
29.000000
 20
437.500000
 42
-0.058731
  0
VERTEX
  8
0
 10
28.932382
 20
436.926325
 42
-0.077776
  0
VERTEX
  8
0
 10
28.732792
 20
436.440625
 42
-0.096361
  0
VERTEX
  8
0
 10
28.437329
 20
436.115254
 42
-0.161740
  0
VERTEX
  8
0
 10
28.090356
 20
436.000000
 42
0.403578
  0
VERTEX
  8
0
 10
27.254338
 20
435.193912
 42
0.020948
  0
VERTEX
  8
0
 10
27.276644
 20
431.094151
 42
0.027099
  0
VERTEX
  8
0
 10
27.705601
 20
426.883182
 42
0.105395
  0
VERTEX
  8
0
 10
28.637445
 20
424.449800
 42
-0.039945
  0
VERTEX
  8
0
 10
29.274861
 20
423.271508
 42
-0.117270
  0
VERTEX
  8
0
 10
29.441223
 20
422.370374
 42
-0.108730
  0
VERTEX
  8
0
 10
29.189066
 20
421.450410
 42
-0.031731
  0
VERTEX
  8
0
 10
28.420356
 20
420.189755
 42
-0.077070
  0
VERTEX
  8
0
 10
26.555248
 20
418.246377
 42
-0.010102
  0
VERTEX
  8
0
 10
21.920996
 20
414.853924
 42
-0.007910
  0
VERTEX
  8
0
 10
17.095864
 20
411.581957
 42
-0.124384
  0
VERTEX
  8
0
 10
15.230583
 20
410.937700
 42
0.114741
  0
VERTEX
  8
0
 10
14.736842
 20
410.777606
 42
0.002737
  0
VERTEX
  8
0
 10
12.658359
 20
409.510388
 42
0.005867
  0
VERTEX
  8
0
 10
10.235357
 20
407.975316
 42
0.003935
  0
VERTEX
  8
0
 10
7.500000
 20
406.166250
 42
0.008749
  0
VERTEX
  8
0
 10
3.346222
 20
403.265012
 42
0.060263
  0
VERTEX
  8
0
 10
1.524241
 20
401.575916
 42
0.104253
  0
VERTEX
  8
0
 10
0.622235
 20
399.905370
 42
0.051424
  0
VERTEX
  8
0
 10
0.177354
 20
397.522554
 42
0.037567
  0
VERTEX
  8
0
 10
0.147037
 20
393.011971
 42
0.071346
  0
VERTEX
  8
0
 10
0.905338
 20
389.468666
 42
0.067959
  0
VERTEX
  8
0
 10
2.660174
 20
386.170677
 42
0.031272
  0
VERTEX
  8
0
 10
5.753081
 20
382.401975
 42
0.028982
  0
VERTEX
  8
0
 10
10.221216
 20
378.128792
 42
0.092100
  0
VERTEX
  8
0
 10
13.790553
 20
376.078148
 42
0.101665
  0
VERTEX
  8
0
 10
17.653793
 20
375.552804
 42
0.039912
  0
VERTEX
  8
0
 10
22.996298
 20
376.345267
 42
-0.011712
  0
VERTEX
  8
0
 10
26.632652
 20
377.096097
 42
-0.045155
  0
VERTEX
  8
0
 10
28.927400
 20
377.303059
 42
-0.057618
  0
VERTEX
  8
0
 10
30.929892
 20
377.070917
 42
-0.028018
  0
VERTEX
  8
0
 10
33.403316
 20
376.342119
 42
0.023273
  0
VERTEX
  8
0
 10
35.331048
 20
375.754184
 42
0.012355
  0
VERTEX
  8
0
 10
37.765349
 20
375.197596
 42
0.012271
  0
VERTEX
  8
0
 10
40.287120
 20
374.750345
 42
0.018602
  0
VERTEX
  8
0
 10
42.500000
 20
374.497452
 42
-0.019115
  0
VERTEX
  8
0
 10
48.024266
 20
373.860393
 42
-0.071573
  0
VERTEX
  8
0
 10
51.357263
 20
372.844186
 42
-0.103177
  0
VERTEX
  8
0
 10
53.607534
 20
371.153085
 42
-0.067257
  0
VERTEX
  8
0
 10
55.411915
 20
368.437045
 42
-0.042722
  0
VERTEX
  8
0
 10
56.886268
 20
364.598155
 42
-0.014523
  0
VERTEX
  8
0
 10
58.379143
 20
358.806063
 42
-0.014098
  0
VERTEX
  8
0
 10
59.689139
 20
352.174051
 42
-0.014235
  0
VERTEX
  8
0
 10
60.618455
 20
345.500000
 42
0.017891
  0
VERTEX
  8
0
 10
60.933149
 20
343.354901
 42
0.013826
  0
VERTEX
  8
0
 10
61.423700
 20
341.043106
 42
0.014040
  0
VERTEX
  8
0
 10
62.002802
 20
338.907694
 42
0.032298
  0
VERTEX
  8
0
 10
62.585053
 20
337.348871
 42
-0.016260
  0
VERTEX
  8
0
 10
63.126670
 20
336.029476
 42
-0.016016
  0
VERTEX
  8
0
 10
63.584359
 20
334.671054
 42
-0.016108
  0
VERTEX
  8
0
 10
63.908296
 20
333.456961
 42
-0.057194
  0
VERTEX
  8
0
 10
64.000000
 20
332.657888
 42
0.058224
  0
VERTEX
  8
0
 10
64.074180
 20
332.023029
 42
0.050373
  0
VERTEX
  8
0
 10
64.293750
 20
331.388819
 42
0.052970
  0
VERTEX
  8
0
 10
64.617047
 20
330.849226
 42
0.093165
  0
VERTEX
  8
0
 10
65.000000
 20
330.500000
 42
-0.100030
  0
VERTEX
  8
0
 10
65.383614
 20
330.140492
 42
-0.051918
  0
VERTEX
  8
0
 10
65.708060
 20
329.566787
 42
-0.048678
  0
VERTEX
  8
0
 10
65.929649
 20
328.883652
 42
-0.053235
  0
VERTEX
  8
0
 10
66.006161
 20
328.190983
 42
0.056037
  0
VERTEX
  8
0
 10
66.102717
 20
327.359444
 42
0.020558
  0
VERTEX
  8
0
 10
66.417174
 20
326.217310
 42
0.020077
  0
VERTEX
  8
0
 10
66.866316
 20
324.986605
 42
0.022709
  0
VERTEX
  8
0
 10
67.396705
 20
323.846670
 42
-0.016672
  0
VERTEX
  8
0
 10
68.015220
 20
322.558222
 42
-0.007673
  0
VERTEX
  8
0
 10
68.738212
 20
320.842796
 42
-0.007590
  0
VERTEX
  8
0
 10
69.444282
 20
319.013429
 42
-0.010426
  0
VERTEX
  8
0
 10
70.019510
 20
317.346670
 42
0.008824
  0
VERTEX
  8
0
 10
70.585000
 20
315.690943
 42
0.006699
  0
VERTEX
  8
0
 10
71.261102
 20
313.895584
 42
0.006778
  0
VERTEX
  8
0
 10
71.940997
 20
312.227872
 42
0.015684
  0
VERTEX
  8
0
 10
72.507145
 20
311.000000
 42
-0.002123
  0
VERTEX
  8
0
 10
73.076359
 20
309.848653
 42
-0.001188
  0
VERTEX
  8
0
 10
73.759518
 20
308.443485
 42
-0.001185
  0
VERTEX
  8
0
 10
74.443316
 20
307.019863
 42
-0.001928
  0
VERTEX
  8
0
 10
75.016328
 20
305.807607
 42
0.038545
  0
VERTEX
  8
0
 10
75.759695
 20
304.493341
 42
0.012842
  0
VERTEX
  8
0
 10
77.040601
 20
302.689551
 42
0.012696
  0
VERTEX
  8
0
 10
78.567250
 20
300.756862
 42
0.014133
  0
VERTEX
  8
0
 10
80.138149
 20
298.973755
 42
-0.004794
  0
VERTEX
  8
0
 10
81.618234
 20
297.355674
 42
-0.007360
  0
VERTEX
  8
0
 10
82.865581
 20
295.923640
 42
-0.003102
  0
VERTEX
  8
0
 10
83.899944
 20
294.684715
 42
-0.174090
  0
VERTEX
  8
0
 10
84.000000
 20
294.406055
 42
0.191923
  0
VERTEX
  8
0
 10
84.334898
 20
293.565714
 42
0.002544
  0
VERTEX
  8
0
 10
88.288912
 20
289.435091
 42
0.002466
  0
VERTEX
  8
0
 10
92.291859
 20
285.336352
 42
0.200704
  0
VERTEX
  8
0
 10
93.096035
 20
285.000000
 42
-0.200559
  0
VERTEX
  8
0
 10
94.546901
 20
284.393640
 42
-0.001930
  0
VERTEX
  8
0
 10
102.703471
 20
276.069038
 42
-0.004141
  0
VERTEX
  8
0
 10
110.327759
 20
268.096315
 42
-0.071709
  0
VERTEX
  8
0
 10
112.389608
 20
265.156332
 42
-0.061852
  0
VERTEX
  8
0
 10
112.945304
 20
263.609489
 42
-0.012987
  0
VERTEX
  8
0
 10
113.504563
 20
260.783423
 42
-0.013428
  0
VERTEX
  8
0
 10
113.983111
 20
257.448976
 42
-0.012357
  0
VERTEX
  8
0
 10
114.297750
 20
254.000000
 42
0.042676
  0
VERTEX
  8
0
 10
115.479674
 20
246.261539
 42
0.054134
  0
VERTEX
  8
0
 10
117.923637
 20
239.461455
 42
0.048693
  0
VERTEX
  8
0
 10
122.002676
 20
232.815789
 42
0.026598
  0
VERTEX
  8
0
 10
128.177065
 20
225.500000
 42
-0.007985
  0
VERTEX
  8
0
 10
131.650234
 20
221.682503
 42
-0.026933
  0
VERTEX
  8
0
 10
133.740434
 20
219.035421
 42
-0.041278
  0
VERTEX
  8
0
 10
134.994477
 20
216.904987
 42
-0.063112
  0
VERTEX
  8
0
 10
135.675028
 20
214.874858
 42
0.124321
  0
VERTEX
  8
0
 10
137.208859
 20
211.656706
 42
0.029317
  0
VERTEX
  8
0
 10
141.304329
 20
207.267202
 42
0.030664
  0
VERTEX
  8
0
 10
145.990916
 20
203.318860
 42
0.088722
  0
VERTEX
  8
0
 10
149.774827
 20
201.435534
 42
-0.025476
  0
VERTEX
  8
0
 10
151.187281
 20
200.942591
 42
-0.039008
  0
VERTEX
  8
0
 10
152.345938
 20
200.361741
 42
-0.045211
  0
VERTEX
  8
0
 10
153.137660
 20
199.780795
 42
-0.266542
  0
VERTEX
  8
0
 10
153.296450
 20
199.311746
 42
0.027686
  0
VERTEX
  8
0
 10
153.193848
 20
198.579367
 42
0.001047
  0
VERTEX
  8
0
 10
152.968129
 20
195.824036
 42
0.001883
  0
VERTEX
  8
0
 10
152.720107
 20
192.561655
 42
0.001324
  0
VERTEX
  8
0
 10
152.464599
 20
188.889350
 42
-0.023131
  0
VERTEX
  8
0
 10
151.525253
 20
180.617165
 42
-0.026658
  0
VERTEX
  8
0
 10
149.849760
 20
172.856294
 42
-0.022487
  0
VERTEX
  8
0
 10
147.105199
 20
164.314630
 42
-0.010491
  0
VERTEX
  8
0
 10
142.825244
 20
153.500000
 42
0.019186
  0
VERTEX
  8
0
 10
138.909350
 20
143.079387
 42
0.042298
  0
VERTEX
  8
0
 10
136.918088
 20
134.818881
 42
0.050167
  0
VERTEX
  8
0
 10
136.527487
 20
127.277847
 42
0.040228
  0
VERTEX
  8
0
 10
137.573024
 20
119.212377
 42
-0.051141
  0
VERTEX
  8
0
 10
139.371664
 20
102.487695
 42
-0.030596
  0
VERTEX
  8
0
 10
138.246759
 20
82.505162
 42
-0.030332
  0
VERTEX
  8
0
 10
134.639867
 20
62.462429
 42
-0.044392
  0
VERTEX
  8
0
 10
128.878551
 20
45.500000
 42
-0.040291
  0
VERTEX
  8
0
 10
128.118450
 20
44.097632
 42
-0.016548
  0
VERTEX
  8
0
 10
126.877576
 20
42.323429
 42
-0.016247
  0
VERTEX
  8
0
 10
125.413340
 20
40.497495
 42
-0.020047
  0
VERTEX
  8
0
 10
123.928619
 20
38.898906
 42
0.029917
  0
VERTEX
  8
0
 10
119.682750
 20
34.142589
 42
0.031421
  0
VERTEX
  8
0
 10
116.109691
 20
28.987819
 42
0.030839
  0
VERTEX
  8
0
 10
113.659037
 20
24.299316
 42
0.168026
  0
VERTEX
  8
0
 10
113.413709
 20
21.487788
 42
0.168177
  0
VERTEX
  8
0
 10
114.478492
 20
19.859533
 42
0.139011
  0
VERTEX
  8
0
 10
116.412387
 20
19.082246
 42
0.055599
  0
VERTEX
  8
0
 10
119.941235
 20
19.100479
 42
0.008270
  0
VERTEX
  8
0
 10
127.000000
 20
20.043366
 42
0.001763
  0
VERTEX
  8
0
 10
137.802973
 20
21.707651
 42
0.041266
  0
VERTEX
  8
0
 10
140.811555
 20
22.440292
 42
0.169168
  0
VERTEX
  8
0
 10
142.161107
 20
23.480174
 42
0.116764
  0
VERTEX
  8
0
 10
142.822258
 20
25.310472
 42
0.044736
  0
VERTEX
  8
0
 10
142.851686
 20
26.499124
 42
0.037714
  0
VERTEX
  8
0
 10
142.675918
 20
27.745930
 42
0.039332
  0
VERTEX
  8
0
 10
142.336846
 20
28.865545
 42
0.080180
  0
VERTEX
  8
0
 10
141.871548
 20
29.654775
 42
-0.068742
  0
VERTEX
  8
0
 10
141.324359
 20
30.536433
 42
-0.189749
  0
VERTEX
  8
0
 10
141.293386
 20
31.253844
 42
-0.123686
  0
VERTEX
  8
0
 10
141.781558
 20
32.002189
 42
-0.022854
  0
VERTEX
  8
0
 10
143.049291
 20
33.072067
 42
-0.042575
  0
VERTEX
  8
0
 10
144.176603
 20
33.794896
 42
-0.030765
  0
VERTEX
  8
0
 10
145.538279
 20
34.408793
 42
-0.031297
  0
VERTEX
  8
0
 10
146.915254
 20
34.833939
 42
-0.057132
  0
VERTEX
  8
0
 10
148.081020
 20
34.977764
 42
0.209119
  0
VERTEX
  8
0
 10
150.856579
 20
36.220285
 42
0.135171
  0
VERTEX
  8
0
 10
152.472068
 20
39.409459
 42
0.046018
  0
VERTEX
  8
0
 10
153.187438
 20
45.995602
 42
0.005644
  0
VERTEX
  8
0
 10
153.258997
 20
60.500000
 42
-0.020962
  0
VERTEX
  8
0
 10
153.853915
 20
77.221506
 42
-0.013931
  0
VERTEX
  8
0
 10
155.871891
 20
96.306997
 42
-0.008752
  0
VERTEX
  8
0
 10
158.563810
 20
114.033597
 42
-0.140142
  0
VERTEX
  8
0
 10
161.158088
 20
119.450000
 42
0.083923
  0
VERTEX
  8
0
 10
161.481814
 20
119.969003
 42
0.032680
  0
VERTEX
  8
0
 10
161.752688
 20
120.773158
 42
0.031217
  0
VERTEX
  8
0
 10
161.937941
 20
121.700577
 42
0.033699
  0
VERTEX
  8
0
 10
162.000000
 20
122.620326
 42
-0.095830
  0
VERTEX
  8
0
 10
162.284155
 20
124.089315
 42
-0.004576
  0
VERTEX
  8
0
 10
164.203125
 20
128.740456
 42
-0.007357
  0
VERTEX
  8
0
 10
166.626767
 20
134.238838
 42
-0.005218
  0
VERTEX
  8
0
 10
169.500000
 20
140.336906
 42
0.002560
  0
VERTEX
  8
0
 10
172.374442
 20
146.354351
 42
0.003925
  0
VERTEX
  8
0
 10
174.796875
 20
151.599390
 42
0.001395
  0
VERTEX
  8
0
 10
176.834031
 20
156.136442
 42
0.105194
  0
VERTEX
  8
0
 10
177.000000
 20
156.916580
 42
-0.646700
  0
VERTEX
  8
0
 10
177.829460
 20
157.289677
 42
-0.085874
  0
VERTEX
  8
0
 10
179.488674
 20
155.212754
 42
-0.031983
  0
VERTEX
  8
0
 10
181.748925
 20
150.396518
 42
-0.026168
  0
VERTEX
  8
0
 10
183.552363
 20
145.000000
 42
0.015438
  0
VERTEX
  8
0
 10
183.872329
 20
143.969532
 42
0.014578
  0
VERTEX
  8
0
 10
184.260897
 20
142.940625
 42
0.014711
  0
VERTEX
  8
0
 10
184.658152
 20
142.050261
 42
0.048207
  0
VERTEX
  8
0
 10
184.992066
 20
141.500000
 42
-0.081201
  0
VERTEX
  8
0
 10
186.185764
 20
139.205531
 42
-0.025680
  0
VERTEX
  8
0
 10
187.205255
 20
135.468412
 42
-0.023484
  0
VERTEX
  8
0
 10
187.981677
 20
130.890789
 42
-0.017939
  0
VERTEX
  8
0
 10
188.413946
 20
125.828240
 42
0.011482
  0
VERTEX
  8
0
 10
188.632240
 20
122.812876
 42
0.013406
  0
VERTEX
  8
0
 10
188.981745
 20
119.963293
 42
0.012415
  0
VERTEX
  8
0
 10
189.399571
 20
117.581830
 42
0.075422
  0
VERTEX
  8
0
 10
189.826476
 20
116.408936
 42
-0.015819
  0
VERTEX
  8
0
 10
193.846017
 20
108.456466
 42
-0.009380
  0
VERTEX
  8
0
 10
198.155328
 20
98.744180
 42
-0.009057
  0
VERTEX
  8
0
 10
201.899110
 20
89.390707
 42
-0.029183
  0
VERTEX
  8
0
 10
203.905885
 20
83.000000
 42
-0.013893
  0
VERTEX
  8
0
 10
205.679665
 20
74.997681
 42
-0.010313
  0
VERTEX
  8
0
 10
207.209277
 20
66.071993
 42
-0.009632
  0
VERTEX
  8
0
 10
208.277999
 20
57.886973
 42
-0.041179
  0
VERTEX
  8
0
 10
208.417044
 20
52.968269
 42
-0.048108
  0
VERTEX
  8
0
 10
207.400750
 20
46.252611
 42
-0.022282
  0
VERTEX
  8
0
 10
204.866928
 20
37.789125
 42
-0.022094
  0
VERTEX
  8
0
 10
201.641963
 20
29.706114
 42
-0.057011
  0
VERTEX
  8
0
 10
198.428850
 20
24.317830
 42
0.021497
  0
VERTEX
  8
0
 10
197.499163
 20
22.983721
 42
0.023266
  0
VERTEX
  8
0
 10
196.713475
 20
21.608633
 42
0.023592
  0
VERTEX
  8
0
 10
196.154823
 20
20.375606
 42
0.094841
  0
VERTEX
  8
0
 10
196.000000
 20
19.566722
 42
-0.053184
  0
VERTEX
  8
0
 10
195.936062
 20
18.967319
 42
-0.072988
  0
VERTEX
  8
0
 10
195.746200
 20
18.460225
 42
-0.092812
  0
VERTEX
  8
0
 10
195.465710
 20
18.119726
 42
-0.175942
  0
VERTEX
  8
0
 10
195.136001
 20
18.000000
 42
0.194579
  0
VERTEX
  8
0
 10
194.664123
 20
17.809139
 42
0.015864
  0
VERTEX
  8
0
 10
193.717476
 20
16.833586
 42
0.019466
  0
VERTEX
  8
0
 10
192.637276
 20
15.550369
 42
0.013693
  0
VERTEX
  8
0
 10
191.520257
 20
14.029230
 42
0.058115
  0
VERTEX
  8
0
 10
189.740676
 20
10.692159
 42
0.120579
  0
VERTEX
  8
0
 10
189.349354
 20
7.785224
 42
0.156066
  0
VERTEX
  8
0
 10
190.353591
 20
5.510990
 42
0.121091
  0
VERTEX
  8
0
 10
192.593029
 20
3.964630
 42
0.083213
  0
VERTEX
  8
0
 10
197.880366
 20
2.907809
 42
0.036868
  0
VERTEX
  8
0
 10
205.013409
 20
3.210919
 42
0.032002
  0
VERTEX
  8
0
 10
211.468795
 20
4.386632
 42
0.344386
  0
VERTEX
  8
0
 10
213.000000
 20
6.346064
 42
-0.120227
  0
VERTEX
  8
0
 10
213.131006
 20
6.883015
 42
-0.024138
  0
VERTEX
  8
0
 10
213.629699
 20
7.740278
 42
-0.024222
  0
VERTEX
  8
0
 10
214.323022
 20
8.704133
 42
-0.020547
  0
VERTEX
  8
0
 10
215.143657
 20
9.652916
 42
0.062052
  0
VERTEX
  8
0
 10
216.105831
 20
10.971890
 42
0.041750
  0
VERTEX
  8
0
 10
216.871877
 20
12.674253
 42
0.036215
  0
VERTEX
  8
0
 10
217.435908
 20
14.736329
 42
0.024706
  0
VERTEX
  8
0
 10
217.787650
 20
17.141828
 42
-0.023909
  0
VERTEX
  8
0
 10
218.178739
 20
19.846502
 42
-0.052054
  0
VERTEX
  8
0
 10
218.788520
 20
21.850188
 42
-0.059124
  0
VERTEX
  8
0
 10
219.740506
 20
23.522357
 42
-0.040297
  0
VERTEX
  8
0
 10
221.178471
 20
25.174461
 42
-0.014654
  0
VERTEX
  8
0
 10
222.352333
 20
26.256528
 42
-0.019215
  0
VERTEX
  8
0
 10
223.488902
 20
27.169998
 42
-0.017016
  0
VERTEX
  8
0
 10
224.473188
 20
27.849971
 42
-0.143604
  0
VERTEX
  8
0
 10
224.984788
 20
28.000000
 42
0.120742
  0
VERTEX
  8
0
 10
225.393186
 20
28.100081
 42
0.051333
  0
VERTEX
  8
0
 10
225.866503
 20
28.412365
 42
0.046738
  0
VERTEX
  8
0
 10
226.326558
 20
28.866753
 42
0.045124
  0
VERTEX
  8
0
 10
226.700310
 20
29.403795
 42
-0.096931
  0
VERTEX
  8
0
 10
227.185511
 20
29.967069
 42
-0.044738
  0
VERTEX
  8
0
 10
227.999466
 20
30.496922
 42
-0.042044
  0
VERTEX
  8
0
 10
228.984353
 20
30.917506
 42
-0.045519
  0
VERTEX
  8
0
 10
230.000000
 20
31.153795
 42
0.070352
  0
VERTEX
  8
0
 10
231.371861
 20
31.545427
 42
0.167255
  0
VERTEX
  8
0
 10
232.138029
 20
32.259176
 42
0.093277
  0
VERTEX
  8
0
 10
232.554963
 20
33.591214
 42
0.013531
  0
VERTEX
  8
0
 10
232.812326
 20
36.434499
 42
0.027246
  0
VERTEX
  8
0
 10
232.834028
 20
38.919804
 42
0.036181
  0
VERTEX
  8
0
 10
232.567812
 20
41.163902
 42
0.037254
  0
VERTEX
  8
0
 10
231.990110
 20
43.293632
 42
0.031785
  0
VERTEX
  8
0
 10
231.077629
 20
45.434499
 42
-0.033630
  0
VERTEX
  8
0
 10
228.979897
 20
50.406944
 42
-0.018983
  0
VERTEX
  8
0
 10
227.082369
 20
56.673604
 42
-0.013089
  0
VERTEX
  8
0
 10
225.075213
 20
65.250465
 42
-0.004345
  0
VERTEX
  8
0
 10
222.572389
 20
77.921241
 42
0.003804
  0
VERTEX
  8
0
 10
221.880408
 20
81.444499
 42
0.003469
  0
VERTEX
  8
0
 10
221.114074
 20
85.066879
 42
0.003470
  0
VERTEX
  8
0
 10
220.384328
 20
88.294424
 42
0.011246
  0
VERTEX
  8
0
 10
219.837198
 20
90.421241
 42
-0.040689
  0
VERTEX
  8
0
 10
219.414730
 20
92.583506
 42
-0.012041
  0
VERTEX
  8
0
 10
219.119670
 20
95.945615
 42
-0.011999
  0
VERTEX
  8
0
 10
218.969273
 20
99.755142
 42
-0.012658
  0
VERTEX
  8
0
 10
219.006171
 20
103.500000
 42
0.003804
  0
VERTEX
  8
0
 10
219.300688
 20
114.183799
 42
0.016768
  0
VERTEX
  8
0
 10
219.215137
 20
120.482977
 42
0.027078
  0
VERTEX
  8
0
 10
218.742799
 20
125.131850
 42
0.028163
  0
VERTEX
  8
0
 10
217.773705
 20
129.640753
 42
-0.019163
  0
VERTEX
  8
0
 10
214.830001
 20
142.230159
 42
-0.017065
  0
VERTEX
  8
0
 10
212.725351
 20
155.503795
 42
-0.016303
  0
VERTEX
  8
0
 10
211.455126
 20
169.497956
 42
-0.014074
  0
VERTEX
  8
0
 10
211.015828
 20
184.250000
 42
0.000000
  0
VERTEX
  8
0
 10
211.000000
 20
194.000000
 42
0.000000
  0
VERTEX
  8
0
 10
213.750000
 20
193.956449
 42
-0.020621
  0
VERTEX
  8
0
 10
215.084034
 20
193.880230
 42
-0.008702
  0
VERTEX
  8
0
 10
216.867188
 20
193.672973
 42
-0.008592
  0
VERTEX
  8
0
 10
218.767215
 20
193.385233
 42
-0.011093
  0
VERTEX
  8
0
 10
220.500000
 20
193.052583
 42
-0.002059
  0
VERTEX
  8
0
 10
231.346869
 20
190.672875
 42
-0.009077
  0
VERTEX
  8
0
 10
237.707984
 20
189.128063
 42
-0.008730
  0
VERTEX
  8
0
 10
241.878979
 20
187.956392
 42
-0.183497
  0
VERTEX
  8
0
 10
242.886478
 20
187.183682
 42
0.154626
  0
VERTEX
  8
0
 10
243.368319
 20
186.769192
 42
0.037411
  0
VERTEX
  8
0
 10
244.375627
 20
186.425524
 42
0.034861
  0
VERTEX
  8
0
 10
245.645768
 20
186.188738
 42
0.028557
  0
VERTEX
  8
0
 10
247.024781
 20
186.109334
 42
-0.022644
  0
VERTEX
  8
0
 10
252.318199
 20
185.867258
 42
-0.005365
  0
VERTEX
  8
0
 10
261.111607
 20
184.969789
 42
-0.005213
  0
VERTEX
  8
0
 10
269.860079
 20
183.889475
 42
-0.025175
  0
VERTEX
  8
0
 10
274.785297
 20
182.974758
 42
0.065450
  0
VERTEX
  8
0
 10
278.571932
 20
182.582373
 42
0.023736
  0
VERTEX
  8
0
 10
283.969771
 20
182.987550
 42
0.019570
  0
VERTEX
  8
0
 10
290.752895
 20
184.092801
 42
0.010605
  0
VERTEX
  8
0
 10
299.000000
 20
185.953183
 42
0.018999
  0
VERTEX
  8
0
 10
303.187590
 20
187.162186
 42
0.002210
  0
VERTEX
  8
0
 10
312.435841
 20
190.262732
 42
0.002107
  0
VERTEX
  8
0
 10
321.682004
 20
193.451651
 42
0.020867
  0
VERTEX
  8
0
 10
325.500000
 20
194.968021
 42
-0.015843
  0
VERTEX
  8
0
 10
326.536904
 20
195.391949
 42
-0.005210
  0
VERTEX
  8
0
 10
328.087500
 20
195.950943
 42
-0.005184
  0
VERTEX
  8
0
 10
329.821906
 20
196.535758
 42
-0.005847
  0
VERTEX
  8
0
 10
331.500000
 20
197.060651
 42
0.011188
  0
VERTEX
  8
0
 10
333.112261
 20
197.583920
 42
0.012295
  0
VERTEX
  8
0
 10
334.649016
 20
198.163754
 42
0.011769
  0
VERTEX
  8
0
 10
335.934911
 20
198.720995
 42
0.058933
  0
VERTEX
  8
0
 10
336.603033
 20
199.130795
 42
-0.122421
  0
VERTEX
  8
0
 10
337.424735
 20
199.501979
 42
-0.008029
  0
VERTEX
  8
0
 10
340.014979
 20
199.932229
 42
-0.011266
  0
VERTEX
  8
0
 10
343.155483
 20
200.330085
 42
-0.008155
  0
VERTEX
  8
0
 10
346.669229
 20
200.637168
 42
0.000000
  0
VERTEX
  8
0
 10
355.632393
 20
201.273392
 42
0.000000
  0
VERTEX
  8
0
 10
358.417651
 20
193.636696
 42
0.009720
  0
VERTEX
  8
0
 10
359.550135
 20
190.709664
 42
0.015213
  0
VERTEX
  8
0
 10
360.648687
 20
188.243279
 42
0.009314
  0
VERTEX
  8
0
 10
361.643299
 20
186.275907
 42
0.277859
  0
VERTEX
  8
0
 10
362.101455
 20
186.000000
 42
-0.192333
  0
VERTEX
  8
0
 10
362.444618
 20
185.862926
 42
-0.087792
  0
VERTEX
  8
0
 10
362.736052
 20
185.467890
 42
-0.067624
  0
VERTEX
  8
0
 10
362.933804
 20
184.881833
 42
-0.047633
  0
VERTEX
  8
0
 10
363.000000
 20
184.188561
 42
0.074169
  0
VERTEX
  8
0
 10
363.124232
 20
183.355675
 42
0.035125
  0
VERTEX
  8
0
 10
363.514063
 20
182.339637
 42
0.033834
  0
VERTEX
  8
0
 10
364.080223
 20
181.313604
 42
0.040606
  0
VERTEX
  8
0
 10
364.750000
 20
180.438074
 42
-0.021384
  0
VERTEX
  8
0
 10
367.242021
 20
177.427492
 42
-0.008074
  0
VERTEX
  8
0
 10
370.473355
 20
173.019091
 42
-0.007550
  0
VERTEX
  8
0
 10
374.038836
 20
167.821761
 42
-0.006482
  0
VERTEX
  8
0
 10
377.635529
 20
162.250000
 42
0.008400
  0
VERTEX
  8
0
 10
379.444232
 20
159.471526
 42
0.012825
  0
VERTEX
  8
0
 10
381.114339
 20
157.129687
 42
0.007358
  0
VERTEX
  8
0
 10
382.573413
 20
155.249179
 42
0.227879
  0
VERTEX
  8
0
 10
383.091757
 20
155.000000
 42
-0.114145
  0
VERTEX
  8
0
 10
383.438212
 20
154.919863
 42
-0.100336
  0
VERTEX
  8
0
 10
383.733203
 20
154.693453
 42
-0.093789
  0
VERTEX
  8
0
 10
383.931161
 20
154.354932
 42
-0.085738
  0
VERTEX
  8
0
 10
384.000000
 20
153.956437
 42
0.164134
  0
VERTEX
  8
0
 10
384.343340
 20
152.938697
 42
0.011322
  0
VERTEX
  8
0
 10
386.261497
 20
150.534278
 42
0.010694
  0
VERTEX
  8
0
 10
389.289223
 20
147.064057
 42
0.002715
  0
VERTEX
  8
0
 10
394.353230
 20
141.564860
 42
-0.023398
  0
VERTEX
  8
0
 10
395.591732
 20
140.102980
 42
-0.013222
  0
VERTEX
  8
0
 10
396.959725
 20
138.225303
 42
-0.013177
  0
VERTEX
  8
0
 10
398.242028
 20
136.254529
 42
-0.021049
  0
VERTEX
  8
0
 10
399.219741
 20
134.500000
 42
0.008074
  0
VERTEX
  8
0
 10
400.079388
 20
132.858596
 42
0.007909
  0
VERTEX
  8
0
 10
400.997343
 20
131.234375
 42
0.007826
  0
VERTEX
  8
0
 10
401.847279
 20
129.835200
 42
0.029420
  0
VERTEX
  8
0
 10
402.443989
 20
129.000000
 42
-0.056576
  0
VERTEX
  8
0
 10
402.993954
 20
128.134665
 42
-0.014568
  0
VERTEX
  8
0
 10
403.676026
 20
126.623524
 42
-0.014639
  0
VERTEX
  8
0
 10
404.357647
 20
124.842824
 42
-0.014417
  0
VERTEX
  8
0
 10
404.937652
 20
123.016252
 42
-0.060380
  0
VERTEX
  8
0
 10
405.944178
 20
116.699765
 42
-0.011938
  0
VERTEX
  8
0
 10
406.099563
 20
105.217071
 42
-0.011648
  0
VERTEX
  8
0
 10
405.713771
 20
93.752426
 42
-0.065339
  0
VERTEX
  8
0
 10
404.572714
 20
87.735812
 42
0.012227
  0
VERTEX
  8
0
 10
403.989535
 20
85.805965
 42
0.007403
  0
VERTEX
  8
0
 10
403.389302
 20
83.495832
 42
0.007415
  0
VERTEX
  8
0
 10
402.861093
 20
81.183416
 42
0.012927
  0
VERTEX
  8
0
 10
402.501498
 20
79.250000
 42
-0.018681
  0
VERTEX
  8
0
 10
402.179157
 20
77.621338
 42
-0.028942
  0
VERTEX
  8
0
 10
401.768540
 20
76.248437
 42
-0.028333
  0
VERTEX
  8
0
 10
401.332850
 20
75.232514
 42
-0.284582
  0
VERTEX
  8
0
 10
400.957415
 20
75.000000
 42
0.259564
  0
VERTEX
  8
0
 10
400.581562
 20
74.790789
 42
0.036124
  0
VERTEX
  8
0
 10
400.152368
 20
73.971875
 42
0.033804
  0
VERTEX
  8
0
 10
399.748566
 20
72.840942
 42
0.022483
  0
VERTEX
  8
0
 10
399.434022
 20
71.500000
 42
-0.019618
  0
VERTEX
  8
0
 10
399.127527
 20
70.158866
 42
-0.029991
  0
VERTEX
  8
0
 10
398.747946
 20
69.028125
 42
-0.029983
  0
VERTEX
  8
0
 10
398.352357
 20
68.196027
 42
-0.273279
  0
VERTEX
  8
0
 10
398.020485
 20
68.000000
 42
0.292530
  0
VERTEX
  8
0
 10
397.654487
 20
67.765831
 42
0.011534
  0
VERTEX
  8
0
 10
396.991368
 20
66.237500
 42
0.017237
  0
VERTEX
  8
0
 10
396.280004
 20
64.299751
 42
0.010954
  0
VERTEX
  8
0
 10
395.580037
 20
62.000000
 42
-0.011967
  0
VERTEX
  8
0
 10
394.875005
 20
59.700356
 42
-0.018716
  0
VERTEX
  8
0
 10
394.148141
 20
57.762500
 42
-0.013409
  0
VERTEX
  8
0
 10
393.466742
 20
56.249245
 42
-0.287794
  0
VERTEX
  8
0
 10
393.069582
 20
56.000000
 42
0.213503
  0
VERTEX
  8
0
 10
392.675019
 20
55.823473
 42
0.031392
  0
VERTEX
  8
0
 10
392.120529
 20
55.118750
 42
0.030824
  0
VERTEX
  8
0
 10
391.536268
 20
54.149031
 42
0.021987
  0
VERTEX
  8
0
 10
391.000000
 20
53.000000
 42
-0.022853
  0
VERTEX
  8
0
 10
390.461331
 20
51.851024
 42
-0.031795
  0
VERTEX
  8
0
 10
389.869869
 20
50.881250
 42
-0.032857
  0
VERTEX
  8
0
 10
389.305848
 20
50.179369
 42
-0.210056
  0
VERTEX
  8
0
 10
388.897732
 20
50.000000
 42
0.212683
  0
VERTEX
  8
0
 10
388.524516
 20
49.833726
 42
0.049025
  0
VERTEX
  8
0
 10
388.106303
 20
49.265625
 42
0.042311
  0
VERTEX
  8
0
 10
387.713805
 20
48.457311
 42
0.030401
  0
VERTEX
  8
0
 10
387.410644
 20
47.500000
 42
-0.031538
  0
VERTEX
  8
0
 10
387.105107
 20
46.542749
 42
-0.043524
  0
VERTEX
  8
0
 10
386.705595
 20
45.734375
 42
-0.050787
  0
VERTEX
  8
0
 10
386.277325
 20
45.168069
 42
-0.208396
  0
VERTEX
  8
0
 10
385.891592
 20
45.000000
 42
0.164690
  0
VERTEX
  8
0
 10
385.551479
 20
44.884851
 42
0.095693
  0
VERTEX
  8
0
 10
385.261905
 20
44.559375
 42
0.076772
  0
VERTEX
  8
0
 10
385.066212
 20
44.073719
 42
0.057513
  0
VERTEX
  8
0
 10
385.000000
 20
43.500000
 42
-0.060697
  0
VERTEX
  8
0
 10
384.930110
 20
42.926396
 42
-0.079340
  0
VERTEX
  8
0
 10
384.724249
 20
42.440625
 42
-0.097318
  0
VERTEX
  8
0
 10
384.419305
 20
42.115391
 42
-0.157165
  0
VERTEX
  8
0
 10
384.061273
 20
42.000000
 42
0.287455
  0
VERTEX
  8
0
 10
383.656734
 20
41.746478
 42
0.028191
  0
VERTEX
  8
0
 10
383.193598
 20
40.634971
 42
0.028846
  0
VERTEX
  8
0
 10
382.760733
 20
39.133890
 42
0.018559
  0
VERTEX
  8
0
 10
382.425699
 20
37.353092
 42
-0.028685
  0
VERTEX
  8
0
 10
381.784438
 20
34.287467
 42
-0.063536
  0
VERTEX
  8
0
 10
380.876928
 20
32.082601
 42
-0.040449
  0
VERTEX
  8
0
 10
379.207419
 20
29.632928
 42
-0.006224
  0
VERTEX
  8
0
 10
375.449019
 20
25.093218
 42
0.029905
  0
VERTEX
  8
0
 10
372.220421
 20
20.794466
 42
0.014748
  0
VERTEX
  8
0
 10
368.618955
 20
14.984277
 42
0.012977
  0
VERTEX
  8
0
 10
365.502070
 20
9.271305
 42
0.069134
  0
VERTEX
  8
0
 10
364.334344
 20
5.921720
 42
0.046630
  0
VERTEX
  8
0
 10
364.184930
 20
4.493027
 42
0.104419
  0
VERTEX
  8
0
 10
364.397568
 20
3.428066
 42
0.102675
  0
VERTEX
  8
0
 10
365.025777
 20
2.528840
 42
0.044111
  0
VERTEX
  8
0
 10
366.180401
 20
1.617453
 42
0.141127
  0
VERTEX
  8
0
 10
369.913309
 20
0.464208
 42
0.036280
  0
VERTEX
  8
0
 10
376.280369
 20
0.803831
 42
0.037394
  0
VERTEX
  8
0
 10
382.996108
 20
2.169164
 42
0.063778
  0
VERTEX
  8
0
 10
388.255615
 20
4.409649
 42
0.022778
  0
VERTEX
  8
0
 10
390.976363
 20
6.175287
 42
0.096517
  0
VERTEX
  8
0
 10
392.303924
 20
7.579991
 42
0.083659
  0
VERTEX
  8
0
 10
393.101500
 20
9.478035
 42
0.014683
  0
VERTEX
  8
0
 10
393.879444
 20
13.286134
 42
-0.046110
  0
VERTEX
  8
0
 10
395.059104
 20
17.644982
 42
-0.077443
  0
VERTEX
  8
0
 10
396.909940
 20
20.945805
 42
-0.092657
  0
VERTEX
  8
0
 10
399.398062
 20
23.129802
 42
-0.098504
  0
VERTEX
  8
0
 10
402.455069
 20
24.208549
 42
0.169768
  0
VERTEX
  8
0
 10
404.193930
 20
25.112031
 42
0.069905
  0
VERTEX
  8
0
 10
405.748468
 20
27.309479
 42
0.055016
  0
VERTEX
  8
0
 10
406.968282
 20
30.490326
 42
0.035650
  0
VERTEX
  8
0
 10
407.693874
 20
34.367599
 42
-0.035962
  0
VERTEX
  8
0
 10
408.376095
 20
38.000605
 42
-0.007681
  0
VERTEX
  8
0
 10
410.108119
 20
44.189565
 42
-0.008511
  0
VERTEX
  8
0
 10
412.125822
 20
50.592779
 42
-0.017662
  0
VERTEX
  8
0
 10
413.959494
 20
55.500000
 42
0.009243
  0
VERTEX
  8
0
 10
414.387246
 20
56.588490
 42
0.002312
  0
VERTEX
  8
0
 10
415.044351
 20
58.381250
 42
0.002361
  0
VERTEX
  8
0
 10
415.776861
 20
60.439063
 42
0.002374
  0
VERTEX
  8
0
 10
416.488563
 20
62.500000
 42
-0.004204
  0
VERTEX
  8
0
 10
417.234284
 20
64.634110
 42
-0.003400
  0
VERTEX
  8
0
 10
418.069509
 20
66.912500
 42
-0.003436
  0
VERTEX
  8
0
 10
418.868868
 20
69.004120
 42
-0.008857
  0
VERTEX
  8
0
 10
419.483108
 20
70.500000
 42
0.008104
  0
VERTEX
  8
0
 10
420.031985
 20
71.830990
 42
0.005609
  0
VERTEX
  8
0
 10
420.611377
 20
73.353125
 42
0.005657
  0
VERTEX
  8
0
 10
421.135283
 20
74.828650
 42
0.011554
  0
VERTEX
  8
0
 10
421.506317
 20
76.000000
 42
-0.044451
  0
VERTEX
  8
0
 10
422.635157
 20
78.889002
 42
-0.005931
  0
VERTEX
  8
0
 10
425.620359
 20
84.719493
 42
-0.003478
  0
VERTEX
  8
0
 10
428.836322
 20
90.719615
 42
-0.106459
  0
VERTEX
  8
0
 10
429.939289
 20
92.000000
 42
0.107352
  0
VERTEX
  8
0
 10
432.297942
 20
94.747848
 42
0.005757
  0
VERTEX
  8
0
 10
437.671875
 20
104.971914
 42
0.008229
  0
VERTEX
  8
0
 10
442.646851
 20
115.116143
 42
0.054636
  0
VERTEX
  8
0
 10
444.472492
 20
120.440263
 42
0.064520
  0
VERTEX
  8
0
 10
444.628449
 20
122.124954
 42
0.053706
  0
VERTEX
  8
0
 10
444.370392
 20
123.906374
 42
0.040631
  0
VERTEX
  8
0
 10
443.647028
 20
126.001916
 42
0.017106
  0
VERTEX
  8
0
 10
442.355658
 20
128.690263
 42
0.010900
  0
VERTEX
  8
0
 10
441.233965
 20
130.724999
 42
0.016475
  0
VERTEX
  8
0
 10
440.162004
 20
132.440265
 42
0.011264
  0
VERTEX
  8
0
 10
439.213423
 20
133.785871
 42
0.237899
  0
VERTEX
  8
0
 10
438.788853
 20
134.000000
 42
-0.183227
  0
VERTEX
  8
0
 10
438.487726
 20
134.114183
 42
-0.090691
  0
VERTEX
  8
0
 10
438.231726
 20
134.440625
 42
-0.070581
  0
VERTEX
  8
0
 10
438.058256
 20
134.926030
 42
-0.050618
  0
VERTEX
  8
0
 10
438.000000
 20
135.500000
 42
0.054157
  0
VERTEX
  8
0
 10
437.937662
 20
136.073841
 42
0.073869
  0
VERTEX
  8
0
 10
437.752747
 20
136.559375
 42
0.093533
  0
VERTEX
  8
0
 10
437.479460
 20
136.885233
 42
0.173303
  0
VERTEX
  8
0
 10
437.158288
 20
137.000000
 42
-0.254661
  0
VERTEX
  8
0
 10
436.765143
 20
137.214124
 42
-0.025433
  0
VERTEX
  8
0
 10
436.211790
 20
138.175000
 42
-0.027055
  0
VERTEX
  8
0
 10
435.638435
 20
139.467403
 42
-0.018091
  0
VERTEX
  8
0
 10
435.118146
 20
141.000000
 42
0.020635
  0
VERTEX
  8
0
 10
434.589219
 20
142.532392
 42
0.030304
  0
VERTEX
  8
0
 10
433.989797
 20
143.825000
 42
0.030458
  0
VERTEX
  8
0
 10
433.402118
 20
144.771383
 42
0.243180
  0
VERTEX
  8
0
 10
432.959858
 20
145.000000
 42
-0.114984
  0
VERTEX
  8
0
 10
432.593722
 20
145.085328
 42
-0.100405
  0
VERTEX
  8
0
 10
432.281958
 20
145.326325
 42
-0.093531
  0
VERTEX
  8
0
 10
432.072722
 20
145.686673
 42
-0.085092
  0
VERTEX
  8
0
 10
432.000000
 20
146.110893
 42
0.080996
  0
VERTEX
  8
0
 10
431.877295
 20
146.863396
 42
0.003410
  0
VERTEX
  8
0
 10
430.996786
 20
149.433198
 42
0.005801
  0
VERTEX
  8
0
 10
429.893205
 20
152.470389
 42
0.004085
  0
VERTEX
  8
0
 10
428.584802
 20
155.860893
 42
-0.011085
  0
VERTEX
  8
0
 10
426.310019
 20
162.010543
 42
-0.021597
  0
VERTEX
  8
0
 10
424.819733
 20
167.023975
 42
-0.025961
  0
VERTEX
  8
0
 10
423.949167
 20
171.458679
 42
-0.029061
  0
VERTEX
  8
0
 10
423.584778
 20
175.795438
 42
-0.016981
  0
VERTEX
  8
0
 10
423.600862
 20
177.747982
 42
-0.175023
  0
VERTEX
  8
0
 10
423.901472
 20
178.481939
 42
-0.241051
  0
VERTEX
  8
0
 10
424.547382
 20
178.726871
 42
-0.033606
  0
VERTEX
  8
0
 10
426.000000
 20
178.465817
 42
-0.043769
  0
VERTEX
  8
0
 10
427.020344
 20
178.113492
 42
-0.037675
  0
VERTEX
  8
0
 10
428.019083
 20
177.573987
 42
-0.039424
  0
VERTEX
  8
0
 10
428.853612
 20
176.940368
 42
-0.082688
  0
VERTEX
  8
0
 10
429.362837
 20
176.307542
 42
0.061774
  0
VERTEX
  8
0
 10
431.140470
 20
173.899850
 42
0.015179
  0
VERTEX
  8
0
 10
434.641388
 20
170.429110
 42
0.016047
  0
VERTEX
  8
0
 10
438.704790
 20
166.875120
 42
0.021947
  0
VERTEX
  8
0
 10
442.596015
 20
163.961903
 42
-0.010604
  0
VERTEX
  8
0
 10
444.562212
 20
162.558315
 42
-0.011477
  0
VERTEX
  8
0
 10
446.415010
 20
161.108055
 42
-0.011037
  0
VERTEX
  8
0
 10
447.944128
 20
159.795979
 42
-0.053179
  0
VERTEX
  8
0
 10
448.710402
 20
158.945408
 42
0.072075
  0
VERTEX
  8
0
 10
449.564298
 20
158.066478
 42
0.009757
  0
VERTEX
  8
0
 10
451.636116
 20
156.535390
 42
0.011079
  0
VERTEX
  8
0
 10
454.182617
 20
154.812761
 42
0.009135
  0
VERTEX
  8
0
 10
456.970566
 20
153.086795
 42
-0.015180
  0
VERTEX
  8
0
 10
459.795974
 20
151.290037
 42
-0.016007
  0
VERTEX
  8
0
 10
462.456386
 20
149.355222
 42
-0.015827
  0
VERTEX
  8
0
 10
464.636699
 20
147.546726
 42
-0.066762
  0
VERTEX
  8
0
 10
465.746030
 20
146.264854
 42
0.032070
  0
VERTEX
  8
0
 10
466.852994
 20
144.790918
 42
0.005082
  0
VERTEX
  8
0
 10
469.235047
 20
142.066414
 42
0.005618
  0
VERTEX
  8
0
 10
472.114766
 20
138.911555
 42
0.004887
  0
VERTEX
  8
0
 10
475.200209
 20
135.670754
 42
-0.006863
  0
VERTEX
  8
0
 10
478.363338
 20
132.321954
 42
-0.006592
  0
VERTEX
  8
0
 10
481.476733
 20
128.842855
 42
-0.006544
  0
VERTEX
  8
0
 10
484.140783
 20
125.703688
 42
-0.023610
  0
VERTEX
  8
0
 10
485.714343
 20
123.605203
 42
0.008095
  0
VERTEX
  8
0
 10
486.836013
 20
122.008469
 42
0.011019
  0
VERTEX
  8
0
 10
487.902026
 20
120.607987
 42
0.008083
  0
VERTEX
  8
0
 10
488.830476
 20
119.480339
 42
0.112367
  0
VERTEX
  8
0
 10
489.250000
 20
119.166667
 42
-0.091244
  0
VERTEX
  8
0
 10
489.536830
 20
118.970348
 42
-0.062928
  0
VERTEX
  8
0
 10
489.779688
 20
118.659306
 42
-0.061094
  0
VERTEX
  8
0
 10
489.944072
 20
118.286394
 42
-0.073419
  0
VERTEX
  8
0
 10
490.000000
 20
117.907565
 42
0.143394
  0
VERTEX
  8
0
 10
490.152989
 20
117.385078
 42
0.015962
  0
VERTEX
  8
0
 10
490.863370
 20
116.350308
 42
0.018383
  0
VERTEX
  8
0
 10
491.813525
 20
115.151737
 42
0.013917
  0
VERTEX
  8
0
 10
492.939130
 20
113.906279
 42
-0.034433
  0
VERTEX
  8
0
 10
494.111598
 20
112.496882
 42
-0.026004
  0
VERTEX
  8
0
 10
495.203757
 20
110.804363
 42
-0.026557
  0
VERTEX
  8
0
 10
496.065881
 20
109.098532
 42
-0.053667
  0
VERTEX
  8
0
 10
496.521207
 20
107.665380
 42
0.015827
  0
VERTEX
  8
0
 10
497.273455
 20
104.481945
 42
0.011957
  0
VERTEX
  8
0
 10
498.292586
 20
101.036733
 42
0.010219
  0
VERTEX
  8
0
 10
499.351748
 20
97.964168
 42
0.064569
  0
VERTEX
  8
0
 10
500.116536
 20
96.500000
 42
-0.080245
  0
VERTEX
  8
0
 10
500.994314
 20
94.683649
 42
-0.005607
  0
VERTEX
  8
0
 10
502.558034
 20
89.221183
 42
-0.008773
  0
VERTEX
  8
0
 10
504.040624
 20
83.416117
 42
-0.014842
  0
VERTEX
  8
0
 10
505.051629
 20
78.500000
 42
0.004994
  0
VERTEX
  8
0
 10
505.460200
 20
76.293941
 42
0.003404
  0
VERTEX
  8
0
 10
505.966816
 20
73.793750
 42
0.003431
  0
VERTEX
  8
0
 10
506.488495
 20
71.388619
 42
0.006901
  0
VERTEX
  8
0
 10
506.939190
 20
69.500000
 42
-0.022069
  0
VERTEX
  8
0
 10
507.329935
 20
67.610537
 42
-0.011216
  0
VERTEX
  8
0
 10
507.662295
 20
65.206250
 42
-0.011120
  0
VERTEX
  8
0
 10
507.894708
 20
62.706153
 42
-0.016321
  0
VERTEX
  8
0
 10
507.978178
 20
60.500000
 42
-0.033957
  0
VERTEX
  8
0
 10
507.591356
 20
54.339704
 42
-0.014703
  0
VERTEX
  8
0
 10
506.281875
 20
46.225566
 42
-0.012028
  0
VERTEX
  8
0
 10
504.605744
 20
38.493049
 42
-0.086196
  0
VERTEX
  8
0
 10
503.089700
 20
35.000000
 42
0.017004
  0
VERTEX
  8
0
 10
502.218433
 20
33.570752
 42
0.003519
  0
VERTEX
  8
0
 10
500.789821
 20
30.995042
 42
0.003695
  0
VERTEX
  8
0
 10
499.173234
 20
27.978624
 42
0.003476
  0
VERTEX
  8
0
 10
497.567671
 20
24.876740
 42
0.028073
  0
VERTEX
  8
0
 10
494.445365
 20
17.781455
 42
0.247513
  0
VERTEX
  8
0
 10
494.864796
 20
14.492772
 42
0.252124
  0
VERTEX
  8
0
 10
497.802753
 20
13.019862
 42
0.028974
  0
VERTEX
  8
0
 10
505.424594
 20
13.685928
 42
0.018317
  0
VERTEX
  8
0
 10
508.486387
 20
14.248553
 42
0.013411
  0
VERTEX
  8
0
 10
511.838624
 20
15.087327
 42
0.013587
  0
VERTEX
  8
0
 10
514.974476
 20
16.054510
 42
0.029014
  0
VERTEX
  8
0
 10
517.323913
 20
17.004785
 42
0.000000
  0
VERTEX
  8
0
 10
522.147826
 20
19.289740
 42
0.000000
  0
VERTEX
  8
0
 10
521.498841
 20
24.008426
 42
-0.024453
  0
VERTEX
  8
0
 10
521.277685
 20
26.521334
 42
-0.048833
  0
VERTEX
  8
0
 10
521.394634
 20
28.511281
 42
-0.052084
  0
VERTEX
  8
0
 10
521.886273
 20
30.356695
 42
-0.031903
  0
VERTEX
  8
0
 10
522.822286
 20
32.407240
 42
-0.036197
  0
VERTEX
  8
0
 10
524.518088
 20
35.086016
 42
-0.032790
  0
VERTEX
  8
0
 10
526.634974
 20
37.587646
 42
-0.031464
  0
VERTEX
  8
0
 10
528.726695
 20
39.497755
 42
-0.170921
  0
VERTEX
  8
0
 10
530.153010
 20
40.000000
 42
0.394747
  0
VERTEX
  8
0
 10
530.873913
 20
40.674208
 42
0.020103
  0
VERTEX
  8
0
 10
530.967406
 20
44.172879
 42
0.026560
  0
VERTEX
  8
0
 10
530.693844
 20
48.274822
 42
0.028333
  0
VERTEX
  8
0
 10
529.988014
 20
52.235649
 42
-0.004712
  0
VERTEX
  8
0
 10
529.474264
 20
54.495081
 42
-0.001318
  0
VERTEX
  8
0
 10
528.713496
 20
58.037972
 42
-0.001329
  0
VERTEX
  8
0
 10
527.874161
 20
62.050124
 42
-0.001398
  0
VERTEX
  8
0
 10
527.070317
 20
66.000000
 42
0.001924
  0
VERTEX
  8
0
 10
526.221448
 20
70.148771
 42
0.001392
  0
VERTEX
  8
0
 10
525.244858
 20
74.765625
 42
0.001406
  0
VERTEX
  8
0
 10
524.292515
 20
79.146617
 42
0.003065
  0
VERTEX
  8
0
 10
523.532093
 20
82.500000
 42
-0.004357
  0
VERTEX
  8
0
 10
521.289718
 20
92.508529
 42
-0.010094
  0
VERTEX
  8
0
 10
519.824567
 20
100.065523
 42
-0.011830
  0
VERTEX
  8
0
 10
518.807631
 20
106.902513
 42
-0.008768
  0
VERTEX
  8
0
 10
517.995702
 20
114.500000
 42
0.006564
  0
VERTEX
  8
0
 10
517.234447
 20
121.933303
 42
0.002521
  0
VERTEX
  8
0
 10
515.989043
 20
132.242423
 42
0.001469
  0
VERTEX
  8
0
 10
514.666393
 20
142.502663
 42
0.026654
  0
VERTEX
  8
0
 10
514.060579
 20
145.750000
 42
0.298479
  0
VERTEX
  8
0
 10
513.954936
 20
145.848999
 42
0.013022
  0
VERTEX
  8
0
 10
513.430295
 20
145.926562
 42
0.018474
  0
VERTEX
  8
0
 10
512.770964
 20
145.981938
 42
0.011712
  0
VERTEX
  8
0
 10
512.000000
 20
146.000000
 42
-0.063763
  0
VERTEX
  8
0
 10
511.235340
 20
146.097912
 42
-0.081644
  0
VERTEX
  8
0
 10
510.587500
 20
146.385383
 42
-0.098536
  0
VERTEX
  8
0
 10
510.154046
 20
146.811615
 42
-0.150460
  0
VERTEX
  8
0
 10
510.000000
 20
147.311942
 42
0.196329
  0
VERTEX
  8
0
 10
509.535535
 20
148.449218
 42
0.017983
  0
VERTEX
  8
0
 10
507.275879
 20
150.594243
 42
0.019241
  0
VERTEX
  8
0
 10
504.867094
 20
152.561889
 42
0.163037
  0
VERTEX
  8
0
 10
503.559216
 20
153.000000
 42
-0.200221
  0
VERTEX
  8
0
 10
503.037764
 20
153.217532
 42
-0.001524
  0
VERTEX
  8
0
 10
499.740909
 20
156.568118
 42
-0.004489
  0
VERTEX
  8
0
 10
495.556497
 20
160.924293
 42
-0.001670
  0
VERTEX
  8
0
 10
489.750000
 20
167.120116
 42
-0.023003
  0
VERTEX
  8
0
 10
489.080139
 20
167.909564
 42
-0.025967
  0
VERTEX
  8
0
 10
488.514062
 20
168.726938
 42
-0.026489
  0
VERTEX
  8
0
 10
488.110857
 20
169.463558
 42
-0.112434
  0
VERTEX
  8
0
 10
488.000000
 20
169.950310
 42
0.105371
  0
VERTEX
  8
0
 10
487.910092
 20
170.372200
 42
0.050121
  0
VERTEX
  8
0
 10
487.632812
 20
170.856375
 42
0.046572
  0
VERTEX
  8
0
 10
487.228183
 20
171.323978
 42
0.048853
  0
VERTEX
  8
0
 10
486.750000
 20
171.700310
 42
-0.094161
  0
VERTEX
  8
0
 10
485.455121
 20
172.923426
 42
-0.020811
  0
VERTEX
  8
0
 10
483.762885
 20
175.481117
 42
-0.018651
  0
VERTEX
  8
0
 10
481.850768
 20
178.935175
 42
-0.010547
  0
VERTEX
  8
0
 10
479.781340
 20
183.250000
 42
0.011616
  0
VERTEX
  8
0
 10
478.903531
 20
185.070277
 42
0.017651
  0
VERTEX
  8
0
 10
478.049537
 20
186.604687
 42
0.012512
  0
VERTEX
  8
0
 10
477.284790
 20
187.802575
 42
0.249382
  0
VERTEX
  8
0
 10
476.913579
 20
188.000000
 42
-0.231742
  0
VERTEX
  8
0
 10
476.536373
 20
188.184751
 42
-0.013890
  0
VERTEX
  8
0
 10
475.767430
 20
189.234677
 42
-0.018531
  0
VERTEX
  8
0
 10
474.902212
 20
190.592617
 42
-0.012438
  0
VERTEX
  8
0
 10
474.011127
 20
192.203157
 42
-0.027338
  0
VERTEX
  8
0
 10
472.915324
 20
194.619078
 42
-0.052901
  0
VERTEX
  8
0
 10
472.359360
 20
196.664015
 42
-0.048383
  0
VERTEX
  8
0
 10
472.218334
 20
198.897300
 42
-0.019415
  0
VERTEX
  8
0
 10
472.440131
 20
201.953157
 42
-0.017648
  0
VERTEX
  8
0
 10
473.338058
 20
208.035395
 42
-0.014615
  0
VERTEX
  8
0
 10
474.710032
 20
214.437930
 42
-0.006400
  0
VERTEX
  8
0
 10
476.234945
 20
220.333150
 42
-0.338306
  0
VERTEX
  8
0
 10
477.107719
 20
221.000000
 42
0.323361
  0
VERTEX
  8
0
 10
477.455643
 20
221.251284
 42
0.031024
  0
VERTEX
  8
0
 10
477.737893
 20
222.321875
 42
0.030280
  0
VERTEX
  8
0
 10
477.935578
 20
223.775091
 42
0.018667
  0
VERTEX
  8
0
 10
478.000000
 20
225.500000
 42
-0.020945
  0
VERTEX
  8
0
 10
478.072283
 20
227.224757
 42
-0.033738
  0
VERTEX
  8
0
 10
478.293750
 20
228.678125
 42
-0.036969
  0
VERTEX
  8
0
 10
478.611488
 20
229.732972
 42
-0.310520
  0
VERTEX
  8
0
 10
479.000000
 20
230.000000
 42
0.379440
  0
VERTEX
  8
0
 10
479.436288
 20
230.386776
 42
0.009358
  0
VERTEX
  8
0
 10
479.729269
 20
233.264754
 42
0.014248
  0
VERTEX
  8
0
 10
479.935726
 20
237.067177
 42
0.006438
  0
VERTEX
  8
0
 10
480.000000
 20
242.059017
 42
-0.005703
  0
VERTEX
  8
0
 10
480.059059
 20
247.236311
 42
-0.016094
  0
VERTEX
  8
0
 10
480.257919
 20
250.848386
 42
-0.016100
  0
VERTEX
  8
0
 10
480.551105
 20
253.292593
 42
-0.537503
  0
VERTEX
  8
0
 10
481.000000
 20
253.500000
 42
-0.128117
  0
VERTEX
  8
0
 10
481.384362
 20
253.097520
 42
-0.046167
  0
VERTEX
  8
0
 10
481.706250
 20
252.367457
 42
-0.042064
  0
VERTEX
  8
0
 10
481.926123
 20
251.464744
 42
-0.038729
  0
VERTEX
  8
0
 10
482.000000
 20
250.512412
 42
0.100856
  0
VERTEX
  8
0
 10
482.448436
 20
248.311872
 42
0.114993
  0
VERTEX
  8
0
 10
483.714471
 20
246.579271
 42
0.091535
  0
VERTEX
  8
0
 10
485.877364
 20
245.317182
 42
0.044601
  0
VERTEX
  8
0
 10
488.980183
 20
244.503348
 42
-0.022260
  0
VERTEX
  8
0
 10
490.954946
 20
244.078558
 42
-0.079212
  0
VERTEX
  8
0
 10
492.135629
 20
243.559084
 42
-0.131319
  0
VERTEX
  8
0
 10
492.770032
 20
242.860195
 42
-0.119546
  0
VERTEX
  8
0
 10
493.000000
 20
241.912102
 42
0.105552
  0
VERTEX
  8
0
 10
493.204950
 20
240.952075
 42
0.177899
  0
VERTEX
  8
0
 10
493.772985
 20
240.369506
 42
0.094016
  0
VERTEX
  8
0
 10
494.887126
 20
240.074989
 42
0.017740
  0
VERTEX
  8
0
 10
497.000000
 20
240.000000
 42
0.028496
  0
VERTEX
  8
0
 10
499.787095
 20
240.158969
 42
0.273648
  0
VERTEX
  8
0
 10
500.697022
 20
240.848074
 42
0.143878
  0
VERTEX
  8
0
 10
500.845923
 20
242.294024
 42
0.007021
  0
VERTEX
  8
0
 10
499.892071
 20
247.067652
 42
0.024317
  0
VERTEX
  8
0
 10
498.850400
 20
250.985193
 42
0.020083
  0
VERTEX
  8
0
 10
497.374000
 20
255.046556
 42
0.018899
  0
VERTEX
  8
0
 10
495.474074
 20
259.226421
 42
0.015942
  0
VERTEX
  8
0
 10
493.159902
 20
263.500000
 42
-0.039698
  0
VERTEX
  8
0
 10
491.324467
 20
267.311059
 42
-0.029538
  0
VERTEX
  8
0
 10
489.897579
 20
271.759193
 42
-0.022143
  0
VERTEX
  8
0
 10
488.696277
 20
277.477300
 42
-0.008960
  0
VERTEX
  8
0
 10
487.545732
 20
285.363207
 42
0.010361
  0
VERTEX
  8
0
 10
486.655420
 20
291.348049
 42
0.026886
  0
VERTEX
  8
0
 10
485.695184
 20
295.599004
 42
0.030683
  0
VERTEX
  8
0
 10
484.366489
 20
299.388103
 42
0.017576
  0
VERTEX
  8
0
 10
482.329555
 20
303.785811
 42
0.039043
  0
VERTEX
  8
0
 10
477.495238
 20
311.724899
 42
0.037186
  0
VERTEX
  8
0
 10
471.413313
 20
318.955284
 42
0.037638
  0
VERTEX
  8
0
 10
464.409872
 20
325.121092
 42
0.042565
  0
VERTEX
  8
0
 10
456.831136
 20
329.889059
 42
-0.004465
  0
VERTEX
  8
0
 10
453.531136
 20
331.629838
 42
-0.005611
  0
VERTEX
  8
0
 10
450.506646
 20
333.304043
 42
-0.004543
  0
VERTEX
  8
0
 10
448.001938
 20
334.757742
 42
-0.043565
  0
VERTEX
  8
0
 10
447.000000
 20
335.476117
 42
0.053402
  0
VERTEX
  8
0
 10
444.368318
 20
337.285861
 42
0.009789
  0
VERTEX
  8
0
 10
439.115097
 20
339.994938
 42
0.010166
  0
VERTEX
  8
0
 10
433.745804
 20
342.497938
 42
0.047052
  0
VERTEX
  8
0
 10
430.500000
 20
343.580243
 42
-0.014082
  0
VERTEX
  8
0
 10
429.278137
 20
343.900033
 42
-0.014475
  0
VERTEX
  8
0
 10
428.087500
 20
344.285492
 42
-0.014348
  0
VERTEX
  8
0
 10
427.076410
 20
344.678514
 42
-0.057624
  0
VERTEX
  8
0
 10
426.500000
 20
345.004388
 42
0.077694
  0
VERTEX
  8
0
 10
424.622120
 20
345.969167
 42
0.003190
  0
VERTEX
  8
0
 10
417.382130
 20
348.313408
 42
0.005368
  0
VERTEX
  8
0
 10
410.333155
 20
350.463228
 42
0.030280
  0
VERTEX
  8
0
 10
406.500000
 20
351.339518
 42
-0.010001
  0
VERTEX
  8
0
 10
405.036441
 20
351.612205
 42
-0.004089
  0
VERTEX
  8
0
 10
403.059375
 20
352.038535
 42
-0.004044
  0
VERTEX
  8
0
 10
400.942548
 20
352.531167
 42
-0.005161
  0
VERTEX
  8
0
 10
399.000000
 20
353.021106
 42
0.064205
  0
VERTEX
  8
0
 10
392.736250
 20
353.834592
 42
0.009820
  0
VERTEX
  8
0
 10
380.132986
 20
353.598579
 42
0.010954
  0
VERTEX
  8
0
 10
367.476960
 20
352.834863
 42
0.044881
  0
VERTEX
  8
0
 10
359.905937
 20
351.520590
 42
-0.042395
  0
VERTEX
  8
0
 10
355.901494
 20
350.804963
 42
-0.006624
  0
VERTEX
  8
0
 10
347.890117
 20
350.171923
 42
-0.005943
  0
VERTEX
  8
0
 10
336.910831
 20
349.581547
 42
-0.002437
  0
VERTEX
  8
0
 10
322.000000
 20
349.030185
 42
0.000464
  0
VERTEX
  8
0
 10
307.689052
 20
348.557556
 42
0.000323
  0
VERTEX
  8
0
 10
291.528828
 20
347.998407
 42
0.000325
  0
VERTEX
  8
0
 10
276.021249
 20
347.441717
 42
0.000673
  0
VERTEX
  8
0
 10
263.906650
 20
346.982605
 42
-0.001946
  0
VERTEX
  8
0
 10
249.342722
 20
346.467807
 42
-0.012478
  0
VERTEX
  8
0
 10
241.965245
 20
346.419960
 42
-0.024925
  0
VERTEX
  8
0
 10
237.339248
 20
346.736451
 42
-0.055507
  0
VERTEX
  8
0
 10
233.906650
 20
347.536735
 42
0.019572
  0
VERTEX
  8
0
 10
232.091216
 20
348.099930
 42
0.021042
  0
VERTEX
  8
0
 10
230.280391
 20
348.504095
 42
0.021143
  0
VERTEX
  8
0
 10
228.705921
 20
348.718329
 42
0.086919
  0
VERTEX
  8
0
 10
227.750000
 20
348.641265
 42
-0.053851
  0
VERTEX
  8
0
 10
227.080081
 20
348.542586
 42
-0.088474
  0
VERTEX
  8
0
 10
226.514063
 20
348.621103
 42
-0.125567
  0
VERTEX
  8
0
 10
226.140141
 20
348.857702
 42
-0.191495
  0
VERTEX
  8
0
 10
226.000000
 20
349.210197
 42
0.262695
  0
VERTEX
  8
0
 10
225.799682
 20
349.565160
 42
0.088293
  0
VERTEX
  8
0
 10
225.224088
 20
349.786497
 42
0.060126
  0
VERTEX
  8
0
 10
224.366240
 20
349.847392
 42
0.034925
  0
VERTEX
  8
0
 10
223.339463
 20
349.724560
 42
-0.064530
  0
VERTEX
  8
0
 10
221.239046
 20
349.598378
 42
-0.035381
  0
VERTEX
  8
0
 10
218.682407
 20
349.957647
 42
-0.030268
  0
VERTEX
  8
0
 10
215.750567
 20
350.771773
 42
-0.020147
  0
VERTEX
  8
0
 10
212.500000
 20
352.038788
 42
0.082676
  0
VERTEX
  8
0
 10
204.381846
 20
354.085591
 42
0.021491
  0
VERTEX
  8
0
 10
190.878911
 20
354.612833
 42
0.022641
  0
VERTEX
  8
0
 10
176.468093
 20
353.902926
 42
0.037740
  0
VERTEX
  8
0
 10
164.500000
 20
351.849262
 42
-0.007963
  0
VERTEX
  8
0
 10
159.477411
 20
350.676133
 42
-0.048133
  0
VERTEX
  8
0
 10
156.822937
 20
350.363225
 42
-0.061203
  0
VERTEX
  8
0
 10
154.433225
 20
350.605667
 42
-0.017439
  0
VERTEX
  8
0
 10
150.820312
 20
351.559948
 42
-0.038075
  0
VERTEX
  8
0
 10
147.401759
 20
352.882815
 42
-0.045991
  0
VERTEX
  8
0
 10
144.446106
 20
354.643501
 42
-0.029729
  0
VERTEX
  8
0
 10
141.000791
 20
357.479012
 42
-0.006899
  0
VERTEX
  8
0
 10
135.570312
 20
362.659587
 42
-0.007083
  0
VERTEX
  8
0
 10
131.085045
 20
367.184654
 42
-0.021388
  0
VERTEX
  8
0
 10
128.209514
 20
370.436597
 42
-0.028926
  0
VERTEX
  8
0
 10
126.465399
 20
372.861964
 42
-0.142351
  0
VERTEX
  8
0
 10
126.000000
 20
374.463532
 42
0.034766
  0
VERTEX
  8
0
 10
125.932674
 20
375.430650
 42
0.039529
  0
VERTEX
  8
0
 10
125.731810
 20
376.337301
 42
0.043304
  0
VERTEX
  8
0
 10
125.438461
 20
377.064160
 42
0.137628
  0
VERTEX
  8
0
 10
125.087012
 20
377.446223
 42
-0.155721
  0
VERTEX
  8
0
 10
124.695029
 20
377.903875
 42
-0.021565
  0
VERTEX
  8
0
 10
124.253129
 20
379.091628
 42
-0.023002
  0
VERTEX
  8
0
 10
123.843591
 20
380.588501
 42
-0.017643
  0
VERTEX
  8
0
 10
123.530329
 20
382.255240
 42
0.011040
  0
VERTEX
  8
0
 10
123.221482
 20
384.027056
 42
0.010043
  0
VERTEX
  8
0
 10
122.825940
 20
385.840602
 42
0.010109
  0
VERTEX
  8
0
 10
122.406909
 20
387.447792
 42
0.031696
  0
VERTEX
  8
0
 10
122.036324
 20
388.500000
 42
-0.015059
  0
VERTEX
  8
0
 10
119.834953
 20
394.144028
 42
-0.008216
  0
VERTEX
  8
0
 10
117.458697
 20
401.188395
 42
-0.005364
  0
VERTEX
  8
0
 10
115.372144
 20
407.977383
 42
-0.071987
  0
VERTEX
  8
0
 10
115.000000
 20
410.548790
 42
-0.307197
  0
VERTEX
  8
0
 10
115.118824
 20
410.723940
 42
-0.038519
  0
VERTEX
  8
0
 10
115.580144
 20
410.867457
 42
-0.034629
  0
VERTEX
  8
0
 10
116.218016
 20
410.967375
 42
-0.021541
  0
VERTEX
  8
0
 10
116.974958
 20
411.000000
 42
0.073476
  0
VERTEX
  8
0
 10
118.111568
 20
411.167934
 42
0.011237
  0
VERTEX
  8
0
 10
120.292610
 20
411.880678
 42
0.012359
  0
VERTEX
  8
0
 10
122.844793
 20
412.850194
 42
0.010435
  0
VERTEX
  8
0
 10
125.495746
 20
413.998052
 42
0.018062
  0
VERTEX
  8
0
 10
128.969304
 20
415.743382
 42
0.044488
  0
VERTEX
  8
0
 10
131.337822
 20
417.331479
 42
0.050850
  0
VERTEX
  8
0
 10
133.198561
 20
419.176600
 42
0.030716
  0
VERTEX
  8
0
 10
135.020789
 20
421.693832
 42
0.011294
  0
VERTEX
  8
0
 10
136.161621
 20
423.585910
 42
0.014309
  0
VERTEX
  8
0
 10
137.124857
 20
425.385783
 42
0.012348
  0
VERTEX
  8
0
 10
137.843855
 20
426.920694
 42
0.103714
  0
VERTEX
  8
0
 10
138.000000
 20
427.665364
 42
-0.080150
  0
VERTEX
  8
0
 10
138.111784
 20
428.358233
 42
-0.016318
  0
VERTEX
  8
0
 10
138.542387
 20
429.528610
 42
-0.016809
  0
VERTEX
  8
0
 10
139.139591
 20
430.870254
 42
-0.015065
  0
VERTEX
  8
0
 10
139.846425
 20
432.219584
 42
0.000295
  0
VERTEX
  8
0
 10
140.766174
 20
433.855895
 42
0.000110
  0
VERTEX
  8
0
 10
142.054338
 20
436.152003
 42
0.000109
  0
VERTEX
  8
0
 10
143.456492
 20
438.653867
 42
0.000133
  0
VERTEX
  8
0
 10
144.769874
 20
441.000000
 42
0.042935
  0
VERTEX
  8
0
 10
146.695339
 20
445.262788
 42
0.050741
  0
VERTEX
  8
0
 10
147.733792
 20
449.561199
 42
0.058308
  0
VERTEX
  8
0
 10
147.805148
 20
453.283210
 42
0.148819
  0
VERTEX
  8
0
 10
146.783120
 20
455.750000
 42
0.167273
  0
VERTEX
  8
0
 10
145.235789
 20
456.700943
 42
0.062713
  0
VERTEX
  8
0
 10
142.666414
 20
456.944019
 42
0.055868
  0
VERTEX
  8
0
 10
139.695276
 20
456.517568
 42
0.055826
  0
VERTEX
  8
0
 10
136.891473
 20
455.443879
 42
-0.029987
  0
VERTEX
  8
0
 10
135.131567
 20
454.663659
 42
-0.005644
  0
VERTEX
  8
0
 10
131.819390
 20
453.469431
 42
-0.006017
  0
VERTEX
  8
0
 10
127.911821
 20
452.162671
 42
-0.005480
  0
VERTEX
  8
0
 10
123.850502
 20
450.907548
 42
0.009258
  0
VERTEX
  8
0
 10
117.329659
 20
448.838213
 42
0.027026
  0
VERTEX
  8
0
 10
112.946564
 20
447.088341
 42
0.036622
  0
VERTEX
  8
0
 10
109.587667
 20
445.222307
 42
0.035054
  0
VERTEX
  8
0
 10
106.484543
 20
442.861410
 42
-0.092861
  0
VERTEX
  8
0
 10
104.619433
 20
441.755353
 42
-0.231041
  0
VERTEX
  8
0
 10
103.082571
 20
441.915811
 42
-0.227792
  0
VERTEX
  8
0
 10
102.248706
 20
443.232019
 42
-0.090919
  0
VERTEX
  8
0
 10
102.390033
 20
445.417878
 42
-0.117815
  0
VERTEX
  8
0
 10
105.002865
 20
450.431116
 42
-0.059781
  0
VERTEX
  8
0
 10
110.304423
 20
455.236792
 42
-0.053168
  0
VERTEX
  8
0
 10
117.422903
 20
459.225296
 42
-0.047406
  0
VERTEX
  8
0
 10
125.500000
 20
461.810302
 42
-0.008003
  0
VERTEX
  8
0
 10
132.195813
 20
463.160591
 42
-0.004702
  0
VERTEX
  8
0
 10
140.243739
 20
464.571773
 42
-0.003169
  0
VERTEX
  8
0
 10
147.877877
 20
465.786855
 42
-0.038607
  0
VERTEX
  8
0
 10
150.829445
 20
466.006638
 42
0.057706
  0
VERTEX
  8
0
 10
152.108112
 20
466.151013
 42
0.012179
  0
VERTEX
  8
0
 10
154.287215
 20
466.712246
 42
0.012604
  0
VERTEX
  8
0
 10
156.796211
 20
467.492871
 42
0.011658
  0
VERTEX
  8
0
 10
159.329445
 20
468.418030
 42
-0.005521
  0
VERTEX
  8
0
 10
162.109725
 20
469.472265
 42
-0.003484
  0
VERTEX
  8
0
 10
165.376462
 20
470.644112
 42
-0.003498
  0
VERTEX
  8
0
 10
168.604175
 20
471.751336
 42
-0.006425
  0
VERTEX
  8
0
 10
171.250000
 20
472.600652
 42
0.012166
  0
VERTEX
  8
0
 10
173.453745
 20
473.336071
 42
0.018910
  0
VERTEX
  8
0
 10
175.310937
 20
474.087000
 42
0.013721
  0
VERTEX
  8
0
 10
176.757940
 20
474.785079
 42
0.280493
  0
VERTEX
  8
0
 10
177.000000
 20
475.182622
 42
-0.150738
  0
VERTEX
  8
0
 10
177.096239
 20
475.494595
 42
-0.098178
  0
VERTEX
  8
0
 10
177.367188
 20
475.760830
 42
-0.081318
  0
VERTEX
  8
0
 10
177.772082
 20
475.940973
 42
-0.063533
  0
VERTEX
  8
0
 10
178.250000
 20
476.003183
 42
0.153548
  0
VERTEX
  8
0
 10
180.910859
 20
476.847501
 42
0.003784
  0
VERTEX
  8
0
 10
191.459393
 20
484.370962
 42
0.002820
  0
VERTEX
  8
0
 10
202.118425
 20
492.187670
 42
0.237416
  0
VERTEX
  8
0
 10
203.000000
 20
493.939621
 42
-0.164195
  0
VERTEX
  8
0
 10
203.128070
 20
494.319099
 42
-0.007709
  0
VERTEX
  8
0
 10
203.975047
 20
495.396134
 42
-0.012028
  0
VERTEX
  8
0
 10
205.047550
 20
496.654406
 42
-0.008292
  0
VERTEX
  8
0
 10
206.319310
 20
498.029158
 42
0.015652
  0
VERTEX
  8
0
 10
207.832757
 20
499.714258
 42
0.007665
  0
VERTEX
  8
0
 10
209.659184
 20
501.949190
 42
0.007596
  0
VERTEX
  8
0
 10
211.488222
 20
504.332179
 42
0.010932
  0
VERTEX
  8
0
 10
213.027935
 20
506.500000
 42
-0.001886
  0
VERTEX
  8
0
 10
214.386358
 20
508.487796
 42
-0.002346
  0
VERTEX
  8
0
 10
215.664815
 20
510.325000
 42
-0.001907
  0
VERTEX
  8
0
 10
216.751116
 20
511.858081
 42
-0.017806
  0
VERTEX
  8
0
 10
217.245087
 20
512.500000
 42
0.038909
  0
VERTEX
  8
0
 10
221.384239
 20
518.375703
 42
0.014690
  0
VERTEX
  8
0
 10
226.263611
 20
527.169903
 42
0.014106
  0
VERTEX
  8
0
 10
230.551785
 20
536.070645
 42
0.051899
  0
VERTEX
  8
0
 10
232.497306
 20
542.000000
 42
-0.022034
  0
VERTEX
  8
0
 10
232.888111
 20
543.484578
 42
-0.017449
  0
VERTEX
  8
0
 10
233.435906
 20
545.051299
 42
-0.017779
  0
VERTEX
  8
0
 10
234.047589
 20
546.471047
 42
-0.041388
  0
VERTEX
  8
0
 10
234.627774
 20
547.472506
 42
0.043328
  0
VERTEX
  8
0
 10
235.153397
 20
548.387941
 42
0.029125
  0
VERTEX
  8
0
 10
235.596909
 20
549.510123
 42
0.029366
  0
VERTEX
  8
0
 10
235.900972
 20
550.655745
 42
0.050221
  0
VERTEX
  8
0
 10
236.000000
 20
551.639173
 42
-0.053220
  0
VERTEX
  8
0
 10
236.092881
 20
552.509322
 42
-0.058525
  0
VERTEX
  8
0
 10
236.367187
 20
553.311219
 42
-0.066427
  0
VERTEX
  8
0
 10
236.771482
 20
553.929420
 42
-0.135102
  0
VERTEX
  8
0
 10
237.250000
 20
554.250083
 42
0.297263
  0
VERTEX
  8
0
 10
237.906465
 20
555.076819
 42
0.010288
  0
VERTEX
  8
0
 10
238.219433
 20
559.377920
 42
0.011182
  0
VERTEX
  8
0
 10
238.413848
 20
565.922168
 42
0.002506
  0
VERTEX
  8
0
 10
238.439807
 20
577.083416
 42
0.003319
  0
VERTEX
  8
0
 10
238.322835
 20
589.628105
 42
0.013253
  0
VERTEX
  8
0
 10
237.996473
 20
597.308400
 42
0.019580
  0
VERTEX
  8
0
 10
237.341902
 20
603.338457
 42
0.016085
  0
VERTEX
  8
0
 10
236.185759
 20
609.711831
 42
0.006835
  0
VERTEX
  8
0
 10
234.184597
 20
618.443735
 42
0.052294
  0
VERTEX
  8
0
 10
232.769197
 20
622.401531
 42
0.132817
  0
VERTEX
  8
0
 10
231.133129
 20
624.297176
 42
0.149774
  0
VERTEX
  8
0
 10
228.839485
 20
625.000000
 42
0.112159
  0
VERTEX
  8
0
 10
226.963012
 20
624.573712
 42
0.258521
  0
VERTEX
  8
0
 10
226.151569
 20
623.432425
 42
0.065231
  0
VERTEX
  8
0
 10
226.198389
 20
620.857299
 42
0.003508
  0
VERTEX
  8
0
 10
227.464099
 20
612.781990
 42
-0.022556
  0
VERTEX
  8
0
 10
228.404609
 20
604.806591
 42
-0.009029
  0
VERTEX
  8
0
 10
229.000547
 20
593.826662
 42
-0.004021
  0
VERTEX
  8
0
 10
229.313861
 20
582.688774
 42
-0.144405
  0
VERTEX
  8
0
 10
228.641849
 20
580.229516
 42
0.085585
  0
VERTEX
  8
0
 10
228.383249
 20
579.587332
 42
0.008743
  0
VERTEX
  8
0
 10
228.065052
 20
577.972739
 42
0.010715
  0
VERTEX
  8
0
 10
227.758649
 20
576.020350
 42
0.008353
  0
VERTEX
  8
0
 10
227.506800
 20
573.887436
 42
-0.018728
  0
VERTEX
  8
0
 10
226.301979
 20
565.230021
 42
-0.019977
  0
VERTEX
  8
0
 10
224.471225
 20
556.873661
 42
-0.021350
  0
VERTEX
  8
0
 10
222.234395
 20
549.599318
 42
-0.048045
  0
VERTEX
  8
0
 10
219.794102
 20
544.375602
 42
-0.031431
  0
VERTEX
  8
0
 10
218.689058
 20
542.746020
 42
-0.074182
  0
VERTEX
  8
0
 10
217.631678
 20
541.733000
 42
-0.089792
  0
VERTEX
  8
0
 10
216.459981
 20
541.185991
 42
-0.064508
  0
VERTEX
  8
0
 10
215.024368
 20
541.000000
 42
-0.075104
  0
VERTEX
  8
0
 10
213.457983
 20
541.236618
 42
-0.126344
  0
VERTEX
  8
0
 10
212.331820
 20
541.928949
 42
-0.074942
  0
VERTEX
  8
0
 10
211.315888
 20
543.356140
 42
-0.014242
  0
VERTEX
  8
0
 10
209.951594
 20
546.250000
 42
-0.037978
  0
VERTEX
  8
0
 10
208.701677
 20
549.827309
 42
-0.032860
  0
VERTEX
  8
0
 10
207.932793
 20
553.729949
 42
-0.018644
  0
VERTEX
  8
0
 10
207.418189
 20
559.335525
 42
-0.003609
  0
VERTEX
  8
0
 10
206.939655
 20
569.500000
 42
0.005109
  0
VERTEX
  8
0
 10
206.573382
 20
576.812953
 42
0.005588
  0
VERTEX
  8
0
 10
206.066132
 20
583.901562
 42
0.005250
  0
VERTEX
  8
0
 10
205.500989
 20
589.953538
 42
0.027589
  0
VERTEX
  8
0
 10
204.973153
 20
593.250000
 42
0.011578
  0
VERTEX
  8
0
 10
204.201863
 20
596.441924
 42
0.072516
  0
VERTEX
  8
0
 10
203.542140
 20
597.980702
 42
0.149650
  0
VERTEX
  8
0
 10
202.694240
 20
598.730231
 42
0.107106
  0
VERTEX
  8
0
 10
201.449334
 20
599.000000
 42
0.000000
  0
VERTEX
  8
0
 10
199.174773
 20
599.000000
 42
0.000000
  0
VERTEX
  8
0
 10
198.807777
 20
577.750000
 42
0.003830
  0
VERTEX
  8
0
 10
198.724208
 20
569.052924
 42
0.004017
  0
VERTEX
  8
0
 10
198.776309
 20
560.492981
 42
0.003855
  0
VERTEX
  8
0
 10
198.937605
 20
553.105675
 42
0.017842
  0
VERTEX
  8
0
 10
199.216009
 20
548.843126
 42
0.027082
  0
VERTEX
  8
0
 10
200.083692
 20
543.292035
 42
0.027326
  0
VERTEX
  8
0
 10
201.544582
 20
537.884148
 42
0.025831
  0
VERTEX
  8
0
 10
203.274323
 20
533.426222
 42
0.149969
  0
VERTEX
  8
0
 10
204.917240
 20
531.551148
 42
-0.298962
  0
VERTEX
  8
0
 10
206.297635
 20
528.589971
 42
-0.059242
  0
VERTEX
  8
0
 10
204.698756
 20
522.654689
 42
-0.049158
  0
VERTEX
  8
0
 10
201.022976
 20
515.589384
 42
-0.040438
  0
VERTEX
  8
0
 10
195.816888
 20
508.864655
 42
0.000959
  0
VERTEX
  8
0
 10
194.394462
 20
507.299642
 42
0.000760
  0
VERTEX
  8
0
 10
192.862633
 20
505.602575
 42
0.000768
  0
VERTEX
  8
0
 10
191.446249
 20
504.023737
 42
0.001917
  0
VERTEX
  8
0
 10
190.417609
 20
502.864655
 42
-0.036312
  0
VERTEX
  8
0
 10
185.844986
 20
498.375443
 42
-0.040657
  0
VERTEX
  8
0
 10
180.831924
 20
494.778885
 42
-0.033739
  0
VERTEX
  8
0
 10
174.556920
 20
491.562826
 42
-0.015484
  0
VERTEX
  8
0
 10
166.000000
 20
488.192668
 42
-0.009173
  0
VERTEX
  8
0
 10
155.505123
 20
484.646123
 42
-0.020595
  0
VERTEX
  8
0
 10
147.395153
 20
482.433436
 42
-0.022844
  0
VERTEX
  8
0
 10
139.666152
 20
481.031071
 42
-0.014202
  0
VERTEX
  8
0
 10
130.500000
 20
480.061293
 42
0.001893
  0
VERTEX
  8
0
 10
125.192952
 20
479.631588
 42
0.002013
  0
VERTEX
  8
0
 10
119.996875
 20
479.169978
 42
0.001914
  0
VERTEX
  8
0
 10
115.528051
 20
478.737569
 42
0.009302
  0
VERTEX
  8
0
 10
113.000000
 20
478.435578
 42
0.000000
  0
VERTEX
  8
0
 10
108.500000
 20
477.812922
 42
0.000000
  0
VERTEX
  8
0
 10
105.250000
 20
483.205060
 42
-0.010420
  0
VERTEX
  8
0
 10
102.975985
 20
487.162155
 42
-0.073716
  0
VERTEX
  8
0
 10
102.210467
 20
489.236221
 42
-0.153993
  0
VERTEX
  8
0
 10
102.359961
 20
490.738694
 42
-0.095448
  0
VERTEX
  8
0
 10
103.362401
 20
492.219544
 42
0.084023
  0
VERTEX
  8
0
 10
105.412202
 20
495.104508
 42
0.011985
  0
VERTEX
  8
0
 10
108.423013
 20
501.737142
 42
0.013926
  0
VERTEX
  8
0
 10
111.483372
 20
509.527801
 42
0.014416
  0
VERTEX
  8
0
 10
114.067472
 20
517.388057
 42
0.029271
  0
VERTEX
  8
0
 10
116.357032
 20
527.154662
 42
0.017309
  0
VERTEX
  8
0
 10
117.994155
 20
539.018177
 42
0.017184
  0
VERTEX
  8
0
 10
118.823985
 20
551.175524
 42
0.025289
  0
VERTEX
  8
0
 10
118.644401
 20
561.877499
 42
-0.007928
  0
VERTEX
  8
0
 10
118.374713
 20
567.110606
 42
-0.054740
  0
VERTEX
  8
0
 10
118.563879
 20
569.671394
 42
-0.079108
  0
VERTEX
  8
0
 10
119.292000
 20
571.723270
 42
-0.025945
  0
VERTEX
  8
0
 10
120.975164
 20
574.463902
 42
0.025303
  0
VERTEX
  8
0
 10
123.761386
 20
578.987571
 42
0.018747
  0
VERTEX
  8
0
 10
126.390081
 20
584.240874
 42
0.018878
  0
VERTEX
  8
0
 10
128.591146
 20
589.615130
 42
0.027695
  0
VERTEX
  8
0
 10
130.078647
 20
594.500000
 42
0.037921
  0
VERTEX
  8
0
 10
131.046734
 20
600.335112
 42
0.010418
  0
VERTEX
  8
0
 10
131.677890
 20
609.634108
 42
0.010393
  0
VERTEX
  8
0
 10
131.921452
 20
618.946204
 42
0.038378
  0
VERTEX
  8
0
 10
131.502308
 20
624.810336
 42
0.015559
  0
VERTEX
  8
0
 10
131.071142
 20
627.190741
 42
0.101397
  0
VERTEX
  8
0
 10
130.586172
 20
628.299250
 42
0.191751
  0
VERTEX
  8
0
 10
129.853003
 20
628.776858
 42
0.085181
  0
VERTEX
  8
0
 10
128.679679
 20
628.810336
 42
0.123701
  0
VERTEX
  8
0
 10
127.493760
 20
628.326213
 42
0.138872
  0
VERTEX
  8
0
 10
126.738821
 20
627.355668
 42
0.060061
  0
VERTEX
  8
0
 10
126.230337
 20
625.482962
 42
0.008421
  0
VERTEX
  8
0
 10
125.716447
 20
621.500000
 42
-0.013610
  0
VERTEX
  8
0
 10
123.761122
 20
607.492019
 42
-0.035277
  0
VERTEX
  8
0
 10
121.374485
 20
597.586445
 42
-0.050509
  0
VERTEX
  8
0
 10
118.492230
 20
590.916471
 42
-0.147231
  0
VERTEX
  8
0
 10
114.927412
 20
587.462464
 42
-0.028447
  0
VERTEX
  8
0
 10
113.424370
 20
586.790576
 42
-0.099284
  0
VERTEX
  8
0
 10
112.381570
 20
586.616319
 42
-0.108046
  0
VERTEX
  8
0
 10
111.401322
 20
586.864115
 42
-0.037055
  0
VERTEX
  8
0
 10
110.135706
 20
587.617501
 42
-0.131432
  0
VERTEX
  8
0
 10
106.128759
 20
592.390018
 42
-0.047661
  0
VERTEX
  8
0
 10
103.139912
 20
600.791174
 42
-0.038654
  0
VERTEX
  8
0
 10
101.229484
 20
611.968545
 42
-0.022831
  0
VERTEX
  8
0
 10
100.601716
 20
625.500000
 42
-0.005386
  0
VERTEX
  8
0
 10
100.659175
 20
631.208222
 42
-0.005774
  0
VERTEX
  8
0
 10
100.839768
 20
636.782813
 42
-0.005492
  0
VERTEX
  8
0
 10
101.102711
 20
641.566091
 42
-0.026990
  0
VERTEX
  8
0
 10
101.425973
 20
644.250000
 42
0.007855
  0
VERTEX
  8
0
 10
101.913302
 20
647.306197
 42
0.120870
  0
VERTEX
  8
0
 10
101.809569
 20
648.359601
 42
0.266465
  0
VERTEX
  8
0
 10
101.230126
 20
648.858897
 42
0.047638
  0
VERTEX
  8
0
 10
99.752497
 20
649.000000
 42
0.048437
  0
VERTEX
  8
0
 10
98.708914
 20
648.898666
 42
0.041571
  0
VERTEX
  8
0
 10
97.647167
 20
648.597155
 42
0.043589
  0
VERTEX
  8
0
 10
96.723426
 20
648.154453
 42
0.086223
  0
SEQEND
  0
POLYLINE
  8
0
 66
1
 70
1
  0
VERTEX
  8
0
 10
91.466081
 20
472.000000
 42
0.000000
  0
VERTEX
  8
0
 10
92.138002
 20
467.500000
 42
0.000000
  0
VERTEX
  8
0
 10
90.075590
 20
470.500000
 42
-0.035222
  0
VERTEX
  8
0
 10
88.795583
 20
472.675376
 42
-0.065322
  0
VERTEX
  8
0
 10
88.130977
 20
474.609522
 42
-0.089430
  0
VERTEX
  8
0
 10
88.095862
 20
476.195844
 42
-0.158596
  0
VERTEX
  8
0
 10
88.683333
 20
477.350000
 42
-0.291428
  0
VERTEX
  8
0
 10
89.494219
 20
477.529840
 42
-0.187727
  0
VERTEX
  8
0
 10
90.241979
 20
476.873960
 42
-0.065764
  0
VERTEX
  8
0
 10
90.901557
 20
475.057400
 42
-0.017184
  0
SEQEND
  0
POLYLINE
  8
0
 66
1
 70
1
  0
VERTEX
  8
0
 10
111.020056
 20
427.524166
 42
-0.036979
  0
VERTEX
  8
0
 10
110.458306
 20
426.940945
 42
-0.037133
  0
VERTEX
  8
0
 10
109.817510
 20
426.447724
 42
-0.039716
  0
VERTEX
  8
0
 10
109.194979
 20
426.105716
 42
-0.106141
  0
VERTEX
  8
0
 10
108.702590
 20
426.000000
 42
-0.348897
  0
VERTEX
  8
0
 10
108.485302
 20
426.172637
 42
-0.167633
  0
VERTEX
  8
0
 10
108.524706
 20
426.549603
 42
-0.065107
  0
VERTEX
  8
0
 10
108.907366
 20
427.151420
 42
-0.025813
  0
VERTEX
  8
0
 10
109.575035
 20
427.870988
 42
-0.023242
  0
VERTEX
  8
0
 10
111.052640
 20
429.179295
 42
-0.232505
  0
VERTEX
  8
0
 10
111.835044
 20
429.355354
 42
-0.513888
  0
VERTEX
  8
0
 10
112.019747
 20
428.900656
 42
-0.032306
  0
SEQEND
  0
POLYLINE
  8
0
 66
1
 70
1
  0
VERTEX
  8
0
 10
21.391296
 20
386.577319
 42
-0.101918
  0
VERTEX
  8
0
 10
20.639229
 20
385.402809
 42
-0.119347
  0
VERTEX
  8
0
 10
19.521085
 20
384.700935
 42
-0.119734
  0
VERTEX
  8
0
 10
18.208646
 20
384.589577
 42
-0.103032
  0
VERTEX
  8
0
 10
16.909316
 20
385.077207
 42
-0.016066
  0
VERTEX
  8
0
 10
16.192632
 20
385.563841
 42
-0.337311
  0
VERTEX
  8
0
 10
16.122814
 20
385.796515
 42
-0.295035
  0
VERTEX
  8
0
 10
16.331536
 20
385.951227
 42
-0.013833
  0
VERTEX
  8
0
 10
17.250000
 20
385.984687
 42
0.055145
  0
VERTEX
  8
0
 10
17.919429
 20
386.064679
 42
0.074289
  0
VERTEX
  8
0
 10
18.485937
 20
386.289252
 42
0.093320
  0
VERTEX
  8
0
 10
18.866140
 20
386.617251
 42
0.169824
  0
VERTEX
  8
0
 10
19.000000
 20
387.000000
 42
-0.145266
  0
VERTEX
  8
0
 10
19.113181
 20
387.381345
 42
-0.099317
  0
VERTEX
  8
0
 10
19.431406
 20
387.706250
 42
-0.083434
  0
VERTEX
  8
0
 10
19.907207
 20
387.925222
 42
-0.066306
  0
VERTEX
  8
0
 10
20.468615
 20
388.000000
 42
-0.094986
  0
VERTEX
  8
0
 10
21.012336
 20
387.895768
 42
-0.155392
  0
VERTEX
  8
0
 10
21.371887
 20
387.600753
 42
-0.150035
  0
VERTEX
  8
0
 10
21.502155
 20
387.143443
 42
-0.086733
  0
SEQEND
  0
POLYLINE
  8
0
 66
1
 70
1
  0
VERTEX
  8
0
 10
365.750467
 20
315.750000
 42
-0.094989
  0
VERTEX
  8
0
 10
365.469005
 20
315.247785
 42
-0.055843
  0
VERTEX
  8
0
 10
364.967836
 20
314.772409
 42
-0.053079
  0
VERTEX
  8
0
 10
364.337846
 20
314.393606
 42
-0.061011
  0
VERTEX
  8
0
 10
363.670641
 20
314.177351
 42
-0.054411
  0
VERTEX
  8
0
 10
362.943861
 20
314.117000
 42
-0.213542
  0
VERTEX
  8
0
 10
362.547707
 20
314.306721
 42
-0.215418
  0
VERTEX
  8
0
 10
362.427290
 20
314.726994
 42
-0.055332
  0
VERTEX
  8
0
 10
362.610496
 20
315.427351
 42
-0.142900
  0
VERTEX
  8
0
 10
363.412840
 20
316.482158
 42
-0.134359
  0
VERTEX
  8
0
 10
364.676078
 20
316.971415
 42
-0.238300
  0
VERTEX
  8
0
 10
365.564415
 20
316.631476
 42
-0.271076
  0
SEQEND
  0
POLYLINE
  8
0
 66
1
 70
1
  0
VERTEX
  8
0
 10
229.789427
 20
302.600859
 42
-0.023968
  0
VERTEX
  8
0
 10
229.269923
 20
302.088723
 42
-0.038420
  0
VERTEX
  8
0
 10
228.775917
 20
301.710420
 42
-0.045304
  0
VERTEX
  8
0
 10
228.367062
 20
301.494344
 42
-0.297152
  0
VERTEX
  8
0
 10
228.149864
 20
301.534328
 42
-0.301864
  0
VERTEX
  8
0
 10
228.018937
 20
302.107085
 42
-0.076948
  0
VERTEX
  8
0
 10
228.512308
 20
302.978461
 42
-0.069007
  0
VERTEX
  8
0
 10
229.312518
 20
303.745464
 42
-0.157897
  0
VERTEX
  8
0
 10
230.098444
 20
304.000000
 42
-0.236389
  0
VERTEX
  8
0
 10
230.350678
 20
303.873691
 42
-0.218285
  0
VERTEX
  8
0
 10
230.412089
 20
303.589002
 42
-0.095760
  0
VERTEX
  8
0
 10
230.217338
 20
303.138842
 42
-0.036357
  0
SEQEND
  0
POLYLINE
  8
0
 66
1
 70
1
  0
VERTEX
  8
0
 10
243.000000
 20
299.000000
 42
-0.242407
  0
VERTEX
  8
0
 10
242.803010
 20
298.617555
 42
-0.069028
  0
VERTEX
  8
0
 10
242.192187
 20
298.298248
 42
-0.052836
  0
VERTEX
  8
0
 10
241.303322
 20
298.082357
 42
-0.034580
  0
VERTEX
  8
0
 10
240.250000
 20
298.015313
 42
-0.011096
  0
VERTEX
  8
0
 10
238.849063
 20
298.054211
 42
-0.155556
  0
VERTEX
  8
0
 10
238.383071
 20
298.228862
 42
-0.461139
  0
VERTEX
  8
0
 10
238.371881
 20
298.512621
 42
-0.043106
  0
VERTEX
  8
0
 10
239.000000
 20
299.000000
 42
-0.054370
  0
VERTEX
  8
0
 10
240.417104
 20
299.711128
 42
-0.089354
  0
VERTEX
  8
0
 10
241.733700
 20
299.948307
 42
-0.147327
  0
VERTEX
  8
0
 10
242.636788
 20
299.676305
 42
-0.251537
  0
SEQEND
  0
POLYLINE
  8
0
 66
1
 70
1
  0
VERTEX
  8
0
 10
134.500000
 20
298.000000
 42
-0.060810
  0
VERTEX
  8
0
 10
134.193797
 20
297.617485
 42
-0.051032
  0
VERTEX
  8
0
 10
133.787100
 20
297.293750
 42
-0.053229
  0
VERTEX
  8
0
 10
133.346558
 20
297.073302
 42
-0.089642
  0
VERTEX
  8
0
 10
132.940983
 20
297.000000
 42
-0.105429
  0
VERTEX
  8
0
 10
132.581949
 20
297.076556
 42
-0.099231
  0
VERTEX
  8
0
 10
132.276414
 20
297.293750
 42
-0.096318
  0
VERTEX
  8
0
 10
132.071618
 20
297.618268
 42
-0.092995
  0
VERTEX
  8
0
 10
132.000000
 20
298.000000
 42
-0.153634
  0
VERTEX
  8
0
 10
132.120018
 20
298.381379
 42
-0.097988
  0
VERTEX
  8
0
 10
132.457961
 20
298.706250
 42
-0.080552
  0
VERTEX
  8
0
 10
132.962904
 20
298.925455
 42
-0.062283
  0
VERTEX
  8
0
 10
133.559017
 20
299.000000
 42
-0.066118
  0
VERTEX
  8
0
 10
134.110654
 20
298.926733
 42
-0.138808
  0
VERTEX
  8
0
 10
134.478525
 20
298.706250
 42
-0.191142
  0
VERTEX
  8
0
 10
134.607943
 20
298.379648
 42
-0.139169
  0
SEQEND
  0
POLYLINE
  8
0
 66
1
 70
1
  0
VERTEX
  8
0
 10
155.500000
 20
298.000000
 42
-0.082592
  0
VERTEX
  8
0
 10
155.656512
 20
297.617900
 42
-0.161196
  0
VERTEX
  8
0
 10
155.625400
 20
297.293750
 42
-0.182303
  0
VERTEX
  8
0
 10
155.413961
 20
297.078288
 42
-0.108972
  0
VERTEX
  8
0
 10
155.059017
 20
297.000000
 42
-0.093332
  0
VERTEX
  8
0
 10
154.654762
 20
297.076123
 42
-0.096420
  0
VERTEX
  8
0
 10
154.311086
 20
297.293750
 42
-0.099167
  0
VERTEX
  8
0
 10
154.081062
 20
297.618444
 42
-0.105053
  0
VERTEX
  8
0
 10
154.000000
 20
298.000000
 42
-0.042167
  0
VERTEX
  8
0
 10
154.032345
 20
298.382849
 42
-0.061769
  0
VERTEX
  8
0
 10
154.129539
 20
298.706250
 42
-0.081139
  0
VERTEX
  8
0
 10
154.272352
 20
298.925540
 42
-0.210953
  0
VERTEX
  8
0
 10
154.440983
 20
299.000000
 42
-0.151918
  0
VERTEX
  8
0
 10
154.651710
 20
298.934461
 42
-0.038439
  0
VERTEX
  8
0
 10
154.933975
 20
298.706250
 42
-0.035638
  0
VERTEX
  8
0
 10
155.231006
 20
298.382774
 42
-0.029505
  0
SEQEND
  0
POLYLINE
  8
0
 66
1
 70
1
  0
VERTEX
  8
0
 10
372.062179
 20
296.500000
 42
-0.211319
  0
VERTEX
  8
0
 10
371.882451
 20
296.093737
 42
-0.064634
  0
VERTEX
  8
0
 10
371.318671
 20
295.700801
 42
-0.052031
  0
VERTEX
  8
0
 10
370.500170
 20
295.378020
 42
-0.036840
  0
VERTEX
  8
0
 10
369.531089
 20
295.183578
 42
-0.036974
  0
VERTEX
  8
0
 10
368.354404
 20
295.124158
 42
-0.114532
  0
VERTEX
  8
0
 10
367.589081
 20
295.320824
 42
-0.167846
  0
VERTEX
  8
0
 10
367.156275
 20
295.777467
 42
-0.106908
  0
VERTEX
  8
0
 10
367.000000
 20
296.500000
 42
-0.106908
  0
VERTEX
  8
0
 10
367.156275
 20
297.222533
 42
-0.167846
  0
VERTEX
  8
0
 10
367.589081
 20
297.679176
 42
-0.114532
  0
VERTEX
  8
0
 10
368.354404
 20
297.875842
 42
-0.036974
  0
VERTEX
  8
0
 10
369.531089
 20
297.816422
 42
-0.036840
  0
VERTEX
  8
0
 10
370.500170
 20
297.621980
 42
-0.052031
  0
VERTEX
  8
0
 10
371.318671
 20
297.299199
 42
-0.064634
  0
VERTEX
  8
0
 10
371.882451
 20
296.906263
 42
-0.211319
  0
SEQEND
  0
POLYLINE
  8
0
 66
1
 70
1
  0
VERTEX
  8
0
 10
269.000000
 20
292.968615
 42
-0.213422
  0
VERTEX
  8
0
 10
268.621817
 20
292.122972
 42
-0.075769
  0
VERTEX
  8
0
 10
267.486858
 20
291.381846
 42
-0.076784
  0
VERTEX
  8
0
 10
266.197884
 20
291.019605
 42
-0.230479
  0
VERTEX
  8
0
 10
265.356736
 20
291.309930
 42
-0.242984
  0
VERTEX
  8
0
 10
265.115307
 20
292.067091
 42
-0.130219
  0
VERTEX
  8
0
 10
265.532249
 20
292.983357
 42
-0.102648
  0
VERTEX
  8
0
 10
266.459491
 20
293.733481
 42
-0.119467
  0
VERTEX
  8
0
 10
267.559017
 20
294.000000
 42
-0.069866
  0
VERTEX
  8
0
 10
268.109745
 20
293.922668
 42
-0.085761
  0
VERTEX
  8
0
 10
268.576711
 20
293.697031
 42
-0.100101
  0
VERTEX
  8
0
 10
268.888923
 20
293.361922
 42
-0.138501
  0
SEQEND
  0
POLYLINE
  8
0
 66
1
 70
1
  0
VERTEX
  8
0
 10
295.009138
 20
292.511010
 42
-0.097855
  0
VERTEX
  8
0
 10
294.046303
 20
291.727641
 42
-0.168579
  0
VERTEX
  8
0
 10
293.036181
 20
291.570968
 42
-0.207864
  0
VERTEX
  8
0
 10
292.290058
 20
292.070573
 42
-0.143695
  0
VERTEX
  8
0
 10
292.000000
 20
293.059017
 42
-0.210101
  0
VERTEX
  8
0
 10
292.158174
 20
293.418824
 42
-0.081462
  0
VERTEX
  8
0
 10
292.623468
 20
293.723586
 42
-0.062031
  0
VERTEX
  8
0
 10
293.309880
 20
293.930969
 42
-0.042401
  0
VERTEX
  8
0
 10
294.122445
 20
294.000000
 42
-0.021696
  0
VERTEX
  8
0
 10
295.245391
 20
293.951250
 42
-0.241254
  0
VERTEX
  8
0
 10
295.613777
 20
293.720171
 42
-0.286403
  0
VERTEX
  8
0
 10
295.605448
 20
293.319179
 42
-0.028529
  0
SEQEND
  0
POLYLINE
  8
0
 66
1
 70
1
  0
VERTEX
  8
0
 10
476.000000
 20
293.000000
 42
-0.042167
  0
VERTEX
  8
0
 10
475.967655
 20
292.617151
 42
-0.061769
  0
VERTEX
  8
0
 10
475.870461
 20
292.293750
 42
-0.081139
  0
VERTEX
  8
0
 10
475.727648
 20
292.074460
 42
-0.210953
  0
VERTEX
  8
0
 10
475.559017
 20
292.000000
 42
-0.151918
  0
VERTEX
  8
0
 10
475.348290
 20
292.065539
 42
-0.038439
  0
VERTEX
  8
0
 10
475.066025
 20
292.293750
 42
-0.035638
  0
VERTEX
  8
0
 10
474.768994
 20
292.617226
 42
-0.029505
  0
VERTEX
  8
0
 10
474.500000
 20
293.000000
 42
-0.082592
  0
VERTEX
  8
0
 10
474.343488
 20
293.382100
 42
-0.161196
  0
VERTEX
  8
0
 10
474.374600
 20
293.706250
 42
-0.182303
  0
VERTEX
  8
0
 10
474.586039
 20
293.921712
 42
-0.108972
  0
VERTEX
  8
0
 10
474.940983
 20
294.000000
 42
-0.093332
  0
VERTEX
  8
0
 10
475.345238
 20
293.923877
 42
-0.096420
  0
VERTEX
  8
0
 10
475.688914
 20
293.706250
 42
-0.099167
  0
VERTEX
  8
0
 10
475.918938
 20
293.381556
 42
-0.105053
  0
SEQEND
  0
POLYLINE
  8
0
 66
1
 70
1
  0
VERTEX
  8
0
 10
283.500000
 20
291.000000
 42
-0.139169
  0
VERTEX
  8
0
 10
283.607943
 20
290.620352
 42
-0.191142
  0
VERTEX
  8
0
 10
283.478525
 20
290.293750
 42
-0.138808
  0
VERTEX
  8
0
 10
283.110654
 20
290.073267
 42
-0.066118
  0
VERTEX
  8
0
 10
282.559017
 20
290.000000
 42
-0.062283
  0
VERTEX
  8
0
 10
281.962904
 20
290.074545
 42
-0.080552
  0
VERTEX
  8
0
 10
281.457961
 20
290.293750
 42
-0.097988
  0
VERTEX
  8
0
 10
281.120018
 20
290.618621
 42
-0.153634
  0
VERTEX
  8
0
 10
281.000000
 20
291.000000
 42
-0.092995
  0
VERTEX
  8
0
 10
281.071618
 20
291.381732
 42
-0.096318
  0
VERTEX
  8
0
 10
281.276414
 20
291.706250
 42
-0.099231
  0
VERTEX
  8
0
 10
281.581949
 20
291.923444
 42
-0.105429
  0
VERTEX
  8
0
 10
281.940983
 20
292.000000
 42
-0.089642
  0
VERTEX
  8
0
 10
282.346558
 20
291.926698
 42
-0.053229
  0
VERTEX
  8
0
 10
282.787100
 20
291.706250
 42
-0.051032
  0
VERTEX
  8
0
 10
283.193797
 20
291.382515
 42
-0.060810
  0
SEQEND
  0
POLYLINE
  8
0
 66
1
 70
1
  0
VERTEX
  8
0
 10
163.045837
 20
288.085646
 42
-0.056912
  0
VERTEX
  8
0
 10
162.063665
 20
286.665597
 42
-0.163010
  0
VERTEX
  8
0
 10
161.041157
 20
286.068111
 42
-0.314757
  0
VERTEX
  8
0
 10
160.304979
 20
286.383045
 42
-0.140075
  0
VERTEX
  8
0
 10
160.000000
 20
287.450310
 42
-0.172216
  0
VERTEX
  8
0
 10
160.384520
 20
288.533586
 42
-0.053434
  0
VERTEX
  8
0
 10
161.629507
 20
289.769785
 42
-0.055562
  0
VERTEX
  8
0
 10
163.014737
 20
290.646146
 42
-0.319905
  0
VERTEX
  8
0
 10
163.822690
 20
290.510644
 42
-0.253488
  0
VERTEX
  8
0
 10
163.895381
 20
290.266053
 42
-0.025602
  0
VERTEX
  8
0
 10
163.734471
 20
289.658318
 42
-0.027162
  0
VERTEX
  8
0
 10
163.448864
 20
288.909394
 42
-0.018191
  0
SEQEND
  0
POLYLINE
  8
0
 66
1
 70
1
  0
VERTEX
  8
0
 10
175.000000
 20
285.500000
 42
-0.038131
  0
VERTEX
  8
0
 10
174.926884
 20
284.542644
 42
-0.057076
  0
VERTEX
  8
0
 10
174.706250
 20
283.734375
 42
-0.074992
  0
VERTEX
  8
0
 10
174.382936
 20
283.182831
 42
-0.226478
  0
VERTEX
  8
0
 10
174.000000
 20
283.000000
 42
-0.226478
  0
VERTEX
  8
0
 10
173.617064
 20
283.182831
 42
-0.074992
  0
VERTEX
  8
0
 10
173.293750
 20
283.734375
 42
-0.057076
  0
VERTEX
  8
0
 10
173.073116
 20
284.542644
 42
-0.038131
  0
VERTEX
  8
0
 10
173.000000
 20
285.500000
 42
-0.038131
  0
VERTEX
  8
0
 10
173.073116
 20
286.457356
 42
-0.057076
  0
VERTEX
  8
0
 10
173.293750
 20
287.265625
 42
-0.074992
  0
VERTEX
  8
0
 10
173.617064
 20
287.817169
 42
-0.226478
  0
VERTEX
  8
0
 10
174.000000
 20
288.000000
 42
-0.226478
  0
VERTEX
  8
0
 10
174.382936
 20
287.817169
 42
-0.074992
  0
VERTEX
  8
0
 10
174.706250
 20
287.265625
 42
-0.057076
  0
VERTEX
  8
0
 10
174.926884
 20
286.457356
 42
-0.038131
  0
SEQEND
  0
POLYLINE
  8
0
 66
1
 70
1
  0
VERTEX
  8
0
 10
287.000000
 20
276.240547
 42
-0.163755
  0
VERTEX
  8
0
 10
286.874713
 20
275.868262
 42
-0.033519
  0
VERTEX
  8
0
 10
286.412500
 20
275.337283
 42
-0.032010
  0
VERTEX
  8
0
 10
285.765701
 20
274.765962
 42
-0.025323
  0
VERTEX
  8
0
 10
285.000000
 20
274.232073
 42
-0.016374
  0
VERTEX
  8
0
 10
283.913739
 20
273.602161
 42
-0.147443
  0
VERTEX
  8
0
 10
283.380819
 20
273.494144
 42
-0.311920
  0
VERTEX
  8
0
 10
283.092158
 20
273.736053
 42
-0.067244
  0
VERTEX
  8
0
 10
283.000000
 20
274.418202
 42
-0.111420
  0
VERTEX
  8
0
 10
283.131497
 20
275.000971
 42
-0.075758
  0
VERTEX
  8
0
 10
283.514063
 20
275.566115
 42
-0.070426
  0
VERTEX
  8
0
 10
284.081141
 20
276.028333
 42
-0.072035
  0
VERTEX
  8
0
 10
284.750000
 20
276.310674
 42
0.002507
  0
VERTEX
  8
0
 10
285.438530
 20
276.494300
 42
0.003384
  0
VERTEX
  8
0
 10
286.059375
 20
276.667734
 42
0.002306
  0
VERTEX
  8
0
 10
286.578204
 20
276.819055
 42
0.036526
  0
VERTEX
  8
0
 10
286.750000
 20
276.883999
 42
-0.313788
  0
VERTEX
  8
0
 10
286.845038
 20
276.867325
 42
-0.104990
  0
VERTEX
  8
0
 10
286.926562
 20
276.742835
 42
-0.061219
  0
VERTEX
  8
0
 10
286.982143
 20
276.523606
 42
-0.031512
  0
SEQEND
  0
POLYLINE
  8
0
 66
1
 70
1
  0
VERTEX
  8
0
 10
228.729167
 20
275.395833
 42
-0.126455
  0
VERTEX
  8
0
 10
228.402231
 20
275.202593
 42
-0.060344
  0
VERTEX
  8
0
 10
227.916927
 20
275.123424
 42
-0.054150
  0
VERTEX
  8
0
 10
227.359369
 20
275.160852
 42
-0.051402
  0
VERTEX
  8
0
 10
226.812500
 20
275.316886
 42
-0.054073
  0
VERTEX
  8
0
 10
226.395823
 20
275.538436
 42
-0.470617
  0
VERTEX
  8
0
 10
226.378580
 20
275.720685
 42
-0.168741
  0
VERTEX
  8
0
 10
226.670344
 20
275.862007
 42
-0.018894
  0
VERTEX
  8
0
 10
227.416667
 20
275.921053
 42
-0.028489
  0
VERTEX
  8
0
 10
228.112848
 20
275.910055
 42
-0.077125
  0
VERTEX
  8
0
 10
228.592839
 20
275.799335
 42
-0.208169
  0
VERTEX
  8
0
 10
228.775380
 20
275.614691
 42
-0.296942
  0
SEQEND
  0
POLYLINE
  8
0
 66
1
 70
1
  0
VERTEX
  8
0
 10
242.770833
 20
268.812500
 42
-0.068669
  0
VERTEX
  8
0
 10
242.531882
 20
268.328838
 42
-0.047422
  0
VERTEX
  8
0
 10
242.142248
 20
267.857485
 42
-0.047417
  0
VERTEX
  8
0
 10
241.670725
 20
267.467931
 42
-0.068602
  0
VERTEX
  8
0
 10
241.186820
 20
267.228940
 42
-0.108271
  0
VERTEX
  8
0
 10
240.744440
 20
267.181849
 42
-0.257062
  0
VERTEX
  8
0
 10
240.482386
 20
267.366128
 42
-0.161356
  0
VERTEX
  8
0
 10
240.426249
 20
267.780247
 42
-0.045328
  0
VERTEX
  8
0
 10
240.606309
 20
268.416440
 42
-0.096137
  0
VERTEX
  8
0
 10
241.266086
 20
269.473274
 42
-0.161390
  0
VERTEX
  8
0
 10
242.175124
 20
269.971061
 42
-0.352314
  0
VERTEX
  8
0
 10
242.738788
 20
269.665692
 42
-0.181604
  0
SEQEND
  0
POLYLINE
  8
0
 66
1
 70
1
  0
VERTEX
  8
0
 10
386.361626
 20
263.500000
 42
-0.021360
  0
VERTEX
  8
0
 10
386.112506
 20
262.925442
 42
-0.030395
  0
VERTEX
  8
0
 10
385.839659
 20
262.440625
 42
-0.030693
  0
VERTEX
  8
0
 10
385.579329
 20
262.087111
 42
-0.222225
  0
VERTEX
  8
0
 10
385.393011
 20
262.000000
 42
-0.289661
  0
VERTEX
  8
0
 10
385.241071
 20
262.096084
 42
-0.046727
  0
VERTEX
  8
0
 10
385.115447
 20
262.440625
 42
-0.039339
  0
VERTEX
  8
0
 10
385.028469
 20
262.925176
 42
-0.024748
  0
VERTEX
  8
0
 10
385.000000
 20
263.500000
 42
-0.062722
  0
VERTEX
  8
0
 10
385.072230
 20
264.073532
 42
-0.080880
  0
VERTEX
  8
0
 10
385.284531
 20
264.559375
 42
-0.098158
  0
VERTEX
  8
0
 10
385.599211
 20
264.884506
 42
-0.152681
  0
VERTEX
  8
0
 10
385.968615
 20
265.000000
 42
-0.184534
  0
VERTEX
  8
0
 10
386.289193
 20
264.877514
 42
-0.147206
  0
VERTEX
  8
0
 10
386.483616
 20
264.559375
 42
-0.100118
  0
VERTEX
  8
0
 10
386.511135
 20
264.074366
 42
-0.055937
  0
SEQEND
  0
POLYLINE
  8
0
 66
1
 70
1
  0
VERTEX
  8
0
 10
250.813108
 20
262.250000
 42
-0.189436
  0
VERTEX
  8
0
 10
249.979926
 20
260.929198
 42
-0.112510
  0
VERTEX
  8
0
 10
248.249311
 20
260.178023
 42
-0.147319
  0
VERTEX
  8
0
 10
246.662152
 20
260.348659
 42
-0.301455
  0
VERTEX
  8
0
 10
246.000000
 20
261.347116
 42
-0.076602
  0
VERTEX
  8
0
 10
246.093368
 20
261.952978
 42
-0.063813
  0
VERTEX
  8
0
 10
246.367188
 20
262.544920
 42
-0.065463
  0
VERTEX
  8
0
 10
246.772062
 20
263.034024
 42
-0.091522
  0
VERTEX
  8
0
 10
247.250000
 20
263.337719
 42
-0.040703
  0
VERTEX
  8
0
 10
248.939536
 20
263.864366
 42
-0.129998
  0
VERTEX
  8
0
 10
250.109835
 20
263.820176
 42
-0.230038
  0
VERTEX
  8
0
 10
250.721817
 20
263.251774
 42
-0.140521
  0
SEQEND
  0
POLYLINE
  8
0
 66
1
 70
1
  0
VERTEX
  8
0
 10
122.350815
 20
257.765313
 42
-0.149922
  0
VERTEX
  8
0
 10
122.595869
 20
257.476927
 42
-0.371224
  0
VERTEX
  8
0
 10
122.518949
 20
257.231911
 42
-0.113080
  0
VERTEX
  8
0
 10
122.032684
 20
257.065089
 42
-0.024702
  0
VERTEX
  8
0
 10
121.143011
 20
257.015313
 42
-0.034630
  0
VERTEX
  8
0
 10
120.036644
 20
257.084814
 42
-0.150662
  0
VERTEX
  8
0
 10
119.446822
 20
257.356063
 42
-0.222907
  0
VERTEX
  8
0
 10
119.241342
 20
257.839324
 42
-0.082638
  0
VERTEX
  8
0
 10
119.393011
 20
258.581787
 42
0.022115
  0
VERTEX
  8
0
 10
119.635536
 20
259.308310
 42
0.013291
  0
VERTEX
  8
0
 10
119.861701
 20
260.188962
 42
0.013299
  0
VERTEX
  8
0
 10
120.040349
 20
261.078450
 42
0.022543
  0
VERTEX
  8
0
 10
120.136182
 20
261.831787
 42
-0.064510
  0
VERTEX
  8
0
 10
120.226531
 20
262.255067
 42
-0.605190
  0
VERTEX
  8
0
 10
120.368847
 20
262.275588
 42
-0.097589
  0
VERTEX
  8
0
 10
120.548143
 20
261.885655
 42
-0.013167
  0
VERTEX
  8
0
 10
120.736997
 20
261.000000
 42
0.035215
  0
VERTEX
  8
0
 10
120.999600
 20
259.989114
 42
0.034568
  0
VERTEX
  8
0
 10
121.402717
 20
259.018561
 42
0.036644
  0
VERTEX
  8
0
 10
121.876772
 20
258.220553
 42
0.098488
  0
SEQEND
  0
POLYLINE
  8
0
 66
1
 70
1
  0
VERTEX
  8
0
 10
452.662281
 20
247.750000
 42
-0.174857
  0
VERTEX
  8
0
 10
452.474999
 20
247.540618
 42
-0.447206
  0
VERTEX
  8
0
 10
452.306058
 20
247.601562
 42
-0.078554
  0
VERTEX
  8
0
 10
452.189089
 20
248.108560
 42
-0.017491
  0
VERTEX
  8
0
 10
452.157895
 20
249.000000
 42
-0.017491
  0
VERTEX
  8
0
 10
452.189089
 20
249.891440
 42
-0.078554
  0
VERTEX
  8
0
 10
452.306058
 20
250.398438
 42
-0.447206
  0
VERTEX
  8
0
 10
452.474999
 20
250.459382
 42
-0.174857
  0
VERTEX
  8
0
 10
452.662281
 20
250.250000
 42
-0.057986
  0
VERTEX
  8
0
 10
452.818615
 20
249.679992
 42
-0.037979
  0
VERTEX
  8
0
 10
452.870340
 20
249.000000
 42
-0.037979
  0
VERTEX
  8
0
 10
452.818615
 20
248.320008
 42
-0.057986
  0
SEQEND
  0
POLYLINE
  8
0
 66
1
 70
1
  0
VERTEX
  8
0
 10
395.000000
 20
249.000000
 42
-0.105053
  0
VERTEX
  8
0
 10
394.918938
 20
248.618444
 42
-0.099167
  0
VERTEX
  8
0
 10
394.688914
 20
248.293750
 42
-0.096420
  0
VERTEX
  8
0
 10
394.345238
 20
248.076123
 42
-0.093332
  0
VERTEX
  8
0
 10
393.940983
 20
248.000000
 42
-0.108972
  0
VERTEX
  8
0
 10
393.586039
 20
248.078288
 42
-0.182303
  0
VERTEX
  8
0
 10
393.374600
 20
248.293750
 42
-0.161196
  0
VERTEX
  8
0
 10
393.343488
 20
248.617900
 42
-0.082592
  0
VERTEX
  8
0
 10
393.500000
 20
249.000000
 42
-0.029505
  0
VERTEX
  8
0
 10
393.768994
 20
249.382774
 42
-0.035638
  0
VERTEX
  8
0
 10
394.066025
 20
249.706250
 42
-0.038439
  0
VERTEX
  8
0
 10
394.348290
 20
249.934461
 42
-0.151918
  0
VERTEX
  8
0
 10
394.559017
 20
250.000000
 42
-0.210953
  0
VERTEX
  8
0
 10
394.727648
 20
249.925540
 42
-0.081139
  0
VERTEX
  8
0
 10
394.870461
 20
249.706250
 42
-0.061769
  0
VERTEX
  8
0
 10
394.967655
 20
249.382849
 42
-0.042167
  0
SEQEND
  0
POLYLINE
  8
0
 66
1
 70
1
  0
VERTEX
  8
0
 10
160.000000
 20
246.809678
 42
-0.310331
  0
VERTEX
  8
0
 10
159.626672
 20
246.266106
 42
-0.180578
  0
VERTEX
  8
0
 10
158.801325
 20
246.257968
 42
-0.106345
  0
VERTEX
  8
0
 10
157.819479
 20
246.872631
 42
-0.120025
  0
VERTEX
  8
0
 10
157.228940
 20
247.813180
 42
-0.108271
  0
VERTEX
  8
0
 10
157.181849
 20
248.255560
 42
-0.257062
  0
VERTEX
  8
0
 10
157.366128
 20
248.517614
 42
-0.161356
  0
VERTEX
  8
0
 10
157.780247
 20
248.573751
 42
-0.045328
  0
VERTEX
  8
0
 10
158.416440
 20
248.393691
 42
-0.049992
  0
VERTEX
  8
0
 10
159.022161
 20
248.088813
 42
-0.054888
  0
VERTEX
  8
0
 10
159.534829
 20
247.677724
 42
-0.062067
  0
VERTEX
  8
0
 10
159.884859
 20
247.227906
 42
-0.135140
  0
SEQEND
  0
POLYLINE
  8
0
 66
1
 70
1
  0
VERTEX
  8
0
 10
494.729167
 20
248.395833
 42
-0.126455
  0
VERTEX
  8
0
 10
494.402231
 20
248.202593
 42
-0.060344
  0
VERTEX
  8
0
 10
493.916927
 20
248.123424
 42
-0.054150
  0
VERTEX
  8
0
 10
493.359369
 20
248.160852
 42
-0.051402
  0
VERTEX
  8
0
 10
492.812500
 20
248.316886
 42
-0.054073
  0
VERTEX
  8
0
 10
492.395823
 20
248.538436
 42
-0.470617
  0
VERTEX
  8
0
 10
492.378580
 20
248.720685
 42
-0.168741
  0
VERTEX
  8
0
 10
492.670344
 20
248.862007
 42
-0.018894
  0
VERTEX
  8
0
 10
493.416667
 20
248.921053
 42
-0.028489
  0
VERTEX
  8
0
 10
494.112848
 20
248.910055
 42
-0.077125
  0
VERTEX
  8
0
 10
494.592839
 20
248.799335
 42
-0.208169
  0
VERTEX
  8
0
 10
494.775380
 20
248.614691
 42
-0.296942
  0
SEQEND
  0
POLYLINE
  8
0
 66
1
 70
1
  0
VERTEX
  8
0
 10
384.729167
 20
245.395833
 42
-0.126455
  0
VERTEX
  8
0
 10
384.402231
 20
245.202593
 42
-0.060344
  0
VERTEX
  8
0
 10
383.916927
 20
245.123424
 42
-0.054150
  0
VERTEX
  8
0
 10
383.359369
 20
245.160852
 42
-0.051402
  0
VERTEX
  8
0
 10
382.812500
 20
245.316886
 42
-0.054073
  0
VERTEX
  8
0
 10
382.395823
 20
245.538436
 42
-0.470617
  0
VERTEX
  8
0
 10
382.378580
 20
245.720685
 42
-0.168741
  0
VERTEX
  8
0
 10
382.670344
 20
245.862007
 42
-0.018894
  0
VERTEX
  8
0
 10
383.416667
 20
245.921053
 42
-0.028489
  0
VERTEX
  8
0
 10
384.112848
 20
245.910055
 42
-0.077125
  0
VERTEX
  8
0
 10
384.592839
 20
245.799335
 42
-0.208169
  0
VERTEX
  8
0
 10
384.775380
 20
245.614691
 42
-0.296942
  0
SEQEND
  0
POLYLINE
  8
0
 66
1
 70
1
  0
VERTEX
  8
0
 10
125.500000
 20
238.359477
 42
0.007847
  0
VERTEX
  8
0
 10
126.433433
 20
237.207940
 42
0.004478
  0
VERTEX
  8
0
 10
127.595135
 20
235.844898
 42
0.004471
  0
VERTEX
  8
0
 10
128.788991
 20
234.493876
 42
0.007392
  0
VERTEX
  8
0
 10
129.823864
 20
233.377309
 42
-0.029444
  0
VERTEX
  8
0
 10
130.685412
 20
232.361385
 42
-0.036857
  0
VERTEX
  8
0
 10
131.352950
 20
231.321779
 42
-0.040156
  0
VERTEX
  8
0
 10
131.761505
 20
230.399130
 42
-0.166087
  0
VERTEX
  8
0
 10
131.765965
 20
229.797896
 42
-0.523108
  0
VERTEX
  8
0
 10
131.363089
 20
229.679810
 42
-0.024097
  0
VERTEX
  8
0
 10
130.100872
 20
230.802561
 42
-0.022850
  0
VERTEX
  8
0
 10
128.483848
 20
232.538555
 42
-0.012097
  0
VERTEX
  8
0
 10
126.633655
 20
234.826306
 42
-0.007389
  0
VERTEX
  8
0
 10
124.868377
 20
237.191940
 42
-0.013654
  0
VERTEX
  8
0
 10
123.516061
 20
239.172894
 42
-0.009791
  0
VERTEX
  8
0
 10
122.555969
 20
240.731473
 42
-0.599584
  0
VERTEX
  8
0
 10
122.691553
 20
240.953759
 42
-0.152272
  0
VERTEX
  8
0
 10
123.118526
 20
240.793358
 42
-0.021053
  0
VERTEX
  8
0
 10
123.850019
 20
240.172615
 42
-0.022538
  0
VERTEX
  8
0
 10
124.675005
 20
239.338590
 42
-0.017353
  0
SEQEND
  0
POLYLINE
  8
0
 66
1
 70
1
  0
VERTEX
  8
0
 10
242.770833
 20
239.187500
 42
-0.179733
  0
VERTEX
  8
0
 10
242.755382
 20
238.732137
 42
-0.142962
  0
VERTEX
  8
0
 10
242.446404
 20
238.345000
 42
-0.098609
  0
VERTEX
  8
0
 10
241.860897
 20
238.085896
 42
-0.055066
  0
VERTEX
  8
0
 10
241.083333
 20
238.000000
 42
-0.065198
  0
VERTEX
  8
0
 10
239.805115
 20
238.167385
 42
-0.196257
  0
VERTEX
  8
0
 10
239.117382
 20
238.688046
 42
-0.241718
  0
VERTEX
  8
0
 10
239.070848
 20
239.451720
 42
-0.093249
  0
VERTEX
  8
0
 10
239.687500
 20
240.354167
 42
-0.155894
  0
VERTEX
  8
0
 10
240.468249
 20
240.756771
 42
-0.132907
  0
VERTEX
  8
0
 10
241.393926
 20
240.666264
 42
-0.117220
  0
VERTEX
  8
0
 10
242.235871
 20
240.096290
 42
-0.105531
  0
SEQEND
  0
POLYLINE
  8
0
 66
1
 70
1
  0
VERTEX
  8
0
 10
260.000000
 20
238.500000
 42
-0.064853
  0
VERTEX
  8
0
 10
259.925306
 20
237.926543
 42
-0.082425
  0
VERTEX
  8
0
 10
259.706250
 20
237.440625
 42
-0.098894
  0
VERTEX
  8
0
 10
259.381354
 20
237.115568
 42
-0.148195
  0
VERTEX
  8
0
 10
259.000000
 20
237.000000
 42
-0.148195
  0
VERTEX
  8
0
 10
258.618646
 20
237.115568
 42
-0.098894
  0
VERTEX
  8
0
 10
258.293750
 20
237.440625
 42
-0.082425
  0
VERTEX
  8
0
 10
258.074694
 20
237.926543
 42
-0.064853
  0
VERTEX
  8
0
 10
258.000000
 20
238.500000
 42
-0.064853
  0
VERTEX
  8
0
 10
258.074694
 20
239.073457
 42
-0.082425
  0
VERTEX
  8
0
 10
258.293750
 20
239.559375
 42
-0.098894
  0
VERTEX
  8
0
 10
258.618646
 20
239.884432
 42
-0.148195
  0
VERTEX
  8
0
 10
259.000000
 20
240.000000
 42
-0.148195
  0
VERTEX
  8
0
 10
259.381354
 20
239.884432
 42
-0.098894
  0
VERTEX
  8
0
 10
259.706250
 20
239.559375
 42
-0.082425
  0
VERTEX
  8
0
 10
259.925306
 20
239.073457
 42
-0.064853
  0
SEQEND
  0
POLYLINE
  8
0
 66
1
 70
1
  0
VERTEX
  8
0
 10
159.309017
 20
231.690983
 42
-0.158106
  0
VERTEX
  8
0
 10
159.030730
 20
231.454864
 42
-0.171010
  0
VERTEX
  8
0
 10
158.676562
 20
231.436698
 42
-0.120394
  0
VERTEX
  8
0
 10
158.291720
 20
231.660702
 42
-0.062696
  0
VERTEX
  8
0
 10
157.940983
 20
232.095492
 42
-0.056471
  0
VERTEX
  8
0
 10
157.673120
 20
232.663357
 42
-0.053919
  0
VERTEX
  8
0
 10
157.533826
 20
233.285684
 42
-0.058260
  0
VERTEX
  8
0
 10
157.536106
 20
233.866893
 42
-0.108741
  0
VERTEX
  8
0
 10
157.690983
 20
234.309017
 42
-0.158106
  0
VERTEX
  8
0
 10
157.969270
 20
234.545136
 42
-0.171010
  0
VERTEX
  8
0
 10
158.323438
 20
234.563302
 42
-0.120394
  0
VERTEX
  8
0
 10
158.708280
 20
234.339298
 42
-0.062696
  0
VERTEX
  8
0
 10
159.059017
 20
233.904508
 42
-0.056471
  0
VERTEX
  8
0
 10
159.326880
 20
233.336643
 42
-0.053919
  0
VERTEX
  8
0
 10
159.466174
 20
232.714316
 42
-0.058260
  0
VERTEX
  8
0
 10
159.463894
 20
232.133107
 42
-0.108741
  0
SEQEND
  0
POLYLINE
  8
0
 66
1
 70
1
  0
VERTEX
  8
0
 10
381.124088
 20
229.733333
 42
-0.011214
  0
VERTEX
  8
0
 10
380.463552
 20
229.106486
 42
-0.400052
  0
VERTEX
  8
0
 10
380.270328
 20
229.111181
 42
-0.286372
  0
VERTEX
  8
0
 10
380.218210
 20
229.336218
 42
-0.008399
  0
VERTEX
  8
0
 10
380.564293
 20
230.293128
 42
-0.036269
  0
VERTEX
  8
0
 10
380.866277
 20
230.940734
 42
-0.070189
  0
VERTEX
  8
0
 10
381.210949
 20
231.395085
 42
-0.120343
  0
VERTEX
  8
0
 10
381.538684
 20
231.592490
 42
-0.278911
  0
VERTEX
  8
0
 10
381.806872
 20
231.526461
 42
-0.207420
  0
VERTEX
  8
0
 10
381.927901
 20
231.220211
 42
-0.082976
  0
VERTEX
  8
0
 10
381.837219
 20
230.768815
 42
-0.063152
  0
VERTEX
  8
0
 10
381.558688
 20
230.246577
 42
-0.043285
  0
SEQEND
  0
POLYLINE
  8
0
 66
1
 70
1
  0
VERTEX
  8
0
 10
168.729167
 20
208.395833
 42
-0.126455
  0
VERTEX
  8
0
 10
168.402231
 20
208.202593
 42
-0.060344
  0
VERTEX
  8
0
 10
167.916927
 20
208.123424
 42
-0.054150
  0
VERTEX
  8
0
 10
167.359369
 20
208.160852
 42
-0.051402
  0
VERTEX
  8
0
 10
166.812500
 20
208.316886
 42
-0.054073
  0
VERTEX
  8
0
 10
166.395823
 20
208.538436
 42
-0.470617
  0
VERTEX
  8
0
 10
166.378580
 20
208.720685
 42
-0.168741
  0
VERTEX
  8
0
 10
166.670344
 20
208.862007
 42
-0.018894
  0
VERTEX
  8
0
 10
167.416667
 20
208.921053
 42
-0.028489
  0
VERTEX
  8
0
 10
168.112848
 20
208.910055
 42
-0.077125
  0
VERTEX
  8
0
 10
168.592839
 20
208.799335
 42
-0.208169
  0
VERTEX
  8
0
 10
168.775380
 20
208.614691
 42
-0.296942
  0
SEQEND
  0
POLYLINE
  8
0
 66
1
 70
1
  0
VERTEX
  8
0
 10
365.993411
 20
199.750000
 42
0.025194
  0
VERTEX
  8
0
 10
366.068398
 20
198.312974
 42
0.039954
  0
VERTEX
  8
0
 10
366.291814
 20
197.101562
 42
0.047770
  0
VERTEX
  8
0
 10
366.613151
 20
196.241893
 42
0.286910
  0
VERTEX
  8
0
 10
367.000000
 20
196.000000
 42
-0.170265
  0
VERTEX
  8
0
 10
367.382023
 20
195.866026
 42
-0.093877
  0
VERTEX
  8
0
 10
367.708060
 20
195.485938
 42
-0.074587
  0
VERTEX
  8
0
 10
367.929676
 20
194.919433
 42
-0.055175
  0
VERTEX
  8
0
 10
368.006161
 20
194.250000
 42
0.057552
  0
VERTEX
  8
0
 10
368.109451
 20
193.382416
 42
0.020209
  0
VERTEX
  8
0
 10
368.449327
 20
192.172672
 42
0.019755
  0
VERTEX
  8
0
 10
368.933887
 20
190.860740
 42
0.021857
  0
VERTEX
  8
0
 10
369.506161
 20
189.635693
 42
-0.016543
  0
VERTEX
  8
0
 10
370.663594
 20
187.225144
 42
-0.104488
  0
VERTEX
  8
0
 10
370.941118
 20
185.899309
 42
-0.553792
  0
VERTEX
  8
0
 10
370.514430
 20
185.633330
 42
-0.083019
  0
VERTEX
  8
0
 10
369.500000
 20
186.357143
 42
-0.032161
  0
VERTEX
  8
0
 10
368.925966
 20
187.010186
 42
-0.032192
  0
VERTEX
  8
0
 10
368.440625
 20
187.731250
 42
-0.033960
  0
VERTEX
  8
0
 10
368.102270
 20
188.413868
 42
-0.098387
  0
VERTEX
  8
0
 10
368.000000
 20
188.928571
 42
0.092210
  0
VERTEX
  8
0
 10
367.923923
 20
189.337584
 42
0.096076
  0
VERTEX
  8
0
 10
367.706250
 20
189.685268
 42
0.099376
  0
VERTEX
  8
0
 10
367.381541
 20
189.917947
 42
0.106313
  0
VERTEX
  8
0
 10
367.000000
 20
190.000000
 42
-0.113217
  0
VERTEX
  8
0
 10
366.618535
 20
190.087499
 42
-0.100251
  0
VERTEX
  8
0
 10
366.293750
 20
190.334804
 42
-0.094072
  0
VERTEX
  8
0
 10
366.075826
 20
190.704545
 42
-0.086463
  0
VERTEX
  8
0
 10
366.000000
 20
191.139757
 42
0.108288
  0
VERTEX
  8
0
 10
365.885780
 20
191.660961
 42
0.044370
  0
VERTEX
  8
0
 10
365.523830
 20
192.292895
 42
0.041188
  0
VERTEX
  8
0
 10
364.999207
 20
192.927038
 42
0.041507
  0
VERTEX
  8
0
 10
364.378997
 20
193.464821
 42
-0.129948
  0
VERTEX
  8
0
 10
363.602795
 20
194.422766
 42
-0.046330
  0
VERTEX
  8
0
 10
363.027728
 20
196.102034
 42
-0.032078
  0
VERTEX
  8
0
 10
362.597893
 20
198.558818
 42
-0.011739
  0
VERTEX
  8
0
 10
362.296187
 20
202.075064
 42
0.000000
  0
VERTEX
  8
0
 10
361.834381
 20
209.500000
 42
0.000000
  0
VERTEX
  8
0
 10
363.910601
 20
206.500000
 42
-0.045275
  0
VERTEX
  8
0
 10
364.730706
 20
205.050556
 42
-0.031289
  0
VERTEX
  8
0
 10
365.398342
 20
203.286745
 42
-0.031169
  0
VERTEX
  8
0
 10
365.843717
 20
201.442657
 42
-0.043252
  0
SEQEND
  0
POLYLINE
  8
0
 66
1
 70
1
  0
VERTEX
  8
0
 10
188.250000
 20
203.578407
 42
-0.073888
  0
VERTEX
  8
0
 10
189.662264
 20
202.667839
 42
-0.387270
  0
VERTEX
  8
0
 10
189.756529
 20
201.826973
 42
-0.154084
  0
VERTEX
  8
0
 10
188.648513
 20
201.005956
 42
-0.019278
  0
VERTEX
  8
0
 10
185.750000
 20
200.130292
 42
0.016797
  0
VERTEX
  8
0
 10
181.669531
 20
198.919603
 42
0.121813
  0
VERTEX
  8
0
 10
179.954231
 20
197.833528
 42
0.187957
  0
VERTEX
  8
0
 10
179.319567
 20
196.299730
 42
0.051596
  0
VERTEX
  8
0
 10
179.538580
 20
193.646045
 42
0.019770
  0
VERTEX
  8
0
 10
179.858311
 20
192.248960
 42
0.030199
  0
VERTEX
  8
0
 10
180.255077
 20
191.071026
 42
0.030315
  0
VERTEX
  8
0
 10
180.669025
 20
190.205011
 42
0.272536
  0
VERTEX
  8
0
 10
181.017206
 20
190.000000
 42
-0.368550
  0
VERTEX
  8
0
 10
181.234921
 20
189.814298
 42
-0.075731
  0
VERTEX
  8
0
 10
181.238859
 20
189.267917
 42
-0.047688
  0
VERTEX
  8
0
 10
181.042748
 20
188.463994
 42
-0.024932
  0
VERTEX
  8
0
 10
180.655915
 20
187.507802
 42
-0.038194
  0
VERTEX
  8
0
 10
180.121345
 20
186.553535
 42
-0.044840
  0
VERTEX
  8
0
 10
179.472363
 20
185.745395
 42
-0.050499
  0
VERTEX
  8
0
 10
178.810855
 20
185.184061
 42
-0.150243
  0
VERTEX
  8
0
 10
178.250000
 20
185.007802
 42
0.265577
  0
VERTEX
  8
0
 10
177.295269
 20
184.454279
 42
0.180050
  0
VERTEX
  8
0
 10
177.077410
 20
183.184612
 42
0.100871
  0
VERTEX
  8
0
 10
177.792475
 20
181.432150
 42
0.067068
  0
VERTEX
  8
0
 10
179.232118
 20
179.798685
 42
-0.050016
  0
VERTEX
  8
0
 10
180.241297
 20
178.729208
 42
-0.073049
  0
VERTEX
  8
0
 10
180.873256
 20
177.601034
 42
-0.071567
  0
VERTEX
  8
0
 10
181.161991
 20
176.321158
 42
-0.045908
  0
VERTEX
  8
0
 10
181.142526
 20
174.795777
 42
0.039194
  0
VERTEX
  8
0
 10
181.109014
 20
173.515171
 42
0.050571
  0
VERTEX
  8
0
 10
181.288491
 20
172.353145
 42
0.059115
  0
VERTEX
  8
0
 10
181.648691
 20
171.431004
 42
0.129566
  0
VERTEX
  8
0
 10
182.160409
 20
170.879700
 42
-0.018904
  0
VERTEX
  8
0
 10
182.809166
 20
170.433259
 42
-0.334723
  0
VERTEX
  8
0
 10
182.876262
 20
170.203614
 42
-0.291660
  0
VERTEX
  8
0
 10
182.670746
 20
170.050125
 42
-0.016181
  0
VERTEX
  8
0
 10
181.833333
 20
170.015313
 42
0.068429
  0
VERTEX
  8
0
 10
181.158471
 20
169.916192
 42
0.061379
  0
VERTEX
  8
0
 10
180.508087
 20
169.637311
 42
0.064748
  0
VERTEX
  8
0
 10
179.979003
 20
169.229224
 42
0.100576
  0
VERTEX
  8
0
 10
179.662281
 20
168.750000
 42
-0.603372
  0
VERTEX
  8
0
 10
179.465985
 20
168.730012
 42
-0.102116
  0
VERTEX
  8
0
 10
179.281058
 20
169.189063
 42
-0.029279
  0
VERTEX
  8
0
 10
179.139782
 20
170.351991
 42
-0.010860
  0
VERTEX
  8
0
 10
179.072787
 20
172.000000
 42
0.027198
  0
VERTEX
  8
0
 10
178.930875
 20
173.932737
 42
0.020886
  0
VERTEX
  8
0
 10
178.573864
 20
176.019515
 42
0.021299
  0
VERTEX
  8
0
 10
178.073613
 20
177.948058
 42
0.046117
  0
VERTEX
  8
0
 10
177.493839
 20
179.364307
 42
-0.028348
  0
VERTEX
  8
0
 10
176.921836
 20
180.631388
 42
-0.021793
  0
VERTEX
  8
0
 10
176.438815
 20
182.070685
 42
-0.022239
  0
VERTEX
  8
0
 10
176.105038
 20
183.460270
 42
-0.047852
  0
VERTEX
  8
0
 10
176.000000
 20
184.555290
 42
0.039417
  0
VERTEX
  8
0
 10
175.926103
 20
185.491209
 42
0.042472
  0
VERTEX
  8
0
 10
175.706250
 20
186.380052
 42
0.046600
  0
VERTEX
  8
0
 10
175.384276
 20
187.100063
 42
0.126565
  0
VERTEX
  8
0
 10
175.000000
 20
187.500000
 42
-0.159713
  0
VERTEX
  8
0
 10
174.613307
 20
187.958660
 42
-0.035556
  0
VERTEX
  8
0
 10
174.293750
 20
188.947275
 42
-0.033489
  0
VERTEX
  8
0
 10
174.073414
 20
190.196361
 42
-0.026918
  0
VERTEX
  8
0
 10
174.000000
 20
191.559017
 42
0.024242
  0
VERTEX
  8
0
 10
173.936029
 20
192.877688
 42
0.038606
  0
VERTEX
  8
0
 10
173.740510
 20
193.989211
 42
0.045452
  0
VERTEX
  8
0
 10
173.458345
 20
194.781498
 42
0.292384
  0
VERTEX
  8
0
 10
173.116631
 20
195.000000
 42
-0.181596
  0
VERTEX
  8
0
 10
172.740524
 20
195.141258
 42
-0.059916
  0
VERTEX
  8
0
 10
172.339118
 20
195.587500
 42
-0.050447
  0
VERTEX
  8
0
 10
171.975456
 20
196.234516
 42
-0.038887
  0
VERTEX
  8
0
 10
171.710251
 20
197.000000
 42
-0.044404
  0
VERTEX
  8
0
 10
171.581079
 20
197.766152
 42
-0.075629
  0
VERTEX
  8
0
 10
171.628146
 20
198.412500
 42
-0.113203
  0
VERTEX
  8
0
 10
171.834729
 20
198.841136
 42
-0.227887
  0
VERTEX
  8
0
 10
172.165185
 20
199.000000
 42
0.224247
  0
VERTEX
  8
0
 10
172.524971
 20
199.169906
 42
0.087344
  0
VERTEX
  8
0
 10
172.802322
 20
199.660937
 42
0.063865
  0
VERTEX
  8
0
 10
172.959163
 20
200.388381
 42
0.041430
  0
VERTEX
  8
0
 10
172.960875
 20
201.250000
 42
-0.020784
  0
VERTEX
  8
0
 10
172.822825
 20
204.764054
 42
-0.257963
  0
VERTEX
  8
0
 10
173.449121
 20
205.891075
 42
-0.173600
  0
VERTEX
  8
0
 10
174.909716
 20
206.209862
 42
-0.008994
  0
VERTEX
  8
0
 10
179.750000
 20
205.493796
 42
-0.006577
  0
VERTEX
  8
0
 10
182.462615
 20
205.005745
 42
-0.007618
  0
VERTEX
  8
0
 10
185.031250
 20
204.467911
 42
-0.006890
  0
VERTEX
  8
0
 10
187.189237
 20
203.950283
 42
-0.044022
  0
SEQEND
  0
POLYLINE
  8
0
 66
1
 70
1
  0
VERTEX
  8
0
 10
159.466335
 20
190.000000
 42
-0.217627
  0
VERTEX
  8
0
 10
160.748482
 20
189.414196
 42
-0.158912
  0
VERTEX
  8
0
 10
161.364399
 20
187.951160
 42
-0.083533
  0
VERTEX
  8
0
 10
161.162285
 20
185.533413
 42
-0.031061
  0
VERTEX
  8
0
 10
160.111045
 20
182.276155
 42
-0.026595
  0
VERTEX
  8
0
 10
158.685931
 20
179.147868
 42
-0.096295
  0
VERTEX
  8
0
 10
157.329287
 20
177.444747
 42
-0.419100
  0
VERTEX
  8
0
 10
156.448099
 20
177.522109
 42
-0.174104
  0
VERTEX
  8
0
 10
156.000000
 20
178.769975
 42
-0.023962
  0
VERTEX
  8
0
 10
156.177907
 20
182.480114
 42
-0.010026
  0
VERTEX
  8
0
 10
156.756683
 20
187.452337
 42
-0.009016
  0
VERTEX
  8
0
 10
157.422626
 20
191.743459
 42
-0.825555
  0
VERTEX
  8
0
 10
157.775337
 20
191.750000
 42
0.068302
  0
VERTEX
  8
0
 10
158.016078
 20
191.081096
 42
0.071720
  0
VERTEX
  8
0
 10
158.425234
 20
190.514062
 42
0.079369
  0
VERTEX
  8
0
 10
158.934183
 20
190.131844
 42
0.122033
  0
SEQEND
  0
POLYLINE
  8
0
 66
1
 70
1
  0
VERTEX
  8
0
 10
153.906223
 20
162.718197
 42
0.091183
  0
VERTEX
  8
0
 10
153.243591
 20
161.987100
 42
0.031568
  0
VERTEX
  8
0
 10
152.568911
 20
160.726266
 42
0.030127
  0
VERTEX
  8
0
 10
151.985030
 20
159.211850
 42
0.030709
  0
VERTEX
  8
0
 10
151.591740
 20
157.647816
 42
-0.019130
  0
VERTEX
  8
0
 10
150.886401
 20
154.540457
 42
-0.652578
  0
VERTEX
  8
0
 10
150.327663
 20
154.454318
 42
-0.166578
  0
VERTEX
  8
0
 10
149.998795
 20
155.814291
 42
-0.013999
  0
VERTEX
  8
0
 10
150.440802
 20
159.453805
 42
-0.016169
  0
VERTEX
  8
0
 10
150.890634
 20
161.909298
 42
-0.088440
  0
VERTEX
  8
0
 10
151.401547
 20
163.152435
 42
-0.161957
  0
VERTEX
  8
0
 10
152.153904
 20
163.764964
 42
-0.094457
  0
VERTEX
  8
0
 10
153.311273
 20
163.968197
 42
-0.010921
  0
VERTEX
  8
0
 10
154.579962
 20
163.922034
 42
-0.273626
  0
VERTEX
  8
0
 10
154.857880
 20
163.734990
 42
-0.338449
  0
VERTEX
  8
0
 10
154.795214
 20
163.438749
 42
-0.014255
  0
SEQEND
  0
POLYLINE
  8
0
 66
1
 70
1
  0
VERTEX
  8
0
 10
162.000000
 20
149.000000
 42
-0.099038
  0
VERTEX
  8
0
 10
161.923658
 20
148.618362
 42
-0.097945
  0
VERTEX
  8
0
 10
161.706250
 20
148.293750
 42
-0.097945
  0
VERTEX
  8
0
 10
161.381638
 20
148.076342
 42
-0.099038
  0
VERTEX
  8
0
 10
161.000000
 20
148.000000
 42
-0.099038
  0
VERTEX
  8
0
 10
160.618362
 20
148.076342
 42
-0.097945
  0
VERTEX
  8
0
 10
160.293750
 20
148.293750
 42
-0.097945
  0
VERTEX
  8
0
 10
160.076342
 20
148.618362
 42
-0.099038
  0
VERTEX
  8
0
 10
160.000000
 20
149.000000
 42
-0.099038
  0
VERTEX
  8
0
 10
160.076342
 20
149.381638
 42
-0.097945
  0
VERTEX
  8
0
 10
160.293750
 20
149.706250
 42
-0.097945
  0
VERTEX
  8
0
 10
160.618362
 20
149.923658
 42
-0.099038
  0
VERTEX
  8
0
 10
161.000000
 20
150.000000
 42
-0.099038
  0
VERTEX
  8
0
 10
161.381638
 20
149.923658
 42
-0.097945
  0
VERTEX
  8
0
 10
161.706250
 20
149.706250
 42
-0.097945
  0
VERTEX
  8
0
 10
161.923658
 20
149.381638
 42
-0.099038
  0
SEQEND
  0
POLYLINE
  8
0
 66
1
 70
1
  0
VERTEX
  8
0
 10
505.361626
 20
142.500000
 42
-0.021360
  0
VERTEX
  8
0
 10
505.112506
 20
141.925442
 42
-0.030395
  0
VERTEX
  8
0
 10
504.839659
 20
141.440625
 42
-0.030693
  0
VERTEX
  8
0
 10
504.579329
 20
141.087111
 42
-0.222225
  0
VERTEX
  8
0
 10
504.393011
 20
141.000000
 42
-0.289661
  0
VERTEX
  8
0
 10
504.241071
 20
141.096084
 42
-0.046727
  0
VERTEX
  8
0
 10
504.115447
 20
141.440625
 42
-0.039339
  0
VERTEX
  8
0
 10
504.028469
 20
141.925176
 42
-0.024748
  0
VERTEX
  8
0
 10
504.000000
 20
142.500000
 42
-0.062722
  0
VERTEX
  8
0
 10
504.072230
 20
143.073532
 42
-0.080880
  0
VERTEX
  8
0
 10
504.284531
 20
143.559375
 42
-0.098158
  0
VERTEX
  8
0
 10
504.599211
 20
143.884506
 42
-0.152681
  0
VERTEX
  8
0
 10
504.968615
 20
144.000000
 42
-0.184534
  0
VERTEX
  8
0
 10
505.289193
 20
143.877514
 42
-0.147206
  0
VERTEX
  8
0
 10
505.483616
 20
143.559375
 42
-0.100118
  0
VERTEX
  8
0
 10
505.511135
 20
143.074366
 42
-0.055937
  0
SEQEND
  0
POLYLINE
  8
0
 66
1
 70
1
  0
VERTEX
  8
0
 10
495.540742
 20
130.465342
 42
-0.011185
  0
VERTEX
  8
0
 10
495.008836
 20
128.683333
 42
-0.039149
  0
VERTEX
  8
0
 10
494.552629
 20
127.575672
 42
-0.288674
  0
VERTEX
  8
0
 10
494.281064
 20
127.412971
 42
-0.395350
  0
VERTEX
  8
0
 10
494.089417
 20
127.600777
 42
-0.065224
  0
VERTEX
  8
0
 10
494.270143
 20
129.655619
 42
-0.019151
  0
VERTEX
  8
0
 10
495.074591
 20
132.725470
 42
-0.012541
  0
VERTEX
  8
0
 10
496.042286
 20
135.648885
 42
-0.550025
  0
VERTEX
  8
0
 10
496.566944
 20
135.766389
 42
-0.242774
  0
VERTEX
  8
0
 10
496.658981
 20
135.478143
 42
-0.005989
  0
VERTEX
  8
0
 10
496.403975
 20
134.070729
 42
-0.011629
  0
VERTEX
  8
0
 10
496.038457
 20
132.392703
 42
-0.007492
  0
SEQEND
  0
POLYLINE
  8
0
 66
1
 70
1
  0
VERTEX
  8
0
 10
420.624351
 20
132.000000
 42
-0.244611
  0
VERTEX
  8
0
 10
421.840492
 20
131.367173
 42
-0.033575
  0
VERTEX
  8
0
 10
423.368157
 20
128.842010
 42
-0.037715
  0
VERTEX
  8
0
 10
424.605953
 20
125.926964
 42
-0.081720
  0
VERTEX
  8
0
 10
425.000000
 20
123.532119
 42
-0.130324
  0
VERTEX
  8
0
 10
424.835913
 20
122.913278
 42
-0.112968
  0
VERTEX
  8
0
 10
424.380363
 20
122.417720
 42
-0.091370
  0
VERTEX
  8
0
 10
423.662447
 20
122.096928
 42
-0.057860
  0
VERTEX
  8
0
 10
422.750000
 20
121.984687
 42
0.075700
  0
VERTEX
  8
0
 10
420.350567
 20
121.602592
 42
0.144235
  0
VERTEX
  8
0
 10
418.747089
 20
120.516099
 42
0.104456
  0
VERTEX
  8
0
 10
417.671742
 20
118.453684
 42
0.028929
  0
VERTEX
  8
0
 10
416.889840
 20
114.866667
 42
-0.016469
  0
VERTEX
  8
0
 10
416.491372
 20
112.791591
 42
-0.023607
  0
VERTEX
  8
0
 10
415.992136
 20
110.986707
 42
-0.020963
  0
VERTEX
  8
0
 10
415.465811
 20
109.584066
 42
-0.215272
  0
VERTEX
  8
0
 10
415.021896
 20
109.173965
 42
0.111159
  0
VERTEX
  8
0
 10
414.631172
 20
108.938073
 42
0.069992
  0
VERTEX
  8
0
 10
414.300182
 20
108.517248
 42
0.064844
  0
VERTEX
  8
0
 10
414.076355
 20
107.983702
 42
0.067026
  0
VERTEX
  8
0
 10
414.000000
 20
107.416667
 42
-0.068857
  0
VERTEX
  8
0
 10
413.925077
 20
106.875200
 42
-0.085122
  0
VERTEX
  8
0
 10
413.706250
 20
106.416146
 42
-0.099913
  0
VERTEX
  8
0
 10
413.381338
 20
106.109202
 42
-0.140362
  0
VERTEX
  8
0
 10
413.000000
 20
106.000000
 42
0.254951
  0
VERTEX
  8
0
 10
412.615738
 20
105.790443
 42
0.062710
  0
VERTEX
  8
0
 10
412.293750
 20
105.118750
 42
0.048861
  0
VERTEX
  8
0
 10
412.072766
 20
104.149251
 42
0.031626
  0
VERTEX
  8
0
 10
412.000000
 20
103.000000
 42
-0.023599
  0
VERTEX
  8
0
 10
411.945709
 20
101.850340
 42
-0.037682
  0
VERTEX
  8
0
 10
411.779688
 20
100.881455
 42
-0.043853
  0
VERTEX
  8
0
 10
411.540342
 20
100.188757
 42
-0.296071
  0
VERTEX
  8
0
 10
411.250000
 20
100.000699
 42
-0.385049
  0
VERTEX
  8
0
 10
410.946116
 20
100.275970
 42
-0.004874
  0
VERTEX
  8
0
 10
410.692835
 20
103.085362
 42
-0.011118
  0
VERTEX
  8
0
 10
410.496259
 20
106.474902
 42
-0.006697
  0
VERTEX
  8
0
 10
410.406461
 20
110.500699
 42
-0.005356
  0
VERTEX
  8
0
 10
410.416056
 20
115.824290
 42
-0.026502
  0
VERTEX
  8
0
 10
410.612163
 20
118.813741
 42
-0.049567
  0
VERTEX
  8
0
 10
410.988420
 20
120.515886
 42
-0.324244
  0
VERTEX
  8
0
 10
411.656461
 20
121.000000
 42
0.215314
  0
VERTEX
  8
0
 10
412.546891
 20
121.402085
 42
0.175027
  0
VERTEX
  8
0
 10
412.935057
 20
122.385475
 42
0.073762
  0
VERTEX
  8
0
 10
412.723232
 20
124.174531
 42
0.017582
  0
VERTEX
  8
0
 10
411.834281
 20
127.045537
 42
-0.015978
  0
VERTEX
  8
0
 10
411.310131
 20
128.719343
 42
-0.067985
  0
VERTEX
  8
0
 10
411.168562
 20
129.755704
 42
-0.139917
  0
VERTEX
  8
0
 10
411.351626
 20
130.397086
 42
-0.175001
  0
VERTEX
  8
0
 10
411.834281
 20
130.778094
 42
0.094785
  0
VERTEX
  8
0
 10
412.279838
 20
131.027762
 42
0.070227
  0
VERTEX
  8
0
 10
412.657570
 20
131.449158
 42
0.068333
  0
VERTEX
  8
0
 10
412.912666
 20
131.971718
 42
0.079588
  0
VERTEX
  8
0
 10
413.000000
 20
132.516911
 42
-0.294107
  0
VERTEX
  8
0
 10
413.685016
 20
133.580749
 42
-0.075493
  0
VERTEX
  8
0
 10
415.748569
 20
134.165051
 42
-0.075437
  0
VERTEX
  8
0
 10
417.893573
 20
134.110642
 42
-0.293447
  0
VERTEX
  8
0
 10
418.823324
 20
133.250000
 42
0.102227
  0
VERTEX
  8
0
 10
419.058080
 20
132.772409
 42
0.076014
  0
VERTEX
  8
0
 10
419.485747
 20
132.367188
 42
0.072769
  0
VERTEX
  8
0
 10
420.035382
 20
132.093886
 42
0.079204
  0
SEQEND
  0
POLYLINE
  8
0
 66
1
 70
1
  0
VERTEX
  8
0
 10
152.967954
 20
129.166667
 42
0.130943
  0
VERTEX
  8
0
 10
152.596276
 20
128.916701
 42
0.065445
  0
VERTEX
  8
0
 10
152.279838
 20
128.441667
 42
0.058115
  0
VERTEX
  8
0
 10
152.062493
 20
127.828862
 42
0.053939
  0
VERTEX
  8
0
 10
151.984687
 20
127.166667
 42
-0.029957
  0
VERTEX
  8
0
 10
151.939255
 20
126.510070
 42
-0.201361
  0
VERTEX
  8
0
 10
151.778623
 20
126.233632
 42
-0.358237
  0
VERTEX
  8
0
 10
151.544714
 20
126.243224
 42
-0.063332
  0
VERTEX
  8
0
 10
151.234687
 20
126.600056
 42
0.054815
  0
VERTEX
  8
0
 10
150.845463
 20
127.063709
 42
0.029387
  0
VERTEX
  8
0
 10
150.275189
 20
127.548122
 42
0.028883
  0
VERTEX
  8
0
 10
149.628136
 20
127.979174
 42
0.039877
  0
VERTEX
  8
0
 10
149.000000
 20
128.282755
 42
-0.050709
  0
VERTEX
  8
0
 10
148.376517
 20
128.600894
 42
-0.402973
  0
VERTEX
  8
0
 10
148.309014
 20
128.887249
 42
-0.171271
  0
VERTEX
  8
0
 10
148.658675
 20
129.179929
 42
-0.015645
  0
VERTEX
  8
0
 10
149.750000
 20
129.549330
 42
0.043032
  0
VERTEX
  8
0
 10
150.612061
 20
129.894755
 42
0.052293
  0
VERTEX
  8
0
 10
151.343561
 20
130.365285
 42
0.060993
  0
VERTEX
  8
0
 10
151.848417
 20
130.882960
 42
0.160742
  0
VERTEX
  8
0
 10
152.015313
 20
131.366631
 42
-0.142414
  0
VERTEX
  8
0
 10
152.105259
 20
131.661118
 42
-0.351911
  0
VERTEX
  8
0
 10
152.305966
 20
131.726448
 42
-0.129511
  0
VERTEX
  8
0
 10
152.614141
 20
131.506598
 42
-0.031942
  0
VERTEX
  8
0
 10
152.983267
 20
131.000000
 42
-0.041870
  0
VERTEX
  8
0
 10
153.328448
 20
130.340408
 42
-0.102050
  0
VERTEX
  8
0
 10
153.434277
 20
129.804716
 42
-0.157817
  0
VERTEX
  8
0
 10
153.304137
 20
129.413845
 42
-0.152335
  0
SEQEND
  0
POLYLINE
  8
0
 66
1
 70
1
  0
VERTEX
  8
0
 10
209.449543
 20
118.395431
 42
-0.003668
  0
VERTEX
  8
0
 10
209.512073
 20
116.284081
 42
-0.022875
  0
VERTEX
  8
0
 10
209.486693
 20
115.202869
 42
-0.838334
  0
VERTEX
  8
0
 10
209.394655
 20
115.193056
 42
-0.040525
  0
VERTEX
  8
0
 10
209.270027
 20
115.805826
 42
0.037770
  0
VERTEX
  8
0
 10
209.011942
 20
117.111524
 42
0.043314
  0
VERTEX
  8
0
 10
208.567438
 20
118.302470
 42
0.048249
  0
VERTEX
  8
0
 10
208.016086
 20
119.221807
 42
0.142898
  0
VERTEX
  8
0
 10
207.436307
 20
119.662815
 42
-0.143907
  0
VERTEX
  8
0
 10
206.881837
 20
120.086305
 42
-0.060738
  0
VERTEX
  8
0
 10
206.418847
 20
120.911384
 42
-0.052759
  0
VERTEX
  8
0
 10
206.105482
 20
121.982520
 42
-0.044828
  0
VERTEX
  8
0
 10
206.000000
 20
123.156679
 42
-0.018256
  0
VERTEX
  8
0
 10
206.056703
 20
124.709196
 42
-0.150431
  0
VERTEX
  8
0
 10
206.310451
 20
125.360255
 42
-0.293708
  0
VERTEX
  8
0
 10
206.786247
 20
125.522796
 42
-0.067112
  0
VERTEX
  8
0
 10
207.615822
 20
125.195121
 42
-0.137439
  0
VERTEX
  8
0
 10
208.374029
 20
124.439980
 42
-0.062794
  0
VERTEX
  8
0
 10
208.908219
 20
123.136098
 42
-0.041627
  0
VERTEX
  8
0
 10
209.261721
 20
121.195716
 42
-0.015015
  0
SEQEND
  0
POLYLINE
  8
0
 66
1
 70
1
  0
VERTEX
  8
0
 10
152.000000
 20
121.000000
 42
-0.226478
  0
VERTEX
  8
0
 10
151.817169
 20
120.617064
 42
-0.074992
  0
VERTEX
  8
0
 10
151.265625
 20
120.293750
 42
-0.057076
  0
VERTEX
  8
0
 10
150.457356
 20
120.073116
 42
-0.038131
  0
VERTEX
  8
0
 10
149.500000
 20
120.000000
 42
-0.038131
  0
VERTEX
  8
0
 10
148.542644
 20
120.073116
 42
-0.057076
  0
VERTEX
  8
0
 10
147.734375
 20
120.293750
 42
-0.074992
  0
VERTEX
  8
0
 10
147.182831
 20
120.617064
 42
-0.226478
  0
VERTEX
  8
0
 10
147.000000
 20
121.000000
 42
-0.226478
  0
VERTEX
  8
0
 10
147.182831
 20
121.382936
 42
-0.074992
  0
VERTEX
  8
0
 10
147.734375
 20
121.706250
 42
-0.057076
  0
VERTEX
  8
0
 10
148.542644
 20
121.926884
 42
-0.038131
  0
VERTEX
  8
0
 10
149.500000
 20
122.000000
 42
-0.038131
  0
VERTEX
  8
0
 10
150.457356
 20
121.926884
 42
-0.057076
  0
VERTEX
  8
0
 10
151.265625
 20
121.706250
 42
-0.074992
  0
VERTEX
  8
0
 10
151.817169
 20
121.382936
 42
-0.226478
  0
SEQEND
  0
POLYLINE
  8
0
 66
1
 70
1
  0
VERTEX
  8
0
 10
145.495958
 20
99.770080
 42
-0.004167
  0
VERTEX
  8
0
 10
145.348324
 20
96.688922
 42
-0.001673
  0
VERTEX
  8
0
 10
145.097223
 20
92.477773
 42
-0.001655
  0
VERTEX
  8
0
 10
144.796469
 20
87.942104
 42
-0.002092
  0
VERTEX
  8
0
 10
144.486931
 20
83.750000
 42
0.006024
  0
VERTEX
  8
0
 10
144.181419
 20
79.116525
 42
0.023090
  0
VERTEX
  8
0
 10
144.159393
 20
76.226471
 42
0.033302
  0
VERTEX
  8
0
 10
144.348658
 20
74.432817
 42
0.364770
  0
VERTEX
  8
0
 10
144.862992
 20
74.000000
 42
-0.130992
  0
VERTEX
  8
0
 10
145.296591
 20
73.884420
 42
-0.100635
  0
VERTEX
  8
0
 10
145.666004
 20
73.559375
 42
-0.088319
  0
VERTEX
  8
0
 10
145.914479
 20
73.073140
 42
-0.074197
  0
VERTEX
  8
0
 10
146.000000
 20
72.500000
 42
-0.094858
  0
VERTEX
  8
0
 10
145.890391
 20
71.927447
 42
-0.096864
  0
VERTEX
  8
0
 10
145.577374
 20
71.440625
 42
-0.098865
  0
VERTEX
  8
0
 10
145.110259
 20
71.114737
 42
-0.103382
  0
VERTEX
  8
0
 10
144.561273
 20
71.000000
 42
0.352372
  0
VERTEX
  8
0
 10
142.799268
 20
69.582195
 42
0.050877
  0
VERTEX
  8
0
 10
142.235969
 20
64.661754
 42
0.048784
  0
VERTEX
  8
0
 10
142.685488
 20
59.396717
 42
0.189874
  0
VERTEX
  8
0
 10
144.384781
 20
56.673869
 42
-0.048201
  0
VERTEX
  8
0
 10
144.844932
 20
56.258828
 42
-0.213486
  0
VERTEX
  8
0
 10
144.956860
 20
55.920976
 42
-0.222577
  0
VERTEX
  8
0
 10
144.778213
 20
55.622105
 42
-0.052188
  0
VERTEX
  8
0
 10
144.250000
 20
55.340536
 42
0.220818
  0
VERTEX
  8
0
 10
143.324901
 20
54.348848
 42
0.084736
  0
VERTEX
  8
0
 10
143.042134
 20
52.438397
 42
0.076291
  0
VERTEX
  8
0
 10
143.414243
 20
50.326558
 42
0.115180
  0
VERTEX
  8
0
 10
144.395896
 20
48.746961
 42
-0.039495
  0
VERTEX
  8
0
 10
145.080617
 20
47.944591
 42
-0.206476
  0
VERTEX
  8
0
 10
145.204674
 20
47.390532
 42
-0.179429
  0
VERTEX
  8
0
 10
144.891670
 20
46.870768
 42
-0.028866
  0
VERTEX
  8
0
 10
143.909465
 20
46.175533
 42
-0.048571
  0
VERTEX
  8
0
 10
143.002212
 20
45.724700
 42
-0.026708
  0
VERTEX
  8
0
 10
141.820728
 20
45.345313
 42
-0.026381
  0
VERTEX
  8
0
 10
140.569523
 20
45.085738
 42
-0.037970
  0
VERTEX
  8
0
 10
139.442140
 20
45.000000
 42
0.042680
  0
VERTEX
  8
0
 10
138.363742
 20
44.907780
 42
0.036933
  0
VERTEX
  8
0
 10
137.261392
 20
44.632812
 42
0.038656
  0
VERTEX
  8
0
 10
136.295994
 20
44.229699
 42
0.082515
  0
VERTEX
  8
0
 10
135.648312
 20
43.750000
 42
0.095536
  0
VERTEX
  8
0
 10
134.275285
 20
41.645889
 42
0.028427
  0
VERTEX
  8
0
 10
133.023001
 20
37.999706
 42
0.028733
  0
VERTEX
  8
0
 10
132.189649
 20
34.211546
 42
0.087213
  0
VERTEX
  8
0
 10
132.228803
 20
31.583429
 42
-0.031129
  0
VERTEX
  8
0
 10
132.472006
 20
29.673360
 42
-0.410838
  0
VERTEX
  8
0
 10
132.048604
 20
29.185934
 42
-0.182244
  0
VERTEX
  8
0
 10
131.130390
 20
29.454535
 42
-0.010247
  0
VERTEX
  8
0
 10
128.755510
 20
31.319134
 42
0.000000
  0
VERTEX
  8
0
 10
126.011020
 20
33.566342
 42
0.000000
  0
VERTEX
  8
0
 10
129.005510
 20
36.844889
 42
0.013751
  0
VERTEX
  8
0
 10
130.152293
 20
38.171967
 42
0.018042
  0
VERTEX
  8
0
 10
131.120369
 20
39.447878
 42
0.015699
  0
VERTEX
  8
0
 10
131.843520
 20
40.547819
 42
0.138423
  0
VERTEX
  8
0
 10
132.000000
 20
41.102211
 42
-0.101572
  0
VERTEX
  8
0
 10
132.110571
 20
41.640894
 42
-0.017485
  0
VERTEX
  8
0
 10
132.556948
 20
42.589388
 42
-0.018407
  0
VERTEX
  8
0
 10
133.170113
 20
43.681370
 42
-0.015529
  0
VERTEX
  8
0
 10
133.895994
 20
44.790493
 42
0.093321
  0
VERTEX
  8
0
 10
137.315182
 20
52.356216
 42
0.014900
  0
VERTEX
  8
0
 10
140.692912
 20
68.316322
 42
0.017480
  0
VERTEX
  8
0
 10
143.220117
 20
85.768927
 42
0.027931
  0
VERTEX
  8
0
 10
144.017976
 20
100.809017
 42
-0.012995
  0
VERTEX
  8
0
 10
144.073118
 20
103.191692
 42
-0.024460
  0
VERTEX
  8
0
 10
144.261436
 20
105.106447
 42
-0.026653
  0
VERTEX
  8
0
 10
144.532666
 20
106.442828
 42
-0.505088
  0
VERTEX
  8
0
 10
144.872019
 20
106.579097
 42
-0.219593
  0
VERTEX
  8
0
 10
145.204032
 20
106.077710
 42
-0.015300
  0
VERTEX
  8
0
 10
145.415009
 20
104.356636
 42
-0.019456
  0
VERTEX
  8
0
 10
145.527672
 20
102.211534
 42
-0.013279
  0
SEQEND
  0
POLYLINE
  8
0
 66
1
 70
1
  0
VERTEX
  8
0
 10
513.969374
 20
98.500000
 42
-0.190341
  0
VERTEX
  8
0
 10
513.877628
 20
98.267727
 42
-0.335455
  0
VERTEX
  8
0
 10
513.684621
 20
98.234375
 42
-0.102785
  0
VERTEX
  8
0
 10
513.374359
 20
98.485814
 42
-0.027796
  0
VERTEX
  8
0
 10
513.000000
 20
99.000000
 42
-0.026766
  0
VERTEX
  8
0
 10
512.628962
 20
99.647707
 42
-0.024204
  0
VERTEX
  8
0
 10
512.315379
 20
100.353125
 42
-0.024967
  0
VERTEX
  8
0
 10
512.096832
 20
101.012663
 42
-0.067616
  0
VERTEX
  8
0
 10
512.030626
 20
101.500000
 42
-0.190341
  0
VERTEX
  8
0
 10
512.122372
 20
101.732273
 42
-0.335455
  0
VERTEX
  8
0
 10
512.315379
 20
101.765625
 42
-0.102785
  0
VERTEX
  8
0
 10
512.625641
 20
101.514186
 42
-0.027796
  0
VERTEX
  8
0
 10
513.000000
 20
101.000000
 42
-0.026766
  0
VERTEX
  8
0
 10
513.371038
 20
100.352293
 42
-0.024204
  0
VERTEX
  8
0
 10
513.684621
 20
99.646875
 42
-0.024967
  0
VERTEX
  8
0
 10
513.903168
 20
98.987337
 42
-0.067616
  0
SEQEND
  0
POLYLINE
  8
0
 66
1
 70
1
  0
VERTEX
  8
0
 10
212.000000
 20
90.308870
 42
-0.005981
  0
VERTEX
  8
0
 10
211.979246
 20
88.573779
 42
-0.269327
  0
VERTEX
  8
0
 10
211.798193
 20
88.278535
 42
-0.364941
  0
VERTEX
  8
0
 10
211.504229
 20
88.339751
 42
-0.008568
  0
VERTEX
  8
0
 10
210.588676
 20
89.547842
 42
-0.053514
  0
VERTEX
  8
0
 10
209.804416
 20
90.903569
 42
-0.139120
  0
VERTEX
  8
0
 10
209.647328
 20
92.009851
 42
-0.220620
  0
VERTEX
  8
0
 10
210.103254
 20
92.721635
 42
-0.142661
  0
VERTEX
  8
0
 10
211.059017
 20
93.000000
 42
-0.247607
  0
VERTEX
  8
0
 10
211.420236
 20
92.809436
 42
-0.065976
  0
VERTEX
  8
0
 10
211.723586
 20
92.209481
 42
-0.050937
  0
VERTEX
  8
0
 10
211.931451
 20
91.339709
 42
-0.033213
  0
SEQEND
  0
POLYLINE
  8
0
 66
1
 70
1
  0
VERTEX
  8
0
 10
412.881387
 20
90.335977
 42
0.086937
  0
VERTEX
  8
0
 10
412.184421
 20
90.012730
 42
0.042177
  0
VERTEX
  8
0
 10
411.425777
 20
89.384032
 42
0.040140
  0
VERTEX
  8
0
 10
410.725648
 20
88.576452
 42
0.046034
  0
VERTEX
  8
0
 10
410.199067
 20
87.701979
 42
-0.002896
  0
VERTEX
  8
0
 10
409.464350
 20
86.203263
 42
-0.256599
  0
VERTEX
  8
0
 10
409.266969
 20
86.066235
 42
-0.429873
  0
VERTEX
  8
0
 10
409.126234
 20
86.186590
 42
-0.004711
  0
VERTEX
  8
0
 10
409.067680
 20
87.583333
 42
-0.053055
  0
VERTEX
  8
0
 10
409.191383
 20
89.262515
 42
-0.154491
  0
VERTEX
  8
0
 10
409.728357
 20
90.278749
 42
-0.155641
  0
VERTEX
  8
0
 10
410.749245
 20
90.796462
 42
-0.054089
  0
VERTEX
  8
0
 10
412.416667
 20
90.883999
 42
-0.007499
  0
VERTEX
  8
0
 10
413.406867
 20
90.813954
 42
-0.197990
  0
VERTEX
  8
0
 10
413.638375
 20
90.694444
 42
-0.530757
  0
VERTEX
  8
0
 10
413.598321
 20
90.551152
 42
-0.015377
  0
SEQEND
  0
POLYLINE
  8
0
 66
1
 70
1
  0
VERTEX
  8
0
 10
210.334594
 20
80.883344
 42
-0.023169
  0
VERTEX
  8
0
 10
210.798382
 20
79.036238
 42
-0.023845
  0
VERTEX
  8
0
 10
211.083977
 20
77.171730
 42
-0.024435
  0
VERTEX
  8
0
 10
211.174604
 20
75.539090
 42
-0.086203
  0
VERTEX
  8
0
 10
211.002222
 20
74.506335
 42
-0.122040
  0
VERTEX
  8
0
 10
210.655939
 20
73.978082
 42
-0.494607
  0
VERTEX
  8
0
 10
210.333789
 20
74.033707
 42
-0.075330
  0
VERTEX
  8
0
 10
210.023501
 20
74.937258
 42
-0.008859
  0
VERTEX
  8
0
 10
209.677845
 20
77.042988
 42
0.005613
  0
VERTEX
  8
0
 10
209.380239
 20
78.932665
 42
0.004739
  0
VERTEX
  8
0
 10
209.024025
 20
80.925128
 42
0.004782
  0
VERTEX
  8
0
 10
208.664504
 20
82.736294
 42
0.013261
  0
VERTEX
  8
0
 10
208.365897
 20
84.000000
 42
-0.046355
  0
VERTEX
  8
0
 10
208.080965
 20
85.701552
 42
-0.780715
  0
VERTEX
  8
0
 10
208.396059
 20
85.805386
 42
-0.052852
  0
VERTEX
  8
0
 10
209.311711
 20
83.946877
 42
-0.014960
  0
SEQEND
  0
POLYLINE
  8
0
 66
1
 70
1
  0
VERTEX
  8
0
 10
408.511385
 20
80.067384
 42
-0.020485
  0
VERTEX
  8
0
 10
408.181911
 20
78.508860
 42
-0.031343
  0
VERTEX
  8
0
 10
407.758134
 20
77.194794
 42
-0.032187
  0
VERTEX
  8
0
 10
407.306597
 20
76.233124
 42
-0.273388
  0
VERTEX
  8
0
 10
406.912102
 20
76.000000
 42
-0.210944
  0
VERTEX
  8
0
 10
406.306679
 20
76.267315
 42
-0.195001
  0
VERTEX
  8
0
 10
406.070184
 20
76.907149
 42
-0.054248
  0
VERTEX
  8
0
 10
406.260132
 20
78.259814
 42
-0.005737
  0
VERTEX
  8
0
 10
407.078472
 20
81.343771
 42
-0.015799
  0
VERTEX
  8
0
 10
408.027413
 20
84.385073
 42
-0.534816
  0
VERTEX
  8
0
 10
408.643996
 20
84.545493
 42
-0.245096
  0
VERTEX
  8
0
 10
409.014792
 20
83.567486
 42
-0.012261
  0
SEQEND
  0
POLYLINE
  8
0
 66
1
 70
1
  0
VERTEX
  8
0
 10
404.683114
 20
72.812500
 42
-0.054073
  0
VERTEX
  8
0
 10
404.461564
 20
72.395823
 42
-0.470617
  0
VERTEX
  8
0
 10
404.279315
 20
72.378580
 42
-0.168741
  0
VERTEX
  8
0
 10
404.137993
 20
72.670344
 42
-0.018894
  0
VERTEX
  8
0
 10
404.078947
 20
73.416667
 42
-0.028489
  0
VERTEX
  8
0
 10
404.089945
 20
74.112848
 42
-0.077125
  0
VERTEX
  8
0
 10
404.200665
 20
74.592839
 42
-0.208169
  0
VERTEX
  8
0
 10
404.385309
 20
74.775380
 42
-0.296942
  0
VERTEX
  8
0
 10
404.604167
 20
74.729167
 42
-0.126455
  0
VERTEX
  8
0
 10
404.797407
 20
74.402231
 42
-0.060344
  0
VERTEX
  8
0
 10
404.876576
 20
73.916927
 42
-0.054150
  0
VERTEX
  8
0
 10
404.839148
 20
73.359369
 42
-0.051402
  0
SEQEND
  0
POLYLINE
  8
0
 66
1
 70
1
  0
VERTEX
  8
0
 10
513.374913
 20
69.160559
 42
-0.025597
  0
VERTEX
  8
0
 10
514.010400
 20
66.350024
 42
-0.011992
  0
VERTEX
  8
0
 10
514.557513
 20
62.660203
 42
-0.011847
  0
VERTEX
  8
0
 10
514.947388
 20
58.755865
 42
-0.016284
  0
VERTEX
  8
0
 10
515.099966
 20
55.231754
 42
0.008502
  0
VERTEX
  8
0
 10
515.210688
 20
51.236484
 42
0.032999
  0
VERTEX
  8
0
 10
515.484058
 20
48.776721
 42
0.056686
  0
VERTEX
  8
0
 10
515.934415
 20
47.267024
 42
0.203031
  0
VERTEX
  8
0
 10
516.643882
 20
46.583161
 42
-0.275715
  0
VERTEX
  8
0
 10
517.307299
 20
45.739434
 42
-0.257504
  0
VERTEX
  8
0
 10
516.901589
 20
44.711125
 42
-0.105405
  0
VERTEX
  8
0
 10
515.168985
 20
43.807099
 42
-0.067824
  0
VERTEX
  8
0
 10
512.915446
 20
43.500000
 42
-0.027241
  0
VERTEX
  8
0
 10
511.446904
 20
43.580069
 42
-0.147593
  0
VERTEX
  8
0
 10
510.720720
 20
43.888814
 42
-0.211698
  0
VERTEX
  8
0
 10
510.429832
 20
44.478178
 42
-0.063306
  0
VERTEX
  8
0
 10
510.517097
 20
45.500000
 42
0.011760
  0
VERTEX
  8
0
 10
511.773630
 20
52.100533
 42
0.028238
  0
VERTEX
  8
0
 10
512.310779
 20
57.048428
 42
0.032187
  0
VERTEX
  8
0
 10
512.252806
 20
61.622452
 42
0.020197
  0
VERTEX
  8
0
 10
511.625904
 20
66.937206
 42
-0.007909
  0
VERTEX
  8
0
 10
511.183939
 20
70.029091
 42
-0.013397
  0
VERTEX
  8
0
 10
510.924475
 20
72.631554
 42
-0.007121
  0
VERTEX
  8
0
 10
510.800736
 20
74.750272
 42
-0.427188
  0
VERTEX
  8
0
 10
511.039688
 20
75.000000
 42
-0.295280
  0
VERTEX
  8
0
 10
511.377951
 20
74.781155
 42
-0.010473
  0
VERTEX
  8
0
 10
512.013074
 20
73.284664
 42
-0.016360
  0
VERTEX
  8
0
 10
512.696562
 20
71.398829
 42
-0.010360
  0
SEQEND
  0
POLYLINE
  8
0
 66
1
 70
1
  0
VERTEX
  8
0
 10
212.920415
 20
58.550000
 42
-0.187042
  0
VERTEX
  8
0
 10
212.549480
 20
58.379251
 42
-0.285705
  0
VERTEX
  8
0
 10
212.247111
 20
58.542474
 42
-0.103699
  0
VERTEX
  8
0
 10
212.054099
 20
59.139740
 42
-0.026483
  0
VERTEX
  8
0
 10
212.000000
 20
60.160429
 42
0.011757
  0
VERTEX
  8
0
 10
211.969152
 20
61.472137
 42
0.003838
  0
VERTEX
  8
0
 10
211.863313
 20
63.405043
 42
0.003822
  0
VERTEX
  8
0
 10
211.712828
 20
65.550656
 42
0.004303
  0
VERTEX
  8
0
 10
211.534683
 20
67.610429
 42
-0.001915
  0
VERTEX
  8
0
 10
211.266936
 20
70.542996
 42
-0.804364
  0
VERTEX
  8
0
 10
211.381591
 20
70.578868
 42
-0.076695
  0
VERTEX
  8
0
 10
211.586550
 20
70.044317
 42
-0.000750
  0
VERTEX
  8
0
 10
212.455098
 20
66.000000
 42
-0.012941
  0
VERTEX
  8
0
 10
212.966190
 20
63.256240
 42
-0.023981
  0
VERTEX
  8
0
 10
213.215623
 20
61.004630
 42
-0.025113
  0
VERTEX
  8
0
 10
213.236481
 20
59.289681
 42
-0.184949
  0
SEQEND
  0
POLYLINE
  8
0
 66
1
 70
1
  0
VERTEX
  8
0
 10
403.237039
 20
66.250000
 42
-0.092527
  0
VERTEX
  8
0
 10
403.297529
 20
64.318429
 42
-0.039606
  0
VERTEX
  8
0
 10
402.700446
 20
61.795548
 42
-0.035661
  0
VERTEX
  8
0
 10
401.800610
 20
59.561180
 42
-0.286648
  0
VERTEX
  8
0
 10
400.902175
 20
59.000000
 42
0.207349
  0
VERTEX
  8
0
 10
400.557281
 20
58.850548
 42
0.082495
  0
VERTEX
  8
0
 10
400.265014
 20
58.412500
 42
0.062882
  0
VERTEX
  8
0
 10
400.066224
 20
57.765651
 42
0.043167
  0
VERTEX
  8
0
 10
400.000000
 20
57.000000
 42
-0.053873
  0
VERTEX
  8
0
 10
399.917320
 20
56.234865
 42
-0.073613
  0
VERTEX
  8
0
 10
399.671990
 20
55.587500
 42
-0.093326
  0
VERTEX
  8
0
 10
399.309453
 20
55.152970
 42
-0.174068
  0
VERTEX
  8
0
 10
398.883369
 20
55.000000
 42
-0.177588
  0
VERTEX
  8
0
 10
398.499701
 20
55.140707
 42
-0.133744
  0
VERTEX
  8
0
 10
398.243253
 20
55.514063
 42
-0.096231
  0
VERTEX
  8
0
 10
398.161104
 20
56.080263
 42
-0.058426
  0
VERTEX
  8
0
 10
398.272287
 20
56.750000
 42
0.001565
  0
VERTEX
  8
0
 10
398.548918
 20
57.718946
 42
0.000346
  0
VERTEX
  8
0
 10
399.016637
 20
59.381250
 42
0.000360
  0
VERTEX
  8
0
 10
399.554463
 20
61.303124
 42
0.000346
  0
VERTEX
  8
0
 10
400.096323
 20
63.250000
 42
-0.016220
  0
VERTEX
  8
0
 10
401.083396
 20
66.405186
 42
-0.118722
  0
VERTEX
  8
0
 10
401.933954
 20
67.726437
 42
-0.469635
  0
VERTEX
  8
0
 10
402.654016
 20
67.642799
 42
-0.090547
  0
SEQEND
  0
POLYLINE
  8
0
 66
1
 70
1
  0
VERTEX
  8
0
 10
521.683114
 20
60.812500
 42
-0.054073
  0
VERTEX
  8
0
 10
521.461564
 20
60.395823
 42
-0.470617
  0
VERTEX
  8
0
 10
521.279315
 20
60.378580
 42
-0.168741
  0
VERTEX
  8
0
 10
521.137993
 20
60.670344
 42
-0.018894
  0
VERTEX
  8
0
 10
521.078947
 20
61.416667
 42
-0.028489
  0
VERTEX
  8
0
 10
521.089945
 20
62.112848
 42
-0.077125
  0
VERTEX
  8
0
 10
521.200665
 20
62.592839
 42
-0.208169
  0
VERTEX
  8
0
 10
521.385309
 20
62.775380
 42
-0.296942
  0
VERTEX
  8
0
 10
521.604167
 20
62.729167
 42
-0.126455
  0
VERTEX
  8
0
 10
521.797407
 20
62.402231
 42
-0.060344
  0
VERTEX
  8
0
 10
521.876576
 20
61.916927
 42
-0.054150
  0
VERTEX
  8
0
 10
521.839148
 20
61.359369
 42
-0.051402
  0
SEQEND
  0
POLYLINE
  8
0
 66
1
 70
1
  0
VERTEX
  8
0
 10
523.929715
 20
50.750000
 42
-0.084899
  0
VERTEX
  8
0
 10
523.842858
 20
50.081747
 42
-0.096893
  0
VERTEX
  8
0
 10
523.538729
 20
49.514063
 42
-0.104966
  0
VERTEX
  8
0
 10
523.066591
 20
49.134894
 42
-0.117399
  0
VERTEX
  8
0
 10
522.500000
 20
49.000000
 42
-0.157239
  0
VERTEX
  8
0
 10
521.572044
 20
49.299221
 42
-0.198287
  0
VERTEX
  8
0
 10
521.100425
 20
50.059124
 42
-0.088399
  0
VERTEX
  8
0
 10
521.118077
 20
51.484481
 42
-0.018159
  0
VERTEX
  8
0
 10
521.681658
 20
53.946448
 42
-0.006605
  0
VERTEX
  8
0
 10
522.109895
 20
55.466771
 42
-0.240375
  0
VERTEX
  8
0
 10
522.352401
 20
55.722139
 42
-0.390680
  0
VERTEX
  8
0
 10
522.609520
 20
55.611771
 42
-0.011857
  0
VERTEX
  8
0
 10
523.097719
 20
54.446448
 42
-0.022557
  0
VERTEX
  8
0
 10
523.394661
 20
53.573572
 42
-0.015354
  0
VERTEX
  8
0
 10
523.656323
 20
52.557707
 42
-0.015497
  0
VERTEX
  8
0
 10
523.848640
 20
51.559874
 42
-0.029826
  0
SEQEND
  0
POLYLINE
  8
0
 66
1
 70
1
  0
VERTEX
  8
0
 10
222.749886
 20
46.919085
 42
0.180525
  0
VERTEX
  8
0
 10
221.845834
 20
45.590983
 42
0.032436
  0
VERTEX
  8
0
 10
221.313832
 20
42.592738
 42
0.031190
  0
VERTEX
  8
0
 10
221.173055
 20
39.686452
 42
0.410131
  0
VERTEX
  8
0
 10
221.869158
 20
39.000000
 42
-0.087174
  0
VERTEX
  8
0
 10
222.300951
 20
38.924141
 42
-0.094342
  0
VERTEX
  8
0
 10
222.667815
 20
38.706250
 42
-0.100163
  0
VERTEX
  8
0
 10
222.913210
 20
38.381474
 42
-0.112320
  0
VERTEX
  8
0
 10
223.000000
 20
38.000000
 42
-0.202128
  0
VERTEX
  8
0
 10
222.838934
 20
37.617853
 42
-0.084403
  0
VERTEX
  8
0
 10
222.369864
 20
37.293750
 42
-0.064512
  0
VERTEX
  8
0
 10
221.675997
 20
37.073493
 42
-0.044661
  0
VERTEX
  8
0
 10
220.854857
 20
37.000000
 42
0.114941
  0
VERTEX
  8
0
 10
218.201556
 20
36.381888
 42
0.029381
  0
VERTEX
  8
0
 10
214.340394
 20
34.189046
 42
0.030106
  0
VERTEX
  8
0
 10
210.728623
 20
31.525448
 42
0.096237
  0
VERTEX
  8
0
 10
208.847070
 20
29.214248
 42
0.035122
  0
VERTEX
  8
0
 10
208.283150
 20
27.955470
 42
0.085575
  0
VERTEX
  8
0
 10
208.101513
 20
26.958597
 42
0.093824
  0
VERTEX
  8
0
 10
208.270801
 20
26.015464
 42
0.048424
  0
VERTEX
  8
0
 10
208.806467
 20
24.938288
 42
-0.030112
  0
VERTEX
  8
0
 10
209.419379
 20
23.811120
 42
-0.305424
  0
VERTEX
  8
0
 10
209.341145
 20
23.310480
 42
-0.194599
  0
VERTEX
  8
0
 10
208.781502
 20
23.048010
 42
-0.013537
  0
VERTEX
  8
0
 10
207.008474
 20
23.000000
 42
0.030526
  0
VERTEX
  8
0
 10
205.502113
 20
22.907947
 42
0.116684
  0
VERTEX
  8
0
 10
204.626059
 20
22.583803
 42
0.166402
  0
VERTEX
  8
0
 10
204.159753
 20
21.975867
 42
0.081311
  0
VERTEX
  8
0
 10
204.000000
 20
21.000000
 42
-0.052199
  0
VERTEX
  8
0
 10
203.919895
 20
20.234784
 42
-0.072078
  0
VERTEX
  8
0
 10
203.681771
 20
19.587500
 42
-0.092036
  0
VERTEX
  8
0
 10
203.330121
 20
19.152626
 42
-0.178682
  0
VERTEX
  8
0
 10
202.916667
 20
19.000000
 42
-0.077077
  0
VERTEX
  8
0
 10
202.527637
 20
19.060328
 42
-0.128874
  0
VERTEX
  8
0
 10
202.249479
 20
19.236286
 42
-0.156556
  0
VERTEX
  8
0
 10
202.126109
 20
19.498452
 42
-0.131272
  0
VERTEX
  8
0
 10
202.166667
 20
19.804380
 42
-0.004391
  0
VERTEX
  8
0
 10
205.572717
 20
27.823792
 42
-0.032070
  0
VERTEX
  8
0
 10
207.479657
 20
31.536047
 42
-0.077206
  0
VERTEX
  8
0
 10
209.008974
 20
33.378622
 42
-0.182985
  0
VERTEX
  8
0
 10
210.650019
 20
34.000000
 42
0.051225
  0
VERTEX
  8
0
 10
211.738804
 20
34.111839
 42
0.125756
  0
VERTEX
  8
0
 10
212.456252
 20
34.462768
 42
0.143051
  0
VERTEX
  8
0
 10
212.862280
 20
35.080465
 42
0.074470
  0
VERTEX
  8
0
 10
213.000000
 20
36.000000
 42
0.071996
  0
VERTEX
  8
0
 10
212.875206
 20
36.862174
 42
0.120743
  0
VERTEX
  8
0
 10
212.508486
 20
37.491216
 42
0.123693
  0
VERTEX
  8
0
 10
211.899902
 20
37.869828
 42
0.077754
  0
VERTEX
  8
0
 10
211.067886
 20
38.000000
 42
-0.103345
  0
VERTEX
  8
0
 10
210.044475
 20
38.213813
 42
-0.307968
  0
VERTEX
  8
0
 10
209.682382
 20
38.789600
 42
-0.074399
  0
VERTEX
  8
0
 10
209.918375
 20
40.053080
 42
-0.004024
  0
VERTEX
  8
0
 10
211.280752
 20
43.889521
 42
-0.005280
  0
VERTEX
  8
0
 10
212.601773
 20
47.400918
 42
-0.084194
  0
VERTEX
  8
0
 10
213.251565
 20
48.488922
 42
-0.423342
  0
VERTEX
  8
0
 10
213.824194
 20
48.525327
 42
-0.092983
  0
VERTEX
  8
0
 10
214.487983
 20
47.648379
 42
0.099177
  0
VERTEX
  8
0
 10
215.684036
 20
46.107909
 42
0.113713
  0
VERTEX
  8
0
 10
217.328282
 20
45.238397
 42
0.138803
  0
VERTEX
  8
0
 10
218.944459
 20
45.264032
 42
0.180483
  0
VERTEX
  8
0
 10
220.114860
 20
46.151607
 42
0.072781
  0
VERTEX
  8
0
 10
220.449395
 20
46.901640
 42
0.021370
  0
VERTEX
  8
0
 10
220.739439
 20
48.132035
 42
0.020973
  0
VERTEX
  8
0
 10
220.950800
 20
49.561142
 42
0.021102
  0
VERTEX
  8
0
 10
221.041129
 20
51.000000
 42
0.000000
  0
VERTEX
  8
0
 10
221.112884
 20
54.500000
 42
0.000000
  0
VERTEX
  8
0
 10
222.341760
 20
51.000000
 42
-0.024444
  0
VERTEX
  8
0
 10
222.752617
 20
49.617052
 42
-0.035071
  0
VERTEX
  8
0
 10
222.968559
 20
48.357481
 42
-0.037893
  0
VERTEX
  8
0
 10
222.992440
 20
47.359570
 42
-0.229676
  0
SEQEND
  0
POLYLINE
  8
0
 66
1
 70
1
  0
VERTEX
  8
0
 10
396.509906
 20
37.176572
 42
-0.202848
  0
VERTEX
  8
0
 10
396.145292
 20
37.028766
 42
-0.055276
  0
VERTEX
  8
0
 10
395.515392
 20
37.108281
 42
-0.046549
  0
VERTEX
  8
0
 10
394.755259
 20
37.367829
 42
-0.034058
  0
VERTEX
  8
0
 10
393.968090
 20
37.787855
 42
0.061491
  0
VERTEX
  8
0
 10
392.123847
 20
38.645791
 42
0.075756
  0
VERTEX
  8
0
 10
390.253377
 20
38.950273
 42
0.085782
  0
VERTEX
  8
0
 10
388.568558
 20
38.676646
 42
0.113800
  0
VERTEX
  8
0
 10
387.255950
 20
37.855950
 42
-0.032326
  0
VERTEX
  8
0
 10
386.712320
 20
37.378410
 42
-0.442731
  0
VERTEX
  8
0
 10
386.481637
 20
37.419779
 42
-0.193473
  0
VERTEX
  8
0
 10
386.417900
 20
37.774998
 42
-0.012775
  0
VERTEX
  8
0
 10
386.659845
 20
38.807248
 42
-0.089705
  0
VERTEX
  8
0
 10
387.062862
 20
39.675196
 42
-0.051149
  0
VERTEX
  8
0
 10
387.824125
 20
40.550464
 42
-0.048886
  0
VERTEX
  8
0
 10
388.801044
 20
41.300929
 42
-0.057728
  0
VERTEX
  8
0
 10
389.853896
 20
41.799197
 42
-0.046449
  0
VERTEX
  8
0
 10
391.326231
 20
42.149941
 42
-0.112146
  0
VERTEX
  8
0
 10
392.435287
 20
42.058429
 42
-0.098013
  0
VERTEX
  8
0
 10
393.486946
 20
41.482417
 42
-0.030303
  0
VERTEX
  8
0
 10
394.805384
 20
40.236616
 42
-0.023770
  0
VERTEX
  8
0
 10
395.645290
 20
39.250699
 42
-0.037479
  0
VERTEX
  8
0
 10
396.257058
 20
38.323316
 42
-0.043168
  0
VERTEX
  8
0
 10
396.598320
 20
37.563097
 42
-0.287839
  0
SEQEND
  0
POLYLINE
  8
0
 66
1
 70
1
  0
VERTEX
  8
0
 10
512.000000
 20
37.259031
 42
-0.067258
  0
VERTEX
  8
0
 10
511.897529
 20
36.500696
 42
-0.001303
  0
VERTEX
  8
0
 10
510.838734
 20
32.693252
 42
-0.001204
  0
VERTEX
  8
0
 10
509.755063
 20
28.870719
 42
-0.073750
  0
VERTEX
  8
0
 10
509.462793
 20
28.226461
 42
-0.280902
  0
VERTEX
  8
0
 10
509.308615
 20
28.151988
 42
-0.024009
  0
VERTEX
  8
0
 10
508.855445
 20
28.218492
 42
-0.026195
  0
VERTEX
  8
0
 10
508.285591
 20
28.361636
 42
-0.016984
  0
VERTEX
  8
0
 10
507.643128
 20
28.583450
 42
-0.118852
  0
VERTEX
  8
0
 10
506.508537
 20
29.364677
 42
-0.176500
  0
VERTEX
  8
0
 10
506.063488
 20
30.473148
 42
-0.149199
  0
VERTEX
  8
0
 10
506.409551
 20
31.754328
 42
-0.079679
  0
VERTEX
  8
0
 10
507.500000
 20
33.000000
 42
0.076297
  0
VERTEX
  8
0
 10
508.074633
 20
33.647596
 42
0.044479
  0
VERTEX
  8
0
 10
508.559375
 20
34.568391
 42
0.043272
  0
VERTEX
  8
0
 10
508.889346
 20
35.601397
 42
0.055731
  0
VERTEX
  8
0
 10
509.000000
 20
36.591060
 42
-0.036352
  0
VERTEX
  8
0
 10
509.077722
 20
37.658675
 42
-0.140288
  0
VERTEX
  8
0
 10
509.348501
 20
38.258404
 42
-0.215057
  0
VERTEX
  8
0
 10
509.816215
 20
38.481043
 42
-0.097059
  0
VERTEX
  8
0
 10
510.500000
 20
38.361626
 42
-0.028626
  0
VERTEX
  8
0
 10
511.074331
 20
38.102631
 42
-0.038267
  0
VERTEX
  8
0
 10
511.559375
 20
37.800302
 42
-0.042435
  0
VERTEX
  8
0
 10
511.902768
 20
37.499917
 42
-0.194209
  0
SEQEND
  0
POLYLINE
  8
0
 66
1
 70
1
  0
VERTEX
  8
0
 10
383.929298
 20
22.857359
 42
-0.021215
  0
VERTEX
  8
0
 10
383.354952
 20
21.881498
 42
-0.017871
  0
VERTEX
  8
0
 10
382.667893
 20
20.898724
 42
-0.018244
  0
VERTEX
  8
0
 10
381.975391
 20
20.046464
 42
-0.046697
  0
VERTEX
  8
0
 10
381.398874
 20
19.500000
 42
0.096162
  0
VERTEX
  8
0
 10
380.887180
 20
18.909174
 42
0.035839
  0
VERTEX
  8
0
 10
380.407087
 20
17.916234
 42
0.033888
  0
VERTEX
  8
0
 10
380.025723
 20
16.729649
 42
0.034784
  0
VERTEX
  8
0
 10
379.812217
 20
15.512712
 42
0.000000
  0
VERTEX
  8
0
 10
379.500000
 20
12.525424
 42
0.000000
  0
VERTEX
  8
0
 10
377.305566
 20
14.891630
 42
0.000000
  0
VERTEX
  8
0
 10
375.111133
 20
17.257836
 42
0.000000
  0
VERTEX
  8
0
 10
379.283189
 20
22.101296
 42
-0.027620
  0
VERTEX
  8
0
 10
382.107349
 20
25.035502
 42
-0.148059
  0
VERTEX
  8
0
 10
384.078213
 20
26.000449
 42
-0.524142
  0
VERTEX
  8
0
 10
384.790883
 20
25.260416
 42
-0.072766
  0
SEQEND
  0
POLYLINE
  8
0
 66
1
 70
1
  0
VERTEX
  8
0
 10
212.000000
 20
17.000000
 42
-0.142666
  0
VERTEX
  8
0
 10
211.888931
 20
16.618660
 42
-0.099650
  0
VERTEX
  8
0
 10
211.576711
 20
16.293750
 42
-0.084330
  0
VERTEX
  8
0
 10
211.109818
 20
16.074854
 42
-0.067639
  0
VERTEX
  8
0
 10
210.559017
 20
16.000000
 42
-0.061875
  0
VERTEX
  8
0
 10
209.961978
 20
16.074167
 42
-0.051278
  0
VERTEX
  8
0
 10
209.359775
 20
16.293750
 42
-0.053305
  0
VERTEX
  8
0
 10
208.842344
 20
16.617164
 42
-0.088250
  0
VERTEX
  8
0
 10
208.500000
 20
17.000000
 42
-0.202618
  0
VERTEX
  8
0
 10
208.441401
 20
17.378123
 42
-0.181468
  0
VERTEX
  8
0
 10
208.668350
 20
17.706250
 42
-0.104212
  0
VERTEX
  8
0
 10
209.195401
 20
17.928459
 42
-0.047867
  0
VERTEX
  8
0
 10
209.940983
 20
18.000000
 42
-0.046600
  0
VERTEX
  8
0
 10
210.729059
 20
17.926392
 42
-0.066561
  0
VERTEX
  8
0
 10
211.395164
 20
17.706250
 42
-0.086673
  0
VERTEX
  8
0
 10
211.844577
 20
17.381985
 42
-0.195654
  0
SEQEND
  0
ENDSEC
  0
EOF
