  0
SECTION
  2
HEADER
  9
$ACADVER
  1
AC1006
  9
$EXTMIN
 10
0.000000
 20
0.000000
 30
0.000000
  9
$EXTMAX
 10
444.000000
 20
522.000000
 30
0.000000
  0
ENDSEC
  0
SECTION
  2
ENTITIES
  0
POLYLINE
  8
0
 66
1
 70
1
  0
VERTEX
  8
0
 10
140.248927
 20
520.750000
 42
0.119230
  0
VERTEX
  8
0
 10
139.501870
 20
519.144142
 42
0.014347
  0
VERTEX
  8
0
 10
138.838536
 20
515.265815
 42
0.012251
  0
VERTEX
  8
0
 10
138.174713
 20
509.579018
 42
0.003801
  0
VERTEX
  8
0
 10
137.451500
 20
501.000000
 42
-0.004182
  0
VERTEX
  8
0
 10
136.824226
 20
493.626201
 42
-0.055818
  0
VERTEX
  8
0
 10
136.271849
 20
490.966175
 42
-0.207814
  0
VERTEX
  8
0
 10
135.325708
 20
489.900528
 42
-0.157232
  0
VERTEX
  8
0
 10
133.755616
 20
489.706385
 42
-0.139794
  0
VERTEX
  8
0
 10
132.004462
 20
490.588592
 42
-0.072719
  0
VERTEX
  8
0
 10
130.451580
 20
492.504382
 42
-0.065671
  0
VERTEX
  8
0
 10
129.369434
 20
495.029904
 42
-0.068523
  0
VERTEX
  8
0
 10
129.000000
 20
497.712933
 42
0.031607
  0
VERTEX
  8
0
 10
128.935904
 20
498.725871
 42
0.021894
  0
VERTEX
  8
0
 10
128.741470
 20
499.857417
 42
0.022151
  0
VERTEX
  8
0
 10
128.457557
 20
500.932267
 42
0.041667
  0
VERTEX
  8
0
 10
128.119898
 20
501.763569
 42
-0.003128
  0
VERTEX
  8
0
 10
127.657296
 20
502.690614
 42
-0.000846
  0
VERTEX
  8
0
 10
126.936185
 20
504.164923
 42
-0.000856
  0
VERTEX
  8
0
 10
126.123335
 20
505.841232
 42
-0.000888
  0
VERTEX
  8
0
 10
125.326126
 20
507.500000
 42
0.062588
  0
VERTEX
  8
0
 10
123.622393
 20
510.150785
 42
0.118721
  0
VERTEX
  8
0
 10
121.595924
 20
511.653918
 42
0.150422
  0
VERTEX
  8
0
 10
119.446106
 20
511.876700
 42
0.124990
  0
VERTEX
  8
0
 10
117.361381
 20
510.884956
 42
0.102408
  0
VERTEX
  8
0
 10
116.679939
 20
510.031802
 42
0.072537
  0
VERTEX
  8
0
 10
116.287409
 20
508.867007
 42
0.050802
  0
VERTEX
  8
0
 10
116.161460
 20
507.270021
 42
0.019819
  0
VERTEX
  8
0
 10
116.299758
 20
505.058192
 42
0.020688
  0
VERTEX
  8
0
 10
116.995776
 20
500.239492
 42
0.023492
  0
VERTEX
  8
0
 10
118.067751
 20
495.697934
 42
0.024380
  0
VERTEX
  8
0
 10
119.343912
 20
491.941823
 42
0.090066
  0
VERTEX
  8
0
 10
120.660511
 20
489.822637
 42
-0.056533
  0
VERTEX
  8
0
 10
121.366885
 20
488.838651
 42
-0.099014
  0
VERTEX
  8
0
 10
121.673827
 20
487.887935
 42
-0.084188
  0
VERTEX
  8
0
 10
121.615316
 20
486.786561
 42
-0.032147
  0
VERTEX
  8
0
 10
121.181569
 20
485.307864
 42
-0.017589
  0
VERTEX
  8
0
 10
120.780372
 20
484.317152
 42
-0.072904
  0
VERTEX
  8
0
 10
120.435408
 20
483.773589
 42
-0.409555
  0
VERTEX
  8
0
 10
120.215122
 20
483.755415
 42
-0.208977
  0
VERTEX
  8
0
 10
120.078947
 20
484.027759
 42
0.092534
  0
VERTEX
  8
0
 10
119.908871
 20
484.734457
 42
0.037452
  0
VERTEX
  8
0
 10
119.435691
 20
485.609772
 42
0.035433
  0
VERTEX
  8
0
 10
118.771152
 20
486.499919
 42
0.037661
  0
VERTEX
  8
0
 10
118.000000
 20
487.267972
 42
-0.053019
  0
VERTEX
  8
0
 10
117.234648
 20
488.078465
 42
-0.042040
  0
VERTEX
  8
0
 10
116.587500
 20
489.095268
 42
-0.043405
  0
VERTEX
  8
0
 10
116.144983
 20
490.153679
 42
-0.077467
  0
VERTEX
  8
0
 10
116.000000
 20
491.083832
 42
0.079741
  0
VERTEX
  8
0
 10
115.854332
 20
491.991403
 42
0.088692
  0
VERTEX
  8
0
 10
115.433101
 20
492.771311
 42
0.087156
  0
VERTEX
  8
0
 10
114.760509
 20
493.366944
 42
0.073919
  0
VERTEX
  8
0
 10
113.886441
 20
493.739947
 42
-0.209106
  0
VERTEX
  8
0
 10
112.616666
 20
494.741907
 42
-0.126875
  0
VERTEX
  8
0
 10
112.157886
 20
496.632415
 42
-0.037465
  0
VERTEX
  8
0
 10
112.493853
 20
500.387885
 42
-0.003292
  0
VERTEX
  8
0
 10
114.116578
 20
509.801524
 42
0.020285
  0
VERTEX
  8
0
 10
114.838653
 20
515.049935
 42
0.091210
  0
VERTEX
  8
0
 10
114.574369
 20
518.124085
 42
0.169700
  0
VERTEX
  8
0
 10
113.347456
 20
519.902641
 42
0.121459
  0
VERTEX
  8
0
 10
111.092830
 20
520.826764
 42
0.113805
  0
VERTEX
  8
0
 10
108.898621
 20
520.652228
 42
0.156334
  0
VERTEX
  8
0
 10
107.294100
 20
519.515999
 42
0.090225
  0
VERTEX
  8
0
 10
106.080823
 20
517.094643
 42
0.021912
  0
VERTEX
  8
0
 10
105.010037
 20
512.732710
 42
-0.005547
  0
VERTEX
  8
0
 10
104.301133
 20
509.373810
 42
-0.064725
  0
VERTEX
  8
0
 10
103.844361
 20
508.116088
 42
-0.483404
  0
VERTEX
  8
0
 10
103.408160
 20
508.031023
 42
-0.125927
  0
VERTEX
  8
0
 10
102.929315
 20
508.712810
 42
0.050591
  0
VERTEX
  8
0
 10
102.459947
 20
509.653414
 42
0.031628
  0
VERTEX
  8
0
 10
101.736928
 20
510.650942
 42
0.031567
  0
VERTEX
  8
0
 10
100.890695
 20
511.552901
 42
0.049015
  0
VERTEX
  8
0
 10
100.045982
 20
512.203357
 42
-0.049693
  0
VERTEX
  8
0
 10
99.263317
 20
512.807722
 42
-0.047329
  0
VERTEX
  8
0
 10
98.601007
 20
513.563848
 42
-0.050957
  0
VERTEX
  8
0
 10
98.147455
 20
514.350620
 42
-0.105669
  0
VERTEX
  8
0
 10
98.000000
 20
515.040547
 42
0.181668
  0
VERTEX
  8
0
 10
97.152023
 20
517.297391
 42
0.138051
  0
VERTEX
  8
0
 10
94.919610
 20
518.752341
 42
0.132679
  0
VERTEX
  8
0
 10
92.184796
 20
518.860178
 42
0.164887
  0
VERTEX
  8
0
 10
90.028704
 20
517.534586
 42
0.166177
  0
VERTEX
  8
0
 10
89.337424
 20
515.716704
 42
0.034714
  0
VERTEX
  8
0
 10
89.459711
 20
512.260128
 42
0.033762
  0
VERTEX
  8
0
 10
90.048252
 20
508.877433
 42
0.196851
  0
VERTEX
  8
0
 10
91.089646
 20
507.444596
 42
-0.138485
  0
VERTEX
  8
0
 10
92.226580
 20
506.204443
 42
-0.012680
  0
VERTEX
  8
0
 10
94.031069
 20
502.385598
 42
-0.015243
  0
VERTEX
  8
0
 10
95.612392
 20
498.489764
 42
-0.087352
  0
VERTEX
  8
0
 10
96.011869
 20
496.304864
 42
0.039894
  0
VERTEX
  8
0
 10
96.099544
 20
495.291698
 42
0.007782
  0
VERTEX
  8
0
 10
96.430802
 20
493.487991
 42
0.008220
  0
VERTEX
  8
0
 10
96.885443
 20
491.392320
 42
0.007527
  0
VERTEX
  8
0
 10
97.421356
 20
489.250000
 42
-0.014000
  0
VERTEX
  8
0
 10
97.897433
 20
487.236514
 42
-0.024415
  0
VERTEX
  8
0
 10
98.162802
 20
485.542188
 42
-0.022753
  0
VERTEX
  8
0
 10
98.241027
 20
484.262260
 42
-0.418773
  0
VERTEX
  8
0
 10
97.982812
 20
484.000000
 42
0.176850
  0
VERTEX
  8
0
 10
97.635888
 20
483.873332
 42
0.067307
  0
VERTEX
  8
0
 10
97.284836
 20
483.485937
 42
0.055788
  0
VERTEX
  8
0
 10
96.982552
 20
482.919691
 42
0.043243
  0
VERTEX
  8
0
 10
96.780913
 20
482.250000
 42
-0.696834
  0
VERTEX
  8
0
 10
96.438647
 20
482.199121
 42
-0.023254
  0
VERTEX
  8
0
 10
95.581991
 20
483.951563
 42
-0.016691
  0
VERTEX
  8
0
 10
94.468793
 20
486.781293
 42
-0.007881
  0
VERTEX
  8
0
 10
93.213063
 20
490.500000
 42
0.012494
  0
VERTEX
  8
0
 10
91.797881
 20
494.566764
 42
0.012870
  0
VERTEX
  8
0
 10
90.194296
 20
498.517187
 42
0.012686
  0
VERTEX
  8
0
 10
88.631938
 20
501.864323
 42
0.052173
  0
VERTEX
  8
0
 10
87.432996
 20
503.750000
 42
0.135828
  0
VERTEX
  8
0
 10
83.359024
 20
506.721654
 42
0.271033
  0
VERTEX
  8
0
 10
79.557831
 20
506.072476
 42
0.245218
  0
VERTEX
  8
0
 10
77.995458
 20
502.286137
 42
0.124972
  0
VERTEX
  8
0
 10
79.750000
 20
497.298380
 42
-0.045907
  0
VERTEX
  8
0
 10
80.631301
 20
495.666431
 42
-0.007037
  0
VERTEX
  8
0
 10
82.033465
 20
492.248821
 42
-0.007814
  0
VERTEX
  8
0
 10
83.572445
 20
488.155591
 42
-0.006708
  0
VERTEX
  8
0
 10
85.066050
 20
483.803343
 42
-0.005395
  0
VERTEX
  8
0
 10
86.844947
 20
478.179972
 42
-0.026202
  0
VERTEX
  8
0
 10
87.650257
 20
474.934161
 42
-0.047062
  0
VERTEX
  8
0
 10
87.846348
 20
472.913690
 42
-0.223820
  0
VERTEX
  8
0
 10
87.367202
 20
471.889788
 42
0.078605
  0
VERTEX
  8
0
 10
86.801894
 20
471.246783
 42
0.021409
  0
VERTEX
  8
0
 10
86.125974
 20
470.070322
 42
0.021104
  0
VERTEX
  8
0
 10
85.464343
 20
468.651972
 42
0.020533
  0
VERTEX
  8
0
 10
84.917983
 20
467.170008
 42
-0.026946
  0
VERTEX
  8
0
 10
84.262008
 20
465.458646
 42
-0.012587
  0
VERTEX
  8
0
 10
83.239424
 20
463.314901
 42
-0.012430
  0
VERTEX
  8
0
 10
82.051249
 20
461.114494
 42
-0.017011
  0
VERTEX
  8
0
 10
80.866830
 20
459.199868
 42
0.013088
  0
VERTEX
  8
0
 10
79.769136
 20
457.456157
 42
0.016128
  0
VERTEX
  8
0
 10
78.842131
 20
455.772969
 42
0.014593
  0
VERTEX
  8
0
 10
78.158106
 20
454.327433
 42
0.103566
  0
VERTEX
  8
0
 10
78.000000
 20
453.572313
 42
-0.089047
  0
VERTEX
  8
0
 10
77.892599
 20
452.974038
 42
-0.043195
  0
VERTEX
  8
0
 10
77.559375
 20
452.269134
 42
-0.041010
  0
VERTEX
  8
0
 10
77.073936
 20
451.574426
 42
-0.046584
  0
VERTEX
  8
0
 10
76.500000
 20
451.000000
 42
-0.172276
  0
VERTEX
  8
0
 10
74.956329
 20
450.433852
 42
-0.186615
  0
VERTEX
  8
0
 10
73.461935
 20
450.994070
 42
-0.132673
  0
VERTEX
  8
0
 10
72.374054
 20
452.656923
 42
-0.079048
  0
VERTEX
  8
0
 10
72.000000
 20
455.008138
 42
0.042135
  0
VERTEX
  8
0
 10
71.893233
 20
456.272856
 42
0.022761
  0
VERTEX
  8
0
 10
71.561185
 20
457.801072
 42
0.022515
  0
VERTEX
  8
0
 10
71.078406
 20
459.337298
 42
0.032815
  0
VERTEX
  8
0
 10
70.506161
 20
460.635693
 42
-0.026066
  0
VERTEX
  8
0
 10
69.933786
 20
461.888328
 42
-0.021149
  0
VERTEX
  8
0
 10
69.449327
 20
463.283579
 42
-0.021642
  0
VERTEX
  8
0
 10
69.112442
 20
464.610523
 42
-0.050657
  0
VERTEX
  8
0
 10
69.006161
 20
465.627555
 42
0.060545
  0
VERTEX
  8
0
 10
68.893394
 20
466.533496
 42
0.043841
  0
VERTEX
  8
0
 10
68.561185
 20
467.495827
 42
0.044423
  0
VERTEX
  8
0
 10
68.074853
 20
468.367691
 42
0.070232
  0
VERTEX
  8
0
 10
67.500000
 20
469.000000
 42
-0.034033
  0
VERTEX
  8
0
 10
66.925990
 20
469.546404
 42
-0.035584
  0
VERTEX
  8
0
 10
66.440625
 20
470.157967
 42
-0.038054
  0
VERTEX
  8
0
 10
66.102489
 20
470.743571
 42
-0.112363
  0
VERTEX
  8
0
 10
66.000000
 20
471.193873
 42
0.092577
  0
VERTEX
  8
0
 10
65.914674
 20
471.650762
 42
0.032556
  0
VERTEX
  8
0
 10
65.632813
 20
472.258365
 42
0.030998
  0
VERTEX
  8
0
 10
65.228371
 20
472.901440
 42
0.031624
  0
VERTEX
  8
0
 10
64.750000
 20
473.485059
 42
-0.012676
  0
VERTEX
  8
0
 10
64.113690
 20
474.204015
 42
-0.003719
  0
VERTEX
  8
0
 10
63.173185
 20
475.339610
 42
-0.003733
  0
VERTEX
  8
0
 10
62.133646
 20
476.633564
 42
-0.003999
  0
VERTEX
  8
0
 10
61.137438
 20
477.913631
 42
0.068435
  0
VERTEX
  8
0
 10
58.855186
 20
480.175005
 42
0.161848
  0
VERTEX
  8
0
 10
56.613001
 20
480.926097
 42
0.177142
  0
VERTEX
  8
0
 10
54.506400
 20
480.161123
 42
0.084767
  0
VERTEX
  8
0
 10
52.619730
 20
477.933399
 42
0.059216
  0
VERTEX
  8
0
 10
51.736404
 20
475.929985
 42
0.036489
  0
VERTEX
  8
0
 10
51.163306
 20
473.414791
 42
0.025215
  0
VERTEX
  8
0
 10
50.818093
 20
469.997037
 42
0.008648
  0
VERTEX
  8
0
 10
50.654122
 20
465.022500
 42
0.007796
  0
VERTEX
  8
0
 10
50.653747
 20
459.053732
 42
0.041662
  0
VERTEX
  8
0
 10
50.974774
 20
455.815212
 42
0.056009
  0
VERTEX
  8
0
 10
51.791703
 20
453.116888
 42
0.021255
  0
VERTEX
  8
0
 10
53.500000
 20
449.565832
 42
-0.013675
  0
VERTEX
  8
0
 10
54.741471
 20
447.082246
 42
-0.034700
  0
VERTEX
  8
0
 10
55.464409
 20
445.200641
 42
-0.048575
  0
VERTEX
  8
0
 10
55.736365
 20
443.861648
 42
-0.274522
  0
VERTEX
  8
0
 10
55.443226
 20
443.226731
 42
0.089096
  0
VERTEX
  8
0
 10
54.950254
 20
442.738918
 42
0.019530
  0
VERTEX
  8
0
 10
54.300180
 20
441.733317
 42
0.019740
  0
VERTEX
  8
0
 10
53.630589
 20
440.493965
 42
0.017825
  0
VERTEX
  8
0
 10
53.035986
 20
439.163284
 42
-0.056190
  0
VERTEX
  8
0
 10
52.209371
 20
437.638741
 42
-0.034647
  0
VERTEX
  8
0
 10
50.927630
 20
436.048424
 42
-0.032919
  0
VERTEX
  8
0
 10
49.341380
 20
434.548761
 42
-0.034304
  0
VERTEX
  8
0
 10
47.592761
 20
433.292600
 42
0.019470
  0
VERTEX
  8
0
 10
44.822766
 20
431.424643
 42
0.033501
  0
VERTEX
  8
0
 10
42.693865
 20
429.634338
 42
0.021436
  0
VERTEX
  8
0
 10
40.268392
 20
427.091274
 42
0.003865
  0
VERTEX
  8
0
 10
36.000000
 20
422.136744
 42
-0.016532
  0
VERTEX
  8
0
 10
34.566847
 20
420.556011
 42
-0.021862
  0
VERTEX
  8
0
 10
33.155100
 20
419.220786
 42
-0.019974
  0
VERTEX
  8
0
 10
31.916594
 20
418.231710
 42
-0.158814
  0
VERTEX
  8
0
 10
31.230128
 20
418.005021
 42
0.131513
  0
VERTEX
  8
0
 10
29.266613
 20
417.471148
 42
0.018638
  0
VERTEX
  8
0
 10
25.698965
 20
415.213108
 42
0.020291
  0
VERTEX
  8
0
 10
21.619799
 20
412.162509
 42
0.016491
  0
VERTEX
  8
0
 10
17.500000
 20
408.580539
 42
-0.007002
  0
VERTEX
  8
0
 10
15.356261
 20
406.644026
 42
-0.006021
  0
VERTEX
  8
0
 10
13.049483
 20
404.666863
 42
-0.006072
  0
VERTEX
  8
0
 10
10.912183
 20
402.922827
 42
-0.017349
  0
VERTEX
  8
0
 10
9.370579
 20
401.780818
 42
0.099787
  0
VERTEX
  8
0
 10
6.478764
 20
398.792528
 42
0.028503
  0
VERTEX
  8
0
 10
3.296236
 20
393.143911
 42
0.028952
  0
VERTEX
  8
0
 10
0.761006
 20
387.117417
 42
0.087754
  0
VERTEX
  8
0
 10
0.031803
 20
382.745182
 42
0.062971
  0
VERTEX
  8
0
 10
0.419222
 20
379.905133
 42
0.095928
  0
VERTEX
  8
0
 10
1.504459
 20
377.673480
 42
0.127332
  0
VERTEX
  8
0
 10
3.084485
 20
376.412407
 42
0.170648
  0
VERTEX
  8
0
 10
4.897453
 20
376.262932
 42
-0.084718
  0
VERTEX
  8
0
 10
5.828683
 20
376.343917
 42
-0.068257
  0
VERTEX
  8
0
 10
6.810839
 20
376.125744
 42
-0.063593
  0
VERTEX
  8
0
 10
7.761222
 20
375.628662
 42
-0.056639
  0
VERTEX
  8
0
 10
8.598171
 20
374.891522
 42
0.087206
  0
VERTEX
  8
0
 10
9.813503
 20
373.945839
 42
0.070239
  0
VERTEX
  8
0
 10
11.372460
 20
373.381993
 42
0.042472
  0
VERTEX
  8
0
 10
13.661232
 20
373.101595
 42
0.010799
  0
VERTEX
  8
0
 10
17.404988
 20
373.043893
 42
0.016480
  0
VERTEX
  8
0
 10
20.403495
 20
373.161325
 42
0.014139
  0
VERTEX
  8
0
 10
23.545925
 20
373.477814
 42
0.014366
  0
VERTEX
  8
0
 10
26.384397
 20
373.928264
 42
0.039114
  0
VERTEX
  8
0
 10
28.347096
 20
374.459435
 42
-0.074522
  0
VERTEX
  8
0
 10
32.963965
 20
375.365177
 42
-0.026430
  0
VERTEX
  8
0
 10
39.712805
 20
375.311878
 42
-0.026523
  0
VERTEX
  8
0
 10
46.872367
 20
374.493728
 42
-0.039239
  0
VERTEX
  8
0
 10
53.000000
 20
372.960032
 42
0.018904
  0
VERTEX
  8
0
 10
55.667001
 20
372.176093
 42
0.008544
  0
VERTEX
  8
0
 10
59.214371
 20
371.341766
 42
0.008445
  0
VERTEX
  8
0
 10
62.992776
 20
370.587564
 42
0.011428
  0
VERTEX
  8
0
 10
66.431903
 20
370.042179
 42
-0.002492
  0
VERTEX
  8
0
 10
69.483240
 20
369.614040
 42
-0.004021
  0
VERTEX
  8
0
 10
72.076552
 20
369.215657
 42
-0.000841
  0
VERTEX
  8
0
 10
74.345363
 20
368.844511
 42
-0.216309
  0
VERTEX
  8
0
 10
74.509314
 20
368.734764
 42
-0.043769
  0
VERTEX
  8
0
 10
74.601225
 20
368.552642
 42
-0.000790
  0
VERTEX
  8
0
 10
75.003374
 20
367.540837
 42
-0.001960
  0
VERTEX
  8
0
 10
75.465880
 20
366.358260
 42
-0.001307
  0
VERTEX
  8
0
 10
75.986889
 20
365.000000
 42
0.024215
  0
VERTEX
  8
0
 10
76.652357
 20
363.477574
 42
0.015969
  0
VERTEX
  8
0
 10
77.555773
 20
361.793750
 42
0.016083
  0
VERTEX
  8
0
 10
78.541822
 20
360.208813
 42
0.029725
  0
VERTEX
  8
0
 10
79.457210
 20
359.000000
 42
-0.031263
  0
VERTEX
  8
0
 10
81.719067
 20
355.993955
 42
-0.056730
  0
VERTEX
  8
0
 10
83.108467
 20
353.253399
 42
-0.068286
  0
VERTEX
  8
0
 10
83.688633
 20
350.653038
 42
-0.074980
  0
VERTEX
  8
0
 10
83.517054
 20
348.077644
 42
0.034585
  0
VERTEX
  8
0
 10
83.306921
 20
346.659084
 42
0.047380
  0
VERTEX
  8
0
 10
83.328555
 20
345.369319
 42
0.054838
  0
VERTEX
  8
0
 10
83.573542
 20
344.279023
 42
0.090781
  0
VERTEX
  8
0
 10
84.033993
 20
343.459041
 42
-0.018649
  0
VERTEX
  8
0
 10
84.617571
 20
342.699975
 42
-0.163368
  0
VERTEX
  8
0
 10
84.738949
 20
342.299466
 42
-0.334322
  0
VERTEX
  8
0
 10
84.556313
 20
342.071241
 42
-0.062738
  0
VERTEX
  8
0
 10
83.990776
 20
342.000000
 42
0.235699
  0
VERTEX
  8
0
 10
83.458588
 20
341.734372
 42
0.130481
  0
VERTEX
  8
0
 10
83.179139
 20
341.045551
 42
0.058862
  0
VERTEX
  8
0
 10
83.168727
 20
339.794027
 42
0.014419
  0
VERTEX
  8
0
 10
83.452825
 20
337.750000
 42
-0.000431
  0
VERTEX
  8
0
 10
83.765361
 20
335.885469
 42
-0.000306
  0
VERTEX
  8
0
 10
84.112808
 20
333.793750
 42
-0.000309
  0
VERTEX
  8
0
 10
84.442062
 20
331.796360
 42
-0.000657
  0
VERTEX
  8
0
 10
84.693900
 20
330.250000
 42
0.025135
  0
VERTEX
  8
0
 10
84.959779
 20
329.004954
 42
0.037546
  0
VERTEX
  8
0
 10
85.326231
 20
327.954687
 42
0.042290
  0
VERTEX
  8
0
 10
85.731679
 20
327.204145
 42
0.252940
  0
VERTEX
  8
0
 10
86.109406
 20
327.000000
 42
-0.237243
  0
VERTEX
  8
0
 10
86.450844
 20
326.828330
 42
-0.070478
  0
VERTEX
  8
0
 10
86.738388
 20
326.299885
 42
-0.053915
  0
VERTEX
  8
0
 10
86.935010
 20
325.529461
 42
-0.035553
  0
VERTEX
  8
0
 10
87.000000
 20
324.616631
 42
0.061039
  0
VERTEX
  8
0
 10
87.124256
 20
323.602581
 42
0.080701
  0
VERTEX
  8
0
 10
87.490267
 20
322.748583
 42
0.089695
  0
VERTEX
  8
0
 10
88.069811
 20
322.120050
 42
0.098123
  0
VERTEX
  8
0
 10
88.815754
 20
321.758432
 42
-0.100270
  0
VERTEX
  8
0
 10
89.687351
 20
321.331312
 42
-0.148454
  0
VERTEX
  8
0
 10
90.178751
 20
320.643745
 42
-0.089377
  0
VERTEX
  8
0
 10
90.345003
 20
319.524675
 42
-0.021359
  0
VERTEX
  8
0
 10
90.206348
 20
317.641801
 42
0.024266
  0
VERTEX
  8
0
 10
90.108256
 20
316.195023
 42
0.045968
  0
VERTEX
  8
0
 10
90.193042
 20
315.030776
 42
0.064584
  0
VERTEX
  8
0
 10
90.430143
 20
314.246429
 42
0.295216
  0
VERTEX
  8
0
 10
90.811139
 20
314.000000
 42
-0.223253
  0
VERTEX
  8
0
 10
91.254290
 20
313.791751
 42
-0.048218
  0
VERTEX
  8
0
 10
91.742392
 20
313.071872
 42
-0.041595
  0
VERTEX
  8
0
 10
92.194045
 20
312.050436
 42
-0.029253
  0
VERTEX
  8
0
 10
92.535051
 20
310.840416
 42
0.065492
  0
VERTEX
  8
0
 10
93.728724
 20
307.539640
 42
0.019564
  0
VERTEX
  8
0
 10
96.380102
 20
302.875675
 42
0.019778
  0
VERTEX
  8
0
 10
99.404236
 20
298.413265
 42
0.060584
  0
VERTEX
  8
0
 10
101.906948
 20
295.759787
 42
-0.038472
  0
VERTEX
  8
0
 10
102.707833
 20
294.982393
 42
-0.037823
  0
VERTEX
  8
0
 10
103.385166
 20
294.087262
 42
-0.040404
  0
VERTEX
  8
0
 10
103.853879
 20
293.211454
 42
-0.103019
  0
VERTEX
  8
0
 10
104.000000
 20
292.509787
 42
0.064412
  0
VERTEX
  8
0
 10
104.074669
 20
291.932574
 42
0.082112
  0
VERTEX
  8
0
 10
104.293750
 20
291.443500
 42
0.098754
  0
VERTEX
  8
0
 10
104.618643
 20
291.116309
 42
0.149104
  0
VERTEX
  8
0
 10
105.000000
 20
291.000000
 42
-0.148195
  0
VERTEX
  8
0
 10
105.381354
 20
290.884432
 42
-0.098894
  0
VERTEX
  8
0
 10
105.706250
 20
290.559375
 42
-0.082425
  0
VERTEX
  8
0
 10
105.925306
 20
290.073457
 42
-0.064853
  0
VERTEX
  8
0
 10
106.000000
 20
289.500000
 42
0.064853
  0
VERTEX
  8
0
 10
106.074694
 20
288.926543
 42
0.082425
  0
VERTEX
  8
0
 10
106.293750
 20
288.440625
 42
0.098894
  0
VERTEX
  8
0
 10
106.618646
 20
288.115568
 42
0.148195
  0
VERTEX
  8
0
 10
107.000000
 20
288.000000
 42
-0.148195
  0
VERTEX
  8
0
 10
107.381354
 20
287.884432
 42
-0.098894
  0
VERTEX
  8
0
 10
107.706250
 20
287.559375
 42
-0.082425
  0
VERTEX
  8
0
 10
107.925306
 20
287.073457
 42
-0.064853
  0
VERTEX
  8
0
 10
108.000000
 20
286.500000
 42
0.047957
  0
VERTEX
  8
0
 10
108.055296
 20
285.924811
 42
0.067063
  0
VERTEX
  8
0
 10
108.220313
 20
285.436057
 42
0.086196
  0
VERTEX
  8
0
 10
108.463501
 20
285.103569
 42
0.188847
  0
VERTEX
  8
0
 10
108.750000
 20
284.984451
 42
-0.242664
  0
VERTEX
  8
0
 10
109.137722
 20
284.774219
 42
-0.013552
  0
VERTEX
  8
0
 10
109.902638
 20
283.582724
 42
-0.018406
  0
VERTEX
  8
0
 10
110.753679
 20
282.049801
 42
-0.012219
  0
VERTEX
  8
0
 10
111.620683
 20
280.234451
 42
-0.014373
  0
VERTEX
  8
0
 10
114.506946
 20
273.260166
 42
-0.024623
  0
VERTEX
  8
0
 10
116.453621
 20
267.273873
 42
-0.028911
  0
VERTEX
  8
0
 10
117.582881
 20
261.906276
 42
-0.036127
  0
VERTEX
  8
0
 10
117.976143
 20
256.831040
 42
0.027008
  0
VERTEX
  8
0
 10
118.094218
 20
254.835947
 42
0.021409
  0
VERTEX
  8
0
 10
118.429688
 20
252.701968
 42
0.021885
  0
VERTEX
  8
0
 10
118.913732
 20
250.745209
 42
0.049358
  0
VERTEX
  8
0
 10
119.486623
 20
249.331040
 42
-0.010866
  0
VERTEX
  8
0
 10
120.197883
 20
247.901951
 42
-0.004037
  0
VERTEX
  8
0
 10
121.137999
 20
245.862868
 42
-0.003998
  0
VERTEX
  8
0
 10
122.127889
 20
243.621799
 42
-0.004818
  0
VERTEX
  8
0
 10
123.020728
 20
241.500000
 42
0.005472
  0
VERTEX
  8
0
 10
123.875633
 20
239.475763
 42
0.005963
  0
VERTEX
  8
0
 10
124.751195
 20
237.528125
 42
0.005620
  0
VERTEX
  8
0
 10
125.539010
 20
235.878927
 42
0.029092
  0
VERTEX
  8
0
 10
126.036493
 20
235.000000
 42
-0.015274
  0
VERTEX
  8
0
 10
126.472441
 20
234.277123
 42
-0.007388
  0
VERTEX
  8
0
 10
126.987887
 20
233.327645
 42
-0.007319
  0
VERTEX
  8
0
 10
127.496242
 20
232.321759
 42
-0.010441
  0
VERTEX
  8
0
 10
127.915565
 20
231.413261
 42
0.045684
  0
VERTEX
  8
0
 10
128.486777
 20
230.374702
 42
0.013343
  0
VERTEX
  8
0
 10
129.548521
 20
228.890102
 42
0.013287
  0
VERTEX
  8
0
 10
130.838933
 20
227.274940
 42
0.013869
  0
VERTEX
  8
0
 10
132.195582
 20
225.754100
 42
-0.014395
  0
VERTEX
  8
0
 10
133.593116
 20
224.184100
 42
-0.011583
  0
VERTEX
  8
0
 10
135.006205
 20
222.420091
 42
-0.011753
  0
VERTEX
  8
0
 10
136.236236
 20
220.728526
 42
-0.029164
  0
VERTEX
  8
0
 10
137.032405
 20
219.420874
 42
0.055112
  0
VERTEX
  8
0
 10
138.947635
 20
216.613597
 42
0.013841
  0
VERTEX
  8
0
 10
142.674300
 20
212.503402
 42
0.014585
  0
VERTEX
  8
0
 10
147.003871
 20
208.242115
 42
0.019795
  0
VERTEX
  8
0
 10
151.167600
 20
204.672697
 42
-0.031195
  0
VERTEX
  8
0
 10
153.113634
 20
202.925959
 42
-0.077214
  0
VERTEX
  8
0
 10
154.228577
 20
201.373500
 42
-0.067921
  0
VERTEX
  8
0
 10
154.898644
 20
199.436636
 42
-0.020112
  0
VERTEX
  8
0
 10
155.390812
 20
196.331890
 42
0.015530
  0
VERTEX
  8
0
 10
155.786234
 20
193.680596
 42
0.006776
  0
VERTEX
  8
0
 10
156.467553
 20
190.188089
 42
0.006698
  0
VERTEX
  8
0
 10
157.291876
 20
186.494997
 42
0.008879
  0
VERTEX
  8
0
 10
158.146349
 20
183.159193
 42
-0.001918
  0
VERTEX
  8
0
 10
159.010714
 20
179.970132
 42
-0.001826
  0
VERTEX
  8
0
 10
159.865093
 20
176.721763
 42
-0.001810
  0
VERTEX
  8
0
 10
160.599296
 20
173.845426
 42
-0.006484
  0
VERTEX
  8
0
 10
161.037879
 20
172.000000
 42
0.010571
  0
VERTEX
  8
0
 10
162.254793
 20
167.059435
 42
0.002573
  0
VERTEX
  8
0
 10
164.476717
 20
158.961473
 42
0.000782
  0
VERTEX
  8
0
 10
166.917514
 20
150.294144
 42
0.069489
  0
VERTEX
  8
0
 10
167.456240
 20
149.070805
 42
-0.127673
  0
VERTEX
  8
0
 10
167.635280
 20
148.491200
 42
-0.001402
  0
VERTEX
  8
0
 10
167.813395
 20
144.334588
 42
-0.004272
  0
VERTEX
  8
0
 10
167.965073
 20
139.517222
 42
-0.002756
  0
VERTEX
  8
0
 10
168.062333
 20
133.934113
 42
0.009647
  0
VERTEX
  8
0
 10
168.348311
 20
124.771339
 42
0.016223
  0
VERTEX
  8
0
 10
168.985798
 20
117.102716
 42
0.015515
  0
VERTEX
  8
0
 10
170.142539
 20
109.258586
 42
0.007952
  0
VERTEX
  8
0
 10
172.053160
 20
99.500000
 42
-0.037599
  0
VERTEX
  8
0
 10
173.261973
 20
90.538760
 42
-0.007615
  0
VERTEX
  8
0
 10
173.963440
 20
74.494096
 42
-0.006919
  0
VERTEX
  8
0
 10
174.198069
 20
58.452280
 42
-0.049181
  0
VERTEX
  8
0
 10
173.441912
 20
50.721037
 42
-0.004588
  0
VERTEX
  8
0
 10
170.485927
 20
36.500941
 42
-0.040702
  0
VERTEX
  8
0
 10
168.622922
 20
30.380745
 42
-0.068462
  0
VERTEX
  8
0
 10
166.110870
 20
25.927094
 42
-0.024890
  0
VERTEX
  8
0
 10
161.430197
 20
20.370469
 42
0.038684
  0
VERTEX
  8
0
 10
158.693348
 20
16.933524
 42
0.053136
  0
VERTEX
  8
0
 10
156.838907
 20
13.448269
 42
0.063223
  0
VERTEX
  8
0
 10
155.997888
 20
10.242113
 42
0.124808
  0
VERTEX
  8
0
 10
156.305972
 20
7.645032
 42
0.265914
  0
VERTEX
  8
0
 10
157.862568
 20
6.374413
 42
0.016731
  0
VERTEX
  8
0
 10
163.955553
 20
5.569582
 42
0.023858
  0
VERTEX
  8
0
 10
170.193665
 20
5.256384
 42
0.076840
  0
VERTEX
  8
0
 10
174.289668
 20
5.879289
 42
-0.005032
  0
VERTEX
  8
0
 10
175.822730
 20
6.343852
 42
-0.002363
  0
VERTEX
  8
0
 10
177.813721
 20
6.915173
 42
-0.002341
  0
VERTEX
  8
0
 10
179.905805
 20
7.494253
 42
-0.003291
  0
VERTEX
  8
0
 10
181.778318
 20
7.989918
 42
0.000000
  0
VERTEX
  8
0
 10
186.056636
 20
9.092339
 42
0.000000
  0
VERTEX
  8
0
 10
185.423605
 20
13.864363
 42
-0.024943
  0
VERTEX
  8
0
 10
185.180801
 20
16.818406
 42
-0.095719
  0
VERTEX
  8
0
 10
185.470986
 20
18.631275
 42
-0.077931
  0
VERTEX
  8
0
 10
186.444881
 20
20.392453
 42
-0.013187
  0
VERTEX
  8
0
 10
188.889953
 20
23.372850
 42
0.029356
  0
VERTEX
  8
0
 10
191.942953
 20
27.349724
 42
0.080687
  0
VERTEX
  8
0
 10
193.429024
 20
30.547681
 42
0.074208
  0
VERTEX
  8
0
 10
193.891853
 20
34.206252
 42
0.022165
  0
VERTEX
  8
0
 10
193.516326
 20
39.833995
 42
-0.021802
  0
VERTEX
  8
0
 10
192.702190
 20
51.903249
 42
-0.006412
  0
VERTEX
  8
0
 10
192.499273
 20
70.465810
 42
-0.006072
  0
VERTEX
  8
0
 10
192.757449
 20
88.855802
 42
-0.027778
  0
VERTEX
  8
0
 10
193.629286
 20
99.500000
 42
0.017209
  0
VERTEX
  8
0
 10
194.195596
 20
104.986602
 42
0.004043
  0
VERTEX
  8
0
 10
194.752332
 20
114.200000
 42
0.004160
  0
VERTEX
  8
0
 10
195.219025
 20
124.812501
 42
0.004080
  0
VERTEX
  8
0
 10
195.512645
 20
135.500000
 42
-0.002316
  0
VERTEX
  8
0
 10
195.762396
 20
145.931201
 42
-0.002756
  0
VERTEX
  8
0
 10
196.097924
 20
155.771875
 42
-0.002388
  0
VERTEX
  8
0
 10
196.466252
 20
164.067593
 42
-0.017781
  0
VERTEX
  8
0
 10
196.800144
 20
168.000000
 42
0.000000
  0
VERTEX
  8
0
 10
197.585639
 20
174.500000
 42
0.000000
  0
VERTEX
  8
0
 10
198.854656
 20
165.500000
 42
0.006870
  0
VERTEX
  8
0
 10
199.411656
 20
161.907469
 42
0.008331
  0
VERTEX
  8
0
 10
200.036101
 20
158.556250
 42
0.007207
  0
VERTEX
  8
0
 10
200.647457
 20
155.760659
 42
0.055614
  0
VERTEX
  8
0
 10
201.094569
 20
154.500000
 42
-0.077176
  0
VERTEX
  8
0
 10
201.485427
 20
153.226965
 42
-0.009795
  0
VERTEX
  8
0
 10
201.842224
 20
150.370313
 42
-0.011295
  0
VERTEX
  8
0
 10
202.124552
 20
146.938297
 42
-0.009173
  0
VERTEX
  8
0
 10
202.276390
 20
143.250000
 42
0.008123
  0
VERTEX
  8
0
 10
202.414936
 20
139.703395
 42
0.013437
  0
VERTEX
  8
0
 10
202.660842
 20
136.717187
 42
0.007038
  0
VERTEX
  8
0
 10
202.961776
 20
134.285128
 42
0.374580
  0
VERTEX
  8
0
 10
203.288971
 20
134.000000
 42
-0.348377
  0
VERTEX
  8
0
 10
203.558987
 20
133.785878
 42
-0.045214
  0
VERTEX
  8
0
 10
203.668573
 20
133.005515
 42
-0.037045
  0
VERTEX
  8
0
 10
203.641348
 20
131.912569
 42
-0.021624
  0
VERTEX
  8
0
 10
203.455506
 20
130.614521
 42
0.028051
  0
VERTEX
  8
0
 10
203.269874
 20
129.187515
 42
0.046239
  0
VERTEX
  8
0
 10
203.293137
 20
127.972302
 42
0.058308
  0
VERTEX
  8
0
 10
203.506209
 20
127.054186
 42
0.169779
  0
VERTEX
  8
0
 10
203.910193
 20
126.555504
 42
-0.161570
  0
VERTEX
  8
0
 10
204.331805
 20
126.051737
 42
-0.034850
  0
VERTEX
  8
0
 10
204.679869
 20
124.953096
 42
-0.032975
  0
VERTEX
  8
0
 10
204.920023
 20
123.564160
 42
-0.026327
  0
VERTEX
  8
0
 10
205.000000
 20
122.046318
 42
0.033082
  0
VERTEX
  8
0
 10
205.126373
 20
120.138419
 42
0.012164
  0
VERTEX
  8
0
 10
205.547639
 20
117.470512
 42
0.011996
  0
VERTEX
  8
0
 10
206.150541
 20
114.569777
 42
0.014106
  0
VERTEX
  8
0
 10
206.864303
 20
111.855335
 42
-0.009753
  0
VERTEX
  8
0
 10
211.480716
 20
94.900603
 42
-0.032799
  0
VERTEX
  8
0
 10
213.547163
 20
83.593071
 42
-0.032745
  0
VERTEX
  8
0
 10
214.118850
 20
72.102931
 42
-0.009697
  0
VERTEX
  8
0
 10
213.499899
 20
54.500000
 42
-0.006200
  0
VERTEX
  8
0
 10
212.902918
 20
45.595262
 42
-0.032830
  0
VERTEX
  8
0
 10
212.197061
 20
40.760642
 42
-0.060668
  0
VERTEX
  8
0
 10
211.104246
 20
37.588813
 42
-0.073903
  0
VERTEX
  8
0
 10
209.331145
 20
35.000000
 42
0.013065
  0
VERTEX
  8
0
 10
206.835627
 20
32.165782
 42
0.033295
  0
VERTEX
  8
0
 10
205.224613
 20
29.952701
 42
0.046895
  0
VERTEX
  8
0
 10
204.300166
 20
28.128070
 42
0.094084
  0
VERTEX
  8
0
 10
204.000000
 20
26.546990
 42
-0.040760
  0
VERTEX
  8
0
 10
203.926946
 20
25.652323
 42
-0.035722
  0
VERTEX
  8
0
 10
203.709069
 20
24.739748
 42
-0.037415
  0
VERTEX
  8
0
 10
203.389806
 20
23.941740
 42
-0.082696
  0
VERTEX
  8
0
 10
203.009598
 20
23.409598
 42
0.109117
  0
VERTEX
  8
0
 10
202.586166
 20
22.746104
 42
0.018292
  0
VERTEX
  8
0
 10
202.117148
 20
21.302193
 42
0.019276
  0
VERTEX
  8
0
 10
201.686386
 20
19.533877
 42
0.016047
  0
VERTEX
  8
0
 10
201.362247
 20
17.626229
 42
0.000000
  0
VERTEX
  8
0
 10
200.705298
 20
12.833261
 42
0.000000
  0
VERTEX
  8
0
 10
205.602649
 20
13.518389
 42
0.016419
  0
VERTEX
  8
0
 10
212.996209
 20
14.801482
 42
0.019226
  0
VERTEX
  8
0
 10
219.905669
 20
16.515153
 42
0.016640
  0
VERTEX
  8
0
 10
225.579185
 20
18.362835
 42
0.138278
  0
VERTEX
  8
0
 10
227.755010
 20
19.925808
 42
0.099064
  0
VERTEX
  8
0
 10
228.234201
 20
20.856282
 42
0.025691
  0
VERTEX
  8
0
 10
228.614845
 20
22.506331
 42
0.025098
  0
VERTEX
  8
0
 10
228.861969
 20
24.470394
 42
0.023262
  0
VERTEX
  8
0
 10
228.919756
 20
26.500000
 42
-0.004231
  0
VERTEX
  8
0
 10
228.874130
 20
31.257999
 42
-0.060654
  0
VERTEX
  8
0
 10
229.076554
 20
32.936312
 42
-0.171426
  0
VERTEX
  8
0
 10
229.663418
 20
33.830610
 42
-0.086004
  0
VERTEX
  8
0
 10
230.878071
 20
34.461301
 42
0.206772
  0
VERTEX
  8
0
 10
232.968836
 20
36.277103
 42
0.070864
  0
VERTEX
  8
0
 10
234.205328
 20
40.185880
 42
0.049649
  0
VERTEX
  8
0
 10
234.578413
 20
45.859161
 42
0.023815
  0
VERTEX
  8
0
 10
233.986116
 20
53.139999
 42
0.008174
  0
VERTEX
  8
0
 10
233.424808
 20
56.980150
 42
0.008311
  0
VERTEX
  8
0
 10
232.741015
 20
60.778625
 42
0.008136
  0
VERTEX
  8
0
 10
232.038268
 20
64.059558
 42
0.033617
  0
VERTEX
  8
0
 10
231.449726
 20
66.000000
 42
-0.039601
  0
VERTEX
  8
0
 10
230.864668
 20
68.015369
 42
-0.007929
  0
VERTEX
  8
0
 10
230.166585
 20
71.694468
 42
-0.008335
  0
VERTEX
  8
0
 10
229.491732
 20
76.013823
 42
-0.007691
  0
VERTEX
  8
0
 10
228.941076
 20
80.470530
 42
-0.013902
  0
VERTEX
  8
0
 10
228.365961
 20
87.666789
 42
-0.017702
  0
VERTEX
  8
0
 10
228.255780
 20
94.324870
 42
-0.012267
  0
VERTEX
  8
0
 10
228.616459
 20
102.632916
 42
-0.003172
  0
VERTEX
  8
0
 10
229.610976
 20
116.000000
 42
0.027711
  0
VERTEX
  8
0
 10
229.655188
 20
117.754058
 42
0.010130
  0
VERTEX
  8
0
 10
229.529905
 20
120.234375
 42
0.010007
  0
VERTEX
  8
0
 10
229.283153
 20
122.946235
 42
0.011804
  0
VERTEX
  8
0
 10
228.937949
 20
125.500000
 42
-0.013962
  0
VERTEX
  8
0
 10
228.199356
 20
131.147461
 42
-0.012639
  0
VERTEX
  8
0
 10
227.747343
 20
137.017980
 42
-0.004857
  0
VERTEX
  8
0
 10
227.519122
 20
142.467580
 42
-0.423659
  0
VERTEX
  8
0
 10
228.034700
 20
143.000000
 42
0.383260
  0
VERTEX
  8
0
 10
228.289980
 20
143.229369
 42
0.001058
  0
VERTEX
  8
0
 10
228.813840
 20
148.214063
 42
0.005126
  0
VERTEX
  8
0
 10
229.344460
 20
153.943968
 42
0.003086
  0
VERTEX
  8
0
 10
229.862155
 20
160.750000
 42
-0.001278
  0
VERTEX
  8
0
 10
230.380027
 20
167.900065
 42
-0.001481
  0
VERTEX
  8
0
 10
230.910687
 20
174.705279
 42
-0.001319
  0
VERTEX
  8
0
 10
231.392294
 20
180.465082
 42
-0.008770
  0
VERTEX
  8
0
 10
231.690350
 20
183.331799
 42
0.000000
  0
VERTEX
  8
0
 10
232.278545
 20
188.163599
 42
0.000000
  0
VERTEX
  8
0
 10
237.889272
 20
187.637431
 42
-0.008204
  0
VERTEX
  8
0
 10
243.122816
 20
187.059863
 42
-0.005746
  0
VERTEX
  8
0
 10
248.999026
 20
186.244871
 42
-0.005575
  0
VERTEX
  8
0
 10
255.094806
 20
185.258283
 42
-0.006058
  0
VERTEX
  8
0
 10
261.000000
 20
184.160986
 42
0.038087
  0
VERTEX
  8
0
 10
266.388270
 20
183.512899
 42
0.015458
  0
VERTEX
  8
0
 10
273.785010
 20
183.419324
 42
0.014042
  0
VERTEX
  8
0
 10
282.418626
 20
183.819756
 42
0.010982
  0
VERTEX
  8
0
 10
291.758173
 20
184.722824
 42
0.017402
  0
VERTEX
  8
0
 10
296.693421
 20
185.484656
 42
0.048693
  0
VERTEX
  8
0
 10
300.048457
 20
186.468566
 42
0.063241
  0
VERTEX
  8
0
 10
302.625832
 20
187.906485
 42
0.049788
  0
VERTEX
  8
0
 10
305.000000
 20
190.051340
 42
-0.100749
  0
VERTEX
  8
0
 10
305.397806
 20
190.343446
 42
-0.005496
  0
VERTEX
  8
0
 10
306.821875
 20
190.982064
 42
-0.008364
  0
VERTEX
  8
0
 10
308.548219
 20
191.699454
 42
-0.005998
  0
VERTEX
  8
0
 10
310.500000
 20
192.445540
 42
0.012638
  0
VERTEX
  8
0
 10
312.726750
 20
193.330799
 42
0.007861
  0
VERTEX
  8
0
 10
315.294138
 20
194.475457
 42
0.007885
  0
VERTEX
  8
0
 10
317.792770
 20
195.685162
 42
0.014128
  0
VERTEX
  8
0
 10
319.799195
 20
196.768052
 42
-0.030868
  0
VERTEX
  8
0
 10
322.891016
 20
198.305472
 42
-0.205695
  0
VERTEX
  8
0
 10
324.572815
 20
198.295383
 42
-0.149792
  0
VERTEX
  8
0
 10
326.025794
 20
197.048767
 42
-0.014428
  0
VERTEX
  8
0
 10
328.427855
 20
193.000000
 42
0.057259
  0
VERTEX
  8
0
 10
329.422115
 20
191.610255
 42
0.007712
  0
VERTEX
  8
0
 10
331.875898
 20
188.980625
 42
0.008817
  0
VERTEX
  8
0
 10
334.898869
 20
185.948437
 42
0.007322
  0
VERTEX
  8
0
 10
338.217756
 20
182.827660
 42
-0.009644
  0
VERTEX
  8
0
 10
341.647223
 20
179.572764
 42
-0.009204
  0
VERTEX
  8
0
 10
345.003499
 20
176.137819
 42
-0.009182
  0
VERTEX
  8
0
 10
347.855071
 20
172.996239
 42
-0.032151
  0
VERTEX
  8
0
 10
349.518755
 20
170.827660
 42
0.028205
  0
VERTEX
  8
0
 10
352.306641
 20
167.133769
 42
0.017816
  0
VERTEX
  8
0
 10
355.942967
 20
163.139677
 42
0.011202
  0
VERTEX
  8
0
 10
359.562063
 20
159.600612
 42
0.190199
  0
VERTEX
  8
0
 10
361.083853
 20
159.000000
 42
-0.158803
  0
VERTEX
  8
0
 10
361.433284
 20
158.886148
 42
-0.096986
  0
VERTEX
  8
0
 10
361.730882
 20
158.565079
 42
-0.078779
  0
VERTEX
  8
0
 10
361.931830
 20
158.085621
 42
-0.059982
  0
VERTEX
  8
0
 10
362.000000
 20
157.519417
 42
0.106334
  0
VERTEX
  8
0
 10
362.188001
 20
156.645402
 42
0.011693
  0
VERTEX
  8
0
 10
363.079562
 20
154.786128
 42
0.013858
  0
VERTEX
  8
0
 10
364.267727
 20
152.602036
 42
0.010787
  0
VERTEX
  8
0
 10
365.675106
 20
150.293719
 42
-0.059192
  0
VERTEX
  8
0
 10
370.685751
 20
139.943311
 42
-0.054158
  0
VERTEX
  8
0
 10
373.322343
 20
128.391191
 42
-0.047561
  0
VERTEX
  8
0
 10
373.600682
 20
115.220606
 42
-0.030182
  0
VERTEX
  8
0
 10
371.544705
 20
100.000000
 42
-0.012371
  0
VERTEX
  8
0
 10
368.861121
 20
87.962703
 42
-0.012316
  0
VERTEX
  8
0
 10
365.581863
 20
76.054718
 42
-0.012778
  0
VERTEX
  8
0
 10
362.141375
 20
65.634570
 42
-0.034963
  0
VERTEX
  8
0
 10
359.020944
 20
58.539815
 42
0.021297
  0
VERTEX
  8
0
 10
357.921647
 20
56.214825
 42
0.020374
  0
VERTEX
  8
0
 10
357.006236
 20
53.770502
 42
0.020805
  0
VERTEX
  8
0
 10
356.377238
 20
51.549607
 42
0.065797
  0
VERTEX
  8
0
 10
356.218638
 20
50.014957
 42
-0.079094
  0
VERTEX
  8
0
 10
355.842560
 20
47.125659
 42
-0.037620
  0
VERTEX
  8
0
 10
354.508930
 20
43.609238
 42
-0.037026
  0
VERTEX
  8
0
 10
352.585764
 20
40.184933
 42
-0.054689
  0
VERTEX
  8
0
 10
350.380895
 20
37.540554
 42
0.049987
  0
VERTEX
  8
0
 10
349.517292
 20
36.524333
 42
0.028355
  0
VERTEX
  8
0
 10
348.675612
 20
35.144725
 42
0.028054
  0
VERTEX
  8
0
 10
347.978040
 20
33.643616
 42
0.040957
  0
VERTEX
  8
0
 10
347.551440
 20
32.250000
 42
-0.025406
  0
VERTEX
  8
0
 10
347.212276
 20
31.005093
 42
-0.037095
  0
VERTEX
  8
0
 10
346.779345
 20
29.954687
 42
-0.041270
  0
VERTEX
  8
0
 10
346.321483
 20
29.203842
 42
-0.239612
  0
VERTEX
  8
0
 10
345.920545
 20
29.000000
 42
0.223351
  0
VERTEX
  8
0
 10
345.568144
 20
28.834316
 42
0.076267
  0
VERTEX
  8
0
 10
345.270410
 20
28.337147
 42
0.058008
  0
VERTEX
  8
0
 10
345.067347
 20
27.607556
 42
0.038912
  0
VERTEX
  8
0
 10
345.000000
 20
26.743479
 42
0.243448
  0
VERTEX
  8
0
 10
346.059254
 20
24.696893
 42
0.083603
  0
VERTEX
  8
0
 10
349.158394
 20
23.204546
 42
0.050891
  0
VERTEX
  8
0
 10
354.226574
 20
22.280959
 42
0.019642
  0
VERTEX
  8
0
 10
361.375671
 20
22.000000
 42
0.000000
  0
VERTEX
  8
0
 10
369.782841
 20
22.000000
 42
0.000000
  0
VERTEX
  8
0
 10
371.375105
 20
25.979461
 42
0.032315
  0
VERTEX
  8
0
 10
372.033670
 20
27.993667
 42
0.033262
  0
VERTEX
  8
0
 10
372.419517
 20
30.056642
 42
0.032987
  0
VERTEX
  8
0
 10
372.530391
 20
32.168664
 42
0.030689
  0
VERTEX
  8
0
 10
372.368351
 20
34.329241
 42
-0.019782
  0
VERTEX
  8
0
 10
372.114839
 20
36.943857
 42
-0.104219
  0
VERTEX
  8
0
 10
372.329939
 20
38.361423
 42
-0.119439
  0
VERTEX
  8
0
 10
373.085777
 20
39.475692
 42
-0.029568
  0
VERTEX
  8
0
 10
374.817483
 20
40.870036
 42
0.098286
  0
VERTEX
  8
0
 10
376.950275
 20
43.131712
 42
0.068657
  0
VERTEX
  8
0
 10
378.393451
 20
46.337197
 42
0.034691
  0
VERTEX
  8
0
 10
379.546281
 20
51.576457
 42
0.006098
  0
VERTEX
  8
0
 10
380.904727
 20
61.575221
 42
-0.026457
  0
VERTEX
  8
0
 10
382.312762
 20
69.504593
 42
-0.006661
  0
VERTEX
  8
0
 10
385.456430
 20
82.242340
 42
-0.006811
  0
VERTEX
  8
0
 10
388.958610
 20
94.950643
 42
-0.023743
  0
VERTEX
  8
0
 10
391.715766
 20
103.000000
 42
-0.018730
  0
VERTEX
  8
0
 10
393.762714
 20
107.646707
 42
-0.021435
  0
VERTEX
  8
0
 10
396.069574
 20
111.917381
 42
-0.015659
  0
VERTEX
  8
0
 10
398.279899
 20
115.370049
 42
-0.247379
  0
VERTEX
  8
0
 10
399.475232
 20
116.000000
 42
-0.219457
  0
VERTEX
  8
0
 10
400.053566
 20
115.733318
 42
-0.017578
  0
VERTEX
  8
0
 10
401.126195
 20
114.383633
 42
-0.021184
  0
VERTEX
  8
0
 10
402.327024
 20
112.605596
 42
-0.014566
  0
VERTEX
  8
0
 10
403.541091
 20
110.497473
 42
-0.000142
  0
VERTEX
  8
0
 10
404.837222
 20
108.085480
 42
-0.000102
  0
VERTEX
  8
0
 10
406.287406
 20
105.383645
 42
-0.000103
  0
VERTEX
  8
0
 10
407.669264
 20
102.806583
 42
-0.000219
  0
VERTEX
  8
0
 10
408.735184
 20
100.815647
 42
0.007906
  0
VERTEX
  8
0
 10
409.647059
 20
99.173615
 42
0.010204
  0
VERTEX
  8
0
 10
410.538448
 20
97.697116
 42
0.008199
  0
VERTEX
  8
0
 10
411.325529
 20
96.495655
 42
0.084074
  0
VERTEX
  8
0
 10
411.735184
 20
96.068174
 42
-0.135061
  0
VERTEX
  8
0
 10
412.705598
 20
94.826458
 42
-0.015131
  0
VERTEX
  8
0
 10
413.995979
 20
91.445602
 42
-0.017416
  0
VERTEX
  8
0
 10
415.298617
 20
87.227352
 42
-0.013028
  0
VERTEX
  8
0
 10
416.448650
 20
82.500000
 42
-0.020061
  0
VERTEX
  8
0
 10
417.463726
 20
76.672807
 42
-0.010635
  0
VERTEX
  8
0
 10
418.276472
 20
69.386115
 42
-0.008402
  0
VERTEX
  8
0
 10
418.946017
 20
60.231428
 42
-0.004066
  0
VERTEX
  8
0
 10
419.510415
 20
48.500000
 42
0.002081
  0
VERTEX
  8
0
 10
419.736042
 20
43.387362
 42
0.001726
  0
VERTEX
  8
0
 10
420.017614
 20
37.947560
 42
0.001742
  0
VERTEX
  8
0
 10
420.310226
 20
32.964195
 42
0.004701
  0
VERTEX
  8
0
 10
420.563636
 20
29.427863
 42
-0.015497
  0
VERTEX
  8
0
 10
420.786657
 20
24.966484
 42
-0.062806
  0
VERTEX
  8
0
 10
420.497963
 20
22.265762
 42
-0.053834
  0
VERTEX
  8
0
 10
419.530413
 20
19.526190
 42
-0.009421
  0
VERTEX
  8
0
 10
417.068653
 20
14.630355
 42
0.021787
  0
VERTEX
  8
0
 10
413.140800
 20
6.312592
 42
0.194747
  0
VERTEX
  8
0
 10
413.089555
 20
2.351491
 42
0.283560
  0
VERTEX
  8
0
 10
415.733492
 20
0.356363
 42
0.042956
  0
VERTEX
  8
0
 10
422.655141
 20
0.301192
 42
0.028111
  0
VERTEX
  8
0
 10
433.178466
 20
1.720831
 42
0.128013
  0
VERTEX
  8
0
 10
438.709362
 20
4.358134
 42
0.220036
  0
VERTEX
  8
0
 10
440.639930
 20
8.479804
 42
0.100500
  0
VERTEX
  8
0
 10
439.459313
 20
14.443134
 42
-0.019527
  0
VERTEX
  8
0
 10
438.642747
 20
16.634233
 42
-0.079588
  0
VERTEX
  8
0
 10
438.418627
 20
18.033319
 42
-0.088473
  0
VERTEX
  8
0
 10
438.654607
 20
19.356514
 42
-0.027449
  0
VERTEX
  8
0
 10
439.459313
 20
21.218896
 42
0.020122
  0
VERTEX
  8
0
 10
440.049059
 20
22.530679
 42
0.018692
  0
VERTEX
  8
0
 10
440.547423
 20
23.917954
 42
0.019056
  0
VERTEX
  8
0
 10
440.897089
 20
25.184371
 42
0.057886
  0
VERTEX
  8
0
 10
441.000000
 20
26.070305
 42
-0.054568
  0
VERTEX
  8
0
 10
441.076601
 20
26.770095
 42
-0.059274
  0
VERTEX
  8
0
 10
441.302628
 20
27.416320
 42
-0.066988
  0
VERTEX
  8
0
 10
441.635909
 20
27.915539
 42
-0.132420
  0
VERTEX
  8
0
 10
442.030222
 20
28.176741
 42
0.306746
  0
VERTEX
  8
0
 10
443.067489
 20
29.530555
 42
0.028011
  0
VERTEX
  8
0
 10
443.078659
 20
33.999626
 42
0.029452
  0
VERTEX
  8
0
 10
442.436845
 20
39.685841
 42
0.020529
  0
VERTEX
  8
0
 10
441.075607
 20
46.000000
 42
-0.001922
  0
VERTEX
  8
0
 10
440.171471
 20
49.547643
 42
-0.001803
  0
VERTEX
  8
0
 10
439.274975
 20
53.178125
 42
-0.001793
  0
VERTEX
  8
0
 10
438.502910
 20
56.404245
 42
-0.006211
  0
VERTEX
  8
0
 10
438.036701
 20
58.500000
 42
-0.004293
  0
VERTEX
  8
0
 10
435.245802
 20
72.419365
 42
-0.014054
  0
VERTEX
  8
0
 10
433.739510
 20
81.683237
 42
-0.015026
  0
VERTEX
  8
0
 10
432.808012
 20
90.692123
 42
-0.005473
  0
VERTEX
  8
0
 10
432.012445
 20
103.500000
 42
0.000473
  0
VERTEX
  8
0
 10
431.578037
 20
111.840621
 42
0.000603
  0
VERTEX
  8
0
 10
431.160876
 20
119.531160
 42
0.000468
  0
VERTEX
  8
0
 10
430.797233
 20
125.979431
 42
0.005059
  0
VERTEX
  8
0
 10
430.621391
 20
128.584801
 42
0.068168
  0
VERTEX
  8
0
 10
429.936118
 20
131.743552
 42
0.043796
  0
VERTEX
  8
0
 10
428.345692
 20
135.145681
 42
0.044329
  0
VERTEX
  8
0
 10
426.325185
 20
138.015575
 42
0.126255
  0
VERTEX
  8
0
 10
424.347886
 20
139.419998
 42
-0.080917
  0
VERTEX
  8
0
 10
423.832620
 20
139.720442
 42
-0.065645
  0
VERTEX
  8
0
 10
423.395941
 20
140.188881
 42
-0.066530
  0
VERTEX
  8
0
 10
423.100717
 20
140.747258
 42
-0.088605
  0
VERTEX
  8
0
 10
423.000000
 20
141.311145
 42
0.161609
  0
VERTEX
  8
0
 10
422.785732
 20
141.956753
 42
0.041027
  0
VERTEX
  8
0
 10
422.045313
 20
142.796028
 42
0.037520
  0
VERTEX
  8
0
 10
420.994051
 20
143.665232
 42
0.030393
  0
VERTEX
  8
0
 10
419.750000
 20
144.436740
 42
-0.063972
  0
VERTEX
  8
0
 10
418.200764
 20
145.547703
 42
-0.018816
  0
VERTEX
  8
0
 10
416.132812
 20
147.624416
 42
-0.018562
  0
VERTEX
  8
0
 10
413.961472
 20
150.158109
 42
-0.018957
  0
VERTEX
  8
0
 10
412.000000
 20
152.828596
 42
0.003776
  0
VERTEX
  8
0
 10
410.154533
 20
155.507964
 42
0.004187
  0
VERTEX
  8
0
 10
408.330669
 20
158.067726
 42
0.003887
  0
VERTEX
  8
0
 10
406.739758
 20
160.225933
 42
0.021614
  0
VERTEX
  8
0
 10
405.827811
 20
161.339427
 42
-0.034567
  0
VERTEX
  8
0
 10
405.098252
 20
162.278809
 42
-0.016202
  0
VERTEX
  8
0
 10
404.281841
 20
163.584409
 42
-0.015966
  0
VERTEX
  8
0
 10
403.511038
 20
165.014005
 42
-0.021580
  0
VERTEX
  8
0
 10
402.913116
 20
166.355041
 42
0.018361
  0
VERTEX
  8
0
 10
402.330312
 20
167.685126
 42
0.014460
  0
VERTEX
  8
0
 10
401.605932
 20
169.081271
 42
0.014698
  0
VERTEX
  8
0
 10
400.856402
 20
170.340457
 42
0.034653
  0
VERTEX
  8
0
 10
400.207921
 20
171.219499
 42
-0.128227
  0
VERTEX
  8
0
 10
398.947770
 20
173.829482
 42
-0.067657
  0
VERTEX
  8
0
 10
398.731882
 20
177.445153
 42
-0.055926
  0
VERTEX
  8
0
 10
399.540585
 20
181.714445
 42
-0.039038
  0
VERTEX
  8
0
 10
401.346367
 20
186.275512
 42
-0.012204
  0
VERTEX
  8
0
 10
402.486750
 20
188.469082
 42
-0.018331
  0
VERTEX
  8
0
 10
403.596528
 20
190.318432
 42
-0.013511
  0
VERTEX
  8
0
 10
404.586603
 20
191.752767
 42
-0.239321
  0
VERTEX
  8
0
 10
405.073549
 20
192.000000
 42
0.145725
  0
VERTEX
  8
0
 10
405.426848
 20
192.105203
 42
0.099254
  0
VERTEX
  8
0
 10
405.727855
 20
192.401010
 42
0.083276
  0
VERTEX
  8
0
 10
405.930734
 20
192.843281
 42
0.066075
  0
VERTEX
  8
0
 10
406.000000
 20
193.365141
 42
-0.091440
  0
VERTEX
  8
0
 10
406.126948
 20
194.053501
 42
-0.025959
  0
VERTEX
  8
0
 10
406.569290
 20
195.053008
 42
-0.025223
  0
VERTEX
  8
0
 10
407.196250
 20
196.150581
 42
-0.024277
  0
VERTEX
  8
0
 10
407.938010
 20
197.194063
 42
0.028577
  0
VERTEX
  8
0
 10
408.727412
 20
198.325021
 42
0.019560
  0
VERTEX
  8
0
 10
409.496373
 20
199.689709
 42
0.019762
  0
VERTEX
  8
0
 10
410.135799
 20
201.067572
 42
0.037285
  0
VERTEX
  8
0
 10
410.521615
 20
202.230100
 42
-0.040897
  0
VERTEX
  8
0
 10
410.907179
 20
203.364432
 42
-0.024024
  0
VERTEX
  8
0
 10
411.540508
 20
204.651003
 42
-0.023919
  0
VERTEX
  8
0
 10
412.302457
 20
205.884605
 42
-0.037240
  0
VERTEX
  8
0
 10
413.083605
 20
206.859365
 42
0.013659
  0
VERTEX
  8
0
 10
413.817531
 20
207.691602
 42
0.018024
  0
VERTEX
  8
0
 10
414.437059
 20
208.490930
 42
0.015582
  0
VERTEX
  8
0
 10
414.900609
 20
209.180057
 42
0.141172
  0
VERTEX
  8
0
 10
415.000000
 20
209.525064
 42
-0.103308
  0
VERTEX
  8
0
 10
415.092086
 20
209.965994
 42
-0.001252
  0
VERTEX
  8
0
 10
416.273405
 20
212.652494
 42
-0.003677
  0
VERTEX
  8
0
 10
417.673536
 20
215.753277
 42
-0.002389
  0
VERTEX
  8
0
 10
419.334995
 20
219.316877
 42
0.001491
  0
VERTEX
  8
0
 10
421.128852
 20
223.146478
 42
0.001410
  0
VERTEX
  8
0
 10
422.934060
 20
227.059248
 42
0.001399
  0
VERTEX
  8
0
 10
424.512909
 20
230.532554
 42
0.004932
  0
VERTEX
  8
0
 10
425.499691
 20
232.778434
 42
-0.031271
  0
VERTEX
  8
0
 10
427.014210
 20
235.784935
 42
-0.257300
  0
VERTEX
  8
0
 10
428.284509
 20
236.542867
 42
-0.346692
  0
VERTEX
  8
0
 10
429.298988
 20
235.798263
 42
-0.043393
  0
VERTEX
  8
0
 10
429.831705
 20
232.927003
 42
0.023794
  0
VERTEX
  8
0
 10
430.035262
 20
231.526107
 42
0.023452
  0
VERTEX
  8
0
 10
430.371689
 20
230.143986
 42
0.024098
  0
VERTEX
  8
0
 10
430.780752
 20
228.964562
 42
0.077828
  0
VERTEX
  8
0
 10
431.204149
 20
228.254015
 42
0.139532
  0
VERTEX
  8
0
 10
432.507404
 20
227.360882
 42
0.078998
  0
VERTEX
  8
0
 10
434.409462
 20
227.042487
 42
0.077418
  0
VERTEX
  8
0
 10
436.358479
 20
227.329759
 42
0.121729
  0
VERTEX
  8
0
 10
437.800000
 20
228.200000
 42
0.185288
  0
VERTEX
  8
0
 10
438.779093
 20
230.398495
 42
0.012462
  0
VERTEX
  8
0
 10
438.972486
 20
237.395026
 42
0.017580
  0
VERTEX
  8
0
 10
438.707623
 20
245.555508
 42
0.015950
  0
VERTEX
  8
0
 10
437.869802
 20
253.948101
 42
0.015415
  0
VERTEX
  8
0
 10
436.722927
 20
260.955728
 42
0.010266
  0
VERTEX
  8
0
 10
434.997900
 20
268.909236
 42
0.004630
  0
VERTEX
  8
0
 10
433.114067
 20
276.496359
 42
0.164001
  0
VERTEX
  8
0
 10
432.133779
 20
278.000000
 42
-0.088913
  0
VERTEX
  8
0
 10
431.804688
 20
278.371088
 42
-0.009240
  0
VERTEX
  8
0
 10
431.213293
 20
279.381250
 42
-0.011246
  0
VERTEX
  8
0
 10
430.552999
 20
280.623121
 42
-0.008774
  0
VERTEX
  8
0
 10
429.890197
 20
282.000000
 42
0.001192
  0
VERTEX
  8
0
 10
429.185381
 20
283.522821
 42
0.000878
  0
VERTEX
  8
0
 10
428.397750
 20
285.206250
 42
0.000887
  0
VERTEX
  8
0
 10
427.647351
 20
286.795459
 42
0.001984
  0
VERTEX
  8
0
 10
427.070101
 20
288.000000
 42
0.089715
  0
VERTEX
  8
0
 10
425.555624
 20
290.077969
 42
0.021539
  0
VERTEX
  8
0
 10
422.332517
 20
292.898942
 42
0.018489
  0
VERTEX
  8
0
 10
418.922033
 20
295.432463
 42
0.151632
  0
VERTEX
  8
0
 10
417.093640
 20
296.000000
 42
-0.140313
  0
VERTEX
  8
0
 10
416.714877
 20
296.108425
 42
-0.060806
  0
VERTEX
  8
0
 10
416.303295
 20
296.440625
 42
-0.053458
  0
VERTEX
  8
0
 10
415.923756
 20
296.926188
 42
-0.047593
  0
VERTEX
  8
0
 10
415.638374
 20
297.500000
 42
0.074982
  0
VERTEX
  8
0
 10
415.313021
 20
298.073427
 42
0.064538
  0
VERTEX
  8
0
 10
414.817977
 20
298.559375
 42
0.066847
  0
VERTEX
  8
0
 10
414.235467
 20
298.888068
 42
0.095347
  0
VERTEX
  8
0
 10
413.653830
 20
299.000000
 42
-0.092017
  0
VERTEX
  8
0
 10
413.015388
 20
299.118498
 42
-0.042901
  0
VERTEX
  8
0
 10
412.255610
 20
299.488122
 42
-0.040561
  0
VERTEX
  8
0
 10
411.501708
 20
300.025894
 42
-0.044969
  0
VERTEX
  8
0
 10
410.872445
 20
300.661691
 42
0.068843
  0
VERTEX
  8
0
 10
410.014192
 20
301.450043
 42
0.015886
  0
VERTEX
  8
0
 10
408.360968
 20
302.518435
 42
0.016115
  0
VERTEX
  8
0
 10
406.360519
 20
303.636711
 42
0.015126
  0
VERTEX
  8
0
 10
404.250000
 20
304.649081
 42
-0.012298
  0
VERTEX
  8
0
 10
402.238171
 20
305.600156
 42
-0.018616
  0
VERTEX
  8
0
 10
400.542188
 20
306.534233
 42
-0.013725
  0
VERTEX
  8
0
 10
399.226206
 20
307.374213
 42
-0.248761
  0
VERTEX
  8
0
 10
399.000000
 20
307.800744
 42
0.229827
  0
VERTEX
  8
0
 10
398.806818
 20
308.198823
 42
0.026549
  0
VERTEX
  8
0
 10
397.971875
 20
308.787485
 42
0.027659
  0
VERTEX
  8
0
 10
396.840787
 20
309.413810
 42
0.019126
  0
VERTEX
  8
0
 10
395.500000
 20
310.000000
 42
-0.018834
  0
VERTEX
  8
0
 10
394.159192
 20
310.585268
 42
-0.027303
  0
VERTEX
  8
0
 10
393.028125
 20
311.208811
 42
-0.026011
  0
VERTEX
  8
0
 10
392.191736
 20
311.793919
 42
-0.231074
  0
VERTEX
  8
0
 10
392.000000
 20
312.186646
 42
0.215095
  0
VERTEX
  8
0
 10
391.859661
 20
312.497779
 42
0.079546
  0
VERTEX
  8
0
 10
391.443928
 20
312.761077
 42
0.060500
  0
VERTEX
  8
0
 10
390.831776
 20
312.940396
 42
0.041049
  0
VERTEX
  8
0
 10
390.106989
 20
313.000000
 42
-0.072710
  0
VERTEX
  8
0
 10
389.340293
 20
313.112085
 42
-0.064008
  0
VERTEX
  8
0
 10
388.600966
 20
313.440625
 42
-0.066864
  0
VERTEX
  8
0
 10
387.999607
 20
313.926463
 42
-0.098143
  0
VERTEX
  8
0
 10
387.638374
 20
314.500000
 42
0.073325
  0
VERTEX
  8
0
 10
387.315510
 20
315.073436
 42
0.064157
  0
VERTEX
  8
0
 10
386.827699
 20
315.559375
 42
0.066866
  0
VERTEX
  8
0
 10
386.255908
 20
315.888131
 42
0.097374
  0
VERTEX
  8
0
 10
385.686924
 20
316.000000
 42
-0.108142
  0
VERTEX
  8
0
 10
384.972362
 20
316.156377
 42
-0.024357
  0
VERTEX
  8
0
 10
383.861731
 20
316.734016
 42
-0.024154
  0
VERTEX
  8
0
 10
382.618866
 20
317.542274
 42
-0.021347
  0
VERTEX
  8
0
 10
381.405539
 20
318.498779
 42
0.019441
  0
VERTEX
  8
0
 10
380.201467
 20
319.455451
 42
0.022734
  0
VERTEX
  8
0
 10
378.986315
 20
320.263900
 42
0.022469
  0
VERTEX
  8
0
 10
377.911510
 20
320.846429
 42
0.113170
  0
VERTEX
  8
0
 10
377.250000
 20
320.998779
 42
-0.076930
  0
VERTEX
  8
0
 10
376.772456
 20
321.073169
 42
-0.089712
  0
VERTEX
  8
0
 10
376.367188
 20
321.287795
 42
-0.100658
  0
VERTEX
  8
0
 10
376.096253
 20
321.606748
 42
-0.126552
  0
VERTEX
  8
0
 10
376.000000
 20
321.980948
 42
0.208968
  0
VERTEX
  8
0
 10
375.814907
 20
322.404481
 42
0.051088
  0
VERTEX
  8
0
 10
375.192187
 20
322.872682
 42
0.043703
  0
VERTEX
  8
0
 10
374.302979
 20
323.307997
 42
0.031621
  0
VERTEX
  8
0
 10
373.250000
 20
323.639136
 42
-0.026817
  0
VERTEX
  8
0
 10
372.019443
 20
324.013175
 42
-0.015675
  0
VERTEX
  8
0
 10
370.587925
 20
324.585031
 42
-0.015648
  0
VERTEX
  8
0
 10
369.187098
 20
325.249132
 42
-0.025521
  0
VERTEX
  8
0
 10
368.049318
 20
325.908188
 42
0.046361
  0
VERTEX
  8
0
 10
366.657275
 20
326.638920
 42
0.011451
  0
VERTEX
  8
0
 10
364.247786
 20
327.567486
 42
0.011619
  0
VERTEX
  8
0
 10
361.427842
 20
328.507310
 42
0.011399
  0
VERTEX
  8
0
 10
358.549318
 20
329.321553
 42
0.032670
  0
VERTEX
  8
0
 10
353.455689
 20
330.288243
 42
0.016081
  0
VERTEX
  8
0
 10
346.885366
 20
330.881691
 42
0.009203
  0
VERTEX
  8
0
 10
337.049172
 20
331.270564
 42
0.001924
  0
VERTEX
  8
0
 10
319.801641
 20
331.568308
 42
-0.002595
  0
VERTEX
  8
0
 10
299.008196
 20
331.955163
 42
-0.013705
  0
VERTEX
  8
0
 10
287.620852
 20
332.538704
 42
-0.018810
  0
VERTEX
  8
0
 10
277.935488
 20
333.669468
 42
-0.007897
  0
VERTEX
  8
0
 10
265.000000
 20
335.885050
 42
-0.014191
  0
VERTEX
  8
0
 10
254.041774
 20
338.264359
 42
-0.026735
  0
VERTEX
  8
0
 10
245.385192
 20
340.900889
 42
-0.022203
  0
VERTEX
  8
0
 10
236.073326
 20
344.766726
 42
-0.006966
  0
VERTEX
  8
0
 10
222.488240
 20
351.359755
 42
0.006162
  0
VERTEX
  8
0
 10
216.273206
 20
354.388353
 42
0.006186
  0
VERTEX
  8
0
 10
209.993420
 20
357.258845
 42
0.006061
  0
VERTEX
  8
0
 10
204.457000
 20
359.627394
 42
0.024506
  0
VERTEX
  8
0
 10
201.000000
 20
360.862442
 42
0.019674
  0
VERTEX
  8
0
 10
193.707443
 20
362.761746
 42
0.012711
  0
VERTEX
  8
0
 10
185.137586
 20
364.410092
 42
0.012698
  0
VERTEX
  8
0
 10
176.870694
 20
365.568385
 42
0.030253
  0
VERTEX
  8
0
 10
170.679245
 20
365.898846
 42
-0.014960
  0
VERTEX
  8
0
 10
167.613742
 20
365.968606
 42
-0.051982
  0
VERTEX
  8
0
 10
165.658462
 20
366.277212
 42
-0.077656
  0
VERTEX
  8
0
 10
164.254588
 20
366.896435
 42
-0.071605
  0
VERTEX
  8
0
 10
163.061950
 20
367.928571
 42
0.028512
  0
VERTEX
  8
0
 10
162.290948
 20
368.721375
 42
0.031716
  0
VERTEX
  8
0
 10
161.460411
 20
369.391518
 42
0.033452
  0
VERTEX
  8
0
 10
160.688115
 20
369.863565
 42
0.121024
  0
VERTEX
  8
0
 10
160.132705
 20
370.000000
 42
-0.170466
  0
VERTEX
  8
0
 10
159.700541
 20
370.151748
 42
-0.094277
  0
VERTEX
  8
0
 10
159.332732
 20
370.581903
 42
-0.074820
  0
VERTEX
  8
0
 10
159.083963
 20
371.223167
 42
-0.055231
  0
VERTEX
  8
0
 10
159.000000
 20
371.980948
 42
0.093064
  0
VERTEX
  8
0
 10
158.834748
 20
372.861098
 42
0.096845
  0
VERTEX
  8
0
 10
158.362325
 20
373.607515
 42
0.085689
  0
VERTEX
  8
0
 10
157.588213
 20
374.186861
 42
0.056463
  0
VERTEX
  8
0
 10
156.544450
 20
374.578200
 42
-0.044612
  0
VERTEX
  8
0
 10
155.289415
 20
375.015201
 42
-0.154022
  0
VERTEX
  8
0
 10
154.655296
 20
375.582543
 42
-0.144973
  0
VERTEX
  8
0
 10
154.440356
 20
376.433766
 42
-0.037979
  0
VERTEX
  8
0
 10
154.605812
 20
377.847252
 42
0.068167
  0
VERTEX
  8
0
 10
154.685148
 20
379.254338
 42
0.061010
  0
VERTEX
  8
0
 10
154.392064
 20
380.687878
 42
0.050897
  0
VERTEX
  8
0
 10
153.696602
 20
382.223533
 42
0.028127
  0
VERTEX
  8
0
 10
152.561361
 20
383.944280
 42
-0.034751
  0
VERTEX
  8
0
 10
151.446586
 20
385.683653
 42
-0.040241
  0
VERTEX
  8
0
 10
150.644514
 20
387.479508
 42
-0.041731
  0
VERTEX
  8
0
 10
150.162279
 20
389.320476
 42
-0.043221
  0
VERTEX
  8
0
 10
150.000000
 20
391.194280
 42
0.024507
  0
VERTEX
  8
0
 10
149.920681
 20
392.811579
 42
0.056240
  0
VERTEX
  8
0
 10
149.666394
 20
394.002448
 42
0.088428
  0
VERTEX
  8
0
 10
149.262712
 20
394.742913
 42
0.227631
  0
VERTEX
  8
0
 10
148.727273
 20
395.000000
 42
-0.237343
  0
VERTEX
  8
0
 10
148.182331
 20
395.274117
 42
-0.085892
  0
VERTEX
  8
0
 10
147.780770
 20
396.069940
 42
-0.052880
  0
VERTEX
  8
0
 10
147.531094
 20
397.366182
 42
-0.021159
  0
VERTEX
  8
0
 10
147.454545
 20
399.174242
 42
0.025537
  0
VERTEX
  8
0
 10
147.368601
 20
400.855912
 42
0.039898
  0
VERTEX
  8
0
 10
147.106542
 20
402.280844
 42
0.047343
  0
VERTEX
  8
0
 10
146.717182
 20
403.327162
 42
0.202237
  0
VERTEX
  8
0
 10
146.227273
 20
403.757576
 42
-0.148954
  0
VERTEX
  8
0
 10
145.756938
 20
404.091568
 42
-0.063050
  0
VERTEX
  8
0
 10
145.360511
 20
404.765611
 42
-0.054618
  0
VERTEX
  8
0
 10
145.090887
 20
405.647890
 42
-0.046899
  0
VERTEX
  8
0
 10
145.000000
 20
406.614718
 42
0.055862
  0
VERTEX
  8
0
 10
144.890362
 20
407.592995
 42
0.057978
  0
VERTEX
  8
0
 10
144.567044
 20
408.509795
 42
0.064414
  0
VERTEX
  8
0
 10
144.090293
 20
409.231917
 42
0.123680
  0
VERTEX
  8
0
 10
143.526108
 20
409.628355
 42
-0.112576
  0
VERTEX
  8
0
 10
142.779506
 20
410.128913
 42
-0.017316
  0
VERTEX
  8
0
 10
141.592381
 20
411.478770
 42
-0.018594
  0
VERTEX
  8
0
 10
140.284604
 20
413.200748
 42
-0.015188
  0
VERTEX
  8
0
 10
139.012928
 20
415.133412
 42
0.015318
  0
VERTEX
  8
0
 10
137.740304
 20
417.066430
 42
0.018705
  0
VERTEX
  8
0
 10
136.429678
 20
418.789513
 42
0.017469
  0
VERTEX
  8
0
 10
135.238925
 20
420.140041
 42
0.112178
  0
VERTEX
  8
0
 10
134.486820
 20
420.643431
 42
-0.098908
  0
VERTEX
  8
0
 10
133.918312
 20
421.002700
 42
-0.066858
  0
VERTEX
  8
0
 10
133.436753
 20
421.602452
 42
-0.063857
  0
VERTEX
  8
0
 10
133.111091
 20
422.340670
 42
-0.072106
  0
VERTEX
  8
0
 10
133.000000
 20
423.106989
 42
0.047296
  0
VERTEX
  8
0
 10
132.931314
 20
423.831495
 42
0.067280
  0
VERTEX
  8
0
 10
132.726045
 20
424.443928
 42
0.087434
  0
VERTEX
  8
0
 10
132.423583
 20
424.856865
 42
0.193406
  0
VERTEX
  8
0
 10
132.067388
 20
425.000000
 42
-0.170109
  0
VERTEX
  8
0
 10
131.664493
 20
425.141156
 42
-0.058089
  0
VERTEX
  8
0
 10
131.222265
 20
425.587500
 42
-0.049700
  0
VERTEX
  8
0
 10
130.811679
 20
426.234602
 42
-0.039709
  0
VERTEX
  8
0
 10
130.500000
 20
427.000000
 42
0.063731
  0
VERTEX
  8
0
 10
130.145033
 20
427.764644
 42
0.064342
  0
VERTEX
  8
0
 10
129.609878
 20
428.412500
 42
0.070621
  0
VERTEX
  8
0
 10
128.983594
 20
428.851027
 42
0.118007
  0
VERTEX
  8
0
 10
128.361184
 20
429.000000
 42
-0.122573
  0
VERTEX
  8
0
 10
127.109828
 20
429.311443
 42
-0.047779
  0
VERTEX
  8
0
 10
125.611661
 20
430.300169
 42
-0.047196
  0
VERTEX
  8
0
 10
124.368907
 20
431.512846
 42
-0.177666
  0
VERTEX
  8
0
 10
124.000000
 20
432.518279
 42
0.163784
  0
VERTEX
  8
0
 10
123.880571
 20
432.873091
 42
0.020714
  0
VERTEX
  8
0
 10
123.358406
 20
433.504737
 42
0.022531
  0
VERTEX
  8
0
 10
122.652304
 20
434.222411
 42
0.016955
  0
VERTEX
  8
0
 10
121.815850
 20
434.948032
 42
0.000000
  0
VERTEX
  8
0
 10
119.631700
 20
436.716650
 42
0.000000
  0
VERTEX
  8
0
 10
122.315850
 20
442.385660
 42
0.005131
  0
VERTEX
  8
0
 10
123.344139
 20
444.616345
 42
0.007229
  0
VERTEX
  8
0
 10
124.211531
 20
446.627299
 42
0.004497
  0
VERTEX
  8
0
 10
124.898268
 20
448.328019
 42
0.093969
  0
VERTEX
  8
0
 10
125.000000
 20
448.864544
 42
-0.160086
  0
VERTEX
  8
0
 10
125.667155
 20
450.894879
 42
-0.010756
  0
VERTEX
  8
0
 10
129.444893
 20
455.798104
 42
-0.013492
  0
VERTEX
  8
0
 10
133.408047
 20
460.456239
 42
-0.098251
  0
VERTEX
  8
0
 10
135.745039
 20
462.207082
 42
0.045564
  0
VERTEX
  8
0
 10
136.863706
 20
462.874868
 42
0.031792
  0
VERTEX
  8
0
 10
137.995274
 20
463.814130
 42
0.032190
  0
VERTEX
  8
0
 10
138.972976
 20
464.863458
 42
0.055888
  0
VERTEX
  8
0
 10
139.618935
 20
465.862296
 42
-0.041670
  0
VERTEX
  8
0
 10
140.352197
 20
467.069927
 42
-0.010637
  0
VERTEX
  8
0
 10
141.738833
 20
468.892993
 42
-0.010765
  0
VERTEX
  8
0
 10
143.416779
 20
470.913427
 42
-0.010725
  0
VERTEX
  8
0
 10
145.182149
 20
472.862296
 42
0.011687
  0
VERTEX
  8
0
 10
148.814161
 20
476.887375
 42
0.010296
  0
VERTEX
  8
0
 10
152.414888
 20
481.248832
 42
0.004898
  0
VERTEX
  8
0
 10
155.607576
 20
485.364632
 42
0.163935
  0
VERTEX
  8
0
 10
156.000000
 20
486.529353
 42
-0.158959
  0
VERTEX
  8
0
 10
156.143596
 20
486.969618
 42
-0.001983
  0
VERTEX
  8
0
 10
157.920470
 20
489.383626
 42
-0.005603
  0
VERTEX
  8
0
 10
160.031961
 20
492.162905
 42
-0.003612
  0
VERTEX
  8
0
 10
162.537771
 20
495.337992
 42
0.018033
  0
VERTEX
  8
0
 10
166.666746
 20
500.891886
 42
0.071973
  0
VERTEX
  8
0
 10
168.543082
 20
504.683537
 42
0.159145
  0
VERTEX
  8
0
 10
168.543558
 20
507.255188
 42
0.208237
  0
VERTEX
  8
0
 10
167.000000
 20
508.993712
 42
-0.004573
  0
VERTEX
  8
0
 10
166.269112
 20
509.340726
 42
-0.001877
  0
VERTEX
  8
0
 10
165.283673
 20
509.824270
 42
-0.001857
  0
VERTEX
  8
0
 10
164.229636
 20
510.351277
 42
-0.002379
  0
VERTEX
  8
0
 10
163.263569
 20
510.844574
 42
0.072957
  0
VERTEX
  8
0
 10
160.507327
 20
511.792395
 42
0.138391
  0
VERTEX
  8
0
 10
158.187819
 20
511.584296
 42
0.097265
  0
VERTEX
  8
0
 10
155.781749
 20
510.081057
 42
0.024940
  0
VERTEX
  8
0
 10
152.577547
 20
506.767176
 42
0.000000
  0
VERTEX
  8
0
 10
148.000000
 20
501.534352
 42
0.000000
  0
VERTEX
  8
0
 10
148.000000
 20
510.567176
 42
0.009786
  0
VERTEX
  8
0
 10
147.923836
 20
514.458206
 42
0.019401
  0
VERTEX
  8
0
 10
147.683576
 20
517.534586
 42
0.020265
  0
VERTEX
  8
0
 10
147.319686
 20
519.829410
 42
0.147970
  0
VERTEX
  8
0
 10
146.800000
 20
520.800000
 42
0.121653
  0
VERTEX
  8
0
 10
145.359444
 20
521.669951
 42
0.077353
  0
VERTEX
  8
0
 10
143.411543
 20
521.957909
 42
0.079337
  0
VERTEX
  8
0
 10
141.520845
 20
521.641188
 42
0.144420
  0
SEQEND
  0
POLYLINE
  8
0
 66
1
 70
1
  0
VERTEX
  8
0
 10
84.729167
 20
427.395833
 42
-0.126455
  0
VERTEX
  8
0
 10
84.402231
 20
427.202593
 42
-0.060344
  0
VERTEX
  8
0
 10
83.916927
 20
427.123424
 42
-0.054150
  0
VERTEX
  8
0
 10
83.359369
 20
427.160852
 42
-0.051402
  0
VERTEX
  8
0
 10
82.812500
 20
427.316886
 42
-0.054073
  0
VERTEX
  8
0
 10
82.395823
 20
427.538436
 42
-0.470617
  0
VERTEX
  8
0
 10
82.378580
 20
427.720685
 42
-0.168741
  0
VERTEX
  8
0
 10
82.670344
 20
427.862007
 42
-0.018894
  0
VERTEX
  8
0
 10
83.416667
 20
427.921053
 42
-0.028489
  0
VERTEX
  8
0
 10
84.112848
 20
427.910055
 42
-0.077125
  0
VERTEX
  8
0
 10
84.592839
 20
427.799335
 42
-0.208169
  0
VERTEX
  8
0
 10
84.775380
 20
427.614691
 42
-0.296942
  0
SEQEND
  0
POLYLINE
  8
0
 66
1
 70
1
  0
VERTEX
  8
0
 10
90.639232
 20
415.497764
 42
-0.065268
  0
VERTEX
  8
0
 10
90.818525
 20
414.752391
 42
-0.028175
  0
VERTEX
  8
0
 10
90.869028
 20
413.730272
 42
-0.027289
  0
VERTEX
  8
0
 10
90.800715
 20
412.621409
 42
-0.032464
  0
VERTEX
  8
0
 10
90.612018
 20
411.590293
 42
-0.044308
  0
VERTEX
  8
0
 10
90.218230
 20
410.457147
 42
-0.131468
  0
VERTEX
  8
0
 10
89.702379
 20
409.825023
 42
-0.153473
  0
VERTEX
  8
0
 10
88.993530
 20
409.589856
 42
-0.067990
  0
VERTEX
  8
0
 10
88.004171
 20
409.709160
 42
-0.124491
  0
VERTEX
  8
0
 10
86.775661
 20
410.385868
 42
-0.131612
  0
VERTEX
  8
0
 10
86.047570
 20
411.552666
 42
-0.217748
  0
VERTEX
  8
0
 10
86.180258
 20
412.547180
 42
-0.257835
  0
VERTEX
  8
0
 10
87.000000
 20
413.000000
 42
0.191087
  0
VERTEX
  8
0
 10
87.381882
 20
413.151477
 42
0.088204
  0
VERTEX
  8
0
 10
87.706250
 20
413.587500
 42
0.068025
  0
VERTEX
  8
0
 10
87.926307
 20
414.234582
 42
0.048028
  0
VERTEX
  8
0
 10
88.000000
 20
415.000000
 42
-0.097978
  0
VERTEX
  8
0
 10
88.265423
 20
416.341501
 42
-0.253670
  0
VERTEX
  8
0
 10
89.005706
 20
416.944156
 42
-0.254836
  0
VERTEX
  8
0
 10
89.911550
 20
416.651353
 42
-0.098492
  0
SEQEND
  0
POLYLINE
  8
0
 66
1
 70
1
  0
VERTEX
  8
0
 10
48.000000
 20
408.571429
 42
-0.052818
  0
VERTEX
  8
0
 10
47.889848
 20
407.531586
 42
-0.038434
  0
VERTEX
  8
0
 10
47.559375
 20
406.415625
 42
-0.039096
  0
VERTEX
  8
0
 10
47.074739
 20
405.393860
 42
-0.066186
  0
VERTEX
  8
0
 10
46.500000
 20
404.642857
 42
0.032161
  0
VERTEX
  8
0
 10
45.925966
 20
403.989814
 42
0.032192
  0
VERTEX
  8
0
 10
45.440625
 20
403.268750
 42
0.033960
  0
VERTEX
  8
0
 10
45.102270
 20
402.586132
 42
0.098387
  0
VERTEX
  8
0
 10
45.000000
 20
402.071429
 42
-0.092210
  0
VERTEX
  8
0
 10
44.923923
 20
401.662416
 42
-0.096076
  0
VERTEX
  8
0
 10
44.706250
 20
401.314732
 42
-0.099376
  0
VERTEX
  8
0
 10
44.381541
 20
401.082053
 42
-0.106313
  0
VERTEX
  8
0
 10
44.000000
 20
401.000000
 42
0.191087
  0
VERTEX
  8
0
 10
43.618118
 20
400.848523
 42
0.088204
  0
VERTEX
  8
0
 10
43.293750
 20
400.412500
 42
0.068025
  0
VERTEX
  8
0
 10
43.073693
 20
399.765418
 42
0.048028
  0
VERTEX
  8
0
 10
43.000000
 20
399.000000
 42
0.192998
  0
VERTEX
  8
0
 10
43.553223
 20
397.620150
 42
0.189794
  0
VERTEX
  8
0
 10
44.911191
 20
396.992328
 42
0.174674
  0
VERTEX
  8
0
 10
46.421218
 20
397.439534
 42
0.172017
  0
VERTEX
  8
0
 10
47.310674
 20
398.750000
 42
-0.046681
  0
VERTEX
  8
0
 10
47.508393
 20
399.293499
 42
-0.602996
  0
VERTEX
  8
0
 10
47.676652
 20
399.300799
 42
-0.111283
  0
VERTEX
  8
0
 10
47.813426
 20
398.869753
 42
-0.010789
  0
VERTEX
  8
0
 10
47.883999
 20
397.769052
 42
0.147855
  0
VERTEX
  8
0
 10
48.607690
 20
395.697111
 42
0.161799
  0
VERTEX
  8
0
 10
50.336137
 20
394.462219
 42
0.108318
  0
VERTEX
  8
0
 10
53.077061
 20
394.232138
 42
0.046715
  0
VERTEX
  8
0
 10
56.669262
 20
395.055861
 42
0.026105
  0
VERTEX
  8
0
 10
59.472262
 20
396.146180
 42
0.068460
  0
VERTEX
  8
0
 10
61.297352
 20
397.290110
 42
0.084532
  0
VERTEX
  8
0
 10
62.519608
 20
398.724987
 42
0.057452
  0
VERTEX
  8
0
 10
63.400419
 20
400.686247
 42
-0.087174
  0
VERTEX
  8
0
 10
63.837047
 20
401.522397
 42
-0.057437
  0
VERTEX
  8
0
 10
64.594094
 20
402.303284
 42
-0.055797
  0
VERTEX
  8
0
 10
65.538659
 20
402.914964
 42
-0.068685
  0
VERTEX
  8
0
 10
66.532350
 20
403.250935
 42
-0.091805
  0
VERTEX
  8
0
 10
68.345425
 20
403.261426
 42
-0.366627
  0
VERTEX
  8
0
 10
69.000083
 20
402.469298
 42
-0.259137
  0
VERTEX
  8
0
 10
68.371761
 20
401.370056
 42
-0.074764
  0
VERTEX
  8
0
 10
66.500000
 20
400.589356
 42
0.141455
  0
VERTEX
  8
0
 10
64.978668
 20
399.704205
 42
0.112193
  0
VERTEX
  8
0
 10
63.997753
 20
398.065380
 42
0.177903
  0
VERTEX
  8
0
 10
64.049477
 20
396.638116
 42
0.304535
  0
VERTEX
  8
0
 10
65.000000
 20
396.000000
 42
-0.078417
  0
VERTEX
  8
0
 10
65.382004
 20
395.939718
 42
-0.090539
  0
VERTEX
  8
0
 10
65.706250
 20
395.765261
 42
-0.100781
  0
VERTEX
  8
0
 10
65.923019
 20
395.505654
 42
-0.124343
  0
VERTEX
  8
0
 10
66.000000
 20
395.200888
 42
-0.300538
  0
VERTEX
  8
0
 10
65.324636
 20
394.178784
 42
-0.031823
  0
VERTEX
  8
0
 10
62.494597
 20
393.179701
 42
-0.036653
  0
VERTEX
  8
0
 10
59.370313
 20
392.538328
 42
-0.096666
  0
VERTEX
  8
0
 10
57.100462
 20
392.682731
 42
0.052684
  0
VERTEX
  8
0
 10
55.926551
 20
392.861346
 42
0.090195
  0
VERTEX
  8
0
 10
54.947667
 20
392.729207
 42
0.094342
  0
VERTEX
  8
0
 10
54.107805
 20
392.267977
 42
0.062353
  0
VERTEX
  8
0
 10
53.350462
 20
391.464607
 42
-0.005259
  0
VERTEX
  8
0
 10
52.465491
 20
390.280675
 42
-0.225061
  0
VERTEX
  8
0
 10
52.193477
 20
390.140564
 42
-0.411125
  0
VERTEX
  8
0
 10
52.024403
 20
390.297197
 42
-0.010864
  0
VERTEX
  8
0
 10
52.000000
 20
391.420161
 42
0.092569
  0
VERTEX
  8
0
 10
51.832413
 20
392.317605
 42
0.224983
  0
VERTEX
  8
0
 10
51.355614
 20
392.769850
 42
0.109897
  0
VERTEX
  8
0
 10
50.413636
 20
392.861950
 42
0.016000
  0
VERTEX
  8
0
 10
48.500000
 20
392.565978
 42
-0.020264
  0
VERTEX
  8
0
 10
46.940024
 20
392.338305
 42
-0.061213
  0
VERTEX
  8
0
 10
45.867942
 20
392.357468
 42
-0.117552
  0
VERTEX
  8
0
 10
45.237461
 20
392.605042
 42
-0.245404
  0
VERTEX
  8
0
 10
45.000000
 20
393.059722
 42
0.266216
  0
VERTEX
  8
0
 10
44.734511
 20
393.523017
 42
0.085246
  0
VERTEX
  8
0
 10
43.963599
 20
393.813179
 42
0.051108
  0
VERTEX
  8
0
 10
42.718668
 20
393.922738
 42
0.020185
  0
VERTEX
  8
0
 10
41.000000
 20
393.828610
 42
-0.018125
  0
VERTEX
  8
0
 10
39.466464
 20
393.738284
 42
-0.030261
  0
VERTEX
  8
0
 10
38.175000
 20
393.787278
 42
-0.031602
  0
VERTEX
  8
0
 10
37.224236
 20
393.942278
 42
-0.349806
  0
VERTEX
  8
0
 10
37.000000
 20
394.223574
 42
-0.127937
  0
VERTEX
  8
0
 10
37.077025
 20
394.519674
 42
-0.100742
  0
VERTEX
  8
0
 10
37.293750
 20
394.771925
 42
-0.089346
  0
VERTEX
  8
0
 10
37.617947
 20
394.941523
 42
-0.076087
  0
VERTEX
  8
0
 10
38.000000
 20
395.000000
 42
0.191087
  0
VERTEX
  8
0
 10
38.381882
 20
395.151477
 42
0.088204
  0
VERTEX
  8
0
 10
38.706250
 20
395.587500
 42
0.068025
  0
VERTEX
  8
0
 10
38.926307
 20
396.234582
 42
0.048028
  0
VERTEX
  8
0
 10
39.000000
 20
397.000000
 42
0.067932
  0
VERTEX
  8
0
 10
38.895655
 20
397.764466
 42
0.084522
  0
VERTEX
  8
0
 10
38.590610
 20
398.412500
 42
0.099717
  0
VERTEX
  8
0
 10
38.137792
 20
398.845839
 42
0.142106
  0
VERTEX
  8
0
 10
37.606330
 20
399.000000
 42
-0.174929
  0
VERTEX
  8
0
 10
36.981599
 20
399.225467
 42
-0.198492
  0
VERTEX
  8
0
 10
36.685664
 20
399.785402
 42
-0.074041
  0
VERTEX
  8
0
 10
36.744716
 20
400.888061
 42
-0.011816
  0
VERTEX
  8
0
 10
37.227969
 20
403.000000
 42
-0.024537
  0
VERTEX
  8
0
 10
37.803837
 20
404.877302
 42
-0.070005
  0
VERTEX
  8
0
 10
38.441242
 20
406.082489
 42
-0.108378
  0
VERTEX
  8
0
 10
39.198097
 20
406.757924
 42
-0.128882
  0
VERTEX
  8
0
 10
40.121638
 20
407.000000
 42
-0.051267
  0
VERTEX
  8
0
 10
40.840357
 20
406.926113
 42
-0.071201
  0
VERTEX
  8
0
 10
41.448231
 20
406.706250
 42
-0.091259
  0
VERTEX
  8
0
 10
41.856861
 20
406.381694
 42
-0.181338
  0
VERTEX
  8
0
 10
42.000000
 20
406.000000
 42
0.181063
  0
VERTEX
  8
0
 10
42.142904
 20
405.618311
 42
0.091341
  0
VERTEX
  8
0
 10
42.550781
 20
405.293750
 42
0.071292
  0
VERTEX
  8
0
 10
43.157572
 20
405.073893
 42
0.051363
  0
VERTEX
  8
0
 10
43.875000
 20
405.000000
 42
0.109085
  0
VERTEX
  8
0
 10
44.742929
 20
405.191636
 42
0.112059
  0
VERTEX
  8
0
 10
45.439750
 20
405.730000
 42
0.084595
  0
VERTEX
  8
0
 10
45.970950
 20
406.655584
 42
0.038727
  0
VERTEX
  8
0
 10
46.350000
 20
408.000000
 42
-0.016897
  0
VERTEX
  8
0
 10
46.893884
 20
410.310511
 42
-0.248012
  0
VERTEX
  8
0
 10
47.445987
 20
410.901740
 42
-0.485325
  0
VERTEX
  8
0
 10
47.901233
 20
410.609759
 42
-0.024213
  0
SEQEND
  0
POLYLINE
  8
0
 66
1
 70
1
  0
VERTEX
  8
0
 10
55.000000
 20
405.000000
 42
0.016863
  0
VERTEX
  8
0
 10
55.075521
 20
402.761437
 42
0.110879
  0
VERTEX
  8
0
 10
55.392526
 20
401.692518
 42
0.192769
  0
VERTEX
  8
0
 10
56.051240
 20
401.159001
 42
0.071720
  0
VERTEX
  8
0
 10
57.250000
 20
400.969591
 42
-0.006255
  0
VERTEX
  8
0
 10
58.641291
 20
400.933377
 42
-0.294658
  0
VERTEX
  8
0
 10
58.862062
 20
400.778540
 42
-0.364690
  0
VERTEX
  8
0
 10
58.787275
 20
400.547720
 42
-0.007803
  0
VERTEX
  8
0
 10
57.690256
 20
399.886467
 42
-0.081138
  0
VERTEX
  8
0
 10
56.632394
 20
399.482321
 42
-0.072591
  0
VERTEX
  8
0
 10
55.458247
 20
399.414051
 42
-0.054187
  0
VERTEX
  8
0
 10
54.034893
 20
399.695354
 42
-0.022507
  0
VERTEX
  8
0
 10
52.190256
 20
400.365347
 42
-0.011819
  0
VERTEX
  8
0
 10
50.851257
 20
400.958559
 42
-0.031624
  0
VERTEX
  8
0
 10
49.937889
 20
401.462173
 42
-0.106785
  0
VERTEX
  8
0
 10
49.617546
 20
401.779009
 42
-0.581288
  0
VERTEX
  8
0
 10
49.704687
 20
401.948472
 42
0.213862
  0
VERTEX
  8
0
 10
50.212988
 20
402.202924
 42
0.050686
  0
VERTEX
  8
0
 10
50.748375
 20
403.012989
 42
0.043332
  0
VERTEX
  8
0
 10
51.226409
 20
404.156000
 42
0.031025
  0
VERTEX
  8
0
 10
51.565978
 20
405.500000
 42
-0.052280
  0
VERTEX
  8
0
 10
52.417941
 20
408.355905
 42
-0.342806
  0
VERTEX
  8
0
 10
53.634233
 20
409.045728
 42
-0.316928
  0
VERTEX
  8
0
 10
54.697353
 20
408.038489
 42
-0.049679
  0
SEQEND
  0
POLYLINE
  8
0
 66
1
 70
1
  0
VERTEX
  8
0
 10
365.995778
 20
167.750000
 42
0.008637
  0
VERTEX
  8
0
 10
365.359295
 20
167.163404
 42
0.004780
  0
VERTEX
  8
0
 10
364.601628
 20
166.426562
 42
0.004765
  0
VERTEX
  8
0
 10
363.848029
 20
165.665151
 42
0.007651
  0
VERTEX
  8
0
 10
363.221621
 20
165.000000
 42
-0.002236
  0
VERTEX
  8
0
 10
362.366131
 20
164.071659
 42
-0.208376
  0
VERTEX
  8
0
 10
362.201651
 20
164.000000
 42
-0.548642
  0
VERTEX
  8
0
 10
362.146413
 20
164.086712
 42
-0.004111
  0
VERTEX
  8
0
 10
362.581543
 20
165.000000
 42
-0.027010
  0
VERTEX
  8
0
 10
363.517799
 20
166.686232
 42
-0.047806
  0
VERTEX
  8
0
 10
364.487843
 20
167.945453
 42
-0.061715
  0
VERTEX
  8
0
 10
365.440141
 20
168.740400
 42
-0.144062
  0
VERTEX
  8
0
 10
366.322445
 20
169.000000
 42
-0.193667
  0
VERTEX
  8
0
 10
366.602309
 20
168.887375
 42
-0.271709
  0
VERTEX
  8
0
 10
366.673739
 20
168.634203
 42
-0.111597
  0
VERTEX
  8
0
 10
366.466085
 20
168.233274
 42
-0.035834
  0
SEQEND
  0
POLYLINE
  8
0
 66
1
 70
1
  0
VERTEX
  8
0
 10
390.361626
 20
140.500000
 42
-0.021360
  0
VERTEX
  8
0
 10
390.112506
 20
139.925442
 42
-0.030395
  0
VERTEX
  8
0
 10
389.839659
 20
139.440625
 42
-0.030693
  0
VERTEX
  8
0
 10
389.579329
 20
139.087111
 42
-0.222225
  0
VERTEX
  8
0
 10
389.393011
 20
139.000000
 42
-0.289661
  0
VERTEX
  8
0
 10
389.241071
 20
139.096084
 42
-0.046727
  0
VERTEX
  8
0
 10
389.115447
 20
139.440625
 42
-0.039339
  0
VERTEX
  8
0
 10
389.028469
 20
139.925176
 42
-0.024748
  0
VERTEX
  8
0
 10
389.000000
 20
140.500000
 42
-0.062722
  0
VERTEX
  8
0
 10
389.072230
 20
141.073532
 42
-0.080880
  0
VERTEX
  8
0
 10
389.284531
 20
141.559375
 42
-0.098158
  0
VERTEX
  8
0
 10
389.599211
 20
141.884506
 42
-0.152681
  0
VERTEX
  8
0
 10
389.968615
 20
142.000000
 42
-0.184534
  0
VERTEX
  8
0
 10
390.289193
 20
141.877514
 42
-0.147206
  0
VERTEX
  8
0
 10
390.483616
 20
141.559375
 42
-0.100118
  0
VERTEX
  8
0
 10
390.511135
 20
141.074366
 42
-0.055937
  0
SEQEND
  0
POLYLINE
  8
0
 66
1
 70
1
  0
VERTEX
  8
0
 10
211.914811
 20
137.750000
 42
-0.031799
  0
VERTEX
  8
0
 10
212.199903
 20
136.821035
 42
-0.034738
  0
VERTEX
  8
0
 10
212.354619
 20
135.890403
 42
-0.037146
  0
VERTEX
  8
0
 10
212.371560
 20
135.085255
 42
-0.121327
  0
VERTEX
  8
0
 10
212.217905
 20
134.579031
 42
-0.271718
  0
VERTEX
  8
0
 10
211.940273
 20
134.425912
 42
-0.182022
  0
VERTEX
  8
0
 10
211.595488
 20
134.566318
 42
-0.083101
  0
VERTEX
  8
0
 10
211.214381
 20
135.059244
 42
-0.034519
  0
VERTEX
  8
0
 10
210.867542
 20
135.829031
 42
0.039070
  0
VERTEX
  8
0
 10
210.484088
 20
136.659837
 42
0.047862
  0
VERTEX
  8
0
 10
209.997141
 20
137.362278
 42
0.055163
  0
VERTEX
  8
0
 10
209.485068
 20
137.847780
 42
0.163574
  0
VERTEX
  8
0
 10
209.032224
 20
138.000000
 42
-0.095845
  0
VERTEX
  8
0
 10
208.638238
 20
138.076223
 42
-0.097137
  0
VERTEX
  8
0
 10
208.303216
 20
138.293750
 42
-0.098660
  0
VERTEX
  8
0
 10
208.078920
 20
138.618408
 42
-0.102327
  0
VERTEX
  8
0
 10
208.000000
 20
139.000000
 42
-0.280558
  0
VERTEX
  8
0
 10
208.512712
 20
139.841812
 42
-0.199006
  0
VERTEX
  8
0
 10
209.643323
 20
139.936794
 42
-0.115692
  0
VERTEX
  8
0
 10
211.019598
 20
139.112884
 42
-0.110361
  0
SEQEND
  0
POLYLINE
  8
0
 66
1
 70
1
  0
VERTEX
  8
0
 10
183.000000
 20
132.505341
 42
0.127374
  0
VERTEX
  8
0
 10
183.153451
 20
131.912750
 42
0.041221
  0
VERTEX
  8
0
 10
183.660937
 20
131.153433
 42
0.038016
  0
VERTEX
  8
0
 10
184.388974
 20
130.368098
 42
0.034553
  0
VERTEX
  8
0
 10
185.250000
 20
129.674424
 42
-0.011662
  0
VERTEX
  8
0
 10
186.378276
 20
128.847604
 42
-0.140148
  0
VERTEX
  8
0
 10
186.695573
 20
128.418381
 42
-0.443066
  0
VERTEX
  8
0
 10
186.560319
 20
128.156059
 42
-0.057234
  0
VERTEX
  8
0
 10
185.856989
 20
128.052452
 42
0.081318
  0
VERTEX
  8
0
 10
185.185858
 20
127.920460
 42
0.063605
  0
VERTEX
  8
0
 10
184.527528
 20
127.574783
 42
0.063979
  0
VERTEX
  8
0
 10
183.981012
 20
127.077430
 42
0.084769
  0
VERTEX
  8
0
 10
183.638374
 20
126.500000
 42
-0.102227
  0
VERTEX
  8
0
 10
182.957051
 20
125.437400
 42
-0.196318
  0
VERTEX
  8
0
 10
182.043605
 20
125.041264
 42
-0.259330
  0
VERTEX
  8
0
 10
181.299639
 20
125.434264
 42
-0.145342
  0
VERTEX
  8
0
 10
181.000000
 20
126.443296
 42
0.115592
  0
VERTEX
  8
0
 10
180.844548
 20
127.106729
 42
0.044350
  0
VERTEX
  8
0
 10
180.347139
 20
127.919906
 42
0.040914
  0
VERTEX
  8
0
 10
179.627872
 20
128.740993
 42
0.039673
  0
VERTEX
  8
0
 10
178.777494
 20
129.443296
 42
-0.023977
  0
VERTEX
  8
0
 10
178.002737
 20
130.043296
 42
-0.073354
  0
VERTEX
  8
0
 10
177.566960
 20
130.542718
 42
-0.250118
  0
VERTEX
  8
0
 10
177.542415
 20
130.845742
 42
-0.298804
  0
VERTEX
  8
0
 10
177.777494
 20
131.000000
 42
0.153669
  0
VERTEX
  8
0
 10
178.243732
 20
131.146758
 42
0.097981
  0
VERTEX
  8
0
 10
178.640889
 20
131.559999
 42
0.080540
  0
VERTEX
  8
0
 10
178.908870
 20
132.177447
 42
0.062267
  0
VERTEX
  8
0
 10
179.000000
 20
132.906380
 42
-0.060551
  0
VERTEX
  8
0
 10
179.106846
 20
133.785431
 42
-0.182942
  0
VERTEX
  8
0
 10
179.443690
 20
134.273812
 42
-0.167579
  0
VERTEX
  8
0
 10
180.042979
 20
134.441640
 42
-0.049229
  0
VERTEX
  8
0
 10
181.000000
 20
134.289749
 42
-0.055563
  0
VERTEX
  8
0
 10
181.764862
 20
133.995908
 42
-0.062754
  0
VERTEX
  8
0
 10
182.412500
 20
133.549837
 42
-0.072113
  0
VERTEX
  8
0
 10
182.851692
 20
133.026637
 42
-0.139482
  0
SEQEND
  0
POLYLINE
  8
0
 66
1
 70
1
  0
VERTEX
  8
0
 10
410.567024
 20
130.500000
 42
0.027785
  0
VERTEX
  8
0
 10
411.296680
 20
129.159985
 42
0.036134
  0
VERTEX
  8
0
 10
412.115732
 20
128.028125
 42
0.039223
  0
VERTEX
  8
0
 10
412.905928
 20
127.224629
 42
0.180766
  0
VERTEX
  8
0
 10
413.506953
 20
127.000000
 42
-0.103775
  0
VERTEX
  8
0
 10
414.038924
 20
126.888387
 42
-0.066710
  0
VERTEX
  8
0
 10
414.579379
 20
126.559375
 42
-0.062839
  0
VERTEX
  8
0
 10
415.046057
 20
126.073472
 42
-0.068431
  0
VERTEX
  8
0
 10
415.361626
 20
125.500000
 42
-0.055937
  0
VERTEX
  8
0
 10
415.511135
 20
124.925634
 42
-0.100118
  0
VERTEX
  8
0
 10
415.483616
 20
124.440625
 42
-0.147206
  0
VERTEX
  8
0
 10
415.289193
 20
124.122486
 42
-0.184534
  0
VERTEX
  8
0
 10
414.968615
 20
124.000000
 42
-0.102345
  0
VERTEX
  8
0
 10
414.599000
 20
124.076457
 42
-0.098664
  0
VERTEX
  8
0
 10
414.284531
 20
124.293750
 42
-0.097132
  0
VERTEX
  8
0
 10
414.073830
 20
124.618313
 42
-0.095827
  0
VERTEX
  8
0
 10
414.000000
 20
125.000000
 42
0.148195
  0
VERTEX
  8
0
 10
413.884432
 20
125.381354
 42
0.098894
  0
VERTEX
  8
0
 10
413.559375
 20
125.706250
 42
0.082425
  0
VERTEX
  8
0
 10
413.073457
 20
125.925306
 42
0.064853
  0
VERTEX
  8
0
 10
412.500000
 20
126.000000
 42
-0.073902
  0
VERTEX
  8
0
 10
411.926850
 20
126.085179
 42
-0.088154
  0
VERTEX
  8
0
 10
411.440625
 20
126.332732
 42
-0.100612
  0
VERTEX
  8
0
 10
411.115585
 20
126.700748
 42
-0.131480
  0
VERTEX
  8
0
 10
411.000000
 20
127.132705
 42
0.121701
  0
VERTEX
  8
0
 10
410.862543
 20
127.689072
 42
0.033230
  0
VERTEX
  8
0
 10
410.385529
 20
128.465605
 42
0.031537
  0
VERTEX
  8
0
 10
409.708797
 20
129.301867
 42
0.028244
  0
VERTEX
  8
0
 10
408.908183
 20
130.079633
 42
-0.041795
  0
VERTEX
  8
0
 10
408.155481
 20
130.851534
 42
-0.055951
  0
VERTEX
  8
0
 10
407.622019
 20
131.670268
 42
-0.068718
  0
VERTEX
  8
0
 10
407.369219
 20
132.412012
 42
-0.188389
  0
VERTEX
  8
0
 10
407.467200
 20
132.946928
 42
-0.079180
  0
VERTEX
  8
0
 10
408.146475
 20
133.734654
 42
-0.356380
  0
VERTEX
  8
0
 10
408.711632
 20
133.743960
 42
-0.107441
  0
VERTEX
  8
0
 10
409.345035
 20
132.974171
 42
-0.007845
  0
SEQEND
  0
POLYLINE
  8
0
 66
1
 70
1
  0
VERTEX
  8
0
 10
412.000000
 20
108.476345
 42
0.086942
  0
VERTEX
  8
0
 10
412.093566
 20
107.942316
 42
0.068032
  0
VERTEX
  8
0
 10
412.367188
 20
107.420246
 42
0.067776
  0
VERTEX
  8
0
 10
412.772202
 20
106.988920
 42
0.084822
  0
VERTEX
  8
0
 10
413.250000
 20
106.720238
 42
-0.076462
  0
VERTEX
  8
0
 10
413.673464
 20
106.491284
 42
-0.130133
  0
VERTEX
  8
0
 10
413.919845
 20
106.176244
 42
-0.159157
  0
VERTEX
  8
0
 10
413.951100
 20
105.826895
 42
-0.131588
  0
VERTEX
  8
0
 10
413.775004
 20
105.495242
 42
-0.272985
  0
VERTEX
  8
0
 10
413.352867
 20
105.370177
 42
-0.072845
  0
VERTEX
  8
0
 10
412.677904
 20
105.647930
 42
-0.052893
  0
VERTEX
  8
0
 10
411.874051
 20
106.248321
 42
-0.032308
  0
VERTEX
  8
0
 10
411.058273
 20
107.108337
 42
-0.016954
  0
VERTEX
  8
0
 10
409.579002
 20
109.012354
 42
-0.114663
  0
VERTEX
  8
0
 10
409.119215
 20
110.105099
 42
-0.451607
  0
VERTEX
  8
0
 10
409.462054
 20
110.530420
 42
-0.102960
  0
VERTEX
  8
0
 10
410.500000
 20
110.361626
 42
-0.069986
  0
VERTEX
  8
0
 10
411.073458
 20
110.043748
 42
-0.063290
  0
VERTEX
  8
0
 10
411.559375
 20
109.570388
 42
-0.066796
  0
VERTEX
  8
0
 10
411.888294
 20
109.020024
 42
-0.101670
  0
SEQEND
  0
POLYLINE
  8
0
 66
1
 70
1
  0
VERTEX
  8
0
 10
218.398742
 20
95.452577
 42
0.037164
  0
VERTEX
  8
0
 10
218.228395
 20
94.469709
 42
0.034868
  0
VERTEX
  8
0
 10
218.200263
 20
93.451051
 42
0.036805
  0
VERTEX
  8
0
 10
218.305660
 20
92.543973
 42
0.091334
  0
VERTEX
  8
0
 10
218.547408
 20
91.923292
 42
-0.099519
  0
VERTEX
  8
0
 10
219.081017
 20
90.484689
 42
-0.014986
  0
VERTEX
  8
0
 10
219.472071
 20
87.418085
 42
-0.014559
  0
VERTEX
  8
0
 10
219.666281
 20
84.555898
 42
-0.682241
  0
VERTEX
  8
0
 10
219.279712
 20
84.386955
 42
-0.135580
  0
VERTEX
  8
0
 10
218.827374
 20
85.184578
 42
-0.001917
  0
VERTEX
  8
0
 10
217.491644
 20
90.583607
 42
-0.004080
  0
VERTEX
  8
0
 10
216.291089
 20
95.698619
 42
-0.048327
  0
VERTEX
  8
0
 10
216.035622
 20
97.718615
 42
-0.138546
  0
VERTEX
  8
0
 10
216.141043
 20
98.138274
 42
-0.159386
  0
VERTEX
  8
0
 10
216.446739
 20
98.413629
 42
-0.125165
  0
VERTEX
  8
0
 10
216.921882
 20
98.494253
 42
-0.071485
  0
VERTEX
  8
0
 10
217.492885
 20
98.364357
 42
-0.108540
  0
VERTEX
  8
0
 10
218.103888
 20
97.961738
 42
-0.118123
  0
VERTEX
  8
0
 10
218.467201
 20
97.351171
 42
-0.092181
  0
VERTEX
  8
0
 10
218.566001
 20
96.516104
 42
-0.044987
  0
SEQEND
  0
POLYLINE
  8
0
 66
1
 70
1
  0
VERTEX
  8
0
 10
183.729167
 20
81.395833
 42
-0.126455
  0
VERTEX
  8
0
 10
183.402231
 20
81.202593
 42
-0.060344
  0
VERTEX
  8
0
 10
182.916927
 20
81.123424
 42
-0.054150
  0
VERTEX
  8
0
 10
182.359369
 20
81.160852
 42
-0.051402
  0
VERTEX
  8
0
 10
181.812500
 20
81.316886
 42
-0.054073
  0
VERTEX
  8
0
 10
181.395823
 20
81.538436
 42
-0.470617
  0
VERTEX
  8
0
 10
181.378580
 20
81.720685
 42
-0.168741
  0
VERTEX
  8
0
 10
181.670344
 20
81.862007
 42
-0.018894
  0
VERTEX
  8
0
 10
182.416667
 20
81.921053
 42
-0.028489
  0
VERTEX
  8
0
 10
183.112848
 20
81.910055
 42
-0.077125
  0
VERTEX
  8
0
 10
183.592839
 20
81.799335
 42
-0.208169
  0
VERTEX
  8
0
 10
183.775380
 20
81.614691
 42
-0.296942
  0
SEQEND
  0
POLYLINE
  8
0
 66
1
 70
1
  0
VERTEX
  8
0
 10
422.689326
 20
76.250000
 42
-0.161593
  0
VERTEX
  8
0
 10
422.521012
 20
75.990860
 42
-0.542911
  0
VERTEX
  8
0
 10
422.366341
 20
76.042187
 42
-0.052887
  0
VERTEX
  8
0
 10
422.259713
 20
76.748017
 42
-0.011065
  0
VERTEX
  8
0
 10
422.232003
 20
78.000000
 42
-0.011065
  0
VERTEX
  8
0
 10
422.259713
 20
79.251983
 42
-0.052887
  0
VERTEX
  8
0
 10
422.366341
 20
79.957813
 42
-0.542911
  0
VERTEX
  8
0
 10
422.521012
 20
80.009140
 42
-0.161593
  0
VERTEX
  8
0
 10
422.689326
 20
79.750000
 42
-0.039571
  0
VERTEX
  8
0
 10
422.831531
 20
78.952734
 42
-0.024357
  0
VERTEX
  8
0
 10
422.877971
 20
78.000000
 42
-0.024357
  0
VERTEX
  8
0
 10
422.831531
 20
77.047266
 42
-0.039571
  0
SEQEND
  0
POLYLINE
  8
0
 66
1
 70
1
  0
VERTEX
  8
0
 10
221.151936
 20
56.140542
 42
-0.038623
  0
VERTEX
  8
0
 10
220.883631
 20
55.500264
 42
-0.319312
  0
VERTEX
  8
0
 10
220.619016
 20
55.362967
 42
-0.212852
  0
VERTEX
  8
0
 10
220.311103
 20
55.555577
 42
-0.020544
  0
VERTEX
  8
0
 10
219.837944
 20
56.325095
 42
-0.110803
  0
VERTEX
  8
0
 10
219.541078
 20
57.321732
 42
-0.014224
  0
VERTEX
  8
0
 10
219.450543
 20
59.564466
 42
-0.016057
  0
VERTEX
  8
0
 10
219.505241
 20
62.270349
 42
-0.012753
  0
VERTEX
  8
0
 10
219.732510
 20
65.184554
 42
0.000000
  0
VERTEX
  8
0
 10
220.491150
 20
72.500000
 42
0.000000
  0
VERTEX
  8
0
 10
221.046503
 20
65.000000
 42
-0.006735
  0
VERTEX
  8
0
 10
221.226332
 20
62.028391
 42
-0.008768
  0
VERTEX
  8
0
 10
221.306557
 20
59.303784
 42
-0.006833
  0
VERTEX
  8
0
 10
221.302543
 20
57.031149
 42
-0.076191
  0
SEQEND
  0
POLYLINE
  8
0
 66
1
 70
1
  0
VERTEX
  8
0
 10
423.707261
 20
65.761659
 42
-0.082665
  0
VERTEX
  8
0
 10
423.543410
 20
65.319562
 42
-0.671610
  0
VERTEX
  8
0
 10
423.394187
 20
65.339362
 42
-0.053901
  0
VERTEX
  8
0
 10
423.284834
 20
66.071102
 42
-0.008901
  0
VERTEX
  8
0
 10
423.252183
 20
67.500000
 42
-0.009782
  0
VERTEX
  8
0
 10
423.273069
 20
68.938425
 42
-0.038992
  0
VERTEX
  8
0
 10
423.371610
 20
69.814362
 42
-0.417468
  0
VERTEX
  8
0
 10
423.523779
 20
69.916221
 42
-0.285845
  0
VERTEX
  8
0
 10
423.687080
 20
69.761659
 42
-0.041951
  0
VERTEX
  8
0
 10
423.830983
 20
68.934218
 42
-0.020826
  0
VERTEX
  8
0
 10
423.880728
 20
67.869594
 42
-0.020511
  0
VERTEX
  8
0
 10
423.840609
 20
66.754739
 42
-0.028254
  0
SEQEND
  0
POLYLINE
  8
0
 66
1
 70
1
  0
VERTEX
  8
0
 10
184.375000
 20
60.875000
 42
-0.013425
  0
VERTEX
  8
0
 10
184.926902
 20
57.670384
 42
-0.093674
  0
VERTEX
  8
0
 10
184.858752
 20
56.090223
 42
-0.220988
  0
VERTEX
  8
0
 10
184.236642
 20
55.296684
 42
-0.118277
  0
VERTEX
  8
0
 10
183.000000
 20
55.000000
 42
-0.092498
  0
VERTEX
  8
0
 10
181.984102
 20
55.189559
 42
-0.182219
  0
VERTEX
  8
0
 10
181.380435
 20
55.729167
 42
-0.101713
  0
VERTEX
  8
0
 10
181.077039
 20
56.791620
 42
-0.018860
  0
VERTEX
  8
0
 10
181.000000
 20
58.833333
 42
-0.036767
  0
VERTEX
  8
0
 10
181.269486
 20
62.493173
 42
-0.223554
  0
VERTEX
  8
0
 10
182.293464
 20
64.032892
 42
-0.447569
  0
VERTEX
  8
0
 10
183.464751
 20
63.673625
 42
-0.058598
  0
SEQEND
  0
POLYLINE
  8
0
 66
1
 70
1
  0
VERTEX
  8
0
 10
366.683114
 20
60.812500
 42
-0.054073
  0
VERTEX
  8
0
 10
366.461564
 20
60.395823
 42
-0.470617
  0
VERTEX
  8
0
 10
366.279315
 20
60.378580
 42
-0.168741
  0
VERTEX
  8
0
 10
366.137993
 20
60.670344
 42
-0.018894
  0
VERTEX
  8
0
 10
366.078947
 20
61.416667
 42
-0.028489
  0
VERTEX
  8
0
 10
366.089945
 20
62.112848
 42
-0.077125
  0
VERTEX
  8
0
 10
366.200665
 20
62.592839
 42
-0.208169
  0
VERTEX
  8
0
 10
366.385309
 20
62.775380
 42
-0.296942
  0
VERTEX
  8
0
 10
366.604167
 20
62.729167
 42
-0.126455
  0
VERTEX
  8
0
 10
366.797407
 20
62.402231
 42
-0.060344
  0
VERTEX
  8
0
 10
366.876576
 20
61.916927
 42
-0.054150
  0
VERTEX
  8
0
 10
366.839148
 20
61.359369
 42
-0.051402
  0
SEQEND
  0
POLYLINE
  8
0
 66
1
 70
1
  0
VERTEX
  8
0
 10
425.912404
 20
50.024007
 42
-0.144785
  0
VERTEX
  8
0
 10
426.262451
 20
49.610794
 42
-0.020025
  0
VERTEX
  8
0
 10
426.679333
 20
48.552365
 42
-0.021577
  0
VERTEX
  8
0
 10
427.078562
 20
47.224308
 42
-0.016756
  0
VERTEX
  8
0
 10
427.401071
 20
45.750000
 42
-0.015970
  0
VERTEX
  8
0
 10
427.684549
 20
43.873236
 42
-0.076636
  0
VERTEX
  8
0
 10
427.646814
 20
42.795395
 42
-0.174235
  0
VERTEX
  8
0
 10
427.310116
 20
42.224644
 42
-0.174957
  0
VERTEX
  8
0
 10
426.687769
 20
42.000000
 42
-0.348246
  0
VERTEX
  8
0
 10
425.604426
 20
42.858677
 42
-0.019783
  0
VERTEX
  8
0
 10
424.739137
 20
47.338866
 42
-0.025746
  0
VERTEX
  8
0
 10
424.195313
 20
52.772926
 42
-0.023582
  0
VERTEX
  8
0
 10
424.189084
 20
58.396691
 42
-0.007007
  0
VERTEX
  8
0
 10
424.295500
 20
60.166317
 42
-0.833179
  0
VERTEX
  8
0
 10
424.419256
 20
60.179663
 42
-0.054928
  0
VERTEX
  8
0
 10
424.555463
 20
59.427658
 42
-0.002002
  0
VERTEX
  8
0
 10
424.745731
 20
56.524007
 42
0.011912
  0
VERTEX
  8
0
 10
424.944642
 20
54.196439
 42
0.017133
  0
VERTEX
  8
0
 10
425.240061
 20
52.149535
 42
0.012961
  0
VERTEX
  8
0
 10
425.580776
 20
50.498579
 42
0.192569
  0
SEQEND
  0
POLYLINE
  8
0
 66
1
 70
1
  0
VERTEX
  8
0
 10
227.511931
 20
50.915631
 42
-0.006707
  0
VERTEX
  8
0
 10
227.491222
 20
49.030815
 42
-0.011150
  0
VERTEX
  8
0
 10
227.417063
 20
47.443967
 42
-0.004902
  0
VERTEX
  8
0
 10
227.313230
 20
46.129035
 42
-0.388493
  0
VERTEX
  8
0
 10
227.172223
 20
46.000000
 42
-0.225322
  0
VERTEX
  8
0
 10
226.426925
 20
46.353828
 42
-0.012871
  0
VERTEX
  8
0
 10
224.829971
 20
48.417545
 42
-0.016001
  0
VERTEX
  8
0
 10
223.371510
 20
50.545557
 42
-0.135759
  0
VERTEX
  8
0
 10
223.033269
 20
51.643011
 42
-0.116405
  0
VERTEX
  8
0
 10
223.131888
 20
52.122931
 42
-0.068118
  0
VERTEX
  8
0
 10
223.450398
 20
52.619347
 42
-0.062249
  0
VERTEX
  8
0
 10
223.928960
 20
53.056292
 42
-0.062387
  0
VERTEX
  8
0
 10
224.500000
 20
53.361626
 42
0.089069
  0
VERTEX
  8
0
 10
225.073443
 20
53.708550
 42
0.066565
  0
VERTEX
  8
0
 10
225.559375
 20
54.266949
 42
0.065577
  0
VERTEX
  8
0
 10
225.887856
 20
54.943123
 42
0.080486
  0
VERTEX
  8
0
 10
226.000000
 20
55.635282
 42
-0.042846
  0
VERTEX
  8
0
 10
226.051637
 20
56.236759
 42
-0.125285
  0
VERTEX
  8
0
 10
226.220313
 20
56.613914
 42
-0.257130
  0
VERTEX
  8
0
 10
226.467064
 20
56.717547
 42
-0.171747
  0
VERTEX
  8
0
 10
226.750000
 20
56.582298
 42
-0.147577
  0
VERTEX
  8
0
 10
227.044242
 20
56.032863
 42
-0.016245
  0
VERTEX
  8
0
 10
227.283192
 20
54.607912
 42
-0.018714
  0
VERTEX
  8
0
 10
227.452591
 20
52.853057
 42
-0.014097
  0
SEQEND
  0
POLYLINE
  8
0
 66
1
 70
1
  0
VERTEX
  8
0
 10
185.000000
 20
48.000000
 42
-0.142666
  0
VERTEX
  8
0
 10
184.888931
 20
47.618660
 42
-0.099650
  0
VERTEX
  8
0
 10
184.576711
 20
47.293750
 42
-0.084330
  0
VERTEX
  8
0
 10
184.109818
 20
47.074854
 42
-0.067639
  0
VERTEX
  8
0
 10
183.559017
 20
47.000000
 42
-0.061875
  0
VERTEX
  8
0
 10
182.961978
 20
47.074167
 42
-0.051278
  0
VERTEX
  8
0
 10
182.359775
 20
47.293750
 42
-0.053305
  0
VERTEX
  8
0
 10
181.842344
 20
47.617164
 42
-0.088250
  0
VERTEX
  8
0
 10
181.500000
 20
48.000000
 42
-0.202618
  0
VERTEX
  8
0
 10
181.441401
 20
48.378123
 42
-0.181468
  0
VERTEX
  8
0
 10
181.668350
 20
48.706250
 42
-0.104212
  0
VERTEX
  8
0
 10
182.195401
 20
48.928459
 42
-0.047867
  0
VERTEX
  8
0
 10
182.940983
 20
49.000000
 42
-0.046600
  0
VERTEX
  8
0
 10
183.729059
 20
48.926392
 42
-0.066561
  0
VERTEX
  8
0
 10
184.395164
 20
48.706250
 42
-0.086673
  0
VERTEX
  8
0
 10
184.844577
 20
48.381985
 42
-0.195654
  0
SEQEND
  0
POLYLINE
  8
0
 66
1
 70
1
  0
VERTEX
  8
0
 10
430.000000
 20
38.500000
 42
-0.064853
  0
VERTEX
  8
0
 10
429.925306
 20
37.926543
 42
-0.082425
  0
VERTEX
  8
0
 10
429.706250
 20
37.440625
 42
-0.098894
  0
VERTEX
  8
0
 10
429.381354
 20
37.115568
 42
-0.148195
  0
VERTEX
  8
0
 10
429.000000
 20
37.000000
 42
-0.148195
  0
VERTEX
  8
0
 10
428.618646
 20
37.115568
 42
-0.098894
  0
VERTEX
  8
0
 10
428.293750
 20
37.440625
 42
-0.082425
  0
VERTEX
  8
0
 10
428.074694
 20
37.926543
 42
-0.064853
  0
VERTEX
  8
0
 10
428.000000
 20
38.500000
 42
-0.064853
  0
VERTEX
  8
0
 10
428.074694
 20
39.073457
 42
-0.082425
  0
VERTEX
  8
0
 10
428.293750
 20
39.559375
 42
-0.098894
  0
VERTEX
  8
0
 10
428.618646
 20
39.884432
 42
-0.148195
  0
VERTEX
  8
0
 10
429.000000
 20
40.000000
 42
-0.148195
  0
VERTEX
  8
0
 10
429.381354
 20
39.884432
 42
-0.098894
  0
VERTEX
  8
0
 10
429.706250
 20
39.559375
 42
-0.082425
  0
VERTEX
  8
0
 10
429.925306
 20
39.073457
 42
-0.064853
  0
SEQEND
  0
POLYLINE
  8
0
 66
1
 70
1
  0
VERTEX
  8
0
 10
359.500000
 20
34.000000
 42
-0.076764
  0
VERTEX
  8
0
 10
359.661825
 20
33.617617
 42
-0.154201
  0
VERTEX
  8
0
 10
359.642737
 20
33.293750
 42
-0.186277
  0
VERTEX
  8
0
 10
359.449529
 20
33.079239
 42
-0.117858
  0
VERTEX
  8
0
 10
359.118034
 20
33.000000
 42
-0.085235
  0
VERTEX
  8
0
 10
358.689814
 20
33.073533
 42
-0.053414
  0
VERTEX
  8
0
 10
358.230237
 20
33.293750
 42
-0.051777
  0
VERTEX
  8
0
 10
357.810561
 20
33.617474
 42
-0.064269
  0
VERTEX
  8
0
 10
357.500000
 20
34.000000
 42
-0.076764
  0
VERTEX
  8
0
 10
357.338175
 20
34.382383
 42
-0.154201
  0
VERTEX
  8
0
 10
357.357263
 20
34.706250
 42
-0.186277
  0
VERTEX
  8
0
 10
357.550471
 20
34.920761
 42
-0.117858
  0
VERTEX
  8
0
 10
357.881966
 20
35.000000
 42
-0.085235
  0
VERTEX
  8
0
 10
358.310186
 20
34.926467
 42
-0.053414
  0
VERTEX
  8
0
 10
358.769763
 20
34.706250
 42
-0.051777
  0
VERTEX
  8
0
 10
359.189439
 20
34.382526
 42
-0.064269
  0
SEQEND
  0
POLYLINE
  8
0
 66
1
 70
1
  0
VERTEX
  8
0
 10
172.595012
 20
14.750000
 42
0.000000
  0
VERTEX
  8
0
 10
174.500000
 20
12.500000
 42
0.000000
  0
VERTEX
  8
0
 10
172.000000
 20
14.489343
 42
0.001606
  0
VERTEX
  8
0
 10
171.012053
 20
15.270321
 42
0.002159
  0
VERTEX
  8
0
 10
170.111979
 20
15.970885
 42
0.001477
  0
VERTEX
  8
0
 10
169.352753
 20
16.553003
 42
0.023042
  0
VERTEX
  8
0
 10
169.083333
 20
16.739343
 42
-0.257845
  0
VERTEX
  8
0
 10
169.029454
 20
16.836328
 42
-0.298494
  0
VERTEX
  8
0
 10
169.086243
 20
16.923432
 42
-0.079771
  0
VERTEX
  8
0
 10
169.315381
 20
16.982841
 42
-0.023625
  0
VERTEX
  8
0
 10
169.678346
 20
17.000000
 42
-0.135575
  0
VERTEX
  8
0
 10
170.189553
 20
16.858791
 42
-0.029524
  0
VERTEX
  8
0
 10
170.952434
 20
16.339063
 42
-0.028718
  0
VERTEX
  8
0
 10
171.791460
 20
15.611314
 42
-0.024087
  0
SEQEND
  0
ENDSEC
  0
EOF
