  0
SECTION
  2
HEADER
  9
$ACADVER
  1
AC1006
  9
$EXTMIN
 10
0.000000
 20
0.000000
 30
0.000000
  9
$EXTMAX
 10
467.000000
 20
388.000000
 30
0.000000
  0
ENDSEC
  0
SECTION
  2
ENTITIES
  0
POLYLINE
  8
0
 66
1
 70
1
  0
VERTEX
  8
0
 10
334.000000
 20
386.246300
 42
-0.042716
  0
VERTEX
  8
0
 10
331.162792
 20
385.529330
 42
-0.017658
  0
VERTEX
  8
0
 10
327.231423
 20
385.028032
 42
-0.013855
  0
VERTEX
  8
0
 10
322.122977
 20
384.701632
 42
-0.006492
  0
VERTEX
  8
0
 10
315.500000
 20
384.548520
 42
0.004390
  0
VERTEX
  8
0
 10
306.827847
 20
384.384511
 42
0.031278
  0
VERTEX
  8
0
 10
302.646139
 20
384.006183
 42
0.051534
  0
VERTEX
  8
0
 10
299.441358
 20
383.168244
 42
0.024143
  0
VERTEX
  8
0
 10
295.500000
 20
381.469278
 42
0.057109
  0
VERTEX
  8
0
 10
290.033316
 20
377.970215
 42
0.017060
  0
VERTEX
  8
0
 10
282.562924
 20
371.450169
 42
0.014842
  0
VERTEX
  8
0
 10
273.703549
 20
362.661824
 42
0.008760
  0
VERTEX
  8
0
 10
263.629484
 20
351.677973
 42
-0.012986
  0
VERTEX
  8
0
 10
259.530071
 20
347.283471
 42
-0.036287
  0
VERTEX
  8
0
 10
256.368035
 20
344.501110
 42
-0.036777
  0
VERTEX
  8
0
 10
252.860894
 20
342.225573
 42
-0.013638
  0
VERTEX
  8
0
 10
247.624159
 20
339.534074
 42
0.014100
  0
VERTEX
  8
0
 10
241.734371
 20
336.500045
 42
0.039091
  0
VERTEX
  8
0
 10
237.844661
 20
333.940367
 42
0.053352
  0
VERTEX
  8
0
 10
235.141687
 20
331.336267
 42
0.055396
  0
VERTEX
  8
0
 10
233.089779
 20
328.250000
 42
-0.064387
  0
VERTEX
  8
0
 10
231.980005
 20
326.643966
 42
-0.218173
  0
VERTEX
  8
0
 10
230.839070
 20
326.150892
 42
-0.122420
  0
VERTEX
  8
0
 10
229.261270
 20
326.579613
 42
-0.015690
  0
VERTEX
  8
0
 10
226.228560
 20
328.398828
 42
0.017955
  0
VERTEX
  8
0
 10
224.515589
 20
329.415861
 42
0.011170
  0
VERTEX
  8
0
 10
222.440132
 20
330.489908
 42
0.011204
  0
VERTEX
  8
0
 10
220.342746
 20
331.458938
 42
0.019861
  0
VERTEX
  8
0
 10
218.567633
 20
332.148828
 42
-0.082340
  0
VERTEX
  8
0
 10
214.738445
 20
334.217285
 42
-0.021050
  0
VERTEX
  8
0
 10
209.338761
 20
338.780879
 42
-0.020307
  0
VERTEX
  8
0
 10
203.385483
 20
344.722041
 42
-0.016837
  0
VERTEX
  8
0
 10
197.534399
 20
351.500000
 42
0.019349
  0
VERTEX
  8
0
 10
191.527051
 20
358.388728
 42
0.016181
  0
VERTEX
  8
0
 10
184.646855
 20
365.230308
 42
0.016351
  0
VERTEX
  8
0
 10
177.986960
 20
371.042394
 42
0.046127
  0
VERTEX
  8
0
 10
172.868276
 20
374.489223
 42
0.030247
  0
VERTEX
  8
0
 10
169.273131
 20
376.181627
 42
0.051784
  0
VERTEX
  8
0
 10
166.086391
 20
377.084274
 42
0.028953
  0
VERTEX
  8
0
 10
161.701471
 20
377.589246
 42
0.003966
  0
VERTEX
  8
0
 10
152.500000
 20
378.038966
 42
-0.007068
  0
VERTEX
  8
0
 10
142.188485
 20
378.607089
 42
-0.042683
  0
VERTEX
  8
0
 10
136.897235
 20
379.431100
 42
-0.034474
  0
VERTEX
  8
0
 10
131.399530
 20
381.184435
 42
-0.003606
  0
VERTEX
  8
0
 10
118.856150
 20
386.265181
 42
0.044959
  0
VERTEX
  8
0
 10
117.301376
 20
386.749895
 42
0.137094
  0
VERTEX
  8
0
 10
116.207783
 20
386.684049
 42
0.104639
  0
VERTEX
  8
0
 10
115.135102
 20
386.039381
 42
0.020463
  0
VERTEX
  8
0
 10
113.541507
 20
384.429170
 42
0.076596
  0
VERTEX
  8
0
 10
108.546984
 20
376.911280
 42
0.069193
  0
VERTEX
  8
0
 10
105.827684
 20
367.973183
 42
0.055332
  0
VERTEX
  8
0
 10
105.312802
 20
356.937474
 42
0.027419
  0
VERTEX
  8
0
 10
106.975752
 20
343.000000
 42
-0.005592
  0
VERTEX
  8
0
 10
109.864560
 20
325.367639
 42
-0.034403
  0
VERTEX
  8
0
 10
110.621819
 20
316.201768
 42
-0.050332
  0
VERTEX
  8
0
 10
109.955575
 20
308.556708
 42
-0.020372
  0
VERTEX
  8
0
 10
107.585287
 20
298.352808
 42
0.047308
  0
VERTEX
  8
0
 10
106.833237
 20
294.085316
 42
0.055037
  0
VERTEX
  8
0
 10
106.957063
 20
289.969085
 42
0.047502
  0
VERTEX
  8
0
 10
108.023447
 20
285.514542
 42
0.024394
  0
VERTEX
  8
0
 10
110.147439
 20
280.176352
 42
0.017063
  0
VERTEX
  8
0
 10
111.917495
 20
276.617905
 42
0.020656
  0
VERTEX
  8
0
 10
113.824899
 20
273.414214
 42
0.012884
  0
VERTEX
  8
0
 10
116.610855
 20
269.377492
 42
0.002667
  0
VERTEX
  8
0
 10
121.731066
 20
262.430980
 42
-0.009877
  0
VERTEX
  8
0
 10
123.749186
 20
259.608718
 42
-0.013372
  0
VERTEX
  8
0
 10
125.452251
 20
256.976542
 42
-0.010329
  0
VERTEX
  8
0
 10
126.754763
 20
254.737505
 42
-0.127235
  0
VERTEX
  8
0
 10
127.000000
 20
253.789388
 42
-0.307548
  0
VERTEX
  8
0
 10
125.978954
 20
252.286421
 42
-0.056363
  0
VERTEX
  8
0
 10
122.562516
 20
251.360283
 42
-0.023733
  0
VERTEX
  8
0
 10
116.012655
 20
250.672277
 42
-0.003097
  0
VERTEX
  8
0
 10
102.000000
 20
249.956912
 42
0.012657
  0
VERTEX
  8
0
 10
82.768988
 20
248.606095
 42
0.064526
  0
VERTEX
  8
0
 10
72.336546
 20
246.225922
 42
0.096870
  0
VERTEX
  8
0
 10
64.944201
 20
241.730974
 42
0.048681
  0
VERTEX
  8
0
 10
57.597536
 20
233.588329
 42
-0.032452
  0
VERTEX
  8
0
 10
52.729941
 20
227.828648
 42
-0.039883
  0
VERTEX
  8
0
 10
47.460362
 20
223.164375
 42
-0.030692
  0
VERTEX
  8
0
 10
40.487553
 20
218.561543
 42
-0.010784
  0
VERTEX
  8
0
 10
29.959495
 20
212.802949
 42
0.007553
  0
VERTEX
  8
0
 10
20.636622
 20
207.781535
 42
0.016787
  0
VERTEX
  8
0
 10
13.730601
 20
203.616136
 42
0.021664
  0
VERTEX
  8
0
 10
8.420723
 20
199.828350
 42
0.031872
  0
VERTEX
  8
0
 10
4.138927
 20
196.022085
 42
0.013748
  0
VERTEX
  8
0
 10
1.627887
 20
193.342328
 42
0.055210
  0
VERTEX
  8
0
 10
0.334168
 20
191.511274
 42
0.186262
  0
VERTEX
  8
0
 10
0.193742
 20
190.488862
 42
0.347837
  0
VERTEX
  8
0
 10
0.811439
 20
190.000000
 42
-0.121553
  0
VERTEX
  8
0
 10
1.242562
 20
189.893619
 42
-0.022477
  0
VERTEX
  8
0
 10
1.953969
 20
189.477954
 42
-0.022935
  0
VERTEX
  8
0
 10
2.759745
 20
188.903198
 42
-0.019137
  0
VERTEX
  8
0
 10
3.561439
 20
188.222821
 42
0.030608
  0
VERTEX
  8
0
 10
7.435556
 20
185.084871
 42
0.019152
  0
VERTEX
  8
0
 10
12.314690
 20
181.879152
 42
0.011193
  0
VERTEX
  8
0
 10
19.620111
 20
177.690392
 42
0.002445
  0
VERTEX
  8
0
 10
32.392247
 20
170.823028
 42
-0.032980
  0
VERTEX
  8
0
 10
38.625156
 20
166.963899
 42
-0.028393
  0
VERTEX
  8
0
 10
44.632525
 20
162.134804
 42
-0.026968
  0
VERTEX
  8
0
 10
50.350179
 20
156.389798
 42
-0.023335
  0
VERTEX
  8
0
 10
55.715361
 20
149.787995
 42
0.070591
  0
VERTEX
  8
0
 10
61.847125
 20
143.548799
 42
0.083746
  0
VERTEX
  8
0
 10
69.144890
 20
139.693378
 42
0.053322
  0
VERTEX
  8
0
 10
79.737585
 20
137.409192
 42
0.013169
  0
VERTEX
  8
0
 10
97.486556
 20
135.995069
 42
-0.002207
  0
VERTEX
  8
0
 10
104.907079
 20
135.567294
 42
-0.003154
  0
VERTEX
  8
0
 10
111.487260
 20
135.117126
 42
-0.001735
  0
VERTEX
  8
0
 10
117.042440
 20
134.682476
 42
-0.047392
  0
VERTEX
  8
0
 10
118.486556
 20
134.425260
 42
-0.016746
  0
VERTEX
  8
0
 10
121.762819
 20
133.395738
 42
-0.039946
  0
VERTEX
  8
0
 10
124.092434
 20
132.361524
 42
-0.056932
  0
VERTEX
  8
0
 10
125.552493
 20
131.338022
 42
-0.214622
  0
VERTEX
  8
0
 10
126.000000
 20
130.343496
 42
-0.110310
  0
VERTEX
  8
0
 10
125.688904
 20
128.950563
 42
-0.018625
  0
VERTEX
  8
0
 10
124.429270
 20
126.511480
 42
-0.019893
  0
VERTEX
  8
0
 10
122.977369
 20
124.163110
 42
-0.086223
  0
VERTEX
  8
0
 10
121.846360
 20
122.986262
 42
0.105955
  0
VERTEX
  8
0
 10
120.104651
 20
121.026025
 42
0.007050
  0
VERTEX
  8
0
 10
116.466801
 20
114.386148
 42
0.010511
  0
VERTEX
  8
0
 10
113.087858
 20
107.669357
 42
0.039861
  0
VERTEX
  8
0
 10
111.409674
 20
103.282744
 42
0.020450
  0
VERTEX
  8
0
 10
110.596233
 20
100.026729
 42
0.061576
  0
VERTEX
  8
0
 10
110.411496
 20
97.748895
 42
0.048608
  0
VERTEX
  8
0
 10
110.766288
 20
95.216792
 42
0.009304
  0
VERTEX
  8
0
 10
111.938560
 20
90.718958
 42
-0.036299
  0
VERTEX
  8
0
 10
113.456265
 20
83.270141
 42
-0.036290
  0
VERTEX
  8
0
 10
113.880924
 20
75.679511
 42
-0.030039
  0
VERTEX
  8
0
 10
113.209488
 20
66.944940
 42
-0.014529
  0
VERTEX
  8
0
 10
111.358130
 20
55.883614
 42
0.009236
  0
VERTEX
  8
0
 10
110.180776
 20
49.279385
 42
0.011411
  0
VERTEX
  8
0
 10
109.338688
 20
43.085550
 42
0.012096
  0
VERTEX
  8
0
 10
108.818212
 20
37.194132
 42
0.013525
  0
VERTEX
  8
0
 10
108.608130
 20
31.500000
 42
0.006196
  0
VERTEX
  8
0
 10
108.625878
 20
24.575764
 42
0.042441
  0
VERTEX
  8
0
 10
108.965259
 20
21.186031
 42
0.059901
  0
VERTEX
  8
0
 10
109.841382
 20
18.396097
 42
0.019179
  0
VERTEX
  8
0
 10
111.782818
 20
14.500000
 42
0.017676
  0
VERTEX
  8
0
 10
113.332437
 20
11.891174
 42
0.011736
  0
VERTEX
  8
0
 10
115.283256
 20
9.007654
 42
0.011820
  0
VERTEX
  8
0
 10
117.311858
 20
6.293907
 42
0.022488
  0
VERTEX
  8
0
 10
119.089287
 20
4.228185
 42
0.000000
  0
VERTEX
  8
0
 10
123.112939
 20
-0.043631
 42
0.000000
  0
VERTEX
  8
0
 10
127.493988
 20
1.894316
 42
-0.034719
  0
VERTEX
  8
0
 10
132.845762
 20
3.830064
 42
-0.031247
  0
VERTEX
  8
0
 10
138.605184
 20
5.088850
 42
-0.026576
  0
VERTEX
  8
0
 10
145.291170
 20
5.756747
 42
-0.014690
  0
VERTEX
  8
0
 10
153.500000
 20
5.896697
 42
0.007269
  0
VERTEX
  8
0
 10
159.598318
 20
5.910150
 42
0.027612
  0
VERTEX
  8
0
 10
163.396905
 20
6.183940
 42
0.039945
  0
VERTEX
  8
0
 10
166.374379
 20
6.809262
 42
0.031563
  0
VERTEX
  8
0
 10
169.467324
 20
7.938142
 42
0.041439
  0
VERTEX
  8
0
 10
175.068690
 20
10.968412
 42
0.032124
  0
VERTEX
  8
0
 10
180.620296
 20
15.127368
 42
0.026079
  0
VERTEX
  8
0
 10
186.593652
 20
20.797093
 42
0.013246
  0
VERTEX
  8
0
 10
193.526534
 20
28.500000
 42
-0.006502
  0
VERTEX
  8
0
 10
202.141641
 20
38.335532
 42
-0.026693
  0
VERTEX
  8
0
 10
207.746204
 20
43.936421
 42
-0.040010
  0
VERTEX
  8
0
 10
212.689383
 20
47.707680
 42
-0.032064
  0
VERTEX
  8
0
 10
218.541637
 20
50.963047
 42
0.016607
  0
VERTEX
  8
0
 10
222.034915
 20
52.767238
 42
0.018680
  0
VERTEX
  8
0
 10
225.263019
 20
54.734467
 42
0.020138
  0
VERTEX
  8
0
 10
227.960954
 20
56.680716
 42
0.046297
  0
VERTEX
  8
0
 10
229.777865
 20
58.399784
 42
-0.009087
  0
VERTEX
  8
0
 10
231.034151
 20
59.779222
 42
-0.013305
  0
VERTEX
  8
0
 10
232.192935
 20
60.942436
 42
-0.008669
  0
VERTEX
  8
0
 10
233.190494
 20
61.859461
 42
-0.183525
  0
VERTEX
  8
0
 10
233.560484
 20
62.000000
 42
-0.153123
  0
VERTEX
  8
0
 10
233.950322
 20
61.877748
 42
-0.006712
  0
VERTEX
  8
0
 10
235.122012
 20
61.039155
 42
-0.010851
  0
VERTEX
  8
0
 10
236.494182
 20
59.982280
 42
-0.007482
  0
VERTEX
  8
0
 10
238.003455
 20
58.729038
 42
0.030965
  0
VERTEX
  8
0
 10
239.848533
 20
57.337910
 42
0.017006
  0
VERTEX
  8
0
 10
242.261026
 20
55.858414
 42
0.016896
  0
VERTEX
  8
0
 10
244.820783
 20
54.518226
 42
0.025839
  0
VERTEX
  8
0
 10
247.131117
 20
53.549965
 42
-0.065389
  0
VERTEX
  8
0
 10
251.697330
 20
51.197126
 42
-0.031548
  0
VERTEX
  8
0
 10
256.865995
 20
47.106786
 42
-0.023676
  0
VERTEX
  8
0
 10
262.969812
 20
41.070017
 42
-0.010247
  0
VERTEX
  8
0
 10
270.533219
 20
32.500000
 42
0.013152
  0
VERTEX
  8
0
 10
277.202324
 20
25.031227
 42
0.019662
  0
VERTEX
  8
0
 10
283.444976
 20
18.901400
 42
0.022748
  0
VERTEX
  8
0
 10
289.115636
 20
14.207135
 42
0.047330
  0
VERTEX
  8
0
 10
294.000000
 20
11.203120
 42
0.030744
  0
VERTEX
  8
0
 10
297.627611
 20
9.689291
 42
0.043721
  0
VERTEX
  8
0
 10
301.013788
 20
8.837337
 42
0.025671
  0
VERTEX
  8
0
 10
305.634006
 20
8.337509
 42
0.004345
  0
VERTEX
  8
0
 10
314.500000
 20
7.913890
 42
-0.004788
  0
VERTEX
  8
0
 10
323.588286
 20
7.471577
 42
-0.027111
  0
VERTEX
  8
0
 10
328.405513
 20
6.927762
 42
-0.039550
  0
VERTEX
  8
0
 10
332.305977
 20
5.949739
 42
-0.017866
  0
VERTEX
  8
0
 10
337.242268
 20
4.089077
 42
0.010461
  0
VERTEX
  8
0
 10
340.330542
 20
2.872478
 42
0.013658
  0
VERTEX
  8
0
 10
343.205740
 20
1.897166
 42
0.011241
  0
VERTEX
  8
0
 10
345.623999
 20
1.209010
 42
0.111714
  0
VERTEX
  8
0
 10
346.671329
 20
1.175220
 42
0.183202
  0
VERTEX
  8
0
 10
348.761330
 20
2.464210
 42
0.014564
  0
VERTEX
  8
0
 10
352.641861
 20
7.824122
 42
0.020246
  0
VERTEX
  8
0
 10
356.195187
 20
13.529300
 42
0.061493
  0
VERTEX
  8
0
 10
357.945305
 20
17.742345
 42
0.057226
  0
VERTEX
  8
0
 10
358.885282
 20
23.697283
 42
0.021389
  0
VERTEX
  8
0
 10
358.880676
 20
32.171198
 42
0.019548
  0
VERTEX
  8
0
 10
358.062106
 20
42.081958
 42
0.015588
  0
VERTEX
  8
0
 10
356.430860
 20
52.683428
 42
-0.019335
  0
VERTEX
  8
0
 10
354.797449
 20
63.855033
 42
-0.026394
  0
VERTEX
  8
0
 10
354.251049
 20
74.012461
 42
-0.029560
  0
VERTEX
  8
0
 10
354.779173
 20
83.086129
 42
-0.042269
  0
VERTEX
  8
0
 10
356.393912
 20
90.981753
 42
0.015410
  0
VERTEX
  8
0
 10
357.256729
 20
94.286286
 42
0.055214
  0
VERTEX
  8
0
 10
357.505147
 20
96.450861
 42
0.055802
  0
VERTEX
  8
0
 10
357.272527
 20
98.605644
 42
0.015972
  0
VERTEX
  8
0
 10
356.436894
 20
101.865074
 42
0.031732
  0
VERTEX
  8
0
 10
354.812152
 20
106.366987
 42
0.015376
  0
VERTEX
  8
0
 10
352.200846
 20
111.905943
 42
0.014174
  0
VERTEX
  8
0
 10
349.392436
 20
117.051139
 42
0.061080
  0
VERTEX
  8
0
 10
347.286486
 20
119.821429
 42
-0.025483
  0
VERTEX
  8
0
 10
346.794083
 20
120.381664
 42
-0.028047
  0
VERTEX
  8
0
 10
346.377905
 20
120.972065
 42
-0.029057
  0
VERTEX
  8
0
 10
346.083424
 20
121.511322
 42
-0.110886
  0
VERTEX
  8
0
 10
346.000000
 20
121.882867
 42
0.127031
  0
VERTEX
  8
0
 10
345.896667
 20
122.283026
 42
0.020603
  0
VERTEX
  8
0
 10
345.475659
 20
122.974952
 42
0.021590
  0
VERTEX
  8
0
 10
344.898439
 20
123.764982
 42
0.017506
  0
VERTEX
  8
0
 10
344.215010
 20
124.561439
 42
-0.020039
  0
VERTEX
  8
0
 10
342.228489
 20
126.900364
 42
-0.023322
  0
VERTEX
  8
0
 10
340.539793
 20
129.278853
 42
-0.022855
  0
VERTEX
  8
0
 10
339.315782
 20
131.391768
 42
-0.120417
  0
VERTEX
  8
0
 10
339.000000
 20
132.683962
 42
-0.335423
  0
VERTEX
  8
0
 10
340.133765
 20
134.183872
 42
-0.029396
  0
VERTEX
  8
0
 10
345.087032
 20
135.278533
 42
-0.021788
  0
VERTEX
  8
0
 10
353.002687
 20
136.194122
 42
-0.005792
  0
VERTEX
  8
0
 10
365.690100
 20
136.956326
 42
0.011659
  0
VERTEX
  8
0
 10
384.107135
 20
138.279800
 42
0.053928
  0
VERTEX
  8
0
 10
394.551952
 20
140.427623
 42
0.087280
  0
VERTEX
  8
0
 10
401.709964
 20
144.196843
 42
0.065318
  0
VERTEX
  8
0
 10
408.000000
 20
150.535508
 42
-0.020153
  0
VERTEX
  8
0
 10
413.429137
 20
157.094903
 42
-0.031490
  0
VERTEX
  8
0
 10
418.658143
 20
162.227959
 42
-0.031763
  0
VERTEX
  8
0
 10
424.456357
 20
166.632802
 42
-0.020976
  0
VERTEX
  8
0
 10
431.618539
 20
170.967235
 42
0.006106
  0
VERTEX
  8
0
 10
442.137783
 20
176.913400
 42
0.008515
  0
VERTEX
  8
0
 10
451.389236
 20
182.505995
 42
0.009044
  0
VERTEX
  8
0
 10
458.838824
 20
187.374454
 42
0.034458
  0
VERTEX
  8
0
 10
463.203464
 20
190.802782
 42
0.054793
  0
VERTEX
  8
0
 10
466.453792
 20
194.459665
 42
0.238406
  0
VERTEX
  8
0
 10
466.871404
 20
197.240630
 42
0.150056
  0
VERTEX
  8
0
 10
464.846026
 20
200.096280
 42
0.019586
  0
VERTEX
  8
0
 10
458.692462
 20
204.459986
 42
0.005626
  0
VERTEX
  8
0
 10
455.040968
 20
206.782030
 42
0.004102
  0
VERTEX
  8
0
 10
450.932791
 20
209.283597
 42
0.004144
  0
VERTEX
  8
0
 10
446.998002
 20
211.591510
 42
0.009100
  0
VERTEX
  8
0
 10
443.942462
 20
213.276569
 42
-0.015125
  0
VERTEX
  8
0
 10
432.683095
 20
219.663942
 42
-0.032181
  0
VERTEX
  8
0
 10
424.482499
 20
225.402967
 42
-0.041606
  0
VERTEX
  8
0
 10
418.618991
 20
230.954962
 42
-0.063150
  0
VERTEX
  8
0
 10
414.640505
 20
236.728293
 42
0.068782
  0
VERTEX
  8
0
 10
412.073614
 20
240.365225
 42
0.037038
  0
VERTEX
  8
0
 10
408.031775
 20
244.091586
 42
0.036590
  0
VERTEX
  8
0
 10
403.361773
 20
247.270218
 42
0.054913
  0
VERTEX
  8
0
 10
398.853881
 20
249.255043
 42
0.025195
  0
VERTEX
  8
0
 10
393.041001
 20
250.768229
 42
0.016544
  0
VERTEX
  8
0
 10
386.223795
 20
251.946880
 42
0.015998
  0
VERTEX
  8
0
 10
379.014575
 20
252.714834
 42
0.017621
  0
VERTEX
  8
0
 10
372.000000
 20
252.987781
 42
-0.021167
  0
VERTEX
  8
0
 10
360.222795
 20
253.529685
 42
-0.029436
  0
VERTEX
  8
0
 10
349.781663
 20
255.077433
 42
-0.027556
  0
VERTEX
  8
0
 10
341.783970
 20
257.214563
 42
-0.324352
  0
VERTEX
  8
0
 10
340.000000
 20
259.675302
 42
-0.097417
  0
VERTEX
  8
0
 10
340.150231
 20
260.439061
 42
-0.022254
  0
VERTEX
  8
0
 10
340.705381
 20
261.640202
 42
-0.022202
  0
VERTEX
  8
0
 10
341.482113
 20
262.991030
 42
-0.020013
  0
VERTEX
  8
0
 10
342.401297
 20
264.316722
 42
0.020617
  0
VERTEX
  8
0
 10
345.410449
 20
268.667883
 42
0.016732
  0
VERTEX
  8
0
 10
348.279970
 20
273.561341
 42
0.017086
  0
VERTEX
  8
0
 10
350.727445
 20
278.467550
 42
0.026976
  0
VERTEX
  8
0
 10
352.448003
 20
282.843451
 42
0.019738
  0
VERTEX
  8
0
 10
353.426600
 20
286.231180
 42
0.067007
  0
VERTEX
  8
0
 10
353.673765
 20
288.512443
 42
0.048885
  0
VERTEX
  8
0
 10
353.349201
 20
291.125374
 42
0.007117
  0
VERTEX
  8
0
 10
352.098572
 20
296.337205
 42
-0.025904
  0
VERTEX
  8
0
 10
350.565056
 20
303.982983
 42
-0.043159
  0
VERTEX
  8
0
 10
350.172276
 20
310.534206
 42
-0.032154
  0
VERTEX
  8
0
 10
350.876129
 20
318.276121
 42
-0.008540
  0
VERTEX
  8
0
 10
353.000000
 20
330.500000
 42
0.013699
  0
VERTEX
  8
0
 10
355.120221
 20
343.496483
 42
0.026442
  0
VERTEX
  8
0
 10
355.977484
 20
353.998982
 42
0.033248
  0
VERTEX
  8
0
 10
355.657524
 20
362.437027
 42
0.064777
  0
VERTEX
  8
0
 10
354.099730
 20
368.979650
 42
0.058523
  0
VERTEX
  8
0
 10
351.699583
 20
373.589530
 42
0.015180
  0
VERTEX
  8
0
 10
346.780212
 20
380.374931
 42
0.008244
  0
VERTEX
  8
0
 10
341.435911
 20
387.063395
 42
0.244713
  0
VERTEX
  8
0
 10
339.500000
 20
387.882260
 42
0.047414
  0
VERTEX
  8
0
 10
338.884258
 20
387.773655
 42
0.004943
  0
VERTEX
  8
0
 10
337.471875
 20
387.368698
 42
0.006099
  0
VERTEX
  8
0
 10
335.796350
 20
386.847989
 42
0.004848
  0
SEQEND
  0
ENDSEC
  0
EOF
