  0
SECTION
  2
HEADER
  9
$ACADVER
  1
AC1006
  9
$EXTMIN
 10
0.000000
 20
0.000000
 30
0.000000
  9
$EXTMAX
 10
396.000000
 20
402.000000
 30
0.000000
  0
ENDSEC
  0
SECTION
  2
ENTITIES
  0
POLYLINE
  8
0
 66
1
 70
1
  0
VERTEX
  8
0
 10
197.906165
 20
398.883098
 42
-0.084461
  0
VERTEX
  8
0
 10
205.514704
 20
378.939372
 42
-0.049049
  0
VERTEX
  8
0
 10
208.027397
 20
353.360049
 42
-0.042163
  0
VERTEX
  8
0
 10
205.505174
 20
323.538697
 42
-0.029774
  0
VERTEX
  8
0
 10
197.895168
 20
290.768886
 42
-0.004382
  0
VERTEX
  8
0
 10
196.675984
 20
286.777807
 42
-0.006408
  0
VERTEX
  8
0
 10
195.527074
 20
283.288128
 42
-0.003360
  0
VERTEX
  8
0
 10
194.500255
 20
280.362955
 42
-0.107122
  0
VERTEX
  8
0
 10
194.100804
 20
279.722613
 42
-0.566432
  0
VERTEX
  8
0
 10
192.637680
 20
280.066921
 42
-0.002675
  0
VERTEX
  8
0
 10
187.001929
 20
298.057118
 42
-0.008813
  0
VERTEX
  8
0
 10
182.018171
 20
315.349114
 42
-0.026388
  0
VERTEX
  8
0
 10
179.451851
 20
327.376720
 42
0.003119
  0
VERTEX
  8
0
 10
179.180992
 20
329.016629
 42
0.002679
  0
VERTEX
  8
0
 10
178.876067
 20
330.738368
 42
0.002698
  0
VERTEX
  8
0
 10
178.582414
 20
332.298563
 42
0.007758
  0
VERTEX
  8
0
 10
178.356048
 20
333.376720
 42
-0.046883
  0
VERTEX
  8
0
 10
177.547148
 20
339.623783
 42
-0.006270
  0
VERTEX
  8
0
 10
177.247740
 20
352.910931
 42
-0.007187
  0
VERTEX
  8
0
 10
177.306167
 20
366.236474
 42
-0.031619
  0
VERTEX
  8
0
 10
177.949565
 20
374.067657
 42
-0.018522
  0
VERTEX
  8
0
 10
179.018377
 20
379.867787
 42
-0.009836
  0
VERTEX
  8
0
 10
180.747534
 20
386.966347
 42
-0.009827
  0
VERTEX
  8
0
 10
182.771405
 20
394.050881
 42
-0.017125
  0
VERTEX
  8
0
 10
184.763613
 20
399.826370
 42
0.443632
  0
VERTEX
  8
0
 10
184.355209
 20
400.632996
 42
0.074370
  0
VERTEX
  8
0
 10
182.413003
 20
400.864336
 42
0.022337
  0
VERTEX
  8
0
 10
178.215157
 20
400.550673
 42
0.002379
  0
VERTEX
  8
0
 10
168.500000
 20
399.339712
 42
0.026190
  0
VERTEX
  8
0
 10
155.687855
 20
396.993292
 42
0.018195
  0
VERTEX
  8
0
 10
141.502412
 20
393.069095
 42
0.017615
  0
VERTEX
  8
0
 10
127.035899
 20
387.927359
 42
0.019079
  0
VERTEX
  8
0
 10
113.354737
 20
381.901593
 42
0.041761
  0
VERTEX
  8
0
 10
85.034277
 20
365.059758
 42
0.041367
  0
VERTEX
  8
0
 10
59.809366
 20
343.697953
 42
0.041507
  0
VERTEX
  8
0
 10
38.521703
 20
318.551103
 42
0.042686
  0
VERTEX
  8
0
 10
21.903516
 20
290.458996
 42
0.020479
  0
VERTEX
  8
0
 10
13.337170
 20
270.636714
 42
0.026756
  0
VERTEX
  8
0
 10
7.248618
 20
251.853717
 42
0.027792
  0
VERTEX
  8
0
 10
3.367512
 20
233.130738
 42
0.025320
  0
VERTEX
  8
0
 10
1.433586
 20
213.500000
 42
-0.000747
  0
VERTEX
  8
0
 10
1.194726
 20
208.635521
 42
-0.000831
  0
VERTEX
  8
0
 10
0.949433
 20
203.942409
 42
-0.000767
  0
VERTEX
  8
0
 10
0.727487
 20
199.941309
 42
-0.004363
  0
VERTEX
  8
0
 10
0.587616
 20
197.814585
 42
0.000000
  0
VERTEX
  8
0
 10
0.312917
 20
194.129170
 42
0.000000
  0
VERTEX
  8
0
 10
5.906458
 20
196.934180
 42
-0.070385
  0
VERTEX
  8
0
 10
20.499539
 20
201.839703
 42
-0.032745
  0
VERTEX
  8
0
 10
40.376581
 20
204.201840
 42
-0.027933
  0
VERTEX
  8
0
 10
64.426643
 20
204.128880
 42
-0.018346
  0
VERTEX
  8
0
 10
92.000000
 20
201.485601
 42
-0.001905
  0
VERTEX
  8
0
 10
105.060098
 20
199.697477
 42
-0.009151
  0
VERTEX
  8
0
 10
112.475985
 20
198.514544
 42
-0.009090
  0
VERTEX
  8
0
 10
117.145849
 20
197.593845
 42
-0.604961
  0
VERTEX
  8
0
 10
117.318283
 20
196.970404
 42
-0.111384
  0
VERTEX
  8
0
 10
115.268837
 20
195.767780
 42
-0.002357
  0
VERTEX
  8
0
 10
104.004773
 20
192.232817
 42
-0.005963
  0
VERTEX
  8
0
 10
91.958608
 20
188.671459
 42
-0.006983
  0
VERTEX
  8
0
 10
80.447142
 20
185.589880
 42
-0.007045
  0
VERTEX
  8
0
 10
64.785311
 20
181.864763
 42
-0.019753
  0
VERTEX
  8
0
 10
53.693397
 20
179.847315
 42
-0.022650
  0
VERTEX
  8
0
 10
43.354939
 20
178.860894
 42
-0.012047
  0
VERTEX
  8
0
 10
30.500000
 20
178.529951
 42
-0.003241
  0
VERTEX
  8
0
 10
19.887997
 20
178.581268
 42
-0.025688
  0
VERTEX
  8
0
 10
14.988049
 20
178.888804
 42
-0.046300
  0
VERTEX
  8
0
 10
11.357916
 20
179.649571
 42
-0.024782
  0
VERTEX
  8
0
 10
7.048487
 20
181.216142
 42
0.003643
  0
VERTEX
  8
0
 10
4.561263
 20
182.241257
 42
0.005951
  0
VERTEX
  8
0
 10
2.436086
 20
183.069819
 42
0.001497
  0
VERTEX
  8
0
 10
0.584899
 20
183.759976
 42
0.309180
  0
VERTEX
  8
0
 10
0.406269
 20
183.715153
 42
0.233237
  0
VERTEX
  8
0
 10
0.204999
 20
182.979181
 42
0.000395
  0
VERTEX
  8
0
 10
2.783296
 20
169.724621
 42
0.003141
  0
VERTEX
  8
0
 10
5.198711
 20
157.759426
 42
0.011127
  0
VERTEX
  8
0
 10
6.966903
 20
150.129629
 42
0.032813
  0
VERTEX
  8
0
 10
14.180471
 20
128.035693
 42
0.025557
  0
VERTEX
  8
0
 10
24.767970
 20
105.088928
 42
0.025949
  0
VERTEX
  8
0
 10
37.356000
 20
83.862291
 42
0.039477
  0
VERTEX
  8
0
 10
50.596395
 20
67.014644
 42
0.016920
  0
VERTEX
  8
0
 10
65.893097
 20
51.515550
 42
0.025973
  0
VERTEX
  8
0
 10
80.238879
 20
39.279438
 42
0.027263
  0
VERTEX
  8
0
 10
95.234626
 20
29.025738
 42
0.021533
  0
VERTEX
  8
0
 10
112.466238
 20
19.563204
 42
0.019128
  0
VERTEX
  8
0
 10
126.497534
 20
13.282541
 42
0.018673
  0
VERTEX
  8
0
 10
141.079601
 20
8.037556
 42
0.019264
  0
VERTEX
  8
0
 10
155.490329
 20
4.058377
 42
0.024819
  0
VERTEX
  8
0
 10
169.000000
 20
1.582418
 42
0.012041
  0
VERTEX
  8
0
 10
175.766081
 20
0.851887
 42
0.007806
  0
VERTEX
  8
0
 10
183.619334
 20
0.318139
 42
0.001759
  0
VERTEX
  8
0
 10
191.531957
 20
-0.067759
 42
0.427519
  0
VERTEX
  8
0
 10
192.000000
 20
0.379586
 42
0.114592
  0
VERTEX
  8
0
 10
191.903011
 20
0.797223
 42
0.007058
  0
VERTEX
  8
0
 10
191.321023
 20
1.941548
 42
0.010184
  0
VERTEX
  8
0
 10
190.574008
 20
3.292924
 42
0.007352
  0
VERTEX
  8
0
 10
189.688588
 20
4.769872
 42
-0.073823
  0
VERTEX
  8
0
 10
184.916543
 20
15.828836
 42
-0.044885
  0
VERTEX
  8
0
 10
182.499028
 20
29.888523
 42
-0.040193
  0
VERTEX
  8
0
 10
182.495355
 20
45.937829
 42
-0.032452
  0
VERTEX
  8
0
 10
184.986744
 20
63.000000
 42
-0.015740
  0
VERTEX
  8
0
 10
187.136401
 20
71.733136
 42
-0.004453
  0
VERTEX
  8
0
 10
191.030408
 20
85.187079
 42
-0.002308
  0
VERTEX
  8
0
 10
195.210286
 20
98.930093
 42
-0.060924
  0
VERTEX
  8
0
 10
196.782101
 20
102.435034
 42
-0.612638
  0
VERTEX
  8
0
 10
197.564299
 20
102.378783
 42
-0.008586
  0
VERTEX
  8
0
 10
199.809252
 20
96.798890
 42
-0.012889
  0
VERTEX
  8
0
 10
202.376621
 20
89.530976
 42
-0.007510
  0
VERTEX
  8
0
 10
205.098300
 20
80.694012
 42
-0.032106
  0
VERTEX
  8
0
 10
209.977914
 20
58.827688
 42
-0.043792
  0
VERTEX
  8
0
 10
211.346199
 20
38.689573
 42
-0.047730
  0
VERTEX
  8
0
 10
209.194272
 20
20.071894
 42
-0.051960
  0
VERTEX
  8
0
 10
203.563572
 20
2.750000
 42
0.275017
  0
VERTEX
  8
0
 10
203.673149
 20
1.830794
 42
0.188074
  0
VERTEX
  8
0
 10
204.596862
 20
1.272589
 42
0.039781
  0
VERTEX
  8
0
 10
207.081181
 20
1.042743
 42
0.003216
  0
VERTEX
  8
0
 10
213.643011
 20
1.001367
 42
0.056537
  0
VERTEX
  8
0
 10
241.316536
 20
4.144088
 42
0.039977
  0
VERTEX
  8
0
 10
271.168920
 20
13.573320
 42
0.038939
  0
VERTEX
  8
0
 10
300.087092
 20
28.034086
 42
0.044746
  0
VERTEX
  8
0
 10
325.004238
 20
46.238409
 42
0.034779
  0
VERTEX
  8
0
 10
348.156595
 20
69.601500
 42
0.040637
  0
VERTEX
  8
0
 10
366.552034
 20
94.825608
 42
0.041025
  0
VERTEX
  8
0
 10
380.489640
 20
122.477471
 42
0.036678
  0
VERTEX
  8
0
 10
390.344776
 20
153.080354
 42
0.017547
  0
VERTEX
  8
0
 10
392.487365
 20
163.482588
 42
0.010642
  0
VERTEX
  8
0
 10
394.325170
 20
175.915051
 42
0.010021
  0
VERTEX
  8
0
 10
395.566880
 20
187.648233
 42
0.038251
  0
VERTEX
  8
0
 10
395.632543
 20
195.000000
 42
-0.003314
  0
VERTEX
  8
0
 10
395.480540
 20
197.492682
 42
-0.001992
  0
VERTEX
  8
0
 10
395.331554
 20
200.452675
 42
-0.001995
  0
VERTEX
  8
0
 10
395.206867
 20
203.397427
 42
-0.003483
  0
VERTEX
  8
0
 10
395.130274
 20
205.838894
 42
0.000000
  0
VERTEX
  8
0
 10
395.000000
 20
211.177787
 42
0.000000
  0
VERTEX
  8
0
 10
391.750000
 20
208.431451
 42
-0.110169
  0
VERTEX
  8
0
 10
378.085142
 20
201.280043
 42
-0.047415
  0
VERTEX
  8
0
 10
357.691789
 20
197.822701
 42
-0.037326
  0
VERTEX
  8
0
 10
331.327525
 20
197.860654
 42
-0.020044
  0
VERTEX
  8
0
 10
299.000000
 20
201.632128
 42
-0.006652
  0
VERTEX
  8
0
 10
289.601074
 20
203.240931
 42
-0.003668
  0
VERTEX
  8
0
 10
278.152942
 20
205.444589
 42
-0.000690
  0
VERTEX
  8
0
 10
266.304290
 20
207.832615
 42
-0.147337
  0
VERTEX
  8
0
 10
265.288595
 20
208.378071
 42
-0.587056
  0
VERTEX
  8
0
 10
265.469897
 20
209.017472
 42
-0.000619
  0
VERTEX
  8
0
 10
282.889205
 20
213.124862
 42
-0.004276
  0
VERTEX
  8
0
 10
299.408759
 20
216.849765
 42
-0.008627
  0
VERTEX
  8
0
 10
312.500000
 20
219.448620
 42
-0.005839
  0
VERTEX
  8
0
 10
326.955862
 20
221.886054
 42
-0.017208
  0
VERTEX
  8
0
 10
336.961579
 20
223.102202
 42
-0.018308
  0
VERTEX
  8
0
 10
346.686321
 20
223.588142
 42
-0.007355
  0
VERTEX
  8
0
 10
360.000000
 20
223.569571
 42
-0.004061
  0
VERTEX
  8
0
 10
369.934861
 20
223.328833
 42
-0.014974
  0
VERTEX
  8
0
 10
376.201868
 20
222.937926
 42
-0.022963
  0
VERTEX
  8
0
 10
380.854641
 20
222.290979
 42
-0.028315
  0
VERTEX
  8
0
 10
385.107952
 20
221.247002
 42
-0.005623
  0
VERTEX
  8
0
 10
387.781951
 20
220.394714
 42
-0.006184
  0
VERTEX
  8
0
 10
390.352263
 20
219.508096
 42
-0.005797
  0
VERTEX
  8
0
 10
392.529132
 20
218.698328
 42
-0.030929
  0
VERTEX
  8
0
 10
393.681674
 20
218.170363
 42
0.206899
  0
VERTEX
  8
0
 10
394.679285
 20
218.087013
 42
0.315199
  0
VERTEX
  8
0
 10
395.175705
 20
218.760160
 42
0.040444
  0
VERTEX
  8
0
 10
395.047191
 20
221.048559
 42
0.001837
  0
VERTEX
  8
0
 10
393.945526
 20
228.831302
 42
0.026658
  0
VERTEX
  8
0
 10
389.519002
 20
250.940934
 42
0.026465
  0
VERTEX
  8
0
 10
382.756944
 20
272.508861
 42
0.026732
  0
VERTEX
  8
0
 10
373.834394
 20
293.027337
 42
0.028608
  0
VERTEX
  8
0
 10
362.950172
 20
312.000000
 42
0.029757
  0
VERTEX
  8
0
 10
350.095066
 20
329.354726
 42
0.026288
  0
VERTEX
  8
0
 10
334.757064
 20
345.832122
 42
0.026193
  0
VERTEX
  8
0
 10
317.709613
 20
360.671414
 42
0.028925
  0
VERTEX
  8
0
 10
299.739547
 20
373.125730
 42
0.029633
  0
VERTEX
  8
0
 10
278.149008
 20
384.613353
 42
0.034018
  0
VERTEX
  8
0
 10
256.307599
 20
392.877290
 42
0.032459
  0
VERTEX
  8
0
 10
232.683856
 20
398.378980
 42
0.023157
  0
VERTEX
  8
0
 10
205.705195
 20
401.566614
 42
0.000000
  0
VERTEX
  8
0
 10
195.910391
 20
402.266197
 42
0.000000
  0
SEQEND
  0
ENDSEC
  0
EOF
