  0
SECTION
  2
HEADER
  9
$ACADVER
  1
AC1006
  9
$EXTMIN
 10
0.000000
 20
0.000000
 30
0.000000
  9
$EXTMAX
 10
509.000000
 20
490.000000
 30
0.000000
  0
ENDSEC
  0
SECTION
  2
ENTITIES
  0
POLYLINE
  8
0
 66
1
 70
1
  0
VERTEX
  8
0
 10
171.881579
 20
481.300891
 42
0.000936
  0
VERTEX
  8
0
 10
171.841980
 20
477.882301
 42
0.001405
  0
VERTEX
  8
0
 10
171.821393
 20
474.898962
 42
0.000559
  0
VERTEX
  8
0
 10
171.813781
 20
472.338665
 42
0.031776
  0
VERTEX
  8
0
 10
171.842983
 20
471.865789
 42
-0.023157
  0
VERTEX
  8
0
 10
171.879302
 20
471.406427
 42
-0.000636
  0
VERTEX
  8
0
 10
171.942135
 20
469.401052
 42
-0.001312
  0
VERTEX
  8
0
 10
172.006838
 20
467.042524
 42
-0.000899
  0
VERTEX
  8
0
 10
172.068427
 20
464.365789
 42
0.021603
  0
VERTEX
  8
0
 10
172.544858
 20
456.978562
 42
0.012756
  0
VERTEX
  8
0
 10
173.718198
 20
448.216129
 42
0.010614
  0
VERTEX
  8
0
 10
175.194758
 20
440.095013
 42
0.070056
  0
VERTEX
  8
0
 10
176.571836
 20
436.213969
 42
-0.022248
  0
VERTEX
  8
0
 10
177.114259
 20
435.050814
 42
-0.019905
  0
VERTEX
  8
0
 10
177.573584
 20
433.800502
 42
-0.020373
  0
VERTEX
  8
0
 10
177.895500
 20
432.644168
 42
-0.056845
  0
VERTEX
  8
0
 10
177.993839
 20
431.809017
 42
0.049384
  0
VERTEX
  8
0
 10
178.064608
 20
431.119869
 42
0.047246
  0
VERTEX
  8
0
 10
178.269340
 20
430.447180
 42
0.050920
  0
VERTEX
  8
0
 10
178.568732
 20
429.888055
 42
0.106362
  0
VERTEX
  8
0
 10
178.923063
 20
429.547549
 42
-0.122871
  0
VERTEX
  8
0
 10
179.321646
 20
429.138718
 42
-0.027635
  0
VERTEX
  8
0
 10
179.767792
 20
428.266763
 42
-0.027053
  0
VERTEX
  8
0
 10
180.183422
 20
427.174442
 42
-0.023326
  0
VERTEX
  8
0
 10
180.502519
 20
425.988532
 42
0.020267
  0
VERTEX
  8
0
 10
180.803126
 20
424.843476
 42
0.030571
  0
VERTEX
  8
0
 10
181.164798
 20
423.877881
 42
0.030880
  0
VERTEX
  8
0
 10
181.534559
 20
423.169792
 42
0.262761
  0
VERTEX
  8
0
 10
181.835344
 20
423.000000
 42
-0.236145
  0
VERTEX
  8
0
 10
182.169424
 20
422.832899
 42
-0.021746
  0
VERTEX
  8
0
 10
182.707923
 20
422.045313
 42
-0.024407
  0
VERTEX
  8
0
 10
183.291805
 20
420.995157
 42
-0.016618
  0
VERTEX
  8
0
 10
183.855940
 20
419.750000
 42
0.008530
  0
VERTEX
  8
0
 10
184.618001
 20
417.992926
 42
0.002047
  0
VERTEX
  8
0
 10
185.943933
 20
415.104687
 42
0.002102
  0
VERTEX
  8
0
 10
187.493826
 20
411.801172
 42
0.002081
  0
VERTEX
  8
0
 10
189.076454
 20
408.500000
 42
-0.012700
  0
VERTEX
  8
0
 10
190.676131
 20
404.973030
 42
-0.009308
  0
VERTEX
  8
0
 10
192.277195
 20
400.985239
 42
-0.009417
  0
VERTEX
  8
0
 10
193.652504
 20
397.150340
 42
-0.020529
  0
VERTEX
  8
0
 10
194.529207
 20
394.151879
 42
0.005120
  0
VERTEX
  8
0
 10
195.190633
 20
391.600320
 42
0.005915
  0
VERTEX
  8
0
 10
195.874454
 20
389.183279
 42
0.005330
  0
VERTEX
  8
0
 10
196.499125
 20
387.150949
 42
0.034258
  0
VERTEX
  8
0
 10
196.895103
 20
386.151879
 42
-0.000197
  0
VERTEX
  8
0
 10
197.342676
 20
385.214462
 42
-0.000038
  0
VERTEX
  8
0
 10
198.152403
 20
383.516489
 42
-0.000040
  0
VERTEX
  8
0
 10
199.096767
 20
381.535387
 42
-0.000037
  0
VERTEX
  8
0
 10
200.066621
 20
379.500000
 42
0.009973
  0
VERTEX
  8
0
 10
201.212842
 20
377.212660
 42
0.005426
  0
VERTEX
  8
0
 10
202.706588
 20
374.447813
 42
0.005404
  0
VERTEX
  8
0
 10
204.287154
 20
371.667972
 42
0.008534
  0
VERTEX
  8
0
 10
205.708774
 20
369.322341
 42
-0.012983
  0
VERTEX
  8
0
 10
208.760700
 20
364.184173
 42
-0.003949
  0
VERTEX
  8
0
 10
213.118110
 20
356.247900
 42
-0.001005
  0
VERTEX
  8
0
 10
217.703282
 20
347.697042
 42
-0.123166
  0
VERTEX
  8
0
 10
218.000000
 20
346.510767
 42
-0.401386
  0
VERTEX
  8
0
 10
217.476671
 20
345.963893
 42
-0.093638
  0
VERTEX
  8
0
 10
216.092369
 20
346.162838
 42
-0.055346
  0
VERTEX
  8
0
 10
214.161158
 20
347.072131
 42
-0.037236
  0
VERTEX
  8
0
 10
212.182369
 20
348.500000
 42
0.017306
  0
VERTEX
  8
0
 10
210.961495
 20
349.457143
 42
0.020904
  0
VERTEX
  8
0
 10
209.750041
 20
350.265625
 42
0.020054
  0
VERTEX
  8
0
 10
208.690301
 20
350.853652
 42
0.117151
  0
VERTEX
  8
0
 10
208.074259
 20
351.000000
 42
-0.110490
  0
VERTEX
  8
0
 10
207.598482
 20
351.106437
 42
-0.066221
  0
VERTEX
  8
0
 10
207.109467
 20
351.421555
 42
-0.061304
  0
VERTEX
  8
0
 10
206.681901
 20
351.886381
 42
-0.063788
  0
VERTEX
  8
0
 10
206.386538
 20
352.435081
 42
0.195834
  0
VERTEX
  8
0
 10
204.247019
 20
354.717100
 42
0.007080
  0
VERTEX
  8
0
 10
193.109982
 20
359.646353
 42
0.013770
  0
VERTEX
  8
0
 10
181.767966
 20
364.110681
 42
0.034230
  0
VERTEX
  8
0
 10
173.197619
 20
366.565976
 42
-0.027151
  0
VERTEX
  8
0
 10
170.776635
 20
367.222654
 42
-0.007824
  0
VERTEX
  8
0
 10
167.112110
 20
368.497565
 42
-0.007901
  0
VERTEX
  8
0
 10
163.050087
 20
370.055611
 42
-0.008745
  0
VERTEX
  8
0
 10
159.175562
 20
371.691673
 42
0.019371
  0
VERTEX
  8
0
 10
157.687587
 20
372.283060
 42
0.013346
  0
VERTEX
  8
0
 10
155.961415
 20
372.841475
 42
0.013476
  0
VERTEX
  8
0
 10
154.269553
 20
373.290160
 42
0.026605
  0
VERTEX
  8
0
 10
152.902145
 20
373.537696
 42
-0.018049
  0
VERTEX
  8
0
 10
151.683160
 20
373.736896
 42
-0.017093
  0
VERTEX
  8
0
 10
150.459120
 20
374.026416
 42
-0.017335
  0
VERTEX
  8
0
 10
149.394619
 20
374.356997
 42
-0.055736
  0
VERTEX
  8
0
 10
148.726583
 20
374.677335
 42
0.022379
  0
VERTEX
  8
0
 10
148.183748
 20
374.983644
 42
0.017219
  0
VERTEX
  8
0
 10
147.566559
 20
375.270108
 42
0.017520
  0
VERTEX
  8
0
 10
146.969940
 20
375.498144
 42
0.039154
  0
VERTEX
  8
0
 10
146.500000
 20
375.619029
 42
-0.011833
  0
VERTEX
  8
0
 10
145.831727
 20
375.752528
 42
-0.000719
  0
VERTEX
  8
0
 10
143.841802
 20
376.202265
 42
-0.001073
  0
VERTEX
  8
0
 10
141.473207
 20
376.746512
 42
-0.000793
  0
VERTEX
  8
0
 10
138.855071
 20
377.358391
 42
0.006763
  0
VERTEX
  8
0
 10
134.148901
 20
378.399164
 42
0.004230
  0
VERTEX
  8
0
 10
128.613459
 20
379.496280
 42
0.004147
  0
VERTEX
  8
0
 10
122.866681
 20
380.535545
 42
0.005139
  0
VERTEX
  8
0
 10
117.500000
 20
381.403484
 42
-0.011584
  0
VERTEX
  8
0
 10
108.345404
 20
383.005372
 42
-0.006327
  0
VERTEX
  8
0
 10
97.193502
 20
385.371219
 42
-0.006311
  0
VERTEX
  8
0
 10
86.288543
 20
387.974328
 42
-0.013700
  0
VERTEX
  8
0
 10
78.000000
 20
390.307066
 42
0.018193
  0
VERTEX
  8
0
 10
76.534500
 20
390.705346
 42
0.017525
  0
VERTEX
  8
0
 10
75.025600
 20
391.001696
 42
0.017756
  0
VERTEX
  8
0
 10
73.679484
 20
391.168624
 42
0.058945
  0
VERTEX
  8
0
 10
72.789277
 20
391.142013
 42
-0.057876
  0
VERTEX
  8
0
 10
71.998151
 20
391.116675
 42
-0.030800
  0
VERTEX
  8
0
 10
71.027485
 20
391.258602
 42
-0.030202
  0
VERTEX
  8
0
 10
70.040863
 20
391.528638
 42
-0.040987
  0
VERTEX
  8
0
 10
69.193979
 20
391.896186
 42
0.025895
  0
VERTEX
  8
0
 10
68.299604
 20
392.316823
 42
0.013855
  0
VERTEX
  8
0
 10
67.156616
 20
392.747219
 42
0.013760
  0
VERTEX
  8
0
 10
65.962769
 20
393.122946
 42
0.020874
  0
VERTEX
  8
0
 10
64.904701
 20
393.376995
 42
-0.002881
  0
VERTEX
  8
0
 10
63.539020
 20
393.653358
 42
-0.000548
  0
VERTEX
  8
0
 10
61.057489
 20
394.173270
 42
-0.000585
  0
VERTEX
  8
0
 10
58.161661
 20
394.786839
 42
-0.000538
  0
VERTEX
  8
0
 10
55.184624
 20
395.424605
 42
0.009945
  0
VERTEX
  8
0
 10
48.130729
 20
396.797492
 42
0.083424
  0
VERTEX
  8
0
 10
44.896727
 20
396.816488
 42
0.442179
  0
VERTEX
  8
0
 10
44.200360
 20
395.747895
 42
0.130038
  0
VERTEX
  8
0
 10
45.287427
 20
393.821429
 42
-0.033900
  0
VERTEX
  8
0
 10
45.935017
 20
393.059708
 42
-0.008197
  0
VERTEX
  8
0
 10
46.897180
 20
391.713170
 42
-0.008374
  0
VERTEX
  8
0
 10
47.952114
 20
390.128287
 42
-0.008232
  0
VERTEX
  8
0
 10
48.959562
 20
388.500000
 42
0.015807
  0
VERTEX
  8
0
 10
50.166050
 20
386.614455
 42
0.007050
  0
VERTEX
  8
0
 10
51.866908
 20
384.206250
 42
0.006970
  0
VERTEX
  8
0
 10
53.739412
 20
381.706791
 42
0.009377
  0
VERTEX
  8
0
 10
55.508170
 20
379.500000
 42
-0.005144
  0
VERTEX
  8
0
 10
57.228849
 20
377.390045
 42
-0.004726
  0
VERTEX
  8
0
 10
58.955675
 20
375.185084
 42
-0.004725
  0
VERTEX
  8
0
 10
60.458633
 20
373.189397
 42
-0.015507
  0
VERTEX
  8
0
 10
61.397183
 20
371.832202
 42
0.037238
  0
VERTEX
  8
0
 10
63.671931
 20
368.830300
 42
0.011447
  0
VERTEX
  8
0
 10
67.530718
 20
364.653057
 42
0.005293
  0
VERTEX
  8
0
 10
71.638394
 20
360.494720
 42
0.197754
  0
VERTEX
  8
0
 10
72.840321
 20
360.000000
 42
-0.149488
  0
VERTEX
  8
0
 10
73.284732
 20
359.864094
 42
-0.018954
  0
VERTEX
  8
0
 10
74.103035
 20
359.265625
 42
-0.020865
  0
VERTEX
  8
0
 10
75.041307
 20
358.457375
 42
-0.015950
  0
VERTEX
  8
0
 10
76.000000
 20
357.500000
 42
0.025743
  0
VERTEX
  8
0
 10
76.996488
 20
356.543101
 42
0.029061
  0
VERTEX
  8
0
 10
78.048139
 20
355.734375
 42
0.030188
  0
VERTEX
  8
0
 10
79.010516
 20
355.161294
 42
0.119751
  0
VERTEX
  8
0
 10
79.674314
 20
355.000000
 42
-0.058700
  0
VERTEX
  8
0
 10
80.181323
 20
354.940271
 42
-0.077751
  0
VERTEX
  8
0
 10
80.610580
 20
354.763962
 42
-0.096344
  0
VERTEX
  8
0
 10
80.898142
 20
354.502967
 42
-0.161814
  0
VERTEX
  8
0
 10
81.000000
 20
354.196468
 42
0.258257
  0
VERTEX
  8
0
 10
81.402119
 20
353.469868
 42
0.005182
  0
VERTEX
  8
0
 10
85.117132
 20
351.194760
 42
0.011933
  0
VERTEX
  8
0
 10
89.331986
 20
348.807923
 42
0.011223
  0
VERTEX
  8
0
 10
93.742198
 20
346.573475
 42
-0.025225
  0
VERTEX
  8
0
 10
94.601320
 20
346.107530
 42
-0.033433
  0
VERTEX
  8
0
 10
95.328042
 20
345.595021
 42
-0.035361
  0
VERTEX
  8
0
 10
95.849760
 20
345.107270
 42
-0.186607
  0
VERTEX
  8
0
 10
95.992198
 20
344.750000
 42
0.235061
  0
VERTEX
  8
0
 10
96.139048
 20
344.462433
 42
0.069969
  0
VERTEX
  8
0
 10
96.585208
 20
344.220312
 42
0.053772
  0
VERTEX
  8
0
 10
97.233454
 20
344.054752
 42
0.035668
  0
VERTEX
  8
0
 10
98.000000
 20
344.000000
 42
-0.037885
  0
VERTEX
  8
0
 10
98.765896
 20
343.941885
 42
-0.056779
  0
VERTEX
  8
0
 10
99.412500
 20
343.766475
 42
-0.074580
  0
VERTEX
  8
0
 10
99.853927
 20
343.509478
 42
-0.227478
  0
VERTEX
  8
0
 10
100.000000
 20
343.205021
 42
0.247385
  0
VERTEX
  8
0
 10
100.210686
 20
342.805256
 42
0.017103
  0
VERTEX
  8
0
 10
101.321875
 20
342.098450
 42
0.021181
  0
VERTEX
  8
0
 10
102.775696
 20
341.323056
 42
0.014121
  0
VERTEX
  8
0
 10
104.500000
 20
340.554322
 42
-0.013889
  0
VERTEX
  8
0
 10
106.224326
 20
339.786537
 42
-0.020873
  0
VERTEX
  8
0
 10
107.678125
 20
339.014033
 42
-0.016674
  0
VERTEX
  8
0
 10
108.791430
 20
338.310588
 42
-0.248413
  0
VERTEX
  8
0
 10
109.000000
 20
337.916689
 42
0.203608
  0
VERTEX
  8
0
 10
109.147881
 20
337.568592
 42
0.045881
  0
VERTEX
  8
0
 10
109.660938
 20
337.157384
 42
0.040447
  0
VERTEX
  8
0
 10
110.388468
 20
336.757000
 42
0.029665
  0
VERTEX
  8
0
 10
111.250000
 20
336.429827
 42
-0.029603
  0
VERTEX
  8
0
 10
112.265504
 20
336.044324
 42
-0.016061
  0
VERTEX
  8
0
 10
113.466003
 20
335.458303
 42
-0.015951
  0
VERTEX
  8
0
 10
114.653318
 20
334.781421
 42
-0.024248
  0
VERTEX
  8
0
 10
115.634266
 20
334.112439
 42
0.003969
  0
VERTEX
  8
0
 10
116.611216
 20
333.386461
 42
0.002333
  0
VERTEX
  8
0
 10
117.790439
 20
332.533029
 42
0.002333
  0
VERTEX
  8
0
 10
118.977198
 20
331.690906
 42
0.003980
  0
VERTEX
  8
0
 10
119.977377
 20
331.000000
 42
-0.010028
  0
VERTEX
  8
0
 10
121.010314
 20
330.267855
 42
-0.004795
  0
VERTEX
  8
0
 10
122.309144
 20
329.288138
 42
-0.004751
  0
VERTEX
  8
0
 10
123.646397
 20
328.238795
 42
-0.006750
  0
VERTEX
  8
0
 10
124.813524
 20
327.278769
 42
0.031209
  0
VERTEX
  8
0
 10
126.226601
 20
326.227892
 42
0.010100
  0
VERTEX
  8
0
 10
128.440247
 20
324.849758
 42
0.010027
  0
VERTEX
  8
0
 10
130.969274
 20
323.413154
 42
0.011100
  0
VERTEX
  8
0
 10
133.470412
 20
322.128973
 42
0.003631
  0
VERTEX
  8
0
 10
137.555486
 20
320.181391
 42
0.004875
  0
VERTEX
  8
0
 10
141.286699
 20
318.479794
 42
0.003548
  0
VERTEX
  8
0
 10
145.852675
 20
316.489719
 42
0.001000
  0
VERTEX
  8
0
 10
153.000000
 20
313.451620
 42
-0.016340
  0
VERTEX
  8
0
 10
160.945532
 20
309.782539
 42
-0.135200
  0
VERTEX
  8
0
 10
163.869776
 20
307.144148
 42
-0.539254
  0
VERTEX
  8
0
 10
163.146677
 20
305.529880
 42
-0.057919
  0
VERTEX
  8
0
 10
158.196645
 20
305.307796
 42
0.037265
  0
VERTEX
  8
0
 10
151.096845
 20
305.282081
 42
0.022212
  0
VERTEX
  8
0
 10
142.705604
 20
304.248697
 42
0.020368
  0
VERTEX
  8
0
 10
133.522574
 20
302.313664
 42
0.017268
  0
VERTEX
  8
0
 10
124.000000
 20
299.545037
 42
-0.000052
  0
VERTEX
  8
0
 10
119.175165
 20
297.960201
 42
-0.000047
  0
VERTEX
  8
0
 10
114.187893
 20
296.323102
 42
-0.000047
  0
VERTEX
  8
0
 10
109.722552
 20
294.858262
 42
-0.000151
  0
VERTEX
  8
0
 10
106.746018
 20
293.883126
 42
-0.006879
  0
VERTEX
  8
0
 10
104.435760
 20
293.162075
 42
-0.008375
  0
VERTEX
  8
0
 10
102.252779
 20
292.553168
 42
-0.007213
  0
VERTEX
  8
0
 10
100.406203
 20
292.099627
 42
-0.056665
  0
VERTEX
  8
0
 10
99.529945
 20
292.000000
 42
0.057165
  0
VERTEX
  8
0
 10
98.755949
 20
291.911219
 42
0.014565
  0
VERTEX
  8
0
 10
97.532690
 20
291.589027
 42
0.014652
  0
VERTEX
  8
0
 10
96.148436
 20
291.136486
 42
0.014370
  0
VERTEX
  8
0
 10
94.783927
 20
290.600943
 42
-0.003613
  0
VERTEX
  8
0
 10
93.207762
 20
289.942860
 42
-0.001655
  0
VERTEX
  8
0
 10
91.142779
 20
289.106123
 42
-0.001639
  0
VERTEX
  8
0
 10
88.962894
 20
288.239502
 42
-0.002263
  0
VERTEX
  8
0
 10
87.000000
 20
287.476829
 42
0.010530
  0
VERTEX
  8
0
 10
81.874858
 20
285.387312
 42
0.005299
  0
VERTEX
  8
0
 10
75.492991
 20
282.546658
 42
0.005299
  0
VERTEX
  8
0
 10
69.174423
 20
279.572172
 42
0.010558
  0
VERTEX
  8
0
 10
64.250000
 20
277.060258
 42
-0.012226
  0
VERTEX
  8
0
 10
58.236958
 20
274.018290
 42
-0.006081
  0
VERTEX
  8
0
 10
50.480431
 20
270.444643
 42
-0.005185
  0
VERTEX
  8
0
 10
41.094719
 20
266.374163
 42
-0.003220
  0
VERTEX
  8
0
 10
30.000000
 20
261.782501
 42
0.003900
  0
VERTEX
  8
0
 10
28.930563
 20
261.338198
 42
0.003111
  0
VERTEX
  8
0
 10
27.784108
 20
260.842936
 42
0.003145
  0
VERTEX
  8
0
 10
26.728186
 20
260.371019
 42
0.007927
  0
VERTEX
  8
0
 10
25.967177
 20
260.010484
 42
-0.030061
  0
VERTEX
  8
0
 10
25.162365
 20
259.671934
 42
-0.009837
  0
VERTEX
  8
0
 10
23.939575
 20
259.268870
 42
-0.009761
  0
VERTEX
  8
0
 10
22.561310
 20
258.873712
 42
-0.010873
  0
VERTEX
  8
0
 10
21.217177
 20
258.547700
 42
0.020591
  0
VERTEX
  8
0
 10
19.984535
 20
258.223246
 42
0.030997
  0
VERTEX
  8
0
 10
18.945046
 20
257.831348
 42
0.031559
  0
VERTEX
  8
0
 10
18.184196
 20
257.429806
 42
0.261234
  0
VERTEX
  8
0
 10
18.000000
 20
257.101315
 42
-0.286166
  0
VERTEX
  8
0
 10
17.780606
 20
256.749374
 42
-0.014913
  0
VERTEX
  8
0
 10
16.512635
 20
256.173828
 42
-0.019865
  0
VERTEX
  8
0
 10
14.877235
 20
255.564688
 42
-0.012742
  0
VERTEX
  8
0
 10
12.936630
 20
254.982744
 42
0.011594
  0
VERTEX
  8
0
 10
10.960389
 20
254.395055
 42
0.015850
  0
VERTEX
  8
0
 10
9.212277
 20
253.768937
 42
0.012609
  0
VERTEX
  8
0
 10
7.808041
 20
253.173831
 42
0.148874
  0
VERTEX
  8
0
 10
7.368248
 20
252.786822
 42
-0.111774
  0
VERTEX
  8
0
 10
6.972937
 20
252.384169
 42
-0.014344
  0
VERTEX
  8
0
 10
5.930109
 20
251.754396
 42
-0.016184
  0
VERTEX
  8
0
 10
4.628335
 20
251.072975
 42
-0.012843
  0
VERTEX
  8
0
 10
3.181619
 20
250.419634
 42
0.009477
  0
VERTEX
  8
0
 10
1.006932
 20
249.455112
 42
0.135303
  0
VERTEX
  8
0
 10
0.367107
 20
248.910285
 42
0.340722
  0
VERTEX
  8
0
 10
0.400421
 20
248.358722
 42
0.054207
  0
VERTEX
  8
0
 10
1.250000
 20
247.574543
 42
-0.067230
  0
VERTEX
  8
0
 10
2.433829
 20
246.423545
 42
-0.132628
  0
VERTEX
  8
0
 10
2.942613
 20
245.225119
 42
-0.233876
  0
VERTEX
  8
0
 10
2.653695
 20
244.358296
 42
-0.193394
  0
VERTEX
  8
0
 10
1.750000
 20
243.968197
 42
0.773257
  0
VERTEX
  8
0
 10
1.539442
 20
243.064525
 42
0.023151
  0
VERTEX
  8
0
 10
7.257802
 20
240.393496
 42
0.016826
  0
VERTEX
  8
0
 10
14.800286
 20
237.579971
 42
0.054920
  0
VERTEX
  8
0
 10
20.000000
 20
236.451798
 42
-0.025068
  0
VERTEX
  8
0
 10
20.746650
 20
236.335857
 42
-0.009068
  0
VERTEX
  8
0
 10
21.793750
 20
236.099162
 42
-0.008967
  0
VERTEX
  8
0
 10
22.932878
 20
235.798104
 42
-0.010547
  0
VERTEX
  8
0
 10
24.000000
 20
235.471033
 42
0.007505
  0
VERTEX
  8
0
 10
25.067107
 20
235.136855
 42
0.006325
  0
VERTEX
  8
0
 10
26.206250
 20
234.814428
 42
0.006388
  0
VERTEX
  8
0
 10
27.253323
 20
234.546619
 42
0.017570
  0
VERTEX
  8
0
 10
28.000000
 20
234.393326
 42
-0.004306
  0
VERTEX
  8
0
 10
28.802368
 20
234.250664
 42
-0.001126
  0
VERTEX
  8
0
 10
30.087500
 20
234.007734
 42
-0.001144
  0
VERTEX
  8
0
 10
31.550000
 20
233.724394
 42
-0.001171
  0
VERTEX
  8
0
 10
33.000000
 20
233.436505
 42
0.043020
  0
VERTEX
  8
0
 10
38.974316
 20
232.762451
 42
0.014892
  0
VERTEX
  8
0
 10
47.660769
 20
232.792136
 42
0.014482
  0
VERTEX
  8
0
 10
57.410628
 20
233.398971
 42
0.014976
  0
VERTEX
  8
0
 10
67.000000
 20
234.565670
 42
-0.002139
  0
VERTEX
  8
0
 10
69.629343
 20
234.954299
 42
-0.001094
  0
VERTEX
  8
0
 10
72.932425
 20
235.420712
 42
-0.001012
  0
VERTEX
  8
0
 10
76.632292
 20
235.927267
 42
-0.000888
  0
VERTEX
  8
0
 10
80.500000
 20
236.441835
 42
-0.020455
  0
VERTEX
  8
0
 10
83.707109
 20
236.729917
 42
-0.007211
  0
VERTEX
  8
0
 10
88.322447
 20
236.888098
 42
-0.005983
  0
VERTEX
  8
0
 10
94.198537
 20
236.934360
 42
-0.003148
  0
VERTEX
  8
0
 10
101.500000
 20
236.858499
 42
0.024997
  0
VERTEX
  8
0
 10
105.469941
 20
236.990736
 42
0.015027
  0
VERTEX
  8
0
 10
110.154665
 20
237.523951
 42
0.012787
  0
VERTEX
  8
0
 10
115.621802
 20
238.456561
 42
0.007897
  0
VERTEX
  8
0
 10
122.000000
 20
239.818197
 42
-0.002651
  0
VERTEX
  8
0
 10
127.591810
 20
241.073434
 42
-0.006087
  0
VERTEX
  8
0
 10
131.817863
 20
241.944810
 42
-0.006335
  0
VERTEX
  8
0
 10
135.960835
 20
242.692275
 42
-0.003114
  0
VERTEX
  8
0
 10
141.250000
 20
243.543666
 42
-0.061081
  0
VERTEX
  8
0
 10
144.225667
 20
243.637021
 42
-0.453945
  0
VERTEX
  8
0
 10
144.959051
 20
242.626691
 42
-0.172248
  0
VERTEX
  8
0
 10
143.807155
 20
240.811727
 42
-0.022298
  0
VERTEX
  8
0
 10
140.008188
 20
238.102245
 42
0.026590
  0
VERTEX
  8
0
 10
134.274472
 20
233.938203
 42
0.024490
  0
VERTEX
  8
0
 10
128.848086
 20
229.079528
 42
0.024306
  0
VERTEX
  8
0
 10
123.882043
 20
223.673110
 42
0.025167
  0
VERTEX
  8
0
 10
119.525223
 20
217.870551
 42
-0.002939
  0
VERTEX
  8
0
 10
117.569988
 20
215.010111
 42
-0.004305
  0
VERTEX
  8
0
 10
115.813176
 20
212.518224
 42
-0.002127
  0
VERTEX
  8
0
 10
114.296157
 20
210.424184
 42
-0.075856
  0
VERTEX
  8
0
 10
113.874323
 20
210.000000
 42
0.066809
  0
VERTEX
  8
0
 10
113.080261
 20
209.229755
 42
0.001188
  0
VERTEX
  8
0
 10
109.405082
 20
204.541242
 42
0.003374
  0
VERTEX
  8
0
 10
105.690533
 20
199.712400
 42
0.004973
  0
VERTEX
  8
0
 10
102.500000
 20
195.418296
 42
-0.006855
  0
VERTEX
  8
0
 10
101.642610
 20
194.273374
 42
-0.006093
  0
VERTEX
  8
0
 10
100.720313
 20
193.106045
 42
-0.006126
  0
VERTEX
  8
0
 10
99.864845
 20
192.076077
 42
-0.018670
  0
VERTEX
  8
0
 10
99.250000
 20
191.406345
 42
0.031479
  0
VERTEX
  8
0
 10
98.771633
 20
190.857721
 42
0.031709
  0
VERTEX
  8
0
 10
98.367188
 20
190.254665
 42
0.033412
  0
VERTEX
  8
0
 10
98.084928
 20
189.685769
 42
0.098760
  0
VERTEX
  8
0
 10
98.000000
 20
189.259990
 42
-0.124662
  0
VERTEX
  8
0
 10
97.880689
 20
188.788888
 42
-0.022080
  0
VERTEX
  8
0
 10
97.408461
 20
188.001523
 42
-0.022694
  0
VERTEX
  8
0
 10
96.757220
 20
187.107903
 42
-0.018720
  0
VERTEX
  8
0
 10
95.986250
 20
186.215616
 42
0.028469
  0
VERTEX
  8
0
 10
95.052847
 20
185.091799
 42
0.010942
  0
VERTEX
  8
0
 10
93.882600
 20
183.432667
 42
0.010793
  0
VERTEX
  8
0
 10
92.688442
 20
181.573022
 42
0.013069
  0
VERTEX
  8
0
 10
91.652707
 20
179.777055
 42
-0.002334
  0
VERTEX
  8
0
 10
89.812234
 20
176.421211
 42
-0.001317
  0
VERTEX
  8
0
 10
87.550405
 20
172.367581
 42
-0.001124
  0
VERTEX
  8
0
 10
84.854475
 20
167.590928
 42
-0.000700
  0
VERTEX
  8
0
 10
81.672026
 20
162.000000
 42
0.005040
  0
VERTEX
  8
0
 10
79.731275
 20
158.520582
 42
0.009462
  0
VERTEX
  8
0
 10
78.245085
 20
155.664437
 42
0.011324
  0
VERTEX
  8
0
 10
77.068543
 20
153.153729
 42
0.013780
  0
VERTEX
  8
0
 10
76.086048
 20
150.750000
 42
-0.027284
  0
VERTEX
  8
0
 10
75.622081
 20
149.696975
 42
-0.037000
  0
VERTEX
  8
0
 10
75.084811
 20
148.807812
 42
-0.040618
  0
VERTEX
  8
0
 10
74.553670
 20
148.175542
 42
-0.200346
  0
VERTEX
  8
0
 10
74.133159
 20
148.000000
 42
0.210727
  0
VERTEX
  8
0
 10
73.735961
 20
147.824820
 42
0.049832
  0
VERTEX
  8
0
 10
73.292769
 20
147.230140
 42
0.042864
  0
VERTEX
  8
0
 10
72.877975
 20
146.382740
 42
0.030916
  0
VERTEX
  8
0
 10
72.559037
 20
145.379201
 42
-0.026635
  0
VERTEX
  8
0
 10
72.219167
 20
144.277222
 42
-0.021466
  0
VERTEX
  8
0
 10
71.741796
 20
143.133315
 42
-0.021966
  0
VERTEX
  8
0
 10
71.207905
 20
142.113276
 42
-0.050747
  0
VERTEX
  8
0
 10
70.700629
 20
141.413905
 42
0.008048
  0
VERTEX
  8
0
 10
68.645067
 20
139.036078
 42
0.035486
  0
VERTEX
  8
0
 10
67.560551
 20
137.535429
 42
0.058806
  0
VERTEX
  8
0
 10
66.987097
 20
136.309007
 42
0.061256
  0
VERTEX
  8
0
 10
66.725019
 20
134.999624
 42
-0.058514
  0
VERTEX
  8
0
 10
66.573021
 20
134.218060
 42
-0.055691
  0
VERTEX
  8
0
 10
66.242722
 20
133.478913
 42
-0.060111
  0
VERTEX
  8
0
 10
65.793441
 20
132.889855
 42
-0.108605
  0
VERTEX
  8
0
 10
65.289160
 20
132.557467
 42
0.093013
  0
VERTEX
  8
0
 10
64.796292
 20
132.253998
 42
0.066783
  0
VERTEX
  8
0
 10
64.378691
 20
131.758243
 42
0.064950
  0
VERTEX
  8
0
 10
64.096370
 20
131.153784
 42
0.076960
  0
VERTEX
  8
0
 10
64.000000
 20
130.531385
 42
-0.049248
  0
VERTEX
  8
0
 10
63.942138
 20
129.945355
 42
-0.069245
  0
VERTEX
  8
0
 10
63.769585
 20
129.449844
 42
-0.089420
  0
VERTEX
  8
0
 10
63.515092
 20
129.116279
 42
-0.187320
  0
VERTEX
  8
0
 10
63.215608
 20
129.000000
 42
0.246319
  0
VERTEX
  8
0
 10
62.267071
 20
128.502532
 42
0.019036
  0
VERTEX
  8
0
 10
60.674286
 20
125.999344
 42
0.021161
  0
VERTEX
  8
0
 10
59.361964
 20
123.516940
 42
0.538892
  0
VERTEX
  8
0
 10
59.693464
 20
122.969591
 42
-0.373024
  0
VERTEX
  8
0
 10
59.815947
 20
122.855084
 42
-0.212388
  0
VERTEX
  8
0
 10
59.749018
 20
122.648701
 42
-0.058119
  0
VERTEX
  8
0
 10
59.370160
 20
122.314715
 42
-0.019756
  0
VERTEX
  8
0
 10
58.750000
 20
121.919901
 42
0.058060
  0
VERTEX
  8
0
 10
58.080645
 20
121.417988
 42
0.051549
  0
VERTEX
  8
0
 10
57.514062
 20
120.756669
 42
0.054565
  0
VERTEX
  8
0
 10
57.127980
 20
120.043810
 42
0.097141
  0
VERTEX
  8
0
 10
57.000000
 20
119.391293
 42
-0.060051
  0
VERTEX
  8
0
 10
56.935128
 20
118.853097
 42
-0.128442
  0
VERTEX
  8
0
 10
56.737585
 20
118.487512
 42
-0.191428
  0
VERTEX
  8
0
 10
56.445358
 20
118.349354
 42
-0.155467
  0
VERTEX
  8
0
 10
56.106674
 20
118.434072
 42
0.242190
  0
VERTEX
  8
0
 10
55.721826
 20
118.464285
 42
0.116058
  0
VERTEX
  8
0
 10
55.309712
 20
118.165090
 42
0.074457
  0
VERTEX
  8
0
 10
54.929412
 20
117.562671
 42
0.041925
  0
VERTEX
  8
0
 10
54.648072
 20
116.743089
 42
-0.034894
  0
VERTEX
  8
0
 10
54.319235
 20
115.739462
 42
-0.019646
  0
VERTEX
  8
0
 10
53.789644
 20
114.571407
 42
-0.019532
  0
VERTEX
  8
0
 10
53.159559
 20
113.428986
 42
-0.030098
  0
VERTEX
  8
0
 10
52.519554
 20
112.500000
 42
0.046911
  0
VERTEX
  8
0
 10
49.979706
 20
108.534692
 42
0.013691
  0
VERTEX
  8
0
 10
46.834104
 20
101.998543
 42
0.005855
  0
VERTEX
  8
0
 10
43.864276
 20
95.155360
 42
0.465864
  0
VERTEX
  8
0
 10
44.337044
 20
94.234230
 42
0.112935
  0
VERTEX
  8
0
 10
45.495435
 20
94.234514
 42
0.006287
  0
VERTEX
  8
0
 10
49.026774
 20
95.090230
 42
0.007728
  0
VERTEX
  8
0
 10
53.818861
 20
96.394677
 42
0.002893
  0
VERTEX
  8
0
 10
60.500000
 20
98.366695
 42
0.017109
  0
VERTEX
  8
0
 10
61.042007
 20
98.550539
 42
0.003958
  0
VERTEX
  8
0
 10
61.940625
 20
98.898195
 42
0.004082
  0
VERTEX
  8
0
 10
62.969531
 20
99.315401
 42
0.003983
  0
VERTEX
  8
0
 10
64.000000
 20
99.752725
 42
-0.005699
  0
VERTEX
  8
0
 10
66.103559
 20
100.636953
 42
-0.005497
  0
VERTEX
  8
0
 10
68.252055
 20
101.483976
 42
-0.004309
  0
VERTEX
  8
0
 10
70.149272
 20
102.189267
 42
-0.039137
  0
VERTEX
  8
0
 10
71.000000
 20
102.423859
 42
0.070751
  0
VERTEX
  8
0
 10
73.395838
 20
103.250117
 42
0.003444
  0
VERTEX
  8
0
 10
80.870537
 20
107.143939
 42
0.002763
  0
VERTEX
  8
0
 10
88.427680
 20
111.200768
 42
0.095256
  0
VERTEX
  8
0
 10
89.983106
 20
112.479644
 42
-0.035799
  0
VERTEX
  8
0
 10
90.540828
 20
113.061420
 42
-0.036535
  0
VERTEX
  8
0
 10
91.172251
 20
113.553395
 42
-0.039089
  0
VERTEX
  8
0
 10
91.782171
 20
113.895140
 42
-0.108570
  0
VERTEX
  8
0
 10
92.259394
 20
114.000000
 42
0.181085
  0
VERTEX
  8
0
 10
93.808591
 20
114.580096
 42
0.002861
  0
VERTEX
  8
0
 10
100.992598
 20
120.910211
 42
0.007752
  0
VERTEX
  8
0
 10
108.736458
 20
128.031218
 42
0.007169
  0
VERTEX
  8
0
 10
116.463065
 20
135.574059
 42
-0.008847
  0
VERTEX
  8
0
 10
119.870172
 20
138.877884
 42
-0.008323
  0
VERTEX
  8
0
 10
123.461025
 20
142.128262
 42
-0.008316
  0
VERTEX
  8
0
 10
126.739207
 20
144.902877
 42
-0.028330
  0
VERTEX
  8
0
 10
129.000000
 20
146.548200
 42
0.012443
  0
VERTEX
  8
0
 10
132.708482
 20
149.070947
 42
0.006198
  0
VERTEX
  8
0
 10
137.283435
 20
152.439223
 42
0.003838
  0
VERTEX
  8
0
 10
141.648794
 20
155.790355
 42
0.058621
  0
VERTEX
  8
0
 10
143.000000
 20
157.125700
 42
0.006402
  0
VERTEX
  8
0
 10
143.300295
 20
157.511517
 42
0.000797
  0
VERTEX
  8
0
 10
143.940625
 20
158.359110
 42
0.000940
  0
VERTEX
  8
0
 10
144.697589
 20
159.368361
 42
0.000778
  0
VERTEX
  8
0
 10
145.500000
 20
160.445899
 42
-0.022005
  0
VERTEX
  8
0
 10
146.772998
 20
162.011994
 42
-0.002988
  0
VERTEX
  8
0
 10
149.599717
 20
165.154752
 42
-0.003437
  0
VERTEX
  8
0
 10
152.998837
 20
168.837611
 42
-0.002893
  0
VERTEX
  8
0
 10
156.647972
 20
172.692273
 42
-0.009490
  0
VERTEX
  8
0
 10
162.779379
 20
178.855837
 42
-0.076353
  0
VERTEX
  8
0
 10
166.031259
 20
181.160850
 42
-0.561917
  0
VERTEX
  8
0
 10
167.082317
 20
180.502359
 42
-0.096045
  0
VERTEX
  8
0
 10
166.484691
 20
177.617602
 42
0.010757
  0
VERTEX
  8
0
 10
165.913911
 20
176.164420
 42
0.008310
  0
VERTEX
  8
0
 10
165.352547
 20
174.557735
 42
0.008415
  0
VERTEX
  8
0
 10
164.878327
 20
173.039169
 42
0.019881
  0
VERTEX
  8
0
 10
164.589527
 20
171.889443
 42
-0.011754
  0
VERTEX
  8
0
 10
164.291590
 20
170.616125
 42
-0.003068
  0
VERTEX
  8
0
 10
163.752707
 20
168.586274
 42
-0.003117
  0
VERTEX
  8
0
 10
163.110060
 20
166.280944
 42
-0.003183
  0
VERTEX
  8
0
 10
162.443130
 20
164.000000
 42
0.045483
  0
VERTEX
  8
0
 10
161.371454
 20
158.711231
 42
0.014307
  0
VERTEX
  8
0
 10
160.722414
 20
150.657021
 42
0.008599
  0
VERTEX
  8
0
 10
160.294236
 20
138.287592
 42
0.001864
  0
VERTEX
  8
0
 10
160.001883
 20
116.912796
 42
0.006757
  0
VERTEX
  8
0
 10
160.045722
 20
104.618604
 42
0.014358
  0
VERTEX
  8
0
 10
160.481253
 20
95.114716
 42
0.015773
  0
VERTEX
  8
0
 10
161.426928
 20
86.231224
 42
0.010148
  0
VERTEX
  8
0
 10
163.055930
 20
76.000000
 42
-0.003486
  0
VERTEX
  8
0
 10
163.776498
 20
71.832708
 42
-0.004502
  0
VERTEX
  8
0
 10
164.376807
 20
67.996875
 42
-0.003443
  0
VERTEX
  8
0
 10
164.828261
 20
64.778170
 42
-0.039378
  0
VERTEX
  8
0
 10
164.897027
 20
63.500000
 42
0.025994
  0
VERTEX
  8
0
 10
164.934548
 20
62.111219
 42
0.001118
  0
VERTEX
  8
0
 10
165.331020
 20
57.240625
 42
0.001907
  0
VERTEX
  8
0
 10
165.836219
 20
51.466563
 42
0.001358
  0
VERTEX
  8
0
 10
166.444582
 20
45.000000
 42
-0.001084
  0
VERTEX
  8
0
 10
167.087473
 20
38.206250
 42
-0.001098
  0
VERTEX
  8
0
 10
167.698208
 20
31.437500
 42
-0.001067
  0
VERTEX
  8
0
 10
168.204286
 20
25.543604
 42
-0.004486
  0
VERTEX
  8
0
 10
168.468947
 20
22.000000
 42
0.004629
  0
VERTEX
  8
0
 10
168.667397
 20
19.353114
 42
0.004985
  0
VERTEX
  8
0
 10
168.910615
 20
16.775007
 42
0.004722
  0
VERTEX
  8
0
 10
169.162239
 20
14.567104
 42
0.023650
  0
VERTEX
  8
0
 10
169.373070
 20
13.340451
 42
-0.008982
  0
VERTEX
  8
0
 10
169.602292
 20
12.206978
 42
-0.002654
  0
VERTEX
  8
0
 10
169.912886
 20
10.463212
 42
-0.002663
  0
VERTEX
  8
0
 10
170.241282
 20
8.498726
 42
-0.002865
  0
VERTEX
  8
0
 10
170.540551
 20
6.578154
 42
0.015175
  0
VERTEX
  8
0
 10
170.866803
 20
4.777061
 42
0.020493
  0
VERTEX
  8
0
 10
171.277162
 20
3.173487
 42
0.018002
  0
VERTEX
  8
0
 10
171.710915
 20
1.896776
 42
0.164900
  0
VERTEX
  8
0
 10
172.078913
 20
1.451229
 42
0.296567
  0
VERTEX
  8
0
 10
173.123950
 20
1.475305
 42
0.044766
  0
VERTEX
  8
0
 10
174.820017
 20
2.872609
 42
0.038836
  0
VERTEX
  8
0
 10
176.730533
 20
5.074889
 42
0.025851
  0
VERTEX
  8
0
 10
178.577474
 20
7.861866
 42
-0.017264
  0
VERTEX
  8
0
 10
179.344694
 20
9.063886
 42
-0.024114
  0
VERTEX
  8
0
 10
180.117094
 20
10.078173
 42
-0.022000
  0
VERTEX
  8
0
 10
180.809960
 20
10.832364
 42
-0.198487
  0
VERTEX
  8
0
 10
181.215608
 20
11.000000
 42
0.140943
  0
VERTEX
  8
0
 10
181.514727
 20
11.086027
 42
0.099850
  0
VERTEX
  8
0
 10
181.769585
 20
11.327832
 42
0.084922
  0
VERTEX
  8
0
 10
181.941245
 20
11.689458
 42
0.068546
  0
VERTEX
  8
0
 10
182.000000
 20
12.116023
 42
-0.122034
  0
VERTEX
  8
0
 10
182.164526
 20
12.780085
 42
-0.011370
  0
VERTEX
  8
0
 10
182.992399
 20
14.265445
 42
-0.014082
  0
VERTEX
  8
0
 10
184.084487
 20
16.009784
 42
-0.010606
  0
VERTEX
  8
0
 10
185.378381
 20
17.866023
 42
0.013508
  0
VERTEX
  8
0
 10
186.913205
 20
20.095371
 42
0.006599
  0
VERTEX
  8
0
 10
188.754776
 20
23.014976
 42
0.006540
  0
VERTEX
  8
0
 10
190.591173
 20
26.103342
 42
0.009418
  0
VERTEX
  8
0
 10
192.128381
 20
28.887088
 42
-0.000630
  0
VERTEX
  8
0
 10
193.544050
 20
31.560724
 42
-0.000576
  0
VERTEX
  8
0
 10
195.009540
 20
34.312387
 42
-0.000575
  0
VERTEX
  8
0
 10
196.324146
 20
36.767113
 42
-0.001879
  0
VERTEX
  8
0
 10
197.201968
 20
38.387088
 42
0.023518
  0
VERTEX
  8
0
 10
197.857021
 20
39.731757
 42
0.020362
  0
VERTEX
  8
0
 10
198.418093
 20
41.197561
 42
0.020859
  0
VERTEX
  8
0
 10
198.816983
 20
42.568526
 42
0.054648
  0
VERTEX
  8
0
 10
198.951968
 20
43.583333
 42
-0.029428
  0
VERTEX
  8
0
 10
199.021614
 20
44.431906
 42
-0.030195
  0
VERTEX
  8
0
 10
199.190226
 20
45.259023
 42
-0.031675
  0
VERTEX
  8
0
 10
199.424336
 20
45.954272
 42
-0.099644
  0
VERTEX
  8
0
 10
199.695611
 20
46.362278
 42
0.054295
  0
VERTEX
  8
0
 10
199.980035
 20
46.716228
 42
0.027962
  0
VERTEX
  8
0
 10
200.259128
 20
47.212238
 42
0.027424
  0
VERTEX
  8
0
 10
200.492070
 20
47.760475
 42
0.037067
  0
VERTEX
  8
0
 10
200.637151
 20
48.278944
 42
-0.002714
  0
VERTEX
  8
0
 10
200.768598
 20
48.913764
 42
-0.000822
  0
VERTEX
  8
0
 10
200.974880
 20
49.875690
 42
-0.000823
  0
VERTEX
  8
0
 10
201.209681
 20
50.953307
 42
-0.000896
  0
VERTEX
  8
0
 10
201.441517
 20
52.000000
 42
0.008118
  0
VERTEX
  8
0
 10
202.705029
 20
58.121970
 42
0.002969
  0
VERTEX
  8
0
 10
204.299994
 20
66.819846
 42
0.002085
  0
VERTEX
  8
0
 10
205.785179
 20
75.407496
 42
0.023709
  0
VERTEX
  8
0
 10
206.196240
 20
78.826024
 42
-0.021118
  0
VERTEX
  8
0
 10
206.346841
 20
80.135664
 42
-0.027206
  0
VERTEX
  8
0
 10
206.600634
 20
81.319869
 42
-0.027017
  0
VERTEX
  8
0
 10
206.910558
 20
82.256533
 42
-0.162319
  0
VERTEX
  8
0
 10
207.234812
 20
82.645122
 42
0.095477
  0
VERTEX
  8
0
 10
207.503062
 20
82.892009
 42
0.097037
  0
VERTEX
  8
0
 10
207.658467
 20
83.219557
 42
0.098737
  0
VERTEX
  8
0
 10
207.677304
 20
83.576698
 42
0.102717
  0
VERTEX
  8
0
 10
207.556709
 20
83.908242
 42
-0.196631
  0
VERTEX
  8
0
 10
207.462059
 20
84.475737
 42
-0.008441
  0
VERTEX
  8
0
 10
207.952903
 20
86.482151
 42
-0.013348
  0
VERTEX
  8
0
 10
208.653029
 20
88.885201
 42
-0.009002
  0
VERTEX
  8
0
 10
209.573759
 20
91.589144
 42
0.002606
  0
VERTEX
  8
0
 10
210.558321
 20
94.363706
 42
0.003126
  0
VERTEX
  8
0
 10
211.454836
 20
96.985103
 42
0.002683
  0
VERTEX
  8
0
 10
212.184337
 20
99.201941
 42
0.020732
  0
VERTEX
  8
0
 10
212.476668
 20
100.253759
 42
-0.014612
  0
VERTEX
  8
0
 10
212.670060
 20
100.984120
 42
-0.013149
  0
VERTEX
  8
0
 10
212.912048
 20
101.728353
 42
-0.013307
  0
VERTEX
  8
0
 10
213.164368
 20
102.384183
 42
-0.039943
  0
VERTEX
  8
0
 10
213.383147
 20
102.810928
 42
0.081681
  0
VERTEX
  8
0
 10
213.609699
 20
103.361177
 42
0.007269
  0
VERTEX
  8
0
 10
213.927494
 20
104.830292
 42
0.009331
  0
VERTEX
  8
0
 10
214.250226
 20
106.605494
 42
0.007143
  0
VERTEX
  8
0
 10
214.538984
 20
108.557168
 42
-0.001775
  0
VERTEX
  8
0
 10
214.823360
 20
110.632905
 42
-0.001594
  0
VERTEX
  8
0
 10
215.132608
 20
112.782418
 42
-0.001597
  0
VERTEX
  8
0
 10
215.422400
 20
114.709373
 42
-0.005023
  0
VERTEX
  8
0
 10
215.634003
 20
116.000000
 42
0.011531
  0
VERTEX
  8
0
 10
215.828929
 20
117.294189
 42
0.003646
  0
VERTEX
  8
0
 10
216.061179
 20
119.234375
 42
0.003639
  0
VERTEX
  8
0
 10
216.288713
 20
121.402373
 42
0.004035
  0
VERTEX
  8
0
 10
216.476362
 20
123.500000
 42
-0.005389
  0
VERTEX
  8
0
 10
216.679739
 20
125.706100
 42
-0.003690
  0
VERTEX
  8
0
 10
216.956090
 20
128.206250
 42
-0.003719
  0
VERTEX
  8
0
 10
217.258090
 20
130.611513
 42
-0.007519
  0
VERTEX
  8
0
 10
217.538448
 20
132.500000
 42
0.003393
  0
VERTEX
  8
0
 10
217.807470
 20
134.214600
 42
0.002740
  0
VERTEX
  8
0
 10
218.073773
 20
136.059375
 42
0.002769
  0
VERTEX
  8
0
 10
218.300805
 20
137.764774
 42
0.007129
  0
VERTEX
  8
0
 10
218.440422
 20
139.000000
 42
-0.007080
  0
VERTEX
  8
0
 10
218.724831
 20
141.518442
 42
-0.086491
  0
VERTEX
  8
0
 10
219.009576
 20
142.441669
 42
-0.206554
  0
VERTEX
  8
0
 10
219.517176
 20
142.862061
 42
-0.071200
  0
VERTEX
  8
0
 10
220.480948
 20
143.000000
 42
-0.160862
  0
VERTEX
  8
0
 10
221.092509
 20
142.798019
 42
-0.070926
  0
VERTEX
  8
0
 10
221.705408
 20
142.192188
 42
-0.059621
  0
VERTEX
  8
0
 10
222.227520
 20
141.302065
 42
-0.048502
  0
VERTEX
  8
0
 10
222.569695
 20
140.250000
 42
0.014966
  0
VERTEX
  8
0
 10
223.581409
 20
136.245232
 42
0.010872
  0
VERTEX
  8
0
 10
224.936048
 20
131.852418
 42
0.007158
  0
VERTEX
  8
0
 10
226.330009
 20
127.850545
 42
0.099327
  0
VERTEX
  8
0
 10
227.122921
 20
126.550000
 42
-0.071139
  0
VERTEX
  8
0
 10
227.459340
 20
126.061899
 42
-0.036264
  0
VERTEX
  8
0
 10
227.742358
 20
125.371295
 42
-0.035124
  0
VERTEX
  8
0
 10
227.935459
 20
124.602950
 42
-0.044029
  0
VERTEX
  8
0
 10
228.000000
 20
123.871429
 42
0.063990
  0
VERTEX
  8
0
 10
228.097643
 20
123.111590
 42
0.039129
  0
VERTEX
  8
0
 10
228.394231
 20
122.256394
 42
0.038665
  0
VERTEX
  8
0
 10
228.828254
 20
121.441383
 42
0.054747
  0
VERTEX
  8
0
 10
229.342064
 20
120.800793
 42
-0.031277
  0
VERTEX
  8
0
 10
229.948916
 20
120.112869
 42
-0.013396
  0
VERTEX
  8
0
 10
230.674817
 20
119.124647
 42
-0.013194
  0
VERTEX
  8
0
 10
231.394568
 20
118.026947
 42
-0.016948
  0
VERTEX
  8
0
 10
231.994494
 20
116.979364
 42
0.024321
  0
VERTEX
  8
0
 10
232.795771
 20
115.626811
 42
0.004957
  0
VERTEX
  8
0
 10
234.352317
 20
113.318938
 42
0.005213
  0
VERTEX
  8
0
 10
236.218131
 20
110.670363
 42
0.004870
  0
VERTEX
  8
0
 10
238.181036
 20
108.000000
 42
-0.005611
  0
VERTEX
  8
0
 10
240.448766
 20
104.905347
 42
-0.002744
  0
VERTEX
  8
0
 10
243.273372
 20
100.912500
 42
-0.002721
  0
VERTEX
  8
0
 10
246.164967
 20
96.728701
 42
-0.003943
  0
VERTEX
  8
0
 10
248.669249
 20
93.000000
 42
0.005924
  0
VERTEX
  8
0
 10
253.162027
 20
86.367475
 42
0.006752
  0
VERTEX
  8
0
 10
257.622446
 20
80.129322
 42
0.007057
  0
VERTEX
  8
0
 10
261.614324
 20
74.860291
 42
0.022081
  0
VERTEX
  8
0
 10
264.500000
 20
71.479996
 42
0.002765
  0
VERTEX
  8
0
 10
270.476615
 20
65.145161
 42
0.007187
  0
VERTEX
  8
0
 10
274.870098
 20
60.670233
 42
0.003772
  0
VERTEX
  8
0
 10
278.286330
 20
57.339926
 42
0.193647
  0
VERTEX
  8
0
 10
279.131110
 20
57.000000
 42
-0.108812
  0
VERTEX
  8
0
 10
279.462602
 20
56.926995
 42
-0.099745
  0
VERTEX
  8
0
 10
279.744764
 20
56.720238
 42
-0.095372
  0
VERTEX
  8
0
 10
279.933976
 20
56.411221
 42
-0.090055
  0
VERTEX
  8
0
 10
280.000000
 20
56.047619
 42
0.162186
  0
VERTEX
  8
0
 10
280.192466
 20
55.469877
 42
0.008667
  0
VERTEX
  8
0
 10
281.395312
 20
53.921556
 42
0.012847
  0
VERTEX
  8
0
 10
282.930183
 20
52.112195
 42
0.008950
  0
VERTEX
  8
0
 10
284.750000
 20
50.147344
 42
-0.005111
  0
VERTEX
  8
0
 10
288.622272
 20
46.030325
 42
-0.002959
  0
VERTEX
  8
0
 10
293.196945
 20
41.006449
 42
-0.002957
  0
VERTEX
  8
0
 10
297.622681
 20
36.029079
 42
-0.006203
  0
VERTEX
  8
0
 10
300.992045
 20
32.096990
 42
-0.015954
  0
VERTEX
  8
0
 10
301.760861
 20
31.114865
 42
-0.019712
  0
VERTEX
  8
0
 10
302.410163
 20
30.151061
 42
-0.018439
  0
VERTEX
  8
0
 10
302.885933
 20
29.313432
 42
-0.120498
  0
VERTEX
  8
0
 10
303.000000
 20
28.846990
 42
0.165482
  0
VERTEX
  8
0
 10
303.109947
 20
28.523885
 42
0.095507
  0
VERTEX
  8
0
 10
303.420830
 20
28.248803
 42
0.076504
  0
VERTEX
  8
0
 10
303.884657
 20
28.062883
 42
0.057192
  0
VERTEX
  8
0
 10
304.432612
 20
28.000000
 42
-0.111761
  0
VERTEX
  8
0
 10
305.022700
 20
27.866435
 42
-0.071198
  0
VERTEX
  8
0
 10
305.611115
 20
27.474710
 42
-0.065911
  0
VERTEX
  8
0
 10
306.108720
 20
26.895379
 42
-0.067776
  0
VERTEX
  8
0
 10
306.432784
 20
26.211779
 42
0.103989
  0
VERTEX
  8
0
 10
308.207947
 20
23.071933
 42
0.007444
  0
VERTEX
  8
0
 10
314.973757
 20
15.612613
 42
0.011460
  0
VERTEX
  8
0
 10
322.252674
 20
8.173144
 42
0.023985
  0
VERTEX
  8
0
 10
328.310378
 20
2.801679
 42
0.000000
  0
VERTEX
  8
0
 10
332.120755
 20
-0.263698
 42
0.000000
  0
VERTEX
  8
0
 10
331.647827
 20
17.118151
 42
0.010934
  0
VERTEX
  8
0
 10
331.052266
 20
29.245915
 42
0.017613
  0
VERTEX
  8
0
 10
329.956308
 20
39.531020
 42
0.020606
  0
VERTEX
  8
0
 10
328.423583
 20
47.832057
 42
0.051789
  0
VERTEX
  8
0
 10
326.448088
 20
53.651129
 42
-0.013838
  0
VERTEX
  8
0
 10
325.891433
 20
54.956482
 42
-0.014424
  0
VERTEX
  8
0
 10
325.416034
 20
56.272845
 42
-0.014234
  0
VERTEX
  8
0
 10
325.071210
 20
57.431505
 42
-0.059375
  0
VERTEX
  8
0
 10
324.968197
 20
58.151129
 42
0.073922
  0
VERTEX
  8
0
 10
324.855523
 20
58.803023
 42
0.027268
  0
VERTEX
  8
0
 10
324.514453
 20
59.673976
 42
0.026316
  0
VERTEX
  8
0
 10
324.032476
 20
60.598883
 42
0.028645
  0
VERTEX
  8
0
 10
323.468197
 20
61.441130
 42
-0.036975
  0
VERTEX
  8
0
 10
322.906174
 20
62.310971
 42
-0.029724
  0
VERTEX
  8
0
 10
322.431283
 20
63.318929
 42
-0.030624
  0
VERTEX
  8
0
 10
322.103916
 20
64.307995
 42
-0.064692
  0
VERTEX
  8
0
 10
322.000000
 20
65.107796
 42
0.040374
  0
VERTEX
  8
0
 10
321.944606
 20
65.792679
 42
0.047016
  0
VERTEX
  8
0
 10
321.779688
 20
66.424373
 42
0.053249
  0
VERTEX
  8
0
 10
321.538062
 20
66.917339
 42
0.148691
  0
VERTEX
  8
0
 10
321.250000
 20
67.166667
 42
-0.169372
  0
VERTEX
  8
0
 10
320.277665
 20
68.079388
 42
-0.005228
  0
VERTEX
  8
0
 10
317.750065
 20
73.043055
 42
-0.006953
  0
VERTEX
  8
0
 10
315.397731
 20
77.954886
 42
-0.108606
  0
VERTEX
  8
0
 10
315.000000
 20
79.764353
 42
0.059942
  0
VERTEX
  8
0
 10
314.943146
 20
80.236890
 42
0.078748
  0
VERTEX
  8
0
 10
314.775546
 20
80.637029
 42
0.096967
  0
VERTEX
  8
0
 10
314.527339
 20
80.904985
 42
0.158895
  0
VERTEX
  8
0
 10
314.235900
 20
81.000000
 42
-0.294321
  0
VERTEX
  8
0
 10
313.186318
 20
81.676422
 42
-0.013529
  0
VERTEX
  8
0
 10
311.455578
 20
85.783887
 42
-0.020222
  0
VERTEX
  8
0
 10
309.741648
 20
90.766673
 42
-0.017190
  0
VERTEX
  8
0
 10
308.330399
 20
96.147892
 42
0.011601
  0
VERTEX
  8
0
 10
307.672886
 20
98.774318
 42
0.018364
  0
VERTEX
  8
0
 10
306.975668
 20
100.987193
 42
0.012853
  0
VERTEX
  8
0
 10
306.307341
 20
102.722342
 42
0.303166
  0
VERTEX
  8
0
 10
305.891498
 20
103.000000
 42
-0.200970
  0
VERTEX
  8
0
 10
305.550842
 20
103.142686
 42
-0.084817
  0
VERTEX
  8
0
 10
305.261878
 20
103.557671
 42
-0.064877
  0
VERTEX
  8
0
 10
305.065537
 20
104.171760
 42
-0.045001
  0
VERTEX
  8
0
 10
305.000000
 20
104.898454
 42
0.104479
  0
VERTEX
  8
0
 10
304.526801
 20
107.138303
 42
0.013366
  0
VERTEX
  8
0
 10
302.406532
 20
111.605631
 42
0.013482
  0
VERTEX
  8
0
 10
299.317334
 20
117.303239
 42
0.006958
  0
VERTEX
  8
0
 10
295.164368
 20
124.267613
 42
-0.006025
  0
VERTEX
  8
0
 10
293.568915
 20
126.931818
 42
-0.008613
  0
VERTEX
  8
0
 10
292.223283
 20
129.335816
 42
-0.005248
  0
VERTEX
  8
0
 10
291.154207
 20
131.376479
 42
-0.118570
  0
VERTEX
  8
0
 10
291.000000
 20
132.017613
 42
0.100869
  0
VERTEX
  8
0
 10
290.923593
 20
132.392504
 42
0.098357
  0
VERTEX
  8
0
 10
290.706250
 20
132.711424
 42
0.097503
  0
VERTEX
  8
0
 10
290.381665
 20
132.925067
 42
0.097237
  0
VERTEX
  8
0
 10
290.000000
 20
133.000000
 42
-0.075785
  0
VERTEX
  8
0
 10
289.630042
 20
133.056399
 42
-0.107200
  0
VERTEX
  8
0
 10
289.341185
 20
133.220313
 42
-0.127727
  0
VERTEX
  8
0
 10
289.178752
 20
133.464499
 42
-0.137095
  0
VERTEX
  8
0
 10
289.161482
 20
133.750000
 42
0.132891
  0
VERTEX
  8
0
 10
289.108446
 20
134.765810
 42
0.010152
  0
VERTEX
  8
0
 10
288.194173
 20
137.377803
 42
0.015073
  0
VERTEX
  8
0
 10
287.089064
 20
140.088222
 42
0.026334
  0
VERTEX
  8
0
 10
285.991094
 20
142.250000
 42
-0.029641
  0
VERTEX
  8
0
 10
285.547406
 20
143.138064
 42
-0.186486
  0
VERTEX
  8
0
 10
285.529835
 20
143.635083
 42
-0.259393
  0
VERTEX
  8
0
 10
285.843818
 20
143.915957
 42
-0.055607
  0
VERTEX
  8
0
 10
286.597170
 20
144.000000
 42
-0.121536
  0
VERTEX
  8
0
 10
287.946627
 20
143.667068
 42
-0.025240
  0
VERTEX
  8
0
 10
290.064534
 20
142.414058
 42
-0.021374
  0
VERTEX
  8
0
 10
292.741059
 20
140.472996
 42
-0.010099
  0
VERTEX
  8
0
 10
296.030875
 20
137.755642
 42
0.049135
  0
VERTEX
  8
0
 10
299.705524
 20
135.174238
 42
0.017342
  0
VERTEX
  8
0
 10
305.422454
 20
132.201403
 42
0.016304
  0
VERTEX
  8
0
 10
312.250981
 20
129.215321
 42
0.014276
  0
VERTEX
  8
0
 10
319.566572
 20
126.535923
 42
-0.001326
  0
VERTEX
  8
0
 10
323.899831
 20
125.074934
 42
-0.001705
  0
VERTEX
  8
0
 10
327.875805
 20
123.707505
 42
-0.001302
  0
VERTEX
  8
0
 10
331.201566
 20
122.541286
 42
-0.014809
  0
VERTEX
  8
0
 10
332.500000
 20
122.038441
 42
0.012552
  0
VERTEX
  8
0
 10
339.267405
 20
119.382452
 42
0.007136
  0
VERTEX
  8
0
 10
347.574881
 20
116.493967
 42
0.006890
  0
VERTEX
  8
0
 10
355.570448
 20
113.962968
 42
0.021935
  0
VERTEX
  8
0
 10
361.000000
 20
112.582770
 42
-0.004180
  0
VERTEX
  8
0
 10
362.264833
 20
112.308647
 42
-0.001444
  0
VERTEX
  8
0
 10
364.087500
 20
111.892112
 42
-0.001434
  0
VERTEX
  8
0
 10
366.093842
 20
111.421432
 42
-0.001665
  0
VERTEX
  8
0
 10
368.000000
 20
110.961771
 42
0.005626
  0
VERTEX
  8
0
 10
369.942549
 20
110.509589
 42
0.004409
  0
VERTEX
  8
0
 10
372.059375
 20
110.061424
 42
0.004459
  0
VERTEX
  8
0
 10
374.036408
 20
109.679357
 42
0.010896
  0
VERTEX
  8
0
 10
375.500000
 20
109.442877
 42
-0.007279
  0
VERTEX
  8
0
 10
377.294388
 20
109.166251
 42
-0.001017
  0
VERTEX
  8
0
 10
380.996875
 20
108.532409
 42
-0.001163
  0
VERTEX
  8
0
 10
385.377074
 20
107.762881
 42
-0.000987
  0
VERTEX
  8
0
 10
390.000000
 20
106.930209
 42
0.001387
  0
VERTEX
  8
0
 10
394.586557
 20
106.107876
 42
0.001724
  0
VERTEX
  8
0
 10
398.856250
 20
105.369743
 42
0.001402
  0
VERTEX
  8
0
 10
402.444970
 20
104.772416
 42
0.013065
  0
VERTEX
  8
0
 10
404.000000
 20
104.559614
 42
-0.019761
  0
VERTEX
  8
0
 10
405.264169
 20
104.369340
 42
-0.006687
  0
VERTEX
  8
0
 10
407.087500
 20
103.995394
 42
-0.006639
  0
VERTEX
  8
0
 10
409.093813
 20
103.527879
 42
-0.007578
  0
VERTEX
  8
0
 10
411.000000
 20
103.026155
 42
0.001591
  0
VERTEX
  8
0
 10
412.796323
 20
102.530273
 42
0.001971
  0
VERTEX
  8
0
 10
414.471875
 20
102.080551
 42
0.001612
  0
VERTEX
  8
0
 10
415.881684
 20
101.712964
 42
0.014733
  0
VERTEX
  8
0
 10
416.500000
 20
101.573158
 42
-0.015675
  0
VERTEX
  8
0
 10
417.016804
 20
101.455281
 42
-0.004737
  0
VERTEX
  8
0
 10
417.793750
 20
101.244370
 42
-0.004741
  0
VERTEX
  8
0
 10
418.660944
 20
100.991218
 42
-0.005141
  0
VERTEX
  8
0
 10
419.500000
 20
100.728179
 42
0.016909
  0
VERTEX
  8
0
 10
421.504332
 20
100.151269
 42
0.007645
  0
VERTEX
  8
0
 10
424.165452
 20
99.524955
 42
0.006024
  0
VERTEX
  8
0
 10
427.581615
 20
98.818894
 42
0.002856
  0
VERTEX
  8
0
 10
432.000000
 20
97.987216
 42
-0.006979
  0
VERTEX
  8
0
 10
434.013628
 20
97.590966
 42
-0.004403
  0
VERTEX
  8
0
 10
436.353125
 20
97.075015
 42
-0.004420
  0
VERTEX
  8
0
 10
438.644602
 20
96.527082
 42
-0.008104
  0
VERTEX
  8
0
 10
440.500000
 20
96.033985
 42
0.007207
  0
VERTEX
  8
0
 10
442.214641
 20
95.574999
 42
0.005906
  0
VERTEX
  8
0
 10
444.059375
 20
95.132681
 42
0.005970
  0
VERTEX
  8
0
 10
445.765257
 20
94.766269
 42
0.015648
  0
VERTEX
  8
0
 10
447.000000
 20
94.556420
 42
-0.000258
  0
VERTEX
  8
0
 10
448.307098
 20
94.375461
 42
-0.000076
  0
VERTEX
  8
0
 10
450.307813
 20
94.097109
 42
-0.000077
  0
VERTEX
  8
0
 10
452.556654
 20
93.783534
 42
-0.000083
  0
VERTEX
  8
0
 10
454.750000
 20
93.476983
 42
0.019673
  0
VERTEX
  8
0
 10
458.224133
 20
93.129502
 42
0.165120
  0
VERTEX
  8
0
 10
459.723237
 20
93.539457
 42
0.385607
  0
VERTEX
  8
0
 10
459.960193
 20
94.505672
 42
0.065782
  0
VERTEX
  8
0
 10
458.748239
 20
96.178571
 42
-0.026807
  0
VERTEX
  8
0
 10
458.102559
 20
96.937833
 42
-0.006183
  0
VERTEX
  8
0
 10
457.100765
 20
98.286830
 42
-0.006370
  0
VERTEX
  8
0
 10
455.984414
 20
99.871709
 42
-0.006185
  0
VERTEX
  8
0
 10
454.897606
 20
101.500000
 42
0.008131
  0
VERTEX
  8
0
 10
453.727519
 20
103.238375
 42
0.005718
  0
VERTEX
  8
0
 10
452.357338
 20
105.157097
 42
0.005771
  0
VERTEX
  8
0
 10
451.003545
 20
106.963624
 42
0.012030
  0
VERTEX
  8
0
 10
449.899367
 20
108.332670
 42
-0.000511
  0
VERTEX
  8
0
 10
448.835021
 20
109.591833
 42
-0.000340
  0
VERTEX
  8
0
 10
447.617314
 20
111.037409
 42
-0.000342
  0
VERTEX
  8
0
 10
446.437549
 20
112.441828
 42
-0.000670
  0
VERTEX
  8
0
 10
445.500000
 20
113.562503
 42
0.002902
  0
VERTEX
  8
0
 10
439.453134
 20
120.725253
 42
0.013419
  0
VERTEX
  8
0
 10
435.822653
 20
124.751435
 42
0.022735
  0
VERTEX
  8
0
 10
433.041690
 20
127.419772
 42
0.029507
  0
VERTEX
  8
0
 10
430.252176
 20
129.585946
 42
-0.011176
  0
VERTEX
  8
0
 10
428.624470
 20
130.756917
 42
-0.016380
  0
VERTEX
  8
0
 10
427.251512
 20
131.864309
 42
-0.011756
  0
VERTEX
  8
0
 10
426.183699
 20
132.829583
 42
-0.205152
  0
VERTEX
  8
0
 10
426.002176
 20
133.250000
 42
0.190779
  0
VERTEX
  8
0
 10
425.887799
 20
133.536424
 42
0.087919
  0
VERTEX
  8
0
 10
425.560014
 20
133.779687
 42
0.067890
  0
VERTEX
  8
0
 10
425.074221
 20
133.944726
 42
0.048018
  0
VERTEX
  8
0
 10
424.500000
 20
134.000000
 42
-0.053087
  0
VERTEX
  8
0
 10
423.926120
 20
134.061103
 42
-0.072899
  0
VERTEX
  8
0
 10
423.440625
 20
134.242565
 42
-0.092737
  0
VERTEX
  8
0
 10
423.114612
 20
134.510637
 42
-0.176209
  0
VERTEX
  8
0
 10
423.000000
 20
134.825755
 42
0.247452
  0
VERTEX
  8
0
 10
422.767487
 20
135.266802
 42
0.010428
  0
VERTEX
  8
0
 10
421.238174
 20
136.267941
 42
0.015883
  0
VERTEX
  8
0
 10
419.300804
 20
137.395306
 42
0.010400
  0
VERTEX
  8
0
 10
417.002296
 20
138.575755
 42
-0.007085
  0
VERTEX
  8
0
 10
414.703193
 20
139.737314
 42
-0.011136
  0
VERTEX
  8
0
 10
412.765742
 20
140.806488
 42
-0.005363
  0
VERTEX
  8
0
 10
411.177524
 20
141.752603
 42
-0.260338
  0
VERTEX
  8
0
 10
411.002296
 20
142.063354
 42
0.255639
  0
VERTEX
  8
0
 10
410.845818
 20
142.346656
 42
0.015123
  0
VERTEX
  8
0
 10
409.972549
 20
142.864627
 42
0.019777
  0
VERTEX
  8
0
 10
408.841393
 20
143.432923
 42
0.013028
  0
VERTEX
  8
0
 10
407.500000
 20
144.000000
 42
-0.018834
  0
VERTEX
  8
0
 10
406.159192
 20
144.585268
 42
-0.027303
  0
VERTEX
  8
0
 10
405.028125
 20
145.208811
 42
-0.026011
  0
VERTEX
  8
0
 10
404.191736
 20
145.793919
 42
-0.231074
  0
VERTEX
  8
0
 10
404.000000
 20
146.186646
 42
0.174871
  0
VERTEX
  8
0
 10
403.888027
 20
146.497016
 42
0.093108
  0
VERTEX
  8
0
 10
403.569794
 20
146.761077
 42
0.073345
  0
VERTEX
  8
0
 10
403.095761
 20
146.939790
 42
0.053576
  0
VERTEX
  8
0
 10
402.535469
 20
147.000000
 42
-0.131043
  0
VERTEX
  8
0
 10
400.214200
 20
147.619003
 42
-0.006021
  0
VERTEX
  8
0
 10
393.100806
 20
151.817931
 42
-0.010964
  0
VERTEX
  8
0
 10
386.051223
 20
156.308837
 42
-0.024974
  0
VERTEX
  8
0
 10
380.986778
 20
160.072291
 42
0.028619
  0
VERTEX
  8
0
 10
377.304322
 20
162.767350
 42
0.016341
  0
VERTEX
  8
0
 10
372.580381
 20
165.611179
 42
0.014417
  0
VERTEX
  8
0
 10
366.953613
 20
168.543258
 42
0.010292
  0
VERTEX
  8
0
 10
360.500000
 20
171.510572
 42
-0.006772
  0
VERTEX
  8
0
 10
352.027378
 20
175.334187
 42
-0.014106
  0
VERTEX
  8
0
 10
345.554990
 20
178.586846
 42
-0.009654
  0
VERTEX
  8
0
 10
340.699791
 20
181.323079
 42
-0.265563
  0
VERTEX
  8
0
 10
340.000000
 20
182.547718
 42
-0.273148
  0
VERTEX
  8
0
 10
340.425344
 20
183.268223
 42
-0.081178
  0
VERTEX
  8
0
 10
341.678927
 20
183.714793
 42
-0.036520
  0
VERTEX
  8
0
 10
344.005077
 20
183.965139
 42
-0.007011
  0
VERTEX
  8
0
 10
348.250000
 20
184.050817
 42
0.011438
  0
VERTEX
  8
0
 10
356.529252
 20
184.291272
 42
0.028043
  0
VERTEX
  8
0
 10
362.583146
 20
184.947538
 42
0.026335
  0
VERTEX
  8
0
 10
368.743518
 20
186.303869
 42
0.009055
  0
VERTEX
  8
0
 10
377.500000
 20
188.892918
 42
-0.000668
  0
VERTEX
  8
0
 10
382.643771
 20
190.508091
 42
-0.000538
  0
VERTEX
  8
0
 10
388.178125
 20
192.231256
 42
-0.000543
  0
VERTEX
  8
0
 10
393.294029
 20
193.812008
 42
-0.001394
  0
VERTEX
  8
0
 10
397.000000
 20
194.941399
 42
0.003626
  0
VERTEX
  8
0
 10
402.601521
 20
196.675829
 42
0.002944
  0
VERTEX
  8
0
 10
408.581676
 20
198.613970
 42
0.002987
  0
VERTEX
  8
0
 10
414.410253
 20
200.579682
 42
0.004296
  0
VERTEX
  8
0
 10
419.544795
 20
202.395039
 42
0.017972
  0
VERTEX
  8
0
 10
420.904270
 20
202.944934
 42
0.010767
  0
VERTEX
  8
0
 10
422.479501
 20
203.690079
 42
0.010775
  0
VERTEX
  8
0
 10
424.017156
 20
204.500256
 42
0.018393
  0
VERTEX
  8
0
 10
425.259612
 20
205.250535
 42
-0.011280
  0
VERTEX
  8
0
 10
426.334192
 20
205.920477
 42
-0.014411
  0
VERTEX
  8
0
 10
427.354700
 20
206.486095
 42
-0.012327
  0
VERTEX
  8
0
 10
428.224853
 20
206.909253
 42
-0.107405
  0
VERTEX
  8
0
 10
428.642433
 20
207.000000
 42
0.109297
  0
VERTEX
  8
0
 10
429.172510
 20
207.117273
 42
0.000576
  0
VERTEX
  8
0
 10
434.013986
 20
209.376540
 42
0.002511
  0
VERTEX
  8
0
 10
439.523513
 20
211.989087
 42
0.001586
  0
VERTEX
  8
0
 10
445.927617
 20
215.090349
 42
-0.000853
  0
VERTEX
  8
0
 10
452.439821
 20
218.255752
 42
-0.001180
  0
VERTEX
  8
0
 10
458.292800
 20
221.071367
 42
-0.000732
  0
VERTEX
  8
0
 10
463.226697
 20
223.421662
 42
-0.014724
  0
VERTEX
  8
0
 10
464.750000
 20
224.090349
 42
-0.000558
  0
VERTEX
  8
0
 10
467.436547
 20
225.173005
 42
-0.000659
  0
VERTEX
  8
0
 10
469.980783
 20
226.191122
 42
-0.000715
  0
VERTEX
  8
0
 10
472.288091
 20
227.107083
 42
-0.001163
  0
VERTEX
  8
0
 10
474.250000
 20
227.877413
 42
0.005534
  0
VERTEX
  8
0
 10
475.590375
 20
228.417272
 42
0.000782
  0
VERTEX
  8
0
 10
478.335938
 20
229.563609
 42
0.000891
  0
VERTEX
  8
0
 10
481.580671
 20
230.931131
 42
0.000759
  0
VERTEX
  8
0
 10
485.000000
 20
232.385544
 42
-0.002551
  0
VERTEX
  8
0
 10
488.302736
 20
233.776407
 42
-0.003883
  0
VERTEX
  8
0
 10
491.186439
 20
234.947351
 42
-0.001464
  0
VERTEX
  8
0
 10
493.673388
 20
235.926343
 42
-0.096580
  0
VERTEX
  8
0
 10
494.124047
 20
236.008132
 42
0.113583
  0
VERTEX
  8
0
 10
494.539089
 20
236.097970
 42
0.004479
  0
VERTEX
  8
0
 10
495.949982
 20
236.776593
 42
0.007729
  0
VERTEX
  8
0
 10
497.611642
 20
237.626394
 42
0.005365
  0
VERTEX
  8
0
 10
499.463676
 20
238.635589
 42
0.013053
  0
VERTEX
  8
0
 10
501.644830
 20
239.930507
 42
0.059368
  0
VERTEX
  8
0
 10
502.790727
 20
240.858029
 42
0.169631
  0
VERTEX
  8
0
 10
503.112777
 20
241.549858
 42
0.285828
  0
VERTEX
  8
0
 10
502.839629
 20
242.105077
 42
-0.073587
  0
VERTEX
  8
0
 10
502.238804
 20
242.614955
 42
-0.167286
  0
VERTEX
  8
0
 10
502.016031
 20
243.158939
 42
-0.122220
  0
VERTEX
  8
0
 10
502.145203
 20
243.845196
 42
-0.031344
  0
VERTEX
  8
0
 10
502.682606
 20
244.848004
 42
0.069897
  0
VERTEX
  8
0
 10
503.169140
 20
245.952125
 42
0.227194
  0
VERTEX
  8
0
 10
503.036379
 20
246.719478
 42
0.118369
  0
VERTEX
  8
0
 10
502.235706
 20
247.417536
 42
0.014442
  0
VERTEX
  8
0
 10
500.126256
 20
248.443066
 42
0.014409
  0
VERTEX
  8
0
 10
498.625473
 20
249.068437
 42
0.018430
  0
VERTEX
  8
0
 10
497.208422
 20
249.552458
 42
0.016532
  0
VERTEX
  8
0
 10
496.014622
 20
249.869048
 42
0.128625
  0
VERTEX
  8
0
 10
495.443650
 20
249.852098
 42
-0.113299
  0
VERTEX
  8
0
 10
494.940966
 20
249.821958
 42
-0.030143
  0
VERTEX
  8
0
 10
494.153483
 20
250.003037
 42
-0.028964
  0
VERTEX
  8
0
 10
493.258850
 20
250.323733
 42
-0.026273
  0
VERTEX
  8
0
 10
492.376718
 20
250.754914
 42
0.042079
  0
VERTEX
  8
0
 10
490.690834
 20
251.513996
 42
0.016504
  0
VERTEX
  8
0
 10
488.257485
 20
252.282621
 42
0.010652
  0
VERTEX
  8
0
 10
484.682433
 20
253.201753
 42
0.002905
  0
VERTEX
  8
0
 10
479.000000
 20
254.499527
 42
-0.001109
  0
VERTEX
  8
0
 10
478.157500
 20
254.688758
 42
-0.000225
  0
VERTEX
  8
0
 10
476.664909
 20
255.028193
 42
-0.000238
  0
VERTEX
  8
0
 10
474.929803
 20
255.424468
 42
-0.000223
  0
VERTEX
  8
0
 10
473.157138
 20
255.831039
 42
0.051138
  0
VERTEX
  8
0
 10
468.415096
 20
256.420708
 42
0.006962
  0
VERTEX
  8
0
 10
458.407163
 20
256.496791
 42
0.007927
  0
VERTEX
  8
0
 10
448.373247
 20
256.274239
 42
0.035019
  0
VERTEX
  8
0
 10
442.500000
 20
255.637211
 42
-0.008188
  0
VERTEX
  8
0
 10
440.975481
 20
255.388564
 42
-0.002828
  0
VERTEX
  8
0
 10
438.765625
 20
255.077950
 42
-0.002809
  0
VERTEX
  8
0
 10
436.325679
 20
254.763005
 42
-0.003258
  0
VERTEX
  8
0
 10
434.000000
 20
254.491456
 42
0.006561
  0
VERTEX
  8
0
 10
431.747658
 20
254.213375
 42
0.006782
  0
VERTEX
  8
0
 10
429.528125
 20
253.878999
 42
0.006578
  0
VERTEX
  8
0
 10
427.614429
 20
253.538179
 42
0.028749
  0
VERTEX
  8
0
 10
426.500000
 20
253.257314
 42
-0.062147
  0
VERTEX
  8
0
 10
425.096968
 20
253.001668
 42
-0.003059
  0
VERTEX
  8
0
 10
420.387500
 20
252.766100
 42
-0.004913
  0
VERTEX
  8
0
 10
414.774846
 20
252.575002
 42
-0.003525
  0
VERTEX
  8
0
 10
408.500000
 20
252.467326
 42
0.005928
  0
VERTEX
  8
0
 10
400.949745
 20
252.301464
 42
0.011466
  0
VERTEX
  8
0
 10
394.919198
 20
251.958848
 42
0.014201
  0
VERTEX
  8
0
 10
390.127405
 20
251.438907
 42
0.030847
  0
VERTEX
  8
0
 10
386.500000
 20
250.710553
 42
-0.014388
  0
VERTEX
  8
0
 10
380.980608
 20
249.412069
 42
-0.004492
  0
VERTEX
  8
0
 10
372.632849
 20
247.778056
 42
-0.002940
  0
VERTEX
  8
0
 10
364.253799
 20
246.266869
 42
-0.042526
  0
VERTEX
  8
0
 10
361.250000
 20
246.003195
 42
-0.288558
  0
VERTEX
  8
0
 10
360.261389
 20
246.622038
 42
-0.263861
  0
VERTEX
  8
0
 10
360.341792
 20
247.832634
 42
-0.077136
  0
VERTEX
  8
0
 10
362.119907
 20
249.794726
 42
-0.026413
  0
VERTEX
  8
0
 10
365.234876
 20
252.055255
 42
0.031759
  0
VERTEX
  8
0
 10
370.638265
 20
256.065297
 42
0.021615
  0
VERTEX
  8
0
 10
376.266190
 20
261.257671
 42
0.021526
  0
VERTEX
  8
0
 10
381.461703
 20
266.955017
 42
0.030058
  0
VERTEX
  8
0
 10
385.557679
 20
272.500000
 42
-0.003291
  0
VERTEX
  8
0
 10
387.125058
 20
274.878281
 42
-0.004128
  0
VERTEX
  8
0
 10
388.610804
 20
277.061489
 42
-0.003330
  0
VERTEX
  8
0
 10
389.883736
 20
278.873281
 42
-0.032094
  0
VERTEX
  8
0
 10
390.477753
 20
279.602941
 42
0.018140
  0
VERTEX
  8
0
 10
391.470105
 20
280.754744
 42
0.002688
  0
VERTEX
  8
0
 10
393.374396
 20
283.160771
 42
0.001576
  0
VERTEX
  8
0
 10
396.528605
 20
287.216649
 42
0.000219
  0
VERTEX
  8
0
 10
403.033381
 20
295.643160
 42
0.008597
  0
VERTEX
  8
0
 10
404.552897
 20
297.685031
 42
0.012018
  0
VERTEX
  8
0
 10
405.834806
 20
299.564683
 42
0.008461
  0
VERTEX
  8
0
 10
406.831672
 20
301.163285
 42
0.135994
  0
VERTEX
  8
0
 10
407.000000
 20
301.770716
 42
-0.107367
  0
VERTEX
  8
0
 10
407.100320
 20
302.232512
 42
-0.039403
  0
VERTEX
  8
0
 10
407.426062
 20
302.819545
 42
-0.036832
  0
VERTEX
  8
0
 10
407.895415
 20
303.425560
 42
-0.036379
  0
VERTEX
  8
0
 10
408.450425
 20
303.958856
 42
0.082493
  0
VERTEX
  8
0
 10
410.376022
 20
306.183533
 42
0.007139
  0
VERTEX
  8
0
 10
414.210087
 20
312.659219
 42
0.008153
  0
VERTEX
  8
0
 10
418.978153
 20
321.305046
 42
0.003958
  0
VERTEX
  8
0
 10
424.803002
 20
332.500000
 42
-0.005200
  0
VERTEX
  8
0
 10
426.621111
 20
335.973175
 42
-0.007863
  0
VERTEX
  8
0
 10
428.282193
 20
338.954167
 42
-0.003687
  0
VERTEX
  8
0
 10
429.744369
 20
341.441297
 42
-0.160898
  0
VERTEX
  8
0
 10
430.197820
 20
341.833333
 42
0.097733
  0
VERTEX
  8
0
 10
430.504604
 20
342.038153
 42
0.064747
  0
VERTEX
  8
0
 10
430.764360
 20
342.374258
 42
0.061862
  0
VERTEX
  8
0
 10
430.940133
 20
342.784182
 42
0.070495
  0
VERTEX
  8
0
 10
431.000000
 20
343.206692
 42
-0.117897
  0
VERTEX
  8
0
 10
431.163224
 20
343.889305
 42
-0.004955
  0
VERTEX
  8
0
 10
432.321875
 20
346.118518
 42
-0.008310
  0
VERTEX
  8
0
 10
433.775927
 20
348.743479
 42
-0.005789
  0
VERTEX
  8
0
 10
435.500000
 20
351.658828
 42
0.004912
  0
VERTEX
  8
0
 10
437.224262
 20
354.562857
 42
0.007209
  0
VERTEX
  8
0
 10
438.678125
 20
357.152483
 42
0.003808
  0
VERTEX
  8
0
 10
439.854689
 20
359.360798
 42
0.121065
  0
VERTEX
  8
0
 10
440.000000
 20
359.952136
 42
-0.091623
  0
VERTEX
  8
0
 10
440.066856
 20
360.313919
 42
-0.067435
  0
VERTEX
  8
0
 10
440.262758
 20
360.672398
 42
-0.065973
  0
VERTEX
  8
0
 10
440.552562
 20
360.973335
 42
-0.079109
  0
VERTEX
  8
0
 10
440.894495
 20
361.166667
 42
0.118346
  0
VERTEX
  8
0
 10
441.347302
 20
361.471361
 42
0.017399
  0
VERTEX
  8
0
 10
442.071286
 20
362.316907
 42
0.018826
  0
VERTEX
  8
0
 10
442.868523
 20
363.397439
 42
0.015172
  0
VERTEX
  8
0
 10
443.644495
 20
364.614293
 42
-0.000417
  0
VERTEX
  8
0
 10
444.627368
 20
366.260829
 42
-0.000116
  0
VERTEX
  8
0
 10
446.168568
 20
368.836439
 42
-0.000117
  0
VERTEX
  8
0
 10
447.913638
 20
371.749657
 42
-0.000123
  0
VERTEX
  8
0
 10
449.631482
 20
374.614293
 42
0.008751
  0
VERTEX
  8
0
 10
453.500292
 20
381.325708
 42
0.008174
  0
VERTEX
  8
0
 10
457.223478
 20
388.321506
 42
0.002166
  0
VERTEX
  8
0
 10
460.620012
 20
395.034676
 42
0.322938
  0
VERTEX
  8
0
 10
460.488756
 20
395.844578
 42
0.260923
  0
VERTEX
  8
0
 10
459.506131
 20
396.121754
 42
0.002999
  0
VERTEX
  8
0
 10
452.673103
 20
394.438535
 42
0.005669
  0
VERTEX
  8
0
 10
446.181098
 20
392.719436
 42
0.099727
  0
VERTEX
  8
0
 10
444.250000
 20
391.740944
 42
-0.032035
  0
VERTEX
  8
0
 10
443.769757
 20
391.409746
 42
-0.074915
  0
VERTEX
  8
0
 10
443.367188
 20
391.244199
 42
-0.163642
  0
VERTEX
  8
0
 10
443.110715
 20
391.265745
 42
-0.299114
  0
VERTEX
  8
0
 10
443.000000
 20
391.434259
 42
0.448825
  0
VERTEX
  8
0
 10
442.836511
 20
391.579700
 42
0.064928
  0
VERTEX
  8
0
 10
442.347139
 20
391.456626
 42
0.039381
  0
VERTEX
  8
0
 10
441.630761
 20
391.106343
 42
0.019380
  0
VERTEX
  8
0
 10
440.777494
 20
390.556704
 42
-0.025663
  0
VERTEX
  8
0
 10
439.826516
 20
389.960890
 42
-0.024697
  0
VERTEX
  8
0
 10
438.807481
 20
389.457282
 42
-0.025497
  0
VERTEX
  8
0
 10
437.866548
 20
389.104583
 42
-0.077064
  0
VERTEX
  8
0
 10
437.192033
 20
389.000000
 42
0.091250
  0
VERTEX
  8
0
 10
436.334224
 20
388.842136
 42
0.006992
  0
VERTEX
  8
0
 10
434.142494
 20
387.971875
 42
0.009413
  0
VERTEX
  8
0
 10
431.545099
 20
386.840547
 42
0.007035
  0
VERTEX
  8
0
 10
428.724558
 20
385.500000
 42
-0.006766
  0
VERTEX
  8
0
 10
425.907831
 20
384.159411
 42
-0.009126
  0
VERTEX
  8
0
 10
423.322172
 20
383.028125
 42
-0.006631
  0
VERTEX
  8
0
 10
421.140447
 20
382.154398
 42
-0.092173
  0
VERTEX
  8
0
 10
420.310018
 20
382.000000
 42
0.074745
  0
VERTEX
  8
0
 10
419.809484
 20
381.924755
 42
0.088622
  0
VERTEX
  8
0
 10
419.384818
 20
381.706250
 42
0.100673
  0
VERTEX
  8
0
 10
419.100931
 20
381.381354
 42
0.130093
  0
VERTEX
  8
0
 10
419.000000
 20
381.000000
 42
-0.133491
  0
VERTEX
  8
0
 10
418.896341
 20
380.618656
 42
-0.100499
  0
VERTEX
  8
0
 10
418.604903
 20
380.293750
 42
-0.087472
  0
VERTEX
  8
0
 10
418.168952
 20
380.075135
 42
-0.072708
  0
VERTEX
  8
0
 10
417.654988
 20
380.000000
 42
0.105367
  0
VERTEX
  8
0
 10
417.013640
 20
379.863329
 42
0.036283
  0
VERTEX
  8
0
 10
416.173392
 20
379.412500
 42
0.034148
  0
VERTEX
  8
0
 10
415.291860
 20
378.765355
 42
0.033439
  0
VERTEX
  8
0
 10
414.500000
 20
378.000000
 42
-0.023141
  0
VERTEX
  8
0
 10
413.739816
 20
377.234383
 42
-0.027454
  0
VERTEX
  8
0
 10
412.952501
 20
376.587500
 42
-0.027986
  0
VERTEX
  8
0
 10
412.241357
 20
376.124684
 42
-0.130987
  0
VERTEX
  8
0
 10
411.773584
 20
376.000000
 42
0.095350
  0
VERTEX
  8
0
 10
411.331534
 20
375.914927
 42
0.032790
  0
VERTEX
  8
0
 10
410.741207
 20
375.632812
 42
0.031185
  0
VERTEX
  8
0
 10
410.115351
 20
375.228370
 42
0.031379
  0
VERTEX
  8
0
 10
409.546027
 20
374.750000
 42
-0.012820
  0
VERTEX
  8
0
 10
408.782078
 20
374.058168
 42
-0.002426
  0
VERTEX
  8
0
 10
407.350494
 20
372.839063
 42
-0.002590
  0
VERTEX
  8
0
 10
405.663795
 20
371.431648
 42
-0.002373
  0
VERTEX
  8
0
 10
403.913014
 20
370.000000
 42
0.014244
  0
VERTEX
  8
0
 10
401.635679
 20
368.045766
 42
0.003577
  0
VERTEX
  8
0
 10
398.038893
 20
364.729574
 42
0.003650
  0
VERTEX
  8
0
 10
393.979765
 20
360.877095
 42
0.003670
  0
VERTEX
  8
0
 10
389.985053
 20
356.973017
 42
-0.008165
  0
VERTEX
  8
0
 10
385.908295
 20
353.059774
 42
-0.007568
  0
VERTEX
  8
0
 10
381.602919
 20
349.179823
 42
-0.007575
  0
VERTEX
  8
0
 10
377.667785
 20
345.843822
 42
-0.025065
  0
VERTEX
  8
0
 10
374.939495
 20
343.821311
 42
0.006525
  0
VERTEX
  8
0
 10
372.637062
 20
342.243263
 42
0.005344
  0
VERTEX
  8
0
 10
370.216602
 20
340.498460
 42
0.005401
  0
VERTEX
  8
0
 10
368.025174
 20
338.846053
 42
0.014164
  0
VERTEX
  8
0
 10
366.500000
 20
337.599515
 42
-0.008472
  0
VERTEX
  8
0
 10
365.310425
 20
336.604465
 42
-0.012076
  0
VERTEX
  8
0
 10
364.218634
 20
335.764974
 42
-0.008117
  0
VERTEX
  8
0
 10
363.287133
 20
335.106821
 42
-0.150284
  0
VERTEX
  8
0
 10
362.946413
 20
335.001221
 42
0.217437
  0
VERTEX
  8
0
 10
362.608629
 20
334.846137
 42
0.003673
  0
VERTEX
  8
0
 10
361.249308
 20
333.248016
 42
0.008671
  0
VERTEX
  8
0
 10
359.690669
 20
331.321134
 42
0.005567
  0
VERTEX
  8
0
 10
357.946413
 20
329.034577
 42
-0.012896
  0
VERTEX
  8
0
 10
356.115744
 20
326.706312
 42
-0.016059
  0
VERTEX
  8
0
 10
354.292071
 20
324.644671
 42
-0.014381
  0
VERTEX
  8
0
 10
352.675531
 20
323.027174
 42
-0.106811
  0
VERTEX
  8
0
 10
351.750000
 20
322.467190
 42
0.052656
  0
VERTEX
  8
0
 10
351.080678
 20
322.154930
 42
0.057811
  0
VERTEX
  8
0
 10
350.514063
 20
321.717691
 42
0.065546
  0
VERTEX
  8
0
 10
350.128278
 20
321.227907
 42
0.134876
  0
VERTEX
  8
0
 10
350.000000
 20
320.761017
 42
-0.196197
  0
VERTEX
  8
0
 10
349.398338
 20
319.286732
 42
-0.005600
  0
VERTEX
  8
0
 10
344.487030
 20
314.382771
 42
-0.005714
  0
VERTEX
  8
0
 10
339.473679
 20
309.598506
 42
-0.189882
  0
VERTEX
  8
0
 10
337.954506
 20
309.000000
 42
-0.287931
  0
VERTEX
  8
0
 10
337.313286
 20
309.402634
 42
-0.158235
  0
VERTEX
  8
0
 10
337.183359
 20
310.355371
 42
-0.035049
  0
VERTEX
  8
0
 10
337.717673
 20
312.461960
 42
-0.002699
  0
VERTEX
  8
0
 10
339.576724
 20
318.000000
 42
0.023757
  0
VERTEX
  8
0
 10
341.848807
 20
325.849356
 42
0.037733
  0
VERTEX
  8
0
 10
342.954647
 20
332.753333
 42
0.019006
  0
VERTEX
  8
0
 10
343.395195
 20
342.453026
 42
0.002139
  0
VERTEX
  8
0
 10
343.463611
 20
364.500000
 42
0.002508
  0
VERTEX
  8
0
 10
343.337300
 20
384.903721
 42
0.009953
  0
VERTEX
  8
0
 10
342.947412
 20
397.430864
 42
0.016045
  0
VERTEX
  8
0
 10
342.209112
 20
406.294120
 42
0.026652
  0
VERTEX
  8
0
 10
340.952081
 20
413.684140
 42
-0.017728
  0
VERTEX
  8
0
 10
340.095868
 20
418.226123
 42
-0.005269
  0
VERTEX
  8
0
 10
339.107761
 20
425.220932
 42
-0.005328
  0
VERTEX
  8
0
 10
338.173267
 20
433.027356
 42
-0.006118
  0
VERTEX
  8
0
 10
337.451798
 20
440.500000
 42
-0.000391
  0
VERTEX
  8
0
 10
336.556175
 20
451.235932
 42
-0.001682
  0
VERTEX
  8
0
 10
336.049467
 20
457.629878
 42
-0.002748
  0
VERTEX
  8
0
 10
335.724074
 20
462.255990
 42
-0.003565
  0
VERTEX
  8
0
 10
335.479359
 20
466.500000
 42
0.005404
  0
VERTEX
  8
0
 10
335.329428
 20
468.943760
 42
0.005812
  0
VERTEX
  8
0
 10
335.129630
 20
471.325000
 42
0.005519
  0
VERTEX
  8
0
 10
334.911876
 20
473.364388
 42
0.027400
  0
VERTEX
  8
0
 10
334.714373
 20
474.500000
 42
-0.016174
  0
VERTEX
  8
0
 10
334.493021
 20
475.622859
 42
-0.003414
  0
VERTEX
  8
0
 10
334.183627
 20
477.596932
 42
-0.003572
  0
VERTEX
  8
0
 10
333.856676
 20
479.892220
 42
-0.003382
  0
VERTEX
  8
0
 10
333.556238
 20
482.234237
 42
0.013213
  0
VERTEX
  8
0
 10
333.224478
 20
484.471019
 42
0.018507
  0
VERTEX
  8
0
 10
332.802061
 20
486.446262
 42
0.015029
  0
VERTEX
  8
0
 10
332.351201
 20
488.027577
 42
0.179238
  0
VERTEX
  8
0
 10
331.966488
 20
488.520712
 42
0.284445
  0
VERTEX
  8
0
 10
330.952932
 20
488.520025
 42
0.050881
  0
VERTEX
  8
0
 10
329.386281
 20
487.312644
 42
0.039668
  0
VERTEX
  8
0
 10
327.544024
 20
485.267379
 42
0.021278
  0
VERTEX
  8
0
 10
325.592586
 20
482.483495
 42
-0.017922
  0
VERTEX
  8
0
 10
324.762209
 20
481.281821
 42
-0.017721
  0
VERTEX
  8
0
 10
323.844912
 20
480.138035
 42
-0.017895
  0
VERTEX
  8
0
 10
322.972243
 20
479.195962
 42
-0.062844
  0
VERTEX
  8
0
 10
322.321554
 20
478.688540
 42
0.061539
  0
VERTEX
  8
0
 10
321.839455
 20
478.314599
 42
0.081003
  0
VERTEX
  8
0
 10
321.513635
 20
477.864429
 42
0.099520
  0
VERTEX
  8
0
 10
321.389869
 20
477.410995
 42
0.156675
  0
VERTEX
  8
0
 10
321.486060
 20
477.022555
 42
-0.242774
  0
VERTEX
  8
0
 10
321.524945
 20
476.520137
 42
-0.036136
  0
VERTEX
  8
0
 10
321.049152
 20
475.586556
 42
-0.033905
  0
VERTEX
  8
0
 10
320.274825
 20
474.481855
 42
-0.023129
  0
VERTEX
  8
0
 10
319.257093
 20
473.334016
 42
0.021468
  0
VERTEX
  8
0
 10
318.093459
 20
472.030372
 42
0.014487
  0
VERTEX
  8
0
 10
316.875936
 20
470.451242
 42
0.014611
  0
VERTEX
  8
0
 10
315.785538
 20
468.852689
 42
0.027963
  0
VERTEX
  8
0
 10
315.022688
 20
467.500000
 42
-0.008433
  0
VERTEX
  8
0
 10
314.299517
 20
466.091875
 42
-0.004069
  0
VERTEX
  8
0
 10
313.328421
 20
464.311959
 42
-0.004033
  0
VERTEX
  8
0
 10
312.285801
 20
462.472477
 42
-0.005775
  0
VERTEX
  8
0
 10
311.329495
 20
460.859860
 42
0.015987
  0
VERTEX
  8
0
 10
310.518635
 20
459.426586
 42
0.024594
  0
VERTEX
  8
0
 10
309.919875
 20
458.133664
 42
0.021613
  0
VERTEX
  8
0
 10
309.545675
 20
457.080181
 42
0.277696
  0
VERTEX
  8
0
 10
309.642453
 20
456.690880
 42
-0.327205
  0
VERTEX
  8
0
 10
309.686737
 20
456.403610
 42
-0.072971
  0
VERTEX
  8
0
 10
309.378129
 20
455.976038
 42
-0.049519
  0
VERTEX
  8
0
 10
308.794616
 20
455.483586
 42
-0.027660
  0
VERTEX
  8
0
 10
308.000000
 20
455.000000
 42
0.028826
  0
VERTEX
  8
0
 10
307.206992
 20
454.514858
 42
0.051602
  0
VERTEX
  8
0
 10
306.628223
 20
454.017610
 42
0.077092
  0
VERTEX
  8
0
 10
306.328999
 20
453.583989
 42
0.319099
  0
VERTEX
  8
0
 10
306.379170
 20
453.287497
 42
-0.210573
  0
VERTEX
  8
0
 10
306.515433
 20
452.936508
 42
-0.045570
  0
VERTEX
  8
0
 10
306.425209
 20
452.276418
 42
-0.040143
  0
VERTEX
  8
0
 10
306.169419
 20
451.470026
 42
-0.029006
  0
VERTEX
  8
0
 10
305.762909
 20
450.618517
 42
0.014487
  0
VERTEX
  8
0
 10
305.301527
 20
449.720100
 42
0.013383
  0
VERTEX
  8
0
 10
304.879909
 20
448.772649
 42
0.013513
  0
VERTEX
  8
0
 10
304.549963
 20
447.908936
 42
0.042705
  0
VERTEX
  8
0
 10
304.395331
 20
447.309651
 42
-0.022046
  0
VERTEX
  8
0
 10
304.253586
 20
446.648666
 42
-0.004528
  0
VERTEX
  8
0
 10
303.941736
 20
445.496758
 42
-0.004756
  0
VERTEX
  8
0
 10
303.554241
 20
444.164046
 42
-0.004457
  0
VERTEX
  8
0
 10
303.133226
 20
442.809651
 42
0.007253
  0
VERTEX
  8
0
 10
302.691401
 20
441.359763
 42
0.005302
  0
VERTEX
  8
0
 10
302.241329
 20
439.737835
 42
0.005358
  0
VERTEX
  8
0
 10
301.847585
 20
438.191689
 42
0.011784
  0
VERTEX
  8
0
 10
301.587251
 20
437.000000
 42
-0.001507
  0
VERTEX
  8
0
 10
301.363034
 20
435.861953
 42
-0.000882
  0
VERTEX
  8
0
 10
301.087937
 20
434.500000
 42
-0.000882
  0
VERTEX
  8
0
 10
300.807847
 20
433.138103
 42
-0.001498
  0
VERTEX
  8
0
 10
300.568132
 20
432.000000
 42
0.001722
  0
VERTEX
  8
0
 10
299.797442
 20
428.332828
 42
0.004342
  0
VERTEX
  8
0
 10
299.268735
 20
425.656211
 42
0.005216
  0
VERTEX
  8
0
 10
298.845839
 20
423.276924
 42
0.003798
  0
VERTEX
  8
0
 10
298.423375
 20
420.623280
 42
-0.001219
  0
VERTEX
  8
0
 10
298.176606
 20
419.020013
 42
-0.001198
  0
VERTEX
  8
0
 10
297.920587
 20
417.408507
 42
-0.001177
  0
VERTEX
  8
0
 10
297.689404
 20
415.996646
 42
-0.004564
  0
VERTEX
  8
0
 10
297.536078
 20
415.123280
 42
0.003304
  0
VERTEX
  8
0
 10
297.375173
 20
414.220114
 42
0.000713
  0
VERTEX
  8
0
 10
297.109286
 20
412.654963
 42
0.000744
  0
VERTEX
  8
0
 10
296.806709
 20
410.841868
 42
0.000711
  0
VERTEX
  8
0
 10
296.504835
 20
409.000000
 42
-0.014497
  0
VERTEX
  8
0
 10
296.157320
 20
407.193258
 42
-0.016466
  0
VERTEX
  8
0
 10
295.717747
 20
405.485608
 42
-0.015814
  0
VERTEX
  8
0
 10
295.253546
 20
404.068225
 42
-0.082670
  0
VERTEX
  8
0
 10
294.851849
 20
403.355260
 42
0.046355
  0
VERTEX
  8
0
 10
294.519545
 20
402.853991
 42
0.045102
  0
VERTEX
  8
0
 10
294.281715
 20
402.295555
 42
0.048693
  0
VERTEX
  8
0
 10
294.165798
 20
401.765170
 42
0.107893
  0
VERTEX
  8
0
 10
294.205724
 20
401.355260
 42
-0.147892
  0
VERTEX
  8
0
 10
294.221970
 20
400.472136
 42
-0.008366
  0
VERTEX
  8
0
 10
293.426529
 20
397.825838
 42
-0.009803
  0
VERTEX
  8
0
 10
292.186652
 20
394.186221
 42
-0.003427
  0
VERTEX
  8
0
 10
290.265337
 20
389.000000
 42
0.021301
  0
VERTEX
  8
0
 10
289.721757
 20
387.354449
 42
0.022479
  0
VERTEX
  8
0
 10
289.331222
 20
385.697732
 42
0.019555
  0
VERTEX
  8
0
 10
289.052880
 20
383.823682
 42
0.010572
  0
VERTEX
  8
0
 10
288.849743
 20
381.500000
 42
-0.013991
  0
VERTEX
  8
0
 10
288.734564
 20
380.278791
 42
-0.014851
  0
VERTEX
  8
0
 10
288.552827
 20
379.090130
 42
-0.014585
  0
VERTEX
  8
0
 10
288.336703
 20
378.079049
 42
-0.063631
  0
VERTEX
  8
0
 10
288.117650
 20
377.508953
 42
0.063453
  0
VERTEX
  8
0
 10
287.898212
 20
376.938458
 42
0.014487
  0
VERTEX
  8
0
 10
287.680650
 20
375.925146
 42
0.014761
  0
VERTEX
  8
0
 10
287.496903
 20
374.733590
 42
0.013893
  0
VERTEX
  8
0
 10
287.379348
 20
373.508953
 42
-0.004777
  0
VERTEX
  8
0
 10
287.129374
 20
370.288674
 42
-0.000889
  0
VERTEX
  8
0
 10
286.603259
 20
364.379637
 42
-0.001021
  0
VERTEX
  8
0
 10
286.024596
 20
358.149885
 42
-0.001944
  0
VERTEX
  8
0
 10
285.529475
 20
353.142147
 42
-0.069266
  0
VERTEX
  8
0
 10
284.697769
 20
349.754502
 42
-0.217894
  0
VERTEX
  8
0
 10
283.045930
 20
348.176144
 42
-0.391464
  0
VERTEX
  8
0
 10
281.574966
 20
348.820161
 42
-0.103332
  0
VERTEX
  8
0
 10
281.000000
 20
351.572586
 42
0.030666
  0
VERTEX
  8
0
 10
280.934508
 20
352.639401
 42
0.022079
  0
VERTEX
  8
0
 10
280.736405
 20
353.816190
 42
0.022415
  0
VERTEX
  8
0
 10
280.447047
 20
354.922820
 42
0.044130
  0
VERTEX
  8
0
 10
280.102656
 20
355.763569
 42
-0.016215
  0
VERTEX
  8
0
 10
279.647943
 20
356.718144
 42
-0.004015
  0
VERTEX
  8
0
 10
278.966453
 20
358.311798
 42
-0.004103
  0
VERTEX
  8
0
 10
278.215524
 20
360.149825
 42
-0.004103
  0
VERTEX
  8
0
 10
277.494831
 20
362.000000
 42
0.016910
  0
VERTEX
  8
0
 10
275.445712
 20
366.886670
 42
0.027516
  0
VERTEX
  8
0
 10
273.345335
 20
370.863735
 42
0.020772
  0
VERTEX
  8
0
 10
270.430579
 20
375.288934
 42
0.005719
  0
VERTEX
  8
0
 10
265.481482
 20
382.000000
 42
-0.004341
  0
VERTEX
  8
0
 10
262.687902
 20
385.766368
 42
-0.005862
  0
VERTEX
  8
0
 10
260.231473
 20
389.223438
 42
-0.004073
  0
VERTEX
  8
0
 10
258.234507
 20
392.155577
 42
-0.062161
  0
VERTEX
  8
0
 10
257.684630
 20
393.250000
 42
0.048833
  0
VERTEX
  8
0
 10
257.370280
 20
393.919421
 42
0.055147
  0
VERTEX
  8
0
 10
256.942472
 20
394.485937
 42
0.063004
  0
VERTEX
  8
0
 10
256.471717
 20
394.872871
 42
0.141467
  0
VERTEX
  8
0
 10
256.031385
 20
395.000000
 42
-0.129514
  0
VERTEX
  8
0
 10
255.638060
 20
395.103620
 42
-0.100695
  0
VERTEX
  8
0
 10
255.302969
 20
395.395097
 42
-0.088817
  0
VERTEX
  8
0
 10
255.077626
 20
395.831118
 42
-0.075101
  0
VERTEX
  8
0
 10
255.000000
 20
396.345012
 42
0.105367
  0
VERTEX
  8
0
 10
254.863329
 20
396.986360
 42
0.036283
  0
VERTEX
  8
0
 10
254.412500
 20
397.826608
 42
0.034148
  0
VERTEX
  8
0
 10
253.765355
 20
398.708140
 42
0.033439
  0
VERTEX
  8
0
 10
253.000000
 20
399.500000
 42
-0.023141
  0
VERTEX
  8
0
 10
252.234383
 20
400.260184
 42
-0.027454
  0
VERTEX
  8
0
 10
251.587500
 20
401.047499
 42
-0.027986
  0
VERTEX
  8
0
 10
251.124684
 20
401.758643
 42
-0.130987
  0
VERTEX
  8
0
 10
251.000000
 20
402.226416
 42
0.093639
  0
VERTEX
  8
0
 10
250.915605
 20
402.673109
 42
0.030923
  0
VERTEX
  8
0
 10
250.632812
 20
403.281211
 42
0.029547
  0
VERTEX
  8
0
 10
250.228386
 20
403.931772
 42
0.029525
  0
VERTEX
  8
0
 10
249.750000
 20
404.530291
 42
-0.014359
  0
VERTEX
  8
0
 10
249.059146
 20
405.342851
 42
-0.002658
  0
VERTEX
  8
0
 10
247.839063
 20
406.881002
 42
-0.002849
  0
VERTEX
  8
0
 10
246.431649
 20
408.696022
 42
-0.002594
  0
VERTEX
  8
0
 10
245.000000
 20
410.584399
 42
0.008153
  0
VERTEX
  8
0
 10
242.194449
 20
414.200761
 42
0.011813
  0
VERTEX
  8
0
 10
239.591269
 20
417.293014
 42
0.008292
  0
VERTEX
  8
0
 10
236.241425
 20
420.962099
 42
0.002045
  0
VERTEX
  8
0
 10
230.618890
 20
426.870394
 42
0.006886
  0
VERTEX
  8
0
 10
228.302254
 20
429.219288
 42
0.010319
  0
VERTEX
  8
0
 10
226.210119
 20
431.199428
 42
0.005609
  0
VERTEX
  8
0
 10
224.409418
 20
432.798137
 42
0.180635
  0
VERTEX
  8
0
 10
223.868890
 20
433.000000
 42
-0.113753
  0
VERTEX
  8
0
 10
223.537443
 20
433.076395
 42
-0.100301
  0
VERTEX
  8
0
 10
223.255236
 20
433.292268
 42
-0.093909
  0
VERTEX
  8
0
 10
223.065868
 20
433.615026
 42
-0.086043
  0
VERTEX
  8
0
 10
223.000000
 20
433.994953
 42
0.161657
  0
VERTEX
  8
0
 10
222.801372
 20
434.593246
 42
0.009395
  0
VERTEX
  8
0
 10
221.604688
 20
436.135564
 42
0.013474
  0
VERTEX
  8
0
 10
220.069753
 20
437.937297
 42
0.009451
  0
VERTEX
  8
0
 10
218.250000
 20
439.884969
 42
-0.007104
  0
VERTEX
  8
0
 10
214.028329
 20
444.361093
 42
-0.004853
  0
VERTEX
  8
0
 10
209.354726
 20
449.560024
 42
-0.004870
  0
VERTEX
  8
0
 10
204.997551
 20
454.600754
 42
-0.011174
  0
VERTEX
  8
0
 10
201.839835
 20
458.500000
 42
0.006193
  0
VERTEX
  8
0
 10
200.804743
 20
459.804523
 42
0.004369
  0
VERTEX
  8
0
 10
199.610684
 20
461.245788
 42
0.004410
  0
VERTEX
  8
0
 10
198.444548
 20
462.604082
 42
0.009257
  0
VERTEX
  8
0
 10
197.509705
 20
463.634597
 42
-0.009779
  0
VERTEX
  8
0
 10
196.531923
 20
464.714705
 42
-0.003717
  0
VERTEX
  8
0
 10
195.209101
 20
466.257690
 42
-0.003679
  0
VERTEX
  8
0
 10
193.795834
 20
467.956387
 42
-0.004494
  0
VERTEX
  8
0
 10
192.500000
 20
469.566758
 42
0.015163
  0
VERTEX
  8
0
 10
188.575515
 20
474.236249
 42
0.008525
  0
VERTEX
  8
0
 10
183.545990
 20
479.675302
 42
0.008059
  0
VERTEX
  8
0
 10
178.606064
 20
484.674187
 42
0.029550
  0
VERTEX
  8
0
 10
175.250000
 20
487.594780
 42
0.000000
  0
VERTEX
  8
0
 10
172.000000
 20
490.101783
 42
0.000000
  0
SEQEND
  0
ENDSEC
  0
EOF
