  0
SECTION
  2
HEADER
  9
$ACADVER
  1
AC1006
  9
$EXTMIN
 10
0.000000
 20
0.000000
 30
0.000000
  9
$EXTMAX
 10
446.000000
 20
387.000000
 30
0.000000
  0
ENDSEC
  0
SECTION
  2
ENTITIES
  0
POLYLINE
  8
0
 66
1
 70
1
  0
VERTEX
  8
0
 10
0.927091
 20
377.051073
 42
0.000746
  0
VERTEX
  8
0
 10
0.707286
 20
341.265572
 42
0.000896
  0
VERTEX
  8
0
 10
0.611067
 20
307.608679
 42
0.000091
  0
VERTEX
  8
0
 10
0.582868
 20
275.768675
 42
0.077127
  0
VERTEX
  8
0
 10
0.817435
 20
274.250000
 42
0.319806
  0
VERTEX
  8
0
 10
1.763574
 20
273.538843
 42
0.001574
  0
VERTEX
  8
0
 10
14.400546
 20
273.256363
 42
0.004022
  0
VERTEX
  8
0
 10
32.746926
 20
273.051640
 42
0.000779
  0
VERTEX
  8
0
 10
65.906912
 20
273.000000
 42
0.000000
  0
VERTEX
  8
0
 10
130.599847
 20
273.000000
 42
0.000000
  0
VERTEX
  8
0
 10
131.875356
 20
266.750000
 42
0.001642
  0
VERTEX
  8
0
 10
133.669832
 20
258.102073
 42
0.000004
  0
VERTEX
  8
0
 10
159.044167
 20
137.809905
 42
0.000008
  0
VERTEX
  8
0
 10
183.818005
 20
20.378285
 42
0.000902
  0
VERTEX
  8
0
 10
187.038284
 20
5.250000
 42
0.000000
  0
VERTEX
  8
0
 10
188.165728
 20
0.000000
 42
0.000000
  0
VERTEX
  8
0
 10
230.063812
 20
-0.000000
 42
0.000000
  0
VERTEX
  8
0
 10
271.961896
 20
-0.000000
 42
0.000000
  0
VERTEX
  8
0
 10
272.469826
 20
2.250000
 42
0.007161
  0
VERTEX
  8
0
 10
272.828488
 20
3.951896
 42
0.000095
  0
VERTEX
  8
0
 10
274.903958
 20
14.560937
 42
0.000272
  0
VERTEX
  8
0
 10
277.298502
 20
26.848718
 42
0.000178
  0
VERTEX
  8
0
 10
280.042969
 20
41.000000
 42
-0.000144
  0
VERTEX
  8
0
 10
283.546864
 20
59.073702
 42
-0.000056
  0
VERTEX
  8
0
 10
288.410862
 20
84.109375
 42
-0.000055
  0
VERTEX
  8
0
 10
293.687576
 20
111.237102
 42
-0.000069
  0
VERTEX
  8
0
 10
298.608051
 20
136.500000
 42
0.000031
  0
VERTEX
  8
0
 10
312.450267
 20
207.541012
 42
0.000179
  0
VERTEX
  8
0
 10
319.776194
 20
245.223462
 42
0.000017
  0
VERTEX
  8
0
 10
324.930944
 20
271.793586
 42
0.047934
  0
VERTEX
  8
0
 10
325.000000
 20
272.512252
 42
-0.411780
  0
VERTEX
  8
0
 10
325.198887
 20
272.712800
 42
-0.000064
  0
VERTEX
  8
0
 10
342.774301
 20
272.856724
 42
-0.001260
  0
VERTEX
  8
0
 10
362.306325
 20
272.964951
 42
-0.000755
  0
VERTEX
  8
0
 10
385.508257
 20
273.000000
 42
0.000000
  0
VERTEX
  8
0
 10
446.016514
 20
273.000000
 42
0.000000
  0
VERTEX
  8
0
 10
445.758257
 20
329.750000
 42
0.000000
  0
VERTEX
  8
0
 10
445.500000
 20
386.500000
 42
0.000000
  0
VERTEX
  8
0
 10
223.250000
 20
386.551073
 42
0.000000
  0
VERTEX
  8
0
 10
1.000000
 20
386.602146
 42
0.000000
  0
SEQEND
  0
ENDSEC
  0
EOF
