  0
SECTION
  2
HEADER
  9
$ACADVER
  1
AC1006
  9
$EXTMIN
 10
0.000000
 20
0.000000
 30
0.000000
  9
$EXTMAX
 10
400.000000
 20
421.000000
 30
0.000000
  0
ENDSEC
  0
SECTION
  2
ENTITIES
  0
POLYLINE
  8
0
 66
1
 70
1
  0
VERTEX
  8
0
 10
198.340017
 20
420.386905
 42
-0.358684
  0
VERTEX
  8
0
 10
198.369812
 20
419.958724
 42
-0.092200
  0
VERTEX
  8
0
 10
197.832491
 20
419.440188
 42
-0.052010
  0
VERTEX
  8
0
 10
196.785071
 20
418.895150
 42
-0.024551
  0
VERTEX
  8
0
 10
195.340017
 20
418.405366
 42
0.023792
  0
VERTEX
  8
0
 10
193.045784
 20
417.631642
 42
0.139652
  0
VERTEX
  8
0
 10
192.044093
 20
416.869592
 42
0.134919
  0
VERTEX
  8
0
 10
191.576600
 20
415.680939
 42
0.021660
  0
VERTEX
  8
0
 10
191.417703
 20
413.169417
 42
-0.033262
  0
VERTEX
  8
0
 10
191.260592
 20
411.354876
 42
-0.035973
  0
VERTEX
  8
0
 10
190.865133
 20
409.625334
 42
-0.039028
  0
VERTEX
  8
0
 10
190.279151
 20
408.135423
 42
-0.070826
  0
VERTEX
  8
0
 10
189.547656
 20
407.052660
 42
0.066513
  0
VERTEX
  8
0
 10
188.673004
 20
405.781655
 42
0.080844
  0
VERTEX
  8
0
 10
188.234511
 20
404.405984
 42
0.053663
  0
VERTEX
  8
0
 10
188.160360
 20
402.553461
 42
0.014271
  0
VERTEX
  8
0
 10
188.443402
 20
399.606699
 42
0.000000
  0
VERTEX
  8
0
 10
189.126898
 20
394.136181
 42
0.000000
  0
VERTEX
  8
0
 10
185.813449
 20
393.818091
 42
0.044164
  0
VERTEX
  8
0
 10
183.701179
 20
393.425038
 42
0.241673
  0
VERTEX
  8
0
 10
182.875194
 20
392.660938
 42
0.131880
  0
VERTEX
  8
0
 10
182.747935
 20
391.215210
 42
0.010802
  0
VERTEX
  8
0
 10
183.493207
 20
387.462634
 42
-0.042559
  0
VERTEX
  8
0
 10
183.702386
 20
385.894228
 42
-0.069893
  0
VERTEX
  8
0
 10
183.579518
 20
384.563019
 42
-0.069879
  0
VERTEX
  8
0
 10
183.094617
 20
383.317001
 42
-0.042525
  0
VERTEX
  8
0
 10
182.206564
 20
382.006768
 42
-0.033632
  0
VERTEX
  8
0
 10
180.967212
 20
380.670795
 42
-0.132191
  0
VERTEX
  8
0
 10
179.986149
 20
380.143973
 42
-0.111680
  0
VERTEX
  8
0
 10
178.781671
 20
380.134933
 42
-0.020715
  0
VERTEX
  8
0
 10
176.625073
 20
380.700232
 42
0.022837
  0
VERTEX
  8
0
 10
175.200663
 20
381.067157
 42
0.033421
  0
VERTEX
  8
0
 10
173.918998
 20
381.247293
 42
0.035356
  0
VERTEX
  8
0
 10
172.912292
 20
381.249440
 42
0.241718
  0
VERTEX
  8
0
 10
172.500670
 20
381.001085
 42
0.258927
  0
VERTEX
  8
0
 10
172.476076
 20
380.476502
 42
0.020087
  0
VERTEX
  8
0
 10
173.174848
 20
379.197543
 42
0.023437
  0
VERTEX
  8
0
 10
174.194775
 20
377.664583
 42
0.015516
  0
VERTEX
  8
0
 10
175.499688
 20
376.000373
 42
-0.016443
  0
VERTEX
  8
0
 10
176.839867
 20
374.284643
 42
-0.020136
  0
VERTEX
  8
0
 10
177.971783
 20
372.593978
 42
-0.019027
  0
VERTEX
  8
0
 10
178.798768
 20
371.121247
 42
-0.118958
  0
VERTEX
  8
0
 10
179.000000
 20
370.287401
 42
-0.113530
  0
VERTEX
  8
0
 10
178.815921
 20
369.487143
 42
-0.023394
  0
VERTEX
  8
0
 10
178.118750
 20
368.207832
 42
-0.023486
  0
VERTEX
  8
0
 10
177.148434
 20
366.767090
 42
-0.020219
  0
VERTEX
  8
0
 10
176.000000
 20
365.347219
 42
0.014479
  0
VERTEX
  8
0
 10
174.843074
 20
363.949950
 42
0.017726
  0
VERTEX
  8
0
 10
173.848061
 20
362.577130
 42
0.016373
  0
VERTEX
  8
0
 10
173.099968
 20
361.381201
 42
0.108809
  0
VERTEX
  8
0
 10
172.887018
 20
360.715204
 42
0.002302
  0
VERTEX
  8
0
 10
172.828468
 20
360.052371
 42
0.000549
  0
VERTEX
  8
0
 10
172.737402
 20
358.949714
 42
0.000565
  0
VERTEX
  8
0
 10
172.635632
 20
357.683046
 42
0.000559
  0
VERTEX
  8
0
 10
172.536343
 20
356.411481
 42
-0.049249
  0
VERTEX
  8
0
 10
172.289293
 20
355.016053
 42
-0.026762
  0
VERTEX
  8
0
 10
171.729185
 20
353.365531
 42
-0.026404
  0
VERTEX
  8
0
 10
170.973216
 20
351.732146
 42
-0.037612
  0
VERTEX
  8
0
 10
170.122350
 20
350.379357
 42
0.038437
  0
VERTEX
  8
0
 10
169.267527
 20
349.015292
 42
0.041180
  0
VERTEX
  8
0
 10
168.654021
 20
347.566841
 42
0.044591
  0
VERTEX
  8
0
 10
168.328305
 20
346.170798
 42
0.074638
  0
VERTEX
  8
0
 10
168.339023
 20
344.967876
 42
-0.071200
  0
VERTEX
  8
0
 10
168.357010
 20
343.826020
 42
-0.038421
  0
VERTEX
  8
0
 10
168.072555
 20
342.445558
 42
-0.037167
  0
VERTEX
  8
0
 10
167.555643
 20
341.048234
 42
-0.046060
  0
VERTEX
  8
0
 10
166.865999
 20
339.845630
 42
0.034435
  0
VERTEX
  8
0
 10
165.505865
 20
337.596463
 42
0.128128
  0
VERTEX
  8
0
 10
165.147355
 20
335.994603
 42
0.091749
  0
VERTEX
  8
0
 10
165.558130
 20
334.137374
 42
0.012900
  0
VERTEX
  8
0
 10
167.188606
 20
330.548691
 42
-0.018154
  0
VERTEX
  8
0
 10
167.974305
 20
328.769975
 42
-0.026799
  0
VERTEX
  8
0
 10
168.520821
 20
327.153679
 42
-0.025134
  0
VERTEX
  8
0
 10
168.816981
 20
325.842945
 42
-0.244017
  0
VERTEX
  8
0
 10
168.650441
 20
325.317108
 42
-0.197437
  0
VERTEX
  8
0
 10
168.168736
 20
325.115975
 42
-0.036872
  0
VERTEX
  8
0
 10
167.193682
 20
325.182413
 42
-0.034485
  0
VERTEX
  8
0
 10
165.994904
 20
325.438783
 42
-0.025499
  0
VERTEX
  8
0
 10
164.711835
 20
325.879146
 42
0.026145
  0
VERTEX
  8
0
 10
160.600522
 20
327.284262
 42
0.301313
  0
VERTEX
  8
0
 10
159.053098
 20
326.791520
 42
0.209405
  0
VERTEX
  8
0
 10
158.555132
 20
324.951907
 42
0.013950
  0
VERTEX
  8
0
 10
159.537008
 20
319.443118
 42
-0.086581
  0
VERTEX
  8
0
 10
159.611247
 20
317.090979
 42
-0.146659
  0
VERTEX
  8
0
 10
158.792000
 20
315.316008
 42
-0.117106
  0
VERTEX
  8
0
 10
156.960860
 20
314.025308
 42
-0.044674
  0
VERTEX
  8
0
 10
153.952234
 20
313.122440
 42
0.000000
  0
VERTEX
  8
0
 10
150.916795
 20
312.500000
 42
0.000000
  0
VERTEX
  8
0
 10
153.458398
 20
309.055720
 42
-0.031181
  0
VERTEX
  8
0
 10
155.188814
 20
306.376025
 42
-0.096222
  0
VERTEX
  8
0
 10
155.862381
 20
304.337914
 42
-0.120724
  0
VERTEX
  8
0
 10
155.650447
 20
302.469608
 42
-0.064533
  0
VERTEX
  8
0
 10
154.566709
 20
300.398702
 42
0.119457
  0
VERTEX
  8
0
 10
153.849818
 20
298.567930
 42
0.053837
  0
VERTEX
  8
0
 10
153.777478
 20
295.972791
 42
0.038025
  0
VERTEX
  8
0
 10
154.322739
 20
292.499492
 42
0.015384
  0
VERTEX
  8
0
 10
155.567706
 20
287.866075
 42
-0.104890
  0
VERTEX
  8
0
 10
155.631220
 20
287.113924
 42
-0.142551
  0
VERTEX
  8
0
 10
155.362406
 20
286.491983
 42
-0.110638
  0
VERTEX
  8
0
 10
154.733167
 20
286.004379
 42
-0.048280
  0
VERTEX
  8
0
 10
153.732463
 20
285.647700
 42
0.154537
  0
VERTEX
  8
0
 10
151.416033
 20
284.219336
 42
0.054520
  0
VERTEX
  8
0
 10
149.178768
 20
280.967741
 42
0.050298
  0
VERTEX
  8
0
 10
147.450125
 20
276.800532
 42
0.054415
  0
VERTEX
  8
0
 10
146.646323
 20
272.481021
 42
-0.024827
  0
VERTEX
  8
0
 10
146.365816
 20
270.246899
 42
-0.045997
  0
VERTEX
  8
0
 10
145.884801
 20
268.484720
 42
-0.057115
  0
VERTEX
  8
0
 10
145.189533
 20
267.124457
 42
-0.078170
  0
VERTEX
  8
0
 10
144.260922
 20
266.112832
 42
0.034966
  0
VERTEX
  8
0
 10
143.392081
 20
265.316248
 42
0.020006
  0
VERTEX
  8
0
 10
142.454683
 20
264.244975
 42
0.019911
  0
VERTEX
  8
0
 10
141.593963
 20
263.086585
 42
0.031067
  0
VERTEX
  8
0
 10
140.958228
 20
262.018999
 42
-0.034322
  0
VERTEX
  8
0
 10
140.305741
 20
260.939314
 42
-0.020286
  0
VERTEX
  8
0
 10
139.390699
 20
259.742555
 42
-0.020241
  0
VERTEX
  8
0
 10
138.375385
 20
258.616712
 42
-0.032507
  0
VERTEX
  8
0
 10
137.413579
 20
257.753362
 42
0.081042
  0
VERTEX
  8
0
 10
135.749724
 20
255.940441
 42
0.048586
  0
VERTEX
  8
0
 10
134.387091
 20
253.346705
 42
0.038381
  0
VERTEX
  8
0
 10
133.286302
 20
249.909160
 42
0.020134
  0
VERTEX
  8
0
 10
132.424969
 20
245.500000
 42
-0.016933
  0
VERTEX
  8
0
 10
132.120085
 20
243.884422
 42
-0.018390
  0
VERTEX
  8
0
 10
131.713297
 20
242.337594
 42
-0.018191
  0
VERTEX
  8
0
 10
131.270034
 20
241.044809
 42
-0.080361
  0
VERTEX
  8
0
 10
130.866468
 20
240.351383
 42
-0.145311
  0
VERTEX
  8
0
 10
129.739199
 20
239.588839
 42
-0.022967
  0
VERTEX
  8
0
 10
127.127119
 20
238.893356
 42
-0.020717
  0
VERTEX
  8
0
 10
123.545103
 20
238.267903
 42
-0.009912
  0
VERTEX
  8
0
 10
118.902220
 20
237.747529
 42
0.032542
  0
VERTEX
  8
0
 10
117.494680
 20
237.524927
 42
0.185980
  0
VERTEX
  8
0
 10
116.877223
 20
237.111801
 42
0.187633
  0
VERTEX
  8
0
 10
116.699624
 20
236.393591
 42
0.033209
  0
VERTEX
  8
0
 10
116.973313
 20
235.007395
 42
-0.145426
  0
VERTEX
  8
0
 10
116.915860
 20
232.918917
 42
-0.118315
  0
VERTEX
  8
0
 10
115.737497
 20
231.004984
 42
-0.096027
  0
VERTEX
  8
0
 10
113.562330
 20
229.542509
 42
-0.066933
  0
VERTEX
  8
0
 10
110.701430
 20
228.760601
 42
0.037778
  0
VERTEX
  8
0
 10
108.397845
 20
228.272868
 42
0.212676
  0
VERTEX
  8
0
 10
107.461234
 20
227.478714
 42
0.175899
  0
VERTEX
  8
0
 10
107.327232
 20
226.145557
 42
0.024735
  0
VERTEX
  8
0
 10
108.150920
 20
223.459183
 42
-0.021626
  0
VERTEX
  8
0
 10
108.890390
 20
221.099885
 42
-0.143186
  0
VERTEX
  8
0
 10
108.861126
 20
219.878388
 42
-0.126829
  0
VERTEX
  8
0
 10
108.179498
 20
218.792866
 42
-0.015541
  0
VERTEX
  8
0
 10
106.065874
 20
216.913853
 42
0.016879
  0
VERTEX
  8
0
 10
103.990666
 20
215.059033
 42
0.120759
  0
VERTEX
  8
0
 10
103.273043
 20
213.932783
 42
0.134702
  0
VERTEX
  8
0
 10
103.197541
 20
212.658109
 42
0.022880
  0
VERTEX
  8
0
 10
103.816001
 20
210.279536
 42
-0.016107
  0
VERTEX
  8
0
 10
104.398099
 20
208.159121
 42
-0.083726
  0
VERTEX
  8
0
 10
104.481037
 20
206.952827
 42
-0.136734
  0
VERTEX
  8
0
 10
104.144012
 20
206.084414
 42
-0.072673
  0
VERTEX
  8
0
 10
103.320782
 20
205.263940
 42
-0.081472
  0
VERTEX
  8
0
 10
102.418065
 20
204.798504
 42
-0.029600
  0
VERTEX
  8
0
 10
101.019709
 20
204.435064
 42
-0.028414
  0
VERTEX
  8
0
 10
99.413987
 20
204.211590
 42
-0.030168
  0
VERTEX
  8
0
 10
97.825305
 20
204.177977
 42
0.026207
  0
VERTEX
  8
0
 10
94.725803
 20
204.136943
 42
0.197263
  0
VERTEX
  8
0
 10
93.435390
 20
203.505363
 42
0.235107
  0
VERTEX
  8
0
 10
93.089623
 20
202.227641
 42
0.037375
  0
VERTEX
  8
0
 10
93.808200
 20
199.653869
 42
-0.039317
  0
VERTEX
  8
0
 10
94.927724
 20
195.583124
 42
-0.120409
  0
VERTEX
  8
0
 10
94.786053
 20
192.744978
 42
-0.136811
  0
VERTEX
  8
0
 10
93.377919
 20
190.506308
 42
-0.057158
  0
VERTEX
  8
0
 10
90.457768
 20
188.407466
 42
0.117092
  0
VERTEX
  8
0
 10
88.639601
 20
186.740213
 42
0.026914
  0
VERTEX
  8
0
 10
86.477846
 20
183.147980
 42
0.028482
  0
VERTEX
  8
0
 10
84.567845
 20
178.993954
 42
0.042768
  0
VERTEX
  8
0
 10
83.433297
 20
175.171625
 42
-0.067537
  0
VERTEX
  8
0
 10
82.834466
 20
173.467503
 42
-0.030724
  0
VERTEX
  8
0
 10
81.629361
 20
171.430469
 42
-0.027157
  0
VERTEX
  8
0
 10
79.949125
 20
169.219984
 42
-0.020291
  0
VERTEX
  8
0
 10
77.874006
 20
166.969244
 42
0.017302
  0
VERTEX
  8
0
 10
75.755051
 20
164.698341
 42
0.032594
  0
VERTEX
  8
0
 10
74.236284
 20
162.704784
 42
0.041002
  0
VERTEX
  8
0
 10
73.293557
 20
160.995061
 42
0.105881
  0
VERTEX
  8
0
 10
73.000000
 20
159.624344
 42
-0.074414
  0
VERTEX
  8
0
 10
72.827242
 20
158.469982
 42
-0.032670
  0
VERTEX
  8
0
 10
72.277839
 20
157.021036
 42
-0.031422
  0
VERTEX
  8
0
 10
71.482495
 20
155.531949
 42
-0.036545
  0
VERTEX
  8
0
 10
70.541580
 20
154.231784
 42
0.036579
  0
VERTEX
  8
0
 10
69.557377
 20
152.871610
 42
0.024803
  0
VERTEX
  8
0
 10
68.634018
 20
151.196010
 42
0.025046
  0
VERTEX
  8
0
 10
67.900023
 20
149.479037
 42
0.044908
  0
VERTEX
  8
0
 10
67.500000
 20
148.000000
 42
-0.045003
  0
VERTEX
  8
0
 10
67.099530
 20
146.520416
 42
-0.025043
  0
VERTEX
  8
0
 10
66.364018
 20
144.801655
 42
-0.024795
  0
VERTEX
  8
0
 10
65.438494
 20
143.123505
 42
-0.036497
  0
VERTEX
  8
0
 10
64.451733
 20
141.760269
 42
0.024904
  0
VERTEX
  8
0
 10
63.548734
 20
140.571711
 42
0.035064
  0
VERTEX
  8
0
 10
62.876245
 20
139.423456
 42
0.037809
  0
VERTEX
  8
0
 10
62.484199
 20
138.453545
 42
0.218931
  0
VERTEX
  8
0
 10
62.550007
 20
137.919087
 42
-0.046398
  0
VERTEX
  8
0
 10
62.794437
 20
137.426781
 42
-0.014569
  0
VERTEX
  8
0
 10
63.068308
 20
136.650036
 42
-0.014416
  0
VERTEX
  8
0
 10
63.324996
 20
135.760761
 42
-0.015483
  0
VERTEX
  8
0
 10
63.523305
 20
134.878988
 42
-0.009817
  0
VERTEX
  8
0
 10
63.751888
 20
133.552282
 42
-0.363424
  0
VERTEX
  8
0
 10
63.603599
 20
133.308331
 42
-0.265004
  0
VERTEX
  8
0
 10
63.278537
 20
133.371066
 42
-0.006703
  0
VERTEX
  8
0
 10
62.111229
 20
134.399339
 42
0.207701
  0
VERTEX
  8
0
 10
59.378036
 20
135.323279
 42
0.213983
  0
VERTEX
  8
0
 10
56.882465
 20
133.943034
 42
0.141175
  0
VERTEX
  8
0
 10
55.564271
 20
130.477672
 42
0.100781
  0
VERTEX
  8
0
 10
56.055194
 20
126.332762
 42
-0.041561
  0
VERTEX
  8
0
 10
56.830756
 20
123.103446
 42
-0.194062
  0
VERTEX
  8
0
 10
56.401731
 20
121.277177
 42
-0.198220
  0
VERTEX
  8
0
 10
54.834469
 20
120.282896
 42
-0.043519
  0
VERTEX
  8
0
 10
51.590402
 20
120.000000
 42
0.022900
  0
VERTEX
  8
0
 10
49.828012
 20
119.919241
 42
0.029820
  0
VERTEX
  8
0
 10
48.231542
 20
119.675988
 42
0.030402
  0
VERTEX
  8
0
 10
46.971297
 20
119.325015
 42
0.172898
  0
VERTEX
  8
0
 10
46.436331
 20
118.896981
 42
0.182487
  0
VERTEX
  8
0
 10
46.298963
 20
118.192487
 42
0.023739
  0
VERTEX
  8
0
 10
46.632692
 20
116.670814
 42
0.025125
  0
VERTEX
  8
0
 10
47.228140
 20
114.834764
 42
0.018548
  0
VERTEX
  8
0
 10
48.062078
 20
112.867460
 42
-0.009169
  0
VERTEX
  8
0
 10
49.386828
 20
109.898515
 42
-0.073867
  0
VERTEX
  8
0
 10
49.761066
 20
108.456291
 42
-0.149240
  0
VERTEX
  8
0
 10
49.561364
 20
107.417186
 42
-0.074949
  0
VERTEX
  8
0
 10
48.760262
 20
106.331691
 42
-0.055695
  0
VERTEX
  8
0
 10
47.711558
 20
105.493789
 42
-0.140555
  0
VERTEX
  8
0
 10
46.782312
 20
105.222987
 42
-0.084245
  0
VERTEX
  8
0
 10
45.561751
 20
105.424729
 42
-0.012179
  0
VERTEX
  8
0
 10
43.188752
 20
106.307800
 42
0.015761
  0
VERTEX
  8
0
 10
41.630468
 20
106.875014
 42
0.023234
  0
VERTEX
  8
0
 10
40.227833
 20
107.264887
 42
0.020083
  0
VERTEX
  8
0
 10
39.088269
 20
107.477547
 42
0.236711
  0
VERTEX
  8
0
 10
38.673029
 20
107.339696
 42
0.181202
  0
VERTEX
  8
0
 10
38.476796
 20
106.908275
 42
0.013279
  0
VERTEX
  8
0
 10
38.421429
 20
105.584888
 42
0.017158
  0
VERTEX
  8
0
 10
38.452359
 20
103.962091
 42
0.012102
  0
VERTEX
  8
0
 10
38.593747
 20
102.143108
 42
-0.050573
  0
VERTEX
  8
0
 10
38.596334
 20
98.532278
 42
-0.109130
  0
VERTEX
  8
0
 10
37.732527
 20
95.905811
 42
-0.143307
  0
VERTEX
  8
0
 10
36.038866
 20
94.324899
 42
-0.117107
  0
VERTEX
  8
0
 10
33.617945
 20
93.750000
 42
0.020223
  0
VERTEX
  8
0
 10
32.249523
 20
93.694631
 42
0.215704
  0
VERTEX
  8
0
 10
31.774306
 20
93.431442
 42
0.275077
  0
VERTEX
  8
0
 10
31.724212
 20
92.947980
 42
0.031164
  0
VERTEX
  8
0
 10
32.269741
 20
91.939683
 42
0.034517
  0
VERTEX
  8
0
 10
32.750847
 20
91.276014
 42
0.052487
  0
VERTEX
  8
0
 10
33.261863
 20
90.780837
 42
0.068222
  0
VERTEX
  8
0
 10
33.725894
 20
90.509859
 42
0.240981
  0
VERTEX
  8
0
 10
34.059580
 20
90.536822
 42
-0.606279
  0
VERTEX
  8
0
 10
34.659762
 20
90.179927
 42
-0.053302
  0
VERTEX
  8
0
 10
34.291529
 20
87.930002
 42
-0.033432
  0
VERTEX
  8
0
 10
33.158120
 20
84.680167
 42
-0.031932
  0
VERTEX
  8
0
 10
31.586936
 20
81.558133
 42
-0.016458
  0
VERTEX
  8
0
 10
30.047288
 20
79.118671
 42
-0.085170
  0
VERTEX
  8
0
 10
28.945908
 20
77.973360
 42
-0.130259
  0
VERTEX
  8
0
 10
27.760786
 20
77.505551
 42
-0.060772
  0
VERTEX
  8
0
 10
26.097064
 20
77.513027
 42
0.153963
  0
VERTEX
  8
0
 10
23.844365
 20
77.103946
 42
0.164816
  0
VERTEX
  8
0
 10
22.307371
 20
75.483381
 42
0.074066
  0
VERTEX
  8
0
 10
21.311859
 20
72.077618
 42
0.013947
  0
VERTEX
  8
0
 10
20.606791
 20
65.612267
 42
-0.028501
  0
VERTEX
  8
0
 10
19.851743
 20
60.164359
 42
-0.086956
  0
VERTEX
  8
0
 10
18.512870
 20
56.693708
 42
-0.114199
  0
VERTEX
  8
0
 10
16.316151
 20
54.424051
 42
-0.070923
  0
VERTEX
  8
0
 10
12.935492
 20
52.862527
 42
0.046962
  0
VERTEX
  8
0
 10
9.339132
 20
51.405404
 42
0.142040
  0
VERTEX
  8
0
 10
7.444394
 20
49.600938
 42
0.150870
  0
VERTEX
  8
0
 10
6.872148
 20
47.136098
 42
0.055300
  0
VERTEX
  8
0
 10
7.526156
 20
43.579351
 42
0.000000
  0
VERTEX
  8
0
 10
8.821724
 20
39.274504
 42
0.000000
  0
VERTEX
  8
0
 10
4.476204
 20
35.642100
 42
0.015677
  0
VERTEX
  8
0
 10
2.195979
 20
33.611316
 42
0.065971
  0
VERTEX
  8
0
 10
1.045698
 20
32.189130
 42
0.104693
  0
VERTEX
  8
0
 10
0.580161
 20
30.871875
 42
0.077774
  0
VERTEX
  8
0
 10
0.617526
 20
29.324920
 42
0.012239
  0
VERTEX
  8
0
 10
0.843113
 20
28.233720
 42
0.012937
  0
VERTEX
  8
0
 10
1.118193
 20
27.175034
 42
0.012637
  0
VERTEX
  8
0
 10
1.401295
 20
26.276910
 42
0.055794
  0
VERTEX
  8
0
 10
1.638274
 20
25.776268
 42
-0.141630
  0
VERTEX
  8
0
 10
1.758850
 20
25.344272
 42
-0.064665
  0
VERTEX
  8
0
 10
1.677340
 20
24.758883
 42
-0.056474
  0
VERTEX
  8
0
 10
1.422058
 20
24.120353
 42
-0.049933
  0
VERTEX
  8
0
 10
1.021523
 20
23.525934
 42
0.353358
  0
VERTEX
  8
0
 10
0.998180
 20
21.783806
 42
0.163357
  0
VERTEX
  8
0
 10
3.020386
 20
20.455982
 42
0.086341
  0
VERTEX
  8
0
 10
6.703179
 20
20.142525
 42
0.085251
  0
VERTEX
  8
0
 10
10.293031
 20
21.087652
 42
-0.059221
  0
VERTEX
  8
0
 10
11.679738
 20
21.530666
 42
-0.086052
  0
VERTEX
  8
0
 10
12.961134
 20
21.555322
 42
-0.064454
  0
VERTEX
  8
0
 10
14.430500
 20
21.130934
 42
-0.020529
  0
VERTEX
  8
0
 10
16.484170
 20
20.136482
 42
0.016940
  0
VERTEX
  8
0
 10
18.755921
 20
19.016234
 42
0.084094
  0
VERTEX
  8
0
 10
20.128461
 20
18.656307
 42
0.106508
  0
VERTEX
  8
0
 10
21.383046
 20
18.812105
 42
0.035386
  0
VERTEX
  8
0
 10
23.094426
 20
19.548829
 42
-0.060002
  0
VERTEX
  8
0
 10
24.643811
 20
20.127409
 42
-0.021115
  0
VERTEX
  8
0
 10
26.975690
 20
20.588717
 42
-0.019973
  0
VERTEX
  8
0
 10
29.689645
 20
20.897094
 42
-0.018302
  0
VERTEX
  8
0
 10
32.500000
 20
21.000000
 42
0.018165
  0
VERTEX
  8
0
 10
35.384952
 20
21.104844
 42
0.021467
  0
VERTEX
  8
0
 10
38.096914
 20
21.419692
 42
0.023380
  0
VERTEX
  8
0
 10
40.416479
 20
21.902602
 42
0.056370
  0
VERTEX
  8
0
 10
42.051896
 20
22.526836
 42
-0.038096
  0
VERTEX
  8
0
 10
43.906213
 20
23.313223
 42
-0.101669
  0
VERTEX
  8
0
 10
45.324994
 20
23.487608
 42
-0.069952
  0
VERTEX
  8
0
 10
46.993631
 20
23.114436
 42
-0.011641
  0
VERTEX
  8
0
 10
50.050795
 20
21.882803
 42
0.015384
  0
VERTEX
  8
0
 10
52.963068
 20
20.734800
 42
0.058459
  0
VERTEX
  8
0
 10
54.864633
 20
20.293689
 42
0.072886
  0
VERTEX
  8
0
 10
56.595309
 20
20.353177
 42
0.033083
  0
VERTEX
  8
0
 10
58.798559
 20
20.906417
 42
-0.028439
  0
VERTEX
  8
0
 10
60.962944
 20
21.471299
 42
-0.077312
  0
VERTEX
  8
0
 10
62.541510
 20
21.540982
 42
-0.070834
  0
VERTEX
  8
0
 10
64.145230
 20
21.128692
 42
-0.021152
  0
VERTEX
  8
0
 10
66.441244
 20
20.060748
 42
0.014566
  0
VERTEX
  8
0
 10
68.781913
 20
18.934314
 42
0.082955
  0
VERTEX
  8
0
 10
70.114111
 20
18.588651
 42
0.121120
  0
VERTEX
  8
0
 10
71.243626
 20
18.762510
 42
0.046596
  0
VERTEX
  8
0
 10
72.656060
 20
19.510298
 42
-0.076026
  0
VERTEX
  8
0
 10
74.065617
 20
20.153819
 42
-0.029614
  0
VERTEX
  8
0
 10
76.163091
 20
20.616935
 42
-0.024796
  0
VERTEX
  8
0
 10
78.818345
 20
20.906214
 42
-0.014735
  0
VERTEX
  8
0
 10
82.000000
 20
21.000000
 42
0.014514
  0
VERTEX
  8
0
 10
85.267530
 20
21.094870
 42
0.026664
  0
VERTEX
  8
0
 10
87.912192
 20
21.390620
 42
0.033012
  0
VERTEX
  8
0
 10
89.988075
 20
21.878168
 42
0.070958
  0
VERTEX
  8
0
 10
91.473032
 20
22.574287
 42
-0.045721
  0
VERTEX
  8
0
 10
93.000405
 20
23.386346
 42
-0.117453
  0
VERTEX
  8
0
 10
94.226653
 20
23.588579
 42
-0.075172
  0
VERTEX
  8
0
 10
95.727393
 20
23.252280
 42
-0.011491
  0
VERTEX
  8
0
 10
98.564967
 20
22.074287
 42
0.019908
  0
VERTEX
  8
0
 10
102.123185
 20
20.666848
 42
0.061362
  0
VERTEX
  8
0
 10
104.647155
 20
20.117580
 42
0.079140
  0
VERTEX
  8
0
 10
106.855777
 20
20.264095
 42
0.050878
  0
VERTEX
  8
0
 10
109.293031
 20
21.087652
 42
-0.059221
  0
VERTEX
  8
0
 10
110.679738
 20
21.530666
 42
-0.086052
  0
VERTEX
  8
0
 10
111.961134
 20
21.555322
 42
-0.064454
  0
VERTEX
  8
0
 10
113.430500
 20
21.130934
 42
-0.020529
  0
VERTEX
  8
0
 10
115.484170
 20
20.136482
 42
0.016940
  0
VERTEX
  8
0
 10
117.755921
 20
19.016234
 42
0.084094
  0
VERTEX
  8
0
 10
119.128461
 20
18.656307
 42
0.106508
  0
VERTEX
  8
0
 10
120.383046
 20
18.812105
 42
0.035386
  0
VERTEX
  8
0
 10
122.094426
 20
19.548829
 42
-0.060002
  0
VERTEX
  8
0
 10
123.643811
 20
20.127409
 42
-0.021115
  0
VERTEX
  8
0
 10
125.975690
 20
20.588717
 42
-0.019973
  0
VERTEX
  8
0
 10
128.689645
 20
20.897094
 42
-0.018302
  0
VERTEX
  8
0
 10
131.500000
 20
21.000000
 42
0.018210
  0
VERTEX
  8
0
 10
134.359276
 20
21.104167
 42
0.020946
  0
VERTEX
  8
0
 10
137.071803
 20
21.416708
 42
0.022597
  0
VERTEX
  8
0
 10
139.394807
 20
21.891926
 42
0.057633
  0
VERTEX
  8
0
 10
140.999977
 20
22.499988
 42
-0.014513
  0
VERTEX
  8
0
 10
142.718855
 20
23.326543
 42
-0.114590
  0
VERTEX
  8
0
 10
143.581041
 20
23.493267
 42
-0.198731
  0
VERTEX
  8
0
 10
144.198584
 20
23.210408
 42
-0.059751
  0
VERTEX
  8
0
 10
144.819555
 20
22.357955
 42
-0.053234
  0
VERTEX
  8
0
 10
145.139802
 20
21.608528
 42
-0.037553
  0
VERTEX
  8
0
 10
145.342002
 20
20.714386
 42
-0.038016
  0
VERTEX
  8
0
 10
145.405977
 20
19.819072
 42
-0.062862
  0
VERTEX
  8
0
 10
145.307700
 20
19.068645
 42
0.206859
  0
VERTEX
  8
0
 10
145.576063
 20
17.318881
 42
0.075803
  0
VERTEX
  8
0
 10
147.245140
 20
15.382777
 42
0.052222
  0
VERTEX
  8
0
 10
150.170277
 20
13.365811
 42
0.024847
  0
VERTEX
  8
0
 10
154.293854
 20
11.375780
 42
0.008781
  0
VERTEX
  8
0
 10
157.279881
 20
10.174859
 42
0.065990
  0
VERTEX
  8
0
 10
158.759193
 20
9.823750
 42
0.150719
  0
VERTEX
  8
0
 10
159.725188
 20
10.017496
 42
0.111027
  0
VERTEX
  8
0
 10
160.551840
 20
10.740009
 42
-0.125773
  0
VERTEX
  8
0
 10
161.369848
 20
11.414032
 42
-0.166018
  0
VERTEX
  8
0
 10
162.323389
 20
11.519276
 42
-0.068724
  0
VERTEX
  8
0
 10
163.758545
 20
10.985069
 42
-0.009130
  0
VERTEX
  8
0
 10
166.587180
 20
9.396041
 42
0.005506
  0
VERTEX
  8
0
 10
168.488663
 20
8.309650
 42
0.008939
  0
VERTEX
  8
0
 10
170.130297
 20
7.433624
 42
0.003284
  0
VERTEX
  8
0
 10
171.538955
 20
6.725600
 42
0.316843
  0
VERTEX
  8
0
 10
171.750000
 20
6.758468
 42
-0.243477
  0
VERTEX
  8
0
 10
172.477524
 20
6.975976
 42
-0.081449
  0
VERTEX
  8
0
 10
173.552911
 20
6.583810
 42
-0.041343
  0
VERTEX
  8
0
 10
175.115643
 20
5.526424
 42
-0.009990
  0
VERTEX
  8
0
 10
177.510929
 20
3.519184
 42
0.031622
  0
VERTEX
  8
0
 10
180.371109
 20
1.325670
 42
0.078295
  0
VERTEX
  8
0
 10
182.760152
 20
0.216256
 42
0.149279
  0
VERTEX
  8
0
 10
184.459895
 20
0.246680
 42
0.244102
  0
VERTEX
  8
0
 10
185.447862
 20
1.250000
 42
0.011017
  0
VERTEX
  8
0
 10
185.635651
 20
1.910977
 42
0.003177
  0
VERTEX
  8
0
 10
185.896840
 20
2.940625
 42
0.003194
  0
VERTEX
  8
0
 10
186.176579
 20
4.105472
 42
0.003398
  0
VERTEX
  8
0
 10
186.435529
 20
5.250000
 42
-0.029521
  0
VERTEX
  8
0
 10
186.732370
 20
6.303148
 42
-0.041907
  0
VERTEX
  8
0
 10
187.126751
 20
7.192188
 42
-0.048691
  0
VERTEX
  8
0
 10
187.553745
 20
7.818212
 42
-0.222281
  0
VERTEX
  8
0
 10
187.942456
 20
8.000000
 42
-0.134855
  0
VERTEX
  8
0
 10
188.500967
 20
7.846574
 42
-0.008427
  0
VERTEX
  8
0
 10
189.970834
 20
6.939234
 42
-0.011958
  0
VERTEX
  8
0
 10
191.699547
 20
5.772208
 42
-0.008562
  0
VERTEX
  8
0
 10
193.577631
 20
4.388880
 42
0.016323
  0
VERTEX
  8
0
 10
197.005947
 20
1.944855
 42
0.063501
  0
VERTEX
  8
0
 10
199.336699
 20
0.790511
 42
0.104430
  0
VERTEX
  8
0
 10
201.235395
 20
0.552092
 42
0.098571
  0
VERTEX
  8
0
 10
203.111660
 20
1.091005
 42
-0.092905
  0
VERTEX
  8
0
 10
207.230918
 20
2.324403
 42
-0.013289
  0
VERTEX
  8
0
 10
216.050315
 20
3.023230
 42
-0.014918
  0
VERTEX
  8
0
 10
224.941262
 20
3.224743
 42
-0.063930
  0
VERTEX
  8
0
 10
230.183443
 20
2.513466
 42
0.033451
  0
VERTEX
  8
0
 10
231.787403
 20
2.195552
 42
0.233985
  0
VERTEX
  8
0
 10
232.520327
 20
2.447339
 42
0.160882
  0
VERTEX
  8
0
 10
232.923719
 20
3.259163
 42
0.014494
  0
VERTEX
  8
0
 10
233.183443
 20
5.544869
 42
-0.063889
  0
VERTEX
  8
0
 10
233.900564
 20
8.880542
 42
-0.208765
  0
VERTEX
  8
0
 10
235.406783
 20
10.494167
 42
-0.181575
  0
VERTEX
  8
0
 10
237.783939
 20
10.610634
 42
-0.047460
  0
VERTEX
  8
0
 10
241.355285
 20
9.079054
 42
0.024319
  0
VERTEX
  8
0
 10
243.158405
 20
8.205047
 42
0.029207
  0
VERTEX
  8
0
 10
244.932480
 20
7.568852
 42
0.030326
  0
VERTEX
  8
0
 10
246.458522
 20
7.219110
 42
0.133552
  0
VERTEX
  8
0
 10
247.368684
 20
7.311236
 42
0.191218
  0
VERTEX
  8
0
 10
248.446239
 20
8.303636
 42
0.091408
  0
VERTEX
  8
0
 10
248.949861
 20
10.149683
 42
0.085284
  0
VERTEX
  8
0
 10
248.774528
 20
12.180213
 42
0.133054
  0
VERTEX
  8
0
 10
247.906220
 20
13.693780
 42
-0.084113
  0
VERTEX
  8
0
 10
247.513295
 20
14.247007
 42
-0.050607
  0
VERTEX
  8
0
 10
247.237597
 20
15.005559
 42
-0.048934
  0
VERTEX
  8
0
 10
247.111728
 20
15.840120
 42
-0.060613
  0
VERTEX
  8
0
 10
247.166002
 20
16.623465
 42
-0.113182
  0
VERTEX
  8
0
 10
247.566092
 20
17.529929
 42
-0.155183
  0
VERTEX
  8
0
 10
248.286010
 20
18.045870
 42
-0.080905
  0
VERTEX
  8
0
 10
249.548488
 20
18.239849
 42
-0.015770
  0
VERTEX
  8
0
 10
251.856501
 20
18.146232
 42
0.025614
  0
VERTEX
  8
0
 10
254.078357
 20
18.099876
 42
0.058207
  0
VERTEX
  8
0
 10
255.737295
 20
18.344900
 42
0.069689
  0
VERTEX
  8
0
 10
257.104586
 20
18.926329
 42
0.053291
  0
VERTEX
  8
0
 10
258.402061
 20
19.907991
 42
0.000000
  0
VERTEX
  8
0
 10
260.610685
 20
21.982886
 42
0.000000
  0
VERTEX
  8
0
 10
264.496586
 20
20.001740
 42
0.014942
  0
VERTEX
  8
0
 10
266.800408
 20
18.912644
 42
0.083216
  0
VERTEX
  8
0
 10
268.122035
 20
18.581269
 42
0.119722
  0
VERTEX
  8
0
 10
269.246750
 20
18.761265
 42
0.045792
  0
VERTEX
  8
0
 10
270.656060
 20
19.510298
 42
-0.076026
  0
VERTEX
  8
0
 10
272.065617
 20
20.153819
 42
-0.029614
  0
VERTEX
  8
0
 10
274.163091
 20
20.616935
 42
-0.024796
  0
VERTEX
  8
0
 10
276.818345
 20
20.906214
 42
-0.014735
  0
VERTEX
  8
0
 10
280.000000
 20
21.000000
 42
0.014514
  0
VERTEX
  8
0
 10
283.267530
 20
21.094870
 42
0.026664
  0
VERTEX
  8
0
 10
285.912192
 20
21.390620
 42
0.033012
  0
VERTEX
  8
0
 10
287.988075
 20
21.878168
 42
0.070958
  0
VERTEX
  8
0
 10
289.473032
 20
22.574287
 42
-0.045721
  0
VERTEX
  8
0
 10
291.000405
 20
23.386346
 42
-0.117453
  0
VERTEX
  8
0
 10
292.226653
 20
23.588579
 42
-0.075172
  0
VERTEX
  8
0
 10
293.727393
 20
23.252280
 42
-0.011491
  0
VERTEX
  8
0
 10
296.564967
 20
22.074287
 42
0.019908
  0
VERTEX
  8
0
 10
300.123185
 20
20.666848
 42
0.061362
  0
VERTEX
  8
0
 10
302.647155
 20
20.117580
 42
0.079140
  0
VERTEX
  8
0
 10
304.855777
 20
20.264095
 42
0.050878
  0
VERTEX
  8
0
 10
307.293031
 20
21.087652
 42
-0.059221
  0
VERTEX
  8
0
 10
308.679738
 20
21.530666
 42
-0.086052
  0
VERTEX
  8
0
 10
309.961134
 20
21.555322
 42
-0.064454
  0
VERTEX
  8
0
 10
311.430500
 20
21.130934
 42
-0.020529
  0
VERTEX
  8
0
 10
313.484170
 20
20.136482
 42
0.016940
  0
VERTEX
  8
0
 10
315.755921
 20
19.016234
 42
0.084094
  0
VERTEX
  8
0
 10
317.128461
 20
18.656307
 42
0.106508
  0
VERTEX
  8
0
 10
318.383046
 20
18.812105
 42
0.035386
  0
VERTEX
  8
0
 10
320.094426
 20
19.548829
 42
-0.060002
  0
VERTEX
  8
0
 10
321.643811
 20
20.127409
 42
-0.021115
  0
VERTEX
  8
0
 10
323.975690
 20
20.588717
 42
-0.019973
  0
VERTEX
  8
0
 10
326.689645
 20
20.897094
 42
-0.018302
  0
VERTEX
  8
0
 10
329.500000
 20
21.000000
 42
0.018165
  0
VERTEX
  8
0
 10
332.384952
 20
21.104844
 42
0.021467
  0
VERTEX
  8
0
 10
335.096914
 20
21.419692
 42
0.023380
  0
VERTEX
  8
0
 10
337.416479
 20
21.902602
 42
0.056370
  0
VERTEX
  8
0
 10
339.051896
 20
22.526836
 42
-0.038096
  0
VERTEX
  8
0
 10
340.906213
 20
23.313223
 42
-0.101669
  0
VERTEX
  8
0
 10
342.324994
 20
23.487608
 42
-0.069952
  0
VERTEX
  8
0
 10
343.993631
 20
23.114436
 42
-0.011641
  0
VERTEX
  8
0
 10
347.050795
 20
21.882803
 42
0.015384
  0
VERTEX
  8
0
 10
349.963068
 20
20.734800
 42
0.058459
  0
VERTEX
  8
0
 10
351.864633
 20
20.293689
 42
0.072886
  0
VERTEX
  8
0
 10
353.595309
 20
20.353177
 42
0.033083
  0
VERTEX
  8
0
 10
355.798559
 20
20.906417
 42
-0.028439
  0
VERTEX
  8
0
 10
357.962944
 20
21.471299
 42
-0.077312
  0
VERTEX
  8
0
 10
359.541510
 20
21.540982
 42
-0.070834
  0
VERTEX
  8
0
 10
361.145230
 20
21.128692
 42
-0.021152
  0
VERTEX
  8
0
 10
363.441244
 20
20.060748
 42
0.014566
  0
VERTEX
  8
0
 10
365.781913
 20
18.934314
 42
0.082955
  0
VERTEX
  8
0
 10
367.114111
 20
18.588651
 42
0.121120
  0
VERTEX
  8
0
 10
368.243626
 20
18.762510
 42
0.046596
  0
VERTEX
  8
0
 10
369.656060
 20
19.510298
 42
-0.076026
  0
VERTEX
  8
0
 10
371.065617
 20
20.153819
 42
-0.029614
  0
VERTEX
  8
0
 10
373.163091
 20
20.616935
 42
-0.024796
  0
VERTEX
  8
0
 10
375.818345
 20
20.906214
 42
-0.014735
  0
VERTEX
  8
0
 10
379.000000
 20
21.000000
 42
0.014602
  0
VERTEX
  8
0
 10
382.232272
 20
21.094417
 42
0.025886
  0
VERTEX
  8
0
 10
384.881264
 20
21.387431
 42
0.031610
  0
VERTEX
  8
0
 10
386.965144
 20
21.864653
 42
0.073059
  0
VERTEX
  8
0
 10
388.418532
 20
22.538577
 42
-0.042392
  0
VERTEX
  8
0
 10
389.881087
 20
23.328683
 42
-0.107868
  0
VERTEX
  8
0
 10
391.057904
 20
23.561932
 42
-0.076296
  0
VERTEX
  8
0
 10
392.461571
 20
23.318765
 42
-0.014196
  0
VERTEX
  8
0
 10
394.924836
 20
22.413398
 42
0.011385
  0
VERTEX
  8
0
 10
396.548724
 20
21.806160
 42
0.017411
  0
VERTEX
  8
0
 10
397.984709
 20
21.361557
 42
0.012128
  0
VERTEX
  8
0
 10
399.166470
 20
21.070882
 42
0.255961
  0
VERTEX
  8
0
 10
399.502337
 20
21.169004
 42
0.369806
  0
VERTEX
  8
0
 10
399.527100
 20
21.490055
 42
0.007421
  0
VERTEX
  8
0
 10
398.468746
 20
22.893050
 42
0.013812
  0
VERTEX
  8
0
 10
397.100307
 20
24.555331
 42
0.008368
  0
VERTEX
  8
0
 10
395.394834
 20
26.449205
 42
0.000000
  0
VERTEX
  8
0
 10
390.867968
 20
31.310043
 42
0.000000
  0
VERTEX
  8
0
 10
391.183984
 20
40.357069
 42
0.004790
  0
VERTEX
  8
0
 10
391.328441
 20
46.057354
 42
0.053938
  0
VERTEX
  8
0
 10
391.120812
 20
48.307457
 42
0.138027
  0
VERTEX
  8
0
 10
390.458939
 20
49.597298
 42
0.088665
  0
VERTEX
  8
0
 10
389.106735
 20
50.615686
 42
0.092524
  0
VERTEX
  8
0
 10
386.534409
 20
51.366841
 42
0.212281
  0
VERTEX
  8
0
 10
384.658235
 20
50.747677
 42
0.129678
  0
VERTEX
  8
0
 10
383.251760
 20
48.580985
 42
0.028390
  0
VERTEX
  8
0
 10
382.094591
 20
44.250000
 42
-0.634175
  0
VERTEX
  8
0
 10
381.673128
 20
44.148585
 42
-0.050551
  0
VERTEX
  8
0
 10
380.842402
 20
45.428859
 42
-0.032313
  0
VERTEX
  8
0
 10
379.954499
 20
47.471982
 42
-0.041516
  0
VERTEX
  8
0
 10
379.423306
 20
49.449903
 42
0.036065
  0
VERTEX
  8
0
 10
379.102383
 20
50.699000
 42
0.009108
  0
VERTEX
  8
0
 10
378.398804
 20
52.676662
 42
0.009246
  0
VERTEX
  8
0
 10
377.509502
 20
54.912865
 42
0.009217
  0
VERTEX
  8
0
 10
376.537227
 20
57.117050
 42
-0.029114
  0
VERTEX
  8
0
 10
375.521984
 20
59.691322
 42
-0.016669
  0
VERTEX
  8
0
 10
374.585628
 20
62.897966
 42
-0.016391
  0
VERTEX
  8
0
 10
373.837239
 20
66.276543
 42
-0.021751
  0
VERTEX
  8
0
 10
373.392634
 20
69.392817
 42
0.014940
  0
VERTEX
  8
0
 10
372.862784
 20
73.506466
 42
0.059313
  0
VERTEX
  8
0
 10
372.168721
 20
75.952696
 42
0.066071
  0
VERTEX
  8
0
 10
370.957547
 20
78.034611
 42
0.021469
  0
VERTEX
  8
0
 10
368.654728
 20
80.758750
 42
0.013813
  0
VERTEX
  8
0
 10
366.916532
 20
82.542957
 42
0.012918
  0
VERTEX
  8
0
 10
365.044105
 20
84.269904
 42
0.013012
  0
VERTEX
  8
0
 10
363.303040
 20
85.716098
 42
0.042370
  0
VERTEX
  8
0
 10
362.051869
 20
86.540186
 42
-0.015078
  0
VERTEX
  8
0
 10
359.112491
 20
88.254137
 42
-0.066708
  0
VERTEX
  8
0
 10
357.572842
 20
89.528163
 42
-0.078288
  0
VERTEX
  8
0
 10
356.545289
 20
91.062679
 42
-0.025491
  0
VERTEX
  8
0
 10
355.523552
 20
93.599968
 42
-0.018323
  0
VERTEX
  8
0
 10
354.919885
 20
95.585097
 42
-0.056105
  0
VERTEX
  8
0
 10
354.714894
 20
96.974572
 42
-0.083989
  0
VERTEX
  8
0
 10
354.856971
 20
98.034892
 42
-0.094467
  0
VERTEX
  8
0
 10
355.339812
 20
98.941958
 42
0.007817
  0
VERTEX
  8
0
 10
355.889879
 20
99.647939
 42
0.157276
  0
VERTEX
  8
0
 10
355.978126
 20
99.902032
 42
0.559782
  0
VERTEX
  8
0
 10
355.866943
 20
99.973678
 42
0.022901
  0
VERTEX
  8
0
 10
355.356674
 20
99.698869
 42
-0.173679
  0
VERTEX
  8
0
 10
354.855124
 20
99.599348
 42
-0.151480
  0
VERTEX
  8
0
 10
354.370823
 20
99.832526
 42
-0.098195
  0
VERTEX
  8
0
 10
353.950118
 20
100.414847
 42
-0.046026
  0
VERTEX
  8
0
 10
353.640672
 20
101.295539
 42
0.080824
  0
VERTEX
  8
0
 10
353.111490
 20
102.522465
 42
0.013918
  0
VERTEX
  8
0
 10
351.684046
 20
104.625463
 42
0.014835
  0
VERTEX
  8
0
 10
349.848961
 20
107.020282
 42
0.012775
  0
VERTEX
  8
0
 10
347.783999
 20
109.427336
 42
-0.009840
  0
VERTEX
  8
0
 10
343.914638
 20
113.884503
 42
-0.058647
  0
VERTEX
  8
0
 10
342.234549
 20
116.459624
 42
-0.117976
  0
VERTEX
  8
0
 10
341.768975
 20
118.483964
 42
-0.104347
  0
VERTEX
  8
0
 10
342.235166
 20
120.601013
 42
0.105058
  0
VERTEX
  8
0
 10
342.528167
 20
121.940546
 42
0.071887
  0
VERTEX
  8
0
 10
342.313979
 20
123.488075
 42
0.043819
  0
VERTEX
  8
0
 10
341.521675
 20
125.539071
 42
0.012152
  0
VERTEX
  8
0
 10
339.925544
 20
128.601013
 42
0.011675
  0
VERTEX
  8
0
 10
336.992772
 20
133.627411
 42
0.049673
  0
VERTEX
  8
0
 10
334.887894
 20
136.391685
 42
0.057557
  0
VERTEX
  8
0
 10
332.430033
 20
138.486195
 42
0.019242
  0
VERTEX
  8
0
 10
328.403644
 20
140.967471
 42
-0.024185
  0
VERTEX
  8
0
 10
323.316975
 20
144.171924
 42
-0.168438
  0
VERTEX
  8
0
 10
321.618829
 20
146.518049
 42
-0.377583
  0
VERTEX
  8
0
 10
322.398609
 20
148.221549
 42
-0.074283
  0
VERTEX
  8
0
 10
325.921672
 20
149.200965
 42
0.117103
  0
VERTEX
  8
0
 10
327.996363
 20
149.972434
 42
0.309116
  0
VERTEX
  8
0
 10
328.558076
 20
151.370456
 42
0.128189
  0
VERTEX
  8
0
 10
327.446437
 20
153.545196
 42
0.022916
  0
VERTEX
  8
0
 10
324.233956
 20
156.836064
 42
-0.014872
  0
VERTEX
  8
0
 10
322.211972
 20
158.841822
 42
-0.013852
  0
VERTEX
  8
0
 10
320.262782
 20
161.011219
 42
-0.013983
  0
VERTEX
  8
0
 10
318.638697
 20
163.034781
 42
-0.044780
  0
VERTEX
  8
0
 10
317.722423
 20
164.500000
 42
0.030574
  0
VERTEX
  8
0
 10
316.861386
 20
165.967942
 42
0.010486
  0
VERTEX
  8
0
 10
315.443383
 20
167.985701
 42
0.010377
  0
VERTEX
  8
0
 10
313.781947
 20
170.151814
 42
0.011816
  0
VERTEX
  8
0
 10
312.100488
 20
172.153450
 42
-0.017203
  0
VERTEX
  8
0
 10
309.914551
 20
174.813280
 42
-0.056849
  0
VERTEX
  8
0
 10
308.750334
 20
176.755772
 42
-0.070109
  0
VERTEX
  8
0
 10
308.183259
 20
178.681558
 42
-0.036612
  0
VERTEX
  8
0
 10
308.000000
 20
181.180944
 42
0.054678
  0
VERTEX
  8
0
 10
307.609037
 20
184.745417
 42
0.088269
  0
VERTEX
  8
0
 10
306.438692
 20
187.555949
 42
0.072606
  0
VERTEX
  8
0
 10
304.185213
 20
190.148120
 42
0.026903
  0
VERTEX
  8
0
 10
300.344857
 20
193.106741
 42
-0.031873
  0
VERTEX
  8
0
 10
297.946771
 20
194.992484
 42
-0.045786
  0
VERTEX
  8
0
 10
296.107554
 20
196.969922
 42
-0.040291
  0
VERTEX
  8
0
 10
294.501585
 20
199.436443
 42
-0.018546
  0
VERTEX
  8
0
 10
292.800393
 20
202.874165
 42
0.000774
  0
VERTEX
  8
0
 10
290.313211
 20
208.384555
 42
0.000670
  0
VERTEX
  8
0
 10
287.687347
 20
214.157678
 42
0.000660
  0
VERTEX
  8
0
 10
285.313345
 20
219.340431
 42
0.002258
  0
VERTEX
  8
0
 10
283.749679
 20
222.702155
 42
0.075732
  0
VERTEX
  8
0
 10
283.131255
 20
223.623671
 42
0.039087
  0
VERTEX
  8
0
 10
282.113466
 20
224.572646
 42
0.037725
  0
VERTEX
  8
0
 10
280.889454
 20
225.404436
 42
0.046542
  0
VERTEX
  8
0
 10
279.635000
 20
225.977395
 42
-0.076781
  0
VERTEX
  8
0
 10
275.396348
 20
228.231118
 42
-0.077994
  0
VERTEX
  8
0
 10
272.061421
 20
231.648616
 42
-0.263718
  0
VERTEX
  8
0
 10
271.841646
 20
233.800003
 42
-0.364663
  0
VERTEX
  8
0
 10
273.500000
 20
234.616577
 42
-0.000000
  0
VERTEX
  8
0
 10
274.638074
 20
234.335893
 42
-0.000000
  0
VERTEX
  8
0
 10
276.000000
 20
234.000000
 42
-0.042553
  0
VERTEX
  8
0
 10
277.361926
 20
233.664107
 42
-0.000000
  0
VERTEX
  8
0
 10
278.500000
 20
233.383423
 42
0.029437
  0
VERTEX
  8
0
 10
279.835334
 20
233.136364
 42
0.168780
  0
VERTEX
  8
0
 10
280.529072
 20
233.284460
 42
0.210979
  0
VERTEX
  8
0
 10
280.893504
 20
233.805648
 42
0.048626
  0
VERTEX
  8
0
 10
281.000000
 20
234.898108
 42
0.151680
  0
VERTEX
  8
0
 10
280.229225
 20
237.380453
 42
0.042959
  0
VERTEX
  8
0
 10
277.630176
 20
240.542430
 42
0.043592
  0
VERTEX
  8
0
 10
274.451819
 20
243.273261
 42
0.114817
  0
VERTEX
  8
0
 10
271.696358
 20
244.418969
 42
-0.057188
  0
VERTEX
  8
0
 10
270.388637
 20
244.794539
 42
-0.024593
  0
VERTEX
  8
0
 10
268.746316
 20
245.573932
 42
-0.023946
  0
VERTEX
  8
0
 10
267.060601
 20
246.584756
 42
-0.029112
  0
VERTEX
  8
0
 10
265.590692
 20
247.693506
 42
0.005228
  0
VERTEX
  8
0
 10
264.133300
 20
248.906175
 42
0.003760
  0
VERTEX
  8
0
 10
262.481864
 20
250.230801
 42
0.003797
  0
VERTEX
  8
0
 10
260.891322
 20
251.467551
 42
0.008188
  0
VERTEX
  8
0
 10
259.644334
 20
252.390073
 42
-0.038979
  0
VERTEX
  8
0
 10
258.632537
 20
253.239678
 42
-0.040263
  0
VERTEX
  8
0
 10
257.776773
 20
254.227456
 42
-0.043586
  0
VERTEX
  8
0
 10
257.184468
 20
255.201576
 42
-0.115306
  0
VERTEX
  8
0
 10
257.000000
 20
255.990849
 42
0.065915
  0
VERTEX
  8
0
 10
256.573383
 20
259.212902
 42
0.075408
  0
VERTEX
  8
0
 10
255.324783
 20
262.055990
 42
0.076416
  0
VERTEX
  8
0
 10
253.306257
 20
264.371979
 42
0.070223
  0
VERTEX
  8
0
 10
250.629539
 20
266.054498
 42
-0.029995
  0
VERTEX
  8
0
 10
248.179123
 20
267.333084
 42
-0.113627
  0
VERTEX
  8
0
 10
246.942887
 20
268.525072
 42
-0.084897
  0
VERTEX
  8
0
 10
246.168542
 20
270.316740
 42
-0.012471
  0
VERTEX
  8
0
 10
245.327313
 20
274.194666
 42
-0.009806
  0
VERTEX
  8
0
 10
244.861727
 20
276.922261
 42
-0.007619
  0
VERTEX
  8
0
 10
244.458882
 20
279.905681
 42
-0.007713
  0
VERTEX
  8
0
 10
244.168490
 20
282.699974
 42
-0.018434
  0
VERTEX
  8
0
 10
244.061662
 20
284.782119
 42
0.047766
  0
VERTEX
  8
0
 10
243.593175
 20
289.029441
 42
0.062341
  0
VERTEX
  8
0
 10
242.328163
 20
292.724587
 42
0.055541
  0
VERTEX
  8
0
 10
240.059052
 20
296.301395
 42
0.029098
  0
VERTEX
  8
0
 10
236.521842
 20
300.218531
 42
-0.011044
  0
VERTEX
  8
0
 10
233.692639
 20
303.132913
 42
-0.073246
  0
VERTEX
  8
0
 10
232.547279
 20
304.799021
 42
-0.112376
  0
VERTEX
  8
0
 10
232.166920
 20
306.407494
 42
-0.041764
  0
VERTEX
  8
0
 10
232.342341
 20
308.739423
 42
0.033871
  0
VERTEX
  8
0
 10
232.509950
 20
310.579280
 42
0.039763
  0
VERTEX
  8
0
 10
232.411340
 20
312.327294
 42
0.041550
  0
VERTEX
  8
0
 10
232.046096
 20
313.969183
 42
0.044188
  0
VERTEX
  8
0
 10
231.419280
 20
315.492949
 42
-0.049786
  0
VERTEX
  8
0
 10
230.763899
 20
317.138154
 42
-0.012872
  0
VERTEX
  8
0
 10
230.046121
 20
319.904613
 42
-0.012966
  0
VERTEX
  8
0
 10
229.387534
 20
323.117424
 42
-0.012880
  0
VERTEX
  8
0
 10
228.894727
 20
326.367191
 42
0.011569
  0
VERTEX
  8
0
 10
228.414420
 20
329.591526
 42
0.012260
  0
VERTEX
  8
0
 10
227.793192
 20
332.728043
 42
0.011936
  0
VERTEX
  8
0
 10
227.128733
 20
335.397853
 42
0.053497
  0
VERTEX
  8
0
 10
226.539905
 20
336.895134
 42
0.052875
  0
VERTEX
  8
0
 10
224.759376
 20
339.570403
 42
0.034172
  0
VERTEX
  8
0
 10
222.190531
 20
342.266688
 42
0.034423
  0
VERTEX
  8
0
 10
219.325065
 20
344.548375
 42
0.060667
  0
VERTEX
  8
0
 10
216.648345
 20
345.950280
 42
-0.030092
  0
VERTEX
  8
0
 10
215.282969
 20
346.562376
 42
-0.111243
  0
VERTEX
  8
0
 10
214.566903
 20
347.169412
 42
-0.167972
  0
VERTEX
  8
0
 10
214.338458
 20
347.874781
 42
-0.094916
  0
VERTEX
  8
0
 10
214.526941
 20
348.763898
 42
0.031078
  0
VERTEX
  8
0
 10
215.490733
 20
351.523336
 42
0.081823
  0
VERTEX
  8
0
 10
215.721246
 20
353.598887
 42
0.105942
  0
VERTEX
  8
0
 10
215.259199
 20
355.309778
 42
0.077790
  0
VERTEX
  8
0
 10
214.097868
 20
356.902132
 42
-0.052138
  0
VERTEX
  8
0
 10
212.750156
 20
358.564590
 42
-0.096137
  0
VERTEX
  8
0
 10
212.098324
 20
360.171560
 42
-0.136870
  0
VERTEX
  8
0
 10
212.204554
 20
361.524009
 42
-0.168258
  0
VERTEX
  8
0
 10
213.000000
 20
362.500000
 42
0.210283
  0
VERTEX
  8
0
 10
213.863159
 20
363.754407
 42
0.119114
  0
VERTEX
  8
0
 10
213.771301
 20
365.629809
 42
0.071928
  0
VERTEX
  8
0
 10
212.646597
 20
368.084371
 42
0.030693
  0
VERTEX
  8
0
 10
210.500000
 20
371.000000
 42
-0.012973
  0
VERTEX
  8
0
 10
208.298168
 20
373.778871
 42
-0.058284
  0
VERTEX
  8
0
 10
207.255482
 20
375.567969
 42
-0.194036
  0
VERTEX
  8
0
 10
207.228205
 20
376.544325
 42
-0.313564
  0
VERTEX
  8
0
 10
207.883369
 20
377.000000
 42
0.309781
  0
VERTEX
  8
0
 10
208.929359
 20
377.716849
 42
0.086643
  0
VERTEX
  8
0
 10
209.337223
 20
379.767670
 42
0.062344
  0
VERTEX
  8
0
 10
209.052808
 20
382.572277
 42
0.050010
  0
VERTEX
  8
0
 10
208.081647
 20
385.449493
 42
0.035983
  0
VERTEX
  8
0
 10
207.085709
 20
387.283876
 42
0.017661
  0
VERTEX
  8
0
 10
205.574200
 20
389.471342
 42
0.017424
  0
VERTEX
  8
0
 10
203.836173
 20
391.643552
 42
0.024206
  0
VERTEX
  8
0
 10
202.123098
 20
393.452948
 42
-0.020785
  0
VERTEX
  8
0
 10
199.242786
 20
396.453837
 42
-0.116214
  0
VERTEX
  8
0
 10
198.197553
 20
398.404308
 42
-0.336849
  0
VERTEX
  8
0
 10
198.660294
 20
399.532394
 42
-0.133715
  0
VERTEX
  8
0
 10
200.377555
 20
400.000000
 42
0.057584
  0
VERTEX
  8
0
 10
201.383957
 20
400.116292
 42
0.043584
  0
VERTEX
  8
0
 10
202.441286
 20
400.463394
 42
0.044563
  0
VERTEX
  8
0
 10
203.389507
 20
400.973286
 42
0.074041
  0
VERTEX
  8
0
 10
204.064328
 20
401.577510
 42
0.095926
  0
VERTEX
  8
0
 10
204.622822
 20
402.596298
 42
0.122153
  0
VERTEX
  8
0
 10
204.694431
 20
403.662096
 42
0.067633
  0
VERTEX
  8
0
 10
204.236749
 20
405.085619
 42
0.013461
  0
VERTEX
  8
0
 10
203.016284
 20
407.470191
 42
-0.031533
  0
VERTEX
  8
0
 10
202.077677
 20
409.479894
 42
-0.024332
  0
VERTEX
  8
0
 10
201.304627
 20
411.772406
 42
-0.024756
  0
VERTEX
  8
0
 10
200.775659
 20
414.061714
 42
-0.039759
  0
VERTEX
  8
0
 10
200.579512
 20
416.054824
 42
0.022861
  0
VERTEX
  8
0
 10
200.455907
 20
417.973460
 42
0.052885
  0
VERTEX
  8
0
 10
200.147260
 20
419.381976
 42
0.077290
  0
VERTEX
  8
0
 10
199.663051
 20
420.321982
 42
0.159924
  0
VERTEX
  8
0
 10
199.000000
 20
420.799049
 42
0.030890
  0
VERTEX
  8
0
 10
198.454262
 20
420.935362
 42
0.187459
  0
VERTEX
  8
0
 10
198.173285
 20
420.882022
 42
0.387217
  0
VERTEX
  8
0
 10
198.121670
 20
420.698172
 42
0.073400
  0
SEQEND
  0
ENDSEC
  0
EOF
