  0
SECTION
  2
HEADER
  9
$ACADVER
  1
AC1006
  9
$EXTMIN
 10
0.000000
 20
0.000000
 30
0.000000
  9
$EXTMAX
 10
397.000000
 20
405.000000
 30
0.000000
  0
ENDSEC
  0
SECTION
  2
ENTITIES
  0
POLYLINE
  8
0
 66
1
 70
1
  0
VERTEX
  8
0
 10
242.803308
 20
403.750000
 42
0.112024
  0
VERTEX
  8
0
 10
242.153846
 20
402.943641
 42
0.031848
  0
VERTEX
  8
0
 10
241.536334
 20
401.446688
 42
0.030017
  0
VERTEX
  8
0
 10
241.030275
 20
399.600616
 42
0.026163
  0
VERTEX
  8
0
 10
240.720418
 20
397.620491
 42
-0.028942
  0
VERTEX
  8
0
 10
240.269387
 20
394.839443
 42
-0.072783
  0
VERTEX
  8
0
 10
239.540303
 20
392.925478
 42
-0.065349
  0
VERTEX
  8
0
 10
238.243488
 20
391.182921
 42
-0.019954
  0
VERTEX
  8
0
 10
235.858240
 20
388.913128
 42
-0.021201
  0
VERTEX
  8
0
 10
232.664773
 20
386.339656
 42
-0.096603
  0
VERTEX
  8
0
 10
230.519471
 20
385.321038
 42
-0.149153
  0
VERTEX
  8
0
 10
228.646154
 20
385.406214
 42
-0.076650
  0
VERTEX
  8
0
 10
226.558870
 20
386.531803
 42
0.027341
  0
VERTEX
  8
0
 10
224.765761
 20
387.739914
 42
0.235426
  0
VERTEX
  8
0
 10
223.831176
 20
387.810884
 42
0.225267
  0
VERTEX
  8
0
 10
223.185755
 20
387.105477
 42
0.025127
  0
VERTEX
  8
0
 10
222.637019
 20
384.935096
 42
-0.093057
  0
VERTEX
  8
0
 10
221.527732
 20
382.181613
 42
-0.041550
  0
VERTEX
  8
0
 10
219.148641
 20
379.062487
 42
-0.038441
  0
VERTEX
  8
0
 10
216.545899
 20
376.592200
 42
-0.319232
  0
VERTEX
  8
0
 10
215.011067
 20
376.493160
 42
0.132815
  0
VERTEX
  8
0
 10
214.626986
 20
376.607561
 42
0.190292
  0
VERTEX
  8
0
 10
214.297001
 20
376.486851
 42
0.143177
  0
VERTEX
  8
0
 10
214.074395
 20
376.131477
 42
0.068905
  0
VERTEX
  8
0
 10
214.000000
 20
375.594201
 42
-0.187102
  0
VERTEX
  8
0
 10
213.325148
 20
373.853898
 42
-0.153884
  0
VERTEX
  8
0
 10
211.589821
 20
372.847435
 42
-0.095186
  0
VERTEX
  8
0
 10
208.824480
 20
372.763342
 42
-0.043380
  0
VERTEX
  8
0
 10
205.303789
 20
373.647731
 42
0.021527
  0
VERTEX
  8
0
 10
203.208244
 20
374.272531
 42
0.016729
  0
VERTEX
  8
0
 10
200.882988
 20
374.776076
 42
0.017024
  0
VERTEX
  8
0
 10
198.679875
 20
375.099498
 42
0.038738
  0
VERTEX
  8
0
 10
197.000000
 20
375.157105
 42
-0.048562
  0
VERTEX
  8
0
 10
195.232829
 20
375.252426
 42
-0.016372
  0
VERTEX
  8
0
 10
192.693586
 20
375.724140
 42
-0.016111
  0
VERTEX
  8
0
 10
189.902571
 20
376.432747
 42
-0.017784
  0
VERTEX
  8
0
 10
187.254759
 20
377.299692
 42
-0.018518
  0
VERTEX
  8
0
 10
183.802288
 20
378.714876
 42
-0.055156
  0
VERTEX
  8
0
 10
181.608501
 20
380.018735
 42
-0.061856
  0
VERTEX
  8
0
 10
179.892471
 20
381.682725
 42
-0.028024
  0
VERTEX
  8
0
 10
178.067455
 20
384.232581
 42
0.032749
  0
VERTEX
  8
0
 10
175.414648
 20
387.866014
 42
0.058299
  0
VERTEX
  8
0
 10
172.729121
 20
390.409316
 42
0.087355
  0
VERTEX
  8
0
 10
170.401672
 20
391.584185
 42
0.276382
  0
VERTEX
  8
0
 10
168.775779
 20
391.175779
 42
0.095145
  0
VERTEX
  8
0
 10
168.318847
 20
390.501651
 42
0.105350
  0
VERTEX
  8
0
 10
168.165697
 20
389.730441
 42
0.075568
  0
VERTEX
  8
0
 10
168.326016
 20
388.766101
 42
0.027992
  0
VERTEX
  8
0
 10
168.827126
 20
387.480073
 42
-0.017618
  0
VERTEX
  8
0
 10
169.736449
 20
385.282254
 42
-0.105157
  0
VERTEX
  8
0
 10
169.917738
 20
384.062257
 42
-0.196967
  0
VERTEX
  8
0
 10
169.530132
 20
383.261858
 42
-0.091366
  0
VERTEX
  8
0
 10
168.527078
 20
382.648764
 42
-0.229516
  0
VERTEX
  8
0
 10
166.542025
 20
382.817520
 42
-0.059334
  0
VERTEX
  8
0
 10
163.922429
 20
384.827847
 42
-0.053052
  0
VERTEX
  8
0
 10
161.397633
 20
387.876356
 42
-0.055279
  0
VERTEX
  8
0
 10
159.611353
 20
391.347597
 42
0.101969
  0
VERTEX
  8
0
 10
156.241567
 20
396.627629
 42
0.055022
  0
VERTEX
  8
0
 10
150.264357
 20
401.556645
 42
0.085103
  0
VERTEX
  8
0
 10
145.042467
 20
403.825325
 42
0.486405
  0
VERTEX
  8
0
 10
143.000000
 20
402.222506
 42
0.058990
  0
VERTEX
  8
0
 10
143.097338
 20
401.400342
 42
0.028784
  0
VERTEX
  8
0
 10
143.403091
 20
400.387728
 42
0.028078
  0
VERTEX
  8
0
 10
143.846870
 20
399.358052
 42
0.036202
  0
VERTEX
  8
0
 10
144.372226
 20
398.472506
 42
-0.041991
  0
VERTEX
  8
0
 10
144.950846
 20
397.470972
 42
-0.018075
  0
VERTEX
  8
0
 10
145.557457
 20
396.051299
 42
-0.017735
  0
VERTEX
  8
0
 10
146.097941
 20
394.484581
 42
-0.022393
  0
VERTEX
  8
0
 10
146.480099
 20
393.000000
 42
0.026847
  0
VERTEX
  8
0
 10
146.898138
 20
391.433916
 42
0.015850
  0
VERTEX
  8
0
 10
147.555169
 20
389.612678
 42
0.015833
  0
VERTEX
  8
0
 10
148.328863
 20
387.830554
 42
0.026049
  0
VERTEX
  8
0
 10
149.106872
 20
386.383586
 42
-0.015465
  0
VERTEX
  8
0
 10
150.248055
 20
384.364785
 42
-0.126324
  0
VERTEX
  8
0
 10
150.489897
 20
383.342287
 42
-0.141658
  0
VERTEX
  8
0
 10
150.192579
 20
382.382868
 42
-0.021144
  0
VERTEX
  8
0
 10
148.998999
 20
380.725857
 42
0.042454
  0
VERTEX
  8
0
 10
147.513652
 20
378.466924
 42
0.147103
  0
VERTEX
  8
0
 10
147.161911
 20
376.772598
 42
0.120056
  0
VERTEX
  8
0
 10
147.774589
 20
374.962591
 42
0.024061
  0
VERTEX
  8
0
 10
149.750000
 20
372.156992
 42
-0.011073
  0
VERTEX
  8
0
 10
152.511663
 20
368.443423
 42
-0.050070
  0
VERTEX
  8
0
 10
153.845439
 20
366.098923
 42
-0.094690
  0
VERTEX
  8
0
 10
154.251193
 20
364.353124
 42
-0.133521
  0
VERTEX
  8
0
 10
153.895147
 20
362.804081
 42
0.125233
  0
VERTEX
  8
0
 10
153.457084
 20
361.031121
 42
0.016143
  0
VERTEX
  8
0
 10
153.611658
 20
357.092177
 42
0.012031
  0
VERTEX
  8
0
 10
154.190560
 20
351.053058
 42
0.002840
  0
VERTEX
  8
0
 10
155.456922
 20
341.000000
 42
0.037264
  0
VERTEX
  8
0
 10
155.719737
 20
339.739029
 42
0.012096
  0
VERTEX
  8
0
 10
156.290445
 20
337.920940
 42
0.011983
  0
VERTEX
  8
0
 10
157.024647
 20
335.923976
 42
0.013201
  0
VERTEX
  8
0
 10
157.831948
 20
334.028733
 42
-0.038164
  0
VERTEX
  8
0
 10
159.033483
 20
330.765451
 42
-0.150836
  0
VERTEX
  8
0
 10
158.985040
 20
328.651445
 42
-0.224799
  0
VERTEX
  8
0
 10
157.811780
 20
327.428269
 42
-0.091246
  0
VERTEX
  8
0
 10
155.484544
 20
327.000000
 42
0.122050
  0
VERTEX
  8
0
 10
153.522930
 20
326.513928
 42
0.285933
  0
VERTEX
  8
0
 10
152.792485
 20
325.261506
 42
0.146188
  0
VERTEX
  8
0
 10
153.459895
 20
323.242988
 42
0.036653
  0
VERTEX
  8
0
 10
155.672482
 20
320.523155
 42
-0.028568
  0
VERTEX
  8
0
 10
157.886014
 20
317.890203
 42
-0.034013
  0
VERTEX
  8
0
 10
159.647707
 20
315.165488
 42
-0.031881
  0
VERTEX
  8
0
 10
161.107864
 20
312.081656
 42
-0.020652
  0
VERTEX
  8
0
 10
162.414154
 20
308.355372
 42
-0.068480
  0
VERTEX
  8
0
 10
162.581379
 20
307.313378
 42
-0.075771
  0
VERTEX
  8
0
 10
162.450330
 20
306.302120
 42
-0.072087
  0
VERTEX
  8
0
 10
162.014157
 20
305.335935
 42
-0.054409
  0
VERTEX
  8
0
 10
161.283944
 20
304.426801
 42
0.048563
  0
VERTEX
  8
0
 10
160.000544
 20
302.866557
 42
0.131411
  0
VERTEX
  8
0
 10
159.539882
 20
301.521544
 42
0.091595
  0
VERTEX
  8
0
 10
159.733132
 20
299.834192
 42
0.016472
  0
VERTEX
  8
0
 10
160.761502
 20
296.828473
 42
-0.024619
  0
VERTEX
  8
0
 10
161.333838
 20
295.062235
 42
-0.047451
  0
VERTEX
  8
0
 10
161.584151
 20
293.597927
 42
-0.059862
  0
VERTEX
  8
0
 10
161.528683
 20
292.369023
 42
-0.081859
  0
VERTEX
  8
0
 10
161.172360
 20
291.322057
 42
0.086712
  0
VERTEX
  8
0
 10
160.819323
 20
290.251017
 42
0.060540
  0
VERTEX
  8
0
 10
160.788121
 20
288.976714
 42
0.046271
  0
VERTEX
  8
0
 10
161.084991
 20
287.424113
 42
0.021987
  0
VERTEX
  8
0
 10
161.736276
 20
285.493585
 42
-0.033280
  0
VERTEX
  8
0
 10
162.346635
 20
283.539858
 42
-0.015010
  0
VERTEX
  8
0
 10
162.896732
 20
280.910615
 42
-0.014784
  0
VERTEX
  8
0
 10
163.313470
 20
278.089545
 42
-0.019544
  0
VERTEX
  8
0
 10
163.515901
 20
275.500000
 42
0.020983
  0
VERTEX
  8
0
 10
163.945884
 20
270.196043
 42
0.022804
  0
VERTEX
  8
0
 10
164.813588
 20
265.093776
 42
0.024488
  0
VERTEX
  8
0
 10
166.042293
 20
260.530413
 42
0.041340
  0
VERTEX
  8
0
 10
167.564597
 20
256.875083
 42
-0.027392
  0
VERTEX
  8
0
 10
168.322412
 20
255.189367
 42
-0.068154
  0
VERTEX
  8
0
 10
168.632114
 20
253.876215
 42
-0.080297
  0
VERTEX
  8
0
 10
168.553419
 20
252.662247
 42
-0.050679
  0
VERTEX
  8
0
 10
168.097359
 20
251.314335
 42
0.038314
  0
VERTEX
  8
0
 10
167.283572
 20
249.091415
 42
0.145116
  0
VERTEX
  8
0
 10
167.303893
 20
247.626845
 42
0.078410
  0
VERTEX
  8
0
 10
168.131643
 20
245.950212
 42
0.006477
  0
VERTEX
  8
0
 10
171.000000
 20
242.000000
 42
-0.006129
  0
VERTEX
  8
0
 10
172.532647
 20
239.892370
 42
-0.008970
  0
VERTEX
  8
0
 10
173.825000
 20
237.997426
 42
-0.005069
  0
VERTEX
  8
0
 10
174.862585
 20
236.380309
 42
-0.141006
  0
VERTEX
  8
0
 10
175.000000
 20
235.902728
 42
-0.226374
  0
VERTEX
  8
0
 10
174.836913
 20
235.560971
 42
-0.033215
  0
VERTEX
  8
0
 10
174.192187
 20
235.106604
 42
-0.032069
  0
VERTEX
  8
0
 10
173.303355
 20
234.640040
 42
-0.022435
  0
VERTEX
  8
0
 10
172.250000
 20
234.226138
 42
-0.063961
  0
VERTEX
  8
0
 10
170.587293
 20
233.885989
 42
-0.119149
  0
VERTEX
  8
0
 10
169.237923
 20
234.108097
 42
-0.072103
  0
VERTEX
  8
0
 10
167.717014
 20
235.028637
 42
-0.012866
  0
VERTEX
  8
0
 10
165.200013
 20
237.209476
 42
0.023610
  0
VERTEX
  8
0
 10
162.083668
 20
239.794549
 42
0.136623
  0
VERTEX
  8
0
 10
160.111745
 20
240.567809
 42
0.307101
  0
VERTEX
  8
0
 10
158.908527
 20
239.920182
 42
0.104980
  0
VERTEX
  8
0
 10
158.348540
 20
237.911747
 42
-0.000721
  0
VERTEX
  8
0
 10
158.283325
 20
236.896727
 42
-0.000641
  0
VERTEX
  8
0
 10
158.212625
 20
235.841263
 42
-0.000643
  0
VERTEX
  8
0
 10
158.146577
 20
234.891839
 42
-0.001982
  0
VERTEX
  8
0
 10
158.098540
 20
234.250000
 42
-0.319369
  0
VERTEX
  8
0
 10
157.235380
 20
233.218812
 42
-0.108951
  0
VERTEX
  8
0
 10
155.173664
 20
233.139272
 42
-0.062989
  0
VERTEX
  8
0
 10
152.177416
 20
234.080251
 42
-0.033779
  0
VERTEX
  8
0
 10
148.765544
 20
235.933734
 42
0.029712
  0
VERTEX
  8
0
 10
145.207802
 20
237.904064
 42
0.022852
  0
VERTEX
  8
0
 10
141.118775
 20
239.636084
 42
0.023288
  0
VERTEX
  8
0
 10
137.757885
 20
240.706756
 42
0.653529
  0
VERTEX
  8
0
 10
137.330280
 20
240.172455
 42
-0.303380
  0
VERTEX
  8
0
 10
137.211440
 20
239.059053
 42
-0.076560
  0
VERTEX
  8
0
 10
135.773445
 20
237.791384
 42
-0.066491
  0
VERTEX
  8
0
 10
133.761655
 20
236.851829
 42
-0.113706
  0
VERTEX
  8
0
 10
131.922806
 20
236.708670
 42
0.010155
  0
VERTEX
  8
0
 10
129.570919
 20
237.012404
 42
0.002367
  0
VERTEX
  8
0
 10
125.611802
 20
237.423207
 42
0.002317
  0
VERTEX
  8
0
 10
121.656955
 20
237.796159
 42
0.010985
  0
VERTEX
  8
0
 10
119.387505
 20
237.949401
 42
-0.114757
  0
VERTEX
  8
0
 10
118.752836
 20
238.127763
 42
-0.013880
  0
VERTEX
  8
0
 10
117.492896
 20
238.866387
 42
-0.015903
  0
VERTEX
  8
0
 10
116.026944
 20
239.847498
 42
-0.012475
  0
VERTEX
  8
0
 10
114.500000
 20
241.000000
 42
0.035584
  0
VERTEX
  8
0
 10
110.738577
 20
243.575333
 42
0.182692
  0
VERTEX
  8
0
 10
108.289107
 20
243.990323
 42
0.248914
  0
VERTEX
  8
0
 10
106.647533
 20
242.658811
 42
0.064806
  0
VERTEX
  8
0
 10
105.704074
 20
239.275770
 42
-0.042174
  0
VERTEX
  8
0
 10
105.233219
 20
237.235742
 42
-0.282497
  0
VERTEX
  8
0
 10
104.477178
 20
236.587195
 42
-0.173913
  0
VERTEX
  8
0
 10
103.256467
 20
236.816919
 42
-0.016461
  0
VERTEX
  8
0
 10
100.643049
 20
238.467487
 42
0.023276
  0
VERTEX
  8
0
 10
95.745369
 20
241.468171
 42
0.017915
  0
VERTEX
  8
0
 10
90.147854
 20
244.292653
 42
0.013865
  0
VERTEX
  8
0
 10
84.950248
 20
246.513255
 42
0.130259
  0
VERTEX
  8
0
 10
82.557926
 20
246.794381
 42
0.072719
  0
VERTEX
  8
0
 10
81.584164
 20
246.506694
 42
0.146090
  0
VERTEX
  8
0
 10
80.988438
 20
245.981480
 42
0.118618
  0
VERTEX
  8
0
 10
80.704857
 20
245.131329
 42
0.039711
  0
VERTEX
  8
0
 10
80.696353
 20
243.812500
 42
-0.063037
  0
VERTEX
  8
0
 10
80.611210
 20
242.206779
 42
-0.254614
  0
VERTEX
  8
0
 10
80.017354
 20
241.468667
 42
-0.093459
  0
VERTEX
  8
0
 10
78.617741
 20
241.172881
 42
-0.005473
  0
VERTEX
  8
0
 10
74.243731
 20
241.125000
 42
-0.014869
  0
VERTEX
  8
0
 10
70.455260
 20
241.237688
 42
-0.052503
  0
VERTEX
  8
0
 10
68.056213
 20
241.635637
 42
-0.062972
  0
VERTEX
  8
0
 10
66.025318
 20
242.482503
 42
-0.028320
  0
VERTEX
  8
0
 10
63.600375
 20
244.062500
 42
0.021223
  0
VERTEX
  8
0
 10
60.542932
 20
246.116973
 42
0.101959
  0
VERTEX
  8
0
 10
58.579378
 20
246.824840
 42
0.133971
  0
VERTEX
  8
0
 10
56.774562
 20
246.600674
 42
0.047564
  0
VERTEX
  8
0
 10
54.453390
 20
245.377503
 42
-0.074542
  0
VERTEX
  8
0
 10
52.710770
 20
244.575703
 42
-0.101571
  0
VERTEX
  8
0
 10
50.991306
 20
244.437894
 42
-0.044670
  0
VERTEX
  8
0
 10
48.458831
 20
244.982314
 42
-0.004788
  0
VERTEX
  8
0
 10
42.733834
 20
246.820032
 42
0.004549
  0
VERTEX
  8
0
 10
38.975368
 20
248.028472
 42
0.005059
  0
VERTEX
  8
0
 10
35.325887
 20
249.124958
 42
0.004694
  0
VERTEX
  8
0
 10
32.197052
 20
249.998854
 42
0.026232
  0
VERTEX
  8
0
 10
30.495261
 20
250.362510
 42
0.001420
  0
VERTEX
  8
0
 10
22.550107
 20
251.605864
 42
0.034640
  0
VERTEX
  8
0
 10
20.323109
 20
251.791445
 42
0.195648
  0
VERTEX
  8
0
 10
19.388579
 20
251.426255
 42
0.205797
  0
VERTEX
  8
0
 10
19.000000
 20
250.522156
 42
0.043691
  0
VERTEX
  8
0
 10
19.066404
 20
249.763674
 42
0.023261
  0
VERTEX
  8
0
 10
19.273253
 20
248.843695
 42
0.022975
  0
VERTEX
  8
0
 10
19.573911
 20
247.916662
 42
0.032971
  0
VERTEX
  8
0
 10
19.930225
 20
247.130377
 42
-0.062008
  0
VERTEX
  8
0
 10
20.228301
 20
246.356225
 42
-0.054494
  0
VERTEX
  8
0
 10
20.344754
 20
245.497589
 42
-0.056953
  0
VERTEX
  8
0
 10
20.272477
 20
244.677086
 42
-0.088210
  0
VERTEX
  8
0
 10
20.010930
 20
244.017686
 42
-0.265282
  0
VERTEX
  8
0
 10
19.325973
 20
243.644732
 42
-0.129059
  0
VERTEX
  8
0
 10
18.335734
 20
243.925958
 42
-0.051031
  0
VERTEX
  8
0
 10
16.834037
 20
245.033298
 42
-0.010233
  0
VERTEX
  8
0
 10
14.415946
 20
247.321568
 42
0.014190
  0
VERTEX
  8
0
 10
11.035679
 20
250.470028
 42
0.090350
  0
VERTEX
  8
0
 10
9.034044
 20
251.673459
 42
0.197149
  0
VERTEX
  8
0
 10
7.493291
 20
251.630002
 42
0.115654
  0
VERTEX
  8
0
 10
6.000000
 20
250.500000
 42
-0.066454
  0
VERTEX
  8
0
 10
5.377807
 20
249.925738
 42
-0.044484
  0
VERTEX
  8
0
 10
4.537837
 20
249.440625
 42
-0.044363
  0
VERTEX
  8
0
 10
3.621707
 20
249.110191
 42
-0.064463
  0
VERTEX
  8
0
 10
2.770566
 20
249.000000
 42
0.049168
  0
VERTEX
  8
0
 10
1.890118
 20
248.913210
 42
0.165945
  0
VERTEX
  8
0
 10
1.396800
 20
248.627201
 42
0.199220
  0
VERTEX
  8
0
 10
1.233204
 20
248.138782
 42
0.074216
  0
VERTEX
  8
0
 10
1.393011
 20
247.418213
 42
-0.036495
  0
VERTEX
  8
0
 10
1.626205
 20
246.646492
 42
-0.016750
  0
VERTEX
  8
0
 10
1.821697
 20
245.613263
 42
-0.016487
  0
VERTEX
  8
0
 10
1.955656
 20
244.507208
 42
-0.021893
  0
VERTEX
  8
0
 10
2.000000
 20
243.494938
 42
0.123622
  0
VERTEX
  8
0
 10
2.687226
 20
240.757862
 42
0.065948
  0
VERTEX
  8
0
 10
4.738084
 20
237.907482
 42
0.066628
  0
VERTEX
  8
0
 10
7.422656
 20
235.726186
 42
0.138188
  0
VERTEX
  8
0
 10
10.000000
 20
235.000000
 42
-0.136292
  0
VERTEX
  8
0
 10
12.325602
 20
234.354078
 42
-0.050614
  0
VERTEX
  8
0
 10
15.067355
 20
232.300030
 42
-0.050522
  0
VERTEX
  8
0
 10
17.309409
 20
229.773052
 42
-0.157474
  0
VERTEX
  8
0
 10
18.000000
 20
227.634717
 42
0.081862
  0
VERTEX
  8
0
 10
18.114423
 20
226.940518
 42
0.012401
  0
VERTEX
  8
0
 10
18.600488
 20
225.615186
 42
0.013616
  0
VERTEX
  8
0
 10
19.261543
 20
224.066982
 42
0.011403
  0
VERTEX
  8
0
 10
20.044214
 20
222.461442
 42
-0.026429
  0
VERTEX
  8
0
 10
20.980036
 20
220.385656
 42
-0.048518
  0
VERTEX
  8
0
 10
21.480935
 20
218.601732
 42
-0.053535
  0
VERTEX
  8
0
 10
21.601420
 20
216.878581
 42
-0.040857
  0
VERTEX
  8
0
 10
21.377135
 20
215.000000
 42
0.027454
  0
VERTEX
  8
0
 10
20.919370
 20
211.878279
 42
0.090638
  0
VERTEX
  8
0
 10
21.105667
 20
209.815635
 42
0.081871
  0
VERTEX
  8
0
 10
22.022038
 20
207.839656
 42
0.019836
  0
VERTEX
  8
0
 10
24.171732
 20
204.935927
 42
-0.038926
  0
VERTEX
  8
0
 10
26.460478
 20
201.584242
 42
-0.185028
  0
VERTEX
  8
0
 10
26.813448
 20
199.331225
 42
-0.286761
  0
VERTEX
  8
0
 10
25.564616
 20
198.040876
 42
-0.080879
  0
VERTEX
  8
0
 10
22.647276
 20
197.801685
 42
0.000000
  0
VERTEX
  8
0
 10
18.865299
 20
198.103370
 42
0.000000
  0
VERTEX
  8
0
 10
19.092061
 20
187.801685
 42
-0.021212
  0
VERTEX
  8
0
 10
18.930291
 20
179.876512
 42
-0.061588
  0
VERTEX
  8
0
 10
17.919344
 20
174.499625
 42
-0.090955
  0
VERTEX
  8
0
 10
15.940319
 20
170.791833
 42
-0.100453
  0
VERTEX
  8
0
 10
12.830759
 20
168.178687
 42
0.023139
  0
VERTEX
  8
0
 10
8.290418
 20
165.426712
 42
0.077411
  0
VERTEX
  8
0
 10
5.740216
 20
163.071416
 42
0.104178
  0
VERTEX
  8
0
 10
4.438905
 20
160.464505
 42
0.063932
  0
VERTEX
  8
0
 10
4.000000
 20
157.045965
 42
-0.026485
  0
VERTEX
  8
0
 10
3.877436
 20
154.733739
 42
-0.041719
  0
VERTEX
  8
0
 10
3.503602
 20
152.782596
 42
-0.047257
  0
VERTEX
  8
0
 10
2.860015
 20
151.109079
 42
-0.051279
  0
VERTEX
  8
0
 10
1.927420
 20
149.634859
 42
0.023423
  0
VERTEX
  8
0
 10
0.550469
 20
147.704803
 42
0.531233
  0
VERTEX
  8
0
 10
0.775893
 20
147.177221
 42
0.152712
  0
VERTEX
  8
0
 10
1.874540
 20
147.301594
 42
0.006458
  0
VERTEX
  8
0
 10
5.481145
 20
148.950093
 42
-0.020222
  0
VERTEX
  8
0
 10
7.080168
 20
149.628415
 42
-0.026506
  0
VERTEX
  8
0
 10
8.592117
 20
150.109006
 42
-0.025931
  0
VERTEX
  8
0
 10
9.853517
 20
150.368529
 42
-0.168742
  0
VERTEX
  8
0
 10
10.481145
 20
150.252196
 42
-0.013194
  0
VERTEX
  8
0
 10
11.037873
 20
149.915444
 42
-0.002860
  0
VERTEX
  8
0
 10
11.980433
 20
149.303145
 42
-0.002980
  0
VERTEX
  8
0
 10
13.063422
 20
148.581495
 42
-0.002848
  0
VERTEX
  8
0
 10
14.154370
 20
147.836034
 42
0.030882
  0
VERTEX
  8
0
 10
16.243909
 20
146.573854
 42
0.088896
  0
VERTEX
  8
0
 10
17.853299
 20
146.068384
 42
0.271277
  0
VERTEX
  8
0
 10
18.624579
 20
146.397035
 42
0.254719
  0
VERTEX
  8
0
 10
18.744216
 20
147.250000
 42
-0.010616
  0
VERTEX
  8
0
 10
17.358121
 20
151.190367
 42
-0.240380
  0
VERTEX
  8
0
 10
17.538034
 20
152.343379
 42
-0.235705
  0
VERTEX
  8
0
 10
18.579972
 20
152.887464
 42
-0.010220
  0
VERTEX
  8
0
 10
22.818639
 20
152.878301
 42
0.011429
  0
VERTEX
  8
0
 10
25.184400
 20
152.878906
 42
0.014522
  0
VERTEX
  8
0
 10
27.365214
 20
152.992747
 42
0.012519
  0
VERTEX
  8
0
 10
29.167016
 20
153.184878
 42
0.105970
  0
VERTEX
  8
0
 10
29.930446
 20
153.457013
 42
-0.159593
  0
VERTEX
  8
0
 10
30.661478
 20
153.633630
 42
-0.023310
  0
VERTEX
  8
0
 10
32.196707
 20
153.439048
 42
-0.024397
  0
VERTEX
  8
0
 10
34.048468
 20
153.022101
 42
-0.018738
  0
VERTEX
  8
0
 10
36.024479
 20
152.394084
 42
0.009126
  0
VERTEX
  8
0
 10
39.254446
 20
151.298749
 42
0.094190
  0
VERTEX
  8
0
 10
40.644770
 20
151.129879
 42
0.142964
  0
VERTEX
  8
0
 10
41.760999
 20
151.538550
 42
0.029815
  0
VERTEX
  8
0
 10
43.380074
 20
152.887335
 42
-0.023062
  0
VERTEX
  8
0
 10
44.916091
 20
154.202446
 42
-0.135143
  0
VERTEX
  8
0
 10
45.888295
 20
154.605828
 42
-0.130335
  0
VERTEX
  8
0
 10
46.947507
 20
154.462424
 42
-0.020871
  0
VERTEX
  8
0
 10
48.857651
 20
153.573612
 42
0.029451
  0
VERTEX
  8
0
 10
50.818306
 20
152.701878
 42
0.149945
  0
VERTEX
  8
0
 10
51.996288
 20
152.628976
 42
0.109321
  0
VERTEX
  8
0
 10
53.202320
 20
153.216982
 42
0.012279
  0
VERTEX
  8
0
 10
55.556257
 20
155.183538
 42
0.000000
  0
VERTEX
  8
0
 10
59.193125
 20
158.376750
 42
0.000000
  0
VERTEX
  8
0
 10
66.794571
 20
156.788409
 42
0.022373
  0
VERTEX
  8
0
 10
72.112792
 20
155.923333
 42
0.062355
  0
VERTEX
  8
0
 10
75.887895
 20
155.953675
 42
0.116075
  0
VERTEX
  8
0
 10
78.149874
 20
156.814663
 42
0.248955
  0
VERTEX
  8
0
 10
79.000000
 20
158.416232
 42
-0.102529
  0
VERTEX
  8
0
 10
79.267185
 20
159.705512
 42
-0.197190
  0
VERTEX
  8
0
 10
80.010294
 20
160.430021
 42
-0.194421
  0
VERTEX
  8
0
 10
81.057049
 20
160.429279
 42
-0.099863
  0
VERTEX
  8
0
 10
82.169380
 20
159.694418
 42
0.038525
  0
VERTEX
  8
0
 10
84.419802
 20
157.776183
 42
0.112327
  0
VERTEX
  8
0
 10
86.284531
 20
156.976439
 42
0.136360
  0
VERTEX
  8
0
 10
88.089083
 20
157.138583
 42
0.069104
  0
VERTEX
  8
0
 10
90.108085
 20
158.238032
 42
-0.054259
  0
VERTEX
  8
0
 10
92.025233
 20
159.356759
 42
-0.099358
  0
VERTEX
  8
0
 10
93.783607
 20
159.753197
 42
-0.066822
  0
VERTEX
  8
0
 10
96.004639
 20
159.508428
 42
-0.014377
  0
VERTEX
  8
0
 10
99.741835
 20
158.466237
 42
0.087059
  0
VERTEX
  8
0
 10
101.000599
 20
158.305468
 42
0.102785
  0
VERTEX
  8
0
 10
102.161441
 20
158.603733
 42
0.069621
  0
VERTEX
  8
0
 10
103.428077
 20
159.461697
 42
0.021266
  0
VERTEX
  8
0
 10
105.081994
 20
161.087775
 42
0.000000
  0
VERTEX
  8
0
 10
108.180318
 20
164.404542
 42
0.000000
  0
VERTEX
  8
0
 10
112.987539
 20
161.702271
 42
0.029575
  0
VERTEX
  8
0
 10
117.361757
 20
159.573216
 42
0.108346
  0
VERTEX
  8
0
 10
120.377095
 20
159.030773
 42
0.181982
  0
VERTEX
  8
0
 10
122.461944
 20
159.907034
 42
0.119936
  0
VERTEX
  8
0
 10
123.890328
 20
162.115238
 42
-0.028678
  0
VERTEX
  8
0
 10
124.587853
 20
163.798882
 42
-0.131728
  0
VERTEX
  8
0
 10
125.272273
 20
164.591849
 42
-0.152516
  0
VERTEX
  8
0
 10
126.204490
 20
164.874192
 42
-0.042726
  0
VERTEX
  8
0
 10
127.738153
 20
164.729586
 42
-0.019595
  0
VERTEX
  8
0
 10
129.028708
 20
164.442895
 42
-0.009632
  0
VERTEX
  8
0
 10
130.647090
 20
163.982697
 42
-0.009541
  0
VERTEX
  8
0
 10
132.311891
 20
163.439508
 42
-0.013702
  0
VERTEX
  8
0
 10
133.762578
 20
162.890362
 42
0.024941
  0
VERTEX
  8
0
 10
135.642595
 20
162.226594
 42
0.085102
  0
VERTEX
  8
0
 10
136.926436
 20
162.072134
 42
0.091975
  0
VERTEX
  8
0
 10
138.133748
 20
162.359272
 42
0.032123
  0
VERTEX
  8
0
 10
139.723004
 20
163.188987
 42
-0.030913
  0
VERTEX
  8
0
 10
141.409397
 20
164.074614
 42
-0.116278
  0
VERTEX
  8
0
 10
142.574359
 20
164.298963
 42
-0.092368
  0
VERTEX
  8
0
 10
143.858023
 20
164.004518
 42
-0.015514
  0
VERTEX
  8
0
 10
146.149669
 20
162.923644
 42
0.012898
  0
VERTEX
  8
0
 10
148.366096
 20
161.864038
 42
0.089154
  0
VERTEX
  8
0
 10
149.531209
 20
161.576052
 42
0.152476
  0
VERTEX
  8
0
 10
150.430747
 20
161.794412
 42
0.061235
  0
VERTEX
  8
0
 10
151.439243
 20
162.582100
 42
0.073143
  0
VERTEX
  8
0
 10
152.037677
 20
163.386915
 42
0.038677
  0
VERTEX
  8
0
 10
152.541528
 20
164.527316
 42
0.037471
  0
VERTEX
  8
0
 10
152.885070
 20
165.799212
 42
0.047261
  0
VERTEX
  8
0
 10
153.000000
 20
167.012412
 42
-0.049384
  0
VERTEX
  8
0
 10
153.235702
 20
169.393035
 42
-0.287076
  0
VERTEX
  8
0
 10
154.062994
 20
170.269597
 42
-0.181454
  0
VERTEX
  8
0
 10
155.558250
 20
170.113814
 42
-0.021188
  0
VERTEX
  8
0
 10
158.548699
 20
168.459949
 42
0.008695
  0
VERTEX
  8
0
 10
160.262821
 20
167.455246
 42
0.006909
  0
VERTEX
  8
0
 10
162.146769
 20
166.428598
 42
0.006992
  0
VERTEX
  8
0
 10
163.919960
 20
165.525303
 42
0.017352
  0
VERTEX
  8
0
 10
165.248813
 20
164.927931
 42
-0.030436
  0
VERTEX
  8
0
 10
166.265759
 20
164.438417
 42
-0.051047
  0
VERTEX
  8
0
 10
167.041535
 20
163.894501
 42
-0.071004
  0
VERTEX
  8
0
 10
167.487673
 20
163.381232
 42
-0.289544
  0
VERTEX
  8
0
 10
167.491659
 20
162.986505
 42
0.149135
  0
VERTEX
  8
0
 10
167.362136
 20
162.494639
 42
0.029405
  0
VERTEX
  8
0
 10
167.451904
 20
161.575854
 42
0.028802
  0
VERTEX
  8
0
 10
167.690040
 20
160.478921
 42
0.023277
  0
VERTEX
  8
0
 10
168.066829
 20
159.333916
 42
-0.044234
  0
VERTEX
  8
0
 10
168.507162
 20
157.779503
 42
-0.053989
  0
VERTEX
  8
0
 10
168.627539
 20
156.273528
 42
-0.047517
  0
VERTEX
  8
0
 10
168.424237
 20
154.629990
 42
-0.024982
  0
VERTEX
  8
0
 10
167.878699
 20
152.643269
 42
0.020491
  0
VERTEX
  8
0
 10
167.253688
 20
150.444615
 42
0.074317
  0
VERTEX
  8
0
 10
167.126823
 20
149.000540
 42
0.088625
  0
VERTEX
  8
0
 10
167.436948
 20
147.719514
 42
0.036936
  0
VERTEX
  8
0
 10
168.273951
 20
146.143269
 42
-0.007894
  0
VERTEX
  8
0
 10
170.598939
 20
142.318558
 42
-0.048931
  0
VERTEX
  8
0
 10
171.561278
 20
140.234681
 42
-0.114313
  0
VERTEX
  8
0
 10
171.708828
 20
138.863608
 42
-0.167789
  0
VERTEX
  8
0
 10
171.182887
 20
137.782887
 42
-0.117826
  0
VERTEX
  8
0
 10
170.432422
 20
137.321918
 42
-0.105944
  0
VERTEX
  8
0
 10
169.523558
 20
137.225991
 42
-0.065407
  0
VERTEX
  8
0
 10
168.307511
 20
137.519163
 42
-0.019445
  0
VERTEX
  8
0
 10
166.547873
 20
138.275780
 42
0.021212
  0
VERTEX
  8
0
 10
165.184101
 20
138.856481
 42
0.032950
  0
VERTEX
  8
0
 10
163.960941
 20
139.227169
 42
0.035003
  0
VERTEX
  8
0
 10
162.999105
 20
139.380817
 42
0.283674
  0
VERTEX
  8
0
 10
162.617086
 20
139.189450
 42
0.157044
  0
VERTEX
  8
0
 10
162.493370
 20
138.688310
 42
0.015666
  0
VERTEX
  8
0
 10
162.619340
 20
137.443378
 42
0.018498
  0
VERTEX
  8
0
 10
162.876988
 20
135.934868
 42
0.013671
  0
VERTEX
  8
0
 10
163.268797
 20
134.287452
 42
-0.021881
  0
VERTEX
  8
0
 10
163.756706
 20
132.075264
 42
-0.052620
  0
VERTEX
  8
0
 10
163.870860
 20
130.403595
 42
-0.061955
  0
VERTEX
  8
0
 10
163.629733
 20
128.916178
 42
-0.042056
  0
VERTEX
  8
0
 10
163.010929
 20
127.313770
 42
0.014910
  0
VERTEX
  8
0
 10
161.963313
 20
124.985240
 42
0.065088
  0
VERTEX
  8
0
 10
161.571391
 20
123.529354
 42
0.093985
  0
VERTEX
  8
0
 10
161.638446
 20
122.299039
 42
0.051998
  0
VERTEX
  8
0
 10
162.150152
 20
120.878591
 42
-0.069528
  0
VERTEX
  8
0
 10
162.482125
 20
119.845224
 42
-0.008636
  0
VERTEX
  8
0
 10
162.846895
 20
117.506668
 42
-0.010051
  0
VERTEX
  8
0
 10
163.178054
 20
114.697943
 42
-0.008166
  0
VERTEX
  8
0
 10
163.423108
 20
111.676575
 42
-0.006567
  0
VERTEX
  8
0
 10
163.622549
 20
107.804776
 42
-0.037933
  0
VERTEX
  8
0
 10
163.545777
 20
105.758292
 42
-0.110581
  0
VERTEX
  8
0
 10
163.211619
 20
104.794037
 42
-0.360316
  0
VERTEX
  8
0
 10
162.616958
 20
104.593493
 42
0.107937
  0
VERTEX
  8
0
 10
162.036828
 20
104.681982
 42
0.069813
  0
VERTEX
  8
0
 10
161.368974
 20
104.544462
 42
0.065225
  0
VERTEX
  8
0
 10
160.718542
 20
104.211820
 42
0.068876
  0
VERTEX
  8
0
 10
160.189163
 20
103.727927
 42
0.154057
  0
VERTEX
  8
0
 10
159.453870
 20
101.923830
 42
0.008492
  0
VERTEX
  8
0
 10
159.056999
 20
95.762121
 42
0.013998
  0
VERTEX
  8
0
 10
158.927522
 20
89.069128
 42
0.018703
  0
VERTEX
  8
0
 10
159.207225
 20
83.000000
 42
-0.022056
  0
VERTEX
  8
0
 10
159.292491
 20
80.834343
 42
-0.185095
  0
VERTEX
  8
0
 10
158.944205
 20
79.938506
 42
-0.171195
  0
VERTEX
  8
0
 10
158.071537
 20
79.467587
 42
-0.018294
  0
VERTEX
  8
0
 10
155.750000
 20
79.189635
 42
0.060282
  0
VERTEX
  8
0
 10
153.093078
 20
78.642760
 42
0.281181
  0
VERTEX
  8
0
 10
152.129459
 20
77.496794
 42
0.164099
  0
VERTEX
  8
0
 10
152.467820
 20
75.575595
 42
0.021246
  0
VERTEX
  8
0
 10
154.649249
 20
71.953834
 42
-0.017392
  0
VERTEX
  8
0
 10
155.995004
 20
69.757979
 42
-0.066887
  0
VERTEX
  8
0
 10
156.589811
 20
68.275087
 42
-0.099469
  0
VERTEX
  8
0
 10
156.652539
 20
67.011550
 42
-0.069824
  0
VERTEX
  8
0
 10
156.246712
 20
65.642128
 42
0.049559
  0
VERTEX
  8
0
 10
155.797103
 20
64.323003
 42
0.010921
  0
VERTEX
  8
0
 10
155.303553
 20
61.979980
 42
0.011257
  0
VERTEX
  8
0
 10
154.851261
 20
59.234230
 42
0.010617
  0
VERTEX
  8
0
 10
154.512935
 20
56.416854
 42
-0.006744
  0
VERTEX
  8
0
 10
154.187861
 20
53.520511
 42
-0.006116
  0
VERTEX
  8
0
 10
153.775170
 20
50.537778
 42
-0.006133
  0
VERTEX
  8
0
 10
153.340438
 20
47.877503
 42
-0.019480
  0
VERTEX
  8
0
 10
152.959082
 20
46.116007
 42
0.034299
  0
VERTEX
  8
0
 10
152.638090
 20
44.387251
 42
0.052300
  0
VERTEX
  8
0
 10
152.622064
 20
42.862413
 42
0.054480
  0
VERTEX
  8
0
 10
152.920075
 20
41.413486
 42
0.041411
  0
VERTEX
  8
0
 10
153.543610
 20
39.915667
 42
-0.030958
  0
VERTEX
  8
0
 10
154.750699
 20
37.178565
 42
-0.129807
  0
VERTEX
  8
0
 10
154.920336
 20
35.403647
 42
-0.238871
  0
VERTEX
  8
0
 10
154.173760
 20
34.383641
 42
-0.118045
  0
VERTEX
  8
0
 10
152.571429
 20
34.000000
 42
0.094000
  0
VERTEX
  8
0
 10
150.810206
 20
33.665939
 42
0.057182
  0
VERTEX
  8
0
 10
148.934001
 20
32.667272
 42
0.059312
  0
VERTEX
  8
0
 10
147.463411
 20
31.372616
 42
0.184670
  0
VERTEX
  8
0
 10
147.000000
 20
30.160706
 42
0.123449
  0
VERTEX
  8
0
 10
147.109432
 20
29.724233
 42
0.007607
  0
VERTEX
  8
0
 10
147.763674
 20
28.544999
 42
0.010923
  0
VERTEX
  8
0
 10
148.603861
 20
27.154678
 42
0.007855
  0
VERTEX
  8
0
 10
149.599743
 20
25.638404
 42
-0.023799
  0
VERTEX
  8
0
 10
150.851408
 20
23.593480
 42
-0.057309
  0
VERTEX
  8
0
 10
151.520504
 20
21.952561
 42
-0.068993
  0
VERTEX
  8
0
 10
151.731526
 20
20.397941
 42
-0.049890
  0
VERTEX
  8
0
 10
151.552287
 20
18.656269
 42
0.002582
  0
VERTEX
  8
0
 10
151.263433
 20
17.209654
 42
0.001472
  0
VERTEX
  8
0
 10
150.928484
 20
15.458366
 42
0.001469
  0
VERTEX
  8
0
 10
150.601689
 20
13.693506
 42
0.002433
  0
VERTEX
  8
0
 10
150.337535
 20
12.201998
 42
-0.036658
  0
VERTEX
  8
0
 10
149.911286
 20
10.487725
 42
-0.105602
  0
VERTEX
  8
0
 10
149.298071
 20
9.434895
 42
-0.113459
  0
VERTEX
  8
0
 10
148.337022
 20
8.767467
 42
-0.045948
  0
VERTEX
  8
0
 10
146.799042
 20
8.309808
 42
0.057001
  0
VERTEX
  8
0
 10
144.590578
 20
7.599270
 42
0.181483
  0
VERTEX
  8
0
 10
143.511390
 20
6.522640
 42
0.162138
  0
VERTEX
  8
0
 10
143.340029
 20
4.912843
 42
0.043445
  0
VERTEX
  8
0
 10
144.116577
 20
2.422449
 42
0.011340
  0
VERTEX
  8
0
 10
144.752805
 20
0.965698
 42
0.127723
  0
VERTEX
  8
0
 10
145.150258
 20
0.482684
 42
0.453368
  0
VERTEX
  8
0
 10
145.464888
 20
0.554067
 42
0.065856
  0
VERTEX
  8
0
 10
145.730715
 20
1.250000
 42
-0.098984
  0
VERTEX
  8
0
 10
146.037866
 20
1.918541
 42
-0.077471
  0
VERTEX
  8
0
 10
146.602131
 20
2.485938
 42
-0.075186
  0
VERTEX
  8
0
 10
147.330495
 20
2.868325
 42
-0.083532
  0
VERTEX
  8
0
 10
148.113162
 20
3.000000
 42
0.063833
  0
VERTEX
  8
0
 10
149.127547
 20
3.130032
 42
0.018132
  0
VERTEX
  8
0
 10
150.653608
 20
3.587500
 42
0.017950
  0
VERTEX
  8
0
 10
152.354799
 20
4.234452
 42
0.018113
  0
VERTEX
  8
0
 10
154.000000
 20
5.000000
 42
-0.018340
  0
VERTEX
  8
0
 10
155.647152
 20
5.765547
 42
-0.018066
  0
VERTEX
  8
0
 10
157.354185
 20
6.412500
 42
-0.018272
  0
VERTEX
  8
0
 10
158.888133
 20
6.869581
 42
-0.063349
  0
VERTEX
  8
0
 10
159.913368
 20
7.000000
 42
0.128636
  0
VERTEX
  8
0
 10
160.926735
 20
7.265098
 42
0.081273
  0
VERTEX
  8
0
 10
161.887120
 20
8.032119
 42
0.056261
  0
VERTEX
  8
0
 10
162.835279
 20
9.353861
 42
0.023355
  0
VERTEX
  8
0
 10
163.818656
 20
11.322948
 42
-0.030404
  0
VERTEX
  8
0
 10
164.898240
 20
13.410573
 42
-0.052730
  0
VERTEX
  8
0
 10
166.068238
 20
14.970859
 42
-0.058849
  0
VERTEX
  8
0
 10
167.438371
 20
16.135391
 42
-0.050183
  0
VERTEX
  8
0
 10
169.115451
 20
17.022649
 42
0.028071
  0
VERTEX
  8
0
 10
170.507056
 20
17.681977
 42
0.024178
  0
VERTEX
  8
0
 10
171.889633
 20
18.523819
 42
0.024902
  0
VERTEX
  8
0
 10
173.070317
 20
19.412233
 42
0.062100
  0
VERTEX
  8
0
 10
173.806704
 20
20.199701
 42
-0.085755
  0
VERTEX
  8
0
 10
174.570759
 20
20.943337
 42
-0.057271
  0
VERTEX
  8
0
 10
175.652428
 20
21.515221
 42
-0.051269
  0
VERTEX
  8
0
 10
176.966527
 20
21.878175
 42
-0.041782
  0
VERTEX
  8
0
 10
178.421845
 20
22.000000
 42
0.049994
  0
VERTEX
  8
0
 10
179.874305
 20
22.145592
 42
0.032401
  0
VERTEX
  8
0
 10
181.505314
 20
22.587500
 42
0.032476
  0
VERTEX
  8
0
 10
183.058407
 20
23.233725
 42
0.051869
  0
VERTEX
  8
0
 10
184.272871
 20
24.000000
 42
-0.062839
  0
VERTEX
  8
0
 10
186.645265
 20
25.425320
 42
-0.106626
  0
VERTEX
  8
0
 10
188.904499
 20
25.890446
 42
-0.092534
  0
VERTEX
  8
0
 10
191.376342
 20
25.404924
 42
-0.038657
  0
VERTEX
  8
0
 10
194.437524
 20
23.904360
 42
0.010326
  0
VERTEX
  8
0
 10
196.510456
 20
22.738323
 42
0.093470
  0
VERTEX
  8
0
 10
197.497211
 20
22.427294
 42
0.234099
  0
VERTEX
  8
0
 10
198.117981
 20
22.647560
 42
0.101220
  0
VERTEX
  8
0
 10
198.602531
 20
23.406596
 42
0.063060
  0
VERTEX
  8
0
 10
198.795023
 20
24.191641
 42
0.028531
  0
VERTEX
  8
0
 10
198.855944
 20
25.250812
 42
0.027693
  0
VERTEX
  8
0
 10
198.793219
 20
26.390875
 42
0.033905
  0
VERTEX
  8
0
 10
198.604176
 20
27.440951
 42
-0.077016
  0
VERTEX
  8
0
 10
198.423901
 20
29.391201
 42
-0.268900
  0
VERTEX
  8
0
 10
199.097171
 20
30.403467
 42
-0.177684
  0
VERTEX
  8
0
 10
200.606742
 20
30.565305
 42
-0.036115
  0
VERTEX
  8
0
 10
203.205982
 20
29.712310
 42
0.039622
  0
VERTEX
  8
0
 10
204.736491
 20
29.221887
 42
0.023419
  0
VERTEX
  8
0
 10
206.623573
 20
28.870570
 42
0.023338
  0
VERTEX
  8
0
 10
208.552507
 20
28.695396
 42
0.036704
  0
VERTEX
  8
0
 10
210.214691
 20
28.744405
 42
-0.059486
  0
VERTEX
  8
0
 10
212.480231
 20
28.708194
 42
-0.056553
  0
VERTEX
  8
0
 10
214.714619
 20
28.142897
 42
-0.036464
  0
VERTEX
  8
0
 10
217.489599
 20
26.857850
 42
-0.009665
  0
VERTEX
  8
0
 10
221.714691
 20
24.405472
 42
-0.008733
  0
VERTEX
  8
0
 10
227.147282
 20
20.979020
 42
-0.045632
  0
VERTEX
  8
0
 10
229.913896
 20
18.780985
 42
-0.059146
  0
VERTEX
  8
0
 10
231.899715
 20
16.375269
 42
-0.020871
  0
VERTEX
  8
0
 10
234.164558
 20
12.511427
 42
0.028682
  0
VERTEX
  8
0
 10
235.286706
 20
10.663768
 42
0.012924
  0
VERTEX
  8
0
 10
236.956111
 20
8.369266
 42
0.012746
  0
VERTEX
  8
0
 10
238.848703
 20
6.030425
 42
0.016979
  0
VERTEX
  8
0
 10
240.691382
 20
4.011427
 42
0.000000
  0
VERTEX
  8
0
 10
245.098695
 20
-0.500000
 42
0.000000
  0
VERTEX
  8
0
 10
243.318883
 20
3.344896
 42
-0.009677
  0
VERTEX
  8
0
 10
242.243539
 20
5.791041
 42
-0.103770
  0
VERTEX
  8
0
 10
242.042076
 20
6.849858
 42
-0.186365
  0
VERTEX
  8
0
 10
242.360393
 20
7.630286
 42
-0.045943
  0
VERTEX
  8
0
 10
243.416857
 20
8.562863
 42
-0.033480
  0
VERTEX
  8
0
 10
244.191975
 20
9.053626
 42
-0.042428
  0
VERTEX
  8
0
 10
244.968154
 20
9.393469
 42
-0.048049
  0
VERTEX
  8
0
 10
245.638754
 20
9.551808
 42
-0.174082
  0
VERTEX
  8
0
 10
246.060975
 20
9.462315
 42
0.440018
  0
VERTEX
  8
0
 10
246.312330
 20
9.533362
 42
0.089978
  0
VERTEX
  8
0
 10
246.459593
 20
10.032657
 42
0.045241
  0
VERTEX
  8
0
 10
246.474586
 20
10.918921
 42
0.020706
  0
VERTEX
  8
0
 10
246.341847
 20
12.068986
 42
-0.039792
  0
VERTEX
  8
0
 10
246.233782
 20
13.473809
 42
-0.023399
  0
VERTEX
  8
0
 10
246.317294
 20
15.157525
 42
-0.023307
  0
VERTEX
  8
0
 10
246.559932
 20
16.843254
 42
-0.036483
  0
VERTEX
  8
0
 10
246.939971
 20
18.257646
 42
0.042402
  0
VERTEX
  8
0
 10
247.413790
 20
20.108051
 42
0.099243
  0
VERTEX
  8
0
 10
247.368415
 20
21.529338
 42
0.074893
  0
VERTEX
  8
0
 10
246.758441
 20
23.059807
 42
0.016946
  0
VERTEX
  8
0
 10
245.261777
 20
25.433008
 42
-0.011260
  0
VERTEX
  8
0
 10
242.817806
 20
29.212402
 42
-0.070232
  0
VERTEX
  8
0
 10
241.898704
 20
31.319761
 42
-0.121732
  0
VERTEX
  8
0
 10
241.848764
 20
33.055625
 42
-0.064180
  0
VERTEX
  8
0
 10
242.575703
 20
35.099620
 42
0.062462
  0
VERTEX
  8
0
 10
243.178793
 20
36.777174
 42
0.074621
  0
VERTEX
  8
0
 10
243.298509
 20
38.451263
 42
0.044398
  0
VERTEX
  8
0
 10
242.923109
 20
40.687598
 42
0.009104
  0
VERTEX
  8
0
 10
241.841297
 20
44.547524
 42
0.009484
  0
VERTEX
  8
0
 10
240.947994
 20
47.332112
 42
0.009952
  0
VERTEX
  8
0
 10
239.963109
 20
50.036073
 42
0.009661
  0
VERTEX
  8
0
 10
239.022632
 20
52.333646
 42
0.043074
  0
VERTEX
  8
0
 10
238.332555
 20
53.615209
 42
-0.058355
  0
VERTEX
  8
0
 10
237.740182
 20
54.800507
 42
-0.051371
  0
VERTEX
  8
0
 10
237.405703
 20
56.142687
 42
-0.046900
  0
VERTEX
  8
0
 10
237.334078
 20
57.638461
 42
-0.034905
  0
VERTEX
  8
0
 10
237.524947
 20
59.281284
 42
0.049778
  0
VERTEX
  8
0
 10
237.693128
 20
61.232709
 42
0.054021
  0
VERTEX
  8
0
 10
237.462293
 20
63.124166
 42
0.042498
  0
VERTEX
  8
0
 10
236.766122
 20
65.265563
 42
0.017440
  0
VERTEX
  8
0
 10
235.480040
 20
68.039389
 42
-0.013753
  0
VERTEX
  8
0
 10
234.024414
 20
71.119178
 42
-0.058828
  0
VERTEX
  8
0
 10
233.431758
 20
73.059133
 42
-0.079319
  0
VERTEX
  8
0
 10
233.396052
 20
74.786523
 42
-0.038383
  0
VERTEX
  8
0
 10
233.867588
 20
76.952385
 42
0.058700
  0
VERTEX
  8
0
 10
234.414835
 20
80.068779
 42
0.035094
  0
VERTEX
  8
0
 10
234.363628
 20
83.835158
 42
0.035196
  0
VERTEX
  8
0
 10
233.789840
 20
87.528673
 42
0.062665
  0
VERTEX
  8
0
 10
232.737384
 20
90.415040
 42
-0.061889
  0
VERTEX
  8
0
 10
232.363604
 20
91.435226
 42
-0.020462
  0
VERTEX
  8
0
 10
232.067002
 20
93.005746
 42
-0.020021
  0
VERTEX
  8
0
 10
231.877590
 20
94.790979
 42
-0.021438
  0
VERTEX
  8
0
 10
231.837587
 20
96.545259
 42
0.027857
  0
VERTEX
  8
0
 10
231.763591
 20
98.621189
 42
0.055859
  0
VERTEX
  8
0
 10
231.433349
 20
100.226151
 42
0.067217
  0
VERTEX
  8
0
 10
230.811691
 20
101.517154
 42
0.063143
  0
VERTEX
  8
0
 10
229.858718
 20
102.627858
 42
-0.050575
  0
VERTEX
  8
0
 10
227.972966
 20
104.717440
 42
-0.040805
  0
VERTEX
  8
0
 10
226.387704
 20
107.294150
 42
-0.040075
  0
VERTEX
  8
0
 10
225.390153
 20
109.721869
 42
-0.219249
  0
VERTEX
  8
0
 10
225.558300
 20
111.094332
 42
-0.164674
  0
VERTEX
  8
0
 10
226.015703
 20
111.472461
 42
-0.044161
  0
VERTEX
  8
0
 10
226.935882
 20
111.733202
 42
-0.039787
  0
VERTEX
  8
0
 10
228.096050
 20
111.859369
 42
-0.032117
  0
VERTEX
  8
0
 10
229.349167
 20
111.814964
 42
0.026705
  0
VERTEX
  8
0
 10
231.049383
 20
111.736301
 42
0.128855
  0
VERTEX
  8
0
 10
231.975905
 20
111.986212
 42
0.171999
  0
VERTEX
  8
0
 10
232.515980
 20
112.614077
 42
0.057284
  0
VERTEX
  8
0
 10
232.826755
 20
113.804978
 42
0.087602
  0
VERTEX
  8
0
 10
232.788574
 20
114.929673
 42
0.038385
  0
VERTEX
  8
0
 10
232.367211
 20
116.365625
 42
0.035752
  0
VERTEX
  8
0
 10
231.661324
 20
117.890135
 42
0.035326
  0
VERTEX
  8
0
 10
230.742975
 20
119.304978
 42
-0.019085
  0
VERTEX
  8
0
 10
227.889970
 20
123.402797
 42
-0.019188
  0
VERTEX
  8
0
 10
225.363189
 20
127.699037
 42
-0.017475
  0
VERTEX
  8
0
 10
223.464064
 20
131.548289
 42
-0.106244
  0
VERTEX
  8
0
 10
223.000000
 20
133.707594
 42
-0.067553
  0
VERTEX
  8
0
 10
223.127536
 20
134.647258
 42
-0.150264
  0
VERTEX
  8
0
 10
223.512105
 20
135.249760
 42
-0.137457
  0
VERTEX
  8
0
 10
224.196091
 20
135.564444
 42
-0.052840
  0
VERTEX
  8
0
 10
225.250000
 20
135.619736
 42
0.114140
  0
VERTEX
  8
0
 10
226.509186
 20
135.841241
 42
0.218491
  0
VERTEX
  8
0
 10
227.186461
 20
136.584250
 42
0.069444
  0
VERTEX
  8
0
 10
227.478224
 20
138.281269
 42
0.005383
  0
VERTEX
  8
0
 10
227.574519
 20
142.903296
 42
0.011490
  0
VERTEX
  8
0
 10
227.516626
 20
147.386368
 42
0.058509
  0
VERTEX
  8
0
 10
227.137598
 20
149.847981
 42
0.072498
  0
VERTEX
  8
0
 10
226.231967
 20
151.906820
 42
0.023211
  0
VERTEX
  8
0
 10
224.324519
 20
154.661949
 42
-0.031001
  0
VERTEX
  8
0
 10
221.992120
 20
158.145541
 42
-0.109602
  0
VERTEX
  8
0
 10
221.176601
 20
160.694291
 42
-0.138844
  0
VERTEX
  8
0
 10
221.607275
 20
163.000967
 42
-0.062546
  0
VERTEX
  8
0
 10
223.323571
 20
165.589785
 42
0.000000
  0
VERTEX
  8
0
 10
225.647141
 20
168.291097
 42
0.000000
  0
VERTEX
  8
0
 10
230.314135
 20
165.556056
 42
0.019419
  0
VERTEX
  8
0
 10
232.891202
 20
164.177315
 42
0.053460
  0
VERTEX
  8
0
 10
234.827623
 20
163.480098
 42
0.063734
  0
VERTEX
  8
0
 10
236.663820
 20
163.274529
 42
0.037909
  0
VERTEX
  8
0
 10
238.858537
 20
163.476100
 42
-0.032406
  0
VERTEX
  8
0
 10
240.907522
 20
163.687023
 42
-0.056095
  0
VERTEX
  8
0
 10
242.612927
 20
163.560107
 42
-0.056554
  0
VERTEX
  8
0
 10
244.237973
 20
163.058593
 42
-0.033525
  0
VERTEX
  8
0
 10
246.039470
 20
162.122191
 42
0.066910
  0
VERTEX
  8
0
 10
248.878712
 20
160.878840
 42
0.170497
  0
VERTEX
  8
0
 10
251.091815
 20
161.008692
 42
0.201313
  0
VERTEX
  8
0
 10
252.501512
 20
162.441901
 42
0.095240
  0
VERTEX
  8
0
 10
253.000000
 20
165.035184
 42
-0.091155
  0
VERTEX
  8
0
 10
253.387206
 20
167.141415
 42
-0.292170
  0
VERTEX
  8
0
 10
254.481539
 20
167.953922
 42
-0.188300
  0
VERTEX
  8
0
 10
256.146514
 20
167.435060
 42
-0.045956
  0
VERTEX
  8
0
 10
258.256613
 20
165.404525
 42
0.051876
  0
VERTEX
  8
0
 10
260.786339
 20
163.027087
 42
0.025701
  0
VERTEX
  8
0
 10
264.427983
 20
160.539311
 42
0.023424
  0
VERTEX
  8
0
 10
268.096304
 20
158.530080
 42
0.114055
  0
VERTEX
  8
0
 10
270.389877
 20
158.000000
 42
0.136890
  0
VERTEX
  8
0
 10
271.148751
 20
158.211732
 42
0.070835
  0
VERTEX
  8
0
 10
271.916887
 20
158.840056
 42
0.058896
  0
VERTEX
  8
0
 10
272.611344
 20
159.800381
 42
0.043279
  0
VERTEX
  8
0
 10
273.149845
 20
161.000000
 42
-0.098270
  0
VERTEX
  8
0
 10
274.405366
 20
163.136262
 42
-0.214069
  0
VERTEX
  8
0
 10
276.103288
 20
163.898120
 42
-0.142396
  0
VERTEX
  8
0
 10
278.352755
 20
163.244233
 42
-0.038708
  0
VERTEX
  8
0
 10
281.347219
 20
161.000000
 42
0.017570
  0
VERTEX
  8
0
 10
283.918244
 20
158.897862
 42
0.107536
  0
VERTEX
  8
0
 10
285.462725
 20
158.178264
 42
0.194385
  0
VERTEX
  8
0
 10
286.704256
 20
158.381449
 42
0.083159
  0
VERTEX
  8
0
 10
288.000000
 20
159.500000
 42
-0.107802
  0
VERTEX
  8
0
 10
289.385363
 20
160.582524
 42
-0.130694
  0
VERTEX
  8
0
 10
290.999727
 20
160.890667
 42
-0.101506
  0
VERTEX
  8
0
 10
292.867599
 20
160.366419
 42
-0.046998
  0
VERTEX
  8
0
 10
295.000000
 20
159.000000
 42
0.053236
  0
VERTEX
  8
0
 10
297.209311
 20
157.622779
 42
0.103034
  0
VERTEX
  8
0
 10
299.219924
 20
157.118561
 42
0.102758
  0
VERTEX
  8
0
 10
301.268289
 20
157.458443
 42
0.052752
  0
VERTEX
  8
0
 10
303.593061
 20
158.652933
 42
-0.061706
  0
VERTEX
  8
0
 10
305.309434
 20
159.496442
 42
-0.109145
  0
VERTEX
  8
0
 10
306.869519
 20
159.678382
 42
-0.052602
  0
VERTEX
  8
0
 10
309.047328
 20
159.222301
 42
-0.005861
  0
VERTEX
  8
0
 10
313.864170
 20
157.608562
 42
0.015304
  0
VERTEX
  8
0
 10
317.094207
 20
156.593857
 42
0.015141
  0
VERTEX
  8
0
 10
320.391752
 20
155.774659
 42
0.015180
  0
VERTEX
  8
0
 10
323.316902
 20
155.233726
 42
0.054992
  0
VERTEX
  8
0
 10
325.204972
 20
155.153192
 42
-0.045882
  0
VERTEX
  8
0
 10
326.880588
 20
155.112207
 42
-0.023065
  0
VERTEX
  8
0
 10
328.970746
 20
154.770015
 42
-0.022690
  0
VERTEX
  8
0
 10
331.115769
 20
154.213676
 42
-0.031133
  0
VERTEX
  8
0
 10
332.979998
 20
153.509020
 42
0.020422
  0
VERTEX
  8
0
 10
335.215422
 20
152.608912
 42
0.055445
  0
VERTEX
  8
0
 10
336.875508
 20
152.218147
 42
0.069916
  0
VERTEX
  8
0
 10
338.345614
 20
152.246376
 42
0.050573
  0
VERTEX
  8
0
 10
339.931341
 20
152.667982
 42
-0.038096
  0
VERTEX
  8
0
 10
341.376211
 20
153.090932
 42
-0.064130
  0
VERTEX
  8
0
 10
342.633668
 20
153.192416
 42
-0.065985
  0
VERTEX
  8
0
 10
343.850669
 20
152.971801
 42
-0.042905
  0
VERTEX
  8
0
 10
345.170484
 20
152.418659
 42
0.043019
  0
VERTEX
  8
0
 10
347.006099
 20
151.649829
 42
0.073673
  0
VERTEX
  8
0
 10
348.640946
 20
151.379995
 42
0.080859
  0
VERTEX
  8
0
 10
350.175777
 20
151.603918
 42
0.063165
  0
VERTEX
  8
0
 10
351.707412
 20
152.310816
 42
-0.194047
  0
VERTEX
  8
0
 10
352.320345
 20
152.419337
 42
-0.117309
  0
VERTEX
  8
0
 10
352.996383
 20
152.099712
 42
-0.073148
  0
VERTEX
  8
0
 10
353.712226
 20
151.330640
 42
-0.031581
  0
VERTEX
  8
0
 10
354.434100
 20
150.127437
 42
0.048648
  0
VERTEX
  8
0
 10
356.863176
 20
146.374761
 42
0.120764
  0
VERTEX
  8
0
 10
359.433735
 20
144.384908
 42
0.174196
  0
VERTEX
  8
0
 10
362.015515
 20
144.194941
 42
0.129190
  0
VERTEX
  8
0
 10
364.506219
 20
145.649076
 42
0.077472
  0
VERTEX
  8
0
 10
365.393969
 20
146.864701
 42
0.121631
  0
VERTEX
  8
0
 10
365.692510
 20
148.116851
 42
0.077495
  0
VERTEX
  8
0
 10
365.423508
 20
149.755594
 42
0.017843
  0
VERTEX
  8
0
 10
364.452146
 20
152.391552
 42
-0.055410
  0
VERTEX
  8
0
 10
364.155059
 20
153.432386
 42
-0.364495
  0
VERTEX
  8
0
 10
364.409710
 20
153.865289
 42
-0.127038
  0
VERTEX
  8
0
 10
365.217494
 20
153.935978
 42
-0.007974
  0
VERTEX
  8
0
 10
367.588692
 20
153.501100
 42
0.013978
  0
VERTEX
  8
0
 10
369.420360
 20
153.187855
 42
0.007278
  0
VERTEX
  8
0
 10
371.719471
 20
152.894599
 42
0.007231
  0
VERTEX
  8
0
 10
374.089962
 20
152.661903
 42
0.010949
  0
VERTEX
  8
0
 10
376.158442
 20
152.534548
 42
-0.026683
  0
VERTEX
  8
0
 10
378.113736
 20
152.352281
 42
-0.023104
  0
VERTEX
  8
0
 10
380.136300
 20
151.958049
 42
-0.023764
  0
VERTEX
  8
0
 10
381.936973
 20
151.428104
 42
-0.060495
  0
VERTEX
  8
0
 10
383.158442
 20
150.831147
 42
0.059250
  0
VERTEX
  8
0
 10
384.438308
 20
150.201711
 42
0.018518
  0
VERTEX
  8
0
 10
386.483917
 20
149.565181
 42
0.018219
  0
VERTEX
  8
0
 10
388.840490
 20
149.017860
 42
0.019171
  0
VERTEX
  8
0
 10
391.191061
 20
148.654338
 42
0.000000
  0
VERTEX
  8
0
 10
396.882121
 20
147.996383
 42
0.000000
  0
VERTEX
  8
0
 10
393.691061
 20
153.672027
 42
0.013835
  0
VERTEX
  8
0
 10
392.395757
 20
155.833609
 42
0.021113
  0
VERTEX
  8
0
 10
391.143624
 20
157.626103
 42
0.016792
  0
VERTEX
  8
0
 10
390.040482
 20
158.974891
 42
0.264580
  0
VERTEX
  8
0
 10
389.500000
 20
159.162659
 42
0.141638
  0
VERTEX
  8
0
 10
388.908230
 20
158.866256
 42
0.129417
  0
VERTEX
  8
0
 10
388.540808
 20
158.290041
 42
0.053012
  0
VERTEX
  8
0
 10
388.312777
 20
157.189547
 42
0.007216
  0
VERTEX
  8
0
 10
388.115350
 20
154.843620
 42
-0.300431
  0
VERTEX
  8
0
 10
387.227813
 20
153.683921
 42
-0.248003
  0
VERTEX
  8
0
 10
385.657594
 20
153.924992
 42
-0.083998
  0
VERTEX
  8
0
 10
383.448241
 20
156.227936
 42
-0.038815
  0
VERTEX
  8
0
 10
381.381594
 20
159.841873
 42
0.008643
  0
VERTEX
  8
0
 10
380.181853
 20
162.268497
 42
0.006362
  0
VERTEX
  8
0
 10
378.772517
 20
164.915991
 42
0.006432
  0
VERTEX
  8
0
 10
377.375104
 20
167.386541
 42
0.014245
  0
VERTEX
  8
0
 10
376.232456
 20
169.224922
 42
-0.037011
  0
VERTEX
  8
0
 10
374.939636
 20
171.532842
 42
-0.053637
  0
VERTEX
  8
0
 10
374.184458
 20
173.741508
 42
-0.039918
  0
VERTEX
  8
0
 10
373.788006
 20
176.504965
 42
-0.011800
  0
VERTEX
  8
0
 10
373.620771
 20
180.780088
 42
0.010320
  0
VERTEX
  8
0
 10
373.451031
 20
185.474797
 42
0.055800
  0
VERTEX
  8
0
 10
373.024410
 20
187.986259
 42
0.075077
  0
VERTEX
  8
0
 10
372.104977
 20
189.993051
 42
0.027496
  0
VERTEX
  8
0
 10
370.250000
 20
192.513458
 42
-0.025265
  0
VERTEX
  8
0
 10
369.006104
 20
194.187883
 42
-0.026261
  0
VERTEX
  8
0
 10
367.954687
 20
195.958332
 42
-0.027136
  0
VERTEX
  8
0
 10
367.213803
 20
197.577507
 42
-0.093993
  0
VERTEX
  8
0
 10
367.000000
 20
198.704791
 42
-0.153446
  0
VERTEX
  8
0
 10
367.606300
 20
200.633881
 42
-0.079179
  0
VERTEX
  8
0
 10
369.379459
 20
202.473281
 42
-0.084043
  0
VERTEX
  8
0
 10
371.521051
 20
203.582810
 42
-0.218215
  0
VERTEX
  8
0
 10
373.206024
 20
203.380705
 42
0.554120
  0
VERTEX
  8
0
 10
373.369519
 20
203.462307
 42
0.159052
  0
VERTEX
  8
0
 10
373.292007
 20
203.809586
 42
0.030540
  0
VERTEX
  8
0
 10
372.682388
 20
204.708122
 42
0.010067
  0
VERTEX
  8
0
 10
371.681660
 20
205.952453
 42
0.000000
  0
VERTEX
  8
0
 10
368.863320
 20
209.315886
 42
0.000000
  0
VERTEX
  8
0
 10
371.518855
 20
211.433335
 42
0.049252
  0
VERTEX
  8
0
 10
372.746438
 20
212.627408
 42
0.058672
  0
VERTEX
  8
0
 10
373.636062
 20
213.974653
 42
0.055298
  0
VERTEX
  8
0
 10
374.224699
 20
215.558116
 42
0.037222
  0
VERTEX
  8
0
 10
374.553299
 20
217.460800
 42
-0.037627
  0
VERTEX
  8
0
 10
374.872730
 20
219.301524
 42
-0.049025
  0
VERTEX
  8
0
 10
375.450793
 20
220.909989
 42
-0.052504
  0
VERTEX
  8
0
 10
376.290456
 20
222.286003
 42
-0.054776
  0
VERTEX
  8
0
 10
377.387841
 20
223.435408
 42
0.074692
  0
VERTEX
  8
0
 10
380.035269
 20
226.438212
 42
0.034971
  0
VERTEX
  8
0
 10
382.541894
 20
230.987939
 42
0.033996
  0
VERTEX
  8
0
 10
384.328791
 20
235.654596
 42
0.118577
  0
VERTEX
  8
0
 10
384.526178
 20
238.851410
 42
-0.103879
  0
VERTEX
  8
0
 10
384.602142
 20
241.178681
 42
-0.127312
  0
VERTEX
  8
0
 10
385.628415
 20
243.089360
 42
-0.107201
  0
VERTEX
  8
0
 10
387.621961
 20
244.485788
 42
-0.058799
  0
VERTEX
  8
0
 10
390.500000
 20
245.313370
 42
0.019492
  0
VERTEX
  8
0
 10
393.186815
 20
245.862250
 42
0.039181
  0
VERTEX
  8
0
 10
395.240620
 20
246.540157
 42
0.051316
  0
VERTEX
  8
0
 10
396.602189
 20
247.283414
 42
0.246991
  0
VERTEX
  8
0
 10
397.000000
 20
248.039601
 42
0.284670
  0
VERTEX
  8
0
 10
396.449631
 20
248.927944
 42
0.065971
  0
VERTEX
  8
0
 10
394.710844
 20
249.522961
 42
0.053023
  0
VERTEX
  8
0
 10
392.333901
 20
249.742287
 42
0.042904
  0
VERTEX
  8
0
 10
389.783307
 20
249.487171
 42
-0.036424
  0
VERTEX
  8
0
 10
388.326768
 20
249.322425
 42
-0.025787
  0
VERTEX
  8
0
 10
386.680784
 20
249.341767
 42
-0.026159
  0
VERTEX
  8
0
 10
385.101801
 20
249.525147
 42
-0.048888
  0
VERTEX
  8
0
 10
383.861353
 20
249.862614
 42
0.049277
  0
VERTEX
  8
0
 10
382.389959
 20
250.261683
 42
0.011401
  0
VERTEX
  8
0
 10
379.847052
 20
250.629303
 42
0.011664
  0
VERTEX
  8
0
 10
376.885997
 20
250.918758
 42
0.011171
  0
VERTEX
  8
0
 10
373.871758
 20
251.074965
 42
0.000000
  0
VERTEX
  8
0
 10
366.500000
 20
251.292016
 42
0.000000
  0
VERTEX
  8
0
 10
366.768144
 20
247.146008
 42
-0.045984
  0
VERTEX
  8
0
 10
366.684932
 20
244.100753
 42
-0.328823
  0
VERTEX
  8
0
 10
365.735299
 20
243.090732
 42
-0.195366
  0
VERTEX
  8
0
 10
363.980928
 20
243.455573
 42
-0.020150
  0
VERTEX
  8
0
 10
360.500000
 20
246.000000
 42
0.019049
  0
VERTEX
  8
0
 10
357.582539
 20
248.142423
 42
0.117862
  0
VERTEX
  8
0
 10
355.854854
 20
248.794050
 42
0.155667
  0
VERTEX
  8
0
 10
354.258789
 20
248.498951
 42
0.040916
  0
VERTEX
  8
0
 10
352.047733
 20
247.070893
 42
-0.127476
  0
VERTEX
  8
0
 10
349.178037
 20
245.851954
 42
-0.046400
  0
VERTEX
  8
0
 10
344.731805
 20
245.605598
 42
-0.041681
  0
VERTEX
  8
0
 10
339.527207
 20
246.236838
 42
-0.036037
  0
VERTEX
  8
0
 10
334.230769
 20
247.737233
 42
0.018318
  0
VERTEX
  8
0
 10
331.637800
 20
248.572010
 42
0.075953
  0
VERTEX
  8
0
 10
330.010130
 20
248.773580
 42
0.078557
  0
VERTEX
  8
0
 10
328.423828
 20
248.476400
 42
0.020415
  0
VERTEX
  8
0
 10
326.008021
 20
247.503617
 42
0.022271
  0
VERTEX
  8
0
 10
324.531454
 20
246.756970
 42
0.037376
  0
VERTEX
  8
0
 10
323.375016
 20
245.986984
 42
0.044947
  0
VERTEX
  8
0
 10
322.636075
 20
245.295864
 42
0.332101
  0
VERTEX
  8
0
 10
322.596350
 20
244.844103
 42
0.123023
  0
VERTEX
  8
0
 10
322.886539
 20
244.561357
 42
0.100770
  0
VERTEX
  8
0
 10
323.297868
 20
244.421968
 42
0.090972
  0
VERTEX
  8
0
 10
323.768096
 20
244.448129
 42
0.079304
  0
VERTEX
  8
0
 10
324.223607
 20
244.638197
 42
-0.036975
  0
VERTEX
  8
0
 10
324.642020
 20
244.855846
 42
-0.375054
  0
VERTEX
  8
0
 10
324.814247
 20
244.800317
 42
-0.254111
  0
VERTEX
  8
0
 10
324.823984
 20
244.577022
 42
-0.024871
  0
VERTEX
  8
0
 10
324.554373
 20
244.087977
 42
-0.048490
  0
VERTEX
  8
0
 10
324.227443
 20
243.658349
 42
-0.080061
  0
VERTEX
  8
0
 10
323.868975
 20
243.378049
 42
-0.116040
  0
VERTEX
  8
0
 10
323.538165
 20
243.285495
 42
-0.209788
  0
VERTEX
  8
0
 10
323.280817
 20
243.385850
 42
0.244260
  0
VERTEX
  8
0
 10
322.978265
 20
243.481520
 42
0.067445
  0
VERTEX
  8
0
 10
322.487698
 20
243.325695
 42
0.051892
  0
VERTEX
  8
0
 10
321.903658
 20
242.970871
 42
0.033955
  0
VERTEX
  8
0
 10
321.309524
 20
242.452381
 42
-0.121995
  0
VERTEX
  8
0
 10
319.521948
 20
241.374510
 42
-0.085667
  0
VERTEX
  8
0
 10
317.181662
 20
241.071166
 42
-0.075824
  0
VERTEX
  8
0
 10
314.608037
 20
241.575137
 42
-0.065272
  0
VERTEX
  8
0
 10
312.154370
 20
242.837275
 42
0.024745
  0
VERTEX
  8
0
 10
308.916410
 20
244.849188
 42
0.124379
  0
VERTEX
  8
0
 10
306.871422
 20
245.391022
 42
0.160025
  0
VERTEX
  8
0
 10
305.091257
 20
244.828941
 42
0.049099
  0
VERTEX
  8
0
 10
302.947072
 20
242.943340
 42
0.000000
  0
VERTEX
  8
0
 10
300.082750
 20
239.877074
 42
0.000000
  0
VERTEX
  8
0
 10
292.981778
 20
242.438537
 42
0.012577
  0
VERTEX
  8
0
 10
286.696969
 20
244.528515
 42
0.080598
  0
VERTEX
  8
0
 10
283.384837
 20
244.978519
 42
0.223470
  0
VERTEX
  8
0
 10
281.690653
 20
244.127447
 42
0.167942
  0
VERTEX
  8
0
 10
281.000000
 20
242.129210
 42
-0.063796
  0
VERTEX
  8
0
 10
280.779893
 20
240.411143
 42
-0.213810
  0
VERTEX
  8
0
 10
280.086178
 20
239.546439
 42
-0.087802
  0
VERTEX
  8
0
 10
278.546214
 20
239.073026
 42
-0.006218
  0
VERTEX
  8
0
 10
274.060980
 20
238.574667
 42
-0.011157
  0
VERTEX
  8
0
 10
269.881553
 20
238.256808
 42
-0.057766
  0
VERTEX
  8
0
 10
267.572999
 20
238.399683
 42
-0.075277
  0
VERTEX
  8
0
 10
265.646552
 20
239.054131
 42
-0.026718
  0
VERTEX
  8
0
 10
263.130696
 20
240.532207
 42
0.035281
  0
VERTEX
  8
0
 10
259.540829
 20
242.559466
 42
0.175759
  0
VERTEX
  8
0
 10
257.273819
 20
242.776799
 42
0.260961
  0
VERTEX
  8
0
 10
255.939915
 20
241.501541
 42
0.074471
  0
VERTEX
  8
0
 10
255.500000
 20
238.564339
 42
-0.049756
  0
VERTEX
  8
0
 10
255.209736
 20
235.654674
 42
-0.245543
  0
VERTEX
  8
0
 10
254.206164
 20
234.414704
 42
-0.203348
  0
VERTEX
  8
0
 10
252.451740
 20
234.401381
 42
-0.034867
  0
VERTEX
  8
0
 10
249.404750
 20
235.923698
 42
0.023416
  0
VERTEX
  8
0
 10
247.763229
 20
236.791314
 42
0.014552
  0
VERTEX
  8
0
 10
245.765100
 20
237.660467
 42
0.014593
  0
VERTEX
  8
0
 10
243.739136
 20
238.404620
 42
0.025458
  0
VERTEX
  8
0
 10
242.016131
 20
238.885041
 42
0.023493
  0
VERTEX
  8
0
 10
239.878347
 20
239.260897
 42
0.084229
  0
VERTEX
  8
0
 10
238.497935
 20
239.204266
 42
0.101359
  0
VERTEX
  8
0
 10
237.352957
 20
238.705136
 42
0.042987
  0
VERTEX
  8
0
 10
236.065021
 20
237.622435
 42
-0.070689
  0
VERTEX
  8
0
 10
234.589042
 20
236.514722
 42
-0.073992
  0
VERTEX
  8
0
 10
232.885272
 20
235.883209
 42
-0.042927
  0
VERTEX
  8
0
 10
230.390685
 20
235.578769
 42
-0.008910
  0
VERTEX
  8
0
 10
225.970706
 20
235.500000
 42
-0.013970
  0
VERTEX
  8
0
 10
219.872490
 20
235.670423
 42
-0.239532
  0
VERTEX
  8
0
 10
218.194426
 20
236.644818
 42
-0.335528
  0
VERTEX
  8
0
 10
218.315115
 20
238.296555
 42
-0.022498
  0
VERTEX
  8
0
 10
221.807296
 20
241.931466
 42
0.026132
  0
VERTEX
  8
0
 10
225.048975
 20
245.355064
 42
0.126542
  0
VERTEX
  8
0
 10
226.213757
 20
247.741227
 42
0.138377
  0
VERTEX
  8
0
 10
226.029067
 20
250.279350
 42
0.033548
  0
VERTEX
  8
0
 10
224.317678
 20
254.166654
 42
-0.033984
  0
VERTEX
  8
0
 10
222.647381
 20
257.969594
 42
-0.149796
  0
VERTEX
  8
0
 10
222.529983
 20
260.387015
 42
-0.191009
  0
VERTEX
  8
0
 10
223.779477
 20
262.114024
 42
-0.061332
  0
VERTEX
  8
0
 10
226.689491
 20
263.500000
 42
0.041285
  0
VERTEX
  8
0
 10
228.762883
 20
264.387644
 42
0.186979
  0
VERTEX
  8
0
 10
229.608693
 20
265.363597
 42
0.217026
  0
VERTEX
  8
0
 10
229.509587
 20
266.554442
 42
0.056336
  0
VERTEX
  8
0
 10
228.359332
 20
268.155436
 42
-0.084553
  0
VERTEX
  8
0
 10
227.222058
 20
269.942066
 42
-0.012796
  0
VERTEX
  8
0
 10
225.674267
 20
273.902457
 42
-0.013427
  0
VERTEX
  8
0
 10
224.335162
 20
277.941671
 42
-0.073449
  0
VERTEX
  8
0
 10
224.000000
 20
280.210950
 42
-0.213830
  0
VERTEX
  8
0
 10
224.183759
 20
280.620988
 42
-0.037894
  0
VERTEX
  8
0
 10
224.869247
 20
281.144716
 42
-0.035137
  0
VERTEX
  8
0
 10
225.825858
 20
281.675313
 42
-0.025191
  0
VERTEX
  8
0
 10
226.959140
 20
282.135601
 42
0.066027
  0
VERTEX
  8
0
 10
228.919793
 20
283.124875
 42
0.120728
  0
VERTEX
  8
0
 10
230.109211
 20
284.450359
 42
0.104467
  0
VERTEX
  8
0
 10
230.651840
 20
286.317187
 42
0.041475
  0
VERTEX
  8
0
 10
230.629823
 20
289.000000
 42
-0.031709
  0
VERTEX
  8
0
 10
230.597473
 20
290.167013
 42
-0.016380
  0
VERTEX
  8
0
 10
230.697359
 20
291.624205
 42
-0.016216
  0
VERTEX
  8
0
 10
230.898610
 20
293.121316
 42
-0.023612
  0
VERTEX
  8
0
 10
231.180470
 20
294.422827
 42
0.059041
  0
VERTEX
  8
0
 10
231.423452
 20
296.115928
 42
0.078377
  0
VERTEX
  8
0
 10
231.219224
 20
297.656005
 42
0.056781
  0
VERTEX
  8
0
 10
230.477656
 20
299.401631
 42
0.017469
  0
VERTEX
  8
0
 10
228.979760
 20
301.844272
 42
-0.007868
  0
VERTEX
  8
0
 10
227.838327
 20
303.627857
 42
-0.010890
  0
VERTEX
  8
0
 10
226.875305
 20
305.264808
 42
-0.007667
  0
VERTEX
  8
0
 10
226.126820
 20
306.652458
 42
-0.120409
  0
VERTEX
  8
0
 10
226.000000
 20
307.171445
 42
-0.328576
  0
VERTEX
  8
0
 10
226.238393
 20
307.495047
 42
-0.028640
  0
VERTEX
  8
0
 10
227.290447
 20
307.756612
 42
-0.028866
  0
VERTEX
  8
0
 10
228.709056
 20
307.940205
 42
-0.017749
  0
VERTEX
  8
0
 10
230.393011
 20
308.000000
 42
0.045858
  0
VERTEX
  8
0
 10
233.526687
 20
308.288013
 42
0.183830
  0
VERTEX
  8
0
 10
235.142598
 20
309.271866
 42
0.204135
  0
VERTEX
  8
0
 10
235.598441
 20
311.002438
 42
0.057501
  0
VERTEX
  8
0
 10
234.865050
 20
313.758684
 42
-0.014132
  0
VERTEX
  8
0
 10
233.323911
 20
318.024678
 42
-0.063166
  0
VERTEX
  8
0
 10
232.816860
 20
320.629620
 42
-0.086462
  0
VERTEX
  8
0
 10
233.055531
 20
322.864017
 42
-0.040743
  0
VERTEX
  8
0
 10
234.082162
 20
325.588604
 42
0.018223
  0
VERTEX
  8
0
 10
234.792803
 20
327.244672
 42
0.017022
  0
VERTEX
  8
0
 10
235.398674
 20
328.985826
 42
0.017285
  0
VERTEX
  8
0
 10
235.830164
 20
330.567920
 42
0.054050
  0
VERTEX
  8
0
 10
235.966069
 20
331.661016
 42
-0.053410
  0
VERTEX
  8
0
 10
236.111835
 20
332.845793
 42
-0.011369
  0
VERTEX
  8
0
 10
236.630165
 20
334.860003
 42
-0.011769
  0
VERTEX
  8
0
 10
237.342473
 20
337.177929
 42
-0.010952
  0
VERTEX
  8
0
 10
238.179174
 20
339.516566
 42
0.014366
  0
VERTEX
  8
0
 10
239.319226
 20
342.773017
 42
0.050365
  0
VERTEX
  8
0
 10
239.776317
 20
344.945455
 42
0.061927
  0
VERTEX
  8
0
 10
239.742775
 20
346.922635
 42
0.030180
  0
VERTEX
  8
0
 10
239.238063
 20
349.399722
 42
-0.029786
  0
VERTEX
  8
0
 10
238.849923
 20
351.297053
 42
-0.023647
  0
VERTEX
  8
0
 10
238.651573
 20
353.379829
 42
-0.024204
  0
VERTEX
  8
0
 10
238.653051
 20
355.386891
 42
-0.041559
  0
VERTEX
  8
0
 10
238.873437
 20
357.044172
 42
0.031119
  0
VERTEX
  8
0
 10
239.113671
 20
358.601477
 42
0.019930
  0
VERTEX
  8
0
 10
239.206962
 20
360.429693
 42
0.020023
  0
VERTEX
  8
0
 10
239.154754
 20
362.234943
 42
0.034965
  0
VERTEX
  8
0
 10
238.947702
 20
363.716487
 42
-0.020428
  0
VERTEX
  8
0
 10
238.519333
 20
366.243682
 42
-0.205521
  0
VERTEX
  8
0
 10
238.806664
 20
367.249189
 42
-0.283681
  0
VERTEX
  8
0
 10
239.656772
 20
367.544388
 42
-0.036192
  0
VERTEX
  8
0
 10
241.594139
 20
366.964208
 42
0.064747
  0
VERTEX
  8
0
 10
243.477319
 20
366.515304
 42
0.081612
  0
VERTEX
  8
0
 10
245.263704
 20
366.619331
 42
0.110950
  0
VERTEX
  8
0
 10
246.531963
 20
367.219546
 42
0.230921
  0
VERTEX
  8
0
 10
247.000000
 20
368.178919
 42
0.101892
  0
VERTEX
  8
0
 10
246.879666
 20
368.763282
 42
0.009696
  0
VERTEX
  8
0
 10
246.274604
 20
370.098203
 42
0.012062
  0
VERTEX
  8
0
 10
245.476302
 20
371.673383
 42
0.009224
  0
VERTEX
  8
0
 10
244.530568
 20
373.357628
 42
0.000000
  0
VERTEX
  8
0
 10
242.061135
 20
377.571396
 42
0.000000
  0
VERTEX
  8
0
 10
244.039760
 20
380.824983
 42
0.035201
  0
VERTEX
  8
0
 10
244.783263
 20
382.267148
 42
0.036492
  0
VERTEX
  8
0
 10
245.306802
 20
383.782350
 42
0.039412
  0
VERTEX
  8
0
 10
245.564297
 20
385.189817
 42
0.084198
  0
VERTEX
  8
0
 10
245.491808
 20
386.289285
 42
-0.011268
  0
VERTEX
  8
0
 10
245.264577
 20
387.348628
 42
-0.005245
  0
VERTEX
  8
0
 10
245.015336
 20
388.731852
 42
-0.005192
  0
VERTEX
  8
0
 10
244.783928
 20
390.189864
 42
-0.007225
  0
VERTEX
  8
0
 10
244.609222
 20
391.500000
 42
0.007174
  0
VERTEX
  8
0
 10
244.420457
 20
392.916684
 42
0.003473
  0
VERTEX
  8
0
 10
244.140429
 20
394.723532
 42
0.003443
  0
VERTEX
  8
0
 10
243.822622
 20
396.602079
 42
0.004947
  0
VERTEX
  8
0
 10
243.513259
 20
398.260962
 42
-0.026064
  0
VERTEX
  8
0
 10
243.263920
 20
400.003204
 42
-0.046082
  0
VERTEX
  8
0
 10
243.266920
 20
401.454313
 42
-0.057454
  0
VERTEX
  8
0
 10
243.514888
 20
402.623742
 42
-0.092512
  0
VERTEX
  8
0
 10
244.009097
 20
403.510962
 42
0.019154
  0
VERTEX
  8
0
 10
244.887602
 20
404.656038
 42
0.543452
  0
VERTEX
  8
0
 10
244.772197
 20
404.945404
 42
0.207912
  0
VERTEX
  8
0
 10
244.229415
 20
404.827284
 42
0.011345
  0
SEQEND
  0
ENDSEC
  0
EOF
