  0
SECTION
  2
HEADER
  9
$ACADVER
  1
AC1006
  9
$EXTMIN
 10
0.000000
 20
0.000000
 30
0.000000
  9
$EXTMAX
 10
388.000000
 20
365.000000
 30
0.000000
  0
ENDSEC
  0
SECTION
  2
ENTITIES
  0
POLYLINE
  8
0
 66
1
 70
1
  0
VERTEX
  8
0
 10
194.208703
 20
343.235995
 42
-0.003272
  0
VERTEX
  8
0
 10
179.291579
 20
328.205362
 42
-0.012106
  0
VERTEX
  8
0
 10
169.590331
 20
319.013698
 42
-0.010541
  0
VERTEX
  8
0
 10
158.831810
 20
309.707543
 42
-0.002049
  0
VERTEX
  8
0
 10
139.000000
 20
293.407482
 42
0.011066
  0
VERTEX
  8
0
 10
125.444811
 20
281.850480
 42
0.006592
  0
VERTEX
  8
0
 10
109.802613
 20
267.530172
 42
0.006200
  0
VERTEX
  8
0
 10
95.424935
 20
253.675067
 42
0.023528
  0
VERTEX
  8
0
 10
86.971956
 20
244.500000
 42
0.025890
  0
VERTEX
  8
0
 10
64.419279
 20
214.563524
 42
0.030481
  0
VERTEX
  8
0
 10
46.388802
 20
183.996189
 42
0.029305
  0
VERTEX
  8
0
 10
31.672073
 20
150.447986
 42
0.021050
  0
VERTEX
  8
0
 10
19.079513
 20
111.500000
 42
0.008305
  0
VERTEX
  8
0
 10
16.189967
 20
100.369793
 42
0.002954
  0
VERTEX
  8
0
 10
12.419567
 20
84.374013
 42
0.002429
  0
VERTEX
  8
0
 10
8.896688
 20
68.673179
 42
0.017375
  0
VERTEX
  8
0
 10
7.495426
 20
61.021127
 42
-0.004904
  0
VERTEX
  8
0
 10
7.219289
 20
59.267433
 42
-0.006841
  0
VERTEX
  8
0
 10
6.935483
 20
57.704842
 42
-0.004370
  0
VERTEX
  8
0
 10
6.668596
 20
56.402219
 42
-0.084705
  0
VERTEX
  8
0
 10
6.516457
 20
56.021127
 42
0.080627
  0
VERTEX
  8
0
 10
6.364078
 20
55.648236
 42
0.005000
  0
VERTEX
  8
0
 10
6.106057
 20
54.478081
 42
0.007302
  0
VERTEX
  8
0
 10
5.831745
 20
53.070158
 42
0.005344
  0
VERTEX
  8
0
 10
5.566851
 20
51.500000
 42
-0.001782
  0
VERTEX
  8
0
 10
4.767887
 20
46.549445
 42
-0.005685
  0
VERTEX
  8
0
 10
4.185135
 20
43.252436
 42
-0.007928
  0
VERTEX
  8
0
 10
3.646848
 20
40.626263
 42
-0.007763
  0
VERTEX
  8
0
 10
3.022081
 20
38.000000
 42
0.007151
  0
VERTEX
  8
0
 10
2.640932
 20
36.406469
 42
0.004263
  0
VERTEX
  8
0
 10
2.230704
 20
34.500000
 42
0.004267
  0
VERTEX
  8
0
 10
1.854309
 20
32.593151
 42
0.007367
  0
VERTEX
  8
0
 10
1.578178
 20
31.000000
 42
-0.002225
  0
VERTEX
  8
0
 10
1.327429
 20
29.459283
 42
-0.001544
  0
VERTEX
  8
0
 10
1.030943
 20
27.720312
 42
-0.001557
  0
VERTEX
  8
0
 10
0.735902
 20
26.052333
 42
-0.003211
  0
VERTEX
  8
0
 10
0.492709
 20
24.750000
 42
0.026040
  0
VERTEX
  8
0
 10
0.344517
 20
23.690472
 42
0.042728
  0
VERTEX
  8
0
 10
0.343166
 20
22.785337
 42
0.054149
  0
VERTEX
  8
0
 10
0.469321
 20
22.136728
 42
0.301521
  0
VERTEX
  8
0
 10
0.730443
 20
21.923489
 42
-0.012308
  0
VERTEX
  8
0
 10
1.130386
 20
21.873757
 42
-0.003694
  0
VERTEX
  8
0
 10
1.736655
 20
21.778582
 42
-0.003700
  0
VERTEX
  8
0
 10
2.415679
 20
21.661672
 42
-0.004005
  0
VERTEX
  8
0
 10
3.075192
 20
21.537629
 42
0.013304
  0
VERTEX
  8
0
 10
4.014357
 20
21.379011
 42
0.001974
  0
VERTEX
  8
0
 10
5.917779
 20
21.117066
 42
0.002222
  0
VERTEX
  8
0
 10
8.169662
 20
20.826399
 42
0.001911
  0
VERTEX
  8
0
 10
10.540113
 20
20.540328
 42
-0.004279
  0
VERTEX
  8
0
 10
12.836499
 20
20.252158
 42
-0.006183
  0
VERTEX
  8
0
 10
14.860651
 20
19.955011
 42
-0.003406
  0
VERTEX
  8
0
 10
16.560645
 20
19.672046
 42
-0.095747
  0
VERTEX
  8
0
 10
16.977642
 20
19.513818
 42
0.101112
  0
VERTEX
  8
0
 10
17.401057
 20
19.358282
 42
0.003043
  0
VERTEX
  8
0
 10
19.270164
 20
19.086469
 42
0.005922
  0
VERTEX
  8
0
 10
21.487261
 20
18.804544
 42
0.004044
  0
VERTEX
  8
0
 10
24.012721
 20
18.534435
 42
-0.001842
  0
VERTEX
  8
0
 10
26.679726
 20
18.261059
 42
-0.001875
  0
VERTEX
  8
0
 10
29.328737
 20
17.969610
 42
-0.001820
  0
VERTEX
  8
0
 10
31.629427
 20
17.699259
 42
-0.007764
  0
VERTEX
  8
0
 10
33.000000
 20
17.511508
 42
0.009235
  0
VERTEX
  8
0
 10
36.431421
 20
17.051730
 42
0.002848
  0
VERTEX
  8
0
 10
41.618451
 20
16.483923
 42
0.001874
  0
VERTEX
  8
0
 10
49.264882
 20
15.719890
 42
0.000494
  0
VERTEX
  8
0
 10
61.500000
 20
14.555859
 42
0.001063
  0
VERTEX
  8
0
 10
63.541531
 20
14.368045
 42
0.000355
  0
VERTEX
  8
0
 10
66.528125
 20
14.101831
 42
0.000354
  0
VERTEX
  8
0
 10
69.835260
 20
13.811770
 42
0.000404
  0
VERTEX
  8
0
 10
73.000000
 20
13.539025
 42
-0.001369
  0
VERTEX
  8
0
 10
76.128113
 20
13.263351
 42
-0.001281
  0
VERTEX
  8
0
 10
79.325000
 20
12.964535
 42
-0.001274
  0
VERTEX
  8
0
 10
82.161677
 20
12.684759
 42
-0.004385
  0
VERTEX
  8
0
 10
84.000000
 20
12.482415
 42
0.005679
  0
VERTEX
  8
0
 10
85.838407
 20
12.284877
 42
0.001652
  0
VERTEX
  8
0
 10
88.675000
 20
12.022091
 42
0.001660
  0
VERTEX
  8
0
 10
91.871887
 20
11.747271
 42
0.001775
  0
VERTEX
  8
0
 10
95.000000
 20
11.500000
 42
-0.001804
  0
VERTEX
  8
0
 10
98.128113
 20
11.252549
 42
-0.001687
  0
VERTEX
  8
0
 10
101.325000
 20
10.977189
 42
-0.001679
  0
VERTEX
  8
0
 10
104.161584
 20
10.713618
 42
-0.005770
  0
VERTEX
  8
0
 10
106.000000
 20
10.515132
 42
0.002970
  0
VERTEX
  8
0
 10
107.782892
 20
10.312535
 42
0.001004
  0
VERTEX
  8
0
 10
110.381250
 20
10.038175
 42
0.000999
  0
VERTEX
  8
0
 10
113.254789
 20
9.746395
 42
0.001147
  0
VERTEX
  8
0
 10
116.000000
 20
9.479541
 42
-0.001572
  0
VERTEX
  8
0
 10
118.671875
 20
9.217523
 42
-0.001602
  0
VERTEX
  8
0
 10
121.325000
 20
8.940327
 42
-0.001554
  0
VERTEX
  8
0
 10
123.628956
 20
8.684896
 42
-0.006656
  0
VERTEX
  8
0
 10
125.000000
 20
8.510058
 42
0.008676
  0
VERTEX
  8
0
 10
126.416599
 20
8.335222
 42
0.001703
  0
VERTEX
  8
0
 10
128.968750
 20
8.073887
 42
0.001806
  0
VERTEX
  8
0
 10
131.945294
 20
7.790188
 42
0.001674
  0
VERTEX
  8
0
 10
135.000000
 20
7.520481
 42
-0.001227
  0
VERTEX
  8
0
 10
138.128113
 20
7.247113
 42
-0.001148
  0
VERTEX
  8
0
 10
141.325000
 20
6.952429
 42
-0.001142
  0
VERTEX
  8
0
 10
144.161718
 20
6.677837
 42
-0.003932
  0
VERTEX
  8
0
 10
146.000000
 20
6.481044
 42
0.002866
  0
VERTEX
  8
0
 10
147.782879
 20
6.286337
 42
0.000969
  0
VERTEX
  8
0
 10
150.381250
 20
6.022716
 42
0.000963
  0
VERTEX
  8
0
 10
153.254789
 20
5.742393
 42
0.001106
  0
VERTEX
  8
0
 10
156.000000
 20
5.486055
 42
-0.001958
  0
VERTEX
  8
0
 10
158.671875
 20
5.231970
 42
-0.001995
  0
VERTEX
  8
0
 10
161.325000
 20
4.958482
 42
-0.001936
  0
VERTEX
  8
0
 10
163.628802
 20
4.702679
 42
-0.008277
  0
VERTEX
  8
0
 10
165.000000
 20
4.522007
 42
0.016219
  0
VERTEX
  8
0
 10
166.559874
 20
4.341628
 42
0.001790
  0
VERTEX
  8
0
 10
170.143750
 20
4.057516
 42
0.002183
  0
VERTEX
  8
0
 10
174.413471
 20
3.753157
 42
0.001765
  0
VERTEX
  8
0
 10
179.000000
 20
3.462590
 42
-0.001613
  0
VERTEX
  8
0
 10
183.519263
 20
3.177659
 42
-0.002214
  0
VERTEX
  8
0
 10
187.582038
 20
2.890273
 42
-0.001420
  0
VERTEX
  8
0
 10
190.993890
 20
2.623996
 42
-0.026302
  0
VERTEX
  8
0
 10
192.066513
 20
2.480142
 42
0.039579
  0
VERTEX
  8
0
 10
202.108216
 20
1.403645
 42
0.003567
  0
VERTEX
  8
0
 10
227.402766
 20
0.883905
 42
0.005039
  0
VERTEX
  8
0
 10
253.141652
 20
0.798100
 42
0.013420
  0
VERTEX
  8
0
 10
271.500000
 20
1.414824
 42
0.008448
  0
VERTEX
  8
0
 10
290.494003
 20
2.886271
 42
0.008535
  0
VERTEX
  8
0
 10
309.362688
 20
4.994691
 42
0.008523
  0
VERTEX
  8
0
 10
328.175012
 20
7.749341
 42
0.008366
  0
VERTEX
  8
0
 10
347.000000
 20
11.158788
 42
-0.000060
  0
VERTEX
  8
0
 10
353.012581
 20
12.351217
 42
-0.000091
  0
VERTEX
  8
0
 10
358.240625
 20
13.386417
 42
-0.000033
  0
VERTEX
  8
0
 10
362.749102
 20
14.277981
 42
-0.002307
  0
VERTEX
  8
0
 10
363.500000
 20
14.422826
 42
0.015523
  0
VERTEX
  8
0
 10
370.062821
 20
15.869644
 42
0.006978
  0
VERTEX
  8
0
 10
378.588305
 20
18.155738
 42
0.001451
  0
VERTEX
  8
0
 10
387.511562
 20
20.710486
 42
0.333902
  0
VERTEX
  8
0
 10
388.000000
 20
21.360349
 42
0.129915
  0
VERTEX
  8
0
 10
386.908151
 20
25.491588
 42
0.002462
  0
VERTEX
  8
0
 10
375.720872
 20
44.954227
 42
0.006187
  0
VERTEX
  8
0
 10
362.854063
 20
66.468650
 42
0.005323
  0
VERTEX
  8
0
 10
348.807769
 20
88.773137
 42
-0.007257
  0
VERTEX
  8
0
 10
342.684150
 20
98.580896
 42
-0.004771
  0
VERTEX
  8
0
 10
335.908936
 20
110.036726
 42
-0.004768
  0
VERTEX
  8
0
 10
329.644732
 20
121.105101
 42
-0.011261
  0
VERTEX
  8
0
 10
325.242678
 20
129.500000
 42
-0.012319
  0
VERTEX
  8
0
 10
321.700475
 20
137.106877
 42
-0.006083
  0
VERTEX
  8
0
 10
317.558571
 20
146.930843
 42
-0.005964
  0
VERTEX
  8
0
 10
313.752708
 20
156.602281
 42
-0.016650
  0
VERTEX
  8
0
 10
311.392542
 20
163.500000
 42
-0.014295
  0
VERTEX
  8
0
 10
310.088627
 20
168.252127
 42
-0.000497
  0
VERTEX
  8
0
 10
305.567754
 20
186.870026
 42
-0.001044
  0
VERTEX
  8
0
 10
301.139692
 20
205.354054
 42
-0.002562
  0
VERTEX
  8
0
 10
297.981867
 20
218.968435
 42
0.027815
  0
VERTEX
  8
0
 10
286.523099
 20
259.057580
 42
0.038346
  0
VERTEX
  8
0
 10
271.578700
 20
293.377892
 42
0.039576
  0
VERTEX
  8
0
 10
251.989058
 20
324.180899
 42
0.032683
  0
VERTEX
  8
0
 10
226.591047
 20
353.675959
 42
0.000000
  0
VERTEX
  8
0
 10
215.500000
 20
364.971990
 42
0.000000
  0
SEQEND
  0
ENDSEC
  0
EOF
