  0
SECTION
  2
HEADER
  9
$ACADVER
  1
AC1006
  9
$EXTMIN
 10
0.000000
 20
0.000000
 30
0.000000
  9
$EXTMAX
 10
512.000000
 20
454.000000
 30
0.000000
  0
ENDSEC
  0
SECTION
  2
ENTITIES
  0
POLYLINE
  8
0
 66
1
 70
1
  0
VERTEX
  8
0
 10
377.879077
 20
451.997780
 42
0.003666
  0
VERTEX
  8
0
 10
375.375187
 20
449.903193
 42
0.020338
  0
VERTEX
  8
0
 10
374.085247
 20
448.714373
 42
0.030380
  0
VERTEX
  8
0
 10
373.136832
 20
447.643352
 42
0.015293
  0
VERTEX
  8
0
 10
372.067845
 20
446.187739
 42
-0.034266
  0
VERTEX
  8
0
 10
371.462628
 20
445.425948
 42
-0.051034
  0
VERTEX
  8
0
 10
370.828166
 20
444.859351
 42
-0.064932
  0
VERTEX
  8
0
 10
370.258293
 20
444.550028
 42
-0.234456
  0
VERTEX
  8
0
 10
369.858771
 20
444.587284
 42
0.275865
  0
VERTEX
  8
0
 10
369.389894
 20
444.594427
 42
0.028323
  0
VERTEX
  8
0
 10
368.423754
 20
443.961805
 42
0.028952
  0
VERTEX
  8
0
 10
367.277112
 20
443.007210
 42
0.018883
  0
VERTEX
  8
0
 10
366.064599
 20
441.783723
 42
-0.002640
  0
VERTEX
  8
0
 10
364.829046
 20
440.453224
 42
-0.002859
  0
VERTEX
  8
0
 10
363.611642
 20
439.170844
 42
-0.002692
  0
VERTEX
  8
0
 10
362.555813
 20
438.083104
 42
-0.013847
  0
VERTEX
  8
0
 10
361.951101
 20
437.500000
 42
0.005266
  0
VERTEX
  8
0
 10
361.374236
 20
436.962542
 42
0.001435
  0
VERTEX
  8
0
 10
360.474622
 20
436.101573
 42
0.001452
  0
VERTEX
  8
0
 10
359.459876
 20
435.119129
 42
0.001510
  0
VERTEX
  8
0
 10
358.464198
 20
434.143653
 42
-0.042099
  0
VERTEX
  8
0
 10
355.855938
 20
431.973269
 42
-0.028792
  0
VERTEX
  8
0
 10
352.573368
 20
429.950289
 42
-0.028262
  0
VERTEX
  8
0
 10
349.348376
 20
428.439008
 42
-0.095720
  0
VERTEX
  8
0
 10
347.076205
 20
428.000000
 42
-0.163638
  0
VERTEX
  8
0
 10
345.237892
 20
428.618189
 42
-0.055840
  0
VERTEX
  8
0
 10
343.171310
 20
430.583817
 42
-0.055383
  0
VERTEX
  8
0
 10
341.533312
 20
433.039696
 42
-0.119961
  0
VERTEX
  8
0
 10
341.000000
 20
435.230567
 42
0.095906
  0
VERTEX
  8
0
 10
340.546729
 20
437.571927
 42
0.050118
  0
VERTEX
  8
0
 10
339.163010
 20
440.212968
 42
0.050100
  0
VERTEX
  8
0
 10
337.415369
 20
442.361452
 42
0.199538
  0
VERTEX
  8
0
 10
335.879007
 20
443.000000
 42
0.181614
  0
VERTEX
  8
0
 10
333.927957
 20
442.267153
 42
0.008286
  0
VERTEX
  8
0
 10
328.550825
 20
437.404530
 42
0.009317
  0
VERTEX
  8
0
 10
323.394551
 20
432.400664
 42
0.147451
  0
VERTEX
  8
0
 10
322.259233
 20
430.266885
 42
-0.103925
  0
VERTEX
  8
0
 10
321.972580
 20
429.595054
 42
-0.013167
  0
VERTEX
  8
0
 10
321.030649
 20
428.321264
 42
-0.014983
  0
VERTEX
  8
0
 10
319.812400
 20
426.854265
 42
-0.011942
  0
VERTEX
  8
0
 10
318.414918
 20
425.344731
 42
0.016149
  0
VERTEX
  8
0
 10
316.973527
 20
423.761252
 42
0.015666
  0
VERTEX
  8
0
 10
315.622112
 20
422.072310
 42
0.015783
  0
VERTEX
  8
0
 10
314.528430
 20
420.513944
 42
0.054318
  0
VERTEX
  8
0
 10
313.967796
 20
419.415298
 42
-0.067936
  0
VERTEX
  8
0
 10
313.401851
 20
418.376840
 42
-0.023560
  0
VERTEX
  8
0
 10
312.324385
 20
417.049222
 42
-0.022901
  0
VERTEX
  8
0
 10
310.984940
 20
415.680718
 42
-0.024688
  0
VERTEX
  8
0
 10
309.557796
 20
414.476286
 42
-0.021312
  0
VERTEX
  8
0
 10
307.206762
 20
412.836652
 42
-0.107349
  0
VERTEX
  8
0
 10
305.712064
 20
412.286827
 42
-0.084888
  0
VERTEX
  8
0
 10
303.964101
 20
412.340612
 42
-0.010588
  0
VERTEX
  8
0
 10
300.245685
 20
413.177220
 42
0.008639
  0
VERTEX
  8
0
 10
296.907335
 20
413.942001
 42
0.057029
  0
VERTEX
  8
0
 10
295.204911
 20
414.102487
 42
0.112993
  0
VERTEX
  8
0
 10
294.053820
 20
413.814720
 42
0.084405
  0
VERTEX
  8
0
 10
293.000000
 20
413.032695
 42
0.031188
  0
VERTEX
  8
0
 10
291.436321
 20
411.182299
 42
0.016931
  0
VERTEX
  8
0
 10
289.740992
 20
408.732733
 42
0.009617
  0
VERTEX
  8
0
 10
288.274899
 20
406.353820
 42
0.580514
  0
VERTEX
  8
0
 10
288.476947
 20
406.000000
 42
-0.571911
  0
VERTEX
  8
0
 10
288.551960
 20
405.872493
 42
-0.032978
  0
VERTEX
  8
0
 10
288.248139
 20
405.401786
 42
-0.024495
  0
VERTEX
  8
0
 10
287.708574
 20
404.745481
 42
-0.012083
  0
VERTEX
  8
0
 10
286.963525
 20
403.963525
 42
0.032093
  0
VERTEX
  8
0
 10
286.222627
 20
403.120881
 42
0.044401
  0
VERTEX
  8
0
 10
285.681168
 20
402.273010
 42
0.052194
  0
VERTEX
  8
0
 10
285.391141
 20
401.536826
 42
0.209113
  0
VERTEX
  8
0
 10
285.457782
 20
401.068310
 42
-0.162217
  0
VERTEX
  8
0
 10
285.545333
 20
400.697636
 42
-0.121862
  0
VERTEX
  8
0
 10
285.407725
 20
400.298781
 42
-0.094317
  0
VERTEX
  8
0
 10
285.055834
 20
399.930632
 42
-0.063457
  0
VERTEX
  8
0
 10
284.542095
 20
399.654527
 42
0.119192
  0
VERTEX
  8
0
 10
284.007443
 20
399.285863
 42
0.086749
  0
VERTEX
  8
0
 10
283.624287
 20
398.670346
 42
0.077232
  0
VERTEX
  8
0
 10
283.442082
 20
397.890676
 42
0.066515
  0
VERTEX
  8
0
 10
283.490421
 20
397.049742
 42
-0.042814
  0
VERTEX
  8
0
 10
283.572905
 20
396.264630
 42
-0.070182
  0
VERTEX
  8
0
 10
283.492325
 20
395.602112
 42
-0.101627
  0
VERTEX
  8
0
 10
283.271007
 20
395.159562
 42
-0.230063
  0
VERTEX
  8
0
 10
282.942582
 20
395.000000
 42
0.149641
  0
VERTEX
  8
0
 10
282.583120
 20
394.889955
 42
0.098669
  0
VERTEX
  8
0
 10
282.276884
 20
394.580357
 42
0.081926
  0
VERTEX
  8
0
 10
282.070368
 20
394.117601
 42
0.064154
  0
VERTEX
  8
0
 10
282.000000
 20
393.571429
 42
-0.069591
  0
VERTEX
  8
0
 10
281.910100
 20
392.928640
 42
-0.037195
  0
VERTEX
  8
0
 10
281.632812
 20
392.174330
 42
-0.036172
  0
VERTEX
  8
0
 10
281.228459
 20
391.432298
 42
-0.046628
  0
VERTEX
  8
0
 10
280.750000
 20
390.821429
 42
0.049104
  0
VERTEX
  8
0
 10
280.245562
 20
390.170795
 42
0.028124
  0
VERTEX
  8
0
 10
279.764390
 20
389.300670
 42
0.027858
  0
VERTEX
  8
0
 10
279.375182
 20
388.362376
 42
0.041093
  0
VERTEX
  8
0
 10
279.150050
 20
387.500000
 42
-0.043102
  0
VERTEX
  8
0
 10
278.933350
 20
386.683337
 42
-0.038525
  0
VERTEX
  8
0
 10
278.573578
 20
385.883160
 42
-0.040597
  0
VERTEX
  8
0
 10
278.134125
 20
385.213428
 42
-0.088631
  0
VERTEX
  8
0
 10
277.679011
 20
384.804373
 42
0.063922
  0
VERTEX
  8
0
 10
277.295891
 20
384.492639
 42
0.098209
  0
VERTEX
  8
0
 10
277.067891
 20
384.132436
 42
0.128409
  0
VERTEX
  8
0
 10
277.028201
 20
383.783013
 42
0.162170
  0
VERTEX
  8
0
 10
277.172900
 20
383.493767
 42
-0.389079
  0
VERTEX
  8
0
 10
277.220724
 20
382.389599
 42
-0.039864
  0
VERTEX
  8
0
 10
275.218047
 20
380.359150
 42
-0.040699
  0
VERTEX
  8
0
 10
272.729858
 20
378.540224
 42
-0.138346
  0
VERTEX
  8
0
 10
270.814788
 20
378.000000
 42
-0.122798
  0
VERTEX
  8
0
 10
269.119441
 20
378.422746
 42
-0.086003
  0
VERTEX
  8
0
 10
267.557825
 20
379.635549
 42
-0.082505
  0
VERTEX
  8
0
 10
266.442429
 20
381.359566
 42
-0.098173
  0
VERTEX
  8
0
 10
266.031803
 20
383.250000
 42
0.058472
  0
VERTEX
  8
0
 10
265.940909
 20
383.919281
 42
0.076549
  0
VERTEX
  8
0
 10
265.698256
 20
384.485937
 42
0.094319
  0
VERTEX
  8
0
 10
265.347463
 20
384.865919
 42
0.160671
  0
VERTEX
  8
0
 10
264.940983
 20
385.000000
 42
-0.096615
  0
VERTEX
  8
0
 10
264.580506
 20
385.070312
 42
-0.174358
  0
VERTEX
  8
0
 10
264.359094
 20
385.268661
 42
-0.171257
  0
VERTEX
  8
0
 10
264.312451
 20
385.565579
 42
-0.092807
  0
VERTEX
  8
0
 10
264.447214
 20
385.914590
 42
0.126636
  0
VERTEX
  8
0
 10
264.565617
 20
386.295139
 42
0.130019
  0
VERTEX
  8
0
 10
264.483739
 20
386.681412
 42
0.113873
  0
VERTEX
  8
0
 10
264.206570
 20
387.014357
 42
0.082195
  0
VERTEX
  8
0
 10
263.777803
 20
387.240732
 42
0.207250
  0
VERTEX
  8
0
 10
262.382181
 20
387.119059
 42
0.067794
  0
VERTEX
  8
0
 10
260.677900
 20
385.873685
 42
0.070912
  0
VERTEX
  8
0
 10
259.433191
 20
384.279044
 42
0.275348
  0
VERTEX
  8
0
 10
259.452665
 20
383.076590
 42
-0.061510
  0
VERTEX
  8
0
 10
259.642165
 20
382.664167
 42
-0.131042
  0
VERTEX
  8
0
 10
259.658614
 20
382.316248
 42
-0.191591
  0
VERTEX
  8
0
 10
259.505505
 20
382.088537
 42
-0.151200
  0
VERTEX
  8
0
 10
259.219420
 20
382.000000
 42
0.346310
  0
VERTEX
  8
0
 10
258.506834
 20
381.439191
 42
0.003734
  0
VERTEX
  8
0
 10
256.994798
 20
374.975465
 42
0.006637
  0
VERTEX
  8
0
 10
255.672781
 20
368.743965
 42
0.123357
  0
VERTEX
  8
0
 10
255.771959
 20
366.750000
 42
-0.119607
  0
VERTEX
  8
0
 10
255.788282
 20
366.464382
 42
-0.138265
  0
VERTEX
  8
0
 10
255.668638
 20
366.220312
 42
-0.124241
  0
VERTEX
  8
0
 10
255.426282
 20
366.056982
 42
-0.086665
  0
VERTEX
  8
0
 10
255.100000
 20
366.000000
 42
0.289609
  0
VERTEX
  8
0
 10
254.752059
 20
365.780016
 42
0.046751
  0
VERTEX
  8
0
 10
254.464375
 20
364.991354
 42
0.039353
  0
VERTEX
  8
0
 10
254.265195
 20
363.882156
 42
0.024758
  0
VERTEX
  8
0
 10
254.200000
 20
362.566312
 42
-0.028060
  0
VERTEX
  8
0
 10
254.044513
 20
359.797843
 42
-0.107762
  0
VERTEX
  8
0
 10
253.493845
 20
358.173784
 42
-0.165220
  0
VERTEX
  8
0
 10
252.467054
 20
357.305917
 42
-0.093832
  0
VERTEX
  8
0
 10
250.851276
 20
357.000000
 42
-0.145509
  0
VERTEX
  8
0
 10
248.972209
 20
357.558672
 42
-0.072006
  0
VERTEX
  8
0
 10
247.087039
 20
359.217921
 42
-0.072402
  0
VERTEX
  8
0
 10
245.760717
 20
361.329975
 42
-0.152782
  0
VERTEX
  8
0
 10
245.544839
 20
363.232830
 42
0.056244
  0
VERTEX
  8
0
 10
245.597613
 20
363.909067
 42
0.087013
  0
VERTEX
  8
0
 10
245.476883
 20
364.480894
 42
0.118121
  0
VERTEX
  8
0
 10
245.207999
 20
364.860075
 42
0.181666
  0
VERTEX
  8
0
 10
244.835594
 20
365.000000
 42
-0.168281
  0
VERTEX
  8
0
 10
244.483858
 20
365.121831
 42
-0.150591
  0
VERTEX
  8
0
 10
244.263418
 20
365.440625
 42
-0.107396
  0
VERTEX
  8
0
 10
244.218607
 20
365.925900
 42
-0.061205
  0
VERTEX
  8
0
 10
244.361626
 20
366.500000
 42
0.048437
  0
VERTEX
  8
0
 10
244.520441
 20
367.074712
 42
0.088650
  0
VERTEX
  8
0
 10
244.518489
 20
367.559375
 42
0.138461
  0
VERTEX
  8
0
 10
244.362621
 20
367.877131
 42
0.213034
  0
VERTEX
  8
0
 10
244.087330
 20
368.000000
 42
-0.272637
  0
VERTEX
  8
0
 10
243.696296
 20
368.230342
 42
-0.022851
  0
VERTEX
  8
0
 10
243.153542
 20
369.324633
 42
-0.025408
  0
VERTEX
  8
0
 10
242.598665
 20
370.781381
 42
-0.016615
  0
VERTEX
  8
0
 10
242.101953
 20
372.509389
 42
0.026163
  0
VERTEX
  8
0
 10
240.543485
 20
377.565582
 42
0.021376
  0
VERTEX
  8
0
 10
238.370079
 20
382.792673
 42
0.016176
  0
VERTEX
  8
0
 10
236.088349
 20
387.294122
 42
0.177556
  0
VERTEX
  8
0
 10
234.587479
 20
388.604805
 42
0.148693
  0
VERTEX
  8
0
 10
233.814788
 20
388.659902
 42
0.062792
  0
VERTEX
  8
0
 10
232.827354
 20
388.300068
 42
0.051496
  0
VERTEX
  8
0
 10
231.742966
 20
387.593051
 42
0.035693
  0
VERTEX
  8
0
 10
230.673249
 20
386.592438
 42
-0.040666
  0
VERTEX
  8
0
 10
229.591387
 20
385.600429
 42
-0.037004
  0
VERTEX
  8
0
 10
228.329855
 20
384.761529
 42
-0.039032
  0
VERTEX
  8
0
 10
227.084306
 20
384.182980
 42
-0.089442
  0
VERTEX
  8
0
 10
226.069588
 20
384.000000
 42
-0.064065
  0
VERTEX
  8
0
 10
223.944376
 20
384.273428
 42
-0.061949
  0
VERTEX
  8
0
 10
221.931507
 20
385.076581
 42
-0.081512
  0
VERTEX
  8
0
 10
220.620158
 20
386.107109
 42
-0.335738
  0
VERTEX
  8
0
 10
220.531009
 20
387.050173
 42
0.088302
  0
VERTEX
  8
0
 10
220.674781
 20
387.412838
 42
0.167147
  0
VERTEX
  8
0
 10
220.634509
 20
387.720988
 42
0.177958
  0
VERTEX
  8
0
 10
220.417227
 20
387.926425
 42
0.101637
  0
VERTEX
  8
0
 10
220.059017
 20
388.000000
 42
-0.132785
  0
VERTEX
  8
0
 10
219.655165
 20
388.109176
 42
-0.100542
  0
VERTEX
  8
0
 10
219.311086
 20
388.416146
 42
-0.087712
  0
VERTEX
  8
0
 10
219.079594
 20
388.875334
 42
-0.073123
  0
VERTEX
  8
0
 10
219.000000
 20
389.416667
 42
0.052798
  0
VERTEX
  8
0
 10
218.940003
 20
389.983260
 42
0.055402
  0
VERTEX
  8
0
 10
218.762759
 20
390.515104
 42
0.061716
  0
VERTEX
  8
0
 10
218.501683
 20
390.935577
 42
0.125765
  0
VERTEX
  8
0
 10
218.192372
 20
391.166667
 42
-0.179674
  0
VERTEX
  8
0
 10
217.175685
 20
392.108106
 42
-0.002685
  0
VERTEX
  8
0
 10
213.496719
 20
399.480122
 42
-0.002632
  0
VERTEX
  8
0
 10
209.891699
 20
406.900412
 42
-0.184741
  0
VERTEX
  8
0
 10
209.781296
 20
408.250000
 42
0.116776
  0
VERTEX
  8
0
 10
209.795946
 20
408.535685
 42
0.135922
  0
VERTEX
  8
0
 10
209.677643
 20
408.779688
 42
0.124268
  0
VERTEX
  8
0
 10
209.440068
 20
408.942882
 42
0.088889
  0
VERTEX
  8
0
 10
209.121320
 20
409.000000
 42
-0.212608
  0
VERTEX
  8
0
 10
208.702618
 20
409.186468
 42
-0.031773
  0
VERTEX
  8
0
 10
208.116802
 20
409.926939
 42
-0.031076
  0
VERTEX
  8
0
 10
207.500296
 20
410.946948
 42
-0.022210
  0
VERTEX
  8
0
 10
206.935574
 20
412.155537
 42
0.037874
  0
VERTEX
  8
0
 10
205.867059
 20
414.267355
 42
0.029377
  0
VERTEX
  8
0
 10
204.405746
 20
416.390291
 42
0.018574
  0
VERTEX
  8
0
 10
202.146689
 20
419.079202
 42
0.004771
  0
VERTEX
  8
0
 10
198.296674
 20
423.250000
 42
0.077523
  0
VERTEX
  8
0
 10
196.540541
 20
424.616023
 42
0.208160
  0
VERTEX
  8
0
 10
194.998095
 20
424.764398
 42
0.139124
  0
VERTEX
  8
0
 10
193.404382
 20
423.694934
 42
0.029680
  0
VERTEX
  8
0
 10
191.381302
 20
421.000000
 42
-0.022887
  0
VERTEX
  8
0
 10
189.908162
 20
418.981123
 42
-0.068804
  0
VERTEX
  8
0
 10
188.671251
 20
417.811914
 42
-0.091249
  0
VERTEX
  8
0
 10
187.376711
 20
417.205813
 42
-0.064060
  0
VERTEX
  8
0
 10
185.776890
 20
417.000000
 42
-0.105637
  0
VERTEX
  8
0
 10
182.925946
 20
417.609125
 42
-0.036826
  0
VERTEX
  8
0
 10
179.211596
 20
419.612330
 42
-0.035970
  0
VERTEX
  8
0
 10
175.886399
 20
422.088760
 42
-0.135250
  0
VERTEX
  8
0
 10
174.453278
 20
424.229687
 42
0.039031
  0
VERTEX
  8
0
 10
174.181088
 20
424.875199
 42
0.057891
  0
VERTEX
  8
0
 10
173.838540
 20
425.383807
 42
0.075830
  0
VERTEX
  8
0
 10
173.482194
 20
425.690751
 42
0.221679
  0
VERTEX
  8
0
 10
173.168225
 20
425.729687
 42
-0.242732
  0
VERTEX
  8
0
 10
172.728208
 20
425.802202
 42
-0.011794
  0
VERTEX
  8
0
 10
171.524592
 20
426.742470
 42
-0.016981
  0
VERTEX
  8
0
 10
170.111332
 20
427.983796
 42
-0.011211
  0
VERTEX
  8
0
 10
168.569753
 20
429.500000
 42
0.010485
  0
VERTEX
  8
0
 10
167.016273
 20
431.032355
 42
0.014828
  0
VERTEX
  8
0
 10
165.565808
 20
432.325000
 42
0.010883
  0
VERTEX
  8
0
 10
164.320976
 20
433.324479
 42
0.165163
  0
VERTEX
  8
0
 10
163.804113
 20
433.500000
 42
-0.094541
  0
VERTEX
  8
0
 10
163.416369
 20
433.573977
 42
-0.048676
  0
VERTEX
  8
0
 10
162.975090
 20
433.800535
 42
-0.045978
  0
VERTEX
  8
0
 10
162.551446
 20
434.131700
 42
-0.051653
  0
VERTEX
  8
0
 10
162.213525
 20
434.523098
 42
0.057706
  0
VERTEX
  8
0
 10
161.767613
 20
435.027149
 42
0.013779
  0
VERTEX
  8
0
 10
160.913087
 20
435.752306
 42
0.013982
  0
VERTEX
  8
0
 10
159.878861
 20
436.535540
 42
0.013420
  0
VERTEX
  8
0
 10
158.788471
 20
437.270944
 42
0.023509
  0
VERTEX
  8
0
 10
157.044837
 20
438.268167
 42
0.167506
  0
VERTEX
  8
0
 10
156.095751
 20
438.402473
 42
0.142372
  0
VERTEX
  8
0
 10
155.186587
 20
437.935840
 42
0.015462
  0
VERTEX
  8
0
 10
153.507223
 20
436.247846
 42
0.025636
  0
VERTEX
  8
0
 10
152.481300
 20
435.031440
 42
0.021732
  0
VERTEX
  8
0
 10
151.523557
 20
433.649189
 42
0.022294
  0
VERTEX
  8
0
 10
150.761161
 20
432.311122
 42
0.055605
  0
VERTEX
  8
0
 10
150.362861
 20
431.260031
 42
-0.091380
  0
VERTEX
  8
0
 10
149.869708
 20
430.194254
 42
-0.079075
  0
VERTEX
  8
0
 10
149.007724
 20
429.311430
 42
-0.062489
  0
VERTEX
  8
0
 10
147.726063
 20
428.586585
 42
-0.031724
  0
VERTEX
  8
0
 10
145.968502
 20
427.991518
 42
-0.042827
  0
VERTEX
  8
0
 10
143.539710
 20
427.555993
 42
-0.106004
  0
VERTEX
  8
0
 10
141.753389
 20
427.770278
 42
-0.062040
  0
VERTEX
  8
0
 10
139.685177
 20
428.780915
 42
-0.007910
  0
VERTEX
  8
0
 10
135.574392
 20
431.558804
 42
-0.009363
  0
VERTEX
  8
0
 10
133.055128
 20
433.391064
 42
-0.014003
  0
VERTEX
  8
0
 10
130.931228
 20
435.092982
 42
-0.008890
  0
VERTEX
  8
0
 10
129.249075
 20
436.572300
 42
-0.210971
  0
VERTEX
  8
0
 10
129.000000
 20
437.136333
 42
0.120887
  0
VERTEX
  8
0
 10
128.920450
 20
437.460550
 42
0.187343
  0
VERTEX
  8
0
 10
128.706250
 20
437.648112
 42
0.151887
  0
VERTEX
  8
0
 10
128.382468
 20
437.663447
 42
0.074998
  0
VERTEX
  8
0
 10
128.000000
 20
437.500000
 42
-0.069414
  0
VERTEX
  8
0
 10
127.617269
 20
437.331387
 42
-0.143949
  0
VERTEX
  8
0
 10
127.293750
 20
437.334484
 42
-0.190098
  0
VERTEX
  8
0
 10
127.080600
 20
437.503777
 42
-0.131720
  0
VERTEX
  8
0
 10
127.000000
 20
437.804419
 42
0.250444
  0
VERTEX
  8
0
 10
126.743391
 20
438.284594
 42
0.012536
  0
VERTEX
  8
0
 10
125.186125
 20
439.269921
 42
0.017683
  0
VERTEX
  8
0
 10
123.191434
 20
440.369237
 42
0.011627
  0
VERTEX
  8
0
 10
120.825105
 20
441.498001
 42
0.012325
  0
VERTEX
  8
0
 10
117.827611
 20
442.755386
 42
0.036574
  0
VERTEX
  8
0
 10
115.698650
 20
443.412601
 42
0.055935
  0
VERTEX
  8
0
 10
114.152741
 20
443.590466
 42
0.141540
  0
VERTEX
  8
0
 10
113.075105
 20
443.282437
 42
0.196317
  0
VERTEX
  8
0
 10
111.618148
 20
441.256507
 42
0.090002
  0
VERTEX
  8
0
 10
111.431952
 20
437.949400
 42
0.028555
  0
VERTEX
  8
0
 10
112.559644
 20
431.765307
 42
0.002400
  0
VERTEX
  8
0
 10
116.455561
 20
416.000000
 42
-0.010453
  0
VERTEX
  8
0
 10
118.308216
 20
407.948364
 42
-0.033828
  0
VERTEX
  8
0
 10
119.060483
 20
402.516790
 42
-0.053129
  0
VERTEX
  8
0
 10
118.924389
 20
398.755400
 42
-0.138475
  0
VERTEX
  8
0
 10
117.836467
 20
396.302955
 42
-0.083992
  0
VERTEX
  8
0
 10
117.166214
 20
395.726293
 42
-0.021503
  0
VERTEX
  8
0
 10
115.906170
 20
395.038106
 42
-0.021287
  0
VERTEX
  8
0
 10
114.379131
 20
394.366543
 42
-0.020168
  0
VERTEX
  8
0
 10
112.773023
 20
393.813850
 42
0.066803
  0
VERTEX
  8
0
 10
109.975016
 20
392.549188
 42
0.100528
  0
VERTEX
  8
0
 10
108.037477
 20
390.713928
 42
0.121949
  0
VERTEX
  8
0
 10
107.198476
 20
388.547058
 42
0.132857
  0
VERTEX
  8
0
 10
107.507385
 20
386.313770
 42
-0.017405
  0
VERTEX
  8
0
 10
107.816288
 20
385.509743
 42
-0.012489
  0
VERTEX
  8
0
 10
108.107204
 20
384.592170
 42
-0.012637
  0
VERTEX
  8
0
 10
108.340500
 20
383.703660
 42
-0.026394
  0
VERTEX
  8
0
 10
108.467619
 20
383.000000
 42
0.047084
  0
VERTEX
  8
0
 10
108.991978
 20
380.655669
 42
0.017877
  0
VERTEX
  8
0
 10
110.142301
 20
377.503360
 42
0.009427
  0
VERTEX
  8
0
 10
111.458811
 20
374.428206
 42
0.294996
  0
VERTEX
  8
0
 10
112.121433
 20
374.000000
 42
-0.257052
  0
VERTEX
  8
0
 10
112.439788
 20
373.824753
 42
-0.033420
  0
VERTEX
  8
0
 10
112.823245
 20
373.118750
 42
-0.032164
  0
VERTEX
  8
0
 10
113.195263
 20
372.149379
 42
-0.021486
  0
VERTEX
  8
0
 10
113.500000
 20
371.000000
 42
0.024263
  0
VERTEX
  8
0
 10
113.811532
 20
369.850787
 42
0.035680
  0
VERTEX
  8
0
 10
114.203921
 20
368.881250
 42
0.039028
  0
VERTEX
  8
0
 10
114.615681
 20
368.184751
 42
0.244416
  0
VERTEX
  8
0
 10
114.971047
 20
368.000000
 42
-0.296286
  0
VERTEX
  8
0
 10
115.628413
 20
367.572976
 42
-0.020291
  0
VERTEX
  8
0
 10
116.488038
 20
365.408412
 42
-0.026138
  0
VERTEX
  8
0
 10
117.151764
 20
363.144559
 42
-0.112535
  0
VERTEX
  8
0
 10
117.164038
 20
361.750000
 42
0.127688
  0
VERTEX
  8
0
 10
117.175089
 20
361.464392
 42
0.127776
  0
VERTEX
  8
0
 10
117.323680
 20
361.220312
 42
0.111625
  0
VERTEX
  8
0
 10
117.592059
 20
361.056711
 42
0.081457
  0
VERTEX
  8
0
 10
117.937851
 20
361.000000
 42
-0.197626
  0
VERTEX
  8
0
 10
118.301038
 20
360.850615
 42
-0.081857
  0
VERTEX
  8
0
 10
118.618465
 20
360.412500
 42
-0.063458
  0
VERTEX
  8
0
 10
118.845071
 20
359.765523
 42
-0.044803
  0
VERTEX
  8
0
 10
118.937851
 20
359.000000
 42
-0.000942
  0
VERTEX
  8
0
 10
118.964885
 20
358.073820
 42
-0.000507
  0
VERTEX
  8
0
 10
118.994896
 20
356.932239
 42
-0.000505
  0
VERTEX
  8
0
 10
119.023124
 20
355.768767
 42
-0.000795
  0
VERTEX
  8
0
 10
119.044772
 20
354.769323
 42
-0.138938
  0
VERTEX
  8
0
 10
118.452649
 20
352.507448
 42
-0.160316
  0
VERTEX
  8
0
 10
116.784198
 20
351.041968
 42
-0.090896
  0
VERTEX
  8
0
 10
113.723746
 20
350.352764
 42
-0.025512
  0
VERTEX
  8
0
 10
108.804282
 20
350.405925
 42
0.011356
  0
VERTEX
  8
0
 10
106.165278
 20
350.509184
 42
0.017052
  0
VERTEX
  8
0
 10
103.861420
 20
350.468392
 42
0.012029
  0
VERTEX
  8
0
 10
101.994882
 20
350.326518
 42
0.233432
  0
VERTEX
  8
0
 10
101.517357
 20
350.028084
 42
0.201065
  0
VERTEX
  8
0
 10
101.319419
 20
348.775564
 42
0.020852
  0
VERTEX
  8
0
 10
102.166932
 20
345.848116
 42
0.024972
  0
VERTEX
  8
0
 10
103.290342
 20
342.980951
 42
0.104814
  0
VERTEX
  8
0
 10
104.377851
 20
341.496383
 42
-0.047432
  0
VERTEX
  8
0
 10
104.830897
 20
341.006456
 42
-0.030223
  0
VERTEX
  8
0
 10
105.263835
 20
340.361368
 42
-0.030261
  0
VERTEX
  8
0
 10
105.614853
 20
339.670603
 42
-0.048481
  0
VERTEX
  8
0
 10
105.818182
 20
339.041838
 42
0.078524
  0
VERTEX
  8
0
 10
106.098932
 20
338.323553
 42
0.021733
  0
VERTEX
  8
0
 10
106.757244
 20
337.302773
 42
0.021384
  0
VERTEX
  8
0
 10
107.613970
 20
336.196634
 42
0.020910
  0
VERTEX
  8
0
 10
108.568182
 20
335.159091
 42
-0.021193
  0
VERTEX
  8
0
 10
109.499135
 20
334.145687
 42
-0.025176
  0
VERTEX
  8
0
 10
110.285653
 20
333.111712
 42
-0.025210
  0
VERTEX
  8
0
 10
110.851040
 20
332.188607
 42
-0.125437
  0
VERTEX
  8
0
 10
111.000000
 20
331.604183
 42
0.131000
  0
VERTEX
  8
0
 10
111.138135
 20
331.086000
 42
0.044895
  0
VERTEX
  8
0
 10
111.587500
 20
330.444101
 42
0.040943
  0
VERTEX
  8
0
 10
112.234690
 20
329.792931
 42
0.037111
  0
VERTEX
  8
0
 10
113.000000
 20
329.232073
 42
-0.048682
  0
VERTEX
  8
0
 10
113.765087
 20
328.643741
 42
-0.046919
  0
VERTEX
  8
0
 10
114.412500
 20
327.911816
 42
-0.050645
  0
VERTEX
  8
0
 10
114.856181
 20
327.153239
 42
-0.107418
  0
VERTEX
  8
0
 10
115.000000
 20
326.491526
 42
0.060244
  0
VERTEX
  8
0
 10
115.068974
 20
325.921147
 42
0.078985
  0
VERTEX
  8
0
 10
115.272235
 20
325.438136
 42
0.097110
  0
VERTEX
  8
0
 10
115.573284
 20
325.114711
 42
0.158201
  0
VERTEX
  8
0
 10
115.926758
 20
325.000000
 42
-0.259914
  0
VERTEX
  8
0
 10
116.987824
 20
324.408467
 42
-0.025953
  0
VERTEX
  8
0
 10
118.437307
 20
321.766216
 42
-0.031811
  0
VERTEX
  8
0
 10
119.628347
 20
318.837560
 42
-0.082678
  0
VERTEX
  8
0
 10
119.984687
 20
316.596362
 42
-0.054600
  0
VERTEX
  8
0
 10
119.775909
 20
314.810786
 42
-0.091086
  0
VERTEX
  8
0
 10
119.178405
 20
313.425295
 42
-0.084014
  0
VERTEX
  8
0
 10
118.087457
 20
312.269317
 42
-0.040608
  0
VERTEX
  8
0
 10
116.364485
 20
311.175791
 42
0.074645
  0
VERTEX
  8
0
 10
115.275023
 20
310.375813
 42
0.121338
  0
VERTEX
  8
0
 10
114.681116
 20
309.400393
 42
0.076561
  0
VERTEX
  8
0
 10
114.456809
 20
307.941912
 42
0.016774
  0
VERTEX
  8
0
 10
114.542758
 20
305.397814
 42
0.019571
  0
VERTEX
  8
0
 10
114.741563
 20
303.537344
 42
0.022957
  0
VERTEX
  8
0
 10
115.079190
 20
301.795853
 42
0.022700
  0
VERTEX
  8
0
 10
115.493443
 20
300.370260
 42
0.114803
  0
VERTEX
  8
0
 10
115.928272
 20
299.671728
 42
-0.146809
  0
VERTEX
  8
0
 10
116.785343
 20
298.079728
 42
-0.064691
  0
VERTEX
  8
0
 10
116.961778
 20
295.671288
 42
-0.066987
  0
VERTEX
  8
0
 10
116.530049
 20
293.424623
 42
-0.223820
  0
VERTEX
  8
0
 10
115.518319
 20
292.368656
 42
-0.079730
  0
VERTEX
  8
0
 10
113.221280
 20
291.885577
 42
-0.012127
  0
VERTEX
  8
0
 10
108.521903
 20
291.773203
 42
-0.014546
  0
VERTEX
  8
0
 10
103.533153
 20
291.920088
 42
-0.026804
  0
VERTEX
  8
0
 10
99.500000
 20
292.374190
 42
0.015656
  0
VERTEX
  8
0
 10
89.142688
 20
293.774731
 42
0.019325
  0
VERTEX
  8
0
 10
79.421524
 20
294.402159
 42
0.013356
  0
VERTEX
  8
0
 10
71.244849
 20
294.394777
 42
0.252559
  0
VERTEX
  8
0
 10
69.098371
 20
293.158976
 42
0.142502
  0
VERTEX
  8
0
 10
68.877021
 20
292.360859
 42
0.046058
  0
VERTEX
  8
0
 10
69.006381
 20
291.128768
 42
0.038567
  0
VERTEX
  8
0
 10
69.428512
 20
289.625483
 42
0.024811
  0
VERTEX
  8
0
 10
70.134727
 20
287.957282
 42
-0.016941
  0
VERTEX
  8
0
 10
70.846375
 20
286.347287
 42
-0.017251
  0
VERTEX
  8
0
 10
71.442734
 20
284.702432
 42
-0.017297
  0
VERTEX
  8
0
 10
71.861017
 20
283.240827
 42
-0.065550
  0
VERTEX
  8
0
 10
71.968197
 20
282.298306
 42
-0.093449
  0
VERTEX
  8
0
 10
71.617941
 20
280.605590
 42
-0.058240
  0
VERTEX
  8
0
 10
70.631575
 20
278.828649
 42
-0.071047
  0
VERTEX
  8
0
 10
69.482581
 20
277.631676
 42
-0.379085
  0
VERTEX
  8
0
 10
68.651123
 20
277.682210
 42
0.097061
  0
VERTEX
  8
0
 10
68.402868
 20
277.849108
 42
0.242473
  0
VERTEX
  8
0
 10
68.191267
 20
277.832698
 42
0.191979
  0
VERTEX
  8
0
 10
68.046542
 20
277.637623
 42
0.064828
  0
VERTEX
  8
0
 10
68.000000
 20
277.280166
 42
-0.306466
  0
VERTEX
  8
0
 10
67.417261
 20
276.418721
 42
-0.033830
  0
VERTEX
  8
0
 10
65.032137
 20
275.645091
 42
-0.027016
  0
VERTEX
  8
0
 10
61.406580
 20
274.940310
 42
-0.010059
  0
VERTEX
  8
0
 10
56.250000
 20
274.329710
 42
0.013806
  0
VERTEX
  8
0
 10
54.237543
 20
274.076105
 42
0.022197
  0
VERTEX
  8
0
 10
52.542188
 20
273.737106
 42
0.017987
  0
VERTEX
  8
0
 10
51.240421
 20
273.366003
 42
0.325052
  0
VERTEX
  8
0
 10
51.000000
 20
273.035259
 42
-0.285622
  0
VERTEX
  8
0
 10
50.789704
 20
272.697155
 42
-0.027803
  0
VERTEX
  8
0
 10
49.863150
 20
272.302847
 42
-0.028610
  0
VERTEX
  8
0
 10
48.612976
 20
271.930388
 42
-0.018448
  0
VERTEX
  8
0
 10
47.129872
 20
271.636758
 42
0.028692
  0
VERTEX
  8
0
 10
45.559382
 20
271.292268
 42
0.028786
  0
VERTEX
  8
0
 10
44.040426
 20
270.770532
 42
0.030055
  0
VERTEX
  8
0
 10
42.774783
 20
270.161485
 42
0.092632
  0
VERTEX
  8
0
 10
42.047254
 20
269.556938
 42
0.147716
  0
VERTEX
  8
0
 10
41.406086
 20
268.037945
 42
0.082137
  0
VERTEX
  8
0
 10
41.523209
 20
266.014024
 42
0.069074
  0
VERTEX
  8
0
 10
42.358827
 20
263.791581
 42
0.055919
  0
VERTEX
  8
0
 10
43.818281
 20
261.700262
 42
-0.074272
  0
VERTEX
  8
0
 10
44.425514
 20
260.758584
 42
-0.034200
  0
VERTEX
  8
0
 10
44.935370
 20
259.387824
 42
-0.032918
  0
VERTEX
  8
0
 10
45.283521
 20
257.844775
 42
-0.039044
  0
VERTEX
  8
0
 10
45.400000
 20
256.355424
 42
-0.099133
  0
VERTEX
  8
0
 10
44.805562
 20
253.386697
 42
-0.127360
  0
VERTEX
  8
0
 10
43.129693
 20
251.175758
 42
-0.085911
  0
VERTEX
  8
0
 10
40.022970
 20
249.488838
 42
-0.026939
  0
VERTEX
  8
0
 10
34.904955
 20
248.060371
 42
0.010407
  0
VERTEX
  8
0
 10
32.590351
 20
247.496090
 42
0.014733
  0
VERTEX
  8
0
 10
30.558028
 20
246.890934
 42
0.010767
  0
VERTEX
  8
0
 10
28.915255
 20
246.309080
 42
0.165303
  0
VERTEX
  8
0
 10
28.457966
 20
245.931987
 42
-0.156340
  0
VERTEX
  8
0
 10
28.126004
 20
245.648353
 42
-0.056546
  0
VERTEX
  8
0
 10
27.523502
 20
245.472546
 42
-0.049201
  0
VERTEX
  8
0
 10
26.773145
 20
245.417961
 42
-0.041160
  0
VERTEX
  8
0
 10
25.978972
 20
245.504050
 42
0.038011
  0
VERTEX
  8
0
 10
25.220742
 20
245.591069
 42
0.063309
  0
VERTEX
  8
0
 10
24.581323
 20
245.534547
 42
0.092163
  0
VERTEX
  8
0
 10
24.151364
 20
245.353563
 42
0.252300
  0
VERTEX
  8
0
 10
24.000000
 20
245.072688
 42
-0.312026
  0
VERTEX
  8
0
 10
23.744367
 20
244.702936
 42
-0.013294
  0
VERTEX
  8
0
 10
22.164062
 20
244.153866
 42
-0.018747
  0
VERTEX
  8
0
 10
20.145716
 20
243.594571
 42
-0.011771
  0
VERTEX
  8
0
 10
17.750000
 20
243.085710
 42
0.005984
  0
VERTEX
  8
0
 10
15.155470
 20
242.565923
 42
0.005678
  0
VERTEX
  8
0
 10
12.528125
 20
241.975511
 42
0.005647
  0
VERTEX
  8
0
 10
10.216315
 20
241.400710
 42
0.019865
  0
VERTEX
  8
0
 10
8.750000
 20
240.955605
 42
0.005046
  0
VERTEX
  8
0
 10
3.056110
 20
238.912389
 42
0.069150
  0
VERTEX
  8
0
 10
1.124397
 20
237.875316
 42
0.170366
  0
VERTEX
  8
0
 10
0.276988
 20
236.643333
 42
0.066354
  0
VERTEX
  8
0
 10
-0.000000
 20
234.565326
 42
0.042116
  0
VERTEX
  8
0
 10
0.148075
 20
232.810509
 42
0.122027
  0
VERTEX
  8
0
 10
0.631676
 20
231.701537
 42
0.107437
  0
VERTEX
  8
0
 10
1.618633
 20
230.865716
 42
0.028685
  0
VERTEX
  8
0
 10
3.500000
 20
230.000000
 42
-0.026700
  0
VERTEX
  8
0
 10
5.528441
 20
229.076338
 42
-0.096500
  0
VERTEX
  8
0
 10
6.633042
 20
228.195643
 42
-0.137301
  0
VERTEX
  8
0
 10
7.116386
 20
227.148394
 42
-0.079193
  0
VERTEX
  8
0
 10
7.118421
 20
225.750000
 42
0.132511
  0
VERTEX
  8
0
 10
7.149071
 20
225.464337
 42
0.119960
  0
VERTEX
  8
0
 10
7.319317
 20
225.220313
 42
0.103422
  0
VERTEX
  8
0
 10
7.607510
 20
225.056543
 42
0.077818
  0
VERTEX
  8
0
 10
7.968615
 20
225.000000
 42
-0.184534
  0
VERTEX
  8
0
 10
8.289193
 20
224.877514
 42
-0.147206
  0
VERTEX
  8
0
 10
8.483616
 20
224.559375
 42
-0.100118
  0
VERTEX
  8
0
 10
8.511135
 20
224.074366
 42
-0.055937
  0
VERTEX
  8
0
 10
8.361626
 20
223.500000
 42
0.074730
  0
VERTEX
  8
0
 10
8.226893
 20
222.889539
 42
0.148219
  0
VERTEX
  8
0
 10
8.337055
 20
222.410984
 42
0.165535
  0
VERTEX
  8
0
 10
8.681150
 20
222.107877
 42
0.098834
  0
VERTEX
  8
0
 10
9.221567
 20
222.000000
 42
-0.104146
  0
VERTEX
  8
0
 10
10.043363
 20
221.826950
 42
-0.014082
  0
VERTEX
  8
0
 10
11.643776
 20
221.067144
 42
-0.015733
  0
VERTEX
  8
0
 10
13.510620
 20
220.040300
 42
-0.012672
  0
VERTEX
  8
0
 10
15.451514
 20
218.824319
 42
0.000000
  0
VERTEX
  8
0
 10
20.245917
 20
215.648639
 42
0.000000
  0
VERTEX
  8
0
 10
19.706441
 20
209.699201
 42
0.011971
  0
VERTEX
  8
0
 10
19.471536
 20
206.171365
 42
0.069497
  0
VERTEX
  8
0
 10
19.650295
 20
204.319392
 42
0.104043
  0
VERTEX
  8
0
 10
20.303041
 20
202.941241
 42
0.043455
  0
VERTEX
  8
0
 10
21.690878
 20
201.410681
 42
0.015338
  0
VERTEX
  8
0
 10
22.704495
 20
200.527509
 42
0.021728
  0
VERTEX
  8
0
 10
23.662157
 20
199.810595
 42
0.018700
  0
VERTEX
  8
0
 10
24.477994
 20
199.297099
 42
0.200796
  0
VERTEX
  8
0
 10
24.857396
 20
199.248251
 42
-0.129169
  0
VERTEX
  8
0
 10
25.224958
 20
199.252426
 42
-0.022229
  0
VERTEX
  8
0
 10
25.898735
 20
199.051357
 42
-0.022916
  0
VERTEX
  8
0
 10
26.687163
 20
198.736190
 42
-0.018706
  0
VERTEX
  8
0
 10
27.500000
 20
198.329907
 42
0.055581
  0
VERTEX
  8
0
 10
28.710568
 20
197.832476
 42
0.009540
  0
VERTEX
  8
0
 10
31.115625
 20
197.193328
 42
0.010290
  0
VERTEX
  8
0
 10
33.981951
 20
196.552093
 42
0.009027
  0
VERTEX
  8
0
 10
37.000000
 20
195.998357
 42
-0.000983
  0
VERTEX
  8
0
 10
40.018115
 20
195.494652
 42
-0.001145
  0
VERTEX
  8
0
 10
42.884375
 20
195.003742
 42
-0.001014
  0
VERTEX
  8
0
 10
45.307541
 20
194.577942
 42
-0.006909
  0
VERTEX
  8
0
 10
46.500000
 20
194.348868
 42
0.001077
  0
VERTEX
  8
0
 10
47.572442
 20
194.129851
 42
0.000281
  0
VERTEX
  8
0
 10
49.296051
 20
193.782725
 42
0.000286
  0
VERTEX
  8
0
 10
51.260055
 20
193.389502
 42
0.000292
  0
VERTEX
  8
0
 10
53.209963
 20
193.001443
 42
-0.026013
  0
VERTEX
  8
0
 10
56.917133
 20
192.063226
 42
-0.052750
  0
VERTEX
  8
0
 10
59.678759
 20
190.878358
 42
-0.070605
  0
VERTEX
  8
0
 10
61.557683
 20
189.445027
 42
-0.118250
  0
VERTEX
  8
0
 10
62.578561
 20
187.752475
 42
-0.092007
  0
VERTEX
  8
0
 10
62.777400
 20
186.155015
 42
-0.040160
  0
VERTEX
  8
0
 10
62.478287
 20
184.031539
 42
-0.039312
  0
VERTEX
  8
0
 10
61.868437
 20
182.051654
 42
-0.137749
  0
VERTEX
  8
0
 10
61.067039
 20
181.000000
 42
0.058896
  0
VERTEX
  8
0
 10
60.695375
 20
180.644255
 42
0.006274
  0
VERTEX
  8
0
 10
59.944603
 20
179.710270
 42
0.007666
  0
VERTEX
  8
0
 10
59.078522
 20
178.569096
 42
0.006092
  0
VERTEX
  8
0
 10
58.177559
 20
177.311558
 42
0.000000
  0
VERTEX
  8
0
 10
55.951478
 20
174.123116
 42
0.000000
  0
VERTEX
  8
0
 10
58.164300
 20
172.061558
 42
0.099253
  0
VERTEX
  8
0
 10
60.056521
 20
170.895783
 42
0.040423
  0
VERTEX
  8
0
 10
62.980993
 20
170.075367
 42
0.039142
  0
VERTEX
  8
0
 10
66.253888
 20
169.699116
 42
0.049993
  0
VERTEX
  8
0
 10
69.281977
 20
169.892238
 42
-0.036226
  0
VERTEX
  8
0
 10
69.876550
 20
169.946598
 42
-0.000461
  0
VERTEX
  8
0
 10
73.656633
 20
170.014007
 42
-0.001345
  0
VERTEX
  8
0
 10
78.032749
 20
170.076239
 42
-0.000881
  0
VERTEX
  8
0
 10
83.076327
 20
170.125511
 42
-0.010191
  0
VERTEX
  8
0
 10
92.545170
 20
170.008338
 42
-0.082513
  0
VERTEX
  8
0
 10
96.788597
 20
169.159601
 42
-0.173619
  0
VERTEX
  8
0
 10
99.075976
 20
167.209898
 42
-0.084115
  0
VERTEX
  8
0
 10
100.423688
 20
163.555088
 42
0.036839
  0
VERTEX
  8
0
 10
100.882862
 20
161.822667
 42
0.106080
  0
VERTEX
  8
0
 10
101.522830
 20
160.764909
 42
0.111672
  0
VERTEX
  8
0
 10
102.519062
 20
160.093685
 42
0.043297
  0
VERTEX
  8
0
 10
104.125421
 20
159.624916
 42
0.019197
  0
VERTEX
  8
0
 10
105.364627
 20
159.426198
 42
0.023100
  0
VERTEX
  8
0
 10
106.541120
 20
159.338477
 42
0.022631
  0
VERTEX
  8
0
 10
107.522018
 20
159.355176
 42
0.123445
  0
VERTEX
  8
0
 10
108.023983
 20
159.514822
 42
-0.072500
  0
VERTEX
  8
0
 10
108.843971
 20
159.870073
 42
-0.016919
  0
VERTEX
  8
0
 10
110.307442
 20
160.213118
 42
-0.008952
  0
VERTEX
  8
0
 10
112.767278
 20
160.656948
 42
-0.001316
  0
VERTEX
  8
0
 10
117.765351
 20
161.453150
 42
0.021844
  0
VERTEX
  8
0
 10
119.214552
 20
161.745442
 42
0.013856
  0
VERTEX
  8
0
 10
120.874808
 20
162.205668
 42
0.013915
  0
VERTEX
  8
0
 10
122.482848
 20
162.749195
 42
0.024899
  0
VERTEX
  8
0
 10
123.765351
 20
163.296825
 42
-0.022568
  0
VERTEX
  8
0
 10
124.922416
 20
163.797279
 42
-0.021569
  0
VERTEX
  8
0
 10
126.137322
 20
164.199835
 42
-0.022094
  0
VERTEX
  8
0
 10
127.239334
 20
164.460947
 42
-0.068695
  0
VERTEX
  8
0
 10
128.000000
 20
164.500000
 42
0.070446
  0
VERTEX
  8
0
 10
128.766733
 20
164.542045
 42
0.021693
  0
VERTEX
  8
0
 10
129.894486
 20
164.816613
 42
0.021228
  0
VERTEX
  8
0
 10
131.144419
 20
165.237284
 42
0.021798
  0
VERTEX
  8
0
 10
132.342930
 20
165.759169
 42
-0.021136
  0
VERTEX
  8
0
 10
133.470845
 20
166.252089
 42
-0.030506
  0
VERTEX
  8
0
 10
134.507638
 20
166.582771
 42
-0.030810
  0
VERTEX
  8
0
 10
135.347857
 20
166.741013
 42
-0.231495
  0
VERTEX
  8
0
 10
135.719946
 20
166.613387
 42
0.236457
  0
VERTEX
  8
0
 10
136.115217
 20
166.481953
 42
0.021901
  0
VERTEX
  8
0
 10
137.157984
 20
166.679436
 42
0.024518
  0
VERTEX
  8
0
 10
138.442986
 20
167.048929
 42
0.016692
  0
VERTEX
  8
0
 10
139.865401
 20
167.588228
 42
-0.050807
  0
VERTEX
  8
0
 10
142.695307
 20
168.445830
 42
-0.077272
  0
VERTEX
  8
0
 10
145.257535
 20
168.544496
 42
-0.101716
  0
VERTEX
  8
0
 10
147.212993
 20
167.899769
 42
-0.172473
  0
VERTEX
  8
0
 10
148.321302
 20
166.605084
 42
-0.103537
  0
VERTEX
  8
0
 10
148.609331
 20
164.821073
 42
-0.083267
  0
VERTEX
  8
0
 10
148.198710
 20
162.917175
 42
-0.087415
  0
VERTEX
  8
0
 10
147.220484
 20
161.332180
 42
-0.134839
  0
VERTEX
  8
0
 10
145.877509
 20
160.461123
 42
0.061733
  0
VERTEX
  8
0
 10
145.195533
 20
160.147825
 42
0.098349
  0
VERTEX
  8
0
 10
144.727489
 20
159.711782
 42
0.131336
  0
VERTEX
  8
0
 10
144.542333
 20
159.225097
 42
0.165468
  0
VERTEX
  8
0
 10
144.649524
 20
158.758065
 42
-0.077993
  0
VERTEX
  8
0
 10
144.827883
 20
158.333730
 42
-0.358476
  0
VERTEX
  8
0
 10
144.720947
 20
158.110177
 42
-0.174340
  0
VERTEX
  8
0
 10
144.355787
 20
158.076856
 42
-0.028056
  0
VERTEX
  8
0
 10
143.664045
 20
158.298676
 42
0.057607
  0
VERTEX
  8
0
 10
142.934774
 20
158.485917
 42
0.158030
  0
VERTEX
  8
0
 10
142.417824
 20
158.393325
 42
0.186931
  0
VERTEX
  8
0
 10
142.107177
 20
158.032275
 42
0.085433
  0
VERTEX
  8
0
 10
142.000000
 20
157.409598
 42
-0.067775
  0
VERTEX
  8
0
 10
141.926548
 20
156.870207
 42
-0.141436
  0
VERTEX
  8
0
 10
141.706250
 20
156.512255
 42
-0.190681
  0
VERTEX
  8
0
 10
141.379785
 20
156.388906
 42
-0.135314
  0
VERTEX
  8
0
 10
141.000000
 20
156.500000
 42
0.088621
  0
VERTEX
  8
0
 10
140.618194
 20
156.651081
 42
0.167455
  0
VERTEX
  8
0
 10
140.293750
 20
156.608064
 42
0.177706
  0
VERTEX
  8
0
 10
140.077418
 20
156.378351
 42
0.101261
  0
VERTEX
  8
0
 10
140.000000
 20
156.000000
 42
-0.125451
  0
VERTEX
  8
0
 10
139.906400
 20
155.632818
 42
-0.188696
  0
VERTEX
  8
0
 10
139.656330
 20
155.422788
 42
-0.148477
  0
VERTEX
  8
0
 10
139.277663
 20
155.411127
 42
-0.072516
  0
VERTEX
  8
0
 10
138.830061
 20
155.605028
 42
0.061279
  0
VERTEX
  8
0
 10
138.346402
 20
155.827529
 42
0.366135
  0
VERTEX
  8
0
 10
138.109141
 20
155.729116
 42
0.188108
  0
VERTEX
  8
0
 10
138.071261
 20
155.365440
 42
0.024586
  0
VERTEX
  8
0
 10
138.318607
 20
154.612107
 42
-0.030342
  0
VERTEX
  8
0
 10
138.527421
 20
153.950547
 42
-0.132543
  0
VERTEX
  8
0
 10
138.519908
 20
153.543896
 42
-0.339606
  0
VERTEX
  8
0
 10
138.329289
 20
153.403741
 42
-0.133995
  0
VERTEX
  8
0
 10
137.996928
 20
153.501899
 42
0.300704
  0
VERTEX
  8
0
 10
136.863936
 20
153.467184
 42
0.028978
  0
VERTEX
  8
0
 10
134.600381
 20
151.663626
 42
0.029659
  0
VERTEX
  8
0
 10
132.605503
 20
149.650238
 42
0.395614
  0
VERTEX
  8
0
 10
132.635967
 20
148.697367
 42
-0.344826
  0
VERTEX
  8
0
 10
132.666242
 20
148.448966
 42
-0.096750
  0
VERTEX
  8
0
 10
132.385609
 20
148.138976
 42
-0.055664
  0
VERTEX
  8
0
 10
131.826162
 20
147.810472
 42
-0.028109
  0
VERTEX
  8
0
 10
131.060840
 20
147.519310
 42
0.033603
  0
VERTEX
  8
0
 10
130.289396
 20
147.216084
 42
0.058060
  0
VERTEX
  8
0
 10
129.705169
 20
146.851689
 42
0.086184
  0
VERTEX
  8
0
 10
129.382039
 20
146.487096
 42
0.281243
  0
VERTEX
  8
0
 10
129.380519
 20
146.178004
 42
-0.264932
  0
VERTEX
  8
0
 10
129.397222
 20
145.521581
 42
-0.057568
  0
VERTEX
  8
0
 10
128.725263
 20
144.555082
 42
-0.055021
  0
VERTEX
  8
0
 10
127.746176
 20
143.664092
 42
-0.094061
  0
VERTEX
  8
0
 10
126.750000
 20
143.194108
 42
0.119987
  0
VERTEX
  8
0
 10
125.714893
 20
142.639217
 42
0.017991
  0
VERTEX
  8
0
 10
124.003930
 20
140.990419
 42
0.018008
  0
VERTEX
  8
0
 10
122.534237
 20
139.354446
 42
0.636285
  0
VERTEX
  8
0
 10
122.700000
 20
139.000000
 42
-0.325644
  0
VERTEX
  8
0
 10
122.851946
 20
138.889301
 42
-0.178441
  0
VERTEX
  8
0
 10
122.841875
 20
138.647500
 42
-0.070165
  0
VERTEX
  8
0
 10
122.613170
 20
138.261504
 42
-0.027609
  0
VERTEX
  8
0
 10
122.200000
 20
137.800000
 42
0.088574
  0
VERTEX
  8
0
 10
121.175670
 20
136.330379
 42
0.231797
  0
VERTEX
  8
0
 10
121.205137
 20
135.078045
 42
0.176470
  0
VERTEX
  8
0
 10
122.281866
 20
134.090189
 42
0.051944
  0
VERTEX
  8
0
 10
124.464371
 20
133.440706
 42
-0.024680
  0
VERTEX
  8
0
 10
125.856694
 20
133.107651
 42
-0.026505
  0
VERTEX
  8
0
 10
127.175880
 20
132.645241
 42
-0.027329
  0
VERTEX
  8
0
 10
128.256827
 20
132.130016
 42
-0.101495
  0
VERTEX
  8
0
 10
128.830176
 20
131.645393
 42
-0.090822
  0
VERTEX
  8
0
 10
129.662508
 20
130.068342
 42
-0.037651
  0
VERTEX
  8
0
 10
130.212266
 20
127.711980
 42
-0.034980
  0
VERTEX
  8
0
 10
130.395052
 20
125.541290
 42
-0.418342
  0
VERTEX
  8
0
 10
129.861328
 20
125.000000
 42
0.201900
  0
VERTEX
  8
0
 10
129.532179
 20
124.861442
 42
0.084485
  0
VERTEX
  8
0
 10
129.253015
 20
124.458028
 42
0.064584
  0
VERTEX
  8
0
 10
129.063305
 20
123.861237
 42
0.044728
  0
VERTEX
  8
0
 10
129.000000
 20
123.154988
 42
-0.084684
  0
VERTEX
  8
0
 10
128.857209
 20
122.317947
 42
-0.040713
  0
VERTEX
  8
0
 10
128.412500
 20
121.320267
 42
-0.038833
  0
VERTEX
  8
0
 10
127.765311
 20
120.328807
 42
-0.044853
  0
VERTEX
  8
0
 10
127.000000
 20
119.500000
 42
0.029813
  0
VERTEX
  8
0
 10
126.234576
 20
118.719467
 42
0.032091
  0
VERTEX
  8
0
 10
125.587500
 20
117.871554
 42
0.033918
  0
VERTEX
  8
0
 10
125.133456
 20
117.078345
 42
0.113503
  0
VERTEX
  8
0
 10
125.000000
 20
116.498022
 42
-0.104121
  0
VERTEX
  8
0
 10
124.871885
 20
115.889471
 42
-0.026106
  0
VERTEX
  8
0
 10
124.412500
 20
114.978777
 42
-0.025521
  0
VERTEX
  8
0
 10
123.765526
 20
113.970342
 42
-0.023254
  0
VERTEX
  8
0
 10
123.000000
 20
113.000000
 42
0.024823
  0
VERTEX
  8
0
 10
121.817493
 20
111.491404
 42
0.057977
  0
VERTEX
  8
0
 10
121.131617
 20
110.233982
 42
0.072537
  0
VERTEX
  8
0
 10
120.841108
 20
109.040169
 42
0.062704
  0
VERTEX
  8
0
 10
120.881579
 20
107.750000
 42
-0.127241
  0
VERTEX
  8
0
 10
120.853916
 20
107.464284
 42
-0.119760
  0
VERTEX
  8
0
 10
120.691259
 20
107.220313
 42
-0.105541
  0
VERTEX
  8
0
 10
120.414629
 20
107.056710
 42
-0.081121
  0
VERTEX
  8
0
 10
120.067388
 20
107.000000
 42
0.246422
  0
VERTEX
  8
0
 10
119.415706
 20
106.658059
 42
0.038818
  0
VERTEX
  8
0
 10
118.663627
 20
105.364896
 42
0.035978
  0
VERTEX
  8
0
 10
117.957205
 20
103.581997
 42
0.025557
  0
VERTEX
  8
0
 10
117.416221
 20
101.500000
 42
-0.001329
  0
VERTEX
  8
0
 10
117.321205
 20
101.044780
 42
-0.000778
  0
VERTEX
  8
0
 10
117.205097
 20
100.500000
 42
-0.000778
  0
VERTEX
  8
0
 10
117.087221
 20
99.955240
 42
-0.001322
  0
VERTEX
  8
0
 10
116.986712
 20
99.500000
 42
0.055801
  0
VERTEX
  8
0
 10
116.814054
 20
97.914201
 42
0.148840
  0
VERTEX
  8
0
 10
117.145189
 20
96.838192
 42
0.168919
  0
VERTEX
  8
0
 10
117.982714
 20
96.211931
 42
0.076997
  0
VERTEX
  8
0
 10
119.350777
 20
96.000000
 42
-0.053932
  0
VERTEX
  8
0
 10
122.432842
 20
95.666589
 42
-0.060133
  0
VERTEX
  8
0
 10
125.254457
 20
94.682306
 42
-0.069225
  0
VERTEX
  8
0
 10
127.383182
 20
93.244677
 42
-0.149262
  0
VERTEX
  8
0
 10
128.393741
 20
91.567346
 42
-0.106155
  0
VERTEX
  8
0
 10
128.479907
 20
89.062516
 42
-0.016936
  0
VERTEX
  8
0
 10
127.446786
 20
84.239114
 42
-0.013788
  0
VERTEX
  8
0
 10
126.110483
 20
79.456221
 42
-0.176797
  0
VERTEX
  8
0
 10
125.003465
 20
78.000000
 42
0.147547
  0
VERTEX
  8
0
 10
123.992500
 20
76.816636
 42
0.005184
  0
VERTEX
  8
0
 10
121.600728
 20
71.216595
 42
0.007018
  0
VERTEX
  8
0
 10
119.399413
 20
65.693090
 42
0.091556
  0
VERTEX
  8
0
 10
119.000000
 20
63.530132
 42
-0.055236
  0
VERTEX
  8
0
 10
118.935140
 20
62.944804
 42
-0.074824
  0
VERTEX
  8
0
 10
118.742969
 20
62.449476
 42
-0.094281
  0
VERTEX
  8
0
 10
118.458841
 20
62.117214
 42
-0.170454
  0
VERTEX
  8
0
 10
118.125000
 20
62.000000
 42
0.314582
  0
VERTEX
  8
0
 10
117.496428
 20
61.561090
 42
0.017024
  0
VERTEX
  8
0
 10
116.698692
 20
59.134592
 42
0.019374
  0
VERTEX
  8
0
 10
116.080402
 20
56.659975
 42
0.200274
  0
VERTEX
  8
0
 10
116.274038
 20
55.648887
 42
-0.255169
  0
VERTEX
  8
0
 10
116.292556
 20
55.431210
 42
-0.024924
  0
VERTEX
  8
0
 10
116.047668
 20
54.942657
 42
-0.026719
  0
VERTEX
  8
0
 10
115.673126
 20
54.355624
 42
-0.017849
  0
VERTEX
  8
0
 10
115.186109
 20
53.724248
 42
0.096794
  0
VERTEX
  8
0
 10
114.117527
 20
51.766995
 42
0.047116
  0
VERTEX
  8
0
 10
113.514374
 20
48.972636
 42
0.046454
  0
VERTEX
  8
0
 10
113.438854
 20
46.021145
 42
0.074151
  0
VERTEX
  8
0
 10
113.976877
 20
43.560817
 42
0.089659
  0
VERTEX
  8
0
 10
114.728017
 20
42.313846
 42
0.109769
  0
VERTEX
  8
0
 10
115.824028
 20
41.512826
 42
0.061846
  0
VERTEX
  8
0
 10
117.632767
 20
40.975172
 42
0.012464
  0
VERTEX
  8
0
 10
120.961749
 20
40.504439
 42
-0.013189
  0
VERTEX
  8
0
 10
124.409187
 20
40.011859
 42
-0.067070
  0
VERTEX
  8
0
 10
126.256076
 20
39.436015
 42
-0.105631
  0
VERTEX
  8
0
 10
127.467055
 20
38.521788
 42
-0.059170
  0
VERTEX
  8
0
 10
128.506334
 20
36.987752
 42
-0.085985
  0
VERTEX
  8
0
 10
129.326480
 20
34.389013
 42
-0.031789
  0
VERTEX
  8
0
 10
129.598284
 20
30.545313
 42
-0.030299
  0
VERTEX
  8
0
 10
129.366165
 20
26.213893
 42
-0.031516
  0
VERTEX
  8
0
 10
128.611858
 20
22.000000
 42
0.017651
  0
VERTEX
  8
0
 10
128.348751
 20
20.733579
 42
0.006326
  0
VERTEX
  8
0
 10
128.060668
 20
18.912500
 42
0.006266
  0
VERTEX
  8
0
 10
127.794872
 20
16.906148
 42
0.007377
  0
VERTEX
  8
0
 10
127.595098
 20
15.000000
 42
-0.004325
  0
VERTEX
  8
0
 10
127.386599
 20
12.886212
 42
-0.002161
  0
VERTEX
  8
0
 10
127.088141
 20
10.215531
 42
-0.002145
  0
VERTEX
  8
0
 10
126.755346
 20
7.453345
 42
-0.003164
  0
VERTEX
  8
0
 10
126.437446
 20
5.031593
 42
0.000000
  0
VERTEX
  8
0
 10
125.684393
 20
-0.436813
 42
0.000000
  0
VERTEX
  8
0
 10
128.092197
 20
1.117787
 42
0.000114
  0
VERTEX
  8
0
 10
129.224965
 20
1.849528
 42
0.000057
  0
VERTEX
  8
0
 10
130.659782
 20
2.777080
 42
0.000057
  0
VERTEX
  8
0
 10
132.146053
 20
3.738375
 42
0.000083
  0
VERTEX
  8
0
 10
133.451741
 20
4.583390
 42
0.012466
  0
VERTEX
  8
0
 10
134.735854
 20
5.460930
 42
0.008440
  0
VERTEX
  8
0
 10
136.156272
 20
6.521359
 42
0.008507
  0
VERTEX
  8
0
 10
137.494762
 20
7.593137
 42
0.016776
  0
VERTEX
  8
0
 10
138.513655
 20
8.497196
 42
-0.010051
  0
VERTEX
  8
0
 10
142.892647
 20
12.489178
 42
-0.005819
  0
VERTEX
  8
0
 10
148.306946
 20
17.119069
 42
-0.004770
  0
VERTEX
  8
0
 10
153.474861
 20
21.352150
 42
-0.032320
  0
VERTEX
  8
0
 10
156.178004
 20
23.250000
 42
-0.055790
  0
VERTEX
  8
0
 10
159.164202
 20
24.641444
 42
-0.111049
  0
VERTEX
  8
0
 10
161.745756
 20
24.909305
 42
-0.125850
  0
VERTEX
  8
0
 10
163.979578
 20
24.047550
 42
-0.083557
  0
VERTEX
  8
0
 10
165.931906
 20
22.095630
 42
-0.026226
  0
VERTEX
  8
0
 10
166.725069
 20
20.848145
 42
-0.024850
  0
VERTEX
  8
0
 10
167.398949
 20
19.502264
 42
-0.025672
  0
VERTEX
  8
0
 10
167.873832
 20
18.252712
 42
-0.075129
  0
VERTEX
  8
0
 10
168.021962
 20
17.345630
 42
0.059724
  0
VERTEX
  8
0
 10
168.151372
 20
16.364973
 42
0.014707
  0
VERTEX
  8
0
 10
168.601092
 20
14.800568
 42
0.014845
  0
VERTEX
  8
0
 10
169.226553
 20
13.026895
 42
0.014357
  0
VERTEX
  8
0
 10
169.962627
 20
11.273325
 42
0.000000
  0
VERTEX
  8
0
 10
171.881330
 20
7.046651
 42
0.000000
  0
VERTEX
  8
0
 10
175.076326
 20
8.390046
 42
0.033649
  0
VERTEX
  8
0
 10
176.376566
 20
9.042853
 42
0.029317
  0
VERTEX
  8
0
 10
177.641582
 20
9.892032
 42
0.030438
  0
VERTEX
  8
0
 10
178.695669
 20
10.799263
 42
0.072672
  0
VERTEX
  8
0
 10
179.322524
 20
11.616720
 42
-0.039605
  0
VERTEX
  8
0
 10
179.918172
 20
12.509681
 42
-0.014558
  0
VERTEX
  8
0
 10
180.891295
 20
13.673138
 42
-0.014325
  0
VERTEX
  8
0
 10
182.032755
 20
14.887870
 42
-0.016692
  0
VERTEX
  8
0
 10
183.186863
 20
15.972684
 42
0.013296
  0
VERTEX
  8
0
 10
184.264395
 20
16.971828
 42
0.018319
  0
VERTEX
  8
0
 10
185.173641
 20
17.928665
 42
0.015131
  0
VERTEX
  8
0
 10
185.861787
 20
18.757353
 42
0.167220
  0
VERTEX
  8
0
 10
186.000000
 20
19.159063
 42
-0.174160
  0
VERTEX
  8
0
 10
186.292834
 20
19.974267
 42
-0.004039
  0
VERTEX
  8
0
 10
188.962366
 20
23.157841
 42
-0.008015
  0
VERTEX
  8
0
 10
192.351602
 20
27.007281
 42
-0.004302
  0
VERTEX
  8
0
 10
196.650000
 20
31.653403
 42
-0.062505
  0
VERTEX
  8
0
 10
199.403997
 20
33.930099
 42
-0.112645
  0
VERTEX
  8
0
 10
202.150189
 20
34.906516
 42
-0.110164
  0
VERTEX
  8
0
 10
205.090960
 20
34.604999
 42
-0.058055
  0
VERTEX
  8
0
 10
208.432795
 20
33.041535
 42
0.068990
  0
VERTEX
  8
0
 10
210.833908
 20
31.981298
 42
0.073628
  0
VERTEX
  8
0
 10
213.379377
 20
31.645761
 42
0.102015
  0
VERTEX
  8
0
 10
215.295432
 20
32.072733
 42
0.295206
  0
VERTEX
  8
0
 10
216.000000
 20
33.162086
 42
-0.137858
  0
VERTEX
  8
0
 10
216.141460
 20
33.665401
 42
-0.020450
  0
VERTEX
  8
0
 10
216.733052
 20
34.551119
 42
-0.021739
  0
VERTEX
  8
0
 10
217.539959
 20
35.562870
 42
-0.017174
  0
VERTEX
  8
0
 10
218.495496
 20
36.586406
 42
0.039240
  0
VERTEX
  8
0
 10
220.382534
 20
38.795391
 42
0.022409
  0
VERTEX
  8
0
 10
222.317642
 20
41.725220
 42
0.016263
  0
VERTEX
  8
0
 10
223.844782
 20
44.478745
 42
0.560886
  0
VERTEX
  8
0
 10
223.526294
 20
45.000000
 42
-0.557232
  0
VERTEX
  8
0
 10
223.238936
 20
45.464471
 42
-0.002051
  0
VERTEX
  8
0
 10
226.701483
 20
52.334982
 42
-0.005988
  0
VERTEX
  8
0
 10
230.027801
 20
58.679272
 42
-0.054343
  0
VERTEX
  8
0
 10
231.799600
 20
61.250000
 42
-0.120685
  0
VERTEX
  8
0
 10
233.880592
 20
62.731101
 42
-0.143793
  0
VERTEX
  8
0
 10
236.270913
 20
62.953365
 42
-0.123853
  0
VERTEX
  8
0
 10
238.670963
 20
61.825342
 42
-0.077705
  0
VERTEX
  8
0
 10
240.750000
 20
59.501646
 42
-0.009613
  0
VERTEX
  8
0
 10
241.611731
 20
58.113511
 42
-0.012726
  0
VERTEX
  8
0
 10
242.339063
 20
56.815909
 42
-0.010117
  0
VERTEX
  8
0
 10
242.891841
 20
55.714629
 42
-0.111703
  0
VERTEX
  8
0
 10
243.000000
 20
55.236531
 42
0.103204
  0
VERTEX
  8
0
 10
243.091542
 20
54.797756
 42
0.016914
  0
VERTEX
  8
0
 10
243.467090
 20
54.010656
 42
0.017993
  0
VERTEX
  8
0
 10
243.981309
 20
53.102029
 42
0.015011
  0
VERTEX
  8
0
 10
244.590095
 20
52.174834
 42
0.110434
  0
VERTEX
  8
0
 10
246.025018
 20
50.865129
 42
0.291328
  0
VERTEX
  8
0
 10
247.354645
 20
50.927847
 42
0.134937
  0
VERTEX
  8
0
 10
248.642974
 20
52.493778
 42
0.025359
  0
VERTEX
  8
0
 10
249.995276
 20
55.985687
 42
-0.015805
  0
VERTEX
  8
0
 10
250.557431
 20
57.523892
 42
-0.023840
  0
VERTEX
  8
0
 10
251.151687
 20
58.820795
 42
-0.020669
  0
VERTEX
  8
0
 10
251.710827
 20
59.800385
 42
-0.258220
  0
VERTEX
  8
0
 10
252.071576
 20
60.000000
 42
0.238541
  0
VERTEX
  8
0
 10
252.336593
 20
60.134063
 42
0.093427
  0
VERTEX
  8
0
 10
252.519134
 20
60.514063
 42
0.065350
  0
VERTEX
  8
0
 10
252.593649
 20
61.079651
 42
0.040236
  0
VERTEX
  8
0
 10
252.539941
 20
61.750000
 42
-0.055286
  0
VERTEX
  8
0
 10
252.502044
 20
62.508569
 42
-0.040974
  0
VERTEX
  8
0
 10
252.621322
 20
63.340257
 42
-0.041775
  0
VERTEX
  8
0
 10
252.868234
 20
64.116808
 42
-0.070037
  0
VERTEX
  8
0
 10
253.214515
 20
64.706195
 42
0.060879
  0
VERTEX
  8
0
 10
253.538616
 20
65.235488
 42
0.061182
  0
VERTEX
  8
0
 10
253.725043
 20
65.826378
 42
0.067163
  0
VERTEX
  8
0
 10
253.752693
 20
66.387010
 42
0.117722
  0
VERTEX
  8
0
 10
253.607676
 20
66.825777
 42
-0.292721
  0
VERTEX
  8
0
 10
253.630110
 20
68.231652
 42
-0.047586
  0
VERTEX
  8
0
 10
255.431126
 20
70.456134
 42
-0.048047
  0
VERTEX
  8
0
 10
257.748676
 20
72.404567
 42
-0.151919
  0
VERTEX
  8
0
 10
259.663148
 20
73.000000
 42
-0.179091
  0
VERTEX
  8
0
 10
261.672048
 20
72.256605
 42
-0.038872
  0
VERTEX
  8
0
 10
264.328057
 20
69.594448
 42
-0.037198
  0
VERTEX
  8
0
 10
266.492878
 20
66.638857
 42
-0.285224
  0
VERTEX
  8
0
 10
266.496363
 20
64.994115
 42
0.067933
  0
VERTEX
  8
0
 10
266.327371
 20
64.613569
 42
0.141681
  0
VERTEX
  8
0
 10
266.327123
 20
64.292021
 42
0.190631
  0
VERTEX
  8
0
 10
266.490489
 20
64.080419
 42
0.134960
  0
VERTEX
  8
0
 10
266.782997
 20
64.000000
 42
-0.267646
  0
VERTEX
  8
0
 10
267.245170
 20
63.733513
 42
-0.010754
  0
VERTEX
  8
0
 10
268.215334
 20
61.971170
 42
-0.016382
  0
VERTEX
  8
0
 10
269.290057
 20
59.740384
 42
-0.010579
  0
VERTEX
  8
0
 10
270.393760
 20
57.093345
 42
0.017558
  0
VERTEX
  8
0
 10
272.416251
 20
52.427167
 42
0.035410
  0
VERTEX
  8
0
 10
274.389336
 20
48.939952
 42
0.044756
  0
VERTEX
  8
0
 10
276.220057
 20
46.653424
 42
0.204325
  0
VERTEX
  8
0
 10
277.752285
 20
46.000000
 42
0.163585
  0
VERTEX
  8
0
 10
278.257159
 20
46.169722
 42
0.031622
  0
VERTEX
  8
0
 10
278.996807
 20
46.807813
 42
0.030617
  0
VERTEX
  8
0
 10
279.799967
 20
47.697120
 42
0.024091
  0
VERTEX
  8
0
 10
280.559851
 20
48.750000
 42
-0.029845
  0
VERTEX
  8
0
 10
282.274048
 20
51.068501
 42
-0.056263
  0
VERTEX
  8
0
 10
283.955323
 20
52.673080
 42
-0.070423
  0
VERTEX
  8
0
 10
285.657312
 20
53.622955
 42
-0.088212
  0
VERTEX
  8
0
 10
287.428995
 20
53.968197
 42
-0.174433
  0
VERTEX
  8
0
 10
289.315201
 20
53.324428
 42
-0.024713
  0
VERTEX
  8
0
 10
292.436358
 20
50.566381
 42
-0.028980
  0
VERTEX
  8
0
 10
295.391714
 20
47.327909
 42
-0.065101
  0
VERTEX
  8
0
 10
297.132370
 20
44.500000
 42
0.014567
  0
VERTEX
  8
0
 10
297.604253
 20
43.525298
 42
0.005687
  0
VERTEX
  8
0
 10
298.310153
 20
42.206250
 42
0.005624
  0
VERTEX
  8
0
 10
299.106915
 20
40.795103
 42
0.006960
  0
VERTEX
  8
0
 10
299.881770
 20
39.500000
 42
-0.019989
  0
VERTEX
  8
0
 10
300.560012
 20
38.296278
 42
-0.027439
  0
VERTEX
  8
0
 10
301.064679
 20
37.160938
 42
-0.026703
  0
VERTEX
  8
0
 10
301.368390
 20
36.212871
 42
-0.195724
  0
VERTEX
  8
0
 10
301.307906
 20
35.750000
 42
0.136059
  0
VERTEX
  8
0
 10
301.236360
 20
35.465100
 42
0.182188
  0
VERTEX
  8
0
 10
301.335508
 20
35.220313
 42
0.137858
  0
VERTEX
  8
0
 10
301.603618
 20
35.055364
 42
0.069500
  0
VERTEX
  8
0
 10
302.000000
 20
35.000000
 42
-0.101261
  0
VERTEX
  8
0
 10
302.378351
 20
34.922582
 42
-0.177706
  0
VERTEX
  8
0
 10
302.608064
 20
34.706250
 42
-0.167455
  0
VERTEX
  8
0
 10
302.651081
 20
34.381806
 42
-0.088621
  0
VERTEX
  8
0
 10
302.500000
 20
34.000000
 42
0.085096
  0
VERTEX
  8
0
 10
302.345752
 20
33.618022
 42
0.163912
  0
VERTEX
  8
0
 10
302.381870
 20
33.293750
 42
0.180437
  0
VERTEX
  8
0
 10
302.600968
 20
33.077913
 42
0.105607
  0
VERTEX
  8
0
 10
302.965734
 20
33.000000
 42
-0.163868
  0
VERTEX
  8
0
 10
303.443347
 20
32.839149
 42
-0.054098
  0
VERTEX
  8
0
 10
303.988386
 20
32.323405
 42
-0.047070
  0
VERTEX
  8
0
 10
304.510186
 20
31.578166
 42
-0.038382
  0
VERTEX
  8
0
 10
304.925216
 20
30.696697
 42
0.071349
  0
VERTEX
  8
0
 10
306.985681
 20
26.976290
 42
0.023040
  0
VERTEX
  8
0
 10
311.026489
 20
22.123055
 42
0.015434
  0
VERTEX
  8
0
 10
315.362045
 20
17.662990
 42
0.279570
  0
VERTEX
  8
0
 10
317.221325
 20
17.240442
 42
0.115393
  0
VERTEX
  8
0
 10
317.860751
 20
17.633816
 42
0.014553
  0
VERTEX
  8
0
 10
318.986696
 20
18.817500
 42
0.016464
  0
VERTEX
  8
0
 10
320.255169
 20
20.328458
 42
0.012990
  0
VERTEX
  8
0
 10
321.529551
 20
22.041968
 42
-0.027242
  0
VERTEX
  8
0
 10
322.894162
 20
23.771626
 42
-0.027652
  0
VERTEX
  8
0
 10
324.432325
 20
25.333569
 42
-0.028758
  0
VERTEX
  8
0
 10
325.916899
 20
26.534768
 42
-0.092477
  0
VERTEX
  8
0
 10
327.063034
 20
27.072034
 42
-0.139030
  0
VERTEX
  8
0
 10
329.909419
 20
27.008353
 42
-0.053708
  0
VERTEX
  8
0
 10
333.570067
 20
25.434832
 42
-0.040872
  0
VERTEX
  8
0
 10
337.905995
 20
22.500309
 42
-0.020696
  0
VERTEX
  8
0
 10
342.874751
 20
18.159363
 42
0.022634
  0
VERTEX
  8
0
 10
347.385520
 20
14.249245
 42
0.033235
  0
VERTEX
  8
0
 10
351.708454
 20
11.275968
 42
0.036224
  0
VERTEX
  8
0
 10
355.396495
 20
9.432061
 42
0.191701
  0
VERTEX
  8
0
 10
357.611960
 20
9.404589
 42
0.105689
  0
VERTEX
  8
0
 10
358.227073
 20
9.804963
 42
0.037872
  0
VERTEX
  8
0
 10
358.910592
 20
10.604242
 42
0.035527
  0
VERTEX
  8
0
 10
359.549797
 20
11.622080
 42
0.035081
  0
VERTEX
  8
0
 10
360.041522
 20
12.724374
 42
-0.021383
  0
VERTEX
  8
0
 10
361.625636
 20
16.553879
 42
-0.036361
  0
VERTEX
  8
0
 10
363.309728
 20
19.581118
 42
-0.044271
  0
VERTEX
  8
0
 10
364.980997
 20
21.695613
 42
-0.142809
  0
VERTEX
  8
0
 10
366.511615
 20
22.591936
 42
-0.120347
  0
VERTEX
  8
0
 10
368.605214
 20
22.605584
 42
-0.027039
  0
VERTEX
  8
0
 10
372.050049
 20
21.588515
 42
-0.021645
  0
VERTEX
  8
0
 10
375.332982
 20
20.260355
 42
-0.293811
  0
VERTEX
  8
0
 10
376.000000
 20
19.223231
 42
0.324163
  0
VERTEX
  8
0
 10
376.410495
 20
18.656603
 42
0.007106
  0
VERTEX
  8
0
 10
379.839376
 20
17.585822
 42
0.013562
  0
VERTEX
  8
0
 10
384.026290
 20
16.465952
 42
0.008751
  0
VERTEX
  8
0
 10
388.929927
 20
15.386244
 42
-0.010517
  0
VERTEX
  8
0
 10
389.912042
 20
15.166358
 42
-0.011547
  0
VERTEX
  8
0
 10
390.853676
 20
14.911437
 42
-0.011024
  0
VERTEX
  8
0
 10
391.646786
 20
14.657798
 42
-0.055557
  0
VERTEX
  8
0
 10
392.066621
 20
14.458826
 42
0.317277
  0
VERTEX
  8
0
 10
393.054112
 20
14.519026
 42
0.099010
  0
VERTEX
  8
0
 10
394.062461
 20
15.720879
 42
0.066175
  0
VERTEX
  8
0
 10
394.850323
 20
17.761018
 42
0.049742
  0
VERTEX
  8
0
 10
395.179211
 20
20.147008
 42
0.044977
  0
VERTEX
  8
0
 10
395.013681
 20
23.308076
 42
0.013084
  0
VERTEX
  8
0
 10
394.195605
 20
28.120678
 42
0.013582
  0
VERTEX
  8
0
 10
393.098347
 20
32.988508
 42
0.032695
  0
VERTEX
  8
0
 10
391.957102
 20
36.500000
 42
-0.016125
  0
VERTEX
  8
0
 10
390.361461
 20
40.907442
 42
-0.014557
  0
VERTEX
  8
0
 10
388.993175
 20
45.560597
 42
-0.015034
  0
VERTEX
  8
0
 10
387.950763
 20
50.077381
 42
-0.022797
  0
VERTEX
  8
0
 10
387.343784
 20
54.062148
 42
-0.046511
  0
VERTEX
  8
0
 10
387.285456
 20
58.682664
 42
-0.082512
  0
VERTEX
  8
0
 10
388.206773
 20
62.367885
 42
-0.098521
  0
VERTEX
  8
0
 10
390.112183
 20
65.117231
 42
-0.094189
  0
VERTEX
  8
0
 10
392.952842
 20
66.980466
 42
0.074284
  0
VERTEX
  8
0
 10
394.714346
 20
68.038748
 42
0.111107
  0
VERTEX
  8
0
 10
395.811202
 20
69.451453
 42
0.104700
  0
VERTEX
  8
0
 10
396.235845
 20
71.262999
 42
0.060461
  0
VERTEX
  8
0
 10
396.013288
 20
73.500000
 42
-0.003803
  0
VERTEX
  8
0
 10
395.915142
 20
73.955260
 42
-0.002249
  0
VERTEX
  8
0
 10
395.804587
 20
74.500000
 42
-0.002249
  0
VERTEX
  8
0
 10
395.699116
 20
75.044795
 42
-0.003861
  0
VERTEX
  8
0
 10
395.616746
 20
75.500000
 42
0.039901
  0
VERTEX
  8
0
 10
395.495839
 20
75.971444
 42
0.017544
  0
VERTEX
  8
0
 10
395.265186
 20
76.573437
 42
0.017233
  0
VERTEX
  8
0
 10
394.974542
 20
77.198179
 42
0.022127
  0
VERTEX
  8
0
 10
394.662863
 20
77.750000
 42
-0.037468
  0
VERTEX
  8
0
 10
394.410949
 20
78.229780
 42
-0.081003
  0
VERTEX
  8
0
 10
394.309350
 20
78.632812
 42
-0.155531
  0
VERTEX
  8
0
 10
394.368370
 20
78.892711
 42
-0.265728
  0
VERTEX
  8
0
 10
394.555993
 20
79.000000
 42
0.437003
  0
VERTEX
  8
0
 10
394.707900
 20
79.164107
 42
0.064498
  0
VERTEX
  8
0
 10
394.604083
 20
79.660938
 42
0.040004
  0
VERTEX
  8
0
 10
394.284693
 20
80.386292
 42
0.019967
  0
VERTEX
  8
0
 10
393.773198
 20
81.250000
 42
-0.027202
  0
VERTEX
  8
0
 10
393.165926
 20
82.310108
 42
-0.015605
  0
VERTEX
  8
0
 10
392.545378
 20
83.646875
 42
-0.015558
  0
VERTEX
  8
0
 10
392.003928
 20
85.033426
 42
-0.024934
  0
VERTEX
  8
0
 10
391.639136
 20
86.250000
 42
0.031621
  0
VERTEX
  8
0
 10
391.307997
 20
87.302979
 42
0.043703
  0
VERTEX
  8
0
 10
390.872682
 20
88.192188
 42
0.051088
  0
VERTEX
  8
0
 10
390.404481
 20
88.814907
 42
0.208968
  0
VERTEX
  8
0
 10
389.980948
 20
89.000000
 42
-0.142968
  0
VERTEX
  8
0
 10
389.606872
 20
89.109193
 42
-0.099614
  0
VERTEX
  8
0
 10
389.288153
 20
89.416146
 42
-0.084226
  0
VERTEX
  8
0
 10
389.073419
 20
89.875155
 42
-0.067482
  0
VERTEX
  8
0
 10
389.000000
 20
90.416667
 42
0.048968
  0
VERTEX
  8
0
 10
388.944374
 20
90.983289
 42
0.052342
  0
VERTEX
  8
0
 10
388.779688
 20
91.515104
 42
0.058488
  0
VERTEX
  8
0
 10
388.537453
 20
91.936478
 42
0.129210
  0
VERTEX
  8
0
 10
388.250000
 20
92.166667
 42
-0.158266
  0
VERTEX
  8
0
 10
387.284865
 20
93.034130
 42
-0.014253
  0
VERTEX
  8
0
 10
385.717463
 20
95.929245
 42
-0.017012
  0
VERTEX
  8
0
 10
384.339505
 20
98.904787
 42
-0.100251
  0
VERTEX
  8
0
 10
384.000000
 20
100.581040
 42
0.050880
  0
VERTEX
  8
0
 10
383.944600
 20
101.124049
 42
0.070781
  0
VERTEX
  8
0
 10
383.779688
 20
101.583417
 42
0.090816
  0
VERTEX
  8
0
 10
383.536290
 20
101.892455
 42
0.182346
  0
VERTEX
  8
0
 10
383.250000
 20
102.000804
 42
-0.384996
  0
VERTEX
  8
0
 10
382.457907
 20
102.718385
 42
-0.019607
  0
VERTEX
  8
0
 10
382.229861
 20
106.483427
 42
-0.020800
  0
VERTEX
  8
0
 10
382.307243
 20
110.293567
 42
-0.243478
  0
VERTEX
  8
0
 10
383.047141
 20
111.529135
 42
-0.097420
  0
VERTEX
  8
0
 10
383.796284
 20
111.810555
 42
-0.010366
  0
VERTEX
  8
0
 10
385.647547
 20
112.079727
 42
-0.012471
  0
VERTEX
  8
0
 10
387.888070
 20
112.301621
 42
-0.009717
  0
VERTEX
  8
0
 10
390.331798
 20
112.434546
 42
0.011634
  0
VERTEX
  8
0
 10
393.406926
 20
112.613642
 42
0.047375
  0
VERTEX
  8
0
 10
395.249096
 20
112.941484
 42
0.090960
  0
VERTEX
  8
0
 10
396.317665
 20
113.460592
 42
0.188809
  0
VERTEX
  8
0
 10
396.805368
 20
114.231738
 42
0.066426
  0
VERTEX
  8
0
 10
396.843343
 20
114.885182
 42
0.062402
  0
VERTEX
  8
0
 10
396.711020
 20
115.540476
 42
0.066807
  0
VERTEX
  8
0
 10
396.436296
 20
116.098747
 42
0.107031
  0
VERTEX
  8
0
 10
396.055368
 20
116.465780
 42
-0.086438
  0
VERTEX
  8
0
 10
395.651376
 20
116.824437
 42
-0.053380
  0
VERTEX
  8
0
 10
395.310014
 20
117.362121
 42
-0.051584
  0
VERTEX
  8
0
 10
395.078262
 20
117.985502
 42
-0.063299
  0
VERTEX
  8
0
 10
395.000000
 20
118.601223
 42
0.085318
  0
VERTEX
  8
0
 10
394.816126
 20
119.670954
 42
0.057997
  0
VERTEX
  8
0
 10
394.270592
 20
120.782325
 42
0.033042
  0
VERTEX
  8
0
 10
393.199948
 20
122.225617
 42
0.007381
  0
VERTEX
  8
0
 10
391.178571
 20
124.534704
 42
-0.019982
  0
VERTEX
  8
0
 10
390.710290
 20
125.097646
 42
-0.044007
  0
VERTEX
  8
0
 10
390.410496
 20
125.569569
 42
-0.088595
  0
VERTEX
  8
0
 10
390.313914
 20
125.880407
 42
-0.451176
  0
VERTEX
  8
0
 10
390.419470
 20
126.000000
 42
0.620052
  0
VERTEX
  8
0
 10
390.490605
 20
126.143314
 42
0.015086
  0
VERTEX
  8
0
 10
389.894470
 20
126.881250
 42
0.016190
  0
VERTEX
  8
0
 10
389.007632
 20
127.848507
 42
0.008411
  0
VERTEX
  8
0
 10
387.842584
 20
129.000000
 42
-0.008362
  0
VERTEX
  8
0
 10
386.677319
 20
130.151486
 42
-0.016084
  0
VERTEX
  8
0
 10
385.789756
 20
131.118750
 42
-0.014892
  0
VERTEX
  8
0
 10
385.191827
 20
131.857389
 42
-0.620533
  0
VERTEX
  8
0
 10
385.262490
 20
132.000000
 42
0.623512
  0
VERTEX
  8
0
 10
385.339295
 20
132.156697
 42
0.006339
  0
VERTEX
  8
0
 10
384.353971
 20
133.395313
 42
0.010767
  0
VERTEX
  8
0
 10
383.047077
 20
134.927522
 42
0.005904
  0
VERTEX
  8
0
 10
381.384517
 20
136.750000
 42
-0.000059
  0
VERTEX
  8
0
 10
379.577706
 20
138.684689
 42
-0.000064
  0
VERTEX
  8
0
 10
377.817919
 20
140.569955
 42
-0.000060
  0
VERTEX
  8
0
 10
376.309122
 20
142.187138
 42
-0.000310
  0
VERTEX
  8
0
 10
375.473714
 20
143.083888
 42
-0.034373
  0
VERTEX
  8
0
 10
374.909737
 20
143.780366
 42
-0.032206
  0
VERTEX
  8
0
 10
374.432903
 20
144.562390
 42
-0.033815
  0
VERTEX
  8
0
 10
374.102072
 20
145.312139
 42
-0.087209
  0
VERTEX
  8
0
 10
374.000000
 20
145.892905
 42
0.087895
  0
VERTEX
  8
0
 10
373.925303
 20
146.314544
 42
0.166751
  0
VERTEX
  8
0
 10
373.710673
 20
146.579339
 42
0.178277
  0
VERTEX
  8
0
 10
373.390482
 20
146.646363
 42
0.102121
  0
VERTEX
  8
0
 10
373.015058
 20
146.509306
 42
-0.591674
  0
VERTEX
  8
0
 10
372.335634
 20
146.893798
 42
-0.058763
  0
VERTEX
  8
0
 10
372.644706
 20
149.255690
 42
-0.038188
  0
VERTEX
  8
0
 10
373.647787
 20
152.244030
 42
-0.111590
  0
VERTEX
  8
0
 10
374.907884
 20
154.000000
 42
0.032920
  0
VERTEX
  8
0
 10
375.605734
 20
154.706993
 42
0.022456
  0
VERTEX
  8
0
 10
376.305586
 20
155.593692
 42
0.022689
  0
VERTEX
  8
0
 10
376.905744
 20
156.513950
 42
0.041739
  0
VERTEX
  8
0
 10
377.293704
 20
157.318951
 42
-0.070661
  0
VERTEX
  8
0
 10
377.726572
 20
158.098751
 42
-0.126524
  0
VERTEX
  8
0
 10
378.296772
 20
158.551653
 42
-0.120952
  0
VERTEX
  8
0
 10
379.033908
 20
158.684877
 42
-0.061427
  0
VERTEX
  8
0
 10
379.965934
 20
158.510812
 42
0.022562
  0
VERTEX
  8
0
 10
381.142681
 20
158.194979
 42
0.410388
  0
VERTEX
  8
0
 10
381.441574
 20
158.383103
 42
0.173124
  0
VERTEX
  8
0
 10
381.383096
 20
158.899912
 42
0.006312
  0
VERTEX
  8
0
 10
380.477020
 20
160.691861
 42
-0.043242
  0
VERTEX
  8
0
 10
379.209438
 20
163.737918
 42
-0.117711
  0
VERTEX
  8
0
 10
379.038874
 20
166.052213
 42
-0.176018
  0
VERTEX
  8
0
 10
379.922672
 20
167.635037
 42
-0.127045
  0
VERTEX
  8
0
 10
381.750000
 20
168.541179
 42
-0.002361
  0
VERTEX
  8
0
 10
385.509067
 20
169.314502
 42
-0.026435
  0
VERTEX
  8
0
 10
387.019414
 20
169.535531
 42
-0.093561
  0
VERTEX
  8
0
 10
387.738960
 20
169.467602
 42
-0.334191
  0
VERTEX
  8
0
 10
388.000000
 20
169.120666
 42
0.283826
  0
VERTEX
  8
0
 10
388.270137
 20
168.683118
 42
0.074707
  0
VERTEX
  8
0
 10
389.087765
 20
168.416291
 42
0.024429
  0
VERTEX
  8
0
 10
390.779562
 20
168.216653
 42
0.002244
  0
VERTEX
  8
0
 10
395.000000
 20
167.945652
 42
-0.021767
  0
VERTEX
  8
0
 10
396.425195
 20
167.798103
 42
-0.022636
  0
VERTEX
  8
0
 10
397.813416
 20
167.528308
 42
-0.023056
  0
VERTEX
  8
0
 10
398.986862
 20
167.186656
 42
-0.084975
  0
VERTEX
  8
0
 10
399.662694
 20
166.818354
 42
0.083934
  0
VERTEX
  8
0
 10
400.354638
 20
166.439415
 42
0.020193
  0
VERTEX
  8
0
 10
401.611055
 20
166.060134
 42
0.020172
  0
VERTEX
  8
0
 10
403.108371
 20
165.737144
 42
0.018789
  0
VERTEX
  8
0
 10
404.662694
 20
165.526746
 42
-0.004821
  0
VERTEX
  8
0
 10
406.386097
 20
165.342309
 42
-0.003012
  0
VERTEX
  8
0
 10
408.400916
 20
165.094699
 42
-0.003023
  0
VERTEX
  8
0
 10
410.383529
 20
164.826719
 42
-0.005493
  0
VERTEX
  8
0
 10
412.000000
 20
164.580127
 42
0.013104
  0
VERTEX
  8
0
 10
413.855997
 20
164.325836
 42
0.003673
  0
VERTEX
  8
0
 10
416.768059
 20
164.025974
 42
0.003702
  0
VERTEX
  8
0
 10
420.067402
 20
163.735342
 42
0.003889
  0
VERTEX
  8
0
 10
423.316798
 20
163.498763
 42
0.017653
  0
VERTEX
  8
0
 10
429.307920
 20
163.321387
 42
0.121798
  0
VERTEX
  8
0
 10
432.138391
 20
164.038417
 42
0.274569
  0
VERTEX
  8
0
 10
433.130399
 20
165.677095
 42
0.099440
  0
VERTEX
  8
0
 10
432.596799
 20
168.454654
 42
-0.042202
  0
VERTEX
  8
0
 10
432.179873
 20
169.785133
 42
-0.024014
  0
VERTEX
  8
0
 10
431.892251
 20
171.447742
 42
-0.023841
  0
VERTEX
  8
0
 10
431.762413
 20
173.161752
 42
-0.036054
  0
VERTEX
  8
0
 10
431.828412
 20
174.655940
 42
-0.034541
  0
VERTEX
  8
0
 10
432.150491
 20
176.374399
 42
-0.099175
  0
VERTEX
  8
0
 10
432.678214
 20
177.461227
 42
-0.115673
  0
VERTEX
  8
0
 10
433.529579
 20
178.164949
 42
-0.056662
  0
VERTEX
  8
0
 10
434.860417
 20
178.646548
 42
0.015583
  0
VERTEX
  8
0
 10
435.944316
 20
178.940907
 42
0.015141
  0
VERTEX
  8
0
 10
437.018373
 20
179.304747
 42
0.015231
  0
VERTEX
  8
0
 10
437.942097
 20
179.681600
 42
0.052889
  0
VERTEX
  8
0
 10
438.500000
 20
180.003631
 42
-0.106212
  0
VERTEX
  8
0
 10
439.214947
 20
180.320804
 42
-0.008429
  0
VERTEX
  8
0
 10
441.262500
 20
180.712587
 42
-0.011129
  0
VERTEX
  8
0
 10
443.745963
 20
181.087779
 42
-0.008295
  0
VERTEX
  8
0
 10
446.500000
 20
181.395005
 42
0.022033
  0
VERTEX
  8
0
 10
452.245382
 20
182.196250
 42
0.023040
  0
VERTEX
  8
0
 10
457.811614
 20
183.491898
 42
0.022983
  0
VERTEX
  8
0
 10
462.467616
 20
185.038606
 42
0.097650
  0
VERTEX
  8
0
 10
464.939589
 20
186.593124
 42
0.096046
  0
VERTEX
  8
0
 10
465.596910
 20
187.507580
 42
0.141335
  0
VERTEX
  8
0
 10
465.744753
 20
188.479720
 42
0.071804
  0
VERTEX
  8
0
 10
465.363112
 20
189.841462
 42
0.011645
  0
VERTEX
  8
0
 10
464.189589
 20
192.334835
 42
-0.013255
  0
VERTEX
  8
0
 10
463.351367
 20
194.130787
 42
-0.014873
  0
VERTEX
  8
0
 10
462.643192
 20
195.901640
 42
-0.014250
  0
VERTEX
  8
0
 10
462.130704
 20
197.436890
 42
-0.073554
  0
VERTEX
  8
0
 10
462.000000
 20
198.320576
 42
-0.201622
  0
VERTEX
  8
0
 10
463.082499
 20
200.895922
 42
-0.068870
  0
VERTEX
  8
0
 10
466.406537
 20
203.357686
 42
-0.048313
  0
VERTEX
  8
0
 10
471.686287
 20
205.611007
 42
-0.022708
  0
VERTEX
  8
0
 10
478.862004
 20
207.530842
 42
0.003567
  0
VERTEX
  8
0
 10
479.808126
 20
207.745544
 42
0.002398
  0
VERTEX
  8
0
 10
480.886026
 20
208.003708
 42
0.002415
  0
VERTEX
  8
0
 10
481.927040
 20
208.263658
 42
0.004779
  0
VERTEX
  8
0
 10
482.750000
 20
208.481782
 42
-0.009102
  0
VERTEX
  8
0
 10
483.809363
 20
208.752785
 42
-0.001232
  0
VERTEX
  8
0
 10
486.042187
 20
209.275068
 42
-0.001420
  0
VERTEX
  8
0
 10
488.691604
 20
209.879997
 42
-0.001196
  0
VERTEX
  8
0
 10
491.500000
 20
210.505784
 42
0.007978
  0
VERTEX
  8
0
 10
494.668255
 20
211.257004
 42
0.004725
  0
VERTEX
  8
0
 10
498.423717
 20
212.248864
 42
0.004727
  0
VERTEX
  8
0
 10
502.153396
 20
213.309721
 42
0.008101
  0
VERTEX
  8
0
 10
505.240312
 20
214.274002
 42
0.008112
  0
VERTEX
  8
0
 10
509.419590
 20
215.729820
 42
0.081202
  0
VERTEX
  8
0
 10
511.025957
 20
216.635686
 42
0.164216
  0
VERTEX
  8
0
 10
511.752640
 20
217.770035
 42
0.060368
  0
VERTEX
  8
0
 10
511.990312
 20
219.682612
 42
0.035544
  0
VERTEX
  8
0
 10
511.886109
 20
221.212345
 42
0.086066
  0
VERTEX
  8
0
 10
511.540900
 20
222.287138
 42
0.110273
  0
VERTEX
  8
0
 10
510.920166
 20
223.020897
 42
0.085623
  0
VERTEX
  8
0
 10
509.989033
 20
223.503481
 42
-0.136208
  0
VERTEX
  8
0
 10
508.425736
 20
224.523421
 42
-0.032563
  0
VERTEX
  8
0
 10
506.513518
 20
227.003311
 42
-0.030750
  0
VERTEX
  8
0
 10
504.949371
 20
229.671182
 42
-0.185971
  0
VERTEX
  8
0
 10
504.790471
 20
231.238221
 42
0.288758
  0
VERTEX
  8
0
 10
504.678587
 20
231.605712
 42
0.030084
  0
VERTEX
  8
0
 10
503.928781
 20
232.179138
 42
0.029997
  0
VERTEX
  8
0
 10
502.869213
 20
232.803891
 42
0.019253
  0
VERTEX
  8
0
 10
501.573855
 20
233.404695
 42
-0.064931
  0
VERTEX
  8
0
 10
498.447101
 20
235.217688
 42
-0.097168
  0
VERTEX
  8
0
 10
496.366731
 20
237.580425
 42
-0.102730
  0
VERTEX
  8
0
 10
495.404592
 20
240.450451
 42
-0.080045
  0
VERTEX
  8
0
 10
495.539865
 20
243.745587
 42
0.012311
  0
VERTEX
  8
0
 10
496.527294
 20
249.292849
 42
0.113232
  0
VERTEX
  8
0
 10
496.347800
 20
251.715103
 42
0.162071
  0
VERTEX
  8
0
 10
495.128111
 20
253.420618
 42
0.032561
  0
VERTEX
  8
0
 10
491.928393
 20
255.442457
 42
0.027679
  0
VERTEX
  8
0
 10
489.583701
 20
256.555148
 42
0.013756
  0
VERTEX
  8
0
 10
486.504051
 20
257.715156
 42
0.013610
  0
VERTEX
  8
0
 10
483.237700
 20
258.745293
 42
0.019435
  0
VERTEX
  8
0
 10
480.284993
 20
259.466065
 42
-0.001722
  0
VERTEX
  8
0
 10
475.621436
 20
260.430866
 42
-0.006786
  0
VERTEX
  8
0
 10
472.759411
 20
261.073937
 42
-0.005883
  0
VERTEX
  8
0
 10
469.731166
 20
261.835437
 42
-0.001067
  0
VERTEX
  8
0
 10
464.130373
 20
263.326905
 42
-0.065839
  0
VERTEX
  8
0
 10
459.110870
 20
265.412990
 42
-0.212366
  0
VERTEX
  8
0
 10
457.039303
 20
268.272685
 42
-0.167539
  0
VERTEX
  8
0
 10
457.532996
 20
272.246830
 42
-0.039049
  0
VERTEX
  8
0
 10
461.002298
 20
278.118781
 42
0.041140
  0
VERTEX
  8
0
 10
464.136734
 20
283.474888
 42
0.312432
  0
VERTEX
  8
0
 10
463.699675
 20
286.210864
 42
0.176266
  0
VERTEX
  8
0
 10
460.468557
 20
287.802864
 42
0.014662
  0
VERTEX
  8
0
 10
451.000000
 20
288.557479
 42
-0.001691
  0
VERTEX
  8
0
 10
436.392396
 20
289.341029
 42
-0.021156
  0
VERTEX
  8
0
 10
430.882794
 20
289.889809
 42
-0.061332
  0
VERTEX
  8
0
 10
427.889292
 20
290.699278
 42
-0.117979
  0
VERTEX
  8
0
 10
425.880351
 20
292.137957
 42
-0.049901
  0
VERTEX
  8
0
 10
425.078051
 20
293.274384
 42
-0.055486
  0
VERTEX
  8
0
 10
424.550207
 20
294.508539
 42
-0.056629
  0
VERTEX
  8
0
 10
424.313930
 20
295.805829
 42
-0.055892
  0
VERTEX
  8
0
 10
424.373046
 20
297.128976
 42
0.198117
  0
VERTEX
  8
0
 10
423.457728
 20
300.954475
 42
0.202798
  0
VERTEX
  8
0
 10
420.123300
 20
302.974168
 42
0.075914
  0
VERTEX
  8
0
 10
413.195388
 20
302.924978
 42
0.014389
  0
VERTEX
  8
0
 10
400.750429
 20
300.564911
 42
-0.008027
  0
VERTEX
  8
0
 10
399.491210
 20
300.309476
 42
-0.004642
  0
VERTEX
  8
0
 10
397.969425
 20
300.040727
 42
-0.004638
  0
VERTEX
  8
0
 10
396.437200
 20
299.799366
 42
-0.007764
  0
VERTEX
  8
0
 10
395.144280
 20
299.628442
 42
0.017265
  0
VERTEX
  8
0
 10
393.968441
 20
299.450205
 42
0.016832
  0
VERTEX
  8
0
 10
392.797593
 20
299.190070
 42
0.016995
  0
VERTEX
  8
0
 10
391.786088
 20
298.892326
 42
0.058395
  0
VERTEX
  8
0
 10
391.166924
 20
298.603165
 42
-0.134194
  0
VERTEX
  8
0
 10
390.482760
 20
298.401397
 42
-0.024968
  0
VERTEX
  8
0
 10
389.160903
 20
298.440983
 42
-0.025158
  0
VERTEX
  8
0
 10
387.576818
 20
298.648354
 42
-0.020643
  0
VERTEX
  8
0
 10
385.911776
 20
299.023756
 42
-0.014950
  0
VERTEX
  8
0
 10
383.372690
 20
299.789565
 42
-0.141728
  0
VERTEX
  8
0
 10
382.447891
 20
300.428261
 42
-0.190791
  0
VERTEX
  8
0
 10
382.146679
 20
301.375908
 42
-0.031341
  0
VERTEX
  8
0
 10
382.404517
 20
303.318513
 42
-0.080237
  0
VERTEX
  8
0
 10
383.063601
 20
305.097798
 42
-0.032786
  0
VERTEX
  8
0
 10
384.481679
 20
307.260216
 42
-0.026070
  0
VERTEX
  8
0
 10
386.607497
 20
309.793797
 42
-0.013353
  0
VERTEX
  8
0
 10
389.516691
 20
312.752629
 42
0.006628
  0
VERTEX
  8
0
 10
392.019315
 20
315.230406
 42
0.009448
  0
VERTEX
  8
0
 10
394.169946
 20
317.501160
 42
0.005936
  0
VERTEX
  8
0
 10
395.904839
 20
319.449669
 42
0.125409
  0
VERTEX
  8
0
 10
396.250876
 20
320.137554
 42
-0.079756
  0
VERTEX
  8
0
 10
396.484415
 20
320.729563
 42
-0.016578
  0
VERTEX
  8
0
 10
397.087757
 20
321.674872
 42
-0.017015
  0
VERTEX
  8
0
 10
397.870384
 20
322.736513
 42
-0.015335
  0
VERTEX
  8
0
 10
398.750000
 20
323.780947
 42
0.024017
  0
VERTEX
  8
0
 10
399.611205
 20
324.840304
 42
0.026314
  0
VERTEX
  8
0
 10
400.339063
 20
325.946545
 42
0.027035
  0
VERTEX
  8
0
 10
400.855149
 20
326.949396
 42
0.105695
  0
VERTEX
  8
0
 10
401.000000
 20
327.626971
 42
0.259373
  0
VERTEX
  8
0
 10
400.442203
 20
328.629910
 42
0.052946
  0
VERTEX
  8
0
 10
398.545874
 20
329.545662
 42
0.052692
  0
VERTEX
  8
0
 10
396.477903
 20
330.049101
 42
0.233856
  0
VERTEX
  8
0
 10
395.326646
 20
329.659979
 42
-0.230448
  0
VERTEX
  8
0
 10
394.930154
 20
329.523102
 42
-0.033982
  0
VERTEX
  8
0
 10
394.072862
 20
329.686656
 42
-0.032569
  0
VERTEX
  8
0
 10
393.016065
 20
330.038707
 42
-0.022646
  0
VERTEX
  8
0
 10
391.873216
 20
330.565563
 42
-0.117094
  0
VERTEX
  8
0
 10
389.822026
 20
332.329960
 42
-0.159792
  0
VERTEX
  8
0
 10
389.082406
 20
334.635827
 42
-0.092398
  0
VERTEX
  8
0
 10
389.715384
 20
337.913140
 42
-0.023108
  0
VERTEX
  8
0
 10
391.953656
 20
342.908194
 42
0.011903
  0
VERTEX
  8
0
 10
393.040790
 20
345.195562
 42
0.018458
  0
VERTEX
  8
0
 10
393.857456
 20
347.222796
 42
0.013186
  0
VERTEX
  8
0
 10
394.409701
 20
348.891048
 42
0.276410
  0
VERTEX
  8
0
 10
394.286990
 20
349.379677
 42
-0.129533
  0
VERTEX
  8
0
 10
394.149868
 20
349.614910
 42
-0.259137
  0
VERTEX
  8
0
 10
394.198865
 20
349.817780
 42
-0.156047
  0
VERTEX
  8
0
 10
394.443339
 20
349.956815
 42
-0.051921
  0
VERTEX
  8
0
 10
394.858084
 20
350.000000
 42
0.235608
  0
VERTEX
  8
0
 10
395.735071
 20
350.437539
 42
0.034330
  0
VERTEX
  8
0
 10
396.853956
 20
352.158014
 42
0.036046
  0
VERTEX
  8
0
 10
397.876991
 20
354.354304
 42
0.038560
  0
VERTEX
  8
0
 10
398.547025
 20
356.626355
 42
-0.011662
  0
VERTEX
  8
0
 10
398.681584
 20
357.193330
 42
-0.004052
  0
VERTEX
  8
0
 10
398.901152
 20
358.004191
 42
-0.004022
  0
VERTEX
  8
0
 10
399.157472
 20
358.893587
 42
-0.004674
  0
VERTEX
  8
0
 10
399.415947
 20
359.735172
 42
0.146656
  0
VERTEX
  8
0
 10
399.444887
 20
361.533101
 42
0.182365
  0
VERTEX
  8
0
 10
398.458866
 20
362.868812
 42
0.101363
  0
VERTEX
  8
0
 10
396.253020
 20
363.729686
 42
0.029593
  0
VERTEX
  8
0
 10
392.613691
 20
364.134900
 42
-0.021264
  0
VERTEX
  8
0
 10
390.160436
 20
364.366781
 42
-0.060142
  0
VERTEX
  8
0
 10
388.499334
 20
364.803165
 42
-0.082000
  0
VERTEX
  8
0
 10
387.297422
 20
365.524732
 42
-0.071734
  0
VERTEX
  8
0
 10
386.326418
 20
366.624576
 42
-0.062063
  0
VERTEX
  8
0
 10
385.608026
 20
368.088989
 42
-0.090330
  0
VERTEX
  8
0
 10
385.390853
 20
369.507369
 42
-0.052137
  0
VERTEX
  8
0
 10
385.646041
 20
371.423246
 42
-0.009239
  0
VERTEX
  8
0
 10
386.561066
 20
374.932389
 42
-0.010635
  0
VERTEX
  8
0
 10
387.267313
 20
377.258088
 42
-0.016768
  0
VERTEX
  8
0
 10
387.981768
 20
379.217639
 42
-0.010961
  0
VERTEX
  8
0
 10
388.646632
 20
380.768194
 42
-0.294007
  0
VERTEX
  8
0
 10
389.006775
 20
381.000000
 42
0.320255
  0
VERTEX
  8
0
 10
389.533747
 20
381.376105
 42
0.013686
  0
VERTEX
  8
0
 10
390.255410
 20
383.678915
 42
0.021750
  0
VERTEX
  8
0
 10
390.816382
 20
386.044629
 42
0.071603
  0
VERTEX
  8
0
 10
390.890551
 20
387.643004
 42
-0.141364
  0
VERTEX
  8
0
 10
390.944870
 20
387.934430
 42
-0.051578
  0
VERTEX
  8
0
 10
391.172928
 20
388.291642
 42
-0.045997
  0
VERTEX
  8
0
 10
391.518278
 20
388.652674
 42
-0.040545
  0
VERTEX
  8
0
 10
391.938016
 20
388.961692
 42
0.090533
  0
VERTEX
  8
0
 10
392.392031
 20
389.371403
 42
0.039096
  0
VERTEX
  8
0
 10
392.838726
 20
390.056305
 42
0.037024
  0
VERTEX
  8
0
 10
393.212122
 20
390.879680
 42
0.040394
  0
VERTEX
  8
0
 10
393.447175
 20
391.725702
 42
-0.029331
  0
VERTEX
  8
0
 10
393.700392
 20
392.721958
 42
-0.012308
  0
VERTEX
  8
0
 10
394.151702
 20
394.030332
 42
-0.012128
  0
VERTEX
  8
0
 10
394.704272
 20
395.409658
 42
-0.015434
  0
VERTEX
  8
0
 10
395.283409
 20
396.652207
 42
0.027978
  0
VERTEX
  8
0
 10
396.425168
 20
399.271450
 42
0.026127
  0
VERTEX
  8
0
 10
397.297167
 20
402.061755
 42
0.021972
  0
VERTEX
  8
0
 10
397.984732
 20
405.340383
 42
0.011428
  0
VERTEX
  8
0
 10
398.567752
 20
409.479817
 42
0.053308
  0
VERTEX
  8
0
 10
398.600927
 20
412.622785
 42
0.244653
  0
VERTEX
  8
0
 10
397.639423
 20
414.103759
 42
0.124044
  0
VERTEX
  8
0
 10
395.350567
 20
414.732911
 42
0.010892
  0
VERTEX
  8
0
 10
389.291238
 20
414.730736
 42
-0.020154
  0
VERTEX
  8
0
 10
386.692841
 20
414.777932
 42
-0.046170
  0
VERTEX
  8
0
 10
384.758525
 20
415.071740
 42
-0.059326
  0
VERTEX
  8
0
 10
383.233785
 20
415.648319
 42
-0.063138
  0
VERTEX
  8
0
 10
381.921950
 20
416.557692
 42
-0.068913
  0
VERTEX
  8
0
 10
380.747501
 20
417.949428
 42
-0.104143
  0
VERTEX
  8
0
 10
380.197125
 20
419.430560
 42
-0.051510
  0
VERTEX
  8
0
 10
380.094950
 20
421.683903
 42
-0.006664
  0
VERTEX
  8
0
 10
380.437196
 20
426.500000
 42
0.003703
  0
VERTEX
  8
0
 10
381.324298
 20
438.018356
 42
0.010079
  0
VERTEX
  8
0
 10
381.727409
 20
446.188375
 42
0.006193
  0
VERTEX
  8
0
 10
381.829265
 20
452.265975
 42
0.261100
  0
VERTEX
  8
0
 10
381.220305
 20
453.363844
 42
0.188621
  0
VERTEX
  8
0
 10
380.689349
 20
453.460853
 42
0.049031
  0
VERTEX
  8
0
 10
379.841932
 20
453.207853
 42
0.042810
  0
VERTEX
  8
0
 10
378.860475
 20
452.704754
 42
0.032523
  0
SEQEND
  0
ENDSEC
  0
EOF
