  0
SECTION
  2
HEADER
  9
$ACADVER
  1
AC1006
  9
$EXTMIN
 10
0.000000
 20
0.000000
 30
0.000000
  9
$EXTMAX
 10
356.000000
 20
356.000000
 30
0.000000
  0
ENDSEC
  0
SECTION
  2
ENTITIES
  0
POLYLINE
  8
0
 66
1
 70
1
  0
VERTEX
  8
0
 10
176.580130
 20
350.750000
 42
-0.013769
  0
VERTEX
  8
0
 10
175.726576
 20
345.318688
 42
-0.030405
  0
VERTEX
  8
0
 10
174.712104
 20
341.247442
 42
-0.038128
  0
VERTEX
  8
0
 10
173.583578
 20
338.431934
 42
-0.188939
  0
VERTEX
  8
0
 10
172.346665
 20
337.302786
 42
-0.090097
  0
VERTEX
  8
0
 10
171.691389
 20
337.179005
 42
-0.079979
  0
VERTEX
  8
0
 10
171.004895
 20
337.284603
 42
-0.080908
  0
VERTEX
  8
0
 10
170.393129
 20
337.598218
 42
-0.095804
  0
VERTEX
  8
0
 10
169.953448
 20
338.075322
 42
0.259977
  0
VERTEX
  8
0
 10
169.077447
 20
338.563631
 42
0.335566
  0
VERTEX
  8
0
 10
168.366973
 20
338.026120
 42
0.046815
  0
VERTEX
  8
0
 10
167.861443
 20
335.279791
 42
0.005201
  0
VERTEX
  8
0
 10
167.363717
 20
328.917663
 42
-0.007584
  0
VERTEX
  8
0
 10
167.053655
 20
325.183250
 42
-0.009673
  0
VERTEX
  8
0
 10
166.649176
 20
321.752376
 42
-0.007881
  0
VERTEX
  8
0
 10
166.211597
 20
318.904520
 42
-0.076610
  0
VERTEX
  8
0
 10
165.827537
 20
317.750000
 42
-0.111725
  0
VERTEX
  8
0
 10
164.856128
 20
316.588687
 42
-0.132810
  0
VERTEX
  8
0
 10
163.536937
 20
316.050117
 42
-0.179792
  0
VERTEX
  8
0
 10
162.397544
 20
316.319607
 42
-0.209101
  0
VERTEX
  8
0
 10
161.800534
 20
317.250000
 42
0.884265
  0
VERTEX
  8
0
 10
161.697930
 20
317.246351
 42
0.003525
  0
VERTEX
  8
0
 10
161.497942
 20
314.754687
 42
0.004190
  0
VERTEX
  8
0
 10
161.275999
 20
311.327051
 42
0.002111
  0
VERTEX
  8
0
 10
161.050534
 20
307.000000
 42
-0.002916
  0
VERTEX
  8
0
 10
160.648583
 20
299.517477
 42
-0.047383
  0
VERTEX
  8
0
 10
160.262250
 20
297.031845
 42
-0.187520
  0
VERTEX
  8
0
 10
159.501592
 20
295.965508
 42
-0.155936
  0
VERTEX
  8
0
 10
158.150629
 20
295.590077
 42
0.082552
  0
VERTEX
  8
0
 10
156.806970
 20
295.419318
 42
0.260972
  0
VERTEX
  8
0
 10
156.198167
 20
294.790340
 42
0.083560
  0
VERTEX
  8
0
 10
156.066844
 20
293.363994
 42
0.005110
  0
VERTEX
  8
0
 10
156.431619
 20
289.090077
 42
0.002629
  0
VERTEX
  8
0
 10
156.714604
 20
286.287180
 42
0.002197
  0
VERTEX
  8
0
 10
157.043759
 20
283.314402
 42
0.002217
  0
VERTEX
  8
0
 10
157.368802
 20
280.598216
 42
0.006062
  0
VERTEX
  8
0
 10
157.630316
 20
278.682355
 42
-0.017578
  0
VERTEX
  8
0
 10
157.873726
 20
276.530404
 42
-0.107493
  0
VERTEX
  8
0
 10
157.722269
 20
275.429235
 42
-0.175857
  0
VERTEX
  8
0
 10
157.162702
 20
274.763548
 42
-0.067066
  0
VERTEX
  8
0
 10
156.025065
 20
274.296304
 42
0.055096
  0
VERTEX
  8
0
 10
155.023643
 20
273.912653
 42
0.134953
  0
VERTEX
  8
0
 10
154.448182
 20
273.382733
 42
0.138752
  0
VERTEX
  8
0
 10
154.233593
 20
272.643565
 42
0.059641
  0
VERTEX
  8
0
 10
154.349750
 20
271.613949
 42
-0.011801
  0
VERTEX
  8
0
 10
154.615804
 20
270.352598
 42
-0.001748
  0
VERTEX
  8
0
 10
155.083655
 20
267.792949
 42
-0.001969
  0
VERTEX
  8
0
 10
155.614034
 20
264.764067
 42
-0.001693
  0
VERTEX
  8
0
 10
156.148449
 20
261.574813
 42
-0.006285
  0
VERTEX
  8
0
 10
156.772992
 20
257.444409
 42
-0.032947
  0
VERTEX
  8
0
 10
156.937330
 20
255.154073
 42
-0.068754
  0
VERTEX
  8
0
 10
156.761945
 20
253.828357
 42
-0.250082
  0
VERTEX
  8
0
 10
156.196505
 20
253.232168
 42
0.298229
  0
VERTEX
  8
0
 10
155.464854
 20
252.307490
 42
0.049415
  0
VERTEX
  8
0
 10
155.486398
 20
249.921589
 42
0.030946
  0
VERTEX
  8
0
 10
156.126479
 20
246.184928
 42
0.008910
  0
VERTEX
  8
0
 10
157.574103
 20
240.500000
 42
-0.016368
  0
VERTEX
  8
0
 10
158.092491
 20
238.329379
 42
-0.012746
  0
VERTEX
  8
0
 10
158.517812
 20
235.940625
 42
-0.012938
  0
VERTEX
  8
0
 10
158.799968
 20
233.692249
 42
-0.030298
  0
VERTEX
  8
0
 10
158.864965
 20
232.000000
 42
0.018490
  0
VERTEX
  8
0
 10
158.887752
 20
230.459214
 42
0.012779
  0
VERTEX
  8
0
 10
159.022472
 20
228.720312
 42
0.012904
  0
VERTEX
  8
0
 10
159.238182
 20
227.053303
 42
0.025649
  0
VERTEX
  8
0
 10
159.510226
 20
225.750000
 42
-0.110703
  0
VERTEX
  8
0
 10
159.587085
 20
223.648551
 42
-0.380703
  0
VERTEX
  8
0
 10
158.596112
 20
222.880526
 42
-0.219074
  0
VERTEX
  8
0
 10
157.060201
 20
223.718665
 42
-0.076273
  0
VERTEX
  8
0
 10
155.850155
 20
226.000000
 42
0.022890
  0
VERTEX
  8
0
 10
155.389600
 20
227.149075
 42
0.032530
  0
VERTEX
  8
0
 10
154.869881
 20
228.118750
 42
0.033924
  0
VERTEX
  8
0
 10
154.363654
 20
228.820592
 42
0.223122
  0
VERTEX
  8
0
 10
153.981630
 20
229.000000
 42
-0.243006
  0
VERTEX
  8
0
 10
153.622056
 20
229.185724
 42
-0.039651
  0
VERTEX
  8
0
 10
153.207029
 20
229.881250
 42
-0.036073
  0
VERTEX
  8
0
 10
152.812311
 20
230.850806
 42
-0.024581
  0
VERTEX
  8
0
 10
152.500000
 20
232.000000
 42
0.025133
  0
VERTEX
  8
0
 10
152.186336
 20
233.149160
 42
0.036749
  0
VERTEX
  8
0
 10
151.787574
 20
234.118750
 42
0.040720
  0
VERTEX
  8
0
 10
151.366866
 20
234.812638
 42
0.240576
  0
VERTEX
  8
0
 10
151.000000
 20
235.000000
 42
-0.240576
  0
VERTEX
  8
0
 10
150.633134
 20
235.187362
 42
-0.040720
  0
VERTEX
  8
0
 10
150.212426
 20
235.881250
 42
-0.036749
  0
VERTEX
  8
0
 10
149.813664
 20
236.850840
 42
-0.025133
  0
VERTEX
  8
0
 10
149.500000
 20
238.000000
 42
0.027524
  0
VERTEX
  8
0
 10
149.180468
 20
239.149012
 42
0.039605
  0
VERTEX
  8
0
 10
148.764234
 20
240.118750
 42
0.045180
  0
VERTEX
  8
0
 10
148.318790
 20
240.806252
 42
0.230346
  0
VERTEX
  8
0
 10
147.920545
 20
241.000000
 42
-0.160000
  0
VERTEX
  8
0
 10
147.569427
 20
241.115310
 42
-0.096736
  0
VERTEX
  8
0
 10
147.270410
 20
241.440625
 42
-0.078370
  0
VERTEX
  8
0
 10
147.068469
 20
241.926352
 42
-0.059467
  0
VERTEX
  8
0
 10
147.000000
 20
242.500000
 42
0.051303
  0
VERTEX
  8
0
 10
146.940954
 20
243.073945
 42
0.071236
  0
VERTEX
  8
0
 10
146.765261
 20
243.559375
 42
0.091290
  0
VERTEX
  8
0
 10
146.505903
 20
243.885687
 42
0.181234
  0
VERTEX
  8
0
 10
146.200888
 20
244.000000
 42
-0.237366
  0
VERTEX
  8
0
 10
145.819597
 20
244.191819
 42
-0.026408
  0
VERTEX
  8
0
 10
145.264741
 20
245.028125
 42
-0.027614
  0
VERTEX
  8
0
 10
144.679133
 20
246.159144
 42
-0.018895
  0
VERTEX
  8
0
 10
144.136160
 20
247.500000
 42
0.033579
  0
VERTEX
  8
0
 10
143.489034
 20
248.972330
 42
0.058220
  0
VERTEX
  8
0
 10
142.738291
 20
250.075477
 42
0.075682
  0
VERTEX
  8
0
 10
141.929211
 20
250.765105
 42
0.139593
  0
VERTEX
  8
0
 10
141.104252
 20
251.000000
 42
-0.115229
  0
VERTEX
  8
0
 10
140.330558
 20
251.180703
 42
-0.054830
  0
VERTEX
  8
0
 10
139.463782
 20
251.734375
 42
-0.050180
  0
VERTEX
  8
0
 10
138.642812
 20
252.543721
 42
-0.050256
  0
VERTEX
  8
0
 10
138.000000
 20
253.500000
 42
0.021766
  0
VERTEX
  8
0
 10
137.432696
 20
254.457399
 42
0.029447
  0
VERTEX
  8
0
 10
136.834294
 20
255.265625
 42
0.029619
  0
VERTEX
  8
0
 10
136.281446
 20
255.852656
 42
0.191323
  0
VERTEX
  8
0
 10
135.910476
 20
256.000000
 42
-0.252632
  0
VERTEX
  8
0
 10
135.579299
 20
256.178740
 42
-0.035386
  0
VERTEX
  8
0
 10
135.186128
 20
256.881250
 42
-0.033394
  0
VERTEX
  8
0
 10
134.807078
 20
257.850678
 42
-0.022444
  0
VERTEX
  8
0
 10
134.500000
 20
259.000000
 42
0.027524
  0
VERTEX
  8
0
 10
134.180468
 20
260.149012
 42
0.039605
  0
VERTEX
  8
0
 10
133.764234
 20
261.118750
 42
0.045180
  0
VERTEX
  8
0
 10
133.318790
 20
261.806252
 42
0.230346
  0
VERTEX
  8
0
 10
132.920545
 20
262.000000
 42
-0.160000
  0
VERTEX
  8
0
 10
132.569427
 20
262.115310
 42
-0.096736
  0
VERTEX
  8
0
 10
132.270410
 20
262.440625
 42
-0.078370
  0
VERTEX
  8
0
 10
132.068469
 20
262.926352
 42
-0.059467
  0
VERTEX
  8
0
 10
132.000000
 20
263.500000
 42
0.064853
  0
VERTEX
  8
0
 10
131.925306
 20
264.073457
 42
0.082425
  0
VERTEX
  8
0
 10
131.706250
 20
264.559375
 42
0.098894
  0
VERTEX
  8
0
 10
131.381354
 20
264.884432
 42
0.148195
  0
VERTEX
  8
0
 10
131.000000
 20
265.000000
 42
-0.148195
  0
VERTEX
  8
0
 10
130.618646
 20
265.115568
 42
-0.098894
  0
VERTEX
  8
0
 10
130.293750
 20
265.440625
 42
-0.082425
  0
VERTEX
  8
0
 10
130.074694
 20
265.926543
 42
-0.064853
  0
VERTEX
  8
0
 10
130.000000
 20
266.500000
 42
0.064853
  0
VERTEX
  8
0
 10
129.925306
 20
267.073457
 42
0.082425
  0
VERTEX
  8
0
 10
129.706250
 20
267.559375
 42
0.098894
  0
VERTEX
  8
0
 10
129.381354
 20
267.884432
 42
0.148195
  0
VERTEX
  8
0
 10
129.000000
 20
268.000000
 42
-0.103674
  0
VERTEX
  8
0
 10
128.618426
 20
268.079978
 42
-0.098920
  0
VERTEX
  8
0
 10
128.293750
 20
268.307102
 42
-0.096788
  0
VERTEX
  8
0
 10
128.076174
 20
268.646398
 42
-0.094588
  0
VERTEX
  8
0
 10
128.000000
 20
269.045455
 42
0.131281
  0
VERTEX
  8
0
 10
127.851908
 20
269.599762
 42
0.023009
  0
VERTEX
  8
0
 10
127.265625
 20
270.518182
 42
0.023573
  0
VERTEX
  8
0
 10
126.457149
 20
271.557106
 42
0.019243
  0
VERTEX
  8
0
 10
125.500000
 20
272.590909
 42
-0.017608
  0
VERTEX
  8
0
 10
124.542763
 20
273.618051
 42
-0.022135
  0
VERTEX
  8
0
 10
123.734375
 20
274.636932
 42
-0.021006
  0
VERTEX
  8
0
 10
123.143152
 20
275.530648
 42
-0.136446
  0
VERTEX
  8
0
 10
123.000000
 20
276.045455
 42
0.260208
  0
VERTEX
  8
0
 10
122.795091
 20
276.412535
 42
0.060340
  0
VERTEX
  8
0
 10
122.129085
 20
276.719602
 42
0.047390
  0
VERTEX
  8
0
 10
121.171024
 20
276.930594
 42
0.030524
  0
VERTEX
  8
0
 10
120.035184
 20
277.000000
 42
-0.047876
  0
VERTEX
  8
0
 10
118.634618
 20
277.134414
 42
-0.075344
  0
VERTEX
  8
0
 10
117.498391
 20
277.538592
 42
-0.081256
  0
VERTEX
  8
0
 10
116.592609
 20
278.233365
 42
-0.065826
  0
VERTEX
  8
0
 10
115.877248
 20
279.229364
 42
0.018204
  0
VERTEX
  8
0
 10
115.322408
 20
280.181116
 42
0.013276
  0
VERTEX
  8
0
 10
114.640376
 20
281.198084
 42
0.013447
  0
VERTEX
  8
0
 10
113.941332
 20
282.128789
 42
0.028584
  0
VERTEX
  8
0
 10
113.342064
 20
282.800793
 42
-0.046359
  0
VERTEX
  8
0
 10
112.828427
 20
283.419661
 42
-0.037270
  0
VERTEX
  8
0
 10
112.394231
 20
284.168269
 42
-0.038557
  0
VERTEX
  8
0
 10
112.096346
 20
284.927256
 42
-0.074369
  0
VERTEX
  8
0
 10
112.000000
 20
285.571429
 42
0.104136
  0
VERTEX
  8
0
 10
111.885227
 20
286.116526
 42
0.099005
  0
VERTEX
  8
0
 10
111.559375
 20
286.580357
 42
0.096665
  0
VERTEX
  8
0
 10
111.072570
 20
286.891204
 42
0.094164
  0
VERTEX
  8
0
 10
110.500000
 20
287.000000
 42
-0.083939
  0
VERTEX
  8
0
 10
109.927159
 20
287.096850
 42
-0.093058
  0
VERTEX
  8
0
 10
109.440625
 20
287.375777
 42
-0.100516
  0
VERTEX
  8
0
 10
109.115266
 20
287.791293
 42
-0.116509
  0
VERTEX
  8
0
 10
109.000000
 20
288.279241
 42
0.115942
  0
VERTEX
  8
0
 10
108.860855
 20
288.871239
 42
0.043072
  0
VERTEX
  8
0
 10
108.412500
 20
289.606151
 42
0.039803
  0
VERTEX
  8
0
 10
107.765268
 20
290.353917
 42
0.038332
  0
VERTEX
  8
0
 10
107.000000
 20
291.000000
 42
-0.024702
  0
VERTEX
  8
0
 10
106.234340
 20
291.611495
 42
-0.030445
  0
VERTEX
  8
0
 10
105.587500
 20
292.256766
 42
-0.031553
  0
VERTEX
  8
0
 10
105.125131
 20
292.849268
 42
-0.151025
  0
VERTEX
  8
0
 10
105.000000
 20
293.254093
 42
0.158217
  0
VERTEX
  8
0
 10
104.847117
 20
293.725142
 42
0.012774
  0
VERTEX
  8
0
 10
104.045312
 20
294.772869
 42
0.016221
  0
VERTEX
  8
0
 10
102.994905
 20
295.991996
 42
0.011731
  0
VERTEX
  8
0
 10
101.750000
 20
297.283333
 42
0.027031
  0
VERTEX
  8
0
 10
100.146536
 20
298.707353
 42
0.049877
  0
VERTEX
  8
0
 10
98.682339
 20
299.650983
 42
0.062090
  0
VERTEX
  8
0
 10
97.313186
 20
300.148879
 42
0.083829
  0
VERTEX
  8
0
 10
96.000000
 20
300.224468
 42
-0.133228
  0
VERTEX
  8
0
 10
93.872198
 20
300.557218
 42
-0.043913
  0
VERTEX
  8
0
 10
91.081487
 20
302.110144
 42
-0.042551
  0
VERTEX
  8
0
 10
88.676173
 20
304.057665
 42
-0.204046
  0
VERTEX
  8
0
 10
88.000000
 20
305.645590
 42
0.142200
  0
VERTEX
  8
0
 10
87.870544
 20
306.091577
 42
0.034808
  0
VERTEX
  8
0
 10
87.412500
 20
306.713766
 42
0.032863
  0
VERTEX
  8
0
 10
86.765553
 20
307.381099
 42
0.027678
  0
VERTEX
  8
0
 10
86.000000
 20
308.000000
 42
-0.038332
  0
VERTEX
  8
0
 10
85.234732
 20
308.646083
 42
-0.039803
  0
VERTEX
  8
0
 10
84.587500
 20
309.393849
 42
-0.043072
  0
VERTEX
  8
0
 10
84.139145
 20
310.128761
 42
-0.115942
  0
VERTEX
  8
0
 10
84.000000
 20
310.720759
 42
0.082368
  0
VERTEX
  8
0
 10
83.918964
 20
311.209333
 42
0.092384
  0
VERTEX
  8
0
 10
83.685268
 20
311.624223
 42
0.100638
  0
VERTEX
  8
0
 10
83.337234
 20
311.901643
 42
0.118646
  0
VERTEX
  8
0
 10
82.928571
 20
312.000000
 42
-0.145648
  0
VERTEX
  8
0
 10
81.908799
 20
312.303494
 42
-0.037328
  0
VERTEX
  8
0
 10
80.527244
 20
313.360636
 42
-0.036399
  0
VERTEX
  8
0
 10
79.328691
 20
314.596035
 42
-0.176163
  0
VERTEX
  8
0
 10
79.000000
 20
315.500000
 42
0.176163
  0
VERTEX
  8
0
 10
78.671309
 20
316.403965
 42
0.036399
  0
VERTEX
  8
0
 10
77.472756
 20
317.639364
 42
0.037328
  0
VERTEX
  8
0
 10
76.091201
 20
318.696506
 42
0.145648
  0
VERTEX
  8
0
 10
75.071429
 20
319.000000
 42
-0.081950
  0
VERTEX
  8
0
 10
74.662215
 20
319.067523
 42
-0.092199
  0
VERTEX
  8
0
 10
74.314732
 20
319.262322
 42
-0.100664
  0
VERTEX
  8
0
 10
74.082390
 20
319.552404
 42
-0.119227
  0
VERTEX
  8
0
 10
74.000000
 20
319.893011
 42
0.238418
  0
VERTEX
  8
0
 10
73.539569
 20
320.803720
 42
0.095114
  0
VERTEX
  8
0
 10
72.240998
 20
321.422926
 42
0.088140
  0
VERTEX
  8
0
 10
70.716834
 20
321.544298
 42
0.173984
  0
VERTEX
  8
0
 10
69.632783
 20
321.032783
 42
-0.095302
  0
VERTEX
  8
0
 10
68.481872
 20
320.253204
 42
-0.135243
  0
VERTEX
  8
0
 10
67.263480
 20
320.085874
 42
-0.103035
  0
VERTEX
  8
0
 10
65.887847
 20
320.568956
 42
-0.040325
  0
VERTEX
  8
0
 10
64.246281
 20
321.750000
 42
0.006921
  0
VERTEX
  8
0
 10
63.305882
 20
322.526829
 42
0.004238
  0
VERTEX
  8
0
 10
62.176692
 20
323.417973
 42
0.004248
  0
VERTEX
  8
0
 10
61.043472
 20
324.281496
 42
0.007542
  0
VERTEX
  8
0
 10
60.093271
 20
324.970759
 42
-0.025144
  0
VERTEX
  8
0
 10
59.291910
 20
325.596246
 42
-0.031010
  0
VERTEX
  8
0
 10
58.614898
 20
326.259367
 42
-0.032288
  0
VERTEX
  8
0
 10
58.131525
 20
326.870483
 42
-0.152326
  0
VERTEX
  8
0
 10
58.000000
 20
327.292188
 42
0.161617
  0
VERTEX
  8
0
 10
57.662406
 20
328.309335
 42
0.043371
  0
VERTEX
  8
0
 10
56.514613
 20
329.598082
 42
0.043673
  0
VERTEX
  8
0
 10
55.150876
 20
330.676751
 42
0.146515
  0
VERTEX
  8
0
 10
54.071429
 20
331.000000
 42
-0.092210
  0
VERTEX
  8
0
 10
53.662416
 20
331.076077
 42
-0.096076
  0
VERTEX
  8
0
 10
53.314732
 20
331.293750
 42
-0.099376
  0
VERTEX
  8
0
 10
53.082053
 20
331.618459
 42
-0.106313
  0
VERTEX
  8
0
 10
53.000000
 20
332.000000
 42
0.148195
  0
VERTEX
  8
0
 10
52.884432
 20
332.381354
 42
0.098894
  0
VERTEX
  8
0
 10
52.559375
 20
332.706250
 42
0.082425
  0
VERTEX
  8
0
 10
52.073457
 20
332.925306
 42
0.064853
  0
VERTEX
  8
0
 10
51.500000
 20
333.000000
 42
-0.099038
  0
VERTEX
  8
0
 10
50.927543
 20
333.114514
 42
-0.097945
  0
VERTEX
  8
0
 10
50.440625
 20
333.440625
 42
-0.097945
  0
VERTEX
  8
0
 10
50.114514
 20
333.927543
 42
-0.099038
  0
VERTEX
  8
0
 10
50.000000
 20
334.500000
 42
0.099038
  0
VERTEX
  8
0
 10
49.885486
 20
335.072457
 42
0.097945
  0
VERTEX
  8
0
 10
49.559375
 20
335.559375
 42
0.097945
  0
VERTEX
  8
0
 10
49.072457
 20
335.885486
 42
0.099038
  0
VERTEX
  8
0
 10
48.500000
 20
336.000000
 42
-0.056643
  0
VERTEX
  8
0
 10
47.926250
 20
336.065207
 42
-0.076039
  0
VERTEX
  8
0
 10
47.440625
 20
336.258112
 42
-0.095179
  0
VERTEX
  8
0
 10
47.115064
 20
336.543472
 42
-0.166853
  0
VERTEX
  8
0
 10
47.000000
 20
336.878680
 42
0.213405
  0
VERTEX
  8
0
 10
46.812550
 20
337.297868
 42
0.031434
  0
VERTEX
  8
0
 10
46.064660
 20
337.886678
 42
0.030852
  0
VERTEX
  8
0
 10
45.035420
 20
338.507016
 42
0.022011
  0
VERTEX
  8
0
 10
43.815864
 20
339.076272
 42
0.016584
  0
VERTEX
  8
0
 10
42.214604
 20
339.678140
 42
0.073262
  0
VERTEX
  8
0
 10
41.226066
 20
339.858133
 42
0.154028
  0
VERTEX
  8
0
 10
40.610000
 20
339.686431
 42
0.169491
  0
VERTEX
  8
0
 10
40.232531
 20
339.197592
 42
-0.121047
  0
VERTEX
  8
0
 10
39.943628
 20
338.739509
 42
-0.068925
  0
VERTEX
  8
0
 10
39.411382
 20
338.351793
 42
-0.062346
  0
VERTEX
  8
0
 10
38.729340
 20
338.089287
 42
-0.060794
  0
VERTEX
  8
0
 10
37.997706
 20
338.000000
 42
-0.096366
  0
VERTEX
  8
0
 10
36.060388
 20
338.376883
 42
-0.026132
  0
VERTEX
  8
0
 10
33.216724
 20
339.703586
 42
-0.020233
  0
VERTEX
  8
0
 10
30.552145
 20
341.262091
 42
-0.253390
  0
VERTEX
  8
0
 10
30.006323
 20
342.250000
 42
0.190186
  0
VERTEX
  8
0
 10
29.890477
 20
342.536447
 42
0.087379
  0
VERTEX
  8
0
 10
29.561232
 20
342.779688
 42
0.067632
  0
VERTEX
  8
0
 10
29.074521
 20
342.944719
 42
0.048000
  0
VERTEX
  8
0
 10
28.500000
 20
343.000000
 42
-0.064853
  0
VERTEX
  8
0
 10
27.926543
 20
343.074694
 42
-0.082425
  0
VERTEX
  8
0
 10
27.440625
 20
343.293750
 42
-0.098894
  0
VERTEX
  8
0
 10
27.115568
 20
343.618646
 42
-0.148195
  0
VERTEX
  8
0
 10
27.000000
 20
344.000000
 42
0.148195
  0
VERTEX
  8
0
 10
26.884432
 20
344.381354
 42
0.098894
  0
VERTEX
  8
0
 10
26.559375
 20
344.706250
 42
0.082425
  0
VERTEX
  8
0
 10
26.073457
 20
344.925306
 42
0.064853
  0
VERTEX
  8
0
 10
25.500000
 20
345.000000
 42
-0.064853
  0
VERTEX
  8
0
 10
24.926543
 20
345.074694
 42
-0.082425
  0
VERTEX
  8
0
 10
24.440625
 20
345.293750
 42
-0.098894
  0
VERTEX
  8
0
 10
24.115568
 20
345.618646
 42
-0.148195
  0
VERTEX
  8
0
 10
24.000000
 20
346.000000
 42
0.148195
  0
VERTEX
  8
0
 10
23.884432
 20
346.381354
 42
0.098894
  0
VERTEX
  8
0
 10
23.559375
 20
346.706250
 42
0.082425
  0
VERTEX
  8
0
 10
23.073457
 20
346.925306
 42
0.064853
  0
VERTEX
  8
0
 10
22.500000
 20
347.000000
 42
-0.064853
  0
VERTEX
  8
0
 10
21.926543
 20
347.074694
 42
-0.082425
  0
VERTEX
  8
0
 10
21.440625
 20
347.293750
 42
-0.098894
  0
VERTEX
  8
0
 10
21.115568
 20
347.618646
 42
-0.148195
  0
VERTEX
  8
0
 10
21.000000
 20
348.000000
 42
0.112508
  0
VERTEX
  8
0
 10
20.913062
 20
348.381472
 42
0.100182
  0
VERTEX
  8
0
 10
20.667268
 20
348.706250
 42
0.094286
  0
VERTEX
  8
0
 10
20.299803
 20
348.924148
 42
0.087025
  0
VERTEX
  8
0
 10
19.867295
 20
349.000000
 42
-0.110376
  0
VERTEX
  8
0
 10
19.321751
 20
349.121915
 42
-0.035301
  0
VERTEX
  8
0
 10
18.592242
 20
349.530254
 42
-0.033263
  0
VERTEX
  8
0
 10
17.819740
 20
350.114312
 42
-0.031599
  0
VERTEX
  8
0
 10
17.117295
 20
350.805120
 42
0.048025
  0
VERTEX
  8
0
 10
16.260241
 20
351.594391
 42
0.020597
  0
VERTEX
  8
0
 10
14.981004
 20
352.482936
 42
0.020154
  0
VERTEX
  8
0
 10
13.530117
 20
353.324473
 42
0.025051
  0
VERTEX
  8
0
 10
12.115909
 20
353.981983
 42
0.015618
  0
VERTEX
  8
0
 10
10.150765
 20
354.707960
 42
0.097489
  0
VERTEX
  8
0
 10
9.092278
 20
354.844490
 42
0.157934
  0
VERTEX
  8
0
 10
8.310835
 20
354.532945
 42
0.061772
  0
VERTEX
  8
0
 10
7.505667
 20
353.676863
 42
-0.040197
  0
VERTEX
  8
0
 10
6.952270
 20
353.035264
 42
-0.040558
  0
VERTEX
  8
0
 10
6.304893
 20
352.492578
 42
-0.043763
  0
VERTEX
  8
0
 10
5.663580
 20
352.117588
 42
-0.110861
  0
VERTEX
  8
0
 10
5.139757
 20
352.000000
 42
0.099038
  0
VERTEX
  8
0
 10
4.704782
 20
351.912988
 42
0.097945
  0
VERTEX
  8
0
 10
4.334804
 20
351.665196
 42
0.097945
  0
VERTEX
  8
0
 10
4.087012
 20
351.295218
 42
0.099038
  0
VERTEX
  8
0
 10
4.000000
 20
350.860243
 42
-0.110861
  0
VERTEX
  8
0
 10
3.882412
 20
350.336420
 42
-0.043763
  0
VERTEX
  8
0
 10
3.507422
 20
349.695107
 42
-0.040558
  0
VERTEX
  8
0
 10
2.964736
 20
349.047730
 42
-0.040197
  0
VERTEX
  8
0
 10
2.323137
 20
348.494333
 42
0.061772
  0
VERTEX
  8
0
 10
1.467055
 20
347.689165
 42
0.157934
  0
VERTEX
  8
0
 10
1.155510
 20
346.907722
 42
0.097489
  0
VERTEX
  8
0
 10
1.292040
 20
345.849235
 42
0.015618
  0
VERTEX
  8
0
 10
2.018017
 20
343.884091
 42
0.025051
  0
VERTEX
  8
0
 10
2.675527
 20
342.469883
 42
0.020154
  0
VERTEX
  8
0
 10
3.517064
 20
341.018996
 42
0.020597
  0
VERTEX
  8
0
 10
4.405609
 20
339.739759
 42
0.048025
  0
VERTEX
  8
0
 10
5.194880
 20
338.882705
 42
-0.031599
  0
VERTEX
  8
0
 10
5.885688
 20
338.180260
 42
-0.033263
  0
VERTEX
  8
0
 10
6.469746
 20
337.407758
 42
-0.035301
  0
VERTEX
  8
0
 10
6.878085
 20
336.678249
 42
-0.110376
  0
VERTEX
  8
0
 10
7.000000
 20
336.132705
 42
0.087025
  0
VERTEX
  8
0
 10
7.075852
 20
335.700197
 42
0.094286
  0
VERTEX
  8
0
 10
7.293750
 20
335.332732
 42
0.100182
  0
VERTEX
  8
0
 10
7.618528
 20
335.086938
 42
0.112508
  0
VERTEX
  8
0
 10
8.000000
 20
335.000000
 42
-0.148195
  0
VERTEX
  8
0
 10
8.381354
 20
334.884432
 42
-0.098894
  0
VERTEX
  8
0
 10
8.706250
 20
334.559375
 42
-0.082425
  0
VERTEX
  8
0
 10
8.925306
 20
334.073457
 42
-0.064853
  0
VERTEX
  8
0
 10
9.000000
 20
333.500000
 42
0.064853
  0
VERTEX
  8
0
 10
9.074694
 20
332.926543
 42
0.082425
  0
VERTEX
  8
0
 10
9.293750
 20
332.440625
 42
0.098894
  0
VERTEX
  8
0
 10
9.618646
 20
332.115568
 42
0.148195
  0
VERTEX
  8
0
 10
10.000000
 20
332.000000
 42
-0.148195
  0
VERTEX
  8
0
 10
10.381354
 20
331.884432
 42
-0.098894
  0
VERTEX
  8
0
 10
10.706250
 20
331.559375
 42
-0.082425
  0
VERTEX
  8
0
 10
10.925306
 20
331.073457
 42
-0.064853
  0
VERTEX
  8
0
 10
11.000000
 20
330.500000
 42
0.064853
  0
VERTEX
  8
0
 10
11.074694
 20
329.926543
 42
0.082425
  0
VERTEX
  8
0
 10
11.293750
 20
329.440625
 42
0.098894
  0
VERTEX
  8
0
 10
11.618646
 20
329.115568
 42
0.148195
  0
VERTEX
  8
0
 10
12.000000
 20
329.000000
 42
-0.148195
  0
VERTEX
  8
0
 10
12.381354
 20
328.884432
 42
-0.098894
  0
VERTEX
  8
0
 10
12.706250
 20
328.559375
 42
-0.082425
  0
VERTEX
  8
0
 10
12.925306
 20
328.073457
 42
-0.064853
  0
VERTEX
  8
0
 10
13.000000
 20
327.500000
 42
0.048000
  0
VERTEX
  8
0
 10
13.055281
 20
326.925479
 42
0.067632
  0
VERTEX
  8
0
 10
13.220313
 20
326.438768
 42
0.087379
  0
VERTEX
  8
0
 10
13.463553
 20
326.109523
 42
0.190186
  0
VERTEX
  8
0
 10
13.750000
 20
325.993677
 42
-0.253390
  0
VERTEX
  8
0
 10
14.737909
 20
325.447855
 42
-0.020233
  0
VERTEX
  8
0
 10
16.296414
 20
322.783276
 42
-0.026132
  0
VERTEX
  8
0
 10
17.623117
 20
319.939612
 42
-0.096366
  0
VERTEX
  8
0
 10
18.000000
 20
318.002294
 42
-0.060794
  0
VERTEX
  8
0
 10
17.910713
 20
317.270660
 42
-0.062346
  0
VERTEX
  8
0
 10
17.648207
 20
316.588618
 42
-0.068925
  0
VERTEX
  8
0
 10
17.260491
 20
316.056372
 42
-0.121047
  0
VERTEX
  8
0
 10
16.802408
 20
315.767469
 42
0.169491
  0
VERTEX
  8
0
 10
16.313569
 20
315.390000
 42
0.154028
  0
VERTEX
  8
0
 10
16.141867
 20
314.773934
 42
0.073262
  0
VERTEX
  8
0
 10
16.321860
 20
313.785396
 42
0.016584
  0
VERTEX
  8
0
 10
16.923728
 20
312.184136
 42
0.022011
  0
VERTEX
  8
0
 10
17.492984
 20
310.964580
 42
0.030852
  0
VERTEX
  8
0
 10
18.113322
 20
309.935340
 42
0.031434
  0
VERTEX
  8
0
 10
18.702132
 20
309.187450
 42
0.213405
  0
VERTEX
  8
0
 10
19.121320
 20
309.000000
 42
-0.166853
  0
VERTEX
  8
0
 10
19.456528
 20
308.884936
 42
-0.095179
  0
VERTEX
  8
0
 10
19.741888
 20
308.559375
 42
-0.076039
  0
VERTEX
  8
0
 10
19.934793
 20
308.073750
 42
-0.056643
  0
VERTEX
  8
0
 10
20.000000
 20
307.500000
 42
0.099038
  0
VERTEX
  8
0
 10
20.114514
 20
306.927543
 42
0.097945
  0
VERTEX
  8
0
 10
20.440625
 20
306.440625
 42
0.097945
  0
VERTEX
  8
0
 10
20.927543
 20
306.114514
 42
0.099038
  0
VERTEX
  8
0
 10
21.500000
 20
306.000000
 42
-0.099038
  0
VERTEX
  8
0
 10
22.072457
 20
305.885486
 42
-0.097945
  0
VERTEX
  8
0
 10
22.559375
 20
305.559375
 42
-0.097945
  0
VERTEX
  8
0
 10
22.885486
 20
305.072457
 42
-0.099038
  0
VERTEX
  8
0
 10
23.000000
 20
304.500000
 42
0.064853
  0
VERTEX
  8
0
 10
23.074694
 20
303.926543
 42
0.082425
  0
VERTEX
  8
0
 10
23.293750
 20
303.440625
 42
0.098894
  0
VERTEX
  8
0
 10
23.618646
 20
303.115568
 42
0.148195
  0
VERTEX
  8
0
 10
24.000000
 20
303.000000
 42
-0.106313
  0
VERTEX
  8
0
 10
24.381541
 20
302.917947
 42
-0.099376
  0
VERTEX
  8
0
 10
24.706250
 20
302.685268
 42
-0.096076
  0
VERTEX
  8
0
 10
24.923923
 20
302.337584
 42
-0.092210
  0
VERTEX
  8
0
 10
25.000000
 20
301.928571
 42
0.146515
  0
VERTEX
  8
0
 10
25.323249
 20
300.849124
 42
0.043673
  0
VERTEX
  8
0
 10
26.401918
 20
299.485387
 42
0.043371
  0
VERTEX
  8
0
 10
27.690665
 20
298.337594
 42
0.161617
  0
VERTEX
  8
0
 10
28.707812
 20
298.000000
 42
-0.152326
  0
VERTEX
  8
0
 10
29.129517
 20
297.868475
 42
-0.032288
  0
VERTEX
  8
0
 10
29.740633
 20
297.385102
 42
-0.031010
  0
VERTEX
  8
0
 10
30.403754
 20
296.708090
 42
-0.025144
  0
VERTEX
  8
0
 10
31.029241
 20
295.906729
 42
0.007542
  0
VERTEX
  8
0
 10
31.718504
 20
294.956528
 42
0.004248
  0
VERTEX
  8
0
 10
32.582027
 20
293.823308
 42
0.004238
  0
VERTEX
  8
0
 10
33.473171
 20
292.694118
 42
0.006921
  0
VERTEX
  8
0
 10
34.250000
 20
291.753719
 42
-0.040325
  0
VERTEX
  8
0
 10
35.431044
 20
290.112153
 42
-0.103035
  0
VERTEX
  8
0
 10
35.914126
 20
288.736520
 42
-0.135243
  0
VERTEX
  8
0
 10
35.746796
 20
287.518128
 42
-0.095302
  0
VERTEX
  8
0
 10
34.967217
 20
286.367217
 42
0.173984
  0
VERTEX
  8
0
 10
34.455702
 20
285.283166
 42
0.088140
  0
VERTEX
  8
0
 10
34.577074
 20
283.759002
 42
0.095114
  0
VERTEX
  8
0
 10
35.196280
 20
282.460431
 42
0.238418
  0
VERTEX
  8
0
 10
36.106989
 20
282.000000
 42
-0.119227
  0
VERTEX
  8
0
 10
36.447596
 20
281.917610
 42
-0.100664
  0
VERTEX
  8
0
 10
36.737678
 20
281.685268
 42
-0.092199
  0
VERTEX
  8
0
 10
36.932477
 20
281.337785
 42
-0.081950
  0
VERTEX
  8
0
 10
37.000000
 20
280.928571
 42
0.145648
  0
VERTEX
  8
0
 10
37.303494
 20
279.908799
 42
0.037328
  0
VERTEX
  8
0
 10
38.360636
 20
278.527244
 42
0.036399
  0
VERTEX
  8
0
 10
39.596035
 20
277.328691
 42
0.176163
  0
VERTEX
  8
0
 10
40.500000
 20
277.000000
 42
-0.176163
  0
VERTEX
  8
0
 10
41.403965
 20
276.671309
 42
-0.036399
  0
VERTEX
  8
0
 10
42.639364
 20
275.472756
 42
-0.037328
  0
VERTEX
  8
0
 10
43.696506
 20
274.091201
 42
-0.145648
  0
VERTEX
  8
0
 10
44.000000
 20
273.071429
 42
0.118646
  0
VERTEX
  8
0
 10
44.098357
 20
272.662766
 42
0.100638
  0
VERTEX
  8
0
 10
44.375777
 20
272.314732
 42
0.092384
  0
VERTEX
  8
0
 10
44.790667
 20
272.081036
 42
0.082368
  0
VERTEX
  8
0
 10
45.279241
 20
272.000000
 42
-0.115942
  0
VERTEX
  8
0
 10
45.871239
 20
271.860855
 42
-0.043072
  0
VERTEX
  8
0
 10
46.606151
 20
271.412500
 42
-0.039803
  0
VERTEX
  8
0
 10
47.353917
 20
270.765268
 42
-0.038332
  0
VERTEX
  8
0
 10
48.000000
 20
270.000000
 42
0.027678
  0
VERTEX
  8
0
 10
48.618901
 20
269.234447
 42
0.032863
  0
VERTEX
  8
0
 10
49.286234
 20
268.587500
 42
0.034808
  0
VERTEX
  8
0
 10
49.908423
 20
268.129456
 42
0.142200
  0
VERTEX
  8
0
 10
50.354410
 20
268.000000
 42
-0.204046
  0
VERTEX
  8
0
 10
51.942335
 20
267.323827
 42
-0.042551
  0
VERTEX
  8
0
 10
53.889856
 20
264.918513
 42
-0.043913
  0
VERTEX
  8
0
 10
55.442782
 20
262.127802
 42
-0.133228
  0
VERTEX
  8
0
 10
55.775532
 20
260.000000
 42
0.083829
  0
VERTEX
  8
0
 10
55.851121
 20
258.686814
 42
0.062090
  0
VERTEX
  8
0
 10
56.349017
 20
257.317661
 42
0.049877
  0
VERTEX
  8
0
 10
57.292647
 20
255.853464
 42
0.027031
  0
VERTEX
  8
0
 10
58.716667
 20
254.250000
 42
0.011731
  0
VERTEX
  8
0
 10
60.008004
 20
253.005095
 42
0.016221
  0
VERTEX
  8
0
 10
61.227131
 20
251.954688
 42
0.012774
  0
VERTEX
  8
0
 10
62.274858
 20
251.152883
 42
0.158217
  0
VERTEX
  8
0
 10
62.745907
 20
251.000000
 42
-0.151025
  0
VERTEX
  8
0
 10
63.150732
 20
250.874869
 42
-0.031553
  0
VERTEX
  8
0
 10
63.743234
 20
250.412500
 42
-0.030445
  0
VERTEX
  8
0
 10
64.388505
 20
249.765660
 42
-0.024702
  0
VERTEX
  8
0
 10
65.000000
 20
249.000000
 42
0.038332
  0
VERTEX
  8
0
 10
65.646083
 20
248.234732
 42
0.039803
  0
VERTEX
  8
0
 10
66.393849
 20
247.587500
 42
0.043072
  0
VERTEX
  8
0
 10
67.128761
 20
247.139145
 42
0.115942
  0
VERTEX
  8
0
 10
67.720759
 20
247.000000
 42
-0.116509
  0
VERTEX
  8
0
 10
68.208707
 20
246.884734
 42
-0.100516
  0
VERTEX
  8
0
 10
68.624223
 20
246.559375
 42
-0.093058
  0
VERTEX
  8
0
 10
68.903150
 20
246.072841
 42
-0.083939
  0
VERTEX
  8
0
 10
69.000000
 20
245.500000
 42
0.094164
  0
VERTEX
  8
0
 10
69.108796
 20
244.927430
 42
0.096665
  0
VERTEX
  8
0
 10
69.419643
 20
244.440625
 42
0.099005
  0
VERTEX
  8
0
 10
69.883474
 20
244.114773
 42
0.104136
  0
VERTEX
  8
0
 10
70.428571
 20
244.000000
 42
-0.074369
  0
VERTEX
  8
0
 10
71.072744
 20
243.903654
 42
-0.038557
  0
VERTEX
  8
0
 10
71.831731
 20
243.605769
 42
-0.037270
  0
VERTEX
  8
0
 10
72.580339
 20
243.171573
 42
-0.046359
  0
VERTEX
  8
0
 10
73.199207
 20
242.657936
 42
0.028584
  0
VERTEX
  8
0
 10
73.871211
 20
242.058668
 42
0.013447
  0
VERTEX
  8
0
 10
74.801916
 20
241.359624
 42
0.013276
  0
VERTEX
  8
0
 10
75.818884
 20
240.677592
 42
0.018204
  0
VERTEX
  8
0
 10
76.770636
 20
240.122752
 42
-0.065826
  0
VERTEX
  8
0
 10
77.766635
 20
239.407391
 42
-0.081256
  0
VERTEX
  8
0
 10
78.461408
 20
238.501609
 42
-0.075344
  0
VERTEX
  8
0
 10
78.865586
 20
237.365382
 42
-0.047876
  0
VERTEX
  8
0
 10
79.000000
 20
235.964816
 42
0.030524
  0
VERTEX
  8
0
 10
79.069406
 20
234.828976
 42
0.047390
  0
VERTEX
  8
0
 10
79.280398
 20
233.870915
 42
0.060340
  0
VERTEX
  8
0
 10
79.587465
 20
233.204909
 42
0.260208
  0
VERTEX
  8
0
 10
79.954545
 20
233.000000
 42
-0.136446
  0
VERTEX
  8
0
 10
80.469352
 20
232.856848
 42
-0.021006
  0
VERTEX
  8
0
 10
81.363068
 20
232.265625
 42
-0.022135
  0
VERTEX
  8
0
 10
82.381949
 20
231.457237
 42
-0.017608
  0
VERTEX
  8
0
 10
83.409091
 20
230.500000
 42
0.019243
  0
VERTEX
  8
0
 10
84.442894
 20
229.542851
 42
0.023573
  0
VERTEX
  8
0
 10
85.481818
 20
228.734375
 42
0.023009
  0
VERTEX
  8
0
 10
86.400238
 20
228.148092
 42
0.131281
  0
VERTEX
  8
0
 10
86.954545
 20
228.000000
 42
-0.094588
  0
VERTEX
  8
0
 10
87.353602
 20
227.923826
 42
-0.096788
  0
VERTEX
  8
0
 10
87.692898
 20
227.706250
 42
-0.098920
  0
VERTEX
  8
0
 10
87.920022
 20
227.381574
 42
-0.103674
  0
VERTEX
  8
0
 10
88.000000
 20
227.000000
 42
0.148195
  0
VERTEX
  8
0
 10
88.115568
 20
226.618646
 42
0.098894
  0
VERTEX
  8
0
 10
88.440625
 20
226.293750
 42
0.082425
  0
VERTEX
  8
0
 10
88.926543
 20
226.074694
 42
0.064853
  0
VERTEX
  8
0
 10
89.500000
 20
226.000000
 42
-0.064853
  0
VERTEX
  8
0
 10
90.073457
 20
225.925306
 42
-0.082425
  0
VERTEX
  8
0
 10
90.559375
 20
225.706250
 42
-0.098894
  0
VERTEX
  8
0
 10
90.884432
 20
225.381354
 42
-0.148195
  0
VERTEX
  8
0
 10
91.000000
 20
225.000000
 42
0.148195
  0
VERTEX
  8
0
 10
91.115568
 20
224.618646
 42
0.098894
  0
VERTEX
  8
0
 10
91.440625
 20
224.293750
 42
0.082425
  0
VERTEX
  8
0
 10
91.926543
 20
224.074694
 42
0.064853
  0
VERTEX
  8
0
 10
92.500000
 20
224.000000
 42
-0.059467
  0
VERTEX
  8
0
 10
93.073648
 20
223.931531
 42
-0.078370
  0
VERTEX
  8
0
 10
93.559375
 20
223.729590
 42
-0.096736
  0
VERTEX
  8
0
 10
93.884690
 20
223.430573
 42
-0.160000
  0
VERTEX
  8
0
 10
94.000000
 20
223.079455
 42
0.230346
  0
VERTEX
  8
0
 10
94.193748
 20
222.681210
 42
0.045180
  0
VERTEX
  8
0
 10
94.881250
 20
222.235766
 42
0.039605
  0
VERTEX
  8
0
 10
95.850988
 20
221.819532
 42
0.027524
  0
VERTEX
  8
0
 10
97.000000
 20
221.500000
 42
-0.022444
  0
VERTEX
  8
0
 10
98.149322
 20
221.192922
 42
-0.033394
  0
VERTEX
  8
0
 10
99.118750
 20
220.813872
 42
-0.035386
  0
VERTEX
  8
0
 10
99.821260
 20
220.420701
 42
-0.252632
  0
VERTEX
  8
0
 10
100.000000
 20
220.089524
 42
0.191323
  0
VERTEX
  8
0
 10
100.147344
 20
219.718554
 42
0.029619
  0
VERTEX
  8
0
 10
100.734375
 20
219.165706
 42
0.029447
  0
VERTEX
  8
0
 10
101.542601
 20
218.567304
 42
0.021766
  0
VERTEX
  8
0
 10
102.500000
 20
218.000000
 42
-0.050256
  0
VERTEX
  8
0
 10
103.456279
 20
217.357188
 42
-0.050180
  0
VERTEX
  8
0
 10
104.265625
 20
216.536218
 42
-0.054830
  0
VERTEX
  8
0
 10
104.819297
 20
215.669442
 42
-0.115229
  0
VERTEX
  8
0
 10
105.000000
 20
214.895748
 42
0.139593
  0
VERTEX
  8
0
 10
105.234895
 20
214.070789
 42
0.075682
  0
VERTEX
  8
0
 10
105.924523
 20
213.261709
 42
0.058220
  0
VERTEX
  8
0
 10
107.027670
 20
212.510966
 42
0.033579
  0
VERTEX
  8
0
 10
108.500000
 20
211.863840
 42
-0.018895
  0
VERTEX
  8
0
 10
109.840856
 20
211.320867
 42
-0.027614
  0
VERTEX
  8
0
 10
110.971875
 20
210.735259
 42
-0.026408
  0
VERTEX
  8
0
 10
111.808181
 20
210.180403
 42
-0.237366
  0
VERTEX
  8
0
 10
112.000000
 20
209.799112
 42
0.181234
  0
VERTEX
  8
0
 10
112.114313
 20
209.494097
 42
0.091290
  0
VERTEX
  8
0
 10
112.440625
 20
209.234739
 42
0.071236
  0
VERTEX
  8
0
 10
112.926055
 20
209.059046
 42
0.051303
  0
VERTEX
  8
0
 10
113.500000
 20
209.000000
 42
-0.059467
  0
VERTEX
  8
0
 10
114.073648
 20
208.931531
 42
-0.078370
  0
VERTEX
  8
0
 10
114.559375
 20
208.729590
 42
-0.096736
  0
VERTEX
  8
0
 10
114.884690
 20
208.430573
 42
-0.160000
  0
VERTEX
  8
0
 10
115.000000
 20
208.079455
 42
0.230346
  0
VERTEX
  8
0
 10
115.193748
 20
207.681210
 42
0.045180
  0
VERTEX
  8
0
 10
115.881250
 20
207.235766
 42
0.039605
  0
VERTEX
  8
0
 10
116.850988
 20
206.819532
 42
0.027524
  0
VERTEX
  8
0
 10
118.000000
 20
206.500000
 42
-0.025133
  0
VERTEX
  8
0
 10
119.149160
 20
206.186336
 42
-0.036749
  0
VERTEX
  8
0
 10
120.118750
 20
205.787574
 42
-0.040720
  0
VERTEX
  8
0
 10
120.812638
 20
205.366866
 42
-0.240576
  0
VERTEX
  8
0
 10
121.000000
 20
205.000000
 42
0.240576
  0
VERTEX
  8
0
 10
121.187362
 20
204.633134
 42
0.040720
  0
VERTEX
  8
0
 10
121.881250
 20
204.212426
 42
0.036749
  0
VERTEX
  8
0
 10
122.850840
 20
203.813664
 42
0.025133
  0
VERTEX
  8
0
 10
124.000000
 20
203.500000
 42
-0.024581
  0
VERTEX
  8
0
 10
125.149194
 20
203.187689
 42
-0.036073
  0
VERTEX
  8
0
 10
126.118750
 20
202.792971
 42
-0.039651
  0
VERTEX
  8
0
 10
126.814276
 20
202.377944
 42
-0.243006
  0
VERTEX
  8
0
 10
127.000000
 20
202.018370
 42
0.223122
  0
VERTEX
  8
0
 10
127.179408
 20
201.636346
 42
0.033924
  0
VERTEX
  8
0
 10
127.881250
 20
201.130119
 42
0.032530
  0
VERTEX
  8
0
 10
128.850925
 20
200.610400
 42
0.022890
  0
VERTEX
  8
0
 10
130.000000
 20
200.149845
 42
-0.076273
  0
VERTEX
  8
0
 10
132.281335
 20
198.939799
 42
-0.219074
  0
VERTEX
  8
0
 10
133.119474
 20
197.403888
 42
-0.380703
  0
VERTEX
  8
0
 10
132.351449
 20
196.412915
 42
-0.110703
  0
VERTEX
  8
0
 10
130.250000
 20
196.489774
 42
0.025649
  0
VERTEX
  8
0
 10
128.946697
 20
196.761818
 42
0.012904
  0
VERTEX
  8
0
 10
127.279688
 20
196.977528
 42
0.012779
  0
VERTEX
  8
0
 10
125.540786
 20
197.112248
 42
0.018490
  0
VERTEX
  8
0
 10
124.000000
 20
197.135035
 42
-0.030298
  0
VERTEX
  8
0
 10
122.307751
 20
197.200032
 42
-0.012938
  0
VERTEX
  8
0
 10
120.059375
 20
197.482188
 42
-0.012746
  0
VERTEX
  8
0
 10
117.670621
 20
197.907509
 42
-0.016368
  0
VERTEX
  8
0
 10
115.500000
 20
198.425897
 42
0.008910
  0
VERTEX
  8
0
 10
109.815072
 20
199.873521
 42
0.030946
  0
VERTEX
  8
0
 10
106.078411
 20
200.513602
 42
0.049415
  0
VERTEX
  8
0
 10
103.692510
 20
200.535146
 42
0.298229
  0
VERTEX
  8
0
 10
102.767832
 20
199.803495
 42
-0.250082
  0
VERTEX
  8
0
 10
102.171643
 20
199.238055
 42
-0.068754
  0
VERTEX
  8
0
 10
100.845927
 20
199.062670
 42
-0.032947
  0
VERTEX
  8
0
 10
98.555591
 20
199.227008
 42
-0.006285
  0
VERTEX
  8
0
 10
94.425187
 20
199.851551
 42
-0.001693
  0
VERTEX
  8
0
 10
91.235933
 20
200.385966
 42
-0.001969
  0
VERTEX
  8
0
 10
88.207051
 20
200.916345
 42
-0.001748
  0
VERTEX
  8
0
 10
85.647402
 20
201.384196
 42
-0.011801
  0
VERTEX
  8
0
 10
84.386051
 20
201.650250
 42
0.059641
  0
VERTEX
  8
0
 10
83.356435
 20
201.766407
 42
0.138752
  0
VERTEX
  8
0
 10
82.617267
 20
201.551818
 42
0.134953
  0
VERTEX
  8
0
 10
82.087347
 20
200.976357
 42
0.055096
  0
VERTEX
  8
0
 10
81.703696
 20
199.974935
 42
-0.067066
  0
VERTEX
  8
0
 10
81.236452
 20
198.837298
 42
-0.175857
  0
VERTEX
  8
0
 10
80.570765
 20
198.277731
 42
-0.107493
  0
VERTEX
  8
0
 10
79.469596
 20
198.126274
 42
-0.017578
  0
VERTEX
  8
0
 10
77.317645
 20
198.369684
 42
0.006062
  0
VERTEX
  8
0
 10
75.401784
 20
198.631198
 42
0.002217
  0
VERTEX
  8
0
 10
72.685598
 20
198.956241
 42
0.002197
  0
VERTEX
  8
0
 10
69.712820
 20
199.285396
 42
0.002629
  0
VERTEX
  8
0
 10
66.909923
 20
199.568381
 42
0.005110
  0
VERTEX
  8
0
 10
62.636006
 20
199.933156
 42
0.083560
  0
VERTEX
  8
0
 10
61.209660
 20
199.801833
 42
0.260972
  0
VERTEX
  8
0
 10
60.580682
 20
199.193030
 42
0.082552
  0
VERTEX
  8
0
 10
60.409923
 20
197.849371
 42
-0.155936
  0
VERTEX
  8
0
 10
60.034492
 20
196.498408
 42
-0.187520
  0
VERTEX
  8
0
 10
58.968155
 20
195.737750
 42
-0.047383
  0
VERTEX
  8
0
 10
56.482523
 20
195.351417
 42
-0.002916
  0
VERTEX
  8
0
 10
49.000000
 20
194.949466
 42
0.002111
  0
VERTEX
  8
0
 10
44.672949
 20
194.724001
 42
0.004190
  0
VERTEX
  8
0
 10
41.245312
 20
194.502058
 42
0.003525
  0
VERTEX
  8
0
 10
38.753649
 20
194.302070
 42
0.884265
  0
VERTEX
  8
0
 10
38.750000
 20
194.199466
 42
-0.209101
  0
VERTEX
  8
0
 10
39.680393
 20
193.602456
 42
-0.179792
  0
VERTEX
  8
0
 10
39.949883
 20
192.463063
 42
-0.132810
  0
VERTEX
  8
0
 10
39.411313
 20
191.143872
 42
-0.111725
  0
VERTEX
  8
0
 10
38.250000
 20
190.172463
 42
-0.076610
  0
VERTEX
  8
0
 10
37.095480
 20
189.788403
 42
-0.007881
  0
VERTEX
  8
0
 10
34.247624
 20
189.350824
 42
-0.009673
  0
VERTEX
  8
0
 10
30.816750
 20
188.946345
 42
-0.007584
  0
VERTEX
  8
0
 10
27.082337
 20
188.636283
 42
0.005201
  0
VERTEX
  8
0
 10
20.720209
 20
188.138557
 42
0.046815
  0
VERTEX
  8
0
 10
17.973880
 20
187.633027
 42
0.335566
  0
VERTEX
  8
0
 10
17.436369
 20
186.922553
 42
0.259977
  0
VERTEX
  8
0
 10
17.924678
 20
186.046552
 42
-0.095804
  0
VERTEX
  8
0
 10
18.401782
 20
185.606871
 42
-0.080908
  0
VERTEX
  8
0
 10
18.715397
 20
184.995105
 42
-0.079979
  0
VERTEX
  8
0
 10
18.820995
 20
184.308611
 42
-0.090097
  0
VERTEX
  8
0
 10
18.697214
 20
183.653335
 42
-0.188939
  0
VERTEX
  8
0
 10
17.568066
 20
182.416422
 42
-0.038128
  0
VERTEX
  8
0
 10
14.752558
 20
181.287896
 42
-0.030405
  0
VERTEX
  8
0
 10
10.681312
 20
180.273424
 42
-0.013769
  0
VERTEX
  8
0
 10
5.250000
 20
179.419870
 42
0.013048
  0
VERTEX
  8
0
 10
3.237564
 20
179.106576
 42
0.020903
  0
VERTEX
  8
0
 10
1.542187
 20
178.723301
 42
0.016149
  0
VERTEX
  8
0
 10
0.230969
 20
178.322820
 42
0.320899
  0
VERTEX
  8
0
 10
0.000000
 20
178.000000
 42
0.320899
  0
VERTEX
  8
0
 10
0.230969
 20
177.677180
 42
0.016149
  0
VERTEX
  8
0
 10
1.542187
 20
177.276699
 42
0.020903
  0
VERTEX
  8
0
 10
3.237564
 20
176.893424
 42
0.013048
  0
VERTEX
  8
0
 10
5.250000
 20
176.580130
 42
-0.013769
  0
VERTEX
  8
0
 10
10.681312
 20
175.726576
 42
-0.030405
  0
VERTEX
  8
0
 10
14.752558
 20
174.712104
 42
-0.038128
  0
VERTEX
  8
0
 10
17.568066
 20
173.583578
 42
-0.188939
  0
VERTEX
  8
0
 10
18.697214
 20
172.346665
 42
-0.090097
  0
VERTEX
  8
0
 10
18.820995
 20
171.691389
 42
-0.079979
  0
VERTEX
  8
0
 10
18.715397
 20
171.004895
 42
-0.080908
  0
VERTEX
  8
0
 10
18.401782
 20
170.393129
 42
-0.095804
  0
VERTEX
  8
0
 10
17.924678
 20
169.953448
 42
0.259977
  0
VERTEX
  8
0
 10
17.436369
 20
169.077447
 42
0.335566
  0
VERTEX
  8
0
 10
17.973880
 20
168.366973
 42
0.046815
  0
VERTEX
  8
0
 10
20.720209
 20
167.861443
 42
0.005201
  0
VERTEX
  8
0
 10
27.082337
 20
167.363717
 42
-0.007584
  0
VERTEX
  8
0
 10
30.816750
 20
167.053655
 42
-0.009673
  0
VERTEX
  8
0
 10
34.247624
 20
166.649176
 42
-0.007881
  0
VERTEX
  8
0
 10
37.095480
 20
166.211597
 42
-0.076610
  0
VERTEX
  8
0
 10
38.250000
 20
165.827537
 42
-0.111725
  0
VERTEX
  8
0
 10
39.411313
 20
164.856128
 42
-0.132810
  0
VERTEX
  8
0
 10
39.949883
 20
163.536937
 42
-0.179792
  0
VERTEX
  8
0
 10
39.680393
 20
162.397544
 42
-0.209101
  0
VERTEX
  8
0
 10
38.750000
 20
161.800534
 42
0.884265
  0
VERTEX
  8
0
 10
38.753649
 20
161.697930
 42
0.003525
  0
VERTEX
  8
0
 10
41.245312
 20
161.497942
 42
0.004190
  0
VERTEX
  8
0
 10
44.672949
 20
161.275999
 42
0.002111
  0
VERTEX
  8
0
 10
49.000000
 20
161.050534
 42
-0.002916
  0
VERTEX
  8
0
 10
56.482523
 20
160.648583
 42
-0.047383
  0
VERTEX
  8
0
 10
58.968155
 20
160.262250
 42
-0.187520
  0
VERTEX
  8
0
 10
60.034492
 20
159.501592
 42
-0.155936
  0
VERTEX
  8
0
 10
60.409923
 20
158.150629
 42
0.082552
  0
VERTEX
  8
0
 10
60.580682
 20
156.806970
 42
0.260972
  0
VERTEX
  8
0
 10
61.209660
 20
156.198167
 42
0.083560
  0
VERTEX
  8
0
 10
62.636006
 20
156.066844
 42
0.005110
  0
VERTEX
  8
0
 10
66.909923
 20
156.431619
 42
0.002629
  0
VERTEX
  8
0
 10
69.712820
 20
156.714604
 42
0.002197
  0
VERTEX
  8
0
 10
72.685598
 20
157.043759
 42
0.002217
  0
VERTEX
  8
0
 10
75.401784
 20
157.368802
 42
0.006062
  0
VERTEX
  8
0
 10
77.317645
 20
157.630316
 42
-0.017578
  0
VERTEX
  8
0
 10
79.469596
 20
157.873726
 42
-0.107493
  0
VERTEX
  8
0
 10
80.570765
 20
157.722269
 42
-0.175857
  0
VERTEX
  8
0
 10
81.236452
 20
157.162702
 42
-0.067066
  0
VERTEX
  8
0
 10
81.703696
 20
156.025065
 42
0.055096
  0
VERTEX
  8
0
 10
82.087347
 20
155.023643
 42
0.134953
  0
VERTEX
  8
0
 10
82.617267
 20
154.448182
 42
0.138752
  0
VERTEX
  8
0
 10
83.356435
 20
154.233593
 42
0.059641
  0
VERTEX
  8
0
 10
84.386051
 20
154.349750
 42
-0.011801
  0
VERTEX
  8
0
 10
85.647402
 20
154.615804
 42
-0.001748
  0
VERTEX
  8
0
 10
88.207051
 20
155.083655
 42
-0.001969
  0
VERTEX
  8
0
 10
91.235933
 20
155.614034
 42
-0.001693
  0
VERTEX
  8
0
 10
94.425187
 20
156.148449
 42
-0.006285
  0
VERTEX
  8
0
 10
98.555591
 20
156.772992
 42
-0.032947
  0
VERTEX
  8
0
 10
100.845927
 20
156.937330
 42
-0.068754
  0
VERTEX
  8
0
 10
102.171643
 20
156.761945
 42
-0.250082
  0
VERTEX
  8
0
 10
102.767832
 20
156.196505
 42
0.298229
  0
VERTEX
  8
0
 10
103.692510
 20
155.464854
 42
0.049415
  0
VERTEX
  8
0
 10
106.078411
 20
155.486398
 42
0.030946
  0
VERTEX
  8
0
 10
109.815072
 20
156.126479
 42
0.008910
  0
VERTEX
  8
0
 10
115.500000
 20
157.574103
 42
-0.016368
  0
VERTEX
  8
0
 10
117.670621
 20
158.092491
 42
-0.012746
  0
VERTEX
  8
0
 10
120.059375
 20
158.517812
 42
-0.012938
  0
VERTEX
  8
0
 10
122.307751
 20
158.799968
 42
-0.030298
  0
VERTEX
  8
0
 10
124.000000
 20
158.864965
 42
0.018490
  0
VERTEX
  8
0
 10
125.540786
 20
158.887752
 42
0.012779
  0
VERTEX
  8
0
 10
127.279688
 20
159.022472
 42
0.012904
  0
VERTEX
  8
0
 10
128.946697
 20
159.238182
 42
0.025649
  0
VERTEX
  8
0
 10
130.250000
 20
159.510226
 42
-0.110703
  0
VERTEX
  8
0
 10
132.351449
 20
159.587085
 42
-0.380703
  0
VERTEX
  8
0
 10
133.119474
 20
158.596112
 42
-0.219074
  0
VERTEX
  8
0
 10
132.281335
 20
157.060201
 42
-0.076273
  0
VERTEX
  8
0
 10
130.000000
 20
155.850155
 42
0.022890
  0
VERTEX
  8
0
 10
128.850925
 20
155.389600
 42
0.032530
  0
VERTEX
  8
0
 10
127.881250
 20
154.869881
 42
0.033924
  0
VERTEX
  8
0
 10
127.179408
 20
154.363654
 42
0.223122
  0
VERTEX
  8
0
 10
127.000000
 20
153.981630
 42
-0.243006
  0
VERTEX
  8
0
 10
126.814276
 20
153.622056
 42
-0.039651
  0
VERTEX
  8
0
 10
126.118750
 20
153.207029
 42
-0.036073
  0
VERTEX
  8
0
 10
125.149194
 20
152.812311
 42
-0.024581
  0
VERTEX
  8
0
 10
124.000000
 20
152.500000
 42
0.025133
  0
VERTEX
  8
0
 10
122.850840
 20
152.186336
 42
0.036749
  0
VERTEX
  8
0
 10
121.881250
 20
151.787574
 42
0.040720
  0
VERTEX
  8
0
 10
121.187362
 20
151.366866
 42
0.240576
  0
VERTEX
  8
0
 10
121.000000
 20
151.000000
 42
-0.240576
  0
VERTEX
  8
0
 10
120.812638
 20
150.633134
 42
-0.040720
  0
VERTEX
  8
0
 10
120.118750
 20
150.212426
 42
-0.036749
  0
VERTEX
  8
0
 10
119.149160
 20
149.813664
 42
-0.025133
  0
VERTEX
  8
0
 10
118.000000
 20
149.500000
 42
0.027524
  0
VERTEX
  8
0
 10
116.850988
 20
149.180468
 42
0.039605
  0
VERTEX
  8
0
 10
115.881250
 20
148.764234
 42
0.045180
  0
VERTEX
  8
0
 10
115.193748
 20
148.318790
 42
0.230346
  0
VERTEX
  8
0
 10
115.000000
 20
147.920545
 42
-0.160000
  0
VERTEX
  8
0
 10
114.884690
 20
147.569427
 42
-0.096736
  0
VERTEX
  8
0
 10
114.559375
 20
147.270410
 42
-0.078370
  0
VERTEX
  8
0
 10
114.073648
 20
147.068469
 42
-0.059467
  0
VERTEX
  8
0
 10
113.500000
 20
147.000000
 42
0.051303
  0
VERTEX
  8
0
 10
112.926055
 20
146.940954
 42
0.071236
  0
VERTEX
  8
0
 10
112.440625
 20
146.765261
 42
0.091290
  0
VERTEX
  8
0
 10
112.114313
 20
146.505903
 42
0.181234
  0
VERTEX
  8
0
 10
112.000000
 20
146.200888
 42
-0.237366
  0
VERTEX
  8
0
 10
111.808181
 20
145.819597
 42
-0.026408
  0
VERTEX
  8
0
 10
110.971875
 20
145.264741
 42
-0.027614
  0
VERTEX
  8
0
 10
109.840856
 20
144.679133
 42
-0.018895
  0
VERTEX
  8
0
 10
108.500000
 20
144.136160
 42
0.033579
  0
VERTEX
  8
0
 10
107.027670
 20
143.489034
 42
0.058220
  0
VERTEX
  8
0
 10
105.924523
 20
142.738291
 42
0.075682
  0
VERTEX
  8
0
 10
105.234895
 20
141.929211
 42
0.139593
  0
VERTEX
  8
0
 10
105.000000
 20
141.104252
 42
-0.115229
  0
VERTEX
  8
0
 10
104.819297
 20
140.330558
 42
-0.054830
  0
VERTEX
  8
0
 10
104.265625
 20
139.463782
 42
-0.050180
  0
VERTEX
  8
0
 10
103.456279
 20
138.642812
 42
-0.050256
  0
VERTEX
  8
0
 10
102.500000
 20
138.000000
 42
0.021766
  0
VERTEX
  8
0
 10
101.542601
 20
137.432696
 42
0.029447
  0
VERTEX
  8
0
 10
100.734375
 20
136.834294
 42
0.029619
  0
VERTEX
  8
0
 10
100.147344
 20
136.281446
 42
0.191323
  0
VERTEX
  8
0
 10
100.000000
 20
135.910476
 42
-0.252632
  0
VERTEX
  8
0
 10
99.821260
 20
135.579299
 42
-0.035386
  0
VERTEX
  8
0
 10
99.118750
 20
135.186128
 42
-0.033394
  0
VERTEX
  8
0
 10
98.149322
 20
134.807078
 42
-0.022444
  0
VERTEX
  8
0
 10
97.000000
 20
134.500000
 42
0.027524
  0
VERTEX
  8
0
 10
95.850988
 20
134.180468
 42
0.039605
  0
VERTEX
  8
0
 10
94.881250
 20
133.764234
 42
0.045180
  0
VERTEX
  8
0
 10
94.193748
 20
133.318790
 42
0.230346
  0
VERTEX
  8
0
 10
94.000000
 20
132.920545
 42
-0.160000
  0
VERTEX
  8
0
 10
93.884690
 20
132.569427
 42
-0.096736
  0
VERTEX
  8
0
 10
93.559375
 20
132.270410
 42
-0.078370
  0
VERTEX
  8
0
 10
93.073648
 20
132.068469
 42
-0.059467
  0
VERTEX
  8
0
 10
92.500000
 20
132.000000
 42
0.064853
  0
VERTEX
  8
0
 10
91.926543
 20
131.925306
 42
0.082425
  0
VERTEX
  8
0
 10
91.440625
 20
131.706250
 42
0.098894
  0
VERTEX
  8
0
 10
91.115568
 20
131.381354
 42
0.148195
  0
VERTEX
  8
0
 10
91.000000
 20
131.000000
 42
-0.148195
  0
VERTEX
  8
0
 10
90.884432
 20
130.618646
 42
-0.098894
  0
VERTEX
  8
0
 10
90.559375
 20
130.293750
 42
-0.082425
  0
VERTEX
  8
0
 10
90.073457
 20
130.074694
 42
-0.064853
  0
VERTEX
  8
0
 10
89.500000
 20
130.000000
 42
0.064853
  0
VERTEX
  8
0
 10
88.926543
 20
129.925306
 42
0.082425
  0
VERTEX
  8
0
 10
88.440625
 20
129.706250
 42
0.098894
  0
VERTEX
  8
0
 10
88.115568
 20
129.381354
 42
0.148195
  0
VERTEX
  8
0
 10
88.000000
 20
129.000000
 42
-0.103674
  0
VERTEX
  8
0
 10
87.920022
 20
128.618426
 42
-0.098920
  0
VERTEX
  8
0
 10
87.692898
 20
128.293750
 42
-0.096788
  0
VERTEX
  8
0
 10
87.353602
 20
128.076174
 42
-0.094588
  0
VERTEX
  8
0
 10
86.954545
 20
128.000000
 42
0.131281
  0
VERTEX
  8
0
 10
86.400238
 20
127.851908
 42
0.023009
  0
VERTEX
  8
0
 10
85.481818
 20
127.265625
 42
0.023573
  0
VERTEX
  8
0
 10
84.442894
 20
126.457149
 42
0.019243
  0
VERTEX
  8
0
 10
83.409091
 20
125.500000
 42
-0.017608
  0
VERTEX
  8
0
 10
82.381949
 20
124.542763
 42
-0.022135
  0
VERTEX
  8
0
 10
81.363068
 20
123.734375
 42
-0.021006
  0
VERTEX
  8
0
 10
80.469352
 20
123.143152
 42
-0.136446
  0
VERTEX
  8
0
 10
79.954545
 20
123.000000
 42
0.260208
  0
VERTEX
  8
0
 10
79.587465
 20
122.795091
 42
0.060340
  0
VERTEX
  8
0
 10
79.280398
 20
122.129085
 42
0.047390
  0
VERTEX
  8
0
 10
79.069406
 20
121.171024
 42
0.030524
  0
VERTEX
  8
0
 10
79.000000
 20
120.035184
 42
-0.047876
  0
VERTEX
  8
0
 10
78.865586
 20
118.634618
 42
-0.075344
  0
VERTEX
  8
0
 10
78.461408
 20
117.498391
 42
-0.081256
  0
VERTEX
  8
0
 10
77.766635
 20
116.592609
 42
-0.065826
  0
VERTEX
  8
0
 10
76.770636
 20
115.877248
 42
0.018204
  0
VERTEX
  8
0
 10
75.818884
 20
115.322408
 42
0.013276
  0
VERTEX
  8
0
 10
74.801916
 20
114.640376
 42
0.013447
  0
VERTEX
  8
0
 10
73.871211
 20
113.941332
 42
0.028584
  0
VERTEX
  8
0
 10
73.199207
 20
113.342064
 42
-0.046359
  0
VERTEX
  8
0
 10
72.580339
 20
112.828427
 42
-0.037270
  0
VERTEX
  8
0
 10
71.831731
 20
112.394231
 42
-0.038557
  0
VERTEX
  8
0
 10
71.072744
 20
112.096346
 42
-0.074369
  0
VERTEX
  8
0
 10
70.428571
 20
112.000000
 42
0.104136
  0
VERTEX
  8
0
 10
69.883474
 20
111.885227
 42
0.099005
  0
VERTEX
  8
0
 10
69.419643
 20
111.559375
 42
0.096665
  0
VERTEX
  8
0
 10
69.108796
 20
111.072570
 42
0.094164
  0
VERTEX
  8
0
 10
69.000000
 20
110.500000
 42
-0.083939
  0
VERTEX
  8
0
 10
68.903150
 20
109.927159
 42
-0.093058
  0
VERTEX
  8
0
 10
68.624223
 20
109.440625
 42
-0.100516
  0
VERTEX
  8
0
 10
68.208707
 20
109.115266
 42
-0.116509
  0
VERTEX
  8
0
 10
67.720759
 20
109.000000
 42
0.115942
  0
VERTEX
  8
0
 10
67.128761
 20
108.860855
 42
0.043072
  0
VERTEX
  8
0
 10
66.393849
 20
108.412500
 42
0.039803
  0
VERTEX
  8
0
 10
65.646083
 20
107.765268
 42
0.038332
  0
VERTEX
  8
0
 10
65.000000
 20
107.000000
 42
-0.024702
  0
VERTEX
  8
0
 10
64.388505
 20
106.234340
 42
-0.030445
  0
VERTEX
  8
0
 10
63.743234
 20
105.587500
 42
-0.031553
  0
VERTEX
  8
0
 10
63.150732
 20
105.125131
 42
-0.151025
  0
VERTEX
  8
0
 10
62.745907
 20
105.000000
 42
0.158217
  0
VERTEX
  8
0
 10
62.274858
 20
104.847117
 42
0.012774
  0
VERTEX
  8
0
 10
61.227131
 20
104.045312
 42
0.016221
  0
VERTEX
  8
0
 10
60.008004
 20
102.994905
 42
0.011731
  0
VERTEX
  8
0
 10
58.716667
 20
101.750000
 42
0.027031
  0
VERTEX
  8
0
 10
57.292647
 20
100.146536
 42
0.049877
  0
VERTEX
  8
0
 10
56.349017
 20
98.682339
 42
0.062090
  0
VERTEX
  8
0
 10
55.851121
 20
97.313186
 42
0.083829
  0
VERTEX
  8
0
 10
55.775532
 20
96.000000
 42
-0.133228
  0
VERTEX
  8
0
 10
55.442782
 20
93.872198
 42
-0.043913
  0
VERTEX
  8
0
 10
53.889856
 20
91.081487
 42
-0.042551
  0
VERTEX
  8
0
 10
51.942335
 20
88.676173
 42
-0.204046
  0
VERTEX
  8
0
 10
50.354410
 20
88.000000
 42
0.142200
  0
VERTEX
  8
0
 10
49.908423
 20
87.870544
 42
0.034808
  0
VERTEX
  8
0
 10
49.286234
 20
87.412500
 42
0.032863
  0
VERTEX
  8
0
 10
48.618901
 20
86.765553
 42
0.027678
  0
VERTEX
  8
0
 10
48.000000
 20
86.000000
 42
-0.038332
  0
VERTEX
  8
0
 10
47.353917
 20
85.234732
 42
-0.039803
  0
VERTEX
  8
0
 10
46.606151
 20
84.587500
 42
-0.043072
  0
VERTEX
  8
0
 10
45.871239
 20
84.139145
 42
-0.115942
  0
VERTEX
  8
0
 10
45.279241
 20
84.000000
 42
0.082368
  0
VERTEX
  8
0
 10
44.790667
 20
83.918964
 42
0.092384
  0
VERTEX
  8
0
 10
44.375777
 20
83.685268
 42
0.100638
  0
VERTEX
  8
0
 10
44.098357
 20
83.337234
 42
0.118646
  0
VERTEX
  8
0
 10
44.000000
 20
82.928571
 42
-0.145648
  0
VERTEX
  8
0
 10
43.696506
 20
81.908799
 42
-0.037328
  0
VERTEX
  8
0
 10
42.639364
 20
80.527244
 42
-0.036399
  0
VERTEX
  8
0
 10
41.403965
 20
79.328691
 42
-0.176163
  0
VERTEX
  8
0
 10
40.500000
 20
79.000000
 42
0.176163
  0
VERTEX
  8
0
 10
39.596035
 20
78.671309
 42
0.036399
  0
VERTEX
  8
0
 10
38.360636
 20
77.472756
 42
0.037328
  0
VERTEX
  8
0
 10
37.303494
 20
76.091201
 42
0.145648
  0
VERTEX
  8
0
 10
37.000000
 20
75.071429
 42
-0.081950
  0
VERTEX
  8
0
 10
36.932477
 20
74.662215
 42
-0.092199
  0
VERTEX
  8
0
 10
36.737678
 20
74.314732
 42
-0.100664
  0
VERTEX
  8
0
 10
36.447596
 20
74.082390
 42
-0.119227
  0
VERTEX
  8
0
 10
36.106989
 20
74.000000
 42
0.238418
  0
VERTEX
  8
0
 10
35.196280
 20
73.539569
 42
0.095114
  0
VERTEX
  8
0
 10
34.577074
 20
72.240998
 42
0.088140
  0
VERTEX
  8
0
 10
34.455702
 20
70.716834
 42
0.173984
  0
VERTEX
  8
0
 10
34.967217
 20
69.632783
 42
-0.095302
  0
VERTEX
  8
0
 10
35.746796
 20
68.481872
 42
-0.135243
  0
VERTEX
  8
0
 10
35.914126
 20
67.263480
 42
-0.103035
  0
VERTEX
  8
0
 10
35.431044
 20
65.887847
 42
-0.040325
  0
VERTEX
  8
0
 10
34.250000
 20
64.246281
 42
0.006921
  0
VERTEX
  8
0
 10
33.473171
 20
63.305882
 42
0.004238
  0
VERTEX
  8
0
 10
32.582027
 20
62.176692
 42
0.004248
  0
VERTEX
  8
0
 10
31.718504
 20
61.043472
 42
0.007542
  0
VERTEX
  8
0
 10
31.029241
 20
60.093271
 42
-0.025144
  0
VERTEX
  8
0
 10
30.403754
 20
59.291910
 42
-0.031010
  0
VERTEX
  8
0
 10
29.740633
 20
58.614898
 42
-0.032288
  0
VERTEX
  8
0
 10
29.129517
 20
58.131525
 42
-0.152326
  0
VERTEX
  8
0
 10
28.707812
 20
58.000000
 42
0.161617
  0
VERTEX
  8
0
 10
27.690665
 20
57.662406
 42
0.043371
  0
VERTEX
  8
0
 10
26.401918
 20
56.514613
 42
0.043673
  0
VERTEX
  8
0
 10
25.323249
 20
55.150876
 42
0.146515
  0
VERTEX
  8
0
 10
25.000000
 20
54.071429
 42
-0.092210
  0
VERTEX
  8
0
 10
24.923923
 20
53.662416
 42
-0.096076
  0
VERTEX
  8
0
 10
24.706250
 20
53.314732
 42
-0.099376
  0
VERTEX
  8
0
 10
24.381541
 20
53.082053
 42
-0.106313
  0
VERTEX
  8
0
 10
24.000000
 20
53.000000
 42
0.148195
  0
VERTEX
  8
0
 10
23.618646
 20
52.884432
 42
0.098894
  0
VERTEX
  8
0
 10
23.293750
 20
52.559375
 42
0.082425
  0
VERTEX
  8
0
 10
23.074694
 20
52.073457
 42
0.064853
  0
VERTEX
  8
0
 10
23.000000
 20
51.500000
 42
-0.099038
  0
VERTEX
  8
0
 10
22.885486
 20
50.927543
 42
-0.097945
  0
VERTEX
  8
0
 10
22.559375
 20
50.440625
 42
-0.097945
  0
VERTEX
  8
0
 10
22.072457
 20
50.114514
 42
-0.099038
  0
VERTEX
  8
0
 10
21.500000
 20
50.000000
 42
0.099038
  0
VERTEX
  8
0
 10
20.927543
 20
49.885486
 42
0.097945
  0
VERTEX
  8
0
 10
20.440625
 20
49.559375
 42
0.097945
  0
VERTEX
  8
0
 10
20.114514
 20
49.072457
 42
0.099038
  0
VERTEX
  8
0
 10
20.000000
 20
48.500000
 42
-0.056643
  0
VERTEX
  8
0
 10
19.934793
 20
47.926250
 42
-0.076039
  0
VERTEX
  8
0
 10
19.741888
 20
47.440625
 42
-0.095179
  0
VERTEX
  8
0
 10
19.456528
 20
47.115064
 42
-0.166853
  0
VERTEX
  8
0
 10
19.121320
 20
47.000000
 42
0.213405
  0
VERTEX
  8
0
 10
18.702132
 20
46.812550
 42
0.031434
  0
VERTEX
  8
0
 10
18.113322
 20
46.064660
 42
0.030852
  0
VERTEX
  8
0
 10
17.492984
 20
45.035420
 42
0.022011
  0
VERTEX
  8
0
 10
16.923728
 20
43.815864
 42
0.016584
  0
VERTEX
  8
0
 10
16.321860
 20
42.214604
 42
0.073262
  0
VERTEX
  8
0
 10
16.141867
 20
41.226066
 42
0.154028
  0
VERTEX
  8
0
 10
16.313569
 20
40.610000
 42
0.169491
  0
VERTEX
  8
0
 10
16.802408
 20
40.232531
 42
-0.121047
  0
VERTEX
  8
0
 10
17.260491
 20
39.943628
 42
-0.068925
  0
VERTEX
  8
0
 10
17.648207
 20
39.411382
 42
-0.062346
  0
VERTEX
  8
0
 10
17.910713
 20
38.729340
 42
-0.060794
  0
VERTEX
  8
0
 10
18.000000
 20
37.997706
 42
-0.096366
  0
VERTEX
  8
0
 10
17.623117
 20
36.060388
 42
-0.026132
  0
VERTEX
  8
0
 10
16.296414
 20
33.216724
 42
-0.020233
  0
VERTEX
  8
0
 10
14.737909
 20
30.552145
 42
-0.253390
  0
VERTEX
  8
0
 10
13.750000
 20
30.006323
 42
0.190186
  0
VERTEX
  8
0
 10
13.463553
 20
29.890477
 42
0.087379
  0
VERTEX
  8
0
 10
13.220313
 20
29.561232
 42
0.067632
  0
VERTEX
  8
0
 10
13.055281
 20
29.074521
 42
0.048000
  0
VERTEX
  8
0
 10
13.000000
 20
28.500000
 42
-0.064853
  0
VERTEX
  8
0
 10
12.925306
 20
27.926543
 42
-0.082425
  0
VERTEX
  8
0
 10
12.706250
 20
27.440625
 42
-0.098894
  0
VERTEX
  8
0
 10
12.381354
 20
27.115568
 42
-0.148195
  0
VERTEX
  8
0
 10
12.000000
 20
27.000000
 42
0.148195
  0
VERTEX
  8
0
 10
11.618646
 20
26.884432
 42
0.098894
  0
VERTEX
  8
0
 10
11.293750
 20
26.559375
 42
0.082425
  0
VERTEX
  8
0
 10
11.074694
 20
26.073457
 42
0.064853
  0
VERTEX
  8
0
 10
11.000000
 20
25.500000
 42
-0.064853
  0
VERTEX
  8
0
 10
10.925306
 20
24.926543
 42
-0.082425
  0
VERTEX
  8
0
 10
10.706250
 20
24.440625
 42
-0.098894
  0
VERTEX
  8
0
 10
10.381354
 20
24.115568
 42
-0.148195
  0
VERTEX
  8
0
 10
10.000000
 20
24.000000
 42
0.148195
  0
VERTEX
  8
0
 10
9.618646
 20
23.884432
 42
0.098894
  0
VERTEX
  8
0
 10
9.293750
 20
23.559375
 42
0.082425
  0
VERTEX
  8
0
 10
9.074694
 20
23.073457
 42
0.064853
  0
VERTEX
  8
0
 10
9.000000
 20
22.500000
 42
-0.064853
  0
VERTEX
  8
0
 10
8.925306
 20
21.926543
 42
-0.082425
  0
VERTEX
  8
0
 10
8.706250
 20
21.440625
 42
-0.098894
  0
VERTEX
  8
0
 10
8.381354
 20
21.115568
 42
-0.148195
  0
VERTEX
  8
0
 10
8.000000
 20
21.000000
 42
0.112508
  0
VERTEX
  8
0
 10
7.618528
 20
20.913062
 42
0.100182
  0
VERTEX
  8
0
 10
7.293750
 20
20.667268
 42
0.094286
  0
VERTEX
  8
0
 10
7.075852
 20
20.299803
 42
0.087025
  0
VERTEX
  8
0
 10
7.000000
 20
19.867295
 42
-0.110376
  0
VERTEX
  8
0
 10
6.878085
 20
19.321751
 42
-0.035301
  0
VERTEX
  8
0
 10
6.469746
 20
18.592242
 42
-0.033263
  0
VERTEX
  8
0
 10
5.885688
 20
17.819740
 42
-0.031599
  0
VERTEX
  8
0
 10
5.194880
 20
17.117295
 42
0.048025
  0
VERTEX
  8
0
 10
4.405609
 20
16.260241
 42
0.020597
  0
VERTEX
  8
0
 10
3.517064
 20
14.981004
 42
0.020154
  0
VERTEX
  8
0
 10
2.675527
 20
13.530117
 42
0.025051
  0
VERTEX
  8
0
 10
2.018017
 20
12.115909
 42
0.015618
  0
VERTEX
  8
0
 10
1.292040
 20
10.150765
 42
0.097489
  0
VERTEX
  8
0
 10
1.155510
 20
9.092278
 42
0.157934
  0
VERTEX
  8
0
 10
1.467055
 20
8.310835
 42
0.061772
  0
VERTEX
  8
0
 10
2.323137
 20
7.505667
 42
-0.040197
  0
VERTEX
  8
0
 10
2.964736
 20
6.952270
 42
-0.040558
  0
VERTEX
  8
0
 10
3.507422
 20
6.304893
 42
-0.043763
  0
VERTEX
  8
0
 10
3.882412
 20
5.663580
 42
-0.110861
  0
VERTEX
  8
0
 10
4.000000
 20
5.139757
 42
0.099038
  0
VERTEX
  8
0
 10
4.087012
 20
4.704782
 42
0.097945
  0
VERTEX
  8
0
 10
4.334804
 20
4.334804
 42
0.097945
  0
VERTEX
  8
0
 10
4.704782
 20
4.087012
 42
0.099038
  0
VERTEX
  8
0
 10
5.139757
 20
4.000000
 42
-0.110861
  0
VERTEX
  8
0
 10
5.663580
 20
3.882412
 42
-0.043763
  0
VERTEX
  8
0
 10
6.304893
 20
3.507422
 42
-0.040558
  0
VERTEX
  8
0
 10
6.952270
 20
2.964736
 42
-0.040197
  0
VERTEX
  8
0
 10
7.505667
 20
2.323137
 42
0.061772
  0
VERTEX
  8
0
 10
8.310835
 20
1.467055
 42
0.157934
  0
VERTEX
  8
0
 10
9.092278
 20
1.155510
 42
0.097489
  0
VERTEX
  8
0
 10
10.150765
 20
1.292040
 42
0.015618
  0
VERTEX
  8
0
 10
12.115909
 20
2.018017
 42
0.025051
  0
VERTEX
  8
0
 10
13.530117
 20
2.675527
 42
0.020154
  0
VERTEX
  8
0
 10
14.981004
 20
3.517064
 42
0.020597
  0
VERTEX
  8
0
 10
16.260241
 20
4.405609
 42
0.048025
  0
VERTEX
  8
0
 10
17.117295
 20
5.194880
 42
-0.031599
  0
VERTEX
  8
0
 10
17.819740
 20
5.885688
 42
-0.033263
  0
VERTEX
  8
0
 10
18.592242
 20
6.469746
 42
-0.035301
  0
VERTEX
  8
0
 10
19.321751
 20
6.878085
 42
-0.110376
  0
VERTEX
  8
0
 10
19.867295
 20
7.000000
 42
0.087025
  0
VERTEX
  8
0
 10
20.299803
 20
7.075852
 42
0.094286
  0
VERTEX
  8
0
 10
20.667268
 20
7.293750
 42
0.100182
  0
VERTEX
  8
0
 10
20.913062
 20
7.618528
 42
0.112508
  0
VERTEX
  8
0
 10
21.000000
 20
8.000000
 42
-0.148195
  0
VERTEX
  8
0
 10
21.115568
 20
8.381354
 42
-0.098894
  0
VERTEX
  8
0
 10
21.440625
 20
8.706250
 42
-0.082425
  0
VERTEX
  8
0
 10
21.926543
 20
8.925306
 42
-0.064853
  0
VERTEX
  8
0
 10
22.500000
 20
9.000000
 42
0.064853
  0
VERTEX
  8
0
 10
23.073457
 20
9.074694
 42
0.082425
  0
VERTEX
  8
0
 10
23.559375
 20
9.293750
 42
0.098894
  0
VERTEX
  8
0
 10
23.884432
 20
9.618646
 42
0.148195
  0
VERTEX
  8
0
 10
24.000000
 20
10.000000
 42
-0.148195
  0
VERTEX
  8
0
 10
24.115568
 20
10.381354
 42
-0.098894
  0
VERTEX
  8
0
 10
24.440625
 20
10.706250
 42
-0.082425
  0
VERTEX
  8
0
 10
24.926543
 20
10.925306
 42
-0.064853
  0
VERTEX
  8
0
 10
25.500000
 20
11.000000
 42
0.064853
  0
VERTEX
  8
0
 10
26.073457
 20
11.074694
 42
0.082425
  0
VERTEX
  8
0
 10
26.559375
 20
11.293750
 42
0.098894
  0
VERTEX
  8
0
 10
26.884432
 20
11.618646
 42
0.148195
  0
VERTEX
  8
0
 10
27.000000
 20
12.000000
 42
-0.148195
  0
VERTEX
  8
0
 10
27.115568
 20
12.381354
 42
-0.098894
  0
VERTEX
  8
0
 10
27.440625
 20
12.706250
 42
-0.082425
  0
VERTEX
  8
0
 10
27.926543
 20
12.925306
 42
-0.064853
  0
VERTEX
  8
0
 10
28.500000
 20
13.000000
 42
0.048000
  0
VERTEX
  8
0
 10
29.074521
 20
13.055281
 42
0.067632
  0
VERTEX
  8
0
 10
29.561232
 20
13.220313
 42
0.087379
  0
VERTEX
  8
0
 10
29.890477
 20
13.463553
 42
0.190186
  0
VERTEX
  8
0
 10
30.006323
 20
13.750000
 42
-0.253390
  0
VERTEX
  8
0
 10
30.552145
 20
14.737909
 42
-0.020233
  0
VERTEX
  8
0
 10
33.216724
 20
16.296414
 42
-0.026132
  0
VERTEX
  8
0
 10
36.060388
 20
17.623117
 42
-0.096366
  0
VERTEX
  8
0
 10
37.997706
 20
18.000000
 42
-0.060794
  0
VERTEX
  8
0
 10
38.729340
 20
17.910713
 42
-0.062346
  0
VERTEX
  8
0
 10
39.411382
 20
17.648207
 42
-0.068925
  0
VERTEX
  8
0
 10
39.943628
 20
17.260491
 42
-0.121047
  0
VERTEX
  8
0
 10
40.232531
 20
16.802408
 42
0.169491
  0
VERTEX
  8
0
 10
40.610000
 20
16.313569
 42
0.154028
  0
VERTEX
  8
0
 10
41.226066
 20
16.141867
 42
0.073262
  0
VERTEX
  8
0
 10
42.214604
 20
16.321860
 42
0.016584
  0
VERTEX
  8
0
 10
43.815864
 20
16.923728
 42
0.022011
  0
VERTEX
  8
0
 10
45.035420
 20
17.492984
 42
0.030852
  0
VERTEX
  8
0
 10
46.064660
 20
18.113322
 42
0.031434
  0
VERTEX
  8
0
 10
46.812550
 20
18.702132
 42
0.213405
  0
VERTEX
  8
0
 10
47.000000
 20
19.121320
 42
-0.166853
  0
VERTEX
  8
0
 10
47.115064
 20
19.456528
 42
-0.095179
  0
VERTEX
  8
0
 10
47.440625
 20
19.741888
 42
-0.076039
  0
VERTEX
  8
0
 10
47.926250
 20
19.934793
 42
-0.056643
  0
VERTEX
  8
0
 10
48.500000
 20
20.000000
 42
0.099038
  0
VERTEX
  8
0
 10
49.072457
 20
20.114514
 42
0.097945
  0
VERTEX
  8
0
 10
49.559375
 20
20.440625
 42
0.097945
  0
VERTEX
  8
0
 10
49.885486
 20
20.927543
 42
0.099038
  0
VERTEX
  8
0
 10
50.000000
 20
21.500000
 42
-0.099038
  0
VERTEX
  8
0
 10
50.114514
 20
22.072457
 42
-0.097945
  0
VERTEX
  8
0
 10
50.440625
 20
22.559375
 42
-0.097945
  0
VERTEX
  8
0
 10
50.927543
 20
22.885486
 42
-0.099038
  0
VERTEX
  8
0
 10
51.500000
 20
23.000000
 42
0.064853
  0
VERTEX
  8
0
 10
52.073457
 20
23.074694
 42
0.082425
  0
VERTEX
  8
0
 10
52.559375
 20
23.293750
 42
0.098894
  0
VERTEX
  8
0
 10
52.884432
 20
23.618646
 42
0.148195
  0
VERTEX
  8
0
 10
53.000000
 20
24.000000
 42
-0.106313
  0
VERTEX
  8
0
 10
53.082053
 20
24.381541
 42
-0.099376
  0
VERTEX
  8
0
 10
53.314732
 20
24.706250
 42
-0.096076
  0
VERTEX
  8
0
 10
53.662416
 20
24.923923
 42
-0.092210
  0
VERTEX
  8
0
 10
54.071429
 20
25.000000
 42
0.146515
  0
VERTEX
  8
0
 10
55.150876
 20
25.323249
 42
0.043673
  0
VERTEX
  8
0
 10
56.514613
 20
26.401918
 42
0.043371
  0
VERTEX
  8
0
 10
57.662406
 20
27.690665
 42
0.161617
  0
VERTEX
  8
0
 10
58.000000
 20
28.707812
 42
-0.152326
  0
VERTEX
  8
0
 10
58.131525
 20
29.129517
 42
-0.032288
  0
VERTEX
  8
0
 10
58.614898
 20
29.740633
 42
-0.031010
  0
VERTEX
  8
0
 10
59.291910
 20
30.403754
 42
-0.025144
  0
VERTEX
  8
0
 10
60.093271
 20
31.029241
 42
0.007542
  0
VERTEX
  8
0
 10
61.043472
 20
31.718504
 42
0.004248
  0
VERTEX
  8
0
 10
62.176692
 20
32.582027
 42
0.004238
  0
VERTEX
  8
0
 10
63.305882
 20
33.473171
 42
0.006921
  0
VERTEX
  8
0
 10
64.246281
 20
34.250000
 42
-0.040325
  0
VERTEX
  8
0
 10
65.887847
 20
35.431044
 42
-0.103035
  0
VERTEX
  8
0
 10
67.263480
 20
35.914126
 42
-0.135243
  0
VERTEX
  8
0
 10
68.481872
 20
35.746796
 42
-0.095302
  0
VERTEX
  8
0
 10
69.632783
 20
34.967217
 42
0.173984
  0
VERTEX
  8
0
 10
70.716834
 20
34.455702
 42
0.088140
  0
VERTEX
  8
0
 10
72.240998
 20
34.577074
 42
0.095114
  0
VERTEX
  8
0
 10
73.539569
 20
35.196280
 42
0.238418
  0
VERTEX
  8
0
 10
74.000000
 20
36.106989
 42
-0.119227
  0
VERTEX
  8
0
 10
74.082390
 20
36.447596
 42
-0.100664
  0
VERTEX
  8
0
 10
74.314732
 20
36.737678
 42
-0.092199
  0
VERTEX
  8
0
 10
74.662215
 20
36.932477
 42
-0.081950
  0
VERTEX
  8
0
 10
75.071429
 20
37.000000
 42
0.145648
  0
VERTEX
  8
0
 10
76.091201
 20
37.303494
 42
0.037328
  0
VERTEX
  8
0
 10
77.472756
 20
38.360636
 42
0.036399
  0
VERTEX
  8
0
 10
78.671309
 20
39.596035
 42
0.176163
  0
VERTEX
  8
0
 10
79.000000
 20
40.500000
 42
-0.176163
  0
VERTEX
  8
0
 10
79.328691
 20
41.403965
 42
-0.036399
  0
VERTEX
  8
0
 10
80.527244
 20
42.639364
 42
-0.037328
  0
VERTEX
  8
0
 10
81.908799
 20
43.696506
 42
-0.145648
  0
VERTEX
  8
0
 10
82.928571
 20
44.000000
 42
0.118646
  0
VERTEX
  8
0
 10
83.337234
 20
44.098357
 42
0.100638
  0
VERTEX
  8
0
 10
83.685268
 20
44.375777
 42
0.092384
  0
VERTEX
  8
0
 10
83.918964
 20
44.790667
 42
0.082368
  0
VERTEX
  8
0
 10
84.000000
 20
45.279241
 42
-0.115942
  0
VERTEX
  8
0
 10
84.139145
 20
45.871239
 42
-0.043072
  0
VERTEX
  8
0
 10
84.587500
 20
46.606151
 42
-0.039803
  0
VERTEX
  8
0
 10
85.234732
 20
47.353917
 42
-0.038332
  0
VERTEX
  8
0
 10
86.000000
 20
48.000000
 42
0.027678
  0
VERTEX
  8
0
 10
86.765553
 20
48.618901
 42
0.032863
  0
VERTEX
  8
0
 10
87.412500
 20
49.286234
 42
0.034808
  0
VERTEX
  8
0
 10
87.870544
 20
49.908423
 42
0.142200
  0
VERTEX
  8
0
 10
88.000000
 20
50.354410
 42
-0.204046
  0
VERTEX
  8
0
 10
88.676173
 20
51.942335
 42
-0.042551
  0
VERTEX
  8
0
 10
91.081487
 20
53.889856
 42
-0.043913
  0
VERTEX
  8
0
 10
93.872198
 20
55.442782
 42
-0.133228
  0
VERTEX
  8
0
 10
96.000000
 20
55.775532
 42
0.083829
  0
VERTEX
  8
0
 10
97.313186
 20
55.851121
 42
0.062090
  0
VERTEX
  8
0
 10
98.682339
 20
56.349017
 42
0.049877
  0
VERTEX
  8
0
 10
100.146536
 20
57.292647
 42
0.027031
  0
VERTEX
  8
0
 10
101.750000
 20
58.716667
 42
0.011731
  0
VERTEX
  8
0
 10
102.994905
 20
60.008004
 42
0.016221
  0
VERTEX
  8
0
 10
104.045312
 20
61.227131
 42
0.012774
  0
VERTEX
  8
0
 10
104.847117
 20
62.274858
 42
0.158217
  0
VERTEX
  8
0
 10
105.000000
 20
62.745907
 42
-0.151025
  0
VERTEX
  8
0
 10
105.125131
 20
63.150732
 42
-0.031553
  0
VERTEX
  8
0
 10
105.587500
 20
63.743234
 42
-0.030445
  0
VERTEX
  8
0
 10
106.234340
 20
64.388505
 42
-0.024702
  0
VERTEX
  8
0
 10
107.000000
 20
65.000000
 42
0.038332
  0
VERTEX
  8
0
 10
107.765268
 20
65.646083
 42
0.039803
  0
VERTEX
  8
0
 10
108.412500
 20
66.393849
 42
0.043072
  0
VERTEX
  8
0
 10
108.860855
 20
67.128761
 42
0.115942
  0
VERTEX
  8
0
 10
109.000000
 20
67.720759
 42
-0.116509
  0
VERTEX
  8
0
 10
109.115266
 20
68.208707
 42
-0.100516
  0
VERTEX
  8
0
 10
109.440625
 20
68.624223
 42
-0.093058
  0
VERTEX
  8
0
 10
109.927159
 20
68.903150
 42
-0.083939
  0
VERTEX
  8
0
 10
110.500000
 20
69.000000
 42
0.094164
  0
VERTEX
  8
0
 10
111.072570
 20
69.108796
 42
0.096665
  0
VERTEX
  8
0
 10
111.559375
 20
69.419643
 42
0.099005
  0
VERTEX
  8
0
 10
111.885227
 20
69.883474
 42
0.104136
  0
VERTEX
  8
0
 10
112.000000
 20
70.428571
 42
-0.074369
  0
VERTEX
  8
0
 10
112.096346
 20
71.072744
 42
-0.038557
  0
VERTEX
  8
0
 10
112.394231
 20
71.831731
 42
-0.037270
  0
VERTEX
  8
0
 10
112.828427
 20
72.580339
 42
-0.046359
  0
VERTEX
  8
0
 10
113.342064
 20
73.199207
 42
0.028584
  0
VERTEX
  8
0
 10
113.941332
 20
73.871211
 42
0.013447
  0
VERTEX
  8
0
 10
114.640376
 20
74.801916
 42
0.013276
  0
VERTEX
  8
0
 10
115.322408
 20
75.818884
 42
0.018204
  0
VERTEX
  8
0
 10
115.877248
 20
76.770636
 42
-0.065826
  0
VERTEX
  8
0
 10
116.592609
 20
77.766635
 42
-0.081256
  0
VERTEX
  8
0
 10
117.498391
 20
78.461408
 42
-0.075344
  0
VERTEX
  8
0
 10
118.634618
 20
78.865586
 42
-0.047876
  0
VERTEX
  8
0
 10
120.035184
 20
79.000000
 42
0.030524
  0
VERTEX
  8
0
 10
121.171024
 20
79.069406
 42
0.047390
  0
VERTEX
  8
0
 10
122.129085
 20
79.280398
 42
0.060340
  0
VERTEX
  8
0
 10
122.795091
 20
79.587465
 42
0.260208
  0
VERTEX
  8
0
 10
123.000000
 20
79.954545
 42
-0.136446
  0
VERTEX
  8
0
 10
123.143152
 20
80.469352
 42
-0.021006
  0
VERTEX
  8
0
 10
123.734375
 20
81.363068
 42
-0.022135
  0
VERTEX
  8
0
 10
124.542763
 20
82.381949
 42
-0.017608
  0
VERTEX
  8
0
 10
125.500000
 20
83.409091
 42
0.019243
  0
VERTEX
  8
0
 10
126.457149
 20
84.442894
 42
0.023573
  0
VERTEX
  8
0
 10
127.265625
 20
85.481818
 42
0.023009
  0
VERTEX
  8
0
 10
127.851908
 20
86.400238
 42
0.131281
  0
VERTEX
  8
0
 10
128.000000
 20
86.954545
 42
-0.094588
  0
VERTEX
  8
0
 10
128.076174
 20
87.353602
 42
-0.096788
  0
VERTEX
  8
0
 10
128.293750
 20
87.692898
 42
-0.098920
  0
VERTEX
  8
0
 10
128.618426
 20
87.920022
 42
-0.103674
  0
VERTEX
  8
0
 10
129.000000
 20
88.000000
 42
0.148195
  0
VERTEX
  8
0
 10
129.381354
 20
88.115568
 42
0.098894
  0
VERTEX
  8
0
 10
129.706250
 20
88.440625
 42
0.082425
  0
VERTEX
  8
0
 10
129.925306
 20
88.926543
 42
0.064853
  0
VERTEX
  8
0
 10
130.000000
 20
89.500000
 42
-0.064853
  0
VERTEX
  8
0
 10
130.074694
 20
90.073457
 42
-0.082425
  0
VERTEX
  8
0
 10
130.293750
 20
90.559375
 42
-0.098894
  0
VERTEX
  8
0
 10
130.618646
 20
90.884432
 42
-0.148195
  0
VERTEX
  8
0
 10
131.000000
 20
91.000000
 42
0.148195
  0
VERTEX
  8
0
 10
131.381354
 20
91.115568
 42
0.098894
  0
VERTEX
  8
0
 10
131.706250
 20
91.440625
 42
0.082425
  0
VERTEX
  8
0
 10
131.925306
 20
91.926543
 42
0.064853
  0
VERTEX
  8
0
 10
132.000000
 20
92.500000
 42
-0.059467
  0
VERTEX
  8
0
 10
132.068469
 20
93.073648
 42
-0.078370
  0
VERTEX
  8
0
 10
132.270410
 20
93.559375
 42
-0.096736
  0
VERTEX
  8
0
 10
132.569427
 20
93.884690
 42
-0.160000
  0
VERTEX
  8
0
 10
132.920545
 20
94.000000
 42
0.230346
  0
VERTEX
  8
0
 10
133.318790
 20
94.193748
 42
0.045180
  0
VERTEX
  8
0
 10
133.764234
 20
94.881250
 42
0.039605
  0
VERTEX
  8
0
 10
134.180468
 20
95.850988
 42
0.027524
  0
VERTEX
  8
0
 10
134.500000
 20
97.000000
 42
-0.022444
  0
VERTEX
  8
0
 10
134.807078
 20
98.149322
 42
-0.033394
  0
VERTEX
  8
0
 10
135.186128
 20
99.118750
 42
-0.035386
  0
VERTEX
  8
0
 10
135.579299
 20
99.821260
 42
-0.252632
  0
VERTEX
  8
0
 10
135.910476
 20
100.000000
 42
0.191323
  0
VERTEX
  8
0
 10
136.281446
 20
100.147344
 42
0.029619
  0
VERTEX
  8
0
 10
136.834294
 20
100.734375
 42
0.029447
  0
VERTEX
  8
0
 10
137.432696
 20
101.542601
 42
0.021766
  0
VERTEX
  8
0
 10
138.000000
 20
102.500000
 42
-0.050256
  0
VERTEX
  8
0
 10
138.642812
 20
103.456279
 42
-0.050180
  0
VERTEX
  8
0
 10
139.463782
 20
104.265625
 42
-0.054830
  0
VERTEX
  8
0
 10
140.330558
 20
104.819297
 42
-0.115229
  0
VERTEX
  8
0
 10
141.104252
 20
105.000000
 42
0.139593
  0
VERTEX
  8
0
 10
141.929211
 20
105.234895
 42
0.075682
  0
VERTEX
  8
0
 10
142.738291
 20
105.924523
 42
0.058220
  0
VERTEX
  8
0
 10
143.489034
 20
107.027670
 42
0.033579
  0
VERTEX
  8
0
 10
144.136160
 20
108.500000
 42
-0.018895
  0
VERTEX
  8
0
 10
144.679133
 20
109.840856
 42
-0.027614
  0
VERTEX
  8
0
 10
145.264741
 20
110.971875
 42
-0.026408
  0
VERTEX
  8
0
 10
145.819597
 20
111.808181
 42
-0.237366
  0
VERTEX
  8
0
 10
146.200888
 20
112.000000
 42
0.181234
  0
VERTEX
  8
0
 10
146.505903
 20
112.114313
 42
0.091290
  0
VERTEX
  8
0
 10
146.765261
 20
112.440625
 42
0.071236
  0
VERTEX
  8
0
 10
146.940954
 20
112.926055
 42
0.051303
  0
VERTEX
  8
0
 10
147.000000
 20
113.500000
 42
-0.059467
  0
VERTEX
  8
0
 10
147.068469
 20
114.073648
 42
-0.078370
  0
VERTEX
  8
0
 10
147.270410
 20
114.559375
 42
-0.096736
  0
VERTEX
  8
0
 10
147.569427
 20
114.884690
 42
-0.160000
  0
VERTEX
  8
0
 10
147.920545
 20
115.000000
 42
0.230346
  0
VERTEX
  8
0
 10
148.318790
 20
115.193748
 42
0.045180
  0
VERTEX
  8
0
 10
148.764234
 20
115.881250
 42
0.039605
  0
VERTEX
  8
0
 10
149.180468
 20
116.850988
 42
0.027524
  0
VERTEX
  8
0
 10
149.500000
 20
118.000000
 42
-0.025133
  0
VERTEX
  8
0
 10
149.813664
 20
119.149160
 42
-0.036749
  0
VERTEX
  8
0
 10
150.212426
 20
120.118750
 42
-0.040720
  0
VERTEX
  8
0
 10
150.633134
 20
120.812638
 42
-0.240576
  0
VERTEX
  8
0
 10
151.000000
 20
121.000000
 42
0.240576
  0
VERTEX
  8
0
 10
151.366866
 20
121.187362
 42
0.040720
  0
VERTEX
  8
0
 10
151.787574
 20
121.881250
 42
0.036749
  0
VERTEX
  8
0
 10
152.186336
 20
122.850840
 42
0.025133
  0
VERTEX
  8
0
 10
152.500000
 20
124.000000
 42
-0.024581
  0
VERTEX
  8
0
 10
152.812311
 20
125.149194
 42
-0.036073
  0
VERTEX
  8
0
 10
153.207029
 20
126.118750
 42
-0.039651
  0
VERTEX
  8
0
 10
153.622056
 20
126.814276
 42
-0.243006
  0
VERTEX
  8
0
 10
153.981630
 20
127.000000
 42
0.223122
  0
VERTEX
  8
0
 10
154.363654
 20
127.179408
 42
0.033924
  0
VERTEX
  8
0
 10
154.869881
 20
127.881250
 42
0.032530
  0
VERTEX
  8
0
 10
155.389600
 20
128.850925
 42
0.022890
  0
VERTEX
  8
0
 10
155.850155
 20
130.000000
 42
-0.076273
  0
VERTEX
  8
0
 10
157.060201
 20
132.281335
 42
-0.219074
  0
VERTEX
  8
0
 10
158.596112
 20
133.119474
 42
-0.380703
  0
VERTEX
  8
0
 10
159.587085
 20
132.351449
 42
-0.110703
  0
VERTEX
  8
0
 10
159.510226
 20
130.250000
 42
0.025649
  0
VERTEX
  8
0
 10
159.238182
 20
128.946697
 42
0.012904
  0
VERTEX
  8
0
 10
159.022472
 20
127.279687
 42
0.012779
  0
VERTEX
  8
0
 10
158.887752
 20
125.540786
 42
0.018490
  0
VERTEX
  8
0
 10
158.864965
 20
124.000000
 42
-0.030298
  0
VERTEX
  8
0
 10
158.799968
 20
122.307751
 42
-0.012938
  0
VERTEX
  8
0
 10
158.517812
 20
120.059375
 42
-0.012746
  0
VERTEX
  8
0
 10
158.092491
 20
117.670621
 42
-0.016368
  0
VERTEX
  8
0
 10
157.574103
 20
115.500000
 42
0.008910
  0
VERTEX
  8
0
 10
156.126479
 20
109.815072
 42
0.030946
  0
VERTEX
  8
0
 10
155.486398
 20
106.078411
 42
0.049415
  0
VERTEX
  8
0
 10
155.464854
 20
103.692510
 42
0.298229
  0
VERTEX
  8
0
 10
156.196505
 20
102.767832
 42
-0.250082
  0
VERTEX
  8
0
 10
156.761945
 20
102.171643
 42
-0.068754
  0
VERTEX
  8
0
 10
156.937330
 20
100.845927
 42
-0.032947
  0
VERTEX
  8
0
 10
156.772992
 20
98.555591
 42
-0.006285
  0
VERTEX
  8
0
 10
156.148449
 20
94.425187
 42
-0.001693
  0
VERTEX
  8
0
 10
155.614034
 20
91.235933
 42
-0.001969
  0
VERTEX
  8
0
 10
155.083655
 20
88.207051
 42
-0.001748
  0
VERTEX
  8
0
 10
154.615804
 20
85.647402
 42
-0.011801
  0
VERTEX
  8
0
 10
154.349750
 20
84.386051
 42
0.059641
  0
VERTEX
  8
0
 10
154.233593
 20
83.356435
 42
0.138752
  0
VERTEX
  8
0
 10
154.448182
 20
82.617267
 42
0.134953
  0
VERTEX
  8
0
 10
155.023643
 20
82.087347
 42
0.055096
  0
VERTEX
  8
0
 10
156.025065
 20
81.703696
 42
-0.067066
  0
VERTEX
  8
0
 10
157.162702
 20
81.236452
 42
-0.175857
  0
VERTEX
  8
0
 10
157.722269
 20
80.570765
 42
-0.107493
  0
VERTEX
  8
0
 10
157.873726
 20
79.469596
 42
-0.017578
  0
VERTEX
  8
0
 10
157.630316
 20
77.317645
 42
0.006062
  0
VERTEX
  8
0
 10
157.368802
 20
75.401784
 42
0.002217
  0
VERTEX
  8
0
 10
157.043759
 20
72.685598
 42
0.002197
  0
VERTEX
  8
0
 10
156.714604
 20
69.712820
 42
0.002629
  0
VERTEX
  8
0
 10
156.431619
 20
66.909923
 42
0.005110
  0
VERTEX
  8
0
 10
156.066844
 20
62.636006
 42
0.083560
  0
VERTEX
  8
0
 10
156.198167
 20
61.209660
 42
0.260972
  0
VERTEX
  8
0
 10
156.806970
 20
60.580682
 42
0.082552
  0
VERTEX
  8
0
 10
158.150629
 20
60.409923
 42
-0.155936
  0
VERTEX
  8
0
 10
159.501592
 20
60.034492
 42
-0.187520
  0
VERTEX
  8
0
 10
160.262250
 20
58.968155
 42
-0.047383
  0
VERTEX
  8
0
 10
160.648583
 20
56.482523
 42
-0.002916
  0
VERTEX
  8
0
 10
161.050534
 20
49.000000
 42
0.002111
  0
VERTEX
  8
0
 10
161.275999
 20
44.672949
 42
0.004190
  0
VERTEX
  8
0
 10
161.497942
 20
41.245312
 42
0.003525
  0
VERTEX
  8
0
 10
161.697930
 20
38.753649
 42
0.884265
  0
VERTEX
  8
0
 10
161.800534
 20
38.750000
 42
-0.209101
  0
VERTEX
  8
0
 10
162.397544
 20
39.680393
 42
-0.179792
  0
VERTEX
  8
0
 10
163.536937
 20
39.949883
 42
-0.132810
  0
VERTEX
  8
0
 10
164.856128
 20
39.411313
 42
-0.111725
  0
VERTEX
  8
0
 10
165.827537
 20
38.250000
 42
-0.076610
  0
VERTEX
  8
0
 10
166.211597
 20
37.095480
 42
-0.007881
  0
VERTEX
  8
0
 10
166.649176
 20
34.247624
 42
-0.009673
  0
VERTEX
  8
0
 10
167.053655
 20
30.816750
 42
-0.007584
  0
VERTEX
  8
0
 10
167.363717
 20
27.082337
 42
0.005201
  0
VERTEX
  8
0
 10
167.861443
 20
20.720209
 42
0.046815
  0
VERTEX
  8
0
 10
168.366973
 20
17.973880
 42
0.335566
  0
VERTEX
  8
0
 10
169.077447
 20
17.436369
 42
0.259977
  0
VERTEX
  8
0
 10
169.953448
 20
17.924678
 42
-0.095804
  0
VERTEX
  8
0
 10
170.393129
 20
18.401782
 42
-0.080908
  0
VERTEX
  8
0
 10
171.004895
 20
18.715397
 42
-0.079979
  0
VERTEX
  8
0
 10
171.691389
 20
18.820995
 42
-0.090097
  0
VERTEX
  8
0
 10
172.346665
 20
18.697214
 42
-0.188939
  0
VERTEX
  8
0
 10
173.583578
 20
17.568066
 42
-0.038128
  0
VERTEX
  8
0
 10
174.712104
 20
14.752558
 42
-0.030405
  0
VERTEX
  8
0
 10
175.726576
 20
10.681312
 42
-0.013769
  0
VERTEX
  8
0
 10
176.580130
 20
5.250000
 42
0.013048
  0
VERTEX
  8
0
 10
176.893424
 20
3.237564
 42
0.020903
  0
VERTEX
  8
0
 10
177.276699
 20
1.542187
 42
0.016149
  0
VERTEX
  8
0
 10
177.677180
 20
0.230969
 42
0.320899
  0
VERTEX
  8
0
 10
178.000000
 20
0.000000
 42
0.320899
  0
VERTEX
  8
0
 10
178.322820
 20
0.230969
 42
0.016149
  0
VERTEX
  8
0
 10
178.723301
 20
1.542187
 42
0.020903
  0
VERTEX
  8
0
 10
179.106576
 20
3.237564
 42
0.013048
  0
VERTEX
  8
0
 10
179.419870
 20
5.250000
 42
-0.013769
  0
VERTEX
  8
0
 10
180.273424
 20
10.681312
 42
-0.030405
  0
VERTEX
  8
0
 10
181.287896
 20
14.752558
 42
-0.038128
  0
VERTEX
  8
0
 10
182.416422
 20
17.568066
 42
-0.188939
  0
VERTEX
  8
0
 10
183.653335
 20
18.697214
 42
-0.090097
  0
VERTEX
  8
0
 10
184.308611
 20
18.820995
 42
-0.079979
  0
VERTEX
  8
0
 10
184.995105
 20
18.715397
 42
-0.080908
  0
VERTEX
  8
0
 10
185.606871
 20
18.401782
 42
-0.095804
  0
VERTEX
  8
0
 10
186.046552
 20
17.924678
 42
0.259977
  0
VERTEX
  8
0
 10
186.922553
 20
17.436369
 42
0.335566
  0
VERTEX
  8
0
 10
187.633027
 20
17.973880
 42
0.046815
  0
VERTEX
  8
0
 10
188.138557
 20
20.720209
 42
0.005201
  0
VERTEX
  8
0
 10
188.636283
 20
27.082337
 42
-0.007584
  0
VERTEX
  8
0
 10
188.946345
 20
30.816750
 42
-0.009673
  0
VERTEX
  8
0
 10
189.350824
 20
34.247624
 42
-0.007881
  0
VERTEX
  8
0
 10
189.788403
 20
37.095480
 42
-0.076610
  0
VERTEX
  8
0
 10
190.172463
 20
38.250000
 42
-0.111725
  0
VERTEX
  8
0
 10
191.143872
 20
39.411313
 42
-0.132810
  0
VERTEX
  8
0
 10
192.463063
 20
39.949883
 42
-0.179792
  0
VERTEX
  8
0
 10
193.602456
 20
39.680393
 42
-0.209101
  0
VERTEX
  8
0
 10
194.199466
 20
38.750000
 42
0.884265
  0
VERTEX
  8
0
 10
194.302070
 20
38.753649
 42
0.003525
  0
VERTEX
  8
0
 10
194.502058
 20
41.245312
 42
0.004190
  0
VERTEX
  8
0
 10
194.724001
 20
44.672949
 42
0.002111
  0
VERTEX
  8
0
 10
194.949466
 20
49.000000
 42
-0.002916
  0
VERTEX
  8
0
 10
195.351417
 20
56.482523
 42
-0.047383
  0
VERTEX
  8
0
 10
195.737750
 20
58.968155
 42
-0.187520
  0
VERTEX
  8
0
 10
196.498408
 20
60.034492
 42
-0.155936
  0
VERTEX
  8
0
 10
197.849371
 20
60.409923
 42
0.082552
  0
VERTEX
  8
0
 10
199.193030
 20
60.580682
 42
0.260972
  0
VERTEX
  8
0
 10
199.801833
 20
61.209660
 42
0.083560
  0
VERTEX
  8
0
 10
199.933156
 20
62.636006
 42
0.005110
  0
VERTEX
  8
0
 10
199.568381
 20
66.909923
 42
0.002629
  0
VERTEX
  8
0
 10
199.285396
 20
69.712820
 42
0.002197
  0
VERTEX
  8
0
 10
198.956241
 20
72.685598
 42
0.002217
  0
VERTEX
  8
0
 10
198.631198
 20
75.401784
 42
0.006062
  0
VERTEX
  8
0
 10
198.369684
 20
77.317645
 42
-0.017578
  0
VERTEX
  8
0
 10
198.126274
 20
79.469596
 42
-0.107493
  0
VERTEX
  8
0
 10
198.277731
 20
80.570765
 42
-0.175857
  0
VERTEX
  8
0
 10
198.837298
 20
81.236452
 42
-0.067066
  0
VERTEX
  8
0
 10
199.974935
 20
81.703696
 42
0.055096
  0
VERTEX
  8
0
 10
200.976357
 20
82.087347
 42
0.134953
  0
VERTEX
  8
0
 10
201.551818
 20
82.617267
 42
0.138752
  0
VERTEX
  8
0
 10
201.766407
 20
83.356435
 42
0.059641
  0
VERTEX
  8
0
 10
201.650250
 20
84.386051
 42
-0.011801
  0
VERTEX
  8
0
 10
201.384196
 20
85.647402
 42
-0.001748
  0
VERTEX
  8
0
 10
200.916345
 20
88.207051
 42
-0.001969
  0
VERTEX
  8
0
 10
200.385966
 20
91.235933
 42
-0.001693
  0
VERTEX
  8
0
 10
199.851551
 20
94.425187
 42
-0.006285
  0
VERTEX
  8
0
 10
199.227008
 20
98.555591
 42
-0.032947
  0
VERTEX
  8
0
 10
199.062670
 20
100.845927
 42
-0.068754
  0
VERTEX
  8
0
 10
199.238055
 20
102.171643
 42
-0.250082
  0
VERTEX
  8
0
 10
199.803495
 20
102.767832
 42
0.298229
  0
VERTEX
  8
0
 10
200.535146
 20
103.692510
 42
0.049415
  0
VERTEX
  8
0
 10
200.513602
 20
106.078411
 42
0.030946
  0
VERTEX
  8
0
 10
199.873521
 20
109.815072
 42
0.008910
  0
VERTEX
  8
0
 10
198.425897
 20
115.500000
 42
-0.016368
  0
VERTEX
  8
0
 10
197.907509
 20
117.670621
 42
-0.012746
  0
VERTEX
  8
0
 10
197.482188
 20
120.059375
 42
-0.012938
  0
VERTEX
  8
0
 10
197.200032
 20
122.307751
 42
-0.030298
  0
VERTEX
  8
0
 10
197.135035
 20
124.000000
 42
0.018490
  0
VERTEX
  8
0
 10
197.112248
 20
125.540786
 42
0.012779
  0
VERTEX
  8
0
 10
196.977528
 20
127.279688
 42
0.012904
  0
VERTEX
  8
0
 10
196.761818
 20
128.946697
 42
0.025649
  0
VERTEX
  8
0
 10
196.489774
 20
130.250000
 42
-0.110703
  0
VERTEX
  8
0
 10
196.412915
 20
132.351449
 42
-0.380703
  0
VERTEX
  8
0
 10
197.403888
 20
133.119474
 42
-0.219074
  0
VERTEX
  8
0
 10
198.939799
 20
132.281335
 42
-0.076273
  0
VERTEX
  8
0
 10
200.149845
 20
130.000000
 42
0.022890
  0
VERTEX
  8
0
 10
200.610400
 20
128.850925
 42
0.032530
  0
VERTEX
  8
0
 10
201.130119
 20
127.881250
 42
0.033924
  0
VERTEX
  8
0
 10
201.636346
 20
127.179408
 42
0.223122
  0
VERTEX
  8
0
 10
202.018370
 20
127.000000
 42
-0.243006
  0
VERTEX
  8
0
 10
202.377944
 20
126.814276
 42
-0.039651
  0
VERTEX
  8
0
 10
202.792971
 20
126.118750
 42
-0.036073
  0
VERTEX
  8
0
 10
203.187689
 20
125.149194
 42
-0.024581
  0
VERTEX
  8
0
 10
203.500000
 20
124.000000
 42
0.025133
  0
VERTEX
  8
0
 10
203.813664
 20
122.850840
 42
0.036749
  0
VERTEX
  8
0
 10
204.212426
 20
121.881250
 42
0.040720
  0
VERTEX
  8
0
 10
204.633134
 20
121.187362
 42
0.240576
  0
VERTEX
  8
0
 10
205.000000
 20
121.000000
 42
-0.240576
  0
VERTEX
  8
0
 10
205.366866
 20
120.812638
 42
-0.040720
  0
VERTEX
  8
0
 10
205.787574
 20
120.118750
 42
-0.036749
  0
VERTEX
  8
0
 10
206.186336
 20
119.149160
 42
-0.025133
  0
VERTEX
  8
0
 10
206.500000
 20
118.000000
 42
0.027524
  0
VERTEX
  8
0
 10
206.819532
 20
116.850988
 42
0.039605
  0
VERTEX
  8
0
 10
207.235766
 20
115.881250
 42
0.045180
  0
VERTEX
  8
0
 10
207.681210
 20
115.193748
 42
0.230346
  0
VERTEX
  8
0
 10
208.079455
 20
115.000000
 42
-0.160000
  0
VERTEX
  8
0
 10
208.430573
 20
114.884690
 42
-0.096736
  0
VERTEX
  8
0
 10
208.729590
 20
114.559375
 42
-0.078370
  0
VERTEX
  8
0
 10
208.931531
 20
114.073648
 42
-0.059467
  0
VERTEX
  8
0
 10
209.000000
 20
113.500000
 42
0.051303
  0
VERTEX
  8
0
 10
209.059046
 20
112.926055
 42
0.071236
  0
VERTEX
  8
0
 10
209.234739
 20
112.440625
 42
0.091290
  0
VERTEX
  8
0
 10
209.494097
 20
112.114313
 42
0.181234
  0
VERTEX
  8
0
 10
209.799112
 20
112.000000
 42
-0.237366
  0
VERTEX
  8
0
 10
210.180403
 20
111.808181
 42
-0.026408
  0
VERTEX
  8
0
 10
210.735259
 20
110.971875
 42
-0.027614
  0
VERTEX
  8
0
 10
211.320867
 20
109.840856
 42
-0.018895
  0
VERTEX
  8
0
 10
211.863840
 20
108.500000
 42
0.033579
  0
VERTEX
  8
0
 10
212.510966
 20
107.027670
 42
0.058220
  0
VERTEX
  8
0
 10
213.261709
 20
105.924523
 42
0.075682
  0
VERTEX
  8
0
 10
214.070789
 20
105.234895
 42
0.139593
  0
VERTEX
  8
0
 10
214.895748
 20
105.000000
 42
-0.115229
  0
VERTEX
  8
0
 10
215.669442
 20
104.819297
 42
-0.054830
  0
VERTEX
  8
0
 10
216.536218
 20
104.265625
 42
-0.050180
  0
VERTEX
  8
0
 10
217.357188
 20
103.456279
 42
-0.050256
  0
VERTEX
  8
0
 10
218.000000
 20
102.500000
 42
0.021766
  0
VERTEX
  8
0
 10
218.567304
 20
101.542601
 42
0.029447
  0
VERTEX
  8
0
 10
219.165706
 20
100.734375
 42
0.029619
  0
VERTEX
  8
0
 10
219.718554
 20
100.147344
 42
0.191323
  0
VERTEX
  8
0
 10
220.089524
 20
100.000000
 42
-0.252632
  0
VERTEX
  8
0
 10
220.420701
 20
99.821260
 42
-0.035386
  0
VERTEX
  8
0
 10
220.813872
 20
99.118750
 42
-0.033394
  0
VERTEX
  8
0
 10
221.192922
 20
98.149322
 42
-0.022444
  0
VERTEX
  8
0
 10
221.500000
 20
97.000000
 42
0.027524
  0
VERTEX
  8
0
 10
221.819532
 20
95.850988
 42
0.039605
  0
VERTEX
  8
0
 10
222.235766
 20
94.881250
 42
0.045180
  0
VERTEX
  8
0
 10
222.681210
 20
94.193748
 42
0.230346
  0
VERTEX
  8
0
 10
223.079455
 20
94.000000
 42
-0.160000
  0
VERTEX
  8
0
 10
223.430573
 20
93.884690
 42
-0.096736
  0
VERTEX
  8
0
 10
223.729590
 20
93.559375
 42
-0.078370
  0
VERTEX
  8
0
 10
223.931531
 20
93.073648
 42
-0.059467
  0
VERTEX
  8
0
 10
224.000000
 20
92.500000
 42
0.064853
  0
VERTEX
  8
0
 10
224.074694
 20
91.926543
 42
0.082425
  0
VERTEX
  8
0
 10
224.293750
 20
91.440625
 42
0.098894
  0
VERTEX
  8
0
 10
224.618646
 20
91.115568
 42
0.148195
  0
VERTEX
  8
0
 10
225.000000
 20
91.000000
 42
-0.148195
  0
VERTEX
  8
0
 10
225.381354
 20
90.884432
 42
-0.098894
  0
VERTEX
  8
0
 10
225.706250
 20
90.559375
 42
-0.082425
  0
VERTEX
  8
0
 10
225.925306
 20
90.073457
 42
-0.064853
  0
VERTEX
  8
0
 10
226.000000
 20
89.500000
 42
0.064853
  0
VERTEX
  8
0
 10
226.074694
 20
88.926543
 42
0.082425
  0
VERTEX
  8
0
 10
226.293750
 20
88.440625
 42
0.098894
  0
VERTEX
  8
0
 10
226.618646
 20
88.115568
 42
0.148195
  0
VERTEX
  8
0
 10
227.000000
 20
88.000000
 42
-0.103674
  0
VERTEX
  8
0
 10
227.381574
 20
87.920022
 42
-0.098920
  0
VERTEX
  8
0
 10
227.706250
 20
87.692898
 42
-0.096788
  0
VERTEX
  8
0
 10
227.923826
 20
87.353602
 42
-0.094588
  0
VERTEX
  8
0
 10
228.000000
 20
86.954545
 42
0.131281
  0
VERTEX
  8
0
 10
228.148092
 20
86.400238
 42
0.023009
  0
VERTEX
  8
0
 10
228.734375
 20
85.481818
 42
0.023573
  0
VERTEX
  8
0
 10
229.542851
 20
84.442894
 42
0.019243
  0
VERTEX
  8
0
 10
230.500000
 20
83.409091
 42
-0.017608
  0
VERTEX
  8
0
 10
231.457237
 20
82.381949
 42
-0.022135
  0
VERTEX
  8
0
 10
232.265625
 20
81.363068
 42
-0.021006
  0
VERTEX
  8
0
 10
232.856848
 20
80.469352
 42
-0.136446
  0
VERTEX
  8
0
 10
233.000000
 20
79.954545
 42
0.260208
  0
VERTEX
  8
0
 10
233.204909
 20
79.587465
 42
0.060340
  0
VERTEX
  8
0
 10
233.870915
 20
79.280398
 42
0.047390
  0
VERTEX
  8
0
 10
234.828976
 20
79.069406
 42
0.030524
  0
VERTEX
  8
0
 10
235.964816
 20
79.000000
 42
-0.047876
  0
VERTEX
  8
0
 10
237.365382
 20
78.865586
 42
-0.075344
  0
VERTEX
  8
0
 10
238.501609
 20
78.461408
 42
-0.081256
  0
VERTEX
  8
0
 10
239.407391
 20
77.766635
 42
-0.065826
  0
VERTEX
  8
0
 10
240.122752
 20
76.770636
 42
0.018204
  0
VERTEX
  8
0
 10
240.677592
 20
75.818884
 42
0.013276
  0
VERTEX
  8
0
 10
241.359624
 20
74.801916
 42
0.013447
  0
VERTEX
  8
0
 10
242.058668
 20
73.871211
 42
0.028584
  0
VERTEX
  8
0
 10
242.657936
 20
73.199207
 42
-0.046359
  0
VERTEX
  8
0
 10
243.171573
 20
72.580339
 42
-0.037270
  0
VERTEX
  8
0
 10
243.605769
 20
71.831731
 42
-0.038557
  0
VERTEX
  8
0
 10
243.903654
 20
71.072744
 42
-0.074369
  0
VERTEX
  8
0
 10
244.000000
 20
70.428571
 42
0.104136
  0
VERTEX
  8
0
 10
244.114773
 20
69.883474
 42
0.099005
  0
VERTEX
  8
0
 10
244.440625
 20
69.419643
 42
0.096665
  0
VERTEX
  8
0
 10
244.927430
 20
69.108796
 42
0.094164
  0
VERTEX
  8
0
 10
245.500000
 20
69.000000
 42
-0.083939
  0
VERTEX
  8
0
 10
246.072841
 20
68.903150
 42
-0.093058
  0
VERTEX
  8
0
 10
246.559375
 20
68.624223
 42
-0.100516
  0
VERTEX
  8
0
 10
246.884734
 20
68.208707
 42
-0.116509
  0
VERTEX
  8
0
 10
247.000000
 20
67.720759
 42
0.115942
  0
VERTEX
  8
0
 10
247.139145
 20
67.128761
 42
0.043072
  0
VERTEX
  8
0
 10
247.587500
 20
66.393849
 42
0.039803
  0
VERTEX
  8
0
 10
248.234732
 20
65.646083
 42
0.038332
  0
VERTEX
  8
0
 10
249.000000
 20
65.000000
 42
-0.024702
  0
VERTEX
  8
0
 10
249.765660
 20
64.388505
 42
-0.030445
  0
VERTEX
  8
0
 10
250.412500
 20
63.743234
 42
-0.031553
  0
VERTEX
  8
0
 10
250.874869
 20
63.150732
 42
-0.151025
  0
VERTEX
  8
0
 10
251.000000
 20
62.745907
 42
0.158217
  0
VERTEX
  8
0
 10
251.152883
 20
62.274858
 42
0.012774
  0
VERTEX
  8
0
 10
251.954688
 20
61.227131
 42
0.016221
  0
VERTEX
  8
0
 10
253.005095
 20
60.008004
 42
0.011731
  0
VERTEX
  8
0
 10
254.250000
 20
58.716667
 42
0.027031
  0
VERTEX
  8
0
 10
255.853464
 20
57.292647
 42
0.049877
  0
VERTEX
  8
0
 10
257.317661
 20
56.349017
 42
0.062090
  0
VERTEX
  8
0
 10
258.686814
 20
55.851121
 42
0.083829
  0
VERTEX
  8
0
 10
260.000000
 20
55.775532
 42
-0.133228
  0
VERTEX
  8
0
 10
262.127802
 20
55.442782
 42
-0.043913
  0
VERTEX
  8
0
 10
264.918513
 20
53.889856
 42
-0.042551
  0
VERTEX
  8
0
 10
267.323827
 20
51.942335
 42
-0.204046
  0
VERTEX
  8
0
 10
268.000000
 20
50.354410
 42
0.142200
  0
VERTEX
  8
0
 10
268.129456
 20
49.908423
 42
0.034808
  0
VERTEX
  8
0
 10
268.587500
 20
49.286234
 42
0.032863
  0
VERTEX
  8
0
 10
269.234447
 20
48.618901
 42
0.027678
  0
VERTEX
  8
0
 10
270.000000
 20
48.000000
 42
-0.038332
  0
VERTEX
  8
0
 10
270.765268
 20
47.353917
 42
-0.039803
  0
VERTEX
  8
0
 10
271.412500
 20
46.606151
 42
-0.043072
  0
VERTEX
  8
0
 10
271.860855
 20
45.871239
 42
-0.115942
  0
VERTEX
  8
0
 10
272.000000
 20
45.279241
 42
0.082368
  0
VERTEX
  8
0
 10
272.081036
 20
44.790667
 42
0.092384
  0
VERTEX
  8
0
 10
272.314732
 20
44.375777
 42
0.100638
  0
VERTEX
  8
0
 10
272.662766
 20
44.098357
 42
0.118646
  0
VERTEX
  8
0
 10
273.071429
 20
44.000000
 42
-0.145648
  0
VERTEX
  8
0
 10
274.091201
 20
43.696506
 42
-0.037328
  0
VERTEX
  8
0
 10
275.472756
 20
42.639364
 42
-0.036399
  0
VERTEX
  8
0
 10
276.671309
 20
41.403965
 42
-0.176163
  0
VERTEX
  8
0
 10
277.000000
 20
40.500000
 42
0.176163
  0
VERTEX
  8
0
 10
277.328691
 20
39.596035
 42
0.036399
  0
VERTEX
  8
0
 10
278.527244
 20
38.360636
 42
0.037328
  0
VERTEX
  8
0
 10
279.908799
 20
37.303494
 42
0.145648
  0
VERTEX
  8
0
 10
280.928571
 20
37.000000
 42
-0.081950
  0
VERTEX
  8
0
 10
281.337785
 20
36.932477
 42
-0.092199
  0
VERTEX
  8
0
 10
281.685268
 20
36.737678
 42
-0.100664
  0
VERTEX
  8
0
 10
281.917610
 20
36.447596
 42
-0.119227
  0
VERTEX
  8
0
 10
282.000000
 20
36.106989
 42
0.238418
  0
VERTEX
  8
0
 10
282.460431
 20
35.196280
 42
0.095114
  0
VERTEX
  8
0
 10
283.759002
 20
34.577074
 42
0.088140
  0
VERTEX
  8
0
 10
285.283166
 20
34.455702
 42
0.173984
  0
VERTEX
  8
0
 10
286.367217
 20
34.967217
 42
-0.095302
  0
VERTEX
  8
0
 10
287.518128
 20
35.746796
 42
-0.135243
  0
VERTEX
  8
0
 10
288.736520
 20
35.914126
 42
-0.103035
  0
VERTEX
  8
0
 10
290.112153
 20
35.431044
 42
-0.040325
  0
VERTEX
  8
0
 10
291.753719
 20
34.250000
 42
0.006921
  0
VERTEX
  8
0
 10
292.694118
 20
33.473171
 42
0.004238
  0
VERTEX
  8
0
 10
293.823308
 20
32.582027
 42
0.004248
  0
VERTEX
  8
0
 10
294.956528
 20
31.718504
 42
0.007542
  0
VERTEX
  8
0
 10
295.906729
 20
31.029241
 42
-0.025144
  0
VERTEX
  8
0
 10
296.708090
 20
30.403754
 42
-0.031010
  0
VERTEX
  8
0
 10
297.385102
 20
29.740633
 42
-0.032288
  0
VERTEX
  8
0
 10
297.868475
 20
29.129517
 42
-0.152326
  0
VERTEX
  8
0
 10
298.000000
 20
28.707812
 42
0.161617
  0
VERTEX
  8
0
 10
298.337594
 20
27.690665
 42
0.043371
  0
VERTEX
  8
0
 10
299.485387
 20
26.401918
 42
0.043673
  0
VERTEX
  8
0
 10
300.849124
 20
25.323249
 42
0.146515
  0
VERTEX
  8
0
 10
301.928571
 20
25.000000
 42
-0.092210
  0
VERTEX
  8
0
 10
302.337584
 20
24.923923
 42
-0.096076
  0
VERTEX
  8
0
 10
302.685268
 20
24.706250
 42
-0.099376
  0
VERTEX
  8
0
 10
302.917947
 20
24.381541
 42
-0.106313
  0
VERTEX
  8
0
 10
303.000000
 20
24.000000
 42
0.148195
  0
VERTEX
  8
0
 10
303.115568
 20
23.618646
 42
0.098894
  0
VERTEX
  8
0
 10
303.440625
 20
23.293750
 42
0.082425
  0
VERTEX
  8
0
 10
303.926543
 20
23.074694
 42
0.064853
  0
VERTEX
  8
0
 10
304.500000
 20
23.000000
 42
-0.099038
  0
VERTEX
  8
0
 10
305.072457
 20
22.885486
 42
-0.097945
  0
VERTEX
  8
0
 10
305.559375
 20
22.559375
 42
-0.097945
  0
VERTEX
  8
0
 10
305.885486
 20
22.072457
 42
-0.099038
  0
VERTEX
  8
0
 10
306.000000
 20
21.500000
 42
0.099038
  0
VERTEX
  8
0
 10
306.114514
 20
20.927543
 42
0.097945
  0
VERTEX
  8
0
 10
306.440625
 20
20.440625
 42
0.097945
  0
VERTEX
  8
0
 10
306.927543
 20
20.114514
 42
0.099038
  0
VERTEX
  8
0
 10
307.500000
 20
20.000000
 42
-0.056643
  0
VERTEX
  8
0
 10
308.073750
 20
19.934793
 42
-0.076039
  0
VERTEX
  8
0
 10
308.559375
 20
19.741888
 42
-0.095179
  0
VERTEX
  8
0
 10
308.884936
 20
19.456528
 42
-0.166853
  0
VERTEX
  8
0
 10
309.000000
 20
19.121320
 42
0.213405
  0
VERTEX
  8
0
 10
309.187450
 20
18.702132
 42
0.031434
  0
VERTEX
  8
0
 10
309.935340
 20
18.113322
 42
0.030852
  0
VERTEX
  8
0
 10
310.964580
 20
17.492984
 42
0.022011
  0
VERTEX
  8
0
 10
312.184136
 20
16.923728
 42
0.016584
  0
VERTEX
  8
0
 10
313.785396
 20
16.321860
 42
0.073262
  0
VERTEX
  8
0
 10
314.773934
 20
16.141867
 42
0.154028
  0
VERTEX
  8
0
 10
315.390000
 20
16.313569
 42
0.169491
  0
VERTEX
  8
0
 10
315.767469
 20
16.802408
 42
-0.121047
  0
VERTEX
  8
0
 10
316.056372
 20
17.260491
 42
-0.068925
  0
VERTEX
  8
0
 10
316.588618
 20
17.648207
 42
-0.062346
  0
VERTEX
  8
0
 10
317.270660
 20
17.910713
 42
-0.060794
  0
VERTEX
  8
0
 10
318.002294
 20
18.000000
 42
-0.096366
  0
VERTEX
  8
0
 10
319.939612
 20
17.623117
 42
-0.026132
  0
VERTEX
  8
0
 10
322.783276
 20
16.296414
 42
-0.020233
  0
VERTEX
  8
0
 10
325.447855
 20
14.737909
 42
-0.253390
  0
VERTEX
  8
0
 10
325.993677
 20
13.750000
 42
0.190186
  0
VERTEX
  8
0
 10
326.109523
 20
13.463553
 42
0.087379
  0
VERTEX
  8
0
 10
326.438768
 20
13.220313
 42
0.067632
  0
VERTEX
  8
0
 10
326.925479
 20
13.055281
 42
0.048000
  0
VERTEX
  8
0
 10
327.500000
 20
13.000000
 42
-0.064853
  0
VERTEX
  8
0
 10
328.073457
 20
12.925306
 42
-0.082425
  0
VERTEX
  8
0
 10
328.559375
 20
12.706250
 42
-0.098894
  0
VERTEX
  8
0
 10
328.884432
 20
12.381354
 42
-0.148195
  0
VERTEX
  8
0
 10
329.000000
 20
12.000000
 42
0.148195
  0
VERTEX
  8
0
 10
329.115568
 20
11.618646
 42
0.098894
  0
VERTEX
  8
0
 10
329.440625
 20
11.293750
 42
0.082425
  0
VERTEX
  8
0
 10
329.926543
 20
11.074694
 42
0.064853
  0
VERTEX
  8
0
 10
330.500000
 20
11.000000
 42
-0.064853
  0
VERTEX
  8
0
 10
331.073457
 20
10.925306
 42
-0.082425
  0
VERTEX
  8
0
 10
331.559375
 20
10.706250
 42
-0.098894
  0
VERTEX
  8
0
 10
331.884432
 20
10.381354
 42
-0.148195
  0
VERTEX
  8
0
 10
332.000000
 20
10.000000
 42
0.148195
  0
VERTEX
  8
0
 10
332.115568
 20
9.618646
 42
0.098894
  0
VERTEX
  8
0
 10
332.440625
 20
9.293750
 42
0.082425
  0
VERTEX
  8
0
 10
332.926543
 20
9.074694
 42
0.064853
  0
VERTEX
  8
0
 10
333.500000
 20
9.000000
 42
-0.064853
  0
VERTEX
  8
0
 10
334.073457
 20
8.925306
 42
-0.082425
  0
VERTEX
  8
0
 10
334.559375
 20
8.706250
 42
-0.098894
  0
VERTEX
  8
0
 10
334.884432
 20
8.381354
 42
-0.148195
  0
VERTEX
  8
0
 10
335.000000
 20
8.000000
 42
0.112508
  0
VERTEX
  8
0
 10
335.086938
 20
7.618528
 42
0.100182
  0
VERTEX
  8
0
 10
335.332732
 20
7.293750
 42
0.094286
  0
VERTEX
  8
0
 10
335.700197
 20
7.075852
 42
0.087025
  0
VERTEX
  8
0
 10
336.132705
 20
7.000000
 42
-0.110376
  0
VERTEX
  8
0
 10
336.678249
 20
6.878085
 42
-0.035301
  0
VERTEX
  8
0
 10
337.407758
 20
6.469746
 42
-0.033263
  0
VERTEX
  8
0
 10
338.180260
 20
5.885688
 42
-0.031599
  0
VERTEX
  8
0
 10
338.882705
 20
5.194880
 42
0.048025
  0
VERTEX
  8
0
 10
339.739759
 20
4.405609
 42
0.020597
  0
VERTEX
  8
0
 10
341.018996
 20
3.517064
 42
0.020154
  0
VERTEX
  8
0
 10
342.469883
 20
2.675527
 42
0.025051
  0
VERTEX
  8
0
 10
343.884091
 20
2.018017
 42
0.015618
  0
VERTEX
  8
0
 10
345.849235
 20
1.292040
 42
0.097489
  0
VERTEX
  8
0
 10
346.907722
 20
1.155510
 42
0.157934
  0
VERTEX
  8
0
 10
347.689165
 20
1.467055
 42
0.061772
  0
VERTEX
  8
0
 10
348.494333
 20
2.323137
 42
-0.040197
  0
VERTEX
  8
0
 10
349.047730
 20
2.964736
 42
-0.040558
  0
VERTEX
  8
0
 10
349.695107
 20
3.507422
 42
-0.043763
  0
VERTEX
  8
0
 10
350.336420
 20
3.882412
 42
-0.110861
  0
VERTEX
  8
0
 10
350.860243
 20
4.000000
 42
0.099038
  0
VERTEX
  8
0
 10
351.295218
 20
4.087012
 42
0.097945
  0
VERTEX
  8
0
 10
351.665196
 20
4.334804
 42
0.097945
  0
VERTEX
  8
0
 10
351.912988
 20
4.704782
 42
0.099038
  0
VERTEX
  8
0
 10
352.000000
 20
5.139757
 42
-0.110861
  0
VERTEX
  8
0
 10
352.117588
 20
5.663580
 42
-0.043763
  0
VERTEX
  8
0
 10
352.492578
 20
6.304893
 42
-0.040558
  0
VERTEX
  8
0
 10
353.035264
 20
6.952270
 42
-0.040197
  0
VERTEX
  8
0
 10
353.676863
 20
7.505667
 42
0.061772
  0
VERTEX
  8
0
 10
354.532945
 20
8.310835
 42
0.157934
  0
VERTEX
  8
0
 10
354.844490
 20
9.092278
 42
0.097489
  0
VERTEX
  8
0
 10
354.707960
 20
10.150765
 42
0.015618
  0
VERTEX
  8
0
 10
353.981983
 20
12.115909
 42
0.025051
  0
VERTEX
  8
0
 10
353.324473
 20
13.530117
 42
0.020154
  0
VERTEX
  8
0
 10
352.482936
 20
14.981004
 42
0.020597
  0
VERTEX
  8
0
 10
351.594391
 20
16.260241
 42
0.048025
  0
VERTEX
  8
0
 10
350.805120
 20
17.117295
 42
-0.031599
  0
VERTEX
  8
0
 10
350.114312
 20
17.819740
 42
-0.033263
  0
VERTEX
  8
0
 10
349.530254
 20
18.592242
 42
-0.035301
  0
VERTEX
  8
0
 10
349.121915
 20
19.321751
 42
-0.110376
  0
VERTEX
  8
0
 10
349.000000
 20
19.867295
 42
0.087025
  0
VERTEX
  8
0
 10
348.924148
 20
20.299803
 42
0.094286
  0
VERTEX
  8
0
 10
348.706250
 20
20.667268
 42
0.100182
  0
VERTEX
  8
0
 10
348.381472
 20
20.913062
 42
0.112508
  0
VERTEX
  8
0
 10
348.000000
 20
21.000000
 42
-0.148195
  0
VERTEX
  8
0
 10
347.618646
 20
21.115568
 42
-0.098894
  0
VERTEX
  8
0
 10
347.293750
 20
21.440625
 42
-0.082425
  0
VERTEX
  8
0
 10
347.074694
 20
21.926543
 42
-0.064853
  0
VERTEX
  8
0
 10
347.000000
 20
22.500000
 42
0.064853
  0
VERTEX
  8
0
 10
346.925306
 20
23.073457
 42
0.082425
  0
VERTEX
  8
0
 10
346.706250
 20
23.559375
 42
0.098894
  0
VERTEX
  8
0
 10
346.381354
 20
23.884432
 42
0.148195
  0
VERTEX
  8
0
 10
346.000000
 20
24.000000
 42
-0.148195
  0
VERTEX
  8
0
 10
345.618646
 20
24.115568
 42
-0.098894
  0
VERTEX
  8
0
 10
345.293750
 20
24.440625
 42
-0.082425
  0
VERTEX
  8
0
 10
345.074694
 20
24.926543
 42
-0.064853
  0
VERTEX
  8
0
 10
345.000000
 20
25.500000
 42
0.064853
  0
VERTEX
  8
0
 10
344.925306
 20
26.073457
 42
0.082425
  0
VERTEX
  8
0
 10
344.706250
 20
26.559375
 42
0.098894
  0
VERTEX
  8
0
 10
344.381354
 20
26.884432
 42
0.148195
  0
VERTEX
  8
0
 10
344.000000
 20
27.000000
 42
-0.148195
  0
VERTEX
  8
0
 10
343.618646
 20
27.115568
 42
-0.098894
  0
VERTEX
  8
0
 10
343.293750
 20
27.440625
 42
-0.082425
  0
VERTEX
  8
0
 10
343.074694
 20
27.926543
 42
-0.064853
  0
VERTEX
  8
0
 10
343.000000
 20
28.500000
 42
0.048000
  0
VERTEX
  8
0
 10
342.944719
 20
29.074521
 42
0.067632
  0
VERTEX
  8
0
 10
342.779688
 20
29.561232
 42
0.087379
  0
VERTEX
  8
0
 10
342.536447
 20
29.890477
 42
0.190186
  0
VERTEX
  8
0
 10
342.250000
 20
30.006323
 42
-0.253390
  0
VERTEX
  8
0
 10
341.262091
 20
30.552145
 42
-0.020233
  0
VERTEX
  8
0
 10
339.703586
 20
33.216724
 42
-0.026132
  0
VERTEX
  8
0
 10
338.376883
 20
36.060388
 42
-0.096366
  0
VERTEX
  8
0
 10
338.000000
 20
37.997706
 42
-0.060794
  0
VERTEX
  8
0
 10
338.089287
 20
38.729340
 42
-0.062346
  0
VERTEX
  8
0
 10
338.351793
 20
39.411382
 42
-0.068925
  0
VERTEX
  8
0
 10
338.739509
 20
39.943628
 42
-0.121047
  0
VERTEX
  8
0
 10
339.197592
 20
40.232531
 42
0.169491
  0
VERTEX
  8
0
 10
339.686431
 20
40.610000
 42
0.154028
  0
VERTEX
  8
0
 10
339.858133
 20
41.226066
 42
0.073262
  0
VERTEX
  8
0
 10
339.678140
 20
42.214604
 42
0.016584
  0
VERTEX
  8
0
 10
339.076272
 20
43.815864
 42
0.022011
  0
VERTEX
  8
0
 10
338.507016
 20
45.035420
 42
0.030852
  0
VERTEX
  8
0
 10
337.886678
 20
46.064660
 42
0.031434
  0
VERTEX
  8
0
 10
337.297868
 20
46.812550
 42
0.213405
  0
VERTEX
  8
0
 10
336.878680
 20
47.000000
 42
-0.166853
  0
VERTEX
  8
0
 10
336.543472
 20
47.115064
 42
-0.095179
  0
VERTEX
  8
0
 10
336.258112
 20
47.440625
 42
-0.076039
  0
VERTEX
  8
0
 10
336.065207
 20
47.926250
 42
-0.056643
  0
VERTEX
  8
0
 10
336.000000
 20
48.500000
 42
0.099038
  0
VERTEX
  8
0
 10
335.885486
 20
49.072457
 42
0.097945
  0
VERTEX
  8
0
 10
335.559375
 20
49.559375
 42
0.097945
  0
VERTEX
  8
0
 10
335.072457
 20
49.885486
 42
0.099038
  0
VERTEX
  8
0
 10
334.500000
 20
50.000000
 42
-0.099038
  0
VERTEX
  8
0
 10
333.927543
 20
50.114514
 42
-0.097945
  0
VERTEX
  8
0
 10
333.440625
 20
50.440625
 42
-0.097945
  0
VERTEX
  8
0
 10
333.114514
 20
50.927543
 42
-0.099038
  0
VERTEX
  8
0
 10
333.000000
 20
51.500000
 42
0.064853
  0
VERTEX
  8
0
 10
332.925306
 20
52.073457
 42
0.082425
  0
VERTEX
  8
0
 10
332.706250
 20
52.559375
 42
0.098894
  0
VERTEX
  8
0
 10
332.381354
 20
52.884432
 42
0.148195
  0
VERTEX
  8
0
 10
332.000000
 20
53.000000
 42
-0.106313
  0
VERTEX
  8
0
 10
331.618459
 20
53.082053
 42
-0.099376
  0
VERTEX
  8
0
 10
331.293750
 20
53.314732
 42
-0.096076
  0
VERTEX
  8
0
 10
331.076077
 20
53.662416
 42
-0.092210
  0
VERTEX
  8
0
 10
331.000000
 20
54.071429
 42
0.146515
  0
VERTEX
  8
0
 10
330.676751
 20
55.150876
 42
0.043673
  0
VERTEX
  8
0
 10
329.598082
 20
56.514613
 42
0.043371
  0
VERTEX
  8
0
 10
328.309335
 20
57.662406
 42
0.161617
  0
VERTEX
  8
0
 10
327.292188
 20
58.000000
 42
-0.152326
  0
VERTEX
  8
0
 10
326.870483
 20
58.131525
 42
-0.032288
  0
VERTEX
  8
0
 10
326.259367
 20
58.614898
 42
-0.031010
  0
VERTEX
  8
0
 10
325.596246
 20
59.291910
 42
-0.025144
  0
VERTEX
  8
0
 10
324.970759
 20
60.093271
 42
0.007542
  0
VERTEX
  8
0
 10
324.281496
 20
61.043472
 42
0.004248
  0
VERTEX
  8
0
 10
323.417973
 20
62.176692
 42
0.004238
  0
VERTEX
  8
0
 10
322.526829
 20
63.305882
 42
0.006921
  0
VERTEX
  8
0
 10
321.750000
 20
64.246281
 42
-0.040325
  0
VERTEX
  8
0
 10
320.568956
 20
65.887847
 42
-0.103035
  0
VERTEX
  8
0
 10
320.085874
 20
67.263480
 42
-0.135243
  0
VERTEX
  8
0
 10
320.253204
 20
68.481872
 42
-0.095302
  0
VERTEX
  8
0
 10
321.032783
 20
69.632783
 42
0.173984
  0
VERTEX
  8
0
 10
321.544298
 20
70.716834
 42
0.088140
  0
VERTEX
  8
0
 10
321.422926
 20
72.240998
 42
0.095114
  0
VERTEX
  8
0
 10
320.803720
 20
73.539569
 42
0.238418
  0
VERTEX
  8
0
 10
319.893011
 20
74.000000
 42
-0.119227
  0
VERTEX
  8
0
 10
319.552404
 20
74.082390
 42
-0.100664
  0
VERTEX
  8
0
 10
319.262322
 20
74.314732
 42
-0.092199
  0
VERTEX
  8
0
 10
319.067523
 20
74.662215
 42
-0.081950
  0
VERTEX
  8
0
 10
319.000000
 20
75.071429
 42
0.145648
  0
VERTEX
  8
0
 10
318.696506
 20
76.091201
 42
0.037328
  0
VERTEX
  8
0
 10
317.639364
 20
77.472756
 42
0.036399
  0
VERTEX
  8
0
 10
316.403965
 20
78.671309
 42
0.176163
  0
VERTEX
  8
0
 10
315.500000
 20
79.000000
 42
-0.176163
  0
VERTEX
  8
0
 10
314.596035
 20
79.328691
 42
-0.036399
  0
VERTEX
  8
0
 10
313.360636
 20
80.527244
 42
-0.037328
  0
VERTEX
  8
0
 10
312.303494
 20
81.908799
 42
-0.145648
  0
VERTEX
  8
0
 10
312.000000
 20
82.928571
 42
0.118646
  0
VERTEX
  8
0
 10
311.901643
 20
83.337234
 42
0.100638
  0
VERTEX
  8
0
 10
311.624223
 20
83.685268
 42
0.092384
  0
VERTEX
  8
0
 10
311.209333
 20
83.918964
 42
0.082368
  0
VERTEX
  8
0
 10
310.720759
 20
84.000000
 42
-0.115942
  0
VERTEX
  8
0
 10
310.128761
 20
84.139145
 42
-0.043072
  0
VERTEX
  8
0
 10
309.393849
 20
84.587500
 42
-0.039803
  0
VERTEX
  8
0
 10
308.646083
 20
85.234732
 42
-0.038332
  0
VERTEX
  8
0
 10
308.000000
 20
86.000000
 42
0.027678
  0
VERTEX
  8
0
 10
307.381099
 20
86.765553
 42
0.032863
  0
VERTEX
  8
0
 10
306.713766
 20
87.412500
 42
0.034808
  0
VERTEX
  8
0
 10
306.091577
 20
87.870544
 42
0.142200
  0
VERTEX
  8
0
 10
305.645590
 20
88.000000
 42
-0.204046
  0
VERTEX
  8
0
 10
304.057665
 20
88.676173
 42
-0.042551
  0
VERTEX
  8
0
 10
302.110144
 20
91.081487
 42
-0.043913
  0
VERTEX
  8
0
 10
300.557218
 20
93.872198
 42
-0.133228
  0
VERTEX
  8
0
 10
300.224468
 20
96.000000
 42
0.083829
  0
VERTEX
  8
0
 10
300.148879
 20
97.313186
 42
0.062090
  0
VERTEX
  8
0
 10
299.650983
 20
98.682339
 42
0.049877
  0
VERTEX
  8
0
 10
298.707353
 20
100.146536
 42
0.027031
  0
VERTEX
  8
0
 10
297.283333
 20
101.750000
 42
0.011731
  0
VERTEX
  8
0
 10
295.991996
 20
102.994905
 42
0.016221
  0
VERTEX
  8
0
 10
294.772869
 20
104.045312
 42
0.012774
  0
VERTEX
  8
0
 10
293.725142
 20
104.847117
 42
0.158217
  0
VERTEX
  8
0
 10
293.254093
 20
105.000000
 42
-0.151025
  0
VERTEX
  8
0
 10
292.849268
 20
105.125131
 42
-0.031553
  0
VERTEX
  8
0
 10
292.256766
 20
105.587500
 42
-0.030445
  0
VERTEX
  8
0
 10
291.611495
 20
106.234340
 42
-0.024702
  0
VERTEX
  8
0
 10
291.000000
 20
107.000000
 42
0.038332
  0
VERTEX
  8
0
 10
290.353917
 20
107.765268
 42
0.039803
  0
VERTEX
  8
0
 10
289.606151
 20
108.412500
 42
0.043072
  0
VERTEX
  8
0
 10
288.871239
 20
108.860855
 42
0.115942
  0
VERTEX
  8
0
 10
288.279241
 20
109.000000
 42
-0.116509
  0
VERTEX
  8
0
 10
287.791293
 20
109.115266
 42
-0.100516
  0
VERTEX
  8
0
 10
287.375777
 20
109.440625
 42
-0.093058
  0
VERTEX
  8
0
 10
287.096850
 20
109.927159
 42
-0.083939
  0
VERTEX
  8
0
 10
287.000000
 20
110.500000
 42
0.094164
  0
VERTEX
  8
0
 10
286.891204
 20
111.072570
 42
0.096665
  0
VERTEX
  8
0
 10
286.580357
 20
111.559375
 42
0.099005
  0
VERTEX
  8
0
 10
286.116526
 20
111.885227
 42
0.104136
  0
VERTEX
  8
0
 10
285.571429
 20
112.000000
 42
-0.074369
  0
VERTEX
  8
0
 10
284.927256
 20
112.096346
 42
-0.038557
  0
VERTEX
  8
0
 10
284.168269
 20
112.394231
 42
-0.037270
  0
VERTEX
  8
0
 10
283.419661
 20
112.828427
 42
-0.046359
  0
VERTEX
  8
0
 10
282.800793
 20
113.342064
 42
0.028584
  0
VERTEX
  8
0
 10
282.128789
 20
113.941332
 42
0.013447
  0
VERTEX
  8
0
 10
281.198084
 20
114.640376
 42
0.013276
  0
VERTEX
  8
0
 10
280.181116
 20
115.322408
 42
0.018204
  0
VERTEX
  8
0
 10
279.229364
 20
115.877248
 42
-0.065826
  0
VERTEX
  8
0
 10
278.233365
 20
116.592609
 42
-0.081256
  0
VERTEX
  8
0
 10
277.538592
 20
117.498391
 42
-0.075344
  0
VERTEX
  8
0
 10
277.134414
 20
118.634618
 42
-0.047876
  0
VERTEX
  8
0
 10
277.000000
 20
120.035184
 42
0.030524
  0
VERTEX
  8
0
 10
276.930594
 20
121.171024
 42
0.047390
  0
VERTEX
  8
0
 10
276.719602
 20
122.129085
 42
0.060340
  0
VERTEX
  8
0
 10
276.412535
 20
122.795091
 42
0.260208
  0
VERTEX
  8
0
 10
276.045455
 20
123.000000
 42
-0.136446
  0
VERTEX
  8
0
 10
275.530648
 20
123.143152
 42
-0.021006
  0
VERTEX
  8
0
 10
274.636932
 20
123.734375
 42
-0.022135
  0
VERTEX
  8
0
 10
273.618051
 20
124.542763
 42
-0.017608
  0
VERTEX
  8
0
 10
272.590909
 20
125.500000
 42
0.019243
  0
VERTEX
  8
0
 10
271.557106
 20
126.457149
 42
0.023573
  0
VERTEX
  8
0
 10
270.518182
 20
127.265625
 42
0.023009
  0
VERTEX
  8
0
 10
269.599762
 20
127.851908
 42
0.131281
  0
VERTEX
  8
0
 10
269.045455
 20
128.000000
 42
-0.094588
  0
VERTEX
  8
0
 10
268.646398
 20
128.076174
 42
-0.096788
  0
VERTEX
  8
0
 10
268.307102
 20
128.293750
 42
-0.098920
  0
VERTEX
  8
0
 10
268.079978
 20
128.618426
 42
-0.103674
  0
VERTEX
  8
0
 10
268.000000
 20
129.000000
 42
0.148195
  0
VERTEX
  8
0
 10
267.884432
 20
129.381354
 42
0.098894
  0
VERTEX
  8
0
 10
267.559375
 20
129.706250
 42
0.082425
  0
VERTEX
  8
0
 10
267.073457
 20
129.925306
 42
0.064853
  0
VERTEX
  8
0
 10
266.500000
 20
130.000000
 42
-0.064853
  0
VERTEX
  8
0
 10
265.926543
 20
130.074694
 42
-0.082425
  0
VERTEX
  8
0
 10
265.440625
 20
130.293750
 42
-0.098894
  0
VERTEX
  8
0
 10
265.115568
 20
130.618646
 42
-0.148195
  0
VERTEX
  8
0
 10
265.000000
 20
131.000000
 42
0.148195
  0
VERTEX
  8
0
 10
264.884432
 20
131.381354
 42
0.098894
  0
VERTEX
  8
0
 10
264.559375
 20
131.706250
 42
0.082425
  0
VERTEX
  8
0
 10
264.073457
 20
131.925306
 42
0.064853
  0
VERTEX
  8
0
 10
263.500000
 20
132.000000
 42
-0.059467
  0
VERTEX
  8
0
 10
262.926352
 20
132.068469
 42
-0.078370
  0
VERTEX
  8
0
 10
262.440625
 20
132.270410
 42
-0.096736
  0
VERTEX
  8
0
 10
262.115310
 20
132.569427
 42
-0.160000
  0
VERTEX
  8
0
 10
262.000000
 20
132.920545
 42
0.230346
  0
VERTEX
  8
0
 10
261.806252
 20
133.318790
 42
0.045180
  0
VERTEX
  8
0
 10
261.118750
 20
133.764234
 42
0.039605
  0
VERTEX
  8
0
 10
260.149012
 20
134.180468
 42
0.027524
  0
VERTEX
  8
0
 10
259.000000
 20
134.500000
 42
-0.022444
  0
VERTEX
  8
0
 10
257.850678
 20
134.807078
 42
-0.033394
  0
VERTEX
  8
0
 10
256.881250
 20
135.186128
 42
-0.035386
  0
VERTEX
  8
0
 10
256.178740
 20
135.579299
 42
-0.252632
  0
VERTEX
  8
0
 10
256.000000
 20
135.910476
 42
0.191323
  0
VERTEX
  8
0
 10
255.852656
 20
136.281446
 42
0.029619
  0
VERTEX
  8
0
 10
255.265625
 20
136.834294
 42
0.029447
  0
VERTEX
  8
0
 10
254.457399
 20
137.432696
 42
0.021766
  0
VERTEX
  8
0
 10
253.500000
 20
138.000000
 42
-0.050256
  0
VERTEX
  8
0
 10
252.543721
 20
138.642812
 42
-0.050180
  0
VERTEX
  8
0
 10
251.734375
 20
139.463782
 42
-0.054830
  0
VERTEX
  8
0
 10
251.180703
 20
140.330558
 42
-0.115229
  0
VERTEX
  8
0
 10
251.000000
 20
141.104252
 42
0.139593
  0
VERTEX
  8
0
 10
250.765105
 20
141.929211
 42
0.075682
  0
VERTEX
  8
0
 10
250.075477
 20
142.738291
 42
0.058220
  0
VERTEX
  8
0
 10
248.972330
 20
143.489034
 42
0.033579
  0
VERTEX
  8
0
 10
247.500000
 20
144.136160
 42
-0.018895
  0
VERTEX
  8
0
 10
246.159144
 20
144.679133
 42
-0.027614
  0
VERTEX
  8
0
 10
245.028125
 20
145.264741
 42
-0.026408
  0
VERTEX
  8
0
 10
244.191819
 20
145.819597
 42
-0.237366
  0
VERTEX
  8
0
 10
244.000000
 20
146.200888
 42
0.181234
  0
VERTEX
  8
0
 10
243.885687
 20
146.505903
 42
0.091290
  0
VERTEX
  8
0
 10
243.559375
 20
146.765261
 42
0.071236
  0
VERTEX
  8
0
 10
243.073945
 20
146.940954
 42
0.051303
  0
VERTEX
  8
0
 10
242.500000
 20
147.000000
 42
-0.059467
  0
VERTEX
  8
0
 10
241.926352
 20
147.068469
 42
-0.078370
  0
VERTEX
  8
0
 10
241.440625
 20
147.270410
 42
-0.096736
  0
VERTEX
  8
0
 10
241.115310
 20
147.569427
 42
-0.160000
  0
VERTEX
  8
0
 10
241.000000
 20
147.920545
 42
0.230346
  0
VERTEX
  8
0
 10
240.806252
 20
148.318790
 42
0.045180
  0
VERTEX
  8
0
 10
240.118750
 20
148.764234
 42
0.039605
  0
VERTEX
  8
0
 10
239.149012
 20
149.180468
 42
0.027524
  0
VERTEX
  8
0
 10
238.000000
 20
149.500000
 42
-0.025133
  0
VERTEX
  8
0
 10
236.850840
 20
149.813664
 42
-0.036749
  0
VERTEX
  8
0
 10
235.881250
 20
150.212426
 42
-0.040720
  0
VERTEX
  8
0
 10
235.187362
 20
150.633134
 42
-0.240576
  0
VERTEX
  8
0
 10
235.000000
 20
151.000000
 42
0.240576
  0
VERTEX
  8
0
 10
234.812638
 20
151.366866
 42
0.040720
  0
VERTEX
  8
0
 10
234.118750
 20
151.787574
 42
0.036749
  0
VERTEX
  8
0
 10
233.149160
 20
152.186336
 42
0.025133
  0
VERTEX
  8
0
 10
232.000000
 20
152.500000
 42
-0.024581
  0
VERTEX
  8
0
 10
230.850806
 20
152.812311
 42
-0.036073
  0
VERTEX
  8
0
 10
229.881250
 20
153.207029
 42
-0.039651
  0
VERTEX
  8
0
 10
229.185724
 20
153.622056
 42
-0.243006
  0
VERTEX
  8
0
 10
229.000000
 20
153.981630
 42
0.223122
  0
VERTEX
  8
0
 10
228.820592
 20
154.363654
 42
0.033924
  0
VERTEX
  8
0
 10
228.118750
 20
154.869881
 42
0.032530
  0
VERTEX
  8
0
 10
227.149075
 20
155.389600
 42
0.022890
  0
VERTEX
  8
0
 10
226.000000
 20
155.850155
 42
-0.076273
  0
VERTEX
  8
0
 10
223.718665
 20
157.060201
 42
-0.219074
  0
VERTEX
  8
0
 10
222.880526
 20
158.596112
 42
-0.380703
  0
VERTEX
  8
0
 10
223.648551
 20
159.587085
 42
-0.110703
  0
VERTEX
  8
0
 10
225.750000
 20
159.510226
 42
0.025649
  0
VERTEX
  8
0
 10
227.053303
 20
159.238182
 42
0.012904
  0
VERTEX
  8
0
 10
228.720312
 20
159.022472
 42
0.012779
  0
VERTEX
  8
0
 10
230.459214
 20
158.887752
 42
0.018490
  0
VERTEX
  8
0
 10
232.000000
 20
158.864965
 42
-0.030298
  0
VERTEX
  8
0
 10
233.692249
 20
158.799968
 42
-0.012938
  0
VERTEX
  8
0
 10
235.940625
 20
158.517812
 42
-0.012746
  0
VERTEX
  8
0
 10
238.329379
 20
158.092491
 42
-0.016368
  0
VERTEX
  8
0
 10
240.500000
 20
157.574103
 42
0.008910
  0
VERTEX
  8
0
 10
246.184928
 20
156.126479
 42
0.030946
  0
VERTEX
  8
0
 10
249.921589
 20
155.486398
 42
0.049415
  0
VERTEX
  8
0
 10
252.307490
 20
155.464854
 42
0.298229
  0
VERTEX
  8
0
 10
253.232168
 20
156.196505
 42
-0.250082
  0
VERTEX
  8
0
 10
253.828357
 20
156.761945
 42
-0.068754
  0
VERTEX
  8
0
 10
255.154073
 20
156.937330
 42
-0.032947
  0
VERTEX
  8
0
 10
257.444409
 20
156.772992
 42
-0.006285
  0
VERTEX
  8
0
 10
261.574813
 20
156.148449
 42
-0.001693
  0
VERTEX
  8
0
 10
264.764067
 20
155.614034
 42
-0.001969
  0
VERTEX
  8
0
 10
267.792949
 20
155.083655
 42
-0.001748
  0
VERTEX
  8
0
 10
270.352598
 20
154.615804
 42
-0.011801
  0
VERTEX
  8
0
 10
271.613949
 20
154.349750
 42
0.059641
  0
VERTEX
  8
0
 10
272.643565
 20
154.233593
 42
0.138752
  0
VERTEX
  8
0
 10
273.382733
 20
154.448182
 42
0.134953
  0
VERTEX
  8
0
 10
273.912653
 20
155.023643
 42
0.055096
  0
VERTEX
  8
0
 10
274.296304
 20
156.025065
 42
-0.067066
  0
VERTEX
  8
0
 10
274.763548
 20
157.162702
 42
-0.175857
  0
VERTEX
  8
0
 10
275.429235
 20
157.722269
 42
-0.107493
  0
VERTEX
  8
0
 10
276.530404
 20
157.873726
 42
-0.017578
  0
VERTEX
  8
0
 10
278.682355
 20
157.630316
 42
0.006062
  0
VERTEX
  8
0
 10
280.598216
 20
157.368802
 42
0.002217
  0
VERTEX
  8
0
 10
283.314402
 20
157.043759
 42
0.002197
  0
VERTEX
  8
0
 10
286.287180
 20
156.714604
 42
0.002629
  0
VERTEX
  8
0
 10
289.090077
 20
156.431619
 42
0.005110
  0
VERTEX
  8
0
 10
293.363994
 20
156.066844
 42
0.083560
  0
VERTEX
  8
0
 10
294.790340
 20
156.198167
 42
0.260972
  0
VERTEX
  8
0
 10
295.419318
 20
156.806970
 42
0.082552
  0
VERTEX
  8
0
 10
295.590077
 20
158.150629
 42
-0.155936
  0
VERTEX
  8
0
 10
295.965508
 20
159.501592
 42
-0.187520
  0
VERTEX
  8
0
 10
297.031845
 20
160.262250
 42
-0.047383
  0
VERTEX
  8
0
 10
299.517477
 20
160.648583
 42
-0.002916
  0
VERTEX
  8
0
 10
307.000000
 20
161.050534
 42
0.002111
  0
VERTEX
  8
0
 10
311.327051
 20
161.275999
 42
0.004190
  0
VERTEX
  8
0
 10
314.754687
 20
161.497942
 42
0.003525
  0
VERTEX
  8
0
 10
317.246351
 20
161.697930
 42
0.884265
  0
VERTEX
  8
0
 10
317.250000
 20
161.800534
 42
-0.209101
  0
VERTEX
  8
0
 10
316.319607
 20
162.397544
 42
-0.179792
  0
VERTEX
  8
0
 10
316.050117
 20
163.536937
 42
-0.132810
  0
VERTEX
  8
0
 10
316.588687
 20
164.856128
 42
-0.111725
  0
VERTEX
  8
0
 10
317.750000
 20
165.827537
 42
-0.076610
  0
VERTEX
  8
0
 10
318.904520
 20
166.211597
 42
-0.007881
  0
VERTEX
  8
0
 10
321.752376
 20
166.649176
 42
-0.009673
  0
VERTEX
  8
0
 10
325.183250
 20
167.053655
 42
-0.007584
  0
VERTEX
  8
0
 10
328.917663
 20
167.363717
 42
0.005201
  0
VERTEX
  8
0
 10
335.279791
 20
167.861443
 42
0.046815
  0
VERTEX
  8
0
 10
338.026120
 20
168.366973
 42
0.335566
  0
VERTEX
  8
0
 10
338.563631
 20
169.077447
 42
0.259977
  0
VERTEX
  8
0
 10
338.075322
 20
169.953448
 42
-0.095804
  0
VERTEX
  8
0
 10
337.598218
 20
170.393129
 42
-0.080908
  0
VERTEX
  8
0
 10
337.284603
 20
171.004895
 42
-0.079979
  0
VERTEX
  8
0
 10
337.179005
 20
171.691389
 42
-0.090097
  0
VERTEX
  8
0
 10
337.302786
 20
172.346665
 42
-0.188939
  0
VERTEX
  8
0
 10
338.431934
 20
173.583578
 42
-0.038128
  0
VERTEX
  8
0
 10
341.247442
 20
174.712104
 42
-0.030405
  0
VERTEX
  8
0
 10
345.318688
 20
175.726576
 42
-0.013769
  0
VERTEX
  8
0
 10
350.750000
 20
176.580130
 42
0.013048
  0
VERTEX
  8
0
 10
352.762436
 20
176.893424
 42
0.020903
  0
VERTEX
  8
0
 10
354.457812
 20
177.276699
 42
0.016149
  0
VERTEX
  8
0
 10
355.769031
 20
177.677180
 42
0.320899
  0
VERTEX
  8
0
 10
356.000000
 20
178.000000
 42
0.320899
  0
VERTEX
  8
0
 10
355.769031
 20
178.322820
 42
0.016149
  0
VERTEX
  8
0
 10
354.457812
 20
178.723301
 42
0.020903
  0
VERTEX
  8
0
 10
352.762436
 20
179.106576
 42
0.013048
  0
VERTEX
  8
0
 10
350.750000
 20
179.419870
 42
-0.013769
  0
VERTEX
  8
0
 10
345.318688
 20
180.273424
 42
-0.030405
  0
VERTEX
  8
0
 10
341.247442
 20
181.287896
 42
-0.038128
  0
VERTEX
  8
0
 10
338.431934
 20
182.416422
 42
-0.188939
  0
VERTEX
  8
0
 10
337.302786
 20
183.653335
 42
-0.090097
  0
VERTEX
  8
0
 10
337.179005
 20
184.308611
 42
-0.079979
  0
VERTEX
  8
0
 10
337.284603
 20
184.995105
 42
-0.080908
  0
VERTEX
  8
0
 10
337.598218
 20
185.606871
 42
-0.095804
  0
VERTEX
  8
0
 10
338.075322
 20
186.046552
 42
0.259977
  0
VERTEX
  8
0
 10
338.563631
 20
186.922553
 42
0.335566
  0
VERTEX
  8
0
 10
338.026120
 20
187.633027
 42
0.046815
  0
VERTEX
  8
0
 10
335.279791
 20
188.138557
 42
0.005201
  0
VERTEX
  8
0
 10
328.917663
 20
188.636283
 42
-0.007584
  0
VERTEX
  8
0
 10
325.183250
 20
188.946345
 42
-0.009673
  0
VERTEX
  8
0
 10
321.752376
 20
189.350824
 42
-0.007881
  0
VERTEX
  8
0
 10
318.904520
 20
189.788403
 42
-0.076610
  0
VERTEX
  8
0
 10
317.750000
 20
190.172463
 42
-0.111725
  0
VERTEX
  8
0
 10
316.588687
 20
191.143872
 42
-0.132810
  0
VERTEX
  8
0
 10
316.050117
 20
192.463063
 42
-0.179792
  0
VERTEX
  8
0
 10
316.319607
 20
193.602456
 42
-0.209101
  0
VERTEX
  8
0
 10
317.250000
 20
194.199466
 42
0.884265
  0
VERTEX
  8
0
 10
317.246351
 20
194.302070
 42
0.003525
  0
VERTEX
  8
0
 10
314.754687
 20
194.502058
 42
0.004190
  0
VERTEX
  8
0
 10
311.327051
 20
194.724001
 42
0.002111
  0
VERTEX
  8
0
 10
307.000000
 20
194.949466
 42
-0.002916
  0
VERTEX
  8
0
 10
299.517477
 20
195.351417
 42
-0.047383
  0
VERTEX
  8
0
 10
297.031845
 20
195.737750
 42
-0.187520
  0
VERTEX
  8
0
 10
295.965508
 20
196.498408
 42
-0.155936
  0
VERTEX
  8
0
 10
295.590077
 20
197.849371
 42
0.082552
  0
VERTEX
  8
0
 10
295.419318
 20
199.193030
 42
0.260972
  0
VERTEX
  8
0
 10
294.790340
 20
199.801833
 42
0.083560
  0
VERTEX
  8
0
 10
293.363994
 20
199.933156
 42
0.005110
  0
VERTEX
  8
0
 10
289.090077
 20
199.568381
 42
0.002629
  0
VERTEX
  8
0
 10
286.287180
 20
199.285396
 42
0.002197
  0
VERTEX
  8
0
 10
283.314402
 20
198.956241
 42
0.002217
  0
VERTEX
  8
0
 10
280.598216
 20
198.631198
 42
0.006062
  0
VERTEX
  8
0
 10
278.682355
 20
198.369684
 42
-0.017578
  0
VERTEX
  8
0
 10
276.530404
 20
198.126274
 42
-0.107493
  0
VERTEX
  8
0
 10
275.429235
 20
198.277731
 42
-0.175857
  0
VERTEX
  8
0
 10
274.763548
 20
198.837298
 42
-0.067066
  0
VERTEX
  8
0
 10
274.296304
 20
199.974935
 42
0.055096
  0
VERTEX
  8
0
 10
273.912653
 20
200.976357
 42
0.134953
  0
VERTEX
  8
0
 10
273.382733
 20
201.551818
 42
0.138752
  0
VERTEX
  8
0
 10
272.643565
 20
201.766407
 42
0.059641
  0
VERTEX
  8
0
 10
271.613949
 20
201.650250
 42
-0.011801
  0
VERTEX
  8
0
 10
270.352598
 20
201.384196
 42
-0.001748
  0
VERTEX
  8
0
 10
267.792949
 20
200.916345
 42
-0.001969
  0
VERTEX
  8
0
 10
264.764067
 20
200.385966
 42
-0.001693
  0
VERTEX
  8
0
 10
261.574813
 20
199.851551
 42
-0.006285
  0
VERTEX
  8
0
 10
257.444409
 20
199.227008
 42
-0.032947
  0
VERTEX
  8
0
 10
255.154073
 20
199.062670
 42
-0.068754
  0
VERTEX
  8
0
 10
253.828357
 20
199.238055
 42
-0.250082
  0
VERTEX
  8
0
 10
253.232168
 20
199.803495
 42
0.298229
  0
VERTEX
  8
0
 10
252.307490
 20
200.535146
 42
0.049415
  0
VERTEX
  8
0
 10
249.921589
 20
200.513602
 42
0.030946
  0
VERTEX
  8
0
 10
246.184928
 20
199.873521
 42
0.008910
  0
VERTEX
  8
0
 10
240.500000
 20
198.425897
 42
-0.016368
  0
VERTEX
  8
0
 10
238.329379
 20
197.907509
 42
-0.012746
  0
VERTEX
  8
0
 10
235.940625
 20
197.482188
 42
-0.012938
  0
VERTEX
  8
0
 10
233.692249
 20
197.200032
 42
-0.030298
  0
VERTEX
  8
0
 10
232.000000
 20
197.135035
 42
0.018490
  0
VERTEX
  8
0
 10
230.459214
 20
197.112248
 42
0.012779
  0
VERTEX
  8
0
 10
228.720312
 20
196.977528
 42
0.012904
  0
VERTEX
  8
0
 10
227.053303
 20
196.761818
 42
0.025649
  0
VERTEX
  8
0
 10
225.750000
 20
196.489774
 42
-0.110703
  0
VERTEX
  8
0
 10
223.648551
 20
196.412915
 42
-0.380703
  0
VERTEX
  8
0
 10
222.880526
 20
197.403888
 42
-0.219074
  0
VERTEX
  8
0
 10
223.718665
 20
198.939799
 42
-0.076273
  0
VERTEX
  8
0
 10
226.000000
 20
200.149845
 42
0.022890
  0
VERTEX
  8
0
 10
227.149075
 20
200.610400
 42
0.032530
  0
VERTEX
  8
0
 10
228.118750
 20
201.130119
 42
0.033924
  0
VERTEX
  8
0
 10
228.820592
 20
201.636346
 42
0.223122
  0
VERTEX
  8
0
 10
229.000000
 20
202.018370
 42
-0.243006
  0
VERTEX
  8
0
 10
229.185724
 20
202.377944
 42
-0.039651
  0
VERTEX
  8
0
 10
229.881250
 20
202.792971
 42
-0.036073
  0
VERTEX
  8
0
 10
230.850806
 20
203.187689
 42
-0.024581
  0
VERTEX
  8
0
 10
232.000000
 20
203.500000
 42
0.025133
  0
VERTEX
  8
0
 10
233.149160
 20
203.813664
 42
0.036749
  0
VERTEX
  8
0
 10
234.118750
 20
204.212426
 42
0.040720
  0
VERTEX
  8
0
 10
234.812638
 20
204.633134
 42
0.240576
  0
VERTEX
  8
0
 10
235.000000
 20
205.000000
 42
-0.240576
  0
VERTEX
  8
0
 10
235.187362
 20
205.366866
 42
-0.040720
  0
VERTEX
  8
0
 10
235.881250
 20
205.787574
 42
-0.036749
  0
VERTEX
  8
0
 10
236.850840
 20
206.186336
 42
-0.025133
  0
VERTEX
  8
0
 10
238.000000
 20
206.500000
 42
0.027524
  0
VERTEX
  8
0
 10
239.149012
 20
206.819532
 42
0.039605
  0
VERTEX
  8
0
 10
240.118750
 20
207.235766
 42
0.045180
  0
VERTEX
  8
0
 10
240.806252
 20
207.681210
 42
0.230346
  0
VERTEX
  8
0
 10
241.000000
 20
208.079455
 42
-0.160000
  0
VERTEX
  8
0
 10
241.115310
 20
208.430573
 42
-0.096736
  0
VERTEX
  8
0
 10
241.440625
 20
208.729590
 42
-0.078370
  0
VERTEX
  8
0
 10
241.926352
 20
208.931531
 42
-0.059467
  0
VERTEX
  8
0
 10
242.500000
 20
209.000000
 42
0.051303
  0
VERTEX
  8
0
 10
243.073945
 20
209.059046
 42
0.071236
  0
VERTEX
  8
0
 10
243.559375
 20
209.234739
 42
0.091290
  0
VERTEX
  8
0
 10
243.885687
 20
209.494097
 42
0.181234
  0
VERTEX
  8
0
 10
244.000000
 20
209.799112
 42
-0.237366
  0
VERTEX
  8
0
 10
244.191819
 20
210.180403
 42
-0.026408
  0
VERTEX
  8
0
 10
245.028125
 20
210.735259
 42
-0.027614
  0
VERTEX
  8
0
 10
246.159144
 20
211.320867
 42
-0.018895
  0
VERTEX
  8
0
 10
247.500000
 20
211.863840
 42
0.033579
  0
VERTEX
  8
0
 10
248.972330
 20
212.510966
 42
0.058220
  0
VERTEX
  8
0
 10
250.075477
 20
213.261709
 42
0.075682
  0
VERTEX
  8
0
 10
250.765105
 20
214.070789
 42
0.139593
  0
VERTEX
  8
0
 10
251.000000
 20
214.895748
 42
-0.115229
  0
VERTEX
  8
0
 10
251.180703
 20
215.669442
 42
-0.054830
  0
VERTEX
  8
0
 10
251.734375
 20
216.536218
 42
-0.050180
  0
VERTEX
  8
0
 10
252.543721
 20
217.357188
 42
-0.050256
  0
VERTEX
  8
0
 10
253.500000
 20
218.000000
 42
0.021766
  0
VERTEX
  8
0
 10
254.457399
 20
218.567304
 42
0.029447
  0
VERTEX
  8
0
 10
255.265625
 20
219.165706
 42
0.029619
  0
VERTEX
  8
0
 10
255.852656
 20
219.718554
 42
0.191323
  0
VERTEX
  8
0
 10
256.000000
 20
220.089524
 42
-0.252632
  0
VERTEX
  8
0
 10
256.178740
 20
220.420701
 42
-0.035386
  0
VERTEX
  8
0
 10
256.881250
 20
220.813872
 42
-0.033394
  0
VERTEX
  8
0
 10
257.850678
 20
221.192922
 42
-0.022444
  0
VERTEX
  8
0
 10
259.000000
 20
221.500000
 42
0.027524
  0
VERTEX
  8
0
 10
260.149012
 20
221.819532
 42
0.039605
  0
VERTEX
  8
0
 10
261.118750
 20
222.235766
 42
0.045180
  0
VERTEX
  8
0
 10
261.806252
 20
222.681210
 42
0.230346
  0
VERTEX
  8
0
 10
262.000000
 20
223.079455
 42
-0.160000
  0
VERTEX
  8
0
 10
262.115310
 20
223.430573
 42
-0.096736
  0
VERTEX
  8
0
 10
262.440625
 20
223.729590
 42
-0.078370
  0
VERTEX
  8
0
 10
262.926352
 20
223.931531
 42
-0.059467
  0
VERTEX
  8
0
 10
263.500000
 20
224.000000
 42
0.064853
  0
VERTEX
  8
0
 10
264.073457
 20
224.074694
 42
0.082425
  0
VERTEX
  8
0
 10
264.559375
 20
224.293750
 42
0.098894
  0
VERTEX
  8
0
 10
264.884432
 20
224.618646
 42
0.148195
  0
VERTEX
  8
0
 10
265.000000
 20
225.000000
 42
-0.148195
  0
VERTEX
  8
0
 10
265.115568
 20
225.381354
 42
-0.098894
  0
VERTEX
  8
0
 10
265.440625
 20
225.706250
 42
-0.082425
  0
VERTEX
  8
0
 10
265.926543
 20
225.925306
 42
-0.064853
  0
VERTEX
  8
0
 10
266.500000
 20
226.000000
 42
0.064853
  0
VERTEX
  8
0
 10
267.073457
 20
226.074694
 42
0.082425
  0
VERTEX
  8
0
 10
267.559375
 20
226.293750
 42
0.098894
  0
VERTEX
  8
0
 10
267.884432
 20
226.618646
 42
0.148195
  0
VERTEX
  8
0
 10
268.000000
 20
227.000000
 42
-0.103674
  0
VERTEX
  8
0
 10
268.079978
 20
227.381574
 42
-0.098920
  0
VERTEX
  8
0
 10
268.307102
 20
227.706250
 42
-0.096788
  0
VERTEX
  8
0
 10
268.646398
 20
227.923826
 42
-0.094588
  0
VERTEX
  8
0
 10
269.045455
 20
228.000000
 42
0.131281
  0
VERTEX
  8
0
 10
269.599762
 20
228.148092
 42
0.023009
  0
VERTEX
  8
0
 10
270.518182
 20
228.734375
 42
0.023573
  0
VERTEX
  8
0
 10
271.557106
 20
229.542851
 42
0.019243
  0
VERTEX
  8
0
 10
272.590909
 20
230.500000
 42
-0.017608
  0
VERTEX
  8
0
 10
273.618051
 20
231.457237
 42
-0.022135
  0
VERTEX
  8
0
 10
274.636932
 20
232.265625
 42
-0.021006
  0
VERTEX
  8
0
 10
275.530648
 20
232.856848
 42
-0.136446
  0
VERTEX
  8
0
 10
276.045455
 20
233.000000
 42
0.260208
  0
VERTEX
  8
0
 10
276.412535
 20
233.204909
 42
0.060340
  0
VERTEX
  8
0
 10
276.719602
 20
233.870915
 42
0.047390
  0
VERTEX
  8
0
 10
276.930594
 20
234.828976
 42
0.030524
  0
VERTEX
  8
0
 10
277.000000
 20
235.964816
 42
-0.047876
  0
VERTEX
  8
0
 10
277.134414
 20
237.365382
 42
-0.075344
  0
VERTEX
  8
0
 10
277.538592
 20
238.501609
 42
-0.081256
  0
VERTEX
  8
0
 10
278.233365
 20
239.407391
 42
-0.065826
  0
VERTEX
  8
0
 10
279.229364
 20
240.122752
 42
0.018204
  0
VERTEX
  8
0
 10
280.181116
 20
240.677592
 42
0.013276
  0
VERTEX
  8
0
 10
281.198084
 20
241.359624
 42
0.013447
  0
VERTEX
  8
0
 10
282.128789
 20
242.058668
 42
0.028584
  0
VERTEX
  8
0
 10
282.800793
 20
242.657936
 42
-0.046359
  0
VERTEX
  8
0
 10
283.419661
 20
243.171573
 42
-0.037270
  0
VERTEX
  8
0
 10
284.168269
 20
243.605769
 42
-0.038557
  0
VERTEX
  8
0
 10
284.927256
 20
243.903654
 42
-0.074369
  0
VERTEX
  8
0
 10
285.571429
 20
244.000000
 42
0.104136
  0
VERTEX
  8
0
 10
286.116526
 20
244.114773
 42
0.099005
  0
VERTEX
  8
0
 10
286.580357
 20
244.440625
 42
0.096665
  0
VERTEX
  8
0
 10
286.891204
 20
244.927430
 42
0.094164
  0
VERTEX
  8
0
 10
287.000000
 20
245.500000
 42
-0.083939
  0
VERTEX
  8
0
 10
287.096850
 20
246.072841
 42
-0.093058
  0
VERTEX
  8
0
 10
287.375777
 20
246.559375
 42
-0.100516
  0
VERTEX
  8
0
 10
287.791293
 20
246.884734
 42
-0.116509
  0
VERTEX
  8
0
 10
288.279241
 20
247.000000
 42
0.115942
  0
VERTEX
  8
0
 10
288.871239
 20
247.139145
 42
0.043072
  0
VERTEX
  8
0
 10
289.606151
 20
247.587500
 42
0.039803
  0
VERTEX
  8
0
 10
290.353917
 20
248.234732
 42
0.038332
  0
VERTEX
  8
0
 10
291.000000
 20
249.000000
 42
-0.024702
  0
VERTEX
  8
0
 10
291.611495
 20
249.765660
 42
-0.030445
  0
VERTEX
  8
0
 10
292.256766
 20
250.412500
 42
-0.031553
  0
VERTEX
  8
0
 10
292.849268
 20
250.874869
 42
-0.151025
  0
VERTEX
  8
0
 10
293.254093
 20
251.000000
 42
0.158217
  0
VERTEX
  8
0
 10
293.725142
 20
251.152883
 42
0.012774
  0
VERTEX
  8
0
 10
294.772869
 20
251.954688
 42
0.016221
  0
VERTEX
  8
0
 10
295.991996
 20
253.005095
 42
0.011731
  0
VERTEX
  8
0
 10
297.283333
 20
254.250000
 42
0.027031
  0
VERTEX
  8
0
 10
298.707353
 20
255.853464
 42
0.049877
  0
VERTEX
  8
0
 10
299.650983
 20
257.317661
 42
0.062090
  0
VERTEX
  8
0
 10
300.148879
 20
258.686814
 42
0.083829
  0
VERTEX
  8
0
 10
300.224468
 20
260.000000
 42
-0.133228
  0
VERTEX
  8
0
 10
300.557218
 20
262.127802
 42
-0.043913
  0
VERTEX
  8
0
 10
302.110144
 20
264.918513
 42
-0.042551
  0
VERTEX
  8
0
 10
304.057665
 20
267.323827
 42
-0.204046
  0
VERTEX
  8
0
 10
305.645590
 20
268.000000
 42
0.142200
  0
VERTEX
  8
0
 10
306.091577
 20
268.129456
 42
0.034808
  0
VERTEX
  8
0
 10
306.713766
 20
268.587500
 42
0.032863
  0
VERTEX
  8
0
 10
307.381099
 20
269.234447
 42
0.027678
  0
VERTEX
  8
0
 10
308.000000
 20
270.000000
 42
-0.038332
  0
VERTEX
  8
0
 10
308.646083
 20
270.765268
 42
-0.039803
  0
VERTEX
  8
0
 10
309.393849
 20
271.412500
 42
-0.043072
  0
VERTEX
  8
0
 10
310.128761
 20
271.860855
 42
-0.115942
  0
VERTEX
  8
0
 10
310.720759
 20
272.000000
 42
0.082368
  0
VERTEX
  8
0
 10
311.209333
 20
272.081036
 42
0.092384
  0
VERTEX
  8
0
 10
311.624223
 20
272.314732
 42
0.100638
  0
VERTEX
  8
0
 10
311.901643
 20
272.662766
 42
0.118646
  0
VERTEX
  8
0
 10
312.000000
 20
273.071429
 42
-0.145648
  0
VERTEX
  8
0
 10
312.303494
 20
274.091201
 42
-0.037328
  0
VERTEX
  8
0
 10
313.360636
 20
275.472756
 42
-0.036399
  0
VERTEX
  8
0
 10
314.596035
 20
276.671309
 42
-0.176163
  0
VERTEX
  8
0
 10
315.500000
 20
277.000000
 42
0.176163
  0
VERTEX
  8
0
 10
316.403965
 20
277.328691
 42
0.036399
  0
VERTEX
  8
0
 10
317.639364
 20
278.527244
 42
0.037328
  0
VERTEX
  8
0
 10
318.696506
 20
279.908799
 42
0.145648
  0
VERTEX
  8
0
 10
319.000000
 20
280.928571
 42
-0.081950
  0
VERTEX
  8
0
 10
319.067523
 20
281.337785
 42
-0.092199
  0
VERTEX
  8
0
 10
319.262322
 20
281.685268
 42
-0.100664
  0
VERTEX
  8
0
 10
319.552404
 20
281.917610
 42
-0.119227
  0
VERTEX
  8
0
 10
319.893011
 20
282.000000
 42
0.238418
  0
VERTEX
  8
0
 10
320.803720
 20
282.460431
 42
0.095114
  0
VERTEX
  8
0
 10
321.422926
 20
283.759002
 42
0.088140
  0
VERTEX
  8
0
 10
321.544298
 20
285.283166
 42
0.173984
  0
VERTEX
  8
0
 10
321.032783
 20
286.367217
 42
-0.095302
  0
VERTEX
  8
0
 10
320.253204
 20
287.518128
 42
-0.135243
  0
VERTEX
  8
0
 10
320.085874
 20
288.736520
 42
-0.103035
  0
VERTEX
  8
0
 10
320.568956
 20
290.112153
 42
-0.040325
  0
VERTEX
  8
0
 10
321.750000
 20
291.753719
 42
0.006921
  0
VERTEX
  8
0
 10
322.526829
 20
292.694118
 42
0.004238
  0
VERTEX
  8
0
 10
323.417973
 20
293.823308
 42
0.004248
  0
VERTEX
  8
0
 10
324.281496
 20
294.956528
 42
0.007542
  0
VERTEX
  8
0
 10
324.970759
 20
295.906729
 42
-0.025144
  0
VERTEX
  8
0
 10
325.596246
 20
296.708090
 42
-0.031010
  0
VERTEX
  8
0
 10
326.259367
 20
297.385102
 42
-0.032288
  0
VERTEX
  8
0
 10
326.870483
 20
297.868475
 42
-0.152326
  0
VERTEX
  8
0
 10
327.292188
 20
298.000000
 42
0.161617
  0
VERTEX
  8
0
 10
328.309335
 20
298.337594
 42
0.043371
  0
VERTEX
  8
0
 10
329.598082
 20
299.485387
 42
0.043673
  0
VERTEX
  8
0
 10
330.676751
 20
300.849124
 42
0.146515
  0
VERTEX
  8
0
 10
331.000000
 20
301.928571
 42
-0.092210
  0
VERTEX
  8
0
 10
331.076077
 20
302.337584
 42
-0.096076
  0
VERTEX
  8
0
 10
331.293750
 20
302.685268
 42
-0.099376
  0
VERTEX
  8
0
 10
331.618459
 20
302.917947
 42
-0.106313
  0
VERTEX
  8
0
 10
332.000000
 20
303.000000
 42
0.148195
  0
VERTEX
  8
0
 10
332.381354
 20
303.115568
 42
0.098894
  0
VERTEX
  8
0
 10
332.706250
 20
303.440625
 42
0.082425
  0
VERTEX
  8
0
 10
332.925306
 20
303.926543
 42
0.064853
  0
VERTEX
  8
0
 10
333.000000
 20
304.500000
 42
-0.099038
  0
VERTEX
  8
0
 10
333.114514
 20
305.072457
 42
-0.097945
  0
VERTEX
  8
0
 10
333.440625
 20
305.559375
 42
-0.097945
  0
VERTEX
  8
0
 10
333.927543
 20
305.885486
 42
-0.099038
  0
VERTEX
  8
0
 10
334.500000
 20
306.000000
 42
0.099038
  0
VERTEX
  8
0
 10
335.072457
 20
306.114514
 42
0.097945
  0
VERTEX
  8
0
 10
335.559375
 20
306.440625
 42
0.097945
  0
VERTEX
  8
0
 10
335.885486
 20
306.927543
 42
0.099038
  0
VERTEX
  8
0
 10
336.000000
 20
307.500000
 42
-0.056643
  0
VERTEX
  8
0
 10
336.065207
 20
308.073750
 42
-0.076039
  0
VERTEX
  8
0
 10
336.258112
 20
308.559375
 42
-0.095179
  0
VERTEX
  8
0
 10
336.543472
 20
308.884936
 42
-0.166853
  0
VERTEX
  8
0
 10
336.878680
 20
309.000000
 42
0.213405
  0
VERTEX
  8
0
 10
337.297868
 20
309.187450
 42
0.031434
  0
VERTEX
  8
0
 10
337.886678
 20
309.935340
 42
0.030852
  0
VERTEX
  8
0
 10
338.507016
 20
310.964580
 42
0.022011
  0
VERTEX
  8
0
 10
339.076272
 20
312.184136
 42
0.016584
  0
VERTEX
  8
0
 10
339.678140
 20
313.785396
 42
0.073262
  0
VERTEX
  8
0
 10
339.858133
 20
314.773934
 42
0.154028
  0
VERTEX
  8
0
 10
339.686431
 20
315.390000
 42
0.169491
  0
VERTEX
  8
0
 10
339.197592
 20
315.767469
 42
-0.121047
  0
VERTEX
  8
0
 10
338.739509
 20
316.056372
 42
-0.068925
  0
VERTEX
  8
0
 10
338.351793
 20
316.588618
 42
-0.062346
  0
VERTEX
  8
0
 10
338.089287
 20
317.270660
 42
-0.060794
  0
VERTEX
  8
0
 10
338.000000
 20
318.002294
 42
-0.096366
  0
VERTEX
  8
0
 10
338.376883
 20
319.939612
 42
-0.026132
  0
VERTEX
  8
0
 10
339.703586
 20
322.783276
 42
-0.020233
  0
VERTEX
  8
0
 10
341.262091
 20
325.447855
 42
-0.253390
  0
VERTEX
  8
0
 10
342.250000
 20
325.993677
 42
0.190186
  0
VERTEX
  8
0
 10
342.536447
 20
326.109523
 42
0.087379
  0
VERTEX
  8
0
 10
342.779688
 20
326.438768
 42
0.067632
  0
VERTEX
  8
0
 10
342.944719
 20
326.925479
 42
0.048000
  0
VERTEX
  8
0
 10
343.000000
 20
327.500000
 42
-0.064853
  0
VERTEX
  8
0
 10
343.074694
 20
328.073457
 42
-0.082425
  0
VERTEX
  8
0
 10
343.293750
 20
328.559375
 42
-0.098894
  0
VERTEX
  8
0
 10
343.618646
 20
328.884432
 42
-0.148195
  0
VERTEX
  8
0
 10
344.000000
 20
329.000000
 42
0.148195
  0
VERTEX
  8
0
 10
344.381354
 20
329.115568
 42
0.098894
  0
VERTEX
  8
0
 10
344.706250
 20
329.440625
 42
0.082425
  0
VERTEX
  8
0
 10
344.925306
 20
329.926543
 42
0.064853
  0
VERTEX
  8
0
 10
345.000000
 20
330.500000
 42
-0.064853
  0
VERTEX
  8
0
 10
345.074694
 20
331.073457
 42
-0.082425
  0
VERTEX
  8
0
 10
345.293750
 20
331.559375
 42
-0.098894
  0
VERTEX
  8
0
 10
345.618646
 20
331.884432
 42
-0.148195
  0
VERTEX
  8
0
 10
346.000000
 20
332.000000
 42
0.148195
  0
VERTEX
  8
0
 10
346.381354
 20
332.115568
 42
0.098894
  0
VERTEX
  8
0
 10
346.706250
 20
332.440625
 42
0.082425
  0
VERTEX
  8
0
 10
346.925306
 20
332.926543
 42
0.064853
  0
VERTEX
  8
0
 10
347.000000
 20
333.500000
 42
-0.064853
  0
VERTEX
  8
0
 10
347.074694
 20
334.073457
 42
-0.082425
  0
VERTEX
  8
0
 10
347.293750
 20
334.559375
 42
-0.098894
  0
VERTEX
  8
0
 10
347.618646
 20
334.884432
 42
-0.148195
  0
VERTEX
  8
0
 10
348.000000
 20
335.000000
 42
0.112508
  0
VERTEX
  8
0
 10
348.381472
 20
335.086938
 42
0.100182
  0
VERTEX
  8
0
 10
348.706250
 20
335.332732
 42
0.094286
  0
VERTEX
  8
0
 10
348.924148
 20
335.700197
 42
0.087025
  0
VERTEX
  8
0
 10
349.000000
 20
336.132705
 42
-0.110376
  0
VERTEX
  8
0
 10
349.121915
 20
336.678249
 42
-0.035301
  0
VERTEX
  8
0
 10
349.530254
 20
337.407758
 42
-0.033263
  0
VERTEX
  8
0
 10
350.114312
 20
338.180260
 42
-0.031599
  0
VERTEX
  8
0
 10
350.805120
 20
338.882705
 42
0.048025
  0
VERTEX
  8
0
 10
351.594391
 20
339.739759
 42
0.020597
  0
VERTEX
  8
0
 10
352.482936
 20
341.018996
 42
0.020154
  0
VERTEX
  8
0
 10
353.324473
 20
342.469883
 42
0.025051
  0
VERTEX
  8
0
 10
353.981983
 20
343.884091
 42
0.015618
  0
VERTEX
  8
0
 10
354.707960
 20
345.849235
 42
0.097489
  0
VERTEX
  8
0
 10
354.844490
 20
346.907722
 42
0.157934
  0
VERTEX
  8
0
 10
354.532945
 20
347.689165
 42
0.061772
  0
VERTEX
  8
0
 10
353.676863
 20
348.494333
 42
-0.040197
  0
VERTEX
  8
0
 10
353.035264
 20
349.047730
 42
-0.040558
  0
VERTEX
  8
0
 10
352.492578
 20
349.695107
 42
-0.043763
  0
VERTEX
  8
0
 10
352.117588
 20
350.336420
 42
-0.110861
  0
VERTEX
  8
0
 10
352.000000
 20
350.860243
 42
0.099038
  0
VERTEX
  8
0
 10
351.912988
 20
351.295218
 42
0.097945
  0
VERTEX
  8
0
 10
351.665196
 20
351.665196
 42
0.097945
  0
VERTEX
  8
0
 10
351.295218
 20
351.912988
 42
0.099038
  0
VERTEX
  8
0
 10
350.860243
 20
352.000000
 42
-0.110861
  0
VERTEX
  8
0
 10
350.336420
 20
352.117588
 42
-0.043763
  0
VERTEX
  8
0
 10
349.695107
 20
352.492578
 42
-0.040558
  0
VERTEX
  8
0
 10
349.047730
 20
353.035264
 42
-0.040197
  0
VERTEX
  8
0
 10
348.494333
 20
353.676863
 42
0.061772
  0
VERTEX
  8
0
 10
347.689165
 20
354.532945
 42
0.157934
  0
VERTEX
  8
0
 10
346.907722
 20
354.844490
 42
0.097489
  0
VERTEX
  8
0
 10
345.849235
 20
354.707960
 42
0.015618
  0
VERTEX
  8
0
 10
343.884091
 20
353.981983
 42
0.025051
  0
VERTEX
  8
0
 10
342.469883
 20
353.324473
 42
0.020154
  0
VERTEX
  8
0
 10
341.018996
 20
352.482936
 42
0.020597
  0
VERTEX
  8
0
 10
339.739759
 20
351.594391
 42
0.048025
  0
VERTEX
  8
0
 10
338.882705
 20
350.805120
 42
-0.031599
  0
VERTEX
  8
0
 10
338.180260
 20
350.114312
 42
-0.033263
  0
VERTEX
  8
0
 10
337.407758
 20
349.530254
 42
-0.035301
  0
VERTEX
  8
0
 10
336.678249
 20
349.121915
 42
-0.110376
  0
VERTEX
  8
0
 10
336.132705
 20
349.000000
 42
0.087025
  0
VERTEX
  8
0
 10
335.700197
 20
348.924148
 42
0.094286
  0
VERTEX
  8
0
 10
335.332732
 20
348.706250
 42
0.100182
  0
VERTEX
  8
0
 10
335.086938
 20
348.381472
 42
0.112508
  0
VERTEX
  8
0
 10
335.000000
 20
348.000000
 42
-0.148195
  0
VERTEX
  8
0
 10
334.884432
 20
347.618646
 42
-0.098894
  0
VERTEX
  8
0
 10
334.559375
 20
347.293750
 42
-0.082425
  0
VERTEX
  8
0
 10
334.073457
 20
347.074694
 42
-0.064853
  0
VERTEX
  8
0
 10
333.500000
 20
347.000000
 42
0.064853
  0
VERTEX
  8
0
 10
332.926543
 20
346.925306
 42
0.082425
  0
VERTEX
  8
0
 10
332.440625
 20
346.706250
 42
0.098894
  0
VERTEX
  8
0
 10
332.115568
 20
346.381354
 42
0.148195
  0
VERTEX
  8
0
 10
332.000000
 20
346.000000
 42
-0.148195
  0
VERTEX
  8
0
 10
331.884432
 20
345.618646
 42
-0.098894
  0
VERTEX
  8
0
 10
331.559375
 20
345.293750
 42
-0.082425
  0
VERTEX
  8
0
 10
331.073457
 20
345.074694
 42
-0.064853
  0
VERTEX
  8
0
 10
330.500000
 20
345.000000
 42
0.064853
  0
VERTEX
  8
0
 10
329.926543
 20
344.925306
 42
0.082425
  0
VERTEX
  8
0
 10
329.440625
 20
344.706250
 42
0.098894
  0
VERTEX
  8
0
 10
329.115568
 20
344.381354
 42
0.148195
  0
VERTEX
  8
0
 10
329.000000
 20
344.000000
 42
-0.148195
  0
VERTEX
  8
0
 10
328.884432
 20
343.618646
 42
-0.098894
  0
VERTEX
  8
0
 10
328.559375
 20
343.293750
 42
-0.082425
  0
VERTEX
  8
0
 10
328.073457
 20
343.074694
 42
-0.064853
  0
VERTEX
  8
0
 10
327.500000
 20
343.000000
 42
0.048000
  0
VERTEX
  8
0
 10
326.925479
 20
342.944719
 42
0.067632
  0
VERTEX
  8
0
 10
326.438768
 20
342.779688
 42
0.087379
  0
VERTEX
  8
0
 10
326.109523
 20
342.536447
 42
0.190186
  0
VERTEX
  8
0
 10
325.993677
 20
342.250000
 42
-0.253390
  0
VERTEX
  8
0
 10
325.447855
 20
341.262091
 42
-0.020233
  0
VERTEX
  8
0
 10
322.783276
 20
339.703586
 42
-0.026132
  0
VERTEX
  8
0
 10
319.939612
 20
338.376883
 42
-0.096366
  0
VERTEX
  8
0
 10
318.002294
 20
338.000000
 42
-0.060794
  0
VERTEX
  8
0
 10
317.270660
 20
338.089287
 42
-0.062346
  0
VERTEX
  8
0
 10
316.588618
 20
338.351793
 42
-0.068925
  0
VERTEX
  8
0
 10
316.056372
 20
338.739509
 42
-0.121047
  0
VERTEX
  8
0
 10
315.767469
 20
339.197592
 42
0.169491
  0
VERTEX
  8
0
 10
315.390000
 20
339.686431
 42
0.154028
  0
VERTEX
  8
0
 10
314.773934
 20
339.858133
 42
0.073262
  0
VERTEX
  8
0
 10
313.785396
 20
339.678140
 42
0.016584
  0
VERTEX
  8
0
 10
312.184136
 20
339.076272
 42
0.022011
  0
VERTEX
  8
0
 10
310.964580
 20
338.507016
 42
0.030852
  0
VERTEX
  8
0
 10
309.935340
 20
337.886678
 42
0.031434
  0
VERTEX
  8
0
 10
309.187450
 20
337.297868
 42
0.213405
  0
VERTEX
  8
0
 10
309.000000
 20
336.878680
 42
-0.166853
  0
VERTEX
  8
0
 10
308.884936
 20
336.543472
 42
-0.095179
  0
VERTEX
  8
0
 10
308.559375
 20
336.258112
 42
-0.076039
  0
VERTEX
  8
0
 10
308.073750
 20
336.065207
 42
-0.056643
  0
VERTEX
  8
0
 10
307.500000
 20
336.000000
 42
0.099038
  0
VERTEX
  8
0
 10
306.927543
 20
335.885486
 42
0.097945
  0
VERTEX
  8
0
 10
306.440625
 20
335.559375
 42
0.097945
  0
VERTEX
  8
0
 10
306.114514
 20
335.072457
 42
0.099038
  0
VERTEX
  8
0
 10
306.000000
 20
334.500000
 42
-0.099038
  0
VERTEX
  8
0
 10
305.885486
 20
333.927543
 42
-0.097945
  0
VERTEX
  8
0
 10
305.559375
 20
333.440625
 42
-0.097945
  0
VERTEX
  8
0
 10
305.072457
 20
333.114514
 42
-0.099038
  0
VERTEX
  8
0
 10
304.500000
 20
333.000000
 42
0.064853
  0
VERTEX
  8
0
 10
303.926543
 20
332.925306
 42
0.082425
  0
VERTEX
  8
0
 10
303.440625
 20
332.706250
 42
0.098894
  0
VERTEX
  8
0
 10
303.115568
 20
332.381354
 42
0.148195
  0
VERTEX
  8
0
 10
303.000000
 20
332.000000
 42
-0.106313
  0
VERTEX
  8
0
 10
302.917947
 20
331.618459
 42
-0.099376
  0
VERTEX
  8
0
 10
302.685268
 20
331.293750
 42
-0.096076
  0
VERTEX
  8
0
 10
302.337584
 20
331.076077
 42
-0.092210
  0
VERTEX
  8
0
 10
301.928571
 20
331.000000
 42
0.146515
  0
VERTEX
  8
0
 10
300.849124
 20
330.676751
 42
0.043673
  0
VERTEX
  8
0
 10
299.485387
 20
329.598082
 42
0.043371
  0
VERTEX
  8
0
 10
298.337594
 20
328.309335
 42
0.161617
  0
VERTEX
  8
0
 10
298.000000
 20
327.292188
 42
-0.152326
  0
VERTEX
  8
0
 10
297.868475
 20
326.870483
 42
-0.032288
  0
VERTEX
  8
0
 10
297.385102
 20
326.259367
 42
-0.031010
  0
VERTEX
  8
0
 10
296.708090
 20
325.596246
 42
-0.025144
  0
VERTEX
  8
0
 10
295.906729
 20
324.970759
 42
0.007542
  0
VERTEX
  8
0
 10
294.956528
 20
324.281496
 42
0.004248
  0
VERTEX
  8
0
 10
293.823308
 20
323.417973
 42
0.004238
  0
VERTEX
  8
0
 10
292.694118
 20
322.526829
 42
0.006921
  0
VERTEX
  8
0
 10
291.753719
 20
321.750000
 42
-0.040325
  0
VERTEX
  8
0
 10
290.112153
 20
320.568956
 42
-0.103035
  0
VERTEX
  8
0
 10
288.736520
 20
320.085874
 42
-0.135243
  0
VERTEX
  8
0
 10
287.518128
 20
320.253204
 42
-0.095302
  0
VERTEX
  8
0
 10
286.367217
 20
321.032783
 42
0.173984
  0
VERTEX
  8
0
 10
285.283166
 20
321.544298
 42
0.088140
  0
VERTEX
  8
0
 10
283.759002
 20
321.422926
 42
0.095114
  0
VERTEX
  8
0
 10
282.460431
 20
320.803720
 42
0.238418
  0
VERTEX
  8
0
 10
282.000000
 20
319.893011
 42
-0.119227
  0
VERTEX
  8
0
 10
281.917610
 20
319.552404
 42
-0.100664
  0
VERTEX
  8
0
 10
281.685268
 20
319.262322
 42
-0.092199
  0
VERTEX
  8
0
 10
281.337785
 20
319.067523
 42
-0.081950
  0
VERTEX
  8
0
 10
280.928571
 20
319.000000
 42
0.145648
  0
VERTEX
  8
0
 10
279.908799
 20
318.696506
 42
0.037328
  0
VERTEX
  8
0
 10
278.527244
 20
317.639364
 42
0.036399
  0
VERTEX
  8
0
 10
277.328691
 20
316.403965
 42
0.176163
  0
VERTEX
  8
0
 10
277.000000
 20
315.500000
 42
-0.176163
  0
VERTEX
  8
0
 10
276.671309
 20
314.596035
 42
-0.036399
  0
VERTEX
  8
0
 10
275.472756
 20
313.360636
 42
-0.037328
  0
VERTEX
  8
0
 10
274.091201
 20
312.303494
 42
-0.145648
  0
VERTEX
  8
0
 10
273.071429
 20
312.000000
 42
0.118646
  0
VERTEX
  8
0
 10
272.662766
 20
311.901643
 42
0.100638
  0
VERTEX
  8
0
 10
272.314732
 20
311.624223
 42
0.092384
  0
VERTEX
  8
0
 10
272.081036
 20
311.209333
 42
0.082368
  0
VERTEX
  8
0
 10
272.000000
 20
310.720759
 42
-0.115942
  0
VERTEX
  8
0
 10
271.860855
 20
310.128761
 42
-0.043072
  0
VERTEX
  8
0
 10
271.412500
 20
309.393849
 42
-0.039803
  0
VERTEX
  8
0
 10
270.765268
 20
308.646083
 42
-0.038332
  0
VERTEX
  8
0
 10
270.000000
 20
308.000000
 42
0.027678
  0
VERTEX
  8
0
 10
269.234447
 20
307.381099
 42
0.032863
  0
VERTEX
  8
0
 10
268.587500
 20
306.713766
 42
0.034808
  0
VERTEX
  8
0
 10
268.129456
 20
306.091577
 42
0.142200
  0
VERTEX
  8
0
 10
268.000000
 20
305.645590
 42
-0.204046
  0
VERTEX
  8
0
 10
267.323827
 20
304.057665
 42
-0.042551
  0
VERTEX
  8
0
 10
264.918513
 20
302.110144
 42
-0.043913
  0
VERTEX
  8
0
 10
262.127802
 20
300.557218
 42
-0.133228
  0
VERTEX
  8
0
 10
260.000000
 20
300.224468
 42
0.083829
  0
VERTEX
  8
0
 10
258.686814
 20
300.148879
 42
0.062090
  0
VERTEX
  8
0
 10
257.317661
 20
299.650983
 42
0.049877
  0
VERTEX
  8
0
 10
255.853464
 20
298.707353
 42
0.027031
  0
VERTEX
  8
0
 10
254.250000
 20
297.283333
 42
0.011731
  0
VERTEX
  8
0
 10
253.005095
 20
295.991996
 42
0.016221
  0
VERTEX
  8
0
 10
251.954688
 20
294.772869
 42
0.012774
  0
VERTEX
  8
0
 10
251.152883
 20
293.725142
 42
0.158217
  0
VERTEX
  8
0
 10
251.000000
 20
293.254093
 42
-0.151025
  0
VERTEX
  8
0
 10
250.874869
 20
292.849268
 42
-0.031553
  0
VERTEX
  8
0
 10
250.412500
 20
292.256766
 42
-0.030445
  0
VERTEX
  8
0
 10
249.765660
 20
291.611495
 42
-0.024702
  0
VERTEX
  8
0
 10
249.000000
 20
291.000000
 42
0.038332
  0
VERTEX
  8
0
 10
248.234732
 20
290.353917
 42
0.039803
  0
VERTEX
  8
0
 10
247.587500
 20
289.606151
 42
0.043072
  0
VERTEX
  8
0
 10
247.139145
 20
288.871239
 42
0.115942
  0
VERTEX
  8
0
 10
247.000000
 20
288.279241
 42
-0.116509
  0
VERTEX
  8
0
 10
246.884734
 20
287.791293
 42
-0.100516
  0
VERTEX
  8
0
 10
246.559375
 20
287.375777
 42
-0.093058
  0
VERTEX
  8
0
 10
246.072841
 20
287.096850
 42
-0.083939
  0
VERTEX
  8
0
 10
245.500000
 20
287.000000
 42
0.094164
  0
VERTEX
  8
0
 10
244.927430
 20
286.891204
 42
0.096665
  0
VERTEX
  8
0
 10
244.440625
 20
286.580357
 42
0.099005
  0
VERTEX
  8
0
 10
244.114773
 20
286.116526
 42
0.104136
  0
VERTEX
  8
0
 10
244.000000
 20
285.571429
 42
-0.074369
  0
VERTEX
  8
0
 10
243.903654
 20
284.927256
 42
-0.038557
  0
VERTEX
  8
0
 10
243.605769
 20
284.168269
 42
-0.037270
  0
VERTEX
  8
0
 10
243.171573
 20
283.419661
 42
-0.046359
  0
VERTEX
  8
0
 10
242.657936
 20
282.800793
 42
0.028584
  0
VERTEX
  8
0
 10
242.058668
 20
282.128789
 42
0.013447
  0
VERTEX
  8
0
 10
241.359624
 20
281.198084
 42
0.013276
  0
VERTEX
  8
0
 10
240.677592
 20
280.181116
 42
0.018204
  0
VERTEX
  8
0
 10
240.122752
 20
279.229364
 42
-0.065826
  0
VERTEX
  8
0
 10
239.407391
 20
278.233365
 42
-0.081256
  0
VERTEX
  8
0
 10
238.501609
 20
277.538592
 42
-0.075344
  0
VERTEX
  8
0
 10
237.365382
 20
277.134414
 42
-0.047876
  0
VERTEX
  8
0
 10
235.964816
 20
277.000000
 42
0.030524
  0
VERTEX
  8
0
 10
234.828976
 20
276.930594
 42
0.047390
  0
VERTEX
  8
0
 10
233.870915
 20
276.719602
 42
0.060340
  0
VERTEX
  8
0
 10
233.204909
 20
276.412535
 42
0.260208
  0
VERTEX
  8
0
 10
233.000000
 20
276.045455
 42
-0.136446
  0
VERTEX
  8
0
 10
232.856848
 20
275.530648
 42
-0.021006
  0
VERTEX
  8
0
 10
232.265625
 20
274.636932
 42
-0.022135
  0
VERTEX
  8
0
 10
231.457237
 20
273.618051
 42
-0.017608
  0
VERTEX
  8
0
 10
230.500000
 20
272.590909
 42
0.019243
  0
VERTEX
  8
0
 10
229.542851
 20
271.557106
 42
0.023573
  0
VERTEX
  8
0
 10
228.734375
 20
270.518182
 42
0.023009
  0
VERTEX
  8
0
 10
228.148092
 20
269.599762
 42
0.131281
  0
VERTEX
  8
0
 10
228.000000
 20
269.045455
 42
-0.094588
  0
VERTEX
  8
0
 10
227.923826
 20
268.646398
 42
-0.096788
  0
VERTEX
  8
0
 10
227.706250
 20
268.307102
 42
-0.098920
  0
VERTEX
  8
0
 10
227.381574
 20
268.079978
 42
-0.103674
  0
VERTEX
  8
0
 10
227.000000
 20
268.000000
 42
0.148195
  0
VERTEX
  8
0
 10
226.618646
 20
267.884432
 42
0.098894
  0
VERTEX
  8
0
 10
226.293750
 20
267.559375
 42
0.082425
  0
VERTEX
  8
0
 10
226.074694
 20
267.073457
 42
0.064853
  0
VERTEX
  8
0
 10
226.000000
 20
266.500000
 42
-0.064853
  0
VERTEX
  8
0
 10
225.925306
 20
265.926543
 42
-0.082425
  0
VERTEX
  8
0
 10
225.706250
 20
265.440625
 42
-0.098894
  0
VERTEX
  8
0
 10
225.381354
 20
265.115568
 42
-0.148195
  0
VERTEX
  8
0
 10
225.000000
 20
265.000000
 42
0.148195
  0
VERTEX
  8
0
 10
224.618646
 20
264.884432
 42
0.098894
  0
VERTEX
  8
0
 10
224.293750
 20
264.559375
 42
0.082425
  0
VERTEX
  8
0
 10
224.074694
 20
264.073457
 42
0.064853
  0
VERTEX
  8
0
 10
224.000000
 20
263.500000
 42
-0.059467
  0
VERTEX
  8
0
 10
223.931531
 20
262.926352
 42
-0.078370
  0
VERTEX
  8
0
 10
223.729590
 20
262.440625
 42
-0.096736
  0
VERTEX
  8
0
 10
223.430573
 20
262.115310
 42
-0.160000
  0
VERTEX
  8
0
 10
223.079455
 20
262.000000
 42
0.230346
  0
VERTEX
  8
0
 10
222.681210
 20
261.806252
 42
0.045180
  0
VERTEX
  8
0
 10
222.235766
 20
261.118750
 42
0.039605
  0
VERTEX
  8
0
 10
221.819532
 20
260.149012
 42
0.027524
  0
VERTEX
  8
0
 10
221.500000
 20
259.000000
 42
-0.022444
  0
VERTEX
  8
0
 10
221.192922
 20
257.850678
 42
-0.033394
  0
VERTEX
  8
0
 10
220.813872
 20
256.881250
 42
-0.035386
  0
VERTEX
  8
0
 10
220.420701
 20
256.178740
 42
-0.252632
  0
VERTEX
  8
0
 10
220.089524
 20
256.000000
 42
0.191323
  0
VERTEX
  8
0
 10
219.718554
 20
255.852656
 42
0.029619
  0
VERTEX
  8
0
 10
219.165706
 20
255.265625
 42
0.029447
  0
VERTEX
  8
0
 10
218.567304
 20
254.457399
 42
0.021766
  0
VERTEX
  8
0
 10
218.000000
 20
253.500000
 42
-0.050256
  0
VERTEX
  8
0
 10
217.357188
 20
252.543721
 42
-0.050180
  0
VERTEX
  8
0
 10
216.536218
 20
251.734375
 42
-0.054830
  0
VERTEX
  8
0
 10
215.669442
 20
251.180703
 42
-0.115229
  0
VERTEX
  8
0
 10
214.895748
 20
251.000000
 42
0.139593
  0
VERTEX
  8
0
 10
214.070789
 20
250.765105
 42
0.075682
  0
VERTEX
  8
0
 10
213.261709
 20
250.075477
 42
0.058220
  0
VERTEX
  8
0
 10
212.510966
 20
248.972330
 42
0.033579
  0
VERTEX
  8
0
 10
211.863840
 20
247.500000
 42
-0.018895
  0
VERTEX
  8
0
 10
211.320867
 20
246.159144
 42
-0.027614
  0
VERTEX
  8
0
 10
210.735259
 20
245.028125
 42
-0.026408
  0
VERTEX
  8
0
 10
210.180403
 20
244.191819
 42
-0.237366
  0
VERTEX
  8
0
 10
209.799112
 20
244.000000
 42
0.181234
  0
VERTEX
  8
0
 10
209.494097
 20
243.885687
 42
0.091290
  0
VERTEX
  8
0
 10
209.234739
 20
243.559375
 42
0.071236
  0
VERTEX
  8
0
 10
209.059046
 20
243.073945
 42
0.051303
  0
VERTEX
  8
0
 10
209.000000
 20
242.500000
 42
-0.059467
  0
VERTEX
  8
0
 10
208.931531
 20
241.926352
 42
-0.078370
  0
VERTEX
  8
0
 10
208.729590
 20
241.440625
 42
-0.096736
  0
VERTEX
  8
0
 10
208.430573
 20
241.115310
 42
-0.160000
  0
VERTEX
  8
0
 10
208.079455
 20
241.000000
 42
0.230346
  0
VERTEX
  8
0
 10
207.681210
 20
240.806252
 42
0.045180
  0
VERTEX
  8
0
 10
207.235766
 20
240.118750
 42
0.039605
  0
VERTEX
  8
0
 10
206.819532
 20
239.149012
 42
0.027524
  0
VERTEX
  8
0
 10
206.500000
 20
238.000000
 42
-0.025133
  0
VERTEX
  8
0
 10
206.186336
 20
236.850840
 42
-0.036749
  0
VERTEX
  8
0
 10
205.787574
 20
235.881250
 42
-0.040720
  0
VERTEX
  8
0
 10
205.366866
 20
235.187362
 42
-0.240576
  0
VERTEX
  8
0
 10
205.000000
 20
235.000000
 42
0.240576
  0
VERTEX
  8
0
 10
204.633134
 20
234.812638
 42
0.040720
  0
VERTEX
  8
0
 10
204.212426
 20
234.118750
 42
0.036749
  0
VERTEX
  8
0
 10
203.813664
 20
233.149160
 42
0.025133
  0
VERTEX
  8
0
 10
203.500000
 20
232.000000
 42
-0.024581
  0
VERTEX
  8
0
 10
203.187689
 20
230.850806
 42
-0.036073
  0
VERTEX
  8
0
 10
202.792971
 20
229.881250
 42
-0.039651
  0
VERTEX
  8
0
 10
202.377944
 20
229.185724
 42
-0.243006
  0
VERTEX
  8
0
 10
202.018370
 20
229.000000
 42
0.223122
  0
VERTEX
  8
0
 10
201.636346
 20
228.820592
 42
0.033924
  0
VERTEX
  8
0
 10
201.130119
 20
228.118750
 42
0.032530
  0
VERTEX
  8
0
 10
200.610400
 20
227.149075
 42
0.022890
  0
VERTEX
  8
0
 10
200.149845
 20
226.000000
 42
-0.076273
  0
VERTEX
  8
0
 10
198.939799
 20
223.718665
 42
-0.219074
  0
VERTEX
  8
0
 10
197.403888
 20
222.880526
 42
-0.380703
  0
VERTEX
  8
0
 10
196.412915
 20
223.648551
 42
-0.110703
  0
VERTEX
  8
0
 10
196.489774
 20
225.750000
 42
0.025649
  0
VERTEX
  8
0
 10
196.761818
 20
227.053303
 42
0.012904
  0
VERTEX
  8
0
 10
196.977528
 20
228.720312
 42
0.012779
  0
VERTEX
  8
0
 10
197.112248
 20
230.459214
 42
0.018490
  0
VERTEX
  8
0
 10
197.135035
 20
232.000000
 42
-0.030298
  0
VERTEX
  8
0
 10
197.200032
 20
233.692249
 42
-0.012938
  0
VERTEX
  8
0
 10
197.482188
 20
235.940625
 42
-0.012746
  0
VERTEX
  8
0
 10
197.907509
 20
238.329379
 42
-0.016368
  0
VERTEX
  8
0
 10
198.425897
 20
240.500000
 42
0.008910
  0
VERTEX
  8
0
 10
199.873521
 20
246.184928
 42
0.030946
  0
VERTEX
  8
0
 10
200.513602
 20
249.921589
 42
0.049415
  0
VERTEX
  8
0
 10
200.535146
 20
252.307490
 42
0.298229
  0
VERTEX
  8
0
 10
199.803495
 20
253.232168
 42
-0.250082
  0
VERTEX
  8
0
 10
199.238055
 20
253.828357
 42
-0.068754
  0
VERTEX
  8
0
 10
199.062670
 20
255.154073
 42
-0.032947
  0
VERTEX
  8
0
 10
199.227008
 20
257.444409
 42
-0.006285
  0
VERTEX
  8
0
 10
199.851551
 20
261.574813
 42
-0.001693
  0
VERTEX
  8
0
 10
200.385966
 20
264.764067
 42
-0.001969
  0
VERTEX
  8
0
 10
200.916345
 20
267.792949
 42
-0.001748
  0
VERTEX
  8
0
 10
201.384196
 20
270.352598
 42
-0.011801
  0
VERTEX
  8
0
 10
201.650250
 20
271.613949
 42
0.059641
  0
VERTEX
  8
0
 10
201.766407
 20
272.643565
 42
0.138752
  0
VERTEX
  8
0
 10
201.551818
 20
273.382733
 42
0.134953
  0
VERTEX
  8
0
 10
200.976357
 20
273.912653
 42
0.055096
  0
VERTEX
  8
0
 10
199.974935
 20
274.296304
 42
-0.067066
  0
VERTEX
  8
0
 10
198.837298
 20
274.763548
 42
-0.175857
  0
VERTEX
  8
0
 10
198.277731
 20
275.429235
 42
-0.107493
  0
VERTEX
  8
0
 10
198.126274
 20
276.530404
 42
-0.017578
  0
VERTEX
  8
0
 10
198.369684
 20
278.682355
 42
0.006062
  0
VERTEX
  8
0
 10
198.631198
 20
280.598216
 42
0.002217
  0
VERTEX
  8
0
 10
198.956241
 20
283.314402
 42
0.002197
  0
VERTEX
  8
0
 10
199.285396
 20
286.287180
 42
0.002629
  0
VERTEX
  8
0
 10
199.568381
 20
289.090077
 42
0.005110
  0
VERTEX
  8
0
 10
199.933156
 20
293.363994
 42
0.083560
  0
VERTEX
  8
0
 10
199.801833
 20
294.790340
 42
0.260972
  0
VERTEX
  8
0
 10
199.193030
 20
295.419318
 42
0.082552
  0
VERTEX
  8
0
 10
197.849371
 20
295.590077
 42
-0.155936
  0
VERTEX
  8
0
 10
196.498408
 20
295.965508
 42
-0.187520
  0
VERTEX
  8
0
 10
195.737750
 20
297.031845
 42
-0.047383
  0
VERTEX
  8
0
 10
195.351417
 20
299.517477
 42
-0.002916
  0
VERTEX
  8
0
 10
194.949466
 20
307.000000
 42
0.002111
  0
VERTEX
  8
0
 10
194.724001
 20
311.327051
 42
0.004190
  0
VERTEX
  8
0
 10
194.502058
 20
314.754687
 42
0.003525
  0
VERTEX
  8
0
 10
194.302070
 20
317.246351
 42
0.884265
  0
VERTEX
  8
0
 10
194.199466
 20
317.250000
 42
-0.209101
  0
VERTEX
  8
0
 10
193.602456
 20
316.319607
 42
-0.179792
  0
VERTEX
  8
0
 10
192.463063
 20
316.050117
 42
-0.132810
  0
VERTEX
  8
0
 10
191.143872
 20
316.588687
 42
-0.111725
  0
VERTEX
  8
0
 10
190.172463
 20
317.750000
 42
-0.076610
  0
VERTEX
  8
0
 10
189.788403
 20
318.904520
 42
-0.007881
  0
VERTEX
  8
0
 10
189.350824
 20
321.752376
 42
-0.009673
  0
VERTEX
  8
0
 10
188.946345
 20
325.183250
 42
-0.007584
  0
VERTEX
  8
0
 10
188.636283
 20
328.917663
 42
0.005201
  0
VERTEX
  8
0
 10
188.138557
 20
335.279791
 42
0.046815
  0
VERTEX
  8
0
 10
187.633027
 20
338.026120
 42
0.335566
  0
VERTEX
  8
0
 10
186.922553
 20
338.563631
 42
0.259977
  0
VERTEX
  8
0
 10
186.046552
 20
338.075322
 42
-0.095804
  0
VERTEX
  8
0
 10
185.606871
 20
337.598218
 42
-0.080908
  0
VERTEX
  8
0
 10
184.995105
 20
337.284603
 42
-0.079979
  0
VERTEX
  8
0
 10
184.308611
 20
337.179005
 42
-0.090097
  0
VERTEX
  8
0
 10
183.653335
 20
337.302786
 42
-0.188939
  0
VERTEX
  8
0
 10
182.416422
 20
338.431934
 42
-0.038128
  0
VERTEX
  8
0
 10
181.287896
 20
341.247442
 42
-0.030405
  0
VERTEX
  8
0
 10
180.273424
 20
345.318688
 42
-0.013769
  0
VERTEX
  8
0
 10
179.419870
 20
350.750000
 42
0.013048
  0
VERTEX
  8
0
 10
179.106576
 20
352.762436
 42
0.020903
  0
VERTEX
  8
0
 10
178.723301
 20
354.457812
 42
0.016149
  0
VERTEX
  8
0
 10
178.322820
 20
355.769031
 42
0.320899
  0
VERTEX
  8
0
 10
178.000000
 20
356.000000
 42
0.320899
  0
VERTEX
  8
0
 10
177.677180
 20
355.769031
 42
0.016149
  0
VERTEX
  8
0
 10
177.276699
 20
354.457812
 42
0.020903
  0
VERTEX
  8
0
 10
176.893424
 20
352.762436
 42
0.013048
  0
SEQEND
  0
ENDSEC
  0
EOF
