  0
SECTION
  2
HEADER
  9
$ACADVER
  1
AC1006
  9
$EXTMIN
 10
0.000000
 20
0.000000
 30
0.000000
  9
$EXTMAX
 10
380.000000
 20
380.000000
 30
0.000000
  0
ENDSEC
  0
SECTION
  2
ENTITIES
  0
POLYLINE
  8
0
 66
1
 70
1
  0
VERTEX
  8
0
 10
374.500000
 20
378.192255
 42
0.002431
  0
VERTEX
  8
0
 10
372.078850
 20
377.267089
 42
0.000316
  0
VERTEX
  8
0
 10
366.925080
 20
375.265222
 42
0.000368
  0
VERTEX
  8
0
 10
360.814363
 20
372.882020
 42
0.000308
  0
VERTEX
  8
0
 10
354.330059
 20
370.343014
 42
-0.002120
  0
VERTEX
  8
0
 10
348.054700
 20
367.912016
 42
-0.003246
  0
VERTEX
  8
0
 10
342.592771
 20
365.863260
 42
-0.001138
  0
VERTEX
  8
0
 10
337.869661
 20
364.138718
 42
-0.087173
  0
VERTEX
  8
0
 10
337.080059
 20
364.000000
 42
0.107202
  0
VERTEX
  8
0
 10
336.667984
 20
363.910622
 42
0.099514
  0
VERTEX
  8
0
 10
336.317267
 20
363.657292
 42
0.095829
  0
VERTEX
  8
0
 10
336.082133
 20
363.278718
 42
0.091434
  0
VERTEX
  8
0
 10
336.000000
 20
362.833333
 42
-0.045746
  0
VERTEX
  8
0
 10
335.962318
 20
362.422325
 42
-0.135409
  0
VERTEX
  8
0
 10
335.839659
 20
362.169716
 42
-0.259828
  0
VERTEX
  8
0
 10
335.660433
 20
362.106082
 42
-0.155780
  0
VERTEX
  8
0
 10
335.454158
 20
362.212509
 42
0.279367
  0
VERTEX
  8
0
 10
334.974596
 20
362.330148
 42
0.003399
  0
VERTEX
  8
0
 10
331.806799
 20
361.311627
 42
0.008889
  0
VERTEX
  8
0
 10
328.100248
 20
360.018559
 42
0.005552
  0
VERTEX
  8
0
 10
323.804118
 20
358.379176
 42
-0.004024
  0
VERTEX
  8
0
 10
319.447513
 20
356.701446
 42
-0.005726
  0
VERTEX
  8
0
 10
315.547891
 20
355.286383
 42
-0.003336
  0
VERTEX
  8
0
 10
312.247327
 20
354.155960
 42
-0.081002
  0
VERTEX
  8
0
 10
311.290943
 20
354.000000
 42
0.082792
  0
VERTEX
  8
0
 10
310.787925
 20
353.916134
 42
0.176349
  0
VERTEX
  8
0
 10
310.485427
 20
353.671755
 42
0.184714
  0
VERTEX
  8
0
 10
310.418888
 20
353.299452
 42
0.091535
  0
VERTEX
  8
0
 10
310.595492
 20
352.845492
 42
-0.029647
  0
VERTEX
  8
0
 10
310.834349
 20
352.402278
 42
-0.277240
  0
VERTEX
  8
0
 10
310.812366
 20
352.195418
 42
-0.345129
  0
VERTEX
  8
0
 10
310.633887
 20
352.148059
 42
-0.037089
  0
VERTEX
  8
0
 10
310.228136
 20
352.359004
 42
0.198270
  0
VERTEX
  8
0
 10
309.082746
 20
352.546328
 42
0.012804
  0
VERTEX
  8
0
 10
305.746306
 20
351.676748
 42
0.015463
  0
VERTEX
  8
0
 10
301.426982
 20
350.286048
 42
0.007532
  0
VERTEX
  8
0
 10
296.000000
 20
348.258921
 42
-0.008285
  0
VERTEX
  8
0
 10
294.592702
 20
347.735669
 42
-0.023912
  0
VERTEX
  8
0
 10
293.596425
 20
347.436643
 42
-0.027249
  0
VERTEX
  8
0
 10
292.650396
 20
347.255400
 42
-0.013700
  0
VERTEX
  8
0
 10
291.440983
 20
347.125000
 42
0.073520
  0
VERTEX
  8
0
 10
290.870789
 20
346.993426
 42
0.154540
  0
VERTEX
  8
0
 10
290.521051
 20
346.710481
 42
0.180651
  0
VERTEX
  8
0
 10
290.429247
 20
346.312084
 42
0.106046
  0
VERTEX
  8
0
 10
290.595492
 20
345.845492
 42
-0.028948
  0
VERTEX
  8
0
 10
290.845143
 20
345.383794
 42
-0.323944
  0
VERTEX
  8
0
 10
290.808159
 20
345.190175
 42
-0.308970
  0
VERTEX
  8
0
 10
290.608399
 20
345.158721
 42
-0.027611
  0
VERTEX
  8
0
 10
290.138093
 20
345.414654
 42
0.218302
  0
VERTEX
  8
0
 10
288.661262
 20
345.598298
 42
0.003676
  0
VERTEX
  8
0
 10
280.656098
 20
343.003129
 42
0.005366
  0
VERTEX
  8
0
 10
272.921769
 20
340.340274
 42
0.124311
  0
VERTEX
  8
0
 10
271.000000
 20
339.054479
 42
-0.080276
  0
VERTEX
  8
0
 10
270.707005
 20
338.819088
 42
-0.025697
  0
VERTEX
  8
0
 10
270.206250
 20
338.567726
 42
-0.024893
  0
VERTEX
  8
0
 10
269.610918
 20
338.340877
 42
-0.025407
  0
VERTEX
  8
0
 10
269.000000
 20
338.176079
 42
0.031882
  0
VERTEX
  8
0
 10
268.164488
 20
337.939056
 42
0.006126
  0
VERTEX
  8
0
 10
266.686077
 20
337.395339
 42
0.006502
  0
VERTEX
  8
0
 10
264.974278
 20
336.716235
 42
0.005952
  0
VERTEX
  8
0
 10
263.229197
 20
335.973107
 42
-0.005243
  0
VERTEX
  8
0
 10
261.575502
 20
335.266125
 42
-0.008356
  0
VERTEX
  8
0
 10
260.145616
 20
334.700308
 42
-0.003105
  0
VERTEX
  8
0
 10
258.918985
 20
334.247154
 42
-0.262328
  0
VERTEX
  8
0
 10
258.729197
 20
334.278839
 42
0.298151
  0
VERTEX
  8
0
 10
258.557114
 20
334.295931
 42
0.008618
  0
VERTEX
  8
0
 10
257.880480
 20
333.928256
 42
0.014729
  0
VERTEX
  8
0
 10
257.074618
 20
333.440317
 42
0.009279
  0
VERTEX
  8
0
 10
256.161799
 20
332.825882
 42
-0.072187
  0
VERTEX
  8
0
 10
254.569661
 20
332.023354
 42
-0.135016
  0
VERTEX
  8
0
 10
253.139524
 20
331.945545
 42
-0.059933
  0
VERTEX
  8
0
 10
251.163037
 20
332.630895
 42
-0.005921
  0
VERTEX
  8
0
 10
246.661799
 20
334.891054
 42
0.010662
  0
VERTEX
  8
0
 10
239.470886
 20
338.416791
 42
0.006527
  0
VERTEX
  8
0
 10
230.851557
 20
342.281315
 42
0.002947
  0
VERTEX
  8
0
 10
222.406909
 20
345.876952
 42
0.097050
  0
VERTEX
  8
0
 10
220.250000
 20
346.321260
 42
-0.047635
  0
VERTEX
  8
0
 10
219.771611
 20
346.371607
 42
-0.067213
  0
VERTEX
  8
0
 10
219.367188
 20
346.512067
 42
-0.086889
  0
VERTEX
  8
0
 10
219.094427
 20
346.715932
 42
-0.191182
  0
VERTEX
  8
0
 10
219.000000
 20
346.953862
 42
0.324277
  0
VERTEX
  8
0
 10
218.678361
 20
347.397644
 42
0.028005
  0
VERTEX
  8
0
 10
217.246471
 20
347.779307
 42
0.024871
  0
VERTEX
  8
0
 10
215.144594
 20
348.107217
 42
0.010031
  0
VERTEX
  8
0
 10
212.250000
 20
348.353756
 42
-0.025558
  0
VERTEX
  8
0
 10
211.387910
 20
348.454219
 42
-0.039501
  0
VERTEX
  8
0
 10
210.660937
 20
348.636810
 42
-0.046279
  0
VERTEX
  8
0
 10
210.144239
 20
348.866023
 42
-0.271591
  0
VERTEX
  8
0
 10
210.000000
 20
349.111980
 42
0.421711
  0
VERTEX
  8
0
 10
209.494257
 20
349.604973
 42
0.007918
  0
VERTEX
  8
0
 10
205.416521
 20
349.436195
 42
0.016876
  0
VERTEX
  8
0
 10
201.295117
 20
349.060311
 42
0.036875
  0
VERTEX
  8
0
 10
198.187766
 20
348.435546
 42
-0.016971
  0
VERTEX
  8
0
 10
196.942362
 20
348.133161
 42
-0.009466
  0
VERTEX
  8
0
 10
195.408281
 20
347.845563
 42
-0.009434
  0
VERTEX
  8
0
 10
193.843916
 20
347.613095
 42
-0.015092
  0
VERTEX
  8
0
 10
192.500000
 20
347.480327
 42
0.015681
  0
VERTEX
  8
0
 10
188.489165
 20
347.079321
 42
0.014013
  0
VERTEX
  8
0
 10
184.356943
 20
346.416565
 42
0.013091
  0
VERTEX
  8
0
 10
180.744165
 20
345.634297
 42
0.063079
  0
VERTEX
  8
0
 10
178.783745
 20
344.884264
 42
-0.027303
  0
VERTEX
  8
0
 10
178.099216
 20
344.564669
 42
-0.054359
  0
VERTEX
  8
0
 10
177.523975
 20
344.403234
 42
-0.094830
  0
VERTEX
  8
0
 10
177.141003
 20
344.412467
 42
-0.353061
  0
VERTEX
  8
0
 10
177.000000
 20
344.587261
 42
0.385570
  0
VERTEX
  8
0
 10
176.871505
 20
344.729118
 42
0.118535
  0
VERTEX
  8
0
 10
176.559375
 20
344.686025
 42
0.055341
  0
VERTEX
  8
0
 10
176.076289
 20
344.432228
 42
0.024610
  0
VERTEX
  8
0
 10
175.500000
 20
344.000000
 42
-0.025350
  0
VERTEX
  8
0
 10
174.923691
 20
343.569087
 42
-0.057416
  0
VERTEX
  8
0
 10
174.440625
 20
343.319658
 42
-0.124504
  0
VERTEX
  8
0
 10
174.129542
 20
343.283976
 42
-0.375622
  0
VERTEX
  8
0
 10
174.000000
 20
343.432083
 42
0.561206
  0
VERTEX
  8
0
 10
173.433330
 20
343.777942
 42
0.003522
  0
VERTEX
  8
0
 10
167.050431
 20
340.439750
 42
0.008674
  0
VERTEX
  8
0
 10
161.086731
 20
337.133118
 42
0.056665
  0
VERTEX
  8
0
 10
158.337330
 20
335.099644
 42
-0.050835
  0
VERTEX
  8
0
 10
157.458775
 20
334.433920
 42
-0.042015
  0
VERTEX
  8
0
 10
156.407224
 20
333.909153
 42
-0.043735
  0
VERTEX
  8
0
 10
155.349486
 20
333.591797
 42
-0.082026
  0
VERTEX
  8
0
 10
154.459784
 20
333.555844
 42
0.009700
  0
VERTEX
  8
0
 10
153.269246
 20
333.679985
 42
0.001263
  0
VERTEX
  8
0
 10
150.725687
 20
333.888955
 42
0.001470
  0
VERTEX
  8
0
 10
147.706672
 20
334.120381
 42
0.001229
  0
VERTEX
  8
0
 10
144.500000
 20
334.348789
 42
-0.030997
  0
VERTEX
  8
0
 10
137.714201
 20
335.240268
 42
-0.016556
  0
VERTEX
  8
0
 10
129.465276
 20
337.134395
 42
-0.011238
  0
VERTEX
  8
0
 10
118.373169
 20
340.339494
 42
-0.003576
  0
VERTEX
  8
0
 10
102.000000
 20
345.600861
 42
0.000504
  0
VERTEX
  8
0
 10
96.464840
 20
347.417126
 42
0.000524
  0
VERTEX
  8
0
 10
90.996875
 20
349.198898
 42
0.000504
  0
VERTEX
  8
0
 10
86.263540
 20
350.730532
 42
0.002286
  0
VERTEX
  8
0
 10
83.500000
 20
351.607770
 42
-0.003776
  0
VERTEX
  8
0
 10
81.439063
 20
352.268749
 42
-0.003738
  0
VERTEX
  8
0
 10
79.381250
 20
352.962998
 42
-0.003669
  0
VERTEX
  8
0
 10
77.589475
 20
353.597206
 42
-0.014430
  0
VERTEX
  8
0
 10
76.500000
 20
354.027804
 42
0.015951
  0
VERTEX
  8
0
 10
72.709684
 20
355.512562
 42
0.001830
  0
VERTEX
  8
0
 10
64.063026
 20
358.549741
 42
0.000506
  0
VERTEX
  8
0
 10
54.614239
 20
361.819152
 42
0.083218
  0
VERTEX
  8
0
 10
53.535174
 20
362.000000
 42
-0.080170
  0
VERTEX
  8
0
 10
53.089812
 20
362.071872
 42
-0.008449
  0
VERTEX
  8
0
 10
52.091908
 20
362.421384
 42
-0.010278
  0
VERTEX
  8
0
 10
50.911423
 20
362.885164
 42
-0.008074
  0
VERTEX
  8
0
 10
49.651129
 20
363.434499
 42
0.025022
  0
VERTEX
  8
0
 10
43.354237
 20
365.928875
 42
0.001680
  0
VERTEX
  8
0
 10
24.993148
 20
372.090463
 42
0.000653
  0
VERTEX
  8
0
 10
5.337786
 20
378.584510
 42
0.079617
  0
VERTEX
  8
0
 10
2.745034
 20
379.000000
 42
0.093393
  0
VERTEX
  8
0
 10
1.569341
 20
378.778466
 42
0.303817
  0
VERTEX
  8
0
 10
1.138395
 20
378.159766
 42
0.066210
  0
VERTEX
  8
0
 10
1.299252
 20
376.751610
 42
0.002538
  0
VERTEX
  8
0
 10
2.609028
 20
371.644345
 42
-0.001091
  0
VERTEX
  8
0
 10
3.248148
 20
369.181850
 42
-0.001313
  0
VERTEX
  8
0
 10
3.837777
 20
366.864276
 42
-0.001119
  0
VERTEX
  8
0
 10
4.324916
 20
364.909815
 42
-0.008846
  0
VERTEX
  8
0
 10
4.532517
 20
364.000000
 42
0.009156
  0
VERTEX
  8
0
 10
4.664100
 20
363.424982
 42
0.014712
  0
VERTEX
  8
0
 10
4.799555
 20
362.940625
 42
0.008481
  0
VERTEX
  8
0
 10
4.928307
 20
362.550899
 42
0.318883
  0
VERTEX
  8
0
 10
5.000000
 20
362.500000
 42
-0.310758
  0
VERTEX
  8
0
 10
5.073327
 20
362.449555
 42
-0.008225
  0
VERTEX
  8
0
 10
5.215382
 20
362.059375
 42
-0.014435
  0
VERTEX
  8
0
 10
5.367256
 20
361.575004
 42
-0.009021
  0
VERTEX
  8
0
 10
5.518331
 20
361.000000
 42
0.008095
  0
VERTEX
  8
0
 10
5.784314
 20
359.979960
 42
0.000420
  0
VERTEX
  8
0
 10
6.696896
 20
356.709375
 42
0.000666
  0
VERTEX
  8
0
 10
7.790417
 20
352.822930
 42
0.000483
  0
VERTEX
  8
0
 10
9.017480
 20
348.500000
 42
-0.000334
  0
VERTEX
  8
0
 10
10.287169
 20
344.031978
 42
-0.000368
  0
VERTEX
  8
0
 10
11.510747
 20
339.703125
 42
-0.000342
  0
VERTEX
  8
0
 10
12.551062
 20
336.002580
 42
-0.001870
  0
VERTEX
  8
0
 10
13.104488
 20
334.000000
 42
0.000579
  0
VERTEX
  8
0
 10
14.154367
 20
330.162411
 42
0.001310
  0
VERTEX
  8
0
 10
14.959976
 20
327.260804
 42
0.000738
  0
VERTEX
  8
0
 10
16.013470
 20
323.525788
 42
0.000082
  0
VERTEX
  8
0
 10
18.433343
 20
315.000000
 42
0.000536
  0
VERTEX
  8
0
 10
19.860853
 20
309.994104
 42
0.000645
  0
VERTEX
  8
0
 10
21.214141
 20
305.290625
 42
0.000550
  0
VERTEX
  8
0
 10
22.363618
 20
301.331127
 42
0.004335
  0
VERTEX
  8
0
 10
22.914662
 20
299.500000
 42
-0.015082
  0
VERTEX
  8
0
 10
24.614913
 20
293.376049
 42
-0.001560
  0
VERTEX
  8
0
 10
28.137917
 20
278.824651
 42
-0.001673
  0
VERTEX
  8
0
 10
31.554436
 20
264.303196
 42
-0.013082
  0
VERTEX
  8
0
 10
32.944588
 20
257.500000
 42
0.001388
  0
VERTEX
  8
0
 10
33.391287
 20
255.019531
 42
0.001366
  0
VERTEX
  8
0
 10
33.854136
 20
252.528125
 42
0.001341
  0
VERTEX
  8
0
 10
34.271629
 20
250.346696
 42
0.005220
  0
VERTEX
  8
0
 10
34.547733
 20
249.000000
 42
-0.018373
  0
VERTEX
  8
0
 10
34.792467
 20
247.623203
 42
-0.004298
  0
VERTEX
  8
0
 10
35.097679
 20
245.299180
 42
-0.004425
  0
VERTEX
  8
0
 10
35.402358
 20
242.617625
 42
-0.004332
  0
VERTEX
  8
0
 10
35.661855
 20
239.912102
 42
-0.044253
  0
VERTEX
  8
0
 10
35.651785
 20
233.163970
 42
-0.057959
  0
VERTEX
  8
0
 10
34.393122
 20
227.132459
 42
-0.052281
  0
VERTEX
  8
0
 10
31.653995
 20
221.096053
 42
-0.028212
  0
VERTEX
  8
0
 10
27.127769
 20
214.289845
 42
0.006426
  0
VERTEX
  8
0
 10
22.411375
 20
207.826816
 42
0.036035
  0
VERTEX
  8
0
 10
20.191422
 20
204.169340
 42
0.057616
  0
VERTEX
  8
0
 10
19.018622
 20
201.038147
 42
0.034058
  0
VERTEX
  8
0
 10
18.322193
 20
197.103468
 42
0.056801
  0
VERTEX
  8
0
 10
18.356713
 20
191.699054
 42
0.067055
  0
VERTEX
  8
0
 10
19.639577
 20
186.752982
 42
0.048304
  0
VERTEX
  8
0
 10
22.574418
 20
181.173299
 42
0.015390
  0
VERTEX
  8
0
 10
27.968949
 20
173.480014
 42
-0.008194
  0
VERTEX
  8
0
 10
31.080833
 20
169.175215
 42
-0.009511
  0
VERTEX
  8
0
 10
33.894835
 20
164.977092
 42
-0.008658
  0
VERTEX
  8
0
 10
36.141364
 20
161.347017
 42
-0.054575
  0
VERTEX
  8
0
 10
37.043054
 20
159.369545
 42
-0.067649
  0
VERTEX
  8
0
 10
37.707671
 20
155.792019
 42
-0.033416
  0
VERTEX
  8
0
 10
37.623306
 20
151.161593
 42
-0.021837
  0
VERTEX
  8
0
 10
36.789988
 20
144.722019
 42
-0.006548
  0
VERTEX
  8
0
 10
34.966047
 20
135.000000
 42
0.000218
  0
VERTEX
  8
0
 10
34.125851
 20
130.814652
 42
0.000272
  0
VERTEX
  8
0
 10
33.348668
 20
126.923437
 42
0.000220
  0
VERTEX
  8
0
 10
32.699303
 20
123.655460
 42
0.002071
  0
VERTEX
  8
0
 10
32.426719
 20
122.250000
 42
-0.003459
  0
VERTEX
  8
0
 10
32.019349
 20
120.180336
 42
-0.002697
  0
VERTEX
  8
0
 10
31.549005
 20
117.936863
 42
-0.002077
  0
VERTEX
  8
0
 10
30.945592
 20
115.189544
 42
-0.000874
  0
VERTEX
  8
0
 10
30.112380
 20
111.500000
 42
0.001375
  0
VERTEX
  8
0
 10
29.687941
 20
109.611732
 42
0.000675
  0
VERTEX
  8
0
 10
29.157597
 20
107.206250
 42
0.000670
  0
VERTEX
  8
0
 10
28.613436
 20
104.706119
 42
0.000976
  0
VERTEX
  8
0
 10
28.140868
 20
102.500000
 42
-0.007990
  0
VERTEX
  8
0
 10
27.228641
 20
98.515170
 42
-0.001611
  0
VERTEX
  8
0
 10
25.470807
 20
91.461919
 42
-0.001778
  0
VERTEX
  8
0
 10
23.471867
 20
83.666789
 42
-0.002273
  0
VERTEX
  8
0
 10
21.572040
 20
76.500000
 42
-0.015228
  0
VERTEX
  8
0
 10
21.424342
 20
76.012407
 42
-0.006072
  0
VERTEX
  8
0
 10
21.193557
 20
75.353125
 42
-0.006002
  0
VERTEX
  8
0
 10
20.927272
 20
74.647540
 42
-0.007518
  0
VERTEX
  8
0
 10
20.662679
 20
74.000000
 42
0.020804
  0
VERTEX
  8
0
 10
20.391661
 20
73.282902
 42
0.010307
  0
VERTEX
  8
0
 10
20.104937
 20
72.353125
 42
0.010211
  0
VERTEX
  8
0
 10
19.846797
 20
71.375250
 42
0.014726
  0
VERTEX
  8
0
 10
19.661870
 20
70.500000
 42
-0.012137
  0
VERTEX
  8
0
 10
19.481667
 20
69.624738
 42
-0.008477
  0
VERTEX
  8
0
 10
19.237933
 20
68.646875
 42
-0.008558
  0
VERTEX
  8
0
 10
18.972179
 20
67.716889
 42
-0.017546
  0
VERTEX
  8
0
 10
18.726188
 20
67.000000
 42
0.015182
  0
VERTEX
  8
0
 10
17.511364
 20
63.513414
 42
0.022132
  0
VERTEX
  8
0
 10
16.672853
 20
60.369659
 42
0.022714
  0
VERTEX
  8
0
 10
16.228947
 20
57.798732
 42
0.123615
  0
VERTEX
  8
0
 10
16.397383
 20
56.406821
 42
-0.038457
  0
VERTEX
  8
0
 10
16.563605
 20
55.848844
 42
-0.161163
  0
VERTEX
  8
0
 10
16.526741
 20
55.505391
 42
-0.324604
  0
VERTEX
  8
0
 10
16.325145
 20
55.390887
 42
-0.111047
  0
VERTEX
  8
0
 10
15.988546
 20
55.507079
 42
0.113771
  0
VERTEX
  8
0
 10
15.606172
 20
55.636774
 42
0.171815
  0
VERTEX
  8
0
 10
15.267910
 20
55.554042
 42
0.151008
  0
VERTEX
  8
0
 10
15.027274
 20
55.262996
 42
0.083376
  0
VERTEX
  8
0
 10
14.923489
 20
54.809017
 42
-0.037917
  0
VERTEX
  8
0
 10
14.659385
 20
52.852566
 42
-0.012457
  0
VERTEX
  8
0
 10
13.982682
 20
50.024798
 42
-0.006194
  0
VERTEX
  8
0
 10
12.697362
 20
45.419833
 42
-0.000880
  0
VERTEX
  8
0
 10
9.923895
 20
36.000000
 42
0.001698
  0
VERTEX
  8
0
 10
5.337374
 20
20.327713
 42
0.004996
  0
VERTEX
  8
0
 10
2.325995
 20
9.502146
 42
0.001673
  0
VERTEX
  8
0
 10
0.131587
 20
1.185425
 42
0.266029
  0
VERTEX
  8
0
 10
0.374322
 20
0.292345
 42
0.221634
  0
VERTEX
  8
0
 10
0.817418
 20
0.131013
 42
0.015169
  0
VERTEX
  8
0
 10
2.179437
 20
0.291615
 42
0.019385
  0
VERTEX
  8
0
 10
3.849132
 20
0.606628
 42
0.013197
  0
VERTEX
  8
0
 10
5.721323
 20
1.087932
 42
-0.000580
  0
VERTEX
  8
0
 10
7.588527
 20
1.618519
 42
-0.000835
  0
VERTEX
  8
0
 10
9.243139
 20
2.083638
 42
-0.000437
  0
VERTEX
  8
0
 10
10.646379
 20
2.474248
 42
-0.013305
  0
VERTEX
  8
0
 10
11.000000
 20
2.562289
 42
0.025020
  0
VERTEX
  8
0
 10
11.282091
 20
2.639579
 42
0.004595
  0
VERTEX
  8
0
 10
11.793750
 20
2.812920
 42
0.004927
  0
VERTEX
  8
0
 10
12.389057
 20
3.027323
 42
0.004464
  0
VERTEX
  8
0
 10
13.000000
 20
3.260410
 42
-0.015140
  0
VERTEX
  8
0
 10
14.914568
 20
3.944405
 42
-0.003286
  0
VERTEX
  8
0
 10
18.261385
 20
5.002752
 42
-0.002998
  0
VERTEX
  8
0
 10
21.613530
 20
6.016621
 42
-0.019831
  0
VERTEX
  8
0
 10
23.309651
 20
6.446198
 42
0.016377
  0
VERTEX
  8
0
 10
23.872043
 20
6.584510
 42
0.007659
  0
VERTEX
  8
0
 10
24.590960
 20
6.798432
 42
0.007579
  0
VERTEX
  8
0
 10
25.338736
 20
7.045985
 42
0.010535
  0
VERTEX
  8
0
 10
26.000000
 20
7.291814
 42
-0.014437
  0
VERTEX
  8
0
 10
27.057648
 20
7.675634
 42
-0.000599
  0
VERTEX
  8
0
 10
30.878125
 20
8.933433
 42
-0.001039
  0
VERTEX
  8
0
 10
35.410600
 20
10.409197
 42
-0.000737
  0
VERTEX
  8
0
 10
40.500000
 20
12.046322
 42
0.001040
  0
VERTEX
  8
0
 10
46.905536
 20
14.111093
 42
0.000411
  0
VERTEX
  8
0
 10
55.703125
 20
16.975139
 42
0.000407
  0
VERTEX
  8
0
 10
65.199123
 20
20.083757
 42
0.000510
  0
VERTEX
  8
0
 10
74.000000
 20
22.982712
 42
-0.000853
  0
VERTEX
  8
0
 10
85.742922
 20
26.841849
 42
-0.003508
  0
VERTEX
  8
0
 10
92.875748
 20
29.117219
 42
-0.005702
  0
VERTEX
  8
0
 10
97.776480
 20
30.581669
 42
-0.013142
  0
VERTEX
  8
0
 10
101.500000
 20
31.543120
 42
0.010427
  0
VERTEX
  8
0
 10
102.144709
 20
31.705861
 42
0.000851
  0
VERTEX
  8
0
 10
103.821875
 20
32.169696
 42
0.001143
  0
VERTEX
  8
0
 10
105.820580
 20
32.731044
 42
0.000879
  0
VERTEX
  8
0
 10
108.000000
 20
33.352664
 42
-0.003233
  0
VERTEX
  8
0
 10
110.289060
 20
33.993917
 42
-0.003099
  0
VERTEX
  8
0
 10
112.618750
 20
34.614843
 42
-0.003069
  0
VERTEX
  8
0
 10
114.680762
 20
35.137272
 42
-0.011150
  0
VERTEX
  8
0
 10
116.000000
 20
35.431864
 42
0.001074
  0
VERTEX
  8
0
 10
117.571187
 20
35.749621
 42
0.000110
  0
VERTEX
  8
0
 10
121.290625
 20
36.511005
 42
0.000137
  0
VERTEX
  8
0
 10
125.721924
 20
37.420389
 42
0.000109
  0
VERTEX
  8
0
 10
130.500000
 20
38.403389
 42
-0.000799
  0
VERTEX
  8
0
 10
135.350915
 20
39.394404
 42
-0.000907
  0
VERTEX
  8
0
 10
140.003125
 20
40.328300
 42
-0.000823
  0
VERTEX
  8
0
 10
143.958039
 20
41.107990
 42
-0.005061
  0
VERTEX
  8
0
 10
146.000000
 20
41.485646
 42
-0.005605
  0
VERTEX
  8
0
 10
152.840087
 20
42.600374
 42
-0.070670
  0
VERTEX
  8
0
 10
155.447893
 20
42.624456
 42
-0.111354
  0
VERTEX
  8
0
 10
157.527173
 20
41.856812
 42
-0.021629
  0
VERTEX
  8
0
 10
160.807114
 20
39.521615
 42
0.043235
  0
VERTEX
  8
0
 10
168.629362
 20
34.446397
 42
0.042306
  0
VERTEX
  8
0
 10
177.263782
 20
30.749261
 42
0.042857
  0
VERTEX
  8
0
 10
186.283216
 20
28.596061
 42
0.047166
  0
VERTEX
  8
0
 10
195.249345
 20
28.107649
 42
0.029662
  0
VERTEX
  8
0
 10
200.319999
 20
28.612056
 42
0.023376
  0
VERTEX
  8
0
 10
205.722886
 20
29.736552
 42
0.019391
  0
VERTEX
  8
0
 10
210.437448
 20
31.147136
 42
0.155523
  0
VERTEX
  8
0
 10
212.234687
 20
32.479879
 42
-0.036581
  0
VERTEX
  8
0
 10
212.519158
 20
32.819485
 42
-0.135129
  0
VERTEX
  8
0
 10
212.758058
 20
32.960024
 42
-0.319772
  0
VERTEX
  8
0
 10
212.914923
 20
32.901719
 42
-0.145315
  0
VERTEX
  8
0
 10
212.984687
 20
32.681906
 42
0.470831
  0
VERTEX
  8
0
 10
213.196275
 20
32.513586
 42
0.051048
  0
VERTEX
  8
0
 10
213.876752
 20
32.731632
 42
0.034372
  0
VERTEX
  8
0
 10
214.847311
 20
33.237928
 42
0.017311
  0
VERTEX
  8
0
 10
216.000000
 20
34.000000
 42
-0.011623
  0
VERTEX
  8
0
 10
217.151302
 20
34.780118
 42
-0.022025
  0
VERTEX
  8
0
 10
218.118750
 20
35.344680
 42
-0.022926
  0
VERTEX
  8
0
 10
218.841783
 20
35.683620
 42
-0.534451
  0
VERTEX
  8
0
 10
219.000000
 20
35.577882
 42
0.600139
  0
VERTEX
  8
0
 10
219.268138
 20
35.434945
 42
0.018519
  0
VERTEX
  8
0
 10
220.544316
 20
36.362153
 42
0.012505
  0
VERTEX
  8
0
 10
222.627776
 20
38.082993
 42
0.002392
  0
VERTEX
  8
0
 10
226.316965
 20
41.319702
 42
-0.027157
  0
VERTEX
  8
0
 10
228.174545
 20
42.793326
 42
-0.077255
  0
VERTEX
  8
0
 10
229.648950
 20
43.527752
 42
-0.079918
  0
VERTEX
  8
0
 10
231.247547
 20
43.766803
 42
-0.030492
  0
VERTEX
  8
0
 10
233.500000
 20
43.604291
 42
-0.006156
  0
VERTEX
  8
0
 10
237.741608
 20
42.983605
 42
-0.002772
  0
VERTEX
  8
0
 10
243.293728
 20
42.069611
 42
-0.002609
  0
VERTEX
  8
0
 10
248.662656
 20
41.126326
 42
-0.009918
  0
VERTEX
  8
0
 10
252.000000
 20
40.453387
 42
0.001585
  0
VERTEX
  8
0
 10
253.120735
 20
40.207898
 42
0.001009
  0
VERTEX
  8
0
 10
254.426562
 20
39.928956
 42
0.001013
  0
VERTEX
  8
0
 10
255.708733
 20
39.660482
 42
0.001882
  0
VERTEX
  8
0
 10
256.750000
 20
39.448736
 42
-0.000132
  0
VERTEX
  8
0
 10
257.774265
 20
39.244177
 42
-0.000077
  0
VERTEX
  8
0
 10
259.000000
 20
38.998848
 42
-0.000077
  0
VERTEX
  8
0
 10
260.225731
 20
38.753124
 42
-0.000132
  0
VERTEX
  8
0
 10
261.250000
 20
38.547341
 42
-0.010765
  0
VERTEX
  8
0
 10
262.638593
 20
38.236737
 42
-0.001208
  0
VERTEX
  8
0
 10
265.776563
 20
37.455488
 42
-0.001467
  0
VERTEX
  8
0
 10
269.506163
 20
36.505724
 42
-0.001190
  0
VERTEX
  8
0
 10
273.500000
 20
35.466043
 42
0.000688
  0
VERTEX
  8
0
 10
277.439699
 20
34.436233
 42
0.000931
  0
VERTEX
  8
0
 10
281.003125
 20
33.517097
 42
0.000623
  0
VERTEX
  8
0
 10
283.997029
 20
32.754777
 42
0.010306
  0
VERTEX
  8
0
 10
285.000000
 20
32.522613
 42
-0.019497
  0
VERTEX
  8
0
 10
289.106641
 20
31.492161
 42
-0.001684
  0
VERTEX
  8
0
 10
299.464696
 20
28.421432
 42
-0.002419
  0
VERTEX
  8
0
 10
309.959268
 20
25.216307
 42
-0.006462
  0
VERTEX
  8
0
 10
317.399718
 20
22.798636
 42
0.001261
  0
VERTEX
  8
0
 10
320.889210
 20
21.624504
 42
0.001774
  0
VERTEX
  8
0
 10
324.008352
 20
20.596018
 42
0.001034
  0
VERTEX
  8
0
 10
326.643600
 20
19.743463
 42
0.024346
  0
VERTEX
  8
0
 10
327.399718
 20
19.540583
 42
-0.016450
  0
VERTEX
  8
0
 10
327.926844
 20
19.408029
 42
-0.007179
  0
VERTEX
  8
0
 10
328.617417
 20
19.199234
 42
-0.007095
  0
VERTEX
  8
0
 10
329.345208
 20
18.956306
 42
-0.009400
  0
VERTEX
  8
0
 10
330.000000
 20
18.713460
 42
0.005434
  0
VERTEX
  8
0
 10
332.410798
 20
17.797535
 42
0.000221
  0
VERTEX
  8
0
 10
341.148692
 20
14.590394
 42
0.000372
  0
VERTEX
  8
0
 10
351.806120
 20
10.693038
 42
0.000227
  0
VERTEX
  8
0
 10
364.389873
 20
6.108311
 42
0.004649
  0
VERTEX
  8
0
 10
369.771479
 20
4.206837
 42
0.007303
  0
VERTEX
  8
0
 10
374.433574
 20
2.683917
 42
0.002681
  0
VERTEX
  8
0
 10
378.440510
 20
1.462992
 42
0.214182
  0
VERTEX
  8
0
 10
379.076265
 20
1.547135
 42
0.288567
  0
VERTEX
  8
0
 10
379.290779
 20
1.985211
 42
0.024378
  0
VERTEX
  8
0
 10
379.087436
 20
3.284328
 42
0.026440
  0
VERTEX
  8
0
 10
378.657446
 20
4.921258
 42
0.017003
  0
VERTEX
  8
0
 10
377.995778
 20
6.769705
 42
-0.003477
  0
VERTEX
  8
0
 10
376.917073
 20
9.544312
 42
-0.000563
  0
VERTEX
  8
0
 10
374.862802
 20
14.957351
 42
-0.000621
  0
VERTEX
  8
0
 10
372.459339
 20
21.336017
 42
-0.000546
  0
VERTEX
  8
0
 10
369.966126
 20
28.000000
 42
0.000399
  0
VERTEX
  8
0
 10
367.548974
 20
34.466491
 42
0.000558
  0
VERTEX
  8
0
 10
365.378018
 20
40.240625
 42
0.000331
  0
VERTEX
  8
0
 10
363.539316
 20
45.104786
 42
0.007458
  0
VERTEX
  8
0
 10
362.986922
 20
46.500000
 42
-0.011067
  0
VERTEX
  8
0
 10
361.249446
 20
50.982693
 42
-0.003203
  0
VERTEX
  8
0
 10
358.765801
 20
57.976508
 42
-0.003188
  0
VERTEX
  8
0
 10
356.040007
 20
65.974963
 42
-0.003197
  0
VERTEX
  8
0
 10
353.419050
 20
74.000000
 42
0.000321
  0
VERTEX
  8
0
 10
351.973303
 20
78.514517
 42
0.000445
  0
VERTEX
  8
0
 10
350.670121
 20
82.562500
 42
0.000276
  0
VERTEX
  8
0
 10
349.568550
 20
85.967411
 42
0.005545
  0
VERTEX
  8
0
 10
349.221154
 20
87.000000
 42
-0.008606
  0
VERTEX
  8
0
 10
349.001743
 20
87.665625
 42
-0.005918
  0
VERTEX
  8
0
 10
348.775016
 20
88.427160
 42
-0.005967
  0
VERTEX
  8
0
 10
348.574170
 20
89.165503
 42
-0.012080
  0
VERTEX
  8
0
 10
348.437145
 20
89.752033
 42
0.026028
  0
VERTEX
  8
0
 10
347.113232
 20
94.781586
 42
0.005791
  0
VERTEX
  8
0
 10
344.306984
 20
103.221074
 42
0.006323
  0
VERTEX
  8
0
 10
341.044328
 20
112.292959
 42
0.009340
  0
VERTEX
  8
0
 10
337.933683
 20
120.159294
 42
-0.037581
  0
VERTEX
  8
0
 10
333.559085
 20
133.354815
 42
-0.066030
  0
VERTEX
  8
0
 10
332.263522
 20
144.758614
 42
-0.059511
  0
VERTEX
  8
0
 10
333.944308
 20
156.893933
 42
-0.025226
  0
VERTEX
  8
0
 10
338.916451
 20
172.580384
 42
0.006602
  0
VERTEX
  8
0
 10
340.546491
 20
177.127741
 42
0.006411
  0
VERTEX
  8
0
 10
342.072514
 20
181.761113
 42
0.006345
  0
VERTEX
  8
0
 10
343.310129
 20
185.868636
 42
0.023529
  0
VERTEX
  8
0
 10
343.934334
 20
188.500000
 42
0.043118
  0
VERTEX
  8
0
 10
344.433321
 20
193.489349
 42
0.007574
  0
VERTEX
  8
0
 10
344.417729
 20
202.927141
 42
0.004042
  0
VERTEX
  8
0
 10
344.173211
 20
212.751680
 42
0.130892
  0
VERTEX
  8
0
 10
343.488790
 20
215.018138
 42
-0.072788
  0
VERTEX
  8
0
 10
343.276016
 20
215.510036
 42
-0.008392
  0
VERTEX
  8
0
 10
342.981848
 20
216.680867
 42
-0.009965
  0
VERTEX
  8
0
 10
342.681420
 20
218.094271
 42
-0.007976
  0
VERTEX
  8
0
 10
342.412622
 20
219.627431
 42
0.023789
  0
VERTEX
  8
0
 10
342.012648
 20
221.549420
 42
0.008517
  0
VERTEX
  8
0
 10
341.266485
 20
224.247850
 42
0.008427
  0
VERTEX
  8
0
 10
340.346520
 20
227.183704
 42
0.009870
  0
VERTEX
  8
0
 10
339.372505
 20
229.934954
 42
-0.057754
  0
VERTEX
  8
0
 10
337.539371
 20
237.278801
 42
-0.039179
  0
VERTEX
  8
0
 10
337.100175
 20
245.896845
 42
-0.035404
  0
VERTEX
  8
0
 10
338.038468
 20
255.423177
 42
-0.028142
  0
VERTEX
  8
0
 10
340.347199
 20
265.500000
 42
0.009777
  0
VERTEX
  8
0
 10
340.504708
 20
266.087500
 42
0.001591
  0
VERTEX
  8
0
 10
340.784404
 20
267.234375
 42
0.001753
  0
VERTEX
  8
0
 10
341.104631
 20
268.586678
 42
0.001543
  0
VERTEX
  8
0
 10
341.429483
 20
270.000000
 42
-0.023991
  0
VERTEX
  8
0
 10
343.655667
 20
278.018414
 42
-0.003428
  0
VERTEX
  8
0
 10
349.112949
 20
294.180312
 42
-0.004015
  0
VERTEX
  8
0
 10
355.663879
 20
312.668481
 42
-0.004047
  0
VERTEX
  8
0
 10
362.493918
 20
331.000000
 42
0.001250
  0
VERTEX
  8
0
 10
371.444079
 20
354.617146
 42
0.005859
  0
VERTEX
  8
0
 10
376.399095
 20
368.274972
 42
0.003100
  0
VERTEX
  8
0
 10
379.634324
 20
377.716729
 42
0.303367
  0
VERTEX
  8
0
 10
379.280828
 20
379.018413
 42
0.197847
  0
VERTEX
  8
0
 10
378.749718
 20
379.197894
 42
0.026595
  0
VERTEX
  8
0
 10
377.554368
 20
379.056258
 42
0.027388
  0
VERTEX
  8
0
 10
376.088978
 20
378.719510
 42
0.019876
  0
SEQEND
  0
ENDSEC
  0
EOF
