  0
SECTION
  2
HEADER
  9
$ACADVER
  1
AC1006
  9
$EXTMIN
 10
0.000000
 20
0.000000
 30
0.000000
  9
$EXTMAX
 10
433.000000
 20
440.000000
 30
0.000000
  0
ENDSEC
  0
SECTION
  2
ENTITIES
  0
POLYLINE
  8
0
 66
1
 70
1
  0
VERTEX
  8
0
 10
150.937951
 20
439.643958
 42
-0.170083
  0
VERTEX
  8
0
 10
150.534473
 20
439.472673
 42
-0.000702
  0
VERTEX
  8
0
 10
145.634898
 20
439.163010
 42
-0.003355
  0
VERTEX
  8
0
 10
140.048602
 20
438.855440
 42
-0.002094
  0
VERTEX
  8
0
 10
133.500000
 20
438.566439
 42
0.001431
  0
VERTEX
  8
0
 10
126.770222
 20
438.278392
 42
0.001865
  0
VERTEX
  8
0
 10
120.612500
 20
437.974162
 42
0.001383
  0
VERTEX
  8
0
 10
115.453747
 20
437.685693
 42
0.017172
  0
VERTEX
  8
0
 10
113.500000
 20
437.503537
 42
-0.008117
  0
VERTEX
  8
0
 10
111.822262
 20
437.316415
 42
-0.001709
  0
VERTEX
  8
0
 10
108.884375
 20
437.047075
 42
-0.001790
  0
VERTEX
  8
0
 10
105.474226
 20
436.758484
 42
-0.001696
  0
VERTEX
  8
0
 10
102.000000
 20
436.488850
 42
0.021133
  0
VERTEX
  8
0
 10
83.436705
 20
434.319713
 42
0.038818
  0
VERTEX
  8
0
 10
68.648099
 20
430.760515
 42
0.043914
  0
VERTEX
  8
0
 10
55.867777
 20
425.333758
 42
0.037687
  0
VERTEX
  8
0
 10
43.520986
 20
417.512609
 42
0.031759
  0
VERTEX
  8
0
 10
32.641562
 20
408.283836
 42
0.037916
  0
VERTEX
  8
0
 10
23.696042
 20
398.247799
 42
0.038764
  0
VERTEX
  8
0
 10
16.526466
 20
387.177738
 42
0.036013
  0
VERTEX
  8
0
 10
10.949646
 20
374.863433
 42
0.029588
  0
VERTEX
  8
0
 10
7.919826
 20
364.859701
 42
0.024870
  0
VERTEX
  8
0
 10
5.879918
 20
353.971175
 42
0.015121
  0
VERTEX
  8
0
 10
4.278144
 20
338.805607
 42
0.003433
  0
VERTEX
  8
0
 10
2.517437
 20
313.000000
 42
0.011317
  0
VERTEX
  8
0
 10
0.874670
 20
270.491070
 42
0.004056
  0
VERTEX
  8
0
 10
0.396824
 20
209.861253
 42
0.004104
  0
VERTEX
  8
0
 10
0.913455
 20
148.643037
 42
0.009969
  0
VERTEX
  8
0
 10
2.565757
 20
103.500000
 42
0.018776
  0
VERTEX
  8
0
 10
4.507309
 20
82.921417
 42
0.036303
  0
VERTEX
  8
0
 10
7.858424
 20
66.738513
 42
0.043312
  0
VERTEX
  8
0
 10
12.988031
 20
53.247265
 42
0.044772
  0
VERTEX
  8
0
 10
20.319296
 20
41.000000
 42
0.056165
  0
VERTEX
  8
0
 10
34.696438
 20
25.288797
 42
0.061296
  0
VERTEX
  8
0
 10
51.820019
 20
13.697758
 42
0.058233
  0
VERTEX
  8
0
 10
72.012440
 20
6.182798
 42
0.043542
  0
VERTEX
  8
0
 10
95.500000
 20
2.562764
 42
0.013067
  0
VERTEX
  8
0
 10
137.316251
 20
0.899222
 42
0.003284
  0
VERTEX
  8
0
 10
205.520545
 20
0.417601
 42
0.002834
  0
VERTEX
  8
0
 10
273.368699
 20
0.768729
 42
0.020455
  0
VERTEX
  8
0
 10
306.000000
 20
2.458878
 42
-0.004455
  0
VERTEX
  8
0
 10
307.982475
 20
2.625287
 42
-0.000870
  0
VERTEX
  8
0
 10
311.556250
 20
2.886970
 42
-0.000924
  0
VERTEX
  8
0
 10
315.723411
 20
3.177079
 42
-0.000855
  0
VERTEX
  8
0
 10
320.000000
 20
3.459520
 42
0.001608
  0
VERTEX
  8
0
 10
324.239973
 20
3.745958
 42
0.001833
  0
VERTEX
  8
0
 10
328.296875
 20
4.048094
 42
0.001659
  0
VERTEX
  8
0
 10
331.739255
 20
4.328652
 42
0.010321
  0
VERTEX
  8
0
 10
333.500000
 20
4.514712
 42
-0.005271
  0
VERTEX
  8
0
 10
335.105616
 20
4.700793
 42
-0.001394
  0
VERTEX
  8
0
 10
337.675000
 20
4.963915
 42
-0.001414
  0
VERTEX
  8
0
 10
340.600001
 20
5.246865
 42
-0.001453
  0
VERTEX
  8
0
 10
343.500000
 20
5.510619
 42
0.029765
  0
VERTEX
  8
0
 10
353.267230
 20
6.959892
 42
0.026639
  0
VERTEX
  8
0
 10
363.169994
 20
9.595146
 42
0.026352
  0
VERTEX
  8
0
 10
372.848299
 20
13.305021
 42
0.027472
  0
VERTEX
  8
0
 10
381.944785
 20
17.967753
 42
0.044469
  0
VERTEX
  8
0
 10
391.781345
 20
24.952730
 42
0.028159
  0
VERTEX
  8
0
 10
401.957345
 20
34.676135
 42
0.028087
  0
VERTEX
  8
0
 10
411.024179
 20
45.535616
 42
0.042649
  0
VERTEX
  8
0
 10
417.492815
 20
55.985821
 42
0.028332
  0
VERTEX
  8
0
 10
422.286184
 20
66.943183
 42
0.031592
  0
VERTEX
  8
0
 10
425.612134
 20
77.985345
 42
0.026673
  0
VERTEX
  8
0
 10
427.897119
 20
90.828996
 42
0.012791
  0
VERTEX
  8
0
 10
429.521862
 20
107.500000
 42
-0.001647
  0
VERTEX
  8
0
 10
429.771931
 20
110.833965
 42
-0.001548
  0
VERTEX
  8
0
 10
430.048969
 20
114.235904
 42
-0.001539
  0
VERTEX
  8
0
 10
430.313236
 20
117.250832
 42
-0.005350
  0
VERTEX
  8
0
 10
430.510847
 20
119.196695
 42
0.025375
  0
VERTEX
  8
0
 10
432.182930
 20
146.497536
 42
0.002591
  0
VERTEX
  8
0
 10
432.523077
 20
211.299628
 42
0.002047
  0
VERTEX
  8
0
 10
432.257465
 20
277.252034
 42
0.037284
  0
VERTEX
  8
0
 10
430.522694
 20
298.192449
 42
-0.016914
  0
VERTEX
  8
0
 10
430.346428
 20
299.614015
 42
-0.002038
  0
VERTEX
  8
0
 10
430.076935
 20
302.759657
 42
-0.002423
  0
VERTEX
  8
0
 10
429.789930
 20
306.502010
 42
-0.001992
  0
VERTEX
  8
0
 10
429.518803
 20
310.500000
 42
0.002515
  0
VERTEX
  8
0
 10
429.247493
 20
314.439645
 42
0.003386
  0
VERTEX
  8
0
 10
428.959801
 20
318.003125
 42
0.002323
  0
VERTEX
  8
0
 10
428.684545
 20
320.987367
 42
0.036116
  0
VERTEX
  8
0
 10
428.511946
 20
322.000000
 42
-0.028277
  0
VERTEX
  8
0
 10
428.336241
 20
322.941571
 42
-0.003132
  0
VERTEX
  8
0
 10
428.070379
 20
325.115625
 42
-0.003810
  0
VERTEX
  8
0
 10
427.789637
 20
327.709789
 42
-0.003076
  0
VERTEX
  8
0
 10
427.526494
 20
330.500000
 42
0.015446
  0
VERTEX
  8
0
 10
425.823388
 20
344.772164
 42
0.026544
  0
VERTEX
  8
0
 10
423.412489
 20
356.500755
 42
0.029867
  0
VERTEX
  8
0
 10
420.023962
 20
366.881294
 42
0.028136
  0
VERTEX
  8
0
 10
415.364940
 20
377.000000
 42
0.039870
  0
VERTEX
  8
0
 10
406.376289
 20
391.102487
 42
0.036483
  0
VERTEX
  8
0
 10
395.015058
 20
404.053986
 42
0.036840
  0
VERTEX
  8
0
 10
382.020647
 20
415.091198
 42
0.042897
  0
VERTEX
  8
0
 10
368.164897
 20
423.486425
 42
0.022793
  0
VERTEX
  8
0
 10
359.835095
 20
427.140834
 42
0.024981
  0
VERTEX
  8
0
 10
351.455343
 20
429.898278
 42
0.023048
  0
VERTEX
  8
0
 10
342.275233
 20
431.969068
 42
0.014922
  0
VERTEX
  8
0
 10
331.500000
 20
433.552768
 42
-0.001516
  0
VERTEX
  8
0
 10
329.085109
 20
433.841802
 42
-0.001764
  0
VERTEX
  8
0
 10
326.790893
 20
434.131672
 42
-0.001565
  0
VERTEX
  8
0
 10
324.851255
 20
434.389872
 42
-0.010587
  0
VERTEX
  8
0
 10
323.894528
 20
434.540974
 42
0.018284
  0
VERTEX
  8
0
 10
322.877847
 20
434.685543
 42
0.001839
  0
VERTEX
  8
0
 10
320.441646
 20
434.932457
 42
0.002306
  0
VERTEX
  8
0
 10
317.535062
 20
435.202716
 42
0.001833
  0
VERTEX
  8
0
 10
314.394528
 20
435.468521
 42
-0.001506
  0
VERTEX
  8
0
 10
311.152091
 20
435.740811
 42
-0.001543
  0
VERTEX
  8
0
 10
307.937768
 20
436.030485
 42
-0.001493
  0
VERTEX
  8
0
 10
305.149654
 20
436.298828
 42
-0.006494
  0
VERTEX
  8
0
 10
303.500000
 20
436.484238
 42
0.011459
  0
VERTEX
  8
0
 10
301.702656
 20
436.668194
 42
0.001629
  0
VERTEX
  8
0
 10
298.003125
 20
436.949223
 42
0.001854
  0
VERTEX
  8
0
 10
293.622914
 20
437.251282
 42
0.001580
  0
VERTEX
  8
0
 10
289.000000
 20
437.538195
 42
-0.002037
  0
VERTEX
  8
0
 10
284.340543
 20
437.831652
 42
-0.002271
  0
VERTEX
  8
0
 10
279.850000
 20
438.153334
 42
-0.002094
  0
VERTEX
  8
0
 10
276.025157
 20
438.460912
 42
-0.011968
  0
VERTEX
  8
0
 10
274.000000
 20
438.681233
 42
0.030940
  0
VERTEX
  8
0
 10
267.779123
 20
439.120153
 42
0.000189
  0
VERTEX
  8
0
 10
211.049831
 20
439.585378
 42
0.000035
  0
VERTEX
  8
0
 10
151.981961
 20
440.043331
 42
0.188716
  0
SEQEND
  0
ENDSEC
  0
EOF
