  0
SECTION
  2
HEADER
  9
$ACADVER
  1
AC1006
  9
$EXTMIN
 10
0.000000
 20
0.000000
 30
0.000000
  9
$EXTMAX
 10
437.000000
 20
389.000000
 30
0.000000
  0
ENDSEC
  0
SECTION
  2
ENTITIES
  0
POLYLINE
  8
0
 66
1
 70
1
  0
VERTEX
  8
0
 10
213.337604
 20
387.437400
 42
0.090386
  0
VERTEX
  8
0
 10
213.171525
 20
386.555425
 42
0.030164
  0
VERTEX
  8
0
 10
213.243302
 20
385.238940
 42
0.028883
  0
VERTEX
  8
0
 10
213.501043
 20
383.759876
 42
0.029183
  0
VERTEX
  8
0
 10
213.926911
 20
382.325579
 42
-0.064229
  0
VERTEX
  8
0
 10
214.545320
 20
379.543061
 42
-0.166812
  0
VERTEX
  8
0
 10
214.063455
 20
377.575419
 42
-0.177562
  0
VERTEX
  8
0
 10
212.506415
 20
376.395218
 42
-0.074418
  0
VERTEX
  8
0
 10
209.865738
 20
376.000000
 42
0.028956
  0
VERTEX
  8
0
 10
208.120320
 20
375.898835
 42
0.231682
  0
VERTEX
  8
0
 10
207.461566
 20
375.475553
 42
0.163837
  0
VERTEX
  8
0
 10
207.265406
 20
374.596525
 42
0.013334
  0
VERTEX
  8
0
 10
207.580120
 20
372.224322
 42
-0.030346
  0
VERTEX
  8
0
 10
207.773697
 20
370.253163
 42
-0.064179
  0
VERTEX
  8
0
 10
207.634466
 20
368.726805
 42
-0.070824
  0
VERTEX
  8
0
 10
207.127528
 20
367.382295
 42
-0.044701
  0
VERTEX
  8
0
 10
206.191041
 20
365.987598
 42
-0.029843
  0
VERTEX
  8
0
 10
204.925476
 20
364.602485
 42
-0.137955
  0
VERTEX
  8
0
 10
203.980565
 20
364.090416
 42
-0.121857
  0
VERTEX
  8
0
 10
202.844446
 20
364.113230
 42
-0.021098
  0
VERTEX
  8
0
 10
200.778105
 20
364.763275
 42
0.028422
  0
VERTEX
  8
0
 10
196.653056
 20
365.994900
 42
0.309706
  0
VERTEX
  8
0
 10
195.118065
 20
365.404196
 42
0.291030
  0
VERTEX
  8
0
 10
195.056334
 20
363.706763
 42
0.026399
  0
VERTEX
  8
0
 10
197.500000
 20
360.000000
 42
-0.038856
  0
VERTEX
  8
0
 10
199.396166
 20
356.961814
 42
-0.146504
  0
VERTEX
  8
0
 10
199.813898
 20
354.782112
 42
-0.158192
  0
VERTEX
  8
0
 10
198.953508
 20
352.831258
 42
-0.047545
  0
VERTEX
  8
0
 10
196.541743
 20
350.599637
 42
0.038866
  0
VERTEX
  8
0
 10
195.086180
 20
349.298872
 42
0.034240
  0
VERTEX
  8
0
 10
193.781318
 20
347.735000
 42
0.035410
  0
VERTEX
  8
0
 10
192.752746
 20
346.080136
 42
0.054032
  0
VERTEX
  8
0
 10
192.130276
 20
344.509651
 42
-0.025654
  0
VERTEX
  8
0
 10
191.624077
 20
342.985712
 42
-0.016009
  0
VERTEX
  8
0
 10
190.884259
 20
341.255259
 42
-0.016056
  0
VERTEX
  8
0
 10
190.043273
 20
339.591987
 42
-0.027923
  0
VERTEX
  8
0
 10
189.227069
 20
338.278703
 42
0.035448
  0
VERTEX
  8
0
 10
188.432557
 20
336.956390
 42
0.020407
  0
VERTEX
  8
0
 10
187.658653
 20
335.266121
 42
0.020317
  0
VERTEX
  8
0
 10
187.016772
 20
333.496329
 42
0.031804
  0
VERTEX
  8
0
 10
186.626074
 20
331.925113
 42
-0.039450
  0
VERTEX
  8
0
 10
186.145455
 20
330.111028
 42
-0.078576
  0
VERTEX
  8
0
 10
185.441898
 20
328.806717
 42
-0.080664
  0
VERTEX
  8
0
 10
184.383864
 20
327.804504
 42
-0.043499
  0
VERTEX
  8
0
 10
182.813155
 20
326.925113
 42
0.057419
  0
VERTEX
  8
0
 10
181.160304
 20
325.938482
 42
0.069898
  0
VERTEX
  8
0
 10
179.895787
 20
324.656042
 42
0.053581
  0
VERTEX
  8
0
 10
178.808517
 20
322.807724
 42
0.019736
  0
VERTEX
  8
0
 10
177.670088
 20
320.000000
 42
0.019831
  0
VERTEX
  8
0
 10
176.906373
 20
317.583291
 42
0.014819
  0
VERTEX
  8
0
 10
176.250931
 20
314.867188
 42
0.015038
  0
VERTEX
  8
0
 10
175.785778
 20
312.267908
 42
0.032764
  0
VERTEX
  8
0
 10
175.620949
 20
310.250000
 42
-0.011586
  0
VERTEX
  8
0
 10
175.556895
 20
308.615487
 42
-0.018571
  0
VERTEX
  8
0
 10
175.418275
 20
307.226609
 42
-0.013034
  0
VERTEX
  8
0
 10
175.237792
 20
306.126991
 42
-0.320832
  0
VERTEX
  8
0
 10
175.026477
 20
305.925690
 42
0.018557
  0
VERTEX
  8
0
 10
172.382321
 20
305.451825
 42
0.040589
  0
VERTEX
  8
0
 10
170.415144
 20
304.852835
 42
0.050552
  0
VERTEX
  8
0
 10
168.860921
 20
304.048180
 42
0.051539
  0
VERTEX
  8
0
 10
167.510750
 20
302.952482
 42
0.036601
  0
VERTEX
  8
0
 10
166.352243
 20
301.612555
 42
0.175441
  0
VERTEX
  8
0
 10
166.065781
 20
300.660930
 42
0.100436
  0
VERTEX
  8
0
 10
166.377763
 20
299.464855
 42
0.008099
  0
VERTEX
  8
0
 10
167.862786
 20
296.552578
 42
-0.025056
  0
VERTEX
  8
0
 10
169.557789
 20
292.930072
 42
-0.216757
  0
VERTEX
  8
0
 10
169.489377
 20
291.193041
 42
-0.340665
  0
VERTEX
  8
0
 10
168.248648
 20
290.596983
 42
-0.046775
  0
VERTEX
  8
0
 10
165.324379
 20
291.508932
 42
0.035946
  0
VERTEX
  8
0
 10
161.183692
 20
292.899145
 42
0.248383
  0
VERTEX
  8
0
 10
159.167950
 20
292.416841
 42
0.244185
  0
VERTEX
  8
0
 10
158.412043
 20
290.468149
 42
0.034919
  0
VERTEX
  8
0
 10
159.198320
 20
286.116806
 42
-0.048024
  0
VERTEX
  8
0
 10
159.755343
 20
282.495046
 42
-0.199746
  0
VERTEX
  8
0
 10
159.038362
 20
280.453075
 42
-0.198807
  0
VERTEX
  8
0
 10
157.081388
 20
279.516608
 42
-0.047547
  0
VERTEX
  8
0
 10
153.404316
 20
279.668169
 42
0.011811
  0
VERTEX
  8
0
 10
150.970823
 20
279.943332
 42
0.085122
  0
VERTEX
  8
0
 10
149.798732
 20
279.848349
 42
0.207982
  0
VERTEX
  8
0
 10
149.218824
 20
279.397521
 42
0.125621
  0
VERTEX
  8
0
 10
149.000000
 20
278.540294
 42
0.079620
  0
VERTEX
  8
0
 10
149.138040
 20
277.678925
 42
0.025430
  0
VERTEX
  8
0
 10
149.607070
 20
276.464833
 42
0.024651
  0
VERTEX
  8
0
 10
150.275643
 20
275.144737
 42
0.025176
  0
VERTEX
  8
0
 10
151.066622
 20
273.906438
 42
-0.041571
  0
VERTEX
  8
0
 10
151.869984
 20
272.553006
 42
-0.038129
  0
VERTEX
  8
0
 10
152.465468
 20
271.046231
 42
-0.039892
  0
VERTEX
  8
0
 10
152.799609
 20
269.554821
 42
-0.063889
  0
VERTEX
  8
0
 10
152.816622
 20
268.252068
 42
-0.049265
  0
VERTEX
  8
0
 10
152.468091
 20
266.640551
 42
-0.210508
  0
VERTEX
  8
0
 10
151.829697
 20
265.922012
 42
-0.111093
  0
VERTEX
  8
0
 10
150.597804
 20
265.661816
 42
-0.009743
  0
VERTEX
  8
0
 10
147.388857
 20
265.766487
 42
0.000000
  0
VERTEX
  8
0
 10
142.277714
 20
266.032974
 42
0.000000
  0
VERTEX
  8
0
 10
141.572981
 20
257.347521
 42
-0.026654
  0
VERTEX
  8
0
 10
140.586179
 20
250.041613
 42
-0.073186
  0
VERTEX
  8
0
 10
138.886376
 20
245.137715
 42
-0.081265
  0
VERTEX
  8
0
 10
135.963534
 20
241.227956
 42
-0.038567
  0
VERTEX
  8
0
 10
131.097815
 20
237.215543
 42
0.019101
  0
VERTEX
  8
0
 10
127.143427
 20
234.205150
 42
0.111372
  0
VERTEX
  8
0
 10
125.548928
 20
232.151037
 42
0.142185
  0
VERTEX
  8
0
 10
125.188850
 20
229.858343
 42
0.038170
  0
VERTEX
  8
0
 10
125.939859
 20
226.209698
 42
-0.038597
  0
VERTEX
  8
0
 10
126.336204
 20
224.275773
 42
-0.107207
  0
VERTEX
  8
0
 10
126.214096
 20
222.901346
 42
-0.085700
  0
VERTEX
  8
0
 10
125.509754
 20
221.525641
 42
-0.019093
  0
VERTEX
  8
0
 10
123.838255
 20
219.468563
 42
-0.034219
  0
VERTEX
  8
0
 10
122.442801
 20
218.082974
 42
-0.027285
  0
VERTEX
  8
0
 10
120.765379
 20
216.784118
 42
-0.028037
  0
VERTEX
  8
0
 10
119.071884
 20
215.749859
 42
-0.060163
  0
VERTEX
  8
0
 10
117.648395
 20
215.194417
 42
0.039305
  0
VERTEX
  8
0
 10
115.908681
 20
214.597714
 42
0.133139
  0
VERTEX
  8
0
 10
114.978813
 20
213.855393
 42
0.113324
  0
VERTEX
  8
0
 10
114.469203
 20
212.672159
 42
0.024655
  0
VERTEX
  8
0
 10
114.175487
 20
210.454834
 42
-0.019936
  0
VERTEX
  8
0
 10
113.980134
 20
208.865009
 42
-0.021555
  0
VERTEX
  8
0
 10
113.662097
 20
207.337200
 42
-0.021680
  0
VERTEX
  8
0
 10
113.278357
 20
206.059158
 42
-0.089659
  0
VERTEX
  8
0
 10
112.883477
 20
205.359598
 42
0.050308
  0
VERTEX
  8
0
 10
112.453580
 20
204.720571
 42
0.016395
  0
VERTEX
  8
0
 10
111.949366
 20
203.699996
 42
0.016153
  0
VERTEX
  8
0
 10
111.460077
 20
202.522365
 42
0.017527
  0
VERTEX
  8
0
 10
111.062139
 20
201.346918
 42
-0.004692
  0
VERTEX
  8
0
 10
110.689143
 20
200.144384
 42
-0.004021
  0
VERTEX
  8
0
 10
110.274414
 20
198.885276
 42
-0.004052
  0
VERTEX
  8
0
 10
109.879146
 20
197.747409
 42
-0.011564
  0
VERTEX
  8
0
 10
109.579532
 20
196.964659
 42
0.082561
  0
VERTEX
  8
0
 10
109.421481
 20
196.270737
 42
0.186037
  0
VERTEX
  8
0
 10
109.582765
 20
195.764927
 42
0.153718
  0
VERTEX
  8
0
 10
110.075330
 20
195.435693
 42
0.052291
  0
VERTEX
  8
0
 10
110.932189
 20
195.280061
 42
-0.071618
  0
VERTEX
  8
0
 10
111.942333
 20
195.056105
 42
-0.019870
  0
VERTEX
  8
0
 10
113.440571
 20
194.421062
 42
-0.019632
  0
VERTEX
  8
0
 10
115.098135
 20
193.558333
 42
-0.019425
  0
VERTEX
  8
0
 10
116.688940
 20
192.565403
 42
0.027172
  0
VERTEX
  8
0
 10
119.605897
 20
190.806899
 42
0.091532
  0
VERTEX
  8
0
 10
121.721648
 20
190.139346
 42
0.123063
  0
VERTEX
  8
0
 10
123.575704
 20
190.366333
 42
0.070326
  0
VERTEX
  8
0
 10
125.558870
 20
191.468197
 42
-0.033020
  0
VERTEX
  8
0
 10
126.417312
 20
192.032518
 42
-0.027945
  0
VERTEX
  8
0
 10
127.390882
 20
192.514453
 42
-0.028891
  0
VERTEX
  8
0
 10
128.330816
 20
192.853314
 42
-0.067098
  0
VERTEX
  8
0
 10
129.069665
 20
192.968197
 42
0.107259
  0
VERTEX
  8
0
 10
129.818559
 20
193.146677
 42
0.035725
  0
VERTEX
  8
0
 10
130.802888
 20
193.709066
 42
0.033648
  0
VERTEX
  8
0
 10
131.836258
 20
194.507388
 42
0.032525
  0
VERTEX
  8
0
 10
132.765790
 20
195.445645
 42
-0.032080
  0
VERTEX
  8
0
 10
134.065433
 20
196.759823
 42
-0.117251
  0
VERTEX
  8
0
 10
135.090457
 20
197.311023
 42
-0.111443
  0
VERTEX
  8
0
 10
136.283084
 20
197.356338
 42
-0.027580
  0
VERTEX
  8
0
 10
138.196126
 20
196.889929
 42
0.006256
  0
VERTEX
  8
0
 10
146.350388
 20
194.529465
 42
0.024000
  0
VERTEX
  8
0
 10
151.503485
 20
193.370257
 42
0.037228
  0
VERTEX
  8
0
 10
154.918740
 20
193.031527
 42
0.170148
  0
VERTEX
  8
0
 10
156.787968
 20
193.635717
 42
-0.089968
  0
VERTEX
  8
0
 10
158.799122
 20
194.657933
 42
-0.103035
  0
VERTEX
  8
0
 10
160.944418
 20
194.841688
 42
-0.081739
  0
VERTEX
  8
0
 10
163.363593
 20
194.138140
 42
-0.037697
  0
VERTEX
  8
0
 10
166.214812
 20
192.500000
 42
0.033585
  0
VERTEX
  8
0
 10
169.083376
 20
190.820407
 42
0.089740
  0
VERTEX
  8
0
 10
171.349745
 20
190.159967
 42
0.113682
  0
VERTEX
  8
0
 10
173.373162
 20
190.407717
 42
0.074973
  0
VERTEX
  8
0
 10
175.441130
 20
191.531803
 42
-0.031521
  0
VERTEX
  8
0
 10
176.290395
 20
192.093741
 42
-0.028084
  0
VERTEX
  8
0
 10
177.236286
 20
192.568717
 42
-0.029152
  0
VERTEX
  8
0
 10
178.136763
 20
192.898359
 42
-0.073289
  0
VERTEX
  8
0
 10
178.826459
 20
193.000000
 42
0.116164
  0
VERTEX
  8
0
 10
179.539460
 20
193.167915
 42
0.032005
  0
VERTEX
  8
0
 10
180.542344
 20
193.750909
 42
0.030514
  0
VERTEX
  8
0
 10
181.626678
 20
194.577908
 42
0.027710
  0
VERTEX
  8
0
 10
182.639746
 20
195.556287
 42
-0.026365
  0
VERTEX
  8
0
 10
183.608916
 20
196.497319
 42
-0.038578
  0
VERTEX
  8
0
 10
184.561675
 20
197.207923
 42
-0.043725
  0
VERTEX
  8
0
 10
185.377178
 20
197.628676
 42
-0.240085
  0
VERTEX
  8
0
 10
185.855679
 20
197.589195
 42
0.065704
  0
VERTEX
  8
0
 10
186.493095
 20
197.302741
 42
0.002273
  0
VERTEX
  8
0
 10
189.111419
 20
196.531114
 42
0.004215
  0
VERTEX
  8
0
 10
192.221983
 20
195.658127
 42
0.002928
  0
VERTEX
  8
0
 10
195.749861
 20
194.722177
 42
0.006199
  0
VERTEX
  8
0
 10
200.714548
 20
193.501590
 42
0.033431
  0
VERTEX
  8
0
 10
203.456343
 20
193.053949
 42
0.065845
  0
VERTEX
  8
0
 10
205.239913
 20
193.119077
 42
0.116364
  0
VERTEX
  8
0
 10
206.589728
 20
193.689269
 42
-0.083099
  0
VERTEX
  8
0
 10
208.589274
 20
194.693811
 42
-0.107500
  0
VERTEX
  8
0
 10
210.629601
 20
194.868807
 42
-0.083542
  0
VERTEX
  8
0
 10
212.936094
 20
194.167148
 42
-0.033722
  0
VERTEX
  8
0
 10
215.785188
 20
192.500000
 42
0.028104
  0
VERTEX
  8
0
 10
218.643169
 20
190.784306
 42
0.092108
  0
VERTEX
  8
0
 10
220.738531
 20
190.134386
 42
0.122126
  0
VERTEX
  8
0
 10
222.584413
 20
190.368177
 42
0.069744
  0
VERTEX
  8
0
 10
224.558870
 20
191.468197
 42
-0.033020
  0
VERTEX
  8
0
 10
225.417312
 20
192.032518
 42
-0.027945
  0
VERTEX
  8
0
 10
226.390882
 20
192.514453
 42
-0.028891
  0
VERTEX
  8
0
 10
227.330816
 20
192.853314
 42
-0.067098
  0
VERTEX
  8
0
 10
228.069665
 20
192.968197
 42
0.107259
  0
VERTEX
  8
0
 10
228.818559
 20
193.146677
 42
0.035725
  0
VERTEX
  8
0
 10
229.802888
 20
193.709066
 42
0.033648
  0
VERTEX
  8
0
 10
230.836258
 20
194.507388
 42
0.032525
  0
VERTEX
  8
0
 10
231.765790
 20
195.445645
 42
-0.032080
  0
VERTEX
  8
0
 10
233.065433
 20
196.759823
 42
-0.117251
  0
VERTEX
  8
0
 10
234.090457
 20
197.311023
 42
-0.111443
  0
VERTEX
  8
0
 10
235.283084
 20
197.356338
 42
-0.027580
  0
VERTEX
  8
0
 10
237.196126
 20
196.889929
 42
0.006256
  0
VERTEX
  8
0
 10
245.350388
 20
194.529465
 42
0.024000
  0
VERTEX
  8
0
 10
250.503485
 20
193.370257
 42
0.037228
  0
VERTEX
  8
0
 10
253.918740
 20
193.031527
 42
0.170148
  0
VERTEX
  8
0
 10
255.787968
 20
193.635717
 42
-0.089968
  0
VERTEX
  8
0
 10
257.799122
 20
194.657933
 42
-0.103035
  0
VERTEX
  8
0
 10
259.944418
 20
194.841688
 42
-0.081739
  0
VERTEX
  8
0
 10
262.363593
 20
194.138140
 42
-0.037697
  0
VERTEX
  8
0
 10
265.214812
 20
192.500000
 42
0.033585
  0
VERTEX
  8
0
 10
268.083376
 20
190.820407
 42
0.089740
  0
VERTEX
  8
0
 10
270.349745
 20
190.159967
 42
0.113682
  0
VERTEX
  8
0
 10
272.373162
 20
190.407717
 42
0.074973
  0
VERTEX
  8
0
 10
274.441130
 20
191.531803
 42
-0.031521
  0
VERTEX
  8
0
 10
275.290395
 20
192.093741
 42
-0.028084
  0
VERTEX
  8
0
 10
276.236286
 20
192.568717
 42
-0.029152
  0
VERTEX
  8
0
 10
277.136763
 20
192.898359
 42
-0.073289
  0
VERTEX
  8
0
 10
277.826459
 20
193.000000
 42
0.113791
  0
VERTEX
  8
0
 10
278.534906
 20
193.163345
 42
0.032764
  0
VERTEX
  8
0
 10
279.517828
 20
193.724456
 42
0.031131
  0
VERTEX
  8
0
 10
280.575146
 20
194.522350
 42
0.028678
  0
VERTEX
  8
0
 10
281.556287
 20
195.466234
 42
-0.028616
  0
VERTEX
  8
0
 10
283.077977
 20
196.930505
 42
-0.145215
  0
VERTEX
  8
0
 10
284.140544
 20
197.405706
 42
-0.104206
  0
VERTEX
  8
0
 10
285.466226
 20
197.305377
 42
-0.011300
  0
VERTEX
  8
0
 10
288.407618
 20
196.376777
 42
-0.023711
  0
VERTEX
  8
0
 10
290.961277
 20
195.369204
 42
-0.086662
  0
VERTEX
  8
0
 10
292.396314
 20
194.395609
 42
-0.095537
  0
VERTEX
  8
0
 10
293.342374
 20
193.045733
 42
-0.032438
  0
VERTEX
  8
0
 10
294.181241
 20
190.789408
 42
-0.014250
  0
VERTEX
  8
0
 10
294.798421
 20
188.493395
 42
-0.081724
  0
VERTEX
  8
0
 10
294.887555
 20
187.240338
 42
-0.139753
  0
VERTEX
  8
0
 10
294.544296
 20
186.354754
 42
-0.073114
  0
VERTEX
  8
0
 10
293.694581
 20
185.518622
 42
0.128503
  0
VERTEX
  8
0
 10
292.372980
 20
183.897020
 42
0.151167
  0
VERTEX
  8
0
 10
292.120673
 20
181.938977
 42
0.123572
  0
VERTEX
  8
0
 10
293.035616
 20
179.878049
 42
0.072204
  0
VERTEX
  8
0
 10
295.000000
 20
178.000000
 42
-0.014108
  0
VERTEX
  8
0
 10
296.148900
 20
177.132047
 42
-0.019916
  0
VERTEX
  8
0
 10
297.117493
 20
176.291007
 42
-0.016529
  0
VERTEX
  8
0
 10
297.850529
 20
175.554278
 42
-0.191311
  0
VERTEX
  8
0
 10
297.995721
 20
175.181906
 42
-0.341645
  0
VERTEX
  8
0
 10
297.774761
 20
174.899949
 42
-0.015161
  0
VERTEX
  8
0
 10
296.483180
 20
174.614716
 42
-0.020191
  0
VERTEX
  8
0
 10
294.822967
 20
174.369477
 42
-0.012410
  0
VERTEX
  8
0
 10
292.852657
 20
174.208618
 42
0.015846
  0
VERTEX
  8
0
 10
290.745304
 20
174.021988
 42
0.016042
  0
VERTEX
  8
0
 10
288.662693
 20
173.702754
 42
0.016044
  0
VERTEX
  8
0
 10
286.871881
 20
173.309306
 42
0.060836
  0
VERTEX
  8
0
 10
285.805116
 20
172.895701
 42
-0.085179
  0
VERTEX
  8
0
 10
284.664353
 20
172.515828
 42
-0.063735
  0
VERTEX
  8
0
 10
283.337576
 20
172.483706
 42
-0.046445
  0
VERTEX
  8
0
 10
281.685895
 20
172.811503
 42
-0.019019
  0
VERTEX
  8
0
 10
279.518408
 20
173.546120
 42
0.039389
  0
VERTEX
  8
0
 10
277.124264
 20
174.250336
 42
0.016116
  0
VERTEX
  8
0
 10
273.784303
 20
174.841239
 42
0.014922
  0
VERTEX
  8
0
 10
269.914038
 20
175.280596
 42
0.012792
  0
VERTEX
  8
0
 10
265.820229
 20
175.516717
 42
-0.006267
  0
VERTEX
  8
0
 10
262.038314
 20
175.685372
 42
-0.006903
  0
VERTEX
  8
0
 10
258.381908
 20
175.945066
 42
-0.006476
  0
VERTEX
  8
0
 10
255.266906
 20
176.250260
 42
-0.034553
  0
VERTEX
  8
0
 10
253.586265
 20
176.555557
 42
0.013002
  0
VERTEX
  8
0
 10
251.945826
 20
176.927168
 42
0.155207
  0
VERTEX
  8
0
 10
251.307534
 20
176.855904
 42
0.339716
  0
VERTEX
  8
0
 10
251.095993
 20
176.465612
 42
0.052078
  0
VERTEX
  8
0
 10
251.340530
 20
175.554976
 42
-0.028286
  0
VERTEX
  8
0
 10
252.902189
 20
170.677289
 42
-0.308430
  0
VERTEX
  8
0
 10
252.240241
 20
168.835625
 42
-0.296405
  0
VERTEX
  8
0
 10
250.244878
 20
168.733594
 42
-0.027008
  0
VERTEX
  8
0
 10
245.875043
 20
171.591727
 42
0.010324
  0
VERTEX
  8
0
 10
242.698433
 20
173.824138
 42
0.076626
  0
VERTEX
  8
0
 10
241.030684
 20
174.607205
 42
0.119231
  0
VERTEX
  8
0
 10
239.523625
 20
174.680634
 42
0.039600
  0
VERTEX
  8
0
 10
237.375843
 20
174.091265
 42
-0.031005
  0
VERTEX
  8
0
 10
235.564749
 20
173.560688
 42
-0.050847
  0
VERTEX
  8
0
 10
233.979953
 20
173.367363
 42
-0.051612
  0
VERTEX
  8
0
 10
232.405547
 20
173.498897
 42
-0.033085
  0
VERTEX
  8
0
 10
230.627947
 20
173.957774
 42
0.015157
  0
VERTEX
  8
0
 10
226.829890
 20
175.084811
 42
0.026634
  0
VERTEX
  8
0
 10
223.623287
 20
175.751191
 42
0.020804
  0
VERTEX
  8
0
 10
219.868940
 20
176.166001
 42
0.005897
  0
VERTEX
  8
0
 10
214.000000
 20
176.498810
 42
-0.002104
  0
VERTEX
  8
0
 10
210.562417
 20
176.667596
 42
-0.002375
  0
VERTEX
  8
0
 10
207.262500
 20
176.859265
 42
-0.002168
  0
VERTEX
  8
0
 10
204.457824
 20
177.047753
 42
-0.012968
  0
VERTEX
  8
0
 10
203.000000
 20
177.190158
 42
0.062321
  0
VERTEX
  8
0
 10
201.449515
 20
177.188340
 42
0.306790
  0
VERTEX
  8
0
 10
200.826073
 20
176.640434
 42
0.114354
  0
VERTEX
  8
0
 10
200.791882
 20
175.361433
 42
0.007610
  0
VERTEX
  8
0
 10
201.585112
 20
171.750000
 42
-0.075267
  0
VERTEX
  8
0
 10
201.747893
 20
169.749204
 42
-0.436230
  0
VERTEX
  8
0
 10
201.013810
 20
169.156747
 42
-0.126118
  0
VERTEX
  8
0
 10
199.339091
 20
169.854098
 42
-0.012632
  0
VERTEX
  8
0
 10
195.916234
 20
172.569984
 42
0.017076
  0
VERTEX
  8
0
 10
193.747139
 20
174.259877
 42
0.051447
  0
VERTEX
  8
0
 10
192.126273
 20
175.198499
 42
0.079059
  0
VERTEX
  8
0
 10
190.793092
 20
175.559309
 42
0.110776
  0
VERTEX
  8
0
 10
189.571621
 20
175.419288
 42
-0.064101
  0
VERTEX
  8
0
 10
186.759028
 20
174.829327
 42
-0.033640
  0
VERTEX
  8
0
 10
183.179131
 20
174.788238
 42
-0.027762
  0
VERTEX
  8
0
 10
178.857446
 20
175.271183
 42
-0.016238
  0
VERTEX
  8
0
 10
173.749625
 20
176.302715
 42
0.012397
  0
VERTEX
  8
0
 10
170.333357
 20
177.019989
 42
0.031474
  0
VERTEX
  8
0
 10
167.817397
 20
177.321403
 42
0.042636
  0
VERTEX
  8
0
 10
165.803564
 20
177.263155
 42
0.055379
  0
VERTEX
  8
0
 10
164.005171
 20
176.851958
 42
-0.046560
  0
VERTEX
  8
0
 10
162.311482
 20
176.433217
 42
-0.054866
  0
VERTEX
  8
0
 10
160.661866
 20
176.367694
 42
-0.044968
  0
VERTEX
  8
0
 10
158.790967
 20
176.669230
 42
-0.019684
  0
VERTEX
  8
0
 10
156.380683
 20
177.385955
 42
0.016676
  0
VERTEX
  8
0
 10
154.536574
 20
177.946415
 42
0.022172
  0
VERTEX
  8
0
 10
152.825722
 20
178.324258
 42
0.020268
  0
VERTEX
  8
0
 10
151.411335
 20
178.512762
 42
0.162801
  0
VERTEX
  8
0
 10
150.780967
 20
178.364630
 42
0.224389
  0
VERTEX
  8
0
 10
150.268653
 20
177.575387
 42
0.061099
  0
VERTEX
  8
0
 10
150.249963
 20
176.048935
 42
0.046123
  0
VERTEX
  8
0
 10
150.665672
 20
174.018876
 42
0.025457
  0
VERTEX
  8
0
 10
151.523034
 20
171.633666
 42
-0.018186
  0
VERTEX
  8
0
 10
151.933304
 20
170.542376
 42
-0.407694
  0
VERTEX
  8
0
 10
151.799433
 20
170.265955
 42
-0.204430
  0
VERTEX
  8
0
 10
151.375627
 20
170.290460
 42
-0.007369
  0
VERTEX
  8
0
 10
149.901630
 20
171.049981
 42
-0.030702
  0
VERTEX
  8
0
 10
148.803523
 20
171.726138
 42
-0.014520
  0
VERTEX
  8
0
 10
147.471104
 20
172.723039
 42
-0.014330
  0
VERTEX
  8
0
 10
146.132677
 20
173.850462
 42
-0.019641
  0
VERTEX
  8
0
 10
145.000000
 20
174.944329
 42
0.028807
  0
VERTEX
  8
0
 10
143.045593
 20
176.763766
 42
0.144924
  0
VERTEX
  8
0
 10
141.687620
 20
177.344656
 42
0.147527
  0
VERTEX
  8
0
 10
140.245559
 20
177.087340
 42
0.030207
  0
VERTEX
  8
0
 10
137.986748
 20
175.764122
 42
-0.109857
  0
VERTEX
  8
0
 10
135.751865
 20
174.893500
 42
-0.072755
  0
VERTEX
  8
0
 10
132.987379
 20
174.873087
 42
-0.036596
  0
VERTEX
  8
0
 10
128.826328
 20
175.764465
 42
-0.006595
  0
VERTEX
  8
0
 10
121.250000
 20
178.086356
 42
0.035643
  0
VERTEX
  8
0
 10
119.537988
 20
178.504067
 42
0.049294
  0
VERTEX
  8
0
 10
117.961796
 20
178.613865
 42
0.048007
  0
VERTEX
  8
0
 10
116.363129
 20
178.413145
 42
0.031544
  0
VERTEX
  8
0
 10
114.581102
 20
177.893166
 42
-0.035184
  0
VERTEX
  8
0
 10
112.594722
 20
177.329201
 42
-0.061765
  0
VERTEX
  8
0
 10
110.894981
 20
177.187927
 42
-0.051158
  0
VERTEX
  8
0
 10
109.004808
 20
177.459454
 42
-0.017338
  0
VERTEX
  8
0
 10
106.331102
 20
178.227056
 42
0.032823
  0
VERTEX
  8
0
 10
103.047520
 20
179.060680
 42
0.109308
  0
VERTEX
  8
0
 10
100.836571
 20
178.983822
 42
0.359725
  0
VERTEX
  8
0
 10
100.206172
 20
178.114973
 42
0.182601
  0
VERTEX
  8
0
 10
100.800000
 20
176.800000
 42
-0.106905
  0
VERTEX
  8
0
 10
101.621398
 20
175.525243
 42
-0.077146
  0
VERTEX
  8
0
 10
101.967467
 20
173.864242
 42
-0.100277
  0
VERTEX
  8
0
 10
101.763760
 20
172.502227
 42
-0.315496
  0
VERTEX
  8
0
 10
101.047053
 20
172.000000
 42
-0.067102
  0
VERTEX
  8
0
 10
100.521629
 20
172.070833
 42
-0.013375
  0
VERTEX
  8
0
 10
99.613385
 20
172.346575
 42
-0.013928
  0
VERTEX
  8
0
 10
98.565916
 20
172.728171
 42
-0.012579
  0
VERTEX
  8
0
 10
97.504661
 20
173.179830
 42
0.036516
  0
VERTEX
  8
0
 10
96.015471
 20
173.731078
 42
0.123032
  0
VERTEX
  8
0
 10
94.985429
 20
173.768889
 42
0.114948
  0
VERTEX
  8
0
 10
94.018719
 20
173.317279
 42
0.029877
  0
VERTEX
  8
0
 10
92.726164
 20
172.170608
 42
0.034250
  0
VERTEX
  8
0
 10
91.440854
 20
170.696023
 42
0.148978
  0
VERTEX
  8
0
 10
91.045030
 20
169.620586
 42
0.091248
  0
VERTEX
  8
0
 10
91.218940
 20
168.237703
 42
0.008545
  0
VERTEX
  8
0
 10
92.316210
 20
164.972392
 42
-0.015894
  0
VERTEX
  8
0
 10
92.952826
 20
162.981482
 42
-0.021464
  0
VERTEX
  8
0
 10
93.392535
 20
161.143161
 42
-0.019164
  0
VERTEX
  8
0
 10
93.627569
 20
159.624389
 42
-0.168772
  0
VERTEX
  8
0
 10
93.481988
 20
158.970856
 42
-0.187375
  0
VERTEX
  8
0
 10
92.992538
 20
158.601264
 42
-0.031256
  0
VERTEX
  8
0
 10
91.819683
 20
158.346591
 42
-0.030563
  0
VERTEX
  8
0
 10
90.331522
 20
158.211961
 42
-0.022842
  0
VERTEX
  8
0
 10
88.684334
 20
158.239242
 42
0.013412
  0
VERTEX
  8
0
 10
85.964181
 20
158.335618
 42
0.170922
  0
VERTEX
  8
0
 10
85.012037
 20
158.009508
 42
0.201415
  0
VERTEX
  8
0
 10
84.554388
 20
157.181133
 42
0.019692
  0
VERTEX
  8
0
 10
84.396125
 20
154.851987
 42
-0.023027
  0
VERTEX
  8
0
 10
84.106809
 20
150.976428
 42
-0.134436
  0
VERTEX
  8
0
 10
83.340509
 20
149.100629
 42
-0.194221
  0
VERTEX
  8
0
 10
81.883744
 20
148.243101
 42
-0.057753
  0
VERTEX
  8
0
 10
79.251920
 20
148.156242
 42
0.014472
  0
VERTEX
  8
0
 10
76.911125
 20
148.281462
 42
0.169169
  0
VERTEX
  8
0
 10
76.052905
 20
148.005923
 42
0.224703
  0
VERTEX
  8
0
 10
75.679747
 20
147.294209
 42
0.027359
  0
VERTEX
  8
0
 10
75.704855
 20
145.483026
 42
-0.007109
  0
VERTEX
  8
0
 10
75.978350
 20
140.455642
 42
-0.031354
  0
VERTEX
  8
0
 10
75.911450
 20
137.490449
 42
-0.046487
  0
VERTEX
  8
0
 10
75.491206
 20
135.156552
 42
-0.031190
  0
VERTEX
  8
0
 10
74.603395
 20
132.593217
 42
-0.020120
  0
VERTEX
  8
0
 10
73.589624
 20
130.417365
 42
-0.117093
  0
VERTEX
  8
0
 10
72.771483
 20
129.464307
 42
-0.152716
  0
VERTEX
  8
0
 10
71.721374
 20
129.110231
 42
-0.041986
  0
VERTEX
  8
0
 10
69.959367
 20
129.219271
 42
0.062047
  0
VERTEX
  8
0
 10
67.636792
 20
129.269898
 42
0.224438
  0
VERTEX
  8
0
 10
66.404178
 20
128.524821
 42
0.138532
  0
VERTEX
  8
0
 10
65.848455
 20
126.791307
 42
0.020130
  0
VERTEX
  8
0
 10
65.868443
 20
123.049988
 42
-0.024210
  0
VERTEX
  8
0
 10
65.861888
 20
120.719751
 42
-0.054102
  0
VERTEX
  8
0
 10
65.581196
 20
118.972900
 42
-0.065743
  0
VERTEX
  8
0
 10
64.980710
 20
117.547525
 42
-0.055058
  0
VERTEX
  8
0
 10
63.999969
 20
116.230342
 42
-0.021222
  0
VERTEX
  8
0
 10
63.133962
 20
115.376483
 42
-0.025696
  0
VERTEX
  8
0
 10
62.250160
 20
114.655163
 42
-0.025682
  0
VERTEX
  8
0
 10
61.460161
 20
114.135566
 42
-0.133390
  0
VERTEX
  8
0
 10
60.961045
 20
114.000000
 42
0.223102
  0
VERTEX
  8
0
 10
60.593149
 20
113.827244
 42
0.076368
  0
VERTEX
  8
0
 10
60.282307
 20
113.309066
 42
0.058082
  0
VERTEX
  8
0
 10
60.070314
 20
112.548563
 42
0.038974
  0
VERTEX
  8
0
 10
60.000000
 20
111.647883
 42
-0.073881
  0
VERTEX
  8
0
 10
59.830928
 20
110.509919
 42
-0.027575
  0
VERTEX
  8
0
 10
59.275376
 20
108.988573
 42
-0.026600
  0
VERTEX
  8
0
 10
58.477341
 20
107.371544
 42
-0.029087
  0
VERTEX
  8
0
 10
57.533196
 20
105.897883
 42
-0.000224
  0
VERTEX
  8
0
 10
56.467408
 20
104.431201
 42
-0.000173
  0
VERTEX
  8
0
 10
55.304079
 20
102.832952
 42
-0.000175
  0
VERTEX
  8
0
 10
54.216400
 20
101.340816
 42
-0.000419
  0
VERTEX
  8
0
 10
53.408733
 20
100.235572
 42
0.057230
  0
VERTEX
  8
0
 10
52.736328
 20
99.054558
 42
0.023279
  0
VERTEX
  8
0
 10
52.089494
 20
97.318683
 42
0.022667
  0
VERTEX
  8
0
 10
51.560775
 20
95.369002
 42
0.026818
  0
VERTEX
  8
0
 10
51.245484
 20
93.485572
 42
-0.016401
  0
VERTEX
  8
0
 10
50.994366
 20
91.766346
 42
-0.026008
  0
VERTEX
  8
0
 10
50.655403
 20
90.317637
 42
-0.023733
  0
VERTEX
  8
0
 10
50.283311
 20
89.228837
 42
-0.307704
  0
VERTEX
  8
0
 10
49.946673
 20
89.000000
 42
0.171926
  0
VERTEX
  8
0
 10
48.403211
 20
88.453113
 42
0.024539
  0
VERTEX
  8
0
 10
45.862574
 20
86.178929
 42
0.024269
  0
VERTEX
  8
0
 10
43.556677
 20
83.669142
 42
0.178857
  0
VERTEX
  8
0
 10
43.022236
 20
82.161106
 42
0.079895
  0
VERTEX
  8
0
 10
43.163525
 20
81.351796
 42
0.027858
  0
VERTEX
  8
0
 10
43.612376
 20
80.253575
 42
0.026834
  0
VERTEX
  8
0
 10
44.249926
 20
79.079154
 42
0.028207
  0
VERTEX
  8
0
 10
45.000000
 20
78.000000
 42
-0.022627
  0
VERTEX
  8
0
 10
46.879726
 20
75.358924
 42
-0.416087
  0
VERTEX
  8
0
 10
46.680597
 20
74.448310
 42
-0.223664
  0
VERTEX
  8
0
 10
45.411629
 20
74.286497
 42
-0.011357
  0
VERTEX
  8
0
 10
41.378939
 20
75.694738
 42
0.234498
  0
VERTEX
  8
0
 10
39.806882
 20
75.533844
 42
0.116035
  0
VERTEX
  8
0
 10
38.364681
 20
74.067497
 42
0.080726
  0
VERTEX
  8
0
 10
37.343819
 20
71.547915
 42
0.056022
  0
VERTEX
  8
0
 10
37.000000
 20
68.488937
 42
-0.014444
  0
VERTEX
  8
0
 10
36.919069
 20
65.687895
 42
-0.155716
  0
VERTEX
  8
0
 10
36.517618
 20
64.642711
 42
-0.183507
  0
VERTEX
  8
0
 10
35.611531
 20
64.109201
 42
-0.021653
  0
VERTEX
  8
0
 10
33.250000
 20
63.810365
 42
0.000000
  0
VERTEX
  8
0
 10
29.500000
 20
63.500000
 42
0.000000
  0
VERTEX
  8
0
 10
29.500000
 20
58.500000
 42
-0.023145
  0
VERTEX
  8
0
 10
29.327862
 20
54.783289
 42
-0.088959
  0
VERTEX
  8
0
 10
28.713088
 20
52.562066
 42
-0.124120
  0
VERTEX
  8
0
 10
27.489899
 20
51.093351
 42
-0.066613
  0
VERTEX
  8
0
 10
25.402861
 20
49.963068
 42
0.059810
  0
VERTEX
  8
0
 10
24.256064
 20
49.361948
 42
0.105562
  0
VERTEX
  8
0
 10
23.524107
 20
48.589014
 42
0.095231
  0
VERTEX
  8
0
 10
23.126430
 20
47.525861
 42
0.042038
  0
VERTEX
  8
0
 10
23.000000
 20
46.024751
 42
-0.034838
  0
VERTEX
  8
0
 10
22.912278
 20
44.767273
 42
-0.069893
  0
VERTEX
  8
0
 10
22.638833
 20
43.812216
 42
-0.103314
  0
VERTEX
  8
0
 10
22.208484
 20
43.214869
 42
-0.187293
  0
VERTEX
  8
0
 10
21.654988
 20
43.000000
 42
0.157044
  0
VERTEX
  8
0
 10
19.741765
 20
42.383887
 42
0.116905
  0
VERTEX
  8
0
 10
18.277976
 20
40.697857
 42
0.093480
  0
VERTEX
  8
0
 10
17.508554
 20
38.172889
 42
0.067083
  0
VERTEX
  8
0
 10
17.581276
 20
35.217093
 42
-0.026703
  0
VERTEX
  8
0
 10
17.794652
 20
33.195728
 42
-0.050716
  0
VERTEX
  8
0
 10
17.713670
 20
31.563270
 42
-0.059530
  0
VERTEX
  8
0
 10
17.326636
 20
30.163895
 42
-0.055623
  0
VERTEX
  8
0
 10
16.614592
 20
28.860141
 42
-0.018981
  0
VERTEX
  8
0
 10
15.992047
 20
28.039469
 42
-0.049775
  0
VERTEX
  8
0
 10
15.469338
 20
27.517800
 42
-0.148678
  0
VERTEX
  8
0
 10
15.143645
 20
27.384021
 42
-0.437018
  0
VERTEX
  8
0
 10
14.983153
 20
27.527494
 42
0.584859
  0
VERTEX
  8
0
 10
14.802968
 20
27.624775
 42
0.066471
  0
VERTEX
  8
0
 10
14.352916
 20
27.248676
 42
0.030180
  0
VERTEX
  8
0
 10
13.671790
 20
26.409116
 42
0.012924
  0
VERTEX
  8
0
 10
12.861322
 20
25.212679
 42
-0.057668
  0
VERTEX
  8
0
 10
10.809583
 20
22.700021
 42
-0.057208
  0
VERTEX
  8
0
 10
8.233095
 20
20.714643
 42
-0.059710
  0
VERTEX
  8
0
 10
5.389302
 20
19.434535
 42
-0.076070
  0
VERTEX
  8
0
 10
2.549660
 20
19.000000
 42
0.055944
  0
VERTEX
  8
0
 10
0.715923
 20
18.794184
 42
0.343343
  0
VERTEX
  8
0
 10
0.152518
 20
18.105662
 42
0.152682
  0
VERTEX
  8
0
 10
0.513210
 20
16.845149
 42
0.013478
  0
VERTEX
  8
0
 10
2.430310
 20
14.094459
 42
-0.043081
  0
VERTEX
  8
0
 10
3.875295
 20
11.735102
 42
-0.134967
  0
VERTEX
  8
0
 10
4.232582
 20
9.927091
 42
-0.097832
  0
VERTEX
  8
0
 10
3.663120
 20
7.855421
 42
-0.016768
  0
VERTEX
  8
0
 10
1.708275
 20
4.250000
 42
0.006581
  0
VERTEX
  8
0
 10
0.543529
 20
2.202475
 42
0.116691
  0
VERTEX
  8
0
 10
0.340864
 20
1.475038
 42
0.359800
  0
VERTEX
  8
0
 10
0.618862
 20
1.110394
 42
0.057227
  0
VERTEX
  8
0
 10
1.580226
 20
1.000000
 42
0.044036
  0
VERTEX
  8
0
 10
2.487386
 20
1.080051
 42
0.013965
  0
VERTEX
  8
0
 10
3.818618
 20
1.355398
 42
0.013822
  0
VERTEX
  8
0
 10
5.292440
 20
1.746726
 42
0.014952
  0
VERTEX
  8
0
 10
6.703830
 20
2.209866
 42
-0.029625
  0
VERTEX
  8
0
 10
8.528945
 20
2.750022
 42
-0.058944
  0
VERTEX
  8
0
 10
10.025026
 20
2.916409
 42
-0.059804
  0
VERTEX
  8
0
 10
11.504509
 20
2.728312
 42
-0.031358
  0
VERTEX
  8
0
 10
13.274828
 20
2.163922
 42
0.006914
  0
VERTEX
  8
0
 10
16.466469
 20
0.971722
 42
0.114517
  0
VERTEX
  8
0
 10
17.586364
 20
0.841658
 42
0.295152
  0
VERTEX
  8
0
 10
18.171810
 20
1.321341
 42
0.055055
  0
VERTEX
  8
0
 10
18.461857
 20
2.749512
 42
-0.050764
  0
VERTEX
  8
0
 10
18.858569
 20
4.792387
 42
-0.212716
  0
VERTEX
  8
0
 10
19.657296
 20
5.717091
 42
-0.179073
  0
VERTEX
  8
0
 10
20.985039
 20
5.829941
 42
-0.034910
  0
VERTEX
  8
0
 10
23.288165
 20
5.016814
 42
0.044416
  0
VERTEX
  8
0
 10
24.933222
 20
4.470910
 42
0.016625
  0
VERTEX
  8
0
 10
27.319024
 20
3.991281
 42
0.016318
  0
VERTEX
  8
0
 10
29.967298
 20
3.638285
 42
0.019039
  0
VERTEX
  8
0
 10
32.500000
 20
3.481552
 42
-0.016154
  0
VERTEX
  8
0
 10
35.003620
 20
3.341114
 42
-0.014853
  0
VERTEX
  8
0
 10
37.564436
 20
3.037412
 42
-0.015043
  0
VERTEX
  8
0
 10
39.830855
 20
2.630067
 42
-0.046496
  0
VERTEX
  8
0
 10
41.315100
 20
2.169570
 42
0.070629
  0
VERTEX
  8
0
 10
44.565596
 20
1.330086
 42
0.024946
  0
VERTEX
  8
0
 10
49.378216
 20
1.032119
 42
0.018091
  0
VERTEX
  8
0
 10
54.071163
 20
1.145820
 42
0.243875
  0
VERTEX
  8
0
 10
55.500000
 20
2.000000
 42
-0.223485
  0
VERTEX
  8
0
 10
56.783515
 20
2.836302
 42
-0.047160
  0
VERTEX
  8
0
 10
59.527622
 20
2.955706
 42
-0.047903
  0
VERTEX
  8
0
 10
62.479422
 20
2.520157
 42
-0.092458
  0
VERTEX
  8
0
 10
64.646132
 20
1.535305
 42
0.051350
  0
VERTEX
  8
0
 10
66.178165
 20
0.681558
 42
0.219961
  0
VERTEX
  8
0
 10
67.196919
 20
0.709307
 42
0.227053
  0
VERTEX
  8
0
 10
67.814464
 20
1.498460
 42
0.054421
  0
VERTEX
  8
0
 10
68.000000
 20
3.198051
 42
-0.146793
  0
VERTEX
  8
0
 10
68.466905
 20
4.754137
 42
-0.201269
  0
VERTEX
  8
0
 10
69.667303
 20
5.558842
 42
-0.113310
  0
VERTEX
  8
0
 10
71.707874
 20
5.492850
 42
-0.035128
  0
VERTEX
  8
0
 10
74.633267
 20
4.496669
 42
0.032584
  0
VERTEX
  8
0
 10
76.602797
 20
3.814799
 42
0.035933
  0
VERTEX
  8
0
 10
78.581124
 20
3.421361
 42
0.035809
  0
VERTEX
  8
0
 10
80.601515
 20
3.314405
 42
0.031935
  0
VERTEX
  8
0
 10
82.696644
 20
3.487747
 42
-0.028935
  0
VERTEX
  8
0
 10
84.753320
 20
3.670325
 42
-0.039958
  0
VERTEX
  8
0
 10
86.603680
 20
3.579238
 42
-0.043119
  0
VERTEX
  8
0
 10
88.300622
 20
3.208232
 42
-0.043983
  0
VERTEX
  8
0
 10
89.896984
 20
2.553272
 42
0.076531
  0
VERTEX
  8
0
 10
93.105214
 20
1.474107
 42
0.037517
  0
VERTEX
  8
0
 10
97.406974
 20
1.056736
 42
0.036973
  0
VERTEX
  8
0
 10
101.892032
 20
1.291026
 42
0.055274
  0
VERTEX
  8
0
 10
105.703830
 20
2.209866
 42
-0.029625
  0
VERTEX
  8
0
 10
107.528945
 20
2.750022
 42
-0.058944
  0
VERTEX
  8
0
 10
109.025026
 20
2.916409
 42
-0.059804
  0
VERTEX
  8
0
 10
110.504509
 20
2.728312
 42
-0.031358
  0
VERTEX
  8
0
 10
112.274828
 20
2.163922
 42
0.006914
  0
VERTEX
  8
0
 10
115.466469
 20
0.971722
 42
0.114517
  0
VERTEX
  8
0
 10
116.586364
 20
0.841658
 42
0.295152
  0
VERTEX
  8
0
 10
117.171810
 20
1.321341
 42
0.055055
  0
VERTEX
  8
0
 10
117.461857
 20
2.749512
 42
-0.050764
  0
VERTEX
  8
0
 10
117.858569
 20
4.792387
 42
-0.212716
  0
VERTEX
  8
0
 10
118.657296
 20
5.717091
 42
-0.179073
  0
VERTEX
  8
0
 10
119.985039
 20
5.829941
 42
-0.034910
  0
VERTEX
  8
0
 10
122.288165
 20
5.016814
 42
0.044416
  0
VERTEX
  8
0
 10
123.933222
 20
4.470910
 42
0.016625
  0
VERTEX
  8
0
 10
126.319024
 20
3.991281
 42
0.016318
  0
VERTEX
  8
0
 10
128.967298
 20
3.638285
 42
0.019039
  0
VERTEX
  8
0
 10
131.500000
 20
3.481552
 42
-0.016154
  0
VERTEX
  8
0
 10
134.003620
 20
3.341114
 42
-0.014853
  0
VERTEX
  8
0
 10
136.564436
 20
3.037412
 42
-0.015043
  0
VERTEX
  8
0
 10
138.830855
 20
2.630067
 42
-0.046496
  0
VERTEX
  8
0
 10
140.315100
 20
2.169570
 42
0.070629
  0
VERTEX
  8
0
 10
143.565596
 20
1.330086
 42
0.024946
  0
VERTEX
  8
0
 10
148.378216
 20
1.032119
 42
0.018091
  0
VERTEX
  8
0
 10
153.071163
 20
1.145820
 42
0.243875
  0
VERTEX
  8
0
 10
154.500000
 20
2.000000
 42
-0.223485
  0
VERTEX
  8
0
 10
155.783515
 20
2.836302
 42
-0.047160
  0
VERTEX
  8
0
 10
158.527622
 20
2.955706
 42
-0.047903
  0
VERTEX
  8
0
 10
161.479422
 20
2.520157
 42
-0.092458
  0
VERTEX
  8
0
 10
163.646132
 20
1.535305
 42
0.051350
  0
VERTEX
  8
0
 10
165.178165
 20
0.681558
 42
0.219961
  0
VERTEX
  8
0
 10
166.196919
 20
0.709307
 42
0.227053
  0
VERTEX
  8
0
 10
166.814464
 20
1.498460
 42
0.054421
  0
VERTEX
  8
0
 10
167.000000
 20
3.198051
 42
-0.146793
  0
VERTEX
  8
0
 10
167.466905
 20
4.754137
 42
-0.201269
  0
VERTEX
  8
0
 10
168.667303
 20
5.558842
 42
-0.113310
  0
VERTEX
  8
0
 10
170.707874
 20
5.492850
 42
-0.035128
  0
VERTEX
  8
0
 10
173.633267
 20
4.496669
 42
0.032584
  0
VERTEX
  8
0
 10
175.602797
 20
3.814799
 42
0.035933
  0
VERTEX
  8
0
 10
177.581124
 20
3.421361
 42
0.035809
  0
VERTEX
  8
0
 10
179.601515
 20
3.314405
 42
0.031935
  0
VERTEX
  8
0
 10
181.696644
 20
3.487747
 42
-0.028935
  0
VERTEX
  8
0
 10
183.753320
 20
3.670325
 42
-0.039958
  0
VERTEX
  8
0
 10
185.603680
 20
3.579238
 42
-0.043119
  0
VERTEX
  8
0
 10
187.300622
 20
3.208232
 42
-0.043983
  0
VERTEX
  8
0
 10
188.896984
 20
2.553272
 42
0.076531
  0
VERTEX
  8
0
 10
192.105214
 20
1.474107
 42
0.037517
  0
VERTEX
  8
0
 10
196.406974
 20
1.056736
 42
0.036973
  0
VERTEX
  8
0
 10
200.892032
 20
1.291026
 42
0.055274
  0
VERTEX
  8
0
 10
204.703830
 20
2.209866
 42
-0.029625
  0
VERTEX
  8
0
 10
206.528945
 20
2.750022
 42
-0.058944
  0
VERTEX
  8
0
 10
208.025026
 20
2.916409
 42
-0.059804
  0
VERTEX
  8
0
 10
209.504509
 20
2.728312
 42
-0.031358
  0
VERTEX
  8
0
 10
211.274828
 20
2.163922
 42
0.006914
  0
VERTEX
  8
0
 10
214.466469
 20
0.971722
 42
0.114517
  0
VERTEX
  8
0
 10
215.586364
 20
0.841658
 42
0.295152
  0
VERTEX
  8
0
 10
216.171810
 20
1.321341
 42
0.055055
  0
VERTEX
  8
0
 10
216.461857
 20
2.749512
 42
-0.050764
  0
VERTEX
  8
0
 10
216.858569
 20
4.792387
 42
-0.212716
  0
VERTEX
  8
0
 10
217.657296
 20
5.717091
 42
-0.179073
  0
VERTEX
  8
0
 10
218.985039
 20
5.829941
 42
-0.034910
  0
VERTEX
  8
0
 10
221.288165
 20
5.016814
 42
0.044416
  0
VERTEX
  8
0
 10
222.933222
 20
4.470910
 42
0.016625
  0
VERTEX
  8
0
 10
225.319024
 20
3.991281
 42
0.016318
  0
VERTEX
  8
0
 10
227.967298
 20
3.638285
 42
0.019039
  0
VERTEX
  8
0
 10
230.500000
 20
3.481552
 42
-0.016154
  0
VERTEX
  8
0
 10
233.003620
 20
3.341114
 42
-0.014853
  0
VERTEX
  8
0
 10
235.564436
 20
3.037412
 42
-0.015043
  0
VERTEX
  8
0
 10
237.830855
 20
2.630067
 42
-0.046496
  0
VERTEX
  8
0
 10
239.315100
 20
2.169570
 42
0.070629
  0
VERTEX
  8
0
 10
242.565596
 20
1.330086
 42
0.024946
  0
VERTEX
  8
0
 10
247.378216
 20
1.032119
 42
0.018091
  0
VERTEX
  8
0
 10
252.071163
 20
1.145820
 42
0.243875
  0
VERTEX
  8
0
 10
253.500000
 20
2.000000
 42
-0.223485
  0
VERTEX
  8
0
 10
254.783515
 20
2.836302
 42
-0.047160
  0
VERTEX
  8
0
 10
257.527622
 20
2.955706
 42
-0.047903
  0
VERTEX
  8
0
 10
260.479422
 20
2.520157
 42
-0.092458
  0
VERTEX
  8
0
 10
262.646132
 20
1.535305
 42
0.051350
  0
VERTEX
  8
0
 10
264.178165
 20
0.681558
 42
0.219961
  0
VERTEX
  8
0
 10
265.196919
 20
0.709307
 42
0.227053
  0
VERTEX
  8
0
 10
265.814464
 20
1.498460
 42
0.054421
  0
VERTEX
  8
0
 10
266.000000
 20
3.198051
 42
-0.146793
  0
VERTEX
  8
0
 10
266.466905
 20
4.754137
 42
-0.201269
  0
VERTEX
  8
0
 10
267.667303
 20
5.558842
 42
-0.113310
  0
VERTEX
  8
0
 10
269.707874
 20
5.492850
 42
-0.035128
  0
VERTEX
  8
0
 10
272.633267
 20
4.496669
 42
0.032584
  0
VERTEX
  8
0
 10
274.602797
 20
3.814799
 42
0.035933
  0
VERTEX
  8
0
 10
276.581124
 20
3.421361
 42
0.035809
  0
VERTEX
  8
0
 10
278.601515
 20
3.314405
 42
0.031935
  0
VERTEX
  8
0
 10
280.696644
 20
3.487747
 42
-0.028935
  0
VERTEX
  8
0
 10
282.753320
 20
3.670325
 42
-0.039958
  0
VERTEX
  8
0
 10
284.603680
 20
3.579238
 42
-0.043119
  0
VERTEX
  8
0
 10
286.300622
 20
3.208232
 42
-0.043983
  0
VERTEX
  8
0
 10
287.896984
 20
2.553272
 42
0.076531
  0
VERTEX
  8
0
 10
291.105214
 20
1.474107
 42
0.037517
  0
VERTEX
  8
0
 10
295.406974
 20
1.056736
 42
0.036973
  0
VERTEX
  8
0
 10
299.892032
 20
1.291026
 42
0.055274
  0
VERTEX
  8
0
 10
303.703830
 20
2.209866
 42
-0.029625
  0
VERTEX
  8
0
 10
305.528945
 20
2.750022
 42
-0.058944
  0
VERTEX
  8
0
 10
307.025026
 20
2.916409
 42
-0.059804
  0
VERTEX
  8
0
 10
308.504509
 20
2.728312
 42
-0.031358
  0
VERTEX
  8
0
 10
310.274828
 20
2.163922
 42
0.006914
  0
VERTEX
  8
0
 10
313.466469
 20
0.971722
 42
0.114517
  0
VERTEX
  8
0
 10
314.586364
 20
0.841658
 42
0.295152
  0
VERTEX
  8
0
 10
315.171810
 20
1.321341
 42
0.055055
  0
VERTEX
  8
0
 10
315.461857
 20
2.749512
 42
-0.050764
  0
VERTEX
  8
0
 10
315.858569
 20
4.792387
 42
-0.212716
  0
VERTEX
  8
0
 10
316.657296
 20
5.717091
 42
-0.179073
  0
VERTEX
  8
0
 10
317.985039
 20
5.829941
 42
-0.034910
  0
VERTEX
  8
0
 10
320.288165
 20
5.016814
 42
0.044416
  0
VERTEX
  8
0
 10
321.933222
 20
4.470910
 42
0.016625
  0
VERTEX
  8
0
 10
324.319024
 20
3.991281
 42
0.016318
  0
VERTEX
  8
0
 10
326.967298
 20
3.638285
 42
0.019039
  0
VERTEX
  8
0
 10
329.500000
 20
3.481552
 42
-0.016154
  0
VERTEX
  8
0
 10
332.003620
 20
3.341114
 42
-0.014853
  0
VERTEX
  8
0
 10
334.564436
 20
3.037412
 42
-0.015043
  0
VERTEX
  8
0
 10
336.830855
 20
2.630067
 42
-0.046496
  0
VERTEX
  8
0
 10
338.315100
 20
2.169570
 42
0.070629
  0
VERTEX
  8
0
 10
341.565596
 20
1.330086
 42
0.024946
  0
VERTEX
  8
0
 10
346.378216
 20
1.032119
 42
0.018091
  0
VERTEX
  8
0
 10
351.071163
 20
1.145820
 42
0.243875
  0
VERTEX
  8
0
 10
352.500000
 20
2.000000
 42
-0.223485
  0
VERTEX
  8
0
 10
353.783515
 20
2.836302
 42
-0.047160
  0
VERTEX
  8
0
 10
356.527622
 20
2.955706
 42
-0.047903
  0
VERTEX
  8
0
 10
359.479422
 20
2.520157
 42
-0.092458
  0
VERTEX
  8
0
 10
361.646132
 20
1.535305
 42
0.051350
  0
VERTEX
  8
0
 10
363.178165
 20
0.681558
 42
0.219961
  0
VERTEX
  8
0
 10
364.196919
 20
0.709307
 42
0.227053
  0
VERTEX
  8
0
 10
364.814464
 20
1.498460
 42
0.054421
  0
VERTEX
  8
0
 10
365.000000
 20
3.198051
 42
-0.146793
  0
VERTEX
  8
0
 10
365.466905
 20
4.754137
 42
-0.201269
  0
VERTEX
  8
0
 10
366.667303
 20
5.558842
 42
-0.113310
  0
VERTEX
  8
0
 10
368.707874
 20
5.492850
 42
-0.035128
  0
VERTEX
  8
0
 10
371.633267
 20
4.496669
 42
0.032584
  0
VERTEX
  8
0
 10
373.602797
 20
3.814799
 42
0.035933
  0
VERTEX
  8
0
 10
375.581124
 20
3.421361
 42
0.035809
  0
VERTEX
  8
0
 10
377.601515
 20
3.314405
 42
0.031935
  0
VERTEX
  8
0
 10
379.696644
 20
3.487747
 42
-0.028935
  0
VERTEX
  8
0
 10
381.753320
 20
3.670325
 42
-0.039958
  0
VERTEX
  8
0
 10
383.603680
 20
3.579238
 42
-0.043119
  0
VERTEX
  8
0
 10
385.300622
 20
3.208232
 42
-0.043983
  0
VERTEX
  8
0
 10
386.896984
 20
2.553272
 42
0.076531
  0
VERTEX
  8
0
 10
390.105214
 20
1.474107
 42
0.037517
  0
VERTEX
  8
0
 10
394.406974
 20
1.056736
 42
0.036973
  0
VERTEX
  8
0
 10
398.892032
 20
1.291026
 42
0.055274
  0
VERTEX
  8
0
 10
402.703830
 20
2.209866
 42
-0.029625
  0
VERTEX
  8
0
 10
404.528945
 20
2.750022
 42
-0.058944
  0
VERTEX
  8
0
 10
406.025026
 20
2.916409
 42
-0.059804
  0
VERTEX
  8
0
 10
407.504509
 20
2.728312
 42
-0.031358
  0
VERTEX
  8
0
 10
409.274828
 20
2.163922
 42
0.006914
  0
VERTEX
  8
0
 10
412.466469
 20
0.971722
 42
0.114517
  0
VERTEX
  8
0
 10
413.586364
 20
0.841658
 42
0.295152
  0
VERTEX
  8
0
 10
414.171810
 20
1.321341
 42
0.055055
  0
VERTEX
  8
0
 10
414.461857
 20
2.749512
 42
-0.050770
  0
VERTEX
  8
0
 10
414.858244
 20
4.790565
 42
-0.211801
  0
VERTEX
  8
0
 10
415.656229
 20
5.717639
 42
-0.178524
  0
VERTEX
  8
0
 10
416.984080
 20
5.836574
 42
-0.034965
  0
VERTEX
  8
0
 10
419.288165
 20
5.037327
 42
0.049014
  0
VERTEX
  8
0
 10
420.997838
 20
4.497490
 42
0.015267
  0
VERTEX
  8
0
 10
423.650545
 20
4.021992
 42
0.015099
  0
VERTEX
  8
0
 10
426.663788
 20
3.668926
 42
0.016107
  0
VERTEX
  8
0
 10
429.628583
 20
3.507979
 42
0.000000
  0
VERTEX
  8
0
 10
436.757167
 20
3.350968
 42
0.000000
  0
VERTEX
  8
0
 10
434.866335
 20
6.425484
 42
-0.024291
  0
VERTEX
  8
0
 10
434.064971
 20
7.882642
 42
-0.013251
  0
VERTEX
  8
0
 10
433.218298
 20
9.739880
 42
-0.013178
  0
VERTEX
  8
0
 10
432.455927
 20
11.677378
 42
-0.020386
  0
VERTEX
  8
0
 10
431.911206
 20
13.391129
 42
0.041844
  0
VERTEX
  8
0
 10
430.649273
 20
16.841474
 42
0.023514
  0
VERTEX
  8
0
 10
428.582200
 20
20.799508
 42
0.015871
  0
VERTEX
  8
0
 10
426.356077
 20
24.349876
 42
0.249760
  0
VERTEX
  8
0
 10
425.135769
 20
25.000000
 42
-0.216866
  0
VERTEX
  8
0
 10
422.194844
 20
26.338529
 42
-0.022669
  0
VERTEX
  8
0
 10
417.364057
 20
32.420681
 42
-0.025990
  0
VERTEX
  8
0
 10
413.117019
 20
38.989672
 42
-0.131236
  0
VERTEX
  8
0
 10
412.000000
 20
43.172131
 42
0.126483
  0
VERTEX
  8
0
 10
411.085891
 20
46.727889
 42
0.023222
  0
VERTEX
  8
0
 10
407.514304
 20
52.557285
 42
0.025586
  0
VERTEX
  8
0
 10
402.944078
 20
58.603046
 42
0.035023
  0
VERTEX
  8
0
 10
398.203266
 20
63.507155
 42
-0.013836
  0
VERTEX
  8
0
 10
396.206391
 20
65.405013
 42
-0.016145
  0
VERTEX
  8
0
 10
394.421239
 20
67.317950
 42
-0.015232
  0
VERTEX
  8
0
 10
393.023780
 20
69.017688
 42
-0.087804
  0
VERTEX
  8
0
 10
392.485752
 20
70.044892
 42
0.181079
  0
VERTEX
  8
0
 10
391.413677
 20
71.410371
 42
0.130230
  0
VERTEX
  8
0
 10
389.537398
 20
71.966012
 42
0.107487
  0
VERTEX
  8
0
 10
387.327129
 20
71.551827
 42
0.096801
  0
VERTEX
  8
0
 10
385.392857
 20
70.250000
 42
-0.025237
  0
VERTEX
  8
0
 10
384.680890
 20
69.606491
 42
-0.036924
  0
VERTEX
  8
0
 10
383.989063
 20
69.122281
 42
-0.041012
  0
VERTEX
  8
0
 10
383.402190
 20
68.835257
 42
-0.240887
  0
VERTEX
  8
0
 10
383.071429
 20
68.868403
 42
-0.006466
  0
VERTEX
  8
0
 10
382.738257
 20
69.089351
 42
-0.001015
  0
VERTEX
  8
0
 10
382.088433
 20
69.534432
 42
-0.001128
  0
VERTEX
  8
0
 10
381.324584
 20
70.062434
 42
-0.000984
  0
VERTEX
  8
0
 10
380.527494
 20
70.618403
 42
0.073276
  0
VERTEX
  8
0
 10
378.587211
 20
71.591153
 42
0.083320
  0
VERTEX
  8
0
 10
376.533629
 20
71.906094
 42
0.083764
  0
VERTEX
  8
0
 10
374.498577
 20
71.533214
 42
0.075054
  0
VERTEX
  8
0
 10
372.611860
 20
70.506943
 42
-0.049055
  0
VERTEX
  8
0
 10
371.666179
 20
69.927171
 42
-0.078591
  0
VERTEX
  8
0
 10
370.762225
 20
69.652406
 42
-0.086116
  0
VERTEX
  8
0
 10
369.878403
 20
69.682099
 42
-0.071623
  0
VERTEX
  8
0
 10
368.993343
 20
70.003563
 42
0.040861
  0
VERTEX
  8
0
 10
368.284580
 20
70.311377
 42
0.051033
  0
VERTEX
  8
0
 10
367.585766
 20
70.472101
 42
0.059889
  0
VERTEX
  8
0
 10
366.996748
 20
70.474723
 42
0.169140
  0
VERTEX
  8
0
 10
366.631483
 20
70.298150
 42
-0.131899
  0
VERTEX
  8
0
 10
366.392101
 20
70.160097
 42
-0.259559
  0
VERTEX
  8
0
 10
366.185498
 20
70.212209
 42
-0.153935
  0
VERTEX
  8
0
 10
366.043915
 20
70.465128
 42
-0.051261
  0
VERTEX
  8
0
 10
366.000000
 20
70.892350
 42
0.069616
  0
VERTEX
  8
0
 10
365.939592
 20
71.324112
 42
0.144254
  0
VERTEX
  8
0
 10
365.759104
 20
71.609107
 42
0.190018
  0
VERTEX
  8
0
 10
365.491500
 20
71.705023
 42
0.131291
  0
VERTEX
  8
0
 10
365.179927
 20
71.611201
 42
-0.057535
  0
VERTEX
  8
0
 10
364.697104
 20
71.384704
 42
-0.012054
  0
VERTEX
  8
0
 10
363.803433
 20
71.108669
 42
-0.012492
  0
VERTEX
  8
0
 10
362.744862
 20
70.837815
 42
-0.011532
  0
VERTEX
  8
0
 10
361.645580
 20
70.612177
 42
0.053550
  0
VERTEX
  8
0
 10
360.387088
 20
70.241579
 42
0.023930
  0
VERTEX
  8
0
 10
358.823945
 20
69.503329
 42
0.023360
  0
VERTEX
  8
0
 10
357.229692
 20
68.556782
 42
0.029259
  0
VERTEX
  8
0
 10
355.851548
 20
67.528540
 42
0.000000
  0
VERTEX
  8
0
 10
352.771791
 20
64.937095
 42
0.000000
  0
VERTEX
  8
0
 10
349.135895
 20
67.120698
 42
0.002515
  0
VERTEX
  8
0
 10
342.684548
 20
70.951160
 42
0.059831
  0
VERTEX
  8
0
 10
340.753070
 20
71.793534
 42
0.149672
  0
VERTEX
  8
0
 10
339.203968
 20
71.785170
 42
0.035623
  0
VERTEX
  8
0
 10
336.775319
 20
70.832682
 42
-0.021339
  0
VERTEX
  8
0
 10
334.849396
 20
70.013191
 42
-0.078998
  0
VERTEX
  8
0
 10
333.559645
 20
69.749115
 42
-0.096515
  0
VERTEX
  8
0
 10
332.391448
 20
69.923453
 42
-0.041321
  0
VERTEX
  8
0
 10
330.946272
 20
70.574339
 42
0.052488
  0
VERTEX
  8
0
 10
328.582626
 20
71.576154
 42
0.075608
  0
VERTEX
  8
0
 10
326.338449
 20
71.904049
 42
0.091433
  0
VERTEX
  8
0
 10
324.428224
 20
71.540229
 42
0.127562
  0
VERTEX
  8
0
 10
323.023257
 20
70.528023
 42
-0.071404
  0
VERTEX
  8
0
 10
322.241883
 20
69.820971
 42
-0.139314
  0
VERTEX
  8
0
 10
321.449636
 20
69.561859
 42
-0.089370
  0
VERTEX
  8
0
 10
320.402121
 20
69.708427
 42
-0.018529
  0
VERTEX
  8
0
 10
318.650812
 20
70.356324
 42
0.081093
  0
VERTEX
  8
0
 10
315.598635
 20
71.069543
 42
0.075384
  0
VERTEX
  8
0
 10
312.396387
 20
70.803918
 42
0.072390
  0
VERTEX
  8
0
 10
309.305098
 20
69.577196
 42
0.065870
  0
VERTEX
  8
0
 10
306.579463
 20
67.488554
 42
-0.065636
  0
VERTEX
  8
0
 10
304.636129
 20
65.997948
 42
-0.176122
  0
VERTEX
  8
0
 10
302.945145
 20
65.699730
 42
-0.083396
  0
VERTEX
  8
0
 10
300.681313
 20
66.501837
 42
-0.008125
  0
VERTEX
  8
0
 10
295.632282
 20
69.414009
 42
0.009600
  0
VERTEX
  8
0
 10
292.458620
 20
71.232053
 42
0.090053
  0
VERTEX
  8
0
 10
290.971860
 20
71.727060
 42
0.131180
  0
VERTEX
  8
0
 10
289.633276
 20
71.566889
 42
0.028517
  0
VERTEX
  8
0
 10
287.507125
 20
70.573770
 42
-0.020531
  0
VERTEX
  8
0
 10
285.484994
 20
69.589623
 42
-0.100705
  0
VERTEX
  8
0
 10
284.249159
 20
69.324726
 42
-0.101341
  0
VERTEX
  8
0
 10
283.011862
 20
69.564704
 42
-0.020924
  0
VERTEX
  8
0
 10
280.988665
 20
70.505861
 42
0.023158
  0
VERTEX
  8
0
 10
279.177100
 20
71.338749
 42
0.076694
  0
VERTEX
  8
0
 10
277.903270
 20
71.639085
 42
0.094924
  0
VERTEX
  8
0
 10
276.751573
 20
71.510922
 42
0.047859
  0
VERTEX
  8
0
 10
275.397953
 20
70.945386
 42
0.034663
  0
VERTEX
  8
0
 10
274.542349
 20
70.408137
 42
0.054478
  0
VERTEX
  8
0
 10
273.901328
 20
69.824187
 42
0.073242
  0
VERTEX
  8
0
 10
273.549661
 20
69.283764
 42
0.251148
  0
VERTEX
  8
0
 10
273.574544
 20
68.879386
 42
-0.571180
  0
VERTEX
  8
0
 10
273.465964
 20
68.673016
 42
-0.054150
  0
VERTEX
  8
0
 10
272.757258
 20
68.715347
 42
-0.029462
  0
VERTEX
  8
0
 10
271.582755
 20
68.986338
 42
-0.013380
  0
VERTEX
  8
0
 10
270.081342
 20
69.471301
 42
0.048739
  0
VERTEX
  8
0
 10
266.573570
 20
70.336350
 42
0.076881
  0
VERTEX
  8
0
 10
263.479753
 20
70.308271
 42
0.079260
  0
VERTEX
  8
0
 10
260.605969
 20
69.353615
 42
0.055204
  0
VERTEX
  8
0
 10
257.758983
 20
67.450651
 42
-0.018237
  0
VERTEX
  8
0
 10
256.557670
 20
66.512448
 42
-0.021661
  0
VERTEX
  8
0
 10
255.356488
 20
65.719879
 42
-0.021093
  0
VERTEX
  8
0
 10
254.300744
 20
65.146196
 42
-0.114389
  0
VERTEX
  8
0
 10
253.670077
 20
65.000000
 42
-0.119647
  0
VERTEX
  8
0
 10
252.968305
 20
65.170369
 42
-0.011159
  0
VERTEX
  8
0
 10
251.393114
 20
66.028125
 42
-0.013836
  0
VERTEX
  8
0
 10
249.542055
 20
67.159533
 42
-0.010439
  0
VERTEX
  8
0
 10
247.570780
 20
68.500000
 42
0.019662
  0
VERTEX
  8
0
 10
243.909272
 20
70.892281
 42
0.089692
  0
VERTEX
  8
0
 10
241.538961
 20
71.785850
 42
0.133012
  0
VERTEX
  8
0
 10
239.497047
 20
71.616254
 42
0.066014
  0
VERTEX
  8
0
 10
237.173792
 20
70.409175
 42
-0.035280
  0
VERTEX
  8
0
 10
235.769735
 20
69.566623
 42
-0.118031
  0
VERTEX
  8
0
 10
234.732660
 20
69.318350
 42
-0.093538
  0
VERTEX
  8
0
 10
233.562408
 20
69.539209
 42
-0.017501
  0
VERTEX
  8
0
 10
231.550156
 20
70.409175
 42
0.015847
  0
VERTEX
  8
0
 10
228.809158
 20
71.604977
 42
0.095030
  0
VERTEX
  8
0
 10
227.287693
 20
71.897884
 42
0.155503
  0
VERTEX
  8
0
 10
226.134722
 20
71.531304
 42
0.065519
  0
VERTEX
  8
0
 10
224.928458
 20
70.413797
 42
-0.079833
  0
VERTEX
  8
0
 10
224.143978
 20
69.727495
 42
-0.087428
  0
VERTEX
  8
0
 10
223.207475
 20
69.347998
 42
-0.071000
  0
VERTEX
  8
0
 10
222.041113
 20
69.267590
 42
-0.034294
  0
VERTEX
  8
0
 10
220.556013
 20
69.479135
 42
-0.000149
  0
VERTEX
  8
0
 10
219.262502
 20
69.755315
 42
-0.000128
  0
VERTEX
  8
0
 10
217.902931
 20
70.046387
 42
-0.000129
  0
VERTEX
  8
0
 10
216.669455
 20
70.311127
 42
-0.000374
  0
VERTEX
  8
0
 10
215.815667
 20
70.495274
 42
0.130803
  0
VERTEX
  8
0
 10
214.882019
 20
70.451404
 42
0.024446
  0
VERTEX
  8
0
 10
213.261485
 20
69.848883
 42
0.024684
  0
VERTEX
  8
0
 10
211.387883
 20
68.934092
 42
0.020368
  0
VERTEX
  8
0
 10
209.485811
 20
67.782805
 42
-0.027940
  0
VERTEX
  8
0
 10
206.084723
 20
65.793892
 42
-0.161841
  0
VERTEX
  8
0
 10
204.056519
 20
65.482392
 42
-0.086303
  0
VERTEX
  8
0
 10
201.657868
 20
66.332734
 42
-0.004873
  0
VERTEX
  8
0
 10
194.804794
 20
70.280337
 42
0.000000
  0
VERTEX
  8
0
 10
191.109588
 20
72.457139
 42
0.000000
  0
VERTEX
  8
0
 10
188.286294
 20
70.369788
 42
-0.020534
  0
VERTEX
  8
0
 10
186.458923
 20
69.131446
 42
-0.128304
  0
VERTEX
  8
0
 10
185.388745
 20
68.801219
 42
-0.118294
  0
VERTEX
  8
0
 10
184.252734
 20
69.021352
 42
-0.016344
  0
VERTEX
  8
0
 10
182.081342
 20
70.096040
 42
0.067890
  0
VERTEX
  8
0
 10
179.632772
 20
71.008468
 42
0.093173
  0
VERTEX
  8
0
 10
177.289184
 20
71.091271
 42
0.133649
  0
VERTEX
  8
0
 10
175.637625
 20
70.361214
 42
0.225946
  0
VERTEX
  8
0
 10
175.000000
 20
69.022234
 42
-0.266354
  0
VERTEX
  8
0
 10
174.826508
 20
68.719660
 42
-0.094744
  0
VERTEX
  8
0
 10
174.339063
 20
68.546885
 42
-0.062934
  0
VERTEX
  8
0
 10
173.612307
 20
68.527980
 42
-0.036432
  0
VERTEX
  8
0
 10
172.750000
 20
68.678245
 42
0.021273
  0
VERTEX
  8
0
 10
168.284268
 20
69.596608
 42
0.061170
  0
VERTEX
  8
0
 10
165.128442
 20
69.716872
 42
0.077276
  0
VERTEX
  8
0
 10
162.473157
 20
69.071738
 42
0.051121
  0
VERTEX
  8
0
 10
159.705591
 20
67.578645
 42
-0.014369
  0
VERTEX
  8
0
 10
158.159040
 20
66.591364
 42
-0.017309
  0
VERTEX
  8
0
 10
156.649916
 20
65.757477
 42
-0.016122
  0
VERTEX
  8
0
 10
155.346239
 20
65.146988
 42
-0.101777
  0
VERTEX
  8
0
 10
154.631613
 20
65.000000
 42
-0.116586
  0
VERTEX
  8
0
 10
153.880218
 20
65.177618
 42
-0.012377
  0
VERTEX
  8
0
 10
152.281838
 20
66.028125
 42
-0.014741
  0
VERTEX
  8
0
 10
150.407971
 20
67.159631
 42
-0.011335
  0
VERTEX
  8
0
 10
148.429220
 20
68.500000
 42
0.016103
  0
VERTEX
  8
0
 10
144.687222
 20
70.983046
 42
0.098974
  0
VERTEX
  8
0
 10
142.529644
 20
71.786163
 42
0.152286
  0
VERTEX
  8
0
 10
140.682513
 20
71.519801
 42
0.055319
  0
VERTEX
  8
0
 10
138.409056
 20
70.107123
 42
-0.027025
  0
VERTEX
  8
0
 10
136.839668
 20
69.004444
 42
-0.140168
  0
VERTEX
  8
0
 10
135.831789
 20
68.714708
 42
-0.106227
  0
VERTEX
  8
0
 10
134.684718
 20
68.959506
 42
-0.012391
  0
VERTEX
  8
0
 10
132.306669
 20
70.098566
 42
0.011460
  0
VERTEX
  8
0
 10
129.911489
 20
71.251320
 42
0.111473
  0
VERTEX
  8
0
 10
128.816230
 20
71.477462
 42
0.156324
  0
VERTEX
  8
0
 10
127.890580
 20
71.161896
 42
0.028881
  0
VERTEX
  8
0
 10
126.490891
 20
69.991443
 42
-0.020574
  0
VERTEX
  8
0
 10
124.487587
 20
68.258903
 42
-0.326466
  0
VERTEX
  8
0
 10
123.639378
 20
68.224284
 42
-0.274822
  0
VERTEX
  8
0
 10
123.242517
 20
69.058441
 42
-0.016559
  0
VERTEX
  8
0
 10
123.604104
 20
71.925664
 42
0.041253
  0
VERTEX
  8
0
 10
123.778244
 20
74.209400
 42
0.064344
  0
VERTEX
  8
0
 10
123.513344
 20
76.161664
 42
0.049157
  0
VERTEX
  8
0
 10
122.694175
 20
78.327390
 42
0.014961
  0
VERTEX
  8
0
 10
121.042531
 20
81.425664
 42
-0.009067
  0
VERTEX
  8
0
 10
119.006998
 20
85.137986
 42
-0.124049
  0
VERTEX
  8
0
 10
118.649069
 20
86.622586
 42
-0.598712
  0
VERTEX
  8
0
 10
119.196394
 20
86.908640
 42
-0.034568
  0
VERTEX
  8
0
 10
121.083549
 20
85.424389
 42
0.064277
  0
VERTEX
  8
0
 10
122.809574
 20
84.225253
 42
0.079868
  0
VERTEX
  8
0
 10
124.663035
 20
83.612247
 42
0.083101
  0
VERTEX
  8
0
 10
126.555679
 20
83.623240
 42
0.076871
  0
VERTEX
  8
0
 10
128.397484
 20
84.243973
 42
-0.114774
  0
VERTEX
  8
0
 10
132.163750
 20
85.205502
 42
-0.012837
  0
VERTEX
  8
0
 10
141.072034
 20
85.167566
 42
-0.013674
  0
VERTEX
  8
0
 10
149.948381
 20
84.658596
 42
-0.098473
  0
VERTEX
  8
0
 10
154.046272
 20
83.476072
 42
0.045435
  0
VERTEX
  8
0
 10
156.970061
 20
82.286374
 42
0.162357
  0
VERTEX
  8
0
 10
158.961229
 20
82.338693
 42
0.199773
  0
VERTEX
  8
0
 10
160.270321
 20
83.540097
 42
0.072904
  0
VERTEX
  8
0
 10
161.000000
 20
86.000000
 42
-0.080152
  0
VERTEX
  8
0
 10
161.834739
 20
88.672217
 42
-0.268433
  0
VERTEX
  8
0
 10
163.308436
 20
89.645253
 42
-0.160579
  0
VERTEX
  8
0
 10
165.547538
 20
89.051086
 42
-0.029554
  0
VERTEX
  8
0
 10
169.030166
 20
86.474797
 42
0.016879
  0
VERTEX
  8
0
 10
171.222538
 20
84.765380
 42
0.050715
  0
VERTEX
  8
0
 10
172.860864
 20
83.811722
 42
0.077991
  0
VERTEX
  8
0
 10
174.204674
 20
83.439614
 42
0.111933
  0
VERTEX
  8
0
 10
175.428379
 20
83.572871
 42
-0.054908
  0
VERTEX
  8
0
 10
176.766980
 20
83.874599
 42
-0.005454
  0
VERTEX
  8
0
 10
180.045126
 20
84.207105
 42
-0.006819
  0
VERTEX
  8
0
 10
183.973142
 20
84.508343
 42
-0.005363
  0
VERTEX
  8
0
 10
188.235878
 20
84.730956
 42
-0.007678
  0
VERTEX
  8
0
 10
193.876834
 20
84.878177
 42
-0.023419
  0
VERTEX
  8
0
 10
197.704541
 20
84.739966
 42
-0.033115
  0
VERTEX
  8
0
 10
200.679907
 20
84.292942
 42
-0.037387
  0
VERTEX
  8
0
 10
203.448172
 20
83.466643
 42
0.032055
  0
VERTEX
  8
0
 10
207.090861
 20
82.336950
 42
0.140998
  0
VERTEX
  8
0
 10
209.315914
 20
82.433839
 42
0.224250
  0
VERTEX
  8
0
 10
210.563095
 20
83.630831
 42
0.091436
  0
VERTEX
  8
0
 10
211.000000
 20
86.000000
 42
-0.091721
  0
VERTEX
  8
0
 10
211.471741
 20
88.549969
 42
-0.293678
  0
VERTEX
  8
0
 10
212.801652
 20
89.527063
 42
-0.158230
  0
VERTEX
  8
0
 10
215.035990
 20
88.952948
 42
-0.030286
  0
VERTEX
  8
0
 10
218.475362
 20
86.466677
 42
0.011879
  0
VERTEX
  8
0
 10
221.411372
 20
84.175219
 42
0.090028
  0
VERTEX
  8
0
 10
222.979677
 20
83.399399
 42
0.114510
  0
VERTEX
  8
0
 10
224.562438
 20
83.317357
 42
0.024193
  0
VERTEX
  8
0
 10
227.276847
 20
83.937521
 42
-0.061558
  0
VERTEX
  8
0
 10
232.677049
 20
84.753859
 42
-0.018345
  0
VERTEX
  8
0
 10
241.029932
 20
84.673547
 42
-0.017911
  0
VERTEX
  8
0
 10
249.300126
 20
83.992887
 42
-0.070345
  0
VERTEX
  8
0
 10
254.235610
 20
82.688424
 42
0.013590
  0
VERTEX
  8
0
 10
256.419695
 20
81.837083
 42
0.083463
  0
VERTEX
  8
0
 10
257.604535
 20
81.623976
 42
0.138111
  0
VERTEX
  8
0
 10
258.507723
 20
81.867211
 42
0.062041
  0
VERTEX
  8
0
 10
259.485610
 20
82.628468
 42
0.064387
  0
VERTEX
  8
0
 10
260.065774
 20
83.380957
 42
0.039126
  0
VERTEX
  8
0
 10
260.555148
 20
84.394062
 42
0.038626
  0
VERTEX
  8
0
 10
260.888902
 20
85.494146
 42
0.054391
  0
VERTEX
  8
0
 10
261.000000
 20
86.512412
 42
-0.083303
  0
VERTEX
  8
0
 10
261.351127
 20
88.605328
 42
-0.320535
  0
VERTEX
  8
0
 10
262.366375
 20
89.327025
 42
-0.143840
  0
VERTEX
  8
0
 10
264.173248
 20
88.791526
 42
-0.019535
  0
VERTEX
  8
0
 10
267.436039
 20
86.496960
 42
0.026604
  0
VERTEX
  8
0
 10
271.077978
 20
84.011918
 42
0.076866
  0
VERTEX
  8
0
 10
273.892245
 20
82.848020
 42
0.097467
  0
VERTEX
  8
0
 10
276.524374
 20
82.731078
 42
0.061542
  0
VERTEX
  8
0
 10
279.494904
 20
83.562317
 42
-0.094593
  0
VERTEX
  8
0
 10
283.685436
 20
84.443036
 42
-0.016249
  0
VERTEX
  8
0
 10
291.848657
 20
84.329014
 42
-0.016417
  0
VERTEX
  8
0
 10
299.990194
 20
83.682098
 42
-0.091536
  0
VERTEX
  8
0
 10
304.163729
 20
82.415332
 42
0.063999
  0
VERTEX
  8
0
 10
306.401714
 20
81.599862
 42
0.125174
  0
VERTEX
  8
0
 10
308.286484
 20
81.651616
 42
0.168660
  0
VERTEX
  8
0
 10
309.561716
 20
82.544191
 42
0.140923
  0
VERTEX
  8
0
 10
310.125000
 20
84.106989
 42
-0.001934
  0
VERTEX
  8
0
 10
310.182004
 20
84.922274
 42
-0.001512
  0
VERTEX
  8
0
 10
310.250000
 20
85.807093
 42
-0.001528
  0
VERTEX
  8
0
 10
310.318317
 20
86.630522
 42
-0.003733
  0
VERTEX
  8
0
 10
310.375000
 20
87.236305
 42
-0.247072
  0
VERTEX
  8
0
 10
311.145137
 20
88.398539
 42
-0.182215
  0
VERTEX
  8
0
 10
312.700856
 20
88.618844
 42
-0.086039
  0
VERTEX
  8
0
 10
315.067113
 20
87.642155
 42
-0.033235
  0
VERTEX
  8
0
 10
317.946401
 20
85.544781
 42
0.017071
  0
VERTEX
  8
0
 10
321.147711
 20
83.050661
 42
0.112811
  0
VERTEX
  8
0
 10
323.001589
 20
82.260177
 42
0.104816
  0
VERTEX
  8
0
 10
325.073982
 20
82.323384
 42
0.013803
  0
VERTEX
  8
0
 10
329.340995
 20
83.490379
 42
-0.059340
  0
VERTEX
  8
0
 10
334.497494
 20
84.407550
 42
-0.026855
  0
VERTEX
  8
0
 10
341.369780
 20
84.433585
 42
-0.026843
  0
VERTEX
  8
0
 10
348.195260
 20
83.724058
 42
-0.060262
  0
VERTEX
  8
0
 10
353.196224
 20
82.298824
 42
0.042084
  0
VERTEX
  8
0
 10
356.326513
 20
81.282662
 42
0.153104
  0
VERTEX
  8
0
 10
358.386507
 20
81.435542
 42
0.213292
  0
VERTEX
  8
0
 10
359.584281
 20
82.664415
 42
0.088303
  0
VERTEX
  8
0
 10
360.000000
 20
85.000000
 42
-0.088447
  0
VERTEX
  8
0
 10
360.459999
 20
87.580077
 42
-0.290577
  0
VERTEX
  8
0
 10
361.773799
 20
88.583707
 42
-0.171351
  0
VERTEX
  8
0
 10
363.910801
 20
88.032032
 42
-0.035682
  0
VERTEX
  8
0
 10
367.010163
 20
85.609783
 42
0.029070
  0
VERTEX
  8
0
 10
369.892489
 20
83.295176
 42
0.093811
  0
VERTEX
  8
0
 10
372.115059
 20
82.272118
 42
0.102952
  0
VERTEX
  8
0
 10
374.439035
 20
82.181125
 42
0.039193
  0
VERTEX
  8
0
 10
377.600777
 20
82.969595
 42
-0.013631
  0
VERTEX
  8
0
 10
378.928011
 20
83.373591
 42
-0.008090
  0
VERTEX
  8
0
 10
380.529603
 20
83.786023
 42
-0.008093
  0
VERTEX
  8
0
 10
382.141485
 20
84.145918
 42
-0.013799
  0
VERTEX
  8
0
 10
383.500000
 20
84.387365
 42
0.001615
  0
VERTEX
  8
0
 10
384.663803
 20
84.565072
 42
0.002439
  0
VERTEX
  8
0
 10
385.676023
 20
84.728043
 42
0.000940
  0
VERTEX
  8
0
 10
386.544513
 20
84.873902
 42
0.057776
  0
VERTEX
  8
0
 10
386.694971
 20
84.917769
 42
0.407625
  0
VERTEX
  8
0
 10
386.740824
 20
85.026967
 42
0.001202
  0
VERTEX
  8
0
 10
386.114459
 20
86.599846
 42
0.005472
  0
VERTEX
  8
0
 10
385.368481
 20
88.402703
 42
0.003280
  0
VERTEX
  8
0
 10
384.444971
 20
90.528513
 42
-0.012248
  0
VERTEX
  8
0
 10
383.508992
 20
92.793328
 42
-0.013552
  0
VERTEX
  8
0
 10
382.718210
 20
95.026738
 42
-0.012997
  0
VERTEX
  8
0
 10
382.146625
 20
96.961905
 42
-0.065395
  0
VERTEX
  8
0
 10
382.000000
 20
98.078173
 42
0.091672
  0
VERTEX
  8
0
 10
381.499190
 20
100.786745
 42
0.057722
  0
VERTEX
  8
0
 10
380.006337
 20
103.647376
 42
0.050264
  0
VERTEX
  8
0
 10
377.639545
 20
106.475975
 42
0.037720
  0
VERTEX
  8
0
 10
374.527857
 20
109.087379
 42
-0.018839
  0
VERTEX
  8
0
 10
372.765513
 20
110.456485
 42
-0.021301
  0
VERTEX
  8
0
 10
371.184803
 20
111.901977
 42
-0.021110
  0
VERTEX
  8
0
 10
369.957040
 20
113.232532
 42
-0.099247
  0
VERTEX
  8
0
 10
369.456101
 20
114.138314
 42
0.056140
  0
VERTEX
  8
0
 10
369.005828
 20
115.147973
 42
0.009295
  0
VERTEX
  8
0
 10
367.890183
 20
116.966637
 42
0.010105
  0
VERTEX
  8
0
 10
366.488837
 20
119.063928
 42
0.008784
  0
VERTEX
  8
0
 10
364.938506
 20
121.204518
 42
-0.018295
  0
VERTEX
  8
0
 10
363.129488
 20
123.804981
 42
-0.035974
  0
VERTEX
  8
0
 10
361.923880
 20
126.015507
 42
-0.045023
  0
VERTEX
  8
0
 10
361.231674
 20
127.988668
 42
-0.061932
  0
VERTEX
  8
0
 10
361.000000
 20
129.851887
 42
0.055935
  0
VERTEX
  8
0
 10
360.795302
 20
131.675948
 42
0.057638
  0
VERTEX
  8
0
 10
360.191640
 20
133.389803
 42
0.047382
  0
VERTEX
  8
0
 10
359.098233
 20
135.179231
 42
0.022885
  0
VERTEX
  8
0
 10
357.389707
 20
137.253761
 42
-0.043554
  0
VERTEX
  8
0
 10
353.968338
 20
141.776281
 42
-0.039251
  0
VERTEX
  8
0
 10
351.245496
 20
146.979082
 42
-0.041361
  0
VERTEX
  8
0
 10
349.583584
 20
151.977161
 42
-0.106343
  0
VERTEX
  8
0
 10
349.483437
 20
155.763401
 42
0.053184
  0
VERTEX
  8
0
 10
349.637629
 20
157.706769
 42
0.060628
  0
VERTEX
  8
0
 10
349.362214
 20
159.551573
 42
0.045260
  0
VERTEX
  8
0
 10
348.565511
 20
161.669717
 42
0.015897
  0
VERTEX
  8
0
 10
347.057823
 20
164.551537
 42
-0.009659
  0
VERTEX
  8
0
 10
345.886829
 20
166.723394
 42
-0.012382
  0
VERTEX
  8
0
 10
344.898236
 20
168.767802
 42
-0.010299
  0
VERTEX
  8
0
 10
344.154519
 20
170.502380
 42
-0.096411
  0
VERTEX
  8
0
 10
344.000000
 20
171.296290
 42
0.150755
  0
VERTEX
  8
0
 10
343.527425
 20
172.828029
 42
0.041079
  0
VERTEX
  8
0
 10
341.915493
 20
174.818815
 42
0.040786
  0
VERTEX
  8
0
 10
340.010715
 20
176.511574
 42
0.162664
  0
VERTEX
  8
0
 10
338.549101
 20
177.000000
 42
0.157979
  0
VERTEX
  8
0
 10
337.992238
 20
176.819551
 42
0.135611
  0
VERTEX
  8
0
 10
337.606082
 20
176.336602
 42
0.089584
  0
VERTEX
  8
0
 10
337.422404
 20
175.538541
 42
0.039235
  0
VERTEX
  8
0
 10
337.456066
 20
174.449684
 42
0.000000
  0
VERTEX
  8
0
 10
337.736020
 20
171.899368
 42
0.000000
  0
VERTEX
  8
0
 10
335.276188
 20
174.199684
 42
-0.035011
  0
VERTEX
  8
0
 10
333.021583
 20
176.625166
 42
-0.067926
  0
VERTEX
  8
0
 10
331.656376
 20
178.885904
 42
-0.070759
  0
VERTEX
  8
0
 10
330.979627
 20
181.366463
 42
-0.041078
  0
VERTEX
  8
0
 10
330.846795
 20
184.457503
 42
0.039583
  0
VERTEX
  8
0
 10
330.762106
 20
186.575670
 42
0.051494
  0
VERTEX
  8
0
 10
330.334926
 20
188.468343
 42
0.047073
  0
VERTEX
  8
0
 10
329.492852
 20
190.359277
 42
0.026450
  0
VERTEX
  8
0
 10
328.143583
 20
192.483343
 42
-0.028352
  0
VERTEX
  8
0
 10
326.996089
 20
194.305036
 42
-0.020199
  0
VERTEX
  8
0
 10
325.914297
 20
196.461130
 42
-0.020478
  0
VERTEX
  8
0
 10
325.047416
 20
198.608458
 42
-0.040376
  0
VERTEX
  8
0
 10
324.571124
 20
200.384333
 42
0.056897
  0
VERTEX
  8
0
 10
323.908578
 20
202.564735
 42
0.050079
  0
VERTEX
  8
0
 10
322.749846
 20
204.642384
 42
0.036685
  0
VERTEX
  8
0
 10
320.875937
 20
206.949483
 42
0.013680
  0
VERTEX
  8
0
 10
317.929486
 20
209.910973
 42
-0.013649
  0
VERTEX
  8
0
 10
315.658462
 20
212.193307
 42
-0.018445
  0
VERTEX
  8
0
 10
313.741786
 20
214.384224
 42
-0.015630
  0
VERTEX
  8
0
 10
312.299845
 20
216.278687
 42
-0.156082
  0
VERTEX
  8
0
 10
312.000000
 20
217.215821
 42
0.121405
  0
VERTEX
  8
0
 10
311.777100
 20
218.120290
 42
0.019773
  0
VERTEX
  8
0
 10
310.867837
 20
219.698103
 42
0.020792
  0
VERTEX
  8
0
 10
309.621479
 20
221.504676
 42
0.016983
  0
VERTEX
  8
0
 10
308.145827
 20
223.331511
 42
-0.028128
  0
VERTEX
  8
0
 10
306.530820
 20
225.424589
 42
-0.023507
  0
VERTEX
  8
0
 10
305.054095
 20
227.812073
 42
-0.024197
  0
VERTEX
  8
0
 10
303.869065
 20
230.212703
 42
-0.040893
  0
VERTEX
  8
0
 10
303.145818
 20
232.335185
 42
0.019453
  0
VERTEX
  8
0
 10
302.561721
 20
234.324605
 42
0.013170
  0
VERTEX
  8
0
 10
301.749554
 20
236.543914
 42
0.013283
  0
VERTEX
  8
0
 10
300.849925
 20
238.649847
 42
0.025695
  0
VERTEX
  8
0
 10
300.001623
 20
240.272677
 42
-0.049999
  0
VERTEX
  8
0
 10
299.104206
 20
242.213397
 42
-0.025095
  0
VERTEX
  8
0
 10
298.349125
 20
244.809589
 42
-0.021881
  0
VERTEX
  8
0
 10
297.752083
 20
247.929161
 42
-0.015255
  0
VERTEX
  8
0
 10
297.341346
 20
251.490107
 42
0.010575
  0
VERTEX
  8
0
 10
296.834536
 20
256.277083
 42
0.060872
  0
VERTEX
  8
0
 10
296.209644
 20
258.742629
 42
0.079269
  0
VERTEX
  8
0
 10
295.075342
 20
260.687377
 42
0.024797
  0
VERTEX
  8
0
 10
292.803240
 20
263.196760
 42
0.015292
  0
VERTEX
  8
0
 10
291.261172
 20
264.647280
 42
0.023663
  0
VERTEX
  8
0
 10
289.836102
 20
265.792430
 42
0.020220
  0
VERTEX
  8
0
 10
288.641072
 20
266.591126
 42
0.282771
  0
VERTEX
  8
0
 10
288.145503
 20
266.589926
 42
0.251161
  0
VERTEX
  8
0
 10
287.569241
 20
265.595216
 42
0.017076
  0
VERTEX
  8
0
 10
287.573334
 20
262.215822
 42
0.023164
  0
VERTEX
  8
0
 10
287.850825
 20
258.826071
 42
0.093336
  0
VERTEX
  8
0
 10
288.489709
 20
256.859609
 42
-0.815687
  0
VERTEX
  8
0
 10
288.378977
 20
256.765849
 42
-0.023155
  0
VERTEX
  8
0
 10
287.528394
 20
257.500171
 42
-0.011232
  0
VERTEX
  8
0
 10
286.067667
 20
258.947929
 42
-0.004773
  0
VERTEX
  8
0
 10
284.173467
 20
260.949485
 42
0.006789
  0
VERTEX
  8
0
 10
280.948053
 20
264.330287
 42
0.075990
  0
VERTEX
  8
0
 10
279.465028
 20
265.442897
 42
0.175440
  0
VERTEX
  8
0
 10
278.204388
 20
265.626486
 42
0.072292
  0
VERTEX
  8
0
 10
276.557657
 20
265.030857
 42
-0.050210
  0
VERTEX
  8
0
 10
275.083190
 20
264.422942
 42
-0.060087
  0
VERTEX
  8
0
 10
273.603823
 20
264.167942
 42
-0.048548
  0
VERTEX
  8
0
 10
271.869468
 20
264.248398
 42
-0.020399
  0
VERTEX
  8
0
 10
269.570841
 20
264.676581
 42
0.024299
  0
VERTEX
  8
0
 10
267.216754
 20
265.096132
 42
0.044472
  0
VERTEX
  8
0
 10
265.270036
 20
265.171889
 42
0.046757
  0
VERTEX
  8
0
 10
263.407170
 20
264.902841
 42
0.030141
  0
VERTEX
  8
0
 10
261.320183
 20
264.263787
 42
-0.017067
  0
VERTEX
  8
0
 10
256.489306
 20
262.645304
 42
-0.096380
  0
VERTEX
  8
0
 10
253.796624
 20
262.383354
 42
-0.105192
  0
VERTEX
  8
0
 10
251.312564
 20
263.164855
 42
-0.022180
  0
VERTEX
  8
0
 10
247.434471
 20
265.589572
 42
0.030404
  0
VERTEX
  8
0
 10
243.104139
 20
268.199037
 42
0.176211
  0
VERTEX
  8
0
 10
240.501559
 20
268.546440
 42
0.276035
  0
VERTEX
  8
0
 10
238.987749
 20
267.122554
 42
0.069447
  0
VERTEX
  8
0
 10
238.500000
 20
263.627819
 42
-0.066901
  0
VERTEX
  8
0
 10
238.137343
 20
260.929566
 42
-0.340447
  0
VERTEX
  8
0
 10
237.005624
 20
260.074021
 42
-0.186816
  0
VERTEX
  8
0
 10
235.192902
 20
260.794558
 42
-0.027609
  0
VERTEX
  8
0
 10
232.404446
 20
263.682476
 42
0.009633
  0
VERTEX
  8
0
 10
230.414118
 20
265.897854
 42
0.107800
  0
VERTEX
  8
0
 10
229.444963
 20
266.567772
 42
0.233896
  0
VERTEX
  8
0
 10
228.611775
 20
266.509789
 42
0.064185
  0
VERTEX
  8
0
 10
227.539619
 20
265.682476
 42
-0.073255
  0
VERTEX
  8
0
 10
226.014975
 20
264.549325
 42
-0.107627
  0
VERTEX
  8
0
 10
224.415125
 20
264.091924
 42
-0.071101
  0
VERTEX
  8
0
 10
222.304854
 20
264.256688
 42
-0.017806
  0
VERTEX
  8
0
 10
218.954167
 20
265.131878
 42
0.030498
  0
VERTEX
  8
0
 10
216.745696
 20
265.649256
 42
0.072819
  0
VERTEX
  8
0
 10
215.066089
 20
265.689174
 42
0.063464
  0
VERTEX
  8
0
 10
213.309954
 20
265.243793
 42
0.018929
  0
VERTEX
  8
0
 10
210.772423
 20
264.131878
 42
-0.011483
  0
VERTEX
  8
0
 10
208.982716
 20
263.315681
 42
-0.013412
  0
VERTEX
  8
0
 10
207.246937
 20
262.626239
 42
-0.012418
  0
VERTEX
  8
0
 10
205.757188
 20
262.121903
 42
-0.075541
  0
VERTEX
  8
0
 10
204.954927
 20
262.000000
 42
-0.138397
  0
VERTEX
  8
0
 10
202.840984
 20
262.596554
 42
-0.016364
  0
VERTEX
  8
0
 10
198.725298
 20
265.309643
 42
-0.011830
  0
VERTEX
  8
0
 10
194.705441
 20
268.297642
 42
-0.320522
  0
VERTEX
  8
0
 10
194.349811
 20
269.500000
 42
-0.250640
  0
VERTEX
  8
0
 10
194.749967
 20
269.870444
 42
-0.030742
  0
VERTEX
  8
0
 10
195.960517
 20
270.108575
 42
-0.030493
  0
VERTEX
  8
0
 10
197.540228
 20
270.222196
 42
-0.020550
  0
VERTEX
  8
0
 10
199.347719
 20
270.167489
 42
0.042578
  0
VERTEX
  8
0
 10
202.725525
 20
270.213949
 42
0.296269
  0
VERTEX
  8
0
 10
203.954667
 20
271.197623
 42
0.208426
  0
VERTEX
  8
0
 10
203.784526
 20
273.058987
 42
0.023686
  0
VERTEX
  8
0
 10
201.526488
 20
276.746208
 42
-0.012571
  0
VERTEX
  8
0
 10
200.609071
 20
278.172145
 42
-0.019933
  0
VERTEX
  8
0
 10
199.904353
 20
279.441813
 42
-0.014870
  0
VERTEX
  8
0
 10
199.415833
 20
280.487331
 42
-0.307356
  0
VERTEX
  8
0
 10
199.477770
 20
280.811103
 42
-0.254448
  0
VERTEX
  8
0
 10
199.828585
 20
280.914675
 42
-0.009103
  0
VERTEX
  8
0
 10
201.242296
 20
280.584482
 42
-0.014793
  0
VERTEX
  8
0
 10
202.946671
 20
280.099470
 42
-0.009593
  0
VERTEX
  8
0
 10
204.888148
 20
279.443107
 42
0.040381
  0
VERTEX
  8
0
 10
208.612744
 20
278.434398
 42
0.140233
  0
VERTEX
  8
0
 10
211.071939
 20
278.668447
 42
0.204342
  0
VERTEX
  8
0
 10
212.493677
 20
280.065582
 42
0.098060
  0
VERTEX
  8
0
 10
213.000000
 20
282.622445
 42
-0.108651
  0
VERTEX
  8
0
 10
213.372110
 20
284.314639
 42
-0.322834
  0
VERTEX
  8
0
 10
214.349442
 20
284.865622
 42
-0.139841
  0
VERTEX
  8
0
 10
215.994488
 20
284.191196
 42
-0.025712
  0
VERTEX
  8
0
 10
218.490277
 20
282.009424
 42
0.075464
  0
VERTEX
  8
0
 10
222.018111
 20
279.495473
 42
0.068574
  0
VERTEX
  8
0
 10
226.249351
 20
278.038790
 42
0.075944
  0
VERTEX
  8
0
 10
230.263138
 20
277.865971
 42
0.152640
  0
VERTEX
  8
0
 10
233.140202
 20
279.121596
 42
-0.077512
  0
VERTEX
  8
0
 10
234.655304
 20
280.070930
 42
-0.065569
  0
VERTEX
  8
0
 10
236.477111
 20
280.583120
 42
-0.037087
  0
VERTEX
  8
0
 10
239.169508
 20
280.769134
 42
-0.007784
  0
VERTEX
  8
0
 10
243.893616
 20
280.671202
 42
-0.011647
  0
VERTEX
  8
0
 10
247.348788
 20
280.465073
 42
-0.013627
  0
VERTEX
  8
0
 10
250.613501
 20
280.104063
 42
-0.012618
  0
VERTEX
  8
0
 10
253.341796
 20
279.656442
 42
-0.076959
  0
VERTEX
  8
0
 10
254.684259
 20
279.179349
 42
0.062220
  0
VERTEX
  8
0
 10
257.279110
 20
278.170513
 42
0.095399
  0
VERTEX
  8
0
 10
259.680311
 20
278.035191
 42
0.123034
  0
VERTEX
  8
0
 10
261.537625
 20
278.774363
 42
0.156062
  0
VERTEX
  8
0
 10
262.630737
 20
280.250000
 42
0.016452
  0
VERTEX
  8
0
 10
262.909245
 20
281.166409
 42
0.018807
  0
VERTEX
  8
0
 10
263.113182
 20
282.059375
 42
0.018266
  0
VERTEX
  8
0
 10
263.228973
 20
282.823489
 42
0.093302
  0
VERTEX
  8
0
 10
263.198125
 20
283.250000
 42
-0.363467
  0
VERTEX
  8
0
 10
263.465534
 20
283.819524
 42
-0.203446
  0
VERTEX
  8
0
 10
264.281008
 20
283.846577
 42
-0.061251
  0
VERTEX
  8
0
 10
265.857054
 20
283.004715
 42
-0.021642
  0
VERTEX
  8
0
 10
267.888860
 20
281.440064
 42
0.027068
  0
VERTEX
  8
0
 10
269.275381
 20
280.396092
 42
0.019344
  0
VERTEX
  8
0
 10
270.928851
 20
279.376471
 42
0.019610
  0
VERTEX
  8
0
 10
272.585240
 20
278.525313
 42
0.039060
  0
VERTEX
  8
0
 10
273.965585
 20
278.009870
 42
0.017075
  0
VERTEX
  8
0
 10
275.605865
 20
277.599495
 42
0.118627
  0
VERTEX
  8
0
 10
276.427225
 20
277.620151
 42
0.243130
  0
VERTEX
  8
0
 10
276.849309
 20
278.004237
 42
0.089944
  0
VERTEX
  8
0
 10
276.994423
 20
278.819806
 42
0.066946
  0
VERTEX
  8
0
 10
276.545382
 20
282.076654
 42
0.043812
  0
VERTEX
  8
0
 10
275.214404
 20
285.631305
 42
0.037516
  0
VERTEX
  8
0
 10
273.027028
 20
289.444213
 42
0.024777
  0
VERTEX
  8
0
 10
269.986850
 20
293.481949
 42
-0.017594
  0
VERTEX
  8
0
 10
266.961159
 20
297.382595
 42
-0.060351
  0
VERTEX
  8
0
 10
265.415258
 20
300.185635
 42
-0.121160
  0
VERTEX
  8
0
 10
265.133201
 20
302.154345
 42
-0.233716
  0
VERTEX
  8
0
 10
265.956326
 20
303.473008
 42
0.265325
  0
VERTEX
  8
0
 10
266.443661
 20
304.368206
 42
0.084679
  0
VERTEX
  8
0
 10
266.147770
 20
305.914006
 42
0.036248
  0
VERTEX
  8
0
 10
264.975534
 20
308.466328
 42
0.006328
  0
VERTEX
  8
0
 10
262.362871
 20
313.075654
 42
0.027126
  0
VERTEX
  8
0
 10
260.451568
 20
315.976685
 42
0.036824
  0
VERTEX
  8
0
 10
258.406845
 20
318.353569
 42
0.034102
  0
VERTEX
  8
0
 10
255.912716
 20
320.534860
 42
0.019089
  0
VERTEX
  8
0
 10
252.613353
 20
322.851842
 42
-0.024604
  0
VERTEX
  8
0
 10
248.784985
 20
325.603831
 42
-0.053941
  0
VERTEX
  8
0
 10
246.223273
 20
328.139221
 42
-0.087765
  0
VERTEX
  8
0
 10
245.052650
 20
330.243338
 42
-0.287019
  0
VERTEX
  8
0
 10
245.394608
 20
331.727941
 42
-0.141365
  0
VERTEX
  8
0
 10
245.792583
 20
331.947702
 42
-0.021913
  0
VERTEX
  8
0
 10
246.687657
 20
332.110429
 42
-0.022951
  0
VERTEX
  8
0
 10
247.789560
 20
332.210008
 42
-0.018166
  0
VERTEX
  8
0
 10
248.985914
 20
332.219464
 42
0.177854
  0
VERTEX
  8
0
 10
251.280617
 20
332.989090
 42
0.344262
  0
VERTEX
  8
0
 10
251.700365
 20
334.765315
 42
0.116371
  0
VERTEX
  8
0
 10
249.537861
 20
337.535900
 42
0.035710
  0
VERTEX
  8
0
 10
245.143605
 20
340.574242
 42
-0.043588
  0
VERTEX
  8
0
 10
243.669827
 20
341.627911
 42
-0.062182
  0
VERTEX
  8
0
 10
242.587882
 20
342.815734
 42
-0.062571
  0
VERTEX
  8
0
 10
241.835759
 20
344.227176
 42
-0.044824
  0
VERTEX
  8
0
 10
241.349596
 20
345.950032
 42
0.065579
  0
VERTEX
  8
0
 10
240.727187
 20
347.851002
 42
0.034306
  0
VERTEX
  8
0
 10
239.496267
 20
350.021079
 42
0.028143
  0
VERTEX
  8
0
 10
237.676759
 20
352.460654
 42
0.016171
  0
VERTEX
  8
0
 10
235.231346
 20
355.196306
 42
-0.006423
  0
VERTEX
  8
0
 10
232.050530
 20
358.618006
 42
-0.061067
  0
VERTEX
  8
0
 10
230.901339
 20
360.247964
 42
-0.177308
  0
VERTEX
  8
0
 10
230.739645
 20
361.385894
 42
-0.144896
  0
VERTEX
  8
0
 10
231.330185
 20
362.473042
 42
0.192350
  0
VERTEX
  8
0
 10
232.254071
 20
364.626114
 42
0.115872
  0
VERTEX
  8
0
 10
231.679334
 20
367.384329
 42
0.078758
  0
VERTEX
  8
0
 10
229.580033
 20
370.497154
 42
0.042345
  0
VERTEX
  8
0
 10
226.138451
 20
373.612125
 42
-0.037082
  0
VERTEX
  8
0
 10
222.689238
 20
376.668683
 42
-0.027113
  0
VERTEX
  8
0
 10
219.323834
 20
380.526470
 42
-0.024362
  0
VERTEX
  8
0
 10
216.669060
 20
384.289432
 42
-0.142374
  0
VERTEX
  8
0
 10
216.000000
 20
386.591464
 42
0.115785
  0
VERTEX
  8
0
 10
215.712301
 20
387.817194
 42
0.203247
  0
VERTEX
  8
0
 10
214.934547
 20
388.483910
 42
0.239960
  0
VERTEX
  8
0
 10
214.020642
 20
388.333265
 42
0.143474
  0
SEQEND
  0
ENDSEC
  0
EOF
