  0
SECTION
  2
HEADER
  9
$ACADVER
  1
AC1006
  9
$EXTMIN
 10
0.000000
 20
0.000000
 30
0.000000
  9
$EXTMAX
 10
387.000000
 20
394.000000
 30
0.000000
  0
ENDSEC
  0
SECTION
  2
ENTITIES
  0
POLYLINE
  8
0
 66
1
 70
1
  0
VERTEX
  8
0
 10
63.500000
 20
393.299673
 42
0.032277
  0
VERTEX
  8
0
 10
54.925636
 20
391.502541
 42
0.027227
  0
VERTEX
  8
0
 10
46.138841
 20
388.536205
 42
0.027593
  0
VERTEX
  8
0
 10
37.870753
 20
384.692212
 42
0.036597
  0
VERTEX
  8
0
 10
30.859249
 20
380.261848
 42
0.042390
  0
VERTEX
  8
0
 10
21.265243
 20
371.823205
 42
0.044828
  0
VERTEX
  8
0
 10
13.428659
 20
362.033808
 42
0.043759
  0
VERTEX
  8
0
 10
7.312450
 20
350.784710
 42
0.037009
  0
VERTEX
  8
0
 10
2.839575
 20
338.000000
 42
0.000000
  0
VERTEX
  8
0
 10
0.555020
 20
329.500000
 42
0.000000
  0
VERTEX
  8
0
 10
0.527510
 20
198.000000
 42
0.000256
  0
VERTEX
  8
0
 10
0.552348
 20
116.012694
 42
0.003070
  0
VERTEX
  8
0
 10
0.772422
 20
84.375314
 42
0.006549
  0
VERTEX
  8
0
 10
1.231281
 20
66.861593
 42
0.047164
  0
VERTEX
  8
0
 10
2.354647
 20
58.500000
 42
0.027455
  0
VERTEX
  8
0
 10
5.505763
 20
47.652134
 42
0.038638
  0
VERTEX
  8
0
 10
9.564846
 20
38.435158
 42
0.039841
  0
VERTEX
  8
0
 10
14.884580
 20
30.166837
 42
0.032025
  0
VERTEX
  8
0
 10
21.823310
 20
22.181456
 42
0.032070
  0
VERTEX
  8
0
 10
29.564861
 20
15.291385
 42
0.037675
  0
VERTEX
  8
0
 10
37.735827
 20
9.846012
 42
0.037075
  0
VERTEX
  8
0
 10
46.745280
 20
5.622028
 42
0.029420
  0
VERTEX
  8
0
 10
57.000000
 20
2.388299
 42
0.051326
  0
VERTEX
  8
0
 10
64.950072
 20
1.234822
 42
0.006935
  0
VERTEX
  8
0
 10
81.823077
 20
0.768124
 42
0.003193
  0
VERTEX
  8
0
 10
112.514899
 20
0.541127
 42
0.000252
  0
VERTEX
  8
0
 10
194.000000
 20
0.500000
 42
0.000000
  0
VERTEX
  8
0
 10
323.500000
 20
0.500000
 42
0.000000
  0
VERTEX
  8
0
 10
331.844596
 20
2.781389
 42
0.022899
  0
VERTEX
  8
0
 10
342.066878
 20
6.085925
 42
0.040851
  0
VERTEX
  8
0
 10
350.056969
 20
9.848590
 42
0.041272
  0
VERTEX
  8
0
 10
357.274596
 20
14.831763
 42
0.023919
  0
VERTEX
  8
0
 10
365.101598
 20
21.901259
 42
0.008655
  0
VERTEX
  8
0
 10
370.406816
 20
27.360743
 42
0.026607
  0
VERTEX
  8
0
 10
373.727670
 20
31.298939
 42
0.032463
  0
VERTEX
  8
0
 10
376.243705
 20
35.118755
 42
0.018773
  0
VERTEX
  8
0
 10
378.784984
 20
40.000000
 42
0.047971
  0
VERTEX
  8
0
 10
383.627467
 20
53.407425
 42
0.049763
  0
VERTEX
  8
0
 10
385.749554
 20
67.327115
 42
0.012002
  0
VERTEX
  8
0
 10
386.435120
 20
91.944682
 42
0.000369
  0
VERTEX
  8
0
 10
386.750097
 20
193.500000
 42
0.000426
  0
VERTEX
  8
0
 10
386.897566
 20
291.036108
 42
0.008977
  0
VERTEX
  8
0
 10
386.395248
 20
320.080495
 42
0.031617
  0
VERTEX
  8
0
 10
384.823109
 20
335.996117
 42
0.053693
  0
VERTEX
  8
0
 10
381.271133
 20
348.882655
 42
0.054561
  0
VERTEX
  8
0
 10
373.651621
 20
363.332597
 42
0.061148
  0
VERTEX
  8
0
 10
363.328789
 20
375.187908
 42
0.059169
  0
VERTEX
  8
0
 10
350.135585
 20
384.488484
 42
0.046304
  0
VERTEX
  8
0
 10
334.009244
 20
391.369396
 42
0.064723
  0
VERTEX
  8
0
 10
326.815751
 20
392.689478
 42
0.008997
  0
VERTEX
  8
0
 10
311.629026
 20
393.209542
 42
0.003587
  0
VERTEX
  8
0
 10
283.042507
 20
393.468674
 42
0.000215
  0
VERTEX
  8
0
 10
197.000000
 20
393.594351
 42
0.000310
  0
VERTEX
  8
0
 10
146.754207
 20
393.614963
 42
0.000499
  0
VERTEX
  8
0
 10
103.953125
 20
393.563240
 42
0.000070
  0
VERTEX
  8
0
 10
65.906176
 20
393.473895
 42
0.034910
  0
SEQEND
  0
ENDSEC
  0
EOF
