  0
SECTION
  2
HEADER
  9
$ACADVER
  1
AC1006
  9
$EXTMIN
 10
0.000000
 20
0.000000
 30
0.000000
  9
$EXTMAX
 10
502.000000
 20
489.000000
 30
0.000000
  0
ENDSEC
  0
SECTION
  2
ENTITIES
  0
POLYLINE
  8
0
 66
1
 70
1
  0
VERTEX
  8
0
 10
172.589401
 20
480.088937
 42
0.007431
  0
VERTEX
  8
0
 10
172.876401
 20
476.590831
 42
0.007961
  0
VERTEX
  8
0
 10
173.261976
 20
473.182413
 42
0.007613
  0
VERTEX
  8
0
 10
173.684108
 20
470.266977
 42
0.036761
  0
VERTEX
  8
0
 10
174.069731
 20
468.638427
 42
-0.015624
  0
VERTEX
  8
0
 10
174.580276
 20
466.827196
 42
-0.249461
  0
VERTEX
  8
0
 10
174.430390
 20
466.228828
 42
-0.235707
  0
VERTEX
  8
0
 10
173.842777
 20
465.998579
 42
-0.014055
  0
VERTEX
  8
0
 10
171.894247
 20
466.228829
 42
0.080914
  0
VERTEX
  8
0
 10
169.538588
 20
466.191730
 42
0.247105
  0
VERTEX
  8
0
 10
168.316694
 20
465.240022
 42
0.191031
  0
VERTEX
  8
0
 10
168.232643
 20
463.454905
 42
0.050819
  0
VERTEX
  8
0
 10
169.448331
 20
460.818183
 42
-0.087729
  0
VERTEX
  8
0
 10
170.475448
 20
458.077398
 42
-0.068892
  0
VERTEX
  8
0
 10
170.621533
 20
454.902409
 42
-0.072346
  0
VERTEX
  8
0
 10
169.916995
 20
451.973067
 42
-0.125047
  0
VERTEX
  8
0
 10
168.451008
 20
449.959340
 42
0.049385
  0
VERTEX
  8
0
 10
167.687350
 20
449.186439
 42
0.173732
  0
VERTEX
  8
0
 10
167.459958
 20
448.536724
 42
0.123701
  0
VERTEX
  8
0
 10
167.662939
 20
447.753301
 42
0.020095
  0
VERTEX
  8
0
 10
168.477275
 20
446.394339
 42
-0.042393
  0
VERTEX
  8
0
 10
169.102986
 20
445.236088
 42
-0.019660
  0
VERTEX
  8
0
 10
169.723778
 20
443.641469
 42
-0.019312
  0
VERTEX
  8
0
 10
170.248249
 20
441.904982
 42
-0.025456
  0
VERTEX
  8
0
 10
170.582945
 20
440.285481
 42
0.007423
  0
VERTEX
  8
0
 10
171.898659
 20
432.515470
 42
0.013955
  0
VERTEX
  8
0
 10
173.228712
 20
426.290372
 42
0.016348
  0
VERTEX
  8
0
 10
174.550834
 20
421.533473
 42
0.059167
  0
VERTEX
  8
0
 10
175.835605
 20
418.671778
 42
-0.039821
  0
VERTEX
  8
0
 10
177.716909
 20
414.880151
 42
-0.078596
  0
VERTEX
  8
0
 10
178.462123
 20
411.610834
 42
-0.103296
  0
VERTEX
  8
0
 10
178.081724
 20
408.884235
 42
-0.118588
  0
VERTEX
  8
0
 10
176.642500
 20
406.690171
 42
0.065071
  0
VERTEX
  8
0
 10
174.383260
 20
403.934174
 42
0.123715
  0
VERTEX
  8
0
 10
173.512491
 20
401.220784
 42
0.129669
  0
VERTEX
  8
0
 10
174.044522
 20
398.506325
 42
0.075179
  0
VERTEX
  8
0
 10
175.937390
 20
395.748532
 42
0.000000
  0
VERTEX
  8
0
 10
178.926277
 20
392.550428
 42
0.000000
  0
VERTEX
  8
0
 10
176.832671
 20
390.321887
 42
0.041331
  0
VERTEX
  8
0
 10
175.708501
 20
388.907513
 42
0.113067
  0
VERTEX
  8
0
 10
175.256934
 20
387.721437
 42
0.081529
  0
VERTEX
  8
0
 10
175.292819
 20
386.232511
 42
0.014971
  0
VERTEX
  8
0
 10
175.886262
 20
383.537416
 42
-0.021695
  0
VERTEX
  8
0
 10
176.281658
 20
381.619316
 42
-0.020074
  0
VERTEX
  8
0
 10
176.521798
 20
379.623847
 42
-0.020529
  0
VERTEX
  8
0
 10
176.590981
 20
377.831109
 42
-0.060931
  0
VERTEX
  8
0
 10
176.438833
 20
376.612315
 42
0.104557
  0
VERTEX
  8
0
 10
176.383175
 20
375.130658
 42
0.037579
  0
VERTEX
  8
0
 10
176.899809
 20
373.072475
 42
0.028186
  0
VERTEX
  8
0
 10
177.950643
 20
370.421642
 42
0.012194
  0
VERTEX
  8
0
 10
179.630285
 20
367.015743
 42
-0.012557
  0
VERTEX
  8
0
 10
181.671946
 20
362.868184
 42
-0.040980
  0
VERTEX
  8
0
 10
182.721545
 20
359.996419
 42
-0.048765
  0
VERTEX
  8
0
 10
183.192945
 20
357.267256
 42
-0.023846
  0
VERTEX
  8
0
 10
183.284485
 20
353.734248
 42
0.017322
  0
VERTEX
  8
0
 10
183.329840
 20
350.207736
 42
0.061419
  0
VERTEX
  8
0
 10
183.712281
 20
347.982259
 42
0.066828
  0
VERTEX
  8
0
 10
184.605883
 20
346.014761
 42
0.023089
  0
VERTEX
  8
0
 10
186.387572
 20
343.443449
 42
-0.020317
  0
VERTEX
  8
0
 10
188.016912
 20
341.119619
 42
-0.056509
  0
VERTEX
  8
0
 10
188.897048
 20
339.334060
 42
-0.069838
  0
VERTEX
  8
0
 10
189.253232
 20
337.626275
 42
-0.045628
  0
VERTEX
  8
0
 10
189.202798
 20
335.611394
 42
-0.049489
  0
VERTEX
  8
0
 10
188.768130
 20
333.622033
 42
-0.184762
  0
VERTEX
  8
0
 10
187.977520
 20
332.643185
 42
-0.450124
  0
VERTEX
  8
0
 10
187.279442
 20
332.874471
 42
-0.092976
  0
VERTEX
  8
0
 10
186.959359
 20
334.309017
 42
0.115338
  0
VERTEX
  8
0
 10
186.785672
 20
334.952151
 42
0.019463
  0
VERTEX
  8
0
 10
186.134783
 20
336.057070
 42
0.020385
  0
VERTEX
  8
0
 10
185.249644
 20
337.318031
 42
0.016870
  0
VERTEX
  8
0
 10
184.209359
 20
338.587393
 42
0.080306
  0
VERTEX
  8
0
 10
181.319521
 20
340.973704
 42
0.041897
  0
VERTEX
  8
0
 10
177.095140
 20
342.994743
 42
0.040525
  0
VERTEX
  8
0
 10
172.333714
 20
344.371579
 42
0.051395
  0
VERTEX
  8
0
 10
167.779837
 20
344.818292
 42
-0.043289
  0
VERTEX
  8
0
 10
166.116908
 20
344.954300
 42
-0.026240
  0
VERTEX
  8
0
 10
164.189020
 20
345.386623
 42
-0.026178
  0
VERTEX
  8
0
 10
162.306387
 20
346.021829
 42
-0.041296
  0
VERTEX
  8
0
 10
160.779837
 20
346.778721
 42
0.017881
  0
VERTEX
  8
0
 10
159.268422
 20
347.618367
 42
0.010872
  0
VERTEX
  8
0
 10
157.427418
 20
348.506723
 42
0.010890
  0
VERTEX
  8
0
 10
155.560839
 20
349.309266
 42
0.018866
  0
VERTEX
  8
0
 10
153.973075
 20
349.882652
 42
-0.058933
  0
VERTEX
  8
0
 10
150.392342
 20
351.509954
 42
-0.039037
  0
VERTEX
  8
0
 10
146.719096
 20
354.145214
 42
-0.037439
  0
VERTEX
  8
0
 10
143.802088
 20
357.003322
 42
-0.182164
  0
VERTEX
  8
0
 10
143.000000
 20
359.131821
 42
0.049837
  0
VERTEX
  8
0
 10
142.928311
 20
359.849265
 42
0.108416
  0
VERTEX
  8
0
 10
142.706250
 20
360.353036
 42
0.184382
  0
VERTEX
  8
0
 10
142.378264
 20
360.565570
 42
0.193324
  0
VERTEX
  8
0
 10
142.000000
 20
360.500000
 42
-0.093667
  0
VERTEX
  8
0
 10
141.618437
 20
360.353415
 42
-0.171987
  0
VERTEX
  8
0
 10
141.293750
 20
360.406028
 42
-0.173661
  0
VERTEX
  8
0
 10
141.076773
 20
360.650630
 42
-0.095723
  0
VERTEX
  8
0
 10
141.000000
 20
361.047972
 42
0.154897
  0
VERTEX
  8
0
 10
140.871655
 20
361.452323
 42
0.159998
  0
VERTEX
  8
0
 10
140.535055
 20
361.702303
 42
0.113673
  0
VERTEX
  8
0
 10
140.012448
 20
361.752158
 42
0.058853
  0
VERTEX
  8
0
 10
139.373252
 20
361.589736
 42
-0.078337
  0
VERTEX
  8
0
 10
138.649199
 20
361.435369
 42
-0.056022
  0
VERTEX
  8
0
 10
137.820968
 20
361.483651
 42
-0.055741
  0
VERTEX
  8
0
 10
137.019189
 20
361.715529
 42
-0.075099
  0
VERTEX
  8
0
 10
136.373252
 20
362.105192
 42
0.031948
  0
VERTEX
  8
0
 10
135.845536
 20
362.489027
 42
0.076575
  0
VERTEX
  8
0
 10
135.403393
 20
362.682313
 42
0.172151
  0
VERTEX
  8
0
 10
135.122819
 20
362.659343
 42
0.295188
  0
VERTEX
  8
0
 10
135.000000
 20
362.469435
 42
-0.481485
  0
VERTEX
  8
0
 10
134.849297
 20
362.349218
 42
-0.097396
  0
VERTEX
  8
0
 10
134.485938
 20
362.510738
 42
-0.042198
  0
VERTEX
  8
0
 10
133.922752
 20
362.982043
 42
-0.018013
  0
VERTEX
  8
0
 10
133.250000
 20
363.698978
 42
0.059907
  0
VERTEX
  8
0
 10
131.181039
 20
365.563731
 42
0.034259
  0
VERTEX
  8
0
 10
128.302313
 20
367.310411
 42
0.034260
  0
VERTEX
  8
0
 10
125.323043
 20
368.599587
 42
0.085179
  0
VERTEX
  8
0
 10
122.989669
 20
369.000000
 42
-0.099227
  0
VERTEX
  8
0
 10
121.881709
 20
369.222065
 42
-0.022157
  0
VERTEX
  8
0
 10
120.127629
 20
370.047675
 42
-0.022162
  0
VERTEX
  8
0
 10
118.152090
 20
371.201309
 42
-0.019818
  0
VERTEX
  8
0
 10
116.209043
 20
372.566554
 42
0.016865
  0
VERTEX
  8
0
 10
113.548059
 20
374.459808
 42
0.059326
  0
VERTEX
  8
0
 10
111.674261
 20
375.402581
 42
0.075709
  0
VERTEX
  8
0
 10
109.883548
 20
375.759072
 42
0.040116
  0
VERTEX
  8
0
 10
107.616456
 20
375.680119
 42
-0.048094
  0
VERTEX
  8
0
 10
103.871396
 20
375.609379
 42
-0.056097
  0
VERTEX
  8
0
 10
100.378351
 20
376.278641
 42
-0.044693
  0
VERTEX
  8
0
 10
96.537711
 20
377.860531
 42
-0.018243
  0
VERTEX
  8
0
 10
91.623513
 20
380.651519
 42
0.020273
  0
VERTEX
  8
0
 10
89.018899
 20
382.116843
 42
0.016180
  0
VERTEX
  8
0
 10
86.102684
 20
383.488171
 42
0.016473
  0
VERTEX
  8
0
 10
83.316408
 20
384.582542
 42
0.039176
  0
VERTEX
  8
0
 10
81.168653
 20
385.160804
 42
-0.020430
  0
VERTEX
  8
0
 10
79.324085
 20
385.584038
 42
-0.020296
  0
VERTEX
  8
0
 10
77.516093
 20
386.157183
 42
-0.020638
  0
VERTEX
  8
0
 10
75.980336
 20
386.786384
 42
-0.070873
  0
VERTEX
  8
0
 10
75.076247
 20
387.367948
 42
0.045367
  0
VERTEX
  8
0
 10
74.285714
 20
387.935257
 42
0.022508
  0
VERTEX
  8
0
 10
73.193984
 20
388.513066
 42
0.022134
  0
VERTEX
  8
0
 10
71.999759
 20
389.014480
 42
0.030167
  0
VERTEX
  8
0
 10
70.881997
 20
389.351614
 42
-0.086685
  0
VERTEX
  8
0
 10
69.626430
 20
389.890707
 42
-0.026127
  0
VERTEX
  8
0
 10
67.942733
 20
391.120220
 42
-0.025320
  0
VERTEX
  8
0
 10
66.165671
 20
392.722130
 42
-0.025027
  0
VERTEX
  8
0
 10
64.552334
 20
394.501438
 42
0.032226
  0
VERTEX
  8
0
 10
61.549336
 20
397.719106
 42
0.044022
  0
VERTEX
  8
0
 10
58.436704
 20
400.172341
 42
0.054861
  0
VERTEX
  8
0
 10
55.827357
 20
401.497395
 42
0.358663
  0
VERTEX
  8
0
 10
54.535231
 20
401.057005
 42
0.123893
  0
VERTEX
  8
0
 10
54.346717
 20
400.462458
 42
0.018686
  0
VERTEX
  8
0
 10
54.317568
 20
399.203372
 42
0.020000
  0
VERTEX
  8
0
 10
54.400022
 20
397.683997
 42
0.016090
  0
VERTEX
  8
0
 10
54.606289
 20
396.060672
 42
-0.012669
  0
VERTEX
  8
0
 10
54.911414
 20
393.783968
 42
-0.097683
  0
VERTEX
  8
0
 10
54.818552
 20
392.717549
 42
-0.224229
  0
VERTEX
  8
0
 10
54.353413
 20
392.190167
 42
-0.102069
  0
VERTEX
  8
0
 10
53.431559
 20
392.000000
 42
-0.088057
  0
VERTEX
  8
0
 10
52.483081
 20
392.168346
 42
-0.021831
  0
VERTEX
  8
0
 10
51.020646
 20
392.778013
 42
-0.021648
  0
VERTEX
  8
0
 10
49.382677
 20
393.634761
 42
-0.020203
  0
VERTEX
  8
0
 10
47.785637
 20
394.648553
 42
0.014424
  0
VERTEX
  8
0
 10
44.846244
 20
396.562469
 42
0.207251
  0
VERTEX
  8
0
 10
43.638759
 20
396.732143
 42
0.520672
  0
VERTEX
  8
0
 10
43.401518
 20
396.064846
 42
0.025826
  0
VERTEX
  8
0
 10
45.108967
 20
393.910323
 42
-0.017820
  0
VERTEX
  8
0
 10
47.562092
 20
390.914638
 42
-0.045465
  0
VERTEX
  8
0
 10
49.050854
 20
388.538170
 42
-0.061908
  0
VERTEX
  8
0
 10
49.810012
 20
386.426530
 42
-0.072132
  0
VERTEX
  8
0
 10
49.974875
 20
384.302154
 42
0.005748
  0
VERTEX
  8
0
 10
49.911149
 20
383.146104
 42
0.005761
  0
VERTEX
  8
0
 10
49.874074
 20
381.989729
 42
0.005644
  0
VERTEX
  8
0
 10
49.864746
 20
380.980321
 42
0.022765
  0
VERTEX
  8
0
 10
49.894037
 20
380.365010
 42
0.188652
  0
VERTEX
  8
0
 10
50.426494
 20
379.306359
 42
0.024081
  0
VERTEX
  8
0
 10
52.439054
 20
377.666493
 42
0.028380
  0
VERTEX
  8
0
 10
54.675701
 20
376.204903
 42
0.085798
  0
VERTEX
  8
0
 10
56.378685
 20
375.581541
 42
-0.040059
  0
VERTEX
  8
0
 10
58.974036
 20
374.891702
 42
-0.092275
  0
VERTEX
  8
0
 10
60.716134
 20
373.885210
 42
-0.096523
  0
VERTEX
  8
0
 10
61.932557
 20
372.351142
 42
-0.046753
  0
VERTEX
  8
0
 10
62.875691
 20
370.020569
 42
0.035753
  0
VERTEX
  8
0
 10
63.569360
 20
368.191959
 42
0.016513
  0
VERTEX
  8
0
 10
64.715430
 20
365.919299
 42
0.016260
  0
VERTEX
  8
0
 10
66.082880
 20
363.599348
 42
0.021714
  0
VERTEX
  8
0
 10
67.480331
 20
361.593711
 42
-0.011051
  0
VERTEX
  8
0
 10
68.934602
 20
359.598587
 42
-0.007925
  0
VERTEX
  8
0
 10
70.474331
 20
357.308467
 42
-0.008008
  0
VERTEX
  8
0
 10
71.871588
 20
355.080058
 42
-0.017030
  0
VERTEX
  8
0
 10
72.864882
 20
353.304191
 42
0.026335
  0
VERTEX
  8
0
 10
73.779705
 20
351.737742
 42
0.022044
  0
VERTEX
  8
0
 10
74.906618
 20
350.176856
 42
0.022613
  0
VERTEX
  8
0
 10
76.066355
 20
348.840124
 42
0.055088
  0
VERTEX
  8
0
 10
77.061976
 20
348.000000
 42
-0.012613
  0
VERTEX
  8
0
 10
81.337650
 20
344.972951
 42
-0.021207
  0
VERTEX
  8
0
 10
84.746787
 20
342.195267
 42
-0.025310
  0
VERTEX
  8
0
 10
87.294316
 20
339.691661
 42
-0.059362
  0
VERTEX
  8
0
 10
88.853279
 20
337.530434
 42
0.011214
  0
VERTEX
  8
0
 10
89.575419
 20
336.294380
 42
0.009839
  0
VERTEX
  8
0
 10
90.383463
 20
335.036068
 42
0.009937
  0
VERTEX
  8
0
 10
91.157958
 20
333.928874
 42
0.029008
  0
VERTEX
  8
0
 10
91.750000
 20
333.209005
 42
-0.032570
  0
VERTEX
  8
0
 10
92.228368
 20
332.618841
 42
-0.031339
  0
VERTEX
  8
0
 10
92.632812
 20
331.964148
 42
-0.032908
  0
VERTEX
  8
0
 10
92.914179
 20
331.342339
 42
-0.090026
  0
VERTEX
  8
0
 10
93.000000
 20
330.869554
 42
0.127190
  0
VERTEX
  8
0
 10
93.083684
 20
330.545902
 42
0.189136
  0
VERTEX
  8
0
 10
93.306618
 20
330.361570
 42
0.147203
  0
VERTEX
  8
0
 10
93.644416
 20
330.353213
 42
0.071622
  0
VERTEX
  8
0
 10
94.043805
 20
330.527073
 42
-0.126816
  0
VERTEX
  8
0
 10
94.550789
 20
330.684618
 42
-0.067771
  0
VERTEX
  8
0
 10
95.208749
 20
330.627673
 42
-0.060580
  0
VERTEX
  8
0
 10
95.909241
 20
330.377768
 42
-0.057320
  0
VERTEX
  8
0
 10
96.543805
 20
329.963645
 42
0.023623
  0
VERTEX
  8
0
 10
97.233540
 20
329.444201
 42
0.137099
  0
VERTEX
  8
0
 10
97.660937
 20
329.299833
 42
0.310996
  0
VERTEX
  8
0
 10
97.907751
 20
329.451081
 42
0.104879
  0
VERTEX
  8
0
 10
98.000000
 20
329.886029
 42
-0.477192
  0
VERTEX
  8
0
 10
98.611879
 20
330.381162
 42
-0.103588
  0
VERTEX
  8
0
 10
100.051427
 20
329.744189
 42
-0.059619
  0
VERTEX
  8
0
 10
101.739392
 20
328.196351
 42
-0.095062
  0
VERTEX
  8
0
 10
102.709299
 20
326.502475
 42
-0.021190
  0
VERTEX
  8
0
 10
102.955081
 20
325.673089
 42
-0.022069
  0
VERTEX
  8
0
 10
103.125952
 20
324.836994
 42
-0.022422
  0
VERTEX
  8
0
 10
103.208801
 20
324.104496
 42
-0.083694
  0
VERTEX
  8
0
 10
103.163038
 20
323.644740
 42
0.122112
  0
VERTEX
  8
0
 10
103.153179
 20
323.219593
 42
0.042514
  0
VERTEX
  8
0
 10
103.338357
 20
322.631008
 42
0.039181
  0
VERTEX
  8
0
 10
103.661643
 20
321.991587
 42
0.036589
  0
VERTEX
  8
0
 10
104.087358
 20
321.394740
 42
-0.026019
  0
VERTEX
  8
0
 10
104.486928
 20
320.858856
 42
-0.059308
  0
VERTEX
  8
0
 10
104.715191
 20
320.409705
 42
-0.129834
  0
VERTEX
  8
0
 10
104.742240
 20
320.121232
 42
-0.366748
  0
VERTEX
  8
0
 10
104.599191
 20
320.000000
 42
0.585770
  0
VERTEX
  8
0
 10
104.492720
 20
319.810107
 42
0.009189
  0
VERTEX
  8
0
 10
105.320280
 20
318.510840
 42
0.013479
  0
VERTEX
  8
0
 10
106.469212
 20
316.875603
 42
0.007366
  0
VERTEX
  8
0
 10
107.960687
 20
314.930520
 42
-0.015258
  0
VERTEX
  8
0
 10
109.634283
 20
312.675089
 42
-0.011302
  0
VERTEX
  8
0
 10
111.349698
 20
310.086643
 42
-0.011446
  0
VERTEX
  8
0
 10
112.859458
 20
307.566681
 42
-0.025108
  0
VERTEX
  8
0
 10
113.870625
 20
305.559569
 42
0.025947
  0
VERTEX
  8
0
 10
115.449690
 20
302.438249
 42
0.093354
  0
VERTEX
  8
0
 10
116.891777
 20
300.748226
 42
0.110794
  0
VERTEX
  8
0
 10
118.708716
 20
299.853597
 42
0.044642
  0
VERTEX
  8
0
 10
121.460188
 20
299.444445
 42
-0.002140
  0
VERTEX
  8
0
 10
122.700247
 20
299.366621
 42
-0.002286
  0
VERTEX
  8
0
 10
123.912562
 20
299.279758
 42
-0.002169
  0
VERTEX
  8
0
 10
124.954181
 20
299.195791
 42
-0.010691
  0
VERTEX
  8
0
 10
125.540025
 20
299.133365
 42
-0.119444
  0
VERTEX
  8
0
 10
126.148180
 20
298.900768
 42
-0.010264
  0
VERTEX
  8
0
 10
127.509684
 20
297.921388
 42
-0.013087
  0
VERTEX
  8
0
 10
129.098469
 20
296.661924
 42
-0.009776
  0
VERTEX
  8
0
 10
130.784789
 20
295.194764
 42
-0.014770
  0
VERTEX
  8
0
 10
132.693541
 20
293.361960
 42
-0.051347
  0
VERTEX
  8
0
 10
133.758978
 20
292.026912
 42
-0.099502
  0
VERTEX
  8
0
 10
134.145101
 20
291.039015
 42
-0.244622
  0
VERTEX
  8
0
 10
133.917491
 20
290.317491
 42
0.334637
  0
VERTEX
  8
0
 10
133.723716
 20
288.937963
 42
0.071108
  0
VERTEX
  8
0
 10
135.284156
 20
286.877927
 42
0.041532
  0
VERTEX
  8
0
 10
138.438492
 20
284.234354
 42
0.014952
  0
VERTEX
  8
0
 10
143.325828
 20
281.000000
 42
-0.008868
  0
VERTEX
  8
0
 10
145.491466
 20
279.604405
 42
-0.013441
  0
VERTEX
  8
0
 10
147.318983
 20
278.307813
 42
-0.008077
  0
VERTEX
  8
0
 10
148.779362
 20
277.174179
 42
-0.222987
  0
VERTEX
  8
0
 10
148.987281
 20
276.750000
 42
-0.347482
  0
VERTEX
  8
0
 10
148.516084
 20
276.132613
 42
-0.131958
  0
VERTEX
  8
0
 10
147.358084
 20
276.146936
 42
-0.058685
  0
VERTEX
  8
0
 10
145.475476
 20
276.925206
 42
-0.022281
  0
VERTEX
  8
0
 10
143.053751
 20
278.422654
 42
0.037455
  0
VERTEX
  8
0
 10
138.956131
 20
280.787740
 42
0.153931
  0
VERTEX
  8
0
 10
136.153117
 20
281.191712
 42
0.206268
  0
VERTEX
  8
0
 10
134.115986
 20
279.888386
 42
0.073514
  0
VERTEX
  8
0
 10
132.587651
 20
276.708603
 42
-0.055691
  0
VERTEX
  8
0
 10
132.168632
 20
275.751197
 42
-0.294948
  0
VERTEX
  8
0
 10
131.683113
 20
275.502519
 42
-0.125676
  0
VERTEX
  8
0
 10
130.938959
 20
275.774428
 42
-0.009069
  0
VERTEX
  8
0
 10
129.138616
 20
277.055638
 42
0.060148
  0
VERTEX
  8
0
 10
126.727688
 20
278.424821
 42
0.119908
  0
VERTEX
  8
0
 10
124.573572
 20
278.767280
 42
0.172635
  0
VERTEX
  8
0
 10
123.001571
 20
278.059760
 42
0.156882
  0
VERTEX
  8
0
 10
122.153875
 20
276.488516
 42
-0.052719
  0
VERTEX
  8
0
 10
121.426369
 20
274.040453
 42
-0.202626
  0
VERTEX
  8
0
 10
120.317648
 20
272.950740
 42
-0.175647
  0
VERTEX
  8
0
 10
118.645495
 20
272.901957
 42
-0.038309
  0
VERTEX
  8
0
 10
115.941965
 20
274.029607
 42
0.022907
  0
VERTEX
  8
0
 10
112.682273
 20
275.508577
 42
0.108480
  0
VERTEX
  8
0
 10
110.671135
 20
275.841431
 42
0.111685
  0
VERTEX
  8
0
 10
108.735137
 20
275.296146
 42
0.024969
  0
VERTEX
  8
0
 10
105.785188
 20
273.500000
 42
-0.025044
  0
VERTEX
  8
0
 10
102.925528
 20
271.759416
 42
-0.095059
  0
VERTEX
  8
0
 10
100.940399
 20
271.129773
 42
-0.150434
  0
VERTEX
  8
0
 10
99.372616
 20
271.416737
 42
-0.099933
  0
VERTEX
  8
0
 10
97.939342
 20
272.573088
 42
0.077323
  0
VERTEX
  8
0
 10
96.097418
 20
274.200789
 42
0.025165
  0
VERTEX
  8
0
 10
92.936004
 20
276.007017
 42
0.017556
  0
VERTEX
  8
0
 10
89.706285
 20
277.502519
 42
0.304942
  0
VERTEX
  8
0
 10
88.623822
 20
277.290488
 42
0.107330
  0
VERTEX
  8
0
 10
88.380969
 20
276.912900
 42
0.030036
  0
VERTEX
  8
0
 10
88.173905
 20
276.237935
 42
0.028829
  0
VERTEX
  8
0
 10
88.026302
 20
275.426629
 42
0.026771
  0
VERTEX
  8
0
 10
87.968197
 20
274.583333
 42
-0.052906
  0
VERTEX
  8
0
 10
87.854883
 20
273.651258
 42
-0.030694
  0
VERTEX
  8
0
 10
87.534106
 20
272.568650
 42
-0.030382
  0
VERTEX
  8
0
 10
87.074116
 20
271.510807
 42
-0.044387
  0
VERTEX
  8
0
 10
86.535101
 20
270.650367
 42
-0.056200
  0
VERTEX
  8
0
 10
85.638618
 20
269.708342
 42
-0.138991
  0
VERTEX
  8
0
 10
84.776574
 20
269.321649
 42
-0.097015
  0
VERTEX
  8
0
 10
83.641981
 20
269.376113
 42
-0.019348
  0
VERTEX
  8
0
 10
81.683066
 20
269.939583
 42
0.031275
  0
VERTEX
  8
0
 10
79.737509
 20
270.449329
 42
0.068838
  0
VERTEX
  8
0
 10
78.205867
 20
270.535587
 42
0.065266
  0
VERTEX
  8
0
 10
76.658052
 20
270.203175
 42
0.025774
  0
VERTEX
  8
0
 10
74.642647
 20
269.366633
 42
-0.020880
  0
VERTEX
  8
0
 10
72.583645
 20
268.488282
 42
-0.075869
  0
VERTEX
  8
0
 10
71.196324
 20
268.192560
 42
-0.090140
  0
VERTEX
  8
0
 10
69.913184
 20
268.348872
 42
-0.037066
  0
VERTEX
  8
0
 10
68.276485
 20
268.993338
 42
0.018655
  0
VERTEX
  8
0
 10
65.319992
 20
270.285036
 42
0.161101
  0
VERTEX
  8
0
 10
63.902628
 20
270.363278
 42
0.240213
  0
VERTEX
  8
0
 10
63.025287
 20
269.568913
 42
0.044543
  0
VERTEX
  8
0
 10
62.416653
 20
267.407415
 42
-0.033956
  0
VERTEX
  8
0
 10
62.040726
 20
265.955365
 42
-0.064019
  0
VERTEX
  8
0
 10
61.516079
 20
264.866712
 42
-0.086993
  0
VERTEX
  8
0
 10
60.872384
 20
264.176440
 42
-0.148635
  0
VERTEX
  8
0
 10
60.138709
 20
263.907263
 42
-0.018669
  0
VERTEX
  8
0
 10
57.164517
 20
263.850158
 42
-0.008044
  0
VERTEX
  8
0
 10
53.200172
 20
263.985880
 42
-0.007626
  0
VERTEX
  8
0
 10
49.349482
 20
264.238695
 42
-0.028332
  0
VERTEX
  8
0
 10
46.941830
 20
264.571751
 42
0.080768
  0
VERTEX
  8
0
 10
45.503511
 20
264.619121
 42
0.083041
  0
VERTEX
  8
0
 10
44.139118
 20
264.206070
 42
0.058188
  0
VERTEX
  8
0
 10
42.626296
 20
263.223734
 42
0.019659
  0
VERTEX
  8
0
 10
40.667891
 20
261.465935
 42
-0.026020
  0
VERTEX
  8
0
 10
38.506658
 20
259.575143
 42
-0.060008
  0
VERTEX
  8
0
 10
36.665720
 20
258.454407
 42
-0.059570
  0
VERTEX
  8
0
 10
34.602904
 20
257.798216
 42
-0.025323
  0
VERTEX
  8
0
 10
31.726061
 20
257.397649
 42
-0.005232
  0
VERTEX
  8
0
 10
27.151782
 20
257.043585
 42
-0.019840
  0
VERTEX
  8
0
 10
24.285121
 20
256.965851
 42
-0.025865
  0
VERTEX
  8
0
 10
21.820710
 20
257.124493
 42
-0.014199
  0
VERTEX
  8
0
 10
18.827573
 20
257.559730
 42
0.024243
  0
VERTEX
  8
0
 10
16.651882
 20
257.831611
 42
0.128210
  0
VERTEX
  8
0
 10
15.479542
 20
257.619266
 42
0.136707
  0
VERTEX
  8
0
 10
14.599029
 20
256.868627
 42
0.028976
  0
VERTEX
  8
0
 10
13.560646
 20
255.117277
 42
-0.076035
  0
VERTEX
  8
0
 10
11.840114
 20
252.752694
 42
-0.059509
  0
VERTEX
  8
0
 10
9.351506
 20
250.776570
 42
-0.059768
  0
VERTEX
  8
0
 10
6.480448
 20
249.449954
 42
-0.078523
  0
VERTEX
  8
0
 10
3.632993
 20
249.000000
 42
0.097585
  0
VERTEX
  8
0
 10
1.691525
 20
248.617442
 42
0.246125
  0
VERTEX
  8
0
 10
0.792185
 20
247.547610
 42
0.147207
  0
VERTEX
  8
0
 10
0.932879
 20
245.698473
 42
0.033423
  0
VERTEX
  8
0
 10
2.273310
 20
242.814460
 42
0.048918
  0
VERTEX
  8
0
 10
3.574213
 20
240.911539
 42
0.046907
  0
VERTEX
  8
0
 10
5.236813
 20
239.267994
 42
0.038414
  0
VERTEX
  8
0
 10
7.465774
 20
237.713117
 42
0.018713
  0
VERTEX
  8
0
 10
10.520627
 20
236.064460
 42
0.012370
  0
VERTEX
  8
0
 10
14.839068
 20
234.069649
 42
0.051043
  0
VERTEX
  8
0
 10
17.579625
 20
233.203865
 42
0.102700
  0
VERTEX
  8
0
 10
19.365795
 20
233.205093
 42
0.205797
  0
VERTEX
  8
0
 10
20.500000
 20
234.000000
 42
-0.205128
  0
VERTEX
  8
0
 10
21.595610
 20
234.769957
 42
-0.143600
  0
VERTEX
  8
0
 10
23.119693
 20
234.651891
 42
-0.058953
  0
VERTEX
  8
0
 10
25.451172
 20
233.437112
 42
-0.011025
  0
VERTEX
  8
0
 10
29.379552
 20
230.631709
 42
0.014042
  0
VERTEX
  8
0
 10
32.376060
 20
228.518970
 42
0.038928
  0
VERTEX
  8
0
 10
34.627218
 20
227.265016
 42
0.055367
  0
VERTEX
  8
0
 10
36.516457
 20
226.639392
 42
0.073646
  0
VERTEX
  8
0
 10
38.319657
 20
226.527201
 42
-0.031647
  0
VERTEX
  8
0
 10
39.691915
 20
226.556868
 42
-0.021264
  0
VERTEX
  8
0
 10
41.255152
 20
226.424964
 42
-0.021453
  0
VERTEX
  8
0
 10
42.763642
 20
226.166642
 42
-0.039137
  0
VERTEX
  8
0
 10
43.959779
 20
225.808744
 42
0.051174
  0
VERTEX
  8
0
 10
45.413661
 20
225.411519
 42
0.010821
  0
VERTEX
  8
0
 10
48.019446
 20
225.036844
 42
0.011224
  0
VERTEX
  8
0
 10
51.073699
 20
224.734350
 42
0.010443
  0
VERTEX
  8
0
 10
54.212802
 20
224.560314
 42
-0.011532
  0
VERTEX
  8
0
 10
58.537514
 20
224.311100
 42
-0.044522
  0
VERTEX
  8
0
 10
61.185686
 20
223.857585
 42
-0.061179
  0
VERTEX
  8
0
 10
63.264555
 20
223.025325
 42
-0.037166
  0
VERTEX
  8
0
 10
65.486284
 20
221.578259
 42
0.041595
  0
VERTEX
  8
0
 10
68.564481
 20
219.611909
 42
0.170008
  0
VERTEX
  8
0
 10
70.725475
 20
219.288570
 42
0.234059
  0
VERTEX
  8
0
 10
72.188359
 20
220.396309
 42
0.079734
  0
VERTEX
  8
0
 10
73.007940
 20
223.011353
 42
-0.108103
  0
VERTEX
  8
0
 10
73.917284
 20
225.427579
 42
-0.298069
  0
VERTEX
  8
0
 10
75.504903
 20
226.129162
 42
-0.127220
  0
VERTEX
  8
0
 10
78.009668
 20
225.021567
 42
-0.020574
  0
VERTEX
  8
0
 10
82.083002
 20
221.516413
 42
0.024411
  0
VERTEX
  8
0
 10
84.115050
 20
219.794763
 42
0.023521
  0
VERTEX
  8
0
 10
86.329825
 20
218.256527
 42
0.024598
  0
VERTEX
  8
0
 10
88.434764
 20
217.076820
 42
0.062762
  0
VERTEX
  8
0
 10
90.083002
 20
216.500661
 42
-0.012179
  0
VERTEX
  8
0
 10
91.464507
 20
216.169488
 42
-0.013238
  0
VERTEX
  8
0
 10
92.790007
 20
215.779549
 42
-0.012791
  0
VERTEX
  8
0
 10
93.904668
 20
215.387552
 42
-0.061128
  0
VERTEX
  8
0
 10
94.500000
 20
215.073175
 42
0.092875
  0
VERTEX
  8
0
 10
95.689321
 20
214.538149
 42
0.105102
  0
VERTEX
  8
0
 10
96.938524
 20
214.503062
 42
0.107730
  0
VERTEX
  8
0
 10
98.070555
 20
214.976332
 42
0.102002
  0
VERTEX
  8
0
 10
98.929141
 20
215.885347
 42
-0.238189
  0
VERTEX
  8
0
 10
100.342044
 20
216.750749
 42
-0.088149
  0
VERTEX
  8
0
 10
102.733061
 20
216.525457
 42
-0.067772
  0
VERTEX
  8
0
 10
105.542249
 20
215.320741
 42
-0.055003
  0
VERTEX
  8
0
 10
108.152791
 20
213.334718
 42
0.006800
  0
VERTEX
  8
0
 10
109.921678
 20
211.697847
 42
0.152298
  0
VERTEX
  8
0
 10
110.548096
 20
211.409965
 42
0.329350
  0
VERTEX
  8
0
 10
110.989496
 20
211.655601
 42
0.029841
  0
VERTEX
  8
0
 10
111.470179
 20
212.906041
 42
-0.157924
  0
VERTEX
  8
0
 10
112.444578
 20
214.269210
 42
-0.130390
  0
VERTEX
  8
0
 10
114.112767
 20
214.930915
 42
-0.081992
  0
VERTEX
  8
0
 10
116.562996
 20
214.819814
 42
-0.031635
  0
VERTEX
  8
0
 10
119.850777
 20
213.902175
 42
0.034795
  0
VERTEX
  8
0
 10
121.462667
 20
213.463235
 42
0.046991
  0
VERTEX
  8
0
 10
122.964787
 20
213.308889
 42
0.047874
  0
VERTEX
  8
0
 10
124.447268
 20
213.438480
 42
0.038159
  0
VERTEX
  8
0
 10
125.999625
 20
213.850025
 42
-0.054944
  0
VERTEX
  8
0
 10
127.797215
 20
214.262680
 42
-0.041563
  0
VERTEX
  8
0
 10
129.822288
 20
214.329114
 42
-0.030913
  0
VERTEX
  8
0
 10
132.347578
 20
214.044858
 42
-0.012472
  0
VERTEX
  8
0
 10
135.749625
 20
213.359330
 42
0.003041
  0
VERTEX
  8
0
 10
143.045543
 20
211.745398
 42
0.028432
  0
VERTEX
  8
0
 10
146.225069
 20
211.249322
 42
0.073086
  0
VERTEX
  8
0
 10
148.102051
 20
211.339461
 42
0.125357
  0
VERTEX
  8
0
 10
149.509159
 20
212.007601
 42
-0.046633
  0
VERTEX
  8
0
 10
150.542529
 20
212.713848
 42
-0.501940
  0
VERTEX
  8
0
 10
150.937342
 20
212.535605
 42
-0.162485
  0
VERTEX
  8
0
 10
150.851209
 20
211.724732
 42
-0.015856
  0
VERTEX
  8
0
 10
149.964816
 20
209.934259
 42
-0.088908
  0
VERTEX
  8
0
 10
149.258860
 20
209.040889
 42
-0.087425
  0
VERTEX
  8
0
 10
148.282719
 20
208.442021
 42
-0.065959
  0
VERTEX
  8
0
 10
146.930040
 20
208.105032
 42
-0.028115
  0
VERTEX
  8
0
 10
145.063592
 20
208.000000
 42
0.031564
  0
VERTEX
  8
0
 10
142.896149
 20
207.863039
 42
0.099993
  0
VERTEX
  8
0
 10
141.525529
 20
207.400393
 42
0.098474
  0
VERTEX
  8
0
 10
140.430322
 20
206.437541
 42
0.030074
  0
VERTEX
  8
0
 10
139.191382
 20
204.599795
 42
-0.039095
  0
VERTEX
  8
0
 10
138.121476
 20
203.072884
 42
-0.051710
  0
VERTEX
  8
0
 10
136.912848
 20
201.881718
 42
-0.055803
  0
VERTEX
  8
0
 10
135.567812
 20
201.032249
 42
-0.058970
  0
VERTEX
  8
0
 10
134.092606
 20
200.520340
 42
0.036482
  0
VERTEX
  8
0
 10
132.664412
 20
200.095493
 42
0.088144
  0
VERTEX
  8
0
 10
131.721701
 20
199.533091
 42
0.116941
  0
VERTEX
  8
0
 10
131.188503
 20
198.792875
 42
0.098167
  0
VERTEX
  8
0
 10
131.000000
 20
197.842016
 42
-0.163858
  0
VERTEX
  8
0
 10
130.254711
 20
195.628885
 42
-0.027560
  0
VERTEX
  8
0
 10
127.317409
 20
192.175139
 42
-0.030263
  0
VERTEX
  8
0
 10
123.923855
 20
189.011083
 42
-0.097734
  0
VERTEX
  8
0
 10
121.223359
 20
187.553080
 42
0.100851
  0
VERTEX
  8
0
 10
119.096999
 20
186.388045
 42
0.079289
  0
VERTEX
  8
0
 10
117.379949
 20
184.391582
 42
0.083075
  0
VERTEX
  8
0
 10
116.431439
 20
182.059465
 42
0.132733
  0
VERTEX
  8
0
 10
116.524206
 20
179.923734
 42
-0.020978
  0
VERTEX
  8
0
 10
116.784167
 20
178.967262
 42
-0.124733
  0
VERTEX
  8
0
 10
116.771455
 20
178.453835
 42
-0.360375
  0
VERTEX
  8
0
 10
116.537172
 20
178.291453
 42
-0.117507
  0
VERTEX
  8
0
 10
116.107134
 20
178.433788
 42
0.072602
  0
VERTEX
  8
0
 10
115.683565
 20
178.617192
 42
0.148598
  0
VERTEX
  8
0
 10
115.325221
 20
178.605950
 42
0.188653
  0
VERTEX
  8
0
 10
115.088557
 20
178.406886
 42
0.125287
  0
VERTEX
  8
0
 10
115.000000
 20
178.059017
 42
-0.212648
  0
VERTEX
  8
0
 10
114.819587
 20
177.653994
 42
-0.080492
  0
VERTEX
  8
0
 10
114.287011
 20
177.311086
 42
-0.061248
  0
VERTEX
  8
0
 10
113.502080
 20
177.077647
 42
-0.041706
  0
VERTEX
  8
0
 10
112.572804
 20
177.000000
 42
0.164250
  0
VERTEX
  8
0
 10
110.382243
 20
176.260448
 42
0.035808
  0
VERTEX
  8
0
 10
107.351770
 20
173.587612
 42
0.035960
  0
VERTEX
  8
0
 10
104.730600
 20
170.504218
 42
0.159497
  0
VERTEX
  8
0
 10
104.000000
 20
168.272156
 42
-0.126729
  0
VERTEX
  8
0
 10
103.784935
 20
167.437260
 42
-0.250508
  0
VERTEX
  8
0
 10
103.226921
 20
167.075121
 42
-0.082710
  0
VERTEX
  8
0
 10
102.069698
 20
167.168249
 42
-0.008488
  0
VERTEX
  8
0
 10
99.410433
 20
167.882289
 42
0.100042
  0
VERTEX
  8
0
 10
96.930996
 20
168.080765
 42
0.208558
  0
VERTEX
  8
0
 10
95.292116
 20
167.118833
 42
0.146700
  0
VERTEX
  8
0
 10
94.521882
 20
164.923884
 42
0.044904
  0
VERTEX
  8
0
 10
94.676715
 20
161.373606
 42
-0.020811
  0
VERTEX
  8
0
 10
94.898210
 20
158.965366
 42
-0.147392
  0
VERTEX
  8
0
 10
94.619342
 20
157.838398
 42
-0.151076
  0
VERTEX
  8
0
 10
93.767346
 20
157.067203
 42
-0.022204
  0
VERTEX
  8
0
 10
91.590296
 20
156.168812
 42
0.076958
  0
VERTEX
  8
0
 10
88.748339
 20
154.614073
 42
0.090139
  0
VERTEX
  8
0
 10
86.686092
 20
152.340990
 42
0.107532
  0
VERTEX
  8
0
 10
85.789079
 20
149.827365
 42
0.161056
  0
VERTEX
  8
0
 10
86.227496
 20
147.557971
 42
-0.167444
  0
VERTEX
  8
0
 10
86.521839
 20
145.925571
 42
-0.178345
  0
VERTEX
  8
0
 10
85.735852
 20
144.508436
 42
-0.135841
  0
VERTEX
  8
0
 10
83.988189
 20
143.682685
 42
-0.089185
  0
VERTEX
  8
0
 10
81.748823
 20
143.697307
 42
0.104888
  0
VERTEX
  8
0
 10
79.720277
 20
143.647429
 42
0.095923
  0
VERTEX
  8
0
 10
77.813650
 20
142.784854
 42
0.094361
  0
VERTEX
  8
0
 10
76.342825
 20
141.257407
 42
0.097598
  0
VERTEX
  8
0
 10
75.558033
 20
139.313847
 42
-0.072495
  0
VERTEX
  8
0
 10
75.191080
 20
138.256100
 42
-0.023761
  0
VERTEX
  8
0
 10
74.360664
 20
136.826304
 42
-0.023106
  0
VERTEX
  8
0
 10
73.275454
 20
135.305869
 42
-0.024162
  0
VERTEX
  8
0
 10
72.069713
 20
133.915533
 42
0.019314
  0
VERTEX
  8
0
 10
70.894482
 20
132.586617
 42
0.023347
  0
VERTEX
  8
0
 10
69.901728
 20
131.249886
 42
0.022877
  0
VERTEX
  8
0
 10
69.183238
 20
130.068380
 42
0.125812
  0
VERTEX
  8
0
 10
69.000000
 20
129.351686
 42
-0.100408
  0
VERTEX
  8
0
 10
68.895358
 20
128.835858
 42
-0.098257
  0
VERTEX
  8
0
 10
68.597616
 20
128.397058
 42
-0.097616
  0
VERTEX
  8
0
 10
68.152985
 20
128.103124
 42
-0.097685
  0
VERTEX
  8
0
 10
67.630183
 20
128.000000
 42
0.155736
  0
VERTEX
  8
0
 10
66.909459
 20
127.769934
 42
0.023636
  0
VERTEX
  8
0
 10
65.705017
 20
126.825000
 42
0.024567
  0
VERTEX
  8
0
 10
64.348692
 20
125.531664
 42
0.019044
  0
VERTEX
  8
0
 10
63.000000
 20
124.000000
 42
-0.026605
  0
VERTEX
  8
0
 10
61.610180
 20
122.468916
 42
-0.030966
  0
VERTEX
  8
0
 10
60.130772
 20
121.175000
 42
-0.032440
  0
VERTEX
  8
0
 10
58.766295
 20
120.257760
 42
-0.132514
  0
VERTEX
  8
0
 10
57.810800
 20
120.000000
 42
0.051517
  0
VERTEX
  8
0
 10
57.115551
 20
119.928175
 42
0.111918
  0
VERTEX
  8
0
 10
56.630109
 20
119.706250
 42
0.186405
  0
VERTEX
  8
0
 10
56.428866
 20
119.378395
 42
0.185978
  0
VERTEX
  8
0
 10
56.500000
 20
119.000000
 42
-0.079467
  0
VERTEX
  8
0
 10
56.659353
 20
118.617748
 42
-0.157566
  0
VERTEX
  8
0
 10
56.634620
 20
118.293750
 42
-0.184509
  0
VERTEX
  8
0
 10
56.432880
 20
118.078784
 42
-0.113538
  0
VERTEX
  8
0
 10
56.090402
 20
118.000000
 42
0.147888
  0
VERTEX
  8
0
 10
55.740494
 20
117.894192
 42
0.152596
  0
VERTEX
  8
0
 10
55.513034
 20
117.613283
 42
0.117354
  0
VERTEX
  8
0
 10
55.451155
 20
117.186997
 42
0.069341
  0
VERTEX
  8
0
 10
55.567951
 20
116.683518
 42
-0.176846
  0
VERTEX
  8
0
 10
55.580077
 20
115.941298
 42
-0.031029
  0
VERTEX
  8
0
 10
55.032744
 20
114.631327
 42
-0.030311
  0
VERTEX
  8
0
 10
54.162313
 20
113.105481
 42
-0.023125
  0
VERTEX
  8
0
 10
53.036567
 20
111.546013
 42
0.002865
  0
VERTEX
  8
0
 10
51.872608
 20
110.064007
 42
0.004509
  0
VERTEX
  8
0
 10
50.891991
 20
108.776807
 42
0.001301
  0
VERTEX
  8
0
 10
50.054856
 20
107.651045
 42
0.160559
  0
VERTEX
  8
0
 10
50.000000
 20
107.484619
 42
0.092180
  0
VERTEX
  8
0
 10
50.032496
 20
107.309855
 42
0.001248
  0
VERTEX
  8
0
 10
50.428978
 20
106.288169
 42
0.003493
  0
VERTEX
  8
0
 10
50.900665
 20
105.106043
 42
0.002284
  0
VERTEX
  8
0
 10
51.460349
 20
103.749140
 42
-0.023036
  0
VERTEX
  8
0
 10
52.438878
 20
101.066078
 42
-0.216774
  0
VERTEX
  8
0
 10
52.291707
 20
99.878441
 42
-0.314904
  0
VERTEX
  8
0
 10
51.379454
 20
99.481496
 42
-0.040920
  0
VERTEX
  8
0
 10
49.224729
 20
100.104658
 42
0.030882
  0
VERTEX
  8
0
 10
48.143474
 20
100.440999
 42
0.030118
  0
VERTEX
  8
0
 10
47.019962
 20
100.644998
 42
0.031550
  0
VERTEX
  8
0
 10
46.013700
 20
100.701730
 42
0.090155
  0
VERTEX
  8
0
 10
45.327551
 20
100.572199
 42
0.197369
  0
VERTEX
  8
0
 10
44.332701
 20
99.633930
 42
0.118923
  0
VERTEX
  8
0
 10
44.024825
 20
98.017345
 42
0.133974
  0
VERTEX
  8
0
 10
44.496947
 20
96.567966
 42
0.252556
  0
VERTEX
  8
0
 10
45.549660
 20
96.000000
 42
-0.063110
  0
VERTEX
  8
0
 10
46.341952
 20
95.899597
 42
-0.018775
  0
VERTEX
  8
0
 10
47.513423
 20
95.550460
 42
-0.018510
  0
VERTEX
  8
0
 10
48.811969
 20
95.055426
 42
-0.019007
  0
VERTEX
  8
0
 10
50.058691
 20
94.469650
 42
0.028324
  0
VERTEX
  8
0
 10
51.615832
 20
93.773122
 42
0.070276
  0
VERTEX
  8
0
 10
52.831123
 20
93.496683
 42
0.085278
  0
VERTEX
  8
0
 10
53.927924
 20
93.592128
 42
0.058680
  0
VERTEX
  8
0
 10
55.091928
 20
94.049199
 42
0.074505
  0
VERTEX
  8
0
 10
56.175239
 20
94.855994
 42
0.139459
  0
VERTEX
  8
0
 10
56.699588
 20
95.804958
 42
0.078426
  0
VERTEX
  8
0
 10
56.803329
 20
97.260862
 42
0.012821
  0
VERTEX
  8
0
 10
56.489059
 20
100.079549
 42
-0.034078
  0
VERTEX
  8
0
 10
56.232172
 20
103.821223
 42
-0.355565
  0
VERTEX
  8
0
 10
57.136998
 20
104.933691
 42
-0.204306
  0
VERTEX
  8
0
 10
58.973044
 20
104.564671
 42
-0.015115
  0
VERTEX
  8
0
 10
63.199147
 20
101.472761
 42
0.042787
  0
VERTEX
  8
0
 10
66.541976
 20
99.300090
 42
0.125546
  0
VERTEX
  8
0
 10
69.188144
 20
98.649633
 42
0.138384
  0
VERTEX
  8
0
 10
71.664105
 20
99.371737
 42
0.056711
  0
VERTEX
  8
0
 10
74.428197
 20
101.571054
 42
-0.086214
  0
VERTEX
  8
0
 10
75.469673
 20
102.304238
 42
-0.033142
  0
VERTEX
  8
0
 10
77.121705
 20
102.954777
 42
-0.030057
  0
VERTEX
  8
0
 10
79.136394
 20
103.466589
 42
-0.024746
  0
VERTEX
  8
0
 10
81.333375
 20
103.774400
 42
0.025735
  0
VERTEX
  8
0
 10
83.523924
 20
104.085726
 42
0.028154
  0
VERTEX
  8
0
 10
85.604853
 20
104.614696
 42
0.030314
  0
VERTEX
  8
0
 10
87.357934
 20
105.286253
 42
0.076268
  0
VERTEX
  8
0
 10
88.500000
 20
106.032346
 42
-0.061392
  0
VERTEX
  8
0
 10
89.516958
 20
106.740533
 42
-0.031174
  0
VERTEX
  8
0
 10
90.940625
 20
107.382004
 42
-0.030415
  0
VERTEX
  8
0
 10
92.513322
 20
107.868832
 42
-0.039669
  0
VERTEX
  8
0
 10
94.000000
 20
108.108883
 42
0.026386
  0
VERTEX
  8
0
 10
95.450013
 20
108.303692
 42
0.024303
  0
VERTEX
  8
0
 10
96.912500
 20
108.653702
 42
0.025080
  0
VERTEX
  8
0
 10
98.184544
 20
109.094608
 42
0.070120
  0
VERTEX
  8
0
 10
99.000000
 20
109.565645
 42
-0.054240
  0
VERTEX
  8
0
 10
100.956883
 20
110.780149
 42
-0.105397
  0
VERTEX
  8
0
 10
102.736505
 20
111.210113
 42
-0.090616
  0
VERTEX
  8
0
 10
104.715021
 20
110.903609
 42
-0.032705
  0
VERTEX
  8
0
 10
107.346905
 20
109.791427
 42
0.025800
  0
VERTEX
  8
0
 10
110.818567
 20
108.267582
 42
0.423106
  0
VERTEX
  8
0
 10
111.854894
 20
108.753568
 42
0.176152
  0
VERTEX
  8
0
 10
111.825562
 20
110.482732
 42
0.007703
  0
VERTEX
  8
0
 10
109.545451
 20
116.173308
 42
-0.216700
  0
VERTEX
  8
0
 10
109.594837
 20
117.802683
 42
-0.186915
  0
VERTEX
  8
0
 10
110.864227
 20
118.971398
 42
-0.109412
  0
VERTEX
  8
0
 10
113.281438
 20
119.353073
 42
-0.059177
  0
VERTEX
  8
0
 10
116.259044
 20
118.812570
 42
0.041116
  0
VERTEX
  8
0
 10
119.671329
 20
118.065279
 42
0.185050
  0
VERTEX
  8
0
 10
121.623317
 20
118.527580
 42
0.197920
  0
VERTEX
  8
0
 10
122.687987
 20
120.147325
 42
0.047713
  0
VERTEX
  8
0
 10
123.000000
 20
123.409598
 42
-0.021160
  0
VERTEX
  8
0
 10
123.074459
 20
125.168259
 42
-0.028101
  0
VERTEX
  8
0
 10
123.299107
 20
126.753066
 42
-0.027920
  0
VERTEX
  8
0
 10
123.622359
 20
128.004268
 42
-0.179020
  0
VERTEX
  8
0
 10
124.018237
 20
128.511271
 42
-0.184770
  0
VERTEX
  8
0
 10
124.621237
 20
128.626088
 42
-0.035362
  0
VERTEX
  8
0
 10
125.721370
 20
128.347571
 42
-0.033428
  0
VERTEX
  8
0
 10
127.029078
 20
127.816924
 42
-0.025320
  0
VERTEX
  8
0
 10
128.386271
 20
127.070288
 42
0.045540
  0
VERTEX
  8
0
 10
131.431499
 20
125.551824
 42
0.101238
  0
VERTEX
  8
0
 10
133.974412
 20
125.115969
 42
0.116402
  0
VERTEX
  8
0
 10
136.254759
 20
125.731877
 42
0.072586
  0
VERTEX
  8
0
 10
138.484848
 20
127.393939
 42
-0.022086
  0
VERTEX
  8
0
 10
139.442900
 20
128.270896
 42
-0.035441
  0
VERTEX
  8
0
 10
140.340246
 20
128.919981
 42
-0.039933
  0
VERTEX
  8
0
 10
141.076173
 20
129.298952
 42
-0.304171
  0
VERTEX
  8
0
 10
141.439394
 20
129.227273
 42
0.207564
  0
VERTEX
  8
0
 10
141.652340
 20
129.143185
 42
0.239374
  0
VERTEX
  8
0
 10
141.841854
 20
129.247491
 42
0.107284
  0
VERTEX
  8
0
 10
141.975033
 20
129.577093
 42
0.038659
  0
VERTEX
  8
0
 10
142.022236
 20
130.083333
 42
-0.125322
  0
VERTEX
  8
0
 10
142.596224
 20
132.198059
 42
-0.077998
  0
VERTEX
  8
0
 10
144.200918
 20
134.223273
 42
-0.077169
  0
VERTEX
  8
0
 10
146.370495
 20
135.679133
 42
-0.116750
  0
VERTEX
  8
0
 10
148.587393
 20
136.139010
 42
0.007375
  0
VERTEX
  8
0
 10
155.458706
 20
136.048601
 42
0.068801
  0
VERTEX
  8
0
 10
158.386703
 20
136.458171
 42
0.091606
  0
VERTEX
  8
0
 10
160.766261
 20
137.634353
 42
0.017607
  0
VERTEX
  8
0
 10
164.532914
 20
140.661511
 42
0.011471
  0
VERTEX
  8
0
 10
166.637911
 20
142.564836
 42
0.015677
  0
VERTEX
  8
0
 10
168.438106
 20
144.379568
 42
0.012437
  0
VERTEX
  8
0
 10
169.831185
 20
145.951489
 42
0.147611
  0
VERTEX
  8
0
 10
170.150000
 20
146.690725
 42
0.002594
  0
VERTEX
  8
0
 10
170.214707
 20
147.282661
 42
0.001580
  0
VERTEX
  8
0
 10
170.285313
 20
147.982588
 42
0.001583
  0
VERTEX
  8
0
 10
170.350918
 20
148.676911
 42
0.002803
  0
VERTEX
  8
0
 10
170.400000
 20
149.250000
 42
-0.146618
  0
VERTEX
  8
0
 10
171.178252
 20
151.250621
 42
-0.130600
  0
VERTEX
  8
0
 10
172.960503
 20
152.602441
 42
-0.068594
  0
VERTEX
  8
0
 10
176.188330
 20
153.434244
 42
-0.016449
  0
VERTEX
  8
0
 10
181.715204
 20
153.890373
 42
0.088642
  0
VERTEX
  8
0
 10
182.807784
 20
154.141897
 42
0.027169
  0
VERTEX
  8
0
 10
184.333117
 20
154.892717
 42
0.026246
  0
VERTEX
  8
0
 10
185.980891
 20
155.935498
 42
0.025965
  0
VERTEX
  8
0
 10
187.516539
 20
157.148665
 42
-0.017991
  0
VERTEX
  8
0
 10
189.232341
 20
158.549140
 42
-0.056684
  0
VERTEX
  8
0
 10
190.508106
 20
159.305792
 42
-0.101310
  0
VERTEX
  8
0
 10
191.461905
 20
159.519231
 42
-0.203652
  0
VERTEX
  8
0
 10
192.164203
 20
159.235797
 42
-0.151710
  0
VERTEX
  8
0
 10
192.692809
 20
158.230947
 42
-0.165193
  0
VERTEX
  8
0
 10
192.534534
 20
157.141566
 42
-0.151425
  0
VERTEX
  8
0
 10
191.721773
 20
156.307190
 42
-0.125136
  0
VERTEX
  8
0
 10
190.513563
 20
156.000000
 42
0.127199
  0
VERTEX
  8
0
 10
189.851035
 20
155.828682
 42
0.035902
  0
VERTEX
  8
0
 10
188.950391
 20
155.241371
 42
0.033704
  0
VERTEX
  8
0
 10
187.991986
 20
154.405848
 42
0.029982
  0
VERTEX
  8
0
 10
187.113714
 20
153.417434
 42
0.028761
  0
VERTEX
  8
0
 10
185.968911
 20
151.776012
 42
0.120846
  0
VERTEX
  8
0
 10
185.603802
 20
150.640036
 42
0.097693
  0
VERTEX
  8
0
 10
185.766272
 20
149.339869
 42
0.015383
  0
VERTEX
  8
0
 10
186.654223
 20
146.906162
 42
-0.048567
  0
VERTEX
  8
0
 10
187.532082
 20
143.893650
 42
-0.165289
  0
VERTEX
  8
0
 10
187.248485
 20
141.897435
 42
-0.173371
  0
VERTEX
  8
0
 10
185.822475
 20
140.545528
 42
-0.054555
  0
VERTEX
  8
0
 10
182.977574
 20
139.645515
 42
0.084407
  0
VERTEX
  8
0
 10
180.908296
 20
138.852877
 42
0.249276
  0
VERTEX
  8
0
 10
180.140214
 20
137.594401
 42
0.157767
  0
VERTEX
  8
0
 10
180.613286
 20
135.768923
 42
0.033257
  0
VERTEX
  8
0
 10
182.587159
 20
133.078787
 42
-0.022518
  0
VERTEX
  8
0
 10
184.185210
 20
130.996077
 42
-0.271858
  0
VERTEX
  8
0
 10
184.261373
 20
130.028630
 42
-0.225852
  0
VERTEX
  8
0
 10
183.439967
 20
129.372204
 42
-0.016180
  0
VERTEX
  8
0
 10
180.500000
 20
128.783539
 42
0.232978
  0
VERTEX
  8
0
 10
179.160677
 20
127.821207
 42
0.117316
  0
VERTEX
  8
0
 10
178.619995
 20
125.758819
 42
0.067840
  0
VERTEX
  8
0
 10
178.976459
 20
122.607738
 42
0.027954
  0
VERTEX
  8
0
 10
180.265208
 20
118.500000
 42
-0.049785
  0
VERTEX
  8
0
 10
181.353412
 20
114.416184
 42
-0.099761
  0
VERTEX
  8
0
 10
181.227302
 20
111.093525
 42
-0.122630
  0
VERTEX
  8
0
 10
179.887162
 20
108.524641
 42
-0.100572
  0
VERTEX
  8
0
 10
177.407188
 20
106.657132
 42
0.030941
  0
VERTEX
  8
0
 10
175.699403
 20
105.708957
 42
0.087137
  0
VERTEX
  8
0
 10
174.696701
 20
104.788739
 42
0.105292
  0
VERTEX
  8
0
 10
174.174035
 20
103.691709
 42
0.058770
  0
VERTEX
  8
0
 10
174.000000
 20
102.216179
 42
0.038628
  0
VERTEX
  8
0
 10
174.090373
 20
101.048123
 42
0.034986
  0
VERTEX
  8
0
 10
174.359832
 20
99.867421
 42
0.036774
  0
VERTEX
  8
0
 10
174.754457
 20
98.843413
 42
0.086225
  0
VERTEX
  8
0
 10
175.224959
 20
98.175041
 42
-0.073402
  0
VERTEX
  8
0
 10
175.758523
 20
97.456696
 42
-0.134723
  0
VERTEX
  8
0
 10
175.919604
 20
96.751225
 42
-0.099873
  0
VERTEX
  8
0
 10
175.713241
 20
95.916771
 42
-0.029189
  0
VERTEX
  8
0
 10
175.076420
 20
94.750760
 42
0.108334
  0
VERTEX
  8
0
 10
173.790038
 20
91.142012
 42
0.033725
  0
VERTEX
  8
0
 10
173.447830
 20
85.365269
 42
0.033852
  0
VERTEX
  8
0
 10
173.924402
 20
79.100951
 42
0.048448
  0
VERTEX
  8
0
 10
175.250228
 20
73.693176
 42
-0.024321
  0
VERTEX
  8
0
 10
176.512998
 20
69.440086
 42
-0.141145
  0
VERTEX
  8
0
 10
176.419313
 20
67.125405
 42
-0.344667
  0
VERTEX
  8
0
 10
175.236884
 20
66.340406
 42
-0.103780
  0
VERTEX
  8
0
 10
173.021713
 20
66.988380
 42
0.037944
  0
VERTEX
  8
0
 10
171.149098
 20
67.814650
 42
0.389011
  0
VERTEX
  8
0
 10
170.434718
 20
67.510673
 42
0.204058
  0
VERTEX
  8
0
 10
170.408942
 20
66.432807
 42
0.016574
  0
VERTEX
  8
0
 10
171.565816
 20
63.784303
 42
-0.019753
  0
VERTEX
  8
0
 10
172.473279
 20
61.670267
 42
-0.091164
  0
VERTEX
  8
0
 10
172.716088
 20
60.366629
 42
-0.096588
  0
VERTEX
  8
0
 10
172.471977
 20
59.099100
 42
-0.023608
  0
VERTEX
  8
0
 10
171.581186
 20
57.156996
 42
0.046080
  0
VERTEX
  8
0
 10
170.826995
 20
55.296648
 42
0.046267
  0
VERTEX
  8
0
 10
170.427559
 20
53.332158
 42
0.036319
  0
VERTEX
  8
0
 10
170.342884
 20
50.949339
 42
0.015251
  0
VERTEX
  8
0
 10
170.559677
 20
47.746498
 42
-0.005925
  0
VERTEX
  8
0
 10
170.812843
 20
44.817982
 42
-0.003017
  0
VERTEX
  8
0
 10
171.065188
 20
41.131784
 42
-0.002996
  0
VERTEX
  8
0
 10
171.279736
 20
37.326669
 42
-0.004483
  0
VERTEX
  8
0
 10
171.417427
 20
34.000000
 42
0.008830
  0
VERTEX
  8
0
 10
171.569874
 20
30.957303
 42
0.009708
  0
VERTEX
  8
0
 10
171.826748
 20
28.016794
 42
0.009198
  0
VERTEX
  8
0
 10
172.140778
 20
25.516581
 42
0.047531
  0
VERTEX
  8
0
 10
172.469497
 20
24.163553
 42
-0.021801
  0
VERTEX
  8
0
 10
172.851902
 20
22.880823
 42
-0.196966
  0
VERTEX
  8
0
 10
172.770274
 20
22.313166
 42
-0.268870
  0
VERTEX
  8
0
 10
172.338333
 20
22.069449
 42
-0.039073
  0
VERTEX
  8
0
 10
171.292862
 20
22.163494
 42
0.063715
  0
VERTEX
  8
0
 10
170.420199
 20
22.198910
 42
0.043347
  0
VERTEX
  8
0
 10
169.440173
 20
22.027312
 42
0.043417
  0
VERTEX
  8
0
 10
168.506694
 20
21.689992
 42
0.064888
  0
VERTEX
  8
0
 10
167.774144
 20
21.227519
 42
0.108454
  0
VERTEX
  8
0
 10
167.073377
 20
20.328325
 42
0.156186
  0
VERTEX
  8
0
 10
166.937514
 20
19.336059
 42
0.069056
  0
VERTEX
  8
0
 10
167.407687
 20
17.876748
 42
0.009211
  0
VERTEX
  8
0
 10
168.870520
 20
14.982661
 42
-0.010340
  0
VERTEX
  8
0
 10
170.427734
 20
11.884495
 42
-0.078343
  0
VERTEX
  8
0
 10
170.892059
 20
10.321089
 42
-0.122587
  0
VERTEX
  8
0
 10
170.743482
 20
8.995601
 42
-0.039960
  0
VERTEX
  8
0
 10
169.906824
 20
7.197293
 42
0.036977
  0
VERTEX
  8
0
 10
169.261373
 20
5.831297
 42
0.053166
  0
VERTEX
  8
0
 10
168.916099
 20
4.539953
 42
0.059614
  0
VERTEX
  8
0
 10
168.872464
 20
3.326507
 42
0.067897
  0
VERTEX
  8
0
 10
169.124600
 20
2.192211
 42
0.064587
  0
VERTEX
  8
0
 10
170.001687
 20
0.521003
 42
0.296445
  0
VERTEX
  8
0
 10
170.969443
 20
0.132100
 42
0.206143
  0
VERTEX
  8
0
 10
172.013610
 20
0.847780
 42
0.036672
  0
VERTEX
  8
0
 10
173.153632
 20
2.984950
 42
-0.053716
  0
VERTEX
  8
0
 10
173.852953
 20
4.194956
 42
-0.040133
  0
VERTEX
  8
0
 10
174.859774
 20
5.362539
 42
-0.040991
  0
VERTEX
  8
0
 10
176.002197
 20
6.319019
 42
-0.070032
  0
VERTEX
  8
0
 10
177.106377
 20
6.887239
 42
0.077087
  0
VERTEX
  8
0
 10
179.498347
 20
8.160932
 42
0.035809
  0
VERTEX
  8
0
 10
182.161991
 20
10.472520
 42
0.030382
  0
VERTEX
  8
0
 10
184.317957
 20
12.912355
 42
0.313872
  0
VERTEX
  8
0
 10
184.387473
 20
14.182073
 42
-0.116101
  0
VERTEX
  8
0
 10
184.283493
 20
14.493328
 42
-0.185594
  0
VERTEX
  8
0
 10
184.358881
 20
14.759734
 42
-0.155561
  0
VERTEX
  8
0
 10
184.610266
 20
14.938959
 42
-0.077836
  0
VERTEX
  8
0
 10
185.000000
 20
15.000000
 42
0.101261
  0
VERTEX
  8
0
 10
185.378351
 20
15.077418
 42
0.177706
  0
VERTEX
  8
0
 10
185.608064
 20
15.293750
 42
0.167455
  0
VERTEX
  8
0
 10
185.651081
 20
15.618194
 42
0.088621
  0
VERTEX
  8
0
 10
185.500000
 20
16.000000
 42
-0.093667
  0
VERTEX
  8
0
 10
185.353415
 20
16.381563
 42
-0.171987
  0
VERTEX
  8
0
 10
185.406028
 20
16.706250
 42
-0.173661
  0
VERTEX
  8
0
 10
185.650630
 20
16.923227
 42
-0.095723
  0
VERTEX
  8
0
 10
186.047972
 20
17.000000
 42
0.143039
  0
VERTEX
  8
0
 10
186.446518
 20
17.116397
 42
0.152625
  0
VERTEX
  8
0
 10
186.707704
 20
17.426750
 42
0.119854
  0
VERTEX
  8
0
 10
186.782722
 20
17.897287
 42
0.071606
  0
VERTEX
  8
0
 10
186.656499
 20
18.452766
 42
-0.257187
  0
VERTEX
  8
0
 10
186.858881
 20
19.920153
 42
-0.041302
  0
VERTEX
  8
0
 10
188.841478
 20
22.166664
 42
-0.043245
  0
VERTEX
  8
0
 10
191.448412
 20
24.269313
 42
-0.071361
  0
VERTEX
  8
0
 10
193.992280
 20
25.497550
 42
0.146966
  0
VERTEX
  8
0
 10
195.393660
 20
26.454589
 42
0.076779
  0
VERTEX
  8
0
 10
196.465511
 20
28.298628
 42
0.073926
  0
VERTEX
  8
0
 10
196.963193
 20
30.466335
 42
0.111585
  0
VERTEX
  8
0
 10
196.685992
 20
32.375909
 42
-0.162589
  0
VERTEX
  8
0
 10
196.628185
 20
33.687354
 42
-0.136505
  0
VERTEX
  8
0
 10
197.358490
 20
34.879477
 42
-0.108913
  0
VERTEX
  8
0
 10
198.770441
 20
35.712184
 42
-0.079135
  0
VERTEX
  8
0
 10
200.577555
 20
36.000000
 42
0.102457
  0
VERTEX
  8
0
 10
202.599576
 20
36.418734
 42
0.159872
  0
VERTEX
  8
0
 10
203.918580
 20
37.588399
 42
0.123310
  0
VERTEX
  8
0
 10
204.495723
 20
39.573840
 42
0.049637
  0
VERTEX
  8
0
 10
204.320355
 20
42.413309
 42
-0.052360
  0
VERTEX
  8
0
 10
204.167297
 20
45.131453
 42
-0.169088
  0
VERTEX
  8
0
 10
204.834379
 20
46.785347
 42
-0.164355
  0
VERTEX
  8
0
 10
206.399866
 20
47.695475
 42
-0.048819
  0
VERTEX
  8
0
 10
209.190983
 20
47.984687
 42
0.027938
  0
VERTEX
  8
0
 10
210.258115
 20
48.050455
 42
0.034254
  0
VERTEX
  8
0
 10
211.239523
 20
48.235025
 42
0.036599
  0
VERTEX
  8
0
 10
212.017429
 20
48.499342
 42
0.155361
  0
VERTEX
  8
0
 10
212.385910
 20
48.815398
 42
0.127519
  0
VERTEX
  8
0
 10
212.997368
 20
50.792737
 42
0.007826
  0
VERTEX
  8
0
 10
213.187510
 20
57.007689
 42
0.009947
  0
VERTEX
  8
0
 10
213.157137
 20
63.130743
 42
0.080513
  0
VERTEX
  8
0
 10
212.640787
 20
65.881779
 42
-0.025243
  0
VERTEX
  8
0
 10
212.197764
 20
67.335869
 42
-0.321502
  0
VERTEX
  8
0
 10
212.396241
 20
67.837348
 42
-0.182198
  0
VERTEX
  8
0
 10
213.064438
 20
67.980718
 42
-0.009091
  0
VERTEX
  8
0
 10
215.312616
 20
67.601131
 42
0.026563
  0
VERTEX
  8
0
 10
217.248029
 20
67.343510
 42
0.095552
  0
VERTEX
  8
0
 10
218.480267
 20
67.481236
 42
0.116074
  0
VERTEX
  8
0
 10
219.440693
 20
68.047774
 42
0.048970
  0
VERTEX
  8
0
 10
220.421829
 20
69.191858
 42
0.064906
  0
VERTEX
  8
0
 10
221.028196
 20
70.352660
 42
0.028148
  0
VERTEX
  8
0
 10
221.536412
 20
72.022326
 42
0.027271
  0
VERTEX
  8
0
 10
221.883990
 20
73.883098
 42
0.032546
  0
VERTEX
  8
0
 10
222.000000
 20
75.663489
 42
-0.030982
  0
VERTEX
  8
0
 10
222.189439
 20
78.717837
 42
-0.160670
  0
VERTEX
  8
0
 10
222.903591
 20
80.224992
 42
-0.253015
  0
VERTEX
  8
0
 10
224.151809
 20
80.630409
 42
-0.077609
  0
VERTEX
  8
0
 10
226.086693
 20
79.953604
 42
0.096265
  0
VERTEX
  8
0
 10
228.096880
 20
79.332975
 42
0.270245
  0
VERTEX
  8
0
 10
229.391371
 20
79.911622
 42
0.182446
  0
VERTEX
  8
0
 10
229.849461
 20
81.622395
 42
0.049663
  0
VERTEX
  8
0
 10
229.287913
 20
84.413552
 42
-0.073413
  0
VERTEX
  8
0
 10
228.855498
 20
87.251233
 42
-0.122470
  0
VERTEX
  8
0
 10
229.424576
 20
89.586099
 42
-0.127699
  0
VERTEX
  8
0
 10
230.995748
 20
91.317852
 42
-0.083707
  0
VERTEX
  8
0
 10
233.476671
 20
92.404789
 42
0.053822
  0
VERTEX
  8
0
 10
234.831201
 20
92.904525
 42
0.141514
  0
VERTEX
  8
0
 10
235.586955
 20
93.597575
 42
0.116575
  0
VERTEX
  8
0
 10
235.939791
 20
94.678967
 42
0.030749
  0
VERTEX
  8
0
 10
235.979738
 20
96.510478
 42
-0.105615
  0
VERTEX
  8
0
 10
236.035938
 20
96.836353
 42
-0.006973
  0
VERTEX
  8
0
 10
236.404788
 20
97.720630
 42
-0.009845
  0
VERTEX
  8
0
 10
236.883723
 20
98.768206
 42
-0.007187
  0
VERTEX
  8
0
 10
237.455168
 20
99.913305
 42
0.035648
  0
VERTEX
  8
0
 10
238.050003
 20
101.297077
 42
0.018801
  0
VERTEX
  8
0
 10
238.597786
 20
103.086133
 42
0.018612
  0
VERTEX
  8
0
 10
239.023310
 20
104.968643
 42
0.027227
  0
VERTEX
  8
0
 10
239.244599
 20
106.652827
 42
-0.037531
  0
VERTEX
  8
0
 10
239.564942
 20
108.754875
 42
-0.086015
  0
VERTEX
  8
0
 10
240.183606
 20
110.226899
 42
-0.078884
  0
VERTEX
  8
0
 10
241.298670
 20
111.480651
 42
-0.027875
  0
VERTEX
  8
0
 10
243.245747
 20
112.902385
 42
0.000000
  0
VERTEX
  8
0
 10
246.953154
 20
115.304770
 42
0.000000
  0
VERTEX
  8
0
 10
246.653702
 20
124.561474
 42
-0.007781
  0
VERTEX
  8
0
 10
246.573262
 20
129.355858
 42
-0.029021
  0
VERTEX
  8
0
 10
246.744495
 20
132.366651
 42
-0.047217
  0
VERTEX
  8
0
 10
247.182489
 20
134.429667
 42
-0.085881
  0
VERTEX
  8
0
 10
247.968220
 20
135.957868
 42
-0.114371
  0
VERTEX
  8
0
 10
249.457870
 20
137.204446
 42
-0.158681
  0
VERTEX
  8
0
 10
251.165899
 20
137.470118
 42
-0.191865
  0
VERTEX
  8
0
 10
252.481258
 20
136.682450
 42
-0.163906
  0
VERTEX
  8
0
 10
253.003738
 20
135.143011
 42
0.073772
  0
VERTEX
  8
0
 10
253.130222
 20
134.303580
 42
0.021159
  0
VERTEX
  8
0
 10
253.568853
 20
133.060193
 42
0.020802
  0
VERTEX
  8
0
 10
254.189094
 20
131.682597
 42
0.020734
  0
VERTEX
  8
0
 10
254.922283
 20
130.359773
 42
-0.027914
  0
VERTEX
  8
0
 10
256.282198
 20
127.820948
 42
-0.052511
  0
VERTEX
  8
0
 10
257.037353
 20
125.623577
 42
-0.069126
  0
VERTEX
  8
0
 10
257.198346
 20
123.800072
 42
-0.128474
  0
VERTEX
  8
0
 10
256.754721
 20
122.393514
 42
0.264209
  0
VERTEX
  8
0
 10
256.726335
 20
121.755434
 42
0.045031
  0
VERTEX
  8
0
 10
257.399626
 20
120.686645
 42
0.037886
  0
VERTEX
  8
0
 10
258.528846
 20
119.419468
 42
0.022559
  0
VERTEX
  8
0
 10
260.046203
 20
118.083111
 42
-0.032193
  0
VERTEX
  8
0
 10
264.909570
 20
113.630730
 42
-0.148919
  0
VERTEX
  8
0
 10
266.614987
 20
110.268873
 42
-0.421461
  0
VERTEX
  8
0
 10
265.413371
 20
108.599689
 42
-0.105012
  0
VERTEX
  8
0
 10
261.671598
 20
108.825008
 42
0.111501
  0
VERTEX
  8
0
 10
258.363670
 20
108.981642
 42
0.438339
  0
VERTEX
  8
0
 10
257.386452
 20
107.456366
 42
0.144456
  0
VERTEX
  8
0
 10
259.196353
 20
104.459863
 42
0.035327
  0
VERTEX
  8
0
 10
263.764994
 20
100.841179
 42
-0.014706
  0
VERTEX
  8
0
 10
267.262968
 20
98.297863
 42
-0.048237
  0
VERTEX
  8
0
 10
269.342547
 20
96.343057
 42
-0.066498
  0
VERTEX
  8
0
 10
270.637310
 20
94.397173
 42
-0.051165
  0
VERTEX
  8
0
 10
271.517987
 20
92.000000
 42
0.033097
  0
VERTEX
  8
0
 10
271.910402
 20
90.799811
 42
0.013312
  0
VERTEX
  8
0
 10
272.596691
 20
89.215586
 42
0.013104
  0
VERTEX
  8
0
 10
273.428847
 20
87.542825
 42
0.016176
  0
VERTEX
  8
0
 10
274.294376
 20
86.031783
 42
-0.035643
  0
VERTEX
  8
0
 10
275.109168
 20
84.471572
 42
-0.031454
  0
VERTEX
  8
0
 10
275.733571
 20
82.745662
 42
-0.032860
  0
VERTEX
  8
0
 10
276.102872
 20
81.082870
 42
-0.064430
  0
VERTEX
  8
0
 10
276.135588
 20
79.729629
 42
0.135959
  0
VERTEX
  8
0
 10
276.739383
 20
76.120224
 42
0.045727
  0
VERTEX
  8
0
 10
279.451134
 20
71.464288
 42
0.045909
  0
VERTEX
  8
0
 10
283.074666
 20
67.253194
 42
0.099684
  0
VERTEX
  8
0
 10
286.651734
 20
64.961471
 42
-0.108640
  0
VERTEX
  8
0
 10
289.004466
 20
63.394659
 42
-0.041690
  0
VERTEX
  8
0
 10
291.499748
 20
60.331106
 42
-0.033817
  0
VERTEX
  8
0
 10
294.042425
 20
56.017033
 42
-0.019231
  0
VERTEX
  8
0
 10
296.549421
 20
50.500000
 42
0.014683
  0
VERTEX
  8
0
 10
299.462560
 20
43.931208
 42
0.030313
  0
VERTEX
  8
0
 10
302.191236
 20
39.022972
 42
0.034590
  0
VERTEX
  8
0
 10
305.236989
 20
34.907784
 42
0.026506
  0
VERTEX
  8
0
 10
309.090451
 20
30.847777
 42
-0.018436
  0
VERTEX
  8
0
 10
312.532344
 20
27.336609
 42
-0.118723
  0
VERTEX
  8
0
 10
313.719679
 20
25.174661
 42
-0.244517
  0
VERTEX
  8
0
 10
313.360047
 20
23.517782
 42
-0.096810
  0
VERTEX
  8
0
 10
311.500000
 20
22.000000
 42
0.020072
  0
VERTEX
  8
0
 10
309.792589
 20
20.996073
 42
0.149720
  0
VERTEX
  8
0
 10
309.192246
 20
20.286048
 42
0.203397
  0
VERTEX
  8
0
 10
309.189545
 20
19.476843
 42
0.041809
  0
VERTEX
  8
0
 10
309.865419
 20
18.183516
 42
0.106168
  0
VERTEX
  8
0
 10
310.662282
 20
17.372614
 42
0.059374
  0
VERTEX
  8
0
 10
311.904635
 20
16.750924
 42
0.046154
  0
VERTEX
  8
0
 10
313.585332
 20
16.316168
 42
0.024589
  0
VERTEX
  8
0
 10
315.721614
 20
16.076511
 42
-0.166519
  0
VERTEX
  8
0
 10
316.916811
 20
15.581640
 42
-0.014802
  0
VERTEX
  8
0
 10
319.330608
 20
13.323155
 42
-0.013788
  0
VERTEX
  8
0
 10
322.634802
 20
9.856797
 42
-0.004347
  0
VERTEX
  8
0
 10
327.382419
 20
4.500000
 42
0.000000
  0
VERTEX
  8
0
 10
330.865912
 20
0.500000
 42
0.000000
  0
VERTEX
  8
0
 10
330.297171
 20
5.000000
 42
0.013274
  0
VERTEX
  8
0
 10
330.012995
 20
6.851863
 42
0.013085
  0
VERTEX
  8
0
 10
329.629813
 20
8.694964
 42
0.013061
  0
VERTEX
  8
0
 10
329.210116
 20
10.290169
 42
0.047897
  0
VERTEX
  8
0
 10
328.823973
 20
11.259451
 42
-0.069679
  0
VERTEX
  8
0
 10
328.503006
 20
12.179386
 42
-0.184888
  0
VERTEX
  8
0
 10
328.618246
 20
12.854428
 42
-0.136633
  0
VERTEX
  8
0
 10
329.199247
 20
13.411615
 42
-0.032404
  0
VERTEX
  8
0
 10
330.431829
 20
13.974081
 42
0.064325
  0
VERTEX
  8
0
 10
331.433449
 20
14.510644
 42
0.052881
  0
VERTEX
  8
0
 10
332.341367
 20
15.316523
 42
0.054480
  0
VERTEX
  8
0
 10
333.031804
 20
16.262778
 42
0.082816
  0
VERTEX
  8
0
 10
333.386009
 20
17.214630
 42
0.004798
  0
VERTEX
  8
0
 10
334.837884
 20
25.130653
 42
0.053356
  0
VERTEX
  8
0
 10
335.046812
 20
28.331172
 42
0.101457
  0
VERTEX
  8
0
 10
334.453565
 20
30.717677
 42
0.035555
  0
VERTEX
  8
0
 10
332.698377
 20
33.805002
 42
-0.036126
  0
VERTEX
  8
0
 10
330.844493
 20
37.074607
 42
-0.150052
  0
VERTEX
  8
0
 10
330.518998
 20
39.292728
 42
-0.197518
  0
VERTEX
  8
0
 10
331.517583
 20
40.950358
 42
-0.069527
  0
VERTEX
  8
0
 10
334.002278
 20
42.306962
 42
0.023230
  0
VERTEX
  8
0
 10
335.150414
 20
42.802399
 42
0.032607
  0
VERTEX
  8
0
 10
336.119419
 20
43.355953
 42
0.034053
  0
VERTEX
  8
0
 10
336.819655
 20
43.890809
 42
0.215869
  0
VERTEX
  8
0
 10
337.000000
 20
44.289062
 42
0.122250
  0
VERTEX
  8
0
 10
336.869666
 20
44.814158
 42
0.008632
  0
VERTEX
  8
0
 10
336.134207
 20
46.148176
 42
0.011785
  0
VERTEX
  8
0
 10
335.181599
 20
47.720628
 42
0.008597
  0
VERTEX
  8
0
 10
334.052621
 20
49.423518
 42
-0.023493
  0
VERTEX
  8
0
 10
332.758119
 20
51.508319
 42
-0.040296
  0
VERTEX
  8
0
 10
331.909095
 20
53.368709
 42
-0.048581
  0
VERTEX
  8
0
 10
331.478004
 20
55.053448
 42
-0.068185
  0
VERTEX
  8
0
 10
331.451243
 20
56.603694
 42
0.048241
  0
VERTEX
  8
0
 10
331.479893
 20
57.877256
 42
0.033046
  0
VERTEX
  8
0
 10
331.277990
 20
59.310148
 42
0.033364
  0
VERTEX
  8
0
 10
330.895353
 20
60.678040
 42
0.056072
  0
VERTEX
  8
0
 10
330.375570
 20
61.750000
 42
-0.012374
  0
VERTEX
  8
0
 10
329.566021
 20
63.104313
 42
-0.183583
  0
VERTEX
  8
0
 10
329.484357
 20
63.641380
 42
-0.317024
  0
VERTEX
  8
0
 10
329.798162
 20
63.930554
 42
-0.032654
  0
VERTEX
  8
0
 10
330.860370
 20
64.000000
 42
0.212252
  0
VERTEX
  8
0
 10
332.226227
 20
64.607164
 42
0.106877
  0
VERTEX
  8
0
 10
333.184255
 20
66.275514
 42
0.094378
  0
VERTEX
  8
0
 10
333.438726
 20
68.383846
 42
0.129546
  0
VERTEX
  8
0
 10
332.830228
 20
70.185354
 42
-0.110380
  0
VERTEX
  8
0
 10
332.529972
 20
70.974593
 42
-0.023656
  0
VERTEX
  8
0
 10
332.388131
 20
72.442097
 42
-0.023630
  0
VERTEX
  8
0
 10
332.384974
 20
74.194258
 42
-0.020598
  0
VERTEX
  8
0
 10
332.543707
 20
76.021783
 42
0.022758
  0
VERTEX
  8
0
 10
332.756066
 20
78.595573
 42
0.076121
  0
VERTEX
  8
0
 10
332.562042
 20
80.273293
 42
0.083464
  0
VERTEX
  8
0
 10
331.886657
 20
81.731949
 42
0.030973
  0
VERTEX
  8
0
 10
330.491540
 20
83.521783
 42
-0.029948
  0
VERTEX
  8
0
 10
328.052009
 20
86.638338
 42
-0.080457
  0
VERTEX
  8
0
 10
326.846932
 20
89.173715
 42
-0.107239
  0
VERTEX
  8
0
 10
326.684765
 20
91.504382
 42
-0.083457
  0
VERTEX
  8
0
 10
327.463500
 20
93.929418
 42
0.018030
  0
VERTEX
  8
0
 10
327.988732
 20
95.041634
 42
0.026840
  0
VERTEX
  8
0
 10
328.359234
 20
96.052019
 42
0.025139
  0
VERTEX
  8
0
 10
328.566412
 20
96.871820
 42
0.250731
  0
VERTEX
  8
0
 10
328.467180
 20
97.199487
 42
-0.129443
  0
VERTEX
  8
0
 10
328.250753
 20
97.570616
 42
-0.005426
  0
VERTEX
  8
0
 10
327.854876
 20
99.060927
 42
-0.009058
  0
VERTEX
  8
0
 10
327.433144
 20
100.856672
 42
-0.006284
  0
VERTEX
  8
0
 10
327.018946
 20
102.900099
 42
0.015052
  0
VERTEX
  8
0
 10
326.519785
 20
105.158550
 42
0.011369
  0
VERTEX
  8
0
 10
325.841244
 20
107.606873
 42
0.011522
  0
VERTEX
  8
0
 10
325.097848
 20
109.879497
 42
0.025977
  0
VERTEX
  8
0
 10
324.407233
 20
111.554249
 42
-0.027676
  0
VERTEX
  8
0
 10
323.642472
 20
113.426826
 42
-0.063760
  0
VERTEX
  8
0
 10
323.333314
 20
114.913425
 42
-0.068046
  0
VERTEX
  8
0
 10
323.418137
 20
116.369456
 42
-0.035354
  0
VERTEX
  8
0
 10
323.895350
 20
118.129644
 42
0.011212
  0
VERTEX
  8
0
 10
324.749469
 20
120.768714
 42
0.083636
  0
VERTEX
  8
0
 10
324.911438
 20
122.071432
 42
0.137524
  0
VERTEX
  8
0
 10
324.586767
 20
123.062694
 42
0.048925
  0
VERTEX
  8
0
 10
323.631932
 20
124.225211
 42
-0.044777
  0
VERTEX
  8
0
 10
323.053826
 20
124.917296
 42
-0.022421
  0
VERTEX
  8
0
 10
322.446205
 20
125.883083
 42
-0.022063
  0
VERTEX
  8
0
 10
321.902649
 20
126.946233
 42
-0.030302
  0
VERTEX
  8
0
 10
321.516532
 20
127.947911
 42
-0.018528
  0
VERTEX
  8
0
 10
321.182631
 20
129.153071
 42
-0.158788
  0
VERTEX
  8
0
 10
321.227711
 20
129.703489
 42
-0.330686
  0
VERTEX
  8
0
 10
321.556362
 20
129.898444
 42
-0.065864
  0
VERTEX
  8
0
 10
322.262746
 20
129.729417
 42
0.078576
  0
VERTEX
  8
0
 10
322.914363
 20
129.590817
 42
0.061909
  0
VERTEX
  8
0
 10
323.634915
 20
129.641999
 42
0.062616
  0
VERTEX
  8
0
 10
324.312292
 20
129.866205
 42
0.085379
  0
VERTEX
  8
0
 10
324.836642
 20
130.236642
 42
0.186588
  0
VERTEX
  8
0
 10
325.153207
 20
130.952303
 42
0.103402
  0
VERTEX
  8
0
 10
325.000283
 20
131.908786
 42
0.058289
  0
VERTEX
  8
0
 10
324.329172
 20
133.194549
 42
0.018089
  0
VERTEX
  8
0
 10
323.035863
 20
134.954719
 42
-0.047289
  0
VERTEX
  8
0
 10
319.978907
 20
139.668347
 42
-0.029871
  0
VERTEX
  8
0
 10
317.297195
 20
145.655550
 42
-0.026146
  0
VERTEX
  8
0
 10
315.474334
 20
151.363700
 42
-0.171370
  0
VERTEX
  8
0
 10
315.718569
 20
154.313291
 42
0.051952
  0
VERTEX
  8
0
 10
316.103642
 20
155.482153
 42
0.105850
  0
VERTEX
  8
0
 10
316.107029
 20
156.444182
 42
0.098717
  0
VERTEX
  8
0
 10
315.712458
 20
157.366631
 42
0.041182
  0
VERTEX
  8
0
 10
314.854288
 20
158.420708
 42
-0.017840
  0
VERTEX
  8
0
 10
314.172411
 20
159.182735
 42
-0.028847
  0
VERTEX
  8
0
 10
313.655354
 20
159.882157
 42
-0.028525
  0
VERTEX
  8
0
 10
313.325953
 20
160.454966
 42
-0.323154
  0
VERTEX
  8
0
 10
313.365353
 20
160.698687
 42
-0.333619
  0
VERTEX
  8
0
 10
314.884769
 20
160.914949
 42
-0.032247
  0
VERTEX
  8
0
 10
318.226771
 20
158.786459
 42
-0.028935
  0
VERTEX
  8
0
 10
322.483731
 20
155.277102
 42
-0.014310
  0
VERTEX
  8
0
 10
327.485774
 20
150.369138
 42
0.004539
  0
VERTEX
  8
0
 10
332.843615
 20
144.902542
 42
0.050317
  0
VERTEX
  8
0
 10
335.208162
 20
142.967567
 42
0.112514
  0
VERTEX
  8
0
 10
337.198911
 20
142.215555
 42
0.058109
  0
VERTEX
  8
0
 10
339.873737
 20
142.159349
 42
-0.012586
  0
VERTEX
  8
0
 10
341.467208
 20
142.270925
 42
-0.019264
  0
VERTEX
  8
0
 10
342.851797
 20
142.279527
 42
-0.014361
  0
VERTEX
  8
0
 10
343.961242
 20
142.211731
 42
-0.263201
  0
VERTEX
  8
0
 10
344.241463
 20
142.018173
 42
0.115333
  0
VERTEX
  8
0
 10
345.144421
 20
140.904389
 42
0.006019
  0
VERTEX
  8
0
 10
348.840931
 20
138.106697
 42
0.004940
  0
VERTEX
  8
0
 10
352.657366
 20
135.347669
 42
0.155248
  0
VERTEX
  8
0
 10
353.750102
 20
135.000000
 42
-0.131882
  0
VERTEX
  8
0
 10
354.335328
 20
134.842906
 42
-0.009613
  0
VERTEX
  8
0
 10
355.776216
 20
133.971875
 42
-0.012900
  0
VERTEX
  8
0
 10
357.470285
 20
132.840659
 42
-0.009393
  0
VERTEX
  8
0
 10
359.296206
 20
131.500000
 42
0.017469
  0
VERTEX
  8
0
 10
362.517557
 20
129.213905
 42
0.076141
  0
VERTEX
  8
0
 10
364.637074
 20
128.241175
 42
0.141074
  0
VERTEX
  8
0
 10
366.253106
 20
128.244448
 42
0.126436
  0
VERTEX
  8
0
 10
367.699337
 20
129.099337
 42
-0.208073
  0
VERTEX
  8
0
 10
369.329142
 20
129.741072
 42
-0.117767
  0
VERTEX
  8
0
 10
371.410779
 20
129.165769
 42
-0.067571
  0
VERTEX
  8
0
 10
373.978350
 20
127.257965
 42
-0.024951
  0
VERTEX
  8
0
 10
377.048515
 20
123.942054
 42
0.028316
  0
VERTEX
  8
0
 10
379.323655
 20
121.517716
 42
0.028252
  0
VERTEX
  8
0
 10
381.859809
 20
119.364012
 42
0.026776
  0
VERTEX
  8
0
 10
384.750056
 20
117.412030
 42
0.020683
  0
VERTEX
  8
0
 10
388.088733
 20
115.591981
 42
0.000000
  0
VERTEX
  8
0
 10
394.980478
 20
112.196804
 42
0.000000
  0
VERTEX
  8
0
 10
397.496190
 20
114.175663
 42
0.000000
  0
VERTEX
  8
0
 10
400.011903
 20
116.154523
 42
0.000000
  0
VERTEX
  8
0
 10
406.460921
 20
109.577262
 42
0.008782
  0
VERTEX
  8
0
 10
409.020130
 20
107.057257
 42
0.012742
  0
VERTEX
  8
0
 10
411.372825
 20
104.932071
 42
0.008341
  0
VERTEX
  8
0
 10
413.390299
 20
103.258583
 42
0.170573
  0
VERTEX
  8
0
 10
414.126229
 20
103.000000
 42
0.093765
  0
VERTEX
  8
0
 10
414.718558
 20
103.112064
 42
0.031072
  0
VERTEX
  8
0
 10
415.523619
 20
103.487233
 42
0.029678
  0
VERTEX
  8
0
 10
416.384257
 20
104.023880
 42
0.029676
  0
VERTEX
  8
0
 10
417.175322
 20
104.658664
 42
-0.041838
  0
VERTEX
  8
0
 10
418.275862
 20
105.498667
 42
-0.125208
  0
VERTEX
  8
0
 10
419.167799
 20
105.793442
 42
-0.105870
  0
VERTEX
  8
0
 10
420.181135
 20
105.649726
 42
-0.025346
  0
VERTEX
  8
0
 10
421.754062
 20
104.980023
 42
0.003975
  0
VERTEX
  8
0
 10
422.842258
 20
104.460720
 42
0.005284
  0
VERTEX
  8
0
 10
423.840256
 20
104.006954
 42
0.003806
  0
VERTEX
  8
0
 10
424.681921
 20
103.642584
 42
0.052210
  0
VERTEX
  8
0
 10
425.000000
 20
103.545367
 42
-0.076745
  0
VERTEX
  8
0
 10
425.309075
 20
103.434126
 42
-0.005807
  0
VERTEX
  8
0
 10
426.087500
 20
102.998415
 42
-0.007897
  0
VERTEX
  8
0
 10
427.006001
 20
102.450714
 42
-0.005926
  0
VERTEX
  8
0
 10
428.000000
 20
101.820106
 42
0.042722
  0
VERTEX
  8
0
 10
429.256598
 20
101.146941
 42
0.019032
  0
VERTEX
  8
0
 10
431.010143
 20
100.470132
 42
0.018677
  0
VERTEX
  8
0
 10
432.931415
 20
99.890642
 42
0.024016
  0
VERTEX
  8
0
 10
434.736656
 20
99.510454
 42
-0.033410
  0
VERTEX
  8
0
 10
436.611819
 20
99.078627
 42
-0.020618
  0
VERTEX
  8
0
 10
438.750503
 20
98.335624
 42
-0.020646
  0
VERTEX
  8
0
 10
440.812743
 20
97.422379
 42
-0.034529
  0
VERTEX
  8
0
 10
442.451469
 20
96.468372
 42
0.008444
  0
VERTEX
  8
0
 10
446.554758
 20
93.783871
 42
0.055530
  0
VERTEX
  8
0
 10
448.761350
 20
92.713850
 42
0.113839
  0
VERTEX
  8
0
 10
450.409030
 20
92.525426
 42
0.094923
  0
VERTEX
  8
0
 10
452.095138
 20
93.050917
 42
0.061512
  0
VERTEX
  8
0
 10
453.146778
 20
93.792624
 42
0.133782
  0
VERTEX
  8
0
 10
453.673688
 20
94.618894
 42
0.098106
  0
VERTEX
  8
0
 10
453.796499
 20
95.771967
 42
0.023996
  0
VERTEX
  8
0
 10
453.533514
 20
97.673047
 42
-0.010021
  0
VERTEX
  8
0
 10
453.168925
 20
99.857129
 42
-0.172134
  0
VERTEX
  8
0
 10
453.307728
 20
100.557821
 42
-0.314443
  0
VERTEX
  8
0
 10
453.812018
 20
100.786054
 42
-0.030765
  0
VERTEX
  8
0
 10
455.180534
 20
100.442701
 42
0.007003
  0
VERTEX
  8
0
 10
456.622311
 20
100.007227
 42
0.312997
  0
VERTEX
  8
0
 10
456.903976
 20
100.102873
 42
0.334458
  0
VERTEX
  8
0
 10
456.901453
 20
100.390911
 42
0.007531
  0
VERTEX
  8
0
 10
455.992158
 20
101.540187
 42
0.005968
  0
VERTEX
  8
0
 10
455.231845
 20
102.449592
 42
0.002156
  0
VERTEX
  8
0
 10
454.130509
 20
103.724229
 42
0.002137
  0
VERTEX
  8
0
 10
452.912246
 20
105.109960
 42
0.002540
  0
VERTEX
  8
0
 10
451.750000
 20
106.407294
 42
-0.036511
  0
VERTEX
  8
0
 10
450.697291
 20
107.756380
 42
-0.032553
  0
VERTEX
  8
0
 10
449.806714
 20
109.295531
 42
-0.034032
  0
VERTEX
  8
0
 10
449.190237
 20
110.789211
 42
-0.080652
  0
VERTEX
  8
0
 10
448.996262
 20
111.972861
 42
0.119951
  0
VERTEX
  8
0
 10
448.068070
 20
115.761833
 42
0.046610
  0
VERTEX
  8
0
 10
445.125445
 20
120.331032
 42
0.035859
  0
VERTEX
  8
0
 10
440.348504
 20
125.594334
 42
0.017821
  0
VERTEX
  8
0
 10
433.609882
 20
131.582210
 42
-0.015685
  0
VERTEX
  8
0
 10
430.945489
 20
133.929471
 42
-0.061997
  0
VERTEX
  8
0
 10
429.551961
 20
135.606299
 42
-0.083874
  0
VERTEX
  8
0
 10
428.830612
 20
137.302053
 42
-0.044787
  0
VERTEX
  8
0
 10
428.499768
 20
139.562541
 42
0.002285
  0
VERTEX
  8
0
 10
428.405297
 20
141.125154
 42
0.002923
  0
VERTEX
  8
0
 10
428.303305
 20
142.563348
 42
0.002263
  0
VERTEX
  8
0
 10
428.205338
 20
143.767638
 42
0.024749
  0
VERTEX
  8
0
 10
428.139887
 20
144.248855
 42
0.124644
  0
VERTEX
  8
0
 10
427.928365
 20
144.706822
 42
0.006102
  0
VERTEX
  8
0
 10
426.853747
 20
146.001212
 42
0.009584
  0
VERTEX
  8
0
 10
425.516677
 20
147.512638
 42
0.006745
  0
VERTEX
  8
0
 10
423.957975
 20
149.162741
 42
-0.004369
  0
VERTEX
  8
0
 10
422.358415
 20
150.840058
 42
-0.005362
  0
VERTEX
  8
0
 10
420.895327
 20
152.435304
 42
-0.004497
  0
VERTEX
  8
0
 10
419.693568
 20
153.798625
 42
-0.038155
  0
VERTEX
  8
0
 10
419.207975
 20
154.454613
 42
0.104908
  0
VERTEX
  8
0
 10
417.714949
 20
155.994314
 42
0.002801
  0
VERTEX
  8
0
 10
409.787168
 20
161.258130
 42
0.002185
  0
VERTEX
  8
0
 10
401.666214
 20
166.534280
 42
0.143929
  0
VERTEX
  8
0
 10
400.081852
 20
167.000000
 42
-0.211156
  0
VERTEX
  8
0
 10
398.733033
 20
167.596204
 42
-0.035560
  0
VERTEX
  8
0
 10
396.944793
 20
169.865869
 42
-0.038372
  0
VERTEX
  8
0
 10
395.453710
 20
172.473029
 42
-0.111157
  0
VERTEX
  8
0
 10
395.000000
 20
174.488673
 42
0.127855
  0
VERTEX
  8
0
 10
394.676259
 20
175.734024
 42
0.039903
  0
VERTEX
  8
0
 10
393.595998
 20
177.352936
 42
0.031631
  0
VERTEX
  8
0
 10
391.882117
 20
179.262565
 42
0.015996
  0
VERTEX
  8
0
 10
389.502837
 20
181.453187
 42
-0.022130
  0
VERTEX
  8
0
 10
387.151062
 20
183.672392
 42
-0.021753
  0
VERTEX
  8
0
 10
384.990471
 20
186.103074
 42
-0.022990
  0
VERTEX
  8
0
 10
383.216554
 20
188.499777
 42
-0.043708
  0
VERTEX
  8
0
 10
382.059068
 20
190.599373
 42
0.022079
  0
VERTEX
  8
0
 10
381.033454
 20
192.666205
 42
0.059667
  0
VERTEX
  8
0
 10
380.078027
 20
193.993344
 42
0.088865
  0
VERTEX
  8
0
 10
379.097879
 20
194.739033
 42
0.118831
  0
VERTEX
  8
0
 10
378.015327
 20
195.000000
 42
-0.051397
  0
VERTEX
  8
0
 10
376.816702
 20
195.123538
 42
-0.008835
  0
VERTEX
  8
0
 10
374.584214
 20
195.629984
 42
-0.009541
  0
VERTEX
  8
0
 10
371.975146
 20
196.323570
 42
-0.008394
  0
VERTEX
  8
0
 10
369.279854
 20
197.144626
 42
-0.045284
  0
VERTEX
  8
0
 10
364.431497
 20
199.211576
 42
-0.034766
  0
VERTEX
  8
0
 10
359.560492
 20
202.285829
 42
-0.035736
  0
VERTEX
  8
0
 10
355.435720
 20
205.787975
 42
-0.076150
  0
VERTEX
  8
0
 10
352.932211
 20
209.126664
 42
-0.099067
  0
VERTEX
  8
0
 10
352.447267
 20
210.728866
 42
-0.453028
  0
VERTEX
  8
0
 10
353.032595
 20
211.351756
 42
-0.154946
  0
VERTEX
  8
0
 10
354.556052
 20
210.809922
 42
-0.036457
  0
VERTEX
  8
0
 10
356.610520
 20
209.000591
 42
0.033425
  0
VERTEX
  8
0
 10
358.870856
 20
206.985519
 42
0.103535
  0
VERTEX
  8
0
 10
360.697412
 20
206.092045
 42
0.373100
  0
VERTEX
  8
0
 10
361.523380
 20
206.507053
 42
0.192350
  0
VERTEX
  8
0
 10
361.536958
 20
207.750000
 42
-0.027902
  0
VERTEX
  8
0
 10
360.717525
 20
210.278957
 42
-0.036218
  0
VERTEX
  8
0
 10
360.269116
 20
212.673083
 42
-0.039922
  0
VERTEX
  8
0
 10
360.208395
 20
214.515575
 42
-0.400555
  0
VERTEX
  8
0
 10
360.716069
 20
215.000000
 42
-0.054772
  0
VERTEX
  8
0
 10
361.313857
 20
214.934319
 42
-0.005680
  0
VERTEX
  8
0
 10
362.693479
 20
214.610958
 42
-0.007006
  0
VERTEX
  8
0
 10
364.332069
 20
214.182769
 42
-0.005551
  0
VERTEX
  8
0
 10
366.091069
 20
213.675602
 42
0.026139
  0
VERTEX
  8
0
 10
368.058361
 20
213.195114
 42
0.026817
  0
VERTEX
  8
0
 10
370.048312
 20
212.927540
 42
0.028646
  0
VERTEX
  8
0
 10
371.864178
 20
212.886199
 42
0.056970
  0
VERTEX
  8
0
 10
373.285259
 20
213.098548
 42
-0.048249
  0
VERTEX
  8
0
 10
374.895408
 20
213.367858
 42
-0.009061
  0
VERTEX
  8
0
 10
377.882206
 20
213.520854
 42
-0.009617
  0
VERTEX
  8
0
 10
381.391441
 20
213.569372
 42
-0.008672
  0
VERTEX
  8
0
 10
385.023227
 20
213.486724
 42
0.005720
  0
VERTEX
  8
0
 10
390.327620
 20
213.334674
 42
0.045023
  0
VERTEX
  8
0
 10
392.781836
 20
213.513580
 42
0.101977
  0
VERTEX
  8
0
 10
394.262926
 20
214.081246
 42
0.097943
  0
VERTEX
  8
0
 10
395.423717
 20
215.194553
 42
-0.077482
  0
VERTEX
  8
0
 10
396.287038
 20
216.092631
 42
-0.054507
  0
VERTEX
  8
0
 10
397.489978
 20
216.816270
 42
-0.048226
  0
VERTEX
  8
0
 10
398.976583
 20
217.335924
 42
-0.036256
  0
VERTEX
  8
0
 10
400.685749
 20
217.624782
 42
0.005058
  0
VERTEX
  8
0
 10
402.380762
 20
217.803517
 42
0.003336
  0
VERTEX
  8
0
 10
404.326068
 20
218.041725
 42
0.003356
  0
VERTEX
  8
0
 10
406.215049
 20
218.298740
 42
0.006485
  0
VERTEX
  8
0
 10
407.722141
 20
218.534093
 42
-0.045324
  0
VERTEX
  8
0
 10
409.242676
 20
218.651859
 42
-0.036434
  0
VERTEX
  8
0
 10
410.877691
 20
218.510691
 42
-0.036245
  0
VERTEX
  8
0
 10
412.484860
 20
218.131975
 42
-0.043370
  0
VERTEX
  8
0
 10
413.922481
 20
217.540087
 42
0.012228
  0
VERTEX
  8
0
 10
415.134433
 20
216.950463
 42
0.014283
  0
VERTEX
  8
0
 10
416.313190
 20
216.452400
 42
0.013298
  0
VERTEX
  8
0
 10
417.326946
 20
216.088517
 42
0.079675
  0
VERTEX
  8
0
 10
417.878912
 20
216.000000
 42
0.165291
  0
VERTEX
  8
0
 10
419.234716
 20
216.460793
 42
0.068505
  0
VERTEX
  8
0
 10
420.612052
 20
217.856534
 42
0.064842
  0
VERTEX
  8
0
 10
421.648379
 20
219.698579
 42
0.096034
  0
VERTEX
  8
0
 10
422.000000
 20
221.512412
 42
-0.066918
  0
VERTEX
  8
0
 10
422.273829
 20
223.549264
 42
-0.298832
  0
VERTEX
  8
0
 10
423.134193
 20
224.308063
 42
-0.167994
  0
VERTEX
  8
0
 10
424.643774
 20
224.016337
 42
-0.023663
  0
VERTEX
  8
0
 10
427.350494
 20
222.277238
 42
0.000000
  0
VERTEX
  8
0
 10
431.044628
 20
219.648823
 42
0.000000
  0
VERTEX
  8
0
 10
436.772314
 20
221.382829
 42
0.005818
  0
VERTEX
  8
0
 10
442.694270
 20
223.251134
 42
0.031787
  0
VERTEX
  8
0
 10
445.810372
 20
224.498607
 42
0.065933
  0
VERTEX
  8
0
 10
447.469435
 20
225.576158
 42
0.219188
  0
VERTEX
  8
0
 10
448.000000
 20
226.728309
 42
-0.092545
  0
VERTEX
  8
0
 10
448.103777
 20
227.284191
 42
-0.157377
  0
VERTEX
  8
0
 10
448.398852
 20
227.648101
 42
-0.152257
  0
VERTEX
  8
0
 10
448.859178
 20
227.778025
 42
-0.085030
  0
VERTEX
  8
0
 10
449.435392
 20
227.663166
 42
0.061062
  0
VERTEX
  8
0
 10
450.007719
 20
227.520415
 42
0.081691
  0
VERTEX
  8
0
 10
450.541554
 20
227.542079
 42
0.101266
  0
VERTEX
  8
0
 10
450.954465
 20
227.719301
 42
0.159168
  0
VERTEX
  8
0
 10
451.185392
 20
228.024436
 42
-0.266435
  0
VERTEX
  8
0
 10
452.047465
 20
228.777290
 42
-0.034173
  0
VERTEX
  8
0
 10
454.578579
 20
229.105060
 42
-0.035809
  0
VERTEX
  8
0
 10
457.647494
 20
229.070909
 42
-0.035649
  0
VERTEX
  8
0
 10
460.684853
 20
228.599477
 42
0.035100
  0
VERTEX
  8
0
 10
462.377409
 20
228.334875
 42
0.083690
  0
VERTEX
  8
0
 10
463.641681
 20
228.438885
 42
0.089646
  0
VERTEX
  8
0
 10
464.748723
 20
228.943772
 42
0.044704
  0
VERTEX
  8
0
 10
465.934853
 20
229.934853
 42
-0.066436
  0
VERTEX
  8
0
 10
467.850402
 20
231.399304
 42
-0.132793
  0
VERTEX
  8
0
 10
469.681167
 20
231.878497
 42
-0.099191
  0
VERTEX
  8
0
 10
471.863153
 20
231.423054
 42
-0.027138
  0
VERTEX
  8
0
 10
475.032269
 20
229.861707
 42
0.042682
  0
VERTEX
  8
0
 10
478.231230
 20
228.407270
 42
0.173237
  0
VERTEX
  8
0
 10
480.337878
 20
228.410765
 42
0.232997
  0
VERTEX
  8
0
 10
481.583168
 20
229.699535
 42
0.077760
  0
VERTEX
  8
0
 10
482.000000
 20
232.363580
 42
-0.030552
  0
VERTEX
  8
0
 10
482.125995
 20
234.423645
 42
-0.171484
  0
VERTEX
  8
0
 10
482.610366
 20
235.396798
 42
-0.136167
  0
VERTEX
  8
0
 10
483.662257
 20
235.969577
 42
-0.016813
  0
VERTEX
  8
0
 10
486.250000
 20
236.478895
 42
-0.015543
  0
VERTEX
  8
0
 10
488.250030
 20
236.739616
 42
-0.007867
  0
VERTEX
  8
0
 10
490.781939
 20
236.949761
 42
-0.007806
  0
VERTEX
  8
0
 10
493.405229
 20
237.084882
 42
-0.011530
  0
VERTEX
  8
0
 10
495.709791
 20
237.114362
 42
0.031486
  0
VERTEX
  8
0
 10
499.020824
 20
237.288957
 42
0.092964
  0
VERTEX
  8
0
 10
501.187698
 20
237.961690
 42
0.300986
  0
VERTEX
  8
0
 10
501.711140
 20
238.920640
 42
0.237350
  0
VERTEX
  8
0
 10
501.076882
 20
239.952484
 42
-0.113180
  0
VERTEX
  8
0
 10
500.603390
 20
240.419933
 42
-0.040713
  0
VERTEX
  8
0
 10
500.159142
 20
241.262858
 42
-0.037845
  0
VERTEX
  8
0
 10
499.806344
 20
242.299596
 42
-0.036550
  0
VERTEX
  8
0
 10
499.608767
 20
243.389801
 42
0.131583
  0
VERTEX
  8
0
 10
498.577626
 20
246.065137
 42
0.024594
  0
VERTEX
  8
0
 10
495.247816
 20
250.193616
 42
0.025665
  0
VERTEX
  8
0
 10
491.496596
 20
253.991497
 42
0.108657
  0
VERTEX
  8
0
 10
488.744689
 20
255.581033
 42
0.089473
  0
VERTEX
  8
0
 10
487.868909
 20
255.694515
 42
0.043820
  0
VERTEX
  8
0
 10
486.750521
 20
255.540110
 42
0.041592
  0
VERTEX
  8
0
 10
485.582158
 20
255.168540
 42
0.047283
  0
VERTEX
  8
0
 10
484.543534
 20
254.620481
 42
-0.042356
  0
VERTEX
  8
0
 10
483.063533
 20
253.820811
 42
-0.165016
  0
VERTEX
  8
0
 10
482.040902
 20
253.735085
 42
-0.107646
  0
VERTEX
  8
0
 10
480.930708
 20
254.282252
 42
-0.013158
  0
VERTEX
  8
0
 10
478.842497
 20
256.036488
 42
0.024888
  0
VERTEX
  8
0
 10
477.108801
 20
257.424890
 42
0.059392
  0
VERTEX
  8
0
 10
475.669018
 20
258.224279
 42
0.076771
  0
VERTEX
  8
0
 10
474.327814
 20
258.545326
 42
0.072229
  0
VERTEX
  8
0
 10
472.922607
 20
258.457390
 42
-0.083954
  0
VERTEX
  8
0
 10
471.442965
 20
258.399373
 42
-0.057727
  0
VERTEX
  8
0
 10
469.810390
 20
258.805214
 42
-0.042224
  0
VERTEX
  8
0
 10
467.872188
 20
259.725687
 42
-0.017609
  0
VERTEX
  8
0
 10
465.422607
 20
261.271662
 42
0.015788
  0
VERTEX
  8
0
 10
462.736517
 20
262.980611
 42
0.053314
  0
VERTEX
  8
0
 10
460.846857
 20
263.843889
 42
0.074995
  0
VERTEX
  8
0
 10
459.188888
 20
264.132408
 42
0.057840
  0
VERTEX
  8
0
 10
457.358996
 20
263.961798
 42
-0.084966
  0
VERTEX
  8
0
 10
454.257313
 20
263.840794
 42
-0.038425
  0
VERTEX
  8
0
 10
450.264048
 20
264.680851
 42
-0.037903
  0
VERTEX
  8
0
 10
446.271443
 20
266.183350
 42
-0.057769
  0
VERTEX
  8
0
 10
443.119581
 20
268.120577
 42
0.037723
  0
VERTEX
  8
0
 10
441.136299
 20
269.451678
 42
0.114978
  0
VERTEX
  8
0
 10
439.590508
 20
269.907493
 42
0.151475
  0
VERTEX
  8
0
 10
438.259978
 20
269.577845
 42
0.083831
  0
VERTEX
  8
0
 10
436.979944
 20
268.475834
 42
-0.034968
  0
VERTEX
  8
0
 10
436.457854
 20
267.929413
 42
-0.055760
  0
VERTEX
  8
0
 10
435.935151
 20
267.550817
 42
-0.076276
  0
VERTEX
  8
0
 10
435.489569
 20
267.381474
 42
-0.254365
  0
VERTEX
  8
0
 10
435.199509
 20
267.467158
 42
0.194463
  0
VERTEX
  8
0
 10
434.911615
 20
267.589307
 42
0.075017
  0
VERTEX
  8
0
 10
434.473536
 20
267.530866
 42
0.059535
  0
VERTEX
  8
0
 10
433.961486
 20
267.313588
 42
0.043150
  0
VERTEX
  8
0
 10
433.451993
 20
266.960158
 42
-0.145798
  0
VERTEX
  8
0
 10
432.671668
 20
266.627324
 42
-0.085572
  0
VERTEX
  8
0
 10
431.650113
 20
266.685734
 42
-0.055617
  0
VERTEX
  8
0
 10
430.318381
 20
267.155264
 42
-0.020744
  0
VERTEX
  8
0
 10
428.567358
 20
268.092759
 42
0.029988
  0
VERTEX
  8
0
 10
426.704039
 20
269.046509
 42
0.046505
  0
VERTEX
  8
0
 10
424.990493
 20
269.614716
 42
0.050788
  0
VERTEX
  8
0
 10
423.318672
 20
269.826072
 42
0.046318
  0
VERTEX
  8
0
 10
421.584608
 20
269.707443
 42
-0.044366
  0
VERTEX
  8
0
 10
419.853056
 20
269.582204
 42
-0.056096
  0
VERTEX
  8
0
 10
418.262113
 20
269.787846
 42
-0.052504
  0
VERTEX
  8
0
 10
416.676809
 20
270.358511
 42
-0.032747
  0
VERTEX
  8
0
 10
414.957665
 20
271.333518
 42
0.002686
  0
VERTEX
  8
0
 10
413.544042
 20
272.251639
 42
0.002195
  0
VERTEX
  8
0
 10
412.022306
 20
273.218986
 42
0.002217
  0
VERTEX
  8
0
 10
410.614293
 20
274.096692
 42
0.005826
  0
VERTEX
  8
0
 10
409.594503
 20
274.709837
 42
0.100849
  0
VERTEX
  8
0
 10
407.809299
 20
275.318652
 42
0.055430
  0
VERTEX
  8
0
 10
405.491888
 20
275.357821
 42
0.055605
  0
VERTEX
  8
0
 10
403.236021
 20
274.888916
 42
0.105684
  0
VERTEX
  8
0
 10
401.640271
 20
273.961163
 42
-0.236951
  0
VERTEX
  8
0
 10
400.310781
 20
273.590510
 42
-0.036900
  0
VERTEX
  8
0
 10
397.598847
 20
274.332880
 42
-0.035633
  0
VERTEX
  8
0
 10
394.378528
 20
275.740955
 42
-0.028207
  0
VERTEX
  8
0
 10
391.117998
 20
277.694672
 42
0.029123
  0
VERTEX
  8
0
 10
388.345484
 20
279.349075
 42
0.039618
  0
VERTEX
  8
0
 10
385.664354
 20
280.484464
 42
0.044221
  0
VERTEX
  8
0
 10
383.443820
 20
281.011416
 42
0.236785
  0
VERTEX
  8
0
 10
382.297806
 20
280.631140
 42
0.113135
  0
VERTEX
  8
0
 10
382.028002
 20
280.200878
 42
0.014116
  0
VERTEX
  8
0
 10
381.693065
 20
279.142700
 42
0.016043
  0
VERTEX
  8
0
 10
381.366535
 20
277.843505
 42
0.012661
  0
VERTEX
  8
0
 10
381.094377
 20
276.419377
 42
0.000000
  0
VERTEX
  8
0
 10
380.500000
 20
272.816666
 42
0.000000
  0
VERTEX
  8
0
 10
376.533466
 20
275.971138
 42
0.000000
  0
VERTEX
  8
0
 10
372.566933
 20
279.125609
 42
0.000000
  0
VERTEX
  8
0
 10
370.700060
 20
276.562804
 42
-0.065335
  0
VERTEX
  8
0
 10
369.007930
 20
274.782636
 42
-0.157549
  0
VERTEX
  8
0
 10
367.331883
 20
274.136924
 42
-0.121251
  0
VERTEX
  8
0
 10
365.296663
 20
274.520149
 42
-0.031544
  0
VERTEX
  8
0
 10
362.337139
 20
276.100654
 42
0.030794
  0
VERTEX
  8
0
 10
360.702373
 20
276.976835
 42
0.045838
  0
VERTEX
  8
0
 10
359.172448
 20
277.516004
 42
0.052902
  0
VERTEX
  8
0
 10
357.758019
 20
277.717504
 42
0.070544
  0
VERTEX
  8
0
 10
356.469105
 20
277.581602
 42
-0.033971
  0
VERTEX
  8
0
 10
355.466832
 20
277.401301
 42
-0.072616
  0
VERTEX
  8
0
 10
354.682623
 20
277.428686
 42
-0.120273
  0
VERTEX
  8
0
 10
354.186884
 20
277.649641
 42
-0.232067
  0
VERTEX
  8
0
 10
354.000000
 20
278.030608
 42
-0.107142
  0
VERTEX
  8
0
 10
354.422777
 20
279.980930
 42
-0.041844
  0
VERTEX
  8
0
 10
355.777039
 20
282.398739
 42
-0.039974
  0
VERTEX
  8
0
 10
357.433199
 20
284.471560
 42
-0.192238
  0
VERTEX
  8
0
 10
358.775680
 20
285.098540
 42
0.001037
  0
VERTEX
  8
0
 10
359.594232
 20
285.147020
 42
0.000494
  0
VERTEX
  8
0
 10
360.647303
 20
285.212625
 42
0.000489
  0
VERTEX
  8
0
 10
361.747711
 20
285.283350
 42
0.000695
  0
VERTEX
  8
0
 10
362.725777
 20
285.348540
 42
0.131192
  0
VERTEX
  8
0
 10
365.911765
 20
286.435684
 42
0.027549
  0
VERTEX
  8
0
 10
370.660046
 20
290.006664
 42
0.022903
  0
VERTEX
  8
0
 10
374.969199
 20
293.986584
 42
0.278543
  0
VERTEX
  8
0
 10
375.473460
 20
296.083621
 42
-0.197232
  0
VERTEX
  8
0
 10
375.603443
 20
297.662649
 42
-0.058267
  0
VERTEX
  8
0
 10
376.976744
 20
299.722605
 42
-0.057907
  0
VERTEX
  8
0
 10
378.828622
 20
301.450254
 42
-0.160103
  0
VERTEX
  8
0
 10
380.501470
 20
302.000000
 42
0.140134
  0
VERTEX
  8
0
 10
381.104253
 20
302.172325
 42
0.021695
  0
VERTEX
  8
0
 10
382.139832
 20
302.881250
 42
0.022755
  0
VERTEX
  8
0
 10
383.317150
 20
303.851311
 42
0.018035
  0
VERTEX
  8
0
 10
384.500000
 20
305.000000
 42
-0.020374
  0
VERTEX
  8
0
 10
385.693819
 20
306.148542
 42
-0.024803
  0
VERTEX
  8
0
 10
386.904115
 20
307.118750
 42
-0.024548
  0
VERTEX
  8
0
 10
387.980780
 20
307.819620
 42
-0.132763
  0
VERTEX
  8
0
 10
388.648136
 20
308.000000
 42
0.171126
  0
VERTEX
  8
0
 10
390.266687
 20
308.570664
 42
0.055133
  0
VERTEX
  8
0
 10
392.087533
 20
310.401345
 42
0.054613
  0
VERTEX
  8
0
 10
393.529293
 20
312.683544
 42
0.114069
  0
VERTEX
  8
0
 10
394.000000
 20
314.719946
 42
-0.066911
  0
VERTEX
  8
0
 10
394.128650
 20
315.676987
 42
-0.065720
  0
VERTEX
  8
0
 10
394.505640
 20
316.572400
 42
-0.070283
  0
VERTEX
  8
0
 10
395.070628
 20
317.285420
 42
-0.102082
  0
VERTEX
  8
0
 10
395.750000
 20
317.708443
 42
0.017552
  0
VERTEX
  8
0
 10
396.456623
 20
317.997718
 42
0.018180
  0
VERTEX
  8
0
 10
397.132812
 20
318.332752
 42
0.018215
  0
VERTEX
  8
0
 10
397.695114
 20
318.664335
 42
0.071131
  0
VERTEX
  8
0
 10
398.000000
 20
318.927058
 42
-0.082356
  0
VERTEX
  8
0
 10
398.372587
 20
319.233902
 42
-0.006922
  0
VERTEX
  8
0
 10
399.463740
 20
319.845325
 42
-0.009057
  0
VERTEX
  8
0
 10
400.796297
 20
320.537028
 42
-0.006876
  0
VERTEX
  8
0
 10
402.280815
 20
321.248516
 42
0.029036
  0
VERTEX
  8
0
 10
403.772914
 20
322.046747
 42
0.030866
  0
VERTEX
  8
0
 10
405.130920
 20
322.997904
 42
0.032458
  0
VERTEX
  8
0
 10
406.186060
 20
323.956714
 42
0.108402
  0
VERTEX
  8
0
 10
406.674070
 20
324.748516
 42
-0.077105
  0
VERTEX
  8
0
 10
407.738642
 20
326.743017
 42
-0.006380
  0
VERTEX
  8
0
 10
411.340152
 20
331.412853
 42
-0.008066
  0
VERTEX
  8
0
 10
415.964551
 20
337.063613
 42
-0.005186
  0
VERTEX
  8
0
 10
421.500000
 20
343.473272
 42
0.005036
  0
VERTEX
  8
0
 10
424.569147
 20
347.024971
 42
0.029902
  0
VERTEX
  8
0
 10
426.039087
 20
348.987812
 42
0.059478
  0
VERTEX
  8
0
 10
426.757411
 20
350.422534
 42
0.086557
  0
VERTEX
  8
0
 10
427.000000
 20
351.813354
 42
-0.231074
  0
VERTEX
  8
0
 10
427.191736
 20
352.206081
 42
-0.026011
  0
VERTEX
  8
0
 10
428.028125
 20
352.791189
 42
-0.027303
  0
VERTEX
  8
0
 10
429.159192
 20
353.414732
 42
-0.018834
  0
VERTEX
  8
0
 10
430.500000
 20
354.000000
 42
0.019790
  0
VERTEX
  8
0
 10
431.840737
 20
354.588292
 42
0.028462
  0
VERTEX
  8
0
 10
432.971875
 20
355.220959
 42
0.027766
  0
VERTEX
  8
0
 10
433.803633
 20
355.817772
 42
0.227004
  0
VERTEX
  8
0
 10
434.000000
 20
356.228002
 42
-0.087047
  0
VERTEX
  8
0
 10
434.096349
 20
356.777242
 42
-0.005788
  0
VERTEX
  8
0
 10
434.660938
 20
358.282270
 42
-0.008216
  0
VERTEX
  8
0
 10
435.388165
 20
360.067172
 42
-0.006047
  0
VERTEX
  8
0
 10
436.250000
 20
362.021024
 42
-0.030249
  0
VERTEX
  8
0
 10
437.780314
 20
364.903948
 42
-0.098546
  0
VERTEX
  8
0
 10
439.238952
 20
366.485672
 42
-0.128228
  0
VERTEX
  8
0
 10
440.958435
 20
367.161194
 42
-0.069079
  0
VERTEX
  8
0
 10
443.250000
 20
367.118421
 42
0.137085
  0
VERTEX
  8
0
 10
443.535622
 20
367.151665
 42
0.119953
  0
VERTEX
  8
0
 10
443.779688
 20
367.328536
 42
0.101574
  0
VERTEX
  8
0
 10
443.943594
 20
367.626809
 42
0.075146
  0
VERTEX
  8
0
 10
444.000000
 20
368.000000
 42
-0.099629
  0
VERTEX
  8
0
 10
444.100783
 20
368.500770
 42
-0.028087
  0
VERTEX
  8
0
 10
444.451352
 20
369.220312
 42
-0.027125
  0
VERTEX
  8
0
 10
444.948434
 20
370.006586
 42
-0.025640
  0
VERTEX
  8
0
 10
445.536517
 20
370.750000
 42
0.013235
  0
VERTEX
  8
0
 10
448.206772
 20
373.958710
 42
0.023217
  0
VERTEX
  8
0
 10
450.216509
 20
376.766883
 42
0.028220
  0
VERTEX
  8
0
 10
451.615794
 20
379.220353
 42
0.055643
  0
VERTEX
  8
0
 10
452.385814
 20
381.325128
 42
-0.073117
  0
VERTEX
  8
0
 10
452.932985
 20
382.673407
 42
-0.024542
  0
VERTEX
  8
0
 10
454.101315
 20
384.454443
 42
-0.023817
  0
VERTEX
  8
0
 10
455.605802
 20
386.325334
 42
-0.025086
  0
VERTEX
  8
0
 10
457.256877
 20
388.010913
 42
0.000000
  0
VERTEX
  8
0
 10
461.437938
 20
391.871570
 42
0.000000
  0
VERTEX
  8
0
 10
458.218969
 20
395.877147
 42
-0.011936
  0
VERTEX
  8
0
 10
456.986171
 20
397.488506
 42
-0.015750
  0
VERTEX
  8
0
 10
455.945572
 20
399.017060
 42
-0.013159
  0
VERTEX
  8
0
 10
455.161923
 20
400.324709
 42
-0.129104
  0
VERTEX
  8
0
 10
455.000000
 20
400.941362
 42
0.146748
  0
VERTEX
  8
0
 10
454.878905
 20
401.345073
 42
0.099109
  0
VERTEX
  8
0
 10
454.538370
 20
401.689025
 42
0.082923
  0
VERTEX
  8
0
 10
454.029262
 20
401.920882
 42
0.065564
  0
VERTEX
  8
0
 10
453.428495
 20
402.000000
 42
0.184753
  0
VERTEX
  8
0
 10
452.673351
 20
401.711109
 42
0.152742
  0
VERTEX
  8
0
 10
452.229837
 20
400.965960
 42
0.062724
  0
VERTEX
  8
0
 10
452.070946
 20
399.506736
 42
0.011085
  0
VERTEX
  8
0
 10
452.178495
 20
396.750000
 42
-0.009756
  0
VERTEX
  8
0
 10
452.310421
 20
393.584411
 42
-0.092740
  0
VERTEX
  8
0
 10
452.091722
 20
392.253029
 42
-0.198889
  0
VERTEX
  8
0
 10
451.453102
 20
391.554208
 42
-0.074407
  0
VERTEX
  8
0
 10
450.155055
 20
391.168007
 42
-0.051026
  0
VERTEX
  8
0
 10
449.050472
 20
391.125260
 42
-0.025077
  0
VERTEX
  8
0
 10
447.651280
 20
391.284649
 42
-0.024583
  0
VERTEX
  8
0
 10
446.201031
 20
391.597893
 42
-0.032716
  0
VERTEX
  8
0
 10
444.924466
 20
392.031287
 42
0.069656
  0
VERTEX
  8
0
 10
442.269023
 20
392.719560
 42
0.086171
  0
VERTEX
  8
0
 10
439.721857
 20
392.573212
 42
0.105706
  0
VERTEX
  8
0
 10
437.761324
 20
391.650375
 42
0.167657
  0
VERTEX
  8
0
 10
436.741991
 20
390.121375
 42
-0.118876
  0
VERTEX
  8
0
 10
436.253192
 20
389.210287
 42
-0.094557
  0
VERTEX
  8
0
 10
435.364229
 20
388.530022
 42
-0.062869
  0
VERTEX
  8
0
 10
433.961920
 20
388.035466
 42
-0.022643
  0
VERTEX
  8
0
 10
431.872499
 20
387.680668
 42
0.001439
  0
VERTEX
  8
0
 10
423.147948
 20
386.577278
 42
0.010525
  0
VERTEX
  8
0
 10
418.983030
 20
385.948963
 42
0.019833
  0
VERTEX
  8
0
 10
416.554334
 20
385.430189
 42
0.105637
  0
VERTEX
  8
0
 10
415.345653
 20
384.830458
 42
-0.105951
  0
VERTEX
  8
0
 10
414.724909
 20
384.522934
 42
-0.043026
  0
VERTEX
  8
0
 10
413.789123
 20
384.369173
 42
-0.040075
  0
VERTEX
  8
0
 10
412.718682
 20
384.372652
 42
-0.040660
  0
VERTEX
  8
0
 10
411.667825
 20
384.547235
 42
0.062903
  0
VERTEX
  8
0
 10
409.332239
 20
384.829482
 42
0.073960
  0
VERTEX
  8
0
 10
407.131311
 20
384.490022
 42
0.095346
  0
VERTEX
  8
0
 10
405.557574
 20
383.648998
 42
0.226215
  0
VERTEX
  8
0
 10
405.000000
 20
382.479665
 42
-0.127014
  0
VERTEX
  8
0
 10
404.011204
 20
378.649996
 42
-0.126414
  0
VERTEX
  8
0
 10
401.290867
 20
375.769700
 42
-0.114656
  0
VERTEX
  8
0
 10
397.279485
 20
374.377110
 42
-0.091923
  0
VERTEX
  8
0
 10
392.709519
 20
374.732011
 42
0.025475
  0
VERTEX
  8
0
 10
389.557097
 20
375.403583
 42
0.112064
  0
VERTEX
  8
0
 10
387.671622
 20
375.282291
 42
0.153260
  0
VERTEX
  8
0
 10
386.342367
 20
374.389215
 42
0.061961
  0
VERTEX
  8
0
 10
385.185468
 20
372.507713
 42
-0.080426
  0
VERTEX
  8
0
 10
384.425108
 20
371.367249
 42
-0.021246
  0
VERTEX
  8
0
 10
382.862002
 20
369.821635
 42
-0.020996
  0
VERTEX
  8
0
 10
380.908521
 20
368.191874
 42
-0.020184
  0
VERTEX
  8
0
 10
378.800018
 20
366.708922
 42
0.010218
  0
VERTEX
  8
0
 10
376.640206
 20
365.253334
 42
0.010101
  0
VERTEX
  8
0
 10
374.533242
 20
363.705280
 42
0.010010
  0
VERTEX
  8
0
 10
372.744608
 20
362.276906
 42
0.037925
  0
VERTEX
  8
0
 10
371.717402
 20
361.281436
 42
-0.089678
  0
VERTEX
  8
0
 10
370.385195
 20
360.233245
 42
-0.070406
  0
VERTEX
  8
0
 10
368.654007
 20
359.606823
 42
-0.038439
  0
VERTEX
  8
0
 10
365.988109
 20
359.258918
 42
-0.007789
  0
VERTEX
  8
0
 10
361.217402
 20
359.080643
 42
0.009076
  0
VERTEX
  8
0
 10
357.814098
 20
358.944697
 42
0.012985
  0
VERTEX
  8
0
 10
354.803930
 20
358.691114
 42
0.008862
  0
VERTEX
  8
0
 10
352.329147
 20
358.373266
 42
0.160688
  0
VERTEX
  8
0
 10
351.625764
 20
358.021167
 42
0.164130
  0
VERTEX
  8
0
 10
351.351945
 20
357.472195
 42
0.047427
  0
VERTEX
  8
0
 10
351.311097
 20
356.512431
 42
0.041034
  0
VERTEX
  8
0
 10
351.471083
 20
355.328088
 42
0.029792
  0
VERTEX
  8
0
 10
351.833566
 20
354.047587
 42
-0.047697
  0
VERTEX
  8
0
 10
352.358649
 20
351.902905
 42
-0.064727
  0
VERTEX
  8
0
 10
352.389537
 20
349.911606
 42
-0.090906
  0
VERTEX
  8
0
 10
351.959933
 20
348.498208
 42
-0.282208
  0
VERTEX
  8
0
 10
351.143011
 20
348.003738
 42
-0.105461
  0
VERTEX
  8
0
 10
350.749195
 20
348.090134
 42
-0.008950
  0
VERTEX
  8
0
 10
349.807635
 20
348.538017
 42
-0.011549
  0
VERTEX
  8
0
 10
348.695924
 20
349.123870
 42
-0.008683
  0
VERTEX
  8
0
 10
347.500000
 20
349.817310
 42
0.015574
  0
VERTEX
  8
0
 10
344.294251
 20
351.617557
 42
0.073266
  0
VERTEX
  8
0
 10
342.304509
 20
352.308592
 42
0.134037
  0
VERTEX
  8
0
 10
340.825490
 20
352.192267
 42
0.110553
  0
VERTEX
  8
0
 10
339.484971
 20
351.342114
 42
0.080865
  0
VERTEX
  8
0
 10
338.775937
 20
350.357336
 42
0.076191
  0
VERTEX
  8
0
 10
338.397530
 20
349.178258
 42
0.055552
  0
VERTEX
  8
0
 10
338.324330
 20
347.637420
 42
0.021336
  0
VERTEX
  8
0
 10
338.551846
 20
345.502836
 42
-0.020411
  0
VERTEX
  8
0
 10
338.733343
 20
343.829374
 42
-0.028891
  0
VERTEX
  8
0
 10
338.747503
 20
342.331379
 42
-0.028502
  0
VERTEX
  8
0
 10
338.622694
 20
341.150532
 42
-0.217048
  0
VERTEX
  8
0
 10
338.319496
 20
340.697459
 42
-0.148945
  0
VERTEX
  8
0
 10
337.751527
 20
340.547670
 42
-0.018949
  0
VERTEX
  8
0
 10
336.475782
 20
340.644497
 42
-0.020849
  0
VERTEX
  8
0
 10
334.932061
 20
340.886244
 42
-0.015953
  0
VERTEX
  8
0
 10
333.267717
 20
341.274065
 42
0.017478
  0
VERTEX
  8
0
 10
330.873505
 20
341.824261
 42
0.079001
  0
VERTEX
  8
0
 10
329.444979
 20
341.871780
 42
0.106975
  0
VERTEX
  8
0
 10
328.293986
 20
341.467785
 42
0.046248
  0
VERTEX
  8
0
 10
326.987392
 20
340.488590
 42
0.079074
  0
VERTEX
  8
0
 10
325.827248
 20
339.046329
 42
0.120715
  0
VERTEX
  8
0
 10
325.386543
 20
337.509837
 42
0.080589
  0
VERTEX
  8
0
 10
325.632039
 20
335.503776
 42
0.020955
  0
VERTEX
  8
0
 10
326.671808
 20
332.412871
 42
-0.015901
  0
VERTEX
  8
0
 10
327.043486
 20
331.343857
 42
-0.489110
  0
VERTEX
  8
0
 10
326.903818
 20
331.142733
 42
-0.163455
  0
VERTEX
  8
0
 10
326.504155
 20
331.253356
 42
-0.004235
  0
VERTEX
  8
0
 10
324.953567
 20
332.319970
 42
0.059106
  0
VERTEX
  8
0
 10
322.588117
 20
333.590614
 42
0.120543
  0
VERTEX
  8
0
 10
320.511897
 20
333.872480
 42
0.116944
  0
VERTEX
  8
0
 10
318.498236
 20
333.165099
 42
0.053738
  0
VERTEX
  8
0
 10
316.319149
 20
331.410058
 42
-0.017824
  0
VERTEX
  8
0
 10
314.976396
 20
330.159770
 42
-0.090358
  0
VERTEX
  8
0
 10
314.099579
 20
329.641441
 42
-0.199596
  0
VERTEX
  8
0
 10
313.451086
 20
329.667625
 42
-0.146753
  0
VERTEX
  8
0
 10
312.907059
 20
330.150381
 42
-0.127154
  0
VERTEX
  8
0
 10
312.685597
 20
330.864730
 42
-0.065572
  0
VERTEX
  8
0
 10
312.763974
 20
331.803613
 42
-0.054363
  0
VERTEX
  8
0
 10
313.122764
 20
332.876011
 42
-0.038079
  0
VERTEX
  8
0
 10
313.742561
 20
333.990323
 42
0.021952
  0
VERTEX
  8
0
 10
315.814046
 20
337.447442
 42
0.024177
  0
VERTEX
  8
0
 10
317.502932
 20
340.965362
 42
0.025687
  0
VERTEX
  8
0
 10
318.655156
 20
344.142799
 42
0.074265
  0
VERTEX
  8
0
 10
319.000000
 20
346.451694
 42
-0.036502
  0
VERTEX
  8
0
 10
319.071342
 20
347.427641
 42
-0.055093
  0
VERTEX
  8
0
 10
319.286978
 20
348.251435
 42
-0.072193
  0
VERTEX
  8
0
 10
319.602574
 20
348.815347
 42
-0.233204
  0
VERTEX
  8
0
 10
319.976947
 20
349.000000
 42
0.154809
  0
VERTEX
  8
0
 10
320.453884
 20
349.151295
 42
0.034671
  0
VERTEX
  8
0
 10
321.123548
 20
349.696908
 42
0.032812
  0
VERTEX
  8
0
 10
321.841564
 20
350.464244
 42
0.026648
  0
VERTEX
  8
0
 10
322.508385
 20
351.372454
 42
0.044494
  0
VERTEX
  8
0
 10
323.307886
 20
352.867364
 42
0.101995
  0
VERTEX
  8
0
 10
323.559061
 20
354.113522
 42
0.068505
  0
VERTEX
  8
0
 10
323.340677
 20
355.649982
 42
0.012329
  0
VERTEX
  8
0
 10
322.477450
 20
358.414672
 42
-0.024168
  0
VERTEX
  8
0
 10
321.920495
 20
360.359067
 42
-0.024492
  0
VERTEX
  8
0
 10
321.556693
 20
362.339528
 42
-0.025197
  0
VERTEX
  8
0
 10
321.412526
 20
364.087053
 42
-0.085019
  0
VERTEX
  8
0
 10
321.569300
 20
365.218344
 42
0.040905
  0
VERTEX
  8
0
 10
321.824662
 20
366.331164
 42
0.013320
  0
VERTEX
  8
0
 10
322.021904
 20
368.006897
 42
0.013176
  0
VERTEX
  8
0
 10
322.142793
 20
369.888014
 42
0.014475
  0
VERTEX
  8
0
 10
322.159011
 20
371.714737
 42
0.000000
  0
VERTEX
  8
0
 10
322.071446
 20
376.077223
 42
0.000000
  0
VERTEX
  8
0
 10
325.525162
 20
375.429302
 42
0.022223
  0
VERTEX
  8
0
 10
327.318164
 20
375.174785
 42
0.089402
  0
VERTEX
  8
0
 10
328.416521
 20
375.264787
 42
0.142828
  0
VERTEX
  8
0
 10
329.136272
 20
375.699978
 42
0.094486
  0
VERTEX
  8
0
 10
329.648586
 20
376.526613
 42
0.076546
  0
VERTEX
  8
0
 10
329.819277
 20
377.313486
 42
0.051594
  0
VERTEX
  8
0
 10
329.780367
 20
378.233319
 42
0.051004
  0
VERTEX
  8
0
 10
329.551641
 20
379.139305
 42
0.068750
  0
VERTEX
  8
0
 10
329.156760
 20
379.885923
 42
-0.034666
  0
VERTEX
  8
0
 10
327.470013
 20
382.609660
 42
-0.080097
  0
VERTEX
  8
0
 10
326.702988
 20
384.883687
 42
-0.092892
  0
VERTEX
  8
0
 10
326.746188
 20
387.066368
 42
-0.059576
  0
VERTEX
  8
0
 10
327.555407
 20
389.475519
 42
0.089153
  0
VERTEX
  8
0
 10
328.506073
 20
392.975383
 42
0.030382
  0
VERTEX
  8
0
 10
328.646915
 20
398.259382
 42
0.030534
  0
VERTEX
  8
0
 10
328.142424
 20
403.545659
 42
0.083997
  0
VERTEX
  8
0
 10
326.954744
 20
407.084561
 42
-0.119017
  0
VERTEX
  8
0
 10
326.497325
 20
408.843083
 42
-0.147881
  0
VERTEX
  8
0
 10
326.955916
 20
410.461753
 42
-0.142922
  0
VERTEX
  8
0
 10
328.252824
 20
411.592737
 42
-0.108736
  0
VERTEX
  8
0
 10
330.103393
 20
412.000000
 42
0.209201
  0
VERTEX
  8
0
 10
331.398882
 20
412.566842
 42
0.083353
  0
VERTEX
  8
0
 10
332.483689
 20
414.224168
 42
0.079945
  0
VERTEX
  8
0
 10
333.001329
 20
416.220590
 42
0.163361
  0
VERTEX
  8
0
 10
332.637103
 20
417.778162
 42
-0.146860
  0
VERTEX
  8
0
 10
332.487497
 20
418.336188
 42
-0.023532
  0
VERTEX
  8
0
 10
332.574999
 20
419.474032
 42
-0.024310
  0
VERTEX
  8
0
 10
332.813597
 20
420.844146
 42
-0.019192
  0
VERTEX
  8
0
 10
333.199685
 20
422.298975
 42
0.031265
  0
VERTEX
  8
0
 10
333.719953
 20
424.469362
 42
0.093256
  0
VERTEX
  8
0
 10
333.699851
 20
425.990706
 42
0.078516
  0
VERTEX
  8
0
 10
333.122096
 20
427.544957
 42
0.018001
  0
VERTEX
  8
0
 10
331.656725
 20
429.942536
 42
-0.014345
  0
VERTEX
  8
0
 10
330.639566
 20
431.579749
 42
-0.017156
  0
VERTEX
  8
0
 10
329.780413
 20
433.179231
 42
-0.016041
  0
VERTEX
  8
0
 10
329.152291
 20
434.561448
 42
-0.098934
  0
VERTEX
  8
0
 10
329.000000
 20
435.323572
 42
-0.153174
  0
VERTEX
  8
0
 10
329.418712
 20
436.658291
 42
-0.048401
  0
VERTEX
  8
0
 10
330.787924
 20
438.268473
 42
-0.048481
  0
VERTEX
  8
0
 10
332.449710
 20
439.591778
 42
-0.144903
  0
VERTEX
  8
0
 10
333.828741
 20
440.000000
 42
0.213190
  0
VERTEX
  8
0
 10
334.649458
 20
440.366599
 42
0.228378
  0
VERTEX
  8
0
 10
334.892500
 20
441.206865
 42
0.076867
  0
VERTEX
  8
0
 10
334.369746
 20
442.779437
 42
0.014672
  0
VERTEX
  8
0
 10
332.911372
 20
445.425640
 42
-0.013036
  0
VERTEX
  8
0
 10
331.730566
 20
447.551709
 42
-0.096225
  0
VERTEX
  8
0
 10
331.401428
 20
448.658523
 42
-0.163925
  0
VERTEX
  8
0
 10
331.604244
 20
449.533498
 42
-0.058232
  0
VERTEX
  8
0
 10
332.411372
 20
450.554229
 42
0.038816
  0
VERTEX
  8
0
 10
333.019302
 20
451.264659
 42
0.035054
  0
VERTEX
  8
0
 10
333.533341
 20
452.084320
 42
0.036836
  0
VERTEX
  8
0
 10
333.888304
 20
452.886896
 42
0.085905
  0
VERTEX
  8
0
 10
334.000000
 20
453.532210
 42
-0.022565
  0
VERTEX
  8
0
 10
334.042533
 20
454.474186
 42
-0.001228
  0
VERTEX
  8
0
 10
334.317525
 20
457.432184
 42
-0.001909
  0
VERTEX
  8
0
 10
334.666876
 20
460.950408
 42
-0.001393
  0
VERTEX
  8
0
 10
335.080937
 20
464.857710
 42
0.000000
  0
VERTEX
  8
0
 10
336.161874
 20
474.793857
 42
0.000000
  0
VERTEX
  8
0
 10
333.080937
 20
479.046967
 42
-0.025659
  0
VERTEX
  8
0
 10
331.901747
 20
480.864164
 42
-0.025076
  0
VERTEX
  8
0
 10
330.905025
 20
482.806305
 42
-0.025902
  0
VERTEX
  8
0
 10
330.206222
 20
484.596154
 42
-0.080280
  0
VERTEX
  8
0
 10
330.000000
 20
485.872261
 42
0.000000
  0
VERTEX
  8
0
 10
330.000000
 20
488.444444
 42
0.000000
  0
VERTEX
  8
0
 10
327.956718
 20
486.401162
 42
0.037974
  0
VERTEX
  8
0
 10
326.966756
 20
485.248215
 42
0.100024
  0
VERTEX
  8
0
 10
326.510811
 20
484.264941
 42
0.105197
  0
VERTEX
  8
0
 10
326.484307
 20
483.212542
 42
0.044749
  0
VERTEX
  8
0
 10
326.867592
 20
481.848260
 42
-0.031157
  0
VERTEX
  8
0
 10
327.345955
 20
480.307451
 42
-0.298760
  0
VERTEX
  8
0
 10
327.126477
 20
479.690732
 42
-0.159349
  0
VERTEX
  8
0
 10
326.327358
 20
479.415035
 42
-0.008891
  0
VERTEX
  8
0
 10
323.660874
 20
479.419320
 42
0.000000
  0
VERTEX
  8
0
 10
319.500000
 20
479.500000
 42
0.000000
  0
VERTEX
  8
0
 10
318.978024
 20
474.311357
 42
-0.011865
  0
VERTEX
  8
0
 10
318.723561
 20
472.269626
 42
-0.015733
  0
VERTEX
  8
0
 10
318.389881
 20
470.427381
 42
-0.013056
  0
VERTEX
  8
0
 10
318.028033
 20
468.927696
 42
-0.131381
  0
VERTEX
  8
0
 10
317.708823
 20
468.375490
 42
-0.152525
  0
VERTEX
  8
0
 10
317.176056
 20
468.096307
 42
-0.019819
  0
VERTEX
  8
0
 10
315.889766
 20
467.914607
 42
-0.021602
  0
VERTEX
  8
0
 10
314.303650
 20
467.823303
 42
-0.016507
  0
VERTEX
  8
0
 10
312.565581
 20
467.855821
 42
0.033423
  0
VERTEX
  8
0
 10
309.277734
 20
467.806158
 42
0.197419
  0
VERTEX
  8
0
 10
307.774908
 20
467.039462
 42
0.209680
  0
VERTEX
  8
0
 10
307.297057
 20
465.471687
 42
0.037988
  0
VERTEX
  8
0
 10
307.895990
 20
462.414525
 42
-0.062276
  0
VERTEX
  8
0
 10
308.331892
 20
459.429601
 42
-0.122952
  0
VERTEX
  8
0
 10
307.802973
 20
457.108589
 42
-0.145567
  0
VERTEX
  8
0
 10
306.334550
 20
455.556906
 42
-0.102297
  0
VERTEX
  8
0
 10
304.038169
 20
454.795982
 42
0.044685
  0
VERTEX
  8
0
 10
302.955980
 20
454.570521
 42
0.098011
  0
VERTEX
  8
0
 10
302.212745
 20
454.173985
 42
0.134954
  0
VERTEX
  8
0
 10
301.818697
 20
453.618513
 42
0.127762
  0
VERTEX
  8
0
 10
301.753132
 20
452.927256
 42
-0.189659
  0
VERTEX
  8
0
 10
301.380667
 20
451.223974
 42
-0.059208
  0
VERTEX
  8
0
 10
299.647465
 20
449.201100
 42
-0.056917
  0
VERTEX
  8
0
 10
297.298387
 20
447.486994
 42
-0.091560
  0
VERTEX
  8
0
 10
294.963562
 20
446.676668
 42
0.053423
  0
VERTEX
  8
0
 10
293.325057
 20
446.243968
 42
0.252120
  0
VERTEX
  8
0
 10
292.711310
 20
445.532681
 42
0.140708
  0
VERTEX
  8
0
 10
292.786714
 20
444.310329
 42
0.014637
  0
VERTEX
  8
0
 10
293.839227
 20
441.600424
 42
-0.041044
  0
VERTEX
  8
0
 10
294.426662
 20
439.813975
 42
-0.151483
  0
VERTEX
  8
0
 10
294.350361
 20
438.642339
 42
-0.102551
  0
VERTEX
  8
0
 10
293.596410
 20
437.466331
 42
-0.013686
  0
VERTEX
  8
0
 10
291.467161
 20
435.406055
 42
0.015170
  0
VERTEX
  8
0
 10
289.554865
 20
433.544690
 42
0.080607
  0
VERTEX
  8
0
 10
288.724205
 20
432.350331
 42
0.144619
  0
VERTEX
  8
0
 10
288.556145
 20
431.306122
 42
0.091183
  0
VERTEX
  8
0
 10
288.935043
 20
430.121373
 42
-0.094668
  0
VERTEX
  8
0
 10
289.982969
 20
426.764927
 42
-0.197230
  0
VERTEX
  8
0
 10
289.250136
 20
424.173657
 42
-0.164502
  0
VERTEX
  8
0
 10
286.743176
 20
422.532464
 42
-0.063474
  0
VERTEX
  8
0
 10
282.565741
 20
422.000000
 42
0.058894
  0
VERTEX
  8
0
 10
280.165963
 20
421.716350
 42
0.248365
  0
VERTEX
  8
0
 10
279.113726
 20
420.789393
 42
0.179068
  0
VERTEX
  8
0
 10
279.101555
 20
419.134081
 42
0.030721
  0
VERTEX
  8
0
 10
280.371250
 20
416.200340
 42
-0.032852
  0
VERTEX
  8
0
 10
280.882865
 20
415.004266
 42
-0.025315
  0
VERTEX
  8
0
 10
281.285938
 20
413.643082
 42
-0.025895
  0
VERTEX
  8
0
 10
281.532841
 20
412.327329
 42
-0.054106
  0
VERTEX
  8
0
 10
281.559495
 20
411.286748
 42
-0.097485
  0
VERTEX
  8
0
 10
281.005428
 20
409.336854
 42
-0.051188
  0
VERTEX
  8
0
 10
279.632514
 20
407.211319
 42
-0.051530
  0
VERTEX
  8
0
 10
277.960844
 20
405.517287
 42
-0.173993
  0
VERTEX
  8
0
 10
276.519326
 20
405.000000
 42
0.182559
  0
VERTEX
  8
0
 10
274.907733
 20
404.391292
 42
0.050651
  0
VERTEX
  8
0
 10
273.039201
 20
402.374673
 42
0.048559
  0
VERTEX
  8
0
 10
271.413943
 20
399.718111
 42
0.061743
  0
VERTEX
  8
0
 10
270.486955
 20
397.000000
 42
-0.051932
  0
VERTEX
  8
0
 10
269.182394
 20
392.914943
 42
-0.021574
  0
VERTEX
  8
0
 10
266.628354
 20
387.708022
 42
-0.013610
  0
VERTEX
  8
0
 10
263.792187
 20
382.827115
 42
-0.259925
  0
VERTEX
  8
0
 10
262.308615
 20
382.000000
 42
0.092515
  0
VERTEX
  8
0
 10
261.800466
 20
381.905165
 42
0.088395
  0
VERTEX
  8
0
 10
261.351569
 20
381.632812
 42
0.089983
  0
VERTEX
  8
0
 10
261.030445
 20
381.227182
 42
0.100579
  0
VERTEX
  8
0
 10
260.888217
 20
380.750000
 42
-0.006756
  0
VERTEX
  8
0
 10
260.490271
 20
376.888830
 42
-0.015570
  0
VERTEX
  8
0
 10
260.061793
 20
374.002025
 42
-0.020414
  0
VERTEX
  8
0
 10
259.556198
 20
371.733722
 42
-0.032032
  0
VERTEX
  8
0
 10
258.920094
 20
369.840728
 42
0.037772
  0
VERTEX
  8
0
 10
258.467563
 20
368.441084
 42
0.069310
  0
VERTEX
  8
0
 10
258.349579
 20
367.250857
 42
0.071965
  0
VERTEX
  8
0
 10
258.562150
 20
366.104036
 42
0.043855
  0
VERTEX
  8
0
 10
259.118168
 20
364.840728
 42
-0.022529
  0
VERTEX
  8
0
 10
260.412611
 20
362.209684
 42
-0.188341
  0
VERTEX
  8
0
 10
260.464464
 20
360.909048
 42
-0.271111
  0
VERTEX
  8
0
 10
259.633637
 20
360.196621
 42
-0.044863
  0
VERTEX
  8
0
 10
257.446700
 20
360.000000
 42
0.087109
  0
VERTEX
  8
0
 10
254.616021
 20
359.503074
 42
0.181871
  0
VERTEX
  8
0
 10
252.939776
 20
358.069949
 42
0.171091
  0
VERTEX
  8
0
 10
252.564733
 20
355.813717
 42
0.075913
  0
VERTEX
  8
0
 10
253.543386
 20
352.916101
 42
-0.013266
  0
VERTEX
  8
0
 10
254.868230
 20
350.178492
 42
-0.414187
  0
VERTEX
  8
0
 10
254.626873
 20
349.539529
 42
-0.305873
  0
VERTEX
  8
0
 10
253.825306
 20
349.676623
 42
-0.010938
  0
VERTEX
  8
0
 10
251.504631
 20
351.995166
 42
-0.021398
  0
VERTEX
  8
0
 10
249.888593
 20
353.833283
 42
-0.104484
  0
VERTEX
  8
0
 10
249.264526
 20
355.061259
 42
-0.113241
  0
VERTEX
  8
0
 10
249.216158
 20
356.387323
 42
-0.027187
  0
VERTEX
  8
0
 10
249.750246
 20
358.537886
 42
0.042966
  0
VERTEX
  8
0
 10
250.222771
 20
360.734303
 42
0.080873
  0
VERTEX
  8
0
 10
250.158789
 20
362.542556
 42
0.054114
  0
VERTEX
  8
0
 10
249.486975
 20
364.677354
 42
0.010827
  0
VERTEX
  8
0
 10
247.803617
 20
368.303151
 42
0.013334
  0
VERTEX
  8
0
 10
245.294341
 20
373.088168
 42
0.043282
  0
VERTEX
  8
0
 10
243.283972
 20
376.051092
 42
0.052753
  0
VERTEX
  8
0
 10
241.019902
 20
378.303079
 42
0.027813
  0
VERTEX
  8
0
 10
237.792996
 20
380.615110
 42
-0.022212
  0
VERTEX
  8
0
 10
236.296129
 20
381.662435
 42
-0.020797
  0
VERTEX
  8
0
 10
234.863612
 20
382.860513
 42
-0.021289
  0
VERTEX
  8
0
 10
233.683008
 20
384.030006
 42
-0.064127
  0
VERTEX
  8
0
 10
233.026204
 20
384.951038
 42
-0.059561
  0
VERTEX
  8
0
 10
232.592489
 20
386.061294
 42
-0.186682
  0
VERTEX
  8
0
 10
232.683337
 20
386.843104
 42
-0.129542
  0
VERTEX
  8
0
 10
233.321916
 20
387.539037
 42
-0.023367
  0
VERTEX
  8
0
 10
234.856423
 20
388.425754
 42
-0.024324
  0
VERTEX
  8
0
 10
236.009051
 20
388.952436
 42
-0.034532
  0
VERTEX
  8
0
 10
237.081610
 20
389.297113
 42
-0.037010
  0
VERTEX
  8
0
 10
237.952987
 20
389.444819
 42
-0.223442
  0
VERTEX
  8
0
 10
238.373216
 20
389.293451
 42
0.081189
  0
VERTEX
  8
0
 10
238.611782
 20
389.121918
 42
0.229940
  0
VERTEX
  8
0
 10
238.811384
 20
389.120055
 42
0.216325
  0
VERTEX
  8
0
 10
238.944874
 20
389.277893
 42
0.073290
  0
VERTEX
  8
0
 10
238.984687
 20
389.583333
 42
0.108938
  0
VERTEX
  8
0
 10
238.683636
 20
390.847864
 42
0.065231
  0
VERTEX
  8
0
 10
237.832128
 20
392.144658
 42
0.056779
  0
VERTEX
  8
0
 10
236.528494
 20
393.349569
 42
0.045056
  0
VERTEX
  8
0
 10
234.885090
 20
394.340437
 42
-0.094521
  0
VERTEX
  8
0
 10
233.740959
 20
395.194081
 42
-0.026844
  0
VERTEX
  8
0
 10
232.325949
 20
396.916830
 42
-0.025100
  0
VERTEX
  8
0
 10
230.857227
 20
399.140246
 42
-0.020178
  0
VERTEX
  8
0
 10
229.500000
 20
401.665121
 42
0.010062
  0
VERTEX
  8
0
 10
228.216806
 20
404.172601
 42
0.010274
  0
VERTEX
  8
0
 10
226.842293
 20
406.608871
 42
0.010086
  0
VERTEX
  8
0
 10
225.563527
 20
408.674201
 42
0.041516
  0
VERTEX
  8
0
 10
224.665254
 20
409.837505
 42
-0.062573
  0
VERTEX
  8
0
 10
223.923239
 20
410.886732
 42
-0.028265
  0
VERTEX
  8
0
 10
223.213506
 20
412.417896
 42
-0.027443
  0
VERTEX
  8
0
 10
222.637603
 20
414.140387
 42
-0.033626
  0
VERTEX
  8
0
 10
222.299583
 20
415.803106
 42
0.058929
  0
VERTEX
  8
0
 10
221.549368
 20
418.728320
 42
0.061526
  0
VERTEX
  8
0
 10
220.144272
 20
421.352029
 42
0.030517
  0
VERTEX
  8
0
 10
217.411242
 20
424.762416
 42
0.004320
  0
VERTEX
  8
0
 10
211.310939
 20
431.373463
 42
-0.035094
  0
VERTEX
  8
0
 10
206.842213
 20
436.857696
 42
-0.024872
  0
VERTEX
  8
0
 10
202.598168
 20
443.569856
 42
-0.024745
  0
VERTEX
  8
0
 10
199.012363
 20
450.724215
 42
-0.033067
  0
VERTEX
  8
0
 10
196.529116
 20
457.547840
 42
0.019437
  0
VERTEX
  8
0
 10
195.807733
 20
459.711776
 42
0.025321
  0
VERTEX
  8
0
 10
194.973070
 20
461.625459
 42
0.024471
  0
VERTEX
  8
0
 10
194.141977
 20
463.108313
 42
0.162562
  0
VERTEX
  8
0
 10
193.496355
 20
463.639772
 42
-0.143071
  0
VERTEX
  8
0
 10
192.249373
 20
464.588958
 42
-0.100206
  0
VERTEX
  8
0
 10
191.498868
 20
466.198912
 42
-0.090740
  0
VERTEX
  8
0
 10
191.391971
 20
468.123468
 42
-0.091731
  0
VERTEX
  8
0
 10
191.974951
 20
469.953196
 42
0.062290
  0
VERTEX
  8
0
 10
192.412458
 20
471.091381
 42
0.083901
  0
VERTEX
  8
0
 10
192.495180
 20
472.190086
 42
0.068235
  0
VERTEX
  8
0
 10
192.209460
 20
473.418556
 42
0.028125
  0
VERTEX
  8
0
 10
191.509744
 20
474.981158
 42
0.097050
  0
VERTEX
  8
0
 10
189.657826
 20
477.315117
 42
0.037245
  0
VERTEX
  8
0
 10
186.301745
 20
479.772901
 42
0.033091
  0
VERTEX
  8
0
 10
182.826420
 20
481.633244
 42
0.249732
  0
VERTEX
  8
0
 10
181.028835
 20
481.517821
 42
-0.267409
  0
VERTEX
  8
0
 10
180.464360
 20
481.500325
 42
-0.023930
  0
VERTEX
  8
0
 10
179.199771
 20
482.257423
 42
-0.026108
  0
VERTEX
  8
0
 10
177.689552
 20
483.380696
 42
-0.017182
  0
VERTEX
  8
0
 10
176.069677
 20
484.818937
 42
0.000000
  0
VERTEX
  8
0
 10
172.013092
 20
488.677874
 42
0.000000
  0
SEQEND
  0
ENDSEC
  0
EOF
