  0
SECTION
  2
HEADER
  9
$ACADVER
  1
AC1006
  9
$EXTMIN
 10
0.000000
 20
0.000000
 30
0.000000
  9
$EXTMAX
 10
402.000000
 20
409.000000
 30
0.000000
  0
ENDSEC
  0
SECTION
  2
ENTITIES
  0
POLYLINE
  8
0
 66
1
 70
1
  0
VERTEX
  8
0
 10
195.606989
 20
407.418213
 42
0.031902
  0
VERTEX
  8
0
 10
195.374103
 20
406.672301
 42
0.017158
  0
VERTEX
  8
0
 10
195.178303
 20
405.728381
 42
0.017022
  0
VERTEX
  8
0
 10
195.044050
 20
404.748633
 42
0.025540
  0
VERTEX
  8
0
 10
195.000000
 20
403.886828
 42
-0.135723
  0
VERTEX
  8
0
 10
194.559001
 20
402.292131
 42
-0.199959
  0
VERTEX
  8
0
 10
193.405501
 20
401.439579
 42
-0.130809
  0
VERTEX
  8
0
 10
191.548723
 20
401.473679
 42
-0.049727
  0
VERTEX
  8
0
 10
189.121482
 20
402.437179
 42
0.069232
  0
VERTEX
  8
0
 10
186.640697
 20
403.311952
 42
0.051062
  0
VERTEX
  8
0
 10
183.738884
 20
403.599377
 42
0.026199
  0
VERTEX
  8
0
 10
179.365533
 20
403.355555
 42
0.004408
  0
VERTEX
  8
0
 10
171.035679
 20
402.377367
 42
0.022325
  0
VERTEX
  8
0
 10
169.179191
 20
402.058011
 42
0.020145
  0
VERTEX
  8
0
 10
167.292848
 20
401.565721
 42
0.020623
  0
VERTEX
  8
0
 10
165.638646
 20
400.986505
 42
0.058307
  0
VERTEX
  8
0
 10
164.563173
 20
400.406588
 42
-0.087593
  0
VERTEX
  8
0
 10
162.207828
 20
399.308444
 42
-0.092992
  0
VERTEX
  8
0
 10
159.669145
 20
399.114923
 42
-0.086365
  0
VERTEX
  8
0
 10
157.082956
 20
399.863275
 42
-0.064163
  0
VERTEX
  8
0
 10
154.594461
 20
401.501221
 42
0.017101
  0
VERTEX
  8
0
 10
152.183952
 20
403.434909
 42
0.157943
  0
VERTEX
  8
0
 10
150.933413
 20
403.861264
 42
0.345890
  0
VERTEX
  8
0
 10
150.223393
 20
403.320676
 42
0.063596
  0
VERTEX
  8
0
 10
150.000000
 20
401.571429
 42
-0.095088
  0
VERTEX
  8
0
 10
149.617033
 20
399.575882
 42
-0.081886
  0
VERTEX
  8
0
 10
148.512657
 20
397.744395
 42
-0.086807
  0
VERTEX
  8
0
 10
146.950733
 20
396.451100
 42
-0.130333
  0
VERTEX
  8
0
 10
145.249569
 20
396.000000
 42
-0.046477
  0
VERTEX
  8
0
 10
144.413143
 20
396.077917
 42
-0.013304
  0
VERTEX
  8
0
 10
143.138869
 20
396.352692
 42
-0.013269
  0
VERTEX
  8
0
 10
141.710789
 20
396.741050
 42
-0.013730
  0
VERTEX
  8
0
 10
140.321650
 20
397.200652
 42
0.057498
  0
VERTEX
  8
0
 10
137.351442
 20
397.902707
 42
0.232261
  0
VERTEX
  8
0
 10
135.645300
 20
397.300729
 42
0.263708
  0
VERTEX
  8
0
 10
135.212706
 20
395.671269
 42
0.069458
  0
VERTEX
  8
0
 10
136.290188
 20
393.085896
 42
-0.035988
  0
VERTEX
  8
0
 10
137.429349
 20
390.795969
 42
-0.070122
  0
VERTEX
  8
0
 10
137.932494
 20
388.822686
 42
-0.127967
  0
VERTEX
  8
0
 10
137.742211
 20
387.518735
 42
-0.301503
  0
VERTEX
  8
0
 10
136.960162
 20
387.000000
 42
-0.085424
  0
VERTEX
  8
0
 10
136.346367
 20
387.105636
 42
-0.010602
  0
VERTEX
  8
0
 10
135.074181
 20
387.587500
 42
-0.012256
  0
VERTEX
  8
0
 10
133.577249
 20
388.234171
 42
-0.009863
  0
VERTEX
  8
0
 10
132.000000
 20
389.000000
 42
0.019031
  0
VERTEX
  8
0
 10
128.714545
 20
390.521468
 42
0.116063
  0
VERTEX
  8
0
 10
126.881158
 20
390.825884
 42
0.123944
  0
VERTEX
  8
0
 10
125.161931
 20
390.269128
 42
0.022952
  0
VERTEX
  8
0
 10
122.406060
 20
388.360551
 42
-0.019303
  0
VERTEX
  8
0
 10
121.033739
 20
387.395263
 42
-0.030025
  0
VERTEX
  8
0
 10
119.774738
 20
386.683787
 42
-0.030118
  0
VERTEX
  8
0
 10
118.749537
 20
386.257426
 42
-0.287365
  0
VERTEX
  8
0
 10
118.307787
 20
386.358879
 42
0.265453
  0
VERTEX
  8
0
 10
117.844646
 20
386.485295
 42
0.024150
  0
VERTEX
  8
0
 10
116.657387
 20
386.117035
 42
0.026247
  0
VERTEX
  8
0
 10
115.196556
 20
385.496754
 42
0.017314
  0
VERTEX
  8
0
 10
113.585005
 20
384.639976
 42
-0.014523
  0
VERTEX
  8
0
 10
111.821574
 20
383.689793
 42
-0.012190
  0
VERTEX
  8
0
 10
109.900834
 20
382.783667
 42
-0.012369
  0
VERTEX
  8
0
 10
108.104873
 20
382.041889
 42
-0.032830
  0
VERTEX
  8
0
 10
106.779537
 20
381.630009
 42
0.071489
  0
VERTEX
  8
0
 10
105.490540
 20
381.117540
 42
0.025167
  0
VERTEX
  8
0
 10
103.812664
 20
380.038592
 42
0.024384
  0
VERTEX
  8
0
 10
102.062299
 20
378.650286
 42
0.026232
  0
VERTEX
  8
0
 10
100.499769
 20
377.129800
 42
-0.033606
  0
VERTEX
  8
0
 10
97.442398
 20
374.241177
 42
-0.042281
  0
VERTEX
  8
0
 10
94.240127
 20
372.025251
 42
-0.040925
  0
VERTEX
  8
0
 10
90.624902
 20
370.327641
 42
-0.028608
  0
VERTEX
  8
0
 10
86.321155
 20
368.996306
 42
0.027377
  0
VERTEX
  8
0
 10
84.070514
 20
368.306144
 42
0.086548
  0
VERTEX
  8
0
 10
82.710846
 20
367.518681
 42
0.097863
  0
VERTEX
  8
0
 10
81.790399
 20
366.375947
 42
0.041071
  0
VERTEX
  8
0
 10
81.016414
 20
364.549734
 42
-0.107672
  0
VERTEX
  8
0
 10
79.432956
 20
361.867483
 42
-0.039253
  0
VERTEX
  8
0
 10
76.170685
 20
358.861571
 42
-0.038682
  0
VERTEX
  8
0
 10
72.198490
 20
356.209259
 42
-0.055187
  0
VERTEX
  8
0
 10
68.298039
 20
354.554921
 42
0.112978
  0
VERTEX
  8
0
 10
67.210139
 20
353.937965
 42
0.039270
  0
VERTEX
  8
0
 10
65.971898
 20
352.612561
 42
0.033245
  0
VERTEX
  8
0
 10
64.684246
 20
350.756194
 42
0.021245
  0
VERTEX
  8
0
 10
63.430688
 20
348.447859
 42
-0.013811
  0
VERTEX
  8
0
 10
61.605495
 20
344.964432
 42
-0.099642
  0
VERTEX
  8
0
 10
60.378490
 20
343.533673
 42
-0.145549
  0
VERTEX
  8
0
 10
58.898696
 20
342.952526
 42
-0.040718
  0
VERTEX
  8
0
 10
56.385755
 20
342.943085
 42
0.083604
  0
VERTEX
  8
0
 10
55.325173
 20
342.848243
 42
0.146733
  0
VERTEX
  8
0
 10
54.579248
 20
342.393583
 42
0.104052
  0
VERTEX
  8
0
 10
54.045484
 20
341.471335
 42
0.029985
  0
VERTEX
  8
0
 10
53.623879
 20
339.869393
 42
-0.055557
  0
VERTEX
  8
0
 10
52.768586
 20
337.184520
 42
-0.069705
  0
VERTEX
  8
0
 10
51.385530
 20
334.971539
 42
-0.082255
  0
VERTEX
  8
0
 10
49.677142
 20
333.506423
 42
-0.137036
  0
VERTEX
  8
0
 10
47.864064
 20
333.000000
 42
0.111860
  0
VERTEX
  8
0
 10
47.046961
 20
332.814882
 42
0.101087
  0
VERTEX
  8
0
 10
46.354648
 20
332.291769
 42
0.081239
  0
VERTEX
  8
0
 10
45.813472
 20
331.428788
 42
0.046099
  0
VERTEX
  8
0
 10
45.441256
 20
330.250000
 42
-0.029691
  0
VERTEX
  8
0
 10
44.602516
 20
327.255386
 42
-0.054400
  0
VERTEX
  8
0
 10
43.521513
 20
324.965987
 42
-0.066891
  0
VERTEX
  8
0
 10
42.163572
 20
323.298437
 42
-0.081748
  0
VERTEX
  8
0
 10
40.495166
 20
322.179751
 42
0.142849
  0
VERTEX
  8
0
 10
38.634000
 20
320.575798
 42
0.018914
  0
VERTEX
  8
0
 10
35.941196
 20
316.061943
 42
0.020808
  0
VERTEX
  8
0
 10
33.607064
 20
311.332449
 42
0.104590
  0
VERTEX
  8
0
 10
33.000000
 20
308.462092
 42
-0.160251
  0
VERTEX
  8
0
 10
32.771045
 20
307.766074
 42
-0.020857
  0
VERTEX
  8
0
 10
31.778709
 20
306.532164
 42
-0.022563
  0
VERTEX
  8
0
 10
30.434585
 20
305.129627
 42
-0.017098
  0
VERTEX
  8
0
 10
28.842415
 20
303.712349
 42
0.022276
  0
VERTEX
  8
0
 10
27.235949
 20
302.252260
 42
0.025771
  0
VERTEX
  8
0
 10
25.846322
 20
300.721222
 42
0.026113
  0
VERTEX
  8
0
 10
24.819775
 20
299.322924
 42
0.118846
  0
VERTEX
  8
0
 10
24.481260
 20
298.379414
 42
-0.022337
  0
VERTEX
  8
0
 10
24.352183
 20
297.539931
 42
-0.013846
  0
VERTEX
  8
0
 10
24.129682
 20
296.567417
 42
-0.013883
  0
VERTEX
  8
0
 10
23.856170
 20
295.617580
 42
-0.024235
  0
VERTEX
  8
0
 10
23.570264
 20
294.850090
 42
0.039647
  0
VERTEX
  8
0
 10
23.253787
 20
293.913332
 42
0.008743
  0
VERTEX
  8
0
 10
22.868332
 20
292.260127
 42
0.009041
  0
VERTEX
  8
0
 10
22.489721
 20
290.327928
 42
0.008589
  0
VERTEX
  8
0
 10
22.174114
 20
288.350090
 42
-0.014992
  0
VERTEX
  8
0
 10
21.695727
 20
285.580507
 42
-0.094272
  0
VERTEX
  8
0
 10
21.154163
 20
284.259297
 42
-0.156551
  0
VERTEX
  8
0
 10
20.293126
 20
283.558420
 42
-0.064404
  0
VERTEX
  8
0
 10
18.815874
 20
283.190639
 42
0.065604
  0
VERTEX
  8
0
 10
16.433256
 20
282.591407
 42
0.149974
  0
VERTEX
  8
0
 10
15.001778
 20
281.445288
 42
0.161930
  0
VERTEX
  8
0
 10
14.523066
 20
279.760580
 42
0.079945
  0
VERTEX
  8
0
 10
14.978505
 20
277.556537
 42
-0.039916
  0
VERTEX
  8
0
 10
15.774217
 20
274.825713
 42
-0.071601
  0
VERTEX
  8
0
 10
15.915801
 20
272.499221
 42
-0.084088
  0
VERTEX
  8
0
 10
15.402889
 20
270.490142
 42
-0.078825
  0
VERTEX
  8
0
 10
14.250000
 20
268.711367
 42
0.070078
  0
VERTEX
  8
0
 10
13.573260
 20
267.705997
 42
0.036194
  0
VERTEX
  8
0
 10
13.009682
 20
266.295706
 42
0.034892
  0
VERTEX
  8
0
 10
12.627803
 20
264.722031
 42
0.042102
  0
VERTEX
  8
0
 10
12.500000
 20
263.206944
 42
-0.028148
  0
VERTEX
  8
0
 10
12.385663
 20
261.177580
 42
-0.131350
  0
VERTEX
  8
0
 10
11.961737
 20
260.096702
 42
-0.138238
  0
VERTEX
  8
0
 10
11.067355
 20
259.401005
 42
-0.032438
  0
VERTEX
  8
0
 10
9.250000
 20
258.795726
 42
0.031666
  0
VERTEX
  8
0
 10
7.554525
 20
258.233943
 42
0.114261
  0
VERTEX
  8
0
 10
6.628308
 20
257.585484
 42
0.135248
  0
VERTEX
  8
0
 10
6.166690
 20
256.662119
 42
0.051984
  0
VERTEX
  8
0
 10
6.035435
 20
255.221408
 42
0.041005
  0
VERTEX
  8
0
 10
6.151995
 20
253.997962
 42
0.024134
  0
VERTEX
  8
0
 10
6.480268
 20
252.565039
 42
0.024032
  0
VERTEX
  8
0
 10
6.949813
 20
251.155319
 42
0.037453
  0
VERTEX
  8
0
 10
7.500000
 20
250.000000
 42
-0.068805
  0
VERTEX
  8
0
 10
8.414969
 20
247.721929
 42
-0.040189
  0
VERTEX
  8
0
 10
8.896750
 20
244.814114
 42
-0.040288
  0
VERTEX
  8
0
 10
8.906494
 20
241.884642
 42
-0.072426
  0
VERTEX
  8
0
 10
8.378819
 20
239.544802
 42
-0.087914
  0
VERTEX
  8
0
 10
7.942525
 20
238.819891
 42
-0.031905
  0
VERTEX
  8
0
 10
7.094456
 20
237.964240
 42
-0.030455
  0
VERTEX
  8
0
 10
6.026336
 20
237.126383
 42
-0.031768
  0
VERTEX
  8
0
 10
4.878819
 20
236.437335
 42
0.069966
  0
VERTEX
  8
0
 10
2.848961
 20
234.997514
 42
0.196436
  0
VERTEX
  8
0
 10
2.142400
 20
233.441331
 42
0.162295
  0
VERTEX
  8
0
 10
2.673212
 20
231.619499
 42
0.045056
  0
VERTEX
  8
0
 10
4.605662
 20
229.303429
 42
-0.009879
  0
VERTEX
  8
0
 10
6.181511
 20
227.664050
 42
-0.135651
  0
VERTEX
  8
0
 10
6.556315
 20
226.937443
 42
-0.283205
  0
VERTEX
  8
0
 10
6.354460
 20
226.376429
 42
-0.047646
  0
VERTEX
  8
0
 10
5.355662
 20
225.724560
 42
0.053476
  0
VERTEX
  8
0
 10
3.285140
 20
224.338624
 42
0.112327
  0
VERTEX
  8
0
 10
2.119244
 20
222.806113
 42
0.111062
  0
VERTEX
  8
0
 10
1.723738
 20
220.907981
 42
0.051554
  0
VERTEX
  8
0
 10
2.023750
 20
218.394695
 42
-0.031971
  0
VERTEX
  8
0
 10
2.271244
 20
216.840373
 42
-0.023222
  0
VERTEX
  8
0
 10
2.354521
 20
215.090260
 42
-0.023602
  0
VERTEX
  8
0
 10
2.277276
 20
213.415231
 42
-0.046539
  0
VERTEX
  8
0
 10
2.030746
 20
212.107206
 42
0.068282
  0
VERTEX
  8
0
 10
1.798895
 20
210.496340
 42
0.048966
  0
VERTEX
  8
0
 10
1.964877
 20
208.682570
 42
0.036741
  0
VERTEX
  8
0
 10
2.557120
 20
206.479011
 42
0.015767
  0
VERTEX
  8
0
 10
3.652468
 20
203.634232
 42
-0.028411
  0
VERTEX
  8
0
 10
5.450592
 20
198.587410
 42
-0.058016
  0
VERTEX
  8
0
 10
6.159134
 20
194.448772
 42
-0.082698
  0
VERTEX
  8
0
 10
5.811582
 20
191.340803
 42
-0.174172
  0
VERTEX
  8
0
 10
4.417333
 20
189.393047
 42
0.011954
  0
VERTEX
  8
0
 10
1.729601
 20
187.439333
 42
0.104889
  0
VERTEX
  8
0
 10
0.776425
 20
186.328860
 42
0.181740
  0
VERTEX
  8
0
 10
0.615818
 20
185.195342
 42
0.052228
  0
VERTEX
  8
0
 10
1.188154
 20
183.486392
 42
0.020242
  0
VERTEX
  8
0
 10
1.669532
 20
182.534034
 42
0.028468
  0
VERTEX
  8
0
 10
2.179456
 20
181.730378
 42
0.027937
  0
VERTEX
  8
0
 10
2.653996
 20
181.141373
 42
0.212294
  0
VERTEX
  8
0
 10
2.971954
 20
181.000000
 42
-0.179159
  0
VERTEX
  8
0
 10
3.996370
 20
180.620759
 42
-0.019344
  0
VERTEX
  8
0
 10
5.879123
 20
178.874521
 42
-0.019367
  0
VERTEX
  8
0
 10
7.621154
 20
176.987953
 42
-0.178577
  0
VERTEX
  8
0
 10
8.000000
 20
175.961045
 42
-0.194537
  0
VERTEX
  8
0
 10
7.851561
 20
175.593965
 42
-0.087053
  0
VERTEX
  8
0
 10
7.422835
 20
175.282307
 42
-0.066918
  0
VERTEX
  8
0
 10
6.787188
 20
175.070760
 42
-0.046944
  0
VERTEX
  8
0
 10
6.035184
 20
175.000000
 42
0.144636
  0
VERTEX
  8
0
 10
4.011685
 20
174.402152
 42
0.199474
  0
VERTEX
  8
0
 10
2.950114
 20
172.858610
 42
0.132638
  0
VERTEX
  8
0
 10
3.082749
 20
170.452073
 42
0.056112
  0
VERTEX
  8
0
 10
4.444733
 20
167.489384
 42
-0.013674
  0
VERTEX
  8
0
 10
5.672257
 20
165.323735
 42
-0.077811
  0
VERTEX
  8
0
 10
6.103724
 20
164.076316
 42
-0.146694
  0
VERTEX
  8
0
 10
5.997578
 20
163.146063
 42
-0.095407
  0
VERTEX
  8
0
 10
5.386775
 20
162.243918
 42
0.146275
  0
VERTEX
  8
0
 10
4.311250
 20
160.251135
 42
0.128347
  0
VERTEX
  8
0
 10
4.431897
 20
157.881941
 42
0.061611
  0
VERTEX
  8
0
 10
5.964585
 20
154.533309
 42
0.012046
  0
VERTEX
  8
0
 10
9.584778
 20
148.964073
 42
0.000000
  0
VERTEX
  8
0
 10
15.169557
 20
140.809388
 42
0.000000
  0
VERTEX
  8
0
 10
13.084778
 20
138.590243
 42
0.032411
  0
VERTEX
  8
0
 10
12.286948
 20
137.622368
 42
0.031483
  0
VERTEX
  8
0
 10
11.612404
 20
136.550380
 42
0.033091
  0
VERTEX
  8
0
 10
11.142871
 20
135.533422
 42
0.091854
  0
VERTEX
  8
0
 10
11.000000
 20
134.762274
 42
0.146874
  0
VERTEX
  8
0
 10
11.592388
 20
132.789118
 42
0.032899
  0
VERTEX
  8
0
 10
13.739361
 20
129.959619
 42
0.034752
  0
VERTEX
  8
0
 10
16.442905
 20
127.250391
 42
0.060003
  0
VERTEX
  8
0
 10
19.072554
 20
125.462481
 42
-0.056786
  0
VERTEX
  8
0
 10
20.343942
 20
124.609928
 42
-0.053121
  0
VERTEX
  8
0
 10
21.423058
 20
123.475702
 42
-0.051091
  0
VERTEX
  8
0
 10
22.273718
 20
122.095280
 42
-0.045225
  0
VERTEX
  8
0
 10
22.868489
 20
120.514122
 42
0.029292
  0
VERTEX
  8
0
 10
23.387900
 20
118.987592
 42
0.018625
  0
VERTEX
  8
0
 10
24.160082
 20
117.275876
 42
0.018704
  0
VERTEX
  8
0
 10
25.046488
 20
115.647247
 42
0.032683
  0
VERTEX
  8
0
 10
25.915051
 20
114.380866
 42
-0.049738
  0
VERTEX
  8
0
 10
26.794180
 20
113.000575
 42
-0.040824
  0
VERTEX
  8
0
 10
27.452775
 20
111.380538
 42
-0.039123
  0
VERTEX
  8
0
 10
27.862432
 20
109.601426
 42
-0.037044
  0
VERTEX
  8
0
 10
28.000000
 20
107.747156
 42
0.038868
  0
VERTEX
  8
0
 10
28.162838
 20
105.655566
 42
0.057607
  0
VERTEX
  8
0
 10
28.653629
 20
103.885525
 42
0.054081
  0
VERTEX
  8
0
 10
29.562845
 20
102.195705
 42
0.029722
  0
VERTEX
  8
0
 10
31.006552
 20
100.339756
 42
-0.032169
  0
VERTEX
  8
0
 10
32.397414
 20
98.533588
 42
-0.011639
  0
VERTEX
  8
0
 10
34.141650
 20
95.804089
 42
-0.011487
  0
VERTEX
  8
0
 10
35.918163
 20
92.718373
 42
-0.013411
  0
VERTEX
  8
0
 10
37.457258
 20
89.707741
 42
0.035377
  0
VERTEX
  8
0
 10
41.326790
 20
82.894086
 42
0.037698
  0
VERTEX
  8
0
 10
46.045448
 20
76.846367
 42
0.036312
  0
VERTEX
  8
0
 10
51.784670
 20
71.388581
 42
0.028695
  0
VERTEX
  8
0
 10
58.708224
 20
66.337309
 42
-0.014005
  0
VERTEX
  8
0
 10
62.436146
 20
63.781772
 42
-0.021256
  0
VERTEX
  8
0
 10
65.512118
 20
61.337554
 42
-0.024736
  0
VERTEX
  8
0
 10
67.904947
 20
59.047669
 42
-0.048743
  0
VERTEX
  8
0
 10
69.518133
 20
56.971276
 42
0.023743
  0
VERTEX
  8
0
 10
70.784274
 20
55.161917
 42
0.012693
  0
VERTEX
  8
0
 10
72.507899
 20
53.045378
 42
0.012611
  0
VERTEX
  8
0
 10
74.380749
 20
50.969559
 42
0.019208
  0
VERTEX
  8
0
 10
76.118151
 20
49.274292
 42
-0.017443
  0
VERTEX
  8
0
 10
78.215350
 20
47.242350
 42
-0.064801
  0
VERTEX
  8
0
 10
79.307324
 20
45.766168
 42
-0.095161
  0
VERTEX
  8
0
 10
79.763665
 20
44.378546
 42
-0.068533
  0
VERTEX
  8
0
 10
79.749156
 20
42.744251
 42
0.065440
  0
VERTEX
  8
0
 10
79.724792
 20
41.123881
 42
0.098990
  0
VERTEX
  8
0
 10
80.157750
 20
39.786082
 42
0.069333
  0
VERTEX
  8
0
 10
81.205050
 20
38.404931
 42
0.018909
  0
VERTEX
  8
0
 10
83.220424
 20
36.543321
 42
0.036957
  0
VERTEX
  8
0
 10
86.295074
 20
34.282348
 42
0.060820
  0
VERTEX
  8
0
 10
89.213371
 20
32.913125
 42
0.092309
  0
VERTEX
  8
0
 10
91.458118
 20
32.612556
 42
0.296616
  0
VERTEX
  8
0
 10
92.621849
 20
33.456938
 42
-0.174225
  0
VERTEX
  8
0
 10
93.291793
 20
34.234173
 42
-0.095291
  0
VERTEX
  8
0
 10
94.499003
 20
34.640139
 42
-0.122232
  0
VERTEX
  8
0
 10
95.575076
 20
34.522531
 42
-0.314460
  0
VERTEX
  8
0
 10
96.000000
 20
33.913700
 42
0.269279
  0
VERTEX
  8
0
 10
96.213651
 20
33.545757
 42
0.015791
  0
VERTEX
  8
0
 10
97.402729
 20
32.916006
 42
0.020407
  0
VERTEX
  8
0
 10
98.945237
 20
32.237004
 42
0.013295
  0
VERTEX
  8
0
 10
100.775248
 20
31.574651
 42
-0.034182
  0
VERTEX
  8
0
 10
102.950632
 20
30.682939
 42
-0.017198
  0
VERTEX
  8
0
 10
105.567648
 20
29.281159
 42
-0.016994
  0
VERTEX
  8
0
 10
108.184830
 20
27.639841
 42
-0.024127
  0
VERTEX
  8
0
 10
110.384132
 20
25.994284
 42
0.019011
  0
VERTEX
  8
0
 10
112.806552
 20
24.142843
 42
0.039174
  0
VERTEX
  8
0
 10
114.855680
 20
22.924925
 42
0.049691
  0
VERTEX
  8
0
 10
116.701716
 20
22.232910
 42
0.064929
  0
VERTEX
  8
0
 10
118.487730
 20
22.000000
 42
-0.065776
  0
VERTEX
  8
0
 10
120.201141
 20
21.773619
 42
-0.026282
  0
VERTEX
  8
0
 10
122.456449
 20
21.038040
 42
-0.023946
  0
VERTEX
  8
0
 10
124.982912
 20
19.922769
 42
-0.019608
  0
VERTEX
  8
0
 10
127.570017
 20
18.500000
 42
0.006808
  0
VERTEX
  8
0
 10
129.866790
 20
17.159221
 42
0.009512
  0
VERTEX
  8
0
 10
131.958276
 20
16.028125
 42
0.006354
  0
VERTEX
  8
0
 10
133.729351
 20
15.141743
 42
0.113311
  0
VERTEX
  8
0
 10
134.346781
 20
15.000000
 42
-0.121790
  0
VERTEX
  8
0
 10
134.905626
 20
14.861827
 42
-0.013586
  0
VERTEX
  8
0
 10
136.058102
 20
14.214237
 42
-0.015879
  0
VERTEX
  8
0
 10
137.404722
 20
13.349445
 42
-0.012245
  0
VERTEX
  8
0
 10
138.818241
 20
12.325064
 42
0.013733
  0
VERTEX
  8
0
 10
141.068878
 20
10.704207
 42
0.111023
  0
VERTEX
  8
0
 10
142.245392
 20
10.240374
 42
0.142332
  0
VERTEX
  8
0
 10
143.378063
 20
10.386581
 42
0.027479
  0
VERTEX
  8
0
 10
145.243671
 20
11.325064
 42
-0.010138
  0
VERTEX
  8
0
 10
146.415660
 20
11.966462
 42
-0.012889
  0
VERTEX
  8
0
 10
147.523396
 20
12.507987
 42
-0.010904
  0
VERTEX
  8
0
 10
148.464658
 20
12.913859
 42
-0.096625
  0
VERTEX
  8
0
 10
148.906248
 20
13.000000
 42
-0.146795
  0
VERTEX
  8
0
 10
149.390434
 20
12.854718
 42
-0.004700
  0
VERTEX
  8
0
 10
151.105314
 20
11.700502
 42
-0.008714
  0
VERTEX
  8
0
 10
153.110473
 20
10.271298
 42
-0.005897
  0
VERTEX
  8
0
 10
155.347427
 20
8.576178
 42
0.011124
  0
VERTEX
  8
0
 10
158.505848
 20
6.234354
 42
0.050891
  0
VERTEX
  8
0
 10
160.492039
 20
5.112731
 42
0.087198
  0
VERTEX
  8
0
 10
162.096812
 20
4.722709
 42
0.082387
  0
VERTEX
  8
0
 10
163.772218
 20
4.890714
 42
-0.028398
  0
VERTEX
  8
0
 10
165.033450
 20
5.156327
 42
-0.016214
  0
VERTEX
  8
0
 10
166.579964
 20
5.340230
 42
-0.016157
  0
VERTEX
  8
0
 10
168.153021
 20
5.424662
 42
-0.025700
  0
VERTEX
  8
0
 10
169.500000
 20
5.384138
 42
-0.005714
  0
VERTEX
  8
0
 10
177.328058
 20
4.654883
 42
-0.013403
  0
VERTEX
  8
0
 10
183.151626
 20
3.886875
 42
-0.017753
  0
VERTEX
  8
0
 10
187.607838
 20
3.014004
 42
-0.035252
  0
VERTEX
  8
0
 10
191.044865
 20
1.953050
 42
0.041682
  0
VERTEX
  8
0
 10
194.484132
 20
0.939591
 42
0.124176
  0
VERTEX
  8
0
 10
196.919003
 20
1.046404
 42
0.154037
  0
VERTEX
  8
0
 10
198.698240
 20
2.254782
 42
0.076450
  0
VERTEX
  8
0
 10
200.057669
 20
4.651681
 42
0.000000
  0
VERTEX
  8
0
 10
201.004460
 20
7.141931
 42
0.000000
  0
VERTEX
  8
0
 10
204.730074
 20
4.070966
 42
0.068829
  0
VERTEX
  8
0
 10
208.174727
 20
1.949862
 42
0.083053
  0
VERTEX
  8
0
 10
211.852767
 20
1.015547
 42
0.087430
  0
VERTEX
  8
0
 10
215.481902
 20
1.348101
 42
0.086701
  0
VERTEX
  8
0
 10
218.790493
 20
2.900736
 42
-0.103035
  0
VERTEX
  8
0
 10
222.486782
 20
4.491421
 42
-0.029897
  0
VERTEX
  8
0
 10
228.663253
 20
5.369815
 42
-0.030462
  0
VERTEX
  8
0
 10
234.976854
 20
5.499814
 42
-0.086513
  0
VERTEX
  8
0
 10
239.264264
 20
4.572915
 42
0.038694
  0
VERTEX
  8
0
 10
242.056261
 20
3.684222
 42
0.171224
  0
VERTEX
  8
0
 10
243.744738
 20
3.867885
 42
0.217968
  0
VERTEX
  8
0
 10
244.701083
 20
5.017070
 42
0.065093
  0
VERTEX
  8
0
 10
245.015313
 20
7.333333
 42
-0.038515
  0
VERTEX
  8
0
 10
245.315751
 20
10.996695
 42
-0.250232
  0
VERTEX
  8
0
 10
246.397271
 20
12.421684
 42
-0.210398
  0
VERTEX
  8
0
 10
248.340393
 20
12.453632
 42
-0.027810
  0
VERTEX
  8
0
 10
252.128118
 20
10.605636
 42
0.015525
  0
VERTEX
  8
0
 10
255.859749
 20
8.670147
 42
0.137076
  0
VERTEX
  8
0
 10
257.670502
 20
8.350042
 42
0.086467
  0
VERTEX
  8
0
 10
259.700531
 20
8.911840
 42
0.004228
  0
VERTEX
  8
0
 10
266.000000
 20
11.962196
 42
0.096789
  0
VERTEX
  8
0
 10
266.599115
 20
12.419900
 42
0.049200
  0
VERTEX
  8
0
 10
267.157686
 20
13.190650
 42
0.046314
  0
VERTEX
  8
0
 10
267.595530
 20
14.129842
 42
0.051295
  0
VERTEX
  8
0
 10
267.834676
 20
15.102128
 42
-0.081316
  0
VERTEX
  8
0
 10
268.541427
 20
17.379186
 42
-0.176745
  0
VERTEX
  8
0
 10
269.852472
 20
18.619528
 42
-0.087635
  0
VERTEX
  8
0
 10
272.331830
 20
19.207890
 42
-0.011399
  0
VERTEX
  8
0
 10
277.784531
 20
19.400853
 42
0.027532
  0
VERTEX
  8
0
 10
283.319464
 20
19.775734
 42
0.089031
  0
VERTEX
  8
0
 10
286.825805
 20
20.861411
 42
0.063326
  0
VERTEX
  8
0
 10
290.342862
 20
23.290069
 42
0.009361
  0
VERTEX
  8
0
 10
296.676097
 20
29.184780
 42
-0.022115
  0
VERTEX
  8
0
 10
298.458888
 20
30.761227
 42
-0.076841
  0
VERTEX
  8
0
 10
299.785103
 20
31.531959
 42
-0.100743
  0
VERTEX
  8
0
 10
301.078604
 20
31.756999
 42
-0.055395
  0
VERTEX
  8
0
 10
302.676097
 20
31.533129
 42
0.006106
  0
VERTEX
  8
0
 10
306.790767
 20
30.536241
 42
0.106363
  0
VERTEX
  8
0
 10
308.160663
 20
30.517669
 42
0.291075
  0
VERTEX
  8
0
 10
308.810041
 20
31.140919
 42
0.058502
  0
VERTEX
  8
0
 10
309.015313
 20
32.807418
 42
-0.103455
  0
VERTEX
  8
0
 10
309.696381
 20
35.973831
 42
-0.131713
  0
VERTEX
  8
0
 10
311.567818
 20
38.288273
 42
-0.123255
  0
VERTEX
  8
0
 10
314.454438
 20
39.453456
 42
-0.084141
  0
VERTEX
  8
0
 10
318.007057
 20
39.348589
 42
0.017974
  0
VERTEX
  8
0
 10
320.029976
 20
39.019119
 42
0.235981
  0
VERTEX
  8
0
 10
320.725383
 20
39.263529
 42
0.203344
  0
VERTEX
  8
0
 10
321.006363
 20
39.992021
 42
0.013212
  0
VERTEX
  8
0
 10
320.868616
 20
42.303579
 42
-0.035946
  0
VERTEX
  8
0
 10
320.828274
 20
45.168291
 42
-0.192857
  0
VERTEX
  8
0
 10
321.478555
 20
46.553831
 42
-0.177804
  0
VERTEX
  8
0
 10
322.943552
 20
47.171523
 42
-0.029799
  0
VERTEX
  8
0
 10
326.042598
 20
47.132796
 42
0.000000
  0
VERTEX
  8
0
 10
330.000000
 20
46.847062
 42
0.000000
  0
VERTEX
  8
0
 10
330.000000
 20
50.801086
 42
-0.058645
  0
VERTEX
  8
0
 10
330.363390
 20
53.888671
 42
-0.144832
  0
VERTEX
  8
0
 10
331.489253
 20
55.846063
 42
-0.156976
  0
VERTEX
  8
0
 10
333.428521
 20
56.782231
 42
-0.072645
  0
VERTEX
  8
0
 10
336.258464
 20
56.763268
 42
0.034423
  0
VERTEX
  8
0
 10
339.437719
 20
56.499044
 42
0.191246
  0
VERTEX
  8
0
 10
341.008440
 20
57.097142
 42
0.179444
  0
VERTEX
  8
0
 10
341.798553
 20
58.637559
 42
0.029714
  0
VERTEX
  8
0
 10
342.000000
 20
62.024316
 42
-0.020922
  0
VERTEX
  8
0
 10
342.140611
 20
65.383259
 42
-0.134513
  0
VERTEX
  8
0
 10
342.719809
 20
66.964594
 42
-0.176857
  0
VERTEX
  8
0
 10
343.942510
 20
67.805015
 42
-0.042404
  0
VERTEX
  8
0
 10
346.410671
 20
68.221916
 42
0.045672
  0
VERTEX
  8
0
 10
347.401616
 20
68.395953
 42
0.062357
  0
VERTEX
  8
0
 10
348.239384
 20
68.740016
 42
0.078559
  0
VERTEX
  8
0
 10
348.807767
 20
69.191278
 42
0.187907
  0
VERTEX
  8
0
 10
349.000000
 20
69.684728
 42
-0.138756
  0
VERTEX
  8
0
 10
349.206717
 20
70.415281
 42
-0.012643
  0
VERTEX
  8
0
 10
350.248438
 20
72.016485
 42
-0.015606
  0
VERTEX
  8
0
 10
351.622213
 20
73.887723
 42
-0.011588
  0
VERTEX
  8
0
 10
353.250000
 20
75.869394
 42
0.004484
  0
VERTEX
  8
0
 10
357.975356
 20
81.458236
 42
0.024233
  0
VERTEX
  8
0
 10
360.363118
 20
84.635624
 42
0.046378
  0
VERTEX
  8
0
 10
361.586660
 20
86.857805
 42
0.101511
  0
VERTEX
  8
0
 10
361.986586
 20
88.750000
 42
-0.118703
  0
VERTEX
  8
0
 10
362.501492
 20
90.833674
 42
-0.071274
  0
VERTEX
  8
0
 10
363.991490
 20
92.916942
 42
-0.072118
  0
VERTEX
  8
0
 10
365.981025
 20
94.472644
 42
-0.130647
  0
VERTEX
  8
0
 10
367.964816
 20
95.000000
 42
0.154181
  0
VERTEX
  8
0
 10
369.619201
 20
95.522574
 42
0.116823
  0
VERTEX
  8
0
 10
370.890873
 20
96.954199
 42
0.085653
  0
VERTEX
  8
0
 10
371.652231
 20
99.230185
 42
0.047411
  0
VERTEX
  8
0
 10
371.820152
 20
102.163951
 42
-0.032663
  0
VERTEX
  8
0
 10
371.860825
 20
103.630535
 42
-0.024408
  0
VERTEX
  8
0
 10
372.089501
 20
105.231968
 42
-0.024884
  0
VERTEX
  8
0
 10
372.455577
 20
106.725299
 42
-0.050352
  0
VERTEX
  8
0
 10
372.916211
 20
107.843439
 42
0.019172
  0
VERTEX
  8
0
 10
373.412647
 20
108.863169
 42
0.013692
  0
VERTEX
  8
0
 10
373.892188
 20
110.038682
 42
0.013855
  0
VERTEX
  8
0
 10
374.288054
 20
111.186008
 42
0.028578
  0
VERTEX
  8
0
 10
374.520410
 20
112.105979
 42
-0.096621
  0
VERTEX
  8
0
 10
374.932983
 20
113.130302
 42
-0.019192
  0
VERTEX
  8
0
 10
376.076372
 20
114.752655
 42
-0.019659
  0
VERTEX
  8
0
 10
377.577470
 20
116.565461
 42
-0.017184
  0
VERTEX
  8
0
 10
379.282875
 20
118.340870
 42
0.020995
  0
VERTEX
  8
0
 10
381.039060
 20
120.197251
 42
0.019087
  0
VERTEX
  8
0
 10
382.692733
 20
122.252623
 42
0.019497
  0
VERTEX
  8
0
 10
384.029237
 20
124.204692
 42
0.056545
  0
VERTEX
  8
0
 10
384.737615
 20
125.677165
 42
0.045613
  0
VERTEX
  8
0
 10
385.197314
 20
127.521547
 42
0.098751
  0
VERTEX
  8
0
 10
385.133658
 20
128.975322
 42
0.070987
  0
VERTEX
  8
0
 10
384.487754
 20
130.581450
 42
0.015418
  0
VERTEX
  8
0
 10
382.909515
 20
133.127377
 42
-0.015207
  0
VERTEX
  8
0
 10
380.431529
 20
137.120968
 42
-0.167867
  0
VERTEX
  8
0
 10
380.077117
 20
138.941154
 42
-0.360298
  0
VERTEX
  8
0
 10
381.019739
 20
139.799836
 42
-0.051485
  0
VERTEX
  8
0
 10
383.829906
 20
139.643190
 42
0.028793
  0
VERTEX
  8
0
 10
385.606174
 20
139.463184
 42
0.043452
  0
VERTEX
  8
0
 10
387.158982
 20
139.530654
 42
0.050823
  0
VERTEX
  8
0
 10
388.469318
 20
139.839993
 42
0.074633
  0
VERTEX
  8
0
 10
389.516182
 20
140.388174
 42
0.063077
  0
VERTEX
  8
0
 10
390.519763
 20
141.336997
 42
0.161950
  0
VERTEX
  8
0
 10
390.873115
 20
142.258011
 42
0.080917
  0
VERTEX
  8
0
 10
390.716149
 20
143.602085
 42
0.008619
  0
VERTEX
  8
0
 10
389.798336
 20
146.622793
 42
-0.034269
  0
VERTEX
  8
0
 10
388.914719
 20
150.176532
 42
-0.131733
  0
VERTEX
  8
0
 10
389.110326
 20
152.425279
 42
-0.227198
  0
VERTEX
  8
0
 10
390.291892
 20
153.583130
 42
-0.116634
  0
VERTEX
  8
0
 10
392.403088
 20
153.786923
 42
0.176936
  0
VERTEX
  8
0
 10
393.566276
 20
154.040033
 42
0.194855
  0
VERTEX
  8
0
 10
394.234625
 20
154.973446
 42
0.049490
  0
VERTEX
  8
0
 10
394.545929
 20
157.221272
 42
0.003576
  0
VERTEX
  8
0
 10
394.744185
 20
163.500000
 42
-0.007652
  0
VERTEX
  8
0
 10
394.903922
 20
167.519706
 42
-0.008946
  0
VERTEX
  8
0
 10
395.182097
 20
171.328083
 42
-0.008070
  0
VERTEX
  8
0
 10
395.526042
 20
174.531897
 42
-0.052719
  0
VERTEX
  8
0
 10
395.892050
 20
176.106240
 42
0.039197
  0
VERTEX
  8
0
 10
396.187903
 20
177.239282
 42
0.042970
  0
VERTEX
  8
0
 10
396.291281
 20
178.370064
 42
0.047304
  0
VERTEX
  8
0
 10
396.201660
 20
179.371504
 42
0.095462
  0
VERTEX
  8
0
 10
395.913178
 20
180.106240
 42
-0.117572
  0
VERTEX
  8
0
 10
394.981180
 20
182.823502
 42
-0.107194
  0
VERTEX
  8
0
 10
395.328133
 20
185.769661
 42
-0.098322
  0
VERTEX
  8
0
 10
396.920862
 20
188.507993
 42
-0.083531
  0
VERTEX
  8
0
 10
399.523038
 20
190.617850
 42
0.195466
  0
VERTEX
  8
0
 10
400.927471
 20
192.390138
 42
0.073829
  0
VERTEX
  8
0
 10
401.366322
 20
195.581388
 42
0.062345
  0
VERTEX
  8
0
 10
400.844534
 20
199.415524
 42
0.057100
  0
VERTEX
  8
0
 10
399.388810
 20
203.126121
 42
-0.046895
  0
VERTEX
  8
0
 10
398.676605
 20
204.838169
 42
-0.019223
  0
VERTEX
  8
0
 10
398.023944
 20
207.271423
 42
-0.018819
  0
VERTEX
  8
0
 10
397.518928
 20
209.955457
 42
-0.022893
  0
VERTEX
  8
0
 10
397.257016
 20
212.500000
 42
-0.000317
  0
VERTEX
  8
0
 10
397.107388
 20
215.161552
 42
-0.000212
  0
VERTEX
  8
0
 10
396.939454
 20
218.206250
 42
-0.000214
  0
VERTEX
  8
0
 10
396.779263
 20
221.156262
 42
-0.000422
  0
VERTEX
  8
0
 10
396.654981
 20
223.500000
 42
0.019237
  0
VERTEX
  8
0
 10
396.466387
 20
225.575836
 42
0.017992
  0
VERTEX
  8
0
 10
396.116185
 20
227.678291
 42
0.018306
  0
VERTEX
  8
0
 10
395.669917
 20
229.520715
 42
0.056810
  0
VERTEX
  8
0
 10
395.187169
 20
230.702692
 42
-0.063022
  0
VERTEX
  8
0
 10
394.734075
 20
231.852530
 42
-0.023460
  0
VERTEX
  8
0
 10
394.383928
 20
233.557277
 42
-0.022805
  0
VERTEX
  8
0
 10
394.172246
 20
235.472729
 42
-0.025573
  0
VERTEX
  8
0
 10
394.147526
 20
237.327286
 42
0.029899
  0
VERTEX
  8
0
 10
394.099958
 20
239.491766
 42
0.042893
  0
VERTEX
  8
0
 10
393.780302
 20
241.382432
 42
0.046376
  0
VERTEX
  8
0
 10
393.170460
 20
243.074572
 42
0.045076
  0
VERTEX
  8
0
 10
392.254509
 20
244.642576
 42
-0.026211
  0
VERTEX
  8
0
 10
390.723165
 20
247.050899
 42
-0.072498
  0
VERTEX
  8
0
 10
389.999983
 20
248.919775
 42
-0.087176
  0
VERTEX
  8
0
 10
389.909442
 20
250.708991
 42
-0.050860
  0
VERTEX
  8
0
 10
390.389996
 20
252.808786
 42
0.068019
  0
VERTEX
  8
0
 10
390.622550
 20
254.012883
 42
0.049014
  0
VERTEX
  8
0
 10
390.563661
 20
255.381797
 42
0.043476
  0
VERTEX
  8
0
 10
390.217280
 20
256.875692
 42
0.032094
  0
VERTEX
  8
0
 10
389.589116
 20
258.453445
 42
-0.036649
  0
VERTEX
  8
0
 10
388.985751
 20
260.009984
 42
-0.021600
  0
VERTEX
  8
0
 10
388.485569
 20
261.941912
 42
-0.021536
  0
VERTEX
  8
0
 10
388.150997
 20
263.925704
 42
-0.034202
  0
VERTEX
  8
0
 10
388.055262
 20
265.644659
 42
0.011331
  0
VERTEX
  8
0
 10
388.039161
 20
267.267382
 42
0.010035
  0
VERTEX
  8
0
 10
387.950222
 20
268.954994
 42
0.010129
  0
VERTEX
  8
0
 10
387.808804
 20
270.471595
 42
0.030076
  0
VERTEX
  8
0
 10
387.628702
 20
271.500000
 42
-0.007826
  0
VERTEX
  8
0
 10
387.440975
 20
272.348051
 42
-0.006796
  0
VERTEX
  8
0
 10
387.270278
 20
273.242336
 42
-0.006852
  0
VERTEX
  8
0
 10
387.137850
 20
274.056153
 42
-0.019895
  0
VERTEX
  8
0
 10
387.076511
 20
274.622846
 42
0.132542
  0
VERTEX
  8
0
 10
386.833779
 20
275.327859
 42
0.006161
  0
VERTEX
  8
0
 10
385.378060
 20
277.422015
 42
0.009840
  0
VERTEX
  8
0
 10
383.552262
 20
279.877054
 42
0.006874
  0
VERTEX
  8
0
 10
381.401990
 20
282.575170
 42
-0.008693
  0
VERTEX
  8
0
 10
378.331903
 20
286.456340
 42
-0.045551
  0
VERTEX
  8
0
 10
376.885534
 20
288.759154
 42
-0.081885
  0
VERTEX
  8
0
 10
376.302344
 20
290.602749
 42
-0.076107
  0
VERTEX
  8
0
 10
376.320094
 20
292.585080
 42
0.072055
  0
VERTEX
  8
0
 10
376.353213
 20
294.531428
 42
0.065018
  0
VERTEX
  8
0
 10
375.841479
 20
296.480970
 42
0.040636
  0
VERTEX
  8
0
 10
374.610822
 20
298.917068
 42
0.010472
  0
VERTEX
  8
0
 10
372.232042
 20
302.628709
 42
0.013290
  0
VERTEX
  8
0
 10
370.180260
 20
305.518151
 42
0.010599
  0
VERTEX
  8
0
 10
367.821095
 20
308.525201
 42
0.010748
  0
VERTEX
  8
0
 10
365.516369
 20
311.217794
 42
0.026427
  0
VERTEX
  8
0
 10
363.681476
 20
313.064187
 42
-0.012760
  0
VERTEX
  8
0
 10
361.499787
 20
315.142758
 42
-0.080923
  0
VERTEX
  8
0
 10
360.609141
 20
316.383524
 42
-0.153559
  0
VERTEX
  8
0
 10
360.438656
 20
317.465015
 42
-0.085964
  0
VERTEX
  8
0
 10
360.861286
 20
318.740810
 42
0.104226
  0
VERTEX
  8
0
 10
361.249168
 20
320.071185
 42
0.134680
  0
VERTEX
  8
0
 10
361.007760
 20
321.314651
 42
0.064473
  0
VERTEX
  8
0
 10
359.960672
 20
322.884366
 42
0.009868
  0
VERTEX
  8
0
 10
357.431228
 20
325.672577
 42
-0.010383
  0
VERTEX
  8
0
 10
355.585229
 20
327.711643
 42
-0.010070
  0
VERTEX
  8
0
 10
353.806109
 20
329.846152
 42
-0.010026
  0
VERTEX
  8
0
 10
352.317565
 20
331.785461
 42
-0.036258
  0
VERTEX
  8
0
 10
351.488562
 20
333.101556
 42
0.066015
  0
VERTEX
  8
0
 10
349.376761
 20
336.050482
 42
0.032637
  0
VERTEX
  8
0
 10
346.007408
 20
339.203489
 42
0.029653
  0
VERTEX
  8
0
 10
341.764097
 20
342.282428
 42
0.025238
  0
VERTEX
  8
0
 10
336.956710
 20
345.021853
 42
-0.012321
  0
VERTEX
  8
0
 10
334.674203
 20
346.245537
 42
-0.018433
  0
VERTEX
  8
0
 10
332.749784
 20
347.435024
 42
-0.013701
  0
VERTEX
  8
0
 10
331.259525
 20
348.494185
 42
-0.235597
  0
VERTEX
  8
0
 10
331.000000
 20
349.014395
 42
-0.001628
  0
VERTEX
  8
0
 10
331.001401
 20
349.444614
 42
-0.001186
  0
VERTEX
  8
0
 10
331.005650
 20
349.922938
 42
-0.001198
  0
VERTEX
  8
0
 10
331.011843
 20
350.376560
 42
-0.002636
  0
VERTEX
  8
0
 10
331.019236
 20
350.723267
 42
-0.332937
  0
VERTEX
  8
0
 10
331.228178
 20
350.987336
 42
-0.034576
  0
VERTEX
  8
0
 10
332.055295
 20
351.145984
 42
-0.032109
  0
VERTEX
  8
0
 10
333.183523
 20
351.209442
 42
-0.019486
  0
VERTEX
  8
0
 10
334.519236
 20
351.146650
 42
0.021956
  0
VERTEX
  8
0
 10
336.191712
 20
351.076299
 42
0.082988
  0
VERTEX
  8
0
 10
337.221277
 20
351.250342
 42
0.157091
  0
VERTEX
  8
0
 10
337.785424
 20
351.674504
 42
0.154837
  0
VERTEX
  8
0
 10
338.000000
 20
352.350802
 42
0.183672
  0
VERTEX
  8
0
 10
337.362288
 20
354.028239
 42
0.051260
  0
VERTEX
  8
0
 10
335.255141
 20
355.959123
 42
0.051252
  0
VERTEX
  8
0
 10
332.666207
 20
357.500228
 42
0.109059
  0
VERTEX
  8
0
 10
330.402162
 20
358.000000
 42
-0.076257
  0
VERTEX
  8
0
 10
327.496504
 20
358.445747
 42
-0.017926
  0
VERTEX
  8
0
 10
322.847410
 20
360.091808
 42
-0.019317
  0
VERTEX
  8
0
 10
318.145106
 20
362.162268
 42
-0.041369
  0
VERTEX
  8
0
 10
314.738540
 20
364.186176
 42
-0.051795
  0
VERTEX
  8
0
 10
313.485270
 20
365.290430
 42
-0.025825
  0
VERTEX
  8
0
 10
312.132018
 20
366.918797
 42
-0.025321
  0
VERTEX
  8
0
 10
310.891569
 20
368.766967
 42
-0.033895
  0
VERTEX
  8
0
 10
309.972527
 20
370.564092
 42
0.048313
  0
VERTEX
  8
0
 10
308.190077
 20
373.815173
 42
0.110561
  0
VERTEX
  8
0
 10
306.161029
 20
375.714957
 42
0.077018
  0
VERTEX
  8
0
 10
303.051820
 20
376.951585
 42
0.015288
  0
VERTEX
  8
0
 10
297.159624
 20
378.110715
 42
-0.020789
  0
VERTEX
  8
0
 10
292.187334
 20
379.145804
 42
-0.054073
  0
VERTEX
  8
0
 10
288.763593
 20
380.414430
 42
-0.046910
  0
VERTEX
  8
0
 10
285.422739
 20
382.493401
 42
-0.012646
  0
VERTEX
  8
0
 10
280.547567
 20
386.401116
 42
0.019450
  0
VERTEX
  8
0
 10
278.232378
 20
388.205686
 42
0.040970
  0
VERTEX
  8
0
 10
276.280783
 20
389.378966
 42
0.052585
  0
VERTEX
  8
0
 10
274.528536
 20
390.027192
 42
0.069531
  0
VERTEX
  8
0
 10
272.839127
 20
390.214489
 42
-0.105466
  0
VERTEX
  8
0
 10
269.163553
 20
390.889908
 42
-0.020270
  0
VERTEX
  8
0
 10
262.977489
 20
393.745122
 42
-0.022449
  0
VERTEX
  8
0
 10
256.870428
 20
397.224366
 42
-0.057866
  0
VERTEX
  8
0
 10
252.923967
 20
400.404912
 42
0.000000
  0
VERTEX
  8
0
 10
250.068293
 20
403.309824
 42
0.000000
  0
VERTEX
  8
0
 10
249.095830
 20
400.752051
 42
-0.056386
  0
VERTEX
  8
0
 10
247.932006
 20
398.494406
 42
-0.193821
  0
VERTEX
  8
0
 10
246.596691
 20
397.582285
 42
-0.136650
  0
VERTEX
  8
0
 10
244.679125
 20
397.688312
 42
-0.023610
  0
VERTEX
  8
0
 10
241.261527
 20
399.029885
 42
0.012479
  0
VERTEX
  8
0
 10
237.321353
 20
400.678705
 42
0.042850
  0
VERTEX
  8
0
 10
234.662645
 20
401.459713
 42
0.018707
  0
VERTEX
  8
0
 10
231.056440
 20
402.051527
 42
0.000900
  0
VERTEX
  8
0
 10
218.957329
 20
403.552793
 42
0.025110
  0
VERTEX
  8
0
 10
217.023147
 20
403.691206
 42
0.021097
  0
VERTEX
  8
0
 10
214.968212
 20
403.648134
 42
0.021619
  0
VERTEX
  8
0
 10
213.092395
 20
403.447836
 42
0.053479
  0
VERTEX
  8
0
 10
211.756424
 20
403.097492
 42
-0.068117
  0
VERTEX
  8
0
 10
210.130976
 20
402.721534
 42
-0.100203
  0
VERTEX
  8
0
 10
208.678108
 20
402.879738
 42
-0.061143
  0
VERTEX
  8
0
 10
206.928578
 20
403.682821
 42
-0.012519
  0
VERTEX
  8
0
 10
204.073202
 20
405.543417
 42
0.016551
  0
VERTEX
  8
0
 10
200.402841
 20
407.893130
 42
0.079773
  0
VERTEX
  8
0
 10
198.105145
 20
408.803239
 42
0.184491
  0
VERTEX
  8
0
 10
196.613078
 20
408.582385
 42
0.174890
  0
SEQEND
  0
POLYLINE
  8
0
 66
1
 70
1
  0
VERTEX
  8
0
 10
92.000000
 20
39.210154
 42
-0.205957
  0
VERTEX
  8
0
 10
91.831416
 20
38.818246
 42
-0.322188
  0
VERTEX
  8
0
 10
91.482604
 20
38.770884
 42
-0.085830
  0
VERTEX
  8
0
 10
90.871662
 20
39.244707
 42
-0.018347
  0
VERTEX
  8
0
 10
90.000000
 20
40.272871
 42
-0.013177
  0
VERTEX
  8
0
 10
89.234124
 20
41.301169
 42
-0.016897
  0
VERTEX
  8
0
 10
88.587500
 20
42.288080
 42
-0.014833
  0
VERTEX
  8
0
 10
88.106076
 20
43.135641
 42
-0.122330
  0
VERTEX
  8
0
 10
88.000000
 20
43.562717
 42
-0.460213
  0
VERTEX
  8
0
 10
88.161184
 20
43.700746
 42
-0.083684
  0
VERTEX
  8
0
 10
88.587500
 20
43.558788
 42
-0.042428
  0
VERTEX
  8
0
 10
89.231664
 20
43.142964
 42
-0.019386
  0
VERTEX
  8
0
 10
90.000000
 20
42.500000
 42
-0.036585
  0
VERTEX
  8
0
 10
90.765317
 20
41.698156
 42
-0.035697
  0
VERTEX
  8
0
 10
91.412500
 20
40.786993
 42
-0.037917
  0
VERTEX
  8
0
 10
91.861141
 20
39.904731
 42
-0.098980
  0
SEQEND
  0
POLYLINE
  8
0
 66
1
 70
1
  0
VERTEX
  8
0
 10
392.000000
 20
253.606989
 42
0.225200
  0
VERTEX
  8
0
 10
392.088769
 20
253.419896
 42
0.029412
  0
VERTEX
  8
0
 10
392.455882
 20
253.154486
 42
0.029555
  0
VERTEX
  8
0
 10
392.957462
 20
252.875192
 42
0.020646
  0
VERTEX
  8
0
 10
393.551938
 20
252.618443
 42
0.036408
  0
VERTEX
  8
0
 10
394.131719
 20
252.443138
 42
0.155351
  0
VERTEX
  8
0
 10
394.487528
 20
252.474315
 42
0.329480
  0
VERTEX
  8
0
 10
394.606889
 20
252.674071
 42
0.114400
  0
VERTEX
  8
0
 10
394.492921
 20
253.011454
 42
0.115814
  0
VERTEX
  8
0
 10
393.901891
 20
253.603931
 42
0.080554
  0
VERTEX
  8
0
 10
393.026239
 20
253.969265
 42
0.115534
  0
VERTEX
  8
0
 10
392.291154
 20
253.972535
 42
0.349578
  0
SEQEND
  0
ENDSEC
  0
EOF
