  0
SECTION
  2
HEADER
  9
$ACADVER
  1
AC1006
  9
$EXTMIN
 10
0.000000
 20
0.000000
 30
0.000000
  9
$EXTMAX
 10
415.000000
 20
365.000000
 30
0.000000
  0
ENDSEC
  0
SECTION
  2
ENTITIES
  0
POLYLINE
  8
0
 66
1
 70
1
  0
VERTEX
  8
0
 10
303.850000
 20
364.059017
 42
0.005413
  0
VERTEX
  8
0
 10
303.785336
 20
363.563943
 42
0.002801
  0
VERTEX
  8
0
 10
303.714687
 20
362.943899
 42
0.002783
  0
VERTEX
  8
0
 10
303.649182
 20
362.305707
 42
0.004222
  0
VERTEX
  8
0
 10
303.600000
 20
361.750000
 42
-0.075673
  0
VERTEX
  8
0
 10
303.418162
 20
360.976490
 42
-0.006572
  0
VERTEX
  8
0
 10
302.637583
 20
359.104688
 42
-0.008526
  0
VERTEX
  8
0
 10
301.634108
 20
356.889168
 42
-0.006521
  0
VERTEX
  8
0
 10
300.464113
 20
354.500000
 42
-0.015790
  0
VERTEX
  8
0
 10
298.940630
 20
351.711278
 42
-0.040525
  0
VERTEX
  8
0
 10
297.619885
 20
349.831935
 42
-0.058719
  0
VERTEX
  8
0
 10
296.401063
 20
348.673723
 42
-0.125476
  0
VERTEX
  8
0
 10
295.209642
 20
348.179863
 42
-0.147669
  0
VERTEX
  8
0
 10
293.467185
 20
348.443051
 42
-0.191546
  0
VERTEX
  8
0
 10
292.376813
 20
349.615462
 42
-0.127943
  0
VERTEX
  8
0
 10
292.138157
 20
351.660988
 42
-0.055699
  0
VERTEX
  8
0
 10
292.819034
 20
354.331521
 42
0.014151
  0
VERTEX
  8
0
 10
293.230537
 20
355.522699
 42
0.021043
  0
VERTEX
  8
0
 10
293.516524
 20
356.588118
 42
0.017048
  0
VERTEX
  8
0
 10
293.679973
 20
357.456365
 42
0.238731
  0
VERTEX
  8
0
 10
293.583933
 20
357.749400
 42
0.398318
  0
VERTEX
  8
0
 10
292.999134
 20
357.765361
 42
0.006584
  0
VERTEX
  8
0
 10
290.383821
 20
355.358121
 42
0.013093
  0
VERTEX
  8
0
 10
287.963404
 20
352.947614
 42
0.080389
  0
VERTEX
  8
0
 10
286.971268
 20
351.500000
 42
-0.093251
  0
VERTEX
  8
0
 10
286.715427
 20
351.146413
 42
-0.088980
  0
VERTEX
  8
0
 10
286.344685
 20
350.902997
 42
-0.090345
  0
VERTEX
  8
0
 10
285.917599
 20
350.806019
 42
-0.100117
  0
VERTEX
  8
0
 10
285.500000
 20
350.871906
 42
0.026393
  0
VERTEX
  8
0
 10
283.176141
 20
351.599126
 42
0.115326
  0
VERTEX
  8
0
 10
281.745858
 20
351.628983
 42
0.145425
  0
VERTEX
  8
0
 10
280.630490
 20
351.023139
 42
0.051130
  0
VERTEX
  8
0
 10
279.469912
 20
349.594424
 42
-0.032169
  0
VERTEX
  8
0
 10
277.776906
 20
347.341092
 42
-0.353430
  0
VERTEX
  8
0
 10
276.740109
 20
347.149563
 42
-0.284367
  0
VERTEX
  8
0
 10
276.150486
 20
348.179585
 42
-0.026050
  0
VERTEX
  8
0
 10
276.416088
 20
351.250000
 42
0.002850
  0
VERTEX
  8
0
 10
276.739283
 20
353.671651
 42
0.095570
  0
VERTEX
  8
0
 10
276.702351
 20
354.251699
 42
0.696632
  0
VERTEX
  8
0
 10
276.521046
 20
354.269840
 42
0.012650
  0
VERTEX
  8
0
 10
275.954172
 20
353.028230
 42
-0.048888
  0
VERTEX
  8
0
 10
274.822594
 20
350.960320
 42
-0.135354
  0
VERTEX
  8
0
 10
273.568661
 20
349.896990
 42
-0.113319
  0
VERTEX
  8
0
 10
271.802376
 20
349.523139
 42
-0.029068
  0
VERTEX
  8
0
 10
268.872599
 20
349.743914
 42
0.059860
  0
VERTEX
  8
0
 10
266.128974
 20
349.781654
 42
0.298701
  0
VERTEX
  8
0
 10
264.995572
 20
348.853147
 42
0.204973
  0
VERTEX
  8
0
 10
265.174514
 20
347.077366
 42
0.032978
  0
VERTEX
  8
0
 10
267.097034
 20
344.082624
 42
-0.066506
  0
VERTEX
  8
0
 10
268.285772
 20
341.926284
 42
-0.077038
  0
VERTEX
  8
0
 10
268.790638
 20
339.638880
 42
-0.157340
  0
VERTEX
  8
0
 10
268.434916
 20
338.237937
 42
-0.377462
  0
VERTEX
  8
0
 10
267.486305
 20
337.956760
 42
-0.129623
  0
VERTEX
  8
0
 10
267.036777
 20
338.328912
 42
-0.025647
  0
VERTEX
  8
0
 10
266.467476
 20
339.216714
 42
-0.025599
  0
VERTEX
  8
0
 10
265.895340
 20
340.349412
 42
-0.021356
  0
VERTEX
  8
0
 10
265.402974
 20
341.604556
 42
0.046037
  0
VERTEX
  8
0
 10
264.253516
 20
344.156991
 42
0.020621
  0
VERTEX
  8
0
 10
262.307773
 20
347.285604
 42
0.022267
  0
VERTEX
  8
0
 10
260.489059
 20
349.717424
 42
0.704486
  0
VERTEX
  8
0
 10
260.000000
 20
349.542588
 42
0.123490
  0
VERTEX
  8
0
 10
260.104770
 20
349.124852
 42
0.014373
  0
VERTEX
  8
0
 10
260.587500
 20
348.282168
 42
0.016562
  0
VERTEX
  8
0
 10
261.234105
 20
347.299704
 42
0.012829
  0
VERTEX
  8
0
 10
262.000000
 20
346.272871
 42
-0.033179
  0
VERTEX
  8
0
 10
262.765472
 20
345.154425
 42
-0.029247
  0
VERTEX
  8
0
 10
263.412500
 20
343.897438
 42
-0.030392
  0
VERTEX
  8
0
 10
263.860828
 20
342.692234
 42
-0.073976
  0
VERTEX
  8
0
 10
264.000000
 20
341.756733
 42
-0.057687
  0
VERTEX
  8
0
 10
263.882813
 20
340.744399
 42
-0.235898
  0
VERTEX
  8
0
 10
263.498720
 20
340.282622
 42
-0.151054
  0
VERTEX
  8
0
 10
262.758680
 20
340.198029
 42
-0.021441
  0
VERTEX
  8
0
 10
261.250000
 20
340.549527
 42
0.016593
  0
VERTEX
  8
0
 10
260.015123
 20
340.849882
 42
0.010835
  0
VERTEX
  8
0
 10
258.573438
 20
341.117801
 42
0.010901
  0
VERTEX
  8
0
 10
257.155007
 20
341.318081
 42
0.020418
  0
VERTEX
  8
0
 10
256.000000
 20
341.407935
 42
0.070366
  0
VERTEX
  8
0
 10
254.595934
 20
341.261821
 42
0.193431
  0
VERTEX
  8
0
 10
253.803842
 20
340.688728
 42
0.099427
  0
VERTEX
  8
0
 10
253.326956
 20
339.437416
 42
0.011972
  0
VERTEX
  8
0
 10
252.907104
 20
336.500000
 42
-0.008865
  0
VERTEX
  8
0
 10
252.662929
 20
334.712449
 42
-0.041436
  0
VERTEX
  8
0
 10
252.419874
 20
333.703125
 42
-0.566862
  0
VERTEX
  8
0
 10
252.234696
 20
333.661664
 42
-0.168227
  0
VERTEX
  8
0
 10
252.081026
 20
334.000000
 42
0.028933
  0
VERTEX
  8
0
 10
251.898079
 20
335.203537
 42
0.012237
  0
VERTEX
  8
0
 10
251.520412
 20
336.793750
 42
0.012060
  0
VERTEX
  8
0
 10
251.033194
 20
338.476904
 42
0.015429
  0
VERTEX
  8
0
 10
250.500000
 20
340.000000
 42
0.003182
  0
VERTEX
  8
0
 10
249.648608
 20
342.169575
 42
0.151678
  0
VERTEX
  8
0
 10
249.355967
 20
342.530437
 42
0.574983
  0
VERTEX
  8
0
 10
249.151406
 20
342.430285
 42
0.010509
  0
VERTEX
  8
0
 10
249.076078
 20
340.950000
 42
-0.069748
  0
VERTEX
  8
0
 10
248.732750
 20
338.939031
 42
-0.099238
  0
VERTEX
  8
0
 10
247.856249
 20
337.357971
 42
-0.111114
  0
VERTEX
  8
0
 10
246.525563
 20
336.355893
 42
-0.106432
  0
VERTEX
  8
0
 10
244.872580
 20
336.000000
 42
0.110028
  0
VERTEX
  8
0
 10
244.067413
 20
335.820646
 42
0.040959
  0
VERTEX
  8
0
 10
243.055561
 20
335.241001
 42
0.038129
  0
VERTEX
  8
0
 10
242.018002
 20
334.404857
 42
0.037454
  0
VERTEX
  8
0
 10
241.112722
 20
333.416174
 42
-0.065873
  0
VERTEX
  8
0
 10
239.395625
 20
331.742061
 42
-0.271590
  0
VERTEX
  8
0
 10
238.009859
 20
331.587913
 42
-0.276687
  0
VERTEX
  8
0
 10
237.218004
 20
332.717695
 42
-0.067315
  0
VERTEX
  8
0
 10
237.367392
 20
335.086962
 42
0.000000
  0
VERTEX
  8
0
 10
237.936273
 20
337.931363
 42
0.000000
  0
VERTEX
  8
0
 10
235.468136
 20
335.785346
 42
0.047004
  0
VERTEX
  8
0
 10
233.823126
 20
334.058584
 42
0.119508
  0
VERTEX
  8
0
 10
233.107354
 20
332.495114
 42
0.195635
  0
VERTEX
  8
0
 10
233.352623
 20
331.252959
 42
0.157035
  0
VERTEX
  8
0
 10
234.422681
 20
330.391296
 42
-0.111212
  0
VERTEX
  8
0
 10
236.023050
 20
329.324572
 42
-0.270789
  0
VERTEX
  8
0
 10
236.337900
 20
327.994667
 42
-0.162568
  0
VERTEX
  8
0
 10
235.276748
 20
326.504316
 42
-0.044946
  0
VERTEX
  8
0
 10
232.778139
 20
325.006897
 42
-0.009518
  0
VERTEX
  8
0
 10
229.157244
 20
323.341717
 42
-0.155134
  0
VERTEX
  8
0
 10
227.843402
 20
323.204329
 42
-0.314270
  0
VERTEX
  8
0
 10
227.170793
 20
323.914586
 42
-0.037314
  0
VERTEX
  8
0
 10
227.000000
 20
326.200000
 42
0.065103
  0
VERTEX
  8
0
 10
226.743966
 20
328.158057
 42
0.627203
  0
VERTEX
  8
0
 10
226.124105
 20
328.277519
 42
0.092279
  0
VERTEX
  8
0
 10
225.222849
 20
326.443650
 42
0.014306
  0
VERTEX
  8
0
 10
224.240461
 20
322.500000
 42
-0.007656
  0
VERTEX
  8
0
 10
223.740903
 20
320.374479
 42
-0.006303
  0
VERTEX
  8
0
 10
223.144737
 20
318.122169
 42
-0.006373
  0
VERTEX
  8
0
 10
222.544796
 20
316.067633
 42
-0.016816
  0
VERTEX
  8
0
 10
222.047485
 20
314.618023
 42
-0.014016
  0
VERTEX
  8
0
 10
221.325108
 20
312.871302
 42
-0.191123
  0
VERTEX
  8
0
 10
220.841734
 20
312.399832
 42
-0.262184
  0
VERTEX
  8
0
 10
220.253811
 20
312.469283
 42
-0.026294
  0
VERTEX
  8
0
 10
219.115999
 20
313.395023
 42
-0.070733
  0
VERTEX
  8
0
 10
218.304690
 20
314.370054
 42
-0.068354
  0
VERTEX
  8
0
 10
217.785813
 20
315.543688
 42
-0.057499
  0
VERTEX
  8
0
 10
217.545637
 20
316.986895
 42
-0.031742
  0
VERTEX
  8
0
 10
217.569674
 20
318.776999
 42
0.000000
  0
VERTEX
  8
0
 10
217.856498
 20
322.500000
 42
0.000000
  0
VERTEX
  8
0
 10
215.388452
 20
319.647970
 42
0.035612
  0
VERTEX
  8
0
 10
214.185842
 20
318.039976
 42
0.068175
  0
VERTEX
  8
0
 10
213.508124
 20
316.580841
 42
0.066786
  0
VERTEX
  8
0
 10
213.239896
 20
314.973022
 42
0.032912
  0
VERTEX
  8
0
 10
213.310203
 20
312.897970
 42
-0.019326
  0
VERTEX
  8
0
 10
213.418919
 20
311.118584
 42
-0.061646
  0
VERTEX
  8
0
 10
213.299414
 20
309.936574
 42
-0.117324
  0
VERTEX
  8
0
 10
212.963704
 20
309.254665
 42
-0.223551
  0
VERTEX
  8
0
 10
212.422580
 20
309.000000
 42
0.129852
  0
VERTEX
  8
0
 10
211.800310
 20
308.835622
 42
0.035020
  0
VERTEX
  8
0
 10
210.942922
 20
308.265853
 42
0.032997
  0
VERTEX
  8
0
 10
210.025734
 20
307.457331
 42
0.028957
  0
VERTEX
  8
0
 10
209.179271
 20
306.500777
 42
-0.014343
  0
VERTEX
  8
0
 10
208.090435
 20
305.195401
 42
-0.125762
  0
VERTEX
  8
0
 10
207.472520
 20
304.775647
 42
-0.311654
  0
VERTEX
  8
0
 10
207.013680
 20
304.896596
 42
-0.085816
  0
VERTEX
  8
0
 10
206.610277
 20
305.573219
 42
-0.079326
  0
VERTEX
  8
0
 10
206.453672
 20
306.314920
 42
-0.042930
  0
VERTEX
  8
0
 10
206.487366
 20
307.249428
 42
-0.041399
  0
VERTEX
  8
0
 10
206.688520
 20
308.218844
 42
-0.051057
  0
VERTEX
  8
0
 10
207.038770
 20
309.072442
 42
0.033886
  0
VERTEX
  8
0
 10
207.372308
 20
309.812062
 42
0.068776
  0
VERTEX
  8
0
 10
207.510402
 20
310.433780
 42
0.125220
  0
VERTEX
  8
0
 10
207.441541
 20
310.840029
 42
0.296711
  0
VERTEX
  8
0
 10
207.195699
 20
311.000000
 42
0.264856
  0
VERTEX
  8
0
 10
206.093499
 20
310.372106
 42
0.060682
  0
VERTEX
  8
0
 10
205.197922
 20
308.333548
 42
0.053469
  0
VERTEX
  8
0
 10
204.696612
 20
305.667770
 42
0.056290
  0
VERTEX
  8
0
 10
204.785677
 20
303.003311
 42
-0.007489
  0
VERTEX
  8
0
 10
205.057211
 20
300.940811
 42
-0.144153
  0
VERTEX
  8
0
 10
204.948753
 20
300.310532
 42
-0.438649
  0
VERTEX
  8
0
 10
204.587659
 20
300.203836
 42
-0.038339
  0
VERTEX
  8
0
 10
203.713984
 20
300.822409
 42
-0.071427
  0
VERTEX
  8
0
 10
203.056184
 20
301.549421
 42
-0.030539
  0
VERTEX
  8
0
 10
202.389997
 20
302.681765
 42
-0.029441
  0
VERTEX
  8
0
 10
201.815991
 20
303.995723
 42
-0.034213
  0
VERTEX
  8
0
 10
201.433136
 20
305.304431
 42
0.041824
  0
VERTEX
  8
0
 10
200.650753
 20
307.835424
 42
0.029835
  0
VERTEX
  8
0
 10
199.378491
 20
310.516599
 42
0.030045
  0
VERTEX
  8
0
 10
197.904192
 20
312.853699
 42
0.081474
  0
VERTEX
  8
0
 10
196.523098
 20
314.234687
 42
0.050478
  0
VERTEX
  8
0
 10
195.523474
 20
314.809560
 42
0.122837
  0
VERTEX
  8
0
 10
194.692174
 20
314.957898
 42
0.333050
  0
VERTEX
  8
0
 10
194.346078
 20
314.659902
 42
0.195049
  0
VERTEX
  8
0
 10
194.442363
 20
314.093259
 42
-0.567320
  0
VERTEX
  8
0
 10
194.161193
 20
313.551215
 42
-0.130093
  0
VERTEX
  8
0
 10
192.878223
 20
313.809331
 42
-0.043414
  0
VERTEX
  8
0
 10
190.527084
 20
315.231624
 42
-0.044028
  0
VERTEX
  8
0
 10
188.468801
 20
317.032565
 42
-0.030300
  0
VERTEX
  8
0
 10
187.295231
 20
318.416294
 42
-0.055735
  0
VERTEX
  8
0
 10
186.547699
 20
319.687846
 42
-0.070484
  0
VERTEX
  8
0
 10
186.211459
 20
320.859899
 42
-0.098926
  0
VERTEX
  8
0
 10
186.275002
 20
321.943605
 42
0.032818
  0
VERTEX
  8
0
 10
186.420151
 20
322.697660
 42
0.091628
  0
VERTEX
  8
0
 10
186.388948
 20
323.233267
 42
0.232279
  0
VERTEX
  8
0
 10
186.197109
 20
323.462232
 42
0.247502
  0
VERTEX
  8
0
 10
185.906741
 20
323.442363
 42
0.139008
  0
VERTEX
  8
0
 10
185.557614
 20
323.060754
 42
0.042862
  0
VERTEX
  8
0
 10
185.266355
 20
322.329544
 42
0.039157
  0
VERTEX
  8
0
 10
185.066848
 20
321.416454
 42
0.034224
  0
VERTEX
  8
0
 10
185.000000
 20
320.440983
 42
-0.047171
  0
VERTEX
  8
0
 10
184.830134
 20
318.644437
 42
-0.342188
  0
VERTEX
  8
0
 10
184.221394
 20
318.107448
 42
-0.236913
  0
VERTEX
  8
0
 10
183.312631
 20
318.493586
 42
-0.029977
  0
VERTEX
  8
0
 10
181.994437
 20
320.250000
 42
-0.042684
  0
VERTEX
  8
0
 10
180.957414
 20
322.154727
 42
-0.078461
  0
VERTEX
  8
0
 10
180.510297
 20
323.858414
 42
-0.094763
  0
VERTEX
  8
0
 10
180.646872
 20
325.390435
 42
-0.091649
  0
VERTEX
  8
0
 10
181.338506
 20
326.784089
 42
0.107095
  0
VERTEX
  8
0
 10
181.668606
 20
327.503712
 42
0.079571
  0
VERTEX
  8
0
 10
181.719345
 20
328.379209
 42
0.062877
  0
VERTEX
  8
0
 10
181.482077
 20
329.408749
 42
0.034840
  0
VERTEX
  8
0
 10
180.953411
 20
330.587052
 42
0.000000
  0
VERTEX
  8
0
 10
179.605351
 20
333.105926
 42
0.000000
  0
VERTEX
  8
0
 10
177.925282
 20
328.802963
 42
-0.039047
  0
VERTEX
  8
0
 10
176.177827
 20
325.188192
 42
-0.309022
  0
VERTEX
  8
0
 10
174.584545
 20
324.432222
 42
-0.222212
  0
VERTEX
  8
0
 10
172.864915
 20
325.592916
 42
-0.023477
  0
VERTEX
  8
0
 10
170.513491
 20
329.971773
 42
0.012477
  0
VERTEX
  8
0
 10
169.217582
 20
332.517829
 42
0.038658
  0
VERTEX
  8
0
 10
168.172809
 20
334.136960
 42
0.081063
  0
VERTEX
  8
0
 10
167.383138
 20
334.885561
 42
0.426971
  0
VERTEX
  8
0
 10
166.860359
 20
334.774055
 42
-0.206304
  0
VERTEX
  8
0
 10
166.319467
 20
334.395756
 42
-0.154173
  0
VERTEX
  8
0
 10
165.587385
 20
334.471070
 42
-0.071012
  0
VERTEX
  8
0
 10
164.564344
 20
335.098639
 42
-0.017991
  0
VERTEX
  8
0
 10
163.105104
 20
336.399304
 42
0.028782
  0
VERTEX
  8
0
 10
161.675348
 20
337.619385
 42
0.052575
  0
VERTEX
  8
0
 10
160.364444
 20
338.412029
 42
0.067138
  0
VERTEX
  8
0
 10
159.176100
 20
338.785764
 42
0.107008
  0
VERTEX
  8
0
 10
158.116090
 20
338.740609
 42
-0.089625
  0
VERTEX
  8
0
 10
157.124605
 20
338.664108
 42
-0.089156
  0
VERTEX
  8
0
 10
156.167076
 20
338.939045
 42
-0.074794
  0
VERTEX
  8
0
 10
155.235745
 20
339.585490
 42
-0.042677
  0
VERTEX
  8
0
 10
154.320966
 20
340.608869
 42
0.021659
  0
VERTEX
  8
0
 10
152.665665
 20
342.625006
 42
0.297325
  0
VERTEX
  8
0
 10
151.793867
 20
342.858840
 42
0.350629
  0
VERTEX
  8
0
 10
151.341015
 20
342.168207
 42
0.025361
  0
VERTEX
  8
0
 10
151.693655
 20
339.750000
 42
-0.006984
  0
VERTEX
  8
0
 10
152.051777
 20
337.799143
 42
-0.162485
  0
VERTEX
  8
0
 10
151.966122
 20
337.249417
 42
-0.444192
  0
VERTEX
  8
0
 10
151.632535
 20
337.161374
 42
-0.027561
  0
VERTEX
  8
0
 10
150.707380
 20
337.840305
 42
-0.041396
  0
VERTEX
  8
0
 10
150.040234
 20
338.488436
 42
-0.027470
  0
VERTEX
  8
0
 10
149.383680
 20
339.330596
 42
-0.027666
  0
VERTEX
  8
0
 10
148.832731
 20
340.225318
 42
-0.047358
  0
VERTEX
  8
0
 10
148.490001
 20
341.031505
 42
0.102025
  0
VERTEX
  8
0
 10
147.970077
 20
341.959530
 42
0.020102
  0
VERTEX
  8
0
 10
146.655939
 20
343.358275
 42
0.020546
  0
VERTEX
  8
0
 10
144.963939
 20
344.888675
 42
0.017806
  0
VERTEX
  8
0
 10
143.071320
 20
346.353294
 42
0.000000
  0
VERTEX
  8
0
 10
138.240091
 20
349.824186
 42
0.000000
  0
VERTEX
  8
0
 10
139.324877
 20
346.950258
 42
-0.045523
  0
VERTEX
  8
0
 10
139.993126
 20
344.535145
 42
-0.273942
  0
VERTEX
  8
0
 10
139.557669
 20
343.363373
 42
-0.356934
  0
VERTEX
  8
0
 10
138.484498
 20
343.369225
 42
-0.056652
  0
VERTEX
  8
0
 10
136.914272
 20
345.000000
 42
0.001674
  0
VERTEX
  8
0
 10
136.108283
 20
346.045717
 42
0.001520
  0
VERTEX
  8
0
 10
135.268960
 20
347.120414
 42
0.001520
  0
VERTEX
  8
0
 10
134.512125
 20
348.077439
 42
0.004892
  0
VERTEX
  8
0
 10
134.000351
 20
348.707794
 42
-0.028772
  0
VERTEX
  8
0
 10
133.617409
 20
349.228401
 42
-0.028106
  0
VERTEX
  8
0
 10
133.293494
 20
349.793509
 42
-0.029283
  0
VERTEX
  8
0
 10
133.066917
 20
350.320972
 42
-0.086625
  0
VERTEX
  8
0
 10
132.998779
 20
350.707794
 42
0.132930
  0
VERTEX
  8
0
 10
132.875403
 20
351.160883
 42
0.014775
  0
VERTEX
  8
0
 10
132.301098
 20
352.077501
 42
0.017157
  0
VERTEX
  8
0
 10
131.533948
 20
353.144007
 42
0.013105
  0
VERTEX
  8
0
 10
130.625412
 20
354.258167
 42
0.000000
  0
VERTEX
  8
0
 10
128.253267
 20
357.016333
 42
0.000000
  0
VERTEX
  8
0
 10
127.631092
 20
353.905461
 42
0.020782
  0
VERTEX
  8
0
 10
127.433638
 20
352.648683
 42
0.024358
  0
VERTEX
  8
0
 10
127.354583
 20
351.444827
 42
0.024344
  0
VERTEX
  8
0
 10
127.386680
 20
350.436142
 42
0.118826
  0
VERTEX
  8
0
 10
127.563476
 20
349.897294
 42
-0.217366
  0
VERTEX
  8
0
 10
127.606263
 20
349.558158
 42
-0.176147
  0
VERTEX
  8
0
 10
127.381724
 20
349.263580
 42
-0.098005
  0
VERTEX
  8
0
 10
126.875348
 20
349.064020
 42
-0.045035
  0
VERTEX
  8
0
 10
126.166006
 20
349.000000
 42
-0.070630
  0
VERTEX
  8
0
 10
125.376744
 20
349.112050
 42
-0.063468
  0
VERTEX
  8
0
 10
124.618302
 20
349.440625
 42
-0.066821
  0
VERTEX
  8
0
 10
124.003891
 20
349.926422
 42
-0.100819
  0
VERTEX
  8
0
 10
123.638374
 20
350.500000
 42
0.097096
  0
VERTEX
  8
0
 10
122.884726
 20
351.702106
 42
0.267873
  0
VERTEX
  8
0
 10
121.962773
 20
351.981009
 42
0.314134
  0
VERTEX
  8
0
 10
121.377472
 20
351.330072
 42
0.108154
  0
VERTEX
  8
0
 10
121.500000
 20
350.000000
 42
-0.093871
  0
VERTEX
  8
0
 10
121.671941
 20
348.575702
 42
-0.449987
  0
VERTEX
  8
0
 10
121.101767
 20
348.134961
 42
-0.112111
  0
VERTEX
  8
0
 10
119.686532
 20
348.751616
 42
-0.013443
  0
VERTEX
  8
0
 10
116.977844
 20
350.858597
 42
0.019057
  0
VERTEX
  8
0
 10
115.462942
 20
352.009924
 42
0.016364
  0
VERTEX
  8
0
 10
113.787242
 20
353.105486
 42
0.016672
  0
VERTEX
  8
0
 10
112.199191
 20
353.999978
 42
0.044677
  0
VERTEX
  8
0
 10
111.000000
 20
354.493379
 42
-0.028241
  0
VERTEX
  8
0
 10
109.984897
 20
354.872578
 42
-0.026906
  0
VERTEX
  8
0
 10
109.001903
 20
355.369154
 42
-0.027937
  0
VERTEX
  8
0
 10
108.182998
 20
355.902675
 42
-0.080258
  0
VERTEX
  8
0
 10
107.708607
 20
356.384781
 42
0.373709
  0
VERTEX
  8
0
 10
107.426198
 20
356.453401
 42
0.210085
  0
VERTEX
  8
0
 10
107.188554
 20
356.159365
 42
0.057538
  0
VERTEX
  8
0
 10
107.056656
 20
355.290383
 42
0.019112
  0
VERTEX
  8
0
 10
107.059924
 20
354.000000
 42
-0.006922
  0
VERTEX
  8
0
 10
107.154793
 20
350.475259
 42
-0.205188
  0
VERTEX
  8
0
 10
106.820930
 20
349.666943
 42
-0.345096
  0
VERTEX
  8
0
 10
106.121024
 20
349.589820
 42
-0.015983
  0
VERTEX
  8
0
 10
103.995873
 20
351.002939
 42
0.008936
  0
VERTEX
  8
0
 10
102.103095
 20
352.300372
 42
0.124827
  0
VERTEX
  8
0
 10
101.328698
 20
352.569663
 42
0.280067
  0
VERTEX
  8
0
 10
100.809223
 20
352.312387
 42
0.052758
  0
VERTEX
  8
0
 10
100.318815
 20
351.321033
 42
-0.030615
  0
VERTEX
  8
0
 10
99.990727
 20
350.576737
 42
-0.027118
  0
VERTEX
  8
0
 10
99.562059
 20
349.846145
 42
-0.028096
  0
VERTEX
  8
0
 10
99.102633
 20
349.230390
 42
-0.070833
  0
VERTEX
  8
0
 10
98.687594
 20
348.857334
 42
0.192976
  0
VERTEX
  8
0
 10
98.254608
 20
348.222785
 42
0.075184
  0
VERTEX
  8
0
 10
98.181745
 20
347.143889
 42
0.036605
  0
VERTEX
  8
0
 10
98.458893
 20
345.379785
 42
0.007139
  0
VERTEX
  8
0
 10
99.234590
 20
342.254498
 42
0.104779
  0
VERTEX
  8
0
 10
99.456521
 20
341.813627
 42
0.008340
  0
VERTEX
  8
0
 10
100.294531
 20
340.802055
 42
0.011008
  0
VERTEX
  8
0
 10
101.350303
 20
339.623568
 42
0.008214
  0
VERTEX
  8
0
 10
102.563814
 20
338.369519
 42
-0.013958
  0
VERTEX
  8
0
 10
103.806601
 20
337.055339
 42
-0.014689
  0
VERTEX
  8
0
 10
104.952431
 20
335.695500
 42
-0.014462
  0
VERTEX
  8
0
 10
105.869819
 20
334.468225
 42
-0.061721
  0
VERTEX
  8
0
 10
106.299281
 20
333.662469
 42
-0.052078
  0
VERTEX
  8
0
 10
106.511834
 20
332.870938
 42
-0.371273
  0
VERTEX
  8
0
 10
106.319409
 20
332.558989
 42
-0.156111
  0
VERTEX
  8
0
 10
105.761983
 20
332.560460
 42
-0.012741
  0
VERTEX
  8
0
 10
104.368218
 20
333.050103
 42
0.024260
  0
VERTEX
  8
0
 10
103.341225
 20
333.384534
 42
0.029619
  0
VERTEX
  8
0
 10
102.352519
 20
333.592254
 42
0.030534
  0
VERTEX
  8
0
 10
101.521996
 20
333.664535
 42
0.145856
  0
VERTEX
  8
0
 10
101.067528
 20
333.541734
 42
-0.298124
  0
VERTEX
  8
0
 10
100.097723
 20
333.566853
 42
-0.030129
  0
VERTEX
  8
0
 10
98.191477
 20
335.063489
 42
-0.032528
  0
VERTEX
  8
0
 10
96.455967
 20
336.818116
 42
-0.180649
  0
VERTEX
  8
0
 10
96.000000
 20
338.038955
 42
0.153797
  0
VERTEX
  8
0
 10
95.884529
 20
338.405479
 42
0.097958
  0
VERTEX
  8
0
 10
95.559375
 20
338.717693
 42
0.080496
  0
VERTEX
  8
0
 10
95.073550
 20
338.928363
 42
0.062209
  0
VERTEX
  8
0
 10
94.500000
 20
339.000000
 42
0.310334
  0
VERTEX
  8
0
 10
93.308958
 20
338.181977
 42
0.145045
  0
VERTEX
  8
0
 10
93.153860
 20
336.224604
 42
0.070509
  0
VERTEX
  8
0
 10
94.262843
 20
333.184584
 42
0.031879
  0
VERTEX
  8
0
 10
96.500000
 20
329.570780
 42
-0.019924
  0
VERTEX
  8
0
 10
98.779350
 20
326.078126
 42
-0.074558
  0
VERTEX
  8
0
 10
99.771779
 20
323.660524
 42
-0.129494
  0
VERTEX
  8
0
 10
99.740482
 20
321.805472
 42
-0.128443
  0
VERTEX
  8
0
 10
98.800000
 20
320.200000
 42
-0.147782
  0
VERTEX
  8
0
 10
97.058663
 20
319.266809
 42
-0.060118
  0
VERTEX
  8
0
 10
94.350470
 20
319.053985
 42
-0.057652
  0
VERTEX
  8
0
 10
91.468973
 20
319.509675
 42
-0.084951
  0
VERTEX
  8
0
 10
89.157839
 20
320.601999
 42
0.049033
  0
VERTEX
  8
0
 10
87.000322
 20
321.817410
 42
0.637475
  0
VERTEX
  8
0
 10
86.481657
 20
321.362505
 42
0.104008
  0
VERTEX
  8
0
 10
87.467265
 20
319.521409
 42
0.013310
  0
VERTEX
  8
0
 10
90.459453
 20
316.146802
 42
-0.003710
  0
VERTEX
  8
0
 10
93.358861
 20
313.000628
 42
-0.079415
  0
VERTEX
  8
0
 10
94.048600
 20
311.944836
 42
-0.488821
  0
VERTEX
  8
0
 10
93.802777
 20
311.483011
 42
-0.070532
  0
VERTEX
  8
0
 10
92.560709
 20
311.443879
 42
0.036401
  0
VERTEX
  8
0
 10
91.313505
 20
311.489502
 42
0.129981
  0
VERTEX
  8
0
 10
90.555991
 20
311.259551
 42
0.175890
  0
VERTEX
  8
0
 10
90.141398
 20
310.735540
 42
0.080455
  0
VERTEX
  8
0
 10
90.000000
 20
309.862487
 42
0.056226
  0
VERTEX
  8
0
 10
90.080368
 20
309.150067
 42
0.075683
  0
VERTEX
  8
0
 10
90.318229
 20
308.547105
 42
0.094922
  0
VERTEX
  8
0
 10
90.670040
 20
308.142815
 42
0.167906
  0
VERTEX
  8
0
 10
91.083333
 20
308.000000
 42
-0.295239
  0
VERTEX
  8
0
 10
91.688854
 20
307.608311
 42
-0.191913
  0
VERTEX
  8
0
 10
91.726100
 20
306.747612
 42
-0.123078
  0
VERTEX
  8
0
 10
91.104243
 20
305.800301
 42
-0.160929
  0
VERTEX
  8
0
 10
90.166667
 20
305.375000
 42
0.004579
  0
VERTEX
  8
0
 10
89.676813
 20
305.317974
 42
0.004101
  0
VERTEX
  8
0
 10
89.169721
 20
305.250000
 42
0.004114
  0
VERTEX
  8
0
 10
88.715405
 20
305.181485
 42
0.012813
  0
VERTEX
  8
0
 10
88.411106
 20
305.125000
 42
0.492387
  0
VERTEX
  8
0
 10
88.312465
 20
304.918991
 42
0.022468
  0
VERTEX
  8
0
 10
88.755773
 20
304.132829
 42
0.022855
  0
VERTEX
  8
0
 10
89.459986
 20
303.112435
 42
0.012433
  0
VERTEX
  8
0
 10
90.411398
 20
301.922928
 42
-0.074849
  0
VERTEX
  8
0
 10
93.497605
 20
296.890178
 42
-0.179124
  0
VERTEX
  8
0
 10
93.696746
 20
292.580785
 42
-0.297796
  0
VERTEX
  8
0
 10
91.231405
 20
290.572364
 42
-0.142832
  0
VERTEX
  8
0
 10
87.038236
 20
291.331039
 42
0.013141
  0
VERTEX
  8
0
 10
85.872582
 20
291.874774
 42
0.024082
  0
VERTEX
  8
0
 10
84.892482
 20
292.245956
 42
0.024366
  0
VERTEX
  8
0
 10
84.159029
 20
292.445121
 42
0.479122
  0
VERTEX
  8
0
 10
84.000000
 20
292.317260
 42
0.167119
  0
VERTEX
  8
0
 10
84.379966
 20
291.212195
 42
0.004544
  0
VERTEX
  8
0
 10
87.605621
 20
287.152740
 42
0.010306
  0
VERTEX
  8
0
 10
90.999763
 20
283.132379
 42
0.019036
  0
VERTEX
  8
0
 10
93.944894
 20
280.032578
 42
-0.004892
  0
VERTEX
  8
0
 10
96.230286
 20
277.759505
 42
-0.116337
  0
VERTEX
  8
0
 10
96.698604
 20
276.989947
 42
-0.408492
  0
VERTEX
  8
0
 10
96.467303
 20
276.523750
 42
-0.045032
  0
VERTEX
  8
0
 10
95.192184
 20
276.205451
 42
-0.068181
  0
VERTEX
  8
0
 10
94.126662
 20
276.185770
 42
-0.035854
  0
VERTEX
  8
0
 10
92.823399
 20
276.435548
 42
-0.034873
  0
VERTEX
  8
0
 10
91.501494
 20
276.889447
 42
-0.044922
  0
VERTEX
  8
0
 10
90.368999
 20
277.493878
 42
0.003121
  0
VERTEX
  8
0
 10
88.684506
 20
278.582634
 42
0.201286
  0
VERTEX
  8
0
 10
88.347474
 20
278.640589
 42
0.484579
  0
VERTEX
  8
0
 10
88.253376
 20
278.441413
 42
0.007571
  0
VERTEX
  8
0
 10
88.915356
 20
277.158158
 42
0.031562
  0
VERTEX
  8
0
 10
89.402164
 20
276.372117
 42
0.031174
  0
VERTEX
  8
0
 10
89.985897
 20
275.650164
 42
0.032768
  0
VERTEX
  8
0
 10
90.576186
 20
275.085713
 42
0.094218
  0
VERTEX
  8
0
 10
91.068818
 20
274.810394
 42
-0.195897
  0
VERTEX
  8
0
 10
91.471768
 20
274.464995
 42
-0.134050
  0
VERTEX
  8
0
 10
91.598194
 20
273.868168
 42
-0.070827
  0
VERTEX
  8
0
 10
91.413982
 20
272.955598
 42
-0.021734
  0
VERTEX
  8
0
 10
90.886002
 20
271.649147
 42
0.028398
  0
VERTEX
  8
0
 10
90.287895
 20
270.110492
 42
0.081510
  0
VERTEX
  8
0
 10
90.115664
 20
268.980880
 42
0.092781
  0
VERTEX
  8
0
 10
90.322480
 20
267.941362
 42
0.044235
  0
VERTEX
  8
0
 10
90.941966
 20
266.721320
 42
-0.025397
  0
VERTEX
  8
0
 10
91.509715
 20
265.700250
 42
-0.095138
  0
VERTEX
  8
0
 10
91.702426
 20
264.995646
 42
-0.182097
  0
VERTEX
  8
0
 10
91.564325
 20
264.520716
 42
-0.152624
  0
VERTEX
  8
0
 10
91.136240
 20
264.212080
 42
0.126754
  0
VERTEX
  8
0
 10
90.336425
 20
263.694995
 42
0.184836
  0
VERTEX
  8
0
 10
90.029064
 20
262.923608
 42
0.231424
  0
VERTEX
  8
0
 10
90.338008
 20
262.269431
 42
0.170304
  0
VERTEX
  8
0
 10
91.106096
 20
262.000000
 42
-0.158598
  0
VERTEX
  8
0
 10
92.850439
 20
261.432425
 42
-0.017480
  0
VERTEX
  8
0
 10
96.203278
 20
258.808124
 42
-0.015796
  0
VERTEX
  8
0
 10
99.387365
 20
255.954874
 42
-0.204937
  0
VERTEX
  8
0
 10
100.000000
 20
254.522959
 42
-0.243173
  0
VERTEX
  8
0
 10
99.206956
 20
252.988769
 42
-0.079728
  0
VERTEX
  8
0
 10
96.853715
 20
251.830167
 42
-0.080308
  0
VERTEX
  8
0
 10
94.270136
 20
251.471055
 42
-0.250646
  0
VERTEX
  8
0
 10
92.790075
 20
252.305426
 42
0.016140
  0
VERTEX
  8
0
 10
92.402921
 20
252.873069
 42
0.232679
  0
VERTEX
  8
0
 10
92.192964
 20
252.983104
 42
0.384166
  0
VERTEX
  8
0
 10
92.053677
 20
252.863852
 42
0.029042
  0
VERTEX
  8
0
 10
92.015313
 20
252.325190
 42
0.159005
  0
VERTEX
  8
0
 10
92.222665
 20
251.660382
 42
0.015515
  0
VERTEX
  8
0
 10
93.252936
 20
250.301560
 42
0.018427
  0
VERTEX
  8
0
 10
94.623311
 20
248.728384
 42
0.013565
  0
VERTEX
  8
0
 10
96.250000
 20
247.085969
 42
-0.010334
  0
VERTEX
  8
0
 10
99.019967
 20
244.325135
 42
-0.255601
  0
VERTEX
  8
0
 10
99.294243
 20
243.318044
 42
-0.433126
  0
VERTEX
  8
0
 10
98.613665
 20
242.929509
 42
-0.016150
  0
VERTEX
  8
0
 10
95.511443
 20
243.995649
 42
0.005113
  0
VERTEX
  8
0
 10
93.761183
 20
244.640690
 42
0.308506
  0
VERTEX
  8
0
 10
93.452578
 20
244.560042
 42
0.338350
  0
VERTEX
  8
0
 10
93.432998
 20
244.255378
 42
0.005669
  0
VERTEX
  8
0
 10
94.446343
 20
242.773143
 42
-0.064931
  0
VERTEX
  8
0
 10
95.750361
 20
240.276494
 42
-0.125364
  0
VERTEX
  8
0
 10
95.978929
 20
238.048405
 42
-0.163431
  0
VERTEX
  8
0
 10
95.121863
 20
236.366145
 42
-0.133204
  0
VERTEX
  8
0
 10
93.349070
 20
235.372763
 42
-0.062439
  0
VERTEX
  8
0
 10
91.546302
 20
235.153213
 42
-0.089982
  0
VERTEX
  8
0
 10
89.970001
 20
235.444955
 42
-0.046873
  0
VERTEX
  8
0
 10
87.951506
 20
236.435398
 42
-0.006685
  0
VERTEX
  8
0
 10
84.048118
 20
238.900132
 42
0.004509
  0
VERTEX
  8
0
 10
82.441588
 20
239.924353
 42
0.202684
  0
VERTEX
  8
0
 10
82.059325
 20
239.985491
 42
0.444007
  0
VERTEX
  8
0
 10
81.932941
 20
239.750655
 42
0.011395
  0
VERTEX
  8
0
 10
82.411571
 20
238.497288
 42
-0.018948
  0
VERTEX
  8
0
 10
83.542412
 20
235.396278
 42
-0.197157
  0
VERTEX
  8
0
 10
83.439461
 20
234.071037
 42
-0.200315
  0
VERTEX
  8
0
 10
82.436555
 20
233.211534
 42
-0.019631
  0
VERTEX
  8
0
 10
79.303905
 20
232.331385
 42
-0.017595
  0
VERTEX
  8
0
 10
76.705009
 20
231.806034
 42
-0.050127
  0
VERTEX
  8
0
 10
74.864779
 20
231.687915
 42
-0.062544
  0
VERTEX
  8
0
 10
73.279099
 20
231.945434
 42
-0.041489
  0
VERTEX
  8
0
 10
71.557449
 20
232.610930
 42
0.000000
  0
VERTEX
  8
0
 10
68.614898
 20
234.038825
 42
0.000000
  0
VERTEX
  8
0
 10
70.807449
 20
231.704961
 42
-0.037018
  0
VERTEX
  8
0
 10
72.321116
 20
229.833860
 42
-0.115520
  0
VERTEX
  8
0
 10
72.912367
 20
228.336926
 42
-0.254896
  0
VERTEX
  8
0
 10
72.567514
 20
227.400973
 42
-0.181612
  0
VERTEX
  8
0
 10
71.500000
 20
227.000000
 42
-0.060025
  0
VERTEX
  8
0
 10
70.926372
 20
227.069114
 42
-0.078813
  0
VERTEX
  8
0
 10
70.440625
 20
227.272834
 42
-0.097007
  0
VERTEX
  8
0
 10
70.115348
 20
227.574542
 42
-0.158703
  0
VERTEX
  8
0
 10
70.000000
 20
227.928798
 42
0.182636
  0
VERTEX
  8
0
 10
69.458229
 20
229.362523
 42
0.013489
  0
VERTEX
  8
0
 10
66.549420
 20
232.487691
 42
0.013333
  0
VERTEX
  8
0
 10
63.475042
 20
235.454532
 42
0.187382
  0
VERTEX
  8
0
 10
62.070650
 20
236.000000
 42
0.261649
  0
VERTEX
  8
0
 10
61.574740
 20
235.721419
 42
0.107054
  0
VERTEX
  8
0
 10
61.312779
 20
234.966126
 42
0.052575
  0
VERTEX
  8
0
 10
61.292306
 20
233.645687
 42
0.014826
  0
VERTEX
  8
0
 10
61.537466
 20
231.598726
 42
-0.013552
  0
VERTEX
  8
0
 10
61.846711
 20
229.071225
 42
-0.092713
  0
VERTEX
  8
0
 10
61.734137
 20
227.827305
 42
-0.172044
  0
VERTEX
  8
0
 10
61.204108
 20
227.078404
 42
-0.076853
  0
VERTEX
  8
0
 10
60.107687
 20
226.534179
 42
-0.040397
  0
VERTEX
  8
0
 10
59.215100
 20
226.328401
 42
-0.035581
  0
VERTEX
  8
0
 10
58.261957
 20
226.257068
 42
-0.037287
  0
VERTEX
  8
0
 10
57.390013
 20
226.319056
 42
-0.083172
  0
VERTEX
  8
0
 10
56.758949
 20
226.522229
 42
0.302290
  0
VERTEX
  8
0
 10
56.612805
 20
226.506136
 42
0.424538
  0
VERTEX
  8
0
 10
56.604191
 20
226.385096
 42
0.031208
  0
VERTEX
  8
0
 10
57.111818
 20
225.886433
 42
0.007852
  0
VERTEX
  8
0
 10
58.000000
 20
225.140769
 42
-0.076838
  0
VERTEX
  8
0
 10
59.419488
 20
223.569636
 42
-0.246349
  0
VERTEX
  8
0
 10
59.553611
 20
222.209357
 42
-0.218090
  0
VERTEX
  8
0
 10
58.488992
 20
221.204466
 42
-0.063060
  0
VERTEX
  8
0
 10
56.218359
 20
220.741495
 42
0.035774
  0
VERTEX
  8
0
 10
55.453166
 20
220.628427
 42
0.072146
  0
VERTEX
  8
0
 10
54.884250
 20
220.412816
 42
0.129818
  0
VERTEX
  8
0
 10
54.596482
 20
220.136835
 42
0.282604
  0
VERTEX
  8
0
 10
54.597286
 20
219.842588
 42
-0.236690
  0
VERTEX
  8
0
 10
54.629383
 20
219.481874
 42
-0.079514
  0
VERTEX
  8
0
 10
54.352110
 20
219.013778
 42
-0.058701
  0
VERTEX
  8
0
 10
53.827094
 20
218.514711
 42
-0.037868
  0
VERTEX
  8
0
 10
53.118469
 20
218.063403
 42
-0.077398
  0
VERTEX
  8
0
 10
51.991870
 20
217.668796
 42
-0.069396
  0
VERTEX
  8
0
 10
50.754290
 20
217.614490
 42
-0.052276
  0
VERTEX
  8
0
 10
49.264334
 20
217.915236
 42
-0.021998
  0
VERTEX
  8
0
 10
47.340461
 20
218.612317
 42
0.000000
  0
VERTEX
  8
0
 10
43.500000
 20
220.198175
 42
0.000000
  0
VERTEX
  8
0
 10
46.500000
 20
217.009880
 42
0.000000
  0
VERTEX
  8
0
 10
49.500000
 20
213.821585
 42
0.000000
  0
VERTEX
  8
0
 10
45.696127
 20
215.621695
 42
0.055861
  0
VERTEX
  8
0
 10
42.686919
 20
216.653763
 42
0.149936
  0
VERTEX
  8
0
 10
40.454206
 20
216.477321
 42
0.173901
  0
VERTEX
  8
0
 10
38.911220
 20
215.121622
 42
0.080909
  0
VERTEX
  8
0
 10
38.000000
 20
212.578799
 42
0.000000
  0
VERTEX
  8
0
 10
37.500000
 20
209.871480
 42
0.000000
  0
VERTEX
  8
0
 10
35.183884
 20
212.036291
 42
0.043051
  0
VERTEX
  8
0
 10
33.156808
 20
213.627772
 42
0.450974
  0
VERTEX
  8
0
 10
32.255013
 20
213.380349
 42
0.223170
  0
VERTEX
  8
0
 10
32.231815
 20
211.978547
 42
0.024914
  0
VERTEX
  8
0
 10
33.724238
 20
209.057986
 42
0.000000
  0
VERTEX
  8
0
 10
35.915837
 20
205.250000
 42
0.000000
  0
VERTEX
  8
0
 10
33.375742
 20
205.250000
 42
0.039876
  0
VERTEX
  8
0
 10
32.231049
 20
205.158564
 42
0.023382
  0
VERTEX
  8
0
 10
30.884882
 20
204.877021
 42
0.023284
  0
VERTEX
  8
0
 10
29.556427
 20
204.466830
 42
0.036354
  0
VERTEX
  8
0
 10
28.463160
 20
203.980284
 42
-0.041315
  0
VERTEX
  8
0
 10
27.095036
 20
203.387584
 42
-0.106493
  0
VERTEX
  8
0
 10
26.030832
 20
203.265690
 42
-0.093484
  0
VERTEX
  8
0
 10
24.927625
 20
203.588387
 42
-0.027268
  0
VERTEX
  8
0
 10
23.390595
 20
204.479728
 42
0.004683
  0
VERTEX
  8
0
 10
21.696242
 20
205.567368
 42
0.133421
  0
VERTEX
  8
0
 10
21.203246
 20
205.717730
 42
0.502120
  0
VERTEX
  8
0
 10
21.033897
 20
205.504354
 42
0.026654
  0
VERTEX
  8
0
 10
21.345257
 20
204.542657
 42
-0.015293
  0
VERTEX
  8
0
 10
21.595890
 20
203.824606
 42
-0.014401
  0
VERTEX
  8
0
 10
21.807669
 20
203.078127
 42
-0.014532
  0
VERTEX
  8
0
 10
21.956931
 20
202.406162
 42
-0.047414
  0
VERTEX
  8
0
 10
22.000000
 20
201.953009
 42
0.140046
  0
VERTEX
  8
0
 10
22.146903
 20
201.438815
 42
0.013088
  0
VERTEX
  8
0
 10
22.879196
 20
200.327747
 42
0.016002
  0
VERTEX
  8
0
 10
23.846672
 20
199.030805
 42
0.011905
  0
VERTEX
  8
0
 10
24.993009
 20
197.660744
 42
0.000000
  0
VERTEX
  8
0
 10
27.986018
 20
194.251895
 42
0.000000
  0
VERTEX
  8
0
 10
19.132824
 20
194.756681
 42
0.007920
  0
VERTEX
  8
0
 10
15.002507
 20
194.926597
 42
0.024098
  0
VERTEX
  8
0
 10
12.194871
 20
194.862259
 42
0.031837
  0
VERTEX
  8
0
 10
10.311978
 20
194.606992
 42
0.207613
  0
VERTEX
  8
0
 10
9.545672
 20
194.073898
 42
0.152737
  0
VERTEX
  8
0
 10
9.095023
 20
192.312275
 42
0.085103
  0
VERTEX
  8
0
 10
9.588311
 20
190.131785
 42
0.082005
  0
VERTEX
  8
0
 10
10.811540
 20
188.162917
 42
0.122585
  0
VERTEX
  8
0
 10
12.467127
 20
187.012498
 42
-0.048838
  0
VERTEX
  8
0
 10
13.468717
 20
186.515114
 42
-0.034684
  0
VERTEX
  8
0
 10
14.484263
 20
185.777989
 42
-0.035184
  0
VERTEX
  8
0
 10
15.363592
 20
184.929522
 42
-0.060454
  0
VERTEX
  8
0
 10
15.947935
 20
184.097284
 42
-0.060416
  0
VERTEX
  8
0
 10
16.389911
 20
182.960168
 42
-0.246286
  0
VERTEX
  8
0
 10
16.224199
 20
182.261670
 42
-0.132420
  0
VERTEX
  8
0
 10
15.429440
 20
181.727698
 42
-0.014722
  0
VERTEX
  8
0
 10
13.322089
 20
181.078488
 42
-0.037011
  0
VERTEX
  8
0
 10
11.086389
 20
180.635957
 42
-0.088437
  0
VERTEX
  8
0
 10
9.403247
 20
180.728609
 42
-0.065374
  0
VERTEX
  8
0
 10
7.563704
 20
181.425153
 42
-0.013642
  0
VERTEX
  8
0
 10
4.563352
 20
183.142282
 42
0.000000
  0
VERTEX
  8
0
 10
-0.500000
 20
186.226422
 42
0.000000
  0
VERTEX
  8
0
 10
2.067858
 20
183.363211
 42
-0.012045
  0
VERTEX
  8
0
 10
3.175457
 20
182.066699
 42
-0.008057
  0
VERTEX
  8
0
 10
4.382308
 20
180.533256
 42
-0.008116
  0
VERTEX
  8
0
 10
5.504455
 20
179.008441
 42
-0.015790
  0
VERTEX
  8
0
 10
6.340911
 20
177.750000
 42
0.061476
  0
VERTEX
  8
0
 10
7.818502
 20
175.914718
 42
0.151978
  0
VERTEX
  8
0
 10
9.343329
 20
175.143020
 42
0.139233
  0
VERTEX
  8
0
 10
11.128489
 20
175.339870
 42
0.048419
  0
VERTEX
  8
0
 10
13.442048
 20
176.553985
 42
0.000000
  0
VERTEX
  8
0
 10
15.813729
 20
178.107971
 42
0.000000
  0
VERTEX
  8
0
 10
14.994308
 20
174.474762
 42
-0.020508
  0
VERTEX
  8
0
 10
14.195614
 20
171.506303
 42
-0.147031
  0
VERTEX
  8
0
 10
13.371706
 20
170.291121
 42
-0.158852
  0
VERTEX
  8
0
 10
12.045553
 20
169.779899
 42
-0.025068
  0
VERTEX
  8
0
 10
9.214660
 20
169.772141
 42
0.000000
  0
VERTEX
  8
0
 10
5.500000
 20
169.948296
 42
0.000000
  0
VERTEX
  8
0
 10
9.500000
 20
168.366267
 42
0.000004
  0
VERTEX
  8
0
 10
11.404490
 20
167.613048
 42
0.000002
  0
VERTEX
  8
0
 10
13.867187
 20
166.639096
 42
0.000002
  0
VERTEX
  8
0
 10
16.447813
 20
165.618531
 42
0.000003
  0
VERTEX
  8
0
 10
18.750000
 20
164.708106
 42
-0.015385
  0
VERTEX
  8
0
 10
21.465082
 20
163.536594
 42
-0.064726
  0
VERTEX
  8
0
 10
22.959178
 20
162.584421
 42
-0.112279
  0
VERTEX
  8
0
 10
23.727010
 20
161.575467
 42
-0.107130
  0
VERTEX
  8
0
 10
24.000000
 20
160.315986
 42
-0.040970
  0
VERTEX
  8
0
 10
23.926482
 20
159.420283
 42
-0.056316
  0
VERTEX
  8
0
 10
23.706250
 20
158.643602
 42
-0.070177
  0
VERTEX
  8
0
 10
23.383181
 20
158.090869
 42
-0.196828
  0
VERTEX
  8
0
 10
23.000000
 20
157.875000
 42
-0.000000
  0
VERTEX
  8
0
 10
22.482615
 20
157.810327
 42
-0.000000
  0
VERTEX
  8
0
 10
21.706250
 20
157.713281
 42
0.024922
  0
VERTEX
  8
0
 10
20.839051
 20
157.604881
 42
-0.000000
  0
VERTEX
  8
0
 10
20.000000
 20
157.500000
 42
0.001967
  0
VERTEX
  8
0
 10
19.179297
 20
157.394131
 42
0.002024
  0
VERTEX
  8
0
 10
18.367188
 20
157.282773
 42
0.001956
  0
VERTEX
  8
0
 10
17.663795
 20
157.180613
 42
0.008595
  0
VERTEX
  8
0
 10
17.250000
 20
157.111569
 42
0.662131
  0
VERTEX
  8
0
 10
17.208886
 20
156.926462
 42
0.013922
  0
VERTEX
  8
0
 10
18.258690
 20
156.220812
 42
0.014562
  0
VERTEX
  8
0
 10
19.779698
 20
155.319711
 42
0.007443
  0
VERTEX
  8
0
 10
21.737030
 20
154.273599
 42
0.034417
  0
VERTEX
  8
0
 10
25.761978
 20
152.537898
 42
0.224777
  0
VERTEX
  8
0
 10
27.893658
 20
152.760118
 42
0.205607
  0
VERTEX
  8
0
 10
29.190297
 20
154.579611
 42
0.028717
  0
VERTEX
  8
0
 10
29.925690
 20
159.250000
 42
-0.295260
  0
VERTEX
  8
0
 10
30.439692
 20
159.894850
 42
-0.250638
  0
VERTEX
  8
0
 10
31.313249
 20
159.747119
 42
-0.081199
  0
VERTEX
  8
0
 10
32.556808
 20
158.412429
 42
-0.032856
  0
VERTEX
  8
0
 10
33.801645
 20
156.250000
 42
-0.040819
  0
VERTEX
  8
0
 10
35.064224
 20
153.042938
 42
-0.135955
  0
VERTEX
  8
0
 10
35.116275
 20
150.800360
 42
-0.183040
  0
VERTEX
  8
0
 10
34.032818
 20
149.247255
 42
-0.086731
  0
VERTEX
  8
0
 10
31.777009
 20
148.222023
 42
0.079895
  0
VERTEX
  8
0
 10
30.925107
 20
147.848716
 42
0.672600
  0
VERTEX
  8
0
 10
30.979174
 20
147.561166
 42
0.041724
  0
VERTEX
  8
0
 10
32.518382
 20
147.379718
 42
0.003704
  0
VERTEX
  8
0
 10
36.426126
 20
147.276003
 42
-0.012963
  0
VERTEX
  8
0
 10
40.044272
 20
147.112888
 42
-0.025757
  0
VERTEX
  8
0
 10
42.891891
 20
146.762357
 42
-0.032677
  0
VERTEX
  8
0
 10
45.094266
 20
146.225002
 42
-0.068958
  0
VERTEX
  8
0
 10
46.680483
 20
145.473700
 42
0.000000
  0
VERTEX
  8
0
 10
49.205494
 20
143.819249
 42
0.000000
  0
VERTEX
  8
0
 10
46.577548
 20
142.455854
 42
0.018726
  0
VERTEX
  8
0
 10
45.458221
 20
141.820861
 42
0.013818
  0
VERTEX
  8
0
 10
44.267357
 20
141.038752
 42
0.014007
  0
VERTEX
  8
0
 10
43.181578
 20
140.235800
 42
0.030166
  0
VERTEX
  8
0
 10
42.403373
 20
139.546230
 42
-0.027288
  0
VERTEX
  8
0
 10
41.743204
 20
138.954439
 42
-0.029465
  0
VERTEX
  8
0
 10
41.038580
 20
138.454205
 42
-0.030782
  0
VERTEX
  8
0
 10
40.388667
 20
138.101765
 42
-0.109271
  0
VERTEX
  8
0
 10
39.928571
 20
138.000000
 42
0.106871
  0
VERTEX
  8
0
 10
39.574290
 20
137.923400
 42
0.099464
  0
VERTEX
  8
0
 10
39.272768
 20
137.706250
 42
0.095921
  0
VERTEX
  8
0
 10
39.070624
 20
137.381754
 42
0.091722
  0
VERTEX
  8
0
 10
39.000000
 20
137.000000
 42
0.260575
  0
VERTEX
  8
0
 10
39.397383
 20
136.289261
 42
0.167609
  0
VERTEX
  8
0
 10
40.342614
 20
136.078841
 42
0.066095
  0
VERTEX
  8
0
 10
42.036823
 20
136.502588
 42
0.016497
  0
VERTEX
  8
0
 10
44.659670
 20
137.642793
 42
0.000000
  0
VERTEX
  8
0
 10
48.121599
 20
139.285585
 42
0.000000
  0
VERTEX
  8
0
 10
52.060799
 20
134.932817
 42
-0.012691
  0
VERTEX
  8
0
 10
54.651942
 20
131.919326
 42
-0.068135
  0
VERTEX
  8
0
 10
55.778431
 20
130.076781
 42
-0.409059
  0
VERTEX
  8
0
 10
55.518452
 20
129.394179
 42
-0.201856
  0
VERTEX
  8
0
 10
54.500000
 20
129.361626
 42
0.027721
  0
VERTEX
  8
0
 10
53.924666
 20
129.546544
 42
0.051483
  0
VERTEX
  8
0
 10
53.440625
 20
129.621025
 42
0.080408
  0
VERTEX
  8
0
 10
53.112610
 20
129.584575
 42
0.336852
  0
VERTEX
  8
0
 10
53.000000
 20
129.436391
 42
0.305984
  0
VERTEX
  8
0
 10
53.556428
 20
128.612277
 42
0.047989
  0
VERTEX
  8
0
 10
55.536213
 20
128.027646
 42
0.048382
  0
VERTEX
  8
0
 10
57.769903
 20
127.815827
 42
0.120834
  0
VERTEX
  8
0
 10
59.350224
 20
128.206988
 42
0.088483
  0
VERTEX
  8
0
 10
60.266964
 20
128.917963
 42
0.130038
  0
VERTEX
  8
0
 10
60.731801
 20
129.819591
 42
0.075947
  0
VERTEX
  8
0
 10
60.821951
 20
131.187996
 42
0.015759
  0
VERTEX
  8
0
 10
60.538951
 20
133.588822
 42
-0.050852
  0
VERTEX
  8
0
 10
60.380272
 20
136.945802
 42
-0.373847
  0
VERTEX
  8
0
 10
61.411697
 20
138.009699
 42
-0.191048
  0
VERTEX
  8
0
 10
63.418905
 20
137.405970
 42
-0.020233
  0
VERTEX
  8
0
 10
67.195712
 20
134.158522
 42
-0.029523
  0
VERTEX
  8
0
 10
69.865494
 20
131.355903
 42
-0.182893
  0
VERTEX
  8
0
 10
70.517378
 20
129.514877
 42
-0.326204
  0
VERTEX
  8
0
 10
69.646748
 20
128.374639
 42
-0.072134
  0
VERTEX
  8
0
 10
67.063428
 20
128.000000
 42
0.039917
  0
VERTEX
  8
0
 10
65.908444
 20
127.907646
 42
0.038527
  0
VERTEX
  8
0
 10
64.768601
 20
127.632812
 42
0.041104
  0
VERTEX
  8
0
 10
63.804891
 20
127.230151
 42
0.100574
  0
VERTEX
  8
0
 10
63.209198
 20
126.750000
 42
0.401700
  0
VERTEX
  8
0
 10
63.252461
 20
126.150431
 42
0.136676
  0
VERTEX
  8
0
 10
64.112190
 20
125.721096
 42
0.036815
  0
VERTEX
  8
0
 10
66.280594
 20
125.464277
 42
0.005849
  0
VERTEX
  8
0
 10
70.561370
 20
125.324705
 42
-0.007328
  0
VERTEX
  8
0
 10
76.424551
 20
125.116175
 42
-0.055124
  0
VERTEX
  8
0
 10
79.161277
 20
124.673560
 42
-0.185757
  0
VERTEX
  8
0
 10
80.273698
 20
123.849101
 42
-0.237329
  0
VERTEX
  8
0
 10
80.398855
 20
122.597017
 42
0.246929
  0
VERTEX
  8
0
 10
80.532683
 20
121.465876
 42
0.157911
  0
VERTEX
  8
0
 10
81.605593
 20
120.640682
 42
0.120670
  0
VERTEX
  8
0
 10
83.211235
 20
120.475995
 42
0.139585
  0
VERTEX
  8
0
 10
84.614013
 20
121.094623
 42
-0.121104
  0
VERTEX
  8
0
 10
86.071728
 20
121.801819
 42
-0.168274
  0
VERTEX
  8
0
 10
87.500607
 20
121.625509
 42
-0.204762
  0
VERTEX
  8
0
 10
88.331603
 20
120.660001
 42
-0.167916
  0
VERTEX
  8
0
 10
88.295910
 20
119.287854
 42
0.014403
  0
VERTEX
  8
0
 10
87.975734
 20
118.352888
 42
0.285807
  0
VERTEX
  8
0
 10
88.049020
 20
118.072492
 42
0.343525
  0
VERTEX
  8
0
 10
88.311991
 20
118.047012
 42
0.017723
  0
VERTEX
  8
0
 10
89.062769
 20
118.561352
 42
-0.065004
  0
VERTEX
  8
0
 10
90.318195
 20
119.257426
 42
-0.110815
  0
VERTEX
  8
0
 10
91.497771
 20
119.442585
 42
-0.056977
  0
VERTEX
  8
0
 10
93.133916
 20
119.146783
 42
-0.007509
  0
VERTEX
  8
0
 10
96.500000
 20
118.077029
 42
-0.016411
  0
VERTEX
  8
0
 10
100.077325
 20
116.748671
 42
-0.079960
  0
VERTEX
  8
0
 10
101.916465
 20
115.626275
 42
-0.318839
  0
VERTEX
  8
0
 10
102.146494
 20
114.710024
 42
-0.217090
  0
VERTEX
  8
0
 10
101.346950
 20
113.931743
 42
-0.062040
  0
VERTEX
  8
0
 10
100.479386
 20
113.737323
 42
-0.034279
  0
VERTEX
  8
0
 10
99.392003
 20
113.706864
 42
-0.033610
  0
VERTEX
  8
0
 10
98.268708
 20
113.828338
 42
-0.045665
  0
VERTEX
  8
0
 10
97.285402
 20
114.096439
 42
0.040338
  0
VERTEX
  8
0
 10
96.359628
 20
114.359461
 42
0.061096
  0
VERTEX
  8
0
 10
95.525601
 20
114.421412
 42
0.078005
  0
VERTEX
  8
0
 10
94.870908
 20
114.286249
 42
0.165983
  0
VERTEX
  8
0
 10
94.476385
 20
113.961789
 42
0.129612
  0
VERTEX
  8
0
 10
94.365014
 20
113.596313
 42
0.189683
  0
VERTEX
  8
0
 10
94.474923
 20
113.282526
 42
0.145451
  0
VERTEX
  8
0
 10
94.804962
 20
113.070936
 42
0.070421
  0
VERTEX
  8
0
 10
95.306124
 20
113.000000
 42
-0.137169
  0
VERTEX
  8
0
 10
97.212941
 20
112.466856
 42
-0.047911
  0
VERTEX
  8
0
 10
99.517157
 20
110.747603
 42
-0.047635
  0
VERTEX
  8
0
 10
101.424374
 20
108.653928
 42
-0.162311
  0
VERTEX
  8
0
 10
102.000000
 20
106.927420
 42
-0.049910
  0
VERTEX
  8
0
 10
101.926194
 20
106.189867
 42
-0.069894
  0
VERTEX
  8
0
 10
101.706250
 20
105.566180
 42
-0.090047
  0
VERTEX
  8
0
 10
101.381766
 20
105.146534
 42
-0.185325
  0
VERTEX
  8
0
 10
101.000000
 20
105.000000
 42
-0.000376
  0
VERTEX
  8
0
 10
100.580194
 20
105.000316
 42
-0.000339
  0
VERTEX
  8
0
 10
100.145749
 20
105.001263
 42
-0.000339
  0
VERTEX
  8
0
 10
99.756419
 20
105.002641
 42
-0.001079
  0
VERTEX
  8
0
 10
99.496168
 20
105.004300
 42
0.191921
  0
VERTEX
  8
0
 10
98.149465
 20
104.480887
 42
0.020152
  0
VERTEX
  8
0
 10
95.723863
 20
102.031761
 42
0.021175
  0
VERTEX
  8
0
 10
93.509346
 20
99.391524
 42
0.165380
  0
VERTEX
  8
0
 10
93.000000
 20
97.893719
 42
-0.050992
  0
VERTEX
  8
0
 10
92.925861
 20
97.168648
 42
-0.048019
  0
VERTEX
  8
0
 10
92.706250
 20
96.458094
 42
-0.051581
  0
VERTEX
  8
0
 10
92.383285
 20
95.865210
 42
-0.104215
  0
VERTEX
  8
0
 10
92.000000
 20
95.500000
 42
0.070861
  0
VERTEX
  8
0
 10
91.617430
 20
95.180984
 42
0.052792
  0
VERTEX
  8
0
 10
91.293750
 20
94.735895
 42
0.053339
  0
VERTEX
  8
0
 10
91.073845
 20
94.239074
 42
0.077687
  0
VERTEX
  8
0
 10
91.000000
 20
93.766669
 42
0.384630
  0
VERTEX
  8
0
 10
91.205211
 20
93.539370
 42
0.133581
  0
VERTEX
  8
0
 10
91.679870
 20
93.617695
 42
0.057122
  0
VERTEX
  8
0
 10
92.424845
 20
94.067551
 42
0.024210
  0
VERTEX
  8
0
 10
93.314451
 20
94.825686
 42
-0.013682
  0
VERTEX
  8
0
 10
94.250897
 20
95.658391
 42
-0.018079
  0
VERTEX
  8
0
 10
95.150412
 20
96.361295
 42
-0.015619
  0
VERTEX
  8
0
 10
95.926104
 20
96.887343
 42
-0.142117
  0
VERTEX
  8
0
 10
96.314451
 20
97.000000
 42
-0.375992
  0
VERTEX
  8
0
 10
96.969601
 20
96.426223
 42
-0.082638
  0
VERTEX
  8
0
 10
96.916530
 20
94.802137
 42
-0.059070
  0
VERTEX
  8
0
 10
96.233797
 20
92.710958
 42
-0.058301
  0
VERTEX
  8
0
 10
95.078806
 20
90.827315
 42
0.096438
  0
VERTEX
  8
0
 10
93.739569
 20
88.218272
 42
0.037330
  0
VERTEX
  8
0
 10
92.899404
 20
84.224171
 42
0.032769
  0
VERTEX
  8
0
 10
92.641511
 20
80.391670
 42
0.284532
  0
VERTEX
  8
0
 10
93.500000
 20
79.000000
 42
0.376675
  0
VERTEX
  8
0
 10
93.924148
 20
79.111393
 42
0.058748
  0
VERTEX
  8
0
 10
94.355263
 20
79.947368
 42
0.040870
  0
VERTEX
  8
0
 10
94.735305
 20
81.283703
 42
0.021184
  0
VERTEX
  8
0
 10
95.000000
 20
83.000000
 42
0.000000
  0
VERTEX
  8
0
 10
95.500000
 20
87.500000
 42
0.000000
  0
VERTEX
  8
0
 10
96.750000
 20
83.383980
 42
-0.013057
  0
VERTEX
  8
0
 10
97.228522
 20
81.646358
 42
-0.011850
  0
VERTEX
  8
0
 10
97.632812
 20
79.829180
 42
-0.011959
  0
VERTEX
  8
0
 10
97.917036
 20
78.186248
 42
-0.036863
  0
VERTEX
  8
0
 10
98.000000
 20
77.062475
 42
-0.084736
  0
VERTEX
  8
0
 10
97.793402
 20
75.852157
 42
-0.225752
  0
VERTEX
  8
0
 10
97.191337
 20
75.246224
 42
-0.092823
  0
VERTEX
  8
0
 10
95.914788
 20
75.040970
 42
-0.008868
  0
VERTEX
  8
0
 10
92.750000
 20
75.178495
 42
0.000000
  0
VERTEX
  8
0
 10
87.500000
 20
75.500000
 42
0.000000
  0
VERTEX
  8
0
 10
87.639020
 20
72.327489
 42
0.042601
  0
VERTEX
  8
0
 10
87.818572
 20
70.942716
 42
0.028543
  0
VERTEX
  8
0
 10
88.246573
 20
69.403204
 42
0.028772
  0
VERTEX
  8
0
 10
88.837318
 20
67.948560
 42
0.049294
  0
VERTEX
  8
0
 10
89.512064
 20
66.827489
 42
0.003277
  0
VERTEX
  8
0
 10
90.500831
 20
65.518317
 42
0.150012
  0
VERTEX
  8
0
 10
90.772463
 20
65.324569
 42
0.619163
  0
VERTEX
  8
0
 10
90.876148
 20
65.428588
 42
0.008624
  0
VERTEX
  8
0
 10
90.494447
 20
66.500000
 42
-0.018573
  0
VERTEX
  8
0
 10
89.553362
 20
69.317653
 42
-0.049332
  0
VERTEX
  8
0
 10
89.160037
 20
71.400746
 42
-0.112560
  0
VERTEX
  8
0
 10
89.319259
 20
72.563066
 42
-0.402962
  0
VERTEX
  8
0
 10
89.933475
 20
72.855508
 42
-0.067126
  0
VERTEX
  8
0
 10
90.398318
 20
72.627628
 42
-0.065049
  0
VERTEX
  8
0
 10
90.791763
 20
72.282712
 42
-0.070242
  0
VERTEX
  8
0
 10
91.057392
 20
71.878035
 42
-0.111379
  0
VERTEX
  8
0
 10
91.146995
 20
71.475000
 42
0.119526
  0
VERTEX
  8
0
 10
91.280413
 20
70.917367
 42
0.014786
  0
VERTEX
  8
0
 10
91.886457
 20
69.814141
 42
0.016776
  0
VERTEX
  8
0
 10
92.702022
 20
68.528917
 42
0.013151
  0
VERTEX
  8
0
 10
93.668529
 20
67.190160
 42
-0.019780
  0
VERTEX
  8
0
 10
95.050789
 20
65.221047
 42
-0.091855
  0
VERTEX
  8
0
 10
95.575784
 20
63.941296
 42
-0.112890
  0
VERTEX
  8
0
 10
95.552401
 20
62.692859
 42
-0.037303
  0
VERTEX
  8
0
 10
94.975213
 20
60.940160
 42
-0.019488
  0
VERTEX
  8
0
 10
94.456404
 20
59.813891
 42
-0.027924
  0
VERTEX
  8
0
 10
93.904143
 20
58.863672
 42
-0.027006
  0
VERTEX
  8
0
 10
93.387147
 20
58.163914
 42
-0.223748
  0
VERTEX
  8
0
 10
93.039195
 20
58.000000
 42
0.204531
  0
VERTEX
  8
0
 10
92.692736
 20
57.852090
 42
0.031226
  0
VERTEX
  8
0
 10
92.197387
 20
57.265625
 42
0.030663
  0
VERTEX
  8
0
 10
91.670636
 20
56.457465
 42
0.022204
  0
VERTEX
  8
0
 10
91.181954
 20
55.500000
 42
0.041227
  0
VERTEX
  8
0
 10
90.531848
 20
53.691670
 42
0.439964
  0
VERTEX
  8
0
 10
90.905419
 20
53.104000
 42
0.205837
  0
VERTEX
  8
0
 10
91.934713
 20
53.345440
 42
0.019513
  0
VERTEX
  8
0
 10
94.000000
 20
55.000000
 42
-0.057347
  0
VERTEX
  8
0
 10
96.186077
 20
56.495196
 42
-0.124949
  0
VERTEX
  8
0
 10
98.147469
 20
56.968336
 42
-0.212889
  0
VERTEX
  8
0
 10
99.459717
 20
56.364257
 42
-0.181934
  0
VERTEX
  8
0
 10
100.000000
 20
54.928571
 42
-0.099214
  0
VERTEX
  8
0
 10
99.669873
 20
53.281242
 42
-0.068661
  0
VERTEX
  8
0
 10
98.701899
 20
51.639242
 42
-0.072396
  0
VERTEX
  8
0
 10
97.401640
 20
50.412089
 42
-0.154190
  0
VERTEX
  8
0
 10
96.097109
 20
50.000000
 42
0.250237
  0
VERTEX
  8
0
 10
94.877284
 20
49.348728
 42
0.038025
  0
VERTEX
  8
0
 10
93.472904
 20
46.861304
 42
0.040916
  0
VERTEX
  8
0
 10
92.370928
 20
43.899372
 42
0.070749
  0
VERTEX
  8
0
 10
92.022770
 20
41.299660
 42
0.000000
  0
VERTEX
  8
0
 10
92.045540
 20
38.500000
 42
0.000000
  0
VERTEX
  8
0
 10
93.647673
 20
41.750000
 42
-0.015531
  0
VERTEX
  8
0
 10
94.825556
 20
43.963303
 42
-0.136625
  0
VERTEX
  8
0
 10
95.607224
 20
44.735198
 42
-0.222367
  0
VERTEX
  8
0
 10
96.487396
 20
44.796846
 42
-0.049281
  0
VERTEX
  8
0
 10
97.872839
 20
44.099751
 42
-0.127681
  0
VERTEX
  8
0
 10
98.462178
 20
43.469868
 42
-0.087703
  0
VERTEX
  8
0
 10
98.774421
 20
42.537672
 42
-0.058170
  0
VERTEX
  8
0
 10
98.816822
 20
41.214786
 42
-0.021604
  0
VERTEX
  8
0
 10
98.579943
 20
39.365064
 42
0.009647
  0
VERTEX
  8
0
 10
97.858276
 20
34.631050
 42
0.040201
  0
VERTEX
  8
0
 10
97.709470
 20
31.751310
 42
0.093315
  0
VERTEX
  8
0
 10
98.046302
 20
30.207550
 42
0.358587
  0
VERTEX
  8
0
 10
98.855260
 20
29.785087
 42
-0.083405
  0
VERTEX
  8
0
 10
99.475655
 20
29.810480
 42
-0.045454
  0
VERTEX
  8
0
 10
100.222117
 20
29.646404
 42
-0.043655
  0
VERTEX
  8
0
 10
100.971441
 20
29.334473
 42
-0.052800
  0
VERTEX
  8
0
 10
101.605260
 20
28.912642
 42
-0.168874
  0
VERTEX
  8
0
 10
102.566414
 20
27.321779
 42
-0.040896
  0
VERTEX
  8
0
 10
102.961898
 20
24.228030
 42
-0.040908
  0
VERTEX
  8
0
 10
102.848458
 20
21.110572
 42
-0.168379
  0
VERTEX
  8
0
 10
102.035782
 20
19.435782
 42
0.102620
  0
VERTEX
  8
0
 10
101.644695
 20
18.839994
 42
0.025633
  0
VERTEX
  8
0
 10
101.270855
 20
17.730855
 42
0.025105
  0
VERTEX
  8
0
 10
100.966093
 20
16.390940
 42
0.022915
  0
VERTEX
  8
0
 10
100.785782
 20
14.985782
 42
0.017332
  0
VERTEX
  8
0
 10
100.681701
 20
12.779616
 42
0.202960
  0
VERTEX
  8
0
 10
101.000577
 20
11.999426
 42
0.201888
  0
VERTEX
  8
0
 10
101.783675
 20
11.683101
 42
0.017130
  0
VERTEX
  8
0
 10
104.000000
 20
11.791297
 42
0.000000
  0
VERTEX
  8
0
 10
107.500000
 20
12.082594
 42
0.000000
  0
VERTEX
  8
0
 10
107.663317
 20
6.461313
 42
0.006124
  0
VERTEX
  8
0
 10
107.753459
 20
4.279617
 42
0.009200
  0
VERTEX
  8
0
 10
107.890389
 20
2.379555
 42
0.004721
  0
VERTEX
  8
0
 10
108.049793
 20
0.787342
 42
0.170672
  0
VERTEX
  8
0
 10
108.206987
 20
0.459679
 42
0.257666
  0
VERTEX
  8
0
 10
109.412788
 20
0.111592
 42
0.086298
  0
VERTEX
  8
0
 10
111.164827
 20
0.843053
 42
0.076001
  0
VERTEX
  8
0
 10
112.773662
 20
2.252327
 42
0.125663
  0
VERTEX
  8
0
 10
113.554239
 20
3.869492
 42
-0.034721
  0
VERTEX
  8
0
 10
114.276192
 20
6.487295
 42
-0.035275
  0
VERTEX
  8
0
 10
115.350507
 20
8.965654
 42
-0.036058
  0
VERTEX
  8
0
 10
116.554463
 20
10.922175
 42
-0.158261
  0
VERTEX
  8
0
 10
117.633929
 20
11.714467
 42
-0.131635
  0
VERTEX
  8
0
 10
118.181382
 20
11.745968
 42
-0.053392
  0
VERTEX
  8
0
 10
118.898439
 20
11.515509
 42
-0.047911
  0
VERTEX
  8
0
 10
119.658503
 20
11.086963
 42
-0.044092
  0
VERTEX
  8
0
 10
120.346320
 20
10.510823
 42
-0.057890
  0
VERTEX
  8
0
 10
121.063740
 20
9.604812
 42
-0.103981
  0
VERTEX
  8
0
 10
121.384822
 20
8.716614
 42
-0.090283
  0
VERTEX
  8
0
 10
121.343228
 20
7.687987
 42
-0.035722
  0
VERTEX
  8
0
 10
120.934413
 20
6.327492
 42
0.021803
  0
VERTEX
  8
0
 10
120.591917
 20
5.293020
 42
0.030283
  0
VERTEX
  8
0
 10
120.383143
 20
4.339624
 42
0.030645
  0
VERTEX
  8
0
 10
120.310511
 20
3.567209
 42
0.207369
  0
VERTEX
  8
0
 10
120.448483
 20
3.218184
 42
0.265321
  0
VERTEX
  8
0
 10
120.688116
 20
3.152712
 42
0.126433
  0
VERTEX
  8
0
 10
120.977504
 20
3.312130
 42
0.074128
  0
VERTEX
  8
0
 10
121.279304
 20
3.694826
 42
0.038361
  0
VERTEX
  8
0
 10
121.541044
 20
4.246364
 42
-0.102034
  0
VERTEX
  8
0
 10
121.908601
 20
4.820093
 42
-0.097145
  0
VERTEX
  8
0
 10
122.478996
 20
5.213662
 42
-0.090705
  0
VERTEX
  8
0
 10
123.190785
 20
5.379859
 42
-0.076209
  0
VERTEX
  8
0
 10
123.962350
 20
5.299595
 42
0.113284
  0
VERTEX
  8
0
 10
126.231473
 20
5.231112
 42
0.129904
  0
VERTEX
  8
0
 10
128.176238
 20
6.179663
 42
0.115889
  0
VERTEX
  8
0
 10
129.551016
 20
8.073588
 42
0.078364
  0
VERTEX
  8
0
 10
130.189812
 20
10.675672
 42
-0.057017
  0
VERTEX
  8
0
 10
130.689811
 20
13.164793
 42
-0.141056
  0
VERTEX
  8
0
 10
131.719336
 20
14.694437
 42
-0.463833
  0
VERTEX
  8
0
 10
132.588498
 20
14.544819
 42
-0.133721
  0
VERTEX
  8
0
 10
133.000000
 20
13.033673
 42
0.080618
  0
VERTEX
  8
0
 10
133.322816
 20
11.044541
 42
0.024703
  0
VERTEX
  8
0
 10
134.430528
 20
8.198490
 42
0.017584
  0
VERTEX
  8
0
 10
135.750808
 20
5.504819
 42
0.276732
  0
VERTEX
  8
0
 10
136.593068
 20
5.000000
 42
0.338588
  0
VERTEX
  8
0
 10
136.760183
 20
5.127819
 42
0.069379
  0
VERTEX
  8
0
 10
136.810180
 20
5.521347
 42
0.047475
  0
VERTEX
  8
0
 10
136.748626
 20
6.094177
 42
0.026358
  0
VERTEX
  8
0
 10
136.571476
 20
6.774798
 42
-0.126076
  0
VERTEX
  8
0
 10
136.518941
 20
7.703579
 42
-0.119206
  0
VERTEX
  8
0
 10
136.915832
 20
8.565302
 42
-0.076353
  0
VERTEX
  8
0
 10
137.845542
 20
9.430512
 42
-0.025773
  0
VERTEX
  8
0
 10
139.431889
 20
10.393387
 42
0.043309
  0
VERTEX
  8
0
 10
140.830194
 20
11.310637
 42
0.032468
  0
VERTEX
  8
0
 10
142.200482
 20
12.541978
 42
0.033199
  0
VERTEX
  8
0
 10
143.345782
 20
13.881296
 42
0.062179
  0
VERTEX
  8
0
 10
144.049121
 20
15.118589
 42
-0.031460
  0
VERTEX
  8
0
 10
145.019014
 20
17.098045
 42
-0.188173
  0
VERTEX
  8
0
 10
145.895365
 20
17.807153
 42
-0.163089
  0
VERTEX
  8
0
 10
147.095546
 20
17.789115
 42
-0.022295
  0
VERTEX
  8
0
 10
149.452947
 20
16.839485
 42
-0.040079
  0
VERTEX
  8
0
 10
151.037712
 20
15.957935
 42
-0.128201
  0
VERTEX
  8
0
 10
151.835966
 20
15.062404
 42
-0.114938
  0
VERTEX
  8
0
 10
152.142626
 20
13.831409
 42
-0.029095
  0
VERTEX
  8
0
 10
152.053612
 20
11.757769
 42
0.058178
  0
VERTEX
  8
0
 10
152.065613
 20
10.965776
 42
0.215590
  0
VERTEX
  8
0
 10
152.322972
 20
10.551661
 42
0.190523
  0
VERTEX
  8
0
 10
152.831653
 20
10.441362
 42
0.045094
  0
VERTEX
  8
0
 10
153.688458
 20
10.663004
 42
0.058350
  0
VERTEX
  8
0
 10
155.836571
 20
11.726827
 42
0.118763
  0
VERTEX
  8
0
 10
157.123624
 20
13.086464
 42
0.083001
  0
VERTEX
  8
0
 10
157.914809
 20
15.214591
 42
0.018695
  0
VERTEX
  8
0
 10
158.505260
 20
19.045322
 42
-0.024423
  0
VERTEX
  8
0
 10
159.206731
 20
23.274157
 42
-0.200268
  0
VERTEX
  8
0
 10
160.300869
 20
24.844561
 42
-0.427717
  0
VERTEX
  8
0
 10
161.519484
 20
24.544571
 42
-0.052714
  0
VERTEX
  8
0
 10
162.753252
 20
21.750000
 42
0.000000
  0
VERTEX
  8
0
 10
163.795824
 20
18.500000
 42
0.000000
  0
VERTEX
  8
0
 10
163.897912
 20
21.750000
 42
-0.043458
  0
VERTEX
  8
0
 10
164.120529
 20
23.623606
 42
-0.166364
  0
VERTEX
  8
0
 10
164.711065
 20
24.620415
 42
-0.171906
  0
VERTEX
  8
0
 10
165.774732
 20
25.027806
 42
-0.047086
  0
VERTEX
  8
0
 10
167.593460
 20
24.902449
 42
0.193849
  0
VERTEX
  8
0
 10
167.951538
 20
24.982533
 42
0.012233
  0
VERTEX
  8
0
 10
168.842517
 20
25.628673
 42
0.016564
  0
VERTEX
  8
0
 10
169.886643
 20
26.481743
 42
0.011457
  0
VERTEX
  8
0
 10
171.012199
 20
27.511688
 42
-0.046300
  0
VERTEX
  8
0
 10
173.098125
 20
29.169196
 42
-0.187617
  0
VERTEX
  8
0
 10
174.657555
 20
29.498306
 42
-0.271539
  0
VERTEX
  8
0
 10
175.655554
 20
28.669207
 42
-0.086491
  0
VERTEX
  8
0
 10
176.004778
 20
26.690983
 42
0.083215
  0
VERTEX
  8
0
 10
176.171253
 20
25.710756
 42
0.447117
  0
VERTEX
  8
0
 10
176.612588
 20
25.526442
 42
0.090066
  0
VERTEX
  8
0
 10
177.473509
 20
26.147510
 42
0.005833
  0
VERTEX
  8
0
 10
179.595564
 20
28.404750
 42
0.019811
  0
VERTEX
  8
0
 10
181.352288
 20
30.476676
 42
0.056253
  0
VERTEX
  8
0
 10
182.342668
 20
32.087495
 42
0.076972
  0
VERTEX
  8
0
 10
182.775238
 20
33.562737
 42
0.069440
  0
VERTEX
  8
0
 10
182.763980
 20
35.154750
 42
-0.083200
  0
VERTEX
  8
0
 10
182.805697
 20
37.210627
 42
-0.330891
  0
VERTEX
  8
0
 10
183.677547
 20
38.015364
 42
-0.265068
  0
VERTEX
  8
0
 10
184.916486
 20
37.474037
 42
-0.069443
  0
VERTEX
  8
0
 10
186.000000
 20
35.500000
 42
0.037589
  0
VERTEX
  8
0
 10
186.910093
 20
33.559108
 42
0.289365
  0
VERTEX
  8
0
 10
187.754875
 20
33.104327
 42
0.323229
  0
VERTEX
  8
0
 10
188.448284
 20
33.682189
 42
0.042076
  0
VERTEX
  8
0
 10
188.786745
 20
35.693982
 42
-0.033956
  0
VERTEX
  8
0
 10
188.950378
 20
36.773315
 42
-0.036970
  0
VERTEX
  8
0
 10
189.256065
 20
37.789344
 42
-0.039881
  0
VERTEX
  8
0
 10
189.647446
 20
38.608169
 42
-0.123529
  0
VERTEX
  8
0
 10
190.071337
 20
39.044089
 42
0.130684
  0
VERTEX
  8
0
 10
190.785183
 20
39.799180
 42
0.051896
  0
VERTEX
  8
0
 10
191.336887
 20
41.127227
 42
0.040271
  0
VERTEX
  8
0
 10
191.724246
 20
42.948749
 42
0.021339
  0
VERTEX
  8
0
 10
191.923489
 20
45.250000
 42
-0.164409
  0
VERTEX
  8
0
 10
192.408635
 20
46.502319
 42
-0.252254
  0
VERTEX
  8
0
 10
193.463953
 20
46.925172
 42
-0.147973
  0
VERTEX
  8
0
 10
194.909465
 20
46.302209
 42
-0.065338
  0
VERTEX
  8
0
 10
196.325576
 20
44.750000
 42
0.011000
  0
VERTEX
  8
0
 10
197.166921
 20
43.598707
 42
0.144092
  0
VERTEX
  8
0
 10
197.589135
 20
43.289896
 42
0.446212
  0
VERTEX
  8
0
 10
197.847874
 20
43.429276
 42
0.051499
  0
VERTEX
  8
0
 10
197.947548
 20
44.166593
 42
-0.115038
  0
VERTEX
  8
0
 10
198.154800
 20
44.944008
 42
-0.040097
  0
VERTEX
  8
0
 10
198.783726
 20
45.925754
 42
-0.037282
  0
VERTEX
  8
0
 10
199.675575
 20
46.933559
 42
-0.035582
  0
VERTEX
  8
0
 10
200.720456
 20
47.814901
 42
0.040090
  0
VERTEX
  8
0
 10
202.058657
 20
48.964431
 42
0.085416
  0
VERTEX
  8
0
 10
202.838195
 20
50.078499
 42
0.085531
  0
VERTEX
  8
0
 10
203.199887
 20
51.388060
 42
0.040283
  0
VERTEX
  8
0
 10
203.232114
 20
53.148308
 42
0.000000
  0
VERTEX
  8
0
 10
203.023315
 20
56.500000
 42
0.000000
  0
VERTEX
  8
0
 10
205.114880
 20
54.011742
 42
0.000000
  0
VERTEX
  8
0
 10
207.206444
 20
51.523484
 42
0.000000
  0
VERTEX
  8
0
 10
206.853222
 20
54.011742
 42
-0.042181
  0
VERTEX
  8
0
 10
206.783583
 20
55.238579
 42
-0.130612
  0
VERTEX
  8
0
 10
207.016735
 20
56.027472
 42
-0.154555
  0
VERTEX
  8
0
 10
207.580436
 20
56.518890
 42
-0.067143
  0
VERTEX
  8
0
 10
208.547408
 20
56.793003
 42
-0.127328
  0
VERTEX
  8
0
 10
210.265352
 20
56.601264
 42
-0.071304
  0
VERTEX
  8
0
 10
212.114824
 20
55.574479
 42
-0.044628
  0
VERTEX
  8
0
 10
214.328863
 20
53.559459
 42
-0.014016
  0
VERTEX
  8
0
 10
217.270130
 20
50.173275
 42
-0.023479
  0
VERTEX
  8
0
 10
219.968135
 20
46.551233
 42
-0.353455
  0
VERTEX
  8
0
 10
219.841819
 20
45.089968
 42
-0.236560
  0
VERTEX
  8
0
 10
218.164759
 20
44.495808
 42
-0.013719
  0
VERTEX
  8
0
 10
212.625000
 20
45.341714
 42
0.148858
  0
VERTEX
  8
0
 10
212.252747
 20
45.298118
 42
0.079247
  0
VERTEX
  8
0
 10
211.858766
 20
45.045427
 42
0.067255
  0
VERTEX
  8
0
 10
211.503374
 20
44.630305
 42
0.056367
  0
VERTEX
  8
0
 10
211.245268
 20
44.110804
 42
0.042138
  0
VERTEX
  8
0
 10
211.095420
 20
43.557043
 42
0.247134
  0
VERTEX
  8
0
 10
211.182843
 20
43.278879
 42
0.289162
  0
VERTEX
  8
0
 10
211.444505
 20
43.220708
 42
0.052389
  0
VERTEX
  8
0
 10
211.914073
 20
43.446894
 42
-0.114163
  0
VERTEX
  8
0
 10
212.470284
 20
43.635072
 42
-0.069492
  0
VERTEX
  8
0
 10
213.166826
 20
43.607286
 42
-0.063878
  0
VERTEX
  8
0
 10
213.891436
 20
43.378194
 42
-0.064822
  0
VERTEX
  8
0
 10
214.530819
 20
42.974423
 42
0.150909
  0
VERTEX
  8
0
 10
216.224330
 20
42.272021
 42
0.084596
  0
VERTEX
  8
0
 10
218.466737
 20
42.440927
 42
0.093892
  0
VERTEX
  8
0
 10
220.338408
 20
43.302048
 42
0.242692
  0
VERTEX
  8
0
 10
221.000000
 20
44.584793
 42
0.049645
  0
VERTEX
  8
0
 10
220.927353
 20
45.314666
 42
0.022664
  0
VERTEX
  8
0
 10
220.695915
 20
46.245331
 42
0.022180
  0
VERTEX
  8
0
 10
220.361176
 20
47.211841
 42
0.028417
  0
VERTEX
  8
0
 10
219.964816
 20
48.065741
 42
-0.080472
  0
VERTEX
  8
0
 10
219.470479
 20
49.505209
 42
-0.500683
  0
VERTEX
  8
0
 10
219.926465
 20
49.986710
 42
-0.171296
  0
VERTEX
  8
0
 10
221.072437
 20
49.425947
 42
-0.041375
  0
VERTEX
  8
0
 10
222.443296
 20
47.777494
 42
-0.068255
  0
VERTEX
  8
0
 10
223.514794
 20
45.692510
 42
-0.074409
  0
VERTEX
  8
0
 10
223.944455
 20
43.456872
 42
-0.088649
  0
VERTEX
  8
0
 10
223.682374
 20
41.534657
 42
-0.178067
  0
VERTEX
  8
0
 10
222.750601
 20
40.345863
 42
-0.080081
  0
VERTEX
  8
0
 10
222.082346
 20
40.068237
 42
-0.028409
  0
VERTEX
  8
0
 10
221.060224
 20
39.885270
 42
-0.027335
  0
VERTEX
  8
0
 10
219.895347
 20
39.808659
 42
-0.028890
  0
VERTEX
  8
0
 10
218.750601
 20
39.862212
 42
0.036981
  0
VERTEX
  8
0
 10
217.696931
 20
39.894446
 42
0.058887
  0
VERTEX
  8
0
 10
216.807989
 20
39.750091
 42
0.081483
  0
VERTEX
  8
0
 10
216.204650
 20
39.465144
 42
0.246562
  0
VERTEX
  8
0
 10
216.000000
 20
39.075366
 42
0.078524
  0
VERTEX
  8
0
 10
216.064914
 20
38.664574
 42
0.090591
  0
VERTEX
  8
0
 10
216.252758
 20
38.315889
 42
0.100780
  0
VERTEX
  8
0
 10
216.532293
 20
38.082780
 42
0.124183
  0
VERTEX
  8
0
 10
216.860453
 20
38.000000
 42
-0.115186
  0
VERTEX
  8
0
 10
217.375718
 20
37.879701
 42
-0.010811
  0
VERTEX
  8
0
 10
218.537265
 20
37.274478
 42
-0.013412
  0
VERTEX
  8
0
 10
219.903737
 20
36.476061
 42
-0.010156
  0
VERTEX
  8
0
 10
221.360453
 20
35.530137
 42
0.000000
  0
VERTEX
  8
0
 10
225.000000
 20
33.060274
 42
0.000000
  0
VERTEX
  8
0
 10
225.000000
 20
35.471120
 42
-0.071160
  0
VERTEX
  8
0
 10
225.278589
 20
37.418680
 42
-0.198414
  0
VERTEX
  8
0
 10
226.125663
 20
38.475003
 42
-0.230192
  0
VERTEX
  8
0
 10
227.366358
 20
38.537899
 42
-0.092362
  0
VERTEX
  8
0
 10
228.819375
 20
37.573311
 42
0.021429
  0
VERTEX
  8
0
 10
229.742596
 20
36.751413
 42
0.005996
  0
VERTEX
  8
0
 10
231.254754
 20
35.547091
 42
0.006037
  0
VERTEX
  8
0
 10
232.999626
 20
34.224780
 42
0.006317
  0
VERTEX
  8
0
 10
234.750000
 20
32.965145
 42
-0.045048
  0
VERTEX
  8
0
 10
237.285797
 20
30.824130
 42
-0.091233
  0
VERTEX
  8
0
 10
238.750476
 20
28.672219
 42
-0.158266
  0
VERTEX
  8
0
 10
238.932525
 20
26.888773
 42
-0.228403
  0
VERTEX
  8
0
 10
237.975000
 20
25.658333
 42
0.020003
  0
VERTEX
  8
0
 10
237.634877
 20
25.472351
 42
0.501206
  0
VERTEX
  8
0
 10
237.625625
 20
25.381219
 42
0.230978
  0
VERTEX
  8
0
 10
237.764201
 20
25.340053
 42
0.012511
  0
VERTEX
  8
0
 10
238.225000
 20
25.428795
 42
0.198947
  0
VERTEX
  8
0
 10
238.741333
 20
25.788166
 42
0.070720
  0
VERTEX
  8
0
 10
239.122670
 20
26.622325
 42
0.051780
  0
VERTEX
  8
0
 10
239.348426
 20
27.834612
 42
0.027987
  0
VERTEX
  8
0
 10
239.385937
 20
29.353795
 42
-0.017459
  0
VERTEX
  8
0
 10
239.391027
 20
30.751566
 42
-0.028662
  0
VERTEX
  8
0
 10
239.504241
 20
31.928927
 42
-0.028446
  0
VERTEX
  8
0
 10
239.690559
 20
32.802860
 42
-0.338025
  0
VERTEX
  8
0
 10
239.948846
 20
33.000000
 42
-0.165027
  0
VERTEX
  8
0
 10
240.344340
 20
32.865811
 42
-0.011666
  0
VERTEX
  8
0
 10
241.265958
 20
32.124272
 42
-0.015478
  0
VERTEX
  8
0
 10
242.338583
 20
31.160829
 42
-0.011009
  0
VERTEX
  8
0
 10
243.481989
 20
30.018799
 42
-0.018613
  0
VERTEX
  8
0
 10
245.071007
 20
28.231579
 42
-0.101265
  0
VERTEX
  8
0
 10
245.674905
 20
27.093075
 42
-0.135532
  0
VERTEX
  8
0
 10
245.693292
 20
25.974201
 42
-0.043662
  0
VERTEX
  8
0
 10
245.134553
 20
24.395967
 42
0.034857
  0
VERTEX
  8
0
 10
244.585221
 20
22.926926
 42
0.089883
  0
VERTEX
  8
0
 10
244.462619
 20
21.805259
 42
0.091144
  0
VERTEX
  8
0
 10
244.741937
 20
20.721302
 42
0.036530
  0
VERTEX
  8
0
 10
245.488526
 20
19.377168
 42
0.021667
  0
VERTEX
  8
0
 10
246.714775
 20
17.671685
 42
0.145459
  0
VERTEX
  8
0
 10
247.557296
 20
17.076272
 42
0.558892
  0
VERTEX
  8
0
 10
247.910427
 20
17.369491
 42
0.056296
  0
VERTEX
  8
0
 10
247.572390
 20
18.671951
 42
-0.247152
  0
VERTEX
  8
0
 10
247.793587
 20
20.534834
 42
-0.048675
  0
VERTEX
  8
0
 10
250.035655
 20
23.196423
 42
-0.048664
  0
VERTEX
  8
0
 10
252.756196
 20
25.379454
 42
-0.240845
  0
VERTEX
  8
0
 10
254.648624
 20
25.581341
 42
-0.090469
  0
VERTEX
  8
0
 10
255.579496
 20
25.014640
 42
-0.100071
  0
VERTEX
  8
0
 10
256.211526
 20
24.172838
 42
-0.049465
  0
VERTEX
  8
0
 10
256.738483
 20
22.709689
 42
-0.007672
  0
VERTEX
  8
0
 10
257.445794
 20
19.709102
 42
0.036526
  0
VERTEX
  8
0
 10
257.751175
 20
18.682656
 42
0.066774
  0
VERTEX
  8
0
 10
258.165825
 20
17.915537
 42
0.107237
  0
VERTEX
  8
0
 10
258.615778
 20
17.514284
 42
0.273575
  0
VERTEX
  8
0
 10
259.036380
 20
17.522484
 42
-0.145629
  0
VERTEX
  8
0
 10
259.453490
 20
17.635390
 42
-0.123856
  0
VERTEX
  8
0
 10
259.894425
 20
17.512726
 42
-0.101097
  0
VERTEX
  8
0
 10
260.293200
 20
17.163470
 42
-0.071015
  0
VERTEX
  8
0
 10
260.584382
 20
16.640701
 42
0.054716
  0
VERTEX
  8
0
 10
260.895835
 20
16.036167
 42
0.041202
  0
VERTEX
  8
0
 10
261.358960
 20
15.448482
 42
0.042129
  0
VERTEX
  8
0
 10
261.894053
 20
14.963007
 42
0.071673
  0
VERTEX
  8
0
 10
262.420460
 20
14.668896
 42
0.288991
  0
VERTEX
  8
0
 10
262.879053
 20
14.760066
 42
0.226032
  0
VERTEX
  8
0
 10
263.065383
 20
15.244332
 42
0.057213
  0
VERTEX
  8
0
 10
262.840139
 20
16.405580
 42
0.009828
  0
VERTEX
  8
0
 10
262.120980
 20
18.536082
 42
-0.048084
  0
VERTEX
  8
0
 10
261.061558
 20
22.700644
 42
-0.488874
  0
VERTEX
  8
0
 10
262.118022
 20
23.820222
 42
-0.219086
  0
VERTEX
  8
0
 10
264.280735
 20
22.563556
 42
-0.031041
  0
VERTEX
  8
0
 10
267.043848
 20
18.066898
 42
0.036564
  0
VERTEX
  8
0
 10
269.059573
 20
14.866240
 42
0.022070
  0
VERTEX
  8
0
 10
271.877012
 20
11.376891
 42
0.013218
  0
VERTEX
  8
0
 10
274.720895
 20
8.323143
 42
0.416892
  0
VERTEX
  8
0
 10
275.652222
 20
8.318889
 42
0.201055
  0
VERTEX
  8
0
 10
275.783021
 20
8.638381
 42
0.048046
  0
VERTEX
  8
0
 10
275.722026
 20
9.221296
 42
0.041908
  0
VERTEX
  8
0
 10
275.514914
 20
9.930733
 42
0.030906
  0
VERTEX
  8
0
 10
275.173936
 20
10.674997
 42
-0.100603
  0
VERTEX
  8
0
 10
274.467748
 20
13.034023
 42
-0.099599
  0
VERTEX
  8
0
 10
274.734608
 20
15.490556
 42
-0.120512
  0
VERTEX
  8
0
 10
275.847023
 20
17.318794
 42
-0.198630
  0
VERTEX
  8
0
 10
277.494132
 20
18.000000
 42
-0.058024
  0
VERTEX
  8
0
 10
278.451981
 20
17.888469
 42
-0.043652
  0
VERTEX
  8
0
 10
279.459853
 20
17.555497
 42
-0.044576
  0
VERTEX
  8
0
 10
280.365017
 20
17.066368
 42
-0.073521
  0
VERTEX
  8
0
 10
281.010957
 20
16.486798
 42
0.060932
  0
VERTEX
  8
0
 10
281.603640
 20
15.927575
 42
0.052690
  0
VERTEX
  8
0
 10
282.342300
 20
15.495414
 42
0.055352
  0
VERTEX
  8
0
 10
283.108325
 20
15.247085
 42
0.094064
  0
VERTEX
  8
0
 10
283.779658
 20
15.236798
 42
-0.148321
  0
VERTEX
  8
0
 10
284.998681
 20
15.087035
 42
-0.236767
  0
VERTEX
  8
0
 10
285.652213
 20
14.293723
 42
-0.169206
  0
VERTEX
  8
0
 10
285.512323
 20
13.040029
 42
-0.084963
  0
VERTEX
  8
0
 10
284.580522
 20
11.723380
 42
0.059621
  0
VERTEX
  8
0
 10
283.848782
 20
10.792702
 42
0.193416
  0
VERTEX
  8
0
 10
283.722148
 20
10.032589
 42
0.116902
  0
VERTEX
  8
0
 10
284.147600
 20
9.151338
 42
0.016222
  0
VERTEX
  8
0
 10
285.488131
 20
7.607308
 42
0.018373
  0
VERTEX
  8
0
 10
286.483975
 20
6.608976
 42
0.023245
  0
VERTEX
  8
0
 10
287.477990
 20
5.765897
 42
0.022250
  0
VERTEX
  8
0
 10
288.354372
 20
5.150178
 42
0.142951
  0
VERTEX
  8
0
 10
288.868918
 20
5.000000
 42
-0.114464
  0
VERTEX
  8
0
 10
289.268612
 20
4.907284
 42
-0.069705
  0
VERTEX
  8
0
 10
289.671948
 20
4.634265
 42
-0.064033
  0
VERTEX
  8
0
 10
290.017675
 20
4.230948
 42
-0.064846
  0
VERTEX
  8
0
 10
290.248352
 20
3.754943
 42
0.670495
  0
VERTEX
  8
0
 10
290.459659
 20
3.740605
 42
0.052718
  0
VERTEX
  8
0
 10
290.731624
 20
4.481260
 42
0.022702
  0
VERTEX
  8
0
 10
291.033116
 20
5.959643
 42
0.009473
  0
VERTEX
  8
0
 10
291.310739
 20
7.975890
 42
0.016948
  0
VERTEX
  8
0
 10
291.499026
 20
10.212286
 42
0.025386
  0
VERTEX
  8
0
 10
291.497736
 20
12.171831
 42
0.025982
  0
VERTEX
  8
0
 10
291.337563
 20
13.715802
 42
0.158834
  0
VERTEX
  8
0
 10
290.979053
 20
14.420947
 42
-0.062283
  0
VERTEX
  8
0
 10
290.271797
 20
15.330372
 42
-0.133590
  0
VERTEX
  8
0
 10
290.035788
 20
16.179904
 42
-0.223610
  0
VERTEX
  8
0
 10
290.305330
 20
16.760546
 42
-0.175830
  0
VERTEX
  8
0
 10
290.965204
 20
17.000000
 42
-0.172079
  0
VERTEX
  8
0
 10
292.434379
 20
16.478943
 42
-0.014584
  0
VERTEX
  8
0
 10
295.521185
 20
13.821417
 42
-0.013901
  0
VERTEX
  8
0
 10
298.459686
 20
10.984723
 42
-0.191929
  0
VERTEX
  8
0
 10
299.019184
 20
9.646408
 42
0.131624
  0
VERTEX
  8
0
 10
299.206437
 20
8.991461
 42
0.014502
  0
VERTEX
  8
0
 10
300.055222
 20
7.664968
 42
0.016902
  0
VERTEX
  8
0
 10
301.184751
 20
6.122361
 42
0.012910
  0
VERTEX
  8
0
 10
302.519184
 20
4.510929
 42
0.012391
  0
VERTEX
  8
0
 10
304.088344
 20
2.800138
 42
0.054570
  0
VERTEX
  8
0
 10
305.138445
 20
1.925052
 42
0.212984
  0
VERTEX
  8
0
 10
305.711476
 20
1.829041
 42
0.341717
  0
VERTEX
  8
0
 10
306.000000
 20
2.201912
 42
0.053705
  0
VERTEX
  8
0
 10
305.925836
 20
2.890400
 42
0.048994
  0
VERTEX
  8
0
 10
305.706250
 20
3.569998
 42
0.052228
  0
VERTEX
  8
0
 10
305.383142
 20
4.141195
 42
0.099847
  0
VERTEX
  8
0
 10
305.000000
 20
4.500000
 42
-0.200513
  0
VERTEX
  8
0
 10
304.180456
 20
5.644468
 42
-0.080224
  0
VERTEX
  8
0
 10
304.051708
 20
7.605435
 42
-0.074736
  0
VERTEX
  8
0
 10
304.563659
 20
9.664094
 42
-0.121883
  0
VERTEX
  8
0
 10
305.626310
 20
11.104828
 42
-0.082770
  0
VERTEX
  8
0
 10
306.517673
 20
11.624177
 42
-0.030447
  0
VERTEX
  8
0
 10
307.912788
 20
12.058066
 42
-0.029178
  0
VERTEX
  8
0
 10
309.523966
 20
12.355096
 42
-0.031003
  0
VERTEX
  8
0
 10
311.126310
 20
12.454545
 42
0.007805
  0
VERTEX
  8
0
 10
312.611583
 20
12.477732
 42
0.012954
  0
VERTEX
  8
0
 10
313.862104
 20
12.549247
 42
0.006561
  0
VERTEX
  8
0
 10
314.884297
 20
12.647841
 42
0.382557
  0
VERTEX
  8
0
 10
315.000000
 20
12.776933
 42
0.106771
  0
VERTEX
  8
0
 10
314.952142
 20
12.998491
 42
0.002956
  0
VERTEX
  8
0
 10
314.538805
 20
13.896471
 42
0.005952
  0
VERTEX
  8
0
 10
314.031577
 20
14.948661
 42
0.004036
  0
VERTEX
  8
0
 10
313.429975
 20
16.135412
 42
-0.073850
  0
VERTEX
  8
0
 10
312.551636
 20
18.701247
 42
-0.051250
  0
VERTEX
  8
0
 10
312.306380
 20
21.761326
 42
-0.051040
  0
VERTEX
  8
0
 10
312.689393
 20
24.823667
 42
-0.071066
  0
VERTEX
  8
0
 10
313.682671
 20
27.397449
 42
-0.072585
  0
VERTEX
  8
0
 10
314.310797
 20
28.214984
 42
-0.258097
  0
VERTEX
  8
0
 10
314.926002
 20
28.382331
 42
-0.115917
  0
VERTEX
  8
0
 10
315.751365
 20
27.962678
 42
-0.011556
  0
VERTEX
  8
0
 10
317.422969
 20
26.483810
 42
0.016709
  0
VERTEX
  8
0
 10
318.530754
 20
25.523916
 42
0.026981
  0
VERTEX
  8
0
 10
319.541190
 20
24.792396
 42
0.025411
  0
VERTEX
  8
0
 10
320.368969
 20
24.316384
 42
0.324870
  0
VERTEX
  8
0
 10
320.702589
 20
24.369255
 42
0.289174
  0
VERTEX
  8
0
 10
320.997600
 20
25.673752
 42
0.047610
  0
VERTEX
  8
0
 10
319.855936
 20
28.125908
 42
0.036247
  0
VERTEX
  8
0
 10
317.661484
 20
31.310638
 42
0.016899
  0
VERTEX
  8
0
 10
314.392869
 20
35.116531
 42
-0.009485
  0
VERTEX
  8
0
 10
310.407008
 20
39.620715
 42
-0.097091
  0
VERTEX
  8
0
 10
309.193180
 20
41.781209
 42
-0.701366
  0
VERTEX
  8
0
 10
309.753309
 20
42.221172
 42
-0.028997
  0
VERTEX
  8
0
 10
312.750000
 20
40.102345
 42
0.028622
  0
VERTEX
  8
0
 10
315.541238
 20
38.125647
 42
0.024571
  0
VERTEX
  8
0
 10
318.682865
 20
36.369030
 42
0.019715
  0
VERTEX
  8
0
 10
321.440706
 20
35.133220
 42
0.531030
  0
VERTEX
  8
0
 10
322.000000
 20
35.511331
 42
0.263108
  0
VERTEX
  8
0
 10
321.864240
 20
35.751464
 42
0.010265
  0
VERTEX
  8
0
 10
320.950734
 20
36.275909
 42
0.015916
  0
VERTEX
  8
0
 10
319.797011
 20
36.860219
 42
0.010298
  0
VERTEX
  8
0
 10
318.428031
 20
37.465624
 42
-0.028376
  0
VERTEX
  8
0
 10
317.062497
 20
38.129496
 42
-0.053166
  0
VERTEX
  8
0
 10
316.060964
 20
38.837696
 42
-0.078561
  0
VERTEX
  8
0
 10
315.512280
 20
39.499418
 42
-0.279197
  0
VERTEX
  8
0
 10
315.517059
 20
40.027602
 42
-0.091590
  0
VERTEX
  8
0
 10
315.887480
 20
40.436354
 42
-0.157722
  0
VERTEX
  8
0
 10
316.316567
 20
40.587662
 42
-0.128526
  0
VERTEX
  8
0
 10
316.818230
 20
40.470465
 42
-0.051939
  0
VERTEX
  8
0
 10
317.407178
 20
40.077035
 42
0.232775
  0
VERTEX
  8
0
 10
318.886277
 20
39.722404
 42
0.096559
  0
VERTEX
  8
0
 10
320.818122
 20
40.572644
 42
0.087846
  0
VERTEX
  8
0
 10
322.436104
 20
42.180851
 42
0.154509
  0
VERTEX
  8
0
 10
323.000000
 20
43.962090
 42
0.109543
  0
VERTEX
  8
0
 10
322.783620
 20
44.937888
 42
0.022539
  0
VERTEX
  8
0
 10
321.962241
 20
46.509839
 42
0.022708
  0
VERTEX
  8
0
 10
320.819595
 20
48.284776
 42
0.019656
  0
VERTEX
  8
0
 10
319.467203
 20
50.039256
 42
-0.013632
  0
VERTEX
  8
0
 10
317.079390
 20
53.061020
 42
-0.144774
  0
VERTEX
  8
0
 10
316.541566
 20
54.516622
 42
-0.564028
  0
VERTEX
  8
0
 10
317.118250
 20
54.919742
 42
-0.040776
  0
VERTEX
  8
0
 10
319.218792
 20
53.776212
 42
0.012298
  0
VERTEX
  8
0
 10
320.649349
 20
52.888377
 42
0.227063
  0
VERTEX
  8
0
 10
321.166657
 20
52.844667
 42
0.291142
  0
VERTEX
  8
0
 10
321.446447
 20
53.218955
 42
0.018826
  0
VERTEX
  8
0
 10
321.500000
 20
54.640753
 42
0.032557
  0
VERTEX
  8
0
 10
321.441092
 20
55.544497
 42
0.050084
  0
VERTEX
  8
0
 10
321.262351
 20
56.306971
 42
0.064646
  0
VERTEX
  8
0
 10
321.001669
 20
56.833840
 42
0.250613
  0
VERTEX
  8
0
 10
320.690983
 20
57.000000
 42
-0.126700
  0
VERTEX
  8
0
 10
320.425693
 20
57.068321
 42
-0.189016
  0
VERTEX
  8
0
 10
320.274416
 20
57.250474
 42
-0.147561
  0
VERTEX
  8
0
 10
320.267122
 20
57.526430
 42
-0.071872
  0
VERTEX
  8
0
 10
320.408950
 20
57.852678
 42
0.167652
  0
VERTEX
  8
0
 10
320.512272
 20
58.311787
 42
0.052159
  0
VERTEX
  8
0
 10
320.359259
 20
59.012220
 42
0.045531
  0
VERTEX
  8
0
 10
320.010617
 20
59.813723
 42
0.036674
  0
VERTEX
  8
0
 10
319.499770
 20
60.602678
 42
-0.076096
  0
VERTEX
  8
0
 10
318.321733
 20
62.779552
 42
-0.131594
  0
VERTEX
  8
0
 10
318.153350
 20
64.817215
 42
-0.135908
  0
VERTEX
  8
0
 10
319.023371
 20
66.621068
 42
-0.083717
  0
VERTEX
  8
0
 10
320.861876
 20
68.120589
 42
-0.030306
  0
VERTEX
  8
0
 10
322.288878
 20
68.821482
 42
-0.065623
  0
VERTEX
  8
0
 10
323.466274
 20
69.140885
 42
-0.082612
  0
VERTEX
  8
0
 10
324.503236
 20
69.108725
 42
-0.078750
  0
VERTEX
  8
0
 10
325.492723
 20
68.744134
 42
0.010711
  0
VERTEX
  8
0
 10
326.425803
 20
68.247896
 42
0.214252
  0
VERTEX
  8
0
 10
326.740392
 20
68.233655
 42
0.434963
  0
VERTEX
  8
0
 10
326.820113
 20
68.437165
 42
0.022928
  0
VERTEX
  8
0
 10
326.451311
 20
69.123546
 42
0.013896
  0
VERTEX
  8
0
 10
325.109961
 20
71.231569
 42
0.006592
  0
VERTEX
  8
0
 10
323.271656
 20
73.874918
 42
0.006080
  0
VERTEX
  8
0
 10
321.441004
 20
76.369918
 42
0.025600
  0
VERTEX
  8
0
 10
320.250000
 20
77.794441
 42
-0.027953
  0
VERTEX
  8
0
 10
319.262202
 20
78.987269
 42
-0.276436
  0
VERTEX
  8
0
 10
319.202112
 20
79.608954
 42
-0.158816
  0
VERTEX
  8
0
 10
319.735412
 20
80.172257
 42
-0.008752
  0
VERTEX
  8
0
 10
321.917701
 20
81.309057
 42
-0.024560
  0
VERTEX
  8
0
 10
323.388543
 20
81.954687
 42
-0.071837
  0
VERTEX
  8
0
 10
324.466567
 20
82.196987
 42
-0.105138
  0
VERTEX
  8
0
 10
325.321016
 20
82.083675
 42
-0.100396
  0
VERTEX
  8
0
 10
326.071518
 20
81.632299
 42
0.143563
  0
VERTEX
  8
0
 10
326.310769
 20
81.514829
 42
0.598489
  0
VERTEX
  8
0
 10
326.385279
 20
81.610159
 42
0.043296
  0
VERTEX
  8
0
 10
326.068605
 20
82.187445
 42
0.008813
  0
VERTEX
  8
0
 10
325.403817
 20
83.146967
 42
0.022915
  0
VERTEX
  8
0
 10
324.624990
 20
84.131337
 42
0.035680
  0
VERTEX
  8
0
 10
323.859493
 20
84.895149
 42
0.039738
  0
VERTEX
  8
0
 10
323.199997
 20
85.379575
 42
0.282043
  0
VERTEX
  8
0
 10
322.819990
 20
85.381207
 42
-0.446340
  0
VERTEX
  8
0
 10
322.567773
 20
85.457600
 42
-0.060786
  0
VERTEX
  8
0
 10
322.374622
 20
86.049035
 42
-0.038443
  0
VERTEX
  8
0
 10
322.261315
 20
87.009834
 42
-0.019225
  0
VERTEX
  8
0
 10
322.258751
 20
88.234239
 42
0.024568
  0
VERTEX
  8
0
 10
322.240977
 20
89.625619
 42
0.020109
  0
VERTEX
  8
0
 10
322.089311
 20
91.105743
 42
0.020565
  0
VERTEX
  8
0
 10
321.838484
 20
92.457665
 42
0.049258
  0
VERTEX
  8
0
 10
321.515152
 20
93.423609
 42
-0.019044
  0
VERTEX
  8
0
 10
321.089550
 20
94.478862
 42
-0.275248
  0
VERTEX
  8
0
 10
321.163441
 20
94.859149
 42
-0.289254
  0
VERTEX
  8
0
 10
321.527299
 20
94.963208
 42
-0.020458
  0
VERTEX
  8
0
 10
322.574704
 20
94.609707
 42
0.049781
  0
VERTEX
  8
0
 10
323.396971
 20
94.384856
 42
0.570486
  0
VERTEX
  8
0
 10
323.571488
 20
94.591474
 42
0.098546
  0
VERTEX
  8
0
 10
323.216083
 20
95.195341
 42
0.006557
  0
VERTEX
  8
0
 10
321.850708
 20
96.686098
 42
-0.044136
  0
VERTEX
  8
0
 10
318.842487
 20
100.511148
 42
-0.035932
  0
VERTEX
  8
0
 10
316.313618
 20
105.070842
 42
-0.038940
  0
VERTEX
  8
0
 10
314.871917
 20
108.939667
 42
-0.498460
  0
VERTEX
  8
0
 10
315.671259
 20
110.000000
 42
-0.127166
  0
VERTEX
  8
0
 10
316.037166
 20
109.905409
 42
-0.019706
  0
VERTEX
  8
0
 10
316.682529
 20
109.513847
 42
-0.020890
  0
VERTEX
  8
0
 10
317.421886
 20
108.978685
 42
-0.016815
  0
VERTEX
  8
0
 10
318.171259
 20
108.345012
 42
0.057827
  0
VERTEX
  8
0
 10
319.584073
 20
107.336309
 42
0.777349
  0
VERTEX
  8
0
 10
319.834563
 20
107.603173
 42
0.040273
  0
VERTEX
  8
0
 10
318.182559
 20
109.783977
 42
0.011161
  0
VERTEX
  8
0
 10
315.250000
 20
112.924794
 42
-0.016076
  0
VERTEX
  8
0
 10
313.155865
 20
115.212305
 42
-0.035748
  0
VERTEX
  8
0
 10
311.750559
 20
117.108953
 42
-0.048198
  0
VERTEX
  8
0
 10
310.956316
 20
118.672949
 42
-0.131810
  0
VERTEX
  8
0
 10
310.819551
 20
119.894875
 42
-0.166759
  0
VERTEX
  8
0
 10
311.739363
 20
121.656834
 42
-0.303322
  0
VERTEX
  8
0
 10
313.274716
 20
121.920692
 42
-0.119410
  0
VERTEX
  8
0
 10
315.417479
 20
120.269649
 42
-0.032650
  0
VERTEX
  8
0
 10
317.884346
 20
116.750000
 42
0.017994
  0
VERTEX
  8
0
 10
319.596184
 20
114.148696
 42
0.131988
  0
VERTEX
  8
0
 10
320.734405
 20
113.208659
 42
0.347519
  0
VERTEX
  8
0
 10
321.593599
 20
113.419882
 42
0.095497
  0
VERTEX
  8
0
 10
322.269915
 20
114.750000
 42
-0.008968
  0
VERTEX
  8
0
 10
322.514475
 20
115.546482
 42
-0.005119
  0
VERTEX
  8
0
 10
322.836914
 20
116.500000
 42
-0.005111
  0
VERTEX
  8
0
 10
323.181108
 20
117.453134
 42
-0.008443
  0
VERTEX
  8
0
 10
323.493535
 20
118.250000
 42
0.047561
  0
VERTEX
  8
0
 10
323.740046
 20
119.059831
 42
0.168917
  0
VERTEX
  8
0
 10
323.668469
 20
119.589831
 42
0.205299
  0
VERTEX
  8
0
 10
323.300194
 20
119.898087
 42
0.073116
  0
VERTEX
  8
0
 10
322.606989
 20
120.000000
 42
-0.092220
  0
VERTEX
  8
0
 10
321.993529
 20
120.114117
 42
-0.096079
  0
VERTEX
  8
0
 10
321.472053
 20
120.440625
 42
-0.099375
  0
VERTEX
  8
0
 10
321.123068
 20
120.927688
 42
-0.106303
  0
VERTEX
  8
0
 10
321.000000
 20
121.500000
 42
-0.306889
  0
VERTEX
  8
0
 10
321.729402
 20
122.576458
 42
-0.096299
  0
VERTEX
  8
0
 10
323.742840
 20
122.958947
 42
-0.073610
  0
VERTEX
  8
0
 10
326.284150
 20
122.571672
 42
-0.087567
  0
VERTEX
  8
0
 10
328.441130
 20
121.468197
 42
0.032624
  0
VERTEX
  8
0
 10
329.294490
 20
120.906248
 42
0.028467
  0
VERTEX
  8
0
 10
330.252677
 20
120.431283
 42
0.029523
  0
VERTEX
  8
0
 10
331.170616
 20
120.102180
 42
0.071426
  0
VERTEX
  8
0
 10
331.882259
 20
120.000000
 42
0.048757
  0
VERTEX
  8
0
 10
332.539067
 20
120.064201
 42
0.431995
  0
VERTEX
  8
0
 10
332.677503
 20
120.284834
 42
0.159453
  0
VERTEX
  8
0
 10
332.442661
 20
120.650058
 42
0.012935
  0
VERTEX
  8
0
 10
331.528650
 20
121.355392
 42
-0.059389
  0
VERTEX
  8
0
 10
330.809277
 20
122.025572
 42
-0.078960
  0
VERTEX
  8
0
 10
330.346923
 20
122.788991
 42
-0.088566
  0
VERTEX
  8
0
 10
330.176868
 20
123.585712
 42
-0.100341
  0
VERTEX
  8
0
 10
330.306135
 20
124.355392
 42
-0.236230
  0
VERTEX
  8
0
 10
331.762406
 20
125.686258
 42
-0.075089
  0
VERTEX
  8
0
 10
334.764133
 20
126.068267
 42
-0.072112
  0
VERTEX
  8
0
 10
337.878541
 20
125.542347
 42
-0.177140
  0
VERTEX
  8
0
 10
339.682526
 20
124.136748
 42
0.058509
  0
VERTEX
  8
0
 10
340.287212
 20
123.381497
 42
0.037450
  0
VERTEX
  8
0
 10
341.144904
 20
122.653313
 42
0.037333
  0
VERTEX
  8
0
 10
342.106676
 20
122.057782
 42
0.056061
  0
VERTEX
  8
0
 10
343.026814
 20
121.703239
 42
0.039122
  0
VERTEX
  8
0
 10
344.243315
 20
121.484920
 42
0.269880
  0
VERTEX
  8
0
 10
344.773910
 20
121.726870
 42
0.175550
  0
VERTEX
  8
0
 10
344.961235
 20
122.408472
 42
0.016596
  0
VERTEX
  8
0
 10
344.763528
 20
124.157824
 42
-0.033195
  0
VERTEX
  8
0
 10
344.639936
 20
125.711881
 42
-0.104171
  0
VERTEX
  8
0
 10
344.841365
 20
126.733891
 42
-0.130439
  0
VERTEX
  8
0
 10
345.403409
 20
127.455685
 42
-0.066470
  0
VERTEX
  8
0
 10
346.409788
 20
128.027947
 42
0.006363
  0
VERTEX
  8
0
 10
347.551956
 20
128.506840
 42
0.203439
  0
VERTEX
  8
0
 10
347.756086
 20
128.721761
 42
0.494330
  0
VERTEX
  8
0
 10
347.658125
 20
128.878028
 42
0.014110
  0
VERTEX
  8
0
 10
346.750000
 20
128.936614
 42
-0.008865
  0
VERTEX
  8
0
 10
344.867904
 20
129.038223
 42
-0.052124
  0
VERTEX
  8
0
 10
343.895369
 20
129.210996
 42
-0.074466
  0
VERTEX
  8
0
 10
343.138201
 20
129.556993
 42
-0.028868
  0
VERTEX
  8
0
 10
342.207618
 20
130.242655
 42
-0.062811
  0
VERTEX
  8
0
 10
341.726036
 20
130.756896
 42
-0.115420
  0
VERTEX
  8
0
 10
341.505223
 20
131.283073
 42
-0.135559
  0
VERTEX
  8
0
 10
341.557469
 20
131.793691
 42
-0.103861
  0
VERTEX
  8
0
 10
341.865554
 20
132.265554
 42
-0.237159
  0
VERTEX
  8
0
 10
343.294977
 20
132.738751
 42
-0.037963
  0
VERTEX
  8
0
 10
346.253221
 20
132.071272
 42
-0.040919
  0
VERTEX
  8
0
 10
349.230734
 20
130.883399
 42
-0.104549
  0
VERTEX
  8
0
 10
351.042453
 20
129.448848
 42
0.070827
  0
VERTEX
  8
0
 10
351.654181
 20
128.894026
 42
0.044601
  0
VERTEX
  8
0
 10
352.499350
 20
128.425599
 42
0.043969
  0
VERTEX
  8
0
 10
353.433282
 20
128.106675
 42
0.060370
  0
VERTEX
  8
0
 10
354.313574
 20
128.000000
 42
0.010846
  0
VERTEX
  8
0
 10
355.532988
 20
128.026454
 42
0.304391
  0
VERTEX
  8
0
 10
355.776237
 20
128.205434
 42
0.313126
  0
VERTEX
  8
0
 10
355.699224
 20
128.493287
 42
0.011230
  0
VERTEX
  8
0
 10
354.763484
 20
129.250000
 42
-0.190089
  0
VERTEX
  8
0
 10
353.503249
 20
131.364117
 42
-0.049321
  0
VERTEX
  8
0
 10
353.247909
 20
135.392914
 42
-0.049270
  0
VERTEX
  8
0
 10
353.784604
 20
139.382315
 42
-0.196590
  0
VERTEX
  8
0
 10
355.190381
 20
141.349705
 42
-0.138488
  0
VERTEX
  8
0
 10
356.307228
 20
141.679249
 42
-0.092570
  0
VERTEX
  8
0
 10
357.628227
 20
141.448525
 42
-0.049812
  0
VERTEX
  8
0
 10
359.434887
 20
140.559999
 42
-0.011627
  0
VERTEX
  8
0
 10
362.263566
 20
138.707279
 42
0.016098
  0
VERTEX
  8
0
 10
364.465695
 20
137.292904
 42
0.019190
  0
VERTEX
  8
0
 10
366.631173
 20
136.108894
 42
0.018281
  0
VERTEX
  8
0
 10
368.509597
 20
135.257792
 42
0.106393
  0
VERTEX
  8
0
 10
369.573185
 20
135.067680
 42
0.012182
  0
VERTEX
  8
0
 10
370.671232
 20
135.133062
 42
0.479558
  0
VERTEX
  8
0
 10
370.790165
 20
135.309681
 42
0.202605
  0
VERTEX
  8
0
 10
370.576429
 20
135.562677
 42
0.005169
  0
VERTEX
  8
0
 10
369.208720
 20
136.238914
 42
-0.044702
  0
VERTEX
  8
0
 10
368.227815
 20
136.824486
 42
-0.101326
  0
VERTEX
  8
0
 10
367.647003
 20
137.458922
 42
-0.132209
  0
VERTEX
  8
0
 10
367.449472
 20
138.155172
 42
-0.106238
  0
VERTEX
  8
0
 10
367.603272
 20
138.921234
 42
0.053644
  0
VERTEX
  8
0
 10
368.070056
 20
140.416293
 42
0.053982
  0
VERTEX
  8
0
 10
368.206765
 20
141.973228
 42
0.046139
  0
VERTEX
  8
0
 10
368.009001
 20
143.723832
 42
0.025262
  0
VERTEX
  8
0
 10
367.463462
 20
145.814768
 42
-0.062520
  0
VERTEX
  8
0
 10
367.214667
 20
147.175412
 42
-0.346811
  0
VERTEX
  8
0
 10
367.613245
 20
147.743647
 42
-0.096936
  0
VERTEX
  8
0
 10
368.795016
 20
147.860045
 42
-0.004392
  0
VERTEX
  8
0
 10
372.866431
 20
147.435602
 42
0.010349
  0
VERTEX
  8
0
 10
375.699451
 20
147.174338
 42
0.035541
  0
VERTEX
  8
0
 10
377.545653
 20
147.173948
 42
0.062310
  0
VERTEX
  8
0
 10
378.655188
 20
147.393437
 42
0.323373
  0
VERTEX
  8
0
 10
379.000000
 20
147.870834
 42
0.141788
  0
VERTEX
  8
0
 10
378.875388
 20
148.301429
 42
0.099754
  0
VERTEX
  8
0
 10
378.525115
 20
148.668307
 42
0.084632
  0
VERTEX
  8
0
 10
378.001293
 20
148.915448
 42
0.068099
  0
VERTEX
  8
0
 10
377.383369
 20
149.000000
 42
-0.089952
  0
VERTEX
  8
0
 10
376.663717
 20
149.130525
 42
-0.199763
  0
VERTEX
  8
0
 10
376.264620
 20
149.504700
 42
-0.136451
  0
VERTEX
  8
0
 10
376.162127
 20
150.173554
 42
-0.035681
  0
VERTEX
  8
0
 10
376.369714
 20
151.250000
 42
0.025903
  0
VERTEX
  8
0
 10
376.602388
 20
152.341410
 42
0.011650
  0
VERTEX
  8
0
 10
376.799577
 20
153.793750
 42
0.011498
  0
VERTEX
  8
0
 10
376.937111
 20
155.341055
 42
0.015365
  0
VERTEX
  8
0
 10
376.986345
 20
156.750000
 42
-0.066329
  0
VERTEX
  8
0
 10
377.294636
 20
158.991746
 42
-0.270054
  0
VERTEX
  8
0
 10
378.240463
 20
159.916516
 42
-0.224305
  0
VERTEX
  8
0
 10
379.676926
 20
159.633266
 42
-0.049851
  0
VERTEX
  8
0
 10
381.583824
 20
157.907376
 42
0.040373
  0
VERTEX
  8
0
 10
383.943230
 20
155.689310
 42
0.099010
  0
VERTEX
  8
0
 10
386.049833
 20
154.602073
 42
0.098571
  0
VERTEX
  8
0
 10
388.418478
 20
154.406054
 42
0.039784
  0
VERTEX
  8
0
 10
391.616267
 20
155.032553
 42
0.017274
  0
VERTEX
  8
0
 10
394.783137
 20
156.038396
 42
0.184834
  0
VERTEX
  8
0
 10
395.790023
 20
156.899692
 42
0.434382
  0
VERTEX
  8
0
 10
395.524504
 20
157.695717
 42
0.045872
  0
VERTEX
  8
0
 10
393.457180
 20
158.421391
 42
-0.043738
  0
VERTEX
  8
0
 10
392.443311
 20
158.772438
 42
-0.042841
  0
VERTEX
  8
0
 10
391.498486
 20
159.296447
 42
-0.046170
  0
VERTEX
  8
0
 10
390.753240
 20
159.904393
 42
-0.107368
  0
VERTEX
  8
0
 10
390.360053
 20
160.504100
 42
-0.185464
  0
VERTEX
  8
0
 10
390.360478
 20
161.704215
 42
-0.063090
  0
VERTEX
  8
0
 10
391.200198
 20
163.266735
 42
-0.062911
  0
VERTEX
  8
0
 10
392.409418
 20
164.578357
 42
-0.176897
  0
VERTEX
  8
0
 10
393.563901
 20
165.000000
 42
0.157687
  0
VERTEX
  8
0
 10
393.959351
 20
165.127895
 42
0.016321
  0
VERTEX
  8
0
 10
394.743644
 20
165.734375
 42
0.019025
  0
VERTEX
  8
0
 10
395.648624
 20
166.542499
 42
0.014106
  0
VERTEX
  8
0
 10
396.587580
 20
167.500000
 42
-0.041299
  0
VERTEX
  8
0
 10
397.633519
 20
168.456639
 42
-0.037232
  0
VERTEX
  8
0
 10
398.857975
 20
169.265625
 42
-0.039229
  0
VERTEX
  8
0
 10
400.070489
 20
169.823185
 42
-0.088376
  0
VERTEX
  8
0
 10
401.063035
 20
170.000000
 42
0.000000
  0
VERTEX
  8
0
 10
403.221568
 20
170.000000
 42
0.000000
  0
VERTEX
  8
0
 10
401.081337
 20
171.750000
 42
-0.094549
  0
VERTEX
  8
0
 10
399.606596
 20
173.512155
 42
-0.058073
  0
VERTEX
  8
0
 10
398.568465
 20
176.021362
 42
-0.058499
  0
VERTEX
  8
0
 10
398.142114
 20
178.673302
 42
-0.102595
  0
VERTEX
  8
0
 10
398.499022
 20
180.858046
 42
-0.123248
  0
VERTEX
  8
0
 10
398.897144
 20
181.425656
 42
-0.314947
  0
VERTEX
  8
0
 10
399.371226
 20
181.474970
 42
-0.106795
  0
VERTEX
  8
0
 10
400.008869
 20
180.916432
 42
-0.014520
  0
VERTEX
  8
0
 10
401.030622
 20
179.453319
 42
0.042702
  0
VERTEX
  8
0
 10
402.631505
 20
177.415658
 42
0.152821
  0
VERTEX
  8
0
 10
404.055020
 20
176.607738
 42
0.123672
  0
VERTEX
  8
0
 10
405.867439
 20
176.667879
 42
0.023866
  0
VERTEX
  8
0
 10
409.000000
 20
177.730329
 42
-0.003506
  0
VERTEX
  8
0
 10
410.359484
 20
178.254029
 42
-0.005374
  0
VERTEX
  8
0
 10
411.545313
 20
178.686809
 42
-0.002054
  0
VERTEX
  8
0
 10
412.566385
 20
179.042361
 42
-0.136215
  0
VERTEX
  8
0
 10
412.750000
 20
179.053430
 42
0.056728
  0
VERTEX
  8
0
 10
414.019488
 20
178.929624
 42
0.563800
  0
VERTEX
  8
0
 10
414.237507
 20
179.303498
 42
0.124817
  0
VERTEX
  8
0
 10
413.527343
 20
180.070132
 42
0.014982
  0
VERTEX
  8
0
 10
411.538958
 20
181.276413
 42
-0.069284
  0
VERTEX
  8
0
 10
408.931274
 20
183.274012
 42
-0.082276
  0
VERTEX
  8
0
 10
407.144728
 20
185.805416
 42
-0.073397
  0
VERTEX
  8
0
 10
406.138224
 20
189.015198
 42
-0.042969
  0
VERTEX
  8
0
 10
405.850068
 20
193.041461
 42
0.045774
  0
VERTEX
  8
0
 10
405.758671
 20
194.225378
 42
0.112587
  0
VERTEX
  8
0
 10
405.426770
 20
195.026522
 42
0.137075
  0
VERTEX
  8
0
 10
404.830051
 20
195.510406
 42
0.083624
  0
VERTEX
  8
0
 10
403.943381
 20
195.729312
 42
0.070209
  0
VERTEX
  8
0
 10
403.174873
 20
195.679286
 42
0.100868
  0
VERTEX
  8
0
 10
402.550125
 20
195.410535
 42
0.117995
  0
VERTEX
  8
0
 10
402.145801
 20
194.957450
 42
0.124052
  0
VERTEX
  8
0
 10
402.000000
 20
194.378834
 42
0.060080
  0
VERTEX
  8
0
 10
402.064365
 20
193.845101
 42
0.128493
  0
VERTEX
  8
0
 10
402.260354
 20
193.482578
 42
0.191432
  0
VERTEX
  8
0
 10
402.550283
 20
193.345622
 42
0.155381
  0
VERTEX
  8
0
 10
402.886310
 20
193.429736
 42
-0.239472
  0
VERTEX
  8
0
 10
403.269332
 20
193.461786
 42
-0.115650
  0
VERTEX
  8
0
 10
403.681493
 20
193.169474
 42
-0.074739
  0
VERTEX
  8
0
 10
404.063694
 20
192.578967
 42
-0.042389
  0
VERTEX
  8
0
 10
404.348710
 20
191.774532
 42
-0.187576
  0
VERTEX
  8
0
 10
404.091396
 20
189.548162
 42
-0.315216
  0
VERTEX
  8
0
 10
402.487322
 20
188.724909
 42
-0.159934
  0
VERTEX
  8
0
 10
400.029246
 20
189.923603
 42
-0.093361
  0
VERTEX
  8
0
 10
398.122739
 20
192.629962
 42
-0.028168
  0
VERTEX
  8
0
 10
397.702215
 20
193.710303
 42
-0.095703
  0
VERTEX
  8
0
 10
397.609113
 20
194.456905
 42
-0.160559
  0
VERTEX
  8
0
 10
397.815517
 20
194.966022
 42
-0.130145
  0
VERTEX
  8
0
 10
398.301575
 20
195.304578
 42
0.432329
  0
VERTEX
  8
0
 10
398.410457
 20
195.558480
 42
0.156558
  0
VERTEX
  8
0
 10
398.119838
 20
195.888762
 42
0.050354
  0
VERTEX
  8
0
 10
397.265578
 20
196.288820
 42
0.018853
  0
VERTEX
  8
0
 10
396.000000
 20
196.679826
 42
-0.082369
  0
VERTEX
  8
0
 10
393.602594
 20
197.768658
 42
-0.153496
  0
VERTEX
  8
0
 10
392.281269
 20
199.417751
 42
-0.187114
  0
VERTEX
  8
0
 10
392.279526
 20
201.285303
 42
-0.127955
  0
VERTEX
  8
0
 10
393.531910
 20
203.026483
 42
-0.064191
  0
VERTEX
  8
0
 10
394.487551
 20
203.631654
 42
-0.097225
  0
VERTEX
  8
0
 10
395.439993
 20
203.867231
 42
-0.075937
  0
VERTEX
  8
0
 10
396.576557
 20
203.749808
 42
-0.026604
  0
VERTEX
  8
0
 10
398.145845
 20
203.251051
 42
0.015606
  0
VERTEX
  8
0
 10
399.929075
 20
202.640820
 42
0.626686
  0
VERTEX
  8
0
 10
400.146521
 20
202.874381
 42
0.098141
  0
VERTEX
  8
0
 10
399.702716
 20
203.573536
 42
0.002117
  0
VERTEX
  8
0
 10
396.882792
 20
206.508061
 42
0.012127
  0
VERTEX
  8
0
 10
395.204636
 20
208.157682
 42
0.019166
  0
VERTEX
  8
0
 10
393.680158
 20
209.479304
 42
0.013886
  0
VERTEX
  8
0
 10
392.396004
 20
210.451770
 42
0.302214
  0
VERTEX
  8
0
 10
391.946276
 20
210.466797
 42
0.141738
  0
VERTEX
  8
0
 10
391.645111
 20
210.134052
 42
0.022369
  0
VERTEX
  8
0
 10
391.290356
 20
209.316245
 42
0.023310
  0
VERTEX
  8
0
 10
390.951460
 20
208.286520
 42
0.018487
  0
VERTEX
  8
0
 10
390.679417
 20
207.147083
 42
-0.069761
  0
VERTEX
  8
0
 10
389.912877
 20
204.957093
 42
-0.180655
  0
VERTEX
  8
0
 10
388.693839
 20
203.849907
 42
-0.150898
  0
VERTEX
  8
0
 10
386.880051
 20
203.703834
 42
-0.044743
  0
VERTEX
  8
0
 10
384.197631
 20
204.558949
 42
-0.041221
  0
VERTEX
  8
0
 10
382.108343
 20
205.647772
 42
-0.137751
  0
VERTEX
  8
0
 10
381.082570
 20
206.784346
 42
-0.502762
  0
VERTEX
  8
0
 10
381.396059
 20
207.399529
 42
-0.106292
  0
VERTEX
  8
0
 10
382.819857
 20
207.336858
 42
0.149849
  0
VERTEX
  8
0
 10
384.454334
 20
207.405064
 42
0.142004
  0
VERTEX
  8
0
 10
385.810397
 20
208.375860
 42
0.120667
  0
VERTEX
  8
0
 10
386.583406
 20
210.073952
 42
0.092641
  0
VERTEX
  8
0
 10
386.588029
 20
212.118993
 42
-0.005343
  0
VERTEX
  8
0
 10
386.414355
 20
213.119889
 42
-0.004833
  0
VERTEX
  8
0
 10
386.255868
 20
214.158301
 42
-0.004844
  0
VERTEX
  8
0
 10
386.131934
 20
215.091009
 42
-0.015368
  0
VERTEX
  8
0
 10
386.074310
 20
215.717776
 42
0.153877
  0
VERTEX
  8
0
 10
385.890084
 20
216.198009
 42
0.187426
  0
VERTEX
  8
0
 10
385.477087
 20
216.439203
 42
0.100755
  0
VERTEX
  8
0
 10
384.781509
 20
216.409410
 42
0.029146
  0
VERTEX
  8
0
 10
383.750000
 20
216.088164
 42
-0.063130
  0
VERTEX
  8
0
 10
382.589539
 20
215.811432
 42
-0.056615
  0
VERTEX
  8
0
 10
381.351887
 20
215.817754
 42
-0.051370
  0
VERTEX
  8
0
 10
380.040223
 20
216.112262
 42
-0.037282
  0
VERTEX
  8
0
 10
378.659743
 20
216.692742
 42
0.050350
  0
VERTEX
  8
0
 10
376.234531
 20
217.638865
 42
0.172084
  0
VERTEX
  8
0
 10
374.570514
 20
217.523055
 42
0.184018
  0
VERTEX
  8
0
 10
373.420664
 20
216.398495
 42
0.058857
  0
VERTEX
  8
0
 10
372.667190
 20
214.085948
 42
-0.039345
  0
VERTEX
  8
0
 10
372.009008
 20
211.762500
 42
-0.305975
  0
VERTEX
  8
0
 10
371.139667
 20
211.138922
 42
-0.273850
  0
VERTEX
  8
0
 10
370.147341
 20
211.689060
 42
-0.034337
  0
VERTEX
  8
0
 10
369.007439
 20
213.982040
 42
-0.051993
  0
VERTEX
  8
0
 10
368.252188
 20
216.523997
 42
-0.145284
  0
VERTEX
  8
0
 10
368.442603
 20
218.354776
 42
-0.142756
  0
VERTEX
  8
0
 10
369.605248
 20
219.804987
 42
-0.049551
  0
VERTEX
  8
0
 10
371.964865
 20
221.132297
 42
0.000000
  0
VERTEX
  8
0
 10
375.082833
 20
222.500000
 42
0.000000
  0
VERTEX
  8
0
 10
370.291416
 20
223.339109
 42
0.011905
  0
VERTEX
  8
0
 10
368.141641
 20
223.663050
 42
0.007643
  0
VERTEX
  8
0
 10
365.634097
 20
223.941180
 42
0.007681
  0
VERTEX
  8
0
 10
363.169548
 20
224.138317
 42
0.014260
  0
VERTEX
  8
0
 10
361.165083
 20
224.210387
 42
-0.012937
  0
VERTEX
  8
0
 10
358.815481
 20
224.288641
 42
-0.093306
  0
VERTEX
  8
0
 10
357.721609
 20
224.562411
 42
-0.230931
  0
VERTEX
  8
0
 10
357.277596
 20
225.105256
 42
-0.122471
  0
VERTEX
  8
0
 10
357.288312
 20
225.994507
 42
0.050686
  0
VERTEX
  8
0
 10
357.418121
 20
226.828031
 42
0.236443
  0
VERTEX
  8
0
 10
357.229530
 20
227.260581
 42
0.202780
  0
VERTEX
  8
0
 10
356.741320
 20
227.409014
 42
0.037718
  0
VERTEX
  8
0
 10
355.798825
 20
227.237141
 42
-0.145131
  0
VERTEX
  8
0
 10
353.534286
 20
227.310700
 42
-0.020268
  0
VERTEX
  8
0
 10
349.100088
 20
228.986082
 42
-0.016137
  0
VERTEX
  8
0
 10
344.776502
 20
230.990217
 42
-0.283356
  0
VERTEX
  8
0
 10
344.000000
 20
232.250393
 42
-0.328317
  0
VERTEX
  8
0
 10
344.222677
 20
232.552957
 42
-0.059261
  0
VERTEX
  8
0
 10
344.952626
 20
232.688423
 42
-0.043876
  0
VERTEX
  8
0
 10
346.001285
 20
232.664735
 42
-0.025221
  0
VERTEX
  8
0
 10
347.250000
 20
232.462304
 42
0.000000
  0
VERTEX
  8
0
 10
350.500000
 20
231.765697
 42
0.000000
  0
VERTEX
  8
0
 10
347.679212
 20
234.011111
 42
0.025125
  0
VERTEX
  8
0
 10
346.086457
 20
235.153183
 42
0.089639
  0
VERTEX
  8
0
 10
344.932486
 20
235.631625
 42
0.111004
  0
VERTEX
  8
0
 10
343.822306
 20
235.623997
 42
0.049930
  0
VERTEX
  8
0
 10
342.434644
 20
235.152176
 42
-0.090103
  0
VERTEX
  8
0
 10
340.327239
 20
234.618989
 42
-0.036699
  0
VERTEX
  8
0
 10
337.358929
 20
234.634656
 42
-0.031978
  0
VERTEX
  8
0
 10
334.643615
 20
235.024443
 42
-0.354942
  0
VERTEX
  8
0
 10
334.000000
 20
235.816867
 42
-0.184157
  0
VERTEX
  8
0
 10
334.133877
 20
236.168026
 42
-0.005631
  0
VERTEX
  8
0
 10
335.199632
 20
237.335856
 42
-0.010404
  0
VERTEX
  8
0
 10
336.518884
 20
238.691483
 42
-0.006928
  0
VERTEX
  8
0
 10
338.083853
 20
240.191867
 42
0.016081
  0
VERTEX
  8
0
 10
339.580376
 20
241.680143
 42
0.038253
  0
VERTEX
  8
0
 10
340.565832
 20
242.899935
 42
0.081730
  0
VERTEX
  8
0
 10
340.938795
 20
243.692230
 42
0.497837
  0
VERTEX
  8
0
 10
340.706298
 20
244.000000
 42
0.077199
  0
VERTEX
  8
0
 10
340.063554
 20
243.900167
 42
0.044432
  0
VERTEX
  8
0
 10
339.339335
 20
243.596539
 42
0.043139
  0
VERTEX
  8
0
 10
338.649035
 20
243.152109
 42
0.055013
  0
VERTEX
  8
0
 10
338.104999
 20
242.626516
 42
-0.112378
  0
VERTEX
  8
0
 10
337.359331
 20
242.054634
 42
-0.026191
  0
VERTEX
  8
0
 10
335.883963
 20
241.468656
 42
-0.025724
  0
VERTEX
  8
0
 10
334.073672
 20
240.959328
 42
-0.022739
  0
VERTEX
  8
0
 10
332.144721
 20
240.613586
 42
0.028226
  0
VERTEX
  8
0
 10
329.861011
 20
240.178355
 42
0.041802
  0
VERTEX
  8
0
 10
327.932813
 20
239.521529
 42
0.047006
  0
VERTEX
  8
0
 10
326.321173
 20
238.628885
 42
0.054267
  0
VERTEX
  8
0
 10
324.987852
 20
237.487069
 42
-0.019257
  0
VERTEX
  8
0
 10
322.928126
 20
235.457194
 42
-0.212709
  0
VERTEX
  8
0
 10
321.855457
 20
235.101224
 42
-0.482359
  0
VERTEX
  8
0
 10
321.473530
 20
235.692943
 42
-0.035253
  0
VERTEX
  8
0
 10
322.333980
 20
237.750000
 42
0.025451
  0
VERTEX
  8
0
 10
323.764702
 20
240.990611
 42
0.057543
  0
VERTEX
  8
0
 10
324.427008
 20
243.585377
 42
0.092699
  0
VERTEX
  8
0
 10
324.335843
 20
245.410167
 42
0.247263
  0
VERTEX
  8
0
 10
323.503078
 20
246.360445
 42
0.131890
  0
VERTEX
  8
0
 10
322.808996
 20
246.432990
 42
0.161746
  0
VERTEX
  8
0
 10
322.233396
 20
246.134173
 42
0.103038
  0
VERTEX
  8
0
 10
321.773376
 20
245.409942
 42
0.035493
  0
VERTEX
  8
0
 10
321.417248
 20
244.214704
 42
-0.007935
  0
VERTEX
  8
0
 10
320.555439
 20
240.607116
 42
-0.063495
  0
VERTEX
  8
0
 10
319.927090
 20
239.020973
 42
-0.152165
  0
VERTEX
  8
0
 10
319.147333
 20
238.272725
 42
-0.116211
  0
VERTEX
  8
0
 10
317.989773
 20
238.000000
 42
-0.072142
  0
VERTEX
  8
0
 10
317.019357
 20
238.140747
 42
-0.019589
  0
VERTEX
  8
0
 10
315.546881
 20
238.640572
 42
-0.019397
  0
VERTEX
  8
0
 10
313.902353
 20
239.345976
 42
-0.019046
  0
VERTEX
  8
0
 10
312.307160
 20
240.180669
 42
-0.001782
  0
VERTEX
  8
0
 10
309.121004
 20
242.020750
 42
-0.038005
  0
VERTEX
  8
0
 10
308.224185
 20
242.638606
 42
-0.213609
  0
VERTEX
  8
0
 10
308.007163
 20
243.065143
 42
-0.211881
  0
VERTEX
  8
0
 10
308.179793
 20
243.513127
 42
-0.239509
  0
VERTEX
  8
0
 10
308.563293
 20
243.638191
 42
-0.020599
  0
VERTEX
  8
0
 10
309.605981
 20
243.431041
 42
-0.023630
  0
VERTEX
  8
0
 10
310.889563
 20
243.055598
 42
-0.015994
  0
VERTEX
  8
0
 10
312.314341
 20
242.513127
 42
0.005016
  0
VERTEX
  8
0
 10
313.741682
 20
241.933495
 42
0.006947
  0
VERTEX
  8
0
 10
315.033714
 20
241.444481
 42
0.004548
  0
VERTEX
  8
0
 10
316.123713
 20
241.060340
 42
0.082621
  0
VERTEX
  8
0
 10
316.486379
 20
241.000000
 42
0.388647
  0
VERTEX
  8
0
 10
316.696469
 20
241.192356
 42
0.009307
  0
VERTEX
  8
0
 10
316.796381
 20
242.628483
 42
0.015513
  0
VERTEX
  8
0
 10
316.831858
 20
244.418106
 42
0.009298
  0
VERTEX
  8
0
 10
316.768498
 20
246.543772
 42
0.009509
  0
VERTEX
  8
0
 10
316.561904
 20
249.603741
 42
0.072798
  0
VERTEX
  8
0
 10
316.231879
 20
251.002086
 42
0.206933
  0
VERTEX
  8
0
 10
315.653315
 20
251.580863
 42
0.158622
  0
VERTEX
  8
0
 10
314.750996
 20
251.637652
 42
-0.113554
  0
VERTEX
  8
0
 10
313.160834
 20
251.596887
 42
-0.333837
  0
VERTEX
  8
0
 10
312.477469
 20
252.366855
 42
-0.158655
  0
VERTEX
  8
0
 10
312.841512
 20
253.899416
 42
-0.037918
  0
VERTEX
  8
0
 10
314.390533
 20
256.052276
 42
-0.013167
  0
VERTEX
  8
0
 10
315.418497
 20
257.210606
 42
-0.017760
  0
VERTEX
  8
0
 10
316.411495
 20
258.199063
 42
-0.014905
  0
VERTEX
  8
0
 10
317.276094
 20
258.953987
 42
-0.151550
  0
VERTEX
  8
0
 10
317.712202
 20
259.131805
 42
0.122532
  0
VERTEX
  8
0
 10
317.992826
 20
259.227988
 42
0.123046
  0
VERTEX
  8
0
 10
318.195147
 20
259.444343
 42
0.110466
  0
VERTEX
  8
0
 10
318.285704
 20
259.751174
 42
0.084675
  0
VERTEX
  8
0
 10
318.250000
 20
260.100000
 42
-0.174153
  0
VERTEX
  8
0
 10
318.275325
 20
260.442061
 42
-0.132778
  0
VERTEX
  8
0
 10
318.514063
 20
260.735625
 42
-0.096791
  0
VERTEX
  8
0
 10
318.944469
 20
260.933561
 42
-0.059585
  0
VERTEX
  8
0
 10
319.500000
 20
261.000000
 42
0.066148
  0
VERTEX
  8
0
 10
320.073411
 20
261.076193
 42
0.083326
  0
VERTEX
  8
0
 10
320.559375
 20
261.299347
 42
0.099274
  0
VERTEX
  8
0
 10
320.884403
 20
261.630440
 42
0.145579
  0
VERTEX
  8
0
 10
321.000000
 20
262.019052
 42
0.247542
  0
VERTEX
  8
0
 10
320.817099
 20
262.365849
 42
0.105537
  0
VERTEX
  8
0
 10
320.317033
 20
262.571314
 42
0.068515
  0
VERTEX
  8
0
 10
319.558550
 20
262.603748
 42
0.037974
  0
VERTEX
  8
0
 10
318.643756
 20
262.446724
 42
-0.059989
  0
VERTEX
  8
0
 10
317.528051
 20
262.305318
 42
-0.068002
  0
VERTEX
  8
0
 10
316.459133
 20
262.444586
 42
-0.068406
  0
VERTEX
  8
0
 10
315.471903
 20
262.864257
 42
-0.061790
  0
VERTEX
  8
0
 10
314.596137
 20
263.546720
 42
-0.033448
  0
VERTEX
  8
0
 10
313.553346
 20
264.739211
 42
-0.217941
  0
VERTEX
  8
0
 10
313.381979
 20
265.496702
 42
-0.263933
  0
VERTEX
  8
0
 10
313.848438
 20
266.025565
 42
-0.046581
  0
VERTEX
  8
0
 10
315.184088
 20
266.350755
 42
0.127713
  0
VERTEX
  8
0
 10
316.765695
 20
267.019037
 42
0.038089
  0
VERTEX
  8
0
 10
318.734438
 20
268.780806
 42
0.038800
  0
VERTEX
  8
0
 10
320.492713
 20
270.923719
 42
0.075701
  0
VERTEX
  8
0
 10
321.468667
 20
272.901280
 42
-0.037843
  0
VERTEX
  8
0
 10
321.792278
 20
273.704534
 42
-0.048125
  0
VERTEX
  8
0
 10
322.213061
 20
274.383501
 42
-0.056191
  0
VERTEX
  8
0
 10
322.662474
 20
274.853276
 42
-0.175593
  0
VERTEX
  8
0
 10
323.067388
 20
275.000000
 42
0.127815
  0
VERTEX
  8
0
 10
323.423051
 20
275.092428
 42
0.100745
  0
VERTEX
  8
0
 10
323.726045
 20
275.352500
 42
0.089387
  0
VERTEX
  8
0
 10
323.929756
 20
275.741538
 42
0.076164
  0
VERTEX
  8
0
 10
324.000000
 20
276.200000
 42
0.051663
  0
VERTEX
  8
0
 10
323.943785
 20
276.742599
 42
0.354955
  0
VERTEX
  8
0
 10
323.750000
 20
276.900000
 42
0.180052
  0
VERTEX
  8
0
 10
323.421376
 20
276.777696
 42
0.018208
  0
VERTEX
  8
0
 10
322.800000
 20
276.200000
 42
-0.105745
  0
VERTEX
  8
0
 10
321.403017
 20
275.295303
 42
-0.106650
  0
VERTEX
  8
0
 10
319.762583
 20
275.044880
 42
-0.138206
  0
VERTEX
  8
0
 10
318.457638
 20
275.500156
 42
-0.225327
  0
VERTEX
  8
0
 10
317.888889
 20
276.500000
 42
-0.003285
  0
VERTEX
  8
0
 10
317.839495
 20
277.232072
 42
-0.001369
  0
VERTEX
  8
0
 10
317.782052
 20
278.220312
 42
-0.001355
  0
VERTEX
  8
0
 10
317.726312
 20
279.278755
 42
-0.001754
  0
VERTEX
  8
0
 10
317.681217
 20
280.250000
 42
0.046947
  0
VERTEX
  8
0
 10
317.549372
 20
281.208362
 42
0.035102
  0
VERTEX
  8
0
 10
317.233399
 20
282.227232
 42
0.035886
  0
VERTEX
  8
0
 10
316.794726
 20
283.152704
 42
0.065065
  0
VERTEX
  8
0
 10
316.292328
 20
283.821429
 42
-0.052938
  0
VERTEX
  8
0
 10
315.225505
 20
285.172190
 42
-0.227561
  0
VERTEX
  8
0
 10
315.110907
 20
286.162488
 42
-0.252299
  0
VERTEX
  8
0
 10
315.804165
 20
286.800881
 42
-0.062566
  0
VERTEX
  8
0
 10
317.389216
 20
287.000000
 42
0.064595
  0
VERTEX
  8
0
 10
318.474642
 20
287.140814
 42
0.033647
  0
VERTEX
  8
0
 10
319.770080
 20
287.577727
 42
0.032799
  0
VERTEX
  8
0
 10
321.060032
 20
288.213835
 42
0.042747
  0
VERTEX
  8
0
 10
322.139216
 20
288.966731
 42
0.000000
  0
VERTEX
  8
0
 10
324.500000
 20
290.933461
 42
0.000000
  0
VERTEX
  8
0
 10
322.316883
 20
290.966731
 42
-0.067153
  0
VERTEX
  8
0
 10
321.249415
 20
291.127345
 42
-0.151140
  0
VERTEX
  8
0
 10
320.573303
 20
291.573659
 42
-0.124441
  0
VERTEX
  8
0
 10
320.188423
 20
292.391780
 42
-0.038819
  0
VERTEX
  8
0
 10
320.032204
 20
293.750000
 42
0.005546
  0
VERTEX
  8
0
 10
319.855936
 20
297.418953
 42
0.031781
  0
VERTEX
  8
0
 10
319.617752
 20
299.351384
 42
0.090117
  0
VERTEX
  8
0
 10
319.273247
 20
300.250439
 42
0.416529
  0
VERTEX
  8
0
 10
318.785714
 20
300.367564
 42
-0.098587
  0
VERTEX
  8
0
 10
318.486099
 20
300.255801
 42
-0.175835
  0
VERTEX
  8
0
 10
318.230804
 20
300.304269
 42
-0.169644
  0
VERTEX
  8
0
 10
318.059878
 20
300.507619
 42
-0.090973
  0
VERTEX
  8
0
 10
318.000000
 20
300.833994
 42
-0.228197
  0
VERTEX
  8
0
 10
318.401555
 20
301.668020
 42
-0.075044
  0
VERTEX
  8
0
 10
319.612992
 20
302.367392
 42
-0.056627
  0
VERTEX
  8
0
 10
321.395837
 20
302.842862
 42
-0.036890
  0
VERTEX
  8
0
 10
323.522770
 20
303.000000
 42
0.029394
  0
VERTEX
  8
0
 10
324.459997
 20
303.055146
 42
0.035524
  0
VERTEX
  8
0
 10
325.325516
 20
303.220312
 42
0.038288
  0
VERTEX
  8
0
 10
326.012926
 20
303.460477
 42
0.151964
  0
VERTEX
  8
0
 10
326.346864
 20
303.750000
 42
0.484166
  0
VERTEX
  8
0
 10
326.245569
 20
304.030190
 42
0.042207
  0
VERTEX
  8
0
 10
325.396544
 20
304.235916
 42
0.031017
  0
VERTEX
  8
0
 10
324.096673
 20
304.354990
 42
0.015890
  0
VERTEX
  8
0
 10
322.458896
 20
304.350992
 42
-0.041895
  0
VERTEX
  8
0
 10
318.941509
 20
304.525324
 42
-0.109093
  0
VERTEX
  8
0
 10
316.574784
 20
305.390829
 42
-0.176386
  0
VERTEX
  8
0
 10
315.442086
 20
306.869434
 42
-0.154167
  0
VERTEX
  8
0
 10
315.444837
 20
308.826196
 42
-0.070745
  0
VERTEX
  8
0
 10
315.872907
 20
309.715575
 42
-0.079901
  0
VERTEX
  8
0
 10
316.517963
 20
310.408961
 42
-0.082692
  0
VERTEX
  8
0
 10
317.327559
 20
310.848118
 42
-0.083194
  0
VERTEX
  8
0
 10
318.234054
 20
311.000000
 42
0.027920
  0
VERTEX
  8
0
 10
318.998695
 20
311.042731
 42
0.071233
  0
VERTEX
  8
0
 10
319.534825
 20
311.181845
 42
0.181284
  0
VERTEX
  8
0
 10
319.752726
 20
311.386795
 42
0.321084
  0
VERTEX
  8
0
 10
319.714286
 20
311.619048
 42
-0.216372
  0
VERTEX
  8
0
 10
319.584976
 20
311.963399
 42
-0.079048
  0
VERTEX
  8
0
 10
319.703720
 20
312.482887
 42
-0.060112
  0
VERTEX
  8
0
 10
320.036880
 20
313.089031
 42
-0.040711
  0
VERTEX
  8
0
 10
320.547619
 20
313.690476
 42
0.068775
  0
VERTEX
  8
0
 10
321.104246
 20
314.425633
 42
0.038994
  0
VERTEX
  8
0
 10
321.573363
 20
315.441056
 42
0.038113
  0
VERTEX
  8
0
 10
321.893215
 20
316.559085
 42
0.050657
  0
VERTEX
  8
0
 10
322.000000
 20
317.610384
 42
0.000000
  0
VERTEX
  8
0
 10
322.000000
 20
320.077910
 42
0.000000
  0
VERTEX
  8
0
 10
319.874769
 20
318.097957
 42
-0.025164
  0
VERTEX
  8
0
 10
318.560611
 20
316.991715
 42
-0.140077
  0
VERTEX
  8
0
 10
317.710140
 20
316.660825
 42
-0.142695
  0
VERTEX
  8
0
 10
316.821482
 20
316.832444
 42
-0.026454
  0
VERTEX
  8
0
 10
315.367310
 20
317.678899
 42
0.000000
  0
VERTEX
  8
0
 10
312.985082
 20
319.239794
 42
0.000000
  0
VERTEX
  8
0
 10
314.992541
 20
322.487931
 42
0.014748
  0
VERTEX
  8
0
 10
315.761071
 20
323.817583
 42
0.017114
  0
VERTEX
  8
0
 10
316.410309
 20
325.126792
 42
0.016308
  0
VERTEX
  8
0
 10
316.881872
 20
326.262590
 42
0.090474
  0
VERTEX
  8
0
 10
317.000000
 20
326.910075
 42
0.152006
  0
VERTEX
  8
0
 10
316.363036
 20
328.956857
 42
0.019380
  0
VERTEX
  8
0
 10
313.567796
 20
332.694277
 42
0.017473
  0
VERTEX
  8
0
 10
310.496912
 20
336.224985
 42
0.201738
  0
VERTEX
  8
0
 10
308.856989
 20
336.961000
 42
-0.149850
  0
VERTEX
  8
0
 10
307.494404
 20
337.414391
 42
-0.165670
  0
VERTEX
  8
0
 10
306.685677
 20
338.538315
 42
-0.150693
  0
VERTEX
  8
0
 10
306.691217
 20
340.010807
 42
-0.121213
  0
VERTEX
  8
0
 10
307.514843
 20
341.371986
 42
-0.084796
  0
VERTEX
  8
0
 10
308.403479
 20
342.001320
 42
-0.083918
  0
VERTEX
  8
0
 10
309.453841
 20
342.302878
 42
-0.060728
  0
VERTEX
  8
0
 10
310.815964
 20
342.290384
 42
-0.022840
  0
VERTEX
  8
0
 10
312.697095
 20
341.955548
 42
0.045285
  0
VERTEX
  8
0
 10
315.572024
 20
341.575835
 42
0.223919
  0
VERTEX
  8
0
 10
317.036503
 20
342.194596
 42
0.251859
  0
VERTEX
  8
0
 10
317.387273
 20
343.646772
 42
0.055257
  0
VERTEX
  8
0
 10
316.434091
 20
346.127455
 42
0.031743
  0
VERTEX
  8
0
 10
315.127602
 20
348.303481
 42
0.087665
  0
VERTEX
  8
0
 10
313.876195
 20
349.570848
 42
0.475991
  0
VERTEX
  8
0
 10
313.289102
 20
349.407315
 42
0.172821
  0
VERTEX
  8
0
 10
313.220570
 20
348.406372
 42
-0.005379
  0
VERTEX
  8
0
 10
314.027035
 20
345.412695
 42
-0.075439
  0
VERTEX
  8
0
 10
314.139971
 20
344.307068
 42
-0.329407
  0
VERTEX
  8
0
 10
313.797404
 20
343.887943
 42
-0.126553
  0
VERTEX
  8
0
 10
313.000000
 20
343.890032
 42
0.034172
  0
VERTEX
  8
0
 10
312.213799
 20
344.038032
 42
0.010573
  0
VERTEX
  8
0
 10
311.014586
 20
344.154244
 42
0.010520
  0
VERTEX
  8
0
 10
309.664489
 20
344.227790
 42
0.011382
  0
VERTEX
  8
0
 10
308.347528
 20
344.241774
 42
-0.067854
  0
VERTEX
  8
0
 10
306.327170
 20
344.492268
 42
-0.215727
  0
VERTEX
  8
0
 10
305.297159
 20
345.331691
 42
-0.076069
  0
VERTEX
  8
0
 10
304.678577
 20
347.261386
 42
-0.004270
  0
VERTEX
  8
0
 10
303.736825
 20
353.500000
 42
-0.060390
  0
VERTEX
  8
0
 10
303.717314
 20
354.444682
 42
-0.028789
  0
VERTEX
  8
0
 10
303.908297
 20
355.646875
 42
-0.028032
  0
VERTEX
  8
0
 10
304.255598
 20
356.896139
 42
-0.035534
  0
VERTEX
  8
0
 10
304.720020
 20
358.000000
 42
0.023527
  0
VERTEX
  8
0
 10
305.205757
 20
359.081200
 42
0.020033
  0
VERTEX
  8
0
 10
305.617114
 20
360.262351
 42
0.020508
  0
VERTEX
  8
0
 10
305.904397
 20
361.368687
 42
0.052399
  0
VERTEX
  8
0
 10
305.993839
 20
362.190983
 42
0.101296
  0
VERTEX
  8
0
 10
305.739868
 20
363.455148
 42
0.113958
  0
VERTEX
  8
0
 10
305.013513
 20
364.457453
 42
0.265500
  0
VERTEX
  8
0
 10
304.301280
 20
364.600150
 42
0.284525
  0
SEQEND
  0
POLYLINE
  8
0
 66
1
 70
1
  0
VERTEX
  8
0
 10
158.000000
 20
329.940983
 42
-0.105429
  0
VERTEX
  8
0
 10
157.923444
 20
329.581949
 42
-0.099231
  0
VERTEX
  8
0
 10
157.706250
 20
329.276414
 42
-0.096318
  0
VERTEX
  8
0
 10
157.381732
 20
329.071618
 42
-0.092995
  0
VERTEX
  8
0
 10
157.000000
 20
329.000000
 42
-0.153634
  0
VERTEX
  8
0
 10
156.618621
 20
329.120018
 42
-0.097988
  0
VERTEX
  8
0
 10
156.293750
 20
329.457961
 42
-0.080552
  0
VERTEX
  8
0
 10
156.074545
 20
329.962904
 42
-0.062283
  0
VERTEX
  8
0
 10
156.000000
 20
330.559017
 42
-0.066118
  0
VERTEX
  8
0
 10
156.073267
 20
331.110654
 42
-0.138808
  0
VERTEX
  8
0
 10
156.293750
 20
331.478525
 42
-0.191142
  0
VERTEX
  8
0
 10
156.620352
 20
331.607943
 42
-0.139169
  0
VERTEX
  8
0
 10
157.000000
 20
331.500000
 42
-0.060810
  0
VERTEX
  8
0
 10
157.382515
 20
331.193797
 42
-0.051032
  0
VERTEX
  8
0
 10
157.706250
 20
330.787100
 42
-0.053229
  0
VERTEX
  8
0
 10
157.926698
 20
330.346558
 42
-0.089642
  0
SEQEND
  0
POLYLINE
  8
0
 66
1
 70
1
  0
VERTEX
  8
0
 10
312.729167
 20
290.395833
 42
-0.126455
  0
VERTEX
  8
0
 10
312.402231
 20
290.202593
 42
-0.060344
  0
VERTEX
  8
0
 10
311.916927
 20
290.123424
 42
-0.054150
  0
VERTEX
  8
0
 10
311.359369
 20
290.160852
 42
-0.051402
  0
VERTEX
  8
0
 10
310.812500
 20
290.316886
 42
-0.054073
  0
VERTEX
  8
0
 10
310.395823
 20
290.538436
 42
-0.470617
  0
VERTEX
  8
0
 10
310.378580
 20
290.720685
 42
-0.168741
  0
VERTEX
  8
0
 10
310.670344
 20
290.862007
 42
-0.018894
  0
VERTEX
  8
0
 10
311.416667
 20
290.921053
 42
-0.028489
  0
VERTEX
  8
0
 10
312.112848
 20
290.910055
 42
-0.077125
  0
VERTEX
  8
0
 10
312.592839
 20
290.799335
 42
-0.208169
  0
VERTEX
  8
0
 10
312.775380
 20
290.614691
 42
-0.296942
  0
SEQEND
  0
POLYLINE
  8
0
 66
1
 70
1
  0
VERTEX
  8
0
 10
316.065741
 20
89.964816
 42
-0.132197
  0
VERTEX
  8
0
 10
317.271026
 20
88.832332
 42
-0.092174
  0
VERTEX
  8
0
 10
317.949048
 20
87.083357
 42
-0.129952
  0
VERTEX
  8
0
 10
317.841428
 20
85.600630
 42
-0.320296
  0
VERTEX
  8
0
 10
317.000000
 20
85.000000
 42
-0.170645
  0
VERTEX
  8
0
 10
315.648474
 20
85.475098
 42
-0.042029
  0
VERTEX
  8
0
 10
313.917066
 20
87.120978
 42
-0.040593
  0
VERTEX
  8
0
 10
312.528357
 20
88.964645
 42
-0.287013
  0
VERTEX
  8
0
 10
312.522542
 20
90.036475
 42
-0.072077
  0
VERTEX
  8
0
 10
313.093327
 20
90.717612
 42
-0.189634
  0
VERTEX
  8
0
 10
313.680383
 20
90.934967
 42
-0.103723
  0
VERTEX
  8
0
 10
314.499097
 20
90.745922
 42
-0.014442
  0
SEQEND
  0
POLYLINE
  8
0
 66
1
 70
1
  0
VERTEX
  8
0
 10
357.015313
 20
234.750000
 42
0.036048
  0
VERTEX
  8
0
 10
357.092080
 20
233.778689
 42
0.026469
  0
VERTEX
  8
0
 10
357.310881
 20
232.720312
 42
0.026958
  0
VERTEX
  8
0
 10
357.626969
 20
231.735885
 42
0.052333
  0
VERTEX
  8
0
 10
358.000000
 20
231.000000
 42
0.048513
  0
VERTEX
  8
0
 10
358.481390
 20
230.393233
 42
0.466582
  0
VERTEX
  8
0
 10
358.769362
 20
230.413411
 42
0.145560
  0
VERTEX
  8
0
 10
358.945010
 20
230.912117
 42
0.011048
  0
VERTEX
  8
0
 10
358.984687
 20
232.356989
 42
-0.025125
  0
VERTEX
  8
0
 10
359.061038
 20
233.728837
 42
-0.122320
  0
VERTEX
  8
0
 10
359.325413
 20
234.454744
 42
-0.233964
  0
VERTEX
  8
0
 10
359.795273
 20
234.722793
 42
-0.111279
  0
VERTEX
  8
0
 10
360.500000
 20
234.606989
 42
0.003383
  0
VERTEX
  8
0
 10
363.484065
 20
233.422894
 42
0.118473
  0
VERTEX
  8
0
 10
364.223446
 20
233.322364
 42
0.651270
  0
VERTEX
  8
0
 10
364.310763
 20
233.589830
 42
0.012550
  0
VERTEX
  8
0
 10
362.842271
 20
234.843678
 42
0.041580
  0
VERTEX
  8
0
 10
360.458548
 20
236.469248
 42
0.133655
  0
VERTEX
  8
0
 10
358.613789
 20
236.939624
 42
0.250618
  0
VERTEX
  8
0
 10
357.466376
 20
236.302026
 42
0.145842
  0
SEQEND
  0
POLYLINE
  8
0
 66
1
 70
1
  0
VERTEX
  8
0
 10
50.000000
 20
223.559017
 42
0.050179
  0
VERTEX
  8
0
 10
50.059136
 20
222.971245
 42
0.047705
  0
VERTEX
  8
0
 10
50.234338
 20
222.396494
 42
0.051353
  0
VERTEX
  8
0
 10
50.491943
 20
221.917963
 42
0.105582
  0
VERTEX
  8
0
 10
50.797746
 20
221.625000
 42
0.196264
  0
VERTEX
  8
0
 10
51.819047
 20
221.453917
 42
0.116315
  0
VERTEX
  8
0
 10
52.945849
 20
222.002701
 42
0.126473
  0
VERTEX
  8
0
 10
53.648739
 20
222.957912
 42
0.238458
  0
VERTEX
  8
0
 10
53.569098
 20
223.888197
 42
0.139790
  0
VERTEX
  8
0
 10
52.644332
 20
224.731646
 42
0.139299
  0
VERTEX
  8
0
 10
51.412475
 20
224.961980
 42
0.168863
  0
VERTEX
  8
0
 10
50.404999
 20
224.504142
 42
0.205232
  0
SEQEND
  0
POLYLINE
  8
0
 66
1
 70
1
  0
VERTEX
  8
0
 10
356.458881
 20
137.933469
 42
0.054386
  0
VERTEX
  8
0
 10
355.990359
 20
136.950813
 42
0.441210
  0
VERTEX
  8
0
 10
356.201009
 20
136.560407
 42
0.235763
  0
VERTEX
  8
0
 10
356.829127
 20
136.699620
 42
0.036267
  0
VERTEX
  8
0
 10
357.789427
 20
137.600859
 42
0.036357
  0
VERTEX
  8
0
 10
358.217338
 20
138.138842
 42
0.095760
  0
VERTEX
  8
0
 10
358.412089
 20
138.589002
 42
0.218285
  0
VERTEX
  8
0
 10
358.350678
 20
138.873691
 42
0.236389
  0
VERTEX
  8
0
 10
358.098444
 20
139.000000
 42
0.091370
  0
VERTEX
  8
0
 10
357.674786
 20
138.921929
 42
0.053114
  0
VERTEX
  8
0
 10
357.212403
 20
138.686706
 42
0.050715
  0
VERTEX
  8
0
 10
356.783741
 20
138.341431
 42
0.059523
  0
SEQEND
  0
POLYLINE
  8
0
 66
1
 70
1
  0
VERTEX
  8
0
 10
324.039490
 20
61.500000
 42
0.000344
  0
VERTEX
  8
0
 10
323.942126
 20
60.992364
 42
0.000118
  0
VERTEX
  8
0
 10
323.801794
 20
60.257022
 42
0.000117
  0
VERTEX
  8
0
 10
323.647358
 20
59.445704
 42
0.000136
  0
VERTEX
  8
0
 10
323.500648
 20
58.672841
 42
0.161289
  0
VERTEX
  8
0
 10
323.755769
 20
56.758684
 42
0.082164
  0
VERTEX
  8
0
 10
325.174018
 20
54.756388
 42
0.110657
  0
VERTEX
  8
0
 10
326.869422
 20
53.669357
 42
0.355691
  0
VERTEX
  8
0
 10
328.048259
 20
54.078084
 42
0.164743
  0
VERTEX
  8
0
 10
328.344179
 20
55.359098
 42
0.072175
  0
VERTEX
  8
0
 10
327.918570
 20
57.071353
 42
0.075164
  0
VERTEX
  8
0
 10
327.054892
 20
58.519484
 42
0.224400
  0
VERTEX
  8
0
 10
326.038140
 20
59.000000
 42
-0.164450
  0
VERTEX
  8
0
 10
325.663383
 20
59.126684
 42
-0.065639
  0
VERTEX
  8
0
 10
325.274186
 20
59.514063
 42
-0.055466
  0
VERTEX
  8
0
 10
324.930194
 20
60.080410
 42
-0.044881
  0
VERTEX
  8
0
 10
324.689326
 20
60.750000
 42
0.021308
  0
VERTEX
  8
0
 10
324.500203
 20
61.365258
 42
0.093555
  0
VERTEX
  8
0
 10
324.309791
 20
61.692187
 42
0.415750
  0
VERTEX
  8
0
 10
324.155843
 20
61.702798
 42
0.166874
  0
SEQEND
  0
POLYLINE
  8
0
 66
1
 70
1
  0
VERTEX
  8
0
 10
97.078947
 20
25.250000
 42
-0.214512
  0
VERTEX
  8
0
 10
96.818131
 20
24.755908
 42
-0.068230
  0
VERTEX
  8
0
 10
96.081256
 20
24.327881
 42
-0.053212
  0
VERTEX
  8
0
 10
95.016818
 20
24.017577
 42
-0.035251
  0
VERTEX
  8
0
 10
93.750000
 20
23.881685
 42
0.000000
  0
VERTEX
  8
0
 10
90.500000
 20
23.763370
 42
0.000000
  0
VERTEX
  8
0
 10
93.500000
 20
23.057216
 42
0.044251
  0
VERTEX
  8
0
 10
95.679322
 20
22.744028
 42
0.130676
  0
VERTEX
  8
0
 10
97.147995
 20
23.050303
 42
0.228836
  0
VERTEX
  8
0
 10
97.801583
 20
23.900488
 42
0.147314
  0
VERTEX
  8
0
 10
97.691447
 20
25.162500
 42
0.012418
  0
VERTEX
  8
0
 10
97.421113
 20
25.794126
 42
0.255251
  0
VERTEX
  8
0
 10
97.260875
 20
25.913860
 42
0.414496
  0
VERTEX
  8
0
 10
97.137412
 20
25.821169
 42
0.019467
  0
SEQEND
  0
ENDSEC
  0
EOF
