  0
SECTION
  2
HEADER
  9
$ACADVER
  1
AC1006
  9
$EXTMIN
 10
0.000000
 20
0.000000
 30
0.000000
  9
$EXTMAX
 10
377.000000
 20
386.000000
 30
0.000000
  0
ENDSEC
  0
SECTION
  2
ENTITIES
  0
POLYLINE
  8
0
 66
1
 70
1
  0
VERTEX
  8
0
 10
2.459899
 20
384.935115
 42
0.115062
  0
VERTEX
  8
0
 10
2.246513
 20
384.300689
 42
0.024578
  0
VERTEX
  8
0
 10
2.192441
 20
383.131074
 42
0.024469
  0
VERTEX
  8
0
 10
2.264763
 20
381.738176
 42
0.021164
  0
VERTEX
  8
0
 10
2.473593
 20
380.289070
 42
-0.024486
  0
VERTEX
  8
0
 10
2.697037
 20
378.662090
 42
-0.054019
  0
VERTEX
  8
0
 10
2.671468
 20
377.409728
 42
-0.076740
  0
VERTEX
  8
0
 10
2.410175
 20
376.506249
 42
-0.146667
  0
VERTEX
  8
0
 10
1.913135
 20
375.946314
 42
0.114213
  0
VERTEX
  8
0
 10
1.382978
 20
375.420786
 42
0.136646
  0
VERTEX
  8
0
 10
1.182083
 20
374.749366
 42
0.081010
  0
VERTEX
  8
0
 10
1.318457
 20
373.799144
 42
0.021074
  0
VERTEX
  8
0
 10
1.844213
 20
372.342359
 42
-0.062636
  0
VERTEX
  8
0
 10
3.059064
 20
367.837060
 42
-0.029001
  0
VERTEX
  8
0
 10
3.546259
 20
361.782173
 42
-0.027979
  0
VERTEX
  8
0
 10
3.349143
 20
355.924800
 42
-0.098583
  0
VERTEX
  8
0
 10
2.290718
 20
352.327007
 42
0.029478
  0
VERTEX
  8
0
 10
1.355673
 20
350.253863
 42
0.160565
  0
VERTEX
  8
0
 10
1.299371
 20
349.040198
 42
0.106469
  0
VERTEX
  8
0
 10
1.962170
 20
347.780012
 42
0.009595
  0
VERTEX
  8
0
 10
4.314067
 20
345.074126
 42
-0.006650
  0
VERTEX
  8
0
 10
5.726457
 20
343.468354
 42
-0.009854
  0
VERTEX
  8
0
 10
6.917257
 20
342.020857
 42
-0.005479
  0
VERTEX
  8
0
 10
7.875669
 20
340.780183
 42
-0.163120
  0
VERTEX
  8
0
 10
8.000000
 20
340.409221
 42
-0.398009
  0
VERTEX
  8
0
 10
7.812256
 20
340.210729
 42
-0.019559
  0
VERTEX
  8
0
 10
6.825850
 20
340.194424
 42
-0.022817
  0
VERTEX
  8
0
 10
5.535652
 20
340.282568
 42
-0.013383
  0
VERTEX
  8
0
 10
4.002894
 20
340.499511
 42
0.000000
  0
VERTEX
  8
0
 10
0.005787
 20
341.174818
 42
0.000000
  0
VERTEX
  8
0
 10
0.399740
 20
332.714412
 42
0.011428
  0
VERTEX
  8
0
 10
0.635930
 20
329.315829
 42
0.013303
  0
VERTEX
  8
0
 10
1.019874
 20
326.100395
 42
0.012339
  0
VERTEX
  8
0
 10
1.481892
 20
323.410910
 42
0.074285
  0
VERTEX
  8
0
 10
1.957623
 20
322.079182
 42
-0.091979
  0
VERTEX
  8
0
 10
3.111007
 20
318.453046
 42
-0.024259
  0
VERTEX
  8
0
 10
3.575138
 20
312.358338
 42
-0.022412
  0
VERTEX
  8
0
 10
3.470495
 20
306.316670
 42
-0.130205
  0
VERTEX
  8
0
 10
2.473605
 20
303.319371
 42
0.051113
  0
VERTEX
  8
0
 10
1.328548
 20
301.108613
 42
0.161891
  0
VERTEX
  8
0
 10
1.238505
 20
299.466175
 42
0.119177
  0
VERTEX
  8
0
 10
2.161318
 20
297.790803
 42
0.022136
  0
VERTEX
  8
0
 10
4.664476
 20
295.285481
 42
-0.017255
  0
VERTEX
  8
0
 10
6.301227
 20
293.678977
 42
-0.056718
  0
VERTEX
  8
0
 10
7.212331
 20
292.472745
 42
-0.107336
  0
VERTEX
  8
0
 10
7.514798
 20
291.559212
 42
-0.226582
  0
VERTEX
  8
0
 10
7.271835
 20
290.871835
 42
-0.094256
  0
VERTEX
  8
0
 10
6.669048
 20
290.461706
 42
-0.105628
  0
VERTEX
  8
0
 10
5.981892
 20
290.323120
 42
-0.082566
  0
VERTEX
  8
0
 10
5.166324
 20
290.468347
 42
-0.037622
  0
VERTEX
  8
0
 10
4.173101
 20
290.907359
 42
0.019229
  0
VERTEX
  8
0
 10
3.313765
 20
291.325589
 42
0.018917
  0
VERTEX
  8
0
 10
2.420192
 20
291.679037
 42
0.019184
  0
VERTEX
  8
0
 10
1.615012
 20
291.928520
 42
0.065620
  0
VERTEX
  8
0
 10
1.072705
 20
292.000000
 42
0.418011
  0
VERTEX
  8
0
 10
0.192122
 20
291.107940
 42
0.007386
  0
VERTEX
  8
0
 10
0.398503
 20
283.665111
 42
0.013120
  0
VERTEX
  8
0
 10
0.893205
 20
276.478978
 42
0.099432
  0
VERTEX
  8
0
 10
1.870281
 20
273.242383
 42
-0.068902
  0
VERTEX
  8
0
 10
2.318258
 20
272.029512
 42
-0.012370
  0
VERTEX
  8
0
 10
2.777987
 20
269.658094
 42
-0.013143
  0
VERTEX
  8
0
 10
3.177483
 20
266.832724
 42
-0.011544
  0
VERTEX
  8
0
 10
3.448541
 20
263.865380
 42
-0.012113
  0
VERTEX
  8
0
 10
3.614222
 20
260.083520
 42
-0.032293
  0
VERTEX
  8
0
 10
3.492763
 20
257.386762
 42
-0.043734
  0
VERTEX
  8
0
 10
3.067925
 20
255.258041
 42
-0.049507
  0
VERTEX
  8
0
 10
2.289174
 20
253.327007
 42
0.029511
  0
VERTEX
  8
0
 10
1.355405
 20
251.254209
 42
0.160483
  0
VERTEX
  8
0
 10
1.299518
 20
250.040141
 42
0.106411
  0
VERTEX
  8
0
 10
1.962691
 20
248.779498
 42
0.009603
  0
VERTEX
  8
0
 10
4.314067
 20
246.074126
 42
-0.006650
  0
VERTEX
  8
0
 10
5.726457
 20
244.468354
 42
-0.009854
  0
VERTEX
  8
0
 10
6.917257
 20
243.020857
 42
-0.005479
  0
VERTEX
  8
0
 10
7.875669
 20
241.780183
 42
-0.163120
  0
VERTEX
  8
0
 10
8.000000
 20
241.409221
 42
-0.398009
  0
VERTEX
  8
0
 10
7.812256
 20
241.210729
 42
-0.019559
  0
VERTEX
  8
0
 10
6.825850
 20
241.194424
 42
-0.022817
  0
VERTEX
  8
0
 10
5.535652
 20
241.282568
 42
-0.013383
  0
VERTEX
  8
0
 10
4.002894
 20
241.499511
 42
0.000000
  0
VERTEX
  8
0
 10
0.005787
 20
242.174818
 42
0.000000
  0
VERTEX
  8
0
 10
0.399740
 20
233.714412
 42
0.011428
  0
VERTEX
  8
0
 10
0.635930
 20
230.315829
 42
0.013303
  0
VERTEX
  8
0
 10
1.019874
 20
227.100395
 42
0.012339
  0
VERTEX
  8
0
 10
1.481892
 20
224.410910
 42
0.074285
  0
VERTEX
  8
0
 10
1.957623
 20
223.079182
 42
-0.091979
  0
VERTEX
  8
0
 10
3.111007
 20
219.453046
 42
-0.024259
  0
VERTEX
  8
0
 10
3.575138
 20
213.358338
 42
-0.022412
  0
VERTEX
  8
0
 10
3.470495
 20
207.316670
 42
-0.130205
  0
VERTEX
  8
0
 10
2.473605
 20
204.319371
 42
0.051113
  0
VERTEX
  8
0
 10
1.328548
 20
202.108613
 42
0.161891
  0
VERTEX
  8
0
 10
1.238505
 20
200.466175
 42
0.119177
  0
VERTEX
  8
0
 10
2.161318
 20
198.790803
 42
0.022136
  0
VERTEX
  8
0
 10
4.664476
 20
196.285481
 42
-0.017255
  0
VERTEX
  8
0
 10
6.301227
 20
194.678977
 42
-0.056718
  0
VERTEX
  8
0
 10
7.212331
 20
193.472745
 42
-0.107336
  0
VERTEX
  8
0
 10
7.514798
 20
192.559212
 42
-0.226582
  0
VERTEX
  8
0
 10
7.271835
 20
191.871835
 42
-0.094256
  0
VERTEX
  8
0
 10
6.669048
 20
191.461706
 42
-0.105628
  0
VERTEX
  8
0
 10
5.981892
 20
191.323120
 42
-0.082566
  0
VERTEX
  8
0
 10
5.166324
 20
191.468347
 42
-0.037622
  0
VERTEX
  8
0
 10
4.173101
 20
191.907359
 42
0.019229
  0
VERTEX
  8
0
 10
3.313765
 20
192.325589
 42
0.018917
  0
VERTEX
  8
0
 10
2.420192
 20
192.679037
 42
0.019184
  0
VERTEX
  8
0
 10
1.615012
 20
192.928520
 42
0.065620
  0
VERTEX
  8
0
 10
1.072705
 20
193.000000
 42
0.418011
  0
VERTEX
  8
0
 10
0.192122
 20
192.107940
 42
0.007386
  0
VERTEX
  8
0
 10
0.398503
 20
184.665111
 42
0.013120
  0
VERTEX
  8
0
 10
0.893205
 20
177.478978
 42
0.099432
  0
VERTEX
  8
0
 10
1.870281
 20
174.242383
 42
-0.068902
  0
VERTEX
  8
0
 10
2.318258
 20
173.029512
 42
-0.012370
  0
VERTEX
  8
0
 10
2.777987
 20
170.658094
 42
-0.013143
  0
VERTEX
  8
0
 10
3.177483
 20
167.832724
 42
-0.011544
  0
VERTEX
  8
0
 10
3.448541
 20
164.865380
 42
-0.012113
  0
VERTEX
  8
0
 10
3.614222
 20
161.083520
 42
-0.032293
  0
VERTEX
  8
0
 10
3.492763
 20
158.386762
 42
-0.043734
  0
VERTEX
  8
0
 10
3.067925
 20
156.258041
 42
-0.049507
  0
VERTEX
  8
0
 10
2.289174
 20
154.327007
 42
0.029511
  0
VERTEX
  8
0
 10
1.355405
 20
152.254209
 42
0.160483
  0
VERTEX
  8
0
 10
1.299518
 20
151.040141
 42
0.106411
  0
VERTEX
  8
0
 10
1.962691
 20
149.779498
 42
0.009603
  0
VERTEX
  8
0
 10
4.314067
 20
147.074126
 42
-0.006650
  0
VERTEX
  8
0
 10
5.726457
 20
145.468354
 42
-0.009854
  0
VERTEX
  8
0
 10
6.917257
 20
144.020857
 42
-0.005479
  0
VERTEX
  8
0
 10
7.875669
 20
142.780183
 42
-0.163120
  0
VERTEX
  8
0
 10
8.000000
 20
142.409221
 42
-0.398009
  0
VERTEX
  8
0
 10
7.812256
 20
142.210729
 42
-0.019559
  0
VERTEX
  8
0
 10
6.825850
 20
142.194424
 42
-0.022817
  0
VERTEX
  8
0
 10
5.535652
 20
142.282568
 42
-0.013383
  0
VERTEX
  8
0
 10
4.002894
 20
142.499511
 42
0.000000
  0
VERTEX
  8
0
 10
0.005787
 20
143.174818
 42
0.000000
  0
VERTEX
  8
0
 10
0.399740
 20
134.714412
 42
0.011428
  0
VERTEX
  8
0
 10
0.635930
 20
131.315829
 42
0.013303
  0
VERTEX
  8
0
 10
1.019874
 20
128.100395
 42
0.012339
  0
VERTEX
  8
0
 10
1.481892
 20
125.410910
 42
0.074285
  0
VERTEX
  8
0
 10
1.957623
 20
124.079182
 42
-0.091979
  0
VERTEX
  8
0
 10
3.111007
 20
120.453046
 42
-0.024259
  0
VERTEX
  8
0
 10
3.575138
 20
114.358338
 42
-0.022412
  0
VERTEX
  8
0
 10
3.470495
 20
108.316670
 42
-0.130205
  0
VERTEX
  8
0
 10
2.473605
 20
105.319371
 42
0.051113
  0
VERTEX
  8
0
 10
1.328548
 20
103.108613
 42
0.161891
  0
VERTEX
  8
0
 10
1.238505
 20
101.466175
 42
0.119177
  0
VERTEX
  8
0
 10
2.161318
 20
99.790803
 42
0.022136
  0
VERTEX
  8
0
 10
4.664476
 20
97.285481
 42
-0.017255
  0
VERTEX
  8
0
 10
6.301227
 20
95.678977
 42
-0.056718
  0
VERTEX
  8
0
 10
7.212331
 20
94.472745
 42
-0.107336
  0
VERTEX
  8
0
 10
7.514798
 20
93.559212
 42
-0.226582
  0
VERTEX
  8
0
 10
7.271835
 20
92.871835
 42
-0.094256
  0
VERTEX
  8
0
 10
6.669048
 20
92.461706
 42
-0.105628
  0
VERTEX
  8
0
 10
5.981892
 20
92.323120
 42
-0.082566
  0
VERTEX
  8
0
 10
5.166324
 20
92.468347
 42
-0.037622
  0
VERTEX
  8
0
 10
4.173101
 20
92.907359
 42
0.019229
  0
VERTEX
  8
0
 10
3.313765
 20
93.325589
 42
0.018917
  0
VERTEX
  8
0
 10
2.420192
 20
93.679037
 42
0.019184
  0
VERTEX
  8
0
 10
1.615012
 20
93.928520
 42
0.065620
  0
VERTEX
  8
0
 10
1.072705
 20
94.000000
 42
0.418011
  0
VERTEX
  8
0
 10
0.192122
 20
93.107940
 42
0.007386
  0
VERTEX
  8
0
 10
0.398503
 20
85.665111
 42
0.013120
  0
VERTEX
  8
0
 10
0.893205
 20
78.478978
 42
0.099432
  0
VERTEX
  8
0
 10
1.870281
 20
75.242383
 42
-0.068902
  0
VERTEX
  8
0
 10
2.318258
 20
74.029512
 42
-0.012370
  0
VERTEX
  8
0
 10
2.777987
 20
71.658094
 42
-0.013143
  0
VERTEX
  8
0
 10
3.177483
 20
68.832724
 42
-0.011544
  0
VERTEX
  8
0
 10
3.448541
 20
65.865380
 42
-0.012113
  0
VERTEX
  8
0
 10
3.614222
 20
62.083520
 42
-0.032293
  0
VERTEX
  8
0
 10
3.492763
 20
59.386762
 42
-0.043734
  0
VERTEX
  8
0
 10
3.067925
 20
57.258041
 42
-0.049507
  0
VERTEX
  8
0
 10
2.289174
 20
55.327007
 42
0.029511
  0
VERTEX
  8
0
 10
1.355405
 20
53.254209
 42
0.160483
  0
VERTEX
  8
0
 10
1.299518
 20
52.040141
 42
0.106411
  0
VERTEX
  8
0
 10
1.962691
 20
50.779498
 42
0.009603
  0
VERTEX
  8
0
 10
4.314067
 20
48.074126
 42
-0.006650
  0
VERTEX
  8
0
 10
5.726457
 20
46.468354
 42
-0.009854
  0
VERTEX
  8
0
 10
6.917257
 20
45.020857
 42
-0.005479
  0
VERTEX
  8
0
 10
7.875669
 20
43.780183
 42
-0.163120
  0
VERTEX
  8
0
 10
8.000000
 20
43.409221
 42
-0.398009
  0
VERTEX
  8
0
 10
7.812256
 20
43.210729
 42
-0.019559
  0
VERTEX
  8
0
 10
6.825850
 20
43.194424
 42
-0.022817
  0
VERTEX
  8
0
 10
5.535652
 20
43.282568
 42
-0.013383
  0
VERTEX
  8
0
 10
4.002894
 20
43.499511
 42
0.000000
  0
VERTEX
  8
0
 10
0.005787
 20
44.174818
 42
0.000000
  0
VERTEX
  8
0
 10
0.399740
 20
35.714412
 42
0.011428
  0
VERTEX
  8
0
 10
0.635930
 20
32.315829
 42
0.013303
  0
VERTEX
  8
0
 10
1.019874
 20
29.100395
 42
0.012339
  0
VERTEX
  8
0
 10
1.481892
 20
26.410910
 42
0.074285
  0
VERTEX
  8
0
 10
1.957623
 20
25.079182
 42
-0.091979
  0
VERTEX
  8
0
 10
3.111007
 20
21.453046
 42
-0.024259
  0
VERTEX
  8
0
 10
3.575138
 20
15.358338
 42
-0.022412
  0
VERTEX
  8
0
 10
3.470495
 20
9.316670
 42
-0.130205
  0
VERTEX
  8
0
 10
2.473605
 20
6.319371
 42
0.010079
  0
VERTEX
  8
0
 10
1.909245
 20
5.418968
 42
0.013233
  0
VERTEX
  8
0
 10
1.432871
 20
4.573802
 42
0.010738
  0
VERTEX
  8
0
 10
1.072322
 20
3.855706
 42
0.111419
  0
VERTEX
  8
0
 10
1.000000
 20
3.535183
 42
0.383248
  0
VERTEX
  8
0
 10
1.192630
 20
3.320783
 42
0.006334
  0
VERTEX
  8
0
 10
2.923963
 20
3.157210
 42
0.012721
  0
VERTEX
  8
0
 10
5.038344
 20
3.038489
 42
0.007663
  0
VERTEX
  8
0
 10
7.549660
 20
3.000000
 42
-0.018347
  0
VERTEX
  8
0
 10
10.439107
 20
2.893938
 42
-0.022082
  0
VERTEX
  8
0
 10
13.138119
 20
2.575231
 42
-0.024228
  0
VERTEX
  8
0
 10
15.449438
 20
2.082248
 42
-0.054720
  0
VERTEX
  8
0
 10
17.117345
 20
1.439319
 42
0.054267
  0
VERTEX
  8
0
 10
20.139193
 20
0.271347
 42
0.134215
  0
VERTEX
  8
0
 10
22.494359
 20
0.286516
 42
0.163897
  0
VERTEX
  8
0
 10
24.219377
 20
1.462065
 42
0.092654
  0
VERTEX
  8
0
 10
25.361287
 20
3.750000
 42
-0.026850
  0
VERTEX
  8
0
 10
26.194750
 20
6.168811
 42
-0.269871
  0
VERTEX
  8
0
 10
27.006911
 20
6.796655
 42
-0.206220
  0
VERTEX
  8
0
 10
28.116596
 20
6.482567
 42
-0.016212
  0
VERTEX
  8
0
 10
30.486622
 20
4.424818
 42
0.071554
  0
VERTEX
  8
0
 10
34.460178
 20
1.679767
 42
0.068942
  0
VERTEX
  8
0
 10
39.096468
 20
0.122667
 42
0.079775
  0
VERTEX
  8
0
 10
43.302485
 20
0.008512
 42
0.188691
  0
VERTEX
  8
0
 10
46.000000
 20
1.500000
 42
-0.201087
  0
VERTEX
  8
0
 10
48.473788
 20
2.791627
 42
-0.023473
  0
VERTEX
  8
0
 10
54.839744
 20
3.029647
 42
-0.028784
  0
VERTEX
  8
0
 10
61.658719
 20
2.571293
 42
-0.054204
  0
VERTEX
  8
0
 10
67.021047
 20
1.298929
 42
0.043764
  0
VERTEX
  8
0
 10
70.629698
 20
0.362871
 42
0.141178
  0
VERTEX
  8
0
 10
73.067751
 20
0.642455
 42
0.198416
  0
VERTEX
  8
0
 10
74.492379
 20
2.070004
 42
0.098474
  0
VERTEX
  8
0
 10
75.000000
 20
4.622445
 42
-0.111656
  0
VERTEX
  8
0
 10
75.369231
 20
6.255263
 42
-0.275126
  0
VERTEX
  8
0
 10
76.352643
 20
6.912358
 42
-0.173437
  0
VERTEX
  8
0
 10
77.831252
 20
6.468908
 42
-0.052082
  0
VERTEX
  8
0
 10
79.595012
 20
4.861984
 42
0.091003
  0
VERTEX
  8
0
 10
83.135307
 20
2.106020
 42
0.066369
  0
VERTEX
  8
0
 10
87.833925
 20
0.404641
 42
0.072764
  0
VERTEX
  8
0
 10
92.279946
 20
0.094704
 42
0.203334
  0
VERTEX
  8
0
 10
95.000000
 20
1.500000
 42
-0.203417
  0
VERTEX
  8
0
 10
97.545999
 20
2.814860
 42
-0.019560
  0
VERTEX
  8
0
 10
104.664943
 20
3.072974
 42
-0.024278
  0
VERTEX
  8
0
 10
111.862562
 20
2.702550
 42
-0.094602
  0
VERTEX
  8
0
 10
116.117345
 20
1.439319
 42
0.054267
  0
VERTEX
  8
0
 10
119.139193
 20
0.271347
 42
0.134215
  0
VERTEX
  8
0
 10
121.494359
 20
0.286516
 42
0.163897
  0
VERTEX
  8
0
 10
123.219377
 20
1.462065
 42
0.092654
  0
VERTEX
  8
0
 10
124.361287
 20
3.750000
 42
-0.026850
  0
VERTEX
  8
0
 10
125.194750
 20
6.168811
 42
-0.269871
  0
VERTEX
  8
0
 10
126.006911
 20
6.796655
 42
-0.206220
  0
VERTEX
  8
0
 10
127.116596
 20
6.482567
 42
-0.016212
  0
VERTEX
  8
0
 10
129.486622
 20
4.424818
 42
0.071554
  0
VERTEX
  8
0
 10
133.460178
 20
1.679767
 42
0.068942
  0
VERTEX
  8
0
 10
138.096468
 20
0.122667
 42
0.079775
  0
VERTEX
  8
0
 10
142.302485
 20
0.008512
 42
0.188691
  0
VERTEX
  8
0
 10
145.000000
 20
1.500000
 42
-0.201087
  0
VERTEX
  8
0
 10
147.473788
 20
2.791627
 42
-0.023473
  0
VERTEX
  8
0
 10
153.839744
 20
3.029647
 42
-0.028784
  0
VERTEX
  8
0
 10
160.658719
 20
2.571293
 42
-0.054204
  0
VERTEX
  8
0
 10
166.021047
 20
1.298929
 42
0.043764
  0
VERTEX
  8
0
 10
169.629698
 20
0.362871
 42
0.141178
  0
VERTEX
  8
0
 10
172.067751
 20
0.642455
 42
0.198416
  0
VERTEX
  8
0
 10
173.492379
 20
2.070004
 42
0.098474
  0
VERTEX
  8
0
 10
174.000000
 20
4.622445
 42
-0.111656
  0
VERTEX
  8
0
 10
174.369231
 20
6.255263
 42
-0.275126
  0
VERTEX
  8
0
 10
175.352643
 20
6.912358
 42
-0.173437
  0
VERTEX
  8
0
 10
176.831252
 20
6.468908
 42
-0.052082
  0
VERTEX
  8
0
 10
178.595012
 20
4.861984
 42
0.091003
  0
VERTEX
  8
0
 10
182.135307
 20
2.106020
 42
0.066369
  0
VERTEX
  8
0
 10
186.833925
 20
0.404641
 42
0.072764
  0
VERTEX
  8
0
 10
191.279946
 20
0.094704
 42
0.203334
  0
VERTEX
  8
0
 10
194.000000
 20
1.500000
 42
-0.203417
  0
VERTEX
  8
0
 10
196.545999
 20
2.814860
 42
-0.019560
  0
VERTEX
  8
0
 10
203.664943
 20
3.072974
 42
-0.024278
  0
VERTEX
  8
0
 10
210.862562
 20
2.702550
 42
-0.094602
  0
VERTEX
  8
0
 10
215.117345
 20
1.439319
 42
0.054267
  0
VERTEX
  8
0
 10
218.139193
 20
0.271347
 42
0.134215
  0
VERTEX
  8
0
 10
220.494359
 20
0.286516
 42
0.163897
  0
VERTEX
  8
0
 10
222.219377
 20
1.462065
 42
0.092654
  0
VERTEX
  8
0
 10
223.361287
 20
3.750000
 42
-0.026850
  0
VERTEX
  8
0
 10
224.194750
 20
6.168811
 42
-0.269871
  0
VERTEX
  8
0
 10
225.006911
 20
6.796655
 42
-0.206220
  0
VERTEX
  8
0
 10
226.116596
 20
6.482567
 42
-0.016212
  0
VERTEX
  8
0
 10
228.486622
 20
4.424818
 42
0.071554
  0
VERTEX
  8
0
 10
232.460178
 20
1.679767
 42
0.068942
  0
VERTEX
  8
0
 10
237.096468
 20
0.122667
 42
0.079775
  0
VERTEX
  8
0
 10
241.302485
 20
0.008512
 42
0.188691
  0
VERTEX
  8
0
 10
244.000000
 20
1.500000
 42
-0.201087
  0
VERTEX
  8
0
 10
246.473788
 20
2.791627
 42
-0.023473
  0
VERTEX
  8
0
 10
252.839744
 20
3.029647
 42
-0.028784
  0
VERTEX
  8
0
 10
259.658719
 20
2.571293
 42
-0.054204
  0
VERTEX
  8
0
 10
265.021047
 20
1.298929
 42
0.043764
  0
VERTEX
  8
0
 10
268.629698
 20
0.362871
 42
0.141178
  0
VERTEX
  8
0
 10
271.067751
 20
0.642455
 42
0.198416
  0
VERTEX
  8
0
 10
272.492379
 20
2.070004
 42
0.098474
  0
VERTEX
  8
0
 10
273.000000
 20
4.622445
 42
-0.111656
  0
VERTEX
  8
0
 10
273.369231
 20
6.255263
 42
-0.275126
  0
VERTEX
  8
0
 10
274.352643
 20
6.912358
 42
-0.173437
  0
VERTEX
  8
0
 10
275.831252
 20
6.468908
 42
-0.052082
  0
VERTEX
  8
0
 10
277.595012
 20
4.861984
 42
0.091003
  0
VERTEX
  8
0
 10
281.135307
 20
2.106020
 42
0.066369
  0
VERTEX
  8
0
 10
285.833925
 20
0.404641
 42
0.072764
  0
VERTEX
  8
0
 10
290.279946
 20
0.094704
 42
0.203334
  0
VERTEX
  8
0
 10
293.000000
 20
1.500000
 42
-0.203417
  0
VERTEX
  8
0
 10
295.545999
 20
2.814860
 42
-0.019560
  0
VERTEX
  8
0
 10
302.664943
 20
3.072974
 42
-0.024278
  0
VERTEX
  8
0
 10
309.862562
 20
2.702550
 42
-0.094602
  0
VERTEX
  8
0
 10
314.117345
 20
1.439319
 42
0.054267
  0
VERTEX
  8
0
 10
317.139193
 20
0.271347
 42
0.134215
  0
VERTEX
  8
0
 10
319.494359
 20
0.286516
 42
0.163897
  0
VERTEX
  8
0
 10
321.219377
 20
1.462065
 42
0.092654
  0
VERTEX
  8
0
 10
322.361287
 20
3.750000
 42
-0.026850
  0
VERTEX
  8
0
 10
323.194750
 20
6.168811
 42
-0.269871
  0
VERTEX
  8
0
 10
324.006911
 20
6.796655
 42
-0.206220
  0
VERTEX
  8
0
 10
325.116596
 20
6.482567
 42
-0.016212
  0
VERTEX
  8
0
 10
327.486622
 20
4.424818
 42
0.071554
  0
VERTEX
  8
0
 10
331.460178
 20
1.679767
 42
0.068942
  0
VERTEX
  8
0
 10
336.096468
 20
0.122667
 42
0.079775
  0
VERTEX
  8
0
 10
340.302485
 20
0.008512
 42
0.188691
  0
VERTEX
  8
0
 10
343.000000
 20
1.500000
 42
-0.201138
  0
VERTEX
  8
0
 10
345.487182
 20
2.798314
 42
-0.023751
  0
VERTEX
  8
0
 10
351.855735
 20
3.031654
 42
-0.029001
  0
VERTEX
  8
0
 10
358.692173
 20
2.560178
 42
-0.053659
  0
VERTEX
  8
0
 10
364.100708
 20
1.270636
 42
0.062299
  0
VERTEX
  8
0
 10
368.686631
 20
0.260362
 42
0.286058
  0
VERTEX
  8
0
 10
371.014300
 20
1.427654
 42
0.125379
  0
VERTEX
  8
0
 10
372.129399
 20
5.041804
 42
0.010590
  0
VERTEX
  8
0
 10
372.410728
 20
14.863442
 42
-0.005703
  0
VERTEX
  8
0
 10
372.498276
 20
19.504285
 42
-0.008662
  0
VERTEX
  8
0
 10
372.690195
 20
23.533969
 42
-0.004128
  0
VERTEX
  8
0
 10
372.938907
 20
26.926985
 42
-0.177891
  0
VERTEX
  8
0
 10
373.236746
 20
27.570412
 42
0.239930
  0
VERTEX
  8
0
 10
373.396084
 20
28.059961
 42
0.039102
  0
VERTEX
  8
0
 10
373.156808
 20
29.061750
 42
0.035762
  0
VERTEX
  8
0
 10
372.659136
 20
30.293035
 42
0.024497
  0
VERTEX
  8
0
 10
371.930040
 20
31.613198
 42
-0.065163
  0
VERTEX
  8
0
 10
370.747253
 20
34.237558
 42
-0.147151
  0
VERTEX
  8
0
 10
370.744911
 20
36.396508
 42
-0.129865
  0
VERTEX
  8
0
 10
371.956250
 20
38.374889
 42
-0.045799
  0
VERTEX
  8
0
 10
374.581216
 20
40.461258
 42
0.040184
  0
VERTEX
  8
0
 10
376.048219
 20
41.600663
 42
0.127614
  0
VERTEX
  8
0
 10
376.719649
 20
42.633909
 42
0.097108
  0
VERTEX
  8
0
 10
376.900098
 20
44.027286
 42
0.017851
  0
VERTEX
  8
0
 10
376.638592
 20
46.620109
 42
0.021936
  0
VERTEX
  8
0
 10
376.289414
 20
48.538104
 42
0.015585
  0
VERTEX
  8
0
 10
375.737729
 20
50.653479
 42
0.015775
  0
VERTEX
  8
0
 10
375.083158
 20
52.643149
 42
0.031978
  0
VERTEX
  8
0
 10
374.421478
 20
54.151846
 42
-0.086987
  0
VERTEX
  8
0
 10
373.219584
 20
57.986764
 42
-0.015558
  0
VERTEX
  8
0
 10
372.474811
 20
65.480568
 42
-0.012748
  0
VERTEX
  8
0
 10
372.153683
 20
73.040572
 42
-0.143608
  0
VERTEX
  8
0
 10
372.941173
 20
75.904815
 42
0.135675
  0
VERTEX
  8
0
 10
373.185492
 20
76.742244
 42
0.056115
  0
VERTEX
  8
0
 10
373.069091
 20
77.926876
 42
0.043645
  0
VERTEX
  8
0
 10
372.620872
 20
79.389871
 42
0.023995
  0
VERTEX
  8
0
 10
371.835405
 20
81.091278
 42
-0.020078
  0
VERTEX
  8
0
 10
370.890664
 20
83.096282
 42
-0.063253
  0
VERTEX
  8
0
 10
370.489377
 20
84.524823
 42
-0.088763
  0
VERTEX
  8
0
 10
370.524809
 20
85.723487
 42
-0.071316
  0
VERTEX
  8
0
 10
370.966674
 20
86.937730
 42
-0.031236
  0
VERTEX
  8
0
 10
371.454836
 20
87.727107
 42
-0.038278
  0
VERTEX
  8
0
 10
372.008590
 20
88.394208
 42
-0.042033
  0
VERTEX
  8
0
 10
372.545926
 20
88.863059
 42
-0.159693
  0
VERTEX
  8
0
 10
372.963755
 20
89.000000
 42
0.172736
  0
VERTEX
  8
0
 10
374.317716
 20
89.482142
 42
0.070846
  0
VERTEX
  8
0
 10
375.659011
 20
90.936004
 42
0.065621
  0
VERTEX
  8
0
 10
376.650613
 20
92.875418
 42
0.087670
  0
VERTEX
  8
0
 10
376.978038
 20
94.821429
 42
0.051442
  0
VERTEX
  8
0
 10
376.829246
 20
96.156493
 42
0.017882
  0
VERTEX
  8
0
 10
376.350487
 20
98.035045
 42
0.017544
  0
VERTEX
  8
0
 10
375.671728
 20
100.080610
 42
0.019539
  0
VERTEX
  8
0
 10
374.872534
 20
102.000000
 42
-0.068442
  0
VERTEX
  8
0
 10
373.380475
 20
106.876089
 42
-0.019987
  0
VERTEX
  8
0
 10
372.436799
 20
114.682105
 42
-0.016737
  0
VERTEX
  8
0
 10
372.073869
 20
122.420360
 42
-0.131653
  0
VERTEX
  8
0
 10
372.950277
 20
125.875634
 42
0.106875
  0
VERTEX
  8
0
 10
373.232812
 20
126.797925
 42
0.076131
  0
VERTEX
  8
0
 10
373.159537
 20
127.879482
 42
0.056807
  0
VERTEX
  8
0
 10
372.715008
 20
129.164249
 42
0.026750
  0
VERTEX
  8
0
 10
371.871714
 20
130.707571
 42
-0.067858
  0
VERTEX
  8
0
 10
370.731251
 20
133.274711
 42
-0.146722
  0
VERTEX
  8
0
 10
370.750102
 20
135.414704
 42
-0.127670
  0
VERTEX
  8
0
 10
371.970807
 20
137.387347
 42
-0.045694
  0
VERTEX
  8
0
 10
374.581216
 20
139.461258
 42
0.040184
  0
VERTEX
  8
0
 10
376.048219
 20
140.600663
 42
0.127614
  0
VERTEX
  8
0
 10
376.719649
 20
141.633909
 42
0.097108
  0
VERTEX
  8
0
 10
376.900098
 20
143.027286
 42
0.017851
  0
VERTEX
  8
0
 10
376.638592
 20
145.620109
 42
0.021936
  0
VERTEX
  8
0
 10
376.289414
 20
147.538104
 42
0.015585
  0
VERTEX
  8
0
 10
375.737729
 20
149.653479
 42
0.015775
  0
VERTEX
  8
0
 10
375.083158
 20
151.643149
 42
0.031978
  0
VERTEX
  8
0
 10
374.421478
 20
153.151846
 42
-0.086987
  0
VERTEX
  8
0
 10
373.219584
 20
156.986764
 42
-0.015558
  0
VERTEX
  8
0
 10
372.474811
 20
164.480568
 42
-0.012748
  0
VERTEX
  8
0
 10
372.153683
 20
172.040572
 42
-0.143608
  0
VERTEX
  8
0
 10
372.941173
 20
174.904815
 42
0.135675
  0
VERTEX
  8
0
 10
373.185492
 20
175.742244
 42
0.056115
  0
VERTEX
  8
0
 10
373.069091
 20
176.926876
 42
0.043645
  0
VERTEX
  8
0
 10
372.620872
 20
178.389871
 42
0.023995
  0
VERTEX
  8
0
 10
371.835405
 20
180.091278
 42
-0.020078
  0
VERTEX
  8
0
 10
370.890664
 20
182.096282
 42
-0.063253
  0
VERTEX
  8
0
 10
370.489377
 20
183.524823
 42
-0.088763
  0
VERTEX
  8
0
 10
370.524809
 20
184.723487
 42
-0.071316
  0
VERTEX
  8
0
 10
370.966674
 20
185.937730
 42
-0.031236
  0
VERTEX
  8
0
 10
371.454836
 20
186.727107
 42
-0.038278
  0
VERTEX
  8
0
 10
372.008590
 20
187.394208
 42
-0.042033
  0
VERTEX
  8
0
 10
372.545926
 20
187.863059
 42
-0.159693
  0
VERTEX
  8
0
 10
372.963755
 20
188.000000
 42
0.172736
  0
VERTEX
  8
0
 10
374.317716
 20
188.482142
 42
0.070846
  0
VERTEX
  8
0
 10
375.659011
 20
189.936004
 42
0.065621
  0
VERTEX
  8
0
 10
376.650613
 20
191.875418
 42
0.087670
  0
VERTEX
  8
0
 10
376.978038
 20
193.821429
 42
0.051442
  0
VERTEX
  8
0
 10
376.829246
 20
195.156493
 42
0.017882
  0
VERTEX
  8
0
 10
376.350487
 20
197.035045
 42
0.017544
  0
VERTEX
  8
0
 10
375.671728
 20
199.080610
 42
0.019539
  0
VERTEX
  8
0
 10
374.872534
 20
201.000000
 42
-0.068442
  0
VERTEX
  8
0
 10
373.380475
 20
205.876089
 42
-0.019987
  0
VERTEX
  8
0
 10
372.436799
 20
213.682105
 42
-0.016737
  0
VERTEX
  8
0
 10
372.073869
 20
221.420360
 42
-0.131653
  0
VERTEX
  8
0
 10
372.950277
 20
224.875634
 42
0.106875
  0
VERTEX
  8
0
 10
373.232812
 20
225.797925
 42
0.076131
  0
VERTEX
  8
0
 10
373.159537
 20
226.879482
 42
0.056807
  0
VERTEX
  8
0
 10
372.715008
 20
228.164249
 42
0.026750
  0
VERTEX
  8
0
 10
371.871714
 20
229.707571
 42
-0.067858
  0
VERTEX
  8
0
 10
370.731251
 20
232.274711
 42
-0.146722
  0
VERTEX
  8
0
 10
370.750102
 20
234.414704
 42
-0.127670
  0
VERTEX
  8
0
 10
371.970807
 20
236.387347
 42
-0.045694
  0
VERTEX
  8
0
 10
374.581216
 20
238.461258
 42
0.040184
  0
VERTEX
  8
0
 10
376.048219
 20
239.600663
 42
0.127614
  0
VERTEX
  8
0
 10
376.719649
 20
240.633909
 42
0.097108
  0
VERTEX
  8
0
 10
376.900098
 20
242.027286
 42
0.017851
  0
VERTEX
  8
0
 10
376.638592
 20
244.620109
 42
0.021936
  0
VERTEX
  8
0
 10
376.289414
 20
246.538104
 42
0.015585
  0
VERTEX
  8
0
 10
375.737729
 20
248.653479
 42
0.015775
  0
VERTEX
  8
0
 10
375.083158
 20
250.643149
 42
0.031978
  0
VERTEX
  8
0
 10
374.421478
 20
252.151846
 42
-0.086987
  0
VERTEX
  8
0
 10
373.219584
 20
255.986764
 42
-0.015558
  0
VERTEX
  8
0
 10
372.474811
 20
263.480568
 42
-0.012748
  0
VERTEX
  8
0
 10
372.153683
 20
271.040572
 42
-0.143608
  0
VERTEX
  8
0
 10
372.941173
 20
273.904815
 42
0.135675
  0
VERTEX
  8
0
 10
373.185492
 20
274.742244
 42
0.056115
  0
VERTEX
  8
0
 10
373.069091
 20
275.926876
 42
0.043645
  0
VERTEX
  8
0
 10
372.620872
 20
277.389871
 42
0.023995
  0
VERTEX
  8
0
 10
371.835405
 20
279.091278
 42
-0.020078
  0
VERTEX
  8
0
 10
370.890664
 20
281.096282
 42
-0.063253
  0
VERTEX
  8
0
 10
370.489377
 20
282.524823
 42
-0.088763
  0
VERTEX
  8
0
 10
370.524809
 20
283.723487
 42
-0.071316
  0
VERTEX
  8
0
 10
370.966674
 20
284.937730
 42
-0.031236
  0
VERTEX
  8
0
 10
371.454836
 20
285.727107
 42
-0.038278
  0
VERTEX
  8
0
 10
372.008590
 20
286.394208
 42
-0.042033
  0
VERTEX
  8
0
 10
372.545926
 20
286.863059
 42
-0.159693
  0
VERTEX
  8
0
 10
372.963755
 20
287.000000
 42
0.172736
  0
VERTEX
  8
0
 10
374.317716
 20
287.482142
 42
0.070846
  0
VERTEX
  8
0
 10
375.659011
 20
288.936004
 42
0.065621
  0
VERTEX
  8
0
 10
376.650613
 20
290.875418
 42
0.087670
  0
VERTEX
  8
0
 10
376.978038
 20
292.821429
 42
0.051442
  0
VERTEX
  8
0
 10
376.829246
 20
294.156493
 42
0.017882
  0
VERTEX
  8
0
 10
376.350487
 20
296.035045
 42
0.017544
  0
VERTEX
  8
0
 10
375.671728
 20
298.080610
 42
0.019539
  0
VERTEX
  8
0
 10
374.872534
 20
300.000000
 42
-0.068442
  0
VERTEX
  8
0
 10
373.380475
 20
304.876089
 42
-0.019987
  0
VERTEX
  8
0
 10
372.436799
 20
312.682105
 42
-0.016737
  0
VERTEX
  8
0
 10
372.073869
 20
320.420360
 42
-0.131653
  0
VERTEX
  8
0
 10
372.950277
 20
323.875634
 42
0.106875
  0
VERTEX
  8
0
 10
373.232812
 20
324.797925
 42
0.076131
  0
VERTEX
  8
0
 10
373.159537
 20
325.879482
 42
0.056807
  0
VERTEX
  8
0
 10
372.715008
 20
327.164249
 42
0.026750
  0
VERTEX
  8
0
 10
371.871714
 20
328.707571
 42
-0.067858
  0
VERTEX
  8
0
 10
370.731251
 20
331.274711
 42
-0.146722
  0
VERTEX
  8
0
 10
370.750102
 20
333.414704
 42
-0.127670
  0
VERTEX
  8
0
 10
371.970807
 20
335.387347
 42
-0.045694
  0
VERTEX
  8
0
 10
374.581216
 20
337.461258
 42
0.040184
  0
VERTEX
  8
0
 10
376.048219
 20
338.600663
 42
0.127614
  0
VERTEX
  8
0
 10
376.719649
 20
339.633909
 42
0.097108
  0
VERTEX
  8
0
 10
376.900098
 20
341.027286
 42
0.017851
  0
VERTEX
  8
0
 10
376.638592
 20
343.620109
 42
0.021936
  0
VERTEX
  8
0
 10
376.289414
 20
345.538104
 42
0.015585
  0
VERTEX
  8
0
 10
375.737729
 20
347.653479
 42
0.015775
  0
VERTEX
  8
0
 10
375.083158
 20
349.643149
 42
0.031978
  0
VERTEX
  8
0
 10
374.421478
 20
351.151846
 42
-0.087055
  0
VERTEX
  8
0
 10
373.210806
 20
355.016595
 42
-0.015892
  0
VERTEX
  8
0
 10
372.473533
 20
362.506238
 42
-0.013106
  0
VERTEX
  8
0
 10
372.170437
 20
370.054826
 42
-0.142833
  0
VERTEX
  8
0
 10
372.972831
 20
372.956040
 42
0.110445
  0
VERTEX
  8
0
 10
373.252550
 20
373.763249
 42
0.072365
  0
VERTEX
  8
0
 10
373.222015
 20
374.751164
 42
0.057164
  0
VERTEX
  8
0
 10
372.878480
 20
375.904133
 42
0.032456
  0
VERTEX
  8
0
 10
372.219966
 20
377.204773
 42
0.022407
  0
VERTEX
  8
0
 10
370.955272
 20
379.141986
 42
0.158194
  0
VERTEX
  8
0
 10
370.060777
 20
379.799440
 42
0.151837
  0
VERTEX
  8
0
 10
368.932064
 20
379.820519
 42
0.020158
  0
VERTEX
  8
0
 10
366.641350
 20
379.053741
 42
-0.088973
  0
VERTEX
  8
0
 10
365.068819
 20
378.758088
 42
-0.089819
  0
VERTEX
  8
0
 10
363.497115
 20
379.029168
 42
-0.050124
  0
VERTEX
  8
0
 10
361.463821
 20
380.011655
 42
-0.010262
  0
VERTEX
  8
0
 10
358.101698
 20
382.170495
 42
0.020909
  0
VERTEX
  8
0
 10
353.250231
 20
385.141742
 42
0.165654
  0
VERTEX
  8
0
 10
350.696158
 20
385.604870
 42
0.318544
  0
VERTEX
  8
0
 10
349.351138
 20
384.311796
 42
0.065192
  0
VERTEX
  8
0
 10
349.148364
 20
380.826978
 42
-0.044825
  0
VERTEX
  8
0
 10
349.091992
 20
377.608421
 42
-0.279650
  0
VERTEX
  8
0
 10
348.133232
 20
376.353682
 42
-0.218434
  0
VERTEX
  8
0
 10
346.349475
 20
376.455742
 42
-0.029695
  0
VERTEX
  8
0
 10
343.072572
 20
378.449707
 42
0.024339
  0
VERTEX
  8
0
 10
341.195227
 20
379.619772
 42
0.047872
  0
VERTEX
  8
0
 10
339.585558
 20
380.325139
 42
0.060604
  0
VERTEX
  8
0
 10
338.158151
 20
380.608952
 42
0.080452
  0
VERTEX
  8
0
 10
336.841204
 20
380.496281
 42
-0.052953
  0
VERTEX
  8
0
 10
335.636770
 20
380.326429
 42
-0.020486
  0
VERTEX
  8
0
 10
333.948792
 20
380.337695
 42
-0.020009
  0
VERTEX
  8
0
 10
332.105272
 20
380.499700
 42
-0.023341
  0
VERTEX
  8
0
 10
330.374137
 20
380.804602
 42
0.034208
  0
VERTEX
  8
0
 10
328.138032
 20
381.148563
 42
0.041300
  0
VERTEX
  8
0
 10
326.014140
 20
381.152138
 42
0.036185
  0
VERTEX
  8
0
 10
323.704452
 20
380.795484
 42
0.018632
  0
VERTEX
  8
0
 10
320.877414
 20
380.034936
 42
-0.022033
  0
VERTEX
  8
0
 10
316.731986
 20
378.949877
 42
-0.103730
  0
VERTEX
  8
0
 10
314.284706
 20
378.937086
 42
-0.091643
  0
VERTEX
  8
0
 10
311.891800
 20
379.904708
 42
-0.015181
  0
VERTEX
  8
0
 10
307.762782
 20
382.713807
 42
0.026516
  0
VERTEX
  8
0
 10
303.564792
 20
385.432757
 42
0.193940
  0
VERTEX
  8
0
 10
301.239023
 20
385.757182
 42
0.298061
  0
VERTEX
  8
0
 10
299.955149
 20
384.370486
 42
0.054796
  0
VERTEX
  8
0
 10
299.742467
 20
380.712575
 42
-0.038124
  0
VERTEX
  8
0
 10
299.657259
 20
377.278178
 42
-0.297035
  0
VERTEX
  8
0
 10
298.699736
 20
376.090419
 42
-0.207077
  0
VERTEX
  8
0
 10
296.896783
 20
376.259558
 42
-0.020674
  0
VERTEX
  8
0
 10
293.103275
 20
378.550354
 42
0.024371
  0
VERTEX
  8
0
 10
291.191751
 20
379.685476
 42
0.048518
  0
VERTEX
  8
0
 10
289.565246
 20
380.354397
 42
0.060885
  0
VERTEX
  8
0
 10
288.113270
 20
380.606027
 42
0.074106
  0
VERTEX
  8
0
 10
286.741210
 20
380.471184
 42
-0.053772
  0
VERTEX
  8
0
 10
285.518453
 20
380.300787
 42
-0.023584
  0
VERTEX
  8
0
 10
283.880988
 20
380.327213
 42
-0.023013
  0
VERTEX
  8
0
 10
282.129480
 20
380.519443
 42
-0.028525
  0
VERTEX
  8
0
 10
280.526466
 20
380.865081
 42
0.039081
  0
VERTEX
  8
0
 10
278.386476
 20
381.279480
 42
0.049491
  0
VERTEX
  8
0
 10
276.373293
 20
381.308179
 42
0.039329
  0
VERTEX
  8
0
 10
274.060591
 20
380.927206
 42
0.014964
  0
VERTEX
  8
0
 10
270.910054
 20
380.049137
 42
0.000000
  0
VERTEX
  8
0
 10
265.000165
 20
378.209773
 42
0.000000
  0
VERTEX
  8
0
 10
259.025530
 20
382.221640
 42
0.021297
  0
VERTEX
  8
0
 10
254.225508
 20
385.156265
 42
0.167025
  0
VERTEX
  8
0
 10
251.687421
 20
385.605444
 42
0.317009
  0
VERTEX
  8
0
 10
250.348621
 20
384.307754
 42
0.064864
  0
VERTEX
  8
0
 10
250.148364
 20
380.826978
 42
-0.044825
  0
VERTEX
  8
0
 10
250.091992
 20
377.608421
 42
-0.279650
  0
VERTEX
  8
0
 10
249.133232
 20
376.353682
 42
-0.218434
  0
VERTEX
  8
0
 10
247.349475
 20
376.455742
 42
-0.029695
  0
VERTEX
  8
0
 10
244.072572
 20
378.449707
 42
0.024339
  0
VERTEX
  8
0
 10
242.195227
 20
379.619772
 42
0.047872
  0
VERTEX
  8
0
 10
240.585558
 20
380.325139
 42
0.060604
  0
VERTEX
  8
0
 10
239.158151
 20
380.608952
 42
0.080452
  0
VERTEX
  8
0
 10
237.841204
 20
380.496281
 42
-0.052953
  0
VERTEX
  8
0
 10
236.636770
 20
380.326429
 42
-0.020486
  0
VERTEX
  8
0
 10
234.948792
 20
380.337695
 42
-0.020009
  0
VERTEX
  8
0
 10
233.105272
 20
380.499700
 42
-0.023341
  0
VERTEX
  8
0
 10
231.374137
 20
380.804602
 42
0.034208
  0
VERTEX
  8
0
 10
229.138032
 20
381.148563
 42
0.041300
  0
VERTEX
  8
0
 10
227.014140
 20
381.152138
 42
0.036185
  0
VERTEX
  8
0
 10
224.704452
 20
380.795484
 42
0.018632
  0
VERTEX
  8
0
 10
221.877414
 20
380.034936
 42
-0.022033
  0
VERTEX
  8
0
 10
217.731986
 20
378.949877
 42
-0.103730
  0
VERTEX
  8
0
 10
215.284706
 20
378.937086
 42
-0.091643
  0
VERTEX
  8
0
 10
212.891800
 20
379.904708
 42
-0.015181
  0
VERTEX
  8
0
 10
208.762782
 20
382.713807
 42
0.026516
  0
VERTEX
  8
0
 10
204.564792
 20
385.432757
 42
0.193940
  0
VERTEX
  8
0
 10
202.239023
 20
385.757182
 42
0.298061
  0
VERTEX
  8
0
 10
200.955149
 20
384.370486
 42
0.054796
  0
VERTEX
  8
0
 10
200.742467
 20
380.712575
 42
-0.038124
  0
VERTEX
  8
0
 10
200.657259
 20
377.278178
 42
-0.297035
  0
VERTEX
  8
0
 10
199.699736
 20
376.090419
 42
-0.207077
  0
VERTEX
  8
0
 10
197.896783
 20
376.259558
 42
-0.020674
  0
VERTEX
  8
0
 10
194.103275
 20
378.550354
 42
0.024371
  0
VERTEX
  8
0
 10
192.191751
 20
379.685476
 42
0.048518
  0
VERTEX
  8
0
 10
190.565246
 20
380.354397
 42
0.060885
  0
VERTEX
  8
0
 10
189.113270
 20
380.606027
 42
0.074106
  0
VERTEX
  8
0
 10
187.741210
 20
380.471184
 42
-0.053772
  0
VERTEX
  8
0
 10
186.518453
 20
380.300787
 42
-0.023584
  0
VERTEX
  8
0
 10
184.880988
 20
380.327213
 42
-0.023013
  0
VERTEX
  8
0
 10
183.129480
 20
380.519443
 42
-0.028525
  0
VERTEX
  8
0
 10
181.526466
 20
380.865081
 42
0.039081
  0
VERTEX
  8
0
 10
179.386476
 20
381.279480
 42
0.049491
  0
VERTEX
  8
0
 10
177.373293
 20
381.308179
 42
0.039329
  0
VERTEX
  8
0
 10
175.060591
 20
380.927206
 42
0.014964
  0
VERTEX
  8
0
 10
171.910054
 20
380.049137
 42
0.000000
  0
VERTEX
  8
0
 10
166.000165
 20
378.209773
 42
0.000000
  0
VERTEX
  8
0
 10
160.025530
 20
382.221640
 42
0.021297
  0
VERTEX
  8
0
 10
155.225508
 20
385.156265
 42
0.167025
  0
VERTEX
  8
0
 10
152.687421
 20
385.605444
 42
0.317009
  0
VERTEX
  8
0
 10
151.348621
 20
384.307754
 42
0.064864
  0
VERTEX
  8
0
 10
151.148364
 20
380.826978
 42
-0.044825
  0
VERTEX
  8
0
 10
151.091992
 20
377.608421
 42
-0.279650
  0
VERTEX
  8
0
 10
150.133232
 20
376.353682
 42
-0.218434
  0
VERTEX
  8
0
 10
148.349475
 20
376.455742
 42
-0.029695
  0
VERTEX
  8
0
 10
145.072572
 20
378.449707
 42
0.024339
  0
VERTEX
  8
0
 10
143.195227
 20
379.619772
 42
0.047872
  0
VERTEX
  8
0
 10
141.585558
 20
380.325139
 42
0.060604
  0
VERTEX
  8
0
 10
140.158151
 20
380.608952
 42
0.080452
  0
VERTEX
  8
0
 10
138.841204
 20
380.496281
 42
-0.052953
  0
VERTEX
  8
0
 10
137.636770
 20
380.326429
 42
-0.020486
  0
VERTEX
  8
0
 10
135.948792
 20
380.337695
 42
-0.020009
  0
VERTEX
  8
0
 10
134.105272
 20
380.499700
 42
-0.023341
  0
VERTEX
  8
0
 10
132.374137
 20
380.804602
 42
0.034208
  0
VERTEX
  8
0
 10
130.138032
 20
381.148563
 42
0.041300
  0
VERTEX
  8
0
 10
128.014140
 20
381.152138
 42
0.036185
  0
VERTEX
  8
0
 10
125.704452
 20
380.795484
 42
0.018632
  0
VERTEX
  8
0
 10
122.877414
 20
380.034936
 42
-0.022033
  0
VERTEX
  8
0
 10
118.731986
 20
378.949877
 42
-0.103730
  0
VERTEX
  8
0
 10
116.284706
 20
378.937086
 42
-0.091643
  0
VERTEX
  8
0
 10
113.891800
 20
379.904708
 42
-0.015181
  0
VERTEX
  8
0
 10
109.762782
 20
382.713807
 42
0.026516
  0
VERTEX
  8
0
 10
105.564792
 20
385.432757
 42
0.193940
  0
VERTEX
  8
0
 10
103.239023
 20
385.757182
 42
0.298061
  0
VERTEX
  8
0
 10
101.955149
 20
384.370486
 42
0.054796
  0
VERTEX
  8
0
 10
101.742467
 20
380.712575
 42
-0.038124
  0
VERTEX
  8
0
 10
101.657259
 20
377.278178
 42
-0.297035
  0
VERTEX
  8
0
 10
100.699736
 20
376.090419
 42
-0.207077
  0
VERTEX
  8
0
 10
98.896783
 20
376.259558
 42
-0.020674
  0
VERTEX
  8
0
 10
95.103275
 20
378.550354
 42
0.024371
  0
VERTEX
  8
0
 10
93.191751
 20
379.685476
 42
0.048518
  0
VERTEX
  8
0
 10
91.565246
 20
380.354397
 42
0.060885
  0
VERTEX
  8
0
 10
90.113270
 20
380.606027
 42
0.074106
  0
VERTEX
  8
0
 10
88.741210
 20
380.471184
 42
-0.053772
  0
VERTEX
  8
0
 10
87.518453
 20
380.300787
 42
-0.023584
  0
VERTEX
  8
0
 10
85.880988
 20
380.327213
 42
-0.023013
  0
VERTEX
  8
0
 10
84.129480
 20
380.519443
 42
-0.028525
  0
VERTEX
  8
0
 10
82.526466
 20
380.865081
 42
0.039081
  0
VERTEX
  8
0
 10
80.386476
 20
381.279480
 42
0.049491
  0
VERTEX
  8
0
 10
78.373293
 20
381.308179
 42
0.039329
  0
VERTEX
  8
0
 10
76.060591
 20
380.927206
 42
0.014964
  0
VERTEX
  8
0
 10
72.910054
 20
380.049137
 42
0.000000
  0
VERTEX
  8
0
 10
67.000165
 20
378.209773
 42
0.000000
  0
VERTEX
  8
0
 10
61.025530
 20
382.221640
 42
0.021297
  0
VERTEX
  8
0
 10
56.225508
 20
385.156265
 42
0.167025
  0
VERTEX
  8
0
 10
53.687421
 20
385.605444
 42
0.317009
  0
VERTEX
  8
0
 10
52.348621
 20
384.307754
 42
0.064864
  0
VERTEX
  8
0
 10
52.148364
 20
380.826978
 42
-0.044825
  0
VERTEX
  8
0
 10
52.091992
 20
377.608421
 42
-0.279650
  0
VERTEX
  8
0
 10
51.133232
 20
376.353682
 42
-0.218434
  0
VERTEX
  8
0
 10
49.349475
 20
376.455742
 42
-0.029695
  0
VERTEX
  8
0
 10
46.072572
 20
378.449707
 42
0.024339
  0
VERTEX
  8
0
 10
44.195227
 20
379.619772
 42
0.047872
  0
VERTEX
  8
0
 10
42.585558
 20
380.325139
 42
0.060604
  0
VERTEX
  8
0
 10
41.158151
 20
380.608952
 42
0.080452
  0
VERTEX
  8
0
 10
39.841204
 20
380.496281
 42
-0.052953
  0
VERTEX
  8
0
 10
38.636770
 20
380.326429
 42
-0.020486
  0
VERTEX
  8
0
 10
36.948792
 20
380.337695
 42
-0.020009
  0
VERTEX
  8
0
 10
35.105272
 20
380.499700
 42
-0.023341
  0
VERTEX
  8
0
 10
33.374137
 20
380.804602
 42
0.034208
  0
VERTEX
  8
0
 10
31.138032
 20
381.148563
 42
0.041300
  0
VERTEX
  8
0
 10
29.014140
 20
381.152138
 42
0.036185
  0
VERTEX
  8
0
 10
26.704452
 20
380.795484
 42
0.018632
  0
VERTEX
  8
0
 10
23.877414
 20
380.034936
 42
-0.021849
  0
VERTEX
  8
0
 10
19.741386
 20
378.950712
 42
-0.102895
  0
VERTEX
  8
0
 10
17.299539
 20
378.932120
 42
-0.092138
  0
VERTEX
  8
0
 10
14.922169
 20
379.885014
 42
-0.015669
  0
VERTEX
  8
0
 10
10.866023
 20
382.638021
 42
0.021074
  0
VERTEX
  8
0
 10
7.641366
 20
384.776144
 42
0.069261
  0
VERTEX
  8
0
 10
5.299200
 20
385.780378
 42
0.130330
  0
VERTEX
  8
0
 10
3.625643
 20
385.793018
 42
0.193766
  0
SEQEND
  0
ENDSEC
  0
EOF
