  0
SECTION
  2
HEADER
  9
$ACADVER
  1
AC1006
  9
$EXTMIN
 10
0.000000
 20
0.000000
 30
0.000000
  9
$EXTMAX
 10
396.000000
 20
403.000000
 30
0.000000
  0
ENDSEC
  0
SECTION
  2
ENTITIES
  0
POLYLINE
  8
0
 66
1
 70
1
  0
VERTEX
  8
0
 10
184.000000
 20
401.945596
 42
0.020241
  0
VERTEX
  8
0
 10
164.836648
 20
399.631775
 42
0.025675
  0
VERTEX
  8
0
 10
147.409403
 20
395.881289
 42
0.025957
  0
VERTEX
  8
0
 10
130.614068
 20
390.404548
 42
0.021482
  0
VERTEX
  8
0
 10
113.354737
 20
382.901593
 42
0.054553
  0
VERTEX
  8
0
 10
76.804699
 20
359.883158
 42
0.054810
  0
VERTEX
  8
0
 10
46.161989
 20
329.537027
 42
0.054314
  0
VERTEX
  8
0
 10
22.617991
 20
292.984844
 42
0.051767
  0
VERTEX
  8
0
 10
7.040987
 20
251.634649
 42
0.006149
  0
VERTEX
  8
0
 10
5.872053
 20
246.949962
 42
0.005572
  0
VERTEX
  8
0
 10
4.777864
 20
242.081741
 42
0.005586
  0
VERTEX
  8
0
 10
3.895695
 20
237.702247
 42
0.017748
  0
VERTEX
  8
0
 10
3.443141
 20
234.750000
 42
0.000000
  0
VERTEX
  8
0
 10
2.769553
 20
229.000000
 42
0.000000
  0
VERTEX
  8
0
 10
173.384777
 20
229.000000
 42
0.000000
  0
VERTEX
  8
0
 10
344.000000
 20
229.000000
 42
0.000000
  0
VERTEX
  8
0
 10
344.000000
 20
224.000000
 42
0.000000
  0
VERTEX
  8
0
 10
344.000000
 20
219.000000
 42
0.000000
  0
VERTEX
  8
0
 10
172.500000
 20
219.000000
 42
0.000000
  0
VERTEX
  8
0
 10
1.000000
 20
219.000000
 42
0.000000
  0
VERTEX
  8
0
 10
0.883538
 20
210.750000
 42
0.007556
  0
VERTEX
  8
0
 10
0.894119
 20
200.121928
 42
0.006938
  0
VERTEX
  8
0
 10
1.221921
 20
189.192074
 42
0.006530
  0
VERTEX
  8
0
 10
1.770613
 20
179.562454
 42
0.030078
  0
VERTEX
  8
0
 10
2.495281
 20
174.024502
 42
-0.007600
  0
VERTEX
  8
0
 10
2.674540
 20
173.010965
 42
-0.001761
  0
VERTEX
  8
0
 10
2.944129
 20
171.300577
 42
-0.001817
  0
VERTEX
  8
0
 10
3.240468
 20
169.328826
 42
-0.001778
  0
VERTEX
  8
0
 10
3.524700
 20
167.340451
 42
0.027647
  0
VERTEX
  8
0
 10
5.961264
 20
154.919658
 42
0.017187
  0
VERTEX
  8
0
 10
10.114149
 20
140.658024
 42
0.016418
  0
VERTEX
  8
0
 10
15.549805
 20
125.792808
 42
0.017030
  0
VERTEX
  8
0
 10
21.888900
 20
111.500000
 42
0.028548
  0
VERTEX
  8
0
 10
32.458991
 20
92.540373
 42
0.027465
  0
VERTEX
  8
0
 10
45.246047
 20
74.651154
 42
0.027016
  0
VERTEX
  8
0
 10
60.138152
 20
57.994299
 42
0.025588
  0
VERTEX
  8
0
 10
77.000000
 20
42.718295
 42
0.039213
  0
VERTEX
  8
0
 10
97.123909
 20
28.756629
 42
0.029588
  0
VERTEX
  8
0
 10
121.137930
 20
16.588585
 42
0.029763
  0
VERTEX
  8
0
 10
146.208389
 20
7.427759
 42
0.041859
  0
VERTEX
  8
0
 10
169.500000
 20
2.532618
 42
-0.001701
  0
VERTEX
  8
0
 10
171.843682
 20
2.233633
 42
-0.000861
  0
VERTEX
  8
0
 10
174.793750
 20
1.841921
 42
-0.000855
  0
VERTEX
  8
0
 10
177.838427
 20
1.427009
 42
-0.001275
  0
VERTEX
  8
0
 10
180.500000
 20
1.052751
 42
0.033233
  0
VERTEX
  8
0
 10
189.014349
 20
0.406073
 42
0.009740
  0
VERTEX
  8
0
 10
202.139023
 20
0.538840
 42
0.010183
  0
VERTEX
  8
0
 10
215.760452
 20
1.219927
 42
0.020229
  0
VERTEX
  8
0
 10
226.500000
 20
2.414506
 42
0.040216
  0
VERTEX
  8
0
 10
258.865114
 20
10.047788
 42
0.043523
  0
VERTEX
  8
0
 10
288.704806
 20
22.628490
 42
0.042993
  0
VERTEX
  8
0
 10
316.226660
 20
40.343715
 42
0.037516
  0
VERTEX
  8
0
 10
341.691857
 20
63.263858
 42
0.040246
  0
VERTEX
  8
0
 10
360.048402
 20
85.847876
 42
0.036789
  0
VERTEX
  8
0
 10
375.172001
 20
111.748139
 42
0.036468
  0
VERTEX
  8
0
 10
386.454108
 20
139.826727
 42
0.037858
  0
VERTEX
  8
0
 10
393.368124
 20
168.899680
 42
0.000000
  0
VERTEX
  8
0
 10
394.657072
 20
177.000000
 42
0.000000
  0
VERTEX
  8
0
 10
228.328536
 20
177.000000
 42
0.000000
  0
VERTEX
  8
0
 10
62.000000
 20
177.000000
 42
0.000000
  0
VERTEX
  8
0
 10
62.000000
 20
182.500000
 42
0.000000
  0
VERTEX
  8
0
 10
62.000000
 20
188.000000
 42
0.000000
  0
VERTEX
  8
0
 10
229.124049
 20
188.000000
 42
0.000000
  0
VERTEX
  8
0
 10
396.248098
 20
188.000000
 42
0.000000
  0
VERTEX
  8
0
 10
395.723882
 20
205.750000
 42
0.002358
  0
VERTEX
  8
0
 10
395.485731
 20
212.702585
 42
0.003316
  0
VERTEX
  8
0
 10
395.202909
 20
218.902277
 42
0.001958
  0
VERTEX
  8
0
 10
394.909632
 20
224.121349
 42
0.044986
  0
VERTEX
  8
0
 10
394.686489
 20
225.598178
 42
-0.017230
  0
VERTEX
  8
0
 10
394.446971
 20
226.747741
 42
-0.004156
  0
VERTEX
  8
0
 10
394.132057
 20
228.666802
 42
-0.004261
  0
VERTEX
  8
0
 10
393.807594
 20
230.876209
 42
-0.004219
  0
VERTEX
  8
0
 10
393.519693
 20
233.098178
 42
0.022886
  0
VERTEX
  8
0
 10
392.322057
 20
240.238648
 42
0.008946
  0
VERTEX
  8
0
 10
390.044029
 20
249.975120
 42
0.008932
  0
VERTEX
  8
0
 10
387.242535
 20
260.274173
 42
0.012270
  0
VERTEX
  8
0
 10
384.333237
 20
269.419646
 42
0.050549
  0
VERTEX
  8
0
 10
368.022973
 20
304.653530
 42
0.048648
  0
VERTEX
  8
0
 10
344.796069
 20
336.391499
 42
0.048504
  0
VERTEX
  8
0
 10
315.800513
 20
363.127221
 42
0.049612
  0
VERTEX
  8
0
 10
282.406267
 20
383.546173
 42
0.034569
  0
VERTEX
  8
0
 10
259.276003
 20
392.799276
 42
0.031659
  0
VERTEX
  8
0
 10
234.405279
 20
399.100463
 42
0.031651
  0
VERTEX
  8
0
 10
208.931232
 20
402.212421
 42
0.034504
  0
SEQEND
  0
ENDSEC
  0
EOF
