  0
SECTION
  2
HEADER
  9
$ACADVER
  1
AC1006
  9
$EXTMIN
 10
0.000000
 20
0.000000
 30
0.000000
  9
$EXTMAX
 10
425.000000
 20
425.000000
 30
0.000000
  0
ENDSEC
  0
SECTION
  2
ENTITIES
  0
POLYLINE
  8
0
 66
1
 70
1
  0
VERTEX
  8
0
 10
213.384859
 20
422.800893
 42
0.029464
  0
VERTEX
  8
0
 10
209.998157
 20
419.888549
 42
0.003508
  0
VERTEX
  8
0
 10
202.934146
 20
412.953838
 42
0.003961
  0
VERTEX
  8
0
 10
195.990641
 20
405.930686
 42
0.021904
  0
VERTEX
  8
0
 10
192.455106
 20
401.963847
 42
0.014715
  0
VERTEX
  8
0
 10
189.681007
 20
398.350405
 42
0.011230
  0
VERTEX
  8
0
 10
186.853670
 20
394.242929
 42
0.006168
  0
VERTEX
  8
0
 10
184.362015
 20
390.338975
 42
0.139833
  0
VERTEX
  8
0
 10
184.000000
 20
389.069825
 42
-0.074566
  0
VERTEX
  8
0
 10
183.938699
 20
388.661060
 42
-0.088524
  0
VERTEX
  8
0
 10
183.760656
 20
388.314261
 42
-0.100661
  0
VERTEX
  8
0
 10
183.495934
 20
388.082428
 42
-0.130385
  0
VERTEX
  8
0
 10
183.185212
 20
388.000000
 42
0.266221
  0
VERTEX
  8
0
 10
182.337412
 20
387.514163
 42
0.010842
  0
VERTEX
  8
0
 10
180.556030
 20
384.317245
 42
0.013274
  0
VERTEX
  8
0
 10
178.951871
 20
381.080579
 42
0.168918
  0
VERTEX
  8
0
 10
178.819827
 20
379.750000
 42
-0.136795
  0
VERTEX
  8
0
 10
178.809506
 20
379.464545
 42
-0.131197
  0
VERTEX
  8
0
 10
178.653324
 20
379.220312
 42
-0.109758
  0
VERTEX
  8
0
 10
178.368557
 20
379.056393
 42
-0.076062
  0
VERTEX
  8
0
 10
178.000000
 20
379.000000
 42
0.151449
  0
VERTEX
  8
0
 10
177.618632
 20
378.881773
 42
0.098371
  0
VERTEX
  8
0
 10
177.293750
 20
378.549040
 42
0.081304
  0
VERTEX
  8
0
 10
177.074604
 20
378.051780
 42
0.063296
  0
VERTEX
  8
0
 10
177.000000
 20
377.464817
 42
-0.071558
  0
VERTEX
  8
0
 10
176.890997
 20
376.707081
 42
-0.024503
  0
VERTEX
  8
0
 10
176.525591
 20
375.656554
 42
-0.023775
  0
VERTEX
  8
0
 10
176.003136
 20
374.521202
 42
-0.025310
  0
VERTEX
  8
0
 10
175.384990
 20
373.464817
 42
0.019798
  0
VERTEX
  8
0
 10
174.817241
 20
372.518631
 42
0.039726
  0
VERTEX
  8
0
 10
174.461017
 20
371.724040
 42
0.064066
  0
VERTEX
  8
0
 10
174.342653
 20
371.179622
 42
0.439670
  0
VERTEX
  8
0
 10
174.507435
 20
371.000000
 42
-0.345385
  0
VERTEX
  8
0
 10
174.675797
 20
370.867948
 42
-0.142649
  0
VERTEX
  8
0
 10
174.662576
 20
370.559375
 42
-0.064048
  0
VERTEX
  8
0
 10
174.426791
 20
370.076364
 42
-0.027676
  0
VERTEX
  8
0
 10
174.000000
 20
369.500000
 42
0.027963
  0
VERTEX
  8
0
 10
173.573717
 20
368.923630
 42
0.064878
  0
VERTEX
  8
0
 10
173.339608
 20
368.440625
 42
0.144806
  0
VERTEX
  8
0
 10
173.329078
 20
368.132287
 42
0.341777
  0
VERTEX
  8
0
 10
173.500000
 20
368.000000
 42
-0.331068
  0
VERTEX
  8
0
 10
173.673504
 20
367.870975
 42
-0.151187
  0
VERTEX
  8
0
 10
173.671071
 20
367.572243
 42
-0.067398
  0
VERTEX
  8
0
 10
173.448701
 20
367.103358
 42
-0.028831
  0
VERTEX
  8
0
 10
173.036355
 20
366.543805
 42
0.066393
  0
VERTEX
  8
0
 10
172.630365
 20
365.896431
 42
0.064466
  0
VERTEX
  8
0
 10
172.403179
 20
365.158830
 42
0.069706
  0
VERTEX
  8
0
 10
172.381201
 20
364.446499
 42
0.111770
  0
VERTEX
  8
0
 10
172.577955
 20
363.873866
 42
-0.059232
  0
VERTEX
  8
0
 10
172.821197
 20
363.350752
 42
-0.393571
  0
VERTEX
  8
0
 10
172.710958
 20
363.112261
 42
-0.171655
  0
VERTEX
  8
0
 10
172.305584
 20
363.092822
 42
-0.019001
  0
VERTEX
  8
0
 10
171.414045
 20
363.398275
 42
0.023016
  0
VERTEX
  8
0
 10
166.848344
 20
364.921696
 42
0.007043
  0
VERTEX
  8
0
 10
159.820012
 20
366.805984
 42
0.007296
  0
VERTEX
  8
0
 10
152.562604
 20
368.530234
 42
0.016387
  0
VERTEX
  8
0
 10
147.000000
 20
369.576382
 42
-0.005926
  0
VERTEX
  8
0
 10
145.529578
 20
369.821193
 42
-0.005261
  0
VERTEX
  8
0
 10
144.005701
 20
370.110081
 42
-0.005287
  0
VERTEX
  8
0
 10
142.639718
 20
370.399014
 42
-0.016120
  0
VERTEX
  8
0
 10
141.721535
 20
370.634697
 42
0.056577
  0
VERTEX
  8
0
 10
134.937056
 20
371.802540
 42
0.007955
  0
VERTEX
  8
0
 10
120.722482
 20
372.393061
 42
0.009578
  0
VERTEX
  8
0
 10
106.213017
 20
372.486693
 42
0.028027
  0
VERTEX
  8
0
 10
96.236296
 20
371.799785
 42
0.003581
  0
VERTEX
  8
0
 10
85.277465
 20
370.345381
 42
0.005271
  0
VERTEX
  8
0
 10
75.674292
 20
368.897470
 42
0.002563
  0
VERTEX
  8
0
 10
67.549628
 20
367.541974
 42
0.096075
  0
VERTEX
  8
0
 10
65.812510
 20
366.884144
 42
0.262793
  0
VERTEX
  8
0
 10
64.140838
 20
363.847786
 42
0.005564
  0
VERTEX
  8
0
 10
64.527958
 20
346.114177
 42
0.012937
  0
VERTEX
  8
0
 10
65.543357
 20
328.872902
 42
0.038914
  0
VERTEX
  8
0
 10
67.448727
 20
317.250000
 42
-0.001068
  0
VERTEX
  8
0
 10
67.688856
 20
316.260789
 42
-0.000751
  0
VERTEX
  8
0
 10
67.954968
 20
315.146875
 42
-0.000758
  0
VERTEX
  8
0
 10
68.206413
 20
314.080125
 42
-0.001590
  0
VERTEX
  8
0
 10
68.397972
 20
313.250000
 42
0.032467
  0
VERTEX
  8
0
 10
68.696512
 20
312.244150
 42
0.005183
  0
VERTEX
  8
0
 10
69.427221
 20
310.325000
 42
0.005720
  0
VERTEX
  8
0
 10
70.338626
 20
308.079749
 42
0.004984
  0
VERTEX
  8
0
 10
71.342943
 20
305.750000
 42
-0.004899
  0
VERTEX
  8
0
 10
72.294057
 20
303.544698
 42
-0.008452
  0
VERTEX
  8
0
 10
73.036255
 20
301.689062
 42
-0.003121
  0
VERTEX
  8
0
 10
73.619483
 20
300.126966
 42
-0.521211
  0
VERTEX
  8
0
 10
73.530772
 20
300.000000
 42
0.533407
  0
VERTEX
  8
0
 10
73.448483
 20
299.877303
 42
0.004338
  0
VERTEX
  8
0
 10
73.983169
 20
298.605350
 42
0.009856
  0
VERTEX
  8
0
 10
74.679006
 20
297.073288
 42
0.005652
  0
VERTEX
  8
0
 10
75.575215
 20
295.252256
 42
0.000000
  0
VERTEX
  8
0
 10
77.978829
 20
290.504511
 42
0.000000
  0
VERTEX
  8
0
 10
75.419537
 20
289.820051
 42
0.061721
  0
VERTEX
  8
0
 10
71.889085
 20
288.391032
 42
0.006207
  0
VERTEX
  8
0
 10
63.993520
 20
283.867076
 42
0.002380
  0
VERTEX
  8
0
 10
55.618232
 20
278.875282
 42
0.262960
  0
VERTEX
  8
0
 10
55.000000
 20
277.781042
 42
-0.140316
  0
VERTEX
  8
0
 10
54.914738
 20
277.483201
 42
-0.099918
  0
VERTEX
  8
0
 10
54.675084
 20
277.229431
 42
-0.085138
  0
VERTEX
  8
0
 10
54.316667
 20
277.058519
 42
-0.068882
  0
VERTEX
  8
0
 10
53.893904
 20
277.000000
 42
0.185767
  0
VERTEX
  8
0
 10
49.802928
 20
275.425736
 42
0.005581
  0
VERTEX
  8
0
 10
36.138864
 20
262.801707
 42
0.011855
  0
VERTEX
  8
0
 10
23.026246
 20
249.810989
 42
0.029698
  0
VERTEX
  8
0
 10
14.280359
 20
239.573409
 42
-0.005757
  0
VERTEX
  8
0
 10
12.458965
 20
237.222289
 42
-0.008273
  0
VERTEX
  8
0
 10
10.788103
 20
235.186147
 42
-0.004908
  0
VERTEX
  8
0
 10
9.344426
 20
233.518505
 42
-0.118284
  0
VERTEX
  8
0
 10
8.843127
 20
233.166667
 42
0.081243
  0
VERTEX
  8
0
 10
8.520805
 20
232.974059
 42
0.065030
  0
VERTEX
  8
0
 10
8.247668
 20
232.675023
 42
0.065701
  0
VERTEX
  8
0
 10
8.062967
 20
232.319440
 42
0.087185
  0
VERTEX
  8
0
 10
8.000000
 20
231.961072
 42
-0.131343
  0
VERTEX
  8
0
 10
7.850191
 20
231.400611
 42
-0.005916
  0
VERTEX
  8
0
 10
6.825000
 20
229.667670
 42
-0.009578
  0
VERTEX
  8
0
 10
5.532497
 20
227.629718
 42
-0.006677
  0
VERTEX
  8
0
 10
4.000000
 20
225.378623
 42
0.009181
  0
VERTEX
  8
0
 10
2.467884
 20
223.103683
 42
0.012466
  0
VERTEX
  8
0
 10
1.175000
 20
220.992135
 42
0.009426
  0
VERTEX
  8
0
 10
0.182497
 20
219.199417
 42
0.122298
  0
VERTEX
  8
0
 10
0.000000
 20
218.464460
 42
0.190952
  0
VERTEX
  8
0
 10
1.133634
 20
215.604318
 42
0.004100
  0
VERTEX
  8
0
 10
11.752798
 20
204.496736
 42
0.007298
  0
VERTEX
  8
0
 10
22.153604
 20
194.102592
 42
0.077475
  0
VERTEX
  8
0
 10
27.028874
 20
190.652621
 42
-0.014164
  0
VERTEX
  8
0
 10
28.912785
 20
189.648918
 42
-0.009885
  0
VERTEX
  8
0
 10
30.981073
 20
188.415808
 42
-0.009073
  0
VERTEX
  8
0
 10
33.196340
 20
186.978530
 42
-0.007308
  0
VERTEX
  8
0
 10
35.525708
 20
185.356388
 42
0.033505
  0
VERTEX
  8
0
 10
39.760067
 20
182.725614
 42
0.011999
  0
VERTEX
  8
0
 10
46.115613
 20
179.537511
 42
0.004893
  0
VERTEX
  8
0
 10
52.747271
 20
176.486741
 42
0.248683
  0
VERTEX
  8
0
 10
54.126240
 20
176.578021
 42
-0.106103
  0
VERTEX
  8
0
 10
54.459126
 20
176.696584
 42
-0.180726
  0
VERTEX
  8
0
 10
54.743333
 20
176.630983
 42
-0.163510
  0
VERTEX
  8
0
 10
54.934069
 20
176.386338
 42
-0.084715
  0
VERTEX
  8
0
 10
55.000000
 20
176.000000
 42
0.092039
  0
VERTEX
  8
0
 10
55.071061
 20
175.617231
 42
0.170591
  0
VERTEX
  8
0
 10
55.273452
 20
175.379391
 42
0.174978
  0
VERTEX
  8
0
 10
55.575871
 20
175.323933
 42
0.097430
  0
VERTEX
  8
0
 10
55.930902
 20
175.457295
 42
-0.115750
  0
VERTEX
  8
0
 10
56.337480
 20
175.593431
 42
-0.100463
  0
VERTEX
  8
0
 10
56.785237
 20
175.545053
 42
-0.093295
  0
VERTEX
  8
0
 10
57.205593
 20
175.318712
 42
-0.084510
  0
VERTEX
  8
0
 10
57.532052
 20
174.948138
 42
0.103632
  0
VERTEX
  8
0
 10
57.888971
 20
174.572689
 42
0.081674
  0
VERTEX
  8
0
 10
58.397349
 20
174.332619
 42
0.078375
  0
VERTEX
  8
0
 10
58.976306
 20
174.261771
 42
0.083127
  0
VERTEX
  8
0
 10
59.536543
 20
174.375649
 42
-0.216166
  0
VERTEX
  8
0
 10
60.644944
 20
174.309763
 42
-0.244864
  0
VERTEX
  8
0
 10
61.245875
 20
173.441418
 42
-0.099011
  0
VERTEX
  8
0
 10
61.112683
 20
171.602203
 42
-0.031699
  0
VERTEX
  8
0
 10
60.212494
 20
169.000000
 42
0.029473
  0
VERTEX
  8
0
 10
59.022195
 20
165.608075
 42
0.005708
  0
VERTEX
  8
0
 10
57.306644
 20
159.339916
 42
0.006483
  0
VERTEX
  8
0
 10
55.655999
 20
152.674756
 42
0.012131
  0
VERTEX
  8
0
 10
54.522135
 20
147.236156
 42
-0.000789
  0
VERTEX
  8
0
 10
54.301382
 20
146.042389
 42
-0.000575
  0
VERTEX
  8
0
 10
54.052405
 20
144.716246
 42
-0.000581
  0
VERTEX
  8
0
 10
53.813437
 20
143.459442
 42
-0.001281
  0
VERTEX
  8
0
 10
53.627304
 20
142.500000
 42
0.032081
  0
VERTEX
  8
0
 10
52.314073
 20
132.458514
 42
0.013549
  0
VERTEX
  8
0
 10
51.786229
 20
118.863830
 42
0.013587
  0
VERTEX
  8
0
 10
52.004700
 20
104.733169
 42
0.022073
  0
VERTEX
  8
0
 10
53.044898
 20
92.775325
 42
-0.000383
  0
VERTEX
  8
0
 10
53.524192
 20
89.113341
 42
-0.000509
  0
VERTEX
  8
0
 10
53.953906
 20
85.784002
 42
-0.000358
  0
VERTEX
  8
0
 10
54.309449
 20
82.991176
 42
-0.005177
  0
VERTEX
  8
0
 10
54.424498
 20
82.000000
 42
0.015332
  0
VERTEX
  8
0
 10
54.552999
 20
81.060002
 42
0.001555
  0
VERTEX
  8
0
 10
54.933565
 20
78.838085
 42
0.001945
  0
VERTEX
  8
0
 10
55.405688
 20
76.193026
 42
0.001549
  0
VERTEX
  8
0
 10
55.935079
 20
73.342418
 42
0.007581
  0
VERTEX
  8
0
 10
56.849683
 20
68.873687
 42
0.077653
  0
VERTEX
  8
0
 10
57.533889
 20
67.120252
 42
0.160688
  0
VERTEX
  8
0
 10
58.552576
 20
66.217540
 42
0.061482
  0
VERTEX
  8
0
 10
60.393637
 20
65.680851
 42
0.042429
  0
VERTEX
  8
0
 10
64.832547
 20
65.342691
 42
0.002569
  0
VERTEX
  8
0
 10
78.188379
 20
65.528501
 42
0.002324
  0
VERTEX
  8
0
 10
91.650548
 20
65.847576
 42
0.049019
  0
VERTEX
  8
0
 10
95.623280
 20
66.352035
 42
-0.006431
  0
VERTEX
  8
0
 10
96.671622
 20
66.577017
 42
-0.002561
  0
VERTEX
  8
0
 10
98.114757
 20
66.859678
 42
-0.002534
  0
VERTEX
  8
0
 10
99.674941
 20
67.148788
 42
-0.003186
  0
VERTEX
  8
0
 10
101.123280
 20
67.400071
 42
0.004898
  0
VERTEX
  8
0
 10
103.300518
 20
67.785502
 42
0.005173
  0
VERTEX
  8
0
 10
105.430424
 20
68.206966
 42
0.004633
  0
VERTEX
  8
0
 10
107.746112
 20
68.712575
 42
0.002741
  0
VERTEX
  8
0
 10
110.500000
 20
69.356552
 42
0.038414
  0
VERTEX
  8
0
 10
111.028313
 20
69.526945
 42
0.009427
  0
VERTEX
  8
0
 10
111.867188
 20
69.889189
 42
0.009599
  0
VERTEX
  8
0
 10
112.815232
 20
70.342111
 42
0.009456
  0
VERTEX
  8
0
 10
113.750000
 20
70.833276
 42
-0.021255
  0
VERTEX
  8
0
 10
114.613488
 20
71.261305
 42
-0.041432
  0
VERTEX
  8
0
 10
115.339063
 20
71.513794
 42
-0.064374
  0
VERTEX
  8
0
 10
115.837860
 20
71.575705
 42
-0.412726
  0
VERTEX
  8
0
 10
116.000000
 20
71.412739
 42
0.311664
  0
VERTEX
  8
0
 10
116.110505
 20
71.252677
 42
0.157220
  0
VERTEX
  8
0
 10
116.367188
 20
71.239725
 42
0.071670
  0
VERTEX
  8
0
 10
116.769749
 20
71.412095
 42
0.030816
  0
VERTEX
  8
0
 10
117.250000
 20
71.747232
 42
-0.073263
  0
VERTEX
  8
0
 10
118.742100
 20
72.610733
 42
-0.009016
  0
VERTEX
  8
0
 10
122.275086
 20
73.941875
 42
-0.004555
  0
VERTEX
  8
0
 10
126.024178
 20
75.239386
 42
-0.232930
  0
VERTEX
  8
0
 10
126.769429
 20
75.139205
 42
0.308841
  0
VERTEX
  8
0
 10
126.955414
 20
75.140651
 42
0.009879
  0
VERTEX
  8
0
 10
127.596896
 20
75.605061
 42
0.015924
  0
VERTEX
  8
0
 10
128.357063
 20
76.217559
 42
0.009987
  0
VERTEX
  8
0
 10
129.207990
 20
76.979146
 42
-0.015083
  0
VERTEX
  8
0
 10
130.090560
 20
77.753002
 42
-0.019431
  0
VERTEX
  8
0
 10
130.948531
 20
78.406374
 42
-0.017539
  0
VERTEX
  8
0
 10
131.692098
 20
78.890257
 42
-0.136293
  0
VERTEX
  8
0
 10
132.087219
 20
79.000000
 42
-0.249558
  0
VERTEX
  8
0
 10
132.478546
 20
78.791710
 42
-0.007228
  0
VERTEX
  8
0
 10
133.540490
 20
77.164062
 42
-0.012969
  0
VERTEX
  8
0
 10
134.744212
 20
75.145422
 42
-0.008374
  0
VERTEX
  8
0
 10
136.037368
 20
72.750000
 42
0.007334
  0
VERTEX
  8
0
 10
137.486985
 20
70.051337
 42
0.005424
  0
VERTEX
  8
0
 10
139.166159
 20
67.108011
 42
0.005483
  0
VERTEX
  8
0
 10
140.813341
 20
64.361720
 42
0.012254
  0
VERTEX
  8
0
 10
142.138710
 20
62.319825
 42
-0.011013
  0
VERTEX
  8
0
 10
143.234474
 20
60.640808
 42
-0.014298
  0
VERTEX
  8
0
 10
144.159496
 20
59.053315
 42
-0.011961
  0
VERTEX
  8
0
 10
144.855206
 20
57.700778
 42
-0.113270
  0
VERTEX
  8
0
 10
145.000000
 20
57.069825
 42
0.085884
  0
VERTEX
  8
0
 10
145.070692
 20
56.661304
 42
0.093846
  0
VERTEX
  8
0
 10
145.273955
 20
56.314261
 42
0.100319
  0
VERTEX
  8
0
 10
145.576860
 20
56.082149
 42
0.113958
  0
VERTEX
  8
0
 10
145.932612
 20
56.000000
 42
-0.154730
  0
VERTEX
  8
0
 10
146.330607
 20
55.873816
 42
-0.062609
  0
VERTEX
  8
0
 10
146.756170
 20
55.485938
 42
-0.053878
  0
VERTEX
  8
0
 10
147.142821
 20
54.919540
 42
-0.045263
  0
VERTEX
  8
0
 10
147.426587
 20
54.250000
 42
0.051384
  0
VERTEX
  8
0
 10
147.804454
 20
53.387891
 42
0.016117
  0
VERTEX
  8
0
 10
148.539745
 20
52.183194
 42
0.015915
  0
VERTEX
  8
0
 10
149.452572
 20
50.882841
 42
0.016970
  0
VERTEX
  8
0
 10
150.427767
 20
49.671511
 42
-0.005189
  0
VERTEX
  8
0
 10
151.590906
 20
48.294443
 42
-0.002280
  0
VERTEX
  8
0
 10
153.103413
 20
46.448509
 42
-0.002256
  0
VERTEX
  8
0
 10
154.690313
 20
44.475541
 42
-0.003024
  0
VERTEX
  8
0
 10
156.110221
 20
42.671511
 42
0.027335
  0
VERTEX
  8
0
 10
161.187748
 20
36.828531
 42
0.007444
  0
VERTEX
  8
0
 10
169.835261
 20
28.173482
 42
0.007448
  0
VERTEX
  8
0
 10
178.737967
 20
19.778576
 42
0.027247
  0
VERTEX
  8
0
 10
184.734189
 20
14.863137
 42
-0.002651
  0
VERTEX
  8
0
 10
186.979539
 20
13.200109
 42
-0.003786
  0
VERTEX
  8
0
 10
188.953168
 20
11.698605
 42
-0.002104
  0
VERTEX
  8
0
 10
190.604046
 20
10.411660
 42
-0.056297
  0
VERTEX
  8
0
 10
191.000000
 20
10.020873
 42
0.069067
  0
VERTEX
  8
0
 10
191.415637
 20
9.631026
 42
0.001821
  0
VERTEX
  8
0
 10
193.491433
 20
8.174542
 42
0.003793
  0
VERTEX
  8
0
 10
195.953815
 20
6.487746
 42
0.002582
  0
VERTEX
  8
0
 10
198.779347
 20
4.604656
 42
0.000000
  0
VERTEX
  8
0
 10
206.058693
 20
-0.192610
 42
0.000000
  0
VERTEX
  8
0
 10
209.779347
 20
2.545478
 42
0.040440
  0
VERTEX
  8
0
 10
217.250430
 20
9.035749
 42
0.012071
  0
VERTEX
  8
0
 10
227.556683
 20
20.086384
 42
0.006286
  0
VERTEX
  8
0
 10
237.647271
 20
31.735183
 42
0.177136
  0
VERTEX
  8
0
 10
239.000000
 20
35.433700
 42
-0.136046
  0
VERTEX
  8
0
 10
239.087401
 20
35.748973
 42
-0.013459
  0
VERTEX
  8
0
 10
239.514063
 20
36.417884
 42
-0.016191
  0
VERTEX
  8
0
 10
240.079767
 20
37.198544
 42
-0.012161
  0
VERTEX
  8
0
 10
240.750000
 20
38.020989
 42
0.021600
  0
VERTEX
  8
0
 10
241.384748
 20
38.830622
 42
0.035674
  0
VERTEX
  8
0
 10
241.839063
 20
39.570971
 42
0.041165
  0
VERTEX
  8
0
 10
242.086495
 20
40.161473
 42
0.325263
  0
VERTEX
  8
0
 10
242.000000
 20
40.427433
 42
-0.344884
  0
VERTEX
  8
0
 10
241.922539
 20
40.697677
 42
-0.035718
  0
VERTEX
  8
0
 10
242.234375
 20
41.332694
 42
-0.032506
  0
VERTEX
  8
0
 10
242.769261
 20
42.126623
 42
-0.019429
  0
VERTEX
  8
0
 10
243.500000
 20
43.000000
 42
0.015576
  0
VERTEX
  8
0
 10
244.259339
 20
43.893484
 42
0.020975
  0
VERTEX
  8
0
 10
244.885768
 20
44.750267
 42
0.018622
  0
VERTEX
  8
0
 10
245.339050
 20
45.486055
 42
0.165245
  0
VERTEX
  8
0
 10
245.408996
 20
45.854988
 42
-0.085455
  0
VERTEX
  8
0
 10
245.445739
 20
47.065972
 42
-0.047525
  0
VERTEX
  8
0
 10
245.877463
 20
48.482634
 42
-0.046822
  0
VERTEX
  8
0
 10
246.500143
 20
49.666063
 42
-0.253442
  0
VERTEX
  8
0
 10
247.116631
 20
50.000000
 42
0.086107
  0
VERTEX
  8
0
 10
247.444909
 20
50.056956
 42
0.108410
  0
VERTEX
  8
0
 10
247.705724
 20
50.220312
 42
0.119095
  0
VERTEX
  8
0
 10
247.858016
 20
50.464201
 42
0.120001
  0
VERTEX
  8
0
 10
247.881579
 20
50.750000
 42
-0.037629
  0
VERTEX
  8
0
 10
247.853720
 20
51.091571
 42
-0.022329
  0
VERTEX
  8
0
 10
247.869449
 20
51.500000
 42
-0.022270
  0
VERTEX
  8
0
 10
247.921861
 20
51.908286
 42
-0.035422
  0
VERTEX
  8
0
 10
248.006579
 20
52.250000
 42
0.006628
  0
VERTEX
  8
0
 10
248.117616
 20
52.608217
 42
0.003126
  0
VERTEX
  8
0
 10
248.251933
 20
53.073438
 42
0.003097
  0
VERTEX
  8
0
 10
248.386522
 20
53.562355
 42
0.004363
  0
VERTEX
  8
0
 10
248.500000
 20
54.000000
 42
-0.010232
  0
VERTEX
  8
0
 10
248.614051
 20
54.419524
 42
-0.008962
  0
VERTEX
  8
0
 10
248.750000
 20
54.853125
 42
-0.009044
  0
VERTEX
  8
0
 10
248.886909
 20
55.240359
 42
-0.026436
  0
VERTEX
  8
0
 10
249.000000
 20
55.500000
 42
0.026436
  0
VERTEX
  8
0
 10
249.113091
 20
55.759641
 42
0.009044
  0
VERTEX
  8
0
 10
249.250000
 20
56.146875
 42
0.008962
  0
VERTEX
  8
0
 10
249.385949
 20
56.580476
 42
0.010232
  0
VERTEX
  8
0
 10
249.500000
 20
57.000000
 42
-0.010232
  0
VERTEX
  8
0
 10
249.614051
 20
57.419524
 42
-0.008962
  0
VERTEX
  8
0
 10
249.750000
 20
57.853125
 42
-0.009044
  0
VERTEX
  8
0
 10
249.886909
 20
58.240359
 42
-0.026436
  0
VERTEX
  8
0
 10
250.000000
 20
58.500000
 42
0.049383
  0
VERTEX
  8
0
 10
250.104672
 20
58.773953
 42
0.013797
  0
VERTEX
  8
0
 10
250.213281
 20
59.220312
 42
0.013778
  0
VERTEX
  8
0
 10
250.308778
 20
59.734766
 42
0.014080
  0
VERTEX
  8
0
 10
250.375000
 20
60.250000
 42
-0.211465
  0
VERTEX
  8
0
 10
250.839364
 20
61.067731
 42
-0.120600
  0
VERTEX
  8
0
 10
251.906166
 20
61.515635
 42
-0.097319
  0
VERTEX
  8
0
 10
253.265716
 20
61.465906
 42
-0.098300
  0
VERTEX
  8
0
 10
254.500000
 20
60.904970
 42
0.095936
  0
VERTEX
  8
0
 10
256.923149
 20
59.790015
 42
0.002313
  0
VERTEX
  8
0
 10
269.000314
 20
56.894250
 42
0.005131
  0
VERTEX
  8
0
 10
280.547542
 20
54.306718
 42
0.024176
  0
VERTEX
  8
0
 10
287.250653
 20
53.212334
 42
0.024340
  0
VERTEX
  8
0
 10
295.370049
 20
52.685260
 42
0.004243
  0
VERTEX
  8
0
 10
310.721485
 20
52.567567
 42
0.003530
  0
VERTEX
  8
0
 10
326.174408
 20
52.689360
 42
0.036703
  0
VERTEX
  8
0
 10
332.500000
 20
53.249461
 42
-0.001608
  0
VERTEX
  8
0
 10
334.512685
 20
53.571110
 42
-0.000577
  0
VERTEX
  8
0
 10
337.381250
 20
54.016687
 42
-0.000573
  0
VERTEX
  8
0
 10
340.526769
 20
54.497877
 42
-0.000679
  0
VERTEX
  8
0
 10
343.500000
 20
54.945096
 42
0.006991
  0
VERTEX
  8
0
 10
349.089269
 20
55.858106
 42
0.011338
  0
VERTEX
  8
0
 10
353.808256
 20
56.807700
 42
0.008277
  0
VERTEX
  8
0
 10
357.573300
 20
57.720314
 42
0.133545
  0
VERTEX
  8
0
 10
358.696659
 20
58.363325
 42
0.183464
  0
VERTEX
  8
0
 10
359.415087
 20
59.961322
 42
0.002205
  0
VERTEX
  8
0
 10
360.055152
 20
71.544284
 42
0.001513
  0
VERTEX
  8
0
 10
360.619615
 20
83.352031
 42
0.427044
  0
VERTEX
  8
0
 10
360.000000
 20
84.000745
 42
-0.362622
  0
VERTEX
  8
0
 10
359.799851
 20
84.168265
 42
-0.012531
  0
VERTEX
  8
0
 10
359.633024
 20
85.249391
 42
-0.018197
  0
VERTEX
  8
0
 10
359.506922
 20
86.621433
 42
-0.011042
  0
VERTEX
  8
0
 10
359.452847
 20
88.250657
 42
0.016727
  0
VERTEX
  8
0
 10
359.294694
 20
91.798617
 42
0.008790
  0
VERTEX
  8
0
 10
358.873326
 20
96.193897
 42
0.008284
  0
VERTEX
  8
0
 10
358.246409
 20
100.999459
 42
0.008027
  0
VERTEX
  8
0
 10
357.454817
 20
105.832501
 42
0.036317
  0
VERTEX
  8
0
 10
356.288067
 20
110.382825
 42
0.006234
  0
VERTEX
  8
0
 10
353.345256
 20
118.807122
 42
0.005994
  0
VERTEX
  8
0
 10
350.196927
 20
127.157997
 42
0.040284
  0
VERTEX
  8
0
 10
348.259475
 20
131.137890
 42
-0.016162
  0
VERTEX
  8
0
 10
347.657745
 20
132.236103
 42
-0.025599
  0
VERTEX
  8
0
 10
347.222530
 20
133.216629
 42
-0.023090
  0
VERTEX
  8
0
 10
346.960735
 20
134.005627
 42
-0.306764
  0
VERTEX
  8
0
 10
347.052567
 20
134.281723
 42
-0.043021
  0
VERTEX
  8
0
 10
347.407007
 20
134.508112
 42
-0.000654
  0
VERTEX
  8
0
 10
349.571691
 20
135.638127
 42
-0.001755
  0
VERTEX
  8
0
 10
352.093356
 20
136.939075
 42
-0.001159
  0
VERTEX
  8
0
 10
355.000000
 20
138.417252
 42
0.019883
  0
VERTEX
  8
0
 10
361.573496
 20
142.076156
 42
0.010992
  0
VERTEX
  8
0
 10
369.312940
 20
147.033096
 42
0.010995
  0
VERTEX
  8
0
 10
376.783291
 20
152.294679
 42
0.021013
  0
VERTEX
  8
0
 10
382.500000
 20
156.895239
 42
0.014920
  0
VERTEX
  8
0
 10
389.271925
 20
163.197510
 42
0.006809
  0
VERTEX
  8
0
 10
397.752614
 20
171.807196
 42
0.006274
  0
VERTEX
  8
0
 10
405.709393
 20
180.319386
 42
0.026738
  0
VERTEX
  8
0
 10
410.115158
 20
185.704807
 42
-0.002638
  0
VERTEX
  8
0
 10
411.786504
 20
187.961420
 42
-0.003769
  0
VERTEX
  8
0
 10
413.295019
 20
189.944537
 42
-0.002088
  0
VERTEX
  8
0
 10
414.588080
 20
191.603717
 42
-0.056339
  0
VERTEX
  8
0
 10
414.979127
 20
192.000000
 42
0.077659
  0
VERTEX
  8
0
 10
416.198167
 20
193.345035
 42
0.002261
  0
VERTEX
  8
0
 10
420.400384
 20
199.804410
 42
0.001373
  0
VERTEX
  8
0
 10
424.696285
 20
206.513980
 42
0.142645
  0
VERTEX
  8
0
 10
425.000000
 20
207.556905
 42
0.176222
  0
VERTEX
  8
0
 10
424.611676
 20
208.624492
 42
0.002326
  0
VERTEX
  8
0
 10
419.977490
 20
214.099932
 42
0.007365
  0
VERTEX
  8
0
 10
415.311196
 20
219.401422
 42
0.014372
  0
VERTEX
  8
0
 10
411.410337
 20
223.462876
 42
0.012575
  0
VERTEX
  8
0
 10
405.822095
 20
228.686366
 42
0.013221
  0
VERTEX
  8
0
 10
400.068902
 20
233.533046
 42
0.013864
  0
VERTEX
  8
0
 10
394.780252
 20
237.519543
 42
0.037719
  0
VERTEX
  8
0
 10
390.766879
 20
239.940527
 42
-0.020366
  0
VERTEX
  8
0
 10
389.573491
 20
240.605108
 42
-0.013103
  0
VERTEX
  8
0
 10
388.244155
 20
241.466663
 42
-0.013172
  0
VERTEX
  8
0
 10
386.985716
 20
242.379577
 42
-0.024027
  0
VERTEX
  8
0
 10
386.016879
 20
243.198901
 42
0.012434
  0
VERTEX
  8
0
 10
385.242519
 20
243.885167
 42
0.024952
  0
VERTEX
  8
0
 10
384.592458
 20
244.379756
 42
0.032840
  0
VERTEX
  8
0
 10
384.124754
 20
244.656848
 42
0.559356
  0
VERTEX
  8
0
 10
384.000000
 20
244.580223
 42
-0.520520
  0
VERTEX
  8
0
 10
383.834930
 20
244.464621
 42
-0.008028
  0
VERTEX
  8
0
 10
382.562027
 20
244.950983
 42
-0.013484
  0
VERTEX
  8
0
 10
380.982527
 20
245.633718
 42
-0.007626
  0
VERTEX
  8
0
 10
379.104773
 20
246.541267
 42
0.008347
  0
VERTEX
  8
0
 10
377.149359
 20
247.482874
 42
0.010790
  0
VERTEX
  8
0
 10
375.322992
 20
248.277747
 42
0.008703
  0
VERTEX
  8
0
 10
373.778647
 20
248.879427
 42
0.088758
  0
VERTEX
  8
0
 10
373.104773
 20
249.000000
 42
-0.069538
  0
VERTEX
  8
0
 10
372.682532
 20
249.059009
 42
-0.085555
  0
VERTEX
  8
0
 10
372.324527
 20
249.231239
 42
-0.100043
  0
VERTEX
  8
0
 10
372.085161
 20
249.487008
 42
-0.139102
  0
VERTEX
  8
0
 10
372.000000
 20
249.787196
 42
0.229574
  0
VERTEX
  8
0
 10
371.847918
 20
250.100964
 42
0.063543
  0
VERTEX
  8
0
 10
371.365493
 20
250.390949
 42
0.050488
  0
VERTEX
  8
0
 10
370.667186
 20
250.617272
 42
0.034350
  0
VERTEX
  8
0
 10
369.839977
 20
250.737101
 42
-0.036203
  0
VERTEX
  8
0
 10
368.969878
 20
250.866433
 42
-0.037893
  0
VERTEX
  8
0
 10
368.141155
 20
251.118873
 42
-0.040827
  0
VERTEX
  8
0
 10
367.465831
 20
251.447630
 42
-0.115553
  0
VERTEX
  8
0
 10
367.089977
 20
251.808265
 42
0.128919
  0
VERTEX
  8
0
 10
366.730013
 20
252.135889
 42
0.058073
  0
VERTEX
  8
0
 10
366.129122
 20
252.366164
 42
0.052011
  0
VERTEX
  8
0
 10
365.399848
 20
252.473412
 42
0.048712
  0
VERTEX
  8
0
 10
364.647461
 20
252.431794
 42
-0.203478
  0
VERTEX
  8
0
 10
363.618782
 20
252.693218
 42
-0.265687
  0
VERTEX
  8
0
 10
363.246917
 20
253.570122
 42
-0.041103
  0
VERTEX
  8
0
 10
363.709116
 20
255.844913
 42
-0.001857
  0
VERTEX
  8
0
 10
365.962918
 20
263.500000
 42
0.005431
  0
VERTEX
  8
0
 10
366.804773
 20
266.436697
 42
0.005005
  0
VERTEX
  8
0
 10
367.606696
 20
269.471875
 42
0.005003
  0
VERTEX
  8
0
 10
368.267187
 20
272.191002
 42
0.016516
  0
VERTEX
  8
0
 10
368.624961
 20
274.000000
 42
-0.006002
  0
VERTEX
  8
0
 10
368.867605
 20
275.378545
 42
-0.007985
  0
VERTEX
  8
0
 10
369.123127
 20
276.624956
 42
-0.005900
  0
VERTEX
  8
0
 10
369.365039
 20
277.658251
 42
-0.076917
  0
VERTEX
  8
0
 10
369.516457
 20
278.021127
 42
0.099634
  0
VERTEX
  8
0
 10
369.901421
 20
279.075000
 42
0.003853
  0
VERTEX
  8
0
 10
370.499293
 20
283.200821
 42
0.006105
  0
VERTEX
  8
0
 10
371.156260
 20
288.472081
 42
0.003006
  0
VERTEX
  8
0
 10
371.869470
 20
295.189945
 42
0.019730
  0
VERTEX
  8
0
 10
372.385333
 20
303.734138
 42
0.011471
  0
VERTEX
  8
0
 10
372.363814
 20
314.011073
 42
0.011332
  0
VERTEX
  8
0
 10
371.860042
 20
324.564737
 42
0.015645
  0
VERTEX
  8
0
 10
370.897646
 20
334.000000
 42
-0.000839
  0
VERTEX
  8
0
 10
370.448644
 20
337.401111
 42
-0.001019
  0
VERTEX
  8
0
 10
370.039631
 20
340.590625
 42
-0.000858
  0
VERTEX
  8
0
 10
369.705517
 20
343.275930
 42
-0.007076
  0
VERTEX
  8
0
 10
369.572901
 20
344.500000
 42
0.017816
  0
VERTEX
  8
0
 10
369.421912
 20
345.660340
 42
0.002941
  0
VERTEX
  8
0
 10
369.037935
 20
347.885090
 42
0.003229
  0
VERTEX
  8
0
 10
368.553761
 20
350.497597
 42
0.002849
  0
VERTEX
  8
0
 10
368.015864
 20
353.215201
 42
0.000000
  0
VERTEX
  8
0
 10
366.646917
 20
359.930402
 42
0.000000
  0
VERTEX
  8
0
 10
362.351089
 20
360.574601
 42
0.028418
  0
VERTEX
  8
0
 10
356.639899
 20
361.101690
 42
0.009238
  0
VERTEX
  8
0
 10
348.163195
 20
361.243550
 42
0.009487
  0
VERTEX
  8
0
 10
339.178896
 20
361.057411
 42
0.015037
  0
VERTEX
  8
0
 10
331.500000
 20
360.520864
 42
0.001213
  0
VERTEX
  8
0
 10
325.624190
 20
359.917923
 42
0.005206
  0
VERTEX
  8
0
 10
322.128990
 20
359.513860
 42
0.002150
  0
VERTEX
  8
0
 10
319.661676
 20
359.191775
 42
0.375459
  0
VERTEX
  8
0
 10
319.500000
 20
359.006822
 42
-0.331246
  0
VERTEX
  8
0
 10
319.444585
 20
358.932354
 42
-0.006157
  0
VERTEX
  8
0
 10
318.946990
 20
358.789808
 42
-0.012462
  0
VERTEX
  8
0
 10
318.339144
 20
358.639922
 42
-0.007683
  0
VERTEX
  8
0
 10
317.617413
 20
358.492513
 42
0.030224
  0
VERTEX
  8
0
 10
313.619624
 20
357.486443
 42
0.011226
  0
VERTEX
  8
0
 10
308.130186
 20
355.609742
 42
0.003870
  0
VERTEX
  8
0
 10
302.505809
 20
353.495217
 42
0.310281
  0
VERTEX
  8
0
 10
302.000000
 20
352.758605
 42
-0.141890
  0
VERTEX
  8
0
 10
301.918267
 20
352.476387
 42
-0.191370
  0
VERTEX
  8
0
 10
301.705392
 20
352.321557
 42
-0.136994
  0
VERTEX
  8
0
 10
301.381129
 20
352.328570
 42
-0.065005
  0
VERTEX
  8
0
 10
300.997079
 20
352.501805
 42
0.204120
  0
VERTEX
  8
0
 10
300.342025
 20
352.601388
 42
0.021244
  0
VERTEX
  8
0
 10
298.819402
 20
352.139839
 42
0.023652
  0
VERTEX
  8
0
 10
296.981196
 20
351.396880
 42
0.016761
  0
VERTEX
  8
0
 10
294.992068
 20
350.399166
 42
-0.007881
  0
VERTEX
  8
0
 10
293.056571
 20
349.384949
 42
-0.013017
  0
VERTEX
  8
0
 10
291.387377
 20
348.597340
 42
-0.006619
  0
VERTEX
  8
0
 10
289.993286
 20
348.005289
 42
-0.371368
  0
VERTEX
  8
0
 10
289.744989
 20
348.088344
 42
-0.016791
  0
VERTEX
  8
0
 10
289.573196
 20
348.400393
 42
-0.000287
  0
VERTEX
  8
0
 10
288.690716
 20
350.141553
 42
-0.000732
  0
VERTEX
  8
0
 10
287.667402
 20
352.170820
 42
-0.000487
  0
VERTEX
  8
0
 10
286.500000
 20
354.499921
 42
0.018397
  0
VERTEX
  8
0
 10
282.925459
 20
361.036201
 42
0.013142
  0
VERTEX
  8
0
 10
278.471448
 20
368.085286
 42
0.012667
  0
VERTEX
  8
0
 10
273.434083
 20
375.214479
 42
0.013090
  0
VERTEX
  8
0
 10
268.095215
 20
382.000000
 42
0.016022
  0
VERTEX
  8
0
 10
262.545397
 20
388.265966
 42
0.007740
  0
VERTEX
  8
0
 10
255.066363
 20
395.942238
 42
0.007323
  0
VERTEX
  8
0
 10
247.639464
 20
403.119197
 42
0.026792
  0
VERTEX
  8
0
 10
242.634636
 20
407.335280
 42
-0.004215
  0
VERTEX
  8
0
 10
241.311226
 20
408.351667
 42
-0.002239
  0
VERTEX
  8
0
 10
239.688498
 20
409.631569
 42
-0.002228
  0
VERTEX
  8
0
 10
238.041319
 20
410.954795
 42
-0.003457
  0
VERTEX
  8
0
 10
236.633138
 20
412.112615
 42
0.020786
  0
VERTEX
  8
0
 10
232.356655
 20
415.387204
 42
0.006520
  0
VERTEX
  8
0
 10
225.693256
 20
419.934945
 42
0.002286
  0
VERTEX
  8
0
 10
218.619494
 20
424.582302
 42
0.145182
  0
VERTEX
  8
0
 10
217.211279
 20
425.000000
 42
0.114454
  0
VERTEX
  8
0
 10
216.683478
 20
424.877579
 42
0.016449
  0
VERTEX
  8
0
 10
215.698874
 20
424.354012
 42
0.017955
  0
VERTEX
  8
0
 10
214.558411
 20
423.642922
 42
0.014473
  0
SEQEND
  0
ENDSEC
  0
EOF
