  0
SECTION
  2
HEADER
  9
$ACADVER
  1
AC1006
  9
$EXTMIN
 10
0.000000
 20
0.000000
 30
0.000000
  9
$EXTMAX
 10
475.000000
 20
482.000000
 30
0.000000
  0
ENDSEC
  0
SECTION
  2
ENTITIES
  0
POLYLINE
  8
0
 66
1
 70
1
  0
VERTEX
  8
0
 10
220.403078
 20
480.843177
 42
0.135357
  0
VERTEX
  8
0
 10
219.694467
 20
478.419970
 42
0.000194
  0
VERTEX
  8
0
 10
218.979308
 20
430.830050
 42
0.001639
  0
VERTEX
  8
0
 10
218.386682
 20
378.662934
 42
0.001140
  0
VERTEX
  8
0
 10
218.044896
 20
319.750000
 42
0.000000
  0
VERTEX
  8
0
 10
218.000000
 20
307.000000
 42
0.000000
  0
VERTEX
  8
0
 10
210.418618
 20
307.000000
 42
0.000000
  0
VERTEX
  8
0
 10
202.837237
 20
307.000000
 42
0.000000
  0
VERTEX
  8
0
 10
203.444889
 20
350.250000
 42
-0.000418
  0
VERTEX
  8
0
 10
203.710472
 20
368.091797
 42
-0.000418
  0
VERTEX
  8
0
 10
204.005911
 20
385.935938
 42
-0.000408
  0
VERTEX
  8
0
 10
204.289581
 20
401.515149
 42
-0.001656
  0
VERTEX
  8
0
 10
204.501455
 20
411.000000
 42
-0.000678
  0
VERTEX
  8
0
 10
205.084565
 20
432.589679
 42
-0.001009
  0
VERTEX
  8
0
 10
205.658553
 20
451.479947
 42
-0.000957
  0
VERTEX
  8
0
 10
206.182392
 20
466.742482
 42
-0.006266
  0
VERTEX
  8
0
 10
206.555881
 20
474.396923
 42
0.000000
  0
VERTEX
  8
0
 10
206.979108
 20
481.293846
 42
0.000000
  0
VERTEX
  8
0
 10
195.326386
 20
480.683755
 42
0.005970
  0
VERTEX
  8
0
 10
190.806595
 20
480.392963
 42
0.008994
  0
VERTEX
  8
0
 10
186.876590
 20
480.021746
 42
0.004518
  0
VERTEX
  8
0
 10
183.580934
 20
479.620338
 42
0.171577
  0
VERTEX
  8
0
 10
182.924520
 20
479.286832
 42
0.171905
  0
VERTEX
  8
0
 10
181.623302
 20
476.376051
 42
0.001359
  0
VERTEX
  8
0
 10
179.626649
 20
450.559252
 42
0.005108
  0
VERTEX
  8
0
 10
177.820124
 20
422.481533
 42
0.004458
  0
VERTEX
  8
0
 10
176.492093
 20
393.068017
 42
-0.002804
  0
VERTEX
  8
0
 10
176.259285
 20
387.503307
 42
-0.004455
  0
VERTEX
  8
0
 10
175.990878
 20
382.743388
 42
-0.001164
  0
VERTEX
  8
0
 10
175.710878
 20
378.605624
 42
-0.180809
  0
VERTEX
  8
0
 10
175.519867
 20
378.186534
 42
0.208241
  0
VERTEX
  8
0
 10
175.406991
 20
377.899592
 42
0.045112
  0
VERTEX
  8
0
 10
175.475488
 20
377.358821
 42
0.039880
  0
VERTEX
  8
0
 10
175.676908
 20
376.698038
 42
0.028959
  0
VERTEX
  8
0
 10
176.000000
 20
376.000000
 42
-0.044933
  0
VERTEX
  8
0
 10
176.304130
 20
375.283846
 42
-0.054197
  0
VERTEX
  8
0
 10
176.451760
 20
374.568427
 42
-0.063339
  0
VERTEX
  8
0
 10
176.432660
 20
373.958349
 42
-0.158198
  0
VERTEX
  8
0
 10
176.232466
 20
373.565799
 42
0.188562
  0
VERTEX
  8
0
 10
175.740591
 20
372.442250
 42
0.001588
  0
VERTEX
  8
0
 10
175.384968
 20
362.763902
 42
0.003534
  0
VERTEX
  8
0
 10
175.013847
 20
348.754637
 42
0.000725
  0
VERTEX
  8
0
 10
174.569223
 20
324.012405
 42
0.000000
  0
VERTEX
  8
0
 10
174.280323
 20
306.524811
 42
0.000000
  0
VERTEX
  8
0
 10
168.890162
 20
306.412894
 42
0.000871
  0
VERTEX
  8
0
 10
149.411924
 20
305.974513
 42
0.000453
  0
VERTEX
  8
0
 10
125.104857
 20
305.363063
 42
0.000185
  0
VERTEX
  8
0
 10
100.862382
 20
304.722285
 42
0.007292
  0
VERTEX
  8
0
 10
95.500000
 20
304.500260
 42
-0.002098
  0
VERTEX
  8
0
 10
92.626369
 20
304.351366
 42
-0.000377
  0
VERTEX
  8
0
 10
87.268750
 20
304.100351
 42
-0.000407
  0
VERTEX
  8
0
 10
80.992279
 20
303.816137
 42
-0.000367
  0
VERTEX
  8
0
 10
74.500000
 20
303.532220
 42
0.001031
  0
VERTEX
  8
0
 10
68.117155
 20
303.244602
 42
0.001274
  0
VERTEX
  8
0
 10
62.171875
 20
302.949228
 42
0.001045
  0
VERTEX
  8
0
 10
57.178757
 20
302.677935
 42
0.009460
  0
VERTEX
  8
0
 10
55.000000
 20
302.513589
 42
-0.004762
  0
VERTEX
  8
0
 10
53.017492
 20
302.345300
 42
-0.000930
  0
VERTEX
  8
0
 10
49.443750
 20
302.082874
 42
-0.000987
  0
VERTEX
  8
0
 10
45.276589
 20
301.792935
 42
-0.000914
  0
VERTEX
  8
0
 10
41.000000
 20
301.511723
 42
0.000869
  0
VERTEX
  8
0
 10
36.723411
 20
301.230902
 42
0.000938
  0
VERTEX
  8
0
 10
32.556250
 20
300.942139
 42
0.000884
  0
VERTEX
  8
0
 10
28.982481
 20
300.681408
 42
0.004525
  0
VERTEX
  8
0
 10
27.000000
 20
300.515195
 42
-0.001573
  0
VERTEX
  8
0
 10
25.113004
 20
300.345763
 42
-0.000399
  0
VERTEX
  8
0
 10
22.046830
 20
300.082639
 42
-0.000407
  0
VERTEX
  8
0
 10
18.543671
 20
299.787700
 42
-0.000411
  0
VERTEX
  8
0
 10
15.053037
 20
299.499564
 42
0.003275
  0
VERTEX
  8
0
 10
8.584723
 20
298.928324
 42
0.018191
  0
VERTEX
  8
0
 10
5.127196
 20
298.472734
 42
0.033361
  0
VERTEX
  8
0
 10
3.034150
 20
297.973625
 42
0.122566
  0
VERTEX
  8
0
 10
1.878372
 20
297.273409
 42
0.175404
  0
VERTEX
  8
0
 10
1.552777
 20
296.572558
 42
0.002121
  0
VERTEX
  8
0
 10
1.128516
 20
291.496570
 42
0.006025
  0
VERTEX
  8
0
 10
0.730571
 20
285.574540
 42
0.003866
  0
VERTEX
  8
0
 10
0.404767
 20
278.693637
 42
0.000000
  0
VERTEX
  8
0
 10
-0.300390
 20
260.887273
 42
0.000000
  0
VERTEX
  8
0
 10
15.099805
 20
261.394450
 42
-0.004245
  0
VERTEX
  8
0
 10
24.662475
 20
261.628130
 42
-0.000473
  0
VERTEX
  8
0
 10
46.465255
 20
261.955112
 42
-0.000576
  0
VERTEX
  8
0
 10
72.414429
 20
262.289842
 42
-0.000467
  0
VERTEX
  8
0
 10
100.250000
 20
262.590881
 42
0.000000
  0
VERTEX
  8
0
 10
170.000000
 20
263.280135
 42
0.000000
  0
VERTEX
  8
0
 10
170.000000
 20
251.683828
 42
0.000000
  0
VERTEX
  8
0
 10
170.000000
 20
240.087521
 42
0.000000
  0
VERTEX
  8
0
 10
84.844311
 20
240.658259
 42
0.000000
  0
VERTEX
  8
0
 10
-0.311379
 20
241.228997
 42
0.000000
  0
VERTEX
  8
0
 10
0.415743
 20
220.864498
 42
0.001080
  0
VERTEX
  8
0
 10
0.718554
 20
212.867984
 42
0.001492
  0
VERTEX
  8
0
 10
1.027211
 20
205.693266
 42
0.000931
  0
VERTEX
  8
0
 10
1.316101
 20
199.659302
 42
0.018458
  0
VERTEX
  8
0
 10
1.476273
 20
197.814706
 42
-0.007703
  0
VERTEX
  8
0
 10
1.644842
 20
196.261734
 42
-0.001345
  0
VERTEX
  8
0
 10
1.909589
 20
193.328897
 42
-0.001460
  0
VERTEX
  8
0
 10
2.200889
 20
189.886350
 42
-0.001309
  0
VERTEX
  8
0
 10
2.483201
 20
186.314706
 42
0.007611
  0
VERTEX
  8
0
 10
3.258888
 20
177.859284
 42
0.138973
  0
VERTEX
  8
0
 10
4.259108
 20
175.375858
 42
0.181227
  0
VERTEX
  8
0
 10
6.352365
 20
174.083309
 42
0.014928
  0
VERTEX
  8
0
 10
12.786238
 20
173.013576
 42
-0.000127
  0
VERTEX
  8
0
 10
16.305676
 20
172.534973
 42
-0.000145
  0
VERTEX
  8
0
 10
19.674707
 20
172.074953
 42
-0.000131
  0
VERTEX
  8
0
 10
22.535028
 20
171.682785
 42
-0.000818
  0
VERTEX
  8
0
 10
24.000000
 20
171.479094
 42
0.008041
  0
VERTEX
  8
0
 10
30.415757
 20
170.681330
 42
0.001828
  0
VERTEX
  8
0
 10
41.315321
 20
169.543974
 42
0.001989
  0
VERTEX
  8
0
 10
53.128196
 20
168.402410
 42
0.002941
  0
VERTEX
  8
0
 10
63.500000
 20
167.503232
 42
-0.000448
  0
VERTEX
  8
0
 10
66.545685
 20
167.254478
 42
-0.000332
  0
VERTEX
  8
0
 10
69.912500
 20
166.974204
 42
-0.000336
  0
VERTEX
  8
0
 10
73.091283
 20
166.705308
 42
-0.000756
  0
VERTEX
  8
0
 10
75.500000
 20
166.496254
 42
0.004999
  0
VERTEX
  8
0
 10
78.167265
 20
166.287547
 42
0.001341
  0
VERTEX
  8
0
 10
82.409375
 20
166.009684
 42
0.001359
  0
VERTEX
  8
0
 10
87.230471
 20
165.720033
 42
0.001405
  0
VERTEX
  8
0
 10
92.000000
 20
165.459928
 42
-0.001146
  0
VERTEX
  8
0
 10
96.696108
 20
165.206263
 42
-0.001218
  0
VERTEX
  8
0
 10
101.296875
 20
164.935928
 42
-0.001158
  0
VERTEX
  8
0
 10
105.256113
 20
164.684407
 42
-0.005621
  0
VERTEX
  8
0
 10
107.500000
 20
164.511284
 42
0.010051
  0
VERTEX
  8
0
 10
110.037484
 20
164.338105
 42
0.000973
  0
VERTEX
  8
0
 10
116.200000
 20
164.053833
 42
0.001235
  0
VERTEX
  8
0
 10
123.548619
 20
163.747357
 42
0.000976
  0
VERTEX
  8
0
 10
131.500000
 20
163.450961
 42
-0.000186
  0
VERTEX
  8
0
 10
139.670336
 20
163.159336
 42
-0.000197
  0
VERTEX
  8
0
 10
147.681250
 20
162.867266
 42
-0.000187
  0
VERTEX
  8
0
 10
154.579581
 20
162.610451
 42
-0.000905
  0
VERTEX
  8
0
 10
158.500000
 20
162.455922
 42
0.001302
  0
VERTEX
  8
0
 10
161.520073
 20
162.339283
 42
0.001010
  0
VERTEX
  8
0
 10
164.808143
 20
162.227518
 42
0.001021
  0
VERTEX
  8
0
 10
167.875965
 20
162.135715
 42
0.002466
  0
VERTEX
  8
0
 10
170.144741
 20
162.083657
 42
0.000000
  0
VERTEX
  8
0
 10
174.789481
 20
162.000000
 42
0.000000
  0
VERTEX
  8
0
 10
174.964364
 20
153.250000
 42
0.002493
  0
VERTEX
  8
0
 10
175.536736
 20
130.331821
 42
0.002373
  0
VERTEX
  8
0
 10
176.345287
 20
107.040087
 42
0.002431
  0
VERTEX
  8
0
 10
177.348523
 20
84.411968
 42
0.003073
  0
VERTEX
  8
0
 10
178.506431
 20
63.500000
 42
0.001503
  0
VERTEX
  8
0
 10
179.538478
 20
47.512834
 42
0.003571
  0
VERTEX
  8
0
 10
180.426606
 20
35.631857
 42
0.004363
  0
VERTEX
  8
0
 10
181.362268
 20
25.319351
 42
0.003761
  0
VERTEX
  8
0
 10
182.521437
 20
14.500000
 42
-0.000642
  0
VERTEX
  8
0
 10
182.805336
 20
11.997625
 42
-0.000602
  0
VERTEX
  8
0
 10
183.089007
 20
9.440462
 42
-0.000599
  0
VERTEX
  8
0
 10
183.335222
 20
7.171222
 42
-0.002074
  0
VERTEX
  8
0
 10
183.486738
 20
5.701572
 42
0.014354
  0
VERTEX
  8
0
 10
183.628456
 20
4.594270
 42
0.018180
  0
VERTEX
  8
0
 10
183.825658
 20
3.581742
 42
0.016404
  0
VERTEX
  8
0
 10
184.046072
 20
2.758205
 42
0.123391
  0
VERTEX
  8
0
 10
184.251831
 20
2.414836
 42
0.192341
  0
VERTEX
  8
0
 10
186.637256
 20
1.391195
 42
0.000946
  0
VERTEX
  8
0
 10
213.394905
 20
0.764288
 42
0.000907
  0
VERTEX
  8
0
 10
240.203139
 20
0.235637
 42
0.203569
  0
VERTEX
  8
0
 10
242.493900
 20
1.160567
 42
0.187361
  0
VERTEX
  8
0
 10
243.265867
 20
2.912828
 42
0.002396
  0
VERTEX
  8
0
 10
243.754978
 20
15.209877
 42
0.002968
  0
VERTEX
  8
0
 10
244.353676
 20
35.829951
 42
0.000261
  0
VERTEX
  8
0
 10
245.531259
 20
88.000000
 42
0.002468
  0
VERTEX
  8
0
 10
245.667289
 20
95.949780
 42
0.000804
  0
VERTEX
  8
0
 10
245.791279
 20
107.685937
 42
0.000802
  0
VERTEX
  8
0
 10
245.887137
 20
120.723351
 42
0.000904
  0
VERTEX
  8
0
 10
245.936511
 20
133.250000
 42
0.000000
  0
VERTEX
  8
0
 10
246.000000
 20
163.000000
 42
0.000000
  0
VERTEX
  8
0
 10
253.624331
 20
163.000000
 42
0.000000
  0
VERTEX
  8
0
 10
261.248662
 20
163.000000
 42
0.000000
  0
VERTEX
  8
0
 10
260.523128
 20
124.750000
 42
-0.000360
  0
VERTEX
  8
0
 10
260.225355
 20
109.625974
 42
-0.000474
  0
VERTEX
  8
0
 10
259.930641
 20
95.826563
 42
-0.000343
  0
VERTEX
  8
0
 10
259.664675
 20
84.258131
 42
-0.004561
  0
VERTEX
  8
0
 10
259.524985
 20
80.000000
 42
0.000797
  0
VERTEX
  8
0
 10
259.376483
 20
76.318954
 42
0.000155
  0
VERTEX
  8
0
 10
259.121367
 20
69.681250
 42
0.000165
  0
VERTEX
  8
0
 10
258.828888
 20
61.942239
 42
0.000153
  0
VERTEX
  8
0
 10
258.533779
 20
54.000000
 42
-0.000876
  0
VERTEX
  8
0
 10
258.235598
 20
46.276299
 42
-0.001138
  0
VERTEX
  8
0
 10
257.933857
 20
39.200000
 42
-0.000849
  0
VERTEX
  8
0
 10
257.657368
 20
33.269720
 42
-0.010339
  0
VERTEX
  8
0
 10
257.500586
 20
31.000000
 42
0.006250
  0
VERTEX
  8
0
 10
257.338901
 20
28.908241
 42
0.000895
  0
VERTEX
  8
0
 10
257.069106
 20
24.621342
 42
0.001017
  0
VERTEX
  8
0
 10
256.769343
 20
19.548919
 42
0.000868
  0
VERTEX
  8
0
 10
256.473490
 20
14.200315
 42
0.000000
  0
VERTEX
  8
0
 10
255.760988
 20
0.900630
 42
0.000000
  0
VERTEX
  8
0
 10
264.630494
 20
1.535149
 42
0.005497
  0
VERTEX
  8
0
 10
277.884694
 20
2.629920
 42
0.008783
  0
VERTEX
  8
0
 10
289.176312
 20
3.888109
 42
0.003765
  0
VERTEX
  8
0
 10
298.653025
 20
5.185572
 42
0.221947
  0
VERTEX
  8
0
 10
300.071553
 20
6.115775
 42
0.063741
  0
VERTEX
  8
0
 10
300.407468
 20
6.855499
 42
0.011340
  0
VERTEX
  8
0
 10
300.822882
 20
8.320660
 42
0.012099
  0
VERTEX
  8
0
 10
301.231641
 20
10.071142
 42
0.010647
  0
VERTEX
  8
0
 10
301.574705
 20
11.915442
 42
-0.001081
  0
VERTEX
  8
0
 10
301.878792
 20
13.744137
 42
-0.001334
  0
VERTEX
  8
0
 10
302.170420
 20
15.447036
 42
-0.001096
  0
VERTEX
  8
0
 10
302.422372
 20
16.876457
 42
-0.009866
  0
VERTEX
  8
0
 10
302.546430
 20
17.500000
 42
0.015373
  0
VERTEX
  8
0
 10
303.089088
 20
20.393661
 42
0.000819
  0
VERTEX
  8
0
 10
304.516076
 20
29.647597
 42
0.001240
  0
VERTEX
  8
0
 10
305.871821
 20
38.686561
 42
0.007077
  0
VERTEX
  8
0
 10
306.512111
 20
43.500000
 42
-0.000782
  0
VERTEX
  8
0
 10
306.774285
 20
45.680631
 42
-0.000571
  0
VERTEX
  8
0
 10
307.071977
 20
48.101400
 42
-0.000577
  0
VERTEX
  8
0
 10
307.359306
 20
50.394408
 42
-0.001277
  0
VERTEX
  8
0
 10
307.585012
 20
52.143063
 42
0.002790
  0
VERTEX
  8
0
 10
307.802140
 20
53.866326
 42
0.001357
  0
VERTEX
  8
0
 10
308.061162
 20
56.069264
 42
0.001346
  0
VERTEX
  8
0
 10
308.318337
 20
58.363394
 42
0.001945
  0
VERTEX
  8
0
 10
308.532348
 20
60.393063
 42
0.000003
  0
VERTEX
  8
0
 10
308.744421
 20
62.482358
 42
0.000002
  0
VERTEX
  8
0
 10
308.996525
 20
64.966287
 42
0.000002
  0
VERTEX
  8
0
 10
309.247506
 20
67.439315
 42
0.000003
  0
VERTEX
  8
0
 10
309.455823
 20
69.492168
 42
0.002739
  0
VERTEX
  8
0
 10
309.672092
 20
71.746408
 42
0.000997
  0
VERTEX
  8
0
 10
309.954734
 20
74.943625
 42
0.000988
  0
VERTEX
  8
0
 10
310.250071
 20
78.442739
 42
0.001180
  0
VERTEX
  8
0
 10
310.514150
 20
81.742168
 42
-0.000607
  0
VERTEX
  8
0
 10
310.771591
 20
85.005643
 42
-0.000541
  0
VERTEX
  8
0
 10
311.046889
 20
88.396137
 42
-0.000543
  0
VERTEX
  8
0
 10
311.301005
 20
91.443856
 42
-0.001682
  0
VERTEX
  8
0
 10
311.481659
 20
93.500000
 42
0.005056
  0
VERTEX
  8
0
 10
311.661727
 20
95.721280
 42
0.001100
  0
VERTEX
  8
0
 10
311.925134
 20
99.556250
 42
0.001146
  0
VERTEX
  8
0
 10
312.210008
 20
103.995308
 42
0.001098
  0
VERTEX
  8
0
 10
312.478802
 20
108.500000
 42
-0.000739
  0
VERTEX
  8
0
 10
312.748683
 20
113.078115
 42
-0.000701
  0
VERTEX
  8
0
 10
313.036817
 20
117.737500
 42
-0.000695
  0
VERTEX
  8
0
 10
313.303235
 20
121.858962
 42
-0.002468
  0
VERTEX
  8
0
 10
313.490741
 20
124.500000
 42
0.005863
  0
VERTEX
  8
0
 10
313.676484
 20
127.394294
 42
0.001013
  0
VERTEX
  8
0
 10
313.952742
 20
132.878125
 42
0.001102
  0
VERTEX
  8
0
 10
314.249776
 20
139.316279
 42
0.000986
  0
VERTEX
  8
0
 10
314.530175
 20
146.000000
 42
-0.000950
  0
VERTEX
  8
0
 10
314.795686
 20
152.339662
 42
-0.001557
  0
VERTEX
  8
0
 10
315.047481
 20
157.707964
 42
-0.000149
  0
VERTEX
  8
0
 10
315.289051
 20
162.508230
 42
-0.177543
  0
VERTEX
  8
0
 10
315.364922
 20
162.686684
 42
-0.190507
  0
VERTEX
  8
0
 10
315.537146
 20
162.767947
 42
-0.000297
  0
VERTEX
  8
0
 10
319.007716
 20
162.989562
 42
-0.002264
  0
VERTEX
  8
0
 10
322.914351
 20
163.218938
 42
-0.001389
  0
VERTEX
  8
0
 10
327.520018
 20
163.455604
 42
0.000434
  0
VERTEX
  8
0
 10
332.692318
 20
163.711481
 42
0.000335
  0
VERTEX
  8
0
 10
338.330880
 20
163.999117
 42
0.000339
  0
VERTEX
  8
0
 10
343.597000
 20
164.274869
 42
0.000812
  0
VERTEX
  8
0
 10
347.500000
 20
164.488254
 42
0.000129
  0
VERTEX
  8
0
 10
364.386662
 20
165.443369
 42
0.000863
  0
VERTEX
  8
0
 10
372.781368
 20
165.934880
 42
0.001618
  0
VERTEX
  8
0
 10
377.880250
 20
166.258808
 42
0.006465
  0
VERTEX
  8
0
 10
381.000000
 20
166.507692
 42
-0.002754
  0
VERTEX
  8
0
 10
382.914141
 20
166.674702
 42
-0.000648
  0
VERTEX
  8
0
 10
386.115625
 20
166.932096
 42
-0.000668
  0
VERTEX
  8
0
 10
389.797656
 20
167.218372
 42
-0.000657
  0
VERTEX
  8
0
 10
393.500000
 20
167.496358
 42
0.001652
  0
VERTEX
  8
0
 10
397.129041
 20
167.776098
 42
0.001900
  0
VERTEX
  8
0
 10
400.590625
 20
168.067676
 42
0.001705
  0
VERTEX
  8
0
 10
403.523125
 20
168.335989
 42
0.010997
  0
VERTEX
  8
0
 10
405.000000
 20
168.509044
 42
-0.008331
  0
VERTEX
  8
0
 10
406.416560
 20
168.682690
 42
-0.001635
  0
VERTEX
  8
0
 10
408.968750
 20
168.944029
 42
-0.001734
  0
VERTEX
  8
0
 10
411.945294
 20
169.228572
 42
-0.001607
  0
VERTEX
  8
0
 10
415.000000
 20
169.500000
 42
0.001791
  0
VERTEX
  8
0
 10
418.054706
 20
169.772559
 42
0.001932
  0
VERTEX
  8
0
 10
421.031250
 20
170.060496
 42
0.001822
  0
VERTEX
  8
0
 10
423.583319
 20
170.326721
 42
0.009273
  0
VERTEX
  8
0
 10
425.000000
 20
170.506360
 42
-0.004114
  0
VERTEX
  8
0
 10
426.320708
 20
170.687695
 42
-0.001162
  0
VERTEX
  8
0
 10
428.381250
 20
170.948488
 42
-0.001171
  0
VERTEX
  8
0
 10
430.710942
 20
171.232309
 42
-0.001237
  0
VERTEX
  8
0
 10
433.000000
 20
171.500000
 42
0.002668
  0
VERTEX
  8
0
 10
437.093327
 20
171.990572
 42
0.004076
  0
VERTEX
  8
0
 10
440.638061
 20
172.463977
 42
0.004527
  0
VERTEX
  8
0
 10
443.867782
 20
172.952010
 42
0.004918
  0
VERTEX
  8
0
 10
447.000000
 20
173.486012
 42
-0.003717
  0
VERTEX
  8
0
 10
448.235615
 20
173.699724
 42
-0.001463
  0
VERTEX
  8
0
 10
449.940625
 20
173.976464
 42
-0.001447
  0
VERTEX
  8
0
 10
451.785422
 20
174.264883
 42
-0.001808
  0
VERTEX
  8
0
 10
453.500000
 20
174.521521
 42
0.004288
  0
VERTEX
  8
0
 10
455.479999
 20
174.827938
 42
0.001653
  0
VERTEX
  8
0
 10
458.222361
 20
175.285765
 42
0.001637
  0
VERTEX
  8
0
 10
461.193098
 20
175.801834
 42
0.002019
  0
VERTEX
  8
0
 10
463.959100
 20
176.303199
 42
0.035259
  0
VERTEX
  8
0
 10
468.524719
 20
177.487690
 42
0.186346
  0
VERTEX
  8
0
 10
470.478159
 20
179.109138
 42
0.097997
  0
VERTEX
  8
0
 10
471.473988
 20
182.173938
 42
0.006340
  0
VERTEX
  8
0
 10
472.471372
 20
191.537778
 42
0.004772
  0
VERTEX
  8
0
 10
472.848147
 20
196.018475
 42
0.058805
  0
VERTEX
  8
0
 10
472.774383
 20
197.727825
 42
0.232283
  0
VERTEX
  8
0
 10
472.279543
 20
198.425275
 42
0.172104
  0
VERTEX
  8
0
 10
471.331408
 20
198.574768
 42
-0.012123
  0
VERTEX
  8
0
 10
470.252501
 20
198.400388
 42
-0.001926
  0
VERTEX
  8
0
 10
468.128601
 20
198.118082
 42
-0.002133
  0
VERTEX
  8
0
 10
465.622862
 20
197.805700
 42
-0.001866
  0
VERTEX
  8
0
 10
463.000000
 20
197.500000
 42
0.001449
  0
VERTEX
  8
0
 10
460.401300
 20
197.199313
 42
0.001762
  0
VERTEX
  8
0
 10
457.968750
 20
196.902010
 42
0.001481
  0
VERTEX
  8
0
 10
455.923935
 20
196.638624
 42
0.012299
  0
VERTEX
  8
0
 10
455.000000
 20
196.493630
 42
-0.018782
  0
VERTEX
  8
0
 10
454.022050
 20
196.353124
 42
-0.001525
  0
VERTEX
  8
0
 10
451.443750
 20
196.088993
 42
-0.002050
  0
VERTEX
  8
0
 10
448.364882
 20
195.795812
 42
-0.001575
  0
VERTEX
  8
0
 10
445.000000
 20
195.500000
 42
0.001768
  0
VERTEX
  8
0
 10
441.630322
 20
195.202453
 42
0.002279
  0
VERTEX
  8
0
 10
438.536712
 20
194.904030
 42
0.001734
  0
VERTEX
  8
0
 10
435.946223
 20
194.633138
 42
0.019946
  0
VERTEX
  8
0
 10
434.933487
 20
194.482616
 42
-0.027515
  0
VERTEX
  8
0
 10
433.846505
 20
194.337831
 42
-0.001306
  0
VERTEX
  8
0
 10
430.174800
 20
194.062708
 42
-0.002142
  0
VERTEX
  8
0
 10
425.810517
 20
193.765940
 42
-0.001539
  0
VERTEX
  8
0
 10
420.933487
 20
193.470357
 42
0.001567
  0
VERTEX
  8
0
 10
416.047883
 20
193.173983
 42
0.002153
  0
VERTEX
  8
0
 10
411.656884
 20
192.874812
 42
0.001376
  0
VERTEX
  8
0
 10
407.968802
 20
192.597371
 42
0.025699
  0
VERTEX
  8
0
 10
406.813353
 20
192.447222
 42
-0.030441
  0
VERTEX
  8
0
 10
405.607091
 20
192.302077
 42
-0.001031
  0
VERTEX
  8
0
 10
400.830112
 20
192.030333
 42
-0.001942
  0
VERTEX
  8
0
 10
395.186067
 20
191.742930
 42
-0.001353
  0
VERTEX
  8
0
 10
388.813353
 20
191.460517
 42
0.001010
  0
VERTEX
  8
0
 10
382.310476
 20
191.176805
 42
0.001255
  0
VERTEX
  8
0
 10
376.263923
 20
190.885552
 42
0.001020
  0
VERTEX
  8
0
 10
371.187779
 20
190.617882
 42
0.009504
  0
VERTEX
  8
0
 10
369.000000
 20
190.456284
 42
-0.013458
  0
VERTEX
  8
0
 10
366.618058
 20
190.299270
 42
-0.000733
  0
VERTEX
  8
0
 10
359.109550
 20
190.018000
 42
-0.001141
  0
VERTEX
  8
0
 10
350.174177
 20
189.716812
 42
-0.000833
  0
VERTEX
  8
0
 10
340.245278
 20
189.421358
 42
0.000000
  0
VERTEX
  8
0
 10
314.990556
 20
188.711946
 42
0.000000
  0
VERTEX
  8
0
 10
315.497082
 20
193.605973
 42
0.002087
  0
VERTEX
  8
0
 10
315.724971
 20
195.901327
 42
0.001057
  0
VERTEX
  8
0
 10
315.993709
 20
198.792948
 42
0.001050
  0
VERTEX
  8
0
 10
316.258540
 20
201.779072
 42
0.001567
  0
VERTEX
  8
0
 10
316.476436
 20
204.391298
 42
-0.004021
  0
VERTEX
  8
0
 10
316.677563
 20
206.667601
 42
-0.006254
  0
VERTEX
  8
0
 10
316.891260
 20
208.626194
 42
-0.002266
  0
VERTEX
  8
0
 10
317.102930
 20
210.301020
 42
-0.176417
  0
VERTEX
  8
0
 10
317.224632
 20
210.535078
 42
-0.179689
  0
VERTEX
  8
0
 10
317.487384
 20
210.642005
 42
-0.000105
  0
VERTEX
  8
0
 10
325.937861
 20
210.901426
 42
-0.001307
  0
VERTEX
  8
0
 10
335.361150
 20
211.164077
 42
-0.000795
  0
VERTEX
  8
0
 10
346.500000
 20
211.427670
 42
0.000562
  0
VERTEX
  8
0
 10
358.446094
 20
211.704795
 42
0.000567
  0
VERTEX
  8
0
 10
370.359375
 20
212.008080
 42
0.000552
  0
VERTEX
  8
0
 10
380.738720
 20
212.295559
 42
0.002294
  0
VERTEX
  8
0
 10
387.000000
 20
212.504654
 42
0.000189
  0
VERTEX
  8
0
 10
407.684734
 20
213.298283
 42
0.000811
  0
VERTEX
  8
0
 10
420.009352
 20
213.795850
 42
0.001348
  0
VERTEX
  8
0
 10
428.546027
 20
214.177429
 42
0.002472
  0
VERTEX
  8
0
 10
435.500000
 20
214.541516
 42
0.001854
  0
VERTEX
  8
0
 10
454.430625
 20
215.696976
 42
0.008446
  0
VERTEX
  8
0
 10
465.430091
 20
216.596098
 42
0.007221
  0
VERTEX
  8
0
 10
472.722525
 20
217.422892
 42
0.214077
  0
VERTEX
  8
0
 10
474.272132
 20
218.371099
 42
0.152953
  0
VERTEX
  8
0
 10
474.892100
 20
220.401647
 42
0.000301
  0
VERTEX
  8
0
 10
474.623680
 20
254.705958
 42
0.000732
  0
VERTEX
  8
0
 10
474.297381
 20
287.697652
 42
0.057006
  0
VERTEX
  8
0
 10
473.644248
 20
292.885307
 42
0.059113
  0
VERTEX
  8
0
 10
472.850582
 20
295.011776
 42
0.178989
  0
VERTEX
  8
0
 10
471.728983
 20
296.038493
 42
0.066051
  0
VERTEX
  8
0
 10
469.558559
 20
296.604551
 42
0.003566
  0
VERTEX
  8
0
 10
462.500000
 20
297.427607
 42
0.001179
  0
VERTEX
  8
0
 10
452.715209
 20
298.474540
 42
0.002581
  0
VERTEX
  8
0
 10
445.215811
 20
299.219945
 42
0.002785
  0
VERTEX
  8
0
 10
438.071235
 20
299.852723
 42
0.001626
  0
VERTEX
  8
0
 10
429.500000
 20
300.535703
 42
-0.000382
  0
VERTEX
  8
0
 10
426.143796
 20
300.794735
 42
-0.000346
  0
VERTEX
  8
0
 10
422.675000
 20
301.067540
 42
-0.000346
  0
VERTEX
  8
0
 10
419.569599
 20
301.316094
 42
-0.001109
  0
VERTEX
  8
0
 10
417.500000
 20
301.487808
 42
0.005848
  0
VERTEX
  8
0
 10
415.153357
 20
301.660130
 42
0.000936
  0
VERTEX
  8
0
 10
410.562500
 20
301.934687
 42
0.001035
  0
VERTEX
  8
0
 10
405.153301
 20
302.236795
 42
0.000907
  0
VERTEX
  8
0
 10
399.500000
 20
302.530508
 42
-0.000440
  0
VERTEX
  8
0
 10
393.810098
 20
302.820791
 42
-0.000482
  0
VERTEX
  8
0
 10
388.290625
 20
303.112588
 42
-0.000450
  0
VERTEX
  8
0
 10
383.569784
 20
303.370988
 42
-0.002417
  0
VERTEX
  8
0
 10
381.000000
 20
303.526432
 42
0.007070
  0
VERTEX
  8
0
 10
374.030126
 20
303.882972
 42
0.000550
  0
VERTEX
  8
0
 10
355.384271
 20
304.552088
 42
0.000769
  0
VERTEX
  8
0
 10
336.884970
 20
305.167082
 42
0.003237
  0
VERTEX
  8
0
 10
325.777939
 20
305.447263
 42
-0.004824
  0
VERTEX
  8
0
 10
322.401888
 20
305.543151
 42
-0.007421
  0
VERTEX
  8
0
 10
319.483081
 20
305.697656
 42
-0.003102
  0
VERTEX
  8
0
 10
317.005465
 20
305.881163
 42
-0.178166
  0
VERTEX
  8
0
 10
316.596635
 20
306.070032
 42
-0.183885
  0
VERTEX
  8
0
 10
316.401623
 20
306.504743
 42
-0.000725
  0
VERTEX
  8
0
 10
316.092250
 20
311.971323
 42
-0.003515
  0
VERTEX
  8
0
 10
315.792547
 20
318.203302
 42
-0.002188
  0
VERTEX
  8
0
 10
315.524476
 20
325.514637
 42
0.002439
  0
VERTEX
  8
0
 10
314.681164
 20
348.204420
 42
0.002319
  0
VERTEX
  8
0
 10
313.604058
 20
371.269193
 42
0.002255
  0
VERTEX
  8
0
 10
312.469671
 20
391.572459
 42
0.008996
  0
VERTEX
  8
0
 10
311.494388
 20
404.000000
 42
-0.002397
  0
VERTEX
  8
0
 10
311.285921
 20
406.271568
 42
-0.000847
  0
VERTEX
  8
0
 10
311.008349
 20
409.528125
 42
-0.000840
  0
VERTEX
  8
0
 10
310.715443
 20
413.107232
 42
-0.000987
  0
VERTEX
  8
0
 10
310.450266
 20
416.500000
 42
0.001786
  0
VERTEX
  8
0
 10
310.191334
 20
419.746137
 42
0.001972
  0
VERTEX
  8
0
 10
309.917258
 20
422.884375
 42
0.001831
  0
VERTEX
  8
0
 10
309.662849
 20
425.562246
 42
0.010118
  0
VERTEX
  8
0
 10
309.491503
 20
427.000000
 42
-0.007590
  0
VERTEX
  8
0
 10
309.315424
 20
428.416499
 42
-0.001488
  0
VERTEX
  8
0
 10
309.045117
 20
430.968750
 42
-0.001579
  0
VERTEX
  8
0
 10
308.748327
 20
433.945294
 42
-0.001463
  0
VERTEX
  8
0
 10
308.462504
 20
437.000000
 42
0.001815
  0
VERTEX
  8
0
 10
308.181390
 20
439.981758
 42
0.002293
  0
VERTEX
  8
0
 10
307.898722
 20
442.737500
 42
0.001816
  0
VERTEX
  8
0
 10
307.642679
 20
445.046598
 42
0.018470
  0
VERTEX
  8
0
 10
307.497610
 20
446.000000
 42
-0.015479
  0
VERTEX
  8
0
 10
307.351305
 20
446.924323
 42
-0.001871
  0
VERTEX
  8
0
 10
307.100053
 20
448.968750
 42
-0.002223
  0
VERTEX
  8
0
 10
306.821300
 20
451.401301
 42
-0.001828
  0
VERTEX
  8
0
 10
306.544820
 20
454.000000
 42
0.003266
  0
VERTEX
  8
0
 10
306.260780
 20
456.598689
 42
0.003961
  0
VERTEX
  8
0
 10
305.959258
 20
459.031250
 42
0.003360
  0
VERTEX
  8
0
 10
305.675711
 20
461.073406
 42
0.027196
  0
VERTEX
  8
0
 10
305.488784
 20
462.000000
 42
-0.016811
  0
VERTEX
  8
0
 10
305.303245
 20
462.830398
 42
-0.003847
  0
VERTEX
  8
0
 10
305.047804
 20
464.246135
 42
-0.003974
  0
VERTEX
  8
0
 10
304.778782
 20
465.883301
 42
-0.003864
  0
VERTEX
  8
0
 10
304.533152
 20
467.540033
 42
0.011272
  0
VERTEX
  8
0
 10
303.487801
 20
473.936041
 42
0.109645
  0
VERTEX
  8
0
 10
302.418314
 20
476.444844
 42
0.186939
  0
VERTEX
  8
0
 10
300.603680
 20
477.633217
 42
0.046022
  0
VERTEX
  8
0
 10
297.000000
 20
478.061198
 42
-0.006259
  0
VERTEX
  8
0
 10
295.550000
 20
478.117409
 42
-0.006077
  0
VERTEX
  8
0
 10
294.087500
 20
478.210281
 42
-0.006012
  0
VERTEX
  8
0
 10
292.803675
 20
478.323025
 42
-0.022320
  0
VERTEX
  8
0
 10
292.000000
 20
478.439768
 42
0.035177
  0
VERTEX
  8
0
 10
280.328323
 20
479.830084
 42
0.003670
  0
VERTEX
  8
0
 10
252.754198
 20
480.958379
 42
0.000824
  0
VERTEX
  8
0
 10
222.417548
 20
481.926695
 42
0.268026
  0
SEQEND
  0
ENDSEC
  0
EOF
