  0
SECTION
  2
HEADER
  9
$ACADVER
  1
AC1006
  9
$EXTMIN
 10
0.000000
 20
0.000000
 30
0.000000
  9
$EXTMAX
 10
385.000000
 20
366.000000
 30
0.000000
  0
ENDSEC
  0
SECTION
  2
ENTITIES
  0
POLYLINE
  8
0
 66
1
 70
1
  0
VERTEX
  8
0
 10
188.000000
 20
364.565100
 42
0.044146
  0
VERTEX
  8
0
 10
188.063752
 20
363.844445
 42
0.015130
  0
VERTEX
  8
0
 10
188.279101
 20
362.817609
 42
0.014904
  0
VERTEX
  8
0
 10
188.586408
 20
361.693198
 42
0.016683
  0
VERTEX
  8
0
 10
188.950132
 20
360.631162
 42
-0.062660
  0
VERTEX
  8
0
 10
189.299774
 20
359.190952
 42
-0.090711
  0
VERTEX
  8
0
 10
189.211131
 20
357.887834
 42
-0.066522
  0
VERTEX
  8
0
 10
188.623840
 20
356.424652
 42
-0.020425
  0
VERTEX
  8
0
 10
187.366202
 20
354.397976
 42
0.018590
  0
VERTEX
  8
0
 10
186.067849
 20
352.322721
 42
0.072368
  0
VERTEX
  8
0
 10
185.511075
 20
350.918134
 42
0.103322
  0
VERTEX
  8
0
 10
185.477794
 20
349.685690
 42
0.062233
  0
VERTEX
  8
0
 10
185.916070
 20
348.284861
 42
-0.055162
  0
VERTEX
  8
0
 10
186.334263
 20
347.011480
 42
-0.017101
  0
VERTEX
  8
0
 10
186.681596
 20
345.022707
 42
-0.016871
  0
VERTEX
  8
0
 10
186.920323
 20
342.756714
 42
-0.017808
  0
VERTEX
  8
0
 10
187.000000
 20
340.520335
 42
-0.012967
  0
VERTEX
  8
0
 10
186.924674
 20
337.616356
 42
-0.066148
  0
VERTEX
  8
0
 10
186.629817
 20
336.031726
 42
-0.126255
  0
VERTEX
  8
0
 10
186.033777
 20
335.096174
 42
-0.111719
  0
VERTEX
  8
0
 10
185.034740
 20
334.511026
 42
0.225999
  0
VERTEX
  8
0
 10
183.152514
 20
332.750992
 42
0.073743
  0
VERTEX
  8
0
 10
182.273317
 20
328.947813
 42
0.037414
  0
VERTEX
  8
0
 10
182.240013
 20
322.505861
 42
0.008274
  0
VERTEX
  8
0
 10
183.190757
 20
311.500000
 42
-0.031464
  0
VERTEX
  8
0
 10
183.260752
 20
309.742767
 42
-0.187725
  0
VERTEX
  8
0
 10
182.914918
 20
308.911437
 42
-0.158827
  0
VERTEX
  8
0
 10
182.060802
 20
308.455402
 42
-0.020966
  0
VERTEX
  8
0
 10
180.000000
 20
308.178703
 42
0.038003
  0
VERTEX
  8
0
 10
176.875825
 20
307.650419
 42
0.229113
  0
VERTEX
  8
0
 10
175.645891
 20
306.627153
 42
0.194579
  0
VERTEX
  8
0
 10
175.573270
 20
304.901410
 42
0.027142
  0
VERTEX
  8
0
 10
176.982442
 20
301.536270
 42
-0.022764
  0
VERTEX
  8
0
 10
178.061916
 20
299.020471
 42
-0.047113
  0
VERTEX
  8
0
 10
178.622794
 20
296.958964
 42
-0.050329
  0
VERTEX
  8
0
 10
178.767761
 20
294.918072
 42
-0.029806
  0
VERTEX
  8
0
 10
178.550010
 20
292.484924
 42
-0.017386
  0
VERTEX
  8
0
 10
178.226494
 20
290.742879
 42
-0.022764
  0
VERTEX
  8
0
 10
177.804167
 20
289.179924
 42
-0.021214
  0
VERTEX
  8
0
 10
177.348776
 20
287.939505
 42
-0.157009
  0
VERTEX
  8
0
 10
176.945593
 20
287.466375
 42
-0.263642
  0
VERTEX
  8
0
 10
174.960039
 20
287.390846
 42
-0.014852
  0
VERTEX
  8
0
 10
169.374002
 20
290.495191
 42
-0.022343
  0
VERTEX
  8
0
 10
163.956465
 20
294.057102
 42
-0.067799
  0
VERTEX
  8
0
 10
160.771890
 20
297.094108
 42
-0.040914
  0
VERTEX
  8
0
 10
159.320203
 20
299.253168
 42
-0.042254
  0
VERTEX
  8
0
 10
158.257354
 20
301.597206
 42
-0.033420
  0
VERTEX
  8
0
 10
157.432920
 20
304.525623
 42
-0.014026
  0
VERTEX
  8
0
 10
156.701300
 20
308.556235
 42
0.009049
  0
VERTEX
  8
0
 10
155.933699
 20
313.038444
 42
0.051921
  0
VERTEX
  8
0
 10
155.241973
 20
315.344196
 42
0.094170
  0
VERTEX
  8
0
 10
154.287484
 20
316.791591
 42
0.072296
  0
VERTEX
  8
0
 10
152.783211
 20
317.948676
 42
0.019705
  0
VERTEX
  8
0
 10
151.131092
 20
318.791910
 42
0.135779
  0
VERTEX
  8
0
 10
150.240610
 20
318.938006
 42
0.166365
  0
VERTEX
  8
0
 10
149.493052
 20
318.588805
 42
0.033532
  0
VERTEX
  8
0
 10
148.492551
 20
317.486549
 42
0.153740
  0
VERTEX
  8
0
 10
147.425884
 20
314.694410
 42
0.028163
  0
VERTEX
  8
0
 10
147.406233
 20
309.100950
 42
0.031092
  0
VERTEX
  8
0
 10
148.097990
 20
303.110217
 42
0.054718
  0
VERTEX
  8
0
 10
149.504672
 20
298.334576
 42
-0.018998
  0
VERTEX
  8
0
 10
150.308042
 20
296.185838
 42
-0.101358
  0
VERTEX
  8
0
 10
150.454456
 20
294.948388
 42
-0.117014
  0
VERTEX
  8
0
 10
150.090585
 20
293.840079
 42
-0.029089
  0
VERTEX
  8
0
 10
148.991854
 20
292.262514
 42
0.012141
  0
VERTEX
  8
0
 10
148.229039
 20
291.242744
 42
0.015884
  0
VERTEX
  8
0
 10
147.585107
 20
290.273043
 42
0.013444
  0
VERTEX
  8
0
 10
147.101622
 20
289.443192
 42
0.125821
  0
VERTEX
  8
0
 10
147.000000
 20
289.045747
 42
0.142573
  0
VERTEX
  8
0
 10
147.130452
 20
288.597556
 42
0.004507
  0
VERTEX
  8
0
 10
148.175000
 20
286.987438
 42
0.008422
  0
VERTEX
  8
0
 10
149.467283
 20
285.103955
 42
0.005703
  0
VERTEX
  8
0
 10
151.000000
 20
283.000000
 42
-0.016142
  0
VERTEX
  8
0
 10
153.114364
 20
279.966541
 42
-0.050010
  0
VERTEX
  8
0
 10
154.257750
 20
277.751409
 42
-0.060822
  0
VERTEX
  8
0
 10
154.818243
 20
275.601856
 42
-0.033406
  0
VERTEX
  8
0
 10
155.000000
 20
272.884494
 42
0.016671
  0
VERTEX
  8
0
 10
155.066537
 20
270.889476
 42
0.014900
  0
VERTEX
  8
0
 10
155.266164
 20
268.826708
 42
0.015125
  0
VERTEX
  8
0
 10
155.556902
 20
266.984393
 42
0.044167
  0
VERTEX
  8
0
 10
155.906091
 20
265.746999
 42
-0.040049
  0
VERTEX
  8
0
 10
156.271053
 20
264.493241
 42
-0.119582
  0
VERTEX
  8
0
 10
156.240162
 20
263.606430
 42
-0.132031
  0
VERTEX
  8
0
 10
155.811966
 20
262.884575
 42
-0.053704
  0
VERTEX
  8
0
 10
154.906091
 20
262.173426
 42
0.154933
  0
VERTEX
  8
0
 10
153.476412
 20
260.493610
 42
0.153091
  0
VERTEX
  8
0
 10
153.268728
 20
258.287964
 42
0.074088
  0
VERTEX
  8
0
 10
154.466344
 20
255.085310
 42
0.016066
  0
VERTEX
  8
0
 10
157.500000
 20
250.000000
 42
-0.034702
  0
VERTEX
  8
0
 10
160.845228
 20
243.885823
 42
-0.099343
  0
VERTEX
  8
0
 10
161.959487
 20
239.195084
 42
-0.229224
  0
VERTEX
  8
0
 10
160.803621
 20
236.575010
 42
-0.220187
  0
VERTEX
  8
0
 10
158.000000
 20
235.795463
 42
0.161229
  0
VERTEX
  8
0
 10
157.312620
 20
235.686334
 42
0.167577
  0
VERTEX
  8
0
 10
156.839082
 20
235.189677
 42
0.085414
  0
VERTEX
  8
0
 10
156.574059
 20
234.189768
 42
0.022172
  0
VERTEX
  8
0
 10
156.500000
 20
232.520505
 42
0.021668
  0
VERTEX
  8
0
 10
156.558501
 20
231.171208
 42
0.034819
  0
VERTEX
  8
0
 10
156.737649
 20
230.034148
 42
0.038850
  0
VERTEX
  8
0
 10
156.995031
 20
229.212420
 42
0.306488
  0
VERTEX
  8
0
 10
157.309017
 20
229.000000
 42
-0.175899
  0
VERTEX
  8
0
 10
157.559184
 20
228.909182
 42
-0.188721
  0
VERTEX
  8
0
 10
157.683754
 20
228.681844
 42
-0.117003
  0
VERTEX
  8
0
 10
157.646995
 20
228.332145
 42
-0.054026
  0
VERTEX
  8
0
 10
157.448651
 20
227.916916
 42
-0.328565
  0
VERTEX
  8
0
 10
157.026598
 20
227.747208
 42
-0.111603
  0
VERTEX
  8
0
 10
156.402548
 20
228.068043
 42
-0.057920
  0
VERTEX
  8
0
 10
155.618784
 20
228.896106
 42
-0.024490
  0
VERTEX
  8
0
 10
154.761932
 20
230.166916
 42
0.017831
  0
VERTEX
  8
0
 10
153.806730
 20
231.625097
 42
0.011337
  0
VERTEX
  8
0
 10
152.597394
 20
233.255281
 42
0.011387
  0
VERTEX
  8
0
 10
151.336337
 20
234.802962
 42
0.020653
  0
VERTEX
  8
0
 10
150.226145
 20
236.000000
 42
-0.040564
  0
VERTEX
  8
0
 10
149.099028
 20
237.316663
 42
-0.016311
  0
VERTEX
  8
0
 10
147.771695
 20
239.280805
 42
-0.016014
  0
VERTEX
  8
0
 10
146.472522
 20
241.499958
 42
-0.019523
  0
VERTEX
  8
0
 10
145.407117
 20
243.658060
 42
0.018223
  0
VERTEX
  8
0
 10
143.797526
 20
246.939931
 42
0.050496
  0
VERTEX
  8
0
 10
142.361574
 20
249.069207
 42
0.228327
  0
VERTEX
  8
0
 10
141.499342
 20
249.462148
 42
0.407973
  0
VERTEX
  8
0
 10
141.000000
 20
248.952028
 42
-0.148627
  0
VERTEX
  8
0
 10
140.879387
 20
248.555236
 42
-0.152575
  0
VERTEX
  8
0
 10
140.559375
 20
248.297620
 42
-0.116977
  0
VERTEX
  8
0
 10
140.073683
 20
248.228143
 42
-0.069008
  0
VERTEX
  8
0
 10
139.500000
 20
248.361626
 42
0.087704
  0
VERTEX
  8
0
 10
138.833012
 20
248.490903
 42
0.198974
  0
VERTEX
  8
0
 10
138.363975
 20
248.305555
 42
0.153487
  0
VERTEX
  8
0
 10
138.085130
 20
247.791536
 42
0.048151
  0
VERTEX
  8
0
 10
138.000000
 20
246.909598
 42
-0.046770
  0
VERTEX
  8
0
 10
137.928131
 20
246.142963
 42
-0.119464
  0
VERTEX
  8
0
 10
137.699735
 20
245.637972
 42
-0.204147
  0
VERTEX
  8
0
 10
137.351903
 20
245.445465
 42
-0.165564
  0
VERTEX
  8
0
 10
136.932692
 20
245.541599
 42
0.183329
  0
VERTEX
  8
0
 10
136.484377
 20
245.628257
 42
0.135197
  0
VERTEX
  8
0
 10
136.022856
 20
245.410728
 42
0.095225
  0
VERTEX
  8
0
 10
135.615948
 20
244.898916
 42
0.056573
  0
VERTEX
  8
0
 10
135.334150
 20
244.169790
 42
-0.051299
  0
VERTEX
  8
0
 10
135.028410
 20
243.353283
 42
-0.045317
  0
VERTEX
  8
0
 10
134.552240
 20
242.579010
 42
-0.047881
  0
VERTEX
  8
0
 10
133.987405
 20
241.957462
 42
-0.093034
  0
VERTEX
  8
0
 10
133.418317
 20
241.607029
 42
0.232448
  0
VERTEX
  8
0
 10
132.753833
 20
240.890320
 42
0.103144
  0
VERTEX
  8
0
 10
132.641171
 20
239.572115
 42
0.086380
  0
VERTEX
  8
0
 10
133.082996
 20
238.105636
 42
0.107423
  0
VERTEX
  8
0
 10
133.975238
 20
237.000000
 42
-0.066544
  0
VERTEX
  8
0
 10
134.866788
 20
236.062207
 42
-0.005527
  0
VERTEX
  8
0
 10
136.812691
 20
233.314370
 42
-0.003176
  0
VERTEX
  8
0
 10
138.793915
 20
230.410799
 42
-0.149198
  0
VERTEX
  8
0
 10
139.000000
 20
229.735532
 42
-0.355773
  0
VERTEX
  8
0
 10
138.837436
 20
229.535984
 42
-0.005741
  0
VERTEX
  8
0
 10
137.313528
 20
229.239616
 42
-0.012077
  0
VERTEX
  8
0
 10
135.459983
 20
228.947250
 42
-0.007362
  0
VERTEX
  8
0
 10
133.258817
 20
228.687263
 42
-0.013439
  0
VERTEX
  8
0
 10
129.657911
 20
228.413180
 42
-0.088157
  0
VERTEX
  8
0
 10
127.868728
 20
228.641212
 42
-0.105397
  0
VERTEX
  8
0
 10
126.411671
 20
229.461293
 42
-0.022990
  0
VERTEX
  8
0
 10
124.328981
 20
231.475294
 42
0.016678
  0
VERTEX
  8
0
 10
122.321370
 20
233.466322
 42
0.105001
  0
VERTEX
  8
0
 10
121.090289
 20
234.202032
 42
0.127959
  0
VERTEX
  8
0
 10
119.779640
 20
234.300371
 42
0.029543
  0
VERTEX
  8
0
 10
117.610041
 20
233.772391
 42
-0.044383
  0
VERTEX
  8
0
 10
115.367735
 20
233.296629
 42
-0.126453
  0
VERTEX
  8
0
 10
113.797638
 20
233.503822
 42
-0.072805
  0
VERTEX
  8
0
 10
112.050334
 20
234.523210
 42
-0.008380
  0
VERTEX
  8
0
 10
108.534198
 20
237.426633
 42
0.018442
  0
VERTEX
  8
0
 10
106.157064
 20
239.310392
 42
0.017380
  0
VERTEX
  8
0
 10
103.601102
 20
241.053328
 42
0.017647
  0
VERTEX
  8
0
 10
101.230201
 20
242.437496
 42
0.055994
  0
VERTEX
  8
0
 10
99.528061
 20
243.119863
 42
-0.024142
  0
VERTEX
  8
0
 10
98.099415
 20
243.589620
 42
-0.021646
  0
VERTEX
  8
0
 10
96.668461
 20
244.210260
 42
-0.022222
  0
VERTEX
  8
0
 10
95.432834
 20
244.880415
 42
-0.061076
  0
VERTEX
  8
0
 10
94.652789
 20
245.490069
 42
0.040190
  0
VERTEX
  8
0
 10
94.067498
 20
245.988137
 42
0.059509
  0
VERTEX
  8
0
 10
93.478731
 20
246.314265
 42
0.078266
  0
VERTEX
  8
0
 10
92.974947
 20
246.432623
 42
0.218359
  0
VERTEX
  8
0
 10
92.642586
 20
246.309253
 42
-0.231237
  0
VERTEX
  8
0
 10
92.366651
 20
246.214457
 42
-0.141622
  0
VERTEX
  8
0
 10
92.043908
 20
246.352795
 42
-0.085396
  0
VERTEX
  8
0
 10
91.716143
 20
246.730978
 42
-0.044358
  0
VERTEX
  8
0
 10
91.440780
 20
247.293730
 42
0.085796
  0
VERTEX
  8
0
 10
91.104965
 20
247.857040
 42
0.093812
  0
VERTEX
  8
0
 10
90.608382
 20
248.254488
 42
0.100329
  0
VERTEX
  8
0
 10
90.029925
 20
248.425785
 42
0.114071
  0
VERTEX
  8
0
 10
89.458483
 20
248.345695
 42
-0.104241
  0
VERTEX
  8
0
 10
88.687297
 20
248.222289
 42
-0.024182
  0
VERTEX
  8
0
 10
87.373006
 20
248.350723
 42
-0.023935
  0
VERTEX
  8
0
 10
85.843614
 20
248.650613
 42
-0.021424
  0
VERTEX
  8
0
 10
84.291241
 20
249.104289
 42
0.009319
  0
VERTEX
  8
0
 10
80.786643
 20
250.221237
 42
0.050205
  0
VERTEX
  8
0
 10
78.824307
 20
250.597754
 42
0.096224
  0
VERTEX
  8
0
 10
77.468743
 20
250.458162
 42
0.099893
  0
VERTEX
  8
0
 10
76.284038
 20
249.820768
 42
0.202993
  0
VERTEX
  8
0
 10
75.222954
 20
247.770260
 42
0.101429
  0
VERTEX
  8
0
 10
75.594334
 20
244.819020
 42
0.046012
  0
VERTEX
  8
0
 10
77.622187
 20
240.269621
 42
0.008936
  0
VERTEX
  8
0
 10
82.165535
 20
232.500000
 42
-0.055517
  0
VERTEX
  8
0
 10
83.419941
 20
229.808202
 42
-0.070748
  0
VERTEX
  8
0
 10
83.920237
 20
227.118583
 42
-0.078084
  0
VERTEX
  8
0
 10
83.635534
 20
224.614396
 42
-0.090827
  0
VERTEX
  8
0
 10
82.594005
 20
222.459447
 42
-0.059153
  0
VERTEX
  8
0
 10
81.645498
 20
221.440353
 42
-0.148199
  0
VERTEX
  8
0
 10
80.722920
 20
221.040651
 42
-0.087043
  0
VERTEX
  8
0
 10
79.426307
 20
221.117334
 42
-0.012456
  0
VERTEX
  8
0
 10
76.844005
 20
221.797736
 42
0.009639
  0
VERTEX
  8
0
 10
71.756217
 20
223.168993
 42
0.045262
  0
VERTEX
  8
0
 10
68.765602
 20
223.631764
 42
0.080325
  0
VERTEX
  8
0
 10
66.647997
 20
223.425188
 42
0.088597
  0
VERTEX
  8
0
 10
64.781385
 20
222.559430
 42
-0.076866
  0
VERTEX
  8
0
 10
62.335180
 20
221.354820
 42
-0.121148
  0
VERTEX
  8
0
 10
60.011063
 20
221.208139
 42
-0.092255
  0
VERTEX
  8
0
 10
57.442798
 20
222.180949
 42
-0.031408
  0
VERTEX
  8
0
 10
54.157211
 20
224.471768
 42
0.016176
  0
VERTEX
  8
0
 10
50.626808
 20
227.096536
 42
0.068843
  0
VERTEX
  8
0
 10
48.287485
 20
228.283339
 42
0.097679
  0
VERTEX
  8
0
 10
46.143560
 20
228.579523
 42
0.052549
  0
VERTEX
  8
0
 10
43.500000
 20
228.146229
 42
-0.037321
  0
VERTEX
  8
0
 10
42.057584
 20
227.864549
 42
-0.052598
  0
VERTEX
  8
0
 10
40.748521
 20
227.847331
 42
-0.057909
  0
VERTEX
  8
0
 10
39.565921
 20
228.096470
 42
-0.061853
  0
VERTEX
  8
0
 10
38.500000
 20
228.607260
 42
0.088751
  0
VERTEX
  8
0
 10
35.425931
 20
229.883033
 42
0.017569
  0
VERTEX
  8
0
 10
29.538191
 20
230.961769
 42
0.019182
  0
VERTEX
  8
0
 10
23.464406
 20
231.618542
 42
0.056504
  0
VERTEX
  8
0
 10
19.273064
 20
231.435960
 42
-0.030237
  0
VERTEX
  8
0
 10
17.643574
 20
231.279101
 42
-0.023690
  0
VERTEX
  8
0
 10
15.867286
 20
231.300168
 42
-0.024240
  0
VERTEX
  8
0
 10
14.211466
 20
231.479193
 42
-0.052636
  0
VERTEX
  8
0
 10
12.977273
 20
231.809294
 42
0.028826
  0
VERTEX
  8
0
 10
11.432876
 20
232.302108
 42
0.281932
  0
VERTEX
  8
0
 10
10.806051
 20
232.109342
 42
0.171699
  0
VERTEX
  8
0
 10
10.506094
 20
231.364338
 42
0.010672
  0
VERTEX
  8
0
 10
10.454545
 20
228.949446
 42
-0.017425
  0
VERTEX
  8
0
 10
10.401601
 20
227.430675
 42
-0.021968
  0
VERTEX
  8
0
 10
10.242151
 20
226.033361
 42
-0.020772
  0
VERTEX
  8
0
 10
10.013089
 20
224.898042
 42
-0.137042
  0
VERTEX
  8
0
 10
9.731499
 20
224.398165
 42
-0.258227
  0
VERTEX
  8
0
 10
8.829488
 20
224.138803
 42
-0.044958
  0
VERTEX
  8
0
 10
7.083321
 20
224.708339
 42
-0.036557
  0
VERTEX
  8
0
 10
4.844873
 20
225.868643
 42
-0.019439
  0
VERTEX
  8
0
 10
2.250000
 20
227.606714
 42
0.017030
  0
VERTEX
  8
0
 10
1.141962
 20
228.356643
 42
0.103635
  0
VERTEX
  8
0
 10
0.496347
 20
228.595535
 42
0.295322
  0
VERTEX
  8
0
 10
0.144712
 20
228.435775
 42
0.143479
  0
VERTEX
  8
0
 10
-0.000000
 20
227.941859
 42
0.197940
  0
VERTEX
  8
0
 10
0.824217
 20
225.941445
 42
0.019427
  0
VERTEX
  8
0
 10
4.718607
 20
222.311317
 42
0.025113
  0
VERTEX
  8
0
 10
9.064670
 20
218.929751
 42
0.066106
  0
VERTEX
  8
0
 10
12.560286
 20
217.114361
 42
-0.027613
  0
VERTEX
  8
0
 10
14.206194
 20
216.414235
 42
-0.018640
  0
VERTEX
  8
0
 10
16.002456
 20
215.445318
 42
-0.018810
  0
VERTEX
  8
0
 10
17.674120
 20
214.374855
 42
-0.035136
  0
VERTEX
  8
0
 10
18.925758
 20
213.368022
 42
0.016614
  0
VERTEX
  8
0
 10
19.977577
 20
212.455796
 42
0.020009
  0
VERTEX
  8
0
 10
21.026135
 20
211.673131
 42
0.019078
  0
VERTEX
  8
0
 10
21.948082
 20
211.091200
 42
0.112800
  0
VERTEX
  8
0
 10
22.489782
 20
210.923489
 42
-0.039003
  0
VERTEX
  8
0
 10
24.829302
 20
210.561384
 42
-0.059780
  0
VERTEX
  8
0
 10
26.753396
 20
209.856977
 42
-0.051979
  0
VERTEX
  8
0
 10
28.637237
 20
208.638232
 42
-0.022277
  0
VERTEX
  8
0
 10
30.887957
 20
206.653675
 42
0.038234
  0
VERTEX
  8
0
 10
35.105664
 20
203.167311
 42
0.048416
  0
VERTEX
  8
0
 10
39.498280
 20
200.666446
 42
0.050956
  0
VERTEX
  8
0
 10
44.093693
 20
199.148750
 42
0.050535
  0
VERTEX
  8
0
 10
48.914068
 20
198.586200
 42
-0.023065
  0
VERTEX
  8
0
 10
52.276466
 20
198.379776
 42
-0.067037
  0
VERTEX
  8
0
 10
54.532556
 20
197.824539
 42
-0.059224
  0
VERTEX
  8
0
 10
56.712314
 20
196.652081
 42
-0.015172
  0
VERTEX
  8
0
 10
59.924149
 20
194.250000
 42
0.011009
  0
VERTEX
  8
0
 10
62.063282
 20
192.622231
 42
0.014760
  0
VERTEX
  8
0
 10
64.075939
 20
191.248437
 42
0.011867
  0
VERTEX
  8
0
 10
65.793464
 20
190.205582
 42
0.131234
  0
VERTEX
  8
0
 10
66.563241
 20
190.000000
 42
-0.209185
  0
VERTEX
  8
0
 10
67.562680
 20
189.562730
 42
-0.098460
  0
VERTEX
  8
0
 10
68.313852
 20
188.336607
 42
-0.055192
  0
VERTEX
  8
0
 10
68.841142
 20
186.210490
 42
-0.017613
  0
VERTEX
  8
0
 10
69.159215
 20
182.962101
 42
-0.031136
  0
VERTEX
  8
0
 10
69.159661
 20
179.545146
 42
-0.212522
  0
VERTEX
  8
0
 10
68.398672
 20
178.086750
 42
-0.212771
  0
VERTEX
  8
0
 10
66.806397
 20
177.677188
 42
-0.031211
  0
VERTEX
  8
0
 10
63.482715
 20
178.455165
 42
0.014842
  0
VERTEX
  8
0
 10
60.795303
 20
179.177708
 42
0.082363
  0
VERTEX
  8
0
 10
59.308526
 20
179.279881
 42
0.108414
  0
VERTEX
  8
0
 10
58.063484
 20
178.878687
 42
0.034715
  0
VERTEX
  8
0
 10
56.446762
 20
177.779463
 42
0.040162
  0
VERTEX
  8
0
 10
55.502570
 20
176.905488
 42
0.050281
  0
VERTEX
  8
0
 10
54.787033
 20
175.950923
 42
0.058900
  0
VERTEX
  8
0
 10
54.383522
 20
175.059587
 42
0.170073
  0
VERTEX
  8
0
 10
54.403223
 20
174.391600
 42
-0.039506
  0
VERTEX
  8
0
 10
54.554448
 20
173.880056
 42
-0.092326
  0
VERTEX
  8
0
 10
54.564123
 20
173.482599
 42
-0.185402
  0
VERTEX
  8
0
 10
54.437300
 20
173.264367
 42
-0.240086
  0
VERTEX
  8
0
 10
54.214012
 20
173.217599
 42
0.144780
  0
VERTEX
  8
0
 10
53.772719
 20
173.207547
 42
0.014570
  0
VERTEX
  8
0
 10
52.769641
 20
172.853313
 42
0.017318
  0
VERTEX
  8
0
 10
51.577486
 20
172.344708
 42
0.012944
  0
VERTEX
  8
0
 10
50.299660
 20
171.705603
 42
-0.028907
  0
VERTEX
  8
0
 10
48.882592
 20
171.052519
 42
-0.022227
  0
VERTEX
  8
0
 10
47.270454
 20
170.501021
 42
-0.022688
  0
VERTEX
  8
0
 10
45.712104
 20
170.120003
 42
-0.048645
  0
VERTEX
  8
0
 10
44.481566
 20
170.000000
 42
0.000000
  0
VERTEX
  8
0
 10
41.863812
 20
170.000000
 42
0.000000
  0
VERTEX
  8
0
 10
44.148993
 20
166.750000
 42
0.007998
  0
VERTEX
  8
0
 10
46.569697
 20
163.421703
 42
0.065227
  0
VERTEX
  8
0
 10
47.883436
 20
162.080583
 42
0.195382
  0
VERTEX
  8
0
 10
48.880917
 20
161.794250
 42
0.171408
  0
VERTEX
  8
0
 10
49.864286
 20
162.264286
 42
-0.025453
  0
VERTEX
  8
0
 10
50.427640
 20
162.773029
 42
-0.214860
  0
VERTEX
  8
0
 10
50.750000
 20
162.858896
 42
-0.316204
  0
VERTEX
  8
0
 10
50.945992
 20
162.666757
 42
-0.045735
  0
VERTEX
  8
0
 10
51.000000
 20
162.077555
 42
0.065604
  0
VERTEX
  8
0
 10
51.071673
 20
161.533645
 42
0.269189
  0
VERTEX
  8
0
 10
51.298392
 20
161.308081
 42
0.196731
  0
VERTEX
  8
0
 10
51.672712
 20
161.357616
 42
0.037955
  0
VERTEX
  8
0
 10
52.250000
 20
161.749130
 42
-0.082087
  0
VERTEX
  8
0
 10
52.874039
 20
162.096563
 42
-0.045459
  0
VERTEX
  8
0
 10
53.720312
 20
162.315673
 42
-0.043772
  0
VERTEX
  8
0
 10
54.642380
 20
162.384963
 42
-0.053592
  0
VERTEX
  8
0
 10
55.500000
 20
162.281930
 42
0.010717
  0
VERTEX
  8
0
 10
56.506862
 20
162.072357
 42
0.003910
  0
VERTEX
  8
0
 10
57.940625
 20
161.817436
 42
0.003875
  0
VERTEX
  8
0
 10
59.513390
 20
161.562993
 42
0.004623
  0
VERTEX
  8
0
 10
61.000000
 20
161.348345
 42
-0.019582
  0
VERTEX
  8
0
 10
62.509453
 20
161.084093
 42
-0.014575
  0
VERTEX
  8
0
 10
64.151917
 20
160.679341
 42
-0.014785
  0
VERTEX
  8
0
 10
65.680485
 20
160.205944
 42
-0.032084
  0
VERTEX
  8
0
 10
66.815036
 20
159.734205
 42
0.028420
  0
VERTEX
  8
0
 10
68.038633
 20
159.214900
 42
0.110624
  0
VERTEX
  8
0
 10
68.849873
 20
159.113629
 42
0.154717
  0
VERTEX
  8
0
 10
69.474373
 20
159.379993
 42
0.074286
  0
VERTEX
  8
0
 10
70.049724
 20
160.046214
 42
-0.021240
  0
VERTEX
  8
0
 10
70.546674
 20
160.762550
 42
-0.371399
  0
VERTEX
  8
0
 10
70.803165
 20
160.817378
 42
-0.249431
  0
VERTEX
  8
0
 10
70.978816
 20
160.550026
 42
-0.013267
  0
VERTEX
  8
0
 10
71.048074
 20
159.500000
 42
0.006255
  0
VERTEX
  8
0
 10
71.112229
 20
158.263523
 42
0.469398
  0
VERTEX
  8
0
 10
71.254948
 20
158.159745
 42
0.235653
  0
VERTEX
  8
0
 10
71.447094
 20
158.325531
 42
0.003466
  0
VERTEX
  8
0
 10
72.031162
 20
159.750000
 42
-0.075772
  0
VERTEX
  8
0
 10
72.954263
 20
161.313121
 42
-0.215387
  0
VERTEX
  8
0
 10
74.060647
 20
161.863771
 42
-0.112735
  0
VERTEX
  8
0
 10
75.726050
 20
161.548649
 42
-0.015055
  0
VERTEX
  8
0
 10
78.978879
 20
160.010775
 42
0.029832
  0
VERTEX
  8
0
 10
81.084523
 20
159.090339
 42
0.046939
  0
VERTEX
  8
0
 10
82.991030
 20
158.585934
 42
0.046549
  0
VERTEX
  8
0
 10
84.969665
 20
158.443615
 42
0.028755
  0
VERTEX
  8
0
 10
87.296579
 20
158.627172
 42
-0.024374
  0
VERTEX
  8
0
 10
89.493196
 20
158.819822
 42
-0.046058
  0
VERTEX
  8
0
 10
91.267253
 20
158.725157
 42
-0.054515
  0
VERTEX
  8
0
 10
92.781024
 20
158.331710
 42
-0.054261
  0
VERTEX
  8
0
 10
94.176538
 20
157.619983
 42
0.091086
  0
VERTEX
  8
0
 10
97.379745
 20
156.271840
 42
0.026062
  0
VERTEX
  8
0
 10
102.717089
 20
155.385355
 42
0.022060
  0
VERTEX
  8
0
 10
108.015320
 20
155.022583
 42
0.181188
  0
VERTEX
  8
0
 10
110.262623
 20
155.802995
 42
-0.074955
  0
VERTEX
  8
0
 10
110.905885
 20
156.191295
 42
-0.044475
  0
VERTEX
  8
0
 10
111.762101
 20
156.460449
 42
-0.043398
  0
VERTEX
  8
0
 10
112.685420
 20
156.580166
 42
-0.056712
  0
VERTEX
  8
0
 10
113.534038
 20
156.519724
 42
0.001260
  0
VERTEX
  8
0
 10
114.327890
 20
156.373719
 42
0.001442
  0
VERTEX
  8
0
 10
115.087421
 20
156.238266
 42
0.001299
  0
VERTEX
  8
0
 10
115.732392
 20
156.126889
 42
0.008240
  0
VERTEX
  8
0
 10
116.061439
 20
156.076511
 42
-0.149393
  0
VERTEX
  8
0
 10
117.033195
 20
155.628448
 42
-0.015158
  0
VERTEX
  8
0
 10
118.898988
 20
153.858860
 42
-0.013852
  0
VERTEX
  8
0
 10
120.667420
 20
151.975133
 42
-0.183555
  0
VERTEX
  8
0
 10
121.000000
 20
151.099717
 42
-0.279703
  0
VERTEX
  8
0
 10
120.828913
 20
150.817807
 42
-0.079319
  0
VERTEX
  8
0
 10
120.321197
 20
150.648677
 42
-0.055321
  0
VERTEX
  8
0
 10
119.574803
 20
150.609290
 42
-0.032781
  0
VERTEX
  8
0
 10
118.689181
 20
150.719085
 42
0.109696
  0
VERTEX
  8
0
 10
116.833697
 20
150.664081
 42
0.142279
  0
VERTEX
  8
0
 10
115.373058
 20
149.806670
 42
0.108748
  0
VERTEX
  8
0
 10
114.337460
 20
148.081672
 42
0.047878
  0
VERTEX
  8
0
 10
113.731684
 20
145.475077
 42
-0.049829
  0
VERTEX
  8
0
 10
113.328975
 20
143.772351
 42
-0.162066
  0
VERTEX
  8
0
 10
112.633497
 20
142.863464
 42
-0.103263
  0
VERTEX
  8
0
 10
111.330347
 20
142.327030
 42
-0.014228
  0
VERTEX
  8
0
 10
108.417332
 20
141.868119
 42
0.027094
  0
VERTEX
  8
0
 10
104.829178
 20
141.207861
 42
0.028080
  0
VERTEX
  8
0
 10
101.377004
 20
140.169059
 42
0.022936
  0
VERTEX
  8
0
 10
98.579614
 20
139.005087
 42
0.297488
  0
VERTEX
  8
0
 10
98.015313
 20
138.089485
 42
0.083961
  0
VERTEX
  8
0
 10
98.077575
 20
137.771742
 42
0.017234
  0
VERTEX
  8
0
 10
98.298576
 20
137.242388
 42
0.017686
  0
VERTEX
  8
0
 10
98.601935
 20
136.638209
 42
0.015815
  0
VERTEX
  8
0
 10
98.958110
 20
136.033538
 42
-0.065876
  0
VERTEX
  8
0
 10
99.277471
 20
135.341553
 42
-0.081436
  0
VERTEX
  8
0
 10
99.375238
 20
134.639208
 42
-0.085507
  0
VERTEX
  8
0
 10
99.243117
 20
133.969570
 42
-0.082014
  0
VERTEX
  8
0
 10
98.893681
 20
133.371893
 42
0.358648
  0
VERTEX
  8
0
 10
98.888125
 20
131.985544
 42
0.044674
  0
VERTEX
  8
0
 10
101.153491
 20
129.667933
 42
0.044920
  0
VERTEX
  8
0
 10
104.027003
 20
127.626346
 42
0.132759
  0
VERTEX
  8
0
 10
106.344391
 20
127.000000
 42
0.217913
  0
VERTEX
  8
0
 10
107.411954
 20
127.488467
 42
0.150599
  0
VERTEX
  8
0
 10
107.954126
 20
128.723686
 42
0.115777
  0
VERTEX
  8
0
 10
107.767530
 20
130.326847
 42
0.110192
  0
VERTEX
  8
0
 10
106.887132
 20
131.712868
 42
-0.172567
  0
VERTEX
  8
0
 10
106.212170
 20
133.133175
 42
-0.306356
  0
VERTEX
  8
0
 10
106.799930
 20
134.227997
 42
-0.117684
  0
VERTEX
  8
0
 10
108.928798
 20
134.769898
 42
-0.033237
  0
VERTEX
  8
0
 10
112.370894
 20
134.592532
 42
0.020709
  0
VERTEX
  8
0
 10
114.771508
 20
134.408476
 42
0.032386
  0
VERTEX
  8
0
 10
116.841884
 20
134.469858
 42
0.038100
  0
VERTEX
  8
0
 10
118.587596
 20
134.770512
 42
0.060621
  0
VERTEX
  8
0
 10
120.000000
 20
135.314774
 42
-0.045023
  0
VERTEX
  8
0
 10
121.331744
 20
135.876126
 42
-0.060855
  0
VERTEX
  8
0
 10
122.614350
 20
136.119303
 42
-0.058039
  0
VERTEX
  8
0
 10
123.963874
 20
136.051587
 42
-0.036484
  0
VERTEX
  8
0
 10
125.500000
 20
135.677268
 42
-0.024360
  0
VERTEX
  8
0
 10
128.932934
 20
134.382493
 42
-0.208302
  0
VERTEX
  8
0
 10
130.028432
 20
133.208182
 42
-0.227197
  0
VERTEX
  8
0
 10
129.863680
 20
131.672143
 42
-0.029057
  0
VERTEX
  8
0
 10
127.904391
 20
128.879284
 42
-0.018521
  0
VERTEX
  8
0
 10
126.663414
 20
127.426383
 42
-0.029065
  0
VERTEX
  8
0
 10
125.483205
 20
126.284826
 42
-0.028598
  0
VERTEX
  8
0
 10
124.482385
 20
125.518524
 42
-0.295652
  0
VERTEX
  8
0
 10
123.987140
 20
125.507948
 42
0.239523
  0
VERTEX
  8
0
 10
122.272881
 20
125.651225
 42
0.065284
  0
VERTEX
  8
0
 10
119.838395
 20
124.266415
 42
0.050853
  0
VERTEX
  8
0
 10
117.128902
 20
121.746376
 42
0.033479
  0
VERTEX
  8
0
 10
114.539972
 20
118.362351
 42
-0.017930
  0
VERTEX
  8
0
 10
113.067622
 20
116.308608
 42
-0.024401
  0
VERTEX
  8
0
 10
111.587814
 20
114.575191
 42
-0.022734
  0
VERTEX
  8
0
 10
110.266740
 20
113.294422
 42
-0.183118
  0
VERTEX
  8
0
 10
109.489785
 20
113.000000
 42
0.065319
  0
VERTEX
  8
0
 10
108.920250
 20
112.925279
 42
0.082752
  0
VERTEX
  8
0
 10
108.437624
 20
112.706250
 42
0.099037
  0
VERTEX
  8
0
 10
108.114793
 20
112.381351
 42
0.147245
  0
VERTEX
  8
0
 10
108.000000
 20
112.000000
 42
-0.217656
  0
VERTEX
  8
0
 10
107.825160
 20
111.617384
 42
-0.078543
  0
VERTEX
  8
0
 10
107.305240
 20
111.293750
 42
-0.059722
  0
VERTEX
  8
0
 10
106.540450
 20
111.073244
 42
-0.040374
  0
VERTEX
  8
0
 10
105.634859
 20
111.000000
 42
0.107070
  0
VERTEX
  8
0
 10
103.242367
 20
110.481731
 42
0.063068
  0
VERTEX
  8
0
 10
100.741781
 20
108.939567
 42
0.062580
  0
VERTEX
  8
0
 10
98.681325
 20
106.802748
 42
0.099402
  0
VERTEX
  8
0
 10
97.593326
 20
104.515816
 42
-0.036588
  0
VERTEX
  8
0
 10
97.275200
 20
103.552774
 42
-0.048590
  0
VERTEX
  8
0
 10
96.841889
 20
102.739021
 42
-0.057738
  0
VERTEX
  8
0
 10
96.365646
 20
102.175607
 42
-0.190687
  0
VERTEX
  8
0
 10
95.921931
 20
102.000000
 42
0.111702
  0
VERTEX
  8
0
 10
95.574553
 20
101.921414
 42
0.183665
  0
VERTEX
  8
0
 10
95.369003
 20
101.706250
 42
0.159017
  0
VERTEX
  8
0
 10
95.341759
 20
101.382193
 42
0.080688
  0
VERTEX
  8
0
 10
95.500000
 20
101.000000
 42
-0.139169
  0
VERTEX
  8
0
 10
95.607943
 20
100.620352
 42
-0.191142
  0
VERTEX
  8
0
 10
95.478525
 20
100.293750
 42
-0.138808
  0
VERTEX
  8
0
 10
95.110654
 20
100.073267
 42
-0.066118
  0
VERTEX
  8
0
 10
94.559017
 20
100.000000
 42
0.062283
  0
VERTEX
  8
0
 10
93.962904
 20
99.925455
 42
0.080552
  0
VERTEX
  8
0
 10
93.457961
 20
99.706250
 42
0.097988
  0
VERTEX
  8
0
 10
93.120018
 20
99.381379
 42
0.153634
  0
VERTEX
  8
0
 10
93.000000
 20
99.000000
 42
-0.153634
  0
VERTEX
  8
0
 10
92.879982
 20
98.618621
 42
-0.097988
  0
VERTEX
  8
0
 10
92.542039
 20
98.293750
 42
-0.080552
  0
VERTEX
  8
0
 10
92.037096
 20
98.074545
 42
-0.062283
  0
VERTEX
  8
0
 10
91.440983
 20
98.000000
 42
0.055895
  0
VERTEX
  8
0
 10
90.882131
 20
97.937330
 42
0.120670
  0
VERTEX
  8
0
 10
90.497485
 20
97.745066
 42
0.189954
  0
VERTEX
  8
0
 10
90.345284
 20
97.460852
 42
0.169032
  0
VERTEX
  8
0
 10
90.418334
 20
97.132138
 42
-0.193879
  0
VERTEX
  8
0
 10
90.474801
 20
96.804300
 42
-0.184902
  0
VERTEX
  8
0
 10
90.289735
 20
96.520663
 42
-0.108303
  0
VERTEX
  8
0
 10
89.851417
 20
96.329507
 42
-0.049625
  0
VERTEX
  8
0
 10
89.227351
 20
96.269218
 42
0.011628
  0
VERTEX
  8
0
 10
87.046186
 20
96.224727
 42
0.060744
  0
VERTEX
  8
0
 10
85.863149
 20
96.027747
 42
0.194780
  0
VERTEX
  8
0
 10
85.400227
 20
95.660186
 42
0.273680
  0
VERTEX
  8
0
 10
85.410163
 20
95.145360
 42
-0.231943
  0
VERTEX
  8
0
 10
85.457008
 20
94.667643
 42
-0.046426
  0
VERTEX
  8
0
 10
85.073118
 20
93.874681
 42
-0.040339
  0
VERTEX
  8
0
 10
84.408360
 20
92.951916
 42
-0.027929
  0
VERTEX
  8
0
 10
83.521052
 20
92.019778
 42
0.040969
  0
VERTEX
  8
0
 10
82.550271
 20
90.945243
 42
0.028554
  0
VERTEX
  8
0
 10
81.632835
 20
89.591862
 42
0.028918
  0
VERTEX
  8
0
 10
80.897606
 20
88.182428
 42
0.051744
  0
VERTEX
  8
0
 10
80.487594
 20
86.943516
 42
-0.056155
  0
VERTEX
  8
0
 10
79.712645
 20
84.669158
 42
-0.107070
  0
VERTEX
  8
0
 10
78.543192
 20
83.143250
 42
-0.120786
  0
VERTEX
  8
0
 10
76.953887
 20
82.349590
 42
-0.083914
  0
VERTEX
  8
0
 10
74.941357
 20
82.238173
 42
0.068338
  0
VERTEX
  8
0
 10
73.665819
 20
82.207131
 42
0.204610
  0
VERTEX
  8
0
 10
72.944329
 20
81.750313
 42
0.113492
  0
VERTEX
  8
0
 10
72.527261
 20
80.695974
 42
0.015232
  0
VERTEX
  8
0
 10
72.239221
 20
78.311284
 42
0.020596
  0
VERTEX
  8
0
 10
72.119490
 20
75.847435
 42
0.109969
  0
VERTEX
  8
0
 10
72.400666
 20
74.539079
 42
0.131761
  0
VERTEX
  8
0
 10
73.185848
 20
73.593061
 42
0.034707
  0
VERTEX
  8
0
 10
74.881491
 20
72.561284
 42
0.018657
  0
VERTEX
  8
0
 10
77.526578
 20
71.316220
 42
0.158135
  0
VERTEX
  8
0
 10
78.818820
 20
71.200959
 42
0.182616
  0
VERTEX
  8
0
 10
79.837222
 20
71.876900
 42
0.026567
  0
VERTEX
  8
0
 10
81.203490
 20
74.006323
 42
-0.094702
  0
VERTEX
  8
0
 10
82.960038
 20
76.065821
 42
-0.144915
  0
VERTEX
  8
0
 10
85.117415
 20
76.947467
 42
-0.127361
  0
VERTEX
  8
0
 10
87.617688
 20
76.561327
 42
-0.065074
  0
VERTEX
  8
0
 10
90.365901
 20
74.926822
 42
0.067934
  0
VERTEX
  8
0
 10
92.347244
 20
73.763635
 42
0.083688
  0
VERTEX
  8
0
 10
94.431876
 20
73.279460
 42
0.140543
  0
VERTEX
  8
0
 10
95.881375
 20
73.600600
 42
0.315287
  0
VERTEX
  8
0
 10
96.359592
 20
74.559390
 42
0.010205
  0
VERTEX
  8
0
 10
96.265975
 20
75.109418
 42
0.001621
  0
VERTEX
  8
0
 10
96.057033
 20
76.182879
 42
0.001797
  0
VERTEX
  8
0
 10
95.802164
 20
77.446188
 42
0.001572
  0
VERTEX
  8
0
 10
95.526775
 20
78.765305
 42
0.000000
  0
VERTEX
  8
0
 10
94.834366
 20
82.030610
 42
0.000000
  0
VERTEX
  8
0
 10
102.167183
 20
81.765305
 42
-0.008497
  0
VERTEX
  8
0
 10
105.897265
 20
81.566832
 42
-0.041547
  0
VERTEX
  8
0
 10
107.983646
 20
81.244677
 42
-0.091117
  0
VERTEX
  8
0
 10
109.106334
 20
80.746037
 42
-0.247656
  0
VERTEX
  8
0
 10
109.500000
 20
80.000000
 42
-0.189029
  0
VERTEX
  8
0
 10
109.225401
 20
79.299612
 42
-0.146660
  0
VERTEX
  8
0
 10
108.513752
 20
78.880486
 42
-0.064553
  0
VERTEX
  8
0
 10
107.158847
 20
78.727985
 42
-0.013262
  0
VERTEX
  8
0
 10
104.750000
 20
78.832511
 42
0.011012
  0
VERTEX
  8
0
 10
102.020246
 20
78.963269
 42
0.091387
  0
VERTEX
  8
0
 10
100.800593
 20
78.770911
 42
0.212473
  0
VERTEX
  8
0
 10
100.210713
 20
78.213156
 42
0.098987
  0
VERTEX
  8
0
 10
100.000000
 20
77.159236
 42
0.086552
  0
VERTEX
  8
0
 10
100.169913
 20
76.185029
 42
0.030048
  0
VERTEX
  8
0
 10
100.734375
 20
74.869895
 42
0.028791
  0
VERTEX
  8
0
 10
101.543217
 20
73.467234
 42
0.029726
  0
VERTEX
  8
0
 10
102.500000
 20
72.182369
 42
-0.029985
  0
VERTEX
  8
0
 10
103.456782
 20
70.896117
 42
-0.028911
  0
VERTEX
  8
0
 10
104.265625
 20
69.489316
 42
-0.030178
  0
VERTEX
  8
0
 10
104.829809
 20
68.168376
 42
-0.086041
  0
VERTEX
  8
0
 10
105.000000
 20
67.186684
 42
-0.100550
  0
VERTEX
  8
0
 10
104.443479
 20
64.447286
 42
-0.064150
  0
VERTEX
  8
0
 10
102.797452
 20
61.631377
 42
-0.057489
  0
VERTEX
  8
0
 10
100.263289
 20
59.028144
 42
-0.049534
  0
VERTEX
  8
0
 10
97.078596
 20
56.918786
 42
0.018085
  0
VERTEX
  8
0
 10
94.428002
 20
55.393470
 42
0.093163
  0
VERTEX
  8
0
 10
93.187401
 20
54.251243
 42
0.114166
  0
VERTEX
  8
0
 10
92.572253
 20
52.849435
 42
0.033496
  0
VERTEX
  8
0
 10
92.290849
 20
50.500000
 42
-0.012567
  0
VERTEX
  8
0
 10
91.773604
 20
43.828298
 42
-0.034968
  0
VERTEX
  8
0
 10
90.967707
 20
39.200507
 42
-0.051387
  0
VERTEX
  8
0
 10
89.900627
 20
36.231271
 42
-0.240345
  0
VERTEX
  8
0
 10
88.500000
 20
35.163493
 42
0.090215
  0
VERTEX
  8
0
 10
86.179904
 20
34.291362
 42
0.078578
  0
VERTEX
  8
0
 10
84.186473
 20
32.624756
 42
0.085149
  0
VERTEX
  8
0
 10
82.931996
 20
30.568213
 42
0.142638
  0
VERTEX
  8
0
 10
82.742382
 20
28.567309
 42
-0.069846
  0
VERTEX
  8
0
 10
82.799337
 20
27.415755
 42
-0.028713
  0
VERTEX
  8
0
 10
82.569144
 20
25.866003
 42
-0.027721
  0
VERTEX
  8
0
 10
82.127018
 20
24.205986
 42
-0.031847
  0
VERTEX
  8
0
 10
81.519645
 20
22.682643
 42
0.021964
  0
VERTEX
  8
0
 10
80.717017
 20
20.779706
 42
0.067443
  0
VERTEX
  8
0
 10
80.411720
 20
19.417905
 42
0.087710
  0
VERTEX
  8
0
 10
80.517607
 20
18.232864
 42
0.056888
  0
VERTEX
  8
0
 10
81.026317
 20
16.950826
 42
-0.098393
  0
VERTEX
  8
0
 10
81.514385
 20
15.346033
 42
-0.196127
  0
VERTEX
  8
0
 10
81.143264
 20
14.094387
 42
-0.160234
  0
VERTEX
  8
0
 10
79.910432
 20
13.291173
 42
-0.062648
  0
VERTEX
  8
0
 10
77.872445
 20
13.015313
 42
0.127372
  0
VERTEX
  8
0
 10
76.351843
 20
12.606258
 42
0.098348
  0
VERTEX
  8
0
 10
75.047502
 20
11.480064
 42
0.096805
  0
VERTEX
  8
0
 10
74.257605
 20
9.923078
 42
0.118752
  0
VERTEX
  8
0
 10
74.192430
 20
8.298039
 42
0.105211
  0
VERTEX
  8
0
 10
74.559237
 20
7.444679
 42
0.147870
  0
VERTEX
  8
0
 10
75.209128
 20
6.938658
 42
0.090479
  0
VERTEX
  8
0
 10
76.288556
 20
6.733870
 42
0.023349
  0
VERTEX
  8
0
 10
78.066723
 20
6.804438
 42
-0.026807
  0
VERTEX
  8
0
 10
79.593133
 20
6.854450
 42
-0.020077
  0
VERTEX
  8
0
 10
81.272521
 20
6.751883
 42
-0.020430
  0
VERTEX
  8
0
 10
82.849968
 20
6.526368
 42
-0.043024
  0
VERTEX
  8
0
 10
84.041717
 20
6.198019
 42
0.056602
  0
VERTEX
  8
0
 10
86.380886
 20
5.621225
 42
0.180828
  0
VERTEX
  8
0
 10
87.920784
 20
5.980346
 42
0.163422
  0
VERTEX
  8
0
 10
88.944023
 20
7.299014
 42
0.044371
  0
VERTEX
  8
0
 10
89.599058
 20
9.894107
 42
-0.024918
  0
VERTEX
  8
0
 10
90.074920
 20
12.144478
 42
-0.155850
  0
VERTEX
  8
0
 10
90.699282
 20
13.124109
 42
-0.141542
  0
VERTEX
  8
0
 10
91.806843
 20
13.609367
 42
-0.019344
  0
VERTEX
  8
0
 10
94.347465
 20
13.846436
 42
0.051212
  0
VERTEX
  8
0
 10
97.904820
 20
14.408455
 42
0.188963
  0
VERTEX
  8
0
 10
99.706292
 20
15.728978
 42
0.179593
  0
VERTEX
  8
0
 10
100.182988
 20
17.972874
 42
0.045613
  0
VERTEX
  8
0
 10
99.293232
 20
21.652812
 42
-0.033669
  0
VERTEX
  8
0
 10
98.279505
 20
25.446961
 42
-0.242016
  0
VERTEX
  8
0
 10
98.788897
 20
27.210907
 42
-0.265708
  0
VERTEX
  8
0
 10
100.465097
 20
27.720887
 42
-0.039157
  0
VERTEX
  8
0
 10
103.980980
 20
26.624287
 42
0.020623
  0
VERTEX
  8
0
 10
106.008725
 20
25.908434
 42
0.048168
  0
VERTEX
  8
0
 10
107.583675
 20
25.586108
 42
0.064903
  0
VERTEX
  8
0
 10
108.866610
 20
25.616924
 42
0.084640
  0
VERTEX
  8
0
 10
109.978550
 20
25.988520
 42
0.090845
  0
VERTEX
  8
0
 10
111.215199
 20
26.973484
 42
0.059603
  0
VERTEX
  8
0
 10
112.243084
 20
28.482571
 42
0.060420
  0
VERTEX
  8
0
 10
112.871373
 20
30.160974
 42
0.104072
  0
VERTEX
  8
0
 10
112.916098
 20
31.646442
 42
-0.057300
  0
VERTEX
  8
0
 10
112.818867
 20
33.192097
 42
-0.152373
  0
VERTEX
  8
0
 10
113.198062
 20
34.217922
 42
-0.162492
  0
VERTEX
  8
0
 10
114.072522
 20
34.806133
 42
-0.067595
  0
VERTEX
  8
0
 10
115.500000
 20
35.000000
 42
0.065085
  0
VERTEX
  8
0
 10
116.601843
 20
35.144036
 42
0.039119
  0
VERTEX
  8
0
 10
117.847857
 20
35.582232
 42
0.038555
  0
VERTEX
  8
0
 10
119.039792
 20
36.223270
 42
0.053774
  0
VERTEX
  8
0
 10
119.982067
 20
36.982067
 42
0.039302
  0
VERTEX
  8
0
 10
120.960840
 20
38.128120
 42
0.106853
  0
VERTEX
  8
0
 10
121.389307
 20
39.099630
 42
0.104841
  0
VERTEX
  8
0
 10
121.382390
 20
40.172686
 42
0.037006
  0
VERTEX
  8
0
 10
120.941253
 20
41.654516
 42
-0.053899
  0
VERTEX
  8
0
 10
120.238218
 20
44.344590
 42
-0.228436
  0
VERTEX
  8
0
 10
120.718576
 20
45.890701
 42
-0.179923
  0
VERTEX
  8
0
 10
122.351067
 20
46.708405
 42
-0.032725
  0
VERTEX
  8
0
 10
125.790867
 20
46.856065
 42
0.035219
  0
VERTEX
  8
0
 10
130.117702
 20
47.063403
 42
0.099882
  0
VERTEX
  8
0
 10
132.974350
 20
48.001811
 42
0.160300
  0
VERTEX
  8
0
 10
134.474231
 20
49.656369
 42
0.142002
  0
VERTEX
  8
0
 10
134.791437
 20
51.967670
 42
-0.105609
  0
VERTEX
  8
0
 10
134.926118
 20
54.046050
 42
-0.139415
  0
VERTEX
  8
0
 10
135.917017
 20
55.654321
 42
-0.119684
  0
VERTEX
  8
0
 10
137.746027
 20
56.661418
 42
-0.066369
  0
VERTEX
  8
0
 10
140.285543
 20
57.000000
 42
-0.081869
  0
VERTEX
  8
0
 10
141.439925
 20
56.809708
 42
-0.108038
  0
VERTEX
  8
0
 10
142.350885
 20
56.261186
 42
-0.083742
  0
VERTEX
  8
0
 10
143.105353
 20
55.261431
 42
-0.033113
  0
VERTEX
  8
0
 10
143.799112
 20
53.679002
 42
-0.030976
  0
VERTEX
  8
0
 10
144.709236
 20
50.573018
 42
-0.076520
  0
VERTEX
  8
0
 10
144.875695
 20
48.211400
 42
-0.089912
  0
VERTEX
  8
0
 10
144.322117
 20
46.144725
 42
-0.055743
  0
VERTEX
  8
0
 10
143.000000
 20
44.000000
 42
0.028684
  0
VERTEX
  8
0
 10
142.249926
 20
42.918646
 42
0.027049
  0
VERTEX
  8
0
 10
141.612376
 20
41.737649
 42
0.028091
  0
VERTEX
  8
0
 10
141.163934
 20
40.630214
 42
0.079024
  0
VERTEX
  8
0
 10
141.022236
 20
39.809017
 42
-0.052849
  0
VERTEX
  8
0
 10
140.939593
 20
39.116347
 42
-0.048145
  0
VERTEX
  8
0
 10
140.712782
 20
38.433213
 42
-0.051291
  0
VERTEX
  8
0
 10
140.384804
 20
37.859420
 42
-0.099188
  0
VERTEX
  8
0
 10
140.000000
 20
37.500000
 42
0.192829
  0
VERTEX
  8
0
 10
139.215330
 20
36.437792
 42
0.093753
  0
VERTEX
  8
0
 10
139.098289
 20
34.726795
 42
0.059115
  0
VERTEX
  8
0
 10
139.671302
 20
32.351893
 42
0.023812
  0
VERTEX
  8
0
 10
140.980395
 20
29.276714
 42
-0.032558
  0
VERTEX
  8
0
 10
141.737782
 20
27.407550
 42
-0.024998
  0
VERTEX
  8
0
 10
142.325314
 20
25.283838
 42
-0.025521
  0
VERTEX
  8
0
 10
142.681287
 20
23.196130
 42
-0.044916
  0
VERTEX
  8
0
 10
142.730395
 20
21.447833
 42
0.027267
  0
VERTEX
  8
0
 10
142.719206
 20
19.887541
 42
0.048120
  0
VERTEX
  8
0
 10
142.903308
 20
18.613562
 42
0.063056
  0
VERTEX
  8
0
 10
143.251658
 20
17.703653
 42
0.186919
  0
VERTEX
  8
0
 10
143.750000
 20
17.275616
 42
0.299139
  0
VERTEX
  8
0
 10
144.314222
 20
17.414440
 42
0.123401
  0
VERTEX
  8
0
 10
144.711144
 20
18.136448
 42
0.051593
  0
VERTEX
  8
0
 10
144.938106
 20
19.598626
 42
0.012725
  0
VERTEX
  8
0
 10
145.000000
 20
22.030166
 42
-0.019415
  0
VERTEX
  8
0
 10
145.141732
 20
25.678886
 42
-0.273843
  0
VERTEX
  8
0
 10
145.864479
 20
26.708083
 42
-0.159500
  0
VERTEX
  8
0
 10
147.378610
 20
26.871715
 42
-0.006149
  0
VERTEX
  8
0
 10
152.952381
 20
25.619577
 42
0.181801
  0
VERTEX
  8
0
 10
155.426603
 20
25.933986
 42
0.214472
  0
VERTEX
  8
0
 10
156.866160
 20
27.780502
 42
0.142933
  0
VERTEX
  8
0
 10
156.732349
 20
30.798769
 42
0.084085
  0
VERTEX
  8
0
 10
155.000000
 20
34.000000
 42
-0.031409
  0
VERTEX
  8
0
 10
154.249911
 20
35.094046
 42
-0.028171
  0
VERTEX
  8
0
 10
153.612376
 20
36.313041
 42
-0.029260
  0
VERTEX
  8
0
 10
153.165997
 20
37.474064
 42
-0.074290
  0
VERTEX
  8
0
 10
153.022236
 20
38.363544
 42
-0.103823
  0
VERTEX
  8
0
 10
153.211193
 20
39.320371
 42
-0.229903
  0
VERTEX
  8
0
 10
153.758131
 20
39.797143
 42
-0.092991
  0
VERTEX
  8
0
 10
154.892416
 20
39.887580
 42
-0.010741
  0
VERTEX
  8
0
 10
157.437074
 20
39.561707
 42
0.015533
  0
VERTEX
  8
0
 10
159.906290
 20
39.269513
 42
0.080783
  0
VERTEX
  8
0
 10
161.269838
 20
39.371274
 42
0.135135
  0
VERTEX
  8
0
 10
162.177783
 20
39.872427
 42
0.076752
  0
VERTEX
  8
0
 10
162.937217
 20
40.882689
 42
0.058937
  0
VERTEX
  8
0
 10
163.346431
 20
41.926395
 42
0.060647
  0
VERTEX
  8
0
 10
163.495618
 20
43.026626
 42
0.055703
  0
VERTEX
  8
0
 10
163.379736
 20
44.209415
 42
0.038611
  0
VERTEX
  8
0
 10
163.000143
 20
45.499625
 42
-0.041402
  0
VERTEX
  8
0
 10
162.223769
 20
48.193825
 42
-0.064657
  0
VERTEX
  8
0
 10
162.058344
 20
50.598927
 42
-0.087022
  0
VERTEX
  8
0
 10
162.489163
 20
52.405774
 42
-0.201856
  0
VERTEX
  8
0
 10
163.475496
 20
53.352223
 42
-0.105401
  0
VERTEX
  8
0
 10
164.268533
 20
53.477261
 42
-0.029939
  0
VERTEX
  8
0
 10
165.515577
 20
53.335106
 42
-0.028734
  0
VERTEX
  8
0
 10
166.939501
 20
53.000480
 42
-0.026885
  0
VERTEX
  8
0
 10
168.348480
 20
52.498863
 42
0.027992
  0
VERTEX
  8
0
 10
170.990121
 20
51.564980
 42
0.226765
  0
VERTEX
  8
0
 10
172.223480
 20
51.766734
 42
0.350799
  0
VERTEX
  8
0
 10
172.504954
 20
52.717278
 42
0.048327
  0
VERTEX
  8
0
 10
171.476410
 20
54.676348
 42
-0.024403
  0
VERTEX
  8
0
 10
169.446695
 20
58.130657
 42
-0.095594
  0
VERTEX
  8
0
 10
168.738345
 20
60.488557
 42
-0.145417
  0
VERTEX
  8
0
 10
169.099721
 20
62.392425
 42
-0.086902
  0
VERTEX
  8
0
 10
170.504805
 20
64.241648
 42
0.053881
  0
VERTEX
  8
0
 10
171.688906
 20
65.604117
 42
0.060842
  0
VERTEX
  8
0
 10
172.498639
 20
67.135908
 42
0.049934
  0
VERTEX
  8
0
 10
173.020110
 20
69.057744
 42
0.022806
  0
VERTEX
  8
0
 10
173.330646
 20
71.642425
 42
-0.024782
  0
VERTEX
  8
0
 10
173.653553
 20
74.243288
 42
-0.047286
  0
VERTEX
  8
0
 10
174.209941
 20
76.272768
 42
-0.053510
  0
VERTEX
  8
0
 10
175.080605
 20
77.991050
 42
-0.042965
  0
VERTEX
  8
0
 10
176.355103
 20
79.627161
 42
0.040836
  0
VERTEX
  8
0
 10
177.414258
 20
80.974971
 42
0.027119
  0
VERTEX
  8
0
 10
178.409190
 20
82.672298
 42
0.027316
  0
VERTEX
  8
0
 10
179.200546
 20
84.437953
 42
0.046940
  0
VERTEX
  8
0
 10
179.634790
 20
85.989336
 42
-0.024797
  0
VERTEX
  8
0
 10
180.008471
 20
87.594709
 42
-0.013338
  0
VERTEX
  8
0
 10
180.618892
 20
89.533932
 42
-0.013253
  0
VERTEX
  8
0
 10
181.348112
 20
91.482272
 42
-0.020242
  0
VERTEX
  8
0
 10
182.092358
 20
93.126178
 42
0.023448
  0
VERTEX
  8
0
 10
182.738435
 20
94.577940
 42
0.032118
  0
VERTEX
  8
0
 10
183.171385
 20
95.940722
 42
0.033380
  0
VERTEX
  8
0
 10
183.371448
 20
97.061372
 42
0.201748
  0
VERTEX
  8
0
 10
183.207155
 20
97.615522
 42
-0.614175
  0
VERTEX
  8
0
 10
183.238204
 20
97.685959
 42
-0.164761
  0
VERTEX
  8
0
 10
183.399922
 20
97.640762
 42
-0.019555
  0
VERTEX
  8
0
 10
183.993050
 20
97.200789
 42
-0.005951
  0
VERTEX
  8
0
 10
184.856410
 20
96.489343
 42
-0.061833
  0
VERTEX
  8
0
 10
186.807376
 20
94.378914
 42
-0.026637
  0
VERTEX
  8
0
 10
188.876839
 20
91.145900
 42
-0.025077
  0
VERTEX
  8
0
 10
190.541382
 20
87.836157
 42
-0.104336
  0
VERTEX
  8
0
 10
191.000000
 20
85.662283
 42
-0.084730
  0
VERTEX
  8
0
 10
190.891943
 20
85.029206
 42
-0.043773
  0
VERTEX
  8
0
 10
190.559375
 20
84.295562
 42
-0.041856
  0
VERTEX
  8
0
 10
190.073949
 20
83.581055
 42
-0.049453
  0
VERTEX
  8
0
 10
189.500000
 20
83.000000
 42
0.128094
  0
VERTEX
  8
0
 10
188.310056
 20
81.344681
 42
0.164624
  0
VERTEX
  8
0
 10
188.231552
 20
79.483399
 42
0.104080
  0
VERTEX
  8
0
 10
189.396383
 20
77.307862
 42
0.034285
  0
VERTEX
  8
0
 10
191.929183
 20
74.682944
 42
-0.014165
  0
VERTEX
  8
0
 10
193.520341
 20
73.161391
 42
-0.013426
  0
VERTEX
  8
0
 10
195.052302
 20
71.525418
 42
-0.013510
  0
VERTEX
  8
0
 10
196.328775
 20
70.005957
 42
-0.045104
  0
VERTEX
  8
0
 10
197.043501
 20
68.918718
 42
-0.017720
  0
VERTEX
  8
0
 10
197.716481
 20
67.546487
 42
-0.337371
  0
VERTEX
  8
0
 10
197.614126
 20
67.109802
 42
-0.216269
  0
VERTEX
  8
0
 10
197.089687
 20
66.968140
 42
-0.008811
  0
VERTEX
  8
0
 10
195.114318
 20
67.327136
 42
0.035398
  0
VERTEX
  8
0
 10
193.021296
 20
67.593601
 42
0.259138
  0
VERTEX
  8
0
 10
192.144770
 20
67.168831
 42
0.337273
  0
VERTEX
  8
0
 10
192.176950
 20
66.326060
 42
0.047366
  0
VERTEX
  8
0
 10
193.487014
 20
65.010777
 42
0.134156
  0
VERTEX
  8
0
 10
194.879481
 20
64.378885
 42
0.071529
  0
VERTEX
  8
0
 10
196.784473
 20
64.347507
 42
0.061717
  0
VERTEX
  8
0
 10
198.921377
 20
64.892287
 42
0.051822
  0
VERTEX
  8
0
 10
201.000000
 20
65.965082
 42
0.141212
  0
VERTEX
  8
0
 10
201.642550
 20
66.712306
 42
0.160922
  0
VERTEX
  8
0
 10
201.746268
 20
67.646721
 42
0.065911
  0
VERTEX
  8
0
 10
201.234892
 20
69.091465
 42
0.009390
  0
VERTEX
  8
0
 10
199.750000
 20
71.871301
 42
-0.027527
  0
VERTEX
  8
0
 10
197.313246
 20
76.860303
 42
-0.190228
  0
VERTEX
  8
0
 10
197.250879
 20
79.531796
 42
-0.272539
  0
VERTEX
  8
0
 10
198.979125
 20
80.946652
 42
-0.053251
  0
VERTEX
  8
0
 10
203.162906
 20
81.145386
 42
0.000000
  0
VERTEX
  8
0
 10
206.922613
 20
80.923547
 42
0.000000
  0
VERTEX
  8
0
 10
205.862840
 20
83.963612
 42
0.018959
  0
VERTEX
  8
0
 10
205.390945
 20
85.168312
 42
0.021983
  0
VERTEX
  8
0
 10
204.849551
 20
86.274329
 42
0.021680
  0
VERTEX
  8
0
 10
204.315697
 20
87.159858
 42
0.108257
  0
VERTEX
  8
0
 10
203.901534
 20
87.560855
 42
-0.202854
  0
VERTEX
  8
0
 10
203.282199
 20
88.434010
 42
-0.042472
  0
VERTEX
  8
0
 10
203.030438
 20
90.333457
 42
-0.043018
  0
VERTEX
  8
0
 10
203.114765
 20
92.489167
 42
-0.060405
  0
VERTEX
  8
0
 10
203.582759
 20
94.355070
 42
-0.203580
  0
VERTEX
  8
0
 10
204.514423
 20
95.319579
 42
-0.272366
  0
VERTEX
  8
0
 10
205.694989
 20
95.164294
 42
-0.125291
  0
VERTEX
  8
0
 10
206.873957
 20
93.641755
 42
-0.056102
  0
VERTEX
  8
0
 10
207.621591
 20
91.203559
 42
0.039145
  0
VERTEX
  8
0
 10
208.080061
 20
89.505416
 42
0.017197
  0
VERTEX
  8
0
 10
208.936552
 20
87.338033
 42
0.016897
  0
VERTEX
  8
0
 10
210.007538
 20
85.089542
 42
0.021720
  0
VERTEX
  8
0
 10
211.148790
 20
83.104330
 42
-0.026129
  0
VERTEX
  8
0
 10
212.240124
 20
81.166621
 42
-0.023726
  0
VERTEX
  8
0
 10
213.162457
 20
79.063173
 42
-0.024453
  0
VERTEX
  8
0
 10
213.805721
 20
77.101718
 42
-0.067101
  0
VERTEX
  8
0
 10
214.000000
 20
75.660580
 42
0.128475
  0
VERTEX
  8
0
 10
214.673603
 20
73.082321
 42
0.039711
  0
VERTEX
  8
0
 10
216.926055
 20
69.721717
 42
0.038135
  0
VERTEX
  8
0
 10
219.607071
 20
66.821214
 42
0.186921
  0
VERTEX
  8
0
 10
221.643011
 20
66.010648
 42
-0.190443
  0
VERTEX
  8
0
 10
222.404845
 20
65.701321
 42
-0.060733
  0
VERTEX
  8
0
 10
223.195711
 20
64.738009
 42
-0.057543
  0
VERTEX
  8
0
 10
223.797277
 20
63.496264
 42
-0.084242
  0
VERTEX
  8
0
 10
224.000000
 20
62.301581
 42
-0.345254
  0
VERTEX
  8
0
 10
223.866063
 20
62.130734
 42
-0.057591
  0
VERTEX
  8
0
 10
223.423300
 20
62.074658
 42
-0.042530
  0
VERTEX
  8
0
 10
222.789583
 20
62.121693
 42
-0.024175
  0
VERTEX
  8
0
 10
222.036768
 20
62.280134
 42
0.114700
  0
VERTEX
  8
0
 10
220.149564
 20
62.331810
 42
0.232289
  0
VERTEX
  8
0
 10
219.001719
 20
61.445532
 42
0.172716
  0
VERTEX
  8
0
 10
218.803884
 20
59.728965
 42
0.066222
  0
VERTEX
  8
0
 10
219.661570
 20
57.447316
 42
-0.033269
  0
VERTEX
  8
0
 10
220.302609
 20
56.032056
 42
-0.017219
  0
VERTEX
  8
0
 10
220.921703
 20
54.190774
 42
-0.017041
  0
VERTEX
  8
0
 10
221.430213
 20
52.246739
 42
-0.024749
  0
VERTEX
  8
0
 10
221.734144
 20
50.500000
 42
0.041985
  0
VERTEX
  8
0
 10
222.556570
 20
46.578144
 42
0.064493
  0
VERTEX
  8
0
 10
223.967671
 20
43.413507
 42
0.056551
  0
VERTEX
  8
0
 10
226.285635
 20
40.434379
 42
0.024892
  0
VERTEX
  8
0
 10
229.955940
 20
37.036889
 42
-0.021407
  0
VERTEX
  8
0
 10
234.298260
 20
33.073143
 42
-0.049050
  0
VERTEX
  8
0
 10
237.115565
 20
29.660417
 42
-0.063358
  0
VERTEX
  8
0
 10
238.765090
 20
26.376959
 42
-0.067918
  0
VERTEX
  8
0
 10
239.489993
 20
22.861777
 42
0.039235
  0
VERTEX
  8
0
 10
239.888429
 20
20.155432
 42
0.073428
  0
VERTEX
  8
0
 10
240.689531
 20
18.097313
 42
0.147408
  0
VERTEX
  8
0
 10
241.675374
 20
17.159758
 42
0.323911
  0
VERTEX
  8
0
 10
242.649144
 20
17.315811
 42
0.152395
  0
VERTEX
  8
0
 10
242.921499
 20
17.835226
 42
0.012994
  0
VERTEX
  8
0
 10
243.155874
 20
19.340249
 42
0.016253
  0
VERTEX
  8
0
 10
243.333816
 20
21.188147
 42
0.011866
  0
VERTEX
  8
0
 10
243.415811
 20
23.249144
 42
-0.015525
  0
VERTEX
  8
0
 10
243.581328
 20
26.762261
 42
-0.187402
  0
VERTEX
  8
0
 10
244.157494
 20
27.959186
 42
-0.219268
  0
VERTEX
  8
0
 10
245.342294
 20
28.351751
 42
-0.021909
  0
VERTEX
  8
0
 10
248.367359
 20
27.877321
 42
0.088777
  0
VERTEX
  8
0
 10
249.162842
 20
27.859589
 42
0.066051
  0
VERTEX
  8
0
 10
250.007040
 20
28.108489
 42
0.065063
  0
VERTEX
  8
0
 10
250.769877
 20
28.574684
 42
0.080074
  0
VERTEX
  8
0
 10
251.327002
 20
29.194130
 42
0.120665
  0
VERTEX
  8
0
 10
251.697457
 20
30.266903
 42
0.106206
  0
VERTEX
  8
0
 10
251.556258
 20
31.445008
 42
0.059066
  0
VERTEX
  8
0
 10
250.813227
 20
32.987538
 42
0.013978
  0
VERTEX
  8
0
 10
249.209643
 20
35.357607
 42
-0.022806
  0
VERTEX
  8
0
 10
247.019342
 20
38.721247
 42
-0.092441
  0
VERTEX
  8
0
 10
246.190798
 20
41.010683
 42
-0.126297
  0
VERTEX
  8
0
 10
246.372065
 20
43.056176
 42
-0.060170
  0
VERTEX
  8
0
 10
247.552746
 20
45.440157
 42
0.052740
  0
VERTEX
  8
0
 10
248.125574
 20
46.554956
 42
0.033516
  0
VERTEX
  8
0
 10
248.560441
 20
47.949547
 42
0.033481
  0
VERTEX
  8
0
 10
248.805665
 20
49.392597
 42
0.051897
  0
VERTEX
  8
0
 10
248.802746
 20
50.654973
 42
-0.156120
  0
VERTEX
  8
0
 10
249.267172
 20
52.903001
 42
-0.293852
  0
VERTEX
  8
0
 10
250.842791
 20
53.734766
 42
-0.112631
  0
VERTEX
  8
0
 10
253.790293
 20
52.789899
 42
-0.024818
  0
VERTEX
  8
0
 10
258.250000
 20
49.841460
 42
-0.015698
  0
VERTEX
  8
0
 10
260.778635
 20
47.857904
 42
-0.034041
  0
VERTEX
  8
0
 10
262.559796
 20
46.149234
 42
-0.044938
  0
VERTEX
  8
0
 10
263.664221
 20
44.691280
 42
-0.140534
  0
VERTEX
  8
0
 10
264.000000
 20
43.520220
 42
0.174576
  0
VERTEX
  8
0
 10
265.008107
 20
40.720909
 42
0.031030
  0
VERTEX
  8
0
 10
268.878636
 20
36.594200
 42
0.031613
  0
VERTEX
  8
0
 10
273.249743
 20
32.970546
 42
0.158552
  0
VERTEX
  8
0
 10
276.233458
 20
32.000000
 42
-0.152592
  0
VERTEX
  8
0
 10
278.538468
 20
31.279776
 42
-0.053677
  0
VERTEX
  8
0
 10
281.189896
 20
28.987171
 42
-0.053610
  0
VERTEX
  8
0
 10
283.320333
 20
26.146467
 42
-0.134900
  0
VERTEX
  8
0
 10
284.000000
 20
23.673168
 42
0.173039
  0
VERTEX
  8
0
 10
284.681593
 20
21.762658
 42
0.013807
  0
VERTEX
  8
0
 10
288.244231
 20
17.642685
 42
0.013017
  0
VERTEX
  8
0
 10
292.036306
 20
13.705491
 42
0.197026
  0
VERTEX
  8
0
 10
293.757154
 20
13.000000
 42
0.099078
  0
VERTEX
  8
0
 10
294.286593
 20
13.105951
 42
0.033776
  0
VERTEX
  8
0
 10
294.991414
 20
13.457392
 42
0.032024
  0
VERTEX
  8
0
 10
295.737232
 20
13.961200
 42
0.031829
  0
VERTEX
  8
0
 10
296.414224
 20
14.557081
 42
0.041514
  0
VERTEX
  8
0
 10
297.230802
 20
15.521814
 42
0.160179
  0
VERTEX
  8
0
 10
297.461024
 20
16.261400
 42
0.121862
  0
VERTEX
  8
0
 10
297.236264
 20
17.111736
 42
0.019778
  0
VERTEX
  8
0
 10
296.350194
 20
18.588289
 42
-0.030111
  0
VERTEX
  8
0
 10
295.779321
 20
19.585718
 42
-0.042766
  0
VERTEX
  8
0
 10
295.406040
 20
20.536397
 42
-0.050078
  0
VERTEX
  8
0
 10
295.256937
 20
21.317577
 42
-0.222026
  0
VERTEX
  8
0
 10
295.412505
 20
21.745839
 42
-0.285967
  0
VERTEX
  8
0
 10
296.583713
 20
22.018010
 42
-0.120180
  0
VERTEX
  8
0
 10
298.004814
 20
21.111240
 42
-0.084443
  0
VERTEX
  8
0
 10
299.236668
 20
19.291771
 42
-0.082055
  0
VERTEX
  8
0
 10
299.813358
 20
17.149151
 42
0.024296
  0
VERTEX
  8
0
 10
299.992956
 20
15.942553
 42
0.037297
  0
VERTEX
  8
0
 10
300.275546
 20
14.925063
 42
0.042297
  0
VERTEX
  8
0
 10
300.609606
 20
14.196676
 42
0.270375
  0
VERTEX
  8
0
 10
300.946727
 20
14.000000
 42
-0.167910
  0
VERTEX
  8
0
 10
301.303123
 20
13.876843
 42
-0.056910
  0
VERTEX
  8
0
 10
301.698959
 20
13.485938
 42
-0.048951
  0
VERTEX
  8
0
 10
302.070044
 20
12.919719
 42
-0.039400
  0
VERTEX
  8
0
 10
302.356012
 20
12.250000
 42
0.037673
  0
VERTEX
  8
0
 10
303.135890
 20
10.405997
 42
0.008155
  0
VERTEX
  8
0
 10
304.770758
 20
7.353680
 42
0.009018
  0
VERTEX
  8
0
 10
306.598068
 20
4.206716
 42
0.017557
  0
VERTEX
  8
0
 10
308.187455
 20
1.776672
 42
0.039803
  0
VERTEX
  8
0
 10
308.923425
 20
0.891998
 42
0.328639
  0
VERTEX
  8
0
 10
309.409598
 20
0.812395
 42
0.165020
  0
VERTEX
  8
0
 10
309.876851
 20
1.293341
 42
0.011461
  0
VERTEX
  8
0
 10
310.659196
 20
3.040785
 42
-0.037674
  0
VERTEX
  8
0
 10
311.234980
 20
4.164985
 42
-0.050942
  0
VERTEX
  8
0
 10
311.925959
 20
5.073082
 42
-0.061673
  0
VERTEX
  8
0
 10
312.622740
 20
5.654475
 42
-0.195892
  0
VERTEX
  8
0
 10
313.207660
 20
5.764113
 42
0.171501
  0
VERTEX
  8
0
 10
313.942868
 20
5.866299
 42
0.296338
  0
VERTEX
  8
0
 10
314.236571
 20
6.383078
 42
0.062593
  0
VERTEX
  8
0
 10
313.995571
 20
7.675169
 42
0.004930
  0
VERTEX
  8
0
 10
312.896400
 20
11.000000
 42
0.010261
  0
VERTEX
  8
0
 10
311.465991
 20
14.922701
 42
0.037785
  0
VERTEX
  8
0
 10
310.328705
 20
17.303021
 42
0.063350
  0
VERTEX
  8
0
 10
309.239454
 20
18.742473
 42
0.122901
  0
VERTEX
  8
0
 10
308.018920
 20
19.493995
 42
-0.098006
  0
VERTEX
  8
0
 10
305.742898
 20
20.745443
 42
-0.032485
  0
VERTEX
  8
0
 10
302.976241
 20
23.391157
 42
-0.030277
  0
VERTEX
  8
0
 10
300.623063
 20
26.287729
 42
-0.156694
  0
VERTEX
  8
0
 10
300.000000
 20
28.227065
 42
-0.057712
  0
VERTEX
  8
0
 10
300.118045
 20
29.246368
 42
-0.231384
  0
VERTEX
  8
0
 10
300.504266
 20
29.718776
 42
-0.151128
  0
VERTEX
  8
0
 10
301.248085
 20
29.816543
 42
-0.022232
  0
VERTEX
  8
0
 10
302.750000
 20
29.490522
 42
0.015285
  0
VERTEX
  8
0
 10
305.842515
 20
28.774113
 42
0.098139
  0
VERTEX
  8
0
 10
307.440676
 20
28.771836
 42
0.206373
  0
VERTEX
  8
0
 10
308.333197
 20
29.384092
 42
0.105609
  0
VERTEX
  8
0
 10
308.810235
 20
30.682603
 42
0.122216
  0
VERTEX
  8
0
 10
308.683025
 20
31.930395
 42
0.052767
  0
VERTEX
  8
0
 10
307.950855
 20
33.445104
 42
0.038558
  0
VERTEX
  8
0
 10
306.624380
 20
35.253847
 42
0.017107
  0
VERTEX
  8
0
 10
304.618702
 20
37.432603
 42
0.008468
  0
VERTEX
  8
0
 10
302.834054
 20
39.182590
 42
0.012339
  0
VERTEX
  8
0
 10
301.198188
 20
40.658327
 42
0.007887
  0
VERTEX
  8
0
 10
299.795379
 20
41.824469
 42
0.171080
  0
VERTEX
  8
0
 10
299.297387
 20
42.000000
 42
-0.279204
  0
VERTEX
  8
0
 10
298.972832
 20
42.196557
 42
-0.046010
  0
VERTEX
  8
0
 10
298.682331
 20
42.903762
 42
-0.039193
  0
VERTEX
  8
0
 10
298.460626
 20
43.897734
 42
-0.025072
  0
VERTEX
  8
0
 10
298.353074
 20
45.076635
 42
0.059554
  0
VERTEX
  8
0
 10
298.126769
 20
46.480631
 42
0.037639
  0
VERTEX
  8
0
 10
297.550927
 20
48.038681
 42
0.036616
  0
VERTEX
  8
0
 10
296.719253
 20
49.552184
 42
0.044398
  0
VERTEX
  8
0
 10
295.721133
 20
50.826635
 42
-0.062091
  0
VERTEX
  8
0
 10
292.581224
 20
55.141130
 42
-0.018304
  0
VERTEX
  8
0
 10
288.880749
 20
62.453398
 42
-0.018935
  0
VERTEX
  8
0
 10
285.517562
 20
70.542649
 42
-0.029609
  0
VERTEX
  8
0
 10
283.312103
 20
77.750000
 42
-0.054679
  0
VERTEX
  8
0
 10
283.098794
 20
79.400789
 42
-0.451934
  0
VERTEX
  8
0
 10
283.591844
 20
79.852010
 42
-0.132528
  0
VERTEX
  8
0
 10
284.750859
 20
79.400719
 42
-0.009659
  0
VERTEX
  8
0
 10
287.493804
 20
77.297492
 42
0.036259
  0
VERTEX
  8
0
 10
289.164815
 20
76.151875
 42
0.035668
  0
VERTEX
  8
0
 10
290.992768
 20
75.252603
 42
0.036748
  0
VERTEX
  8
0
 10
292.870698
 20
74.646031
 42
0.045276
  0
VERTEX
  8
0
 10
294.690375
 20
74.373865
 42
-0.010645
  0
VERTEX
  8
0
 10
297.822323
 20
74.125086
 42
-0.026896
  0
VERTEX
  8
0
 10
300.080065
 20
73.773845
 42
-0.036844
  0
VERTEX
  8
0
 10
301.678080
 20
73.311268
 42
-0.107910
  0
VERTEX
  8
0
 10
302.637722
 20
72.695611
 42
0.110235
  0
VERTEX
  8
0
 10
303.583925
 20
72.094698
 42
0.381222
  0
VERTEX
  8
0
 10
304.202497
 20
72.343341
 42
0.124904
  0
VERTEX
  8
0
 10
304.461924
 20
73.550724
 42
0.019535
  0
VERTEX
  8
0
 10
304.275578
 20
76.000000
 42
-0.013138
  0
VERTEX
  8
0
 10
304.139134
 20
77.533759
 42
-0.022143
  0
VERTEX
  8
0
 10
304.115663
 20
78.825000
 42
-0.018300
  0
VERTEX
  8
0
 10
304.177946
 20
79.817061
 42
-0.385421
  0
VERTEX
  8
0
 10
304.380015
 20
80.000000
 42
-0.098497
  0
VERTEX
  8
0
 10
304.762293
 20
79.923956
 42
-0.003725
  0
VERTEX
  8
0
 10
306.109972
 20
79.353895
 42
-0.006584
  0
VERTEX
  8
0
 10
307.698050
 20
78.643200
 42
-0.004575
  0
VERTEX
  8
0
 10
309.473743
 20
77.800494
 42
0.015253
  0
VERTEX
  8
0
 10
311.704814
 20
76.799470
 42
0.050761
  0
VERTEX
  8
0
 10
313.242662
 20
76.340871
 42
0.086349
  0
VERTEX
  8
0
 10
314.337107
 20
76.323243
 42
0.158619
  0
VERTEX
  8
0
 10
315.123453
 20
76.723453
 42
0.207358
  0
VERTEX
  8
0
 10
315.420688
 20
77.475311
 42
0.114137
  0
VERTEX
  8
0
 10
315.162133
 20
78.448292
 42
0.057062
  0
VERTEX
  8
0
 10
314.254567
 20
79.771967
 42
0.014839
  0
VERTEX
  8
0
 10
312.502339
 20
81.672959
 42
-0.031234
  0
VERTEX
  8
0
 10
310.892721
 20
83.538356
 42
-0.016993
  0
VERTEX
  8
0
 10
309.144800
 20
86.010214
 42
-0.016873
  0
VERTEX
  8
0
 10
307.531743
 20
88.654398
 42
-0.025592
  0
VERTEX
  8
0
 10
306.329359
 20
91.063941
 42
0.045333
  0
VERTEX
  8
0
 10
304.401708
 20
94.573388
 42
0.050692
  0
VERTEX
  8
0
 10
301.934512
 20
97.537337
 42
0.057715
  0
VERTEX
  8
0
 10
299.398269
 20
99.505757
 42
0.180469
  0
VERTEX
  8
0
 10
297.311183
 20
99.901973
 42
-0.057114
  0
VERTEX
  8
0
 10
295.605879
 20
99.807434
 42
-0.044648
  0
VERTEX
  8
0
 10
293.770472
 20
100.080997
 42
-0.044723
  0
VERTEX
  8
0
 10
292.016443
 20
100.675103
 42
-0.057952
  0
VERTEX
  8
0
 10
290.553747
 20
101.535550
 42
-0.031514
  0
VERTEX
  8
0
 10
289.633920
 20
102.327007
 42
-0.131563
  0
VERTEX
  8
0
 10
289.264233
 20
102.949878
 42
-0.188654
  0
VERTEX
  8
0
 10
289.323042
 20
103.542527
 42
-0.078552
  0
VERTEX
  8
0
 10
289.803747
 20
104.203747
 42
0.137717
  0
VERTEX
  8
0
 10
290.919385
 20
106.190374
 42
0.149785
  0
VERTEX
  8
0
 10
290.788162
 20
108.397478
 42
0.100438
  0
VERTEX
  8
0
 10
289.275772
 20
110.826218
 42
0.040403
  0
VERTEX
  8
0
 10
286.356198
 20
113.454193
 42
0.013178
  0
VERTEX
  8
0
 10
284.477292
 20
114.811988
 42
0.016779
  0
VERTEX
  8
0
 10
282.672292
 20
115.958419
 42
0.014817
  0
VERTEX
  8
0
 10
281.122359
 20
116.810540
 42
0.118815
  0
VERTEX
  8
0
 10
280.336326
 20
117.000000
 42
-0.130935
  0
VERTEX
  8
0
 10
278.072931
 20
117.603052
 42
-0.025704
  0
VERTEX
  8
0
 10
274.502118
 20
119.902794
 42
-0.027340
  0
VERTEX
  8
0
 10
270.756063
 20
122.921184
 42
-0.032546
  0
VERTEX
  8
0
 10
267.587678
 20
126.170274
 42
0.017942
  0
VERTEX
  8
0
 10
265.889694
 20
128.016356
 42
0.012406
  0
VERTEX
  8
0
 10
263.844984
 20
129.985088
 42
0.012527
  0
VERTEX
  8
0
 10
261.782810
 20
131.781404
 42
0.024959
  0
VERTEX
  8
0
 10
260.048871
 20
133.076833
 42
0.000000
  0
VERTEX
  8
0
 10
256.214716
 20
135.653667
 42
0.000000
  0
VERTEX
  8
0
 10
264.052797
 20
135.410760
 42
-0.019418
  0
VERTEX
  8
0
 10
270.273248
 20
134.975792
 42
-0.018117
  0
VERTEX
  8
0
 10
276.588097
 20
134.054490
 42
-0.012057
  0
VERTEX
  8
0
 10
282.109950
 20
132.905148
 42
-0.199561
  0
VERTEX
  8
0
 10
283.604661
 20
131.830656
 42
0.229320
  0
VERTEX
  8
0
 10
284.796760
 20
131.072638
 42
0.053502
  0
VERTEX
  8
0
 10
287.234113
 20
131.051608
 42
0.053212
  0
VERTEX
  8
0
 10
289.784494
 20
131.580814
 42
0.119179
  0
VERTEX
  8
0
 10
291.462515
 20
132.605372
 42
0.133915
  0
VERTEX
  8
0
 10
292.360025
 20
134.175994
 42
0.110551
  0
VERTEX
  8
0
 10
292.423281
 20
136.109872
 42
0.097400
  0
VERTEX
  8
0
 10
291.629504
 20
138.087483
 42
0.081474
  0
VERTEX
  8
0
 10
290.104484
 20
139.762781
 42
0.047557
  0
VERTEX
  8
0
 10
287.837288
 20
141.231025
 42
0.024975
  0
VERTEX
  8
0
 10
284.781225
 20
142.631510
 42
0.024551
  0
VERTEX
  8
0
 10
281.713088
 20
143.684735
 42
0.070512
  0
VERTEX
  8
0
 10
279.488660
 20
144.000000
 42
-0.065386
  0
VERTEX
  8
0
 10
278.450539
 20
144.136340
 42
-0.032704
  0
VERTEX
  8
0
 10
277.194046
 20
144.561891
 42
-0.031794
  0
VERTEX
  8
0
 10
275.931047
 20
145.180590
 42
-0.040494
  0
VERTEX
  8
0
 10
274.860784
 20
145.912820
 42
-0.032250
  0
VERTEX
  8
0
 10
273.602196
 20
147.074631
 42
-0.125873
  0
VERTEX
  8
0
 10
273.088993
 20
147.991138
 42
-0.124485
  0
VERTEX
  8
0
 10
273.075972
 20
149.047242
 42
-0.031237
  0
VERTEX
  8
0
 10
273.585363
 20
150.706775
 42
0.038488
  0
VERTEX
  8
0
 10
273.948370
 20
151.953502
 42
0.032341
  0
VERTEX
  8
0
 10
274.142815
 20
153.316165
 42
0.033568
  0
VERTEX
  8
0
 10
274.155507
 20
154.589341
 42
0.073092
  0
VERTEX
  8
0
 10
273.958947
 20
155.543955
 42
-0.094926
  0
VERTEX
  8
0
 10
273.642867
 20
157.506219
 42
-0.222839
  0
VERTEX
  8
0
 10
274.296969
 20
158.800018
 42
-0.185186
  0
VERTEX
  8
0
 10
275.840187
 20
159.273958
 42
-0.066893
  0
VERTEX
  8
0
 10
278.126112
 20
158.806192
 42
0.041636
  0
VERTEX
  8
0
 10
279.527012
 20
158.445192
 42
0.023611
  0
VERTEX
  8
0
 10
281.266780
 20
158.232292
 42
0.023439
  0
VERTEX
  8
0
 10
283.052413
 20
158.182847
 42
0.035437
  0
VERTEX
  8
0
 10
284.600566
 20
158.322607
 42
-0.044557
  0
VERTEX
  8
0
 10
286.242720
 20
158.440749
 42
-0.024650
  0
VERTEX
  8
0
 10
288.250345
 20
158.306991
 42
-0.024154
  0
VERTEX
  8
0
 10
290.319432
 20
157.964337
 42
-0.031703
  0
VERTEX
  8
0
 10
292.161665
 20
157.442961
 42
0.048851
  0
VERTEX
  8
0
 10
296.445997
 20
156.387423
 42
0.037907
  0
VERTEX
  8
0
 10
301.240051
 20
156.060164
 42
0.039087
  0
VERTEX
  8
0
 10
305.754190
 20
156.448223
 42
0.078501
  0
VERTEX
  8
0
 10
309.139917
 20
157.572354
 42
-0.033293
  0
VERTEX
  8
0
 10
310.419495
 20
158.129545
 42
-0.034290
  0
VERTEX
  8
0
 10
311.749280
 20
158.505565
 42
-0.036472
  0
VERTEX
  8
0
 10
312.940320
 20
158.666260
 42
-0.107311
  0
VERTEX
  8
0
 10
313.753081
 20
158.541257
 42
0.138554
  0
VERTEX
  8
0
 10
314.569179
 20
158.466743
 42
0.060674
  0
VERTEX
  8
0
 10
315.614240
 20
158.796327
 42
0.050000
  0
VERTEX
  8
0
 10
316.774841
 20
159.471078
 42
0.034376
  0
VERTEX
  8
0
 10
317.944465
 20
160.446794
 42
0.000000
  0
VERTEX
  8
0
 10
320.563283
 20
162.955781
 42
0.000000
  0
VERTEX
  8
0
 10
325.742490
 20
161.299537
 42
0.015165
  0
VERTEX
  8
0
 10
328.458986
 20
160.520803
 42
0.045158
  0
VERTEX
  8
0
 10
330.368617
 20
160.215375
 42
0.063052
  0
VERTEX
  8
0
 10
331.913651
 20
160.304459
 42
0.061074
  0
VERTEX
  8
0
 10
333.405546
 20
160.775010
 42
0.046621
  0
VERTEX
  8
0
 10
334.723237
 20
161.530695
 42
0.143376
  0
VERTEX
  8
0
 10
335.356896
 20
162.327054
 42
0.113565
  0
VERTEX
  8
0
 10
335.540413
 20
163.456057
 42
0.023968
  0
VERTEX
  8
0
 10
335.313855
 20
165.453364
 42
-0.017691
  0
VERTEX
  8
0
 10
334.991154
 20
168.011252
 42
-0.276652
  0
VERTEX
  8
0
 10
335.359077
 20
168.773521
 42
-0.279332
  0
VERTEX
  8
0
 10
336.201204
 20
168.804296
 42
-0.017949
  0
VERTEX
  8
0
 10
338.394278
 20
167.477315
 42
0.048323
  0
VERTEX
  8
0
 10
339.410729
 20
166.943650
 42
0.044238
  0
VERTEX
  8
0
 10
340.541028
 20
166.595891
 42
0.047082
  0
VERTEX
  8
0
 10
341.612218
 20
166.471111
 42
0.097376
  0
VERTEX
  8
0
 10
342.438995
 20
166.614964
 42
0.251340
  0
VERTEX
  8
0
 10
342.982887
 20
167.245303
 42
0.191054
  0
VERTEX
  8
0
 10
342.836723
 20
168.161936
 42
0.053800
  0
VERTEX
  8
0
 10
341.684635
 20
169.699079
 42
0.007118
  0
VERTEX
  8
0
 10
338.864060
 20
172.637649
 42
0.020176
  0
VERTEX
  8
0
 10
335.231915
 20
176.030185
 42
0.085933
  0
VERTEX
  8
0
 10
332.693547
 20
177.550073
 42
0.134193
  0
VERTEX
  8
0
 10
330.403814
 20
177.782762
 42
0.081651
  0
VERTEX
  8
0
 10
327.812424
 20
176.899612
 42
-0.180144
  0
VERTEX
  8
0
 10
325.722543
 20
176.615897
 42
-0.155931
  0
VERTEX
  8
0
 10
323.804715
 20
177.741917
 42
-0.100948
  0
VERTEX
  8
0
 10
322.302877
 20
180.309229
 42
-0.049482
  0
VERTEX
  8
0
 10
321.438377
 20
184.014650
 42
-0.016530
  0
VERTEX
  8
0
 10
321.173013
 20
186.734285
 42
-0.109125
  0
VERTEX
  8
0
 10
321.380251
 20
188.076581
 42
-0.140698
  0
VERTEX
  8
0
 10
322.114466
 20
189.042127
 42
-0.033942
  0
VERTEX
  8
0
 10
323.819228
 20
190.142642
 42
0.044700
  0
VERTEX
  8
0
 10
325.057035
 20
190.979920
 42
0.029572
  0
VERTEX
  8
0
 10
326.321712
 20
192.142106
 42
0.029754
  0
VERTEX
  8
0
 10
327.425340
 20
193.428734
 42
0.049826
  0
VERTEX
  8
0
 10
328.169468
 20
194.642642
 42
-0.069082
  0
VERTEX
  8
0
 10
329.336386
 20
196.391897
 42
-0.169105
  0
VERTEX
  8
0
 10
330.669040
 20
197.136477
 42
-0.076841
  0
VERTEX
  8
0
 10
332.847283
 20
197.182427
 42
-0.007286
  0
VERTEX
  8
0
 10
338.138139
 20
196.399772
 42
0.081933
  0
VERTEX
  8
0
 10
341.524937
 20
196.406780
 42
0.106651
  0
VERTEX
  8
0
 10
344.399463
 20
197.548467
 42
0.104302
  0
VERTEX
  8
0
 10
346.592018
 20
199.798874
 42
0.075516
  0
VERTEX
  8
0
 10
348.003590
 20
203.013332
 42
-0.027994
  0
VERTEX
  8
0
 10
348.752798
 20
205.281681
 42
-0.140305
  0
VERTEX
  8
0
 10
349.558228
 20
206.332919
 42
-0.117815
  0
VERTEX
  8
0
 10
350.870615
 20
206.893497
 42
-0.017206
  0
VERTEX
  8
0
 10
353.762788
 20
207.285525
 42
0.019938
  0
VERTEX
  8
0
 10
355.902581
 20
207.587481
 42
0.011769
  0
VERTEX
  8
0
 10
358.430319
 20
208.109352
 42
0.011765
  0
VERTEX
  8
0
 10
360.933931
 20
208.750400
 42
0.019712
  0
VERTEX
  8
0
 10
363.000000
 20
209.420457
 42
0.044434
  0
VERTEX
  8
0
 10
366.529528
 20
211.090033
 42
0.028858
  0
VERTEX
  8
0
 10
370.286123
 20
213.596317
 42
0.022179
  0
VERTEX
  8
0
 10
373.374394
 20
216.147261
 42
0.429127
  0
VERTEX
  8
0
 10
373.402679
 20
217.263988
 42
-0.449093
  0
VERTEX
  8
0
 10
373.417923
 20
217.522934
 42
-0.056971
  0
VERTEX
  8
0
 10
373.955435
 20
217.855435
 42
-0.037218
  0
VERTEX
  8
0
 10
374.863478
 20
218.203205
 42
-0.018790
  0
VERTEX
  8
0
 10
376.050693
 20
218.511134
 42
0.050732
  0
VERTEX
  8
0
 10
377.702596
 20
219.054125
 42
0.087643
  0
VERTEX
  8
0
 10
378.897918
 20
219.861047
 42
0.076345
  0
VERTEX
  8
0
 10
379.848344
 20
221.111874
 42
0.030780
  0
VERTEX
  8
0
 10
380.756327
 20
223.061585
 42
-0.022675
  0
VERTEX
  8
0
 10
381.407578
 20
224.521348
 42
-0.034236
  0
VERTEX
  8
0
 10
382.115195
 20
225.719635
 42
-0.036877
  0
VERTEX
  8
0
 10
382.783612
 20
226.553705
 42
-0.262218
  0
VERTEX
  8
0
 10
383.259128
 20
226.705291
 42
0.193791
  0
VERTEX
  8
0
 10
384.224546
 20
226.879518
 42
0.287109
  0
VERTEX
  8
0
 10
384.587866
 20
227.631194
 42
0.147222
  0
VERTEX
  8
0
 10
384.095696
 20
228.791132
 42
0.079900
  0
VERTEX
  8
0
 10
382.918597
 20
229.818764
 42
0.120625
  0
VERTEX
  8
0
 10
380.038560
 20
230.767294
 42
0.006527
  0
VERTEX
  8
0
 10
370.412623
 20
231.393997
 42
0.005522
  0
VERTEX
  8
0
 10
360.645236
 20
231.793855
 42
0.156205
  0
VERTEX
  8
0
 10
358.240205
 20
231.102189
 42
0.152961
  0
VERTEX
  8
0
 10
357.897941
 20
230.676587
 42
0.037085
  0
VERTEX
  8
0
 10
357.628327
 20
229.803710
 42
0.034617
  0
VERTEX
  8
0
 10
357.455972
 20
228.709576
 42
0.028464
  0
VERTEX
  8
0
 10
357.420351
 20
227.527463
 42
-0.121563
  0
VERTEX
  8
0
 10
356.922161
 20
225.247756
 42
-0.257690
  0
VERTEX
  8
0
 10
355.485697
 20
224.245279
 42
-0.122634
  0
VERTEX
  8
0
 10
352.868349
 20
224.611868
 42
-0.024785
  0
VERTEX
  8
0
 10
348.573312
 20
226.596049
 42
0.000000
  0
VERTEX
  8
0
 10
343.284218
 20
229.365244
 42
0.000000
  0
VERTEX
  8
0
 10
339.860849
 20
227.345407
 42
-0.023998
  0
VERTEX
  8
0
 10
338.058438
 20
226.395437
 42
-0.065023
  0
VERTEX
  8
0
 10
336.683781
 20
225.959327
 42
-0.084443
  0
VERTEX
  8
0
 10
335.465083
 20
225.948533
 42
-0.065109
  0
VERTEX
  8
0
 10
334.189011
 20
226.328864
 42
0.060035
  0
VERTEX
  8
0
 10
332.933139
 20
226.717040
 42
0.098011
  0
VERTEX
  8
0
 10
331.822262
 20
226.699764
 42
0.078756
  0
VERTEX
  8
0
 10
330.637976
 20
226.242962
 42
0.027836
  0
VERTEX
  8
0
 10
329.113488
 20
225.242027
 42
-0.039694
  0
VERTEX
  8
0
 10
327.527824
 20
224.253867
 42
-0.063871
  0
VERTEX
  8
0
 10
326.034313
 20
223.708056
 42
-0.059425
  0
VERTEX
  8
0
 10
324.375329
 20
223.534736
 42
-0.029688
  0
VERTEX
  8
0
 10
322.267514
 20
223.690944
 42
0.036890
  0
VERTEX
  8
0
 10
320.036551
 20
223.824034
 42
0.057765
  0
VERTEX
  8
0
 10
318.132241
 20
223.575914
 42
0.050221
  0
VERTEX
  8
0
 10
316.154819
 20
222.864558
 42
0.021105
  0
VERTEX
  8
0
 10
313.654886
 20
221.537901
 42
-0.037460
  0
VERTEX
  8
0
 10
310.178240
 20
219.836115
 42
-0.124935
  0
VERTEX
  8
0
 10
307.678439
 20
219.504882
 42
-0.111998
  0
VERTEX
  8
0
 10
305.166672
 20
220.393142
 42
-0.027137
  0
VERTEX
  8
0
 10
301.552182
 20
222.958531
 42
-0.026128
  0
VERTEX
  8
0
 10
299.123830
 20
225.104502
 42
-0.323014
  0
VERTEX
  8
0
 10
298.926872
 20
226.252323
 42
-0.348242
  0
VERTEX
  8
0
 10
299.934130
 20
226.733491
 42
-0.027723
  0
VERTEX
  8
0
 10
302.971488
 20
225.860095
 42
0.023763
  0
VERTEX
  8
0
 10
304.711556
 20
225.344792
 42
0.085067
  0
VERTEX
  8
0
 10
305.864370
 20
225.263189
 42
0.112641
  0
VERTEX
  8
0
 10
306.798832
 20
225.576381
 42
0.059488
  0
VERTEX
  8
0
 10
307.765059
 20
226.336487
 42
0.064169
  0
VERTEX
  8
0
 10
308.534673
 20
227.333802
 42
0.111676
  0
VERTEX
  8
0
 10
308.848683
 20
228.325519
 42
0.076908
  0
VERTEX
  8
0
 10
308.759894
 20
229.604753
 42
0.018745
  0
VERTEX
  8
0
 10
308.213977
 20
231.654457
 42
-0.050948
  0
VERTEX
  8
0
 10
307.634984
 20
234.570959
 42
-0.158036
  0
VERTEX
  8
0
 10
308.066017
 20
236.504732
 42
-0.186374
  0
VERTEX
  8
0
 10
309.481287
 20
237.624798
 42
-0.075383
  0
VERTEX
  8
0
 10
311.955778
 20
238.000000
 42
0.035620
  0
VERTEX
  8
0
 10
314.227766
 20
238.162064
 42
0.223059
  0
VERTEX
  8
0
 10
315.175402
 20
238.784762
 42
0.175707
  0
VERTEX
  8
0
 10
315.429234
 20
240.020154
 42
0.021096
  0
VERTEX
  8
0
 10
314.902084
 20
242.800064
 42
-0.024004
  0
VERTEX
  8
0
 10
314.508800
 20
244.941994
 42
-0.103475
  0
VERTEX
  8
0
 10
314.602263
 20
246.226651
 42
-0.116978
  0
VERTEX
  8
0
 10
315.195811
 20
247.283457
 42
-0.034724
  0
VERTEX
  8
0
 10
316.552433
 20
248.564473
 42
0.013520
  0
VERTEX
  8
0
 10
318.069838
 20
249.880273
 42
0.158526
  0
VERTEX
  8
0
 10
318.450365
 20
250.552709
 42
0.236524
  0
VERTEX
  8
0
 10
318.279530
 20
251.184755
 42
0.033068
  0
VERTEX
  8
0
 10
317.283746
 20
252.162368
 42
0.028594
  0
VERTEX
  8
0
 10
315.128667
 20
253.810573
 42
0.138932
  0
VERTEX
  8
0
 10
313.682568
 20
254.289214
 42
0.140973
  0
VERTEX
  8
0
 10
312.211778
 20
253.934646
 42
0.029752
  0
VERTEX
  8
0
 10
309.974031
 20
252.480840
 42
-0.034986
  0
VERTEX
  8
0
 10
308.247669
 20
251.384768
 42
-0.045956
  0
VERTEX
  8
0
 10
306.531983
 20
250.651491
 42
-0.047296
  0
VERTEX
  8
0
 10
304.751979
 20
250.258066
 42
-0.040565
  0
VERTEX
  8
0
 10
302.834258
 20
250.177626
 42
0.034765
  0
VERTEX
  8
0
 10
301.138234
 20
250.126156
 42
0.040543
  0
VERTEX
  8
0
 10
299.552951
 20
249.836240
 42
0.044668
  0
VERTEX
  8
0
 10
298.193384
 20
249.338112
 42
0.073906
  0
VERTEX
  8
0
 10
297.178324
 20
248.661381
 42
-0.036150
  0
VERTEX
  8
0
 10
296.424566
 20
248.072395
 42
-0.053273
  0
VERTEX
  8
0
 10
295.681907
 20
247.681423
 42
-0.068174
  0
VERTEX
  8
0
 10
295.057183
 20
247.527218
 42
-0.226577
  0
VERTEX
  8
0
 10
294.668848
 20
247.664485
 42
0.188731
  0
VERTEX
  8
0
 10
294.416912
 20
247.774681
 42
0.251824
  0
VERTEX
  8
0
 10
294.196474
 20
247.667071
 42
0.116026
  0
VERTEX
  8
0
 10
294.045991
 20
247.303311
 42
0.040330
  0
VERTEX
  8
0
 10
294.000000
 20
246.734054
 42
-0.099122
  0
VERTEX
  8
0
 10
293.868962
 20
246.079558
 42
-0.070631
  0
VERTEX
  8
0
 10
293.485937
 20
245.435073
 42
-0.067791
  0
VERTEX
  8
0
 10
292.918893
 20
244.898098
 42
-0.076224
  0
VERTEX
  8
0
 10
292.250000
 20
244.557785
 42
0.055527
  0
VERTEX
  8
0
 10
291.352017
 20
244.146576
 42
0.013770
  0
VERTEX
  8
0
 10
289.985938
 20
243.274994
 42
0.013913
  0
VERTEX
  8
0
 10
288.468376
 20
242.184092
 42
0.013547
  0
VERTEX
  8
0
 10
287.000000
 20
241.001078
 42
-0.000452
  0
VERTEX
  8
0
 10
285.582549
 20
239.796543
 42
-0.000509
  0
VERTEX
  8
0
 10
284.217819
 20
238.641318
 42
-0.000465
  0
VERTEX
  8
0
 10
283.054673
 20
237.660616
 42
-0.002764
  0
VERTEX
  8
0
 10
282.443638
 20
237.152139
 42
-0.080989
  0
VERTEX
  8
0
 10
280.436109
 20
235.984260
 42
-0.028288
  0
VERTEX
  8
0
 10
277.242485
 20
234.965808
 42
-0.026994
  0
VERTEX
  8
0
 10
274.021401
 20
234.318997
 42
-0.113363
  0
VERTEX
  8
0
 10
272.066852
 20
234.478782
 42
0.174994
  0
VERTEX
  8
0
 10
270.206316
 20
234.405909
 42
0.084702
  0
VERTEX
  8
0
 10
268.153729
 20
233.134350
 42
0.080866
  0
VERTEX
  8
0
 10
266.552589
 20
231.177626
 42
0.131858
  0
VERTEX
  8
0
 10
266.000000
 20
229.118657
 42
-0.162668
  0
VERTEX
  8
0
 10
265.318437
 20
227.079146
 42
-0.033580
  0
VERTEX
  8
0
 10
262.809077
 20
224.172397
 42
-0.035592
  0
VERTEX
  8
0
 10
259.836542
 20
221.563435
 42
-0.101166
  0
VERTEX
  8
0
 10
257.363955
 20
220.376499
 42
-0.099807
  0
VERTEX
  8
0
 10
255.411342
 20
220.284756
 42
-0.066704
  0
VERTEX
  8
0
 10
253.257472
 20
220.916287
 42
-0.072810
  0
VERTEX
  8
0
 10
251.559056
 20
221.990092
 42
-0.218806
  0
VERTEX
  8
0
 10
251.000000
 20
223.206443
 42
-0.095457
  0
VERTEX
  8
0
 10
251.107161
 20
223.762629
 42
-0.030604
  0
VERTEX
  8
0
 10
251.468522
 20
224.526507
 42
-0.029267
  0
VERTEX
  8
0
 10
251.984553
 20
225.346726
 42
-0.028877
  0
VERTEX
  8
0
 10
252.594967
 20
226.104937
 42
0.075456
  0
VERTEX
  8
0
 10
253.371899
 20
227.278111
 42
0.153865
  0
VERTEX
  8
0
 10
253.512560
 20
228.362660
 42
0.075045
  0
VERTEX
  8
0
 10
253.016889
 20
229.828053
 42
0.009032
  0
VERTEX
  8
0
 10
251.394716
 20
232.839927
 42
-0.010627
  0
VERTEX
  8
0
 10
249.878308
 20
235.677070
 42
-0.065235
  0
VERTEX
  8
0
 10
249.327532
 20
237.237500
 42
-0.129342
  0
VERTEX
  8
0
 10
249.382499
 20
238.376317
 42
-0.097113
  0
VERTEX
  8
0
 10
249.985618
 20
239.482670
 42
-0.075718
  0
VERTEX
  8
0
 10
250.811302
 20
240.217030
 42
-0.086330
  0
VERTEX
  8
0
 10
251.783101
 20
240.631967
 42
-0.070625
  0
VERTEX
  8
0
 10
252.992895
 20
240.741505
 42
-0.033694
  0
VERTEX
  8
0
 10
254.547380
 20
240.557089
 42
0.033333
  0
VERTEX
  8
0
 10
256.060309
 20
240.376497
 42
0.065184
  0
VERTEX
  8
0
 10
257.268582
 20
240.470961
 42
0.081133
  0
VERTEX
  8
0
 10
258.230038
 20
240.844004
 42
0.086727
  0
VERTEX
  8
0
 10
258.997771
 20
241.497314
 42
0.109492
  0
VERTEX
  8
0
 10
259.484202
 20
242.444086
 42
0.169369
  0
VERTEX
  8
0
 10
259.412292
 20
243.351760
 42
0.083479
  0
VERTEX
  8
0
 10
258.679394
 20
244.467517
 42
0.014101
  0
VERTEX
  8
0
 10
256.886260
 20
246.294834
 42
0.049220
  0
VERTEX
  8
0
 10
254.443446
 20
248.223325
 42
0.101037
  0
VERTEX
  8
0
 10
252.178862
 20
249.097836
 42
0.200292
  0
VERTEX
  8
0
 10
250.660402
 20
248.745153
 42
0.241335
  0
VERTEX
  8
0
 10
250.000000
 20
247.456613
 42
-0.199157
  0
VERTEX
  8
0
 10
249.452532
 20
246.136668
 42
-0.022601
  0
VERTEX
  8
0
 10
247.013442
 20
243.912862
 42
-0.021909
  0
VERTEX
  8
0
 10
244.387006
 20
241.915176
 42
-0.221256
  0
VERTEX
  8
0
 10
243.067440
 20
241.687374
 42
0.240091
  0
VERTEX
  8
0
 10
241.556959
 20
241.370610
 42
0.041545
  0
VERTEX
  8
0
 10
239.375681
 20
239.293179
 42
0.043797
  0
VERTEX
  8
0
 10
237.463277
 20
236.720313
 42
0.106142
  0
VERTEX
  8
0
 10
236.677457
 20
234.500000
 42
-0.033324
  0
VERTEX
  8
0
 10
236.345257
 20
232.820686
 42
-0.162325
  0
VERTEX
  8
0
 10
235.818037
 20
232.022548
 42
-0.151630
  0
VERTEX
  8
0
 10
234.895488
 20
231.670845
 42
-0.027968
  0
VERTEX
  8
0
 10
233.053699
 20
231.657340
 42
-0.080797
  0
VERTEX
  8
0
 10
230.847174
 20
232.127261
 42
-0.094074
  0
VERTEX
  8
0
 10
229.031239
 20
233.262411
 42
-0.064692
  0
VERTEX
  8
0
 10
227.293052
 20
235.345765
 42
-0.020045
  0
VERTEX
  8
0
 10
225.239392
 20
238.882886
 42
-0.091874
  0
VERTEX
  8
0
 10
224.625399
 20
240.848827
 42
-0.167565
  0
VERTEX
  8
0
 10
224.976105
 20
242.473792
 42
-0.188817
  0
VERTEX
  8
0
 10
226.202594
 20
243.411893
 42
-0.118034
  0
VERTEX
  8
0
 10
228.032271
 20
243.493785
 42
0.089960
  0
VERTEX
  8
0
 10
228.924204
 20
243.484138
 42
0.042521
  0
VERTEX
  8
0
 10
230.042076
 20
243.773885
 42
0.040306
  0
VERTEX
  8
0
 10
231.193813
 20
244.287078
 42
0.045260
  0
VERTEX
  8
0
 10
232.201441
 20
244.962034
 42
0.028773
  0
VERTEX
  8
0
 10
233.542330
 20
246.181938
 42
0.169773
  0
VERTEX
  8
0
 10
233.939786
 20
247.028957
 42
0.124722
  0
VERTEX
  8
0
 10
233.786126
 20
248.075656
 42
0.012761
  0
VERTEX
  8
0
 10
232.758261
 20
250.380743
 42
-0.045520
  0
VERTEX
  8
0
 10
231.848555
 20
252.842326
 42
-0.079890
  0
VERTEX
  8
0
 10
231.624634
 20
254.996469
 42
-0.130550
  0
VERTEX
  8
0
 10
232.095315
 20
256.438511
 42
-0.254188
  0
VERTEX
  8
0
 10
233.128428
 20
257.000000
 42
0.179076
  0
VERTEX
  8
0
 10
233.553137
 20
257.157150
 42
0.041589
  0
VERTEX
  8
0
 10
234.096843
 20
257.707997
 42
0.037804
  0
VERTEX
  8
0
 10
234.653526
 20
258.487481
 42
0.029277
  0
VERTEX
  8
0
 10
235.141039
 20
259.410203
 42
0.043183
  0
VERTEX
  8
0
 10
235.608168
 20
260.725672
 42
0.091472
  0
VERTEX
  8
0
 10
235.686193
 20
261.800485
 42
0.087899
  0
VERTEX
  8
0
 10
235.375511
 20
262.859676
 42
0.037605
  0
VERTEX
  8
0
 10
234.619601
 20
264.132709
 42
-0.040640
  0
VERTEX
  8
0
 10
233.348753
 20
266.302804
 42
-0.159365
  0
VERTEX
  8
0
 10
233.146433
 20
267.821130
 42
-0.180906
  0
VERTEX
  8
0
 10
233.884929
 20
269.048835
 42
-0.055316
  0
VERTEX
  8
0
 10
235.750000
 20
270.220211
 42
0.118163
  0
VERTEX
  8
0
 10
237.495290
 20
271.647542
 42
0.131870
  0
VERTEX
  8
0
 10
238.315652
 20
273.655715
 42
0.058079
  0
VERTEX
  8
0
 10
238.348088
 20
277.045388
 42
0.008163
  0
VERTEX
  8
0
 10
237.489852
 20
284.000000
 42
-0.010191
  0
VERTEX
  8
0
 10
237.243288
 20
286.066949
 42
-0.020871
  0
VERTEX
  8
0
 10
237.150966
 20
287.696073
 42
-0.027298
  0
VERTEX
  8
0
 10
237.193754
 20
288.772995
 42
-0.619839
  0
VERTEX
  8
0
 10
237.417582
 20
288.858972
 42
0.320492
  0
VERTEX
  8
0
 10
237.878051
 20
288.802180
 42
0.028696
  0
VERTEX
  8
0
 10
238.925726
 20
289.451685
 42
0.028968
  0
VERTEX
  8
0
 10
240.196538
 20
290.459017
 42
0.017962
  0
VERTEX
  8
0
 10
241.571789
 20
291.776885
 42
0.018979
  0
VERTEX
  8
0
 10
243.241357
 20
293.631907
 42
0.061554
  0
VERTEX
  8
0
 10
244.135960
 20
295.021718
 42
0.095328
  0
VERTEX
  8
0
 10
244.453470
 20
296.220622
 42
0.102786
  0
VERTEX
  8
0
 10
244.289571
 20
297.417913
 42
-0.051088
  0
VERTEX
  8
0
 10
244.020615
 20
298.522647
 42
-0.015654
  0
VERTEX
  8
0
 10
243.839645
 20
300.232952
 42
-0.015488
  0
VERTEX
  8
0
 10
243.755935
 20
302.172100
 42
-0.016366
  0
VERTEX
  8
0
 10
243.795113
 20
304.077242
 42
0.051115
  0
VERTEX
  8
0
 10
243.636592
 20
307.319743
 42
0.111602
  0
VERTEX
  8
0
 10
242.734113
 20
309.624135
 42
0.120116
  0
VERTEX
  8
0
 10
240.981592
 20
311.212019
 42
0.064684
  0
VERTEX
  8
0
 10
238.245829
 20
312.266442
 42
0.053060
  0
VERTEX
  8
0
 10
237.067488
 20
312.423695
 42
0.168181
  0
VERTEX
  8
0
 10
236.319716
 20
312.186967
 42
0.144345
  0
VERTEX
  8
0
 10
235.809509
 20
311.507748
 42
0.035737
  0
VERTEX
  8
0
 10
235.412306
 20
310.157471
 42
-0.011972
  0
VERTEX
  8
0
 10
234.687308
 20
307.176722
 42
-0.078137
  0
VERTEX
  8
0
 10
234.062806
 20
305.772613
 42
-0.106797
  0
VERTEX
  8
0
 10
233.116992
 20
304.830273
 42
-0.031265
  0
VERTEX
  8
0
 10
231.314116
 20
303.825929
 42
0.051361
  0
VERTEX
  8
0
 10
230.164986
 20
303.123943
 42
0.052770
  0
VERTEX
  8
0
 10
229.194528
 20
302.208092
 42
0.056651
  0
VERTEX
  8
0
 10
228.499930
 20
301.183409
 42
0.085525
  0
VERTEX
  8
0
 10
228.169831
 20
300.159607
 42
-0.093961
  0
VERTEX
  8
0
 10
227.805228
 20
299.090400
 42
-0.048479
  0
VERTEX
  8
0
 10
226.989281
 20
297.930117
 42
-0.043683
  0
VERTEX
  8
0
 10
225.840008
 20
296.807393
 42
-0.038359
  0
VERTEX
  8
0
 10
224.464172
 20
295.846360
 42
0.030835
  0
VERTEX
  8
0
 10
223.127271
 20
294.942110
 42
0.030114
  0
VERTEX
  8
0
 10
221.900537
 20
293.873631
 42
0.031548
  0
VERTEX
  8
0
 10
220.942379
 20
292.805021
 42
0.090382
  0
VERTEX
  8
0
 10
220.476953
 20
291.927386
 42
-0.121162
  0
VERTEX
  8
0
 10
219.624800
 20
290.532733
 42
-0.224408
  0
VERTEX
  8
0
 10
218.399962
 20
290.099922
 42
-0.149721
  0
VERTEX
  8
0
 10
216.879832
 20
290.740956
 42
-0.052041
  0
VERTEX
  8
0
 10
215.205335
 20
292.466088
 42
0.026852
  0
VERTEX
  8
0
 10
214.416102
 20
293.365565
 42
0.044463
  0
VERTEX
  8
0
 10
213.649462
 20
294.021891
 42
0.057852
  0
VERTEX
  8
0
 10
213.008452
 20
294.375068
 42
0.302068
  0
VERTEX
  8
0
 10
212.632755
 20
294.299422
 42
-0.475401
  0
VERTEX
  8
0
 10
212.392738
 20
294.324026
 42
-0.085607
  0
VERTEX
  8
0
 10
212.185872
 20
294.799600
 42
-0.041406
  0
VERTEX
  8
0
 10
212.044205
 20
295.696047
 42
-0.018495
  0
VERTEX
  8
0
 10
212.000000
 20
296.890705
 42
0.021828
  0
VERTEX
  8
0
 10
211.926034
 20
298.584220
 42
0.006230
  0
VERTEX
  8
0
 10
211.663999
 20
301.202244
 42
0.006260
  0
VERTEX
  8
0
 10
211.294043
 20
304.152725
 42
0.006603
  0
VERTEX
  8
0
 10
210.856167
 20
307.040913
 42
0.015642
  0
VERTEX
  8
0
 10
210.035976
 20
311.194652
 42
0.064559
  0
VERTEX
  8
0
 10
209.147168
 20
313.591011
 42
0.067540
  0
VERTEX
  8
0
 10
207.695975
 20
315.628120
 42
0.018140
  0
VERTEX
  8
0
 10
204.867118
 20
318.430290
 42
-0.015407
  0
VERTEX
  8
0
 10
202.748563
 20
320.506045
 42
-0.038386
  0
VERTEX
  8
0
 10
201.372269
 20
322.180222
 42
-0.055008
  0
VERTEX
  8
0
 10
200.641464
 20
323.513462
 42
-0.191780
  0
VERTEX
  8
0
 10
200.629375
 20
324.476550
 42
-0.091980
  0
VERTEX
  8
0
 10
201.033316
 20
325.135614
 42
-0.127571
  0
VERTEX
  8
0
 10
201.608861
 20
325.515769
 42
-0.106031
  0
VERTEX
  8
0
 10
202.380871
 20
325.607830
 42
-0.050353
  0
VERTEX
  8
0
 10
203.368425
 20
325.414618
 42
0.007156
  0
VERTEX
  8
0
 10
204.888323
 20
324.978364
 42
0.039130
  0
VERTEX
  8
0
 10
205.727684
 20
324.819563
 42
0.037735
  0
VERTEX
  8
0
 10
206.593987
 20
324.790679
 42
0.006365
  0
VERTEX
  8
0
 10
208.250000
 20
324.881579
 42
0.245074
  0
VERTEX
  8
0
 10
209.512349
 20
325.652480
 42
0.149274
  0
VERTEX
  8
0
 10
209.947129
 20
327.387605
 42
0.084264
  0
VERTEX
  8
0
 10
209.370944
 20
329.976755
 42
0.041254
  0
VERTEX
  8
0
 10
207.836908
 20
333.000000
 42
-0.032224
  0
VERTEX
  8
0
 10
206.919604
 20
334.729765
 42
-0.014800
  0
VERTEX
  8
0
 10
205.940579
 20
337.087500
 42
-0.014588
  0
VERTEX
  8
0
 10
205.053239
 20
339.638058
 42
-0.019550
  0
VERTEX
  8
0
 10
204.408358
 20
342.000000
 42
0.002960
  0
VERTEX
  8
0
 10
203.831812
 20
344.425644
 42
0.002027
  0
VERTEX
  8
0
 10
203.149883
 20
347.172580
 42
0.002043
  0
VERTEX
  8
0
 10
202.471335
 20
349.813755
 42
0.004141
  0
VERTEX
  8
0
 10
201.911711
 20
351.885379
 42
-0.017747
  0
VERTEX
  8
0
 10
201.380960
 20
354.086299
 42
-0.046357
  0
VERTEX
  8
0
 10
201.204928
 20
355.702439
 42
-0.064460
  0
VERTEX
  8
0
 10
201.349137
 20
356.974364
 42
-0.079318
  0
VERTEX
  8
0
 10
201.813650
 20
358.073214
 42
0.066705
  0
VERTEX
  8
0
 10
202.271543
 20
359.084854
 42
0.070080
  0
VERTEX
  8
0
 10
202.436775
 20
360.164317
 42
0.057965
  0
VERTEX
  8
0
 10
202.306879
 20
361.410728
 42
0.028955
  0
VERTEX
  8
0
 10
201.871826
 20
362.937835
 42
0.013513
  0
VERTEX
  8
0
 10
201.019169
 20
365.186371
 42
0.188514
  0
VERTEX
  8
0
 10
200.431821
 20
365.801706
 42
0.283239
  0
VERTEX
  8
0
 10
199.721869
 20
365.718972
 42
0.029350
  0
VERTEX
  8
0
 10
198.408562
 20
364.551419
 42
-0.073017
  0
VERTEX
  8
0
 10
197.457441
 20
363.843824
 42
-0.124093
  0
VERTEX
  8
0
 10
196.501405
 20
363.602838
 42
-0.072048
  0
VERTEX
  8
0
 10
195.198696
 20
363.791532
 42
-0.012874
  0
VERTEX
  8
0
 10
192.854264
 20
364.551419
 42
0.002845
  0
VERTEX
  8
0
 10
189.457194
 20
365.728283
 42
0.081426
  0
VERTEX
  8
0
 10
188.546113
 20
365.880282
 42
0.340028
  0
VERTEX
  8
0
 10
188.131839
 20
365.563575
 42
0.065735
  0
SEQEND
  0
ENDSEC
  0
EOF
