  0
SECTION
  2
HEADER
  9
$ACADVER
  1
AC1006
  9
$EXTMIN
 10
0.000000
 20
0.000000
 30
0.000000
  9
$EXTMAX
 10
372.000000
 20
378.000000
 30
0.000000
  0
ENDSEC
  0
SECTION
  2
ENTITIES
  0
POLYLINE
  8
0
 66
1
 70
1
  0
VERTEX
  8
0
 10
0.752804
 20
377.353989
 42
0.072585
  0
VERTEX
  8
0
 10
0.580057
 20
376.920622
 42
0.031852
  0
VERTEX
  8
0
 10
0.474831
 20
376.310234
 42
0.030683
  0
VERTEX
  8
0
 10
0.444052
 20
375.636977
 42
0.035902
  0
VERTEX
  8
0
 10
0.499888
 20
375.000000
 42
-0.021376
  0
VERTEX
  8
0
 10
0.621158
 20
373.963443
 42
-0.001034
  0
VERTEX
  8
0
 10
0.869762
 20
370.499694
 42
-0.001684
  0
VERTEX
  8
0
 10
1.142765
 20
366.382656
 42
-0.001213
  0
VERTEX
  8
0
 10
1.420817
 20
361.786192
 42
0.001800
  0
VERTEX
  8
0
 10
1.705547
 20
357.169265
 42
0.002418
  0
VERTEX
  8
0
 10
1.998792
 20
352.988621
 42
0.001661
  0
VERTEX
  8
0
 10
2.273314
 20
349.484704
 42
0.025638
  0
VERTEX
  8
0
 10
2.433389
 20
348.286192
 42
-0.017599
  0
VERTEX
  8
0
 10
2.599658
 20
347.177391
 42
-0.002031
  0
VERTEX
  8
0
 10
2.875028
 20
344.674694
 42
-0.002444
  0
VERTEX
  8
0
 10
3.176011
 20
341.694041
 42
-0.001992
  0
VERTEX
  8
0
 10
3.469937
 20
338.500000
 42
0.001317
  0
VERTEX
  8
0
 10
3.767560
 20
335.217186
 42
0.001357
  0
VERTEX
  8
0
 10
4.079586
 20
331.968750
 42
0.001310
  0
VERTEX
  8
0
 10
4.365054
 20
329.154575
 42
0.005790
  0
VERTEX
  8
0
 10
4.556665
 20
327.500000
 42
-0.002040
  0
VERTEX
  8
0
 10
4.744754
 20
325.975947
 42
-0.000698
  0
VERTEX
  8
0
 10
5.005258
 20
323.765625
 42
-0.000694
  0
VERTEX
  8
0
 10
5.285935
 20
321.325682
 42
-0.000802
  0
VERTEX
  8
0
 10
5.546418
 20
319.000000
 42
0.001325
  0
VERTEX
  8
0
 10
5.805220
 20
316.710942
 42
0.001255
  0
VERTEX
  8
0
 10
6.080797
 20
314.381250
 42
0.001245
  0
VERTEX
  8
0
 10
6.334985
 20
312.320723
 42
0.004406
  0
VERTEX
  8
0
 10
6.513087
 20
311.000000
 42
-0.005843
  0
VERTEX
  8
0
 10
6.712511
 20
309.488383
 42
-0.000781
  0
VERTEX
  8
0
 10
7.090614
 20
306.296875
 42
-0.000903
  0
VERTEX
  8
0
 10
7.526087
 20
302.512002
 42
-0.000759
  0
VERTEX
  8
0
 10
7.974179
 20
298.500000
 42
0.000499
  0
VERTEX
  8
0
 10
8.424212
 20
294.451478
 42
0.000560
  0
VERTEX
  8
0
 10
8.865555
 20
290.556250
 42
0.000513
  0
VERTEX
  8
0
 10
9.248442
 20
287.240539
 42
0.003008
  0
VERTEX
  8
0
 10
9.461862
 20
285.500000
 42
-0.004681
  0
VERTEX
  8
0
 10
9.653281
 20
283.894418
 42
-0.001237
  0
VERTEX
  8
0
 10
9.928806
 20
281.325000
 42
-0.001256
  0
VERTEX
  8
0
 10
10.227717
 20
278.399999
 42
-0.001290
  0
VERTEX
  8
0
 10
10.509160
 20
275.500000
 42
0.001599
  0
VERTEX
  8
0
 10
10.786094
 20
272.664669
 42
0.001786
  0
VERTEX
  8
0
 10
11.071492
 20
269.933886
 42
0.001644
  0
VERTEX
  8
0
 10
11.330632
 20
267.608739
 42
0.009463
  0
VERTEX
  8
0
 10
11.495106
 20
266.381314
 42
-0.013788
  0
VERTEX
  8
0
 10
11.657291
 20
265.085968
 42
-0.001738
  0
VERTEX
  8
0
 10
11.920802
 20
262.276106
 42
-0.002041
  0
VERTEX
  8
0
 10
12.208501
 20
258.937094
 42
-0.001693
  0
VERTEX
  8
0
 10
12.488143
 20
255.381314
 42
0.001951
  0
VERTEX
  8
0
 10
12.770650
 20
251.812633
 42
0.002295
  0
VERTEX
  8
0
 10
13.066962
 20
248.434502
 42
0.002014
  0
VERTEX
  8
0
 10
13.341845
 20
245.583148
 42
0.014268
  0
VERTEX
  8
0
 10
13.520255
 20
244.204224
 42
-0.034952
  0
VERTEX
  8
0
 10
14.948911
 20
227.886054
 42
-0.004371
  0
VERTEX
  8
0
 10
15.258581
 20
192.336516
 42
-0.005292
  0
VERTEX
  8
0
 10
14.878710
 20
156.548315
 42
-0.019565
  0
VERTEX
  8
0
 10
13.516880
 20
134.000000
 42
0.005349
  0
VERTEX
  8
0
 10
12.750236
 20
125.384405
 42
0.009714
  0
VERTEX
  8
0
 10
12.335908
 20
118.324981
 42
0.003939
  0
VERTEX
  8
0
 10
12.153794
 20
112.512166
 42
0.421096
  0
VERTEX
  8
0
 10
12.654092
 20
112.000000
 42
0.090758
  0
VERTEX
  8
0
 10
13.324289
 20
112.122662
 42
0.000301
  0
VERTEX
  8
0
 10
21.200153
 20
115.110938
 42
0.001653
  0
VERTEX
  8
0
 10
30.107794
 20
118.530578
 42
0.001034
  0
VERTEX
  8
0
 10
40.515543
 20
122.590427
 42
-0.001104
  0
VERTEX
  8
0
 10
92.428210
 20
142.832104
 42
-0.001004
  0
VERTEX
  8
0
 10
146.094987
 20
163.497468
 42
-0.001022
  0
VERTEX
  8
0
 10
198.726163
 20
183.519552
 42
-0.001290
  0
VERTEX
  8
0
 10
247.500000
 20
201.816533
 42
-0.000075
  0
VERTEX
  8
0
 10
281.685707
 20
214.534571
 42
-0.000642
  0
VERTEX
  8
0
 10
297.015224
 20
220.212572
 42
-0.000173
  0
VERTEX
  8
0
 10
306.977289
 20
223.884034
 42
-0.088417
  0
VERTEX
  8
0
 10
307.627948
 20
224.000000
 42
-0.410277
  0
VERTEX
  8
0
 10
307.805644
 20
223.824680
 42
-0.003530
  0
VERTEX
  8
0
 10
307.819089
 20
221.723437
 42
-0.009418
  0
VERTEX
  8
0
 10
307.770307
 20
219.221749
 42
-0.005629
  0
VERTEX
  8
0
 10
307.622817
 20
216.250000
 42
0.000285
  0
VERTEX
  8
0
 10
307.436503
 20
213.162798
 42
0.000357
  0
VERTEX
  8
0
 10
307.267229
 20
210.296760
 42
0.000287
  0
VERTEX
  8
0
 10
307.128231
 20
207.890732
 42
0.002761
  0
VERTEX
  8
0
 10
307.075331
 20
206.866631
 42
-0.095304
  0
VERTEX
  8
0
 10
306.915626
 20
206.202882
 42
-0.068987
  0
VERTEX
  8
0
 10
306.508066
 20
205.558429
 42
-0.066860
  0
VERTEX
  8
0
 10
305.924561
 20
205.030320
 42
-0.077626
  0
VERTEX
  8
0
 10
305.250000
 20
204.706844
 42
0.012239
  0
VERTEX
  8
0
 10
303.988474
 20
204.293433
 42
0.000305
  0
VERTEX
  8
0
 10
298.285938
 20
202.264901
 42
0.000657
  0
VERTEX
  8
0
 10
291.598841
 20
199.871624
 42
0.000448
  0
VERTEX
  8
0
 10
284.000000
 20
197.133076
 42
0.003221
  0
VERTEX
  8
0
 10
238.241918
 20
180.261891
 42
0.002904
  0
VERTEX
  8
0
 10
191.092878
 20
162.218662
 42
0.002890
  0
VERTEX
  8
0
 10
143.897759
 20
143.527955
 42
0.003097
  0
VERTEX
  8
0
 10
98.000000
 20
124.712237
 42
0.000462
  0
VERTEX
  8
0
 10
87.259863
 20
120.219782
 42
0.000697
  0
VERTEX
  8
0
 10
77.913732
 20
116.284939
 42
0.000513
  0
VERTEX
  8
0
 10
66.728259
 20
111.543796
 42
0.000138
  0
VERTEX
  8
0
 10
49.000000
 20
104.002114
 42
-0.000464
  0
VERTEX
  8
0
 10
42.899309
 20
101.411548
 42
-0.000283
  0
VERTEX
  8
0
 10
35.691146
 20
98.363427
 42
-0.000284
  0
VERTEX
  8
0
 10
28.544578
 20
95.350907
 42
-0.000504
  0
VERTEX
  8
0
 10
22.650710
 20
92.877369
 42
0.006854
  0
VERTEX
  8
0
 10
16.817155
 20
90.341534
 42
0.018167
  0
VERTEX
  8
0
 10
12.742874
 20
88.322459
 42
0.020883
  0
VERTEX
  8
0
 10
9.976621
 20
86.671108
 42
0.157063
  0
VERTEX
  8
0
 10
9.030999
 20
85.500000
 42
0.045254
  0
VERTEX
  8
0
 10
8.693017
 20
84.312328
 42
0.007734
  0
VERTEX
  8
0
 10
8.292225
 20
81.995979
 42
0.008379
  0
VERTEX
  8
0
 10
7.908115
 20
79.252526
 42
0.007386
  0
VERTEX
  8
0
 10
7.597893
 20
76.379929
 42
-0.002238
  0
VERTEX
  8
0
 10
7.318409
 20
73.516075
 42
-0.002613
  0
VERTEX
  8
0
 10
7.026621
 20
70.799150
 42
-0.002313
  0
VERTEX
  8
0
 10
6.757256
 20
68.504198
 42
-0.015845
  0
VERTEX
  8
0
 10
6.583715
 20
67.379929
 42
0.014319
  0
VERTEX
  8
0
 10
6.408482
 20
66.267228
 42
0.002219
  0
VERTEX
  8
0
 10
6.134474
 20
64.053063
 42
0.002472
  0
VERTEX
  8
0
 10
5.835715
 20
61.437785
 42
0.002149
  0
VERTEX
  8
0
 10
5.547972
 20
58.694328
 42
-0.002010
  0
VERTEX
  8
0
 10
5.262414
 20
55.964413
 42
-0.002389
  0
VERTEX
  8
0
 10
4.970214
 20
53.390113
 42
-0.002071
  0
VERTEX
  8
0
 10
4.704389
 20
51.221032
 42
-0.015392
  0
VERTEX
  8
0
 10
4.541999
 20
50.194328
 42
0.019537
  0
VERTEX
  8
0
 10
4.380674
 20
49.116545
 42
0.001912
  0
VERTEX
  8
0
 10
4.103201
 20
46.500834
 42
0.002418
  0
VERTEX
  8
0
 10
3.799347
 20
43.378915
 42
0.001913
  0
VERTEX
  8
0
 10
3.500000
 20
40.000000
 42
-0.001690
  0
VERTEX
  8
0
 10
3.203406
 20
36.635119
 42
-0.002200
  0
VERTEX
  8
0
 10
2.907862
 20
33.556250
 42
-0.001638
  0
VERTEX
  8
0
 10
2.640410
 20
30.978225
 42
-0.020130
  0
VERTEX
  8
0
 10
2.495663
 20
30.000000
 42
0.025593
  0
VERTEX
  8
0
 10
2.355160
 20
28.973140
 42
0.001384
  0
VERTEX
  8
0
 10
2.086795
 20
25.709375
 42
0.002157
  0
VERTEX
  8
0
 10
1.794918
 20
21.822887
 42
0.001572
  0
VERTEX
  8
0
 10
1.502667
 20
17.500000
 42
-0.000669
  0
VERTEX
  8
0
 10
1.209443
 20
13.043161
 42
-0.000747
  0
VERTEX
  8
0
 10
0.914639
 20
8.747971
 42
-0.000687
  0
VERTEX
  8
0
 10
0.652914
 20
5.088385
 42
-0.003956
  0
VERTEX
  8
0
 10
0.496395
 20
3.152667
 42
0.000000
  0
VERTEX
  8
0
 10
0.199057
 20
-0.194667
 42
0.000000
  0
VERTEX
  8
0
 10
10.849529
 20
0.438239
 42
0.001660
  0
VERTEX
  8
0
 10
18.580712
 20
0.923433
 42
0.003657
  0
VERTEX
  8
0
 10
24.484421
 20
1.357008
 42
0.004269
  0
VERTEX
  8
0
 10
29.775932
 20
1.830059
 42
0.003359
  0
VERTEX
  8
0
 10
35.500000
 20
2.429939
 42
-0.001483
  0
VERTEX
  8
0
 10
37.810305
 20
2.680826
 42
-0.000809
  0
VERTEX
  8
0
 10
40.646875
 20
2.975711
 42
-0.000806
  0
VERTEX
  8
0
 10
43.530954
 20
3.266121
 42
-0.001282
  0
VERTEX
  8
0
 10
46.000000
 20
3.504331
 42
0.002310
  0
VERTEX
  8
0
 10
48.362082
 20
3.737125
 42
0.001831
  0
VERTEX
  8
0
 10
50.912500
 20
4.009826
 42
0.001851
  0
VERTEX
  8
0
 10
53.276265
 20
4.280189
 42
0.004625
  0
VERTEX
  8
0
 10
55.000000
 20
4.500000
 42
-0.004144
  0
VERTEX
  8
0
 10
56.723714
 20
4.721496
 42
-0.001657
  0
VERTEX
  8
0
 10
59.087500
 20
4.997404
 42
-0.001640
  0
VERTEX
  8
0
 10
61.637918
 20
5.278062
 42
-0.002068
  0
VERTEX
  8
0
 10
64.000000
 20
5.520282
 42
0.020837
  0
VERTEX
  8
0
 10
70.486051
 20
6.432455
 42
0.042867
  0
VERTEX
  8
0
 10
75.427616
 20
7.784495
 42
0.024159
  0
VERTEX
  8
0
 10
81.576774
 20
10.392002
 42
0.002937
  0
VERTEX
  8
0
 10
94.750542
 20
16.841062
 42
-0.008510
  0
VERTEX
  8
0
 10
154.606647
 20
45.320420
 42
-0.014113
  0
VERTEX
  8
0
 10
206.126120
 20
67.032987
 42
-0.015681
  0
VERTEX
  8
0
 10
254.604607
 20
84.141851
 42
-0.014798
  0
VERTEX
  8
0
 10
305.000000
 20
98.541497
 42
-0.002787
  0
VERTEX
  8
0
 10
316.871115
 20
101.486197
 42
-0.123285
  0
VERTEX
  8
0
 10
319.409658
 20
101.466501
 42
-0.296462
  0
VERTEX
  8
0
 10
320.706244
 20
100.050178
 42
-0.019546
  0
VERTEX
  8
0
 10
321.434537
 20
94.290922
 42
0.002812
  0
VERTEX
  8
0
 10
321.731077
 20
91.088148
 42
0.002861
  0
VERTEX
  8
0
 10
322.062022
 20
87.907333
 42
0.002779
  0
VERTEX
  8
0
 10
322.380907
 20
85.145482
 42
0.011809
  0
VERTEX
  8
0
 10
322.619721
 20
83.500000
 42
0.000000
  0
VERTEX
  8
0
 10
323.127723
 20
80.500000
 42
0.000000
  0
VERTEX
  8
0
 10
309.813861
 20
77.127297
 42
0.002255
  0
VERTEX
  8
0
 10
304.392676
 20
75.727942
 42
0.002423
  0
VERTEX
  8
0
 10
299.113173
 20
74.312346
 42
0.002291
  0
VERTEX
  8
0
 10
294.591440
 20
73.054116
 42
0.011511
  0
VERTEX
  8
0
 10
292.082045
 20
72.280620
 42
-0.006661
  0
VERTEX
  8
0
 10
290.209365
 20
71.683438
 42
-0.005824
  0
VERTEX
  8
0
 10
288.235865
 20
71.107977
 42
-0.005864
  0
VERTEX
  8
0
 10
286.440305
 20
70.629645
 42
-0.017311
  0
VERTEX
  8
0
 10
285.192602
 20
70.358480
 42
0.022363
  0
VERTEX
  8
0
 10
284.009274
 20
70.088762
 42
0.009677
  0
VERTEX
  8
0
 10
282.459950
 20
69.629499
 42
0.009554
  0
VERTEX
  8
0
 10
280.828067
 20
69.076663
 42
0.012509
  0
VERTEX
  8
0
 10
279.360557
 20
68.506184
 42
-0.009407
  0
VERTEX
  8
0
 10
278.071517
 20
67.995855
 42
-0.016617
  0
VERTEX
  8
0
 10
276.987164
 20
67.630581
 42
-0.011646
  0
VERTEX
  8
0
 10
276.130803
 20
67.395051
 42
-0.487969
  0
VERTEX
  8
0
 10
276.000000
 20
67.497165
 42
0.492248
  0
VERTEX
  8
0
 10
275.858106
 20
67.606370
 42
0.004107
  0
VERTEX
  8
0
 10
274.310937
 20
67.182965
 42
0.009868
  0
VERTEX
  8
0
 10
272.455241
 20
66.618929
 42
0.005740
  0
VERTEX
  8
0
 10
270.250000
 20
65.872708
 42
-0.004626
  0
VERTEX
  8
0
 10
267.888338
 20
65.067688
 42
-0.004838
  0
VERTEX
  8
0
 10
265.547106
 20
64.318779
 42
-0.004653
  0
VERTEX
  8
0
 10
263.512985
 20
63.710419
 42
-0.021274
  0
VERTEX
  8
0
 10
262.314615
 20
63.418729
 42
0.028245
  0
VERTEX
  8
0
 10
261.175434
 20
63.124573
 42
0.007847
  0
VERTEX
  8
0
 10
259.426550
 20
62.535549
 42
0.007895
  0
VERTEX
  8
0
 10
257.464556
 20
61.805210
 42
0.008204
  0
VERTEX
  8
0
 10
255.551746
 20
61.022181
 42
-0.003071
  0
VERTEX
  8
0
 10
253.762482
 20
60.268189
 42
-0.004478
  0
VERTEX
  8
0
 10
252.175804
 20
59.627602
 42
-0.002274
  0
VERTEX
  8
0
 10
250.824792
 20
59.103266
 42
-0.076175
  0
VERTEX
  8
0
 10
250.487131
 20
59.030021
 42
0.010887
  0
VERTEX
  8
0
 10
250.282295
 20
59.012914
 42
0.009609
  0
VERTEX
  8
0
 10
250.069657
 20
58.986344
 42
0.009697
  0
VERTEX
  8
0
 10
249.878913
 20
58.954989
 42
0.028677
  0
VERTEX
  8
0
 10
249.750000
 20
58.923489
 42
-0.014238
  0
VERTEX
  8
0
 10
249.584965
 20
58.878077
 42
-0.001068
  0
VERTEX
  8
0
 10
249.132812
 20
58.768428
 42
-0.001477
  0
VERTEX
  8
0
 10
248.592742
 20
58.640366
 42
-0.001122
  0
VERTEX
  8
0
 10
248.000000
 20
58.503065
 42
0.036846
  0
VERTEX
  8
0
 10
238.627998
 20
55.613826
 42
0.002650
  0
VERTEX
  8
0
 10
213.355465
 20
45.578268
 42
0.000862
  0
VERTEX
  8
0
 10
186.164412
 20
34.559150
 42
0.150011
  0
VERTEX
  8
0
 10
183.765313
 20
32.600975
 42
-0.028494
  0
VERTEX
  8
0
 10
183.480841
 20
32.223190
 42
-0.097872
  0
VERTEX
  8
0
 10
183.241942
 20
32.032640
 42
-0.307803
  0
VERTEX
  8
0
 10
183.090989
 20
32.050694
 42
-0.211330
  0
VERTEX
  8
0
 10
183.015313
 20
32.212267
 42
0.523136
  0
VERTEX
  8
0
 10
182.759304
 20
32.381953
 42
0.002868
  0
VERTEX
  8
0
 10
179.552936
 20
31.084993
 42
0.008094
  0
VERTEX
  8
0
 10
175.757557
 20
29.452071
 42
0.004697
  0
VERTEX
  8
0
 10
171.250000
 20
27.374534
 42
-0.000126
  0
VERTEX
  8
0
 10
166.257391
 20
25.017858
 42
-0.000106
  0
VERTEX
  8
0
 10
160.971907
 20
22.525931
 42
-0.000107
  0
VERTEX
  8
0
 10
156.148834
 20
20.254524
 42
-0.000298
  0
VERTEX
  8
0
 10
152.760748
 20
18.662267
 42
0.012354
  0
VERTEX
  8
0
 10
150.199236
 20
17.382181
 42
0.019850
  0
VERTEX
  8
0
 10
148.090124
 20
16.152526
 42
0.014703
  0
VERTEX
  8
0
 10
146.490094
 20
15.065057
 42
0.324712
  0
VERTEX
  8
0
 10
146.324383
 20
14.559097
 42
0.278387
  0
VERTEX
  8
0
 10
146.729824
 20
14.206116
 42
0.019646
  0
VERTEX
  8
0
 10
148.282103
 20
13.996815
 42
0.023247
  0
VERTEX
  8
0
 10
150.266724
 20
13.900976
 42
0.015083
  0
VERTEX
  8
0
 10
152.563634
 20
13.966215
 42
-0.014899
  0
VERTEX
  8
0
 10
169.721744
 20
14.459847
 42
-0.003835
  0
VERTEX
  8
0
 10
197.439464
 20
14.218559
 42
-0.003708
  0
VERTEX
  8
0
 10
225.032915
 20
13.561956
 42
-0.017044
  0
VERTEX
  8
0
 10
241.000000
 20
12.517953
 42
0.003464
  0
VERTEX
  8
0
 10
242.889782
 20
12.342747
 42
0.000873
  0
VERTEX
  8
0
 10
245.968750
 20
12.084206
 42
0.000891
  0
VERTEX
  8
0
 10
249.489063
 20
11.801107
 42
0.000899
  0
VERTEX
  8
0
 10
253.000000
 20
11.531406
 42
-0.001997
  0
VERTEX
  8
0
 10
256.437582
 20
11.259741
 42
-0.002253
  0
VERTEX
  8
0
 10
259.737500
 20
10.970709
 42
-0.002058
  0
VERTEX
  8
0
 10
262.541926
 20
10.700691
 42
-0.012280
  0
VERTEX
  8
0
 10
264.000000
 20
10.517976
 42
0.009207
  0
VERTEX
  8
0
 10
265.416708
 20
10.331594
 42
0.001809
  0
VERTEX
  8
0
 10
267.968750
 20
10.052893
 42
0.001918
  0
VERTEX
  8
0
 10
270.945294
 20
9.750270
 42
0.001779
  0
VERTEX
  8
0
 10
274.000000
 20
9.462504
 42
-0.001694
  0
VERTEX
  8
0
 10
276.981759
 20
9.182117
 42
-0.002141
  0
VERTEX
  8
0
 10
279.737500
 20
8.901643
 42
-0.001694
  0
VERTEX
  8
0
 10
282.046819
 20
8.648696
 42
-0.017264
  0
VERTEX
  8
0
 10
283.000000
 20
8.507551
 42
0.014940
  0
VERTEX
  8
0
 10
283.933475
 20
8.364890
 42
0.001688
  0
VERTEX
  8
0
 10
286.058541
 20
8.112101
 42
0.002045
  0
VERTEX
  8
0
 10
288.589889
 20
7.830131
 42
0.001660
  0
VERTEX
  8
0
 10
291.305672
 20
7.547972
 42
-0.002031
  0
VERTEX
  8
0
 10
294.035587
 20
7.262298
 42
-0.002414
  0
VERTEX
  8
0
 10
296.609887
 20
6.969750
 42
-0.002093
  0
VERTEX
  8
0
 10
298.778942
 20
6.703430
 42
-0.015549
  0
VERTEX
  8
0
 10
299.805672
 20
6.540420
 42
0.016976
  0
VERTEX
  8
0
 10
300.854772
 20
6.376925
 42
0.001993
  0
VERTEX
  8
0
 10
303.205416
 20
6.101435
 42
0.002387
  0
VERTEX
  8
0
 10
306.004150
 20
5.798256
 42
0.001952
  0
VERTEX
  8
0
 10
309.000000
 20
5.500000
 42
-0.001952
  0
VERTEX
  8
0
 10
311.995850
 20
5.201744
 42
-0.002387
  0
VERTEX
  8
0
 10
314.794584
 20
4.898565
 42
-0.001993
  0
VERTEX
  8
0
 10
317.145228
 20
4.623075
 42
-0.016976
  0
VERTEX
  8
0
 10
318.194328
 20
4.459580
 42
0.016557
  0
VERTEX
  8
0
 10
319.221156
 20
4.298676
 42
0.002230
  0
VERTEX
  8
0
 10
321.390113
 20
4.041846
 42
0.002572
  0
VERTEX
  8
0
 10
323.964413
 20
3.762063
 42
0.002164
  0
VERTEX
  8
0
 10
326.694328
 20
3.491504
 42
-0.001700
  0
VERTEX
  8
0
 10
329.452187
 20
3.220760
 42
-0.001893
  0
VERTEX
  8
0
 10
332.110895
 20
2.940447
 42
-0.001746
  0
VERTEX
  8
0
 10
334.375822
 20
2.684970
 42
-0.009941
  0
VERTEX
  8
0
 10
335.576804
 20
2.520992
 42
0.018984
  0
VERTEX
  8
0
 10
340.161553
 20
1.979259
 42
0.003073
  0
VERTEX
  8
0
 10
349.117409
 20
1.319783
 42
0.003555
  0
VERTEX
  8
0
 10
358.241849
 20
0.769393
 42
0.010713
  0
VERTEX
  8
0
 10
364.472293
 20
0.571738
 42
0.000000
  0
VERTEX
  8
0
 10
371.444586
 20
0.500000
 42
0.000000
  0
VERTEX
  8
0
 10
371.206512
 20
5.000000
 42
0.006125
  0
VERTEX
  8
0
 10
370.627695
 20
13.877866
 42
0.002610
  0
VERTEX
  8
0
 10
369.645427
 20
25.746280
 42
0.002623
  0
VERTEX
  8
0
 10
368.528482
 20
37.716658
 42
0.005514
  0
VERTEX
  8
0
 10
367.509638
 20
47.000000
 42
-0.001549
  0
VERTEX
  8
0
 10
367.278743
 20
48.960359
 42
-0.000321
  0
VERTEX
  8
0
 10
366.885587
 20
52.409375
 42
-0.000337
  0
VERTEX
  8
0
 10
366.434343
 20
56.414832
 42
-0.000318
  0
VERTEX
  8
0
 10
365.979540
 20
60.500000
 42
0.000728
  0
VERTEX
  8
0
 10
365.529554
 20
64.512002
 42
0.000866
  0
VERTEX
  8
0
 10
365.092824
 20
68.296875
 42
0.000749
  0
VERTEX
  8
0
 10
364.714111
 20
71.488421
 42
0.005601
  0
VERTEX
  8
0
 10
364.515249
 20
73.000000
 42
-0.005181
  0
VERTEX
  8
0
 10
364.333718
 20
74.370940
 42
-0.001208
  0
VERTEX
  8
0
 10
364.058536
 20
76.675000
 42
-0.001246
  0
VERTEX
  8
0
 10
363.754866
 20
79.328125
 42
-0.001222
  0
VERTEX
  8
0
 10
363.462403
 20
82.000000
 42
0.001756
  0
VERTEX
  8
0
 10
363.174289
 20
84.606375
 42
0.002094
  0
VERTEX
  8
0
 10
362.883656
 20
87.062232
 42
0.001808
  0
VERTEX
  8
0
 10
362.622432
 20
89.131108
 42
0.013615
  0
VERTEX
  8
0
 10
362.468744
 20
90.105472
 42
-0.017886
  0
VERTEX
  8
0
 10
362.317258
 20
91.122211
 42
-0.001800
  0
VERTEX
  8
0
 10
362.051807
 20
93.558354
 42
-0.002257
  0
VERTEX
  8
0
 10
361.758943
 20
96.464938
 42
-0.001794
  0
VERTEX
  8
0
 10
361.468192
 20
99.605472
 42
0.001727
  0
VERTEX
  8
0
 10
361.178220
 20
102.742211
 42
0.002191
  0
VERTEX
  8
0
 10
360.887706
 20
105.637187
 42
0.001720
  0
VERTEX
  8
0
 10
360.625129
 20
108.062652
 42
0.017959
  0
VERTEX
  8
0
 10
360.478290
 20
109.053037
 42
-0.021273
  0
VERTEX
  8
0
 10
360.334503
 20
110.069195
 42
-0.001687
  0
VERTEX
  8
0
 10
360.077331
 20
112.778039
 42
-0.002286
  0
VERTEX
  8
0
 10
359.796121
 20
116.013078
 42
-0.001750
  0
VERTEX
  8
0
 10
359.517174
 20
119.553037
 42
0.001967
  0
VERTEX
  8
0
 10
359.232238
 20
123.149012
 42
0.002310
  0
VERTEX
  8
0
 10
358.933027
 20
126.554887
 42
0.002030
  0
VERTEX
  8
0
 10
358.655242
 20
129.430332
 42
0.014280
  0
VERTEX
  8
0
 10
358.474391
 20
130.825301
 42
-0.035256
  0
VERTEX
  8
0
 10
356.908617
 20
148.776698
 42
-0.004130
  0
VERTEX
  8
0
 10
356.576360
 20
189.000000
 42
-0.004130
  0
VERTEX
  8
0
 10
356.908617
 20
229.223302
 42
-0.035256
  0
VERTEX
  8
0
 10
358.474391
 20
247.174699
 42
0.014280
  0
VERTEX
  8
0
 10
358.655242
 20
248.569668
 42
0.002030
  0
VERTEX
  8
0
 10
358.933027
 20
251.445113
 42
0.002310
  0
VERTEX
  8
0
 10
359.232238
 20
254.850988
 42
0.001967
  0
VERTEX
  8
0
 10
359.517174
 20
258.446963
 42
-0.001759
  0
VERTEX
  8
0
 10
359.796190
 20
261.986922
 42
-0.002299
  0
VERTEX
  8
0
 10
360.077609
 20
265.221961
 42
-0.001696
  0
VERTEX
  8
0
 10
360.335076
 20
267.930780
 42
-0.021388
  0
VERTEX
  8
0
 10
360.479239
 20
268.946963
 42
0.015844
  0
VERTEX
  8
0
 10
360.627103
 20
269.912185
 42
0.001809
  0
VERTEX
  8
0
 10
360.883604
 20
272.100045
 42
0.002184
  0
VERTEX
  8
0
 10
361.168032
 20
274.705931
 42
0.001777
  0
VERTEX
  8
0
 10
361.450618
 20
277.500000
 42
-0.000953
  0
VERTEX
  8
0
 10
361.739087
 20
280.399999
 42
-0.000927
  0
VERTEX
  8
0
 10
362.041153
 20
283.325000
 42
-0.000914
  0
VERTEX
  8
0
 10
362.316074
 20
285.894520
 42
-0.003461
  0
VERTEX
  8
0
 10
362.502071
 20
287.500000
 42
0.000344
  0
VERTEX
  8
0
 10
363.132806
 20
292.662662
 42
0.000566
  0
VERTEX
  8
0
 10
363.658512
 20
297.031657
 42
0.000651
  0
VERTEX
  8
0
 10
364.113625
 20
300.893164
 42
0.000799
  0
VERTEX
  8
0
 10
364.528117
 20
304.500000
 42
-0.000866
  0
VERTEX
  8
0
 10
364.773657
 20
306.634143
 42
-0.000711
  0
VERTEX
  8
0
 10
365.043076
 20
308.912500
 42
-0.000718
  0
VERTEX
  8
0
 10
365.296624
 20
311.005322
 42
-0.001906
  0
VERTEX
  8
0
 10
365.485669
 20
312.500000
 42
0.003037
  0
VERTEX
  8
0
 10
365.678441
 20
314.052341
 42
0.000950
  0
VERTEX
  8
0
 10
365.948810
 20
316.381250
 42
0.000949
  0
VERTEX
  8
0
 10
366.240823
 20
318.982848
 42
0.001050
  0
VERTEX
  8
0
 10
366.513171
 20
321.500000
 42
-0.001704
  0
VERTEX
  8
0
 10
366.782296
 20
323.957293
 42
-0.001776
  0
VERTEX
  8
0
 10
367.064611
 20
326.379162
 42
-0.001706
  0
VERTEX
  8
0
 10
367.323261
 20
328.471252
 42
-0.007788
  0
VERTEX
  8
0
 10
367.496687
 20
329.684383
 42
0.012454
  0
VERTEX
  8
0
 10
367.668695
 20
330.973337
 42
0.001952
  0
VERTEX
  8
0
 10
367.934433
 20
333.522941
 42
0.002169
  0
VERTEX
  8
0
 10
368.223000
 20
336.531940
 42
0.001891
  0
VERTEX
  8
0
 10
368.499506
 20
339.684383
 42
-0.001930
  0
VERTEX
  8
0
 10
368.776680
 20
342.841622
 42
-0.002192
  0
VERTEX
  8
0
 10
369.067246
 20
345.865100
 42
-0.001990
  0
VERTEX
  8
0
 10
369.335544
 20
348.431247
 42
-0.012209
  0
VERTEX
  8
0
 10
369.511405
 20
349.750000
 42
0.151162
  0
VERTEX
  8
0
 10
369.288965
 20
351.294205
 42
0.335806
  0
VERTEX
  8
0
 10
368.294563
 20
351.811562
 42
0.046413
  0
VERTEX
  8
0
 10
365.643413
 20
351.103526
 42
0.001653
  0
VERTEX
  8
0
 10
355.750000
 20
347.412998
 42
0.000840
  0
VERTEX
  8
0
 10
349.723375
 20
345.130593
 42
0.001538
  0
VERTEX
  8
0
 10
344.817811
 20
343.246031
 42
0.001206
  0
VERTEX
  8
0
 10
339.198075
 20
341.051637
 42
0.000333
  0
VERTEX
  8
0
 10
330.376938
 20
337.575821
 42
-0.002674
  0
VERTEX
  8
0
 10
324.878881
 20
335.439095
 42
-0.004009
  0
VERTEX
  8
0
 10
320.054152
 20
333.637898
 42
-0.001704
  0
VERTEX
  8
0
 10
315.915975
 20
332.146652
 42
-0.085827
  0
VERTEX
  8
0
 10
315.067921
 20
332.000000
 42
0.113597
  0
VERTEX
  8
0
 10
314.672708
 20
331.909036
 42
0.184536
  0
VERTEX
  8
0
 10
314.439939
 20
331.660863
 42
0.157519
  0
VERTEX
  8
0
 10
314.411476
 20
331.286807
 42
0.079429
  0
VERTEX
  8
0
 10
314.595492
 20
330.845492
 42
-0.029568
  0
VERTEX
  8
0
 10
314.835184
 20
330.400896
 42
-0.280463
  0
VERTEX
  8
0
 10
314.812123
 20
330.194998
 42
-0.342772
  0
VERTEX
  8
0
 10
314.632212
 20
330.148688
 42
-0.036284
  0
VERTEX
  8
0
 10
314.222063
 20
330.362757
 42
0.187778
  0
VERTEX
  8
0
 10
313.501888
 20
330.495550
 42
0.019229
  0
VERTEX
  8
0
 10
311.782381
 20
330.097751
 42
0.021892
  0
VERTEX
  8
0
 10
309.702582
 20
329.432508
 42
0.015760
  0
VERTEX
  8
0
 10
307.443124
 20
328.517266
 42
-0.008562
  0
VERTEX
  8
0
 10
305.158581
 20
327.553357
 42
-0.010650
  0
VERTEX
  8
0
 10
303.001750
 20
326.739447
 42
-0.009073
  0
VERTEX
  8
0
 10
301.174561
 20
326.131102
 42
-0.075958
  0
VERTEX
  8
0
 10
300.316553
 20
326.000000
 42
0.079950
  0
VERTEX
  8
0
 10
299.800498
 20
325.916952
 42
0.175105
  0
VERTEX
  8
0
 10
299.490110
 20
325.673152
 42
0.187604
  0
VERTEX
  8
0
 10
299.419557
 20
325.301061
 42
0.092781
  0
VERTEX
  8
0
 10
299.595492
 20
324.845492
 42
-0.030033
  0
VERTEX
  8
0
 10
299.830652
 20
324.408330
 42
-0.263577
  0
VERTEX
  8
0
 10
299.813318
 20
324.197306
 42
-0.354796
  0
VERTEX
  8
0
 10
299.640888
 20
324.145563
 42
-0.040828
  0
VERTEX
  8
0
 10
299.253759
 20
324.343168
 42
0.194203
  0
VERTEX
  8
0
 10
298.521862
 20
324.468761
 42
0.014151
  0
VERTEX
  8
0
 10
296.496515
 20
323.968854
 42
0.018118
  0
VERTEX
  8
0
 10
294.049949
 20
323.194527
 42
0.012650
  0
VERTEX
  8
0
 10
291.349250
 20
322.153073
 42
-0.008753
  0
VERTEX
  8
0
 10
267.881869
 20
312.892800
 42
-0.004485
  0
VERTEX
  8
0
 10
238.152046
 20
302.061855
 42
-0.004482
  0
VERTEX
  8
0
 10
207.858140
 20
291.636856
 42
-0.007782
  0
VERTEX
  8
0
 10
182.500000
 20
283.600307
 42
-0.003445
  0
VERTEX
  8
0
 10
168.604901
 20
279.537605
 42
-0.002017
  0
VERTEX
  8
0
 10
151.912716
 20
274.854412
 42
-0.001075
  0
VERTEX
  8
0
 10
135.785721
 20
270.437191
 42
-0.023422
  0
VERTEX
  8
0
 10
131.000000
 20
269.375247
 42
0.008013
  0
VERTEX
  8
0
 10
129.946053
 20
269.175228
 42
0.006930
  0
VERTEX
  8
0
 10
128.846572
 20
268.932319
 42
0.006990
  0
VERTEX
  8
0
 10
127.856240
 20
268.684420
 42
0.020127
  0
VERTEX
  8
0
 10
127.179818
 20
268.475543
 42
-0.027155
  0
VERTEX
  8
0
 10
125.050637
 20
267.850679
 42
-0.000445
  0
VERTEX
  8
0
 10
112.970486
 20
265.018696
 42
-0.001203
  0
VERTEX
  8
0
 10
101.604646
 20
262.393654
 42
-0.005538
  0
VERTEX
  8
0
 10
95.000000
 20
260.961759
 42
0.001565
  0
VERTEX
  8
0
 10
92.788581
 20
260.500686
 42
0.000628
  0
VERTEX
  8
0
 10
89.765625
 20
259.856564
 42
0.000621
  0
VERTEX
  8
0
 10
86.509599
 20
259.154276
 42
0.000784
  0
VERTEX
  8
0
 10
83.500000
 20
258.496280
 42
-0.002810
  0
VERTEX
  8
0
 10
80.563315
 20
257.866681
 42
-0.002563
  0
VERTEX
  8
0
 10
77.528125
 20
257.250000
 42
-0.002562
  0
VERTEX
  8
0
 10
74.810041
 20
256.726698
 42
-0.008317
  0
VERTEX
  8
0
 10
73.000000
 20
256.418897
 42
0.005587
  0
VERTEX
  8
0
 10
71.537517
 20
256.178406
 42
0.005121
  0
VERTEX
  8
0
 10
70.037529
 20
255.898634
 42
0.005123
  0
VERTEX
  8
0
 10
68.703983
 20
255.621523
 42
0.016704
  0
VERTEX
  8
0
 10
67.829885
 20
255.399692
 42
-0.012983
  0
VERTEX
  8
0
 10
66.324352
 20
255.005669
 42
-0.009317
  0
VERTEX
  8
0
 10
64.623941
 20
254.640789
 42
-0.005698
  0
VERTEX
  8
0
 10
62.240108
 20
254.203682
 42
-0.001346
  0
VERTEX
  8
0
 10
58.250000
 20
253.530002
 42
0.000000
  0
VERTEX
  8
0
 10
54.000000
 20
252.824204
 42
0.000000
  0
VERTEX
  8
0
 10
54.000000
 20
256.787102
 42
0.012648
  0
VERTEX
  8
0
 10
53.956029
 20
258.525126
 42
0.008934
  0
VERTEX
  8
0
 10
53.822423
 20
260.473784
 42
0.009024
  0
VERTEX
  8
0
 10
53.627662
 20
262.333030
 42
0.018746
  0
VERTEX
  8
0
 10
53.395482
 20
263.772589
 42
-0.027002
  0
VERTEX
  8
0
 10
53.143322
 20
265.518889
 42
-0.163933
  0
VERTEX
  8
0
 10
53.353590
 20
266.394948
 42
-0.174309
  0
VERTEX
  8
0
 10
54.043047
 20
266.935709
 42
-0.031405
  0
VERTEX
  8
0
 10
55.645482
 20
267.357142
 42
0.014507
  0
VERTEX
  8
0
 10
113.655879
 20
280.536341
 42
0.015534
  0
VERTEX
  8
0
 10
169.481711
 20
296.799433
 42
0.014621
  0
VERTEX
  8
0
 10
227.075751
 20
317.417755
 42
0.010350
  0
VERTEX
  8
0
 10
290.500000
 20
343.764598
 42
-0.002602
  0
VERTEX
  8
0
 10
318.018452
 20
355.699207
 42
-0.003500
  0
VERTEX
  8
0
 10
343.069248
 20
366.202323
 42
-0.001130
  0
VERTEX
  8
0
 10
365.354938
 20
375.304439
 42
-0.096673
  0
VERTEX
  8
0
 10
368.918826
 20
376.000000
 42
0.096918
  0
VERTEX
  8
0
 10
369.338515
 20
376.082122
 42
0.052592
  0
VERTEX
  8
0
 10
369.803729
 20
376.331188
 42
0.049617
  0
VERTEX
  8
0
 10
370.240790
 20
376.696184
 42
0.055628
  0
VERTEX
  8
0
 10
370.578768
 20
377.127449
 42
0.587834
  0
VERTEX
  8
0
 10
370.205433
 20
377.796017
 42
0.005326
  0
VERTEX
  8
0
 10
363.109926
 20
377.710977
 42
0.011146
  0
VERTEX
  8
0
 10
354.740282
 20
377.334689
 42
0.008231
  0
VERTEX
  8
0
 10
345.500000
 20
376.559648
 42
-0.002045
  0
VERTEX
  8
0
 10
343.822876
 20
376.398061
 42
-0.000428
  0
VERTEX
  8
0
 10
340.884375
 20
376.129608
 42
-0.000449
  0
VERTEX
  8
0
 10
337.474227
 20
375.824099
 42
-0.000425
  0
VERTEX
  8
0
 10
334.000000
 20
375.518970
 42
0.001624
  0
VERTEX
  8
0
 10
330.635119
 20
375.215312
 42
0.002114
  0
VERTEX
  8
0
 10
327.556250
 20
374.914245
 42
0.001573
  0
VERTEX
  8
0
 10
324.978107
 20
374.642936
 42
0.019349
  0
VERTEX
  8
0
 10
324.000000
 20
374.498421
 42
-0.017052
  0
VERTEX
  8
0
 10
323.046782
 20
374.353108
 42
-0.001674
  0
VERTEX
  8
0
 10
320.737500
 20
374.089098
 42
-0.002115
  0
VERTEX
  8
0
 10
317.981759
 20
373.795183
 42
-0.001674
  0
VERTEX
  8
0
 10
315.000000
 20
373.500000
 42
0.001952
  0
VERTEX
  8
0
 10
312.004150
 20
373.201744
 42
0.002387
  0
VERTEX
  8
0
 10
309.205416
 20
372.898565
 42
0.001993
  0
VERTEX
  8
0
 10
306.854772
 20
372.623075
 42
0.016976
  0
VERTEX
  8
0
 10
305.805672
 20
372.459580
 42
-0.015549
  0
VERTEX
  8
0
 10
304.778942
 20
372.296570
 42
-0.002093
  0
VERTEX
  8
0
 10
302.609887
 20
372.030250
 42
-0.002414
  0
VERTEX
  8
0
 10
300.035587
 20
371.737702
 42
-0.002031
  0
VERTEX
  8
0
 10
297.305672
 20
371.452028
 42
0.001825
  0
VERTEX
  8
0
 10
294.582225
 20
371.168163
 42
0.002205
  0
VERTEX
  8
0
 10
292.027559
 20
370.881052
 42
0.001872
  0
VERTEX
  8
0
 10
289.878986
 20
370.621820
 42
0.015024
  0
VERTEX
  8
0
 10
288.894528
 20
370.469141
 42
-0.017931
  0
VERTEX
  8
0
 10
287.877780
 20
370.317498
 42
-0.001805
  0
VERTEX
  8
0
 10
285.441646
 20
370.051924
 42
-0.002263
  0
VERTEX
  8
0
 10
282.535062
 20
369.758972
 42
-0.001799
  0
VERTEX
  8
0
 10
279.394528
 20
369.468192
 42
0.001612
  0
VERTEX
  8
0
 10
276.261623
 20
369.179301
 42
0.002062
  0
VERTEX
  8
0
 10
273.378393
 20
368.892050
 42
0.001592
  0
VERTEX
  8
0
 10
270.963350
 20
368.633602
 42
0.017529
  0
VERTEX
  8
0
 10
270.000000
 20
368.493079
 42
-0.018279
  0
VERTEX
  8
0
 10
269.022110
 20
368.351931
 42
-0.001483
  0
VERTEX
  8
0
 10
266.443750
 20
368.083258
 42
-0.001995
  0
VERTEX
  8
0
 10
263.364882
 20
367.784067
 42
-0.001532
  0
VERTEX
  8
0
 10
260.000000
 20
367.481030
 42
0.000394
  0
VERTEX
  8
0
 10
256.525773
 20
367.176114
 42
0.000417
  0
VERTEX
  8
0
 10
253.115625
 20
366.871244
 42
0.000398
  0
VERTEX
  8
0
 10
250.177111
 20
366.603713
 42
0.001899
  0
VERTEX
  8
0
 10
248.500000
 20
366.443253
 42
-0.018496
  0
VERTEX
  8
0
 10
222.904611
 20
364.849276
 42
-0.006407
  0
VERTEX
  8
0
 10
185.891040
 20
364.390505
 42
-0.006422
  0
VERTEX
  8
0
 10
148.830103
 20
364.882042
 42
-0.018148
  0
VERTEX
  8
0
 10
123.000000
 20
366.495880
 42
0.000941
  0
VERTEX
  8
0
 10
121.189101
 20
366.671740
 42
0.000294
  0
VERTEX
  8
0
 10
118.471875
 20
366.928844
 42
0.000294
  0
VERTEX
  8
0
 10
115.436678
 20
367.212437
 42
0.000324
  0
VERTEX
  8
0
 10
112.500000
 20
367.483166
 42
-0.000357
  0
VERTEX
  8
0
 10
109.600001
 20
367.750703
 42
-0.000348
  0
VERTEX
  8
0
 10
106.675000
 20
368.024703
 42
-0.000342
  0
VERTEX
  8
0
 10
104.105305
 20
368.268997
 42
-0.001300
  0
VERTEX
  8
0
 10
102.500000
 20
368.426931
 42
0.000252
  0
VERTEX
  8
0
 10
100.894761
 20
368.588255
 42
0.000066
  0
VERTEX
  8
0
 10
98.325000
 20
368.844860
 42
0.000067
  0
VERTEX
  8
0
 10
95.399999
 20
369.136147
 42
0.000069
  0
VERTEX
  8
0
 10
92.500000
 20
369.424146
 42
-0.001474
  0
VERTEX
  8
0
 10
89.636714
 20
369.716628
 42
-0.001549
  0
VERTEX
  8
0
 10
86.821875
 20
370.021369
 42
-0.001482
  0
VERTEX
  8
0
 10
84.394353
 20
370.299075
 42
-0.006937
  0
VERTEX
  8
0
 10
83.000000
 20
370.482421
 42
0.005856
  0
VERTEX
  8
0
 10
80.480206
 20
370.819297
 42
0.000974
  0
VERTEX
  8
0
 10
75.625692
 20
371.400924
 42
0.001149
  0
VERTEX
  8
0
 10
70.415472
 20
372.002739
 42
0.001884
  0
VERTEX
  8
0
 10
66.000000
 20
372.485635
 42
-0.001435
  0
VERTEX
  8
0
 10
64.629592
 20
372.634264
 42
-0.000332
  0
VERTEX
  8
0
 10
62.325000
 20
372.892457
 42
-0.000343
  0
VERTEX
  8
0
 10
59.671875
 20
373.193328
 42
-0.000336
  0
VERTEX
  8
0
 10
57.000000
 20
373.500000
 42
0.000842
  0
VERTEX
  8
0
 10
51.377050
 20
374.139629
 42
0.002131
  0
VERTEX
  8
0
 10
47.286620
 20
374.580316
 42
0.002120
  0
VERTEX
  8
0
 10
43.180625
 20
374.987403
 42
0.000825
  0
VERTEX
  8
0
 10
37.500000
 20
375.516834
 42
-0.000413
  0
VERTEX
  8
0
 10
34.563322
 20
375.788086
 42
-0.000374
  0
VERTEX
  8
0
 10
31.528125
 20
376.073251
 42
-0.000374
  0
VERTEX
  8
0
 10
28.810914
 20
376.332637
 42
-0.001197
  0
VERTEX
  8
0
 10
27.000000
 20
376.511251
 42
0.009093
  0
VERTEX
  8
0
 10
18.658901
 20
377.201141
 42
0.008060
  0
VERTEX
  8
0
 10
9.955853
 20
377.621096
 42
0.002232
  0
VERTEX
  8
0
 10
1.637827
 20
377.851011
 42
0.273998
  0
SEQEND
  0
ENDSEC
  0
EOF
