  0
SECTION
  2
HEADER
  9
$ACADVER
  1
AC1006
  9
$EXTMIN
 10
0.000000
 20
0.000000
 30
0.000000
  9
$EXTMAX
 10
512.000000
 20
454.000000
 30
0.000000
  0
ENDSEC
  0
SECTION
  2
ENTITIES
  0
POLYLINE
  8
0
 66
1
 70
1
  0
VERTEX
  8
0
 10
377.879077
 20
452.004453
 42
0.006405
  0
VERTEX
  8
0
 10
376.250128
 20
450.631215
 42
0.015338
  0
VERTEX
  8
0
 10
375.087496
 20
449.561258
 42
0.010354
  0
VERTEX
  8
0
 10
373.754947
 20
448.202079
 42
0.001640
  0
VERTEX
  8
0
 10
371.204545
 20
445.472727
 42
-0.022375
  0
VERTEX
  8
0
 10
370.243480
 20
444.526126
 42
-0.026657
  0
VERTEX
  8
0
 10
369.254025
 20
443.726364
 42
-0.026981
  0
VERTEX
  8
0
 10
368.364289
 20
443.152898
 42
-0.130375
  0
VERTEX
  8
0
 10
367.787879
 20
443.000000
 42
0.054381
  0
VERTEX
  8
0
 10
367.399441
 20
442.957627
 42
0.163687
  0
VERTEX
  8
0
 10
367.174053
 20
442.821970
 42
0.257031
  0
VERTEX
  8
0
 10
367.133659
 20
442.624046
 42
0.121480
  0
VERTEX
  8
0
 10
367.272727
 20
442.393939
 42
-0.296678
  0
VERTEX
  8
0
 10
367.354714
 20
442.006595
 42
-0.043441
  0
VERTEX
  8
0
 10
366.984186
 20
441.249337
 42
-0.037451
  0
VERTEX
  8
0
 10
366.330395
 20
440.327224
 42
-0.023450
  0
VERTEX
  8
0
 10
365.439394
 20
439.348485
 42
0.019351
  0
VERTEX
  8
0
 10
364.505454
 20
438.339314
 42
0.023665
  0
VERTEX
  8
0
 10
363.716572
 20
437.324283
 42
0.023136
  0
VERTEX
  8
0
 10
363.144796
 20
436.426509
 42
0.130949
  0
VERTEX
  8
0
 10
363.000000
 20
435.883117
 42
-0.088463
  0
VERTEX
  8
0
 10
362.913383
 20
435.397384
 42
-0.034304
  0
VERTEX
  8
0
 10
362.632812
 20
434.771660
 42
-0.032633
  0
VERTEX
  8
0
 10
362.228359
 20
434.119818
 42
-0.034696
  0
VERTEX
  8
0
 10
361.750000
 20
433.540163
 42
0.011717
  0
VERTEX
  8
0
 10
360.180286
 20
431.806747
 42
0.009790
  0
VERTEX
  8
0
 10
358.594214
 20
429.896205
 42
0.004383
  0
VERTEX
  8
0
 10
357.166055
 20
428.073128
 42
0.165424
  0
VERTEX
  8
0
 10
357.000000
 20
427.584956
 42
-0.166475
  0
VERTEX
  8
0
 10
356.912102
 20
427.328275
 42
-0.003461
  0
VERTEX
  8
0
 10
356.064700
 20
426.251538
 42
-0.007688
  0
VERTEX
  8
0
 10
355.036235
 20
425.003050
 42
-0.005053
  0
VERTEX
  8
0
 10
353.816001
 20
423.596387
 42
-0.074928
  0
VERTEX
  8
0
 10
350.186341
 20
420.560400
 42
-0.262644
  0
VERTEX
  8
0
 10
347.249551
 20
420.462553
 42
-0.172090
  0
VERTEX
  8
0
 10
344.744935
 20
423.153367
 42
-0.033459
  0
VERTEX
  8
0
 10
342.486748
 20
429.500000
 42
0.017978
  0
VERTEX
  8
0
 10
341.703522
 20
431.937531
 42
0.018245
  0
VERTEX
  8
0
 10
340.750636
 20
434.300317
 42
0.018367
  0
VERTEX
  8
0
 10
339.773759
 20
436.289212
 42
0.068135
  0
VERTEX
  8
0
 10
338.953351
 20
437.415972
 42
0.036181
  0
VERTEX
  8
0
 10
337.746414
 20
438.502753
 42
0.232977
  0
VERTEX
  8
0
 10
336.965613
 20
438.663424
 42
0.132415
  0
VERTEX
  8
0
 10
336.099151
 20
438.169456
 42
0.009500
  0
VERTEX
  8
0
 10
334.155041
 20
436.165972
 42
0.006124
  0
VERTEX
  8
0
 10
333.047845
 20
434.951225
 42
0.011204
  0
VERTEX
  8
0
 10
332.179872
 20
433.930004
 42
0.006860
  0
VERTEX
  8
0
 10
331.530851
 20
433.107977
 42
0.621878
  0
VERTEX
  8
0
 10
331.584092
 20
433.000000
 42
-0.542187
  0
VERTEX
  8
0
 10
331.663402
 20
432.878190
 42
-0.009937
  0
VERTEX
  8
0
 10
331.274981
 20
432.045313
 42
-0.014675
  0
VERTEX
  8
0
 10
330.721647
 20
430.996822
 42
-0.008147
  0
VERTEX
  8
0
 10
329.989040
 20
429.750000
 42
0.026842
  0
VERTEX
  8
0
 10
329.230257
 20
428.340555
 42
0.023449
  0
VERTEX
  8
0
 10
328.588462
 20
426.793750
 42
0.024138
  0
VERTEX
  8
0
 10
328.141434
 20
425.339059
 42
0.062133
  0
VERTEX
  8
0
 10
328.003738
 20
424.250000
 42
-0.042505
  0
VERTEX
  8
0
 10
327.928937
 20
423.388611
 42
-0.062087
  0
VERTEX
  8
0
 10
327.707348
 20
422.660937
 42
-0.081463
  0
VERTEX
  8
0
 10
327.382650
 20
422.167690
 42
-0.209499
  0
VERTEX
  8
0
 10
327.000000
 20
422.000000
 42
0.226478
  0
VERTEX
  8
0
 10
326.617064
 20
421.817169
 42
0.074992
  0
VERTEX
  8
0
 10
326.293750
 20
421.265625
 42
0.057076
  0
VERTEX
  8
0
 10
326.073116
 20
420.457356
 42
0.038131
  0
VERTEX
  8
0
 10
326.000000
 20
419.500000
 42
-0.029839
  0
VERTEX
  8
0
 10
325.942789
 20
418.542200
 42
-0.046466
  0
VERTEX
  8
0
 10
325.768761
 20
417.734375
 42
-0.058827
  0
VERTEX
  8
0
 10
325.515685
 20
417.171555
 42
-0.263536
  0
VERTEX
  8
0
 10
325.212804
 20
417.000000
 42
0.285421
  0
VERTEX
  8
0
 10
324.734519
 20
416.702760
 42
0.053315
  0
VERTEX
  8
0
 10
324.361998
 20
415.689012
 42
0.031860
  0
VERTEX
  8
0
 10
324.047896
 20
413.981553
 42
0.008666
  0
VERTEX
  8
0
 10
323.771361
 20
411.250000
 42
-0.058900
  0
VERTEX
  8
0
 10
323.673855
 20
410.771990
 42
-0.073326
  0
VERTEX
  8
0
 10
323.470628
 20
410.367188
 42
-0.088056
  0
VERTEX
  8
0
 10
323.197328
 20
410.094940
 42
-0.153133
  0
VERTEX
  8
0
 10
322.894606
 20
410.000000
 42
0.303575
  0
VERTEX
  8
0
 10
322.554577
 20
409.772594
 42
0.019856
  0
VERTEX
  8
0
 10
322.125401
 20
408.604688
 42
0.023467
  0
VERTEX
  8
0
 10
321.708203
 20
407.070573
 42
0.014868
  0
VERTEX
  8
0
 10
321.360206
 20
405.250000
 42
-0.001199
  0
VERTEX
  8
0
 10
320.800049
 20
401.812478
 42
-0.008729
  0
VERTEX
  8
0
 10
320.498518
 20
400.168420
 42
-0.018169
  0
VERTEX
  8
0
 10
320.261373
 20
399.178740
 42
-0.048069
  0
VERTEX
  8
0
 10
320.000000
 20
398.500000
 42
0.025132
  0
VERTEX
  8
0
 10
319.892725
 20
398.255456
 42
0.011472
  0
VERTEX
  8
0
 10
319.776310
 20
397.926563
 42
0.011327
  0
VERTEX
  8
0
 10
319.669248
 20
397.573730
 42
0.015305
  0
VERTEX
  8
0
 10
319.589565
 20
397.250000
 42
-0.099291
  0
VERTEX
  8
0
 10
318.277963
 20
394.221258
 42
-0.152538
  0
VERTEX
  8
0
 10
316.040392
 20
392.479462
 42
-0.136745
  0
VERTEX
  8
0
 10
313.012639
 20
392.215673
 42
-0.073552
  0
VERTEX
  8
0
 10
309.442363
 20
393.445524
 42
0.018276
  0
VERTEX
  8
0
 10
307.737624
 20
394.252315
 42
0.152490
  0
VERTEX
  8
0
 10
306.898608
 20
394.338899
 42
0.193019
  0
VERTEX
  8
0
 10
306.261194
 20
393.920227
 42
0.032438
  0
VERTEX
  8
0
 10
305.491009
 20
392.645308
 42
0.044170
  0
VERTEX
  8
0
 10
304.999547
 20
391.450707
 42
0.014233
  0
VERTEX
  8
0
 10
304.481745
 20
389.605255
 42
0.014072
  0
VERTEX
  8
0
 10
304.019827
 20
387.509550
 42
0.015324
  0
VERTEX
  8
0
 10
303.691320
 20
385.449784
 42
-0.003073
  0
VERTEX
  8
0
 10
303.411866
 20
383.371386
 42
-0.002756
  0
VERTEX
  8
0
 10
303.096969
 20
381.219624
 42
-0.002763
  0
VERTEX
  8
0
 10
302.793000
 20
379.291319
 42
-0.008652
  0
VERTEX
  8
0
 10
302.559117
 20
378.000000
 42
0.024646
  0
VERTEX
  8
0
 10
302.332048
 20
376.468549
 42
0.003139
  0
VERTEX
  8
0
 10
302.027088
 20
373.150000
 42
0.003672
  0
VERTEX
  8
0
 10
301.718570
 20
369.203488
 42
0.003048
  0
VERTEX
  8
0
 10
301.446741
 20
365.000000
 42
-0.000979
  0
VERTEX
  8
0
 10
300.836518
 20
354.915911
 42
-0.009571
  0
VERTEX
  8
0
 10
300.488846
 20
350.661526
 42
-0.018573
  0
VERTEX
  8
0
 10
300.158989
 20
348.283353
 42
-0.153805
  0
VERTEX
  8
0
 10
299.661478
 20
347.328145
 42
0.097749
  0
VERTEX
  8
0
 10
299.406883
 20
346.948327
 42
0.034129
  0
VERTEX
  8
0
 10
299.194309
 20
346.322434
 42
0.032347
  0
VERTEX
  8
0
 10
299.048782
 20
345.583709
 42
0.032471
  0
VERTEX
  8
0
 10
299.000000
 20
344.833333
 42
-0.087221
  0
VERTEX
  8
0
 10
298.863092
 20
344.054472
 42
-0.123665
  0
VERTEX
  8
0
 10
298.470999
 20
343.474014
 42
-0.114820
  0
VERTEX
  8
0
 10
297.825882
 20
343.119914
 42
-0.068445
  0
VERTEX
  8
0
 10
296.953995
 20
343.000000
 42
-0.136824
  0
VERTEX
  8
0
 10
295.861348
 20
343.304705
 42
-0.080001
  0
VERTEX
  8
0
 10
294.817715
 20
344.190153
 42
-0.050792
  0
VERTEX
  8
0
 10
293.727194
 20
345.763634
 42
-0.017210
  0
VERTEX
  8
0
 10
292.463764
 20
348.250000
 42
-0.007439
  0
VERTEX
  8
0
 10
291.526980
 20
350.342964
 42
-0.009662
  0
VERTEX
  8
0
 10
290.734660
 20
352.289032
 42
-0.007635
  0
VERTEX
  8
0
 10
290.131129
 20
353.931931
 42
-0.082215
  0
VERTEX
  8
0
 10
290.009769
 20
354.627555
 42
0.093143
  0
VERTEX
  8
0
 10
289.908646
 20
355.141129
 42
0.041861
  0
VERTEX
  8
0
 10
289.599906
 20
355.758321
 42
0.039519
  0
VERTEX
  8
0
 10
289.153816
 20
356.374661
 42
0.043170
  0
VERTEX
  8
0
 10
288.628208
 20
356.893597
 42
0.477509
  0
VERTEX
  8
0
 10
287.401329
 20
356.647114
 42
0.095394
  0
VERTEX
  8
0
 10
286.658612
 20
354.170285
 42
0.026624
  0
VERTEX
  8
0
 10
286.378443
 20
348.324023
 42
0.003747
  0
VERTEX
  8
0
 10
286.533539
 20
336.250000
 42
-0.002132
  0
VERTEX
  8
0
 10
286.693965
 20
326.271298
 42
-0.025780
  0
VERTEX
  8
0
 10
286.541599
 20
322.439012
 42
-0.088331
  0
VERTEX
  8
0
 10
286.046418
 20
320.632175
 42
-0.289477
  0
VERTEX
  8
0
 10
285.045991
 20
320.000000
 42
-0.215748
  0
VERTEX
  8
0
 10
283.581486
 20
320.662778
 42
-0.043393
  0
VERTEX
  8
0
 10
281.843967
 20
323.025414
 42
-0.044977
  0
VERTEX
  8
0
 10
280.450392
 20
325.856102
 42
-0.092155
  0
VERTEX
  8
0
 10
280.000000
 20
328.279005
 42
0.073734
  0
VERTEX
  8
0
 10
279.794226
 20
329.666806
 42
0.011358
  0
VERTEX
  8
0
 10
278.923151
 20
332.320967
 42
0.011476
  0
VERTEX
  8
0
 10
277.665932
 20
335.633058
 42
0.006932
  0
VERTEX
  8
0
 10
276.032841
 20
339.500000
 42
-0.009271
  0
VERTEX
  8
0
 10
275.584318
 20
340.576061
 42
-0.002467
  0
VERTEX
  8
0
 10
274.909752
 20
342.307813
 42
-0.002501
  0
VERTEX
  8
0
 10
274.162207
 20
344.284766
 42
-0.002575
  0
VERTEX
  8
0
 10
273.441808
 20
346.250000
 42
0.015065
  0
VERTEX
  8
0
 10
272.722545
 20
348.070110
 42
0.022686
  0
VERTEX
  8
0
 10
271.977790
 20
349.604688
 42
0.019075
  0
VERTEX
  8
0
 10
271.286684
 20
350.769902
 42
0.254625
  0
VERTEX
  8
0
 10
270.864142
 20
351.000000
 42
-0.153158
  0
VERTEX
  8
0
 10
270.534579
 20
351.103375
 42
-0.098073
  0
VERTEX
  8
0
 10
270.253842
 20
351.394423
 42
-0.080716
  0
VERTEX
  8
0
 10
270.064428
 20
351.829316
 42
-0.062502
  0
VERTEX
  8
0
 10
270.000000
 20
352.342716
 42
0.112579
  0
VERTEX
  8
0
 10
269.476628
 20
354.637725
 42
0.022230
  0
VERTEX
  8
0
 10
267.466495
 20
358.380337
 42
0.023403
  0
VERTEX
  8
0
 10
265.102694
 20
361.955963
 42
0.088664
  0
VERTEX
  8
0
 10
263.172932
 20
363.801171
 42
0.021208
  0
VERTEX
  8
0
 10
262.314278
 20
364.320233
 42
0.052812
  0
VERTEX
  8
0
 10
261.638084
 20
364.602773
 42
0.138997
  0
VERTEX
  8
0
 10
261.261134
 20
364.608065
 42
0.416330
  0
VERTEX
  8
0
 10
261.145912
 20
364.406641
 42
-0.087174
  0
VERTEX
  8
0
 10
261.193420
 20
363.910663
 42
-0.021335
  0
VERTEX
  8
0
 10
261.093948
 20
363.093112
 42
-0.021210
  0
VERTEX
  8
0
 10
260.897163
 20
362.152115
 42
-0.019753
  0
VERTEX
  8
0
 10
260.617474
 20
361.208210
 42
-0.422776
  0
VERTEX
  8
0
 10
257.865486
 20
359.901667
 42
-0.113114
  0
VERTEX
  8
0
 10
253.349158
 20
362.873467
 42
-0.035358
  0
VERTEX
  8
0
 10
245.967327
 20
371.765730
 42
-0.006495
  0
VERTEX
  8
0
 10
233.750000
 20
389.276792
 42
0.005428
  0
VERTEX
  8
0
 10
231.926901
 20
391.901752
 42
0.010343
  0
VERTEX
  8
0
 10
230.395312
 20
393.964934
 42
0.007682
  0
VERTEX
  8
0
 10
229.188305
 20
395.474032
 42
0.703243
  0
VERTEX
  8
0
 10
229.000000
 20
395.406360
 42
-0.651594
  0
VERTEX
  8
0
 10
228.824823
 20
395.329010
 42
-0.029493
  0
VERTEX
  8
0
 10
228.208526
 20
395.961230
 42
-0.020180
  0
VERTEX
  8
0
 10
227.340635
 20
397.049260
 42
-0.009527
  0
VERTEX
  8
0
 10
226.305622
 20
398.517865
 42
0.006338
  0
VERTEX
  8
0
 10
225.178297
 20
400.139316
 42
0.006495
  0
VERTEX
  8
0
 10
224.019191
 20
401.718418
 42
0.006319
  0
VERTEX
  8
0
 10
222.978538
 20
403.062536
 42
0.026986
  0
VERTEX
  8
0
 10
222.305622
 20
403.821429
 42
-0.031643
  0
VERTEX
  8
0
 10
221.805970
 20
404.395597
 42
-0.031776
  0
VERTEX
  8
0
 10
221.383526
 20
405.027455
 42
-0.033485
  0
VERTEX
  8
0
 10
221.088804
 20
405.624046
 42
-0.098290
  0
VERTEX
  8
0
 10
221.000000
 20
406.071429
 42
0.100426
  0
VERTEX
  8
0
 10
220.928101
 20
406.425788
 42
0.098261
  0
VERTEX
  8
0
 10
220.723525
 20
406.727232
 42
0.097612
  0
VERTEX
  8
0
 10
220.418022
 20
406.929157
 42
0.097667
  0
VERTEX
  8
0
 10
220.058808
 20
407.000000
 42
-0.164128
  0
VERTEX
  8
0
 10
219.482635
 20
407.194369
 42
-0.007857
  0
VERTEX
  8
0
 10
217.862214
 20
408.468750
 42
-0.012161
  0
VERTEX
  8
0
 10
215.969100
 20
410.084315
 42
-0.008396
  0
VERTEX
  8
0
 10
213.902715
 20
412.000000
 42
0.016234
  0
VERTEX
  8
0
 10
210.434280
 20
415.115837
 42
0.066027
  0
VERTEX
  8
0
 10
208.047611
 20
416.637447
 42
0.195943
  0
VERTEX
  8
0
 10
206.616847
 20
416.707216
 42
0.285197
  0
VERTEX
  8
0
 10
205.847686
 20
415.750000
 42
-0.000832
  0
VERTEX
  8
0
 10
205.779549
 20
415.198468
 42
-0.000572
  0
VERTEX
  8
0
 10
205.700550
 20
414.573438
 42
-0.000577
  0
VERTEX
  8
0
 10
205.623136
 20
413.972057
 42
-0.001176
  0
VERTEX
  8
0
 10
205.560687
 20
413.500000
 42
-0.080191
  0
VERTEX
  8
0
 10
204.964081
 20
411.528962
 42
-0.098771
  0
VERTEX
  8
0
 10
203.802426
 20
410.003611
 42
-0.100976
  0
VERTEX
  8
0
 10
202.167107
 20
409.063462
 42
-0.087451
  0
VERTEX
  8
0
 10
200.206326
 20
408.775071
 42
-0.095405
  0
VERTEX
  8
0
 10
197.440591
 20
409.389648
 42
-0.026798
  0
VERTEX
  8
0
 10
193.463664
 20
411.372290
 42
-0.021027
  0
VERTEX
  8
0
 10
189.765727
 20
413.680973
 42
-0.247538
  0
VERTEX
  8
0
 10
189.000000
 20
415.132886
 42
0.161490
  0
VERTEX
  8
0
 10
188.890315
 20
415.463635
 42
0.096416
  0
VERTEX
  8
0
 10
188.580695
 20
415.745285
 42
0.077861
  0
VERTEX
  8
0
 10
188.118493
 20
415.935538
 42
0.058836
  0
VERTEX
  8
0
 10
187.572580
 20
416.000000
 42
-0.116049
  0
VERTEX
  8
0
 10
186.898522
 20
416.158584
 42
-0.039326
  0
VERTEX
  8
0
 10
186.029082
 20
416.680629
 42
-0.036611
  0
VERTEX
  8
0
 10
185.125358
 20
417.430378
 42
-0.034650
  0
VERTEX
  8
0
 10
184.322580
 20
418.317035
 42
0.019122
  0
VERTEX
  8
0
 10
183.572088
 20
419.199500
 42
0.025786
  0
VERTEX
  8
0
 10
182.824268
 20
419.933750
 42
0.024664
  0
VERTEX
  8
0
 10
182.164155
 20
420.462514
 42
0.181724
  0
VERTEX
  8
0
 10
181.781312
 20
420.567035
 42
-0.185673
  0
VERTEX
  8
0
 10
181.317449
 20
420.697493
 42
-0.005131
  0
VERTEX
  8
0
 10
179.624873
 20
421.988442
 42
-0.009903
  0
VERTEX
  8
0
 10
177.652596
 20
423.588750
 42
-0.006557
  0
VERTEX
  8
0
 10
175.449461
 20
425.500000
 42
0.007865
  0
VERTEX
  8
0
 10
173.229509
 20
427.415688
 42
0.011386
  0
VERTEX
  8
0
 10
171.204744
 20
429.031250
 42
0.007195
  0
VERTEX
  8
0
 10
169.474708
 20
430.309411
 42
0.156742
  0
VERTEX
  8
0
 10
168.881674
 20
430.500000
 42
-0.090271
  0
VERTEX
  8
0
 10
168.464052
 20
430.576017
 42
-0.049887
  0
VERTEX
  8
0
 10
167.997873
 20
430.806867
 42
-0.047548
  0
VERTEX
  8
0
 10
167.557201
 20
431.145016
 42
-0.055562
  0
VERTEX
  8
0
 10
167.213525
 20
431.544654
 42
0.075373
  0
VERTEX
  8
0
 10
166.716421
 20
432.078575
 42
0.012077
  0
VERTEX
  8
0
 10
165.575728
 20
432.939416
 42
0.013123
  0
VERTEX
  8
0
 10
164.170163
 20
433.892954
 42
0.011175
  0
VERTEX
  8
0
 10
162.640017
 20
434.825820
 42
0.046824
  0
VERTEX
  8
0
 10
159.676289
 20
436.190660
 42
0.197585
  0
VERTEX
  8
0
 10
157.761812
 20
436.090710
 42
0.171915
  0
VERTEX
  8
0
 10
156.305371
 20
434.641797
 42
0.034023
  0
VERTEX
  8
0
 10
154.920829
 20
431.170008
 42
-0.011392
  0
VERTEX
  8
0
 10
154.404963
 20
429.684476
 42
-0.012143
  0
VERTEX
  8
0
 10
153.832104
 20
428.255613
 42
-0.011788
  0
VERTEX
  8
0
 10
153.281687
 20
427.052782
 42
-0.053818
  0
VERTEX
  8
0
 10
152.873624
 20
426.402292
 42
-0.192009
  0
VERTEX
  8
0
 10
150.945311
 20
425.288976
 42
-0.087357
  0
VERTEX
  8
0
 10
147.985309
 20
425.378017
 42
-0.061994
  0
VERTEX
  8
0
 10
144.245441
 20
426.651390
 42
-0.033588
  0
VERTEX
  8
0
 10
140.019847
 20
429.066066
 42
0.003901
  0
VERTEX
  8
0
 10
137.711180
 20
430.573697
 42
0.005925
  0
VERTEX
  8
0
 10
135.679181
 20
431.844407
 42
0.002477
  0
VERTEX
  8
0
 10
133.928790
 20
432.898519
 42
0.135086
  0
VERTEX
  8
0
 10
133.560028
 20
433.000000
 42
-0.159256
  0
VERTEX
  8
0
 10
132.952667
 20
433.198486
 42
-0.007604
  0
VERTEX
  8
0
 10
131.223534
 20
434.504616
 42
-0.012628
  0
VERTEX
  8
0
 10
129.311525
 20
436.074298
 42
-0.011787
  0
VERTEX
  8
0
 10
127.435780
 20
437.774057
 42
0.069949
  0
VERTEX
  8
0
 10
125.490920
 20
439.162861
 42
0.009077
  0
VERTEX
  8
0
 10
120.913082
 20
441.444042
 42
0.007513
  0
VERTEX
  8
0
 10
116.210071
 20
443.595909
 42
0.101705
  0
VERTEX
  8
0
 10
114.372445
 20
443.990231
 42
0.103870
  0
VERTEX
  8
0
 10
113.848725
 20
443.884976
 42
0.040995
  0
VERTEX
  8
0
 10
113.195963
 20
443.539083
 42
0.038326
  0
VERTEX
  8
0
 10
112.529248
 20
443.036614
 42
0.038926
  0
VERTEX
  8
0
 10
111.950776
 20
442.440688
 42
0.103677
  0
VERTEX
  8
0
 10
111.359489
 20
441.321673
 42
0.070486
  0
VERTEX
  8
0
 10
111.159625
 20
439.890488
 42
0.039180
  0
VERTEX
  8
0
 10
111.330079
 20
437.772567
 42
0.008699
  0
VERTEX
  8
0
 10
111.967175
 20
434.190688
 42
0.013904
  0
VERTEX
  8
0
 10
112.601020
 20
431.372465
 42
0.011839
  0
VERTEX
  8
0
 10
113.421936
 20
428.437265
 42
0.012003
  0
VERTEX
  8
0
 10
114.296666
 20
425.801163
 42
0.032753
  0
VERTEX
  8
0
 10
115.079254
 20
424.000000
 42
-0.008255
  0
VERTEX
  8
0
 10
117.077225
 20
419.955705
 42
-0.010170
  0
VERTEX
  8
0
 10
118.800543
 20
416.117405
 42
-0.005362
  0
VERTEX
  8
0
 10
120.190133
 20
412.745897
 42
-0.162849
  0
VERTEX
  8
0
 10
120.241807
 20
411.845912
 42
0.176357
  0
VERTEX
  8
0
 10
120.269676
 20
411.513386
 42
0.042672
  0
VERTEX
  8
0
 10
120.547423
 20
411.026069
 42
0.038589
  0
VERTEX
  8
0
 10
120.983032
 20
410.487899
 42
0.030127
  0
VERTEX
  8
0
 10
121.531971
 20
409.973467
 42
-0.062107
  0
VERTEX
  8
0
 10
122.093877
 20
409.375140
 42
-0.044161
  0
VERTEX
  8
0
 10
122.568766
 20
408.585950
 42
-0.044574
  0
VERTEX
  8
0
 10
122.892490
 20
407.737112
 42
-0.068923
  0
VERTEX
  8
0
 10
123.000000
 20
406.960889
 42
0.049057
  0
VERTEX
  8
0
 10
123.069932
 20
406.249839
 42
0.055349
  0
VERTEX
  8
0
 10
123.277028
 20
405.595803
 42
0.063231
  0
VERTEX
  8
0
 10
123.581770
 20
405.091467
 42
0.141233
  0
VERTEX
  8
0
 10
123.943073
 20
404.833333
 42
-0.187128
  0
VERTEX
  8
0
 10
124.376619
 20
404.460895
 42
-0.019602
  0
VERTEX
  8
0
 10
124.972088
 20
403.234118
 42
-0.022159
  0
VERTEX
  8
0
 10
125.579750
 20
401.659887
 42
-0.015991
  0
VERTEX
  8
0
 10
126.121785
 20
399.857283
 42
-0.012948
  0
VERTEX
  8
0
 10
126.755532
 20
397.201167
 42
-0.069688
  0
VERTEX
  8
0
 10
126.857980
 20
395.722518
 42
-0.114527
  0
VERTEX
  8
0
 10
126.523651
 20
394.634159
 42
-0.064916
  0
VERTEX
  8
0
 10
125.678711
 20
393.535854
 42
-0.013060
  0
VERTEX
  8
0
 10
125.034054
 20
392.924023
 42
-0.026888
  0
VERTEX
  8
0
 10
124.493121
 20
392.487130
 42
-0.039383
  0
VERTEX
  8
0
 10
124.111282
 20
392.254643
 42
-0.559025
  0
VERTEX
  8
0
 10
124.000000
 20
392.323070
 42
0.457604
  0
VERTEX
  8
0
 10
123.841085
 20
392.460348
 42
0.010873
  0
VERTEX
  8
0
 10
122.751563
 20
392.276030
 42
0.016379
  0
VERTEX
  8
0
 10
121.380006
 20
391.966315
 42
0.009442
  0
VERTEX
  8
0
 10
119.750000
 20
391.508650
 42
0.018195
  0
VERTEX
  8
0
 10
117.476658
 20
390.732522
 42
0.092538
  0
VERTEX
  8
0
 10
116.341400
 20
390.036595
 42
0.155910
  0
VERTEX
  8
0
 10
115.835646
 20
389.167412
 42
0.084016
  0
VERTEX
  8
0
 10
115.773072
 20
387.917398
 42
0.045312
  0
VERTEX
  8
0
 10
115.985168
 20
386.913366
 42
0.029752
  0
VERTEX
  8
0
 10
116.399776
 20
385.805925
 42
0.029906
  0
VERTEX
  8
0
 10
116.937281
 20
384.767170
 42
0.049606
  0
VERTEX
  8
0
 10
117.523072
 20
383.974506
 42
-0.025296
  0
VERTEX
  8
0
 10
118.088755
 20
383.282061
 42
-0.027103
  0
VERTEX
  8
0
 10
118.567750
 20
382.551295
 42
-0.028029
  0
VERTEX
  8
0
 10
118.906960
 20
381.883472
 42
-0.102363
  0
VERTEX
  8
0
 10
119.005437
 20
381.421259
 42
0.185692
  0
VERTEX
  8
0
 10
119.441895
 20
380.306247
 42
0.006676
  0
VERTEX
  8
0
 10
122.633898
 20
376.904892
 42
0.007683
  0
VERTEX
  8
0
 10
127.590134
 20
371.918597
 42
0.001662
  0
VERTEX
  8
0
 10
136.317673
 20
363.460317
 42
-0.006951
  0
VERTEX
  8
0
 10
140.658485
 20
359.163448
 42
-0.026604
  0
VERTEX
  8
0
 10
143.176143
 20
356.312447
 42
-0.042815
  0
VERTEX
  8
0
 10
144.544785
 20
354.244340
 42
-0.161427
  0
VERTEX
  8
0
 10
144.817673
 20
352.735669
 42
-0.157177
  0
VERTEX
  8
0
 10
144.205278
 20
351.477409
 42
-0.163289
  0
VERTEX
  8
0
 10
142.982642
 20
350.837281
 42
-0.043391
  0
VERTEX
  8
0
 10
140.377445
 20
350.649714
 42
-0.002786
  0
VERTEX
  8
0
 10
132.750000
 20
350.805527
 42
0.004641
  0
VERTEX
  8
0
 10
128.244500
 20
350.880840
 42
0.007743
  0
VERTEX
  8
0
 10
124.451562
 20
350.850291
 42
0.002395
  0
VERTEX
  8
0
 10
121.222419
 20
350.758786
 42
0.404546
  0
VERTEX
  8
0
 10
121.000000
 20
350.528877
 42
0.185905
  0
VERTEX
  8
0
 10
121.431052
 20
349.409611
 42
0.008571
  0
VERTEX
  8
0
 10
124.270508
 20
346.376109
 42
0.008363
  0
VERTEX
  8
0
 10
127.216570
 20
343.434990
 42
0.194351
  0
VERTEX
  8
0
 10
128.293383
 20
343.000000
 42
-0.123138
  0
VERTEX
  8
0
 10
128.774125
 20
342.879782
 42
-0.032257
  0
VERTEX
  8
0
 10
129.454957
 20
342.458062
 42
-0.030758
  0
VERTEX
  8
0
 10
130.192150
 20
341.861235
 42
-0.027253
  0
VERTEX
  8
0
 10
130.882705
 20
341.155104
 42
0.049301
  0
VERTEX
  8
0
 10
131.776224
 20
340.318487
 42
0.017637
  0
VERTEX
  8
0
 10
133.199919
 20
339.304830
 42
0.017300
  0
VERTEX
  8
0
 10
134.849980
 20
338.295752
 42
0.019590
  0
VERTEX
  8
0
 10
136.500000
 20
337.447003
 42
-0.014048
  0
VERTEX
  8
0
 10
138.104673
 20
336.643939
 42
-0.015216
  0
VERTEX
  8
0
 10
139.618750
 20
335.771933
 42
-0.014849
  0
VERTEX
  8
0
 10
140.866954
 20
334.949398
 42
-0.068337
  0
VERTEX
  8
0
 10
141.500000
 20
334.361053
 42
0.067297
  0
VERTEX
  8
0
 10
142.026993
 20
333.869237
 42
0.035448
  0
VERTEX
  8
0
 10
142.793750
 20
333.403738
 42
0.034506
  0
VERTEX
  8
0
 10
143.660927
 20
333.031185
 42
0.044666
  0
VERTEX
  8
0
 10
144.500000
 20
332.819154
 42
-0.062008
  0
VERTEX
  8
0
 10
145.361256
 20
332.569537
 42
-0.038313
  0
VERTEX
  8
0
 10
146.296344
 20
332.079689
 42
-0.037955
  0
VERTEX
  8
0
 10
147.159871
 20
331.443430
 42
-0.054688
  0
VERTEX
  8
0
 10
147.806704
 20
330.750000
 42
0.033866
  0
VERTEX
  8
0
 10
148.381257
 20
330.080308
 42
0.036785
  0
VERTEX
  8
0
 10
149.026256
 20
329.514063
 42
0.039644
  0
VERTEX
  8
0
 10
149.645675
 20
329.119053
 42
0.122721
  0
VERTEX
  8
0
 10
150.123426
 20
329.000000
 42
-0.119008
  0
VERTEX
  8
0
 10
150.701193
 20
328.860507
 42
-0.014690
  0
VERTEX
  8
0
 10
151.845276
 20
328.230760
 42
-0.016683
  0
VERTEX
  8
0
 10
153.178135
 20
327.384091
 42
-0.013081
  0
VERTEX
  8
0
 10
154.566722
 20
326.381311
 42
-0.061594
  0
VERTEX
  8
0
 10
157.176110
 20
323.827490
 42
-0.157816
  0
VERTEX
  8
0
 10
158.096284
 20
321.383397
 42
-0.231008
  0
VERTEX
  8
0
 10
157.273033
 20
319.473747
 42
-0.128786
  0
VERTEX
  8
0
 10
154.945185
 20
318.339037
 42
0.029562
  0
VERTEX
  8
0
 10
153.580136
 20
317.981014
 42
0.093479
  0
VERTEX
  8
0
 10
152.755034
 20
317.528088
 42
0.162652
  0
VERTEX
  8
0
 10
152.401178
 20
316.963526
 42
0.152108
  0
VERTEX
  8
0
 10
152.445185
 20
316.282250
 42
-0.026760
  0
VERTEX
  8
0
 10
152.657814
 20
315.625030
 42
-0.017121
  0
VERTEX
  8
0
 10
152.837023
 20
314.842593
 42
-0.017203
  0
VERTEX
  8
0
 10
152.960262
 20
314.061641
 42
-0.030537
  0
VERTEX
  8
0
 10
153.000000
 20
313.411599
 42
0.118061
  0
VERTEX
  8
0
 10
153.166171
 20
312.717660
 42
0.034290
  0
VERTEX
  8
0
 10
153.734375
 20
311.766785
 42
0.032398
  0
VERTEX
  8
0
 10
154.543204
 20
310.749942
 42
0.029602
  0
VERTEX
  8
0
 10
155.500000
 20
309.813051
 42
-0.037339
  0
VERTEX
  8
0
 10
156.456626
 20
308.846915
 42
-0.036633
  0
VERTEX
  8
0
 10
157.265625
 20
307.743333
 42
-0.039019
  0
VERTEX
  8
0
 10
157.826081
 20
306.670322
 42
-0.101180
  0
VERTEX
  8
0
 10
158.000000
 20
305.819665
 42
-0.133549
  0
VERTEX
  8
0
 10
157.751383
 20
304.905458
 42
-0.166797
  0
VERTEX
  8
0
 10
157.087780
 20
304.336002
 42
-0.077377
  0
VERTEX
  8
0
 10
155.775137
 20
304.036679
 42
-0.013751
  0
VERTEX
  8
0
 10
153.250000
 20
303.929925
 42
0.000545
  0
VERTEX
  8
0
 10
120.401752
 20
303.409501
 42
0.005332
  0
VERTEX
  8
0
 10
106.529150
 20
303.026577
 42
0.012842
  0
VERTEX
  8
0
 10
98.198064
 20
302.493142
 42
0.023960
  0
VERTEX
  8
0
 10
91.501834
 20
301.566322
 42
0.048292
  0
VERTEX
  8
0
 10
88.805374
 20
300.785236
 42
0.108650
  0
VERTEX
  8
0
 10
87.051344
 20
299.598294
 42
0.279064
  0
VERTEX
  8
0
 10
86.800946
 20
298.452486
 42
0.233023
  0
VERTEX
  8
0
 10
87.697350
 20
297.558958
 42
-0.070228
  0
VERTEX
  8
0
 10
88.522070
 20
297.144023
 42
-0.027484
  0
VERTEX
  8
0
 10
89.529955
 20
296.359659
 42
-0.026548
  0
VERTEX
  8
0
 10
90.542973
 20
295.378624
 42
-0.029857
  0
VERTEX
  8
0
 10
91.404623
 20
294.331764
 42
-0.073414
  0
VERTEX
  8
0
 10
92.454335
 20
292.327187
 42
-0.156099
  0
VERTEX
  8
0
 10
92.499588
 20
290.595763
 42
-0.140951
  0
VERTEX
  8
0
 10
91.516904
 20
289.040913
 42
-0.055769
  0
VERTEX
  8
0
 10
89.433169
 20
287.566831
 42
0.011627
  0
VERTEX
  8
0
 10
88.656412
 20
287.114299
 42
0.012530
  0
VERTEX
  8
0
 10
87.920993
 20
286.636846
 42
0.012122
  0
VERTEX
  8
0
 10
87.311660
 20
286.197099
 42
0.056931
  0
VERTEX
  8
0
 10
87.000000
 20
285.899029
 42
-0.104047
  0
VERTEX
  8
0
 10
86.658340
 20
285.628623
 42
-0.018564
  0
VERTEX
  8
0
 10
85.912500
 20
285.291040
 42
-0.019352
  0
VERTEX
  8
0
 10
84.993788
 20
284.956507
 42
-0.016396
  0
VERTEX
  8
0
 10
84.000000
 20
284.673193
 42
0.002994
  0
VERTEX
  8
0
 10
75.933257
 20
282.605534
 42
0.005825
  0
VERTEX
  8
0
 10
69.523927
 20
280.841668
 42
0.002929
  0
VERTEX
  8
0
 10
64.390182
 20
279.331679
 42
0.123999
  0
VERTEX
  8
0
 10
63.416410
 20
278.749744
 42
-0.080761
  0
VERTEX
  8
0
 10
63.016303
 20
278.461543
 42
-0.037450
  0
VERTEX
  8
0
 10
62.421800
 20
278.218428
 42
-0.035837
  0
VERTEX
  8
0
 10
61.744546
 20
278.051486
 42
-0.041560
  0
VERTEX
  8
0
 10
61.083333
 20
277.993839
 42
0.061145
  0
VERTEX
  8
0
 10
60.282708
 20
277.892399
 42
0.019280
  0
VERTEX
  8
0
 10
59.123714
 20
277.550673
 42
0.018936
  0
VERTEX
  8
0
 10
57.848502
 20
277.066095
 42
0.019932
  0
VERTEX
  8
0
 10
56.635693
 20
276.493839
 42
-0.017327
  0
VERTEX
  8
0
 10
55.440006
 20
275.922032
 42
-0.017705
  0
VERTEX
  8
0
 10
54.216064
 20
275.438815
 42
-0.017765
  0
VERTEX
  8
0
 10
53.126446
 20
275.095676
 42
-0.067492
  0
VERTEX
  8
0
 10
52.420877
 20
275.000000
 42
0.125296
  0
VERTEX
  8
0
 10
51.820998
 20
274.847278
 42
0.052638
  0
VERTEX
  8
0
 10
51.130468
 20
274.371036
 42
0.047613
  0
VERTEX
  8
0
 10
50.462849
 20
273.677974
 42
0.045068
  0
VERTEX
  8
0
 10
49.924456
 20
272.858845
 42
0.076025
  0
VERTEX
  8
0
 10
49.469807
 20
271.572090
 42
0.154379
  0
VERTEX
  8
0
 10
49.595339
 20
270.517347
 42
0.087127
  0
VERTEX
  8
0
 10
50.397732
 20
269.340996
 42
0.014180
  0
VERTEX
  8
0
 10
52.389272
 20
267.409828
 42
-0.026833
  0
VERTEX
  8
0
 10
53.951222
 20
265.816621
 42
-0.043049
  0
VERTEX
  8
0
 10
55.080815
 20
264.286059
 42
-0.051869
  0
VERTEX
  8
0
 10
55.770627
 20
262.843715
 42
-0.085824
  0
VERTEX
  8
0
 10
56.000000
 20
261.517257
 42
-0.203908
  0
VERTEX
  8
0
 10
54.793902
 20
258.682762
 42
-0.069947
  0
VERTEX
  8
0
 10
51.103196
 20
256.011385
 42
-0.033900
  0
VERTEX
  8
0
 10
44.139453
 20
252.909178
 42
-0.006397
  0
VERTEX
  8
0
 10
31.000000
 20
248.283136
 42
0.002545
  0
VERTEX
  8
0
 10
28.015498
 20
247.258151
 42
0.003163
  0
VERTEX
  8
0
 10
25.251204
 20
246.273376
 42
0.002581
  0
VERTEX
  8
0
 10
22.940687
 20
245.420224
 42
0.023861
  0
VERTEX
  8
0
 10
21.961545
 20
244.998620
 42
-0.042137
  0
VERTEX
  8
0
 10
21.092243
 20
244.661370
 42
-0.009830
  0
VERTEX
  8
0
 10
19.581553
 20
244.249455
 42
-0.010069
  0
VERTEX
  8
0
 10
17.818427
 20
243.843321
 42
-0.009724
  0
VERTEX
  8
0
 10
16.019828
 20
243.503350
 42
0.022767
  0
VERTEX
  8
0
 10
14.232943
 20
243.117079
 42
0.023383
  0
VERTEX
  8
0
 10
12.504734
 20
242.572662
 42
0.023926
  0
VERTEX
  8
0
 10
11.057128
 20
241.961001
 42
0.084645
  0
VERTEX
  8
0
 10
10.236855
 20
241.379712
 42
-0.057466
  0
VERTEX
  8
0
 10
9.570828
 20
240.851407
 42
-0.038909
  0
VERTEX
  8
0
 10
8.709737
 20
240.405290
 42
-0.039091
  0
VERTEX
  8
0
 10
7.796926
 20
240.100677
 42
-0.061063
  0
VERTEX
  8
0
 10
6.975624
 20
240.000000
 42
0.067368
  0
VERTEX
  8
0
 10
4.148993
 20
239.617415
 42
0.099397
  0
VERTEX
  8
0
 10
1.920286
 20
238.493125
 42
0.114377
  0
VERTEX
  8
0
 10
0.505529
 20
236.735302
 42
0.112956
  0
VERTEX
  8
0
 10
-0.000000
 20
234.526131
 42
0.043350
  0
VERTEX
  8
0
 10
0.150073
 20
232.798444
 42
0.121913
  0
VERTEX
  8
0
 10
0.636777
 20
231.696529
 42
0.106335
  0
VERTEX
  8
0
 10
1.626719
 20
230.862079
 42
0.028655
  0
VERTEX
  8
0
 10
3.503221
 20
229.998736
 42
-0.042026
  0
VERTEX
  8
0
 10
5.169133
 20
229.177688
 42
-0.060565
  0
VERTEX
  8
0
 10
6.463004
 20
228.167487
 42
-0.062297
  0
VERTEX
  8
0
 10
7.451546
 20
226.900270
 42
-0.047805
  0
VERTEX
  8
0
 10
8.204110
 20
225.312090
 42
0.048411
  0
VERTEX
  8
0
 10
9.080344
 20
223.468688
 42
0.108737
  0
VERTEX
  8
0
 10
10.138527
 20
222.348836
 42
0.120934
  0
VERTEX
  8
0
 10
11.490369
 20
221.845573
 42
0.068177
  0
VERTEX
  8
0
 10
13.250000
 20
221.881579
 42
-0.112625
  0
VERTEX
  8
0
 10
13.535898
 20
221.862193
 42
-0.117903
  0
VERTEX
  8
0
 10
13.779687
 20
221.720422
 42
-0.111235
  0
VERTEX
  8
0
 10
13.942775
 20
221.475677
 42
-0.091814
  0
VERTEX
  8
0
 10
14.000000
 20
221.166667
 42
0.151614
  0
VERTEX
  8
0
 10
14.098635
 20
220.848860
 42
0.098342
  0
VERTEX
  8
0
 10
14.376240
 20
220.578125
 42
0.081247
  0
VERTEX
  8
0
 10
14.791106
 20
220.395500
 42
0.063219
  0
VERTEX
  8
0
 10
15.280818
 20
220.333333
 42
-0.086028
  0
VERTEX
  8
0
 10
15.955008
 20
220.216470
 42
-0.020239
  0
VERTEX
  8
0
 10
17.020015
 20
219.786470
 42
-0.020259
  0
VERTEX
  8
0
 10
18.221155
 20
219.184283
 42
-0.018703
  0
VERTEX
  8
0
 10
19.402893
 20
218.471670
 42
-0.039881
  0
VERTEX
  8
0
 10
21.050901
 20
217.193276
 42
-0.137643
  0
VERTEX
  8
0
 10
21.759548
 20
216.057293
 42
-0.086883
  0
VERTEX
  8
0
 10
21.940500
 20
214.431590
 42
-0.010416
  0
VERTEX
  8
0
 10
21.638680
 20
210.817177
 42
0.010405
  0
VERTEX
  8
0
 10
21.342725
 20
207.273939
 42
0.080794
  0
VERTEX
  8
0
 10
21.505784
 20
205.627462
 42
0.135284
  0
VERTEX
  8
0
 10
22.165028
 20
204.499435
 42
0.048271
  0
VERTEX
  8
0
 10
23.632335
 20
203.321334
 42
0.067839
  0
VERTEX
  8
0
 10
25.346006
 20
202.504985
 42
0.041803
  0
VERTEX
  8
0
 10
27.526603
 20
202.004661
 42
0.028609
  0
VERTEX
  8
0
 10
30.510179
 20
201.751107
 42
0.009710
  0
VERTEX
  8
0
 10
34.865730
 20
201.715582
 42
0.005877
  0
VERTEX
  8
0
 10
40.873568
 20
201.853898
 42
0.015500
  0
VERTEX
  8
0
 10
45.168224
 20
202.136766
 42
0.012553
  0
VERTEX
  8
0
 10
49.916313
 20
202.718312
 42
0.002792
  0
VERTEX
  8
0
 10
58.000000
 20
203.961243
 42
-0.012832
  0
VERTEX
  8
0
 10
71.001806
 20
205.693931
 42
-0.203520
  0
VERTEX
  8
0
 10
75.175834
 20
204.426799
 42
-0.369136
  0
VERTEX
  8
0
 10
75.722408
 20
201.189662
 42
-0.030080
  0
VERTEX
  8
0
 10
70.479855
 20
193.528529
 42
0.017202
  0
VERTEX
  8
0
 10
67.109728
 20
188.865853
 42
0.111522
  0
VERTEX
  8
0
 10
66.069905
 20
186.179619
 42
0.347064
  0
VERTEX
  8
0
 10
66.837882
 20
184.841141
 42
0.127602
  0
VERTEX
  8
0
 10
69.147655
 20
184.543998
 42
0.027004
  0
VERTEX
  8
0
 10
72.147520
 20
185.089523
 42
0.015955
  0
VERTEX
  8
0
 10
75.660670
 20
186.045902
 42
0.014076
  0
VERTEX
  8
0
 10
78.879942
 20
187.133665
 42
0.075121
  0
VERTEX
  8
0
 10
80.500000
 20
188.027048
 42
-0.061558
  0
VERTEX
  8
0
 10
81.130090
 20
188.397038
 42
-0.009844
  0
VERTEX
  8
0
 10
82.454687
 20
188.938904
 42
-0.010765
  0
VERTEX
  8
0
 10
84.049530
 20
189.515817
 42
-0.009252
  0
VERTEX
  8
0
 10
85.750000
 20
190.055013
 42
0.017052
  0
VERTEX
  8
0
 10
87.378478
 20
190.599474
 42
0.025705
  0
VERTEX
  8
0
 10
88.751562
 20
191.193244
 42
0.023374
  0
VERTEX
  8
0
 10
89.779647
 20
191.763314
 42
0.260079
  0
VERTEX
  8
0
 10
90.000000
 20
192.158288
 42
-0.196788
  0
VERTEX
  8
0
 10
90.131851
 20
192.480321
 42
-0.085811
  0
VERTEX
  8
0
 10
90.514062
 20
192.754557
 42
-0.065919
  0
VERTEX
  8
0
 10
91.080184
 20
192.941864
 42
-0.046122
  0
VERTEX
  8
0
 10
91.750000
 20
193.006161
 42
0.054819
  0
VERTEX
  8
0
 10
92.604981
 20
193.103229
 42
0.020830
  0
VERTEX
  8
0
 10
93.765353
 20
193.417174
 42
0.020333
  0
VERTEX
  8
0
 10
95.009075
 20
193.866303
 42
0.023428
  0
VERTEX
  8
0
 10
96.153330
 20
194.396705
 42
-0.016317
  0
VERTEX
  8
0
 10
97.441741
 20
195.016326
 42
-0.007500
  0
VERTEX
  8
0
 10
99.157204
 20
195.742896
 42
-0.007419
  0
VERTEX
  8
0
 10
100.986570
 20
196.454119
 42
-0.010186
  0
VERTEX
  8
0
 10
102.653330
 20
197.035456
 42
0.015309
  0
VERTEX
  8
0
 10
104.169140
 20
197.581628
 42
0.018957
  0
VERTEX
  8
0
 10
105.542320
 20
198.185590
 42
0.017571
  0
VERTEX
  8
0
 10
106.641357
 20
198.768154
 42
0.118164
  0
VERTEX
  8
0
 10
107.086483
 20
199.189354
 42
-0.172516
  0
VERTEX
  8
0
 10
107.561634
 20
199.551582
 42
-0.023045
  0
VERTEX
  8
0
 10
108.797158
 20
199.885029
 42
-0.024444
  0
VERTEX
  8
0
 10
110.353415
 20
200.149998
 42
-0.018308
  0
VERTEX
  8
0
 10
112.086483
 20
200.294442
 42
0.000000
  0
VERTEX
  8
0
 10
116.500000
 20
200.500000
 42
0.000000
  0
VERTEX
  8
0
 10
116.500000
 20
196.824140
 42
0.014670
  0
VERTEX
  8
0
 10
116.566186
 20
194.568845
 42
0.168317
  0
VERTEX
  8
0
 10
116.900605
 20
193.760313
 42
0.234438
  0
VERTEX
  8
0
 10
117.607700
 20
193.474158
 42
0.030429
  0
VERTEX
  8
0
 10
119.269089
 20
193.702958
 42
0.040157
  0
VERTEX
  8
0
 10
120.679920
 20
194.105542
 42
0.011944
  0
VERTEX
  8
0
 10
122.761338
 20
194.942013
 42
0.011898
  0
VERTEX
  8
0
 10
125.063259
 20
195.997178
 42
0.012585
  0
VERTEX
  8
0
 10
127.269089
 20
197.142110
 42
-0.005309
  0
VERTEX
  8
0
 10
129.546209
 20
198.366432
 42
-0.004043
  0
VERTEX
  8
0
 10
132.064982
 20
199.660549
 42
-0.004088
  0
VERTEX
  8
0
 10
134.446048
 20
200.835369
 42
-0.009567
  0
VERTEX
  8
0
 10
136.250000
 20
201.664982
 42
0.015487
  0
VERTEX
  8
0
 10
137.686772
 20
202.346455
 42
0.022839
  0
VERTEX
  8
0
 10
138.898438
 20
203.039447
 42
0.019543
  0
VERTEX
  8
0
 10
139.814180
 20
203.671708
 42
0.236106
  0
VERTEX
  8
0
 10
140.000000
 20
204.043282
 42
-0.229716
  0
VERTEX
  8
0
 10
140.158106
 20
204.369257
 42
-0.041802
  0
VERTEX
  8
0
 10
140.734375
 20
204.750154
 42
-0.037526
  0
VERTEX
  8
0
 10
141.542467
 20
205.116349
 42
-0.026145
  0
VERTEX
  8
0
 10
142.500000
 20
205.410644
 42
0.034719
  0
VERTEX
  8
0
 10
143.457085
 20
205.722843
 42
0.046776
  0
VERTEX
  8
0
 10
144.265625
 20
206.141941
 42
0.055330
  0
VERTEX
  8
0
 10
144.827615
 20
206.598489
 42
0.196992
  0
VERTEX
  8
0
 10
145.000000
 20
207.019052
 42
-0.211500
  0
VERTEX
  8
0
 10
145.166885
 20
207.395930
 42
-0.079586
  0
VERTEX
  8
0
 10
145.660937
 20
207.718378
 42
-0.060834
  0
VERTEX
  8
0
 10
146.388581
 20
207.941782
 42
-0.041646
  0
VERTEX
  8
0
 10
147.250000
 20
208.022236
 42
0.065308
  0
VERTEX
  8
0
 10
148.290732
 20
208.169229
 42
0.030959
  0
VERTEX
  8
0
 10
149.573438
 20
208.612376
 42
0.030036
  0
VERTEX
  8
0
 10
150.877677
 20
209.249802
 42
0.037305
  0
VERTEX
  8
0
 10
152.000000
 20
210.000000
 42
-0.022139
  0
VERTEX
  8
0
 10
153.051790
 20
210.750134
 42
-0.023573
  0
VERTEX
  8
0
 10
154.144515
 20
211.387624
 42
-0.024012
  0
VERTEX
  8
0
 10
155.130481
 20
211.843354
 42
-0.092189
  0
VERTEX
  8
0
 10
155.789838
 20
211.977764
 42
0.070848
  0
VERTEX
  8
0
 10
156.509153
 20
212.092886
 42
0.012914
  0
VERTEX
  8
0
 10
157.790646
 20
212.526087
 42
0.013665
  0
VERTEX
  8
0
 10
159.274808
 20
213.117397
 42
0.012027
  0
VERTEX
  8
0
 10
160.789838
 20
213.813171
 42
-0.037374
  0
VERTEX
  8
0
 10
165.439840
 20
215.669672
 42
-0.314440
  0
VERTEX
  8
0
 10
167.479628
 20
215.029386
 42
-0.335606
  0
VERTEX
  8
0
 10
167.499708
 20
212.969335
 42
-0.039409
  0
VERTEX
  8
0
 10
164.287410
 20
209.281719
 42
-0.006107
  0
VERTEX
  8
0
 10
162.739413
 20
207.801009
 42
-0.007862
  0
VERTEX
  8
0
 10
161.279254
 20
206.480423
 42
-0.006201
  0
VERTEX
  8
0
 10
160.029469
 20
205.412438
 42
-0.065911
  0
VERTEX
  8
0
 10
159.464650
 20
205.055892
 42
0.054894
  0
VERTEX
  8
0
 10
158.013551
 20
204.183824
 42
0.019816
  0
VERTEX
  8
0
 10
156.155613
 20
202.649032
 42
0.011186
  0
VERTEX
  8
0
 10
153.427303
 20
200.094907
 42
0.002197
  0
VERTEX
  8
0
 10
148.649632
 20
195.376080
 42
0.006661
  0
VERTEX
  8
0
 10
142.354857
 20
188.934583
 42
0.014308
  0
VERTEX
  8
0
 10
137.714764
 20
183.769884
 42
0.018405
  0
VERTEX
  8
0
 10
134.321275
 20
179.455839
 42
0.034972
  0
VERTEX
  8
0
 10
131.976659
 20
175.714496
 42
0.000000
  0
VERTEX
  8
0
 10
129.958057
 20
171.928993
 42
0.000000
  0
VERTEX
  8
0
 10
133.729029
 20
172.214496
 42
-0.016540
  0
VERTEX
  8
0
 10
136.042254
 20
172.312845
 42
-0.158477
  0
VERTEX
  8
0
 10
136.971351
 20
172.020421
 42
-0.202729
  0
VERTEX
  8
0
 10
137.432187
 20
171.271296
 42
-0.029665
  0
VERTEX
  8
0
 10
137.600000
 20
169.455274
 42
-0.064069
  0
VERTEX
  8
0
 10
137.453309
 20
167.917932
 42
-0.020615
  0
VERTEX
  8
0
 10
136.853690
 20
165.702449
 42
-0.020182
  0
VERTEX
  8
0
 10
135.976091
 20
163.267309
 42
-0.021301
  0
VERTEX
  8
0
 10
134.918946
 20
160.955274
 42
0.001705
  0
VERTEX
  8
0
 10
133.733554
 20
158.610295
 42
0.001362
  0
VERTEX
  8
0
 10
132.471105
 20
156.074362
 42
0.001376
  0
VERTEX
  8
0
 10
131.315172
 20
153.720172
 42
0.003480
  0
VERTEX
  8
0
 10
130.491182
 20
152.000000
 42
-0.001576
  0
VERTEX
  8
0
 10
129.691788
 20
150.314735
 42
-0.000695
  0
VERTEX
  8
0
 10
128.624834
 20
148.091538
 42
-0.000688
  0
VERTEX
  8
0
 10
127.487238
 20
145.737856
 42
-0.000925
  0
VERTEX
  8
0
 10
126.450059
 20
143.609490
 42
0.014636
  0
VERTEX
  8
0
 10
125.571454
 20
141.673474
 42
0.020852
  0
VERTEX
  8
0
 10
124.915043
 20
139.903092
 42
0.017507
  0
VERTEX
  8
0
 10
124.496372
 20
138.438034
 42
0.201908
  0
VERTEX
  8
0
 10
124.586840
 20
137.859490
 42
-0.085834
  0
VERTEX
  8
0
 10
124.718844
 20
137.531215
 42
-0.164680
  0
VERTEX
  8
0
 10
124.686547
 20
137.252475
 42
-0.179875
  0
VERTEX
  8
0
 10
124.496313
 20
137.066874
 42
-0.104662
  0
VERTEX
  8
0
 10
124.180337
 20
137.000000
 42
0.322448
  0
VERTEX
  8
0
 10
122.653111
 20
135.900813
 42
0.017504
  0
VERTEX
  8
0
 10
120.869181
 20
129.881149
 42
0.020775
  0
VERTEX
  8
0
 10
119.551761
 20
123.747091
 42
0.176803
  0
VERTEX
  8
0
 10
120.047611
 20
121.021796
 42
0.030865
  0
VERTEX
  8
0
 10
120.394324
 20
120.505840
 42
0.131137
  0
VERTEX
  8
0
 10
120.686216
 20
120.280875
 42
0.365509
  0
VERTEX
  8
0
 10
120.879773
 20
120.341812
 42
0.135366
  0
VERTEX
  8
0
 10
120.969591
 20
120.636501
 42
-0.210122
  0
VERTEX
  8
0
 10
121.190230
 20
121.103991
 42
-0.059064
  0
VERTEX
  8
0
 10
121.872771
 20
121.568561
 42
-0.048672
  0
VERTEX
  8
0
 10
122.850087
 20
121.961590
 42
-0.034855
  0
VERTEX
  8
0
 10
124.001545
 20
122.213534
 42
-0.122575
  0
VERTEX
  8
0
 10
127.105301
 20
121.907746
 42
-0.213438
  0
VERTEX
  8
0
 10
128.941851
 20
120.152718
 42
-0.120539
  0
VERTEX
  8
0
 10
129.460599
 20
116.663903
 42
-0.031099
  0
VERTEX
  8
0
 10
128.578550
 20
111.000000
 42
0.001679
  0
VERTEX
  8
0
 10
128.295387
 20
109.692724
 42
0.000498
  0
VERTEX
  8
0
 10
127.871171
 20
107.692188
 42
0.000500
  0
VERTEX
  8
0
 10
127.398991
 20
105.443346
 42
0.000540
  0
VERTEX
  8
0
 10
126.943223
 20
103.250000
 42
-0.012265
  0
VERTEX
  8
0
 10
126.475595
 20
101.237680
 42
-0.019418
  0
VERTEX
  8
0
 10
125.966516
 20
99.542187
 42
-0.014201
  0
VERTEX
  8
0
 10
125.470878
 20
98.221094
 42
-0.304815
  0
VERTEX
  8
0
 10
125.141906
 20
98.000000
 42
0.207300
  0
VERTEX
  8
0
 10
124.852407
 20
97.874584
 42
0.067111
  0
VERTEX
  8
0
 10
124.575444
 20
97.485938
 42
0.053757
  0
VERTEX
  8
0
 10
124.350886
 20
96.919978
 42
0.038272
  0
VERTEX
  8
0
 10
124.219390
 20
96.250000
 42
-0.003837
  0
VERTEX
  8
0
 10
123.812553
 20
93.011555
 42
-0.025688
  0
VERTEX
  8
0
 10
123.515720
 20
91.416675
 42
-0.055156
  0
VERTEX
  8
0
 10
123.180983
 20
90.486905
 42
-0.120517
  0
VERTEX
  8
0
 10
122.698767
 20
89.909319
 42
0.124145
  0
VERTEX
  8
0
 10
122.370829
 20
89.510767
 42
0.029867
  0
VERTEX
  8
0
 10
122.049559
 20
88.710506
 42
0.028849
  0
VERTEX
  8
0
 10
121.781344
 20
87.719683
 42
0.025121
  0
VERTEX
  8
0
 10
121.613833
 20
86.657719
 42
-0.020124
  0
VERTEX
  8
0
 10
121.456367
 20
85.590262
 42
-0.022798
  0
VERTEX
  8
0
 10
121.218107
 20
84.583082
 42
-0.022790
  0
VERTEX
  8
0
 10
120.940327
 20
83.754439
 42
-0.104472
  0
VERTEX
  8
0
 10
120.665067
 20
83.331733
 42
0.096210
  0
VERTEX
  8
0
 10
120.409169
 20
82.952477
 42
0.034527
  0
VERTEX
  8
0
 10
120.195363
 20
82.333754
 42
0.032716
  0
VERTEX
  8
0
 10
120.049053
 20
81.605546
 42
0.033230
  0
VERTEX
  8
0
 10
120.000000
 20
80.868281
 42
-0.048088
  0
VERTEX
  8
0
 10
119.906215
 20
79.895393
 42
-0.011240
  0
VERTEX
  8
0
 10
119.556724
 20
78.292531
 42
-0.011487
  0
VERTEX
  8
0
 10
119.068631
 20
76.458732
 42
-0.011049
  0
VERTEX
  8
0
 10
118.490975
 20
74.625164
 42
0.010000
  0
VERTEX
  8
0
 10
117.884879
 20
72.715316
 42
0.008192
  0
VERTEX
  8
0
 10
117.311734
 20
70.651760
 42
0.008292
  0
VERTEX
  8
0
 10
116.847221
 20
68.736612
 42
0.021545
  0
VERTEX
  8
0
 10
116.595594
 20
67.340217
 42
-0.012393
  0
VERTEX
  8
0
 10
116.355825
 20
65.854319
 42
-0.003580
  0
VERTEX
  8
0
 10
115.912289
 20
63.571814
 42
-0.003598
  0
VERTEX
  8
0
 10
115.375251
 20
61.005445
 42
-0.003830
  0
VERTEX
  8
0
 10
114.811990
 20
58.500000
 42
0.018660
  0
VERTEX
  8
0
 10
114.316907
 20
55.946140
 42
0.016113
  0
VERTEX
  8
0
 10
113.984580
 20
53.234375
 42
0.016410
  0
VERTEX
  8
0
 10
113.843360
 20
50.755238
 42
0.044504
  0
VERTEX
  8
0
 10
113.957370
 20
49.000000
 42
0.000000
  0
VERTEX
  8
0
 10
114.500000
 20
45.500000
 42
0.000000
  0
VERTEX
  8
0
 10
120.991223
 20
45.500000
 42
0.000000
  0
VERTEX
  8
0
 10
127.482446
 20
45.500000
 42
0.000000
  0
VERTEX
  8
0
 10
128.682372
 20
42.000000
 42
-0.064587
  0
VERTEX
  8
0
 10
129.314091
 20
38.904059
 42
-0.020849
  0
VERTEX
  8
0
 10
129.457588
 20
34.215768
 42
-0.020127
  0
VERTEX
  8
0
 10
129.182462
 20
28.861866
 42
-0.019606
  0
VERTEX
  8
0
 10
128.477113
 20
23.500000
 42
0.010839
  0
VERTEX
  8
0
 10
128.253695
 20
22.004818
 42
0.004130
  0
VERTEX
  8
0
 10
128.004818
 20
19.912500
 42
0.004087
  0
VERTEX
  8
0
 10
127.771713
 20
17.634140
 42
0.004997
  0
VERTEX
  8
0
 10
127.592475
 20
15.500000
 42
-0.005581
  0
VERTEX
  8
0
 10
127.396044
 20
13.193470
 42
-0.003049
  0
VERTEX
  8
0
 10
127.106315
 20
10.368913
 42
-0.003037
  0
VERTEX
  8
0
 10
126.776957
 20
7.502202
 42
-0.004829
  0
VERTEX
  8
0
 10
126.456547
 20
5.053745
 42
0.000000
  0
VERTEX
  8
0
 10
125.690270
 20
-0.392510
 42
0.000000
  0
VERTEX
  8
0
 10
129.095135
 20
1.857708
 42
-0.006594
  0
VERTEX
  8
0
 10
130.562180
 20
2.799694
 42
-0.005390
  0
VERTEX
  8
0
 10
132.155112
 20
3.769401
 42
-0.005448
  0
VERTEX
  8
0
 10
133.640128
 20
4.629865
 42
-0.014237
  0
VERTEX
  8
0
 10
134.730778
 20
5.205720
 42
0.047744
  0
VERTEX
  8
0
 10
135.626548
 20
5.758295
 42
0.038445
  0
VERTEX
  8
0
 10
136.473813
 20
6.508932
 42
0.039796
  0
VERTEX
  8
0
 10
137.152772
 20
7.332595
 42
0.075772
  0
VERTEX
  8
0
 10
137.531931
 20
8.100604
 42
-0.075980
  0
VERTEX
  8
0
 10
137.894532
 20
8.834311
 42
-0.049449
  0
VERTEX
  8
0
 10
138.511497
 20
9.552850
 42
-0.048690
  0
VERTEX
  8
0
 10
139.272282
 20
10.149647
 42
-0.065230
  0
VERTEX
  8
0
 10
140.065673
 20
10.520844
 42
0.039796
  0
VERTEX
  8
0
 10
140.784548
 20
10.813724
 42
0.068240
  0
VERTEX
  8
0
 10
141.316895
 20
11.180036
 42
0.102797
  0
VERTEX
  8
0
 10
141.589996
 20
11.557009
 42
0.248869
  0
VERTEX
  8
0
 10
141.568082
 20
11.889842
 42
-0.229446
  0
VERTEX
  8
0
 10
141.528444
 20
12.275229
 42
-0.064159
  0
VERTEX
  8
0
 10
141.814295
 20
12.828703
 42
-0.050845
  0
VERTEX
  8
0
 10
142.341831
 20
13.446844
 42
-0.034562
  0
VERTEX
  8
0
 10
143.053561
 20
14.038604
 42
0.029402
  0
VERTEX
  8
0
 10
143.798557
 20
14.645142
 42
0.034162
  0
VERTEX
  8
0
 10
144.428233
 20
15.307110
 42
0.036490
  0
VERTEX
  8
0
 10
144.871964
 20
15.929769
 42
0.137407
  0
VERTEX
  8
0
 10
145.000000
 20
16.386871
 42
-0.101261
  0
VERTEX
  8
0
 10
145.096040
 20
16.856229
 42
-0.029496
  0
VERTEX
  8
0
 10
145.426990
 20
17.519794
 42
-0.028333
  0
VERTEX
  8
0
 10
145.897255
 20
18.240292
 42
-0.026908
  0
VERTEX
  8
0
 10
146.453582
 20
18.916112
 42
0.002443
  0
VERTEX
  8
0
 10
149.578047
 20
22.354245
 42
0.017123
  0
VERTEX
  8
0
 10
151.034914
 20
24.089144
 42
0.034898
  0
VERTEX
  8
0
 10
151.784628
 20
25.198039
 42
0.131941
  0
VERTEX
  8
0
 10
152.000000
 20
26.000000
 42
-0.076905
  0
VERTEX
  8
0
 10
152.059111
 20
26.382036
 42
-0.089774
  0
VERTEX
  8
0
 10
152.230415
 20
26.706250
 42
-0.100767
  0
VERTEX
  8
0
 10
152.485250
 20
26.922989
 42
-0.126654
  0
VERTEX
  8
0
 10
152.784392
 20
27.000000
 42
0.195403
  0
VERTEX
  8
0
 10
153.187370
 20
27.163738
 42
0.023293
  0
VERTEX
  8
0
 10
153.858937
 20
27.881250
 42
0.025002
  0
VERTEX
  8
0
 10
154.604961
 20
28.850945
 42
0.018053
  0
VERTEX
  8
0
 10
155.340929
 20
30.000000
 42
-0.133080
  0
VERTEX
  8
0
 10
158.066069
 20
32.656412
 42
-0.226243
  0
VERTEX
  8
0
 10
161.178959
 20
32.852870
 42
-0.163357
  0
VERTEX
  8
0
 10
164.069603
 20
30.389202
 42
-0.072223
  0
VERTEX
  8
0
 10
166.033094
 20
25.704998
 42
0.000068
  0
VERTEX
  8
0
 10
166.486992
 20
23.948407
 42
0.000063
  0
VERTEX
  8
0
 10
166.952792
 20
22.147718
 42
0.000063
  0
VERTEX
  8
0
 10
167.367560
 20
20.545980
 42
0.000214
  0
VERTEX
  8
0
 10
167.639033
 20
19.500000
 42
0.019533
  0
VERTEX
  8
0
 10
167.937547
 20
18.512026
 42
0.007207
  0
VERTEX
  8
0
 10
168.432421
 20
17.143154
 42
0.007130
  0
VERTEX
  8
0
 10
169.016180
 20
15.662621
 42
0.008516
  0
VERTEX
  8
0
 10
169.609725
 20
14.285204
 42
0.019686
  0
VERTEX
  8
0
 10
170.520230
 20
12.462458
 42
0.140023
  0
VERTEX
  8
0
 10
171.208249
 20
11.768182
 42
0.193336
  0
VERTEX
  8
0
 10
172.044428
 20
11.659093
 42
0.043852
  0
VERTEX
  8
0
 10
173.419940
 20
12.145476
 42
0.099570
  0
VERTEX
  8
0
 10
174.982967
 20
13.275581
 42
0.037246
  0
VERTEX
  8
0
 10
176.675286
 20
15.403591
 42
0.033585
  0
VERTEX
  8
0
 10
177.986188
 20
17.639703
 42
0.226973
  0
VERTEX
  8
0
 10
178.007059
 20
18.888197
 42
-0.198306
  0
VERTEX
  8
0
 10
177.999723
 20
19.080458
 42
-0.061899
  0
VERTEX
  8
0
 10
178.134941
 20
19.342078
 42
-0.050972
  0
VERTEX
  8
0
 10
178.374880
 20
19.625483
 42
-0.037448
  0
VERTEX
  8
0
 10
178.692190
 20
19.888197
 42
0.105589
  0
VERTEX
  8
0
 10
179.124627
 20
20.358277
 42
0.011647
  0
VERTEX
  8
0
 10
179.842812
 20
21.642158
 42
0.013796
  0
VERTEX
  8
0
 10
180.628793
 20
23.232009
 42
0.010750
  0
VERTEX
  8
0
 10
181.397315
 20
25.000000
 42
0.002498
  0
VERTEX
  8
0
 10
184.211462
 20
31.973705
 42
0.009017
  0
VERTEX
  8
0
 10
185.901541
 20
36.456697
 42
0.006064
  0
VERTEX
  8
0
 10
186.994107
 20
39.642702
 42
0.270222
  0
VERTEX
  8
0
 10
186.853553
 20
40.303412
 42
-0.268392
  0
VERTEX
  8
0
 10
186.799272
 20
40.554367
 42
-0.037828
  0
VERTEX
  8
0
 10
187.007012
 20
41.064056
 42
-0.034745
  0
VERTEX
  8
0
 10
187.372261
 20
41.684435
 42
-0.022793
  0
VERTEX
  8
0
 10
187.872445
 20
42.346305
 42
0.021535
  0
VERTEX
  8
0
 10
188.355009
 20
42.981534
 42
0.046925
  0
VERTEX
  8
0
 10
188.654949
 20
43.514227
 42
0.093368
  0
VERTEX
  8
0
 10
188.738079
 20
43.864781
 42
0.427942
  0
VERTEX
  8
0
 10
188.609025
 20
44.000000
 42
-0.528167
  0
VERTEX
  8
0
 10
188.192011
 20
44.610930
 42
-0.016666
  0
VERTEX
  8
0
 10
189.601361
 20
47.887228
 42
-0.021474
  0
VERTEX
  8
0
 10
191.317312
 20
51.163186
 42
-0.100209
  0
VERTEX
  8
0
 10
192.723716
 20
52.750000
 42
-0.072239
  0
VERTEX
  8
0
 10
194.504549
 20
53.726623
 42
-0.157993
  0
VERTEX
  8
0
 10
196.041614
 20
53.794291
 42
-0.111195
  0
VERTEX
  8
0
 10
197.684286
 20
52.916251
 42
-0.026716
  0
VERTEX
  8
0
 10
199.925188
 20
50.761588
 42
0.012581
  0
VERTEX
  8
0
 10
201.691288
 20
48.964692
 42
0.098281
  0
VERTEX
  8
0
 10
202.672314
 20
48.331797
 42
0.211465
  0
VERTEX
  8
0
 10
203.469933
 20
48.363538
 42
0.090720
  0
VERTEX
  8
0
 10
204.344872
 20
49.011588
 42
0.106376
  0
VERTEX
  8
0
 10
205.751812
 20
51.356658
 42
0.023821
  0
VERTEX
  8
0
 10
207.051555
 20
55.863076
 42
0.023915
  0
VERTEX
  8
0
 10
208.065563
 20
61.271211
 42
0.022255
  0
VERTEX
  8
0
 10
208.589085
 20
66.883024
 42
-0.004177
  0
VERTEX
  8
0
 10
208.747435
 20
69.664398
 42
-0.003062
  0
VERTEX
  8
0
 10
208.967770
 20
72.747271
 42
-0.003094
  0
VERTEX
  8
0
 10
209.212335
 20
75.663718
 42
-0.006859
  0
VERTEX
  8
0
 10
209.443007
 20
77.883024
 42
0.005108
  0
VERTEX
  8
0
 10
209.664294
 20
79.941908
 42
0.003346
  0
VERTEX
  8
0
 10
209.879176
 20
82.318763
 42
0.003365
  0
VERTEX
  8
0
 10
210.057442
 20
84.637262
 42
0.006451
  0
VERTEX
  8
0
 10
210.163930
 20
86.500000
 42
-0.015955
  0
VERTEX
  8
0
 10
210.286302
 20
88.104720
 42
-0.018560
  0
VERTEX
  8
0
 10
210.507593
 20
89.618750
 42
-0.017839
  0
VERTEX
  8
0
 10
210.785627
 20
90.874327
 42
-0.096900
  0
VERTEX
  8
0
 10
211.085393
 20
91.500000
 42
0.035769
  0
VERTEX
  8
0
 10
211.376729
 20
91.956044
 42
0.025954
  0
VERTEX
  8
0
 10
211.636199
 20
92.500000
 42
0.026397
  0
VERTEX
  8
0
 10
211.829239
 20
93.045013
 42
0.050741
  0
VERTEX
  8
0
 10
211.914963
 20
93.500000
 42
-0.099538
  0
VERTEX
  8
0
 10
212.023819
 20
93.873972
 42
-0.099494
  0
VERTEX
  8
0
 10
212.268770
 20
94.176875
 42
-0.099425
  0
VERTEX
  8
0
 10
212.611887
 20
94.361767
 42
-0.099254
  0
VERTEX
  8
0
 10
213.000000
 20
94.400000
 42
-0.001839
  0
VERTEX
  8
0
 10
213.472086
 20
94.351037
 42
-0.000899
  0
VERTEX
  8
0
 10
214.073666
 20
94.285313
 42
-0.000892
  0
VERTEX
  8
0
 10
214.698941
 20
94.214733
 42
-0.001293
  0
VERTEX
  8
0
 10
215.250778
 20
94.150000
 42
-0.219923
  0
VERTEX
  8
0
 10
215.915934
 20
93.740073
 42
-0.009585
  0
VERTEX
  8
0
 10
217.418220
 20
91.377433
 42
-0.014767
  0
VERTEX
  8
0
 10
219.107142
 20
88.411616
 42
-0.009841
  0
VERTEX
  8
0
 10
220.872891
 20
84.922112
 42
0.008641
  0
VERTEX
  8
0
 10
222.847550
 20
80.996388
 42
0.025404
  0
VERTEX
  8
0
 10
224.386800
 20
78.393998
 42
0.034735
  0
VERTEX
  8
0
 10
225.570152
 20
76.851407
 42
0.432370
  0
VERTEX
  8
0
 10
226.231049
 20
76.831049
 42
0.183697
  0
VERTEX
  8
0
 10
227.055765
 20
78.667669
 42
0.007447
  0
VERTEX
  8
0
 10
227.380211
 20
86.067150
 42
0.013344
  0
VERTEX
  8
0
 10
227.396521
 20
93.353421
 42
0.047036
  0
VERTEX
  8
0
 10
226.843536
 20
98.000000
 42
-0.023846
  0
VERTEX
  8
0
 10
226.606715
 20
99.424237
 42
-0.042377
  0
VERTEX
  8
0
 10
226.568234
 20
100.612065
 42
-0.054248
  0
VERTEX
  8
0
 10
226.707935
 20
101.473854
 42
-0.246338
  0
VERTEX
  8
0
 10
227.044274
 20
101.833333
 42
0.116161
  0
VERTEX
  8
0
 10
227.409821
 20
102.066026
 42
0.068300
  0
VERTEX
  8
0
 10
227.719256
 20
102.484896
 42
0.062454
  0
VERTEX
  8
0
 10
227.928706
 20
103.016814
 42
0.062675
  0
VERTEX
  8
0
 10
228.000000
 20
103.583333
 42
-0.431056
  0
VERTEX
  8
0
 10
229.211553
 20
104.727539
 42
-0.170027
  0
VERTEX
  8
0
 10
231.582501
 20
103.741864
 42
-0.062840
  0
VERTEX
  8
0
 10
234.871445
 20
99.949719
 42
-0.044515
  0
VERTEX
  8
0
 10
237.575282
 20
95.000000
 42
0.010844
  0
VERTEX
  8
0
 10
237.984489
 20
94.114028
 42
0.001560
  0
VERTEX
  8
0
 10
238.865280
 20
92.325000
 42
0.001770
  0
VERTEX
  8
0
 10
239.921245
 20
90.215734
 42
0.001512
  0
VERTEX
  8
0
 10
241.048765
 20
88.000000
 42
-0.000097
  0
VERTEX
  8
0
 10
242.322935
 20
85.513510
 42
-0.000059
  0
VERTEX
  8
0
 10
243.828376
 20
82.573437
 42
-0.000059
  0
VERTEX
  8
0
 10
245.320799
 20
79.657085
 42
-0.000105
  0
VERTEX
  8
0
 10
246.551612
 20
77.250000
 42
0.012455
  0
VERTEX
  8
0
 10
247.643734
 20
75.238320
 42
0.018588
  0
VERTEX
  8
0
 10
248.705822
 20
73.542187
 42
0.013928
  0
VERTEX
  8
0
 10
249.651097
 20
72.230559
 42
0.233739
  0
VERTEX
  8
0
 10
250.117350
 20
72.000000
 42
-0.143294
  0
VERTEX
  8
0
 10
250.453941
 20
71.901515
 42
-0.099573
  0
VERTEX
  8
0
 10
250.740722
 20
71.624658
 42
-0.084113
  0
VERTEX
  8
0
 10
250.933947
 20
71.210661
 42
-0.067313
  0
VERTEX
  8
0
 10
251.000000
 20
70.722241
 42
0.169530
  0
VERTEX
  8
0
 10
251.489210
 20
69.320867
 42
0.052176
  0
VERTEX
  8
0
 10
253.080131
 20
67.699733
 42
0.052426
  0
VERTEX
  8
0
 10
254.893669
 20
66.496495
 42
0.264579
  0
VERTEX
  8
0
 10
256.062982
 20
66.538925
 42
0.087635
  0
VERTEX
  8
0
 10
256.392801
 20
66.833136
 42
0.094514
  0
VERTEX
  8
0
 10
256.591333
 20
67.215315
 42
0.100102
  0
VERTEX
  8
0
 10
256.628782
 20
67.625255
 42
0.111745
  0
VERTEX
  8
0
 10
256.500000
 20
68.000000
 42
-0.125033
  0
VERTEX
  8
0
 10
256.380365
 20
68.380274
 42
-0.100781
  0
VERTEX
  8
0
 10
256.442402
 20
68.805534
 42
-0.090311
  0
VERTEX
  8
0
 10
256.677740
 20
69.211017
 42
-0.077961
  0
VERTEX
  8
0
 10
257.051862
 20
69.532052
 42
0.103007
  0
VERTEX
  8
0
 10
257.427561
 20
69.888325
 42
0.081633
  0
VERTEX
  8
0
 10
257.668339
 20
70.394851
 42
0.078515
  0
VERTEX
  8
0
 10
257.740229
 20
70.971048
 42
0.083650
  0
VERTEX
  8
0
 10
257.627615
 20
71.528038
 42
-0.106777
  0
VERTEX
  8
0
 10
257.535901
 20
72.120192
 42
-0.069872
  0
VERTEX
  8
0
 10
257.672709
 20
72.799950
 42
-0.065492
  0
VERTEX
  8
0
 10
258.007302
 20
73.460407
 42
-0.069701
  0
VERTEX
  8
0
 10
258.495519
 20
73.996281
 42
-0.202892
  0
VERTEX
  8
0
 10
260.167668
 20
74.499599
 42
-0.102228
  0
VERTEX
  8
0
 10
262.302556
 20
73.811681
 42
-0.058311
  0
VERTEX
  8
0
 10
265.018221
 20
71.823492
 42
-0.019451
  0
VERTEX
  8
0
 10
268.500000
 20
68.328128
 42
-0.001893
  0
VERTEX
  8
0
 10
272.397966
 20
64.065718
 42
-0.017949
  0
VERTEX
  8
0
 10
273.993152
 20
62.176025
 42
-0.044044
  0
VERTEX
  8
0
 10
274.762265
 20
60.994814
 42
-0.122896
  0
VERTEX
  8
0
 10
275.000000
 20
60.042206
 42
0.070234
  0
VERTEX
  8
0
 10
275.056251
 20
59.643732
 42
0.085788
  0
VERTEX
  8
0
 10
275.220312
 20
59.305509
 42
0.099842
  0
VERTEX
  8
0
 10
275.463988
 20
59.078963
 42
0.137624
  0
VERTEX
  8
0
 10
275.750000
 20
58.997824
 42
-0.209588
  0
VERTEX
  8
0
 10
276.170932
 20
58.811814
 42
-0.011089
  0
VERTEX
  8
0
 10
277.160938
 20
57.681509
 42
-0.015899
  0
VERTEX
  8
0
 10
278.296082
 20
56.234946
 42
-0.010768
  0
VERTEX
  8
0
 10
279.500000
 20
54.519808
 42
0.010573
  0
VERTEX
  8
0
 10
280.703910
 20
52.803261
 42
0.015550
  0
VERTEX
  8
0
 10
281.839062
 20
51.352288
 42
0.010802
  0
VERTEX
  8
0
 10
282.829329
 20
50.215401
 42
0.203572
  0
VERTEX
  8
0
 10
283.250000
 20
50.021984
 42
-0.187896
  0
VERTEX
  8
0
 10
283.536534
 20
49.900581
 42
-0.085386
  0
VERTEX
  8
0
 10
283.779688
 20
49.565833
 42
-0.066671
  0
VERTEX
  8
0
 10
283.944693
 20
49.075655
 42
-0.047928
  0
VERTEX
  8
0
 10
284.000000
 20
48.500000
 42
0.064853
  0
VERTEX
  8
0
 10
284.074694
 20
47.926543
 42
0.082425
  0
VERTEX
  8
0
 10
284.293750
 20
47.440625
 42
0.098894
  0
VERTEX
  8
0
 10
284.618646
 20
47.115568
 42
0.148195
  0
VERTEX
  8
0
 10
285.000000
 20
47.000000
 42
-0.148195
  0
VERTEX
  8
0
 10
285.381354
 20
46.884432
 42
-0.098894
  0
VERTEX
  8
0
 10
285.706250
 20
46.559375
 42
-0.082425
  0
VERTEX
  8
0
 10
285.925306
 20
46.073457
 42
-0.064853
  0
VERTEX
  8
0
 10
286.000000
 20
45.500000
 42
0.081367
  0
VERTEX
  8
0
 10
286.094438
 20
44.923523
 42
0.088960
  0
VERTEX
  8
0
 10
286.367188
 20
44.426865
 42
0.096614
  0
VERTEX
  8
0
 10
286.773106
 20
44.085999
 42
0.117644
  0
VERTEX
  8
0
 10
287.250000
 20
43.953158
 42
-0.176693
  0
VERTEX
  8
0
 10
287.920097
 20
43.679877
 42
-0.018238
  0
VERTEX
  8
0
 10
289.160937
 20
42.468267
 42
-0.020928
  0
VERTEX
  8
0
 10
290.568274
 20
40.860420
 42
-0.015241
  0
VERTEX
  8
0
 10
292.000000
 20
38.963988
 42
0.015570
  0
VERTEX
  8
0
 10
293.431729
 20
37.070148
 42
0.021503
  0
VERTEX
  8
0
 10
294.839063
 20
35.470288
 42
0.018842
  0
VERTEX
  8
0
 10
296.079437
 20
34.270776
 42
0.182566
  0
VERTEX
  8
0
 10
296.750000
 20
34.010830
 42
-0.057984
  0
VERTEX
  8
0
 10
297.228429
 20
33.950955
 42
-0.076331
  0
VERTEX
  8
0
 10
297.634216
 20
33.782869
 42
-0.094384
  0
VERTEX
  8
0
 10
297.907176
 20
33.536973
 42
-0.162131
  0
VERTEX
  8
0
 10
298.004778
 20
33.250000
 42
0.182915
  0
VERTEX
  8
0
 10
298.507783
 20
31.946183
 42
0.009977
  0
VERTEX
  8
0
 10
301.557174
 20
28.672790
 42
0.015449
  0
VERTEX
  8
0
 10
304.736568
 20
25.590060
 42
0.061997
  0
VERTEX
  8
0
 10
306.944098
 20
24.029918
 42
0.084590
  0
VERTEX
  8
0
 10
308.770756
 20
23.419267
 42
0.219302
  0
VERTEX
  8
0
 10
310.074311
 20
23.791186
 42
0.149239
  0
VERTEX
  8
0
 10
310.969511
 20
25.203907
 42
0.035673
  0
VERTEX
  8
0
 10
311.520367
 20
27.960931
 42
-0.026144
  0
VERTEX
  8
0
 10
311.762981
 20
29.308236
 42
-0.023776
  0
VERTEX
  8
0
 10
312.150761
 20
30.667089
 42
-0.024507
  0
VERTEX
  8
0
 10
312.615186
 20
31.848574
 42
-0.067399
  0
VERTEX
  8
0
 10
313.088420
 20
32.606539
 42
-0.164243
  0
VERTEX
  8
0
 10
314.833688
 20
33.682567
 42
-0.072133
  0
VERTEX
  8
0
 10
317.573062
 20
33.910175
 42
-0.066508
  0
VERTEX
  8
0
 10
320.544132
 20
33.326633
 42
-0.084460
  0
VERTEX
  8
0
 10
323.000000
 20
32.000000
 42
0.016837
  0
VERTEX
  8
0
 10
324.030469
 20
31.248465
 42
0.019598
  0
VERTEX
  8
0
 10
325.059375
 20
30.607301
 42
0.018971
  0
VERTEX
  8
0
 10
325.962448
 20
30.136990
 42
0.101020
  0
VERTEX
  8
0
 10
326.500000
 20
30.004959
 42
-0.129670
  0
VERTEX
  8
0
 10
327.027445
 20
29.843307
 42
-0.022343
  0
VERTEX
  8
0
 10
327.898019
 20
29.247754
 42
-0.023016
  0
VERTEX
  8
0
 10
328.880020
 20
28.436163
 42
-0.018779
  0
VERTEX
  8
0
 10
329.854960
 20
27.482723
 42
0.016049
  0
VERTEX
  8
0
 10
330.816592
 20
26.531977
 42
0.020921
  0
VERTEX
  8
0
 10
331.758472
 20
25.729300
 42
0.019073
  0
VERTEX
  8
0
 10
332.580040
 20
25.135557
 42
0.147979
  0
VERTEX
  8
0
 10
333.028037
 20
25.000000
 42
-0.146561
  0
VERTEX
  8
0
 10
333.493777
 20
24.860485
 42
-0.015010
  0
VERTEX
  8
0
 10
334.445669
 20
24.192188
 42
-0.017714
  0
VERTEX
  8
0
 10
335.550474
 20
23.303228
 42
-0.013246
  0
VERTEX
  8
0
 10
336.705172
 20
22.250000
 42
0.013851
  0
VERTEX
  8
0
 10
339.758260
 20
19.471955
 42
0.015019
  0
VERTEX
  8
0
 10
342.881026
 20
16.943956
 42
0.014971
  0
VERTEX
  8
0
 10
346.159211
 20
14.600889
 42
0.013580
  0
VERTEX
  8
0
 10
349.678505
 20
12.377492
 42
0.014350
  0
VERTEX
  8
0
 10
352.056536
 20
11.054806
 42
0.072814
  0
VERTEX
  8
0
 10
353.485557
 20
10.559688
 42
0.118288
  0
VERTEX
  8
0
 10
354.647901
 20
10.614734
 42
0.068970
  0
VERTEX
  8
0
 10
355.928505
 20
11.187424
 42
0.045706
  0
VERTEX
  8
0
 10
356.727185
 20
11.794075
 42
0.043646
  0
VERTEX
  8
0
 10
357.415978
 20
12.544480
 42
0.046845
  0
VERTEX
  8
0
 10
357.903538
 20
13.319125
 42
0.103614
  0
VERTEX
  8
0
 10
358.083333
 20
13.990547
 42
-0.023010
  0
VERTEX
  8
0
 10
358.533381
 20
18.424070
 42
-0.058880
  0
VERTEX
  8
0
 10
359.376616
 20
21.533722
 42
-0.089420
  0
VERTEX
  8
0
 10
360.631370
 20
23.531588
 42
-0.147491
  0
VERTEX
  8
0
 10
362.329190
 20
24.546485
 42
-0.130354
  0
VERTEX
  8
0
 10
364.678577
 20
24.515140
 42
-0.023148
  0
VERTEX
  8
0
 10
368.892496
 20
23.123955
 42
-0.020241
  0
VERTEX
  8
0
 10
372.960366
 20
21.376989
 42
-0.200945
  0
VERTEX
  8
0
 10
374.170550
 20
20.019449
 42
0.184923
  0
VERTEX
  8
0
 10
374.510587
 20
19.613424
 42
0.032058
  0
VERTEX
  8
0
 10
375.431349
 20
19.175654
 42
0.031109
  0
VERTEX
  8
0
 10
376.635663
 20
18.779871
 42
0.023404
  0
VERTEX
  8
0
 10
378.000000
 20
18.491180
 42
-0.018007
  0
VERTEX
  8
0
 10
379.722238
 20
18.146128
 42
-0.006928
  0
VERTEX
  8
0
 10
382.087500
 20
17.548227
 42
-0.006849
  0
VERTEX
  8
0
 10
384.637797
 20
16.828252
 42
-0.008383
  0
VERTEX
  8
0
 10
387.000000
 20
16.082983
 42
0.028982
  0
VERTEX
  8
0
 10
391.555378
 20
14.849510
 42
0.199962
  0
VERTEX
  8
0
 10
393.783524
 20
15.273946
 42
0.239517
  0
VERTEX
  8
0
 10
394.812706
 20
17.081202
 42
0.041369
  0
VERTEX
  8
0
 10
394.669779
 20
21.140388
 42
0.015653
  0
VERTEX
  8
0
 10
394.378788
 20
23.076367
 42
0.015397
  0
VERTEX
  8
0
 10
393.965951
 20
25.001130
 42
0.015464
  0
VERTEX
  8
0
 10
393.500537
 20
26.663360
 42
0.055104
  0
VERTEX
  8
0
 10
393.056590
 20
27.673646
 42
-0.026011
  0
VERTEX
  8
0
 10
391.935163
 20
29.869822
 42
-0.015285
  0
VERTEX
  8
0
 10
390.814817
 20
32.598965
 42
-0.010385
  0
VERTEX
  8
0
 10
389.892805
 20
35.220457
 42
-0.133154
  0
VERTEX
  8
0
 10
389.838518
 20
36.250000
 42
0.118798
  0
VERTEX
  8
0
 10
389.831540
 20
36.535739
 42
0.126199
  0
VERTEX
  8
0
 10
389.694453
 20
36.779688
 42
0.115086
  0
VERTEX
  8
0
 10
389.444479
 20
36.942959
 42
0.087579
  0
VERTEX
  8
0
 10
389.121320
 20
37.000000
 42
-0.208074
  0
VERTEX
  8
0
 10
388.705340
 20
37.180943
 42
-0.033695
  0
VERTEX
  8
0
 10
388.135727
 20
37.881250
 42
-0.032352
  0
VERTEX
  8
0
 10
387.540069
 20
38.851056
 42
-0.023358
  0
VERTEX
  8
0
 10
387.000000
 20
40.000000
 42
0.023358
  0
VERTEX
  8
0
 10
386.459931
 20
41.148944
 42
0.032352
  0
VERTEX
  8
0
 10
385.864273
 20
42.118750
 42
0.033695
  0
VERTEX
  8
0
 10
385.294660
 20
42.819057
 42
0.208074
  0
VERTEX
  8
0
 10
384.878680
 20
43.000000
 42
-0.151038
  0
VERTEX
  8
0
 10
384.543581
 20
43.103588
 42
-0.098440
  0
VERTEX
  8
0
 10
384.258112
 20
43.395097
 42
-0.081446
  0
VERTEX
  8
0
 10
384.065563
 20
43.830765
 42
-0.063490
  0
VERTEX
  8
0
 10
384.000000
 20
44.345012
 42
0.105367
  0
VERTEX
  8
0
 10
383.863329
 20
44.986360
 42
0.036283
  0
VERTEX
  8
0
 10
383.412500
 20
45.826608
 42
0.034148
  0
VERTEX
  8
0
 10
382.765355
 20
46.708140
 42
0.033439
  0
VERTEX
  8
0
 10
382.000000
 20
47.500000
 42
-0.042469
  0
VERTEX
  8
0
 10
381.234702
 20
48.320924
 42
-0.038058
  0
VERTEX
  8
0
 10
380.587500
 20
49.288839
 42
-0.040101
  0
VERTEX
  8
0
 10
380.141872
 20
50.252512
 42
-0.088475
  0
VERTEX
  8
0
 10
380.000000
 20
51.047999
 42
0.078767
  0
VERTEX
  8
0
 10
379.887859
 20
51.755439
 42
0.065289
  0
VERTEX
  8
0
 10
379.559375
 20
52.444562
 42
0.066687
  0
VERTEX
  8
0
 10
379.073457
 20
53.011751
 42
0.090958
  0
VERTEX
  8
0
 10
378.500000
 20
53.361626
 42
-0.104363
  0
VERTEX
  8
0
 10
377.926359
 20
53.732868
 42
-0.066680
  0
VERTEX
  8
0
 10
377.440625
 20
54.364866
 42
-0.062710
  0
VERTEX
  8
0
 10
377.111994
 20
55.149006
 42
-0.068006
  0
VERTEX
  8
0
 10
377.000000
 20
55.968615
 42
0.040872
  0
VERTEX
  8
0
 10
376.936315
 20
56.746390
 42
0.060297
  0
VERTEX
  8
0
 10
376.744685
 20
57.403281
 42
0.079286
  0
VERTEX
  8
0
 10
376.463341
 20
57.849513
 42
0.215762
  0
VERTEX
  8
0
 10
376.130842
 20
58.000000
 42
-0.338603
  0
VERTEX
  8
0
 10
375.380366
 20
58.574043
 42
-0.020648
  0
VERTEX
  8
0
 10
374.713718
 20
61.506134
 42
-0.026843
  0
VERTEX
  8
0
 10
374.320614
 20
64.546105
 42
-0.110783
  0
VERTEX
  8
0
 10
374.588231
 20
66.369331
 42
-0.129776
  0
VERTEX
  8
0
 10
374.995361
 20
66.934199
 42
-0.030565
  0
VERTEX
  8
0
 10
375.946009
 20
67.623056
 42
-0.029465
  0
VERTEX
  8
0
 10
377.172898
 20
68.304557
 42
-0.025292
  0
VERTEX
  8
0
 10
378.534718
 20
68.876394
 42
0.121559
  0
VERTEX
  8
0
 10
381.311845
 20
70.731439
 42
0.265742
  0
VERTEX
  8
0
 10
381.852735
 20
73.144794
 42
0.104636
  0
VERTEX
  8
0
 10
379.884716
 20
76.683778
 42
0.015149
  0
VERTEX
  8
0
 10
374.250000
 20
82.777017
 42
0.008322
  0
VERTEX
  8
0
 10
370.802063
 20
86.171159
 42
0.005975
  0
VERTEX
  8
0
 10
366.843003
 20
89.851588
 42
0.006036
  0
VERTEX
  8
0
 10
362.989237
 20
93.265287
 42
0.012930
  0
VERTEX
  8
0
 10
359.917668
 20
95.784854
 42
-0.016984
  0
VERTEX
  8
0
 10
354.617143
 20
100.205175
 42
-0.028476
  0
VERTEX
  8
0
 10
350.519557
 20
104.307682
 42
-0.032102
  0
VERTEX
  8
0
 10
347.752888
 20
107.845544
 42
-0.151007
  0
VERTEX
  8
0
 10
347.000000
 20
110.281597
 42
-0.188801
  0
VERTEX
  8
0
 10
347.411266
 20
111.331927
 42
-0.174698
  0
VERTEX
  8
0
 10
348.442049
 20
111.866568
 42
-0.045512
  0
VERTEX
  8
0
 10
350.737708
 20
111.962142
 42
-0.003423
  0
VERTEX
  8
0
 10
356.972097
 20
111.611399
 42
0.003908
  0
VERTEX
  8
0
 10
362.622867
 20
111.298987
 42
0.035209
  0
VERTEX
  8
0
 10
365.098868
 20
111.355883
 42
0.135188
  0
VERTEX
  8
0
 10
366.147538
 20
111.753136
 42
0.338715
  0
VERTEX
  8
0
 10
366.365108
 20
112.490927
 42
0.048367
  0
VERTEX
  8
0
 10
366.076895
 20
113.068192
 42
0.053930
  0
VERTEX
  8
0
 10
365.691864
 20
113.556710
 42
0.061234
  0
VERTEX
  8
0
 10
365.273095
 20
113.890700
 42
0.138610
  0
VERTEX
  8
0
 10
364.886398
 20
114.000000
 42
-0.148568
  0
VERTEX
  8
0
 10
364.410642
 20
114.144555
 42
-0.023236
  0
VERTEX
  8
0
 10
363.612507
 20
114.734375
 42
-0.024119
  0
VERTEX
  8
0
 10
362.711241
 20
115.542746
 42
-0.018940
  0
VERTEX
  8
0
 10
361.813051
 20
116.500000
 42
0.028128
  0
VERTEX
  8
0
 10
360.881618
 20
117.456844
 42
0.031434
  0
VERTEX
  8
0
 10
359.880989
 20
118.265625
 42
0.033102
  0
VERTEX
  8
0
 10
358.952444
 20
118.835863
 42
0.121735
  0
VERTEX
  8
0
 10
358.288280
 20
119.000000
 42
-0.094861
  0
VERTEX
  8
0
 10
357.730776
 20
119.106731
 42
-0.066838
  0
VERTEX
  8
0
 10
357.172894
 20
119.420099
 42
-0.064626
  0
VERTEX
  8
0
 10
356.699219
 20
119.883411
 42
-0.075387
  0
VERTEX
  8
0
 10
356.388440
 20
120.430124
 42
0.109993
  0
VERTEX
  8
0
 10
355.977308
 20
121.050162
 42
0.037919
  0
VERTEX
  8
0
 10
355.143159
 20
121.739144
 42
0.035501
  0
VERTEX
  8
0
 10
354.077650
 20
122.383073
 42
0.034314
  0
VERTEX
  8
0
 10
352.919825
 20
122.878104
 42
-0.031757
  0
VERTEX
  8
0
 10
351.801996
 20
123.349295
 42
-0.041921
  0
VERTEX
  8
0
 10
350.857699
 20
123.923333
 42
-0.047751
  0
VERTEX
  8
0
 10
350.195360
 20
124.510643
 42
-0.189712
  0
VERTEX
  8
0
 10
350.000000
 20
125.006997
 42
0.082237
  0
VERTEX
  8
0
 10
349.936225
 20
125.392128
 42
0.160797
  0
VERTEX
  8
0
 10
349.750737
 20
125.637614
 42
0.182561
  0
VERTEX
  8
0
 10
349.474599
 20
125.706277
 42
0.109470
  0
VERTEX
  8
0
 10
349.151444
 20
125.593597
 42
-0.201287
  0
VERTEX
  8
0
 10
348.686424
 20
125.520313
 42
-0.051113
  0
VERTEX
  8
0
 10
347.951434
 20
125.782867
 42
-0.043906
  0
VERTEX
  8
0
 10
347.103055
 20
126.283356
 42
-0.032332
  0
VERTEX
  8
0
 10
346.257893
 20
126.974363
 42
0.029016
  0
VERTEX
  8
0
 10
345.430347
 20
127.660165
 42
0.044658
  0
VERTEX
  8
0
 10
344.635471
 20
128.141768
 42
0.055227
  0
VERTEX
  8
0
 10
343.978118
 20
128.378103
 42
0.260726
  0
VERTEX
  8
0
 10
343.606449
 20
128.273116
 42
-0.129896
  0
VERTEX
  8
0
 10
343.376490
 20
128.139287
 42
-0.259207
  0
VERTEX
  8
0
 10
343.178144
 20
128.187519
 42
-0.155720
  0
VERTEX
  8
0
 10
343.042212
 20
128.427123
 42
-0.051818
  0
VERTEX
  8
0
 10
343.000000
 20
128.833333
 42
0.077488
  0
VERTEX
  8
0
 10
342.930511
 20
129.279028
 42
0.090072
  0
VERTEX
  8
0
 10
342.729239
 20
129.657292
 42
0.100777
  0
VERTEX
  8
0
 10
342.429786
 20
129.910167
 42
0.125755
  0
VERTEX
  8
0
 10
342.078260
 20
130.000000
 42
-0.144503
  0
VERTEX
  8
0
 10
340.717740
 20
130.401585
 42
-0.002978
  0
VERTEX
  8
0
 10
334.720837
 20
134.330527
 42
-0.006338
  0
VERTEX
  8
0
 10
329.108959
 20
138.158526
 42
-0.043551
  0
VERTEX
  8
0
 10
326.552719
 20
140.304424
 42
-0.079545
  0
VERTEX
  8
0
 10
325.417657
 20
141.872222
 42
-0.126771
  0
VERTEX
  8
0
 10
325.065407
 20
143.479948
 42
-0.156383
  0
VERTEX
  8
0
 10
325.552231
 20
144.827145
 42
-0.141321
  0
VERTEX
  8
0
 10
326.750000
 20
145.705974
 42
0.046571
  0
VERTEX
  8
0
 10
327.482064
 20
146.055361
 42
0.032649
  0
VERTEX
  8
0
 10
328.234675
 20
146.574287
 42
0.033074
  0
VERTEX
  8
0
 10
328.895806
 20
147.171977
 42
0.057228
  0
VERTEX
  8
0
 10
329.346767
 20
147.758710
 42
-0.106422
  0
VERTEX
  8
0
 10
329.869195
 20
148.316122
 42
-0.091759
  0
VERTEX
  8
0
 10
330.602448
 20
148.645978
 42
-0.075663
  0
VERTEX
  8
0
 10
331.530123
 20
148.728470
 42
-0.045922
  0
VERTEX
  8
0
 10
332.620925
 20
148.559006
 42
0.011362
  0
VERTEX
  8
0
 10
334.094518
 20
148.224556
 42
0.277763
  0
VERTEX
  8
0
 10
334.474147
 20
148.359446
 42
0.307527
  0
VERTEX
  8
0
 10
334.509042
 20
148.742596
 42
0.013095
  0
VERTEX
  8
0
 10
333.783612
 20
149.974885
 42
0.023995
  0
VERTEX
  8
0
 10
333.246034
 20
150.750254
 42
0.030795
  0
VERTEX
  8
0
 10
332.676544
 20
151.405122
 42
0.031809
  0
VERTEX
  8
0
 10
332.150859
 20
151.875425
 42
0.168121
  0
VERTEX
  8
0
 10
331.790838
 20
152.000000
 42
-0.267755
  0
VERTEX
  8
0
 10
331.564359
 20
152.130648
 42
-0.115291
  0
VERTEX
  8
0
 10
331.459417
 20
152.476310
 42
-0.070283
  0
VERTEX
  8
0
 10
331.498831
 20
152.999798
 42
-0.037748
  0
VERTEX
  8
0
 10
331.684990
 20
153.621480
 42
-0.191266
  0
VERTEX
  8
0
 10
332.444544
 20
154.446059
 42
-0.091283
  0
VERTEX
  8
0
 10
333.858126
 20
154.831799
 42
-0.036011
  0
VERTEX
  8
0
 10
336.445223
 20
154.863733
 42
-0.004785
  0
VERTEX
  8
0
 10
341.903605
 20
154.485308
 42
-0.000445
  0
VERTEX
  8
0
 10
351.453869
 20
153.722749
 42
-0.006106
  0
VERTEX
  8
0
 10
354.917109
 20
153.400507
 42
-0.015789
  0
VERTEX
  8
0
 10
357.148033
 20
153.093927
 42
-0.013095
  0
VERTEX
  8
0
 10
359.500000
 20
152.631021
 42
0.049855
  0
VERTEX
  8
0
 10
364.404325
 20
152.035209
 42
0.003523
  0
VERTEX
  8
0
 10
378.218740
 20
151.838728
 42
0.005001
  0
VERTEX
  8
0
 10
391.866490
 20
151.877280
 42
0.022983
  0
VERTEX
  8
0
 10
399.764036
 20
152.342065
 42
0.014179
  0
VERTEX
  8
0
 10
402.302507
 20
152.681943
 42
0.015363
  0
VERTEX
  8
0
 10
404.750153
 20
153.158207
 42
0.015000
  0
VERTEX
  8
0
 10
406.815453
 20
153.691948
 42
0.068946
  0
VERTEX
  8
0
 10
407.941746
 20
154.195693
 42
0.019034
  0
VERTEX
  8
0
 10
409.100492
 20
154.982172
 42
0.231025
  0
VERTEX
  8
0
 10
409.342821
 20
155.444995
 42
0.208667
  0
VERTEX
  8
0
 10
409.139430
 20
155.949566
 42
0.015437
  0
VERTEX
  8
0
 10
408.020502
 20
156.982218
 42
-0.035160
  0
VERTEX
  8
0
 10
407.302689
 20
157.699088
 42
-0.031397
  0
VERTEX
  8
0
 10
406.662529
 20
158.535966
 42
-0.032771
  0
VERTEX
  8
0
 10
406.183552
 20
159.363474
 42
-0.079109
  0
VERTEX
  8
0
 10
405.974309
 20
160.036817
 42
-0.044181
  0
VERTEX
  8
0
 10
405.835787
 20
162.548371
 42
-0.145588
  0
VERTEX
  8
0
 10
406.355789
 20
164.105255
 42
-0.135083
  0
VERTEX
  8
0
 10
407.671111
 20
165.192518
 42
-0.035944
  0
VERTEX
  8
0
 10
410.250000
 20
166.134941
 42
0.008137
  0
VERTEX
  8
0
 10
411.950484
 20
166.651249
 42
0.009530
  0
VERTEX
  8
0
 10
413.545312
 20
167.197717
 42
0.008608
  0
VERTEX
  8
0
 10
414.872733
 20
167.707066
 42
0.056209
  0
VERTEX
  8
0
 10
415.500000
 20
168.046416
 42
-0.084405
  0
VERTEX
  8
0
 10
416.274898
 20
168.411027
 42
-0.002660
  0
VERTEX
  8
0
 10
419.653789
 20
169.331853
 42
-0.005105
  0
VERTEX
  8
0
 10
423.666888
 20
170.358836
 42
-0.003510
  0
VERTEX
  8
0
 10
428.236302
 20
171.444660
 42
0.006003
  0
VERTEX
  8
0
 10
432.775458
 20
172.547240
 42
0.009096
  0
VERTEX
  8
0
 10
436.693300
 20
173.625154
 42
0.004479
  0
VERTEX
  8
0
 10
439.963913
 20
174.621250
 42
0.180067
  0
VERTEX
  8
0
 10
440.545319
 20
175.073327
 42
-0.119132
  0
VERTEX
  8
0
 10
440.904872
 20
175.429073
 42
-0.048533
  0
VERTEX
  8
0
 10
441.529728
 20
175.727790
 42
-0.044394
  0
VERTEX
  8
0
 10
442.294568
 20
175.931434
 42
-0.042899
  0
VERTEX
  8
0
 10
443.092261
 20
176.000000
 42
0.099843
  0
VERTEX
  8
0
 10
445.786105
 20
176.543339
 42
0.021657
  0
VERTEX
  8
0
 10
450.098719
 20
178.580800
 42
0.015697
  0
VERTEX
  8
0
 10
454.251204
 20
180.936667
 42
0.261568
  0
VERTEX
  8
0
 10
455.000000
 20
182.270093
 42
0.134450
  0
VERTEX
  8
0
 10
454.822730
 20
182.917420
 42
0.024641
  0
VERTEX
  8
0
 10
454.132532
 20
183.962052
 42
0.024909
  0
VERTEX
  8
0
 10
453.177508
 20
185.135953
 42
0.020384
  0
VERTEX
  8
0
 10
452.046919
 20
186.293729
 42
-0.056086
  0
VERTEX
  8
0
 10
450.219434
 20
188.453620
 42
-0.159810
  0
VERTEX
  8
0
 10
449.694484
 20
190.326833
 42
-0.156442
  0
VERTEX
  8
0
 10
450.377024
 20
192.173260
 42
-0.053104
  0
VERTEX
  8
0
 10
452.394979
 20
194.252035
 42
-0.046333
  0
VERTEX
  8
0
 10
454.474998
 20
195.679748
 42
-0.008472
  0
VERTEX
  8
0
 10
458.592696
 20
197.886633
 42
-0.009584
  0
VERTEX
  8
0
 10
463.216762
 20
200.153952
 42
-0.012820
  0
VERTEX
  8
0
 10
467.500000
 20
202.021065
 42
-0.018306
  0
VERTEX
  8
0
 10
469.738341
 20
202.835159
 42
-0.000535
  0
VERTEX
  8
0
 10
479.321850
 20
205.917222
 42
-0.000459
  0
VERTEX
  8
0
 10
489.019889
 20
209.014862
 42
-0.021926
  0
VERTEX
  8
0
 10
491.000000
 20
209.550962
 42
0.006941
  0
VERTEX
  8
0
 10
493.136602
 20
210.061254
 42
0.004759
  0
VERTEX
  8
0
 10
495.547126
 20
210.696934
 42
0.004310
  0
VERTEX
  8
0
 10
497.754566
 20
211.322088
 42
0.020402
  0
VERTEX
  8
0
 10
499.000000
 20
211.742281
 42
-0.023144
  0
VERTEX
  8
0
 10
499.629319
 20
211.950771
 42
-0.022655
  0
VERTEX
  8
0
 10
500.279687
 20
212.101906
 42
-0.023236
  0
VERTEX
  8
0
 10
500.861215
 20
212.181820
 42
-0.074814
  0
VERTEX
  8
0
 10
501.250000
 20
212.158759
 42
0.109901
  0
VERTEX
  8
0
 10
501.535886
 20
212.161710
 42
0.123817
  0
VERTEX
  8
0
 10
501.779688
 20
212.287284
 42
0.118348
  0
VERTEX
  8
0
 10
501.942596
 20
212.518796
 42
0.094678
  0
VERTEX
  8
0
 10
502.000000
 20
212.819229
 42
-0.278817
  0
VERTEX
  8
0
 10
502.233409
 20
213.205261
 42
-0.017970
  0
VERTEX
  8
0
 10
503.468750
 20
213.797763
 42
-0.022068
  0
VERTEX
  8
0
 10
505.083822
 20
214.418904
 42
-0.014291
  0
VERTEX
  8
0
 10
507.000000
 20
215.000000
 42
0.013334
  0
VERTEX
  8
0
 10
510.017655
 20
215.908823
 42
0.106907
  0
VERTEX
  8
0
 10
511.260928
 20
216.640955
 42
0.164431
  0
VERTEX
  8
0
 10
511.832339
 20
217.687792
 42
0.043453
  0
VERTEX
  8
0
 10
512.000000
 20
219.613383
 42
0.034200
  0
VERTEX
  8
0
 10
511.892778
 20
221.179130
 42
0.084688
  0
VERTEX
  8
0
 10
511.547771
 20
222.272264
 42
0.110311
  0
VERTEX
  8
0
 10
510.929863
 20
223.014227
 42
0.087550
  0
VERTEX
  8
0
 10
510.003270
 20
223.498962
 42
-0.103235
  0
VERTEX
  8
0
 10
509.066278
 20
224.026863
 42
-0.028079
  0
VERTEX
  8
0
 10
507.845193
 20
225.222711
 42
-0.027154
  0
VERTEX
  8
0
 10
506.581982
 20
226.767669
 42
-0.025259
  0
VERTEX
  8
0
 10
505.460544
 20
228.477115
 42
0.025674
  0
VERTEX
  8
0
 10
504.017469
 20
230.672871
 42
0.060377
  0
VERTEX
  8
0
 10
502.677790
 20
232.101231
 42
0.070141
  0
VERTEX
  8
0
 10
501.168830
 20
233.040487
 42
0.046154
  0
VERTEX
  8
0
 10
499.227208
 20
233.693565
 42
-0.040967
  0
VERTEX
  8
0
 10
497.536291
 20
234.242897
 42
-0.051517
  0
VERTEX
  8
0
 10
496.090929
 20
235.030527
 42
-0.055075
  0
VERTEX
  8
0
 10
494.914930
 20
236.045282
 42
-0.059410
  0
VERTEX
  8
0
 10
494.022712
 20
237.268605
 42
-0.039228
  0
VERTEX
  8
0
 10
493.248707
 20
238.942786
 42
-0.094073
  0
VERTEX
  8
0
 10
493.022287
 20
240.285632
 42
-0.067798
  0
VERTEX
  8
0
 10
493.271913
 20
241.873414
 42
-0.013469
  0
VERTEX
  8
0
 10
494.173619
 20
244.610302
 42
0.020361
  0
VERTEX
  8
0
 10
495.236085
 20
247.991197
 42
0.102369
  0
VERTEX
  8
0
 10
495.353804
 20
249.959322
 42
0.153286
  0
VERTEX
  8
0
 10
494.660592
 20
251.399935
 42
0.065056
  0
VERTEX
  8
0
 10
492.987199
 20
252.775922
 42
0.091578
  0
VERTEX
  8
0
 10
489.178547
 20
254.277753
 42
0.033350
  0
VERTEX
  8
0
 10
483.400983
 20
255.011252
 42
0.026074
  0
VERTEX
  8
0
 10
475.773562
 20
255.068230
 42
0.012490
  0
VERTEX
  8
0
 10
466.000000
 20
254.386442
 42
-0.004361
  0
VERTEX
  8
0
 10
462.379212
 20
254.074636
 42
-0.003639
  0
VERTEX
  8
0
 10
458.528125
 20
253.804987
 42
-0.003673
  0
VERTEX
  8
0
 10
455.000782
 20
253.609788
 42
-0.009992
  0
VERTEX
  8
0
 10
452.500000
 20
253.539861
 42
-0.011110
  0
VERTEX
  8
0
 10
449.430974
 20
253.583589
 42
-0.108850
  0
VERTEX
  8
0
 10
448.184401
 20
253.906293
 42
-0.197057
  0
VERTEX
  8
0
 10
447.535821
 20
254.658572
 42
-0.051987
  0
VERTEX
  8
0
 10
447.184442
 20
256.241048
 42
-0.106179
  0
VERTEX
  8
0
 10
447.356055
 20
258.005681
 42
-0.043173
  0
VERTEX
  8
0
 10
448.289183
 20
260.245112
 42
-0.028131
  0
VERTEX
  8
0
 10
450.067854
 20
263.230346
 42
-0.008683
  0
VERTEX
  8
0
 10
453.072113
 20
267.520043
 42
0.008941
  0
VERTEX
  8
0
 10
455.398276
 20
270.845155
 42
0.014486
  0
VERTEX
  8
0
 10
457.241453
 20
273.761763
 42
0.008183
  0
VERTEX
  8
0
 10
458.636168
 20
276.207577
 42
0.333345
  0
VERTEX
  8
0
 10
458.554691
 20
276.778995
 42
0.217053
  0
VERTEX
  8
0
 10
456.200717
 20
277.660116
 42
0.021106
  0
VERTEX
  8
0
 10
450.002228
 20
276.966014
 42
0.025544
  0
VERTEX
  8
0
 10
443.829455
 20
275.683864
 42
0.108240
  0
VERTEX
  8
0
 10
440.486702
 20
273.979479
 42
-0.078102
  0
VERTEX
  8
0
 10
439.819397
 20
273.587357
 42
-0.010803
  0
VERTEX
  8
0
 10
438.306216
 20
273.028522
 42
-0.012164
  0
VERTEX
  8
0
 10
436.470278
 20
272.444790
 42
-0.010033
  0
VERTEX
  8
0
 10
434.486702
 20
271.909788
 42
0.012672
  0
VERTEX
  8
0
 10
432.430856
 20
271.343639
 42
0.012156
  0
VERTEX
  8
0
 10
430.377344
 20
270.666823
 42
0.012177
  0
VERTEX
  8
0
 10
428.596372
 20
269.982108
 42
0.042221
  0
VERTEX
  8
0
 10
427.500000
 20
269.417186
 42
-0.054119
  0
VERTEX
  8
0
 10
425.349474
 20
268.372937
 42
-0.012958
  0
VERTEX
  8
0
 10
421.572678
 20
267.129735
 42
-0.013990
  0
VERTEX
  8
0
 10
417.561475
 20
266.045020
 42
-0.028418
  0
VERTEX
  8
0
 10
414.347694
 20
265.462514
 42
-0.066457
  0
VERTEX
  8
0
 10
413.308691
 20
265.473147
 42
-0.137687
  0
VERTEX
  8
0
 10
412.572814
 20
265.798779
 42
-0.124346
  0
VERTEX
  8
0
 10
412.067082
 20
266.487886
 42
-0.049242
  0
VERTEX
  8
0
 10
411.731803
 20
267.622647
 42
-0.029823
  0
VERTEX
  8
0
 10
411.606896
 20
268.583623
 42
-0.039479
  0
VERTEX
  8
0
 10
411.615091
 20
269.465581
 42
-0.044166
  0
VERTEX
  8
0
 10
411.739067
 20
270.160754
 42
-0.190367
  0
VERTEX
  8
0
 10
411.985475
 20
270.491023
 42
0.175792
  0
VERTEX
  8
0
 10
412.257194
 20
270.834560
 42
0.033145
  0
VERTEX
  8
0
 10
412.462262
 20
271.621557
 42
0.031818
  0
VERTEX
  8
0
 10
412.587640
 20
272.619166
 42
0.024460
  0
VERTEX
  8
0
 10
412.601366
 20
273.717156
 42
0.031488
  0
VERTEX
  8
0
 10
412.454646
 20
275.188877
 42
0.156700
  0
VERTEX
  8
0
 10
412.080884
 20
275.918900
 42
0.185937
  0
VERTEX
  8
0
 10
411.392723
 20
276.225436
 42
0.047726
  0
VERTEX
  8
0
 10
410.154157
 20
276.170905
 42
0.045824
  0
VERTEX
  8
0
 10
408.974214
 20
275.893431
 42
0.014570
  0
VERTEX
  8
0
 10
407.277121
 20
275.270702
 42
0.014408
  0
VERTEX
  8
0
 10
405.416712
 20
274.462914
 42
0.015568
  0
VERTEX
  8
0
 10
403.654157
 20
273.568520
 42
-0.000932
  0
VERTEX
  8
0
 10
401.739331
 20
272.525297
 42
-0.000516
  0
VERTEX
  8
0
 10
399.398409
 20
271.258709
 42
-0.000515
  0
VERTEX
  8
0
 10
397.024504
 20
269.980596
 42
-0.000830
  0
VERTEX
  8
0
 10
395.000000
 20
268.897615
 42
0.005526
  0
VERTEX
  8
0
 10
393.188056
 20
267.906342
 42
0.006175
  0
VERTEX
  8
0
 10
391.464882
 20
266.910549
 42
0.005725
  0
VERTEX
  8
0
 10
390.018184
 20
266.027949
 42
0.032328
  0
VERTEX
  8
0
 10
389.284704
 20
265.500000
 42
0.000804
  0
VERTEX
  8
0
 10
388.712828
 20
265.027891
 42
0.000397
  0
VERTEX
  8
0
 10
387.987980
 20
264.426562
 42
0.000394
  0
VERTEX
  8
0
 10
387.236968
 20
263.801519
 42
0.000577
  0
VERTEX
  8
0
 10
386.576910
 20
263.250000
 42
-0.041527
  0
VERTEX
  8
0
 10
385.898383
 20
262.771511
 42
-0.032653
  0
VERTEX
  8
0
 10
385.094290
 20
262.367188
 42
-0.033608
  0
VERTEX
  8
0
 10
384.291756
 20
262.089216
 42
-0.066659
  0
VERTEX
  8
0
 10
383.625540
 20
262.000000
 42
0.047588
  0
VERTEX
  8
0
 10
383.042762
 20
261.944407
 42
0.051577
  0
VERTEX
  8
0
 10
382.497294
 20
261.779688
 42
0.057821
  0
VERTEX
  8
0
 10
382.066242
 20
261.537529
 42
0.132063
  0
VERTEX
  8
0
 10
381.833333
 20
261.250000
 42
-0.191307
  0
VERTEX
  8
0
 10
379.947284
 20
259.404527
 42
-0.024481
  0
VERTEX
  8
0
 10
374.514856
 20
257.436757
 42
-0.023688
  0
VERTEX
  8
0
 10
369.146155
 20
256.059009
 42
-0.475258
  0
VERTEX
  8
0
 10
368.000000
 20
256.992475
 42
-0.126830
  0
VERTEX
  8
0
 10
368.513344
 20
258.983677
 42
-0.015439
  0
VERTEX
  8
0
 10
370.835048
 20
262.896698
 42
-0.019431
  0
VERTEX
  8
0
 10
373.624620
 20
266.928778
 42
-0.031996
  0
VERTEX
  8
0
 10
376.319939
 20
270.076928
 42
0.016859
  0
VERTEX
  8
0
 10
377.760001
 20
271.659408
 42
0.010675
  0
VERTEX
  8
0
 10
379.335039
 20
273.594218
 42
0.010719
  0
VERTEX
  8
0
 10
380.802431
 20
275.563163
 42
0.019404
  0
VERTEX
  8
0
 10
381.904079
 20
277.243813
 42
-0.012788
  0
VERTEX
  8
0
 10
382.852019
 20
278.732552
 42
-0.014454
  0
VERTEX
  8
0
 10
383.838478
 20
280.110011
 42
-0.013762
  0
VERTEX
  8
0
 10
384.738911
 20
281.228276
 42
-0.073248
  0
VERTEX
  8
0
 10
385.327736
 20
281.743813
 42
0.073534
  0
VERTEX
  8
0
 10
385.880350
 20
282.228203
 42
0.019171
  0
VERTEX
  8
0
 10
386.611759
 20
283.159120
 42
0.019062
  0
VERTEX
  8
0
 10
387.372179
 20
284.296074
 42
0.018444
  0
VERTEX
  8
0
 10
388.052721
 20
285.500000
 42
-0.003411
  0
VERTEX
  8
0
 10
388.814327
 20
286.947224
 42
-0.001476
  0
VERTEX
  8
0
 10
389.847026
 20
288.863901
 42
-0.001460
  0
VERTEX
  8
0
 10
390.957605
 20
290.896455
 42
-0.001937
  0
VERTEX
  8
0
 10
391.980575
 20
292.738813
 42
0.018458
  0
VERTEX
  8
0
 10
392.839573
 20
294.413956
 42
0.027668
  0
VERTEX
  8
0
 10
393.451510
 20
295.938977
 42
0.026349
  0
VERTEX
  8
0
 10
393.798848
 20
297.176707
 42
0.257020
  0
VERTEX
  8
0
 10
393.652720
 20
297.680613
 42
0.201182
  0
VERTEX
  8
0
 10
393.170251
 20
297.877996
 42
0.031405
  0
VERTEX
  8
0
 10
392.121265
 20
297.802847
 42
0.030765
  0
VERTEX
  8
0
 10
390.827109
 20
297.546141
 42
0.022416
  0
VERTEX
  8
0
 10
389.426427
 20
297.109556
 42
-0.107199
  0
VERTEX
  8
0
 10
385.548782
 20
296.589212
 42
-0.328534
  0
VERTEX
  8
0
 10
383.662586
 20
298.227042
 42
-0.136115
  0
VERTEX
  8
0
 10
383.863141
 20
302.262499
 42
-0.023300
  0
VERTEX
  8
0
 10
386.643835
 20
309.500000
 42
0.001609
  0
VERTEX
  8
0
 10
387.722488
 20
311.980469
 42
0.001601
  0
VERTEX
  8
0
 10
388.786928
 20
314.471875
 42
0.001567
  0
VERTEX
  8
0
 10
389.703469
 20
316.655305
 42
0.006281
  0
VERTEX
  8
0
 10
390.243268
 20
318.000000
 42
-0.003588
  0
VERTEX
  8
0
 10
390.706297
 20
319.171666
 42
-0.001795
  0
VERTEX
  8
0
 10
391.307724
 20
320.646875
 42
-0.001782
  0
VERTEX
  8
0
 10
391.941080
 20
322.169154
 42
-0.002632
  0
VERTEX
  8
0
 10
392.508624
 20
323.500000
 42
0.022231
  0
VERTEX
  8
0
 10
394.732043
 20
329.337681
 42
0.022039
  0
VERTEX
  8
0
 10
396.435582
 20
335.366535
 42
0.015830
  0
VERTEX
  8
0
 10
397.511168
 20
340.681895
 42
0.240768
  0
VERTEX
  8
0
 10
396.964858
 20
342.419970
 42
0.173662
  0
VERTEX
  8
0
 10
396.344448
 20
342.719523
 42
0.046302
  0
VERTEX
  8
0
 10
395.229984
 20
342.734442
 42
0.037906
  0
VERTEX
  8
0
 10
393.789847
 20
342.509524
 42
0.022022
  0
VERTEX
  8
0
 10
392.104383
 20
342.034449
 42
-0.037276
  0
VERTEX
  8
0
 10
388.043665
 20
341.022381
 42
-0.232187
  0
VERTEX
  8
0
 10
386.045498
 20
341.611157
 42
-0.204199
  0
VERTEX
  8
0
 10
385.132595
 20
343.627721
 42
-0.028846
  0
VERTEX
  8
0
 10
385.297700
 20
348.285080
 42
-0.018098
  0
VERTEX
  8
0
 10
385.955426
 20
353.343392
 42
-0.014292
  0
VERTEX
  8
0
 10
387.019983
 20
358.759594
 42
-0.008721
  0
VERTEX
  8
0
 10
388.221006
 20
363.665266
 42
-0.159044
  0
VERTEX
  8
0
 10
389.082166
 20
365.000000
 42
0.100197
  0
VERTEX
  8
0
 10
389.325578
 20
365.295703
 42
0.036643
  0
VERTEX
  8
0
 10
389.545444
 20
365.793750
 42
0.034537
  0
VERTEX
  8
0
 10
389.712409
 20
366.389100
 42
0.034845
  0
VERTEX
  8
0
 10
389.795207
 20
367.000000
 42
-0.020605
  0
VERTEX
  8
0
 10
390.139602
 20
370.228975
 42
-0.017781
  0
VERTEX
  8
0
 10
390.760431
 20
373.583197
 42
-0.009355
  0
VERTEX
  8
0
 10
391.488125
 20
376.592164
 42
-0.341073
  0
VERTEX
  8
0
 10
392.016446
 20
377.000000
 42
0.326894
  0
VERTEX
  8
0
 10
392.344311
 20
377.240000
 42
0.014190
  0
VERTEX
  8
0
 10
392.758867
 20
378.689062
 42
0.019469
  0
VERTEX
  8
0
 10
393.157203
 20
380.545816
 42
0.012097
  0
VERTEX
  8
0
 10
393.486281
 20
382.750000
 42
-0.014249
  0
VERTEX
  8
0
 10
393.831552
 20
384.996426
 42
-0.019643
  0
VERTEX
  8
0
 10
394.277545
 20
386.988216
 42
-0.016640
  0
VERTEX
  8
0
 10
394.756862
 20
388.577946
 42
-0.173804
  0
VERTEX
  8
0
 10
395.173479
 20
389.103500
 42
0.157129
  0
VERTEX
  8
0
 10
395.809294
 20
389.854171
 42
0.040872
  0
VERTEX
  8
0
 10
396.297036
 20
391.380272
 42
0.021571
  0
VERTEX
  8
0
 10
396.782189
 20
393.979841
 42
0.003774
  0
VERTEX
  8
0
 10
397.446891
 20
398.917205
 42
-0.003499
  0
VERTEX
  8
0
 10
397.658548
 20
400.495960
 42
-0.001897
  0
VERTEX
  8
0
 10
397.939745
 20
402.434339
 42
-0.001890
  0
VERTEX
  8
0
 10
398.240864
 20
404.404879
 42
-0.002988
  0
VERTEX
  8
0
 10
398.515509
 20
406.091798
 42
0.079117
  0
VERTEX
  8
0
 10
398.544710
 20
409.177650
 42
0.224542
  0
VERTEX
  8
0
 10
397.377357
 20
410.920372
 42
0.164788
  0
VERTEX
  8
0
 10
394.949323
 20
411.443474
 42
0.041039
  0
VERTEX
  8
0
 10
390.909126
 20
410.639307
 42
-0.010400
  0
VERTEX
  8
0
 10
389.129390
 20
410.170226
 42
-0.012296
  0
VERTEX
  8
0
 10
387.427993
 20
409.803465
 42
-0.011192
  0
VERTEX
  8
0
 10
385.984636
 20
409.562619
 42
-0.072741
  0
VERTEX
  8
0
 10
385.250000
 20
409.564285
 42
0.000365
  0
VERTEX
  8
0
 10
384.707146
 20
409.644533
 42
0.000273
  0
VERTEX
  8
0
 10
384.109075
 20
409.732165
 42
0.000276
  0
VERTEX
  8
0
 10
383.545866
 20
409.814057
 42
0.000632
  0
VERTEX
  8
0
 10
383.121320
 20
409.875000
 42
-0.259253
  0
VERTEX
  8
0
 10
381.725568
 20
410.933082
 42
-0.053321
  0
VERTEX
  8
0
 10
380.753400
 20
413.986159
 42
-0.043346
  0
VERTEX
  8
0
 10
380.262831
 20
418.229666
 42
-0.027592
  0
VERTEX
  8
0
 10
380.395702
 20
423.202386
 42
0.004499
  0
VERTEX
  8
0
 10
381.268958
 20
435.162088
 42
0.009028
  0
VERTEX
  8
0
 10
381.702798
 20
444.620700
 42
0.004105
  0
VERTEX
  8
0
 10
381.851766
 20
452.231898
 42
0.262967
  0
VERTEX
  8
0
 10
381.233578
 20
453.355641
 42
0.186715
  0
VERTEX
  8
0
 10
380.697019
 20
453.455717
 42
0.049574
  0
VERTEX
  8
0
 10
379.845831
 20
453.207403
 42
0.043220
  0
VERTEX
  8
0
 10
378.861450
 20
452.708234
 42
0.032994
  0
SEQEND
  0
ENDSEC
  0
EOF
