  0
SECTION
  2
HEADER
  9
$ACADVER
  1
AC1006
  9
$EXTMIN
 10
0.000000
 20
0.000000
 30
0.000000
  9
$EXTMAX
 10
446.000000
 20
396.000000
 30
0.000000
  0
ENDSEC
  0
SECTION
  2
ENTITIES
  0
POLYLINE
  8
0
 66
1
 70
1
  0
VERTEX
  8
0
 10
182.500000
 20
394.836266
 42
0.011836
  0
VERTEX
  8
0
 10
164.702712
 20
393.422376
 42
0.012031
  0
VERTEX
  8
0
 10
147.089805
 20
391.173264
 42
0.005001
  0
VERTEX
  8
0
 10
131.301900
 20
388.608025
 42
0.531237
  0
VERTEX
  8
0
 10
130.545047
 20
386.927112
 42
-0.106667
  0
VERTEX
  8
0
 10
130.653138
 20
386.622556
 42
-0.306380
  0
VERTEX
  8
0
 10
130.557275
 20
386.431996
 42
-0.173901
  0
VERTEX
  8
0
 10
130.266584
 20
386.383367
 42
-0.045106
  0
VERTEX
  8
0
 10
129.801938
 20
386.511341
 42
0.085660
  0
VERTEX
  8
0
 10
128.730633
 20
386.715160
 42
0.000197
  0
VERTEX
  8
0
 10
112.579319
 20
386.985050
 42
0.001298
  0
VERTEX
  8
0
 10
94.370672
 20
387.234850
 42
0.000806
  0
VERTEX
  8
0
 10
73.000000
 20
387.438084
 42
-0.000942
  0
VERTEX
  8
0
 10
51.098856
 20
387.652331
 42
-0.001257
  0
VERTEX
  8
0
 10
31.210441
 20
387.934395
 42
-0.000878
  0
VERTEX
  8
0
 10
14.531880
 20
388.242162
 42
-0.012926
  0
VERTEX
  8
0
 10
8.673843
 20
388.512153
 42
0.000000
  0
VERTEX
  8
0
 10
-0.152313
 20
389.147911
 42
0.000000
  0
VERTEX
  8
0
 10
0.102880
 20
376.538109
 42
0.021283
  0
VERTEX
  8
0
 10
1.010701
 20
362.100245
 42
0.022245
  0
VERTEX
  8
0
 10
3.138582
 20
348.005387
 42
0.023774
  0
VERTEX
  8
0
 10
6.232895
 20
335.461892
 42
0.045584
  0
VERTEX
  8
0
 10
10.079201
 20
325.845995
 42
-0.012016
  0
VERTEX
  8
0
 10
11.044656
 20
323.834913
 42
-0.080435
  0
VERTEX
  8
0
 10
11.332087
 20
322.767416
 42
-0.194290
  0
VERTEX
  8
0
 10
11.141543
 20
322.108016
 42
-0.135645
  0
VERTEX
  8
0
 10
10.511526
 20
321.642797
 42
0.096025
  0
VERTEX
  8
0
 10
9.778005
 20
321.185088
 42
0.016465
  0
VERTEX
  8
0
 10
8.607707
 20
320.022107
 42
0.017412
  0
VERTEX
  8
0
 10
7.309076
 20
318.543801
 42
0.014764
  0
VERTEX
  8
0
 10
6.040175
 20
316.896763
 42
0.079955
  0
VERTEX
  8
0
 10
3.450887
 20
311.765663
 42
0.109018
  0
VERTEX
  8
0
 10
2.983606
 20
306.621799
 42
0.115032
  0
VERTEX
  8
0
 10
4.715122
 20
301.960088
 42
0.096641
  0
VERTEX
  8
0
 10
8.420223
 20
298.195099
 42
0.095515
  0
VERTEX
  8
0
 10
13.636809
 20
295.926079
 42
0.080307
  0
VERTEX
  8
0
 10
19.662886
 20
295.566766
 42
0.072531
  0
VERTEX
  8
0
 10
26.036672
 20
297.163901
 42
0.057613
  0
VERTEX
  8
0
 10
32.252315
 20
300.603482
 42
-0.011053
  0
VERTEX
  8
0
 10
34.163428
 20
301.906527
 42
-0.014302
  0
VERTEX
  8
0
 10
35.975145
 20
303.011615
 42
-0.012020
  0
VERTEX
  8
0
 10
37.521561
 20
303.846565
 42
-0.111851
  0
VERTEX
  8
0
 10
38.252315
 20
304.031803
 42
0.072299
  0
VERTEX
  8
0
 10
38.851492
 20
304.134552
 42
0.027633
  0
VERTEX
  8
0
 10
39.642610
 20
304.440878
 42
0.026667
  0
VERTEX
  8
0
 10
40.477970
 20
304.873655
 42
0.029547
  0
VERTEX
  8
0
 10
41.233167
 20
305.379738
 42
-0.162865
  0
VERTEX
  8
0
 10
45.823758
 20
306.934616
 42
-0.022442
  0
VERTEX
  8
0
 10
56.042384
 20
306.513461
 42
-0.018486
  0
VERTEX
  8
0
 10
66.130212
 20
305.265988
 42
-0.368089
  0
VERTEX
  8
0
 10
68.000000
 20
303.070252
 42
0.325244
  0
VERTEX
  8
0
 10
68.273739
 20
302.693948
 42
0.016023
  0
VERTEX
  8
0
 10
69.835938
 20
302.243134
 42
0.020815
  0
VERTEX
  8
0
 10
71.854192
 20
301.818701
 42
0.012950
  0
VERTEX
  8
0
 10
74.250000
 20
301.481679
 42
-0.001587
  0
VERTEX
  8
0
 10
76.756345
 20
301.187014
 42
-0.001891
  0
VERTEX
  8
0
 10
79.118400
 20
300.892644
 42
-0.001633
  0
VERTEX
  8
0
 10
81.108526
 20
300.630368
 42
-0.012281
  0
VERTEX
  8
0
 10
82.046682
 20
300.480066
 42
0.032182
  0
VERTEX
  8
0
 10
85.758729
 20
300.035933
 42
0.001829
  0
VERTEX
  8
0
 10
97.287828
 20
299.446513
 42
0.002936
  0
VERTEX
  8
0
 10
110.462643
 20
298.898803
 42
0.002710
  0
VERTEX
  8
0
 10
124.000000
 20
298.489093
 42
-0.002641
  0
VERTEX
  8
0
 10
135.885936
 20
298.131005
 42
-0.004651
  0
VERTEX
  8
0
 10
145.702012
 20
297.691924
 42
-0.005575
  0
VERTEX
  8
0
 10
153.953807
 20
297.153538
 42
-0.008860
  0
VERTEX
  8
0
 10
161.000000
 20
296.489075
 42
0.001762
  0
VERTEX
  8
0
 10
162.782817
 20
296.295383
 42
0.000595
  0
VERTEX
  8
0
 10
165.381250
 20
296.025463
 42
0.000592
  0
VERTEX
  8
0
 10
168.254789
 20
295.733858
 42
0.000679
  0
VERTEX
  8
0
 10
171.000000
 20
295.462323
 42
-0.008555
  0
VERTEX
  8
0
 10
174.247481
 20
295.089370
 42
-0.003140
  0
VERTEX
  8
0
 10
178.821875
 20
294.455308
 42
-0.003112
  0
VERTEX
  8
0
 10
183.812122
 20
293.699893
 42
-0.003728
  0
VERTEX
  8
0
 10
188.500000
 20
292.924507
 42
0.001211
  0
VERTEX
  8
0
 10
192.787438
 20
292.193162
 42
0.001776
  0
VERTEX
  8
0
 10
196.562500
 20
291.572408
 42
0.000837
  0
VERTEX
  8
0
 10
199.779203
 20
291.060719
 42
0.032616
  0
VERTEX
  8
0
 10
200.500000
 20
290.995040
 42
-0.059948
  0
VERTEX
  8
0
 10
200.979967
 20
290.924751
 42
-0.024088
  0
VERTEX
  8
0
 10
201.611870
 20
290.720010
 42
-0.023419
  0
VERTEX
  8
0
 10
202.278778
 20
290.431475
 42
-0.027364
  0
VERTEX
  8
0
 10
202.880835
 20
290.094810
 42
-0.397393
  0
VERTEX
  8
0
 10
203.556589
 20
287.444969
 42
-0.013689
  0
VERTEX
  8
0
 10
197.617961
 20
277.406148
 42
-0.019054
  0
VERTEX
  8
0
 10
189.257511
 20
265.177206
 42
-0.011564
  0
VERTEX
  8
0
 10
178.500000
 20
251.342250
 42
0.017906
  0
VERTEX
  8
0
 10
163.998326
 20
232.195866
 42
0.027931
  0
VERTEX
  8
0
 10
153.072125
 20
214.634788
 42
0.031239
  0
VERTEX
  8
0
 10
145.079050
 20
197.579765
 42
0.033194
  0
VERTEX
  8
0
 10
139.458535
 20
180.000000
 42
0.014255
  0
VERTEX
  8
0
 10
136.603538
 20
166.899210
 42
0.018774
  0
VERTEX
  8
0
 10
134.794072
 20
154.805472
 42
0.017965
  0
VERTEX
  8
0
 10
133.846087
 20
142.197550
 42
0.011473
  0
VERTEX
  8
0
 10
133.608318
 20
127.500000
 42
0.041401
  0
VERTEX
  8
0
 10
136.934804
 20
90.442043
 42
0.038601
  0
VERTEX
  8
0
 10
146.338002
 20
53.530502
 42
0.040336
  0
VERTEX
  8
0
 10
159.531519
 20
22.943968
 42
0.133117
  0
VERTEX
  8
0
 10
174.406976
 20
7.057492
 42
0.064333
  0
VERTEX
  8
0
 10
178.565935
 20
5.174789
 42
0.081532
  0
VERTEX
  8
0
 10
182.740178
 20
4.612526
 42
0.068453
  0
VERTEX
  8
0
 10
187.418904
 20
5.394025
 42
0.032008
  0
VERTEX
  8
0
 10
193.166415
 20
7.598128
 42
-0.055704
  0
VERTEX
  8
0
 10
201.920136
 20
10.488257
 42
-0.073131
  0
VERTEX
  8
0
 10
210.310434
 20
11.005724
 42
-0.055404
  0
VERTEX
  8
0
 10
220.148070
 20
9.061664
 42
-0.018958
  0
VERTEX
  8
0
 10
233.855457
 20
4.155581
 42
0.007412
  0
VERTEX
  8
0
 10
241.380040
 20
1.264753
 42
0.051014
  0
VERTEX
  8
0
 10
245.213032
 20
0.285879
 42
0.092859
  0
VERTEX
  8
0
 10
248.131744
 20
0.394182
 42
0.055253
  0
VERTEX
  8
0
 10
251.429716
 20
1.533672
 42
0.208448
  0
VERTEX
  8
0
 10
256.993151
 20
7.919023
 42
0.064264
  0
VERTEX
  8
0
 10
259.296079
 20
20.767189
 42
0.043984
  0
VERTEX
  8
0
 10
258.572747
 20
39.351165
 42
0.018599
  0
VERTEX
  8
0
 10
254.493511
 20
64.000000
 42
-0.005205
  0
VERTEX
  8
0
 10
253.706123
 20
68.076748
 42
-0.000327
  0
VERTEX
  8
0
 10
251.518786
 20
80.115683
 42
-0.000425
  0
VERTEX
  8
0
 10
249.386886
 20
91.950635
 42
-0.003275
  0
VERTEX
  8
0
 10
248.429578
 20
97.500000
 42
-0.034921
  0
VERTEX
  8
0
 10
247.660031
 20
105.622324
 42
-0.007510
  0
VERTEX
  8
0
 10
247.523843
 20
119.766747
 42
-0.007447
  0
VERTEX
  8
0
 10
247.810576
 20
133.899671
 42
-0.035975
  0
VERTEX
  8
0
 10
248.668893
 20
141.883380
 42
-0.016249
  0
VERTEX
  8
0
 10
250.281117
 20
149.391812
 42
-0.012497
  0
VERTEX
  8
0
 10
252.509341
 20
157.474448
 42
-0.012703
  0
VERTEX
  8
0
 10
255.062913
 20
165.195706
 42
-0.020807
  0
VERTEX
  8
0
 10
257.658751
 20
171.575831
 42
0.001031
  0
VERTEX
  8
0
 10
258.705228
 20
173.882195
 42
0.001532
  0
VERTEX
  8
0
 10
259.611308
 20
175.906650
 42
0.000660
  0
VERTEX
  8
0
 10
260.378394
 20
177.640900
 42
0.031426
  0
VERTEX
  8
0
 10
260.510410
 20
178.000000
 42
-0.041743
  0
VERTEX
  8
0
 10
260.661614
 20
178.386510
 42
-0.000082
  0
VERTEX
  8
0
 10
263.582900
 20
184.334966
 42
-0.000589
  0
VERTEX
  8
0
 10
266.877491
 20
191.020851
 42
-0.000366
  0
VERTEX
  8
0
 10
270.760837
 20
198.863716
 42
0.006242
  0
VERTEX
  8
0
 10
275.314915
 20
208.339635
 42
0.007574
  0
VERTEX
  8
0
 10
279.337134
 20
217.337471
 42
0.008287
  0
VERTEX
  8
0
 10
282.675317
 20
225.489677
 42
0.014470
  0
VERTEX
  8
0
 10
285.131256
 20
232.363716
 42
-0.001108
  0
VERTEX
  8
0
 10
286.790082
 20
237.430042
 42
-0.001750
  0
VERTEX
  8
0
 10
288.237559
 20
241.766898
 42
-0.000397
  0
VERTEX
  8
0
 10
289.523492
 20
245.565369
 42
-0.075513
  0
VERTEX
  8
0
 10
289.711268
 20
245.927854
 42
-0.334126
  0
VERTEX
  8
0
 10
289.986631
 20
246.012179
 42
-0.012130
  0
VERTEX
  8
0
 10
291.072364
 20
245.588535
 42
-0.017885
  0
VERTEX
  8
0
 10
292.395949
 20
244.978228
 42
-0.011055
  0
VERTEX
  8
0
 10
293.907913
 20
244.171912
 42
0.026792
  0
VERTEX
  8
0
 10
298.871587
 20
241.722161
 42
0.016130
  0
VERTEX
  8
0
 10
304.988287
 20
239.331148
 42
0.016051
  0
VERTEX
  8
0
 10
311.321728
 20
237.314369
 42
0.024204
  0
VERTEX
  8
0
 10
316.962486
 20
236.006803
 42
0.029687
  0
VERTEX
  8
0
 10
322.958501
 20
235.283629
 42
0.010159
  0
VERTEX
  8
0
 10
331.710355
 20
234.930242
 42
0.009165
  0
VERTEX
  8
0
 10
340.300985
 20
234.915556
 42
0.047811
  0
VERTEX
  8
0
 10
345.000000
 20
235.444863
 42
-0.001892
  0
VERTEX
  8
0
 10
346.320623
 20
235.717980
 42
-0.000534
  0
VERTEX
  8
0
 10
348.381250
 20
236.133720
 42
-0.000538
  0
VERTEX
  8
0
 10
350.710942
 20
236.598551
 42
-0.000568
  0
VERTEX
  8
0
 10
353.000000
 20
237.050012
 42
0.039415
  0
VERTEX
  8
0
 10
367.320199
 20
241.049952
 42
0.034033
  0
VERTEX
  8
0
 10
381.585901
 20
247.407080
 42
0.034838
  0
VERTEX
  8
0
 10
393.407379
 20
254.767547
 42
0.111481
  0
VERTEX
  8
0
 10
399.508524
 20
261.692970
 42
-0.023416
  0
VERTEX
  8
0
 10
400.407395
 20
263.169040
 42
-0.011010
  0
VERTEX
  8
0
 10
401.697995
 20
264.992883
 42
-0.010883
  0
VERTEX
  8
0
 10
403.136487
 20
266.847846
 42
-0.015048
  0
VERTEX
  8
0
 10
404.511628
 20
268.442970
 42
-0.067584
  0
VERTEX
  8
0
 10
407.442356
 20
270.882910
 42
-0.108978
  0
VERTEX
  8
0
 10
410.489173
 20
271.968251
 42
-0.113459
  0
VERTEX
  8
0
 10
413.621069
 20
271.651341
 42
-0.077616
  0
VERTEX
  8
0
 10
416.801551
 20
269.988598
 42
0.096991
  0
VERTEX
  8
0
 10
421.347553
 20
267.830286
 42
0.102461
  0
VERTEX
  8
0
 10
426.280449
 20
267.604818
 42
0.089593
  0
VERTEX
  8
0
 10
431.416827
 20
269.405824
 42
0.057253
  0
VERTEX
  8
0
 10
436.540882
 20
273.144449
 42
0.078698
  0
VERTEX
  8
0
 10
442.166146
 20
280.259207
 42
0.085890
  0
VERTEX
  8
0
 10
445.106781
 20
288.556932
 42
0.091590
  0
VERTEX
  8
0
 10
444.994437
 20
296.909795
 42
0.105838
  0
VERTEX
  8
0
 10
441.848288
 20
304.208053
 42
-0.057885
  0
VERTEX
  8
0
 10
440.781726
 20
306.149936
 42
-0.098237
  0
VERTEX
  8
0
 10
440.431398
 20
307.963954
 42
-0.041032
  0
VERTEX
  8
0
 10
440.669241
 20
310.688055
 42
-0.003382
  0
VERTEX
  8
0
 10
441.916749
 20
317.708053
 42
0.001253
  0
VERTEX
  8
0
 10
442.722566
 20
322.133099
 42
0.001303
  0
VERTEX
  8
0
 10
443.495617
 20
326.504866
 42
0.001252
  0
VERTEX
  8
0
 10
444.144957
 20
330.289718
 42
0.005686
  0
VERTEX
  8
0
 10
444.492657
 20
332.500000
 42
0.030118
  0
VERTEX
  8
0
 10
445.112305
 20
339.820715
 42
0.002037
  0
VERTEX
  8
0
 10
445.534286
 20
360.759434
 42
0.001132
  0
VERTEX
  8
0
 10
445.836899
 20
382.667997
 42
0.064452
  0
VERTEX
  8
0
 10
445.363859
 20
386.686406
 42
0.062228
  0
VERTEX
  8
0
 10
444.788358
 20
388.169300
 42
0.202796
  0
VERTEX
  8
0
 10
443.983789
 20
388.814797
 42
0.088738
  0
VERTEX
  8
0
 10
442.524558
 20
388.959674
 42
0.006927
  0
VERTEX
  8
0
 10
438.610519
 20
388.598929
 42
0.004965
  0
VERTEX
  8
0
 10
432.021240
 20
387.833181
 42
0.009395
  0
VERTEX
  8
0
 10
426.730466
 20
387.063769
 42
0.007299
  0
VERTEX
  8
0
 10
420.671013
 20
385.974898
 42
0.001919
  0
VERTEX
  8
0
 10
411.000000
 20
384.052369
 42
0.002633
  0
VERTEX
  8
0
 10
406.760040
 20
383.169303
 42
0.002983
  0
VERTEX
  8
0
 10
402.703125
 20
382.276704
 42
0.002717
  0
VERTEX
  8
0
 10
399.264656
 20
381.478972
 42
0.016466
  0
VERTEX
  8
0
 10
397.500000
 20
380.997551
 42
-0.008355
  0
VERTEX
  8
0
 10
396.169064
 20
380.611158
 42
-0.005728
  0
VERTEX
  8
0
 10
394.646875
 20
380.215363
 42
-0.005775
  0
VERTEX
  8
0
 10
393.171551
 20
379.867780
 42
-0.011651
  0
VERTEX
  8
0
 10
392.000000
 20
379.634528
 42
0.013045
  0
VERTEX
  8
0
 10
390.546579
 20
379.340944
 42
0.002122
  0
VERTEX
  8
0
 10
387.743669
 20
378.685707
 42
0.002338
  0
VERTEX
  8
0
 10
384.450553
 20
377.884832
 42
0.002057
  0
VERTEX
  8
0
 10
381.021001
 20
377.018782
 42
-0.013362
  0
VERTEX
  8
0
 10
376.247541
 20
375.927539
 42
-0.027132
  0
VERTEX
  8
0
 10
372.437811
 20
375.376009
 42
-0.026691
  0
VERTEX
  8
0
 10
368.551125
 20
375.235445
 42
-0.012507
  0
VERTEX
  8
0
 10
363.521001
 20
375.448002
 42
-0.004389
  0
VERTEX
  8
0
 10
355.147633
 20
376.085784
 42
-0.006116
  0
VERTEX
  8
0
 10
347.668299
 20
376.813794
 42
-0.006906
  0
VERTEX
  8
0
 10
341.279307
 20
377.604106
 42
-0.014179
  0
VERTEX
  8
0
 10
336.305672
 20
378.433518
 42
0.014789
  0
VERTEX
  8
0
 10
335.051801
 20
378.641045
 42
0.002812
  0
VERTEX
  8
0
 10
332.756762
 20
378.938348
 42
0.002998
  0
VERTEX
  8
0
 10
330.072138
 20
379.254446
 42
0.002751
  0
VERTEX
  8
0
 10
327.305672
 20
379.547972
 42
-0.001931
  0
VERTEX
  8
0
 10
324.575756
 20
379.833092
 42
-0.002296
  0
VERTEX
  8
0
 10
322.001457
 20
380.123974
 42
-0.001989
  0
VERTEX
  8
0
 10
319.832277
 20
380.387925
 42
-0.014796
  0
VERTEX
  8
0
 10
318.805672
 20
380.547972
 42
0.014796
  0
VERTEX
  8
0
 10
317.779067
 20
380.708018
 42
0.001989
  0
VERTEX
  8
0
 10
315.609887
 20
380.971969
 42
0.002296
  0
VERTEX
  8
0
 10
313.035588
 20
381.262851
 42
0.001931
  0
VERTEX
  8
0
 10
310.305672
 20
381.547972
 42
-0.002389
  0
VERTEX
  8
0
 10
307.553437
 20
381.837972
 42
-0.002692
  0
VERTEX
  8
0
 10
304.911666
 20
382.143504
 42
-0.002462
  0
VERTEX
  8
0
 10
302.667284
 20
382.426549
 42
-0.014617
  0
VERTEX
  8
0
 10
301.500000
 20
382.614454
 42
0.007879
  0
VERTEX
  8
0
 10
300.437866
 20
382.800147
 42
0.002184
  0
VERTEX
  8
0
 10
298.765625
 20
383.057938
 42
0.002205
  0
VERTEX
  8
0
 10
296.869529
 20
383.333221
 42
0.002309
  0
VERTEX
  8
0
 10
295.000000
 20
383.587436
 42
-0.003971
  0
VERTEX
  8
0
 10
288.804368
 20
384.450888
 42
-0.001881
  0
VERTEX
  8
0
 10
280.831551
 20
385.657306
 42
-0.001347
  0
VERTEX
  8
0
 10
273.156737
 20
386.869376
 42
-0.013831
  0
VERTEX
  8
0
 10
270.000000
 20
387.466628
 42
0.012241
  0
VERTEX
  8
0
 10
266.278197
 20
388.183051
 42
0.003922
  0
VERTEX
  8
0
 10
260.717438
 20
389.068137
 42
0.004024
  0
VERTEX
  8
0
 10
254.752432
 20
389.920603
 42
0.005928
  0
VERTEX
  8
0
 10
249.500000
 20
390.564847
 42
-0.001706
  0
VERTEX
  8
0
 10
247.092802
 20
390.839496
 42
-0.002026
  0
VERTEX
  8
0
 10
244.821875
 20
391.115782
 42
-0.001757
  0
VERTEX
  8
0
 10
242.907858
 20
391.363358
 42
-0.013017
  0
VERTEX
  8
0
 10
242.000000
 20
391.508174
 42
0.013579
  0
VERTEX
  8
0
 10
241.075901
 20
391.654515
 42
0.001638
  0
VERTEX
  8
0
 10
239.031250
 20
391.914812
 42
0.001947
  0
VERTEX
  8
0
 10
236.598700
 20
392.206781
 42
0.001601
  0
VERTEX
  8
0
 10
234.000000
 20
392.500000
 42
-0.002032
  0
VERTEX
  8
0
 10
231.380988
 20
392.797797
 42
-0.002346
  0
VERTEX
  8
0
 10
228.886874
 20
393.103535
 42
-0.002099
  0
VERTEX
  8
0
 10
226.776310
 20
393.381321
 42
-0.013716
  0
VERTEX
  8
0
 10
225.721274
 20
393.554283
 42
0.028073
  0
VERTEX
  8
0
 10
224.517114
 20
393.716362
 42
0.001691
  0
VERTEX
  8
0
 10
220.875049
 20
393.987400
 42
0.002529
  0
VERTEX
  8
0
 10
216.532134
 20
394.273762
 42
0.001865
  0
VERTEX
  8
0
 10
211.721274
 20
394.548543
 42
-0.000137
  0
VERTEX
  8
0
 10
206.858434
 20
394.809434
 42
-0.000172
  0
VERTEX
  8
0
 10
202.355624
 20
395.053800
 42
-0.000137
  0
VERTEX
  8
0
 10
198.577629
 20
395.261174
 42
-0.001374
  0
VERTEX
  8
0
 10
197.000000
 20
395.352551
 42
0.021818
  0
VERTEX
  8
0
 10
195.427985
 20
395.379237
 42
0.002234
  0
VERTEX
  8
0
 10
191.709375
 20
395.263466
 42
0.002785
  0
VERTEX
  8
0
 10
187.278079
 20
395.080968
 42
0.002219
  0
SEQEND
  0
ENDSEC
  0
EOF
