  0
SECTION
  2
HEADER
  9
$ACADVER
  1
AC1006
  9
$EXTMIN
 10
0.000000
 20
0.000000
 30
0.000000
  9
$EXTMAX
 10
389.000000
 20
369.000000
 30
0.000000
  0
ENDSEC
  0
SECTION
  2
ENTITIES
  0
POLYLINE
  8
0
 66
1
 70
1
  0
VERTEX
  8
0
 10
187.500000
 20
368.000000
 42
0.077793
  0
VERTEX
  8
0
 10
187.308516
 20
367.544944
 42
0.058995
  0
VERTEX
  8
0
 10
187.240810
 20
367.006879
 42
0.059316
  0
VERTEX
  8
0
 10
187.300606
 20
366.471224
 42
0.081155
  0
VERTEX
  8
0
 10
187.485528
 20
366.023417
 42
-0.063643
  0
VERTEX
  8
0
 10
187.743275
 20
365.456119
 42
-0.014565
  0
VERTEX
  8
0
 10
188.025039
 20
364.438887
 42
-0.014834
  0
VERTEX
  8
0
 10
188.282685
 20
363.238472
 42
-0.013968
  0
VERTEX
  8
0
 10
188.474607
 20
362.000645
 42
-0.122680
  0
VERTEX
  8
0
 10
188.176169
 20
359.488670
 42
-0.132898
  0
VERTEX
  8
0
 10
186.733959
 20
357.496612
 42
-0.126612
  0
VERTEX
  8
0
 10
184.420205
 20
356.440998
 42
-0.105905
  0
VERTEX
  8
0
 10
181.714984
 20
356.535398
 42
0.086546
  0
VERTEX
  8
0
 10
179.640154
 20
356.687638
 42
0.294073
  0
VERTEX
  8
0
 10
178.627033
 20
355.882614
 42
0.168426
  0
VERTEX
  8
0
 10
178.638205
 20
354.132268
 42
0.032922
  0
VERTEX
  8
0
 10
179.901190
 20
351.193684
 42
-0.016777
  0
VERTEX
  8
0
 10
180.982382
 20
348.886276
 42
-0.081909
  0
VERTEX
  8
0
 10
181.325695
 20
347.490556
 42
-0.103970
  0
VERTEX
  8
0
 10
181.160688
 20
346.223132
 42
-0.035495
  0
VERTEX
  8
0
 10
180.421657
 20
344.511633
 42
-0.045001
  0
VERTEX
  8
0
 10
178.916564
 20
342.155817
 42
-0.040889
  0
VERTEX
  8
0
 10
176.969540
 20
340.024304
 42
-0.040751
  0
VERTEX
  8
0
 10
175.079701
 20
338.535017
 42
-0.292848
  0
VERTEX
  8
0
 10
173.972352
 20
338.517088
 42
0.244291
  0
VERTEX
  8
0
 10
173.528760
 20
338.550142
 42
0.039579
  0
VERTEX
  8
0
 10
172.738164
 20
338.134587
 42
0.036018
  0
VERTEX
  8
0
 10
171.808209
 20
337.449315
 42
0.024493
  0
VERTEX
  8
0
 10
170.851428
 20
336.547132
 42
0.056264
  0
VERTEX
  8
0
 10
169.599475
 20
334.911748
 42
0.078073
  0
VERTEX
  8
0
 10
168.907201
 20
333.204024
 42
0.047754
  0
VERTEX
  8
0
 10
168.583123
 20
330.797663
 42
0.009609
  0
VERTEX
  8
0
 10
168.500000
 20
326.472909
 42
-0.009774
  0
VERTEX
  8
0
 10
168.425259
 20
322.649882
 42
-0.035050
  0
VERTEX
  8
0
 10
168.159333
 20
320.223617
 42
-0.057918
  0
VERTEX
  8
0
 10
167.678208
 20
318.639964
 42
-0.132332
  0
VERTEX
  8
0
 10
166.905436
 20
317.672108
 42
0.076793
  0
VERTEX
  8
0
 10
166.156479
 20
316.920509
 42
0.018169
  0
VERTEX
  8
0
 10
165.162633
 20
315.448994
 42
0.018279
  0
VERTEX
  8
0
 10
164.132418
 20
313.654387
 42
0.017113
  0
VERTEX
  8
0
 10
163.211666
 20
311.750000
 42
-0.017384
  0
VERTEX
  8
0
 10
162.330643
 20
309.930294
 42
-0.025182
  0
VERTEX
  8
0
 10
161.418835
 20
308.395312
 42
-0.022986
  0
VERTEX
  8
0
 10
160.580175
 20
307.250676
 42
-0.226904
  0
VERTEX
  8
0
 10
160.056230
 20
307.000000
 42
0.375142
  0
VERTEX
  8
0
 10
159.169835
 20
306.226029
 42
0.045180
  0
VERTEX
  8
0
 10
159.043560
 20
303.416521
 42
0.044082
  0
VERTEX
  8
0
 10
159.487377
 20
300.111603
 42
0.064873
  0
VERTEX
  8
0
 10
160.493839
 20
297.364307
 42
-0.031025
  0
VERTEX
  8
0
 10
161.970022
 20
294.047118
 42
-0.202812
  0
VERTEX
  8
0
 10
161.892392
 20
292.264913
 42
-0.242562
  0
VERTEX
  8
0
 10
160.592447
 20
291.274356
 42
-0.043829
  0
VERTEX
  8
0
 10
157.468615
 20
291.000000
 42
0.047745
  0
VERTEX
  8
0
 10
153.965847
 20
290.664757
 42
0.245819
  0
VERTEX
  8
0
 10
152.490269
 20
289.488708
 42
0.204601
  0
VERTEX
  8
0
 10
152.465098
 20
287.420443
 42
0.033771
  0
VERTEX
  8
0
 10
154.272856
 20
283.762340
 42
-0.030782
  0
VERTEX
  8
0
 10
155.557661
 20
281.201099
 42
-0.051554
  0
VERTEX
  8
0
 10
156.269762
 20
278.902277
 42
-0.040846
  0
VERTEX
  8
0
 10
156.588931
 20
276.156783
 42
-0.012692
  0
VERTEX
  8
0
 10
156.625110
 20
272.000000
 42
-0.005339
  0
VERTEX
  8
0
 10
156.491366
 20
267.112413
 42
-0.078771
  0
VERTEX
  8
0
 10
156.159175
 20
265.432741
 42
-0.207600
  0
VERTEX
  8
0
 10
155.375005
 20
264.610749
 42
-0.071370
  0
VERTEX
  8
0
 10
153.750000
 20
264.183578
 42
0.046136
  0
VERTEX
  8
0
 10
152.697652
 20
263.962833
 42
0.061579
  0
VERTEX
  8
0
 10
151.807813
 20
263.563344
 42
0.076512
  0
VERTEX
  8
0
 10
151.203434
 20
263.056651
 42
0.182064
  0
VERTEX
  8
0
 10
151.000000
 20
262.516483
 42
0.094850
  0
VERTEX
  8
0
 10
151.454629
 20
260.141481
 42
0.016321
  0
VERTEX
  8
0
 10
153.294905
 20
255.917884
 42
0.018715
  0
VERTEX
  8
0
 10
155.503923
 20
251.684834
 42
0.045307
  0
VERTEX
  8
0
 10
157.519868
 20
248.794019
 42
-0.050068
  0
VERTEX
  8
0
 10
159.053504
 20
246.549679
 42
-0.072289
  0
VERTEX
  8
0
 10
159.887866
 20
244.299443
 42
-0.116091
  0
VERTEX
  8
0
 10
159.853732
 20
242.626507
 42
-0.307938
  0
VERTEX
  8
0
 10
159.000000
 20
241.875000
 42
-0.007526
  0
VERTEX
  8
0
 10
158.485264
 20
241.818512
 42
-0.002427
  0
VERTEX
  8
0
 10
157.720937
 20
241.750000
 42
-0.002420
  0
VERTEX
  8
0
 10
156.869905
 20
241.682025
 42
-0.002712
  0
VERTEX
  8
0
 10
156.050000
 20
241.625000
 42
0.087858
  0
VERTEX
  8
0
 10
153.585343
 20
241.023734
 42
0.273183
  0
VERTEX
  8
0
 10
152.626411
 20
239.688717
 42
0.148115
  0
VERTEX
  8
0
 10
153.087944
 20
237.463908
 42
0.026126
  0
VERTEX
  8
0
 10
155.346320
 20
233.787661
 42
-0.016969
  0
VERTEX
  8
0
 10
156.745015
 20
231.601585
 42
-0.019415
  0
VERTEX
  8
0
 10
157.926732
 20
229.419966
 42
-0.018923
  0
VERTEX
  8
0
 10
158.779486
 20
227.509169
 42
-0.095770
  0
VERTEX
  8
0
 10
159.000000
 20
226.368459
 42
0.059266
  0
VERTEX
  8
0
 10
159.133075
 20
225.249711
 42
0.015035
  0
VERTEX
  8
0
 10
159.616335
 20
223.481962
 42
0.015119
  0
VERTEX
  8
0
 10
160.295012
 20
221.482042
 42
0.014771
  0
VERTEX
  8
0
 10
161.098162
 20
219.510994
 42
-0.011102
  0
VERTEX
  8
0
 10
162.214759
 20
216.827207
 42
-0.065700
  0
VERTEX
  8
0
 10
162.576856
 20
215.352993
 42
-0.127975
  0
VERTEX
  8
0
 10
162.424780
 20
214.311002
 42
-0.096777
  0
VERTEX
  8
0
 10
161.776601
 20
213.348029
 42
-0.139468
  0
VERTEX
  8
0
 10
160.910812
 20
212.865730
 42
-0.240380
  0
VERTEX
  8
0
 10
160.128176
 20
213.057841
 42
-0.080828
  0
VERTEX
  8
0
 10
159.218296
 20
214.144740
 42
-0.009310
  0
VERTEX
  8
0
 10
157.638380
 20
216.923084
 42
0.034155
  0
VERTEX
  8
0
 10
155.182042
 20
220.783159
 42
0.053444
  0
VERTEX
  8
0
 10
152.524862
 20
223.682841
 42
0.067213
  0
VERTEX
  8
0
 10
149.907291
 20
225.427881
 42
0.150255
  0
VERTEX
  8
0
 10
147.568822
 20
225.794470
 42
0.152591
  0
VERTEX
  8
0
 10
146.191654
 20
225.136637
 42
0.114090
  0
VERTEX
  8
0
 10
145.243008
 20
223.735404
 42
0.129510
  0
VERTEX
  8
0
 10
145.072406
 20
222.195583
 42
0.216268
  0
VERTEX
  8
0
 10
145.766826
 20
221.119827
 42
-0.127820
  0
VERTEX
  8
0
 10
146.853509
 20
219.941432
 42
-0.076689
  0
VERTEX
  8
0
 10
147.487777
 20
218.134555
 42
-0.102498
  0
VERTEX
  8
0
 10
147.457164
 20
216.586184
 42
-0.350013
  0
VERTEX
  8
0
 10
146.722375
 20
216.000000
 42
-0.156041
  0
VERTEX
  8
0
 10
145.128002
 20
216.509994
 42
-0.073988
  0
VERTEX
  8
0
 10
143.557845
 20
218.023049
 42
-0.069449
  0
VERTEX
  8
0
 10
142.396938
 20
220.062259
 42
-0.094999
  0
VERTEX
  8
0
 10
142.000000
 20
222.132574
 42
0.149352
  0
VERTEX
  8
0
 10
141.194186
 20
224.770101
 42
0.054244
  0
VERTEX
  8
0
 10
138.642749
 20
227.790642
 42
0.050244
  0
VERTEX
  8
0
 10
135.096791
 20
230.546108
 42
0.055310
  0
VERTEX
  8
0
 10
131.181215
 20
232.436063
 42
-0.019192
  0
VERTEX
  8
0
 10
129.344839
 20
233.164354
 42
-0.014608
  0
VERTEX
  8
0
 10
127.391385
 20
234.096338
 42
-0.014833
  0
VERTEX
  8
0
 10
125.609242
 20
235.079286
 42
-0.033216
  0
VERTEX
  8
0
 10
124.333876
 20
235.952013
 42
0.025230
  0
VERTEX
  8
0
 10
122.762606
 20
237.064452
 42
0.121338
  0
VERTEX
  8
0
 10
121.731286
 20
237.410943
 42
0.117506
  0
VERTEX
  8
0
 10
120.640047
 20
237.244551
 42
0.023003
  0
VERTEX
  8
0
 10
118.822855
 20
236.408395
 42
-0.037000
  0
VERTEX
  8
0
 10
116.943835
 20
235.606676
 42
-0.113996
  0
VERTEX
  8
0
 10
115.578016
 20
235.466457
 42
-0.077897
  0
VERTEX
  8
0
 10
114.007436
 20
235.918401
 42
-0.011531
  0
VERTEX
  8
0
 10
111.039686
 20
237.384068
 42
0.025523
  0
VERTEX
  8
0
 10
108.853479
 20
238.388702
 42
0.016851
  0
VERTEX
  8
0
 10
106.251366
 20
239.326825
 42
0.016973
  0
VERTEX
  8
0
 10
103.652800
 20
240.069489
 42
0.031252
  0
VERTEX
  8
0
 10
101.490897
 20
240.467248
 42
-0.006872
  0
VERTEX
  8
0
 10
99.622831
 20
240.717579
 42
-0.009125
  0
VERTEX
  8
0
 10
97.931918
 20
240.999496
 42
-0.006864
  0
VERTEX
  8
0
 10
96.531905
 20
241.279191
 42
-0.085876
  0
VERTEX
  8
0
 10
96.032289
 20
241.480044
 42
0.129997
  0
VERTEX
  8
0
 10
95.160701
 20
241.744919
 42
0.002400
  0
VERTEX
  8
0
 10
90.316061
 20
241.898480
 42
0.006266
  0
VERTEX
  8
0
 10
85.036767
 20
241.974273
 42
0.006190
  0
VERTEX
  8
0
 10
79.735774
 20
241.918316
 42
-0.107294
  0
VERTEX
  8
0
 10
78.819098
 20
242.095404
 42
-0.024838
  0
VERTEX
  8
0
 10
77.398913
 20
242.788925
 42
-0.024530
  0
VERTEX
  8
0
 10
75.809129
 20
243.770172
 42
-0.021838
  0
VERTEX
  8
0
 10
74.257930
 20
244.938923
 42
0.015055
  0
VERTEX
  8
0
 10
72.745411
 20
246.111018
 42
0.018845
  0
VERTEX
  8
0
 10
71.271827
 20
247.100809
 42
0.017302
  0
VERTEX
  8
0
 10
69.996365
 20
247.829709
 42
0.121742
  0
VERTEX
  8
0
 10
69.307340
 20
248.000000
 42
0.209397
  0
VERTEX
  8
0
 10
68.374916
 20
247.591600
 42
0.028346
  0
VERTEX
  8
0
 10
66.986827
 20
245.904481
 42
0.026733
  0
VERTEX
  8
0
 10
65.801845
 20
244.089224
 42
0.287354
  0
VERTEX
  8
0
 10
65.831020
 20
243.250000
 42
-0.113860
  0
VERTEX
  8
0
 10
65.897350
 20
243.077780
 42
-0.011158
  0
VERTEX
  8
0
 10
65.950362
 20
242.632812
 42
-0.013658
  0
VERTEX
  8
0
 10
65.987659
 20
242.092723
 42
-0.010409
  0
VERTEX
  8
0
 10
66.000000
 20
241.500000
 42
-0.219151
  0
VERTEX
  8
0
 10
65.534273
 20
240.488462
 42
-0.176582
  0
VERTEX
  8
0
 10
64.401589
 20
240.064347
 42
-0.088973
  0
VERTEX
  8
0
 10
62.544602
 20
240.380753
 42
-0.032763
  0
VERTEX
  8
0
 10
60.099416
 20
241.448590
 42
0.115638
  0
VERTEX
  8
0
 10
55.872642
 20
242.514349
 42
0.023025
  0
VERTEX
  8
0
 10
48.032425
 20
242.284576
 42
0.018488
  0
VERTEX
  8
0
 10
40.257727
 20
241.407701
 42
0.231853
  0
VERTEX
  8
0
 10
37.892474
 20
239.772345
 42
-0.132746
  0
VERTEX
  8
0
 10
37.111107
 20
238.973206
 42
-0.086135
  0
VERTEX
  8
0
 10
35.894995
 20
238.514280
 42
-0.047243
  0
VERTEX
  8
0
 10
33.966062
 20
238.331280
 42
-0.011220
  0
VERTEX
  8
0
 10
30.735092
 20
238.403235
 42
0.014826
  0
VERTEX
  8
0
 10
27.460408
 20
238.452540
 42
0.043541
  0
VERTEX
  8
0
 10
25.219048
 20
238.223984
 42
0.059166
  0
VERTEX
  8
0
 10
23.464352
 20
237.668011
 42
0.052707
  0
VERTEX
  8
0
 10
21.813460
 20
236.699941
 42
-0.042192
  0
VERTEX
  8
0
 10
20.394639
 20
235.827444
 42
-0.056552
  0
VERTEX
  8
0
 10
18.979204
 20
235.304315
 42
-0.056459
  0
VERTEX
  8
0
 10
17.480709
 20
235.111094
 42
-0.041867
  0
VERTEX
  8
0
 10
15.813460
 20
235.225060
 42
0.027285
  0
VERTEX
  8
0
 10
12.540505
 20
235.544789
 42
0.186147
  0
VERTEX
  8
0
 10
11.031367
 20
235.035855
 42
0.222663
  0
VERTEX
  8
0
 10
10.408820
 20
233.711003
 42
0.039938
  0
VERTEX
  8
0
 10
10.629240
 20
230.917144
 42
-0.012250
  0
VERTEX
  8
0
 10
10.949646
 20
228.541558
 42
-0.134151
  0
VERTEX
  8
0
 10
10.800307
 20
227.599047
 42
-0.246183
  0
VERTEX
  8
0
 10
10.223814
 20
227.147757
 42
-0.049118
  0
VERTEX
  8
0
 10
8.877808
 20
227.035435
 42
-0.045350
  0
VERTEX
  8
0
 10
7.787209
 20
227.150965
 42
-0.023882
  0
VERTEX
  8
0
 10
6.464106
 20
227.480268
 42
-0.023558
  0
VERTEX
  8
0
 10
5.130969
 20
227.950039
 42
-0.033366
  0
VERTEX
  8
0
 10
4.000000
 20
228.500000
 42
0.065162
  0
VERTEX
  8
0
 10
0.767618
 20
229.825567
 42
0.627677
  0
VERTEX
  8
0
 10
0.041073
 20
228.978207
 42
0.080527
  0
VERTEX
  8
0
 10
2.104004
 20
225.780648
 42
0.009575
  0
VERTEX
  8
0
 10
7.890018
 20
219.604809
 42
-0.003836
  0
VERTEX
  8
0
 10
16.469052
 20
210.655895
 42
-0.024783
  0
VERTEX
  8
0
 10
20.531753
 20
205.901149
 42
-0.051505
  0
VERTEX
  8
0
 10
22.605171
 20
202.553961
 42
-0.093395
  0
VERTEX
  8
0
 10
23.447170
 20
199.456596
 42
0.068344
  0
VERTEX
  8
0
 10
24.136941
 20
196.307829
 42
0.062617
  0
VERTEX
  8
0
 10
25.661922
 20
193.358476
 42
0.068524
  0
VERTEX
  8
0
 10
27.680435
 20
191.143850
 42
0.137623
  0
VERTEX
  8
0
 10
29.821694
 20
190.184201
 42
-0.132285
  0
VERTEX
  8
0
 10
31.033753
 20
189.656183
 42
-0.011285
  0
VERTEX
  8
0
 10
33.659132
 20
187.460707
 42
-0.014312
  0
VERTEX
  8
0
 10
36.701756
 20
184.639542
 42
-0.010596
  0
VERTEX
  8
0
 10
39.906829
 20
181.356193
 42
0.014795
  0
VERTEX
  8
0
 10
45.875825
 20
175.343253
 42
0.111499
  0
VERTEX
  8
0
 10
49.295562
 20
173.305444
 42
0.260968
  0
VERTEX
  8
0
 10
51.826748
 20
173.805992
 42
0.100758
  0
VERTEX
  8
0
 10
54.110278
 20
176.723056
 42
-0.033134
  0
VERTEX
  8
0
 10
55.437031
 20
178.989640
 42
-0.440429
  0
VERTEX
  8
0
 10
56.291246
 20
179.114587
 42
-0.179511
  0
VERTEX
  8
0
 10
56.980048
 20
177.941860
 42
-0.010986
  0
VERTEX
  8
0
 10
57.612296
 20
173.864999
 42
0.021819
  0
VERTEX
  8
0
 10
57.954448
 20
171.935655
 42
0.025063
  0
VERTEX
  8
0
 10
58.452109
 20
170.132311
 42
0.025321
  0
VERTEX
  8
0
 10
59.020892
 20
168.665904
 42
0.114859
  0
VERTEX
  8
0
 10
59.571474
 20
167.940682
 42
0.135981
  0
VERTEX
  8
0
 10
61.287068
 20
167.169560
 42
0.102431
  0
VERTEX
  8
0
 10
63.361628
 20
167.277606
 42
0.098595
  0
VERTEX
  8
0
 10
65.288251
 20
168.214783
 42
0.115662
  0
VERTEX
  8
0
 10
66.580445
 20
169.776603
 42
-0.019062
  0
VERTEX
  8
0
 10
67.265903
 20
171.034237
 42
-0.184674
  0
VERTEX
  8
0
 10
67.734244
 20
171.404078
 42
-0.262870
  0
VERTEX
  8
0
 10
68.231410
 20
171.297630
 42
-0.038279
  0
VERTEX
  8
0
 10
68.977921
 20
170.526603
 42
0.044783
  0
VERTEX
  8
0
 10
69.558345
 20
169.942490
 42
0.040409
  0
VERTEX
  8
0
 10
70.252895
 20
169.448440
 42
0.042736
  0
VERTEX
  8
0
 10
70.952228
 20
169.108818
 42
0.091925
  0
VERTEX
  8
0
 10
71.539111
 20
169.000000
 42
-0.056760
  0
VERTEX
  8
0
 10
72.058853
 20
168.940808
 42
-0.057037
  0
VERTEX
  8
0
 10
72.551072
 20
168.766277
 42
-0.062656
  0
VERTEX
  8
0
 10
72.944001
 20
168.508928
 42
-0.117809
  0
VERTEX
  8
0
 10
73.166667
 20
168.204347
 42
0.110315
  0
VERTEX
  8
0
 10
73.495780
 20
167.739888
 42
0.006019
  0
VERTEX
  8
0
 10
74.847289
 20
166.548424
 42
0.009120
  0
VERTEX
  8
0
 10
76.510883
 20
165.169049
 42
0.006518
  0
VERTEX
  8
0
 10
78.419847
 20
163.684460
 42
0.018307
  0
VERTEX
  8
0
 10
80.919842
 20
161.932159
 42
0.041630
  0
VERTEX
  8
0
 10
82.951837
 20
160.844337
 42
0.054176
  0
VERTEX
  8
0
 10
84.756838
 20
160.285855
 42
0.064857
  0
VERTEX
  8
0
 10
86.531428
 20
160.175178
 42
-0.062139
  0
VERTEX
  8
0
 10
88.146676
 20
160.083212
 42
-0.023454
  0
VERTEX
  8
0
 10
90.354674
 20
159.571129
 42
-0.022397
  0
VERTEX
  8
0
 10
92.777140
 20
158.769484
 42
-0.022576
  0
VERTEX
  8
0
 10
95.111581
 20
157.756226
 42
0.005430
  0
VERTEX
  8
0
 10
97.529789
 20
156.606549
 42
0.003515
  0
VERTEX
  8
0
 10
100.351283
 20
155.326507
 42
0.003534
  0
VERTEX
  8
0
 10
103.125750
 20
154.114667
 42
0.006680
  0
VERTEX
  8
0
 10
105.382149
 20
153.183515
 42
0.011733
  0
VERTEX
  8
0
 10
108.341182
 20
152.088072
 42
0.071361
  0
VERTEX
  8
0
 10
109.940853
 20
151.782723
 42
0.103858
  0
VERTEX
  8
0
 10
111.284977
 20
152.000795
 42
0.038321
  0
VERTEX
  8
0
 10
113.027484
 20
152.830558
 42
-0.082388
  0
VERTEX
  8
0
 10
115.231486
 20
153.651652
 42
-0.118175
  0
VERTEX
  8
0
 10
117.305385
 20
153.562326
 42
-0.079007
  0
VERTEX
  8
0
 10
119.692736
 20
152.450081
 42
-0.021457
  0
VERTEX
  8
0
 10
123.052839
 20
149.966134
 42
0.051209
  0
VERTEX
  8
0
 10
124.705489
 20
148.890059
 42
0.081624
  0
VERTEX
  8
0
 10
126.306663
 20
148.373719
 42
0.052179
  0
VERTEX
  8
0
 10
128.454929
 20
148.277420
 42
0.010658
  0
VERTEX
  8
0
 10
132.251314
 20
148.584767
 42
0.009289
  0
VERTEX
  8
0
 10
136.296070
 20
149.075251
 42
0.076628
  0
VERTEX
  8
0
 10
138.065715
 20
149.607598
 42
0.141162
  0
VERTEX
  8
0
 10
139.106425
 20
150.530804
 42
0.057377
  0
VERTEX
  8
0
 10
139.938062
 20
152.252170
 42
-0.029232
  0
VERTEX
  8
0
 10
140.577361
 20
153.790448
 42
-0.124056
  0
VERTEX
  8
0
 10
141.213836
 20
154.547364
 42
-0.162293
  0
VERTEX
  8
0
 10
142.032931
 20
154.803424
 42
-0.060829
  0
VERTEX
  8
0
 10
143.239588
 20
154.633009
 42
0.011562
  0
VERTEX
  8
0
 10
144.196680
 20
154.400124
 42
0.010233
  0
VERTEX
  8
0
 10
145.203191
 20
154.201223
 42
0.010331
  0
VERTEX
  8
0
 10
146.117151
 20
154.059374
 42
0.030607
  0
VERTEX
  8
0
 10
146.750000
 20
154.013655
 42
-0.083178
  0
VERTEX
  8
0
 10
147.227392
 20
153.928313
 42
-0.091839
  0
VERTEX
  8
0
 10
147.632812
 20
153.692925
 42
-0.099374
  0
VERTEX
  8
0
 10
147.904013
 20
153.346001
 42
-0.116879
  0
VERTEX
  8
0
 10
148.000000
 20
152.940983
 42
-0.108972
  0
VERTEX
  8
0
 10
147.921712
 20
152.586039
 42
-0.182303
  0
VERTEX
  8
0
 10
147.706250
 20
152.374600
 42
-0.161196
  0
VERTEX
  8
0
 10
147.382100
 20
152.343488
 42
-0.082592
  0
VERTEX
  8
0
 10
147.000000
 20
152.500000
 42
0.193500
  0
VERTEX
  8
0
 10
146.621739
 20
152.565437
 42
0.184330
  0
VERTEX
  8
0
 10
146.293750
 20
152.352632
 42
0.108335
  0
VERTEX
  8
0
 10
146.071686
 20
151.848422
 42
0.049799
  0
VERTEX
  8
0
 10
146.000000
 20
151.130446
 42
-0.120993
  0
VERTEX
  8
0
 10
145.509709
 20
149.133997
 42
-0.098213
  0
VERTEX
  8
0
 10
144.124264
 20
147.411705
 42
-0.074542
  0
VERTEX
  8
0
 10
141.812601
 20
145.998353
 42
-0.038338
  0
VERTEX
  8
0
 10
138.587485
 20
144.917712
 42
0.047630
  0
VERTEX
  8
0
 10
135.296907
 20
143.746810
 42
0.055255
  0
VERTEX
  8
0
 10
132.460025
 20
142.017443
 42
0.046358
  0
VERTEX
  8
0
 10
129.708212
 20
139.451312
 42
0.021938
  0
VERTEX
  8
0
 10
126.640085
 20
135.686432
 42
-0.029983
  0
VERTEX
  8
0
 10
125.314684
 20
134.112411
 42
-0.022304
  0
VERTEX
  8
0
 10
123.677713
 20
132.536527
 42
-0.022709
  0
VERTEX
  8
0
 10
121.993948
 20
131.184991
 42
-0.046533
  0
VERTEX
  8
0
 10
120.541870
 20
130.318575
 42
0.059152
  0
VERTEX
  8
0
 10
119.016721
 20
129.355709
 42
0.032524
  0
VERTEX
  8
0
 10
117.393980
 20
127.855063
 42
0.030080
  0
VERTEX
  8
0
 10
115.818764
 20
125.982252
 42
0.027649
  0
VERTEX
  8
0
 10
114.431168
 20
123.882144
 42
-0.019183
  0
VERTEX
  8
0
 10
113.240671
 20
122.012304
 42
-0.026292
  0
VERTEX
  8
0
 10
112.021169
 20
120.434130
 42
-0.025151
  0
VERTEX
  8
0
 10
110.916669
 20
119.273804
 42
-0.192255
  0
VERTEX
  8
0
 10
110.230904
 20
119.000000
 42
0.070303
  0
VERTEX
  8
0
 10
109.756141
 20
118.932914
 42
0.145278
  0
VERTEX
  8
0
 10
109.443381
 20
118.732759
 42
0.189734
  0
VERTEX
  8
0
 10
109.339065
 20
118.435939
 42
0.129855
  0
VERTEX
  8
0
 10
109.444227
 20
118.090242
 42
-0.184158
  0
VERTEX
  8
0
 10
109.700748
 20
116.751650
 42
-0.106806
  0
VERTEX
  8
0
 10
109.073448
 20
115.215547
 42
-0.067895
  0
VERTEX
  8
0
 10
107.518786
 20
113.499477
 42
-0.028638
  0
VERTEX
  8
0
 10
105.021913
 20
111.633199
 42
0.036279
  0
VERTEX
  8
0
 10
103.121867
 20
110.167280
 42
0.051476
  0
VERTEX
  8
0
 10
101.686365
 20
108.589697
 42
0.049165
  0
VERTEX
  8
0
 10
100.558380
 20
106.695786
 42
0.029567
  0
VERTEX
  8
0
 10
99.587815
 20
104.264386
 42
-0.023495
  0
VERTEX
  8
0
 10
98.826597
 20
102.288115
 42
-0.022049
  0
VERTEX
  8
0
 10
97.868680
 20
100.348527
 42
-0.022633
  0
VERTEX
  8
0
 10
96.865902
 20
98.705901
 42
-0.067441
  0
VERTEX
  8
0
 10
95.990847
 20
97.724191
 42
0.068082
  0
VERTEX
  8
0
 10
95.148356
 20
96.776584
 42
0.055250
  0
VERTEX
  8
0
 10
94.519506
 20
95.569863
 42
0.050895
  0
VERTEX
  8
0
 10
94.130562
 20
94.155225
 42
0.041676
  0
VERTEX
  8
0
 10
94.000000
 20
92.591575
 42
-0.026293
  0
VERTEX
  8
0
 10
93.839612
 20
89.543651
 42
-0.080175
  0
VERTEX
  8
0
 10
93.298218
 20
87.549935
 42
-0.135410
  0
VERTEX
  8
0
 10
92.357851
 20
86.420600
 42
-0.152993
  0
VERTEX
  8
0
 10
91.015456
 20
86.000000
 42
0.112085
  0
VERTEX
  8
0
 10
89.528633
 20
85.662459
 42
0.109157
  0
VERTEX
  8
0
 10
88.316755
 20
84.714263
 42
0.077130
  0
VERTEX
  8
0
 10
87.323993
 20
83.040909
 42
0.030682
  0
VERTEX
  8
0
 10
86.481507
 20
80.500000
 42
-0.000139
  0
VERTEX
  8
0
 10
86.147918
 20
79.241424
 42
-0.000125
  0
VERTEX
  8
0
 10
85.802402
 20
77.940625
 42
-0.000126
  0
VERTEX
  8
0
 10
85.492459
 20
76.776103
 42
-0.000402
  0
VERTEX
  8
0
 10
85.285018
 20
76.000000
 42
0.045694
  0
VERTEX
  8
0
 10
85.051992
 20
74.647841
 42
0.019686
  0
VERTEX
  8
0
 10
84.978827
 20
72.818211
 42
0.012538
  0
VERTEX
  8
0
 10
85.043399
 20
70.180324
 42
0.003377
  0
VERTEX
  8
0
 10
85.279011
 20
66.000000
 42
-0.023749
  0
VERTEX
  8
0
 10
85.313164
 20
63.806139
 42
-0.197960
  0
VERTEX
  8
0
 10
84.913822
 20
62.918560
 42
-0.158585
  0
VERTEX
  8
0
 10
83.955366
 20
62.464304
 42
-0.013953
  0
VERTEX
  8
0
 10
81.250000
 20
62.192502
 42
0.065748
  0
VERTEX
  8
0
 10
78.231914
 20
61.569592
 42
0.262142
  0
VERTEX
  8
0
 10
77.026949
 20
60.204593
 42
0.167736
  0
VERTEX
  8
0
 10
77.304859
 20
57.936403
 42
0.027207
  0
VERTEX
  8
0
 10
79.499911
 20
54.000141
 42
-0.015638
  0
VERTEX
  8
0
 10
80.992972
 20
51.462515
 42
-0.097603
  0
VERTEX
  8
0
 10
81.444778
 20
50.032207
 42
-0.104321
  0
VERTEX
  8
0
 10
81.304166
 20
48.579871
 42
-0.019053
  0
VERTEX
  8
0
 10
80.392143
 20
46.022043
 42
0.021237
  0
VERTEX
  8
0
 10
79.815621
 20
44.382557
 42
0.024645
  0
VERTEX
  8
0
 10
79.412297
 20
42.778916
 42
0.024758
  0
VERTEX
  8
0
 10
79.208353
 20
41.407320
 42
0.116653
  0
VERTEX
  8
0
 10
79.314087
 20
40.623885
 42
-0.164493
  0
VERTEX
  8
0
 10
79.368086
 20
39.286092
 42
-0.142438
  0
VERTEX
  8
0
 10
78.608534
 20
38.097677
 42
-0.108825
  0
VERTEX
  8
0
 10
77.119042
 20
37.279448
 42
-0.071505
  0
VERTEX
  8
0
 10
75.175000
 20
37.000000
 42
0.039229
  0
VERTEX
  8
0
 10
73.805985
 20
36.892423
 42
0.237139
  0
VERTEX
  8
0
 10
73.244449
 20
36.489404
 42
0.160184
  0
VERTEX
  8
0
 10
73.109686
 20
35.679782
 42
0.016486
  0
VERTEX
  8
0
 10
73.472222
 20
33.750000
 42
-0.009085
  0
VERTEX
  8
0
 10
73.747457
 20
32.395701
 42
-0.008727
  0
VERTEX
  8
0
 10
73.977345
 20
31.014062
 42
-0.008688
  0
VERTEX
  8
0
 10
74.137537
 20
29.789232
 42
-0.030985
  0
VERTEX
  8
0
 10
74.177605
 20
29.000000
 42
0.051224
  0
VERTEX
  8
0
 10
74.257813
 20
28.122316
 42
0.007738
  0
VERTEX
  8
0
 10
74.624307
 20
26.394078
 42
0.008609
  0
VERTEX
  8
0
 10
75.125453
 20
24.360848
 42
0.007348
  0
VERTEX
  8
0
 10
75.721941
 20
22.235160
 42
-0.009259
  0
VERTEX
  8
0
 10
76.594055
 20
19.080938
 42
-0.065742
  0
VERTEX
  8
0
 10
76.783550
 20
17.508601
 42
-0.119875
  0
VERTEX
  8
0
 10
76.492495
 20
16.368573
 42
-0.061826
  0
VERTEX
  8
0
 10
75.641558
 20
15.156420
 42
0.048259
  0
VERTEX
  8
0
 10
75.013110
 20
14.310798
 42
0.035493
  0
VERTEX
  8
0
 10
74.482208
 20
13.270087
 42
0.036193
  0
VERTEX
  8
0
 10
74.118535
 20
12.202822
 42
0.064102
  0
VERTEX
  8
0
 10
74.000000
 20
11.282043
 42
0.116871
  0
VERTEX
  8
0
 10
74.461770
 20
9.333478
 42
0.041662
  0
VERTEX
  8
0
 10
75.963021
 20
6.877433
 42
0.082894
  0
VERTEX
  8
0
 10
77.331335
 20
5.541400
 42
0.597546
  0
VERTEX
  8
0
 10
77.966731
 20
5.863499
 42
-0.341047
  0
VERTEX
  8
0
 10
78.610049
 20
6.656196
 42
-0.084221
  0
VERTEX
  8
0
 10
80.396044
 20
6.770025
 42
-0.049505
  0
VERTEX
  8
0
 10
83.124899
 20
6.207400
 42
-0.022189
  0
VERTEX
  8
0
 10
86.573644
 20
4.961677
 42
0.073263
  0
VERTEX
  8
0
 10
89.595196
 20
4.207079
 42
0.097845
  0
VERTEX
  8
0
 10
92.402508
 20
4.479112
 42
0.104984
  0
VERTEX
  8
0
 10
94.752097
 20
5.765357
 42
0.096163
  0
VERTEX
  8
0
 10
96.464420
 20
7.931195
 42
-0.107721
  0
VERTEX
  8
0
 10
98.188121
 20
10.011765
 42
-0.053482
  0
VERTEX
  8
0
 10
101.109728
 20
11.833119
 42
-0.053158
  0
VERTEX
  8
0
 10
104.393168
 20
13.010786
 42
-0.096804
  0
VERTEX
  8
0
 10
107.228968
 20
13.138922
 42
0.129129
  0
VERTEX
  8
0
 10
110.024929
 20
13.444846
 42
0.031111
  0
VERTEX
  8
0
 10
114.300733
 20
15.395583
 42
0.032012
  0
VERTEX
  8
0
 10
118.345164
 20
17.898816
 42
0.105136
  0
VERTEX
  8
0
 10
120.458614
 20
20.199225
 42
-0.023204
  0
VERTEX
  8
0
 10
121.161183
 20
21.271659
 42
-0.030379
  0
VERTEX
  8
0
 10
121.904218
 20
22.177272
 42
-0.031130
  0
VERTEX
  8
0
 10
122.590159
 20
22.830162
 42
-0.176416
  0
VERTEX
  8
0
 10
123.056536
 20
23.000000
 42
0.033934
  0
VERTEX
  8
0
 10
124.325552
 20
23.086226
 42
0.048425
  0
VERTEX
  8
0
 10
125.423607
 20
23.346179
 42
0.029925
  0
VERTEX
  8
0
 10
126.784951
 20
23.904279
 42
0.005712
  0
VERTEX
  8
0
 10
129.182151
 20
25.092927
 42
0.013683
  0
VERTEX
  8
0
 10
130.637853
 20
25.886497
 42
0.016189
  0
VERTEX
  8
0
 10
131.966813
 20
26.717560
 42
0.015137
  0
VERTEX
  8
0
 10
133.035440
 20
27.482882
 42
0.091618
  0
VERTEX
  8
0
 10
133.491168
 20
27.985710
 42
-0.108100
  0
VERTEX
  8
0
 10
133.867477
 20
28.374615
 42
-0.050906
  0
VERTEX
  8
0
 10
134.489167
 20
28.702052
 42
-0.047114
  0
VERTEX
  8
0
 10
135.238758
 20
28.924833
 42
-0.048721
  0
VERTEX
  8
0
 10
136.008331
 20
29.000000
 42
0.113268
  0
VERTEX
  8
0
 10
136.936576
 20
29.213014
 42
0.032551
  0
VERTEX
  8
0
 10
138.226829
 20
29.945317
 42
0.030953
  0
VERTEX
  8
0
 10
139.615899
 20
30.986456
 42
0.028537
  0
VERTEX
  8
0
 10
140.906203
 20
32.218099
 42
-0.019074
  0
VERTEX
  8
0
 10
142.833345
 20
34.128579
 42
-0.112565
  0
VERTEX
  8
0
 10
144.060119
 20
34.828910
 42
-0.117694
  0
VERTEX
  8
0
 10
145.443605
 20
34.912340
 42
-0.021692
  0
VERTEX
  8
0
 10
147.956889
 20
34.357029
 42
0.008706
  0
VERTEX
  8
0
 10
149.507481
 20
33.971945
 42
0.014990
  0
VERTEX
  8
0
 10
150.812336
 20
33.712826
 42
0.009075
  0
VERTEX
  8
0
 10
151.860222
 20
33.556700
 42
0.452749
  0
VERTEX
  8
0
 10
152.000000
 20
33.679423
 42
0.140357
  0
VERTEX
  8
0
 10
151.925160
 20
33.940778
 42
0.004914
  0
VERTEX
  8
0
 10
151.352992
 20
34.838151
 42
0.008798
  0
VERTEX
  8
0
 10
150.641371
 20
35.889489
 42
0.006002
  0
VERTEX
  8
0
 10
149.797420
 20
37.060134
 42
0.000000
  0
VERTEX
  8
0
 10
147.594839
 20
40.039284
 42
0.000000
  0
VERTEX
  8
0
 10
149.825826
 20
42.269642
 42
-0.052671
  0
VERTEX
  8
0
 10
151.197893
 20
43.379208
 42
-0.076417
  0
VERTEX
  8
0
 10
152.616380
 20
44.016466
 42
-0.058651
  0
VERTEX
  8
0
 10
154.426577
 20
44.294730
 42
-0.019445
  0
VERTEX
  8
0
 10
157.117398
 20
44.285241
 42
0.000000
  0
VERTEX
  8
0
 10
162.177982
 20
44.070481
 42
0.000000
  0
VERTEX
  8
0
 10
161.505819
 20
48.957691
 42
-0.013993
  0
VERTEX
  8
0
 10
161.188671
 20
51.864020
 42
-0.088891
  0
VERTEX
  8
0
 10
161.331408
 20
53.336903
 42
-0.133308
  0
VERTEX
  8
0
 10
161.957797
 20
54.384301
 42
-0.046715
  0
VERTEX
  8
0
 10
163.340630
 20
55.487534
 42
-0.029421
  0
VERTEX
  8
0
 10
164.859185
 20
56.359452
 42
-0.110667
  0
VERTEX
  8
0
 10
165.918727
 20
56.620937
 42
-0.102029
  0
VERTEX
  8
0
 10
167.034906
 20
56.415709
 42
-0.023019
  0
VERTEX
  8
0
 10
168.797018
 20
55.604966
 42
0.030641
  0
VERTEX
  8
0
 10
171.085586
 20
54.593951
 42
0.238107
  0
VERTEX
  8
0
 10
172.211106
 20
54.721434
 42
0.366669
  0
VERTEX
  8
0
 10
172.464800
 20
55.579059
 42
0.048971
  0
VERTEX
  8
0
 10
171.464695
 20
57.353868
 42
-0.038162
  0
VERTEX
  8
0
 10
170.903884
 20
58.300731
 42
-0.028584
  0
VERTEX
  8
0
 10
170.430254
 20
59.416963
 42
-0.029196
  0
VERTEX
  8
0
 10
170.104458
 20
60.525862
 42
-0.056908
  0
VERTEX
  8
0
 10
170.000000
 20
61.440670
 42
-0.155849
  0
VERTEX
  8
0
 10
170.606805
 20
63.340163
 42
-0.050237
  0
VERTEX
  8
0
 10
172.576838
 20
65.591725
 42
-0.050326
  0
VERTEX
  8
0
 10
174.983783
 20
67.425415
 42
-0.138492
  0
VERTEX
  8
0
 10
177.018437
 20
68.000000
 42
0.101358
  0
VERTEX
  8
0
 10
177.748951
 20
68.149624
 42
0.134966
  0
VERTEX
  8
0
 10
178.276650
 20
68.569730
 42
0.110895
  0
VERTEX
  8
0
 10
178.581602
 20
69.272830
 42
0.054520
  0
VERTEX
  8
0
 10
178.659370
 20
70.250000
 42
-0.054754
  0
VERTEX
  8
0
 10
178.745341
 20
71.323919
 42
-0.023678
  0
VERTEX
  8
0
 10
179.082075
 20
72.720312
 42
-0.023088
  0
VERTEX
  8
0
 10
179.584477
 20
74.186392
 42
-0.028335
  0
VERTEX
  8
0
 10
180.191647
 20
75.500000
 42
0.021829
  0
VERTEX
  8
0
 10
180.887010
 20
76.954452
 42
0.010355
  0
VERTEX
  8
0
 10
181.660768
 20
78.882682
 42
0.010241
  0
VERTEX
  8
0
 10
182.388095
 20
80.936082
 42
0.014283
  0
VERTEX
  8
0
 10
182.947922
 20
82.802747
 42
-0.047087
  0
VERTEX
  8
0
 10
184.109695
 20
85.918392
 42
-0.050885
  0
VERTEX
  8
0
 10
185.810467
 20
88.675675
 42
-0.060800
  0
VERTEX
  8
0
 10
187.583188
 20
90.482627
 42
-0.316771
  0
VERTEX
  8
0
 10
188.900171
 20
90.561698
 42
0.446253
  0
VERTEX
  8
0
 10
189.261897
 20
90.668026
 42
0.033741
  0
VERTEX
  8
0
 10
189.685722
 20
91.735405
 42
0.029162
  0
VERTEX
  8
0
 10
190.090782
 20
93.307222
 42
0.015870
  0
VERTEX
  8
0
 10
190.412758
 20
95.275223
 42
-0.001050
  0
VERTEX
  8
0
 10
191.184801
 20
101.066478
 42
-0.011268
  0
VERTEX
  8
0
 10
191.555507
 20
103.405734
 42
-0.028666
  0
VERTEX
  8
0
 10
191.877317
 20
104.737965
 42
-0.064901
  0
VERTEX
  8
0
 10
192.303159
 20
105.681505
 42
0.078322
  0
VERTEX
  8
0
 10
192.555607
 20
106.283210
 42
0.014614
  0
VERTEX
  8
0
 10
192.807936
 20
107.457282
 42
0.015331
  0
VERTEX
  8
0
 10
193.022620
 20
108.860549
 42
0.013478
  0
VERTEX
  8
0
 10
193.162013
 20
110.335946
 42
-0.022191
  0
VERTEX
  8
0
 10
193.319393
 20
111.740053
 42
-0.034792
  0
VERTEX
  8
0
 10
193.590981
 20
112.923684
 42
-0.038310
  0
VERTEX
  8
0
 10
193.924416
 20
113.779072
 42
-0.288238
  0
VERTEX
  8
0
 10
194.275816
 20
114.000000
 42
-0.162701
  0
VERTEX
  8
0
 10
195.443552
 20
113.609684
 42
-0.061471
  0
VERTEX
  8
0
 10
196.697629
 20
112.398657
 42
-0.063432
  0
VERTEX
  8
0
 10
197.567213
 20
110.991027
 42
-0.250092
  0
VERTEX
  8
0
 10
197.504741
 20
110.007671
 42
0.068573
  0
VERTEX
  8
0
 10
197.334046
 20
109.621965
 42
0.142670
  0
VERTEX
  8
0
 10
197.335257
 20
109.296003
 42
0.190412
  0
VERTEX
  8
0
 10
197.503017
 20
109.081386
 42
0.133539
  0
VERTEX
  8
0
 10
197.802311
 20
109.000000
 42
-0.278409
  0
VERTEX
  8
0
 10
198.117939
 20
108.809486
 42
-0.079933
  0
VERTEX
  8
0
 10
198.308069
 20
108.245477
 42
-0.055682
  0
VERTEX
  8
0
 10
198.353219
 20
107.415813
 42
-0.033012
  0
VERTEX
  8
0
 10
198.231640
 20
106.431412
 42
0.073115
  0
VERTEX
  8
0
 10
198.172022
 20
105.042990
 42
0.077655
  0
VERTEX
  8
0
 10
198.519491
 20
103.726531
 42
0.060453
  0
VERTEX
  8
0
 10
199.343727
 20
102.332010
 42
0.025837
  0
VERTEX
  8
0
 10
200.751692
 20
100.681412
 42
-0.033961
  0
VERTEX
  8
0
 10
201.996900
 20
99.172687
 42
-0.021377
  0
VERTEX
  8
0
 10
203.248578
 20
97.259540
 42
-0.021440
  0
VERTEX
  8
0
 10
204.323311
 20
95.262625
 42
-0.036404
  0
VERTEX
  8
0
 10
205.023417
 20
93.500000
 42
0.027197
  0
VERTEX
  8
0
 10
205.707634
 20
91.680517
 42
0.014360
  0
VERTEX
  8
0
 10
206.741621
 20
89.500000
 42
0.014248
  0
VERTEX
  8
0
 10
207.931000
 20
87.322870
 42
0.021325
  0
VERTEX
  8
0
 10
209.102339
 20
85.500000
 42
-0.031786
  0
VERTEX
  8
0
 10
210.261051
 20
83.611085
 42
-0.018714
  0
VERTEX
  8
0
 10
211.411797
 20
81.224349
 42
-0.018677
  0
VERTEX
  8
0
 10
212.386890
 20
78.743404
 42
-0.030170
  0
VERTEX
  8
0
 10
213.006757
 20
76.561613
 42
0.027441
  0
VERTEX
  8
0
 10
213.572718
 20
74.527429
 42
0.030734
  0
VERTEX
  8
0
 10
214.341249
 20
72.645362
 42
0.033113
  0
VERTEX
  8
0
 10
215.203321
 20
71.123275
 42
0.094847
  0
VERTEX
  8
0
 10
216.046454
 20
70.254909
 42
-0.075230
  0
VERTEX
  8
0
 10
216.803796
 20
69.533375
 42
-0.051222
  0
VERTEX
  8
0
 10
217.433942
 20
68.521711
 42
-0.050254
  0
VERTEX
  8
0
 10
217.857292
 20
67.377227
 42
-0.063554
  0
VERTEX
  8
0
 10
218.000000
 20
66.259020
 42
0.098016
  0
VERTEX
  8
0
 10
218.880797
 20
61.809055
 42
0.053182
  0
VERTEX
  8
0
 10
221.550353
 20
56.888368
 42
0.070189
  0
VERTEX
  8
0
 10
224.539781
 20
53.637275
 42
0.453902
  0
VERTEX
  8
0
 10
226.475023
 20
53.959586
 42
-0.307131
  0
VERTEX
  8
0
 10
227.518488
 20
54.427134
 42
-0.064015
  0
VERTEX
  8
0
 10
229.536788
 20
53.797095
 42
-0.061047
  0
VERTEX
  8
0
 10
231.414943
 20
52.639442
 42
-0.227949
  0
VERTEX
  8
0
 10
232.000000
 20
51.422818
 42
0.079125
  0
VERTEX
  8
0
 10
232.080744
 20
50.915783
 42
0.068238
  0
VERTEX
  8
0
 10
232.316608
 20
50.430125
 42
0.070254
  0
VERTEX
  8
0
 10
232.665853
 20
50.038809
 42
0.095317
  0
VERTEX
  8
0
 10
233.077814
 20
49.807395
 42
-0.179465
  0
VERTEX
  8
0
 10
233.595462
 20
49.391442
 42
-0.017045
  0
VERTEX
  8
0
 10
234.394072
 20
47.945654
 42
-0.020075
  0
VERTEX
  8
0
 10
235.242853
 20
46.097028
 42
-0.014478
  0
VERTEX
  8
0
 10
236.045168
 20
43.974062
 42
0.006591
  0
VERTEX
  8
0
 10
236.773809
 20
41.950064
 42
0.015028
  0
VERTEX
  8
0
 10
237.389246
 20
40.447692
 42
0.027766
  0
VERTEX
  8
0
 10
237.815533
 20
39.617480
 42
0.753711
  0
VERTEX
  8
0
 10
237.967354
 20
39.656380
 42
-0.162016
  0
VERTEX
  8
0
 10
238.117801
 20
40.069217
 42
-0.118929
  0
VERTEX
  8
0
 10
238.504473
 20
40.371393
 42
-0.092579
  0
VERTEX
  8
0
 10
239.078298
 20
40.513014
 42
-0.063237
  0
VERTEX
  8
0
 10
239.750000
 20
40.466611
 42
-0.001310
  0
VERTEX
  8
0
 10
240.610411
 20
40.294078
 42
-0.000524
  0
VERTEX
  8
0
 10
241.787520
 20
40.053543
 42
-0.000519
  0
VERTEX
  8
0
 10
243.055873
 20
39.791604
 42
-0.000655
  0
VERTEX
  8
0
 10
244.228790
 20
39.546502
 42
-0.102107
  0
VERTEX
  8
0
 10
245.784794
 20
38.868695
 42
-0.046892
  0
VERTEX
  8
0
 10
247.472860
 20
37.423481
 42
-0.032227
  0
VERTEX
  8
0
 10
249.450948
 20
35.096829
 42
-0.011641
  0
VERTEX
  8
0
 10
251.962751
 20
31.555201
 42
0.005868
  0
VERTEX
  8
0
 10
253.965420
 20
28.661211
 42
0.008004
  0
VERTEX
  8
0
 10
255.842215
 20
26.103752
 42
0.005564
  0
VERTEX
  8
0
 10
257.465528
 20
24.013091
 42
0.086684
  0
VERTEX
  8
0
 10
258.140901
 20
23.412918
 42
0.093375
  0
VERTEX
  8
0
 10
258.862806
 20
23.135105
 42
0.016633
  0
VERTEX
  8
0
 10
260.299682
 20
22.921040
 42
0.017469
  0
VERTEX
  8
0
 10
262.022873
 20
22.783419
 42
0.014970
  0
VERTEX
  8
0
 10
263.842776
 20
22.756442
 42
-0.036428
  0
VERTEX
  8
0
 10
266.160011
 20
22.622571
 42
-0.033401
  0
VERTEX
  8
0
 10
268.503140
 20
22.154156
 42
-0.031129
  0
VERTEX
  8
0
 10
270.914251
 20
21.338178
 42
-0.023871
  0
VERTEX
  8
0
 10
273.435835
 20
20.162454
 42
0.014389
  0
VERTEX
  8
0
 10
275.522478
 20
19.140934
 42
0.015719
  0
VERTEX
  8
0
 10
277.604475
 20
18.272820
 42
0.015319
  0
VERTEX
  8
0
 10
279.424439
 20
17.643390
 42
0.071790
  0
VERTEX
  8
0
 10
280.515570
 20
17.468424
 42
-0.044978
  0
VERTEX
  8
0
 10
281.519432
 20
17.362061
 42
-0.015914
  0
VERTEX
  8
0
 10
282.929117
 20
17.036032
 42
-0.015648
  0
VERTEX
  8
0
 10
284.463292
 20
16.577545
 42
-0.017753
  0
VERTEX
  8
0
 10
285.901525
 20
16.040790
 42
-0.006868
  0
VERTEX
  8
0
 10
287.936599
 20
15.164894
 42
-0.153520
  0
VERTEX
  8
0
 10
288.411399
 20
14.744383
 42
-0.432471
  0
VERTEX
  8
0
 10
288.305032
 20
14.367482
 42
-0.031275
  0
VERTEX
  8
0
 10
287.201327
 20
13.878772
 42
0.088658
  0
VERTEX
  8
0
 10
285.205633
 20
12.706333
 42
0.124182
  0
VERTEX
  8
0
 10
284.016648
 20
11.025560
 42
0.134042
  0
VERTEX
  8
0
 10
283.817470
 20
9.081210
 42
0.112116
  0
VERTEX
  8
0
 10
284.604263
 20
7.154606
 42
0.073867
  0
VERTEX
  8
0
 10
285.631900
 20
6.070096
 42
0.090471
  0
VERTEX
  8
0
 10
286.865624
 20
5.420887
 42
0.059870
  0
VERTEX
  8
0
 10
288.628638
 20
5.092137
 42
0.016191
  0
VERTEX
  8
0
 10
291.473297
 20
5.000000
 42
0.016701
  0
VERTEX
  8
0
 10
294.505822
 20
5.101322
 42
0.071572
  0
VERTEX
  8
0
 10
296.270254
 20
5.476842
 42
0.096348
  0
VERTEX
  8
0
 10
297.586672
 20
6.274382
 42
0.044717
  0
VERTEX
  8
0
 10
298.946584
 20
7.750000
 42
0.000000
  0
VERTEX
  8
0
 10
301.059981
 20
10.500000
 42
0.000000
  0
VERTEX
  8
0
 10
303.279990
 20
7.588951
 42
0.004902
  0
VERTEX
  8
0
 10
304.293656
 20
6.286436
 42
0.003019
  0
VERTEX
  8
0
 10
305.510836
 20
4.772518
 42
0.003027
  0
VERTEX
  8
0
 10
306.732551
 20
3.290032
 42
0.005416
  0
VERTEX
  8
0
 10
307.756900
 20
2.088951
 42
0.000000
  0
VERTEX
  8
0
 10
310.013800
 20
-0.500000
 42
0.000000
  0
VERTEX
  8
0
 10
312.530794
 20
2.500000
 42
-0.023372
  0
VERTEX
  8
0
 10
313.571461
 20
3.628775
 42
-0.031737
  0
VERTEX
  8
0
 10
314.616987
 20
4.538034
 42
-0.032856
  0
VERTEX
  8
0
 10
315.538493
 20
5.150587
 42
-0.196685
  0
VERTEX
  8
0
 10
316.098224
 20
5.225223
 42
0.114998
  0
VERTEX
  8
0
 10
316.447182
 20
5.215848
 42
0.278492
  0
VERTEX
  8
0
 10
316.629399
 20
5.384024
 42
0.163871
  0
VERTEX
  8
0
 10
316.615064
 20
5.720124
 42
0.046558
  0
VERTEX
  8
0
 10
316.379447
 20
6.195059
 42
-0.112651
  0
VERTEX
  8
0
 10
315.827217
 20
7.811412
 42
-0.006794
  0
VERTEX
  8
0
 10
315.356593
 20
12.953168
 42
-0.009291
  0
VERTEX
  8
0
 10
314.972963
 20
19.436113
 42
-0.005310
  0
VERTEX
  8
0
 10
314.738463
 20
27.275244
 42
-0.013388
  0
VERTEX
  8
0
 10
314.762225
 20
30.448420
 42
-0.060686
  0
VERTEX
  8
0
 10
315.048190
 20
32.272742
 42
-0.098463
  0
VERTEX
  8
0
 10
315.685217
 20
33.517546
 42
-0.072750
  0
VERTEX
  8
0
 10
316.813534
 20
34.581948
 42
0.103130
  0
VERTEX
  8
0
 10
318.353069
 20
36.220505
 42
0.154247
  0
VERTEX
  8
0
 10
318.821464
 20
38.112919
 42
0.068801
  0
VERTEX
  8
0
 10
318.231576
 20
41.010539
 42
0.008964
  0
VERTEX
  8
0
 10
316.028941
 20
46.931482
 42
-0.006729
  0
VERTEX
  8
0
 10
314.776589
 20
50.252452
 42
-0.004895
  0
VERTEX
  8
0
 10
313.469766
 20
53.977959
 42
-0.004946
  0
VERTEX
  8
0
 10
312.299350
 20
57.537362
 42
-0.010811
  0
VERTEX
  8
0
 10
311.488983
 20
60.291356
 42
0.022914
  0
VERTEX
  8
0
 10
310.645830
 20
62.920141
 42
0.032397
  0
VERTEX
  8
0
 10
309.641500
 20
65.163304
 42
0.037133
  0
VERTEX
  8
0
 10
308.506156
 20
66.974339
 42
0.060730
  0
VERTEX
  8
0
 10
307.265605
 20
68.291356
 42
-0.018336
  0
VERTEX
  8
0
 10
303.899971
 20
71.307226
 42
-0.028960
  0
VERTEX
  8
0
 10
301.271207
 20
74.154128
 42
-0.032498
  0
VERTEX
  8
0
 10
299.493554
 20
76.629965
 42
-0.140344
  0
VERTEX
  8
0
 10
299.000000
 20
78.353704
 42
-0.214524
  0
VERTEX
  8
0
 10
299.465629
 20
79.389020
 42
-0.167509
  0
VERTEX
  8
0
 10
300.617051
 20
79.867139
 42
-0.062868
  0
VERTEX
  8
0
 10
302.846833
 20
79.724392
 42
-0.011189
  0
VERTEX
  8
0
 10
306.940610
 20
78.843785
 42
0.256312
  0
VERTEX
  8
0
 10
308.204191
 20
79.190179
 42
0.229971
  0
VERTEX
  8
0
 10
308.673119
 20
80.477485
 42
0.103540
  0
VERTEX
  8
0
 10
307.978785
 20
82.651825
 42
0.053532
  0
VERTEX
  8
0
 10
306.307823
 20
84.980554
 42
0.036948
  0
VERTEX
  8
0
 10
304.966859
 20
86.274536
 42
0.037966
  0
VERTEX
  8
0
 10
303.461602
 20
87.344188
 42
0.040648
  0
VERTEX
  8
0
 10
301.939659
 20
88.099496
 42
0.067659
  0
VERTEX
  8
0
 10
300.553055
 20
88.445151
 42
-0.098309
  0
VERTEX
  8
0
 10
298.167067
 20
89.196784
 42
-0.077852
  0
VERTEX
  8
0
 10
296.020604
 20
90.850857
 42
-0.079394
  0
VERTEX
  8
0
 10
294.518106
 20
93.045198
 42
-0.110371
  0
VERTEX
  8
0
 10
293.995222
 20
95.360784
 42
0.105547
  0
VERTEX
  8
0
 10
293.762688
 20
96.438291
 42
0.027982
  0
VERTEX
  8
0
 10
292.947398
 20
98.008867
 42
0.027098
  0
VERTEX
  8
0
 10
291.796114
 20
99.732271
 42
0.024944
  0
VERTEX
  8
0
 10
290.434869
 20
101.371530
 42
-0.020056
  0
VERTEX
  8
0
 10
288.906210
 20
103.176225
 42
-0.045040
  0
VERTEX
  8
0
 10
287.934493
 20
104.683433
 42
-0.063446
  0
VERTEX
  8
0
 10
287.475225
 20
105.918895
 42
-0.156639
  0
VERTEX
  8
0
 10
287.553100
 20
106.871530
 42
0.024020
  0
VERTEX
  8
0
 10
288.452130
 20
109.378812
 42
0.077689
  0
VERTEX
  8
0
 10
288.700346
 20
111.125163
 42
0.094710
  0
VERTEX
  8
0
 10
288.383230
 20
112.667863
 42
0.047147
  0
VERTEX
  8
0
 10
287.448074
 20
114.438905
 42
0.050983
  0
VERTEX
  8
0
 10
286.478247
 20
115.633513
 42
0.020444
  0
VERTEX
  8
0
 10
284.930566
 20
117.064150
 42
0.019977
  0
VERTEX
  8
0
 10
283.123789
 20
118.481774
 42
0.023817
  0
VERTEX
  8
0
 10
281.309726
 20
119.664376
 42
-0.032357
  0
VERTEX
  8
0
 10
279.378216
 20
120.971050
 42
-0.018281
  0
VERTEX
  8
0
 10
277.207827
 20
122.784472
 42
-0.018190
  0
VERTEX
  8
0
 10
275.144061
 20
124.781509
 42
-0.028340
  0
VERTEX
  8
0
 10
273.533729
 20
126.659619
 42
0.025173
  0
VERTEX
  8
0
 10
271.799192
 20
128.708694
 42
0.010829
  0
VERTEX
  8
0
 10
269.293989
 20
131.269356
 42
0.010683
  0
VERTEX
  8
0
 10
266.503302
 20
133.886521
 42
0.013886
  0
VERTEX
  8
0
 10
263.832140
 20
136.155594
 42
-0.008828
  0
VERTEX
  8
0
 10
261.421327
 20
138.161889
 42
-0.013785
  0
VERTEX
  8
0
 10
259.425872
 20
139.981351
 42
-0.007877
  0
VERTEX
  8
0
 10
257.849939
 20
141.548552
 42
-0.267249
  0
VERTEX
  8
0
 10
257.724019
 20
142.041424
 42
0.250448
  0
VERTEX
  8
0
 10
257.508675
 20
143.010601
 42
0.013428
  0
VERTEX
  8
0
 10
255.322941
 20
145.422258
 42
0.018358
  0
VERTEX
  8
0
 10
252.424667
 20
148.237873
 42
0.011998
  0
VERTEX
  8
0
 10
248.890556
 20
151.276931
 42
-0.003392
  0
VERTEX
  8
0
 10
246.927417
 20
152.907155
 42
-0.107455
  0
VERTEX
  8
0
 10
246.546953
 20
153.400517
 42
-0.645515
  0
VERTEX
  8
0
 10
246.695706
 20
153.575834
 42
-0.016494
  0
VERTEX
  8
0
 10
248.000000
 20
153.154824
 42
0.008603
  0
VERTEX
  8
0
 10
254.466775
 20
150.954170
 42
0.048324
  0
VERTEX
  8
0
 10
258.031766
 20
150.178543
 42
0.103346
  0
VERTEX
  8
0
 10
260.314238
 20
150.380620
 42
0.146997
  0
VERTEX
  8
0
 10
262.000000
 20
151.500000
 42
-0.106372
  0
VERTEX
  8
0
 10
263.395068
 20
152.596477
 42
-0.137343
  0
VERTEX
  8
0
 10
264.990592
 20
152.888793
 42
-0.089053
  0
VERTEX
  8
0
 10
267.026026
 20
152.326748
 42
-0.026636
  0
VERTEX
  8
0
 10
269.861744
 20
150.776430
 42
0.013828
  0
VERTEX
  8
0
 10
271.359939
 20
149.906802
 42
0.014334
  0
VERTEX
  8
0
 10
272.886288
 20
149.132232
 42
0.014165
  0
VERTEX
  8
0
 10
274.242537
 20
148.538555
 42
0.058275
  0
VERTEX
  8
0
 10
275.105816
 20
148.301622
 42
0.155375
  0
VERTEX
  8
0
 10
276.839572
 20
148.575800
 42
0.062720
  0
VERTEX
  8
0
 10
278.852484
 20
149.924729
 42
0.062647
  0
VERTEX
  8
0
 10
280.472212
 20
151.734688
 42
0.152378
  0
VERTEX
  8
0
 10
281.000000
 20
153.426312
 42
-0.047804
  0
VERTEX
  8
0
 10
281.058706
 20
154.038942
 42
-0.104077
  0
VERTEX
  8
0
 10
281.241067
 20
154.472103
 42
-0.181365
  0
VERTEX
  8
0
 10
281.510349
 20
154.658744
 42
-0.202926
  0
VERTEX
  8
0
 10
281.820653
 20
154.610842
 42
0.198652
  0
VERTEX
  8
0
 10
282.328422
 20
154.528181
 42
0.028839
  0
VERTEX
  8
0
 10
283.353608
 20
154.832416
 42
0.028969
  0
VERTEX
  8
0
 10
284.583918
 20
155.358490
 42
0.021101
  0
VERTEX
  8
0
 10
285.886816
 20
156.077363
 42
-0.033746
  0
VERTEX
  8
0
 10
287.917785
 20
157.131905
 42
-0.082140
  0
VERTEX
  8
0
 10
289.548708
 20
157.544067
 42
-0.060004
  0
VERTEX
  8
0
 10
291.517163
 20
157.472694
 42
-0.011895
  0
VERTEX
  8
0
 10
294.992850
 20
156.840604
 42
0.013841
  0
VERTEX
  8
0
 10
298.400251
 20
156.234623
 42
0.052872
  0
VERTEX
  8
0
 10
300.552754
 20
156.142703
 42
0.063738
  0
VERTEX
  8
0
 10
302.467918
 20
156.511566
 42
0.026521
  0
VERTEX
  8
0
 10
304.926687
 20
157.466940
 42
0.016169
  0
VERTEX
  8
0
 10
306.487249
 20
158.232298
 42
0.023624
  0
VERTEX
  8
0
 10
307.803464
 20
159.013323
 42
0.020730
  0
VERTEX
  8
0
 10
308.792983
 20
159.726096
 42
0.230220
  0
VERTEX
  8
0
 10
309.000000
 20
160.151874
 42
-0.152468
  0
VERTEX
  8
0
 10
309.100979
 20
160.475326
 42
-0.098195
  0
VERTEX
  8
0
 10
309.385235
 20
160.750863
 42
-0.080953
  0
VERTEX
  8
0
 10
309.810007
 20
160.936750
 42
-0.062821
  0
VERTEX
  8
0
 10
310.311439
 20
161.000000
 42
0.094179
  0
VERTEX
  8
0
 10
310.947834
 20
161.120942
 42
0.031672
  0
VERTEX
  8
0
 10
311.807094
 20
161.524341
 42
0.030204
  0
VERTEX
  8
0
 10
312.722882
 20
162.101868
 42
0.030296
  0
VERTEX
  8
0
 10
313.561439
 20
162.784990
 42
-0.016842
  0
VERTEX
  8
0
 10
316.953490
 20
165.703491
 42
-0.085010
  0
VERTEX
  8
0
 10
319.129842
 20
166.912878
 42
-0.126506
  0
VERTEX
  8
0
 10
321.147719
 20
167.086677
 42
-0.057569
  0
VERTEX
  8
0
 10
323.710471
 20
166.347613
 42
0.040003
  0
VERTEX
  8
0
 10
326.688596
 20
165.374505
 42
0.144829
  0
VERTEX
  8
0
 10
328.658631
 20
165.476655
 42
0.253894
  0
VERTEX
  8
0
 10
329.615603
 20
166.537315
 42
0.121258
  0
VERTEX
  8
0
 10
329.606961
 20
168.429855
 42
-0.114094
  0
VERTEX
  8
0
 10
329.546239
 20
171.676910
 42
-0.161246
  0
VERTEX
  8
0
 10
330.993092
 20
174.156246
 42
-0.160224
  0
VERTEX
  8
0
 10
333.642180
 20
175.292103
 42
-0.112408
  0
VERTEX
  8
0
 10
336.882082
 20
174.846883
 42
0.070522
  0
VERTEX
  8
0
 10
339.258723
 20
174.316349
 42
0.117585
  0
VERTEX
  8
0
 10
341.274212
 20
174.631852
 42
0.157630
  0
VERTEX
  8
0
 10
342.555209
 20
175.715341
 42
0.160068
  0
VERTEX
  8
0
 10
342.949539
 20
177.336504
 42
-0.025995
  0
VERTEX
  8
0
 10
342.879780
 20
179.932979
 42
-0.161182
  0
VERTEX
  8
0
 10
343.324302
 20
181.170960
 42
-0.175625
  0
VERTEX
  8
0
 10
344.397172
 20
181.841719
 42
-0.032127
  0
VERTEX
  8
0
 10
346.750000
 20
182.189635
 42
0.032036
  0
VERTEX
  8
0
 10
349.233408
 20
182.556397
 42
0.226322
  0
VERTEX
  8
0
 10
350.174259
 20
183.280314
 42
0.101368
  0
VERTEX
  8
0
 10
350.587219
 20
184.785399
 42
0.004218
  0
VERTEX
  8
0
 10
350.908107
 20
190.378831
 42
-0.116281
  0
VERTEX
  8
0
 10
351.187715
 20
191.349759
 42
-0.211854
  0
VERTEX
  8
0
 10
351.836673
 20
191.834297
 42
-0.080232
  0
VERTEX
  8
0
 10
353.151534
 20
191.918157
 42
-0.008864
  0
VERTEX
  8
0
 10
356.156838
 20
191.573583
 42
0.030311
  0
VERTEX
  8
0
 10
359.951514
 20
191.302636
 42
0.179020
  0
VERTEX
  8
0
 10
361.796347
 20
191.962724
 42
0.186136
  0
VERTEX
  8
0
 10
362.727058
 20
193.646945
 42
0.033200
  0
VERTEX
  8
0
 10
362.984687
 20
197.300082
 42
0.000000
  0
VERTEX
  8
0
 10
363.000000
 20
201.100164
 42
0.000000
  0
VERTEX
  8
0
 10
367.750000
 20
200.800082
 42
0.017313
  0
VERTEX
  8
0
 10
369.667947
 20
200.745465
 42
0.037409
  0
VERTEX
  8
0
 10
371.138408
 20
200.864739
 42
0.052574
  0
VERTEX
  8
0
 10
372.100546
 20
201.121481
 42
0.357423
  0
VERTEX
  8
0
 10
372.327119
 20
201.518644
 42
0.011062
  0
VERTEX
  8
0
 10
372.221244
 20
202.068455
 42
0.002720
  0
VERTEX
  8
0
 10
372.022394
 20
202.966959
 42
0.002784
  0
VERTEX
  8
0
 10
371.783221
 20
203.993943
 42
0.002780
  0
VERTEX
  8
0
 10
371.532527
 20
205.018644
 42
-0.102167
  0
VERTEX
  8
0
 10
371.440190
 20
207.222592
 42
-0.119075
  0
VERTEX
  8
0
 10
372.252329
 20
209.149984
 42
-0.111080
  0
VERTEX
  8
0
 10
373.912422
 20
210.587655
 42
-0.080396
  0
VERTEX
  8
0
 10
376.233504
 20
211.387924
 42
0.025230
  0
VERTEX
  8
0
 10
378.664236
 20
211.936649
 42
0.097570
  0
VERTEX
  8
0
 10
380.038139
 20
212.629362
 42
0.145068
  0
VERTEX
  8
0
 10
380.752792
 20
213.627974
 42
0.083449
  0
VERTEX
  8
0
 10
381.000000
 20
215.098855
 42
-0.067761
  0
VERTEX
  8
0
 10
381.140956
 20
216.134174
 42
-0.017781
  0
VERTEX
  8
0
 10
381.646880
 20
217.734545
 42
-0.017725
  0
VERTEX
  8
0
 10
382.359213
 20
219.532645
 42
-0.017323
  0
VERTEX
  8
0
 10
383.202144
 20
221.289838
 42
0.011390
  0
VERTEX
  8
0
 10
384.029107
 20
222.962563
 42
0.015621
  0
VERTEX
  8
0
 10
384.690751
 20
224.505412
 42
0.012311
  0
VERTEX
  8
0
 10
385.162715
 20
225.801326
 42
0.149414
  0
VERTEX
  8
0
 10
385.177368
 20
226.324330
 42
-0.109131
  0
VERTEX
  8
0
 10
385.163592
 20
226.593023
 42
-0.266114
  0
VERTEX
  8
0
 10
385.284849
 20
226.741038
 42
-0.176593
  0
VERTEX
  8
0
 10
385.527310
 20
226.744600
 42
-0.054726
  0
VERTEX
  8
0
 10
385.861917
 20
226.585340
 42
0.148702
  0
VERTEX
  8
0
 10
386.293986
 20
226.471171
 42
0.082637
  0
VERTEX
  8
0
 10
386.832511
 20
226.581349
 42
0.069908
  0
VERTEX
  8
0
 10
387.392760
 20
226.892010
 42
0.058112
  0
VERTEX
  8
0
 10
387.886133
 20
227.362798
 42
0.461483
  0
VERTEX
  8
0
 10
387.539166
 20
229.360116
 42
0.015628
  0
VERTEX
  8
0
 10
379.627764
 20
233.711141
 42
0.016234
  0
VERTEX
  8
0
 10
371.316093
 20
237.614989
 42
0.245840
  0
VERTEX
  8
0
 10
368.237889
 20
237.382190
 42
-0.107770
  0
VERTEX
  8
0
 10
366.372421
 20
236.716228
 42
-0.069059
  0
VERTEX
  8
0
 10
364.063620
 20
236.738663
 42
-0.048214
  0
VERTEX
  8
0
 10
361.112685
 20
237.473229
 42
-0.019040
  0
VERTEX
  8
0
 10
357.221078
 20
239.020356
 42
0.021196
  0
VERTEX
  8
0
 10
355.306925
 20
239.771799
 42
0.019325
  0
VERTEX
  8
0
 10
353.276543
 20
240.384457
 42
0.019746
  0
VERTEX
  8
0
 10
351.419726
 20
240.789793
 42
0.057434
  0
VERTEX
  8
0
 10
350.110928
 20
240.869329
 42
-0.034477
  0
VERTEX
  8
0
 10
348.929885
 20
240.886907
 42
-0.020475
  0
VERTEX
  8
0
 10
347.532585
 20
241.062136
 42
-0.020436
  0
VERTEX
  8
0
 10
346.146903
 20
241.352512
 42
-0.032931
  0
VERTEX
  8
0
 10
345.000000
 20
241.724038
 42
0.066045
  0
VERTEX
  8
0
 10
343.529249
 20
242.095217
 42
0.012290
  0
VERTEX
  8
0
 10
340.748574
 20
242.348216
 42
0.012978
  0
VERTEX
  8
0
 10
337.460806
 20
242.480462
 42
0.011527
  0
VERTEX
  8
0
 10
334.037699
 20
242.450324
 42
-0.008358
  0
VERTEX
  8
0
 10
328.814665
 20
242.371237
 42
-0.053348
  0
VERTEX
  8
0
 10
326.184500
 20
242.656857
 42
-0.075855
  0
VERTEX
  8
0
 10
324.083943
 20
243.462379
 42
-0.026305
  0
VERTEX
  8
0
 10
321.344448
 20
245.219093
 42
0.035788
  0
VERTEX
  8
0
 10
318.052558
 20
247.243056
 42
0.167829
  0
VERTEX
  8
0
 10
315.885964
 20
247.564191
 42
0.249122
  0
VERTEX
  8
0
 10
314.500987
 20
246.458539
 42
0.078418
  0
VERTEX
  8
0
 10
313.817635
 20
243.807339
 42
-0.023731
  0
VERTEX
  8
0
 10
313.540943
 20
241.888329
 42
-0.163415
  0
VERTEX
  8
0
 10
313.078600
 20
241.070654
 42
-0.181401
  0
VERTEX
  8
0
 10
312.243343
 20
240.743501
 42
-0.030598
  0
VERTEX
  8
0
 10
310.500000
 20
240.825086
 42
0.014418
  0
VERTEX
  8
0
 10
304.778981
 20
241.278606
 42
0.012837
  0
VERTEX
  8
0
 10
298.815005
 20
241.425358
 42
0.010833
  0
VERTEX
  8
0
 10
293.551739
 20
241.305671
 42
0.077285
  0
VERTEX
  8
0
 10
291.061212
 20
240.804276
 42
0.045628
  0
VERTEX
  8
0
 10
290.021336
 20
240.309476
 42
0.029236
  0
VERTEX
  8
0
 10
288.912236
 20
239.560800
 42
0.029306
  0
VERTEX
  8
0
 10
287.903411
 20
238.692245
 42
0.047628
  0
VERTEX
  8
0
 10
287.170230
 20
237.832650
 42
-0.091052
  0
VERTEX
  8
0
 10
286.042361
 20
236.720945
 42
-0.107982
  0
VERTEX
  8
0
 10
284.656498
 20
236.165089
 42
-0.049572
  0
VERTEX
  8
0
 10
282.406642
 20
236.013550
 42
-0.006504
  0
VERTEX
  8
0
 10
277.614029
 20
236.228485
 42
0.008599
  0
VERTEX
  8
0
 10
273.075892
 20
236.412960
 42
0.040586
  0
VERTEX
  8
0
 10
270.476679
 20
236.262823
 42
0.067069
  0
VERTEX
  8
0
 10
268.609445
 20
235.740490
 42
0.057548
  0
VERTEX
  8
0
 10
266.839154
 20
234.722961
 42
-0.043318
  0
VERTEX
  8
0
 10
265.494940
 20
233.898711
 42
-0.049646
  0
VERTEX
  8
0
 10
264.087574
 20
233.362113
 42
-0.051192
  0
VERTEX
  8
0
 10
262.640931
 20
233.124559
 42
-0.051594
  0
VERTEX
  8
0
 10
261.180096
 20
233.186875
 42
0.013657
  0
VERTEX
  8
0
 10
259.328997
 20
233.407104
 42
0.226303
  0
VERTEX
  8
0
 10
258.762096
 20
233.197591
 42
0.271195
  0
VERTEX
  8
0
 10
258.627762
 20
232.653443
 42
0.018928
  0
VERTEX
  8
0
 10
259.151412
 20
231.101757
 42
-0.070673
  0
VERTEX
  8
0
 10
259.716014
 20
228.602873
 42
-0.090561
  0
VERTEX
  8
0
 10
259.482118
 20
226.260591
 42
-0.120473
  0
VERTEX
  8
0
 10
258.539864
 20
224.614708
 42
-0.205590
  0
VERTEX
  8
0
 10
257.108066
 20
224.000000
 42
-0.062677
  0
VERTEX
  8
0
 10
256.103810
 20
224.126383
 42
-0.013933
  0
VERTEX
  8
0
 10
254.436197
 20
224.602744
 42
-0.014263
  0
VERTEX
  8
0
 10
252.527463
 20
225.266426
 42
-0.013330
  0
VERTEX
  8
0
 10
250.615592
 20
226.051893
 42
0.017569
  0
VERTEX
  8
0
 10
248.766872
 20
226.793165
 42
0.023883
  0
VERTEX
  8
0
 10
247.049185
 20
227.321588
 42
0.022080
  0
VERTEX
  8
0
 10
245.627454
 20
227.619476
 42
0.180926
  0
VERTEX
  8
0
 10
244.988473
 20
227.492876
 42
0.187205
  0
VERTEX
  8
0
 10
244.603089
 20
226.982862
 42
0.024542
  0
VERTEX
  8
0
 10
244.290364
 20
225.634486
 42
0.025781
  0
VERTEX
  8
0
 10
244.072162
 20
223.929336
 42
0.018933
  0
VERTEX
  8
0
 10
244.000000
 20
222.024316
 42
-0.030756
  0
VERTEX
  8
0
 10
243.793272
 20
218.666761
 42
-0.170699
  0
VERTEX
  8
0
 10
243.001176
 20
217.072526
 42
-0.228267
  0
VERTEX
  8
0
 10
241.542990
 20
216.584943
 42
-0.057236
  0
VERTEX
  8
0
 10
239.039033
 20
217.199040
 42
0.039210
  0
VERTEX
  8
0
 10
237.943665
 20
217.509837
 42
0.028337
  0
VERTEX
  8
0
 10
236.686512
 20
217.688833
 42
0.028822
  0
VERTEX
  8
0
 10
235.464781
 20
217.722003
 42
0.053907
  0
VERTEX
  8
0
 10
234.486278
 20
217.585912
 42
0.076323
  0
VERTEX
  8
0
 10
233.420867
 20
217.137653
 42
0.163460
  0
VERTEX
  8
0
 10
232.855602
 20
216.461258
 42
0.100991
  0
VERTEX
  8
0
 10
232.662578
 20
215.342018
 42
0.019482
  0
VERTEX
  8
0
 10
232.806040
 20
213.280453
 42
-0.042051
  0
VERTEX
  8
0
 10
232.866536
 20
210.799895
 42
-0.623449
  0
VERTEX
  8
0
 10
232.253169
 20
210.543338
 42
-0.113036
  0
VERTEX
  8
0
 10
231.170935
 20
212.037435
 42
-0.011441
  0
VERTEX
  8
0
 10
229.537560
 20
216.140224
 42
-0.016474
  0
VERTEX
  8
0
 10
228.727212
 20
218.560748
 42
-0.050542
  0
VERTEX
  8
0
 10
228.402539
 20
220.257074
 42
-0.072626
  0
VERTEX
  8
0
 10
228.479729
 20
221.612568
 42
-0.072505
  0
VERTEX
  8
0
 10
228.941250
 20
222.890224
 42
-0.026588
  0
VERTEX
  8
0
 10
229.430459
 20
223.697972
 42
-0.034216
  0
VERTEX
  8
0
 10
229.966714
 20
224.380253
 42
-0.036508
  0
VERTEX
  8
0
 10
230.474748
 20
224.866296
 42
-0.174308
  0
VERTEX
  8
0
 10
230.846622
 20
225.000000
 42
0.130891
  0
VERTEX
  8
0
 10
231.270083
 20
225.112786
 42
0.019676
  0
VERTEX
  8
0
 10
232.021573
 20
225.583879
 42
0.020962
  0
VERTEX
  8
0
 10
232.882633
 20
226.226601
 42
0.016725
  0
VERTEX
  8
0
 10
233.756395
 20
226.987674
 42
0.088999
  0
VERTEX
  8
0
 10
235.031382
 20
228.688578
 42
0.122703
  0
VERTEX
  8
0
 10
235.449146
 20
230.543489
 42
0.084492
  0
VERTEX
  8
0
 10
234.995917
 20
232.884394
 42
0.025733
  0
VERTEX
  8
0
 10
233.547468
 20
236.205303
 42
-0.023836
  0
VERTEX
  8
0
 10
232.367530
 20
238.882839
 42
-0.104257
  0
VERTEX
  8
0
 10
232.094008
 20
240.581516
 42
-0.189324
  0
VERTEX
  8
0
 10
232.596768
 20
241.700321
 42
-0.117262
  0
VERTEX
  8
0
 10
233.848243
 20
242.451834
 42
0.130646
  0
VERTEX
  8
0
 10
235.736598
 20
243.654638
 42
0.117372
  0
VERTEX
  8
0
 10
236.871793
 20
245.683397
 42
0.094217
  0
VERTEX
  8
0
 10
237.112747
 20
248.396093
 42
0.058025
  0
VERTEX
  8
0
 10
236.426118
 20
251.537234
 42
-0.018464
  0
VERTEX
  8
0
 10
235.682899
 20
253.990134
 42
-0.112796
  0
VERTEX
  8
0
 10
235.639981
 20
255.304637
 42
-0.120996
  0
VERTEX
  8
0
 10
236.175392
 20
256.463424
 42
-0.022588
  0
VERTEX
  8
0
 10
237.728917
 20
258.238938
 42
0.000000
  0
VERTEX
  8
0
 10
240.383205
 20
261.009418
 42
0.000000
  0
VERTEX
  8
0
 10
237.191603
 20
264.302316
 42
-0.017836
  0
VERTEX
  8
0
 10
234.845675
 20
266.902124
 42
-0.137924
  0
VERTEX
  8
0
 10
234.178015
 20
268.380001
 42
-0.261047
  0
VERTEX
  8
0
 10
234.596657
 20
269.490568
 42
-0.070643
  0
VERTEX
  8
0
 10
236.250000
 20
270.523817
 42
0.062669
  0
VERTEX
  8
0
 10
237.358953
 20
271.192606
 42
0.120943
  0
VERTEX
  8
0
 10
237.992523
 20
272.005215
 42
0.095960
  0
VERTEX
  8
0
 10
238.261187
 20
273.151749
 42
0.029958
  0
VERTEX
  8
0
 10
238.223822
 20
274.925912
 42
0.069989
  0
VERTEX
  8
0
 10
237.294203
 20
279.069331
 42
0.022947
  0
VERTEX
  8
0
 10
234.816207
 20
284.828256
 42
0.015151
  0
VERTEX
  8
0
 10
231.995879
 20
290.212355
 42
0.452594
  0
VERTEX
  8
0
 10
230.660741
 20
290.494074
 42
-0.023805
  0
VERTEX
  8
0
 10
230.432539
 20
290.339801
 42
-0.490460
  0
VERTEX
  8
0
 10
230.365447
 20
290.365447
 42
-0.228168
  0
VERTEX
  8
0
 10
230.382751
 20
290.476233
 42
-0.014362
  0
VERTEX
  8
0
 10
230.583333
 20
290.750000
 42
-0.077920
  0
VERTEX
  8
0
 10
230.889077
 20
291.037254
 42
-0.046465
  0
VERTEX
  8
0
 10
231.326757
 20
291.279687
 42
-0.045220
  0
VERTEX
  8
0
 10
231.820163
 20
291.444620
 42
-0.058120
  0
VERTEX
  8
0
 10
232.294988
 20
291.500000
 42
0.158139
  0
VERTEX
  8
0
 10
232.827257
 20
291.672663
 42
0.040511
  0
VERTEX
  8
0
 10
233.523592
 20
292.269174
 42
0.037162
  0
VERTEX
  8
0
 10
234.247487
 20
293.116175
 42
0.030368
  0
VERTEX
  8
0
 10
234.893017
 20
294.118465
 42
0.050339
  0
VERTEX
  8
0
 10
235.618433
 20
295.783529
 42
0.135267
  0
VERTEX
  8
0
 10
235.671412
 20
297.063206
 42
0.079322
  0
VERTEX
  8
0
 10
235.054755
 20
298.581326
 42
0.010219
  0
VERTEX
  8
0
 10
233.171114
 20
301.555381
 42
-0.017467
  0
VERTEX
  8
0
 10
231.602038
 20
304.114077
 42
-0.049628
  0
VERTEX
  8
0
 10
230.757641
 20
306.025482
 42
-0.066848
  0
VERTEX
  8
0
 10
230.444731
 20
307.713262
 42
-0.058884
  0
VERTEX
  8
0
 10
230.566141
 20
309.500871
 42
0.056984
  0
VERTEX
  8
0
 10
230.695645
 20
311.306448
 42
0.085549
  0
VERTEX
  8
0
 10
230.362602
 20
312.846876
 42
0.061168
  0
VERTEX
  8
0
 10
229.431448
 20
314.528133
 42
0.017009
  0
VERTEX
  8
0
 10
227.576389
 20
316.908569
 42
-0.007752
  0
VERTEX
  8
0
 10
224.979714
 20
320.116377
 42
-0.096482
  0
VERTEX
  8
0
 10
224.270180
 20
321.504152
 42
-0.124504
  0
VERTEX
  8
0
 10
224.223659
 20
322.933977
 42
-0.016024
  0
VERTEX
  8
0
 10
224.979821
 20
325.929640
 42
0.053693
  0
VERTEX
  8
0
 10
225.350819
 20
328.065090
 42
0.077609
  0
VERTEX
  8
0
 10
225.178596
 20
329.969751
 42
0.047327
  0
VERTEX
  8
0
 10
224.341048
 20
332.339964
 42
0.009204
  0
VERTEX
  8
0
 10
222.355288
 20
336.423038
 42
0.016149
  0
VERTEX
  8
0
 10
219.515583
 20
341.579806
 42
0.025775
  0
VERTEX
  8
0
 10
216.728794
 20
345.767306
 42
0.025792
  0
VERTEX
  8
0
 10
214.234781
 20
348.787233
 42
0.196254
  0
VERTEX
  8
0
 10
212.600645
 20
349.559220
 42
-0.052827
  0
VERTEX
  8
0
 10
210.941784
 20
349.825750
 42
-0.032207
  0
VERTEX
  8
0
 10
209.062199
 20
350.467995
 42
-0.025762
  0
VERTEX
  8
0
 10
207.447083
 20
351.238567
 42
-0.329283
  0
VERTEX
  8
0
 10
207.179072
 20
351.810940
 42
0.092074
  0
VERTEX
  8
0
 10
207.184594
 20
352.187846
 42
0.020872
  0
VERTEX
  8
0
 10
207.050226
 20
352.816041
 42
0.020932
  0
VERTEX
  8
0
 10
206.831175
 20
353.538700
 42
0.018980
  0
VERTEX
  8
0
 10
206.546035
 20
354.264944
 42
-0.053708
  0
VERTEX
  8
0
 10
206.288023
 20
355.085139
 42
-0.032577
  0
VERTEX
  8
0
 10
206.153663
 20
356.094546
 42
-0.032367
  0
VERTEX
  8
0
 10
206.151097
 20
357.125914
 42
-0.048426
  0
VERTEX
  8
0
 10
206.293657
 20
358.014944
 42
0.041292
  0
VERTEX
  8
0
 10
206.426754
 20
358.775524
 42
0.070963
  0
VERTEX
  8
0
 10
206.394025
 20
359.416890
 42
0.107260
  0
VERTEX
  8
0
 10
206.210445
 20
359.843490
 42
0.242258
  0
VERTEX
  8
0
 10
205.906380
 20
360.000000
 42
-0.192200
  0
VERTEX
  8
0
 10
205.560228
 20
360.138165
 42
-0.087836
  0
VERTEX
  8
0
 10
205.266249
 20
360.536295
 42
-0.067667
  0
VERTEX
  8
0
 10
205.066775
 20
361.126964
 42
-0.047675
  0
VERTEX
  8
0
 10
205.000000
 20
361.825686
 42
0.098805
  0
VERTEX
  8
0
 10
204.827543
 20
362.689884
 42
0.036434
  0
VERTEX
  8
0
 10
204.265625
 20
363.804986
 42
0.034375
  0
VERTEX
  8
0
 10
203.456676
 20
364.966534
 42
0.034902
  0
VERTEX
  8
0
 10
202.500000
 20
366.000000
 42
0.021415
  0
VERTEX
  8
0
 10
201.539292
 20
366.828040
 42
0.048771
  0
VERTEX
  8
0
 10
200.734375
 20
367.345192
 42
0.106661
  0
VERTEX
  8
0
 10
200.213247
 20
367.484435
 42
0.428514
  0
VERTEX
  8
0
 10
200.000000
 20
367.281303
 42
-0.241755
  0
VERTEX
  8
0
 10
199.408997
 20
366.130421
 42
-0.146849
  0
VERTEX
  8
0
 10
197.928559
 20
365.622725
 42
-0.084928
  0
VERTEX
  8
0
 10
195.660529
 20
365.920842
 42
-0.042927
  0
VERTEX
  8
0
 10
192.981992
 20
367.009187
 42
0.004846
  0
VERTEX
  8
0
 10
189.994854
 20
368.496801
 42
0.068494
  0
VERTEX
  8
0
 10
188.861085
 20
368.866972
 42
0.205279
  0
VERTEX
  8
0
 10
188.151130
 20
368.703641
 42
0.096843
  0
SEQEND
  0
ENDSEC
  0
EOF
