  0
SECTION
  2
HEADER
  9
$ACADVER
  1
AC1006
  9
$EXTMIN
 10
0.000000
 20
0.000000
 30
0.000000
  9
$EXTMAX
 10
402.000000
 20
408.000000
 30
0.000000
  0
ENDSEC
  0
SECTION
  2
ENTITIES
  0
POLYLINE
  8
0
 66
1
 70
1
  0
VERTEX
  8
0
 10
165.942911
 20
405.750000
 42
0.004261
  0
VERTEX
  8
0
 10
166.519826
 20
404.332409
 42
0.000418
  0
VERTEX
  8
0
 10
167.941890
 20
400.929688
 42
0.000529
  0
VERTEX
  8
0
 10
169.644658
 20
396.876898
 42
0.000419
  0
VERTEX
  8
0
 10
171.493372
 20
392.500000
 42
-0.004590
  0
VERTEX
  8
0
 10
176.614848
 20
380.086863
 42
-0.004482
  0
VERTEX
  8
0
 10
181.549059
 20
367.483762
 42
-0.004702
  0
VERTEX
  8
0
 10
185.829858
 20
355.928818
 42
-0.009935
  0
VERTEX
  8
0
 10
188.885573
 20
346.875693
 42
-0.003875
  0
VERTEX
  8
0
 10
190.705236
 20
340.949262
 42
-0.005564
  0
VERTEX
  8
0
 10
192.217827
 20
335.669700
 42
-0.004534
  0
VERTEX
  8
0
 10
193.820433
 20
329.616821
 42
-0.001644
  0
VERTEX
  8
0
 10
195.988316
 20
321.000000
 42
-0.035225
  0
VERTEX
  8
0
 10
198.083197
 20
308.995112
 42
-0.015905
  0
VERTEX
  8
0
 10
199.209912
 20
293.047614
 42
-0.015634
  0
VERTEX
  8
0
 10
199.326972
 20
277.359224
 42
-0.044383
  0
VERTEX
  8
0
 10
198.099999
 20
266.500000
 42
0.000048
  0
VERTEX
  8
0
 10
197.596682
 20
264.031305
 42
0.000049
  0
VERTEX
  8
0
 10
197.096432
 20
261.575219
 42
0.000047
  0
VERTEX
  8
0
 10
196.661748
 20
259.438938
 42
0.000201
  0
VERTEX
  8
0
 10
196.402241
 20
258.160320
 42
-0.015798
  0
VERTEX
  8
0
 10
196.125112
 20
256.984319
 42
-0.005473
  0
VERTEX
  8
0
 10
195.653316
 20
255.305559
 42
-0.005431
  0
VERTEX
  8
0
 10
195.092813
 20
253.466137
 42
-0.006288
  0
VERTEX
  8
0
 10
194.518157
 20
251.727492
 42
0.020684
  0
VERTEX
  8
0
 10
194.026385
 20
250.082117
 42
0.026055
  0
VERTEX
  8
0
 10
193.715297
 20
248.523225
 42
0.025762
  0
VERTEX
  8
0
 10
193.593742
 20
247.224989
 42
0.149582
  0
VERTEX
  8
0
 10
193.765301
 20
246.567172
 42
-0.342291
  0
VERTEX
  8
0
 10
193.741597
 20
246.347525
 42
-0.280863
  0
VERTEX
  8
0
 10
193.506539
 20
246.285976
 42
-0.055416
  0
VERTEX
  8
0
 10
192.868411
 20
246.557458
 42
-0.016471
  0
VERTEX
  8
0
 10
191.961324
 20
247.108491
 42
0.020697
  0
VERTEX
  8
0
 10
177.936386
 20
255.466862
 42
0.024843
  0
VERTEX
  8
0
 10
164.081378
 20
262.097901
 42
0.025913
  0
VERTEX
  8
0
 10
150.175591
 20
267.093586
 42
0.026907
  0
VERTEX
  8
0
 10
136.000000
 20
270.551735
 42
-0.003472
  0
VERTEX
  8
0
 10
134.861986
 20
270.773455
 42
-0.002023
  0
VERTEX
  8
0
 10
133.500000
 20
271.054382
 42
-0.002023
  0
VERTEX
  8
0
 10
132.138146
 20
271.346791
 42
-0.003422
  0
VERTEX
  8
0
 10
131.000000
 20
271.604163
 42
0.030015
  0
VERTEX
  8
0
 10
122.736950
 20
273.015975
 42
0.012062
  0
VERTEX
  8
0
 10
111.314472
 20
273.990250
 42
0.011011
  0
VERTEX
  8
0
 10
97.957669
 20
274.510680
 42
0.008707
  0
VERTEX
  8
0
 10
83.500000
 20
274.503590
 42
0.001690
  0
VERTEX
  8
0
 10
74.818381
 20
274.318776
 42
0.002254
  0
VERTEX
  8
0
 10
66.934375
 20
274.088706
 42
0.001580
  0
VERTEX
  8
0
 10
60.326331
 20
273.845141
 42
0.023043
  0
VERTEX
  8
0
 10
58.000000
 20
273.644391
 42
-0.003917
  0
VERTEX
  8
0
 10
56.217031
 20
273.421571
 42
-0.001326
  0
VERTEX
  8
0
 10
53.618750
 20
273.124497
 42
-0.001319
  0
VERTEX
  8
0
 10
50.745210
 20
272.811340
 42
-0.001515
  0
VERTEX
  8
0
 10
48.000000
 20
272.527901
 42
0.001444
  0
VERTEX
  8
0
 10
45.291415
 20
272.248633
 42
0.001357
  0
VERTEX
  8
0
 10
42.528125
 20
271.948070
 42
0.001349
  0
VERTEX
  8
0
 10
40.079575
 20
271.668323
 42
0.004695
  0
VERTEX
  8
0
 10
38.500000
 20
271.468485
 42
-0.001110
  0
VERTEX
  8
0
 10
36.822918
 20
271.244080
 42
-0.000232
  0
VERTEX
  8
0
 10
33.884375
 20
270.858907
 42
-0.000244
  0
VERTEX
  8
0
 10
30.474227
 20
270.415220
 42
-0.000230
  0
VERTEX
  8
0
 10
27.000000
 20
269.966544
 42
0.002252
  0
VERTEX
  8
0
 10
12.993029
 20
268.100006
 42
0.042528
  0
VERTEX
  8
0
 10
8.674899
 20
267.125374
 42
0.384219
  0
VERTEX
  8
0
 10
7.955473
 20
265.897925
 42
0.191354
  0
VERTEX
  8
0
 10
9.026698
 20
264.268747
 42
-0.054011
  0
VERTEX
  8
0
 10
14.809104
 20
259.208124
 42
-0.037288
  0
VERTEX
  8
0
 10
20.212004
 20
252.380161
 42
-0.037845
  0
VERTEX
  8
0
 10
24.405455
 20
245.042725
 42
-0.068828
  0
VERTEX
  8
0
 10
26.482793
 20
238.469959
 42
-0.078816
  0
VERTEX
  8
0
 10
26.650218
 20
223.747476
 42
-0.047002
  0
VERTEX
  8
0
 10
22.478246
 20
206.689721
 42
-0.039316
  0
VERTEX
  8
0
 10
14.131633
 20
187.611018
 42
-0.024781
  0
VERTEX
  8
0
 10
1.611620
 20
166.750000
 42
0.023707
  0
VERTEX
  8
0
 10
0.943052
 20
165.641422
 42
0.060320
  0
VERTEX
  8
0
 10
0.599732
 20
164.768676
 42
0.131019
  0
VERTEX
  8
0
 10
0.603143
 20
164.224197
 42
0.338056
  0
VERTEX
  8
0
 10
0.896845
 20
164.000000
 42
0.084264
  0
VERTEX
  8
0
 10
1.737689
 20
164.142718
 42
0.000721
  0
VERTEX
  8
0
 10
7.949261
 20
166.323937
 42
0.002512
  0
VERTEX
  8
0
 10
15.077544
 20
168.878952
 42
0.001614
  0
VERTEX
  8
0
 10
23.322664
 20
171.911273
 42
-0.003778
  0
VERTEX
  8
0
 10
37.648969
 20
177.109787
 42
-0.004070
  0
VERTEX
  8
0
 10
51.701686
 20
181.960798
 42
-0.003374
  0
VERTEX
  8
0
 10
63.832601
 20
185.947298
 42
-0.027261
  0
VERTEX
  8
0
 10
69.500000
 20
187.432208
 42
0.008932
  0
VERTEX
  8
0
 10
70.623061
 20
187.682878
 42
0.001782
  0
VERTEX
  8
0
 10
72.618519
 20
188.173378
 42
0.001884
  0
VERTEX
  8
0
 10
74.937570
 20
188.761481
 42
0.001755
  0
VERTEX
  8
0
 10
77.307724
 20
189.380937
 42
-0.006541
  0
VERTEX
  8
0
 10
79.836418
 20
190.016036
 42
-0.004911
  0
VERTEX
  8
0
 10
82.634705
 20
190.651089
 42
-0.004966
  0
VERTEX
  8
0
 10
85.279865
 20
191.196689
 42
-0.011356
  0
VERTEX
  8
0
 10
87.286597
 20
191.542746
 42
0.005072
  0
VERTEX
  8
0
 10
88.922352
 20
191.803707
 42
0.006991
  0
VERTEX
  8
0
 10
90.385552
 20
192.073486
 42
0.004649
  0
VERTEX
  8
0
 10
91.603509
 20
192.327497
 42
0.080974
  0
VERTEX
  8
0
 10
91.978873
 20
192.475901
 42
-0.103101
  0
VERTEX
  8
0
 10
92.396535
 20
192.620185
 42
-0.001714
  0
VERTEX
  8
0
 10
94.843794
 20
192.924507
 42
-0.004348
  0
VERTEX
  8
0
 10
97.704766
 20
193.245102
 42
-0.002866
  0
VERTEX
  8
0
 10
101.000000
 20
193.566298
 42
-0.014509
  0
VERTEX
  8
0
 10
109.874642
 20
194.120965
 42
-0.012009
  0
VERTEX
  8
0
 10
119.345729
 20
194.209869
 42
-0.012261
  0
VERTEX
  8
0
 10
128.095201
 20
193.867139
 42
-0.029152
  0
VERTEX
  8
0
 10
134.555479
 20
193.075317
 42
-0.001552
  0
VERTEX
  8
0
 10
141.000937
 20
191.880111
 42
-0.010414
  0
VERTEX
  8
0
 10
144.187439
 20
191.209982
 42
-0.016107
  0
VERTEX
  8
0
 10
146.748649
 20
190.527770
 42
-0.007038
  0
VERTEX
  8
0
 10
150.101109
 20
189.466417
 42
0.000000
  0
VERTEX
  8
0
 10
154.873351
 20
187.881333
 42
0.000000
  0
VERTEX
  8
0
 10
151.339416
 20
179.690666
 42
0.027114
  0
VERTEX
  8
0
 10
144.685291
 20
161.636297
 42
0.028837
  0
VERTEX
  8
0
 10
140.182026
 20
143.332656
 42
0.026696
  0
VERTEX
  8
0
 10
137.575472
 20
123.426569
 42
0.017933
  0
VERTEX
  8
0
 10
136.635892
 20
100.500000
 42
0.006215
  0
VERTEX
  8
0
 10
136.734573
 20
87.044479
 42
0.005229
  0
VERTEX
  8
0
 10
137.165314
 20
72.796223
 42
0.004034
  0
VERTEX
  8
0
 10
137.787304
 20
60.047005
 42
0.036225
  0
VERTEX
  8
0
 10
138.508187
 20
54.500000
 42
-0.021409
  0
VERTEX
  8
0
 10
138.699493
 20
53.305769
 42
-0.003189
  0
VERTEX
  8
0
 10
138.966079
 20
50.884375
 42
-0.003584
  0
VERTEX
  8
0
 10
139.242406
 20
48.018109
 42
-0.003081
  0
VERTEX
  8
0
 10
139.492820
 20
45.000000
 42
0.002527
  0
VERTEX
  8
0
 10
139.970968
 20
39.158606
 42
0.002925
  0
VERTEX
  8
0
 10
140.486970
 20
33.600795
 42
0.003168
  0
VERTEX
  8
0
 10
141.012206
 20
28.605642
 42
0.005633
  0
VERTEX
  8
0
 10
141.517123
 20
24.500000
 42
-0.007784
  0
VERTEX
  8
0
 10
141.714933
 20
22.832359
 42
-0.001693
  0
VERTEX
  8
0
 10
142.001566
 20
19.949780
 42
-0.001764
  0
VERTEX
  8
0
 10
142.310204
 20
16.611642
 42
-0.001689
  0
VERTEX
  8
0
 10
142.599951
 20
13.222654
 42
0.008991
  0
VERTEX
  8
0
 10
143.174808
 20
7.487034
 42
0.083337
  0
VERTEX
  8
0
 10
143.871236
 20
5.102554
 42
0.404511
  0
VERTEX
  8
0
 10
144.861376
 20
4.739366
 42
0.134413
  0
VERTEX
  8
0
 10
146.181578
 20
5.816684
 42
-0.044464
  0
VERTEX
  8
0
 10
155.374792
 20
16.555608
 42
-0.055834
  0
VERTEX
  8
0
 10
165.699013
 20
24.607581
 42
-0.062327
  0
VERTEX
  8
0
 10
176.470726
 20
29.499890
 42
-0.085555
  0
VERTEX
  8
0
 10
187.000000
 20
30.888650
 42
-0.061696
  0
VERTEX
  8
0
 10
198.967897
 20
28.922981
 42
-0.044619
  0
VERTEX
  8
0
 10
211.557588
 20
23.964345
 42
-0.040352
  0
VERTEX
  8
0
 10
224.319105
 20
16.226920
 42
-0.031764
  0
VERTEX
  8
0
 10
236.799453
 20
5.942970
 42
0.005665
  0
VERTEX
  8
0
 10
239.296796
 20
3.656309
 42
0.009396
  0
VERTEX
  8
0
 10
241.460249
 20
1.791991
 42
0.003506
  0
VERTEX
  8
0
 10
243.321494
 20
0.269984
 42
0.383225
  0
VERTEX
  8
0
 10
243.619255
 20
0.285921
 42
0.292327
  0
VERTEX
  8
0
 10
243.747973
 20
0.870886
 42
0.001843
  0
VERTEX
  8
0
 10
241.795242
 20
6.123997
 42
0.007487
  0
VERTEX
  8
0
 10
239.680741
 20
11.502788
 42
0.008962
  0
VERTEX
  8
0
 10
237.523889
 20
16.500000
 42
-0.007847
  0
VERTEX
  8
0
 10
228.035442
 20
38.349719
 42
-0.005935
  0
VERTEX
  8
0
 10
218.283711
 20
62.615127
 42
-0.005058
  0
VERTEX
  8
0
 10
209.933671
 20
84.789601
 42
-0.031610
  0
VERTEX
  8
0
 10
206.505429
 20
96.412490
 42
-0.007375
  0
VERTEX
  8
0
 10
202.622530
 20
114.731107
 42
-0.020261
  0
VERTEX
  8
0
 10
200.601090
 20
127.787247
 42
-0.024293
  0
VERTEX
  8
0
 10
199.840894
 20
139.554026
 42
-0.015433
  0
VERTEX
  8
0
 10
200.045849
 20
153.287088
 42
-0.011108
  0
VERTEX
  8
0
 10
200.199035
 20
155.536311
 42
-0.016313
  0
VERTEX
  8
0
 10
200.441872
 20
157.503239
 42
-0.011643
  0
VERTEX
  8
0
 10
200.729455
 20
159.094965
 42
-0.206667
  0
VERTEX
  8
0
 10
201.021669
 20
159.513392
 42
-0.228070
  0
VERTEX
  8
0
 10
201.526103
 20
159.566607
 42
-0.011165
  0
VERTEX
  8
0
 10
203.136715
 20
158.949876
 42
-0.016255
  0
VERTEX
  8
0
 10
205.068029
 20
158.086175
 42
-0.010838
  0
VERTEX
  8
0
 10
207.223868
 20
156.978268
 42
0.028004
  0
VERTEX
  8
0
 10
221.530109
 20
150.236264
 42
0.022831
  0
VERTEX
  8
0
 10
237.501429
 20
144.609145
 42
0.021361
  0
VERTEX
  8
0
 10
255.026256
 20
140.127310
 42
0.017708
  0
VERTEX
  8
0
 10
274.000000
 20
136.826426
 42
0.030694
  0
VERTEX
  8
0
 10
288.808546
 20
135.706773
 42
0.005555
  0
VERTEX
  8
0
 10
316.408541
 20
135.624346
 42
0.002318
  0
VERTEX
  8
0
 10
345.663070
 20
135.997626
 42
0.125827
  0
VERTEX
  8
0
 10
350.963399
 20
137.451606
 42
-0.100043
  0
VERTEX
  8
0
 10
351.388276
 20
137.591768
 42
-0.001861
  0
VERTEX
  8
0
 10
353.735705
 20
137.864112
 42
-0.004489
  0
VERTEX
  8
0
 10
356.486329
 20
138.147881
 42
-0.002977
  0
VERTEX
  8
0
 10
359.647511
 20
138.426371
 42
0.002072
  0
VERTEX
  8
0
 10
362.939332
 20
138.710362
 42
0.002351
  0
VERTEX
  8
0
 10
366.092734
 20
139.010536
 42
0.002137
  0
VERTEX
  8
0
 10
368.769495
 20
139.289604
 42
0.013045
  0
VERTEX
  8
0
 10
370.147511
 20
139.475711
 42
-0.007160
  0
VERTEX
  8
0
 10
371.573246
 20
139.685375
 42
-0.000947
  0
VERTEX
  8
0
 10
374.599581
 20
140.080402
 42
-0.001098
  0
VERTEX
  8
0
 10
378.190239
 20
140.534166
 42
-0.000921
  0
VERTEX
  8
0
 10
382.000000
 20
141.000000
 42
0.001339
  0
VERTEX
  8
0
 10
389.818566
 20
141.962651
 42
0.009262
  0
VERTEX
  8
0
 10
393.642271
 20
142.515968
 42
0.014239
  0
VERTEX
  8
0
 10
395.909565
 20
142.953679
 42
0.142507
  0
VERTEX
  8
0
 10
396.746998
 20
143.413665
 42
0.477476
  0
VERTEX
  8
0
 10
396.715127
 20
143.714543
 42
0.012403
  0
VERTEX
  8
0
 10
395.398160
 20
144.521118
 42
0.017276
  0
VERTEX
  8
0
 10
393.638778
 20
145.459938
 42
0.009809
  0
VERTEX
  8
0
 10
391.450823
 20
146.479329
 42
-0.033111
  0
VERTEX
  8
0
 10
386.070106
 20
149.298298
 42
-0.036536
  0
VERTEX
  8
0
 10
381.292791
 20
152.722039
 42
-0.038520
  0
VERTEX
  8
0
 10
377.298673
 20
156.609492
 42
-0.047660
  0
VERTEX
  8
0
 10
374.255615
 20
160.812348
 42
-0.027619
  0
VERTEX
  8
0
 10
372.743604
 20
163.743725
 42
-0.056373
  0
VERTEX
  8
0
 10
371.958880
 20
166.207396
 42
-0.041085
  0
VERTEX
  8
0
 10
371.612301
 20
169.244878
 42
-0.009032
  0
VERTEX
  8
0
 10
371.541756
 20
174.500000
 42
-0.012767
  0
VERTEX
  8
0
 10
371.683781
 20
179.205626
 42
-0.024406
  0
VERTEX
  8
0
 10
372.078117
 20
182.965089
 42
-0.027248
  0
VERTEX
  8
0
 10
372.798481
 20
186.381766
 42
-0.021279
  0
VERTEX
  8
0
 10
373.936894
 20
190.000000
 42
-0.021695
  0
VERTEX
  8
0
 10
377.881359
 20
199.575243
 42
-0.012289
  0
VERTEX
  8
0
 10
383.436743
 20
210.824245
 42
-0.011372
  0
VERTEX
  8
0
 10
390.172687
 20
222.979261
 42
-0.009999
  0
VERTEX
  8
0
 10
397.739862
 20
235.355560
 42
0.008570
  0
VERTEX
  8
0
 10
399.380982
 20
238.022497
 42
0.013788
  0
VERTEX
  8
0
 10
400.676607
 20
240.355590
 42
0.007509
  0
VERTEX
  8
0
 10
401.657357
 20
242.313750
 42
0.318870
  0
VERTEX
  8
0
 10
401.583354
 20
242.749980
 42
0.282030
  0
VERTEX
  8
0
 10
401.086188
 20
242.869337
 42
0.000881
  0
VERTEX
  8
0
 10
394.660312
 20
240.768899
 42
0.004455
  0
VERTEX
  8
0
 10
387.350178
 20
238.292778
 42
0.002728
  0
VERTEX
  8
0
 10
378.772248
 20
235.249180
 42
-0.003438
  0
VERTEX
  8
0
 10
358.400480
 20
228.053483
 42
-0.006755
  0
VERTEX
  8
0
 10
342.081809
 20
222.660971
 42
-0.008315
  0
VERTEX
  8
0
 10
329.125069
 20
218.808428
 42
-0.021038
  0
VERTEX
  8
0
 10
319.557429
 20
216.565067
 42
0.004405
  0
VERTEX
  8
0
 10
318.966432
 20
216.447078
 42
0.000913
  0
VERTEX
  8
0
 10
317.929370
 20
216.228540
 42
0.000959
  0
VERTEX
  8
0
 10
316.726096
 20
215.970269
 42
0.000904
  0
VERTEX
  8
0
 10
315.500000
 20
215.702316
 42
-0.024593
  0
VERTEX
  8
0
 10
298.672435
 20
212.851997
 42
-0.023398
  0
VERTEX
  8
0
 10
281.363577
 20
211.606591
 42
-0.024342
  0
VERTEX
  8
0
 10
264.863411
 20
211.996616
 42
-0.035689
  0
VERTEX
  8
0
 10
250.500000
 20
214.074312
 42
-0.011360
  0
VERTEX
  8
0
 10
246.381320
 20
215.072285
 42
-0.005803
  0
VERTEX
  8
0
 10
241.256213
 20
216.502002
 42
-0.002274
  0
VERTEX
  8
0
 10
236.146093
 20
218.016916
 42
-0.101918
  0
VERTEX
  8
0
 10
235.176973
 20
218.541180
 42
-0.365758
  0
VERTEX
  8
0
 10
235.136263
 20
218.777647
 42
-0.004111
  0
VERTEX
  8
0
 10
236.026751
 20
220.266516
 42
-0.010180
  0
VERTEX
  8
0
 10
237.139747
 20
222.012150
 42
-0.006175
  0
VERTEX
  8
0
 10
238.523444
 20
224.033354
 42
0.037398
  0
VERTEX
  8
0
 10
247.302822
 20
238.749642
 42
0.026478
  0
VERTEX
  8
0
 10
254.976973
 20
256.396963
 42
0.025177
  0
VERTEX
  8
0
 10
261.140949
 20
275.846542
 42
0.024478
  0
VERTEX
  8
0
 10
265.386301
 20
296.000000
 42
0.031706
  0
VERTEX
  8
0
 10
267.029865
 20
313.197976
 42
0.007637
  0
VERTEX
  8
0
 10
267.505662
 20
341.833605
 42
0.008026
  0
VERTEX
  8
0
 10
267.078946
 20
370.837437
 42
0.024359
  0
VERTEX
  8
0
 10
265.513021
 20
390.500000
 42
-0.014250
  0
VERTEX
  8
0
 10
265.405208
 20
391.577982
 42
-0.003661
  0
VERTEX
  8
0
 10
265.293478
 20
393.325149
 42
-0.003724
  0
VERTEX
  8
0
 10
265.195410
 20
395.321190
 42
-0.003778
  0
VERTEX
  8
0
 10
265.127623
 20
397.309017
 42
0.029103
  0
VERTEX
  8
0
 10
264.829954
 20
400.814115
 42
0.504878
  0
VERTEX
  8
0
 10
263.964484
 20
401.278866
 42
0.158329
  0
VERTEX
  8
0
 10
262.653501
 20
400.041956
 42
0.008233
  0
VERTEX
  8
0
 10
259.920866
 20
394.843237
 42
-0.033933
  0
VERTEX
  8
0
 10
256.641867
 20
389.314504
 42
-0.037138
  0
VERTEX
  8
0
 10
252.732976
 20
384.454940
 42
-0.039247
  0
VERTEX
  8
0
 10
248.382564
 20
380.477040
 42
-0.050027
  0
VERTEX
  8
0
 10
243.786074
 20
377.580686
 42
-0.023711
  0
VERTEX
  8
0
 10
240.821116
 20
376.274746
 42
-0.047561
  0
VERTEX
  8
0
 10
238.359110
 20
375.586924
 42
-0.041676
  0
VERTEX
  8
0
 10
235.609160
 20
375.327459
 42
-0.014426
  0
VERTEX
  8
0
 10
231.619139
 20
375.399607
 42
-0.013545
  0
VERTEX
  8
0
 10
228.563874
 20
375.626164
 42
-0.010656
  0
VERTEX
  8
0
 10
225.269372
 20
376.031495
 42
-0.010805
  0
VERTEX
  8
0
 10
222.222029
 20
376.539979
 42
-0.025993
  0
VERTEX
  8
0
 10
220.000000
 20
377.081211
 42
-0.035352
  0
VERTEX
  8
0
 10
212.850528
 20
379.785132
 42
-0.015093
  0
VERTEX
  8
0
 10
203.694987
 20
384.348971
 42
-0.013397
  0
VERTEX
  8
0
 10
193.193606
 20
390.353388
 42
-0.009616
  0
VERTEX
  8
0
 10
181.780091
 20
397.595735
 42
0.001385
  0
VERTEX
  8
0
 10
175.717134
 20
401.584419
 42
0.002233
  0
VERTEX
  8
0
 10
170.529462
 20
404.943747
 42
0.000364
  0
VERTEX
  8
0
 10
165.924364
 20
407.891992
 42
0.143150
  0
VERTEX
  8
0
 10
165.554842
 20
408.000000
 42
0.415246
  0
VERTEX
  8
0
 10
165.414902
 20
407.859566
 42
0.041842
  0
VERTEX
  8
0
 10
165.460384
 20
407.339063
 42
0.033486
  0
VERTEX
  8
0
 10
165.636294
 20
406.613133
 42
0.018325
  0
SEQEND
  0
ENDSEC
  0
EOF
