  0
SECTION
  2
HEADER
  9
$ACADVER
  1
AC1006
  9
$EXTMIN
 10
0.000000
 20
0.000000
 30
0.000000
  9
$EXTMAX
 10
392.000000
 20
364.000000
 30
0.000000
  0
ENDSEC
  0
SECTION
  2
ENTITIES
  0
POLYLINE
  8
0
 66
1
 70
1
  0
VERTEX
  8
0
 10
192.383748
 20
361.547363
 42
0.016173
  0
VERTEX
  8
0
 10
188.850704
 20
359.645155
 42
0.049614
  0
VERTEX
  8
0
 10
186.649393
 20
358.055643
 42
0.079021
  0
VERTEX
  8
0
 10
185.421931
 20
356.564006
 42
0.133493
  0
VERTEX
  8
0
 10
185.000000
 20
355.011817
 42
-0.178744
  0
VERTEX
  8
0
 10
184.156450
 20
352.727542
 42
-0.013701
  0
VERTEX
  8
0
 10
179.687408
 20
347.782737
 42
-0.015152
  0
VERTEX
  8
0
 10
174.965284
 20
343.128185
 42
-0.142055
  0
VERTEX
  8
0
 10
172.442439
 20
341.860385
 42
0.139990
  0
VERTEX
  8
0
 10
171.473356
 20
341.378298
 42
0.039899
  0
VERTEX
  8
0
 10
170.314857
 20
340.137845
 42
0.033775
  0
VERTEX
  8
0
 10
169.085713
 20
338.356417
 42
0.020748
  0
VERTEX
  8
0
 10
167.874198
 20
336.111901
 42
-0.021551
  0
VERTEX
  8
0
 10
166.486029
 20
333.549958
 42
-0.042390
  0
VERTEX
  8
0
 10
165.132477
 20
331.671455
 42
-0.052514
  0
VERTEX
  8
0
 10
163.710853
 20
330.329033
 42
-0.063534
  0
VERTEX
  8
0
 10
162.124198
 20
329.410174
 42
0.021806
  0
VERTEX
  8
0
 10
160.927595
 20
328.844450
 42
0.030560
  0
VERTEX
  8
0
 10
159.917733
 20
328.230376
 42
0.031004
  0
VERTEX
  8
0
 10
159.183229
 20
327.649146
 42
0.212981
  0
VERTEX
  8
0
 10
159.000000
 20
327.238505
 42
-0.168057
  0
VERTEX
  8
0
 10
158.657774
 20
326.249077
 42
-0.003105
  0
VERTEX
  8
0
 10
155.169802
 20
321.866457
 42
-0.007961
  0
VERTEX
  8
0
 10
151.257645
 20
317.168120
 42
-0.007861
  0
VERTEX
  8
0
 10
147.181648
 20
312.576589
 42
0.020026
  0
VERTEX
  8
0
 10
144.174762
 20
309.018730
 42
0.014467
  0
VERTEX
  8
0
 10
141.103286
 20
304.829820
 42
0.009329
  0
VERTEX
  8
0
 10
138.457888
 20
300.836661
 42
0.142565
  0
VERTEX
  8
0
 10
138.000000
 20
299.263412
 42
-0.195936
  0
VERTEX
  8
0
 10
137.727457
 20
298.594623
 42
-0.017406
  0
VERTEX
  8
0
 10
136.384375
 20
297.312841
 42
-0.020671
  0
VERTEX
  8
0
 10
134.606893
 20
295.858018
 42
-0.014611
  0
VERTEX
  8
0
 10
132.500000
 20
294.368635
 42
0.016746
  0
VERTEX
  8
0
 10
130.038532
 20
292.612795
 42
0.038371
  0
VERTEX
  8
0
 10
128.341690
 20
291.094846
 42
0.052922
  0
VERTEX
  8
0
 10
127.312583
 20
289.764848
 42
0.136431
  0
VERTEX
  8
0
 10
126.978038
 20
288.608420
 42
-0.081959
  0
VERTEX
  8
0
 10
126.460889
 20
285.665822
 42
-0.035323
  0
VERTEX
  8
0
 10
124.875269
 20
281.998968
 42
-0.030479
  0
VERTEX
  8
0
 10
122.944879
 20
278.776351
 42
-0.247411
  0
VERTEX
  8
0
 10
121.471969
 20
278.000000
 42
0.112448
  0
VERTEX
  8
0
 10
120.658849
 20
277.814791
 42
0.029759
  0
VERTEX
  8
0
 10
119.487057
 20
277.163320
 42
0.028641
  0
VERTEX
  8
0
 10
118.207709
 20
276.241896
 42
0.025995
  0
VERTEX
  8
0
 10
116.997882
 20
275.151729
 42
0.028756
  0
VERTEX
  8
0
 10
115.476405
 20
273.444403
 42
0.087985
  0
VERTEX
  8
0
 10
114.742646
 20
272.084792
 42
0.086350
  0
VERTEX
  8
0
 10
114.513942
 20
270.541249
 42
0.027046
  0
VERTEX
  8
0
 10
114.699714
 20
268.202131
 42
-0.014770
  0
VERTEX
  8
0
 10
114.962152
 20
265.682767
 42
-0.133956
  0
VERTEX
  8
0
 10
114.752998
 20
264.607249
 42
-0.191722
  0
VERTEX
  8
0
 10
114.053810
 20
263.977047
 42
-0.036425
  0
VERTEX
  8
0
 10
112.374909
 20
263.490841
 42
0.013342
  0
VERTEX
  8
0
 10
111.164239
 20
263.200019
 42
0.011369
  0
VERTEX
  8
0
 10
109.903879
 20
262.830534
 42
0.011521
  0
VERTEX
  8
0
 10
108.772304
 20
262.441743
 42
0.031570
  0
VERTEX
  8
0
 10
108.000000
 20
262.099530
 42
0.136048
  0
VERTEX
  8
0
 10
106.212143
 20
260.431758
 42
0.028384
  0
VERTEX
  8
0
 10
104.163423
 20
256.617906
 42
0.030553
  0
VERTEX
  8
0
 10
102.522035
 20
252.449300
 42
0.077867
  0
VERTEX
  8
0
 10
102.010331
 20
249.250000
 42
-0.021696
  0
VERTEX
  8
0
 10
101.951966
 20
247.997487
 42
-0.033334
  0
VERTEX
  8
0
 10
101.782722
 20
246.925549
 42
-0.035533
  0
VERTEX
  8
0
 10
101.542062
 20
246.131478
 42
-0.275142
  0
VERTEX
  8
0
 10
101.250000
 20
245.900807
 42
-0.007500
  0
VERTEX
  8
0
 10
100.801680
 20
245.848342
 42
-0.001078
  0
VERTEX
  8
0
 10
99.883477
 20
245.756828
 42
-0.001223
  0
VERTEX
  8
0
 10
98.796894
 20
245.653580
 42
-0.001045
  0
VERTEX
  8
0
 10
97.651198
 20
245.549958
 42
0.073132
  0
VERTEX
  8
0
 10
95.507026
 20
245.038602
 42
0.132862
  0
VERTEX
  8
0
 10
94.076382
 20
243.963842
 42
0.148106
  0
VERTEX
  8
0
 10
93.475515
 20
242.406587
 42
0.099390
  0
VERTEX
  8
0
 10
93.713063
 20
240.500000
 42
-0.026625
  0
VERTEX
  8
0
 10
93.973455
 20
239.554897
 42
-0.013851
  0
VERTEX
  8
0
 10
94.201975
 20
238.353125
 42
-0.013735
  0
VERTEX
  8
0
 10
94.368892
 20
237.103063
 42
-0.020346
  0
VERTEX
  8
0
 10
94.440235
 20
236.000000
 42
-0.055985
  0
VERTEX
  8
0
 10
94.316602
 20
234.597947
 42
-0.209298
  0
VERTEX
  8
0
 10
93.819503
 20
233.890399
 42
-0.120727
  0
VERTEX
  8
0
 10
92.759179
 20
233.556096
 42
-0.014176
  0
VERTEX
  8
0
 10
90.264296
 20
233.464296
 42
0.038886
  0
VERTEX
  8
0
 10
86.356027
 20
233.126716
 42
0.225951
  0
VERTEX
  8
0
 10
84.704297
 20
231.976381
 42
0.208757
  0
VERTEX
  8
0
 10
84.482146
 20
229.896782
 42
0.033224
  0
VERTEX
  8
0
 10
86.004557
 20
225.990271
 42
-0.008521
  0
VERTEX
  8
0
 10
87.392623
 20
222.890232
 42
-0.075564
  0
VERTEX
  8
0
 10
87.766532
 20
221.444620
 42
-0.154096
  0
VERTEX
  8
0
 10
87.550574
 20
220.398212
 42
-0.069132
  0
VERTEX
  8
0
 10
86.694604
 20
219.266032
 42
-0.053548
  0
VERTEX
  8
0
 10
85.664722
 20
218.435921
 42
-0.119996
  0
VERTEX
  8
0
 10
84.721237
 20
218.110051
 42
-0.089238
  0
VERTEX
  8
0
 10
83.555871
 20
218.208516
 42
-0.021173
  0
VERTEX
  8
0
 10
81.688841
 20
218.795554
 42
0.011797
  0
VERTEX
  8
0
 10
78.280478
 20
219.937855
 42
0.171706
  0
VERTEX
  8
0
 10
77.030164
 20
219.887430
 42
0.356227
  0
VERTEX
  8
0
 10
76.597716
 20
219.106949
 42
0.039264
  0
VERTEX
  8
0
 10
77.155812
 20
216.982881
 42
-0.103290
  0
VERTEX
  8
0
 10
77.509435
 20
214.269161
 42
-0.105960
  0
VERTEX
  8
0
 10
76.740511
 20
211.667810
 42
-0.105555
  0
VERTEX
  8
0
 10
74.969562
 20
209.602699
 42
-0.101773
  0
VERTEX
  8
0
 10
72.487350
 20
208.407469
 42
0.032774
  0
VERTEX
  8
0
 10
70.738330
 20
207.844452
 42
0.248287
  0
VERTEX
  8
0
 10
70.193546
 20
207.206918
 42
0.171623
  0
VERTEX
  8
0
 10
70.310505
 20
206.233294
 42
0.014958
  0
VERTEX
  8
0
 10
71.500000
 20
204.000000
 42
-0.020911
  0
VERTEX
  8
0
 10
72.621431
 20
201.832710
 42
-0.142022
  0
VERTEX
  8
0
 10
72.803914
 20
200.653435
 42
-0.127136
  0
VERTEX
  8
0
 10
72.339867
 20
199.496812
 42
-0.015464
  0
VERTEX
  8
0
 10
70.636833
 20
197.326725
 42
0.022696
  0
VERTEX
  8
0
 10
69.675673
 20
196.064825
 42
0.017545
  0
VERTEX
  8
0
 10
68.742021
 20
194.609676
 42
0.017860
  0
VERTEX
  8
0
 10
67.965315
 20
193.186767
 42
0.040092
  0
VERTEX
  8
0
 10
67.504901
 20
192.046640
 42
-0.047958
  0
VERTEX
  8
0
 10
66.568437
 20
189.828621
 42
-0.106503
  0
VERTEX
  8
0
 10
65.382098
 20
188.441547
 42
-0.110885
  0
VERTEX
  8
0
 10
63.763438
 20
187.698862
 42
-0.054726
  0
VERTEX
  8
0
 10
61.500000
 20
187.471851
 42
0.000000
  0
VERTEX
  8
0
 10
58.500000
 20
187.500000
 42
0.000000
  0
VERTEX
  8
0
 10
57.983980
 20
178.919097
 42
-0.008085
  0
VERTEX
  8
0
 10
57.600550
 20
173.899195
 42
-0.048055
  0
VERTEX
  8
0
 10
57.108405
 20
171.318500
 42
-0.082484
  0
VERTEX
  8
0
 10
56.250899
 20
169.539109
 42
-0.052478
  0
VERTEX
  8
0
 10
54.733980
 20
167.804426
 42
0.017478
  0
VERTEX
  8
0
 10
53.687091
 20
166.763877
 42
0.022411
  0
VERTEX
  8
0
 10
52.803107
 20
165.732655
 42
0.021074
  0
VERTEX
  8
0
 10
52.154308
 20
164.827143
 42
0.145915
  0
VERTEX
  8
0
 10
52.000000
 20
164.309643
 42
-0.142266
  0
VERTEX
  8
0
 10
51.850865
 20
163.796111
 42
-0.022069
  0
VERTEX
  8
0
 10
51.238465
 20
162.918784
 42
-0.023091
  0
VERTEX
  8
0
 10
50.400187
 20
161.922950
 42
-0.018258
  0
VERTEX
  8
0
 10
49.407540
 20
160.924314
 42
0.033977
  0
VERTEX
  8
0
 10
48.033484
 20
159.452245
 42
0.098054
  0
VERTEX
  8
0
 10
47.382750
 20
158.225054
 42
0.089151
  0
VERTEX
  8
0
 10
47.216276
 20
156.774311
 42
0.025040
  0
VERTEX
  8
0
 10
47.475869
 20
154.500000
 42
-0.006297
  0
VERTEX
  8
0
 10
48.296973
 20
149.108116
 42
-0.121277
  0
VERTEX
  8
0
 10
48.124322
 20
147.435314
 42
-0.257040
  0
VERTEX
  8
0
 10
47.174827
 20
146.596834
 42
-0.036288
  0
VERTEX
  8
0
 10
44.500000
 20
146.198983
 42
0.052577
  0
VERTEX
  8
0
 10
41.116974
 20
145.582783
 42
0.168119
  0
VERTEX
  8
0
 10
39.274357
 20
144.271907
 42
0.187985
  0
VERTEX
  8
0
 10
38.753383
 20
142.211776
 42
0.068064
  0
VERTEX
  8
0
 10
39.542280
 20
139.244568
 42
-0.035807
  0
VERTEX
  8
0
 10
40.600324
 20
136.096120
 42
-0.064270
  0
VERTEX
  8
0
 10
40.937686
 20
133.394906
 42
-0.092169
  0
VERTEX
  8
0
 10
40.560828
 20
131.413292
 42
-0.211219
  0
VERTEX
  8
0
 10
39.505744
 20
130.363830
 42
0.063193
  0
VERTEX
  8
0
 10
38.974836
 20
130.078857
 42
0.094061
  0
VERTEX
  8
0
 10
38.610870
 20
129.699262
 42
0.121753
  0
VERTEX
  8
0
 10
38.468042
 20
129.288318
 42
0.162858
  0
VERTEX
  8
0
 10
38.557681
 20
128.906670
 42
-0.118021
  0
VERTEX
  8
0
 10
38.654221
 20
128.613999
 42
-0.314737
  0
VERTEX
  8
0
 10
38.549494
 20
128.433681
 42
-0.159965
  0
VERTEX
  8
0
 10
38.243880
 20
128.397595
 42
-0.041699
  0
VERTEX
  8
0
 10
37.762813
 20
128.537523
 42
0.226819
  0
VERTEX
  8
0
 10
37.028529
 20
128.478889
 42
0.047264
  0
VERTEX
  8
0
 10
35.947438
 20
127.706713
 42
0.038597
  0
VERTEX
  8
0
 10
34.695012
 20
126.438035
 42
0.021956
  0
VERTEX
  8
0
 10
33.375876
 20
124.730920
 42
0.014122
  0
VERTEX
  8
0
 10
31.609247
 20
122.067956
 42
0.083046
  0
VERTEX
  8
0
 10
30.971206
 20
120.523616
 42
0.108348
  0
VERTEX
  8
0
 10
30.956096
 20
119.045688
 42
0.031927
  0
VERTEX
  8
0
 10
31.562876
 20
116.848628
 42
-0.035820
  0
VERTEX
  8
0
 10
32.290306
 20
114.132562
 42
-0.158075
  0
VERTEX
  8
0
 10
32.088872
 20
112.509568
 42
-0.164368
  0
VERTEX
  8
0
 10
30.980446
 20
111.350013
 42
-0.039544
  0
VERTEX
  8
0
 10
28.500000
 20
110.292315
 42
0.046841
  0
VERTEX
  8
0
 10
26.665759
 20
109.478394
 42
0.205766
  0
VERTEX
  8
0
 10
25.961334
 20
108.558816
 42
0.104106
  0
VERTEX
  8
0
 10
25.899663
 20
107.031237
 42
0.008063
  0
VERTEX
  8
0
 10
26.650198
 20
102.981295
 42
-0.081894
  0
VERTEX
  8
0
 10
26.701460
 20
101.555687
 42
-0.105590
  0
VERTEX
  8
0
 10
26.268173
 20
100.322496
 42
-0.068511
  0
VERTEX
  8
0
 10
25.196415
 20
99.010855
 42
-0.017991
  0
VERTEX
  8
0
 10
23.138660
 20
97.231672
 42
0.010613
  0
VERTEX
  8
0
 10
20.643481
 20
95.137805
 42
0.111297
  0
VERTEX
  8
0
 10
19.862716
 20
94.066336
 42
0.184201
  0
VERTEX
  8
0
 10
19.815663
 20
92.990786
 42
0.040076
  0
VERTEX
  8
0
 10
20.552947
 20
91.250377
 42
-0.049745
  0
VERTEX
  8
0
 10
21.674432
 20
88.453983
 42
-0.101465
  0
VERTEX
  8
0
 10
21.862093
 20
86.106224
 42
-0.109761
  0
VERTEX
  8
0
 10
21.112657
 20
83.995140
 42
-0.064997
  0
VERTEX
  8
0
 10
19.404986
 20
81.924314
 42
0.034494
  0
VERTEX
  8
0
 10
16.654381
 20
78.974299
 42
0.085822
  0
VERTEX
  8
0
 10
15.218184
 20
76.408196
 42
0.107800
  0
VERTEX
  8
0
 10
14.903095
 20
73.885288
 42
0.077027
  0
VERTEX
  8
0
 10
15.593454
 20
71.115569
 42
-0.023404
  0
VERTEX
  8
0
 10
16.765695
 20
67.916395
 42
-0.162364
  0
VERTEX
  8
0
 10
16.736911
 20
66.270785
 42
-0.199622
  0
VERTEX
  8
0
 10
15.734147
 20
65.158074
 42
-0.038059
  0
VERTEX
  8
0
 10
13.137401
 20
64.159312
 42
0.020036
  0
VERTEX
  8
0
 10
10.969292
 20
63.413862
 42
0.116989
  0
VERTEX
  8
0
 10
9.983293
 20
62.733282
 42
0.164702
  0
VERTEX
  8
0
 10
9.581146
 20
61.801033
 42
0.050863
  0
VERTEX
  8
0
 10
9.613474
 20
60.251025
 42
-0.053603
  0
VERTEX
  8
0
 10
9.633016
 20
58.981098
 42
-0.028638
  0
VERTEX
  8
0
 10
9.399743
 20
57.426864
 42
-0.028159
  0
VERTEX
  8
0
 10
8.975966
 20
55.849983
 42
-0.038995
  0
VERTEX
  8
0
 10
8.410295
 20
54.500000
 42
0.038785
  0
VERTEX
  8
0
 10
7.632923
 20
52.646971
 42
0.076786
  0
VERTEX
  8
0
 10
7.369476
 20
51.078536
 42
0.054823
  0
VERTEX
  8
0
 10
7.552761
 20
49.182971
 42
0.012116
  0
VERTEX
  8
0
 10
8.298564
 20
46.000000
 42
-0.015585
  0
VERTEX
  8
0
 10
8.903738
 20
43.334081
 42
-0.034451
  0
VERTEX
  8
0
 10
9.159945
 20
41.264635
 42
-0.045597
  0
VERTEX
  8
0
 10
9.099297
 20
39.618608
 42
-0.075003
  0
VERTEX
  8
0
 10
8.718114
 20
38.281357
 42
-0.029356
  0
VERTEX
  8
0
 10
8.284087
 20
37.459950
 42
-0.048457
  0
VERTEX
  8
0
 10
7.814708
 20
36.831676
 42
-0.065196
  0
VERTEX
  8
0
 10
7.380929
 20
36.464739
 42
-0.289038
  0
VERTEX
  8
0
 10
7.061787
 20
36.461813
 42
0.348301
  0
VERTEX
  8
0
 10
6.667008
 20
36.415514
 42
0.014490
  0
VERTEX
  8
0
 10
5.627723
 20
35.310494
 42
0.019693
  0
VERTEX
  8
0
 10
4.409584
 20
33.823673
 42
0.012050
  0
VERTEX
  8
0
 10
3.086673
 20
31.981988
 42
0.037855
  0
VERTEX
  8
0
 10
0.659555
 20
27.773621
 42
0.143363
  0
VERTEX
  8
0
 10
0.172555
 20
24.806427
 42
0.270830
  0
VERTEX
  8
0
 10
1.437422
 20
23.146296
 42
0.125360
  0
VERTEX
  8
0
 10
4.219547
 20
22.750465
 42
-0.052570
  0
VERTEX
  8
0
 10
5.852790
 20
22.755442
 42
-0.035374
  0
VERTEX
  8
0
 10
7.691819
 20
22.434620
 42
-0.032996
  0
VERTEX
  8
0
 10
9.614229
 20
21.820092
 42
-0.030150
  0
VERTEX
  8
0
 10
11.500000
 20
20.942309
 42
0.000411
  0
VERTEX
  8
0
 10
13.232169
 20
20.006990
 42
0.000313
  0
VERTEX
  8
0
 10
15.130706
 20
18.985384
 42
0.000316
  0
VERTEX
  8
0
 10
16.911491
 20
18.030030
 42
0.000744
  0
VERTEX
  8
0
 10
18.242828
 20
17.319426
 42
0.075571
  0
VERTEX
  8
0
 10
20.711964
 20
16.451720
 42
0.121416
  0
VERTEX
  8
0
 10
22.928918
 20
16.572809
 42
0.140714
  0
VERTEX
  8
0
 10
24.616122
 20
17.668129
 42
0.117915
  0
VERTEX
  8
0
 10
25.606084
 20
19.566650
 42
-0.036816
  0
VERTEX
  8
0
 10
26.226336
 20
21.441442
 42
-0.340891
  0
VERTEX
  8
0
 10
26.920796
 20
21.839636
 42
-0.213817
  0
VERTEX
  8
0
 10
27.774784
 20
21.306909
 42
-0.018636
  0
VERTEX
  8
0
 10
29.154254
 20
19.079466
 42
0.032416
  0
VERTEX
  8
0
 10
29.962644
 20
17.851061
 42
0.022171
  0
VERTEX
  8
0
 10
31.027610
 20
16.563810
 42
0.022405
  0
VERTEX
  8
0
 10
32.169702
 20
15.410046
 42
0.041434
  0
VERTEX
  8
0
 10
33.208640
 20
14.598950
 42
0.095423
  0
VERTEX
  8
0
 10
35.844072
 20
13.516349
 42
0.030416
  0
VERTEX
  8
0
 10
40.063008
 20
12.927457
 42
0.030808
  0
VERTEX
  8
0
 10
44.618179
 20
12.853303
 42
0.048062
  0
VERTEX
  8
0
 10
48.500000
 20
13.405752
 42
-0.062236
  0
VERTEX
  8
0
 10
50.273136
 20
13.607162
 42
-0.082308
  0
VERTEX
  8
0
 10
51.870911
 20
13.323917
 42
-0.055512
  0
VERTEX
  8
0
 10
53.720139
 20
12.429251
 42
-0.014578
  0
VERTEX
  8
0
 10
56.458023
 20
10.593418
 42
0.024621
  0
VERTEX
  8
0
 10
59.893144
 20
8.388734
 42
0.180378
  0
VERTEX
  8
0
 10
61.787594
 20
8.074366
 42
0.353944
  0
VERTEX
  8
0
 10
62.652275
 20
9.105228
 42
0.065968
  0
VERTEX
  8
0
 10
62.349983
 20
11.741692
 42
-0.159907
  0
VERTEX
  8
0
 10
62.455485
 20
13.220434
 42
-0.262927
  0
VERTEX
  8
0
 10
63.413305
 20
13.976510
 42
-0.126755
  0
VERTEX
  8
0
 10
65.287728
 20
13.791936
 42
-0.038960
  0
VERTEX
  8
0
 10
67.893949
 20
12.602341
 42
0.053717
  0
VERTEX
  8
0
 10
69.128556
 20
12.082176
 42
0.046585
  0
VERTEX
  8
0
 10
70.506485
 20
11.805272
 42
0.044012
  0
VERTEX
  8
0
 10
71.988209
 20
11.779715
 42
0.037794
  0
VERTEX
  8
0
 10
73.531183
 20
12.007033
 42
-0.047413
  0
VERTEX
  8
0
 10
75.248083
 20
12.226382
 42
-0.042244
  0
VERTEX
  8
0
 10
77.044889
 20
12.132644
 42
-0.037629
  0
VERTEX
  8
0
 10
78.985582
 20
11.715384
 42
-0.024936
  0
VERTEX
  8
0
 10
81.137233
 20
10.961846
 42
0.010902
  0
VERTEX
  8
0
 10
88.017694
 20
8.333273
 42
0.035244
  0
VERTEX
  8
0
 10
92.727092
 20
7.016400
 42
0.055254
  0
VERTEX
  8
0
 10
96.154408
 20
6.700855
 42
0.113403
  0
VERTEX
  8
0
 10
98.756358
 20
7.349821
 42
-0.060704
  0
VERTEX
  8
0
 10
100.896922
 20
8.128787
 42
-0.124203
  0
VERTEX
  8
0
 10
102.671351
 20
8.094377
 42
-0.071628
  0
VERTEX
  8
0
 10
104.813193
 20
7.164631
 42
-0.010877
  0
VERTEX
  8
0
 10
108.739251
 20
4.624227
 42
0.014782
  0
VERTEX
  8
0
 10
111.232513
 20
3.038416
 42
0.075737
  0
VERTEX
  8
0
 10
112.747799
 20
2.423066
 42
0.109458
  0
VERTEX
  8
0
 10
114.102468
 20
2.400688
 42
0.047829
  0
VERTEX
  8
0
 10
115.830329
 20
2.929720
 42
-0.039110
  0
VERTEX
  8
0
 10
117.134100
 20
3.353859
 42
-0.025081
  0
VERTEX
  8
0
 10
118.698928
 20
3.648621
 42
-0.025180
  0
VERTEX
  8
0
 10
120.270263
 20
3.783590
 42
-0.042409
  0
VERTEX
  8
0
 10
121.591079
 20
3.718245
 42
0.041932
  0
VERTEX
  8
0
 10
123.176913
 20
3.638273
 42
0.130340
  0
VERTEX
  8
0
 10
124.193275
 20
3.944499
 42
0.121234
  0
VERTEX
  8
0
 10
124.966866
 20
4.730183
 42
0.033966
  0
VERTEX
  8
0
 10
125.750690
 20
6.279203
 42
-0.032896
  0
VERTEX
  8
0
 10
126.426413
 20
7.621700
 42
-0.090070
  0
VERTEX
  8
0
 10
127.117321
 20
8.422706
 42
-0.130904
  0
VERTEX
  8
0
 10
127.878025
 20
8.761575
 42
-0.113809
  0
VERTEX
  8
0
 10
128.750690
 20
8.702238
 42
-0.007316
  0
VERTEX
  8
0
 10
131.362442
 20
7.868025
 42
-0.003282
  0
VERTEX
  8
0
 10
134.770946
 20
6.699154
 42
-0.003132
  0
VERTEX
  8
0
 10
138.520465
 20
5.359348
 42
-0.003181
  0
VERTEX
  8
0
 10
142.233417
 20
3.979504
 42
0.009921
  0
VERTEX
  8
0
 10
145.243423
 20
2.906842
 42
0.084791
  0
VERTEX
  8
0
 10
146.652983
 20
2.689024
 42
0.129171
  0
VERTEX
  8
0
 10
147.802531
 20
3.010613
 42
0.034218
  0
VERTEX
  8
0
 10
149.391146
 20
4.093035
 42
-0.042794
  0
VERTEX
  8
0
 10
151.540748
 20
5.504401
 42
-0.154491
  0
VERTEX
  8
0
 10
153.130410
 20
5.808288
 42
-0.099712
  0
VERTEX
  8
0
 10
154.997060
 20
5.197066
 42
-0.012492
  0
VERTEX
  8
0
 10
158.666569
 20
2.996502
 42
0.019097
  0
VERTEX
  8
0
 10
160.886036
 20
1.705049
 42
0.038714
  0
VERTEX
  8
0
 10
162.736744
 20
0.897576
 42
0.050817
  0
VERTEX
  8
0
 10
164.258335
 20
0.537337
 42
0.110005
  0
VERTEX
  8
0
 10
165.449541
 20
0.642679
 42
-0.047622
  0
VERTEX
  8
0
 10
166.566690
 20
0.883313
 42
-0.012419
  0
VERTEX
  8
0
 10
168.396845
 20
1.052442
 42
-0.012508
  0
VERTEX
  8
0
 10
170.501223
 20
1.141512
 42
-0.012489
  0
VERTEX
  8
0
 10
172.608479
 20
1.125308
 42
0.019390
  0
VERTEX
  8
0
 10
174.905447
 20
1.139343
 42
0.037825
  0
VERTEX
  8
0
 10
176.722955
 20
1.359420
 42
0.048931
  0
VERTEX
  8
0
 10
178.072279
 20
1.767811
 42
0.122200
  0
VERTEX
  8
0
 10
178.895756
 20
2.374393
 42
-0.200737
  0
VERTEX
  8
0
 10
180.952643
 20
3.450108
 42
-0.034537
  0
VERTEX
  8
0
 10
185.449449
 20
3.524803
 42
-0.037445
  0
VERTEX
  8
0
 10
190.096516
 20
2.930050
 42
-0.102574
  0
VERTEX
  8
0
 10
193.121031
 20
1.627780
 42
0.036648
  0
VERTEX
  8
0
 10
195.192897
 20
0.392173
 42
0.134239
  0
VERTEX
  8
0
 10
196.677830
 20
0.094867
 42
0.202689
  0
VERTEX
  8
0
 10
197.747266
 20
0.637082
 42
0.098887
  0
VERTEX
  8
0
 10
198.500337
 20
2.001061
 42
-0.100935
  0
VERTEX
  8
0
 10
199.731322
 20
4.209436
 42
-0.189898
  0
VERTEX
  8
0
 10
201.509891
 20
5.148446
 42
-0.133068
  0
VERTEX
  8
0
 10
203.953357
 20
4.768783
 42
-0.041598
  0
VERTEX
  8
0
 10
207.232549
 20
2.969356
 42
0.022393
  0
VERTEX
  8
0
 10
210.118684
 20
1.238358
 42
0.077162
  0
VERTEX
  8
0
 10
212.169066
 20
0.509719
 42
0.058691
  0
VERTEX
  8
0
 10
214.621085
 20
0.337349
 42
0.009316
  0
VERTEX
  8
0
 10
219.439016
 20
0.654335
 42
0.013331
  0
VERTEX
  8
0
 10
222.791598
 20
1.027974
 42
0.023529
  0
VERTEX
  8
0
 10
225.528815
 20
1.539365
 42
0.027002
  0
VERTEX
  8
0
 10
227.600073
 20
2.147857
 42
0.111880
  0
VERTEX
  8
0
 10
228.696034
 20
2.838891
 42
-0.167730
  0
VERTEX
  8
0
 10
230.958612
 20
3.940313
 42
-0.040280
  0
VERTEX
  8
0
 10
235.190872
 20
4.110320
 42
-0.041688
  0
VERTEX
  8
0
 10
239.601714
 20
3.561913
 42
-0.093525
  0
VERTEX
  8
0
 10
242.706088
 20
2.273009
 42
0.034524
  0
VERTEX
  8
0
 10
244.190479
 20
1.440715
 42
0.163811
  0
VERTEX
  8
0
 10
245.144621
 20
1.328316
 42
0.123524
  0
VERTEX
  8
0
 10
246.120405
 20
1.803628
 42
0.016226
  0
VERTEX
  8
0
 10
247.849399
 20
3.355715
 42
-0.036272
  0
VERTEX
  8
0
 10
250.172288
 20
5.278630
 42
-0.155314
  0
VERTEX
  8
0
 10
251.862979
 20
5.821684
 42
-0.126621
  0
VERTEX
  8
0
 10
253.752288
 20
5.340724
 42
-0.020860
  0
VERTEX
  8
0
 10
257.002319
 20
3.379768
 42
0.022704
  0
VERTEX
  8
0
 10
259.049978
 20
2.154555
 42
0.053005
  0
VERTEX
  8
0
 10
260.701240
 20
1.479859
 42
0.067241
  0
VERTEX
  8
0
 10
262.195322
 20
1.257559
 42
0.062868
  0
VERTEX
  8
0
 10
263.730879
 20
1.430492
 42
-0.011487
  0
VERTEX
  8
0
 10
265.556594
 20
1.828695
 42
-0.009291
  0
VERTEX
  8
0
 10
267.532449
 20
2.174357
 42
-0.007153
  0
VERTEX
  8
0
 10
269.962340
 20
2.517530
 42
-0.002980
  0
VERTEX
  8
0
 10
273.250000
 20
2.914071
 42
0.245137
  0
VERTEX
  8
0
 10
273.539186
 20
3.109743
 42
0.051699
  0
VERTEX
  8
0
 10
273.779688
 20
3.691797
 42
0.043163
  0
VERTEX
  8
0
 10
273.945355
 20
4.499714
 42
0.029003
  0
VERTEX
  8
0
 10
274.000000
 20
5.440983
 42
-0.163151
  0
VERTEX
  8
0
 10
274.749162
 20
7.675790
 42
-0.228404
  0
VERTEX
  8
0
 10
276.592816
 20
8.623436
 42
-0.063208
  0
VERTEX
  8
0
 10
280.557527
 20
8.223375
 42
-0.005664
  0
VERTEX
  8
0
 10
290.295135
 20
5.859588
 42
0.028104
  0
VERTEX
  8
0
 10
292.419205
 20
5.443864
 42
0.071166
  0
VERTEX
  8
0
 10
293.988823
 20
5.451725
 42
0.072189
  0
VERTEX
  8
0
 10
295.480007
 20
5.898711
 42
0.029563
  0
VERTEX
  8
0
 10
297.344937
 20
6.904166
 42
0.000000
  0
VERTEX
  8
0
 10
300.599604
 20
8.915661
 42
0.000000
  0
VERTEX
  8
0
 10
304.549802
 20
6.489040
 42
0.033983
  0
VERTEX
  8
0
 10
308.078793
 20
4.638639
 42
0.102838
  0
VERTEX
  8
0
 10
310.718748
 20
4.075848
 42
0.179715
  0
VERTEX
  8
0
 10
312.513649
 20
4.732160
 42
0.155922
  0
VERTEX
  8
0
 10
313.575091
 20
6.443165
 42
0.031096
  0
VERTEX
  8
0
 10
313.762921
 20
7.453939
 42
0.031993
  0
VERTEX
  8
0
 10
313.821542
 20
8.470604
 42
0.033770
  0
VERTEX
  8
0
 10
313.756220
 20
9.353133
 42
0.103411
  0
VERTEX
  8
0
 10
313.552990
 20
9.914260
 42
-0.553911
  0
VERTEX
  8
0
 10
313.996707
 20
10.814122
 42
-0.015430
  0
VERTEX
  8
0
 10
319.223339
 20
11.181362
 42
-0.018332
  0
VERTEX
  8
0
 10
326.177407
 20
11.199643
 42
-0.010709
  0
VERTEX
  8
0
 10
334.500000
 20
10.737684
 42
0.016378
  0
VERTEX
  8
0
 10
337.665874
 20
10.597932
 42
0.042574
  0
VERTEX
  8
0
 10
339.939562
 20
10.765887
 42
0.053353
  0
VERTEX
  8
0
 10
341.834787
 20
11.281106
 42
0.041766
  0
VERTEX
  8
0
 10
343.750028
 20
12.219361
 42
-0.037023
  0
VERTEX
  8
0
 10
345.379876
 20
13.037036
 42
-0.042773
  0
VERTEX
  8
0
 10
347.036728
 20
13.559546
 42
-0.044122
  0
VERTEX
  8
0
 10
348.711818
 20
13.781629
 42
-0.044424
  0
VERTEX
  8
0
 10
350.395982
 20
13.705511
 42
0.027757
  0
VERTEX
  8
0
 10
352.239775
 20
13.560560
 42
0.107326
  0
VERTEX
  8
0
 10
353.359938
 20
13.777011
 42
0.132939
  0
VERTEX
  8
0
 10
354.158086
 20
14.408102
 42
0.052524
  0
VERTEX
  8
0
 10
354.874515
 20
15.623934
 42
-0.083382
  0
VERTEX
  8
0
 10
355.948729
 20
17.214828
 42
-0.177610
  0
VERTEX
  8
0
 10
357.260779
 20
17.863178
 42
-0.096533
  0
VERTEX
  8
0
 10
359.253863
 20
17.693222
 42
-0.015414
  0
VERTEX
  8
0
 10
363.000000
 20
16.500000
 42
0.007894
  0
VERTEX
  8
0
 10
366.454458
 20
15.342185
 42
0.078371
  0
VERTEX
  8
0
 10
367.961165
 20
15.112634
 42
0.146856
  0
VERTEX
  8
0
 10
369.071149
 20
15.452175
 42
0.049268
  0
VERTEX
  8
0
 10
370.395833
 20
16.538690
 42
0.075017
  0
VERTEX
  8
0
 10
371.031240
 20
17.399913
 42
0.069761
  0
VERTEX
  8
0
 10
371.403872
 20
18.431643
 42
0.061290
  0
VERTEX
  8
0
 10
371.506950
 20
19.643262
 42
0.039981
  0
VERTEX
  8
0
 10
371.342262
 20
21.038690
 42
-0.068522
  0
VERTEX
  8
0
 10
371.212849
 20
23.172810
 42
-0.377097
  0
VERTEX
  8
0
 10
371.972158
 20
23.913990
 42
-0.158562
  0
VERTEX
  8
0
 10
373.581590
 20
23.481699
 42
-0.018675
  0
VERTEX
  8
0
 10
376.652838
 20
21.315628
 42
0.020855
  0
VERTEX
  8
0
 10
378.866975
 20
19.768458
 42
0.096491
  0
VERTEX
  8
0
 10
380.313085
 20
19.197880
 42
0.092889
  0
VERTEX
  8
0
 10
381.894368
 20
19.200762
 42
0.018570
  0
VERTEX
  8
0
 10
384.657099
 20
19.830774
 42
-0.015844
  0
VERTEX
  8
0
 10
386.442492
 20
20.248165
 42
-0.020746
  0
VERTEX
  8
0
 10
388.097436
 20
20.509274
 42
-0.018800
  0
VERTEX
  8
0
 10
389.464917
 20
20.615335
 42
-0.149444
  0
VERTEX
  8
0
 10
390.070983
 20
20.456130
 42
0.359458
  0
VERTEX
  8
0
 10
390.621832
 20
20.531835
 42
0.339573
  0
VERTEX
  8
0
 10
390.672998
 20
21.102934
 42
0.036696
  0
VERTEX
  8
0
 10
389.154770
 20
23.147547
 42
0.009987
  0
VERTEX
  8
0
 10
386.463037
 20
26.142970
 42
-0.009943
  0
VERTEX
  8
0
 10
383.954706
 20
28.933803
 42
-0.063767
  0
VERTEX
  8
0
 10
382.908162
 20
30.514249
 42
-0.132729
  0
VERTEX
  8
0
 10
382.663592
 20
31.761598
 42
-0.105665
  0
VERTEX
  8
0
 10
383.045202
 20
33.084461
 42
-0.113675
  0
VERTEX
  8
0
 10
384.050266
 20
34.235552
 42
-0.147091
  0
VERTEX
  8
0
 10
385.367877
 20
34.693580
 42
-0.083104
  0
VERTEX
  8
0
 10
387.299454
 20
34.454082
 42
-0.019307
  0
VERTEX
  8
0
 10
390.407099
 20
33.397276
 42
0.072043
  0
VERTEX
  8
0
 10
391.132972
 20
33.232997
 42
0.197091
  0
VERTEX
  8
0
 10
391.624277
 20
33.390626
 42
0.168660
  0
VERTEX
  8
0
 10
391.912104
 20
33.874117
 42
0.050740
  0
VERTEX
  8
0
 10
392.000000
 20
34.738024
 42
0.127021
  0
VERTEX
  8
0
 10
391.547269
 20
36.491379
 42
0.082459
  0
VERTEX
  8
0
 10
390.240469
 20
38.141109
 42
0.070514
  0
VERTEX
  8
0
 10
388.242369
 20
39.495018
 42
0.055458
  0
VERTEX
  8
0
 10
385.777677
 20
40.377797
 42
-0.082149
  0
VERTEX
  8
0
 10
383.125855
 20
41.489798
 42
-0.079577
  0
VERTEX
  8
0
 10
380.940090
 20
43.406135
 42
-0.081376
  0
VERTEX
  8
0
 10
379.499216
 20
45.866607
 42
-0.092103
  0
VERTEX
  8
0
 10
379.000000
 20
48.553703
 42
0.053850
  0
VERTEX
  8
0
 10
378.847587
 20
49.964773
 42
0.032505
  0
VERTEX
  8
0
 10
378.381998
 20
51.582824
 42
0.032278
  0
VERTEX
  8
0
 10
377.701957
 20
53.148760
 42
0.048109
  0
VERTEX
  8
0
 10
376.896164
 20
54.404877
 42
-0.038279
  0
VERTEX
  8
0
 10
375.891382
 20
55.905558
 42
-0.071952
  0
VERTEX
  8
0
 10
375.365123
 20
57.263103
 42
-0.069488
  0
VERTEX
  8
0
 10
375.235180
 20
58.745949
 42
-0.033537
  0
VERTEX
  8
0
 10
375.460819
 20
60.642840
 42
0.040185
  0
VERTEX
  8
0
 10
375.670353
 20
62.628798
 42
0.069294
  0
VERTEX
  8
0
 10
375.482321
 20
64.277236
 42
0.059966
  0
VERTEX
  8
0
 10
374.823318
 20
65.967608
 42
0.023275
  0
VERTEX
  8
0
 10
373.534072
 20
68.127877
 42
-0.031226
  0
VERTEX
  8
0
 10
372.473134
 20
69.971543
 42
-0.018511
  0
VERTEX
  8
0
 10
371.432175
 20
72.285592
 42
-0.018485
  0
VERTEX
  8
0
 10
370.561405
 20
74.680440
 42
-0.030094
  0
VERTEX
  8
0
 10
370.023055
 20
76.774774
 42
0.019941
  0
VERTEX
  8
0
 10
369.492961
 20
79.025451
 42
0.008894
  0
VERTEX
  8
0
 10
368.625052
 20
81.944779
 42
0.008788
  0
VERTEX
  8
0
 10
367.596196
 20
85.004929
 42
0.011771
  0
VERTEX
  8
0
 10
366.549884
 20
87.739368
 42
-0.011720
  0
VERTEX
  8
0
 10
365.530005
 20
90.403917
 42
-0.010074
  0
VERTEX
  8
0
 10
364.580417
 20
93.250607
 42
-0.010191
  0
VERTEX
  8
0
 10
363.823109
 20
95.870010
 42
-0.028580
  0
VERTEX
  8
0
 10
363.436546
 20
97.739368
 42
0.036117
  0
VERTEX
  8
0
 10
362.876421
 20
100.256317
 42
0.050305
  0
VERTEX
  8
0
 10
361.995969
 20
102.387936
 42
0.029518
  0
VERTEX
  8
0
 10
360.383598
 20
105.010447
 42
0.005100
  0
VERTEX
  8
0
 10
356.993398
 20
109.754568
 42
-0.023572
  0
VERTEX
  8
0
 10
355.788835
 20
111.579043
 42
-0.077756
  0
VERTEX
  8
0
 10
355.254200
 20
112.912973
 42
-0.095886
  0
VERTEX
  8
0
 10
355.209825
 20
114.187370
 42
-0.048006
  0
VERTEX
  8
0
 10
355.613869
 20
115.754568
 42
0.066186
  0
VERTEX
  8
0
 10
355.982729
 20
117.434991
 42
0.071277
  0
VERTEX
  8
0
 10
355.884775
 20
119.109911
 42
0.046612
  0
VERTEX
  8
0
 10
355.250449
 20
121.205813
 42
0.012498
  0
VERTEX
  8
0
 10
353.855106
 20
124.398403
 42
0.018780
  0
VERTEX
  8
0
 10
351.507104
 20
128.968712
 42
0.052203
  0
VERTEX
  8
0
 10
349.422537
 20
131.910650
 42
0.053885
  0
VERTEX
  8
0
 10
346.812599
 20
134.305108
 42
0.021057
  0
VERTEX
  8
0
 10
342.750000
 20
137.040528
 42
-0.028997
  0
VERTEX
  8
0
 10
339.231455
 20
139.491661
 42
-0.176191
  0
VERTEX
  8
0
 10
338.079615
 20
141.347150
 42
-0.383762
  0
VERTEX
  8
0
 10
338.792265
 20
142.574374
 42
-0.078115
  0
VERTEX
  8
0
 10
341.500000
 20
143.000000
 42
0.239598
  0
VERTEX
  8
0
 10
343.974649
 20
144.258066
 42
0.280119
  0
VERTEX
  8
0
 10
344.192311
 20
146.846354
 42
0.051398
  0
VERTEX
  8
0
 10
340.669178
 20
152.403328
 42
0.004845
  0
VERTEX
  8
0
 10
330.535917
 20
165.000000
 42
-0.014448
  0
VERTEX
  8
0
 10
328.185375
 20
168.039678
 42
-0.047051
  0
VERTEX
  8
0
 10
326.888256
 20
170.226778
 42
-0.063550
  0
VERTEX
  8
0
 10
326.235026
 20
172.235899
 42
-0.046182
  0
VERTEX
  8
0
 10
326.011513
 20
174.578555
 42
0.090529
  0
VERTEX
  8
0
 10
325.260516
 20
178.627666
 42
0.048955
  0
VERTEX
  8
0
 10
322.994784
 20
183.180313
 42
0.047175
  0
VERTEX
  8
0
 10
319.725797
 20
187.445859
 42
0.059574
  0
VERTEX
  8
0
 10
315.938053
 20
190.659692
 42
-0.054602
  0
VERTEX
  8
0
 10
312.943273
 20
193.150079
 42
-0.065150
  0
VERTEX
  8
0
 10
310.758135
 20
196.097946
 42
-0.081641
  0
VERTEX
  8
0
 10
309.763449
 20
198.867103
 42
-0.222216
  0
VERTEX
  8
0
 10
310.276917
 20
200.833664
 42
-0.036490
  0
VERTEX
  8
0
 10
310.806850
 20
201.384929
 42
-0.139022
  0
VERTEX
  8
0
 10
311.231084
 20
201.592955
 42
-0.244093
  0
VERTEX
  8
0
 10
311.558558
 20
201.491945
 42
-0.118305
  0
VERTEX
  8
0
 10
311.796782
 20
201.109653
 42
0.225864
  0
VERTEX
  8
0
 10
312.505137
 20
200.373304
 42
0.068731
  0
VERTEX
  8
0
 10
314.054826
 20
200.021467
 42
0.079553
  0
VERTEX
  8
0
 10
315.495744
 20
200.126502
 42
0.359835
  0
VERTEX
  8
0
 10
315.968197
 20
200.750000
 42
0.167294
  0
VERTEX
  8
0
 10
315.297783
 20
202.458695
 42
0.073842
  0
VERTEX
  8
0
 10
313.446885
 20
204.075398
 42
0.125543
  0
VERTEX
  8
0
 10
311.751839
 20
204.638559
 42
0.435161
  0
VERTEX
  8
0
 10
311.000000
 20
203.938282
 42
-0.534290
  0
VERTEX
  8
0
 10
310.770294
 20
203.784683
 42
-0.061496
  0
VERTEX
  8
0
 10
310.118750
 20
204.153289
 42
-0.033112
  0
VERTEX
  8
0
 10
309.152626
 20
204.973482
 42
-0.015142
  0
VERTEX
  8
0
 10
308.000000
 20
206.161143
 42
-0.048414
  0
VERTEX
  8
0
 10
305.794263
 20
209.102773
 42
-0.121326
  0
VERTEX
  8
0
 10
304.993740
 20
211.644023
 42
-0.230292
  0
VERTEX
  8
0
 10
305.673749
 20
213.303077
 42
-0.184324
  0
VERTEX
  8
0
 10
307.500000
 20
214.000000
 42
0.085766
  0
VERTEX
  8
0
 10
309.372557
 20
214.323582
 42
0.436605
  0
VERTEX
  8
0
 10
309.743373
 20
215.187955
 42
0.119684
  0
VERTEX
  8
0
 10
308.593634
 20
216.680751
 42
0.013320
  0
VERTEX
  8
0
 10
305.145445
 20
219.300040
 42
-0.021130
  0
VERTEX
  8
0
 10
302.621117
 20
221.280465
 42
-0.054125
  0
VERTEX
  8
0
 10
301.031361
 20
222.969398
 42
-0.062777
  0
VERTEX
  8
0
 10
299.977685
 20
224.802772
 42
-0.037407
  0
VERTEX
  8
0
 10
299.181285
 20
227.194331
 42
0.033715
  0
VERTEX
  8
0
 10
298.531631
 20
229.194306
 42
0.017795
  0
VERTEX
  8
0
 10
297.473820
 20
231.581799
 42
0.017628
  0
VERTEX
  8
0
 10
296.212314
 20
233.958834
 42
0.025944
  0
VERTEX
  8
0
 10
294.926806
 20
235.942344
 42
-0.020111
  0
VERTEX
  8
0
 10
293.617621
 20
237.911693
 42
-0.013721
  0
VERTEX
  8
0
 10
292.284057
 20
240.246008
 42
-0.013847
  0
VERTEX
  8
0
 10
291.120412
 20
242.571786
 42
-0.026961
  0
VERTEX
  8
0
 10
290.346417
 20
244.496720
 42
0.032229
  0
VERTEX
  8
0
 10
289.549844
 20
246.419098
 42
0.047861
  0
VERTEX
  8
0
 10
288.593376
 20
247.968977
 42
0.054711
  0
VERTEX
  8
0
 10
287.477809
 20
249.147698
 42
0.067770
  0
VERTEX
  8
0
 10
286.205451
 20
249.960141
 42
-0.004115
  0
VERTEX
  8
0
 10
279.848865
 20
252.961791
 42
-0.075159
  0
VERTEX
  8
0
 10
278.006004
 20
254.221037
 42
-0.167748
  0
VERTEX
  8
0
 10
277.222113
 20
255.694502
 42
-0.039150
  0
VERTEX
  8
0
 10
277.000000
 20
258.526842
 42
0.041085
  0
VERTEX
  8
0
 10
276.805077
 20
260.895047
 42
0.060874
  0
VERTEX
  8
0
 10
276.218454
 20
262.891078
 42
0.048874
  0
VERTEX
  8
0
 10
275.062945
 20
264.980746
 42
0.017412
  0
VERTEX
  8
0
 10
273.030373
 20
267.724385
 42
-0.017176
  0
VERTEX
  8
0
 10
270.588838
 20
271.016813
 42
-0.025900
  0
VERTEX
  8
0
 10
268.716578
 20
274.057290
 42
-0.026985
  0
VERTEX
  8
0
 10
267.497237
 20
276.606243
 42
-0.154263
  0
VERTEX
  8
0
 10
267.369801
 20
278.082266
 42
0.250178
  0
VERTEX
  8
0
 10
267.106720
 20
279.031729
 42
0.006722
  0
VERTEX
  8
0
 10
263.976304
 20
282.234085
 42
0.006001
  0
VERTEX
  8
0
 10
260.743177
 20
285.377382
 42
0.336826
  0
VERTEX
  8
0
 10
259.957436
 20
285.463788
 42
-0.442870
  0
VERTEX
  8
0
 10
259.732700
 20
285.531725
 42
-0.041978
  0
VERTEX
  8
0
 10
259.505499
 20
286.136235
 42
-0.032562
  0
VERTEX
  8
0
 10
259.309283
 20
287.054561
 42
-0.017340
  0
VERTEX
  8
0
 10
259.180826
 20
288.209940
 42
0.065802
  0
VERTEX
  8
0
 10
258.495585
 20
291.465339
 42
0.068684
  0
VERTEX
  8
0
 10
256.993043
 20
294.379626
 42
0.068551
  0
VERTEX
  8
0
 10
254.754222
 20
296.782489
 42
0.065143
  0
VERTEX
  8
0
 10
251.912154
 20
298.539613
 42
-0.090651
  0
VERTEX
  8
0
 10
245.432129
 20
303.015202
 42
-0.022940
  0
VERTEX
  8
0
 10
236.768357
 20
312.509751
 42
-0.023877
  0
VERTEX
  8
0
 10
228.903467
 20
322.940512
 42
-0.068830
  0
VERTEX
  8
0
 10
224.884764
 20
331.033976
 42
0.047662
  0
VERTEX
  8
0
 10
223.462382
 20
334.230395
 42
0.063327
  0
VERTEX
  8
0
 10
221.563171
 20
336.778998
 42
0.075057
  0
VERTEX
  8
0
 10
219.403869
 20
338.434372
 42
0.126728
  0
VERTEX
  8
0
 10
217.208039
 20
339.000000
 42
-0.097682
  0
VERTEX
  8
0
 10
215.942386
 20
339.249645
 42
-0.040265
  0
VERTEX
  8
0
 10
214.377563
 20
340.044479
 42
-0.034622
  0
VERTEX
  8
0
 10
212.653021
 20
341.274813
 42
-0.024130
  0
VERTEX
  8
0
 10
210.882353
 20
342.882353
 42
-0.021107
  0
VERTEX
  8
0
 10
208.966282
 20
344.967401
 42
-0.053383
  0
VERTEX
  8
0
 10
207.814681
 20
346.671388
 42
-0.067420
  0
VERTEX
  8
0
 10
207.205977
 20
348.323452
 42
-0.054650
  0
VERTEX
  8
0
 10
207.000000
 20
350.202354
 42
0.055943
  0
VERTEX
  8
0
 10
206.793583
 20
352.041469
 42
0.054069
  0
VERTEX
  8
0
 10
206.184188
 20
353.811518
 42
0.044631
  0
VERTEX
  8
0
 10
205.092790
 20
355.679338
 42
0.022488
  0
VERTEX
  8
0
 10
203.411779
 20
357.832032
 42
0.020856
  0
VERTEX
  8
0
 10
200.107741
 20
361.381148
 42
0.114112
  0
VERTEX
  8
0
 10
197.891360
 20
362.746733
 42
0.151617
  0
VERTEX
  8
0
 10
195.623714
 20
362.801198
 42
0.046189
  0
SEQEND
  0
ENDSEC
  0
EOF
