  0
SECTION
  2
HEADER
  9
$ACADVER
  1
AC1006
  9
$EXTMIN
 10
0.000000
 20
0.000000
 30
0.000000
  9
$EXTMAX
 10
167.000000
 20
92.000000
 30
0.000000
  0
ENDSEC
  0
SECTION
  2
ENTITIES
  0
POLYLINE
  8
0
 66
1
 70
1
  0
VERTEX
  8
0
 10
134.250000
 20
90.779505
 42
0.028440
  0
VERTEX
  8
0
 10
133.388599
 20
90.301920
 42
0.036638
  0
VERTEX
  8
0
 10
132.660937
 20
89.764269
 42
0.039920
  0
VERTEX
  8
0
 10
132.145453
 20
89.244659
 42
0.177225
  0
VERTEX
  8
0
 10
132.000000
 20
88.847186
 42
-0.154910
  0
VERTEX
  8
0
 10
131.897435
 20
88.524080
 42
-0.097753
  0
VERTEX
  8
0
 10
131.608538
 20
88.248861
 42
-0.080114
  0
VERTEX
  8
0
 10
131.176936
 20
88.063124
 42
-0.061703
  0
VERTEX
  8
0
 10
130.667365
 20
88.000000
 42
0.201587
  0
VERTEX
  8
0
 10
129.319919
 20
87.433732
 42
0.012817
  0
VERTEX
  8
0
 10
126.338524
 20
84.230072
 42
0.014085
  0
VERTEX
  8
0
 10
123.549726
 20
80.889889
 42
0.163718
  0
VERTEX
  8
0
 10
122.985123
 20
79.308638
 42
-0.140939
  0
VERTEX
  8
0
 10
122.834049
 20
78.817525
 42
-0.009106
  0
VERTEX
  8
0
 10
121.985322
 20
77.568050
 42
-0.012710
  0
VERTEX
  8
0
 10
120.893636
 20
76.102733
 42
-0.009100
  0
VERTEX
  8
0
 10
119.602437
 20
74.518767
 42
-0.049496
  0
VERTEX
  8
0
 10
116.876958
 20
71.877203
 42
-0.111978
  0
VERTEX
  8
0
 10
114.301877
 20
70.640195
 42
-0.031350
  0
VERTEX
  8
0
 10
109.915919
 20
69.922850
 42
-0.000970
  0
VERTEX
  8
0
 10
91.720122
 20
68.143096
 42
-0.010736
  0
VERTEX
  8
0
 10
84.182321
 20
67.583593
 42
-0.056849
  0
VERTEX
  8
0
 10
80.056552
 20
67.835398
 42
-0.049537
  0
VERTEX
  8
0
 10
75.857151
 20
69.013567
 42
-0.006943
  0
VERTEX
  8
0
 10
67.500000
 20
72.413728
 42
0.040746
  0
VERTEX
  8
0
 10
61.723325
 20
74.320634
 42
0.058955
  0
VERTEX
  8
0
 10
56.391976
 20
74.961433
 42
0.063203
  0
VERTEX
  8
0
 10
51.345047
 20
74.330376
 42
0.056851
  0
VERTEX
  8
0
 10
46.419478
 20
72.452658
 42
-0.013622
  0
VERTEX
  8
0
 10
41.348297
 20
69.999565
 42
-0.015010
  0
VERTEX
  8
0
 10
36.310812
 20
67.909498
 42
-0.014176
  0
VERTEX
  8
0
 10
31.928376
 20
66.384280
 42
-0.076731
  0
VERTEX
  8
0
 10
29.446344
 20
66.000504
 42
-0.098782
  0
VERTEX
  8
0
 10
26.468207
 20
66.593916
 42
-0.026265
  0
VERTEX
  8
0
 10
22.078497
 20
68.693442
 42
-0.022539
  0
VERTEX
  8
0
 10
17.978699
 20
71.171722
 42
-0.183580
  0
VERTEX
  8
0
 10
16.729820
 20
72.925168
 42
0.149344
  0
VERTEX
  8
0
 10
15.238865
 20
75.344615
 42
0.017282
  0
VERTEX
  8
0
 10
10.255025
 20
79.436781
 42
0.017395
  0
VERTEX
  8
0
 10
5.000469
 20
83.173178
 42
0.146805
  0
VERTEX
  8
0
 10
2.250000
 20
83.999371
 42
0.194904
  0
VERTEX
  8
0
 10
0.555563
 20
83.313335
 42
0.262509
  0
VERTEX
  8
0
 10
0.095367
 20
81.758028
 42
0.112427
  0
VERTEX
  8
0
 10
1.277685
 20
79.308353
 42
0.037676
  0
VERTEX
  8
0
 10
4.000000
 20
76.379673
 42
-0.014038
  0
VERTEX
  8
0
 10
5.532010
 20
74.880223
 42
-0.018959
  0
VERTEX
  8
0
 10
6.825000
 20
73.435849
 42
-0.016221
  0
VERTEX
  8
0
 10
7.795927
 20
72.184305
 42
-0.158139
  0
VERTEX
  8
0
 10
8.000000
 20
71.555207
 42
0.198666
  0
VERTEX
  8
0
 10
8.722550
 20
69.808475
 42
0.009231
  0
VERTEX
  8
0
 10
13.428445
 20
65.264603
 42
0.014457
  0
VERTEX
  8
0
 10
18.246463
 20
61.034526
 42
0.073066
  0
VERTEX
  8
0
 10
21.297053
 20
59.182089
 42
0.043688
  0
VERTEX
  8
0
 10
22.704148
 20
58.727427
 42
0.017736
  0
VERTEX
  8
0
 10
24.683769
 20
58.347239
 42
0.017390
  0
VERTEX
  8
0
 10
26.854032
 20
58.086658
 42
0.021183
  0
VERTEX
  8
0
 10
28.898521
 20
58.000000
 42
0.000000
  0
VERTEX
  8
0
 10
33.702936
 20
58.000000
 42
0.000000
  0
VERTEX
  8
0
 10
34.297668
 20
49.572579
 42
0.009594
  0
VERTEX
  8
0
 10
34.599701
 20
46.212272
 42
0.011733
  0
VERTEX
  8
0
 10
35.015810
 20
43.085331
 42
0.010290
  0
VERTEX
  8
0
 10
35.478715
 20
40.487534
 42
0.077943
  0
VERTEX
  8
0
 10
35.907251
 20
39.322579
 42
-0.018042
  0
VERTEX
  8
0
 10
37.721188
 20
35.769092
 42
-0.007444
  0
VERTEX
  8
0
 10
39.929471
 20
30.837638
 42
-0.003298
  0
VERTEX
  8
0
 10
42.055923
 20
25.801582
 42
-0.116276
  0
VERTEX
  8
0
 10
42.259538
 20
24.551204
 42
-0.030407
  0
VERTEX
  8
0
 10
42.173026
 20
23.893982
 42
-0.003043
  0
VERTEX
  8
0
 10
41.861647
 20
22.340041
 42
-0.003816
  0
VERTEX
  8
0
 10
41.464801
 20
20.491577
 42
-0.003025
  0
VERTEX
  8
0
 10
41.008641
 20
18.500000
 42
0.016773
  0
VERTEX
  8
0
 10
40.098139
 20
13.953901
 42
0.052890
  0
VERTEX
  8
0
 10
39.916801
 20
10.854490
 42
0.068204
  0
VERTEX
  8
0
 10
40.402441
 20
8.236842
 42
0.043618
  0
VERTEX
  8
0
 10
41.628373
 20
5.391484
 42
0.030644
  0
VERTEX
  8
0
 10
42.713516
 20
3.642314
 42
0.090446
  0
VERTEX
  8
0
 10
43.721325
 20
2.657501
 42
0.102471
  0
VERTEX
  8
0
 10
44.935213
 20
2.159623
 42
0.046282
  0
VERTEX
  8
0
 10
46.655975
 20
2.000000
 42
0.074502
  0
VERTEX
  8
0
 10
49.361079
 20
2.405321
 42
0.115151
  0
VERTEX
  8
0
 10
51.395189
 20
3.588280
 42
0.143310
  0
VERTEX
  8
0
 10
52.419934
 20
5.336955
 42
0.144628
  0
VERTEX
  8
0
 10
52.335362
 20
7.355372
 42
-0.058646
  0
VERTEX
  8
0
 10
51.779149
 20
9.939846
 42
-0.062418
  0
VERTEX
  8
0
 10
51.856416
 20
12.527310
 42
-0.052773
  0
VERTEX
  8
0
 10
52.609274
 20
15.357649
 42
-0.027410
  0
VERTEX
  8
0
 10
54.102366
 20
18.699033
 42
-0.007585
  0
VERTEX
  8
0
 10
55.541676
 20
21.396123
 42
-0.110060
  0
VERTEX
  8
0
 10
56.254524
 20
22.201362
 42
-0.331820
  0
VERTEX
  8
0
 10
56.904728
 20
22.192369
 42
-0.071576
  0
VERTEX
  8
0
 10
57.741314
 20
21.335263
 42
0.007925
  0
VERTEX
  8
0
 10
58.387822
 20
20.478128
 42
0.003857
  0
VERTEX
  8
0
 10
59.238975
 20
19.403320
 42
0.003824
  0
VERTEX
  8
0
 10
60.142122
 20
18.298170
 42
0.005514
  0
VERTEX
  8
0
 10
60.959191
 20
17.335613
 42
-0.021863
  0
VERTEX
  8
0
 10
61.644973
 20
16.472024
 42
-0.034288
  0
VERTEX
  8
0
 10
62.147489
 20
15.668480
 42
-0.037438
  0
VERTEX
  8
0
 10
62.436982
 20
15.012275
 42
-0.289189
  0
VERTEX
  8
0
 10
62.366284
 20
14.699618
 42
0.338068
  0
VERTEX
  8
0
 10
62.326532
 20
14.403365
 42
0.040073
  0
VERTEX
  8
0
 10
62.725234
 20
13.818993
 42
0.034847
  0
VERTEX
  8
0
 10
63.381337
 20
13.112590
 42
0.020818
  0
VERTEX
  8
0
 10
64.250499
 20
12.364004
 42
-0.026884
  0
VERTEX
  8
0
 10
65.199429
 20
11.526463
 42
-0.023240
  0
VERTEX
  8
0
 10
66.102731
 20
10.551848
 42
-0.023906
  0
VERTEX
  8
0
 10
66.838734
 20
9.590023
 42
-0.060600
  0
VERTEX
  8
0
 10
67.247793
 20
8.812500
 42
0.154539
  0
VERTEX
  8
0
 10
67.910414
 20
7.975978
 42
0.091737
  0
VERTEX
  8
0
 10
69.086739
 20
7.462937
 42
0.046916
  0
VERTEX
  8
0
 10
71.064125
 20
7.195278
 42
0.010195
  0
VERTEX
  8
0
 10
74.510360
 20
7.125000
 42
0.000000
  0
VERTEX
  8
0
 10
81.131456
 20
7.125000
 42
0.000000
  0
VERTEX
  8
0
 10
80.454434
 20
10.312500
 42
0.049741
  0
VERTEX
  8
0
 10
79.607115
 20
12.969646
 42
0.073509
  0
VERTEX
  8
0
 10
78.320255
 20
15.045931
 42
0.080725
  0
VERTEX
  8
0
 10
76.592221
 20
16.525520
 42
0.075415
  0
VERTEX
  8
0
 10
74.444593
 20
17.424550
 42
-0.079023
  0
VERTEX
  8
0
 10
73.413578
 20
17.864866
 42
-0.042270
  0
VERTEX
  8
0
 10
72.304668
 20
18.700594
 42
-0.040746
  0
VERTEX
  8
0
 10
71.291230
 20
19.768941
 42
-0.050125
  0
VERTEX
  8
0
 10
70.541492
 20
20.919764
 42
-0.044934
  0
VERTEX
  8
0
 10
69.788615
 20
22.764738
 42
-0.113090
  0
VERTEX
  8
0
 10
69.684209
 20
24.204026
 42
-0.069056
  0
VERTEX
  8
0
 10
70.205550
 20
25.946608
 42
-0.009644
  0
VERTEX
  8
0
 10
71.839413
 20
29.347329
 42
0.000000
  0
VERTEX
  8
0
 10
74.632219
 20
34.884103
 42
0.000000
  0
VERTEX
  8
0
 10
79.859039
 20
32.382638
 42
0.036236
  0
VERTEX
  8
0
 10
84.625988
 20
30.512148
 42
0.027394
  0
VERTEX
  8
0
 10
90.080186
 20
29.138555
 42
0.025612
  0
VERTEX
  8
0
 10
96.053795
 20
28.292329
 42
0.022136
  0
VERTEX
  8
0
 10
102.381966
 20
28.005792
 42
-0.050404
  0
VERTEX
  8
0
 10
106.994606
 20
27.535030
 42
-0.055922
  0
VERTEX
  8
0
 10
111.252726
 20
26.151496
 42
-0.070954
  0
VERTEX
  8
0
 10
114.153375
 20
24.302264
 42
-0.317017
  0
VERTEX
  8
0
 10
114.620622
 20
22.453741
 42
0.117224
  0
VERTEX
  8
0
 10
114.541214
 20
21.860317
 42
0.069002
  0
VERTEX
  8
0
 10
114.710902
 20
21.161296
 42
0.062955
  0
VERTEX
  8
0
 10
115.091235
 20
20.467862
 42
0.062746
  0
VERTEX
  8
0
 10
115.632529
 20
19.890011
 42
-0.083300
  0
VERTEX
  8
0
 10
117.545854
 20
17.672330
 42
-0.036940
  0
VERTEX
  8
0
 10
119.307914
 20
14.218807
 42
-0.036752
  0
VERTEX
  8
0
 10
120.582776
 20
10.428640
 42
-0.062833
  0
VERTEX
  8
0
 10
121.000000
 20
7.121626
 42
0.023196
  0
VERTEX
  8
0
 10
121.181452
 20
3.212437
 42
0.131176
  0
VERTEX
  8
0
 10
121.897689
 20
1.272188
 42
0.185150
  0
VERTEX
  8
0
 10
123.347463
 20
0.301165
 42
0.056058
  0
VERTEX
  8
0
 10
126.025201
 20
0.000000
 42
0.023035
  0
VERTEX
  8
0
 10
129.106587
 20
0.142037
 42
0.061170
  0
VERTEX
  8
0
 10
131.256333
 20
0.609941
 42
0.103085
  0
VERTEX
  8
0
 10
132.537897
 20
1.381538
 42
0.208810
  0
VERTEX
  8
0
 10
133.000000
 20
2.439808
 42
-0.359601
  0
VERTEX
  8
0
 10
133.451132
 20
2.985962
 42
-0.052246
  0
VERTEX
  8
0
 10
134.997713
 20
3.118657
 42
-0.026462
  0
VERTEX
  8
0
 10
137.727089
 20
2.922573
 42
-0.005162
  0
VERTEX
  8
0
 10
142.614579
 20
2.258959
 42
0.017687
  0
VERTEX
  8
0
 10
150.448332
 20
1.394495
 42
0.084798
  0
VERTEX
  8
0
 10
154.905147
 20
1.817619
 42
0.191084
  0
VERTEX
  8
0
 10
157.138929
 20
3.485848
 42
0.163898
  0
VERTEX
  8
0
 10
157.802683
 20
6.361946
 42
0.101487
  0
VERTEX
  8
0
 10
157.133333
 20
8.522881
 42
0.105074
  0
VERTEX
  8
0
 10
155.672879
 20
10.215027
 42
0.078436
  0
VERTEX
  8
0
 10
153.270229
 20
11.505313
 42
0.033654
  0
VERTEX
  8
0
 10
149.750000
 20
12.475752
 42
-0.046123
  0
VERTEX
  8
0
 10
148.697785
 20
12.794211
 42
-0.058350
  0
VERTEX
  8
0
 10
147.807813
 20
13.283462
 42
-0.070182
  0
VERTEX
  8
0
 10
147.201057
 20
13.859396
 42
-0.169424
  0
VERTEX
  8
0
 10
147.000000
 20
14.435719
 42
0.075372
  0
VERTEX
  8
0
 10
146.914700
 20
14.998366
 42
0.067376
  0
VERTEX
  8
0
 10
146.665335
 20
15.534339
 42
0.070381
  0
VERTEX
  8
0
 10
146.296199
 20
15.963328
 42
0.099822
  0
VERTEX
  8
0
 10
145.860715
 20
16.213095
 42
-0.298192
  0
VERTEX
  8
0
 10
144.919036
 20
17.403044
 42
-0.022195
  0
VERTEX
  8
0
 10
144.721548
 20
21.742931
 42
-0.026516
  0
VERTEX
  8
0
 10
144.998509
 20
27.071656
 42
-0.021254
  0
VERTEX
  8
0
 10
145.842659
 20
32.755118
 42
0.012748
  0
VERTEX
  8
0
 10
146.458954
 20
36.468756
 42
0.053922
  0
VERTEX
  8
0
 10
146.529255
 20
38.719812
 42
0.064463
  0
VERTEX
  8
0
 10
146.109901
 20
40.733991
 42
0.023366
  0
VERTEX
  8
0
 10
145.022662
 20
43.450254
 42
-0.026535
  0
VERTEX
  8
0
 10
143.607608
 20
47.051451
 42
-0.069745
  0
VERTEX
  8
0
 10
143.106289
 20
49.774189
 42
-0.082070
  0
VERTEX
  8
0
 10
143.408507
 20
52.260624
 42
-0.048168
  0
VERTEX
  8
0
 10
144.525680
 20
55.049660
 42
-0.022088
  0
VERTEX
  8
0
 10
145.763351
 20
57.204207
 42
-0.210368
  0
VERTEX
  8
0
 10
146.624957
 20
57.781751
 42
-0.118339
  0
VERTEX
  8
0
 10
147.873171
 20
57.707083
 42
-0.005196
  0
VERTEX
  8
0
 10
152.054693
 20
56.387319
 42
0.054231
  0
VERTEX
  8
0
 10
158.269053
 20
55.077328
 42
0.162266
  0
VERTEX
  8
0
 10
162.449833
 20
56.022441
 42
0.165853
  0
VERTEX
  8
0
 10
165.171449
 20
59.266610
 42
0.057269
  0
VERTEX
  8
0
 10
166.735338
 20
65.268391
 42
0.029837
  0
VERTEX
  8
0
 10
166.907556
 20
67.394235
 42
0.094125
  0
VERTEX
  8
0
 10
166.671580
 20
68.798246
 42
0.095609
  0
VERTEX
  8
0
 10
165.939807
 20
70.005709
 42
0.031374
  0
VERTEX
  8
0
 10
164.444420
 20
71.463246
 42
-0.036095
  0
VERTEX
  8
0
 10
162.972315
 20
72.925419
 42
-0.086746
  0
VERTEX
  8
0
 10
162.180145
 20
74.236338
 42
-0.078832
  0
VERTEX
  8
0
 10
161.838265
 20
75.815772
 42
-0.026090
  0
VERTEX
  8
0
 10
161.829552
 20
78.194855
 42
0.033006
  0
VERTEX
  8
0
 10
161.782741
 20
80.872118
 42
0.122566
  0
VERTEX
  8
0
 10
161.244199
 20
82.457894
 42
0.083392
  0
VERTEX
  8
0
 10
159.915497
 20
83.919798
 42
0.010499
  0
VERTEX
  8
0
 10
156.490935
 20
86.500000
 42
0.010197
  0
VERTEX
  8
0
 10
154.204089
 20
88.079022
 42
0.011140
  0
VERTEX
  8
0
 10
151.920326
 20
89.516031
 42
0.010648
  0
VERTEX
  8
0
 10
149.916971
 20
90.657919
 42
0.053050
  0
VERTEX
  8
0
 10
148.721666
 20
91.150320
 42
0.055348
  0
VERTEX
  8
0
 10
145.524058
 20
91.712978
 42
0.022307
  0
VERTEX
  8
0
 10
141.084960
 20
91.797283
 42
0.021088
  0
VERTEX
  8
0
 10
136.775044
 20
91.504677
 42
0.085058
  0
SEQEND
  0
POLYLINE
  8
0
 66
1
 70
1
  0
VERTEX
  8
0
 10
150.449868
 20
83.929153
 42
-0.016959
  0
VERTEX
  8
0
 10
153.029967
 20
82.057470
 42
-0.082014
  0
VERTEX
  8
0
 10
154.254409
 20
80.731552
 42
-0.106886
  0
VERTEX
  8
0
 10
154.824632
 20
79.257043
 42
-0.039031
  0
VERTEX
  8
0
 10
155.000000
 20
77.013919
 42
0.038135
  0
VERTEX
  8
0
 10
155.155054
 20
74.983945
 42
0.067977
  0
VERTEX
  8
0
 10
155.630377
 20
73.380659
 42
0.065380
  0
VERTEX
  8
0
 10
156.533394
 20
71.922673
 42
0.032764
  0
VERTEX
  8
0
 10
158.014496
 20
70.334766
 42
0.000000
  0
VERTEX
  8
0
 10
161.028992
 20
67.500000
 42
0.000000
  0
VERTEX
  8
0
 10
158.264496
 20
66.993569
 42
0.049179
  0
VERTEX
  8
0
 10
157.004712
 20
66.632047
 42
0.087840
  0
VERTEX
  8
0
 10
156.090345
 20
66.067697
 42
0.098828
  0
VERTEX
  8
0
 10
155.494322
 20
65.276428
 42
0.076922
  0
VERTEX
  8
0
 10
155.180449
 20
64.243569
 42
0.049079
  0
VERTEX
  8
0
 10
155.142048
 20
63.359304
 42
0.083493
  0
VERTEX
  8
0
 10
155.304068
 20
62.639094
 42
0.116989
  0
VERTEX
  8
0
 10
155.638078
 20
62.172019
 42
0.181216
  0
VERTEX
  8
0
 10
156.097116
 20
62.000000
 42
-0.045323
  0
VERTEX
  8
0
 10
156.532979
 20
61.960409
 42
-0.133933
  0
VERTEX
  8
0
 10
156.801659
 20
61.831465
 42
-0.259551
  0
VERTEX
  8
0
 10
156.870268
 20
61.643025
 42
-0.157962
  0
VERTEX
  8
0
 10
156.759597
 20
61.426264
 42
-0.230743
  0
VERTEX
  8
0
 10
156.367214
 20
61.291051
 42
-0.033854
  0
VERTEX
  8
0
 10
155.517240
 20
61.453972
 42
-0.032486
  0
VERTEX
  8
0
 10
154.469414
 20
61.803552
 42
-0.022576
  0
VERTEX
  8
0
 10
153.335969
 20
62.326264
 42
0.042336
  0
VERTEX
  8
0
 10
151.970710
 20
62.891659
 42
0.022559
  0
VERTEX
  8
0
 10
150.204132
 20
63.367090
 42
0.022296
  0
VERTEX
  8
0
 10
148.343280
 20
63.692655
 42
0.032166
  0
VERTEX
  8
0
 10
146.676372
 20
63.800000
 42
-0.023890
  0
VERTEX
  8
0
 10
144.033787
 20
63.926334
 42
-0.092553
  0
VERTEX
  8
0
 10
142.464232
 20
64.377870
 42
-0.341774
  0
VERTEX
  8
0
 10
142.143975
 20
65.045207
 42
-0.203722
  0
VERTEX
  8
0
 10
142.678145
 20
65.804373
 42
0.104042
  0
VERTEX
  8
0
 10
143.138131
 20
66.244233
 42
0.037696
  0
VERTEX
  8
0
 10
143.593352
 20
67.030035
 42
0.035401
  0
VERTEX
  8
0
 10
143.976388
 20
67.991999
 42
0.035222
  0
VERTEX
  8
0
 10
144.220662
 20
69.000000
 42
0.000000
  0
VERTEX
  8
0
 10
144.642954
 20
71.500000
 42
0.000000
  0
VERTEX
  8
0
 10
145.759794
 20
68.847139
 42
0.042296
  0
VERTEX
  8
0
 10
146.891882
 20
66.688519
 42
0.129008
  0
VERTEX
  8
0
 10
148.096592
 20
65.573756
 42
0.132082
  0
VERTEX
  8
0
 10
149.675280
 20
65.208449
 42
0.045270
  0
VERTEX
  8
0
 10
152.024399
 20
65.505359
 42
0.107410
  0
VERTEX
  8
0
 10
154.102642
 20
66.458998
 42
0.186025
  0
VERTEX
  8
0
 10
155.096493
 20
68.048638
 42
0.281145
  0
VERTEX
  8
0
 10
154.586577
 20
69.414779
 42
0.167907
  0
VERTEX
  8
0
 10
152.893011
 20
70.000000
 42
-0.041699
  0
VERTEX
  8
0
 10
151.891892
 20
70.083637
 42
-0.181711
  0
VERTEX
  8
0
 10
151.386274
 20
70.377312
 42
-0.209809
  0
VERTEX
  8
0
 10
151.240838
 20
70.899806
 42
-0.056809
  0
VERTEX
  8
0
 10
151.463042
 20
71.750000
 42
0.026737
  0
VERTEX
  8
0
 10
152.521170
 20
74.989887
 42
0.082699
  0
VERTEX
  8
0
 10
152.743800
 20
77.273363
 42
0.122471
  0
VERTEX
  8
0
 10
152.193705
 20
78.981467
 42
0.101470
  0
VERTEX
  8
0
 10
150.877187
 20
80.373468
 42
0.048961
  0
VERTEX
  8
0
 10
148.488881
 20
81.719341
 42
0.141652
  0
VERTEX
  8
0
 10
146.626210
 20
81.970240
 42
0.227691
  0
VERTEX
  8
0
 10
145.452681
 20
81.175477
 42
0.132711
  0
VERTEX
  8
0
 10
145.000000
 20
79.500000
 42
-0.038131
  0
VERTEX
  8
0
 10
144.926884
 20
78.542644
 42
-0.057076
  0
VERTEX
  8
0
 10
144.706250
 20
77.734375
 42
-0.074992
  0
VERTEX
  8
0
 10
144.382936
 20
77.182831
 42
-0.226478
  0
VERTEX
  8
0
 10
144.000000
 20
77.000000
 42
-0.099038
  0
VERTEX
  8
0
 10
143.618362
 20
77.076342
 42
-0.097945
  0
VERTEX
  8
0
 10
143.293750
 20
77.293750
 42
-0.097945
  0
VERTEX
  8
0
 10
143.076342
 20
77.618362
 42
-0.099038
  0
VERTEX
  8
0
 10
143.000000
 20
78.000000
 42
0.141874
  0
VERTEX
  8
0
 10
142.889573
 20
78.381340
 42
0.099744
  0
VERTEX
  8
0
 10
142.579170
 20
78.706250
 42
0.084602
  0
VERTEX
  8
0
 10
142.114976
 20
78.925123
 42
0.068054
  0
VERTEX
  8
0
 10
141.567388
 20
79.000000
 42
-0.122947
  0
VERTEX
  8
0
 10
140.972302
 20
79.148573
 42
-0.069989
  0
VERTEX
  8
0
 10
140.369140
 20
79.587500
 42
-0.063046
  0
VERTEX
  8
0
 10
139.849532
 20
80.235286
 42
-0.060770
  0
VERTEX
  8
0
 10
139.500000
 20
81.000000
 42
0.148801
  0
VERTEX
  8
0
 10
138.615258
 20
82.285579
 42
0.130429
  0
VERTEX
  8
0
 10
137.117271
 20
82.942362
 42
0.145451
  0
VERTEX
  8
0
 10
135.610784
 20
82.737635
 42
0.193182
  0
VERTEX
  8
0
 10
134.662281
 20
81.750000
 42
-0.043477
  0
VERTEX
  8
0
 10
134.446057
 20
81.324783
 42
-0.441575
  0
VERTEX
  8
0
 10
134.272501
 20
81.292875
 42
-0.201344
  0
VERTEX
  8
0
 10
134.136542
 20
81.528367
 42
-0.019909
  0
VERTEX
  8
0
 10
134.078947
 20
82.193296
 42
-0.184009
  0
VERTEX
  8
0
 10
134.656185
 20
83.950707
 42
-0.088623
  0
VERTEX
  8
0
 10
136.477049
 20
85.524385
 42
-0.072497
  0
VERTEX
  8
0
 10
139.146087
 20
86.625199
 42
-0.061689
  0
VERTEX
  8
0
 10
142.172374
 20
87.000000
 42
-0.049534
  0
VERTEX
  8
0
 10
144.095153
 20
86.809045
 42
-0.039339
  0
VERTEX
  8
0
 10
146.103671
 20
86.238849
 42
-0.035048
  0
VERTEX
  8
0
 10
148.215647
 20
85.282202
 42
-0.024578
  0
SEQEND
  0
POLYLINE
  8
0
 66
1
 70
1
  0
VERTEX
  8
0
 10
133.729167
 20
79.395833
 42
-0.126455
  0
VERTEX
  8
0
 10
133.402231
 20
79.202593
 42
-0.060344
  0
VERTEX
  8
0
 10
132.916927
 20
79.123424
 42
-0.054150
  0
VERTEX
  8
0
 10
132.359369
 20
79.160852
 42
-0.051402
  0
VERTEX
  8
0
 10
131.812500
 20
79.316886
 42
-0.054073
  0
VERTEX
  8
0
 10
131.395823
 20
79.538436
 42
-0.470617
  0
VERTEX
  8
0
 10
131.378580
 20
79.720685
 42
-0.168741
  0
VERTEX
  8
0
 10
131.670344
 20
79.862007
 42
-0.018894
  0
VERTEX
  8
0
 10
132.416667
 20
79.921053
 42
-0.028489
  0
VERTEX
  8
0
 10
133.112848
 20
79.910055
 42
-0.077125
  0
VERTEX
  8
0
 10
133.592839
 20
79.799335
 42
-0.208169
  0
VERTEX
  8
0
 10
133.775380
 20
79.614691
 42
-0.296942
  0
SEQEND
  0
POLYLINE
  8
0
 66
1
 70
1
  0
VERTEX
  8
0
 10
132.984819
 20
61.550000
 42
-0.099230
  0
VERTEX
  8
0
 10
132.924250
 20
61.220578
 42
-0.306913
  0
VERTEX
  8
0
 10
132.746317
 20
61.100000
 42
-0.163042
  0
VERTEX
  8
0
 10
132.456697
 20
61.197020
 42
-0.034900
  0
VERTEX
  8
0
 10
132.051186
 20
61.550000
 42
-0.109715
  0
VERTEX
  8
0
 10
131.648898
 20
62.182882
 42
-0.018982
  0
VERTEX
  8
0
 10
131.213722
 20
63.542813
 42
-0.019847
  0
VERTEX
  8
0
 10
130.820339
 20
65.207494
 42
-0.016608
  0
VERTEX
  8
0
 10
130.532623
 20
67.000000
 42
0.000000
  0
VERTEX
  8
0
 10
129.962874
 20
71.500000
 42
0.000000
  0
VERTEX
  8
0
 10
131.466256
 20
67.000000
 42
-0.005562
  0
VERTEX
  8
0
 10
132.043096
 20
65.207269
 42
-0.007110
  0
VERTEX
  8
0
 10
132.532479
 20
63.542813
 42
-0.005644
  0
VERTEX
  8
0
 10
132.905940
 20
62.141501
 42
-0.058363
  0
SEQEND
  0
POLYLINE
  8
0
 66
1
 70
1
  0
VERTEX
  8
0
 10
55.000000
 20
54.925502
 42
0.203642
  0
VERTEX
  8
0
 10
55.127453
 20
54.625545
 42
0.051528
  0
VERTEX
  8
0
 10
55.553711
 20
54.291809
 42
0.044116
  0
VERTEX
  8
0
 10
56.163259
 20
53.979788
 42
0.032302
  0
VERTEX
  8
0
 10
56.884975
 20
53.740331
 42
-0.077630
  0
VERTEX
  8
0
 10
57.757681
 20
53.360271
 42
-0.147905
  0
VERTEX
  8
0
 10
58.252915
 20
52.785774
 42
-0.114953
  0
VERTEX
  8
0
 10
58.417792
 20
51.923147
 42
-0.037226
  0
VERTEX
  8
0
 10
58.268398
 20
50.623699
 42
0.029575
  0
VERTEX
  8
0
 10
58.096810
 20
49.308694
 42
0.131101
  0
VERTEX
  8
0
 10
58.242898
 20
48.549474
 42
0.199401
  0
VERTEX
  8
0
 10
58.703646
 20
48.140162
 42
0.083370
  0
VERTEX
  8
0
 10
59.538410
 20
48.000000
 42
-0.022266
  0
VERTEX
  8
0
 10
60.572900
 20
47.953909
 42
-0.370161
  0
VERTEX
  8
0
 10
60.795601
 20
47.725480
 42
-0.193902
  0
VERTEX
  8
0
 10
60.662122
 20
47.321869
 42
-0.008281
  0
VERTEX
  8
0
 10
59.654988
 20
46.171259
 42
0.088221
  0
VERTEX
  8
0
 10
58.889257
 20
44.948754
 42
0.047531
  0
VERTEX
  8
0
 10
58.381715
 20
43.239227
 42
0.034347
  0
VERTEX
  8
0
 10
58.089585
 20
40.913281
 42
0.014070
  0
VERTEX
  8
0
 10
58.000000
 20
37.730276
 42
-0.012074
  0
VERTEX
  8
0
 10
57.937884
 20
35.158411
 42
-0.017738
  0
VERTEX
  8
0
 10
57.748684
 20
32.905058
 42
-0.013223
  0
VERTEX
  8
0
 10
57.482168
 20
31.088596
 42
-0.214474
  0
VERTEX
  8
0
 10
57.144457
 20
30.589279
 42
-0.332306
  0
VERTEX
  8
0
 10
56.865537
 20
30.613909
 42
-0.162929
  0
VERTEX
  8
0
 10
56.678915
 20
30.941332
 42
-0.068119
  0
VERTEX
  8
0
 10
56.638968
 20
31.617574
 42
-0.027972
  0
VERTEX
  8
0
 10
56.761034
 20
32.530262
 42
0.035998
  0
VERTEX
  8
0
 10
56.887161
 20
33.604101
 42
0.093878
  0
VERTEX
  8
0
 10
56.777372
 20
34.370680
 42
0.152486
  0
VERTEX
  8
0
 10
56.443540
 20
34.826523
 42
0.160367
  0
VERTEX
  8
0
 10
55.916577
 20
35.000000
 42
-0.043457
  0
VERTEX
  8
0
 10
55.306588
 20
35.053117
 42
-0.337013
  0
VERTEX
  8
0
 10
55.124287
 20
35.250000
 42
-0.203062
  0
VERTEX
  8
0
 10
55.227511
 20
35.579223
 42
-0.020225
  0
VERTEX
  8
0
 10
55.800000
 20
36.200000
 42
0.107280
  0
VERTEX
  8
0
 10
56.601193
 20
37.445430
 42
0.070927
  0
VERTEX
  8
0
 10
56.967669
 20
39.113253
 42
0.089922
  0
VERTEX
  8
0
 10
56.821628
 20
40.503255
 42
0.333264
  0
VERTEX
  8
0
 10
56.159130
 20
41.000000
 42
-0.334122
  0
VERTEX
  8
0
 10
55.495020
 20
41.499556
 42
-0.009240
  0
VERTEX
  8
0
 10
54.501488
 20
45.197436
 42
-0.015219
  0
VERTEX
  8
0
 10
53.490139
 20
49.860815
 42
-0.008900
  0
VERTEX
  8
0
 10
52.549236
 20
55.500000
 42
-0.003725
  0
VERTEX
  8
0
 10
52.191949
 20
58.033942
 42
-0.139942
  0
VERTEX
  8
0
 10
52.275055
 20
58.601271
 42
-0.541351
  0
VERTEX
  8
0
 10
52.562933
 20
58.646226
 42
-0.017052
  0
VERTEX
  8
0
 10
53.477404
 20
57.558870
 42
-0.015900
  0
VERTEX
  8
0
 10
54.060360
 20
56.764932
 42
-0.019333
  0
VERTEX
  8
0
 10
54.552737
 20
55.984602
 42
-0.018214
  0
VERTEX
  8
0
 10
54.912523
 20
55.306496
 42
-0.113327
  0
SEQEND
  0
POLYLINE
  8
0
 66
1
 70
1
  0
VERTEX
  8
0
 10
140.000000
 20
58.559017
 42
-0.151918
  0
VERTEX
  8
0
 10
139.934461
 20
58.348290
 42
-0.038439
  0
VERTEX
  8
0
 10
139.706250
 20
58.066025
 42
-0.035638
  0
VERTEX
  8
0
 10
139.382774
 20
57.768994
 42
-0.029505
  0
VERTEX
  8
0
 10
139.000000
 20
57.500000
 42
-0.082592
  0
VERTEX
  8
0
 10
138.617900
 20
57.343488
 42
-0.161196
  0
VERTEX
  8
0
 10
138.293750
 20
57.374600
 42
-0.182303
  0
VERTEX
  8
0
 10
138.078288
 20
57.586039
 42
-0.108972
  0
VERTEX
  8
0
 10
138.000000
 20
57.940983
 42
-0.093332
  0
VERTEX
  8
0
 10
138.076123
 20
58.345238
 42
-0.096420
  0
VERTEX
  8
0
 10
138.293750
 20
58.688914
 42
-0.099167
  0
VERTEX
  8
0
 10
138.618444
 20
58.918938
 42
-0.105053
  0
VERTEX
  8
0
 10
139.000000
 20
59.000000
 42
-0.042167
  0
VERTEX
  8
0
 10
139.382849
 20
58.967655
 42
-0.061769
  0
VERTEX
  8
0
 10
139.706250
 20
58.870461
 42
-0.081139
  0
VERTEX
  8
0
 10
139.925540
 20
58.727648
 42
-0.210953
  0
SEQEND
  0
POLYLINE
  8
0
 66
1
 70
1
  0
VERTEX
  8
0
 10
76.134886
 20
50.950289
 42
-0.130200
  0
VERTEX
  8
0
 10
76.497475
 20
50.544830
 42
-0.023989
  0
VERTEX
  8
0
 10
76.912621
 20
49.621971
 42
-0.024314
  0
VERTEX
  8
0
 10
77.303648
 20
48.465832
 42
-0.020035
  0
VERTEX
  8
0
 10
77.609942
 20
47.200289
 42
-0.076529
  0
VERTEX
  8
0
 10
77.707967
 20
45.005609
 42
-0.302499
  0
VERTEX
  8
0
 10
76.884535
 20
44.019261
 42
-0.166085
  0
VERTEX
  8
0
 10
75.126460
 20
44.092237
 42
-0.026656
  0
VERTEX
  8
0
 10
71.950340
 20
45.525680
 42
-0.081484
  0
VERTEX
  8
0
 10
69.796789
 20
47.128622
 42
-0.173265
  0
VERTEX
  8
0
 10
68.951358
 20
48.995624
 42
-0.268530
  0
VERTEX
  8
0
 10
69.624707
 20
50.416296
 42
-0.152033
  0
VERTEX
  8
0
 10
71.500000
 20
51.000000
 42
0.047372
  0
VERTEX
  8
0
 10
72.610820
 20
51.105479
 42
0.102066
  0
VERTEX
  8
0
 10
73.401108
 20
51.432895
 42
0.129604
  0
VERTEX
  8
0
 10
73.881788
 20
51.984470
 42
0.103864
  0
VERTEX
  8
0
 10
74.078947
 20
52.750000
 42
-0.007783
  0
VERTEX
  8
0
 10
74.135587
 20
53.682747
 42
-0.289553
  0
VERTEX
  8
0
 10
74.256944
 20
53.845775
 42
-0.403256
  0
VERTEX
  8
0
 10
74.413657
 20
53.779626
 42
-0.010258
  0
VERTEX
  8
0
 10
74.728891
 20
53.000000
 42
0.031883
  0
VERTEX
  8
0
 10
75.008873
 20
52.385419
 42
0.027511
  0
VERTEX
  8
0
 10
75.377439
 20
51.779147
 42
0.028470
  0
VERTEX
  8
0
 10
75.774203
 20
51.265973
 42
0.068482
  0
SEQEND
  0
POLYLINE
  8
0
 66
1
 70
1
  0
VERTEX
  8
0
 10
132.278043
 20
52.262582
 42
-0.074747
  0
VERTEX
  8
0
 10
133.027706
 20
51.919845
 42
-0.133967
  0
VERTEX
  8
0
 10
133.474209
 20
51.417301
 42
-0.127765
  0
VERTEX
  8
0
 10
133.615795
 20
50.739450
 42
-0.064864
  0
VERTEX
  8
0
 10
133.460655
 20
49.876035
 42
0.082158
  0
VERTEX
  8
0
 10
133.141684
 20
47.666712
 42
0.116977
  0
VERTEX
  8
0
 10
133.637003
 20
45.754491
 42
0.137412
  0
VERTEX
  8
0
 10
134.854170
 20
44.472502
 42
0.135372
  0
VERTEX
  8
0
 10
136.567388
 20
44.000000
 42
-0.050305
  0
VERTEX
  8
0
 10
137.834014
 20
43.872242
 42
-0.169235
  0
VERTEX
  8
0
 10
138.539785
 20
43.452685
 42
-0.143140
  0
VERTEX
  8
0
 10
138.900235
 20
42.634165
 42
-0.032628
  0
VERTEX
  8
0
 10
139.000000
 20
41.106989
 42
-0.108929
  0
VERTEX
  8
0
 10
138.573011
 20
39.170296
 42
-0.111528
  0
VERTEX
  8
0
 10
137.373000
 20
37.611719
 42
-0.201946
  0
VERTEX
  8
0
 10
136.083703
 20
37.221372
 42
-0.294198
  0
VERTEX
  8
0
 10
135.185743
 20
37.942771
 42
0.132445
  0
VERTEX
  8
0
 10
134.917664
 20
38.347421
 42
0.066983
  0
VERTEX
  8
0
 10
134.405261
 20
38.689439
 42
0.059267
  0
VERTEX
  8
0
 10
133.741956
 20
38.921392
 42
0.054555
  0
VERTEX
  8
0
 10
133.023655
 20
39.000000
 42
0.139174
  0
VERTEX
  8
0
 10
131.763143
 20
38.642207
 42
0.120812
  0
VERTEX
  8
0
 10
130.797157
 20
37.660237
 42
0.088860
  0
VERTEX
  8
0
 10
130.195657
 20
36.059690
 42
0.045588
  0
VERTEX
  8
0
 10
130.000000
 20
33.918213
 42
-0.079871
  0
VERTEX
  8
0
 10
129.864504
 20
33.075410
 42
-0.130973
  0
VERTEX
  8
0
 10
129.471239
 20
32.474207
 42
-0.120957
  0
VERTEX
  8
0
 10
128.804569
 20
32.118344
 42
-0.062473
  0
VERTEX
  8
0
 10
127.861111
 20
32.000000
 42
0.100005
  0
VERTEX
  8
0
 10
126.689639
 20
31.763328
 42
0.233184
  0
VERTEX
  8
0
 10
126.118796
 20
31.104441
 42
0.080191
  0
VERTEX
  8
0
 10
125.981979
 20
29.679217
 42
0.006524
  0
VERTEX
  8
0
 10
126.272983
 20
25.926122
 42
0.019653
  0
VERTEX
  8
0
 10
126.619027
 20
23.273675
 42
0.027981
  0
VERTEX
  8
0
 10
127.149058
 20
20.957621
 42
0.032035
  0
VERTEX
  8
0
 10
127.816301
 20
19.100772
 42
0.081817
  0
VERTEX
  8
0
 10
128.588243
 20
17.902493
 42
-0.035849
  0
VERTEX
  8
0
 10
129.312459
 20
16.976819
 42
-0.086060
  0
VERTEX
  8
0
 10
129.666822
 20
16.184429
 42
-0.125575
  0
VERTEX
  8
0
 10
129.666143
 20
15.511501
 42
-0.134438
  0
VERTEX
  8
0
 10
129.340804
 20
14.940804
 42
-0.385998
  0
VERTEX
  8
0
 10
128.700911
 20
14.909653
 42
-0.066021
  0
VERTEX
  8
0
 10
127.794110
 20
15.881413
 42
-0.035787
  0
VERTEX
  8
0
 10
126.631376
 20
17.788830
 42
-0.010998
  0
VERTEX
  8
0
 10
125.152368
 20
20.820363
 42
0.013012
  0
VERTEX
  8
0
 10
123.784291
 20
23.596094
 42
0.013863
  0
VERTEX
  8
0
 10
122.300761
 20
26.237903
 42
0.013545
  0
VERTEX
  8
0
 10
120.903739
 20
28.434404
 42
0.060488
  0
VERTEX
  8
0
 10
119.905382
 20
29.585628
 42
-0.064531
  0
VERTEX
  8
0
 10
118.153161
 20
31.639329
 42
-0.041896
  0
VERTEX
  8
0
 10
116.672228
 20
34.391069
 42
-0.036747
  0
VERTEX
  8
0
 10
115.497282
 20
37.749751
 42
-0.026467
  0
VERTEX
  8
0
 10
114.668609
 20
41.635084
 42
-0.014563
  0
VERTEX
  8
0
 10
114.365732
 20
43.986763
 42
-0.097787
  0
VERTEX
  8
0
 10
114.478025
 20
45.152980
 42
-0.180196
  0
VERTEX
  8
0
 10
114.998477
 20
45.841144
 42
-0.077891
  0
VERTEX
  8
0
 10
116.067730
 20
46.307461
 42
-0.057610
  0
VERTEX
  8
0
 10
117.000820
 20
46.439605
 42
-0.110954
  0
VERTEX
  8
0
 10
117.737640
 20
46.293760
 42
-0.126699
  0
VERTEX
  8
0
 10
118.278241
 20
45.866811
 42
-0.088549
  0
VERTEX
  8
0
 10
118.634169
 20
45.172377
 42
0.016645
  0
VERTEX
  8
0
 10
118.896559
 20
44.407038
 42
0.008959
  0
VERTEX
  8
0
 10
119.267954
 20
43.481184
 42
0.008913
  0
VERTEX
  8
0
 10
119.680698
 20
42.550015
 42
0.013828
  0
VERTEX
  8
0
 10
120.072998
 20
41.763569
 42
-0.031758
  0
VERTEX
  8
0
 10
120.428037
 20
40.982982
 42
-0.022768
  0
VERTEX
  8
0
 10
120.727693
 20
40.072173
 42
-0.023110
  0
VERTEX
  8
0
 10
120.934070
 20
39.175037
 42
-0.045004
  0
VERTEX
  8
0
 10
121.000000
 20
38.444018
 42
0.108237
  0
VERTEX
  8
0
 10
121.147221
 20
37.771900
 42
0.158260
  0
VERTEX
  8
0
 10
121.554849
 20
37.330096
 42
0.117460
  0
VERTEX
  8
0
 10
122.249851
 20
37.131864
 42
0.046303
  0
VERTEX
  8
0
 10
123.250000
 20
37.180449
 42
0.065164
  0
VERTEX
  8
0
 10
124.391906
 20
37.497985
 42
0.160641
  0
VERTEX
  8
0
 10
125.038068
 20
38.064629
 42
0.117551
  0
VERTEX
  8
0
 10
125.336328
 20
39.034721
 42
0.027405
  0
VERTEX
  8
0
 10
125.352552
 20
40.750000
 42
-0.026633
  0
VERTEX
  8
0
 10
125.364561
 20
42.267220
 42
-0.085910
  0
VERTEX
  8
0
 10
125.596213
 20
43.245270
 42
-0.147226
  0
VERTEX
  8
0
 10
126.055213
 20
43.794305
 42
-0.146568
  0
VERTEX
  8
0
 10
126.741843
 20
44.000000
 42
0.183663
  0
VERTEX
  8
0
 10
127.470649
 20
44.277056
 42
0.167275
  0
VERTEX
  8
0
 10
127.866641
 20
44.980432
 42
0.064486
  0
VERTEX
  8
0
 10
127.939983
 20
46.376494
 42
0.010395
  0
VERTEX
  8
0
 10
127.675375
 20
49.093142
 42
-0.007048
  0
VERTEX
  8
0
 10
127.364549
 20
52.077135
 42
-0.084624
  0
VERTEX
  8
0
 10
127.455698
 20
53.226310
 42
-0.319266
  0
VERTEX
  8
0
 10
127.911409
 20
53.613846
 42
-0.119993
  0
VERTEX
  8
0
 10
128.786084
 20
53.479689
 42
0.008757
  0
VERTEX
  8
0
 10
129.570951
 20
53.172081
 42
0.005158
  0
VERTEX
  8
0
 10
130.518837
 20
52.830693
 42
0.005159
  0
VERTEX
  8
0
 10
131.473206
 20
52.509055
 42
0.008787
  0
SEQEND
  0
POLYLINE
  8
0
 66
1
 70
1
  0
VERTEX
  8
0
 10
64.806872
 20
21.473539
 42
-0.278911
  0
VERTEX
  8
0
 10
64.538684
 20
21.407510
 42
-0.120343
  0
VERTEX
  8
0
 10
64.210949
 20
21.604915
 42
-0.070189
  0
VERTEX
  8
0
 10
63.866277
 20
22.059266
 42
-0.036269
  0
VERTEX
  8
0
 10
63.564293
 20
22.706872
 42
-0.008399
  0
VERTEX
  8
0
 10
63.218210
 20
23.663782
 42
-0.286372
  0
VERTEX
  8
0
 10
63.270328
 20
23.888819
 42
-0.400052
  0
VERTEX
  8
0
 10
63.463552
 20
23.893514
 42
-0.011214
  0
VERTEX
  8
0
 10
64.124088
 20
23.266667
 42
-0.043285
  0
VERTEX
  8
0
 10
64.558688
 20
22.753423
 42
-0.063152
  0
VERTEX
  8
0
 10
64.837219
 20
22.231185
 42
-0.082976
  0
VERTEX
  8
0
 10
64.927901
 20
21.779789
 42
-0.207420
  0
SEQEND
  0
POLYLINE
  8
0
 66
1
 70
1
  0
VERTEX
  8
0
 10
135.984687
 20
10.750000
 42
-0.182983
  0
VERTEX
  8
0
 10
135.882955
 20
10.463816
 42
-0.093473
  0
VERTEX
  8
0
 10
135.582378
 20
10.220313
 42
-0.072350
  0
VERTEX
  8
0
 10
135.130628
 20
10.055395
 42
-0.051441
  0
VERTEX
  8
0
 10
134.593620
 20
10.000000
 42
-0.122534
  0
VERTEX
  8
0
 10
134.024540
 20
10.141589
 42
-0.174563
  0
VERTEX
  8
0
 10
133.677468
 20
10.523649
 42
-0.118851
  0
VERTEX
  8
0
 10
133.576513
 20
11.168848
 42
-0.043627
  0
VERTEX
  8
0
 10
133.732357
 20
12.084535
 42
-0.021889
  0
VERTEX
  8
0
 10
134.041000
 20
13.083886
 42
-0.185328
  0
VERTEX
  8
0
 10
134.342121
 20
13.434346
 42
-0.331312
  0
VERTEX
  8
0
 10
134.683040
 20
13.384430
 42
-0.055202
  0
VERTEX
  8
0
 10
135.123425
 20
12.834535
 42
-0.021915
  0
VERTEX
  8
0
 10
135.448346
 20
12.268552
 42
-0.021382
  0
VERTEX
  8
0
 10
135.725375
 20
11.671707
 42
-0.021856
  0
VERTEX
  8
0
 10
135.922818
 20
11.127601
 42
-0.071114
  0
SEQEND
  0
ENDSEC
  0
EOF
