  0
SECTION
  2
HEADER
  9
$ACADVER
  1
AC1006
  9
$EXTMIN
 10
0.000000
 20
0.000000
 30
0.000000
  9
$EXTMAX
 10
279.000000
 20
248.000000
 30
0.000000
  0
ENDSEC
  0
SECTION
  2
ENTITIES
  0
POLYLINE
  8
0
 66
1
 70
1
  0
VERTEX
  8
0
 10
98.703431
 20
246.274860
 42
-0.110271
  0
VERTEX
  8
0
 10
97.316997
 20
245.394503
 42
-0.045569
  0
VERTEX
  8
0
 10
95.154183
 20
244.830681
 42
-0.026714
  0
VERTEX
  8
0
 10
91.809452
 20
244.459498
 42
-0.006441
  0
VERTEX
  8
0
 10
86.239145
 20
244.212979
 42
0.031889
  0
VERTEX
  8
0
 10
75.101717
 20
243.150581
 42
0.088110
  0
VERTEX
  8
0
 10
67.687747
 20
240.572749
 42
0.093494
  0
VERTEX
  8
0
 10
61.868467
 20
235.702631
 42
0.038905
  0
VERTEX
  8
0
 10
55.978747
 20
227.271102
 42
0.002090
  0
VERTEX
  8
0
 10
54.070307
 20
223.997348
 42
0.003294
  0
VERTEX
  8
0
 10
52.462507
 20
221.169767
 42
0.000854
  0
VERTEX
  8
0
 10
51.081277
 20
218.693049
 42
0.127437
  0
VERTEX
  8
0
 10
51.000000
 20
218.379337
 42
-0.164688
  0
VERTEX
  8
0
 10
50.899377
 20
218.082126
 42
-0.001417
  0
VERTEX
  8
0
 10
49.411006
 20
216.147355
 42
-0.004760
  0
VERTEX
  8
0
 10
47.664121
 20
213.933670
 42
-0.003028
  0
VERTEX
  8
0
 10
45.590658
 20
211.388674
 42
0.017997
  0
VERTEX
  8
0
 10
42.777358
 20
207.716383
 42
0.030766
  0
VERTEX
  8
0
 10
40.739162
 20
204.437910
 42
0.030143
  0
VERTEX
  8
0
 10
39.091676
 20
200.887304
 42
0.016477
  0
VERTEX
  8
0
 10
37.484902
 20
196.362575
 42
0.012288
  0
VERTEX
  8
0
 10
36.390872
 20
192.610214
 42
0.018651
  0
VERTEX
  8
0
 10
35.643357
 20
189.295762
 42
0.021087
  0
VERTEX
  8
0
 10
35.251037
 20
186.558479
 42
0.065380
  0
VERTEX
  8
0
 10
35.307613
 20
184.697237
 42
-0.068845
  0
VERTEX
  8
0
 10
35.451120
 20
178.588824
 42
-0.004913
  0
VERTEX
  8
0
 10
33.347971
 20
161.688576
 42
-0.007222
  0
VERTEX
  8
0
 10
30.849001
 20
144.936037
 42
-0.026733
  0
VERTEX
  8
0
 10
28.559372
 20
134.500000
 42
-0.032216
  0
VERTEX
  8
0
 10
26.541572
 20
128.681970
 42
-0.010164
  0
VERTEX
  8
0
 10
22.799673
 20
120.270639
 42
-0.010304
  0
VERTEX
  8
0
 10
18.689253
 20
111.964040
 42
-0.029037
  0
VERTEX
  8
0
 10
15.369396
 20
106.402682
 42
0.008860
  0
VERTEX
  8
0
 10
14.461843
 20
105.012955
 42
0.012043
  0
VERTEX
  8
0
 10
13.696010
 20
103.725762
 42
0.009019
  0
VERTEX
  8
0
 10
13.107141
 20
102.633833
 42
0.119704
  0
VERTEX
  8
0
 10
13.000000
 20
102.192719
 42
-0.197156
  0
VERTEX
  8
0
 10
12.860720
 20
101.853227
 42
-0.035898
  0
VERTEX
  8
0
 10
12.339062
 20
101.395336
 42
-0.033822
  0
VERTEX
  8
0
 10
11.611604
 20
100.917679
 42
-0.024994
  0
VERTEX
  8
0
 10
10.750000
 20
100.487128
 42
0.073540
  0
VERTEX
  8
0
 10
9.737299
 20
99.851859
 42
0.078345
  0
VERTEX
  8
0
 10
8.976987
 20
98.962548
 42
0.069773
  0
VERTEX
  8
0
 10
8.466154
 20
97.792561
 42
0.043958
  0
VERTEX
  8
0
 10
8.192196
 20
96.324471
 42
-0.036863
  0
VERTEX
  8
0
 10
7.968009
 20
95.020970
 42
-0.034187
  0
VERTEX
  8
0
 10
7.551164
 20
93.730160
 42
-0.035992
  0
VERTEX
  8
0
 10
7.017890
 20
92.633655
 42
-0.088596
  0
VERTEX
  8
0
 10
6.442196
 20
91.952027
 42
0.048301
  0
VERTEX
  8
0
 10
5.890371
 20
91.395933
 42
0.041532
  0
VERTEX
  8
0
 10
5.423645
 20
90.716644
 42
0.043562
  0
VERTEX
  8
0
 10
5.103654
 20
90.022434
 42
0.086426
  0
VERTEX
  8
0
 10
5.000000
 20
89.427245
 42
-0.080608
  0
VERTEX
  8
0
 10
4.907976
 20
88.860147
 42
-0.052413
  0
VERTEX
  8
0
 10
4.632812
 20
88.254532
 42
-0.051324
  0
VERTEX
  8
0
 10
4.228204
 20
87.703957
 42
-0.066434
  0
VERTEX
  8
0
 10
3.750000
 20
87.299690
 42
0.126845
  0
VERTEX
  8
0
 10
1.576103
 20
84.962975
 42
0.072125
  0
VERTEX
  8
0
 10
0.233214
 20
81.317814
 42
0.095519
  0
VERTEX
  8
0
 10
0.174928
 20
78.170101
 42
0.364703
  0
VERTEX
  8
0
 10
1.565741
 20
77.000000
 42
0.097224
  0
VERTEX
  8
0
 10
3.607472
 20
77.400798
 42
0.050344
  0
VERTEX
  8
0
 10
5.912457
 20
78.625160
 42
0.035423
  0
VERTEX
  8
0
 10
8.675162
 20
80.767975
 42
0.013722
  0
VERTEX
  8
0
 10
12.194763
 20
84.099525
 42
0.020197
  0
VERTEX
  8
0
 10
16.531155
 20
88.801138
 42
0.010373
  0
VERTEX
  8
0
 10
21.595871
 20
95.014786
 42
0.004686
  0
VERTEX
  8
0
 10
26.417517
 20
101.308088
 42
0.162505
  0
VERTEX
  8
0
 10
27.000000
 20
103.052958
 42
-0.122303
  0
VERTEX
  8
0
 10
27.121182
 20
103.540963
 42
-0.026354
  0
VERTEX
  8
0
 10
27.571848
 20
104.293655
 42
-0.026024
  0
VERTEX
  8
0
 10
28.201509
 20
105.131937
 42
-0.022288
  0
VERTEX
  8
0
 10
28.946717
 20
105.946717
 42
-0.025280
  0
VERTEX
  8
0
 10
30.196438
 20
107.076075
 42
-0.394894
  0
VERTEX
  8
0
 10
30.722903
 20
107.040276
 42
-0.151002
  0
VERTEX
  8
0
 10
31.067248
 20
106.329185
 42
-0.005058
  0
VERTEX
  8
0
 10
31.512241
 20
103.196717
 42
-0.008282
  0
VERTEX
  8
0
 10
32.267475
 20
96.625916
 42
-0.079816
  0
VERTEX
  8
0
 10
32.095426
 20
93.828355
 42
-0.222728
  0
VERTEX
  8
0
 10
31.065224
 20
92.498261
 42
-0.118925
  0
VERTEX
  8
0
 10
29.000000
 20
92.000000
 42
0.030112
  0
VERTEX
  8
0
 10
27.380785
 20
91.902395
 42
0.146144
  0
VERTEX
  8
0
 10
26.546281
 20
91.539051
 42
0.172948
  0
VERTEX
  8
0
 10
26.124881
 20
90.815545
 42
0.046258
  0
VERTEX
  8
0
 10
26.000000
 20
89.468615
 42
0.058132
  0
VERTEX
  8
0
 10
26.123785
 20
88.407519
 42
0.067342
  0
VERTEX
  8
0
 10
26.488275
 20
87.458631
 42
0.074572
  0
VERTEX
  8
0
 10
27.049506
 20
86.720512
 42
0.102824
  0
VERTEX
  8
0
 10
27.750000
 20
86.274569
 42
-0.082302
  0
VERTEX
  8
0
 10
29.822378
 20
85.070851
 42
-0.118423
  0
VERTEX
  8
0
 10
31.091956
 20
83.381963
 42
-0.072380
  0
VERTEX
  8
0
 10
31.822636
 20
80.682563
 42
-0.016089
  0
VERTEX
  8
0
 10
32.242455
 20
75.905884
 42
0.005865
  0
VERTEX
  8
0
 10
32.481032
 20
72.361934
 42
0.002675
  0
VERTEX
  8
0
 10
32.871750
 20
67.737978
 42
0.002649
  0
VERTEX
  8
0
 10
33.335350
 20
62.869924
 42
0.003643
  0
VERTEX
  8
0
 10
33.807072
 20
58.500000
 42
-0.002835
  0
VERTEX
  8
0
 10
34.319801
 20
53.821141
 42
-0.001455
  0
VERTEX
  8
0
 10
34.912106
 20
47.951484
 42
-0.001446
  0
VERTEX
  8
0
 10
35.486867
 20
41.904716
 42
-0.002180
  0
VERTEX
  8
0
 10
35.949432
 20
36.632713
 42
0.005701
  0
VERTEX
  8
0
 10
36.532438
 20
30.485500
 42
0.025103
  0
VERTEX
  8
0
 10
37.098620
 20
26.889265
 42
0.043374
  0
VERTEX
  8
0
 10
37.775172
 20
24.647033
 42
0.135114
  0
VERTEX
  8
0
 10
38.719270
 20
23.400844
 42
0.131035
  0
VERTEX
  8
0
 10
40.571578
 20
22.632356
 42
0.061638
  0
VERTEX
  8
0
 10
43.182687
 20
22.607386
 42
0.059255
  0
VERTEX
  8
0
 10
45.876036
 20
23.243497
 42
0.085000
  0
VERTEX
  8
0
 10
48.000000
 20
24.459294
 42
-0.027884
  0
VERTEX
  8
0
 10
48.711603
 20
24.982213
 42
-0.016257
  0
VERTEX
  8
0
 10
49.617243
 20
25.531834
 42
-0.016224
  0
VERTEX
  8
0
 10
50.562899
 20
26.024768
 42
-0.026316
  0
VERTEX
  8
0
 10
51.399126
 20
26.373841
 42
0.155077
  0
VERTEX
  8
0
 10
52.410679
 20
27.143677
 42
0.123052
  0
VERTEX
  8
0
 10
52.906899
 20
28.431872
 42
0.042802
  0
VERTEX
  8
0
 10
52.997570
 20
30.864047
 42
0.004326
  0
VERTEX
  8
0
 10
52.667696
 20
36.651002
 42
0.010119
  0
VERTEX
  8
0
 10
52.342696
 20
40.428207
 42
0.013557
  0
VERTEX
  8
0
 10
51.886199
 20
43.835579
 42
0.010699
  0
VERTEX
  8
0
 10
51.372798
 20
46.630111
 42
0.123024
  0
VERTEX
  8
0
 10
50.892741
 20
47.629239
 42
-0.179178
  0
VERTEX
  8
0
 10
49.929292
 20
50.369145
 42
-0.004940
  0
VERTEX
  8
0
 10
50.267168
 20
63.192930
 42
-0.009994
  0
VERTEX
  8
0
 10
50.959818
 20
75.502440
 42
-0.046614
  0
VERTEX
  8
0
 10
52.156385
 20
82.500000
 42
-0.022915
  0
VERTEX
  8
0
 10
53.049725
 20
85.304818
 42
-0.077477
  0
VERTEX
  8
0
 10
53.983570
 20
86.978981
 42
-0.084123
  0
VERTEX
  8
0
 10
55.339192
 20
88.215518
 42
-0.030127
  0
VERTEX
  8
0
 10
57.627987
 20
89.500000
 42
0.064373
  0
VERTEX
  8
0
 10
63.000232
 20
93.017704
 42
0.056359
  0
VERTEX
  8
0
 10
67.577763
 20
97.932409
 42
0.049873
  0
VERTEX
  8
0
 10
71.387979
 20
104.323136
 42
0.033541
  0
VERTEX
  8
0
 10
74.470801
 20
112.250000
 42
-0.010734
  0
VERTEX
  8
0
 10
75.214175
 20
114.453881
 42
-0.016820
  0
VERTEX
  8
0
 10
75.956818
 20
116.310938
 42
-0.011094
  0
VERTEX
  8
0
 10
76.640828
 20
117.778130
 42
-0.285488
  0
VERTEX
  8
0
 10
76.997738
 20
118.000000
 42
-0.386907
  0
VERTEX
  8
0
 10
77.303068
 20
117.722136
 42
-0.001918
  0
VERTEX
  8
0
 10
77.710057
 20
113.226562
 42
-0.006922
  0
VERTEX
  8
0
 10
78.091585
 20
107.980848
 42
-0.004168
  0
VERTEX
  8
0
 10
78.406033
 20
101.750000
 42
0.011840
  0
VERTEX
  8
0
 10
79.142827
 20
90.563132
 42
0.015301
  0
VERTEX
  8
0
 10
80.375133
 20
80.347306
 42
0.016046
  0
VERTEX
  8
0
 10
82.168469
 20
70.643073
 42
0.015689
  0
VERTEX
  8
0
 10
84.591794
 20
61.000000
 42
-0.003614
  0
VERTEX
  8
0
 10
85.246429
 20
58.637870
 42
-0.002903
  0
VERTEX
  8
0
 10
85.917567
 20
56.087500
 42
-0.002934
  0
VERTEX
  8
0
 10
86.510395
 20
53.722895
 42
-0.007483
  0
VERTEX
  8
0
 10
86.904386
 20
52.000000
 42
0.014398
  0
VERTEX
  8
0
 10
87.266042
 20
50.513411
 42
0.011659
  0
VERTEX
  8
0
 10
87.736674
 20
48.940625
 42
0.011831
  0
VERTEX
  8
0
 10
88.239191
 20
47.509718
 42
0.029647
  0
VERTEX
  8
0
 10
88.690914
 20
46.500000
 42
-0.072611
  0
VERTEX
  8
0
 10
89.825964
 20
43.239267
 42
-0.018961
  0
VERTEX
  8
0
 10
90.668119
 20
37.744917
 42
-0.016935
  0
VERTEX
  8
0
 10
91.229689
 20
30.767385
 42
-0.010318
  0
VERTEX
  8
0
 10
91.443101
 20
22.500000
 42
0.005540
  0
VERTEX
  8
0
 10
91.556628
 20
15.515630
 42
0.044776
  0
VERTEX
  8
0
 10
91.929933
 20
12.334777
 42
0.071729
  0
VERTEX
  8
0
 10
92.821793
 20
9.887945
 42
0.025612
  0
VERTEX
  8
0
 10
94.750000
 20
6.699868
 42
-0.009609
  0
VERTEX
  8
0
 10
95.994764
 20
4.783056
 42
-0.012840
  0
VERTEX
  8
0
 10
97.045313
 20
2.994376
 42
-0.010064
  0
VERTEX
  8
0
 10
97.846148
 20
1.475624
 42
-0.116807
  0
VERTEX
  8
0
 10
98.000000
 20
0.826038
 42
0.417011
  0
VERTEX
  8
0
 10
98.818925
 20
0.014889
 42
0.015738
  0
VERTEX
  8
0
 10
103.570648
 20
0.209885
 42
0.017620
  0
VERTEX
  8
0
 10
108.333880
 20
0.724984
 42
0.215414
  0
VERTEX
  8
0
 10
109.842039
 20
1.685933
 42
-0.098861
  0
VERTEX
  8
0
 10
110.263061
 20
2.114744
 42
-0.030966
  0
VERTEX
  8
0
 10
111.041099
 20
2.576451
 42
-0.029583
  0
VERTEX
  8
0
 10
111.994736
 20
2.996055
 42
-0.028775
  0
VERTEX
  8
0
 10
113.000000
 20
3.304629
 42
0.056502
  0
VERTEX
  8
0
 10
115.232274
 20
4.127524
 42
0.035048
  0
VERTEX
  8
0
 10
117.636300
 20
5.555954
 42
0.029051
  0
VERTEX
  8
0
 10
120.260930
 20
7.611016
 42
0.016924
  0
VERTEX
  8
0
 10
123.170742
 20
10.355755
 42
0.083503
  0
VERTEX
  8
0
 10
124.946698
 20
12.874606
 42
0.067374
  0
VERTEX
  8
0
 10
125.967437
 20
16.029060
 42
0.076814
  0
VERTEX
  8
0
 10
126.039170
 20
18.888464
 42
0.225977
  0
VERTEX
  8
0
 10
125.000000
 20
20.500000
 42
-0.197534
  0
VERTEX
  8
0
 10
124.608533
 20
21.040107
 42
-0.020229
  0
VERTEX
  8
0
 10
124.293750
 20
22.619934
 42
-0.022806
  0
VERTEX
  8
0
 10
124.072852
 20
24.608683
 42
-0.016256
  0
VERTEX
  8
0
 10
124.000000
 20
26.848918
 42
0.020303
  0
VERTEX
  8
0
 10
123.894226
 20
29.452712
 42
0.011870
  0
VERTEX
  8
0
 10
123.567120
 20
32.558294
 42
0.011859
  0
VERTEX
  8
0
 10
123.091370
 20
35.655855
 42
0.019675
  0
VERTEX
  8
0
 10
122.526366
 20
38.237465
 42
-0.026546
  0
VERTEX
  8
0
 10
121.963438
 20
40.990071
 42
-0.011752
  0
VERTEX
  8
0
 10
121.500245
 20
44.672030
 42
-0.011594
  0
VERTEX
  8
0
 10
121.191069
 20
48.604769
 42
-0.015318
  0
VERTEX
  8
0
 10
121.102546
 20
52.197564
 42
0.003677
  0
VERTEX
  8
0
 10
121.097743
 20
55.742638
 42
0.003016
  0
VERTEX
  8
0
 10
121.041911
 20
59.529909
 42
0.003046
  0
VERTEX
  8
0
 10
120.948382
 20
63.010615
 42
0.008047
  0
VERTEX
  8
0
 10
120.826180
 20
65.500000
 42
-0.010285
  0
VERTEX
  8
0
 10
120.698326
 20
68.366382
 42
-0.084946
  0
VERTEX
  8
0
 10
120.886747
 20
69.652398
 42
-0.207322
  0
VERTEX
  8
0
 10
121.435174
 20
70.272898
 42
-0.109971
  0
VERTEX
  8
0
 10
122.455238
 20
70.500000
 42
-0.115154
  0
VERTEX
  8
0
 10
123.425565
 20
70.273522
 42
-0.124952
  0
VERTEX
  8
0
 10
124.161663
 20
69.644384
 42
-0.078795
  0
VERTEX
  8
0
 10
124.733359
 20
68.483795
 42
-0.023900
  0
VERTEX
  8
0
 10
125.225283
 20
66.578311
 42
0.016267
  0
VERTEX
  8
0
 10
125.609603
 20
64.989875
 42
0.017214
  0
VERTEX
  8
0
 10
126.090183
 20
63.459861
 42
0.017083
  0
VERTEX
  8
0
 10
126.592841
 20
62.175073
 42
0.071529
  0
VERTEX
  8
0
 10
127.025425
 20
61.469365
 42
-0.094709
  0
VERTEX
  8
0
 10
128.468637
 20
58.851707
 42
-0.024016
  0
VERTEX
  8
0
 10
129.755218
 20
54.147954
 42
-0.024627
  0
VERTEX
  8
0
 10
130.676745
 20
48.770626
 42
-0.029733
  0
VERTEX
  8
0
 10
130.989176
 20
43.657729
 42
-0.013354
  0
VERTEX
  8
0
 10
130.899455
 20
40.087550
 42
-0.040339
  0
VERTEX
  8
0
 10
130.578298
 20
37.677304
 42
-0.056685
  0
VERTEX
  8
0
 10
129.958148
 20
35.844976
 42
-0.056791
  0
VERTEX
  8
0
 10
128.942655
 20
34.199969
 42
0.049706
  0
VERTEX
  8
0
 10
127.872795
 20
32.520456
 42
0.079893
  0
VERTEX
  8
0
 10
127.358574
 20
30.906322
 42
0.052202
  0
VERTEX
  8
0
 10
127.262920
 20
28.765603
 42
0.011092
  0
VERTEX
  8
0
 10
127.568318
 20
25.042239
 42
0.023665
  0
VERTEX
  8
0
 10
128.337766
 20
19.996996
 42
0.052395
  0
VERTEX
  8
0
 10
129.499234
 20
16.286463
 42
0.073967
  0
VERTEX
  8
0
 10
131.044543
 20
13.798039
 42
0.140943
  0
VERTEX
  8
0
 10
132.989033
 20
12.503481
 42
-0.039493
  0
VERTEX
  8
0
 10
133.758636
 20
12.190477
 42
-0.049521
  0
VERTEX
  8
0
 10
134.409278
 20
11.778758
 42
-0.057878
  0
VERTEX
  8
0
 10
134.858216
 20
11.335734
 42
-0.170731
  0
VERTEX
  8
0
 10
135.000000
 20
10.932612
 42
0.397646
  0
VERTEX
  8
0
 10
135.826509
 20
10.057689
 42
0.021900
  0
VERTEX
  8
0
 10
139.948060
 20
10.003688
 42
0.022237
  0
VERTEX
  8
0
 10
144.120285
 20
10.317861
 42
0.273435
  0
VERTEX
  8
0
 10
145.337719
 20
11.250000
 42
-0.009076
  0
VERTEX
  8
0
 10
145.617987
 20
11.909806
 42
-0.295955
  0
VERTEX
  8
0
 10
145.757018
 20
12.000000
 42
-0.382689
  0
VERTEX
  8
0
 10
145.864758
 20
11.903389
 42
-0.011437
  0
VERTEX
  8
0
 10
145.921053
 20
11.250000
 42
0.289172
  0
VERTEX
  8
0
 10
146.641407
 20
10.253797
 42
0.136670
  0
VERTEX
  8
0
 10
148.283194
 20
10.072320
 42
0.091312
  0
VERTEX
  8
0
 10
150.352609
 20
10.812943
 42
0.087654
  0
VERTEX
  8
0
 10
152.056438
 20
12.250000
 42
0.057078
  0
VERTEX
  8
0
 10
152.778235
 20
13.348730
 42
0.033499
  0
VERTEX
  8
0
 10
153.391859
 20
14.799150
 42
0.033118
  0
VERTEX
  8
0
 10
153.816765
 20
16.352277
 42
0.047700
  0
VERTEX
  8
0
 10
153.966731
 20
17.768383
 42
-0.035354
  0
VERTEX
  8
0
 10
154.108031
 20
19.512099
 42
-0.009100
  0
VERTEX
  8
0
 10
154.585476
 20
22.297920
 42
-0.009217
  0
VERTEX
  8
0
 10
155.248232
 20
25.463708
 42
-0.009256
  0
VERTEX
  8
0
 10
156.026379
 20
28.598438
 42
0.020629
  0
VERTEX
  8
0
 10
157.061486
 20
33.214810
 42
0.025628
  0
VERTEX
  8
0
 10
157.623461
 20
37.578500
 42
0.018435
  0
VERTEX
  8
0
 10
157.839480
 20
42.980407
 42
0.005330
  0
VERTEX
  8
0
 10
157.776379
 20
51.330054
 42
-0.004949
  0
VERTEX
  8
0
 10
157.713527
 20
58.885417
 42
-0.015106
  0
VERTEX
  8
0
 10
157.876508
 20
64.010692
 42
-0.021912
  0
VERTEX
  8
0
 10
158.264475
 20
67.663451
 42
-0.054938
  0
VERTEX
  8
0
 10
158.950888
 20
70.250000
 42
0.000000
  0
VERTEX
  8
0
 10
160.401777
 20
74.000000
 42
0.000000
  0
VERTEX
  8
0
 10
172.450888
 20
73.982723
 42
-0.003873
  0
VERTEX
  8
0
 10
179.987270
 20
73.913538
 42
-0.038673
  0
VERTEX
  8
0
 10
183.125742
 20
73.616908
 42
-0.090528
  0
VERTEX
  8
0
 10
185.074948
 20
72.900738
 42
-0.069901
  0
VERTEX
  8
0
 10
186.849686
 20
71.488202
 42
-0.073117
  0
VERTEX
  8
0
 10
188.180328
 20
69.596470
 42
-0.081760
  0
VERTEX
  8
0
 10
188.846553
 20
67.471907
 42
-0.034067
  0
VERTEX
  8
0
 10
189.097395
 20
64.023102
 42
-0.003410
  0
VERTEX
  8
0
 10
189.078201
 20
55.755479
 42
-0.010856
  0
VERTEX
  8
0
 10
188.770343
 20
45.780323
 42
-0.020801
  0
VERTEX
  8
0
 10
188.017475
 20
37.808389
 42
-0.021006
  0
VERTEX
  8
0
 10
186.946358
 20
31.846428
 42
-0.173203
  0
VERTEX
  8
0
 10
185.498859
 20
29.551784
 42
0.085148
  0
VERTEX
  8
0
 10
183.792527
 20
27.667538
 42
0.028505
  0
VERTEX
  8
0
 10
181.975675
 20
24.411864
 42
0.028800
  0
VERTEX
  8
0
 10
180.449479
 20
20.745244
 42
0.044920
  0
VERTEX
  8
0
 10
179.613401
 20
17.430318
 42
0.027688
  0
VERTEX
  8
0
 10
179.408018
 20
15.422187
 42
0.058017
  0
VERTEX
  8
0
 10
179.516643
 20
13.858243
 42
0.067544
  0
VERTEX
  8
0
 10
179.961088
 20
12.517680
 42
0.052121
  0
VERTEX
  8
0
 10
180.778925
 20
11.210779
 42
0.115438
  0
VERTEX
  8
0
 10
182.657066
 20
9.699352
 42
0.079119
  0
VERTEX
  8
0
 10
185.289575
 20
8.914176
 42
0.034802
  0
VERTEX
  8
0
 10
189.723601
 20
8.637241
 42
0.004763
  0
VERTEX
  8
0
 10
199.000000
 20
8.792415
 42
0.005872
  0
VERTEX
  8
0
 10
204.335782
 20
8.995246
 42
0.060280
  0
VERTEX
  8
0
 10
206.507854
 20
9.368438
 42
0.133758
  0
VERTEX
  8
0
 10
207.804236
 20
10.174905
 42
0.067976
  0
VERTEX
  8
0
 10
208.916713
 20
11.757802
 42
0.075491
  0
VERTEX
  8
0
 10
209.568234
 20
13.683949
 42
0.012239
  0
VERTEX
  8
0
 10
210.164480
 20
17.602647
 42
0.011818
  0
VERTEX
  8
0
 10
210.691785
 20
22.709799
 42
0.006437
  0
VERTEX
  8
0
 10
211.109901
 20
29.000000
 42
-0.006035
  0
VERTEX
  8
0
 10
211.779256
 20
39.193699
 42
-0.010232
  0
VERTEX
  8
0
 10
212.616873
 20
47.704310
 42
-0.012064
  0
VERTEX
  8
0
 10
213.601014
 20
54.554189
 42
-0.030703
  0
VERTEX
  8
0
 10
214.736525
 20
59.443235
 42
0.000000
  0
VERTEX
  8
0
 10
215.613531
 20
62.386469
 42
0.000000
  0
VERTEX
  8
0
 10
217.556765
 20
60.264910
 42
-0.003608
  0
VERTEX
  8
0
 10
218.377492
 20
59.355783
 42
-0.003008
  0
VERTEX
  8
0
 10
219.236713
 20
58.378317
 42
-0.003036
  0
VERTEX
  8
0
 10
220.012249
 20
57.474244
 42
-0.008256
  0
VERTEX
  8
0
 10
220.546937
 20
56.821676
 42
-0.068257
  0
VERTEX
  8
0
 10
222.104492
 20
54.185287
 42
-0.019752
  0
VERTEX
  8
0
 10
223.763868
 20
49.747436
 42
-0.017464
  0
VERTEX
  8
0
 10
225.418327
 20
44.066543
 42
-0.010874
  0
VERTEX
  8
0
 10
226.978092
 20
37.305203
 42
0.000928
  0
VERTEX
  8
0
 10
227.822940
 20
33.278901
 42
0.000951
  0
VERTEX
  8
0
 10
228.675754
 20
29.289292
 42
0.000920
  0
VERTEX
  8
0
 10
229.428770
 20
25.829949
 42
0.004011
  0
VERTEX
  8
0
 10
229.894846
 20
23.786003
 42
-0.024982
  0
VERTEX
  8
0
 10
230.234736
 20
21.941846
 42
-0.054735
  0
VERTEX
  8
0
 10
230.267632
 20
20.508454
 42
-0.069431
  0
VERTEX
  8
0
 10
229.998223
 20
19.331650
 42
-0.071435
  0
VERTEX
  8
0
 10
229.418372
 20
18.286003
 42
0.113155
  0
VERTEX
  8
0
 10
228.364504
 20
15.948709
 42
0.061527
  0
VERTEX
  8
0
 10
228.126200
 20
12.791878
 42
0.060915
  0
VERTEX
  8
0
 10
228.667311
 20
9.625021
 42
0.101435
  0
VERTEX
  8
0
 10
229.943562
 20
7.250000
 42
0.137662
  0
VERTEX
  8
0
 10
232.413052
 20
5.553551
 42
0.073890
  0
VERTEX
  8
0
 10
236.077997
 20
4.883589
 42
0.076857
  0
VERTEX
  8
0
 10
239.612802
 20
5.310237
 42
0.186886
  0
VERTEX
  8
0
 10
241.679931
 20
6.859096
 42
-0.075398
  0
VERTEX
  8
0
 10
242.328551
 20
7.615616
 42
-0.039494
  0
VERTEX
  8
0
 10
243.331076
 20
8.350537
 42
-0.038161
  0
VERTEX
  8
0
 10
244.502034
 20
8.956205
 42
-0.047428
  0
VERTEX
  8
0
 10
245.670478
 20
9.325698
 42
0.075648
  0
VERTEX
  8
0
 10
247.044675
 20
9.846877
 42
0.044019
  0
VERTEX
  8
0
 10
248.501987
 20
10.847066
 42
0.038719
  0
VERTEX
  8
0
 10
249.959857
 20
12.251888
 42
0.029287
  0
VERTEX
  8
0
 10
251.337037
 20
13.997463
 42
0.032284
  0
VERTEX
  8
0
 10
252.924669
 20
16.617040
 42
0.066290
  0
VERTEX
  8
0
 10
253.741237
 20
18.868470
 42
0.044054
  0
VERTEX
  8
0
 10
254.115872
 20
21.790940
 42
0.007927
  0
VERTEX
  8
0
 10
254.245411
 20
27.280860
 42
0.009981
  0
VERTEX
  8
0
 10
254.185426
 20
32.188153
 42
0.028863
  0
VERTEX
  8
0
 10
253.880457
 20
35.571523
 42
0.038337
  0
VERTEX
  8
0
 10
253.254870
 20
38.314390
 42
0.033644
  0
VERTEX
  8
0
 10
252.197144
 20
41.056569
 42
-0.046110
  0
VERTEX
  8
0
 10
248.362083
 20
51.787167
 42
-0.021804
  0
VERTEX
  8
0
 10
245.331143
 20
66.184393
 42
-0.020457
  0
VERTEX
  8
0
 10
243.322812
 20
82.431982
 42
-0.019684
  0
VERTEX
  8
0
 10
242.614708
 20
99.000000
 42
-0.006929
  0
VERTEX
  8
0
 10
242.687970
 20
105.972435
 42
-0.023650
  0
VERTEX
  8
0
 10
243.012792
 20
110.497698
 42
-0.031242
  0
VERTEX
  8
0
 10
243.705211
 20
114.272572
 42
-0.020725
  0
VERTEX
  8
0
 10
244.945208
 20
118.500000
 42
-0.006151
  0
VERTEX
  8
0
 10
245.915219
 20
121.250367
 42
-0.008195
  0
VERTEX
  8
0
 10
246.867808
 20
123.722812
 42
-0.006050
  0
VERTEX
  8
0
 10
247.720527
 20
125.761001
 42
-0.079263
  0
VERTEX
  8
0
 10
248.158796
 20
126.450000
 42
0.130789
  0
VERTEX
  8
0
 10
248.492416
 20
127.115601
 42
0.015651
  0
VERTEX
  8
0
 10
248.778630
 20
128.751250
 42
0.017792
  0
VERTEX
  8
0
 10
248.992561
 20
130.755195
 42
0.013748
  0
VERTEX
  8
0
 10
249.087606
 20
132.950000
 42
-0.017459
  0
VERTEX
  8
0
 10
249.330632
 20
137.739515
 42
-0.011528
  0
VERTEX
  8
0
 10
249.928490
 20
143.219550
 42
-0.024696
  0
VERTEX
  8
0
 10
250.511877
 20
146.405517
 42
-0.863139
  0
VERTEX
  8
0
 10
250.866387
 20
146.375727
 42
0.037636
  0
VERTEX
  8
0
 10
251.019804
 20
145.271496
 42
0.010781
  0
VERTEX
  8
0
 10
251.422102
 20
143.590089
 42
0.010786
  0
VERTEX
  8
0
 10
251.959528
 20
141.706819
 42
0.011264
  0
VERTEX
  8
0
 10
252.570557
 20
139.875727
 42
-0.027794
  0
VERTEX
  8
0
 10
254.098035
 20
134.738865
 42
-0.011498
  0
VERTEX
  8
0
 10
255.613137
 20
127.646476
 42
-0.009802
  0
VERTEX
  8
0
 10
257.095789
 20
118.897012
 42
-0.005954
  0
VERTEX
  8
0
 10
258.522281
 20
108.500000
 42
0.006871
  0
VERTEX
  8
0
 10
259.742885
 20
99.723216
 42
0.027165
  0
VERTEX
  8
0
 10
260.858799
 20
94.389522
 42
0.043863
  0
VERTEX
  8
0
 10
262.206451
 20
90.677242
 42
0.057718
  0
VERTEX
  8
0
 10
264.091975
 20
87.610202
 42
-0.071236
  0
VERTEX
  8
0
 10
265.076390
 20
85.907845
 42
-0.039495
  0
VERTEX
  8
0
 10
265.794043
 20
83.613117
 42
-0.027288
  0
VERTEX
  8
0
 10
266.340004
 20
80.424772
 42
-0.009572
  0
VERTEX
  8
0
 10
266.785044
 20
75.797719
 42
0.000000
  0
VERTEX
  8
0
 10
267.500000
 20
66.500000
 42
0.000000
  0
VERTEX
  8
0
 10
270.416956
 20
66.711123
 42
0.038136
  0
VERTEX
  8
0
 10
271.593497
 20
66.887121
 42
0.039319
  0
VERTEX
  8
0
 10
272.717264
 20
67.238836
 42
0.042447
  0
VERTEX
  8
0
 10
273.634465
 20
67.701014
 42
0.113945
  0
VERTEX
  8
0
 10
274.151643
 20
68.211123
 42
-0.013921
  0
VERTEX
  8
0
 10
274.582001
 20
68.849435
 42
-0.229694
  0
VERTEX
  8
0
 10
274.801497
 20
68.968831
 42
-0.393919
  0
VERTEX
  8
0
 10
274.946297
 20
68.845907
 42
-0.026048
  0
VERTEX
  8
0
 10
274.984687
 20
68.250000
 42
0.221788
  0
VERTEX
  8
0
 10
275.421319
 20
67.343235
 42
0.198176
  0
VERTEX
  8
0
 10
276.427615
 20
67.038288
 42
0.144901
  0
VERTEX
  8
0
 10
277.614367
 20
67.518964
 42
0.133727
  0
VERTEX
  8
0
 10
278.393011
 20
68.581787
 42
0.067899
  0
VERTEX
  8
0
 10
279.066375
 20
71.447092
 42
0.068613
  0
VERTEX
  8
0
 10
278.943860
 20
74.377491
 42
0.075952
  0
VERTEX
  8
0
 10
278.082524
 20
76.888823
 42
0.127875
  0
VERTEX
  8
0
 10
276.595198
 20
78.529581
 42
-0.053891
  0
VERTEX
  8
0
 10
275.625892
 20
79.325871
 42
-0.036573
  0
VERTEX
  8
0
 10
274.702323
 20
80.417291
 42
-0.036814
  0
VERTEX
  8
0
 10
273.956926
 20
81.617974
 42
-0.059089
  0
VERTEX
  8
0
 10
273.528326
 20
82.743162
 42
0.046450
  0
VERTEX
  8
0
 10
273.084752
 20
84.002178
 42
0.018074
  0
VERTEX
  8
0
 10
272.251554
 20
85.651769
 42
0.017708
  0
VERTEX
  8
0
 10
271.214756
 20
87.384277
 42
0.020988
  0
VERTEX
  8
0
 10
270.111581
 20
88.940528
 42
-0.052927
  0
VERTEX
  8
0
 10
267.347340
 20
93.420238
 42
-0.051029
  0
VERTEX
  8
0
 10
265.544375
 20
98.434947
 42
-0.029279
  0
VERTEX
  8
0
 10
264.178497
 20
105.748443
 42
-0.005788
  0
VERTEX
  8
0
 10
262.654298
 20
119.000000
 42
0.021992
  0
VERTEX
  8
0
 10
261.925706
 20
123.923480
 42
0.006876
  0
VERTEX
  8
0
 10
260.408935
 20
131.231424
 42
0.007129
  0
VERTEX
  8
0
 10
258.608281
 20
138.830879
 42
0.012824
  0
VERTEX
  8
0
 10
256.883928
 20
145.000000
 42
0.001302
  0
VERTEX
  8
0
 10
254.249523
 20
153.492025
 42
0.006354
  0
VERTEX
  8
0
 10
252.684913
 20
158.275477
 42
0.008579
  0
VERTEX
  8
0
 10
251.595637
 20
161.297169
 42
0.073360
  0
VERTEX
  8
0
 10
250.895726
 20
162.549614
 42
-0.085441
  0
VERTEX
  8
0
 10
250.544399
 20
163.215337
 42
-0.014490
  0
VERTEX
  8
0
 10
250.137533
 20
164.598205
 42
-0.015459
  0
VERTEX
  8
0
 10
249.752978
 20
166.268803
 42
-0.013213
  0
VERTEX
  8
0
 10
249.449291
 20
168.049614
 42
0.026732
  0
VERTEX
  8
0
 10
248.549776
 20
172.581626
 42
0.024485
  0
VERTEX
  8
0
 10
247.151224
 20
177.129421
 42
0.025283
  0
VERTEX
  8
0
 10
245.497565
 20
181.064158
 42
0.069548
  0
VERTEX
  8
0
 10
243.833285
 20
183.564451
 42
-0.017277
  0
VERTEX
  8
0
 10
243.131373
 20
184.412125
 42
-0.021188
  0
VERTEX
  8
0
 10
242.538528
 20
185.251941
 42
-0.020206
  0
VERTEX
  8
0
 10
242.106243
 20
185.986507
 42
-0.123499
  0
VERTEX
  8
0
 10
242.000000
 20
186.410081
 42
0.119163
  0
VERTEX
  8
0
 10
241.888267
 20
186.872248
 42
0.011807
  0
VERTEX
  8
0
 10
241.339063
 20
187.882290
 42
0.014354
  0
VERTEX
  8
0
 10
240.611701
 20
189.067727
 42
0.010917
  0
VERTEX
  8
0
 10
239.750000
 20
190.324885
 42
-0.007411
  0
VERTEX
  8
0
 10
237.908392
 20
192.971670
 42
-0.011765
  0
VERTEX
  8
0
 10
236.419737
 20
195.296507
 42
-0.013338
  0
VERTEX
  8
0
 10
235.191251
 20
197.445384
 42
-0.015495
  0
VERTEX
  8
0
 10
234.142474
 20
199.553303
 42
0.030234
  0
VERTEX
  8
0
 10
233.618469
 20
200.533019
 42
0.011927
  0
VERTEX
  8
0
 10
232.786019
 20
201.816323
 42
0.011754
  0
VERTEX
  8
0
 10
231.818249
 20
203.163907
 42
0.014410
  0
VERTEX
  8
0
 10
230.849535
 20
204.373837
 42
0.018076
  0
VERTEX
  8
0
 10
226.366817
 20
209.282315
 42
0.003271
  0
VERTEX
  8
0
 10
217.656268
 20
218.038566
 42
0.002623
  0
VERTEX
  8
0
 10
208.769765
 20
226.763558
 42
0.029379
  0
VERTEX
  8
0
 10
205.021424
 20
230.000000
 42
-0.004414
  0
VERTEX
  8
0
 10
203.672584
 20
231.051883
 42
-0.004197
  0
VERTEX
  8
0
 10
202.319529
 20
232.145042
 42
-0.004167
  0
VERTEX
  8
0
 10
201.139641
 20
233.131367
 42
-0.014812
  0
VERTEX
  8
0
 10
200.408105
 20
233.791633
 42
0.052587
  0
VERTEX
  8
0
 10
199.667673
 20
234.364840
 42
0.018247
  0
VERTEX
  8
0
 10
198.492278
 20
235.033485
 42
0.017895
  0
VERTEX
  8
0
 10
197.134375
 20
235.680968
 42
0.019875
  0
VERTEX
  8
0
 10
195.779796
 20
236.205434
 42
-0.020857
  0
VERTEX
  8
0
 10
194.471756
 20
236.714835
 42
-0.022972
  0
VERTEX
  8
0
 10
193.253264
 20
237.317036
 42
-0.023166
  0
VERTEX
  8
0
 10
192.268278
 20
237.922659
 42
-0.097993
  0
VERTEX
  8
0
 10
191.784505
 20
238.413801
 42
0.245902
  0
VERTEX
  8
0
 10
190.032969
 20
239.384552
 42
0.007471
  0
VERTEX
  8
0
 10
181.461850
 20
239.460886
 42
0.007406
  0
VERTEX
  8
0
 10
172.886991
 20
239.282081
 42
0.250437
  0
VERTEX
  8
0
 10
171.178864
 20
238.289408
 42
-0.156438
  0
VERTEX
  8
0
 10
170.593184
 20
237.789187
 42
-0.015824
  0
VERTEX
  8
0
 10
168.859792
 20
237.127107
 42
-0.018607
  0
VERTEX
  8
0
 10
166.689229
 20
236.465173
 42
-0.013778
  0
VERTEX
  8
0
 10
164.246705
 20
235.890083
 42
0.011511
  0
VERTEX
  8
0
 10
161.852274
 20
235.337764
 42
0.018294
  0
VERTEX
  8
0
 10
159.834969
 20
234.743876
 42
0.012735
  0
VERTEX
  8
0
 10
158.251561
 20
234.168829
 42
0.308506
  0
VERTEX
  8
0
 10
158.000000
 20
233.799924
 42
-0.293094
  0
VERTEX
  8
0
 10
157.801536
 20
233.490442
 42
-0.045120
  0
VERTEX
  8
0
 10
157.079768
 20
233.234978
 42
-0.038415
  0
VERTEX
  8
0
 10
156.067833
 20
233.057924
 42
-0.024110
  0
VERTEX
  8
0
 10
154.867295
 20
233.000000
 42
-0.098595
  0
VERTEX
  8
0
 10
152.541987
 20
233.463030
 42
-0.071040
  0
VERTEX
  8
0
 10
150.259775
 20
234.815445
 42
-0.075095
  0
VERTEX
  8
0
 10
148.571965
 20
236.648779
 42
-0.149649
  0
VERTEX
  8
0
 10
148.000000
 20
238.517009
 42
0.225651
  0
VERTEX
  8
0
 10
147.283953
 20
240.022848
 42
0.023407
  0
VERTEX
  8
0
 10
144.042353
 20
242.417547
 42
0.028403
  0
VERTEX
  8
0
 10
140.084009
 20
244.750968
 42
0.034329
  0
VERTEX
  8
0
 10
136.124273
 20
246.459002
 42
0.045957
  0
VERTEX
  8
0
 10
133.217962
 20
247.191077
 42
0.019540
  0
VERTEX
  8
0
 10
129.226200
 20
247.655544
 42
0.014038
  0
VERTEX
  8
0
 10
123.784912
 20
247.920675
 42
0.005153
  0
VERTEX
  8
0
 10
116.088559
 20
248.000000
 42
0.003288
  0
VERTEX
  8
0
 10
107.301977
 20
247.942218
 42
0.021442
  0
VERTEX
  8
0
 10
102.892869
 20
247.694919
 42
0.044257
  0
VERTEX
  8
0
 10
100.279166
 20
247.199397
 42
0.128089
  0
SEQEND
  0
ENDSEC
  0
EOF
