  0
SECTION
  2
HEADER
  9
$ACADVER
  1
AC1006
  9
$EXTMIN
 10
0.000000
 20
0.000000
 30
0.000000
  9
$EXTMAX
 10
404.000000
 20
321.000000
 30
0.000000
  0
ENDSEC
  0
SECTION
  2
ENTITIES
  0
POLYLINE
  8
0
 66
1
 70
1
  0
VERTEX
  8
0
 10
218.500000
 20
320.000000
 42
-0.210887
  0
VERTEX
  8
0
 10
217.926048
 20
319.606040
 42
-0.014684
  0
VERTEX
  8
0
 10
215.946783
 20
319.293750
 42
-0.018838
  0
VERTEX
  8
0
 10
213.481758
 20
319.072657
 42
-0.012946
  0
VERTEX
  8
0
 10
210.676076
 20
319.000000
 42
0.010484
  0
VERTEX
  8
0
 10
206.446543
 20
318.911305
 42
0.056551
  0
VERTEX
  8
0
 10
204.177900
 20
318.557017
 42
0.085231
  0
VERTEX
  8
0
 10
202.492842
 20
317.767941
 42
0.041566
  0
VERTEX
  8
0
 10
200.657724
 20
316.250000
 42
0.032760
  0
VERTEX
  8
0
 10
197.961330
 20
313.243833
 42
0.025721
  0
VERTEX
  8
0
 10
195.437618
 20
309.665069
 42
0.024074
  0
VERTEX
  8
0
 10
193.509508
 20
306.255234
 42
0.117155
  0
VERTEX
  8
0
 10
193.000000
 20
304.110579
 42
-0.139609
  0
VERTEX
  8
0
 10
192.425458
 20
302.093005
 42
-0.109973
  0
VERTEX
  8
0
 10
190.830760
 20
300.461260
 42
-0.090512
  0
VERTEX
  8
0
 10
188.392539
 20
299.438196
 42
-0.064243
  0
VERTEX
  8
0
 10
185.431655
 20
299.175644
 42
0.018056
  0
VERTEX
  8
0
 10
183.444897
 20
299.183114
 42
0.006320
  0
VERTEX
  8
0
 10
180.591130
 20
299.054640
 42
0.006266
  0
VERTEX
  8
0
 10
177.452432
 20
298.834063
 42
0.007285
  0
VERTEX
  8
0
 10
174.474319
 20
298.543486
 42
-0.008480
  0
VERTEX
  8
0
 10
170.624578
 20
298.177153
 42
-0.044321
  0
VERTEX
  8
0
 10
168.497325
 20
298.199857
 42
-0.085799
  0
VERTEX
  8
0
 10
167.131321
 20
298.578550
 42
-0.109550
  0
VERTEX
  8
0
 10
166.101874
 20
299.377249
 42
0.060585
  0
VERTEX
  8
0
 10
165.444535
 20
299.998339
 42
0.043995
  0
VERTEX
  8
0
 10
164.584603
 20
300.523317
 42
0.044599
  0
VERTEX
  8
0
 10
163.664390
 20
300.881316
 42
0.070588
  0
VERTEX
  8
0
 10
162.827895
 20
301.000000
 42
-0.053671
  0
VERTEX
  8
0
 10
161.891540
 20
301.100800
 42
-0.021055
  0
VERTEX
  8
0
 10
160.633703
 20
301.430811
 42
-0.020552
  0
VERTEX
  8
0
 10
159.291814
 20
301.905157
 42
-0.024097
  0
VERTEX
  8
0
 10
158.064606
 20
302.466591
 42
0.053031
  0
VERTEX
  8
0
 10
156.424046
 20
303.105333
 42
0.011396
  0
VERTEX
  8
0
 10
153.457750
 20
303.839201
 42
0.011780
  0
VERTEX
  8
0
 10
149.965885
 20
304.533171
 42
0.010996
  0
VERTEX
  8
0
 10
146.364266
 20
305.079836
 42
0.013558
  0
VERTEX
  8
0
 10
141.289040
 20
305.596889
 42
0.024171
  0
VERTEX
  8
0
 10
137.093869
 20
305.706323
 42
0.021634
  0
VERTEX
  8
0
 10
132.606617
 20
305.411926
 42
0.008667
  0
VERTEX
  8
0
 10
126.500000
 20
304.637725
 42
0.005694
  0
VERTEX
  8
0
 10
111.201302
 20
302.249933
 42
0.008962
  0
VERTEX
  8
0
 10
98.130454
 20
299.815480
 42
0.005918
  0
VERTEX
  8
0
 10
87.517292
 20
297.510048
 42
0.117280
  0
VERTEX
  8
0
 10
84.553733
 20
296.044595
 42
-0.052910
  0
VERTEX
  8
0
 10
81.490375
 20
294.006778
 42
-0.004823
  0
VERTEX
  8
0
 10
73.316009
 20
289.837657
 42
-0.006865
  0
VERTEX
  8
0
 10
64.748893
 20
285.717666
 42
-0.014661
  0
VERTEX
  8
0
 10
58.000000
 20
282.822765
 42
0.019293
  0
VERTEX
  8
0
 10
54.456125
 20
281.263621
 42
0.023126
  0
VERTEX
  8
0
 10
51.256831
 20
279.518770
 42
0.024694
  0
VERTEX
  8
0
 10
48.428871
 20
277.605091
 42
0.030296
  0
VERTEX
  8
0
 10
46.000000
 20
275.538981
 42
-0.014891
  0
VERTEX
  8
0
 10
44.038828
 20
273.763787
 42
-0.012638
  0
VERTEX
  8
0
 10
41.867187
 20
272.005470
 42
-0.012824
  0
VERTEX
  8
0
 10
39.806918
 20
270.504273
 42
-0.034607
  0
VERTEX
  8
0
 10
38.250000
 20
269.581862
 42
0.022145
  0
VERTEX
  8
0
 10
37.005361
 20
268.885742
 42
0.030149
  0
VERTEX
  8
0
 10
35.954687
 20
268.144324
 42
0.030569
  0
VERTEX
  8
0
 10
35.192502
 20
267.454071
 42
0.195891
  0
VERTEX
  8
0
 10
35.000000
 20
266.981575
 42
-0.187775
  0
VERTEX
  8
0
 10
34.322826
 20
265.242001
 42
-0.003161
  0
VERTEX
  8
0
 10
27.183287
 20
257.559425
 42
-0.007387
  0
VERTEX
  8
0
 10
20.301753
 20
250.460852
 42
-0.047361
  0
VERTEX
  8
0
 10
16.450525
 20
247.272590
 42
0.033948
  0
VERTEX
  8
0
 10
15.097598
 20
246.212315
 42
0.040762
  0
VERTEX
  8
0
 10
13.987700
 20
245.036884
 42
0.045710
  0
VERTEX
  8
0
 10
13.234556
 20
243.897054
 42
0.123761
  0
VERTEX
  8
0
 10
13.000000
 20
242.963949
 42
-0.043308
  0
VERTEX
  8
0
 10
12.934757
 20
242.212106
 42
-0.063038
  0
VERTEX
  8
0
 10
12.738942
 20
241.576910
 42
-0.082680
  0
VERTEX
  8
0
 10
12.451024
 20
241.146828
 42
-0.206848
  0
VERTEX
  8
0
 10
12.111291
 20
241.000000
 42
0.379539
  0
VERTEX
  8
0
 10
10.974771
 20
239.992105
 42
0.014937
  0
VERTEX
  8
0
 10
10.432905
 20
233.984138
 42
0.012036
  0
VERTEX
  8
0
 10
10.073544
 20
224.007911
 42
0.001926
  0
VERTEX
  8
0
 10
9.915853
 20
204.500000
 42
-0.002617
  0
VERTEX
  8
0
 10
9.806304
 20
192.925044
 42
-0.004141
  0
VERTEX
  8
0
 10
9.578337
 20
183.006570
 42
-0.001094
  0
VERTEX
  8
0
 10
9.289624
 20
174.378615
 42
-0.162744
  0
VERTEX
  8
0
 10
8.945092
 20
173.458537
 42
0.186998
  0
VERTEX
  8
0
 10
8.291347
 20
171.426284
 42
0.004003
  0
VERTEX
  8
0
 10
9.000400
 20
160.779925
 42
0.006159
  0
VERTEX
  8
0
 10
9.895146
 20
150.500763
 42
0.098379
  0
VERTEX
  8
0
 10
10.907200
 20
147.173398
 42
-0.097578
  0
VERTEX
  8
0
 10
11.333997
 20
145.778160
 42
-0.005976
  0
VERTEX
  8
0
 10
11.728560
 20
141.423769
 42
-0.008710
  0
VERTEX
  8
0
 10
12.048245
 20
136.189059
 42
-0.006328
  0
VERTEX
  8
0
 10
12.228666
 20
130.355605
 42
-0.005733
  0
VERTEX
  8
0
 10
12.281929
 20
122.518824
 42
-0.016516
  0
VERTEX
  8
0
 10
12.077126
 20
117.088672
 42
-0.022465
  0
VERTEX
  8
0
 10
11.570984
 20
112.731652
 42
-0.023443
  0
VERTEX
  8
0
 10
10.680323
 20
108.500000
 42
-0.013890
  0
VERTEX
  8
0
 10
8.896340
 20
102.344782
 42
-0.019282
  0
VERTEX
  8
0
 10
6.935921
 20
96.948073
 42
-0.021607
  0
VERTEX
  8
0
 10
4.798054
 20
92.289097
 42
-0.030714
  0
VERTEX
  8
0
 10
2.476252
 20
88.369867
 42
0.030126
  0
VERTEX
  8
0
 10
1.528414
 20
86.774190
 42
0.026051
  0
VERTEX
  8
0
 10
0.727399
 20
84.998058
 42
0.026908
  0
VERTEX
  8
0
 10
0.171685
 20
83.308608
 42
0.066091
  0
VERTEX
  8
0
 10
0.000000
 20
82.015441
 42
0.143623
  0
VERTEX
  8
0
 10
0.924744
 20
78.862492
 42
0.134982
  0
VERTEX
  8
0
 10
3.423734
 20
76.617692
 42
0.151394
  0
VERTEX
  8
0
 10
6.495043
 20
76.112530
 42
0.187291
  0
VERTEX
  8
0
 10
9.009878
 20
77.511903
 42
0.049781
  0
VERTEX
  8
0
 10
12.154551
 20
82.175765
 42
0.018285
  0
VERTEX
  8
0
 10
15.665751
 20
89.312896
 42
0.018161
  0
VERTEX
  8
0
 10
18.899286
 20
97.308356
 42
0.023277
  0
VERTEX
  8
0
 10
21.255918
 20
104.887811
 42
0.017125
  0
VERTEX
  8
0
 10
22.440368
 20
110.168290
 42
0.026235
  0
VERTEX
  8
0
 10
23.066591
 20
114.815319
 42
0.018976
  0
VERTEX
  8
0
 10
23.313060
 20
120.471564
 42
0.004896
  0
VERTEX
  8
0
 10
23.274775
 20
129.606091
 42
0.006140
  0
VERTEX
  8
0
 10
23.082223
 20
136.936075
 42
0.010245
  0
VERTEX
  8
0
 10
22.718087
 20
143.097283
 42
0.011981
  0
VERTEX
  8
0
 10
22.202121
 20
148.065455
 42
0.031851
  0
VERTEX
  8
0
 10
21.524775
 20
151.566189
 42
-0.036035
  0
VERTEX
  8
0
 10
20.558231
 20
156.795587
 42
-0.017719
  0
VERTEX
  8
0
 10
20.048981
 20
163.546341
 42
-0.008657
  0
VERTEX
  8
0
 10
19.900156
 20
170.146548
 42
-0.418220
  0
VERTEX
  8
0
 10
20.750000
 20
170.993677
 42
-0.250179
  0
VERTEX
  8
0
 10
21.637020
 20
170.510565
 42
-0.015873
  0
VERTEX
  8
0
 10
23.238469
 20
167.898746
 42
-0.021144
  0
VERTEX
  8
0
 10
24.638110
 20
165.183900
 42
-0.108859
  0
VERTEX
  8
0
 10
25.000000
 20
163.541405
 42
0.084142
  0
VERTEX
  8
0
 10
25.098026
 20
162.963025
 42
0.043841
  0
VERTEX
  8
0
 10
25.399409
 20
162.294261
 42
0.041966
  0
VERTEX
  8
0
 10
25.839426
 20
161.644011
 42
0.049861
  0
VERTEX
  8
0
 10
26.359691
 20
161.116446
 42
-0.186628
  0
VERTEX
  8
0
 10
27.081220
 20
159.823674
 42
-0.012366
  0
VERTEX
  8
0
 10
27.580179
 20
155.516074
 42
-0.011552
  0
VERTEX
  8
0
 10
28.021438
 20
148.987331
 42
-0.002843
  0
VERTEX
  8
0
 10
28.437347
 20
138.244001
 42
0.003825
  0
VERTEX
  8
0
 10
28.779179
 20
129.841073
 42
0.005961
  0
VERTEX
  8
0
 10
29.215348
 20
122.608238
 42
0.002088
  0
VERTEX
  8
0
 10
29.689691
 20
116.405930
 42
0.174263
  0
VERTEX
  8
0
 10
30.077656
 20
115.550000
 42
-0.122319
  0
VERTEX
  8
0
 10
30.736879
 20
114.417627
 42
-0.067625
  0
VERTEX
  8
0
 10
30.975427
 20
112.825516
 42
-0.080207
  0
VERTEX
  8
0
 10
30.774830
 20
111.465045
 42
-0.327048
  0
VERTEX
  8
0
 10
30.139903
 20
111.000000
 42
0.322056
  0
VERTEX
  8
0
 10
29.774142
 20
110.737145
 42
0.018651
  0
VERTEX
  8
0
 10
29.360973
 20
109.338462
 42
0.022654
  0
VERTEX
  8
0
 10
28.981886
 20
107.511864
 42
0.014123
  0
VERTEX
  8
0
 10
28.696024
 20
105.343702
 42
-0.013664
  0
VERTEX
  8
0
 10
28.406724
 20
103.133829
 42
-0.018956
  0
VERTEX
  8
0
 10
28.018917
 20
101.174541
 42
-0.015726
  0
VERTEX
  8
0
 10
27.593415
 20
99.605178
 42
-0.174798
  0
VERTEX
  8
0
 10
27.210756
 20
99.093702
 42
0.145356
  0
VERTEX
  8
0
 10
26.823616
 20
98.633813
 42
0.022131
  0
VERTEX
  8
0
 10
26.388708
 20
97.501708
 42
0.023207
  0
VERTEX
  8
0
 10
25.985843
 20
96.079934
 42
0.018235
  0
VERTEX
  8
0
 10
25.678211
 20
94.507859
 42
-0.022079
  0
VERTEX
  8
0
 10
25.361746
 20
92.954097
 42
-0.029927
  0
VERTEX
  8
0
 10
24.931851
 20
91.588184
 42
-0.030282
  0
VERTEX
  8
0
 10
24.458668
 20
90.543498
 42
-0.193150
  0
VERTEX
  8
0
 10
24.023576
 20
90.174525
 42
0.158502
  0
VERTEX
  8
0
 10
23.630934
 20
89.884535
 42
0.060275
  0
VERTEX
  8
0
 10
23.300676
 20
89.279807
 42
0.051887
  0
VERTEX
  8
0
 10
23.075631
 20
88.484564
 42
0.043051
  0
VERTEX
  8
0
 10
23.000000
 20
87.607796
 42
-0.053276
  0
VERTEX
  8
0
 10
22.893858
 20
86.614472
 42
-0.031480
  0
VERTEX
  8
0
 10
22.568717
 20
85.465804
 42
-0.031206
  0
VERTEX
  8
0
 10
22.094132
 20
84.346965
 42
-0.046032
  0
VERTEX
  8
0
 10
21.531803
 20
83.441130
 42
0.028512
  0
VERTEX
  8
0
 10
20.967524
 20
82.599368
 42
0.026259
  0
VERTEX
  8
0
 10
20.485547
 20
81.675915
 42
0.027208
  0
VERTEX
  8
0
 10
20.144397
 20
80.807007
 42
0.074144
  0
VERTEX
  8
0
 10
20.031803
 20
80.157729
 42
-0.090608
  0
VERTEX
  8
0
 10
19.890215
 20
79.474744
 42
-0.024192
  0
VERTEX
  8
0
 10
19.421842
 20
78.462865
 42
-0.023700
  0
VERTEX
  8
0
 10
18.767852
 20
77.344822
 42
-0.022467
  0
VERTEX
  8
0
 10
18.000000
 20
76.272871
 42
0.039007
  0
VERTEX
  8
0
 10
17.234398
 20
75.125808
 42
0.030908
  0
VERTEX
  8
0
 10
16.587500
 20
73.782408
 42
0.031815
  0
VERTEX
  8
0
 10
16.142156
 20
72.453525
 42
0.065030
  0
VERTEX
  8
0
 10
16.000000
 20
71.365141
 42
-0.040374
  0
VERTEX
  8
0
 10
15.926756
 20
70.459550
 42
-0.059722
  0
VERTEX
  8
0
 10
15.706250
 20
69.694760
 42
-0.078543
  0
VERTEX
  8
0
 10
15.382616
 20
69.174840
 42
-0.217656
  0
VERTEX
  8
0
 10
15.000000
 20
69.000000
 42
0.316043
  0
VERTEX
  8
0
 10
14.609960
 20
68.726103
 42
0.033986
  0
VERTEX
  8
0
 10
14.289420
 20
67.604687
 42
0.032024
  0
VERTEX
  8
0
 10
14.063155
 20
66.070647
 42
0.019830
  0
VERTEX
  8
0
 10
13.985258
 20
64.250000
 42
-0.026367
  0
VERTEX
  8
0
 10
13.873381
 20
62.248030
 42
-0.022573
  0
VERTEX
  8
0
 10
13.550073
 20
60.160938
 42
-0.023191
  0
VERTEX
  8
0
 10
13.081677
 20
58.289101
 42
-0.058272
  0
VERTEX
  8
0
 10
12.524480
 20
57.000000
 42
0.006623
  0
VERTEX
  8
0
 10
11.925962
 20
55.932879
 42
0.005669
  0
VERTEX
  8
0
 10
11.323377
 20
54.793750
 42
0.005718
  0
VERTEX
  8
0
 10
10.799316
 20
53.746016
 42
0.016214
  0
VERTEX
  8
0
 10
10.466223
 20
53.000000
 42
-0.009386
  0
VERTEX
  8
0
 10
10.165687
 20
52.301431
 42
-0.004719
  0
VERTEX
  8
0
 10
9.761537
 20
51.430548
 42
-0.004684
  0
VERTEX
  8
0
 10
9.326612
 20
50.537721
 42
-0.006924
  0
VERTEX
  8
0
 10
8.927002
 20
49.763569
 42
0.049981
  0
VERTEX
  8
0
 10
8.204266
 20
48.007741
 42
0.098158
  0
VERTEX
  8
0
 10
8.061664
 20
46.509837
 42
0.134706
  0
VERTEX
  8
0
 10
8.498448
 20
45.378929
 42
0.142965
  0
VERTEX
  8
0
 10
9.443034
 20
44.660233
 42
-0.169428
  0
VERTEX
  8
0
 10
10.074097
 20
44.126453
 42
-0.054270
  0
VERTEX
  8
0
 10
10.587357
 20
42.991227
 42
-0.041526
  0
VERTEX
  8
0
 10
10.971282
 20
41.374698
 42
-0.021566
  0
VERTEX
  8
0
 10
11.193034
 20
39.311148
 42
0.019078
  0
VERTEX
  8
0
 10
11.464853
 20
36.657534
 42
0.081132
  0
VERTEX
  8
0
 10
11.937839
 20
35.140004
 42
0.111996
  0
VERTEX
  8
0
 10
12.784986
 20
34.107516
 42
0.053885
  0
VERTEX
  8
0
 10
14.250000
 20
33.203337
 42
-0.026093
  0
VERTEX
  8
0
 10
15.302960
 20
32.631561
 42
-0.034465
  0
VERTEX
  8
0
 10
16.192187
 20
31.998685
 42
-0.036845
  0
VERTEX
  8
0
 10
16.827069
 20
31.393925
 42
-0.186114
  0
VERTEX
  8
0
 10
17.000000
 20
30.945434
 42
0.149218
  0
VERTEX
  8
0
 10
17.110051
 20
30.584885
 42
0.098736
  0
VERTEX
  8
0
 10
17.419643
 20
30.277721
 42
0.082072
  0
VERTEX
  8
0
 10
17.882406
 20
30.070592
 42
0.064357
  0
VERTEX
  8
0
 10
18.428571
 20
30.000000
 42
-0.074305
  0
VERTEX
  8
0
 10
19.072640
 20
29.903754
 42
-0.038564
  0
VERTEX
  8
0
 10
19.831284
 20
29.606216
 42
-0.037281
  0
VERTEX
  8
0
 10
20.579400
 20
29.172514
 42
-0.046406
  0
VERTEX
  8
0
 10
21.197684
 20
28.659459
 42
0.101544
  0
VERTEX
  8
0
 10
22.053228
 20
28.095253
 42
0.021472
  0
VERTEX
  8
0
 10
23.748937
 20
27.499858
 42
0.021653
  0
VERTEX
  8
0
 10
25.810947
 20
26.970189
 42
0.019065
  0
VERTEX
  8
0
 10
28.000339
 20
26.594343
 42
-0.013724
  0
VERTEX
  8
0
 10
30.132817
 20
26.251667
 42
-0.019022
  0
VERTEX
  8
0
 10
32.020232
 20
25.820046
 42
-0.015819
  0
VERTEX
  8
0
 10
33.528542
 20
25.362557
 42
-0.174513
  0
VERTEX
  8
0
 10
34.014878
 20
24.975927
 42
0.223251
  0
VERTEX
  8
0
 10
34.576564
 20
24.609593
 42
0.006967
  0
VERTEX
  8
0
 10
37.372390
 20
24.259157
 42
0.012377
  0
VERTEX
  8
0
 10
40.757641
 20
23.967284
 42
0.008113
  0
VERTEX
  8
0
 10
44.668960
 20
23.791043
 42
0.018140
  0
VERTEX
  8
0
 10
52.836731
 20
23.852085
 42
0.128641
  0
VERTEX
  8
0
 10
56.591356
 20
25.011993
 42
0.201163
  0
VERTEX
  8
0
 10
58.435566
 20
27.604744
 42
0.055366
  0
VERTEX
  8
0
 10
59.000000
 20
32.686372
 42
0.015843
  0
VERTEX
  8
0
 10
58.921006
 20
35.178744
 42
0.043711
  0
VERTEX
  8
0
 10
58.657417
 20
36.914177
 42
0.067533
  0
VERTEX
  8
0
 10
58.213430
 20
38.048893
 42
0.175923
  0
VERTEX
  8
0
 10
57.561107
 20
38.614925
 42
-0.121328
  0
VERTEX
  8
0
 10
56.963452
 20
39.030756
 42
-0.045377
  0
VERTEX
  8
0
 10
56.356723
 20
39.861594
 42
-0.041610
  0
VERTEX
  8
0
 10
55.833084
 20
40.926825
 42
-0.039397
  0
VERTEX
  8
0
 10
55.481652
 20
42.083540
 42
0.028319
  0
VERTEX
  8
0
 10
55.169120
 20
43.200508
 42
0.040527
  0
VERTEX
  8
0
 10
54.758845
 20
44.143290
 42
0.046596
  0
VERTEX
  8
0
 10
54.317774
 20
44.809809
 42
0.227055
  0
VERTEX
  8
0
 10
53.920545
 20
45.000000
 42
-0.319980
  0
VERTEX
  8
0
 10
53.561962
 20
45.255655
 42
-0.032580
  0
VERTEX
  8
0
 10
53.270410
 20
46.321875
 42
-0.031193
  0
VERTEX
  8
0
 10
53.066482
 20
47.775129
 42
-0.019264
  0
VERTEX
  8
0
 10
53.000000
 20
49.500000
 42
-0.020945
  0
VERTEX
  8
0
 10
53.072283
 20
51.224757
 42
-0.033738
  0
VERTEX
  8
0
 10
53.293750
 20
52.678125
 42
-0.036969
  0
VERTEX
  8
0
 10
53.611488
 20
53.732972
 42
-0.310520
  0
VERTEX
  8
0
 10
54.000000
 20
54.000000
 42
0.196041
  0
VERTEX
  8
0
 10
54.381994
 20
54.155759
 42
0.086540
  0
VERTEX
  8
0
 10
54.706250
 20
54.606323
 42
0.066438
  0
VERTEX
  8
0
 10
54.926399
 20
55.274059
 42
0.046481
  0
VERTEX
  8
0
 10
55.000000
 20
56.064077
 42
-0.066543
  0
VERTEX
  8
0
 10
55.151279
 20
57.195747
 42
-0.013698
  0
VERTEX
  8
0
 10
55.734375
 20
59.127339
 42
-0.014183
  0
VERTEX
  8
0
 10
56.542970
 20
61.349848
 42
-0.012926
  0
VERTEX
  8
0
 10
57.500000
 20
63.593712
 42
0.003414
  0
VERTEX
  8
0
 10
58.457978
 20
65.726448
 42
0.005063
  0
VERTEX
  8
0
 10
59.265625
 20
67.609275
 42
0.002377
  0
VERTEX
  8
0
 10
59.927735
 20
69.218493
 42
0.096696
  0
VERTEX
  8
0
 10
60.000000
 20
69.588672
 42
-0.152938
  0
VERTEX
  8
0
 10
60.114920
 20
69.955592
 42
-0.001537
  0
VERTEX
  8
0
 10
61.699220
 20
72.221782
 42
-0.004825
  0
VERTEX
  8
0
 10
63.567369
 20
74.822873
 42
-0.003090
  0
VERTEX
  8
0
 10
65.784578
 20
77.809036
 42
0.002467
  0
VERTEX
  8
0
 10
68.126674
 20
80.955198
 42
0.002655
  0
VERTEX
  8
0
 10
70.380613
 20
84.048592
 42
0.002508
  0
VERTEX
  8
0
 10
72.287933
 20
86.723887
 42
0.012650
  0
VERTEX
  8
0
 10
73.307631
 20
88.250000
 42
-0.035422
  0
VERTEX
  8
0
 10
74.743047
 20
90.199987
 42
-0.167806
  0
VERTEX
  8
0
 10
75.920358
 20
90.894404
 42
-0.358694
  0
VERTEX
  8
0
 10
76.705467
 20
90.477246
 42
-0.098718
  0
VERTEX
  8
0
 10
77.000000
 20
89.000000
 42
0.048028
  0
VERTEX
  8
0
 10
77.073693
 20
88.234582
 42
0.068025
  0
VERTEX
  8
0
 10
77.293750
 20
87.587500
 42
0.088204
  0
VERTEX
  8
0
 10
77.618118
 20
87.151477
 42
0.191087
  0
VERTEX
  8
0
 10
78.000000
 20
87.000000
 42
-0.171832
  0
VERTEX
  8
0
 10
78.381550
 20
86.864886
 42
-0.093923
  0
VERTEX
  8
0
 10
78.706250
 20
86.481587
 42
-0.074361
  0
VERTEX
  8
0
 10
78.925906
 20
85.910313
 42
-0.054711
  0
VERTEX
  8
0
 10
79.000000
 20
85.235191
 42
0.069184
  0
VERTEX
  8
0
 10
79.128089
 20
84.313912
 42
0.018173
  0
VERTEX
  8
0
 10
79.587500
 20
82.892647
 42
0.018099
  0
VERTEX
  8
0
 10
80.234448
 20
81.296932
 42
0.017661
  0
VERTEX
  8
0
 10
81.000000
 20
79.738815
 42
-0.018422
  0
VERTEX
  8
0
 10
81.765544
 20
78.174701
 42
-0.018514
  0
VERTEX
  8
0
 10
82.412500
 20
76.561034
 42
-0.018688
  0
VERTEX
  8
0
 10
82.870533
 20
75.115765
 42
-0.067485
  0
VERTEX
  8
0
 10
83.000000
 20
74.160908
 42
0.077440
  0
VERTEX
  8
0
 10
83.153988
 20
73.172627
 42
0.017347
  0
VERTEX
  8
0
 10
83.730576
 20
71.562290
 42
0.017597
  0
VERTEX
  8
0
 10
84.535029
 20
69.730040
 42
0.016216
  0
VERTEX
  8
0
 10
85.487066
 20
67.907284
 42
-0.004052
  0
VERTEX
  8
0
 10
86.482197
 20
66.109949
 42
-0.004468
  0
VERTEX
  8
0
 10
87.415673
 20
64.354015
 42
-0.004166
  0
VERTEX
  8
0
 10
88.186862
 20
62.840880
 42
-0.022659
  0
VERTEX
  8
0
 10
88.560064
 20
62.000000
 42
0.010122
  0
VERTEX
  8
0
 10
88.847144
 20
61.306809
 42
0.005279
  0
VERTEX
  8
0
 10
89.231434
 20
60.454169
 42
0.005247
  0
VERTEX
  8
0
 10
89.644352
 20
59.587203
 42
0.007987
  0
VERTEX
  8
0
 10
90.022781
 20
58.843979
 42
-0.070699
  0
VERTEX
  8
0
 10
90.402306
 20
57.790448
 42
-0.009253
  0
VERTEX
  8
0
 10
90.844154
 20
55.443682
 42
-0.010609
  0
VERTEX
  8
0
 10
91.260022
 20
52.622964
 42
-0.008698
  0
VERTEX
  8
0
 10
91.587715
 20
49.593979
 42
0.010560
  0
VERTEX
  8
0
 10
91.913650
 20
46.682678
 42
0.017192
  0
VERTEX
  8
0
 10
92.326952
 20
44.230731
 42
0.011256
  0
VERTEX
  8
0
 10
92.769480
 20
42.287259
 42
0.343755
  0
VERTEX
  8
0
 10
93.137932
 20
42.000000
 42
-0.267069
  0
VERTEX
  8
0
 10
93.469809
 20
41.809117
 42
-0.057212
  0
VERTEX
  8
0
 10
93.746767
 20
41.176374
 42
-0.045489
  0
VERTEX
  8
0
 10
93.937378
 20
40.270412
 42
-0.029122
  0
VERTEX
  8
0
 10
94.000000
 20
39.196167
 42
0.135729
  0
VERTEX
  8
0
 10
94.829333
 20
36.197330
 42
0.068713
  0
VERTEX
  8
0
 10
97.302729
 20
33.118772
 42
0.067954
  0
VERTEX
  8
0
 10
100.562704
 20
30.786223
 42
0.121940
  0
VERTEX
  8
0
 10
103.738590
 20
30.000000
 42
0.027749
  0
VERTEX
  8
0
 10
104.984668
 20
30.069209
 42
0.034197
  0
VERTEX
  8
0
 10
106.129657
 20
30.276778
 42
0.036519
  0
VERTEX
  8
0
 10
107.036749
 20
30.578093
 42
0.157151
  0
VERTEX
  8
0
 10
107.464291
 20
30.942222
 42
-0.164093
  0
VERTEX
  8
0
 10
107.948680
 20
31.343584
 42
-0.020362
  0
VERTEX
  8
0
 10
109.264024
 20
31.788147
 42
-0.022272
  0
VERTEX
  8
0
 10
110.920591
 20
32.194721
 42
-0.016721
  0
VERTEX
  8
0
 10
112.773308
 20
32.498846
 42
0.019637
  0
VERTEX
  8
0
 10
114.777551
 20
32.839855
 42
0.016024
  0
VERTEX
  8
0
 10
116.891233
 20
33.356759
 42
0.016321
  0
VERTEX
  8
0
 10
118.807656
 20
33.959101
 42
0.040246
  0
VERTEX
  8
0
 10
120.154292
 20
34.556624
 42
-0.028378
  0
VERTEX
  8
0
 10
121.324136
 20
35.109255
 42
-0.022399
  0
VERTEX
  8
0
 10
122.644500
 20
35.576008
 42
-0.022910
  0
VERTEX
  8
0
 10
123.913194
 20
35.898866
 42
-0.050889
  0
VERTEX
  8
0
 10
124.904292
 20
36.000000
 42
0.039657
  0
VERTEX
  8
0
 10
125.706754
 20
36.063747
 42
0.058887
  0
VERTEX
  8
0
 10
126.384386
 20
36.255807
 42
0.077446
  0
VERTEX
  8
0
 10
126.845575
 20
36.537555
 42
0.220420
  0
VERTEX
  8
0
 10
127.000000
 20
36.870834
 42
-0.322990
  0
VERTEX
  8
0
 10
127.269668
 20
37.244740
 42
-0.017100
  0
VERTEX
  8
0
 10
128.762500
 20
37.685264
 42
-0.021580
  0
VERTEX
  8
0
 10
130.700063
 20
38.097429
 42
-0.013448
  0
VERTEX
  8
0
 10
133.000000
 20
38.420490
 42
0.012743
  0
VERTEX
  8
0
 10
135.299996
 20
38.740254
 42
0.020504
  0
VERTEX
  8
0
 10
137.237500
 20
39.142353
 42
0.015591
  0
VERTEX
  8
0
 10
138.740104
 20
39.569251
 42
0.326626
  0
VERTEX
  8
0
 10
139.000000
 20
39.924656
 42
-0.234697
  0
VERTEX
  8
0
 10
139.176729
 20
40.280421
 42
-0.044680
  0
VERTEX
  8
0
 10
139.807813
 20
40.675548
 42
-0.039234
  0
VERTEX
  8
0
 10
140.696691
 20
41.042659
 42
-0.027057
  0
VERTEX
  8
0
 10
141.750000
 20
41.321890
 42
0.128850
  0
VERTEX
  8
0
 10
144.062519
 20
42.471447
 42
0.073454
  0
VERTEX
  8
0
 10
146.101737
 20
44.860618
 42
0.067477
  0
VERTEX
  8
0
 10
147.516237
 20
47.984832
 42
0.072726
  0
VERTEX
  8
0
 10
148.000000
 20
51.293188
 42
0.139813
  0
VERTEX
  8
0
 10
147.023881
 20
54.715759
 42
0.051538
  0
VERTEX
  8
0
 10
143.922205
 20
58.723513
 42
0.051514
  0
VERTEX
  8
0
 10
140.098423
 20
61.985249
 42
0.151980
  0
VERTEX
  8
0
 10
136.837105
 20
63.000000
 42
-0.049644
  0
VERTEX
  8
0
 10
135.346753
 20
63.148340
 42
-0.151722
  0
VERTEX
  8
0
 10
134.464982
 20
63.629552
 42
-0.120573
  0
VERTEX
  8
0
 10
133.894321
 20
64.603288
 42
-0.026173
  0
VERTEX
  8
0
 10
133.431950
 20
66.511045
 42
0.019251
  0
VERTEX
  8
0
 10
133.116920
 20
67.894198
 42
0.024137
  0
VERTEX
  8
0
 10
132.714827
 20
69.146424
 42
0.023437
  0
VERTEX
  8
0
 10
132.287665
 20
70.140549
 42
0.142076
  0
VERTEX
  8
0
 10
131.915628
 20
70.552145
 42
-0.171605
  0
VERTEX
  8
0
 10
131.546053
 20
71.011676
 42
-0.017012
  0
VERTEX
  8
0
 10
131.116680
 20
72.383173
 42
-0.019882
  0
VERTEX
  8
0
 10
130.714657
 20
74.103077
 42
-0.014496
  0
VERTEX
  8
0
 10
130.400160
 20
76.041100
 42
0.015065
  0
VERTEX
  8
0
 10
130.089503
 20
77.941794
 42
0.023910
  0
VERTEX
  8
0
 10
129.697667
 20
79.543323
 42
0.020511
  0
VERTEX
  8
0
 10
129.282499
 20
80.760255
 42
0.309611
  0
VERTEX
  8
0
 10
128.932442
 20
81.000000
 42
-0.297783
  0
VERTEX
  8
0
 10
128.580609
 20
81.229929
 42
-0.023609
  0
VERTEX
  8
0
 10
128.162225
 20
82.321875
 42
-0.025943
  0
VERTEX
  8
0
 10
127.764944
 20
83.775344
 42
-0.016525
  0
VERTEX
  8
0
 10
127.447729
 20
85.500000
 42
0.016465
  0
VERTEX
  8
0
 10
127.130725
 20
87.224660
 42
0.025857
  0
VERTEX
  8
0
 10
126.734083
 20
88.678125
 42
0.023476
  0
VERTEX
  8
0
 10
126.316573
 20
89.770559
 42
0.298086
  0
VERTEX
  8
0
 10
125.965911
 20
90.000000
 42
-0.245104
  0
VERTEX
  8
0
 10
125.612589
 20
90.184271
 42
-0.038724
  0
VERTEX
  8
0
 10
125.202412
 20
90.881250
 42
-0.035489
  0
VERTEX
  8
0
 10
124.811153
 20
91.850778
 42
-0.024109
  0
VERTEX
  8
0
 10
124.500000
 20
93.000000
 42
0.027524
  0
VERTEX
  8
0
 10
124.180468
 20
94.149012
 42
0.039605
  0
VERTEX
  8
0
 10
123.764234
 20
95.118750
 42
0.045180
  0
VERTEX
  8
0
 10
123.318790
 20
95.806252
 42
0.230346
  0
VERTEX
  8
0
 10
122.920545
 20
96.000000
 42
-0.377068
  0
VERTEX
  8
0
 10
122.190866
 20
96.641483
 42
-0.032773
  0
VERTEX
  8
0
 10
122.022322
 20
99.315598
 42
-0.035001
  0
VERTEX
  8
0
 10
122.225625
 20
102.112878
 42
-0.160760
  0
VERTEX
  8
0
 10
122.940005
 20
103.550000
 42
0.125100
  0
VERTEX
  8
0
 10
123.323793
 20
104.203220
 42
0.018808
  0
VERTEX
  8
0
 10
123.694944
 20
105.689688
 42
0.020128
  0
VERTEX
  8
0
 10
124.002463
 20
107.515961
 42
0.016164
  0
VERTEX
  8
0
 10
124.190005
 20
109.500000
 42
0.000000
  0
VERTEX
  8
0
 10
124.500000
 20
114.500000
 42
0.000000
  0
VERTEX
  8
0
 10
150.219784
 20
114.383836
 42
-0.002754
  0
VERTEX
  8
0
 10
162.387621
 20
114.261847
 42
-0.008193
  0
VERTEX
  8
0
 10
170.722096
 20
113.995726
 42
-0.009355
  0
VERTEX
  8
0
 10
176.558638
 20
113.604007
 42
-0.072086
  0
VERTEX
  8
0
 10
179.219784
 20
112.981908
 42
-0.053773
  0
VERTEX
  8
0
 10
180.856265
 20
112.127833
 42
-0.015008
  0
VERTEX
  8
0
 10
183.213651
 20
110.450324
 42
-0.014960
  0
VERTEX
  8
0
 10
185.782980
 20
108.379400
 42
-0.015204
  0
VERTEX
  8
0
 10
188.209665
 20
106.169289
 42
-0.043820
  0
VERTEX
  8
0
 10
192.173398
 20
101.595673
 42
-0.038485
  0
VERTEX
  8
0
 10
195.475267
 20
96.204946
 42
-0.032957
  0
VERTEX
  8
0
 10
198.315432
 20
89.611646
 42
-0.019070
  0
VERTEX
  8
0
 10
200.889866
 20
81.368627
 42
0.023444
  0
VERTEX
  8
0
 10
201.428349
 20
79.696014
 42
0.023655
  0
VERTEX
  8
0
 10
202.119669
 20
78.086280
 42
0.024276
  0
VERTEX
  8
0
 10
202.853852
 20
76.747107
 42
0.082195
  0
VERTEX
  8
0
 10
203.504600
 20
75.996182
 42
-0.043965
  0
VERTEX
  8
0
 10
204.076774
 20
75.429476
 42
-0.040118
  0
VERTEX
  8
0
 10
204.560726
 20
74.754633
 42
-0.042502
  0
VERTEX
  8
0
 10
204.893642
 20
74.077566
 42
-0.093278
  0
VERTEX
  8
0
 10
205.000000
 20
73.512414
 42
0.095074
  0
VERTEX
  8
0
 10
205.121882
 20
72.877222
 42
0.024822
  0
VERTEX
  8
0
 10
205.555671
 20
71.928338
 42
0.024305
  0
VERTEX
  8
0
 10
206.167604
 20
70.876778
 42
0.022726
  0
VERTEX
  8
0
 10
206.891647
 20
69.864878
 42
-0.074122
  0
VERTEX
  8
0
 10
207.849763
 20
68.185829
 42
-0.050650
  0
VERTEX
  8
0
 10
208.435176
 20
66.065275
 42
-0.030860
  0
VERTEX
  8
0
 10
208.763680
 20
62.990753
 42
-0.007870
  0
VERTEX
  8
0
 10
208.909054
 20
57.980019
 42
0.007761
  0
VERTEX
  8
0
 10
209.014251
 20
54.326682
 42
0.012329
  0
VERTEX
  8
0
 10
209.229834
 20
51.205730
 42
0.006246
  0
VERTEX
  8
0
 10
209.504605
 20
48.626104
 42
0.288594
  0
VERTEX
  8
0
 10
209.824473
 20
48.230978
 42
-0.302502
  0
VERTEX
  8
0
 10
210.126402
 20
47.837861
 42
-0.007129
  0
VERTEX
  8
0
 10
210.256037
 20
45.402777
 42
-0.013327
  0
VERTEX
  8
0
 10
210.292368
 20
42.443007
 42
-0.008349
  0
VERTEX
  8
0
 10
210.184741
 20
38.980835
 42
0.009058
  0
VERTEX
  8
0
 10
210.064889
 20
34.940887
 42
0.020696
  0
VERTEX
  8
0
 10
210.155841
 20
31.894293
 42
0.024555
  0
VERTEX
  8
0
 10
210.423292
 20
29.682410
 42
0.131575
  0
VERTEX
  8
0
 10
210.926232
 20
28.588885
 42
-0.043285
  0
VERTEX
  8
0
 10
211.391276
 20
27.918107
 42
-0.115598
  0
VERTEX
  8
0
 10
211.556368
 20
27.363902
 42
-0.160711
  0
VERTEX
  8
0
 10
211.435226
 20
26.907329
 42
-0.110236
  0
VERTEX
  8
0
 10
211.048558
 20
26.530011
 42
0.196930
  0
VERTEX
  8
0
 10
210.189243
 20
25.347310
 42
0.087487
  0
VERTEX
  8
0
 10
210.061886
 20
23.388437
 42
0.078391
  0
VERTEX
  8
0
 10
210.635752
 20
21.282733
 42
0.103543
  0
VERTEX
  8
0
 10
211.802514
 20
19.678722
 42
0.117902
  0
VERTEX
  8
0
 10
213.346602
 20
18.833492
 42
0.030481
  0
VERTEX
  8
0
 10
216.144189
 20
18.251290
 42
0.019427
  0
VERTEX
  8
0
 10
220.470439
 20
17.793666
 42
0.004878
  0
VERTEX
  8
0
 10
227.552514
 20
17.391108
 42
0.012918
  0
VERTEX
  8
0
 10
238.784381
 20
17.153070
 42
0.039677
  0
VERTEX
  8
0
 10
246.359476
 20
17.790546
 42
0.060670
  0
VERTEX
  8
0
 10
251.671749
 20
19.343791
 42
0.100629
  0
VERTEX
  8
0
 10
255.494328
 20
21.994080
 42
0.030587
  0
VERTEX
  8
0
 10
257.059252
 20
23.841397
 42
0.097312
  0
VERTEX
  8
0
 10
257.756372
 20
25.293214
 42
0.077742
  0
VERTEX
  8
0
 10
257.932631
 20
27.077320
 42
0.015075
  0
VERTEX
  8
0
 10
257.650897
 20
30.313232
 42
0.016647
  0
VERTEX
  8
0
 10
257.297541
 20
32.646750
 42
0.012462
  0
VERTEX
  8
0
 10
256.759320
 20
35.190647
 42
0.012632
  0
VERTEX
  8
0
 10
256.131587
 20
37.562912
 42
0.027965
  0
VERTEX
  8
0
 10
255.507816
 20
39.327050
 42
-0.082195
  0
VERTEX
  8
0
 10
254.271367
 20
44.566269
 42
-0.016205
  0
VERTEX
  8
0
 10
253.929036
 20
54.251745
 42
-0.012967
  0
VERTEX
  8
0
 10
254.152794
 20
63.974637
 42
-0.147151
  0
VERTEX
  8
0
 10
255.425296
 20
67.558870
 42
-0.021593
  0
VERTEX
  8
0
 10
256.341129
 20
68.699469
 42
-0.320494
  0
VERTEX
  8
0
 10
256.812754
 20
68.810286
 42
-0.196731
  0
VERTEX
  8
0
 10
257.235855
 20
68.393385
 42
-0.009249
  0
VERTEX
  8
0
 10
258.004817
 20
66.500000
 42
-0.034196
  0
VERTEX
  8
0
 10
258.941165
 20
63.461407
 42
-0.008009
  0
VERTEX
  8
0
 10
260.075763
 20
58.254147
 42
-0.005936
  0
VERTEX
  8
0
 10
261.494338
 20
50.742153
 42
-0.001890
  0
VERTEX
  8
0
 10
263.431375
 20
39.524429
 42
0.039325
  0
VERTEX
  8
0
 10
265.665617
 20
30.619260
 42
0.115547
  0
VERTEX
  8
0
 10
268.971859
 20
25.280708
 42
0.134930
  0
VERTEX
  8
0
 10
273.961949
 20
22.436927
 42
0.062517
  0
VERTEX
  8
0
 10
281.426087
 20
21.500000
 42
0.016310
  0
VERTEX
  8
0
 10
284.423016
 20
21.597784
 42
0.016196
  0
VERTEX
  8
0
 10
287.414224
 20
21.890723
 42
0.016272
  0
VERTEX
  8
0
 10
290.008502
 20
22.316184
 42
0.058775
  0
VERTEX
  8
0
 10
291.599160
 20
22.830121
 42
0.012932
  0
VERTEX
  8
0
 10
300.759186
 20
27.320482
 42
0.033776
  0
VERTEX
  8
0
 10
307.010502
 20
31.146121
 42
0.047569
  0
VERTEX
  8
0
 10
310.867016
 20
34.472790
 42
0.193347
  0
VERTEX
  8
0
 10
312.000000
 20
37.293187
 42
0.139522
  0
VERTEX
  8
0
 10
311.351264
 20
39.572777
 42
0.028004
  0
VERTEX
  8
0
 10
308.906452
 20
43.067023
 42
0.025551
  0
VERTEX
  8
0
 10
306.125216
 20
46.253568
 42
0.203262
  0
VERTEX
  8
0
 10
304.364944
 20
47.000000
 42
-0.257839
  0
VERTEX
  8
0
 10
302.952855
 20
47.780041
 42
-0.037659
  0
VERTEX
  8
0
 10
301.366281
 20
50.782386
 42
-0.029973
  0
VERTEX
  8
0
 10
299.694707
 20
55.348453
 42
-0.012497
  0
VERTEX
  8
0
 10
297.969623
 20
61.679755
 42
0.004836
  0
VERTEX
  8
0
 10
297.245440
 20
64.507745
 42
0.006418
  0
VERTEX
  8
0
 10
296.528918
 20
67.064908
 42
0.004688
  0
VERTEX
  8
0
 10
295.882867
 20
69.187908
 42
0.062278
  0
VERTEX
  8
0
 10
295.543272
 20
69.929984
 42
-0.079722
  0
VERTEX
  8
0
 10
295.202635
 20
70.748259
 42
-0.002500
  0
VERTEX
  8
0
 10
294.373329
 20
74.284377
 42
-0.004815
  0
VERTEX
  8
0
 10
293.454119
 20
78.478969
 42
-0.003312
  0
VERTEX
  8
0
 10
292.489529
 20
83.250230
 42
0.003762
  0
VERTEX
  8
0
 10
291.455064
 20
88.343493
 42
0.003556
  0
VERTEX
  8
0
 10
290.325156
 20
93.517255
 42
0.003534
  0
VERTEX
  8
0
 10
289.259854
 20
98.083570
 42
0.012409
  0
VERTEX
  8
0
 10
288.480643
 20
101.000000
 42
-0.009139
  0
VERTEX
  8
0
 10
287.699755
 20
103.847895
 42
-0.002910
  0
VERTEX
  8
0
 10
286.639421
 20
108.115625
 42
-0.002903
  0
VERTEX
  8
0
 10
285.513102
 20
112.885228
 42
-0.003232
  0
VERTEX
  8
0
 10
284.482960
 20
117.500000
 42
0.000729
  0
VERTEX
  8
0
 10
282.083533
 20
128.507718
 42
0.010625
  0
VERTEX
  8
0
 10
281.147826
 20
132.376118
 42
0.031367
  0
VERTEX
  8
0
 10
280.450714
 20
134.470676
 42
0.072212
  0
VERTEX
  8
0
 10
279.615805
 20
135.901610
 42
-0.146157
  0
VERTEX
  8
0
 10
279.100043
 20
137.185105
 42
-0.005195
  0
VERTEX
  8
0
 10
278.662304
 20
142.547930
 42
-0.008174
  0
VERTEX
  8
0
 10
278.281441
 20
149.502941
 42
-0.003723
  0
VERTEX
  8
0
 10
278.000000
 20
158.604044
 42
0.003187
  0
VERTEX
  8
0
 10
277.701794
 20
168.593890
 42
0.010310
  0
VERTEX
  8
0
 10
277.324786
 20
175.220062
 42
0.009149
  0
VERTEX
  8
0
 10
276.880242
 20
179.848441
 42
0.169681
  0
VERTEX
  8
0
 10
276.250000
 20
181.152434
 42
-0.102697
  0
VERTEX
  8
0
 10
275.212986
 20
182.729412
 42
-0.148553
  0
VERTEX
  8
0
 10
275.077165
 20
184.380594
 42
-0.158762
  0
VERTEX
  8
0
 10
275.876343
 20
185.751564
 42
-0.121143
  0
VERTEX
  8
0
 10
277.420905
 20
186.569504
 42
-0.044733
  0
VERTEX
  8
0
 10
280.234983
 20
187.013536
 42
-0.137624
  0
VERTEX
  8
0
 10
282.104412
 20
186.622042
 42
-0.171301
  0
VERTEX
  8
0
 10
283.254755
 20
185.390995
 42
-0.079127
  0
VERTEX
  8
0
 10
283.813358
 20
183.241811
 42
0.024691
  0
VERTEX
  8
0
 10
283.995664
 20
181.999728
 42
0.037868
  0
VERTEX
  8
0
 10
284.286462
 20
180.952282
 42
0.043267
  0
VERTEX
  8
0
 10
284.632391
 20
180.203907
 42
0.269057
  0
VERTEX
  8
0
 10
284.983889
 20
180.000000
 42
-0.383129
  0
VERTEX
  8
0
 10
285.337058
 20
179.682824
 42
-0.004130
  0
VERTEX
  8
0
 10
285.686049
 20
176.169968
 42
-0.010216
  0
VERTEX
  8
0
 10
285.982562
 20
171.960899
 42
-0.006159
  0
VERTEX
  8
0
 10
286.170531
 20
166.961593
 42
0.007031
  0
VERTEX
  8
0
 10
286.369166
 20
161.913195
 42
0.010751
  0
VERTEX
  8
0
 10
286.696968
 20
157.544187
 42
0.005545
  0
VERTEX
  8
0
 10
287.089833
 20
153.902969
 42
0.211514
  0
VERTEX
  8
0
 10
287.500000
 20
153.211593
 42
-0.073956
  0
VERTEX
  8
0
 10
288.670550
 20
152.085353
 42
-0.009933
  0
VERTEX
  8
0
 10
290.709273
 20
149.330943
 42
-0.006822
  0
VERTEX
  8
0
 10
292.703757
 20
146.438438
 42
-0.148585
  0
VERTEX
  8
0
 10
293.000000
 20
145.463569
 42
0.194446
  0
VERTEX
  8
0
 10
293.415304
 20
144.436028
 42
0.010053
  0
VERTEX
  8
0
 10
296.000658
 20
141.865648
 42
0.010397
  0
VERTEX
  8
0
 10
298.682352
 20
139.409171
 42
0.182176
  0
VERTEX
  8
0
 10
299.768089
 20
139.000000
 42
-0.130599
  0
VERTEX
  8
0
 10
300.238153
 20
138.875090
 42
-0.028128
  0
VERTEX
  8
0
 10
300.950887
 20
138.412500
 42
-0.027559
  0
VERTEX
  8
0
 10
301.739411
 20
137.765612
 42
-0.023276
  0
VERTEX
  8
0
 10
302.500000
 20
137.000000
 42
0.032991
  0
VERTEX
  8
0
 10
303.290449
 20
136.234638
 42
0.033910
  0
VERTEX
  8
0
 10
304.167796
 20
135.587500
 42
0.036019
  0
VERTEX
  8
0
 10
305.002146
 20
135.136318
 42
0.106326
  0
VERTEX
  8
0
 10
305.635936
 20
135.000000
 42
-0.175541
  0
VERTEX
  8
0
 10
306.186041
 20
134.800727
 42
-0.067548
  0
VERTEX
  8
0
 10
306.742610
 20
134.192187
 42
-0.056045
  0
VERTEX
  8
0
 10
307.221774
 20
133.302348
 42
-0.043606
  0
VERTEX
  8
0
 10
307.541351
 20
132.250000
 42
0.016812
  0
VERTEX
  8
0
 10
307.831631
 20
131.070422
 42
0.012805
  0
VERTEX
  8
0
 10
308.225508
 20
129.799481
 42
0.012990
  0
VERTEX
  8
0
 10
308.656638
 20
128.626095
 42
0.029428
  0
VERTEX
  8
0
 10
309.056693
 20
127.769509
 42
-0.100246
  0
VERTEX
  8
0
 10
309.452200
 20
126.472334
 42
-0.003680
  0
VERTEX
  8
0
 10
309.910053
 20
121.327557
 42
-0.006580
  0
VERTEX
  8
0
 10
310.328616
 20
115.203391
 42
-0.004560
  0
VERTEX
  8
0
 10
310.647523
 20
108.269509
 42
0.004439
  0
VERTEX
  8
0
 10
310.961038
 20
101.416920
 42
0.007030
  0
VERTEX
  8
0
 10
311.364300
 20
95.552555
 42
0.002402
  0
VERTEX
  8
0
 10
311.804466
 20
90.536127
 42
0.227982
  0
VERTEX
  8
0
 10
312.167906
 20
89.930679
 42
-0.235785
  0
VERTEX
  8
0
 10
312.519489
 20
89.324827
 42
-0.002500
  0
VERTEX
  8
0
 10
312.807267
 20
84.343442
 42
-0.007250
  0
VERTEX
  8
0
 10
313.029978
 20
78.517218
 42
-0.004570
  0
VERTEX
  8
0
 10
313.129155
 20
71.709772
 42
0.003337
  0
VERTEX
  8
0
 10
313.237766
 20
62.735203
 42
0.014988
  0
VERTEX
  8
0
 10
313.493653
 20
57.490363
 42
0.020414
  0
VERTEX
  8
0
 10
313.893034
 20
54.165468
 42
0.181377
  0
VERTEX
  8
0
 10
314.612482
 20
52.906648
 42
-0.137793
  0
VERTEX
  8
0
 10
315.232042
 20
52.009172
 42
-0.039451
  0
VERTEX
  8
0
 10
315.656736
 20
50.356199
 42
-0.030019
  0
VERTEX
  8
0
 10
315.918722
 20
48.039487
 42
-0.013147
  0
VERTEX
  8
0
 10
316.000000
 20
44.948984
 42
0.013696
  0
VERTEX
  8
0
 10
316.084764
 20
41.855042
 42
0.029236
  0
VERTEX
  8
0
 10
316.354886
 20
39.479747
 42
0.037719
  0
VERTEX
  8
0
 10
316.793685
 20
37.740180
 42
0.116245
  0
VERTEX
  8
0
 10
317.427729
 20
36.715128
 42
-0.075403
  0
VERTEX
  8
0
 10
318.026050
 20
35.902865
 42
-0.025333
  0
VERTEX
  8
0
 10
318.646538
 20
34.563021
 42
-0.024543
  0
VERTEX
  8
0
 10
319.192636
 20
32.989081
 42
-0.025732
  0
VERTEX
  8
0
 10
319.571971
 20
31.393700
 42
0.019446
  0
VERTEX
  8
0
 10
319.917009
 20
29.857015
 42
0.024086
  0
VERTEX
  8
0
 10
320.361376
 20
28.459793
 42
0.023508
  0
VERTEX
  8
0
 10
320.835943
 20
27.346944
 42
0.137058
  0
VERTEX
  8
0
 10
321.253139
 20
26.873681
 42
-0.159387
  0
VERTEX
  8
0
 10
321.658383
 20
26.371341
 42
-0.021730
  0
VERTEX
  8
0
 10
322.087516
 20
25.073137
 42
-0.023204
  0
VERTEX
  8
0
 10
322.468848
 20
23.440084
 42
-0.017691
  0
VERTEX
  8
0
 10
322.738949
 20
21.623681
 42
0.015853
  0
VERTEX
  8
0
 10
322.995824
 20
19.851481
 42
0.025198
  0
VERTEX
  8
0
 10
323.339222
 20
18.358206
 42
0.022476
  0
VERTEX
  8
0
 10
323.714444
 20
17.231085
 42
0.310567
  0
VERTEX
  8
0
 10
324.050597
 20
17.000000
 42
-0.247325
  0
VERTEX
  8
0
 10
324.397341
 20
16.817308
 42
-0.037742
  0
VERTEX
  8
0
 10
324.802437
 20
16.118750
 42
-0.034871
  0
VERTEX
  8
0
 10
325.190061
 20
15.149252
 42
-0.023613
  0
VERTEX
  8
0
 10
325.500000
 20
14.000000
 42
0.027524
  0
VERTEX
  8
0
 10
325.819532
 20
12.850988
 42
0.039605
  0
VERTEX
  8
0
 10
326.235766
 20
11.881250
 42
0.045180
  0
VERTEX
  8
0
 10
326.681210
 20
11.193748
 42
0.230346
  0
VERTEX
  8
0
 10
327.079455
 20
11.000000
 42
-0.224841
  0
VERTEX
  8
0
 10
327.431907
 20
10.833070
 42
-0.075662
  0
VERTEX
  8
0
 10
327.729590
 20
10.330908
 42
-0.057563
  0
VERTEX
  8
0
 10
327.932672
 20
9.594470
 42
-0.038538
  0
VERTEX
  8
0
 10
328.000000
 20
8.722241
 42
0.122531
  0
VERTEX
  8
0
 10
328.480842
 20
6.789571
 42
0.078042
  0
VERTEX
  8
0
 10
329.878241
 20
4.926215
 42
0.069373
  0
VERTEX
  8
0
 10
331.972476
 20
3.389494
 42
0.062234
  0
VERTEX
  8
0
 10
334.484693
 20
2.414486
 42
-0.031345
  0
VERTEX
  8
0
 10
335.447815
 20
2.107484
 42
-0.043320
  0
VERTEX
  8
0
 10
336.261129
 20
1.706724
 42
-0.050493
  0
VERTEX
  8
0
 10
336.831198
 20
1.277552
 42
-0.209116
  0
VERTEX
  8
0
 10
337.000000
 20
0.891592
 42
0.330991
  0
VERTEX
  8
0
 10
337.498823
 20
0.220614
 42
0.079245
  0
VERTEX
  8
0
 10
338.962750
 20
0.023155
 42
0.069360
  0
VERTEX
  8
0
 10
340.581974
 20
0.288761
 42
0.180972
  0
VERTEX
  8
0
 10
341.500000
 20
1.000000
 42
-0.214717
  0
VERTEX
  8
0
 10
342.084289
 20
1.394788
 42
-0.013125
  0
VERTEX
  8
0
 10
344.217946
 20
1.706250
 42
-0.017663
  0
VERTEX
  8
0
 10
346.864029
 20
1.927399
 42
-0.012016
  0
VERTEX
  8
0
 10
349.884703
 20
2.000000
 42
0.008863
  0
VERTEX
  8
0
 10
354.321074
 20
2.078641
 42
0.048361
  0
VERTEX
  8
0
 10
356.698179
 20
2.394488
 42
0.084042
  0
VERTEX
  8
0
 10
358.326266
 20
3.076001
 42
0.063204
  0
VERTEX
  8
0
 10
359.825686
 20
4.314451
 42
0.084367
  0
VERTEX
  8
0
 10
361.301672
 20
6.538771
 42
0.089968
  0
VERTEX
  8
0
 10
361.917512
 20
9.076554
 42
0.096501
  0
VERTEX
  8
0
 10
361.588348
 20
11.522100
 42
0.115306
  0
VERTEX
  8
0
 10
360.364286
 20
13.492857
 42
-0.036373
  0
VERTEX
  8
0
 10
359.633655
 20
14.338294
 42
-0.115884
  0
VERTEX
  8
0
 10
359.338634
 20
15.018509
 42
-0.156628
  0
VERTEX
  8
0
 10
359.420661
 20
15.635178
 42
-0.085817
  0
VERTEX
  8
0
 10
359.864286
 20
16.264286
 42
0.094232
  0
VERTEX
  8
0
 10
360.713049
 20
17.511628
 42
0.128624
  0
VERTEX
  8
0
 10
360.920333
 20
18.849289
 42
0.104294
  0
VERTEX
  8
0
 10
360.447680
 20
20.325104
 42
0.047615
  0
VERTEX
  8
0
 10
359.277759
 20
21.988569
 42
0.101101
  0
VERTEX
  8
0
 10
357.534322
 20
23.344963
 42
0.096763
  0
VERTEX
  8
0
 10
355.371074
 20
23.936073
 42
0.117276
  0
VERTEX
  8
0
 10
353.460175
 20
23.628335
 42
0.205635
  0
VERTEX
  8
0
 10
352.361626
 20
22.500000
 42
-0.083127
  0
VERTEX
  8
0
 10
351.637629
 20
21.270771
 42
-0.332612
  0
VERTEX
  8
0
 10
350.838722
 20
21.083340
 42
-0.235716
  0
VERTEX
  8
0
 10
350.196626
 20
21.851796
 42
-0.058335
  0
VERTEX
  8
0
 10
350.000000
 20
23.531385
 42
0.050772
  0
VERTEX
  8
0
 10
349.897418
 20
24.538990
 42
0.055332
  0
VERTEX
  8
0
 10
349.594019
 20
25.474965
 42
0.062437
  0
VERTEX
  8
0
 10
349.147345
 20
26.205591
 42
0.133522
  0
VERTEX
  8
0
 10
348.617937
 20
26.593117
 42
-0.159326
  0
VERTEX
  8
0
 10
348.042173
 20
27.061008
 42
-0.038674
  0
VERTEX
  8
0
 10
347.452210
 20
28.153649
 42
-0.035794
  0
VERTEX
  8
0
 10
346.938959
 20
29.576370
 42
-0.029033
  0
VERTEX
  8
0
 10
346.590274
 20
31.160824
 42
0.026602
  0
VERTEX
  8
0
 10
346.234776
 20
32.814470
 42
0.025516
  0
VERTEX
  8
0
 10
345.701820
 20
34.444708
 42
0.026401
  0
VERTEX
  8
0
 10
345.083074
 20
35.831083
 42
0.078368
  0
VERTEX
  8
0
 10
344.472337
 20
36.670520
 42
-0.065869
  0
VERTEX
  8
0
 10
343.908213
 20
37.406687
 42
-0.039104
  0
VERTEX
  8
0
 10
343.432499
 20
38.406415
 42
-0.038470
  0
VERTEX
  8
0
 10
343.108103
 20
39.497200
 42
-0.053091
  0
VERTEX
  8
0
 10
343.000000
 20
40.512412
 42
0.038729
  0
VERTEX
  8
0
 10
342.926123
 20
41.464744
 42
0.042064
  0
VERTEX
  8
0
 10
342.706250
 20
42.367457
 42
0.046167
  0
VERTEX
  8
0
 10
342.384362
 20
43.097520
 42
0.128117
  0
VERTEX
  8
0
 10
342.000000
 20
43.500000
 42
-0.253197
  0
VERTEX
  8
0
 10
341.133915
 20
45.008267
 42
-0.005923
  0
VERTEX
  8
0
 10
341.020274
 20
53.465741
 42
-0.005406
  0
VERTEX
  8
0
 10
341.098730
 20
61.972717
 42
-0.314647
  0
VERTEX
  8
0
 10
341.968735
 20
63.166667
 42
0.287287
  0
VERTEX
  8
0
 10
342.375457
 20
63.669738
 42
0.003700
  0
VERTEX
  8
0
 10
342.854620
 20
67.892652
 42
0.009345
  0
VERTEX
  8
0
 10
343.291067
 20
72.902715
 42
0.005829
  0
VERTEX
  8
0
 10
343.624164
 20
78.787044
 42
-0.005014
  0
VERTEX
  8
0
 10
343.948358
 20
84.684471
 42
-0.007904
  0
VERTEX
  8
0
 10
344.357235
 20
89.736848
 42
-0.002980
  0
VERTEX
  8
0
 10
344.799038
 20
94.031193
 42
-0.231176
  0
VERTEX
  8
0
 10
345.155429
 20
94.596061
 42
0.243259
  0
VERTEX
  8
0
 10
345.496150
 20
95.164503
 42
0.002867
  0
VERTEX
  8
0
 10
345.751907
 20
99.647368
 42
0.007858
  0
VERTEX
  8
0
 10
345.939051
 20
104.910741
 42
0.004956
  0
VERTEX
  8
0
 10
346.000000
 20
111.059017
 42
-0.002139
  0
VERTEX
  8
0
 10
346.042545
 20
121.002101
 42
-0.027967
  0
VERTEX
  8
0
 10
346.280245
 20
124.683576
 42
-0.102333
  0
VERTEX
  8
0
 10
346.851056
 20
126.381274
 42
-0.266688
  0
VERTEX
  8
0
 10
347.928571
 20
127.000000
 42
-0.064082
  0
VERTEX
  8
0
 10
348.776513
 20
126.890877
 42
-0.039128
  0
VERTEX
  8
0
 10
349.731250
 20
126.559375
 42
-0.038656
  0
VERTEX
  8
0
 10
350.641413
 20
126.074273
 42
-0.054664
  0
VERTEX
  8
0
 10
351.357143
 20
125.500000
 42
0.098156
  0
VERTEX
  8
0
 10
352.844182
 20
124.504960
 42
0.078363
  0
VERTEX
  8
0
 10
354.722692
 20
124.049988
 42
0.087756
  0
VERTEX
  8
0
 10
356.449012
 20
124.212474
 42
0.189292
  0
VERTEX
  8
0
 10
357.500000
 20
125.000000
 42
-0.139851
  0
VERTEX
  8
0
 10
357.922321
 20
125.385093
 42
-0.042588
  0
VERTEX
  8
0
 10
358.735117
 20
125.706250
 42
-0.038929
  0
VERTEX
  8
0
 10
359.750752
 20
125.926289
 42
-0.033897
  0
VERTEX
  8
0
 10
360.836776
 20
126.000000
 42
0.107977
  0
VERTEX
  8
0
 10
362.913543
 20
126.453778
 42
0.072184
  0
VERTEX
  8
0
 10
364.963690
 20
127.780504
 42
0.074671
  0
VERTEX
  8
0
 10
366.483528
 20
129.573049
 42
0.139440
  0
VERTEX
  8
0
 10
367.000000
 20
131.388986
 42
0.178180
  0
VERTEX
  8
0
 10
366.413803
 20
132.981715
 42
0.118739
  0
VERTEX
  8
0
 10
364.825039
 20
134.137933
 42
0.060523
  0
VERTEX
  8
0
 10
361.888936
 20
134.956335
 42
0.015143
  0
VERTEX
  8
0
 10
356.940157
 20
135.556345
 42
-0.008699
  0
VERTEX
  8
0
 10
352.667938
 20
136.018543
 42
-0.054014
  0
VERTEX
  8
0
 10
350.526042
 20
136.527033
 42
-0.106950
  0
VERTEX
  8
0
 10
349.242607
 20
137.321171
 42
-0.090917
  0
VERTEX
  8
0
 10
348.312216
 20
138.618165
 42
-0.029713
  0
VERTEX
  8
0
 10
347.945613
 20
139.531966
 42
-0.057762
  0
VERTEX
  8
0
 10
347.784471
 20
140.300336
 42
-0.098416
  0
VERTEX
  8
0
 10
347.838285
 20
140.811581
 42
-0.328540
  0
VERTEX
  8
0
 10
348.094085
 20
141.000000
 42
0.347931
  0
VERTEX
  8
0
 10
348.450386
 20
141.282084
 42
0.020042
  0
VERTEX
  8
0
 10
348.733887
 20
142.745164
 42
0.023507
  0
VERTEX
  8
0
 10
348.934718
 20
144.663398
 42
0.014329
  0
VERTEX
  8
0
 10
349.000000
 20
146.940983
 42
-0.015545
  0
VERTEX
  8
0
 10
349.072157
 20
149.261366
 42
-0.021981
  0
VERTEX
  8
0
 10
349.291110
 20
151.316718
 42
-0.019049
  0
VERTEX
  8
0
 10
349.602587
 20
152.952366
 42
-0.200356
  0
VERTEX
  8
0
 10
349.991014
 20
153.494446
 42
-0.259027
  0
VERTEX
  8
0
 10
351.325771
 20
153.556774
 42
-0.048200
  0
VERTEX
  8
0
 10
353.486869
 20
152.212162
 42
-0.047164
  0
VERTEX
  8
0
 10
355.652073
 20
150.206518
 42
-0.062677
  0
VERTEX
  8
0
 10
357.175236
 20
148.000000
 42
0.067589
  0
VERTEX
  8
0
 10
359.225461
 20
145.091237
 42
0.004977
  0
VERTEX
  8
0
 10
365.953658
 20
137.996613
 42
0.002287
  0
VERTEX
  8
0
 10
373.188750
 20
130.586134
 42
0.200836
  0
VERTEX
  8
0
 10
374.589123
 20
130.000000
 42
-0.166264
  0
VERTEX
  8
0
 10
375.049806
 20
129.842455
 42
-0.004550
  0
VERTEX
  8
0
 10
376.739958
 20
128.508570
 42
-0.008934
  0
VERTEX
  8
0
 10
378.706699
 20
126.868428
 42
-0.005953
  0
VERTEX
  8
0
 10
380.903377
 20
124.922792
 42
0.000154
  0
VERTEX
  8
0
 10
383.239588
 20
122.804712
 42
0.000144
  0
VERTEX
  8
0
 10
385.631051
 20
120.639135
 42
0.000143
  0
VERTEX
  8
0
 10
387.756183
 20
118.716951
 42
0.000491
  0
VERTEX
  8
0
 10
389.138498
 20
117.469829
 42
0.030015
  0
VERTEX
  8
0
 10
390.339825
 20
116.512126
 42
0.022355
  0
VERTEX
  8
0
 10
391.769066
 20
115.599415
 42
0.022764
  0
VERTEX
  8
0
 10
393.199326
 20
114.858267
 42
0.046702
  0
VERTEX
  8
0
 10
394.388498
 20
114.438629
 42
-0.030184
  0
VERTEX
  8
0
 10
395.388518
 20
114.122421
 42
-0.042076
  0
VERTEX
  8
0
 10
396.232871
 20
113.713816
 42
-0.048680
  0
VERTEX
  8
0
 10
396.826685
 20
113.278953
 42
-0.213514
  0
VERTEX
  8
0
 10
397.000000
 20
112.891592
 42
0.293407
  0
VERTEX
  8
0
 10
397.221503
 20
112.546621
 42
0.044973
  0
VERTEX
  8
0
 10
398.028125
 20
112.261905
 42
0.038330
  0
VERTEX
  8
0
 10
399.158701
 20
112.064559
 42
0.024052
  0
VERTEX
  8
0
 10
400.500000
 20
112.000000
 42
0.023087
  0
VERTEX
  8
0
 10
402.685736
 20
112.100977
 42
0.196630
  0
VERTEX
  8
0
 10
403.538635
 20
112.545697
 42
0.162273
  0
VERTEX
  8
0
 10
403.923173
 20
113.508142
 42
0.014594
  0
VERTEX
  8
0
 10
404.000000
 20
116.139757
 42
0.058760
  0
VERTEX
  8
0
 10
403.660615
 20
119.017663
 42
0.105560
  0
VERTEX
  8
0
 10
402.641134
 20
121.154761
 42
0.124056
  0
VERTEX
  8
0
 10
400.974676
 20
122.470935
 42
0.101211
  0
VERTEX
  8
0
 10
398.750000
 20
122.968197
 42
-0.077829
  0
VERTEX
  8
0
 10
398.081465
 20
123.085377
 42
-0.088849
  0
VERTEX
  8
0
 10
397.514063
 20
123.399855
 42
-0.098774
  0
VERTEX
  8
0
 10
397.134493
 20
123.859228
 42
-0.124043
  0
VERTEX
  8
0
 10
397.000000
 20
124.393011
 42
0.096313
  0
VERTEX
  8
0
 10
396.888097
 20
124.968559
 42
0.066860
  0
VERTEX
  8
0
 10
396.559375
 20
125.545909
 42
0.064359
  0
VERTEX
  8
0
 10
396.073431
 20
126.037471
 42
0.074185
  0
VERTEX
  8
0
 10
395.500000
 20
126.361626
 42
-0.081035
  0
VERTEX
  8
0
 10
394.926585
 20
126.696157
 42
-0.065663
  0
VERTEX
  8
0
 10
394.440625
 20
127.217991
 42
-0.066520
  0
VERTEX
  8
0
 10
394.112085
 20
127.840167
 42
-0.088478
  0
VERTEX
  8
0
 10
394.000000
 20
128.468615
 42
0.068219
  0
VERTEX
  8
0
 10
393.919764
 20
129.053951
 42
0.084710
  0
VERTEX
  8
0
 10
393.685268
 20
129.550156
 42
0.099780
  0
VERTEX
  8
0
 10
393.337149
 20
129.881958
 42
0.141560
  0
VERTEX
  8
0
 10
392.928571
 20
130.000000
 42
-0.146790
  0
VERTEX
  8
0
 10
391.831894
 20
130.329053
 42
-0.045602
  0
VERTEX
  8
0
 10
390.472964
 20
131.414853
 42
-0.045434
  0
VERTEX
  8
0
 10
389.339379
 20
132.721191
 42
-0.157254
  0
VERTEX
  8
0
 10
389.000000
 20
133.773584
 42
0.130987
  0
VERTEX
  8
0
 10
388.875316
 20
134.241357
 42
0.027986
  0
VERTEX
  8
0
 10
388.412500
 20
134.952501
 42
0.027454
  0
VERTEX
  8
0
 10
387.765617
 20
135.739816
 42
0.023141
  0
VERTEX
  8
0
 10
387.000000
 20
136.500000
 42
-0.033439
  0
VERTEX
  8
0
 10
386.234645
 20
137.291860
 42
-0.034148
  0
VERTEX
  8
0
 10
385.587500
 20
138.173392
 42
-0.036283
  0
VERTEX
  8
0
 10
385.136671
 20
139.013640
 42
-0.105367
  0
VERTEX
  8
0
 10
385.000000
 20
139.654988
 42
0.110746
  0
VERTEX
  8
0
 10
384.884939
 20
140.168097
 42
0.099990
  0
VERTEX
  8
0
 10
384.559375
 20
140.604903
 42
0.094810
  0
VERTEX
  8
0
 10
384.072716
 20
140.897892
 42
0.088446
  0
VERTEX
  8
0
 10
383.500000
 20
141.000000
 42
-0.068102
  0
VERTEX
  8
0
 10
382.926656
 20
141.078456
 42
-0.084634
  0
VERTEX
  8
0
 10
382.440625
 20
141.307776
 42
-0.099755
  0
VERTEX
  8
0
 10
382.115622
 20
141.648201
 42
-0.141782
  0
VERTEX
  8
0
 10
382.000000
 20
142.047749
 42
0.125864
  0
VERTEX
  8
0
 10
381.861292
 20
142.590040
 42
0.025928
  0
VERTEX
  8
0
 10
381.339063
 20
143.436739
 42
0.025751
  0
VERTEX
  8
0
 10
380.611335
 20
144.382183
 42
0.021755
  0
VERTEX
  8
0
 10
379.750000
 20
145.304920
 42
-0.024811
  0
VERTEX
  8
0
 10
377.983323
 20
147.220874
 42
-0.029320
  0
VERTEX
  8
0
 10
376.518123
 20
149.202623
 42
-0.019482
  0
VERTEX
  8
0
 10
374.896314
 20
151.913949
 42
-0.004777
  0
VERTEX
  8
0
 10
372.446908
 20
156.500000
 42
0.014403
  0
VERTEX
  8
0
 10
371.343845
 20
158.472923
 42
0.017114
  0
VERTEX
  8
0
 10
370.187257
 20
160.266159
 42
0.016068
  0
VERTEX
  8
0
 10
369.121355
 20
161.700201
 42
0.096853
  0
VERTEX
  8
0
 10
368.418751
 20
162.299690
 42
-0.107626
  0
VERTEX
  8
0
 10
367.875139
 20
162.783927
 42
-0.054321
  0
VERTEX
  8
0
 10
367.416758
 20
163.584250
 42
-0.050317
  0
VERTEX
  8
0
 10
367.105282
 20
164.553101
 42
-0.052675
  0
VERTEX
  8
0
 10
367.000000
 20
165.549690
 42
0.033771
  0
VERTEX
  8
0
 10
366.936535
 20
166.488253
 42
0.051657
  0
VERTEX
  8
0
 10
366.744193
 20
167.280221
 42
0.067085
  0
VERTEX
  8
0
 10
366.463347
 20
167.825728
 42
0.245083
  0
VERTEX
  8
0
 10
366.129166
 20
168.000000
 42
-0.325670
  0
VERTEX
  8
0
 10
365.754461
 20
168.273017
 42
-0.015985
  0
VERTEX
  8
0
 10
365.306756
 20
169.833029
 42
-0.020788
  0
VERTEX
  8
0
 10
364.885809
 20
171.848082
 42
-0.012929
  0
VERTEX
  8
0
 10
364.552346
 20
174.240100
 42
0.012419
  0
VERTEX
  8
0
 10
364.209672
 20
176.716655
 42
0.015462
  0
VERTEX
  8
0
 10
363.763428
 20
178.996978
 42
0.013764
  0
VERTEX
  8
0
 10
363.282333
 20
180.867825
 42
0.103744
  0
VERTEX
  8
0
 10
362.858055
 20
181.671033
 42
-0.105323
  0
VERTEX
  8
0
 10
362.444080
 20
182.460698
 42
-0.015528
  0
VERTEX
  8
0
 10
362.009608
 20
184.221410
 42
-0.016939
  0
VERTEX
  8
0
 10
361.626068
 20
186.365660
 42
-0.013833
  0
VERTEX
  8
0
 10
361.357556
 20
188.680933
 42
0.010388
  0
VERTEX
  8
0
 10
361.098741
 20
191.055413
 42
0.010914
  0
VERTEX
  8
0
 10
360.744906
 20
193.378149
 42
0.010619
  0
VERTEX
  8
0
 10
360.353821
 20
195.366199
 42
0.047075
  0
VERTEX
  8
0
 10
359.991189
 20
196.500000
 42
-0.066512
  0
VERTEX
  8
0
 10
359.634287
 20
197.785539
 42
-0.007426
  0
VERTEX
  8
0
 10
359.260199
 20
200.808395
 42
-0.008924
  0
VERTEX
  8
0
 10
358.931177
 20
204.437008
 42
-0.007125
  0
VERTEX
  8
0
 10
358.702187
 20
208.358365
 42
0.009761
  0
VERTEX
  8
0
 10
358.457531
 20
212.199880
 42
0.014786
  0
VERTEX
  8
0
 10
358.080968
 20
215.527192
 42
0.009826
  0
VERTEX
  8
0
 10
357.639658
 20
218.228893
 42
0.212007
  0
VERTEX
  8
0
 10
357.195249
 20
218.879330
 42
-0.152666
  0
VERTEX
  8
0
 10
356.730732
 20
219.415160
 42
-0.021194
  0
VERTEX
  8
0
 10
356.193833
 20
220.804118
 42
-0.022654
  0
VERTEX
  8
0
 10
355.688492
 20
222.553758
 42
-0.017444
  0
VERTEX
  8
0
 10
355.291688
 20
224.501344
 42
0.021533
  0
VERTEX
  8
0
 10
354.773303
 20
226.943430
 42
0.055793
  0
VERTEX
  8
0
 10
354.134009
 20
228.622994
 42
0.076571
  0
VERTEX
  8
0
 10
353.287281
 20
229.789167
 42
0.082046
  0
VERTEX
  8
0
 10
352.146727
 20
230.614168
 42
-0.114966
  0
VERTEX
  8
0
 10
349.541957
 20
232.770191
 42
-0.099030
  0
VERTEX
  8
0
 10
347.983383
 20
235.971826
 42
-0.052686
  0
VERTEX
  8
0
 10
347.197986
 20
241.156319
 42
-0.010988
  0
VERTEX
  8
0
 10
346.985272
 20
250.364307
 42
0.016724
  0
VERTEX
  8
0
 10
346.628293
 20
260.687771
 42
0.044161
  0
VERTEX
  8
0
 10
345.478313
 20
267.986502
 42
0.057878
  0
VERTEX
  8
0
 10
343.311693
 20
273.739736
 42
0.052864
  0
VERTEX
  8
0
 10
339.830652
 20
279.036473
 42
-0.021020
  0
VERTEX
  8
0
 10
338.376875
 20
280.968720
 42
-0.019171
  0
VERTEX
  8
0
 10
337.042539
 20
283.075198
 42
-0.019584
  0
VERTEX
  8
0
 10
335.996683
 20
285.049517
 42
-0.057093
  0
VERTEX
  8
0
 10
335.491905
 20
286.504567
 42
0.019122
  0
VERTEX
  8
0
 10
333.748033
 20
293.110429
 42
0.057029
  0
VERTEX
  8
0
 10
331.885287
 20
297.393011
 42
0.056763
  0
VERTEX
  8
0
 10
329.098275
 20
301.154959
 42
0.018813
  0
VERTEX
  8
0
 10
324.218437
 20
306.003251
 42
0.011396
  0
VERTEX
  8
0
 10
320.487885
 20
309.286719
 42
0.024324
  0
VERTEX
  8
0
 10
317.432344
 20
311.611067
 42
0.031526
  0
VERTEX
  8
0
 10
314.833052
 20
313.164370
 42
0.059246
  0
VERTEX
  8
0
 10
312.544287
 20
314.018711
 42
-0.007595
  0
VERTEX
  8
0
 10
310.663138
 20
314.507261
 42
-0.003922
  0
VERTEX
  8
0
 10
308.324981
 20
315.172347
 42
-0.003898
  0
VERTEX
  8
0
 10
305.930957
 20
315.893978
 42
-0.005895
  0
VERTEX
  8
0
 10
303.859904
 20
316.562772
 42
0.019452
  0
VERTEX
  8
0
 10
301.678491
 20
317.202452
 42
0.010249
  0
VERTEX
  8
0
 10
298.926314
 20
317.834817
 42
0.010181
  0
VERTEX
  8
0
 10
296.077734
 20
318.367872
 42
0.015447
  0
VERTEX
  8
0
 10
293.580586
 20
318.703838
 42
-0.013104
  0
VERTEX
  8
0
 10
291.381791
 20
318.989182
 42
-0.018483
  0
VERTEX
  8
0
 10
289.442287
 20
319.366654
 42
-0.014867
  0
VERTEX
  8
0
 10
287.888575
 20
319.778167
 42
-0.184186
  0
VERTEX
  8
0
 10
287.411665
 20
320.142929
 42
0.256672
  0
VERTEX
  8
0
 10
285.970867
 20
320.957813
 42
0.004766
  0
VERTEX
  8
0
 10
276.958210
 20
320.982114
 42
0.004801
  0
VERTEX
  8
0
 10
267.951213
 20
320.834054
 42
0.252995
  0
VERTEX
  8
0
 10
266.500000
 20
320.000000
 42
-0.111412
  0
VERTEX
  8
0
 10
266.123976
 20
319.616444
 42
-0.050262
  0
VERTEX
  8
0
 10
265.493350
 20
319.293750
 42
-0.046318
  0
VERTEX
  8
0
 10
264.729296
 20
319.074077
 42
-0.046881
  0
VERTEX
  8
0
 10
263.940983
 20
319.000000
 42
-0.049547
  0
VERTEX
  8
0
 10
263.198222
 20
319.073784
 42
-0.069539
  0
VERTEX
  8
0
 10
262.570164
 20
319.293750
 42
-0.089706
  0
VERTEX
  8
0
 10
262.147465
 20
319.618213
 42
-0.186414
  0
VERTEX
  8
0
 10
262.000000
 20
320.000000
 42
0.358465
  0
VERTEX
  8
0
 10
261.659946
 20
320.413371
 42
0.017187
  0
VERTEX
  8
0
 10
259.764754
 20
320.718518
 42
0.020605
  0
VERTEX
  8
0
 10
257.231142
 20
320.932010
 42
0.010716
  0
VERTEX
  8
0
 10
254.059017
 20
321.000000
 42
0.011753
  0
VERTEX
  8
0
 10
250.971513
 20
320.927415
 42
0.017326
  0
VERTEX
  8
0
 10
248.269150
 20
320.706250
 42
0.012687
  0
VERTEX
  8
0
 10
246.087271
 20
320.395032
 42
0.215801
  0
VERTEX
  8
0
 10
245.500000
 20
320.000000
 42
-0.146547
  0
VERTEX
  8
0
 10
245.065839
 20
319.614422
 42
-0.040338
  0
VERTEX
  8
0
 10
244.199600
 20
319.293750
 42
-0.037109
  0
VERTEX
  8
0
 10
243.112115
 20
319.073612
 42
-0.031397
  0
VERTEX
  8
0
 10
241.940983
 20
319.000000
 42
-0.032276
  0
VERTEX
  8
0
 10
240.814380
 20
319.072800
 42
-0.049716
  0
VERTEX
  8
0
 10
239.863914
 20
319.293750
 42
-0.064068
  0
VERTEX
  8
0
 10
239.206632
 20
319.615903
 42
-0.251914
  0
VERTEX
  8
0
 10
239.000000
 20
320.000000
 42
0.396559
  0
VERTEX
  8
0
 10
238.167990
 20
320.884068
 42
0.020311
  0
VERTEX
  8
0
 10
233.871755
 20
320.970152
 42
0.026766
  0
VERTEX
  8
0
 10
229.457025
 20
320.642412
 42
0.101783
  0
VERTEX
  8
0
 10
226.855778
 20
319.750000
 42
-0.021008
  0
VERTEX
  8
0
 10
225.739431
 20
319.152623
 42
-0.112809
  0
VERTEX
  8
0
 10
225.071574
 20
319.000000
 42
-0.209739
  0
VERTEX
  8
0
 10
224.621442
 20
319.197510
 42
-0.099419
  0
VERTEX
  8
0
 10
224.286013
 20
319.750000
 42
0.228015
  0
VERTEX
  8
0
 10
223.400741
 20
320.617016
 42
0.070977
  0
VERTEX
  8
0
 10
221.521626
 20
320.968475
 42
0.069726
  0
VERTEX
  8
0
 10
219.580258
 20
320.781439
 42
0.198016
  0
SEQEND
  0
POLYLINE
  8
0
 66
1
 70
1
  0
VERTEX
  8
0
 10
352.683114
 20
190.812500
 42
-0.054073
  0
VERTEX
  8
0
 10
352.461564
 20
190.395823
 42
-0.470617
  0
VERTEX
  8
0
 10
352.279315
 20
190.378580
 42
-0.168741
  0
VERTEX
  8
0
 10
352.137993
 20
190.670344
 42
-0.018894
  0
VERTEX
  8
0
 10
352.078947
 20
191.416667
 42
-0.028489
  0
VERTEX
  8
0
 10
352.089945
 20
192.112848
 42
-0.077125
  0
VERTEX
  8
0
 10
352.200665
 20
192.592839
 42
-0.208169
  0
VERTEX
  8
0
 10
352.385309
 20
192.775380
 42
-0.296942
  0
VERTEX
  8
0
 10
352.604167
 20
192.729167
 42
-0.126455
  0
VERTEX
  8
0
 10
352.797407
 20
192.402231
 42
-0.060344
  0
VERTEX
  8
0
 10
352.876576
 20
191.916927
 42
-0.054150
  0
VERTEX
  8
0
 10
352.839148
 20
191.359369
 42
-0.051402
  0
SEQEND
  0
POLYLINE
  8
0
 66
1
 70
1
  0
VERTEX
  8
0
 10
48.000000
 20
31.500000
 42
-0.035237
  0
VERTEX
  8
0
 10
48.427950
 20
30.903434
 42
-0.100348
  0
VERTEX
  8
0
 10
48.603286
 20
30.425778
 42
-0.222750
  0
VERTEX
  8
0
 10
48.515803
 20
30.128897
 42
-0.214681
  0
VERTEX
  8
0
 10
48.229434
 20
30.000000
 42
-0.125677
  0
VERTEX
  8
0
 10
47.798443
 20
30.110070
 42
-0.064053
  0
VERTEX
  8
0
 10
47.343184
 20
30.440625
 42
-0.057450
  0
VERTEX
  8
0
 10
46.934012
 20
30.926337
 42
-0.054778
  0
VERTEX
  8
0
 10
46.638374
 20
31.500000
 42
-0.019009
  0
VERTEX
  8
0
 10
46.442315
 20
32.075405
 42
-0.034664
  0
VERTEX
  8
0
 10
46.333541
 20
32.559375
 42
-0.044074
  0
VERTEX
  8
0
 10
46.311504
 20
32.904913
 42
-0.407084
  0
VERTEX
  8
0
 10
46.408940
 20
33.000000
 42
-0.176553
  0
VERTEX
  8
0
 10
46.604143
 20
32.928855
 42
-0.014236
  0
VERTEX
  8
0
 10
47.019109
 20
32.559375
 42
-0.017822
  0
VERTEX
  8
0
 10
47.497920
 20
32.074599
 42
-0.012711
  0
SEQEND
  0
ENDSEC
  0
EOF
