  0
SECTION
  2
HEADER
  9
$ACADVER
  1
AC1006
  9
$EXTMIN
 10
0.000000
 20
0.000000
 30
0.000000
  9
$EXTMAX
 10
191.000000
 20
295.000000
 30
0.000000
  0
ENDSEC
  0
SECTION
  2
ENTITIES
  0
POLYLINE
  8
0
 66
1
 70
1
  0
VERTEX
  8
0
 10
71.734467
 20
293.955734
 42
0.049991
  0
VERTEX
  8
0
 10
66.286755
 20
292.014784
 42
0.045969
  0
VERTEX
  8
0
 10
61.166541
 20
288.986932
 42
0.031671
  0
VERTEX
  8
0
 10
55.259726
 20
284.119467
 42
0.009792
  0
VERTEX
  8
0
 10
47.000000
 20
276.075987
 42
0.011268
  0
VERTEX
  8
0
 10
34.506971
 20
262.840352
 42
0.044461
  0
VERTEX
  8
0
 10
27.776219
 20
253.896685
 42
0.060197
  0
VERTEX
  8
0
 10
23.788843
 20
245.339037
 42
0.033903
  0
VERTEX
  8
0
 10
20.972354
 20
234.216167
 42
-0.008881
  0
VERTEX
  8
0
 10
20.041475
 20
229.575965
 42
-0.006617
  0
VERTEX
  8
0
 10
18.856122
 20
224.490048
 42
-0.006692
  0
VERTEX
  8
0
 10
17.610544
 20
219.723385
 42
-0.015068
  0
VERTEX
  8
0
 10
16.509938
 20
216.154210
 42
0.018143
  0
VERTEX
  8
0
 10
15.231419
 20
211.915719
 42
0.029085
  0
VERTEX
  8
0
 10
14.486533
 20
208.213115
 42
0.025132
  0
VERTEX
  8
0
 10
14.113508
 20
204.085163
 42
0.009967
  0
VERTEX
  8
0
 10
14.000000
 20
198.391552
 42
-0.011229
  0
VERTEX
  8
0
 10
13.883780
 20
193.217080
 42
-0.017007
  0
VERTEX
  8
0
 10
13.528790
 20
188.728530
 42
-0.018874
  0
VERTEX
  8
0
 10
12.910842
 20
184.658502
 42
-0.020480
  0
VERTEX
  8
0
 10
12.000000
 20
180.757441
 42
0.017132
  0
VERTEX
  8
0
 10
11.233874
 20
177.572617
 42
0.012254
  0
VERTEX
  8
0
 10
10.587500
 20
173.965297
 42
0.012395
  0
VERTEX
  8
0
 10
10.140695
 20
170.493889
 42
0.025810
  0
VERTEX
  8
0
 10
10.000000
 20
167.770099
 42
-0.009263
  0
VERTEX
  8
0
 10
9.939430
 20
164.500936
 42
-0.071445
  0
VERTEX
  8
0
 10
9.666501
 20
162.998510
 42
-0.181304
  0
VERTEX
  8
0
 10
9.079049
 20
162.273632
 42
-0.133542
  0
VERTEX
  8
0
 10
8.072804
 20
162.000000
 42
0.126643
  0
VERTEX
  8
0
 10
7.123094
 20
161.755530
 42
0.033016
  0
VERTEX
  8
0
 10
5.785614
 20
160.898437
 42
0.031387
  0
VERTEX
  8
0
 10
4.341425
 20
159.685314
 42
0.027582
  0
VERTEX
  8
0
 10
2.992901
 20
158.250000
 42
0.023937
  0
VERTEX
  8
0
 10
1.186002
 20
155.879142
 42
0.084241
  0
VERTEX
  8
0
 10
0.380281
 20
154.146452
 42
0.071350
  0
VERTEX
  8
0
 10
0.123393
 20
152.097484
 42
0.014090
  0
VERTEX
  8
0
 10
0.293763
 20
148.389290
 42
0.023429
  0
VERTEX
  8
0
 10
0.734089
 20
144.766142
 42
0.059776
  0
VERTEX
  8
0
 10
1.482335
 20
142.232828
 42
0.050020
  0
VERTEX
  8
0
 10
2.888798
 20
139.697995
 42
0.012642
  0
VERTEX
  8
0
 10
5.676301
 20
135.889290
 42
-0.006159
  0
VERTEX
  8
0
 10
9.823475
 20
130.374260
 42
-0.024157
  0
VERTEX
  8
0
 10
12.171003
 20
126.823343
 42
-0.032875
  0
VERTEX
  8
0
 10
13.788466
 20
123.640025
 42
-0.019784
  0
VERTEX
  8
0
 10
15.300378
 20
119.681294
 42
0.036932
  0
VERTEX
  8
0
 10
16.263345
 20
117.397874
 42
0.015091
  0
VERTEX
  8
0
 10
17.887915
 20
114.445911
 42
0.014835
  0
VERTEX
  8
0
 10
19.831228
 20
111.366499
 42
0.018364
  0
VERTEX
  8
0
 10
21.827035
 20
108.625408
 42
-0.013437
  0
VERTEX
  8
0
 10
24.722642
 20
104.729744
 42
-0.056953
  0
VERTEX
  8
0
 10
26.109797
 20
102.181724
 42
-0.058346
  0
VERTEX
  8
0
 10
26.869933
 20
99.415738
 42
-0.014551
  0
VERTEX
  8
0
 10
27.444017
 20
94.754144
 42
0.012177
  0
VERTEX
  8
0
 10
27.917135
 20
90.756035
 42
0.038734
  0
VERTEX
  8
0
 10
28.502799
 20
88.131708
 42
0.055722
  0
VERTEX
  8
0
 10
29.340412
 20
86.195668
 42
0.057000
  0
VERTEX
  8
0
 10
30.579694
 20
84.508509
 42
-0.016429
  0
VERTEX
  8
0
 10
31.506433
 20
83.440196
 42
-0.020667
  0
VERTEX
  8
0
 10
32.289035
 20
82.389897
 42
-0.019287
  0
VERTEX
  8
0
 10
32.863536
 20
81.474522
 42
-0.131222
  0
VERTEX
  8
0
 10
33.000000
 20
80.963501
 42
0.139515
  0
VERTEX
  8
0
 10
33.636594
 20
78.726459
 42
0.012665
  0
VERTEX
  8
0
 10
36.848346
 20
73.822253
 42
0.017588
  0
VERTEX
  8
0
 10
40.515592
 20
68.899967
 42
0.035756
  0
VERTEX
  8
0
 10
43.792033
 20
65.361485
 42
0.000000
  0
VERTEX
  8
0
 10
48.213547
 20
61.222971
 42
0.000000
  0
VERTEX
  8
0
 10
47.128762
 20
56.164792
 42
0.018052
  0
VERTEX
  8
0
 10
46.603853
 20
53.198797
 42
0.064288
  0
VERTEX
  8
0
 10
46.583327
 20
51.273931
 42
0.069621
  0
VERTEX
  8
0
 10
47.052347
 20
49.487526
 42
0.023636
  0
VERTEX
  8
0
 10
48.206217
 20
47.055732
 42
0.043021
  0
VERTEX
  8
0
 10
49.410298
 20
45.202939
 42
0.018516
  0
VERTEX
  8
0
 10
51.308905
 20
42.945647
 42
0.018160
  0
VERTEX
  8
0
 10
53.520116
 20
40.677323
 42
0.022877
  0
VERTEX
  8
0
 10
55.732224
 20
38.752425
 42
-0.003974
  0
VERTEX
  8
0
 10
58.047553
 20
36.886660
 42
-0.002968
  0
VERTEX
  8
0
 10
60.571333
 20
34.794462
 42
-0.003000
  0
VERTEX
  8
0
 10
62.925816
 20
32.794714
 42
-0.006833
  0
VERTEX
  8
0
 10
64.673688
 20
31.250000
 42
0.010768
  0
VERTEX
  8
0
 10
66.104867
 20
30.005094
 42
0.014859
  0
VERTEX
  8
0
 10
67.445376
 20
28.954688
 42
0.011416
  0
VERTEX
  8
0
 10
68.592026
 20
28.149671
 42
0.148394
  0
VERTEX
  8
0
 10
69.085223
 20
28.000000
 42
-0.198259
  0
VERTEX
  8
0
 10
70.346806
 20
27.479293
 42
-0.013387
  0
VERTEX
  8
0
 10
73.087038
 20
24.602794
 42
-0.014768
  0
VERTEX
  8
0
 10
76.631963
 20
20.435185
 42
-0.005817
  0
VERTEX
  8
0
 10
81.273276
 20
14.500000
 42
0.005114
  0
VERTEX
  8
0
 10
83.708089
 20
11.377386
 42
0.006964
  0
VERTEX
  8
0
 10
85.971316
 20
8.615091
 42
0.004792
  0
VERTEX
  8
0
 10
87.916333
 20
6.351871
 42
0.075923
  0
VERTEX
  8
0
 10
88.690316
 20
5.700310
 42
-0.051471
  0
VERTEX
  8
0
 10
89.191302
 20
5.318646
 42
-0.048419
  0
VERTEX
  8
0
 10
89.615280
 20
4.835393
 42
-0.052009
  0
VERTEX
  8
0
 10
89.905252
 20
4.328320
 42
-0.104261
  0
VERTEX
  8
0
 10
90.000000
 20
3.878881
 42
0.164169
  0
VERTEX
  8
0
 10
90.485324
 20
2.440592
 42
0.090325
  0
VERTEX
  8
0
 10
91.872064
 20
1.174965
 42
0.075637
  0
VERTEX
  8
0
 10
93.887275
 20
0.302393
 42
0.065149
  0
VERTEX
  8
0
 10
96.178571
 20
0.008608
 42
0.094846
  0
VERTEX
  8
0
 10
100.493086
 20
0.846061
 42
0.019591
  0
VERTEX
  8
0
 10
107.592095
 20
4.016445
 42
0.020765
  0
VERTEX
  8
0
 10
114.491603
 20
7.792100
 42
0.071576
  0
VERTEX
  8
0
 10
118.430429
 20
11.010961
 42
-0.022913
  0
VERTEX
  8
0
 10
119.845131
 20
12.416754
 42
-0.012577
  0
VERTEX
  8
0
 10
121.695481
 20
14.011271
 42
-0.012515
  0
VERTEX
  8
0
 10
123.658784
 20
15.538424
 42
-0.019520
  0
VERTEX
  8
0
 10
125.430429
 20
16.742750
 42
0.037753
  0
VERTEX
  8
0
 10
132.616556
 20
22.020454
 42
0.014567
  0
VERTEX
  8
0
 10
141.772875
 20
30.348538
 42
0.013080
  0
VERTEX
  8
0
 10
150.216116
 20
38.927211
 42
0.067143
  0
VERTEX
  8
0
 10
154.071344
 20
44.359506
 42
0.046091
  0
VERTEX
  8
0
 10
155.206983
 20
47.114443
 42
0.034235
  0
VERTEX
  8
0
 10
155.959136
 20
50.320507
 42
0.021662
  0
VERTEX
  8
0
 10
156.492531
 20
54.794009
 42
0.005687
  0
VERTEX
  8
0
 10
156.954220
 20
62.000000
 42
-0.005085
  0
VERTEX
  8
0
 10
157.495174
 20
70.605511
 42
-0.036731
  0
VERTEX
  8
0
 10
158.100292
 20
74.709898
 42
-0.051425
  0
VERTEX
  8
0
 10
159.238415
 20
78.115010
 42
-0.015305
  0
VERTEX
  8
0
 10
161.656020
 20
83.044951
 42
0.017383
  0
VERTEX
  8
0
 10
163.557679
 20
86.963883
 42
0.022508
  0
VERTEX
  8
0
 10
165.009870
 20
90.685790
 42
0.022951
  0
VERTEX
  8
0
 10
166.100412
 20
94.462566
 42
0.019340
  0
VERTEX
  8
0
 10
166.913225
 20
98.544951
 42
-0.009851
  0
VERTEX
  8
0
 10
168.129184
 20
105.321101
 42
-0.044195
  0
VERTEX
  8
0
 10
169.263441
 20
109.184159
 42
-0.090246
  0
VERTEX
  8
0
 10
170.554489
 20
111.271475
 42
-0.212324
  0
VERTEX
  8
0
 10
172.192749
 20
112.000000
 42
0.196478
  0
VERTEX
  8
0
 10
175.207581
 20
113.232269
 42
0.071194
  0
VERTEX
  8
0
 10
178.069314
 20
116.976291
 42
0.054935
  0
VERTEX
  8
0
 10
180.449425
 20
122.594612
 42
0.035143
  0
VERTEX
  8
0
 10
182.002821
 20
129.518609
 42
-0.021438
  0
VERTEX
  8
0
 10
182.755549
 20
133.363943
 42
-0.018844
  0
VERTEX
  8
0
 10
183.861888
 20
137.302245
 42
-0.018164
  0
VERTEX
  8
0
 10
185.308926
 20
141.292811
 42
-0.016561
  0
VERTEX
  8
0
 10
187.083259
 20
145.294884
 42
0.013683
  0
VERTEX
  8
0
 10
188.715126
 20
148.919173
 42
0.019272
  0
VERTEX
  8
0
 10
189.954104
 20
152.239308
 42
0.021683
  0
VERTEX
  8
0
 10
190.756938
 20
155.081817
 42
0.058042
  0
VERTEX
  8
0
 10
191.000000
 20
157.168589
 42
0.071038
  0
VERTEX
  8
0
 10
190.420754
 20
161.225055
 42
0.032094
  0
VERTEX
  8
0
 10
188.585666
 20
166.286236
 42
0.028038
  0
VERTEX
  8
0
 10
186.288649
 20
170.829972
 42
0.187079
  0
VERTEX
  8
0
 10
184.348682
 20
172.388462
 42
-0.263871
  0
VERTEX
  8
0
 10
183.272508
 20
173.548503
 42
-0.043722
  0
VERTEX
  8
0
 10
182.816505
 20
176.681290
 42
-0.016129
  0
VERTEX
  8
0
 10
182.664130
 20
182.799681
 42
-0.001280
  0
VERTEX
  8
0
 10
182.824978
 20
199.018386
 42
0.002219
  0
VERTEX
  8
0
 10
182.949607
 20
214.520315
 42
0.013822
  0
VERTEX
  8
0
 10
182.758680
 20
222.460625
 42
0.024389
  0
VERTEX
  8
0
 10
182.172289
 20
228.278548
 42
0.018694
  0
VERTEX
  8
0
 10
180.986477
 20
234.559362
 42
0.040075
  0
VERTEX
  8
0
 10
175.535844
 20
251.927638
 42
0.047779
  0
VERTEX
  8
0
 10
167.616677
 20
267.150560
 42
0.054387
  0
VERTEX
  8
0
 10
158.361441
 20
278.506202
 42
0.125398
  0
VERTEX
  8
0
 10
148.919562
 20
284.023069
 42
0.069046
  0
VERTEX
  8
0
 10
143.071809
 20
284.855659
 42
0.050733
  0
VERTEX
  8
0
 10
136.546972
 20
284.215325
 42
0.051649
  0
VERTEX
  8
0
 10
130.439334
 20
282.309874
 42
0.082656
  0
VERTEX
  8
0
 10
125.852453
 20
279.366250
 42
-0.111718
  0
VERTEX
  8
0
 10
124.768469
 20
278.755672
 42
-0.185050
  0
VERTEX
  8
0
 10
123.734899
 20
278.833853
 42
-0.074106
  0
VERTEX
  8
0
 10
122.369529
 20
279.746858
 42
-0.008450
  0
VERTEX
  8
0
 10
119.660057
 20
282.292551
 42
0.017092
  0
VERTEX
  8
0
 10
117.713978
 20
284.058685
 42
0.016402
  0
VERTEX
  8
0
 10
115.625523
 20
285.713210
 42
0.016581
  0
VERTEX
  8
0
 10
113.689450
 20
287.049214
 42
0.055262
  0
VERTEX
  8
0
 10
112.307604
 20
287.734629
 42
-0.002153
  0
VERTEX
  8
0
 10
110.759613
 20
288.307330
 42
-0.000480
  0
VERTEX
  8
0
 10
108.121609
 20
289.299126
 42
-0.000499
  0
VERTEX
  8
0
 10
105.077279
 20
290.450495
 42
-0.000482
  0
VERTEX
  8
0
 10
102.000000
 20
291.621229
 42
0.016919
  0
VERTEX
  8
0
 10
97.735378
 20
293.085138
 42
0.029643
  0
VERTEX
  8
0
 10
94.109217
 20
293.963158
 42
0.027264
  0
VERTEX
  8
0
 10
90.203463
 20
294.449094
 42
0.012004
  0
VERTEX
  8
0
 10
85.000000
 20
294.684753
 42
0.009488
  0
VERTEX
  8
0
 10
81.086752
 20
294.693657
 42
0.009550
  0
VERTEX
  8
0
 10
77.184500
 20
294.553893
 42
0.009404
  0
VERTEX
  8
0
 10
73.790714
 20
294.303288
 42
0.037480
  0
SEQEND
  0
ENDSEC
  0
EOF
