  0
SECTION
  2
HEADER
  9
$ACADVER
  1
AC1006
  9
$EXTMIN
 10
0.000000
 20
0.000000
 30
0.000000
  9
$EXTMAX
 10
282.000000
 20
125.000000
 30
0.000000
  0
ENDSEC
  0
SECTION
  2
ENTITIES
  0
POLYLINE
  8
0
 66
1
 70
1
  0
VERTEX
  8
0
 10
192.703524
 20
123.573970
 42
-0.059734
  0
VERTEX
  8
0
 10
191.875514
 20
123.089358
 42
-0.045233
  0
VERTEX
  8
0
 10
190.875183
 20
122.758092
 42
-0.046211
  0
VERTEX
  8
0
 10
189.862901
 20
122.618505
 42
-0.075255
  0
VERTEX
  8
0
 10
189.002094
 20
122.709703
 42
0.109434
  0
VERTEX
  8
0
 10
188.030996
 20
122.746407
 42
0.069737
  0
VERTEX
  8
0
 10
186.953336
 20
122.389914
 42
0.056511
  0
VERTEX
  8
0
 10
185.808351
 20
121.653393
 42
0.034730
  0
VERTEX
  8
0
 10
184.638118
 20
120.554531
 42
-0.024129
  0
VERTEX
  8
0
 10
183.530565
 20
119.469476
 42
-0.068158
  0
VERTEX
  8
0
 10
182.633102
 20
118.867556
 42
-0.130938
  0
VERTEX
  8
0
 10
181.957488
 20
118.734619
 42
-0.242362
  0
VERTEX
  8
0
 10
181.490270
 20
119.015743
 42
0.154294
  0
VERTEX
  8
0
 10
181.057551
 20
119.388467
 42
0.162275
  0
VERTEX
  8
0
 10
180.498743
 20
119.435029
 42
0.093931
  0
VERTEX
  8
0
 10
179.779202
 20
119.108572
 42
0.030590
  0
VERTEX
  8
0
 10
178.863974
 20
118.376898
 42
-0.043274
  0
VERTEX
  8
0
 10
177.963758
 20
117.693871
 42
-0.031527
  0
VERTEX
  8
0
 10
176.860420
 20
117.091771
 42
-0.032108
  0
VERTEX
  8
0
 10
175.732474
 20
116.651277
 42
-0.058712
  0
VERTEX
  8
0
 10
174.764067
 20
116.464200
 42
0.050258
  0
VERTEX
  8
0
 10
173.907038
 20
116.313579
 42
0.053918
  0
VERTEX
  8
0
 10
173.118508
 20
115.996675
 42
0.060432
  0
VERTEX
  8
0
 10
172.510157
 20
115.570957
 42
0.130164
  0
VERTEX
  8
0
 10
172.198780
 20
115.096340
 42
-0.057977
  0
VERTEX
  8
0
 10
171.927657
 20
114.516798
 42
-0.019763
  0
VERTEX
  8
0
 10
171.407773
 20
113.745220
 42
-0.019344
  0
VERTEX
  8
0
 10
170.761317
 20
112.931131
 42
-0.021120
  0
VERTEX
  8
0
 10
170.071695
 20
112.193895
 42
0.046201
  0
VERTEX
  8
0
 10
169.316048
 20
111.300277
 42
0.019206
  0
VERTEX
  8
0
 10
168.460792
 20
109.969457
 42
0.018808
  0
VERTEX
  8
0
 10
167.647874
 20
108.464204
 42
0.023083
  0
VERTEX
  8
0
 10
167.009036
 20
107.000000
 42
-0.014033
  0
VERTEX
  8
0
 10
166.407385
 20
105.550000
 42
-0.012730
  0
VERTEX
  8
0
 10
165.706619
 20
104.087500
 42
-0.012865
  0
VERTEX
  8
0
 10
165.012606
 20
102.811123
 42
-0.039370
  0
VERTEX
  8
0
 10
164.454765
 20
102.000000
 42
0.074638
  0
VERTEX
  8
0
 10
164.011995
 20
101.248022
 42
0.065297
  0
VERTEX
  8
0
 10
163.783661
 20
100.363908
 42
0.063095
  0
VERTEX
  8
0
 10
163.787138
 20
99.421771
 42
0.061212
  0
VERTEX
  8
0
 10
164.024453
 20
98.500000
 42
-0.048971
  0
VERTEX
  8
0
 10
164.288253
 20
97.569983
 42
-0.028893
  0
VERTEX
  8
0
 10
164.427467
 20
96.422748
 42
-0.028694
  0
VERTEX
  8
0
 10
164.434055
 20
95.249498
 42
-0.043203
  0
VERTEX
  8
0
 10
164.293326
 20
94.237014
 42
0.050249
  0
VERTEX
  8
0
 10
164.173650
 20
93.277219
 42
0.043697
  0
VERTEX
  8
0
 10
164.238183
 20
92.265555
 42
0.045982
  0
VERTEX
  8
0
 10
164.464165
 20
91.353737
 42
0.089710
  0
VERTEX
  8
0
 10
164.831130
 20
90.703476
 42
-0.138930
  0
VERTEX
  8
0
 10
165.370699
 20
89.484214
 42
-0.195921
  0
VERTEX
  8
0
 10
165.084131
 20
88.344847
 42
-0.126767
  0
VERTEX
  8
0
 10
163.896817
 20
87.374333
 42
-0.048366
  0
VERTEX
  8
0
 10
161.864985
 20
86.663780
 42
-0.073350
  0
VERTEX
  8
0
 10
160.353035
 20
86.522270
 42
-0.091790
  0
VERTEX
  8
0
 10
158.985523
 20
86.851396
 42
-0.062653
  0
VERTEX
  8
0
 10
157.463632
 20
87.772775
 42
-0.018040
  0
VERTEX
  8
0
 10
155.364985
 20
89.560666
 42
0.017128
  0
VERTEX
  8
0
 10
153.559527
 20
91.104474
 42
0.010213
  0
VERTEX
  8
0
 10
151.313464
 20
92.821737
 42
0.010217
  0
VERTEX
  8
0
 10
149.003118
 20
94.443022
 42
0.017392
  0
VERTEX
  8
0
 10
147.000000
 20
95.689647
 42
-0.006787
  0
VERTEX
  8
0
 10
145.160828
 20
96.780833
 42
-0.006830
  0
VERTEX
  8
0
 10
143.355799
 20
97.919330
 42
-0.006692
  0
VERTEX
  8
0
 10
141.809917
 20
98.953840
 42
-0.027137
  0
VERTEX
  8
0
 10
140.913357
 20
99.645940
 42
0.136736
  0
VERTEX
  8
0
 10
139.469971
 20
100.325244
 42
0.020917
  0
VERTEX
  8
0
 10
136.287713
 20
100.729200
 42
0.015646
  0
VERTEX
  8
0
 10
131.479333
 20
100.985001
 42
0.004316
  0
VERTEX
  8
0
 10
123.909309
 20
101.085139
 42
0.004756
  0
VERTEX
  8
0
 10
115.547341
 20
101.044022
 42
0.018454
  0
VERTEX
  8
0
 10
110.373622
 20
100.778209
 42
0.028747
  0
VERTEX
  8
0
 10
106.546262
 20
100.216529
 42
0.033276
  0
VERTEX
  8
0
 10
102.995952
 20
99.235024
 42
-0.002146
  0
VERTEX
  8
0
 10
100.599281
 20
98.408860
 42
-0.001583
  0
VERTEX
  8
0
 10
97.939436
 20
97.514114
 42
-0.001600
  0
VERTEX
  8
0
 10
95.419959
 20
96.684401
 42
-0.003584
  0
VERTEX
  8
0
 10
93.500000
 20
96.074112
 42
0.042330
  0
VERTEX
  8
0
 10
82.966078
 20
91.802998
 42
0.048841
  0
VERTEX
  8
0
 10
73.830282
 20
85.980419
 42
0.055336
  0
VERTEX
  8
0
 10
67.218085
 20
79.496738
 42
0.132286
  0
VERTEX
  8
0
 10
64.428187
 20
73.276271
 42
0.040159
  0
VERTEX
  8
0
 10
64.208397
 20
70.474613
 42
0.257512
  0
VERTEX
  8
0
 10
64.873617
 20
69.274274
 42
0.099172
  0
VERTEX
  8
0
 10
66.679997
 20
68.588218
 42
0.003967
  0
VERTEX
  8
0
 10
73.657767
 20
67.481213
 42
-0.020989
  0
VERTEX
  8
0
 10
75.377244
 20
67.148073
 42
-0.019520
  0
VERTEX
  8
0
 10
77.105494
 20
66.665337
 42
-0.019933
  0
VERTEX
  8
0
 10
78.607018
 20
66.115069
 42
-0.060132
  0
VERTEX
  8
0
 10
79.556143
 20
65.582605
 42
-0.295535
  0
VERTEX
  8
0
 10
79.883543
 20
64.725075
 42
-0.284476
  0
VERTEX
  8
0
 10
79.237191
 20
64.050865
 42
-0.024259
  0
VERTEX
  8
0
 10
76.126233
 20
63.408333
 42
-0.000797
  0
VERTEX
  8
0
 10
63.582101
 20
61.466609
 42
-0.006758
  0
VERTEX
  8
0
 10
57.203371
 20
60.577700
 42
-0.043948
  0
VERTEX
  8
0
 10
53.967572
 20
60.457571
 42
-0.052351
  0
VERTEX
  8
0
 10
50.992396
 20
60.923483
 42
-0.011881
  0
VERTEX
  8
0
 10
46.082101
 20
62.355181
 42
0.003673
  0
VERTEX
  8
0
 10
35.684207
 20
65.573005
 42
0.006547
  0
VERTEX
  8
0
 10
27.076071
 20
68.045348
 42
0.007394
  0
VERTEX
  8
0
 10
20.273055
 20
69.795498
 42
0.028830
  0
VERTEX
  8
0
 10
16.000000
 20
70.570276
 42
-0.005747
  0
VERTEX
  8
0
 10
14.175668
 20
70.814760
 42
-0.006328
  0
VERTEX
  8
0
 10
12.415254
 20
71.094106
 42
-0.005930
  0
VERTEX
  8
0
 10
10.918168
 20
71.369448
 42
-0.031741
  0
VERTEX
  8
0
 10
10.115757
 20
71.580508
 42
0.068919
  0
VERTEX
  8
0
 10
9.370244
 20
71.718518
 42
0.019407
  0
VERTEX
  8
0
 10
8.184833
 20
71.726366
 42
0.019174
  0
VERTEX
  8
0
 10
6.830228
 20
71.630663
 42
0.019145
  0
VERTEX
  8
0
 10
5.486228
 20
71.431439
 42
0.050771
  0
VERTEX
  8
0
 10
3.519603
 20
70.851203
 42
0.178052
  0
VERTEX
  8
0
 10
2.560607
 20
69.974205
 42
0.085827
  0
VERTEX
  8
0
 10
2.031403
 20
68.301335
 42
0.006787
  0
VERTEX
  8
0
 10
1.464499
 20
63.661310
 42
0.003550
  0
VERTEX
  8
0
 10
0.759864
 20
56.701534
 42
0.017330
  0
VERTEX
  8
0
 10
0.525855
 20
52.749481
 42
0.025035
  0
VERTEX
  8
0
 10
0.588633
 20
50.295326
 42
0.239843
  0
VERTEX
  8
0
 10
1.115927
 20
49.428353
 42
-0.148512
  0
VERTEX
  8
0
 10
1.378444
 20
49.130458
 42
-0.077399
  0
VERTEX
  8
0
 10
1.513140
 20
48.649376
 42
-0.065863
  0
VERTEX
  8
0
 10
1.505539
 20
48.066003
 42
-0.055517
  0
VERTEX
  8
0
 10
1.349337
 20
47.467975
 42
0.066643
  0
VERTEX
  8
0
 10
1.215885
 20
46.906415
 42
0.114223
  0
VERTEX
  8
0
 10
1.276674
 20
46.431218
 42
0.152290
  0
VERTEX
  8
0
 10
1.517917
 20
46.118415
 42
0.154099
  0
VERTEX
  8
0
 10
1.893011
 20
46.000000
 42
-0.119440
  0
VERTEX
  8
0
 10
2.315230
 20
45.897681
 42
-0.100673
  0
VERTEX
  8
0
 10
2.674822
 20
45.609159
 42
-0.092131
  0
VERTEX
  8
0
 10
2.916305
 20
45.177652
 42
-0.081797
  0
VERTEX
  8
0
 10
3.000000
 20
44.669478
 42
0.084392
  0
VERTEX
  8
0
 10
3.132990
 20
43.887162
 42
0.010790
  0
VERTEX
  8
0
 10
3.733146
 20
42.284700
 42
0.012375
  0
VERTEX
  8
0
 10
4.540148
 20
40.400581
 42
0.010018
  0
VERTEX
  8
0
 10
5.495815
 20
38.419478
 42
-0.009365
  0
VERTEX
  8
0
 10
6.451836
 20
36.444234
 42
-0.011760
  0
VERTEX
  8
0
 10
7.259713
 20
34.577909
 42
-0.009995
  0
VERTEX
  8
0
 10
7.864825
 20
32.994399
 42
-0.085626
  0
VERTEX
  8
0
 10
7.995815
 20
32.250000
 42
0.119116
  0
VERTEX
  8
0
 10
8.112725
 20
31.773222
 42
0.100297
  0
VERTEX
  8
0
 10
8.439396
 20
31.367188
 42
0.091898
  0
VERTEX
  8
0
 10
8.926780
 20
31.094509
 42
0.081884
  0
VERTEX
  8
0
 10
9.500000
 20
31.000000
 42
-0.064853
  0
VERTEX
  8
0
 10
10.073457
 20
30.925306
 42
-0.082425
  0
VERTEX
  8
0
 10
10.559375
 20
30.706250
 42
-0.098894
  0
VERTEX
  8
0
 10
10.884432
 20
30.381354
 42
-0.148195
  0
VERTEX
  8
0
 10
11.000000
 20
30.000000
 42
0.409654
  0
VERTEX
  8
0
 10
12.097446
 20
28.885306
 42
0.041441
  0
VERTEX
  8
0
 10
16.191000
 20
29.160979
 42
0.036293
  0
VERTEX
  8
0
 10
21.569610
 20
30.378607
 42
0.026551
  0
VERTEX
  8
0
 10
27.326568
 20
32.468803
 42
-0.006471
  0
VERTEX
  8
0
 10
30.639141
 20
33.824344
 42
-0.007456
  0
VERTEX
  8
0
 10
33.833429
 20
35.028755
 42
-0.006771
  0
VERTEX
  8
0
 10
36.565034
 20
35.970854
 42
-0.042462
  0
VERTEX
  8
0
 10
38.000000
 20
36.312446
 42
0.023078
  0
VERTEX
  8
0
 10
39.171270
 20
36.543752
 42
0.011159
  0
VERTEX
  8
0
 10
40.646875
 20
36.941733
 42
0.011041
  0
VERTEX
  8
0
 10
42.168831
 20
37.425629
 42
0.015583
  0
VERTEX
  8
0
 10
43.500000
 20
37.928328
 42
-0.008923
  0
VERTEX
  8
0
 10
51.439059
 20
41.047835
 42
-0.037690
  0
VERTEX
  8
0
 10
56.348279
 20
42.465928
 42
-0.035003
  0
VERTEX
  8
0
 10
61.579422
 20
43.181181
 42
-0.006983
  0
VERTEX
  8
0
 10
71.000000
 20
43.670960
 42
0.000000
  0
VERTEX
  8
0
 10
85.500000
 20
44.221898
 42
0.000000
  0
VERTEX
  8
0
 10
82.000000
 20
41.664882
 42
-0.000722
  0
VERTEX
  8
0
 10
80.501608
 20
40.573506
 42
-0.000587
  0
VERTEX
  8
0
 10
78.893153
 20
39.408394
 42
-0.000593
  0
VERTEX
  8
0
 10
77.408853
 20
38.338546
 42
-0.001547
  0
VERTEX
  8
0
 10
76.338392
 20
37.573923
 42
0.051011
  0
VERTEX
  8
0
 10
75.392311
 20
36.745662
 42
0.085822
  0
VERTEX
  8
0
 10
74.816735
 20
35.864352
 42
0.091935
  0
VERTEX
  8
0
 10
74.593825
 20
34.885767
 42
0.066591
  0
VERTEX
  8
0
 10
74.697188
 20
33.769989
 42
0.026966
  0
VERTEX
  8
0
 10
75.587066
 20
30.666923
 42
0.041516
  0
VERTEX
  8
0
 10
76.715554
 20
28.113794
 42
0.050081
  0
VERTEX
  8
0
 10
77.971098
 20
26.275597
 42
0.141978
  0
VERTEX
  8
0
 10
79.249308
 20
25.420873
 42
-0.069183
  0
VERTEX
  8
0
 10
79.918538
 20
25.101323
 42
-0.066404
  0
VERTEX
  8
0
 10
80.485734
 20
24.607616
 42
-0.071330
  0
VERTEX
  8
0
 10
80.869139
 20
24.021809
 42
-0.109713
  0
VERTEX
  8
0
 10
81.000000
 20
23.432612
 42
0.106061
  0
VERTEX
  8
0
 10
81.117266
 20
22.886008
 42
0.099336
  0
VERTEX
  8
0
 10
81.449844
 20
22.420830
 42
0.096145
  0
VERTEX
  8
0
 10
81.946791
 20
22.109002
 42
0.092433
  0
VERTEX
  8
0
 10
82.531385
 20
22.000000
 42
-0.085190
  0
VERTEX
  8
0
 10
83.158079
 20
21.892443
 42
-0.066209
  0
VERTEX
  8
0
 10
83.775121
 20
21.577325
 42
-0.066095
  0
VERTEX
  8
0
 10
84.289368
 20
21.111167
 42
-0.084199
  0
VERTEX
  8
0
 10
84.614925
 20
20.561107
 42
0.128626
  0
VERTEX
  8
0
 10
85.045480
 20
19.960878
 42
0.043786
  0
VERTEX
  8
0
 10
85.935032
 20
19.345519
 42
0.040092
  0
VERTEX
  8
0
 10
87.081108
 20
18.809439
 42
0.036574
  0
VERTEX
  8
0
 10
88.333540
 20
18.443510
 42
-0.009847
  0
VERTEX
  8
0
 10
89.615434
 20
18.142225
 42
-0.010712
  0
VERTEX
  8
0
 10
90.848769
 20
17.798289
 42
-0.010246
  0
VERTEX
  8
0
 10
91.890632
 20
17.460098
 42
-0.050590
  0
VERTEX
  8
0
 10
92.449502
 20
17.200087
 42
0.130689
  0
VERTEX
  8
0
 10
97.779966
 20
15.686623
 42
0.010828
  0
VERTEX
  8
0
 10
112.309943
 20
15.758015
 42
0.006764
  0
VERTEX
  8
0
 10
127.281962
 20
16.358654
 42
0.398593
  0
VERTEX
  8
0
 10
129.000000
 20
18.171382
 42
-0.277431
  0
VERTEX
  8
0
 10
129.147076
 20
18.416048
 42
-0.080612
  0
VERTEX
  8
0
 10
129.581323
 20
18.563538
 42
-0.056048
  0
VERTEX
  8
0
 10
130.220544
 20
18.598452
 42
-0.033222
  0
VERTEX
  8
0
 10
130.978972
 20
18.504050
 42
0.047659
  0
VERTEX
  8
0
 10
131.778996
 20
18.427812
 42
0.053610
  0
VERTEX
  8
0
 10
132.547009
 20
18.510581
 42
0.061025
  0
VERTEX
  8
0
 10
133.172574
 20
18.729317
 42
0.140654
  0
VERTEX
  8
0
 10
133.537989
 20
19.061467
 42
-0.111912
  0
VERTEX
  8
0
 10
133.891617
 20
19.421466
 42
-0.050159
  0
VERTEX
  8
0
 10
134.486039
 20
19.724306
 42
-0.046196
  0
VERTEX
  8
0
 10
135.206738
 20
19.930481
 42
-0.046611
  0
VERTEX
  8
0
 10
135.950863
 20
20.000000
 42
0.165283
  0
VERTEX
  8
0
 10
138.168239
 20
20.753574
 42
0.015326
  0
VERTEX
  8
0
 10
142.712335
 20
24.472432
 42
0.017373
  0
VERTEX
  8
0
 10
146.988619
 20
28.466177
 42
0.119939
  0
VERTEX
  8
0
 10
148.468898
 20
30.902008
 42
-0.239197
  0
VERTEX
  8
0
 10
149.604747
 20
32.057322
 42
-0.118665
  0
VERTEX
  8
0
 10
151.705556
 20
32.242880
 42
-0.094580
  0
VERTEX
  8
0
 10
154.067416
 20
31.416096
 42
-0.107641
  0
VERTEX
  8
0
 10
155.835007
 20
29.802843
 42
0.059609
  0
VERTEX
  8
0
 10
156.536796
 20
29.027491
 42
0.087016
  0
VERTEX
  8
0
 10
157.324034
 20
28.552935
 42
0.092647
  0
VERTEX
  8
0
 10
158.187424
 20
28.392144
 42
0.076823
  0
VERTEX
  8
0
 10
159.112651
 20
28.535754
 42
-0.111710
  0
VERTEX
  8
0
 10
160.175014
 20
28.626095
 42
-0.085442
  0
VERTEX
  8
0
 10
161.289507
 20
28.271384
 42
-0.060428
  0
VERTEX
  8
0
 10
162.532364
 20
27.422353
 42
-0.024859
  0
VERTEX
  8
0
 10
163.999965
 20
26.000038
 42
0.026050
  0
VERTEX
  8
0
 10
165.203440
 20
24.839242
 42
0.038134
  0
VERTEX
  8
0
 10
166.384152
 20
23.961933
 42
0.043001
  0
VERTEX
  8
0
 10
167.393472
 20
23.440508
 42
0.240606
  0
VERTEX
  8
0
 10
167.981269
 20
23.488424
 42
-0.155261
  0
VERTEX
  8
0
 10
169.406651
 20
23.845577
 42
-0.097780
  0
VERTEX
  8
0
 10
171.080454
 20
23.404803
 42
-0.093053
  0
VERTEX
  8
0
 10
172.530658
 20
22.329559
 42
-0.123483
  0
VERTEX
  8
0
 10
173.317251
 20
20.894831
 42
0.032014
  0
VERTEX
  8
0
 10
173.706854
 20
19.718317
 42
0.268056
  0
VERTEX
  8
0
 10
174.131399
 20
19.386637
 42
0.169068
  0
VERTEX
  8
0
 10
174.771808
 20
19.513496
 42
0.012378
  0
VERTEX
  8
0
 10
176.319332
 20
20.473579
 42
-0.095034
  0
VERTEX
  8
0
 10
178.564029
 20
21.397695
 42
-0.085249
  0
VERTEX
  8
0
 10
181.082394
 20
21.475682
 42
-0.096212
  0
VERTEX
  8
0
 10
183.226860
 20
20.738842
 42
-0.172067
  0
VERTEX
  8
0
 10
184.423515
 20
19.338720
 42
0.127168
  0
VERTEX
  8
0
 10
184.872138
 20
18.709501
 42
0.228250
  0
VERTEX
  8
0
 10
185.473660
 20
18.556151
 42
0.091999
  0
VERTEX
  8
0
 10
186.405141
 20
18.931084
 42
0.013157
  0
VERTEX
  8
0
 10
188.118963
 20
20.084709
 42
-0.010647
  0
VERTEX
  8
0
 10
190.039150
 20
21.391294
 42
-0.114284
  0
VERTEX
  8
0
 10
190.918195
 20
21.710784
 42
-0.237856
  0
VERTEX
  8
0
 10
191.552343
 20
21.482167
 42
-0.061967
  0
VERTEX
  8
0
 10
192.213651
 20
20.582711
 42
0.031965
  0
VERTEX
  8
0
 10
192.848239
 20
19.601574
 42
0.242418
  0
VERTEX
  8
0
 10
193.327341
 20
19.365924
 42
0.166629
  0
VERTEX
  8
0
 10
193.913934
 20
19.579229
 42
0.014143
  0
VERTEX
  8
0
 10
195.151610
 20
20.637205
 42
-0.024898
  0
VERTEX
  8
0
 10
196.169689
 20
21.470260
 42
-0.112206
  0
VERTEX
  8
0
 10
196.869380
 20
21.776462
 42
-0.197568
  0
VERTEX
  8
0
 10
197.415649
 20
21.665117
 42
-0.106914
  0
VERTEX
  8
0
 10
197.899321
 20
21.162902
 42
0.070057
  0
VERTEX
  8
0
 10
198.346641
 20
20.624721
 42
0.222859
  0
VERTEX
  8
0
 10
198.782301
 20
20.490481
 42
0.154737
  0
VERTEX
  8
0
 10
199.279599
 20
20.728676
 42
0.031096
  0
VERTEX
  8
0
 10
199.960716
 20
21.452666
 42
-0.063317
  0
VERTEX
  8
0
 10
200.594453
 20
22.044958
 42
-0.044272
  0
VERTEX
  8
0
 10
201.435803
 20
22.545471
 42
-0.044536
  0
VERTEX
  8
0
 10
202.344347
 20
22.886574
 42
-0.067639
  0
VERTEX
  8
0
 10
203.178981
 20
23.000000
 42
-0.036607
  0
VERTEX
  8
0
 10
204.311923
 20
22.916941
 42
-0.360201
  0
VERTEX
  8
0
 10
204.609484
 20
22.586417
 42
-0.137959
  0
VERTEX
  8
0
 10
204.456131
 20
21.939312
 42
-0.006177
  0
VERTEX
  8
0
 10
203.306536
 20
19.927928
 42
-0.013009
  0
VERTEX
  8
0
 10
202.486969
 20
18.613714
 42
-0.009657
  0
VERTEX
  8
0
 10
201.516607
 20
17.204231
 42
-0.009775
  0
VERTEX
  8
0
 10
200.548554
 20
15.908896
 42
-0.021663
  0
VERTEX
  8
0
 10
199.750000
 20
14.969742
 42
0.042750
  0
VERTEX
  8
0
 10
198.401772
 20
13.241625
 42
0.162641
  0
VERTEX
  8
0
 10
198.061719
 20
11.935122
 42
0.333942
  0
VERTEX
  8
0
 10
198.643770
 20
11.261261
 42
0.117930
  0
VERTEX
  8
0
 10
200.000000
 20
11.289749
 42
-0.031834
  0
VERTEX
  8
0
 10
200.766698
 20
11.438896
 42
-0.055745
  0
VERTEX
  8
0
 10
201.412500
 20
11.449946
 42
-0.083094
  0
VERTEX
  8
0
 10
201.849915
 20
11.333551
 42
-0.294311
  0
VERTEX
  8
0
 10
202.000000
 20
11.100660
 42
-0.153753
  0
VERTEX
  8
0
 10
201.651635
 20
9.994569
 42
-0.008138
  0
VERTEX
  8
0
 10
199.455810
 20
6.960741
 42
-0.011183
  0
VERTEX
  8
0
 10
197.189946
 20
4.072043
 42
-0.082614
  0
VERTEX
  8
0
 10
195.876355
 20
2.923583
 42
0.104989
  0
VERTEX
  8
0
 10
195.500915
 20
2.564750
 42
0.099156
  0
VERTEX
  8
0
 10
195.294089
 20
2.077104
 42
0.096437
  0
VERTEX
  8
0
 10
195.288033
 20
1.535762
 42
0.093391
  0
VERTEX
  8
0
 10
195.484613
 20
1.024897
 42
0.245901
  0
VERTEX
  8
0
 10
196.029343
 20
0.702071
 42
0.127674
  0
VERTEX
  8
0
 10
196.824929
 20
0.864356
 42
0.061131
  0
VERTEX
  8
0
 10
197.943947
 20
1.593199
 42
0.017593
  0
VERTEX
  8
0
 10
199.479875
 20
2.980494
 42
-0.010976
  0
VERTEX
  8
0
 10
201.279758
 20
4.649969
 42
-0.087419
  0
VERTEX
  8
0
 10
202.241675
 20
5.241687
 42
-0.260795
  0
VERTEX
  8
0
 10
202.870780
 20
5.157430
 42
-0.141183
  0
VERTEX
  8
0
 10
203.355693
 20
4.515463
 42
-0.033946
  0
VERTEX
  8
0
 10
203.536747
 20
3.927126
 42
-0.118159
  0
VERTEX
  8
0
 10
203.534951
 20
3.532250
 42
-0.308728
  0
VERTEX
  8
0
 10
203.369372
 20
3.383434
 42
-0.173411
  0
VERTEX
  8
0
 10
203.093330
 20
3.442319
 42
0.309465
  0
VERTEX
  8
0
 10
202.486756
 20
3.413995
 42
0.079773
  0
VERTEX
  8
0
 10
201.771343
 20
2.668322
 42
0.065564
  0
VERTEX
  8
0
 10
201.196125
 20
1.548547
 42
0.086112
  0
VERTEX
  8
0
 10
201.000000
 20
0.418213
 42
0.495238
  0
VERTEX
  8
0
 10
201.491509
 20
0.043684
 42
0.123534
  0
VERTEX
  8
0
 10
202.527267
 20
0.628973
 42
0.038555
  0
VERTEX
  8
0
 10
204.285088
 20
2.579212
 42
0.012126
  0
VERTEX
  8
0
 10
206.607809
 20
5.750000
 42
0.024721
  0
VERTEX
  8
0
 10
209.608274
 20
10.551277
 42
0.019844
  0
VERTEX
  8
0
 10
212.364860
 20
15.985600
 42
0.018414
  0
VERTEX
  8
0
 10
214.453767
 20
21.025420
 42
0.089262
  0
VERTEX
  8
0
 10
215.000000
 20
24.060773
 42
-0.100142
  0
VERTEX
  8
0
 10
215.165707
 20
24.879837
 42
-0.043246
  0
VERTEX
  8
0
 10
215.687724
 20
25.868796
 42
-0.040501
  0
VERTEX
  8
0
 10
216.445419
 20
26.859170
 42
-0.042589
  0
VERTEX
  8
0
 10
217.341188
 20
27.696419
 42
0.027316
  0
VERTEX
  8
0
 10
218.321833
 20
28.558482
 42
0.019095
  0
VERTEX
  8
0
 10
219.332798
 20
29.628865
 42
0.019324
  0
VERTEX
  8
0
 10
220.225402
 20
30.732602
 42
0.037515
  0
VERTEX
  8
0
 10
220.833511
 20
31.688913
 42
-0.135353
  0
VERTEX
  8
0
 10
222.581724
 20
33.526539
 42
-0.065738
  0
VERTEX
  8
0
 10
225.577865
 20
34.828649
 42
-0.041254
  0
VERTEX
  8
0
 10
230.168596
 20
35.741191
 42
-0.013036
  0
VERTEX
  8
0
 10
237.137034
 20
36.353821
 42
0.011426
  0
VERTEX
  8
0
 10
240.880752
 20
36.670805
 42
0.008533
  0
VERTEX
  8
0
 10
244.991212
 20
37.184744
 42
0.008636
  0
VERTEX
  8
0
 10
248.849306
 20
37.802310
 42
0.019391
  0
VERTEX
  8
0
 10
251.746060
 20
38.434198
 42
-0.011207
  0
VERTEX
  8
0
 10
254.561280
 20
39.096736
 42
-0.005666
  0
VERTEX
  8
0
 10
258.134878
 20
39.811438
 42
-0.005624
  0
VERTEX
  8
0
 10
261.843864
 20
40.466495
 42
-0.008337
  0
VERTEX
  8
0
 10
265.109026
 20
40.949592
 42
0.002697
  0
VERTEX
  8
0
 10
268.178918
 20
41.368469
 42
0.002577
  0
VERTEX
  8
0
 10
271.291052
 20
41.826598
 42
0.002553
  0
VERTEX
  8
0
 10
274.034635
 20
42.259278
 42
0.009218
  0
VERTEX
  8
0
 10
275.775406
 20
42.575972
 42
0.131314
  0
VERTEX
  8
0
 10
279.554207
 20
44.445955
 42
0.148667
  0
VERTEX
  8
0
 10
281.679605
 20
47.874272
 42
0.132756
  0
VERTEX
  8
0
 10
281.661428
 20
52.224948
 42
0.096159
  0
VERTEX
  8
0
 10
279.500000
 20
56.588887
 42
-0.020917
  0
VERTEX
  8
0
 10
278.543061
 20
57.958715
 42
-0.022892
  0
VERTEX
  8
0
 10
277.734375
 20
59.364035
 42
-0.023112
  0
VERTEX
  8
0
 10
277.158153
 20
60.619868
 42
-0.096287
  0
VERTEX
  8
0
 10
277.000000
 20
61.433515
 42
0.189064
  0
VERTEX
  8
0
 10
276.090678
 20
63.752353
 42
0.014569
  0
VERTEX
  8
0
 10
271.314362
 20
68.613756
 42
0.013353
  0
VERTEX
  8
0
 10
266.248747
 20
73.224148
 42
0.232450
  0
VERTEX
  8
0
 10
264.151347
 20
73.770649
 42
-0.152073
  0
VERTEX
  8
0
 10
263.336945
 20
73.852313
 42
-0.068021
  0
VERTEX
  8
0
 10
262.402311
 20
74.409525
 42
-0.053367
  0
VERTEX
  8
0
 10
261.426548
 20
75.374952
 42
-0.032849
  0
VERTEX
  8
0
 10
260.488828
 20
76.692862
 42
0.083200
  0
VERTEX
  8
0
 10
258.086288
 20
79.439011
 42
0.012505
  0
VERTEX
  8
0
 10
252.287546
 20
83.948834
 42
0.009433
  0
VERTEX
  8
0
 10
246.205951
 20
88.264304
 42
0.150693
  0
VERTEX
  8
0
 10
243.820346
 20
89.000000
 42
0.139906
  0
VERTEX
  8
0
 10
243.440252
 20
88.891522
 42
0.060909
  0
VERTEX
  8
0
 10
243.027562
 20
88.559375
 42
0.053571
  0
VERTEX
  8
0
 10
242.647269
 20
88.073808
 42
0.047777
  0
VERTEX
  8
0
 10
242.361626
 20
87.500000
 42
-0.124942
  0
VERTEX
  8
0
 10
241.560608
 20
86.366042
 42
-0.301799
  0
VERTEX
  8
0
 10
240.588291
 20
86.247827
 42
-0.112973
  0
VERTEX
  8
0
 10
239.302391
 20
87.309599
 42
-0.017747
  0
VERTEX
  8
0
 10
237.381302
 20
90.000000
 42
0.022175
  0
VERTEX
  8
0
 10
235.844547
 20
92.112374
 42
0.077149
  0
VERTEX
  8
0
 10
234.605830
 20
93.251447
 42
0.098013
  0
VERTEX
  8
0
 10
233.248849
 20
93.815793
 42
0.049722
  0
VERTEX
  8
0
 10
231.401041
 20
94.000000
 42
-0.040005
  0
VERTEX
  8
0
 10
229.863677
 20
94.123202
 42
-0.020925
  0
VERTEX
  8
0
 10
227.981011
 20
94.508324
 42
-0.020676
  0
VERTEX
  8
0
 10
226.071837
 20
95.067596
 42
-0.029673
  0
VERTEX
  8
0
 10
224.439031
 20
95.730465
 42
0.010635
  0
VERTEX
  8
0
 10
222.158723
 20
96.758927
 42
0.105780
  0
VERTEX
  8
0
 10
221.134949
 20
96.957579
 42
0.185091
  0
VERTEX
  8
0
 10
220.374440
 20
96.649264
 42
0.047092
  0
VERTEX
  8
0
 10
219.475463
 20
95.635556
 42
-0.175327
  0
VERTEX
  8
0
 10
217.563060
 20
94.348722
 42
-0.127765
  0
VERTEX
  8
0
 10
214.978747
 20
94.371937
 42
-0.120301
  0
VERTEX
  8
0
 10
212.615285
 20
95.671057
 42
-0.146989
  0
VERTEX
  8
0
 10
211.330522
 20
97.829662
 42
0.050692
  0
VERTEX
  8
0
 10
208.556324
 20
105.518307
 42
0.023666
  0
VERTEX
  8
0
 10
203.520374
 20
114.849377
 42
0.016123
  0
VERTEX
  8
0
 10
198.010887
 20
123.361061
 42
0.245800
  0
VERTEX
  8
0
 10
195.000000
 20
124.936393
 42
0.120693
  0
VERTEX
  8
0
 10
194.710870
 20
124.865570
 42
0.013752
  0
VERTEX
  8
0
 10
194.119160
 20
124.536181
 42
0.015980
  0
VERTEX
  8
0
 10
193.428033
 20
124.095710
 42
0.012370
  0
SEQEND
  0
POLYLINE
  8
0
 66
1
 70
1
  0
VERTEX
  8
0
 10
199.000000
 20
3.622445
 42
-0.184603
  0
VERTEX
  8
0
 10
198.918850
 20
3.410139
 42
-0.013803
  0
VERTEX
  8
0
 10
198.485938
 20
2.952641
 42
-0.017649
  0
VERTEX
  8
0
 10
197.920402
 20
2.425681
 42
-0.012436
  0
VERTEX
  8
0
 10
197.250000
 20
1.872445
 42
-0.001576
  0
VERTEX
  8
0
 10
196.120493
 20
0.992360
 42
-0.377591
  0
VERTEX
  8
0
 10
196.000000
 20
1.000000
 42
-0.377591
  0
VERTEX
  8
0
 10
195.992360
 20
1.120493
 42
-0.001576
  0
VERTEX
  8
0
 10
196.872445
 20
2.250000
 42
-0.017685
  0
VERTEX
  8
0
 10
197.763320
 20
3.306759
 42
-0.065617
  0
VERTEX
  8
0
 10
198.426111
 20
3.869516
 42
-0.241985
  0
VERTEX
  8
0
 10
198.806605
 20
3.906950
 42
-0.307699
  0
SEQEND
  0
ENDSEC
  0
EOF
