  0
SECTION
  2
HEADER
  9
$ACADVER
  1
AC1006
  9
$EXTMIN
 10
0.000000
 20
0.000000
 30
0.000000
  9
$EXTMAX
 10
417.000000
 20
182.000000
 30
0.000000
  0
ENDSEC
  0
SECTION
  2
ENTITIES
  0
POLYLINE
  8
0
 66
1
 70
1
  0
VERTEX
  8
0
 10
204.500000
 20
181.137450
 42
0.031273
  0
VERTEX
  8
0
 10
200.255345
 20
180.371253
 42
0.034790
  0
VERTEX
  8
0
 10
196.292463
 20
179.098935
 42
0.037342
  0
VERTEX
  8
0
 10
193.112885
 20
177.543905
 42
0.122535
  0
VERTEX
  8
0
 10
191.452273
 20
175.922775
 42
-0.124994
  0
VERTEX
  8
0
 10
190.837021
 20
175.327946
 42
-0.005687
  0
VERTEX
  8
0
 10
188.256966
 20
173.890011
 42
-0.009200
  0
VERTEX
  8
0
 10
185.116994
 20
172.260576
 42
-0.006434
  0
VERTEX
  8
0
 10
181.521877
 20
170.535397
 42
0.006416
  0
VERTEX
  8
0
 10
177.926894
 20
168.810445
 42
0.009177
  0
VERTEX
  8
0
 10
174.787355
 20
167.181702
 42
0.005662
  0
VERTEX
  8
0
 10
172.207255
 20
165.744457
 42
0.125061
  0
VERTEX
  8
0
 10
171.593412
 20
165.151144
 42
-0.096725
  0
VERTEX
  8
0
 10
170.980710
 20
164.488722
 42
-0.002731
  0
VERTEX
  8
0
 10
167.825320
 20
162.207078
 42
-0.005474
  0
VERTEX
  8
0
 10
164.054719
 20
159.573714
 42
-0.003725
  0
VERTEX
  8
0
 10
159.710396
 20
156.657075
 42
0.010558
  0
VERTEX
  8
0
 10
155.070097
 20
153.448879
 42
0.009483
  0
VERTEX
  8
0
 10
150.397741
 20
149.933688
 42
0.009553
  0
VERTEX
  8
0
 10
146.326052
 20
146.620366
 42
0.029274
  0
VERTEX
  8
0
 10
143.750000
 20
144.168506
 42
0.013458
  0
VERTEX
  8
0
 10
141.072565
 20
141.144267
 42
0.060413
  0
VERTEX
  8
0
 10
139.785265
 20
139.166742
 42
0.079828
  0
VERTEX
  8
0
 10
139.187727
 20
137.214723
 42
0.034448
  0
VERTEX
  8
0
 10
139.000000
 20
134.493181
 42
-0.026673
  0
VERTEX
  8
0
 10
138.895567
 20
132.536898
 42
-0.021550
  0
VERTEX
  8
0
 10
138.581660
 20
130.456502
 42
-0.022057
  0
VERTEX
  8
0
 10
138.123212
 20
128.558125
 42
-0.051108
  0
VERTEX
  8
0
 10
137.575864
 20
127.200340
 42
-0.079132
  0
VERTEX
  8
0
 10
133.592377
 20
121.886288
 42
-0.017685
  0
VERTEX
  8
0
 10
125.152537
 20
114.268609
 42
-0.018983
  0
VERTEX
  8
0
 10
115.969479
 20
107.128115
 42
-0.051667
  0
VERTEX
  8
0
 10
108.829311
 20
103.042645
 42
-0.065897
  0
VERTEX
  8
0
 10
104.846676
 20
101.876398
 42
-0.052175
  0
VERTEX
  8
0
 10
100.361533
 20
101.656407
 42
-0.029801
  0
VERTEX
  8
0
 10
93.996934
 20
102.390487
 42
-0.006286
  0
VERTEX
  8
0
 10
83.000000
 20
104.471070
 42
0.003700
  0
VERTEX
  8
0
 10
79.620238
 20
105.128632
 42
0.002302
  0
VERTEX
  8
0
 10
75.646875
 20
105.852298
 42
0.002309
  0
VERTEX
  8
0
 10
71.720618
 20
106.530043
 42
0.004179
  0
VERTEX
  8
0
 10
68.500000
 20
107.043043
 42
-0.003374
  0
VERTEX
  8
0
 10
65.490434
 20
107.517459
 42
-0.002650
  0
VERTEX
  8
0
 10
62.234375
 20
108.071007
 42
-0.002678
  0
VERTEX
  8
0
 10
59.212188
 20
108.617993
 42
-0.006588
  0
VERTEX
  8
0
 10
57.000000
 20
109.060867
 42
0.007629
  0
VERTEX
  8
0
 10
54.787720
 20
109.498974
 42
0.003106
  0
VERTEX
  8
0
 10
51.765625
 20
110.030298
 42
0.003073
  0
VERTEX
  8
0
 10
48.509565
 20
110.561363
 42
0.003914
  0
VERTEX
  8
0
 10
45.500000
 20
111.009146
 42
-0.002802
  0
VERTEX
  8
0
 10
42.454344
 20
111.455377
 42
-0.002067
  0
VERTEX
  8
0
 10
39.087500
 20
111.982211
 42
-0.002089
  0
VERTEX
  8
0
 10
35.909041
 20
112.506671
 42
-0.004677
  0
VERTEX
  8
0
 10
33.500000
 20
112.937739
 42
0.018973
  0
VERTEX
  8
0
 10
31.047621
 20
113.304557
 42
0.007896
  0
VERTEX
  8
0
 10
27.714726
 20
113.621271
 42
0.007799
  0
VERTEX
  8
0
 10
24.130668
 20
113.848639
 42
0.009997
  0
VERTEX
  8
0
 10
20.826725
 20
113.940389
 42
0.009899
  0
VERTEX
  8
0
 10
16.391615
 20
113.887034
 42
0.049348
  0
VERTEX
  8
0
 10
13.926267
 20
113.563608
 42
0.075021
  0
VERTEX
  8
0
 10
12.080796
 20
112.829025
 42
0.042757
  0
VERTEX
  8
0
 10
10.114372
 20
111.442784
 42
0.037549
  0
VERTEX
  8
0
 10
8.703868
 20
110.062502
 42
0.013951
  0
VERTEX
  8
0
 10
6.928839
 20
107.926069
 42
0.013733
  0
VERTEX
  8
0
 10
5.114934
 20
105.479095
 42
0.016137
  0
VERTEX
  8
0
 10
3.537647
 20
103.061973
 42
0.018467
  0
VERTEX
  8
0
 10
1.420390
 20
99.267595
 42
0.064246
  0
VERTEX
  8
0
 10
0.476223
 20
96.629705
 42
0.047116
  0
VERTEX
  8
0
 10
0.088772
 20
93.449631
 42
0.006770
  0
VERTEX
  8
0
 10
0.000000
 20
86.893220
 42
0.000000
  0
VERTEX
  8
0
 10
0.000000
 20
76.548062
 42
0.000000
  0
VERTEX
  8
0
 10
5.250000
 20
68.829825
 42
0.033352
  0
VERTEX
  8
0
 10
10.008088
 20
62.749440
 42
0.063568
  0
VERTEX
  8
0
 10
14.695038
 20
58.695099
 42
0.082565
  0
VERTEX
  8
0
 10
19.308348
 20
56.626990
 42
0.112687
  0
VERTEX
  8
0
 10
23.846852
 20
56.480578
 42
-0.006035
  0
VERTEX
  8
0
 10
25.826328
 20
56.841006
 42
-0.001505
  0
VERTEX
  8
0
 10
29.070638
 20
57.381329
 42
-0.001538
  0
VERTEX
  8
0
 10
32.786409
 20
57.976958
 42
-0.001545
  0
VERTEX
  8
0
 10
36.500000
 20
58.548778
 42
0.008452
  0
VERTEX
  8
0
 10
45.661951
 20
60.089391
 42
0.005098
  0
VERTEX
  8
0
 10
56.469100
 20
62.209263
 42
0.004850
  0
VERTEX
  8
0
 10
68.024925
 20
64.715725
 42
0.004888
  0
VERTEX
  8
0
 10
79.500000
 20
67.439686
 42
-0.000166
  0
VERTEX
  8
0
 10
82.231387
 20
68.115373
 42
-0.000097
  0
VERTEX
  8
0
 10
85.500000
 20
68.922131
 42
-0.000097
  0
VERTEX
  8
0
 10
88.768631
 20
69.727543
 42
-0.000166
  0
VERTEX
  8
0
 10
91.500000
 20
70.399042
 42
0.000773
  0
VERTEX
  8
0
 10
94.089980
 20
71.039116
 42
0.000596
  0
VERTEX
  8
0
 10
96.912500
 20
71.744867
 42
0.000603
  0
VERTEX
  8
0
 10
99.547752
 20
72.410514
 42
0.001444
  0
VERTEX
  8
0
 10
101.500000
 20
72.912149
 42
-0.036451
  0
VERTEX
  8
0
 10
106.308256
 20
73.794711
 42
-0.128196
  0
VERTEX
  8
0
 10
109.394606
 20
73.339803
 42
-0.086757
  0
VERTEX
  8
0
 10
112.504532
 20
71.326983
 42
-0.011490
  0
VERTEX
  8
0
 10
118.152097
 20
65.845430
 42
-0.006884
  0
VERTEX
  8
0
 10
121.410698
 20
62.441353
 42
-0.006932
  0
VERTEX
  8
0
 10
124.566652
 20
58.956670
 42
-0.006792
  0
VERTEX
  8
0
 10
127.232532
 20
55.845608
 42
-0.027582
  0
VERTEX
  8
0
 10
128.720987
 20
53.845430
 42
0.012524
  0
VERTEX
  8
0
 10
129.749920
 20
52.372155
 42
0.018159
  0
VERTEX
  8
0
 10
130.736391
 20
51.129595
 42
0.013959
  0
VERTEX
  8
0
 10
131.600277
 20
50.174395
 42
0.204699
  0
VERTEX
  8
0
 10
132.008408
 20
50.000000
 42
-0.168752
  0
VERTEX
  8
0
 10
132.495408
 20
49.830817
 42
-0.003239
  0
VERTEX
  8
0
 10
134.609032
 20
48.138368
 42
-0.007452
  0
VERTEX
  8
0
 10
137.056323
 20
46.091354
 42
-0.004877
  0
VERTEX
  8
0
 10
139.818744
 20
43.662529
 42
0.012640
  0
VERTEX
  8
0
 10
143.990179
 20
40.108139
 42
0.040102
  0
VERTEX
  8
0
 10
147.013344
 20
38.038729
 42
0.044108
  0
VERTEX
  8
0
 10
150.170744
 20
36.583262
 42
0.017839
  0
VERTEX
  8
0
 10
154.693221
 20
35.144032
 42
-0.002820
  0
VERTEX
  8
0
 10
157.902066
 20
34.228016
 42
-0.002853
  0
VERTEX
  8
0
 10
161.088009
 20
33.279313
 42
-0.002778
  0
VERTEX
  8
0
 10
163.852058
 20
32.422237
 42
-0.011615
  0
VERTEX
  8
0
 10
165.500000
 20
31.858767
 42
0.024071
  0
VERTEX
  8
0
 10
166.997323
 20
31.388105
 42
0.009621
  0
VERTEX
  8
0
 10
169.087500
 20
30.882843
 42
0.009495
  0
VERTEX
  8
0
 10
171.365878
 20
30.423481
 42
0.011816
  0
VERTEX
  8
0
 10
173.500000
 20
30.087107
 42
-0.054373
  0
VERTEX
  8
0
 10
178.309478
 20
28.903322
 42
-0.024331
  0
VERTEX
  8
0
 10
184.321574
 20
26.371152
 42
-0.024018
  0
VERTEX
  8
0
 10
190.378635
 20
23.098960
 42
-0.033636
  0
VERTEX
  8
0
 10
195.416263
 20
19.573698
 42
0.011792
  0
VERTEX
  8
0
 10
197.595194
 20
17.902617
 42
0.003451
  0
VERTEX
  8
0
 10
201.021456
 20
15.437065
 42
0.003465
  0
VERTEX
  8
0
 10
204.917216
 20
12.714642
 42
0.003709
  0
VERTEX
  8
0
 10
208.763161
 20
10.108346
 42
-0.007892
  0
VERTEX
  8
0
 10
212.400214
 20
7.598958
 42
-0.010085
  0
VERTEX
  8
0
 10
215.665813
 20
5.168070
 42
-0.008224
  0
VERTEX
  8
0
 10
218.311810
 20
3.043536
 42
-0.080065
  0
VERTEX
  8
0
 10
219.253707
 20
1.965358
 42
0.161586
  0
VERTEX
  8
0
 10
220.588684
 20
0.858725
 42
0.066575
  0
VERTEX
  8
0
 10
222.899421
 20
0.296210
 42
0.024170
  0
VERTEX
  8
0
 10
227.203876
 20
0.048404
 42
0.002294
  0
VERTEX
  8
0
 10
237.754116
 20
-0.000000
 42
0.004256
  0
VERTEX
  8
0
 10
245.753778
 20
0.068101
 42
0.011825
  0
VERTEX
  8
0
 10
251.370996
 20
0.296705
 42
0.012877
  0
VERTEX
  8
0
 10
255.344137
 20
0.655564
 42
0.111058
  0
VERTEX
  8
0
 10
257.013569
 20
1.240547
 42
-0.041423
  0
VERTEX
  8
0
 10
258.106995
 20
1.803486
 42
-0.098479
  0
VERTEX
  8
0
 10
259.000000
 20
1.981094
 42
-0.098479
  0
VERTEX
  8
0
 10
259.893005
 20
1.803486
 42
-0.041423
  0
VERTEX
  8
0
 10
260.986431
 20
1.240547
 42
0.130092
  0
VERTEX
  8
0
 10
264.734652
 20
0.083072
 42
0.012071
  0
VERTEX
  8
0
 10
274.511858
 20
-0.079672
 42
0.008089
  0
VERTEX
  8
0
 10
284.560756
 20
0.158277
 42
0.299649
  0
VERTEX
  8
0
 10
286.335000
 20
1.430614
 42
-0.165217
  0
VERTEX
  8
0
 10
286.878045
 20
2.083401
 42
-0.023472
  0
VERTEX
  8
0
 10
288.428819
 20
2.935638
 42
-0.024626
  0
VERTEX
  8
0
 10
290.427720
 20
3.795704
 42
-0.018725
  0
VERTEX
  8
0
 10
292.691989
 20
4.545153
 42
0.008625
  0
VERTEX
  8
0
 10
295.208202
 20
5.321978
 42
0.006350
  0
VERTEX
  8
0
 10
297.968897
 20
6.265718
 42
0.006420
  0
VERTEX
  8
0
 10
300.557763
 20
7.225228
 42
0.014221
  0
VERTEX
  8
0
 10
302.500000
 20
8.037736
 42
-0.001146
  0
VERTEX
  8
0
 10
304.424166
 20
8.902466
 42
-0.000515
  0
VERTEX
  8
0
 10
306.956372
 20
10.030358
 42
-0.000509
  0
VERTEX
  8
0
 10
309.634882
 20
11.216849
 42
-0.000693
  0
VERTEX
  8
0
 10
312.053608
 20
12.281314
 42
0.034188
  0
VERTEX
  8
0
 10
316.578981
 20
14.646186
 42
0.032423
  0
VERTEX
  8
0
 10
320.824916
 20
17.643693
 42
0.034303
  0
VERTEX
  8
0
 10
324.299625
 20
20.868569
 42
0.070440
  0
VERTEX
  8
0
 10
326.432835
 20
23.898444
 42
0.032006
  0
VERTEX
  8
0
 10
326.993073
 20
25.191662
 42
0.013838
  0
VERTEX
  8
0
 10
327.578590
 20
26.975583
 42
0.013627
  0
VERTEX
  8
0
 10
328.098878
 20
28.914118
 42
0.017585
  0
VERTEX
  8
0
 10
328.464677
 20
30.720563
 42
-0.080248
  0
VERTEX
  8
0
 10
330.327827
 20
36.254044
 42
-0.166724
  0
VERTEX
  8
0
 10
333.603154
 20
39.338856
 42
-0.166248
  0
VERTEX
  8
0
 10
338.089663
 20
39.768905
 42
-0.079698
  0
VERTEX
  8
0
 10
343.500000
 20
37.526086
 42
0.032614
  0
VERTEX
  8
0
 10
347.166629
 20
35.585224
 42
0.112080
  0
VERTEX
  8
0
 10
349.790337
 20
35.057730
 42
0.199863
  0
VERTEX
  8
0
 10
351.523121
 20
35.830195
 42
0.140216
  0
VERTEX
  8
0
 10
352.518454
 20
37.750000
 42
-0.052706
  0
VERTEX
  8
0
 10
353.695431
 20
41.488510
 42
-0.019372
  0
VERTEX
  8
0
 10
356.101158
 20
46.480770
 42
-0.019656
  0
VERTEX
  8
0
 10
358.960036
 20
51.392660
 42
-0.039630
  0
VERTEX
  8
0
 10
361.654129
 20
54.968911
 42
-0.055174
  0
VERTEX
  8
0
 10
363.834830
 20
56.943010
 42
-0.021099
  0
VERTEX
  8
0
 10
367.256831
 20
59.201099
 42
-0.016530
  0
VERTEX
  8
0
 10
371.928242
 20
61.802074
 42
-0.007661
  0
VERTEX
  8
0
 10
378.154129
 20
64.884057
 42
0.001476
  0
VERTEX
  8
0
 10
389.789845
 20
70.465944
 42
0.008973
  0
VERTEX
  8
0
 10
395.750459
 20
73.480170
 42
0.017157
  0
VERTEX
  8
0
 10
399.652874
 20
75.716853
 42
0.023308
  0
VERTEX
  8
0
 10
403.000000
 20
78.013450
 42
-0.001290
  0
VERTEX
  8
0
 10
404.708416
 20
79.299812
 42
-0.000541
  0
VERTEX
  8
0
 10
407.014063
 20
81.022664
 42
-0.000536
  0
VERTEX
  8
0
 10
409.483783
 20
82.859840
 42
-0.000697
  0
VERTEX
  8
0
 10
411.750000
 20
84.536974
 42
0.012279
  0
VERTEX
  8
0
 10
414.971475
 20
87.038577
 42
0.085561
  0
VERTEX
  8
0
 10
416.274248
 20
88.538223
 42
0.110276
  0
VERTEX
  8
0
 10
416.843158
 20
90.227247
 42
0.026313
  0
VERTEX
  8
0
 10
417.000000
 20
93.205486
 42
0.024234
  0
VERTEX
  8
0
 10
416.892515
 20
95.421847
 42
0.040236
  0
VERTEX
  8
0
 10
416.562630
 20
97.262438
 42
0.048613
  0
VERTEX
  8
0
 10
416.015964
 20
98.737462
 42
0.076988
  0
VERTEX
  8
0
 10
415.250000
 20
99.843387
 42
-0.026322
  0
VERTEX
  8
0
 10
414.462199
 20
100.765922
 42
-0.012051
  0
VERTEX
  8
0
 10
413.529329
 20
102.045237
 42
-0.011897
  0
VERTEX
  8
0
 10
412.609524
 20
103.442568
 42
-0.016077
  0
VERTEX
  8
0
 10
411.849844
 20
104.750459
 42
0.074922
  0
VERTEX
  8
0
 10
410.657193
 20
106.340240
 42
0.016960
  0
VERTEX
  8
0
 10
408.166681
 20
108.631199
 42
0.016551
  0
VERTEX
  8
0
 10
404.981051
 20
111.189814
 42
0.012776
  0
VERTEX
  8
0
 10
401.349844
 20
113.771346
 42
-0.014010
  0
VERTEX
  8
0
 10
393.398924
 20
119.453456
 42
-0.023266
  0
VERTEX
  8
0
 10
387.071995
 20
124.729021
 42
-0.026842
  0
VERTEX
  8
0
 10
381.964875
 20
129.937492
 42
-0.031547
  0
VERTEX
  8
0
 10
377.734130
 20
135.401931
 42
0.042583
  0
VERTEX
  8
0
 10
371.003007
 20
143.710890
 42
0.032121
  0
VERTEX
  8
0
 10
362.326760
 20
151.642471
 42
0.030900
  0
VERTEX
  8
0
 10
352.295170
 20
158.722474
 42
0.031211
  0
VERTEX
  8
0
 10
341.500000
 20
164.486131
 42
-0.000290
  0
VERTEX
  8
0
 10
338.910017
 20
165.669519
 42
-0.000224
  0
VERTEX
  8
0
 10
336.087500
 20
166.962661
 42
-0.000226
  0
VERTEX
  8
0
 10
333.452201
 20
168.172897
 42
-0.000542
  0
VERTEX
  8
0
 10
331.500000
 20
169.073061
 42
0.021703
  0
VERTEX
  8
0
 10
328.265715
 20
170.401522
 42
0.008447
  0
VERTEX
  8
0
 10
323.689371
 20
171.966173
 42
0.006722
  0
VERTEX
  8
0
 10
317.724648
 20
173.805414
 42
0.003197
  0
VERTEX
  8
0
 10
310.000000
 20
176.020526
 42
0.053123
  0
VERTEX
  8
0
 10
307.636098
 20
176.418341
 42
0.003554
  0
VERTEX
  8
0
 10
300.771875
 20
176.785723
 42
0.005088
  0
VERTEX
  8
0
 10
292.564774
 20
177.082836
 42
0.003785
  0
VERTEX
  8
0
 10
283.500000
 20
177.250005
 42
-0.002378
  0
VERTEX
  8
0
 10
270.895018
 20
177.446964
 42
-0.013418
  0
VERTEX
  8
0
 10
264.174817
 20
177.764483
 42
-0.024532
  0
VERTEX
  8
0
 10
260.010497
 20
178.279720
 42
-0.082483
  0
VERTEX
  8
0
 10
257.426951
 20
179.184175
 42
0.080664
  0
VERTEX
  8
0
 10
254.886291
 20
180.083939
 42
0.023220
  0
VERTEX
  8
0
 10
250.740584
 20
180.638397
 42
0.013439
  0
VERTEX
  8
0
 10
244.178438
 20
181.030268
 42
0.002672
  0
VERTEX
  8
0
 10
232.426951
 20
181.352653
 42
0.003451
  0
VERTEX
  8
0
 10
223.592050
 20
181.486795
 42
0.003997
  0
VERTEX
  8
0
 10
215.178542
 20
181.489212
 42
0.003575
  0
VERTEX
  8
0
 10
208.057432
 20
181.383419
 42
0.023518
  0
SEQEND
  0
ENDSEC
  0
EOF
