  0
SECTION
  2
HEADER
  9
$ACADVER
  1
AC1006
  9
$EXTMIN
 10
0.000000
 20
0.000000
 30
0.000000
  9
$EXTMAX
 10
418.000000
 20
183.000000
 30
0.000000
  0
ENDSEC
  0
SECTION
  2
ENTITIES
  0
POLYLINE
  8
0
 66
1
 70
1
  0
VERTEX
  8
0
 10
203.553851
 20
182.087132
 42
-0.118771
  0
VERTEX
  8
0
 10
203.132657
 20
181.669805
 42
-0.048621
  0
VERTEX
  8
0
 10
202.401908
 20
181.319345
 42
-0.044485
  0
VERTEX
  8
0
 10
201.507851
 20
181.080444
 42
-0.043076
  0
VERTEX
  8
0
 10
200.575842
 20
181.000000
 42
0.066250
  0
VERTEX
  8
0
 10
199.510399
 20
180.858207
 42
0.031662
  0
VERTEX
  8
0
 10
198.200256
 20
180.412500
 42
0.030705
  0
VERTEX
  8
0
 10
196.869898
 20
179.765576
 42
0.038147
  0
VERTEX
  8
0
 10
195.727129
 20
179.000000
 42
-0.019049
  0
VERTEX
  8
0
 10
194.673581
 20
178.234382
 42
-0.021832
  0
VERTEX
  8
0
 10
193.610572
 20
177.587500
 42
-0.021604
  0
VERTEX
  8
0
 10
192.671437
 20
177.122421
 42
-0.104532
  0
VERTEX
  8
0
 10
192.092271
 20
177.000000
 42
0.082906
  0
VERTEX
  8
0
 10
191.675117
 20
176.930352
 42
0.092619
  0
VERTEX
  8
0
 10
191.320855
 20
176.729590
 42
0.100600
  0
VERTEX
  8
0
 10
191.083965
 20
176.430573
 42
0.117906
  0
VERTEX
  8
0
 10
191.000000
 20
176.079455
 42
-0.240376
  0
VERTEX
  8
0
 10
190.795909
 20
175.679460
 42
-0.041498
  0
VERTEX
  8
0
 10
190.045312
 20
175.225185
 42
-0.037225
  0
VERTEX
  8
0
 10
188.994914
 20
174.797236
 42
-0.025459
  0
VERTEX
  8
0
 10
187.750000
 20
174.463983
 42
0.015288
  0
VERTEX
  8
0
 10
186.432439
 20
174.139843
 42
0.016135
  0
VERTEX
  8
0
 10
185.160938
 20
173.740851
 42
0.015957
  0
VERTEX
  8
0
 10
184.090563
 20
173.327853
 42
0.067361
  0
VERTEX
  8
0
 10
183.500000
 20
172.978114
 42
-0.092743
  0
VERTEX
  8
0
 10
182.837049
 20
172.629397
 42
-0.012686
  0
VERTEX
  8
0
 10
181.325000
 20
172.204556
 42
-0.014222
  0
VERTEX
  8
0
 10
179.487713
 20
171.793519
 42
-0.011584
  0
VERTEX
  8
0
 10
177.500000
 20
171.455409
 42
0.030097
  0
VERTEX
  8
0
 10
175.104312
 20
170.956051
 42
0.035913
  0
VERTEX
  8
0
 10
172.927827
 20
170.192340
 42
0.037541
  0
VERTEX
  8
0
 10
170.967027
 20
169.160760
 42
0.039354
  0
VERTEX
  8
0
 10
169.215204
 20
167.861823
 42
-0.029740
  0
VERTEX
  8
0
 10
167.795896
 20
166.766575
 42
-0.029238
  0
VERTEX
  8
0
 10
166.248816
 20
165.840660
 42
-0.030562
  0
VERTEX
  8
0
 10
164.799763
 20
165.193994
 42
-0.089901
  0
VERTEX
  8
0
 10
163.729557
 20
165.000000
 42
0.063947
  0
VERTEX
  8
0
 10
162.561572
 20
164.850009
 42
0.015742
  0
VERTEX
  8
0
 10
160.702239
 20
164.301390
 42
0.015857
  0
VERTEX
  8
0
 10
158.595545
 20
163.532117
 42
0.015262
  0
VERTEX
  8
0
 10
156.514353
 20
162.621755
 42
-0.001015
  0
VERTEX
  8
0
 10
154.411226
 20
161.629495
 42
-0.000926
  0
VERTEX
  8
0
 10
152.238591
 20
160.614736
 42
-0.000926
  0
VERTEX
  8
0
 10
150.293690
 20
159.715102
 42
-0.003011
  0
VERTEX
  8
0
 10
149.000000
 20
159.129013
 42
0.007225
  0
VERTEX
  8
0
 10
147.225971
 20
158.307225
 42
0.010436
  0
VERTEX
  8
0
 10
145.684234
 20
157.525775
 42
0.008420
  0
VERTEX
  8
0
 10
143.952499
 20
156.564303
 42
0.002964
  0
VERTEX
  8
0
 10
141.500000
 20
155.128663
 42
-0.013782
  0
VERTEX
  8
0
 10
140.606563
 20
154.631298
 42
-0.009615
  0
VERTEX
  8
0
 10
139.573438
 20
154.117929
 42
-0.009708
  0
VERTEX
  8
0
 10
138.562974
 20
153.663620
 42
-0.019795
  0
VERTEX
  8
0
 10
137.750000
 20
153.354336
 42
0.037265
  0
VERTEX
  8
0
 10
137.080209
 20
153.072386
 42
0.047191
  0
VERTEX
  8
0
 10
136.514062
 20
152.711700
 42
0.054795
  0
VERTEX
  8
0
 10
136.121795
 20
152.330540
 42
0.174303
  0
VERTEX
  8
0
 10
136.000000
 20
151.991777
 42
-0.225705
  0
VERTEX
  8
0
 10
135.838182
 20
151.651565
 42
-0.043530
  0
VERTEX
  8
0
 10
135.258153
 20
151.258269
 42
-0.038648
  0
VERTEX
  8
0
 10
134.441788
 20
150.882295
 42
-0.027114
  0
VERTEX
  8
0
 10
133.474564
 20
150.582972
 42
0.074176
  0
VERTEX
  8
0
 10
130.999441
 20
149.554010
 42
0.079119
  0
VERTEX
  8
0
 10
128.993735
 20
147.864708
 42
0.076151
  0
VERTEX
  8
0
 10
127.555867
 20
145.575864
 42
0.062084
  0
VERTEX
  8
0
 10
126.741704
 20
142.795736
 42
-0.063855
  0
VERTEX
  8
0
 10
126.175293
 20
140.886601
 42
-0.043463
  0
VERTEX
  8
0
 10
125.082250
 20
138.899144
 42
-0.034147
  0
VERTEX
  8
0
 10
123.384790
 20
136.702754
 42
-0.016766
  0
VERTEX
  8
0
 10
120.949776
 20
134.139547
 42
-0.006051
  0
VERTEX
  8
0
 10
118.899832
 20
132.169959
 42
-0.009138
  0
VERTEX
  8
0
 10
117.063345
 20
130.509742
 42
-0.004573
  0
VERTEX
  8
0
 10
115.481457
 20
129.156627
 42
-0.176413
  0
VERTEX
  8
0
 10
115.051351
 20
129.000000
 42
0.165274
  0
VERTEX
  8
0
 10
114.655377
 20
128.865436
 42
0.011567
  0
VERTEX
  8
0
 10
113.728810
 20
128.118750
 42
0.015402
  0
VERTEX
  8
0
 10
112.650322
 20
127.149237
 42
0.010944
  0
VERTEX
  8
0
 10
111.500000
 20
126.000000
 42
-0.020980
  0
VERTEX
  8
0
 10
110.303319
 20
124.851493
 42
-0.025305
  0
VERTEX
  8
0
 10
109.084442
 20
123.881250
 42
-0.025239
  0
VERTEX
  8
0
 10
107.996822
 20
123.182218
 42
-0.130933
  0
VERTEX
  8
0
 10
107.312909
 20
123.000000
 42
0.113493
  0
VERTEX
  8
0
 10
106.812083
 20
122.884836
 42
0.100277
  0
VERTEX
  8
0
 10
106.385667
 20
122.559375
 42
0.093988
  0
VERTEX
  8
0
 10
106.099540
 20
122.072776
 42
0.086246
  0
VERTEX
  8
0
 10
106.000000
 20
121.500000
 42
-0.101174
  0
VERTEX
  8
0
 10
105.882975
 20
120.927588
 42
-0.098422
  0
VERTEX
  8
0
 10
105.550156
 20
120.440625
 42
-0.097427
  0
VERTEX
  8
0
 10
105.053098
 20
120.114397
 42
-0.096942
  0
VERTEX
  8
0
 10
104.468615
 20
120.000000
 42
0.088478
  0
VERTEX
  8
0
 10
103.840167
 20
119.887915
 42
0.066520
  0
VERTEX
  8
0
 10
103.217991
 20
119.559375
 42
0.065663
  0
VERTEX
  8
0
 10
102.696157
 20
119.073415
 42
0.081035
  0
VERTEX
  8
0
 10
102.361626
 20
118.500000
 42
-0.064687
  0
VERTEX
  8
0
 10
102.051583
 20
117.926489
 42
-0.061623
  0
VERTEX
  8
0
 10
101.600867
 20
117.440625
 42
-0.066345
  0
VERTEX
  8
0
 10
101.084084
 20
117.111332
 42
-0.109137
  0
VERTEX
  8
0
 10
100.580102
 20
117.000000
 42
0.136048
  0
VERTEX
  8
0
 10
99.941906
 20
116.823075
 42
0.023289
  0
VERTEX
  8
0
 10
98.884130
 20
116.118750
 42
0.023895
  0
VERTEX
  8
0
 10
97.688827
 20
115.148607
 42
0.019313
  0
VERTEX
  8
0
 10
96.500000
 20
114.000000
 42
-0.015662
  0
VERTEX
  8
0
 10
95.328155
 20
112.851144
 42
-0.020494
  0
VERTEX
  8
0
 10
94.184082
 20
111.881250
 42
-0.018516
  0
VERTEX
  8
0
 10
93.187947
 20
111.162283
 42
-0.148107
  0
VERTEX
  8
0
 10
92.652108
 20
111.000000
 42
0.157175
  0
VERTEX
  8
0
 10
92.116800
 20
110.827464
 42
0.018264
  0
VERTEX
  8
0
 10
91.109262
 20
110.045313
 42
0.020518
  0
VERTEX
  8
0
 10
89.953234
 20
108.994673
 42
0.015408
  0
VERTEX
  8
0
 10
88.767203
 20
107.750000
 42
-0.034807
  0
VERTEX
  8
0
 10
86.743982
 20
105.785211
 42
-0.112750
  0
VERTEX
  8
0
 10
85.090962
 20
104.931742
 42
-0.062451
  0
VERTEX
  8
0
 10
82.742892
 20
104.631163
 42
-0.005747
  0
VERTEX
  8
0
 10
76.860472
 20
104.683602
 42
-0.009318
  0
VERTEX
  8
0
 10
73.328625
 20
104.821567
 42
-0.012783
  0
VERTEX
  8
0
 10
70.160024
 20
105.085944
 42
-0.009526
  0
VERTEX
  8
0
 10
67.552631
 20
105.421154
 42
-0.130387
  0
VERTEX
  8
0
 10
66.682468
 20
105.795453
 42
0.087934
  0
VERTEX
  8
0
 10
65.935802
 20
106.193827
 42
0.015604
  0
VERTEX
  8
0
 10
64.408236
 20
106.638869
 42
0.016456
  0
VERTEX
  8
0
 10
62.563221
 20
107.050244
 42
0.014170
  0
VERTEX
  8
0
 10
60.600887
 20
107.363159
 42
-0.013255
  0
VERTEX
  8
0
 10
58.644494
 20
107.671456
 42
-0.015748
  0
VERTEX
  8
0
 10
56.817503
 20
108.069086
 42
-0.014631
  0
VERTEX
  8
0
 10
55.309306
 20
108.494710
 42
-0.090768
  0
VERTEX
  8
0
 10
54.600887
 20
108.868356
 42
0.107710
  0
VERTEX
  8
0
 10
53.844571
 20
109.235381
 42
0.012249
  0
VERTEX
  8
0
 10
51.976474
 20
109.638854
 42
0.014357
  0
VERTEX
  8
0
 10
49.700833
 20
110.004941
 42
0.011220
  0
VERTEX
  8
0
 10
47.212642
 20
110.275608
 42
-0.013677
  0
VERTEX
  8
0
 10
44.712402
 20
110.560023
 42
-0.016822
  0
VERTEX
  8
0
 10
42.399736
 20
110.967164
 42
-0.015348
  0
VERTEX
  8
0
 10
40.501438
 20
111.428891
 42
-0.106255
  0
VERTEX
  8
0
 10
39.657337
 20
111.869422
 42
0.156770
  0
VERTEX
  8
0
 10
36.957641
 20
112.953086
 42
0.006284
  0
VERTEX
  8
0
 10
26.268025
 20
113.575257
 42
0.008373
  0
VERTEX
  8
0
 10
15.797458
 20
113.877151
 42
0.096946
  0
VERTEX
  8
0
 10
11.778249
 20
113.140756
 42
0.068018
  0
VERTEX
  8
0
 10
10.622768
 20
112.493937
 42
0.037103
  0
VERTEX
  8
0
 10
9.399231
 20
111.420115
 42
0.036179
  0
VERTEX
  8
0
 10
8.296789
 20
110.121762
 42
0.047434
  0
VERTEX
  8
0
 10
7.501496
 20
108.785491
 42
-0.008739
  0
VERTEX
  8
0
 10
6.133774
 20
106.021668
 42
-0.011675
  0
VERTEX
  8
0
 10
4.790999
 20
103.565822
 42
-0.013076
  0
VERTEX
  8
0
 10
3.512819
 20
101.480389
 42
-0.023723
  0
VERTEX
  8
0
 10
2.345153
 20
99.856652
 42
0.102627
  0
VERTEX
  8
0
 10
1.259950
 20
97.700801
 42
0.044383
  0
VERTEX
  8
0
 10
0.703809
 20
94.520120
 42
0.029877
  0
VERTEX
  8
0
 10
0.592449
 20
90.004725
 42
0.010103
  0
VERTEX
  8
0
 10
0.956006
 20
83.435239
 42
0.007308
  0
VERTEX
  8
0
 10
1.438319
 20
78.096884
 42
0.040310
  0
VERTEX
  8
0
 10
1.969869
 20
75.261116
 42
0.072938
  0
VERTEX
  8
0
 10
2.791109
 20
73.379274
 42
0.066669
  0
VERTEX
  8
0
 10
4.138892
 20
71.747083
 42
-0.015316
  0
VERTEX
  8
0
 10
5.139137
 20
70.761453
 42
-0.014328
  0
VERTEX
  8
0
 10
6.100379
 20
69.694821
 42
-0.014469
  0
VERTEX
  8
0
 10
6.898646
 20
68.699324
 42
-0.046577
  0
VERTEX
  8
0
 10
7.344748
 20
67.977981
 42
0.024889
  0
VERTEX
  8
0
 10
9.440666
 20
64.235764
 42
0.040412
  0
VERTEX
  8
0
 10
11.618961
 20
61.316742
 42
0.045702
  0
VERTEX
  8
0
 10
14.015983
 20
59.049476
 42
0.046951
  0
VERTEX
  8
0
 10
16.764460
 20
57.278418
 42
0.076045
  0
VERTEX
  8
0
 10
19.304776
 20
56.417424
 42
0.033821
  0
VERTEX
  8
0
 10
22.829340
 20
56.037542
 42
0.028685
  0
VERTEX
  8
0
 10
26.161831
 20
56.096212
 42
0.240022
  0
VERTEX
  8
0
 10
27.410391
 20
56.855010
 42
-0.207617
  0
VERTEX
  8
0
 10
27.928782
 20
57.215631
 42
-0.009008
  0
VERTEX
  8
0
 10
30.153336
 20
57.621287
 42
-0.014053
  0
VERTEX
  8
0
 10
32.876463
 20
57.989083
 42
-0.009428
  0
VERTEX
  8
0
 10
36.006031
 20
58.262960
 42
0.010105
  0
VERTEX
  8
0
 10
39.184287
 20
58.545433
 42
0.013415
  0
VERTEX
  8
0
 10
42.059931
 20
58.938016
 42
0.010724
  0
VERTEX
  8
0
 10
44.420344
 20
59.377196
 42
0.117615
  0
VERTEX
  8
0
 10
45.286623
 20
59.784557
 42
-0.095674
  0
VERTEX
  8
0
 10
46.080878
 20
60.201034
 42
-0.014343
  0
VERTEX
  8
0
 10
47.828003
 20
60.672352
 42
-0.015672
  0
VERTEX
  8
0
 10
49.949813
 20
61.110136
 42
-0.012949
  0
VERTEX
  8
0
 10
52.234237
 20
61.446595
 42
0.012907
  0
VERTEX
  8
0
 10
54.470096
 20
61.775707
 42
0.018155
  0
VERTEX
  8
0
 10
56.442395
 20
62.192513
 42
0.014547
  0
VERTEX
  8
0
 10
58.023079
 20
62.636221
 42
0.180541
  0
VERTEX
  8
0
 10
58.507546
 20
63.012209
 42
-0.165799
  0
VERTEX
  8
0
 10
58.965778
 20
63.389339
 42
-0.018167
  0
VERTEX
  8
0
 10
60.276730
 20
63.829128
 42
-0.020640
  0
VERTEX
  8
0
 10
61.923657
 20
64.242770
 42
-0.015276
  0
VERTEX
  8
0
 10
63.773308
 20
64.568367
 42
0.011698
  0
VERTEX
  8
0
 10
65.656341
 20
64.885967
 42
0.014159
  0
VERTEX
  8
0
 10
67.405284
 20
65.274869
 42
0.012795
  0
VERTEX
  8
0
 10
68.848181
 20
65.678415
 42
0.088246
  0
VERTEX
  8
0
 10
69.500000
 20
66.013080
 42
-0.081266
  0
VERTEX
  8
0
 10
70.133452
 20
66.349489
 42
-0.013592
  0
VERTEX
  8
0
 10
71.453148
 20
66.756036
 42
-0.014580
  0
VERTEX
  8
0
 10
73.046307
 20
67.150124
 42
-0.012471
  0
VERTEX
  8
0
 10
74.744760
 20
67.473948
 42
0.017406
  0
VERTEX
  8
0
 10
76.411495
 20
67.808802
 42
0.022643
  0
VERTEX
  8
0
 10
77.908372
 20
68.236567
 42
0.021158
  0
VERTEX
  8
0
 10
79.096646
 20
68.691915
 42
0.153430
  0
VERTEX
  8
0
 10
79.553777
 20
69.087012
 42
-0.187143
  0
VERTEX
  8
0
 10
80.024717
 20
69.442958
 42
-0.024567
  0
VERTEX
  8
0
 10
81.269105
 20
69.731810
 42
-0.025798
  0
VERTEX
  8
0
 10
82.842782
 20
69.933348
 42
-0.018950
  0
VERTEX
  8
0
 10
84.600830
 20
70.000000
 42
-0.053986
  0
VERTEX
  8
0
 10
87.892704
 20
69.643528
 42
-0.093637
  0
VERTEX
  8
0
 10
90.414972
 20
68.569793
 42
-0.100658
  0
VERTEX
  8
0
 10
92.252421
 20
66.715969
 42
-0.070467
  0
VERTEX
  8
0
 10
93.507853
 20
64.046640
 42
0.048059
  0
VERTEX
  8
0
 10
94.248032
 20
62.271074
 42
0.043645
  0
VERTEX
  8
0
 10
95.333985
 20
60.607186
 42
0.045553
  0
VERTEX
  8
0
 10
96.507726
 20
59.363624
 42
0.182804
  0
VERTEX
  8
0
 10
97.469064
 20
59.000000
 42
-0.157362
  0
VERTEX
  8
0
 10
98.625812
 20
58.626701
 42
-0.008258
  0
VERTEX
  8
0
 10
101.786789
 20
56.269075
 42
-0.012772
  0
VERTEX
  8
0
 10
105.391083
 20
53.337095
 42
-0.010188
  0
VERTEX
  8
0
 10
109.128917
 20
50.000000
 42
0.008947
  0
VERTEX
  8
0
 10
113.934027
 20
45.688586
 42
0.020216
  0
VERTEX
  8
0
 10
117.756184
 20
42.641903
 42
0.024544
  0
VERTEX
  8
0
 10
121.307200
 20
40.297731
 42
0.022010
  0
VERTEX
  8
0
 10
125.199940
 20
38.219489
 42
-0.015220
  0
VERTEX
  8
0
 10
127.038976
 20
37.269525
 42
-0.022285
  0
VERTEX
  8
0
 10
128.589983
 20
36.314742
 42
-0.018902
  0
VERTEX
  8
0
 10
129.763389
 20
35.451685
 42
-0.228568
  0
VERTEX
  8
0
 10
130.000000
 20
34.961132
 42
0.112884
  0
VERTEX
  8
0
 10
130.083844
 20
34.594490
 42
0.100219
  0
VERTEX
  8
0
 10
130.320855
 20
34.282333
 42
0.094172
  0
VERTEX
  8
0
 10
130.675196
 20
34.072891
 42
0.086726
  0
VERTEX
  8
0
 10
131.092271
 20
34.000000
 42
-0.104532
  0
VERTEX
  8
0
 10
131.671437
 20
33.877579
 42
-0.021604
  0
VERTEX
  8
0
 10
132.610572
 20
33.412500
 42
-0.021832
  0
VERTEX
  8
0
 10
133.673581
 20
32.765618
 42
-0.019049
  0
VERTEX
  8
0
 10
134.727129
 20
32.000000
 42
0.039007
  0
VERTEX
  8
0
 10
135.874192
 20
31.234398
 42
0.030908
  0
VERTEX
  8
0
 10
137.217592
 20
30.587500
 42
0.031815
  0
VERTEX
  8
0
 10
138.546475
 20
30.142156
 42
0.065030
  0
VERTEX
  8
0
 10
139.634859
 20
30.000000
 42
-0.037827
  0
VERTEX
  8
0
 10
140.540588
 20
29.931380
 42
-0.056710
  0
VERTEX
  8
0
 10
141.305240
 20
29.724249
 42
-0.074483
  0
VERTEX
  8
0
 10
141.827312
 20
29.420790
 42
-0.227713
  0
VERTEX
  8
0
 10
142.000000
 20
29.061273
 42
0.293235
  0
VERTEX
  8
0
 10
142.257157
 20
28.660494
 42
0.027729
  0
VERTEX
  8
0
 10
143.395312
 20
28.213281
 42
0.028544
  0
VERTEX
  8
0
 10
144.929621
 20
27.802034
 42
0.018246
  0
VERTEX
  8
0
 10
146.750000
 20
27.492705
 42
-0.010777
  0
VERTEX
  8
0
 10
148.715236
 20
27.188888
 42
-0.010352
  0
VERTEX
  8
0
 10
150.692188
 20
26.797110
 42
-0.010333
  0
VERTEX
  8
0
 10
152.420096
 20
26.379740
 42
-0.036455
  0
VERTEX
  8
0
 10
153.500000
 20
26.009182
 42
0.034245
  0
VERTEX
  8
0
 10
154.563739
 20
25.638913
 42
0.010415
  0
VERTEX
  8
0
 10
156.219801
 20
25.223672
 42
0.010376
  0
VERTEX
  8
0
 10
158.099847
 20
24.834545
 42
0.011142
  0
VERTEX
  8
0
 10
159.950386
 20
24.533890
 42
-0.013729
  0
VERTEX
  8
0
 10
161.731192
 20
24.235101
 42
-0.016046
  0
VERTEX
  8
0
 10
163.401795
 20
23.851369
 42
-0.015112
  0
VERTEX
  8
0
 10
164.783561
 20
23.441904
 42
-0.087766
  0
VERTEX
  8
0
 10
165.450386
 20
23.083315
 42
0.118582
  0
VERTEX
  8
0
 10
166.208157
 20
22.733566
 42
0.009870
  0
VERTEX
  8
0
 10
168.354698
 20
22.350462
 42
0.012731
  0
VERTEX
  8
0
 10
170.966616
 20
22.005229
 42
0.009479
  0
VERTEX
  8
0
 10
173.863481
 20
21.752576
 42
-0.012086
  0
VERTEX
  8
0
 10
176.730788
 20
21.487429
 42
-0.017385
  0
VERTEX
  8
0
 10
179.250917
 20
21.103585
 42
-0.013240
  0
VERTEX
  8
0
 10
181.280461
 20
20.665921
 42
-0.193983
  0
VERTEX
  8
0
 10
181.863481
 20
20.247867
 42
0.144896
  0
VERTEX
  8
0
 10
182.357856
 20
19.816453
 42
0.023124
  0
VERTEX
  8
0
 10
183.561460
 20
19.330875
 42
0.023957
  0
VERTEX
  8
0
 10
185.076086
 20
18.880015
 42
0.018952
  0
VERTEX
  8
0
 10
186.750000
 20
18.534569
 42
-0.017895
  0
VERTEX
  8
0
 10
188.378702
 20
18.202040
 42
-0.027776
  0
VERTEX
  8
0
 10
189.751563
 20
17.788284
 42
-0.026473
  0
VERTEX
  8
0
 10
190.772991
 20
17.354988
 42
-0.286652
  0
VERTEX
  8
0
 10
191.000000
 20
16.991557
 42
0.241690
  0
VERTEX
  8
0
 10
191.186617
 20
16.628041
 42
0.040230
  0
VERTEX
  8
0
 10
191.881250
 20
16.209946
 42
0.036439
  0
VERTEX
  8
0
 10
192.850825
 20
15.813042
 42
0.024880
  0
VERTEX
  8
0
 10
194.000000
 20
15.500000
 42
-0.027524
  0
VERTEX
  8
0
 10
195.149012
 20
15.180468
 42
-0.039605
  0
VERTEX
  8
0
 10
196.118750
 20
14.764234
 42
-0.045180
  0
VERTEX
  8
0
 10
196.806252
 20
14.318790
 42
-0.230346
  0
VERTEX
  8
0
 10
197.000000
 20
13.920545
 42
0.198389
  0
VERTEX
  8
0
 10
197.145262
 20
13.568850
 42
0.085728
  0
VERTEX
  8
0
 10
197.566518
 20
13.270410
 42
0.065692
  0
VERTEX
  8
0
 10
198.190385
 20
13.067714
 42
0.045769
  0
VERTEX
  8
0
 10
198.928571
 20
13.000000
 42
-0.064082
  0
VERTEX
  8
0
 10
199.776513
 20
12.890877
 42
-0.039128
  0
VERTEX
  8
0
 10
200.731250
 20
12.559375
 42
-0.038656
  0
VERTEX
  8
0
 10
201.641413
 20
12.074273
 42
-0.054664
  0
VERTEX
  8
0
 10
202.357143
 20
11.500000
 42
0.038666
  0
VERTEX
  8
0
 10
203.028635
 20
10.925043
 42
0.034682
  0
VERTEX
  8
0
 10
203.804687
 20
10.436904
 42
0.036394
  0
VERTEX
  8
0
 10
204.565564
 20
10.097682
 42
0.084460
  0
VERTEX
  8
0
 10
205.178571
 20
9.987333
 42
-0.108686
  0
VERTEX
  8
0
 10
207.198138
 20
9.522747
 42
-0.007393
  0
VERTEX
  8
0
 10
212.514032
 20
6.906074
 42
-0.010082
  0
VERTEX
  8
0
 10
217.662920
 20
4.144043
 42
-0.055816
  0
VERTEX
  8
0
 10
220.209461
 20
2.310440
 42
0.024857
  0
VERTEX
  8
0
 10
220.897613
 20
1.747258
 42
0.058111
  0
VERTEX
  8
0
 10
221.474029
 20
1.417174
 42
0.133354
  0
VERTEX
  8
0
 10
221.842062
 20
1.365750
 42
0.377683
  0
VERTEX
  8
0
 10
222.000000
 20
1.545012
 42
-0.245024
  0
VERTEX
  8
0
 10
222.110003
 20
1.756009
 42
-0.226140
  0
VERTEX
  8
0
 10
222.352500
 20
1.796347
 42
-0.092680
  0
VERTEX
  8
0
 10
222.738351
 20
1.602870
 42
-0.033956
  0
VERTEX
  8
0
 10
223.200000
 20
1.200000
 42
0.192798
  0
VERTEX
  8
0
 10
225.611769
 20
0.167572
 42
0.004238
  0
VERTEX
  8
0
 10
238.570273
 20
-0.027820
 42
0.003557
  0
VERTEX
  8
0
 10
251.684887
 20
-0.021085
 42
0.257898
  0
VERTEX
  8
0
 10
253.500000
 20
1.000000
 42
-0.244714
  0
VERTEX
  8
0
 10
254.895247
 20
1.831102
 42
-0.014309
  0
VERTEX
  8
0
 10
260.000000
 20
1.977219
 42
-0.014309
  0
VERTEX
  8
0
 10
265.104753
 20
1.831102
 42
-0.244714
  0
VERTEX
  8
0
 10
266.500000
 20
1.000000
 42
0.252793
  0
VERTEX
  8
0
 10
268.128311
 20
0.063341
 42
0.009432
  0
VERTEX
  8
0
 10
275.433100
 20
0.005379
 42
0.010963
  0
VERTEX
  8
0
 10
282.657087
 20
0.242805
 42
0.184713
  0
VERTEX
  8
0
 10
284.800000
 20
1.200000
 42
-0.030371
  0
VERTEX
  8
0
 10
285.261584
 20
1.608674
 42
-0.079785
  0
VERTEX
  8
0
 10
285.647500
 20
1.821872
 42
-0.201931
  0
VERTEX
  8
0
 10
285.889026
 20
1.809055
 42
-0.287358
  0
VERTEX
  8
0
 10
286.000000
 20
1.631906
 42
0.468364
  0
VERTEX
  8
0
 10
286.192436
 20
1.471536
 42
0.054326
  0
VERTEX
  8
0
 10
286.807813
 20
1.655058
 42
0.035437
  0
VERTEX
  8
0
 10
287.694300
 20
2.104493
 42
0.017698
  0
VERTEX
  8
0
 10
288.750000
 20
2.789321
 42
-0.027472
  0
VERTEX
  8
0
 10
289.887805
 20
3.496216
 42
-0.032792
  0
VERTEX
  8
0
 10
291.032456
 20
4.028715
 42
-0.034708
  0
VERTEX
  8
0
 10
292.033219
 20
4.338812
 42
-0.143838
  0
VERTEX
  8
0
 10
292.658359
 20
4.304629
 42
0.092476
  0
VERTEX
  8
0
 10
293.149942
 20
4.227356
 42
0.078359
  0
VERTEX
  8
0
 10
293.667581
 20
4.324180
 42
0.078165
  0
VERTEX
  8
0
 10
294.131447
 20
4.575981
 42
0.091223
  0
VERTEX
  8
0
 10
294.467376
 20
4.947214
 42
-0.126924
  0
VERTEX
  8
0
 10
294.889043
 20
5.351795
 42
-0.046501
  0
VERTEX
  8
0
 10
295.649493
 20
5.690744
 42
-0.042378
  0
VERTEX
  8
0
 10
296.588614
 20
5.922207
 42
-0.039257
  0
VERTEX
  8
0
 10
297.577913
 20
6.000000
 42
0.070754
  0
VERTEX
  8
0
 10
298.875549
 20
6.184550
 42
0.017529
  0
VERTEX
  8
0
 10
300.921219
 20
6.857019
 42
0.017578
  0
VERTEX
  8
0
 10
303.231470
 20
7.800739
 42
0.016809
  0
VERTEX
  8
0
 10
305.505083
 20
8.917511
 42
-0.011832
  0
VERTEX
  8
0
 10
307.819353
 20
10.082985
 42
-0.010874
  0
VERTEX
  8
0
 10
310.251666
 20
11.172449
 42
-0.010943
  0
VERTEX
  8
0
 10
312.462767
 20
12.049149
 42
-0.034863
  0
VERTEX
  8
0
 10
313.986188
 20
12.496966
 42
0.027397
  0
VERTEX
  8
0
 10
315.140498
 20
12.817656
 42
0.039456
  0
VERTEX
  8
0
 10
316.114693
 20
13.234874
 42
0.044951
  0
VERTEX
  8
0
 10
316.805673
 20
13.681044
 42
0.230877
  0
VERTEX
  8
0
 10
317.000000
 20
14.079455
 42
-0.144561
  0
VERTEX
  8
0
 10
317.103661
 20
14.430499
 42
-0.099411
  0
VERTEX
  8
0
 10
317.395097
 20
14.729590
 42
-0.083677
  0
VERTEX
  8
0
 10
317.830865
 20
14.931145
 42
-0.066663
  0
VERTEX
  8
0
 10
318.345012
 20
15.000000
 42
0.105367
  0
VERTEX
  8
0
 10
318.986360
 20
15.136671
 42
0.036283
  0
VERTEX
  8
0
 10
319.826608
 20
15.587500
 42
0.034148
  0
VERTEX
  8
0
 10
320.708140
 20
16.234645
 42
0.033439
  0
VERTEX
  8
0
 10
321.500000
 20
17.000000
 42
-0.021385
  0
VERTEX
  8
0
 10
322.254929
 20
17.765682
 42
-0.026030
  0
VERTEX
  8
0
 10
323.026517
 20
18.412500
 42
-0.026046
  0
VERTEX
  8
0
 10
323.717217
 20
18.878502
 42
-0.136196
  0
VERTEX
  8
0
 10
324.154988
 20
19.000000
 42
0.187192
  0
VERTEX
  8
0
 10
325.485744
 20
19.516304
 42
0.031580
  0
VERTEX
  8
0
 10
327.416025
 20
21.517119
 42
0.031823
  0
VERTEX
  8
0
 10
329.429570
 20
24.217600
 42
0.027501
  0
VERTEX
  8
0
 10
331.193491
 20
27.283524
 42
-0.030136
  0
VERTEX
  8
0
 10
333.261900
 20
30.835278
 42
-0.032697
  0
VERTEX
  8
0
 10
335.691825
 20
34.012029
 42
-0.032344
  0
VERTEX
  8
0
 10
338.049025
 20
36.380509
 42
-0.182775
  0
VERTEX
  8
0
 10
339.687091
 20
37.000000
 42
0.074572
  0
VERTEX
  8
0
 10
340.188735
 20
37.075236
 42
0.088527
  0
VERTEX
  8
0
 10
340.614333
 20
37.293750
 42
0.100662
  0
VERTEX
  8
0
 10
340.898843
 20
37.618647
 42
0.130375
  0
VERTEX
  8
0
 10
341.000000
 20
38.000000
 42
-0.220721
  0
VERTEX
  8
0
 10
341.177602
 20
38.382723
 42
-0.077326
  0
VERTEX
  8
0
 10
341.708262
 20
38.706250
 42
-0.058797
  0
VERTEX
  8
0
 10
342.487871
 20
38.926802
 42
-0.039580
  0
VERTEX
  8
0
 10
343.411106
 20
39.000000
 42
-0.150940
  0
VERTEX
  8
0
 10
345.497506
 20
38.355472
 42
-0.043784
  0
VERTEX
  8
0
 10
348.132174
 20
36.195342
 42
-0.043670
  0
VERTEX
  8
0
 10
350.344582
 20
33.617452
 42
-0.156757
  0
VERTEX
  8
0
 10
351.000000
 20
31.578262
 42
0.162203
  0
VERTEX
  8
0
 10
351.486504
 20
30.118041
 42
0.063860
  0
VERTEX
  8
0
 10
352.981888
 20
28.578214
 42
0.061865
  0
VERTEX
  8
0
 10
354.914475
 20
27.396206
 42
0.106739
  0
VERTEX
  8
0
 10
356.749285
 20
27.000000
 42
0.090982
  0
VERTEX
  8
0
 10
357.770907
 20
27.187449
 42
0.125417
  0
VERTEX
  8
0
 10
358.530994
 20
27.721474
 42
0.092054
  0
VERTEX
  8
0
 10
359.095558
 20
28.695685
 42
0.032755
  0
VERTEX
  8
0
 10
359.536017
 20
30.250000
 42
-0.014131
  0
VERTEX
  8
0
 10
359.856928
 20
31.567565
 42
-0.014986
  0
VERTEX
  8
0
 10
360.246268
 20
32.839062
 42
-0.014730
  0
VERTEX
  8
0
 10
360.645455
 20
33.910735
 42
-0.063990
  0
VERTEX
  8
0
 10
360.978036
 20
34.500000
 42
0.093976
  0
VERTEX
  8
0
 10
361.300907
 20
35.161229
 42
0.012546
  0
VERTEX
  8
0
 10
361.674150
 20
36.675000
 42
0.014148
  0
VERTEX
  8
0
 10
362.024366
 20
38.512273
 42
0.011463
  0
VERTEX
  8
0
 10
362.298679
 20
40.500000
 42
-0.061533
  0
VERTEX
  8
0
 10
363.873515
 20
47.016496
 42
-0.080083
  0
VERTEX
  8
0
 10
366.918616
 20
52.336628
 42
-0.070543
  0
VERTEX
  8
0
 10
371.814093
 20
56.899625
 42
-0.036803
  0
VERTEX
  8
0
 10
379.000000
 20
61.166482
 42
0.019322
  0
VERTEX
  8
0
 10
380.202136
 20
61.824617
 42
0.007776
  0
VERTEX
  8
0
 10
381.793750
 20
62.811629
 42
0.007681
  0
VERTEX
  8
0
 10
383.476882
 20
63.928870
 42
0.009644
  0
VERTEX
  8
0
 10
385.000000
 20
65.017748
 42
-0.018590
  0
VERTEX
  8
0
 10
386.739147
 20
66.214642
 42
-0.008015
  0
VERTEX
  8
0
 10
389.139219
 20
67.684693
 42
-0.007918
  0
VERTEX
  8
0
 10
391.746677
 20
69.169656
 42
-0.010386
  0
VERTEX
  8
0
 10
394.176066
 20
70.437785
 42
0.020825
  0
VERTEX
  8
0
 10
396.588633
 20
71.761926
 42
0.015388
  0
VERTEX
  8
0
 10
399.145380
 20
73.416562
 42
0.015610
  0
VERTEX
  8
0
 10
401.467703
 20
75.132572
 42
0.033370
  0
VERTEX
  8
0
 10
403.122233
 20
76.626112
 42
-0.015437
  0
VERTEX
  8
0
 10
404.454301
 20
77.918157
 42
-0.020220
  0
VERTEX
  8
0
 10
405.752348
 20
79.008920
 42
-0.018182
  0
VERTEX
  8
0
 10
406.881219
 20
79.818327
 42
-0.147477
  0
VERTEX
  8
0
 10
407.483759
 20
80.000000
 42
0.162442
  0
VERTEX
  8
0
 10
408.124994
 20
80.213973
 42
0.011318
  0
VERTEX
  8
0
 10
409.638847
 20
81.405403
 42
0.015127
  0
VERTEX
  8
0
 10
411.402939
 20
82.951574
 42
0.010765
  0
VERTEX
  8
0
 10
413.287592
 20
84.784349
 42
0.042512
  0
VERTEX
  8
0
 10
416.320168
 20
88.437441
 42
0.085061
  0
VERTEX
  8
0
 10
417.907643
 20
91.825563
 42
0.123445
  0
VERTEX
  8
0
 10
417.973115
 20
94.696101
 42
0.165288
  0
VERTEX
  8
0
 10
416.620515
 20
96.899982
 42
-0.081194
  0
VERTEX
  8
0
 10
416.045669
 20
97.560658
 42
-0.029889
  0
VERTEX
  8
0
 10
415.457547
 20
98.652080
 42
-0.028680
  0
VERTEX
  8
0
 10
414.946111
 20
99.943235
 42
-0.030611
  0
VERTEX
  8
0
 10
414.598624
 20
101.256880
 42
0.104336
  0
VERTEX
  8
0
 10
413.365883
 20
104.129919
 42
0.023957
  0
VERTEX
  8
0
 10
410.106859
 20
108.319270
 42
0.019882
  0
VERTEX
  8
0
 10
406.522381
 20
112.176198
 42
0.198090
  0
VERTEX
  8
0
 10
404.524616
 20
113.000000
 42
-0.148410
  0
VERTEX
  8
0
 10
403.884037
 20
113.194419
 42
-0.009564
  0
VERTEX
  8
0
 10
402.265619
 20
114.321875
 42
-0.013298
  0
VERTEX
  8
0
 10
400.369168
 20
115.776145
 42
-0.009480
  0
VERTEX
  8
0
 10
398.321473
 20
117.500000
 42
0.007858
  0
VERTEX
  8
0
 10
396.286913
 20
119.224101
 42
0.011350
  0
VERTEX
  8
0
 10
394.431003
 20
120.678125
 42
0.007213
  0
VERTEX
  8
0
 10
392.846127
 20
121.827494
 42
0.154467
  0
VERTEX
  8
0
 10
392.301056
 20
122.000000
 42
-0.197008
  0
VERTEX
  8
0
 10
390.884915
 20
122.580513
 42
-0.006996
  0
VERTEX
  8
0
 10
386.662687
 20
126.859366
 42
-0.007233
  0
VERTEX
  8
0
 10
382.574415
 20
131.245355
 42
-0.186057
  0
VERTEX
  8
0
 10
382.000000
 20
132.735569
 42
0.195965
  0
VERTEX
  8
0
 10
381.309310
 20
134.430171
 42
0.001958
  0
VERTEX
  8
0
 10
371.974974
 20
143.904267
 42
0.001945
  0
VERTEX
  8
0
 10
362.563383
 20
153.308776
 42
0.197804
  0
VERTEX
  8
0
 10
360.884498
 20
154.000000
 42
-0.107869
  0
VERTEX
  8
0
 10
360.310395
 20
154.125314
 42
-0.015586
  0
VERTEX
  8
0
 10
359.230489
 20
154.661675
 42
-0.017064
  0
VERTEX
  8
0
 10
357.976684
 20
155.390044
 42
-0.013854
  0
VERTEX
  8
0
 10
356.683278
 20
156.252511
 42
0.007265
  0
VERTEX
  8
0
 10
353.448712
 20
158.471499
 42
0.015163
  0
VERTEX
  8
0
 10
350.854889
 20
160.084823
 42
0.013935
  0
VERTEX
  8
0
 10
348.033770
 20
161.619558
 42
0.005228
  0
VERTEX
  8
0
 10
344.000000
 20
163.617654
 42
0.002257
  0
VERTEX
  8
0
 10
335.004328
 20
167.907108
 42
0.010052
  0
VERTEX
  8
0
 10
329.662702
 20
170.294630
 42
0.014742
  0
VERTEX
  8
0
 10
326.142787
 20
171.662886
 42
0.085523
  0
VERTEX
  8
0
 10
324.186302
 20
172.000000
 42
-0.042907
  0
VERTEX
  8
0
 10
323.350603
 20
172.071847
 42
-0.044398
  0
VERTEX
  8
0
 10
322.549303
 20
172.285234
 42
-0.048537
  0
VERTEX
  8
0
 10
321.894647
 20
172.598243
 42
-0.119115
  0
VERTEX
  8
0
 10
321.517917
 20
172.971009
 42
0.164655
  0
VERTEX
  8
0
 10
321.016144
 20
173.385850
 42
0.019860
  0
VERTEX
  8
0
 10
319.637408
 20
173.850020
 42
0.021904
  0
VERTEX
  8
0
 10
317.901870
 20
174.276995
 42
0.016387
  0
VERTEX
  8
0
 10
315.958900
 20
174.599840
 42
-0.014793
  0
VERTEX
  8
0
 10
314.058186
 20
174.909442
 42
-0.023507
  0
VERTEX
  8
0
 10
312.456677
 20
175.298066
 42
-0.019909
  0
VERTEX
  8
0
 10
311.237000
 20
175.708869
 42
-0.311009
  0
VERTEX
  8
0
 10
311.000000
 20
176.053031
 42
0.400318
  0
VERTEX
  8
0
 10
310.687140
 20
176.381174
 42
0.000950
  0
VERTEX
  8
0
 10
303.498339
 20
176.710465
 42
0.004861
  0
VERTEX
  8
0
 10
295.254708
 20
176.992111
 42
0.002918
  0
VERTEX
  8
0
 10
285.462432
 20
177.174201
 42
-0.001890
  0
VERTEX
  8
0
 10
271.541009
 20
177.404453
 42
-0.012143
  0
VERTEX
  8
0
 10
264.504846
 20
177.718496
 42
-0.017386
  0
VERTEX
  8
0
 10
260.291728
 20
178.156783
 42
-0.223607
  0
VERTEX
  8
0
 10
259.000205
 20
179.000000
 42
0.175178
  0
VERTEX
  8
0
 10
258.054566
 20
179.751559
 42
0.041425
  0
VERTEX
  8
0
 10
256.065861
 20
180.242233
 42
0.025880
  0
VERTEX
  8
0
 10
252.913086
 20
180.581981
 42
0.006634
  0
VERTEX
  8
0
 10
247.787773
 20
180.799064
 42
-0.004421
  0
VERTEX
  8
0
 10
243.737868
 20
180.952640
 42
-0.005982
  0
VERTEX
  8
0
 10
240.081408
 20
181.167550
 42
-0.004139
  0
VERTEX
  8
0
 10
237.027141
 20
181.409187
 42
-0.063989
  0
VERTEX
  8
0
 10
236.000000
 20
181.633523
 42
0.080445
  0
VERTEX
  8
0
 10
232.979271
 20
182.190357
 42
0.004224
  0
VERTEX
  8
0
 10
223.111444
 20
182.321607
 42
0.001575
  0
VERTEX
  8
0
 10
212.588284
 20
182.339538
 42
0.413878
  0
VERTEX
  8
0
 10
211.999774
 20
181.750000
 42
-0.383553
  0
VERTEX
  8
0
 10
211.405507
 20
181.088880
 42
-0.039140
  0
VERTEX
  8
0
 10
209.114770
 20
181.025031
 42
-0.040172
  0
VERTEX
  8
0
 10
206.676270
 20
181.345509
 42
-0.144601
  0
VERTEX
  8
0
 10
205.312868
 20
182.087132
 42
0.047458
  0
VERTEX
  8
0
 10
204.768438
 20
182.536977
 42
0.150038
  0
VERTEX
  8
0
 10
204.321227
 20
182.674265
 42
0.181024
  0
VERTEX
  8
0
 10
203.927179
 20
182.526767
 42
0.075363
  0
SEQEND
  0
ENDSEC
  0
EOF
