  0
SECTION
  2
HEADER
  9
$ACADVER
  1
AC1006
  9
$EXTMIN
 10
0.000000
 20
0.000000
 30
0.000000
  9
$EXTMAX
 10
521.000000
 20
318.000000
 30
0.000000
  0
ENDSEC
  0
SECTION
  2
ENTITIES
  0
POLYLINE
  8
0
 66
1
 70
1
  0
VERTEX
  8
0
 10
238.000000
 20
314.398059
 42
0.012366
  0
VERTEX
  8
0
 10
233.750659
 20
312.694689
 42
0.020078
  0
VERTEX
  8
0
 10
230.242128
 20
311.016615
 42
0.023592
  0
VERTEX
  8
0
 10
227.518623
 20
309.408222
 42
0.059826
  0
VERTEX
  8
0
 10
225.764096
 20
307.930005
 42
-0.011856
  0
VERTEX
  8
0
 10
224.665130
 20
306.807639
 42
-0.016520
  0
VERTEX
  8
0
 10
223.626344
 20
305.860689
 42
-0.012938
  0
VERTEX
  8
0
 10
222.731710
 20
305.136832
 42
-0.165074
  0
VERTEX
  8
0
 10
222.328548
 20
305.000000
 42
0.130931
  0
VERTEX
  8
0
 10
221.941295
 20
304.896825
 42
0.018100
  0
VERTEX
  8
0
 10
221.227991
 20
304.452637
 42
0.019728
  0
VERTEX
  8
0
 10
220.406163
 20
303.850147
 42
0.015549
  0
VERTEX
  8
0
 10
219.564451
 20
303.136636
 42
-0.056715
  0
VERTEX
  8
0
 10
218.322640
 20
302.248336
 42
-0.012389
  0
VERTEX
  8
0
 10
215.990293
 20
301.025620
 42
-0.012752
  0
VERTEX
  8
0
 10
213.205450
 20
299.739748
 42
-0.011924
  0
VERTEX
  8
0
 10
210.296122
 20
298.566836
 42
0.010663
  0
VERTEX
  8
0
 10
207.363366
 20
297.393070
 42
0.010936
  0
VERTEX
  8
0
 10
204.508234
 20
296.104678
 42
0.010737
  0
VERTEX
  8
0
 10
202.082399
 20
294.880842
 42
0.044480
  0
VERTEX
  8
0
 10
200.708759
 20
293.985550
 42
-0.045916
  0
VERTEX
  8
0
 10
199.470381
 20
293.183466
 42
-0.018652
  0
VERTEX
  8
0
 10
197.655774
 20
292.316556
 42
-0.018269
  0
VERTEX
  8
0
 10
195.622537
 20
291.523616
 42
-0.022163
  0
VERTEX
  8
0
 10
193.662638
 20
290.936636
 42
0.020122
  0
VERTEX
  8
0
 10
191.507075
 20
290.300629
 42
0.057393
  0
VERTEX
  8
0
 10
190.095263
 20
289.632850
 42
0.092836
  0
VERTEX
  8
0
 10
189.285051
 20
288.890655
 42
0.162417
  0
VERTEX
  8
0
 10
189.000000
 20
288.036273
 42
-0.132277
  0
VERTEX
  8
0
 10
188.609016
 20
286.584237
 42
-0.062714
  0
VERTEX
  8
0
 10
187.425136
 20
285.031179
 42
-0.056661
  0
VERTEX
  8
0
 10
185.713419
 20
283.644112
 42
-0.056759
  0
VERTEX
  8
0
 10
183.734992
 20
282.677625
 42
0.080190
  0
VERTEX
  8
0
 10
182.995890
 20
282.272837
 42
0.043439
  0
VERTEX
  8
0
 10
182.234024
 20
281.566044
 42
0.041853
  0
VERTEX
  8
0
 10
181.565567
 20
280.691096
 42
0.051400
  0
VERTEX
  8
0
 10
181.103835
 20
279.773107
 42
-0.101487
  0
VERTEX
  8
0
 10
180.381475
 20
278.635141
 42
-0.056877
  0
VERTEX
  8
0
 10
179.111898
 20
277.588846
 42
-0.042387
  0
VERTEX
  8
0
 10
177.249014
 20
276.592984
 42
-0.019639
  0
VERTEX
  8
0
 10
174.685222
 20
275.607623
 42
0.028881
  0
VERTEX
  8
0
 10
172.099107
 20
274.558456
 42
0.027347
  0
VERTEX
  8
0
 10
169.601891
 20
273.201250
 42
0.027856
  0
VERTEX
  8
0
 10
167.316197
 20
271.609826
 42
0.033361
  0
VERTEX
  8
0
 10
165.363431
 20
269.860141
 42
-0.015907
  0
VERTEX
  8
0
 10
163.825162
 20
268.381936
 42
-0.020652
  0
VERTEX
  8
0
 10
162.320335
 20
267.133916
 42
-0.018820
  0
VERTEX
  8
0
 10
161.009425
 20
266.210957
 42
-0.144955
  0
VERTEX
  8
0
 10
160.297052
 20
266.000000
 42
0.077225
  0
VERTEX
  8
0
 10
159.801540
 20
265.923009
 42
0.089938
  0
VERTEX
  8
0
 10
159.381009
 20
265.699952
 42
0.100773
  0
VERTEX
  8
0
 10
159.099879
 20
265.368108
 42
0.126159
  0
VERTEX
  8
0
 10
159.000000
 20
264.978561
 42
-0.184524
  0
VERTEX
  8
0
 10
158.820376
 20
264.508411
 42
-0.042592
  0
VERTEX
  8
0
 10
158.192187
 20
263.916379
 42
-0.038459
  0
VERTEX
  8
0
 10
157.302844
 20
263.316056
 42
-0.029425
  0
VERTEX
  8
0
 10
156.250000
 20
262.796983
 42
0.062411
  0
VERTEX
  8
0
 10
154.753420
 20
261.932377
 42
0.010050
  0
VERTEX
  8
0
 10
152.104688
 20
259.839774
 42
0.010970
  0
VERTEX
  8
0
 10
149.073077
 20
257.230452
 42
0.009438
  0
VERTEX
  8
0
 10
146.000000
 20
254.359022
 42
-0.005059
  0
VERTEX
  8
0
 10
138.497088
 20
247.224332
 42
-0.018611
  0
VERTEX
  8
0
 10
133.544272
 20
242.942092
 42
-0.029460
  0
VERTEX
  8
0
 10
129.764797
 20
240.262149
 42
-0.054646
  0
VERTEX
  8
0
 10
126.380768
 20
238.632877
 42
0.018606
  0
VERTEX
  8
0
 10
122.704447
 20
237.178434
 42
0.002425
  0
VERTEX
  8
0
 10
115.006736
 20
233.752046
 42
0.002767
  0
VERTEX
  8
0
 10
107.339706
 20
230.243486
 42
0.013006
  0
VERTEX
  8
0
 10
103.000000
 20
228.089526
 42
0.088590
  0
VERTEX
  8
0
 10
102.400940
 20
227.621280
 42
0.047574
  0
VERTEX
  8
0
 10
101.842300
 20
226.863972
 42
0.045369
  0
VERTEX
  8
0
 10
101.404338
 20
225.956875
 42
0.053132
  0
VERTEX
  8
0
 10
101.165277
 20
225.032097
 42
-0.072472
  0
VERTEX
  8
0
 10
100.894386
 20
224.129252
 42
-0.061820
  0
VERTEX
  8
0
 10
100.366267
 20
223.286270
 42
-0.064112
  0
VERTEX
  8
0
 10
99.672630
 20
222.627536
 42
-0.094220
  0
VERTEX
  8
0
 10
98.915277
 20
222.267594
 42
0.033530
  0
VERTEX
  8
0
 10
98.182009
 20
222.022305
 42
0.045364
  0
VERTEX
  8
0
 10
97.562613
 20
221.699436
 42
0.053272
  0
VERTEX
  8
0
 10
97.130791
 20
221.351932
 42
0.199259
  0
VERTEX
  8
0
 10
97.000000
 20
221.036770
 42
-0.161887
  0
VERTEX
  8
0
 10
96.853991
 20
220.597627
 42
-0.009346
  0
VERTEX
  8
0
 10
95.971875
 20
219.462603
 42
-0.013437
  0
VERTEX
  8
0
 10
94.840875
 20
218.136697
 42
-0.009419
  0
VERTEX
  8
0
 10
93.500000
 20
216.702967
 42
0.012429
  0
VERTEX
  8
0
 10
92.159439
 20
215.252167
 42
0.016876
  0
VERTEX
  8
0
 10
91.028125
 20
213.873927
 42
0.013822
  0
VERTEX
  8
0
 10
90.171464
 20
212.688885
 42
0.150696
  0
VERTEX
  8
0
 10
90.000000
 20
212.132899
 42
-0.070561
  0
VERTEX
  8
0
 10
89.944077
 20
211.738599
 42
-0.060485
  0
VERTEX
  8
0
 10
89.779687
 20
211.352581
 42
-0.062940
  0
VERTEX
  8
0
 10
89.536859
 20
211.032582
 42
-0.094712
  0
VERTEX
  8
0
 10
89.250000
 20
210.833333
 42
0.158159
  0
VERTEX
  8
0
 10
88.290060
 20
209.970900
 42
0.014067
  0
VERTEX
  8
0
 10
86.720492
 20
207.077234
 42
0.016788
  0
VERTEX
  8
0
 10
85.338452
 20
204.105407
 42
0.100770
  0
VERTEX
  8
0
 10
85.000000
 20
202.443130
 42
-0.081576
  0
VERTEX
  8
0
 10
84.878451
 20
201.703087
 42
-0.018792
  0
VERTEX
  8
0
 10
84.427724
 20
200.517026
 42
-0.018929
  0
VERTEX
  8
0
 10
83.797565
 20
199.173605
 42
-0.017484
  0
VERTEX
  8
0
 10
83.051825
 20
197.844823
 42
0.021461
  0
VERTEX
  8
0
 10
82.342906
 20
196.557777
 42
0.029358
  0
VERTEX
  8
0
 10
81.825511
 20
195.340308
 42
0.029415
  0
VERTEX
  8
0
 10
81.528826
 20
194.325161
 42
0.197276
  0
VERTEX
  8
0
 10
81.612871
 20
193.817370
 42
-0.263160
  0
VERTEX
  8
0
 10
81.700880
 20
191.557389
 42
-0.016609
  0
VERTEX
  8
0
 10
78.337688
 20
185.529881
 42
-0.024253
  0
VERTEX
  8
0
 10
74.166825
 20
179.309418
 42
-0.037891
  0
VERTEX
  8
0
 10
69.942256
 20
174.442859
 42
0.008770
  0
VERTEX
  8
0
 10
67.665557
 20
172.109478
 42
0.012712
  0
VERTEX
  8
0
 10
65.745538
 20
169.964621
 42
0.008335
  0
VERTEX
  8
0
 10
64.234029
 20
168.125943
 42
0.169439
  0
VERTEX
  8
0
 10
64.000000
 20
167.455170
 42
-0.157197
  0
VERTEX
  8
0
 10
63.809689
 20
166.864803
 42
-0.021902
  0
VERTEX
  8
0
 10
63.004054
 20
165.842633
 42
-0.023289
  0
VERTEX
  8
0
 10
61.907876
 20
164.684328
 42
-0.017845
  0
VERTEX
  8
0
 10
60.609545
 20
163.520807
 42
0.040911
  0
VERTEX
  8
0
 10
59.180094
 20
162.115775
 42
0.029115
  0
VERTEX
  8
0
 10
57.812996
 20
160.332385
 42
0.029216
  0
VERTEX
  8
0
 10
56.669116
 20
158.412770
 42
0.042737
  0
VERTEX
  8
0
 10
55.915153
 20
156.596941
 42
-0.019669
  0
VERTEX
  8
0
 10
55.283814
 20
154.853684
 42
-0.015127
  0
VERTEX
  8
0
 10
54.463850
 20
153.002924
 42
-0.015371
  0
VERTEX
  8
0
 10
53.590414
 20
151.317172
 42
-0.034827
  0
VERTEX
  8
0
 10
52.805608
 20
150.115141
 42
0.016731
  0
VERTEX
  8
0
 10
52.114342
 20
149.135676
 42
0.019815
  0
VERTEX
  8
0
 10
51.530397
 20
148.164805
 42
0.019041
  0
VERTEX
  8
0
 10
51.106470
 20
147.317261
 42
0.106833
  0
VERTEX
  8
0
 10
51.000000
 20
146.824649
 42
-0.144667
  0
VERTEX
  8
0
 10
50.652402
 20
145.648414
 42
-0.011299
  0
VERTEX
  8
0
 10
48.791202
 20
142.911943
 42
-0.015656
  0
VERTEX
  8
0
 10
46.488911
 20
139.890851
 42
-0.015612
  0
VERTEX
  8
0
 10
44.000000
 20
137.016845
 42
0.004987
  0
VERTEX
  8
0
 10
39.688618
 20
132.247066
 42
0.003927
  0
VERTEX
  8
0
 10
35.111918
 20
126.998640
 42
0.001308
  0
VERTEX
  8
0
 10
30.761102
 20
121.902506
 42
0.085753
  0
VERTEX
  8
0
 10
30.175242
 20
120.909361
 42
-0.072773
  0
VERTEX
  8
0
 10
29.900821
 20
120.415483
 42
-0.007790
  0
VERTEX
  8
0
 10
29.086592
 20
119.383591
 42
-0.009459
  0
VERTEX
  8
0
 10
28.069182
 20
118.181874
 42
-0.007477
  0
VERTEX
  8
0
 10
26.925242
 20
116.919972
 42
0.022173
  0
VERTEX
  8
0
 10
25.805486
 20
115.609339
 42
0.025403
  0
VERTEX
  8
0
 10
24.859290
 20
114.260968
 42
0.025738
  0
VERTEX
  8
0
 10
24.183239
 20
113.051291
 42
0.115044
  0
VERTEX
  8
0
 10
24.000000
 20
112.265446
 42
-0.139630
  0
VERTEX
  8
0
 10
23.631836
 20
110.972795
 42
-0.022488
  0
VERTEX
  8
0
 10
22.137769
 20
108.788460
 42
-0.015654
  0
VERTEX
  8
0
 10
19.582617
 20
105.603896
 42
-0.003779
  0
VERTEX
  8
0
 10
15.150741
 20
100.500000
 42
0.028586
  0
VERTEX
  8
0
 10
10.267019
 20
94.277624
 42
0.055880
  0
VERTEX
  8
0
 10
7.267343
 20
88.742672
 42
0.070041
  0
VERTEX
  8
0
 10
5.982321
 20
83.606217
 42
0.082751
  0
VERTEX
  8
0
 10
6.281472
 20
78.612465
 42
-0.018469
  0
VERTEX
  8
0
 10
6.806755
 20
75.851775
 42
-0.103243
  0
VERTEX
  8
0
 10
6.724937
 20
74.356604
 42
-0.109629
  0
VERTEX
  8
0
 10
6.052828
 20
73.061849
 42
-0.022054
  0
VERTEX
  8
0
 10
4.288922
 20
71.135076
 42
0.074573
  0
VERTEX
  8
0
 10
2.080618
 20
68.147488
 42
0.066034
  0
VERTEX
  8
0
 10
0.732078
 20
64.518398
 42
0.069611
  0
VERTEX
  8
0
 10
0.421199
 20
60.865698
 42
0.106612
  0
VERTEX
  8
0
 10
1.254939
 20
57.811823
 42
0.055858
  0
VERTEX
  8
0
 10
3.467953
 20
54.510465
 42
0.021208
  0
VERTEX
  8
0
 10
7.231692
 20
50.425941
 42
0.015378
  0
VERTEX
  8
0
 10
11.176893
 20
46.727808
 42
0.182572
  0
VERTEX
  8
0
 10
13.103666
 20
46.000000
 42
-0.043732
  0
VERTEX
  8
0
 10
13.822965
 20
45.936966
 42
-0.044820
  0
VERTEX
  8
0
 10
14.514209
 20
45.749822
 42
-0.048935
  0
VERTEX
  8
0
 10
15.080128
 20
45.475215
 42
-0.117450
  0
VERTEX
  8
0
 10
15.408328
 20
45.148329
 42
0.128039
  0
VERTEX
  8
0
 10
15.849529
 20
44.726859
 42
0.012096
  0
VERTEX
  8
0
 10
17.184975
 20
44.025413
 42
0.014856
  0
VERTEX
  8
0
 10
18.847199
 20
43.263598
 42
0.011162
  0
VERTEX
  8
0
 10
20.717345
 20
42.521598
 42
-0.002696
  0
VERTEX
  8
0
 10
22.804227
 20
41.734234
 42
-0.001946
  0
VERTEX
  8
0
 10
25.123220
 20
40.834614
 42
-0.001965
  0
VERTEX
  8
0
 10
27.320922
 20
39.962205
 42
-0.004270
  0
VERTEX
  8
0
 10
29.000000
 20
39.271310
 42
0.006679
  0
VERTEX
  8
0
 10
33.740650
 20
37.347318
 42
0.016543
  0
VERTEX
  8
0
 10
37.275693
 20
36.100428
 42
0.012358
  0
VERTEX
  8
0
 10
41.433318
 20
34.899020
 42
0.002399
  0
VERTEX
  8
0
 10
49.000000
 20
32.952499
 42
-0.000516
  0
VERTEX
  8
0
 10
50.522839
 20
32.566860
 42
-0.000382
  0
VERTEX
  8
0
 10
52.206250
 20
32.137340
 42
-0.000386
  0
VERTEX
  8
0
 10
53.795608
 20
31.729218
 42
-0.000868
  0
VERTEX
  8
0
 10
55.000000
 20
31.416726
 42
-0.032606
  0
VERTEX
  8
0
 10
56.082421
 20
31.057076
 42
-0.021816
  0
VERTEX
  8
0
 10
57.269333
 20
30.513305
 42
-0.022002
  0
VERTEX
  8
0
 10
58.378033
 20
29.882584
 42
-0.039786
  0
VERTEX
  8
0
 10
59.214752
 20
29.258631
 42
0.100461
  0
VERTEX
  8
0
 10
61.427988
 20
27.991323
 42
0.014990
  0
VERTEX
  8
0
 10
66.371681
 20
26.517111
 42
0.011139
  0
VERTEX
  8
0
 10
71.461352
 20
25.284791
 42
0.194614
  0
VERTEX
  8
0
 10
73.106350
 20
25.565728
 42
-0.133519
  0
VERTEX
  8
0
 10
73.442846
 20
25.665449
 42
-0.100497
  0
VERTEX
  8
0
 10
73.824398
 20
25.596932
 42
-0.087463
  0
VERTEX
  8
0
 10
74.193139
 20
25.369592
 42
-0.072691
  0
VERTEX
  8
0
 10
74.489919
 20
25.016312
 42
0.164438
  0
VERTEX
  8
0
 10
74.965429
 20
24.622846
 42
0.033744
  0
VERTEX
  8
0
 10
76.021898
 20
24.298542
 42
0.032179
  0
VERTEX
  8
0
 10
77.358566
 20
24.074540
 42
0.025431
  0
VERTEX
  8
0
 10
78.823134
 20
24.000000
 42
-0.037400
  0
VERTEX
  8
0
 10
80.615118
 20
23.865771
 42
-0.015628
  0
VERTEX
  8
0
 10
82.999399
 20
23.429969
 42
-0.015360
  0
VERTEX
  8
0
 10
85.533177
 20
22.802502
 42
-0.019241
  0
VERTEX
  8
0
 10
87.837302
 20
22.059468
 42
0.015814
  0
VERTEX
  8
0
 10
89.971109
 20
21.355185
 42
0.019801
  0
VERTEX
  8
0
 10
91.991891
 20
20.844404
 42
0.018365
  0
VERTEX
  8
0
 10
93.689715
 20
20.550768
 42
0.125893
  0
VERTEX
  8
0
 10
94.525298
 20
20.648081
 42
-0.066917
  0
VERTEX
  8
0
 10
95.143588
 20
20.794659
 42
-0.046878
  0
VERTEX
  8
0
 10
95.860349
 20
20.798566
 42
-0.047045
  0
VERTEX
  8
0
 10
96.561761
 20
20.669293
 42
-0.069435
  0
VERTEX
  8
0
 10
97.133788
 20
20.417315
 42
0.089245
  0
VERTEX
  8
0
 10
98.443817
 20
19.900810
 42
0.025055
  0
VERTEX
  8
0
 10
100.627679
 20
19.576468
 42
0.009139
  0
VERTEX
  8
0
 10
104.671226
 20
19.256108
 42
0.000666
  0
VERTEX
  8
0
 10
115.823600
 20
18.592284
 42
-0.007895
  0
VERTEX
  8
0
 10
119.913078
 20
18.289473
 42
-0.010146
  0
VERTEX
  8
0
 10
123.661211
 20
17.875528
 42
-0.008206
  0
VERTEX
  8
0
 10
126.769058
 20
17.416315
 42
-0.082257
  0
VERTEX
  8
0
 10
128.007859
 20
16.995794
 42
0.044800
  0
VERTEX
  8
0
 10
128.906976
 20
16.613683
 42
0.023185
  0
VERTEX
  8
0
 10
130.085970
 20
16.292515
 42
0.022853
  0
VERTEX
  8
0
 10
131.337518
 20
16.072655
 42
0.032060
  0
VERTEX
  8
0
 10
132.469442
 20
16.000000
 42
-0.046647
  0
VERTEX
  8
0
 10
133.632285
 20
15.891277
 42
-0.027917
  0
VERTEX
  8
0
 10
134.980944
 20
15.557986
 42
-0.027787
  0
VERTEX
  8
0
 10
136.298004
 20
15.071761
 42
-0.042733
  0
VERTEX
  8
0
 10
137.366874
 20
14.495270
 42
0.050179
  0
VERTEX
  8
0
 10
138.523791
 20
13.893310
 42
0.022706
  0
VERTEX
  8
0
 10
140.139786
 20
13.332396
 42
0.022210
  0
VERTEX
  8
0
 10
141.913183
 20
12.890374
 42
0.028273
  0
VERTEX
  8
0
 10
143.581691
 20
12.649574
 42
-0.013725
  0
VERTEX
  8
0
 10
145.211748
 20
12.462530
 42
-0.012763
  0
VERTEX
  8
0
 10
146.869301
 20
12.182742
 42
-0.012862
  0
VERTEX
  8
0
 10
148.329656
 20
11.858528
 42
-0.041430
  0
VERTEX
  8
0
 10
149.271249
 20
11.539161
 42
0.085626
  0
VERTEX
  8
0
 10
150.345476
 20
11.277442
 42
0.013915
  0
VERTEX
  8
0
 10
152.498764
 20
11.190584
 42
0.014991
  0
VERTEX
  8
0
 10
155.065216
 20
11.235485
 42
0.012697
  0
VERTEX
  8
0
 10
157.771249
 20
11.433016
 42
-0.005255
  0
VERTEX
  8
0
 10
160.567411
 20
11.679007
 42
-0.005055
  0
VERTEX
  8
0
 10
163.404679
 20
11.869757
 42
-0.005008
  0
VERTEX
  8
0
 10
165.908705
 20
11.987543
 42
-0.018242
  0
VERTEX
  8
0
 10
167.500000
 20
11.988350
 42
0.001684
  0
VERTEX
  8
0
 10
168.830779
 20
11.944944
 42
0.001128
  0
VERTEX
  8
0
 10
170.353125
 20
11.903860
 42
0.001136
  0
VERTEX
  8
0
 10
171.828132
 20
11.870737
 42
0.002241
  0
VERTEX
  8
0
 10
173.000000
 20
11.852338
 42
-0.020792
  0
VERTEX
  8
0
 10
179.262328
 20
11.521410
 42
-0.009762
  0
VERTEX
  8
0
 10
187.320848
 20
10.599585
 42
-0.005684
  0
VERTEX
  8
0
 10
195.171058
 20
9.454954
 42
-0.104442
  0
VERTEX
  8
0
 10
197.511776
 20
8.562427
 42
0.090240
  0
VERTEX
  8
0
 10
198.856694
 20
8.005779
 42
0.028737
  0
VERTEX
  8
0
 10
201.006628
 20
7.669907
 42
0.023099
  0
VERTEX
  8
0
 10
203.853173
 20
7.523682
 42
0.011385
  0
VERTEX
  8
0
 10
207.476969
 20
7.587591
 42
-0.008925
  0
VERTEX
  8
0
 10
212.210754
 20
7.694375
 42
-0.050636
  0
VERTEX
  8
0
 10
214.717272
 20
7.451789
 42
-0.076950
  0
VERTEX
  8
0
 10
216.632160
 20
6.750052
 42
-0.036701
  0
VERTEX
  8
0
 10
218.834135
 20
5.312940
 42
0.040323
  0
VERTEX
  8
0
 10
220.953455
 20
3.951525
 42
0.058781
  0
VERTEX
  8
0
 10
223.018787
 20
3.143387
 42
0.042640
  0
VERTEX
  8
0
 10
225.666225
 20
2.688068
 42
0.011883
  0
VERTEX
  8
0
 10
229.868942
 20
2.430010
 42
-0.003437
  0
VERTEX
  8
0
 10
233.501159
 20
2.268504
 42
-0.001614
  0
VERTEX
  8
0
 10
238.195877
 20
2.012206
 42
-0.001599
  0
VERTEX
  8
0
 10
243.113996
 20
1.712001
 42
-0.002248
  0
VERTEX
  8
0
 10
247.500000
 20
1.410388
 42
0.004253
  0
VERTEX
  8
0
 10
256.255377
 20
0.843570
 42
0.019649
  0
VERTEX
  8
0
 10
261.330339
 20
0.758047
 42
0.030448
  0
VERTEX
  8
0
 10
265.258895
 20
1.086133
 42
0.023182
  0
VERTEX
  8
0
 10
269.500000
 20
1.904213
 42
-0.011308
  0
VERTEX
  8
0
 10
271.741786
 20
2.392107
 42
-0.007337
  0
VERTEX
  8
0
 10
274.353125
 20
2.859219
 42
-0.007378
  0
VERTEX
  8
0
 10
276.917652
 20
3.240458
 42
-0.013877
  0
VERTEX
  8
0
 10
279.000000
 20
3.460062
 42
0.054071
  0
VERTEX
  8
0
 10
284.710392
 20
4.530817
 42
0.018731
  0
VERTEX
  8
0
 10
292.651327
 20
7.258346
 42
0.013175
  0
VERTEX
  8
0
 10
300.276747
 20
10.434405
 42
0.170151
  0
VERTEX
  8
0
 10
302.481777
 20
12.522128
 42
-0.007456
  0
VERTEX
  8
0
 10
302.944687
 20
13.388834
 42
-0.005101
  0
VERTEX
  8
0
 10
303.494958
 20
14.359625
 42
-0.005142
  0
VERTEX
  8
0
 10
304.044541
 20
15.284516
 42
-0.010360
  0
VERTEX
  8
0
 10
304.500278
 20
16.000000
 42
0.046466
  0
VERTEX
  8
0
 10
304.883417
 20
16.709727
 42
0.028318
  0
VERTEX
  8
0
 10
305.206332
 20
17.606798
 42
0.028235
  0
VERTEX
  8
0
 10
305.427395
 20
18.540621
 42
0.044027
  0
VERTEX
  8
0
 10
305.500000
 20
19.363568
 42
-0.176267
  0
VERTEX
  8
0
 10
305.870736
 20
20.382526
 42
-0.074362
  0
VERTEX
  8
0
 10
306.977544
 20
21.362012
 42
-0.043067
  0
VERTEX
  8
0
 10
308.950355
 20
22.414067
 42
-0.012282
  0
VERTEX
  8
0
 10
312.177349
 20
23.700237
 42
0.025072
  0
VERTEX
  8
0
 10
315.816309
 20
25.259565
 42
0.034381
  0
VERTEX
  8
0
 10
318.900011
 20
27.040386
 42
0.030044
  0
VERTEX
  8
0
 10
322.002944
 20
29.411578
 42
0.013909
  0
VERTEX
  8
0
 10
325.751031
 20
32.836669
 42
0.004155
  0
VERTEX
  8
0
 10
328.497126
 20
35.534468
 42
0.004925
  0
VERTEX
  8
0
 10
331.045017
 20
38.130146
 42
0.004310
  0
VERTEX
  8
0
 10
333.152918
 20
40.358455
 42
0.031132
  0
VERTEX
  8
0
 10
334.088899
 20
41.500000
 42
-0.032561
  0
VERTEX
  8
0
 10
334.785216
 20
42.344319
 42
-0.021172
  0
VERTEX
  8
0
 10
335.690013
 20
43.228248
 42
-0.021298
  0
VERTEX
  8
0
 10
336.650621
 20
44.019147
 42
-0.037486
  0
VERTEX
  8
0
 10
337.515217
 20
44.574888
 42
0.069337
  0
VERTEX
  8
0
 10
338.397347
 20
45.224565
 42
0.027146
  0
VERTEX
  8
0
 10
339.422689
 20
46.340155
 42
0.026238
  0
VERTEX
  8
0
 10
340.416608
 20
47.684819
 42
0.029585
  0
VERTEX
  8
0
 10
341.221596
 20
49.074888
 42
-0.023954
  0
VERTEX
  8
0
 10
342.084536
 20
50.604466
 42
-0.013445
  0
VERTEX
  8
0
 10
343.269290
 20
52.379898
 42
-0.013393
  0
VERTEX
  8
0
 10
344.565154
 20
54.112706
 42
-0.021241
  0
VERTEX
  8
0
 10
345.774909
 20
55.516253
 42
0.010349
  0
VERTEX
  8
0
 10
346.912958
 20
56.779882
 42
0.010531
  0
VERTEX
  8
0
 10
347.990983
 20
58.082332
 42
0.010356
  0
VERTEX
  8
0
 10
348.879836
 20
59.252466
 42
0.042147
  0
VERTEX
  8
0
 10
349.342535
 20
60.016253
 42
-0.015529
  0
VERTEX
  8
0
 10
350.802129
 20
62.742971
 42
-0.029465
  0
VERTEX
  8
0
 10
352.169480
 20
64.823397
 42
-0.034148
  0
VERTEX
  8
0
 10
353.618992
 20
66.514461
 42
-0.031854
  0
VERTEX
  8
0
 10
355.317466
 20
68.035079
 42
0.071291
  0
VERTEX
  8
0
 10
357.819620
 20
70.657472
 42
0.015138
  0
VERTEX
  8
0
 10
361.337083
 20
75.918573
 42
0.007812
  0
VERTEX
  8
0
 10
364.712449
 20
81.506005
 42
0.340627
  0
VERTEX
  8
0
 10
364.546573
 20
82.786760
 42
-0.298219
  0
VERTEX
  8
0
 10
364.466986
 20
83.168097
 42
-0.025265
  0
VERTEX
  8
0
 10
364.900284
 20
84.126992
 42
-0.026996
  0
VERTEX
  8
0
 10
365.587331
 20
85.302534
 42
-0.017180
  0
VERTEX
  8
0
 10
366.504785
 20
86.595160
 42
0.013997
  0
VERTEX
  8
0
 10
367.460223
 20
87.923314
 42
0.017531
  0
VERTEX
  8
0
 10
368.267030
 20
89.208598
 42
0.015860
  0
VERTEX
  8
0
 10
368.863056
 20
90.315929
 42
0.116032
  0
VERTEX
  8
0
 10
369.000000
 20
90.898094
 42
-0.143676
  0
VERTEX
  8
0
 10
369.138084
 20
91.368713
 42
-0.047476
  0
VERTEX
  8
0
 10
369.587500
 20
91.941039
 42
-0.042687
  0
VERTEX
  8
0
 10
370.234655
 20
92.514289
 42
-0.037066
  0
VERTEX
  8
0
 10
371.000000
 20
93.000000
 42
0.046778
  0
VERTEX
  8
0
 10
371.765090
 20
93.506621
 42
0.048510
  0
VERTEX
  8
0
 10
372.412500
 20
94.141106
 42
0.053449
  0
VERTEX
  8
0
 10
372.856645
 20
94.801956
 42
0.121834
  0
VERTEX
  8
0
 10
373.000000
 20
95.381546
 42
-0.097525
  0
VERTEX
  8
0
 10
373.336904
 20
97.092383
 42
-0.017177
  0
VERTEX
  8
0
 10
374.688682
 20
100.093386
 42
-0.016219
  0
VERTEX
  8
0
 10
376.236441
 20
102.995080
 42
-0.115651
  0
VERTEX
  8
0
 10
377.317382
 20
104.149075
 42
0.124542
  0
VERTEX
  8
0
 10
377.645517
 20
104.511930
 42
0.077933
  0
VERTEX
  8
0
 10
377.833088
 20
105.056279
 42
0.069946
  0
VERTEX
  8
0
 10
377.856429
 20
105.693388
 42
0.065936
  0
VERTEX
  8
0
 10
377.705158
 20
106.325962
 42
-0.097588
  0
VERTEX
  8
0
 10
377.588347
 20
106.998996
 42
-0.069982
  0
VERTEX
  8
0
 10
377.712157
 20
107.754425
 42
-0.067433
  0
VERTEX
  8
0
 10
378.048280
 20
108.474275
 42
-0.076791
  0
VERTEX
  8
0
 10
378.552264
 20
109.043375
 42
0.084793
  0
VERTEX
  8
0
 10
379.177517
 20
109.772447
 42
0.023874
  0
VERTEX
  8
0
 10
379.887775
 20
111.097750
 42
0.023340
  0
VERTEX
  8
0
 10
380.559265
 20
112.696840
 42
0.022692
  0
VERTEX
  8
0
 10
381.085850
 20
114.366488
 42
-0.016939
  0
VERTEX
  8
0
 10
381.598315
 20
116.058991
 42
-0.016546
  0
VERTEX
  8
0
 10
382.227789
 20
117.726406
 42
-0.016688
  0
VERTEX
  8
0
 10
382.876934
 20
119.151464
 42
-0.057785
  0
VERTEX
  8
0
 10
383.428333
 20
120.000000
 42
0.057275
  0
VERTEX
  8
0
 10
384.764259
 20
122.051265
 42
0.029100
  0
VERTEX
  8
0
 10
385.978164
 20
124.885537
 42
0.026035
  0
VERTEX
  8
0
 10
386.819880
 20
127.661377
 42
0.145018
  0
VERTEX
  8
0
 10
386.749601
 20
129.199184
 42
-0.127750
  0
VERTEX
  8
0
 10
386.697255
 20
129.855617
 42
-0.044047
  0
VERTEX
  8
0
 10
386.946343
 20
130.782315
 42
-0.040326
  0
VERTEX
  8
0
 10
387.414741
 20
131.800329
 42
-0.036953
  0
VERTEX
  8
0
 10
388.052600
 20
132.761888
 42
0.048318
  0
VERTEX
  8
0
 10
388.687080
 20
133.767141
 42
0.043021
  0
VERTEX
  8
0
 10
389.146079
 20
134.914759
 42
0.045479
  0
VERTEX
  8
0
 10
389.375701
 20
136.027025
 42
0.092379
  0
VERTEX
  8
0
 10
389.312097
 20
136.914542
 42
-0.116205
  0
VERTEX
  8
0
 10
389.288043
 20
137.899965
 42
-0.088197
  0
VERTEX
  8
0
 10
389.693210
 20
138.905874
 42
-0.064447
  0
VERTEX
  8
0
 10
390.562107
 20
139.963899
 42
-0.029479
  0
VERTEX
  8
0
 10
391.936373
 20
141.111080
 42
0.033222
  0
VERTEX
  8
0
 10
393.111544
 20
142.107073
 42
0.040229
  0
VERTEX
  8
0
 10
394.065155
 20
143.192369
 42
0.044618
  0
VERTEX
  8
0
 10
394.690345
 20
144.209084
 42
0.157207
  0
VERTEX
  8
0
 10
394.803807
 20
144.958426
 42
-0.138458
  0
VERTEX
  8
0
 10
394.892735
 20
145.738018
 42
-0.036530
  0
VERTEX
  8
0
 10
395.457325
 20
146.872514
 42
-0.034192
  0
VERTEX
  8
0
 10
396.317150
 20
148.120846
 42
-0.029331
  0
VERTEX
  8
0
 10
397.381422
 20
149.309709
 42
0.028939
  0
VERTEX
  8
0
 10
398.722528
 20
150.805457
 42
0.068365
  0
VERTEX
  8
0
 10
399.486311
 20
152.089636
 42
0.083787
  0
VERTEX
  8
0
 10
399.787750
 20
153.360662
 42
0.063726
  0
VERTEX
  8
0
 10
399.699477
 20
154.791752
 42
-0.093549
  0
VERTEX
  8
0
 10
399.694232
 20
157.044377
 42
-0.046207
  0
VERTEX
  8
0
 10
400.478509
 20
159.807371
 42
-0.043072
  0
VERTEX
  8
0
 10
401.871693
 20
162.654927
 42
-0.044566
  0
VERTEX
  8
0
 10
403.718550
 20
165.186987
 42
0.054385
  0
VERTEX
  8
0
 10
404.230327
 20
165.918308
 42
0.060204
  0
VERTEX
  8
0
 10
404.551592
 20
166.718779
 42
0.068566
  0
VERTEX
  8
0
 10
404.644948
 20
167.464844
 42
0.136117
  0
VERTEX
  8
0
 10
404.479827
 20
168.032640
 42
-0.317122
  0
VERTEX
  8
0
 10
404.563962
 20
169.419156
 42
-0.026508
  0
VERTEX
  8
0
 10
407.092079
 20
172.256716
 42
-0.027248
  0
VERTEX
  8
0
 10
409.930802
 20
174.825489
 42
-0.253694
  0
VERTEX
  8
0
 10
411.500000
 20
175.117736
 42
0.065837
  0
VERTEX
  8
0
 10
412.259984
 20
174.978429
 42
0.001176
  0
VERTEX
  8
0
 10
416.405894
 20
174.781538
 42
0.002919
  0
VERTEX
  8
0
 10
421.245465
 20
174.591415
 42
0.001941
  0
VERTEX
  8
0
 10
426.796661
 20
174.427352
 42
-0.003854
  0
VERTEX
  8
0
 10
432.347647
 20
174.242039
 42
-0.005788
  0
VERTEX
  8
0
 10
437.186803
 20
173.987001
 42
-0.002580
  0
VERTEX
  8
0
 10
441.298033
 20
173.701266
 42
-0.120332
  0
VERTEX
  8
0
 10
442.091198
 20
173.443637
 42
0.066943
  0
VERTEX
  8
0
 10
442.675431
 20
173.182813
 42
0.014832
  0
VERTEX
  8
0
 10
443.737553
 20
172.904196
 42
0.015159
  0
VERTEX
  8
0
 10
444.994173
 20
172.653960
 42
0.014093
  0
VERTEX
  8
0
 10
446.294537
 20
172.473279
 42
-0.006910
  0
VERTEX
  8
0
 10
454.978874
 20
171.393535
 42
-0.006290
  0
VERTEX
  8
0
 10
463.907279
 20
170.043266
 42
-0.003432
  0
VERTEX
  8
0
 10
471.990613
 20
168.659543
 42
-0.078912
  0
VERTEX
  8
0
 10
474.199099
 20
167.893446
 42
0.042853
  0
VERTEX
  8
0
 10
475.045223
 20
167.529967
 42
0.038993
  0
VERTEX
  8
0
 10
475.968000
 20
167.302050
 42
0.041235
  0
VERTEX
  8
0
 10
476.828456
 20
167.231529
 42
0.091695
  0
VERTEX
  8
0
 10
477.472505
 20
167.351076
 42
-0.087061
  0
VERTEX
  8
0
 10
478.281495
 20
167.508946
 42
-0.012472
  0
VERTEX
  8
0
 10
479.975306
 20
167.498942
 42
-0.013854
  0
VERTEX
  8
0
 10
481.997348
 20
167.380405
 42
-0.011430
  0
VERTEX
  8
0
 10
484.144364
 20
167.145187
 42
0.018526
  0
VERTEX
  8
0
 10
486.487346
 20
166.922092
 42
0.013516
  0
VERTEX
  8
0
 10
489.101782
 20
166.841399
 42
0.013691
  0
VERTEX
  8
0
 10
491.587534
 20
166.899961
 42
0.029079
  0
VERTEX
  8
0
 10
493.500000
 20
167.109400
 42
-0.015569
  0
VERTEX
  8
0
 10
495.097438
 20
167.328138
 42
-0.019520
  0
VERTEX
  8
0
 10
496.589117
 20
167.426604
 42
-0.018031
  0
VERTEX
  8
0
 10
497.824906
 20
167.415259
 42
-0.125260
  0
VERTEX
  8
0
 10
498.399121
 20
167.241113
 42
0.127733
  0
VERTEX
  8
0
 10
500.685538
 20
166.559830
 42
0.014499
  0
VERTEX
  8
0
 10
506.127052
 20
166.524416
 42
0.017417
  0
VERTEX
  8
0
 10
511.588106
 20
166.837780
 42
0.072475
  0
VERTEX
  8
0
 10
514.785989
 20
167.609674
 42
0.049711
  0
VERTEX
  8
0
 10
516.321292
 20
168.410692
 42
0.053842
  0
VERTEX
  8
0
 10
517.623826
 20
169.480914
 42
0.052310
  0
VERTEX
  8
0
 10
518.697415
 20
170.833547
 42
0.042672
  0
VERTEX
  8
0
 10
519.553160
 20
172.472988
 42
0.019034
  0
VERTEX
  8
0
 10
520.336702
 20
174.569152
 42
0.087031
  0
VERTEX
  8
0
 10
520.525162
 20
175.850530
 42
0.104651
  0
VERTEX
  8
0
 10
520.248543
 20
177.000096
 42
0.033852
  0
VERTEX
  8
0
 10
519.385862
 20
178.533853
 42
-0.062661
  0
VERTEX
  8
0
 10
518.680878
 20
179.975271
 42
-0.034554
  0
VERTEX
  8
0
 10
518.174580
 20
181.873565
 42
-0.029794
  0
VERTEX
  8
0
 10
517.871712
 20
184.154772
 42
-0.020355
  0
VERTEX
  8
0
 10
517.788771
 20
186.768711
 42
0.012889
  0
VERTEX
  8
0
 10
517.750756
 20
189.032335
 42
0.016681
  0
VERTEX
  8
0
 10
517.593211
 20
191.103286
 42
0.014459
  0
VERTEX
  8
0
 10
517.357081
 20
192.801000
 42
0.125166
  0
VERTEX
  8
0
 10
517.050873
 20
193.493835
 42
-0.096968
  0
VERTEX
  8
0
 10
516.714577
 20
194.152846
 42
-0.014343
  0
VERTEX
  8
0
 10
516.343327
 20
195.607738
 42
-0.015713
  0
VERTEX
  8
0
 10
516.004054
 20
197.374373
 42
-0.012937
  0
VERTEX
  8
0
 10
515.750565
 20
199.277188
 42
-0.016636
  0
VERTEX
  8
0
 10
515.568708
 20
201.753889
 42
-0.059848
  0
VERTEX
  8
0
 10
515.694340
 20
203.330311
 42
-0.094805
  0
VERTEX
  8
0
 10
516.141359
 20
204.423634
 42
-0.094283
  0
VERTEX
  8
0
 10
516.961073
 20
205.277188
 42
0.071603
  0
VERTEX
  8
0
 10
519.158064
 20
207.367709
 42
0.123566
  0
VERTEX
  8
0
 10
520.184265
 20
209.657177
 42
0.096174
  0
VERTEX
  8
0
 10
520.136906
 20
212.568440
 42
0.031989
  0
VERTEX
  8
0
 10
518.985802
 20
216.695873
 42
-0.000058
  0
VERTEX
  8
0
 10
518.133391
 20
219.138025
 42
-0.000052
  0
VERTEX
  8
0
 10
517.248057
 20
221.676288
 42
-0.000052
  0
VERTEX
  8
0
 10
516.452462
 20
223.958787
 42
-0.000160
  0
VERTEX
  8
0
 10
515.915984
 20
225.500000
 42
-0.004170
  0
VERTEX
  8
0
 10
515.410033
 20
226.995092
 42
-0.001587
  0
VERTEX
  8
0
 10
514.728696
 20
229.087500
 42
-0.001572
  0
VERTEX
  8
0
 10
514.002692
 20
231.365869
 42
-0.001924
  0
VERTEX
  8
0
 10
513.339052
 20
233.500000
 42
0.009292
  0
VERTEX
  8
0
 10
512.649021
 20
235.608895
 42
0.007877
  0
VERTEX
  8
0
 10
511.843815
 20
237.810948
 42
0.007961
  0
VERTEX
  8
0
 10
511.046527
 20
239.794219
 42
0.022001
  0
VERTEX
  8
0
 10
510.402653
 20
241.154292
 42
-0.032833
  0
VERTEX
  8
0
 10
509.865364
 20
242.355809
 42
-0.022742
  0
VERTEX
  8
0
 10
509.412029
 20
243.774039
 42
-0.023011
  0
VERTEX
  8
0
 10
509.100169
 20
245.182569
 42
-0.042996
  0
VERTEX
  8
0
 10
509.000000
 20
246.345275
 42
0.036258
  0
VERTEX
  8
0
 10
508.926204
 20
247.361593
 42
0.040522
  0
VERTEX
  8
0
 10
508.706250
 20
248.318361
 42
0.044457
  0
VERTEX
  8
0
 10
508.384706
 20
249.087832
 42
0.133928
  0
VERTEX
  8
0
 10
508.000000
 20
249.500000
 42
-0.126539
  0
VERTEX
  8
0
 10
507.615725
 20
249.899895
 42
-0.046607
  0
VERTEX
  8
0
 10
507.293750
 20
250.619741
 42
-0.042479
  0
VERTEX
  8
0
 10
507.073898
 20
251.508357
 42
-0.039429
  0
VERTEX
  8
0
 10
507.000000
 20
252.444007
 42
0.082885
  0
VERTEX
  8
0
 10
506.824663
 20
253.494452
 42
0.058036
  0
VERTEX
  8
0
 10
506.305233
 20
254.578805
 42
0.054342
  0
VERTEX
  8
0
 10
505.505349
 20
255.585858
 42
0.052782
  0
VERTEX
  8
0
 10
504.500000
 20
256.408043
 42
-0.034010
  0
VERTEX
  8
0
 10
503.543268
 20
257.132391
 42
-0.038375
  0
VERTEX
  8
0
 10
502.734375
 20
257.953251
 42
-0.041791
  0
VERTEX
  8
0
 10
502.169748
 20
258.747820
 42
-0.134369
  0
VERTEX
  8
0
 10
502.000000
 20
259.368065
 42
0.106529
  0
VERTEX
  8
0
 10
501.863758
 20
260.000267
 42
0.035963
  0
VERTEX
  8
0
 10
501.412500
 20
260.833379
 42
0.033860
  0
VERTEX
  8
0
 10
500.765364
 20
261.709847
 42
0.032896
  0
VERTEX
  8
0
 10
500.000000
 20
262.500000
 42
-0.063995
  0
VERTEX
  8
0
 10
499.234169
 20
263.395658
 42
-0.041960
  0
VERTEX
  8
0
 10
498.587500
 20
264.591479
 42
-0.041807
  0
VERTEX
  8
0
 10
498.146665
 20
265.885680
 42
-0.061260
  0
VERTEX
  8
0
 10
498.000000
 20
267.078262
 42
0.069392
  0
VERTEX
  8
0
 10
497.822408
 20
268.351740
 42
0.033433
  0
VERTEX
  8
0
 10
497.265625
 20
269.906120
 42
0.032352
  0
VERTEX
  8
0
 10
496.456912
 20
271.476783
 42
0.039856
  0
VERTEX
  8
0
 10
495.500000
 20
272.817631
 42
-0.017043
  0
VERTEX
  8
0
 10
494.542843
 20
274.037200
 42
-0.020684
  0
VERTEX
  8
0
 10
493.734375
 20
275.244726
 42
-0.019751
  0
VERTEX
  8
0
 10
493.145513
 20
276.299652
 42
-0.117948
  0
VERTEX
  8
0
 10
493.000000
 20
276.907925
 42
0.053615
  0
VERTEX
  8
0
 10
492.940934
 20
277.457180
 42
0.020047
  0
VERTEX
  8
0
 10
492.745625
 20
278.208446
 42
0.019591
  0
VERTEX
  8
0
 10
492.465537
 20
279.016643
 42
0.022460
  0
VERTEX
  8
0
 10
492.134044
 20
279.763569
 42
-0.023029
  0
VERTEX
  8
0
 10
491.196839
 20
281.881791
 42
-0.007938
  0
VERTEX
  8
0
 10
490.033691
 20
285.023015
 42
-0.008056
  0
VERTEX
  8
0
 10
488.959875
 20
288.234919
 42
-0.019860
  0
VERTEX
  8
0
 10
488.304581
 20
290.632354
 42
0.138002
  0
VERTEX
  8
0
 10
487.184597
 20
292.675810
 42
0.113651
  0
VERTEX
  8
0
 10
485.082378
 20
294.019782
 42
0.094882
  0
VERTEX
  8
0
 10
482.260558
 20
294.455780
 42
0.068973
  0
VERTEX
  8
0
 10
479.124003
 20
293.905646
 42
0.009626
  0
VERTEX
  8
0
 10
477.663238
 20
293.404304
 42
0.010630
  0
VERTEX
  8
0
 10
476.270801
 20
292.862437
 42
0.010079
  0
VERTEX
  8
0
 10
475.103610
 20
292.351617
 42
0.052315
  0
VERTEX
  8
0
 10
474.500000
 20
291.992066
 42
-0.045996
  0
VERTEX
  8
0
 10
473.949990
 20
291.654976
 42
-0.013930
  0
VERTEX
  8
0
 10
473.059375
 20
291.246466
 42
-0.013826
  0
VERTEX
  8
0
 10
472.030468
 20
290.842004
 42
-0.014637
  0
VERTEX
  8
0
 10
471.000000
 20
290.503236
 42
0.024699
  0
VERTEX
  8
0
 10
467.273034
 20
289.194352
 42
0.021677
  0
VERTEX
  8
0
 10
463.523314
 20
287.472507
 42
0.017195
  0
VERTEX
  8
0
 10
460.351978
 20
285.706051
 42
0.166975
  0
VERTEX
  8
0
 10
459.378489
 20
284.543943
 42
-0.113495
  0
VERTEX
  8
0
 10
458.967254
 20
283.932970
 42
-0.032150
  0
VERTEX
  8
0
 10
458.076106
 20
283.200365
 42
-0.030621
  0
VERTEX
  8
0
 10
456.932967
 20
282.479584
 42
-0.028132
  0
VERTEX
  8
0
 10
455.678145
 20
281.881012
 42
0.044338
  0
VERTEX
  8
0
 10
454.212956
 20
281.122939
 42
0.019214
  0
VERTEX
  8
0
 10
452.405455
 20
279.874374
 42
0.018835
  0
VERTEX
  8
0
 10
450.572895
 20
278.390653
 42
0.023750
  0
VERTEX
  8
0
 10
449.000000
 20
276.878385
 42
-0.025952
  0
VERTEX
  8
0
 10
447.328515
 20
275.285429
 42
-0.015320
  0
VERTEX
  8
0
 10
445.181920
 20
273.553763
 42
-0.015306
  0
VERTEX
  8
0
 10
442.926275
 20
271.951709
 42
-0.025248
  0
VERTEX
  8
0
 10
440.917174
 20
270.757008
 42
0.045084
  0
VERTEX
  8
0
 10
438.531300
 20
269.207143
 42
0.010047
  0
VERTEX
  8
0
 10
434.767383
 20
266.124018
 42
0.010353
  0
VERTEX
  8
0
 10
430.550151
 20
262.371951
 42
0.009832
  0
VERTEX
  8
0
 10
426.417174
 20
258.384618
 42
-0.009645
  0
VERTEX
  8
0
 10
422.363648
 20
254.471014
 42
-0.011467
  0
VERTEX
  8
0
 10
418.385045
 20
250.941788
 42
-0.010330
  0
VERTEX
  8
0
 10
414.915498
 20
248.124474
 42
-0.069634
  0
VERTEX
  8
0
 10
413.000000
 20
247.021827
 42
0.016680
  0
VERTEX
  8
0
 10
411.471438
 20
246.345380
 42
0.011178
  0
VERTEX
  8
0
 10
409.768971
 20
245.475560
 42
0.011264
  0
VERTEX
  8
0
 10
408.155870
 20
244.557896
 42
0.021717
  0
VERTEX
  8
0
 10
406.915645
 20
243.739696
 42
-0.051105
  0
VERTEX
  8
0
 10
405.477729
 20
242.907820
 42
-0.050976
  0
VERTEX
  8
0
 10
403.899769
 20
242.384032
 42
-0.045046
  0
VERTEX
  8
0
 10
402.081546
 20
242.148907
 42
-0.027487
  0
VERTEX
  8
0
 10
399.915645
 20
242.184408
 42
-0.017622
  0
VERTEX
  8
0
 10
397.527661
 20
242.439912
 42
-0.088993
  0
VERTEX
  8
0
 10
396.259674
 20
242.859193
 42
-0.150267
  0
VERTEX
  8
0
 10
395.555474
 20
243.577293
 42
-0.084263
  0
VERTEX
  8
0
 10
395.180162
 20
244.752193
 42
0.074563
  0
VERTEX
  8
0
 10
394.897618
 20
245.699291
 42
0.048546
  0
VERTEX
  8
0
 10
394.313853
 20
246.682527
 42
0.047876
  0
VERTEX
  8
0
 10
393.538031
 20
247.552098
 42
0.064818
  0
VERTEX
  8
0
 10
392.680162
 20
248.160892
 42
-0.033659
  0
VERTEX
  8
0
 10
391.749981
 20
248.737630
 42
-0.021957
  0
VERTEX
  8
0
 10
390.756578
 20
249.518557
 42
-0.022092
  0
VERTEX
  8
0
 10
389.850919
 20
250.369570
 42
-0.038803
  0
VERTEX
  8
0
 10
389.193296
 20
251.158699
 42
0.045444
  0
VERTEX
  8
0
 10
388.590238
 20
251.863149
 42
0.043402
  0
VERTEX
  8
0
 10
387.861065
 20
252.459118
 42
0.046570
  0
VERTEX
  8
0
 10
387.120857
 20
252.868693
 42
0.103446
  0
VERTEX
  8
0
 10
386.492986
 20
253.000000
 42
-0.085845
  0
VERTEX
  8
0
 10
385.900692
 20
253.102446
 42
-0.055543
  0
VERTEX
  8
0
 10
385.273843
 20
253.407969
 42
-0.053980
  0
VERTEX
  8
0
 10
384.709013
 20
253.857614
 42
-0.067141
  0
VERTEX
  8
0
 10
384.299690
 20
254.388831
 42
0.098767
  0
VERTEX
  8
0
 10
383.700642
 20
255.072763
 42
0.016254
  0
VERTEX
  8
0
 10
382.266159
 20
256.101329
 42
0.017324
  0
VERTEX
  8
0
 10
380.472930
 20
257.212929
 42
0.014530
  0
VERTEX
  8
0
 10
378.500000
 20
258.268341
 42
-0.003486
  0
VERTEX
  8
0
 10
371.041083
 20
262.049030
 42
-0.018468
  0
VERTEX
  8
0
 10
367.051754
 20
264.296402
 42
-0.029255
  0
VERTEX
  8
0
 10
364.124758
 20
266.335422
 42
-0.019271
  0
VERTEX
  8
0
 10
361.000000
 20
268.996822
 42
0.016890
  0
VERTEX
  8
0
 10
359.037751
 20
270.684278
 42
0.014445
  0
VERTEX
  8
0
 10
356.863058
 20
272.329214
 42
0.014684
  0
VERTEX
  8
0
 10
354.798397
 20
273.709615
 42
0.039668
  0
VERTEX
  8
0
 10
353.235942
 20
274.524376
 42
-0.030410
  0
VERTEX
  8
0
 10
351.943075
 20
275.168435
 42
-0.031699
  0
VERTEX
  8
0
 10
350.756528
 20
275.956646
 42
-0.033438
  0
VERTEX
  8
0
 10
349.827011
 20
276.766294
 42
-0.105628
  0
VERTEX
  8
0
 10
349.378953
 20
277.454847
 42
0.100307
  0
VERTEX
  8
0
 10
349.003279
 20
278.045682
 42
0.066834
  0
VERTEX
  8
0
 10
348.372958
 20
278.546111
 42
0.063574
  0
VERTEX
  8
0
 10
347.595469
 20
278.884570
 42
0.071020
  0
VERTEX
  8
0
 10
346.786916
 20
279.000000
 42
-0.094115
  0
VERTEX
  8
0
 10
345.771154
 20
279.192906
 42
-0.025417
  0
VERTEX
  8
0
 10
344.272306
 20
279.873386
 42
-0.024795
  0
VERTEX
  8
0
 10
342.617764
 20
280.835222
 42
-0.023428
  0
VERTEX
  8
0
 10
341.033801
 20
281.973230
 42
0.014391
  0
VERTEX
  8
0
 10
339.557118
 20
283.075150
 42
0.022993
  0
VERTEX
  8
0
 10
338.229002
 20
283.919543
 42
0.019148
  0
VERTEX
  8
0
 10
337.139249
 20
284.489719
 42
0.317341
  0
VERTEX
  8
0
 10
336.757138
 20
284.423804
 42
-0.295172
  0
VERTEX
  8
0
 10
336.371048
 20
284.340965
 42
-0.019908
  0
VERTEX
  8
0
 10
335.284456
 20
284.803573
 42
-0.023488
  0
VERTEX
  8
0
 10
333.955328
 20
285.511282
 42
-0.014998
  0
VERTEX
  8
0
 10
332.477695
 20
286.450575
 42
0.025908
  0
VERTEX
  8
0
 10
330.866064
 20
287.426356
 42
0.024442
  0
VERTEX
  8
0
 10
329.131080
 20
288.251106
 42
0.025228
  0
VERTEX
  8
0
 10
327.523425
 20
288.827812
 42
0.073628
  0
VERTEX
  8
0
 10
326.360453
 20
289.000000
 42
-0.034152
  0
VERTEX
  8
0
 10
325.456328
 20
289.061827
 42
-0.052144
  0
VERTEX
  8
0
 10
324.693383
 20
289.249137
 42
-0.067829
  0
VERTEX
  8
0
 10
324.168363
 20
289.522729
 42
-0.243381
  0
VERTEX
  8
0
 10
324.000000
 20
289.848126
 42
0.234134
  0
VERTEX
  8
0
 10
323.788570
 20
290.274891
 42
0.019673
  0
VERTEX
  8
0
 10
322.751562
 20
291.001980
 42
0.022911
  0
VERTEX
  8
0
 10
321.378320
 20
291.799841
 42
0.015575
  0
VERTEX
  8
0
 10
319.750000
 20
292.585154
 42
-0.006237
  0
VERTEX
  8
0
 10
318.049515
 20
293.366475
 42
-0.007273
  0
VERTEX
  8
0
 10
316.454688
 20
294.152110
 42
-0.006529
  0
VERTEX
  8
0
 10
315.126270
 20
294.852715
 42
-0.043033
  0
VERTEX
  8
0
 10
314.500000
 20
295.266972
 42
0.011350
  0
VERTEX
  8
0
 10
309.852556
 20
298.783196
 42
0.017791
  0
VERTEX
  8
0
 10
305.687324
 20
301.568614
 42
0.017260
  0
VERTEX
  8
0
 10
302.239040
 20
303.539921
 42
0.121801
  0
VERTEX
  8
0
 10
300.378411
 20
304.000000
 42
-0.041270
  0
VERTEX
  8
0
 10
299.467006
 20
304.075356
 42
-0.043524
  0
VERTEX
  8
0
 10
298.597020
 20
304.299336
 42
-0.047682
  0
VERTEX
  8
0
 10
297.889129
 20
304.627649
 42
-0.122524
  0
VERTEX
  8
0
 10
297.488248
 20
305.019016
 42
0.131170
  0
VERTEX
  8
0
 10
295.835691
 20
306.578313
 42
0.019265
  0
VERTEX
  8
0
 10
291.668413
 20
308.627402
 42
0.017124
  0
VERTEX
  8
0
 10
287.353812
 20
310.371864
 42
0.181036
  0
VERTEX
  8
0
 10
285.486702
 20
310.356524
 42
-0.077005
  0
VERTEX
  8
0
 10
284.708487
 20
310.188454
 42
-0.038634
  0
VERTEX
  8
0
 10
283.700310
 20
310.206841
 42
-0.037193
  0
VERTEX
  8
0
 10
282.637331
 20
310.389110
 42
-0.045121
  0
VERTEX
  8
0
 10
281.682539
 20
310.720799
 42
-0.001589
  0
VERTEX
  8
0
 10
280.519783
 20
311.250843
 42
-0.000424
  0
VERTEX
  8
0
 10
278.672371
 20
312.101988
 42
-0.000430
  0
VERTEX
  8
0
 10
276.574342
 20
313.072947
 42
-0.000444
  0
VERTEX
  8
0
 10
274.500000
 20
314.037350
 42
0.022853
  0
VERTEX
  8
0
 10
271.105462
 20
315.434207
 42
0.028090
  0
VERTEX
  8
0
 10
267.821216
 20
316.408974
 42
0.031048
  0
VERTEX
  8
0
 10
264.810388
 20
316.926664
 42
0.052316
  0
VERTEX
  8
0
 10
262.250000
 20
316.936044
 42
-0.019006
  0
VERTEX
  8
0
 10
258.646617
 20
316.709215
 42
-0.012085
  0
VERTEX
  8
0
 10
254.442652
 20
316.706309
 42
-0.008645
  0
VERTEX
  8
0
 10
250.529390
 20
316.865925
 42
-0.093394
  0
VERTEX
  8
0
 10
249.000000
 20
317.247175
 42
0.160840
  0
VERTEX
  8
0
 10
247.978378
 20
317.361666
 42
0.011524
  0
VERTEX
  8
0
 10
245.162977
 20
316.701288
 42
0.015175
  0
VERTEX
  8
0
 10
241.767372
 20
315.710927
 42
0.010595
  0
SEQEND
  0
ENDSEC
  0
EOF
