  0
SECTION
  2
HEADER
  9
$ACADVER
  1
AC1006
  9
$EXTMIN
 10
0.000000
 20
0.000000
 30
0.000000
  9
$EXTMAX
 10
183.000000
 20
264.000000
 30
0.000000
  0
ENDSEC
  0
SECTION
  2
ENTITIES
  0
POLYLINE
  8
0
 66
1
 70
1
  0
VERTEX
  8
0
 10
112.541681
 20
263.320738
 42
0.048988
  0
VERTEX
  8
0
 10
110.246422
 20
262.428983
 42
0.044507
  0
VERTEX
  8
0
 10
108.088358
 20
261.083718
 42
0.046654
  0
VERTEX
  8
0
 10
106.473978
 20
259.610767
 42
0.186605
  0
VERTEX
  8
0
 10
106.000000
 20
258.384990
 42
-0.069101
  0
VERTEX
  8
0
 10
105.926491
 20
257.855638
 42
-0.085278
  0
VERTEX
  8
0
 10
105.711847
 20
257.406841
 42
-0.099961
  0
VERTEX
  8
0
 10
105.393125
 20
257.106761
 42
-0.139908
  0
VERTEX
  8
0
 10
105.019052
 20
257.000000
 42
0.193444
  0
VERTEX
  8
0
 10
104.599638
 20
256.831425
 42
0.056695
  0
VERTEX
  8
0
 10
104.147276
 20
256.286880
 42
0.047796
  0
VERTEX
  8
0
 10
103.734091
 20
255.501689
 42
0.035761
  0
VERTEX
  8
0
 10
103.428805
 20
254.572358
 42
-0.044655
  0
VERTEX
  8
0
 10
103.091373
 20
253.603546
 42
-0.043243
  0
VERTEX
  8
0
 10
102.584372
 20
252.698924
 42
-0.046522
  0
VERTEX
  8
0
 10
101.994079
 20
251.984066
 42
-0.105682
  0
VERTEX
  8
0
 10
101.409753
 20
251.603742
 42
0.110037
  0
VERTEX
  8
0
 10
100.870508
 20
251.246115
 42
0.066264
  0
VERTEX
  8
0
 10
100.414115
 20
250.624961
 42
0.061411
  0
VERTEX
  8
0
 10
100.105156
 20
249.848428
 42
0.064087
  0
VERTEX
  8
0
 10
100.000000
 20
249.031385
 42
-0.070174
  0
VERTEX
  8
0
 10
99.889078
 20
248.244940
 42
-0.089187
  0
VERTEX
  8
0
 10
99.565397
 20
247.588564
 42
-0.103496
  0
VERTEX
  8
0
 10
99.079202
 20
247.154775
 42
-0.131307
  0
VERTEX
  8
0
 10
98.500000
 20
247.000000
 42
0.051669
  0
VERTEX
  8
0
 10
97.926069
 20
246.940532
 42
0.071582
  0
VERTEX
  8
0
 10
97.440625
 20
246.763654
 42
0.091600
  0
VERTEX
  8
0
 10
97.114378
 20
246.502506
 42
0.180184
  0
VERTEX
  8
0
 10
97.000000
 20
246.195417
 42
-0.153863
  0
VERTEX
  8
0
 10
96.847211
 20
245.710664
 42
-0.009647
  0
VERTEX
  8
0
 10
95.953019
 20
244.484143
 42
-0.013505
  0
VERTEX
  8
0
 10
94.801206
 20
243.048850
 42
-0.009575
  0
VERTEX
  8
0
 10
93.435808
 20
241.499644
 42
0.039956
  0
VERTEX
  8
0
 10
90.426051
 20
237.635157
 42
0.035726
  0
VERTEX
  8
0
 10
87.941677
 20
233.197885
 42
0.033944
  0
VERTEX
  8
0
 10
86.006451
 20
228.224954
 42
0.028872
  0
VERTEX
  8
0
 10
84.637167
 20
222.760643
 42
-0.009979
  0
VERTEX
  8
0
 10
83.902417
 20
219.275136
 42
-0.091734
  0
VERTEX
  8
0
 10
83.287836
 20
217.863703
 42
-0.181501
  0
VERTEX
  8
0
 10
82.369785
 20
217.210960
 42
-0.064837
  0
VERTEX
  8
0
 10
80.749762
 20
217.000000
 42
0.052789
  0
VERTEX
  8
0
 10
79.393315
 20
216.856389
 42
0.089086
  0
VERTEX
  8
0
 10
78.337954
 20
216.424226
 42
0.089900
  0
VERTEX
  8
0
 10
77.505261
 20
215.655178
 42
0.054621
  0
VERTEX
  8
0
 10
76.818046
 20
214.500000
 42
-0.022571
  0
VERTEX
  8
0
 10
76.328487
 20
213.542555
 42
-0.031063
  0
VERTEX
  8
0
 10
75.799106
 20
212.734375
 42
-0.031825
  0
VERTEX
  8
0
 10
75.300299
 20
212.148901
 42
-0.203109
  0
VERTEX
  8
0
 10
74.948866
 20
212.000000
 42
0.363634
  0
VERTEX
  8
0
 10
74.655356
 20
211.754012
 42
0.011830
  0
VERTEX
  8
0
 10
74.405035
 20
210.120543
 42
0.017647
  0
VERTEX
  8
0
 10
74.212137
 20
208.054888
 42
0.010706
  0
VERTEX
  8
0
 10
74.122777
 20
205.601848
 42
0.011331
  0
VERTEX
  8
0
 10
74.146896
 20
202.453567
 42
0.041685
  0
VERTEX
  8
0
 10
74.372518
 20
200.476789
 42
0.073431
  0
VERTEX
  8
0
 10
74.809678
 20
199.254836
 42
0.180478
  0
VERTEX
  8
0
 10
75.513396
 20
198.633233
 42
-0.105172
  0
VERTEX
  8
0
 10
76.081930
 20
198.264005
 42
-0.066634
  0
VERTEX
  8
0
 10
76.563310
 20
197.633624
 42
-0.062531
  0
VERTEX
  8
0
 10
76.889020
 20
196.850613
 42
-0.067427
  0
VERTEX
  8
0
 10
77.000000
 20
196.031385
 42
0.047258
  0
VERTEX
  8
0
 10
77.073647
 20
195.253918
 42
0.067241
  0
VERTEX
  8
0
 10
77.293750
 20
194.596719
 42
0.087393
  0
VERTEX
  8
0
 10
77.618064
 20
194.153584
 42
0.193529
  0
VERTEX
  8
0
 10
78.000000
 20
194.000000
 42
-0.099038
  0
VERTEX
  8
0
 10
78.381638
 20
193.923658
 42
-0.097945
  0
VERTEX
  8
0
 10
78.706250
 20
193.706250
 42
-0.097945
  0
VERTEX
  8
0
 10
78.923658
 20
193.381638
 42
-0.099038
  0
VERTEX
  8
0
 10
79.000000
 20
193.000000
 42
-0.148195
  0
VERTEX
  8
0
 10
78.884432
 20
192.618646
 42
-0.098894
  0
VERTEX
  8
0
 10
78.559375
 20
192.293750
 42
-0.082425
  0
VERTEX
  8
0
 10
78.073457
 20
192.074694
 42
-0.064853
  0
VERTEX
  8
0
 10
77.500000
 20
192.000000
 42
0.195980
  0
VERTEX
  8
0
 10
76.528378
 20
191.603952
 42
0.180559
  0
VERTEX
  8
0
 10
76.068008
 20
190.624593
 42
0.086475
  0
VERTEX
  8
0
 10
76.222553
 20
188.919107
 42
0.025113
  0
VERTEX
  8
0
 10
77.038754
 20
186.398068
 42
-0.029765
  0
VERTEX
  8
0
 10
77.400552
 20
185.244061
 42
-0.052397
  0
VERTEX
  8
0
 10
77.539475
 20
184.255365
 42
-0.070120
  0
VERTEX
  8
0
 10
77.460395
 20
183.505802
 42
-0.192929
  0
VERTEX
  8
0
 10
77.154492
 20
183.082969
 42
0.231028
  0
VERTEX
  8
0
 10
76.395678
 20
181.854657
 42
0.022300
  0
VERTEX
  8
0
 10
76.198474
 20
178.253155
 42
0.020934
  0
VERTEX
  8
0
 10
76.311402
 20
174.697913
 42
0.392813
  0
VERTEX
  8
0
 10
77.062680
 20
174.000000
 42
-0.232698
  0
VERTEX
  8
0
 10
77.421848
 20
173.823275
 42
-0.072406
  0
VERTEX
  8
0
 10
77.724662
 20
173.284093
 42
-0.055241
  0
VERTEX
  8
0
 10
77.931545
 20
172.496233
 42
-0.036622
  0
VERTEX
  8
0
 10
78.000000
 20
171.562871
 42
-0.046584
  0
VERTEX
  8
0
 10
77.871552
 20
170.187182
 42
-0.232735
  0
VERTEX
  8
0
 10
77.419954
 20
169.585087
 42
-0.139441
  0
VERTEX
  8
0
 10
76.494409
 20
169.404355
 42
-0.014205
  0
VERTEX
  8
0
 10
74.250000
 20
169.658284
 42
-0.030081
  0
VERTEX
  8
0
 10
71.206646
 20
170.279045
 42
-0.021304
  0
VERTEX
  8
0
 10
67.879312
 20
171.322758
 42
-0.019285
  0
VERTEX
  8
0
 10
64.301393
 20
172.773129
 42
-0.014698
  0
VERTEX
  8
0
 10
60.500000
 20
174.623886
 42
0.064067
  0
VERTEX
  8
0
 10
57.033759
 20
175.906937
 42
0.033001
  0
VERTEX
  8
0
 10
52.458792
 20
176.647963
 42
0.032845
  0
VERTEX
  8
0
 10
47.946209
 20
176.778572
 42
0.083685
  0
VERTEX
  8
0
 10
44.750000
 20
176.118311
 42
0.106629
  0
VERTEX
  8
0
 10
42.837571
 20
174.856732
 42
0.158738
  0
VERTEX
  8
0
 10
41.953993
 20
173.074894
 42
0.242008
  0
VERTEX
  8
0
 10
42.449582
 20
171.625128
 42
0.194012
  0
VERTEX
  8
0
 10
44.000000
 20
171.000000
 42
-0.051092
  0
VERTEX
  8
0
 10
44.765270
 20
170.921596
 42
-0.071035
  0
VERTEX
  8
0
 10
45.412500
 20
170.688251
 42
-0.091108
  0
VERTEX
  8
0
 10
45.847635
 20
170.343818
 42
-0.181844
  0
VERTEX
  8
0
 10
46.000000
 20
169.938727
 42
0.305792
  0
VERTEX
  8
0
 10
46.278929
 20
169.525298
 42
0.073071
  0
VERTEX
  8
0
 10
47.127409
 20
169.319580
 42
0.043830
  0
VERTEX
  8
0
 10
48.486520
 20
169.313629
 42
0.016408
  0
VERTEX
  8
0
 10
50.381767
 20
169.534541
 42
-0.019527
  0
VERTEX
  8
0
 10
52.284516
 20
169.744309
 42
-0.039335
  0
VERTEX
  8
0
 10
53.793075
 20
169.732426
 42
-0.051630
  0
VERTEX
  8
0
 10
54.884921
 20
169.522813
 42
-0.183101
  0
VERTEX
  8
0
 10
55.440784
 20
169.095814
 42
0.089774
  0
VERTEX
  8
0
 10
55.818251
 20
168.676259
 42
0.053221
  0
VERTEX
  8
0
 10
56.392688
 20
168.321895
 42
0.051009
  0
VERTEX
  8
0
 10
57.063335
 20
168.081281
 42
0.060711
  0
VERTEX
  8
0
 10
57.730276
 20
168.000000
 42
-0.063087
  0
VERTEX
  8
0
 10
58.461756
 20
167.907337
 42
-0.033258
  0
VERTEX
  8
0
 10
59.332678
 20
167.620165
 42
-0.032480
  0
VERTEX
  8
0
 10
60.198549
 20
167.201969
 42
-0.042869
  0
VERTEX
  8
0
 10
60.921259
 20
166.706943
 42
0.072143
  0
VERTEX
  8
0
 10
63.296054
 20
165.276284
 42
0.029128
  0
VERTEX
  8
0
 10
66.871646
 20
164.011746
 42
0.024459
  0
VERTEX
  8
0
 10
71.432619
 20
162.930429
 42
0.014742
  0
VERTEX
  8
0
 10
76.925466
 20
162.075569
 42
-0.003754
  0
VERTEX
  8
0
 10
79.722746
 20
161.702977
 42
-0.005838
  0
VERTEX
  8
0
 10
82.127940
 20
161.335525
 42
-0.002058
  0
VERTEX
  8
0
 10
84.187526
 20
160.987504
 42
-0.168132
  0
VERTEX
  8
0
 10
84.466983
 20
160.833141
 42
-0.203221
  0
VERTEX
  8
0
 10
84.566227
 20
160.545289
 42
-0.003520
  0
VERTEX
  8
0
 10
84.437705
 20
158.857746
 42
-0.008300
  0
VERTEX
  8
0
 10
84.239036
 20
156.870739
 42
-0.005357
  0
VERTEX
  8
0
 10
83.946130
 20
154.576207
 42
0.020550
  0
VERTEX
  8
0
 10
83.693988
 20
151.973797
 42
0.014683
  0
VERTEX
  8
0
 10
83.617541
 20
149.048498
 42
0.014863
  0
VERTEX
  8
0
 10
83.709766
 20
146.251624
 42
0.030511
  0
VERTEX
  8
0
 10
83.980125
 20
144.076993
 42
-0.007193
  0
VERTEX
  8
0
 10
84.285508
 20
142.301224
 42
-0.011054
  0
VERTEX
  8
0
 10
84.493605
 20
140.755393
 42
-0.005690
  0
VERTEX
  8
0
 10
84.624046
 20
139.459574
 42
-0.222135
  0
VERTEX
  8
0
 10
84.527811
 20
139.194477
 42
-0.384406
  0
VERTEX
  8
0
 10
84.285866
 20
139.182027
 42
-0.003481
  0
VERTEX
  8
0
 10
82.770348
 20
140.431640
 42
-0.009363
  0
VERTEX
  8
0
 10
81.009195
 20
141.961450
 42
-0.005642
  0
VERTEX
  8
0
 10
78.976201
 20
143.837335
 42
0.068283
  0
VERTEX
  8
0
 10
72.473910
 20
148.480920
 42
0.157614
  0
VERTEX
  8
0
 10
66.624134
 20
149.491978
 42
0.123725
  0
VERTEX
  8
0
 10
60.338723
 20
146.925152
 42
0.034884
  0
VERTEX
  8
0
 10
52.205146
 20
140.023482
 42
0.000000
  0
VERTEX
  8
0
 10
46.910293
 20
134.854334
 42
0.000000
  0
VERTEX
  8
0
 10
34.396145
 20
134.931411
 42
0.005793
  0
VERTEX
  8
0
 10
24.911187
 20
134.879929
 42
0.039015
  0
VERTEX
  8
0
 10
20.231778
 20
134.434022
 42
0.102924
  0
VERTEX
  8
0
 10
17.861708
 20
133.492547
 42
0.252029
  0
VERTEX
  8
0
 10
17.000000
 20
131.891592
 42
0.077788
  0
VERTEX
  8
0
 10
17.113106
 20
131.168971
 42
0.090224
  0
VERTEX
  8
0
 10
17.440625
 20
130.555655
 42
0.100780
  0
VERTEX
  8
0
 10
17.927938
 20
130.145641
 42
0.125296
  0
VERTEX
  8
0
 10
18.500000
 20
130.000000
 42
-0.104141
  0
VERTEX
  8
0
 10
19.072352
 20
129.879482
 42
-0.099006
  0
VERTEX
  8
0
 10
19.559375
 20
129.537322
 42
-0.096664
  0
VERTEX
  8
0
 10
19.885765
 20
129.026153
 42
-0.094159
  0
VERTEX
  8
0
 10
20.000000
 20
128.424927
 42
-0.255407
  0
VERTEX
  8
0
 10
19.570528
 20
127.639013
 42
-0.118899
  0
VERTEX
  8
0
 10
18.438518
 20
127.246378
 42
-0.039073
  0
VERTEX
  8
0
 10
16.118510
 20
127.202129
 42
-0.004759
  0
VERTEX
  8
0
 10
11.036046
 20
127.551092
 42
0.000000
  0
VERTEX
  8
0
 10
2.072091
 20
128.252329
 42
0.000000
  0
VERTEX
  8
0
 10
0.883118
 20
125.642816
 42
0.154171
  0
VERTEX
  8
0
 10
0.329103
 20
121.108969
 42
0.035278
  0
VERTEX
  8
0
 10
2.300072
 20
113.543875
 42
0.037069
  0
VERTEX
  8
0
 10
5.544101
 20
105.860317
 42
0.070291
  0
VERTEX
  8
0
 10
9.406309
 20
100.380614
 42
-0.008569
  0
VERTEX
  8
0
 10
10.030436
 20
99.693180
 42
-0.001437
  0
VERTEX
  8
0
 10
11.200212
 20
98.351773
 42
-0.001573
  0
VERTEX
  8
0
 10
12.565858
 20
96.766597
 42
-0.001395
  0
VERTEX
  8
0
 10
13.977393
 20
95.108351
 42
0.021184
  0
VERTEX
  8
0
 10
15.427450
 20
93.535423
 42
0.026303
  0
VERTEX
  8
0
 10
16.908874
 20
92.206828
 42
0.026210
  0
VERTEX
  8
0
 10
18.236176
 20
91.247054
 42
0.144405
  0
VERTEX
  8
0
 10
19.073755
 20
91.000000
 42
-0.063804
  0
VERTEX
  8
0
 10
19.915593
 20
90.892136
 42
-0.017417
  0
VERTEX
  8
0
 10
21.202078
 20
90.508654
 42
-0.017318
  0
VERTEX
  8
0
 10
22.643200
 20
89.967592
 42
-0.017238
  0
VERTEX
  8
0
 10
24.045663
 20
89.327334
 42
0.051815
  0
VERTEX
  8
0
 10
26.053409
 20
88.573441
 42
0.027431
  0
VERTEX
  8
0
 10
28.661998
 20
88.042438
 42
0.022227
  0
VERTEX
  8
0
 10
31.919334
 20
87.710608
 42
0.012008
  0
VERTEX
  8
0
 10
35.949301
 20
87.577334
 42
0.012255
  0
VERTEX
  8
0
 10
41.078346
 20
87.656658
 42
0.043603
  0
VERTEX
  8
0
 10
44.334973
 20
88.072895
 42
0.044444
  0
VERTEX
  8
0
 10
47.438535
 20
89.043499
 42
0.013089
  0
VERTEX
  8
0
 10
52.000000
 20
91.070181
 42
0.008084
  0
VERTEX
  8
0
 10
54.985266
 20
92.550904
 42
0.009602
  0
VERTEX
  8
0
 10
57.752628
 20
94.047741
 42
0.008560
  0
VERTEX
  8
0
 10
60.033746
 20
95.390869
 42
0.059203
  0
VERTEX
  8
0
 10
61.051499
 20
96.193109
 42
-0.084391
  0
VERTEX
  8
0
 10
62.137526
 20
96.964206
 42
-0.009663
  0
VERTEX
  8
0
 10
64.875662
 20
98.219006
 42
-0.011441
  0
VERTEX
  8
0
 10
68.220995
 20
99.584362
 42
-0.009089
  0
VERTEX
  8
0
 10
71.891229
 20
100.909330
 42
0.013257
  0
VERTEX
  8
0
 10
77.612625
 20
103.028842
 42
0.025155
  0
VERTEX
  8
0
 10
82.073843
 20
105.083448
 42
0.030304
  0
VERTEX
  8
0
 10
85.688605
 20
107.262453
 42
0.036133
  0
VERTEX
  8
0
 10
88.794441
 20
109.750000
 42
-0.009599
  0
VERTEX
  8
0
 10
89.331320
 20
110.228862
 42
-0.013559
  0
VERTEX
  8
0
 10
89.828783
 20
110.632812
 42
-0.009669
  0
VERTEX
  8
0
 10
90.254042
 20
110.946520
 42
-0.155290
  0
VERTEX
  8
0
 10
90.422084
 20
111.000000
 42
-0.470558
  0
VERTEX
  8
0
 10
90.809702
 20
110.531461
 42
-0.004017
  0
VERTEX
  8
0
 10
89.772388
 20
105.320856
 42
-0.010837
  0
VERTEX
  8
0
 10
88.641198
 20
100.405972
 42
-0.046626
  0
VERTEX
  8
0
 10
87.638261
 20
97.580370
 42
0.042927
  0
VERTEX
  8
0
 10
87.084338
 20
96.055596
 42
0.019132
  0
VERTEX
  8
0
 10
86.608439
 20
93.970526
 42
0.018773
  0
VERTEX
  8
0
 10
86.270385
 20
91.712314
 42
0.024134
  0
VERTEX
  8
0
 10
86.138646
 20
89.617165
 42
-0.010069
  0
VERTEX
  8
0
 10
86.072408
 20
87.707569
 42
-0.014212
  0
VERTEX
  8
0
 10
85.930875
 20
86.011023
 42
-0.010314
  0
VERTEX
  8
0
 10
85.746039
 20
84.621874
 42
-0.159454
  0
VERTEX
  8
0
 10
85.531016
 20
84.197683
 42
-0.225725
  0
VERTEX
  8
0
 10
85.062406
 20
84.031185
 42
-0.004877
  0
VERTEX
  8
0
 10
82.582524
 20
84.311036
 42
-0.010208
  0
VERTEX
  8
0
 10
79.638540
 20
84.733544
 42
-0.006591
  0
VERTEX
  8
0
 10
76.247185
 20
85.337156
 42
0.006533
  0
VERTEX
  8
0
 10
69.438246
 20
86.549862
 42
0.033835
  0
VERTEX
  8
0
 10
65.635285
 20
86.914325
 42
0.065836
  0
VERTEX
  8
0
 10
63.197641
 20
86.660920
 42
0.123761
  0
VERTEX
  8
0
 10
61.453616
 20
85.750000
 42
-0.009135
  0
VERTEX
  8
0
 10
60.735699
 20
85.133758
 42
-0.003259
  0
VERTEX
  8
0
 10
59.689317
 20
84.279687
 42
-0.003232
  0
VERTEX
  8
0
 10
58.528861
 20
83.357350
 42
-0.003813
  0
VERTEX
  8
0
 10
57.418402
 20
82.500000
 42
0.016929
  0
VERTEX
  8
0
 10
56.220989
 20
81.524339
 42
0.008667
  0
VERTEX
  8
0
 10
54.783287
 20
80.224990
 42
0.008603
  0
VERTEX
  8
0
 10
53.347087
 20
78.833935
 42
0.012800
  0
VERTEX
  8
0
 10
52.143358
 20
77.563796
 42
-0.003497
  0
VERTEX
  8
0
 10
47.801016
 20
72.807713
 42
-0.022582
  0
VERTEX
  8
0
 10
45.487522
 20
70.525055
 42
-0.046698
  0
VERTEX
  8
0
 10
43.922231
 20
69.359131
 42
-0.137577
  0
VERTEX
  8
0
 10
42.641737
 20
69.000000
 42
0.107769
  0
VERTEX
  8
0
 10
41.999695
 20
68.859990
 42
0.105759
  0
VERTEX
  8
0
 10
41.469227
 20
68.464907
 42
0.098625
  0
VERTEX
  8
0
 10
41.120848
 20
67.861071
 42
0.081852
  0
VERTEX
  8
0
 10
41.000000
 20
67.127808
 42
0.127119
  0
VERTEX
  8
0
 10
41.240036
 20
66.198927
 42
0.130594
  0
VERTEX
  8
0
 10
41.898494
 20
65.513706
 42
0.076137
  0
VERTEX
  8
0
 10
43.125344
 20
65.004214
 42
0.020770
  0
VERTEX
  8
0
 10
45.186908
 20
64.586103
 42
0.018946
  0
VERTEX
  8
0
 10
47.161429
 20
64.346662
 42
0.052255
  0
VERTEX
  8
0
 10
48.560839
 20
64.376931
 42
0.081588
  0
VERTEX
  8
0
 10
49.516659
 20
64.660971
 42
0.153347
  0
VERTEX
  8
0
 10
50.097152
 20
65.208295
 42
-0.063277
  0
VERTEX
  8
0
 10
51.887256
 20
67.628404
 42
-0.013896
  0
VERTEX
  8
0
 10
55.572873
 20
71.272673
 42
-0.015051
  0
VERTEX
  8
0
 10
59.560128
 20
74.782963
 42
-0.039702
  0
VERTEX
  8
0
 10
62.671166
 20
76.968489
 42
-0.040572
  0
VERTEX
  8
0
 10
65.189262
 20
78.190919
 42
-0.066635
  0
VERTEX
  8
0
 10
67.487972
 20
78.748030
 42
-0.037166
  0
VERTEX
  8
0
 10
70.661886
 20
78.844556
 42
-0.005335
  0
VERTEX
  8
0
 10
77.151260
 20
78.490119
 42
0.000000
  0
VERTEX
  8
0
 10
87.866043
 20
77.790161
 42
0.000000
  0
VERTEX
  8
0
 10
87.378296
 20
70.645080
 42
-0.006398
  0
VERTEX
  8
0
 10
87.118175
 20
67.438881
 42
-0.004014
  0
VERTEX
  8
0
 10
86.735937
 20
63.696230
 42
-0.004029
  0
VERTEX
  8
0
 10
86.300319
 20
60.017397
 42
-0.007346
  0
VERTEX
  8
0
 10
85.876462
 20
57.022937
 42
0.009678
  0
VERTEX
  8
0
 10
85.464486
 20
54.011291
 42
0.031161
  0
VERTEX
  8
0
 10
85.354791
 20
51.992884
 42
0.047276
  0
VERTEX
  8
0
 10
85.488681
 20
50.691083
 42
0.269257
  0
VERTEX
  8
0
 10
85.931188
 20
50.189604
 42
-0.197239
  0
VERTEX
  8
0
 10
86.343499
 20
49.834329
 42
-0.046345
  0
VERTEX
  8
0
 10
86.686036
 20
48.970375
 42
-0.040850
  0
VERTEX
  8
0
 10
86.921680
 20
47.826636
 42
-0.030392
  0
VERTEX
  8
0
 10
87.000000
 20
46.539332
 42
0.042831
  0
VERTEX
  8
0
 10
87.418729
 20
41.660149
 42
0.021434
  0
VERTEX
  8
0
 10
88.735327
 20
35.604421
 42
0.012499
  0
VERTEX
  8
0
 10
90.389953
 20
29.892068
 42
0.326917
  0
VERTEX
  8
0
 10
91.608502
 20
29.000000
 42
-0.142318
  0
VERTEX
  8
0
 10
92.139136
 20
28.845840
 42
-0.099692
  0
VERTEX
  8
0
 10
92.591247
 20
28.412500
 42
-0.084450
  0
VERTEX
  8
0
 10
92.895827
 20
27.764471
 42
-0.067821
  0
VERTEX
  8
0
 10
93.000000
 20
27.000000
 42
0.071947
  0
VERTEX
  8
0
 10
93.124330
 20
26.140434
 42
0.119776
  0
VERTEX
  8
0
 10
93.489583
 20
25.510870
 42
0.123365
  0
VERTEX
  8
0
 10
94.093978
 20
25.130948
 42
0.079088
  0
VERTEX
  8
0
 10
94.916667
 20
25.000000
 42
-0.051164
  0
VERTEX
  8
0
 10
95.675738
 20
24.922122
 42
-0.057332
  0
VERTEX
  8
0
 10
96.373044
 20
24.691805
 42
-0.065477
  0
VERTEX
  8
0
 10
96.908946
 20
24.352588
 42
-0.139382
  0
VERTEX
  8
0
 10
97.183058
 20
23.950827
 42
0.235579
  0
VERTEX
  8
0
 10
97.579379
 20
23.553770
 42
0.057806
  0
VERTEX
  8
0
 10
98.509362
 20
23.357378
 42
0.042525
  0
VERTEX
  8
0
 10
99.837128
 20
23.347235
 42
0.020891
  0
VERTEX
  8
0
 10
101.516391
 20
23.548245
 42
0.033220
  0
VERTEX
  8
0
 10
103.634722
 20
24.038265
 42
0.081659
  0
VERTEX
  8
0
 10
105.064170
 20
24.740614
 42
0.083918
  0
VERTEX
  8
0
 10
106.170541
 20
25.850751
 42
0.036538
  0
VERTEX
  8
0
 10
107.250000
 20
27.638519
 42
0.017567
  0
VERTEX
  8
0
 10
107.920984
 20
29.082329
 42
0.017460
  0
VERTEX
  8
0
 10
108.490436
 20
30.572609
 42
0.017603
  0
VERTEX
  8
0
 10
108.895940
 20
31.907705
 42
0.062760
  0
VERTEX
  8
0
 10
109.015313
 20
32.791101
 42
-0.012047
  0
VERTEX
  8
0
 10
109.047073
 20
33.751615
 42
-0.338229
  0
VERTEX
  8
0
 10
109.200130
 20
33.929886
 42
-0.299515
  0
VERTEX
  8
0
 10
109.432445
 20
33.838984
 42
-0.010516
  0
VERTEX
  8
0
 10
110.000000
 20
33.000000
 42
-0.052612
  0
VERTEX
  8
0
 10
110.373047
 20
32.263066
 42
-0.026937
  0
VERTEX
  8
0
 10
110.689119
 20
31.275061
 42
-0.026435
  0
VERTEX
  8
0
 10
110.907906
 20
30.211601
 42
-0.035836
  0
VERTEX
  8
0
 10
110.984687
 20
29.234251
 42
0.054043
  0
VERTEX
  8
0
 10
111.293242
 20
26.556899
 42
0.021390
  0
VERTEX
  8
0
 10
112.266567
 20
22.977369
 42
0.012763
  0
VERTEX
  8
0
 10
113.456879
 20
19.544795
 42
0.312483
  0
VERTEX
  8
0
 10
114.243479
 20
19.000000
 42
-0.235321
  0
VERTEX
  8
0
 10
114.533452
 20
18.855526
 42
-0.071297
  0
VERTEX
  8
0
 10
114.777772
 20
18.412500
 42
-0.054474
  0
VERTEX
  8
0
 10
114.944775
 20
17.765980
 42
-0.036002
  0
VERTEX
  8
0
 10
115.000000
 20
17.000000
 42
0.072314
  0
VERTEX
  8
0
 10
115.111864
 20
16.230589
 42
0.088920
  0
VERTEX
  8
0
 10
115.437500
 20
15.583333
 42
0.102140
  0
VERTEX
  8
0
 10
115.924246
 20
15.153209
 42
0.130775
  0
VERTEX
  8
0
 10
116.500000
 20
15.000000
 42
-0.152103
  0
VERTEX
  8
0
 10
117.148955
 20
14.797909
 42
-0.126510
  0
VERTEX
  8
0
 10
117.625000
 20
14.250000
 42
-0.082504
  0
VERTEX
  8
0
 10
117.911037
 20
13.322075
 42
-0.033607
  0
VERTEX
  8
0
 10
118.000000
 20
12.000000
 42
0.052421
  0
VERTEX
  8
0
 10
118.134254
 20
10.722983
 42
0.039360
  0
VERTEX
  8
0
 10
118.536142
 20
9.367188
 42
0.040246
  0
VERTEX
  8
0
 10
119.125778
 20
8.138088
 42
0.069780
  0
VERTEX
  8
0
 10
119.825165
 20
7.250000
 42
0.032771
  0
VERTEX
  8
0
 10
124.564421
 20
3.267418
 42
0.071512
  0
VERTEX
  8
0
 10
128.741444
 20
1.036442
 42
0.073944
  0
VERTEX
  8
0
 10
133.287114
 20
0.114241
 42
0.037100
  0
VERTEX
  8
0
 10
139.158972
 20
0.241253
 42
0.025220
  0
VERTEX
  8
0
 10
141.947240
 20
0.651893
 42
0.065790
  0
VERTEX
  8
0
 10
143.862041
 20
1.303577
 42
0.067920
  0
VERTEX
  8
0
 10
145.506528
 20
2.416760
 42
0.028265
  0
VERTEX
  8
0
 10
147.402635
 20
4.319758
 42
0.063968
  0
VERTEX
  8
0
 10
149.869749
 20
7.931288
 42
0.049409
  0
VERTEX
  8
0
 10
151.608000
 20
12.375839
 42
0.042598
  0
VERTEX
  8
0
 10
152.627988
 20
17.710309
 42
0.027461
  0
VERTEX
  8
0
 10
152.935642
 20
24.000000
 42
0.027608
  0
VERTEX
  8
0
 10
152.348863
 20
33.570335
 42
0.032629
  0
VERTEX
  8
0
 10
150.710703
 20
42.487928
 42
0.028648
  0
VERTEX
  8
0
 10
147.722991
 20
52.004930
 42
0.014947
  0
VERTEX
  8
0
 10
142.979540
 20
63.500000
 42
-0.014484
  0
VERTEX
  8
0
 10
138.293488
 20
74.826167
 42
-0.011068
  0
VERTEX
  8
0
 10
133.806114
 20
87.463868
 42
-0.003955
  0
VERTEX
  8
0
 10
129.871266
 20
99.699365
 42
-0.279084
  0
VERTEX
  8
0
 10
130.361997
 20
101.695331
 42
-0.430733
  0
VERTEX
  8
0
 10
131.057097
 20
101.675839
 42
-0.043563
  0
VERTEX
  8
0
 10
132.162821
 20
100.197721
 42
-0.039031
  0
VERTEX
  8
0
 10
133.260552
 20
98.074512
 42
-0.037506
  0
VERTEX
  8
0
 10
134.032111
 20
95.778349
 42
0.004840
  0
VERTEX
  8
0
 10
135.955659
 20
88.514551
 42
0.015057
  0
VERTEX
  8
0
 10
137.445562
 20
83.675173
 42
0.021138
  0
VERTEX
  8
0
 10
138.726291
 20
80.383359
 42
0.077223
  0
VERTEX
  8
0
 10
139.926712
 20
78.500000
 42
-0.022819
  0
VERTEX
  8
0
 10
143.759185
 20
73.721398
 42
-0.024901
  0
VERTEX
  8
0
 10
147.022381
 20
68.746582
 42
-0.025098
  0
VERTEX
  8
0
 10
149.360991
 20
64.260733
 42
-0.108012
  0
VERTEX
  8
0
 10
150.000000
 20
61.337208
 42
0.042873
  0
VERTEX
  8
0
 10
150.183326
 20
59.203134
 42
0.227865
  0
VERTEX
  8
0
 10
150.844827
 20
58.275499
 42
0.170164
  0
VERTEX
  8
0
 10
152.131366
 20
58.059750
 42
0.022654
  0
VERTEX
  8
0
 10
154.863179
 20
58.659883
 42
0.065904
  0
VERTEX
  8
0
 10
156.158614
 20
59.197177
 42
0.179412
  0
VERTEX
  8
0
 10
156.781506
 20
59.950408
 42
0.096254
  0
VERTEX
  8
0
 10
156.969620
 20
61.247711
 42
0.011970
  0
VERTEX
  8
0
 10
156.764022
 20
64.104072
 42
0.031588
  0
VERTEX
  8
0
 10
156.381882
 20
66.487981
 42
0.039584
  0
VERTEX
  8
0
 10
155.717772
 20
68.625564
 42
0.040201
  0
VERTEX
  8
0
 10
154.735261
 20
70.605087
 42
0.034310
  0
VERTEX
  8
0
 10
153.400843
 20
72.515710
 42
-0.007413
  0
VERTEX
  8
0
 10
149.155495
 20
77.947181
 42
-0.028211
  0
VERTEX
  8
0
 10
146.754135
 20
81.516659
 42
-0.046241
  0
VERTEX
  8
0
 10
145.469813
 20
84.220984
 42
-0.085275
  0
VERTEX
  8
0
 10
145.033221
 20
86.609079
 42
0.060236
  0
VERTEX
  8
0
 10
144.824111
 20
88.196064
 42
0.018119
  0
VERTEX
  8
0
 10
144.132230
 20
90.535324
 42
0.017874
  0
VERTEX
  8
0
 10
143.158590
 20
93.125572
 42
0.018509
  0
VERTEX
  8
0
 10
142.012667
 20
95.609079
 42
-0.010345
  0
VERTEX
  8
0
 10
140.867913
 20
97.987218
 42
-0.012592
  0
VERTEX
  8
0
 10
139.899143
 20
100.261066
 42
-0.011175
  0
VERTEX
  8
0
 10
139.180044
 20
102.199522
 42
-0.081507
  0
VERTEX
  8
0
 10
139.012667
 20
103.173275
 42
0.096083
  0
VERTEX
  8
0
 10
138.842684
 20
104.015518
 42
0.026710
  0
VERTEX
  8
0
 10
138.261285
 20
105.237360
 42
0.025918
  0
VERTEX
  8
0
 10
137.440852
 20
106.577433
 42
0.024584
  0
VERTEX
  8
0
 10
136.472557
 20
107.850245
 42
0.000000
  0
VERTEX
  8
0
 10
133.945114
 20
110.853940
 42
0.000000
  0
VERTEX
  8
0
 10
137.506902
 20
109.870483
 42
0.048707
  0
VERTEX
  8
0
 10
140.327795
 20
109.380262
 42
0.071105
  0
VERTEX
  8
0
 10
142.840581
 20
109.549489
 42
0.065762
  0
VERTEX
  8
0
 10
145.344842
 20
110.436896
 42
0.035402
  0
VERTEX
  8
0
 10
148.154370
 20
112.131196
 42
-0.025217
  0
VERTEX
  8
0
 10
149.287633
 20
112.846463
 42
-0.024545
  0
VERTEX
  8
0
 10
150.497196
 20
113.451039
 42
-0.025320
  0
VERTEX
  8
0
 10
151.610616
 20
113.874973
 42
-0.078454
  0
VERTEX
  8
0
 10
152.402534
 20
114.000000
 42
-0.232580
  0
VERTEX
  8
0
 10
154.457964
 20
112.989218
 42
-0.034153
  0
VERTEX
  8
0
 10
157.109489
 20
109.015749
 42
-0.037935
  0
VERTEX
  8
0
 10
159.286697
 20
104.442608
 42
-0.091103
  0
VERTEX
  8
0
 10
159.981000
 20
100.769052
 42
0.024372
  0
VERTEX
  8
0
 10
160.089227
 20
98.760339
 42
0.103637
  0
VERTEX
  8
0
 10
160.453103
 20
97.620847
 42
0.141818
  0
VERTEX
  8
0
 10
161.176795
 20
96.914307
 42
0.061514
  0
VERTEX
  8
0
 10
162.443165
 20
96.424909
 42
0.029427
  0
VERTEX
  8
0
 10
163.449655
 20
96.234400
 42
0.031056
  0
VERTEX
  8
0
 10
164.453535
 20
96.167909
 42
0.032684
  0
VERTEX
  8
0
 10
165.319018
 20
96.221027
 42
0.107140
  0
VERTEX
  8
0
 10
165.856152
 20
96.411097
 42
0.197183
  0
VERTEX
  8
0
 10
166.871658
 20
97.810195
 42
0.028529
  0
VERTEX
  8
0
 10
167.520812
 20
101.348678
 42
0.031887
  0
VERTEX
  8
0
 10
167.744307
 20
105.029595
 42
0.108084
  0
VERTEX
  8
0
 10
167.225852
 20
107.365151
 42
0.007279
  0
VERTEX
  8
0
 10
164.625338
 20
112.771650
 42
0.021607
  0
VERTEX
  8
0
 10
162.631244
 20
116.369513
 42
0.028724
  0
VERTEX
  8
0
 10
161.014726
 20
118.698554
 42
0.150730
  0
VERTEX
  8
0
 10
159.750000
 20
119.577649
 42
-0.081008
  0
VERTEX
  8
0
 10
159.081167
 20
119.917289
 42
-0.069512
  0
VERTEX
  8
0
 10
158.514062
 20
120.467565
 42
-0.071249
  0
VERTEX
  8
0
 10
158.131235
 20
121.137121
 42
-0.094565
  0
VERTEX
  8
0
 10
158.000000
 20
121.824802
 42
-0.214042
  0
VERTEX
  8
0
 10
158.386348
 20
122.685959
 42
-0.141689
  0
VERTEX
  8
0
 10
159.379672
 20
123.160714
 42
-0.046819
  0
VERTEX
  8
0
 10
161.442333
 20
123.306946
 42
-0.005647
  0
VERTEX
  8
0
 10
166.000000
 20
123.151529
 42
0.008921
  0
VERTEX
  8
0
 10
169.504844
 20
123.054984
 42
0.024596
  0
VERTEX
  8
0
 10
171.973197
 20
123.152497
 42
0.029514
  0
VERTEX
  8
0
 10
173.622485
 20
123.397847
 42
0.354893
  0
VERTEX
  8
0
 10
174.000000
 20
123.862730
 42
-0.160138
  0
VERTEX
  8
0
 10
174.119114
 20
124.225103
 42
-0.151727
  0
VERTEX
  8
0
 10
174.432388
 20
124.455673
 42
-0.111261
  0
VERTEX
  8
0
 10
174.908748
 20
124.509111
 42
-0.064216
  0
VERTEX
  8
0
 10
175.471961
 20
124.372386
 42
0.153485
  0
VERTEX
  8
0
 10
177.373386
 20
124.254699
 42
0.051654
  0
VERTEX
  8
0
 10
180.018200
 20
125.208137
 42
0.051471
  0
VERTEX
  8
0
 10
182.318487
 20
126.624980
 42
0.235741
  0
VERTEX
  8
0
 10
182.984687
 20
127.994111
 42
0.106056
  0
VERTEX
  8
0
 10
182.481543
 20
130.228470
 42
0.205874
  0
VERTEX
  8
0
 10
181.145206
 20
131.428981
 42
0.090403
  0
VERTEX
  8
0
 10
178.438040
 20
131.825722
 42
0.012078
  0
VERTEX
  8
0
 10
172.654657
 20
131.484375
 42
-0.013457
  0
VERTEX
  8
0
 10
165.356643
 20
131.073836
 42
-0.049472
  0
VERTEX
  8
0
 10
160.748930
 20
131.394970
 42
-0.110842
  0
VERTEX
  8
0
 10
158.317188
 20
132.392356
 42
-0.313879
  0
VERTEX
  8
0
 10
157.716706
 20
134.024683
 42
0.141376
  0
VERTEX
  8
0
 10
157.662329
 20
136.189635
 42
0.079403
  0
VERTEX
  8
0
 10
156.474590
 20
138.560213
 42
0.075414
  0
VERTEX
  8
0
 10
154.521060
 20
140.560834
 42
0.100819
  0
VERTEX
  8
0
 10
152.237350
 20
141.652202
 42
-0.091863
  0
VERTEX
  8
0
 10
150.072711
 20
142.639869
 42
-0.026882
  0
VERTEX
  8
0
 10
147.182540
 20
144.906287
 42
-0.022493
  0
VERTEX
  8
0
 10
144.584231
 20
147.394465
 42
-0.194365
  0
VERTEX
  8
0
 10
144.003748
 20
148.855755
 42
-0.257236
  0
VERTEX
  8
0
 10
144.188186
 20
149.185971
 42
-0.012550
  0
VERTEX
  8
0
 10
145.306405
 20
149.845325
 42
-0.017769
  0
VERTEX
  8
0
 10
146.736786
 20
150.575764
 42
-0.011620
  0
VERTEX
  8
0
 10
148.433061
 20
151.319819
 42
0.020909
  0
VERTEX
  8
0
 10
150.333744
 20
152.195982
 42
0.014901
  0
VERTEX
  8
0
 10
152.387193
 20
153.327280
 42
0.015083
  0
VERTEX
  8
0
 10
154.283996
 20
154.525796
 42
0.030819
  0
VERTEX
  8
0
 10
155.679313
 20
155.598240
 42
-0.002846
  0
VERTEX
  8
0
 10
158.580463
 20
158.098061
 42
-0.020082
  0
VERTEX
  8
0
 10
160.045247
 20
159.247563
 42
-0.042931
  0
VERTEX
  8
0
 10
161.004018
 20
159.821512
 42
-0.113889
  0
VERTEX
  8
0
 10
161.777458
 20
160.000000
 42
0.141388
  0
VERTEX
  8
0
 10
162.233523
 20
160.131595
 42
0.023291
  0
VERTEX
  8
0
 10
162.993483
 20
160.660937
 42
0.024011
  0
VERTEX
  8
0
 10
163.852076
 20
161.388514
 42
0.019163
  0
VERTEX
  8
0
 10
164.706831
 20
162.250000
 42
-0.024687
  0
VERTEX
  8
0
 10
167.156475
 20
164.665006
 42
-0.036987
  0
VERTEX
  8
0
 10
169.537688
 20
166.493969
 42
-0.041774
  0
VERTEX
  8
0
 10
171.911740
 20
167.783326
 42
-0.049498
  0
VERTEX
  8
0
 10
174.337962
 20
168.574229
 42
0.050465
  0
VERTEX
  8
0
 10
176.831974
 20
169.392557
 42
0.085673
  0
VERTEX
  8
0
 10
178.653587
 20
170.609123
 42
0.111755
  0
VERTEX
  8
0
 10
179.652871
 20
172.106569
 42
0.142933
  0
VERTEX
  8
0
 10
179.787947
 20
173.751589
 42
0.132096
  0
VERTEX
  8
0
 10
179.362739
 20
174.599803
 42
0.133790
  0
VERTEX
  8
0
 10
178.571330
 20
175.115414
 42
0.070455
  0
VERTEX
  8
0
 10
177.202732
 20
175.351411
 42
0.015784
  0
VERTEX
  8
0
 10
174.829136
 20
175.347884
 42
0.048782
  0
VERTEX
  8
0
 10
171.527271
 20
174.914401
 42
0.053374
  0
VERTEX
  8
0
 10
168.475584
 20
173.853172
 42
0.047031
  0
VERTEX
  8
0
 10
165.418188
 20
172.039919
 42
0.026819
  0
VERTEX
  8
0
 10
162.083124
 20
169.326797
 42
-0.024546
  0
VERTEX
  8
0
 10
160.901881
 20
168.356887
 42
-0.012332
  0
VERTEX
  8
0
 10
159.323662
 20
167.245064
 42
-0.012215
  0
VERTEX
  8
0
 10
157.631534
 20
166.173229
 42
-0.017692
  0
VERTEX
  8
0
 10
156.083124
 20
165.317602
 42
0.011415
  0
VERTEX
  8
0
 10
154.638030
 20
164.542582
 42
0.012118
  0
VERTEX
  8
0
 10
153.258793
 20
163.717070
 42
0.011784
  0
VERTEX
  8
0
 10
152.107795
 20
162.951176
 42
0.053177
  0
VERTEX
  8
0
 10
151.500000
 20
162.421360
 42
-0.048026
  0
VERTEX
  8
0
 10
150.830564
 20
161.825597
 42
-0.005822
  0
VERTEX
  8
0
 10
149.225019
 20
160.680329
 42
-0.006871
  0
VERTEX
  8
0
 10
147.277711
 20
159.364547
 42
-0.005611
  0
VERTEX
  8
0
 10
145.159639
 20
158.009130
 42
-0.008212
  0
VERTEX
  8
0
 10
141.729155
 20
155.945240
 42
-0.080933
  0
VERTEX
  8
0
 10
140.159193
 20
155.347695
 42
-0.142372
  0
VERTEX
  8
0
 10
138.841187
 20
155.454258
 42
-0.042537
  0
VERTEX
  8
0
 10
137.005347
 20
156.337770
 42
0.058131
  0
VERTEX
  8
0
 10
135.372102
 20
157.062109
 42
0.031624
  0
VERTEX
  8
0
 10
133.236634
 20
157.580338
 42
0.026768
  0
VERTEX
  8
0
 10
130.641980
 20
157.896688
 42
0.016952
  0
VERTEX
  8
0
 10
127.595708
 20
158.000000
 42
0.000000
  0
VERTEX
  8
0
 10
121.000000
 20
158.000000
 42
0.000000
  0
VERTEX
  8
0
 10
121.000000
 20
162.044484
 42
-0.036384
  0
VERTEX
  8
0
 10
121.262233
 20
165.643385
 42
-0.012894
  0
VERTEX
  8
0
 10
122.142850
 20
170.735037
 42
-0.010425
  0
VERTEX
  8
0
 10
123.586342
 20
177.254607
 42
-0.005107
  0
VERTEX
  8
0
 10
125.682564
 20
185.500000
 42
0.018772
  0
VERTEX
  8
0
 10
128.396283
 20
197.543307
 42
0.007994
  0
VERTEX
  8
0
 10
131.162130
 20
213.841434
 42
0.007466
  0
VERTEX
  8
0
 10
133.357309
 20
229.742738
 42
0.030253
  0
VERTEX
  8
0
 10
133.960715
 20
239.500000
 42
0.027435
  0
VERTEX
  8
0
 10
133.667080
 20
244.974857
 42
0.030306
  0
VERTEX
  8
0
 10
132.774917
 20
250.202537
 42
0.027743
  0
VERTEX
  8
0
 10
131.537397
 20
254.424957
 42
0.231106
  0
VERTEX
  8
0
 10
130.154866
 20
255.781711
 42
-0.087672
  0
VERTEX
  8
0
 10
129.713475
 20
256.020926
 42
-0.069625
  0
VERTEX
  8
0
 10
129.339242
 20
256.414490
 42
-0.069438
  0
VERTEX
  8
0
 10
129.086558
 20
256.896847
 42
-0.086186
  0
VERTEX
  8
0
 10
129.000000
 20
257.395275
 42
0.256343
  0
VERTEX
  8
0
 10
127.588025
 20
259.968377
 42
0.055421
  0
VERTEX
  8
0
 10
122.867514
 20
262.285493
 42
0.053973
  0
VERTEX
  8
0
 10
117.215938
 20
263.654994
 42
0.100984
  0
SEQEND
  0
POLYLINE
  8
0
 66
1
 70
1
  0
VERTEX
  8
0
 10
117.991768
 20
225.281419
 42
-0.001313
  0
VERTEX
  8
0
 10
117.216981
 20
224.080596
 42
-0.277761
  0
VERTEX
  8
0
 10
117.097391
 20
224.022339
 42
-0.476774
  0
VERTEX
  8
0
 10
117.043173
 20
224.102889
 42
-0.001768
  0
VERTEX
  8
0
 10
117.424495
 20
225.331787
 42
0.016511
  0
VERTEX
  8
0
 10
117.653444
 20
226.154579
 42
0.010829
  0
VERTEX
  8
0
 10
117.865021
 20
227.115525
 42
0.010898
  0
VERTEX
  8
0
 10
118.030559
 20
228.061342
 42
0.020515
  0
VERTEX
  8
0
 10
118.116001
 20
228.831787
 42
-0.003297
  0
VERTEX
  8
0
 10
118.195396
 20
229.874179
 42
-0.415955
  0
VERTEX
  8
0
 10
118.286372
 20
229.950778
 42
-0.313315
  0
VERTEX
  8
0
 10
118.393355
 20
229.861430
 42
-0.002736
  0
VERTEX
  8
0
 10
118.683275
 20
228.781419
 42
-0.071654
  0
VERTEX
  8
0
 10
118.773251
 20
227.993643
 42
-0.041454
  0
VERTEX
  8
0
 10
118.666294
 20
227.044380
 42
-0.040484
  0
VERTEX
  8
0
 10
118.395933
 20
226.089758
 42
-0.053417
  0
SEQEND
  0
POLYLINE
  8
0
 66
1
 70
1
  0
VERTEX
  8
0
 10
111.267257
 20
221.250000
 42
-0.028138
  0
VERTEX
  8
0
 10
111.461709
 20
218.503575
 42
-0.165203
  0
VERTEX
  8
0
 10
111.022848
 20
217.147670
 42
-0.530710
  0
VERTEX
  8
0
 10
110.319458
 20
217.179699
 42
-0.060608
  0
VERTEX
  8
0
 10
109.526991
 20
218.914958
 42
-0.088919
  0
VERTEX
  8
0
 10
109.310453
 20
220.571752
 42
-0.022644
  0
VERTEX
  8
0
 10
109.562200
 20
223.280009
 42
-0.022088
  0
VERTEX
  8
0
 10
110.005170
 20
225.685118
 42
-0.623551
  0
VERTEX
  8
0
 10
110.482510
 20
225.796570
 42
-0.126048
  0
VERTEX
  8
0
 10
110.595522
 20
225.552916
 42
-0.003149
  0
VERTEX
  8
0
 10
110.812985
 20
224.338680
 42
-0.006580
  0
VERTEX
  8
0
 10
111.041835
 20
222.900095
 42
-0.004413
  0
SEQEND
  0
POLYLINE
  8
0
 66
1
 70
1
  0
VERTEX
  8
0
 10
103.683114
 20
213.812500
 42
-0.054073
  0
VERTEX
  8
0
 10
103.461564
 20
213.395823
 42
-0.470617
  0
VERTEX
  8
0
 10
103.279315
 20
213.378580
 42
-0.168741
  0
VERTEX
  8
0
 10
103.137993
 20
213.670344
 42
-0.018894
  0
VERTEX
  8
0
 10
103.078947
 20
214.416667
 42
-0.028489
  0
VERTEX
  8
0
 10
103.089945
 20
215.112848
 42
-0.077125
  0
VERTEX
  8
0
 10
103.200665
 20
215.592839
 42
-0.208169
  0
VERTEX
  8
0
 10
103.385309
 20
215.775380
 42
-0.296942
  0
VERTEX
  8
0
 10
103.604167
 20
215.729167
 42
-0.126455
  0
VERTEX
  8
0
 10
103.797407
 20
215.402231
 42
-0.060344
  0
VERTEX
  8
0
 10
103.876576
 20
214.916927
 42
-0.054150
  0
VERTEX
  8
0
 10
103.839148
 20
214.359369
 42
-0.051402
  0
SEQEND
  0
POLYLINE
  8
0
 66
1
 70
1
  0
VERTEX
  8
0
 10
115.000000
 20
214.000000
 42
0.077752
  0
VERTEX
  8
0
 10
115.140212
 20
213.103790
 42
0.125898
  0
VERTEX
  8
0
 10
115.548273
 20
212.454169
 42
0.115773
  0
VERTEX
  8
0
 10
116.247065
 20
212.045734
 42
0.059561
  0
VERTEX
  8
0
 10
117.250000
 20
211.863818
 42
0.000000
  0
VERTEX
  8
0
 10
119.500000
 20
211.727636
 42
0.000000
  0
VERTEX
  8
0
 10
117.251650
 20
211.294483
 42
0.151184
  0
VERTEX
  8
0
 10
115.715704
 20
210.474406
 42
0.090275
  0
VERTEX
  8
0
 10
114.535944
 20
208.750784
 42
0.090632
  0
VERTEX
  8
0
 10
114.042438
 20
206.728822
 42
0.154256
  0
VERTEX
  8
0
 10
114.464874
 20
205.056835
 42
-0.128940
  0
VERTEX
  8
0
 10
114.587838
 20
204.655214
 42
-0.189539
  0
VERTEX
  8
0
 10
114.468207
 20
204.310445
 42
-0.145934
  0
VERTEX
  8
0
 10
114.107406
 20
204.077986
 42
-0.070749
  0
VERTEX
  8
0
 10
113.559017
 20
204.000000
 42
-0.095165
  0
VERTEX
  8
0
 10
112.963945
 20
204.114295
 42
-0.096950
  0
VERTEX
  8
0
 10
112.457961
 20
204.440625
 42
-0.098802
  0
VERTEX
  8
0
 10
112.119235
 20
204.927627
 42
-0.103052
  0
VERTEX
  8
0
 10
112.000000
 20
205.500000
 42
0.130775
  0
VERTEX
  8
0
 10
111.846791
 20
206.075754
 42
0.102140
  0
VERTEX
  8
0
 10
111.416667
 20
206.562500
 42
0.088920
  0
VERTEX
  8
0
 10
110.769411
 20
206.888136
 42
0.072314
  0
VERTEX
  8
0
 10
110.000000
 20
207.000000
 42
0.072254
  0
VERTEX
  8
0
 10
109.126841
 20
206.873159
 42
0.124864
  0
VERTEX
  8
0
 10
108.500000
 20
206.500000
 42
0.124864
  0
VERTEX
  8
0
 10
108.126841
 20
205.873159
 42
0.072254
  0
VERTEX
  8
0
 10
108.000000
 20
205.000000
 42
-0.048028
  0
VERTEX
  8
0
 10
107.926307
 20
204.234582
 42
-0.068025
  0
VERTEX
  8
0
 10
107.706250
 20
203.587500
 42
-0.088204
  0
VERTEX
  8
0
 10
107.381882
 20
203.151477
 42
-0.191087
  0
VERTEX
  8
0
 10
107.000000
 20
203.000000
 42
0.191087
  0
VERTEX
  8
0
 10
106.618118
 20
202.848523
 42
0.088204
  0
VERTEX
  8
0
 10
106.293750
 20
202.412500
 42
0.068025
  0
VERTEX
  8
0
 10
106.073693
 20
201.765418
 42
0.048028
  0
VERTEX
  8
0
 10
106.000000
 20
201.000000
 42
-0.070154
  0
VERTEX
  8
0
 10
105.892222
 20
200.235634
 42
-0.085940
  0
VERTEX
  8
0
 10
105.577843
 20
199.587500
 42
-0.100150
  0
VERTEX
  8
0
 10
105.110903
 20
199.154168
 42
-0.137978
  0
VERTEX
  8
0
 10
104.562871
 20
199.000000
 42
-0.169961
  0
VERTEX
  8
0
 10
103.919629
 20
199.225157
 42
-0.169312
  0
VERTEX
  8
0
 10
103.555987
 20
199.802678
 42
-0.077697
  0
VERTEX
  8
0
 10
103.478444
 20
200.886603
 42
-0.016987
  0
VERTEX
  8
0
 10
103.698663
 20
202.750000
 42
-0.023031
  0
VERTEX
  8
0
 10
104.392653
 20
206.215160
 42
-0.098498
  0
VERTEX
  8
0
 10
105.286351
 20
208.113107
 42
-0.150570
  0
VERTEX
  8
0
 10
106.621225
 20
209.097597
 42
-0.080679
  0
VERTEX
  8
0
 10
108.656505
 20
209.458625
 42
0.040752
  0
VERTEX
  8
0
 10
110.214762
 20
209.608692
 42
0.158505
  0
VERTEX
  8
0
 10
111.058024
 20
210.060497
 42
0.139151
  0
VERTEX
  8
0
 10
111.536002
 20
210.960917
 42
0.028849
  0
VERTEX
  8
0
 10
111.813358
 20
212.750000
 42
-0.081103
  0
VERTEX
  8
0
 10
112.377149
 20
214.886763
 42
-0.196770
  0
VERTEX
  8
0
 10
113.535315
 20
215.992833
 42
-0.371395
  0
VERTEX
  8
0
 10
114.563943
 20
215.631983
 42
-0.131294
  0
SEQEND
  0
POLYLINE
  8
0
 66
1
 70
1
  0
VERTEX
  8
0
 10
122.000000
 20
214.500000
 42
-0.099038
  0
VERTEX
  8
0
 10
121.885486
 20
213.927543
 42
-0.097945
  0
VERTEX
  8
0
 10
121.559375
 20
213.440625
 42
-0.097945
  0
VERTEX
  8
0
 10
121.072457
 20
213.114514
 42
-0.099038
  0
VERTEX
  8
0
 10
120.500000
 20
213.000000
 42
-0.099038
  0
VERTEX
  8
0
 10
119.927543
 20
213.114514
 42
-0.097945
  0
VERTEX
  8
0
 10
119.440625
 20
213.440625
 42
-0.097945
  0
VERTEX
  8
0
 10
119.114514
 20
213.927543
 42
-0.099038
  0
VERTEX
  8
0
 10
119.000000
 20
214.500000
 42
-0.099038
  0
VERTEX
  8
0
 10
119.114514
 20
215.072457
 42
-0.097945
  0
VERTEX
  8
0
 10
119.440625
 20
215.559375
 42
-0.097945
  0
VERTEX
  8
0
 10
119.927543
 20
215.885486
 42
-0.099038
  0
VERTEX
  8
0
 10
120.500000
 20
216.000000
 42
-0.099038
  0
VERTEX
  8
0
 10
121.072457
 20
215.885486
 42
-0.097945
  0
VERTEX
  8
0
 10
121.559375
 20
215.559375
 42
-0.097945
  0
VERTEX
  8
0
 10
121.885486
 20
215.072457
 42
-0.099038
  0
SEQEND
  0
POLYLINE
  8
0
 66
1
 70
1
  0
VERTEX
  8
0
 10
89.683114
 20
200.812500
 42
-0.054073
  0
VERTEX
  8
0
 10
89.461564
 20
200.395823
 42
-0.470617
  0
VERTEX
  8
0
 10
89.279315
 20
200.378580
 42
-0.168741
  0
VERTEX
  8
0
 10
89.137993
 20
200.670344
 42
-0.018894
  0
VERTEX
  8
0
 10
89.078947
 20
201.416667
 42
-0.028489
  0
VERTEX
  8
0
 10
89.089945
 20
202.112848
 42
-0.077125
  0
VERTEX
  8
0
 10
89.200665
 20
202.592839
 42
-0.208169
  0
VERTEX
  8
0
 10
89.385309
 20
202.775380
 42
-0.296942
  0
VERTEX
  8
0
 10
89.604167
 20
202.729167
 42
-0.126455
  0
VERTEX
  8
0
 10
89.797407
 20
202.402231
 42
-0.060344
  0
VERTEX
  8
0
 10
89.876576
 20
201.916927
 42
-0.054150
  0
VERTEX
  8
0
 10
89.839148
 20
201.359369
 42
-0.051402
  0
SEQEND
  0
POLYLINE
  8
0
 66
1
 70
1
  0
VERTEX
  8
0
 10
118.000000
 20
200.059017
 42
-0.161033
  0
VERTEX
  8
0
 10
117.724195
 20
199.224864
 42
-0.089687
  0
VERTEX
  8
0
 10
116.935284
 20
198.485110
 42
-0.099840
  0
VERTEX
  8
0
 10
116.010153
 20
198.120596
 42
-0.245171
  0
VERTEX
  8
0
 10
115.333333
 20
198.333333
 42
-0.245171
  0
VERTEX
  8
0
 10
115.120596
 20
199.010153
 42
-0.099840
  0
VERTEX
  8
0
 10
115.485110
 20
199.935284
 42
-0.089687
  0
VERTEX
  8
0
 10
116.224864
 20
200.724195
 42
-0.161033
  0
VERTEX
  8
0
 10
117.059017
 20
201.000000
 42
-0.099038
  0
VERTEX
  8
0
 10
117.418132
 20
200.928163
 42
-0.097945
  0
VERTEX
  8
0
 10
117.723586
 20
200.723586
 42
-0.097945
  0
VERTEX
  8
0
 10
117.928163
 20
200.418132
 42
-0.099038
  0
SEQEND
  0
POLYLINE
  8
0
 66
1
 70
1
  0
VERTEX
  8
0
 10
109.000000
 20
197.500000
 42
-0.024748
  0
VERTEX
  8
0
 10
108.971531
 20
196.925176
 42
-0.039339
  0
VERTEX
  8
0
 10
108.884553
 20
196.440625
 42
-0.046727
  0
VERTEX
  8
0
 10
108.758929
 20
196.096084
 42
-0.289661
  0
VERTEX
  8
0
 10
108.606989
 20
196.000000
 42
-0.222225
  0
VERTEX
  8
0
 10
108.420671
 20
196.087111
 42
-0.030693
  0
VERTEX
  8
0
 10
108.160341
 20
196.440625
 42
-0.030395
  0
VERTEX
  8
0
 10
107.887494
 20
196.925442
 42
-0.021360
  0
VERTEX
  8
0
 10
107.638374
 20
197.500000
 42
-0.055937
  0
VERTEX
  8
0
 10
107.488865
 20
198.074366
 42
-0.100118
  0
VERTEX
  8
0
 10
107.516384
 20
198.559375
 42
-0.147206
  0
VERTEX
  8
0
 10
107.710807
 20
198.877514
 42
-0.184534
  0
VERTEX
  8
0
 10
108.031385
 20
199.000000
 42
-0.152681
  0
VERTEX
  8
0
 10
108.400789
 20
198.884506
 42
-0.098158
  0
VERTEX
  8
0
 10
108.715469
 20
198.559375
 42
-0.080880
  0
VERTEX
  8
0
 10
108.927770
 20
198.073532
 42
-0.062722
  0
SEQEND
  0
POLYLINE
  8
0
 66
1
 70
1
  0
VERTEX
  8
0
 10
117.000000
 20
193.428571
 42
-0.136573
  0
VERTEX
  8
0
 10
116.914185
 20
193.120258
 42
-0.020956
  0
VERTEX
  8
0
 10
116.559375
 20
192.584375
 42
-0.022100
  0
VERTEX
  8
0
 10
116.074343
 20
191.973333
 42
-0.017569
  0
VERTEX
  8
0
 10
115.500000
 20
191.357143
 42
-0.014708
  0
VERTEX
  8
0
 10
114.610465
 20
190.518457
 42
-0.279599
  0
VERTEX
  8
0
 10
114.250000
 20
190.452381
 42
-0.293958
  0
VERTEX
  8
0
 10
114.037548
 20
190.740721
 42
-0.015801
  0
VERTEX
  8
0
 10
114.000000
 20
191.928571
 42
-0.067581
  0
VERTEX
  8
0
 10
114.109740
 20
192.736782
 42
-0.089445
  0
VERTEX
  8
0
 10
114.431034
 20
193.404762
 42
-0.105152
  0
VERTEX
  8
0
 10
114.916559
 20
193.843234
 42
-0.132005
  0
VERTEX
  8
0
 10
115.500000
 20
194.000000
 42
-0.036265
  0
VERTEX
  8
0
 10
116.074476
 20
193.958278
 42
-0.054800
  0
VERTEX
  8
0
 10
116.559375
 20
193.832143
 42
-0.071771
  0
VERTEX
  8
0
 10
116.891466
 20
193.647571
 42
-0.234203
  0
SEQEND
  0
POLYLINE
  8
0
 66
1
 70
1
  0
VERTEX
  8
0
 10
93.806872
 20
182.473539
 42
-0.278911
  0
VERTEX
  8
0
 10
93.538684
 20
182.407510
 42
-0.120343
  0
VERTEX
  8
0
 10
93.210949
 20
182.604915
 42
-0.070189
  0
VERTEX
  8
0
 10
92.866277
 20
183.059266
 42
-0.036269
  0
VERTEX
  8
0
 10
92.564293
 20
183.706872
 42
-0.008399
  0
VERTEX
  8
0
 10
92.218210
 20
184.663782
 42
-0.286372
  0
VERTEX
  8
0
 10
92.270328
 20
184.888819
 42
-0.400052
  0
VERTEX
  8
0
 10
92.463552
 20
184.893514
 42
-0.011214
  0
VERTEX
  8
0
 10
93.124088
 20
184.266667
 42
-0.043285
  0
VERTEX
  8
0
 10
93.558688
 20
183.753423
 42
-0.063152
  0
VERTEX
  8
0
 10
93.837219
 20
183.231185
 42
-0.082976
  0
VERTEX
  8
0
 10
93.927901
 20
182.779789
 42
-0.207420
  0
SEQEND
  0
POLYLINE
  8
0
 66
1
 70
1
  0
VERTEX
  8
0
 10
89.000000
 20
178.000000
 42
-0.105053
  0
VERTEX
  8
0
 10
88.918938
 20
177.618444
 42
-0.099167
  0
VERTEX
  8
0
 10
88.688914
 20
177.293750
 42
-0.096420
  0
VERTEX
  8
0
 10
88.345238
 20
177.076123
 42
-0.093332
  0
VERTEX
  8
0
 10
87.940983
 20
177.000000
 42
-0.108972
  0
VERTEX
  8
0
 10
87.586039
 20
177.078288
 42
-0.182303
  0
VERTEX
  8
0
 10
87.374600
 20
177.293750
 42
-0.161196
  0
VERTEX
  8
0
 10
87.343488
 20
177.617900
 42
-0.082592
  0
VERTEX
  8
0
 10
87.500000
 20
178.000000
 42
-0.029505
  0
VERTEX
  8
0
 10
87.768994
 20
178.382774
 42
-0.035638
  0
VERTEX
  8
0
 10
88.066025
 20
178.706250
 42
-0.038439
  0
VERTEX
  8
0
 10
88.348290
 20
178.934461
 42
-0.151918
  0
VERTEX
  8
0
 10
88.559017
 20
179.000000
 42
-0.210953
  0
VERTEX
  8
0
 10
88.727648
 20
178.925540
 42
-0.081139
  0
VERTEX
  8
0
 10
88.870461
 20
178.706250
 42
-0.061769
  0
VERTEX
  8
0
 10
88.967655
 20
178.382849
 42
-0.042167
  0
SEQEND
  0
POLYLINE
  8
0
 66
1
 70
1
  0
VERTEX
  8
0
 10
93.610823
 20
143.009768
 42
-0.001901
  0
VERTEX
  8
0
 10
92.682774
 20
139.910106
 42
-0.158534
  0
VERTEX
  8
0
 10
92.402208
 20
139.507960
 42
-0.561769
  0
VERTEX
  8
0
 10
92.165029
 20
139.601728
 42
-0.006229
  0
VERTEX
  8
0
 10
91.835423
 20
141.667975
 42
-0.052447
  0
VERTEX
  8
0
 10
91.723310
 20
144.405611
 42
-0.061645
  0
VERTEX
  8
0
 10
92.205687
 20
146.954976
 42
-0.112372
  0
VERTEX
  8
0
 10
93.055524
 20
148.392392
 42
-0.422336
  0
VERTEX
  8
0
 10
93.994624
 20
148.405376
 42
-0.173039
  0
VERTEX
  8
0
 10
94.307844
 20
147.744712
 42
-0.042786
  0
VERTEX
  8
0
 10
94.325512
 20
146.526967
 42
-0.034967
  0
VERTEX
  8
0
 10
94.098905
 20
144.929544
 42
-0.019074
  0
SEQEND
  0
POLYLINE
  8
0
 66
1
 70
1
  0
VERTEX
  8
0
 10
78.702742
 20
132.000000
 42
-0.178543
  0
VERTEX
  8
0
 10
80.311611
 20
131.406580
 42
-0.012636
  0
VERTEX
  8
0
 10
83.931414
 20
128.154130
 42
-0.012162
  0
VERTEX
  8
0
 10
87.394250
 20
124.717586
 42
-0.193587
  0
VERTEX
  8
0
 10
88.000000
 20
123.211678
 42
-0.228943
  0
VERTEX
  8
0
 10
87.458364
 20
122.090776
 42
-0.003577
  0
VERTEX
  8
0
 10
81.690515
 20
117.582949
 42
-0.009579
  0
VERTEX
  8
0
 10
76.090773
 20
113.439100
 42
-0.034826
  0
VERTEX
  8
0
 10
72.315741
 20
111.133460
 42
-0.089893
  0
VERTEX
  8
0
 10
69.151518
 20
110.156849
 42
-0.105064
  0
VERTEX
  8
0
 10
66.025704
 20
110.436727
 42
-0.065634
  0
VERTEX
  8
0
 10
62.230066
 20
112.176295
 42
-0.016877
  0
VERTEX
  8
0
 10
56.631159
 20
115.962258
 42
0.016339
  0
VERTEX
  8
0
 10
49.348897
 20
120.897920
 42
0.039883
  0
VERTEX
  8
0
 10
43.614871
 20
123.906821
 42
0.047179
  0
VERTEX
  8
0
 10
38.088184
 20
125.672515
 42
0.032666
  0
VERTEX
  8
0
 10
31.595134
 20
126.651448
 42
-0.008762
  0
VERTEX
  8
0
 10
28.683226
 20
126.949069
 42
-0.014353
  0
VERTEX
  8
0
 10
26.231071
 20
127.314870
 42
-0.007997
  0
VERTEX
  8
0
 10
24.248306
 20
127.701914
 42
-0.354306
  0
VERTEX
  8
0
 10
24.000000
 20
128.008339
 42
-0.419890
  0
VERTEX
  8
0
 10
24.553509
 20
128.551245
 42
-0.003207
  0
VERTEX
  8
0
 10
31.506631
 20
128.372130
 42
-0.008703
  0
VERTEX
  8
0
 10
38.005508
 20
128.049691
 42
-0.060161
  0
VERTEX
  8
0
 10
41.135765
 20
127.456910
 42
0.093737
  0
VERTEX
  8
0
 10
44.005107
 20
127.109749
 42
0.039222
  0
VERTEX
  8
0
 10
47.873793
 20
127.674383
 42
0.039076
  0
VERTEX
  8
0
 10
51.568898
 20
128.823254
 42
0.104774
  0
VERTEX
  8
0
 10
53.848764
 20
130.344276
 42
0.000842
  0
VERTEX
  8
0
 10
54.977987
 20
131.504203
 42
0.000217
  0
VERTEX
  8
0
 10
56.795990
 20
133.379569
 42
0.000221
  0
VERTEX
  8
0
 10
58.867515
 20
135.520206
 42
0.000225
  0
VERTEX
  8
0
 10
60.924874
 20
137.650002
 42
0.000000
  0
VERTEX
  8
0
 10
65.895242
 20
142.800004
 42
0.000000
  0
VERTEX
  8
0
 10
71.651508
 20
137.400002
 42
0.010430
  0
VERTEX
  8
0
 10
73.950828
 20
135.331440
 42
0.014553
  0
VERTEX
  8
0
 10
76.097268
 20
133.586251
 42
0.010886
  0
VERTEX
  8
0
 10
77.934060
 20
132.242003
 42
0.153696
  0
SEQEND
  0
POLYLINE
  8
0
 66
1
 70
1
  0
VERTEX
  8
0
 10
99.556392
 20
109.250000
 42
-0.014358
  0
VERTEX
  8
0
 10
100.052771
 20
105.588827
 42
-0.056957
  0
VERTEX
  8
0
 10
100.035217
 20
103.322792
 42
-0.078776
  0
VERTEX
  8
0
 10
99.515843
 20
101.508182
 42
-0.045252
  0
VERTEX
  8
0
 10
98.369990
 20
99.536441
 42
-0.131693
  0
VERTEX
  8
0
 10
97.652549
 20
98.941846
 42
-0.488246
  0
VERTEX
  8
0
 10
97.207310
 20
99.172646
 42
-0.051587
  0
VERTEX
  8
0
 10
97.073007
 20
100.825558
 42
-0.003197
  0
VERTEX
  8
0
 10
97.212868
 20
105.748582
 42
-0.007225
  0
VERTEX
  8
0
 10
97.368745
 20
108.911348
 42
-0.011948
  0
VERTEX
  8
0
 10
97.602614
 20
111.574560
 42
-0.005608
  0
VERTEX
  8
0
 10
97.873085
 20
113.767795
 42
-0.374877
  0
VERTEX
  8
0
 10
98.136456
 20
113.998582
 42
-0.316260
  0
VERTEX
  8
0
 10
98.421114
 20
113.799466
 42
-0.014310
  0
VERTEX
  8
0
 10
98.816100
 20
112.604271
 42
-0.019539
  0
VERTEX
  8
0
 10
99.210126
 20
111.070658
 42
-0.012236
  0
SEQEND
  0
POLYLINE
  8
0
 66
1
 70
1
  0
VERTEX
  8
0
 10
124.662281
 20
79.750000
 42
-0.174857
  0
VERTEX
  8
0
 10
124.474999
 20
79.540618
 42
-0.447206
  0
VERTEX
  8
0
 10
124.306058
 20
79.601562
 42
-0.078554
  0
VERTEX
  8
0
 10
124.189089
 20
80.108560
 42
-0.017491
  0
VERTEX
  8
0
 10
124.157895
 20
81.000000
 42
-0.017491
  0
VERTEX
  8
0
 10
124.189089
 20
81.891440
 42
-0.078554
  0
VERTEX
  8
0
 10
124.306058
 20
82.398438
 42
-0.447206
  0
VERTEX
  8
0
 10
124.474999
 20
82.459382
 42
-0.174857
  0
VERTEX
  8
0
 10
124.662281
 20
82.250000
 42
-0.057986
  0
VERTEX
  8
0
 10
124.818615
 20
81.679992
 42
-0.037979
  0
VERTEX
  8
0
 10
124.870340
 20
81.000000
 42
-0.037979
  0
VERTEX
  8
0
 10
124.818615
 20
80.320008
 42
-0.057986
  0
SEQEND
  0
POLYLINE
  8
0
 66
1
 70
1
  0
VERTEX
  8
0
 10
109.905740
 20
70.000000
 42
-0.005446
  0
VERTEX
  8
0
 10
109.810511
 20
65.760841
 42
-0.775293
  0
VERTEX
  8
0
 10
109.504545
 20
65.692916
 42
-0.097189
  0
VERTEX
  8
0
 10
109.152673
 20
66.932909
 42
-0.002946
  0
VERTEX
  8
0
 10
108.739962
 20
72.293460
 42
-0.011353
  0
VERTEX
  8
0
 10
108.635444
 20
74.458355
 42
-0.029044
  0
VERTEX
  8
0
 10
108.686488
 20
76.026650
 42
-0.078126
  0
VERTEX
  8
0
 10
108.873816
 20
76.771019
 42
-0.604126
  0
VERTEX
  8
0
 10
109.148811
 20
76.793460
 42
-0.098383
  0
VERTEX
  8
0
 10
109.464805
 20
75.976799
 42
-0.015525
  0
VERTEX
  8
0
 10
109.709641
 20
74.264329
 42
-0.016720
  0
VERTEX
  8
0
 10
109.869956
 20
72.200585
 42
-0.013915
  0
SEQEND
  0
POLYLINE
  8
0
 66
1
 70
1
  0
VERTEX
  8
0
 10
130.000000
 20
75.500000
 42
-0.099038
  0
VERTEX
  8
0
 10
129.885486
 20
74.927543
 42
-0.097945
  0
VERTEX
  8
0
 10
129.559375
 20
74.440625
 42
-0.097945
  0
VERTEX
  8
0
 10
129.072457
 20
74.114514
 42
-0.099038
  0
VERTEX
  8
0
 10
128.500000
 20
74.000000
 42
0.069717
  0
VERTEX
  8
0
 10
127.926711
 20
73.919674
 42
0.085667
  0
VERTEX
  8
0
 10
127.440625
 20
73.685268
 42
0.100075
  0
VERTEX
  8
0
 10
127.115627
 20
73.337148
 42
0.138775
  0
VERTEX
  8
0
 10
127.000000
 20
72.928571
 42
-0.098387
  0
VERTEX
  8
0
 10
126.897730
 20
72.413868
 42
-0.033960
  0
VERTEX
  8
0
 10
126.559375
 20
71.731250
 42
-0.032192
  0
VERTEX
  8
0
 10
126.074034
 20
71.010186
 42
-0.032161
  0
VERTEX
  8
0
 10
125.500000
 20
70.357143
 42
0.063819
  0
VERTEX
  8
0
 10
124.925376
 20
69.613579
 42
0.039129
  0
VERTEX
  8
0
 10
124.440625
 20
68.615803
 42
0.038682
  0
VERTEX
  8
0
 10
124.110004
 20
67.534390
 42
0.054900
  0
VERTEX
  8
0
 10
124.000000
 20
66.535560
 42
-0.126187
  0
VERTEX
  8
0
 10
123.631147
 20
65.097295
 42
-0.086718
  0
VERTEX
  8
0
 10
122.573846
 20
63.776632
 42
-0.107083
  0
VERTEX
  8
0
 10
121.317705
 20
63.075078
 42
-0.277132
  0
VERTEX
  8
0
 10
120.349927
 20
63.316739
 42
-0.250643
  0
VERTEX
  8
0
 10
120.003278
 20
64.460698
 42
-0.032805
  0
VERTEX
  8
0
 10
120.685882
 20
67.000865
 42
-0.032387
  0
VERTEX
  8
0
 10
121.686825
 20
69.416255
 42
-0.285711
  0
VERTEX
  8
0
 10
122.625000
 20
70.000000
 42
0.166156
  0
VERTEX
  8
0
 10
123.168934
 20
70.185888
 42
0.102695
  0
VERTEX
  8
0
 10
123.612500
 20
70.704545
 42
0.077418
  0
VERTEX
  8
0
 10
123.903334
 20
71.505474
 42
0.048485
  0
VERTEX
  8
0
 10
124.000000
 20
72.500000
 42
-0.044917
  0
VERTEX
  8
0
 10
124.106468
 20
73.682766
 42
-0.124434
  0
VERTEX
  8
0
 10
124.450000
 20
74.437500
 42
-0.149477
  0
VERTEX
  8
0
 10
125.064742
 20
74.857434
 42
-0.075780
  0
VERTEX
  8
0
 10
126.000000
 20
75.000000
 42
0.048028
  0
VERTEX
  8
0
 10
126.765418
 20
75.073693
 42
0.068025
  0
VERTEX
  8
0
 10
127.412500
 20
75.293750
 42
0.088204
  0
VERTEX
  8
0
 10
127.848523
 20
75.618118
 42
0.191087
  0
VERTEX
  8
0
 10
128.000000
 20
76.000000
 42
-0.099038
  0
VERTEX
  8
0
 10
128.076342
 20
76.381638
 42
-0.097945
  0
VERTEX
  8
0
 10
128.293750
 20
76.706250
 42
-0.097945
  0
VERTEX
  8
0
 10
128.618362
 20
76.923658
 42
-0.099038
  0
VERTEX
  8
0
 10
129.000000
 20
77.000000
 42
-0.148195
  0
VERTEX
  8
0
 10
129.381354
 20
76.884432
 42
-0.098894
  0
VERTEX
  8
0
 10
129.706250
 20
76.559375
 42
-0.082425
  0
VERTEX
  8
0
 10
129.925306
 20
76.073457
 42
-0.064853
  0
SEQEND
  0
POLYLINE
  8
0
 66
1
 70
1
  0
VERTEX
  8
0
 10
130.916787
 20
56.684900
 42
-0.014984
  0
VERTEX
  8
0
 10
131.721816
 20
54.389846
 42
-0.072535
  0
VERTEX
  8
0
 10
131.944795
 20
53.030417
 42
-0.188606
  0
VERTEX
  8
0
 10
131.674919
 20
52.302572
 42
-0.213898
  0
VERTEX
  8
0
 10
131.000000
 20
52.000000
 42
-0.254951
  0
VERTEX
  8
0
 10
130.615738
 20
52.209557
 42
-0.062710
  0
VERTEX
  8
0
 10
130.293750
 20
52.881250
 42
-0.048861
  0
VERTEX
  8
0
 10
130.072766
 20
53.850749
 42
-0.031626
  0
VERTEX
  8
0
 10
130.000000
 20
55.000000
 42
0.030703
  0
VERTEX
  8
0
 10
129.907747
 20
56.500917
 42
0.116834
  0
VERTEX
  8
0
 10
129.583333
 20
57.375000
 42
0.166173
  0
VERTEX
  8
0
 10
128.975317
 20
57.840542
 42
0.081208
  0
VERTEX
  8
0
 10
128.000000
 20
58.000000
 42
-0.048028
  0
VERTEX
  8
0
 10
127.234582
 20
58.073693
 42
-0.068025
  0
VERTEX
  8
0
 10
126.587500
 20
58.293750
 42
-0.088204
  0
VERTEX
  8
0
 10
126.151477
 20
58.618118
 42
-0.191087
  0
VERTEX
  8
0
 10
126.000000
 20
59.000000
 42
-0.099038
  0
VERTEX
  8
0
 10
126.076342
 20
59.381638
 42
-0.097945
  0
VERTEX
  8
0
 10
126.293750
 20
59.706250
 42
-0.097945
  0
VERTEX
  8
0
 10
126.618362
 20
59.923658
 42
-0.099038
  0
VERTEX
  8
0
 10
127.000000
 20
60.000000
 42
0.281260
  0
VERTEX
  8
0
 10
127.393606
 20
60.240431
 42
0.046637
  0
VERTEX
  8
0
 10
127.738435
 20
61.101562
 42
0.039485
  0
VERTEX
  8
0
 10
127.995068
 20
62.313052
 42
0.025157
  0
VERTEX
  8
0
 10
128.109566
 20
63.750000
 42
0.000000
  0
VERTEX
  8
0
 10
128.219131
 20
67.500000
 42
0.000000
  0
VERTEX
  8
0
 10
129.026353
 20
63.500000
 42
0.010333
  0
VERTEX
  8
0
 10
129.414473
 20
61.762718
 42
0.007531
  0
VERTEX
  8
0
 10
129.914647
 20
59.848064
 42
0.007614
  0
VERTEX
  8
0
 10
130.444147
 20
58.046179
 42
0.016572
  0
SEQEND
  0
POLYLINE
  8
0
 66
1
 70
1
  0
VERTEX
  8
0
 10
104.000000
 20
60.500000
 42
0.046667
  0
VERTEX
  8
0
 10
104.099526
 20
59.435988
 42
0.093033
  0
VERTEX
  8
0
 10
104.405902
 20
58.650894
 42
0.124620
  0
VERTEX
  8
0
 10
104.902836
 20
58.173602
 42
0.130045
  0
VERTEX
  8
0
 10
105.559017
 20
58.000000
 42
-0.066118
  0
VERTEX
  8
0
 10
106.110654
 20
57.926733
 42
-0.138808
  0
VERTEX
  8
0
 10
106.478525
 20
57.706250
 42
-0.191142
  0
VERTEX
  8
0
 10
106.607943
 20
57.379648
 42
-0.139169
  0
VERTEX
  8
0
 10
106.500000
 20
57.000000
 42
-0.134630
  0
VERTEX
  8
0
 10
106.086644
 20
56.615250
 42
-0.044242
  0
VERTEX
  8
0
 10
105.312214
 20
56.293750
 42
-0.040334
  0
VERTEX
  8
0
 10
104.348680
 20
56.073786
 42
-0.035970
  0
VERTEX
  8
0
 10
103.324352
 20
56.000000
 42
-0.030636
  0
VERTEX
  8
0
 10
101.959066
 20
56.083732
 42
-0.185336
  0
VERTEX
  8
0
 10
101.344061
 20
56.410992
 42
-0.207822
  0
VERTEX
  8
0
 10
101.145681
 20
57.040119
 42
-0.039391
  0
VERTEX
  8
0
 10
101.369714
 20
58.250000
 42
0.011611
  0
VERTEX
  8
0
 10
101.601557
 20
59.203105
 42
0.010252
  0
VERTEX
  8
0
 10
101.799577
 20
60.206250
 42
0.010353
  0
VERTEX
  8
0
 10
101.940775
 20
61.117750
 42
0.030524
  0
VERTEX
  8
0
 10
101.986345
 20
61.750000
 42
-0.078351
  0
VERTEX
  8
0
 10
102.066989
 20
62.227510
 42
-0.089659
  0
VERTEX
  8
0
 10
102.289739
 20
62.632812
 42
-0.099570
  0
VERTEX
  8
0
 10
102.617537
 20
62.903876
 42
-0.123740
  0
VERTEX
  8
0
 10
103.000000
 20
63.000000
 42
-0.226478
  0
VERTEX
  8
0
 10
103.382936
 20
62.817169
 42
-0.074992
  0
VERTEX
  8
0
 10
103.706250
 20
62.265625
 42
-0.057076
  0
VERTEX
  8
0
 10
103.926884
 20
61.457356
 42
-0.038131
  0
SEQEND
  0
POLYLINE
  8
0
 66
1
 70
1
  0
VERTEX
  8
0
 10
121.662281
 20
55.750000
 42
-0.174857
  0
VERTEX
  8
0
 10
121.474999
 20
55.540618
 42
-0.447206
  0
VERTEX
  8
0
 10
121.306058
 20
55.601562
 42
-0.078554
  0
VERTEX
  8
0
 10
121.189089
 20
56.108560
 42
-0.017491
  0
VERTEX
  8
0
 10
121.157895
 20
57.000000
 42
-0.017491
  0
VERTEX
  8
0
 10
121.189089
 20
57.891440
 42
-0.078554
  0
VERTEX
  8
0
 10
121.306058
 20
58.398438
 42
-0.447206
  0
VERTEX
  8
0
 10
121.474999
 20
58.459382
 42
-0.174857
  0
VERTEX
  8
0
 10
121.662281
 20
58.250000
 42
-0.057986
  0
VERTEX
  8
0
 10
121.818615
 20
57.679992
 42
-0.037979
  0
VERTEX
  8
0
 10
121.870340
 20
57.000000
 42
-0.037979
  0
VERTEX
  8
0
 10
121.818615
 20
56.320008
 42
-0.057986
  0
SEQEND
  0
POLYLINE
  8
0
 66
1
 70
1
  0
VERTEX
  8
0
 10
134.000000
 20
42.309678
 42
-0.219070
  0
VERTEX
  8
0
 10
133.601884
 20
41.444635
 42
-0.269989
  0
VERTEX
  8
0
 10
132.742619
 20
41.287616
 42
-0.149829
  0
VERTEX
  8
0
 10
131.737229
 20
42.042613
 42
-0.109858
  0
VERTEX
  8
0
 10
131.177351
 20
43.329359
 42
-0.054411
  0
VERTEX
  8
0
 10
131.117000
 20
44.056139
 42
-0.213542
  0
VERTEX
  8
0
 10
131.306721
 20
44.452293
 42
-0.215418
  0
VERTEX
  8
0
 10
131.726994
 20
44.572710
 42
-0.055332
  0
VERTEX
  8
0
 10
132.427351
 20
44.389504
 42
-0.074942
  0
VERTEX
  8
0
 10
133.028551
 20
44.048457
 42
-0.064529
  0
VERTEX
  8
0
 10
133.538034
 20
43.529619
 42
-0.066848
  0
VERTEX
  8
0
 10
133.882648
 20
42.919167
 42
-0.095395
  0
SEQEND
  0
POLYLINE
  8
0
 66
1
 70
1
  0
VERTEX
  8
0
 10
127.000000
 20
34.500000
 42
-0.099038
  0
VERTEX
  8
0
 10
126.885486
 20
33.927543
 42
-0.097945
  0
VERTEX
  8
0
 10
126.559375
 20
33.440625
 42
-0.097945
  0
VERTEX
  8
0
 10
126.072457
 20
33.114514
 42
-0.099038
  0
VERTEX
  8
0
 10
125.500000
 20
33.000000
 42
-0.132959
  0
VERTEX
  8
0
 10
124.275781
 20
33.331401
 42
-0.378233
  0
VERTEX
  8
0
 10
124.020668
 20
34.104186
 42
-0.162246
  0
VERTEX
  8
0
 10
124.918180
 20
35.115121
 42
-0.054352
  0
VERTEX
  8
0
 10
126.750000
 20
35.921053
 42
-0.418470
  0
VERTEX
  8
0
 10
126.847570
 20
35.869414
 42
-0.029314
  0
VERTEX
  8
0
 10
126.926563
 20
35.536184
 42
-0.027836
  0
VERTEX
  8
0
 10
126.982098
 20
35.069675
 42
-0.015709
  0
SEQEND
  0
ENDSEC
  0
EOF
