  0
SECTION
  2
HEADER
  9
$ACADVER
  1
AC1006
  9
$EXTMIN
 10
0.000000
 20
0.000000
 30
0.000000
  9
$EXTMAX
 10
325.000000
 20
310.000000
 30
0.000000
  0
ENDSEC
  0
SECTION
  2
ENTITIES
  0
POLYLINE
  8
0
 66
1
 70
1
  0
VERTEX
  8
0
 10
4.325172
 20
308.584641
 42
0.120807
  0
VERTEX
  8
0
 10
1.899493
 20
303.921132
 42
0.034884
  0
VERTEX
  8
0
 10
0.519876
 20
295.857130
 42
0.032055
  0
VERTEX
  8
0
 10
0.169833
 20
286.033323
 42
0.025828
  0
VERTEX
  8
0
 10
1.015522
 20
275.500000
 42
0.031647
  0
VERTEX
  8
0
 10
4.440350
 20
258.162923
 42
0.029419
  0
VERTEX
  8
0
 10
10.087339
 20
240.957140
 42
0.024571
  0
VERTEX
  8
0
 10
18.684534
 20
221.965345
 42
0.012578
  0
VERTEX
  8
0
 10
31.211712
 20
199.000000
 42
-0.002906
  0
VERTEX
  8
0
 10
33.719825
 20
194.606368
 42
-0.001601
  0
VERTEX
  8
0
 10
36.738275
 20
189.206250
 42
-0.001596
  0
VERTEX
  8
0
 10
39.764437
 20
183.710094
 42
-0.002561
  0
VERTEX
  8
0
 10
42.306990
 20
179.000000
 42
0.000000
  0
VERTEX
  8
0
 10
47.905723
 20
168.500000
 42
0.000000
  0
VERTEX
  8
0
 10
47.394576
 20
159.500000
 42
0.020515
  0
VERTEX
  8
0
 10
47.282316
 20
152.354812
 42
0.100333
  0
VERTEX
  8
0
 10
48.180635
 20
148.435476
 42
0.129005
  0
VERTEX
  8
0
 10
50.417493
 20
145.680077
 42
0.043319
  0
VERTEX
  8
0
 10
54.882415
 20
142.968844
 42
-0.035705
  0
VERTEX
  8
0
 10
58.049129
 20
141.111229
 42
-0.047332
  0
VERTEX
  8
0
 10
60.610760
 20
138.968944
 42
-0.055410
  0
VERTEX
  8
0
 10
62.340873
 20
136.780716
 42
-0.127720
  0
VERTEX
  8
0
 10
62.964565
 20
134.794359
 42
-0.452302
  0
VERTEX
  8
0
 10
62.760015
 20
134.595442
 42
-0.025818
  0
VERTEX
  8
0
 10
61.777659
 20
134.723594
 42
-0.025392
  0
VERTEX
  8
0
 10
60.454419
 20
135.036383
 42
-0.014074
  0
VERTEX
  8
0
 10
58.874273
 20
135.544359
 42
0.033138
  0
VERTEX
  8
0
 10
54.169092
 20
136.861430
 42
0.086477
  0
VERTEX
  8
0
 10
50.670239
 20
136.980990
 42
0.119767
  0
VERTEX
  8
0
 10
48.033635
 20
135.937774
 42
0.102381
  0
VERTEX
  8
0
 10
45.989040
 20
133.750000
 42
0.019647
  0
VERTEX
  8
0
 10
45.230287
 20
132.387911
 42
0.020209
  0
VERTEX
  8
0
 10
44.588462
 20
130.983024
 42
0.020432
  0
VERTEX
  8
0
 10
44.132883
 20
129.724288
 42
0.076167
  0
VERTEX
  8
0
 10
44.003738
 20
128.894338
 42
-0.224063
  0
VERTEX
  8
0
 10
43.614364
 20
128.074021
 42
-0.098202
  0
VERTEX
  8
0
 10
42.527610
 20
127.492960
 42
-0.044355
  0
VERTEX
  8
0
 10
40.477923
 20
127.063423
 42
-0.008828
  0
VERTEX
  8
0
 10
36.750000
 20
126.688382
 42
0.017752
  0
VERTEX
  8
0
 10
29.827041
 20
125.866880
 42
0.049207
  0
VERTEX
  8
0
 10
25.083793
 20
124.645890
 42
0.063443
  0
VERTEX
  8
0
 10
21.392708
 20
122.738329
 42
0.049207
  0
VERTEX
  8
0
 10
17.936169
 20
119.814789
 42
0.019128
  0
VERTEX
  8
0
 10
15.703951
 20
117.331274
 42
0.073788
  0
VERTEX
  8
0
 10
14.628958
 20
115.564456
 42
0.077514
  0
VERTEX
  8
0
 10
14.140259
 20
113.606268
 42
0.022467
  0
VERTEX
  8
0
 10
14.000000
 20
110.486407
 42
0.015535
  0
VERTEX
  8
0
 10
14.079404
 20
107.931325
 42
0.050212
  0
VERTEX
  8
0
 10
14.353784
 20
106.257454
 42
0.083673
  0
VERTEX
  8
0
 10
14.841214
 20
105.193997
 42
0.153095
  0
VERTEX
  8
0
 10
15.581787
 20
104.606989
 42
0.060831
  0
VERTEX
  8
0
 10
17.665156
 20
104.086330
 42
0.150072
  0
VERTEX
  8
0
 10
19.200660
 20
104.357084
 42
0.122756
  0
VERTEX
  8
0
 10
20.512987
 20
105.500548
 42
0.034518
  0
VERTEX
  8
0
 10
21.922070
 20
107.847245
 42
-0.078109
  0
VERTEX
  8
0
 10
24.542930
 20
111.459656
 42
-0.048635
  0
VERTEX
  8
0
 10
28.587317
 20
114.798014
 42
-0.049325
  0
VERTEX
  8
0
 10
33.069725
 20
117.213651
 42
-0.099255
  0
VERTEX
  8
0
 10
36.991973
 20
118.000000
 42
-0.131636
  0
VERTEX
  8
0
 10
37.872555
 20
117.764079
 42
-0.197751
  0
VERTEX
  8
0
 10
38.351897
 20
117.142357
 42
-0.080061
  0
VERTEX
  8
0
 10
38.486937
 20
115.879832
 42
-0.011167
  0
VERTEX
  8
0
 10
38.287853
 20
113.250000
 42
-0.030228
  0
VERTEX
  8
0
 10
37.939656
 20
111.069214
 42
-0.016038
  0
VERTEX
  8
0
 10
37.260219
 20
108.417628
 42
-0.015906
  0
VERTEX
  8
0
 10
36.389123
 20
105.741798
 42
-0.023721
  0
VERTEX
  8
0
 10
35.444573
 20
103.469584
 42
-0.034659
  0
VERTEX
  8
0
 10
32.953376
 20
99.023088
 42
-0.026466
  0
VERTEX
  8
0
 10
29.653394
 20
94.524506
 42
-0.021310
  0
VERTEX
  8
0
 10
26.340400
 20
90.810774
 42
-0.202646
  0
VERTEX
  8
0
 10
24.422077
 20
90.000000
 42
0.140998
  0
VERTEX
  8
0
 10
23.879784
 20
89.843974
 42
0.099844
  0
VERTEX
  8
0
 10
23.417735
 20
89.405412
 42
0.084904
  0
VERTEX
  8
0
 10
23.106519
 20
88.749534
 42
0.068517
  0
VERTEX
  8
0
 10
23.000000
 20
87.975872
 42
-0.181861
  0
VERTEX
  8
0
 10
22.215892
 20
85.891377
 42
-0.008918
  0
VERTEX
  8
0
 10
17.179791
 20
80.347200
 42
-0.014062
  0
VERTEX
  8
0
 10
10.976329
 20
74.118535
 42
-0.011457
  0
VERTEX
  8
0
 10
4.002002
 20
67.796363
 42
0.014359
  0
VERTEX
  8
0
 10
1.538820
 20
65.537331
 42
0.082284
  0
VERTEX
  8
0
 10
0.490029
 20
64.115947
 42
0.116619
  0
VERTEX
  8
0
 10
0.136334
 20
62.666248
 42
0.042022
  0
VERTEX
  8
0
 10
0.300421
 20
60.536147
 42
0.051436
  0
VERTEX
  8
0
 10
1.084170
 20
57.632727
 42
0.103698
  0
VERTEX
  8
0
 10
2.363919
 20
55.649669
 42
0.102438
  0
VERTEX
  8
0
 10
4.344043
 20
54.332784
 42
0.049359
  0
VERTEX
  8
0
 10
7.282395
 20
53.474845
 42
0.021377
  0
VERTEX
  8
0
 10
9.492738
 20
53.157277
 42
0.167083
  0
VERTEX
  8
0
 10
10.490038
 20
53.392006
 42
0.165419
  0
VERTEX
  8
0
 10
11.137425
 20
54.191487
 42
0.020851
  0
VERTEX
  8
0
 10
11.827944
 20
56.339034
 42
-0.033669
  0
VERTEX
  8
0
 10
12.360754
 20
57.861158
 42
-0.022892
  0
VERTEX
  8
0
 10
13.158982
 20
59.514443
 42
-0.023123
  0
VERTEX
  8
0
 10
14.080911
 20
61.046136
 42
-0.042233
  0
VERTEX
  8
0
 10
14.988930
 20
62.186460
 42
0.028838
  0
VERTEX
  8
0
 10
15.971181
 20
63.354463
 42
0.012867
  0
VERTEX
  8
0
 10
17.132366
 20
64.995398
 42
0.012688
  0
VERTEX
  8
0
 10
18.275128
 20
66.799138
 42
0.016789
  0
VERTEX
  8
0
 10
19.217107
 20
68.500000
 42
-0.034070
  0
VERTEX
  8
0
 10
20.309132
 20
70.320479
 42
-0.016210
  0
VERTEX
  8
0
 10
21.943616
 20
72.511893
 42
-0.015984
  0
VERTEX
  8
0
 10
23.807250
 20
74.701144
 42
-0.021843
  0
VERTEX
  8
0
 10
25.630025
 20
76.540486
 42
0.013075
  0
VERTEX
  8
0
 10
27.303849
 20
78.171320
 42
0.017917
  0
VERTEX
  8
0
 10
28.716320
 20
79.729371
 42
0.014783
  0
VERTEX
  8
0
 10
29.785121
 20
81.075567
 42
0.161757
  0
VERTEX
  8
0
 10
30.000000
 20
81.722392
 42
-0.154577
  0
VERTEX
  8
0
 10
30.180865
 20
82.293446
 42
-0.030784
  0
VERTEX
  8
0
 10
30.858104
 20
83.139543
 42
-0.029905
  0
VERTEX
  8
0
 10
31.802831
 20
84.063814
 42
-0.023976
  0
VERTEX
  8
0
 10
32.921205
 20
84.943893
 42
0.082882
  0
VERTEX
  8
0
 10
35.919584
 20
87.934866
 42
0.031612
  0
VERTEX
  8
0
 10
39.053962
 20
92.956041
 42
0.022257
  0
VERTEX
  8
0
 10
42.624359
 20
100.340952
 42
0.007915
  0
VERTEX
  8
0
 10
47.082634
 20
111.186860
 42
0.000000
  0
VERTEX
  8
0
 10
49.315688
 20
116.873721
 42
0.000000
  0
VERTEX
  8
0
 10
54.047187
 20
114.476088
 42
-0.016517
  0
VERTEX
  8
0
 10
58.836742
 20
111.846745
 42
-0.125495
  0
VERTEX
  8
0
 10
60.643733
 20
110.042016
 42
-0.164865
  0
VERTEX
  8
0
 10
61.115938
 20
107.821668
 42
-0.034154
  0
VERTEX
  8
0
 10
60.368973
 20
103.841670
 42
0.009507
  0
VERTEX
  8
0
 10
59.844927
 20
101.650847
 42
0.009387
  0
VERTEX
  8
0
 10
59.402136
 20
99.432356
 42
0.009292
  0
VERTEX
  8
0
 10
59.087189
 20
97.476362
 42
0.035280
  0
VERTEX
  8
0
 10
59.000000
 20
96.242234
 42
0.087068
  0
VERTEX
  8
0
 10
59.466279
 20
93.584862
 42
0.032146
  0
VERTEX
  8
0
 10
60.993665
 20
90.086605
 42
0.029685
  0
VERTEX
  8
0
 10
62.877884
 20
86.909400
 42
0.153629
  0
VERTEX
  8
0
 10
64.457403
 20
85.654720
 42
-0.155249
  0
VERTEX
  8
0
 10
65.165866
 20
85.088292
 42
-0.079869
  0
VERTEX
  8
0
 10
65.643111
 20
84.044692
 42
-0.050154
  0
VERTEX
  8
0
 10
65.918328
 20
82.434527
 42
-0.017268
  0
VERTEX
  8
0
 10
66.000000
 20
80.070340
 42
0.051742
  0
VERTEX
  8
0
 10
66.377008
 20
76.436937
 42
0.104079
  0
VERTEX
  8
0
 10
67.531638
 20
73.810551
 42
0.092252
  0
VERTEX
  8
0
 10
69.754104
 20
71.676060
 42
0.034554
  0
VERTEX
  8
0
 10
73.536174
 20
69.549859
 42
0.051779
  0
VERTEX
  8
0
 10
76.439631
 20
68.524106
 42
0.044554
  0
VERTEX
  8
0
 10
79.643570
 20
68.049428
 42
0.048391
  0
VERTEX
  8
0
 10
82.258452
 20
68.150598
 42
0.375096
  0
VERTEX
  8
0
 10
83.000000
 20
69.000000
 42
-0.138107
  0
VERTEX
  8
0
 10
83.107379
 20
69.381338
 42
-0.100138
  0
VERTEX
  8
0
 10
83.409197
 20
69.706250
 42
-0.085896
  0
VERTEX
  8
0
 10
83.860624
 20
69.925009
 42
-0.070083
  0
VERTEX
  8
0
 10
84.393011
 20
70.000000
 42
0.083553
  0
VERTEX
  8
0
 10
84.962291
 20
70.095799
 42
0.066015
  0
VERTEX
  8
0
 10
85.521274
 20
70.376428
 42
0.066279
  0
VERTEX
  8
0
 10
85.985658
 20
70.791578
 42
0.085846
  0
VERTEX
  8
0
 10
86.277764
 20
71.281458
 42
-0.158556
  0
VERTEX
  8
0
 10
87.509186
 20
72.801447
 42
-0.008035
  0
VERTEX
  8
0
 10
92.977667
 20
76.224819
 42
-0.009106
  0
VERTEX
  8
0
 10
98.507434
 20
79.428137
 42
-0.127392
  0
VERTEX
  8
0
 10
100.715509
 20
80.000000
 42
0.118574
  0
VERTEX
  8
0
 10
103.410083
 20
80.648128
 42
0.054715
  0
VERTEX
  8
0
 10
106.442299
 20
82.640878
 42
0.053789
  0
VERTEX
  8
0
 10
109.064107
 20
85.330751
 42
0.089684
  0
VERTEX
  8
0
 10
110.537699
 20
88.118778
 42
-0.163204
  0
VERTEX
  8
0
 10
111.384565
 20
89.278118
 42
-0.114949
  0
VERTEX
  8
0
 10
112.891155
 20
89.892945
 42
-0.067298
  0
VERTEX
  8
0
 10
115.231153
 20
89.949529
 42
-0.021798
  0
VERTEX
  8
0
 10
118.661032
 20
89.417794
 42
-0.069722
  0
VERTEX
  8
0
 10
120.303445
 20
88.843059
 42
-0.124808
  0
VERTEX
  8
0
 10
121.367894
 20
87.901589
 42
-0.071093
  0
VERTEX
  8
0
 10
122.206475
 20
86.193373
 42
-0.011740
  0
VERTEX
  8
0
 10
123.262100
 20
82.667794
 42
-0.011035
  0
VERTEX
  8
0
 10
125.403855
 20
74.115222
 42
-0.022537
  0
VERTEX
  8
0
 10
126.630361
 20
67.307037
 42
-0.023606
  0
VERTEX
  8
0
 10
127.206585
 20
60.620934
 42
-0.013414
  0
VERTEX
  8
0
 10
127.303561
 20
52.500000
 42
-0.007936
  0
VERTEX
  8
0
 10
126.905669
 20
39.567415
 42
-0.032580
  0
VERTEX
  8
0
 10
126.031329
 20
31.777045
 42
-0.044950
  0
VERTEX
  8
0
 10
124.306092
 20
25.463379
 42
-0.026149
  0
VERTEX
  8
0
 10
121.180636
 20
18.250000
 42
-0.008447
  0
VERTEX
  8
0
 10
119.022084
 20
14.083967
 42
-0.058238
  0
VERTEX
  8
0
 10
117.701982
 20
12.200351
 42
-0.120159
  0
VERTEX
  8
0
 10
116.414473
 20
11.311947
 42
-0.091460
  0
VERTEX
  8
0
 10
114.723363
 20
11.000000
 42
0.053226
  0
VERTEX
  8
0
 10
112.013436
 20
10.710703
 42
0.085738
  0
VERTEX
  8
0
 10
109.865927
 20
9.843578
 42
0.110291
  0
VERTEX
  8
0
 10
108.494944
 20
8.502119
 42
0.145154
  0
VERTEX
  8
0
 10
108.000000
 20
6.833147
 42
0.071825
  0
VERTEX
  8
0
 10
108.161188
 20
5.716848
 42
0.229368
  0
VERTEX
  8
0
 10
108.653859
 20
5.174830
 42
0.115679
  0
VERTEX
  8
0
 10
109.656346
 20
5.021489
 42
0.013697
  0
VERTEX
  8
0
 10
111.911362
 20
5.261285
 42
-0.017888
  0
VERTEX
  8
0
 10
113.972311
 20
5.462994
 42
-0.084936
  0
VERTEX
  8
0
 10
115.146307
 20
5.336092
 42
-0.153714
  0
VERTEX
  8
0
 10
115.851388
 20
4.871945
 42
-0.107359
  0
VERTEX
  8
0
 10
116.285283
 20
4.017080
 42
0.123504
  0
VERTEX
  8
0
 10
116.706159
 20
3.249483
 42
0.070002
  0
VERTEX
  8
0
 10
117.532829
 20
2.575890
 42
0.057285
  0
VERTEX
  8
0
 10
118.697145
 20
2.042620
 42
0.038208
  0
VERTEX
  8
0
 10
120.123921
 20
1.695471
 42
-0.005608
  0
VERTEX
  8
0
 10
121.616971
 20
1.433780
 42
-0.003775
  0
VERTEX
  8
0
 10
123.316089
 20
1.102993
 42
-0.003802
  0
VERTEX
  8
0
 10
124.955606
 20
0.757948
 42
-0.007523
  0
VERTEX
  8
0
 10
126.250000
 20
0.454769
 42
0.022664
  0
VERTEX
  8
0
 10
127.717986
 20
0.157494
 42
0.141847
  0
VERTEX
  8
0
 10
128.469779
 20
0.253742
 42
0.230393
  0
VERTEX
  8
0
 10
128.856809
 20
0.705148
 42
0.068336
  0
VERTEX
  8
0
 10
128.968197
 20
1.633423
 42
0.059330
  0
VERTEX
  8
0
 10
128.851712
 20
2.487449
 42
0.030165
  0
VERTEX
  8
0
 10
128.516037
 20
3.519734
 42
0.029473
  0
VERTEX
  8
0
 10
128.035969
 20
4.556540
 42
0.038784
  0
VERTEX
  8
0
 10
127.473588
 20
5.433756
 42
-0.036156
  0
VERTEX
  8
0
 10
126.728526
 20
6.582606
 42
-0.128349
  0
VERTEX
  8
0
 10
126.515003
 20
7.426725
 42
-0.116417
  0
VERTEX
  8
0
 10
126.731635
 20
8.314511
 42
-0.027235
  0
VERTEX
  8
0
 10
127.505392
 20
9.648573
 42
0.033081
  0
VERTEX
  8
0
 10
128.077580
 20
10.662203
 42
0.026360
  0
VERTEX
  8
0
 10
128.560959
 20
11.821439
 42
0.027065
  0
VERTEX
  8
0
 10
128.894726
 20
12.947163
 42
0.058596
  0
VERTEX
  8
0
 10
129.000000
 20
13.842372
 42
-0.062508
  0
VERTEX
  8
0
 10
129.102573
 20
14.659637
 42
-0.044200
  0
VERTEX
  8
0
 10
129.409689
 20
15.533255
 42
-0.044563
  0
VERTEX
  8
0
 10
129.860681
 20
16.329289
 42
-0.068493
  0
VERTEX
  8
0
 10
130.394685
 20
16.912596
 42
0.083185
  0
VERTEX
  8
0
 10
130.969982
 20
17.579098
 42
0.031261
  0
VERTEX
  8
0
 10
131.545257
 20
18.674465
 42
0.029919
  0
VERTEX
  8
0
 10
132.034536
 20
19.969348
 42
0.031983
  0
VERTEX
  8
0
 10
132.353032
 20
21.285041
 42
-0.003467
  0
VERTEX
  8
0
 10
132.646804
 20
22.894917
 42
-0.001263
  0
VERTEX
  8
0
 10
133.084478
 20
25.171231
 42
-0.001253
  0
VERTEX
  8
0
 10
133.575728
 20
27.658624
 42
-0.001497
  0
VERTEX
  8
0
 10
134.051532
 20
30.000000
 42
0.038943
  0
VERTEX
  8
0
 10
135.215645
 20
39.217269
 42
0.010128
  0
VERTEX
  8
0
 10
135.627227
 20
54.163787
 42
0.009262
  0
VERTEX
  8
0
 10
135.460313
 20
69.002356
 42
0.053703
  0
VERTEX
  8
0
 10
134.391638
 20
76.749778
 42
-0.009194
  0
VERTEX
  8
0
 10
133.822294
 20
79.226083
 42
-0.012243
  0
VERTEX
  8
0
 10
133.401864
 20
81.496332
 42
-0.009567
  0
VERTEX
  8
0
 10
133.135810
 20
83.391141
 42
-0.110982
  0
VERTEX
  8
0
 10
133.210658
 20
84.131975
 42
-0.540263
  0
VERTEX
  8
0
 10
134.198781
 20
84.393114
 42
-0.025896
  0
VERTEX
  8
0
 10
137.097335
 20
81.502177
 42
-0.028204
  0
VERTEX
  8
0
 10
139.931529
 20
77.986900
 42
-0.090188
  0
VERTEX
  8
0
 10
141.215476
 20
75.275539
 42
-0.087269
  0
VERTEX
  8
0
 10
141.450717
 20
72.617527
 42
-0.025473
  0
VERTEX
  8
0
 10
140.888834
 20
68.534634
 42
-0.025175
  0
VERTEX
  8
0
 10
139.921072
 20
64.546067
 42
-0.094099
  0
VERTEX
  8
0
 10
138.744003
 20
62.262986
 42
0.159599
  0
VERTEX
  8
0
 10
138.143423
 20
60.602948
 42
0.087045
  0
VERTEX
  8
0
 10
138.455457
 20
58.436453
 42
0.093721
  0
VERTEX
  8
0
 10
139.447928
 20
56.635157
 42
0.223700
  0
VERTEX
  8
0
 10
140.796546
 20
56.000000
 42
0.192773
  0
VERTEX
  8
0
 10
144.267662
 20
57.389926
 42
0.085468
  0
VERTEX
  8
0
 10
147.259846
 20
61.421124
 42
0.067130
  0
VERTEX
  8
0
 10
149.310442
 20
67.331644
 42
0.050013
  0
VERTEX
  8
0
 10
150.000000
 20
74.208127
 42
0.106791
  0
VERTEX
  8
0
 10
148.748727
 20
79.999853
 42
0.054438
  0
VERTEX
  8
0
 10
144.939607
 20
86.437084
 42
0.053879
  0
VERTEX
  8
0
 10
139.737278
 20
92.013098
 42
0.091588
  0
VERTEX
  8
0
 10
134.250000
 20
95.226224
 42
-0.034118
  0
VERTEX
  8
0
 10
132.686113
 20
95.915772
 42
-0.087545
  0
VERTEX
  8
0
 10
131.711383
 20
96.669351
 42
-0.109946
  0
VERTEX
  8
0
 10
131.181887
 20
97.596269
 42
-0.075140
  0
VERTEX
  8
0
 10
131.000000
 20
98.799759
 42
0.075313
  0
VERTEX
  8
0
 10
130.631536
 20
101.232087
 42
0.028875
  0
VERTEX
  8
0
 10
129.428362
 20
104.443982
 42
0.022051
  0
VERTEX
  8
0
 10
127.968096
 20
107.389502
 42
0.273115
  0
VERTEX
  8
0
 10
126.933807
 20
108.000000
 42
-0.507407
  0
VERTEX
  8
0
 10
126.792314
 20
108.193376
 42
-0.059374
  0
VERTEX
  8
0
 10
127.052700
 20
108.767126
 42
-0.034432
  0
VERTEX
  8
0
 10
127.645094
 20
109.608459
 42
-0.016274
  0
VERTEX
  8
0
 10
128.515748
 20
110.611493
 42
0.019489
  0
VERTEX
  8
0
 10
129.483340
 20
111.740786
 42
0.017886
  0
VERTEX
  8
0
 10
130.389507
 20
112.974021
 42
0.018219
  0
VERTEX
  8
0
 10
131.118062
 20
114.132238
 42
0.054486
  0
VERTEX
  8
0
 10
131.495855
 20
114.986940
 42
-0.250424
  0
VERTEX
  8
0
 10
133.258949
 20
116.705850
 42
-0.059932
  0
VERTEX
  8
0
 10
137.433701
 20
117.389138
 42
-0.055596
  0
VERTEX
  8
0
 10
142.310476
 20
117.054234
 42
-0.076268
  0
VERTEX
  8
0
 10
146.461791
 20
115.623558
 42
0.035149
  0
VERTEX
  8
0
 10
148.861012
 20
114.569761
 42
0.045548
  0
VERTEX
  8
0
 10
151.186738
 20
113.969573
 42
0.035693
  0
VERTEX
  8
0
 10
153.989674
 20
113.716157
 42
0.012818
  0
VERTEX
  8
0
 10
158.000000
 20
113.743523
 42
0.010636
  0
VERTEX
  8
0
 10
161.018060
 20
113.905840
 42
0.012284
  0
VERTEX
  8
0
 10
163.884375
 20
114.192182
 42
0.011393
  0
VERTEX
  8
0
 10
166.290597
 20
114.548271
 42
0.067707
  0
VERTEX
  8
0
 10
167.500000
 20
114.928904
 42
-0.011485
  0
VERTEX
  8
0
 10
174.547878
 20
118.052257
 42
-0.056335
  0
VERTEX
  8
0
 10
178.724598
 20
119.260678
 42
-0.052207
  0
VERTEX
  8
0
 10
183.203276
 20
119.551133
 42
-0.008998
  0
VERTEX
  8
0
 10
191.706467
 20
119.061207
 42
-0.007940
  0
VERTEX
  8
0
 10
196.577134
 20
118.614638
 42
-0.011101
  0
VERTEX
  8
0
 10
200.912548
 20
118.049990
 42
-0.007658
  0
VERTEX
  8
0
 10
204.490410
 20
117.446764
 42
-0.128292
  0
VERTEX
  8
0
 10
205.570394
 20
116.941578
 42
0.076088
  0
VERTEX
  8
0
 10
206.258119
 20
116.528548
 42
0.048971
  0
VERTEX
  8
0
 10
207.150794
 20
116.261099
 42
0.048149
  0
VERTEX
  8
0
 10
208.099848
 20
116.168744
 42
0.064229
  0
VERTEX
  8
0
 10
208.957906
 20
116.278741
 42
-0.069852
  0
VERTEX
  8
0
 10
209.793038
 20
116.376309
 42
-0.059263
  0
VERTEX
  8
0
 10
210.673049
 20
116.250893
 42
-0.061564
  0
VERTEX
  8
0
 10
211.463322
 20
115.932568
 42
-0.093314
  0
VERTEX
  8
0
 10
212.032330
 20
115.461044
 42
0.076286
  0
VERTEX
  8
0
 10
212.659914
 20
114.904142
 42
0.029574
  0
VERTEX
  8
0
 10
213.674301
 20
114.330879
 42
0.028440
  0
VERTEX
  8
0
 10
214.865916
 20
113.829327
 42
0.031342
  0
VERTEX
  8
0
 10
216.069098
 20
113.484824
 42
-0.040650
  0
VERTEX
  8
0
 10
217.378743
 20
113.083347
 42
-0.085222
  0
VERTEX
  8
0
 10
218.284685
 20
112.529471
 42
-0.109768
  0
VERTEX
  8
0
 10
218.812849
 20
111.810165
 42
-0.104047
  0
VERTEX
  8
0
 10
219.000000
 20
110.920545
 42
0.078750
  0
VERTEX
  8
0
 10
219.130753
 20
110.095516
 42
0.123449
  0
VERTEX
  8
0
 10
219.510343
 20
109.490068
 42
0.120020
  0
VERTEX
  8
0
 10
220.139775
 20
109.124447
 42
0.071959
  0
VERTEX
  8
0
 10
221.000000
 20
109.000000
 42
0.205234
  0
VERTEX
  8
0
 10
222.298214
 20
109.556309
 42
0.146066
  0
VERTEX
  8
0
 10
223.025526
 20
110.984507
 42
0.171403
  0
VERTEX
  8
0
 10
222.795954
 20
112.420147
 42
0.253518
  0
VERTEX
  8
0
 10
221.750000
 20
113.099680
 42
-0.237882
  0
VERTEX
  8
0
 10
221.564802
 20
113.212376
 42
-0.412127
  0
VERTEX
  8
0
 10
221.601562
 20
113.373153
 42
-0.059133
  0
VERTEX
  8
0
 10
222.111137
 20
113.616831
 42
-0.014537
  0
VERTEX
  8
0
 10
223.000000
 20
113.890675
 42
0.132093
  0
VERTEX
  8
0
 10
224.755828
 20
114.925229
 42
0.118743
  0
VERTEX
  8
0
 10
225.842356
 20
116.740698
 42
0.192052
  0
VERTEX
  8
0
 10
225.722883
 20
118.298166
 42
0.286135
  0
VERTEX
  8
0
 10
224.596886
 20
119.000000
 42
-0.101603
  0
VERTEX
  8
0
 10
222.168662
 20
119.498577
 42
-0.013761
  0
VERTEX
  8
0
 10
217.425529
 20
121.688484
 42
-0.008579
  0
VERTEX
  8
0
 10
212.646096
 20
124.159832
 42
-0.275795
  0
VERTEX
  8
0
 10
212.000000
 20
125.242070
 42
0.280549
  0
VERTEX
  8
0
 10
211.782899
 20
125.598538
 42
0.085603
  0
VERTEX
  8
0
 10
211.154721
 20
125.796950
 42
0.055282
  0
VERTEX
  8
0
 10
210.197004
 20
125.820607
 42
0.027918
  0
VERTEX
  8
0
 10
209.000000
 20
125.650000
 42
-0.022886
  0
VERTEX
  8
0
 10
207.534153
 20
125.426012
 42
-0.097725
  0
VERTEX
  8
0
 10
206.656780
 20
125.504273
 42
-0.188913
  0
VERTEX
  8
0
 10
206.180922
 20
125.871473
 42
-0.135864
  0
VERTEX
  8
0
 10
206.000000
 20
126.525000
 42
0.241147
  0
VERTEX
  8
0
 10
205.537351
 20
127.428483
 42
0.112958
  0
VERTEX
  8
0
 10
204.293614
 20
127.953325
 42
0.097076
  0
VERTEX
  8
0
 10
202.782840
 20
127.924329
 42
0.144152
  0
VERTEX
  8
0
 10
201.628369
 20
127.295035
 42
-0.135764
  0
VERTEX
  8
0
 10
201.133323
 20
127.014528
 42
-0.018776
  0
VERTEX
  8
0
 10
199.965424
 20
126.767924
 42
-0.020384
  0
VERTEX
  8
0
 10
198.527539
 20
126.580252
 42
-0.015986
  0
VERTEX
  8
0
 10
196.957231
 20
126.490564
 42
-0.015801
  0
VERTEX
  8
0
 10
195.485581
 20
126.500155
 42
-0.035643
  0
VERTEX
  8
0
 10
194.377747
 20
126.621807
 42
-0.073107
  0
VERTEX
  8
0
 10
193.779238
 20
126.824528
 42
-0.524156
  0
VERTEX
  8
0
 10
193.745529
 20
127.077080
 42
-0.134991
  0
VERTEX
  8
0
 10
194.827592
 20
127.626128
 42
-0.000441
  0
VERTEX
  8
0
 10
209.706984
 20
130.647192
 42
-0.002772
  0
VERTEX
  8
0
 10
224.522346
 20
133.556240
 42
-0.003706
  0
VERTEX
  8
0
 10
238.000000
 20
136.021711
 42
0.000204
  0
VERTEX
  8
0
 10
240.503756
 20
136.461623
 42
0.000120
  0
VERTEX
  8
0
 10
243.500000
 20
136.990069
 42
0.000120
  0
VERTEX
  8
0
 10
246.496230
 20
137.519993
 42
0.000204
  0
VERTEX
  8
0
 10
249.000000
 20
137.964492
 42
0.008622
  0
VERTEX
  8
0
 10
251.949354
 20
138.541974
 42
0.002204
  0
VERTEX
  8
0
 10
256.703125
 20
139.580105
 42
0.002245
  0
VERTEX
  8
0
 10
262.119531
 20
140.813531
 42
0.002276
  0
VERTEX
  8
0
 10
267.500000
 20
142.090047
 42
-0.000845
  0
VERTEX
  8
0
 10
272.952795
 20
143.400211
 42
-0.000768
  0
VERTEX
  8
0
 10
278.586454
 20
144.734621
 42
-0.000768
  0
VERTEX
  8
0
 10
283.629180
 20
145.912709
 42
-0.002480
  0
VERTEX
  8
0
 10
286.985801
 20
146.673925
 42
0.029144
  0
VERTEX
  8
0
 10
294.213441
 20
148.723498
 42
0.014157
  0
VERTEX
  8
0
 10
303.191119
 20
152.132508
 42
0.005976
  0
VERTEX
  8
0
 10
311.990062
 20
155.885521
 42
0.294164
  0
VERTEX
  8
0
 10
312.989829
 20
157.399933
 42
-0.175875
  0
VERTEX
  8
0
 10
313.197392
 20
157.952227
 42
-0.006605
  0
VERTEX
  8
0
 10
314.680640
 20
159.640343
 42
-0.011227
  0
VERTEX
  8
0
 10
316.534574
 20
161.604447
 42
-0.007588
  0
VERTEX
  8
0
 10
318.731498
 20
163.763124
 42
0.000000
  0
VERTEX
  8
0
 10
324.462995
 20
169.226382
 42
0.000000
  0
VERTEX
  8
0
 10
324.326918
 20
175.145754
 42
0.029693
  0
VERTEX
  8
0
 10
323.966054
 20
179.517703
 42
0.104410
  0
VERTEX
  8
0
 10
323.003886
 20
182.155304
 42
0.111584
  0
VERTEX
  8
0
 10
321.096647
 20
184.082847
 42
0.036432
  0
VERTEX
  8
0
 10
317.556205
 20
185.996874
 42
0.035150
  0
VERTEX
  8
0
 10
306.709819
 20
189.986991
 42
0.031884
  0
VERTEX
  8
0
 10
295.053312
 20
192.575164
 42
0.026772
  0
VERTEX
  8
0
 10
281.405385
 20
193.961256
 42
0.014152
  0
VERTEX
  8
0
 10
264.385075
 20
194.291150
 42
0.000000
  0
VERTEX
  8
0
 10
244.270149
 20
194.111671
 42
0.000000
  0
VERTEX
  8
0
 10
243.147365
 20
196.575913
 42
0.118458
  0
VERTEX
  8
0
 10
241.494894
 20
198.690462
 42
0.089166
  0
VERTEX
  8
0
 10
238.887338
 20
200.093964
 42
0.056098
  0
VERTEX
  8
0
 10
234.901185
 20
200.917919
 42
0.017611
  0
VERTEX
  8
0
 10
228.808280
 20
201.262757
 42
-0.002505
  0
VERTEX
  8
0
 10
225.814225
 20
201.341602
 42
-0.004173
  0
VERTEX
  8
0
 10
223.293682
 20
201.441681
 42
-0.000701
  0
VERTEX
  8
0
 10
221.082707
 20
201.551065
 42
-0.399402
  0
VERTEX
  8
0
 10
221.000000
 20
201.638088
 42
-0.251281
  0
VERTEX
  8
0
 10
221.069369
 20
201.767403
 42
-0.000442
  0
VERTEX
  8
0
 10
223.203125
 20
203.181217
 42
-0.003045
  0
VERTEX
  8
0
 10
225.624473
 20
204.761401
 42
-0.001861
  0
VERTEX
  8
0
 10
228.500000
 20
206.598009
 42
0.006697
  0
VERTEX
  8
0
 10
231.374597
 20
208.473412
 42
0.010408
  0
VERTEX
  8
0
 10
233.796875
 20
210.174596
 42
0.004969
  0
VERTEX
  8
0
 10
235.782983
 20
211.662700
 42
0.233572
  0
VERTEX
  8
0
 10
236.000000
 20
212.101916
 42
-0.280221
  0
VERTEX
  8
0
 10
236.492979
 20
212.912470
 42
-0.004765
  0
VERTEX
  8
0
 10
241.336822
 20
215.363308
 42
-0.008363
  0
VERTEX
  8
0
 10
246.040711
 20
217.590204
 42
-0.106760
  0
VERTEX
  8
0
 10
247.938075
 20
218.000000
 42
0.093067
  0
VERTEX
  8
0
 10
248.343445
 20
218.076113
 42
0.096340
  0
VERTEX
  8
0
 10
248.688059
 20
218.293750
 42
0.099218
  0
VERTEX
  8
0
 10
248.918706
 20
218.618447
 42
0.105349
  0
VERTEX
  8
0
 10
249.000000
 20
219.000000
 42
-0.150507
  0
VERTEX
  8
0
 10
249.117456
 20
219.381363
 42
-0.098528
  0
VERTEX
  8
0
 10
249.447958
 20
219.706250
 42
-0.081628
  0
VERTEX
  8
0
 10
249.941924
 20
219.925370
 42
-0.063741
  0
VERTEX
  8
0
 10
250.524964
 20
220.000000
 42
0.109326
  0
VERTEX
  8
0
 10
252.730094
 20
220.487988
 42
0.005928
  0
VERTEX
  8
0
 10
259.193143
 20
223.589525
 42
0.008333
  0
VERTEX
  8
0
 10
265.430047
 20
226.804474
 42
0.057641
  0
VERTEX
  8
0
 10
268.250000
 20
228.766036
 42
0.054636
  0
VERTEX
  8
0
 10
268.919756
 20
229.501443
 42
0.041657
  0
VERTEX
  8
0
 10
269.485937
 20
230.432660
 42
0.042688
  0
VERTEX
  8
0
 10
269.872829
 20
231.407838
 42
0.073223
  0
VERTEX
  8
0
 10
270.000000
 20
232.271565
 42
0.064118
  0
VERTEX
  8
0
 10
269.876955
 20
233.227137
 42
0.197268
  0
VERTEX
  8
0
 10
269.492289
 20
233.737731
 42
0.149328
  0
VERTEX
  8
0
 10
268.773927
 20
233.912872
 42
0.032901
  0
VERTEX
  8
0
 10
267.500000
 20
233.755249
 42
-0.031701
  0
VERTEX
  8
0
 10
266.541823
 20
233.634359
 42
-0.053628
  0
VERTEX
  8
0
 10
265.734375
 20
233.670744
 42
-0.076393
  0
VERTEX
  8
0
 10
265.183445
 20
233.843992
 42
-0.285831
  0
VERTEX
  8
0
 10
265.000000
 20
234.138672
 42
0.331588
  0
VERTEX
  8
0
 10
264.472314
 20
234.846881
 42
0.101494
  0
VERTEX
  8
0
 10
263.058643
 20
234.971303
 42
0.083367
  0
VERTEX
  8
0
 10
261.504685
 20
234.523012
 42
0.191589
  0
VERTEX
  8
0
 10
260.693388
 20
233.643364
 42
-0.157770
  0
VERTEX
  8
0
 10
260.186682
 20
233.015957
 42
-0.023077
  0
VERTEX
  8
0
 10
258.758154
 20
232.174497
 42
-0.024186
  0
VERTEX
  8
0
 10
256.917932
 20
231.313069
 42
-0.018622
  0
VERTEX
  8
0
 10
254.836399
 20
230.548030
 42
0.009222
  0
VERTEX
  8
0
 10
252.705001
 20
229.809831
 42
0.010817
  0
VERTEX
  8
0
 10
250.713820
 20
229.029515
 42
0.009825
  0
VERTEX
  8
0
 10
249.064608
 20
228.303333
 42
0.063388
  0
VERTEX
  8
0
 10
248.295753
 20
227.820193
 42
-0.046356
  0
VERTEX
  8
0
 10
246.170583
 20
226.381848
 42
-0.016819
  0
VERTEX
  8
0
 10
242.919152
 20
224.735485
 42
-0.014284
  0
VERTEX
  8
0
 10
239.657510
 20
223.331369
 42
-0.094770
  0
VERTEX
  8
0
 10
237.924922
 20
223.000000
 42
0.098854
  0
VERTEX
  8
0
 10
237.126805
 20
222.840648
 42
0.033172
  0
VERTEX
  8
0
 10
236.057065
 20
222.310038
 42
0.031498
  0
VERTEX
  8
0
 10
234.921425
 20
221.550072
 42
0.031195
  0
VERTEX
  8
0
 10
233.886364
 20
220.651193
 42
-0.033732
  0
VERTEX
  8
0
 10
232.787733
 20
219.706833
 42
-0.024983
  0
VERTEX
  8
0
 10
231.458741
 20
218.811918
 42
-0.025454
  0
VERTEX
  8
0
 10
230.112450
 20
218.090736
 42
-0.050650
  0
VERTEX
  8
0
 10
228.973182
 20
217.688156
 42
0.061125
  0
VERTEX
  8
0
 10
227.725540
 20
217.217746
 42
0.018718
  0
VERTEX
  8
0
 10
225.973957
 20
216.214653
 42
0.018427
  0
VERTEX
  8
0
 10
224.079931
 20
214.934475
 42
0.019184
  0
VERTEX
  8
0
 10
222.311355
 20
213.534513
 42
-0.020507
  0
VERTEX
  8
0
 10
220.460964
 20
212.077733
 42
-0.038767
  0
VERTEX
  8
0
 10
218.841654
 20
211.088412
 42
-0.049548
  0
VERTEX
  8
0
 10
217.506561
 20
210.567624
 42
-0.161203
  0
VERTEX
  8
0
 10
216.570213
 20
210.611430
 42
0.140975
  0
VERTEX
  8
0
 10
214.831410
 20
210.761869
 42
0.037256
  0
VERTEX
  8
0
 10
212.114317
 20
210.014924
 42
0.034111
  0
VERTEX
  8
0
 10
209.617640
 20
208.926964
 42
0.279896
  0
VERTEX
  8
0
 10
209.000000
 20
207.910064
 42
-0.185332
  0
VERTEX
  8
0
 10
208.892425
 20
207.629811
 42
-0.147006
  0
VERTEX
  8
0
 10
208.613090
 20
207.460134
 42
-0.099775
  0
VERTEX
  8
0
 10
208.187216
 20
207.436665
 42
-0.055700
  0
VERTEX
  8
0
 10
207.682858
 20
207.568204
 42
-0.459780
  0
VERTEX
  8
0
 10
207.467968
 20
208.170941
 42
-0.030169
  0
VERTEX
  8
0
 10
208.615645
 20
209.923590
 42
-0.023527
  0
VERTEX
  8
0
 10
210.651354
 20
212.404609
 42
-0.008347
  0
VERTEX
  8
0
 10
213.784465
 20
215.761957
 42
0.025335
  0
VERTEX
  8
0
 10
219.156014
 20
221.924874
 42
0.008987
  0
VERTEX
  8
0
 10
226.219940
 20
231.250575
 42
0.003866
  0
VERTEX
  8
0
 10
233.213549
 20
240.993981
 42
0.154929
  0
VERTEX
  8
0
 10
234.000000
 20
243.471165
 42
-0.152699
  0
VERTEX
  8
0
 10
234.258310
 20
244.297258
 42
-0.017682
  0
VERTEX
  8
0
 10
235.433787
 20
245.871196
 42
-0.014953
  0
VERTEX
  8
0
 10
237.302523
 20
248.059738
 42
-0.004594
  0
VERTEX
  8
0
 10
240.250000
 20
251.250217
 42
0.020668
  0
VERTEX
  8
0
 10
241.685568
 20
252.907998
 42
0.024329
  0
VERTEX
  8
0
 10
242.898438
 20
254.593661
 42
0.024275
  0
VERTEX
  8
0
 10
243.770433
 20
256.093868
 42
0.120066
  0
VERTEX
  8
0
 10
244.000000
 20
257.036088
 42
0.300042
  0
VERTEX
  8
0
 10
241.528836
 20
260.783391
 42
0.032125
  0
VERTEX
  8
0
 10
231.215724
 20
264.438335
 42
0.034461
  0
VERTEX
  8
0
 10
218.245639
 20
267.168448
 42
0.033559
  0
VERTEX
  8
0
 10
204.907320
 20
268.123440
 42
0.008664
  0
VERTEX
  8
0
 10
200.136570
 20
268.061678
 42
0.007967
  0
VERTEX
  8
0
 10
195.235275
 20
267.835046
 42
0.007987
  0
VERTEX
  8
0
 10
190.871755
 20
267.493498
 42
0.025918
  0
VERTEX
  8
0
 10
188.000000
 20
267.071472
 42
0.043510
  0
VERTEX
  8
0
 10
183.017268
 20
265.613264
 42
0.020197
  0
VERTEX
  8
0
 10
176.835463
 20
262.911347
 42
0.018382
  0
VERTEX
  8
0
 10
170.009659
 20
259.277539
 42
0.015087
  0
VERTEX
  8
0
 10
162.994117
 20
254.916844
 42
-0.003556
  0
VERTEX
  8
0
 10
158.575855
 20
252.027222
 42
-0.060350
  0
VERTEX
  8
0
 10
157.013959
 20
251.269794
 42
-0.339884
  0
VERTEX
  8
0
 10
156.306335
 20
251.507671
 42
-0.148894
  0
VERTEX
  8
0
 10
156.000000
 20
252.513569
 42
0.046528
  0
VERTEX
  8
0
 10
155.934347
 20
253.217560
 42
0.022973
  0
VERTEX
  8
0
 10
155.727693
 20
254.092603
 42
0.022575
  0
VERTEX
  8
0
 10
155.427998
 20
254.987974
 42
0.030566
  0
VERTEX
  8
0
 10
155.072998
 20
255.763569
 42
-0.014211
  0
VERTEX
  8
0
 10
154.677920
 20
256.557105
 42
-0.008765
  0
VERTEX
  8
0
 10
154.256496
 20
257.511043
 42
-0.008788
  0
VERTEX
  8
0
 10
153.872753
 20
258.469344
 42
-0.015564
  0
VERTEX
  8
0
 10
153.595164
 20
259.274025
 42
0.078555
  0
VERTEX
  8
0
 10
153.232741
 20
260.009501
 42
0.046810
  0
VERTEX
  8
0
 10
152.596485
 20
260.752455
 42
0.045522
  0
VERTEX
  8
0
 10
151.803741
 20
261.390994
 42
0.058261
  0
VERTEX
  8
0
 10
150.968917
 20
261.815795
 42
-0.060552
  0
VERTEX
  8
0
 10
149.864967
 20
262.383902
 42
-0.321973
  0
VERTEX
  8
0
 10
149.644397
 20
262.985193
 42
-0.110287
  0
VERTEX
  8
0
 10
150.123691
 20
263.881440
 42
-0.006378
  0
VERTEX
  8
0
 10
152.196751
 20
266.228323
 42
0.005067
  0
VERTEX
  8
0
 10
156.008763
 20
270.521109
 42
0.018427
  0
VERTEX
  8
0
 10
158.299425
 20
273.358614
 42
0.026411
  0
VERTEX
  8
0
 10
159.646407
 20
275.372522
 42
0.134985
  0
VERTEX
  8
0
 10
160.000000
 20
276.658406
 42
-0.073195
  0
VERTEX
  8
0
 10
160.075450
 20
277.171050
 42
-0.087753
  0
VERTEX
  8
0
 10
160.294878
 20
277.605907
 42
-0.100549
  0
VERTEX
  8
0
 10
160.621028
 20
277.896611
 42
-0.132663
  0
VERTEX
  8
0
 10
161.003838
 20
278.000000
 42
0.250094
  0
VERTEX
  8
0
 10
161.459778
 20
278.243272
 42
0.030983
  0
VERTEX
  8
0
 10
162.046807
 20
279.248438
 42
0.030646
  0
VERTEX
  8
0
 10
162.636135
 20
280.621761
 42
0.020670
  0
VERTEX
  8
0
 10
163.144723
 20
282.250000
 42
-0.030656
  0
VERTEX
  8
0
 10
163.855319
 20
284.374984
 42
-0.063102
  0
VERTEX
  8
0
 10
164.710012
 20
285.902828
 42
-0.071288
  0
VERTEX
  8
0
 10
165.842227
 20
287.050977
 42
-0.050177
  0
VERTEX
  8
0
 10
167.390885
 20
288.000000
 42
0.043919
  0
VERTEX
  8
0
 10
168.673544
 20
288.764152
 42
0.051309
  0
VERTEX
  8
0
 10
169.731707
 20
289.706563
 42
0.057141
  0
VERTEX
  8
0
 10
170.475208
 20
290.733812
 42
0.093085
  0
VERTEX
  8
0
 10
170.819551
 20
291.750000
 42
0.126588
  0
VERTEX
  8
0
 10
170.653457
 20
293.243492
 42
0.274195
  0
VERTEX
  8
0
 10
169.782434
 20
293.937783
 42
0.127772
  0
VERTEX
  8
0
 10
168.083723
 20
293.739098
 42
0.027539
  0
VERTEX
  8
0
 10
165.364307
 20
292.506161
 42
-0.028061
  0
VERTEX
  8
0
 10
162.784703
 20
291.339857
 42
-0.127166
  0
VERTEX
  8
0
 10
161.158631
 20
291.151145
 42
-0.149205
  0
VERTEX
  8
0
 10
159.787127
 20
291.786234
 42
-0.043626
  0
VERTEX
  8
0
 10
158.178660
 20
293.500000
 42
0.038476
  0
VERTEX
  8
0
 10
157.299173
 20
294.456589
 42
0.038641
  0
VERTEX
  8
0
 10
156.284693
 20
295.265625
 42
0.041483
  0
VERTEX
  8
0
 10
155.290551
 20
295.825689
 42
0.107949
  0
VERTEX
  8
0
 10
154.492581
 20
296.000000
 42
0.098643
  0
VERTEX
  8
0
 10
153.661266
 20
295.834381
 42
0.217561
  0
VERTEX
  8
0
 10
153.230034
 20
295.370603
 42
0.110724
  0
VERTEX
  8
0
 10
153.139840
 20
294.472162
 42
0.018515
  0
VERTEX
  8
0
 10
153.413385
 20
292.750000
 42
-0.030350
  0
VERTEX
  8
0
 10
153.904116
 20
289.106151
 42
-0.035039
  0
VERTEX
  8
0
 10
153.915117
 20
285.602074
 42
-0.038623
  0
VERTEX
  8
0
 10
153.478262
 20
282.591830
 42
-0.089926
  0
VERTEX
  8
0
 10
152.592596
 20
280.501079
 42
-0.031376
  0
VERTEX
  8
0
 10
151.786871
 20
279.425196
 42
-0.006278
  0
VERTEX
  8
0
 10
150.208894
 20
277.619067
 42
-0.006614
  0
VERTEX
  8
0
 10
148.315068
 20
275.561017
 42
-0.006127
  0
VERTEX
  8
0
 10
146.319163
 20
273.500000
 42
0.009249
  0
VERTEX
  8
0
 10
144.277942
 20
271.365689
 42
0.008387
  0
VERTEX
  8
0
 10
142.248113
 20
269.087617
 42
0.008429
  0
VERTEX
  8
0
 10
140.500241
 20
266.987896
 42
0.026499
  0
VERTEX
  8
0
 10
139.428478
 20
265.500398
 42
-0.004521
  0
VERTEX
  8
0
 10
138.603235
 20
264.241957
 42
-0.003958
  0
VERTEX
  8
0
 10
137.718334
 20
262.941187
 42
-0.003981
  0
VERTEX
  8
0
 10
136.900276
 20
261.778791
 42
-0.011840
  0
VERTEX
  8
0
 10
136.314788
 20
261.000398
 42
0.004104
  0
VERTEX
  8
0
 10
135.653892
 20
260.149482
 42
0.000821
  0
VERTEX
  8
0
 10
134.490092
 20
258.620209
 42
0.000868
  0
VERTEX
  8
0
 10
133.141525
 20
256.835670
 42
0.000809
  0
VERTEX
  8
0
 10
131.767396
 20
255.004568
 42
-0.021839
  0
VERTEX
  8
0
 10
130.336887
 20
253.256542
 42
-0.025000
  0
VERTEX
  8
0
 10
128.819277
 20
251.720908
 42
-0.025269
  0
VERTEX
  8
0
 10
127.418882
 20
250.563262
 42
-0.113702
  0
VERTEX
  8
0
 10
126.452608
 20
250.138886
 42
0.042683
  0
VERTEX
  8
0
 10
125.654033
 20
249.915544
 42
0.037646
  0
VERTEX
  8
0
 10
124.869068
 20
249.552423
 42
0.039548
  0
VERTEX
  8
0
 10
124.209675
 20
249.113221
 42
0.085824
  0
VERTEX
  8
0
 10
123.803795
 20
248.662343
 42
-0.067054
  0
VERTEX
  8
0
 10
123.469512
 20
248.261907
 42
-0.269036
  0
VERTEX
  8
0
 10
123.169838
 20
248.196258
 42
-0.202895
  0
VERTEX
  8
0
 10
122.899266
 20
248.428973
 42
-0.041578
  0
VERTEX
  8
0
 10
122.662071
 20
249.028025
 42
0.011042
  0
VERTEX
  8
0
 10
121.898544
 20
251.363395
 42
0.000481
  0
VERTEX
  8
0
 10
119.041814
 20
259.464211
 42
0.000766
  0
VERTEX
  8
0
 10
116.252986
 20
267.310063
 42
0.004957
  0
VERTEX
  8
0
 10
114.801526
 20
271.250000
 42
0.026114
  0
VERTEX
  8
0
 10
114.337423
 20
272.303088
 42
0.035736
  0
VERTEX
  8
0
 10
113.805971
 20
273.192187
 42
0.038752
  0
VERTEX
  8
0
 10
113.284456
 20
273.827084
 42
0.204185
  0
VERTEX
  8
0
 10
112.878680
 20
274.000000
 42
-0.161757
  0
VERTEX
  8
0
 10
112.543517
 20
274.111343
 42
-0.096357
  0
VERTEX
  8
0
 10
112.258112
 20
274.425676
 42
-0.077770
  0
VERTEX
  8
0
 10
112.065316
 20
274.894897
 42
-0.058724
  0
VERTEX
  8
0
 10
112.000000
 20
275.449109
 42
0.202644
  0
VERTEX
  8
0
 10
111.248294
 20
277.227690
 42
0.038799
  0
VERTEX
  8
0
 10
108.493096
 20
279.517870
 42
0.040947
  0
VERTEX
  8
0
 10
105.283981
 20
281.415788
 42
0.113543
  0
VERTEX
  8
0
 10
102.744503
 20
282.000000
 42
0.081593
  0
VERTEX
  8
0
 10
101.466408
 20
281.790036
 42
0.055938
  0
VERTEX
  8
0
 10
100.132287
 20
281.166174
 42
0.047862
  0
VERTEX
  8
0
 10
98.776332
 20
280.146410
 42
0.032295
  0
VERTEX
  8
0
 10
97.433724
 20
278.750000
 42
0.040515
  0
VERTEX
  8
0
 10
94.979130
 20
275.313247
 42
0.021869
  0
VERTEX
  8
0
 10
92.504379
 20
270.734269
 42
0.020046
  0
VERTEX
  8
0
 10
90.540266
 20
266.235816
 42
0.091963
  0
VERTEX
  8
0
 10
90.009769
 20
263.450000
 42
-0.036037
  0
VERTEX
  8
0
 10
89.944003
 20
262.595438
 42
-0.031940
  0
VERTEX
  8
0
 10
89.755604
 20
261.723125
 42
-0.033340
  0
VERTEX
  8
0
 10
89.482339
 20
260.958461
 42
-0.078959
  0
VERTEX
  8
0
 10
89.158245
 20
260.450000
 42
0.131005
  0
VERTEX
  8
0
 10
87.957095
 20
258.053011
 42
0.013576
  0
VERTEX
  8
0
 10
86.837085
 20
251.786324
 42
0.014447
  0
VERTEX
  8
0
 10
85.829454
 20
243.486554
 42
0.007339
  0
VERTEX
  8
0
 10
85.017831
 20
233.000000
 42
-0.002489
  0
VERTEX
  8
0
 10
84.148347
 20
220.146297
 42
-0.009058
  0
VERTEX
  8
0
 10
83.407816
 20
211.998218
 42
-0.011152
  0
VERTEX
  8
0
 10
82.455013
 20
204.769617
 42
-0.005413
  0
VERTEX
  8
0
 10
80.931714
 20
195.575108
 42
0.004732
  0
VERTEX
  8
0
 10
80.192167
 20
191.148647
 42
0.005336
  0
VERTEX
  8
0
 10
79.567441
 20
186.882653
 42
0.004902
  0
VERTEX
  8
0
 10
79.110677
 20
183.245640
 42
0.028790
  0
VERTEX
  8
0
 10
79.000000
 20
181.325108
 42
-0.066113
  0
VERTEX
  8
0
 10
78.668380
 20
178.828087
 42
-0.332801
  0
VERTEX
  8
0
 10
77.626878
 20
178.012761
 42
-0.291753
  0
VERTEX
  8
0
 10
76.405908
 20
178.754811
 42
-0.059845
  0
VERTEX
  8
0
 10
75.530562
 20
181.250000
 42
-0.041742
  0
VERTEX
  8
0
 10
75.231605
 20
183.460686
 42
-0.002484
  0
VERTEX
  8
0
 10
74.921249
 20
190.200566
 42
-0.003723
  0
VERTEX
  8
0
 10
74.650976
 20
198.241054
 42
-0.002737
  0
VERTEX
  8
0
 10
74.466579
 20
207.156182
 42
0.005526
  0
VERTEX
  8
0
 10
74.069547
 20
222.272811
 42
0.016297
  0
VERTEX
  8
0
 10
73.343533
 20
232.642051
 42
0.023531
  0
VERTEX
  8
0
 10
72.193365
 20
240.275687
 42
0.043091
  0
VERTEX
  8
0
 10
70.438980
 20
246.314691
 42
-0.041567
  0
VERTEX
  8
0
 10
69.697662
 20
248.837816
 42
-0.101638
  0
VERTEX
  8
0
 10
69.697466
 20
250.764552
 42
-0.053513
  0
VERTEX
  8
0
 10
70.474847
 20
253.196392
 42
-0.005475
  0
VERTEX
  8
0
 10
72.982213
 20
258.703116
 42
0.004037
  0
VERTEX
  8
0
 10
74.521657
 20
262.058441
 42
0.005881
  0
VERTEX
  8
0
 10
75.819775
 20
265.042564
 42
0.003098
  0
VERTEX
  8
0
 10
76.870321
 20
267.581245
 42
0.096842
  0
VERTEX
  8
0
 10
77.000000
 20
268.244505
 42
-0.149764
  0
VERTEX
  8
0
 10
77.151565
 20
268.739168
 42
-0.027767
  0
VERTEX
  8
0
 10
77.734375
 20
269.505571
 42
-0.027574
  0
VERTEX
  8
0
 10
78.542848
 20
270.354818
 42
-0.022088
  0
VERTEX
  8
0
 10
79.500000
 20
271.178660
 42
0.073792
  0
VERTEX
  8
0
 10
81.242391
 20
273.023069
 42
0.129189
  0
VERTEX
  8
0
 10
81.963430
 20
274.981980
 42
0.218318
  0
VERTEX
  8
0
 10
81.472215
 20
276.396878
 42
0.204468
  0
VERTEX
  8
0
 10
80.059017
 20
277.000000
 42
0.046881
  0
VERTEX
  8
0
 10
79.270704
 20
276.925923
 42
0.046318
  0
VERTEX
  8
0
 10
78.506650
 20
276.706250
 42
0.050262
  0
VERTEX
  8
0
 10
77.876024
 20
276.383556
 42
0.111412
  0
VERTEX
  8
0
 10
77.500000
 20
276.000000
 42
-0.145013
  0
VERTEX
  8
0
 10
76.475629
 20
275.084740
 42
-0.214731
  0
VERTEX
  8
0
 10
75.289714
 20
275.063217
 42
-0.182485
  0
VERTEX
  8
0
 10
74.344846
 20
275.971920
 42
-0.111435
  0
VERTEX
  8
0
 10
74.000000
 20
277.500000
 42
0.044917
  0
VERTEX
  8
0
 10
73.893532
 20
278.682766
 42
0.124434
  0
VERTEX
  8
0
 10
73.550000
 20
279.437500
 42
0.149477
  0
VERTEX
  8
0
 10
72.935258
 20
279.857434
 42
0.075780
  0
VERTEX
  8
0
 10
72.000000
 20
280.000000
 42
0.081034
  0
VERTEX
  8
0
 10
71.025622
 20
279.841041
 42
0.165782
  0
VERTEX
  8
0
 10
70.417468
 20
279.376794
 42
0.117088
  0
VERTEX
  8
0
 10
70.092595
 20
278.506051
 42
0.031007
  0
VERTEX
  8
0
 10
70.000000
 20
277.014351
 42
-0.044362
  0
VERTEX
  8
0
 10
69.672970
 20
273.335671
 42
-0.030504
  0
VERTEX
  8
0
 10
68.683983
 20
269.264731
 42
-0.023976
  0
VERTEX
  8
0
 10
67.409982
 20
265.744599
 42
-0.302665
  0
VERTEX
  8
0
 10
66.292595
 20
265.000000
 42
0.194077
  0
VERTEX
  8
0
 10
65.786375
 20
264.795818
 42
0.086380
  0
VERTEX
  8
0
 10
65.354096
 20
264.205034
 42
0.065404
  0
VERTEX
  8
0
 10
65.051854
 20
263.318978
 42
0.043403
  0
VERTEX
  8
0
 10
64.932320
 20
262.250000
 42
0.000000
  0
VERTEX
  8
0
 10
64.864639
 20
259.500000
 42
0.000000
  0
VERTEX
  8
0
 10
63.709990
 20
262.000000
 42
0.008941
  0
VERTEX
  8
0
 10
63.229234
 20
262.993832
 42
0.010661
  0
VERTEX
  8
0
 10
62.739515
 20
263.912500
 42
0.009528
  0
VERTEX
  8
0
 10
62.297144
 20
264.667278
 42
0.065877
  0
VERTEX
  8
0
 10
62.027670
 20
265.000000
 42
-0.049901
  0
VERTEX
  8
0
 10
60.808119
 20
266.411429
 42
-0.010780
  0
VERTEX
  8
0
 10
59.007363
 20
269.093255
 42
-0.006716
  0
VERTEX
  8
0
 10
57.265353
 20
271.894611
 42
-0.136564
  0
VERTEX
  8
0
 10
57.000000
 20
272.848028
 42
0.190409
  0
VERTEX
  8
0
 10
56.162998
 20
274.966246
 42
0.002662
  0
VERTEX
  8
0
 10
46.525128
 20
285.148246
 42
0.007502
  0
VERTEX
  8
0
 10
37.257018
 20
294.549269
 42
0.031488
  0
VERTEX
  8
0
 10
31.267123
 20
299.745422
 42
-0.024653
  0
VERTEX
  8
0
 10
30.016408
 20
300.800808
 42
-0.029981
  0
VERTEX
  8
0
 10
28.959717
 20
301.911126
 42
-0.031020
  0
VERTEX
  8
0
 10
28.204983
 20
302.927585
 42
-0.145175
  0
VERTEX
  8
0
 10
28.000000
 20
303.618689
 42
0.161631
  0
VERTEX
  8
0
 10
27.821023
 20
304.157883
 42
0.101127
  0
VERTEX
  8
0
 10
27.320052
 20
304.604634
 42
0.078717
  0
VERTEX
  8
0
 10
26.555774
 20
304.900690
 42
0.053165
  0
VERTEX
  8
0
 10
25.624430
 20
305.000000
 42
-0.061100
  0
VERTEX
  8
0
 10
24.351414
 20
305.156147
 42
-0.014445
  0
VERTEX
  8
0
 10
22.286132
 20
305.734375
 42
-0.014656
  0
VERTEX
  8
0
 10
19.934395
 20
306.543016
 42
-0.013974
  0
VERTEX
  8
0
 10
17.595917
 20
307.500000
 42
0.031503
  0
VERTEX
  8
0
 10
13.201732
 20
309.120968
 42
0.052264
  0
VERTEX
  8
0
 10
9.323405
 20
309.850708
 42
0.067467
  0
VERTEX
  8
0
 10
6.254126
 20
309.687330
 42
0.167236
  0
SEQEND
  0
ENDSEC
  0
EOF
