  0
SECTION
  2
HEADER
  9
$ACADVER
  1
AC1006
  9
$EXTMIN
 10
0.000000
 20
0.000000
 30
0.000000
  9
$EXTMAX
 10
187.000000
 20
195.000000
 30
0.000000
  0
ENDSEC
  0
SECTION
  2
ENTITIES
  0
POLYLINE
  8
0
 66
1
 70
1
  0
VERTEX
  8
0
 10
123.527665
 20
192.750000
 42
0.068133
  0
VERTEX
  8
0
 10
122.648579
 20
187.561335
 42
0.004280
  0
VERTEX
  8
0
 10
122.287686
 20
172.018505
 42
0.006424
  0
VERTEX
  8
0
 10
122.259992
 20
156.691114
 42
0.027860
  0
VERTEX
  8
0
 10
122.866276
 20
147.621314
 42
-0.006588
  0
VERTEX
  8
0
 10
123.246367
 20
144.156926
 42
-0.009639
  0
VERTEX
  8
0
 10
123.481824
 20
141.098059
 42
-0.005574
  0
VERTEX
  8
0
 10
123.600761
 20
138.536552
 42
-0.148279
  0
VERTEX
  8
0
 10
123.427337
 20
137.882429
 42
-0.251260
  0
VERTEX
  8
0
 10
123.051679
 20
137.664894
 42
-0.068076
  0
VERTEX
  8
0
 10
122.344754
 20
137.738236
 42
-0.051841
  0
VERTEX
  8
0
 10
121.449327
 20
138.057915
 42
-0.033398
  0
VERTEX
  8
0
 10
120.488493
 20
138.599497
 42
0.107219
  0
VERTEX
  8
0
 10
118.203688
 20
139.476285
 42
0.063105
  0
VERTEX
  8
0
 10
115.266861
 20
139.554869
 42
0.071538
  0
VERTEX
  8
0
 10
112.803594
 20
138.946519
 42
0.305462
  0
VERTEX
  8
0
 10
112.000000
 20
137.753878
 42
-0.053614
  0
VERTEX
  8
0
 10
111.959434
 20
137.376655
 42
-0.161345
  0
VERTEX
  8
0
 10
111.829325
 20
137.156710
 42
-0.257770
  0
VERTEX
  8
0
 10
111.639497
 20
137.115827
 42
-0.123870
  0
VERTEX
  8
0
 10
111.418980
 20
137.247687
 42
-0.191448
  0
VERTEX
  8
0
 10
111.265774
 20
137.603017
 42
-0.051838
  0
VERTEX
  8
0
 10
111.312452
 20
138.225722
 42
-0.044634
  0
VERTEX
  8
0
 10
111.518934
 20
138.978782
 42
-0.033657
  0
VERTEX
  8
0
 10
111.872233
 20
139.761266
 42
0.140825
  0
VERTEX
  8
0
 10
112.543897
 20
142.888164
 42
0.013054
  0
VERTEX
  8
0
 10
111.791500
 20
150.840792
 42
0.008876
  0
VERTEX
  8
0
 10
110.665450
 20
158.937555
 42
0.369243
  0
VERTEX
  8
0
 10
109.422921
 20
160.000000
 42
-0.029575
  0
VERTEX
  8
0
 10
108.776868
 20
160.038248
 42
-0.006535
  0
VERTEX
  8
0
 10
107.676577
 20
160.183594
 42
-0.006773
  0
VERTEX
  8
0
 10
106.407425
 20
160.385742
 42
-0.006475
  0
VERTEX
  8
0
 10
105.125000
 20
160.625000
 42
0.019340
  0
VERTEX
  8
0
 10
103.410424
 20
160.899446
 42
0.131583
  0
VERTEX
  8
0
 10
102.569149
 20
160.779504
 42
0.226439
  0
VERTEX
  8
0
 10
102.139252
 20
160.291469
 42
0.069305
  0
VERTEX
  8
0
 10
102.000000
 20
159.291667
 42
0.034345
  0
VERTEX
  8
0
 10
102.055326
 20
158.487157
 42
0.033293
  0
VERTEX
  8
0
 10
102.220313
 20
157.689193
 42
0.035144
  0
VERTEX
  8
0
 10
102.461539
 20
157.008788
 42
0.094405
  0
VERTEX
  8
0
 10
102.750000
 20
156.586438
 42
-0.146796
  0
VERTEX
  8
0
 10
103.580860
 20
155.050853
 42
-0.008002
  0
VERTEX
  8
0
 10
104.621628
 20
149.593511
 42
-0.008713
  0
VERTEX
  8
0
 10
105.473864
 20
144.139944
 42
-0.126671
  0
VERTEX
  8
0
 10
105.252845
 20
142.216519
 42
-0.101323
  0
VERTEX
  8
0
 10
104.872035
 20
141.620260
 42
-0.028135
  0
VERTEX
  8
0
 10
104.051660
 20
140.864812
 42
-0.027182
  0
VERTEX
  8
0
 10
103.004944
 20
140.095826
 42
-0.025509
  0
VERTEX
  8
0
 10
101.859103
 20
139.427139
 42
0.078074
  0
VERTEX
  8
0
 10
98.526661
 20
136.981647
 42
0.054166
  0
VERTEX
  8
0
 10
95.606880
 20
133.323811
 42
0.055221
  0
VERTEX
  8
0
 10
93.606145
 20
129.235378
 42
0.096061
  0
VERTEX
  8
0
 10
93.031623
 20
125.515596
 42
-0.004911
  0
VERTEX
  8
0
 10
93.146575
 20
121.479406
 42
-0.227381
  0
VERTEX
  8
0
 10
92.812424
 20
120.747927
 42
-0.376788
  0
VERTEX
  8
0
 10
92.168042
 20
120.764391
 42
-0.009795
  0
VERTEX
  8
0
 10
89.923077
 20
122.923077
 42
0.033602
  0
VERTEX
  8
0
 10
87.914091
 20
124.678776
 42
0.090634
  0
VERTEX
  8
0
 10
86.230971
 20
125.534308
 42
0.062917
  0
VERTEX
  8
0
 10
84.015664
 20
125.900511
 42
0.010371
  0
VERTEX
  8
0
 10
79.673077
 20
125.976143
 42
0.010539
  0
VERTEX
  8
0
 10
76.648207
 20
125.902315
 42
0.009222
  0
VERTEX
  8
0
 10
73.491097
 20
125.700233
 42
0.009310
  0
VERTEX
  8
0
 10
70.645467
 20
125.411889
 42
0.027130
  0
VERTEX
  8
0
 10
68.700870
 20
125.070374
 42
-0.035536
  0
VERTEX
  8
0
 10
66.347337
 20
124.697672
 42
-0.117757
  0
VERTEX
  8
0
 10
64.806981
 20
124.927988
 42
-0.081864
  0
VERTEX
  8
0
 10
63.239491
 20
125.880891
 42
-0.011838
  0
VERTEX
  8
0
 10
60.450870
 20
128.392886
 42
-0.018636
  0
VERTEX
  8
0
 10
58.746690
 20
130.127335
 42
-0.023378
  0
VERTEX
  8
0
 10
57.307443
 20
131.862031
 42
-0.022512
  0
VERTEX
  8
0
 10
56.258471
 20
133.392632
 42
-0.139851
  0
VERTEX
  8
0
 10
56.000000
 20
134.298656
 42
0.059539
  0
VERTEX
  8
0
 10
55.922246
 20
134.949301
 42
0.078427
  0
VERTEX
  8
0
 10
55.692939
 20
135.500230
 42
0.096771
  0
VERTEX
  8
0
 10
55.353393
 20
135.869206
 42
0.159833
  0
VERTEX
  8
0
 10
54.954687
 20
136.000000
 42
-0.284146
  0
VERTEX
  8
0
 10
54.565014
 20
136.240898
 42
-0.088427
  0
VERTEX
  8
0
 10
54.361614
 20
136.930035
 42
-0.052425
  0
VERTEX
  8
0
 10
54.355192
 20
138.027405
 42
-0.021639
  0
VERTEX
  8
0
 10
54.565978
 20
139.500000
 42
0.015248
  0
VERTEX
  8
0
 10
54.882051
 20
141.523467
 42
0.132259
  0
VERTEX
  8
0
 10
54.757295
 20
142.418242
 42
0.237551
  0
VERTEX
  8
0
 10
54.232027
 20
142.863205
 42
0.059159
  0
VERTEX
  8
0
 10
53.079906
 20
143.000000
 42
0.057172
  0
VERTEX
  8
0
 10
52.222786
 20
142.901672
 42
0.058593
  0
VERTEX
  8
0
 10
51.417715
 20
142.611905
 42
0.064810
  0
VERTEX
  8
0
 10
50.782073
 20
142.184478
 42
0.121332
  0
VERTEX
  8
0
 10
50.430248
 20
141.678824
 42
-0.152321
  0
VERTEX
  8
0
 10
50.016246
 20
141.154892
 42
-0.087606
  0
VERTEX
  8
0
 10
49.276656
 20
140.820178
 42
-0.064457
  0
VERTEX
  8
0
 10
48.243693
 20
140.694067
 42
-0.034633
  0
VERTEX
  8
0
 10
46.961632
 20
140.792323
 42
0.092969
  0
VERTEX
  8
0
 10
44.938939
 20
140.712028
 42
0.280565
  0
VERTEX
  8
0
 10
43.990883
 20
139.788773
 42
0.196368
  0
VERTEX
  8
0
 10
44.210944
 20
138.183245
 42
0.053720
  0
VERTEX
  8
0
 10
45.750000
 20
136.078377
 42
-0.025986
  0
VERTEX
  8
0
 10
46.635561
 20
134.998230
 42
-0.006613
  0
VERTEX
  8
0
 10
47.955031
 20
133.156020
 42
-0.006723
  0
VERTEX
  8
0
 10
49.407606
 20
131.009263
 42
-0.006762
  0
VERTEX
  8
0
 10
50.799042
 20
128.828377
 42
0.020992
  0
VERTEX
  8
0
 10
52.295792
 20
126.623384
 42
0.017388
  0
VERTEX
  8
0
 10
54.065135
 20
124.404273
 42
0.017737
  0
VERTEX
  8
0
 10
55.832016
 20
122.482182
 42
0.044334
  0
VERTEX
  8
0
 10
57.284960
 20
121.250000
 42
0.000000
  0
VERTEX
  8
0
 10
60.471837
 20
119.000000
 42
0.000000
  0
VERTEX
  8
0
 10
55.985545
 20
119.000000
 42
0.042415
  0
VERTEX
  8
0
 10
48.285260
 20
118.345613
 42
0.031938
  0
VERTEX
  8
0
 10
40.015153
 20
116.379447
 42
0.030386
  0
VERTEX
  8
0
 10
31.610397
 20
113.234883
 42
0.028912
  0
VERTEX
  8
0
 10
23.502883
 20
109.049228
 42
0.036181
  0
VERTEX
  8
0
 10
17.526842
 20
104.901617
 42
0.018216
  0
VERTEX
  8
0
 10
10.594866
 20
98.877113
 42
0.016547
  0
VERTEX
  8
0
 10
4.417003
 20
92.704273
 42
0.077567
  0
VERTEX
  8
0
 10
1.597615
 20
88.564466
 42
0.040102
  0
VERTEX
  8
0
 10
0.349328
 20
85.277102
 42
0.079189
  0
VERTEX
  8
0
 10
0.002934
 20
82.513595
 42
0.136892
  0
VERTEX
  8
0
 10
0.571297
 20
80.711056
 42
0.253548
  0
VERTEX
  8
0
 10
1.883369
 20
80.000000
 42
-0.094626
  0
VERTEX
  8
0
 10
2.640775
 20
79.855365
 42
-0.075305
  0
VERTEX
  8
0
 10
3.361111
 20
79.435526
 42
-0.074016
  0
VERTEX
  8
0
 10
3.935607
 20
78.812633
 42
-0.085573
  0
VERTEX
  8
0
 10
4.269251
 20
78.078386
 42
0.302895
  0
VERTEX
  8
0
 10
6.943721
 20
75.700337
 42
0.033566
  0
VERTEX
  8
0
 10
15.524339
 20
75.086048
 42
0.035224
  0
VERTEX
  8
0
 10
26.005974
 20
75.779444
 42
0.033374
  0
VERTEX
  8
0
 10
36.481868
 20
77.937910
 42
-0.005822
  0
VERTEX
  8
0
 10
39.184577
 20
78.651903
 42
-0.009189
  0
VERTEX
  8
0
 10
41.520444
 20
79.194532
 42
-0.003807
  0
VERTEX
  8
0
 10
43.506226
 20
79.601751
 42
-0.250035
  0
VERTEX
  8
0
 10
43.830142
 20
79.503191
 42
-0.362068
  0
VERTEX
  8
0
 10
43.900226
 20
78.731988
 42
-0.017527
  0
VERTEX
  8
0
 10
42.248335
 20
76.509581
 42
-0.024372
  0
VERTEX
  8
0
 10
40.392164
 20
74.405909
 42
-0.101325
  0
VERTEX
  8
0
 10
39.000000
 20
73.459343
 42
-0.044808
  0
VERTEX
  8
0
 10
36.331787
 20
72.617546
 42
-0.011466
  0
VERTEX
  8
0
 10
31.883697
 20
71.747693
 42
-0.011895
  0
VERTEX
  8
0
 10
27.351374
 20
71.079378
 42
-0.036380
  0
VERTEX
  8
0
 10
24.250000
 20
70.924542
 42
0.025289
  0
VERTEX
  8
0
 10
22.582939
 20
70.878317
 42
0.112581
  0
VERTEX
  8
0
 10
21.654200
 20
70.588471
 42
0.176949
  0
VERTEX
  8
0
 10
21.168195
 20
70.004152
 42
0.086094
  0
VERTEX
  8
0
 10
21.000000
 20
69.034584
 42
0.088287
  0
VERTEX
  8
0
 10
21.147827
 20
68.203921
 42
0.057686
  0
VERTEX
  8
0
 10
21.587500
 20
67.332936
 42
0.055923
  0
VERTEX
  8
0
 10
22.235098
 20
66.555367
 42
0.068411
  0
VERTEX
  8
0
 10
23.000000
 20
66.000000
 42
-0.068430
  0
VERTEX
  8
0
 10
23.764902
 20
65.444588
 42
-0.055927
  0
VERTEX
  8
0
 10
24.412500
 20
64.666888
 42
-0.057686
  0
VERTEX
  8
0
 10
24.852172
 20
63.795709
 42
-0.088264
  0
VERTEX
  8
0
 10
25.000000
 20
62.964816
 42
0.169378
  0
VERTEX
  8
0
 10
25.447383
 20
61.682036
 42
0.193564
  0
VERTEX
  8
0
 10
26.570754
 20
61.042923
 42
0.151999
  0
VERTEX
  8
0
 10
28.056255
 20
61.293077
 42
0.105627
  0
VERTEX
  8
0
 10
29.389757
 20
62.369213
 42
-0.112781
  0
VERTEX
  8
0
 10
30.181934
 20
62.990211
 42
-0.017054
  0
VERTEX
  8
0
 10
32.044490
 20
63.791199
 42
-0.018390
  0
VERTEX
  8
0
 10
34.348509
 20
64.593946
 42
-0.014974
  0
VERTEX
  8
0
 10
36.868081
 20
65.287293
 42
-0.008813
  0
VERTEX
  8
0
 10
39.519559
 20
65.882903
 42
-0.030376
  0
VERTEX
  8
0
 10
41.263019
 20
66.133228
 42
-0.099084
  0
VERTEX
  8
0
 10
42.039911
 20
66.042977
 42
-0.560350
  0
VERTEX
  8
0
 10
42.118081
 20
65.718081
 42
0.065886
  0
VERTEX
  8
0
 10
41.689689
 20
65.159001
 42
0.039103
  0
VERTEX
  8
0
 10
41.328436
 20
64.399686
 42
0.038468
  0
VERTEX
  8
0
 10
41.082093
 20
63.571166
 42
0.053077
  0
VERTEX
  8
0
 10
41.000000
 20
62.800000
 42
-0.054500
  0
VERTEX
  8
0
 10
40.924720
 20
62.111406
 42
-0.074175
  0
VERTEX
  8
0
 10
40.701498
 20
61.528750
 42
-0.093776
  0
VERTEX
  8
0
 10
40.371552
 20
61.137776
 42
-0.172389
  0
VERTEX
  8
0
 10
39.983821
 20
61.000000
 42
0.212919
  0
VERTEX
  8
0
 10
39.494849
 20
60.781889
 42
0.030150
  0
VERTEX
  8
0
 10
38.792957
 20
59.898438
 42
0.029982
  0
VERTEX
  8
0
 10
38.047885
 20
58.686310
 42
0.021371
  0
VERTEX
  8
0
 10
37.356788
 20
57.250000
 42
-0.004375
  0
VERTEX
  8
0
 10
36.639737
 20
55.620209
 42
-0.003194
  0
VERTEX
  8
0
 10
35.815813
 20
53.821864
 42
-0.003227
  0
VERTEX
  8
0
 10
35.012963
 20
52.127332
 42
-0.007112
  0
VERTEX
  8
0
 10
34.372967
 20
50.845708
 42
0.062541
  0
VERTEX
  8
0
 10
33.370448
 20
48.119990
 42
0.060179
  0
VERTEX
  8
0
 10
33.055319
 20
45.194691
 42
0.066971
  0
VERTEX
  8
0
 10
33.434211
 20
42.629479
 42
0.150544
  0
VERTEX
  8
0
 10
34.500000
 20
41.000000
 42
-0.062262
  0
VERTEX
  8
0
 10
35.074147
 20
40.388261
 42
-0.044176
  0
VERTEX
  8
0
 10
35.559375
 20
39.580708
 42
-0.044570
  0
VERTEX
  8
0
 10
35.890135
 20
38.711674
 42
-0.068757
  0
VERTEX
  8
0
 10
36.000000
 20
37.916510
 42
0.147286
  0
VERTEX
  8
0
 10
36.642279
 20
35.783422
 42
0.087318
  0
VERTEX
  8
0
 10
38.485452
 20
33.840782
 42
0.078333
  0
VERTEX
  8
0
 10
41.107376
 20
32.472028
 42
0.081373
  0
VERTEX
  8
0
 10
43.988561
 20
32.000000
 42
-0.029283
  0
VERTEX
  8
0
 10
45.456760
 20
31.913938
 42
-0.030652
  0
VERTEX
  8
0
 10
46.882212
 20
31.656928
 42
-0.032209
  0
VERTEX
  8
0
 10
48.076157
 20
31.282276
 42
-0.104614
  0
VERTEX
  8
0
 10
48.767904
 20
30.832096
 42
0.222693
  0
VERTEX
  8
0
 10
50.429428
 20
30.230930
 42
0.036487
  0
VERTEX
  8
0
 10
53.893688
 20
30.804269
 42
0.035693
  0
VERTEX
  8
0
 10
57.179434
 20
31.850672
 42
0.306908
  0
VERTEX
  8
0
 10
58.000000
 20
33.061580
 42
-0.186591
  0
VERTEX
  8
0
 10
58.176686
 20
33.518553
 42
-0.040106
  0
VERTEX
  8
0
 10
58.807812
 20
34.109755
 42
-0.036726
  0
VERTEX
  8
0
 10
59.697094
 20
34.717048
 42
-0.027894
  0
VERTEX
  8
0
 10
60.750000
 20
35.251844
 42
0.022424
  0
VERTEX
  8
0
 10
62.075945
 20
35.907185
 42
0.008853
  0
VERTEX
  8
0
 10
63.840656
 20
36.921296
 42
0.008741
  0
VERTEX
  8
0
 10
65.711345
 20
38.085719
 42
0.010819
  0
VERTEX
  8
0
 10
67.409681
 20
39.237390
 42
-0.011906
  0
VERTEX
  8
0
 10
68.939863
 20
40.270186
 42
-0.019015
  0
VERTEX
  8
0
 10
70.299177
 20
41.070066
 42
-0.013624
  0
VERTEX
  8
0
 10
71.422009
 20
41.635643
 42
-0.316132
  0
VERTEX
  8
0
 10
71.756073
 20
41.577261
 42
-0.365919
  0
VERTEX
  8
0
 10
71.865853
 20
40.270718
 42
-0.016499
  0
VERTEX
  8
0
 10
68.924999
 20
36.408155
 42
-0.018887
  0
VERTEX
  8
0
 10
65.712283
 20
32.756237
 42
-0.205711
  0
VERTEX
  8
0
 10
63.951959
 20
32.000000
 42
0.207425
  0
VERTEX
  8
0
 10
62.536490
 20
31.386392
 42
0.193071
  0
VERTEX
  8
0
 10
61.961208
 20
29.908664
 42
0.164148
  0
VERTEX
  8
0
 10
62.538679
 20
28.253005
 42
0.164980
  0
VERTEX
  8
0
 10
64.000000
 20
27.289749
 42
-0.060903
  0
VERTEX
  8
0
 10
64.764694
 20
26.986593
 42
-0.065681
  0
VERTEX
  8
0
 10
65.412500
 20
26.514007
 42
-0.073972
  0
VERTEX
  8
0
 10
65.850737
 20
25.951305
 42
-0.129214
  0
VERTEX
  8
0
 10
66.000000
 20
25.383369
 42
0.143115
  0
VERTEX
  8
0
 10
66.154154
 20
24.855833
 42
0.099595
  0
VERTEX
  8
0
 10
66.587500
 20
24.406365
 42
0.084175
  0
VERTEX
  8
0
 10
67.235510
 20
24.103532
 42
0.067406
  0
VERTEX
  8
0
 10
68.000000
 20
24.000000
 42
0.067109
  0
VERTEX
  8
0
 10
68.764504
 20
24.103074
 42
0.083977
  0
VERTEX
  8
0
 10
69.412500
 20
24.404657
 42
0.099524
  0
VERTEX
  8
0
 10
69.845850
 20
24.852235
 42
0.143690
  0
VERTEX
  8
0
 10
70.000000
 20
25.377555
 42
-0.086594
  0
VERTEX
  8
0
 10
70.107783
 20
25.995234
 42
-0.043540
  0
VERTEX
  8
0
 10
70.440625
 20
26.716140
 42
-0.041499
  0
VERTEX
  8
0
 10
70.926058
 20
27.421878
 42
-0.048188
  0
VERTEX
  8
0
 10
71.500000
 20
28.000000
 42
-0.191646
  0
VERTEX
  8
0
 10
72.251208
 20
28.243969
 42
-0.321625
  0
VERTEX
  8
0
 10
72.741656
 20
27.841627
 42
-0.059942
  0
VERTEX
  8
0
 10
72.960853
 20
26.304804
 42
-0.005281
  0
VERTEX
  8
0
 10
73.005577
 20
22.372445
 42
0.020679
  0
VERTEX
  8
0
 10
73.226595
 20
17.133672
 42
0.029330
  0
VERTEX
  8
0
 10
73.887295
 20
12.517426
 42
0.030681
  0
VERTEX
  8
0
 10
75.052847
 20
8.173555
 42
0.026173
  0
VERTEX
  8
0
 10
76.793761
 20
3.761473
 42
0.025491
  0
VERTEX
  8
0
 10
77.920485
 20
1.592626
 42
0.120276
  0
VERTEX
  8
0
 10
78.888967
 20
0.592851
 42
0.116870
  0
VERTEX
  8
0
 10
80.223489
 20
0.136922
 42
0.023461
  0
VERTEX
  8
0
 10
82.750000
 20
0.011473
 42
0.022193
  0
VERTEX
  8
0
 10
84.378861
 20
0.079403
 42
0.035633
  0
VERTEX
  8
0
 10
85.751563
 20
0.297120
 42
0.040293
  0
VERTEX
  8
0
 10
86.740475
 20
0.612886
 42
0.304189
  0
VERTEX
  8
0
 10
87.000000
 20
1.000000
 42
-0.147407
  0
VERTEX
  8
0
 10
87.114925
 20
1.381351
 42
-0.099013
  0
VERTEX
  8
0
 10
87.438136
 20
1.706250
 42
-0.082696
  0
VERTEX
  8
0
 10
87.921323
 20
1.925283
 42
-0.065239
  0
VERTEX
  8
0
 10
88.491526
 20
2.000000
 42
0.107418
  0
VERTEX
  8
0
 10
89.153239
 20
2.143819
 42
0.050645
  0
VERTEX
  8
0
 10
89.911816
 20
2.587500
 42
0.046919
  0
VERTEX
  8
0
 10
90.643741
 20
3.234913
 42
0.048682
  0
VERTEX
  8
0
 10
91.232073
 20
4.000000
 42
-0.029660
  0
VERTEX
  8
0
 10
91.775772
 20
4.765539
 42
-0.035671
  0
VERTEX
  8
0
 10
92.376265
 20
5.412500
 42
-0.038477
  0
VERTEX
  8
0
 10
92.946918
 20
5.868707
 42
-0.150493
  0
VERTEX
  8
0
 10
93.373251
 20
6.000000
 42
0.241319
  0
VERTEX
  8
0
 10
95.388499
 20
7.032778
 42
0.025475
  0
VERTEX
  8
0
 10
98.343835
 20
11.616315
 42
0.019624
  0
VERTEX
  8
0
 10
102.224301
 20
19.024550
 42
0.005259
  0
VERTEX
  8
0
 10
107.800677
 20
31.095916
 42
0.032211
  0
VERTEX
  8
0
 10
110.191441
 20
37.489590
 42
0.025389
  0
VERTEX
  8
0
 10
111.967742
 20
44.665441
 42
0.019496
  0
VERTEX
  8
0
 10
113.349885
 20
53.634060
 42
0.008247
  0
VERTEX
  8
0
 10
114.534673
 20
65.756601
 42
-0.002217
  0
VERTEX
  8
0
 10
115.112653
 20
72.510893
 42
-0.003545
  0
VERTEX
  8
0
 10
115.672716
 20
78.273324
 42
-0.000778
  0
VERTEX
  8
0
 10
116.206975
 20
83.316951
 42
-0.171221
  0
VERTEX
  8
0
 10
116.411860
 20
83.745193
 42
-0.378535
  0
VERTEX
  8
0
 10
117.441263
 20
83.808752
 42
-0.156014
  0
VERTEX
  8
0
 10
118.295114
 20
82.558523
 42
-0.054757
  0
VERTEX
  8
0
 10
118.840329
 20
79.566701
 42
-0.017715
  0
VERTEX
  8
0
 10
119.000000
 20
75.061445
 42
0.000000
  0
VERTEX
  8
0
 10
119.000000
 20
67.240924
 42
0.000000
  0
VERTEX
  8
0
 10
123.322320
 20
63.699108
 42
0.027669
  0
VERTEX
  8
0
 10
125.246848
 20
62.292517
 42
0.022321
  0
VERTEX
  8
0
 10
127.455277
 20
60.995032
 42
0.022861
  0
VERTEX
  8
0
 10
129.607407
 20
59.979641
 42
0.052468
  0
VERTEX
  8
0
 10
131.322320
 20
59.467355
 42
-0.021934
  0
VERTEX
  8
0
 10
132.731375
 20
59.138464
 42
-0.033086
  0
VERTEX
  8
0
 10
133.919681
 20
58.719029
 42
-0.034966
  0
VERTEX
  8
0
 10
134.782607
 20
58.274848
 42
-0.262150
  0
VERTEX
  8
0
 10
135.000000
 20
57.888709
 42
0.238210
  0
VERTEX
  8
0
 10
135.172108
 20
57.547955
 42
0.070064
  0
VERTEX
  8
0
 10
135.702947
 20
57.261058
 42
0.053634
  0
VERTEX
  8
0
 10
136.476476
 20
57.064842
 42
0.035329
  0
VERTEX
  8
0
 10
137.393011
 20
57.000000
 42
-0.058092
  0
VERTEX
  8
0
 10
138.350960
 20
56.888325
 42
-0.059009
  0
VERTEX
  8
0
 10
139.252159
 20
56.559375
 42
-0.065064
  0
VERTEX
  8
0
 10
139.964910
 20
56.074042
 42
-0.119725
  0
VERTEX
  8
0
 10
140.361626
 20
55.500000
 42
0.109457
  0
VERTEX
  8
0
 10
140.741193
 20
54.926249
 42
0.066316
  0
VERTEX
  8
0
 10
141.399111
 20
54.440625
 42
0.061548
  0
VERTEX
  8
0
 10
142.220995
 20
54.111900
 42
0.064473
  0
VERTEX
  8
0
 10
143.085192
 20
54.000000
 42
0.051610
  0
VERTEX
  8
0
 10
144.173145
 20
54.112599
 42
0.197831
  0
VERTEX
  8
0
 10
144.724970
 20
54.487597
 42
0.162081
  0
VERTEX
  8
0
 10
144.915923
 20
55.199859
 42
0.032374
  0
VERTEX
  8
0
 10
144.750687
 20
56.523867
 42
-0.034573
  0
VERTEX
  8
0
 10
144.629694
 20
57.529283
 42
-0.043863
  0
VERTEX
  8
0
 10
144.664299
 20
58.463549
 42
-0.050100
  0
VERTEX
  8
0
 10
144.833760
 20
59.204612
 42
-0.174824
  0
VERTEX
  8
0
 10
145.134109
 20
59.582884
 42
0.128704
  0
VERTEX
  8
0
 10
145.466954
 20
59.932225
 42
0.046000
  0
VERTEX
  8
0
 10
145.745645
 20
60.567716
 42
0.041909
  0
VERTEX
  8
0
 10
145.936038
 20
61.353962
 42
0.038472
  0
VERTEX
  8
0
 10
146.000000
 20
62.184017
 42
0.059026
  0
VERTEX
  8
0
 10
145.873328
 20
63.253309
 42
0.221830
  0
VERTEX
  8
0
 10
145.463335
 20
63.768247
 42
0.144084
  0
VERTEX
  8
0
 10
144.664074
 20
63.910051
 42
0.021701
  0
VERTEX
  8
0
 10
143.038773
 20
63.657755
 42
-0.030374
  0
VERTEX
  8
0
 10
141.864699
 20
63.496293
 42
-0.040176
  0
VERTEX
  8
0
 10
140.785774
 20
63.501010
 42
-0.045189
  0
VERTEX
  8
0
 10
139.935068
 20
63.651418
 42
-0.190224
  0
VERTEX
  8
0
 10
139.527306
 20
63.955818
 42
0.130602
  0
VERTEX
  8
0
 10
139.117197
 20
64.343650
 42
0.025156
  0
VERTEX
  8
0
 10
138.187379
 20
64.789885
 42
0.025234
  0
VERTEX
  8
0
 10
137.018735
 20
65.212099
 42
0.020929
  0
VERTEX
  8
0
 10
135.738532
 20
65.544974
 42
-0.014250
  0
VERTEX
  8
0
 10
134.246864
 20
65.911641
 42
-0.007597
  0
VERTEX
  8
0
 10
132.423194
 20
66.445386
 42
-0.007556
  0
VERTEX
  8
0
 10
130.575638
 20
67.047474
 42
-0.011668
  0
VERTEX
  8
0
 10
129.000000
 20
67.628846
 42
-0.028903
  0
VERTEX
  8
0
 10
126.838967
 20
68.632006
 42
-0.164776
  0
VERTEX
  8
0
 10
125.986404
 20
69.543898
 42
-0.112089
  0
VERTEX
  8
0
 10
125.695821
 20
70.963368
 42
-0.010223
  0
VERTEX
  8
0
 10
125.847447
 20
74.591400
 42
0.035952
  0
VERTEX
  8
0
 10
125.795158
 20
80.004614
 42
0.046170
  0
VERTEX
  8
0
 10
124.934457
 20
84.906730
 42
0.052807
  0
VERTEX
  8
0
 10
123.367093
 20
88.928696
 42
0.096138
  0
VERTEX
  8
0
 10
121.188681
 20
91.685119
 42
0.012733
  0
VERTEX
  8
0
 10
120.104207
 20
92.570813
 42
0.016781
  0
VERTEX
  8
0
 10
119.069487
 20
93.318637
 42
0.014260
  0
VERTEX
  8
0
 10
118.181250
 20
93.880157
 42
0.134195
  0
VERTEX
  8
0
 10
117.750000
 20
93.998779
 42
-0.188318
  0
VERTEX
  8
0
 10
117.463622
 20
94.111143
 42
-0.088886
  0
VERTEX
  8
0
 10
117.220313
 20
94.432996
 42
-0.068787
  0
VERTEX
  8
0
 10
117.055310
 20
94.910599
 42
-0.048860
  0
VERTEX
  8
0
 10
117.000000
 20
95.475249
 42
-0.102778
  0
VERTEX
  8
0
 10
117.140041
 20
96.149329
 42
-0.250276
  0
VERTEX
  8
0
 10
117.525544
 20
96.455151
 42
-0.117741
  0
VERTEX
  8
0
 10
118.255372
 20
96.415530
 42
-0.018673
  0
VERTEX
  8
0
 10
119.623395
 20
95.953085
 42
0.091157
  0
VERTEX
  8
0
 10
123.114811
 20
95.312304
 42
0.090302
  0
VERTEX
  8
0
 10
126.618216
 20
95.951322
 42
0.070402
  0
VERTEX
  8
0
 10
130.343349
 20
97.991707
 42
0.032947
  0
VERTEX
  8
0
 10
134.531277
 20
101.573499
 42
0.007906
  0
VERTEX
  8
0
 10
136.626716
 20
103.685038
 42
0.011637
  0
VERTEX
  8
0
 10
138.393563
 20
105.610428
 42
0.007061
  0
VERTEX
  8
0
 10
139.800051
 20
107.263121
 42
0.174481
  0
VERTEX
  8
0
 10
140.000000
 20
107.818659
 42
-0.365294
  0
VERTEX
  8
0
 10
140.700948
 20
108.650064
 42
-0.012408
  0
VERTEX
  8
0
 10
145.253141
 20
109.315008
 42
-0.020525
  0
VERTEX
  8
0
 10
149.841834
 20
109.679126
 42
-0.074020
  0
VERTEX
  8
0
 10
152.750000
 20
109.359023
 42
-0.054113
  0
VERTEX
  8
0
 10
153.610523
 20
109.029685
 42
-0.061810
  0
VERTEX
  8
0
 10
154.339063
 20
108.534357
 42
-0.071349
  0
VERTEX
  8
0
 10
154.833556
 20
107.956453
 42
-0.142278
  0
VERTEX
  8
0
 10
155.000000
 20
107.383369
 42
0.143115
  0
VERTEX
  8
0
 10
155.154154
 20
106.855833
 42
0.099595
  0
VERTEX
  8
0
 10
155.587500
 20
106.406365
 42
0.084175
  0
VERTEX
  8
0
 10
156.235510
 20
106.103532
 42
0.067406
  0
VERTEX
  8
0
 10
157.000000
 20
106.000000
 42
0.075780
  0
VERTEX
  8
0
 10
157.935258
 20
106.142566
 42
0.149477
  0
VERTEX
  8
0
 10
158.550000
 20
106.562500
 42
0.124434
  0
VERTEX
  8
0
 10
158.893532
 20
107.317234
 42
0.044917
  0
VERTEX
  8
0
 10
159.000000
 20
108.500000
 42
-0.038131
  0
VERTEX
  8
0
 10
159.073116
 20
109.457356
 42
-0.057076
  0
VERTEX
  8
0
 10
159.293750
 20
110.265625
 42
-0.074992
  0
VERTEX
  8
0
 10
159.617064
 20
110.817169
 42
-0.226478
  0
VERTEX
  8
0
 10
160.000000
 20
111.000000
 42
0.191087
  0
VERTEX
  8
0
 10
160.381882
 20
111.151477
 42
0.088204
  0
VERTEX
  8
0
 10
160.706250
 20
111.587500
 42
0.068025
  0
VERTEX
  8
0
 10
160.926307
 20
112.234582
 42
0.048028
  0
VERTEX
  8
0
 10
161.000000
 20
113.000000
 42
0.035672
  0
VERTEX
  8
0
 10
160.945252
 20
113.766404
 42
0.053850
  0
VERTEX
  8
0
 10
160.779687
 20
114.414201
 42
0.070160
  0
VERTEX
  8
0
 10
160.537554
 20
114.859631
 42
0.235481
  0
VERTEX
  8
0
 10
160.250000
 20
115.005792
 42
-0.032783
  0
VERTEX
  8
0
 10
159.735287
 20
115.043570
 42
-0.001536
  0
VERTEX
  8
0
 10
158.009126
 20
115.290132
 42
-0.002531
  0
VERTEX
  8
0
 10
155.960842
 20
115.599726
 42
-0.001815
  0
VERTEX
  8
0
 10
153.674684
 20
115.965624
 42
0.031329
  0
VERTEX
  8
0
 10
149.601108
 20
116.373097
 42
0.032170
  0
VERTEX
  8
0
 10
145.544847
 20
116.262503
 42
0.028626
  0
VERTEX
  8
0
 10
141.141974
 20
115.602420
 42
0.017123
  0
VERTEX
  8
0
 10
136.000000
 20
114.342497
 42
-0.004493
  0
VERTEX
  8
0
 10
134.361898
 20
113.896978
 42
-0.311052
  0
VERTEX
  8
0
 10
134.106819
 20
113.989099
 42
-0.360804
  0
VERTEX
  8
0
 10
134.124795
 20
114.240304
 42
-0.005197
  0
VERTEX
  8
0
 10
135.250000
 20
115.390617
 42
0.112822
  0
VERTEX
  8
0
 10
136.383351
 20
117.198079
 42
0.060862
  0
VERTEX
  8
0
 10
136.943800
 20
119.779420
 42
0.063515
  0
VERTEX
  8
0
 10
136.859417
 20
122.214658
 42
0.217256
  0
VERTEX
  8
0
 10
136.000000
 20
123.500000
 42
-0.175392
  0
VERTEX
  8
0
 10
135.142819
 20
124.582017
 42
-0.122651
  0
VERTEX
  8
0
 10
135.019445
 20
126.147722
 42
-0.135502
  0
VERTEX
  8
0
 10
135.638561
 20
127.480704
 42
-0.221354
  0
VERTEX
  8
0
 10
136.750000
 20
127.991693
 42
-0.025985
  0
VERTEX
  8
0
 10
137.908831
 20
127.925911
 42
-0.001733
  0
VERTEX
  8
0
 10
141.217187
 20
127.553377
 42
-0.002496
  0
VERTEX
  8
0
 10
145.159154
 20
127.075694
 42
-0.001865
  0
VERTEX
  8
0
 10
149.500000
 20
126.511216
 42
0.016922
  0
VERTEX
  8
0
 10
158.432641
 20
125.622151
 42
0.011662
  0
VERTEX
  8
0
 10
168.593625
 20
125.194727
 42
0.010839
  0
VERTEX
  8
0
 10
177.955350
 20
125.222432
 42
0.046269
  0
VERTEX
  8
0
 10
183.500000
 20
125.874746
 42
0.043313
  0
VERTEX
  8
0
 10
184.841398
 20
126.284042
 42
0.077222
  0
VERTEX
  8
0
 10
185.830714
 20
126.872858
 42
0.092718
  0
VERTEX
  8
0
 10
186.475991
 20
127.646959
 42
0.092181
  0
VERTEX
  8
0
 10
186.799513
 20
128.603521
 42
0.270190
  0
VERTEX
  8
0
 10
186.312510
 20
129.803675
 42
0.125655
  0
VERTEX
  8
0
 10
184.714507
 20
130.493540
 42
0.028785
  0
VERTEX
  8
0
 10
180.956447
 20
130.870537
 42
0.001798
  0
VERTEX
  8
0
 10
169.799513
 20
131.304010
 42
-0.005351
  0
VERTEX
  8
0
 10
162.884363
 20
131.621902
 42
-0.006502
  0
VERTEX
  8
0
 10
156.413685
 20
132.073271
 42
-0.005556
  0
VERTEX
  8
0
 10
150.988582
 20
132.583416
 42
-0.044344
  0
VERTEX
  8
0
 10
148.523671
 20
133.066416
 42
0.030061
  0
VERTEX
  8
0
 10
146.515511
 20
133.519747
 42
0.011226
  0
VERTEX
  8
0
 10
143.652186
 20
133.921696
 42
0.011076
  0
VERTEX
  8
0
 10
140.504271
 20
134.221222
 42
0.013179
  0
VERTEX
  8
0
 10
137.523671
 20
134.359496
 42
0.000000
  0
VERTEX
  8
0
 10
130.500000
 20
134.500000
 42
0.000000
  0
VERTEX
  8
0
 10
130.422505
 20
137.500000
 42
0.011067
  0
VERTEX
  8
0
 10
130.346723
 20
139.078951
 42
0.003148
  0
VERTEX
  8
0
 10
130.159274
 20
141.528125
 42
0.003169
  0
VERTEX
  8
0
 10
129.912632
 20
144.291412
 42
0.003352
  0
VERTEX
  8
0
 10
129.635223
 20
147.000000
 42
-0.005346
  0
VERTEX
  8
0
 10
128.468409
 20
158.858971
 42
-0.009219
  0
VERTEX
  8
0
 10
127.785195
 20
168.752709
 42
-0.010928
  0
VERTEX
  8
0
 10
127.542071
 20
177.235606
 42
-0.015696
  0
VERTEX
  8
0
 10
127.726912
 20
184.750000
 42
0.003229
  0
VERTEX
  8
0
 10
128.048968
 20
191.247550
 42
0.046162
  0
VERTEX
  8
0
 10
127.935085
 20
193.560793
 42
0.181595
  0
VERTEX
  8
0
 10
127.371832
 20
194.590045
 42
0.179593
  0
VERTEX
  8
0
 10
126.267302
 20
195.000000
 42
0.089066
  0
VERTEX
  8
0
 10
125.388026
 20
194.842121
 42
0.083255
  0
VERTEX
  8
0
 10
124.595347
 20
194.386733
 42
0.078359
  0
VERTEX
  8
0
 10
123.957099
 20
193.668956
 42
0.066732
  0
SEQEND
  0
POLYLINE
  8
0
 66
1
 70
1
  0
VERTEX
  8
0
 10
133.000000
 20
113.077648
 42
-0.133631
  0
VERTEX
  8
0
 10
132.885056
 20
112.655249
 42
-0.008994
  0
VERTEX
  8
0
 10
132.226277
 20
111.579222
 42
-0.012418
  0
VERTEX
  8
0
 10
131.375012
 20
110.313830
 42
-0.008961
  0
VERTEX
  8
0
 10
130.366049
 20
108.944280
 42
-0.012449
  0
VERTEX
  8
0
 10
129.387841
 20
107.729060
 42
-0.047436
  0
VERTEX
  8
0
 10
128.692044
 20
107.049845
 42
-0.368780
  0
VERTEX
  8
0
 10
128.436638
 20
107.057017
 42
-0.300944
  0
VERTEX
  8
0
 10
128.366049
 20
107.331787
 42
0.034471
  0
VERTEX
  8
0
 10
128.609731
 20
108.232331
 42
0.015010
  0
VERTEX
  8
0
 10
128.813777
 20
109.455212
 42
0.014771
  0
VERTEX
  8
0
 10
128.953642
 20
110.772572
 42
0.019061
  0
VERTEX
  8
0
 10
129.000000
 20
111.988168
 42
-0.025729
  0
VERTEX
  8
0
 10
129.076505
 20
113.473915
 42
-0.154336
  0
VERTEX
  8
0
 10
129.380726
 20
114.175501
 42
-0.222615
  0
VERTEX
  8
0
 10
129.963710
 20
114.433966
 42
-0.058818
  0
VERTEX
  8
0
 10
131.000000
 20
114.289749
 42
-0.030296
  0
VERTEX
  8
0
 10
131.765840
 20
114.039056
 42
-0.042008
  0
VERTEX
  8
0
 10
132.412500
 20
113.717952
 42
-0.048498
  0
VERTEX
  8
0
 10
132.867237
 20
113.378124
 42
-0.211079
  0
SEQEND
  0
ENDSEC
  0
EOF
