  0
SECTION
  2
HEADER
  9
$ACADVER
  1
AC1006
  9
$EXTMIN
 10
0.000000
 20
0.000000
 30
0.000000
  9
$EXTMAX
 10
473.000000
 20
180.000000
 30
0.000000
  0
ENDSEC
  0
SECTION
  2
ENTITIES
  0
POLYLINE
  8
0
 66
1
 70
1
  0
VERTEX
  8
0
 10
0.000000
 20
167.000000
 42
0.000000
  0
VERTEX
  8
0
 10
0.000000
 20
154.000000
 42
0.000000
  0
VERTEX
  8
0
 10
55.800000
 20
154.000000
 42
-0.001000
  0
VERTEX
  8
0
 10
83.307893
 20
153.945002
 42
-0.004263
  0
VERTEX
  8
0
 10
99.735753
 20
153.739247
 42
-0.002026
  0
VERTEX
  8
0
 10
111.295531
 20
153.449022
 42
-0.191347
  0
VERTEX
  8
0
 10
112.800000
 20
152.800000
 42
-0.156129
  0
VERTEX
  8
0
 10
113.341848
 20
151.748035
 42
-0.017546
  0
VERTEX
  8
0
 10
113.696903
 20
149.048931
 42
-0.016824
  0
VERTEX
  8
0
 10
113.928689
 20
145.318912
 42
-0.007104
  0
VERTEX
  8
0
 10
114.000000
 20
140.300000
 42
0.000000
  0
VERTEX
  8
0
 10
114.000000
 20
129.000000
 42
0.000000
  0
VERTEX
  8
0
 10
58.500000
 20
129.000000
 42
0.000000
  0
VERTEX
  8
0
 10
3.000000
 20
129.000000
 42
0.000000
  0
VERTEX
  8
0
 10
3.000000
 20
115.500000
 42
0.000000
  0
VERTEX
  8
0
 10
3.000000
 20
102.000000
 42
0.000000
  0
VERTEX
  8
0
 10
58.500000
 20
102.000000
 42
0.000000
  0
VERTEX
  8
0
 10
114.000000
 20
102.000000
 42
0.000000
  0
VERTEX
  8
0
 10
114.000000
 20
90.500000
 42
0.000000
  0
VERTEX
  8
0
 10
114.000000
 20
79.000000
 42
0.000000
  0
VERTEX
  8
0
 10
59.000000
 20
79.000000
 42
0.000000
  0
VERTEX
  8
0
 10
4.000000
 20
79.000000
 42
0.000000
  0
VERTEX
  8
0
 10
4.000000
 20
65.500000
 42
0.000000
  0
VERTEX
  8
0
 10
4.000000
 20
52.000000
 42
0.000000
  0
VERTEX
  8
0
 10
55.750000
 20
51.790501
 42
-0.000049
  0
VERTEX
  8
0
 10
75.818087
 20
51.707280
 42
-0.000075
  0
VERTEX
  8
0
 10
93.253318
 20
51.630645
 42
-0.000026
  0
VERTEX
  8
0
 10
108.301942
 20
51.561449
 42
-0.001952
  0
VERTEX
  8
0
 10
110.750656
 20
51.540501
 42
0.000000
  0
VERTEX
  8
0
 10
114.001312
 20
51.500000
 42
0.000000
  0
VERTEX
  8
0
 10
114.000656
 20
41.424314
 42
-0.005461
  0
VERTEX
  8
0
 10
113.934547
 20
35.407513
 42
-0.041243
  0
VERTEX
  8
0
 10
113.638688
 20
32.582472
 42
-0.085883
  0
VERTEX
  8
0
 10
112.962706
 20
30.776335
 42
-0.071907
  0
VERTEX
  8
0
 10
111.685549
 20
29.174314
 42
0.000000
  0
VERTEX
  8
0
 10
109.371098
 20
27.000000
 42
0.000000
  0
VERTEX
  8
0
 10
56.185549
 20
27.000000
 42
0.000000
  0
VERTEX
  8
0
 10
3.000000
 20
27.000000
 42
0.000000
  0
VERTEX
  8
0
 10
3.000000
 20
14.038943
 42
0.000000
  0
VERTEX
  8
0
 10
3.000000
 20
1.077886
 42
0.000000
  0
VERTEX
  8
0
 10
59.750000
 20
0.788943
 42
0.000661
  0
VERTEX
  8
0
 10
83.660999
 20
0.698799
 42
0.000584
  0
VERTEX
  8
0
 10
108.577797
 20
0.666892
 42
0.000586
  0
VERTEX
  8
0
 10
131.029850
 20
0.690689
 42
0.001786
  0
VERTEX
  8
0
 10
146.280797
 20
0.779200
 42
0.000000
  0
VERTEX
  8
0
 10
176.061595
 20
1.058401
 42
0.000000
  0
VERTEX
  8
0
 10
175.780797
 20
28.529843
 42
0.000000
  0
VERTEX
  8
0
 10
175.500000
 20
56.001286
 42
0.000000
  0
VERTEX
  8
0
 10
324.250000
 20
56.000643
 42
0.000000
  0
VERTEX
  8
0
 10
473.000000
 20
56.000000
 42
0.000000
  0
VERTEX
  8
0
 10
473.000000
 20
84.000000
 42
0.000000
  0
VERTEX
  8
0
 10
473.000000
 20
112.000000
 42
0.000000
  0
VERTEX
  8
0
 10
324.500000
 20
112.000000
 42
0.000000
  0
VERTEX
  8
0
 10
176.000000
 20
112.000000
 42
0.000000
  0
VERTEX
  8
0
 10
176.000000
 20
145.337370
 42
0.000000
  0
VERTEX
  8
0
 10
176.000000
 20
178.674739
 42
0.000000
  0
VERTEX
  8
0
 10
135.336115
 20
179.337370
 42
0.001441
  0
VERTEX
  8
0
 10
116.372098
 20
179.591717
 42
0.000750
  0
VERTEX
  8
0
 10
92.712263
 20
179.805352
 42
0.000745
  0
VERTEX
  8
0
 10
68.419972
 20
179.952054
 42
0.001137
  0
VERTEX
  8
0
 10
47.336115
 20
180.000000
 42
0.000000
  0
VERTEX
  8
0
 10
0.000000
 20
180.000000
 42
0.000000
  0
SEQEND
  0
ENDSEC
  0
EOF
