  0
SECTION
  2
HEADER
  9
$ACADVER
  1
AC1006
  9
$EXTMIN
 10
0.000000
 20
0.000000
 30
0.000000
  9
$EXTMAX
 10
159.000000
 20
379.000000
 30
0.000000
  0
ENDSEC
  0
SECTION
  2
ENTITIES
  0
POLYLINE
  8
0
 66
1
 70
1
  0
VERTEX
  8
0
 10
135.325494
 20
377.515431
 42
0.112465
  0
VERTEX
  8
0
 10
134.179785
 20
376.250026
 42
0.022512
  0
VERTEX
  8
0
 10
132.800978
 20
373.513948
 42
0.018917
  0
VERTEX
  8
0
 10
131.240866
 20
369.652241
 42
0.008368
  0
VERTEX
  8
0
 10
129.461230
 20
364.446087
 42
-0.009195
  0
VERTEX
  8
0
 10
127.844174
 20
359.741001
 42
-0.009705
  0
VERTEX
  8
0
 10
126.082452
 20
355.183147
 42
-0.009391
  0
VERTEX
  8
0
 10
124.415819
 20
351.317162
 42
-0.042684
  0
VERTEX
  8
0
 10
123.217584
 20
349.180656
 42
0.014667
  0
VERTEX
  8
0
 10
122.203338
 20
347.588187
 42
0.012367
  0
VERTEX
  8
0
 10
121.222308
 20
345.846818
 42
0.012548
  0
VERTEX
  8
0
 10
120.406153
 20
344.212763
 42
0.033533
  0
VERTEX
  8
0
 10
119.934253
 20
343.000000
 42
-0.007796
  0
VERTEX
  8
0
 10
119.497869
 20
341.681550
 42
-0.002151
  0
VERTEX
  8
0
 10
118.770745
 20
339.622897
 42
-0.002172
  0
VERTEX
  8
0
 10
117.926821
 20
337.297772
 42
-0.002270
  0
VERTEX
  8
0
 10
117.074912
 20
335.014117
 42
0.011047
  0
VERTEX
  8
0
 10
116.280608
 20
332.765103
 42
0.011998
  0
VERTEX
  8
0
 10
115.609505
 20
330.543918
 42
0.011541
  0
VERTEX
  8
0
 10
115.125394
 20
328.618627
 42
0.055873
  0
VERTEX
  8
0
 10
115.000000
 20
327.500000
 42
-0.055540
  0
VERTEX
  8
0
 10
114.875355
 20
326.381334
 42
-0.011481
  0
VERTEX
  8
0
 10
114.394219
 20
324.456082
 42
-0.011936
  0
VERTEX
  8
0
 10
113.727219
 20
322.234897
 42
-0.010995
  0
VERTEX
  8
0
 10
112.937768
 20
319.985883
 42
0.004518
  0
VERTEX
  8
0
 10
112.036879
 20
317.522003
 42
0.002886
  0
VERTEX
  8
0
 10
111.032182
 20
314.642728
 42
0.002899
  0
VERTEX
  8
0
 10
110.079980
 20
311.808917
 42
0.005400
  0
VERTEX
  8
0
 10
109.346567
 20
309.500000
 42
-0.002824
  0
VERTEX
  8
0
 10
108.585421
 20
307.060287
 42
-0.001166
  0
VERTEX
  8
0
 10
107.528619
 20
303.765625
 42
-0.001154
  0
VERTEX
  8
0
 10
106.378860
 20
300.237520
 42
-0.001484
  0
VERTEX
  8
0
 10
105.304872
 20
297.000000
 42
0.006860
  0
VERTEX
  8
0
 10
104.326056
 20
293.939668
 42
0.007525
  0
VERTEX
  8
0
 10
103.462725
 20
290.946241
 42
0.007090
  0
VERTEX
  8
0
 10
102.800086
 20
288.367920
 42
0.037114
  0
VERTEX
  8
0
 10
102.562242
 20
286.923374
 42
-0.024407
  0
VERTEX
  8
0
 10
102.411337
 20
285.835188
 42
-0.020271
  0
VERTEX
  8
0
 10
102.148100
 20
284.696258
 42
-0.020746
  0
VERTEX
  8
0
 10
101.820736
 20
283.671332
 42
-0.050776
  0
VERTEX
  8
0
 10
101.475242
 20
282.959940
 42
0.073959
  0
VERTEX
  8
0
 10
100.776609
 20
281.334440
 42
0.009933
  0
VERTEX
  8
0
 10
99.895128
 20
277.707441
 42
0.012198
  0
VERTEX
  8
0
 10
99.102255
 20
273.675082
 42
0.016546
  0
VERTEX
  8
0
 10
98.596675
 20
269.998799
 42
-0.031010
  0
VERTEX
  8
0
 10
98.408913
 20
268.875213
 42
-0.018252
  0
VERTEX
  8
0
 10
98.053340
 20
267.560203
 42
-0.018217
  0
VERTEX
  8
0
 10
97.600287
 20
266.267158
 42
-0.029497
  0
VERTEX
  8
0
 10
97.112133
 20
265.209522
 42
0.034784
  0
VERTEX
  8
0
 10
96.662610
 20
264.207912
 42
0.028980
  0
VERTEX
  8
0
 10
96.323998
 20
263.091043
 42
0.029952
  0
VERTEX
  8
0
 10
96.134458
 20
262.028589
 42
0.067129
  0
VERTEX
  8
0
 10
96.148690
 20
261.210723
 42
-0.068700
  0
VERTEX
  8
0
 10
96.160364
 20
260.392785
 42
-0.030526
  0
VERTEX
  8
0
 10
95.962643
 20
259.330050
 42
-0.029499
  0
VERTEX
  8
0
 10
95.612188
 20
258.212812
 42
-0.035157
  0
VERTEX
  8
0
 10
95.148690
 20
257.210723
 42
0.035157
  0
VERTEX
  8
0
 10
94.685192
 20
256.208634
 42
0.029499
  0
VERTEX
  8
0
 10
94.334737
 20
255.091396
 42
0.030526
  0
VERTEX
  8
0
 10
94.137016
 20
254.028661
 42
0.068700
  0
VERTEX
  8
0
 10
94.148690
 20
253.210723
 42
-0.069799
  0
VERTEX
  8
0
 10
94.158616
 20
252.389328
 42
-0.030322
  0
VERTEX
  8
0
 10
93.954175
 20
251.314227
 42
-0.029272
  0
VERTEX
  8
0
 10
93.594381
 20
250.179579
 42
-0.034424
  0
VERTEX
  8
0
 10
93.119863
 20
249.156859
 42
0.054031
  0
VERTEX
  8
0
 10
92.670826
 20
248.080650
 42
0.036798
  0
VERTEX
  8
0
 10
92.389220
 20
246.783376
 42
0.037057
  0
VERTEX
  8
0
 10
92.302589
 20
245.474969
 42
0.059555
  0
VERTEX
  8
0
 10
92.443953
 20
244.367284
 42
-0.060055
  0
VERTEX
  8
0
 10
92.589533
 20
243.217457
 42
-0.050318
  0
VERTEX
  8
0
 10
92.473355
 20
241.992734
 42
-0.049619
  0
VERTEX
  8
0
 10
92.111328
 20
240.798269
 42
-0.054446
  0
VERTEX
  8
0
 10
91.528985
 20
239.737919
 42
0.026214
  0
VERTEX
  8
0
 10
90.943780
 20
238.801587
 42
0.024947
  0
VERTEX
  8
0
 10
90.449139
 20
237.793855
 42
0.025778
  0
VERTEX
  8
0
 10
90.103156
 20
236.860168
 42
0.075977
  0
VERTEX
  8
0
 10
90.000000
 20
236.185223
 42
-0.094095
  0
VERTEX
  8
0
 10
89.867552
 20
235.487657
 42
-0.025134
  0
VERTEX
  8
0
 10
89.398930
 20
234.453690
 42
-0.024555
  0
VERTEX
  8
0
 10
88.736992
 20
233.310596
 42
-0.023136
  0
VERTEX
  8
0
 10
87.953803
 20
232.214141
 42
0.039235
  0
VERTEX
  8
0
 10
87.188883
 20
231.066968
 42
0.035202
  0
VERTEX
  8
0
 10
86.580793
 20
229.772889
 42
0.036967
  0
VERTEX
  8
0
 10
86.202906
 20
228.529313
 42
0.085186
  0
VERTEX
  8
0
 10
86.153108
 20
227.556411
 42
-0.057119
  0
VERTEX
  8
0
 10
86.157590
 20
226.603981
 42
-0.029747
  0
VERTEX
  8
0
 10
85.957688
 20
225.431596
 42
-0.029144
  0
VERTEX
  8
0
 10
85.605841
 20
224.237887
 42
-0.039203
  0
VERTEX
  8
0
 10
85.143101
 20
223.210723
 42
0.035098
  0
VERTEX
  8
0
 10
84.681739
 20
222.208637
 42
0.029418
  0
VERTEX
  8
0
 10
84.333095
 20
221.091396
 42
0.030436
  0
VERTEX
  8
0
 10
84.136624
 20
220.028662
 42
0.068459
  0
VERTEX
  8
0
 10
84.148690
 20
219.210723
 42
-0.068700
  0
VERTEX
  8
0
 10
84.160364
 20
218.392785
 42
-0.030526
  0
VERTEX
  8
0
 10
83.962643
 20
217.330050
 42
-0.029499
  0
VERTEX
  8
0
 10
83.612188
 20
216.212812
 42
-0.035157
  0
VERTEX
  8
0
 10
83.148690
 20
215.210723
 42
0.035157
  0
VERTEX
  8
0
 10
82.685192
 20
214.208634
 42
0.029499
  0
VERTEX
  8
0
 10
82.334737
 20
213.091396
 42
0.030526
  0
VERTEX
  8
0
 10
82.137016
 20
212.028661
 42
0.068700
  0
VERTEX
  8
0
 10
82.148690
 20
211.210723
 42
-0.069799
  0
VERTEX
  8
0
 10
82.158616
 20
210.389328
 42
-0.030322
  0
VERTEX
  8
0
 10
81.954175
 20
209.314227
 42
-0.029272
  0
VERTEX
  8
0
 10
81.594381
 20
208.179579
 42
-0.034424
  0
VERTEX
  8
0
 10
81.119863
 20
207.156859
 42
0.053375
  0
VERTEX
  8
0
 10
80.670225
 20
206.083164
 42
0.036742
  0
VERTEX
  8
0
 10
80.386628
 20
204.793704
 42
0.037064
  0
VERTEX
  8
0
 10
80.297058
 20
203.496582
 42
0.060261
  0
VERTEX
  8
0
 10
80.435129
 20
202.402444
 42
-0.063992
  0
VERTEX
  8
0
 10
80.571426
 20
201.253682
 42
-0.047939
  0
VERTEX
  8
0
 10
80.437095
 20
199.985390
 42
-0.046201
  0
VERTEX
  8
0
 10
80.052889
 20
198.714889
 42
-0.048549
  0
VERTEX
  8
0
 10
79.446588
 20
197.558827
 42
0.037200
  0
VERTEX
  8
0
 10
78.857177
 20
196.494320
 42
0.032734
  0
VERTEX
  8
0
 10
78.402814
 20
195.308345
 42
0.034179
  0
VERTEX
  8
0
 10
78.136254
 20
194.180514
 42
0.079200
  0
VERTEX
  8
0
 10
78.131322
 20
193.313242
 42
-0.065975
  0
VERTEX
  8
0
 10
78.149021
 20
192.455195
 42
-0.030999
  0
VERTEX
  8
0
 10
77.957541
 20
191.360165
 42
-0.030052
  0
VERTEX
  8
0
 10
77.610956
 20
190.220302
 42
-0.037079
  0
VERTEX
  8
0
 10
77.148690
 20
189.210723
 42
0.035157
  0
VERTEX
  8
0
 10
76.685192
 20
188.208634
 42
0.029499
  0
VERTEX
  8
0
 10
76.334737
 20
187.091396
 42
0.030526
  0
VERTEX
  8
0
 10
76.137016
 20
186.028661
 42
0.068700
  0
VERTEX
  8
0
 10
76.148690
 20
185.210723
 42
-0.068700
  0
VERTEX
  8
0
 10
76.160364
 20
184.392785
 42
-0.030526
  0
VERTEX
  8
0
 10
75.962643
 20
183.330050
 42
-0.029499
  0
VERTEX
  8
0
 10
75.612188
 20
182.212812
 42
-0.035157
  0
VERTEX
  8
0
 10
75.148690
 20
181.210723
 42
0.035157
  0
VERTEX
  8
0
 10
74.685192
 20
180.208634
 42
0.029499
  0
VERTEX
  8
0
 10
74.334737
 20
179.091396
 42
0.030526
  0
VERTEX
  8
0
 10
74.137016
 20
178.028661
 42
0.068700
  0
VERTEX
  8
0
 10
74.148690
 20
177.210723
 42
-0.061296
  0
VERTEX
  8
0
 10
74.171880
 20
176.411790
 42
-0.030967
  0
VERTEX
  8
0
 10
74.015790
 20
175.415025
 42
-0.030208
  0
VERTEX
  8
0
 10
73.723992
 20
174.391195
 42
-0.039310
  0
VERTEX
  8
0
 10
73.329615
 20
173.500000
 42
0.079050
  0
VERTEX
  8
0
 10
72.920825
 20
172.334842
 42
0.017384
  0
VERTEX
  8
0
 10
72.613667
 20
170.229769
 42
0.017673
  0
VERTEX
  8
0
 10
72.427400
 20
167.743643
 42
0.016175
  0
VERTEX
  8
0
 10
72.409184
 20
165.175808
 42
-0.009961
  0
VERTEX
  8
0
 10
72.422264
 20
162.722555
 42
-0.015051
  0
VERTEX
  8
0
 10
72.326838
 20
160.588729
 42
-0.009741
  0
VERTEX
  8
0
 10
72.162145
 20
158.846925
 42
-0.229788
  0
VERTEX
  8
0
 10
71.904537
 20
158.441000
 42
0.168763
  0
VERTEX
  8
0
 10
71.300358
 20
157.698200
 42
0.004941
  0
VERTEX
  8
0
 10
69.938134
 20
153.829900
 42
0.010702
  0
VERTEX
  8
0
 10
68.633586
 20
149.719245
 42
0.015084
  0
VERTEX
  8
0
 10
67.661152
 20
146.000000
 42
-0.052557
  0
VERTEX
  8
0
 10
67.233782
 20
144.754677
 42
-0.131609
  0
VERTEX
  8
0
 10
66.621693
 20
144.024011
 42
-0.120425
  0
VERTEX
  8
0
 10
65.688413
 20
143.659802
 42
-0.040415
  0
VERTEX
  8
0
 10
64.217108
 20
143.583832
 42
-0.024926
  0
VERTEX
  8
0
 10
63.016437
 20
143.678931
 42
-0.022164
  0
VERTEX
  8
0
 10
61.782542
 20
143.894810
 42
-0.022775
  0
VERTEX
  8
0
 10
60.689649
 20
144.189134
 42
-0.061318
  0
VERTEX
  8
0
 10
59.959940
 20
144.524758
 42
0.072192
  0
VERTEX
  8
0
 10
58.427931
 20
145.189600
 42
0.013099
  0
VERTEX
  8
0
 10
55.409070
 20
145.925524
 42
0.009695
  0
VERTEX
  8
0
 10
50.889685
 20
146.811229
 42
0.002713
  0
VERTEX
  8
0
 10
43.791126
 20
148.020326
 42
0.020970
  0
VERTEX
  8
0
 10
40.202736
 20
148.457926
 42
0.071361
  0
VERTEX
  8
0
 10
37.857906
 20
148.309850
 42
0.055458
  0
VERTEX
  8
0
 10
35.356298
 20
147.490966
 42
0.009272
  0
VERTEX
  8
0
 10
30.791126
 20
145.309926
 42
0.020591
  0
VERTEX
  8
0
 10
23.619001
 20
141.341206
 42
0.015003
  0
VERTEX
  8
0
 10
15.978540
 20
136.372537
 42
0.009285
  0
VERTEX
  8
0
 10
9.153046
 20
131.446340
 42
0.160968
  0
VERTEX
  8
0
 10
7.605783
 20
129.222451
 42
0.039615
  0
VERTEX
  8
0
 10
7.357871
 20
128.056352
 42
0.002585
  0
VERTEX
  8
0
 10
6.926639
 20
124.627845
 42
0.003746
  0
VERTEX
  8
0
 10
6.463887
 20
120.530391
 42
0.002785
  0
VERTEX
  8
0
 10
6.012086
 20
116.000000
 42
-0.003126
  0
VERTEX
  8
0
 10
5.522125
 20
111.120622
 42
-0.002646
  0
VERTEX
  8
0
 10
4.944654
 20
105.968750
 42
-0.002668
  0
VERTEX
  8
0
 10
4.368404
 20
101.278653
 42
-0.007465
  0
VERTEX
  8
0
 10
3.897949
 20
98.000000
 42
0.019600
  0
VERTEX
  8
0
 10
3.164788
 20
91.828965
 42
0.004663
  0
VERTEX
  8
0
 10
2.443717
 20
81.505341
 42
0.003221
  0
VERTEX
  8
0
 10
1.615635
 20
66.175737
 42
0.000860
  0
VERTEX
  8
0
 10
0.496841
 20
41.766528
 42
0.000000
  0
VERTEX
  8
0
 10
-0.238983
 20
25.085136
 42
0.000000
  0
VERTEX
  8
0
 10
2.803586
 20
22.042568
 42
0.048345
  0
VERTEX
  8
0
 10
5.288639
 20
19.996642
 42
0.114946
  0
VERTEX
  8
0
 10
7.512500
 20
19.151234
 42
0.131488
  0
VERTEX
  8
0
 10
9.686319
 20
19.428983
 42
0.073156
  0
VERTEX
  8
0
 10
12.000229
 20
20.799102
 42
0.110533
  0
VERTEX
  8
0
 10
13.264365
 20
22.394834
 42
0.074395
  0
VERTEX
  8
0
 10
13.956830
 20
24.623295
 42
0.028366
  0
VERTEX
  8
0
 10
14.336082
 20
28.559833
 42
0.002812
  0
VERTEX
  8
0
 10
14.656051
 20
38.049102
 42
-0.002694
  0
VERTEX
  8
0
 10
15.338529
 20
58.431575
 42
-0.004005
  0
VERTEX
  8
0
 10
16.175059
 20
76.266524
 42
-0.003443
  0
VERTEX
  8
0
 10
17.068808
 20
90.717936
 42
-0.031031
  0
VERTEX
  8
0
 10
17.894543
 20
97.000000
 42
0.010638
  0
VERTEX
  8
0
 10
18.376724
 20
99.784582
 42
0.003760
  0
VERTEX
  8
0
 10
18.952332
 20
103.791833
 42
0.003730
  0
VERTEX
  8
0
 10
19.518922
 20
108.205074
 42
0.004375
  0
VERTEX
  8
0
 10
19.988243
 20
112.397729
 42
-0.006197
  0
VERTEX
  8
0
 10
20.716618
 20
118.696933
 42
-0.054596
  0
VERTEX
  8
0
 10
21.372820
 20
121.418509
 42
-0.092140
  0
VERTEX
  8
0
 10
22.499723
 20
123.344296
 42
-0.032502
  0
VERTEX
  8
0
 10
24.754287
 20
125.631638
 42
-0.020599
  0
VERTEX
  8
0
 10
26.371865
 20
126.957036
 42
-0.019074
  0
VERTEX
  8
0
 10
28.134072
 20
128.181101
 42
-0.019465
  0
VERTEX
  8
0
 10
29.785684
 20
129.148893
 42
-0.058505
  0
VERTEX
  8
0
 10
31.000000
 20
129.625809
 42
0.022904
  0
VERTEX
  8
0
 10
32.215944
 20
130.006158
 42
0.008997
  0
VERTEX
  8
0
 10
33.855485
 20
130.636332
 42
0.008883
  0
VERTEX
  8
0
 10
35.606512
 20
131.382252
 42
0.010956
  0
VERTEX
  8
0
 10
37.210162
 20
132.141900
 42
-0.048801
  0
VERTEX
  8
0
 10
41.267625
 20
133.700601
 42
-0.380635
  0
VERTEX
  8
0
 10
42.938367
 20
132.876672
 42
-0.097003
  0
VERTEX
  8
0
 10
43.554690
 20
129.703447
 42
-0.003198
  0
VERTEX
  8
0
 10
43.451587
 20
116.750000
 42
-0.007600
  0
VERTEX
  8
0
 10
43.103560
 20
104.977715
 42
-0.016405
  0
VERTEX
  8
0
 10
42.401294
 20
95.941703
 42
-0.019344
  0
VERTEX
  8
0
 10
41.204592
 20
87.972623
 42
-0.016304
  0
VERTEX
  8
0
 10
39.339785
 20
79.646882
 42
0.018020
  0
VERTEX
  8
0
 10
38.711845
 20
76.797541
 42
0.010012
  0
VERTEX
  8
0
 10
38.141962
 20
73.285262
 42
0.009975
  0
VERTEX
  8
0
 10
37.706726
 20
69.702225
 42
0.015875
  0
VERTEX
  8
0
 10
37.493295
 20
66.622095
 42
-0.014046
  0
VERTEX
  8
0
 10
37.302088
 20
63.708277
 42
-0.011870
  0
VERTEX
  8
0
 10
36.940412
 20
60.640578
 42
-0.012037
  0
VERTEX
  8
0
 10
36.476619
 20
57.858152
 42
-0.032394
  0
VERTEX
  8
0
 10
35.972878
 20
55.917819
 42
0.020359
  0
VERTEX
  8
0
 10
35.351754
 20
53.741933
 42
0.074986
  0
VERTEX
  8
0
 10
35.226867
 20
52.320883
 42
0.090970
  0
VERTEX
  8
0
 10
35.536608
 20
51.073951
 42
0.038800
  0
VERTEX
  8
0
 10
36.367681
 20
49.561601
 42
0.087765
  0
VERTEX
  8
0
 10
38.151566
 20
47.666284
 42
0.087899
  0
VERTEX
  8
0
 10
40.476485
 20
46.499169
 42
0.088635
  0
VERTEX
  8
0
 10
43.043795
 20
46.207577
 42
0.091205
  0
VERTEX
  8
0
 10
45.525642
 20
46.829730
 42
0.116128
  0
VERTEX
  8
0
 10
48.014580
 20
48.756416
 42
0.075258
  0
VERTEX
  8
0
 10
49.865183
 20
51.910587
 42
0.057260
  0
VERTEX
  8
0
 10
51.064491
 20
56.313010
 42
0.029616
  0
VERTEX
  8
0
 10
51.591209
 20
62.000000
 42
-0.016696
  0
VERTEX
  8
0
 10
51.825417
 20
65.515252
 42
-0.008355
  0
VERTEX
  8
0
 10
52.343882
 20
69.940625
 42
-0.008285
  0
VERTEX
  8
0
 10
53.033596
 20
74.507167
 42
-0.012110
  0
VERTEX
  8
0
 10
53.804356
 20
78.500000
 42
0.010298
  0
VERTEX
  8
0
 10
55.780705
 20
88.542648
 42
0.014046
  0
VERTEX
  8
0
 10
57.119442
 20
97.670511
 42
0.015668
  0
VERTEX
  8
0
 10
57.789510
 20
105.424411
 42
0.039774
  0
VERTEX
  8
0
 10
57.650368
 20
111.070996
 42
-0.018186
  0
VERTEX
  8
0
 10
57.462352
 20
113.840850
 42
-0.008160
  0
VERTEX
  8
0
 10
57.407296
 20
117.489284
 42
-0.008065
  0
VERTEX
  8
0
 10
57.474346
 20
121.351207
 42
-0.010868
  0
VERTEX
  8
0
 10
57.667303
 20
124.841579
 42
0.000000
  0
VERTEX
  8
0
 10
58.285561
 20
132.858999
 42
0.000000
  0
VERTEX
  8
0
 10
60.635496
 20
131.319263
 42
0.050466
  0
VERTEX
  8
0
 10
61.783191
 20
130.722937
 42
0.049114
  0
VERTEX
  8
0
 10
63.037519
 20
130.361981
 42
0.050037
  0
VERTEX
  8
0
 10
64.314724
 20
130.256941
 42
0.057055
  0
VERTEX
  8
0
 10
65.530181
 20
130.418219
 42
-0.055788
  0
VERTEX
  8
0
 10
66.788629
 20
130.588436
 42
-0.022816
  0
VERTEX
  8
0
 10
68.515680
 20
130.549328
 42
-0.022234
  0
VERTEX
  8
0
 10
70.384691
 20
130.337747
 42
-0.026468
  0
VERTEX
  8
0
 10
72.120102
 20
129.967660
 42
0.000000
  0
VERTEX
  8
0
 10
76.165271
 20
128.878409
 42
0.000000
  0
VERTEX
  8
0
 10
75.704929
 20
122.689204
 42
-0.031091
  0
VERTEX
  8
0
 10
74.664693
 20
115.110351
 42
-0.014205
  0
VERTEX
  8
0
 10
72.416040
 20
105.373884
 42
-0.014199
  0
VERTEX
  8
0
 10
69.533697
 20
95.490924
 42
-0.023379
  0
VERTEX
  8
0
 10
66.476462
 20
87.342040
 42
0.052500
  0
VERTEX
  8
0
 10
65.024212
 20
82.660020
 42
0.037987
  0
VERTEX
  8
0
 10
64.370199
 20
77.232645
 42
0.037347
  0
VERTEX
  8
0
 10
64.541468
 20
71.650494
 42
0.044898
  0
VERTEX
  8
0
 10
65.559094
 20
66.500000
 42
-0.023649
  0
VERTEX
  8
0
 10
66.735238
 20
61.641522
 42
-0.032592
  0
VERTEX
  8
0
 10
67.295161
 20
57.187678
 42
-0.033860
  0
VERTEX
  8
0
 10
67.261237
 20
52.835310
 42
-0.028896
  0
VERTEX
  8
0
 10
66.651400
 20
48.286309
 42
0.021424
  0
VERTEX
  8
0
 10
66.285597
 20
45.836108
 42
0.088998
  0
VERTEX
  8
0
 10
66.392952
 20
44.351150
 42
0.101701
  0
VERTEX
  8
0
 10
67.001559
 20
43.098928
 42
0.032584
  0
VERTEX
  8
0
 10
68.372782
 20
41.536309
 42
0.073989
  0
VERTEX
  8
0
 10
70.690362
 20
39.819077
 42
0.104668
  0
VERTEX
  8
0
 10
73.149883
 20
39.108086
 42
0.107484
  0
VERTEX
  8
0
 10
75.637865
 20
39.462034
 42
0.081479
  0
VERTEX
  8
0
 10
78.039649
 20
40.831022
 42
0.082497
  0
VERTEX
  8
0
 10
79.199310
 20
42.138605
 42
0.052800
  0
VERTEX
  8
0
 10
80.094247
 20
43.966044
 42
0.035304
  0
VERTEX
  8
0
 10
80.851567
 20
46.606569
 42
0.011610
  0
VERTEX
  8
0
 10
81.597446
 20
50.581022
 42
0.010995
  0
VERTEX
  8
0
 10
82.708243
 20
58.446234
 42
0.043713
  0
VERTEX
  8
0
 10
82.858932
 20
63.314981
 42
0.069005
  0
VERTEX
  8
0
 10
82.151458
 20
66.911662
 42
0.066305
  0
VERTEX
  8
0
 10
80.487256
 20
70.233566
 42
-0.022113
  0
VERTEX
  8
0
 10
79.149811
 20
72.402181
 42
-0.076177
  0
VERTEX
  8
0
 10
78.575008
 20
73.946342
 42
-0.083515
  0
VERTEX
  8
0
 10
78.515943
 20
75.514448
 42
-0.030030
  0
VERTEX
  8
0
 10
78.937090
 20
77.715701
 42
-0.007629
  0
VERTEX
  8
0
 10
80.232163
 20
82.500385
 42
-0.003945
  0
VERTEX
  8
0
 10
81.989276
 20
88.443098
 42
-0.003597
  0
VERTEX
  8
0
 10
83.747838
 20
94.076756
 42
-0.015838
  0
VERTEX
  8
0
 10
84.913170
 20
97.356107
 42
0.037029
  0
VERTEX
  8
0
 10
85.956204
 20
100.738888
 42
0.005661
  0
VERTEX
  8
0
 10
87.452897
 20
107.634261
 42
0.006832
  0
VERTEX
  8
0
 10
88.840056
 20
114.895709
 42
0.014030
  0
VERTEX
  8
0
 10
89.688335
 20
120.623342
 42
0.000000
  0
VERTEX
  8
0
 10
90.181240
 20
124.746683
 42
0.000000
  0
VERTEX
  8
0
 10
94.340620
 20
123.849469
 42
-0.016456
  0
VERTEX
  8
0
 10
98.344181
 20
122.846949
 42
-0.033548
  0
VERTEX
  8
0
 10
101.392383
 20
121.750338
 42
-0.041099
  0
VERTEX
  8
0
 10
103.444361
 20
120.643781
 42
-0.256566
  0
VERTEX
  8
0
 10
103.988131
 20
119.628680
 42
-0.062297
  0
VERTEX
  8
0
 10
103.634753
 20
117.025971
 42
-0.011949
  0
VERTEX
  8
0
 10
102.300260
 20
112.441759
 42
-0.013524
  0
VERTEX
  8
0
 10
100.658546
 20
107.713975
 42
-0.027838
  0
VERTEX
  8
0
 10
99.072926
 20
104.133831
 42
0.039400
  0
VERTEX
  8
0
 10
95.152077
 20
94.698223
 42
0.029760
  0
VERTEX
  8
0
 10
92.314017
 20
83.836017
 42
0.029391
  0
VERTEX
  8
0
 10
90.918767
 20
73.737599
 42
0.103861
  0
VERTEX
  8
0
 10
91.753003
 20
67.278692
 42
-0.065972
  0
VERTEX
  8
0
 10
92.158817
 20
65.313874
 42
-0.015302
  0
VERTEX
  8
0
 10
92.298494
 20
61.935548
 42
-0.013281
  0
VERTEX
  8
0
 10
92.228390
 20
57.510346
 42
-0.006743
  0
VERTEX
  8
0
 10
91.917330
 20
51.950362
 42
0.004630
  0
VERTEX
  8
0
 10
91.512603
 20
45.225859
 42
0.023351
  0
VERTEX
  8
0
 10
91.496946
 20
41.463451
 42
0.043076
  0
VERTEX
  8
0
 10
91.810832
 20
39.036705
 42
0.091582
  0
VERTEX
  8
0
 10
92.540930
 20
37.297188
 42
0.130209
  0
VERTEX
  8
0
 10
95.212006
 20
34.898141
 42
0.150993
  0
VERTEX
  8
0
 10
98.566608
 20
34.311538
 42
0.138784
  0
VERTEX
  8
0
 10
101.880429
 20
35.722038
 42
0.104206
  0
VERTEX
  8
0
 10
104.400045
 20
38.806708
 42
0.100965
  0
VERTEX
  8
0
 10
105.288193
 20
41.942490
 42
0.008833
  0
VERTEX
  8
0
 10
105.762377
 20
50.239588
 42
0.009455
  0
VERTEX
  8
0
 10
105.993991
 20
61.528252
 42
0.003905
  0
VERTEX
  8
0
 10
105.899161
 20
76.812647
 42
-0.031579
  0
VERTEX
  8
0
 10
106.023804
 20
79.347967
 42
-0.015843
  0
VERTEX
  8
0
 10
106.484029
 20
82.523108
 42
-0.015532
  0
VERTEX
  8
0
 10
107.177956
 20
85.832500
 42
-0.020154
  0
VERTEX
  8
0
 10
108.028635
 20
88.812647
 42
-0.004236
  0
VERTEX
  8
0
 10
109.546604
 20
93.290619
 42
-0.006430
  0
VERTEX
  8
0
 10
110.949000
 20
97.154538
 42
-0.004488
  0
VERTEX
  8
0
 10
112.774347
 20
101.860726
 42
-0.001060
  0
VERTEX
  8
0
 10
115.909546
 20
109.685381
 42
0.008609
  0
VERTEX
  8
0
 10
116.709963
 20
111.773804
 42
0.010417
  0
VERTEX
  8
0
 10
117.385929
 20
113.760594
 42
0.009155
  0
VERTEX
  8
0
 10
117.887161
 20
115.447621
 42
0.067727
  0
VERTEX
  8
0
 10
118.000000
 20
116.276846
 42
-0.200412
  0
VERTEX
  8
0
 10
118.265244
 20
116.912014
 42
-0.157353
  0
VERTEX
  8
0
 10
118.937700
 20
117.251472
 42
-0.064279
  0
VERTEX
  8
0
 10
120.228507
 20
117.286275
 42
-0.012297
  0
VERTEX
  8
0
 10
122.559871
 20
116.990914
 42
-0.038037
  0
VERTEX
  8
0
 10
125.023513
 20
116.422765
 42
-0.052107
  0
VERTEX
  8
0
 10
127.111952
 20
115.522976
 42
-0.044898
  0
VERTEX
  8
0
 10
129.186517
 20
114.101663
 42
-0.020300
  0
VERTEX
  8
0
 10
131.642392
 20
111.899449
 42
-0.019132
  0
VERTEX
  8
0
 10
133.525038
 20
109.922412
 42
-0.014460
  0
VERTEX
  8
0
 10
135.442158
 20
107.617338
 42
-0.014678
  0
VERTEX
  8
0
 10
137.118658
 20
105.344339
 42
-0.032567
  0
VERTEX
  8
0
 10
138.226807
 20
103.500000
 42
0.012225
  0
VERTEX
  8
0
 10
139.187485
 20
101.743047
 42
0.008026
  0
VERTEX
  8
0
 10
140.374919
 20
99.766023
 42
0.008075
  0
VERTEX
  8
0
 10
141.593780
 20
97.877234
 42
0.015366
  0
VERTEX
  8
0
 10
142.644285
 20
96.405609
 42
-0.075300
  0
VERTEX
  8
0
 10
144.240048
 20
93.487147
 42
-0.075197
  0
VERTEX
  8
0
 10
144.900990
 20
90.225658
 42
-0.063350
  0
VERTEX
  8
0
 10
144.611225
 20
86.455141
 42
-0.035013
  0
VERTEX
  8
0
 10
143.362736
 20
82.000000
 42
0.005081
  0
VERTEX
  8
0
 10
142.678261
 20
80.021463
 42
0.003628
  0
VERTEX
  8
0
 10
141.950771
 20
77.793750
 42
0.003663
  0
VERTEX
  8
0
 10
141.288176
 20
75.659811
 42
0.007822
  0
VERTEX
  8
0
 10
140.814311
 20
74.000000
 42
0.035301
  0
VERTEX
  8
0
 10
139.334697
 20
66.383700
 42
0.005676
  0
VERTEX
  8
0
 10
137.673110
 20
51.333220
 42
0.006601
  0
VERTEX
  8
0
 10
136.233076
 20
34.512568
 42
0.008145
  0
VERTEX
  8
0
 10
135.353593
 20
18.799325
 42
0.002745
  0
VERTEX
  8
0
 10
135.045167
 20
9.767026
 42
0.037888
  0
VERTEX
  8
0
 10
135.199132
 20
6.500254
 42
0.100280
  0
VERTEX
  8
0
 10
135.870815
 20
4.491738
 42
0.065790
  0
VERTEX
  8
0
 10
137.359766
 20
2.549325
 42
0.059059
  0
VERTEX
  8
0
 10
139.583060
 20
0.797241
 42
0.119718
  0
VERTEX
  8
0
 10
141.690586
 20
0.119510
 42
0.123618
  0
VERTEX
  8
0
 10
143.828283
 20
0.493413
 42
0.065287
  0
VERTEX
  8
0
 10
146.139216
 20
1.908781
 42
0.090475
  0
VERTEX
  8
0
 10
147.469702
 20
3.455417
 42
0.079962
  0
VERTEX
  8
0
 10
148.239999
 20
5.439250
 42
0.034615
  0
VERTEX
  8
0
 10
148.713998
 20
8.764739
 42
0.004169
  0
VERTEX
  8
0
 10
149.188177
 20
16.158781
 42
-0.006236
  0
VERTEX
  8
0
 10
150.741205
 20
38.903193
 42
-0.010650
  0
VERTEX
  8
0
 10
152.678506
 20
57.840619
 42
-0.012061
  0
VERTEX
  8
0
 10
154.892104
 20
72.753018
 42
-0.043883
  0
VERTEX
  8
0
 10
157.344029
 20
82.000000
 42
0.038170
  0
VERTEX
  8
0
 10
158.477155
 20
86.084695
 42
0.042920
  0
VERTEX
  8
0
 10
158.918525
 20
90.136160
 42
0.046840
  0
VERTEX
  8
0
 10
158.656110
 20
93.831839
 42
0.074275
  0
VERTEX
  8
0
 10
157.681452
 20
96.845708
 42
0.012913
  0
VERTEX
  8
0
 10
151.886193
 20
107.792878
 42
0.028130
  0
VERTEX
  8
0
 10
146.768619
 20
115.795540
 42
0.036974
  0
VERTEX
  8
0
 10
142.060946
 20
121.394841
 42
0.081227
  0
VERTEX
  8
0
 10
137.571690
 20
124.707221
 42
-0.017669
  0
VERTEX
  8
0
 10
136.199980
 20
125.472541
 42
-0.010311
  0
VERTEX
  8
0
 10
134.609137
 20
126.480739
 42
-0.010302
  0
VERTEX
  8
0
 10
133.056072
 20
127.557196
 42
-0.017158
  0
VERTEX
  8
0
 10
131.799839
 20
128.534197
 42
0.057578
  0
VERTEX
  8
0
 10
130.116254
 20
129.637937
 42
0.045169
  0
VERTEX
  8
0
 10
128.083343
 20
130.438120
 42
0.034019
  0
VERTEX
  8
0
 10
125.435214
 20
131.021128
 42
0.014162
  0
VERTEX
  8
0
 10
121.799839
 20
131.460839
 42
-0.021765
  0
VERTEX
  8
0
 10
118.385703
 20
131.926553
 42
-0.010786
  0
VERTEX
  8
0
 10
114.100380
 20
132.798203
 42
-0.010683
  0
VERTEX
  8
0
 10
109.688202
 20
133.894802
 42
-0.015388
  0
VERTEX
  8
0
 10
105.839753
 20
135.067336
 42
0.008475
  0
VERTEX
  8
0
 10
102.329407
 20
136.190111
 42
0.009757
  0
VERTEX
  8
0
 10
98.943402
 20
137.138530
 42
0.008954
  0
VERTEX
  8
0
 10
96.051335
 20
137.833036
 42
0.054497
  0
VERTEX
  8
0
 10
94.524012
 20
138.000000
 42
-0.051561
  0
VERTEX
  8
0
 10
91.456266
 20
138.317196
 42
-0.129421
  0
VERTEX
  8
0
 10
89.460244
 20
139.314772
 42
-0.163469
  0
VERTEX
  8
0
 10
88.488215
 20
140.989694
 42
-0.097215
  0
VERTEX
  8
0
 10
88.469695
 20
143.319534
 42
-0.009183
  0
VERTEX
  8
0
 10
89.899535
 20
150.222815
 42
-0.007180
  0
VERTEX
  8
0
 10
91.696317
 20
157.662973
 42
-0.005362
  0
VERTEX
  8
0
 10
93.492889
 20
164.361335
 42
-0.052077
  0
VERTEX
  8
0
 10
94.572705
 20
167.089947
 42
0.040808
  0
VERTEX
  8
0
 10
95.218277
 20
168.619782
 42
0.007574
  0
VERTEX
  8
0
 10
96.128811
 20
171.536426
 42
0.008076
  0
VERTEX
  8
0
 10
97.089123
 20
174.988821
 42
0.007290
  0
VERTEX
  8
0
 10
97.972550
 20
178.589947
 42
-0.002633
  0
VERTEX
  8
0
 10
101.795171
 20
194.824069
 42
-0.005577
  0
VERTEX
  8
0
 10
104.963105
 20
207.352090
 42
-0.007043
  0
VERTEX
  8
0
 10
107.667090
 20
217.012625
 42
-0.017344
  0
VERTEX
  8
0
 10
109.995725
 20
224.000000
 42
0.004752
  0
VERTEX
  8
0
 10
111.264872
 20
227.510938
 42
0.004810
  0
VERTEX
  8
0
 10
112.461803
 20
231.031250
 42
0.004691
  0
VERTEX
  8
0
 10
113.445210
 20
234.114579
 42
0.019518
  0
VERTEX
  8
0
 10
113.947441
 20
236.000000
 42
-0.012969
  0
VERTEX
  8
0
 10
114.366319
 20
237.659578
 42
-0.006009
  0
VERTEX
  8
0
 10
114.992022
 20
239.793750
 42
-0.005948
  0
VERTEX
  8
0
 10
115.703390
 20
242.021373
 42
-0.008238
  0
VERTEX
  8
0
 10
116.397685
 20
244.000000
 42
0.004362
  0
VERTEX
  8
0
 10
119.390862
 20
252.322988
 42
0.010879
  0
VERTEX
  8
0
 10
121.392139
 20
258.470007
 42
0.008863
  0
VERTEX
  8
0
 10
122.689539
 20
263.063662
 42
0.157264
  0
VERTEX
  8
0
 10
122.606789
 20
264.582308
 42
-0.065353
  0
VERTEX
  8
0
 10
122.472816
 20
265.139688
 42
-0.071582
  0
VERTEX
  8
0
 10
122.493686
 20
265.695145
 42
-0.080755
  0
VERTEX
  8
0
 10
122.660339
 20
266.163827
 42
-0.129320
  0
VERTEX
  8
0
 10
122.951186
 20
266.469831
 42
0.169929
  0
VERTEX
  8
0
 10
123.690427
 20
267.382902
 42
0.007418
  0
VERTEX
  8
0
 10
125.035943
 20
271.322661
 42
0.010112
  0
VERTEX
  8
0
 10
126.652566
 20
276.661195
 42
0.004093
  0
VERTEX
  8
0
 10
128.649176
 20
284.000000
 42
-0.004262
  0
VERTEX
  8
0
 10
129.282745
 20
286.325668
 42
-0.003642
  0
VERTEX
  8
0
 10
129.989068
 20
288.765625
 42
-0.003671
  0
VERTEX
  8
0
 10
130.663684
 20
290.974563
 42
-0.010435
  0
VERTEX
  8
0
 10
131.177025
 20
292.500000
 42
0.006383
  0
VERTEX
  8
0
 10
134.604393
 20
302.418120
 42
0.001109
  0
VERTEX
  8
0
 10
140.796347
 20
321.245642
 42
0.001018
  0
VERTEX
  8
0
 10
146.917188
 20
340.127222
 42
0.007888
  0
VERTEX
  8
0
 10
149.619819
 20
349.000000
 42
-0.006555
  0
VERTEX
  8
0
 10
150.799171
 20
352.909182
 42
-0.006490
  0
VERTEX
  8
0
 10
152.084382
 20
356.799235
 42
-0.006390
  0
VERTEX
  8
0
 10
153.296412
 20
360.173434
 42
-0.024869
  0
VERTEX
  8
0
 10
154.175249
 20
362.210162
 42
0.023864
  0
VERTEX
  8
0
 10
154.873833
 20
363.820248
 42
0.019885
  0
VERTEX
  8
0
 10
155.463979
 20
365.589894
 42
0.020343
  0
VERTEX
  8
0
 10
155.874065
 20
367.255256
 42
0.050232
  0
VERTEX
  8
0
 10
156.000000
 20
368.505616
 42
0.123414
  0
VERTEX
  8
0
 10
155.418590
 20
370.825272
 42
0.059208
  0
VERTEX
  8
0
 10
153.650163
 20
373.358481
 42
0.059768
  0
VERTEX
  8
0
 10
151.384636
 20
375.360285
 42
0.147703
  0
VERTEX
  8
0
 10
149.295455
 20
376.031803
 42
-0.061170
  0
VERTEX
  8
0
 10
148.468545
 20
376.148249
 42
-0.029923
  0
VERTEX
  8
0
 10
147.457208
 20
376.485547
 42
-0.029149
  0
VERTEX
  8
0
 10
146.433764
 20
376.967397
 42
-0.037331
  0
VERTEX
  8
0
 10
145.558870
 20
377.531803
 42
0.099828
  0
VERTEX
  8
0
 10
143.359759
 20
378.590203
 42
0.062874
  0
VERTEX
  8
0
 10
140.521457
 20
378.943920
 42
0.062168
  0
VERTEX
  8
0
 10
137.643941
 20
378.580075
 42
0.090511
  0
SEQEND
  0
POLYLINE
  8
0
 66
1
 70
1
  0
VERTEX
  8
0
 10
129.683114
 20
328.812500
 42
-0.054073
  0
VERTEX
  8
0
 10
129.461564
 20
328.395823
 42
-0.470617
  0
VERTEX
  8
0
 10
129.279315
 20
328.378580
 42
-0.168741
  0
VERTEX
  8
0
 10
129.137993
 20
328.670344
 42
-0.018894
  0
VERTEX
  8
0
 10
129.078947
 20
329.416667
 42
-0.028489
  0
VERTEX
  8
0
 10
129.089945
 20
330.112848
 42
-0.077125
  0
VERTEX
  8
0
 10
129.200665
 20
330.592839
 42
-0.208169
  0
VERTEX
  8
0
 10
129.385309
 20
330.775380
 42
-0.296942
  0
VERTEX
  8
0
 10
129.604167
 20
330.729167
 42
-0.126455
  0
VERTEX
  8
0
 10
129.797407
 20
330.402231
 42
-0.060344
  0
VERTEX
  8
0
 10
129.876576
 20
329.916927
 42
-0.054150
  0
VERTEX
  8
0
 10
129.839148
 20
329.359369
 42
-0.051402
  0
SEQEND
  0
ENDSEC
  0
EOF
