  0
SECTION
  2
HEADER
  9
$ACADVER
  1
AC1006
  9
$EXTMIN
 10
0.000000
 20
0.000000
 30
0.000000
  9
$EXTMAX
 10
148.000000
 20
427.000000
 30
0.000000
  0
ENDSEC
  0
SECTION
  2
ENTITIES
  0
POLYLINE
  8
0
 66
1
 70
1
  0
VERTEX
  8
0
 10
41.585464
 20
424.676373
 42
0.117480
  0
VERTEX
  8
0
 10
40.035203
 20
422.156385
 42
0.053832
  0
VERTEX
  8
0
 10
39.225557
 20
418.358950
 42
0.011956
  0
VERTEX
  8
0
 10
38.622970
 20
410.707506
 42
0.000377
  0
VERTEX
  8
0
 10
36.938432
 20
379.500000
 42
-0.004173
  0
VERTEX
  8
0
 10
35.891542
 20
362.503725
 42
-0.003195
  0
VERTEX
  8
0
 10
34.473212
 20
343.939652
 42
-0.000662
  0
VERTEX
  8
0
 10
32.924766
 20
325.541874
 42
-0.117609
  0
VERTEX
  8
0
 10
32.316654
 20
323.703340
 42
-0.407362
  0
VERTEX
  8
0
 10
31.343271
 20
323.461472
 42
-0.084447
  0
VERTEX
  8
0
 10
29.851447
 20
324.714497
 42
-0.046162
  0
VERTEX
  8
0
 10
28.027438
 20
327.316347
 42
-0.021187
  0
VERTEX
  8
0
 10
26.124654
 20
331.000000
 42
-0.031814
  0
VERTEX
  8
0
 10
24.695336
 20
334.676130
 42
-0.043523
  0
VERTEX
  8
0
 10
23.919858
 20
338.140303
 42
-0.024370
  0
VERTEX
  8
0
 10
23.512210
 20
342.952812
 42
-0.003793
  0
VERTEX
  8
0
 10
23.243030
 20
352.500000
 42
-0.005524
  0
VERTEX
  8
0
 10
23.173560
 20
359.771403
 42
-0.003269
  0
VERTEX
  8
0
 10
23.243244
 20
368.447445
 42
-0.003270
  0
VERTEX
  8
0
 10
23.426064
 20
377.106394
 42
-0.005613
  0
VERTEX
  8
0
 10
23.706685
 20
384.321091
 42
0.005331
  0
VERTEX
  8
0
 10
23.957415
 20
390.675349
 42
0.008604
  0
VERTEX
  8
0
 10
24.020041
 20
396.089086
 42
0.005457
  0
VERTEX
  8
0
 10
23.946898
 20
400.506838
 42
0.121277
  0
VERTEX
  8
0
 10
23.608460
 20
401.735217
 42
-0.091523
  0
VERTEX
  8
0
 10
23.315251
 20
402.597754
 42
-0.048124
  0
VERTEX
  8
0
 10
23.259634
 20
403.732517
 42
-0.042149
  0
VERTEX
  8
0
 10
23.432028
 20
405.036455
 42
-0.032593
  0
VERTEX
  8
0
 10
23.829468
 20
406.414126
 42
0.121559
  0
VERTEX
  8
0
 10
24.433111
 20
412.192256
 42
0.072561
  0
VERTEX
  8
0
 10
22.494743
 20
418.865076
 42
0.078088
  0
VERTEX
  8
0
 10
18.969812
 20
424.205174
 42
0.210923
  0
VERTEX
  8
0
 10
14.904398
 20
426.000000
 42
0.094331
  0
VERTEX
  8
0
 10
12.323378
 20
425.508689
 42
0.031309
  0
VERTEX
  8
0
 10
8.820982
 20
423.864924
 42
0.030586
  0
VERTEX
  8
0
 10
5.588908
 20
421.827031
 42
0.114417
  0
VERTEX
  8
0
 10
4.017392
 20
420.032498
 42
0.107303
  0
VERTEX
  8
0
 10
2.927840
 20
416.209078
 42
0.002146
  0
VERTEX
  8
0
 10
1.720591
 20
395.953715
 42
0.005696
  0
VERTEX
  8
0
 10
0.803168
 20
375.044315
 42
0.008171
  0
VERTEX
  8
0
 10
0.504302
 20
356.500000
 42
0.002693
  0
VERTEX
  8
0
 10
0.570663
 20
344.678079
 42
0.022645
  0
VERTEX
  8
0
 10
0.870657
 20
339.353554
 42
0.044789
  0
VERTEX
  8
0
 10
1.594967
 20
335.609252
 42
0.030099
  0
VERTEX
  8
0
 10
3.052180
 20
331.500000
 42
0.036786
  0
VERTEX
  8
0
 10
5.814506
 20
326.122096
 42
0.019311
  0
VERTEX
  8
0
 10
9.978903
 20
319.857296
 42
0.018038
  0
VERTEX
  8
0
 10
14.368462
 20
314.217155
 42
0.073465
  0
VERTEX
  8
0
 10
17.607631
 20
311.337520
 42
-0.046766
  0
VERTEX
  8
0
 10
18.522861
 20
310.607192
 42
-0.045301
  0
VERTEX
  8
0
 10
19.297242
 20
309.712227
 42
-0.048872
  0
VERTEX
  8
0
 10
19.828802
 20
308.794683
 42
-0.107263
  0
VERTEX
  8
0
 10
20.000000
 20
308.005833
 42
0.069627
  0
VERTEX
  8
0
 10
20.139527
 20
307.008734
 42
0.011996
  0
VERTEX
  8
0
 10
20.708640
 20
305.182219
 42
0.012855
  0
VERTEX
  8
0
 10
21.488823
 20
303.056455
 42
0.011176
  0
VERTEX
  8
0
 10
22.412392
 20
300.870843
 42
0.000000
  0
VERTEX
  8
0
 10
24.824785
 20
295.500000
 42
0.000000
  0
VERTEX
  8
0
 10
24.020357
 20
262.000000
 42
-0.002610
  0
VERTEX
  8
0
 10
23.339664
 20
238.717863
 42
-0.019833
  0
VERTEX
  8
0
 10
22.527122
 20
227.773826
 42
-0.018657
  0
VERTEX
  8
0
 10
20.841213
 20
216.699830
 42
-0.002151
  0
VERTEX
  8
0
 10
16.021926
 20
192.000000
 42
0.021641
  0
VERTEX
  8
0
 10
15.058394
 20
185.781339
 42
0.009652
  0
VERTEX
  8
0
 10
14.303966
 20
177.526639
 42
0.006930
  0
VERTEX
  8
0
 10
13.655753
 20
166.358884
 42
0.002515
  0
VERTEX
  8
0
 10
13.035522
 20
150.500000
 42
-0.001057
  0
VERTEX
  8
0
 10
12.583908
 20
138.021199
 42
-0.001538
  0
VERTEX
  8
0
 10
12.128522
 20
127.018750
 42
-0.000757
  0
VERTEX
  8
0
 10
11.698652
 20
117.671438
 42
-0.026678
  0
VERTEX
  8
0
 10
11.478996
 20
115.500000
 42
0.035075
  0
VERTEX
  8
0
 10
11.287244
 20
113.223610
 42
0.000459
  0
VERTEX
  8
0
 10
11.101770
 20
98.955179
 42
0.001322
  0
VERTEX
  8
0
 10
10.945793
 20
82.428362
 42
0.000867
  0
VERTEX
  8
0
 10
10.849446
 20
63.389971
 42
0.000617
  0
VERTEX
  8
0
 10
10.781448
 20
30.901657
 42
0.009849
  0
VERTEX
  8
0
 10
10.988801
 20
19.896341
 42
0.030291
  0
VERTEX
  8
0
 10
11.584545
 20
13.904500
 42
0.072923
  0
VERTEX
  8
0
 10
12.920944
 20
9.663309
 42
0.042422
  0
VERTEX
  8
0
 10
15.668919
 20
5.033258
 42
0.088485
  0
VERTEX
  8
0
 10
18.658654
 20
2.111728
 42
0.094987
  0
VERTEX
  8
0
 10
22.326322
 20
0.526599
 42
0.054689
  0
VERTEX
  8
0
 10
27.126385
 20
0.000000
 42
0.069893
  0
VERTEX
  8
0
 10
34.366676
 20
1.017065
 42
0.129975
  0
VERTEX
  8
0
 10
39.424404
 20
4.032482
 42
0.078841
  0
VERTEX
  8
0
 10
43.863475
 20
10.285849
 42
0.014668
  0
VERTEX
  8
0
 10
49.762382
 20
23.126764
 42
0.016563
  0
VERTEX
  8
0
 10
54.267689
 20
34.805677
 42
0.031606
  0
VERTEX
  8
0
 10
56.967868
 20
44.492019
 42
0.026971
  0
VERTEX
  8
0
 10
58.669290
 20
55.399564
 42
0.009005
  0
VERTEX
  8
0
 10
60.005445
 20
71.500000
 42
-0.000287
  0
VERTEX
  8
0
 10
60.493619
 20
78.958100
 42
-0.000203
  0
VERTEX
  8
0
 10
61.049516
 20
87.325000
 42
-0.000205
  0
VERTEX
  8
0
 10
61.586894
 20
95.314433
 42
-0.000436
  0
VERTEX
  8
0
 10
62.010904
 20
101.500000
 42
0.007258
  0
VERTEX
  8
0
 10
62.361111
 20
107.884522
 42
0.002938
  0
VERTEX
  8
0
 10
62.661018
 20
116.597529
 42
0.002906
  0
VERTEX
  8
0
 10
62.874159
 20
125.977464
 42
0.003689
  0
VERTEX
  8
0
 10
62.956706
 20
134.640524
 42
-0.003559
  0
VERTEX
  8
0
 10
63.063940
 20
146.210054
 42
-0.016128
  0
VERTEX
  8
0
 10
63.391922
 20
152.947880
 42
-0.024237
  0
VERTEX
  8
0
 10
64.081833
 20
158.251548
 42
-0.017002
  0
VERTEX
  8
0
 10
65.348227
 20
164.140524
 42
0.003647
  0
VERTEX
  8
0
 10
66.339385
 20
168.216766
 42
0.002713
  0
VERTEX
  8
0
 10
67.376225
 20
172.730182
 42
0.002742
  0
VERTEX
  8
0
 10
68.307725
 20
176.997906
 42
0.006211
  0
VERTEX
  8
0
 10
68.954541
 20
180.238821
 42
-0.011879
  0
VERTEX
  8
0
 10
69.644851
 20
183.504375
 42
-0.004986
  0
VERTEX
  8
0
 10
70.721580
 20
187.865459
 42
-0.004930
  0
VERTEX
  8
0
 10
71.966075
 20
192.508356
 42
-0.006390
  0
VERTEX
  8
0
 10
73.203321
 20
196.738821
 42
0.002436
  0
VERTEX
  8
0
 10
74.514750
 20
201.094774
 42
0.001593
  0
VERTEX
  8
0
 10
75.986404
 20
206.129529
 42
0.001602
  0
VERTEX
  8
0
 10
77.389229
 20
211.045250
 42
0.003071
  0
VERTEX
  8
0
 10
78.477950
 20
215.000000
 42
-0.009794
  0
VERTEX
  8
0
 10
79.543402
 20
218.676328
 42
-0.007258
  0
VERTEX
  8
0
 10
80.859068
 20
222.697716
 42
-0.007341
  0
VERTEX
  8
0
 10
82.212575
 20
226.459415
 42
-0.016374
  0
VERTEX
  8
0
 10
83.376655
 20
229.268820
 42
0.008340
  0
VERTEX
  8
0
 10
84.528667
 20
231.927507
 42
0.004767
  0
VERTEX
  8
0
 10
85.835189
 20
235.173458
 42
0.004759
  0
VERTEX
  8
0
 10
87.087637
 20
238.464735
 42
0.007876
  0
VERTEX
  8
0
 10
88.074327
 20
241.268820
 42
-0.015698
  0
VERTEX
  8
0
 10
91.208726
 20
249.750375
 42
-0.010641
  0
VERTEX
  8
0
 10
95.283488
 20
259.211792
 42
-0.008642
  0
VERTEX
  8
0
 10
99.361056
 20
267.756845
 42
-0.062985
  0
VERTEX
  8
0
 10
101.876307
 20
271.527161
 42
0.028247
  0
VERTEX
  8
0
 10
106.077331
 20
276.966560
 42
0.007990
  0
VERTEX
  8
0
 10
111.990931
 20
285.891374
 42
0.008281
  0
VERTEX
  8
0
 10
118.112802
 20
295.817448
 42
0.011194
  0
VERTEX
  8
0
 10
123.293755
 20
305.000000
 42
0.035535
  0
VERTEX
  8
0
 10
128.004032
 20
315.540117
 42
0.019116
  0
VERTEX
  8
0
 10
132.362375
 20
329.099471
 42
0.017597
  0
VERTEX
  8
0
 10
136.107902
 20
344.567131
 42
0.015292
  0
VERTEX
  8
0
 10
138.959292
 20
361.000000
 42
-0.004995
  0
VERTEX
  8
0
 10
139.933693
 20
367.394640
 42
-0.010582
  0
VERTEX
  8
0
 10
140.842493
 20
372.322608
 42
-0.007560
  0
VERTEX
  8
0
 10
142.133414
 20
378.132260
 42
-0.001495
  0
VERTEX
  8
0
 10
144.634988
 20
388.500000
 42
0.022272
  0
VERTEX
  8
0
 10
146.317839
 20
397.010814
 42
0.020351
  0
VERTEX
  8
0
 10
147.299192
 20
405.897695
 42
0.020630
  0
VERTEX
  8
0
 10
147.522490
 20
413.861410
 42
0.065259
  0
VERTEX
  8
0
 10
146.760721
 20
419.131373
 42
0.140603
  0
VERTEX
  8
0
 10
145.655309
 20
420.921220
 42
0.089462
  0
VERTEX
  8
0
 10
143.566283
 20
422.230098
 42
0.095859
  0
VERTEX
  8
0
 10
141.285300
 20
422.669087
 42
0.194615
  0
VERTEX
  8
0
 10
139.620622
 20
421.993696
 42
0.131284
  0
VERTEX
  8
0
 10
139.154996
 20
421.216686
 42
0.001168
  0
VERTEX
  8
0
 10
137.272867
 20
414.583048
 42
0.003926
  0
VERTEX
  8
0
 10
135.179729
 20
406.908781
 42
0.002513
  0
VERTEX
  8
0
 10
132.863136
 20
397.963018
 42
-0.001219
  0
VERTEX
  8
0
 10
130.570614
 20
389.014881
 42
-0.001912
  0
VERTEX
  8
0
 10
128.551456
 20
381.334080
 42
-0.000486
  0
VERTEX
  8
0
 10
126.755232
 20
374.632168
 42
-0.072813
  0
VERTEX
  8
0
 10
126.439442
 20
373.902015
 42
0.063471
  0
VERTEX
  8
0
 10
126.127012
 20
373.214989
 42
0.001368
  0
VERTEX
  8
0
 10
125.043151
 20
369.677292
 42
0.003121
  0
VERTEX
  8
0
 10
123.810615
 20
365.521470
 42
0.002098
  0
VERTEX
  8
0
 10
122.452252
 20
360.759620
 42
-0.008867
  0
VERTEX
  8
0
 10
120.890455
 20
355.552877
 42
-0.007267
  0
VERTEX
  8
0
 10
119.042657
 20
350.045013
 42
-0.007351
  0
VERTEX
  8
0
 10
117.195429
 20
345.030020
 42
-0.019181
  0
VERTEX
  8
0
 10
115.678013
 20
341.500000
 42
-0.002177
  0
VERTEX
  8
0
 10
107.087151
 20
323.655972
 42
-0.016924
  0
VERTEX
  8
0
 10
102.763801
 20
315.489437
 42
-0.034875
  0
VERTEX
  8
0
 10
99.274900
 20
310.283786
 42
-0.033835
  0
VERTEX
  8
0
 10
95.063582
 20
305.557276
 42
0.006227
  0
VERTEX
  8
0
 10
92.739880
 20
303.222451
 42
0.009408
  0
VERTEX
  8
0
 10
90.781177
 20
301.127257
 42
0.004756
  0
VERTEX
  8
0
 10
89.186483
 20
299.321518
 42
0.180395
  0
VERTEX
  8
0
 10
89.000000
 20
298.821464
 42
-0.203005
  0
VERTEX
  8
0
 10
88.816251
 20
298.387544
 42
-0.014651
  0
VERTEX
  8
0
 10
87.832878
 20
297.488981
 42
-0.018676
  0
VERTEX
  8
0
 10
86.548996
 20
296.464032
 42
-0.012942
  0
VERTEX
  8
0
 10
85.026818
 20
295.399050
 42
-0.056207
  0
VERTEX
  8
0
 10
81.784486
 20
293.742625
 42
-0.112654
  0
VERTEX
  8
0
 10
78.949831
 20
293.355720
 42
-0.132559
  0
VERTEX
  8
0
 10
76.532972
 20
294.244216
 42
-0.093997
  0
VERTEX
  8
0
 10
74.516931
 20
296.333816
 42
-0.126749
  0
VERTEX
  8
0
 10
73.773428
 20
298.519529
 42
-0.032384
  0
VERTEX
  8
0
 10
73.732018
 20
302.288476
 42
-0.014564
  0
VERTEX
  8
0
 10
74.277554
 20
308.855310
 42
-0.001677
  0
VERTEX
  8
0
 10
75.982423
 20
323.567939
 42
-0.000510
  0
VERTEX
  8
0
 10
78.753375
 20
346.599098
 42
-0.003292
  0
VERTEX
  8
0
 10
80.240630
 20
358.215181
 42
-0.005871
  0
VERTEX
  8
0
 10
81.488471
 20
366.720862
 42
-0.004482
  0
VERTEX
  8
0
 10
83.046676
 20
376.000000
 42
0.013805
  0
VERTEX
  8
0
 10
83.907642
 20
381.785559
 42
0.007084
  0
VERTEX
  8
0
 10
84.683085
 20
389.076891
 42
0.006804
  0
VERTEX
  8
0
 10
85.301186
 20
396.967174
 42
0.007400
  0
VERTEX
  8
0
 10
85.684039
 20
404.653398
 42
0.000000
  0
VERTEX
  8
0
 10
86.284114
 20
421.806795
 42
0.000000
  0
VERTEX
  8
0
 10
83.687511
 20
424.403398
 42
0.063600
  0
VERTEX
  8
0
 10
81.331556
 20
426.225718
 42
0.125268
  0
VERTEX
  8
0
 10
79.072673
 20
426.880414
 42
0.131597
  0
VERTEX
  8
0
 10
76.851825
 20
426.363168
 42
0.073855
  0
VERTEX
  8
0
 10
74.610895
 20
424.701805
 42
0.090478
  0
VERTEX
  8
0
 10
73.300342
 20
422.806311
 42
0.066978
  0
VERTEX
  8
0
 10
72.568390
 20
420.359864
 42
0.027127
  0
VERTEX
  8
0
 10
72.139278
 20
416.196899
 42
0.002876
  0
VERTEX
  8
0
 10
71.722689
 20
406.451805
 42
-0.008580
  0
VERTEX
  8
0
 10
71.300816
 20
398.665702
 42
-0.008094
  0
VERTEX
  8
0
 10
70.606211
 20
390.745612
 42
-0.008177
  0
VERTEX
  8
0
 10
69.664914
 20
382.940471
 42
-0.009302
  0
VERTEX
  8
0
 10
68.502486
 20
375.500000
 42
0.003885
  0
VERTEX
  8
0
 10
67.431041
 20
369.097505
 42
0.003216
  0
VERTEX
  8
0
 10
66.386772
 20
362.262500
 42
0.003247
  0
VERTEX
  8
0
 10
65.510237
 20
355.982747
 42
0.008715
  0
VERTEX
  8
0
 10
64.993514
 20
351.500000
 42
-0.002578
  0
VERTEX
  8
0
 10
64.493115
 20
346.634680
 42
-0.000642
  0
VERTEX
  8
0
 10
63.623310
 20
338.681250
 42
-0.000656
  0
VERTEX
  8
0
 10
62.604385
 20
329.582813
 42
-0.000659
  0
VERTEX
  8
0
 10
61.563022
 20
320.500000
 42
0.000370
  0
VERTEX
  8
0
 10
60.584481
 20
312.008504
 42
0.000584
  0
VERTEX
  8
0
 10
59.759215
 20
304.724962
 42
0.000126
  0
VERTEX
  8
0
 10
59.042971
 20
298.322318
 42
0.026045
  0
VERTEX
  8
0
 10
59.005655
 20
297.691359
 42
-0.556897
  0
VERTEX
  8
0
 10
58.361836
 20
297.298791
 42
-0.006426
  0
VERTEX
  8
0
 10
53.006502
 20
300.097332
 42
-0.012045
  0
VERTEX
  8
0
 10
47.894510
 20
303.013962
 42
-0.073296
  0
VERTEX
  8
0
 10
45.550378
 20
304.944333
 42
-0.077614
  0
VERTEX
  8
0
 10
44.800144
 20
306.087822
 42
-0.087743
  0
VERTEX
  8
0
 10
44.474782
 20
307.358392
 42
-0.053416
  0
VERTEX
  8
0
 10
44.529681
 20
309.124169
 42
-0.012403
  0
VERTEX
  8
0
 10
45.011140
 20
312.058739
 42
0.015462
  0
VERTEX
  8
0
 10
46.396212
 20
320.836715
 42
0.005955
  0
VERTEX
  8
0
 10
47.795637
 20
333.095088
 42
0.005688
  0
VERTEX
  8
0
 10
49.051704
 20
346.954154
 42
0.005493
  0
VERTEX
  8
0
 10
50.008635
 20
361.000000
 42
0.000354
  0
VERTEX
  8
0
 10
52.512103
 20
405.395550
 42
0.011794
  0
VERTEX
  8
0
 10
52.853549
 20
416.050439
 42
0.054818
  0
VERTEX
  8
0
 10
52.323658
 20
421.274954
 42
0.144696
  0
VERTEX
  8
0
 10
50.545455
 20
424.545455
 42
0.067742
  0
VERTEX
  8
0
 10
48.263357
 20
426.280752
 42
0.125715
  0
VERTEX
  8
0
 10
46.032223
 20
426.885589
 42
0.128456
  0
VERTEX
  8
0
 10
43.817749
 20
426.341553
 42
0.072372
  0
SEQEND
  0
ENDSEC
  0
EOF
