  0
SECTION
  2
HEADER
  9
$ACADVER
  1
AC1006
  9
$EXTMIN
 10
0.000000
 20
0.000000
 30
0.000000
  9
$EXTMAX
 10
205.000000
 20
160.000000
 30
0.000000
  0
ENDSEC
  0
SECTION
  2
ENTITIES
  0
POLYLINE
  8
0
 66
1
 70
1
  0
VERTEX
  8
0
 10
94.902132
 20
157.902132
 42
0.041478
  0
VERTEX
  8
0
 10
93.924904
 20
156.747773
 42
0.085541
  0
VERTEX
  8
0
 10
93.413134
 20
155.685386
 42
0.089365
  0
VERTEX
  8
0
 10
93.298633
 20
154.544093
 42
0.048584
  0
VERTEX
  8
0
 10
93.545256
 20
153.152132
 42
-0.040096
  0
VERTEX
  8
0
 10
93.839335
 20
151.641742
 42
-0.008180
  0
VERTEX
  8
0
 10
94.099976
 20
148.929064
 42
-0.008569
  0
VERTEX
  8
0
 10
94.297804
 20
145.757274
 42
-0.007948
  0
VERTEX
  8
0
 10
94.393124
 20
142.500000
 42
0.000000
  0
VERTEX
  8
0
 10
94.500000
 20
134.500000
 42
0.000000
  0
VERTEX
  8
0
 10
87.889236
 20
133.769803
 42
0.017962
  0
VERTEX
  8
0
 10
82.053126
 20
132.912048
 42
0.034641
  0
VERTEX
  8
0
 10
77.480499
 20
131.739089
 42
0.041946
  0
VERTEX
  8
0
 10
74.342519
 20
130.396801
 42
0.277499
  0
VERTEX
  8
0
 10
73.500000
 20
128.995639
 42
0.255319
  0
VERTEX
  8
0
 10
73.913979
 20
128.237778
 42
0.076250
  0
VERTEX
  8
0
 10
75.159719
 20
127.683439
 42
0.037888
  0
VERTEX
  8
0
 10
77.409584
 20
127.249040
 42
0.008487
  0
VERTEX
  8
0
 10
81.300195
 20
126.866471
 42
-0.010710
  0
VERTEX
  8
0
 10
85.718102
 20
126.412223
 42
-0.047947
  0
VERTEX
  8
0
 10
88.254636
 20
125.845806
 42
-0.071138
  0
VERTEX
  8
0
 10
90.125997
 20
124.924329
 42
-0.044080
  0
VERTEX
  8
0
 10
92.022417
 20
123.366471
 42
-0.035036
  0
VERTEX
  8
0
 10
93.587233
 20
121.600048
 42
-0.079955
  0
VERTEX
  8
0
 10
94.431243
 20
120.037829
 42
-0.065988
  0
VERTEX
  8
0
 10
94.830593
 20
118.107285
 42
-0.018155
  0
VERTEX
  8
0
 10
94.942164
 20
115.000000
 42
-0.028025
  0
VERTEX
  8
0
 10
94.786254
 20
112.240983
 42
-0.009970
  0
VERTEX
  8
0
 10
94.264635
 20
108.325000
 42
-0.009858
  0
VERTEX
  8
0
 10
93.520001
 20
104.040450
 42
-0.011461
  0
VERTEX
  8
0
 10
92.638884
 20
100.000000
 42
0.000000
  0
VERTEX
  8
0
 10
90.337884
 20
90.500000
 42
0.000000
  0
VERTEX
  8
0
 10
80.918942
 20
89.963668
 42
0.044048
  0
VERTEX
  8
0
 10
68.997054
 20
88.223762
 42
0.034378
  0
VERTEX
  8
0
 10
56.494553
 20
84.333170
 42
0.034200
  0
VERTEX
  8
0
 10
45.849703
 20
79.337536
 42
0.126865
  0
VERTEX
  8
0
 10
40.517413
 20
74.274097
 42
-0.045271
  0
VERTEX
  8
0
 10
39.460766
 20
72.882275
 42
-0.041639
  0
VERTEX
  8
0
 10
38.142995
 20
71.660208
 42
-0.042525
  0
VERTEX
  8
0
 10
36.673287
 20
70.698339
 42
-0.053126
  0
VERTEX
  8
0
 10
35.164900
 20
70.081207
 42
0.056716
  0
VERTEX
  8
0
 10
33.411469
 20
69.349119
 42
0.012607
  0
VERTEX
  8
0
 10
30.609970
 20
67.692434
 42
0.012940
  0
VERTEX
  8
0
 10
27.453407
 20
65.601126
 42
0.012162
  0
VERTEX
  8
0
 10
24.342089
 20
63.307110
 42
-0.002115
  0
VERTEX
  8
0
 10
21.242375
 20
60.924052
 42
-0.002111
  0
VERTEX
  8
0
 10
18.120595
 20
58.565743
 42
-0.002065
  0
VERTEX
  8
0
 10
15.376903
 20
56.528821
 42
-0.008333
  0
VERTEX
  8
0
 10
13.677190
 20
55.320950
 42
0.027846
  0
VERTEX
  8
0
 10
6.972074
 20
50.150961
 42
0.069343
  0
VERTEX
  8
0
 10
2.899010
 20
45.505286
 42
0.085107
  0
VERTEX
  8
0
 10
0.733250
 20
40.543338
 42
0.060510
  0
VERTEX
  8
0
 10
0.000000
 20
34.506594
 42
0.057065
  0
VERTEX
  8
0
 10
0.582483
 20
29.419572
 42
0.054493
  0
VERTEX
  8
0
 10
2.301521
 20
24.511483
 42
0.054997
  0
VERTEX
  8
0
 10
5.020667
 20
20.132215
 42
0.060471
  0
VERTEX
  8
0
 10
8.554167
 20
16.605311
 42
0.056703
  0
VERTEX
  8
0
 10
12.811722
 20
13.992731
 42
0.026501
  0
VERTEX
  8
0
 10
18.818848
 20
11.564735
 42
0.024267
  0
VERTEX
  8
0
 10
25.896599
 20
9.509592
 42
0.020910
  0
VERTEX
  8
0
 10
33.500000
 20
8.029500
 42
-0.007788
  0
VERTEX
  8
0
 10
36.888025
 20
7.461795
 42
-0.006583
  0
VERTEX
  8
0
 10
40.452856
 20
6.758591
 42
-0.006648
  0
VERTEX
  8
0
 10
43.686660
 20
6.031298
 42
-0.018365
  0
VERTEX
  8
0
 10
45.935253
 20
5.405967
 42
0.026566
  0
VERTEX
  8
0
 10
48.510049
 20
4.735192
 42
0.004850
  0
VERTEX
  8
0
 10
53.346045
 20
3.794946
 42
0.005205
  0
VERTEX
  8
0
 10
59.033892
 20
2.807344
 42
0.004706
  0
VERTEX
  8
0
 10
64.935253
 20
1.902783
 42
0.011266
  0
VERTEX
  8
0
 10
74.270964
 20
0.775640
 42
0.015589
  0
VERTEX
  8
0
 10
82.686853
 20
0.215607
 42
0.009730
  0
VERTEX
  8
0
 10
93.644615
 20
0.042337
 42
0.001873
  0
VERTEX
  8
0
 10
113.500000
 20
0.189142
 42
0.001080
  0
VERTEX
  8
0
 10
135.649010
 20
0.483721
 42
0.014090
  0
VERTEX
  8
0
 10
143.870347
 20
0.842717
 42
0.038034
  0
VERTEX
  8
0
 10
148.869474
 20
1.587264
 42
0.042713
  0
VERTEX
  8
0
 10
153.500264
 20
3.066820
 42
0.023004
  0
VERTEX
  8
0
 10
162.666750
 20
7.389238
 42
0.014542
  0
VERTEX
  8
0
 10
172.953352
 20
13.220469
 42
0.014076
  0
VERTEX
  8
0
 10
182.287625
 20
19.242217
 42
0.046110
  0
VERTEX
  8
0
 10
187.929521
 20
23.929521
 42
-0.050675
  0
VERTEX
  8
0
 10
189.052506
 20
24.845340
 42
-0.011463
  0
VERTEX
  8
0
 10
191.140332
 20
26.154142
 42
-0.011762
  0
VERTEX
  8
0
 10
193.630669
 20
27.558592
 42
-0.011172
  0
VERTEX
  8
0
 10
196.226905
 20
28.869664
 42
0.050844
  0
VERTEX
  8
0
 10
201.762143
 20
32.239695
 42
0.140046
  0
VERTEX
  8
0
 10
204.479359
 20
35.858694
 42
0.150896
  0
VERTEX
  8
0
 10
204.766269
 20
40.185585
 42
0.062335
  0
VERTEX
  8
0
 10
202.688584
 20
45.741973
 42
0.069837
  0
VERTEX
  8
0
 10
200.268426
 20
49.119208
 42
0.022778
  0
VERTEX
  8
0
 10
195.830541
 20
53.371233
 42
0.018524
  0
VERTEX
  8
0
 10
191.161746
 20
57.157689
 42
0.158701
  0
VERTEX
  8
0
 10
188.649589
 20
58.017042
 42
-0.126704
  0
VERTEX
  8
0
 10
187.890469
 20
58.224594
 42
-0.004300
  0
VERTEX
  8
0
 10
185.193942
 20
59.795686
 42
-0.007858
  0
VERTEX
  8
0
 10
182.031887
 20
61.742503
 42
-0.005373
  0
VERTEX
  8
0
 10
178.500000
 20
64.048069
 42
0.006556
  0
VERTEX
  8
0
 10
174.888608
 20
66.393372
 42
0.008249
  0
VERTEX
  8
0
 10
171.481124
 20
68.465476
 42
0.006782
  0
VERTEX
  8
0
 10
168.581367
 20
70.111532
 42
0.062971
  0
VERTEX
  8
0
 10
167.244252
 20
70.640878
 42
-0.084550
  0
VERTEX
  8
0
 10
166.140387
 20
71.133673
 42
-0.102521
  0
VERTEX
  8
0
 10
165.346405
 20
71.939666
 42
-0.075842
  0
VERTEX
  8
0
 10
164.783120
 20
73.193707
 42
-0.028060
  0
VERTEX
  8
0
 10
164.369462
 20
75.090972
 42
0.022706
  0
VERTEX
  8
0
 10
164.048544
 20
76.642472
 42
0.025246
  0
VERTEX
  8
0
 10
163.596857
 20
78.103420
 42
0.025725
  0
VERTEX
  8
0
 10
163.089614
 20
79.297260
 42
0.106617
  0
VERTEX
  8
0
 10
162.608608
 20
79.909863
 42
0.106349
  0
VERTEX
  8
0
 10
161.758025
 20
80.353576
 42
0.007067
  0
VERTEX
  8
0
 10
159.075770
 20
81.052164
 42
0.009950
  0
VERTEX
  8
0
 10
155.823751
 20
81.781960
 42
0.007266
  0
VERTEX
  8
0
 10
152.185322
 20
82.467846
 42
-0.007522
  0
VERTEX
  8
0
 10
148.397120
 20
83.183969
 42
-0.007874
  0
VERTEX
  8
0
 10
144.689717
 20
84.003777
 42
-0.007612
  0
VERTEX
  8
0
 10
141.512340
 20
84.810344
 42
-0.034272
  0
VERTEX
  8
0
 10
139.701925
 20
85.435188
 42
0.048436
  0
VERTEX
  8
0
 10
135.722769
 20
86.683805
 42
0.013485
  0
VERTEX
  8
0
 10
129.287749
 20
87.856739
 42
0.014166
  0
VERTEX
  8
0
 10
122.413688
 20
88.720460
 42
0.024170
  0
VERTEX
  8
0
 10
116.634388
 20
89.000000
 42
0.000000
  0
VERTEX
  8
0
 10
111.305894
 20
89.000000
 42
0.000000
  0
VERTEX
  8
0
 10
110.085364
 20
103.694720
 42
0.000000
  0
VERTEX
  8
0
 10
108.864833
 20
118.389440
 42
0.000000
  0
VERTEX
  8
0
 10
111.182416
 20
120.177989
 42
-0.035271
  0
VERTEX
  8
0
 10
112.382304
 20
120.975747
 42
-0.013762
  0
VERTEX
  8
0
 10
114.141085
 20
121.910960
 42
-0.013543
  0
VERTEX
  8
0
 10
116.107224
 20
122.822467
 42
-0.016386
  0
VERTEX
  8
0
 10
118.000000
 20
123.565885
 42
0.009566
  0
VERTEX
  8
0
 10
124.227895
 20
125.914483
 42
0.033191
  0
VERTEX
  8
0
 10
128.109559
 20
127.770946
 42
0.054281
  0
VERTEX
  8
0
 10
130.329299
 20
129.358733
 42
0.263706
  0
VERTEX
  8
0
 10
130.806225
 20
130.770691
 42
0.249109
  0
VERTEX
  8
0
 10
129.763769
 20
132.064537
 42
0.047546
  0
VERTEX
  8
0
 10
126.788543
 20
133.015246
 42
0.035154
  0
VERTEX
  8
0
 10
122.339308
 20
133.660337
 42
0.014860
  0
VERTEX
  8
0
 10
116.306704
 20
133.925877
 42
-0.055951
  0
VERTEX
  8
0
 10
112.387635
 20
134.422540
 42
-0.135968
  0
VERTEX
  8
0
 10
109.863086
 20
135.828455
 42
-0.139218
  0
VERTEX
  8
0
 10
108.457561
 20
138.307713
 42
-0.059841
  0
VERTEX
  8
0
 10
108.000000
 20
142.117171
 42
0.055078
  0
VERTEX
  8
0
 10
107.506967
 20
146.579341
 42
0.023202
  0
VERTEX
  8
0
 10
105.915814
 20
152.408183
 42
0.016642
  0
VERTEX
  8
0
 10
103.940027
 20
157.886026
 42
0.209210
  0
VERTEX
  8
0
 10
102.410118
 20
159.396117
 42
0.059693
  0
VERTEX
  8
0
 10
100.309184
 20
159.926228
 42
0.081263
  0
VERTEX
  8
0
 10
98.359308
 20
159.859416
 42
0.082823
  0
VERTEX
  8
0
 10
96.559984
 20
159.178674
 42
0.064700
  0
SEQEND
  0
ENDSEC
  0
EOF
