  0
SECTION
  2
HEADER
  9
$ACADVER
  1
AC1006
  9
$EXTMIN
 10
0.000000
 20
0.000000
 30
0.000000
  9
$EXTMAX
 10
195.000000
 20
158.000000
 30
0.000000
  0
ENDSEC
  0
SECTION
  2
ENTITIES
  0
POLYLINE
  8
0
 66
1
 70
1
  0
VERTEX
  8
0
 10
95.585233
 20
156.974582
 42
0.029307
  0
VERTEX
  8
0
 10
94.409299
 20
156.538833
 42
0.028840
  0
VERTEX
  8
0
 10
93.285827
 20
155.966551
 42
0.030112
  0
VERTEX
  8
0
 10
92.363584
 20
155.350395
 42
0.089300
  0
VERTEX
  8
0
 10
91.850545
 20
154.792418
 42
0.118217
  0
VERTEX
  8
0
 10
91.524364
 20
153.840114
 42
0.006393
  0
VERTEX
  8
0
 10
91.262481
 20
150.648398
 42
0.009682
  0
VERTEX
  8
0
 10
91.071386
 20
146.808002
 42
0.006893
  0
VERTEX
  8
0
 10
91.000000
 20
142.500000
 42
-0.006353
  0
VERTEX
  8
0
 10
90.933378
 20
138.199444
 42
-0.009045
  0
VERTEX
  8
0
 10
90.756578
 20
134.382440
 42
-0.005648
  0
VERTEX
  8
0
 10
90.515381
 20
131.201111
 42
-0.120427
  0
VERTEX
  8
0
 10
90.214335
 20
130.312561
 42
-0.135457
  0
VERTEX
  8
0
 10
88.733220
 20
128.973271
 42
-0.047354
  0
VERTEX
  8
0
 10
86.032764
 20
127.921996
 42
-0.040485
  0
VERTEX
  8
0
 10
82.538352
 20
127.229341
 42
-0.028697
  0
VERTEX
  8
0
 10
78.545684
 20
127.000000
 42
0.021337
  0
VERTEX
  8
0
 10
76.015956
 20
126.891995
 42
0.037971
  0
VERTEX
  8
0
 10
73.959462
 20
126.557498
 42
0.046194
  0
VERTEX
  8
0
 10
72.293723
 20
125.987929
 42
0.064807
  0
VERTEX
  8
0
 10
70.956275
 20
125.165677
 42
0.000000
  0
VERTEX
  8
0
 10
68.690982
 20
123.331354
 42
0.000000
  0
VERTEX
  8
0
 10
74.508283
 20
119.165677
 42
0.017090
  0
VERTEX
  8
0
 10
77.236000
 20
117.350116
 42
0.029182
  0
VERTEX
  8
0
 10
79.643537
 20
116.051279
 42
0.035448
  0
VERTEX
  8
0
 10
81.725431
 20
115.254492
 42
0.073798
  0
VERTEX
  8
0
 10
83.440285
 20
115.000000
 42
-0.041860
  0
VERTEX
  8
0
 10
84.795433
 20
114.886349
 42
-0.029122
  0
VERTEX
  8
0
 10
86.292905
 20
114.542718
 42
-0.029487
  0
VERTEX
  8
0
 10
87.701266
 20
114.040162
 42
-0.052374
  0
VERTEX
  8
0
 10
88.777494
 20
113.443296
 42
-0.183781
  0
VERTEX
  8
0
 10
90.520175
 20
110.875566
 42
-0.065962
  0
VERTEX
  8
0
 10
90.973540
 20
106.403770
 42
-0.046746
  0
VERTEX
  8
0
 10
90.208145
 20
100.268861
 42
-0.021654
  0
VERTEX
  8
0
 10
88.134433
 20
92.500000
 42
0.000000
  0
VERTEX
  8
0
 10
85.309471
 20
83.500000
 42
0.000000
  0
VERTEX
  8
0
 10
70.231123
 20
82.931244
 42
0.003640
  0
VERTEX
  8
0
 10
61.228742
 20
82.526019
 42
0.026818
  0
VERTEX
  8
0
 10
56.951425
 20
82.071409
 42
0.055098
  0
VERTEX
  8
0
 10
54.153576
 20
81.298302
 42
0.054617
  0
VERTEX
  8
0
 10
51.583221
 20
79.931244
 42
0.013595
  0
VERTEX
  8
0
 10
50.215277
 20
78.944044
 42
0.019344
  0
VERTEX
  8
0
 10
49.060216
 20
77.988804
 42
0.015702
  0
VERTEX
  8
0
 10
48.180441
 20
77.150817
 42
0.194761
  0
VERTEX
  8
0
 10
48.006833
 20
76.732770
 42
-0.247989
  0
VERTEX
  8
0
 10
47.785830
 20
76.323450
 42
-0.009988
  0
VERTEX
  8
0
 10
46.318488
 20
75.383810
 42
-0.015507
  0
VERTEX
  8
0
 10
44.465742
 20
74.326466
 42
-0.010134
  0
VERTEX
  8
0
 10
42.268870
 20
73.217952
 42
0.017127
  0
VERTEX
  8
0
 10
39.390499
 20
71.714703
 42
0.049637
  0
VERTEX
  8
0
 10
37.557156
 20
70.420376
 42
0.070022
  0
VERTEX
  8
0
 10
36.389272
 20
69.080854
 42
0.072323
  0
VERTEX
  8
0
 10
35.651967
 20
67.485182
 42
-0.043731
  0
VERTEX
  8
0
 10
34.281411
 20
64.012016
 42
-0.099181
  0
VERTEX
  8
0
 10
32.555606
 20
61.792811
 42
-0.055383
  0
VERTEX
  8
0
 10
29.521477
 20
59.710575
 42
-0.006760
  0
VERTEX
  8
0
 10
22.346548
 20
56.000000
 42
0.009928
  0
VERTEX
  8
0
 10
14.100526
 20
51.669079
 42
0.019104
  0
VERTEX
  8
0
 10
7.706539
 20
47.821783
 42
0.021709
  0
VERTEX
  8
0
 10
3.090381
 20
44.503300
 42
0.103543
  0
VERTEX
  8
0
 10
1.014994
 20
42.028017
 42
0.097705
  0
VERTEX
  8
0
 10
0.192865
 20
39.337982
 42
0.033251
  0
VERTEX
  8
0
 10
0.047840
 20
35.235505
 42
0.033665
  0
VERTEX
  8
0
 10
0.459206
 20
31.070404
 42
0.078033
  0
VERTEX
  8
0
 10
1.448917
 20
28.098784
 42
0.065831
  0
VERTEX
  8
0
 10
3.676719
 20
24.902601
 42
0.042303
  0
VERTEX
  8
0
 10
7.000495
 20
21.830646
 42
0.039350
  0
VERTEX
  8
0
 10
11.102115
 20
19.126762
 42
0.036789
  0
VERTEX
  8
0
 10
15.668038
 20
17.029260
 42
-0.016700
  0
VERTEX
  8
0
 10
18.642246
 20
15.805024
 42
-0.005219
  0
VERTEX
  8
0
 10
23.018111
 20
13.775255
 42
-0.005209
  0
VERTEX
  8
0
 10
27.860843
 20
11.404983
 42
-0.005732
  0
VERTEX
  8
0
 10
32.500000
 20
9.007132
 42
0.019239
  0
VERTEX
  8
0
 10
42.952854
 20
3.957238
 42
0.051011
  0
VERTEX
  8
0
 10
50.847431
 20
1.431534
 42
0.042219
  0
VERTEX
  8
0
 10
59.905593
 20
0.308825
 42
0.009992
  0
VERTEX
  8
0
 10
75.144345
 20
0.020107
 42
0.004616
  0
VERTEX
  8
0
 10
83.031310
 20
0.101110
 42
0.004969
  0
VERTEX
  8
0
 10
90.723651
 20
0.327638
 42
0.004709
  0
VERTEX
  8
0
 10
97.320159
 20
0.649772
 42
0.023560
  0
VERTEX
  8
0
 10
101.000000
 20
1.038785
 42
-0.019415
  0
VERTEX
  8
0
 10
104.864395
 20
1.479714
 42
-0.002926
  0
VERTEX
  8
0
 10
112.640625
 20
2.016587
 42
-0.003280
  0
VERTEX
  8
0
 10
121.834737
 20
2.536774
 42
-0.002829
  0
VERTEX
  8
0
 10
131.500000
 20
2.965224
 42
0.002916
  0
VERTEX
  8
0
 10
146.172775
 20
3.618209
 42
0.016639
  0
VERTEX
  8
0
 10
153.947666
 20
4.269559
 42
0.023718
  0
VERTEX
  8
0
 10
160.425354
 20
5.343407
 42
0.010045
  0
VERTEX
  8
0
 10
169.000000
 20
7.367379
 42
0.007779
  0
VERTEX
  8
0
 10
179.449307
 20
10.230609
 42
0.024524
  0
VERTEX
  8
0
 10
186.316283
 20
12.598406
 42
0.036423
  0
VERTEX
  8
0
 10
190.853736
 20
14.812080
 42
0.108694
  0
VERTEX
  8
0
 10
193.383396
 20
17.136986
 42
0.122957
  0
VERTEX
  8
0
 10
194.756002
 20
20.714813
 42
0.035779
  0
VERTEX
  8
0
 10
195.053950
 20
26.655541
 42
0.036525
  0
VERTEX
  8
0
 10
194.458112
 20
32.946428
 42
0.064281
  0
VERTEX
  8
0
 10
192.937929
 20
37.934276
 42
0.006946
  0
VERTEX
  8
0
 10
190.027213
 20
44.147454
 42
0.030246
  0
VERTEX
  8
0
 10
188.035257
 20
47.687982
 42
0.043147
  0
VERTEX
  8
0
 10
185.993658
 20
50.322951
 42
0.025900
  0
VERTEX
  8
0
 10
183.160291
 20
53.090109
 42
0.040308
  0
VERTEX
  8
0
 10
179.366936
 20
55.921597
 42
0.058488
  0
VERTEX
  8
0
 10
175.596954
 20
57.713961
 42
0.053617
  0
VERTEX
  8
0
 10
171.272358
 20
58.680235
 42
0.027939
  0
VERTEX
  8
0
 10
165.750000
 20
58.994423
 42
-0.007886
  0
VERTEX
  8
0
 10
162.152345
 20
59.054660
 42
-0.096356
  0
VERTEX
  8
0
 10
160.816530
 20
59.359878
 42
-0.224734
  0
VERTEX
  8
0
 10
160.198694
 20
60.075895
 42
-0.067553
  0
VERTEX
  8
0
 10
160.000000
 20
61.539838
 42
0.109986
  0
VERTEX
  8
0
 10
159.010438
 20
65.983993
 42
0.067255
  0
VERTEX
  8
0
 10
156.087868
 20
70.518705
 42
0.054688
  0
VERTEX
  8
0
 10
151.368374
 20
74.957246
 42
0.034115
  0
VERTEX
  8
0
 10
145.000000
 20
79.104699
 42
0.086606
  0
VERTEX
  8
0
 10
143.094573
 20
79.770745
 42
0.014935
  0
VERTEX
  8
0
 10
139.289502
 20
80.282255
 42
0.012804
  0
VERTEX
  8
0
 10
134.012797
 20
80.695485
 42
0.005178
  0
VERTEX
  8
0
 10
126.799410
 20
81.000000
 42
-0.005257
  0
VERTEX
  8
0
 10
120.123616
 20
81.282878
 42
-0.011135
  0
VERTEX
  8
0
 10
114.961571
 20
81.671434
 42
-0.008142
  0
VERTEX
  8
0
 10
111.017350
 20
82.121760
 42
-0.165407
  0
VERTEX
  8
0
 10
109.953431
 20
82.645979
 42
-0.197894
  0
VERTEX
  8
0
 10
109.101106
 20
84.693809
 42
-0.002889
  0
VERTEX
  8
0
 10
109.129432
 20
98.082903
 42
-0.002927
  0
VERTEX
  8
0
 10
109.313329
 20
111.459244
 42
-0.194115
  0
VERTEX
  8
0
 10
110.197219
 20
113.532120
 42
-0.111274
  0
VERTEX
  8
0
 10
110.753563
 20
113.882967
 42
-0.005394
  0
VERTEX
  8
0
 10
112.834822
 20
114.596347
 42
-0.008561
  0
VERTEX
  8
0
 10
115.348804
 20
115.380367
 42
-0.006050
  0
VERTEX
  8
0
 10
118.197219
 20
116.178150
 42
0.017015
  0
VERTEX
  8
0
 10
124.252951
 20
118.018342
 42
0.047238
  0
VERTEX
  8
0
 10
128.304856
 20
119.844562
 42
0.077332
  0
VERTEX
  8
0
 10
130.622596
 20
121.689131
 42
0.229606
  0
VERTEX
  8
0
 10
131.193366
 20
123.582137
 42
0.134987
  0
VERTEX
  8
0
 10
130.180294
 20
125.809330
 42
0.101347
  0
VERTEX
  8
0
 10
128.065855
 20
127.496752
 42
0.061575
  0
VERTEX
  8
0
 10
124.503114
 20
128.791409
 42
0.019077
  0
VERTEX
  8
0
 10
118.889752
 20
129.855894
 42
-0.001134
  0
VERTEX
  8
0
 10
115.523761
 20
130.369878
 42
-0.001347
  0
VERTEX
  8
0
 10
112.348269
 20
130.870912
 42
-0.001167
  0
VERTEX
  8
0
 10
109.671370
 20
131.307087
 42
-0.008674
  0
VERTEX
  8
0
 10
108.402228
 20
131.539612
 42
-0.159086
  0
VERTEX
  8
0
 10
107.238946
 20
132.196548
 42
-0.122596
  0
VERTEX
  8
0
 10
106.539549
 20
133.485304
 42
-0.043481
  0
VERTEX
  8
0
 10
106.112444
 20
136.029369
 42
-0.004644
  0
VERTEX
  8
0
 10
105.692208
 20
142.011277
 42
0.018183
  0
VERTEX
  8
0
 10
104.779193
 20
151.373831
 42
0.115633
  0
VERTEX
  8
0
 10
103.090484
 20
155.808863
 42
0.228955
  0
VERTEX
  8
0
 10
100.207720
 20
157.484730
 42
0.093447
  0
SEQEND
  0
ENDSEC
  0
EOF
