  0
SECTION
  2
HEADER
  9
$ACADVER
  1
AC1006
  9
$EXTMIN
 10
0.000000
 20
0.000000
 30
0.000000
  9
$EXTMAX
 10
200.000000
 20
158.000000
 30
0.000000
  0
ENDSEC
  0
SECTION
  2
ENTITIES
  0
POLYLINE
  8
0
 66
1
 70
1
  0
VERTEX
  8
0
 10
94.325439
 20
155.931051
 42
0.067467
  0
VERTEX
  8
0
 10
91.347844
 20
153.919324
 42
0.081005
  0
VERTEX
  8
0
 10
89.223863
 20
151.294041
 42
0.081158
  0
VERTEX
  8
0
 10
88.046683
 20
148.134210
 42
0.068036
  0
VERTEX
  8
0
 10
87.836300
 20
144.560051
 42
-0.003091
  0
VERTEX
  8
0
 10
87.941943
 20
143.072222
 42
-0.001313
  0
VERTEX
  8
0
 10
88.065961
 20
141.077015
 42
-0.001299
  0
VERTEX
  8
0
 10
88.187206
 20
138.946827
 42
-0.001701
  0
VERTEX
  8
0
 10
88.286300
 20
137.000000
 42
0.000000
  0
VERTEX
  8
0
 10
88.500000
 20
132.500000
 42
0.000000
  0
VERTEX
  8
0
 10
83.000000
 20
131.883370
 42
0.035449
  0
VERTEX
  8
0
 10
77.980514
 20
130.956920
 42
0.052756
  0
VERTEX
  8
0
 10
73.801237
 20
129.389559
 42
0.063771
  0
VERTEX
  8
0
 10
70.704981
 20
127.309346
 42
0.115294
  0
VERTEX
  8
0
 10
68.933887
 20
124.840389
 42
0.100764
  0
VERTEX
  8
0
 10
68.364822
 20
121.910648
 42
0.265483
  0
VERTEX
  8
0
 10
69.404047
 20
120.128799
 42
0.115450
  0
VERTEX
  8
0
 10
72.433662
 20
119.211764
 42
0.016011
  0
VERTEX
  8
0
 10
79.044893
 20
119.000000
 42
0.000000
  0
VERTEX
  8
0
 10
87.844896
 20
119.000000
 42
0.000000
  0
VERTEX
  8
0
 10
89.043333
 20
115.368701
 42
-0.072494
  0
VERTEX
  8
0
 10
89.889861
 20
110.553935
 42
-0.028112
  0
VERTEX
  8
0
 10
89.707315
 20
103.770204
 42
-0.028326
  0
VERTEX
  8
0
 10
88.742261
 20
96.909644
 42
-0.058074
  0
VERTEX
  8
0
 10
87.075794
 20
91.750000
 42
0.000000
  0
VERTEX
  8
0
 10
84.906411
 20
87.000000
 42
0.000000
  0
VERTEX
  8
0
 10
72.203206
 20
86.978908
 42
0.006662
  0
VERTEX
  8
0
 10
65.140455
 20
86.873072
 42
0.023386
  0
VERTEX
  8
0
 10
60.606095
 20
86.532028
 42
0.031806
  0
VERTEX
  8
0
 10
56.896664
 20
85.836205
 42
0.022582
  0
VERTEX
  8
0
 10
52.844693
 20
84.608601
 42
0.039493
  0
VERTEX
  8
0
 10
45.006788
 20
81.124610
 42
0.053544
  0
VERTEX
  8
0
 10
38.635911
 20
76.726615
 42
0.064439
  0
VERTEX
  8
0
 10
34.392092
 20
71.993125
 42
0.151700
  0
VERTEX
  8
0
 10
33.000000
 20
67.510404
 42
-0.096982
  0
VERTEX
  8
0
 10
32.779667
 20
66.385142
 42
-0.120947
  0
VERTEX
  8
0
 10
32.156230
 20
65.525473
 42
-0.079576
  0
VERTEX
  8
0
 10
30.981497
 20
64.815204
 42
-0.023479
  0
VERTEX
  8
0
 10
28.990695
 20
64.115358
 42
0.054568
  0
VERTEX
  8
0
 10
26.958892
 20
63.256029
 42
0.021343
  0
VERTEX
  8
0
 10
24.361974
 20
61.657295
 42
0.019810
  0
VERTEX
  8
0
 10
21.533991
 20
59.577450
 42
0.017233
  0
VERTEX
  8
0
 10
18.740695
 20
57.185250
 42
-0.004125
  0
VERTEX
  8
0
 10
16.002964
 20
54.713354
 42
-0.003044
  0
VERTEX
  8
0
 10
12.933334
 20
52.020666
 42
-0.003076
  0
VERTEX
  8
0
 10
10.000595
 20
49.510908
 42
-0.006882
  0
VERTEX
  8
0
 10
7.734485
 20
47.648516
 42
0.032059
  0
VERTEX
  8
0
 10
4.076743
 20
44.320372
 42
0.063304
  0
VERTEX
  8
0
 10
1.729063
 20
41.180371
 42
0.072568
  0
VERTEX
  8
0
 10
0.437270
 20
37.856578
 42
0.056510
  0
VERTEX
  8
0
 10
-0.000000
 20
34.000000
 42
0.078793
  0
VERTEX
  8
0
 10
0.825309
 20
28.795325
 42
0.131581
  0
VERTEX
  8
0
 10
3.226104
 20
25.100221
 42
0.071734
  0
VERTEX
  8
0
 10
8.261328
 20
21.730798
 42
0.011701
  0
VERTEX
  8
0
 10
19.000000
 20
16.895101
 42
-0.008418
  0
VERTEX
  8
0
 10
22.040483
 20
15.549892
 42
-0.008927
  0
VERTEX
  8
0
 10
24.974433
 20
14.128167
 42
-0.008602
  0
VERTEX
  8
0
 10
27.455157
 20
12.816776
 42
-0.039934
  0
VERTEX
  8
0
 10
28.806580
 20
11.924943
 42
0.064667
  0
VERTEX
  8
0
 10
31.918474
 20
10.084914
 42
0.026521
  0
VERTEX
  8
0
 10
36.532749
 20
8.391117
 42
0.022149
  0
VERTEX
  8
0
 10
42.427496
 20
6.857736
 42
0.013004
  0
VERTEX
  8
0
 10
49.592859
 20
5.522821
 42
-0.002814
  0
VERTEX
  8
0
 10
53.584537
 20
4.863024
 42
-0.001779
  0
VERTEX
  8
0
 10
58.233527
 20
4.050632
 42
-0.001786
  0
VERTEX
  8
0
 10
62.796089
 20
3.219769
 42
-0.003293
  0
VERTEX
  8
0
 10
66.500000
 20
2.506325
 42
0.026618
  0
VERTEX
  8
0
 10
71.917515
 20
1.722694
 42
0.008843
  0
VERTEX
  8
0
 10
79.922035
 20
1.139389
 42
0.006597
  0
VERTEX
  8
0
 10
90.885505
 20
0.680146
 42
0.002486
  0
VERTEX
  8
0
 10
106.236176
 20
0.316300
 42
0.001184
  0
VERTEX
  8
0
 10
126.753364
 20
-0.019369
 42
0.014410
  0
VERTEX
  8
0
 10
134.616180
 20
0.097209
 42
0.037111
  0
VERTEX
  8
0
 10
139.524018
 20
0.678197
 42
0.038362
  0
VERTEX
  8
0
 10
144.236176
 20
1.975767
 42
0.015251
  0
VERTEX
  8
0
 10
152.765858
 20
5.342070
 42
0.009165
  0
VERTEX
  8
0
 10
162.683515
 20
9.827291
 42
0.007791
  0
VERTEX
  8
0
 10
171.787557
 20
14.322373
 42
0.046909
  0
VERTEX
  8
0
 10
176.230569
 20
17.157454
 42
-0.018366
  0
VERTEX
  8
0
 10
178.034755
 20
18.459105
 42
-0.009083
  0
VERTEX
  8
0
 10
180.413178
 20
19.983908
 42
-0.009001
  0
VERTEX
  8
0
 10
182.940663
 20
21.478157
 42
-0.013011
  0
VERTEX
  8
0
 10
185.230569
 20
22.699277
 42
0.033281
  0
VERTEX
  8
0
 10
192.234377
 20
26.806884
 42
0.076380
  0
VERTEX
  8
0
 10
196.699029
 20
30.961331
 42
0.094170
  0
VERTEX
  8
0
 10
199.155505
 20
35.666889
 42
0.073465
  0
VERTEX
  8
0
 10
200.000000
 20
41.383437
 42
0.131086
  0
VERTEX
  8
0
 10
198.490359
 20
47.042721
 42
0.104459
  0
VERTEX
  8
0
 10
194.263617
 20
51.770227
 42
0.061668
  0
VERTEX
  8
0
 10
186.432614
 20
56.149778
 42
0.017577
  0
VERTEX
  8
0
 10
173.329099
 20
60.956614
 42
-0.010615
  0
VERTEX
  8
0
 10
166.533002
 20
63.342869
 42
-0.088150
  0
VERTEX
  8
0
 10
163.732959
 20
65.001372
 42
-0.158306
  0
VERTEX
  8
0
 10
162.440939
 20
67.126811
 42
-0.056552
  0
VERTEX
  8
0
 10
162.013655
 20
70.694236
 42
0.076939
  0
VERTEX
  8
0
 10
161.847654
 20
71.724196
 42
0.032547
  0
VERTEX
  8
0
 10
161.328973
 20
73.028695
 42
0.031235
  0
VERTEX
  8
0
 10
160.582496
 20
74.375951
 42
0.035503
  0
VERTEX
  8
0
 10
159.701997
 20
75.560061
 42
0.074208
  0
VERTEX
  8
0
 10
157.978469
 20
77.048350
 42
0.052566
  0
VERTEX
  8
0
 10
155.683786
 20
78.182699
 42
0.030068
  0
VERTEX
  8
0
 10
152.151127
 20
79.252123
 42
0.006582
  0
VERTEX
  8
0
 10
145.951997
 20
80.642753
 42
0.001213
  0
VERTEX
  8
0
 10
133.295758
 20
83.275342
 42
0.009868
  0
VERTEX
  8
0
 10
127.477768
 20
84.351610
 42
0.020631
  0
VERTEX
  8
0
 10
123.511429
 20
84.837639
 42
0.020171
  0
VERTEX
  8
0
 10
119.488510
 20
85.000000
 42
-0.040243
  0
VERTEX
  8
0
 10
111.154773
 20
85.671833
 42
-0.188236
  0
VERTEX
  8
0
 10
107.085122
 20
88.072753
 42
-0.144711
  0
VERTEX
  8
0
 10
105.118402
 20
93.021921
 42
-0.020938
  0
VERTEX
  8
0
 10
104.581340
 20
103.984226
 42
0.000000
  0
VERTEX
  8
0
 10
104.500000
 20
115.468452
 42
0.000000
  0
VERTEX
  8
0
 10
113.500000
 20
118.297628
 42
0.003118
  0
VERTEX
  8
0
 10
121.990028
 20
121.024784
 42
0.027641
  0
VERTEX
  8
0
 10
125.651519
 20
122.454687
 42
0.069846
  0
VERTEX
  8
0
 10
127.566453
 20
123.674132
 42
0.140145
  0
VERTEX
  8
0
 10
128.549365
 20
125.155534
 42
0.162578
  0
VERTEX
  8
0
 10
128.513603
 20
127.538672
 42
0.220549
  0
VERTEX
  8
0
 10
127.033427
 20
129.060604
 42
0.079623
  0
VERTEX
  8
0
 10
123.393972
 20
129.822061
 42
0.011835
  0
VERTEX
  8
0
 10
115.877555
 20
130.000000
 42
0.000000
  0
VERTEX
  8
0
 10
105.000000
 20
130.000000
 42
0.000000
  0
VERTEX
  8
0
 10
105.000000
 20
135.894665
 42
0.043208
  0
VERTEX
  8
0
 10
104.550253
 20
141.089414
 42
0.019764
  0
VERTEX
  8
0
 10
103.115477
 20
147.747567
 42
0.016548
  0
VERTEX
  8
0
 10
101.286777
 20
153.992602
 42
0.111876
  0
VERTEX
  8
0
 10
99.638800
 20
156.736994
 42
0.127262
  0
VERTEX
  8
0
 10
98.836177
 20
157.233548
 42
0.113332
  0
VERTEX
  8
0
 10
97.856041
 20
157.307360
 42
0.062396
  0
VERTEX
  8
0
 10
96.483857
 20
156.919956
 42
0.014914
  0
SEQEND
  0
ENDSEC
  0
EOF
