  0
SECTION
  2
HEADER
  9
$ACADVER
  1
AC1006
  9
$EXTMIN
 10
0.000000
 20
0.000000
 30
0.000000
  9
$EXTMAX
 10
169.000000
 20
209.000000
 30
0.000000
  0
ENDSEC
  0
SECTION
  2
ENTITIES
  0
POLYLINE
  8
0
 66
1
 70
1
  0
VERTEX
  8
0
 10
52.000000
 20
207.459934
 42
-0.023125
  0
VERTEX
  8
0
 10
49.702373
 20
206.856957
 42
-0.038926
  0
VERTEX
  8
0
 10
47.727430
 20
206.593549
 42
-0.043123
  0
VERTEX
  8
0
 10
45.885735
 20
206.651422
 42
-0.038046
  0
VERTEX
  8
0
 10
44.000000
 20
207.021253
 42
0.041131
  0
VERTEX
  8
0
 10
40.351573
 20
207.713477
 42
0.024317
  0
VERTEX
  8
0
 10
35.923645
 20
207.964652
 42
0.016971
  0
VERTEX
  8
0
 10
31.799477
 20
207.857820
 42
0.244024
  0
VERTEX
  8
0
 10
30.579826
 20
207.129162
 42
-0.125160
  0
VERTEX
  8
0
 10
30.194386
 20
206.756759
 42
-0.028608
  0
VERTEX
  8
0
 10
29.376368
 20
206.349463
 42
-0.027860
  0
VERTEX
  8
0
 10
28.351197
 20
205.976333
 42
-0.023995
  0
VERTEX
  8
0
 10
27.238727
 20
205.697745
 42
0.203964
  0
VERTEX
  8
0
 10
23.612740
 20
203.218117
 42
0.102187
  0
VERTEX
  8
0
 10
21.594641
 20
197.935493
 42
0.055603
  0
VERTEX
  8
0
 10
21.158378
 20
189.244830
 42
0.016572
  0
VERTEX
  8
0
 10
22.408082
 20
176.000000
 42
0.012490
  0
VERTEX
  8
0
 10
23.294456
 20
170.221088
 42
0.024647
  0
VERTEX
  8
0
 10
24.336839
 20
165.697022
 42
0.024820
  0
VERTEX
  8
0
 10
25.814186
 20
161.317884
 42
0.012858
  0
VERTEX
  8
0
 10
28.067037
 20
156.000000
 42
0.004762
  0
VERTEX
  8
0
 10
29.852036
 20
152.168271
 42
0.005319
  0
VERTEX
  8
0
 10
31.646411
 20
148.510904
 42
0.004922
  0
VERTEX
  8
0
 10
33.238176
 20
145.427843
 42
0.027919
  0
VERTEX
  8
0
 10
34.191481
 20
143.845630
 42
-0.035352
  0
VERTEX
  8
0
 10
34.883871
 20
142.656877
 42
-0.027532
  0
VERTEX
  8
0
 10
35.468748
 20
141.280012
 42
-0.028229
  0
VERTEX
  8
0
 10
35.871908
 20
139.929974
 42
-0.058506
  0
VERTEX
  8
0
 10
36.000000
 20
138.839028
 42
0.028777
  0
VERTEX
  8
0
 10
36.065175
 20
137.707572
 42
0.012550
  0
VERTEX
  8
0
 10
36.275455
 20
136.217309
 42
0.012372
  0
VERTEX
  8
0
 10
36.578608
 20
134.641179
 42
0.016136
  0
VERTEX
  8
0
 10
36.937719
 20
133.217161
 42
-0.036635
  0
VERTEX
  8
0
 10
37.334673
 20
131.318118
 42
-0.006705
  0
VERTEX
  8
0
 10
37.762326
 20
127.753884
 42
-0.007177
  0
VERTEX
  8
0
 10
38.147706
 20
123.560737
 42
-0.006468
  0
VERTEX
  8
0
 10
38.428096
 20
119.210174
 42
0.000000
  0
VERTEX
  8
0
 10
38.980755
 20
108.472821
 42
0.000000
  0
VERTEX
  8
0
 10
34.813466
 20
102.598501
 42
-0.005292
  0
VERTEX
  8
0
 10
32.289557
 20
99.119360
 42
-0.071828
  0
VERTEX
  8
0
 10
31.187608
 20
98.008991
 42
-0.341022
  0
VERTEX
  8
0
 10
30.468887
 20
98.017267
 42
-0.137777
  0
VERTEX
  8
0
 10
29.855313
 20
98.862090
 42
0.072764
  0
VERTEX
  8
0
 10
29.358255
 20
99.772846
 42
0.085020
  0
VERTEX
  8
0
 10
28.642532
 20
100.448094
 42
0.082631
  0
VERTEX
  8
0
 10
27.725160
 20
100.859737
 42
0.064314
  0
VERTEX
  8
0
 10
26.639213
 20
101.000000
 42
0.102126
  0
VERTEX
  8
0
 10
25.019257
 20
100.665635
 42
0.141401
  0
VERTEX
  8
0
 10
23.879606
 20
99.728806
 42
0.106150
  0
VERTEX
  8
0
 10
23.207688
 20
98.095662
 42
0.042102
  0
VERTEX
  8
0
 10
22.977230
 20
95.668213
 42
-0.032074
  0
VERTEX
  8
0
 10
22.901218
 20
94.651535
 42
-0.553934
  0
VERTEX
  8
0
 10
22.650894
 20
94.539649
 42
-0.124776
  0
VERTEX
  8
0
 10
22.248510
 20
94.988252
 42
-0.006225
  0
VERTEX
  8
0
 10
21.345547
 20
96.763998
 42
0.102958
  0
VERTEX
  8
0
 10
18.946926
 20
99.834470
 42
0.173729
  0
VERTEX
  8
0
 10
15.922113
 20
100.967547
 42
0.276707
  0
VERTEX
  8
0
 10
13.819673
 20
99.748325
 42
0.177523
  0
VERTEX
  8
0
 10
13.374256
 20
96.878720
 42
-0.028179
  0
VERTEX
  8
0
 10
13.660669
 20
94.861657
 42
-0.311879
  0
VERTEX
  8
0
 10
13.276935
 20
94.191343
 42
-0.257316
  0
VERTEX
  8
0
 10
12.429337
 20
94.240113
 42
-0.021599
  0
VERTEX
  8
0
 10
10.558870
 20
95.531803
 42
0.075734
  0
VERTEX
  8
0
 10
9.515978
 20
96.096648
 42
0.028626
  0
VERTEX
  8
0
 10
7.922217
 20
96.568717
 42
0.027563
  0
VERTEX
  8
0
 10
6.100951
 20
96.891891
 42
0.030135
  0
VERTEX
  8
0
 10
4.308870
 20
97.000000
 42
0.015101
  0
VERTEX
  8
0
 10
1.952217
 20
96.928807
 42
0.094134
  0
VERTEX
  8
0
 10
0.786834
 20
96.633577
 42
0.187354
  0
VERTEX
  8
0
 10
0.206725
 20
96.028766
 42
0.098855
  0
VERTEX
  8
0
 10
0.000000
 20
94.993387
 42
0.096569
  0
VERTEX
  8
0
 10
0.180932
 20
94.065324
 42
0.040063
  0
VERTEX
  8
0
 10
0.756587
 20
92.918372
 42
0.037711
  0
VERTEX
  8
0
 10
1.590080
 20
91.752430
 42
0.039790
  0
VERTEX
  8
0
 10
2.575615
 20
90.747305
 42
0.000000
  0
VERTEX
  8
0
 10
5.151230
 20
88.507836
 42
0.000000
  0
VERTEX
  8
0
 10
2.830866
 20
87.960073
 42
0.115518
  0
VERTEX
  8
0
 10
1.226202
 20
87.161361
 42
0.139597
  0
VERTEX
  8
0
 10
0.277347
 20
85.778984
 42
0.139753
  0
VERTEX
  8
0
 10
0.199589
 20
84.105354
 42
0.115876
  0
VERTEX
  8
0
 10
0.997416
 20
82.503113
 42
0.073044
  0
VERTEX
  8
0
 10
1.687022
 20
81.883182
 42
0.022492
  0
VERTEX
  8
0
 10
2.888428
 20
81.160677
 42
0.021973
  0
VERTEX
  8
0
 10
4.322682
 20
80.463390
 42
0.022456
  0
VERTEX
  8
0
 10
5.802361
 20
79.900212
 42
-0.015210
  0
VERTEX
  8
0
 10
7.287970
 20
79.359282
 42
-0.015151
  0
VERTEX
  8
0
 10
8.739900
 20
78.728385
 42
-0.015168
  0
VERTEX
  8
0
 10
9.973028
 20
78.101156
 42
-0.055850
  0
VERTEX
  8
0
 10
10.687665
 20
77.599060
 42
0.014479
  0
VERTEX
  8
0
 10
13.032539
 20
75.643602
 42
0.043779
  0
VERTEX
  8
0
 10
14.772059
 20
74.507323
 42
0.045075
  0
VERTEX
  8
0
 10
16.654994
 20
73.708925
 42
0.016070
  0
VERTEX
  8
0
 10
19.465371
 20
72.904403
 42
0.048954
  0
VERTEX
  8
0
 10
23.877386
 20
72.242801
 42
0.044208
  0
VERTEX
  8
0
 10
28.490943
 20
72.415166
 42
0.046413
  0
VERTEX
  8
0
 10
32.726380
 20
73.355454
 42
0.077041
  0
VERTEX
  8
0
 10
35.989525
 20
74.992541
 42
-0.016769
  0
VERTEX
  8
0
 10
37.149218
 20
75.761054
 42
-0.019474
  0
VERTEX
  8
0
 10
38.302438
 20
76.410309
 42
-0.018856
  0
VERTEX
  8
0
 10
39.310505
 20
76.880110
 42
-0.099932
  0
VERTEX
  8
0
 10
39.904370
 20
77.000000
 42
0.076919
  0
VERTEX
  8
0
 10
40.322940
 20
77.064776
 42
0.089781
  0
VERTEX
  8
0
 10
40.678159
 20
77.252494
 42
0.100767
  0
VERTEX
  8
0
 10
40.915625
 20
77.531748
 42
0.126632
  0
VERTEX
  8
0
 10
41.000000
 20
77.859555
 42
-0.165124
  0
VERTEX
  8
0
 10
41.168421
 20
78.355633
 42
-0.012788
  0
VERTEX
  8
0
 10
42.063850
 20
79.462559
 42
-0.016399
  0
VERTEX
  8
0
 10
43.234316
 20
80.748212
 42
-0.011756
  0
VERTEX
  8
0
 10
44.621619
 20
82.109555
 42
0.003878
  0
VERTEX
  8
0
 10
46.235123
 20
83.643718
 42
0.002444
  0
VERTEX
  8
0
 10
48.096315
 20
85.458744
 42
0.002454
  0
VERTEX
  8
0
 10
49.909018
 20
87.261467
 42
0.004506
  0
VERTEX
  8
0
 10
51.364694
 20
88.750000
 42
-0.012334
  0
VERTEX
  8
0
 10
52.620812
 20
89.994875
 42
-0.016982
  0
VERTEX
  8
0
 10
53.812999
 20
91.045312
 42
-0.013670
  0
VERTEX
  8
0
 10
54.839882
 20
91.843889
 42
-0.159748
  0
VERTEX
  8
0
 10
55.316029
 20
92.000000
 42
-0.174892
  0
VERTEX
  8
0
 10
55.821316
 20
91.817682
 42
-0.007558
  0
VERTEX
  8
0
 10
57.276013
 20
90.573189
 42
-0.012114
  0
VERTEX
  8
0
 10
58.970667
 20
89.003864
 42
-0.008262
  0
VERTEX
  8
0
 10
60.822954
 20
87.142770
 42
0.020995
  0
VERTEX
  8
0
 10
62.870467
 20
85.187683
 42
0.018670
  0
VERTEX
  8
0
 10
65.154243
 20
83.329552
 42
0.019071
  0
VERTEX
  8
0
 10
67.335361
 20
81.813166
 42
0.053289
  0
VERTEX
  8
0
 10
69.000000
 20
80.982393
 42
-0.014529
  0
VERTEX
  8
0
 10
72.193740
 20
79.686431
 42
-0.002099
  0
VERTEX
  8
0
 10
78.617499
 20
76.827507
 42
-0.002557
  0
VERTEX
  8
0
 10
85.595682
 20
73.643665
 42
-0.003657
  0
VERTEX
  8
0
 10
91.750000
 20
70.742779
 42
-0.019724
  0
VERTEX
  8
0
 10
92.611229
 20
70.286470
 42
-0.027813
  0
VERTEX
  8
0
 10
93.336639
 20
69.808833
 42
-0.026977
  0
VERTEX
  8
0
 10
93.868479
 20
69.368242
 42
-0.212937
  0
VERTEX
  8
0
 10
93.991751
 20
69.081020
 42
-0.271831
  0
VERTEX
  8
0
 10
93.415710
 20
68.130907
 42
-0.001293
  0
VERTEX
  8
0
 10
82.947376
 20
62.515648
 42
-0.004873
  0
VERTEX
  8
0
 10
73.303190
 20
57.494627
 42
-0.040100
  0
VERTEX
  8
0
 10
68.727319
 20
55.613107
 42
0.070398
  0
VERTEX
  8
0
 10
68.007946
 20
55.265153
 42
0.049261
  0
VERTEX
  8
0
 10
67.312109
 20
54.691412
 42
0.049278
  0
VERTEX
  8
0
 10
66.742233
 20
53.992939
 42
0.070634
  0
VERTEX
  8
0
 10
66.398880
 20
53.272681
 42
-0.020933
  0
VERTEX
  8
0
 10
66.087889
 20
52.409118
 42
-0.008135
  0
VERTEX
  8
0
 10
65.588792
 20
51.241027
 42
-0.008037
  0
VERTEX
  8
0
 10
65.006570
 20
49.991821
 42
-0.009871
  0
VERTEX
  8
0
 10
64.421561
 20
48.845708
 42
0.049665
  0
VERTEX
  8
0
 10
63.875498
 20
47.526462
 42
0.022680
  0
VERTEX
  8
0
 10
63.417583
 20
45.716879
 42
0.022195
  0
VERTEX
  8
0
 10
63.104131
 20
43.750939
 42
0.028439
  0
VERTEX
  8
0
 10
63.000000
 20
41.921679
 42
0.049667
  0
VERTEX
  8
0
 10
63.258932
 20
39.321428
 42
0.070080
  0
VERTEX
  8
0
 10
64.031006
 20
37.127893
 42
0.043479
  0
VERTEX
  8
0
 10
65.658070
 20
34.562812
 42
0.008774
  0
VERTEX
  8
0
 10
69.012780
 20
30.325972
 42
-0.005619
  0
VERTEX
  8
0
 10
72.112518
 20
26.461500
 42
-0.039730
  0
VERTEX
  8
0
 10
73.441377
 20
24.456803
 42
-0.167435
  0
VERTEX
  8
0
 10
73.615965
 20
23.464504
 42
-0.368763
  0
VERTEX
  8
0
 10
73.071797
 20
23.000000
 42
-0.041973
  0
VERTEX
  8
0
 10
72.283311
 20
23.066308
 42
-0.043905
  0
VERTEX
  8
0
 10
71.529207
 20
23.263327
 42
-0.048060
  0
VERTEX
  8
0
 10
70.914543
 20
23.552211
 42
-0.121042
  0
VERTEX
  8
0
 10
70.564009
 20
23.896431
 42
0.132926
  0
VERTEX
  8
0
 10
68.526673
 20
25.805549
 42
0.042152
  0
VERTEX
  8
0
 10
64.664826
 20
27.458218
 42
0.039695
  0
VERTEX
  8
0
 10
59.965235
 20
28.612085
 42
0.040375
  0
VERTEX
  8
0
 10
55.169206
 20
29.000000
 42
0.021411
  0
VERTEX
  8
0
 10
50.536253
 20
28.801519
 42
0.092918
  0
VERTEX
  8
0
 10
47.897749
 20
28.068636
 42
0.165722
  0
VERTEX
  8
0
 10
46.507890
 20
26.680724
 42
0.114912
  0
VERTEX
  8
0
 10
46.000000
 20
24.500000
 42
0.103441
  0
VERTEX
  8
0
 10
46.433274
 20
22.428106
 42
0.151109
  0
VERTEX
  8
0
 10
47.643103
 20
21.026939
 42
0.105063
  0
VERTEX
  8
0
 10
49.811144
 20
20.237408
 42
0.034985
  0
VERTEX
  8
0
 10
53.200000
 20
20.000000
 42
-0.019530
  0
VERTEX
  8
0
 10
57.524455
 20
19.831019
 42
-0.644525
  0
VERTEX
  8
0
 10
57.792729
 20
19.090687
 42
-0.159508
  0
VERTEX
  8
0
 10
56.052455
 20
18.234824
 42
-0.012011
  0
VERTEX
  8
0
 10
50.756061
 20
17.613946
 42
0.021827
  0
VERTEX
  8
0
 10
45.513780
 20
16.894855
 42
0.098306
  0
VERTEX
  8
0
 10
42.651185
 20
15.764920
 42
0.187809
  0
VERTEX
  8
0
 10
41.402151
 20
14.043063
 42
0.126209
  0
VERTEX
  8
0
 10
41.389402
 20
11.584636
 42
0.074826
  0
VERTEX
  8
0
 10
42.003240
 20
10.113443
 42
0.171248
  0
VERTEX
  8
0
 10
42.919865
 20
9.361627
 42
0.076276
  0
VERTEX
  8
0
 10
44.606466
 20
9.027676
 42
0.007455
  0
VERTEX
  8
0
 10
48.769052
 20
8.909812
 42
-0.002415
  0
VERTEX
  8
0
 10
52.761470
 20
8.837029
 42
-0.066161
  0
VERTEX
  8
0
 10
53.797535
 20
8.674942
 42
-0.716458
  0
VERTEX
  8
0
 10
53.808363
 20
8.405114
 42
-0.021612
  0
VERTEX
  8
0
 10
52.250000
 20
7.881220
 42
0.080945
  0
VERTEX
  8
0
 10
50.028823
 20
6.828379
 42
0.201072
  0
VERTEX
  8
0
 10
49.076993
 20
5.342646
 42
0.189479
  0
VERTEX
  8
0
 10
49.442660
 20
3.553445
 42
0.071769
  0
VERTEX
  8
0
 10
51.153067
 20
1.600969
 42
0.062062
  0
VERTEX
  8
0
 10
52.608466
 20
0.638817
 42
0.095381
  0
VERTEX
  8
0
 10
54.059838
 20
0.237168
 42
0.052639
  0
VERTEX
  8
0
 10
56.115224
 20
0.289361
 42
0.008276
  0
VERTEX
  8
0
 10
60.124931
 20
0.883556
 42
-0.024375
  0
VERTEX
  8
0
 10
63.890973
 20
1.318299
 42
-0.010603
  0
VERTEX
  8
0
 10
68.924336
 20
1.544868
 42
-0.009563
  0
VERTEX
  8
0
 10
74.797985
 20
1.572188
 42
-0.007307
  0
VERTEX
  8
0
 10
81.221864
 20
1.385275
 42
0.005643
  0
VERTEX
  8
0
 10
89.850418
 20
1.105471
 42
0.025210
  0
VERTEX
  8
0
 10
94.908903
 20
1.253619
 42
0.030371
  0
VERTEX
  8
0
 10
99.478060
 20
1.899429
 42
0.010795
  0
VERTEX
  8
0
 10
105.914494
 20
3.357160
 42
0.021645
  0
VERTEX
  8
0
 10
116.688382
 20
6.544057
 42
0.020687
  0
VERTEX
  8
0
 10
127.313692
 20
10.692738
 42
0.014658
  0
VERTEX
  8
0
 10
136.318423
 20
14.964272
 42
0.216450
  0
VERTEX
  8
0
 10
138.444759
 20
17.635925
 42
-0.078031
  0
VERTEX
  8
0
 10
138.867336
 20
18.630832
 42
-0.042360
  0
VERTEX
  8
0
 10
139.664921
 20
19.697467
 42
-0.040912
  0
VERTEX
  8
0
 10
140.682980
 20
20.669517
 42
-0.050857
  0
VERTEX
  8
0
 10
141.778114
 20
21.385258
 42
0.082393
  0
VERTEX
  8
0
 10
146.327623
 20
24.784346
 42
0.010098
  0
VERTEX
  8
0
 10
154.776451
 20
33.953708
 42
0.011882
  0
VERTEX
  8
0
 10
162.838338
 20
43.514147
 42
0.051309
  0
VERTEX
  8
0
 10
166.870381
 20
49.745925
 42
0.075025
  0
VERTEX
  8
0
 10
168.122288
 20
53.498836
 42
0.031107
  0
VERTEX
  8
0
 10
168.710920
 20
58.827833
 42
0.011107
  0
VERTEX
  8
0
 10
168.956194
 20
68.405204
 42
0.000848
  0
VERTEX
  8
0
 10
169.000000
 20
94.247754
 42
0.000000
  0
VERTEX
  8
0
 10
169.000000
 20
134.575184
 42
0.000000
  0
VERTEX
  8
0
 10
164.215651
 20
139.287592
 42
0.010305
  0
VERTEX
  8
0
 10
162.305665
 20
141.092836
 42
0.014520
  0
VERTEX
  8
0
 10
160.525134
 20
142.615730
 42
0.010653
  0
VERTEX
  8
0
 10
158.999447
 20
143.793044
 42
0.160332
  0
VERTEX
  8
0
 10
158.370638
 20
144.000000
 42
-0.121346
  0
VERTEX
  8
0
 10
157.843434
 20
144.129860
 42
-0.031384
  0
VERTEX
  8
0
 10
157.089865
 20
144.587500
 42
-0.030041
  0
VERTEX
  8
0
 10
156.270823
 20
145.234495
 42
-0.026654
  0
VERTEX
  8
0
 10
155.500000
 20
146.000000
 42
0.041390
  0
VERTEX
  8
0
 10
154.682618
 20
146.765297
 42
0.037673
  0
VERTEX
  8
0
 10
153.725260
 20
147.412500
 42
0.039776
  0
VERTEX
  8
0
 10
152.776801
 20
147.858595
 42
0.090276
  0
VERTEX
  8
0
 10
152.000000
 20
148.000000
 42
-0.090276
  0
VERTEX
  8
0
 10
151.223199
 20
148.141405
 42
-0.039776
  0
VERTEX
  8
0
 10
150.274740
 20
148.587500
 42
-0.037673
  0
VERTEX
  8
0
 10
149.317382
 20
149.234703
 42
-0.041390
  0
VERTEX
  8
0
 10
148.500000
 20
150.000000
 42
0.034108
  0
VERTEX
  8
0
 10
147.706028
 20
150.765346
 42
0.034495
  0
VERTEX
  8
0
 10
146.818231
 20
151.412500
 42
0.036661
  0
VERTEX
  8
0
 10
145.969137
 20
151.862822
 42
0.103959
  0
VERTEX
  8
0
 10
145.316496
 20
152.000000
 42
-0.107596
  0
VERTEX
  8
0
 10
143.938335
 20
152.300044
 42
-0.007761
  0
VERTEX
  8
0
 10
140.393481
 20
153.987370
 42
-0.008443
  0
VERTEX
  8
0
 10
135.531197
 20
156.498159
 42
-0.002995
  0
VERTEX
  8
0
 10
128.658856
 20
160.248446
 42
0.039232
  0
VERTEX
  8
0
 10
127.186172
 20
160.918700
 42
0.024052
  0
VERTEX
  8
0
 10
125.363350
 20
161.483742
 42
0.024045
  0
VERTEX
  8
0
 10
123.493362
 20
161.871411
 42
0.038996
  0
VERTEX
  8
0
 10
121.875953
 20
161.998446
 42
-0.049653
  0
VERTEX
  8
0
 10
120.175995
 20
162.168417
 42
-0.023325
  0
VERTEX
  8
0
 10
118.031034
 20
162.705893
 42
-0.022844
  0
VERTEX
  8
0
 10
115.816852
 20
163.483756
 42
-0.029744
  0
VERTEX
  8
0
 10
113.875953
 20
164.404593
 42
0.035230
  0
VERTEX
  8
0
 10
111.729118
 20
165.394458
 42
0.019250
  0
VERTEX
  8
0
 10
108.978480
 20
166.315483
 42
0.018874
  0
VERTEX
  8
0
 10
106.042427
 20
167.055392
 42
0.024667
  0
VERTEX
  8
0
 10
103.309368
 20
167.495890
 42
-0.048888
  0
VERTEX
  8
0
 10
97.775071
 20
168.664915
 42
-0.070623
  0
VERTEX
  8
0
 10
93.272011
 20
170.822854
 42
-0.063954
  0
VERTEX
  8
0
 10
89.241050
 20
174.327229
 42
-0.032666
  0
VERTEX
  8
0
 10
85.111280
 20
179.625115
 42
0.013247
  0
VERTEX
  8
0
 10
83.120181
 20
182.394712
 42
0.009570
  0
VERTEX
  8
0
 10
80.761569
 20
185.378301
 42
0.009677
  0
VERTEX
  8
0
 10
78.409228
 20
188.129339
 42
0.020663
  0
VERTEX
  8
0
 10
76.466634
 20
190.140303
 42
-0.025827
  0
VERTEX
  8
0
 10
74.794861
 20
191.907049
 42
-0.024797
  0
VERTEX
  8
0
 10
73.289869
 20
193.860048
 42
-0.025608
  0
VERTEX
  8
0
 10
72.139068
 20
195.712982
 42
-0.076943
  0
VERTEX
  8
0
 10
71.628523
 20
197.107385
 42
0.069347
  0
VERTEX
  8
0
 10
70.516800
 20
200.291969
 42
0.057719
  0
VERTEX
  8
0
 10
68.520997
 20
203.275004
 42
0.057083
  0
VERTEX
  8
0
 10
65.869760
 20
205.753777
 42
0.064373
  0
VERTEX
  8
0
 10
62.826703
 20
207.452663
 42
0.018834
  0
VERTEX
  8
0
 10
59.809597
 20
208.529939
 42
0.076301
  0
VERTEX
  8
0
 10
57.885941
 20
208.826533
 42
0.064782
  0
VERTEX
  8
0
 10
55.811917
 20
208.558099
 42
0.011199
  0
SEQEND
  0
POLYLINE
  8
0
 66
1
 70
1
  0
VERTEX
  8
0
 10
110.729167
 20
124.395833
 42
-0.126455
  0
VERTEX
  8
0
 10
110.402231
 20
124.202593
 42
-0.060344
  0
VERTEX
  8
0
 10
109.916927
 20
124.123424
 42
-0.054150
  0
VERTEX
  8
0
 10
109.359369
 20
124.160852
 42
-0.051402
  0
VERTEX
  8
0
 10
108.812500
 20
124.316886
 42
-0.054073
  0
VERTEX
  8
0
 10
108.395823
 20
124.538436
 42
-0.470617
  0
VERTEX
  8
0
 10
108.378580
 20
124.720685
 42
-0.168741
  0
VERTEX
  8
0
 10
108.670344
 20
124.862007
 42
-0.018894
  0
VERTEX
  8
0
 10
109.416667
 20
124.921053
 42
-0.028489
  0
VERTEX
  8
0
 10
110.112848
 20
124.910055
 42
-0.077125
  0
VERTEX
  8
0
 10
110.592839
 20
124.799335
 42
-0.208169
  0
VERTEX
  8
0
 10
110.775380
 20
124.614691
 42
-0.296942
  0
SEQEND
  0
POLYLINE
  8
0
 66
1
 70
1
  0
VERTEX
  8
0
 10
95.729167
 20
121.395833
 42
-0.126455
  0
VERTEX
  8
0
 10
95.402231
 20
121.202593
 42
-0.060344
  0
VERTEX
  8
0
 10
94.916927
 20
121.123424
 42
-0.054150
  0
VERTEX
  8
0
 10
94.359369
 20
121.160852
 42
-0.051402
  0
VERTEX
  8
0
 10
93.812500
 20
121.316886
 42
-0.054073
  0
VERTEX
  8
0
 10
93.395823
 20
121.538436
 42
-0.470617
  0
VERTEX
  8
0
 10
93.378580
 20
121.720685
 42
-0.168741
  0
VERTEX
  8
0
 10
93.670344
 20
121.862007
 42
-0.018894
  0
VERTEX
  8
0
 10
94.416667
 20
121.921053
 42
-0.028489
  0
VERTEX
  8
0
 10
95.112848
 20
121.910055
 42
-0.077125
  0
VERTEX
  8
0
 10
95.592839
 20
121.799335
 42
-0.208169
  0
VERTEX
  8
0
 10
95.775380
 20
121.614691
 42
-0.296942
  0
SEQEND
  0
POLYLINE
  8
0
 66
1
 70
1
  0
VERTEX
  8
0
 10
70.000000
 20
120.000000
 42
-0.163584
  0
VERTEX
  8
0
 10
69.775753
 20
119.332924
 42
-0.234725
  0
VERTEX
  8
0
 10
69.227035
 20
119.060308
 42
-0.112355
  0
VERTEX
  8
0
 10
68.301377
 20
119.270972
 42
-0.031558
  0
VERTEX
  8
0
 10
67.000000
 20
120.000000
 42
-0.023197
  0
VERTEX
  8
0
 10
66.271114
 20
120.520491
 42
-0.409657
  0
VERTEX
  8
0
 10
66.237851
 20
120.781653
 42
-0.220444
  0
VERTEX
  8
0
 10
66.555791
 20
120.949578
 42
-0.011293
  0
VERTEX
  8
0
 10
67.750000
 20
120.984687
 42
-0.042523
  0
VERTEX
  8
0
 10
68.611405
 20
120.917196
 42
-0.062416
  0
VERTEX
  8
0
 10
69.339062
 20
120.701752
 42
-0.082215
  0
VERTEX
  8
0
 10
69.832025
 20
120.381177
 42
-0.210568
  0
SEQEND
  0
POLYLINE
  8
0
 66
1
 70
1
  0
VERTEX
  8
0
 10
69.500000
 20
101.000000
 42
-0.082592
  0
VERTEX
  8
0
 10
69.656512
 20
100.617900
 42
-0.161196
  0
VERTEX
  8
0
 10
69.625400
 20
100.293750
 42
-0.182303
  0
VERTEX
  8
0
 10
69.413961
 20
100.078288
 42
-0.108972
  0
VERTEX
  8
0
 10
69.059017
 20
100.000000
 42
-0.093332
  0
VERTEX
  8
0
 10
68.654762
 20
100.076123
 42
-0.096420
  0
VERTEX
  8
0
 10
68.311086
 20
100.293750
 42
-0.099167
  0
VERTEX
  8
0
 10
68.081062
 20
100.618444
 42
-0.105053
  0
VERTEX
  8
0
 10
68.000000
 20
101.000000
 42
-0.042167
  0
VERTEX
  8
0
 10
68.032345
 20
101.382849
 42
-0.061769
  0
VERTEX
  8
0
 10
68.129539
 20
101.706250
 42
-0.081139
  0
VERTEX
  8
0
 10
68.272352
 20
101.925540
 42
-0.210953
  0
VERTEX
  8
0
 10
68.440983
 20
102.000000
 42
-0.151918
  0
VERTEX
  8
0
 10
68.651710
 20
101.934461
 42
-0.038439
  0
VERTEX
  8
0
 10
68.933975
 20
101.706250
 42
-0.035638
  0
VERTEX
  8
0
 10
69.231006
 20
101.382774
 42
-0.029505
  0
SEQEND
  0
POLYLINE
  8
0
 66
1
 70
1
  0
VERTEX
  8
0
 10
77.000000
 20
95.893011
 42
-0.164455
  0
VERTEX
  8
0
 10
76.884842
 20
95.552359
 42
-0.095748
  0
VERTEX
  8
0
 10
76.559375
 20
95.262322
 42
-0.076852
  0
VERTEX
  8
0
 10
76.073715
 20
95.066322
 42
-0.057609
  0
VERTEX
  8
0
 10
75.500000
 20
95.000000
 42
-0.096899
  0
VERTEX
  8
0
 10
74.927495
 20
95.112001
 42
-0.097416
  0
VERTEX
  8
0
 10
74.440625
 20
95.431406
 42
-0.098432
  0
VERTEX
  8
0
 10
74.114629
 20
95.908181
 42
-0.101220
  0
VERTEX
  8
0
 10
74.000000
 20
96.468615
 42
-0.094119
  0
VERTEX
  8
0
 10
74.106211
 20
97.027855
 42
-0.166113
  0
VERTEX
  8
0
 10
74.407358
 20
97.382077
 42
-0.151899
  0
VERTEX
  8
0
 10
74.885039
 20
97.496694
 42
-0.075244
  0
VERTEX
  8
0
 10
75.500000
 20
97.361626
 42
-0.048303
  0
VERTEX
  8
0
 10
76.073796
 20
97.075237
 42
-0.053891
  0
VERTEX
  8
0
 10
76.559375
 20
96.692784
 42
-0.061199
  0
VERTEX
  8
0
 10
76.891374
 20
96.276919
 42
-0.138750
  0
SEQEND
  0
POLYLINE
  8
0
 66
1
 70
1
  0
VERTEX
  8
0
 10
86.000000
 20
89.531385
 42
-0.094119
  0
VERTEX
  8
0
 10
85.893789
 20
88.972145
 42
-0.166113
  0
VERTEX
  8
0
 10
85.592642
 20
88.617923
 42
-0.151899
  0
VERTEX
  8
0
 10
85.114961
 20
88.503306
 42
-0.075244
  0
VERTEX
  8
0
 10
84.500000
 20
88.638374
 42
-0.048303
  0
VERTEX
  8
0
 10
83.926204
 20
88.924763
 42
-0.053891
  0
VERTEX
  8
0
 10
83.440625
 20
89.307216
 42
-0.061199
  0
VERTEX
  8
0
 10
83.108626
 20
89.723081
 42
-0.138750
  0
VERTEX
  8
0
 10
83.000000
 20
90.106989
 42
-0.164455
  0
VERTEX
  8
0
 10
83.115158
 20
90.447641
 42
-0.095748
  0
VERTEX
  8
0
 10
83.440625
 20
90.737678
 42
-0.076852
  0
VERTEX
  8
0
 10
83.926285
 20
90.933678
 42
-0.057609
  0
VERTEX
  8
0
 10
84.500000
 20
91.000000
 42
-0.096899
  0
VERTEX
  8
0
 10
85.072505
 20
90.887999
 42
-0.097416
  0
VERTEX
  8
0
 10
85.559375
 20
90.568594
 42
-0.098432
  0
VERTEX
  8
0
 10
85.885371
 20
90.091819
 42
-0.101220
  0
SEQEND
  0
ENDSEC
  0
EOF
