  0
SECTION
  2
HEADER
  9
$ACADVER
  1
AC1006
  9
$EXTMIN
 10
0.000000
 20
0.000000
 30
0.000000
  9
$EXTMAX
 10
219.000000
 20
175.000000
 30
0.000000
  0
ENDSEC
  0
SECTION
  2
ENTITIES
  0
POLYLINE
  8
0
 66
1
 70
1
  0
VERTEX
  8
0
 10
124.789202
 20
171.753070
 42
0.001680
  0
VERTEX
  8
0
 10
123.309642
 20
170.168338
 42
0.001028
  0
VERTEX
  8
0
 10
121.574627
 20
168.289694
 42
0.001031
  0
VERTEX
  8
0
 10
119.864176
 20
166.422279
 42
0.001834
  0
VERTEX
  8
0
 10
118.464848
 20
164.876853
 42
-0.013971
  0
VERTEX
  8
0
 10
117.096713
 20
163.437676
 42
-0.010023
  0
VERTEX
  8
0
 10
115.492299
 20
161.904451
 42
-0.010134
  0
VERTEX
  8
0
 10
113.904720
 20
160.505283
 42
-0.021400
  0
VERTEX
  8
0
 10
112.607658
 20
159.500000
 42
0.009815
  0
VERTEX
  8
0
 10
110.167151
 20
157.697405
 42
0.007531
  0
VERTEX
  8
0
 10
107.570611
 20
155.636629
 42
0.006271
  0
VERTEX
  8
0
 10
104.600631
 20
153.142816
 42
0.003378
  0
VERTEX
  8
0
 10
101.000000
 20
149.999019
 42
-0.011561
  0
VERTEX
  8
0
 10
96.665173
 20
146.337440
 42
-0.006882
  0
VERTEX
  8
0
 10
91.346004
 20
142.170560
 42
-0.006691
  0
VERTEX
  8
0
 10
85.648058
 20
137.951422
 42
-0.007867
  0
VERTEX
  8
0
 10
80.135724
 20
134.113053
 42
-0.010596
  0
VERTEX
  8
0
 10
77.083063
 20
132.150671
 42
-0.036159
  0
VERTEX
  8
0
 10
74.986893
 20
131.065106
 42
-0.060375
  0
VERTEX
  8
0
 10
73.538162
 20
130.640727
 42
-0.242004
  0
VERTEX
  8
0
 10
72.685724
 20
130.914276
 42
0.117163
  0
VERTEX
  8
0
 10
72.004160
 20
131.334152
 42
0.028170
  0
VERTEX
  8
0
 10
70.713317
 20
131.681069
 42
0.027400
  0
VERTEX
  8
0
 10
69.146603
 20
131.920159
 42
0.024168
  0
VERTEX
  8
0
 10
67.495781
 20
132.000000
 42
0.094128
  0
VERTEX
  8
0
 10
63.067314
 20
131.158865
 42
0.053266
  0
VERTEX
  8
0
 10
58.211020
 20
128.619281
 42
0.036147
  0
VERTEX
  8
0
 10
52.347449
 20
124.063549
 42
0.012703
  0
VERTEX
  8
0
 10
44.603149
 20
116.729489
 42
0.023273
  0
VERTEX
  8
0
 10
33.446118
 20
104.526602
 42
0.024557
  0
VERTEX
  8
0
 10
23.682073
 20
91.548856
 42
0.025341
  0
VERTEX
  8
0
 10
15.525017
 20
78.101160
 42
0.029106
  0
VERTEX
  8
0
 10
9.178265
 20
64.492050
 42
-0.007616
  0
VERTEX
  8
0
 10
8.168141
 20
62.058308
 42
-0.003086
  0
VERTEX
  8
0
 10
6.720762
 20
58.771577
 42
-0.003053
  0
VERTEX
  8
0
 10
5.120069
 20
55.254428
 42
-0.003878
  0
VERTEX
  8
0
 10
3.597450
 20
52.028212
 42
0.027335
  0
VERTEX
  8
0
 10
1.234979
 20
46.346549
 42
0.056263
  0
VERTEX
  8
0
 10
0.152626
 20
41.660497
 42
0.073894
  0
VERTEX
  8
0
 10
0.280787
 20
37.770585
 42
0.100230
  0
VERTEX
  8
0
 10
1.581908
 20
34.515337
 42
0.106169
  0
VERTEX
  8
0
 10
3.669751
 20
32.453169
 42
0.064762
  0
VERTEX
  8
0
 10
6.819969
 20
30.976558
 42
0.058405
  0
VERTEX
  8
0
 10
10.612558
 20
30.238110
 42
0.053010
  0
VERTEX
  8
0
 10
14.602799
 20
30.359036
 42
0.000000
  0
VERTEX
  8
0
 10
18.955662
 20
30.955662
 42
0.000000
  0
VERTEX
  8
0
 10
18.344532
 20
26.496985
 42
0.096437
  0
VERTEX
  8
0
 10
18.593612
 20
22.058725
 42
0.107897
  0
VERTEX
  8
0
 10
20.504638
 20
18.233380
 42
0.082027
  0
VERTEX
  8
0
 10
24.337376
 20
14.811370
 42
0.035176
  0
VERTEX
  8
0
 10
30.394519
 20
11.542858
 42
0.023943
  0
VERTEX
  8
0
 10
40.698298
 20
7.467560
 42
0.015148
  0
VERTEX
  8
0
 10
53.051605
 20
3.667029
 42
0.014436
  0
VERTEX
  8
0
 10
64.787713
 20
0.803722
 42
0.052706
  0
VERTEX
  8
0
 10
72.397911
 20
0.000818
 42
0.035455
  0
VERTEX
  8
0
 10
76.348503
 20
0.282100
 42
0.010062
  0
VERTEX
  8
0
 10
82.431026
 20
1.276703
 42
0.009588
  0
VERTEX
  8
0
 10
89.598390
 20
2.739928
 42
0.007670
  0
VERTEX
  8
0
 10
97.261597
 20
4.581976
 42
-0.032413
  0
VERTEX
  8
0
 10
103.611200
 20
5.779690
 42
-0.009190
  0
VERTEX
  8
0
 10
113.615537
 20
6.816383
 42
-0.008475
  0
VERTEX
  8
0
 10
123.550040
 20
7.492246
 42
-0.044769
  0
VERTEX
  8
0
 10
129.000000
 20
7.282316
 42
-0.022671
  0
VERTEX
  8
0
 10
130.568789
 20
7.007670
 42
-0.013732
  0
VERTEX
  8
0
 10
132.397519
 20
6.548291
 42
-0.013747
  0
VERTEX
  8
0
 10
134.191403
 20
5.991286
 42
-0.023444
  0
VERTEX
  8
0
 10
135.651129
 20
5.415965
 42
0.068100
  0
VERTEX
  8
0
 10
140.205264
 20
4.075159
 42
0.142531
  0
VERTEX
  8
0
 10
143.834158
 20
4.560000
 42
0.176119
  0
VERTEX
  8
0
 10
146.150926
 20
6.782506
 42
0.114876
  0
VERTEX
  8
0
 10
147.000000
 20
10.429347
 42
0.036615
  0
VERTEX
  8
0
 10
146.858628
 20
12.357282
 42
0.161065
  0
VERTEX
  8
0
 10
146.353265
 20
13.362639
 42
0.123336
  0
VERTEX
  8
0
 10
145.266517
 20
14.014357
 42
0.017849
  0
VERTEX
  8
0
 10
142.750000
 20
14.681300
 42
0.000000
  0
VERTEX
  8
0
 10
138.500000
 20
15.646764
 42
0.000000
  0
VERTEX
  8
0
 10
143.000000
 20
16.942164
 42
-0.034949
  0
VERTEX
  8
0
 10
145.452994
 20
17.466078
 42
-0.020680
  0
VERTEX
  8
0
 10
148.432529
 20
17.762611
 42
-0.018332
  0
VERTEX
  8
0
 10
151.851581
 20
17.835045
 42
-0.013375
  0
VERTEX
  8
0
 10
155.648720
 20
17.674608
 42
-0.009651
  0
VERTEX
  8
0
 10
160.197571
 20
17.272001
 42
-0.044009
  0
VERTEX
  8
0
 10
162.800523
 20
16.756429
 42
-0.070345
  0
VERTEX
  8
0
 10
164.642006
 20
15.925306
 42
-0.055301
  0
VERTEX
  8
0
 10
166.353265
 20
14.555826
 42
0.102343
  0
VERTEX
  8
0
 10
169.795243
 20
12.293750
 42
0.193987
  0
VERTEX
  8
0
 10
173.060603
 20
12.312587
 42
0.205965
  0
VERTEX
  8
0
 10
175.265183
 20
14.560955
 42
0.113694
  0
VERTEX
  8
0
 10
175.822892
 20
18.437103
 42
0.039650
  0
VERTEX
  8
0
 10
175.427789
 20
20.842969
 42
0.160243
  0
VERTEX
  8
0
 10
174.648537
 20
22.086409
 42
0.088949
  0
VERTEX
  8
0
 10
173.032036
 20
23.002890
 42
0.007613
  0
VERTEX
  8
0
 10
168.500000
 20
24.520418
 42
-0.002293
  0
VERTEX
  8
0
 10
164.010586
 20
25.970737
 42
-0.080768
  0
VERTEX
  8
0
 10
163.036150
 20
26.475862
 42
-0.649710
  0
VERTEX
  8
0
 10
163.116601
 20
26.833996
 42
-0.022563
  0
VERTEX
  8
0
 10
165.000000
 20
27.123198
 42
0.027955
  0
VERTEX
  8
0
 10
167.186493
 20
27.483101
 42
0.196139
  0
VERTEX
  8
0
 10
168.056160
 20
28.086274
 42
0.134231
  0
VERTEX
  8
0
 10
168.429651
 20
29.251550
 42
0.010827
  0
VERTEX
  8
0
 10
168.500000
 20
32.500000
 42
0.000000
  0
VERTEX
  8
0
 10
168.500000
 20
37.500000
 42
0.000000
  0
VERTEX
  8
0
 10
163.500000
 20
37.537365
 42
-0.027958
  0
VERTEX
  8
0
 10
158.937363
 20
37.826909
 42
-0.008112
  0
VERTEX
  8
0
 10
151.948958
 20
38.779682
 42
-0.002076
  0
VERTEX
  8
0
 10
144.481759
 20
39.953168
 42
-0.368082
  0
VERTEX
  8
0
 10
144.000000
 20
40.518923
 42
-0.164828
  0
VERTEX
  8
0
 10
144.068569
 20
40.721272
 42
-0.009621
  0
VERTEX
  8
0
 10
144.480194
 20
41.237985
 42
-0.013744
  0
VERTEX
  8
0
 10
145.008436
 20
41.840988
 42
-0.009627
  0
VERTEX
  8
0
 10
145.634703
 20
42.491846
 42
0.050801
  0
VERTEX
  8
0
 10
146.498895
 20
43.552070
 42
0.007363
  0
VERTEX
  8
0
 10
147.998803
 20
45.904331
 42
0.008278
  0
VERTEX
  8
0
 10
149.690781
 20
48.750425
 42
0.007002
  0
VERTEX
  8
0
 10
151.387163
 20
51.813275
 42
0.000000
  0
VERTEX
  8
0
 10
155.504920
 20
59.500000
 42
0.000000
  0
VERTEX
  8
0
 10
166.002460
 20
60.134082
 42
0.006382
  0
VERTEX
  8
0
 10
170.278094
 20
60.447164
 42
0.006850
  0
VERTEX
  8
0
 10
174.444473
 20
60.863345
 42
0.006527
  0
VERTEX
  8
0
 10
178.010779
 20
61.316229
 42
0.031969
  0
VERTEX
  8
0
 10
180.000000
 20
61.726267
 42
0.036959
  0
VERTEX
  8
0
 10
185.181118
 20
63.565333
 42
0.028701
  0
VERTEX
  8
0
 10
190.510176
 20
66.288110
 42
0.028767
  0
VERTEX
  8
0
 10
195.476582
 20
69.593710
 42
0.037823
  0
VERTEX
  8
0
 10
199.566922
 20
73.184021
 42
-0.019314
  0
VERTEX
  8
0
 10
203.194260
 20
76.613553
 42
-0.054310
  0
VERTEX
  8
0
 10
206.052522
 20
78.612260
 42
-0.070784
  0
VERTEX
  8
0
 10
208.804752
 20
79.649440
 42
-0.054820
  0
VERTEX
  8
0
 10
211.992520
 20
80.000000
 42
0.125515
  0
VERTEX
  8
0
 10
214.334399
 20
80.597294
 42
0.072789
  0
VERTEX
  8
0
 10
216.669061
 20
82.352928
 42
0.072624
  0
VERTEX
  8
0
 10
218.408053
 20
84.709615
 42
0.123298
  0
VERTEX
  8
0
 10
219.000000
 20
87.073586
 42
0.296592
  0
VERTEX
  8
0
 10
218.032690
 20
88.560846
 42
0.060714
  0
VERTEX
  8
0
 10
214.884283
 20
89.521692
 42
0.055396
  0
VERTEX
  8
0
 10
211.028498
 20
89.769757
 42
0.079626
  0
VERTEX
  8
0
 10
207.684900
 20
89.073339
 42
-0.030546
  0
VERTEX
  8
0
 10
205.392680
 20
88.356248
 42
-0.045711
  0
VERTEX
  8
0
 10
203.319700
 20
88.041333
 42
-0.173325
  0
VERTEX
  8
0
 10
202.506625
 20
88.278517
 42
-0.509096
  0
VERTEX
  8
0
 10
202.505689
 20
88.765313
 42
0.051708
  0
VERTEX
  8
0
 10
203.051994
 20
89.258406
 42
0.007542
  0
VERTEX
  8
0
 10
204.037048
 20
90.385748
 42
0.008463
  0
VERTEX
  8
0
 10
205.162668
 20
91.760381
 42
0.007166
  0
VERTEX
  8
0
 10
206.306580
 20
93.250000
 42
-0.022963
  0
VERTEX
  8
0
 10
207.483003
 20
94.685710
 42
-0.028702
  0
VERTEX
  8
0
 10
208.706368
 20
95.898438
 42
-0.029206
  0
VERTEX
  8
0
 10
209.817926
 20
96.770512
 42
-0.152889
  0
VERTEX
  8
0
 10
210.550891
 20
97.000000
 42
0.305427
  0
VERTEX
  8
0
 10
211.477726
 20
97.624409
 42
0.068117
  0
VERTEX
  8
0
 10
211.973226
 20
99.572577
 42
0.057190
  0
VERTEX
  8
0
 10
211.970185
 20
102.069243
 42
0.062816
  0
VERTEX
  8
0
 10
211.393011
 20
104.418213
 42
0.172858
  0
VERTEX
  8
0
 10
210.445213
 20
105.523721
 42
0.126536
  0
VERTEX
  8
0
 10
208.873738
 20
105.955238
 42
0.128325
  0
VERTEX
  8
0
 10
207.305665
 20
105.573164
 42
0.179422
  0
VERTEX
  8
0
 10
206.361626
 20
104.500000
 42
-0.081877
  0
VERTEX
  8
0
 10
206.025808
 20
103.926584
 42
-0.065788
  0
VERTEX
  8
0
 10
205.500199
 20
103.440625
 42
-0.066445
  0
VERTEX
  8
0
 10
204.872439
 20
103.112098
 42
-0.087584
  0
VERTEX
  8
0
 10
204.237402
 20
103.000000
 42
0.096877
  0
VERTEX
  8
0
 10
203.431385
 20
102.842351
 42
0.022913
  0
VERTEX
  8
0
 10
202.180874
 20
102.265625
 42
0.022739
  0
VERTEX
  8
0
 10
200.779591
 20
101.456947
 42
0.020684
  0
VERTEX
  8
0
 10
199.411113
 20
100.500000
 42
-0.008516
  0
VERTEX
  8
0
 10
196.930793
 20
98.674138
 42
-0.090610
  0
VERTEX
  8
0
 10
195.799733
 20
98.146053
 42
-0.351145
  0
VERTEX
  8
0
 10
195.229226
 20
98.400349
 42
-0.119591
  0
VERTEX
  8
0
 10
195.000000
 20
99.345012
 42
0.155895
  0
VERTEX
  8
0
 10
194.548104
 20
100.759149
 42
0.056905
  0
VERTEX
  8
0
 10
193.126307
 20
102.340597
 42
0.056503
  0
VERTEX
  8
0
 10
191.342195
 20
103.592692
 42
0.125414
  0
VERTEX
  8
0
 10
189.743880
 20
104.000000
 42
0.254017
  0
VERTEX
  8
0
 10
188.437655
 20
103.290621
 42
0.013138
  0
VERTEX
  8
0
 10
185.847217
 20
99.060746
 42
0.018059
  0
VERTEX
  8
0
 10
183.554156
 20
94.731612
 42
0.113734
  0
VERTEX
  8
0
 10
183.001619
 20
92.311925
 42
-0.338627
  0
VERTEX
  8
0
 10
182.759259
 20
91.993791
 42
-0.024371
  0
VERTEX
  8
0
 10
181.606975
 20
91.738503
 42
-0.026263
  0
VERTEX
  8
0
 10
180.073030
 20
91.558548
 42
-0.016068
  0
VERTEX
  8
0
 10
178.251619
 20
91.500000
 42
0.013315
  0
VERTEX
  8
0
 10
175.502879
 20
91.426788
 42
0.096625
  0
VERTEX
  8
0
 10
174.227407
 20
91.106659
 42
0.178184
  0
VERTEX
  8
0
 10
173.541367
 20
90.412575
 42
0.071733
  0
VERTEX
  8
0
 10
173.162508
 20
89.113090
 42
0.053929
  0
VERTEX
  8
0
 10
173.130671
 20
88.140098
 42
0.055044
  0
VERTEX
  8
0
 10
173.308535
 20
87.189774
 42
0.060748
  0
VERTEX
  8
0
 10
173.657081
 20
86.401558
 42
0.120460
  0
VERTEX
  8
0
 10
174.133548
 20
85.917463
 42
-0.123145
  0
VERTEX
  8
0
 10
174.853796
 20
85.177896
 42
-0.367626
  0
VERTEX
  8
0
 10
174.738343
 20
84.534191
 42
-0.108100
  0
VERTEX
  8
0
 10
173.602737
 20
83.952502
 42
-0.015157
  0
VERTEX
  8
0
 10
171.019523
 20
83.353905
 42
-0.011006
  0
VERTEX
  8
0
 10
168.937519
 20
82.984965
 42
-0.186581
  0
VERTEX
  8
0
 10
168.268971
 20
83.131343
 42
-0.299800
  0
VERTEX
  8
0
 10
168.048533
 20
83.647281
 42
-0.026578
  0
VERTEX
  8
0
 10
168.390066
 20
85.093488
 42
0.035939
  0
VERTEX
  8
0
 10
168.718623
 20
86.611096
 42
0.003985
  0
VERTEX
  8
0
 10
169.190758
 20
90.129600
 42
0.004839
  0
VERTEX
  8
0
 10
169.679440
 20
94.332890
 42
0.003901
  0
VERTEX
  8
0
 10
170.125562
 20
98.858341
 42
-0.008336
  0
VERTEX
  8
0
 10
170.722617
 20
104.409984
 42
-0.020331
  0
VERTEX
  8
0
 10
171.396088
 20
108.467992
 42
-0.027482
  0
VERTEX
  8
0
 10
172.209368
 20
111.524351
 42
-0.051564
  0
VERTEX
  8
0
 10
173.246220
 20
113.858341
 42
0.006970
  0
VERTEX
  8
0
 10
176.787053
 20
120.231067
 42
0.018353
  0
VERTEX
  8
0
 10
179.089933
 20
124.920233
 42
0.021054
  0
VERTEX
  8
0
 10
180.859535
 20
129.380440
 42
0.012113
  0
VERTEX
  8
0
 10
182.630975
 20
134.884401
 42
0.030191
  0
VERTEX
  8
0
 10
184.412839
 20
142.606081
 42
0.032419
  0
VERTEX
  8
0
 10
185.197767
 20
150.304206
 42
0.034779
  0
VERTEX
  8
0
 10
184.978017
 20
157.015195
 42
0.097127
  0
VERTEX
  8
0
 10
183.610778
 20
161.500000
 42
-0.012796
  0
VERTEX
  8
0
 10
182.998370
 20
162.723839
 42
-0.014790
  0
VERTEX
  8
0
 10
182.480058
 20
163.920302
 42
-0.013915
  0
VERTEX
  8
0
 10
182.101598
 20
164.952640
 42
-0.079557
  0
VERTEX
  8
0
 10
182.006161
 20
165.526560
 42
0.245309
  0
VERTEX
  8
0
 10
181.153485
 20
167.136315
 42
0.024533
  0
VERTEX
  8
0
 10
177.327660
 20
169.500432
 42
0.030643
  0
VERTEX
  8
0
 10
172.952513
 20
171.577193
 42
0.058332
  0
VERTEX
  8
0
 10
169.198698
 20
172.597454
 42
0.027630
  0
VERTEX
  8
0
 10
166.858552
 20
172.817143
 42
0.008830
  0
VERTEX
  8
0
 10
163.362842
 20
172.889508
 42
0.008781
  0
VERTEX
  8
0
 10
159.459774
 20
172.832822
 42
0.009695
  0
VERTEX
  8
0
 10
155.688144
 20
172.638511
 42
-0.008415
  0
VERTEX
  8
0
 10
151.517542
 20
172.412939
 42
-0.022056
  0
VERTEX
  8
0
 10
148.519865
 20
172.433622
 42
-0.028486
  0
VERTEX
  8
0
 10
146.402989
 20
172.663054
 42
-0.132723
  0
VERTEX
  8
0
 10
145.296380
 20
173.168990
 42
0.116403
  0
VERTEX
  8
0
 10
144.327669
 20
173.650096
 42
0.014091
  0
VERTEX
  8
0
 10
141.980121
 20
174.128453
 42
0.016123
  0
VERTEX
  8
0
 10
139.113716
 20
174.534131
 42
0.012633
  0
VERTEX
  8
0
 10
135.983598
 20
174.794808
 42
0.000000
  0
VERTEX
  8
0
 10
128.078403
 20
175.252432
 42
0.000000
  0
SEQEND
  0
POLYLINE
  8
0
 66
1
 70
1
  0
VERTEX
  8
0
 10
161.000000
 20
67.383423
 42
-0.347462
  0
VERTEX
  8
0
 10
160.880837
 20
67.232649
 42
-0.020244
  0
VERTEX
  8
0
 10
160.265625
 20
67.112630
 42
-0.023639
  0
VERTEX
  8
0
 10
159.458419
 20
67.027631
 42
-0.014412
  0
VERTEX
  8
0
 10
158.500000
 20
67.000000
 42
-0.032714
  0
VERTEX
  8
0
 10
157.542347
 20
67.062724
 42
-0.050289
  0
VERTEX
  8
0
 10
156.734375
 20
67.253015
 42
-0.064968
  0
VERTEX
  8
0
 10
156.176307
 20
67.530586
 42
-0.249889
  0
VERTEX
  8
0
 10
156.000000
 20
67.861328
 42
-0.285831
  0
VERTEX
  8
0
 10
156.183445
 20
68.156008
 42
-0.076393
  0
VERTEX
  8
0
 10
156.734375
 20
68.329256
 42
-0.053628
  0
VERTEX
  8
0
 10
157.541823
 20
68.365641
 42
-0.031701
  0
VERTEX
  8
0
 10
158.500000
 20
68.244751
 42
-0.013875
  0
VERTEX
  8
0
 10
159.458200
 20
68.033865
 42
-0.021857
  0
VERTEX
  8
0
 10
160.265625
 20
67.794600
 42
-0.017542
  0
VERTEX
  8
0
 10
160.885601
 20
67.556361
 42
-0.300822
  0
SEQEND
  0
POLYLINE
  8
0
 66
1
 70
1
  0
VERTEX
  8
0
 10
96.729167
 20
22.395833
 42
-0.126455
  0
VERTEX
  8
0
 10
96.402231
 20
22.202593
 42
-0.060344
  0
VERTEX
  8
0
 10
95.916927
 20
22.123424
 42
-0.054150
  0
VERTEX
  8
0
 10
95.359369
 20
22.160852
 42
-0.051402
  0
VERTEX
  8
0
 10
94.812500
 20
22.316886
 42
-0.054073
  0
VERTEX
  8
0
 10
94.395823
 20
22.538436
 42
-0.470617
  0
VERTEX
  8
0
 10
94.378580
 20
22.720685
 42
-0.168741
  0
VERTEX
  8
0
 10
94.670344
 20
22.862007
 42
-0.018894
  0
VERTEX
  8
0
 10
95.416667
 20
22.921053
 42
-0.028489
  0
VERTEX
  8
0
 10
96.112848
 20
22.910055
 42
-0.077125
  0
VERTEX
  8
0
 10
96.592839
 20
22.799335
 42
-0.208169
  0
VERTEX
  8
0
 10
96.775380
 20
22.614691
 42
-0.296942
  0
SEQEND
  0
POLYLINE
  8
0
 66
1
 70
1
  0
VERTEX
  8
0
 10
84.500000
 20
20.969144
 42
-0.041262
  0
VERTEX
  8
0
 10
80.773624
 20
20.379214
 42
-0.015669
  0
VERTEX
  8
0
 10
75.510064
 20
20.151708
 42
-0.014037
  0
VERTEX
  8
0
 10
70.874394
 20
20.226875
 42
-0.733441
  0
VERTEX
  8
0
 10
70.719871
 20
20.805709
 42
-0.109339
  0
VERTEX
  8
0
 10
71.567677
 20
21.113471
 42
-0.009459
  0
VERTEX
  8
0
 10
73.866818
 20
21.370864
 42
-0.012101
  0
VERTEX
  8
0
 10
76.651067
 20
21.561518
 42
-0.009100
  0
VERTEX
  8
0
 10
79.719871
 20
21.641226
 42
-0.004841
  0
VERTEX
  8
0
 10
83.135971
 20
21.634687
 42
-0.032033
  0
VERTEX
  8
0
 10
84.836984
 20
21.505777
 42
-0.571999
  0
VERTEX
  8
0
 10
84.939403
 20
21.257998
 42
-0.172717
  0
SEQEND
  0
ENDSEC
  0
EOF
