  0
SECTION
  2
HEADER
  9
$ACADVER
  1
AC1006
  9
$EXTMIN
 10
0.000000
 20
0.000000
 30
0.000000
  9
$EXTMAX
 10
323.000000
 20
361.000000
 30
0.000000
  0
ENDSEC
  0
SECTION
  2
ENTITIES
  0
POLYLINE
  8
0
 66
1
 70
1
  0
VERTEX
  8
0
 10
0.447692
 20
354.287897
 42
-0.006735
  0
VERTEX
  8
0
 10
0.749029
 20
350.064139
 42
-0.000744
  0
VERTEX
  8
0
 10
1.294050
 20
340.387695
 42
-0.000907
  0
VERTEX
  8
0
 10
1.904778
 20
328.867247
 42
-0.000734
  0
VERTEX
  8
0
 10
2.519692
 20
316.500000
 42
0.000788
  0
VERTEX
  8
0
 10
3.133754
 20
304.176663
 42
0.000998
  0
VERTEX
  8
0
 10
3.741906
 20
292.790291
 42
0.000784
  0
VERTEX
  8
0
 10
4.286037
 20
283.241782
 42
0.008146
  0
VERTEX
  8
0
 10
4.580024
 20
279.318013
 42
0.000000
  0
VERTEX
  8
0
 10
5.144621
 20
273.136026
 42
0.000000
  0
VERTEX
  8
0
 10
16.322310
 20
264.702822
 42
-0.000596
  0
VERTEX
  8
0
 10
21.516475
 20
260.774264
 42
-0.000314
  0
VERTEX
  8
0
 10
27.958036
 20
255.883784
 42
-0.000313
  0
VERTEX
  8
0
 10
34.547095
 20
250.868288
 42
-0.000482
  0
VERTEX
  8
0
 10
40.236962
 20
246.522939
 42
0.000000
  0
VERTEX
  8
0
 10
52.973923
 20
236.776262
 42
0.000000
  0
VERTEX
  8
0
 10
94.652554
 20
224.389205
 42
-0.000403
  0
VERTEX
  8
0
 10
110.646916
 20
219.621588
 42
-0.000666
  0
VERTEX
  8
0
 10
124.143436
 20
215.567093
 42
-0.000030
  0
VERTEX
  8
0
 10
136.319975
 20
211.890642
 42
-0.159768
  0
VERTEX
  8
0
 10
136.519606
 20
211.751074
 42
-0.147657
  0
VERTEX
  8
0
 10
136.604261
 20
211.519591
 42
-0.000009
  0
VERTEX
  8
0
 10
137.875264
 20
189.395628
 42
-0.000358
  0
VERTEX
  8
0
 10
139.260610
 20
164.967623
 42
-0.000216
  0
VERTEX
  8
0
 10
140.870024
 20
136.000000
 42
0.000327
  0
VERTEX
  8
0
 10
142.498490
 20
106.806927
 42
0.000509
  0
VERTEX
  8
0
 10
143.944454
 20
81.642996
 42
0.000139
  0
VERTEX
  8
0
 10
145.233803
 20
59.701382
 42
0.017685
  0
VERTEX
  8
0
 10
145.491664
 20
56.976155
 42
0.000000
  0
VERTEX
  8
0
 10
145.951308
 20
53.452311
 42
0.000000
  0
VERTEX
  8
0
 10
76.225654
 20
28.052430
 42
0.000445
  0
VERTEX
  8
0
 10
49.317951
 20
18.223301
 42
0.000701
  0
VERTEX
  8
0
 10
26.247536
 20
9.735932
 42
0.000157
  0
VERTEX
  8
0
 10
6.006106
 20
2.249855
 42
0.030165
  0
VERTEX
  8
0
 10
4.000000
 20
1.366312
 42
0.782243
  0
VERTEX
  8
0
 10
4.179843
 20
0.605149
 42
0.000743
  0
VERTEX
  8
0
 10
33.037659
 20
0.326590
 42
0.001754
  0
VERTEX
  8
0
 10
76.624614
 20
0.123500
 42
0.000275
  0
VERTEX
  8
0
 10
162.500000
 20
0.071841
 42
0.000286
  0
VERTEX
  8
0
 10
247.189304
 20
0.115931
 42
0.001699
  0
VERTEX
  8
0
 10
291.436150
 20
0.314615
 42
0.000497
  0
VERTEX
  8
0
 10
321.589076
 20
0.582459
 42
0.714472
  0
VERTEX
  8
0
 10
321.836539
 20
1.328767
 42
0.061420
  0
VERTEX
  8
0
 10
320.424073
 20
2.151690
 42
0.000226
  0
VERTEX
  8
0
 10
302.822997
 20
9.684749
 42
0.001189
  0
VERTEX
  8
0
 10
282.844944
 20
18.168324
 42
0.000746
  0
VERTEX
  8
0
 10
259.445512
 20
27.998056
 42
0.000000
  0
VERTEX
  8
0
 10
198.717946
 20
53.402184
 42
0.000000
  0
VERTEX
  8
0
 10
199.353606
 20
89.451092
 42
0.000320
  0
VERTEX
  8
0
 10
199.643341
 20
106.502165
 42
0.000155
  0
VERTEX
  8
0
 10
199.992994
 20
128.301013
 42
0.000154
  0
VERTEX
  8
0
 10
200.343042
 20
151.001014
 42
0.000222
  0
VERTEX
  8
0
 10
200.637616
 20
171.084272
 42
0.000000
  0
VERTEX
  8
0
 10
201.285965
 20
216.668543
 42
0.000000
  0
VERTEX
  8
0
 10
232.392983
 20
232.084272
 42
0.000000
  0
VERTEX
  8
0
 10
263.500000
 20
247.500000
 42
0.000000
  0
VERTEX
  8
0
 10
276.231903
 20
259.902505
 42
0.020558
  0
VERTEX
  8
0
 10
288.965715
 20
273.370304
 42
0.059515
  0
VERTEX
  8
0
 10
296.170024
 20
283.959977
 42
0.070594
  0
VERTEX
  8
0
 10
300.001352
 20
294.876078
 42
0.038499
  0
VERTEX
  8
0
 10
301.699143
 20
309.000000
 42
0.012759
  0
VERTEX
  8
0
 10
301.798048
 20
314.764630
 42
0.008367
  0
VERTEX
  8
0
 10
301.631365
 20
321.405216
 42
0.008012
  0
VERTEX
  8
0
 10
301.224401
 20
328.431855
 42
0.008230
  0
VERTEX
  8
0
 10
300.595089
 20
335.379292
 42
-0.003445
  0
VERTEX
  8
0
 10
299.984462
 20
341.471089
 42
-0.003620
  0
VERTEX
  8
0
 10
299.468557
 20
347.471034
 42
-0.003469
  0
VERTEX
  8
0
 10
299.096839
 20
352.654015
 42
-0.016166
  0
VERTEX
  8
0
 10
299.000000
 20
355.648344
 42
0.007775
  0
VERTEX
  8
0
 10
298.948385
 20
358.967416
 42
0.099545
  0
VERTEX
  8
0
 10
298.666851
 20
360.172339
 42
0.264498
  0
VERTEX
  8
0
 10
298.020634
 20
360.639234
 42
0.077420
  0
VERTEX
  8
0
 10
296.750000
 20
360.580726
 42
-0.018062
  0
VERTEX
  8
0
 10
295.462993
 20
360.367179
 42
-0.003433
  0
VERTEX
  8
0
 10
293.104688
 20
360.079372
 42
-0.003660
  0
VERTEX
  8
0
 10
290.344947
 20
359.782244
 42
-0.003355
  0
VERTEX
  8
0
 10
287.500000
 20
359.516266
 42
0.023678
  0
VERTEX
  8
0
 10
279.626003
 20
358.455931
 42
0.021984
  0
VERTEX
  8
0
 10
271.687070
 20
356.637510
 42
0.022599
  0
VERTEX
  8
0
 10
264.196591
 20
354.202389
 42
0.030277
  0
VERTEX
  8
0
 10
257.676479
 20
351.290341
 42
0.028654
  0
VERTEX
  8
0
 10
253.545556
 20
348.826072
 42
0.022481
  0
VERTEX
  8
0
 10
249.361298
 20
345.709929
 42
0.016829
  0
VERTEX
  8
0
 10
244.466978
 20
341.428271
 42
0.006609
  0
VERTEX
  8
0
 10
238.003466
 20
335.215741
 42
-0.014029
  0
VERTEX
  8
0
 10
228.064496
 20
325.942481
 42
-0.046450
  0
VERTEX
  8
0
 10
220.840163
 20
320.676521
 42
-0.064145
  0
VERTEX
  8
0
 10
214.127932
 20
317.767749
 42
-0.049332
  0
VERTEX
  8
0
 10
206.266484
 20
316.319122
 42
-0.064994
  0
VERTEX
  8
0
 10
197.451205
 20
316.726364
 42
-0.062020
  0
VERTEX
  8
0
 10
188.885765
 20
319.374561
 42
-0.036979
  0
VERTEX
  8
0
 10
178.043543
 20
325.264729
 42
-0.008249
  0
VERTEX
  8
0
 10
160.500000
 20
336.962315
 42
0.005178
  0
VERTEX
  8
0
 10
148.154388
 20
345.304044
 42
0.013702
  0
VERTEX
  8
0
 10
139.104511
 20
350.933341
 42
0.018691
  0
VERTEX
  8
0
 10
131.712977
 20
354.891866
 42
0.026010
  0
VERTEX
  8
0
 10
124.806633
 20
357.830514
 42
0.000000
  0
VERTEX
  8
0
 10
117.500000
 20
360.500000
 42
0.000000
  0
VERTEX
  8
0
 10
58.685714
 20
360.787897
 42
0.000000
  0
VERTEX
  8
0
 10
-0.128572
 20
361.075794
 42
0.000000
  0
SEQEND
  0
ENDSEC
  0
EOF
