  0
SECTION
  2
HEADER
  9
$ACADVER
  1
AC1006
  9
$EXTMIN
 10
0.000000
 20
0.000000
 30
0.000000
  9
$EXTMAX
 10
323.000000
 20
361.000000
 30
0.000000
  0
ENDSEC
  0
SECTION
  2
ENTITIES
  0
POLYLINE
  8
0
 66
1
 70
1
  0
VERTEX
  8
0
 10
0.547677
 20
352.880510
 42
-0.003036
  0
VERTEX
  8
0
 10
0.870746
 20
347.755616
 42
-0.000375
  0
VERTEX
  8
0
 10
1.499017
 20
336.575040
 42
-0.000443
  0
VERTEX
  8
0
 10
2.223553
 20
323.293555
 42
-0.000366
  0
VERTEX
  8
0
 10
2.972641
 20
309.140902
 42
0.002114
  0
VERTEX
  8
0
 10
3.740766
 20
295.530246
 42
0.003407
  0
VERTEX
  8
0
 10
4.523079
 20
283.943838
 42
0.000662
  0
VERTEX
  8
0
 10
5.293677
 20
273.764213
 42
0.191228
  0
VERTEX
  8
0
 10
5.659098
 20
273.016864
 42
0.021024
  0
VERTEX
  8
0
 10
6.338835
 20
272.448860
 42
0.000115
  0
VERTEX
  8
0
 10
13.081622
 20
267.282245
 42
0.000502
  0
VERTEX
  8
0
 10
20.774984
 20
261.402331
 42
0.000319
  0
VERTEX
  8
0
 10
29.746425
 20
254.568927
 42
0.000000
  0
VERTEX
  8
0
 10
52.992849
 20
236.885930
 42
0.000000
  0
VERTEX
  8
0
 10
94.608631
 20
224.497425
 42
-0.000483
  0
VERTEX
  8
0
 10
110.582206
 20
219.725476
 42
-0.000797
  0
VERTEX
  8
0
 10
124.069540
 20
215.658609
 42
-0.000044
  0
VERTEX
  8
0
 10
136.214663
 20
211.974148
 42
-0.154643
  0
VERTEX
  8
0
 10
136.461905
 20
211.804460
 42
-0.152202
  0
VERTEX
  8
0
 10
136.568372
 20
211.521921
 42
-0.000015
  0
VERTEX
  8
0
 10
137.849302
 20
189.558185
 42
-0.000455
  0
VERTEX
  8
0
 10
139.242337
 20
165.279531
 42
-0.000275
  0
VERTEX
  8
0
 10
140.851459
 20
136.500000
 42
0.000280
  0
VERTEX
  8
0
 10
142.475241
 20
107.463677
 42
0.000431
  0
VERTEX
  8
0
 10
143.915572
 20
82.348614
 42
0.000133
  0
VERTEX
  8
0
 10
145.190215
 20
60.552816
 42
0.013061
  0
VERTEX
  8
0
 10
145.451927
 20
57.474006
 42
0.000000
  0
VERTEX
  8
0
 10
145.900332
 20
53.448013
 42
0.000000
  0
VERTEX
  8
0
 10
76.200166
 20
28.050284
 42
0.000444
  0
VERTEX
  8
0
 10
49.302236
 20
18.221981
 42
0.000701
  0
VERTEX
  8
0
 10
26.240049
 20
9.735305
 42
0.000157
  0
VERTEX
  8
0
 10
6.006036
 20
2.249934
 42
0.030143
  0
VERTEX
  8
0
 10
4.000000
 20
1.366315
 42
0.782243
  0
VERTEX
  8
0
 10
4.179844
 20
0.605150
 42
0.000743
  0
VERTEX
  8
0
 10
33.037583
 20
0.326590
 42
0.001754
  0
VERTEX
  8
0
 10
76.624482
 20
0.123500
 42
0.000275
  0
VERTEX
  8
0
 10
162.500000
 20
0.071841
 42
0.000288
  0
VERTEX
  8
0
 10
246.885031
 20
0.116152
 42
0.001686
  0
VERTEX
  8
0
 10
291.259653
 20
0.314628
 42
0.000483
  0
VERTEX
  8
0
 10
321.600670
 20
0.581915
 42
0.714470
  0
VERTEX
  8
0
 10
321.846085
 20
1.321787
 42
0.061384
  0
VERTEX
  8
0
 10
320.441356
 20
2.140542
 42
0.000223
  0
VERTEX
  8
0
 10
302.836594
 20
9.680569
 42
0.001181
  0
VERTEX
  8
0
 10
282.857732
 20
18.171080
 42
0.000741
  0
VERTEX
  8
0
 10
259.455443
 20
28.010408
 42
0.000000
  0
VERTEX
  8
0
 10
198.718718
 20
53.440847
 42
0.000000
  0
VERTEX
  8
0
 10
199.353992
 20
89.470424
 42
0.000320
  0
VERTEX
  8
0
 10
199.643556
 20
106.512664
 42
0.000155
  0
VERTEX
  8
0
 10
199.993015
 20
128.300907
 42
0.000154
  0
VERTEX
  8
0
 10
200.342875
 20
150.990264
 42
0.000222
  0
VERTEX
  8
0
 10
200.637300
 20
171.064578
 42
0.000000
  0
VERTEX
  8
0
 10
201.285332
 20
216.629155
 42
0.000000
  0
VERTEX
  8
0
 10
233.392666
 20
232.724884
 42
0.000000
  0
VERTEX
  8
0
 10
265.500000
 20
248.820614
 42
0.000000
  0
VERTEX
  8
0
 10
279.035534
 20
262.660307
 42
0.005361
  0
VERTEX
  8
0
 10
286.018410
 20
269.954944
 42
0.016936
  0
VERTEX
  8
0
 10
290.474367
 20
275.045987
 42
0.024709
  0
VERTEX
  8
0
 10
293.528219
 20
279.184691
 42
0.033597
  0
VERTEX
  8
0
 10
295.830050
 20
283.213141
 42
0.048814
  0
VERTEX
  8
0
 10
299.606463
 20
293.419030
 42
0.042178
  0
VERTEX
  8
0
 10
301.568804
 20
304.678937
 42
0.033492
  0
VERTEX
  8
0
 10
301.859085
 20
318.318409
 42
0.015518
  0
VERTEX
  8
0
 10
300.500000
 20
336.000000
 42
-0.003945
  0
VERTEX
  8
0
 10
299.939542
 20
341.593881
 42
-0.003857
  0
VERTEX
  8
0
 10
299.462864
 20
347.238024
 42
-0.003801
  0
VERTEX
  8
0
 10
299.120337
 20
352.198595
 42
-0.014479
  0
VERTEX
  8
0
 10
299.019879
 20
355.299656
 42
0.000000
  0
VERTEX
  8
0
 10
299.000000
 20
361.099313
 42
0.000000
  0
VERTEX
  8
0
 10
292.750000
 20
360.477404
 42
0.013422
  0
VERTEX
  8
0
 10
271.121424
 20
357.737235
 42
0.022364
  0
VERTEX
  8
0
 10
253.121731
 20
354.133795
 42
0.017846
  0
VERTEX
  8
0
 10
232.926279
 20
348.370424
 42
0.005540
  0
VERTEX
  8
0
 10
203.000000
 20
338.294917
 42
-0.003811
  0
VERTEX
  8
0
 10
195.074427
 20
335.596016
 42
-0.003114
  0
VERTEX
  8
0
 10
186.556250
 20
332.826362
 42
-0.003145
  0
VERTEX
  8
0
 10
178.686129
 20
330.375916
 42
-0.008252
  0
VERTEX
  8
0
 10
173.000000
 20
328.746682
 42
-0.009760
  0
VERTEX
  8
0
 10
166.095802
 20
327.034942
 42
-0.025912
  0
VERTEX
  8
0
 10
161.089356
 20
326.166814
 42
-0.023477
  0
VERTEX
  8
0
 10
155.748702
 20
325.776587
 42
-0.006836
  0
VERTEX
  8
0
 10
147.500000
 20
325.674946
 42
-0.026923
  0
VERTEX
  8
0
 10
132.726732
 20
326.491011
 42
-0.032299
  0
VERTEX
  8
0
 10
119.014819
 20
328.895493
 42
-0.023124
  0
VERTEX
  8
0
 10
102.512385
 20
333.719676
 42
-0.006779
  0
VERTEX
  8
0
 10
77.644451
 20
342.634175
 42
0.007596
  0
VERTEX
  8
0
 10
55.322666
 20
350.594825
 42
0.018573
  0
VERTEX
  8
0
 10
38.608765
 20
355.586794
 42
0.023004
  0
VERTEX
  8
0
 10
23.893698
 20
358.678573
 42
0.019926
  0
VERTEX
  8
0
 10
8.234134
 20
360.586663
 42
0.000000
  0
VERTEX
  8
0
 10
-0.031732
 20
361.261019
 42
0.000000
  0
SEQEND
  0
ENDSEC
  0
EOF
