  0
SECTION
  2
HEADER
  9
$ACADVER
  1
AC1006
  9
$EXTMIN
 10
0.000000
 20
0.000000
 30
0.000000
  9
$EXTMAX
 10
316.000000
 20
361.000000
 30
0.000000
  0
ENDSEC
  0
SECTION
  2
ENTITIES
  0
POLYLINE
  8
0
 66
1
 70
1
  0
VERTEX
  8
0
 10
0.547445
 20
352.883526
 42
-0.003036
  0
VERTEX
  8
0
 10
0.870618
 20
347.757191
 42
-0.000375
  0
VERTEX
  8
0
 10
1.498949
 20
336.575926
 42
-0.000443
  0
VERTEX
  8
0
 10
2.223536
 20
323.293774
 42
-0.000366
  0
VERTEX
  8
0
 10
2.972641
 20
309.140902
 42
0.002117
  0
VERTEX
  8
0
 10
3.740766
 20
295.531434
 42
0.003413
  0
VERTEX
  8
0
 10
4.523079
 20
283.948909
 42
0.000658
  0
VERTEX
  8
0
 10
5.293846
 20
273.770497
 42
0.194166
  0
VERTEX
  8
0
 10
5.659098
 20
273.034127
 42
0.018143
  0
VERTEX
  8
0
 10
6.335567
 20
272.475245
 42
0.000098
  0
VERTEX
  8
0
 10
13.070227
 20
267.312659
 42
0.000430
  0
VERTEX
  8
0
 10
20.751039
 20
261.437642
 42
0.000273
  0
VERTEX
  8
0
 10
29.707632
 20
254.606720
 42
0.000000
  0
VERTEX
  8
0
 10
52.915263
 20
236.926990
 42
0.000000
  0
VERTEX
  8
0
 10
94.548722
 20
224.539071
 42
-0.000487
  0
VERTEX
  8
0
 10
110.533522
 20
219.765894
 42
-0.000801
  0
VERTEX
  8
0
 10
124.041228
 20
215.694466
 42
-0.000051
  0
VERTEX
  8
0
 10
136.188824
 20
212.010397
 42
-0.132636
  0
VERTEX
  8
0
 10
136.484738
 20
211.825576
 42
-0.173997
  0
VERTEX
  8
0
 10
136.619323
 20
211.510964
 42
-0.000023
  0
VERTEX
  8
0
 10
137.903285
 20
190.005013
 42
-0.000599
  0
VERTEX
  8
0
 10
139.294494
 20
166.205782
 42
-0.000361
  0
VERTEX
  8
0
 10
140.888967
 20
138.000000
 42
0.000277
  0
VERTEX
  8
0
 10
142.498922
 20
109.435276
 42
0.000415
  0
VERTEX
  8
0
 10
143.940476
 20
84.473444
 42
0.000169
  0
VERTEX
  8
0
 10
145.201333
 20
63.074868
 42
0.009045
  0
VERTEX
  8
0
 10
145.517290
 20
58.994704
 42
0.000000
  0
VERTEX
  8
0
 10
146.043943
 20
53.489409
 42
0.000000
  0
VERTEX
  8
0
 10
74.771971
 20
46.583242
 42
0.000972
  0
VERTEX
  8
0
 10
47.378024
 20
43.875064
 42
0.001586
  0
VERTEX
  8
0
 10
24.157079
 20
41.459442
 42
0.000173
  0
VERTEX
  8
0
 10
3.438738
 20
39.230465
 42
0.155137
  0
VERTEX
  8
0
 10
2.550000
 20
38.838538
 42
0.136840
  0
VERTEX
  8
0
 10
2.335088
 20
38.507377
 42
0.299453
  0
VERTEX
  8
0
 10
2.414520
 20
38.229314
 42
0.139067
  0
VERTEX
  8
0
 10
2.823761
 20
38.039507
 42
0.036661
  0
VERTEX
  8
0
 10
3.550000
 20
37.977905
 42
-0.052504
  0
VERTEX
  8
0
 10
5.087239
 20
37.798405
 42
-0.000105
  0
VERTEX
  8
0
 10
28.992172
 20
32.418567
 42
-0.000747
  0
VERTEX
  8
0
 10
55.875905
 20
26.320181
 42
-0.000463
  0
VERTEX
  8
0
 10
87.423350
 20
19.083527
 42
0.000000
  0
VERTEX
  8
0
 10
169.346701
 20
0.211244
 42
0.000000
  0
VERTEX
  8
0
 10
242.620336
 20
18.355622
 42
0.001077
  0
VERTEX
  8
0
 10
270.667802
 20
25.365039
 42
0.001816
  0
VERTEX
  8
0
 10
294.160124
 20
31.380691
 42
0.000155
  0
VERTEX
  8
0
 10
315.072777
 20
36.823692
 42
0.578938
  0
VERTEX
  8
0
 10
315.180041
 20
37.216944
 42
0.162078
  0
VERTEX
  8
0
 10
314.489895
 20
37.564173
 42
0.000172
  0
VERTEX
  8
0
 10
297.677330
 20
40.009558
 42
0.001612
  0
VERTEX
  8
0
 10
278.836594
 20
42.681309
 42
0.000987
  0
VERTEX
  8
0
 10
256.598882
 20
45.716944
 42
0.000000
  0
VERTEX
  8
0
 10
198.731653
 20
53.500000
 42
0.000000
  0
VERTEX
  8
0
 10
199.357717
 20
77.000000
 42
0.002199
  0
VERTEX
  8
0
 10
199.640988
 20
89.737163
 42
0.000542
  0
VERTEX
  8
0
 10
199.991547
 20
110.659221
 42
0.000555
  0
VERTEX
  8
0
 10
200.340521
 20
134.623296
 42
0.000555
  0
VERTEX
  8
0
 10
200.636285
 20
158.584581
 42
0.000000
  0
VERTEX
  8
0
 10
201.288790
 20
216.669162
 42
0.000000
  0
VERTEX
  8
0
 10
233.200917
 20
232.584581
 42
0.000000
  0
VERTEX
  8
0
 10
265.113045
 20
248.500000
 42
0.000000
  0
VERTEX
  8
0
 10
278.917186
 20
262.500000
 42
0.035297
  0
VERTEX
  8
0
 10
293.204748
 20
279.197103
 42
0.093706
  0
VERTEX
  8
0
 10
300.011660
 20
293.275638
 42
0.072826
  0
VERTEX
  8
0
 10
302.103794
 20
310.908778
 42
0.015599
  0
VERTEX
  8
0
 10
300.297338
 20
341.755287
 42
0.000000
  0
VERTEX
  8
0
 10
298.565642
 20
361.010573
 42
0.000000
  0
VERTEX
  8
0
 10
291.032821
 20
360.479923
 42
-0.012528
  0
VERTEX
  8
0
 10
257.463033
 20
358.959013
 42
-0.003089
  0
VERTEX
  8
0
 10
202.294874
 20
358.184262
 42
-0.003333
  0
VERTEX
  8
0
 10
144.206418
 20
358.114659
 42
-0.006156
  0
VERTEX
  8
0
 10
97.000000
 20
358.954008
 42
0.000768
  0
VERTEX
  8
0
 10
82.926553
 20
359.355950
 42
0.000421
  0
VERTEX
  8
0
 10
65.687459
 20
359.807246
 42
0.000420
  0
VERTEX
  8
0
 10
48.185770
 20
360.235943
 42
0.000671
  0
VERTEX
  8
0
 10
33.233902
 20
360.569533
 42
0.000000
  0
VERTEX
  8
0
 10
-0.032196
 20
361.267051
 42
0.000000
  0
SEQEND
  0
ENDSEC
  0
EOF
