  0
SECTION
  2
HEADER
  9
$ACADVER
  1
AC1006
  9
$EXTMIN
 10
0.000000
 20
0.000000
 30
0.000000
  9
$EXTMAX
 10
300.000000
 20
145.000000
 30
0.000000
  0
ENDSEC
  0
SECTION
  2
ENTITIES
  0
POLYLINE
  8
0
 66
1
 70
1
  0
VERTEX
  8
0
 10
274.971975
 20
142.092619
 42
-0.017002
  0
VERTEX
  8
0
 10
272.655771
 20
140.648803
 42
-0.058558
  0
VERTEX
  8
0
 10
271.032457
 20
139.950134
 42
-0.087145
  0
VERTEX
  8
0
 10
269.664639
 20
139.791305
 42
-0.076416
  0
VERTEX
  8
0
 10
268.256395
 20
140.092619
 42
0.045350
  0
VERTEX
  8
0
 10
265.540919
 20
140.852001
 42
0.092582
  0
VERTEX
  8
0
 10
263.335796
 20
140.846288
 42
0.106100
  0
VERTEX
  8
0
 10
261.477573
 20
140.063627
 42
0.073691
  0
VERTEX
  8
0
 10
259.816368
 20
138.493679
 42
-0.076335
  0
VERTEX
  8
0
 10
257.187750
 20
136.035497
 42
-0.049745
  0
VERTEX
  8
0
 10
253.534714
 20
134.039248
 42
-0.018052
  0
VERTEX
  8
0
 10
246.899357
 20
131.506646
 42
-0.001475
  0
VERTEX
  8
0
 10
229.296267
 20
125.564203
 42
0.000000
  0
VERTEX
  8
0
 10
205.092534
 20
117.472963
 42
0.000000
  0
VERTEX
  8
0
 10
204.796267
 20
120.928635
 42
0.033540
  0
VERTEX
  8
0
 10
204.501366
 20
122.846385
 42
0.123022
  0
VERTEX
  8
0
 10
203.955229
 20
123.936473
 42
0.121015
  0
VERTEX
  8
0
 10
202.955142
 20
124.651461
 42
0.031968
  0
VERTEX
  8
0
 10
201.073258
 20
125.266544
 42
0.031662
  0
VERTEX
  8
0
 10
199.385420
 20
125.588842
 42
0.048315
  0
VERTEX
  8
0
 10
197.895972
 20
125.631785
 42
0.053421
  0
VERTEX
  8
0
 10
196.541798
 20
125.393093
 42
0.052595
  0
VERTEX
  8
0
 10
195.261381
 20
124.872295
 42
0.056637
  0
VERTEX
  8
0
 10
194.035784
 20
124.025606
 42
0.119533
  0
VERTEX
  8
0
 10
193.373026
 20
123.087682
 42
0.089709
  0
VERTEX
  8
0
 10
193.108283
 20
121.770037
 42
0.022859
  0
VERTEX
  8
0
 10
193.165952
 20
119.583381
 42
0.000000
  0
VERTEX
  8
0
 10
193.455659
 20
115.570952
 42
0.000000
  0
VERTEX
  8
0
 10
184.477829
 20
112.428370
 42
0.002670
  0
VERTEX
  8
0
 10
179.831799
 20
110.774180
 42
0.000824
  0
VERTEX
  8
0
 10
172.849737
 20
108.233146
 42
0.000824
  0
VERTEX
  8
0
 10
165.049843
 20
105.365318
 42
0.000905
  0
VERTEX
  8
0
 10
157.500000
 20
102.559744
 42
-0.001379
  0
VERTEX
  8
0
 10
149.409634
 20
99.562031
 42
-0.000868
  0
VERTEX
  8
0
 10
139.940625
 20
96.101808
 42
-0.000871
  0
VERTEX
  8
0
 10
130.613300
 20
92.730076
 42
-0.001597
  0
VERTEX
  8
0
 10
123.000000
 20
90.020364
 42
0.000923
  0
VERTEX
  8
0
 10
116.152607
 20
87.593642
 42
0.000887
  0
VERTEX
  8
0
 10
109.222908
 20
85.109464
 42
0.000877
  0
VERTEX
  8
0
 10
103.121105
 20
82.897735
 42
0.003220
  0
VERTEX
  8
0
 10
99.269476
 20
81.465815
 42
0.000000
  0
VERTEX
  8
0
 10
92.038951
 20
78.724603
 42
0.000000
  0
VERTEX
  8
0
 10
88.769476
 20
81.971531
 42
0.029799
  0
VERTEX
  8
0
 10
85.227440
 20
85.092946
 42
0.026402
  0
VERTEX
  8
0
 10
81.197899
 20
87.909191
 42
0.024766
  0
VERTEX
  8
0
 10
76.636912
 20
90.446513
 42
0.019830
  0
VERTEX
  8
0
 10
71.500000
 20
92.731276
 42
0.023850
  0
VERTEX
  8
0
 10
67.978421
 20
93.942045
 42
0.032973
  0
VERTEX
  8
0
 10
64.716698
 20
94.663008
 42
0.026662
  0
VERTEX
  8
0
 10
60.902737
 20
95.039159
 42
0.009844
  0
VERTEX
  8
0
 10
55.500000
 20
95.175918
 42
0.033728
  0
VERTEX
  8
0
 10
45.532302
 20
94.559028
 42
0.045805
  0
VERTEX
  8
0
 10
36.740871
 20
92.585842
 42
0.046127
  0
VERTEX
  8
0
 10
28.502668
 20
89.058817
 42
0.034902
  0
VERTEX
  8
0
 10
20.198048
 20
83.776935
 42
0.039055
  0
VERTEX
  8
0
 10
11.233226
 20
76.003695
 42
0.068905
  0
VERTEX
  8
0
 10
5.386007
 20
68.163470
 42
0.070509
  0
VERTEX
  8
0
 10
1.971776
 20
59.159168
 42
0.042833
  0
VERTEX
  8
0
 10
0.424819
 20
47.857150
 42
0.021976
  0
VERTEX
  8
0
 10
0.385149
 20
41.726556
 42
0.029708
  0
VERTEX
  8
0
 10
0.921129
 20
36.211006
 42
0.027667
  0
VERTEX
  8
0
 10
1.836474
 20
31.949715
 42
0.338030
  0
VERTEX
  8
0
 10
3.080736
 20
31.000000
 42
-0.249291
  0
VERTEX
  8
0
 10
3.443148
 20
30.807334
 42
-0.024521
  0
VERTEX
  8
0
 10
3.972484
 20
29.933247
 42
-0.026418
  0
VERTEX
  8
0
 10
4.528706
 20
28.759875
 42
-0.017768
  0
VERTEX
  8
0
 10
5.043399
 20
27.368500
 42
0.023475
  0
VERTEX
  8
0
 10
5.635244
 20
25.822983
 42
0.017638
  0
VERTEX
  8
0
 10
6.424010
 20
24.181444
 42
0.017928
  0
VERTEX
  8
0
 10
7.277719
 20
22.687134
 42
0.038625
  0
VERTEX
  8
0
 10
8.060347
 20
21.618500
 42
-0.000043
  0
VERTEX
  8
0
 10
8.904626
 20
20.634740
 42
-0.000023
  0
VERTEX
  8
0
 10
9.949927
 20
19.416425
 42
-0.000023
  0
VERTEX
  8
0
 10
11.018189
 20
18.171121
 42
-0.000035
  0
VERTEX
  8
0
 10
11.939396
 20
17.096990
 42
-0.016032
  0
VERTEX
  8
0
 10
12.728381
 20
16.114863
 42
-0.019914
  0
VERTEX
  8
0
 10
13.394698
 20
15.151061
 42
-0.018598
  0
VERTEX
  8
0
 10
13.883299
 20
14.313075
 42
-0.123290
  0
VERTEX
  8
0
 10
14.000000
 20
13.846990
 42
0.122276
  0
VERTEX
  8
0
 10
14.080198
 20
13.523955
 42
0.100759
  0
VERTEX
  8
0
 10
14.306148
 20
13.248803
 42
0.091216
  0
VERTEX
  8
0
 10
14.644109
 20
13.063954
 42
0.079813
  0
VERTEX
  8
0
 10
15.042206
 20
13.000000
 42
-0.118757
  0
VERTEX
  8
0
 10
15.997760
 20
12.769797
 42
-0.037799
  0
VERTEX
  8
0
 10
17.255672
 20
12.001377
 42
-0.023564
  0
VERTEX
  8
0
 10
18.991143
 20
10.623464
 42
-0.006162
  0
VERTEX
  8
0
 10
21.640658
 20
8.250000
 42
0.034012
  0
VERTEX
  8
0
 10
22.716807
 20
7.388939
 42
0.031864
  0
VERTEX
  8
0
 10
23.922757
 20
6.660937
 42
0.033432
  0
VERTEX
  8
0
 10
25.077114
 20
6.155684
 42
0.086649
  0
VERTEX
  8
0
 10
25.968729
 20
6.000000
 42
-0.092421
  0
VERTEX
  8
0
 10
26.898861
 20
5.826591
 42
-0.028450
  0
VERTEX
  8
0
 10
28.203975
 20
5.235097
 42
-0.027384
  0
VERTEX
  8
0
 10
29.618454
 20
4.392664
 42
-0.026904
  0
VERTEX
  8
0
 10
30.941138
 20
3.396075
 42
0.028416
  0
VERTEX
  8
0
 10
32.517100
 20
2.216102
 42
0.059718
  0
VERTEX
  8
0
 10
33.881127
 20
1.529085
 42
0.074476
  0
VERTEX
  8
0
 10
35.158039
 20
1.272095
 42
0.074093
  0
VERTEX
  8
0
 10
36.456578
 20
1.399746
 42
-0.042223
  0
VERTEX
  8
0
 10
37.428720
 20
1.558135
 42
-0.051701
  0
VERTEX
  8
0
 10
38.348518
 20
1.534032
 42
-0.060367
  0
VERTEX
  8
0
 10
39.087022
 20
1.345383
 42
-0.163056
  0
VERTEX
  8
0
 10
39.497732
 20
1.003670
 42
0.199619
  0
VERTEX
  8
0
 10
40.470485
 20
0.304556
 42
0.045793
  0
VERTEX
  8
0
 10
42.517034
 20
0.021195
 42
0.047916
  0
VERTEX
  8
0
 10
44.453716
 20
0.117521
 42
0.371802
  0
VERTEX
  8
0
 10
45.001115
 20
0.750000
 42
-0.408874
  0
VERTEX
  8
0
 10
45.613271
 20
1.371588
 42
-0.008935
  0
VERTEX
  8
0
 10
50.266776
 20
1.366501
 42
-0.017925
  0
VERTEX
  8
0
 10
54.963077
 20
1.108846
 42
-0.043371
  0
VERTEX
  8
0
 10
58.381158
 20
0.496242
 42
0.030445
  0
VERTEX
  8
0
 10
59.859351
 20
0.191733
 42
0.096619
  0
VERTEX
  8
0
 10
60.863031
 20
0.242314
 42
0.129072
  0
VERTEX
  8
0
 10
61.606557
 20
0.648232
 42
0.076184
  0
VERTEX
  8
0
 10
62.232491
 20
1.450954
 42
-0.087544
  0
VERTEX
  8
0
 10
62.898545
 20
2.266488
 42
-0.121179
  0
VERTEX
  8
0
 10
63.737131
 20
2.692593
 42
-0.080955
  0
VERTEX
  8
0
 10
64.931839
 20
2.773223
 42
-0.022823
  0
VERTEX
  8
0
 10
66.786631
 20
2.512206
 42
0.026637
  0
VERTEX
  8
0
 10
68.760483
 20
2.249762
 42
0.093927
  0
VERTEX
  8
0
 10
70.027380
 20
2.387608
 42
0.111637
  0
VERTEX
  8
0
 10
71.035086
 20
2.961960
 42
0.046071
  0
VERTEX
  8
0
 10
72.098193
 20
4.130178
 42
-0.053700
  0
VERTEX
  8
0
 10
73.124688
 20
5.224243
 42
-0.085715
  0
VERTEX
  8
0
 10
74.222304
 20
5.880613
 42
-0.075498
  0
VERTEX
  8
0
 10
75.576999
 20
6.179601
 42
-0.033452
  0
VERTEX
  8
0
 10
77.412896
 20
6.178928
 42
0.018214
  0
VERTEX
  8
0
 10
79.472896
 20
6.115418
 42
0.136092
  0
VERTEX
  8
0
 10
80.405006
 20
6.379545
 42
0.207929
  0
VERTEX
  8
0
 10
80.863613
 20
7.029970
 42
0.051074
  0
VERTEX
  8
0
 10
81.000000
 20
8.361686
 42
-0.104244
  0
VERTEX
  8
0
 10
81.348179
 20
10.013556
 42
-0.146914
  0
VERTEX
  8
0
 10
82.319947
 20
11.150525
 42
-0.105334
  0
VERTEX
  8
0
 10
84.037184
 20
11.800717
 42
-0.038032
  0
VERTEX
  8
0
 10
86.653353
 20
12.000000
 42
0.040614
  0
VERTEX
  8
0
 10
87.984396
 20
12.108298
 42
0.187340
  0
VERTEX
  8
0
 10
88.638275
 20
12.493840
 42
0.166758
  0
VERTEX
  8
0
 10
88.903847
 20
13.251397
 42
0.030787
  0
VERTEX
  8
0
 10
88.821566
 20
14.750000
 42
-0.035751
  0
VERTEX
  8
0
 10
88.754429
 20
16.243180
 42
-0.159396
  0
VERTEX
  8
0
 10
89.045294
 20
17.058504
 42
-0.162911
  0
VERTEX
  8
0
 10
89.757399
 20
17.534274
 42
-0.037783
  0
VERTEX
  8
0
 10
91.191172
 20
17.810746
 42
0.049969
  0
VERTEX
  8
0
 10
92.592806
 20
18.116554
 42
0.137737
  0
VERTEX
  8
0
 10
93.426191
 20
18.672646
 42
0.120036
  0
VERTEX
  8
0
 10
93.914361
 20
19.634397
 42
0.033571
  0
VERTEX
  8
0
 10
94.191172
 20
21.310746
 42
-0.034553
  0
VERTEX
  8
0
 10
94.454128
 20
22.883994
 42
-0.099174
  0
VERTEX
  8
0
 10
94.916069
 20
23.884910
 42
-0.126155
  0
VERTEX
  8
0
 10
95.652106
 20
24.492038
 42
-0.074551
  0
VERTEX
  8
0
 10
96.750000
 20
24.819551
 42
0.075062
  0
VERTEX
  8
0
 10
97.923334
 20
25.170868
 42
0.164481
  0
VERTEX
  8
0
 10
98.590364
 20
25.813549
 42
0.100944
  0
VERTEX
  8
0
 10
98.916874
 20
26.963128
 42
0.018885
  0
VERTEX
  8
0
 10
99.000000
 20
29.163171
 42
-0.021476
  0
VERTEX
  8
0
 10
99.088857
 20
31.230962
 42
-0.082306
  0
VERTEX
  8
0
 10
99.406745
 20
32.475220
 42
-0.130471
  0
VERTEX
  8
0
 10
100.017084
 20
33.239536
 42
-0.095713
  0
VERTEX
  8
0
 10
101.000000
 20
33.710251
 42
0.094574
  0
VERTEX
  8
0
 10
101.977829
 20
34.175818
 42
0.129321
  0
VERTEX
  8
0
 10
102.588878
 20
34.930473
 42
0.083385
  0
VERTEX
  8
0
 10
102.909372
 20
36.149796
 42
0.022666
  0
VERTEX
  8
0
 10
103.000000
 20
38.148016
 42
-0.026025
  0
VERTEX
  8
0
 10
103.093481
 20
39.942810
 42
-0.059598
  0
VERTEX
  8
0
 10
103.392730
 20
41.261616
 42
-0.084910
  0
VERTEX
  8
0
 10
103.898196
 20
42.161889
 42
-0.131596
  0
VERTEX
  8
0
 10
104.615200
 20
42.682580
 42
0.124118
  0
VERTEX
  8
0
 10
105.371875
 20
43.215251
 42
0.125644
  0
VERTEX
  8
0
 10
105.781312
 20
44.040683
 42
0.069919
  0
VERTEX
  8
0
 10
105.874615
 20
45.354887
 42
0.016872
  0
VERTEX
  8
0
 10
105.650911
 20
47.530226
 42
0.000000
  0
VERTEX
  8
0
 10
105.071422
 20
51.758061
 42
0.000000
  0
VERTEX
  8
0
 10
111.285711
 20
53.920019
 42
0.005585
  0
VERTEX
  8
0
 10
116.383101
 20
55.757493
 42
0.037708
  0
VERTEX
  8
0
 10
118.818651
 20
56.881941
 42
0.074349
  0
VERTEX
  8
0
 10
120.286001
 20
58.012158
 42
0.065787
  0
VERTEX
  8
0
 10
121.430658
 20
59.566831
 42
-0.052566
  0
VERTEX
  8
0
 10
125.045637
 20
64.757786
 42
-0.090695
  0
VERTEX
  8
0
 10
129.137429
 20
68.043447
 42
-0.032944
  0
VERTEX
  8
0
 10
136.411855
 20
71.377900
 42
-0.001971
  0
VERTEX
  8
0
 10
159.000000
 20
79.880053
 42
0.001540
  0
VERTEX
  8
0
 10
168.058876
 20
83.280893
 42
0.002056
  0
VERTEX
  8
0
 10
176.260044
 20
86.427217
 42
0.002197
  0
VERTEX
  8
0
 10
183.082539
 20
89.111424
 42
0.007447
  0
VERTEX
  8
0
 10
187.500000
 20
90.948566
 42
-0.010618
  0
VERTEX
  8
0
 10
189.782359
 20
91.880827
 42
-0.000607
  0
VERTEX
  8
0
 10
196.871972
 20
94.592630
 42
-0.000787
  0
VERTEX
  8
0
 10
206.307777
 20
98.171749
 42
-0.000331
  0
VERTEX
  8
0
 10
219.000000
 20
102.953632
 42
0.000332
  0
VERTEX
  8
0
 10
233.768154
 20
108.517670
 42
0.000929
  0
VERTEX
  8
0
 10
244.116604
 20
112.446375
 42
0.001008
  0
VERTEX
  8
0
 10
251.487714
 20
115.277473
 42
0.008170
  0
VERTEX
  8
0
 10
254.842543
 20
116.637171
 42
-0.068640
  0
VERTEX
  8
0
 10
258.231604
 20
117.554491
 42
-0.079418
  0
VERTEX
  8
0
 10
261.571239
 20
117.450154
 42
-0.101236
  0
VERTEX
  8
0
 10
264.090938
 20
116.409938
 42
-0.212073
  0
VERTEX
  8
0
 10
265.193648
 20
114.649281
 42
0.082063
  0
VERTEX
  8
0
 10
265.519258
 20
113.616254
 42
0.122986
  0
VERTEX
  8
0
 10
266.135508
 20
112.904845
 42
0.094610
  0
VERTEX
  8
0
 10
267.144333
 20
112.450032
 42
0.034612
  0
VERTEX
  8
0
 10
268.694772
 20
112.190761
 42
0.083976
  0
VERTEX
  8
0
 10
271.685534
 20
112.403657
 42
0.082918
  0
VERTEX
  8
0
 10
274.454346
 20
113.587637
 42
0.097898
  0
VERTEX
  8
0
 10
276.337542
 20
115.394498
 42
0.187452
  0
VERTEX
  8
0
 10
276.828744
 20
117.399099
 42
-0.034374
  0
VERTEX
  8
0
 10
276.777680
 20
118.227283
 42
-0.045539
  0
VERTEX
  8
0
 10
276.851661
 20
118.978564
 42
-0.053168
  0
VERTEX
  8
0
 10
277.027516
 20
119.556437
 42
-0.190865
  0
VERTEX
  8
0
 10
277.293365
 20
119.825799
 42
-0.147317
  0
VERTEX
  8
0
 10
278.889610
 20
120.021895
 42
-0.044578
  0
VERTEX
  8
0
 10
281.274878
 20
119.388915
 42
-0.043027
  0
VERTEX
  8
0
 10
283.417399
 20
118.394643
 42
-0.268782
  0
VERTEX
  8
0
 10
284.000000
 20
117.389160
 42
0.190120
  0
VERTEX
  8
0
 10
284.514932
 20
116.083882
 42
0.169669
  0
VERTEX
  8
0
 10
285.811367
 20
115.403748
 42
0.089047
  0
VERTEX
  8
0
 10
288.017573
 20
115.471312
 42
0.029485
  0
VERTEX
  8
0
 10
291.153821
 20
116.329827
 42
0.018826
  0
VERTEX
  8
0
 10
293.686787
 20
117.294232
 42
0.110383
  0
VERTEX
  8
0
 10
294.837350
 20
118.117922
 42
0.139355
  0
VERTEX
  8
0
 10
295.393022
 20
119.260440
 42
0.036553
  0
VERTEX
  8
0
 10
295.603825
 20
121.306347
 42
-0.048179
  0
VERTEX
  8
0
 10
295.799345
 20
122.851328
 42
-0.031050
  0
VERTEX
  8
0
 10
296.305840
 20
124.584974
 42
-0.031083
  0
VERTEX
  8
0
 10
297.021727
 20
126.239004
 42
-0.049014
  0
VERTEX
  8
0
 10
297.853825
 20
127.541298
 42
0.047482
  0
VERTEX
  8
0
 10
298.741360
 20
128.921042
 42
0.038914
  0
VERTEX
  8
0
 10
299.422671
 20
130.537265
 42
0.038302
  0
VERTEX
  8
0
 10
299.854837
 20
132.268836
 42
0.042029
  0
VERTEX
  8
0
 10
300.000000
 20
133.992722
 42
0.047420
  0
VERTEX
  8
0
 10
299.786794
 20
136.235730
 42
0.122080
  0
VERTEX
  8
0
 10
299.109196
 20
137.703519
 42
0.075062
  0
VERTEX
  8
0
 10
297.615447
 20
139.082586
 42
0.010665
  0
VERTEX
  8
0
 10
294.099273
 20
141.357864
 42
0.043436
  0
VERTEX
  8
0
 10
288.695862
 20
144.076689
 42
0.085449
  0
VERTEX
  8
0
 10
284.004817
 20
145.071051
 42
0.094555
  0
VERTEX
  8
0
 10
279.570976
 20
144.400242
 42
0.063262
  0
SEQEND
  0
ENDSEC
  0
EOF
