  0
SECTION
  2
HEADER
  9
$ACADVER
  1
AC1006
  9
$EXTMIN
 10
0.000000
 20
0.000000
 30
0.000000
  9
$EXTMAX
 10
312.000000
 20
186.000000
 30
0.000000
  0
ENDSEC
  0
SECTION
  2
ENTITIES
  0
POLYLINE
  8
0
 66
1
 70
1
  0
VERTEX
  8
0
 10
265.818777
 20
185.018924
 42
0.024855
  0
VERTEX
  8
0
 10
264.625889
 20
184.593194
 42
0.014867
  0
VERTEX
  8
0
 10
263.252099
 20
183.976015
 42
0.014868
  0
VERTEX
  8
0
 10
261.917693
 20
183.278429
 42
0.024901
  0
VERTEX
  8
0
 10
260.846271
 20
182.604877
 42
-0.055838
  0
VERTEX
  8
0
 10
259.717880
 20
181.989236
 42
-0.029286
  0
VERTEX
  8
0
 10
258.202885
 20
181.471433
 42
-0.028727
  0
VERTEX
  8
0
 10
256.569109
 20
181.117486
 42
-0.038997
  0
VERTEX
  8
0
 10
255.065058
 20
181.000000
 42
0.041068
  0
VERTEX
  8
0
 10
253.317910
 20
180.856254
 42
0.067481
  0
VERTEX
  8
0
 10
251.902560
 20
180.420083
 42
0.069552
  0
VERTEX
  8
0
 10
250.683794
 20
179.634459
 42
0.046585
  0
VERTEX
  8
0
 10
249.531962
 20
178.437624
 42
-0.055358
  0
VERTEX
  8
0
 10
248.334655
 20
177.236340
 42
-0.056711
  0
VERTEX
  8
0
 10
246.912121
 20
176.338225
 42
-0.049885
  0
VERTEX
  8
0
 10
245.166966
 20
175.700869
 42
-0.029754
  0
VERTEX
  8
0
 10
242.994397
 20
175.280818
 42
0.029425
  0
VERTEX
  8
0
 10
241.018408
 20
174.900121
 42
0.019230
  0
VERTEX
  8
0
 10
238.792104
 20
174.241536
 42
0.019354
  0
VERTEX
  8
0
 10
236.664246
 20
173.428978
 42
0.034711
  0
VERTEX
  8
0
 10
235.000000
 20
172.577568
 42
-0.018214
  0
VERTEX
  8
0
 10
230.173821
 20
169.904255
 42
-0.002193
  0
VERTEX
  8
0
 10
219.300334
 20
164.448593
 42
-0.002845
  0
VERTEX
  8
0
 10
207.575219
 20
158.712768
 42
-0.004563
  0
VERTEX
  8
0
 10
197.500000
 20
153.967730
 42
0.004480
  0
VERTEX
  8
0
 10
192.680100
 20
151.698716
 42
0.001148
  0
VERTEX
  8
0
 10
184.926837
 20
147.941596
 42
0.001170
  0
VERTEX
  8
0
 10
176.098807
 20
143.613010
 42
0.001188
  0
VERTEX
  8
0
 10
167.336042
 20
139.265067
 42
0.000000
  0
VERTEX
  8
0
 10
146.172084
 20
128.701134
 42
0.000000
  0
VERTEX
  8
0
 10
139.836042
 20
134.852422
 42
0.020364
  0
VERTEX
  8
0
 10
136.901260
 20
137.478181
 42
0.013139
  0
VERTEX
  8
0
 10
133.304962
 20
140.285921
 42
0.013211
  0
VERTEX
  8
0
 10
129.637674
 20
142.850058
 42
0.024169
  0
VERTEX
  8
0
 10
126.500000
 20
144.711458
 42
0.013219
  0
VERTEX
  8
0
 10
122.222823
 20
146.834159
 42
0.049074
  0
VERTEX
  8
0
 10
119.385126
 20
147.825734
 42
0.049830
  0
VERTEX
  8
0
 10
116.430271
 20
148.237675
 42
0.013922
  0
VERTEX
  8
0
 10
111.757219
 20
148.289537
 42
0.037173
  0
VERTEX
  8
0
 10
102.577072
 20
147.451304
 42
0.119911
  0
VERTEX
  8
0
 10
96.981830
 20
145.058906
 42
0.098707
  0
VERTEX
  8
0
 10
92.511375
 20
140.076430
 42
0.020698
  0
VERTEX
  8
0
 10
86.937429
 20
129.704401
 42
-0.010971
  0
VERTEX
  8
0
 10
84.742217
 20
125.421827
 42
-0.013024
  0
VERTEX
  8
0
 10
82.477598
 20
121.481755
 42
-0.011871
  0
VERTEX
  8
0
 10
80.413557
 20
118.271794
 42
-0.077427
  0
VERTEX
  8
0
 10
79.110390
 20
116.872193
 42
-0.092751
  0
VERTEX
  8
0
 10
76.799629
 20
115.664646
 42
-0.072734
  0
VERTEX
  8
0
 10
73.998886
 20
115.237458
 42
-0.057255
  0
VERTEX
  8
0
 10
70.605257
 20
115.606216
 42
-0.029593
  0
VERTEX
  8
0
 10
66.500000
 20
116.794668
 42
0.034928
  0
VERTEX
  8
0
 10
63.205811
 20
117.710386
 42
0.006424
  0
VERTEX
  8
0
 10
57.004105
 20
118.893196
 42
0.007311
  0
VERTEX
  8
0
 10
50.202991
 20
119.997672
 42
0.010479
  0
VERTEX
  8
0
 10
44.143541
 20
120.761607
 42
0.051784
  0
VERTEX
  8
0
 10
38.471579
 20
120.767155
 42
0.038658
  0
VERTEX
  8
0
 10
32.313888
 20
119.648067
 42
0.035104
  0
VERTEX
  8
0
 10
25.804997
 20
117.438711
 42
0.027323
  0
VERTEX
  8
0
 10
19.079939
 20
114.173160
 42
0.013763
  0
VERTEX
  8
0
 10
14.671102
 20
111.565009
 42
0.031194
  0
VERTEX
  8
0
 10
11.528065
 20
109.301693
 42
0.036134
  0
VERTEX
  8
0
 10
8.981957
 20
106.888054
 42
0.025866
  0
VERTEX
  8
0
 10
6.489126
 20
103.856232
 42
0.050330
  0
VERTEX
  8
0
 10
2.985698
 20
97.956249
 42
0.060424
  0
VERTEX
  8
0
 10
0.989497
 20
91.821236
 42
0.044185
  0
VERTEX
  8
0
 10
0.158519
 20
83.978391
 42
0.014264
  0
VERTEX
  8
0
 10
0.290423
 20
72.284640
 42
0.006686
  0
VERTEX
  8
0
 10
0.722739
 20
64.162814
 42
0.025533
  0
VERTEX
  8
0
 10
1.317543
 20
59.128537
 42
0.030175
  0
VERTEX
  8
0
 10
2.371238
 20
54.607785
 42
0.012177
  0
VERTEX
  8
0
 10
4.327047
 20
48.578515
 42
0.010199
  0
VERTEX
  8
0
 10
6.911001
 20
41.680774
 42
0.025504
  0
VERTEX
  8
0
 10
9.151736
 20
36.792663
 42
0.019360
  0
VERTEX
  8
0
 10
12.212117
 20
31.441798
 42
0.003883
  0
VERTEX
  8
0
 10
18.103272
 20
22.169610
 42
0.022647
  0
VERTEX
  8
0
 10
23.200899
 20
15.015005
 42
0.036149
  0
VERTEX
  8
0
 10
28.242157
 20
9.456229
 42
0.041758
  0
VERTEX
  8
0
 10
33.403467
 20
5.295707
 42
0.051231
  0
VERTEX
  8
0
 10
38.856579
 20
2.368785
 42
0.029990
  0
VERTEX
  8
0
 10
42.527306
 20
1.110341
 42
0.038957
  0
VERTEX
  8
0
 10
46.016081
 20
0.430553
 42
0.023698
  0
VERTEX
  8
0
 10
50.706145
 20
0.115014
 42
0.004545
  0
VERTEX
  8
0
 10
59.236299
 20
0.023735
 42
0.000000
  0
VERTEX
  8
0
 10
73.972597
 20
-0.000000
 42
0.000000
  0
VERTEX
  8
0
 10
82.236299
 20
4.527253
 42
0.028101
  0
VERTEX
  8
0
 10
88.499293
 20
8.430979
 42
0.043041
  0
VERTEX
  8
0
 10
93.390182
 20
12.547111
 42
0.040581
  0
VERTEX
  8
0
 10
97.699253
 20
17.621092
 42
0.021778
  0
VERTEX
  8
0
 10
102.200114
 20
24.500000
 42
-0.021456
  0
VERTEX
  8
0
 10
104.221174
 20
27.593239
 42
-0.012649
  0
VERTEX
  8
0
 10
106.882476
 20
31.116259
 42
-0.012642
  0
VERTEX
  8
0
 10
109.724178
 20
34.507006
 42
-0.021081
  0
VERTEX
  8
0
 10
112.303229
 20
37.193649
 42
-0.011464
  0
VERTEX
  8
0
 10
115.911202
 20
40.492985
 42
-0.054704
  0
VERTEX
  8
0
 10
118.199137
 20
42.087025
 42
-0.070616
  0
VERTEX
  8
0
 10
120.497702
 20
42.947545
 42
-0.027033
  0
VERTEX
  8
0
 10
123.874903
 20
43.503549
 42
0.005909
  0
VERTEX
  8
0
 10
126.377956
 20
43.807744
 42
0.003863
  0
VERTEX
  8
0
 10
129.257399
 20
44.214930
 42
0.003885
  0
VERTEX
  8
0
 10
132.058130
 20
44.655352
 42
0.007423
  0
VERTEX
  8
0
 10
134.299221
 20
45.059900
 42
-0.010048
  0
VERTEX
  8
0
 10
136.354992
 20
45.419864
 42
-0.008243
  0
VERTEX
  8
0
 10
138.563839
 20
45.723846
 42
-0.008344
  0
VERTEX
  8
0
 10
140.603714
 20
45.935912
 42
-0.021729
  0
VERTEX
  8
0
 10
142.077738
 20
46.000000
 42
0.129533
  0
VERTEX
  8
0
 10
148.914016
 20
47.801270
 42
0.041841
  0
VERTEX
  8
0
 10
157.634496
 20
53.753154
 42
0.042171
  0
VERTEX
  8
0
 10
165.350931
 20
61.188108
 42
0.109349
  0
VERTEX
  8
0
 10
169.045032
 20
67.920492
 42
0.048591
  0
VERTEX
  8
0
 10
170.569779
 20
75.982864
 42
0.046763
  0
VERTEX
  8
0
 10
170.539415
 20
84.294436
 42
0.047474
  0
VERTEX
  8
0
 10
168.977095
 20
92.331778
 42
0.053768
  0
VERTEX
  8
0
 10
165.960689
 20
99.581248
 42
-0.016205
  0
VERTEX
  8
0
 10
164.769875
 20
101.929474
 42
-0.038530
  0
VERTEX
  8
0
 10
164.080843
 20
103.760647
 42
-0.054061
  0
VERTEX
  8
0
 10
163.835177
 20
105.151292
 42
-0.159105
  0
VERTEX
  8
0
 10
164.071376
 20
106.081248
 42
0.058817
  0
VERTEX
  8
0
 10
164.417503
 20
106.803686
 42
0.025604
  0
VERTEX
  8
0
 10
164.710085
 20
107.828494
 42
0.024907
  0
VERTEX
  8
0
 10
164.912890
 20
108.961639
 42
0.030324
  0
VERTEX
  8
0
 10
164.984687
 20
110.037030
 42
-0.157863
  0
VERTEX
  8
0
 10
165.523822
 20
111.668410
 42
-0.078208
  0
VERTEX
  8
0
 10
167.086899
 20
113.222070
 42
-0.032809
  0
VERTEX
  8
0
 10
170.272161
 20
115.222105
 42
-0.004438
  0
VERTEX
  8
0
 10
177.250000
 20
118.910125
 42
0.001010
  0
VERTEX
  8
0
 10
187.889489
 20
124.440448
 42
0.001351
  0
VERTEX
  8
0
 10
197.519160
 20
129.503755
 42
0.001272
  0
VERTEX
  8
0
 10
207.559537
 20
134.850417
 42
0.000755
  0
VERTEX
  8
0
 10
219.500000
 20
141.271170
 42
-0.001457
  0
VERTEX
  8
0
 10
236.798593
 20
150.541868
 42
-0.012389
  0
VERTEX
  8
0
 10
244.677744
 20
154.487664
 42
-0.027790
  0
VERTEX
  8
0
 10
249.466788
 20
156.422355
 42
-0.082277
  0
VERTEX
  8
0
 10
252.953391
 20
157.000000
 42
-0.022338
  0
VERTEX
  8
0
 10
255.145119
 20
156.902035
 42
-0.128054
  0
VERTEX
  8
0
 10
256.231027
 20
156.512946
 42
-0.156514
  0
VERTEX
  8
0
 10
256.876281
 20
155.684133
 42
-0.038420
  0
VERTEX
  8
0
 10
257.350000
 20
154.000000
 42
0.038955
  0
VERTEX
  8
0
 10
257.829521
 20
152.302199
 42
0.160445
  0
VERTEX
  8
0
 10
258.485113
 20
151.476930
 42
0.125761
  0
VERTEX
  8
0
 10
259.599907
 20
151.093721
 42
0.020224
  0
VERTEX
  8
0
 10
261.915983
 20
151.000000
 42
0.023405
  0
VERTEX
  8
0
 10
263.479790
 20
151.073242
 42
0.030305
  0
VERTEX
  8
0
 10
264.898506
 20
151.293750
 42
0.031095
  0
VERTEX
  8
0
 10
266.018570
 20
151.612139
 42
0.171167
  0
VERTEX
  8
0
 10
266.500000
 20
152.000000
 42
-0.128117
  0
VERTEX
  8
0
 10
266.902480
 20
152.384362
 42
-0.046167
  0
VERTEX
  8
0
 10
267.632543
 20
152.706250
 42
-0.042064
  0
VERTEX
  8
0
 10
268.535256
 20
152.926123
 42
-0.038729
  0
VERTEX
  8
0
 10
269.487588
 20
153.000000
 42
0.053948
  0
VERTEX
  8
0
 10
270.504810
 20
153.110074
 42
0.038575
  0
VERTEX
  8
0
 10
271.601711
 20
153.440625
 42
0.039121
  0
VERTEX
  8
0
 10
272.610236
 20
153.925325
 42
0.064887
  0
VERTEX
  8
0
 10
273.357143
 20
154.500000
 42
-0.058396
  0
VERTEX
  8
0
 10
274.084041
 20
155.074398
 42
-0.038971
  0
VERTEX
  8
0
 10
275.028986
 20
155.559375
 42
-0.039057
  0
VERTEX
  8
0
 10
276.034086
 20
155.890449
 42
-0.060104
  0
VERTEX
  8
0
 10
276.942140
 20
156.000000
 42
0.035328
  0
VERTEX
  8
0
 10
277.866978
 20
156.065427
 42
0.022672
  0
VERTEX
  8
0
 10
278.924746
 20
156.265120
 42
0.022775
  0
VERTEX
  8
0
 10
279.947771
 20
156.556494
 42
0.039101
  0
VERTEX
  8
0
 10
280.763569
 20
156.902536
 42
-0.031605
  0
VERTEX
  8
0
 10
281.720873
 20
157.325623
 42
-0.008201
  0
VERTEX
  8
0
 10
283.311798
 20
157.882236
 42
-0.008307
  0
VERTEX
  8
0
 10
285.149826
 20
158.457945
 42
-0.008389
  0
VERTEX
  8
0
 10
287.000000
 20
158.970297
 42
0.002403
  0
VERTEX
  8
0
 10
288.947593
 20
159.484604
 42
0.001819
  0
VERTEX
  8
0
 10
291.080231
 20
160.067082
 42
0.001839
  0
VERTEX
  8
0
 10
293.078565
 20
160.628620
 42
0.004277
  0
VERTEX
  8
0
 10
294.570998
 20
161.067761
 42
-0.015394
  0
VERTEX
  8
0
 10
295.891817
 20
161.424701
 42
-0.012652
  0
VERTEX
  8
0
 10
297.321222
 20
161.726155
 42
-0.012847
  0
VERTEX
  8
0
 10
298.649181
 20
161.936176
 42
-0.032802
  0
VERTEX
  8
0
 10
299.620998
 20
162.000000
 42
0.093576
  0
VERTEX
  8
0
 10
301.383835
 20
162.332833
 42
0.110390
  0
VERTEX
  8
0
 10
302.788859
 20
163.279913
 42
0.106876
  0
VERTEX
  8
0
 10
303.687681
 20
164.763006
 42
0.083168
  0
VERTEX
  8
0
 10
304.000000
 20
166.627652
 42
-0.101608
  0
VERTEX
  8
0
 10
304.235041
 20
167.772321
 42
-0.096399
  0
VERTEX
  8
0
 10
304.904221
 20
168.756263
 42
-0.067015
  0
VERTEX
  8
0
 10
306.117733
 20
169.674034
 42
-0.024549
  0
VERTEX
  8
0
 10
308.044898
 20
170.639909
 42
0.020112
  0
VERTEX
  8
0
 10
310.582613
 20
171.883746
 42
0.144048
  0
VERTEX
  8
0
 10
311.541054
 20
172.835839
 42
0.126735
  0
VERTEX
  8
0
 10
311.892694
 20
174.210289
 42
0.014205
  0
VERTEX
  8
0
 10
311.794898
 20
177.462132
 42
0.012614
  0
VERTEX
  8
0
 10
311.521002
 20
180.726850
 42
0.134875
  0
VERTEX
  8
0
 10
311.035716
 20
181.952296
 42
0.168930
  0
VERTEX
  8
0
 10
310.030390
 20
182.626735
 42
0.022638
  0
VERTEX
  8
0
 10
307.500000
 20
183.168540
 42
-0.001165
  0
VERTEX
  8
0
 10
305.544234
 20
183.500224
 42
-0.000479
  0
VERTEX
  8
0
 10
302.894818
 20
183.958515
 42
-0.000474
  0
VERTEX
  8
0
 10
300.052882
 20
184.455690
 42
-0.000609
  0
VERTEX
  8
0
 10
297.439805
 20
184.918665
 42
0.033509
  0
VERTEX
  8
0
 10
290.789578
 20
185.650331
 42
0.009854
  0
VERTEX
  8
0
 10
280.521541
 20
185.885292
 42
0.007964
  0
VERTEX
  8
0
 10
270.357992
 20
185.755620
 42
0.066200
  0
SEQEND
  0
ENDSEC
  0
EOF
