  0
SECTION
  2
HEADER
  9
$ACADVER
  1
AC1006
  9
$EXTMIN
 10
0.000000
 20
0.000000
 30
0.000000
  9
$EXTMAX
 10
346.000000
 20
638.000000
 30
0.000000
  0
ENDSEC
  0
SECTION
  2
ENTITIES
  0
POLYLINE
  8
0
 66
1
 70
1
  0
VERTEX
  8
0
 10
36.500000
 20
634.031498
 42
-0.000741
  0
VERTEX
  8
0
 10
31.248034
 20
632.368413
 42
-0.000533
  0
VERTEX
  8
0
 10
25.381250
 20
630.527073
 42
-0.000538
  0
VERTEX
  8
0
 10
19.796981
 20
628.787542
 42
-0.001166
  0
VERTEX
  8
0
 10
15.500000
 20
627.465066
 42
0.007875
  0
VERTEX
  8
0
 10
9.687330
 20
625.590379
 42
0.066333
  0
VERTEX
  8
0
 10
7.225883
 20
624.370232
 42
0.090749
  0
VERTEX
  8
0
 10
5.491925
 20
622.676448
 42
0.020657
  0
VERTEX
  8
0
 10
3.250000
 20
619.215459
 42
0.010637
  0
VERTEX
  8
0
 10
2.005474
 20
617.002114
 42
0.013450
  0
VERTEX
  8
0
 10
0.954688
 20
614.902675
 42
0.011526
  0
VERTEX
  8
0
 10
0.169364
 20
613.115901
 42
0.098076
  0
VERTEX
  8
0
 10
0.000000
 20
612.260772
 42
0.122056
  0
VERTEX
  8
0
 10
0.326028
 20
610.945097
 42
0.013548
  0
VERTEX
  8
0
 10
1.856856
 20
608.226952
 42
0.017055
  0
VERTEX
  8
0
 10
3.575027
 20
605.570481
 42
0.055836
  0
VERTEX
  8
0
 10
4.951820
 20
604.000000
 42
-0.039445
  0
VERTEX
  8
0
 10
6.388822
 20
602.465137
 42
-0.003970
  0
VERTEX
  8
0
 10
9.486490
 20
598.520383
 42
-0.001383
  0
VERTEX
  8
0
 10
12.779846
 20
594.232696
 42
-0.164515
  0
VERTEX
  8
0
 10
13.000000
 20
593.581703
 42
-0.293059
  0
VERTEX
  8
0
 10
12.855699
 20
593.356650
 42
-0.045136
  0
VERTEX
  8
0
 10
12.330986
 20
593.170875
 42
-0.038424
  0
VERTEX
  8
0
 10
11.595304
 20
593.042122
 42
-0.024116
  0
VERTEX
  8
0
 10
10.722506
 20
593.000000
 42
0.157693
  0
VERTEX
  8
0
 10
6.656338
 20
591.684886
 42
0.170983
  0
VERTEX
  8
0
 10
4.291522
 20
588.275908
 42
0.129743
  0
VERTEX
  8
0
 10
4.243090
 20
583.309813
 42
0.078864
  0
VERTEX
  8
0
 10
6.574373
 20
577.882185
 42
0.018226
  0
VERTEX
  8
0
 10
8.200927
 20
575.502339
 42
0.102845
  0
VERTEX
  8
0
 10
9.341325
 20
574.482122
 42
0.124045
  0
VERTEX
  8
0
 10
10.691627
 20
574.096713
 42
0.031580
  0
VERTEX
  8
0
 10
12.985361
 20
574.169994
 42
-0.009945
  0
VERTEX
  8
0
 10
15.183338
 20
574.335570
 42
-0.121534
  0
VERTEX
  8
0
 10
16.005740
 20
574.180319
 42
-0.349334
  0
VERTEX
  8
0
 10
16.234720
 20
573.729730
 42
-0.072478
  0
VERTEX
  8
0
 10
15.910987
 20
572.833679
 42
0.077020
  0
VERTEX
  8
0
 10
15.209225
 20
570.834959
 42
0.057018
  0
VERTEX
  8
0
 10
15.045116
 20
568.494721
 42
0.059482
  0
VERTEX
  8
0
 10
15.402765
 20
566.316287
 42
0.120892
  0
VERTEX
  8
0
 10
16.262965
 20
564.821429
 42
-0.022934
  0
VERTEX
  8
0
 10
16.867971
 20
564.127324
 42
-0.008094
  0
VERTEX
  8
0
 10
17.671960
 20
563.080357
 42
-0.008015
  0
VERTEX
  8
0
 10
18.519551
 20
561.899752
 42
-0.009323
  0
VERTEX
  8
0
 10
19.286018
 20
560.750000
 42
0.177219
  0
VERTEX
  8
0
 10
22.610049
 20
558.219574
 42
0.157168
  0
VERTEX
  8
0
 10
26.975590
 20
558.271607
 42
0.150951
  0
VERTEX
  8
0
 10
30.614102
 20
560.887590
 42
0.163384
  0
VERTEX
  8
0
 10
32.000000
 20
565.015609
 42
0.000000
  0
VERTEX
  8
0
 10
32.000000
 20
568.296628
 42
0.000000
  0
VERTEX
  8
0
 10
35.000000
 20
565.157416
 42
-0.019372
  0
VERTEX
  8
0
 10
37.383261
 20
562.461865
 42
-0.195170
  0
VERTEX
  8
0
 10
37.817429
 20
561.057085
 42
-0.338045
  0
VERTEX
  8
0
 10
37.063537
 20
560.227633
 42
-0.045309
  0
VERTEX
  8
0
 10
34.556704
 20
560.000000
 42
0.038959
  0
VERTEX
  8
0
 10
32.896104
 20
559.870412
 42
0.065723
  0
VERTEX
  8
0
 10
31.558540
 20
559.475611
 42
0.073207
  0
VERTEX
  8
0
 10
30.469686
 20
558.786223
 42
0.062382
  0
VERTEX
  8
0
 10
29.556704
 20
557.777494
 42
0.084376
  0
VERTEX
  8
0
 10
28.353879
 20
555.240064
 42
0.102623
  0
VERTEX
  8
0
 10
28.170844
 20
552.621110
 42
0.078601
  0
VERTEX
  8
0
 10
29.069938
 20
549.626062
 42
0.031620
  0
VERTEX
  8
0
 10
31.168415
 20
545.889696
 42
0.015050
  0
VERTEX
  8
0
 10
33.096632
 20
543.101544
 42
0.079004
  0
VERTEX
  8
0
 10
34.419758
 20
541.797933
 42
0.111324
  0
VERTEX
  8
0
 10
35.861756
 20
541.190724
 42
0.044233
  0
VERTEX
  8
0
 10
38.013427
 20
541.000000
 42
0.067245
  0
VERTEX
  8
0
 10
40.662570
 20
541.357903
 42
0.099109
  0
VERTEX
  8
0
 10
42.753186
 20
542.409756
 42
0.095173
  0
VERTEX
  8
0
 10
44.334635
 20
544.222714
 42
0.057888
  0
VERTEX
  8
0
 10
45.476692
 20
546.836913
 42
0.000000
  0
VERTEX
  8
0
 10
46.189946
 20
549.173827
 42
0.000000
  0
VERTEX
  8
0
 10
47.651677
 20
547.086913
 42
0.071540
  0
VERTEX
  8
0
 10
48.566647
 20
546.112311
 42
0.078079
  0
VERTEX
  8
0
 10
49.693896
 20
545.469481
 42
0.062449
  0
VERTEX
  8
0
 10
51.167893
 20
545.112375
 42
0.028246
  0
VERTEX
  8
0
 10
53.155494
 20
545.000000
 42
-0.108272
  0
VERTEX
  8
0
 10
57.145712
 20
544.125694
 42
-0.111563
  0
VERTEX
  8
0
 10
60.355124
 20
541.667533
 42
-0.075797
  0
VERTEX
  8
0
 10
63.047914
 20
537.212444
 42
-0.026619
  0
VERTEX
  8
0
 10
65.541425
 20
530.144066
 42
0.003947
  0
VERTEX
  8
0
 10
66.609295
 20
526.614692
 42
0.004138
  0
VERTEX
  8
0
 10
67.716515
 20
523.157944
 42
0.003972
  0
VERTEX
  8
0
 10
68.720647
 20
520.189667
 42
0.018351
  0
VERTEX
  8
0
 10
69.377649
 20
518.500000
 42
-0.020537
  0
VERTEX
  8
0
 10
70.215480
 20
516.317070
 42
-0.000625
  0
VERTEX
  8
0
 10
73.303025
 20
507.128125
 42
-0.001233
  0
VERTEX
  8
0
 10
76.900955
 20
496.286979
 42
-0.000852
  0
VERTEX
  8
0
 10
80.921931
 20
484.000000
 42
0.000774
  0
VERTEX
  8
0
 10
84.907106
 20
471.815972
 42
0.001196
  0
VERTEX
  8
0
 10
88.391662
 20
461.302858
 42
0.000357
  0
VERTEX
  8
0
 10
91.447400
 20
452.178525
 42
0.037673
  0
VERTEX
  8
0
 10
91.958384
 20
450.967177
 42
-0.033178
  0
VERTEX
  8
0
 10
92.311800
 20
450.149932
 42
-0.010225
  0
VERTEX
  8
0
 10
92.735997
 20
448.875779
 42
-0.010179
  0
VERTEX
  8
0
 10
93.153425
 20
447.427280
 42
-0.011004
  0
VERTEX
  8
0
 10
93.500000
 20
446.000000
 42
0.011919
  0
VERTEX
  8
0
 10
93.849341
 20
444.572720
 42
0.010989
  0
VERTEX
  8
0
 10
94.275063
 20
443.124221
 42
0.011056
  0
VERTEX
  8
0
 10
94.711247
 20
441.850553
 42
0.035434
  0
VERTEX
  8
0
 10
95.079266
 20
441.032823
 42
-0.039696
  0
VERTEX
  8
0
 10
96.788234
 20
437.147502
 42
-0.001075
  0
VERTEX
  8
0
 10
102.871058
 20
419.554308
 42
-0.002518
  0
VERTEX
  8
0
 10
108.722345
 20
402.228641
 42
-0.006291
  0
VERTEX
  8
0
 10
112.772726
 20
389.500000
 42
-0.008306
  0
VERTEX
  8
0
 10
115.955281
 20
378.385695
 42
-0.030553
  0
VERTEX
  8
0
 10
117.415864
 20
371.224064
 42
-0.047995
  0
VERTEX
  8
0
 10
117.653296
 20
365.853726
 42
-0.062036
  0
VERTEX
  8
0
 10
116.791876
 20
361.000000
 42
-0.048680
  0
VERTEX
  8
0
 10
115.094485
 20
356.949707
 42
-0.039043
  0
VERTEX
  8
0
 10
112.533627
 20
352.973475
 42
-0.040361
  0
VERTEX
  8
0
 10
109.652244
 20
349.759586
 42
-0.106345
  0
VERTEX
  8
0
 10
107.025343
 20
348.158679
 42
0.040791
  0
VERTEX
  8
0
 10
105.318958
 20
347.402856
 42
0.143775
  0
VERTEX
  8
0
 10
104.478254
 20
346.564338
 42
0.107740
  0
VERTEX
  8
0
 10
104.094298
 20
345.260828
 42
0.017953
  0
VERTEX
  8
0
 10
104.000000
 20
342.635353
 42
0.022684
  0
VERTEX
  8
0
 10
104.083865
 20
340.787786
 42
0.039847
  0
VERTEX
  8
0
 10
104.343043
 20
339.281298
 42
0.049494
  0
VERTEX
  8
0
 10
104.735845
 20
338.201635
 42
0.203024
  0
VERTEX
  8
0
 10
105.247337
 20
337.750888
 42
-0.223646
  0
VERTEX
  8
0
 10
105.535421
 20
337.476088
 42
-0.246368
  0
VERTEX
  8
0
 10
105.491811
 20
337.095781
 42
-0.093142
  0
VERTEX
  8
0
 10
105.001074
 20
336.602720
 42
-0.027661
  0
VERTEX
  8
0
 10
104.088758
 20
336.047502
 42
0.027314
  0
VERTEX
  8
0
 10
102.923911
 20
335.339706
 42
0.010007
  0
VERTEX
  8
0
 10
101.355802
 20
334.218708
 42
0.009886
  0
VERTEX
  8
0
 10
99.687358
 20
332.922686
 42
0.011681
  0
VERTEX
  8
0
 10
98.163596
 20
331.629948
 42
0.029584
  0
VERTEX
  8
0
 10
87.592303
 20
321.044482
 42
0.042768
  0
VERTEX
  8
0
 10
79.699070
 20
310.445081
 42
0.044668
  0
VERTEX
  8
0
 10
73.966442
 20
299.027913
 42
0.036683
  0
VERTEX
  8
0
 10
69.897569
 20
286.000000
 42
0.011395
  0
VERTEX
  8
0
 10
68.659054
 20
280.090724
 42
0.033743
  0
VERTEX
  8
0
 10
68.178207
 20
275.976559
 42
0.027808
  0
VERTEX
  8
0
 10
68.208745
 20
271.428222
 42
0.005857
  0
VERTEX
  8
0
 10
68.796733
 20
263.500000
 42
0.015166
  0
VERTEX
  8
0
 10
69.815065
 20
254.766106
 42
0.019566
  0
VERTEX
  8
0
 10
71.304618
 20
246.829716
 42
0.016487
  0
VERTEX
  8
0
 10
72.999651
 20
240.396500
 42
0.164550
  0
VERTEX
  8
0
 10
74.588073
 20
238.156292
 42
-0.081349
  0
VERTEX
  8
0
 10
75.062968
 20
237.676829
 42
-0.010220
  0
VERTEX
  8
0
 10
75.887972
 20
236.465294
 42
-0.011797
  0
VERTEX
  8
0
 10
76.811016
 20
234.972527
 42
-0.009539
  0
VERTEX
  8
0
 10
77.732682
 20
233.329171
 42
0.018412
  0
VERTEX
  8
0
 10
79.060527
 20
231.057034
 42
0.003907
  0
VERTEX
  8
0
 10
81.548272
 20
227.205589
 42
0.004084
  0
VERTEX
  8
0
 10
84.505165
 20
222.784474
 42
0.003870
  0
VERTEX
  8
0
 10
87.586669
 20
218.331973
 42
-0.018528
  0
VERTEX
  8
0
 10
93.298628
 20
209.538693
 42
-0.013967
  0
VERTEX
  8
0
 10
98.936097
 20
199.486128
 42
-0.013698
  0
VERTEX
  8
0
 10
103.592590
 20
189.986767
 42
-0.044722
  0
VERTEX
  8
0
 10
105.918720
 20
183.389721
 42
0.000307
  0
VERTEX
  8
0
 10
106.406487
 20
181.481227
 42
0.000124
  0
VERTEX
  8
0
 10
107.073661
 20
178.880106
 42
0.000123
  0
VERTEX
  8
0
 10
107.792832
 20
176.082011
 42
0.000156
  0
VERTEX
  8
0
 10
108.458002
 20
173.500000
 42
-0.035705
  0
VERTEX
  8
0
 10
110.102068
 20
164.519594
 42
-0.039530
  0
VERTEX
  8
0
 10
110.372645
 20
155.700113
 42
-0.036076
  0
VERTEX
  8
0
 10
109.233630
 20
146.291003
 42
-0.022553
  0
VERTEX
  8
0
 10
106.619332
 20
135.500000
 42
0.011428
  0
VERTEX
  8
0
 10
103.172966
 20
122.541137
 42
0.016355
  0
VERTEX
  8
0
 10
100.759621
 20
110.897131
 42
0.018665
  0
VERTEX
  8
0
 10
99.406142
 20
100.882339
 42
0.038702
  0
VERTEX
  8
0
 10
99.251284
 20
93.000000
 42
0.025441
  0
VERTEX
  8
0
 10
99.917845
 20
86.885993
 42
0.015156
  0
VERTEX
  8
0
 10
101.299302
 20
79.694095
 42
0.015176
  0
VERTEX
  8
0
 10
103.073607
 20
72.757870
 42
0.031499
  0
VERTEX
  8
0
 10
104.955786
 20
67.500000
 42
0.004897
  0
VERTEX
  8
0
 10
107.733341
 20
61.221903
 42
0.008040
  0
VERTEX
  8
0
 10
110.220946
 20
55.970704
 42
0.009298
  0
VERTEX
  8
0
 10
112.380439
 20
51.792955
 42
0.026139
  0
VERTEX
  8
0
 10
114.094124
 20
48.984899
 42
0.022462
  0
VERTEX
  8
0
 10
119.681709
 20
41.559895
 42
0.016710
  0
VERTEX
  8
0
 10
126.473679
 20
33.869693
 42
0.016951
  0
VERTEX
  8
0
 10
133.362422
 20
27.054557
 42
0.037364
  0
VERTEX
  8
0
 10
139.154817
 20
22.451963
 42
-0.007645
  0
VERTEX
  8
0
 10
140.843534
 20
21.266573
 42
-0.010519
  0
VERTEX
  8
0
 10
142.321519
 20
20.146827
 42
-0.007460
  0
VERTEX
  8
0
 10
143.515113
 20
19.173065
 42
-0.113822
  0
VERTEX
  8
0
 10
143.833333
 20
18.750000
 42
0.081399
  0
VERTEX
  8
0
 10
144.021493
 20
18.463222
 42
0.062309
  0
VERTEX
  8
0
 10
144.307998
 20
18.220313
 42
0.062428
  0
VERTEX
  8
0
 10
144.644859
 20
18.055889
 42
0.082535
  0
VERTEX
  8
0
 10
144.981129
 20
18.000000
 42
-0.120884
  0
VERTEX
  8
0
 10
145.526681
 20
17.866147
 42
-0.003898
  0
VERTEX
  8
0
 10
147.540350
 20
16.794675
 42
-0.007301
  0
VERTEX
  8
0
 10
149.902628
 20
15.468985
 42
-0.004984
  0
VERTEX
  8
0
 10
152.549655
 20
13.896764
 42
0.026315
  0
VERTEX
  8
0
 10
160.487737
 20
9.628835
 42
0.019424
  0
VERTEX
  8
0
 10
169.670704
 20
5.726251
 42
0.019748
  0
VERTEX
  8
0
 10
178.754377
 20
2.680480
 42
0.037090
  0
VERTEX
  8
0
 10
186.322359
 20
1.068347
 42
0.032284
  0
VERTEX
  8
0
 10
203.518655
 20
-0.157936
 42
0.030923
  0
VERTEX
  8
0
 10
220.982101
 20
0.806723
 42
0.031652
  0
VERTEX
  8
0
 10
237.756149
 20
3.864163
 42
0.038658
  0
VERTEX
  8
0
 10
252.887538
 20
8.892870
 42
-0.003770
  0
VERTEX
  8
0
 10
255.778866
 20
10.083362
 42
-0.005464
  0
VERTEX
  8
0
 10
258.350991
 20
11.087281
 42
-0.002919
  0
VERTEX
  8
0
 10
260.536253
 20
11.898252
 42
-0.087602
  0
VERTEX
  8
0
 10
261.112538
 20
12.000000
 42
-0.320241
  0
VERTEX
  8
0
 10
261.394350
 20
11.798878
 42
-0.060908
  0
VERTEX
  8
0
 10
261.533163
 20
11.145837
 42
-0.045048
  0
VERTEX
  8
0
 10
261.531046
 20
10.206968
 42
-0.026282
  0
VERTEX
  8
0
 10
261.368442
 20
9.092212
 42
0.119935
  0
VERTEX
  8
0
 10
261.462785
 20
6.811047
 42
0.176766
  0
VERTEX
  8
0
 10
262.632189
 20
5.207109
 42
0.112780
  0
VERTEX
  8
0
 10
265.057247
 20
4.276858
 42
0.035434
  0
VERTEX
  8
0
 10
268.959009
 20
4.000000
 42
0.022221
  0
VERTEX
  8
0
 10
271.202316
 20
4.099748
 42
0.095250
  0
VERTEX
  8
0
 10
272.483100
 20
4.466377
 42
0.129141
  0
VERTEX
  8
0
 10
273.330609
 20
5.218115
 42
0.056317
  0
VERTEX
  8
0
 10
274.024751
 20
6.565100
 42
0.049372
  0
VERTEX
  8
0
 10
274.811419
 20
9.467771
 42
0.060009
  0
VERTEX
  8
0
 10
274.941240
 20
12.280690
 42
0.071934
  0
VERTEX
  8
0
 10
274.439438
 20
14.552662
 42
0.176704
  0
VERTEX
  8
0
 10
273.340206
 20
15.829487
 42
-0.290739
  0
VERTEX
  8
0
 10
272.986323
 20
16.485484
 42
-0.204819
  0
VERTEX
  8
0
 10
273.380830
 20
17.252197
 42
-0.050946
  0
VERTEX
  8
0
 10
275.001576
 20
18.336737
 42
-0.007148
  0
VERTEX
  8
0
 10
278.590206
 20
20.176041
 42
0.012491
  0
VERTEX
  8
0
 10
291.022909
 20
26.716923
 42
0.012883
  0
VERTEX
  8
0
 10
302.984088
 20
33.806660
 42
0.013679
  0
VERTEX
  8
0
 10
313.467865
 20
40.798471
 42
0.027317
  0
VERTEX
  8
0
 10
321.277212
 20
46.987412
 42
0.049569
  0
VERTEX
  8
0
 10
328.443039
 20
54.726355
 42
0.035836
  0
VERTEX
  8
0
 10
334.853309
 20
64.590610
 42
0.034358
  0
VERTEX
  8
0
 10
340.066197
 20
75.781180
 42
0.035114
  0
VERTEX
  8
0
 10
343.653410
 20
87.500000
 42
0.041567
  0
VERTEX
  8
0
 10
345.186399
 20
98.089689
 42
0.018055
  0
VERTEX
  8
0
 10
345.536148
 20
112.321086
 42
0.016715
  0
VERTEX
  8
0
 10
344.918134
 20
126.057188
 42
0.072610
  0
VERTEX
  8
0
 10
343.117177
 20
133.985883
 42
-0.008269
  0
VERTEX
  8
0
 10
342.305488
 20
136.197265
 42
-0.009914
  0
VERTEX
  8
0
 10
341.617687
 20
138.305060
 42
-0.008770
  0
VERTEX
  8
0
 10
341.106473
 20
140.095983
 42
-0.062831
  0
VERTEX
  8
0
 10
340.985586
 20
140.985883
 42
0.112872
  0
VERTEX
  8
0
 10
340.293824
 20
143.883966
 42
0.005237
  0
VERTEX
  8
0
 10
335.689849
 20
152.956960
 42
0.009579
  0
VERTEX
  8
0
 10
330.594328
 20
162.301776
 42
0.015627
  0
VERTEX
  8
0
 10
325.878537
 20
170.000000
 42
0.023056
  0
VERTEX
  8
0
 10
318.583277
 20
180.069458
 42
0.020521
  0
VERTEX
  8
0
 10
310.116224
 20
189.838596
 42
0.020106
  0
VERTEX
  8
0
 10
300.686098
 20
199.082659
 42
0.019857
  0
VERTEX
  8
0
 10
290.505807
 20
207.579728
 42
-0.026677
  0
VERTEX
  8
0
 10
277.148513
 20
219.041069
 42
-0.036505
  0
VERTEX
  8
0
 10
266.521304
 20
230.789706
 42
-0.037947
  0
VERTEX
  8
0
 10
258.024225
 20
243.577275
 42
-0.032665
  0
VERTEX
  8
0
 10
251.070286
 20
258.146623
 42
-0.021703
  0
VERTEX
  8
0
 10
247.747170
 20
267.643030
 42
-0.034804
  0
VERTEX
  8
0
 10
245.844062
 20
276.010476
 42
-0.028189
  0
VERTEX
  8
0
 10
244.891947
 20
285.725129
 42
-0.009424
  0
VERTEX
  8
0
 10
244.570919
 20
300.000000
 42
0.002396
  0
VERTEX
  8
0
 10
244.471613
 20
311.779988
 42
0.020468
  0
VERTEX
  8
0
 10
244.185914
 20
317.050614
 42
0.046983
  0
VERTEX
  8
0
 10
243.564905
 20
320.297515
 42
0.065664
  0
VERTEX
  8
0
 10
242.377394
 20
323.000000
 42
-0.004055
  0
VERTEX
  8
0
 10
241.428558
 20
324.593558
 42
-0.002436
  0
VERTEX
  8
0
 10
240.326820
 20
326.499778
 42
-0.002439
  0
VERTEX
  8
0
 10
239.249432
 20
328.406530
 42
-0.004252
  0
VERTEX
  8
0
 10
238.377394
 20
329.999244
 42
0.004795
  0
VERTEX
  8
0
 10
237.621666
 20
331.375975
 42
0.006291
  0
VERTEX
  8
0
 10
236.903783
 20
332.617683
 42
0.004713
  0
VERTEX
  8
0
 10
236.281122
 20
333.641985
 42
0.058020
  0
VERTEX
  8
0
 10
235.997188
 20
333.999244
 42
-0.040070
  0
VERTEX
  8
0
 10
235.683445
 20
334.366223
 42
-0.002076
  0
VERTEX
  8
0
 10
234.774903
 20
335.630542
 42
-0.003283
  0
VERTEX
  8
0
 10
233.709750
 20
337.146833
 42
-0.002377
  0
VERTEX
  8
0
 10
232.542296
 20
338.849410
 42
0.051810
  0
VERTEX
  8
0
 10
225.584572
 20
347.112676
 42
0.036010
  0
VERTEX
  8
0
 10
216.208925
 20
354.936946
 42
0.035855
  0
VERTEX
  8
0
 10
205.743153
 20
361.379176
 42
0.049353
  0
VERTEX
  8
0
 10
195.500000
 20
365.487923
 42
0.023110
  0
VERTEX
  8
0
 10
192.062038
 20
366.316996
 42
0.029513
  0
VERTEX
  8
0
 10
188.831673
 20
366.743967
 42
0.024704
  0
VERTEX
  8
0
 10
185.152851
 20
366.828612
 42
0.010566
  0
VERTEX
  8
0
 10
180.238138
 20
366.594861
 42
-0.011979
  0
VERTEX
  8
0
 10
173.251232
 20
366.282333
 42
-0.190624
  0
VERTEX
  8
0
 10
171.068563
 20
367.093904
 42
-0.128869
  0
VERTEX
  8
0
 10
169.641281
 20
369.264068
 42
-0.004426
  0
VERTEX
  8
0
 10
166.451810
 20
379.000000
 42
0.010359
  0
VERTEX
  8
0
 10
165.099078
 20
382.969435
 42
0.005163
  0
VERTEX
  8
0
 10
163.230826
 20
387.940625
 42
0.005122
  0
VERTEX
  8
0
 10
161.189114
 20
393.051573
 42
0.007513
  0
VERTEX
  8
0
 10
159.280355
 20
397.500000
 42
-0.004660
  0
VERTEX
  8
0
 10
157.326228
 20
401.983395
 42
-0.003016
  0
VERTEX
  8
0
 10
155.144586
 20
407.206250
 42
-0.003031
  0
VERTEX
  8
0
 10
153.074449
 20
412.335712
 42
-0.005730
  0
VERTEX
  8
0
 10
151.478099
 20
416.500000
 42
0.002641
  0
VERTEX
  8
0
 10
149.726549
 20
421.154990
 42
0.000817
  0
VERTEX
  8
0
 10
147.041540
 20
428.143750
 42
0.000817
  0
VERTEX
  8
0
 10
144.013717
 20
435.948532
 42
0.000898
  0
VERTEX
  8
0
 10
141.054321
 20
443.500000
 42
-0.000351
  0
VERTEX
  8
0
 10
138.070988
 20
451.088069
 42
-0.000309
  0
VERTEX
  8
0
 10
134.971155
 20
459.003125
 42
-0.000311
  0
VERTEX
  8
0
 10
132.185762
 20
466.141361
 42
-0.000944
  0
VERTEX
  8
0
 10
130.303916
 20
471.000000
 42
0.001829
  0
VERTEX
  8
0
 10
128.505074
 20
475.620036
 42
0.000769
  0
VERTEX
  8
0
 10
126.053164
 20
481.821875
 42
0.000761
  0
VERTEX
  8
0
 10
123.411406
 20
488.444597
 42
0.000990
  0
VERTEX
  8
0
 10
120.971339
 20
494.500000
 42
-0.001626
  0
VERTEX
  8
0
 10
116.477293
 20
505.693736
 42
-0.002548
  0
VERTEX
  8
0
 10
112.692464
 20
515.353424
 42
-0.002301
  0
VERTEX
  8
0
 10
109.733969
 20
523.125172
 42
-0.018535
  0
VERTEX
  8
0
 10
108.524420
 20
526.750000
 42
0.035831
  0
VERTEX
  8
0
 10
108.203542
 20
527.611272
 42
0.046899
  0
VERTEX
  8
0
 10
107.784908
 20
528.339062
 42
0.054958
  0
VERTEX
  8
0
 10
107.336846
 20
528.844266
 42
0.185966
  0
VERTEX
  8
0
 10
106.932612
 20
529.000000
 42
-0.237111
  0
VERTEX
  8
0
 10
106.575071
 20
529.179655
 42
-0.070534
  0
VERTEX
  8
0
 10
106.273955
 20
529.732532
 42
-0.053953
  0
VERTEX
  8
0
 10
106.068058
 20
530.538631
 42
-0.035584
  0
VERTEX
  8
0
 10
106.000000
 20
531.493727
 42
0.094648
  0
VERTEX
  8
0
 10
105.490946
 20
534.158822
 42
0.003830
  0
VERTEX
  8
0
 10
101.786090
 20
543.298195
 42
0.005293
  0
VERTEX
  8
0
 10
98.010977
 20
552.143795
 42
0.057061
  0
VERTEX
  8
0
 10
96.053706
 20
555.500000
 42
-0.039783
  0
VERTEX
  8
0
 10
94.000197
 20
558.757753
 42
-0.003944
  0
VERTEX
  8
0
 10
89.770554
 20
566.981841
 42
-0.001839
  0
VERTEX
  8
0
 10
85.391095
 20
575.744955
 42
-0.115454
  0
VERTEX
  8
0
 10
85.000000
 20
577.416109
 42
0.079585
  0
VERTEX
  8
0
 10
84.689930
 20
579.351802
 42
0.041843
  0
VERTEX
  8
0
 10
83.735704
 20
581.600554
 42
0.039194
  0
VERTEX
  8
0
 10
82.539621
 20
583.494451
 42
0.236559
  0
VERTEX
  8
0
 10
81.530870
 20
584.000000
 42
-0.263599
  0
VERTEX
  8
0
 10
80.179014
 20
584.765914
 42
-0.010247
  0
VERTEX
  8
0
 10
77.228798
 20
589.926237
 42
-0.015151
  0
VERTEX
  8
0
 10
74.603375
 20
595.113146
 42
-0.110007
  0
VERTEX
  8
0
 10
74.000000
 20
597.822393
 42
0.065878
  0
VERTEX
  8
0
 10
73.890009
 20
598.653580
 42
0.044453
  0
VERTEX
  8
0
 10
73.559776
 20
599.552728
 42
0.044402
  0
VERTEX
  8
0
 10
73.075063
 20
600.380811
 42
0.065030
  0
VERTEX
  8
0
 10
72.501366
 20
600.998867
 42
-0.097253
  0
VERTEX
  8
0
 10
70.473278
 20
603.485513
 42
-0.009441
  0
VERTEX
  8
0
 10
66.926631
 20
610.443460
 42
-0.009104
  0
VERTEX
  8
0
 10
63.632921
 20
617.544333
 42
-0.104402
  0
VERTEX
  8
0
 10
63.000000
 20
620.542471
 42
0.062685
  0
VERTEX
  8
0
 10
62.884494
 20
621.460163
 42
0.071629
  0
VERTEX
  8
0
 10
62.545572
 20
622.276708
 42
0.081429
  0
VERTEX
  8
0
 10
62.038976
 20
622.879453
 42
0.127125
  0
VERTEX
  8
0
 10
61.433694
 20
623.176676
 42
-0.172470
  0
VERTEX
  8
0
 10
60.673025
 20
623.637980
 42
-0.023081
  0
VERTEX
  8
0
 10
59.539155
 20
625.167524
 42
-0.024469
  0
VERTEX
  8
0
 10
58.325891
 20
627.178595
 42
-0.018331
  0
VERTEX
  8
0
 10
57.183694
 20
629.500000
 42
0.005162
  0
VERTEX
  8
0
 10
54.772714
 20
634.744343
 42
0.053882
  0
VERTEX
  8
0
 10
53.538368
 20
636.762598
 42
0.138615
  0
VERTEX
  8
0
 10
52.341791
 20
637.651205
 42
0.099649
  0
VERTEX
  8
0
 10
50.690983
 20
637.925489
 42
0.054274
  0
VERTEX
  8
0
 10
49.286670
 20
637.724100
 42
0.004232
  0
VERTEX
  8
0
 10
45.618601
 20
636.750894
 42
0.005735
  0
VERTEX
  8
0
 10
41.255866
 20
635.499786
 42
0.004351
  0
SEQEND
  0
POLYLINE
  8
0
 66
1
 70
1
  0
VERTEX
  8
0
 10
26.264509
 20
588.618968
 42
-0.308364
  0
VERTEX
  8
0
 10
25.915840
 20
588.463681
 42
-0.095997
  0
VERTEX
  8
0
 10
25.353093
 20
588.682361
 42
-0.059083
  0
VERTEX
  8
0
 10
24.656765
 20
589.245535
 42
-0.031623
  0
VERTEX
  8
0
 10
23.935123
 20
590.086010
 42
-0.038200
  0
VERTEX
  8
0
 10
22.655424
 20
592.083022
 42
-0.267922
  0
VERTEX
  8
0
 10
22.688808
 20
593.194535
 42
-0.459311
  0
VERTEX
  8
0
 10
23.475268
 20
593.318294
 42
-0.046303
  0
VERTEX
  8
0
 10
24.979900
 20
591.776495
 42
-0.031730
  0
VERTEX
  8
0
 10
25.642125
 20
590.843415
 42
-0.041872
  0
VERTEX
  8
0
 10
26.114314
 20
589.914042
 42
-0.047675
  0
VERTEX
  8
0
 10
26.354017
 20
589.114027
 42
-0.189575
  0
SEQEND
  0
POLYLINE
  8
0
 66
1
 70
1
  0
VERTEX
  8
0
 10
22.922849
 20
580.108349
 42
0.000000
  0
VERTEX
  8
0
 10
24.981886
 20
577.216697
 42
0.000000
  0
VERTEX
  8
0
 10
21.491850
 20
576.809255
 42
-0.014889
  0
VERTEX
  8
0
 10
19.979263
 20
576.678177
 42
-0.072594
  0
VERTEX
  8
0
 10
19.125114
 20
576.753766
 42
-0.302826
  0
VERTEX
  8
0
 10
18.877869
 20
577.019431
 42
-0.241223
  0
VERTEX
  8
0
 10
19.000907
 20
577.400907
 42
0.086306
  0
VERTEX
  8
0
 10
19.384660
 20
577.946234
 42
0.036758
  0
VERTEX
  8
0
 10
19.706516
 20
578.782141
 42
0.034968
  0
VERTEX
  8
0
 10
19.926290
 20
579.746137
 42
0.038580
  0
VERTEX
  8
0
 10
20.000000
 20
580.700000
 42
-0.026292
  0
VERTEX
  8
0
 10
20.095622
 20
582.517222
 42
-0.442195
  0
VERTEX
  8
0
 10
20.528758
 20
582.834999
 42
-0.181380
  0
VERTEX
  8
0
 10
21.235563
 20
582.393263
 42
-0.008645
  0
SEQEND
  0
POLYLINE
  8
0
 66
1
 70
1
  0
VERTEX
  8
0
 10
38.387482
 20
572.987482
 42
-0.310793
  0
VERTEX
  8
0
 10
37.168688
 20
572.762248
 42
-0.097561
  0
VERTEX
  8
0
 10
35.570344
 20
573.889920
 42
-0.088435
  0
VERTEX
  8
0
 10
34.421006
 20
575.623480
 42
-0.245411
  0
VERTEX
  8
0
 10
34.523395
 20
577.037853
 42
-0.164988
  0
VERTEX
  8
0
 10
34.982172
 20
577.416646
 42
-0.172056
  0
VERTEX
  8
0
 10
35.567868
 20
577.429760
 42
-0.090750
  0
VERTEX
  8
0
 10
36.330961
 20
577.013482
 42
-0.026256
  0
VERTEX
  8
0
 10
37.332467
 20
576.111977
 42
-0.030792
  0
VERTEX
  8
0
 10
38.220006
 20
575.107829
 42
-0.084357
  0
VERTEX
  8
0
 10
38.667324
 20
574.277121
 42
-0.133760
  0
VERTEX
  8
0
 10
38.708888
 20
573.581702
 42
-0.145809
  0
SEQEND
  0
POLYLINE
  8
0
 66
1
 70
1
  0
VERTEX
  8
0
 10
23.000000
 20
569.559017
 42
-0.057944
  0
VERTEX
  8
0
 10
22.930946
 20
568.965145
 42
-0.050295
  0
VERTEX
  8
0
 10
22.726548
 20
568.372320
 42
-0.052935
  0
VERTEX
  8
0
 10
22.425599
 20
567.868321
 42
-0.093559
  0
VERTEX
  8
0
 10
22.069098
 20
567.542705
 42
-0.221150
  0
VERTEX
  8
0
 10
21.249279
 20
567.445281
 42
-0.173073
  0
VERTEX
  8
0
 10
20.532901
 20
568.000994
 42
-0.137775
  0
VERTEX
  8
0
 10
20.228407
 20
569.005022
 42
-0.144545
  0
VERTEX
  8
0
 10
20.500000
 20
570.000000
 42
-0.106623
  0
VERTEX
  8
0
 10
21.247001
 20
570.776532
 42
-0.194118
  0
VERTEX
  8
0
 10
22.094833
 20
570.956238
 42
-0.221941
  0
VERTEX
  8
0
 10
22.748994
 20
570.497670
 42
-0.131397
  0
SEQEND
  0
POLYLINE
  8
0
 66
1
 70
1
  0
VERTEX
  8
0
 10
49.793330
 20
559.959323
 42
-0.068125
  0
VERTEX
  8
0
 10
50.587361
 20
558.191761
 42
-0.209304
  0
VERTEX
  8
0
 10
50.425513
 20
556.918975
 42
-0.403213
  0
VERTEX
  8
0
 10
49.592158
 20
556.692711
 42
-0.105552
  0
VERTEX
  8
0
 10
48.435803
 20
557.690159
 42
-0.049133
  0
VERTEX
  8
0
 10
47.533518
 20
559.160069
 42
-0.074307
  0
VERTEX
  8
0
 10
47.084896
 20
560.590042
 42
-0.127106
  0
VERTEX
  8
0
 10
47.183058
 20
561.596826
 42
-0.315029
  0
VERTEX
  8
0
 10
47.759453
 20
562.000000
 42
-0.165372
  0
VERTEX
  8
0
 10
48.132934
 20
561.873000
 42
-0.032889
  0
VERTEX
  8
0
 10
48.670179
 20
561.400551
 42
-0.031560
  0
VERTEX
  8
0
 10
49.249721
 20
560.740617
 42
-0.024826
  0
SEQEND
  0
POLYLINE
  8
0
 66
1
 70
1
  0
VERTEX
  8
0
 10
34.122073
 20
552.325003
 42
-0.009073
  0
VERTEX
  8
0
 10
33.526993
 20
551.343107
 42
-0.200091
  0
VERTEX
  8
0
 10
33.258773
 20
551.154512
 42
-0.446695
  0
VERTEX
  8
0
 10
33.081567
 20
551.281648
 42
-0.022266
  0
VERTEX
  8
0
 10
33.030409
 20
552.083333
 42
-0.068411
  0
VERTEX
  8
0
 10
33.167873
 20
553.248790
 42
-0.088309
  0
VERTEX
  8
0
 10
33.616467
 20
554.226472
 42
-0.148740
  0
VERTEX
  8
0
 10
34.203585
 20
554.690800
 42
-0.298202
  0
VERTEX
  8
0
 10
34.758330
 20
554.575003
 42
-0.228220
  0
VERTEX
  8
0
 10
34.856077
 20
554.295699
 42
-0.040891
  0
VERTEX
  8
0
 10
34.746741
 20
553.738754
 42
-0.036971
  0
VERTEX
  8
0
 10
34.497543
 20
553.055001
 42
-0.025833
  0
SEQEND
  0
POLYLINE
  8
0
 66
1
 70
1
  0
VERTEX
  8
0
 10
182.490694
 20
351.015058
 42
-0.332676
  0
VERTEX
  8
0
 10
182.459939
 20
350.669408
 42
-0.178891
  0
VERTEX
  8
0
 10
182.060990
 20
350.458813
 42
-0.061636
  0
VERTEX
  8
0
 10
181.160244
 20
350.451116
 42
-0.018419
  0
VERTEX
  8
0
 10
179.799711
 20
350.658698
 42
-0.005445
  0
VERTEX
  8
0
 10
176.821998
 20
351.259617
 42
-0.178891
  0
VERTEX
  8
0
 10
176.212514
 20
351.645187
 42
-0.607682
  0
VERTEX
  8
0
 10
176.356958
 20
351.952488
 42
-0.009826
  0
VERTEX
  8
0
 10
178.774316
 20
352.000000
 42
-0.029310
  0
VERTEX
  8
0
 10
180.008611
 20
351.927584
 42
-0.035481
  0
VERTEX
  8
0
 10
181.147908
 20
351.710673
 42
-0.038233
  0
VERTEX
  8
0
 10
182.052385
 20
351.395298
 42
-0.152489
  0
SEQEND
  0
POLYLINE
  8
0
 66
1
 70
1
  0
VERTEX
  8
0
 10
182.081787
 20
346.000000
 42
-0.160370
  0
VERTEX
  8
0
 10
182.432018
 20
345.884702
 42
-0.096657
  0
VERTEX
  8
0
 10
182.730275
 20
345.559375
 42
-0.078243
  0
VERTEX
  8
0
 10
182.931713
 20
345.073654
 42
-0.059310
  0
VERTEX
  8
0
 10
183.000000
 20
344.500000
 42
0.060283
  0
VERTEX
  8
0
 10
183.069412
 20
343.926381
 42
0.079016
  0
VERTEX
  8
0
 10
183.273955
 20
343.440625
 42
0.097128
  0
VERTEX
  8
0
 10
183.576906
 20
343.115365
 42
0.158110
  0
VERTEX
  8
0
 10
183.932612
 20
343.000000
 42
-0.170109
  0
VERTEX
  8
0
 10
184.335507
 20
342.858844
 42
-0.058089
  0
VERTEX
  8
0
 10
184.777735
 20
342.412500
 42
-0.049700
  0
VERTEX
  8
0
 10
185.188321
 20
341.765398
 42
-0.039709
  0
VERTEX
  8
0
 10
185.500000
 20
341.000000
 42
0.060770
  0
VERTEX
  8
0
 10
185.849532
 20
340.235286
 42
0.063046
  0
VERTEX
  8
0
 10
186.369140
 20
339.587500
 42
0.069989
  0
VERTEX
  8
0
 10
186.972302
 20
339.148573
 42
0.122947
  0
VERTEX
  8
0
 10
187.567388
 20
339.000000
 42
-0.062123
  0
VERTEX
  8
0
 10
188.115174
 20
338.931676
 42
-0.080432
  0
VERTEX
  8
0
 10
188.579170
 20
338.730729
 42
-0.097924
  0
VERTEX
  8
0
 10
188.889720
 20
338.432933
 42
-0.153983
  0
VERTEX
  8
0
 10
189.000000
 20
338.083333
 42
0.196416
  0
VERTEX
  8
0
 10
189.167243
 20
337.674021
 42
0.046674
  0
VERTEX
  8
0
 10
189.741230
 20
337.188861
 42
0.041083
  0
VERTEX
  8
0
 10
190.557220
 20
336.714775
 42
0.030624
  0
VERTEX
  8
0
 10
191.523336
 20
336.325555
 42
-0.011105
  0
VERTEX
  8
0
 10
193.164120
 20
335.737828
 42
-0.258735
  0
VERTEX
  8
0
 10
193.471438
 20
335.371675
 42
-0.258103
  0
VERTEX
  8
0
 10
193.323972
 20
334.916470
 42
-0.011058
  0
VERTEX
  8
0
 10
192.023336
 20
333.752009
 42
-0.007795
  0
VERTEX
  8
0
 10
190.716907
 20
332.668244
 42
-0.203658
  0
VERTEX
  8
0
 10
190.286542
 20
332.546770
 42
-0.356470
  0
VERTEX
  8
0
 10
190.044954
 20
332.801348
 42
-0.018594
  0
VERTEX
  8
0
 10
190.000000
 20
334.009787
 42
0.073012
  0
VERTEX
  8
0
 10
189.872687
 20
334.877000
 42
0.124720
  0
VERTEX
  8
0
 10
189.498771
 20
335.501223
 42
0.124282
  0
VERTEX
  8
0
 10
188.871622
 20
335.873455
 42
0.072213
  0
VERTEX
  8
0
 10
188.000000
 20
336.000000
 42
0.072254
  0
VERTEX
  8
0
 10
187.126841
 20
335.873159
 42
0.124864
  0
VERTEX
  8
0
 10
186.500000
 20
335.500000
 42
0.124864
  0
VERTEX
  8
0
 10
186.126841
 20
334.873159
 42
0.072254
  0
VERTEX
  8
0
 10
186.000000
 20
334.000000
 42
0.048028
  0
VERTEX
  8
0
 10
186.073693
 20
333.234582
 42
0.068025
  0
VERTEX
  8
0
 10
186.293750
 20
332.587500
 42
0.088204
  0
VERTEX
  8
0
 10
186.618118
 20
332.151477
 42
0.191087
  0
VERTEX
  8
0
 10
187.000000
 20
332.000000
 42
-0.181365
  0
VERTEX
  8
0
 10
187.381695
 20
331.856839
 42
-0.091251
  0
VERTEX
  8
0
 10
187.706250
 20
331.448138
 42
-0.071193
  0
VERTEX
  8
0
 10
187.926113
 20
330.840161
 42
-0.051258
  0
VERTEX
  8
0
 10
188.000000
 20
330.121320
 42
0.118742
  0
VERTEX
  8
0
 10
188.205393
 20
329.268646
 42
0.072442
  0
VERTEX
  8
0
 10
188.807938
 20
328.419955
 42
0.060743
  0
VERTEX
  8
0
 10
189.751303
 20
327.645410
 42
0.043379
  0
VERTEX
  8
0
 10
190.964721
 20
327.014613
 42
-0.016531
  0
VERTEX
  8
0
 10
192.575744
 20
326.284019
 42
-0.143968
  0
VERTEX
  8
0
 10
193.147479
 20
325.756932
 42
-0.274647
  0
VERTEX
  8
0
 10
193.149741
 20
325.185927
 42
-0.063405
  0
VERTEX
  8
0
 10
192.536150
 20
324.393293
 42
-0.100675
  0
VERTEX
  8
0
 10
190.621149
 20
323.125676
 42
-0.259954
  0
VERTEX
  8
0
 10
189.031746
 20
323.324748
 42
-0.137185
  0
VERTEX
  8
0
 10
187.635450
 20
325.105850
 42
-0.026605
  0
VERTEX
  8
0
 10
186.262761
 20
328.998614
 42
0.015096
  0
VERTEX
  8
0
 10
185.511133
 20
331.297443
 42
0.023069
  0
VERTEX
  8
0
 10
184.709197
 20
333.235542
 42
0.019460
  0
VERTEX
  8
0
 10
183.947429
 20
334.708203
 42
0.269556
  0
VERTEX
  8
0
 10
183.449399
 20
334.998614
 42
-0.258196
  0
VERTEX
  8
0
 10
182.932998
 20
335.285217
 42
-0.017514
  0
VERTEX
  8
0
 10
182.062044
 20
336.793250
 42
-0.021588
  0
VERTEX
  8
0
 10
181.119838
 20
338.766137
 42
-0.014250
  0
VERTEX
  8
0
 10
180.201802
 20
341.106066
 42
-0.005610
  0
VERTEX
  8
0
 10
179.030107
 20
344.480937
 42
-0.052828
  0
VERTEX
  8
0
 10
178.699634
 20
345.977149
 42
-0.276281
  0
VERTEX
  8
0
 10
178.951568
 20
346.530431
 42
-0.247581
  0
VERTEX
  8
0
 10
179.584191
 20
346.606066
 42
0.016992
  0
VERTEX
  8
0
 10
180.256227
 20
346.374054
 42
0.015098
  0
VERTEX
  8
0
 10
180.969356
 20
346.178032
 42
0.015336
  0
VERTEX
  8
0
 10
181.621787
 20
346.040751
 42
0.044208
  0
SEQEND
  0
POLYLINE
  8
0
 66
1
 70
1
  0
VERTEX
  8
0
 10
190.728774
 20
344.395441
 42
-0.254259
  0
VERTEX
  8
0
 10
189.953985
 20
344.166399
 42
-0.056950
  0
VERTEX
  8
0
 10
188.601926
 20
344.620935
 42
-0.056562
  0
VERTEX
  8
0
 10
187.373223
 20
345.376105
 42
-0.230639
  0
VERTEX
  8
0
 10
187.000000
 20
346.142173
 42
-0.301931
  0
VERTEX
  8
0
 10
187.172515
 20
346.401815
 42
-0.122555
  0
VERTEX
  8
0
 10
187.612386
 20
346.470092
 42
-0.067322
  0
VERTEX
  8
0
 10
188.284991
 20
346.316614
 42
-0.033165
  0
VERTEX
  8
0
 10
189.085646
 20
345.954163
 42
-0.024012
  0
VERTEX
  8
0
 10
189.853747
 20
345.494354
 42
-0.042930
  0
VERTEX
  8
0
 10
190.428644
 20
345.035855
 42
-0.059538
  0
VERTEX
  8
0
 10
190.755019
 20
344.642672
 42
-0.353534
  0
SEQEND
  0
POLYLINE
  8
0
 66
1
 70
1
  0
VERTEX
  8
0
 10
136.000000
 20
335.926676
 42
-0.055584
  0
VERTEX
  8
0
 10
135.899788
 20
335.028012
 42
-0.135583
  0
VERTEX
  8
0
 10
135.587964
 20
334.445688
 42
-0.162135
  0
VERTEX
  8
0
 10
135.064263
 20
334.167582
 42
-0.089805
  0
VERTEX
  8
0
 10
134.332866
 20
334.176676
 42
-0.100101
  0
VERTEX
  8
0
 10
132.965250
 20
334.740601
 42
-0.197146
  0
VERTEX
  8
0
 10
132.321190
 20
335.700739
 42
-0.248196
  0
VERTEX
  8
0
 10
132.604054
 20
336.666222
 42
-0.137252
  0
VERTEX
  8
0
 10
133.694661
 20
337.300017
 42
0.002460
  0
VERTEX
  8
0
 10
134.404398
 20
337.487726
 42
0.003339
  0
VERTEX
  8
0
 10
135.043119
 20
337.664604
 42
0.002234
  0
VERTEX
  8
0
 10
135.577181
 20
337.818928
 42
0.037184
  0
VERTEX
  8
0
 10
135.750000
 20
337.883999
 42
-0.485463
  0
VERTEX
  8
0
 10
135.848463
 20
337.834049
 42
-0.017601
  0
VERTEX
  8
0
 10
135.926562
 20
337.356886
 42
-0.020419
  0
VERTEX
  8
0
 10
135.982141
 20
336.713761
 42
-0.011344
  0
SEQEND
  0
POLYLINE
  8
0
 66
1
 70
1
  0
VERTEX
  8
0
 10
193.500000
 20
318.000000
 42
-0.139169
  0
VERTEX
  8
0
 10
193.607943
 20
317.620352
 42
-0.191142
  0
VERTEX
  8
0
 10
193.478525
 20
317.293750
 42
-0.138808
  0
VERTEX
  8
0
 10
193.110654
 20
317.073267
 42
-0.066118
  0
VERTEX
  8
0
 10
192.559017
 20
317.000000
 42
0.078525
  0
VERTEX
  8
0
 10
191.962310
 20
316.905705
 42
0.089641
  0
VERTEX
  8
0
 10
191.453463
 20
316.632812
 42
0.099424
  0
VERTEX
  8
0
 10
191.110394
 20
316.226773
 42
0.123393
  0
VERTEX
  8
0
 10
190.984687
 20
315.750000
 42
-0.515815
  0
VERTEX
  8
0
 10
190.643891
 20
315.513780
 42
-0.140218
  0
VERTEX
  8
0
 10
190.004534
 20
315.975017
 42
-0.056511
  0
VERTEX
  8
0
 10
189.271976
 20
317.158336
 42
-0.105642
  0
VERTEX
  8
0
 10
189.015313
 20
318.250000
 42
-0.356860
  0
VERTEX
  8
0
 10
189.489996
 20
318.855185
 42
-0.069061
  0
VERTEX
  8
0
 10
190.981019
 20
318.978047
 42
-0.061036
  0
VERTEX
  8
0
 10
192.614672
 20
318.684806
 42
-0.181374
  0
SEQEND
  0
POLYLINE
  8
0
 66
1
 70
1
  0
VERTEX
  8
0
 10
203.000000
 20
289.393011
 42
-0.289661
  0
VERTEX
  8
0
 10
202.903916
 20
289.241071
 42
-0.046727
  0
VERTEX
  8
0
 10
202.559375
 20
289.115447
 42
-0.039339
  0
VERTEX
  8
0
 10
202.074824
 20
289.028469
 42
-0.024748
  0
VERTEX
  8
0
 10
201.500000
 20
289.000000
 42
-0.062722
  0
VERTEX
  8
0
 10
200.926468
 20
289.072230
 42
-0.080880
  0
VERTEX
  8
0
 10
200.440625
 20
289.284531
 42
-0.098158
  0
VERTEX
  8
0
 10
200.115494
 20
289.599211
 42
-0.152681
  0
VERTEX
  8
0
 10
200.000000
 20
289.968615
 42
-0.184534
  0
VERTEX
  8
0
 10
200.122486
 20
290.289193
 42
-0.147206
  0
VERTEX
  8
0
 10
200.440625
 20
290.483616
 42
-0.100118
  0
VERTEX
  8
0
 10
200.925634
 20
290.511135
 42
-0.055937
  0
VERTEX
  8
0
 10
201.500000
 20
290.361626
 42
-0.021360
  0
VERTEX
  8
0
 10
202.074558
 20
290.112506
 42
-0.030395
  0
VERTEX
  8
0
 10
202.559375
 20
289.839659
 42
-0.030693
  0
VERTEX
  8
0
 10
202.912889
 20
289.579329
 42
-0.222225
  0
SEQEND
  0
POLYLINE
  8
0
 66
1
 70
1
  0
VERTEX
  8
0
 10
221.000000
 20
280.000000
 42
-0.042167
  0
VERTEX
  8
0
 10
220.967655
 20
279.617151
 42
-0.061769
  0
VERTEX
  8
0
 10
220.870461
 20
279.293750
 42
-0.081139
  0
VERTEX
  8
0
 10
220.727648
 20
279.074460
 42
-0.210953
  0
VERTEX
  8
0
 10
220.559017
 20
279.000000
 42
-0.151918
  0
VERTEX
  8
0
 10
220.348290
 20
279.065539
 42
-0.038439
  0
VERTEX
  8
0
 10
220.066025
 20
279.293750
 42
-0.035638
  0
VERTEX
  8
0
 10
219.768994
 20
279.617226
 42
-0.029505
  0
VERTEX
  8
0
 10
219.500000
 20
280.000000
 42
-0.082592
  0
VERTEX
  8
0
 10
219.343488
 20
280.382100
 42
-0.161196
  0
VERTEX
  8
0
 10
219.374600
 20
280.706250
 42
-0.182303
  0
VERTEX
  8
0
 10
219.586039
 20
280.921712
 42
-0.108972
  0
VERTEX
  8
0
 10
219.940983
 20
281.000000
 42
-0.093332
  0
VERTEX
  8
0
 10
220.345238
 20
280.923877
 42
-0.096420
  0
VERTEX
  8
0
 10
220.688914
 20
280.706250
 42
-0.099167
  0
VERTEX
  8
0
 10
220.918938
 20
280.381556
 42
-0.105053
  0
SEQEND
  0
POLYLINE
  8
0
 66
1
 70
1
  0
VERTEX
  8
0
 10
236.000000
 20
263.000000
 42
-0.042167
  0
VERTEX
  8
0
 10
235.967655
 20
262.617151
 42
-0.061769
  0
VERTEX
  8
0
 10
235.870461
 20
262.293750
 42
-0.081139
  0
VERTEX
  8
0
 10
235.727648
 20
262.074460
 42
-0.210953
  0
VERTEX
  8
0
 10
235.559017
 20
262.000000
 42
-0.151918
  0
VERTEX
  8
0
 10
235.348290
 20
262.065539
 42
-0.038439
  0
VERTEX
  8
0
 10
235.066025
 20
262.293750
 42
-0.035638
  0
VERTEX
  8
0
 10
234.768994
 20
262.617226
 42
-0.029505
  0
VERTEX
  8
0
 10
234.500000
 20
263.000000
 42
-0.082592
  0
VERTEX
  8
0
 10
234.343488
 20
263.382100
 42
-0.161196
  0
VERTEX
  8
0
 10
234.374600
 20
263.706250
 42
-0.182303
  0
VERTEX
  8
0
 10
234.586039
 20
263.921712
 42
-0.108972
  0
VERTEX
  8
0
 10
234.940983
 20
264.000000
 42
-0.093332
  0
VERTEX
  8
0
 10
235.345238
 20
263.923877
 42
-0.096420
  0
VERTEX
  8
0
 10
235.688914
 20
263.706250
 42
-0.099167
  0
VERTEX
  8
0
 10
235.918938
 20
263.381556
 42
-0.105053
  0
SEQEND
  0
POLYLINE
  8
0
 66
1
 70
1
  0
VERTEX
  8
0
 10
152.853151
 20
218.145833
 42
-0.111170
  0
VERTEX
  8
0
 10
152.044922
 20
218.043484
 42
-0.244847
  0
VERTEX
  8
0
 10
151.537393
 20
218.372900
 42
-0.078897
  0
VERTEX
  8
0
 10
151.175006
 20
219.343398
 42
-0.006523
  0
VERTEX
  8
0
 10
150.672745
 20
222.000000
 42
0.000000
  0
VERTEX
  8
0
 10
150.058209
 20
225.500000
 42
0.000000
  0
VERTEX
  8
0
 10
151.944755
 20
222.000000
 42
-0.023976
  0
VERTEX
  8
0
 10
152.605046
 20
220.620529
 42
-0.041778
  0
VERTEX
  8
0
 10
152.997701
 20
219.415408
 42
-0.054421
  0
VERTEX
  8
0
 10
153.108693
 20
218.515616
 42
-0.319611
  0
SEQEND
  0
POLYLINE
  8
0
 66
1
 70
1
  0
VERTEX
  8
0
 10
155.000000
 20
210.000000
 42
-0.018041
  0
VERTEX
  8
0
 10
154.972329
 20
209.233356
 42
-0.029316
  0
VERTEX
  8
0
 10
154.887385
 20
208.587500
 42
-0.029396
  0
VERTEX
  8
0
 10
154.766282
 20
208.109555
 42
-0.326917
  0
VERTEX
  8
0
 10
154.616631
 20
208.000000
 42
-0.269386
  0
VERTEX
  8
0
 10
154.439563
 20
208.102864
 42
-0.023188
  0
VERTEX
  8
0
 10
154.192243
 20
208.587500
 42
-0.025621
  0
VERTEX
  8
0
 10
153.938458
 20
209.233613
 42
-0.016817
  0
VERTEX
  8
0
 10
153.710251
 20
210.000000
 42
-0.040966
  0
VERTEX
  8
0
 10
153.575635
 20
210.766322
 42
-0.070464
  0
VERTEX
  8
0
 10
153.607123
 20
211.412500
 42
-0.106581
  0
VERTEX
  8
0
 10
153.789795
 20
211.842465
 42
-0.243840
  0
VERTEX
  8
0
 10
154.093620
 20
212.000000
 42
-0.206609
  0
VERTEX
  8
0
 10
154.440102
 20
211.850443
 42
-0.082769
  0
VERTEX
  8
0
 10
154.733751
 20
211.412500
 42
-0.063112
  0
VERTEX
  8
0
 10
154.933456
 20
210.765641
 42
-0.043375
  0
SEQEND
  0
POLYLINE
  8
0
 66
1
 70
1
  0
VERTEX
  8
0
 10
203.969374
 20
181.500000
 42
-0.190341
  0
VERTEX
  8
0
 10
203.877628
 20
181.267727
 42
-0.335455
  0
VERTEX
  8
0
 10
203.684621
 20
181.234375
 42
-0.102785
  0
VERTEX
  8
0
 10
203.374359
 20
181.485814
 42
-0.027796
  0
VERTEX
  8
0
 10
203.000000
 20
182.000000
 42
-0.026766
  0
VERTEX
  8
0
 10
202.628962
 20
182.647707
 42
-0.024204
  0
VERTEX
  8
0
 10
202.315379
 20
183.353125
 42
-0.024967
  0
VERTEX
  8
0
 10
202.096832
 20
184.012663
 42
-0.067616
  0
VERTEX
  8
0
 10
202.030626
 20
184.500000
 42
-0.190341
  0
VERTEX
  8
0
 10
202.122372
 20
184.732273
 42
-0.335455
  0
VERTEX
  8
0
 10
202.315379
 20
184.765625
 42
-0.102785
  0
VERTEX
  8
0
 10
202.625641
 20
184.514186
 42
-0.027796
  0
VERTEX
  8
0
 10
203.000000
 20
184.000000
 42
-0.026766
  0
VERTEX
  8
0
 10
203.371038
 20
183.352293
 42
-0.024204
  0
VERTEX
  8
0
 10
203.684621
 20
182.646875
 42
-0.024967
  0
VERTEX
  8
0
 10
203.903168
 20
181.987337
 42
-0.067616
  0
SEQEND
  0
POLYLINE
  8
0
 66
1
 70
1
  0
VERTEX
  8
0
 10
189.000000
 20
177.000000
 42
-0.105053
  0
VERTEX
  8
0
 10
188.918938
 20
176.618444
 42
-0.099167
  0
VERTEX
  8
0
 10
188.688914
 20
176.293750
 42
-0.096420
  0
VERTEX
  8
0
 10
188.345238
 20
176.076123
 42
-0.093332
  0
VERTEX
  8
0
 10
187.940983
 20
176.000000
 42
-0.108972
  0
VERTEX
  8
0
 10
187.586039
 20
176.078288
 42
-0.182303
  0
VERTEX
  8
0
 10
187.374600
 20
176.293750
 42
-0.161196
  0
VERTEX
  8
0
 10
187.343488
 20
176.617900
 42
-0.082592
  0
VERTEX
  8
0
 10
187.500000
 20
177.000000
 42
-0.029505
  0
VERTEX
  8
0
 10
187.768994
 20
177.382774
 42
-0.035638
  0
VERTEX
  8
0
 10
188.066025
 20
177.706250
 42
-0.038439
  0
VERTEX
  8
0
 10
188.348290
 20
177.934461
 42
-0.151918
  0
VERTEX
  8
0
 10
188.559017
 20
178.000000
 42
-0.210953
  0
VERTEX
  8
0
 10
188.727648
 20
177.925540
 42
-0.081139
  0
VERTEX
  8
0
 10
188.870461
 20
177.706250
 42
-0.061769
  0
VERTEX
  8
0
 10
188.967655
 20
177.382849
 42
-0.042167
  0
SEQEND
  0
POLYLINE
  8
0
 66
1
 70
1
  0
VERTEX
  8
0
 10
194.500000
 20
177.000000
 42
-0.082592
  0
VERTEX
  8
0
 10
194.656512
 20
176.617900
 42
-0.161196
  0
VERTEX
  8
0
 10
194.625400
 20
176.293750
 42
-0.182303
  0
VERTEX
  8
0
 10
194.413961
 20
176.078288
 42
-0.108972
  0
VERTEX
  8
0
 10
194.059017
 20
176.000000
 42
-0.093332
  0
VERTEX
  8
0
 10
193.654762
 20
176.076123
 42
-0.096420
  0
VERTEX
  8
0
 10
193.311086
 20
176.293750
 42
-0.099167
  0
VERTEX
  8
0
 10
193.081062
 20
176.618444
 42
-0.105053
  0
VERTEX
  8
0
 10
193.000000
 20
177.000000
 42
-0.042167
  0
VERTEX
  8
0
 10
193.032345
 20
177.382849
 42
-0.061769
  0
VERTEX
  8
0
 10
193.129539
 20
177.706250
 42
-0.081139
  0
VERTEX
  8
0
 10
193.272352
 20
177.925540
 42
-0.210953
  0
VERTEX
  8
0
 10
193.440983
 20
178.000000
 42
-0.151918
  0
VERTEX
  8
0
 10
193.651710
 20
177.934461
 42
-0.038439
  0
VERTEX
  8
0
 10
193.933975
 20
177.706250
 42
-0.035638
  0
VERTEX
  8
0
 10
194.231006
 20
177.382774
 42
-0.029505
  0
SEQEND
  0
POLYLINE
  8
0
 66
1
 70
1
  0
VERTEX
  8
0
 10
222.500000
 20
172.000000
 42
-0.076764
  0
VERTEX
  8
0
 10
222.661825
 20
171.617617
 42
-0.154201
  0
VERTEX
  8
0
 10
222.642737
 20
171.293750
 42
-0.186277
  0
VERTEX
  8
0
 10
222.449529
 20
171.079239
 42
-0.117858
  0
VERTEX
  8
0
 10
222.118034
 20
171.000000
 42
-0.085235
  0
VERTEX
  8
0
 10
221.689814
 20
171.073533
 42
-0.053414
  0
VERTEX
  8
0
 10
221.230237
 20
171.293750
 42
-0.051777
  0
VERTEX
  8
0
 10
220.810561
 20
171.617474
 42
-0.064269
  0
VERTEX
  8
0
 10
220.500000
 20
172.000000
 42
-0.076764
  0
VERTEX
  8
0
 10
220.338175
 20
172.382383
 42
-0.154201
  0
VERTEX
  8
0
 10
220.357263
 20
172.706250
 42
-0.186277
  0
VERTEX
  8
0
 10
220.550471
 20
172.920761
 42
-0.117858
  0
VERTEX
  8
0
 10
220.881966
 20
173.000000
 42
-0.085235
  0
VERTEX
  8
0
 10
221.310186
 20
172.926467
 42
-0.053414
  0
VERTEX
  8
0
 10
221.769763
 20
172.706250
 42
-0.051777
  0
VERTEX
  8
0
 10
222.189439
 20
172.382526
 42
-0.064269
  0
SEQEND
  0
POLYLINE
  8
0
 66
1
 70
1
  0
VERTEX
  8
0
 10
199.000000
 20
160.000000
 42
-0.042167
  0
VERTEX
  8
0
 10
198.967655
 20
159.617151
 42
-0.061769
  0
VERTEX
  8
0
 10
198.870461
 20
159.293750
 42
-0.081139
  0
VERTEX
  8
0
 10
198.727648
 20
159.074460
 42
-0.210953
  0
VERTEX
  8
0
 10
198.559017
 20
159.000000
 42
-0.151918
  0
VERTEX
  8
0
 10
198.348290
 20
159.065539
 42
-0.038439
  0
VERTEX
  8
0
 10
198.066025
 20
159.293750
 42
-0.035638
  0
VERTEX
  8
0
 10
197.768994
 20
159.617226
 42
-0.029505
  0
VERTEX
  8
0
 10
197.500000
 20
160.000000
 42
-0.082592
  0
VERTEX
  8
0
 10
197.343488
 20
160.382100
 42
-0.161196
  0
VERTEX
  8
0
 10
197.374600
 20
160.706250
 42
-0.182303
  0
VERTEX
  8
0
 10
197.586039
 20
160.921712
 42
-0.108972
  0
VERTEX
  8
0
 10
197.940983
 20
161.000000
 42
-0.093332
  0
VERTEX
  8
0
 10
198.345238
 20
160.923877
 42
-0.096420
  0
VERTEX
  8
0
 10
198.688914
 20
160.706250
 42
-0.099167
  0
VERTEX
  8
0
 10
198.918938
 20
160.381556
 42
-0.105053
  0
SEQEND
  0
POLYLINE
  8
0
 66
1
 70
1
  0
VERTEX
  8
0
 10
254.000000
 20
134.000000
 42
-0.092995
  0
VERTEX
  8
0
 10
253.928382
 20
133.618268
 42
-0.096318
  0
VERTEX
  8
0
 10
253.723586
 20
133.293750
 42
-0.099231
  0
VERTEX
  8
0
 10
253.418051
 20
133.076556
 42
-0.105429
  0
VERTEX
  8
0
 10
253.059017
 20
133.000000
 42
-0.089642
  0
VERTEX
  8
0
 10
252.653442
 20
133.073302
 42
-0.053229
  0
VERTEX
  8
0
 10
252.212900
 20
133.293750
 42
-0.051032
  0
VERTEX
  8
0
 10
251.806203
 20
133.617485
 42
-0.060810
  0
VERTEX
  8
0
 10
251.500000
 20
134.000000
 42
-0.139169
  0
VERTEX
  8
0
 10
251.392057
 20
134.379648
 42
-0.191142
  0
VERTEX
  8
0
 10
251.521475
 20
134.706250
 42
-0.138808
  0
VERTEX
  8
0
 10
251.889346
 20
134.926733
 42
-0.066118
  0
VERTEX
  8
0
 10
252.440983
 20
135.000000
 42
-0.062283
  0
VERTEX
  8
0
 10
253.037096
 20
134.925455
 42
-0.080552
  0
VERTEX
  8
0
 10
253.542039
 20
134.706250
 42
-0.097988
  0
VERTEX
  8
0
 10
253.879982
 20
134.381379
 42
-0.153634
  0
SEQEND
  0
POLYLINE
  8
0
 66
1
 70
1
  0
VERTEX
  8
0
 10
156.250000
 20
75.337719
 42
-0.057986
  0
VERTEX
  8
0
 10
155.679992
 20
75.181385
 42
-0.037979
  0
VERTEX
  8
0
 10
155.000000
 20
75.129660
 42
-0.037979
  0
VERTEX
  8
0
 10
154.320008
 20
75.181385
 42
-0.057986
  0
VERTEX
  8
0
 10
153.750000
 20
75.337719
 42
-0.174857
  0
VERTEX
  8
0
 10
153.540618
 20
75.525001
 42
-0.447206
  0
VERTEX
  8
0
 10
153.601562
 20
75.693942
 42
-0.078554
  0
VERTEX
  8
0
 10
154.108560
 20
75.810911
 42
-0.017491
  0
VERTEX
  8
0
 10
155.000000
 20
75.842105
 42
-0.017491
  0
VERTEX
  8
0
 10
155.891440
 20
75.810911
 42
-0.078554
  0
VERTEX
  8
0
 10
156.398438
 20
75.693942
 42
-0.447206
  0
VERTEX
  8
0
 10
156.459382
 20
75.525001
 42
-0.174857
  0
SEQEND
  0
ENDSEC
  0
EOF
