  0
SECTION
  2
HEADER
  9
$ACADVER
  1
AC1006
  9
$EXTMIN
 10
0.000000
 20
0.000000
 30
0.000000
  9
$EXTMAX
 10
101.000000
 20
216.000000
 30
0.000000
  0
ENDSEC
  0
SECTION
  2
ENTITIES
  0
POLYLINE
  8
0
 66
1
 70
1
  0
VERTEX
  8
0
 10
75.000000
 20
214.000000
 42
-0.227110
  0
VERTEX
  8
0
 10
74.468981
 20
212.891219
 42
-0.132247
  0
VERTEX
  8
0
 10
73.090768
 20
212.284748
 42
-0.034832
  0
VERTEX
  8
0
 10
70.044912
 20
212.034623
 42
-0.002625
  0
VERTEX
  8
0
 10
61.750000
 20
211.976143
 42
0.016075
  0
VERTEX
  8
0
 10
49.762161
 20
211.569023
 42
0.053606
  0
VERTEX
  8
0
 10
42.015311
 20
210.213651
 42
0.055037
  0
VERTEX
  8
0
 10
34.840862
 20
207.262235
 42
0.017605
  0
VERTEX
  8
0
 10
24.908093
 20
201.369566
 42
0.021044
  0
VERTEX
  8
0
 10
18.970179
 20
197.195245
 42
0.025569
  0
VERTEX
  8
0
 10
13.794824
 20
192.783274
 42
0.023485
  0
VERTEX
  8
0
 10
9.906518
 20
188.747312
 42
0.181919
  0
VERTEX
  8
0
 10
9.000000
 20
186.338230
 42
-0.112474
  0
VERTEX
  8
0
 10
8.882068
 20
185.820600
 42
-0.011609
  0
VERTEX
  8
0
 10
8.310145
 20
184.698118
 42
-0.013985
  0
VERTEX
  8
0
 10
7.550931
 20
183.379523
 42
-0.010743
  0
VERTEX
  8
0
 10
6.651559
 20
181.982135
 42
0.038598
  0
VERTEX
  8
0
 10
4.661304
 20
178.475221
 42
0.014249
  0
VERTEX
  8
0
 10
2.390849
 20
173.259112
 42
0.011811
  0
VERTEX
  8
0
 10
0.446265
 20
168.068148
 42
0.083898
  0
VERTEX
  8
0
 10
0.000000
 20
165.427304
 42
0.072024
  0
VERTEX
  8
0
 10
0.102360
 20
164.720394
 42
0.287501
  0
VERTEX
  8
0
 10
0.415995
 20
164.443482
 42
0.145975
  0
VERTEX
  8
0
 10
0.997354
 20
164.517424
 42
0.018749
  0
VERTEX
  8
0
 10
2.139387
 20
165.074597
 42
-0.059354
  0
VERTEX
  8
0
 10
7.366857
 20
167.119170
 42
-0.011651
  0
VERTEX
  8
0
 10
17.205053
 20
169.432688
 42
-0.012967
  0
VERTEX
  8
0
 10
28.097384
 20
171.434219
 42
-0.018150
  0
VERTEX
  8
0
 10
37.921638
 20
172.613842
 42
0.000000
  0
VERTEX
  8
0
 10
46.000000
 20
173.287552
 42
0.000000
  0
VERTEX
  8
0
 10
46.000000
 20
86.643776
 42
0.000000
  0
VERTEX
  8
0
 10
46.000000
 20
0.000000
 42
0.000000
  0
VERTEX
  8
0
 10
58.000000
 20
0.000000
 42
0.000000
  0
VERTEX
  8
0
 10
70.000000
 20
0.000000
 42
0.000000
  0
VERTEX
  8
0
 10
70.000000
 20
86.000000
 42
0.000000
  0
VERTEX
  8
0
 10
70.000000
 20
172.000000
 42
0.000000
  0
VERTEX
  8
0
 10
72.500000
 20
172.000000
 42
-0.044917
  0
VERTEX
  8
0
 10
73.682766
 20
171.893532
 42
-0.124434
  0
VERTEX
  8
0
 10
74.437500
 20
171.550000
 42
-0.149477
  0
VERTEX
  8
0
 10
74.857434
 20
170.935258
 42
-0.075780
  0
VERTEX
  8
0
 10
75.000000
 20
170.000000
 42
0.224251
  0
VERTEX
  8
0
 10
75.522682
 20
168.893213
 42
0.134742
  0
VERTEX
  8
0
 10
76.875000
 20
168.288462
 42
0.035495
  0
VERTEX
  8
0
 10
79.865477
 20
168.043630
 42
0.002682
  0
VERTEX
  8
0
 10
88.000000
 20
168.000000
 42
0.000000
  0
VERTEX
  8
0
 10
101.000000
 20
168.000000
 42
0.000000
  0
VERTEX
  8
0
 10
101.000000
 20
192.000000
 42
0.000000
  0
VERTEX
  8
0
 10
101.000000
 20
216.000000
 42
0.000000
  0
VERTEX
  8
0
 10
88.000000
 20
216.000000
 42
0.002682
  0
VERTEX
  8
0
 10
79.865477
 20
215.956370
 42
0.035495
  0
VERTEX
  8
0
 10
76.875000
 20
215.711538
 42
0.134742
  0
VERTEX
  8
0
 10
75.522682
 20
215.106787
 42
0.224251
  0
SEQEND
  0
ENDSEC
  0
EOF
