  0
SECTION
  2
HEADER
  9
$ACADVER
  1
AC1006
  9
$EXTMIN
 10
0.000000
 20
0.000000
 30
0.000000
  9
$EXTMAX
 10
146.000000
 20
101.000000
 30
0.000000
  0
ENDSEC
  0
SECTION
  2
ENTITIES
  0
POLYLINE
  8
0
 66
1
 70
1
  0
VERTEX
  8
0
 10
98.000000
 20
88.000000
 42
0.002682
  0
VERTEX
  8
0
 10
98.043630
 20
79.865477
 42
0.035495
  0
VERTEX
  8
0
 10
98.288462
 20
76.875000
 42
0.134742
  0
VERTEX
  8
0
 10
98.893213
 20
75.522682
 42
0.224251
  0
VERTEX
  8
0
 10
100.000000
 20
75.000000
 42
-0.075780
  0
VERTEX
  8
0
 10
100.935258
 20
74.857434
 42
-0.149477
  0
VERTEX
  8
0
 10
101.550000
 20
74.437500
 42
-0.124434
  0
VERTEX
  8
0
 10
101.893532
 20
73.682766
 42
-0.044917
  0
VERTEX
  8
0
 10
102.000000
 20
72.500000
 42
0.000000
  0
VERTEX
  8
0
 10
102.000000
 20
70.000000
 42
0.000000
  0
VERTEX
  8
0
 10
51.000000
 20
70.000000
 42
0.000000
  0
VERTEX
  8
0
 10
0.000000
 20
70.000000
 42
0.000000
  0
VERTEX
  8
0
 10
0.000000
 20
58.000000
 42
0.000000
  0
VERTEX
  8
0
 10
0.000000
 20
46.000000
 42
0.000000
  0
VERTEX
  8
0
 10
51.643776
 20
46.000000
 42
0.000000
  0
VERTEX
  8
0
 10
103.287552
 20
46.000000
 42
0.000000
  0
VERTEX
  8
0
 10
102.613842
 20
37.921638
 42
-0.018150
  0
VERTEX
  8
0
 10
101.434219
 20
28.097384
 42
-0.012967
  0
VERTEX
  8
0
 10
99.432688
 20
17.205053
 42
-0.011651
  0
VERTEX
  8
0
 10
97.119170
 20
7.366857
 42
-0.059354
  0
VERTEX
  8
0
 10
95.074597
 20
2.139387
 42
0.018749
  0
VERTEX
  8
0
 10
94.517424
 20
0.997354
 42
0.145975
  0
VERTEX
  8
0
 10
94.443482
 20
0.415995
 42
0.287501
  0
VERTEX
  8
0
 10
94.720394
 20
0.102360
 42
0.072024
  0
VERTEX
  8
0
 10
95.427304
 20
0.000000
 42
0.083898
  0
VERTEX
  8
0
 10
98.068148
 20
0.446265
 42
0.011811
  0
VERTEX
  8
0
 10
103.259112
 20
2.390849
 42
0.014249
  0
VERTEX
  8
0
 10
108.475221
 20
4.661304
 42
0.038598
  0
VERTEX
  8
0
 10
111.982135
 20
6.651559
 42
-0.010743
  0
VERTEX
  8
0
 10
113.379523
 20
7.550931
 42
-0.013985
  0
VERTEX
  8
0
 10
114.698118
 20
8.310145
 42
-0.011609
  0
VERTEX
  8
0
 10
115.820600
 20
8.882068
 42
-0.112474
  0
VERTEX
  8
0
 10
116.338230
 20
9.000000
 42
0.181919
  0
VERTEX
  8
0
 10
118.747312
 20
9.906518
 42
0.023485
  0
VERTEX
  8
0
 10
122.783274
 20
13.794824
 42
0.025569
  0
VERTEX
  8
0
 10
127.195245
 20
18.970179
 42
0.021044
  0
VERTEX
  8
0
 10
131.369566
 20
24.908093
 42
0.017605
  0
VERTEX
  8
0
 10
137.262235
 20
34.840862
 42
0.055037
  0
VERTEX
  8
0
 10
140.213651
 20
42.015311
 42
0.053606
  0
VERTEX
  8
0
 10
141.569023
 20
49.762161
 42
0.016075
  0
VERTEX
  8
0
 10
141.976143
 20
61.750000
 42
-0.002625
  0
VERTEX
  8
0
 10
142.034623
 20
70.044912
 42
-0.034832
  0
VERTEX
  8
0
 10
142.284748
 20
73.090768
 42
-0.132247
  0
VERTEX
  8
0
 10
142.891219
 20
74.468981
 42
-0.227110
  0
VERTEX
  8
0
 10
144.000000
 20
75.000000
 42
0.224251
  0
VERTEX
  8
0
 10
145.106787
 20
75.522682
 42
0.134742
  0
VERTEX
  8
0
 10
145.711538
 20
76.875000
 42
0.035495
  0
VERTEX
  8
0
 10
145.956370
 20
79.865477
 42
0.002682
  0
VERTEX
  8
0
 10
146.000000
 20
88.000000
 42
0.000000
  0
VERTEX
  8
0
 10
146.000000
 20
101.000000
 42
0.000000
  0
VERTEX
  8
0
 10
122.000000
 20
101.000000
 42
0.000000
  0
VERTEX
  8
0
 10
98.000000
 20
101.000000
 42
0.000000
  0
SEQEND
  0
ENDSEC
  0
EOF
