  0
SECTION
  2
HEADER
  9
$ACADVER
  1
AC1006
  9
$EXTMIN
 10
0.000000
 20
0.000000
 30
0.000000
  9
$EXTMAX
 10
198.000000
 20
99.000000
 30
0.000000
  0
ENDSEC
  0
SECTION
  2
ENTITIES
  0
POLYLINE
  8
0
 66
1
 70
1
  0
VERTEX
  8
0
 10
87.000000
 20
98.362617
 42
0.038774
  0
VERTEX
  8
0
 10
69.542612
 20
94.413082
 42
0.047327
  0
VERTEX
  8
0
 10
54.089427
 20
87.977960
 42
0.053044
  0
VERTEX
  8
0
 10
41.768883
 20
79.636290
 42
0.086665
  0
VERTEX
  8
0
 10
33.694904
 20
69.987078
 42
0.040308
  0
VERTEX
  8
0
 10
32.354797
 20
67.164584
 42
0.027590
  0
VERTEX
  8
0
 10
31.280328
 20
63.781712
 42
0.020302
  0
VERTEX
  8
0
 10
30.330025
 20
59.361776
 42
0.007936
  0
VERTEX
  8
0
 10
29.364253
 20
53.193515
 42
0.000000
  0
VERTEX
  8
0
 10
27.640675
 20
40.912875
 42
0.000000
  0
VERTEX
  8
0
 10
19.570338
 20
36.855747
 42
0.024742
  0
VERTEX
  8
0
 10
10.367058
 20
31.643641
 42
0.062837
  0
VERTEX
  8
0
 10
4.455898
 20
26.762194
 42
0.088324
  0
VERTEX
  8
0
 10
1.152939
 20
21.707810
 42
0.100999
  0
VERTEX
  8
0
 10
0.000000
 20
16.058358
 42
0.102326
  0
VERTEX
  8
0
 10
0.767233
 20
12.348637
 42
0.101053
  0
VERTEX
  8
0
 10
2.944614
 20
9.228673
 42
0.075925
  0
VERTEX
  8
0
 10
6.750031
 20
6.577436
 42
0.033687
  0
VERTEX
  8
0
 10
12.425084
 20
4.247329
 42
0.051239
  0
VERTEX
  8
0
 10
25.035944
 20
1.429118
 42
0.027194
  0
VERTEX
  8
0
 10
41.029443
 20
0.418605
 42
0.024182
  0
VERTEX
  8
0
 10
59.441926
 20
1.148695
 42
0.018338
  0
VERTEX
  8
0
 10
79.500000
 20
3.662145
 42
-0.018857
  0
VERTEX
  8
0
 10
85.890737
 20
4.456227
 42
-0.012378
  0
VERTEX
  8
0
 10
93.294451
 20
4.909582
 42
-0.008430
  0
VERTEX
  8
0
 10
103.187929
 20
5.102947
 42
-0.002647
  0
VERTEX
  8
0
 10
118.000000
 20
5.064251
 42
0.004614
  0
VERTEX
  8
0
 10
137.096915
 20
5.089469
 42
0.017464
  0
VERTEX
  8
0
 10
149.029862
 20
5.632456
 42
0.020982
  0
VERTEX
  8
0
 10
159.777045
 20
6.954018
 42
0.009000
  0
VERTEX
  8
0
 10
174.000000
 20
9.576138
 42
0.029501
  0
VERTEX
  8
0
 10
180.734282
 20
11.362523
 42
0.023092
  0
VERTEX
  8
0
 10
187.800197
 20
14.058175
 42
0.020848
  0
VERTEX
  8
0
 10
193.884387
 20
17.014630
 42
0.116972
  0
VERTEX
  8
0
 10
196.569388
 20
19.402528
 42
0.062163
  0
VERTEX
  8
0
 10
197.116411
 20
20.435926
 42
0.029167
  0
VERTEX
  8
0
 10
197.570415
 20
21.881234
 42
0.028352
  0
VERTEX
  8
0
 10
197.875317
 20
23.472145
 42
0.035436
  0
VERTEX
  8
0
 10
197.968197
 20
24.972506
 42
0.108604
  0
VERTEX
  8
0
 10
196.954670
 20
29.393140
 42
0.156892
  0
VERTEX
  8
0
 10
194.233247
 20
32.296961
 42
0.092895
  0
VERTEX
  8
0
 10
189.116493
 20
34.000022
 42
0.022838
  0
VERTEX
  8
0
 10
180.250000
 20
34.803566
 42
0.000000
  0
VERTEX
  8
0
 10
170.000000
 20
35.262162
 42
0.000000
  0
VERTEX
  8
0
 10
170.000000
 20
44.043113
 42
0.031267
  0
VERTEX
  8
0
 10
169.224907
 20
56.425630
 42
0.051331
  0
VERTEX
  8
0
 10
166.857503
 20
66.646963
 42
0.059145
  0
VERTEX
  8
0
 10
162.794519
 20
75.094048
 42
0.063379
  0
VERTEX
  8
0
 10
156.943992
 20
82.138567
 42
0.055873
  0
VERTEX
  8
0
 10
149.653346
 20
87.561212
 42
0.034450
  0
VERTEX
  8
0
 10
140.059442
 20
92.302644
 42
0.032991
  0
VERTEX
  8
0
 10
129.304788
 20
95.916548
 42
0.036056
  0
VERTEX
  8
0
 10
118.481885
 20
97.954688
 42
0.017156
  0
VERTEX
  8
0
 10
111.115977
 20
98.543341
 42
0.008120
  0
VERTEX
  8
0
 10
101.590038
 20
98.821549
 42
0.007466
  0
VERTEX
  8
0
 10
92.434464
 20
98.803471
 42
0.032030
  0
SEQEND
  0
ENDSEC
  0
EOF
