  0
SECTION
  2
HEADER
  9
$ACADVER
  1
AC1006
  9
$EXTMIN
 10
0.000000
 20
0.000000
 30
0.000000
  9
$EXTMAX
 10
240.000000
 20
248.000000
 30
0.000000
  0
ENDSEC
  0
SECTION
  2
ENTITIES
  0
POLYLINE
  8
0
 66
1
 70
1
  0
VERTEX
  8
0
 10
110.000000
 20
246.995083
 42
-0.001891
  0
VERTEX
  8
0
 10
105.348088
 20
246.581931
 42
-0.000775
  0
VERTEX
  8
0
 10
99.031250
 20
246.054842
 42
-0.000767
  0
VERTEX
  8
0
 10
92.247077
 20
245.509820
 42
-0.000982
  0
VERTEX
  8
0
 10
86.000000
 20
245.029938
 42
0.012531
  0
VERTEX
  8
0
 10
68.515635
 20
243.279834
 42
0.018985
  0
VERTEX
  8
0
 10
53.433341
 20
240.802666
 42
0.021527
  0
VERTEX
  8
0
 10
40.207955
 20
237.512823
 42
0.027405
  0
VERTEX
  8
0
 10
28.363907
 20
233.301170
 42
0.024518
  0
VERTEX
  8
0
 10
22.232790
 20
230.373677
 42
0.193373
  0
VERTEX
  8
0
 10
20.256170
 20
227.999467
 42
0.138857
  0
VERTEX
  8
0
 10
20.129371
 20
224.506848
 42
0.010734
  0
VERTEX
  8
0
 10
22.573165
 20
215.361867
 42
-0.001856
  0
VERTEX
  8
0
 10
27.705034
 20
197.439793
 42
-0.009910
  0
VERTEX
  8
0
 10
30.275324
 20
187.593745
 42
-0.013913
  0
VERTEX
  8
0
 10
32.047365
 20
179.185254
 42
-0.006165
  0
VERTEX
  8
0
 10
33.939213
 20
168.000000
 42
-0.012551
  0
VERTEX
  8
0
 10
35.106750
 20
159.078039
 42
-0.006811
  0
VERTEX
  8
0
 10
36.116449
 20
148.061628
 42
-0.006212
  0
VERTEX
  8
0
 10
36.930599
 20
135.621884
 42
-0.005080
  0
VERTEX
  8
0
 10
37.500679
 20
122.301712
 42
-0.003845
  0
VERTEX
  8
0
 10
37.827016
 20
109.210790
 42
-0.098764
  0
VERTEX
  8
0
 10
37.195182
 20
105.731802
 42
-0.213816
  0
VERTEX
  8
0
 10
35.226207
 20
103.811201
 42
-0.028086
  0
VERTEX
  8
0
 10
29.500000
 20
102.067973
 42
0.064192
  0
VERTEX
  8
0
 10
19.187734
 20
98.097051
 42
0.063240
  0
VERTEX
  8
0
 10
10.161996
 20
91.625004
 42
0.067589
  0
VERTEX
  8
0
 10
3.566259
 20
83.591378
 42
0.098792
  0
VERTEX
  8
0
 10
0.389749
 20
75.035893
 42
0.072666
  0
VERTEX
  8
0
 10
0.333068
 20
70.833712
 42
0.029533
  0
VERTEX
  8
0
 10
1.419865
 20
65.202094
 42
0.029525
  0
VERTEX
  8
0
 10
3.236048
 20
59.507226
 42
0.048875
  0
VERTEX
  8
0
 10
5.498431
 20
55.002485
 42
0.050766
  0
VERTEX
  8
0
 10
10.574121
 20
48.523494
 42
0.023880
  0
VERTEX
  8
0
 10
18.313876
 20
41.210425
 42
0.023128
  0
VERTEX
  8
0
 10
27.344532
 20
34.157287
 42
0.027462
  0
VERTEX
  8
0
 10
36.500000
 20
28.392975
 42
-0.001787
  0
VERTEX
  8
0
 10
37.652745
 20
27.747321
 42
-0.000312
  0
VERTEX
  8
0
 10
39.821875
 20
26.520403
 42
-0.000338
  0
VERTEX
  8
0
 10
42.364798
 20
25.077691
 42
-0.000303
  0
VERTEX
  8
0
 10
45.000000
 20
23.578153
 42
0.024754
  0
VERTEX
  8
0
 10
61.564768
 20
15.196029
 42
0.022946
  0
VERTEX
  8
0
 10
79.296216
 20
8.255926
 42
0.023684
  0
VERTEX
  8
0
 10
96.885159
 20
3.201409
 42
0.033199
  0
VERTEX
  8
0
 10
113.000000
 20
0.499909
 42
0.079456
  0
VERTEX
  8
0
 10
132.795776
 20
1.666349
 42
0.037072
  0
VERTEX
  8
0
 10
157.479752
 20
9.073856
 42
0.035578
  0
VERTEX
  8
0
 10
182.746372
 20
20.869564
 42
0.042015
  0
VERTEX
  8
0
 10
204.632067
 20
35.583034
 42
-0.000348
  0
VERTEX
  8
0
 10
207.255979
 20
37.684004
 42
-0.000283
  0
VERTEX
  8
0
 10
210.070104
 20
39.931451
 42
-0.000286
  0
VERTEX
  8
0
 10
212.664924
 20
41.998920
 42
-0.000747
  0
VERTEX
  8
0
 10
214.533547
 20
43.481480
 42
0.020154
  0
VERTEX
  8
0
 10
218.082925
 20
46.529258
 42
0.006523
  0
VERTEX
  8
0
 10
223.088951
 20
51.314571
 42
0.006727
  0
VERTEX
  8
0
 10
228.207759
 20
56.474108
 42
0.011595
  0
VERTEX
  8
0
 10
232.308354
 20
60.922019
 42
0.075546
  0
VERTEX
  8
0
 10
238.092611
 20
69.930466
 42
0.106929
  0
VERTEX
  8
0
 10
240.044386
 20
79.226932
 42
0.117944
  0
VERTEX
  8
0
 10
237.929995
 20
87.833229
 42
0.106710
  0
VERTEX
  8
0
 10
232.100779
 20
94.920181
 42
0.040938
  0
VERTEX
  8
0
 10
227.078767
 20
98.268339
 42
0.028469
  0
VERTEX
  8
0
 10
220.935612
 20
101.230298
 42
0.028105
  0
VERTEX
  8
0
 10
214.377778
 20
103.521697
 42
0.035579
  0
VERTEX
  8
0
 10
208.098438
 20
104.852408
 42
-0.007046
  0
VERTEX
  8
0
 10
205.256117
 20
105.287201
 42
-0.010140
  0
VERTEX
  8
0
 10
202.754831
 20
105.758313
 42
-0.006294
  0
VERTEX
  8
0
 10
200.684693
 20
106.219139
 42
-0.139667
  0
VERTEX
  8
0
 10
200.151656
 20
106.516712
 42
-0.200768
  0
VERTEX
  8
0
 10
199.354992
 20
108.466843
 42
-0.000677
  0
VERTEX
  8
0
 10
199.612080
 20
134.717468
 42
-0.003605
  0
VERTEX
  8
0
 10
200.048262
 20
158.474834
 42
-0.018953
  0
VERTEX
  8
0
 10
200.876073
 20
171.500000
 42
-0.005058
  0
VERTEX
  8
0
 10
201.853847
 20
180.233919
 42
-0.010021
  0
VERTEX
  8
0
 10
202.837933
 20
187.134955
 42
-0.010858
  0
VERTEX
  8
0
 10
204.040988
 20
193.620956
 42
-0.007230
  0
VERTEX
  8
0
 10
205.687803
 20
201.000000
 42
0.003451
  0
VERTEX
  8
0
 10
206.339090
 20
203.817911
 42
0.002629
  0
VERTEX
  8
0
 10
207.014798
 20
206.912500
 42
0.002657
  0
VERTEX
  8
0
 10
207.617521
 20
209.819984
 42
0.006234
  0
VERTEX
  8
0
 10
208.029151
 20
212.000000
 42
-0.005707
  0
VERTEX
  8
0
 10
208.444231
 20
214.211080
 42
-0.002272
  0
VERTEX
  8
0
 10
209.061890
 20
217.234375
 42
-0.002248
  0
VERTEX
  8
0
 10
209.757814
 20
220.490375
 42
-0.002827
  0
VERTEX
  8
0
 10
210.433093
 20
223.500000
 42
0.020503
  0
VERTEX
  8
0
 10
211.561334
 20
229.516531
 42
0.108556
  0
VERTEX
  8
0
 10
211.321928
 20
232.840733
 42
0.160028
  0
VERTEX
  8
0
 10
209.763942
 20
235.091253
 42
0.060812
  0
VERTEX
  8
0
 10
206.421588
 20
237.033611
 42
0.035578
  0
VERTEX
  8
0
 10
199.263694
 20
239.516051
 42
0.010805
  0
VERTEX
  8
0
 10
188.105480
 20
242.259602
 42
0.011234
  0
VERTEX
  8
0
 10
176.292244
 20
244.617606
 42
0.020199
  0
VERTEX
  8
0
 10
166.500000
 20
245.939255
 42
0.012135
  0
VERTEX
  8
0
 10
152.947013
 20
246.882661
 42
0.006636
  0
VERTEX
  8
0
 10
136.296751
 20
247.414920
 42
0.006351
  0
VERTEX
  8
0
 10
120.387471
 20
247.510108
 42
0.021414
  0
SEQEND
  0
POLYLINE
  8
0
 66
1
 70
1
  0
VERTEX
  8
0
 10
84.716254
 20
146.250000
 42
-0.124239
  0
VERTEX
  8
0
 10
84.564074
 20
145.887591
 42
-0.664672
  0
VERTEX
  8
0
 10
84.422038
 20
145.923438
 42
-0.031260
  0
VERTEX
  8
0
 10
84.324637
 20
147.029380
 42
-0.006336
  0
VERTEX
  8
0
 10
84.299664
 20
149.000000
 42
-0.006336
  0
VERTEX
  8
0
 10
84.324637
 20
150.970620
 42
-0.031260
  0
VERTEX
  8
0
 10
84.422038
 20
152.076562
 42
-0.664672
  0
VERTEX
  8
0
 10
84.564074
 20
152.112409
 42
-0.124239
  0
VERTEX
  8
0
 10
84.716254
 20
151.750000
 42
-0.023547
  0
VERTEX
  8
0
 10
84.846019
 20
150.497782
 42
-0.014044
  0
VERTEX
  8
0
 10
84.888098
 20
149.000000
 42
-0.014044
  0
VERTEX
  8
0
 10
84.846019
 20
147.502218
 42
-0.023547
  0
SEQEND
  0
POLYLINE
  8
0
 66
1
 70
1
  0
VERTEX
  8
0
 10
87.000000
 20
138.000000
 42
-0.099038
  0
VERTEX
  8
0
 10
86.923658
 20
137.618362
 42
-0.097945
  0
VERTEX
  8
0
 10
86.706250
 20
137.293750
 42
-0.097945
  0
VERTEX
  8
0
 10
86.381638
 20
137.076342
 42
-0.099038
  0
VERTEX
  8
0
 10
86.000000
 20
137.000000
 42
-0.099038
  0
VERTEX
  8
0
 10
85.618362
 20
137.076342
 42
-0.097945
  0
VERTEX
  8
0
 10
85.293750
 20
137.293750
 42
-0.097945
  0
VERTEX
  8
0
 10
85.076342
 20
137.618362
 42
-0.099038
  0
VERTEX
  8
0
 10
85.000000
 20
138.000000
 42
-0.099038
  0
VERTEX
  8
0
 10
85.076342
 20
138.381638
 42
-0.097945
  0
VERTEX
  8
0
 10
85.293750
 20
138.706250
 42
-0.097945
  0
VERTEX
  8
0
 10
85.618362
 20
138.923658
 42
-0.099038
  0
VERTEX
  8
0
 10
86.000000
 20
139.000000
 42
-0.099038
  0
VERTEX
  8
0
 10
86.381638
 20
138.923658
 42
-0.097945
  0
VERTEX
  8
0
 10
86.706250
 20
138.706250
 42
-0.097945
  0
VERTEX
  8
0
 10
86.923658
 20
138.381638
 42
-0.099038
  0
SEQEND
  0
POLYLINE
  8
0
 66
1
 70
1
  0
VERTEX
  8
0
 10
84.683114
 20
131.812500
 42
-0.054073
  0
VERTEX
  8
0
 10
84.461564
 20
131.395823
 42
-0.470617
  0
VERTEX
  8
0
 10
84.279315
 20
131.378580
 42
-0.168741
  0
VERTEX
  8
0
 10
84.137993
 20
131.670344
 42
-0.018894
  0
VERTEX
  8
0
 10
84.078947
 20
132.416667
 42
-0.028489
  0
VERTEX
  8
0
 10
84.089945
 20
133.112848
 42
-0.077125
  0
VERTEX
  8
0
 10
84.200665
 20
133.592839
 42
-0.208169
  0
VERTEX
  8
0
 10
84.385309
 20
133.775380
 42
-0.296942
  0
VERTEX
  8
0
 10
84.604167
 20
133.729167
 42
-0.126455
  0
VERTEX
  8
0
 10
84.797407
 20
133.402231
 42
-0.060344
  0
VERTEX
  8
0
 10
84.876576
 20
132.916927
 42
-0.054150
  0
VERTEX
  8
0
 10
84.839148
 20
132.359369
 42
-0.051402
  0
SEQEND
  0
POLYLINE
  8
0
 66
1
 70
1
  0
VERTEX
  8
0
 10
84.763836
 20
97.040021
 42
0.004304
  0
VERTEX
  8
0
 10
84.626189
 20
90.516906
 42
0.007000
  0
VERTEX
  8
0
 10
84.634555
 20
84.976842
 42
0.002066
  0
VERTEX
  8
0
 10
84.728054
 20
80.217202
 42
0.305906
  0
VERTEX
  8
0
 10
85.031417
 20
79.790021
 42
-0.272018
  0
VERTEX
  8
0
 10
85.207073
 20
79.572826
 42
-0.132866
  0
VERTEX
  8
0
 10
85.164632
 20
79.206424
 42
-0.074734
  0
VERTEX
  8
0
 10
84.883949
 20
78.725934
 42
-0.037301
  0
VERTEX
  8
0
 10
84.401478
 20
78.210573
 42
-0.339027
  0
VERTEX
  8
0
 10
83.720314
 20
78.149069
 42
-0.212022
  0
VERTEX
  8
0
 10
83.252985
 20
78.848161
 42
-0.038767
  0
VERTEX
  8
0
 10
83.042898
 20
81.078789
 42
-0.004103
  0
VERTEX
  8
0
 10
83.000000
 20
86.306949
 42
-0.009100
  0
VERTEX
  8
0
 10
83.156141
 20
94.885115
 42
-0.006980
  0
VERTEX
  8
0
 10
83.628073
 20
104.248447
 42
-0.001445
  0
VERTEX
  8
0
 10
84.251025
 20
113.503470
 42
-0.393828
  0
VERTEX
  8
0
 10
84.783640
 20
114.000000
 42
-0.413617
  0
VERTEX
  8
0
 10
84.975457
 20
113.808573
 42
-0.000801
  0
VERTEX
  8
0
 10
84.977537
 20
109.018006
 42
-0.004462
  0
VERTEX
  8
0
 10
84.922290
 20
103.543344
 42
-0.002673
  0
SEQEND
  0
ENDSEC
  0
EOF
