  0
SECTION
  2
HEADER
  9
$ACADVER
  1
AC1006
  9
$EXTMIN
 10
0.000000
 20
0.000000
 30
0.000000
  9
$EXTMAX
 10
231.000000
 20
179.000000
 30
0.000000
  0
ENDSEC
  0
SECTION
  2
ENTITIES
  0
POLYLINE
  8
0
 66
1
 70
1
  0
VERTEX
  8
0
 10
88.120853
 20
177.911845
 42
0.003476
  0
VERTEX
  8
0
 10
79.530926
 20
177.475003
 42
0.002332
  0
VERTEX
  8
0
 10
69.717223
 20
176.861552
 42
0.002348
  0
VERTEX
  8
0
 10
60.218386
 20
176.178461
 42
0.004637
  0
VERTEX
  8
0
 10
52.683470
 20
175.530679
 42
-0.000991
  0
VERTEX
  8
0
 10
46.399562
 20
174.944253
 42
-0.001407
  0
VERTEX
  8
0
 10
40.809885
 20
174.449637
 42
-0.000784
  0
VERTEX
  8
0
 10
36.084820
 20
174.052386
 42
-0.020580
  0
VERTEX
  8
0
 10
34.812617
 20
174.000000
 42
0.284307
  0
VERTEX
  8
0
 10
33.543403
 20
173.214843
 42
0.125724
  0
VERTEX
  8
0
 10
33.110268
 20
171.208966
 42
0.036702
  0
VERTEX
  8
0
 10
33.575579
 20
167.028125
 42
0.003974
  0
VERTEX
  8
0
 10
35.431556
 20
157.488727
 42
-0.007266
  0
VERTEX
  8
0
 10
37.509178
 20
146.421941
 42
-0.006821
  0
VERTEX
  8
0
 10
39.311770
 20
135.064502
 42
-0.007059
  0
VERTEX
  8
0
 10
40.732741
 20
124.165277
 42
-0.010221
  0
VERTEX
  8
0
 10
41.654526
 20
114.500000
 42
-0.015092
  0
VERTEX
  8
0
 10
42.094352
 20
104.614004
 42
-0.004683
  0
VERTEX
  8
0
 10
42.167470
 20
89.734040
 42
-0.003498
  0
VERTEX
  8
0
 10
41.998531
 20
74.976492
 42
-0.035469
  0
VERTEX
  8
0
 10
41.451368
 20
68.869079
 42
0.000000
  0
VERTEX
  8
0
 10
40.864441
 20
65.238157
 42
0.000000
  0
VERTEX
  8
0
 10
32.182220
 20
64.667912
 42
0.021390
  0
VERTEX
  8
0
 10
20.182752
 20
63.362551
 42
0.064459
  0
VERTEX
  8
0
 10
12.287193
 20
61.093243
 42
0.092209
  0
VERTEX
  8
0
 10
6.882099
 20
57.454545
 42
0.083571
  0
VERTEX
  8
0
 10
2.924852
 20
52.000000
 42
0.067010
  0
VERTEX
  8
0
 10
1.193599
 20
46.896695
 42
0.029007
  0
VERTEX
  8
0
 10
0.224551
 20
39.775050
 42
0.028953
  0
VERTEX
  8
0
 10
0.086051
 20
32.619334
 42
0.070174
  0
VERTEX
  8
0
 10
1.023201
 20
27.429702
 42
0.049776
  0
VERTEX
  8
0
 10
2.536289
 20
24.025442
 42
0.015837
  0
VERTEX
  8
0
 10
5.437226
 20
19.287383
 42
0.008462
  0
VERTEX
  8
0
 10
8.599512
 20
14.645022
 42
0.242681
  0
VERTEX
  8
0
 10
9.843805
 20
13.997654
 42
-0.147938
  0
VERTEX
  8
0
 10
10.247109
 20
13.874081
 42
-0.008288
  0
VERTEX
  8
0
 10
11.335368
 20
13.117291
 42
-0.012172
  0
VERTEX
  8
0
 10
12.611425
 20
12.150126
 42
-0.008575
  0
VERTEX
  8
0
 10
14.000000
 20
11.003970
 42
0.107203
  0
VERTEX
  8
0
 10
25.595213
 20
4.765371
 42
0.043573
  0
VERTEX
  8
0
 10
43.282312
 20
1.310061
 42
0.040561
  0
VERTEX
  8
0
 10
63.618742
 20
0.806447
 42
0.041210
  0
VERTEX
  8
0
 10
83.659174
 20
3.603838
 42
-0.000648
  0
VERTEX
  8
0
 10
86.586783
 20
4.257795
 42
-0.000526
  0
VERTEX
  8
0
 10
89.727466
 20
4.951608
 42
-0.000531
  0
VERTEX
  8
0
 10
92.623861
 20
5.585036
 42
-0.001381
  0
VERTEX
  8
0
 10
94.710922
 20
6.033108
 42
0.009230
  0
VERTEX
  8
0
 10
102.443612
 20
7.820654
 42
0.007701
  0
VERTEX
  8
0
 10
110.589026
 20
9.996566
 42
0.007552
  0
VERTEX
  8
0
 10
117.881772
 20
12.185085
 42
0.026074
  0
VERTEX
  8
0
 10
122.500000
 20
13.916993
 42
-0.025952
  0
VERTEX
  8
0
 10
130.060152
 20
16.754284
 42
-0.058441
  0
VERTEX
  8
0
 10
136.062652
 20
17.911101
 42
-0.040663
  0
VERTEX
  8
0
 10
143.388702
 20
17.855109
 42
-0.007468
  0
VERTEX
  8
0
 10
156.855170
 20
16.451442
 42
0.026866
  0
VERTEX
  8
0
 10
174.944892
 20
15.272575
 42
0.033096
  0
VERTEX
  8
0
 10
191.824740
 20
16.198689
 42
0.036966
  0
VERTEX
  8
0
 10
206.195025
 20
19.035109
 42
0.078417
  0
VERTEX
  8
0
 10
216.500000
 20
23.702546
 42
0.076012
  0
VERTEX
  8
0
 10
224.828278
 20
31.208853
 42
0.093039
  0
VERTEX
  8
0
 10
229.844474
 20
40.391246
 42
0.100742
  0
VERTEX
  8
0
 10
230.960780
 20
50.172467
 42
0.105550
  0
VERTEX
  8
0
 10
228.121169
 20
59.434333
 42
0.060854
  0
VERTEX
  8
0
 10
224.738822
 20
64.079431
 42
0.106856
  0
VERTEX
  8
0
 10
220.851995
 20
66.778469
 42
0.077712
  0
VERTEX
  8
0
 10
215.337780
 20
68.121725
 42
0.020961
  0
VERTEX
  8
0
 10
206.318520
 20
68.500000
 42
-0.003057
  0
VERTEX
  8
0
 10
198.954511
 20
68.545023
 42
-0.049287
  0
VERTEX
  8
0
 10
196.488784
 20
68.819155
 42
-0.167697
  0
VERTEX
  8
0
 10
195.270354
 20
69.552035
 42
-0.116543
  0
VERTEX
  8
0
 10
194.544039
 20
71.000000
 42
-0.045685
  0
VERTEX
  8
0
 10
194.287696
 20
72.798355
 42
-0.001542
  0
VERTEX
  8
0
 10
193.949307
 20
79.962500
 42
-0.002902
  0
VERTEX
  8
0
 10
193.624677
 20
88.431573
 42
-0.002017
  0
VERTEX
  8
0
 10
193.352147
 20
98.000000
 42
-0.008895
  0
VERTEX
  8
0
 10
193.233493
 20
115.839942
 42
-0.013645
  0
VERTEX
  8
0
 10
193.827142
 20
131.281772
 42
-0.013939
  0
VERTEX
  8
0
 10
195.248391
 20
146.423543
 42
-0.009869
  0
VERTEX
  8
0
 10
197.651136
 20
163.326784
 42
0.007496
  0
VERTEX
  8
0
 10
198.299049
 20
167.734640
 42
0.019072
  0
VERTEX
  8
0
 10
198.598644
 20
170.953256
 42
0.020581
  0
VERTEX
  8
0
 10
198.629823
 20
173.259544
 42
0.191739
  0
VERTEX
  8
0
 10
198.243826
 20
174.156174
 42
0.151671
  0
VERTEX
  8
0
 10
197.419041
 20
174.590137
 42
0.006716
  0
VERTEX
  8
0
 10
194.195620
 20
175.143028
 42
0.010821
  0
VERTEX
  8
0
 10
190.299957
 20
175.671353
 42
0.007472
  0
VERTEX
  8
0
 10
185.870611
 20
176.107765
 42
-0.000353
  0
VERTEX
  8
0
 10
180.824977
 20
176.532459
 42
-0.000236
  0
VERTEX
  8
0
 10
175.049492
 20
177.025436
 42
-0.000237
  0
VERTEX
  8
0
 10
169.451187
 20
177.508628
 42
-0.000467
  0
VERTEX
  8
0
 10
165.000000
 20
177.899131
 42
0.018105
  0
VERTEX
  8
0
 10
152.591017
 20
178.547886
 42
0.003965
  0
VERTEX
  8
0
 10
131.213739
 20
178.720962
 42
0.004356
  0
VERTEX
  8
0
 10
108.136532
 20
178.523704
 42
0.006650
  0
SEQEND
  0
POLYLINE
  8
0
 66
1
 70
1
  0
VERTEX
  8
0
 10
120.146371
 20
172.250000
 42
-0.015404
  0
VERTEX
  8
0
 10
120.381584
 20
167.785796
 42
-0.012413
  0
VERTEX
  8
0
 10
120.367211
 20
162.981060
 42
-0.004540
  0
VERTEX
  8
0
 10
120.199441
 20
158.436072
 42
-0.399133
  0
VERTEX
  8
0
 10
119.750000
 20
158.004340
 42
0.235783
  0
VERTEX
  8
0
 10
119.462455
 20
157.858676
 42
0.070299
  0
VERTEX
  8
0
 10
119.220313
 20
157.413775
 42
0.053907
  0
VERTEX
  8
0
 10
119.054745
 20
156.766301
 42
0.035675
  0
VERTEX
  8
0
 10
119.000000
 20
156.000000
 42
0.035677
  0
VERTEX
  8
0
 10
119.054742
 20
155.233781
 42
0.053952
  0
VERTEX
  8
0
 10
119.220313
 20
154.586564
 42
0.070410
  0
VERTEX
  8
0
 10
119.462462
 20
154.142083
 42
0.236023
  0
VERTEX
  8
0
 10
119.750000
 20
153.996814
 42
-0.337718
  0
VERTEX
  8
0
 10
120.045468
 20
153.769562
 42
-0.023233
  0
VERTEX
  8
0
 10
120.287465
 20
152.673625
 42
-0.025574
  0
VERTEX
  8
0
 10
120.462240
 20
151.220883
 42
-0.015678
  0
VERTEX
  8
0
 10
120.526477
 20
149.496814
 42
-0.016239
  0
VERTEX
  8
0
 10
120.480636
 20
147.772964
 42
-0.026557
  0
VERTEX
  8
0
 10
120.317087
 20
146.320939
 42
-0.024859
  0
VERTEX
  8
0
 10
120.079242
 20
145.231628
 42
-0.338652
  0
VERTEX
  8
0
 10
119.776477
 20
145.000000
 42
0.346433
  0
VERTEX
  8
0
 10
119.121949
 20
144.484650
 42
0.086119
  0
VERTEX
  8
0
 10
119.027099
 20
143.027670
 42
0.072467
  0
VERTEX
  8
0
 10
119.437824
 20
141.429053
 42
0.186623
  0
VERTEX
  8
0
 10
120.250000
 20
140.583333
 42
-0.029131
  0
VERTEX
  8
0
 10
120.857470
 20
140.255505
 42
-0.260055
  0
VERTEX
  8
0
 10
121.000000
 20
140.000000
 42
-0.260055
  0
VERTEX
  8
0
 10
120.857470
 20
139.744495
 42
-0.029131
  0
VERTEX
  8
0
 10
120.250000
 20
139.416667
 42
0.186732
  0
VERTEX
  8
0
 10
119.443118
 20
138.576106
 42
0.070881
  0
VERTEX
  8
0
 10
119.027165
 20
136.975323
 42
0.084000
  0
VERTEX
  8
0
 10
119.107543
 20
135.512964
 42
0.349980
  0
VERTEX
  8
0
 10
119.750000
 20
134.998759
 42
-0.406332
  0
VERTEX
  8
0
 10
120.462166
 20
134.303257
 42
-0.006694
  0
VERTEX
  8
0
 10
120.534791
 20
128.221757
 42
-0.007797
  0
VERTEX
  8
0
 10
120.431896
 20
122.183866
 42
-0.237724
  0
VERTEX
  8
0
 10
119.729596
 20
120.896530
 42
0.222993
  0
VERTEX
  8
0
 10
119.429833
 20
120.381848
 42
0.024846
  0
VERTEX
  8
0
 10
119.375594
 20
118.988438
 42
0.025816
  0
VERTEX
  8
0
 10
119.487058
 20
117.204373
 42
0.016446
  0
VERTEX
  8
0
 10
119.791559
 20
115.146530
 42
-0.010849
  0
VERTEX
  8
0
 10
120.106230
 20
113.172764
 42
-0.018492
  0
VERTEX
  8
0
 10
120.271982
 20
111.511071
 42
-0.013258
  0
VERTEX
  8
0
 10
120.318900
 20
110.205733
 42
-0.415799
  0
VERTEX
  8
0
 10
120.113485
 20
109.997543
 42
0.405984
  0
VERTEX
  8
0
 10
119.862624
 20
109.751691
 42
0.000486
  0
VERTEX
  8
0
 10
119.680211
 20
101.891598
 42
0.003474
  0
VERTEX
  8
0
 10
119.544087
 20
92.985356
 42
0.002084
  0
VERTEX
  8
0
 10
119.500000
 20
82.406288
 42
-0.002434
  0
VERTEX
  8
0
 10
119.415611
 20
65.073745
 42
-0.015873
  0
VERTEX
  8
0
 10
119.054315
 20
56.368648
 42
-0.563423
  0
VERTEX
  8
0
 10
118.380069
 20
56.024972
 42
-0.222754
  0
VERTEX
  8
0
 10
117.647294
 20
57.149167
 42
-0.029711
  0
VERTEX
  8
0
 10
117.111512
 20
63.840655
 42
-0.004463
  0
VERTEX
  8
0
 10
116.955626
 20
77.315440
 42
-0.003373
  0
VERTEX
  8
0
 10
117.011845
 20
91.014793
 42
-0.050712
  0
VERTEX
  8
0
 10
117.545309
 20
95.750000
 42
0.021709
  0
VERTEX
  8
0
 10
117.791774
 20
97.184847
 42
0.063915
  0
VERTEX
  8
0
 10
117.790818
 20
98.184376
 42
0.122583
  0
VERTEX
  8
0
 10
117.559939
 20
98.775143
 42
0.243203
  0
VERTEX
  8
0
 10
117.125000
 20
99.000000
 42
-0.273438
  0
VERTEX
  8
0
 10
116.678632
 20
99.263835
 42
-0.057306
  0
VERTEX
  8
0
 10
116.320312
 20
100.138889
 42
-0.043797
  0
VERTEX
  8
0
 10
116.078325
 20
101.420419
 42
-0.024778
  0
VERTEX
  8
0
 10
116.000000
 20
103.000000
 42
-0.023598
  0
VERTEX
  8
0
 10
116.072390
 20
104.532944
 42
-0.037669
  0
VERTEX
  8
0
 10
116.293750
 20
105.825000
 42
-0.043820
  0
VERTEX
  8
0
 10
116.612873
 20
106.748945
 42
-0.295869
  0
VERTEX
  8
0
 10
117.000000
 20
107.000000
 42
0.313026
  0
VERTEX
  8
0
 10
117.745078
 20
107.517129
 42
0.098151
  0
VERTEX
  8
0
 10
117.975768
 20
108.931659
 42
0.086211
  0
VERTEX
  8
0
 10
117.656790
 20
110.458071
 42
0.221269
  0
VERTEX
  8
0
 10
116.856602
 20
111.214466
 42
-0.129867
  0
VERTEX
  8
0
 10
116.389096
 20
111.520787
 42
-0.185192
  0
VERTEX
  8
0
 10
116.213204
 20
111.979395
 42
-0.099357
  0
VERTEX
  8
0
 10
116.351868
 20
112.670319
 42
-0.023822
  0
VERTEX
  8
0
 10
116.856602
 20
113.732058
 42
0.089982
  0
VERTEX
  8
0
 10
117.731632
 20
116.445815
 42
0.035405
  0
VERTEX
  8
0
 10
117.974563
 20
120.380854
 42
0.030565
  0
VERTEX
  8
0
 10
117.712642
 20
124.103995
 42
0.256094
  0
VERTEX
  8
0
 10
116.750000
 20
125.416667
 42
-0.029131
  0
VERTEX
  8
0
 10
116.142530
 20
125.744495
 42
-0.260055
  0
VERTEX
  8
0
 10
116.000000
 20
126.000000
 42
-0.260055
  0
VERTEX
  8
0
 10
116.142530
 20
126.255505
 42
-0.029131
  0
VERTEX
  8
0
 10
116.750000
 20
126.583333
 42
0.107454
  0
VERTEX
  8
0
 10
117.228455
 20
126.947597
 42
0.060661
  0
VERTEX
  8
0
 10
117.632812
 20
127.558333
 42
0.056352
  0
VERTEX
  8
0
 10
117.906984
 20
128.306958
 42
0.059690
  0
VERTEX
  8
0
 10
118.000000
 20
129.083333
 42
0.062898
  0
VERTEX
  8
0
 10
117.906707
 20
129.822022
 42
0.077234
  0
VERTEX
  8
0
 10
117.632812
 20
130.460170
 42
0.091648
  0
VERTEX
  8
0
 10
117.227037
 20
130.902456
 42
0.146680
  0
VERTEX
  8
0
 10
116.750000
 20
131.078947
 42
-0.011437
  0
VERTEX
  8
0
 10
116.096611
 20
131.135242
 42
-0.382689
  0
VERTEX
  8
0
 10
116.000000
 20
131.242982
 42
-0.295955
  0
VERTEX
  8
0
 10
116.090194
 20
131.382013
 42
-0.009076
  0
VERTEX
  8
0
 10
116.750000
 20
131.662281
 42
0.172505
  0
VERTEX
  8
0
 10
117.231263
 20
132.088808
 42
0.048881
  0
VERTEX
  8
0
 10
117.632812
 20
133.022149
 42
0.043052
  0
VERTEX
  8
0
 10
117.908066
 20
134.238446
 42
0.034139
  0
VERTEX
  8
0
 10
118.000000
 20
135.583333
 42
0.026205
  0
VERTEX
  8
0
 10
117.913236
 20
137.237685
 42
0.089021
  0
VERTEX
  8
0
 10
117.613463
 20
138.270955
 42
0.143883
  0
VERTEX
  8
0
 10
117.069244
 20
138.860139
 42
0.118818
  0
VERTEX
  8
0
 10
116.250000
 20
139.116001
 42
-0.002113
  0
VERTEX
  8
0
 10
115.076061
 20
139.198801
 42
-0.392517
  0
VERTEX
  8
0
 10
115.000000
 20
139.280763
 42
-0.339035
  0
VERTEX
  8
0
 10
115.073823
 20
139.377121
 42
-0.001923
  0
VERTEX
  8
0
 10
116.250000
 20
139.689326
 42
0.122222
  0
VERTEX
  8
0
 10
117.066208
 20
140.134003
 42
0.112701
  0
VERTEX
  8
0
 10
117.609466
 20
140.920877
 42
0.071706
  0
VERTEX
  8
0
 10
117.911061
 20
142.171537
 42
0.023370
  0
VERTEX
  8
0
 10
118.000000
 20
144.073324
 42
0.020232
  0
VERTEX
  8
0
 10
117.920439
 20
146.038693
 42
0.082086
  0
VERTEX
  8
0
 10
117.631197
 20
147.196921
 42
0.147961
  0
VERTEX
  8
0
 10
117.089076
 20
147.837531
 42
0.127814
  0
VERTEX
  8
0
 10
116.250000
 20
148.116001
 42
-0.003397
  0
VERTEX
  8
0
 10
115.163423
 20
148.195445
 42
-0.436930
  0
VERTEX
  8
0
 10
115.088297
 20
148.290828
 42
-0.296014
  0
VERTEX
  8
0
 10
115.189370
 20
148.403247
 42
-0.002639
  0
VERTEX
  8
0
 10
116.343431
 20
148.707319
 42
0.109931
  0
VERTEX
  8
0
 10
117.266847
 20
149.177927
 42
0.158739
  0
VERTEX
  8
0
 10
117.754256
 20
149.945710
 42
0.077983
  0
VERTEX
  8
0
 10
117.881426
 20
151.278452
 42
0.013097
  0
VERTEX
  8
0
 10
117.658639
 20
153.841317
 42
-0.002346
  0
VERTEX
  8
0
 10
116.653577
 20
163.093095
 42
-0.015403
  0
VERTEX
  8
0
 10
116.314707
 20
167.745219
 42
-0.024812
  0
VERTEX
  8
0
 10
116.335394
 20
170.429934
 42
-0.397523
  0
VERTEX
  8
0
 10
116.939109
 20
171.000000
 42
0.140100
  0
VERTEX
  8
0
 10
117.343668
 20
171.115626
 42
0.099941
  0
VERTEX
  8
0
 10
117.688363
 20
171.440625
 42
0.085212
  0
VERTEX
  8
0
 10
117.920507
 20
171.926687
 42
0.068998
  0
VERTEX
  8
0
 10
118.000000
 20
172.500000
 42
-0.128528
  0
VERTEX
  8
0
 10
118.286865
 20
173.597528
 42
-0.302621
  0
VERTEX
  8
0
 10
119.006382
 20
173.964619
 42
-0.240351
  0
VERTEX
  8
0
 10
119.778543
 20
173.450173
 42
-0.107382
  0
SEQEND
  0
POLYLINE
  8
0
 66
1
 70
1
  0
VERTEX
  8
0
 10
104.063358
 20
167.000000
 42
-0.236828
  0
VERTEX
  8
0
 10
104.422433
 20
166.819816
 42
-0.070655
  0
VERTEX
  8
0
 10
104.724862
 20
166.265625
 42
-0.054035
  0
VERTEX
  8
0
 10
104.931645
 20
165.457495
 42
-0.035650
  0
VERTEX
  8
0
 10
105.000000
 20
164.500000
 42
-0.038131
  0
VERTEX
  8
0
 10
104.926884
 20
163.542644
 42
-0.057076
  0
VERTEX
  8
0
 10
104.706250
 20
162.734375
 42
-0.074992
  0
VERTEX
  8
0
 10
104.382936
 20
162.182831
 42
-0.226478
  0
VERTEX
  8
0
 10
104.000000
 20
162.000000
 42
0.191087
  0
VERTEX
  8
0
 10
103.618118
 20
161.848523
 42
0.088204
  0
VERTEX
  8
0
 10
103.293750
 20
161.412500
 42
0.068025
  0
VERTEX
  8
0
 10
103.073693
 20
160.765418
 42
0.048028
  0
VERTEX
  8
0
 10
103.000000
 20
160.000000
 42
0.048028
  0
VERTEX
  8
0
 10
103.073693
 20
159.234582
 42
0.068025
  0
VERTEX
  8
0
 10
103.293750
 20
158.587500
 42
0.088204
  0
VERTEX
  8
0
 10
103.618118
 20
158.151477
 42
0.191087
  0
VERTEX
  8
0
 10
104.000000
 20
158.000000
 42
-0.380019
  0
VERTEX
  8
0
 10
104.860593
 20
157.235513
 42
-0.040547
  0
VERTEX
  8
0
 10
104.968339
 20
154.332075
 42
-0.041253
  0
VERTEX
  8
0
 10
104.574253
 20
151.231321
 42
-0.145137
  0
VERTEX
  8
0
 10
103.625363
 20
149.482506
 42
-0.279402
  0
VERTEX
  8
0
 10
102.929939
 20
149.311963
 42
-0.255780
  0
VERTEX
  8
0
 10
102.414445
 20
149.848334
 42
-0.046856
  0
VERTEX
  8
0
 10
102.083985
 20
151.760978
 42
-0.004905
  0
VERTEX
  8
0
 10
101.776303
 20
156.303258
 42
-0.015932
  0
VERTEX
  8
0
 10
101.610380
 20
162.692365
 42
-0.016902
  0
VERTEX
  8
0
 10
101.859081
 20
168.953788
 42
-0.124747
  0
VERTEX
  8
0
 10
102.329001
 20
170.363726
 42
-0.711068
  0
VERTEX
  8
0
 10
102.803244
 20
170.250000
 42
0.026923
  0
VERTEX
  8
0
 10
102.995287
 20
169.004928
 42
0.040776
  0
VERTEX
  8
0
 10
103.306835
 20
167.954688
 42
0.048033
  0
VERTEX
  8
0
 10
103.680581
 20
167.211337
 42
0.257722
  0
SEQEND
  0
POLYLINE
  8
0
 66
1
 70
1
  0
VERTEX
  8
0
 10
105.000000
 20
145.000000
 42
-0.099038
  0
VERTEX
  8
0
 10
104.923658
 20
144.618362
 42
-0.097945
  0
VERTEX
  8
0
 10
104.706250
 20
144.293750
 42
-0.097945
  0
VERTEX
  8
0
 10
104.381638
 20
144.076342
 42
-0.099038
  0
VERTEX
  8
0
 10
104.000000
 20
144.000000
 42
0.374973
  0
VERTEX
  8
0
 10
103.164166
 20
143.270614
 42
0.042401
  0
VERTEX
  8
0
 10
103.025158
 20
140.550331
 42
0.040932
  0
VERTEX
  8
0
 10
103.352912
 20
137.725596
 42
0.238588
  0
VERTEX
  8
0
 10
104.250000
 20
136.583333
 42
-0.029131
  0
VERTEX
  8
0
 10
104.857470
 20
136.255505
 42
-0.260055
  0
VERTEX
  8
0
 10
105.000000
 20
136.000000
 42
-0.260055
  0
VERTEX
  8
0
 10
104.857470
 20
135.744495
 42
-0.029131
  0
VERTEX
  8
0
 10
104.250000
 20
135.416667
 42
0.247784
  0
VERTEX
  8
0
 10
103.339518
 20
134.214965
 42
0.033239
  0
VERTEX
  8
0
 10
103.024606
 20
130.949783
 42
0.033565
  0
VERTEX
  8
0
 10
103.143573
 20
127.771287
 42
0.383922
  0
VERTEX
  8
0
 10
104.000000
 20
127.000000
 42
-0.148195
  0
VERTEX
  8
0
 10
104.381354
 20
126.884432
 42
-0.098894
  0
VERTEX
  8
0
 10
104.706250
 20
126.559375
 42
-0.082425
  0
VERTEX
  8
0
 10
104.925306
 20
126.073457
 42
-0.064853
  0
VERTEX
  8
0
 10
105.000000
 20
125.500000
 42
-0.064853
  0
VERTEX
  8
0
 10
104.925306
 20
124.926543
 42
-0.082425
  0
VERTEX
  8
0
 10
104.706250
 20
124.440625
 42
-0.098894
  0
VERTEX
  8
0
 10
104.381354
 20
124.115568
 42
-0.148195
  0
VERTEX
  8
0
 10
104.000000
 20
124.000000
 42
0.316797
  0
VERTEX
  8
0
 10
103.230369
 20
123.457969
 42
0.101555
  0
VERTEX
  8
0
 10
103.022468
 20
121.995411
 42
0.094167
  0
VERTEX
  8
0
 10
103.403041
 20
120.498685
 42
0.274323
  0
VERTEX
  8
0
 10
104.250000
 20
119.921053
 42
-0.011437
  0
VERTEX
  8
0
 10
104.903389
 20
119.864758
 42
-0.382689
  0
VERTEX
  8
0
 10
105.000000
 20
119.757018
 42
-0.295955
  0
VERTEX
  8
0
 10
104.909806
 20
119.617987
 42
-0.009076
  0
VERTEX
  8
0
 10
104.250000
 20
119.337719
 42
0.301710
  0
VERTEX
  8
0
 10
103.010935
 20
117.531311
 42
0.003792
  0
VERTEX
  8
0
 10
102.899961
 20
102.899643
 42
0.003559
  0
VERTEX
  8
0
 10
103.004384
 20
88.229038
 42
0.391747
  0
VERTEX
  8
0
 10
104.250000
 20
86.921053
 42
-0.014233
  0
VERTEX
  8
0
 10
104.856896
 20
86.865343
 42
-0.355654
  0
VERTEX
  8
0
 10
104.965425
 20
86.752833
 42
-0.314278
  0
VERTEX
  8
0
 10
104.881760
 20
86.608396
 42
-0.012711
  0
VERTEX
  8
0
 10
104.297764
 20
86.353641
 42
0.279651
  0
VERTEX
  8
0
 10
103.700385
 20
85.550465
 42
0.014719
  0
VERTEX
  8
0
 10
103.484552
 20
82.218995
 42
0.013894
  0
VERTEX
  8
0
 10
103.446481
 20
77.125061
 42
0.003342
  0
VERTEX
  8
0
 10
103.674444
 20
68.682588
 42
-0.002967
  0
VERTEX
  8
0
 10
103.907292
 20
60.292147
 42
-0.014191
  0
VERTEX
  8
0
 10
103.875820
 20
55.502353
 42
-0.023123
  0
VERTEX
  8
0
 10
103.652790
 20
52.761318
 42
-0.611063
  0
VERTEX
  8
0
 10
103.110917
 20
52.565762
 42
-0.206164
  0
VERTEX
  8
0
 10
102.207429
 20
54.624890
 42
-0.000294
  0
VERTEX
  8
0
 10
101.937649
 20
97.722519
 42
-0.000581
  0
VERTEX
  8
0
 10
101.747894
 20
139.785616
 42
-0.092704
  0
VERTEX
  8
0
 10
102.590150
 20
144.374332
 42
-0.084230
  0
VERTEX
  8
0
 10
103.214376
 20
145.428876
 42
-0.154779
  0
VERTEX
  8
0
 10
104.051034
 20
145.954749
 42
-0.279757
  0
VERTEX
  8
0
 10
104.709024
 20
145.757288
 42
-0.185506
  0
SEQEND
  0
ENDSEC
  0
EOF
