  0
SECTION
  2
HEADER
  9
$ACADVER
  1
AC1006
  9
$EXTMIN
 10
0.000000
 20
0.000000
 30
0.000000
  9
$EXTMAX
 10
194.000000
 20
331.000000
 30
0.000000
  0
ENDSEC
  0
SECTION
  2
ENTITIES
  0
POLYLINE
  8
0
 66
1
 70
1
  0
VERTEX
  8
0
 10
0.666825
 20
330.250000
 42
0.140541
  0
VERTEX
  8
0
 10
0.189295
 20
328.471755
 42
0.000009
  0
VERTEX
  8
0
 10
2.952728
 20
165.177930
 42
0.000007
  0
VERTEX
  8
0
 10
5.725204
 20
1.660238
 42
0.194506
  0
VERTEX
  8
0
 10
6.254711
 20
0.411955
 42
0.220231
  0
VERTEX
  8
0
 10
7.850003
 20
-0.173731
 42
0.001503
  0
VERTEX
  8
0
 10
22.784367
 20
1.094098
 42
0.006365
  0
VERTEX
  8
0
 10
37.075756
 20
2.534177
 42
0.013811
  0
VERTEX
  8
0
 10
48.000000
 20
4.082303
 42
0.048126
  0
VERTEX
  8
0
 10
89.969748
 20
15.453069
 42
0.060055
  0
VERTEX
  8
0
 10
125.750417
 20
34.113618
 42
0.063427
  0
VERTEX
  8
0
 10
154.547099
 20
59.748169
 42
0.063939
  0
VERTEX
  8
0
 10
175.907870
 20
91.717521
 42
0.026327
  0
VERTEX
  8
0
 10
182.387390
 20
106.679058
 42
0.025504
  0
VERTEX
  8
0
 10
187.336499
 20
122.396350
 42
0.024171
  0
VERTEX
  8
0
 10
190.868681
 20
139.322946
 42
0.019040
  0
VERTEX
  8
0
 10
193.097975
 20
157.917979
 42
0.039120
  0
VERTEX
  8
0
 10
193.165871
 20
180.237463
 42
0.038220
  0
VERTEX
  8
0
 10
189.769636
 20
202.473868
 42
0.038768
  0
VERTEX
  8
0
 10
183.101328
 20
223.620861
 42
0.043169
  0
VERTEX
  8
0
 10
173.429374
 20
242.697148
 42
0.004476
  0
VERTEX
  8
0
 10
169.664036
 20
248.643604
 42
0.037557
  0
VERTEX
  8
0
 10
167.745632
 20
251.174964
 42
0.065018
  0
VERTEX
  8
0
 10
165.876054
 20
252.805984
 42
0.027570
  0
VERTEX
  8
0
 10
163.004242
 20
254.497806
 42
0.047693
  0
VERTEX
  8
0
 10
160.825626
 20
255.372866
 42
0.049714
  0
VERTEX
  8
0
 10
158.550833
 20
255.803927
 42
0.032108
  0
VERTEX
  8
0
 10
155.508305
 20
255.876150
 42
0.008066
  0
VERTEX
  8
0
 10
150.553139
 20
255.595430
 42
-0.002027
  0
VERTEX
  8
0
 10
133.617223
 20
254.430634
 42
-0.014946
  0
VERTEX
  8
0
 10
125.519759
 20
254.149337
 42
-0.032089
  0
VERTEX
  8
0
 10
120.486414
 20
254.448264
 42
-0.060407
  0
VERTEX
  8
0
 10
116.541609
 20
255.430959
 42
-0.086295
  0
VERTEX
  8
0
 10
112.563464
 20
257.799239
 42
-0.067883
  0
VERTEX
  8
0
 10
109.227614
 20
261.556168
 42
-0.051308
  0
VERTEX
  8
0
 10
106.315232
 20
267.042525
 42
-0.023115
  0
VERTEX
  8
0
 10
103.599495
 20
274.737743
 42
0.001684
  0
VERTEX
  8
0
 10
97.513384
 20
294.665365
 42
0.019779
  0
VERTEX
  8
0
 10
94.812841
 20
302.315912
 42
0.050097
  0
VERTEX
  8
0
 10
92.441273
 20
306.882450
 42
0.048648
  0
VERTEX
  8
0
 10
89.188515
 20
310.935204
 42
0.025341
  0
VERTEX
  8
0
 10
86.286768
 20
313.619982
 42
0.047150
  0
VERTEX
  8
0
 10
83.646947
 20
315.432497
 42
0.037503
  0
VERTEX
  8
0
 10
80.332585
 20
316.962491
 42
0.010807
  0
VERTEX
  8
0
 10
75.000000
 20
318.824238
 42
0.013286
  0
VERTEX
  8
0
 10
61.133388
 20
322.927689
 42
0.015819
  0
VERTEX
  8
0
 10
47.848549
 20
326.031321
 42
0.015641
  0
VERTEX
  8
0
 10
34.265995
 20
328.315228
 42
0.012470
  0
VERTEX
  8
0
 10
19.500000
 20
329.951652
 42
0.002831
  0
VERTEX
  8
0
 10
10.121396
 20
330.701394
 42
0.014568
  0
VERTEX
  8
0
 10
4.913538
 20
330.935776
 42
0.019393
  0
VERTEX
  8
0
 10
1.674368
 20
330.861451
 42
0.246697
  0
SEQEND
  0
ENDSEC
  0
EOF
