  0
SECTION
  2
HEADER
  9
$ACADVER
  1
AC1006
  9
$EXTMIN
 10
0.000000
 20
0.000000
 30
0.000000
  9
$EXTMAX
 10
194.000000
 20
331.000000
 30
0.000000
  0
ENDSEC
  0
SECTION
  2
ENTITIES
  0
POLYLINE
  8
0
 66
1
 70
1
  0
VERTEX
  8
0
 10
0.666825
 20
330.250000
 42
0.140541
  0
VERTEX
  8
0
 10
0.189295
 20
328.471755
 42
0.000009
  0
VERTEX
  8
0
 10
2.952728
 20
165.177930
 42
0.000007
  0
VERTEX
  8
0
 10
5.725204
 20
1.660238
 42
0.194506
  0
VERTEX
  8
0
 10
6.254711
 20
0.411955
 42
0.220231
  0
VERTEX
  8
0
 10
7.850003
 20
-0.173731
 42
0.001503
  0
VERTEX
  8
0
 10
22.784367
 20
1.094098
 42
0.006365
  0
VERTEX
  8
0
 10
37.075756
 20
2.534177
 42
0.013811
  0
VERTEX
  8
0
 10
48.000000
 20
4.082303
 42
0.034099
  0
VERTEX
  8
0
 10
78.773545
 20
11.501318
 42
0.040502
  0
VERTEX
  8
0
 10
106.458985
 20
22.742689
 42
0.042570
  0
VERTEX
  8
0
 10
130.776696
 20
37.710607
 42
0.046065
  0
VERTEX
  8
0
 10
151.519400
 20
56.232641
 42
0.010292
  0
VERTEX
  8
0
 10
158.348798
 20
63.875541
 42
0.054548
  0
VERTEX
  8
0
 10
161.511361
 20
68.501475
 42
0.083142
  0
VERTEX
  8
0
 10
162.947425
 20
72.766499
 42
0.043055
  0
VERTEX
  8
0
 10
163.357715
 20
78.390560
 42
0.023024
  0
VERTEX
  8
0
 10
163.144907
 20
81.976625
 42
0.008005
  0
VERTEX
  8
0
 10
162.518167
 20
87.117179
 42
0.007932
  0
VERTEX
  8
0
 10
161.646312
 20
92.763764
 42
0.009156
  0
VERTEX
  8
0
 10
160.631811
 20
98.114730
 42
-0.022251
  0
VERTEX
  8
0
 10
158.081347
 20
113.800605
 42
-0.107148
  0
VERTEX
  8
0
 10
158.950250
 20
122.749839
 42
-0.102181
  0
VERTEX
  8
0
 10
163.464128
 20
130.745767
 42
-0.019319
  0
VERTEX
  8
0
 10
175.023154
 20
143.000000
 42
0.009272
  0
VERTEX
  8
0
 10
186.082322
 20
154.262215
 42
0.061035
  0
VERTEX
  8
0
 10
190.766923
 20
160.609095
 42
0.094362
  0
VERTEX
  8
0
 10
192.820309
 20
166.688063
 42
0.037667
  0
VERTEX
  8
0
 10
193.369896
 20
175.500000
 42
0.038123
  0
VERTEX
  8
0
 10
191.817579
 20
192.852906
 42
0.034329
  0
VERTEX
  8
0
 10
187.632533
 20
210.405518
 42
0.032714
  0
VERTEX
  8
0
 10
180.837305
 20
228.024683
 42
0.028028
  0
VERTEX
  8
0
 10
171.486163
 20
245.575740
 42
0.013024
  0
VERTEX
  8
0
 10
166.800861
 20
252.859351
 42
0.019172
  0
VERTEX
  8
0
 10
162.282368
 20
258.978945
 42
0.017210
  0
VERTEX
  8
0
 10
156.954652
 20
265.192834
 42
0.008117
  0
VERTEX
  8
0
 10
149.677548
 20
272.858258
 42
0.037330
  0
VERTEX
  8
0
 10
130.343260
 20
289.833630
 42
0.035068
  0
VERTEX
  8
0
 10
108.306442
 20
304.139263
 42
0.034155
  0
VERTEX
  8
0
 10
83.900330
 20
315.551810
 42
0.031479
  0
VERTEX
  8
0
 10
57.500000
 20
323.897536
 42
0.020916
  0
VERTEX
  8
0
 10
41.744123
 20
327.114672
 42
0.012071
  0
VERTEX
  8
0
 10
22.564662
 20
329.728573
 42
0.004453
  0
VERTEX
  8
0
 10
3.510349
 20
331.686714
 42
0.288284
  0
SEQEND
  0
ENDSEC
  0
EOF
