  0
SECTION
  2
HEADER
  9
$ACADVER
  1
AC1006
  9
$EXTMIN
 10
0.000000
 20
0.000000
 30
0.000000
  9
$EXTMAX
 10
464.000000
 20
384.000000
 30
0.000000
  0
ENDSEC
  0
SECTION
  2
ENTITIES
  0
POLYLINE
  8
0
 66
1
 70
1
  0
VERTEX
  8
0
 10
72.830856
 20
382.976845
 42
0.042611
  0
VERTEX
  8
0
 10
58.014970
 20
379.156689
 42
0.054454
  0
VERTEX
  8
0
 10
45.307155
 20
373.075727
 42
0.056588
  0
VERTEX
  8
0
 10
34.591524
 20
364.618026
 42
0.051924
  0
VERTEX
  8
0
 10
25.692086
 20
353.742774
 42
0.056012
  0
VERTEX
  8
0
 10
10.059800
 20
322.979934
 42
0.056222
  0
VERTEX
  8
0
 10
1.669869
 20
289.553441
 42
0.056494
  0
VERTEX
  8
0
 10
0.958894
 20
255.248543
 42
0.057622
  0
VERTEX
  8
0
 10
7.972842
 20
221.893705
 42
0.032794
  0
VERTEX
  8
0
 10
13.935697
 20
207.302289
 42
0.034095
  0
VERTEX
  8
0
 10
21.689190
 20
193.812954
 42
0.030161
  0
VERTEX
  8
0
 10
32.057369
 20
180.178286
 42
0.017579
  0
VERTEX
  8
0
 10
46.000000
 20
165.079205
 42
0.008302
  0
VERTEX
  8
0
 10
65.626034
 20
145.917066
 42
0.011066
  0
VERTEX
  8
0
 10
84.114581
 20
129.214066
 42
0.008376
  0
VERTEX
  8
0
 10
106.895512
 20
110.188141
 42
0.002625
  0
VERTEX
  8
0
 10
141.639860
 20
82.445204
 42
-0.002679
  0
VERTEX
  8
0
 10
168.908159
 20
60.667008
 42
-0.007751
  0
VERTEX
  8
0
 10
187.467927
 20
45.199073
 42
-0.010016
  0
VERTEX
  8
0
 10
202.689679
 20
31.568164
 42
-0.008033
  0
VERTEX
  8
0
 10
218.535315
 20
16.313049
 42
0.000000
  0
VERTEX
  8
0
 10
234.570630
 20
0.371103
 42
0.000000
  0
VERTEX
  8
0
 10
243.535315
 20
7.209728
 42
-0.011345
  0
VERTEX
  8
0
 10
252.758094
 20
13.919779
 42
-0.003456
  0
VERTEX
  8
0
 10
267.016679
 20
23.661563
 42
-0.003461
  0
VERTEX
  8
0
 10
281.415410
 20
33.209632
 42
-0.011250
  0
VERTEX
  8
0
 10
291.142810
 20
39.255799
 42
0.000841
  0
VERTEX
  8
0
 10
310.750224
 20
50.884332
 42
0.001744
  0
VERTEX
  8
0
 10
326.012451
 20
60.042870
 42
0.002162
  0
VERTEX
  8
0
 10
337.766194
 20
67.221521
 42
0.005991
  0
VERTEX
  8
0
 10
345.951446
 20
72.405816
 42
0.016518
  0
VERTEX
  8
0
 10
363.717637
 20
84.812616
 42
0.014419
  0
VERTEX
  8
0
 10
381.469865
 20
98.919669
 42
0.014927
  0
VERTEX
  8
0
 10
397.304774
 20
113.095374
 42
0.027957
  0
VERTEX
  8
0
 10
409.080326
 20
125.612591
 42
-0.000150
  0
VERTEX
  8
0
 10
416.109011
 20
133.969577
 42
-0.001018
  0
VERTEX
  8
0
 10
419.597064
 20
138.097187
 42
-0.001932
  0
VERTEX
  8
0
 10
422.067438
 20
140.985774
 42
-0.001791
  0
VERTEX
  8
0
 10
424.622782
 20
143.929058
 42
0.030408
  0
VERTEX
  8
0
 10
429.403494
 20
150.117654
 42
0.010484
  0
VERTEX
  8
0
 10
435.563664
 20
159.602967
 42
0.010670
  0
VERTEX
  8
0
 10
441.668409
 20
169.934810
 42
0.016347
  0
VERTEX
  8
0
 10
446.467266
 20
179.160504
 42
0.049628
  0
VERTEX
  8
0
 10
458.888055
 20
213.423299
 42
0.055706
  0
VERTEX
  8
0
 10
463.686221
 20
248.148024
 42
0.058347
  0
VERTEX
  8
0
 10
460.645934
 20
281.631632
 42
0.064894
  0
VERTEX
  8
0
 10
449.929626
 20
312.245314
 42
0.009478
  0
VERTEX
  8
0
 10
445.993033
 20
319.710295
 42
0.026880
  0
VERTEX
  8
0
 10
442.877515
 20
324.701965
 42
0.029598
  0
VERTEX
  8
0
 10
439.418018
 20
329.060463
 42
0.013664
  0
VERTEX
  8
0
 10
434.442529
 20
334.322500
 42
0.045135
  0
VERTEX
  8
0
 10
415.063011
 20
350.508508
 42
0.043261
  0
VERTEX
  8
0
 10
392.826168
 20
363.216002
 42
0.045074
  0
VERTEX
  8
0
 10
369.777707
 20
371.437011
 42
0.062115
  0
VERTEX
  8
0
 10
348.000000
 20
374.250062
 42
0.021619
  0
VERTEX
  8
0
 10
339.405541
 20
373.916075
 42
0.034928
  0
VERTEX
  8
0
 10
332.172705
 20
372.808883
 42
0.036083
  0
VERTEX
  8
0
 10
325.333233
 20
370.739096
 42
0.025135
  0
VERTEX
  8
0
 10
317.953507
 20
367.476586
 42
0.075921
  0
VERTEX
  8
0
 10
305.190131
 20
358.401869
 42
0.085380
  0
VERTEX
  8
0
 10
296.315641
 20
346.251484
 42
0.052011
  0
VERTEX
  8
0
 10
289.242946
 20
327.263103
 42
0.012036
  0
VERTEX
  8
0
 10
281.505314
 20
294.000000
 42
-0.008936
  0
VERTEX
  8
0
 10
278.163526
 20
279.219448
 42
-0.009686
  0
VERTEX
  8
0
 10
274.376879
 20
264.962100
 42
-0.003098
  0
VERTEX
  8
0
 10
270.576147
 20
251.997313
 42
-0.351596
  0
VERTEX
  8
0
 10
269.203049
 20
251.051381
 42
-0.215585
  0
VERTEX
  8
0
 10
268.771831
 20
251.285627
 42
-0.001843
  0
VERTEX
  8
0
 10
266.446742
 20
254.377263
 42
-0.006015
  0
VERTEX
  8
0
 10
263.806782
 20
258.004887
 42
-0.003789
  0
VERTEX
  8
0
 10
260.807137
 20
262.301381
 42
0.011131
  0
VERTEX
  8
0
 10
250.992760
 20
275.928121
 42
0.013851
  0
VERTEX
  8
0
 10
241.248232
 20
288.123918
 42
0.013044
  0
VERTEX
  8
0
 10
230.371453
 20
300.328829
 42
0.008231
  0
VERTEX
  8
0
 10
217.080007
 20
314.023195
 42
0.007343
  0
VERTEX
  8
0
 10
202.885229
 20
327.764900
 42
0.013431
  0
VERTEX
  8
0
 10
190.854491
 20
338.480286
 42
0.015031
  0
VERTEX
  8
0
 10
179.253278
 20
347.684870
 42
0.012723
  0
VERTEX
  8
0
 10
166.466849
 20
356.721046
 42
0.017654
  0
VERTEX
  8
0
 10
150.331915
 20
366.712766
 42
0.028139
  0
VERTEX
  8
0
 10
135.816735
 20
373.956688
 42
0.030915
  0
VERTEX
  8
0
 10
121.650689
 20
379.044688
 42
0.028749
  0
VERTEX
  8
0
 10
106.619010
 20
382.493394
 42
0.024666
  0
VERTEX
  8
0
 10
98.788413
 20
383.427451
 42
0.013774
  0
VERTEX
  8
0
 10
89.195306
 20
383.829193
 42
0.013715
  0
VERTEX
  8
0
 10
79.828788
 20
383.706289
 42
0.031667
  0
SEQEND
  0
ENDSEC
  0
EOF
