  0
SECTION
  2
HEADER
  9
$ACADVER
  1
AC1006
  9
$EXTMIN
 10
0.000000
 20
0.000000
 30
0.000000
  9
$EXTMAX
 10
464.000000
 20
384.000000
 30
0.000000
  0
ENDSEC
  0
SECTION
  2
ENTITIES
  0
POLYLINE
  8
0
 66
1
 70
1
  0
VERTEX
  8
0
 10
72.830856
 20
382.976845
 42
0.042611
  0
VERTEX
  8
0
 10
58.014970
 20
379.156689
 42
0.054454
  0
VERTEX
  8
0
 10
45.307155
 20
373.075727
 42
0.056588
  0
VERTEX
  8
0
 10
34.591524
 20
364.618026
 42
0.051924
  0
VERTEX
  8
0
 10
25.692086
 20
353.742774
 42
0.056012
  0
VERTEX
  8
0
 10
10.059800
 20
322.979934
 42
0.056222
  0
VERTEX
  8
0
 10
1.669869
 20
289.553441
 42
0.056494
  0
VERTEX
  8
0
 10
0.958894
 20
255.248543
 42
0.057622
  0
VERTEX
  8
0
 10
7.972842
 20
221.893705
 42
0.033463
  0
VERTEX
  8
0
 10
14.186059
 20
206.747441
 42
0.036546
  0
VERTEX
  8
0
 10
22.211119
 20
193.026989
 42
0.030914
  0
VERTEX
  8
0
 10
33.291063
 20
178.871121
 42
0.015181
  0
VERTEX
  8
0
 10
49.000000
 20
162.219532
 42
0.003364
  0
VERTEX
  8
0
 10
62.122924
 20
149.303996
 42
0.006880
  0
VERTEX
  8
0
 10
72.621108
 20
139.386828
 42
0.007322
  0
VERTEX
  8
0
 10
82.960016
 20
130.161469
 42
0.004397
  0
VERTEX
  8
0
 10
95.487429
 20
119.500000
 42
-0.001474
  0
VERTEX
  8
0
 10
97.925027
 20
117.449932
 42
-0.001562
  0
VERTEX
  8
0
 10
100.303573
 20
115.424743
 42
-0.001488
  0
VERTEX
  8
0
 10
102.341511
 20
113.668005
 42
-0.007160
  0
VERTEX
  8
0
 10
103.484148
 20
112.648060
 42
0.010554
  0
VERTEX
  8
0
 10
104.499119
 20
111.754377
 42
0.004128
  0
VERTEX
  8
0
 10
105.935969
 20
110.562259
 42
0.004084
  0
VERTEX
  8
0
 10
107.512285
 20
109.297553
 42
0.005070
  0
VERTEX
  8
0
 10
109.000000
 20
108.148060
 42
-0.004370
  0
VERTEX
  8
0
 10
115.224269
 20
103.352740
 42
-0.001118
  0
VERTEX
  8
0
 10
125.211905
 20
95.481847
 42
-0.000187
  0
VERTEX
  8
0
 10
136.182025
 20
86.790171
 42
-0.054968
  0
VERTEX
  8
0
 10
137.000000
 20
85.980606
 42
0.053154
  0
VERTEX
  8
0
 10
137.401330
 20
85.580517
 42
0.001569
  0
VERTEX
  8
0
 10
139.264705
 20
84.090540
 42
0.003123
  0
VERTEX
  8
0
 10
141.477822
 20
82.354704
 42
0.002147
  0
VERTEX
  8
0
 10
144.007508
 20
80.413289
 42
-0.006727
  0
VERTEX
  8
0
 10
165.249095
 20
63.800009
 42
-0.008100
  0
VERTEX
  8
0
 10
184.742568
 20
47.599917
 42
-0.008638
  0
VERTEX
  8
0
 10
202.493766
 20
31.814009
 42
-0.010608
  0
VERTEX
  8
0
 10
218.488304
 20
16.448094
 42
0.000000
  0
VERTEX
  8
0
 10
234.502585
 20
0.396188
 42
0.000000
  0
VERTEX
  8
0
 10
248.729755
 20
11.003871
 42
-0.008639
  0
VERTEX
  8
0
 10
260.679704
 20
19.596483
 42
-0.008123
  0
VERTEX
  8
0
 10
273.164612
 20
27.953532
 42
-0.006878
  0
VERTEX
  8
0
 10
287.687303
 20
37.055905
 42
-0.003600
  0
VERTEX
  8
0
 10
306.000000
 20
48.006045
 42
0.002153
  0
VERTEX
  8
0
 10
324.365945
 20
58.915965
 42
0.008702
  0
VERTEX
  8
0
 10
335.419096
 20
65.810789
 42
0.009654
  0
VERTEX
  8
0
 10
342.592450
 20
70.660011
 42
0.120346
  0
VERTEX
  8
0
 10
344.735258
 20
73.115475
 42
0.125907
  0
VERTEX
  8
0
 10
345.886267
 20
78.087888
 42
0.040997
  0
VERTEX
  8
0
 10
345.090368
 20
85.642021
 42
0.023993
  0
VERTEX
  8
0
 10
342.360144
 20
97.050459
 42
0.005518
  0
VERTEX
  8
0
 10
336.624558
 20
116.000000
 42
-0.007025
  0
VERTEX
  8
0
 10
330.762177
 20
135.581147
 42
-0.023788
  0
VERTEX
  8
0
 10
327.730459
 20
148.571444
 42
-0.035577
  0
VERTEX
  8
0
 10
326.736357
 20
157.523960
 42
-0.133500
  0
VERTEX
  8
0
 10
327.991683
 20
162.984459
 42
-0.269670
  0
VERTEX
  8
0
 10
331.952645
 20
165.427090
 42
-0.078358
  0
VERTEX
  8
0
 10
339.346593
 20
164.455807
 42
-0.036762
  0
VERTEX
  8
0
 10
351.410943
 20
159.907840
 42
-0.007520
  0
VERTEX
  8
0
 10
371.956233
 20
150.007842
 42
0.005662
  0
VERTEX
  8
0
 10
387.488419
 20
142.452223
 42
0.015960
  0
VERTEX
  8
0
 10
398.563109
 20
137.645322
 42
0.021888
  0
VERTEX
  8
0
 10
406.715429
 20
134.818114
 42
0.072640
  0
VERTEX
  8
0
 10
412.317010
 20
134.000000
 42
0.167088
  0
VERTEX
  8
0
 10
415.878042
 20
135.224190
 42
0.036885
  0
VERTEX
  8
0
 10
420.734151
 20
139.622502
 42
0.029489
  0
VERTEX
  8
0
 10
426.525279
 20
146.468333
 42
0.013585
  0
VERTEX
  8
0
 10
433.272632
 20
156.000000
 42
0.057552
  0
VERTEX
  8
0
 10
453.071816
 20
194.608134
 42
0.063015
  0
VERTEX
  8
0
 10
462.788813
 20
235.552061
 42
0.066380
  0
VERTEX
  8
0
 10
461.768222
 20
275.699401
 42
0.077257
  0
VERTEX
  8
0
 10
450.052432
 20
312.000000
 42
0.007049
  0
VERTEX
  8
0
 10
446.294301
 20
319.209985
 42
0.025164
  0
VERTEX
  8
0
 10
443.598720
 20
323.657236
 42
0.029376
  0
VERTEX
  8
0
 10
440.688826
 20
327.453688
 42
0.012378
  0
VERTEX
  8
0
 10
436.364608
 20
332.213778
 42
0.036738
  0
VERTEX
  8
0
 10
421.441303
 20
345.707793
 42
0.034711
  0
VERTEX
  8
0
 10
404.428775
 20
357.155561
 42
0.034813
  0
VERTEX
  8
0
 10
386.049721
 20
366.108930
 42
0.037511
  0
VERTEX
  8
0
 10
367.053131
 20
372.167493
 42
0.032209
  0
VERTEX
  8
0
 10
358.339711
 20
373.657378
 42
0.022695
  0
VERTEX
  8
0
 10
348.415132
 20
374.249314
 42
0.023001
  0
VERTEX
  8
0
 10
338.839724
 20
373.944696
 42
0.044266
  0
VERTEX
  8
0
 10
331.275326
 20
372.675258
 42
0.086466
  0
VERTEX
  8
0
 10
309.980765
 20
362.980058
 42
0.059556
  0
VERTEX
  8
0
 10
289.983392
 20
345.486266
 42
0.045565
  0
VERTEX
  8
0
 10
270.241538
 20
319.083393
 42
0.021738
  0
VERTEX
  8
0
 10
249.620038
 20
282.000000
 42
0.001425
  0
VERTEX
  8
0
 10
245.156830
 20
273.018347
 42
0.001772
  0
VERTEX
  8
0
 10
241.060306
 20
264.640625
 42
0.001440
  0
VERTEX
  8
0
 10
237.666126
 20
257.584758
 42
0.013436
  0
VERTEX
  8
0
 10
236.293671
 20
254.500000
 42
0.000000
  0
VERTEX
  8
0
 10
234.228182
 20
249.500000
 42
0.000000
  0
VERTEX
  8
0
 10
220.143648
 20
278.232597
 42
0.005086
  0
VERTEX
  8
0
 10
206.163528
 20
306.033069
 42
0.017923
  0
VERTEX
  8
0
 10
196.363398
 20
323.473105
 42
0.027027
  0
VERTEX
  8
0
 10
187.815965
 20
335.917621
 42
0.033130
  0
VERTEX
  8
0
 10
178.494792
 20
346.500000
 42
0.045938
  0
VERTEX
  8
0
 10
163.868735
 20
358.586955
 42
0.033651
  0
VERTEX
  8
0
 10
145.707875
 20
369.265372
 42
0.033242
  0
VERTEX
  8
0
 10
125.974887
 20
377.557331
 42
0.040848
  0
VERTEX
  8
0
 10
106.619010
 20
382.493394
 42
0.024666
  0
VERTEX
  8
0
 10
98.788413
 20
383.427451
 42
0.013774
  0
VERTEX
  8
0
 10
89.195306
 20
383.829193
 42
0.013715
  0
VERTEX
  8
0
 10
79.828788
 20
383.706289
 42
0.031667
  0
SEQEND
  0
ENDSEC
  0
EOF
