  0
SECTION
  2
HEADER
  9
$ACADVER
  1
AC1006
  9
$EXTMIN
 10
0.000000
 20
0.000000
 30
0.000000
  9
$EXTMAX
 10
86.000000
 20
101.000000
 30
0.000000
  0
ENDSEC
  0
SECTION
  2
ENTITIES
  0
POLYLINE
  8
0
 66
1
 70
1
  0
VERTEX
  8
0
 10
39.930108
 20
97.921754
 42
-0.023745
  0
VERTEX
  8
0
 10
38.311833
 20
96.602629
 42
-0.014101
  0
VERTEX
  8
0
 10
36.269508
 20
95.180601
 42
-0.014097
  0
VERTEX
  8
0
 10
34.148047
 20
93.874567
 42
-0.023526
  0
VERTEX
  8
0
 10
32.285238
 20
92.912813
 42
0.026499
  0
VERTEX
  8
0
 10
23.178463
 20
88.142317
 42
0.038919
  0
VERTEX
  8
0
 10
15.791003
 20
82.942482
 42
0.043640
  0
VERTEX
  8
0
 10
9.965195
 20
77.198301
 42
0.050769
  0
VERTEX
  8
0
 10
5.550451
 20
70.797312
 42
0.018987
  0
VERTEX
  8
0
 10
3.558583
 20
66.820646
 42
0.037497
  0
VERTEX
  8
0
 10
2.343526
 20
63.506700
 42
0.032247
  0
VERTEX
  8
0
 10
1.532513
 20
59.738613
 42
0.010710
  0
VERTEX
  8
0
 10
0.821556
 20
54.130790
 42
0.010173
  0
VERTEX
  8
0
 10
0.320623
 20
48.205570
 42
0.030122
  0
VERTEX
  8
0
 10
0.305243
 20
44.125457
 42
0.029353
  0
VERTEX
  8
0
 10
0.780477
 20
40.016458
 42
0.009272
  0
VERTEX
  8
0
 10
1.962108
 20
33.950153
 42
0.004771
  0
VERTEX
  8
0
 10
2.865468
 20
29.919185
 42
0.006272
  0
VERTEX
  8
0
 10
3.770909
 20
26.259638
 42
0.004676
  0
VERTEX
  8
0
 10
4.594411
 20
23.218485
 42
0.058419
  0
VERTEX
  8
0
 10
5.047963
 20
22.116675
 42
-0.016554
  0
VERTEX
  8
0
 10
5.559652
 20
21.119503
 42
-0.002151
  0
VERTEX
  8
0
 10
6.571102
 20
18.952505
 42
-0.002505
  0
VERTEX
  8
0
 10
7.747429
 20
16.369777
 42
-0.002091
  0
VERTEX
  8
0
 10
8.971555
 20
13.615255
 42
0.022550
  0
VERTEX
  8
0
 10
11.987441
 20
7.514327
 42
0.090658
  0
VERTEX
  8
0
 10
14.608086
 20
4.306664
 42
0.109529
  0
VERTEX
  8
0
 10
17.925243
 20
2.551079
 42
0.040868
  0
VERTEX
  8
0
 10
23.133672
 20
1.566180
 42
0.013752
  0
VERTEX
  8
0
 10
25.938640
 20
1.347800
 42
0.012012
  0
VERTEX
  8
0
 10
28.880999
 20
1.270773
 42
0.012165
  0
VERTEX
  8
0
 10
31.544147
 20
1.329851
 42
0.034748
  0
VERTEX
  8
0
 10
33.383672
 20
1.544155
 42
0.024616
  0
VERTEX
  8
0
 10
35.367681
 20
2.018476
 42
0.119871
  0
VERTEX
  8
0
 10
36.361863
 20
2.591001
 42
0.154197
  0
VERTEX
  8
0
 10
36.850010
 20
3.476706
 42
0.049474
  0
VERTEX
  8
0
 10
37.000000
 20
4.988846
 42
0.050508
  0
VERTEX
  8
0
 10
36.882966
 20
6.144454
 42
0.042135
  0
VERTEX
  8
0
 10
36.534600
 20
7.328768
 42
0.043942
  0
VERTEX
  8
0
 10
36.022971
 20
8.366305
 42
0.083221
  0
VERTEX
  8
0
 10
35.415660
 20
9.069996
 42
-0.111119
  0
VERTEX
  8
0
 10
31.785064
 20
13.779566
 42
-0.026139
  0
VERTEX
  8
0
 10
28.043870
 20
23.061443
 42
-0.027318
  0
VERTEX
  8
0
 10
25.021782
 20
33.721180
 42
-0.036427
  0
VERTEX
  8
0
 10
23.530221
 20
43.670265
 42
-0.069111
  0
VERTEX
  8
0
 10
24.075457
 20
52.451178
 42
-0.081125
  0
VERTEX
  8
0
 10
27.025238
 20
60.242717
 42
-0.088285
  0
VERTEX
  8
0
 10
32.033109
 20
66.189229
 42
-0.102910
  0
VERTEX
  8
0
 10
38.541444
 20
69.657906
 42
-0.077524
  0
VERTEX
  8
0
 10
43.873175
 20
70.354047
 42
-0.053573
  0
VERTEX
  8
0
 10
49.916482
 20
69.551970
 42
-0.054454
  0
VERTEX
  8
0
 10
55.515053
 20
67.522308
 42
-0.092285
  0
VERTEX
  8
0
 10
59.500000
 20
64.551340
 42
-0.145274
  0
VERTEX
  8
0
 10
63.479349
 20
56.470298
 42
-0.070760
  0
VERTEX
  8
0
 10
63.801454
 20
44.870310
 42
-0.057626
  0
VERTEX
  8
0
 10
60.597258
 20
31.101741
 42
-0.040175
  0
VERTEX
  8
0
 10
54.027086
 20
16.549067
 42
0.012392
  0
VERTEX
  8
0
 10
51.168482
 20
11.052900
 42
0.077866
  0
VERTEX
  8
0
 10
50.238519
 20
8.040232
 42
0.154586
  0
VERTEX
  8
0
 10
50.593684
 20
5.877362
 42
0.097014
  0
VERTEX
  8
0
 10
52.184408
 20
3.840064
 42
0.047786
  0
VERTEX
  8
0
 10
53.999529
 20
2.547109
 42
0.061092
  0
VERTEX
  8
0
 10
55.887767
 20
1.745621
 42
0.036541
  0
VERTEX
  8
0
 10
58.572084
 20
1.183762
 42
0.007063
  0
VERTEX
  8
0
 10
63.500000
 20
0.593774
 42
0.000000
  0
VERTEX
  8
0
 10
68.500000
 20
0.066685
 42
0.000000
  0
VERTEX
  8
0
 10
72.725435
 20
7.352426
 42
0.006225
  0
VERTEX
  8
0
 10
74.459539
 20
10.430127
 42
0.005638
  0
VERTEX
  8
0
 10
76.175842
 20
13.652688
 42
0.005653
  0
VERTEX
  8
0
 10
77.647123
 20
16.572238
 42
0.017944
  0
VERTEX
  8
0
 10
78.537912
 20
18.569084
 42
-0.002753
  0
VERTEX
  8
0
 10
79.245033
 20
20.293128
 42
-0.001933
  0
VERTEX
  8
0
 10
80.059278
 20
22.226543
 42
-0.001950
  0
VERTEX
  8
0
 10
80.853266
 20
24.071671
 42
-0.004079
  0
VERTEX
  8
0
 10
81.488417
 20
25.500000
 42
0.042062
  0
VERTEX
  8
0
 10
82.118557
 20
27.267287
 42
0.007720
  0
VERTEX
  8
0
 10
82.953103
 20
30.633913
 42
0.008247
  0
VERTEX
  8
0
 10
83.805972
 20
34.614680
 42
0.007417
  0
VERTEX
  8
0
 10
84.559930
 20
38.764386
 42
0.007377
  0
VERTEX
  8
0
 10
85.519063
 20
45.104559
 42
0.034137
  0
VERTEX
  8
0
 10
85.767677
 20
48.802017
 42
0.038081
  0
VERTEX
  8
0
 10
85.495990
 20
52.312692
 42
0.010672
  0
VERTEX
  8
0
 10
84.538880
 20
57.735321
 42
0.033080
  0
VERTEX
  8
0
 10
81.893322
 20
67.593556
 42
0.063543
  0
VERTEX
  8
0
 10
78.300957
 20
74.932001
 42
0.062817
  0
VERTEX
  8
0
 10
72.950739
 20
81.186673
 42
0.031636
  0
VERTEX
  8
0
 10
64.826384
 20
87.682396
 42
-0.006541
  0
VERTEX
  8
0
 10
61.735824
 20
89.908855
 42
-0.008168
  0
VERTEX
  8
0
 10
58.928293
 20
92.059633
 42
-0.006789
  0
VERTEX
  8
0
 10
56.634016
 20
93.928716
 42
-0.060651
  0
VERTEX
  8
0
 10
55.746854
 20
94.876370
 42
0.061753
  0
VERTEX
  8
0
 10
53.769591
 20
96.979179
 42
0.035530
  0
VERTEX
  8
0
 10
50.938952
 20
99.007612
 42
0.035264
  0
VERTEX
  8
0
 10
48.002502
 20
100.537296
 42
0.102798
  0
VERTEX
  8
0
 10
45.775738
 20
101.000000
 42
0.089597
  0
VERTEX
  8
0
 10
44.611731
 20
100.789729
 42
0.031825
  0
VERTEX
  8
0
 10
43.062182
 20
100.095765
 42
0.030368
  0
VERTEX
  8
0
 10
41.420869
 20
99.099804
 42
0.031325
  0
SEQEND
  0
ENDSEC
  0
EOF
