  0
SECTION
  2
HEADER
  9
$ACADVER
  1
AC1006
  9
$EXTMIN
 10
0.000000
 20
0.000000
 30
0.000000
  9
$EXTMAX
 10
167.000000
 20
139.000000
 30
0.000000
  0
ENDSEC
  0
SECTION
  2
ENTITIES
  0
POLYLINE
  8
0
 66
1
 70
1
  0
VERTEX
  8
0
 10
21.025775
 20
136.567793
 42
-0.035422
  0
VERTEX
  8
0
 10
20.393115
 20
135.203231
 42
-0.190140
  0
VERTEX
  8
0
 10
19.773204
 20
134.691541
 42
-0.150089
  0
VERTEX
  8
0
 10
18.881300
 20
134.676997
 42
-0.019821
  0
VERTEX
  8
0
 10
17.066633
 20
135.280951
 42
0.023902
  0
VERTEX
  8
0
 10
15.340348
 20
135.839889
 42
0.111553
  0
VERTEX
  8
0
 10
14.302297
 20
135.884705
 42
0.140550
  0
VERTEX
  8
0
 10
13.472795
 20
135.475471
 42
0.046491
  0
VERTEX
  8
0
 10
12.547911
 20
134.463158
 42
0.036110
  0
VERTEX
  8
0
 10
11.977366
 20
133.583119
 42
0.028847
  0
VERTEX
  8
0
 10
11.490279
 20
132.562615
 42
0.029682
  0
VERTEX
  8
0
 10
11.148995
 20
131.560689
 42
0.062778
  0
VERTEX
  8
0
 10
11.031803
 20
130.750000
 42
-0.044539
  0
VERTEX
  8
0
 10
10.959724
 20
130.080139
 42
-0.063677
  0
VERTEX
  8
0
 10
10.769998
 20
129.514062
 42
-0.082653
  0
VERTEX
  8
0
 10
10.499052
 20
129.130909
 42
-0.200201
  0
VERTEX
  8
0
 10
10.185212
 20
129.000000
 42
0.273518
  0
VERTEX
  8
0
 10
9.198141
 20
128.416374
 42
0.018351
  0
VERTEX
  8
0
 10
7.663830
 20
125.366831
 42
0.025314
  0
VERTEX
  8
0
 10
6.375974
 20
122.131504
 42
0.082239
  0
VERTEX
  8
0
 10
6.000000
 20
119.861098
 42
-0.086972
  0
VERTEX
  8
0
 10
5.810273
 20
118.778617
 42
-0.021114
  0
VERTEX
  8
0
 10
5.118750
 20
117.092655
 42
-0.021020
  0
VERTEX
  8
0
 10
4.148330
 20
115.198671
 42
-0.019540
  0
VERTEX
  8
0
 10
3.000000
 20
113.344893
 42
0.069729
  0
VERTEX
  8
0
 10
0.419371
 20
108.062618
 42
0.133139
  0
VERTEX
  8
0
 10
0.182728
 20
103.379329
 42
0.187097
  0
VERTEX
  8
0
 10
2.266232
 20
100.227860
 42
0.155415
  0
VERTEX
  8
0
 10
6.121088
 20
99.000000
 42
0.068365
  0
VERTEX
  8
0
 10
8.577954
 20
99.337507
 42
0.028800
  0
VERTEX
  8
0
 10
11.737220
 20
100.421826
 42
0.026718
  0
VERTEX
  8
0
 10
14.643585
 20
101.795871
 42
0.124244
  0
VERTEX
  8
0
 10
16.000000
 20
103.040065
 42
-0.134942
  0
VERTEX
  8
0
 10
16.993190
 20
103.913323
 42
-0.003914
  0
VERTEX
  8
0
 10
22.101682
 20
106.350448
 42
-0.004674
  0
VERTEX
  8
0
 10
27.179421
 20
108.666693
 42
-0.105037
  0
VERTEX
  8
0
 10
28.748535
 20
109.000000
 42
-0.293086
  0
VERTEX
  8
0
 10
29.924905
 20
108.245646
 42
-0.013155
  0
VERTEX
  8
0
 10
31.907368
 20
103.609521
 42
-0.019970
  0
VERTEX
  8
0
 10
33.873812
 20
98.011975
 42
-0.017280
  0
VERTEX
  8
0
 10
35.494673
 20
92.000000
 42
-0.019074
  0
VERTEX
  8
0
 10
36.160441
 20
88.550205
 42
-0.010977
  0
VERTEX
  8
0
 10
36.711494
 20
84.353125
 42
-0.010957
  0
VERTEX
  8
0
 10
37.080456
 20
80.107248
 42
-0.017963
  0
VERTEX
  8
0
 10
37.184536
 20
76.500000
 42
0.014122
  0
VERTEX
  8
0
 10
37.256358
 20
73.106992
 42
0.016703
  0
VERTEX
  8
0
 10
37.521770
 20
69.909258
 42
0.017571
  0
VERTEX
  8
0
 10
37.933561
 20
67.209333
 42
0.058516
  0
VERTEX
  8
0
 10
38.468676
 20
65.500000
 42
-0.002738
  0
VERTEX
  8
0
 10
39.092396
 20
64.083627
 42
-0.001356
  0
VERTEX
  8
0
 10
39.869212
 20
62.279688
 42
-0.001346
  0
VERTEX
  8
0
 10
40.664702
 20
60.404547
 42
-0.001972
  0
VERTEX
  8
0
 10
41.353691
 20
58.750000
 42
0.022394
  0
VERTEX
  8
0
 10
42.021835
 20
57.313739
 42
0.031307
  0
VERTEX
  8
0
 10
42.753061
 20
56.101562
 42
0.032118
  0
VERTEX
  8
0
 10
43.449055
 20
55.222345
 42
0.212353
  0
VERTEX
  8
0
 10
43.948973
 20
55.000000
 42
-0.174913
  0
VERTEX
  8
0
 10
44.350037
 20
54.855269
 42
-0.093096
  0
VERTEX
  8
0
 10
44.691261
 20
54.443928
 42
-0.073331
  0
VERTEX
  8
0
 10
44.922197
 20
53.831207
 42
-0.053561
  0
VERTEX
  8
0
 10
45.000000
 20
53.106989
 42
0.074646
  0
VERTEX
  8
0
 10
45.115286
 20
52.339078
 42
0.064463
  0
VERTEX
  8
0
 10
45.453106
 20
51.596177
 42
0.066854
  0
VERTEX
  8
0
 10
45.952737
 20
50.989622
 42
0.095751
  0
VERTEX
  8
0
 10
46.542488
 20
50.622070
 42
-0.251968
  0
VERTEX
  8
0
 10
47.370895
 20
49.659698
 42
-0.040210
  0
VERTEX
  8
0
 10
47.721286
 20
47.112366
 42
-0.019307
  0
VERTEX
  8
0
 10
47.802584
 20
42.522347
 42
-0.002530
  0
VERTEX
  8
0
 10
47.549233
 20
32.765081
 42
-0.004603
  0
VERTEX
  8
0
 10
47.266956
 20
25.751820
 42
-0.005045
  0
VERTEX
  8
0
 10
46.861964
 20
18.955992
 42
-0.004729
  0
VERTEX
  8
0
 10
46.402196
 20
13.153469
 42
-0.025102
  0
VERTEX
  8
0
 10
45.961914
 20
10.000000
 42
0.004768
  0
VERTEX
  8
0
 10
44.742257
 20
3.273757
 42
0.132354
  0
VERTEX
  8
0
 10
44.907422
 20
1.509335
 42
0.285132
  0
VERTEX
  8
0
 10
45.976097
 20
0.682056
 42
0.025814
  0
VERTEX
  8
0
 10
49.500000
 20
0.500000
 42
0.009697
  0
VERTEX
  8
0
 10
52.573105
 20
0.559604
 42
0.109724
  0
VERTEX
  8
0
 10
53.742954
 20
0.867504
 42
0.232056
  0
VERTEX
  8
0
 10
54.261879
 20
1.566194
 42
0.060743
  0
VERTEX
  8
0
 10
54.350089
 20
3.000000
 42
-0.039375
  0
VERTEX
  8
0
 10
54.422782
 20
6.862836
 42
-0.008644
  0
VERTEX
  8
0
 10
55.184028
 20
13.463967
 42
-0.008732
  0
VERTEX
  8
0
 10
56.175242
 20
20.041791
 42
-0.037878
  0
VERTEX
  8
0
 10
57.123139
 20
23.869645
 42
-0.016243
  0
VERTEX
  8
0
 10
57.703469
 20
25.454788
 42
-0.099472
  0
VERTEX
  8
0
 10
58.179640
 20
26.178852
 42
-0.307649
  0
VERTEX
  8
0
 10
58.633267
 20
26.267911
 42
-0.151918
  0
VERTEX
  8
0
 10
59.101726
 20
25.869645
 42
-0.125465
  0
VERTEX
  8
0
 10
59.828194
 20
23.640571
 42
-0.025275
  0
VERTEX
  8
0
 10
59.890770
 20
19.437056
 42
-0.025004
  0
VERTEX
  8
0
 10
59.455944
 20
14.372788
 42
-0.020219
  0
VERTEX
  8
0
 10
58.500000
 20
9.000000
 42
0.001770
  0
VERTEX
  8
0
 10
57.949690
 20
6.455232
 42
0.002516
  0
VERTEX
  8
0
 10
57.479926
 20
4.189063
 42
0.001408
  0
VERTEX
  8
0
 10
57.098242
 20
2.272228
 42
0.036749
  0
VERTEX
  8
0
 10
57.035129
 20
1.750000
 42
0.360426
  0
VERTEX
  8
0
 10
57.257011
 20
1.455116
 42
0.020471
  0
VERTEX
  8
0
 10
58.458872
 20
1.220313
 42
0.023708
  0
VERTEX
  8
0
 10
60.043165
 20
1.054000
 42
0.014297
  0
VERTEX
  8
0
 10
61.931245
 20
1.000000
 42
0.000000
  0
VERTEX
  8
0
 10
66.862490
 20
1.000000
 42
0.000000
  0
VERTEX
  8
0
 10
66.741070
 20
10.750000
 42
-0.007510
  0
VERTEX
  8
0
 10
66.752974
 20
15.388829
 42
-0.003536
  0
VERTEX
  8
0
 10
66.900726
 20
21.379690
 42
-0.003503
  0
VERTEX
  8
0
 10
67.143863
 20
27.653079
 42
-0.004928
  0
VERTEX
  8
0
 10
67.455082
 20
33.244688
 42
0.000000
  0
VERTEX
  8
0
 10
68.290515
 20
45.989377
 42
0.000000
  0
VERTEX
  8
0
 10
73.895257
 20
47.700560
 42
0.015284
  0
VERTEX
  8
0
 10
76.215963
 20
48.487397
 42
0.013999
  0
VERTEX
  8
0
 10
78.554159
 20
49.436109
 42
0.014162
  0
VERTEX
  8
0
 10
80.592902
 20
50.400317
 42
0.043748
  0
VERTEX
  8
0
 10
81.884859
 20
51.205872
 42
-0.037169
  0
VERTEX
  8
0
 10
82.954793
 20
51.892673
 42
-0.029676
  0
VERTEX
  8
0
 10
84.196996
 20
52.472975
 42
-0.030550
  0
VERTEX
  8
0
 10
85.417639
 20
52.872899
 42
-0.063970
  0
VERTEX
  8
0
 10
86.407015
 20
53.000000
 42
0.091330
  0
VERTEX
  8
0
 10
87.468386
 20
53.195500
 42
0.027918
  0
VERTEX
  8
0
 10
88.964470
 20
53.863841
 42
0.026915
  0
VERTEX
  8
0
 10
90.589101
 20
54.815231
 42
0.026454
  0
VERTEX
  8
0
 10
92.111933
 20
55.940735
 42
-0.020274
  0
VERTEX
  8
0
 10
93.654708
 20
57.110717
 42
-0.018305
  0
VERTEX
  8
0
 10
95.339568
 20
58.194665
 42
-0.018677
  0
VERTEX
  8
0
 10
96.920901
 20
59.053892
 42
-0.053890
  0
VERTEX
  8
0
 10
98.089777
 20
59.484149
 42
-0.070400
  0
VERTEX
  8
0
 10
99.676214
 20
59.650473
 42
-0.192821
  0
VERTEX
  8
0
 10
100.687745
 20
59.202297
 42
-0.070403
  0
VERTEX
  8
0
 10
101.679838
 20
57.847831
 42
-0.004354
  0
VERTEX
  8
0
 10
104.000000
 20
53.422568
 42
0.014418
  0
VERTEX
  8
0
 10
105.179512
 20
51.278917
 42
0.025575
  0
VERTEX
  8
0
 10
106.289475
 20
49.595781
 42
0.013066
  0
VERTEX
  8
0
 10
107.976314
 20
47.423513
 42
0.001400
  0
VERTEX
  8
0
 10
112.033221
 20
42.500000
 42
0.000000
  0
VERTEX
  8
0
 10
116.176707
 20
37.500000
 42
0.000000
  0
VERTEX
  8
0
 10
115.676422
 20
28.382790
 42
-0.011727
  0
VERTEX
  8
0
 10
115.330013
 20
23.965999
 42
-0.022611
  0
VERTEX
  8
0
 10
114.810733
 20
20.457415
 42
-0.027990
  0
VERTEX
  8
0
 10
114.088510
 20
17.606562
 42
-0.041940
  0
VERTEX
  8
0
 10
113.117676
 20
15.230663
 42
0.012768
  0
VERTEX
  8
0
 10
112.041125
 20
12.980289
 42
0.074060
  0
VERTEX
  8
0
 10
111.687394
 20
11.716062
 42
0.146587
  0
VERTEX
  8
0
 10
111.836695
 20
10.825633
 42
0.105601
  0
VERTEX
  8
0
 10
112.464283
 20
10.029642
 42
0.093631
  0
VERTEX
  8
0
 10
113.233821
 20
9.603219
 42
0.035406
  0
VERTEX
  8
0
 10
114.430489
 20
9.299562
 42
0.033543
  0
VERTEX
  8
0
 10
115.812322
 20
9.146017
 42
0.034838
  0
VERTEX
  8
0
 10
117.184676
 20
9.181769
 42
0.024906
  0
VERTEX
  8
0
 10
119.182717
 20
9.474545
 42
0.184732
  0
VERTEX
  8
0
 10
119.982438
 20
9.976647
 42
0.165359
  0
VERTEX
  8
0
 10
120.290539
 20
10.915629
 42
0.019053
  0
VERTEX
  8
0
 10
120.180657
 20
13.165565
 42
-0.040939
  0
VERTEX
  8
0
 10
120.172422
 20
14.790526
 42
-0.026925
  0
VERTEX
  8
0
 10
120.416115
 20
16.645835
 42
-0.027092
  0
VERTEX
  8
0
 10
120.852088
 20
18.438179
 42
-0.046151
  0
VERTEX
  8
0
 10
121.430657
 20
19.865905
 42
0.022543
  0
VERTEX
  8
0
 10
122.031391
 20
21.168305
 42
0.020016
  0
VERTEX
  8
0
 10
122.539005
 20
22.571688
 42
0.020493
  0
VERTEX
  8
0
 10
122.893374
 20
23.872026
 42
0.056329
  0
VERTEX
  8
0
 10
123.000000
 20
24.815481
 42
-0.078528
  0
VERTEX
  8
0
 10
123.145688
 20
25.737387
 42
-0.029425
  0
VERTEX
  8
0
 10
123.623126
 20
26.959986
 42
-0.028276
  0
VERTEX
  8
0
 10
124.309414
 20
28.253899
 42
-0.030587
  0
VERTEX
  8
0
 10
125.121280
 20
29.427053
 42
0.044169
  0
VERTEX
  8
0
 10
126.167978
 20
31.030816
 42
0.069783
  0
VERTEX
  8
0
 10
126.731183
 20
32.570775
 42
0.056712
  0
VERTEX
  8
0
 10
126.913490
 20
34.425622
 42
0.020118
  0
VERTEX
  8
0
 10
126.765197
 20
37.091841
 42
-0.016832
  0
VERTEX
  8
0
 10
126.644407
 20
39.033387
 42
-0.024196
  0
VERTEX
  8
0
 10
126.678695
 20
40.755404
 42
-0.021719
  0
VERTEX
  8
0
 10
126.831982
 20
42.121731
 42
-0.218917
  0
VERTEX
  8
0
 10
127.141063
 20
42.587182
 42
0.318649
  0
VERTEX
  8
0
 10
127.321495
 20
43.013625
 42
0.039074
  0
VERTEX
  8
0
 10
127.010120
 20
44.039101
 42
0.034728
  0
VERTEX
  8
0
 10
126.392700
 20
45.342702
 42
0.021276
  0
VERTEX
  8
0
 10
125.497146
 20
46.789388
 42
-0.014363
  0
VERTEX
  8
0
 10
123.172154
 20
50.431739
 42
-0.301209
  0
VERTEX
  8
0
 10
123.228326
 20
51.659109
 42
-0.350595
  0
VERTEX
  8
0
 10
124.323885
 20
51.957038
 42
-0.016726
  0
VERTEX
  8
0
 10
128.000000
 20
50.215888
 42
-0.012105
  0
VERTEX
  8
0
 10
129.915918
 20
49.169230
 42
-0.018112
  0
VERTEX
  8
0
 10
131.531250
 20
48.155544
 42
-0.013318
  0
VERTEX
  8
0
 10
132.784221
 20
47.254819
 42
-0.234376
  0
VERTEX
  8
0
 10
133.000000
 20
46.819779
 42
0.152170
  0
VERTEX
  8
0
 10
133.097404
 20
46.507139
 42
0.098247
  0
VERTEX
  8
0
 10
133.371578
 20
46.240810
 42
0.081056
  0
VERTEX
  8
0
 10
133.781297
 20
46.061143
 42
0.062959
  0
VERTEX
  8
0
 10
134.264948
 20
46.000000
 42
-0.207281
  0
VERTEX
  8
0
 10
134.910779
 20
45.720243
 42
-0.022441
  0
VERTEX
  8
0
 10
135.992315
 20
44.457813
 42
-0.024560
  0
VERTEX
  8
0
 10
137.189354
 20
42.761032
 42
-0.017386
  0
VERTEX
  8
0
 10
138.369038
 20
40.750000
 42
-0.029942
  0
VERTEX
  8
0
 10
139.842723
 20
37.585911
 42
-0.034218
  0
VERTEX
  8
0
 10
140.853369
 20
34.404625
 42
-0.026022
  0
VERTEX
  8
0
 10
141.599092
 20
30.466843
 42
-0.009179
  0
VERTEX
  8
0
 10
142.268654
 20
24.758886
 42
-0.006718
  0
VERTEX
  8
0
 10
142.712709
 20
19.545777
 42
-0.018996
  0
VERTEX
  8
0
 10
142.835237
 20
15.895263
 42
-0.026567
  0
VERTEX
  8
0
 10
142.684691
 20
13.282575
 42
-0.079378
  0
VERTEX
  8
0
 10
142.210119
 20
11.561815
 42
0.023933
  0
VERTEX
  8
0
 10
141.665461
 20
10.196859
 42
0.144265
  0
VERTEX
  8
0
 10
141.631298
 20
9.442549
 42
0.203540
  0
VERTEX
  8
0
 10
142.014011
 20
8.931613
 42
0.054801
  0
VERTEX
  8
0
 10
142.960513
 20
8.512533
 42
0.086074
  0
VERTEX
  8
0
 10
145.162185
 20
8.212130
 42
0.072277
  0
VERTEX
  8
0
 10
147.482285
 20
8.635331
 42
0.084508
  0
VERTEX
  8
0
 10
149.259519
 20
9.590930
 42
0.228739
  0
VERTEX
  8
0
 10
149.877503
 20
10.841088
 42
-0.001131
  0
VERTEX
  8
0
 10
150.071017
 20
27.495678
 42
-0.010567
  0
VERTEX
  8
0
 10
150.322248
 20
34.668192
 42
-0.022140
  0
VERTEX
  8
0
 10
150.729124
 20
38.706377
 42
-0.126646
  0
VERTEX
  8
0
 10
151.554404
 20
40.676765
 42
0.092939
  0
VERTEX
  8
0
 10
152.645130
 20
42.860400
 42
0.126920
  0
VERTEX
  8
0
 10
152.700773
 20
45.049557
 42
0.077944
  0
VERTEX
  8
0
 10
151.614204
 20
47.749182
 42
0.018853
  0
VERTEX
  8
0
 10
148.984504
 20
51.798860
 42
0.000000
  0
VERTEX
  8
0
 10
144.969008
 20
57.500000
 42
0.000000
  0
VERTEX
  8
0
 10
144.485433
 20
69.708980
 42
0.008967
  0
VERTEX
  8
0
 10
144.123853
 20
75.988076
 42
0.017754
  0
VERTEX
  8
0
 10
143.571389
 20
80.946620
 42
0.020792
  0
VERTEX
  8
0
 10
142.743117
 20
85.299302
 42
0.019469
  0
VERTEX
  8
0
 10
141.541369
 20
89.666087
 42
-0.006580
  0
VERTEX
  8
0
 10
140.631124
 20
92.668888
 42
-0.010361
  0
VERTEX
  8
0
 10
139.937403
 20
95.271956
 42
-0.004712
  0
VERTEX
  8
0
 10
139.421282
 20
97.473231
 42
-0.257015
  0
VERTEX
  8
0
 10
139.536214
 20
97.869547
 42
-0.303771
  0
VERTEX
  8
0
 10
140.689340
 20
98.097988
 42
-0.048952
  0
VERTEX
  8
0
 10
142.814379
 20
96.958841
 42
-0.049011
  0
VERTEX
  8
0
 10
144.871055
 20
95.268827
 42
-0.105814
  0
VERTEX
  8
0
 10
145.978275
 20
93.557141
 42
-0.058717
  0
VERTEX
  8
0
 10
146.300378
 20
92.274423
 42
-0.020226
  0
VERTEX
  8
0
 10
146.469280
 20
90.366114
 42
-0.019778
  0
VERTEX
  8
0
 10
146.486993
 20
88.227763
 42
-0.021658
  0
VERTEX
  8
0
 10
146.332424
 20
86.158985
 42
0.063673
  0
VERTEX
  8
0
 10
146.398926
 20
78.999874
 42
0.033320
  0
VERTEX
  8
0
 10
148.199542
 20
70.255529
 42
0.030195
  0
VERTEX
  8
0
 10
150.900791
 20
62.370943
 42
0.169104
  0
VERTEX
  8
0
 10
153.817219
 20
59.082241
 42
-0.133624
  0
VERTEX
  8
0
 10
154.640359
 20
58.274499
 42
-0.079677
  0
VERTEX
  8
0
 10
155.140119
 20
56.986564
 42
-0.044577
  0
VERTEX
  8
0
 10
155.390324
 20
54.946454
 42
-0.011004
  0
VERTEX
  8
0
 10
155.427233
 20
51.570169
 42
0.008065
  0
VERTEX
  8
0
 10
155.445527
 20
47.951290
 42
0.055973
  0
VERTEX
  8
0
 10
155.680192
 20
46.197497
 42
0.149338
  0
VERTEX
  8
0
 10
156.199568
 20
45.333649
 42
0.185325
  0
VERTEX
  8
0
 10
157.068825
 20
45.000000
 42
0.126917
  0
VERTEX
  8
0
 10
157.810130
 20
45.191249
 42
0.085109
  0
VERTEX
  8
0
 10
158.497101
 20
45.740866
 42
0.070559
  0
VERTEX
  8
0
 10
159.066060
 20
46.599276
 42
0.049675
  0
VERTEX
  8
0
 10
159.458519
 20
47.690750
 42
-0.043885
  0
VERTEX
  8
0
 10
159.858075
 20
48.843626
 42
-0.029293
  0
VERTEX
  8
0
 10
160.503567
 20
50.083797
 42
-0.029509
  0
VERTEX
  8
0
 10
161.277729
 20
51.221547
 42
-0.050010
  0
VERTEX
  8
0
 10
162.067786
 20
52.058791
 42
0.125392
  0
VERTEX
  8
0
 10
163.776624
 20
54.520163
 42
0.032701
  0
VERTEX
  8
0
 10
165.173485
 20
59.167113
 42
0.030881
  0
VERTEX
  8
0
 10
166.124873
 20
64.884725
 42
0.026210
  0
VERTEX
  8
0
 10
166.435406
 20
71.000000
 42
0.021597
  0
VERTEX
  8
0
 10
166.267359
 20
74.743675
 42
0.044120
  0
VERTEX
  8
0
 10
165.752227
 20
77.636447
 42
0.038841
  0
VERTEX
  8
0
 10
164.690572
 20
80.618212
 42
0.013367
  0
VERTEX
  8
0
 10
162.712273
 20
84.751204
 42
-0.013030
  0
VERTEX
  8
0
 10
161.291099
 20
87.715126
 42
-0.014839
  0
VERTEX
  8
0
 10
160.090480
 20
90.624579
 42
-0.014095
  0
VERTEX
  8
0
 10
159.218919
 20
93.140263
 42
-0.076479
  0
VERTEX
  8
0
 10
159.000000
 20
94.563129
 42
0.062053
  0
VERTEX
  8
0
 10
158.832542
 20
95.907255
 42
0.016252
  0
VERTEX
  8
0
 10
158.230199
 20
97.998864
 42
0.016254
  0
VERTEX
  8
0
 10
157.382520
 20
100.354678
 42
0.015994
  0
VERTEX
  8
0
 10
156.379401
 20
102.663341
 42
0.051319
  0
VERTEX
  8
0
 10
153.939232
 20
106.693613
 42
0.097204
  0
VERTEX
  8
0
 10
151.121332
 20
109.215531
 42
0.091994
  0
VERTEX
  8
0
 10
147.448892
 20
110.567556
 42
0.042346
  0
VERTEX
  8
0
 10
142.352006
 20
111.000000
 42
0.028653
  0
VERTEX
  8
0
 10
139.572919
 20
110.840612
 42
0.084731
  0
VERTEX
  8
0
 10
137.743918
 20
110.307460
 42
0.072286
  0
VERTEX
  8
0
 10
136.037470
 20
109.147471
 42
0.017058
  0
VERTEX
  8
0
 10
133.569887
 20
106.728492
 42
0.000000
  0
VERTEX
  8
0
 10
129.500000
 20
102.456985
 42
0.000000
  0
VERTEX
  8
0
 10
123.000000
 20
103.137190
 42
0.018787
  0
VERTEX
  8
0
 10
120.181950
 20
103.325428
 42
0.014298
  0
VERTEX
  8
0
 10
117.087500
 20
103.327079
 42
0.014516
  0
VERTEX
  8
0
 10
114.182712
 20
103.161059
 42
0.032563
  0
VERTEX
  8
0
 10
112.000000
 20
102.828436
 42
-0.004455
  0
VERTEX
  8
0
 10
109.940088
 20
102.394934
 42
-0.002565
  0
VERTEX
  8
0
 10
107.452044
 20
101.907708
 42
-0.002563
  0
VERTEX
  8
0
 10
104.948214
 20
101.444004
 42
-0.004284
  0
VERTEX
  8
0
 10
102.836745
 20
101.082795
 42
-0.005546
  0
VERTEX
  8
0
 10
99.734286
 20
100.614635
 42
-0.138920
  0
VERTEX
  8
0
 10
98.889153
 20
100.731490
 42
-0.362082
  0
VERTEX
  8
0
 10
98.632137
 20
101.246960
 42
-0.032776
  0
VERTEX
  8
0
 10
99.086745
 20
102.728157
 42
0.031660
  0
VERTEX
  8
0
 10
99.834382
 20
105.144868
 42
0.105702
  0
VERTEX
  8
0
 10
99.877475
 20
106.795338
 42
0.144387
  0
VERTEX
  8
0
 10
99.251805
 20
108.023067
 42
0.080497
  0
VERTEX
  8
0
 10
97.906859
 20
109.049847
 42
0.097628
  0
VERTEX
  8
0
 10
95.803673
 20
109.692973
 42
0.085895
  0
VERTEX
  8
0
 10
93.511089
 20
109.533951
 42
0.094943
  0
VERTEX
  8
0
 10
91.597363
 20
108.656414
 42
0.160292
  0
VERTEX
  8
0
 10
90.562321
 20
107.247676
 42
-0.133959
  0
VERTEX
  8
0
 10
89.511482
 20
105.651110
 42
-0.024674
  0
VERTEX
  8
0
 10
86.729196
 20
103.433138
 42
-0.024768
  0
VERTEX
  8
0
 10
83.740424
 20
101.499873
 42
-0.131914
  0
VERTEX
  8
0
 10
81.878695
 20
101.000000
 42
-0.132560
  0
VERTEX
  8
0
 10
81.284387
 20
101.160382
 42
-0.026249
  0
VERTEX
  8
0
 10
80.353571
 20
101.769764
 42
-0.026123
  0
VERTEX
  8
0
 10
79.314856
 20
102.617278
 42
-0.021697
  0
VERTEX
  8
0
 10
78.300769
 20
103.620473
 42
0.033664
  0
VERTEX
  8
0
 10
76.876767
 20
104.963347
 42
0.089924
  0
VERTEX
  8
0
 10
75.663143
 20
105.641272
 42
0.089655
  0
VERTEX
  8
0
 10
74.286562
 20
105.851043
 42
0.033329
  0
VERTEX
  8
0
 10
72.329686
 20
105.666075
 42
0.038307
  0
VERTEX
  8
0
 10
70.873584
 20
105.313672
 42
0.034065
  0
VERTEX
  8
0
 10
69.427764
 20
104.732614
 42
0.035677
  0
VERTEX
  8
0
 10
68.197511
 20
104.025670
 42
0.082451
  0
VERTEX
  8
0
 10
67.425391
 20
103.295602
 42
-0.006860
  0
VERTEX
  8
0
 10
66.538465
 20
102.158865
 42
-0.265200
  0
VERTEX
  8
0
 10
66.249998
 20
102.044971
 42
-0.352959
  0
VERTEX
  8
0
 10
66.064699
 20
102.243975
 42
-0.009837
  0
VERTEX
  8
0
 10
66.000000
 20
103.500000
 42
0.086693
  0
VERTEX
  8
0
 10
65.597779
 20
105.436950
 42
0.073285
  0
VERTEX
  8
0
 10
64.549589
 20
107.250748
 42
0.079519
  0
VERTEX
  8
0
 10
63.128028
 20
108.553392
 42
0.146809
  0
VERTEX
  8
0
 10
61.639757
 20
109.000000
 42
-0.080211
  0
VERTEX
  8
0
 10
61.013423
 20
109.101129
 42
-0.091404
  0
VERTEX
  8
0
 10
60.481679
 20
109.393323
 42
-0.100746
  0
VERTEX
  8
0
 10
60.126164
 20
109.828292
 42
-0.121697
  0
VERTEX
  8
0
 10
60.000000
 20
110.338971
 42
0.156287
  0
VERTEX
  8
0
 10
59.181821
 20
112.892581
 42
0.017888
  0
VERTEX
  8
0
 10
55.449157
 20
117.742935
 42
0.020638
  0
VERTEX
  8
0
 10
50.521856
 20
123.216237
 42
0.016986
  0
VERTEX
  8
0
 10
44.839018
 20
128.645764
 42
0.047948
  0
VERTEX
  8
0
 10
42.362806
 20
130.461899
 42
0.030448
  0
VERTEX
  8
0
 10
39.181456
 20
132.102456
 42
0.028813
  0
VERTEX
  8
0
 10
35.587744
 20
133.445399
 42
0.028734
  0
VERTEX
  8
0
 10
31.860187
 20
134.367719
 42
-0.033335
  0
VERTEX
  8
0
 10
30.226898
 20
134.787818
 42
-0.062676
  0
VERTEX
  8
0
 10
28.998382
 20
135.371570
 42
-0.080338
  0
VERTEX
  8
0
 10
28.162651
 20
136.118135
 42
-0.106799
  0
VERTEX
  8
0
 10
27.703807
 20
137.024642
 42
0.192939
  0
VERTEX
  8
0
 10
26.550787
 20
138.583100
 42
0.156493
  0
VERTEX
  8
0
 10
24.516841
 20
139.085508
 42
0.138506
  0
VERTEX
  8
0
 10
22.379837
 20
138.320988
 42
0.148234
  0
SEQEND
  0
POLYLINE
  8
0
 66
1
 70
1
  0
VERTEX
  8
0
 10
11.384989
 20
110.872914
 42
-0.065332
  0
VERTEX
  8
0
 10
10.094089
 20
109.775069
 42
-0.071261
  0
VERTEX
  8
0
 10
8.599781
 20
109.086135
 42
-0.116402
  0
VERTEX
  8
0
 10
7.458342
 20
109.019912
 42
-0.364175
  0
VERTEX
  8
0
 10
7.000000
 20
109.565741
 42
-0.113219
  0
VERTEX
  8
0
 10
7.346919
 20
111.078173
 42
-0.093885
  0
VERTEX
  8
0
 10
8.333197
 20
112.407901
 42
-0.100207
  0
VERTEX
  8
0
 10
9.673566
 20
113.221691
 42
-0.151566
  0
VERTEX
  8
0
 10
11.026889
 20
113.282718
 42
-0.021926
  0
VERTEX
  8
0
 10
12.242429
 20
112.907208
 42
-0.276706
  0
VERTEX
  8
0
 10
12.534543
 20
112.551412
 42
-0.210566
  0
VERTEX
  8
0
 10
12.398144
 20
112.053821
 42
-0.013238
  0
SEQEND
  0
POLYLINE
  8
0
 66
1
 70
1
  0
VERTEX
  8
0
 10
39.000000
 20
111.893011
 42
0.164455
  0
VERTEX
  8
0
 10
39.115158
 20
111.552359
 42
0.095748
  0
VERTEX
  8
0
 10
39.440625
 20
111.262322
 42
0.076852
  0
VERTEX
  8
0
 10
39.926285
 20
111.066322
 42
0.057609
  0
VERTEX
  8
0
 10
40.500000
 20
111.000000
 42
-0.127718
  0
VERTEX
  8
0
 10
41.072045
 20
110.851456
 42
-0.100747
  0
VERTEX
  8
0
 10
41.559375
 20
110.433482
 42
-0.089419
  0
VERTEX
  8
0
 10
41.887015
 20
109.808240
 42
-0.076226
  0
VERTEX
  8
0
 10
42.000000
 20
109.071429
 42
0.058030
  0
VERTEX
  8
0
 10
42.097334
 20
108.235600
 42
0.038948
  0
VERTEX
  8
0
 10
42.390792
 20
107.318583
 42
0.039072
  0
VERTEX
  8
0
 10
42.820849
 20
106.462811
 42
0.060478
  0
VERTEX
  8
0
 10
43.330357
 20
105.812500
 42
-0.058666
  0
VERTEX
  8
0
 10
43.807315
 20
105.208243
 42
-0.054716
  0
VERTEX
  8
0
 10
44.144198
 20
104.495765
 42
-0.058703
  0
VERTEX
  8
0
 10
44.298966
 20
103.787327
 42
-0.105277
  0
VERTEX
  8
0
 10
44.232720
 20
103.198159
 42
0.068947
  0
VERTEX
  8
0
 10
44.109667
 20
102.537232
 42
0.024203
  0
VERTEX
  8
0
 10
44.111601
 20
101.569575
 42
0.023495
  0
VERTEX
  8
0
 10
44.216863
 20
100.492024
 42
0.025392
  0
VERTEX
  8
0
 10
44.421414
 20
99.457087
 42
0.135722
  0
VERTEX
  8
0
 10
45.366053
 20
97.790664
 42
0.159876
  0
VERTEX
  8
0
 10
46.977700
 20
96.975585
 42
0.218736
  0
VERTEX
  8
0
 10
48.407150
 20
97.385896
 42
0.209063
  0
VERTEX
  8
0
 10
49.063386
 20
98.750000
 42
-0.010070
  0
VERTEX
  8
0
 10
49.117910
 20
99.716650
 42
-0.476888
  0
VERTEX
  8
0
 10
49.259262
 20
99.814256
 42
-0.225889
  0
VERTEX
  8
0
 10
49.450128
 20
99.643460
 42
-0.005308
  0
VERTEX
  8
0
 10
49.914677
 20
98.500000
 42
-0.022617
  0
VERTEX
  8
0
 10
51.141360
 20
94.919358
 42
-0.086005
  0
VERTEX
  8
0
 10
51.407460
 20
92.579595
 42
-0.115086
  0
VERTEX
  8
0
 10
50.839577
 20
90.659135
 42
-0.057813
  0
VERTEX
  8
0
 10
49.336847
 20
88.607472
 42
-0.053556
  0
VERTEX
  8
0
 10
47.456831
 20
86.971442
 42
-0.273900
  0
VERTEX
  8
0
 10
46.131721
 20
86.872644
 42
-0.237198
  0
VERTEX
  8
0
 10
45.269695
 20
88.019046
 42
-0.043064
  0
VERTEX
  8
0
 10
45.015313
 20
90.750000
 42
0.042491
  0
VERTEX
  8
0
 10
44.936070
 20
91.611380
 42
0.061885
  0
VERTEX
  8
0
 10
44.710748
 20
92.339062
 42
0.081007
  0
VERTEX
  8
0
 10
44.383543
 20
92.832484
 42
0.208855
  0
VERTEX
  8
0
 10
44.000000
 20
93.000000
 42
-0.169034
  0
VERTEX
  8
0
 10
43.615946
 20
93.133656
 42
-0.092324
  0
VERTEX
  8
0
 10
43.284408
 20
93.514062
 42
-0.073748
  0
VERTEX
  8
0
 10
43.054507
 20
94.080579
 42
-0.055083
  0
VERTEX
  8
0
 10
42.968197
 20
94.750000
 42
0.062288
  0
VERTEX
  8
0
 10
42.852023
 20
95.559234
 42
0.029757
  0
VERTEX
  8
0
 10
42.514453
 20
96.556144
 42
0.028940
  0
VERTEX
  8
0
 10
42.032583
 20
97.569537
 42
0.036476
  0
VERTEX
  8
0
 10
41.468197
 20
98.441130
 42
-0.069664
  0
VERTEX
  8
0
 10
40.904069
 20
99.453316
 42
-0.029849
  0
VERTEX
  8
0
 10
40.431283
 20
100.930908
 42
-0.028816
  0
VERTEX
  8
0
 10
40.108022
 20
102.590440
 42
-0.033704
  0
VERTEX
  8
0
 10
40.000000
 20
104.191130
 42
0.024800
  0
VERTEX
  8
0
 10
39.927559
 20
105.650747
 42
0.039413
  0
VERTEX
  8
0
 10
39.706250
 20
106.881144
 42
0.046856
  0
VERTEX
  8
0
 10
39.386583
 20
107.755808
 42
0.289385
  0
VERTEX
  8
0
 10
39.000000
 20
108.000000
 42
-0.191087
  0
VERTEX
  8
0
 10
38.618118
 20
108.151477
 42
-0.088204
  0
VERTEX
  8
0
 10
38.293750
 20
108.587500
 42
-0.068025
  0
VERTEX
  8
0
 10
38.073693
 20
109.234582
 42
-0.048028
  0
VERTEX
  8
0
 10
38.000000
 20
110.000000
 42
0.048028
  0
VERTEX
  8
0
 10
37.926307
 20
110.765418
 42
0.068025
  0
VERTEX
  8
0
 10
37.706250
 20
111.412500
 42
0.088204
  0
VERTEX
  8
0
 10
37.381882
 20
111.848523
 42
0.191087
  0
VERTEX
  8
0
 10
37.000000
 20
112.000000
 42
-0.095827
  0
VERTEX
  8
0
 10
36.618313
 20
112.073830
 42
-0.097132
  0
VERTEX
  8
0
 10
36.293750
 20
112.284531
 42
-0.098664
  0
VERTEX
  8
0
 10
36.076457
 20
112.599000
 42
-0.102345
  0
VERTEX
  8
0
 10
36.000000
 20
112.968615
 42
-0.184534
  0
VERTEX
  8
0
 10
36.122486
 20
113.289193
 42
-0.147206
  0
VERTEX
  8
0
 10
36.440625
 20
113.483616
 42
-0.100118
  0
VERTEX
  8
0
 10
36.925634
 20
113.511135
 42
-0.055937
  0
VERTEX
  8
0
 10
37.500000
 20
113.361626
 42
-0.048303
  0
VERTEX
  8
0
 10
38.073796
 20
113.075237
 42
-0.053891
  0
VERTEX
  8
0
 10
38.559375
 20
112.692784
 42
-0.061199
  0
VERTEX
  8
0
 10
38.891374
 20
112.276919
 42
-0.138750
  0
SEQEND
  0
POLYLINE
  8
0
 66
1
 70
1
  0
VERTEX
  8
0
 10
127.000000
 20
87.989079
 42
0.011793
  0
VERTEX
  8
0
 10
127.636130
 20
86.224877
 42
0.015181
  0
VERTEX
  8
0
 10
128.307338
 20
84.637367
 42
0.012987
  0
VERTEX
  8
0
 10
128.935947
 20
83.356846
 42
0.114788
  0
VERTEX
  8
0
 10
129.344129
 20
82.882808
 42
-0.219408
  0
VERTEX
  8
0
 10
130.243403
 20
81.265613
 42
-0.024181
  0
VERTEX
  8
0
 10
130.361544
 20
76.918148
 42
-0.023920
  0
VERTEX
  8
0
 10
130.061747
 20
72.581096
 42
-0.228762
  0
VERTEX
  8
0
 10
129.093626
 20
71.059432
 42
0.279027
  0
VERTEX
  8
0
 10
128.201888
 20
69.313460
 42
0.050233
  0
VERTEX
  8
0
 10
128.855278
 20
65.560941
 42
0.050271
  0
VERTEX
  8
0
 10
130.242863
 20
62.017425
 42
0.281369
  0
VERTEX
  8
0
 10
131.907720
 20
61.000000
 42
-0.147484
  0
VERTEX
  8
0
 10
133.230438
 20
60.601167
 42
-0.037443
  0
VERTEX
  8
0
 10
135.021189
 20
59.209740
 42
-0.036642
  0
VERTEX
  8
0
 10
136.572555
 20
57.584452
 42
-0.173944
  0
VERTEX
  8
0
 10
137.000000
 20
56.392940
 42
0.124089
  0
VERTEX
  8
0
 10
137.089834
 20
56.036539
 42
0.009464
  0
VERTEX
  8
0
 10
137.580184
 20
55.165556
 42
0.012551
  0
VERTEX
  8
0
 10
138.218570
 20
54.140002
 42
0.009223
  0
VERTEX
  8
0
 10
138.975095
 20
53.034977
 42
-0.028722
  0
VERTEX
  8
0
 10
140.629944
 20
50.403342
 42
-0.030616
  0
VERTEX
  8
0
 10
141.933533
 20
47.653692
 42
-0.053922
  0
VERTEX
  8
0
 10
142.451938
 20
45.807558
 42
-0.644638
  0
VERTEX
  8
0
 10
141.996977
 20
45.501868
 42
-0.084749
  0
VERTEX
  8
0
 10
141.615370
 20
45.838369
 42
-0.053425
  0
VERTEX
  8
0
 10
141.292862
 20
46.339004
 42
-0.051853
  0
VERTEX
  8
0
 10
141.073918
 20
46.917301
 42
-0.064667
  0
VERTEX
  8
0
 10
141.000000
 20
47.486437
 42
0.124798
  0
VERTEX
  8
0
 10
140.832936
 20
48.145349
 42
0.036679
  0
VERTEX
  8
0
 10
140.265625
 20
49.030531
 42
0.034338
  0
VERTEX
  8
0
 10
139.456782
 20
49.967905
 42
0.030936
  0
VERTEX
  8
0
 10
138.500000
 20
50.821340
 42
-0.016585
  0
VERTEX
  8
0
 10
137.542546
 20
51.627274
 42
-0.022271
  0
VERTEX
  8
0
 10
136.734375
 20
52.422592
 42
-0.020237
  0
VERTEX
  8
0
 10
136.134820
 20
53.122377
 42
-0.168556
  0
VERTEX
  8
0
 10
136.000000
 20
53.510941
 42
0.201365
  0
VERTEX
  8
0
 10
135.446655
 20
54.829213
 42
0.009547
  0
VERTEX
  8
0
 10
131.881425
 20
58.196619
 42
0.013720
  0
VERTEX
  8
0
 10
128.240530
 20
61.328221
 42
0.094169
  0
VERTEX
  8
0
 10
126.170982
 20
62.445732
 42
-0.096017
  0
VERTEX
  8
0
 10
125.315644
 20
62.911651
 42
-0.060176
  0
VERTEX
  8
0
 10
124.527793
 20
63.739970
 42
-0.054994
  0
VERTEX
  8
0
 10
123.892801
 20
64.823031
 42
-0.051094
  0
VERTEX
  8
0
 10
123.490044
 20
66.045329
 42
0.027950
  0
VERTEX
  8
0
 10
123.174311
 20
67.176954
 42
0.040100
  0
VERTEX
  8
0
 10
122.761310
 20
68.132066
 42
0.045943
  0
VERTEX
  8
0
 10
122.318242
 20
68.808169
 42
0.228577
  0
VERTEX
  8
0
 10
121.920545
 20
69.000000
 42
-0.173933
  0
VERTEX
  8
0
 10
121.569285
 20
69.126004
 42
-0.093363
  0
VERTEX
  8
0
 10
121.270410
 20
69.483903
 42
-0.073658
  0
VERTEX
  8
0
 10
121.068164
 20
70.017117
 42
-0.053923
  0
VERTEX
  8
0
 10
121.000000
 20
70.647329
 42
0.079562
  0
VERTEX
  8
0
 10
120.577722
 20
73.284305
 42
0.012373
  0
VERTEX
  8
0
 10
118.799041
 20
78.275666
 42
0.006376
  0
VERTEX
  8
0
 10
116.749602
 20
83.409519
 42
0.303382
  0
VERTEX
  8
0
 10
115.866009
 20
84.000000
 42
-0.213860
  0
VERTEX
  8
0
 10
115.534769
 20
84.148469
 42
-0.080025
  0
VERTEX
  8
0
 10
115.254390
 20
84.587500
 42
-0.060877
  0
VERTEX
  8
0
 10
115.063480
 20
85.234265
 42
-0.041379
  0
VERTEX
  8
0
 10
115.000000
 20
86.000000
 42
-0.048028
  0
VERTEX
  8
0
 10
115.073693
 20
86.765418
 42
-0.068025
  0
VERTEX
  8
0
 10
115.293750
 20
87.412500
 42
-0.088204
  0
VERTEX
  8
0
 10
115.618118
 20
87.848523
 42
-0.191087
  0
VERTEX
  8
0
 10
116.000000
 20
88.000000
 42
0.185820
  0
VERTEX
  8
0
 10
116.381776
 20
88.146957
 42
0.089892
  0
VERTEX
  8
0
 10
116.706250
 20
88.567988
 42
0.069733
  0
VERTEX
  8
0
 10
116.926204
 20
89.193660
 42
0.049744
  0
VERTEX
  8
0
 10
117.000000
 20
89.933578
 42
-0.095900
  0
VERTEX
  8
0
 10
117.172356
 20
90.823938
 42
-0.120370
  0
VERTEX
  8
0
 10
117.660672
 20
91.505032
 42
-0.095612
  0
VERTEX
  8
0
 10
118.507465
 20
91.988243
 42
-0.043558
  0
VERTEX
  8
0
 10
119.750000
 20
92.293423
 42
-0.030200
  0
VERTEX
  8
0
 10
122.901748
 20
92.588657
 42
-0.143165
  0
VERTEX
  8
0
 10
124.639146
 20
92.142474
 42
-0.146855
  0
VERTEX
  8
0
 10
125.838585
 20
90.837792
 42
-0.032334
  0
SEQEND
  0
POLYLINE
  8
0
 66
1
 70
1
  0
VERTEX
  8
0
 10
64.028592
 20
79.000000
 42
0.072858
  0
VERTEX
  8
0
 10
64.781912
 20
79.110357
 42
0.087559
  0
VERTEX
  8
0
 10
65.420899
 20
79.431406
 42
0.100515
  0
VERTEX
  8
0
 10
65.848068
 20
79.908566
 42
0.133234
  0
VERTEX
  8
0
 10
66.000000
 20
80.468615
 42
-0.094119
  0
VERTEX
  8
0
 10
66.106211
 20
81.027855
 42
-0.166113
  0
VERTEX
  8
0
 10
66.407358
 20
81.382077
 42
-0.151899
  0
VERTEX
  8
0
 10
66.885039
 20
81.496694
 42
-0.075244
  0
VERTEX
  8
0
 10
67.500000
 20
81.361626
 42
-0.140603
  0
VERTEX
  8
0
 10
68.120783
 20
80.893824
 42
-0.071188
  0
VERTEX
  8
0
 10
68.597068
 20
80.029206
 42
-0.056009
  0
VERTEX
  8
0
 10
68.900413
 20
78.838564
 42
-0.034405
  0
VERTEX
  8
0
 10
69.000000
 20
77.393011
 42
0.026943
  0
VERTEX
  8
0
 10
69.083234
 20
75.849524
 42
0.077280
  0
VERTEX
  8
0
 10
69.360521
 20
74.815502
 42
0.129070
  0
VERTEX
  8
0
 10
69.834424
 20
74.220972
 42
0.161662
  0
VERTEX
  8
0
 10
70.500000
 20
74.000000
 42
-0.139349
  0
VERTEX
  8
0
 10
71.115913
 20
73.824947
 42
-0.117124
  0
VERTEX
  8
0
 10
71.596519
 20
73.342784
 42
-0.088666
  0
VERTEX
  8
0
 10
71.900063
 20
72.568747
 42
-0.049254
  0
VERTEX
  8
0
 10
72.000000
 20
71.556704
 42
0.074473
  0
VERTEX
  8
0
 10
72.160140
 20
70.487515
 42
0.052500
  0
VERTEX
  8
0
 10
72.636692
 20
69.367394
 42
0.051334
  0
VERTEX
  8
0
 10
73.352270
 20
68.342971
 42
0.061948
  0
VERTEX
  8
0
 10
74.222506
 20
67.556704
 42
0.000000
  0
VERTEX
  8
0
 10
76.445012
 20
66.000000
 42
0.000000
  0
VERTEX
  8
0
 10
74.230980
 20
66.000000
 42
-0.078081
  0
VERTEX
  8
0
 10
73.291568
 20
66.147600
 42
-0.053060
  0
VERTEX
  8
0
 10
72.300420
 20
66.587500
 42
-0.052416
  0
VERTEX
  8
0
 10
71.409683
 20
67.234858
 42
-0.069951
  0
VERTEX
  8
0
 10
70.767927
 20
68.000000
 42
0.037912
  0
VERTEX
  8
0
 10
70.205201
 20
68.765289
 42
0.041439
  0
VERTEX
  8
0
 10
69.548534
 20
69.412500
 42
0.045442
  0
VERTEX
  8
0
 10
68.898785
 20
69.861317
 42
0.129129
  0
VERTEX
  8
0
 10
68.370744
 20
70.000000
 42
-0.227108
  0
VERTEX
  8
0
 10
67.884318
 20
70.232958
 42
-0.050400
  0
VERTEX
  8
0
 10
67.366977
 20
71.028125
 42
-0.042846
  0
VERTEX
  8
0
 10
66.901294
 20
72.159582
 42
-0.029850
  0
VERTEX
  8
0
 10
66.565978
 20
73.500000
 42
0.029527
  0
VERTEX
  8
0
 10
66.163130
 20
75.114800
 42
0.078172
  0
VERTEX
  8
0
 10
65.636648
 20
76.178650
 42
0.115974
  0
VERTEX
  8
0
 10
64.954033
 20
76.782570
 42
0.123977
  0
VERTEX
  8
0
 10
64.090611
 20
77.000000
 42
0.136683
  0
VERTEX
  8
0
 10
63.189391
 20
76.748947
 42
0.131462
  0
VERTEX
  8
0
 10
62.531807
 20
76.065352
 42
0.073202
  0
VERTEX
  8
0
 10
62.053079
 20
74.787449
 42
0.019022
  0
VERTEX
  8
0
 10
61.671441
 20
72.619556
 42
0.022929
  0
VERTEX
  8
0
 10
61.500420
 20
70.732165
 42
0.018148
  0
VERTEX
  8
0
 10
61.483570
 20
68.682936
 42
0.018502
  0
VERTEX
  8
0
 10
61.607744
 20
66.777283
 42
0.042801
  0
VERTEX
  8
0
 10
61.875002
 20
65.369556
 42
-0.060485
  0
VERTEX
  8
0
 10
62.384813
 20
62.049059
 42
-0.011813
  0
VERTEX
  8
0
 10
62.432689
 20
55.987735
 42
-0.006728
  0
VERTEX
  8
0
 10
62.250275
 20
49.738720
 42
-0.187854
  0
VERTEX
  8
0
 10
61.606117
 20
48.272784
 42
-0.213250
  0
VERTEX
  8
0
 10
61.378209
 20
48.185645
 42
-0.241955
  0
VERTEX
  8
0
 10
61.178047
 20
48.302869
 42
-0.104709
  0
VERTEX
  8
0
 10
61.041648
 20
48.667950
 42
-0.037241
  0
VERTEX
  8
0
 10
61.000000
 20
49.226345
 42
0.080311
  0
VERTEX
  8
0
 10
60.897236
 20
49.862007
 42
0.065549
  0
VERTEX
  8
0
 10
60.596232
 20
50.482807
 42
0.066578
  0
VERTEX
  8
0
 10
60.150948
 20
50.995303
 42
0.089258
  0
VERTEX
  8
0
 10
59.625470
 20
51.313479
 42
-0.174086
  0
VERTEX
  8
0
 10
59.054086
 20
51.805720
 42
-0.035438
  0
VERTEX
  8
0
 10
58.470977
 20
53.031233
 42
-0.033450
  0
VERTEX
  8
0
 10
57.965700
 20
54.628453
 42
-0.025949
  0
VERTEX
  8
0
 10
57.625470
 20
56.420468
 42
-0.000018
  0
VERTEX
  8
0
 10
57.341563
 20
58.499722
 42
-0.000011
  0
VERTEX
  8
0
 10
57.003503
 20
60.976637
 42
-0.000011
  0
VERTEX
  8
0
 10
56.666583
 20
63.445999
 42
-0.000019
  0
VERTEX
  8
0
 10
56.386456
 20
65.500000
 42
0.017881
  0
VERTEX
  8
0
 10
55.994240
 20
67.767667
 42
0.074345
  0
VERTEX
  8
0
 10
55.512505
 20
69.065421
 42
0.136663
  0
VERTEX
  8
0
 10
54.842386
 20
69.748938
 42
0.131666
  0
VERTEX
  8
0
 10
53.905508
 20
70.000000
 42
0.105141
  0
VERTEX
  8
0
 10
53.089276
 20
69.826442
 42
0.092109
  0
VERTEX
  8
0
 10
52.369760
 20
69.331309
 42
0.079613
  0
VERTEX
  8
0
 10
51.796999
 20
68.538246
 42
0.055227
  0
VERTEX
  8
0
 10
51.410644
 20
67.500000
 42
-0.031538
  0
VERTEX
  8
0
 10
51.105107
 20
66.542749
 42
-0.043524
  0
VERTEX
  8
0
 10
50.705595
 20
65.734375
 42
-0.050787
  0
VERTEX
  8
0
 10
50.277325
 20
65.168069
 42
-0.208396
  0
VERTEX
  8
0
 10
49.891592
 20
65.000000
 42
-0.235020
  0
VERTEX
  8
0
 10
49.538593
 20
65.175624
 42
-0.063261
  0
VERTEX
  8
0
 10
49.217843
 20
65.734375
 42
-0.050073
  0
VERTEX
  8
0
 10
48.972534
 20
66.542526
 42
-0.033691
  0
VERTEX
  8
0
 10
48.850000
 20
67.500000
 42
0.001479
  0
VERTEX
  8
0
 10
48.785234
 20
68.528539
 42
0.001501
  0
VERTEX
  8
0
 10
48.714688
 20
69.551657
 42
0.001458
  0
VERTEX
  8
0
 10
48.648052
 20
70.441306
 42
0.006166
  0
VERTEX
  8
0
 10
48.600000
 20
70.973725
 42
-0.191282
  0
VERTEX
  8
0
 10
48.772781
 20
71.584565
 42
-0.007009
  0
VERTEX
  8
0
 10
50.291875
 20
73.511192
 42
-0.011907
  0
VERTEX
  8
0
 10
52.208091
 20
75.760954
 42
-0.007982
  0
VERTEX
  8
0
 10
54.500000
 20
78.244550
 42
0.000000
  0
VERTEX
  8
0
 10
60.500000
 20
84.541650
 42
0.000000
  0
VERTEX
  8
0
 10
61.278592
 20
81.770825
 42
0.046101
  0
VERTEX
  8
0
 10
61.740388
 20
80.566186
 42
0.081032
  0
VERTEX
  8
0
 10
62.358576
 20
79.700112
 42
0.098077
  0
VERTEX
  8
0
 10
63.126303
 20
79.182017
 42
0.099858
  0
SEQEND
  0
POLYLINE
  8
0
 66
1
 70
1
  0
VERTEX
  8
0
 10
91.000000
 20
82.000000
 42
-0.099038
  0
VERTEX
  8
0
 10
90.923658
 20
81.618362
 42
-0.097945
  0
VERTEX
  8
0
 10
90.706250
 20
81.293750
 42
-0.097945
  0
VERTEX
  8
0
 10
90.381638
 20
81.076342
 42
-0.099038
  0
VERTEX
  8
0
 10
90.000000
 20
81.000000
 42
-0.099038
  0
VERTEX
  8
0
 10
89.618362
 20
81.076342
 42
-0.097945
  0
VERTEX
  8
0
 10
89.293750
 20
81.293750
 42
-0.097945
  0
VERTEX
  8
0
 10
89.076342
 20
81.618362
 42
-0.099038
  0
VERTEX
  8
0
 10
89.000000
 20
82.000000
 42
-0.099038
  0
VERTEX
  8
0
 10
89.076342
 20
82.381638
 42
-0.097945
  0
VERTEX
  8
0
 10
89.293750
 20
82.706250
 42
-0.097945
  0
VERTEX
  8
0
 10
89.618362
 20
82.923658
 42
-0.099038
  0
VERTEX
  8
0
 10
90.000000
 20
83.000000
 42
-0.099038
  0
VERTEX
  8
0
 10
90.381638
 20
82.923658
 42
-0.097945
  0
VERTEX
  8
0
 10
90.706250
 20
82.706250
 42
-0.097945
  0
VERTEX
  8
0
 10
90.923658
 20
82.381638
 42
-0.099038
  0
SEQEND
  0
POLYLINE
  8
0
 66
1
 70
1
  0
VERTEX
  8
0
 10
76.000000
 20
54.597825
 42
-0.245438
  0
VERTEX
  8
0
 10
75.525501
 20
53.689417
 42
-0.026541
  0
VERTEX
  8
0
 10
73.447350
 20
52.400937
 42
-0.031760
  0
VERTEX
  8
0
 10
71.149159
 20
51.323385
 42
-0.094009
  0
VERTEX
  8
0
 10
69.444396
 20
51.000000
 42
-0.433249
  0
VERTEX
  8
0
 10
69.364998
 20
51.084696
 42
-0.015981
  0
VERTEX
  8
0
 10
69.412066
 20
51.570875
 42
-0.020185
  0
VERTEX
  8
0
 10
69.518978
 20
52.198072
 42
-0.011645
  0
VERTEX
  8
0
 10
69.695451
 20
52.943404
 42
-0.098266
  0
VERTEX
  8
0
 10
70.087367
 20
53.751264
 42
-0.070917
  0
VERTEX
  8
0
 10
70.800039
 20
54.458568
 42
-0.064667
  0
VERTEX
  8
0
 10
71.753817
 20
54.993158
 42
-0.057388
  0
VERTEX
  8
0
 10
72.851831
 20
55.293572
 42
0.003824
  0
VERTEX
  8
0
 10
73.884602
 20
55.460301
 42
0.005509
  0
VERTEX
  8
0
 10
74.795538
 20
55.624862
 42
0.003030
  0
VERTEX
  8
0
 10
75.561090
 20
55.776703
 42
0.084718
  0
VERTEX
  8
0
 10
75.750000
 20
55.850168
 42
-0.464054
  0
VERTEX
  8
0
 10
75.846576
 20
55.817192
 42
-0.043970
  0
VERTEX
  8
0
 10
75.926563
 20
55.544098
 42
-0.032442
  0
VERTEX
  8
0
 10
75.982240
 20
55.125310
 42
-0.016830
  0
SEQEND
  0
ENDSEC
  0
EOF
