  0
SECTION
  2
HEADER
  9
$ACADVER
  1
AC1006
  9
$EXTMIN
 10
0.000000
 20
0.000000
 30
0.000000
  9
$EXTMAX
 10
90.000000
 20
107.000000
 30
0.000000
  0
ENDSEC
  0
SECTION
  2
ENTITIES
  0
POLYLINE
  8
0
 66
1
 70
1
  0
VERTEX
  8
0
 10
64.500000
 20
105.898426
 42
-0.014628
  0
VERTEX
  8
0
 10
61.558231
 20
103.119555
 42
-0.006954
  0
VERTEX
  8
0
 10
57.619325
 20
99.708057
 42
-0.002116
  0
VERTEX
  8
0
 10
53.516578
 20
96.282907
 42
-0.173108
  0
VERTEX
  8
0
 10
52.750000
 20
96.004319
 42
0.388674
  0
VERTEX
  8
0
 10
52.074161
 20
95.378276
 42
0.077909
  0
VERTEX
  8
0
 10
52.205583
 20
93.588162
 42
0.040454
  0
VERTEX
  8
0
 10
53.131371
 20
90.694569
 42
0.013632
  0
VERTEX
  8
0
 10
54.929928
 20
86.642967
 42
-0.043559
  0
VERTEX
  8
0
 10
59.200849
 20
75.226433
 42
-0.034868
  0
VERTEX
  8
0
 10
61.825863
 20
62.356853
 42
-0.035348
  0
VERTEX
  8
0
 10
62.546013
 20
50.533803
 42
-0.113554
  0
VERTEX
  8
0
 10
60.713779
 20
42.913784
 42
-0.125840
  0
VERTEX
  8
0
 10
56.726897
 20
38.298487
 42
-0.084771
  0
VERTEX
  8
0
 10
50.392840
 20
35.325661
 42
-0.083780
  0
VERTEX
  8
0
 10
43.355097
 20
34.601659
 42
-0.117767
  0
VERTEX
  8
0
 10
37.346183
 20
36.454576
 42
-0.064873
  0
VERTEX
  8
0
 10
33.689213
 20
39.311139
 42
-0.094517
  0
VERTEX
  8
0
 10
31.420645
 20
42.702012
 42
-0.073469
  0
VERTEX
  8
0
 10
30.219090
 20
47.321195
 42
-0.026067
  0
VERTEX
  8
0
 10
29.838103
 20
54.155710
 42
-0.013079
  0
VERTEX
  8
0
 10
29.958451
 20
59.482084
 42
-0.029012
  0
VERTEX
  8
0
 10
30.390993
 20
63.518439
 42
-0.028028
  0
VERTEX
  8
0
 10
31.298536
 20
67.561614
 42
-0.011444
  0
VERTEX
  8
0
 10
32.962122
 20
72.944651
 42
-0.005379
  0
VERTEX
  8
0
 10
34.349764
 20
76.951668
 42
-0.004477
  0
VERTEX
  8
0
 10
35.908817
 20
81.182088
 42
-0.004521
  0
VERTEX
  8
0
 10
37.406089
 20
85.030014
 42
-0.012219
  0
VERTEX
  8
0
 10
38.559726
 20
87.724287
 42
0.008028
  0
VERTEX
  8
0
 10
39.493937
 20
89.856529
 42
0.010267
  0
VERTEX
  8
0
 10
40.281979
 20
91.850601
 42
0.008377
  0
VERTEX
  8
0
 10
40.876264
 20
93.535620
 42
0.081589
  0
VERTEX
  8
0
 10
40.995948
 20
94.279635
 42
0.249451
  0
VERTEX
  8
0
 10
40.054755
 20
96.034693
 42
0.007184
  0
VERTEX
  8
0
 10
32.709676
 20
100.797355
 42
0.010188
  0
VERTEX
  8
0
 10
25.396212
 20
105.186408
 42
0.130773
  0
VERTEX
  8
0
 10
22.338718
 20
106.000000
 42
0.044890
  0
VERTEX
  8
0
 10
21.443493
 20
105.919464
 42
0.064758
  0
VERTEX
  8
0
 10
20.686998
 20
105.678159
 42
0.084683
  0
VERTEX
  8
0
 10
20.175719
 20
105.323039
 42
0.201347
  0
VERTEX
  8
0
 10
20.000000
 20
104.904370
 42
-0.102088
  0
VERTEX
  8
0
 10
19.876269
 20
104.304684
 42
-0.018061
  0
VERTEX
  8
0
 10
19.381439
 20
103.261893
 42
-0.018890
  0
VERTEX
  8
0
 10
18.700429
 20
102.064038
 42
-0.016013
  0
VERTEX
  8
0
 10
17.894260
 20
100.851502
 42
0.037126
  0
VERTEX
  8
0
 10
16.964556
 20
99.316432
 42
0.054014
  0
VERTEX
  8
0
 10
16.403878
 20
97.837715
 42
0.056580
  0
VERTEX
  8
0
 10
16.188709
 20
96.326771
 42
0.046284
  0
VERTEX
  8
0
 10
16.293291
 20
94.697131
 42
-0.091118
  0
VERTEX
  8
0
 10
16.237333
 20
92.472097
 42
-0.035228
  0
VERTEX
  8
0
 10
15.389339
 20
89.492912
 42
-0.021579
  0
VERTEX
  8
0
 10
13.636669
 20
85.239775
 42
-0.005482
  0
VERTEX
  8
0
 10
10.422454
 20
78.500000
 42
0.022534
  0
VERTEX
  8
0
 10
4.116368
 20
64.026701
 42
0.046665
  0
VERTEX
  8
0
 10
0.800095
 20
52.163262
 42
0.056918
  0
VERTEX
  8
0
 10
0.102186
 20
41.540211
 42
0.056088
  0
VERTEX
  8
0
 10
1.808482
 20
30.978358
 42
0.041549
  0
VERTEX
  8
0
 10
4.086183
 20
24.839330
 42
0.032433
  0
VERTEX
  8
0
 10
7.517305
 20
18.605756
 42
0.033192
  0
VERTEX
  8
0
 10
11.576371
 20
13.089481
 42
0.056088
  0
VERTEX
  8
0
 10
15.740040
 20
9.147894
 42
0.053073
  0
VERTEX
  8
0
 10
20.328701
 20
6.397939
 42
0.024871
  0
VERTEX
  8
0
 10
26.754684
 20
3.800566
 42
0.024312
  0
VERTEX
  8
0
 10
33.828109
 20
1.722285
 42
0.031290
  0
VERTEX
  8
0
 10
40.500000
 20
0.545406
 42
0.047393
  0
VERTEX
  8
0
 10
46.467621
 20
0.442023
 42
0.025136
  0
VERTEX
  8
0
 10
53.809988
 20
1.384425
 42
0.024878
  0
VERTEX
  8
0
 10
61.235583
 20
3.104754
 42
0.036867
  0
VERTEX
  8
0
 10
67.506085
 20
5.401519
 42
0.073233
  0
VERTEX
  8
0
 10
74.437929
 20
9.854512
 42
0.053551
  0
VERTEX
  8
0
 10
80.659603
 20
16.579004
 42
0.051338
  0
VERTEX
  8
0
 10
85.561002
 20
24.811839
 42
0.053925
  0
VERTEX
  8
0
 10
88.585057
 20
33.737715
 42
0.049974
  0
VERTEX
  8
0
 10
89.954087
 20
45.183160
 42
0.044392
  0
VERTEX
  8
0
 10
89.120588
 20
57.149228
 42
0.038378
  0
VERTEX
  8
0
 10
85.973282
 20
70.295334
 42
0.023031
  0
VERTEX
  8
0
 10
80.349401
 20
85.338615
 42
-0.013645
  0
VERTEX
  8
0
 10
79.067270
 20
88.581318
 42
-0.014255
  0
VERTEX
  8
0
 10
77.983886
 20
91.842549
 42
-0.014048
  0
VERTEX
  8
0
 10
77.209389
 20
94.706294
 42
-0.059078
  0
VERTEX
  8
0
 10
77.000000
 20
96.472252
 42
0.057888
  0
VERTEX
  8
0
 10
76.790363
 20
98.276903
 42
0.073550
  0
VERTEX
  8
0
 10
76.171913
 20
99.833752
 42
0.056867
  0
VERTEX
  8
0
 10
74.991727
 20
101.423586
 42
0.020977
  0
VERTEX
  8
0
 10
72.997119
 20
103.383638
 42
0.030243
  0
VERTEX
  8
0
 10
70.216991
 20
105.605474
 42
0.081689
  0
VERTEX
  8
0
 10
67.949543
 20
106.702902
 42
0.127581
  0
VERTEX
  8
0
 10
66.077664
 20
106.766484
 42
0.142541
  0
SEQEND
  0
POLYLINE
  8
0
 66
1
 70
1
  0
VERTEX
  8
0
 10
70.745549
 20
98.397309
 42
-0.074813
  0
VERTEX
  8
0
 10
71.409633
 20
97.497979
 42
-0.026770
  0
VERTEX
  8
0
 10
72.080605
 20
96.047136
 42
-0.025852
  0
VERTEX
  8
0
 10
72.657146
 20
94.352634
 42
-0.027764
  0
VERTEX
  8
0
 10
73.039832
 20
92.647309
 42
0.004627
  0
VERTEX
  8
0
 10
73.339126
 20
90.949511
 42
0.004795
  0
VERTEX
  8
0
 10
73.666447
 20
89.277647
 42
0.004632
  0
VERTEX
  8
0
 10
73.976995
 20
87.836142
 42
0.020610
  0
VERTEX
  8
0
 10
74.201817
 20
87.000000
 42
-0.009169
  0
VERTEX
  8
0
 10
74.360120
 20
86.460759
 42
-0.049884
  0
VERTEX
  8
0
 10
74.410822
 20
86.160938
 42
-0.635940
  0
VERTEX
  8
0
 10
74.357986
 20
86.131676
 42
-0.108877
  0
VERTEX
  8
0
 10
74.252772
 20
86.250000
 42
0.227945
  0
VERTEX
  8
0
 10
73.473854
 20
86.797474
 42
0.035760
  0
VERTEX
  8
0
 10
71.553129
 20
86.976472
 42
0.038598
  0
VERTEX
  8
0
 10
69.398893
 20
86.856306
 42
0.058448
  0
VERTEX
  8
0
 10
67.581787
 20
86.393011
 42
0.247704
  0
VERTEX
  8
0
 10
66.230044
 20
84.847930
 42
0.087508
  0
VERTEX
  8
0
 10
66.052417
 20
81.817701
 42
0.091241
  0
VERTEX
  8
0
 10
66.919209
 20
78.995604
 42
0.279672
  0
VERTEX
  8
0
 10
68.559936
 20
78.000000
 42
0.084244
  0
VERTEX
  8
0
 10
70.729351
 20
78.368133
 42
0.064697
  0
VERTEX
  8
0
 10
72.880650
 20
79.448488
 42
0.069819
  0
VERTEX
  8
0
 10
74.504133
 20
80.913170
 42
0.166044
  0
VERTEX
  8
0
 10
75.081933
 20
82.410515
 42
-0.733755
  0
VERTEX
  8
0
 10
75.739931
 20
82.589479
 42
-0.034451
  0
VERTEX
  8
0
 10
77.429095
 20
79.508000
 42
-0.018020
  0
VERTEX
  8
0
 10
79.793267
 20
73.861550
 42
-0.009282
  0
VERTEX
  8
0
 10
82.363043
 20
66.641087
 42
-0.016715
  0
VERTEX
  8
0
 10
83.683136
 20
62.216275
 42
-0.026038
  0
VERTEX
  8
0
 10
84.490791
 20
58.320901
 42
-0.023706
  0
VERTEX
  8
0
 10
84.934598
 20
54.108592
 42
-0.011176
  0
VERTEX
  8
0
 10
85.127231
 20
48.641087
 42
-0.020583
  0
VERTEX
  8
0
 10
84.914382
 20
41.120057
 42
-0.051006
  0
VERTEX
  8
0
 10
83.975445
 20
35.694991
 42
-0.050879
  0
VERTEX
  8
0
 10
81.956102
 20
30.564413
 42
-0.020394
  0
VERTEX
  8
0
 10
78.220017
 20
24.000000
 42
-0.028820
  0
VERTEX
  8
0
 10
72.909150
 20
16.494865
 42
-0.109496
  0
VERTEX
  8
0
 10
68.467300
 20
12.908643
 42
-0.133087
  0
VERTEX
  8
0
 10
63.422886
 20
11.904573
 42
-0.051428
  0
VERTEX
  8
0
 10
56.336019
 20
13.127697
 42
0.007692
  0
VERTEX
  8
0
 10
49.452382
 20
14.946290
 42
0.039363
  0
VERTEX
  8
0
 10
45.554487
 20
15.592223
 42
0.063555
  0
VERTEX
  8
0
 10
42.525755
 20
15.466749
 42
0.043993
  0
VERTEX
  8
0
 10
39.204961
 20
14.596587
 42
-0.017723
  0
VERTEX
  8
0
 10
37.207845
 20
13.959586
 42
-0.009863
  0
VERTEX
  8
0
 10
34.734567
 20
13.318581
 42
-0.009828
  0
VERTEX
  8
0
 10
32.203123
 20
12.767863
 42
-0.015670
  0
VERTEX
  8
0
 10
30.017931
 20
12.407991
 42
-0.070539
  0
VERTEX
  8
0
 10
25.718267
 20
12.446513
 42
-0.087944
  0
VERTEX
  8
0
 10
21.939018
 20
13.720927
 42
-0.074248
  0
VERTEX
  8
0
 10
18.371187
 20
16.427017
 42
-0.036205
  0
VERTEX
  8
0
 10
14.675699
 20
20.802940
 42
-0.016422
  0
VERTEX
  8
0
 10
11.452377
 20
25.554359
 42
-0.037374
  0
VERTEX
  8
0
 10
9.418313
 20
29.381460
 42
-0.039632
  0
VERTEX
  8
0
 10
8.046369
 20
33.327742
 42
-0.020740
  0
VERTEX
  8
0
 10
6.941628
 20
38.413796
 42
-0.055765
  0
VERTEX
  8
0
 10
6.423279
 20
46.900842
 42
-0.051893
  0
VERTEX
  8
0
 10
7.760451
 20
55.508977
 42
-0.039641
  0
VERTEX
  8
0
 10
11.259682
 20
65.495117
 42
-0.016219
  0
VERTEX
  8
0
 10
17.498656
 20
78.453253
 42
0.006760
  0
VERTEX
  8
0
 10
20.337071
 20
84.073983
 42
0.024666
  0
VERTEX
  8
0
 10
21.909979
 20
87.745126
 42
0.039462
  0
VERTEX
  8
0
 10
22.661557
 20
90.392816
 42
0.089885
  0
VERTEX
  8
0
 10
22.699685
 20
92.463200
 42
-0.074563
  0
VERTEX
  8
0
 10
22.673867
 20
94.610214
 42
-0.063805
  0
VERTEX
  8
0
 10
23.265128
 20
96.795263
 42
-0.072845
  0
VERTEX
  8
0
 10
24.253289
 20
98.454523
 42
-0.225780
  0
VERTEX
  8
0
 10
25.399693
 20
99.000000
 42
-0.128992
  0
VERTEX
  8
0
 10
25.842668
 20
98.883786
 42
-0.005112
  0
VERTEX
  8
0
 10
27.304556
 20
98.040232
 42
-0.008737
  0
VERTEX
  8
0
 10
29.022356
 20
96.984542
 42
-0.006037
  0
VERTEX
  8
0
 10
30.930553
 20
95.732706
 42
0.000000
  0
VERTEX
  8
0
 10
35.782206
 20
92.465412
 42
0.000000
  0
VERTEX
  8
0
 10
34.016839
 20
88.982706
 42
0.030613
  0
VERTEX
  8
0
 10
31.458146
 20
83.062378
 42
0.012040
  0
VERTEX
  8
0
 10
28.639445
 20
74.631776
 42
0.012013
  0
VERTEX
  8
0
 10
26.234267
 20
66.092653
 42
0.031414
  0
VERTEX
  8
0
 10
25.045294
 20
59.833424
 42
0.030876
  0
VERTEX
  8
0
 10
24.651051
 20
53.601624
 42
0.030433
  0
VERTEX
  8
0
 10
25.023534
 20
47.338180
 42
0.032357
  0
VERTEX
  8
0
 10
26.065946
 20
41.765998
 42
0.068848
  0
VERTEX
  8
0
 10
27.718003
 20
37.713634
 42
0.049139
  0
VERTEX
  8
0
 10
28.766909
 20
36.253011
 42
0.020293
  0
VERTEX
  8
0
 10
30.448474
 20
34.489317
 42
0.019844
  0
VERTEX
  8
0
 10
32.418492
 20
32.729971
 42
0.024114
  0
VERTEX
  8
0
 10
34.401830
 20
31.250000
 42
0.021477
  0
VERTEX
  8
0
 10
37.058634
 20
29.621468
 42
0.046475
  0
VERTEX
  8
0
 10
39.250327
 20
28.658269
 42
0.050436
  0
VERTEX
  8
0
 10
41.465711
 20
28.161937
 42
0.029912
  0
VERTEX
  8
0
 10
44.170194
 20
28.000000
 42
0.032272
  0
VERTEX
  8
0
 10
50.005828
 20
28.377047
 42
0.053816
  0
VERTEX
  8
0
 10
54.787142
 20
29.529752
 42
0.059762
  0
VERTEX
  8
0
 10
58.853444
 20
31.562058
 42
0.052464
  0
VERTEX
  8
0
 10
62.523746
 20
34.577097
 42
0.051963
  0
VERTEX
  8
0
 10
65.557732
 20
38.371953
 42
0.061454
  0
VERTEX
  8
0
 10
67.545916
 20
42.510510
 42
0.053397
  0
VERTEX
  8
0
 10
68.646520
 20
47.469445
 42
0.027935
  0
VERTEX
  8
0
 10
69.000000
 20
53.791344
 42
0.040274
  0
VERTEX
  8
0
 10
68.452060
 20
60.583028
 42
0.013305
  0
VERTEX
  8
0
 10
66.584003
 20
70.422781
 42
0.013467
  0
VERTEX
  8
0
 10
64.174576
 20
80.219556
 42
0.036258
  0
VERTEX
  8
0
 10
61.780424
 20
86.975473
 42
0.000000
  0
VERTEX
  8
0
 10
59.385844
 20
92.439223
 42
0.000000
  0
VERTEX
  8
0
 10
63.753741
 20
96.219612
 42
-0.005398
  0
VERTEX
  8
0
 10
65.464596
 20
97.668339
 42
-0.008145
  0
VERTEX
  8
0
 10
66.988561
 20
98.889511
 42
-0.003909
  0
VERTEX
  8
0
 10
68.299502
 20
99.889063
 42
-0.162307
  0
VERTEX
  8
0
 10
68.632248
 20
100.000000
 42
-0.146070
  0
VERTEX
  8
0
 10
68.916902
 20
99.915028
 42
-0.017169
  0
VERTEX
  8
0
 10
69.463656
 20
99.529209
 42
-0.019397
  0
VERTEX
  8
0
 10
70.094469
 20
99.011080
 42
-0.014745
  0
SEQEND
  0
POLYLINE
  8
0
 66
1
 70
1
  0
VERTEX
  8
0
 10
23.035184
 20
87.065741
 42
0.029062
  0
VERTEX
  8
0
 10
22.638806
 20
86.208910
 42
0.022321
  0
VERTEX
  8
0
 10
22.304085
 20
85.233437
 42
0.022784
  0
VERTEX
  8
0
 10
22.072857
 20
84.289991
 42
0.048736
  0
VERTEX
  8
0
 10
22.000000
 20
83.544303
 42
0.206939
  0
VERTEX
  8
0
 10
22.594018
 20
82.170515
 42
0.072375
  0
VERTEX
  8
0
 10
24.396484
 20
80.910567
 42
0.069371
  0
VERTEX
  8
0
 10
26.596377
 20
80.164306
 42
0.139630
  0
VERTEX
  8
0
 10
28.406431
 20
80.325721
 42
0.168077
  0
VERTEX
  8
0
 10
29.731565
 20
81.440618
 42
0.080560
  0
VERTEX
  8
0
 10
30.561404
 20
83.533235
 42
0.079163
  0
VERTEX
  8
0
 10
30.696070
 20
85.822210
 42
0.149471
  0
VERTEX
  8
0
 10
29.989223
 20
87.512986
 42
0.131989
  0
VERTEX
  8
0
 10
28.403017
 20
88.634915
 42
0.104724
  0
VERTEX
  8
0
 10
26.318151
 20
88.938211
 42
0.107759
  0
VERTEX
  8
0
 10
24.337575
 20
88.371013
 42
0.147505
  0
SEQEND
  0
POLYLINE
  8
0
 66
1
 70
1
  0
VERTEX
  8
0
 10
14.975249
 20
68.434900
 42
0.031396
  0
VERTEX
  8
0
 10
14.115068
 20
65.659566
 42
0.163989
  0
VERTEX
  8
0
 10
14.252669
 20
64.087555
 42
0.197371
  0
VERTEX
  8
0
 10
15.287624
 20
63.086659
 42
0.048411
  0
VERTEX
  8
0
 10
17.609505
 20
62.413479
 42
0.054382
  0
VERTEX
  8
0
 10
20.151962
 20
62.217864
 42
0.162151
  0
VERTEX
  8
0
 10
21.768750
 20
62.814224
 42
0.166087
  0
VERTEX
  8
0
 10
22.681716
 20
64.248819
 42
0.057731
  0
VERTEX
  8
0
 10
22.984687
 20
66.714816
 42
0.182860
  0
VERTEX
  8
0
 10
22.033841
 20
69.281273
 42
0.162076
  0
VERTEX
  8
0
 10
19.568958
 20
70.735116
 42
0.166835
  0
VERTEX
  8
0
 10
16.778695
 20
70.401272
 42
0.191742
  0
SEQEND
  0
POLYLINE
  8
0
 66
1
 70
1
  0
VERTEX
  8
0
 10
72.714060
 20
67.380727
 42
0.129873
  0
VERTEX
  8
0
 10
72.436756
 20
66.904279
 42
0.023546
  0
VERTEX
  8
0
 10
72.209755
 20
65.897255
 42
0.023961
  0
VERTEX
  8
0
 10
72.052372
 20
64.661873
 42
0.019703
  0
VERTEX
  8
0
 10
72.000000
 20
63.333333
 42
0.025992
  0
VERTEX
  8
0
 10
72.106397
 20
61.288000
 42
0.197372
  0
VERTEX
  8
0
 10
72.554527
 20
60.455236
 42
0.157921
  0
VERTEX
  8
0
 10
73.516773
 20
60.077441
 42
0.015219
  0
VERTEX
  8
0
 10
76.060365
 20
60.000000
 42
0.000000
  0
VERTEX
  8
0
 10
80.120731
 20
60.000000
 42
0.000000
  0
VERTEX
  8
0
 10
79.810365
 20
63.750000
 42
0.022925
  0
VERTEX
  8
0
 10
79.533155
 20
65.896796
 42
0.129873
  0
VERTEX
  8
0
 10
79.053860
 20
66.934855
 42
0.158034
  0
VERTEX
  8
0
 10
78.173855
 20
67.494529
 42
0.038855
  0
VERTEX
  8
0
 10
76.464060
 20
67.797393
 42
0.023563
  0
VERTEX
  8
0
 10
75.249413
 20
67.858820
 42
0.028525
  0
VERTEX
  8
0
 10
74.110172
 20
67.797672
 42
0.029193
  0
VERTEX
  8
0
 10
73.179428
 20
67.638837
 42
0.140413
  0
SEQEND
  0
POLYLINE
  8
0
 66
1
 70
1
  0
VERTEX
  8
0
 10
10.000000
 20
46.000000
 42
0.000000
  0
VERTEX
  8
0
 10
10.000000
 20
42.000000
 42
0.000000
  0
VERTEX
  8
0
 10
14.500000
 20
42.000000
 42
0.000000
  0
VERTEX
  8
0
 10
19.000000
 20
42.000000
 42
0.000000
  0
VERTEX
  8
0
 10
19.000000
 20
46.000000
 42
0.000000
  0
VERTEX
  8
0
 10
19.000000
 20
50.000000
 42
0.000000
  0
VERTEX
  8
0
 10
14.500000
 20
50.000000
 42
0.000000
  0
VERTEX
  8
0
 10
10.000000
 20
50.000000
 42
0.000000
  0
SEQEND
  0
POLYLINE
  8
0
 66
1
 70
1
  0
VERTEX
  8
0
 10
72.666667
 20
47.333333
 42
0.131791
  0
VERTEX
  8
0
 10
72.407581
 20
46.884301
 42
0.022814
  0
VERTEX
  8
0
 10
72.195833
 20
45.917594
 42
0.023432
  0
VERTEX
  8
0
 10
72.048875
 20
44.730396
 42
0.019078
  0
VERTEX
  8
0
 10
72.000000
 20
43.449965
 42
0.083567
  0
VERTEX
  8
0
 10
72.338796
 20
41.437028
 42
0.145308
  0
VERTEX
  8
0
 10
73.318028
 20
40.071422
 42
0.117772
  0
VERTEX
  8
0
 10
75.055463
 20
39.283734
 42
0.045016
  0
VERTEX
  8
0
 10
77.714816
 20
39.013655
 42
0.216287
  0
VERTEX
  8
0
 10
78.998847
 20
39.579036
 42
0.080447
  0
VERTEX
  8
0
 10
80.087466
 20
41.279443
 42
0.071227
  0
VERTEX
  8
0
 10
80.693379
 20
43.497208
 42
0.092863
  0
VERTEX
  8
0
 10
80.565979
 20
45.593141
 42
0.060837
  0
VERTEX
  8
0
 10
80.099593
 20
46.804821
 42
0.133538
  0
VERTEX
  8
0
 10
79.424645
 20
47.522881
 42
0.106975
  0
VERTEX
  8
0
 10
78.372130
 20
47.892464
 42
0.031148
  0
VERTEX
  8
0
 10
76.647615
 20
48.000000
 42
0.018530
  0
VERTEX
  8
0
 10
75.329804
 20
47.951144
 42
0.022957
  0
VERTEX
  8
0
 10
74.111070
 20
47.804167
 42
0.022153
  0
VERTEX
  8
0
 10
73.119512
 20
47.592592
 42
0.133504
  0
SEQEND
  0
POLYLINE
  8
0
 66
1
 70
1
  0
VERTEX
  8
0
 10
19.250000
 20
28.802130
 42
0.083067
  0
VERTEX
  8
0
 10
17.726315
 20
27.706861
 42
0.172153
  0
VERTEX
  8
0
 10
17.109286
 20
26.399025
 42
0.130660
  0
VERTEX
  8
0
 10
17.378973
 20
24.727714
 42
0.040073
  0
VERTEX
  8
0
 10
18.615010
 20
22.464817
 42
0.076718
  0
VERTEX
  8
0
 10
20.125479
 20
20.787731
 42
0.154636
  0
VERTEX
  8
0
 10
21.762641
 20
20.138296
 42
0.132373
  0
VERTEX
  8
0
 10
23.657342
 20
20.507429
 42
0.049931
  0
VERTEX
  8
0
 10
25.970861
 20
21.943133
 42
0.031794
  0
VERTEX
  8
0
 10
27.278430
 20
23.087077
 42
0.121794
  0
VERTEX
  8
0
 10
27.836069
 20
24.004656
 42
0.125781
  0
VERTEX
  8
0
 10
27.892499
 20
25.059584
 42
0.034909
  0
VERTEX
  8
0
 10
27.452455
 20
26.670897
 42
0.115762
  0
VERTEX
  8
0
 10
26.245452
 20
28.566975
 42
0.130536
  0
VERTEX
  8
0
 10
24.368846
 20
29.626083
 42
0.110770
  0
VERTEX
  8
0
 10
21.959703
 20
29.706979
 42
0.067709
  0
SEQEND
  0
POLYLINE
  8
0
 66
1
 70
1
  0
VERTEX
  8
0
 10
64.240547
 20
27.013569
 42
0.041875
  0
VERTEX
  8
0
 10
63.299661
 20
25.181976
 42
0.120890
  0
VERTEX
  8
0
 10
63.087626
 20
23.781235
 42
0.141942
  0
VERTEX
  8
0
 10
63.557360
 20
22.578649
 42
0.066877
  0
VERTEX
  8
0
 10
64.750000
 20
21.392046
 42
0.108704
  0
VERTEX
  8
0
 10
67.615052
 20
20.068534
 42
0.160836
  0
VERTEX
  8
0
 10
70.345617
 20
20.350093
 42
0.168562
  0
VERTEX
  8
0
 10
72.284698
 20
22.177202
 42
0.120867
  0
VERTEX
  8
0
 10
73.000000
 20
25.093011
 42
0.191367
  0
VERTEX
  8
0
 10
72.015799
 20
27.570337
 42
0.150785
  0
VERTEX
  8
0
 10
69.482733
 20
29.004425
 42
0.141663
  0
VERTEX
  8
0
 10
66.457514
 20
28.805643
 42
0.167922
  0
SEQEND
  0
ENDSEC
  0
EOF
