  0
SECTION
  2
HEADER
  9
$ACADVER
  1
AC1006
  9
$EXTMIN
 10
0.000000
 20
0.000000
 30
0.000000
  9
$EXTMAX
 10
759.000000
 20
382.000000
 30
0.000000
  0
ENDSEC
  0
SECTION
  2
ENTITIES
  0
POLYLINE
  8
0
 66
1
 70
1
  0
VERTEX
  8
0
 10
604.000000
 20
378.625727
 42
0.033005
  0
VERTEX
  8
0
 10
604.105384
 20
377.030982
 42
0.015564
  0
VERTEX
  8
0
 10
604.440625
 20
374.993782
 42
0.015348
  0
VERTEX
  8
0
 10
604.925488
 20
372.874507
 42
0.020897
  0
VERTEX
  8
0
 10
605.500000
 20
371.000000
 42
-0.022227
  0
VERTEX
  8
0
 10
606.074624
 20
369.107179
 42
-0.015558
  0
VERTEX
  8
0
 10
606.559375
 20
366.931051
 42
-0.015732
  0
VERTEX
  8
0
 10
606.893834
 20
364.812867
 42
-0.031296
  0
VERTEX
  8
0
 10
607.000000
 20
363.118385
 42
-0.083538
  0
VERTEX
  8
0
 10
606.572256
 20
360.576089
 42
-0.158124
  0
VERTEX
  8
0
 10
605.332686
 20
358.935426
 42
-0.073572
  0
VERTEX
  8
0
 10
602.658495
 20
357.599708
 42
-0.008740
  0
VERTEX
  8
0
 10
596.306370
 20
355.642585
 42
0.029039
  0
VERTEX
  8
0
 10
590.434619
 20
353.569113
 42
0.021275
  0
VERTEX
  8
0
 10
584.181600
 20
350.624828
 42
0.021591
  0
VERTEX
  8
0
 10
578.384650
 20
347.261054
 42
0.037422
  0
VERTEX
  8
0
 10
573.933141
 20
343.920571
 42
-0.037871
  0
VERTEX
  8
0
 10
570.013130
 20
340.984429
 42
-0.017391
  0
VERTEX
  8
0
 10
564.509657
 20
337.742194
 42
-0.017190
  0
VERTEX
  8
0
 10
558.887027
 20
334.933813
 42
-0.045769
  0
VERTEX
  8
0
 10
554.657901
 20
333.450275
 42
0.048950
  0
VERTEX
  8
0
 10
553.596215
 20
333.070260
 42
0.023067
  0
VERTEX
  8
0
 10
552.308295
 20
332.387140
 42
0.022602
  0
VERTEX
  8
0
 10
551.014415
 20
331.541285
 42
0.029544
  0
VERTEX
  8
0
 10
549.918469
 20
330.649107
 42
-0.020938
  0
VERTEX
  8
0
 10
548.636889
 20
329.568634
 42
-0.006912
  0
VERTEX
  8
0
 10
546.668238
 20
328.088244
 42
-0.006870
  0
VERTEX
  8
0
 10
544.437351
 20
326.504990
 42
-0.007741
  0
VERTEX
  8
0
 10
542.250000
 20
325.046817
 42
0.016529
  0
VERTEX
  8
0
 10
539.746473
 20
323.313561
 42
0.047333
  0
VERTEX
  8
0
 10
538.175727
 20
321.898778
 42
0.071640
  0
VERTEX
  8
0
 10
537.298885
 20
320.616991
 42
0.114731
  0
VERTEX
  8
0
 10
537.000000
 20
319.331585
 42
0.051427
  0
VERTEX
  8
0
 10
537.092477
 20
318.434849
 42
0.068986
  0
VERTEX
  8
0
 10
537.367188
 20
317.666283
 42
0.086545
  0
VERTEX
  8
0
 10
537.772577
 20
317.137090
 42
0.175204
  0
VERTEX
  8
0
 10
538.250000
 20
316.936614
 42
-0.237299
  0
VERTEX
  8
0
 10
538.465499
 20
316.814186
 42
-0.370730
  0
VERTEX
  8
0
 10
538.441078
 20
316.614790
 42
-0.071207
  0
VERTEX
  8
0
 10
537.975944
 20
316.298817
 42
-0.018396
  0
VERTEX
  8
0
 10
537.145159
 20
315.930055
 42
0.022553
  0
VERTEX
  8
0
 10
536.053983
 20
315.434817
 42
0.010898
  0
VERTEX
  8
0
 10
534.702345
 20
314.708738
 42
0.010784
  0
VERTEX
  8
0
 10
533.324171
 20
313.889512
 42
0.015225
  0
VERTEX
  8
0
 10
532.135992
 20
313.096835
 42
-0.034167
  0
VERTEX
  8
0
 10
530.825723
 20
312.292658
 42
-0.016396
  0
VERTEX
  8
0
 10
529.047823
 20
311.435213
 42
-0.016171
  0
VERTEX
  8
0
 10
527.126346
 20
310.658282
 42
-0.022221
  0
VERTEX
  8
0
 10
525.350429
 20
310.094361
 42
0.024462
  0
VERTEX
  8
0
 10
523.041598
 20
309.349817
 42
0.101998
  0
VERTEX
  8
0
 10
521.812958
 20
308.572392
 42
0.117486
  0
VERTEX
  8
0
 10
521.083106
 20
307.432339
 42
0.037543
  0
VERTEX
  8
0
 10
520.561092
 20
305.473957
 42
0.019984
  0
VERTEX
  8
0
 10
520.353754
 20
304.058859
 42
0.023569
  0
VERTEX
  8
0
 10
520.274768
 20
302.707695
 42
0.023366
  0
VERTEX
  8
0
 10
520.314859
 20
301.577613
 42
0.118396
  0
VERTEX
  8
0
 10
520.510513
 20
300.982990
 42
-0.226750
  0
VERTEX
  8
0
 10
520.550642
 20
300.611537
 42
-0.172385
  0
VERTEX
  8
0
 10
520.289749
 20
300.288753
 42
-0.094320
  0
VERTEX
  8
0
 10
519.711380
 20
300.070037
 42
-0.043391
  0
VERTEX
  8
0
 10
518.905860
 20
300.000000
 42
0.097386
  0
VERTEX
  8
0
 10
515.658633
 20
299.361473
 42
0.019719
  0
VERTEX
  8
0
 10
510.287739
 20
296.912850
 42
0.020732
  0
VERTEX
  8
0
 10
505.089136
 20
294.014200
 42
0.077627
  0
VERTEX
  8
0
 10
502.250000
 20
291.598231
 42
0.031776
  0
VERTEX
  8
0
 10
501.388909
 20
290.459097
 42
0.030008
  0
VERTEX
  8
0
 10
500.660937
 20
289.198649
 42
0.031378
  0
VERTEX
  8
0
 10
500.154526
 20
288.004253
 42
0.084772
  0
VERTEX
  8
0
 10
500.000000
 20
287.099383
 42
-0.072986
  0
VERTEX
  8
0
 10
499.887911
 20
286.335596
 42
-0.064076
  0
VERTEX
  8
0
 10
499.559375
 20
285.598732
 42
-0.066866
  0
VERTEX
  8
0
 10
499.073532
 20
284.999053
 42
-0.097796
  0
VERTEX
  8
0
 10
498.500000
 20
284.638374
 42
0.120823
  0
VERTEX
  8
0
 10
497.925922
 20
284.239793
 42
0.064892
  0
VERTEX
  8
0
 10
497.440625
 20
283.520951
 42
0.058725
  0
VERTEX
  8
0
 10
497.111649
 20
282.610988
 42
0.057461
  0
VERTEX
  8
0
 10
497.000000
 20
281.642676
 42
-0.068584
  0
VERTEX
  8
0
 10
496.823953
 20
280.365273
 42
-0.153316
  0
VERTEX
  8
0
 10
496.293963
 20
279.553098
 42
-0.105343
  0
VERTEX
  8
0
 10
495.242153
 20
279.007585
 42
-0.023287
  0
VERTEX
  8
0
 10
493.250000
 20
278.557973
 42
0.009379
  0
VERTEX
  8
0
 10
489.211601
 20
277.763849
 42
0.062773
  0
VERTEX
  8
0
 10
487.284935
 20
277.085987
 42
0.145070
  0
VERTEX
  8
0
 10
486.346967
 20
276.208988
 42
0.133496
  0
VERTEX
  8
0
 10
486.000000
 20
274.932612
 42
0.077711
  0
VERTEX
  8
0
 10
486.130147
 20
274.100295
 42
0.123703
  0
VERTEX
  8
0
 10
486.508717
 20
273.491577
 42
0.120774
  0
VERTEX
  8
0
 10
487.137742
 20
273.124809
 42
0.071998
  0
VERTEX
  8
0
 10
488.000000
 20
273.000000
 42
-0.048028
  0
VERTEX
  8
0
 10
488.765418
 20
272.926307
 42
-0.068025
  0
VERTEX
  8
0
 10
489.412500
 20
272.706250
 42
-0.088204
  0
VERTEX
  8
0
 10
489.848523
 20
272.381882
 42
-0.191087
  0
VERTEX
  8
0
 10
490.000000
 20
272.000000
 42
-0.261554
  0
VERTEX
  8
0
 10
489.784016
 20
271.615360
 42
-0.059729
  0
VERTEX
  8
0
 10
489.079393
 20
271.293750
 42
-0.047016
  0
VERTEX
  8
0
 10
488.066685
 20
271.072697
 42
-0.030246
  0
VERTEX
  8
0
 10
486.866020
 20
271.000000
 42
0.041980
  0
VERTEX
  8
0
 10
482.918508
 20
270.667979
 42
0.051733
  0
VERTEX
  8
0
 10
479.360790
 20
269.678764
 42
0.062014
  0
VERTEX
  8
0
 10
476.798767
 20
268.284306
 42
0.241668
  0
VERTEX
  8
0
 10
476.000000
 20
266.728213
 42
0.073040
  0
VERTEX
  8
0
 10
476.143395
 20
265.751825
 42
0.205715
  0
VERTEX
  8
0
 10
476.577291
 20
265.233972
 42
0.130262
  0
VERTEX
  8
0
 10
477.413088
 20
265.057095
 42
0.023808
  0
VERTEX
  8
0
 10
479.000000
 20
265.213308
 42
-0.025568
  0
VERTEX
  8
0
 10
480.149985
 20
265.322426
 42
-0.042928
  0
VERTEX
  8
0
 10
481.118750
 20
265.281400
 42
-0.055623
  0
VERTEX
  8
0
 10
481.797993
 20
265.115710
 42
-0.314934
  0
VERTEX
  8
0
 10
482.000000
 20
264.826807
 42
-0.221238
  0
VERTEX
  8
0
 10
481.852771
 20
264.510354
 42
-0.077119
  0
VERTEX
  8
0
 10
481.412500
 20
264.242875
 42
-0.058641
  0
VERTEX
  8
0
 10
480.765825
 20
264.060515
 42
-0.039448
  0
VERTEX
  8
0
 10
480.000000
 20
264.000000
 42
0.036312
  0
VERTEX
  8
0
 10
479.234034
 20
263.944299
 42
0.054859
  0
VERTEX
  8
0
 10
478.587500
 20
263.775906
 42
0.071855
  0
VERTEX
  8
0
 10
478.144754
 20
263.529492
 42
0.234003
  0
VERTEX
  8
0
 10
478.000000
 20
263.237128
 42
-0.191109
  0
VERTEX
  8
0
 10
477.857932
 20
262.879009
 42
-0.037991
  0
VERTEX
  8
0
 10
477.339063
 20
262.405687
 42
-0.035255
  0
VERTEX
  8
0
 10
476.611532
 20
261.915296
 42
-0.026447
  0
VERTEX
  8
0
 10
475.750000
 20
261.477957
 42
0.067270
  0
VERTEX
  8
0
 10
474.604501
 20
260.773772
 42
0.127704
  0
VERTEX
  8
0
 10
473.969882
 20
259.905637
 42
0.088482
  0
VERTEX
  8
0
 10
473.707327
 20
258.615073
 42
0.021287
  0
VERTEX
  8
0
 10
473.747584
 20
256.423612
 42
-0.027693
  0
VERTEX
  8
0
 10
473.761274
 20
253.962897
 42
-0.127682
  0
VERTEX
  8
0
 10
473.338562
 20
252.614544
 42
-0.109421
  0
VERTEX
  8
0
 10
472.279739
 20
251.535117
 42
-0.017773
  0
VERTEX
  8
0
 10
469.747584
 20
250.012042
 42
0.008321
  0
VERTEX
  8
0
 10
467.699695
 20
248.832373
 42
0.003505
  0
VERTEX
  8
0
 10
464.985228
 20
247.182024
 42
0.003466
  0
VERTEX
  8
0
 10
462.108045
 20
245.377334
 42
0.004511
  0
VERTEX
  8
0
 10
459.500000
 20
243.682889
 42
-0.011035
  0
VERTEX
  8
0
 10
451.366284
 20
238.548088
 42
-0.039861
  0
VERTEX
  8
0
 10
445.884490
 20
235.822806
 42
-0.047435
  0
VERTEX
  8
0
 10
440.541936
 20
234.246620
 42
-0.020608
  0
VERTEX
  8
0
 10
433.214158
 20
233.132562
 42
-0.012098
  0
VERTEX
  8
0
 10
422.454577
 20
232.210671
 42
-0.028641
  0
VERTEX
  8
0
 10
414.415072
 20
232.178428
 42
-0.030437
  0
VERTEX
  8
0
 10
406.721376
 20
233.060195
 42
-0.015400
  0
VERTEX
  8
0
 10
397.168495
 20
235.054041
 42
-0.002431
  0
VERTEX
  8
0
 10
388.115290
 20
237.283157
 42
-0.008812
  0
VERTEX
  8
0
 10
382.390330
 20
238.830092
 42
-0.013424
  0
VERTEX
  8
0
 10
378.162329
 20
240.176867
 42
-0.017137
  0
VERTEX
  8
0
 10
374.348871
 20
241.653734
 42
0.013243
  0
VERTEX
  8
0
 10
373.043518
 20
242.170990
 42
0.013699
  0
VERTEX
  8
0
 10
371.727155
 20
242.612184
 42
0.013519
  0
VERTEX
  8
0
 10
370.568826
 20
242.931466
 42
0.055713
  0
VERTEX
  8
0
 10
369.848871
 20
243.026041
 42
-0.060550
  0
VERTEX
  8
0
 10
368.982445
 20
243.148365
 42
-0.004573
  0
VERTEX
  8
0
 10
366.693106
 20
243.782827
 42
-0.006256
  0
VERTEX
  8
0
 10
363.970953
 20
244.601113
 42
-0.004718
  0
VERTEX
  8
0
 10
361.000000
 20
245.565766
 42
0.014499
  0
VERTEX
  8
0
 10
352.987401
 20
247.995237
 42
0.019873
  0
VERTEX
  8
0
 10
345.644483
 20
249.680951
 42
0.021677
  0
VERTEX
  8
0
 10
338.754229
 20
250.670025
 42
0.024812
  0
VERTEX
  8
0
 10
332.108693
 20
251.000000
 42
0.022233
  0
VERTEX
  8
0
 10
324.416034
 20
250.657767
 42
0.009803
  0
VERTEX
  8
0
 10
314.291406
 20
249.554684
 42
0.006545
  0
VERTEX
  8
0
 10
304.477259
 20
248.159478
 42
0.084473
  0
VERTEX
  8
0
 10
300.980748
 20
246.989696
 42
-0.042200
  0
VERTEX
  8
0
 10
300.100292
 20
246.610110
 42
-0.023334
  0
VERTEX
  8
0
 10
298.972784
 20
246.290723
 42
-0.023118
  0
VERTEX
  8
0
 10
297.791894
 20
246.071992
 42
-0.034244
  0
VERTEX
  8
0
 10
296.741967
 20
246.000000
 42
0.048622
  0
VERTEX
  8
0
 10
295.361393
 20
245.865430
 42
0.007916
  0
VERTEX
  8
0
 10
292.726042
 20
245.303266
 42
0.008660
  0
VERTEX
  8
0
 10
289.636045
 20
244.536214
 42
0.007531
  0
VERTEX
  8
0
 10
286.426225
 20
243.628140
 42
-0.008311
  0
VERTEX
  8
0
 10
282.743977
 20
242.592617
 42
-0.004506
  0
VERTEX
  8
0
 10
278.184579
 20
241.435663
 42
-0.004487
  0
VERTEX
  8
0
 10
273.522060
 20
240.341410
 42
-0.007075
  0
VERTEX
  8
0
 10
269.500000
 20
239.495083
 42
0.007337
  0
VERTEX
  8
0
 10
265.871013
 20
238.729477
 42
0.008275
  0
VERTEX
  8
0
 10
262.409375
 20
237.885495
 42
0.007669
  0
VERTEX
  8
0
 10
259.492801
 20
237.075069
 42
0.043954
  0
VERTEX
  8
0
 10
258.000000
 20
236.488805
 42
-0.035972
  0
VERTEX
  8
0
 10
256.578059
 20
235.904045
 42
-0.007992
  0
VERTEX
  8
0
 10
254.065835
 20
235.120693
 42
-0.008262
  0
VERTEX
  8
0
 10
251.127350
 20
234.308219
 42
-0.007886
  0
VERTEX
  8
0
 10
248.117736
 20
233.579816
 42
-0.028725
  0
VERTEX
  8
0
 10
242.984703
 20
232.729030
 42
-0.018637
  0
VERTEX
  8
0
 10
236.981538
 20
232.310830
 42
-0.010546
  0
VERTEX
  8
0
 10
228.212430
 20
232.212698
 42
-0.002125
  0
VERTEX
  8
0
 10
212.617736
 20
232.433411
 42
0.003379
  0
VERTEX
  8
0
 10
201.319189
 20
232.564976
 42
0.004353
  0
VERTEX
  8
0
 10
190.936806
 20
232.525297
 42
0.003630
  0
VERTEX
  8
0
 10
182.289624
 20
232.354160
 42
0.032302
  0
VERTEX
  8
0
 10
178.500000
 20
232.005940
 42
-0.007473
  0
VERTEX
  8
0
 10
175.262922
 20
231.545580
 42
-0.001905
  0
VERTEX
  8
0
 10
170.003125
 20
230.897945
 42
-0.001941
  0
VERTEX
  8
0
 10
163.991406
 20
230.204618
 42
-0.001966
  0
VERTEX
  8
0
 10
158.000000
 20
229.561024
 42
0.004373
  0
VERTEX
  8
0
 10
147.609160
 20
228.394211
 42
0.010264
  0
VERTEX
  8
0
 10
139.875690
 20
227.295741
 42
0.012021
  0
VERTEX
  8
0
 10
134.227714
 20
226.234899
 42
0.061801
  0
VERTEX
  8
0
 10
131.223088
 20
225.195158
 42
-0.109744
  0
VERTEX
  8
0
 10
129.979271
 20
224.893435
 42
-0.005449
  0
VERTEX
  8
0
 10
125.746782
 20
224.857579
 42
-0.008572
  0
VERTEX
  8
0
 10
120.680241
 20
224.956747
 42
-0.006074
  0
VERTEX
  8
0
 10
115.000000
 20
225.234523
 42
0.005775
  0
VERTEX
  8
0
 10
109.008592
 20
225.531117
 42
0.005731
  0
VERTEX
  8
0
 10
102.996875
 20
225.690174
 42
0.005633
  0
VERTEX
  8
0
 10
97.737297
 20
225.709761
 42
0.022147
  0
VERTEX
  8
0
 10
94.500000
 20
225.541829
 42
-0.012674
  0
VERTEX
  8
0
 10
91.037787
 20
225.296410
 42
-0.002242
  0
VERTEX
  8
0
 10
84.534375
 20
225.030034
 42
-0.002426
  0
VERTEX
  8
0
 10
76.905596
 20
224.788870
 42
-0.002182
  0
VERTEX
  8
0
 10
69.000000
 20
224.611857
 42
0.003896
  0
VERTEX
  8
0
 10
57.776748
 20
224.322041
 42
0.016820
  0
VERTEX
  8
0
 10
51.119677
 20
223.873692
 42
0.024103
  0
VERTEX
  8
0
 10
45.733209
 20
223.064665
 42
0.015259
  0
VERTEX
  8
0
 10
39.545173
 20
221.630174
 42
-0.012356
  0
VERTEX
  8
0
 10
35.313241
 20
220.623218
 42
-0.010703
  0
VERTEX
  8
0
 10
30.829581
 20
219.772614
 42
-0.010829
  0
VERTEX
  8
0
 10
26.734248
 20
219.177009
 42
-0.030701
  0
VERTEX
  8
0
 10
23.854190
 20
219.000000
 42
0.016241
  0
VERTEX
  8
0
 10
21.611934
 20
218.927149
 42
0.022789
  0
VERTEX
  8
0
 10
19.621482
 20
218.706250
 42
0.020204
  0
VERTEX
  8
0
 10
18.040248
 20
218.391477
 42
0.197593
  0
VERTEX
  8
0
 10
17.500000
 20
218.000000
 42
-0.118288
  0
VERTEX
  8
0
 10
17.113325
 20
217.616144
 42
-0.048737
  0
VERTEX
  8
0
 10
16.443974
 20
217.293750
 42
-0.044608
  0
VERTEX
  8
0
 10
15.625529
 20
217.074002
 42
-0.043315
  0
VERTEX
  8
0
 10
14.772896
 20
217.000000
 42
0.027263
  0
VERTEX
  8
0
 10
13.579250
 20
216.934868
 42
0.005218
  0
VERTEX
  8
0
 10
11.423366
 20
216.676095
 42
0.005548
  0
VERTEX
  8
0
 10
8.910751
 20
216.319472
 42
0.005082
  0
VERTEX
  8
0
 10
6.331913
 20
215.897345
 42
0.008906
  0
VERTEX
  8
0
 10
2.595891
 20
215.177960
 42
0.076201
  0
VERTEX
  8
0
 10
1.006192
 20
214.579331
 42
0.172960
  0
VERTEX
  8
0
 10
0.262124
 20
213.724119
 42
0.093643
  0
VERTEX
  8
0
 10
0.000000
 20
212.336793
 42
0.077699
  0
VERTEX
  8
0
 10
0.223437
 20
210.907636
 42
0.258862
  0
VERTEX
  8
0
 10
0.891833
 20
210.279923
 42
0.082015
  0
VERTEX
  8
0
 10
2.373707
 20
210.155522
 42
0.004577
  0
VERTEX
  8
0
 10
7.000000
 20
210.568659
 42
-0.005052
  0
VERTEX
  8
0
 10
11.416727
 20
210.958858
 42
-0.070321
  0
VERTEX
  8
0
 10
13.009087
 20
210.859370
 42
-0.233194
  0
VERTEX
  8
0
 10
13.731648
 20
210.297419
 42
-0.113380
  0
VERTEX
  8
0
 10
14.000000
 20
209.129210
 42
0.063192
  0
VERTEX
  8
0
 10
14.112954
 20
208.239043
 42
0.105083
  0
VERTEX
  8
0
 10
14.448563
 20
207.564762
 42
0.121577
  0
VERTEX
  8
0
 10
14.987834
 20
207.148298
 42
0.104284
  0
VERTEX
  8
0
 10
15.691130
 20
207.000000
 42
-0.024793
  0
VERTEX
  8
0
 10
16.594353
 20
206.955185
 42
-0.434721
  0
VERTEX
  8
0
 10
16.753870
 20
206.745999
 42
-0.182507
  0
VERTEX
  8
0
 10
16.551491
 20
206.400355
 42
-0.008124
  0
VERTEX
  8
0
 10
15.441130
 20
205.531803
 42
-0.036476
  0
VERTEX
  8
0
 10
14.569537
 20
204.967417
 42
-0.028940
  0
VERTEX
  8
0
 10
13.556144
 20
204.485547
 42
-0.029757
  0
VERTEX
  8
0
 10
12.559234
 20
204.147977
 42
-0.062288
  0
VERTEX
  8
0
 10
11.750000
 20
204.031803
 42
0.096002
  0
VERTEX
  8
0
 10
11.046521
 20
203.882165
 42
0.108694
  0
VERTEX
  8
0
 10
10.484763
 20
203.483202
 42
0.103818
  0
VERTEX
  8
0
 10
10.124764
 20
202.868533
 42
0.080908
  0
VERTEX
  8
0
 10
10.000000
 20
202.102552
 42
-0.091384
  0
VERTEX
  8
0
 10
9.829055
 20
201.175046
 42
-0.179990
  0
VERTEX
  8
0
 10
9.341220
 20
200.619607
 42
-0.110689
  0
VERTEX
  8
0
 10
8.411751
 20
200.358902
 42
-0.024584
  0
VERTEX
  8
0
 10
6.750000
 20
200.352552
 42
0.027405
  0
VERTEX
  8
0
 10
5.034721
 20
200.336328
 42
0.117551
  0
VERTEX
  8
0
 10
4.064629
 20
200.038068
 42
0.160641
  0
VERTEX
  8
0
 10
3.497985
 20
199.391906
 42
0.065164
  0
VERTEX
  8
0
 10
3.180449
 20
198.250000
 42
0.045002
  0
VERTEX
  8
0
 10
3.136354
 20
197.388435
 42
0.070854
  0
VERTEX
  8
0
 10
3.268947
 20
196.660937
 42
0.099259
  0
VERTEX
  8
0
 10
3.547443
 20
196.174105
 42
0.216622
  0
VERTEX
  8
0
 10
3.930449
 20
196.000000
 42
-0.148800
  0
VERTEX
  8
0
 10
4.338329
 20
195.875866
 42
-0.098801
  0
VERTEX
  8
0
 10
4.685819
 20
195.526683
 42
-0.082216
  0
VERTEX
  8
0
 10
4.920129
 20
195.004724
 42
-0.064559
  0
VERTEX
  8
0
 10
5.000000
 20
194.388709
 42
0.120411
  0
VERTEX
  8
0
 10
5.185339
 20
193.630259
 42
0.206756
  0
VERTEX
  8
0
 10
5.681440
 20
193.226044
 42
0.098164
  0
VERTEX
  8
0
 10
6.638817
 20
193.149075
 42
0.017494
  0
VERTEX
  8
0
 10
8.422826
 20
193.419544
 42
-0.021518
  0
VERTEX
  8
0
 10
10.287784
 20
193.686953
 42
-0.107512
  0
VERTEX
  8
0
 10
11.331113
 20
193.566634
 42
-0.164512
  0
VERTEX
  8
0
 10
11.997674
 20
193.054508
 42
-0.070679
  0
VERTEX
  8
0
 10
12.490213
 20
192.030835
 42
0.079837
  0
VERTEX
  8
0
 10
12.881525
 20
191.254084
 42
0.069464
  0
VERTEX
  8
0
 10
13.512841
 20
190.596086
 42
0.071514
  0
VERTEX
  8
0
 10
14.279921
 20
190.152186
 42
0.095745
  0
VERTEX
  8
0
 10
15.067388
 20
190.000000
 42
-0.079947
  0
VERTEX
  8
0
 10
15.931510
 20
189.860943
 42
-0.135348
  0
VERTEX
  8
0
 10
16.537260
 20
189.456962
 42
-0.120760
  0
VERTEX
  8
0
 10
16.893578
 20
188.761039
 42
-0.056572
  0
VERTEX
  8
0
 10
17.015313
 20
187.750000
 42
0.105355
  0
VERTEX
  8
0
 10
17.585753
 20
185.159435
 42
0.209508
  0
VERTEX
  8
0
 10
19.120132
 20
183.783305
 42
0.074156
  0
VERTEX
  8
0
 10
22.440639
 20
183.213326
 42
0.006451
  0
VERTEX
  8
0
 10
31.031956
 20
183.135530
 42
-0.008483
  0
VERTEX
  8
0
 10
40.053449
 20
183.017162
 42
-0.018172
  0
VERTEX
  8
0
 10
46.999761
 20
182.555060
 42
-0.014525
  0
VERTEX
  8
0
 10
52.146907
 20
181.872627
 42
-0.367845
  0
VERTEX
  8
0
 10
53.000000
 20
180.869948
 42
0.201717
  0
VERTEX
  8
0
 10
53.139806
 20
180.537509
 42
0.084550
  0
VERTEX
  8
0
 10
53.546765
 20
180.255547
 42
0.064641
  0
VERTEX
  8
0
 10
54.148836
 20
180.063941
 42
0.044782
  0
VERTEX
  8
0
 10
54.861328
 20
180.000000
 42
-0.072767
  0
VERTEX
  8
0
 10
55.747994
 20
179.870273
 42
-0.196163
  0
VERTEX
  8
0
 10
56.234605
 20
179.478407
 42
-0.141627
  0
VERTEX
  8
0
 10
56.399832
 20
178.753309
 42
-0.032898
  0
VERTEX
  8
0
 10
56.244751
 20
177.500000
 42
0.032980
  0
VERTEX
  8
0
 10
56.085259
 20
176.209302
 42
0.155943
  0
VERTEX
  8
0
 10
56.269099
 20
175.496419
 42
0.197275
  0
VERTEX
  8
0
 10
56.800409
 20
175.117538
 42
0.057544
  0
VERTEX
  8
0
 10
57.818323
 20
175.000000
 42
0.036834
  0
VERTEX
  8
0
 10
58.796408
 20
175.072152
 42
0.016518
  0
VERTEX
  8
0
 10
60.065326
 20
175.303455
 42
0.016249
  0
VERTEX
  8
0
 10
61.396422
 20
175.637437
 42
0.021251
  0
VERTEX
  8
0
 10
62.586895
 20
176.033037
 42
-0.057213
  0
VERTEX
  8
0
 10
68.099741
 20
177.434938
 42
-0.003377
  0
VERTEX
  8
0
 10
85.240606
 20
179.640381
 42
-0.005044
  0
VERTEX
  8
0
 10
102.090797
 20
181.520524
 42
-0.025263
  0
VERTEX
  8
0
 10
111.574327
 20
182.000000
 42
0.014933
  0
VERTEX
  8
0
 10
114.104158
 20
182.075575
 42
0.012301
  0
VERTEX
  8
0
 10
116.794844
 20
182.303021
 42
0.012487
  0
VERTEX
  8
0
 10
119.255980
 20
182.634563
 42
0.032074
  0
VERTEX
  8
0
 10
121.006602
 20
183.031561
 42
-0.021716
  0
VERTEX
  8
0
 10
122.872034
 20
183.495393
 42
-0.006085
  0
VERTEX
  8
0
 10
125.823814
 20
184.057294
 42
-0.006125
  0
VERTEX
  8
0
 10
129.180954
 20
184.611789
 42
-0.006411
  0
VERTEX
  8
0
 10
132.500000
 20
185.074842
 42
0.013059
  0
VERTEX
  8
0
 10
135.939918
 20
185.601473
 42
0.010062
  0
VERTEX
  8
0
 10
139.662544
 20
186.348942
 42
0.010197
  0
VERTEX
  8
0
 10
143.115026
 20
187.188965
 42
0.023823
  0
VERTEX
  8
0
 10
145.649087
 20
187.991489
 42
-0.012687
  0
VERTEX
  8
0
 10
148.202966
 20
188.863311
 42
-0.005082
  0
VERTEX
  8
0
 10
151.738710
 20
189.931647
 42
-0.005025
  0
VERTEX
  8
0
 10
155.574671
 20
191.006582
 42
-0.006322
  0
VERTEX
  8
0
 10
159.149087
 20
191.921279
 42
0.013790
  0
VERTEX
  8
0
 10
164.958895
 20
193.500824
 42
0.028325
  0
VERTEX
  8
0
 10
169.387550
 20
195.115764
 42
0.027789
  0
VERTEX
  8
0
 10
173.658039
 20
197.241533
 42
0.012773
  0
VERTEX
  8
0
 10
178.981234
 20
200.454015
 42
-0.012263
  0
VERTEX
  8
0
 10
181.025033
 20
201.690271
 42
-0.007673
  0
VERTEX
  8
0
 10
183.473493
 20
203.041035
 42
-0.007699
  0
VERTEX
  8
0
 10
185.927763
 20
204.298199
 42
-0.013891
  0
VERTEX
  8
0
 10
187.981234
 20
205.240483
 42
0.001207
  0
VERTEX
  8
0
 10
189.941806
 20
206.080612
 42
0.000903
  0
VERTEX
  8
0
 10
192.098257
 20
207.015467
 42
0.000912
  0
VERTEX
  8
0
 10
194.126067
 20
207.903314
 42
0.002086
  0
VERTEX
  8
0
 10
195.651129
 20
208.581967
 42
-0.007637
  0
VERTEX
  8
0
 10
196.908872
 20
209.125018
 42
-0.009830
  0
VERTEX
  8
0
 10
198.081576
 20
209.583453
 42
-0.007903
  0
VERTEX
  8
0
 10
199.071728
 20
209.930581
 42
-0.080520
  0
VERTEX
  8
0
 10
199.500000
 20
210.000000
 42
0.078172
  0
VERTEX
  8
0
 10
199.928544
 20
210.067412
 42
0.007730
  0
VERTEX
  8
0
 10
200.918424
 20
210.403723
 42
0.009601
  0
VERTEX
  8
0
 10
202.091131
 20
210.848048
 42
0.007476
  0
VERTEX
  8
0
 10
203.348871
 20
211.374376
 42
-0.024587
  0
VERTEX
  8
0
 10
207.353988
 20
212.891597
 42
-0.022009
  0
VERTEX
  8
0
 10
211.638531
 20
214.072494
 42
-0.019807
  0
VERTEX
  8
0
 10
216.427200
 20
214.970234
 42
-0.013260
  0
VERTEX
  8
0
 10
221.962054
 20
215.633091
 42
-0.004590
  0
VERTEX
  8
0
 10
226.114790
 20
215.980627
 42
-0.047588
  0
VERTEX
  8
0
 10
227.828144
 20
215.945000
 42
-0.298653
  0
VERTEX
  8
0
 10
228.298248
 20
215.551972
 42
-0.256925
  0
VERTEX
  8
0
 10
228.162387
 20
214.911265
 42
0.014077
  0
VERTEX
  8
0
 10
225.504536
 20
211.649779
 42
0.003865
  0
VERTEX
  8
0
 10
221.504852
 20
206.365361
 42
0.003842
  0
VERTEX
  8
0
 10
217.591875
 20
201.026449
 42
0.014477
  0
VERTEX
  8
0
 10
215.264025
 20
197.593292
 42
0.026118
  0
VERTEX
  8
0
 10
209.241064
 20
186.942607
 42
0.011196
  0
VERTEX
  8
0
 10
202.276985
 20
172.151955
 42
0.011232
  0
VERTEX
  8
0
 10
195.944408
 20
156.971217
 42
0.024397
  0
VERTEX
  8
0
 10
191.924682
 20
145.000000
 42
-0.052522
  0
VERTEX
  8
0
 10
190.346854
 20
141.050968
 42
-0.064392
  0
VERTEX
  8
0
 10
188.060739
 20
137.805469
 42
-0.068613
  0
VERTEX
  8
0
 10
185.161950
 20
135.405627
 42
-0.072996
  0
VERTEX
  8
0
 10
181.780469
 20
133.940886
 42
-0.053810
  0
VERTEX
  8
0
 10
179.121194
 20
133.523958
 42
-0.003112
  0
VERTEX
  8
0
 10
170.874975
 20
133.179262
 42
-0.004649
  0
VERTEX
  8
0
 10
160.943086
 20
132.918459
 42
-0.003242
  0
VERTEX
  8
0
 10
149.732840
 20
132.801066
 42
0.001370
  0
VERTEX
  8
0
 10
131.741693
 20
132.679999
 42
0.015998
  0
VERTEX
  8
0
 10
124.722145
 20
132.388780
 42
0.041978
  0
VERTEX
  8
0
 10
120.511699
 20
131.720685
 42
0.055018
  0
VERTEX
  8
0
 10
116.857397
 20
130.381807
 42
0.029646
  0
VERTEX
  8
0
 10
114.512367
 20
129.037899
 42
0.050436
  0
VERTEX
  8
0
 10
112.757326
 20
127.617333
 42
0.051714
  0
VERTEX
  8
0
 10
111.351379
 20
125.900657
 42
0.033022
  0
VERTEX
  8
0
 10
110.075536
 20
123.656037
 42
-0.016089
  0
VERTEX
  8
0
 10
109.080789
 20
121.759295
 42
-0.011679
  0
VERTEX
  8
0
 10
107.857934
 20
119.712538
 42
-0.011820
  0
VERTEX
  8
0
 10
106.604612
 20
117.822515
 42
-0.025172
  0
VERTEX
  8
0
 10
105.530314
 20
116.436926
 42
0.026731
  0
VERTEX
  8
0
 10
104.288530
 20
114.824975
 42
0.005956
  0
VERTEX
  8
0
 10
102.350634
 20
111.937211
 42
0.006168
  0
VERTEX
  8
0
 10
100.190480
 20
108.543214
 42
0.005920
  0
VERTEX
  8
0
 10
98.084458
 20
105.050658
 42
-0.014801
  0
VERTEX
  8
0
 10
94.097287
 20
98.696457
 42
-0.005869
  0
VERTEX
  8
0
 10
88.263617
 20
90.200852
 42
-0.005901
  0
VERTEX
  8
0
 10
82.192664
 20
81.790968
 42
-0.013696
  0
VERTEX
  8
0
 10
77.395889
 20
75.666904
 42
0.009936
  0
VERTEX
  8
0
 10
76.589448
 20
74.653113
 42
0.002391
  0
VERTEX
  8
0
 10
75.294666
 20
72.940401
 42
0.002455
  0
VERTEX
  8
0
 10
73.827429
 20
70.959955
 42
0.002433
  0
VERTEX
  8
0
 10
72.375309
 20
68.959324
 42
-0.023803
  0
VERTEX
  8
0
 10
70.764722
 20
66.928847
 42
-0.018090
  0
VERTEX
  8
0
 10
68.819084
 20
64.858511
 42
-0.018404
  0
VERTEX
  8
0
 10
66.848402
 20
63.046561
 42
-0.040154
  0
VERTEX
  8
0
 10
65.186670
 20
61.844131
 42
0.027621
  0
VERTEX
  8
0
 10
63.451149
 20
60.653349
 42
0.011349
  0
VERTEX
  8
0
 10
61.229672
 20
58.859581
 42
0.011189
  0
VERTEX
  8
0
 10
58.926889
 20
56.822092
 42
0.014093
  0
VERTEX
  8
0
 10
56.893063
 20
54.830487
 42
-0.009606
  0
VERTEX
  8
0
 10
53.983999
 20
51.930229
 42
-0.080354
  0
VERTEX
  8
0
 10
52.460511
 20
50.878293
 42
-0.136022
  0
VERTEX
  8
0
 10
51.018653
 20
50.625505
 42
-0.045650
  0
VERTEX
  8
0
 10
48.899665
 20
51.028776
 42
0.027413
  0
VERTEX
  8
0
 10
47.265584
 20
51.401895
 42
0.012732
  0
VERTEX
  8
0
 10
45.111571
 20
51.714703
 42
0.012569
  0
VERTEX
  8
0
 10
42.827203
 20
51.929178
 42
0.017121
  0
VERTEX
  8
0
 10
40.759483
 20
52.000000
 42
0.028063
  0
VERTEX
  8
0
 10
38.085382
 20
51.849795
 42
0.068019
  0
VERTEX
  8
0
 10
36.172062
 20
51.365212
 42
0.064527
  0
VERTEX
  8
0
 10
34.399838
 20
50.367480
 42
0.023274
  0
VERTEX
  8
0
 10
32.161830
 20
48.527238
 42
0.044283
  0
VERTEX
  8
0
 10
28.650772
 20
44.740004
 42
0.022357
  0
VERTEX
  8
0
 10
24.894907
 20
39.415771
 42
0.021599
  0
VERTEX
  8
0
 10
21.747336
 20
33.999886
 42
0.071590
  0
VERTEX
  8
0
 10
20.374746
 20
30.123731
 42
0.029916
  0
VERTEX
  8
0
 10
20.187402
 20
28.770647
 42
0.020638
  0
VERTEX
  8
0
 10
20.130941
 20
27.224380
 42
0.020869
  0
VERTEX
  8
0
 10
20.200601
 20
25.727528
 42
0.039438
  0
VERTEX
  8
0
 10
20.401410
 20
24.536791
 42
0.226161
  0
VERTEX
  8
0
 10
22.065591
 20
22.523469
 42
0.144771
  0
VERTEX
  8
0
 10
25.122495
 20
22.068742
 42
0.040245
  0
VERTEX
  8
0
 10
31.160523
 20
23.420990
 42
0.003590
  0
VERTEX
  8
0
 10
46.000000
 20
28.140896
 42
0.010627
  0
VERTEX
  8
0
 10
47.376882
 20
28.622347
 42
0.013697
  0
VERTEX
  8
0
 10
48.618750
 20
29.125614
 42
0.011484
  0
VERTEX
  8
0
 10
49.626174
 20
29.594222
 42
0.106671
  0
VERTEX
  8
0
 10
50.000000
 20
29.890929
 42
-0.104346
  0
VERTEX
  8
0
 10
51.474077
 20
31.072001
 42
-0.002182
  0
VERTEX
  8
0
 10
59.910775
 20
35.285489
 42
-0.003692
  0
VERTEX
  8
0
 10
68.054832
 20
39.233970
 42
-0.050820
  0
VERTEX
  8
0
 10
71.141928
 20
40.334681
 42
0.096947
  0
VERTEX
  8
0
 10
73.710303
 20
41.525786
 42
0.032485
  0
VERTEX
  8
0
 10
76.908493
 20
44.178696
 42
0.032705
  0
VERTEX
  8
0
 10
79.919970
 20
47.424368
 42
0.051520
  0
VERTEX
  8
0
 10
82.000004
 20
50.601598
 42
-0.006153
  0
VERTEX
  8
0
 10
82.610051
 20
51.748059
 42
-0.007705
  0
VERTEX
  8
0
 10
83.205210
 20
52.795469
 42
-0.006357
  0
VERTEX
  8
0
 10
83.727690
 20
53.657598
 42
-0.058051
  0
VERTEX
  8
0
 10
84.000932
 20
54.000000
 42
0.032815
  0
VERTEX
  8
0
 10
84.338739
 20
54.382142
 42
0.000930
  0
VERTEX
  8
0
 10
85.674215
 20
56.115625
 42
0.001890
  0
VERTEX
  8
0
 10
87.234531
 20
58.164757
 42
0.001298
  0
VERTEX
  8
0
 10
88.989299
 20
60.500000
 42
-0.017346
  0
VERTEX
  8
0
 10
91.384242
 20
63.482868
 42
-0.005743
  0
VERTEX
  8
0
 10
95.097683
 20
67.693969
 42
-0.005711
  0
VERTEX
  8
0
 10
99.324308
 20
72.271262
 42
-0.006458
  0
VERTEX
  8
0
 10
103.486772
 20
76.564575
 42
-0.008827
  0
VERTEX
  8
0
 10
109.605196
 20
82.501010
 42
-0.030366
  0
VERTEX
  8
0
 10
113.862849
 20
86.028893
 42
-0.030904
  0
VERTEX
  8
0
 10
118.478352
 20
88.983619
 42
-0.009388
  0
VERTEX
  8
0
 10
125.814836
 20
92.886210
 42
0.000000
  0
VERTEX
  8
0
 10
138.129671
 20
99.143271
 42
0.000000
  0
VERTEX
  8
0
 10
146.314836
 20
98.725238
 42
-0.010830
  0
VERTEX
  8
0
 10
150.163048
 20
98.445028
 42
-0.005364
  0
VERTEX
  8
0
 10
155.033108
 20
97.931416
 42
-0.005320
  0
VERTEX
  8
0
 10
160.074312
 20
97.290572
 42
-0.007761
  0
VERTEX
  8
0
 10
164.500000
 20
96.609891
 42
0.028499
  0
VERTEX
  8
0
 10
175.973382
 20
95.329377
 42
0.007761
  0
VERTEX
  8
0
 10
194.206629
 20
94.624423
 42
0.008170
  0
VERTEX
  8
0
 10
212.954664
 20
94.497270
 42
0.018958
  0
VERTEX
  8
0
 10
227.000000
 20
95.164502
 42
0.014901
  0
VERTEX
  8
0
 10
235.585923
 20
96.157832
 42
0.024288
  0
VERTEX
  8
0
 10
242.781360
 20
97.568138
 42
0.027200
  0
VERTEX
  8
0
 10
249.178324
 20
99.522447
 42
0.027255
  0
VERTEX
  8
0
 10
255.320890
 20
102.158558
 42
0.022879
  0
VERTEX
  8
0
 10
259.679095
 20
104.571424
 42
0.010202
  0
VERTEX
  8
0
 10
265.197699
 20
108.122588
 42
0.009777
  0
VERTEX
  8
0
 10
270.423852
 20
111.788810
 42
0.033701
  0
VERTEX
  8
0
 10
273.591640
 20
114.449813
 42
-0.022270
  0
VERTEX
  8
0
 10
274.778599
 20
115.494039
 42
-0.004598
  0
VERTEX
  8
0
 10
276.965250
 20
117.218548
 42
-0.003966
  0
VERTEX
  8
0
 10
279.937089
 20
119.480825
 42
-0.001773
  0
VERTEX
  8
0
 10
283.881936
 20
122.412895
 42
-0.048047
  0
VERTEX
  8
0
 10
286.100850
 20
123.741809
 42
-0.091574
  0
VERTEX
  8
0
 10
288.103059
 20
124.276485
 42
-0.167067
  0
VERTEX
  8
0
 10
289.441866
 20
123.930692
 42
-0.251872
  0
VERTEX
  8
0
 10
290.000000
 20
122.893011
 42
0.103182
  0
VERTEX
  8
0
 10
290.071076
 20
122.552255
 42
0.098827
  0
VERTEX
  8
0
 10
290.272978
 20
122.262322
 42
0.096916
  0
VERTEX
  8
0
 10
290.574578
 20
122.068040
 42
0.095044
  0
VERTEX
  8
0
 10
290.929286
 20
122.000000
 42
-0.122952
  0
VERTEX
  8
0
 10
291.525062
 20
121.851248
 42
-0.006200
  0
VERTEX
  8
0
 10
293.295429
 20
120.880063
 42
-0.009632
  0
VERTEX
  8
0
 10
295.381779
 20
119.648044
 42
-0.006801
  0
VERTEX
  8
0
 10
297.679286
 20
118.187447
 42
0.005684
  0
VERTEX
  8
0
 10
300.342189
 20
116.486191
 42
0.003373
  0
VERTEX
  8
0
 10
303.552665
 20
114.516063
 42
0.003375
  0
VERTEX
  8
0
 10
306.781667
 20
112.594066
 42
0.005807
  0
VERTEX
  8
0
 10
309.500000
 20
111.042917
 42
-0.024322
  0
VERTEX
  8
0
 10
313.900156
 20
108.311386
 42
-0.043054
  0
VERTEX
  8
0
 10
317.191729
 20
105.593356
 42
-0.053210
  0
VERTEX
  8
0
 10
319.443394
 20
102.854996
 42
-0.082453
  0
VERTEX
  8
0
 10
320.681101
 20
100.063343
 42
-0.061866
  0
VERTEX
  8
0
 10
320.912871
 20
98.279582
 42
-0.001726
  0
VERTEX
  8
0
 10
320.929869
 20
90.493763
 42
-0.003514
  0
VERTEX
  8
0
 10
320.853785
 20
81.322331
 42
-0.002403
  0
VERTEX
  8
0
 10
320.644119
 20
70.907735
 42
0.002871
  0
VERTEX
  8
0
 10
320.423135
 20
59.395790
 42
0.006148
  0
VERTEX
  8
0
 10
320.412871
 20
50.509521
 42
0.004537
  0
VERTEX
  8
0
 10
320.550757
 20
43.689310
 42
0.083703
  0
VERTEX
  8
0
 10
320.970930
 20
41.576459
 42
0.065526
  0
VERTEX
  8
0
 10
321.553439
 20
40.495292
 42
0.041571
  0
VERTEX
  8
0
 10
322.485461
 20
39.406879
 42
0.041203
  0
VERTEX
  8
0
 10
323.599525
 20
38.473844
 42
0.058811
  0
VERTEX
  8
0
 10
324.732067
 20
37.859026
 42
0.065047
  0
VERTEX
  8
0
 10
328.273585
 20
36.954907
 42
0.006104
  0
VERTEX
  8
0
 10
337.227468
 20
35.985608
 42
0.008004
  0
VERTEX
  8
0
 10
347.680798
 20
35.151545
 42
0.007262
  0
VERTEX
  8
0
 10
358.500000
 20
34.620005
 42
-0.009745
  0
VERTEX
  8
0
 10
362.132974
 20
34.423427
 42
-0.011044
  0
VERTEX
  8
0
 10
365.606618
 20
34.090214
 42
-0.010318
  0
VERTEX
  8
0
 10
368.537578
 20
33.682093
 42
-0.058260
  0
VERTEX
  8
0
 10
370.054445
 20
33.253493
 42
0.027614
  0
VERTEX
  8
0
 10
371.633702
 20
32.700971
 42
0.003582
  0
VERTEX
  8
0
 10
375.073779
 20
31.733424
 42
0.004167
  0
VERTEX
  8
0
 10
379.176383
 20
30.647861
 42
0.003470
  0
VERTEX
  8
0
 10
383.554445
 20
29.560688
 42
-0.002910
  0
VERTEX
  8
0
 10
392.750392
 20
27.288068
 42
-0.006550
  0
VERTEX
  8
0
 10
399.689601
 20
25.433194
 42
-0.008495
  0
VERTEX
  8
0
 10
405.010824
 20
23.837816
 42
-0.018765
  0
VERTEX
  8
0
 10
409.000000
 20
22.400605
 42
0.033754
  0
VERTEX
  8
0
 10
410.817307
 20
21.806740
 42
0.011460
  0
VERTEX
  8
0
 10
413.528125
 20
21.185042
 42
0.011337
  0
VERTEX
  8
0
 10
416.563313
 20
20.633204
 42
0.012803
  0
VERTEX
  8
0
 10
419.500000
 20
20.244572
 42
0.000000
  0
VERTEX
  8
0
 10
426.500000
 20
19.500000
 42
0.000000
  0
VERTEX
  8
0
 10
429.000000
 20
14.500000
 42
0.007537
  0
VERTEX
  8
0
 10
430.005591
 20
12.562397
 42
0.010824
  0
VERTEX
  8
0
 10
430.958777
 20
10.879887
 42
0.006891
  0
VERTEX
  8
0
 10
431.800353
 20
9.509923
 42
0.144735
  0
VERTEX
  8
0
 10
432.157538
 20
9.197487
 42
-0.050824
  0
VERTEX
  8
0
 10
432.534778
 20
8.975057
 42
-0.006411
  0
VERTEX
  8
0
 10
433.290755
 20
8.403764
 42
-0.007476
  0
VERTEX
  8
0
 10
434.171985
 20
7.698528
 42
-0.006146
  0
VERTEX
  8
0
 10
435.091946
 20
6.920256
 42
0.067352
  0
VERTEX
  8
0
 10
437.692895
 20
5.216387
 42
0.071617
  0
VERTEX
  8
0
 10
440.599999
 20
4.309282
 42
0.042979
  0
VERTEX
  8
0
 10
444.730745
 20
4.004866
 42
0.009494
  0
VERTEX
  8
0
 10
451.834539
 20
4.227502
 42
0.025865
  0
VERTEX
  8
0
 10
463.729606
 20
5.445468
 42
0.200299
  0
VERTEX
  8
0
 10
468.396779
 20
8.301305
 42
0.316678
  0
VERTEX
  8
0
 10
468.452808
 20
12.633241
 42
0.053085
  0
VERTEX
  8
0
 10
462.750000
 20
19.315063
 42
0.028634
  0
VERTEX
  8
0
 10
457.669618
 20
23.602570
 42
0.036115
  0
VERTEX
  8
0
 10
452.496763
 20
26.929247
 42
0.033957
  0
VERTEX
  8
0
 10
446.643727
 20
29.623668
 42
0.021252
  0
VERTEX
  8
0
 10
439.484007
 20
32.004574
 42
-0.024715
  0
VERTEX
  8
0
 10
436.557196
 20
33.000411
 42
-0.014506
  0
VERTEX
  8
0
 10
433.158509
 20
34.463018
 42
-0.014489
  0
VERTEX
  8
0
 10
429.836985
 20
36.126800
 42
-0.023859
  0
VERTEX
  8
0
 10
427.145027
 20
37.744319
 42
0.023725
  0
VERTEX
  8
0
 10
423.483150
 20
39.945975
 42
0.046759
  0
VERTEX
  8
0
 10
420.359262
 20
41.268347
 42
0.033295
  0
VERTEX
  8
0
 10
416.416947
 20
42.234863
 42
0.007051
  0
VERTEX
  8
0
 10
409.426869
 20
43.361154
 42
-0.009388
  0
VERTEX
  8
0
 10
393.514662
 20
46.001404
 42
-0.020480
  0
VERTEX
  8
0
 10
381.458559
 20
48.750083
 42
-0.026382
  0
VERTEX
  8
0
 10
371.969362
 20
51.872242
 42
-0.039890
  0
VERTEX
  8
0
 10
364.144216
 20
55.655635
 42
-0.019104
  0
VERTEX
  8
0
 10
359.385110
 20
58.694626
 42
-0.076678
  0
VERTEX
  8
0
 10
356.888484
 20
61.065427
 42
-0.124851
  0
VERTEX
  8
0
 10
355.860172
 20
63.432868
 42
-0.096088
  0
VERTEX
  8
0
 10
355.945653
 20
66.259033
 42
-0.011663
  0
VERTEX
  8
0
 10
356.303819
 20
67.690657
 42
-0.011912
  0
VERTEX
  8
0
 10
356.726070
 20
69.093874
 42
-0.011742
  0
VERTEX
  8
0
 10
357.149907
 20
70.293555
 42
-0.047658
  0
VERTEX
  8
0
 10
357.492298
 20
70.987538
 42
0.078230
  0
VERTEX
  8
0
 10
357.849566
 20
71.838642
 42
0.006118
  0
VERTEX
  8
0
 10
358.410373
 20
74.244038
 42
0.008220
  0
VERTEX
  8
0
 10
358.999942
 20
77.146836
 42
0.006192
  0
VERTEX
  8
0
 10
359.555870
 20
80.355485
 42
-0.002166
  0
VERTEX
  8
0
 10
360.884987
 20
88.411826
 42
-0.001582
  0
VERTEX
  8
0
 10
362.428275
 20
97.348686
 42
-0.001537
  0
VERTEX
  8
0
 10
364.087470
 20
106.611720
 42
-0.001643
  0
VERTEX
  8
0
 10
365.767783
 20
115.660663
 42
0.000000
  0
VERTEX
  8
0
 10
367.500000
 20
124.821327
 42
0.000000
  0
VERTEX
  8
0
 10
370.402696
 20
123.298721
 42
0.019390
  0
VERTEX
  8
0
 10
374.606424
 20
121.297469
 42
0.003468
  0
VERTEX
  8
0
 10
382.617077
 20
117.923771
 42
0.003857
  0
VERTEX
  8
0
 10
390.780459
 20
114.625709
 42
0.012761
  0
VERTEX
  8
0
 10
396.225495
 20
112.633668
 42
0.013749
  0
VERTEX
  8
0
 10
403.896055
 20
110.280168
 42
0.011422
  0
VERTEX
  8
0
 10
412.172252
 20
108.190120
 42
0.010232
  0
VERTEX
  8
0
 10
421.409902
 20
106.278490
 42
0.006940
  0
VERTEX
  8
0
 10
432.000000
 20
104.463743
 42
-0.003977
  0
VERTEX
  8
0
 10
445.064816
 20
102.304533
 42
-0.011632
  0
VERTEX
  8
0
 10
454.023041
 20
100.535133
 42
-0.012988
  0
VERTEX
  8
0
 10
462.336879
 20
98.463151
 42
-0.006064
  0
VERTEX
  8
0
 10
473.000000
 20
95.369789
 42
-0.027762
  0
VERTEX
  8
0
 10
475.744408
 20
94.368041
 42
-0.116130
  0
VERTEX
  8
0
 10
477.148268
 20
93.329943
 42
-0.088058
  0
VERTEX
  8
0
 10
478.136632
 20
91.632148
 42
-0.012187
  0
VERTEX
  8
0
 10
479.453184
 20
87.752479
 42
0.002628
  0
VERTEX
  8
0
 10
480.249824
 20
85.248605
 42
0.003132
  0
VERTEX
  8
0
 10
481.028275
 20
82.896041
 42
0.002710
  0
VERTEX
  8
0
 10
481.707698
 20
80.920447
 42
0.020310
  0
VERTEX
  8
0
 10
482.072428
 20
80.000000
 42
-0.022953
  0
VERTEX
  8
0
 10
482.481731
 20
78.950915
 42
-0.001122
  0
VERTEX
  8
0
 10
483.668396
 20
75.415625
 42
-0.001820
  0
VERTEX
  8
0
 10
485.053878
 20
71.206085
 42
-0.001312
  0
VERTEX
  8
0
 10
486.570188
 20
66.500000
 42
0.002745
  0
VERTEX
  8
0
 10
488.160433
 20
61.612479
 42
0.002933
  0
VERTEX
  8
0
 10
489.770026
 20
56.850000
 42
0.002784
  0
VERTEX
  8
0
 10
491.200496
 20
52.771843
 42
0.013713
  0
VERTEX
  8
0
 10
492.082569
 20
50.500000
 42
-0.006144
  0
VERTEX
  8
0
 10
493.316909
 20
47.458162
 42
-0.006745
  0
VERTEX
  8
0
 10
494.436985
 20
44.479781
 42
-0.006065
  0
VERTEX
  8
0
 10
495.570884
 20
41.212983
 42
-0.003551
  0
VERTEX
  8
0
 10
496.853359
 20
37.275257
 42
0.000000
  0
VERTEX
  8
0
 10
497.878352
 20
34.050514
 42
0.000000
  0
VERTEX
  8
0
 10
493.189176
 20
37.279755
 42
-0.005228
  0
VERTEX
  8
0
 10
486.947401
 20
41.675128
 42
-0.014420
  0
VERTEX
  8
0
 10
482.674562
 20
44.942438
 42
-0.018373
  0
VERTEX
  8
0
 10
479.225776
 20
47.957525
 42
-0.014899
  0
VERTEX
  8
0
 10
475.750000
 20
51.430120
 42
-0.006532
  0
VERTEX
  8
0
 10
473.929815
 20
53.411601
 42
-0.009744
  0
VERTEX
  8
0
 10
472.395313
 20
55.195281
 42
-0.005261
  0
VERTEX
  8
0
 10
471.155691
 20
56.726848
 42
-0.169062
  0
VERTEX
  8
0
 10
471.000000
 20
57.174145
 42
0.292283
  0
VERTEX
  8
0
 10
470.778334
 20
57.520948
 42
0.010067
  0
VERTEX
  8
0
 10
469.237500
 20
58.196540
 42
0.015990
  0
VERTEX
  8
0
 10
467.299801
 20
58.928335
 42
0.010138
  0
VERTEX
  8
0
 10
465.000000
 20
59.662108
 42
0.000000
  0
VERTEX
  8
0
 10
459.000000
 20
61.443268
 42
0.000000
  0
VERTEX
  8
0
 10
458.986345
 20
65.471634
 42
0.012662
  0
VERTEX
  8
0
 10
458.937364
 20
67.177149
 42
0.010812
  0
VERTEX
  8
0
 10
458.801420
 20
68.970559
 42
0.010949
  0
VERTEX
  8
0
 10
458.606743
 20
70.596299
 42
0.030216
  0
VERTEX
  8
0
 10
458.375986
 20
71.726015
 42
0.189341
  0
VERTEX
  8
0
 10
455.471014
 20
75.659193
 42
0.026556
  0
VERTEX
  8
0
 10
446.474596
 20
80.659506
 42
0.030682
  0
VERTEX
  8
0
 10
436.597356
 20
84.752545
 42
0.083067
  0
VERTEX
  8
0
 10
429.140403
 20
86.000000
 42
0.100335
  0
VERTEX
  8
0
 10
424.888966
 20
85.138190
 42
0.278006
  0
VERTEX
  8
0
 10
423.165850
 20
82.767318
 42
0.121524
  0
VERTEX
  8
0
 10
423.864264
 20
78.318059
 42
0.017502
  0
VERTEX
  8
0
 10
427.750000
 20
69.902461
 42
0.010399
  0
VERTEX
  8
0
 10
431.277265
 20
63.263401
 42
0.043303
  0
VERTEX
  8
0
 10
433.817844
 20
59.515494
 42
0.050981
  0
VERTEX
  8
0
 10
436.762176
 20
56.563760
 42
0.018255
  0
VERTEX
  8
0
 10
441.505917
 20
52.970453
 42
-0.002458
  0
VERTEX
  8
0
 10
446.092918
 20
49.718675
 42
-0.017167
  0
VERTEX
  8
0
 10
448.268762
 20
48.044148
 42
-0.022628
  0
VERTEX
  8
0
 10
450.081163
 20
46.404140
 42
-0.006131
  0
VERTEX
  8
0
 10
452.796922
 20
43.646690
 42
0.022677
  0
VERTEX
  8
0
 10
454.506255
 20
42.022275
 42
0.015410
  0
VERTEX
  8
0
 10
456.587221
 20
40.326472
 42
0.015552
  0
VERTEX
  8
0
 10
458.701801
 20
38.810949
 42
0.029865
  0
VERTEX
  8
0
 10
460.500000
 20
37.754852
 42
-0.022748
  0
VERTEX
  8
0
 10
464.405850
 20
35.535019
 42
-0.003167
  0
VERTEX
  8
0
 10
472.251111
 20
30.521571
 42
-0.002931
  0
VERTEX
  8
0
 10
480.061232
 20
25.395375
 42
-0.026852
  0
VERTEX
  8
0
 10
483.316285
 20
22.969925
 42
0.011739
  0
VERTEX
  8
0
 10
488.409401
 20
18.929967
 42
0.004517
  0
VERTEX
  8
0
 10
495.661033
 20
13.552403
 42
0.003188
  0
VERTEX
  8
0
 10
502.858287
 20
8.385147
 42
0.035414
  0
VERTEX
  8
0
 10
505.880825
 20
6.550698
 42
0.029473
  0
VERTEX
  8
0
 10
507.873181
 20
5.671062
 42
0.072566
  0
VERTEX
  8
0
 10
509.432894
 20
5.335422
 42
0.064996
  0
VERTEX
  8
0
 10
511.124550
 20
5.441673
 42
0.020117
  0
VERTEX
  8
0
 10
513.611823
 20
6.031308
 42
0.020339
  0
VERTEX
  8
0
 10
515.360884
 20
6.598658
 42
0.021716
  0
VERTEX
  8
0
 10
517.019433
 20
7.295514
 42
0.021923
  0
VERTEX
  8
0
 10
518.384893
 20
8.015139
 42
0.087523
  0
VERTEX
  8
0
 10
519.103443
 20
8.624641
 42
-0.048566
  0
VERTEX
  8
0
 10
519.634328
 20
9.150894
 42
-0.041608
  0
VERTEX
  8
0
 10
520.283816
 20
9.595988
 42
-0.043613
  0
VERTEX
  8
0
 10
520.948294
 20
9.901096
 42
-0.086032
  0
VERTEX
  8
0
 10
521.518853
 20
10.000000
 42
0.199930
  0
VERTEX
  8
0
 10
523.434401
 20
10.797843
 42
0.033174
  0
VERTEX
  8
0
 10
526.110062
 20
13.878491
 42
0.036582
  0
VERTEX
  8
0
 10
528.472727
 20
17.518711
 42
0.079448
  0
VERTEX
  8
0
 10
529.593674
 20
20.647634
 42
0.046561
  0
VERTEX
  8
0
 10
529.777731
 20
22.634110
 42
0.020955
  0
VERTEX
  8
0
 10
529.666182
 20
25.253060
 42
0.019053
  0
VERTEX
  8
0
 10
529.297257
 20
28.247804
 42
0.015535
  0
VERTEX
  8
0
 10
528.681635
 20
31.419015
 42
-0.014502
  0
VERTEX
  8
0
 10
526.800114
 20
41.005213
 42
-0.011442
  0
VERTEX
  8
0
 10
525.304378
 20
51.473178
 42
-0.011633
  0
VERTEX
  8
0
 10
524.321089
 20
61.708040
 42
-0.018130
  0
VERTEX
  8
0
 10
524.000000
 20
70.560133
 42
0.000000
  0
VERTEX
  8
0
 10
524.000000
 20
81.059719
 42
0.000000
  0
VERTEX
  8
0
 10
528.068571
 20
78.779860
 42
-0.031228
  0
VERTEX
  8
0
 10
529.856999
 20
77.625452
 42
-0.017702
  0
VERTEX
  8
0
 10
531.876545
 20
76.022067
 42
-0.017622
  0
VERTEX
  8
0
 10
533.804883
 20
74.255406
 42
-0.027626
  0
VERTEX
  8
0
 10
535.318571
 20
72.593133
 42
0.009863
  0
VERTEX
  8
0
 10
539.436558
 20
67.735089
 42
0.083075
  0
VERTEX
  8
0
 10
541.657391
 20
65.931220
 42
0.103968
  0
VERTEX
  8
0
 10
544.156048
 20
65.133023
 42
0.019257
  0
VERTEX
  8
0
 10
549.000000
 20
64.825000
 42
-0.001337
  0
VERTEX
  8
0
 10
551.881641
 20
64.745250
 42
-0.001352
  0
VERTEX
  8
0
 10
554.751562
 20
64.650374
 42
-0.001316
  0
VERTEX
  8
0
 10
557.249436
 20
64.554451
 42
-0.005519
  0
VERTEX
  8
0
 10
558.750000
 20
64.476273
 42
0.028055
  0
VERTEX
  8
0
 10
563.145573
 20
64.445529
 42
0.001807
  0
VERTEX
  8
0
 10
575.940625
 20
65.120649
 42
0.002331
  0
VERTEX
  8
0
 10
592.554674
 20
66.135234
 42
0.001123
  0
VERTEX
  8
0
 10
613.838302
 20
67.582639
 42
0.000000
  0
VERTEX
  8
0
 10
639.176605
 20
69.362961
 42
0.000000
  0
VERTEX
  8
0
 10
645.338302
 20
66.262306
 42
0.011812
  0
VERTEX
  8
0
 10
648.026397
 20
64.988275
 42
0.009144
  0
VERTEX
  8
0
 10
651.010225
 20
63.724323
 42
0.009263
  0
VERTEX
  8
0
 10
653.839938
 20
62.646679
 42
0.021883
  0
VERTEX
  8
0
 10
655.994377
 20
61.976477
 42
-0.045560
  0
VERTEX
  8
0
 10
661.796226
 20
59.865945
 42
-0.023883
  0
VERTEX
  8
0
 10
668.587837
 20
56.263420
 42
-0.023483
  0
VERTEX
  8
0
 10
675.279941
 20
51.855841
 42
-0.032110
  0
VERTEX
  8
0
 10
680.827977
 20
47.243452
 42
0.024624
  0
VERTEX
  8
0
 10
681.479227
 20
46.685346
 42
0.012286
  0
VERTEX
  8
0
 10
682.353692
 20
46.041417
 42
0.012165
  0
VERTEX
  8
0
 10
683.293888
 20
45.417578
 42
0.017525
  0
VERTEX
  8
0
 10
684.157082
 20
44.915932
 42
-0.017831
  0
VERTEX
  8
0
 10
685.067553
 20
44.386067
 42
-0.009434
  0
VERTEX
  8
0
 10
686.159379
 20
43.668267
 42
-0.009376
  0
VERTEX
  8
0
 10
687.250021
 20
42.890964
 42
-0.014312
  0
VERTEX
  8
0
 10
688.163316
 20
42.172480
 42
-0.000716
  0
VERTEX
  8
0
 10
691.081361
 20
39.731415
 42
-0.001470
  0
VERTEX
  8
0
 10
693.358750
 20
37.809304
 42
-0.001254
  0
VERTEX
  8
0
 10
695.840743
 20
35.691253
 42
-0.000391
  0
VERTEX
  8
0
 10
699.555533
 20
32.500000
 42
-0.002331
  0
VERTEX
  8
0
 10
702.033620
 20
30.347605
 42
-0.001883
  0
VERTEX
  8
0
 10
704.674972
 20
28.014062
 42
-0.001902
  0
VERTEX
  8
0
 10
707.096272
 20
25.842068
 42
-0.004906
  0
VERTEX
  8
0
 10
708.823181
 20
24.250000
 42
0.028633
  0
VERTEX
  8
0
 10
710.543409
 20
22.808831
 42
0.044190
  0
VERTEX
  8
0
 10
712.194439
 20
21.792522
 42
0.050872
  0
VERTEX
  8
0
 10
713.801774
 20
21.184204
 42
0.062562
  0
VERTEX
  8
0
 10
715.389879
 20
20.968197
 42
-0.064457
  0
VERTEX
  8
0
 10
718.333723
 20
20.556464
 42
-0.124623
  0
VERTEX
  8
0
 10
720.389195
 20
19.391384
 42
-0.129743
  0
VERTEX
  8
0
 10
721.591541
 20
17.426437
 42
-0.072898
  0
VERTEX
  8
0
 10
722.000000
 20
14.639757
 42
0.025971
  0
VERTEX
  8
0
 10
722.072493
 20
13.245023
 42
0.041090
  0
VERTEX
  8
0
 10
722.293750
 20
12.069179
 42
0.049756
  0
VERTEX
  8
0
 10
722.613904
 20
11.237731
 42
0.283177
  0
VERTEX
  8
0
 10
723.000000
 20
11.000000
 42
-0.151099
  0
VERTEX
  8
0
 10
723.381366
 20
10.882059
 42
-0.098430
  0
VERTEX
  8
0
 10
723.706250
 20
10.550156
 42
-0.081424
  0
VERTEX
  8
0
 10
723.925386
 20
10.054120
 42
-0.063461
  0
VERTEX
  8
0
 10
724.000000
 20
9.468615
 42
0.088478
  0
VERTEX
  8
0
 10
724.112085
 20
8.840167
 42
0.066520
  0
VERTEX
  8
0
 10
724.440625
 20
8.217991
 42
0.065663
  0
VERTEX
  8
0
 10
724.926585
 20
7.696157
 42
0.081035
  0
VERTEX
  8
0
 10
725.500000
 20
7.361626
 42
-0.062169
  0
VERTEX
  8
0
 10
726.073544
 20
7.055273
 42
-0.060699
  0
VERTEX
  8
0
 10
726.559375
 20
6.615205
 42
-0.065960
  0
VERTEX
  8
0
 10
726.888908
 20
6.114206
 42
-0.112997
  0
VERTEX
  8
0
 10
727.000000
 20
5.628911
 42
0.342783
  0
VERTEX
  8
0
 10
728.851748
 20
3.245238
 42
0.018270
  0
VERTEX
  8
0
 10
738.857962
 20
1.077561
 42
0.025972
  0
VERTEX
  8
0
 10
749.302262
 20
-0.233438
 42
0.079880
  0
VERTEX
  8
0
 10
756.378013
 20
0.380027
 42
0.186789
  0
VERTEX
  8
0
 10
758.475766
 20
1.862566
 42
0.201705
  0
VERTEX
  8
0
 10
758.942470
 20
4.313335
 42
0.089904
  0
VERTEX
  8
0
 10
757.400986
 20
8.071765
 42
0.022870
  0
VERTEX
  8
0
 10
753.587688
 20
13.478386
 42
0.011972
  0
VERTEX
  8
0
 10
750.331960
 20
17.472091
 42
0.022106
  0
VERTEX
  8
0
 10
747.471106
 20
20.530117
 42
0.027174
  0
VERTEX
  8
0
 10
744.965473
 20
22.728426
 42
0.064053
  0
VERTEX
  8
0
 10
742.834176
 20
23.999883
 42
-0.024318
  0
VERTEX
  8
0
 10
737.927724
 20
26.422139
 42
-0.020510
  0
VERTEX
  8
0
 10
732.984226
 20
29.440973
 42
-0.021070
  0
VERTEX
  8
0
 10
728.499818
 20
32.720062
 42
-0.033690
  0
VERTEX
  8
0
 10
725.000000
 20
35.921241
 42
0.018116
  0
VERTEX
  8
0
 10
722.948807
 20
37.918148
 42
0.012631
  0
VERTEX
  8
0
 10
720.500000
 20
40.025100
 42
0.012761
  0
VERTEX
  8
0
 10
718.045615
 20
41.928852
 42
0.025665
  0
VERTEX
  8
0
 10
716.000000
 20
43.277511
 42
-0.032696
  0
VERTEX
  8
0
 10
708.331173
 20
48.489568
 42
-0.007889
  0
VERTEX
  8
0
 10
696.368136
 20
58.125657
 42
-0.008528
  0
VERTEX
  8
0
 10
684.226303
 20
68.581148
 42
-0.017458
  0
VERTEX
  8
0
 10
675.145400
 20
77.261971
 42
-0.000104
  0
VERTEX
  8
0
 10
672.983458
 20
79.479088
 42
-0.000055
  0
VERTEX
  8
0
 10
670.295670
 20
82.237221
 42
-0.000054
  0
VERTEX
  8
0
 10
667.541968
 20
85.064227
 42
-0.000084
  0
VERTEX
  8
0
 10
665.159009
 20
87.511971
 42
0.000000
  0
VERTEX
  8
0
 10
659.818018
 20
93.000000
 42
0.000000
  0
VERTEX
  8
0
 10
645.659009
 20
93.006548
 42
-0.017751
  0
VERTEX
  8
0
 10
632.970743
 20
93.463020
 42
-0.016094
  0
VERTEX
  8
0
 10
619.922470
 20
94.820242
 42
-0.015276
  0
VERTEX
  8
0
 10
606.328471
 20
97.103086
 42
-0.012628
  0
VERTEX
  8
0
 10
592.000000
 20
100.340059
 42
-0.005128
  0
VERTEX
  8
0
 10
585.522055
 20
102.047334
 42
-0.020571
  0
VERTEX
  8
0
 10
581.619265
 20
103.293567
 42
-0.028009
  0
VERTEX
  8
0
 10
579.257197
 20
104.309612
 42
-0.362703
  0
VERTEX
  8
0
 10
578.900137
 20
105.125165
 42
-0.010906
  0
VERTEX
  8
0
 10
579.161060
 20
105.953871
 42
-0.001410
  0
VERTEX
  8
0
 10
579.762515
 20
107.711767
 42
-0.001644
  0
VERTEX
  8
0
 10
580.488967
 20
109.793397
 42
-0.001372
  0
VERTEX
  8
0
 10
581.273997
 20
112.000000
 42
0.025077
  0
VERTEX
  8
0
 10
582.084306
 20
114.672402
 42
0.011423
  0
VERTEX
  8
0
 10
582.886124
 20
118.234375
 42
0.011279
  0
VERTEX
  8
0
 10
583.562025
 20
122.034716
 42
0.015220
  0
VERTEX
  8
0
 10
583.990477
 20
125.500000
 42
-0.019446
  0
VERTEX
  8
0
 10
584.464445
 20
129.084439
 42
-0.012424
  0
VERTEX
  8
0
 10
585.279691
 20
133.207704
 42
-0.012475
  0
VERTEX
  8
0
 10
586.285846
 20
137.232004
 42
-0.021811
  0
VERTEX
  8
0
 10
587.345525
 20
140.500000
 42
0.042409
  0
VERTEX
  8
0
 10
589.322864
 20
147.578221
 42
0.049623
  0
VERTEX
  8
0
 10
589.938886
 20
154.522337
 42
0.040782
  0
VERTEX
  8
0
 10
589.202936
 20
162.481543
 42
0.017925
  0
VERTEX
  8
0
 10
587.000000
 20
172.838949
 42
-0.005357
  0
VERTEX
  8
0
 10
585.851300
 20
177.643047
 42
-0.006496
  0
VERTEX
  8
0
 10
584.881250
 20
182.172078
 42
-0.005565
  0
VERTEX
  8
0
 10
584.158149
 20
185.996355
 42
-0.043965
  0
VERTEX
  8
0
 10
584.000000
 20
187.791483
 42
-0.058066
  0
VERTEX
  8
0
 10
584.210168
 20
189.595106
 42
-0.006826
  0
VERTEX
  8
0
 10
585.195519
 20
193.525190
 42
-0.008103
  0
VERTEX
  8
0
 10
586.511435
 20
198.179956
 42
-0.006553
  0
VERTEX
  8
0
 10
588.069852
 20
203.133133
 42
0.006898
  0
VERTEX
  8
0
 10
591.308932
 20
213.452923
 42
0.011219
  0
VERTEX
  8
0
 10
593.740103
 20
222.309692
 42
0.010168
  0
VERTEX
  8
0
 10
595.926599
 20
231.857271
 42
0.004546
  0
VERTEX
  8
0
 10
598.432883
 20
244.500000
 42
-0.002278
  0
VERTEX
  8
0
 10
602.434022
 20
265.174437
 42
-0.015149
  0
VERTEX
  8
0
 10
604.786857
 20
275.406424
 42
-0.030931
  0
VERTEX
  8
0
 10
606.818960
 20
281.576540
 42
-0.073482
  0
VERTEX
  8
0
 10
609.241968
 20
285.743423
 42
-0.265877
  0
VERTEX
  8
0
 10
610.019671
 20
286.051946
 42
-0.095557
  0
VERTEX
  8
0
 10
611.187544
 20
285.648525
 42
-0.044263
  0
VERTEX
  8
0
 10
612.921296
 20
284.432628
 42
-0.010098
  0
VERTEX
  8
0
 10
615.617976
 20
282.066172
 42
0.019029
  0
VERTEX
  8
0
 10
619.964900
 20
278.386846
 42
0.038853
  0
VERTEX
  8
0
 10
623.684883
 20
275.913899
 42
0.050073
  0
VERTEX
  8
0
 10
626.996178
 20
274.478793
 42
0.077379
  0
VERTEX
  8
0
 10
630.071476
 20
274.000000
 42
-0.127598
  0
VERTEX
  8
0
 10
631.946094
 20
273.513686
 42
-0.038683
  0
VERTEX
  8
0
 10
634.415133
 20
271.878424
 42
-0.023420
  0
VERTEX
  8
0
 10
637.858247
 20
268.924126
 42
-0.005691
  0
VERTEX
  8
0
 10
643.251467
 20
263.722140
 42
-0.004556
  0
VERTEX
  8
0
 10
649.499655
 20
257.443293
 42
-0.034997
  0
VERTEX
  8
0
 10
652.187084
 20
254.277633
 42
-0.070395
  0
VERTEX
  8
0
 10
653.557480
 20
251.729009
 42
-0.054197
  0
VERTEX
  8
0
 10
654.322805
 20
248.661535
 42
0.021607
  0
VERTEX
  8
0
 10
654.672816
 20
246.731771
 42
0.023292
  0
VERTEX
  8
0
 10
655.181531
 20
244.887976
 42
0.023641
  0
VERTEX
  8
0
 10
655.762757
 20
243.358017
 42
0.094043
  0
VERTEX
  8
0
 10
656.325570
 20
242.531573
 42
0.102080
  0
VERTEX
  8
0
 10
658.298046
 20
241.233785
 42
0.029879
  0
VERTEX
  8
0
 10
661.762350
 20
240.090570
 42
0.029669
  0
VERTEX
  8
0
 10
665.767784
 20
239.279940
 42
0.034768
  0
VERTEX
  8
0
 10
669.633369
 20
239.005577
 42
0.019969
  0
VERTEX
  8
0
 10
671.833509
 20
239.090507
 42
0.088259
  0
VERTEX
  8
0
 10
673.083306
 20
239.415733
 42
0.139839
  0
VERTEX
  8
0
 10
673.842080
 20
240.065965
 42
0.082342
  0
VERTEX
  8
0
 10
674.332754
 20
241.164451
 42
-0.034123
  0
VERTEX
  8
0
 10
674.669571
 20
242.167384
 42
-0.159590
  0
VERTEX
  8
0
 10
675.060850
 20
242.623782
 42
-0.232246
  0
VERTEX
  8
0
 10
675.551252
 20
242.667620
 42
-0.075949
  0
VERTEX
  8
0
 10
676.199385
 20
242.297509
 42
0.087251
  0
VERTEX
  8
0
 10
677.005245
 20
241.861027
 42
0.017238
  0
VERTEX
  8
0
 10
678.586694
 20
241.392774
 42
0.017784
  0
VERTEX
  8
0
 10
680.490414
 20
240.971402
 42
0.015699
  0
VERTEX
  8
0
 10
682.500000
 20
240.665898
 42
0.017991
  0
VERTEX
  8
0
 10
685.157676
 20
240.443481
 42
0.055531
  0
VERTEX
  8
0
 10
686.954032
 20
240.557581
 42
0.074638
  0
VERTEX
  8
0
 10
688.372500
 20
241.032976
 42
0.055808
  0
VERTEX
  8
0
 10
689.750000
 20
241.943132
 42
0.034026
  0
VERTEX
  8
0
 10
690.611015
 20
242.767087
 42
0.035511
  0
VERTEX
  8
0
 10
691.339062
 20
243.689128
 42
0.037961
  0
VERTEX
  8
0
 10
691.846243
 20
244.571878
 42
0.111865
  0
VERTEX
  8
0
 10
692.000000
 20
245.250524
 42
-0.091947
  0
VERTEX
  8
0
 10
692.156393
 20
246.093786
 42
-0.011092
  0
VERTEX
  8
0
 10
692.875929
 20
247.849537
 42
-0.012886
  0
VERTEX
  8
0
 10
693.840053
 20
249.914086
 42
-0.010276
  0
VERTEX
  8
0
 10
694.981885
 20
252.090231
 42
0.015687
  0
VERTEX
  8
0
 10
696.124670
 20
254.326676
 42
0.016977
  0
VERTEX
  8
0
 10
697.093162
 20
256.572942
 42
0.016704
  0
VERTEX
  8
0
 10
697.790448
 20
258.545900
 42
0.074708
  0
VERTEX
  8
0
 10
697.981885
 20
259.753825
 42
0.084556
  0
VERTEX
  8
0
 10
697.761265
 20
261.115078
 42
0.009162
  0
VERTEX
  8
0
 10
696.672804
 20
264.118279
 42
0.011029
  0
VERTEX
  8
0
 10
695.221915
 20
267.667233
 42
0.008682
  0
VERTEX
  8
0
 10
693.500000
 20
271.446594
 42
-0.005284
  0
VERTEX
  8
0
 10
691.776094
 20
275.163159
 42
-0.007416
  0
VERTEX
  8
0
 10
690.321875
 20
278.519043
 42
-0.004689
  0
VERTEX
  8
0
 10
689.173231
 20
281.356087
 42
-0.094107
  0
VERTEX
  8
0
 10
689.000000
 20
282.268329
 42
0.117692
  0
VERTEX
  8
0
 10
688.420714
 20
284.695271
 42
0.002168
  0
VERTEX
  8
0
 10
682.376995
 20
296.506777
 42
0.005815
  0
VERTEX
  8
0
 10
676.409245
 20
307.724439
 42
0.018314
  0
VERTEX
  8
0
 10
672.048009
 20
315.047016
 42
-0.007340
  0
VERTEX
  8
0
 10
670.496918
 20
317.525931
 42
-0.010224
  0
VERTEX
  8
0
 10
669.187464
 20
319.791945
 42
-0.006989
  0
VERTEX
  8
0
 10
668.164145
 20
321.712503
 42
-0.118168
  0
VERTEX
  8
0
 10
667.994423
 20
322.405036
 42
0.073300
  0
VERTEX
  8
0
 10
667.531276
 20
325.440064
 42
0.042458
  0
VERTEX
  8
0
 10
666.150694
 20
328.870304
 42
0.038474
  0
VERTEX
  8
0
 10
664.007862
 20
332.409568
 42
0.032875
  0
VERTEX
  8
0
 10
661.241682
 20
335.781346
 42
-0.005557
  0
VERTEX
  8
0
 10
656.293438
 20
341.182481
 42
-0.006298
  0
VERTEX
  8
0
 10
651.671689
 20
346.473799
 42
-0.006591
  0
VERTEX
  8
0
 10
647.798501
 20
351.145880
 42
-0.020223
  0
VERTEX
  8
0
 10
645.348575
 20
354.446305
 42
0.035646
  0
VERTEX
  8
0
 10
644.243261
 20
355.843229
 42
0.018090
  0
VERTEX
  8
0
 10
642.671084
 20
357.442616
 42
0.017874
  0
VERTEX
  8
0
 10
640.921670
 20
358.983355
 42
0.025433
  0
VERTEX
  8
0
 10
639.254863
 20
360.212642
 42
-0.036331
  0
VERTEX
  8
0
 10
637.620698
 20
361.473696
 42
-0.025541
  0
VERTEX
  8
0
 10
635.970386
 20
363.109335
 42
-0.025889
  0
VERTEX
  8
0
 10
634.544880
 20
364.847012
 42
-0.048086
  0
VERTEX
  8
0
 10
633.609642
 20
366.410189
 42
0.058415
  0
VERTEX
  8
0
 10
630.947712
 20
370.658261
 42
0.039025
  0
VERTEX
  8
0
 10
627.012731
 20
374.844473
 42
0.038461
  0
VERTEX
  8
0
 10
622.871079
 20
378.068330
 42
0.147186
  0
VERTEX
  8
0
 10
619.774700
 20
379.000000
 42
0.023529
  0
VERTEX
  8
0
 10
618.035655
 20
378.918117
 42
0.187797
  0
VERTEX
  8
0
 10
617.331003
 20
378.564273
 42
0.204579
  0
VERTEX
  8
0
 10
617.084454
 20
377.845807
 42
0.028475
  0
VERTEX
  8
0
 10
617.293011
 20
376.250000
 42
0.008354
  0
VERTEX
  8
0
 10
617.547862
 20
375.015589
 42
0.005167
  0
VERTEX
  8
0
 10
617.886502
 20
373.573438
 42
0.005182
  0
VERTEX
  8
0
 10
618.250588
 20
372.155456
 42
0.009285
  0
VERTEX
  8
0
 10
618.583180
 20
371.000000
 42
-0.286611
  0
VERTEX
  8
0
 10
618.444769
 20
370.478478
 42
-0.368173
  0
VERTEX
  8
0
 10
617.969602
 20
370.455855
 42
-0.041792
  0
VERTEX
  8
0
 10
616.612182
 20
371.699047
 42
-0.006510
  0
VERTEX
  8
0
 10
614.176670
 20
374.405589
 42
-0.006607
  0
VERTEX
  8
0
 10
612.193079
 20
376.729733
 42
-0.009764
  0
VERTEX
  8
0
 10
610.520647
 20
378.824458
 42
-0.005464
  0
VERTEX
  8
0
 10
609.175770
 20
380.618340
 42
-0.159426
  0
VERTEX
  8
0
 10
609.000000
 20
381.155589
 42
0.252935
  0
VERTEX
  8
0
 10
608.824689
 20
381.479971
 42
0.063612
  0
VERTEX
  8
0
 10
608.265625
 20
381.751954
 42
0.049428
  0
VERTEX
  8
0
 10
607.457687
 20
381.938537
 42
0.032056
  0
VERTEX
  8
0
 10
606.500000
 20
382.000000
 42
0.049920
  0
VERTEX
  8
0
 10
605.145987
 20
381.864477
 42
0.185492
  0
VERTEX
  8
0
 10
604.435225
 20
381.412573
 42
0.137056
  0
VERTEX
  8
0
 10
604.087156
 20
380.502334
 42
0.023209
  0
SEQEND
  0
POLYLINE
  8
0
 66
1
 70
1
  0
VERTEX
  8
0
 10
644.800000
 20
336.800000
 42
-0.039015
  0
VERTEX
  8
0
 10
645.907849
 20
335.504316
 42
-0.334193
  0
VERTEX
  8
0
 10
645.896645
 20
334.787667
 42
-0.307318
  0
VERTEX
  8
0
 10
645.181971
 20
334.555738
 42
-0.036269
  0
VERTEX
  8
0
 10
643.531357
 20
335.167667
 42
-0.035062
  0
VERTEX
  8
0
 10
642.623867
 20
335.660632
 42
-0.056878
  0
VERTEX
  8
0
 10
641.942878
 20
336.212845
 42
-0.079294
  0
VERTEX
  8
0
 10
641.571041
 20
336.736393
 42
-0.258773
  0
VERTEX
  8
0
 10
641.590374
 20
337.146228
 42
-0.111785
  0
VERTEX
  8
0
 10
642.205850
 20
337.773106
 42
-0.171499
  0
VERTEX
  8
0
 10
642.939111
 20
337.946525
 42
-0.123668
  0
VERTEX
  8
0
 10
643.801639
 20
337.628210
 42
-0.046476
  0
SEQEND
  0
POLYLINE
  8
0
 66
1
 70
1
  0
VERTEX
  8
0
 10
509.558870
 20
289.468197
 42
-0.024619
  0
VERTEX
  8
0
 10
508.737973
 20
288.908598
 42
-0.025646
  0
VERTEX
  8
0
 10
507.876904
 20
288.440625
 42
-0.026431
  0
VERTEX
  8
0
 10
507.094844
 20
288.115775
 42
-0.092984
  0
VERTEX
  8
0
 10
506.558870
 20
288.031803
 42
-0.312501
  0
VERTEX
  8
0
 10
506.350763
 20
288.185393
 42
-0.218612
  0
VERTEX
  8
0
 10
506.381250
 20
288.485547
 42
-0.072467
  0
VERTEX
  8
0
 10
506.765516
 20
288.964290
 42
-0.025554
  0
VERTEX
  8
0
 10
507.441130
 20
289.531803
 42
-0.024619
  0
VERTEX
  8
0
 10
508.262027
 20
290.091402
 42
-0.025646
  0
VERTEX
  8
0
 10
509.123096
 20
290.559375
 42
-0.026431
  0
VERTEX
  8
0
 10
509.905156
 20
290.884225
 42
-0.092984
  0
VERTEX
  8
0
 10
510.441130
 20
290.968197
 42
-0.312501
  0
VERTEX
  8
0
 10
510.649237
 20
290.814607
 42
-0.218612
  0
VERTEX
  8
0
 10
510.618750
 20
290.514453
 42
-0.072467
  0
VERTEX
  8
0
 10
510.234484
 20
290.035710
 42
-0.025554
  0
SEQEND
  0
POLYLINE
  8
0
 66
1
 70
1
  0
VERTEX
  8
0
 10
66.821429
 20
50.683405
 42
-0.035895
  0
VERTEX
  8
0
 10
64.803335
 20
48.942447
 42
-0.031916
  0
VERTEX
  8
0
 10
62.478808
 20
47.431965
 42
-0.033738
  0
VERTEX
  8
0
 10
60.515658
 20
46.495795
 42
-0.529643
  0
VERTEX
  8
0
 10
60.000000
 20
46.846035
 42
-0.179053
  0
VERTEX
  8
0
 10
60.527670
 20
48.272298
 42
-0.043351
  0
VERTEX
  8
0
 10
62.353596
 20
50.062241
 42
-0.044290
  0
VERTEX
  8
0
 10
64.518963
 20
51.544527
 42
-0.128641
  0
VERTEX
  8
0
 10
66.259990
 20
52.000000
 42
-0.021306
  0
VERTEX
  8
0
 10
67.249721
 20
51.957807
 42
-0.277432
  0
VERTEX
  8
0
 10
67.535975
 20
51.750642
 42
-0.282870
  0
VERTEX
  8
0
 10
67.484261
 20
51.404376
 42
-0.021914
  0
SEQEND
  0
POLYLINE
  8
0
 66
1
 70
1
  0
VERTEX
  8
0
 10
55.000000
 20
44.000000
 42
-0.091722
  0
VERTEX
  8
0
 10
54.929376
 20
43.618246
 42
-0.095921
  0
VERTEX
  8
0
 10
54.727232
 20
43.293750
 42
-0.099464
  0
VERTEX
  8
0
 10
54.425710
 20
43.076600
 42
-0.106871
  0
VERTEX
  8
0
 10
54.071429
 20
43.000000
 42
0.099621
  0
VERTEX
  8
0
 10
53.623818
 20
42.909923
 42
0.033628
  0
VERTEX
  8
0
 10
53.026144
 20
42.610519
 42
0.031892
  0
VERTEX
  8
0
 10
52.392841
 20
42.181517
 42
0.031570
  0
VERTEX
  8
0
 10
51.816964
 20
41.674107
 42
-0.106071
  0
VERTEX
  8
0
 10
50.160827
 20
40.603095
 42
-0.033557
  0
VERTEX
  8
0
 10
47.328892
 20
39.740686
 42
-0.030351
  0
VERTEX
  8
0
 10
44.636314
 20
39.284482
 42
-0.445958
  0
VERTEX
  8
0
 10
44.000000
 20
39.856020
 42
-0.230777
  0
VERTEX
  8
0
 10
44.309672
 20
40.491222
 42
-0.037299
  0
VERTEX
  8
0
 10
45.486406
 20
41.277420
 42
-0.023551
  0
VERTEX
  8
0
 10
47.508063
 20
42.297621
 42
-0.005472
  0
VERTEX
  8
0
 10
51.000000
 20
43.812466
 42
-0.011016
  0
VERTEX
  8
0
 10
53.127752
 20
44.653288
 42
-0.077015
  0
VERTEX
  8
0
 10
54.218979
 20
44.875145
 42
-0.234551
  0
VERTEX
  8
0
 10
54.770364
 20
44.632919
 42
-0.175803
  0
SEQEND
  0
POLYLINE
  8
0
 66
1
 70
1
  0
VERTEX
  8
0
 10
421.500000
 20
33.000000
 42
-0.253782
  0
VERTEX
  8
0
 10
421.521766
 20
32.615199
 42
-0.165100
  0
VERTEX
  8
0
 10
421.205217
 20
32.287316
 42
-0.083483
  0
VERTEX
  8
0
 10
420.520664
 20
32.068671
 42
-0.035659
  0
VERTEX
  8
0
 10
419.559017
 20
32.000000
 42
-0.037227
  0
VERTEX
  8
0
 10
418.579009
 20
32.073066
 42
-0.055981
  0
VERTEX
  8
0
 10
417.751711
 20
32.293750
 42
-0.073461
  0
VERTEX
  8
0
 10
417.186221
 20
32.616918
 42
-0.230178
  0
VERTEX
  8
0
 10
417.000000
 20
33.000000
 42
-0.186414
  0
VERTEX
  8
0
 10
417.147465
 20
33.381787
 42
-0.089706
  0
VERTEX
  8
0
 10
417.570164
 20
33.706250
 42
-0.069539
  0
VERTEX
  8
0
 10
418.198222
 20
33.926216
 42
-0.049547
  0
VERTEX
  8
0
 10
418.940983
 20
34.000000
 42
-0.046881
  0
VERTEX
  8
0
 10
419.729296
 20
33.925923
 42
-0.046318
  0
VERTEX
  8
0
 10
420.493350
 20
33.706250
 42
-0.050262
  0
VERTEX
  8
0
 10
421.123976
 20
33.383556
 42
-0.111412
  0
SEQEND
  0
POLYLINE
  8
0
 66
1
 70
1
  0
VERTEX
  8
0
 10
434.638374
 20
23.500000
 42
0.098143
  0
VERTEX
  8
0
 10
434.999607
 20
22.926463
 42
0.066864
  0
VERTEX
  8
0
 10
435.600966
 20
22.440625
 42
0.064008
  0
VERTEX
  8
0
 10
436.340293
 20
22.112085
 42
0.072710
  0
VERTEX
  8
0
 10
437.106989
 20
22.000000
 42
-0.137234
  0
VERTEX
  8
0
 10
438.324633
 20
21.659380
 42
-0.214417
  0
VERTEX
  8
0
 10
438.931728
 20
20.777352
 42
-0.162485
  0
VERTEX
  8
0
 10
438.752421
 20
19.521032
 42
-0.080543
  0
VERTEX
  8
0
 10
437.800000
 20
18.200000
 42
-0.050678
  0
VERTEX
  8
0
 10
436.570062
 20
17.196968
 42
-0.250316
  0
VERTEX
  8
0
 10
435.709414
 20
17.117296
 42
-0.248111
  0
VERTEX
  8
0
 10
435.159218
 20
17.789179
 42
-0.049980
  0
VERTEX
  8
0
 10
435.000000
 20
19.378028
 42
0.078279
  0
VERTEX
  8
0
 10
434.836735
 20
20.414485
 42
0.051438
  0
VERTEX
  8
0
 10
434.348457
 20
21.521933
 42
0.050008
  0
VERTEX
  8
0
 10
433.622400
 20
22.543301
 42
0.061023
  0
VERTEX
  8
0
 10
432.750000
 20
23.325576
 42
-0.008310
  0
VERTEX
  8
0
 10
431.491198
 20
24.235139
 42
-0.163230
  0
VERTEX
  8
0
 10
431.223074
 20
24.622993
 42
-0.451804
  0
VERTEX
  8
0
 10
431.376716
 20
24.864048
 42
-0.031312
  0
VERTEX
  8
0
 10
432.281385
 20
24.947548
 42
-0.078236
  0
VERTEX
  8
0
 10
433.005387
 20
24.855309
 42
-0.067072
  0
VERTEX
  8
0
 10
433.708571
 20
24.543967
 42
-0.069065
  0
VERTEX
  8
0
 10
434.285062
 20
24.069455
 42
-0.094734
  0
SEQEND
  0
ENDSEC
  0
EOF
