  0
SECTION
  2
HEADER
  9
$ACADVER
  1
AC1006
  9
$EXTMIN
 10
0.000000
 20
0.000000
 30
0.000000
  9
$EXTMAX
 10
78.000000
 20
88.000000
 30
0.000000
  0
ENDSEC
  0
SECTION
  2
ENTITIES
  0
POLYLINE
  8
0
 66
1
 70
1
  0
VERTEX
  8
0
 10
29.734467
 20
86.911949
 42
0.073350
  0
VERTEX
  8
0
 10
21.835708
 20
83.777064
 42
0.048666
  0
VERTEX
  8
0
 10
13.894230
 20
78.089439
 42
0.048765
  0
VERTEX
  8
0
 10
7.223239
 20
70.994030
 42
0.075024
  0
VERTEX
  8
0
 10
3.135773
 20
63.641081
 42
0.047267
  0
VERTEX
  8
0
 10
0.747192
 20
54.773864
 42
0.063283
  0
VERTEX
  8
0
 10
0.395598
 20
46.459992
 42
0.048854
  0
VERTEX
  8
0
 10
2.169398
 20
36.808853
 42
0.016970
  0
VERTEX
  8
0
 10
6.534860
 20
23.335328
 42
-0.008313
  0
VERTEX
  8
0
 10
7.855549
 20
19.487623
 42
-0.007737
  0
VERTEX
  8
0
 10
9.081057
 20
15.505318
 42
-0.007740
  0
VERTEX
  8
0
 10
10.060646
 20
11.932291
 42
-0.025820
  0
VERTEX
  8
0
 10
10.544846
 20
9.549515
 42
0.023903
  0
VERTEX
  8
0
 10
11.027209
 20
7.128271
 42
0.070244
  0
VERTEX
  8
0
 10
11.663476
 20
5.556752
 42
0.088199
  0
VERTEX
  8
0
 10
12.615904
 20
4.428056
 42
0.054229
  0
VERTEX
  8
0
 10
14.069254
 20
3.464187
 42
0.052661
  0
VERTEX
  8
0
 10
16.734598
 20
2.424184
 42
0.066969
  0
VERTEX
  8
0
 10
19.349070
 20
2.074232
 42
0.061808
  0
VERTEX
  8
0
 10
22.123427
 20
2.420409
 42
0.037063
  0
VERTEX
  8
0
 10
25.278235
 20
3.471787
 42
0.088689
  0
VERTEX
  8
0
 10
29.900972
 20
6.452414
 42
0.178959
  0
VERTEX
  8
0
 10
31.825630
 20
10.269496
 42
0.094287
  0
VERTEX
  8
0
 10
31.378627
 20
16.205081
 42
0.014993
  0
VERTEX
  8
0
 10
27.992592
 20
27.422054
 42
-0.023760
  0
VERTEX
  8
0
 10
24.798622
 20
38.714514
 42
-0.076370
  0
VERTEX
  8
0
 10
24.209549
 20
46.482769
 42
-0.106258
  0
VERTEX
  8
0
 10
26.022220
 20
52.591008
 42
-0.075101
  0
VERTEX
  8
0
 10
30.367863
 20
58.305973
 42
-0.098143
  0
VERTEX
  8
0
 10
35.639746
 20
61.723102
 42
-0.132604
  0
VERTEX
  8
0
 10
41.256906
 20
62.376300
 42
-0.124267
  0
VERTEX
  8
0
 10
46.707124
 20
60.102957
 42
-0.080323
  0
VERTEX
  8
0
 10
51.481330
 20
55.160255
 42
-0.027774
  0
VERTEX
  8
0
 10
53.211762
 20
52.351890
 42
-0.070321
  0
VERTEX
  8
0
 10
54.046241
 20
50.109638
 42
-0.047862
  0
VERTEX
  8
0
 10
54.390741
 20
47.257803
 42
-0.007733
  0
VERTEX
  8
0
 10
54.441676
 20
41.660255
 42
-0.013192
  0
VERTEX
  8
0
 10
54.279586
 20
36.712575
 42
-0.025229
  0
VERTEX
  8
0
 10
53.844973
 20
32.762225
 42
-0.026361
  0
VERTEX
  8
0
 10
53.030410
 20
28.991151
 42
-0.015952
  0
VERTEX
  8
0
 10
51.691676
 20
24.622355
 42
0.034723
  0
VERTEX
  8
0
 10
49.271391
 20
15.518026
 42
0.100987
  0
VERTEX
  8
0
 10
49.341879
 20
9.040642
 42
0.147894
  0
VERTEX
  8
0
 10
51.822270
 20
4.562590
 42
0.111182
  0
VERTEX
  8
0
 10
56.650304
 20
1.603486
 42
0.012203
  0
VERTEX
  8
0
 10
58.603969
 20
0.990590
 42
0.012254
  0
VERTEX
  8
0
 10
60.582507
 20
0.474660
 42
0.012150
  0
VERTEX
  8
0
 10
62.327714
 20
0.109469
 42
0.047023
  0
VERTEX
  8
0
 10
63.428139
 20
0.012379
 42
0.190495
  0
VERTEX
  8
0
 10
65.688254
 20
0.921535
 42
0.066259
  0
VERTEX
  8
0
 10
67.934606
 20
3.702029
 42
0.064036
  0
VERTEX
  8
0
 10
69.474519
 20
7.156667
 42
0.122816
  0
VERTEX
  8
0
 10
69.616232
 20
10.168840
 42
-0.071323
  0
VERTEX
  8
0
 10
69.523614
 20
11.851416
 42
-0.022328
  0
VERTEX
  8
0
 10
69.856972
 20
14.360954
 42
-0.019928
  0
VERTEX
  8
0
 10
70.523360
 20
17.389821
 42
-0.013495
  0
VERTEX
  8
0
 10
71.511727
 20
20.783476
 42
0.000087
  0
VERTEX
  8
0
 10
72.587733
 20
24.140076
 42
0.000064
  0
VERTEX
  8
0
 10
73.775412
 20
27.848896
 42
0.000065
  0
VERTEX
  8
0
 10
74.895388
 20
31.349412
 42
0.000147
  0
VERTEX
  8
0
 10
75.742193
 20
34.000000
 42
0.029309
  0
VERTEX
  8
0
 10
76.523917
 20
37.057218
 42
0.020130
  0
VERTEX
  8
0
 10
77.064109
 20
40.596024
 42
0.017367
  0
VERTEX
  8
0
 10
77.378974
 20
44.704180
 42
0.011047
  0
VERTEX
  8
0
 10
77.473325
 20
49.500000
 42
0.009024
  0
VERTEX
  8
0
 10
77.350174
 20
55.515672
 42
0.038842
  0
VERTEX
  8
0
 10
76.935521
 20
59.069233
 42
0.045223
  0
VERTEX
  8
0
 10
76.005143
 20
62.254406
 42
0.015215
  0
VERTEX
  8
0
 10
74.095936
 20
66.707868
 42
0.033490
  0
VERTEX
  8
0
 10
71.383905
 20
71.644188
 42
0.035356
  0
VERTEX
  8
0
 10
68.080730
 20
76.080500
 42
0.035919
  0
VERTEX
  8
0
 10
64.239202
 20
79.944282
 42
0.037068
  0
VERTEX
  8
0
 10
59.922484
 20
83.174239
 42
0.073549
  0
VERTEX
  8
0
 10
53.952111
 20
85.850755
 42
0.037872
  0
VERTEX
  8
0
 10
45.904322
 20
87.472874
 42
0.037096
  0
VERTEX
  8
0
 10
37.341910
 20
87.893017
 42
0.051608
  0
SEQEND
  0
POLYLINE
  8
0
 66
1
 70
1
  0
VERTEX
  8
0
 10
33.212151
 20
77.500000
 42
0.024548
  0
VERTEX
  8
0
 10
36.881997
 20
75.771869
 42
0.078747
  0
VERTEX
  8
0
 10
39.503004
 20
75.147548
 42
0.079158
  0
VERTEX
  8
0
 10
42.181120
 20
75.365804
 42
0.024976
  0
VERTEX
  8
0
 10
46.041008
 20
76.514468
 42
-0.020478
  0
VERTEX
  8
0
 10
47.803510
 20
77.056269
 42
-0.022517
  0
VERTEX
  8
0
 10
49.549772
 20
77.432600
 42
-0.022662
  0
VERTEX
  8
0
 10
51.058928
 20
77.617509
 42
-0.096279
  0
VERTEX
  8
0
 10
51.958025
 20
77.513322
 42
-0.099964
  0
VERTEX
  8
0
 10
54.364438
 20
76.178003
 42
-0.019730
  0
VERTEX
  8
0
 10
58.009997
 20
72.813550
 42
-0.021963
  0
VERTEX
  8
0
 10
61.559924
 20
68.942116
 42
-0.042105
  0
VERTEX
  8
0
 10
63.986357
 20
65.500000
 42
-0.053294
  0
VERTEX
  8
0
 10
65.977365
 20
61.081701
 42
-0.030383
  0
VERTEX
  8
0
 10
67.462816
 20
55.409751
 42
-0.030446
  0
VERTEX
  8
0
 10
68.231119
 20
49.732882
 42
-0.066219
  0
VERTEX
  8
0
 10
67.974106
 20
45.351663
 42
-0.010281
  0
VERTEX
  8
0
 10
67.678711
 20
43.975223
 42
-0.043820
  0
VERTEX
  8
0
 10
67.414799
 20
43.177626
 42
-0.475644
  0
VERTEX
  8
0
 10
67.243793
 20
43.129245
 42
-0.228034
  0
VERTEX
  8
0
 10
67.114999
 20
43.359406
 42
0.093380
  0
VERTEX
  8
0
 10
66.883847
 20
44.272326
 42
0.188239
  0
VERTEX
  8
0
 10
66.356227
 20
44.778305
 42
0.106893
  0
VERTEX
  8
0
 10
65.381774
 20
44.954986
 42
0.020654
  0
VERTEX
  8
0
 10
63.584940
 20
44.820123
 42
-0.022639
  0
VERTEX
  8
0
 10
61.472083
 20
44.669967
 42
-0.190065
  0
VERTEX
  8
0
 10
60.590710
 20
44.991663
 42
-0.171453
  0
VERTEX
  8
0
 10
60.117196
 20
45.847059
 42
-0.017725
  0
VERTEX
  8
0
 10
59.812752
 20
48.166278
 42
-0.017771
  0
VERTEX
  8
0
 10
59.683005
 20
50.342890
 42
-0.129729
  0
VERTEX
  8
0
 10
59.923258
 20
51.350736
 42
-0.193979
  0
VERTEX
  8
0
 10
60.583905
 20
51.902202
 42
-0.049078
  0
VERTEX
  8
0
 10
61.977812
 20
52.205561
 42
0.058064
  0
VERTEX
  8
0
 10
63.269667
 20
52.511056
 42
0.137824
  0
VERTEX
  8
0
 10
64.065312
 20
53.081641
 42
0.112898
  0
VERTEX
  8
0
 10
64.540531
 20
54.065679
 42
0.032244
  0
VERTEX
  8
0
 10
64.813358
 20
55.750000
 42
0.022024
  0
VERTEX
  8
0
 10
64.914680
 20
57.693717
 42
0.180910
  0
VERTEX
  8
0
 10
64.615787
 20
58.512772
 42
0.192606
  0
VERTEX
  8
0
 10
63.863585
 20
58.906660
 42
0.025464
  0
VERTEX
  8
0
 10
62.031974
 20
59.000000
 42
0.040384
  0
VERTEX
  8
0
 10
60.727408
 20
58.894462
 42
0.059027
  0
VERTEX
  8
0
 10
59.620725
 20
58.576993
 42
0.072105
  0
VERTEX
  8
0
 10
58.799642
 20
58.083425
 42
0.130531
  0
VERTEX
  8
0
 10
58.343310
 20
57.452269
 42
-0.172646
  0
VERTEX
  8
0
 10
57.916614
 20
56.954156
 42
-0.280665
  0
VERTEX
  8
0
 10
57.377035
 20
56.968568
 42
-0.086691
  0
VERTEX
  8
0
 10
56.613428
 20
57.675538
 42
-0.013525
  0
VERTEX
  8
0
 10
55.408090
 20
59.350070
 42
0.054172
  0
VERTEX
  8
0
 10
52.294396
 20
63.008858
 42
0.082227
  0
VERTEX
  8
0
 10
48.839091
 20
65.339371
 42
0.073053
  0
VERTEX
  8
0
 10
44.514574
 20
66.599100
 42
0.034416
  0
VERTEX
  8
0
 10
38.697066
 20
67.000000
 42
0.018176
  0
VERTEX
  8
0
 10
32.596632
 20
66.778159
 42
0.071300
  0
VERTEX
  8
0
 10
28.926184
 20
65.976408
 42
0.080904
  0
VERTEX
  8
0
 10
25.867599
 20
64.229761
 42
0.027585
  0
VERTEX
  8
0
 10
22.064369
 20
60.788441
 42
0.067827
  0
VERTEX
  8
0
 10
18.092355
 20
55.505739
 42
0.070457
  0
VERTEX
  8
0
 10
15.741528
 20
49.419198
 42
0.063413
  0
VERTEX
  8
0
 10
15.026078
 20
42.376928
 42
0.041445
  0
VERTEX
  8
0
 10
15.909277
 20
34.250000
 42
-0.009751
  0
VERTEX
  8
0
 10
16.364277
 20
31.624429
 42
-0.121432
  0
VERTEX
  8
0
 10
16.274517
 20
30.625210
 42
-0.259941
  0
VERTEX
  8
0
 10
15.737762
 20
30.143988
 42
-0.055626
  0
VERTEX
  8
0
 10
14.447513
 20
30.000000
 42
0.019727
  0
VERTEX
  8
0
 10
13.472774
 20
29.961529
 42
0.015977
  0
VERTEX
  8
0
 10
12.432489
 20
29.845741
 42
0.016270
  0
VERTEX
  8
0
 10
11.479031
 20
29.676831
 42
0.039655
  0
VERTEX
  8
0
 10
10.795089
 20
29.474863
 42
-0.205766
  0
VERTEX
  8
0
 10
10.131419
 20
29.501064
 42
-0.124165
  0
VERTEX
  8
0
 10
9.515677
 20
30.011738
 42
-0.068889
  0
VERTEX
  8
0
 10
8.946492
 20
31.069210
 42
-0.023840
  0
VERTEX
  8
0
 10
8.418794
 20
32.724863
 42
-0.010413
  0
VERTEX
  8
0
 10
7.810555
 20
35.209797
 42
-0.180414
  0
VERTEX
  8
0
 10
7.923264
 20
36.022761
 42
-0.253033
  0
VERTEX
  8
0
 10
8.526373
 20
36.418231
 42
-0.021184
  0
VERTEX
  8
0
 10
10.455492
 20
36.500000
 42
0.030924
  0
VERTEX
  8
0
 10
12.229493
 20
36.609822
 42
0.184872
  0
VERTEX
  8
0
 10
13.032535
 20
37.037403
 42
0.158919
  0
VERTEX
  8
0
 10
13.411536
 20
37.932056
 42
0.021380
  0
VERTEX
  8
0
 10
13.500000
 20
40.000000
 42
0.020483
  0
VERTEX
  8
0
 10
13.418730
 20
41.982984
 42
0.138812
  0
VERTEX
  8
0
 10
13.078379
 20
42.893320
 42
0.197617
  0
VERTEX
  8
0
 10
12.375047
 20
43.321586
 42
0.048949
  0
VERTEX
  8
0
 10
11.000000
 20
43.402696
 42
0.021968
  0
VERTEX
  8
0
 10
9.923660
 20
43.313338
 42
0.016756
  0
VERTEX
  8
0
 10
8.756309
 20
43.124631
 42
0.017037
  0
VERTEX
  8
0
 10
7.672665
 20
42.873364
 42
0.037725
  0
VERTEX
  8
0
 10
6.872541
 20
42.592731
 42
-0.118614
  0
VERTEX
  8
0
 10
6.045440
 20
42.445109
 42
-0.211267
  0
VERTEX
  8
0
 10
5.441858
 20
42.756213
 42
-0.103936
  0
VERTEX
  8
0
 10
4.986817
 20
43.649053
 42
-0.019694
  0
VERTEX
  8
0
 10
4.577227
 20
45.440034
 42
-0.109337
  0
VERTEX
  8
0
 10
4.843512
 20
53.665375
 42
-0.060670
  0
VERTEX
  8
0
 10
8.503665
 20
63.064117
 42
-0.058413
  0
VERTEX
  8
0
 10
14.565853
 20
71.751725
 42
-0.076893
  0
VERTEX
  8
0
 10
22.000000
 20
77.904560
 42
-0.032769
  0
VERTEX
  8
0
 10
24.999345
 20
79.437091
 42
-0.111186
  0
VERTEX
  8
0
 10
27.145452
 20
79.839595
 42
-0.093954
  0
VERTEX
  8
0
 10
29.455026
 20
79.314819
 42
-0.019603
  0
SEQEND
  0
POLYLINE
  8
0
 66
1
 70
1
  0
VERTEX
  8
0
 10
66.478393
 20
36.250000
 42
0.015556
  0
VERTEX
  8
0
 10
66.163906
 20
35.431425
 42
0.008439
  0
VERTEX
  8
0
 10
65.825936
 20
34.407501
 42
0.008400
  0
VERTEX
  8
0
 10
65.516840
 20
33.353012
 42
0.013142
  0
VERTEX
  8
0
 10
65.290213
 20
32.435109
 42
-0.069308
  0
VERTEX
  8
0
 10
64.915465
 20
31.421622
 42
-0.160179
  0
VERTEX
  8
0
 10
64.334351
 20
30.868669
 42
-0.118058
  0
VERTEX
  8
0
 10
63.407676
 20
30.673205
 42
-0.029655
  0
VERTEX
  8
0
 10
61.858756
 20
30.807422
 42
-0.029149
  0
VERTEX
  8
0
 10
60.506452
 20
31.087197
 42
-0.101017
  0
VERTEX
  8
0
 10
59.711270
 20
31.484782
 42
-0.179225
  0
VERTEX
  8
0
 10
59.381745
 20
32.020905
 42
-0.141647
  0
VERTEX
  8
0
 10
59.439947
 20
32.704101
 42
0.033477
  0
VERTEX
  8
0
 10
59.654914
 20
33.400318
 42
0.017060
  0
VERTEX
  8
0
 10
59.835484
 20
34.298329
 42
0.016871
  0
VERTEX
  8
0
 10
59.959246
 20
35.240750
 42
0.024214
  0
VERTEX
  8
0
 10
60.000000
 20
36.081787
 42
-0.098454
  0
VERTEX
  8
0
 10
60.188974
 20
37.032196
 42
-0.174098
  0
VERTEX
  8
0
 10
60.720098
 20
37.617049
 42
-0.100991
  0
VERTEX
  8
0
 10
61.743659
 20
37.919671
 42
-0.021545
  0
VERTEX
  8
0
 10
63.606989
 20
38.000000
 42
-0.014571
  0
VERTEX
  8
0
 10
65.577757
 20
37.942556
 42
-0.122879
  0
VERTEX
  8
0
 10
66.419140
 20
37.679691
 42
-0.278392
  0
VERTEX
  8
0
 10
66.691176
 20
37.157691
 42
-0.084021
  0
SEQEND
  0
POLYLINE
  8
0
 66
1
 70
1
  0
VERTEX
  8
0
 10
21.980636
 20
15.883646
 42
-0.045218
  0
VERTEX
  8
0
 10
22.294887
 20
14.390599
 42
-0.162662
  0
VERTEX
  8
0
 10
22.099007
 20
13.450515
 42
-0.126933
  0
VERTEX
  8
0
 10
21.337516
 20
12.681438
 42
-0.023221
  0
VERTEX
  8
0
 10
19.557931
 20
11.729016
 42
0.000000
  0
VERTEX
  8
0
 10
16.332132
 20
10.190740
 42
0.000000
  0
VERTEX
  8
0
 10
14.334667
 20
16.595370
 42
0.000000
  0
VERTEX
  8
0
 10
12.337202
 20
23.000000
 42
0.000000
  0
VERTEX
  8
0
 10
14.699986
 20
23.000000
 42
0.065469
  0
VERTEX
  8
0
 10
15.651369
 20
23.125109
 42
0.061893
  0
VERTEX
  8
0
 10
16.557696
 20
23.492511
 42
0.066440
  0
VERTEX
  8
0
 10
17.284601
 20
24.035358
 42
0.107981
  0
VERTEX
  8
0
 10
17.706154
 20
24.676634
 42
-0.493934
  0
VERTEX
  8
0
 10
18.342451
 20
24.864313
 42
-0.122499
  0
VERTEX
  8
0
 10
19.162440
 20
23.883385
 42
-0.032162
  0
VERTEX
  8
0
 10
20.319911
 20
21.052926
 42
-0.006515
  0
SEQEND
  0
POLYLINE
  8
0
 66
1
 70
1
  0
VERTEX
  8
0
 10
61.536472
 20
16.847751
 42
0.000000
  0
VERTEX
  8
0
 10
61.572943
 20
10.835411
 42
0.000000
  0
VERTEX
  8
0
 10
58.567722
 20
11.436456
 42
-0.041551
  0
VERTEX
  8
0
 10
55.777179
 20
12.240245
 42
-0.182986
  0
VERTEX
  8
0
 10
54.518149
 20
13.356740
 42
-0.165797
  0
VERTEX
  8
0
 10
54.245983
 20
15.101342
 42
-0.032779
  0
VERTEX
  8
0
 10
55.007120
 20
18.219970
 42
-0.004376
  0
VERTEX
  8
0
 10
56.253575
 20
22.062579
 42
-0.093028
  0
VERTEX
  8
0
 10
56.833901
 20
23.105095
 42
-0.227695
  0
VERTEX
  8
0
 10
57.616456
 20
23.463590
 42
-0.042826
  0
VERTEX
  8
0
 10
59.226133
 20
23.295936
 42
-0.093271
  0
VERTEX
  8
0
 10
60.465029
 20
22.807727
 42
-0.167893
  0
VERTEX
  8
0
 10
61.141235
 20
21.965903
 42
-0.075478
  0
VERTEX
  8
0
 10
61.450113
 20
20.388548
 42
-0.009160
  0
SEQEND
  0
POLYLINE
  8
0
 66
1
 70
1
  0
VERTEX
  8
0
 10
51.035184
 20
71.065741
 42
0.079341
  0
VERTEX
  8
0
 10
50.037386
 20
68.181366
 42
0.214006
  0
VERTEX
  8
0
 10
50.555485
 20
66.126265
 42
0.212160
  0
VERTEX
  8
0
 10
52.440786
 20
65.134992
 42
0.078121
  0
VERTEX
  8
0
 10
55.502236
 20
65.411205
 42
0.054018
  0
VERTEX
  8
0
 10
56.636288
 20
65.830103
 42
0.100170
  0
VERTEX
  8
0
 10
57.407526
 20
66.430448
 42
0.107897
  0
VERTEX
  8
0
 10
57.849422
 20
67.249586
 42
0.070053
  0
VERTEX
  8
0
 10
58.000000
 20
68.319052
 42
0.134126
  0
VERTEX
  8
0
 10
57.252611
 20
71.055080
 42
0.166986
  0
VERTEX
  8
0
 10
55.259261
 20
72.756527
 42
0.194578
  0
VERTEX
  8
0
 10
52.878070
 20
72.735777
 42
0.173287
  0
SEQEND
  0
POLYLINE
  8
0
 66
1
 70
1
  0
VERTEX
  8
0
 10
17.250000
 20
71.337719
 42
0.252873
  0
VERTEX
  8
0
 10
16.042153
 20
69.879932
 42
0.108906
  0
VERTEX
  8
0
 10
16.095308
 20
67.275994
 42
0.105252
  0
VERTEX
  8
0
 10
17.246813
 20
64.874429
 42
0.232553
  0
VERTEX
  8
0
 10
19.025201
 20
64.000000
 42
0.072520
  0
VERTEX
  8
0
 10
21.822116
 20
64.407812
 42
0.172604
  0
VERTEX
  8
0
 10
23.494502
 20
65.630801
 42
0.171411
  0
VERTEX
  8
0
 10
24.025317
 20
67.642212
 42
0.071347
  0
VERTEX
  8
0
 10
23.393011
 20
70.418213
 42
0.179080
  0
VERTEX
  8
0
 10
22.583692
 20
71.339460
 42
0.086969
  0
VERTEX
  8
0
 10
21.076085
 20
71.842550
 42
0.071745
  0
VERTEX
  8
0
 10
19.180166
 20
71.852668
 42
0.061482
  0
SEQEND
  0
POLYLINE
  8
0
 66
1
 70
1
  0
VERTEX
  8
0
 10
7.408551
 20
57.622285
 42
0.078977
  0
VERTEX
  8
0
 10
6.941751
 20
55.419024
 42
0.170525
  0
VERTEX
  8
0
 10
7.425419
 20
53.778161
 42
0.154996
  0
VERTEX
  8
0
 10
8.878156
 20
52.699232
 42
0.062309
  0
VERTEX
  8
0
 10
11.326480
 20
52.185571
 42
0.013495
  0
VERTEX
  8
0
 10
13.779101
 20
52.049665
 42
0.186666
  0
VERTEX
  8
0
 10
14.601546
 20
52.341259
 42
0.222866
  0
VERTEX
  8
0
 10
14.935757
 20
53.084791
 42
0.019894
  0
VERTEX
  8
0
 10
14.818164
 20
55.185571
 42
0.030879
  0
VERTEX
  8
0
 10
14.523257
 20
57.043216
 42
0.140623
  0
VERTEX
  8
0
 10
14.005168
 20
57.994755
 42
0.142897
  0
VERTEX
  8
0
 10
13.066268
 20
58.518605
 42
0.032254
  0
VERTEX
  8
0
 10
11.243125
 20
58.813871
 42
0.031175
  0
VERTEX
  8
0
 10
9.763937
 20
58.863806
 42
0.068282
  0
VERTEX
  8
0
 10
8.648370
 20
58.678121
 42
0.095757
  0
VERTEX
  8
0
 10
7.871873
 20
58.261729
 42
0.131052
  0
SEQEND
  0
ENDSEC
  0
EOF
