  0
SECTION
  2
HEADER
  9
$ACADVER
  1
AC1006
  9
$EXTMIN
 10
0.000000
 20
0.000000
 30
0.000000
  9
$EXTMAX
 10
58.000000
 20
60.000000
 30
0.000000
  0
ENDSEC
  0
SECTION
  2
ENTITIES
  0
POLYLINE
  8
0
 66
1
 70
1
  0
VERTEX
  8
0
 10
19.706960
 20
58.532054
 42
0.029674
  0
VERTEX
  8
0
 10
16.835766
 20
57.228748
 42
0.017878
  0
VERTEX
  8
0
 10
13.592050
 20
55.366366
 42
0.017891
  0
VERTEX
  8
0
 10
10.579262
 20
53.337219
 42
0.039244
  0
VERTEX
  8
0
 10
8.467087
 20
51.532913
 42
0.109590
  0
VERTEX
  8
0
 10
3.032399
 20
42.999492
 42
0.064043
  0
VERTEX
  8
0
 10
0.364497
 20
31.117555
 42
0.059359
  0
VERTEX
  8
0
 10
0.703557
 20
17.885965
 42
0.062262
  0
VERTEX
  8
0
 10
4.159508
 20
5.328450
 42
0.000000
  0
VERTEX
  8
0
 10
6.368028
 20
0.000000
 42
0.000000
  0
VERTEX
  8
0
 10
12.797513
 20
0.000000
 42
0.000000
  0
VERTEX
  8
0
 10
19.226999
 20
-0.000000
 42
0.000000
  0
VERTEX
  8
0
 10
18.684074
 20
2.750000
 42
0.007539
  0
VERTEX
  8
0
 10
18.375455
 20
4.197962
 42
0.002118
  0
VERTEX
  8
0
 10
17.850050
 20
6.448887
 42
0.002135
  0
VERTEX
  8
0
 10
17.234318
 20
8.988991
 42
0.002248
  0
VERTEX
  8
0
 10
16.607250
 20
11.480255
 42
-0.087264
  0
VERTEX
  8
0
 10
15.721145
 20
22.966345
 42
-0.119442
  0
VERTEX
  8
0
 10
19.116719
 20
32.724998
 42
-0.165559
  0
VERTEX
  8
0
 10
25.628052
 20
37.884116
 42
-0.198801
  0
VERTEX
  8
0
 10
33.375830
 20
37.491898
 42
-0.113487
  0
VERTEX
  8
0
 10
38.701281
 20
33.280816
 42
-0.103709
  0
VERTEX
  8
0
 10
41.867658
 20
27.032478
 42
-0.092778
  0
VERTEX
  8
0
 10
42.456678
 20
19.430866
 42
-0.072146
  0
VERTEX
  8
0
 10
40.387072
 20
11.383969
 42
0.044177
  0
VERTEX
  8
0
 10
39.399381
 20
8.273661
 42
0.053238
  0
VERTEX
  8
0
 10
39.054368
 20
5.228304
 42
0.062106
  0
VERTEX
  8
0
 10
39.354146
 20
2.691315
 42
0.160457
  0
VERTEX
  8
0
 10
40.321208
 20
1.148384
 42
0.121234
  0
VERTEX
  8
0
 10
41.194009
 20
0.725229
 42
0.034571
  0
VERTEX
  8
0
 10
42.695871
 20
0.512010
 42
0.029557
  0
VERTEX
  8
0
 10
44.623995
 20
0.487300
 42
0.017903
  0
VERTEX
  8
0
 10
46.899521
 20
0.674506
 42
0.018573
  0
VERTEX
  8
0
 10
50.255283
 20
1.198953
 42
0.120332
  0
VERTEX
  8
0
 10
51.798623
 20
1.909906
 42
0.107694
  0
VERTEX
  8
0
 10
52.920819
 20
3.283407
 42
0.013524
  0
VERTEX
  8
0
 10
54.578313
 20
6.772996
 42
0.023302
  0
VERTEX
  8
0
 10
56.168107
 20
10.874377
 42
0.052417
  0
VERTEX
  8
0
 10
56.890281
 20
14.127397
 42
0.092149
  0
VERTEX
  8
0
 10
56.741740
 20
16.244158
 42
0.334589
  0
VERTEX
  8
0
 10
55.750000
 20
17.031803
 42
-0.149140
  0
VERTEX
  8
0
 10
55.388403
 20
17.152249
 42
-0.337172
  0
VERTEX
  8
0
 10
55.307338
 20
17.411768
 42
-0.117925
  0
VERTEX
  8
0
 10
55.581954
 20
17.828727
 42
-0.026061
  0
VERTEX
  8
0
 10
56.240334
 20
18.384978
 42
0.108126
  0
VERTEX
  8
0
 10
57.090497
 20
19.382166
 42
0.072001
  0
VERTEX
  8
0
 10
57.602859
 20
20.799804
 42
0.043041
  0
VERTEX
  8
0
 10
57.853591
 20
22.932508
 42
0.011500
  0
VERTEX
  8
0
 10
57.880953
 20
26.353175
 42
0.012849
  0
VERTEX
  8
0
 10
57.777191
 20
28.901415
 42
0.021082
  0
VERTEX
  8
0
 10
57.543313
 20
31.047495
 42
0.016444
  0
VERTEX
  8
0
 10
57.235023
 20
32.707791
 42
0.352140
  0
VERTEX
  8
0
 10
56.871567
 20
33.000000
 42
-0.286037
  0
VERTEX
  8
0
 10
56.571075
 20
33.187221
 42
-0.085494
  0
VERTEX
  8
0
 10
56.411977
 20
33.728593
 42
-0.057373
  0
VERTEX
  8
0
 10
56.411465
 20
34.529571
 42
-0.032993
  0
VERTEX
  8
0
 10
56.584416
 20
35.480316
 42
0.142205
  0
VERTEX
  8
0
 10
56.482633
 20
38.259212
 42
0.016366
  0
VERTEX
  8
0
 10
54.305296
 20
44.189892
 42
0.012276
  0
VERTEX
  8
0
 10
51.754938
 20
50.071680
 42
0.291778
  0
VERTEX
  8
0
 10
50.302539
 20
51.001221
 42
-0.136258
  0
VERTEX
  8
0
 10
49.837625
 20
51.131078
 42
-0.013550
  0
VERTEX
  8
0
 10
48.854496
 20
51.761673
 42
-0.016269
  0
VERTEX
  8
0
 10
47.707554
 20
52.597841
 42
-0.012226
  0
VERTEX
  8
0
 10
46.500000
 20
53.588279
 42
0.023578
  0
VERTEX
  8
0
 10
45.097531
 20
54.686302
 42
0.014526
  0
VERTEX
  8
0
 10
43.353125
 20
55.849339
 42
0.014558
  0
VERTEX
  8
0
 10
41.557478
 20
56.901145
 42
0.025170
  0
VERTEX
  8
0
 10
40.000000
 20
57.654330
 42
0.059179
  0
VERTEX
  8
0
 10
35.501931
 20
58.956962
 42
0.030119
  0
VERTEX
  8
0
 10
29.638191
 20
59.565715
 42
0.030008
  0
VERTEX
  8
0
 10
23.861327
 20
59.468809
 42
0.072630
  0
SEQEND
  0
ENDSEC
  0
EOF
