  0
SECTION
  2
HEADER
  9
$ACADVER
  1
AC1006
  9
$EXTMIN
 10
0.000000
 20
0.000000
 30
0.000000
  9
$EXTMAX
 10
351.000000
 20
460.000000
 30
0.000000
  0
ENDSEC
  0
SECTION
  2
ENTITIES
  0
POLYLINE
  8
0
 66
1
 70
1
  0
VERTEX
  8
0
 10
118.209157
 20
458.904047
 42
0.009492
  0
VERTEX
  8
0
 10
98.456065
 20
457.334344
 42
0.008752
  0
VERTEX
  8
0
 10
78.233765
 20
454.982364
 42
0.009103
  0
VERTEX
  8
0
 10
59.759225
 20
452.161941
 42
0.019403
  0
VERTEX
  8
0
 10
45.626697
 20
449.171823
 42
0.000000
  0
VERTEX
  8
0
 10
38.753394
 20
447.436514
 42
0.000000
  0
VERTEX
  8
0
 10
36.823169
 20
442.262109
 42
-0.050955
  0
VERTEX
  8
0
 10
34.837178
 20
438.242196
 42
-0.059762
  0
VERTEX
  8
0
 10
32.165120
 20
434.938380
 42
-0.068430
  0
VERTEX
  8
0
 10
29.180161
 20
432.740460
 42
-0.125160
  0
VERTEX
  8
0
 10
26.268439
 20
432.000000
 42
-0.089139
  0
VERTEX
  8
0
 10
24.922907
 20
432.241800
 42
-0.049216
  0
VERTEX
  8
0
 10
23.416874
 20
432.976684
 42
-0.040302
  0
VERTEX
  8
0
 10
21.780422
 20
434.177086
 42
-0.024235
  0
VERTEX
  8
0
 10
20.036945
 20
435.840503
 42
0.000000
  0
VERTEX
  8
0
 10
16.383562
 20
439.681006
 42
0.000000
  0
VERTEX
  8
0
 10
11.176598
 20
436.339706
 42
0.038409
  0
VERTEX
  8
0
 10
7.511650
 20
433.569196
 42
0.046975
  0
VERTEX
  8
0
 10
4.575837
 20
430.435705
 42
0.053529
  0
VERTEX
  8
0
 10
2.638927
 20
427.290681
 42
0.111723
  0
VERTEX
  8
0
 10
2.007476
 20
424.500000
 42
0.192788
  0
VERTEX
  8
0
 10
4.439500
 20
418.426914
 42
0.062948
  0
VERTEX
  8
0
 10
12.065535
 20
412.218792
 42
0.048278
  0
VERTEX
  8
0
 10
23.695170
 20
406.441681
 42
0.027907
  0
VERTEX
  8
0
 10
38.588741
 20
401.691034
 42
-0.005843
  0
VERTEX
  8
0
 10
41.813442
 20
400.817088
 42
-0.009487
  0
VERTEX
  8
0
 10
44.529193
 20
399.990914
 42
-0.003673
  0
VERTEX
  8
0
 10
46.802020
 20
399.233584
 42
-0.320827
  0
VERTEX
  8
0
 10
47.000000
 20
398.956797
 42
-0.139988
  0
VERTEX
  8
0
 10
46.886115
 20
398.558000
 42
-0.001048
  0
VERTEX
  8
0
 10
45.062440
 20
395.639043
 42
-0.003811
  0
VERTEX
  8
0
 10
42.932366
 20
392.302281
 42
-0.002423
  0
VERTEX
  8
0
 10
40.404052
 20
388.448477
 42
0.036429
  0
VERTEX
  8
0
 10
25.857277
 20
362.602794
 42
0.030614
  0
VERTEX
  8
0
 10
14.237239
 20
333.391957
 42
0.029394
  0
VERTEX
  8
0
 10
5.857506
 20
301.716763
 42
0.027336
  0
VERTEX
  8
0
 10
1.000339
 20
268.500000
 42
0.022759
  0
VERTEX
  8
0
 10
-0.047589
 20
245.244036
 42
0.020873
  0
VERTEX
  8
0
 10
0.963747
 20
221.303414
 42
0.020592
  0
VERTEX
  8
0
 10
3.996436
 20
197.194651
 42
0.020637
  0
VERTEX
  8
0
 10
9.000564
 20
173.434838
 42
0.036514
  0
VERTEX
  8
0
 10
21.115769
 20
137.100263
 42
0.041376
  0
VERTEX
  8
0
 10
37.996470
 20
104.479865
 42
0.043511
  0
VERTEX
  8
0
 10
59.108256
 20
76.547317
 42
0.050322
  0
VERTEX
  8
0
 10
83.819609
 20
54.161524
 42
0.025015
  0
VERTEX
  8
0
 10
92.267092
 20
48.560581
 42
0.015840
  0
VERTEX
  8
0
 10
102.618008
 20
42.854894
 42
0.015880
  0
VERTEX
  8
0
 10
113.233887
 20
37.852632
 42
0.026596
  0
VERTEX
  8
0
 10
122.480711
 20
34.420463
 42
0.000000
  0
VERTEX
  8
0
 10
130.871131
 20
31.804464
 42
0.000000
  0
VERTEX
  8
0
 10
127.631874
 20
28.565207
 42
-0.034145
  0
VERTEX
  8
0
 10
125.654922
 20
26.841286
 42
-0.065377
  0
VERTEX
  8
0
 10
123.829123
 20
25.800018
 42
-0.053976
  0
VERTEX
  8
0
 10
121.571759
 20
25.151188
 42
-0.016975
  0
VERTEX
  8
0
 10
118.086525
 20
24.666832
 42
0.020976
  0
VERTEX
  8
0
 10
110.400424
 20
23.535931
 42
0.016014
  0
VERTEX
  8
0
 10
102.102330
 20
21.679814
 42
0.014725
  0
VERTEX
  8
0
 10
94.718799
 20
19.544402
 42
0.070620
  0
VERTEX
  8
0
 10
90.787213
 20
17.635586
 42
0.036783
  0
VERTEX
  8
0
 10
89.529350
 20
16.646132
 42
0.039806
  0
VERTEX
  8
0
 10
88.465619
 20
15.506966
 42
0.043347
  0
VERTEX
  8
0
 10
87.726820
 20
14.391426
 42
0.125228
  0
VERTEX
  8
0
 10
87.500000
 20
13.500000
 42
0.269299
  0
VERTEX
  8
0
 10
89.433965
 20
10.169674
 42
0.045786
  0
VERTEX
  8
0
 10
96.384311
 20
7.006863
 42
0.035043
  0
VERTEX
  8
0
 10
106.897624
 20
4.148242
 42
0.015821
  0
VERTEX
  8
0
 10
121.000000
 20
1.817533
 42
0.027431
  0
VERTEX
  8
0
 10
133.800574
 20
0.826052
 42
0.005613
  0
VERTEX
  8
0
 10
156.500000
 20
0.571213
 42
0.005613
  0
VERTEX
  8
0
 10
179.199426
 20
0.826052
 42
0.027431
  0
VERTEX
  8
0
 10
192.000000
 20
1.817533
 42
0.020972
  0
VERTEX
  8
0
 10
214.990315
 20
5.860802
 42
0.156951
  0
VERTEX
  8
0
 10
224.434909
 20
11.361464
 42
0.489836
  0
VERTEX
  8
0
 10
223.420642
 20
16.969647
 42
0.062660
  0
VERTEX
  8
0
 10
210.072570
 20
21.929277
 42
0.007396
  0
VERTEX
  8
0
 10
206.222049
 20
22.773382
 42
0.005582
  0
VERTEX
  8
0
 10
201.969094
 20
23.590646
 42
0.005646
  0
VERTEX
  8
0
 10
197.954915
 20
24.268945
 42
0.012991
  0
VERTEX
  8
0
 10
194.918147
 20
24.666344
 42
-0.016977
  0
VERTEX
  8
0
 10
191.484882
 20
25.143494
 42
-0.051739
  0
VERTEX
  8
0
 10
189.222456
 20
25.782888
 42
-0.063856
  0
VERTEX
  8
0
 10
187.409666
 20
26.788235
 42
-0.037326
  0
VERTEX
  8
0
 10
185.520814
 20
28.406883
 42
0.000000
  0
VERTEX
  8
0
 10
182.424900
 20
31.488792
 42
0.000000
  0
VERTEX
  8
0
 10
190.462450
 20
33.775906
 42
0.031101
  0
VERTEX
  8
0
 10
199.781441
 20
37.066163
 42
0.015492
  0
VERTEX
  8
0
 10
211.150396
 20
42.315598
 42
0.015486
  0
VERTEX
  8
0
 10
222.313170
 20
48.334643
 42
0.027563
  0
VERTEX
  8
0
 10
231.040425
 20
54.059951
 42
0.026647
  0
VERTEX
  8
0
 10
243.512564
 20
64.332549
 42
0.021246
  0
VERTEX
  8
0
 10
255.845405
 20
76.649614
 42
0.021139
  0
VERTEX
  8
0
 10
267.163043
 20
90.051491
 42
0.025419
  0
VERTEX
  8
0
 10
276.586527
 20
103.586739
 42
-0.008851
  0
VERTEX
  8
0
 10
278.988444
 20
107.292671
 42
-0.038063
  0
VERTEX
  8
0
 10
280.617351
 20
109.353585
 42
-0.073960
  0
VERTEX
  8
0
 10
281.859078
 20
110.354047
 42
-0.237973
  0
VERTEX
  8
0
 10
282.887340
 20
110.419227
 42
0.025896
  0
VERTEX
  8
0
 10
288.952467
 20
108.190351
 42
0.051027
  0
VERTEX
  8
0
 10
293.981436
 20
107.179178
 42
0.059354
  0
VERTEX
  8
0
 10
298.583442
 20
107.280952
 42
0.050529
  0
VERTEX
  8
0
 10
303.302010
 20
108.443935
 42
0.141482
  0
VERTEX
  8
0
 10
318.575170
 20
119.433671
 42
0.059142
  0
VERTEX
  8
0
 10
331.906470
 20
141.283978
 42
0.047568
  0
VERTEX
  8
0
 10
342.439891
 20
171.579253
 42
0.029879
  0
VERTEX
  8
0
 10
349.151184
 20
208.500000
 42
0.015729
  0
VERTEX
  8
0
 10
349.685097
 20
214.509244
 42
0.005078
  0
VERTEX
  8
0
 10
350.105081
 20
223.437559
 42
0.004870
  0
VERTEX
  8
0
 10
350.385129
 20
233.765539
 42
0.004342
  0
VERTEX
  8
0
 10
350.478353
 20
244.500000
 42
0.013707
  0
VERTEX
  8
0
 10
349.792167
 20
269.526212
 42
0.020853
  0
VERTEX
  8
0
 10
347.696499
 20
291.170193
 42
0.022773
  0
VERTEX
  8
0
 10
344.001283
 20
311.052057
 42
0.022149
  0
VERTEX
  8
0
 10
338.486477
 20
330.703761
 42
0.039433
  0
VERTEX
  8
0
 10
328.037391
 20
355.646918
 42
0.080867
  0
VERTEX
  8
0
 10
315.468528
 20
372.637452
 42
0.118608
  0
VERTEX
  8
0
 10
301.674839
 20
380.838211
 42
0.167418
  0
VERTEX
  8
0
 10
287.500000
 20
380.391774
 42
-0.005092
  0
VERTEX
  8
0
 10
285.883355
 20
379.796041
 42
-0.005917
  0
VERTEX
  8
0
 10
284.333653
 20
379.263424
 42
-0.005303
  0
VERTEX
  8
0
 10
283.013427
 20
378.842552
 42
-0.034904
  0
VERTEX
  8
0
 10
282.337968
 20
378.685667
 42
-0.264639
  0
VERTEX
  8
0
 10
281.653356
 20
378.942559
 42
-0.006552
  0
VERTEX
  8
0
 10
279.467129
 20
381.638915
 42
-0.012447
  0
VERTEX
  8
0
 10
276.955743
 20
384.988831
 42
-0.007944
  0
VERTEX
  8
0
 10
274.196688
 20
389.000000
 42
-0.003044
  0
VERTEX
  8
0
 10
269.911715
 20
395.532496
 42
-0.041304
  0
VERTEX
  8
0
 10
268.566225
 20
398.043557
 42
-0.187075
  0
VERTEX
  8
0
 10
268.515159
 20
399.336995
 42
-0.240754
  0
VERTEX
  8
0
 10
269.358720
 20
400.151482
 42
-0.000540
  0
VERTEX
  8
0
 10
270.666791
 20
400.547918
 42
-0.000067
  0
VERTEX
  8
0
 10
273.512436
 20
401.406571
 42
-0.000079
  0
VERTEX
  8
0
 10
276.892253
 20
402.425329
 42
-0.000066
  0
VERTEX
  8
0
 10
280.492127
 20
403.509279
 42
0.025456
  0
VERTEX
  8
0
 10
292.059424
 20
407.643312
 42
0.042024
  0
VERTEX
  8
0
 10
301.267569
 20
412.415461
 42
0.051999
  0
VERTEX
  8
0
 10
307.698340
 20
417.469012
 42
0.139632
  0
VERTEX
  8
0
 10
310.580020
 20
422.462804
 42
0.306031
  0
VERTEX
  8
0
 10
306.820256
 20
432.825172
 42
0.064783
  0
VERTEX
  8
0
 10
289.043969
 20
442.522362
 42
0.044329
  0
VERTEX
  8
0
 10
260.591238
 20
450.747420
 42
0.021243
  0
VERTEX
  8
0
 10
222.962216
 20
456.447140
 42
0.011933
  0
VERTEX
  8
0
 10
198.027516
 20
458.546225
 42
0.009168
  0
VERTEX
  8
0
 10
170.723333
 20
459.687801
 42
0.009157
  0
VERTEX
  8
0
 10
143.351222
 20
459.828377
 42
0.011785
  0
SEQEND
  0
POLYLINE
  8
0
 66
1
 70
1
  0
VERTEX
  8
0
 10
311.891009
 20
335.438256
 42
-0.101751
  0
VERTEX
  8
0
 10
316.582402
 20
329.498217
 42
-0.034106
  0
VERTEX
  8
0
 10
320.884508
 20
319.251294
 42
-0.028607
  0
VERTEX
  8
0
 10
324.655784
 20
305.735794
 42
-0.016947
  0
VERTEX
  8
0
 10
327.669801
 20
289.268218
 42
-0.027424
  0
VERTEX
  8
0
 10
329.092495
 20
273.897875
 42
-0.009366
  0
VERTEX
  8
0
 10
329.512089
 20
251.500000
 42
-0.009366
  0
VERTEX
  8
0
 10
329.092495
 20
229.102125
 42
-0.027424
  0
VERTEX
  8
0
 10
327.669801
 20
213.731782
 42
-0.021596
  0
VERTEX
  8
0
 10
323.796590
 20
193.626946
 42
-0.042778
  0
VERTEX
  8
0
 10
318.706746
 20
178.216670
 42
-0.057601
  0
VERTEX
  8
0
 10
312.912172
 20
168.086538
 42
-0.238402
  0
VERTEX
  8
0
 10
306.806698
 20
165.000000
 42
-0.182424
  0
VERTEX
  8
0
 10
305.638482
 20
165.440892
 42
-0.244477
  0
VERTEX
  8
0
 10
305.236412
 20
166.479092
 42
-0.035700
  0
VERTEX
  8
0
 10
305.701137
 20
169.012404
 42
-0.001090
  0
VERTEX
  8
0
 10
308.390080
 20
179.328614
 42
0.043300
  0
VERTEX
  8
0
 10
314.626133
 20
215.523963
 42
0.031013
  0
VERTEX
  8
0
 10
315.532626
 20
256.604170
 42
0.031399
  0
VERTEX
  8
0
 10
311.413175
 20
296.566584
 42
0.051871
  0
VERTEX
  8
0
 10
302.398784
 20
329.246347
 42
0.000000
  0
VERTEX
  8
0
 10
300.151481
 20
334.992694
 42
0.000000
  0
VERTEX
  8
0
 10
302.298247
 20
336.496347
 42
-0.076544
  0
VERTEX
  8
0
 10
304.635011
 20
337.648923
 42
-0.104197
  0
VERTEX
  8
0
 10
306.967323
 20
337.877722
 42
-0.094399
  0
VERTEX
  8
0
 10
309.362912
 20
337.141674
 42
-0.053343
  0
SEQEND
  0
ENDSEC
  0
EOF
