  0
SECTION
  2
HEADER
  9
$ACADVER
  1
AC1006
  9
$EXTMIN
 10
0.000000
 20
0.000000
 30
0.000000
  9
$EXTMAX
 10
460.000000
 20
351.000000
 30
0.000000
  0
ENDSEC
  0
SECTION
  2
ENTITIES
  0
POLYLINE
  8
0
 66
1
 70
1
  0
VERTEX
  8
0
 10
223.000000
 20
350.420298
 42
-0.002428
  0
VERTEX
  8
0
 10
220.996512
 20
350.200634
 42
-0.000446
  0
VERTEX
  8
0
 10
217.296875
 20
349.816513
 42
-0.000480
  0
VERTEX
  8
0
 10
212.968020
 20
349.375162
 42
-0.000436
  0
VERTEX
  8
0
 10
208.500000
 20
348.927892
 42
0.031549
  0
VERTEX
  8
0
 10
177.340704
 20
343.836186
 42
0.037492
  0
VERTEX
  8
0
 10
148.872876
 20
335.029919
 42
0.041699
  0
VERTEX
  8
0
 10
126.040765
 20
323.765952
 42
0.106178
  0
VERTEX
  8
0
 10
112.638026
 20
311.199172
 42
0.049749
  0
VERTEX
  8
0
 10
108.797814
 20
304.278607
 42
0.082428
  0
VERTEX
  8
0
 10
107.196788
 20
297.811775
 42
0.078810
  0
VERTEX
  8
0
 10
107.738934
 20
290.970880
 42
0.041917
  0
VERTEX
  8
0
 10
110.419227
 20
282.887340
 42
-0.237973
  0
VERTEX
  8
0
 10
110.354047
 20
281.859078
 42
-0.073960
  0
VERTEX
  8
0
 10
109.353585
 20
280.617351
 42
-0.038063
  0
VERTEX
  8
0
 10
107.292671
 20
278.988444
 42
-0.008851
  0
VERTEX
  8
0
 10
103.586739
 20
276.586527
 42
0.025419
  0
VERTEX
  8
0
 10
90.051491
 20
267.163043
 42
0.021139
  0
VERTEX
  8
0
 10
76.649614
 20
255.845405
 42
0.021246
  0
VERTEX
  8
0
 10
64.332549
 20
243.512564
 42
0.026647
  0
VERTEX
  8
0
 10
54.059951
 20
231.040425
 42
0.027563
  0
VERTEX
  8
0
 10
48.334643
 20
222.313170
 42
0.015486
  0
VERTEX
  8
0
 10
42.315598
 20
211.150396
 42
0.015492
  0
VERTEX
  8
0
 10
37.066163
 20
199.781441
 42
0.031101
  0
VERTEX
  8
0
 10
33.775906
 20
190.462450
 42
0.000000
  0
VERTEX
  8
0
 10
31.488792
 20
182.424900
 42
0.000000
  0
VERTEX
  8
0
 10
28.406883
 20
185.520814
 42
-0.037326
  0
VERTEX
  8
0
 10
26.788235
 20
187.409666
 42
-0.063856
  0
VERTEX
  8
0
 10
25.782888
 20
189.222456
 42
-0.051739
  0
VERTEX
  8
0
 10
25.143494
 20
191.484882
 42
-0.016977
  0
VERTEX
  8
0
 10
24.666344
 20
194.918147
 42
0.020984
  0
VERTEX
  8
0
 10
23.535674
 20
202.601760
 42
0.016011
  0
VERTEX
  8
0
 10
21.679560
 20
210.898698
 42
0.014722
  0
VERTEX
  8
0
 10
19.544141
 20
218.281785
 42
0.070618
  0
VERTEX
  8
0
 10
17.635586
 20
222.212787
 42
0.036783
  0
VERTEX
  8
0
 10
16.646132
 20
223.470650
 42
0.039806
  0
VERTEX
  8
0
 10
15.506966
 20
224.534381
 42
0.043347
  0
VERTEX
  8
0
 10
14.391426
 20
225.273180
 42
0.125228
  0
VERTEX
  8
0
 10
13.500000
 20
225.500000
 42
0.269299
  0
VERTEX
  8
0
 10
10.169674
 20
223.566035
 42
0.045786
  0
VERTEX
  8
0
 10
7.006863
 20
216.615689
 42
0.035043
  0
VERTEX
  8
0
 10
4.148242
 20
206.102376
 42
0.015821
  0
VERTEX
  8
0
 10
1.817533
 20
192.000000
 42
0.027431
  0
VERTEX
  8
0
 10
0.826052
 20
179.199426
 42
0.005613
  0
VERTEX
  8
0
 10
0.571213
 20
156.500000
 42
0.005613
  0
VERTEX
  8
0
 10
0.826052
 20
133.800574
 42
0.027431
  0
VERTEX
  8
0
 10
1.817533
 20
121.000000
 42
0.020972
  0
VERTEX
  8
0
 10
5.860802
 20
98.009685
 42
0.156951
  0
VERTEX
  8
0
 10
11.361464
 20
88.565091
 42
0.489836
  0
VERTEX
  8
0
 10
16.969647
 20
89.579358
 42
0.062660
  0
VERTEX
  8
0
 10
21.929277
 20
102.927430
 42
0.007400
  0
VERTEX
  8
0
 10
22.773418
 20
106.778288
 42
0.005583
  0
VERTEX
  8
0
 10
23.590790
 20
111.032278
 42
0.005646
  0
VERTEX
  8
0
 10
24.269234
 20
115.047920
 42
0.012984
  0
VERTEX
  8
0
 10
24.666832
 20
118.086525
 42
-0.016975
  0
VERTEX
  8
0
 10
25.151188
 20
121.571759
 42
-0.053976
  0
VERTEX
  8
0
 10
25.800018
 20
123.829123
 42
-0.065377
  0
VERTEX
  8
0
 10
26.841286
 20
125.654922
 42
-0.034145
  0
VERTEX
  8
0
 10
28.565207
 20
127.631874
 42
0.000000
  0
VERTEX
  8
0
 10
31.804464
 20
130.871131
 42
0.000000
  0
VERTEX
  8
0
 10
34.420463
 20
122.480711
 42
0.055547
  0
VERTEX
  8
0
 10
45.017558
 20
98.311602
 42
0.044380
  0
VERTEX
  8
0
 10
61.389969
 20
75.030123
 42
0.042192
  0
VERTEX
  8
0
 10
82.575548
 20
53.867123
 42
0.039309
  0
VERTEX
  8
0
 10
107.497386
 20
36.001579
 42
0.045126
  0
VERTEX
  8
0
 10
143.185379
 20
18.621905
 42
0.037249
  0
VERTEX
  8
0
 10
183.770394
 20
6.575799
 42
0.036615
  0
VERTEX
  8
0
 10
226.476927
 20
0.519761
 42
0.039573
  0
VERTEX
  8
0
 10
268.500000
 20
1.000339
 42
0.015625
  0
VERTEX
  8
0
 10
287.320170
 20
3.303805
 42
0.014697
  0
VERTEX
  8
0
 10
306.351222
 20
6.814617
 42
0.015131
  0
VERTEX
  8
0
 10
324.479144
 20
11.290761
 42
0.020354
  0
VERTEX
  8
0
 10
340.565162
 20
16.497526
 42
0.016917
  0
VERTEX
  8
0
 10
352.223434
 20
21.256697
 42
0.010414
  0
VERTEX
  8
0
 10
365.622028
 20
27.601090
 42
0.010446
  0
VERTEX
  8
0
 10
378.495446
 20
34.367937
 42
0.020158
  0
VERTEX
  8
0
 10
388.448477
 20
40.404052
 42
-0.002423
  0
VERTEX
  8
0
 10
392.302281
 20
42.932366
 42
-0.003811
  0
VERTEX
  8
0
 10
395.639043
 20
45.062440
 42
-0.001048
  0
VERTEX
  8
0
 10
398.558000
 20
46.886115
 42
-0.139988
  0
VERTEX
  8
0
 10
398.956797
 20
47.000000
 42
-0.320827
  0
VERTEX
  8
0
 10
399.233584
 20
46.802020
 42
-0.003673
  0
VERTEX
  8
0
 10
399.990914
 20
44.529193
 42
-0.009487
  0
VERTEX
  8
0
 10
400.817088
 20
41.813442
 42
-0.005843
  0
VERTEX
  8
0
 10
401.691034
 20
38.588741
 42
0.027907
  0
VERTEX
  8
0
 10
406.441681
 20
23.695170
 42
0.048278
  0
VERTEX
  8
0
 10
412.218792
 20
12.065535
 42
0.062948
  0
VERTEX
  8
0
 10
418.426914
 20
4.439500
 42
0.192788
  0
VERTEX
  8
0
 10
424.500000
 20
2.007476
 42
0.111723
  0
VERTEX
  8
0
 10
427.290681
 20
2.638927
 42
0.053529
  0
VERTEX
  8
0
 10
430.435705
 20
4.575837
 42
0.046975
  0
VERTEX
  8
0
 10
433.569196
 20
7.511650
 42
0.038409
  0
VERTEX
  8
0
 10
436.339706
 20
11.176598
 42
0.000000
  0
VERTEX
  8
0
 10
439.681006
 20
16.383562
 42
0.000000
  0
VERTEX
  8
0
 10
435.840503
 20
20.036945
 42
-0.024235
  0
VERTEX
  8
0
 10
434.177086
 20
21.780422
 42
-0.040302
  0
VERTEX
  8
0
 10
432.976684
 20
23.416874
 42
-0.049216
  0
VERTEX
  8
0
 10
432.241800
 20
24.922907
 42
-0.089139
  0
VERTEX
  8
0
 10
432.000000
 20
26.268439
 42
-0.125160
  0
VERTEX
  8
0
 10
432.740460
 20
29.180161
 42
-0.068430
  0
VERTEX
  8
0
 10
434.938380
 20
32.165120
 42
-0.059762
  0
VERTEX
  8
0
 10
438.242196
 20
34.837178
 42
-0.050955
  0
VERTEX
  8
0
 10
442.262109
 20
36.823169
 42
0.000000
  0
VERTEX
  8
0
 10
447.436514
 20
38.753394
 42
0.000000
  0
VERTEX
  8
0
 10
449.171823
 20
45.626697
 42
0.033876
  0
VERTEX
  8
0
 10
455.755056
 20
81.891384
 42
0.017714
  0
VERTEX
  8
0
 10
459.261102
 20
127.676352
 42
0.017147
  0
VERTEX
  8
0
 10
459.589629
 20
176.625482
 42
0.020070
  0
VERTEX
  8
0
 10
456.447140
 20
222.962216
 42
0.021243
  0
VERTEX
  8
0
 10
450.747420
 20
260.591238
 42
0.044329
  0
VERTEX
  8
0
 10
442.522362
 20
289.043969
 42
0.064783
  0
VERTEX
  8
0
 10
432.825172
 20
306.820256
 42
0.306031
  0
VERTEX
  8
0
 10
422.462804
 20
310.580020
 42
0.139632
  0
VERTEX
  8
0
 10
417.469012
 20
307.698340
 42
0.051999
  0
VERTEX
  8
0
 10
412.415461
 20
301.267569
 42
0.042024
  0
VERTEX
  8
0
 10
407.643312
 20
292.059424
 42
0.025456
  0
VERTEX
  8
0
 10
403.509279
 20
280.492127
 42
-0.000066
  0
VERTEX
  8
0
 10
402.425329
 20
276.892253
 42
-0.000079
  0
VERTEX
  8
0
 10
401.406571
 20
273.512436
 42
-0.000067
  0
VERTEX
  8
0
 10
400.547918
 20
270.666791
 42
-0.000540
  0
VERTEX
  8
0
 10
400.151482
 20
269.358720
 42
-0.240754
  0
VERTEX
  8
0
 10
399.336995
 20
268.515159
 42
-0.187075
  0
VERTEX
  8
0
 10
398.043557
 20
268.566225
 42
-0.041304
  0
VERTEX
  8
0
 10
395.532496
 20
269.911715
 42
-0.003044
  0
VERTEX
  8
0
 10
389.000000
 20
274.196688
 42
-0.007944
  0
VERTEX
  8
0
 10
384.988831
 20
276.955743
 42
-0.012447
  0
VERTEX
  8
0
 10
381.638915
 20
279.467129
 42
-0.006552
  0
VERTEX
  8
0
 10
378.942559
 20
281.653356
 42
-0.264639
  0
VERTEX
  8
0
 10
378.685667
 20
282.337968
 42
-0.034904
  0
VERTEX
  8
0
 10
378.842552
 20
283.013427
 42
-0.005303
  0
VERTEX
  8
0
 10
379.263424
 20
284.333653
 42
-0.005917
  0
VERTEX
  8
0
 10
379.796041
 20
285.883355
 42
-0.005092
  0
VERTEX
  8
0
 10
380.391774
 20
287.500000
 42
0.232218
  0
VERTEX
  8
0
 10
378.593613
 20
306.757622
 42
0.113567
  0
VERTEX
  8
0
 10
360.902506
 20
324.798240
 42
0.072190
  0
VERTEX
  8
0
 10
328.491934
 20
339.462177
 42
0.037466
  0
VERTEX
  8
0
 10
284.922388
 20
348.560117
 42
0.021332
  0
VERTEX
  8
0
 10
273.660087
 20
349.557181
 42
0.003903
  0
VERTEX
  8
0
 10
252.761083
 20
350.348320
 42
0.003235
  0
VERTEX
  8
0
 10
231.730944
 20
350.843932
 42
0.032800
  0
SEQEND
  0
POLYLINE
  8
0
 66
1
 70
1
  0
VERTEX
  8
0
 10
289.806951
 20
327.535278
 42
-0.025581
  0
VERTEX
  8
0
 10
312.782858
 20
323.015080
 42
-0.062616
  0
VERTEX
  8
0
 10
328.816451
 20
316.787483
 42
-0.123783
  0
VERTEX
  8
0
 10
336.600742
 20
309.653181
 42
-0.307595
  0
VERTEX
  8
0
 10
336.496347
 20
302.298247
 42
0.000000
  0
VERTEX
  8
0
 10
334.992694
 20
300.151481
 42
0.000000
  0
VERTEX
  8
0
 10
329.246347
 20
302.398784
 42
0.051871
  0
VERTEX
  8
0
 10
296.566584
 20
311.413175
 42
0.031399
  0
VERTEX
  8
0
 10
256.604170
 20
315.532626
 42
0.031013
  0
VERTEX
  8
0
 10
215.523963
 20
314.626133
 42
0.043300
  0
VERTEX
  8
0
 10
179.328614
 20
308.390080
 42
-0.001090
  0
VERTEX
  8
0
 10
169.012404
 20
305.701137
 42
-0.035700
  0
VERTEX
  8
0
 10
166.479092
 20
305.236412
 42
-0.244477
  0
VERTEX
  8
0
 10
165.440892
 20
305.638482
 42
-0.182424
  0
VERTEX
  8
0
 10
165.000000
 20
306.806698
 42
-0.257266
  0
VERTEX
  8
0
 10
168.834971
 20
313.766701
 42
-0.052730
  0
VERTEX
  8
0
 10
181.883166
 20
320.202371
 42
-0.041297
  0
VERTEX
  8
0
 10
201.088420
 20
325.523859
 42
-0.022922
  0
VERTEX
  8
0
 10
225.168576
 20
328.964464
 42
-0.022578
  0
VERTEX
  8
0
 10
238.111302
 20
329.624276
 42
-0.006973
  0
VERTEX
  8
0
 10
257.634798
 20
329.464956
 42
-0.006936
  0
VERTEX
  8
0
 10
277.111917
 20
328.763887
 42
-0.023318
  0
SEQEND
  0
ENDSEC
  0
EOF
