  0
SECTION
  2
HEADER
  9
$ACADVER
  1
AC1006
  9
$EXTMIN
 10
0.000000
 20
0.000000
 30
0.000000
  9
$EXTMAX
 10
264.000000
 20
430.000000
 30
0.000000
  0
ENDSEC
  0
SECTION
  2
ENTITIES
  0
POLYLINE
  8
0
 66
1
 70
1
  0
VERTEX
  8
0
 10
82.500000
 20
429.362279
 42
0.012428
  0
VERTEX
  8
0
 10
57.003025
 20
427.037730
 42
0.026129
  0
VERTEX
  8
0
 10
37.399984
 20
423.712676
 42
0.027659
  0
VERTEX
  8
0
 10
23.588731
 20
419.807347
 42
0.320306
  0
VERTEX
  8
0
 10
20.500000
 20
415.480491
 42
0.254794
  0
VERTEX
  8
0
 10
21.811962
 20
413.073076
 42
0.041357
  0
VERTEX
  8
0
 10
26.679567
 20
410.475584
 42
0.036229
  0
VERTEX
  8
0
 10
33.574195
 20
408.074705
 42
0.022507
  0
VERTEX
  8
0
 10
41.943138
 20
406.223808
 42
-0.001776
  0
VERTEX
  8
0
 10
49.025749
 20
404.962743
 42
-0.060736
  0
VERTEX
  8
0
 10
50.649344
 20
404.458587
 42
-0.589872
  0
VERTEX
  8
0
 10
50.695753
 20
403.897453
 42
-0.048723
  0
VERTEX
  8
0
 10
49.060282
 20
403.024969
 42
0.041607
  0
VERTEX
  8
0
 10
45.584462
 20
401.233646
 42
0.049023
  0
VERTEX
  8
0
 10
42.654195
 20
398.973509
 42
0.056035
  0
VERTEX
  8
0
 10
40.640936
 20
396.602003
 42
0.149071
  0
VERTEX
  8
0
 10
40.000000
 20
394.500000
 42
0.095293
  0
VERTEX
  8
0
 10
40.215823
 20
393.377862
 42
0.046800
  0
VERTEX
  8
0
 10
40.881715
 20
392.078421
 42
0.041627
  0
VERTEX
  8
0
 10
41.899172
 20
390.740832
 42
0.034462
  0
VERTEX
  8
0
 10
43.186578
 20
389.496458
 42
-0.017392
  0
VERTEX
  8
0
 10
44.842380
 20
388.001819
 42
-0.091625
  0
VERTEX
  8
0
 10
45.549711
 20
387.008911
 42
-0.166655
  0
VERTEX
  8
0
 10
45.642890
 20
386.132945
 42
-0.097261
  0
VERTEX
  8
0
 10
45.209400
 20
385.157565
 42
0.066386
  0
VERTEX
  8
0
 10
19.753462
 20
336.207488
 42
0.047677
  0
VERTEX
  8
0
 10
4.384763
 20
276.440754
 42
0.045162
  0
VERTEX
  8
0
 10
0.062053
 20
211.187140
 42
0.044458
  0
VERTEX
  8
0
 10
7.473231
 20
145.863938
 42
0.026188
  0
VERTEX
  8
0
 10
14.953671
 20
117.072307
 42
0.026672
  0
VERTEX
  8
0
 10
25.366032
 20
89.400162
 42
0.028374
  0
VERTEX
  8
0
 10
37.681259
 20
65.153149
 42
0.049212
  0
VERTEX
  8
0
 10
50.886984
 20
46.850816
 42
0.000000
  0
VERTEX
  8
0
 10
54.992490
 20
42.201632
 42
0.000000
  0
VERTEX
  8
0
 10
53.018207
 20
37.850816
 42
0.035496
  0
VERTEX
  8
0
 10
51.638721
 20
34.129853
 42
0.062464
  0
VERTEX
  8
0
 10
51.119212
 20
30.896226
 42
0.065225
  0
VERTEX
  8
0
 10
51.423096
 20
27.731692
 42
0.042470
  0
VERTEX
  8
0
 10
52.547728
 20
24.231529
 42
0.105285
  0
VERTEX
  8
0
 10
57.390941
 20
17.236234
 42
0.058462
  0
VERTEX
  8
0
 10
65.758584
 20
11.023916
 42
0.047720
  0
VERTEX
  8
0
 10
77.239093
 20
5.807642
 42
0.029675
  0
VERTEX
  8
0
 10
91.500000
 20
1.833596
 42
0.030144
  0
VERTEX
  8
0
 10
94.903901
 20
1.311589
 42
0.008286
  0
VERTEX
  8
0
 10
100.312397
 20
0.903399
 42
0.008014
  0
VERTEX
  8
0
 10
106.702414
 20
0.630188
 42
0.006676
  0
VERTEX
  8
0
 10
113.500000
 20
0.539428
 42
0.022631
  0
VERTEX
  8
0
 10
128.695375
 20
1.227541
 42
0.034227
  0
VERTEX
  8
0
 10
141.763868
 20
3.322228
 42
0.039000
  0
VERTEX
  8
0
 10
153.007243
 20
6.865856
 42
0.048910
  0
VERTEX
  8
0
 10
162.692284
 20
11.920566
 42
0.017210
  0
VERTEX
  8
0
 10
167.291760
 20
15.157038
 42
0.040194
  0
VERTEX
  8
0
 10
170.431644
 20
17.955345
 42
0.049393
  0
VERTEX
  8
0
 10
172.677954
 20
20.827044
 42
0.042356
  0
VERTEX
  8
0
 10
174.452272
 20
24.231529
 42
0.044181
  0
VERTEX
  8
0
 10
175.618238
 20
27.903341
 42
0.070174
  0
VERTEX
  8
0
 10
175.878240
 20
31.185515
 42
0.066468
  0
VERTEX
  8
0
 10
175.220585
 20
34.536260
 42
0.035540
  0
VERTEX
  8
0
 10
173.583929
 20
38.433394
 42
0.000000
  0
VERTEX
  8
0
 10
171.167858
 20
43.205744
 42
0.000000
  0
VERTEX
  8
0
 10
176.538811
 20
49.852872
 42
0.045642
  0
VERTEX
  8
0
 10
190.730284
 20
71.122389
 42
0.030035
  0
VERTEX
  8
0
 10
203.193946
 20
97.796326
 42
0.028097
  0
VERTEX
  8
0
 10
213.231226
 20
127.995467
 42
0.025982
  0
VERTEX
  8
0
 10
220.128841
 20
159.925822
 42
0.000000
  0
VERTEX
  8
0
 10
222.398966
 20
173.921692
 42
0.000000
  0
VERTEX
  8
0
 10
227.131427
 20
176.988222
 42
0.121619
  0
VERTEX
  8
0
 10
244.038436
 20
194.999102
 42
0.056632
  0
VERTEX
  8
0
 10
256.554738
 20
224.718658
 42
0.050666
  0
VERTEX
  8
0
 10
263.315466
 20
261.003095
 42
0.046341
  0
VERTEX
  8
0
 10
262.948588
 20
299.033832
 42
0.030775
  0
VERTEX
  8
0
 10
258.926056
 20
323.372729
 42
0.038665
  0
VERTEX
  8
0
 10
252.115967
 20
345.185886
 42
0.043366
  0
VERTEX
  8
0
 10
243.039121
 20
363.207164
 42
0.073830
  0
VERTEX
  8
0
 10
232.185614
 20
376.075844
 42
0.027968
  0
VERTEX
  8
0
 10
226.390997
 20
380.636839
 42
0.054694
  0
VERTEX
  8
0
 10
221.245380
 20
383.458817
 42
0.059224
  0
VERTEX
  8
0
 10
215.891654
 20
384.963838
 42
0.038890
  0
VERTEX
  8
0
 10
209.500000
 20
385.463358
 42
0.031269
  0
VERTEX
  8
0
 10
203.714903
 20
385.102682
 42
0.054031
  0
VERTEX
  8
0
 10
199.029115
 20
383.991978
 42
0.051604
  0
VERTEX
  8
0
 10
194.546830
 20
381.860870
 42
0.025947
  0
VERTEX
  8
0
 10
189.365683
 20
378.325262
 42
0.000000
  0
VERTEX
  8
0
 10
186.231367
 20
375.939094
 42
0.000000
  0
VERTEX
  8
0
 10
182.472119
 20
381.171693
 42
-0.013969
  0
VERTEX
  8
0
 10
180.974261
 20
383.384523
 42
-0.034348
  0
VERTEX
  8
0
 10
180.036269
 20
385.107862
 42
-0.050669
  0
VERTEX
  8
0
 10
179.624019
 20
386.317233
 42
-0.386806
  0
VERTEX
  8
0
 10
179.893383
 20
386.797794
 42
0.085619
  0
VERTEX
  8
0
 10
182.089729
 20
387.976567
 42
0.039180
  0
VERTEX
  8
0
 10
184.495853
 20
390.181149
 42
0.037796
  0
VERTEX
  8
0
 10
186.442966
 20
392.612723
 42
0.151046
  0
VERTEX
  8
0
 10
187.000000
 20
394.414580
 42
0.133902
  0
VERTEX
  8
0
 10
186.420496
 20
396.539692
 42
0.068830
  0
VERTEX
  8
0
 10
184.694349
 20
398.718989
 42
0.053886
  0
VERTEX
  8
0
 10
181.942942
 20
400.835917
 42
0.031854
  0
VERTEX
  8
0
 10
178.272204
 20
402.767737
 42
0.000000
  0
VERTEX
  8
0
 10
174.044408
 20
404.659609
 42
0.000000
  0
VERTEX
  8
0
 10
183.983169
 20
406.399135
 42
0.023619
  0
VERTEX
  8
0
 10
191.959779
 20
408.187034
 42
0.037262
  0
VERTEX
  8
0
 10
198.563912
 20
410.539650
 42
0.042782
  0
VERTEX
  8
0
 10
203.225415
 20
413.099687
 42
0.250837
  0
VERTEX
  8
0
 10
204.500000
 20
415.480491
 42
0.290215
  0
VERTEX
  8
0
 10
202.277959
 20
418.986318
 42
0.038956
  0
VERTEX
  8
0
 10
193.726223
 20
422.235511
 42
0.030712
  0
VERTEX
  8
0
 10
180.829665
 20
425.171224
 42
0.012821
  0
VERTEX
  8
0
 10
163.154012
 20
427.604016
 42
0.019064
  0
VERTEX
  8
0
 10
149.296923
 20
428.617552
 42
0.003273
  0
VERTEX
  8
0
 10
122.929728
 20
429.365072
 42
0.003297
  0
VERTEX
  8
0
 10
96.552311
 20
429.766087
 42
0.018670
  0
SEQEND
  0
POLYLINE
  8
0
 66
1
 70
1
  0
VERTEX
  8
0
 10
223.964208
 20
353.642384
 42
-0.061325
  0
VERTEX
  8
0
 10
228.299923
 20
349.937517
 42
-0.032260
  0
VERTEX
  8
0
 10
232.744759
 20
344.403755
 42
-0.030310
  0
VERTEX
  8
0
 10
236.819385
 20
337.781725
 42
-0.030460
  0
VERTEX
  8
0
 10
240.055999
 20
330.726327
 42
-0.064745
  0
VERTEX
  8
0
 10
246.917608
 20
302.673807
 42
-0.051496
  0
VERTEX
  8
0
 10
247.157149
 20
271.473323
 42
-0.053817
  0
VERTEX
  8
0
 10
241.261622
 20
242.795553
 42
-0.104191
  0
VERTEX
  8
0
 10
229.723439
 20
222.545964
 42
0.000000
  0
VERTEX
  8
0
 10
225.329537
 20
217.591928
 42
0.000000
  0
VERTEX
  8
0
 10
224.668681
 20
233.545964
 42
0.019888
  0
VERTEX
  8
0
 10
222.174569
 20
264.205410
 42
0.020692
  0
VERTEX
  8
0
 10
217.268715
 20
294.162776
 42
0.021814
  0
VERTEX
  8
0
 10
210.286782
 20
321.815069
 42
0.031372
  0
VERTEX
  8
0
 10
201.543460
 20
345.497646
 42
0.000000
  0
VERTEX
  8
0
 10
199.129505
 20
350.956027
 42
0.000000
  0
VERTEX
  8
0
 10
201.959912
 20
352.971455
 42
-0.028226
  0
VERTEX
  8
0
 10
205.188768
 20
355.006319
 42
-0.055957
  0
VERTEX
  8
0
 10
207.979718
 20
356.166962
 42
-0.056545
  0
VERTEX
  8
0
 10
210.939265
 20
356.672961
 42
-0.029415
  0
VERTEX
  8
0
 10
214.689809
 20
356.663776
 42
-0.028574
  0
VERTEX
  8
0
 10
217.261965
 20
356.357817
 42
-0.034867
  0
VERTEX
  8
0
 10
219.612697
 20
355.769506
 42
-0.035557
  0
VERTEX
  8
0
 10
221.820389
 20
354.872282
 42
-0.031886
  0
SEQEND
  0
ENDSEC
  0
EOF
