  0
SECTION
  2
HEADER
  9
$ACADVER
  1
AC1006
  9
$EXTMIN
 10
0.000000
 20
0.000000
 30
0.000000
  9
$EXTMAX
 10
336.000000
 20
160.000000
 30
0.000000
  0
ENDSEC
  0
SECTION
  2
ENTITIES
  0
POLYLINE
  8
0
 66
1
 70
1
  0
VERTEX
  8
0
 10
72.000000
 20
158.915229
 42
0.000733
  0
VERTEX
  8
0
 10
38.083834
 20
156.701480
 42
0.004676
  0
VERTEX
  8
0
 10
20.891361
 20
155.392376
 42
0.004861
  0
VERTEX
  8
0
 10
10.141550
 20
154.367282
 42
0.114163
  0
VERTEX
  8
0
 10
7.270810
 20
153.377129
 42
0.090259
  0
VERTEX
  8
0
 10
5.068803
 20
151.368487
 42
0.068709
  0
VERTEX
  8
0
 10
3.460223
 20
148.519901
 42
0.050178
  0
VERTEX
  8
0
 10
2.330169
 20
144.538800
 42
0.020920
  0
VERTEX
  8
0
 10
1.580821
 20
139.000000
 42
0.021414
  0
VERTEX
  8
0
 10
0.967492
 20
126.698991
 42
0.001537
  0
VERTEX
  8
0
 10
0.833537
 20
92.541352
 42
0.002358
  0
VERTEX
  8
0
 10
0.966705
 20
58.127772
 42
0.006589
  0
VERTEX
  8
0
 10
1.491921
 20
34.000000
 42
0.007496
  0
VERTEX
  8
0
 10
2.398520
 20
15.859580
 42
0.089195
  0
VERTEX
  8
0
 10
4.082830
 20
9.060778
 42
0.207372
  0
VERTEX
  8
0
 10
7.648011
 20
5.798366
 42
0.069371
  0
VERTEX
  8
0
 10
14.733652
 20
4.409075
 42
-0.002499
  0
VERTEX
  8
0
 10
18.204570
 20
4.200244
 42
-0.000812
  0
VERTEX
  8
0
 10
23.331135
 20
3.857708
 42
-0.000810
  0
VERTEX
  8
0
 10
29.026663
 20
3.458592
 42
-0.000912
  0
VERTEX
  8
0
 10
34.500000
 20
3.056106
 42
0.003436
  0
VERTEX
  8
0
 10
41.142363
 20
2.601364
 42
0.001143
  0
VERTEX
  8
0
 10
50.878125
 20
2.024384
 42
0.001138
  0
VERTEX
  8
0
 10
61.666725
 20
1.434396
 42
0.001296
  0
VERTEX
  8
0
 10
72.000000
 20
0.919751
 42
0.000000
  0
VERTEX
  8
0
 10
96.500000
 20
-0.236805
 42
0.000000
  0
VERTEX
  8
0
 10
102.056522
 20
2.241004
 42
0.022443
  0
VERTEX
  8
0
 10
105.346888
 20
3.889039
 42
0.074952
  0
VERTEX
  8
0
 10
107.251068
 20
5.363355
 42
0.065100
  0
VERTEX
  8
0
 10
108.774007
 20
7.441985
 42
0.014169
  0
VERTEX
  8
0
 10
110.806522
 20
11.404306
 42
0.003301
  0
VERTEX
  8
0
 10
112.030287
 20
14.010338
 42
0.004937
  0
VERTEX
  8
0
 10
113.061916
 20
16.304715
 42
0.002193
  0
VERTEX
  8
0
 10
113.912457
 20
18.270832
 42
0.101320
  0
VERTEX
  8
0
 10
114.000000
 20
18.698409
 42
-0.097427
  0
VERTEX
  8
0
 10
114.081837
 20
19.114416
 42
-0.003205
  0
VERTEX
  8
0
 10
114.736181
 20
20.684397
 42
-0.006011
  0
VERTEX
  8
0
 10
115.545908
 20
22.530617
 42
-0.004133
  0
VERTEX
  8
0
 10
116.506147
 20
24.604577
 42
0.001518
  0
VERTEX
  8
0
 10
117.537248
 20
26.801377
 42
0.001484
  0
VERTEX
  8
0
 10
118.562978
 20
29.021290
 42
0.001460
  0
VERTEX
  8
0
 10
119.452032
 20
30.975546
 42
0.005584
  0
VERTEX
  8
0
 10
119.988854
 20
32.201069
 42
-0.024507
  0
VERTEX
  8
0
 10
121.599775
 20
35.530008
 42
-0.018926
  0
VERTEX
  8
0
 10
123.664443
 20
38.993616
 42
-0.015786
  0
VERTEX
  8
0
 10
125.730380
 20
41.968696
 42
-0.115876
  0
VERTEX
  8
0
 10
127.044297
 20
43.078851
 42
-0.075486
  0
VERTEX
  8
0
 10
128.050627
 20
43.412482
 42
-0.005442
  0
VERTEX
  8
0
 10
130.956471
 20
43.877130
 42
-0.007533
  0
VERTEX
  8
0
 10
134.451460
 20
44.343334
 42
-0.005621
  0
VERTEX
  8
0
 10
138.318156
 20
44.755927
 42
0.000000
  0
VERTEX
  8
0
 10
148.136313
 20
45.692065
 42
0.000000
  0
VERTEX
  8
0
 10
152.409119
 20
50.346032
 42
0.000000
  0
VERTEX
  8
0
 10
156.681924
 20
55.000000
 42
0.000000
  0
VERTEX
  8
0
 10
164.590962
 20
55.091029
 42
0.000673
  0
VERTEX
  8
0
 10
168.970603
 20
55.147328
 42
0.000148
  0
VERTEX
  8
0
 10
176.492345
 20
55.256365
 42
0.000154
  0
VERTEX
  8
0
 10
185.188704
 20
55.387679
 42
0.000148
  0
VERTEX
  8
0
 10
194.000000
 20
55.526049
 42
-0.002010
  0
VERTEX
  8
0
 10
205.286903
 20
55.661263
 42
-0.000583
  0
VERTEX
  8
0
 10
222.696875
 20
55.779555
 42
-0.000586
  0
VERTEX
  8
0
 10
242.311796
 20
55.866978
 42
-0.000626
  0
VERTEX
  8
0
 10
261.500000
 20
55.905995
 42
0.001831
  0
VERTEX
  8
0
 10
279.518958
 20
55.986051
 42
0.002577
  0
VERTEX
  8
0
 10
295.588559
 20
56.199100
 42
0.001506
  0
VERTEX
  8
0
 10
309.132417
 20
56.489290
 42
0.035325
  0
VERTEX
  8
0
 10
312.950415
 20
56.853311
 42
0.055616
  0
VERTEX
  8
0
 10
317.172621
 20
58.052783
 42
0.099645
  0
VERTEX
  8
0
 10
320.163834
 20
60.040634
 42
0.058179
  0
VERTEX
  8
0
 10
323.099808
 20
63.751120
 42
0.009365
  0
VERTEX
  8
0
 10
327.806183
 20
71.702555
 42
-0.051366
  0
VERTEX
  8
0
 10
328.509271
 20
72.690849
 42
-0.027662
  0
VERTEX
  8
0
 10
329.557823
 20
73.758660
 42
-0.027247
  0
VERTEX
  8
0
 10
330.758602
 20
74.739067
 42
-0.038263
  0
VERTEX
  8
0
 10
331.935001
 20
75.466388
 42
0.060241
  0
VERTEX
  8
0
 10
334.213883
 20
77.017395
 42
0.154120
  0
VERTEX
  8
0
 10
335.240639
 20
78.703265
 42
0.113056
  0
VERTEX
  8
0
 10
335.277890
 20
81.024504
 42
0.025105
  0
VERTEX
  8
0
 10
334.252802
 20
84.888633
 42
0.047400
  0
VERTEX
  8
0
 10
332.278177
 20
89.504400
 42
0.031778
  0
VERTEX
  8
0
 10
329.214538
 20
94.363895
 42
0.032074
  0
VERTEX
  8
0
 10
325.629792
 20
98.705821
 42
0.055937
  0
VERTEX
  8
0
 10
322.077962
 20
101.726445
 42
0.121114
  0
VERTEX
  8
0
 10
317.638230
 20
103.356840
 42
0.021854
  0
VERTEX
  8
0
 10
308.794753
 20
103.951880
 42
0.005992
  0
VERTEX
  8
0
 10
291.003128
 20
104.156488
 42
0.000205
  0
VERTEX
  8
0
 10
221.267551
 20
104.094200
 42
-0.001067
  0
VERTEX
  8
0
 10
175.755810
 20
104.132066
 42
-0.017128
  0
VERTEX
  8
0
 10
160.383126
 20
104.704499
 42
-0.054484
  0
VERTEX
  8
0
 10
151.912765
 20
106.248762
 42
-0.089250
  0
VERTEX
  8
0
 10
145.419346
 20
109.524532
 42
0.051287
  0
VERTEX
  8
0
 10
143.455888
 20
110.708879
 42
0.049867
  0
VERTEX
  8
0
 10
141.274127
 20
111.482194
 42
0.034553
  0
VERTEX
  8
0
 10
138.361422
 20
111.987879
 42
0.010662
  0
VERTEX
  8
0
 10
133.919346
 20
112.350706
 42
-0.007194
  0
VERTEX
  8
0
 10
126.500537
 20
112.904916
 42
-0.019612
  0
VERTEX
  8
0
 10
121.279869
 20
113.577745
 42
-0.023573
  0
VERTEX
  8
0
 10
117.667778
 20
114.364748
 42
-0.160362
  0
VERTEX
  8
0
 10
116.160803
 20
115.351383
 42
-0.092584
  0
VERTEX
  8
0
 10
114.660219
 20
118.175166
 42
-0.003198
  0
VERTEX
  8
0
 10
110.989034
 20
130.152477
 42
-0.003944
  0
VERTEX
  8
0
 10
107.547878
 20
141.979629
 42
-0.068921
  0
VERTEX
  8
0
 10
107.000000
 20
145.935417
 42
0.058607
  0
VERTEX
  8
0
 10
106.609310
 20
149.257110
 42
0.050000
  0
VERTEX
  8
0
 10
105.452342
 20
152.590485
 42
0.050859
  0
VERTEX
  8
0
 10
103.685328
 20
155.567782
 42
0.066856
  0
VERTEX
  8
0
 10
101.486321
 20
157.832100
 42
0.109555
  0
VERTEX
  8
0
 10
98.530457
 20
159.253671
 42
0.048368
  0
VERTEX
  8
0
 10
94.210676
 20
159.833275
 42
0.022063
  0
VERTEX
  8
0
 10
86.989408
 20
159.779824
 42
0.003048
  0
SEQEND
  0
ENDSEC
  0
EOF
