  0
SECTION
  2
HEADER
  9
$ACADVER
  1
AC1006
  9
$EXTMIN
 10
0.000000
 20
0.000000
 30
0.000000
  9
$EXTMAX
 10
394.000000
 20
216.000000
 30
0.000000
  0
ENDSEC
  0
SECTION
  2
ENTITIES
  0
POLYLINE
  8
0
 66
1
 70
1
  0
VERTEX
  8
0
 10
118.500000
 20
214.908755
 42
0.009574
  0
VERTEX
  8
0
 10
97.905664
 20
213.343474
 42
0.023826
  0
VERTEX
  8
0
 10
82.954520
 20
211.196100
 42
0.030750
  0
VERTEX
  8
0
 10
70.780171
 20
208.064462
 42
0.031641
  0
VERTEX
  8
0
 10
59.201213
 20
203.486388
 42
0.023249
  0
VERTEX
  8
0
 10
52.853326
 20
200.130876
 42
0.011997
  0
VERTEX
  8
0
 10
45.225400
 20
195.383025
 42
0.004727
  0
VERTEX
  8
0
 10
37.780353
 20
190.396054
 42
0.247673
  0
VERTEX
  8
0
 10
37.000000
 20
188.917319
 42
-0.173331
  0
VERTEX
  8
0
 10
36.806032
 20
188.374599
 42
-0.003315
  0
VERTEX
  8
0
 10
34.866980
 20
186.040130
 42
-0.007618
  0
VERTEX
  8
0
 10
32.521574
 20
183.338853
 42
-0.004978
  0
VERTEX
  8
0
 10
29.738656
 20
180.292217
 42
0.020583
  0
VERTEX
  8
0
 10
23.623451
 20
173.163021
 42
0.016176
  0
VERTEX
  8
0
 10
17.580541
 20
164.969684
 42
0.016393
  0
VERTEX
  8
0
 10
12.197486
 20
156.577781
 42
0.024247
  0
VERTEX
  8
0
 10
8.090140
 20
148.860212
 42
0.061796
  0
VERTEX
  8
0
 10
3.012458
 20
133.390862
 42
0.034428
  0
VERTEX
  8
0
 10
0.538061
 20
113.682294
 42
0.033968
  0
VERTEX
  8
0
 10
0.779988
 20
93.255901
 42
0.049121
  0
VERTEX
  8
0
 10
3.972794
 20
75.500000
 42
0.052519
  0
VERTEX
  8
0
 10
10.462871
 20
59.298930
 42
0.039735
  0
VERTEX
  8
0
 10
20.733667
 20
43.111256
 42
0.038938
  0
VERTEX
  8
0
 10
33.716304
 20
28.387952
 42
0.044349
  0
VERTEX
  8
0
 10
48.308252
 20
16.547769
 42
0.033602
  0
VERTEX
  8
0
 10
56.543453
 20
11.768465
 42
0.021245
  0
VERTEX
  8
0
 10
66.705964
 20
7.276607
 42
0.021200
  0
VERTEX
  8
0
 10
77.260823
 20
3.645893
 42
0.032352
  0
VERTEX
  8
0
 10
86.701308
 20
1.492844
 42
0.037952
  0
VERTEX
  8
0
 10
104.688769
 20
-0.015868
 42
0.023160
  0
VERTEX
  8
0
 10
125.995758
 20
0.804856
 42
0.023146
  0
VERTEX
  8
0
 10
147.167046
 20
3.596340
 42
0.037476
  0
VERTEX
  8
0
 10
164.744835
 20
8.127739
 42
-0.000947
  0
VERTEX
  8
0
 10
168.332062
 20
9.337727
 42
-0.000991
  0
VERTEX
  8
0
 10
171.870717
 20
10.516072
 42
-0.000950
  0
VERTEX
  8
0
 10
174.931558
 20
11.522128
 42
-0.004389
  0
VERTEX
  8
0
 10
176.708669
 20
12.085285
 42
0.075090
  0
VERTEX
  8
0
 10
179.598901
 20
13.474318
 42
0.037724
  0
VERTEX
  8
0
 10
182.772008
 20
16.005388
 42
0.037737
  0
VERTEX
  8
0
 10
185.520772
 20
18.975978
 42
0.077121
  0
VERTEX
  8
0
 10
187.087120
 20
21.729143
 42
0.070928
  0
VERTEX
  8
0
 10
187.446480
 20
23.323411
 42
0.006056
  0
VERTEX
  8
0
 10
187.731841
 20
27.515174
 42
0.007915
  0
VERTEX
  8
0
 10
187.933349
 20
32.546448
 42
0.006050
  0
VERTEX
  8
0
 10
188.000000
 20
38.054575
 42
-0.006656
  0
VERTEX
  8
0
 10
188.108661
 20
46.216628
 42
-0.023614
  0
VERTEX
  8
0
 10
188.494784
 20
51.436073
 42
-0.027143
  0
VERTEX
  8
0
 10
189.341980
 20
56.218314
 42
-0.011035
  0
VERTEX
  8
0
 10
190.989012
 20
62.623773
 42
-0.006045
  0
VERTEX
  8
0
 10
192.216520
 20
66.800627
 42
-0.008178
  0
VERTEX
  8
0
 10
193.432948
 20
70.542853
 42
-0.005822
  0
VERTEX
  8
0
 10
194.534385
 20
73.634143
 42
-0.084904
  0
VERTEX
  8
0
 10
195.111457
 20
74.634297
 42
-0.172551
  0
VERTEX
  8
0
 10
196.255834
 20
75.314584
 42
-0.025619
  0
VERTEX
  8
0
 10
198.954765
 20
75.704213
 42
-0.018326
  0
VERTEX
  8
0
 10
203.132104
 20
75.936294
 42
-0.004713
  0
VERTEX
  8
0
 10
209.890310
 20
76.000000
 42
0.003752
  0
VERTEX
  8
0
 10
218.434376
 20
76.064110
 42
0.033459
  0
VERTEX
  8
0
 10
222.177624
 20
76.371369
 42
0.067641
  0
VERTEX
  8
0
 10
224.750706
 20
77.122059
 42
0.041751
  0
VERTEX
  8
0
 10
227.517865
 20
78.642386
 42
0.007083
  0
VERTEX
  8
0
 10
229.189098
 20
79.785772
 42
0.006056
  0
VERTEX
  8
0
 10
230.917748
 20
81.036359
 42
0.006110
  0
VERTEX
  8
0
 10
232.461575
 20
82.211494
 42
0.017269
  0
VERTEX
  8
0
 10
233.500000
 20
83.081496
 42
-0.093744
  0
VERTEX
  8
0
 10
236.761485
 20
85.058614
 42
-0.003125
  0
VERTEX
  8
0
 10
251.027984
 20
90.294995
 42
-0.003415
  0
VERTEX
  8
0
 10
265.260802
 20
95.308757
 42
-0.083157
  0
VERTEX
  8
0
 10
269.388326
 20
96.000000
 42
-0.074360
  0
VERTEX
  8
0
 10
270.450094
 20
95.841217
 42
-0.024978
  0
VERTEX
  8
0
 10
271.927808
 20
95.307100
 42
-0.024217
  0
VERTEX
  8
0
 10
273.527038
 20
94.544014
 42
-0.025447
  0
VERTEX
  8
0
 10
275.017865
 20
93.641191
 42
0.025528
  0
VERTEX
  8
0
 10
278.763201
 20
91.373896
 42
0.093485
  0
VERTEX
  8
0
 10
281.395998
 20
90.539579
 42
0.113302
  0
VERTEX
  8
0
 10
283.871067
 20
90.800889
 42
0.046848
  0
VERTEX
  8
0
 10
286.957971
 20
92.195952
 42
0.000000
  0
VERTEX
  8
0
 10
291.000000
 20
94.500000
 42
0.000000
  0
VERTEX
  8
0
 10
294.948118
 20
92.250000
 42
0.036176
  0
VERTEX
  8
0
 10
297.272320
 20
91.139679
 42
0.044224
  0
VERTEX
  8
0
 10
299.583091
 20
90.462790
 42
0.035456
  0
VERTEX
  8
0
 10
302.355794
 20
90.112460
 42
0.014034
  0
VERTEX
  8
0
 10
306.198118
 20
90.009706
 42
0.011937
  0
VERTEX
  8
0
 10
310.632629
 20
90.121489
 42
0.060516
  0
VERTEX
  8
0
 10
313.065422
 20
90.538995
 42
0.073165
  0
VERTEX
  8
0
 10
315.110727
 20
91.494189
 42
0.022167
  0
VERTEX
  8
0
 10
317.890731
 20
93.509706
 42
-0.006561
  0
VERTEX
  8
0
 10
319.617343
 20
94.845637
 42
-0.009671
  0
VERTEX
  8
0
 10
321.170657
 20
95.968820
 42
-0.005448
  0
VERTEX
  8
0
 10
322.497738
 20
96.868600
 42
-0.155719
  0
VERTEX
  8
0
 10
322.890731
 20
96.979893
 42
-0.024591
  0
VERTEX
  8
0
 10
323.328176
 20
96.943870
 42
-0.000685
  0
VERTEX
  8
0
 10
325.209756
 20
96.692698
 42
-0.001404
  0
VERTEX
  8
0
 10
327.421886
 20
96.387990
 42
-0.000963
  0
VERTEX
  8
0
 10
329.929716
 20
96.030443
 42
0.017721
  0
VERTEX
  8
0
 10
333.857086
 20
95.604204
 42
0.053965
  0
VERTEX
  8
0
 10
336.535278
 20
95.698398
 42
0.046411
  0
VERTEX
  8
0
 10
339.341541
 20
96.372475
 42
0.010624
  0
VERTEX
  8
0
 10
343.929716
 20
98.045947
 42
-0.014024
  0
VERTEX
  8
0
 10
349.816397
 20
100.147786
 42
-0.063986
  0
VERTEX
  8
0
 10
353.380366
 20
100.822482
 42
-0.089568
  0
VERTEX
  8
0
 10
356.392900
 20
100.461184
 42
-0.043458
  0
VERTEX
  8
0
 10
360.000000
 20
99.000000
 42
0.019255
  0
VERTEX
  8
0
 10
361.655067
 20
98.234452
 42
0.018510
  0
VERTEX
  8
0
 10
363.385804
 20
97.587500
 42
0.018804
  0
VERTEX
  8
0
 10
364.951955
 20
97.131886
 42
0.061451
  0
VERTEX
  8
0
 10
366.021004
 20
97.000000
 42
0.179974
  0
VERTEX
  8
0
 10
368.832458
 20
98.045851
 42
0.003341
  0
VERTEX
  8
0
 10
380.907515
 20
108.614107
 42
0.002995
  0
VERTEX
  8
0
 10
392.935065
 20
119.412978
 42
0.211361
  0
VERTEX
  8
0
 10
394.000000
 20
121.819663
 42
0.223427
  0
VERTEX
  8
0
 10
392.581299
 20
124.836043
 42
0.005229
  0
VERTEX
  8
0
 10
380.086006
 20
134.962677
 42
0.006350
  0
VERTEX
  8
0
 10
367.545673
 20
144.653444
 42
0.162717
  0
VERTEX
  8
0
 10
363.517512
 20
146.000000
 42
0.083828
  0
VERTEX
  8
0
 10
362.878110
 20
145.892042
 42
0.011193
  0
VERTEX
  8
0
 10
361.592084
 20
145.412500
 42
0.012689
  0
VERTEX
  8
0
 10
360.082220
 20
144.765797
 42
0.010357
  0
VERTEX
  8
0
 10
358.500000
 20
144.000000
 42
-0.046567
  0
VERTEX
  8
0
 10
354.761257
 20
142.513575
 42
-0.093532
  0
VERTEX
  8
0
 10
351.612295
 20
142.201366
 42
-0.068095
  0
VERTEX
  8
0
 10
347.947923
 20
143.034953
 42
-0.016020
  0
VERTEX
  8
0
 10
342.125861
 20
145.439675
 42
0.014352
  0
VERTEX
  8
0
 10
337.771212
 20
147.255319
 42
0.034470
  0
VERTEX
  8
0
 10
334.430808
 20
148.279162
 42
0.035315
  0
VERTEX
  8
0
 10
331.030005
 20
148.820649
 42
0.015755
  0
VERTEX
  8
0
 10
326.500000
 20
149.073634
 42
0.016561
  0
VERTEX
  8
0
 10
316.797400
 20
148.987868
 42
0.022770
  0
VERTEX
  8
0
 10
308.109378
 20
148.225792
 42
0.025141
  0
VERTEX
  8
0
 10
301.024780
 20
146.912481
 42
0.080562
  0
VERTEX
  8
0
 10
296.605058
 20
145.073256
 42
-0.033222
  0
VERTEX
  8
0
 10
294.335783
 20
143.866635
 42
-0.050145
  0
VERTEX
  8
0
 10
292.213928
 20
143.158583
 42
-0.042409
  0
VERTEX
  8
0
 10
289.746094
 20
142.818099
 42
-0.016876
  0
VERTEX
  8
0
 10
286.326269
 20
142.754530
 42
0.017714
  0
VERTEX
  8
0
 10
282.932681
 20
142.685762
 42
0.039871
  0
VERTEX
  8
0
 10
280.384124
 20
142.338601
 42
0.045468
  0
VERTEX
  8
0
 10
278.135979
 20
141.628467
 42
0.030656
  0
VERTEX
  8
0
 10
275.721211
 20
140.437714
 42
-0.061034
  0
VERTEX
  8
0
 10
271.313709
 20
138.587240
 42
-0.088136
  0
VERTEX
  8
0
 10
267.117696
 20
138.167242
 42
-0.068574
  0
VERTEX
  8
0
 10
262.296582
 20
139.209908
 42
-0.024192
  0
VERTEX
  8
0
 10
255.764697
 20
141.958464
 42
0.010363
  0
VERTEX
  8
0
 10
252.333205
 20
143.515426
 42
0.010520
  0
VERTEX
  8
0
 10
248.857141
 20
144.920710
 42
0.010353
  0
VERTEX
  8
0
 10
245.785818
 20
146.015592
 42
0.041869
  0
VERTEX
  8
0
 10
243.855357
 20
146.484012
 42
-0.049986
  0
VERTEX
  8
0
 10
242.183496
 20
146.918477
 42
-0.024222
  0
VERTEX
  8
0
 10
240.148816
 20
147.784897
 42
-0.023744
  0
VERTEX
  8
0
 10
238.098352
 20
148.901037
 42
-0.031446
  0
VERTEX
  8
0
 10
236.355357
 20
150.116225
 42
0.000000
  0
VERTEX
  8
0
 10
232.500000
 20
153.181355
 42
0.000000
  0
VERTEX
  8
0
 10
218.500000
 20
152.483505
 42
-0.011413
  0
VERTEX
  8
0
 10
208.397363
 20
152.210867
 42
-0.038871
  0
VERTEX
  8
0
 10
201.837125
 20
152.694230
 42
-0.060731
  0
VERTEX
  8
0
 10
197.200628
 20
153.990230
 42
-0.084594
  0
VERTEX
  8
0
 10
193.563182
 20
156.284250
 42
-0.061439
  0
VERTEX
  8
0
 10
192.250981
 20
157.790608
 42
-0.007823
  0
VERTEX
  8
0
 10
189.896405
 20
161.398193
 42
-0.009068
  0
VERTEX
  8
0
 10
187.234936
 20
165.793510
 42
-0.007433
  0
VERTEX
  8
0
 10
184.547236
 20
170.581938
 42
0.000000
  0
VERTEX
  8
0
 10
178.000000
 20
182.663875
 42
0.000000
  0
VERTEX
  8
0
 10
177.996262
 20
191.581938
 42
0.022618
  0
VERTEX
  8
0
 10
177.713429
 20
197.773776
 42
0.061018
  0
VERTEX
  8
0
 10
176.785312
 20
202.070056
 42
0.067972
  0
VERTEX
  8
0
 10
174.916728
 20
205.745173
 42
0.033582
  0
VERTEX
  8
0
 10
171.645005
 20
209.847318
 42
0.063568
  0
VERTEX
  8
0
 10
167.828335
 20
213.084546
 42
0.083885
  0
VERTEX
  8
0
 10
163.650237
 20
214.895982
 42
0.051809
  0
VERTEX
  8
0
 10
157.700333
 20
215.723487
 42
0.011173
  0
VERTEX
  8
0
 10
147.289838
 20
215.851783
 42
0.003526
  0
VERTEX
  8
0
 10
140.611720
 20
215.737750
 42
0.002154
  0
VERTEX
  8
0
 10
132.732015
 20
215.513629
 42
0.002159
  0
VERTEX
  8
0
 10
124.927450
 20
215.224245
 42
0.003833
  0
SEQEND
  0
ENDSEC
  0
EOF
