  0
SECTION
  2
HEADER
  9
$ACADVER
  1
AC1006
  9
$EXTMIN
 10
0.000000
 20
0.000000
 30
0.000000
  9
$EXTMAX
 10
439.000000
 20
735.000000
 30
0.000000
  0
ENDSEC
  0
SECTION
  2
ENTITIES
  0
POLYLINE
  8
0
 66
1
 70
1
  0
VERTEX
  8
0
 10
336.900334
 20
733.009041
 42
0.052279
  0
VERTEX
  8
0
 10
333.993944
 20
731.060184
 42
0.023568
  0
VERTEX
  8
0
 10
330.606733
 20
727.953227
 42
0.018014
  0
VERTEX
  8
0
 10
327.628630
 20
724.726662
 42
0.179221
  0
VERTEX
  8
0
 10
327.000000
 20
723.029204
 42
-0.132213
  0
VERTEX
  8
0
 10
326.837727
 20
722.426249
 42
-0.003708
  0
VERTEX
  8
0
 10
325.457812
 20
720.088387
 42
-0.007340
  0
VERTEX
  8
0
 10
323.761742
 20
717.354727
 42
-0.004949
  0
VERTEX
  8
0
 10
321.750000
 20
714.283433
 42
0.007631
  0
VERTEX
  8
0
 10
319.593492
 20
710.952291
 42
0.006817
  0
VERTEX
  8
0
 10
317.455248
 20
707.430311
 42
0.006854
  0
VERTEX
  8
0
 10
315.620655
 20
704.213394
 42
0.021048
  0
VERTEX
  8
0
 10
314.501910
 20
701.969433
 42
-0.012484
  0
VERTEX
  8
0
 10
313.615064
 20
700.111611
 42
-0.011104
  0
VERTEX
  8
0
 10
312.602803
 20
698.225396
 42
-0.011218
  0
VERTEX
  8
0
 10
311.616472
 20
696.569406
 42
-0.033382
  0
VERTEX
  8
0
 10
310.842696
 20
695.500000
 42
-0.001513
  0
VERTEX
  8
0
 10
309.915316
 20
694.390280
 42
-0.000325
  0
VERTEX
  8
0
 10
308.300117
 20
692.471875
 42
-0.000339
  0
VERTEX
  8
0
 10
306.426345
 20
690.252347
 42
-0.000323
  0
VERTEX
  8
0
 10
304.519748
 20
688.000000
 42
0.044003
  0
VERTEX
  8
0
 10
299.584973
 20
681.016319
 42
0.035995
  0
VERTEX
  8
0
 10
295.562909
 20
672.800303
 42
0.036971
  0
VERTEX
  8
0
 10
292.882959
 20
664.416075
 42
0.058936
  0
VERTEX
  8
0
 10
292.000000
 20
656.951210
 42
-0.022263
  0
VERTEX
  8
0
 10
291.932540
 20
655.436876
 42
-0.035703
  0
VERTEX
  8
0
 10
291.726045
 20
654.160668
 42
-0.040391
  0
VERTEX
  8
0
 10
291.429047
 20
653.241504
 42
-0.303191
  0
VERTEX
  8
0
 10
291.067388
 20
653.000000
 42
0.184026
  0
VERTEX
  8
0
 10
290.660272
 20
652.844908
 42
0.053676
  0
VERTEX
  8
0
 10
290.202468
 20
652.339062
 42
0.046090
  0
VERTEX
  8
0
 10
289.769937
 20
651.611268
 42
0.035417
  0
VERTEX
  8
0
 10
289.432606
 20
650.750000
 42
-0.024341
  0
VERTEX
  8
0
 10
289.102580
 20
649.849164
 42
-0.025813
  0
VERTEX
  8
0
 10
288.692150
 20
649.002665
 42
-0.026572
  0
VERTEX
  8
0
 10
288.265152
 20
648.315814
 42
-0.097067
  0
VERTEX
  8
0
 10
287.897928
 20
647.961199
 42
0.241572
  0
VERTEX
  8
0
 10
287.023161
 20
646.441604
 42
0.012004
  0
VERTEX
  8
0
 10
286.879041
 20
640.502392
 42
0.015438
  0
VERTEX
  8
0
 10
287.119472
 20
632.652686
 42
0.007198
  0
VERTEX
  8
0
 10
287.891444
 20
622.500000
 42
-0.013043
  0
VERTEX
  8
0
 10
288.643883
 20
610.796106
 42
-0.025258
  0
VERTEX
  8
0
 10
288.527747
 20
601.422264
 42
-0.025257
  0
VERTEX
  8
0
 10
287.740302
 20
594.507872
 42
-0.282031
  0
VERTEX
  8
0
 10
286.002183
 20
592.500693
 42
0.066869
  0
VERTEX
  8
0
 10
285.078396
 20
592.064809
 42
0.015293
  0
VERTEX
  8
0
 10
283.654483
 20
591.080185
 42
0.015551
  0
VERTEX
  8
0
 10
282.070416
 20
589.833749
 42
0.014591
  0
VERTEX
  8
0
 10
280.531933
 20
588.465346
 42
-0.009532
  0
VERTEX
  8
0
 10
279.069430
 20
587.137785
 42
-0.013515
  0
VERTEX
  8
0
 10
277.715303
 20
586.017945
 42
-0.009549
  0
VERTEX
  8
0
 10
276.557150
 20
585.146883
 42
-0.157728
  0
VERTEX
  8
0
 10
276.103112
 20
585.000000
 42
0.199751
  0
VERTEX
  8
0
 10
274.830857
 20
584.470608
 42
0.027418
  0
VERTEX
  8
0
 10
272.880214
 20
582.279256
 42
0.030965
  0
VERTEX
  8
0
 10
270.963997
 20
579.541169
 42
0.038251
  0
VERTEX
  8
0
 10
269.547728
 20
576.768471
 42
0.065773
  0
VERTEX
  8
0
 10
268.117356
 20
571.485702
 42
0.071672
  0
VERTEX
  8
0
 10
268.170707
 20
566.169917
 42
0.076287
  0
VERTEX
  8
0
 10
269.684325
 20
561.369032
 42
0.091679
  0
VERTEX
  8
0
 10
272.509558
 20
557.578722
 42
-0.082768
  0
VERTEX
  8
0
 10
274.018128
 20
555.627825
 42
-0.175978
  0
VERTEX
  8
0
 10
274.289454
 20
553.765566
 42
-0.077191
  0
VERTEX
  8
0
 10
273.316858
 20
551.164198
 42
-0.007997
  0
VERTEX
  8
0
 10
270.014389
 20
545.500000
 42
0.008289
  0
VERTEX
  8
0
 10
268.592265
 20
543.057576
 42
0.003598
  0
VERTEX
  8
0
 10
266.778883
 20
539.765625
 42
0.003559
  0
VERTEX
  8
0
 10
264.900627
 20
536.237329
 42
0.004725
  0
VERTEX
  8
0
 10
263.245503
 20
533.000000
 42
-0.005807
  0
VERTEX
  8
0
 10
261.755874
 20
530.101865
 42
-0.008652
  0
VERTEX
  8
0
 10
260.379929
 20
527.605208
 42
-0.004494
  0
VERTEX
  8
0
 10
259.168341
 20
525.537313
 42
-0.154613
  0
VERTEX
  8
0
 10
258.750000
 20
525.166667
 42
0.086150
  0
VERTEX
  8
0
 10
258.463202
 20
524.974598
 42
0.062721
  0
VERTEX
  8
0
 10
258.220312
 20
524.676406
 42
0.061866
  0
VERTEX
  8
0
 10
258.055919
 20
524.322349
 42
0.077937
  0
VERTEX
  8
0
 10
258.000000
 20
523.965778
 42
-0.100986
  0
VERTEX
  8
0
 10
257.875811
 20
523.357170
 42
-0.002245
  0
VERTEX
  8
0
 10
256.684231
 20
520.593457
 42
-0.004994
  0
VERTEX
  8
0
 10
255.237241
 20
517.366657
 42
-0.003345
  0
VERTEX
  8
0
 10
253.520787
 20
513.703805
 42
0.004662
  0
VERTEX
  8
0
 10
248.860655
 20
503.690646
 42
0.009870
  0
VERTEX
  8
0
 10
245.476418
 20
495.829542
 42
0.010871
  0
VERTEX
  8
0
 10
243.181797
 20
489.825393
 42
0.062085
  0
VERTEX
  8
0
 10
242.440645
 20
486.500000
 42
-0.000159
  0
VERTEX
  8
0
 10
242.325228
 20
485.296398
 42
-0.000190
  0
VERTEX
  8
0
 10
242.215545
 20
484.160938
 42
-0.000164
  0
VERTEX
  8
0
 10
242.122352
 20
483.203266
 42
-0.001232
  0
VERTEX
  8
0
 10
242.076966
 20
482.750000
 42
-0.179289
  0
VERTEX
  8
0
 10
241.935909
 20
482.463187
 42
-0.078908
  0
VERTEX
  8
0
 10
241.581984
 20
482.220312
 42
-0.063437
  0
VERTEX
  8
0
 10
241.079653
 20
482.055387
 42
-0.047668
  0
VERTEX
  8
0
 10
240.500000
 20
482.000000
 42
0.138781
  0
VERTEX
  8
0
 10
239.886066
 20
481.826248
 42
0.116447
  0
VERTEX
  8
0
 10
239.405172
 20
481.347222
 42
0.088859
  0
VERTEX
  8
0
 10
239.100568
 20
480.580682
 42
0.050290
  0
VERTEX
  8
0
 10
239.000000
 20
479.583333
 42
-0.033444
  0
VERTEX
  8
0
 10
238.936413
 20
478.633760
 42
-0.042797
  0
VERTEX
  8
0
 10
238.745848
 20
477.778646
 42
-0.048681
  0
VERTEX
  8
0
 10
238.468016
 20
477.125335
 42
-0.177755
  0
VERTEX
  8
0
 10
238.134803
 20
476.833333
 42
0.206483
  0
VERTEX
  8
0
 10
237.009356
 20
475.731085
 42
0.003318
  0
VERTEX
  8
0
 10
233.621746
 20
467.296982
 42
0.005918
  0
VERTEX
  8
0
 10
230.529998
 20
459.168480
 42
0.088133
  0
VERTEX
  8
0
 10
230.000000
 20
456.185033
 42
-0.044157
  0
VERTEX
  8
0
 10
229.925978
 20
455.348500
 42
-0.045032
  0
VERTEX
  8
0
 10
229.706250
 20
454.543667
 42
-0.049132
  0
VERTEX
  8
0
 10
229.383779
 20
453.884042
 42
-0.116608
  0
VERTEX
  8
0
 10
229.000000
 20
453.500000
 42
0.111412
  0
VERTEX
  8
0
 10
228.616444
 20
453.123976
 42
0.050262
  0
VERTEX
  8
0
 10
228.293750
 20
452.493350
 42
0.046318
  0
VERTEX
  8
0
 10
228.074077
 20
451.729296
 42
0.046881
  0
VERTEX
  8
0
 10
228.000000
 20
450.940983
 42
-0.049547
  0
VERTEX
  8
0
 10
227.926216
 20
450.198222
 42
-0.069539
  0
VERTEX
  8
0
 10
227.706250
 20
449.570164
 42
-0.089706
  0
VERTEX
  8
0
 10
227.381787
 20
449.147465
 42
-0.186414
  0
VERTEX
  8
0
 10
227.000000
 20
449.000000
 42
0.222681
  0
VERTEX
  8
0
 10
226.617207
 20
448.820624
 42
0.076538
  0
VERTEX
  8
0
 10
226.293750
 20
448.282961
 42
0.058208
  0
VERTEX
  8
0
 10
226.073170
 20
447.493720
 42
0.039081
  0
VERTEX
  8
0
 10
226.000000
 20
446.559017
 42
-0.034275
  0
VERTEX
  8
0
 10
225.933049
 20
445.583484
 42
-0.039191
  0
VERTEX
  8
0
 10
225.733242
 20
444.670207
 42
-0.042903
  0
VERTEX
  8
0
 10
225.441535
 20
443.938773
 42
-0.138879
  0
VERTEX
  8
0
 10
225.091887
 20
443.556789
 42
0.185677
  0
VERTEX
  8
0
 10
223.175089
 20
441.035627
 42
0.002864
  0
VERTEX
  8
0
 10
218.096130
 20
423.181588
 42
0.008025
  0
VERTEX
  8
0
 10
213.632584
 20
406.084601
 42
0.026957
  0
VERTEX
  8
0
 10
211.500255
 20
394.716847
 42
0.000000
  0
VERTEX
  8
0
 10
210.867511
 20
389.933695
 42
0.000000
  0
VERTEX
  8
0
 10
207.858907
 20
392.465268
 42
0.049447
  0
VERTEX
  8
0
 10
203.527273
 20
395.433100
 42
0.017761
  0
VERTEX
  8
0
 10
196.840719
 20
398.799075
 42
0.017024
  0
VERTEX
  8
0
 10
190.049506
 20
401.644752
 42
0.065571
  0
VERTEX
  8
0
 10
185.605914
 20
402.693630
 42
0.071214
  0
VERTEX
  8
0
 10
181.551683
 20
402.525924
 42
0.079974
  0
VERTEX
  8
0
 10
177.878293
 20
401.213526
 42
0.080481
  0
VERTEX
  8
0
 10
174.820208
 20
398.823618
 42
0.073336
  0
VERTEX
  8
0
 10
172.556982
 20
395.518373
 42
0.078112
  0
VERTEX
  8
0
 10
171.017928
 20
390.509182
 42
0.034161
  0
VERTEX
  8
0
 10
170.503512
 20
383.559749
 42
0.033964
  0
VERTEX
  8
0
 10
170.931786
 20
376.695346
 42
0.090210
  0
VERTEX
  8
0
 10
172.425660
 20
372.034068
 42
-0.034609
  0
VERTEX
  8
0
 10
173.234955
 20
370.226134
 42
-0.012012
  0
VERTEX
  8
0
 10
174.154844
 20
367.519996
 42
-0.011866
  0
VERTEX
  8
0
 10
175.028371
 20
364.481290
 42
-0.013530
  0
VERTEX
  8
0
 10
175.715738
 20
361.534068
 42
0.009176
  0
VERTEX
  8
0
 10
176.334911
 20
358.770682
 42
0.012235
  0
VERTEX
  8
0
 10
177.004202
 20
356.287195
 42
0.009536
  0
VERTEX
  8
0
 10
177.647874
 20
354.255294
 42
0.111553
  0
VERTEX
  8
0
 10
178.078395
 20
353.550000
 42
-0.086710
  0
VERTEX
  8
0
 10
178.432532
 20
353.029281
 42
-0.035527
  0
VERTEX
  8
0
 10
178.729278
 20
352.224420
 42
-0.033802
  0
VERTEX
  8
0
 10
178.932022
 20
351.294335
 42
-0.036779
  0
VERTEX
  8
0
 10
179.000000
 20
350.371429
 42
0.056841
  0
VERTEX
  8
0
 10
179.109849
 20
349.408270
 42
0.038861
  0
VERTEX
  8
0
 10
179.440625
 20
348.356875
 42
0.039108
  0
VERTEX
  8
0
 10
179.925470
 20
347.379903
 42
0.061719
  0
VERTEX
  8
0
 10
180.500000
 20
346.642857
 42
-0.040425
  0
VERTEX
  8
0
 10
181.074020
 20
345.967674
 42
-0.035612
  0
VERTEX
  8
0
 10
181.559375
 20
345.180625
 42
-0.037323
  0
VERTEX
  8
0
 10
181.893963
 20
344.403988
 42
-0.083235
  0
VERTEX
  8
0
 10
182.000000
 20
343.771429
 42
0.067821
  0
VERTEX
  8
0
 10
182.082916
 20
343.162959
 42
0.039040
  0
VERTEX
  8
0
 10
182.336239
 20
342.466618
 42
0.038237
  0
VERTEX
  8
0
 10
182.706486
 20
341.794305
 42
0.051440
  0
VERTEX
  8
0
 10
183.144645
 20
341.255355
 42
-0.080492
  0
VERTEX
  8
0
 10
183.556983
 20
340.683552
 42
-0.286773
  0
VERTEX
  8
0
 10
183.516278
 20
340.253804
 42
-0.155144
  0
VERTEX
  8
0
 10
183.028773
 20
339.913098
 42
-0.025133
  0
VERTEX
  8
0
 10
181.894645
 20
339.621231
 42
-0.010710
  0
VERTEX
  8
0
 10
176.884828
 20
338.708510
 42
-0.046970
  0
VERTEX
  8
0
 10
173.886612
 20
338.513591
 42
-0.065319
  0
VERTEX
  8
0
 10
171.405794
 20
338.912425
 42
-0.034415
  0
VERTEX
  8
0
 10
168.478602
 20
340.009748
 42
0.018234
  0
VERTEX
  8
0
 10
164.880156
 20
341.493102
 42
0.085591
  0
VERTEX
  8
0
 10
162.688144
 20
341.900519
 42
0.214137
  0
VERTEX
  8
0
 10
161.495128
 20
341.383555
 42
0.187138
  0
VERTEX
  8
0
 10
161.000000
 20
340.106989
 42
-0.072710
  0
VERTEX
  8
0
 10
160.887915
 20
339.340293
 42
-0.064008
  0
VERTEX
  8
0
 10
160.559375
 20
338.600966
 42
-0.066864
  0
VERTEX
  8
0
 10
160.073537
 20
337.999607
 42
-0.098143
  0
VERTEX
  8
0
 10
159.500000
 20
337.638374
 42
0.125259
  0
VERTEX
  8
0
 10
158.925762
 20
337.232199
 42
0.064130
  0
VERTEX
  8
0
 10
158.440625
 20
336.488259
 42
0.057561
  0
VERTEX
  8
0
 10
158.111542
 20
335.542288
 42
0.055002
  0
VERTEX
  8
0
 10
158.000000
 20
334.531385
 42
-0.108380
  0
VERTEX
  8
0
 10
157.639905
 20
332.889633
 42
-0.228394
  0
VERTEX
  8
0
 10
156.657510
 20
332.079029
 42
-0.146963
  0
VERTEX
  8
0
 10
155.020258
 20
332.162672
 42
-0.042178
  0
VERTEX
  8
0
 10
152.684259
 20
333.226062
 42
0.075378
  0
VERTEX
  8
0
 10
150.269268
 20
334.137881
 42
0.006271
  0
VERTEX
  8
0
 10
143.683862
 20
335.459144
 42
0.008725
  0
VERTEX
  8
0
 10
137.060205
 20
336.582607
 42
0.031438
  0
VERTEX
  8
0
 10
132.795455
 20
336.957626
 42
0.159720
  0
VERTEX
  8
0
 10
130.882164
 20
336.382693
 42
0.047979
  0
VERTEX
  8
0
 10
128.535378
 20
334.387658
 42
0.048134
  0
VERTEX
  8
0
 10
126.596626
 20
331.961324
 42
0.145505
  0
VERTEX
  8
0
 10
126.000000
 20
329.954545
 42
-0.049189
  0
VERTEX
  8
0
 10
125.926237
 20
329.206578
 42
-0.069187
  0
VERTEX
  8
0
 10
125.706250
 20
328.574148
 42
-0.089364
  0
VERTEX
  8
0
 10
125.381808
 20
328.148393
 42
-0.187497
  0
VERTEX
  8
0
 10
125.000000
 20
328.000000
 42
0.181749
  0
VERTEX
  8
0
 10
124.618299
 20
327.856513
 42
0.091136
  0
VERTEX
  8
0
 10
124.293750
 20
327.446760
 42
0.071066
  0
VERTEX
  8
0
 10
124.073879
 20
326.837272
 42
0.051125
  0
VERTEX
  8
0
 10
124.000000
 20
326.116631
 42
-0.183103
  0
VERTEX
  8
0
 10
123.505571
 20
324.811759
 42
-0.110333
  0
VERTEX
  8
0
 10
122.148377
 20
323.829195
 42
-0.070385
  0
VERTEX
  8
0
 10
119.904700
 20
323.217126
 42
-0.030190
  0
VERTEX
  8
0
 10
116.798790
 20
323.013655
 42
0.048585
  0
VERTEX
  8
0
 10
113.393595
 20
322.664603
 42
0.015897
  0
VERTEX
  8
0
 10
108.476413
 20
321.507918
 42
0.016276
  0
VERTEX
  8
0
 10
103.545088
 20
320.007446
 42
0.037349
  0
VERTEX
  8
0
 10
99.975768
 20
318.487469
 42
0.070383
  0
VERTEX
  8
0
 10
95.624488
 20
315.395589
 42
0.068957
  0
VERTEX
  8
0
 10
92.266539
 20
311.198516
 42
0.075240
  0
VERTEX
  8
0
 10
90.404714
 20
306.628775
 42
0.121238
  0
VERTEX
  8
0
 10
90.423973
 20
302.446893
 42
0.174998
  0
VERTEX
  8
0
 10
91.630327
 20
300.654460
 42
0.204243
  0
VERTEX
  8
0
 10
93.615167
 20
300.191874
 42
0.083659
  0
VERTEX
  8
0
 10
96.839037
 20
301.335544
 42
0.016592
  0
VERTEX
  8
0
 10
102.106077
 20
304.500000
 42
-0.005910
  0
VERTEX
  8
0
 10
104.841660
 20
306.224119
 42
-0.008533
  0
VERTEX
  8
0
 10
107.303545
 20
307.678125
 42
-0.005009
  0
VERTEX
  8
0
 10
109.397155
 20
308.839328
 42
-0.124736
  0
VERTEX
  8
0
 10
110.031182
 20
309.000000
 42
0.076477
  0
VERTEX
  8
0
 10
110.401314
 20
309.056946
 42
0.089551
  0
VERTEX
  8
0
 10
110.715410
 20
309.222042
 42
0.100755
  0
VERTEX
  8
0
 10
110.925383
 20
309.467619
 42
0.127324
  0
VERTEX
  8
0
 10
111.000000
 20
309.755889
 42
-0.345896
  0
VERTEX
  8
0
 10
112.499038
 20
311.663523
 42
-0.014770
  0
VERTEX
  8
0
 10
121.437303
 20
313.561203
 42
-0.022933
  0
VERTEX
  8
0
 10
130.625771
 20
314.798082
 42
-0.073095
  0
VERTEX
  8
0
 10
136.791158
 20
314.440203
 42
0.000000
  0
VERTEX
  8
0
 10
140.500000
 20
313.673268
 42
0.000000
  0
VERTEX
  8
0
 10
134.000000
 20
312.086634
 42
0.022903
  0
VERTEX
  8
0
 10
127.578990
 20
310.203940
 42
0.016253
  0
VERTEX
  8
0
 10
120.562832
 20
307.534843
 42
0.015356
  0
VERTEX
  8
0
 10
113.267687
 20
304.217995
 42
0.014235
  0
VERTEX
  8
0
 10
106.000000
 20
300.379651
 42
-0.008386
  0
VERTEX
  8
0
 10
102.916274
 20
298.704600
 42
-0.009030
  0
VERTEX
  8
0
 10
99.852601
 20
297.176125
 42
-0.008637
  0
VERTEX
  8
0
 10
97.180224
 20
295.958799
 42
-0.041995
  0
VERTEX
  8
0
 10
95.604598
 20
295.425751
 42
0.081074
  0
VERTEX
  8
0
 10
92.288829
 20
294.007914
 42
0.004819
  0
VERTEX
  8
0
 10
83.111267
 20
288.053838
 42
0.004224
  0
VERTEX
  8
0
 10
73.946144
 20
281.869491
 42
0.098501
  0
VERTEX
  8
0
 10
71.765313
 20
279.631166
 42
0.139742
  0
VERTEX
  8
0
 10
70.923741
 20
276.894460
 42
0.016410
  0
VERTEX
  8
0
 10
71.002175
 20
270.448916
 42
0.017113
  0
VERTEX
  8
0
 10
71.511812
 20
264.028178
 42
0.125041
  0
VERTEX
  8
0
 10
72.596557
 20
261.165608
 42
0.106744
  0
VERTEX
  8
0
 10
74.404349
 20
259.491235
 42
0.183382
  0
VERTEX
  8
0
 10
76.401454
 20
259.144950
 42
0.197358
  0
VERTEX
  8
0
 10
78.021203
 20
260.207906
 42
0.122240
  0
VERTEX
  8
0
 10
78.828081
 20
262.370823
 42
-0.112943
  0
VERTEX
  8
0
 10
79.819097
 20
265.183825
 42
-0.014522
  0
VERTEX
  8
0
 10
83.413461
 20
270.520922
 42
-0.017968
  0
VERTEX
  8
0
 10
87.478192
 20
275.783537
 42
-0.044927
  0
VERTEX
  8
0
 10
90.901744
 20
279.220834
 42
-0.030352
  0
VERTEX
  8
0
 10
94.635058
 20
281.982630
 42
-0.027897
  0
VERTEX
  8
0
 10
98.779264
 20
284.357955
 42
-0.024650
  0
VERTEX
  8
0
 10
103.626187
 20
286.495697
 42
-0.015292
  0
VERTEX
  8
0
 10
109.500000
 20
288.543893
 42
0.007039
  0
VERTEX
  8
0
 10
113.056209
 20
289.718484
 42
0.008990
  0
VERTEX
  8
0
 10
116.296875
 20
290.905352
 42
0.007263
  0
VERTEX
  8
0
 10
118.967659
 20
291.983187
 42
0.072140
  0
VERTEX
  8
0
 10
120.000000
 20
292.604996
 42
-0.071250
  0
VERTEX
  8
0
 10
122.587283
 20
294.169642
 42
-0.016083
  0
VERTEX
  8
0
 10
127.392147
 20
296.030388
 42
-0.016253
  0
VERTEX
  8
0
 10
132.314627
 20
297.579086
 42
-0.068139
  0
VERTEX
  8
0
 10
135.381254
 20
297.999496
 42
0.046853
  0
VERTEX
  8
0
 10
137.241793
 20
298.174553
 42
0.003642
  0
VERTEX
  8
0
 10
142.151021
 20
299.142829
 42
0.004950
  0
VERTEX
  8
0
 10
147.997554
 20
300.400717
 42
0.003761
  0
VERTEX
  8
0
 10
154.381254
 20
301.890987
 42
-0.001384
  0
VERTEX
  8
0
 10
160.837438
 20
303.430584
 42
-0.001673
  0
VERTEX
  8
0
 10
166.905710
 20
304.838526
 42
-0.001418
  0
VERTEX
  8
0
 10
172.021332
 20
305.992161
 42
-0.011446
  0
VERTEX
  8
0
 10
174.382866
 20
306.461226
 42
0.000000
  0
VERTEX
  8
0
 10
178.265733
 20
307.140478
 42
0.000000
  0
VERTEX
  8
0
 10
172.161456
 20
301.488995
 42
-0.005405
  0
VERTEX
  8
0
 10
169.439433
 20
299.022992
 42
-0.003705
  0
VERTEX
  8
0
 10
166.299725
 20
296.281069
 42
-0.003735
  0
VERTEX
  8
0
 10
163.235855
 20
293.684713
 42
-0.007562
  0
VERTEX
  8
0
 10
160.778590
 20
291.696012
 42
0.004647
  0
VERTEX
  8
0
 10
158.647699
 20
289.991919
 42
0.005067
  0
VERTEX
  8
0
 10
156.609961
 20
288.296383
 42
0.004765
  0
VERTEX
  8
0
 10
154.894771
 20
286.811198
 42
0.024860
  0
VERTEX
  8
0
 10
154.000000
 20
285.938530
 42
-0.051832
  0
VERTEX
  8
0
 10
150.472665
 20
282.850860
 42
-0.008203
  0
VERTEX
  8
0
 10
142.861352
 20
277.654254
 42
-0.009139
  0
VERTEX
  8
0
 10
133.749712
 20
271.886087
 42
-0.008403
  0
VERTEX
  8
0
 10
124.177252
 20
266.286575
 42
0.010269
  0
VERTEX
  8
0
 10
122.390430
 20
265.232386
 42
0.009430
  0
VERTEX
  8
0
 10
120.596226
 20
264.076232
 42
0.009473
  0
VERTEX
  8
0
 10
119.035039
 20
262.984577
 42
0.030403
  0
VERTEX
  8
0
 10
118.056767
 20
262.177252
 42
-0.032376
  0
VERTEX
  8
0
 10
117.032905
 20
261.339066
 42
-0.008129
  0
VERTEX
  8
0
 10
115.257705
 20
260.111443
 42
-0.008266
  0
VERTEX
  8
0
 10
113.177657
 20
258.771620
 42
-0.008243
  0
VERTEX
  8
0
 10
111.052527
 20
257.500000
 42
0.003476
  0
VERTEX
  8
0
 10
108.631940
 20
256.082743
 42
0.001799
  0
VERTEX
  8
0
 10
105.625638
 20
254.279688
 42
0.001788
  0
VERTEX
  8
0
 10
102.548990
 20
252.404293
 42
0.002715
  0
VERTEX
  8
0
 10
99.889271
 20
250.750000
 42
-0.006794
  0
VERTEX
  8
0
 10
97.536994
 20
249.313405
 42
-0.009564
  0
VERTEX
  8
0
 10
95.398475
 20
248.101563
 42
-0.006259
  0
VERTEX
  8
0
 10
93.585627
 20
247.148747
 42
-0.118397
  0
VERTEX
  8
0
 10
92.966259
 20
247.000000
 42
0.079719
  0
VERTEX
  8
0
 10
92.597169
 20
246.940776
 42
0.091171
  0
VERTEX
  8
0
 10
92.283838
 20
246.769585
 42
0.100761
  0
VERTEX
  8
0
 10
92.074356
 20
246.514768
 42
0.122412
  0
VERTEX
  8
0
 10
92.000000
 20
246.215608
 42
-0.196104
  0
VERTEX
  8
0
 10
91.835382
 20
245.812028
 42
-0.022999
  0
VERTEX
  8
0
 10
91.109790
 20
245.135770
 42
-0.024801
  0
VERTEX
  8
0
 10
90.130248
 20
244.383922
 42
-0.017873
  0
VERTEX
  8
0
 10
88.969497
 20
243.641053
 42
0.016608
  0
VERTEX
  8
0
 10
87.683318
 20
242.822489
 42
0.012512
  0
VERTEX
  8
0
 10
86.324102
 20
241.841808
 42
0.012687
  0
VERTEX
  8
0
 10
85.091674
 20
240.854516
 42
0.028333
  0
VERTEX
  8
0
 10
84.219497
 20
240.029808
 42
-0.028100
  0
VERTEX
  8
0
 10
83.343651
 20
239.200858
 42
-0.012304
  0
VERTEX
  8
0
 10
82.097315
 20
238.198949
 42
-0.012132
  0
VERTEX
  8
0
 10
80.718776
 20
237.197560
 42
-0.015880
  0
VERTEX
  8
0
 10
79.409661
 20
236.354363
 42
0.015868
  0
VERTEX
  8
0
 10
76.764615
 20
234.650782
 42
0.005004
  0
VERTEX
  8
0
 10
72.920928
 20
231.941789
 42
0.005182
  0
VERTEX
  8
0
 10
69.007568
 20
229.062618
 42
0.010494
  0
VERTEX
  8
0
 10
66.000000
 20
226.701063
 42
-0.011675
  0
VERTEX
  8
0
 10
65.194496
 20
226.071648
 42
-0.003310
  0
VERTEX
  8
0
 10
63.912500
 20
225.130387
 42
-0.003333
  0
VERTEX
  8
0
 10
62.449999
 20
224.086218
 42
-0.003520
  0
VERTEX
  8
0
 10
61.000000
 20
223.080692
 42
0.007631
  0
VERTEX
  8
0
 10
59.586716
 20
222.083324
 42
0.008129
  0
VERTEX
  8
0
 10
58.234375
 20
221.063641
 42
0.007799
  0
VERTEX
  8
0
 10
57.100040
 20
220.150246
 42
0.036949
  0
VERTEX
  8
0
 10
56.500000
 20
219.571450
 42
-0.024122
  0
VERTEX
  8
0
 10
55.948238
 20
219.011227
 42
-0.006984
  0
VERTEX
  8
0
 10
55.044293
 20
218.200961
 42
-0.007005
  0
VERTEX
  8
0
 10
53.998781
 20
217.315278
 42
-0.007424
  0
VERTEX
  8
0
 10
52.948657
 20
216.476512
 42
0.040382
  0
VERTEX
  8
0
 10
49.723594
 20
213.532686
 42
0.003674
  0
VERTEX
  8
0
 10
42.355353
 20
205.509758
 42
0.001165
  0
VERTEX
  8
0
 10
34.462943
 20
196.747343
 42
0.184780
  0
VERTEX
  8
0
 10
34.000000
 20
195.537430
 42
-0.162393
  0
VERTEX
  8
0
 10
33.863021
 20
195.126801
 42
-0.007977
  0
VERTEX
  8
0
 10
32.974423
 20
193.981627
 42
-0.012232
  0
VERTEX
  8
0
 10
31.846312
 20
192.643157
 42
-0.008468
  0
VERTEX
  8
0
 10
30.508674
 20
191.183246
 42
0.016700
  0
VERTEX
  8
0
 10
29.171217
 20
189.674404
 42
0.020962
  0
VERTEX
  8
0
 10
28.040377
 20
188.186675
 42
0.019657
  0
VERTEX
  8
0
 10
27.209892
 20
186.887332
 42
0.131490
  0
VERTEX
  8
0
 10
27.008674
 20
186.154370
 42
-0.095072
  0
VERTEX
  8
0
 10
26.866796
 20
185.439873
 42
-0.020365
  0
VERTEX
  8
0
 10
26.341610
 20
184.283517
 42
-0.020584
  0
VERTEX
  8
0
 10
25.611938
 20
182.973528
 42
-0.018339
  0
VERTEX
  8
0
 10
24.750000
 20
181.675115
 42
0.004021
  0
VERTEX
  8
0
 10
23.815240
 20
180.350905
 42
0.003609
  0
VERTEX
  8
0
 10
22.867188
 20
178.963397
 42
0.003619
  0
VERTEX
  8
0
 10
22.034376
 20
177.705907
 42
0.011329
  0
VERTEX
  8
0
 10
21.500000
 20
176.844144
 42
0.001784
  0
VERTEX
  8
0
 10
17.878390
 20
170.646562
 42
0.008168
  0
VERTEX
  8
0
 10
15.847402
 20
167.006548
 42
0.013860
  0
VERTEX
  8
0
 10
14.533715
 20
164.387263
 42
0.020058
  0
VERTEX
  8
0
 10
13.532676
 20
162.000000
 42
-0.004883
  0
VERTEX
  8
0
 10
12.490909
 20
159.287636
 42
-0.002172
  0
VERTEX
  8
0
 10
11.067358
 20
155.731966
 42
-0.001601
  0
VERTEX
  8
0
 10
9.137903
 20
151.016115
 42
-0.000621
  0
VERTEX
  8
0
 10
6.438010
 20
144.500000
 42
0.024697
  0
VERTEX
  8
0
 10
4.807716
 20
139.958745
 42
0.022719
  0
VERTEX
  8
0
 10
3.580948
 20
135.151367
 42
0.017258
  0
VERTEX
  8
0
 10
2.557102
 20
129.183624
 42
0.006663
  0
VERTEX
  8
0
 10
1.534367
 20
120.847107
 42
0.032329
  0
VERTEX
  8
0
 10
0.819236
 20
104.645220
 42
0.033283
  0
VERTEX
  8
0
 10
2.215801
 20
88.645423
 42
0.034168
  0
VERTEX
  8
0
 10
5.658493
 20
73.387460
 42
0.038790
  0
VERTEX
  8
0
 10
11.048127
 20
59.399164
 42
0.006535
  0
VERTEX
  8
0
 10
12.636137
 20
56.180847
 42
0.009289
  0
VERTEX
  8
0
 10
14.137519
 20
53.366206
 42
0.005865
  0
VERTEX
  8
0
 10
15.460753
 20
51.056901
 42
0.121889
  0
VERTEX
  8
0
 10
16.014678
 20
50.490928
 42
-0.095099
  0
VERTEX
  8
0
 10
16.524472
 20
50.022440
 42
-0.013819
  0
VERTEX
  8
0
 10
17.335692
 20
48.862582
 42
-0.015226
  0
VERTEX
  8
0
 10
18.225184
 20
47.419075
 42
-0.012514
  0
VERTEX
  8
0
 10
19.087970
 20
45.827564
 42
0.046401
  0
VERTEX
  8
0
 10
22.959541
 20
39.713350
 42
0.017331
  0
VERTEX
  8
0
 10
29.447467
 20
31.882351
 42
0.017500
  0
VERTEX
  8
0
 10
36.545369
 20
24.437274
 42
0.040410
  0
VERTEX
  8
0
 10
42.485110
 20
19.500000
 42
-0.004328
  0
VERTEX
  8
0
 10
43.657008
 20
18.660937
 42
-0.004205
  0
VERTEX
  8
0
 10
44.825531
 20
17.793750
 42
-0.004152
  0
VERTEX
  8
0
 10
45.840030
 20
17.014237
 42
-0.015560
  0
VERTEX
  8
0
 10
46.457315
 20
16.500000
 42
0.026111
  0
VERTEX
  8
0
 10
47.997498
 20
15.271022
 42
0.018329
  0
VERTEX
  8
0
 10
49.847745
 20
14.046539
 42
0.018547
  0
VERTEX
  8
0
 10
51.705241
 20
13.005387
 42
0.037479
  0
VERTEX
  8
0
 10
53.250000
 20
12.354336
 42
-0.037772
  0
VERTEX
  8
0
 10
53.919774
 20
12.071593
 42
-0.047624
  0
VERTEX
  8
0
 10
54.485937
 20
11.708591
 42
-0.055328
  0
VERTEX
  8
0
 10
54.877860
 20
11.324078
 42
-0.172789
  0
VERTEX
  8
0
 10
55.000000
 20
10.981194
 42
0.213018
  0
VERTEX
  8
0
 10
55.165137
 20
10.611170
 42
0.033603
  0
VERTEX
  8
0
 10
55.807812
 20
10.108161
 42
0.032303
  0
VERTEX
  8
0
 10
56.696759
 20
9.584532
 42
0.023118
  0
VERTEX
  8
0
 10
57.750000
 20
9.112271
 42
-0.008403
  0
VERTEX
  8
0
 10
58.912817
 20
8.631443
 42
-0.006994
  0
VERTEX
  8
0
 10
60.132812
 20
8.082398
 42
-0.007070
  0
VERTEX
  8
0
 10
61.235834
 20
7.548197
 42
-0.018969
  0
VERTEX
  8
0
 10
62.000000
 20
7.127663
 42
0.036773
  0
VERTEX
  8
0
 10
64.903867
 20
5.661690
 42
0.010941
  0
VERTEX
  8
0
 10
69.535929
 20
3.853811
 42
0.011402
  0
VERTEX
  8
0
 10
74.491082
 20
2.170764
 42
0.019972
  0
VERTEX
  8
0
 10
78.671660
 20
1.037629
 42
0.060881
  0
VERTEX
  8
0
 10
84.918263
 20
0.391081
 42
0.011534
  0
VERTEX
  8
0
 10
96.380242
 20
0.867512
 42
0.013098
  0
VERTEX
  8
0
 10
108.548551
 20
1.975487
 42
0.023123
  0
VERTEX
  8
0
 10
118.500000
 20
3.614499
 42
-0.001341
  0
VERTEX
  8
0
 10
121.418350
 20
4.226737
 42
-0.001264
  0
VERTEX
  8
0
 10
124.398438
 20
4.835732
 42
-0.001256
  0
VERTEX
  8
0
 10
127.041872
 20
5.362070
 42
-0.004392
  0
VERTEX
  8
0
 10
128.750000
 20
5.682161
 42
0.024378
  0
VERTEX
  8
0
 10
129.995059
 20
5.967395
 42
0.036356
  0
VERTEX
  8
0
 10
131.045312
 20
6.346765
 42
0.040279
  0
VERTEX
  8
0
 10
131.798720
 20
6.758184
 42
0.252801
  0
VERTEX
  8
0
 10
132.000000
 20
7.130842
 42
-0.165799
  0
VERTEX
  8
0
 10
132.113054
 20
7.462407
 42
-0.095432
  0
VERTEX
  8
0
 10
132.432767
 20
7.744685
 42
-0.076396
  0
VERTEX
  8
0
 10
132.909746
 20
7.935478
 42
-0.057065
  0
VERTEX
  8
0
 10
133.473249
 20
8.000000
 42
0.105915
  0
VERTEX
  8
0
 10
136.988735
 20
8.753135
 42
0.004728
  0
VERTEX
  8
0
 10
148.334931
 20
13.977952
 42
0.002435
  0
VERTEX
  8
0
 10
160.139424
 20
19.620158
 42
0.287570
  0
VERTEX
  8
0
 10
161.000000
 20
20.992711
 42
-0.115017
  0
VERTEX
  8
0
 10
161.089571
 20
21.376940
 42
-0.100408
  0
VERTEX
  8
0
 10
161.342545
 20
21.704109
 42
-0.093521
  0
VERTEX
  8
0
 10
161.720806
 20
21.923686
 42
-0.085067
  0
VERTEX
  8
0
 10
162.166112
 20
22.000000
 42
0.094039
  0
VERTEX
  8
0
 10
162.723467
 20
22.105761
 42
0.033966
  0
VERTEX
  8
0
 10
163.454946
 20
22.452774
 42
0.032242
  0
VERTEX
  8
0
 10
164.223981
 20
22.951501
 42
0.033012
  0
VERTEX
  8
0
 10
164.916112
 20
23.541359
 42
-0.018765
  0
VERTEX
  8
0
 10
165.896670
 20
24.426437
 42
-0.002655
  0
VERTEX
  8
0
 10
167.990983
 20
26.159983
 42
-0.003023
  0
VERTEX
  8
0
 10
170.493712
 20
28.184143
 42
-0.002570
  0
VERTEX
  8
0
 10
173.159573
 20
30.291359
 42
0.008217
  0
VERTEX
  8
0
 10
175.856836
 20
32.473345
 42
0.008460
  0
VERTEX
  8
0
 10
178.454521
 20
34.722144
 42
0.008246
  0
VERTEX
  8
0
 10
180.639656
 20
36.745375
 42
0.035234
  0
VERTEX
  8
0
 10
181.833186
 20
38.060619
 42
-0.016861
  0
VERTEX
  8
0
 10
182.999752
 20
39.445053
 42
-0.003621
  0
VERTEX
  8
0
 10
185.119006
 20
41.760624
 42
-0.003778
  0
VERTEX
  8
0
 10
187.614445
 20
44.407497
 42
-0.003596
  0
VERTEX
  8
0
 10
190.190730
 20
47.060619
 42
0.007866
  0
VERTEX
  8
0
 10
195.181444
 20
52.288774
 42
0.007261
  0
VERTEX
  8
0
 10
200.142411
 20
57.810953
 42
0.007429
  0
VERTEX
  8
0
 10
204.805425
 20
63.318674
 42
0.009698
  0
VERTEX
  8
0
 10
208.895881
 20
68.500000
 42
-0.004006
  0
VERTEX
  8
0
 10
210.189930
 20
70.178084
 42
-0.003503
  0
VERTEX
  8
0
 10
211.569447
 20
71.912500
 42
-0.003523
  0
VERTEX
  8
0
 10
212.838068
 20
73.462280
 42
-0.010467
  0
VERTEX
  8
0
 10
213.737167
 20
74.500000
 42
0.027829
  0
VERTEX
  8
0
 10
215.997017
 20
77.298917
 42
0.010337
  0
VERTEX
  8
0
 10
218.867437
 20
81.468412
 42
0.005273
  0
VERTEX
  8
0
 10
221.627949
 20
85.759097
 42
0.141217
  0
VERTEX
  8
0
 10
222.000000
 20
87.050132
 42
-0.077260
  0
VERTEX
  8
0
 10
222.056529
 20
87.413783
 42
-0.088912
  0
VERTEX
  8
0
 10
222.220313
 20
87.723988
 42
-0.099261
  0
VERTEX
  8
0
 10
222.463940
 20
87.933299
 42
-0.125208
  0
VERTEX
  8
0
 10
222.750000
 20
88.010252
 42
0.224648
  0
VERTEX
  8
0
 10
223.938501
 20
88.592635
 42
0.002767
  0
VERTEX
  8
0
 10
229.346714
 20
95.451689
 42
0.007041
  0
VERTEX
  8
0
 10
235.817156
 20
103.997482
 42
0.003546
  0
VERTEX
  8
0
 10
243.751203
 20
114.950658
 42
-0.008323
  0
VERTEX
  8
0
 10
244.712502
 20
116.251417
 42
-0.002143
  0
VERTEX
  8
0
 10
246.308166
 20
118.318590
 42
-0.002181
  0
VERTEX
  8
0
 10
248.148916
 20
120.661113
 42
-0.002217
  0
VERTEX
  8
0
 10
250.000000
 20
122.974610
 42
0.001370
  0
VERTEX
  8
0
 10
251.975498
 20
125.435050
 42
0.000952
  0
VERTEX
  8
0
 10
254.194799
 20
128.225588
 42
0.000960
  0
VERTEX
  8
0
 10
256.315300
 20
130.912917
 42
0.001980
  0
VERTEX
  8
0
 10
257.961017
 20
133.023952
 42
-0.013087
  0
VERTEX
  8
0
 10
261.505477
 20
137.368048
 42
-0.008534
  0
VERTEX
  8
0
 10
265.809986
 20
142.201129
 42
-0.008508
  0
VERTEX
  8
0
 10
270.304246
 20
146.913613
 42
-0.012439
  0
VERTEX
  8
0
 10
274.431525
 20
150.893365
 42
0.001517
  0
VERTEX
  8
0
 10
276.345250
 20
152.659665
 42
0.000630
  0
VERTEX
  8
0
 10
278.919520
 20
155.056176
 42
0.000624
  0
VERTEX
  8
0
 10
281.670629
 20
157.630224
 42
0.000806
  0
VERTEX
  8
0
 10
284.188942
 20
160.000000
 42
-0.001328
  0
VERTEX
  8
0
 10
286.510797
 20
162.180337
 42
-0.001683
  0
VERTEX
  8
0
 10
288.668487
 20
164.182200
 42
-0.001324
  0
VERTEX
  8
0
 10
290.488114
 20
165.850171
 42
-0.013728
  0
VERTEX
  8
0
 10
291.257417
 20
166.513873
 42
0.002509
  0
VERTEX
  8
0
 10
293.061794
 20
168.001279
 42
0.000111
  0
VERTEX
  8
0
 10
299.293648
 20
173.193472
 42
0.000189
  0
VERTEX
  8
0
 10
305.343193
 20
178.239919
 42
0.000924
  0
VERTEX
  8
0
 10
308.757606
 20
181.101086
 42
-0.014623
  0
VERTEX
  8
0
 10
309.676406
 20
181.829115
 42
-0.018387
  0
VERTEX
  8
0
 10
310.570119
 20
182.445871
 42
-0.016735
  0
VERTEX
  8
0
 10
311.343475
 20
182.902968
 42
-0.121465
  0
VERTEX
  8
0
 10
311.757606
 20
183.012517
 42
0.149968
  0
VERTEX
  8
0
 10
312.501991
 20
183.254725
 42
0.000679
  0
VERTEX
  8
0
 10
319.328133
 20
188.062833
 42
0.003577
  0
VERTEX
  8
0
 10
326.205177
 20
192.994901
 42
0.004388
  0
VERTEX
  8
0
 10
332.554581
 20
197.703504
 42
-0.016543
  0
VERTEX
  8
0
 10
333.958670
 20
198.692778
 42
-0.005941
  0
VERTEX
  8
0
 10
336.019844
 20
200.010499
 42
-0.004061
  0
VERTEX
  8
0
 10
338.983524
 20
201.822730
 42
-0.001237
  0
VERTEX
  8
0
 10
343.500000
 20
204.519145
 42
0.000271
  0
VERTEX
  8
0
 10
345.943475
 20
205.971552
 42
0.000293
  0
VERTEX
  8
0
 10
348.323840
 20
207.390082
 42
0.000276
  0
VERTEX
  8
0
 10
350.364641
 20
208.609403
 42
0.001411
  0
VERTEX
  8
0
 10
351.496052
 20
209.290577
 42
0.018238
  0
VERTEX
  8
0
 10
353.589530
 20
210.665821
 42
0.003843
  0
VERTEX
  8
0
 10
357.137287
 20
213.227530
 42
0.003914
  0
VERTEX
  8
0
 10
360.650688
 20
215.848310
 42
0.017065
  0
VERTEX
  8
0
 10
362.663631
 20
217.485618
 42
-0.009360
  0
VERTEX
  8
0
 10
363.315092
 20
218.032401
 42
-0.002112
  0
VERTEX
  8
0
 10
364.443759
 20
218.936400
 42
-0.002188
  0
VERTEX
  8
0
 10
365.755285
 20
219.968475
 42
-0.002120
  0
VERTEX
  8
0
 10
367.089607
 20
221.000000
 42
0.005297
  0
VERTEX
  8
0
 10
368.437062
 20
222.055425
 42
0.005003
  0
VERTEX
  8
0
 10
369.787991
 20
223.159215
 42
0.004977
  0
VERTEX
  8
0
 10
370.964707
 20
224.160483
 42
0.017367
  0
VERTEX
  8
0
 10
371.694430
 20
224.839882
 42
-0.030051
  0
VERTEX
  8
0
 10
372.516612
 20
225.567338
 42
-0.005098
  0
VERTEX
  8
0
 10
374.179321
 20
226.842040
 42
-0.005552
  0
VERTEX
  8
0
 10
376.167100
 20
228.299799
 42
-0.004917
  0
VERTEX
  8
0
 10
378.268453
 20
229.774201
 42
0.003157
  0
VERTEX
  8
0
 10
380.356791
 20
231.228532
 42
0.003775
  0
VERTEX
  8
0
 10
382.305050
 20
232.625816
 42
0.003259
  0
VERTEX
  8
0
 10
383.929954
 20
233.826164
 42
0.024687
  0
VERTEX
  8
0
 10
384.663631
 20
234.434319
 42
-0.013589
  0
VERTEX
  8
0
 10
385.317870
 20
235.001580
 42
-0.003125
  0
VERTEX
  8
0
 10
386.453190
 20
235.921331
 42
-0.003227
  0
VERTEX
  8
0
 10
387.775102
 20
236.964708
 42
-0.003145
  0
VERTEX
  8
0
 10
389.121714
 20
238.000000
 42
0.022269
  0
VERTEX
  8
0
 10
397.092772
 20
244.628169
 42
0.010572
  0
VERTEX
  8
0
 10
406.780330
 20
253.823674
 42
0.008042
  0
VERTEX
  8
0
 10
415.732493
 20
262.978198
 42
0.070794
  0
VERTEX
  8
0
 10
419.000000
 20
267.586368
 42
-0.018897
  0
VERTEX
  8
0
 10
419.671835
 20
268.778415
 42
-0.017384
  0
VERTEX
  8
0
 10
420.449684
 20
269.950837
 42
-0.017687
  0
VERTEX
  8
0
 10
421.216296
 20
270.946990
 42
-0.053420
  0
VERTEX
  8
0
 10
421.828712
 20
271.544140
 42
0.120556
  0
VERTEX
  8
0
 10
422.341787
 20
272.198714
 42
0.051591
  0
VERTEX
  8
0
 10
422.695635
 20
273.260229
 42
0.044503
  0
VERTEX
  8
0
 10
422.868211
 20
274.583101
 42
0.033915
  0
VERTEX
  8
0
 10
422.828712
 20
276.044140
 42
0.101281
  0
VERTEX
  8
0
 10
421.915430
 20
279.031351
 42
0.319694
  0
VERTEX
  8
0
 10
420.136072
 20
279.898278
 42
0.151358
  0
VERTEX
  8
0
 10
417.467820
 20
278.556568
 42
0.028928
  0
VERTEX
  8
0
 10
413.738429
 20
274.525963
 42
-0.027036
  0
VERTEX
  8
0
 10
407.808255
 20
268.068006
 42
-0.010977
  0
VERTEX
  8
0
 10
399.084224
 20
259.908684
 42
-0.004947
  0
VERTEX
  8
0
 10
390.012024
 20
251.949898
 42
-0.179445
  0
VERTEX
  8
0
 10
387.450487
 20
251.000000
 42
0.128234
  0
VERTEX
  8
0
 10
386.995284
 20
250.881304
 42
0.011015
  0
VERTEX
  8
0
 10
385.949717
 20
250.265625
 42
0.013971
  0
VERTEX
  8
0
 10
384.722062
 20
249.457531
 42
0.010379
  0
VERTEX
  8
0
 10
383.411113
 20
248.500000
 42
-0.012503
  0
VERTEX
  8
0
 10
382.088631
 20
247.542630
 42
-0.016130
  0
VERTEX
  8
0
 10
380.825804
 20
246.734375
 42
-0.013930
  0
VERTEX
  8
0
 10
379.744102
 20
246.130417
 42
-0.120926
  0
VERTEX
  8
0
 10
379.212745
 20
246.000000
 42
0.133591
  0
VERTEX
  8
0
 10
378.704304
 20
245.861685
 42
0.018353
  0
VERTEX
  8
0
 10
377.770097
 20
245.265625
 42
0.019997
  0
VERTEX
  8
0
 10
376.694813
 20
244.457297
 42
0.015704
  0
VERTEX
  8
0
 10
375.594501
 20
243.500000
 42
-0.017756
  0
VERTEX
  8
0
 10
374.485164
 20
242.542820
 42
-0.021844
  0
VERTEX
  8
0
 10
373.382653
 20
241.734375
 42
-0.020926
  0
VERTEX
  8
0
 10
372.415846
 20
241.145359
 42
-0.127011
  0
VERTEX
  8
0
 10
371.852849
 20
241.000000
 42
0.094283
  0
VERTEX
  8
0
 10
371.287785
 20
240.892492
 42
0.018468
  0
VERTEX
  8
0
 10
370.335726
 20
240.475352
 42
0.019000
  0
VERTEX
  8
0
 10
369.247174
 20
239.897694
 42
0.016604
  0
VERTEX
  8
0
 10
368.154370
 20
239.213964
 42
-0.009644
  0
VERTEX
  8
0
 10
366.938804
 20
238.429677
 42
-0.005842
  0
VERTEX
  8
0
 10
365.471909
 20
237.546336
 42
-0.005852
  0
VERTEX
  8
0
 10
363.994784
 20
236.703263
 42
-0.010245
  0
VERTEX
  8
0
 10
362.750000
 20
236.044984
 42
0.022480
  0
VERTEX
  8
0
 10
361.696864
 20
235.454646
 42
0.030501
  0
VERTEX
  8
0
 10
360.807813
 20
234.824168
 42
0.031089
  0
VERTEX
  8
0
 10
360.163872
 20
234.236207
 42
0.194563
  0
VERTEX
  8
0
 10
360.000000
 20
233.831020
 42
-0.139673
  0
VERTEX
  8
0
 10
359.909714
 20
233.514121
 42
-0.099985
  0
VERTEX
  8
0
 10
359.655943
 20
233.244112
 42
-0.085359
  0
VERTEX
  8
0
 10
359.276400
 20
233.062280
 42
-0.069228
  0
VERTEX
  8
0
 10
358.828741
 20
233.000000
 42
0.084559
  0
VERTEX
  8
0
 10
358.269391
 20
232.904723
 42
0.032063
  0
VERTEX
  8
0
 10
357.537784
 20
232.594079
 42
0.030638
  0
VERTEX
  8
0
 10
356.769260
 20
232.146984
 42
0.032721
  0
VERTEX
  8
0
 10
356.078741
 20
231.618142
 42
-0.041211
  0
VERTEX
  8
0
 10
355.061925
 20
230.866406
 42
-0.005410
  0
VERTEX
  8
0
 10
352.760630
 20
229.476203
 42
-0.006256
  0
VERTEX
  8
0
 10
349.987320
 20
227.887966
 42
-0.005203
  0
VERTEX
  8
0
 10
347.000000
 20
226.266919
 42
0.002595
  0
VERTEX
  8
0
 10
343.871893
 20
224.590530
 42
0.002392
  0
VERTEX
  8
0
 10
340.675000
 20
222.836007
 42
0.002388
  0
VERTEX
  8
0
 10
337.841026
 20
221.245221
 42
0.007936
  0
VERTEX
  8
0
 10
336.000000
 20
220.161220
 42
-0.003329
  0
VERTEX
  8
0
 10
334.513357
 20
219.267331
 42
-0.002875
  0
VERTEX
  8
0
 10
332.940625
 20
218.348053
 42
-0.002894
  0
VERTEX
  8
0
 10
331.505101
 20
217.531047
 42
-0.008402
  0
VERTEX
  8
0
 10
330.500000
 20
216.988697
 42
0.007817
  0
VERTEX
  8
0
 10
329.483053
 20
216.441492
 42
0.002549
  0
VERTEX
  8
0
 10
327.999198
 20
215.602927
 42
0.002539
  0
VERTEX
  8
0
 10
326.360241
 20
214.654576
 42
0.002861
  0
VERTEX
  8
0
 10
324.795143
 20
213.726255
 42
-0.002923
  0
VERTEX
  8
0
 10
317.752001
 20
209.549872
 42
-0.006777
  0
VERTEX
  8
0
 10
312.407287
 20
206.519179
 42
-0.004348
  0
VERTEX
  8
0
 10
308.267029
 20
204.291706
 42
-0.121820
  0
VERTEX
  8
0
 10
307.087515
 20
204.000000
 42
0.135109
  0
VERTEX
  8
0
 10
306.672801
 20
203.885853
 42
0.100388
  0
VERTEX
  8
0
 10
306.319458
 20
203.564972
 42
0.086921
  0
VERTEX
  8
0
 10
306.081655
 20
203.084992
 42
0.071770
  0
VERTEX
  8
0
 10
306.000000
 20
202.519052
 42
-0.148556
  0
VERTEX
  8
0
 10
305.813608
 20
201.905549
 42
-0.071091
  0
VERTEX
  8
0
 10
305.257877
 20
201.286871
 42
-0.060931
  0
VERTEX
  8
0
 10
304.439948
 20
200.756478
 42
-0.051966
  0
VERTEX
  8
0
 10
303.473622
 20
200.404024
 42
0.052717
  0
VERTEX
  8
0
 10
302.432412
 20
200.022487
 42
0.040655
  0
VERTEX
  8
0
 10
301.393031
 20
199.402494
 42
0.041762
  0
VERTEX
  8
0
 10
300.508149
 20
198.653249
 42
0.073467
  0
VERTEX
  8
0
 10
299.938439
 20
197.884972
 42
-0.066351
  0
VERTEX
  8
0
 10
299.419517
 20
197.164069
 42
-0.055495
  0
VERTEX
  8
0
 10
298.700009
 20
196.553710
 42
-0.057642
  0
VERTEX
  8
0
 10
297.898748
 20
196.139136
 42
-0.090827
  0
VERTEX
  8
0
 10
297.139130
 20
196.000000
 42
0.100071
  0
VERTEX
  8
0
 10
296.288824
 20
195.828096
 42
0.036114
  0
VERTEX
  8
0
 10
295.184679
 20
195.265625
 42
0.034071
  0
VERTEX
  8
0
 10
294.030863
 20
194.456684
 42
0.034270
  0
VERTEX
  8
0
 10
293.000000
 20
193.500000
 42
-0.024812
  0
VERTEX
  8
0
 10
292.007178
 20
192.543066
 42
-0.028403
  0
VERTEX
  8
0
 10
290.966458
 20
191.734375
 42
-0.029337
  0
VERTEX
  8
0
 10
290.018777
 20
191.159664
 42
-0.122224
  0
VERTEX
  8
0
 10
289.375376
 20
191.000000
 42
0.084930
  0
VERTEX
  8
0
 10
288.828167
 20
190.906376
 42
0.052945
  0
VERTEX
  8
0
 10
288.239295
 20
190.625761
 42
0.051316
  0
VERTEX
  8
0
 10
287.700185
 20
190.213344
 42
0.063758
  0
VERTEX
  8
0
 10
287.299690
 20
189.725993
 42
-0.055181
  0
VERTEX
  8
0
 10
286.824862
 20
189.127624
 42
-0.017922
  0
VERTEX
  8
0
 10
286.000534
 20
188.353626
 42
-0.017620
  0
VERTEX
  8
0
 10
285.015745
 20
187.552626
 42
-0.018948
  0
VERTEX
  8
0
 10
284.000000
 20
186.843137
 42
0.025621
  0
VERTEX
  8
0
 10
282.721956
 20
185.924828
 42
0.007045
  0
VERTEX
  8
0
 10
280.808248
 20
184.350601
 42
0.007100
  0
VERTEX
  8
0
 10
278.687215
 20
182.502792
 42
0.007360
  0
VERTEX
  8
0
 10
276.645101
 20
180.617144
 42
-0.004658
  0
VERTEX
  8
0
 10
274.749323
 20
178.847548
 42
-0.007179
  0
VERTEX
  8
0
 10
273.073916
 20
177.356286
 42
-0.002928
  0
VERTEX
  8
0
 10
271.622346
 20
176.115920
 42
-0.177130
  0
VERTEX
  8
0
 10
271.305393
 20
176.000000
 42
0.218981
  0
VERTEX
  8
0
 10
270.446705
 20
175.604985
 42
0.017375
  0
VERTEX
  8
0
 10
268.843700
 20
173.597103
 42
0.020685
  0
VERTEX
  8
0
 10
267.401906
 20
171.478877
 42
0.133193
  0
VERTEX
  8
0
 10
267.033269
 20
170.250000
 42
-0.153736
  0
VERTEX
  8
0
 10
266.869021
 20
169.773113
 42
-0.094709
  0
VERTEX
  8
0
 10
266.429045
 20
169.367188
 42
-0.078141
  0
VERTEX
  8
0
 10
265.781476
 20
169.093136
 42
-0.061171
  0
VERTEX
  8
0
 10
265.023053
 20
169.000000
 42
0.100589
  0
VERTEX
  8
0
 10
264.148846
 20
168.822331
 42
0.050042
  0
VERTEX
  8
0
 10
263.153158
 20
168.277080
 42
0.046836
  0
VERTEX
  8
0
 10
262.196944
 20
167.480438
 42
0.050679
  0
VERTEX
  8
0
 10
261.433593
 20
166.538994
 42
-0.037482
  0
VERTEX
  8
0
 10
260.675826
 20
165.552412
 42
-0.031143
  0
VERTEX
  8
0
 10
259.733535
 20
164.622784
 42
-0.032245
  0
VERTEX
  8
0
 10
258.757972
 20
163.878229
 42
-0.070140
  0
VERTEX
  8
0
 10
257.910540
 20
163.471607
 42
0.063551
  0
VERTEX
  8
0
 10
257.180095
 20
163.132833
 42
0.064267
  0
VERTEX
  8
0
 10
256.561221
 20
162.622519
 42
0.070587
  0
VERTEX
  8
0
 10
256.142288
 20
162.025594
 42
0.118298
  0
VERTEX
  8
0
 10
256.000000
 20
161.432612
 42
-0.074246
  0
VERTEX
  8
0
 10
255.918266
 20
160.885222
 42
-0.088347
  0
VERTEX
  8
0
 10
255.680805
 20
160.420830
 42
-0.100639
  0
VERTEX
  8
0
 10
255.327762
 20
160.110386
 42
-0.130910
  0
VERTEX
  8
0
 10
254.913377
 20
160.000000
 42
0.198865
  0
VERTEX
  8
0
 10
253.308434
 20
159.335383
 42
0.006125
  0
VERTEX
  8
0
 10
248.206050
 20
154.108347
 42
0.010230
  0
VERTEX
  8
0
 10
241.931197
 20
147.244792
 42
0.005032
  0
VERTEX
  8
0
 10
234.218213
 20
138.273036
 42
-0.007074
  0
VERTEX
  8
0
 10
232.977815
 20
136.842067
 42
-0.004454
  0
VERTEX
  8
0
 10
231.490662
 20
135.204294
 42
-0.004471
  0
VERTEX
  8
0
 10
229.998858
 20
133.619189
 42
-0.008178
  0
VERTEX
  8
0
 10
228.750000
 20
132.357738
 42
0.020842
  0
VERTEX
  8
0
 10
227.697208
 20
131.239046
 42
0.025053
  0
VERTEX
  8
0
 10
226.807812
 20
130.100818
 42
0.024964
  0
VERTEX
  8
0
 10
226.167056
 20
129.086192
 42
0.129049
  0
VERTEX
  8
0
 10
226.000000
 20
128.449712
 42
-0.138477
  0
VERTEX
  8
0
 10
225.837158
 20
127.873013
 42
-0.040459
  0
VERTEX
  8
0
 10
225.287904
 20
127.121721
 42
-0.037271
  0
VERTEX
  8
0
 10
224.503608
 20
126.339407
 42
-0.032408
  0
VERTEX
  8
0
 10
223.575843
 20
125.641651
 42
0.040028
  0
VERTEX
  8
0
 10
222.600627
 20
124.884697
 42
0.031785
  0
VERTEX
  8
0
 10
221.674834
 20
123.924540
 42
0.032743
  0
VERTEX
  8
0
 10
220.927813
 20
122.917368
 42
0.066441
  0
VERTEX
  8
0
 10
220.508456
 20
122.026641
 42
-0.060651
  0
VERTEX
  8
0
 10
220.154489
 20
121.251737
 42
-0.062992
  0
VERTEX
  8
0
 10
219.628591
 20
120.595326
 42
-0.069960
  0
VERTEX
  8
0
 10
219.018335
 20
120.150534
 42
-0.123152
  0
VERTEX
  8
0
 10
218.416434
 20
120.000000
 42
0.163149
  0
VERTEX
  8
0
 10
217.752112
 20
119.777306
 42
0.045661
  0
VERTEX
  8
0
 10
216.930688
 20
119.030051
 42
0.040906
  0
VERTEX
  8
0
 10
216.102334
 20
117.961886
 42
0.033232
  0
VERTEX
  8
0
 10
215.393050
 20
116.698044
 42
-0.037003
  0
VERTEX
  8
0
 10
214.631372
 20
115.364478
 42
-0.031991
  0
VERTEX
  8
0
 10
213.646720
 20
114.087550
 42
-0.033304
  0
VERTEX
  8
0
 10
212.599240
 20
113.044294
 42
-0.075913
  0
VERTEX
  8
0
 10
211.659228
 20
112.448044
 42
0.058305
  0
VERTEX
  8
0
 10
210.760228
 20
111.921061
 42
0.036733
  0
VERTEX
  8
0
 10
209.844304
 20
111.117551
 42
0.036555
  0
VERTEX
  8
0
 10
209.048697
 20
110.180936
 42
0.054469
  0
VERTEX
  8
0
 10
208.512872
 20
109.250000
 42
-0.035922
  0
VERTEX
  8
0
 10
208.058800
 20
108.388878
 42
-0.043818
  0
VERTEX
  8
0
 10
207.511543
 20
107.660937
 42
-0.049572
  0
VERTEX
  8
0
 10
206.956473
 20
107.154608
 42
-0.161494
  0
VERTEX
  8
0
 10
206.490275
 20
107.000000
 42
0.191748
  0
VERTEX
  8
0
 10
205.977818
 20
106.795973
 42
0.029156
  0
VERTEX
  8
0
 10
205.208616
 20
105.978043
 42
0.029125
  0
VERTEX
  8
0
 10
204.374404
 20
104.853331
 42
0.021489
  0
VERTEX
  8
0
 10
203.581241
 20
103.520997
 42
-0.030050
  0
VERTEX
  8
0
 10
202.731351
 20
102.147399
 42
-0.030700
  0
VERTEX
  8
0
 10
201.728496
 20
100.895883
 42
-0.032259
  0
VERTEX
  8
0
 10
200.725764
 20
99.924768
 42
-0.099717
  0
VERTEX
  8
0
 10
199.904990
 20
99.469845
 42
0.083473
  0
VERTEX
  8
0
 10
199.164362
 20
99.089999
 42
0.049584
  0
VERTEX
  8
0
 10
198.429748
 20
98.419853
 42
0.047928
  0
VERTEX
  8
0
 10
197.810940
 20
97.582431
 42
0.059412
  0
VERTEX
  8
0
 10
197.414320
 20
96.698848
 42
-0.067504
  0
VERTEX
  8
0
 10
196.352399
 20
94.431658
 42
-0.021843
  0
VERTEX
  8
0
 10
194.205070
 20
91.401576
 42
-0.012502
  0
VERTEX
  8
0
 10
190.539332
 20
86.916422
 42
-0.002488
  0
VERTEX
  8
0
 10
183.750000
 20
79.099861
 42
0.014352
  0
VERTEX
  8
0
 10
182.696922
 20
77.827706
 42
0.018470
  0
VERTEX
  8
0
 10
181.807813
 20
76.597497
 42
0.016482
  0
VERTEX
  8
0
 10
181.147864
 20
75.535260
 42
0.131490
  0
VERTEX
  8
0
 10
181.000000
 20
74.982716
 42
-0.145288
  0
VERTEX
  8
0
 10
180.888757
 20
74.607962
 42
-0.099314
  0
VERTEX
  8
0
 10
180.575982
 20
74.288673
 42
-0.083427
  0
VERTEX
  8
0
 10
180.108330
 20
74.073485
 42
-0.066295
  0
VERTEX
  8
0
 10
179.556536
 20
74.000000
 42
0.140667
  0
VERTEX
  8
0
 10
178.887524
 20
73.807985
 42
0.044281
  0
VERTEX
  8
0
 10
178.049108
 20
73.173913
 42
0.040247
  0
VERTEX
  8
0
 10
177.194030
 20
72.263994
 42
0.035095
  0
VERTEX
  8
0
 10
176.451858
 20
71.187789
 42
-0.033545
  0
VERTEX
  8
0
 10
175.624021
 20
69.979375
 42
-0.020688
  0
VERTEX
  8
0
 10
174.501563
 20
68.671001
 42
-0.020714
  0
VERTEX
  8
0
 10
173.279173
 20
67.464299
 42
-0.034602
  0
VERTEX
  8
0
 10
172.145322
 20
66.569059
 42
0.037373
  0
VERTEX
  8
0
 10
170.834570
 20
65.522318
 42
0.010722
  0
VERTEX
  8
0
 10
168.968200
 20
63.712457
 42
0.010726
  0
VERTEX
  8
0
 10
166.944281
 20
61.573945
 42
0.011210
  0
VERTEX
  8
0
 10
165.044296
 20
59.381270
 42
-0.009225
  0
VERTEX
  8
0
 10
163.271913
 20
57.319366
 42
-0.013573
  0
VERTEX
  8
0
 10
161.633854
 20
55.580748
 42
-0.008817
  0
VERTEX
  8
0
 10
160.220485
 20
54.209174
 42
-0.190443
  0
VERTEX
  8
0
 10
159.691225
 20
54.000000
 42
0.155177
  0
VERTEX
  8
0
 10
159.141091
 20
53.825050
 42
0.008235
  0
VERTEX
  8
0
 10
157.638679
 20
52.724393
 42
0.012299
  0
VERTEX
  8
0
 10
155.879598
 20
51.321182
 42
0.008595
  0
VERTEX
  8
0
 10
153.963964
 20
49.657509
 42
-0.059769
  0
VERTEX
  8
0
 10
144.702978
 20
43.144593
 42
-0.038293
  0
VERTEX
  8
0
 10
132.668091
 20
37.813869
 42
-0.036651
  0
VERTEX
  8
0
 10
119.244184
 20
34.139880
 42
-0.039668
  0
VERTEX
  8
0
 10
105.779483
 20
32.590258
 42
-0.021293
  0
VERTEX
  8
0
 10
97.512291
 20
32.650533
 42
-0.031781
  0
VERTEX
  8
0
 10
90.332343
 20
33.468322
 42
-0.032092
  0
VERTEX
  8
0
 10
83.365712
 20
35.181384
 42
-0.022305
  0
VERTEX
  8
0
 10
75.750649
 20
37.960032
 42
-0.029714
  0
VERTEX
  8
0
 10
69.596852
 20
40.962234
 42
-0.043488
  0
VERTEX
  8
0
 10
64.626401
 20
44.364324
 42
-0.039230
  0
VERTEX
  8
0
 10
59.968492
 20
48.841026
 42
-0.019109
  0
VERTEX
  8
0
 10
54.724433
 20
55.213013
 42
-0.030118
  0
VERTEX
  8
0
 10
46.396958
 20
67.645773
 42
-0.044183
  0
VERTEX
  8
0
 10
40.775110
 20
79.536636
 42
-0.049521
  0
VERTEX
  8
0
 10
37.771584
 20
91.088518
 42
-0.056439
  0
VERTEX
  8
0
 10
37.284567
 20
102.500000
 42
-0.019284
  0
VERTEX
  8
0
 10
38.226234
 20
111.131307
 42
-0.014918
  0
VERTEX
  8
0
 10
39.892703
 20
120.444302
 42
-0.014119
  0
VERTEX
  8
0
 10
41.888959
 20
128.777025
 42
-0.058673
  0
VERTEX
  8
0
 10
43.805940
 20
133.568391
 42
0.029891
  0
VERTEX
  8
0
 10
44.315888
 20
134.657145
 42
0.006921
  0
VERTEX
  8
0
 10
45.037264
 20
136.548215
 42
0.007121
  0
VERTEX
  8
0
 10
45.808003
 20
138.752681
 42
0.006913
  0
VERTEX
  8
0
 10
46.523606
 20
141.000000
 42
-0.036032
  0
VERTEX
  8
0
 10
49.869473
 20
149.717301
 42
-0.033472
  0
VERTEX
  8
0
 10
54.503397
 20
158.091220
 42
-0.032548
  0
VERTEX
  8
0
 10
60.354425
 20
165.992179
 42
-0.030006
  0
VERTEX
  8
0
 10
67.332627
 20
173.297648
 42
-0.034373
  0
VERTEX
  8
0
 10
77.130560
 20
181.214295
 42
-0.013930
  0
VERTEX
  8
0
 10
91.469838
 20
190.670948
 42
-0.013478
  0
VERTEX
  8
0
 10
107.832023
 20
200.218499
 42
-0.014671
  0
VERTEX
  8
0
 10
124.234716
 20
208.590079
 42
0.003311
  0
VERTEX
  8
0
 10
127.672497
 20
210.247321
 42
0.004399
  0
VERTEX
  8
0
 10
130.775286
 20
211.802483
 42
0.003152
  0
VERTEX
  8
0
 10
133.352946
 20
213.143519
 42
0.043651
  0
VERTEX
  8
0
 10
134.234716
 20
213.712781
 42
-0.048537
  0
VERTEX
  8
0
 10
135.738265
 20
214.662814
 42
-0.001145
  0
VERTEX
  8
0
 10
143.196058
 20
218.397132
 42
-0.002634
  0
VERTEX
  8
0
 10
151.665048
 20
222.558034
 42
-0.002164
  0
VERTEX
  8
0
 10
160.750000
 20
226.913848
 42
0.018123
  0
VERTEX
  8
0
 10
161.994964
 20
227.560391
 42
0.025859
  0
VERTEX
  8
0
 10
163.045313
 20
228.229101
 42
0.024101
  0
VERTEX
  8
0
 10
163.824375
 20
228.842315
 42
0.217267
  0
VERTEX
  8
0
 10
164.000000
 20
229.227404
 42
-0.228017
  0
VERTEX
  8
0
 10
164.142342
 20
229.523305
 42
-0.074358
  0
VERTEX
  8
0
 10
164.572904
 20
229.773050
 42
-0.056619
  0
VERTEX
  8
0
 10
165.203437
 20
229.943527
 42
-0.037752
  0
VERTEX
  8
0
 10
165.950310
 20
230.000000
 42
0.060172
  0
VERTEX
  8
0
 10
166.755649
 20
230.097269
 42
0.051163
  0
VERTEX
  8
0
 10
167.562625
 20
230.385119
 42
0.053544
  0
VERTEX
  8
0
 10
168.251233
 20
230.809069
 42
0.091313
  0
VERTEX
  8
0
 10
168.700310
 20
231.311045
 42
-0.098986
  0
VERTEX
  8
0
 10
169.343063
 20
232.007888
 42
-0.009626
  0
VERTEX
  8
0
 10
171.234192
 20
233.327310
 42
-0.011908
  0
VERTEX
  8
0
 10
173.577733
 20
234.816608
 42
-0.009149
  0
VERTEX
  8
0
 10
176.203323
 20
236.333883
 42
0.008531
  0
VERTEX
  8
0
 10
179.084204
 20
237.993939
 42
0.006400
  0
VERTEX
  8
0
 10
182.199694
 20
239.915317
 42
0.006474
  0
VERTEX
  8
0
 10
185.085867
 20
241.799526
 42
0.014733
  0
VERTEX
  8
0
 10
187.203323
 20
243.313694
 42
-0.004474
  0
VERTEX
  8
0
 10
189.207774
 20
244.810142
 42
-0.002401
  0
VERTEX
  8
0
 10
191.706601
 20
246.622704
 42
-0.002390
  0
VERTEX
  8
0
 10
194.273164
 20
248.447119
 42
-0.003743
  0
VERTEX
  8
0
 10
196.500000
 20
249.989277
 42
0.012426
  0
VERTEX
  8
0
 10
202.878143
 20
254.572233
 42
0.005630
  0
VERTEX
  8
0
 10
211.009377
 20
260.872143
 42
0.004810
  0
VERTEX
  8
0
 10
218.694015
 20
267.087083
 42
0.028296
  0
VERTEX
  8
0
 10
222.500000
 20
270.606165
 42
-0.015456
  0
VERTEX
  8
0
 10
223.935622
 20
272.003594
 42
-0.008210
  0
VERTEX
  8
0
 10
225.793750
 20
273.648444
 42
-0.008163
  0
VERTEX
  8
0
 10
227.749941
 20
275.269030
 42
-0.012545
  0
VERTEX
  8
0
 10
229.500000
 20
276.600616
 42
0.004819
  0
VERTEX
  8
0
 10
231.069977
 20
277.757323
 42
0.006348
  0
VERTEX
  8
0
 10
232.477918
 20
278.843982
 42
0.004716
  0
VERTEX
  8
0
 10
233.634122
 20
279.777884
 42
0.059571
  0
VERTEX
  8
0
 10
234.020573
 20
280.182108
 42
-0.006824
  0
VERTEX
  8
0
 10
235.726869
 20
282.391698
 42
-0.001777
  0
VERTEX
  8
0
 10
238.530449
 20
285.895935
 42
-0.001897
  0
VERTEX
  8
0
 10
241.514673
 20
289.570281
 42
-0.003390
  0
VERTEX
  8
0
 10
244.000000
 20
292.565077
 42
0.001175
  0
VERTEX
  8
0
 10
245.570041
 20
294.439994
 42
0.000732
  0
VERTEX
  8
0
 10
247.402138
 20
296.644878
 42
0.000734
  0
VERTEX
  8
0
 10
249.202244
 20
298.824232
 42
0.001333
  0
VERTEX
  8
0
 10
250.666854
 20
300.612413
 42
-0.005132
  0
VERTEX
  8
0
 10
252.137784
 20
302.380729
 42
-0.002896
  0
VERTEX
  8
0
 10
253.955994
 20
304.496506
 42
-0.002890
  0
VERTEX
  8
0
 10
255.815140
 20
306.609943
 42
-0.004736
  0
VERTEX
  8
0
 10
257.416854
 20
308.375692
 42
0.014942
  0
VERTEX
  8
0
 10
258.788973
 20
309.951811
 42
0.019263
  0
VERTEX
  8
0
 10
259.947451
 20
311.482342
 42
0.017339
  0
VERTEX
  8
0
 10
260.805931
 20
312.807893
 42
0.135836
  0
VERTEX
  8
0
 10
261.000000
 20
313.509061
 42
-0.133446
  0
VERTEX
  8
0
 10
261.140683
 20
314.026789
 42
-0.073272
  0
VERTEX
  8
0
 10
261.555066
 20
314.542448
 42
-0.064486
  0
VERTEX
  8
0
 10
262.167042
 20
314.978225
 42
-0.058621
  0
VERTEX
  8
0
 10
262.889585
 20
315.260875
 42
-0.071744
  0
VERTEX
  8
0
 10
263.886498
 20
315.373538
 42
-0.422940
  0
VERTEX
  8
0
 10
264.204766
 20
315.024864
 42
-0.089137
  0
VERTEX
  8
0
 10
263.976594
 20
314.085206
 42
-0.004267
  0
VERTEX
  8
0
 10
262.639585
 20
311.127506
 42
0.033117
  0
VERTEX
  8
0
 10
261.553316
 20
308.300706
 42
0.040346
  0
VERTEX
  8
0
 10
260.934730
 20
305.534715
 42
0.029340
  0
VERTEX
  8
0
 10
260.655019
 20
302.076528
 42
0.008956
  0
VERTEX
  8
0
 10
260.633320
 20
296.825678
 42
0.000000
  0
VERTEX
  8
0
 10
260.766641
 20
287.151355
 42
0.000000
  0
VERTEX
  8
0
 10
265.383320
 20
281.151634
 42
-0.019344
  0
VERTEX
  8
0
 10
268.358953
 20
276.958512
 42
-0.078466
  0
VERTEX
  8
0
 10
269.637224
 20
274.110472
 42
-0.107710
  0
VERTEX
  8
0
 10
269.770073
 20
271.491012
 42
-0.054639
  0
VERTEX
  8
0
 10
268.875488
 20
268.297053
 42
0.001145
  0
VERTEX
  8
0
 10
267.339168
 20
264.450256
 42
0.005384
  0
VERTEX
  8
0
 10
266.485337
 20
262.228543
 42
0.007688
  0
VERTEX
  8
0
 10
265.828624
 20
260.376558
 42
0.004277
  0
VERTEX
  8
0
 10
265.082434
 20
258.100777
 42
0.021475
  0
VERTEX
  8
0
 10
264.667382
 20
256.573425
 42
0.014206
  0
VERTEX
  8
0
 10
264.316867
 20
254.789222
 42
0.014308
  0
VERTEX
  8
0
 10
264.074770
 20
253.032632
 42
0.026791
  0
VERTEX
  8
0
 10
263.996262
 20
251.600777
 42
-0.079206
  0
VERTEX
  8
0
 10
263.588195
 20
249.060664
 42
-0.035008
  0
VERTEX
  8
0
 10
262.300665
 20
245.904717
 42
-0.034335
  0
VERTEX
  8
0
 10
260.486000
 20
242.778887
 42
-0.047728
  0
VERTEX
  8
0
 10
258.426658
 20
240.283801
 42
0.162488
  0
VERTEX
  8
0
 10
257.317833
 20
238.063878
 42
0.037013
  0
VERTEX
  8
0
 10
257.032221
 20
233.812775
 42
0.038794
  0
VERTEX
  8
0
 10
257.413319
 20
229.311184
 42
0.078974
  0
VERTEX
  8
0
 10
258.525680
 20
225.950340
 42
0.039970
  0
VERTEX
  8
0
 10
259.422310
 20
224.511084
 42
0.088588
  0
VERTEX
  8
0
 10
260.358840
 20
223.626222
 42
0.094752
  0
VERTEX
  8
0
 10
261.501067
 20
223.154855
 42
0.050655
  0
VERTEX
  8
0
 10
263.025680
 20
223.000000
 42
0.030811
  0
VERTEX
  8
0
 10
264.649965
 20
223.100187
 42
0.153326
  0
VERTEX
  8
0
 10
265.471637
 20
223.474527
 42
0.170896
  0
VERTEX
  8
0
 10
265.882694
 20
224.226060
 42
0.040518
  0
VERTEX
  8
0
 10
266.000000
 20
225.671259
 42
-0.042254
  0
VERTEX
  8
0
 10
266.096388
 20
226.809794
 42
-0.032659
  0
VERTEX
  8
0
 10
266.385510
 20
228.021591
 42
-0.033535
  0
VERTEX
  8
0
 10
266.808963
 20
229.124624
 42
-0.065074
  0
VERTEX
  8
0
 10
267.312373
 20
229.921259
 42
0.042035
  0
VERTEX
  8
0
 10
267.938608
 20
230.818212
 42
0.010975
  0
VERTEX
  8
0
 10
268.786943
 20
232.358120
 42
0.011075
  0
VERTEX
  8
0
 10
269.679114
 20
234.161414
 42
0.011120
  0
VERTEX
  8
0
 10
270.489277
 20
236.000000
 42
-0.001086
  0
VERTEX
  8
0
 10
271.328776
 20
238.013724
 42
-0.000692
  0
VERTEX
  8
0
 10
272.313827
 20
240.353125
 42
-0.000695
  0
VERTEX
  8
0
 10
273.286334
 20
242.644932
 42
-0.001293
  0
VERTEX
  8
0
 10
274.082234
 20
244.500000
 42
0.013039
  0
VERTEX
  8
0
 10
274.950518
 20
246.662611
 42
0.003430
  0
VERTEX
  8
0
 10
276.226015
 20
250.169257
 42
0.003481
  0
VERTEX
  8
0
 10
277.623180
 20
254.182216
 42
0.003565
  0
VERTEX
  8
0
 10
278.953063
 20
258.182578
 42
-0.005231
  0
VERTEX
  8
0
 10
280.208229
 20
261.916560
 42
-0.008076
  0
VERTEX
  8
0
 10
281.378677
 20
265.114141
 42
-0.003443
  0
VERTEX
  8
0
 10
282.433326
 20
267.801888
 42
-0.193738
  0
VERTEX
  8
0
 10
282.797734
 20
268.182578
 42
0.118887
  0
VERTEX
  8
0
 10
283.159082
 20
268.463703
 42
0.013837
  0
VERTEX
  8
0
 10
283.779611
 20
269.288007
 42
0.015994
  0
VERTEX
  8
0
 10
284.469349
 20
270.327959
 42
0.012436
  0
VERTEX
  8
0
 10
285.154133
 20
271.500000
 42
-0.120737
  0
VERTEX
  8
0
 10
288.011298
 20
274.602781
 42
-0.095465
  0
VERTEX
  8
0
 10
292.233663
 20
276.367711
 42
-0.054414
  0
VERTEX
  8
0
 10
298.784827
 20
277.004176
 42
-0.013629
  0
VERTEX
  8
0
 10
309.533146
 20
276.583397
 42
0.014399
  0
VERTEX
  8
0
 10
334.707321
 20
275.636676
 42
0.023546
  0
VERTEX
  8
0
 10
356.039595
 20
276.453910
 42
0.027898
  0
VERTEX
  8
0
 10
373.950958
 20
278.999162
 42
0.045725
  0
VERTEX
  8
0
 10
388.629653
 20
283.352733
 42
-0.010497
  0
VERTEX
  8
0
 10
392.375036
 20
284.757030
 42
-0.009566
  0
VERTEX
  8
0
 10
396.293260
 20
286.049370
 42
-0.009621
  0
VERTEX
  8
0
 10
399.839244
 20
287.069873
 42
-0.030361
  0
VERTEX
  8
0
 10
402.262297
 20
287.561743
 42
0.014303
  0
VERTEX
  8
0
 10
404.123267
 20
287.877698
 42
0.019617
  0
VERTEX
  8
0
 10
405.774314
 20
288.274760
 42
0.016702
  0
VERTEX
  8
0
 10
407.091502
 20
288.694715
 42
0.170417
  0
VERTEX
  8
0
 10
407.530620
 20
289.049544
 42
-0.207308
  0
VERTEX
  8
0
 10
407.937666
 20
289.333066
 42
-0.034018
  0
VERTEX
  8
0
 10
408.910744
 20
289.461831
 42
-0.032568
  0
VERTEX
  8
0
 10
410.147965
 20
289.459901
 42
-0.023555
  0
VERTEX
  8
0
 10
411.518323
 20
289.303314
 42
0.016241
  0
VERTEX
  8
0
 10
413.675833
 20
289.024766
 42
0.178214
  0
VERTEX
  8
0
 10
414.506618
 20
289.242936
 42
0.218184
  0
VERTEX
  8
0
 10
414.907641
 20
289.924823
 42
0.025504
  0
VERTEX
  8
0
 10
415.000000
 20
291.734299
 42
0.095022
  0
VERTEX
  8
0
 10
414.443514
 20
294.636040
 42
0.079735
  0
VERTEX
  8
0
 10
412.835579
 20
297.330169
 42
0.070718
  0
VERTEX
  8
0
 10
410.260527
 20
299.645674
 42
0.052690
  0
VERTEX
  8
0
 10
406.877452
 20
301.432357
 42
0.054709
  0
VERTEX
  8
0
 10
403.248266
 20
302.441854
 42
0.089933
  0
VERTEX
  8
0
 10
400.070756
 20
302.386596
 42
0.070755
  0
VERTEX
  8
0
 10
396.607850
 20
301.169243
 42
0.023257
  0
VERTEX
  8
0
 10
391.924751
 20
298.451520
 42
-0.017328
  0
VERTEX
  8
0
 10
389.708949
 20
297.130279
 42
-0.019229
  0
VERTEX
  8
0
 10
387.481329
 20
296.013884
 42
-0.018957
  0
VERTEX
  8
0
 10
385.521634
 20
295.212430
 42
-0.087801
  0
VERTEX
  8
0
 10
384.321235
 20
295.000000
 42
0.048834
  0
VERTEX
  8
0
 10
383.119134
 20
294.882312
 42
0.012047
  0
VERTEX
  8
0
 10
381.181642
 20
294.450526
 42
0.012214
  0
VERTEX
  8
0
 10
378.976599
 20
293.845489
 42
0.011951
  0
VERTEX
  8
0
 10
376.787513
 20
293.129449
 42
-0.057510
  0
VERTEX
  8
0
 10
371.457172
 20
291.908709
 42
-0.013170
  0
VERTEX
  8
0
 10
362.232335
 20
291.132887
 42
-0.008910
  0
VERTEX
  8
0
 10
352.876026
 20
290.760810
 42
-0.144876
  0
VERTEX
  8
0
 10
349.873161
 20
291.578391
 42
-0.351583
  0
VERTEX
  8
0
 10
349.533274
 20
292.536027
 42
-0.124098
  0
VERTEX
  8
0
 10
350.391146
 20
293.839583
 42
-0.057974
  0
VERTEX
  8
0
 10
352.564219
 20
295.410706
 42
-0.023430
  0
VERTEX
  8
0
 10
355.841815
 20
297.048176
 42
0.017354
  0
VERTEX
  8
0
 10
357.707269
 20
297.952000
 42
0.016775
  0
VERTEX
  8
0
 10
359.527206
 20
298.992643
 42
0.016956
  0
VERTEX
  8
0
 10
361.065379
 20
300.015610
 42
0.057204
  0
VERTEX
  8
0
 10
361.959708
 20
300.824175
 42
0.018578
  0
VERTEX
  8
0
 10
364.032226
 20
303.364739
 42
0.015732
  0
VERTEX
  8
0
 10
366.033808
 20
306.194254
 42
0.011295
  0
VERTEX
  8
0
 10
367.684664
 20
308.817962
 42
0.135579
  0
VERTEX
  8
0
 10
368.000000
 20
309.959507
 42
-0.070361
  0
VERTEX
  8
0
 10
368.056256
 20
310.357295
 42
-0.085901
  0
VERTEX
  8
0
 10
368.220312
 20
310.694881
 42
-0.099920
  0
VERTEX
  8
0
 10
368.463990
 20
310.920924
 42
-0.137434
  0
VERTEX
  8
0
 10
368.750000
 20
311.001788
 42
0.213549
  0
VERTEX
  8
0
 10
369.163614
 20
311.188068
 42
0.012328
  0
VERTEX
  8
0
 10
370.083220
 20
312.275000
 42
0.016996
  0
VERTEX
  8
0
 10
371.132892
 20
313.674401
 42
0.011536
  0
VERTEX
  8
0
 10
372.235429
 20
315.333614
 42
-0.012432
  0
VERTEX
  8
0
 10
373.430492
 20
317.125092
 42
-0.011063
  0
VERTEX
  8
0
 10
374.759106
 20
318.927257
 42
-0.011176
  0
VERTEX
  8
0
 10
376.026197
 20
320.494939
 42
-0.033294
  0
VERTEX
  8
0
 10
376.985429
 20
321.486814
 42
0.044557
  0
VERTEX
  8
0
 10
377.756313
 20
322.320670
 42
0.038742
  0
VERTEX
  8
0
 10
378.408220
 20
323.316394
 42
0.040644
  0
VERTEX
  8
0
 10
378.856276
 20
324.317062
 42
0.085140
  0
VERTEX
  8
0
 10
379.000000
 20
325.154988
 42
-0.105866
  0
VERTEX
  8
0
 10
379.191879
 20
326.051065
 42
-0.167484
  0
VERTEX
  8
0
 10
379.724252
 20
326.618213
 42
-0.098434
  0
VERTEX
  8
0
 10
380.733247
 20
326.918093
 42
-0.023168
  0
VERTEX
  8
0
 10
382.500000
 20
327.000000
 42
0.022645
  0
VERTEX
  8
0
 10
384.311910
 20
327.082105
 42
0.105632
  0
VERTEX
  8
0
 10
385.304666
 20
327.390344
 42
0.175332
  0
VERTEX
  8
0
 10
385.819499
 20
327.986746
 42
0.091502
  0
VERTEX
  8
0
 10
386.000000
 20
328.964816
 42
0.177455
  0
VERTEX
  8
0
 10
385.343305
 20
330.756868
 42
0.104993
  0
VERTEX
  8
0
 10
383.521222
 20
332.168286
 42
0.073331
  0
VERTEX
  8
0
 10
380.627302
 20
333.074435
 42
0.038731
  0
VERTEX
  8
0
 10
376.867971
 20
333.374413
 42
0.058232
  0
VERTEX
  8
0
 10
372.708229
 20
332.897592
 42
0.106011
  0
VERTEX
  8
0
 10
369.629864
 20
331.441982
 42
0.085271
  0
VERTEX
  8
0
 10
366.997919
 20
328.603941
 42
0.027998
  0
VERTEX
  8
0
 10
364.148603
 20
323.646225
 42
-0.020839
  0
VERTEX
  8
0
 10
362.449717
 20
320.589817
 42
-0.025788
  0
VERTEX
  8
0
 10
360.609574
 20
317.903294
 42
-0.028075
  0
VERTEX
  8
0
 10
358.667368
 20
315.635687
 42
-0.038220
  0
VERTEX
  8
0
 10
356.661398
 20
313.840504
 42
0.005597
  0
VERTEX
  8
0
 10
354.994864
 20
312.534251
 42
0.006365
  0
VERTEX
  8
0
 10
353.428661
 20
311.244979
 42
0.005824
  0
VERTEX
  8
0
 10
352.126506
 20
310.118710
 42
0.035036
  0
VERTEX
  8
0
 10
351.500000
 20
309.480324
 42
-0.077554
  0
VERTEX
  8
0
 10
350.075193
 20
308.255577
 42
-0.018190
  0
VERTEX
  8
0
 10
347.335170
 20
306.690888
 42
-0.016747
  0
VERTEX
  8
0
 10
344.509967
 20
305.329660
 42
-0.104251
  0
VERTEX
  8
0
 10
342.946068
 20
305.000000
 42
-0.466435
  0
VERTEX
  8
0
 10
342.726838
 20
305.261380
 42
-0.072820
  0
VERTEX
  8
0
 10
342.969826
 20
305.993797
 42
-0.039962
  0
VERTEX
  8
0
 10
343.631511
 20
307.083763
 42
-0.018805
  0
VERTEX
  8
0
 10
344.646408
 20
308.383138
 42
0.003709
  0
VERTEX
  8
0
 10
345.909551
 20
309.903423
 42
0.002398
  0
VERTEX
  8
0
 10
347.350238
 20
311.681123
 42
0.002410
  0
VERTEX
  8
0
 10
348.741595
 20
313.432105
 42
0.004554
  0
VERTEX
  8
0
 10
349.843766
 20
314.859529
 42
-0.029513
  0
VERTEX
  8
0
 10
350.987326
 20
316.196940
 42
-0.017328
  0
VERTEX
  8
0
 10
352.499631
 20
317.662532
 42
-0.017296
  0
VERTEX
  8
0
 10
354.118923
 20
319.027750
 42
-0.028085
  0
VERTEX
  8
0
 10
355.593766
 20
320.057950
 42
0.089694
  0
VERTEX
  8
0
 10
358.676685
 20
322.830727
 42
0.389451
  0
VERTEX
  8
0
 10
358.489542
 20
325.070657
 42
0.159668
  0
VERTEX
  8
0
 10
355.123257
 20
326.606444
 42
0.027846
  0
VERTEX
  8
0
 10
348.062091
 20
327.000000
 42
0.024759
  0
VERTEX
  8
0
 10
345.537197
 20
326.874897
 42
0.065366
  0
VERTEX
  8
0
 10
343.778174
 20
326.463851
 42
0.073907
  0
VERTEX
  8
0
 10
342.312167
 20
325.648343
 42
0.038823
  0
VERTEX
  8
0
 10
340.758414
 20
324.250000
 42
0.034497
  0
VERTEX
  8
0
 10
339.705321
 20
322.977729
 42
0.024764
  0
VERTEX
  8
0
 10
338.704633
 20
321.426562
 42
0.025152
  0
VERTEX
  8
0
 10
337.896096
 20
319.847097
 42
0.048230
  0
VERTEX
  8
0
 10
337.440023
 20
318.500000
 42
-0.063350
  0
VERTEX
  8
0
 10
336.372383
 20
315.633980
 42
-0.034482
  0
VERTEX
  8
0
 10
334.399515
 20
312.430969
 42
-0.034499
  0
VERTEX
  8
0
 10
332.063691
 20
309.600616
 42
-0.080288
  0
VERTEX
  8
0
 10
329.883658
 20
307.937736
 42
-0.008453
  0
VERTEX
  8
0
 10
328.645612
 20
307.301840
 42
-0.315509
  0
VERTEX
  8
0
 10
328.349571
 20
307.347692
 42
-0.326447
  0
VERTEX
  8
0
 10
328.298326
 20
307.637856
 42
-0.008781
  0
VERTEX
  8
0
 10
328.924306
 20
308.858565
 42
0.041490
  0
VERTEX
  8
0
 10
329.336824
 20
309.811687
 42
0.023358
  0
VERTEX
  8
0
 10
329.684015
 20
311.024436
 42
0.023176
  0
VERTEX
  8
0
 10
329.921827
 20
312.289777
 42
0.034872
  0
VERTEX
  8
0
 10
330.000000
 20
313.409259
 42
-0.035091
  0
VERTEX
  8
0
 10
330.100329
 20
314.837046
 42
-0.217403
  0
VERTEX
  8
0
 10
330.486152
 20
315.441041
 42
-0.173420
  0
VERTEX
  8
0
 10
331.257565
 20
315.622297
 42
-0.021191
  0
VERTEX
  8
0
 10
333.000000
 20
315.350000
 42
0.021125
  0
VERTEX
  8
0
 10
334.637828
 20
315.093830
 42
0.138433
  0
VERTEX
  8
0
 10
335.450383
 20
315.226803
 42
0.222791
  0
VERTEX
  8
0
 10
335.867718
 20
315.727289
 42
0.064245
  0
VERTEX
  8
0
 10
336.000000
 20
316.752555
 42
0.101579
  0
VERTEX
  8
0
 10
335.658069
 20
318.418261
 42
0.118772
  0
VERTEX
  8
0
 10
334.694528
 20
319.708716
 42
0.086782
  0
VERTEX
  8
0
 10
332.980379
 20
320.689862
 42
0.034079
  0
VERTEX
  8
0
 10
330.353591
 20
321.441230
 42
0.089731
  0
VERTEX
  8
0
 10
327.162141
 20
321.541749
 42
0.058391
  0
VERTEX
  8
0
 10
323.592513
 20
320.576283
 42
0.061082
  0
VERTEX
  8
0
 10
320.611736
 20
318.936986
 42
0.174282
  0
VERTEX
  8
0
 10
319.293246
 20
317.013371
 42
-0.038627
  0
VERTEX
  8
0
 10
319.026711
 20
316.242759
 42
-0.050214
  0
VERTEX
  8
0
 10
318.661910
 20
315.591428
 42
-0.059629
  0
VERTEX
  8
0
 10
318.259707
 20
315.142012
 42
-0.182399
  0
VERTEX
  8
0
 10
317.883369
 20
315.000000
 42
0.235566
  0
VERTEX
  8
0
 10
317.544766
 20
314.831101
 42
0.071193
  0
VERTEX
  8
0
 10
317.259490
 20
314.312927
 42
0.054403
  0
VERTEX
  8
0
 10
317.064482
 20
313.556835
 42
0.035944
  0
VERTEX
  8
0
 10
317.000000
 20
312.661029
 42
-0.122789
  0
VERTEX
  8
0
 10
316.380731
 20
310.177381
 42
-0.036708
  0
VERTEX
  8
0
 10
314.284848
 20
306.849909
 42
-0.036450
  0
VERTEX
  8
0
 10
311.738053
 20
303.876971
 42
-0.131313
  0
VERTEX
  8
0
 10
309.601314
 20
302.629469
 42
-0.048667
  0
VERTEX
  8
0
 10
308.671053
 20
302.469726
 42
-0.021113
  0
VERTEX
  8
0
 10
307.414979
 20
302.431300
 42
-0.020655
  0
VERTEX
  8
0
 10
306.065745
 20
302.502797
 42
-0.025794
  0
VERTEX
  8
0
 10
304.824714
 20
302.685057
 42
0.000000
  0
VERTEX
  8
0
 10
301.946800
 20
303.260640
 42
0.000000
  0
VERTEX
  8
0
 10
308.723400
 20
309.921938
 42
0.011363
  0
VERTEX
  8
0
 10
313.567192
 20
314.904732
 42
0.007511
  0
VERTEX
  8
0
 10
318.912632
 20
320.835858
 42
0.004696
  0
VERTEX
  8
0
 10
323.788336
 20
326.518825
 42
0.071571
  0
VERTEX
  8
0
 10
325.154473
 20
328.713420
 42
-0.096184
  0
VERTEX
  8
0
 10
325.429379
 20
329.110393
 42
-0.016808
  0
VERTEX
  8
0
 10
326.104720
 20
329.726701
 42
-0.017697
  0
VERTEX
  8
0
 10
326.958386
 20
330.404029
 42
-0.015061
  0
VERTEX
  8
0
 10
327.904149
 20
331.058329
 42
0.152392
  0
VERTEX
  8
0
 10
330.517783
 20
334.204248
 42
0.049473
  0
VERTEX
  8
0
 10
332.278082
 20
340.062076
 42
0.049143
  0
VERTEX
  8
0
 10
332.891103
 20
346.506093
 42
0.089710
  0
VERTEX
  8
0
 10
331.936382
 20
351.684900
 42
0.090244
  0
VERTEX
  8
0
 10
329.258794
 20
356.139192
 42
0.060697
  0
VERTEX
  8
0
 10
324.817429
 20
360.100304
 42
0.057305
  0
VERTEX
  8
0
 10
319.245145
 20
363.090940
 42
0.059933
  0
VERTEX
  8
0
 10
313.222699
 20
364.682496
 42
-0.013514
  0
VERTEX
  8
0
 10
311.553061
 20
364.961658
 42
-0.018743
  0
VERTEX
  8
0
 10
310.075911
 20
365.307792
 42
-0.015486
  0
VERTEX
  8
0
 10
308.894784
 20
365.671376
 42
-0.173621
  0
VERTEX
  8
0
 10
308.516655
 20
365.973052
 42
-0.289970
  0
VERTEX
  8
0
 10
308.521676
 20
366.434311
 42
-0.013443
  0
VERTEX
  8
0
 10
309.449381
 20
367.783867
 42
-0.018757
  0
VERTEX
  8
0
 10
310.712867
 20
369.389777
 42
-0.011974
  0
VERTEX
  8
0
 10
312.293956
 20
371.163367
 42
0.028126
  0
VERTEX
  8
0
 10
320.875566
 20
381.439365
 42
0.032581
  0
VERTEX
  8
0
 10
327.800627
 20
392.139215
 42
0.032449
  0
VERTEX
  8
0
 10
333.299066
 20
403.686530
 42
0.027491
  0
VERTEX
  8
0
 10
337.610199
 20
416.500000
 42
-0.005543
  0
VERTEX
  8
0
 10
338.216794
 20
418.604167
 42
-0.004841
  0
VERTEX
  8
0
 10
338.896995
 20
420.791903
 42
-0.004872
  0
VERTEX
  8
0
 10
339.550268
 20
422.757513
 42
-0.014396
  0
VERTEX
  8
0
 10
340.050705
 20
424.089457
 42
0.033012
  0
VERTEX
  8
0
 10
340.545310
 20
425.571096
 42
0.006822
  0
VERTEX
  8
0
 10
341.206138
 20
428.241983
 42
0.007144
  0
VERTEX
  8
0
 10
341.888191
 20
431.371031
 42
0.006677
  0
VERTEX
  8
0
 10
342.497076
 20
434.589457
 42
-0.001870
  0
VERTEX
  8
0
 10
343.277940
 20
438.945790
 42
-0.000422
  0
VERTEX
  8
0
 10
344.639276
 20
446.345028
 42
-0.000437
  0
VERTEX
  8
0
 10
346.224737
 20
454.880004
 42
-0.000424
  0
VERTEX
  8
0
 10
347.841359
 20
463.500000
 42
0.005160
  0
VERTEX
  8
0
 10
349.516281
 20
472.922651
 42
0.007333
  0
VERTEX
  8
0
 10
350.795516
 20
481.333806
 42
0.008213
  0
VERTEX
  8
0
 10
351.646344
 20
488.399536
 42
0.021507
  0
VERTEX
  8
0
 10
351.954817
 20
493.500000
 42
-0.002819
  0
VERTEX
  8
0
 10
352.204846
 20
504.351645
 42
-0.006882
  0
VERTEX
  8
0
 10
352.544018
 20
512.339154
 42
-0.004657
  0
VERTEX
  8
0
 10
352.939118
 20
518.361183
 42
-0.120261
  0
VERTEX
  8
0
 10
353.440276
 20
519.903364
 42
-0.202841
  0
VERTEX
  8
0
 10
354.066778
 20
520.347771
 42
-0.018744
  0
VERTEX
  8
0
 10
355.978876
 20
520.694205
 42
-0.021170
  0
VERTEX
  8
0
 10
358.432075
 20
520.938904
 42
-0.013357
  0
VERTEX
  8
0
 10
361.309017
 20
521.026308
 42
0.046804
  0
VERTEX
  8
0
 10
371.180267
 20
521.988808
 42
0.043536
  0
VERTEX
  8
0
 10
380.952811
 20
524.775200
 42
0.045280
  0
VERTEX
  8
0
 10
389.677611
 20
529.046609
 42
0.064375
  0
VERTEX
  8
0
 10
396.414373
 20
534.431612
 42
-0.046491
  0
VERTEX
  8
0
 10
403.095011
 20
540.173812
 42
-0.029079
  0
VERTEX
  8
0
 10
411.845557
 20
545.647089
 42
-0.026143
  0
VERTEX
  8
0
 10
420.381099
 20
549.754741
 42
-0.147337
  0
VERTEX
  8
0
 10
425.355511
 20
550.272372
 42
0.040173
  0
VERTEX
  8
0
 10
426.594689
 20
550.137290
 42
0.094108
  0
VERTEX
  8
0
 10
427.511052
 20
550.284596
 42
0.120904
  0
VERTEX
  8
0
 10
428.167633
 20
550.722019
 42
0.094293
  0
VERTEX
  8
0
 10
428.620438
 20
551.453261
 42
0.148800
  0
VERTEX
  8
0
 10
428.760333
 20
553.420971
 42
0.088998
  0
VERTEX
  8
0
 10
427.835271
 20
555.596900
 42
0.066982
  0
VERTEX
  8
0
 10
425.887595
 20
557.847910
 42
0.038119
  0
VERTEX
  8
0
 10
423.011730
 20
560.023066
 42
-0.024897
  0
VERTEX
  8
0
 10
421.562331
 20
561.060290
 42
-0.040120
  0
VERTEX
  8
0
 10
420.453224
 20
562.095844
 42
-0.048587
  0
VERTEX
  8
0
 10
419.781173
 20
562.993997
 42
-0.296793
  0
VERTEX
  8
0
 10
419.798685
 20
563.545596
 42
-0.073748
  0
VERTEX
  8
0
 10
422.266201
 20
566.162689
 42
-0.032433
  0
VERTEX
  8
0
 10
426.197442
 20
568.868005
 42
-0.032436
  0
VERTEX
  8
0
 10
430.446737
 20
571.042787
 42
-0.073533
  0
VERTEX
  8
0
 10
433.926204
 20
571.973585
 42
0.016428
  0
VERTEX
  8
0
 10
436.499310
 20
572.355743
 42
0.096573
  0
VERTEX
  8
0
 10
437.764632
 20
572.850661
 42
0.157233
  0
VERTEX
  8
0
 10
438.443620
 20
573.667521
 42
0.066522
  0
VERTEX
  8
0
 10
438.798576
 20
575.065060
 42
0.195987
  0
VERTEX
  8
0
 10
437.690826
 20
579.049238
 42
0.127408
  0
VERTEX
  8
0
 10
433.863113
 20
582.014371
 42
0.114156
  0
VERTEX
  8
0
 10
428.710333
 20
582.943040
 42
0.141431
  0
VERTEX
  8
0
 10
424.117681
 20
581.369873
 42
-0.003074
  0
VERTEX
  8
0
 10
422.515159
 20
580.262045
 42
-0.310814
  0
VERTEX
  8
0
 10
422.256738
 20
580.263073
 42
-0.374126
  0
VERTEX
  8
0
 10
422.198963
 20
580.491131
 42
-0.003644
  0
VERTEX
  8
0
 10
423.036957
 20
582.119873
 42
-0.011641
  0
VERTEX
  8
0
 10
423.646929
 20
583.221313
 42
-0.005896
  0
VERTEX
  8
0
 10
424.463226
 20
584.580559
 42
-0.005853
  0
VERTEX
  8
0
 10
425.339347
 20
585.964669
 42
-0.008685
  0
VERTEX
  8
0
 10
426.141783
 20
587.154370
 42
0.033578
  0
VERTEX
  8
0
 10
426.853105
 20
588.331310
 42
0.027552
  0
VERTEX
  8
0
 10
427.454149
 20
589.672112
 42
0.028395
  0
VERTEX
  8
0
 10
427.869456
 20
590.970624
 42
0.063279
  0
VERTEX
  8
0
 10
428.000000
 20
591.997990
 42
-0.073222
  0
VERTEX
  8
0
 10
428.139622
 20
592.946291
 42
-0.088481
  0
VERTEX
  8
0
 10
428.545672
 20
593.747899
 42
-0.089807
  0
VERTEX
  8
0
 10
429.198001
 20
594.351101
 42
-0.078002
  0
VERTEX
  8
0
 10
430.052469
 20
594.723972
 42
0.068259
  0
VERTEX
  8
0
 10
430.945329
 20
595.093164
 42
0.115478
  0
VERTEX
  8
0
 10
431.530094
 20
595.647097
 42
0.114774
  0
VERTEX
  8
0
 10
431.810415
 20
596.405645
 42
0.066894
  0
VERTEX
  8
0
 10
431.802469
 20
597.380352
 42
0.090618
  0
VERTEX
  8
0
 10
431.448618
 20
598.439318
 42
0.135757
  0
VERTEX
  8
0
 10
430.771708
 20
599.133099
 42
0.088370
  0
VERTEX
  8
0
 10
429.602541
 20
599.561948
 42
0.023371
  0
VERTEX
  8
0
 10
427.621357
 20
599.818035
 42
0.050184
  0
VERTEX
  8
0
 10
424.126495
 20
599.753474
 42
0.070104
  0
VERTEX
  8
0
 10
421.109114
 20
598.954878
 42
0.077324
  0
VERTEX
  8
0
 10
418.651601
 20
597.437820
 42
0.079674
  0
VERTEX
  8
0
 10
416.800341
 20
595.259408
 42
-0.045587
  0
VERTEX
  8
0
 10
415.736660
 20
593.820252
 42
-0.118370
  0
VERTEX
  8
0
 10
414.685235
 20
593.089213
 42
-0.089417
  0
VERTEX
  8
0
 10
413.234953
 20
592.804950
 42
-0.019155
  0
VERTEX
  8
0
 10
410.660447
 20
592.864463
 42
0.068421
  0
VERTEX
  8
0
 10
406.618160
 20
592.559866
 42
0.159475
  0
VERTEX
  8
0
 10
404.026545
 20
591.047912
 42
0.122535
  0
VERTEX
  8
0
 10
402.417223
 20
587.975689
 42
0.033009
  0
VERTEX
  8
0
 10
401.464566
 20
582.513714
 42
-0.009216
  0
VERTEX
  8
0
 10
401.075576
 20
579.420939
 42
-0.041587
  0
VERTEX
  8
0
 10
400.666766
 20
577.648434
 42
-0.128078
  0
VERTEX
  8
0
 10
400.202652
 20
576.915626
 42
-0.404307
  0
VERTEX
  8
0
 10
399.675426
 20
576.924574
 42
0.163855
  0
VERTEX
  8
0
 10
397.829362
 20
577.840526
 42
0.048952
  0
VERTEX
  8
0
 10
394.645497
 20
577.961333
 42
0.049192
  0
VERTEX
  8
0
 10
391.437510
 20
577.449533
 42
0.132998
  0
VERTEX
  8
0
 10
389.454451
 20
576.311594
 42
0.076803
  0
VERTEX
  8
0
 10
388.665235
 20
575.233911
 42
0.077144
  0
VERTEX
  8
0
 10
388.239603
 20
573.969902
 42
0.054066
  0
VERTEX
  8
0
 10
388.133542
 20
572.283095
 42
0.018165
  0
VERTEX
  8
0
 10
388.334798
 20
569.820969
 42
-0.040327
  0
VERTEX
  8
0
 10
388.464615
 20
566.339927
 42
-0.188468
  0
VERTEX
  8
0
 10
387.669005
 20
564.538540
 42
-0.139029
  0
VERTEX
  8
0
 10
385.694868
 20
563.444528
 42
-0.018796
  0
VERTEX
  8
0
 10
381.000000
 20
562.531065
 42
0.021736
  0
VERTEX
  8
0
 10
379.021831
 20
562.134100
 42
0.014484
  0
VERTEX
  8
0
 10
376.793750
 20
561.516327
 42
0.014596
  0
VERTEX
  8
0
 10
374.663281
 20
560.789852
 42
0.027524
  0
VERTEX
  8
0
 10
373.000000
 20
560.061293
 42
0.000000
  0
VERTEX
  8
0
 10
369.500000
 20
558.292716
 42
0.000000
  0
VERTEX
  8
0
 10
369.500000
 20
568.396358
 42
0.007447
  0
VERTEX
  8
0
 10
369.414138
 20
574.160945
 42
0.034230
  0
VERTEX
  8
0
 10
369.086539
 20
577.485542
 42
0.052280
  0
VERTEX
  8
0
 10
368.382637
 20
580.017898
 42
0.036177
  0
VERTEX
  8
0
 10
367.093904
 20
582.700101
 42
-0.022998
  0
VERTEX
  8
0
 10
365.710751
 20
585.394656
 42
-0.081433
  0
VERTEX
  8
0
 10
365.201906
 20
587.264137
 42
-0.062172
  0
VERTEX
  8
0
 10
365.247630
 20
589.447014
 42
-0.009750
  0
VERTEX
  8
0
 10
365.954201
 20
593.700101
 42
0.002791
  0
VERTEX
  8
0
 10
366.476939
 20
596.596694
 42
0.002333
  0
VERTEX
  8
0
 10
367.000382
 20
599.677530
 42
0.002354
  0
VERTEX
  8
0
 10
367.452702
 20
602.499705
 42
0.006436
  0
VERTEX
  8
0
 10
367.737328
 20
604.500000
 42
-0.032705
  0
VERTEX
  8
0
 10
368.072297
 20
606.206208
 42
-0.024728
  0
VERTEX
  8
0
 10
368.652456
 20
608.025552
 42
-0.025242
  0
VERTEX
  8
0
 10
369.371455
 20
609.686140
 42
-0.051713
  0
VERTEX
  8
0
 10
370.127031
 20
610.884859
 42
0.017045
  0
VERTEX
  8
0
 10
370.844089
 20
611.864898
 42
0.020284
  0
VERTEX
  8
0
 10
371.449815
 20
612.837490
 42
0.019515
  0
VERTEX
  8
0
 10
371.889586
 20
613.687546
 42
0.110041
  0
VERTEX
  8
0
 10
372.000000
 20
614.183165
 42
-0.085883
  0
VERTEX
  8
0
 10
372.096716
 20
614.742081
 42
-0.008373
  0
VERTEX
  8
0
 10
372.580875
 20
616.030560
 42
-0.010413
  0
VERTEX
  8
0
 10
373.220156
 20
617.555305
 42
-0.008061
  0
VERTEX
  8
0
 10
373.977447
 20
619.189456
 42
0.051145
  0
VERTEX
  8
0
 10
376.645270
 20
626.546527
 42
0.053580
  0
VERTEX
  8
0
 10
377.709786
 20
634.176991
 42
0.050323
  0
VERTEX
  8
0
 10
377.150597
 20
642.267738
 42
0.036964
  0
VERTEX
  8
0
 10
374.981617
 20
651.000000
 42
-0.022986
  0
VERTEX
  8
0
 10
374.129375
 20
654.062818
 42
-0.012038
  0
VERTEX
  8
0
 10
373.337852
 20
657.940625
 42
-0.011949
  0
VERTEX
  8
0
 10
372.715985
 20
661.963202
 42
-0.017926
  0
VERTEX
  8
0
 10
372.383843
 20
665.500000
 42
0.015583
  0
VERTEX
  8
0
 10
371.692956
 20
673.246573
 42
0.010445
  0
VERTEX
  8
0
 10
370.442980
 20
682.052639
 42
0.009558
  0
VERTEX
  8
0
 10
368.677473
 20
691.699646
 42
0.007694
  0
VERTEX
  8
0
 10
366.422614
 20
702.000000
 42
-0.009596
  0
VERTEX
  8
0
 10
365.479346
 20
706.388743
 42
-0.009076
  0
VERTEX
  8
0
 10
364.685996
 20
710.892451
 42
-0.009069
  0
VERTEX
  8
0
 10
364.128628
 20
714.903408
 42
-0.031135
  0
VERTEX
  8
0
 10
363.977076
 20
717.527494
 42
0.066247
  0
VERTEX
  8
0
 10
363.354326
 20
722.376046
 42
0.090559
  0
VERTEX
  8
0
 10
361.480294
 20
726.349855
 42
0.080965
  0
VERTEX
  8
0
 10
358.135888
 20
729.711215
 42
0.042995
  0
VERTEX
  8
0
 10
353.086403
 20
732.740857
 42
0.050558
  0
VERTEX
  8
0
 10
348.905208
 20
734.283455
 42
0.059030
  0
VERTEX
  8
0
 10
344.713415
 20
734.850635
 42
0.061679
  0
VERTEX
  8
0
 10
340.663846
 20
734.417167
 42
0.064183
  0
SEQEND
  0
POLYLINE
  8
0
 66
1
 70
1
  0
VERTEX
  8
0
 10
340.000000
 20
714.000000
 42
-0.042167
  0
VERTEX
  8
0
 10
339.967655
 20
713.617151
 42
-0.061769
  0
VERTEX
  8
0
 10
339.870461
 20
713.293750
 42
-0.081139
  0
VERTEX
  8
0
 10
339.727648
 20
713.074460
 42
-0.210953
  0
VERTEX
  8
0
 10
339.559017
 20
713.000000
 42
-0.151918
  0
VERTEX
  8
0
 10
339.348290
 20
713.065539
 42
-0.038439
  0
VERTEX
  8
0
 10
339.066025
 20
713.293750
 42
-0.035638
  0
VERTEX
  8
0
 10
338.768994
 20
713.617226
 42
-0.029505
  0
VERTEX
  8
0
 10
338.500000
 20
714.000000
 42
-0.082592
  0
VERTEX
  8
0
 10
338.343488
 20
714.382100
 42
-0.161196
  0
VERTEX
  8
0
 10
338.374600
 20
714.706250
 42
-0.182303
  0
VERTEX
  8
0
 10
338.586039
 20
714.921712
 42
-0.108972
  0
VERTEX
  8
0
 10
338.940983
 20
715.000000
 42
-0.093332
  0
VERTEX
  8
0
 10
339.345238
 20
714.923877
 42
-0.096420
  0
VERTEX
  8
0
 10
339.688914
 20
714.706250
 42
-0.099167
  0
VERTEX
  8
0
 10
339.918938
 20
714.381556
 42
-0.105053
  0
SEQEND
  0
POLYLINE
  8
0
 66
1
 70
1
  0
VERTEX
  8
0
 10
356.343751
 20
701.500000
 42
-0.006223
  0
VERTEX
  8
0
 10
356.599071
 20
699.670501
 42
-0.068523
  0
VERTEX
  8
0
 10
356.591229
 20
698.931864
 42
-0.669598
  0
VERTEX
  8
0
 10
356.406242
 20
698.885949
 42
-0.052205
  0
VERTEX
  8
0
 10
356.046696
 20
699.500000
 42
-0.056746
  0
VERTEX
  8
0
 10
355.478019
 20
701.262980
 42
-0.023299
  0
VERTEX
  8
0
 10
355.096812
 20
703.750417
 42
-0.027799
  0
VERTEX
  8
0
 10
354.995588
 20
705.777400
 42
-0.689044
  0
VERTEX
  8
0
 10
355.367340
 20
705.916667
 42
-0.120459
  0
VERTEX
  8
0
 10
355.537148
 20
705.592716
 42
-0.006366
  0
VERTEX
  8
0
 10
355.805689
 20
704.447396
 42
-0.009719
  0
VERTEX
  8
0
 10
356.083699
 20
703.062683
 42
-0.006898
  0
SEQEND
  0
POLYLINE
  8
0
 66
1
 70
1
  0
VERTEX
  8
0
 10
335.984687
 20
682.750000
 42
-0.133323
  0
VERTEX
  8
0
 10
335.913292
 20
682.464042
 42
-0.102891
  0
VERTEX
  8
0
 10
335.701752
 20
682.220312
 42
-0.089496
  0
VERTEX
  8
0
 10
335.380956
 20
682.056386
 42
-0.073605
  0
VERTEX
  8
0
 10
335.000000
 20
682.000000
 42
-0.210568
  0
VERTEX
  8
0
 10
334.618823
 20
682.167975
 42
-0.082215
  0
VERTEX
  8
0
 10
334.298248
 20
682.660938
 42
-0.062416
  0
VERTEX
  8
0
 10
334.082804
 20
683.388595
 42
-0.042523
  0
VERTEX
  8
0
 10
334.015313
 20
684.250000
 42
-0.011293
  0
VERTEX
  8
0
 10
334.050422
 20
685.444209
 42
-0.220444
  0
VERTEX
  8
0
 10
334.218347
 20
685.762149
 42
-0.409657
  0
VERTEX
  8
0
 10
334.479509
 20
685.728886
 42
-0.023197
  0
VERTEX
  8
0
 10
335.000000
 20
685.000000
 42
-0.019837
  0
VERTEX
  8
0
 10
335.372171
 20
684.370687
 42
-0.020470
  0
VERTEX
  8
0
 10
335.689119
 20
683.720312
 42
-0.020703
  0
VERTEX
  8
0
 10
335.916329
 20
683.136466
 42
-0.077483
  0
SEQEND
  0
POLYLINE
  8
0
 66
1
 70
1
  0
VERTEX
  8
0
 10
332.903127
 20
670.566667
 42
-0.115775
  0
VERTEX
  8
0
 10
332.092188
 20
670.023583
 42
-0.385595
  0
VERTEX
  8
0
 10
331.545801
 20
670.239589
 42
-0.146478
  0
VERTEX
  8
0
 10
331.374413
 20
671.253981
 42
-0.033079
  0
VERTEX
  8
0
 10
331.707667
 20
672.990119
 42
-0.006279
  0
VERTEX
  8
0
 10
332.119191
 20
674.486752
 42
-0.245570
  0
VERTEX
  8
0
 10
332.349781
 20
674.728151
 42
-0.393741
  0
VERTEX
  8
0
 10
332.592571
 20
674.618703
 42
-0.010872
  0
VERTEX
  8
0
 10
333.054464
 20
673.446448
 42
-0.050410
  0
VERTEX
  8
0
 10
333.264740
 20
672.632671
 42
-0.051203
  0
VERTEX
  8
0
 10
333.306372
 20
671.797603
 42
-0.056273
  0
VERTEX
  8
0
 10
333.184473
 20
671.065229
 42
-0.118757
  0
SEQEND
  0
POLYLINE
  8
0
 66
1
 70
1
  0
VERTEX
  8
0
 10
338.683114
 20
671.812500
 42
-0.054073
  0
VERTEX
  8
0
 10
338.461564
 20
671.395823
 42
-0.470617
  0
VERTEX
  8
0
 10
338.279315
 20
671.378580
 42
-0.168741
  0
VERTEX
  8
0
 10
338.137993
 20
671.670344
 42
-0.018894
  0
VERTEX
  8
0
 10
338.078947
 20
672.416667
 42
-0.028489
  0
VERTEX
  8
0
 10
338.089945
 20
673.112848
 42
-0.077125
  0
VERTEX
  8
0
 10
338.200665
 20
673.592839
 42
-0.208169
  0
VERTEX
  8
0
 10
338.385309
 20
673.775380
 42
-0.296942
  0
VERTEX
  8
0
 10
338.604167
 20
673.729167
 42
-0.126455
  0
VERTEX
  8
0
 10
338.797407
 20
673.402231
 42
-0.060344
  0
VERTEX
  8
0
 10
338.876576
 20
672.916927
 42
-0.054150
  0
VERTEX
  8
0
 10
338.839148
 20
672.359369
 42
-0.051402
  0
SEQEND
  0
POLYLINE
  8
0
 66
1
 70
1
  0
VERTEX
  8
0
 10
347.500000
 20
573.000000
 42
-0.082592
  0
VERTEX
  8
0
 10
347.656512
 20
572.617900
 42
-0.161196
  0
VERTEX
  8
0
 10
347.625400
 20
572.293750
 42
-0.182303
  0
VERTEX
  8
0
 10
347.413961
 20
572.078288
 42
-0.108972
  0
VERTEX
  8
0
 10
347.059017
 20
572.000000
 42
-0.093332
  0
VERTEX
  8
0
 10
346.654762
 20
572.076123
 42
-0.096420
  0
VERTEX
  8
0
 10
346.311086
 20
572.293750
 42
-0.099167
  0
VERTEX
  8
0
 10
346.081062
 20
572.618444
 42
-0.105053
  0
VERTEX
  8
0
 10
346.000000
 20
573.000000
 42
-0.042167
  0
VERTEX
  8
0
 10
346.032345
 20
573.382849
 42
-0.061769
  0
VERTEX
  8
0
 10
346.129539
 20
573.706250
 42
-0.081139
  0
VERTEX
  8
0
 10
346.272352
 20
573.925540
 42
-0.210953
  0
VERTEX
  8
0
 10
346.440983
 20
574.000000
 42
-0.151918
  0
VERTEX
  8
0
 10
346.651710
 20
573.934461
 42
-0.038439
  0
VERTEX
  8
0
 10
346.933975
 20
573.706250
 42
-0.035638
  0
VERTEX
  8
0
 10
347.231006
 20
573.382774
 42
-0.029505
  0
SEQEND
  0
POLYLINE
  8
0
 66
1
 70
1
  0
VERTEX
  8
0
 10
376.279377
 20
553.960337
 42
-0.027385
  0
VERTEX
  8
0
 10
376.039435
 20
553.212661
 42
-0.055867
  0
VERTEX
  8
0
 10
375.756817
 20
552.665682
 42
-0.101575
  0
VERTEX
  8
0
 10
375.481100
 20
552.393026
 42
-0.354513
  0
VERTEX
  8
0
 10
375.249458
 20
552.417209
 42
-0.237878
  0
VERTEX
  8
0
 10
375.033848
 20
553.071508
 42
-0.038928
  0
VERTEX
  8
0
 10
375.342749
 20
554.411477
 42
-0.038580
  0
VERTEX
  8
0
 10
375.848821
 20
555.672980
 42
-0.285434
  0
VERTEX
  8
0
 10
376.374996
 20
556.000000
 42
-0.382544
  0
VERTEX
  8
0
 10
376.512617
 20
555.876657
 42
-0.039062
  0
VERTEX
  8
0
 10
376.527486
 20
555.400849
 42
-0.033279
  0
VERTEX
  8
0
 10
376.452526
 20
554.742548
 42
-0.018968
  0
SEQEND
  0
POLYLINE
  8
0
 66
1
 70
1
  0
VERTEX
  8
0
 10
368.580357
 20
548.437500
 42
-0.027929
  0
VERTEX
  8
0
 10
367.431463
 20
547.410254
 42
-0.555384
  0
VERTEX
  8
0
 10
367.065441
 20
547.539821
 42
-0.167187
  0
VERTEX
  8
0
 10
367.154379
 20
548.312010
 42
-0.011355
  0
VERTEX
  8
0
 10
368.167554
 20
550.313078
 42
-0.028651
  0
VERTEX
  8
0
 10
368.681854
 20
551.154407
 42
-0.107094
  0
VERTEX
  8
0
 10
369.132182
 20
551.575154
 42
-0.272049
  0
VERTEX
  8
0
 10
369.485913
 20
551.577572
 42
-0.183168
  0
VERTEX
  8
0
 10
369.747912
 20
551.256265
 42
-0.123774
  0
VERTEX
  8
0
 10
369.792407
 20
550.667691
 42
-0.055520
  0
VERTEX
  8
0
 10
369.575224
 20
549.917410
 42
-0.050181
  0
VERTEX
  8
0
 10
369.154285
 20
549.133846
 42
-0.048074
  0
SEQEND
  0
POLYLINE
  8
0
 66
1
 70
1
  0
VERTEX
  8
0
 10
318.324657
 20
517.342009
 42
-0.177626
  0
VERTEX
  8
0
 10
318.489554
 20
516.986049
 42
-0.080603
  0
VERTEX
  8
0
 10
318.448638
 20
516.466755
 42
-0.064741
  0
VERTEX
  8
0
 10
318.217929
 20
515.869793
 42
-0.048696
  0
VERTEX
  8
0
 10
317.822733
 20
515.286406
 42
0.146697
  0
VERTEX
  8
0
 10
316.673636
 20
512.579163
 42
0.016501
  0
VERTEX
  8
0
 10
316.153554
 20
505.846134
 42
0.012142
  0
VERTEX
  8
0
 10
316.018659
 20
499.036767
 42
0.412903
  0
VERTEX
  8
0
 10
317.060076
 20
498.000000
 42
-0.250838
  0
VERTEX
  8
0
 10
317.392767
 20
497.821890
 42
-0.253121
  0
VERTEX
  8
0
 10
317.427267
 20
497.447539
 42
-0.081782
  0
VERTEX
  8
0
 10
317.021648
 20
496.810701
 42
-0.022614
  0
VERTEX
  8
0
 10
316.188561
 20
495.961045
 42
0.056603
  0
VERTEX
  8
0
 10
315.280680
 20
494.899834
 42
0.048506
  0
VERTEX
  8
0
 10
314.578419
 20
493.607191
 42
0.047614
  0
VERTEX
  8
0
 10
314.127490
 20
492.177734
 42
0.049873
  0
VERTEX
  8
0
 10
313.964378
 20
490.711045
 42
-0.040748
  0
VERTEX
  8
0
 10
313.652929
 20
487.355257
 42
-0.010521
  0
VERTEX
  8
0
 10
312.598703
 20
482.018692
 42
-0.006047
  0
VERTEX
  8
0
 10
311.343236
 20
476.612185
 42
-0.137134
  0
VERTEX
  8
0
 10
310.567042
 20
475.233709
 42
-0.364768
  0
VERTEX
  8
0
 10
309.835852
 20
475.170775
 42
-0.243042
  0
VERTEX
  8
0
 10
309.425334
 20
475.958774
 42
-0.051360
  0
VERTEX
  8
0
 10
309.663402
 20
478.350952
 42
-0.013197
  0
VERTEX
  8
0
 10
310.543307
 20
482.139377
 42
0.023356
  0
VERTEX
  8
0
 10
311.663818
 20
487.451040
 42
0.002315
  0
VERTEX
  8
0
 10
313.695839
 20
500.323062
 42
0.001905
  0
VERTEX
  8
0
 10
315.647160
 20
513.399523
 42
0.032157
  0
VERTEX
  8
0
 10
315.996066
 20
517.750000
 42
-0.380931
  0
VERTEX
  8
0
 10
316.228935
 20
518.003169
 42
-0.068273
  0
VERTEX
  8
0
 10
316.926801
 20
517.977255
 42
-0.057028
  0
VERTEX
  8
0
 10
317.738452
 20
517.737362
 42
-0.096317
  0
SEQEND
  0
POLYLINE
  8
0
 66
1
 70
1
  0
VERTEX
  8
0
 10
311.000000
 20
470.581787
 42
-0.065182
  0
VERTEX
  8
0
 10
310.967516
 20
470.333672
 42
-0.008575
  0
VERTEX
  8
0
 10
310.821697
 20
469.821775
 42
-0.009838
  0
VERTEX
  8
0
 10
310.625425
 20
469.218074
 42
-0.008099
  0
VERTEX
  8
0
 10
310.393011
 20
468.581787
 42
-0.112246
  0
VERTEX
  8
0
 10
309.562773
 20
467.341708
 42
-0.232013
  0
VERTEX
  8
0
 10
308.476134
 20
467.004005
 42
-0.290690
  0
VERTEX
  8
0
 10
307.729557
 20
467.659374
 42
-0.135917
  0
VERTEX
  8
0
 10
307.710251
 20
469.000000
 42
-0.131059
  0
VERTEX
  8
0
 10
308.332136
 20
470.095244
 42
-0.086607
  0
VERTEX
  8
0
 10
309.515727
 20
470.941956
 42
-0.146496
  0
VERTEX
  8
0
 10
310.542611
 20
471.104793
 42
-0.375586
  0
SEQEND
  0
POLYLINE
  8
0
 66
1
 70
1
  0
VERTEX
  8
0
 10
307.588397
 20
459.255064
 42
-0.196036
  0
VERTEX
  8
0
 10
306.935423
 20
458.980347
 42
-0.314698
  0
VERTEX
  8
0
 10
306.456234
 20
459.307262
 42
-0.128559
  0
VERTEX
  8
0
 10
306.349074
 20
460.308598
 42
-0.056398
  0
VERTEX
  8
0
 10
306.696917
 20
461.606872
 42
-0.005261
  0
VERTEX
  8
0
 10
307.192360
 20
462.829600
 42
-0.286752
  0
VERTEX
  8
0
 10
307.387121
 20
462.967698
 42
-0.365890
  0
VERTEX
  8
0
 10
307.556938
 20
462.840400
 42
-0.006855
  0
VERTEX
  8
0
 10
307.808853
 20
461.671731
 42
-0.034132
  0
VERTEX
  8
0
 10
307.906270
 20
460.928682
 42
-0.038293
  0
VERTEX
  8
0
 10
307.895870
 20
460.207674
 42
-0.041660
  0
VERTEX
  8
0
 10
307.789937
 20
459.605874
 42
-0.132742
  0
SEQEND
  0
POLYLINE
  8
0
 66
1
 70
1
  0
VERTEX
  8
0
 10
304.506363
 20
447.348539
 42
0.000956
  0
VERTEX
  8
0
 10
303.777216
 20
444.675646
 42
0.000551
  0
VERTEX
  8
0
 10
302.909208
 20
441.455508
 42
0.000551
  0
VERTEX
  8
0
 10
302.044939
 20
438.220877
 42
0.000923
  0
VERTEX
  8
0
 10
301.326531
 20
435.500000
 42
-0.011430
  0
VERTEX
  8
0
 10
300.636560
 20
433.092916
 42
-0.012997
  0
VERTEX
  8
0
 10
299.863724
 20
430.821875
 42
-0.012233
  0
VERTEX
  8
0
 10
299.113123
 20
428.934204
 42
-0.067996
  0
VERTEX
  8
0
 10
298.554768
 20
428.000000
 42
0.052612
  0
VERTEX
  8
0
 10
298.001060
 20
427.134939
 42
0.013266
  0
VERTEX
  8
0
 10
297.291500
 20
425.618750
 42
0.013390
  0
VERTEX
  8
0
 10
296.569034
 20
423.832797
 42
0.013150
  0
VERTEX
  8
0
 10
295.938541
 20
422.000000
 42
-0.011131
  0
VERTEX
  8
0
 10
295.267902
 20
420.024601
 42
-0.007553
  0
VERTEX
  8
0
 10
294.420653
 20
417.805076
 42
-0.007613
  0
VERTEX
  8
0
 10
293.537038
 20
415.685563
 42
-0.015095
  0
VERTEX
  8
0
 10
292.760855
 20
414.038558
 42
0.027703
  0
VERTEX
  8
0
 10
292.086604
 20
412.509030
 42
0.021300
  0
VERTEX
  8
0
 10
291.517251
 20
410.774776
 42
0.021729
  0
VERTEX
  8
0
 10
291.123719
 20
409.102838
 42
0.046963
  0
VERTEX
  8
0
 10
291.000000
 20
407.788558
 42
-0.035663
  0
VERTEX
  8
0
 10
290.902115
 20
406.417935
 42
-0.121694
  0
VERTEX
  8
0
 10
290.568874
 20
405.595063
 42
-0.160537
  0
VERTEX
  8
0
 10
289.953608
 20
405.150733
 42
-0.076926
  0
VERTEX
  8
0
 10
288.979676
 20
405.000000
 42
-0.042847
  0
VERTEX
  8
0
 10
287.792231
 20
405.101944
 42
-0.354176
  0
VERTEX
  8
0
 10
287.460049
 20
405.481655
 42
-0.120934
  0
VERTEX
  8
0
 10
287.618197
 20
406.250966
 42
-0.005207
  0
VERTEX
  8
0
 10
288.837284
 20
408.750000
 42
0.026079
  0
VERTEX
  8
0
 10
292.211746
 20
416.469036
 42
0.007114
  0
VERTEX
  8
0
 10
296.721042
 20
428.987194
 42
0.007526
  0
VERTEX
  8
0
 10
301.089556
 20
442.327151
 42
0.013272
  0
VERTEX
  8
0
 10
304.236089
 20
453.484520
 42
-0.004985
  0
VERTEX
  8
0
 10
304.928427
 20
456.104979
 42
-0.080484
  0
VERTEX
  8
0
 10
305.307115
 20
456.933107
 42
-0.635117
  0
VERTEX
  8
0
 10
305.590070
 20
456.890226
 42
-0.043227
  0
VERTEX
  8
0
 10
305.806914
 20
455.833059
 42
-0.052607
  0
VERTEX
  8
0
 10
305.821975
 20
454.437613
 42
-0.014445
  0
VERTEX
  8
0
 10
305.551479
 20
452.253389
 42
-0.014432
  0
VERTEX
  8
0
 10
305.099123
 20
449.781030
 42
-0.014601
  0
SEQEND
  0
POLYLINE
  8
0
 66
1
 70
1
  0
VERTEX
  8
0
 10
284.835219
 20
397.096123
 42
-0.016275
  0
VERTEX
  8
0
 10
283.852059
 20
394.770640
 42
-0.024058
  0
VERTEX
  8
0
 10
282.828249
 20
392.807155
 42
-0.021187
  0
VERTEX
  8
0
 10
281.878131
 20
391.328467
 42
-0.240816
  0
VERTEX
  8
0
 10
281.282224
 20
391.014676
 42
-0.325963
  0
VERTEX
  8
0
 10
280.715200
 20
391.417902
 42
-0.161038
  0
VERTEX
  8
0
 10
280.712309
 20
392.349394
 42
-0.035447
  0
VERTEX
  8
0
 10
281.537320
 20
394.373149
 42
-0.003253
  0
VERTEX
  8
0
 10
283.969741
 20
399.228060
 42
-0.007157
  0
VERTEX
  8
0
 10
286.158203
 20
403.378003
 42
-0.632662
  0
VERTEX
  8
0
 10
286.697064
 20
403.347264
 42
-0.185353
  0
VERTEX
  8
0
 10
286.720059
 20
402.142632
 42
-0.004995
  0
SEQEND
  0
POLYLINE
  8
0
 66
1
 70
1
  0
VERTEX
  8
0
 10
218.000000
 20
292.559017
 42
-0.151918
  0
VERTEX
  8
0
 10
217.934461
 20
292.348290
 42
-0.038439
  0
VERTEX
  8
0
 10
217.706250
 20
292.066025
 42
-0.035638
  0
VERTEX
  8
0
 10
217.382774
 20
291.768994
 42
-0.029505
  0
VERTEX
  8
0
 10
217.000000
 20
291.500000
 42
-0.082592
  0
VERTEX
  8
0
 10
216.617900
 20
291.343488
 42
-0.161196
  0
VERTEX
  8
0
 10
216.293750
 20
291.374600
 42
-0.182303
  0
VERTEX
  8
0
 10
216.078288
 20
291.586039
 42
-0.108972
  0
VERTEX
  8
0
 10
216.000000
 20
291.940983
 42
-0.093332
  0
VERTEX
  8
0
 10
216.076123
 20
292.345238
 42
-0.096420
  0
VERTEX
  8
0
 10
216.293750
 20
292.688914
 42
-0.099167
  0
VERTEX
  8
0
 10
216.618444
 20
292.918938
 42
-0.105053
  0
VERTEX
  8
0
 10
217.000000
 20
293.000000
 42
-0.042167
  0
VERTEX
  8
0
 10
217.382849
 20
292.967655
 42
-0.061769
  0
VERTEX
  8
0
 10
217.706250
 20
292.870461
 42
-0.081139
  0
VERTEX
  8
0
 10
217.925540
 20
292.727648
 42
-0.210953
  0
SEQEND
  0
POLYLINE
  8
0
 66
1
 70
1
  0
VERTEX
  8
0
 10
212.984687
 20
285.690983
 42
-0.157323
  0
VERTEX
  8
0
 10
212.907599
 20
285.435603
 42
-0.195945
  0
VERTEX
  8
0
 10
212.701752
 20
285.301162
 42
-0.128516
  0
VERTEX
  8
0
 10
212.382147
 20
285.321663
 42
-0.058538
  0
VERTEX
  8
0
 10
212.000000
 20
285.500000
 42
-0.101161
  0
VERTEX
  8
0
 10
211.617978
 20
285.859627
 42
-0.052761
  0
VERTEX
  8
0
 10
211.298248
 20
286.433213
 42
-0.049393
  0
VERTEX
  8
0
 10
211.083635
 20
287.116349
 42
-0.053738
  0
VERTEX
  8
0
 10
211.015313
 20
287.809017
 42
-0.012098
  0
VERTEX
  8
0
 10
211.046994
 20
288.761472
 42
-0.343021
  0
VERTEX
  8
0
 10
211.199331
 20
288.935744
 42
-0.295079
  0
VERTEX
  8
0
 10
211.430616
 20
288.842749
 42
-0.010223
  0
VERTEX
  8
0
 10
212.000000
 20
288.000000
 42
-0.021347
  0
VERTEX
  8
0
 10
212.372163
 20
287.366342
 42
-0.021318
  0
VERTEX
  8
0
 10
212.689119
 20
286.702976
 42
-0.021733
  0
VERTEX
  8
0
 10
212.915238
 20
286.101584
 42
-0.074451
  0
SEQEND
  0
POLYLINE
  8
0
 66
1
 70
1
  0
VERTEX
  8
0
 10
188.000000
 20
284.000000
 42
-0.105053
  0
VERTEX
  8
0
 10
187.918938
 20
283.618444
 42
-0.099167
  0
VERTEX
  8
0
 10
187.688914
 20
283.293750
 42
-0.096420
  0
VERTEX
  8
0
 10
187.345238
 20
283.076123
 42
-0.093332
  0
VERTEX
  8
0
 10
186.940983
 20
283.000000
 42
-0.108972
  0
VERTEX
  8
0
 10
186.586039
 20
283.078288
 42
-0.182303
  0
VERTEX
  8
0
 10
186.374600
 20
283.293750
 42
-0.161196
  0
VERTEX
  8
0
 10
186.343488
 20
283.617900
 42
-0.082592
  0
VERTEX
  8
0
 10
186.500000
 20
284.000000
 42
-0.029505
  0
VERTEX
  8
0
 10
186.768994
 20
284.382774
 42
-0.035638
  0
VERTEX
  8
0
 10
187.066025
 20
284.706250
 42
-0.038439
  0
VERTEX
  8
0
 10
187.348290
 20
284.934461
 42
-0.151918
  0
VERTEX
  8
0
 10
187.559017
 20
285.000000
 42
-0.210953
  0
VERTEX
  8
0
 10
187.727648
 20
284.925540
 42
-0.081139
  0
VERTEX
  8
0
 10
187.870461
 20
284.706250
 42
-0.061769
  0
VERTEX
  8
0
 10
187.967655
 20
284.382849
 42
-0.042167
  0
SEQEND
  0
POLYLINE
  8
0
 66
1
 70
1
  0
VERTEX
  8
0
 10
205.000000
 20
281.000000
 42
-0.099038
  0
VERTEX
  8
0
 10
204.923658
 20
280.618362
 42
-0.097945
  0
VERTEX
  8
0
 10
204.706250
 20
280.293750
 42
-0.097945
  0
VERTEX
  8
0
 10
204.381638
 20
280.076342
 42
-0.099038
  0
VERTEX
  8
0
 10
204.000000
 20
280.000000
 42
-0.099038
  0
VERTEX
  8
0
 10
203.618362
 20
280.076342
 42
-0.097945
  0
VERTEX
  8
0
 10
203.293750
 20
280.293750
 42
-0.097945
  0
VERTEX
  8
0
 10
203.076342
 20
280.618362
 42
-0.099038
  0
VERTEX
  8
0
 10
203.000000
 20
281.000000
 42
-0.099038
  0
VERTEX
  8
0
 10
203.076342
 20
281.381638
 42
-0.097945
  0
VERTEX
  8
0
 10
203.293750
 20
281.706250
 42
-0.097945
  0
VERTEX
  8
0
 10
203.618362
 20
281.923658
 42
-0.099038
  0
VERTEX
  8
0
 10
204.000000
 20
282.000000
 42
-0.099038
  0
VERTEX
  8
0
 10
204.381638
 20
281.923658
 42
-0.097945
  0
VERTEX
  8
0
 10
204.706250
 20
281.706250
 42
-0.097945
  0
VERTEX
  8
0
 10
204.923658
 20
281.381638
 42
-0.099038
  0
SEQEND
  0
POLYLINE
  8
0
 66
1
 70
1
  0
VERTEX
  8
0
 10
199.000000
 20
272.606989
 42
-0.100912
  0
VERTEX
  8
0
 10
198.882170
 20
272.029105
 42
-0.066819
  0
VERTEX
  8
0
 10
198.535350
 20
271.444872
 42
-0.063449
  0
VERTEX
  8
0
 10
198.022934
 20
270.943098
 42
-0.070559
  0
VERTEX
  8
0
 10
197.418213
 20
270.606989
 42
-0.015787
  0
VERTEX
  8
0
 10
195.917637
 20
270.084881
 42
-0.209457
  0
VERTEX
  8
0
 10
195.348708
 20
270.147531
 42
-0.245206
  0
VERTEX
  8
0
 10
195.060467
 20
270.599963
 42
-0.021585
  0
VERTEX
  8
0
 10
195.000000
 20
272.000000
 42
-0.072254
  0
VERTEX
  8
0
 10
195.126841
 20
272.873159
 42
-0.124864
  0
VERTEX
  8
0
 10
195.500000
 20
273.500000
 42
-0.124864
  0
VERTEX
  8
0
 10
196.126841
 20
273.873159
 42
-0.072254
  0
VERTEX
  8
0
 10
197.000000
 20
274.000000
 42
-0.067898
  0
VERTEX
  8
0
 10
197.764468
 20
273.895707
 42
-0.084500
  0
VERTEX
  8
0
 10
198.412500
 20
273.590803
 42
-0.099710
  0
VERTEX
  8
0
 10
198.845839
 20
273.138200
 42
-0.142170
  0
SEQEND
  0
POLYLINE
  8
0
 66
1
 70
1
  0
VERTEX
  8
0
 10
165.729167
 20
265.395833
 42
-0.126455
  0
VERTEX
  8
0
 10
165.402231
 20
265.202593
 42
-0.060344
  0
VERTEX
  8
0
 10
164.916927
 20
265.123424
 42
-0.054150
  0
VERTEX
  8
0
 10
164.359369
 20
265.160852
 42
-0.051402
  0
VERTEX
  8
0
 10
163.812500
 20
265.316886
 42
-0.054073
  0
VERTEX
  8
0
 10
163.395823
 20
265.538436
 42
-0.470617
  0
VERTEX
  8
0
 10
163.378580
 20
265.720685
 42
-0.168741
  0
VERTEX
  8
0
 10
163.670344
 20
265.862007
 42
-0.018894
  0
VERTEX
  8
0
 10
164.416667
 20
265.921053
 42
-0.028489
  0
VERTEX
  8
0
 10
165.112848
 20
265.910055
 42
-0.077125
  0
VERTEX
  8
0
 10
165.592839
 20
265.799335
 42
-0.208169
  0
VERTEX
  8
0
 10
165.775380
 20
265.614691
 42
-0.296942
  0
SEQEND
  0
POLYLINE
  8
0
 66
1
 70
1
  0
VERTEX
  8
0
 10
156.269032
 20
258.344063
 42
-0.062780
  0
VERTEX
  8
0
 10
155.671085
 20
258.185595
 42
-0.030339
  0
VERTEX
  8
0
 10
154.880008
 20
258.127736
 42
-0.029507
  0
VERTEX
  8
0
 10
154.036634
 20
258.167106
 42
-0.037336
  0
VERTEX
  8
0
 10
153.269032
 20
258.307009
 42
-0.087174
  0
VERTEX
  8
0
 10
152.883358
 20
258.483340
 42
-0.597527
  0
VERTEX
  8
0
 10
152.900903
 20
258.643467
 42
-0.080377
  0
VERTEX
  8
0
 10
153.431793
 20
258.764444
 42
-0.012823
  0
VERTEX
  8
0
 10
154.500000
 20
258.805051
 42
-0.014395
  0
VERTEX
  8
0
 10
155.580113
 20
258.787295
 42
-0.052471
  0
VERTEX
  8
0
 10
156.257153
 20
258.684921
 42
-0.333666
  0
VERTEX
  8
0
 10
156.386009
 20
258.522870
 42
-0.313180
  0
SEQEND
  0
POLYLINE
  8
0
 66
1
 70
1
  0
VERTEX
  8
0
 10
181.250000
 20
257.337719
 42
-0.057986
  0
VERTEX
  8
0
 10
180.679992
 20
257.181385
 42
-0.037979
  0
VERTEX
  8
0
 10
180.000000
 20
257.129660
 42
-0.037979
  0
VERTEX
  8
0
 10
179.320008
 20
257.181385
 42
-0.057986
  0
VERTEX
  8
0
 10
178.750000
 20
257.337719
 42
-0.174857
  0
VERTEX
  8
0
 10
178.540618
 20
257.525001
 42
-0.447206
  0
VERTEX
  8
0
 10
178.601562
 20
257.693942
 42
-0.078554
  0
VERTEX
  8
0
 10
179.108560
 20
257.810911
 42
-0.017491
  0
VERTEX
  8
0
 10
180.000000
 20
257.842105
 42
-0.017491
  0
VERTEX
  8
0
 10
180.891440
 20
257.810911
 42
-0.078554
  0
VERTEX
  8
0
 10
181.398438
 20
257.693942
 42
-0.447206
  0
VERTEX
  8
0
 10
181.459382
 20
257.525001
 42
-0.174857
  0
SEQEND
  0
POLYLINE
  8
0
 66
1
 70
1
  0
VERTEX
  8
0
 10
148.000000
 20
254.571429
 42
-0.195888
  0
VERTEX
  8
0
 10
147.612992
 20
253.621504
 42
-0.043143
  0
VERTEX
  8
0
 10
146.251563
 20
252.449399
 42
-0.042441
  0
VERTEX
  8
0
 10
144.739226
 20
251.543380
 42
-0.257604
  0
VERTEX
  8
0
 10
143.859539
 20
251.586809
 42
-0.215500
  0
VERTEX
  8
0
 10
143.627586
 20
251.931212
 42
-0.142422
  0
VERTEX
  8
0
 10
143.683081
 20
252.412765
 42
-0.087396
  0
VERTEX
  8
0
 10
144.051584
 20
252.985125
 42
-0.043954
  0
VERTEX
  8
0
 10
144.690159
 20
253.564197
 42
-0.027967
  0
VERTEX
  8
0
 10
145.951734
 20
254.414016
 42
-0.060441
  0
VERTEX
  8
0
 10
147.020374
 20
254.886308
 42
-0.124413
  0
VERTEX
  8
0
 10
147.715248
 20
254.919587
 42
-0.356861
  0
SEQEND
  0
POLYLINE
  8
0
 66
1
 70
1
  0
VERTEX
  8
0
 10
139.000000
 20
249.000000
 42
-0.042167
  0
VERTEX
  8
0
 10
138.967655
 20
248.617151
 42
-0.061769
  0
VERTEX
  8
0
 10
138.870461
 20
248.293750
 42
-0.081139
  0
VERTEX
  8
0
 10
138.727648
 20
248.074460
 42
-0.210953
  0
VERTEX
  8
0
 10
138.559017
 20
248.000000
 42
-0.151918
  0
VERTEX
  8
0
 10
138.348290
 20
248.065539
 42
-0.038439
  0
VERTEX
  8
0
 10
138.066025
 20
248.293750
 42
-0.035638
  0
VERTEX
  8
0
 10
137.768994
 20
248.617226
 42
-0.029505
  0
VERTEX
  8
0
 10
137.500000
 20
249.000000
 42
-0.082592
  0
VERTEX
  8
0
 10
137.343488
 20
249.382100
 42
-0.161196
  0
VERTEX
  8
0
 10
137.374600
 20
249.706250
 42
-0.182303
  0
VERTEX
  8
0
 10
137.586039
 20
249.921712
 42
-0.108972
  0
VERTEX
  8
0
 10
137.940983
 20
250.000000
 42
-0.093332
  0
VERTEX
  8
0
 10
138.345238
 20
249.923877
 42
-0.096420
  0
VERTEX
  8
0
 10
138.688914
 20
249.706250
 42
-0.099167
  0
VERTEX
  8
0
 10
138.918938
 20
249.381556
 42
-0.105053
  0
SEQEND
  0
POLYLINE
  8
0
 66
1
 70
1
  0
VERTEX
  8
0
 10
120.500000
 20
221.000000
 42
-0.082592
  0
VERTEX
  8
0
 10
120.656512
 20
220.617900
 42
-0.161196
  0
VERTEX
  8
0
 10
120.625400
 20
220.293750
 42
-0.182303
  0
VERTEX
  8
0
 10
120.413961
 20
220.078288
 42
-0.108972
  0
VERTEX
  8
0
 10
120.059017
 20
220.000000
 42
-0.093332
  0
VERTEX
  8
0
 10
119.654762
 20
220.076123
 42
-0.096420
  0
VERTEX
  8
0
 10
119.311086
 20
220.293750
 42
-0.099167
  0
VERTEX
  8
0
 10
119.081062
 20
220.618444
 42
-0.105053
  0
VERTEX
  8
0
 10
119.000000
 20
221.000000
 42
-0.042167
  0
VERTEX
  8
0
 10
119.032345
 20
221.382849
 42
-0.061769
  0
VERTEX
  8
0
 10
119.129539
 20
221.706250
 42
-0.081139
  0
VERTEX
  8
0
 10
119.272352
 20
221.925540
 42
-0.210953
  0
VERTEX
  8
0
 10
119.440983
 20
222.000000
 42
-0.151918
  0
VERTEX
  8
0
 10
119.651710
 20
221.934461
 42
-0.038439
  0
VERTEX
  8
0
 10
119.933975
 20
221.706250
 42
-0.035638
  0
VERTEX
  8
0
 10
120.231006
 20
221.382774
 42
-0.029505
  0
SEQEND
  0
POLYLINE
  8
0
 66
1
 70
1
  0
VERTEX
  8
0
 10
80.000000
 20
212.000000
 42
-0.023197
  0
VERTEX
  8
0
 10
80.728886
 20
211.479509
 42
-0.409657
  0
VERTEX
  8
0
 10
80.762149
 20
211.218347
 42
-0.220444
  0
VERTEX
  8
0
 10
80.444209
 20
211.050422
 42
-0.011293
  0
VERTEX
  8
0
 10
79.250000
 20
211.015313
 42
-0.042523
  0
VERTEX
  8
0
 10
78.388595
 20
211.082804
 42
-0.062416
  0
VERTEX
  8
0
 10
77.660938
 20
211.298248
 42
-0.082215
  0
VERTEX
  8
0
 10
77.167975
 20
211.618823
 42
-0.210568
  0
VERTEX
  8
0
 10
77.000000
 20
212.000000
 42
-0.163584
  0
VERTEX
  8
0
 10
77.224247
 20
212.667076
 42
-0.234725
  0
VERTEX
  8
0
 10
77.772965
 20
212.939692
 42
-0.112355
  0
VERTEX
  8
0
 10
78.698623
 20
212.729028
 42
-0.031558
  0
SEQEND
  0
POLYLINE
  8
0
 66
1
 70
1
  0
VERTEX
  8
0
 10
101.602678
 20
210.500230
 42
-0.063167
  0
VERTEX
  8
0
 10
100.255898
 20
209.725957
 42
-0.138240
  0
VERTEX
  8
0
 10
99.084798
 20
209.583724
 42
-0.206553
  0
VERTEX
  8
0
 10
98.306087
 20
210.073299
 42
-0.151688
  0
VERTEX
  8
0
 10
98.000000
 20
211.059017
 42
-0.252931
  0
VERTEX
  8
0
 10
98.194054
 20
211.418086
 42
-0.065231
  0
VERTEX
  8
0
 10
98.807812
 20
211.714244
 42
-0.050276
  0
VERTEX
  8
0
 10
99.696541
 20
211.911890
 42
-0.032493
  0
VERTEX
  8
0
 10
100.750000
 20
211.968197
 42
-0.006432
  0
VERTEX
  8
0
 10
102.507898
 20
211.925244
 42
-0.257281
  0
VERTEX
  8
0
 10
102.827597
 20
211.733202
 42
-0.367625
  0
VERTEX
  8
0
 10
102.771546
 20
211.422276
 42
-0.009984
  0
SEQEND
  0
POLYLINE
  8
0
 66
1
 70
1
  0
VERTEX
  8
0
 10
93.122446
 20
204.899449
 42
-0.029621
  0
VERTEX
  8
0
 10
92.209060
 20
204.144369
 42
-0.045459
  0
VERTEX
  8
0
 10
91.329651
 20
203.616364
 42
-0.056532
  0
VERTEX
  8
0
 10
90.601414
 20
203.361280
 42
-0.257840
  0
VERTEX
  8
0
 10
90.185457
 20
203.481210
 42
-0.247890
  0
VERTEX
  8
0
 10
90.071854
 20
203.849219
 42
-0.088422
  0
VERTEX
  8
0
 10
90.273319
 20
204.379701
 42
-0.062060
  0
VERTEX
  8
0
 10
90.749282
 20
204.988811
 42
-0.038059
  0
VERTEX
  8
0
 10
91.442702
 20
205.581761
 42
-0.023825
  0
VERTEX
  8
0
 10
93.397132
 20
206.872691
 42
-0.234653
  0
VERTEX
  8
0
 10
94.352222
 20
206.944578
 42
-0.505497
  0
VERTEX
  8
0
 10
94.499345
 20
206.365706
 42
-0.033409
  0
SEQEND
  0
POLYLINE
  8
0
 66
1
 70
1
  0
VERTEX
  8
0
 10
85.968197
 20
201.250000
 42
-0.130888
  0
VERTEX
  8
0
 10
85.614534
 20
200.117450
 42
-0.042266
  0
VERTEX
  8
0
 10
84.545458
 20
198.703695
 42
-0.041609
  0
VERTEX
  8
0
 10
83.359969
 20
197.586631
 42
-0.381526
  0
VERTEX
  8
0
 10
82.709978
 20
197.623355
 42
-0.293459
  0
VERTEX
  8
0
 10
82.531340
 20
198.443323
 42
-0.041988
  0
VERTEX
  8
0
 10
83.299537
 20
200.073770
 42
-0.042264
  0
VERTEX
  8
0
 10
84.351205
 20
201.582614
 42
-0.222992
  0
VERTEX
  8
0
 10
85.240547
 20
202.000000
 42
-0.098792
  0
VERTEX
  8
0
 10
85.527918
 20
201.942660
 42
-0.102010
  0
VERTEX
  8
0
 10
85.767568
 20
201.779687
 42
-0.102634
  0
VERTEX
  8
0
 10
85.922193
 20
201.536165
 42
-0.101231
  0
SEQEND
  0
POLYLINE
  8
0
 66
1
 70
1
  0
VERTEX
  8
0
 10
77.309841
 20
193.473885
 42
-0.033843
  0
VERTEX
  8
0
 10
76.508282
 20
192.962864
 42
-0.092386
  0
VERTEX
  8
0
 10
75.871718
 20
192.754982
 42
-0.162856
  0
VERTEX
  8
0
 10
75.415771
 20
192.843367
 42
-0.180622
  0
VERTEX
  8
0
 10
75.128115
 20
193.185540
 42
-0.225908
  0
VERTEX
  8
0
 10
75.223921
 20
194.115183
 42
-0.105873
  0
VERTEX
  8
0
 10
76.075170
 20
195.014383
 42
-0.100538
  0
VERTEX
  8
0
 10
77.258687
 20
195.516750
 42
-0.190918
  0
VERTEX
  8
0
 10
78.262095
 20
195.338016
 42
-0.253350
  0
VERTEX
  8
0
 10
78.439967
 20
195.028051
 42
-0.124888
  0
VERTEX
  8
0
 10
78.336125
 20
194.571796
 42
-0.075698
  0
VERTEX
  8
0
 10
77.941913
 20
194.023537
 42
-0.040293
  0
SEQEND
  0
POLYLINE
  8
0
 66
1
 70
1
  0
VERTEX
  8
0
 10
41.692991
 20
146.269032
 42
-0.087174
  0
VERTEX
  8
0
 10
41.516660
 20
145.883358
 42
-0.597527
  0
VERTEX
  8
0
 10
41.356533
 20
145.900903
 42
-0.080377
  0
VERTEX
  8
0
 10
41.235556
 20
146.431793
 42
-0.012823
  0
VERTEX
  8
0
 10
41.194949
 20
147.500000
 42
-0.014395
  0
VERTEX
  8
0
 10
41.212705
 20
148.580113
 42
-0.052471
  0
VERTEX
  8
0
 10
41.315079
 20
149.257153
 42
-0.333666
  0
VERTEX
  8
0
 10
41.477130
 20
149.386009
 42
-0.313180
  0
VERTEX
  8
0
 10
41.655937
 20
149.269032
 42
-0.062780
  0
VERTEX
  8
0
 10
41.814405
 20
148.671085
 42
-0.030339
  0
VERTEX
  8
0
 10
41.872264
 20
147.880008
 42
-0.029507
  0
VERTEX
  8
0
 10
41.832894
 20
147.036634
 42
-0.037336
  0
SEQEND
  0
POLYLINE
  8
0
 66
1
 70
1
  0
VERTEX
  8
0
 10
31.984687
 20
107.190983
 42
-0.012098
  0
VERTEX
  8
0
 10
31.953006
 20
106.238528
 42
-0.343021
  0
VERTEX
  8
0
 10
31.800669
 20
106.064256
 42
-0.295079
  0
VERTEX
  8
0
 10
31.569384
 20
106.157251
 42
-0.010223
  0
VERTEX
  8
0
 10
31.000000
 20
107.000000
 42
-0.033010
  0
VERTEX
  8
0
 10
30.266028
 20
108.319161
 42
-0.110887
  0
VERTEX
  8
0
 10
30.050802
 20
109.277708
 42
-0.372932
  0
VERTEX
  8
0
 10
30.359022
 20
109.633474
 42
-0.175918
  0
VERTEX
  8
0
 10
31.000000
 20
109.500000
 42
-0.101161
  0
VERTEX
  8
0
 10
31.382022
 20
109.140373
 42
-0.052761
  0
VERTEX
  8
0
 10
31.701752
 20
108.566787
 42
-0.049393
  0
VERTEX
  8
0
 10
31.916365
 20
107.883651
 42
-0.053738
  0
SEQEND
  0
ENDSEC
  0
EOF
