  0
SECTION
  2
HEADER
  9
$ACADVER
  1
AC1006
  9
$EXTMIN
 10
0.000000
 20
0.000000
 30
0.000000
  9
$EXTMAX
 10
460.000000
 20
255.000000
 30
0.000000
  0
ENDSEC
  0
SECTION
  2
ENTITIES
  0
POLYLINE
  8
0
 66
1
 70
1
  0
VERTEX
  8
0
 10
110.250000
 20
253.779505
 42
0.070776
  0
VERTEX
  8
0
 10
108.793140
 20
252.802602
 42
0.159357
  0
VERTEX
  8
0
 10
108.136803
 20
251.663521
 42
0.114798
  0
VERTEX
  8
0
 10
108.171243
 20
250.092391
 42
0.028210
  0
VERTEX
  8
0
 10
108.957051
 20
247.612966
 42
-0.013654
  0
VERTEX
  8
0
 10
109.423556
 20
246.277263
 42
-0.140594
  0
VERTEX
  8
0
 10
109.440527
 20
245.699221
 42
-0.368788
  0
VERTEX
  8
0
 10
109.148569
 20
245.493352
 42
-0.068593
  0
VERTEX
  8
0
 10
108.457051
 20
245.654855
 42
-0.094797
  0
VERTEX
  8
0
 10
107.899977
 20
246.000581
 42
-0.066836
  0
VERTEX
  8
0
 10
107.428009
 20
246.569117
 42
-0.064637
  0
VERTEX
  8
0
 10
107.108908
 20
247.264375
 42
-0.075440
  0
VERTEX
  8
0
 10
107.000000
 20
247.982086
 42
0.214698
  0
VERTEX
  8
0
 10
106.258649
 20
249.629004
 42
0.067928
  0
VERTEX
  8
0
 10
103.963704
 20
251.162939
 42
0.062434
  0
VERTEX
  8
0
 10
101.017197
 20
252.168388
 42
0.087690
  0
VERTEX
  8
0
 10
98.245603
 20
252.249355
 42
0.071394
  0
VERTEX
  8
0
 10
96.987766
 20
251.876363
 42
0.044935
  0
VERTEX
  8
0
 10
95.655807
 20
251.112618
 42
0.042386
  0
VERTEX
  8
0
 10
94.391687
 20
250.058279
 42
0.043334
  0
VERTEX
  8
0
 10
93.333716
 20
248.813120
 42
0.026918
  0
VERTEX
  8
0
 10
92.245359
 20
247.091985
 42
0.081624
  0
VERTEX
  8
0
 10
91.775481
 20
245.793295
 42
0.091146
  0
VERTEX
  8
0
 10
91.772265
 20
244.495420
 42
0.039049
  0
VERTEX
  8
0
 10
92.215271
 20
242.812319
 42
0.047228
  0
VERTEX
  8
0
 10
92.768098
 20
241.606316
 42
0.038774
  0
VERTEX
  8
0
 10
93.570496
 20
240.437745
 42
0.040277
  0
VERTEX
  8
0
 10
94.486071
 20
239.473916
 42
0.078232
  0
VERTEX
  8
0
 10
95.375204
 20
238.898459
 42
-0.006045
  0
VERTEX
  8
0
 10
96.491563
 20
238.385992
 42
-0.663784
  0
VERTEX
  8
0
 10
96.486210
 20
238.263460
 42
-0.138064
  0
VERTEX
  8
0
 10
96.169037
 20
238.237798
 42
-0.002526
  0
VERTEX
  8
0
 10
94.500000
 20
238.573890
 42
0.001644
  0
VERTEX
  8
0
 10
93.187004
 20
238.840696
 42
0.001185
  0
VERTEX
  8
0
 10
91.720312
 20
239.130101
 42
0.001197
  0
VERTEX
  8
0
 10
90.324226
 20
239.398672
 42
0.002595
  0
VERTEX
  8
0
 10
89.250000
 20
239.596890
 42
-0.003275
  0
VERTEX
  8
0
 10
88.192090
 20
239.793586
 42
-0.001626
  0
VERTEX
  8
0
 10
86.853125
 20
240.056141
 42
-0.001614
  0
VERTEX
  8
0
 10
85.466953
 20
240.337292
 42
-0.002368
  0
VERTEX
  8
0
 10
84.250000
 20
240.594228
 42
0.024469
  0
VERTEX
  8
0
 10
80.481519
 20
241.217405
 42
0.010353
  0
VERTEX
  8
0
 10
75.377149
 20
241.699920
 42
0.008578
  0
VERTEX
  8
0
 10
69.006688
 20
242.059520
 42
0.004739
  0
VERTEX
  8
0
 10
61.214404
 20
242.291435
 42
0.006178
  0
VERTEX
  8
0
 10
56.050171
 20
242.332330
 42
0.025416
  0
VERTEX
  8
0
 10
52.927885
 20
242.159622
 42
0.041352
  0
VERTEX
  8
0
 10
50.973642
 20
241.786340
 42
0.188530
  0
VERTEX
  8
0
 10
50.065329
 20
241.104283
 42
-0.094967
  0
VERTEX
  8
0
 10
49.617039
 20
240.616660
 42
-0.080755
  0
VERTEX
  8
0
 10
48.994976
 20
240.295276
 42
-0.080087
  0
VERTEX
  8
0
 10
48.298156
 20
240.185768
 42
-0.090862
  0
VERTEX
  8
0
 10
47.634120
 20
240.310160
 42
0.123487
  0
VERTEX
  8
0
 10
45.100005
 20
240.617462
 42
0.016060
  0
VERTEX
  8
0
 10
39.679871
 20
239.758493
 42
0.015540
  0
VERTEX
  8
0
 10
34.320232
 20
238.557915
 42
0.134287
  0
VERTEX
  8
0
 10
32.212886
 20
237.355743
 42
-0.037613
  0
VERTEX
  8
0
 10
31.419621
 20
236.673623
 42
-0.008689
  0
VERTEX
  8
0
 10
29.982021
 20
235.652420
 42
-0.008925
  0
VERTEX
  8
0
 10
28.280474
 20
234.531739
 42
-0.008619
  0
VERTEX
  8
0
 10
26.520268
 20
233.459010
 42
0.017755
  0
VERTEX
  8
0
 10
24.818350
 20
232.378675
 42
0.020955
  0
VERTEX
  8
0
 10
23.291965
 20
231.235058
 42
0.020353
  0
VERTEX
  8
0
 10
22.098379
 20
230.176284
 42
0.109958
  0
VERTEX
  8
0
 10
21.622372
 20
229.458300
 42
-0.081570
  0
VERTEX
  8
0
 10
21.296347
 20
228.900826
 42
-0.065743
  0
VERTEX
  8
0
 10
20.786690
 20
228.428376
 42
-0.066473
  0
VERTEX
  8
0
 10
20.178365
 20
228.108977
 42
-0.087908
  0
VERTEX
  8
0
 10
19.563322
 20
228.000000
 42
0.138133
  0
VERTEX
  8
0
 10
18.883095
 20
227.808421
 42
0.048620
  0
VERTEX
  8
0
 10
18.066092
 20
227.192187
 42
0.043753
  0
VERTEX
  8
0
 10
17.253583
 20
226.302270
 42
0.038879
  0
VERTEX
  8
0
 10
16.571975
 20
225.250000
 42
-0.012755
  0
VERTEX
  8
0
 10
15.995426
 20
224.249039
 42
-0.030807
  0
VERTEX
  8
0
 10
15.506560
 20
223.549107
 42
-0.075405
  0
VERTEX
  8
0
 10
15.184391
 20
223.249582
 42
-0.586105
  0
VERTEX
  8
0
 10
15.040038
 20
223.321429
 42
0.585869
  0
VERTEX
  8
0
 10
14.541865
 20
223.569592
 42
0.078898
  0
VERTEX
  8
0
 10
13.456515
 20
222.547821
 42
0.041957
  0
VERTEX
  8
0
 10
12.193973
 20
220.596288
 42
0.061191
  0
VERTEX
  8
0
 10
11.457671
 20
218.687372
 42
-0.045079
  0
VERTEX
  8
0
 10
11.127371
 20
217.741615
 42
-0.069870
  0
VERTEX
  8
0
 10
10.664665
 20
217.012708
 42
-0.096648
  0
VERTEX
  8
0
 10
10.149404
 20
216.601991
 42
-0.214012
  0
VERTEX
  8
0
 10
9.658301
 20
216.573174
 42
0.374350
  0
VERTEX
  8
0
 10
8.603279
 20
216.184051
 42
0.008027
  0
VERTEX
  8
0
 10
5.826973
 20
210.915640
 42
0.016132
  0
VERTEX
  8
0
 10
3.363863
 20
205.638233
 42
0.060617
  0
VERTEX
  8
0
 10
2.344332
 20
202.136662
 42
-0.005647
  0
VERTEX
  8
0
 10
2.198632
 20
201.305524
 42
-0.001913
  0
VERTEX
  8
0
 10
1.968372
 20
200.099519
 42
-0.001902
  0
VERTEX
  8
0
 10
1.703717
 20
198.768580
 42
-0.002186
  0
VERTEX
  8
0
 10
1.440662
 20
197.500000
 42
0.025303
  0
VERTEX
  8
0
 10
0.812425
 20
193.563059
 42
0.021322
  0
VERTEX
  8
0
 10
0.538179
 20
189.350418
 42
0.013016
  0
VERTEX
  8
0
 10
0.551928
 20
185.591217
 42
0.405545
  0
VERTEX
  8
0
 10
1.160962
 20
185.000000
 42
-0.307472
  0
VERTEX
  8
0
 10
1.413861
 20
184.828244
 42
-0.119547
  0
VERTEX
  8
0
 10
1.475731
 20
184.388064
 42
-0.065837
  0
VERTEX
  8
0
 10
1.318553
 20
183.716181
 42
-0.032539
  0
VERTEX
  8
0
 10
0.955480
 20
182.916813
 42
0.044859
  0
VERTEX
  8
0
 10
0.478492
 20
181.794075
 42
0.108770
  0
VERTEX
  8
0
 10
0.393166
 20
180.902314
 42
0.108940
  0
VERTEX
  8
0
 10
0.690226
 20
180.058033
 42
0.045085
  0
VERTEX
  8
0
 10
1.422478
 20
179.085661
 42
-0.034239
  0
VERTEX
  8
0
 10
1.984343
 20
178.372241
 42
-0.050986
  0
VERTEX
  8
0
 10
2.362754
 20
177.674231
 42
-0.064849
  0
VERTEX
  8
0
 10
2.521497
 20
177.090161
 42
-0.234476
  0
VERTEX
  8
0
 10
2.402046
 20
176.735380
 42
0.154486
  0
VERTEX
  8
0
 10
2.232006
 20
176.407843
 42
0.071505
  0
VERTEX
  8
0
 10
2.217690
 20
175.923262
 42
0.060654
  0
VERTEX
  8
0
 10
2.351042
 20
175.364798
 42
0.050489
  0
VERTEX
  8
0
 10
2.620259
 20
174.816531
 42
-0.042239
  0
VERTEX
  8
0
 10
2.951219
 20
174.169667
 42
-0.020743
  0
VERTEX
  8
0
 10
3.266004
 20
173.299231
 42
-0.020416
  0
VERTEX
  8
0
 10
3.520027
 20
172.362093
 42
-0.027905
  0
VERTEX
  8
0
 10
3.666308
 20
171.500000
 42
0.055885
  0
VERTEX
  8
0
 10
4.542020
 20
167.655088
 42
0.007708
  0
VERTEX
  8
0
 10
7.366897
 20
159.940458
 42
0.002861
  0
VERTEX
  8
0
 10
10.552474
 20
151.779301
 42
0.539288
  0
VERTEX
  8
0
 10
11.292959
 20
151.626292
 42
-0.394558
  0
VERTEX
  8
0
 10
11.607196
 20
151.636913
 42
-0.090794
  0
VERTEX
  8
0
 10
11.969354
 20
151.181550
 42
-0.049531
  0
VERTEX
  8
0
 10
12.329016
 20
150.311055
 42
-0.023863
  0
VERTEX
  8
0
 10
12.622217
 20
149.138913
 42
0.021225
  0
VERTEX
  8
0
 10
12.929642
 20
147.881796
 42
0.025686
  0
VERTEX
  8
0
 10
13.327276
 20
146.734564
 42
0.025674
  0
VERTEX
  8
0
 10
13.752670
 20
145.822329
 42
0.133165
  0
VERTEX
  8
0
 10
14.129162
 20
145.420174
 42
-0.128354
  0
VERTEX
  8
0
 10
14.463891
 20
145.069339
 42
-0.046099
  0
VERTEX
  8
0
 10
14.744191
 20
144.432220
 42
-0.042002
  0
VERTEX
  8
0
 10
14.935668
 20
143.644241
 42
-0.038625
  0
VERTEX
  8
0
 10
15.000000
 20
142.812710
 42
0.110577
  0
VERTEX
  8
0
 10
15.517756
 20
140.500181
 42
0.011118
  0
VERTEX
  8
0
 10
18.056600
 20
135.411139
 42
0.008969
  0
VERTEX
  8
0
 10
20.838765
 20
130.353676
 42
0.166274
  0
VERTEX
  8
0
 10
22.191065
 20
129.166667
 42
-0.158028
  0
VERTEX
  8
0
 10
22.501914
 20
128.902535
 42
-0.053113
  0
VERTEX
  8
0
 10
22.762375
 20
128.359010
 42
-0.046555
  0
VERTEX
  8
0
 10
22.940331
 20
127.655352
 42
-0.038685
  0
VERTEX
  8
0
 10
23.000000
 20
126.885282
 42
0.070766
  0
VERTEX
  8
0
 10
23.112052
 20
126.097540
 42
0.063505
  0
VERTEX
  8
0
 10
23.440625
 20
125.340387
 42
0.066826
  0
VERTEX
  8
0
 10
23.926425
 20
124.726856
 42
0.100640
  0
VERTEX
  8
0
 10
24.500000
 20
124.361626
 42
-0.094860
  0
VERTEX
  8
0
 10
25.073495
 20
124.005610
 42
-0.066838
  0
VERTEX
  8
0
 10
25.559375
 20
123.420016
 42
-0.064626
  0
VERTEX
  8
0
 10
25.887882
 20
122.703825
 42
-0.075388
  0
VERTEX
  8
0
 10
26.000000
 20
121.964440
 42
0.067097
  0
VERTEX
  8
0
 10
26.108752
 20
121.157674
 42
0.039068
  0
VERTEX
  8
0
 10
26.440625
 20
120.237322
 42
0.038326
  0
VERTEX
  8
0
 10
26.925800
 20
119.350886
 42
0.052044
  0
VERTEX
  8
0
 10
27.500000
 20
118.642857
 42
-0.058077
  0
VERTEX
  8
0
 10
28.074386
 20
117.916923
 42
-0.038951
  0
VERTEX
  8
0
 10
28.559375
 20
116.975000
 42
-0.039070
  0
VERTEX
  8
0
 10
28.890482
 20
115.974272
 42
-0.060430
  0
VERTEX
  8
0
 10
29.000000
 20
115.071429
 42
0.041629
  0
VERTEX
  8
0
 10
29.066144
 20
114.278358
 42
0.061161
  0
VERTEX
  8
0
 10
29.265014
 20
113.608482
 42
0.080382
  0
VERTEX
  8
0
 10
29.557128
 20
113.153922
 42
0.212933
  0
VERTEX
  8
0
 10
29.902175
 20
113.000000
 42
-0.197914
  0
VERTEX
  8
0
 10
30.322427
 20
112.826871
 42
-0.038297
  0
VERTEX
  8
0
 10
30.870925
 20
112.192187
 42
-0.035450
  0
VERTEX
  8
0
 10
31.434908
 20
111.303039
 42
-0.026226
  0
VERTEX
  8
0
 10
31.933164
 20
110.250000
 42
0.016981
  0
VERTEX
  8
0
 10
32.584842
 20
108.804185
 42
0.004515
  0
VERTEX
  8
0
 10
33.722209
 20
106.545312
 42
0.004574
  0
VERTEX
  8
0
 10
35.062959
 20
103.998829
 42
0.004698
  0
VERTEX
  8
0
 10
36.438387
 20
101.500000
 42
-0.003824
  0
VERTEX
  8
0
 10
39.651889
 20
95.685900
 42
-0.013378
  0
VERTEX
  8
0
 10
41.593473
 20
91.868523
 42
-0.019268
  0
VERTEX
  8
0
 10
42.926912
 20
88.760083
 42
-0.018216
  0
VERTEX
  8
0
 10
44.044559
 20
85.500000
 42
0.011767
  0
VERTEX
  8
0
 10
44.619543
 20
83.749564
 42
0.008107
  0
VERTEX
  8
0
 10
45.349300
 20
81.793750
 42
0.008178
  0
VERTEX
  8
0
 10
46.113034
 20
79.934138
 42
0.016495
  0
VERTEX
  8
0
 10
46.786509
 20
78.500000
 42
0.014964
  0
VERTEX
  8
0
 10
47.882192
 20
76.503625
 42
0.026784
  0
VERTEX
  8
0
 10
48.915842
 20
74.944478
 42
0.019395
  0
VERTEX
  8
0
 10
50.316731
 20
73.204205
 42
0.004511
  0
VERTEX
  8
0
 10
52.807430
 20
70.396152
 42
-0.042077
  0
VERTEX
  8
0
 10
54.599995
 20
68.040569
 42
-0.025832
  0
VERTEX
  8
0
 10
56.318070
 20
65.002933
 42
-0.024808
  0
VERTEX
  8
0
 10
57.628306
 20
62.016802
 42
-0.091220
  0
VERTEX
  8
0
 10
58.000000
 20
59.996400
 42
0.098043
  0
VERTEX
  8
0
 10
58.179233
 20
59.091140
 42
0.020283
  0
VERTEX
  8
0
 10
58.861752
 20
57.608758
 42
0.020592
  0
VERTEX
  8
0
 10
59.810608
 20
55.925197
 42
0.018129
  0
VERTEX
  8
0
 10
60.933623
 20
54.250328
 42
-0.013449
  0
VERTEX
  8
0
 10
62.020997
 20
52.660969
 42
-0.021372
  0
VERTEX
  8
0
 10
62.854666
 20
51.239365
 42
-0.016825
  0
VERTEX
  8
0
 10
63.424693
 20
50.071263
 42
-0.310911
  0
VERTEX
  8
0
 10
63.353789
 20
49.687122
 42
0.331917
  0
VERTEX
  8
0
 10
63.185817
 20
48.532368
 42
0.016011
  0
VERTEX
  8
0
 10
65.267410
 20
44.967581
 42
0.020203
  0
VERTEX
  8
0
 10
67.593240
 20
41.574772
 42
0.155259
  0
VERTEX
  8
0
 10
69.142029
 20
40.465804
 42
-0.070775
  0
VERTEX
  8
0
 10
69.816443
 20
40.136145
 42
-0.046446
  0
VERTEX
  8
0
 10
70.484999
 20
39.585715
 42
-0.046024
  0
VERTEX
  8
0
 10
71.048264
 20
38.913161
 42
-0.064245
  0
VERTEX
  8
0
 10
71.408011
 20
38.216881
 42
0.057724
  0
VERTEX
  8
0
 10
73.123480
 20
34.788129
 42
0.040860
  0
VERTEX
  8
0
 10
75.767915
 20
31.387129
 42
0.040417
  0
VERTEX
  8
0
 10
78.609792
 20
28.753243
 42
0.168221
  0
VERTEX
  8
0
 10
80.785285
 20
28.000000
 42
-0.112380
  0
VERTEX
  8
0
 10
81.245494
 20
27.895240
 42
-0.038049
  0
VERTEX
  8
0
 10
81.844030
 20
27.549592
 42
-0.035579
  0
VERTEX
  8
0
 10
82.469122
 20
27.053450
 42
-0.034025
  0
VERTEX
  8
0
 10
83.027641
 20
26.466695
 42
0.051485
  0
VERTEX
  8
0
 10
83.596029
 20
25.909791
 42
0.056571
  0
VERTEX
  8
0
 10
84.249465
 20
25.500763
 42
0.064098
  0
VERTEX
  8
0
 10
84.885890
 20
25.291094
 42
0.135205
  0
VERTEX
  8
0
 10
85.400085
 20
25.331568
 42
-0.095741
  0
VERTEX
  8
0
 10
85.951137
 20
25.418479
 42
-0.037700
  0
VERTEX
  8
0
 10
86.718018
 20
25.333909
 42
-0.035577
  0
VERTEX
  8
0
 10
87.556014
 20
25.114282
 42
-0.037121
  0
VERTEX
  8
0
 10
88.342104
 20
24.780396
 42
0.085253
  0
VERTEX
  8
0
 10
92.534939
 20
23.456861
 42
0.137600
  0
VERTEX
  8
0
 10
96.218082
 20
23.967675
 42
0.116314
  0
VERTEX
  8
0
 10
99.522701
 20
26.442936
 42
0.051109
  0
VERTEX
  8
0
 10
102.601703
 20
31.000000
 42
-0.006375
  0
VERTEX
  8
0
 10
103.402940
 20
32.449999
 42
-0.005957
  0
VERTEX
  8
0
 10
104.258832
 20
33.912500
 42
-0.005944
  0
VERTEX
  8
0
 10
105.049699
 20
35.192970
 42
-0.020169
  0
VERTEX
  8
0
 10
105.608368
 20
36.000000
 42
0.099930
  0
VERTEX
  8
0
 10
107.100261
 20
39.115120
 42
0.036337
  0
VERTEX
  8
0
 10
107.955888
 20
43.959999
 42
0.033407
  0
VERTEX
  8
0
 10
108.158260
 20
49.678775
 42
0.029530
  0
VERTEX
  8
0
 10
107.619546
 20
55.617885
 42
0.023064
  0
VERTEX
  8
0
 10
107.096265
 20
58.258664
 42
0.056355
  0
VERTEX
  8
0
 10
106.409469
 20
60.115152
 42
0.068055
  0
VERTEX
  8
0
 10
105.417393
 20
61.556517
 42
0.048898
  0
VERTEX
  8
0
 10
103.964825
 20
62.867885
 42
0.007575
  0
VERTEX
  8
0
 10
102.824271
 20
63.684703
 42
0.010742
  0
VERTEX
  8
0
 10
101.783711
 20
64.373691
 42
0.007076
  0
VERTEX
  8
0
 10
100.899081
 20
64.915115
 42
0.134571
  0
VERTEX
  8
0
 10
100.589402
 20
65.000000
 42
0.402940
  0
VERTEX
  8
0
 10
100.392875
 20
64.810924
 42
0.002008
  0
VERTEX
  8
0
 10
100.289113
 20
61.815741
 42
0.007085
  0
VERTEX
  8
0
 10
100.231570
 20
58.316535
 42
0.004249
  0
VERTEX
  8
0
 10
100.257449
 20
54.159968
 42
-0.005135
  0
VERTEX
  8
0
 10
100.286850
 20
47.560326
 42
-0.039410
  0
VERTEX
  8
0
 10
100.025390
 20
44.476991
 42
-0.076404
  0
VERTEX
  8
0
 10
99.336115
 20
42.368028
 42
-0.050337
  0
VERTEX
  8
0
 10
97.958539
 20
40.214028
 42
-0.029741
  0
VERTEX
  8
0
 10
96.534850
 20
38.620098
 42
-0.083863
  0
VERTEX
  8
0
 10
95.318843
 20
37.761205
 42
-0.092361
  0
VERTEX
  8
0
 10
93.959132
 20
37.394505
 42
-0.041275
  0
VERTEX
  8
0
 10
92.098790
 20
37.400609
 42
-0.038471
  0
VERTEX
  8
0
 10
90.716189
 20
37.627548
 42
-0.037620
  0
VERTEX
  8
0
 10
89.373916
 20
38.064626
 42
-0.040140
  0
VERTEX
  8
0
 10
88.258548
 20
38.631528
 42
-0.101813
  0
VERTEX
  8
0
 10
87.598790
 20
39.250362
 42
-0.002382
  0
VERTEX
  8
0
 10
87.072202
 20
40.004271
 42
-0.001048
  0
VERTEX
  8
0
 10
86.382145
 20
41.006798
 42
-0.001037
  0
VERTEX
  8
0
 10
85.654652
 20
42.073206
 42
-0.001392
  0
VERTEX
  8
0
 10
85.000000
 20
43.042923
 42
0.007563
  0
VERTEX
  8
0
 10
84.277399
 20
44.085316
 42
0.003735
  0
VERTEX
  8
0
 10
83.329682
 20
45.388551
 42
0.003705
  0
VERTEX
  8
0
 10
82.325959
 20
46.726489
 42
0.005405
  0
VERTEX
  8
0
 10
81.420194
 20
47.889110
 42
-0.021707
  0
VERTEX
  8
0
 10
80.062960
 20
49.753527
 42
-0.031353
  0
VERTEX
  8
0
 10
79.044589
 20
51.519193
 42
-0.034940
  0
VERTEX
  8
0
 10
78.422319
 20
53.030361
 42
-0.138622
  0
VERTEX
  8
0
 10
78.377319
 20
54.023470
 42
0.199110
  0
VERTEX
  8
0
 10
78.325911
 20
54.336309
 42
0.015624
  0
VERTEX
  8
0
 10
77.848233
 20
55.054078
 42
0.019364
  0
VERTEX
  8
0
 10
77.197983
 20
55.896837
 42
0.013535
  0
VERTEX
  8
0
 10
76.403900
 20
56.796839
 42
-0.063382
  0
VERTEX
  8
0
 10
75.513583
 20
58.034938
 42
-0.022707
  0
VERTEX
  8
0
 10
74.563505
 20
59.994591
 42
-0.022101
  0
VERTEX
  8
0
 10
73.705458
 20
62.261616
 42
-0.024372
  0
VERTEX
  8
0
 10
73.082184
 20
64.523369
 42
0.017184
  0
VERTEX
  8
0
 10
72.455728
 20
66.931241
 42
0.042786
  0
VERTEX
  8
0
 10
71.790792
 20
68.623421
 42
0.063745
  0
VERTEX
  8
0
 10
71.095001
 20
69.668816
 42
0.217388
  0
VERTEX
  8
0
 10
70.369267
 20
70.000000
 42
-0.067619
  0
VERTEX
  8
0
 10
69.844011
 20
70.071360
 42
-0.141191
  0
VERTEX
  8
0
 10
69.495280
 20
70.285453
 42
-0.190731
  0
VERTEX
  8
0
 10
69.374870
 20
70.602709
 42
-0.135669
  0
VERTEX
  8
0
 10
69.482543
 20
70.971754
 42
0.166810
  0
VERTEX
  8
0
 10
69.605140
 20
71.512375
 42
0.045166
  0
VERTEX
  8
0
 10
69.430125
 20
72.385403
 42
0.040488
  0
VERTEX
  8
0
 10
69.037574
 20
73.400351
 42
0.032526
  0
VERTEX
  8
0
 10
68.460733
 20
74.419585
 42
-0.014757
  0
VERTEX
  8
0
 10
67.820187
 20
75.463103
 42
-0.014408
  0
VERTEX
  8
0
 10
67.236927
 20
76.550825
 42
-0.014455
  0
VERTEX
  8
0
 10
66.780502
 20
77.534384
 42
-0.051151
  0
VERTEX
  8
0
 10
66.572830
 20
78.197830
 42
0.030237
  0
VERTEX
  8
0
 10
66.387390
 20
78.890448
 42
0.007510
  0
VERTEX
  8
0
 10
65.998987
 20
79.998738
 42
0.007652
  0
VERTEX
  8
0
 10
65.515121
 20
81.255933
 42
0.007611
  0
VERTEX
  8
0
 10
64.992175
 20
82.500000
 42
-0.012632
  0
VERTEX
  8
0
 10
64.500383
 20
83.703649
 42
-0.016044
  0
VERTEX
  8
0
 10
64.110794
 20
84.839063
 42
-0.014083
  0
VERTEX
  8
0
 10
63.845323
 20
85.797198
 42
-0.114040
  0
VERTEX
  8
0
 10
63.838518
 20
86.250000
 42
0.221503
  0
VERTEX
  8
0
 10
63.773504
 20
86.535511
 42
0.108503
  0
VERTEX
  8
0
 10
63.480512
 20
86.779687
 42
0.074578
  0
VERTEX
  8
0
 10
62.996696
 20
86.945262
 42
0.045244
  0
VERTEX
  8
0
 10
62.393011
 20
87.000000
 42
-0.077669
  0
VERTEX
  8
0
 10
61.754575
 20
87.099775
 42
-0.166102
  0
VERTEX
  8
0
 10
61.359038
 20
87.393809
 42
-0.166138
  0
VERTEX
  8
0
 10
61.226134
 20
87.868337
 42
-0.077710
  0
VERTEX
  8
0
 10
61.361626
 20
88.500000
 42
0.072898
  0
VERTEX
  8
0
 10
61.490641
 20
89.074593
 42
0.119728
  0
VERTEX
  8
0
 10
61.410179
 20
89.563873
 42
0.150353
  0
VERTEX
  8
0
 10
61.135927
 20
89.889620
 42
0.140917
  0
VERTEX
  8
0
 10
60.718615
 20
90.015313
 42
-0.083809
  0
VERTEX
  8
0
 10
60.312891
 20
90.089055
 42
-0.394239
  0
VERTEX
  8
0
 10
60.214537
 20
90.281383
 42
-0.156742
  0
VERTEX
  8
0
 10
60.414015
 20
90.579763
 42
-0.024208
  0
VERTEX
  8
0
 10
61.000000
 20
91.000000
 42
0.012279
  0
VERTEX
  8
0
 10
61.818229
 20
91.557730
 42
0.323649
  0
VERTEX
  8
0
 10
61.897595
 20
91.795688
 42
0.312363
  0
VERTEX
  8
0
 10
61.696108
 20
91.952447
 42
0.011801
  0
VERTEX
  8
0
 10
60.690983
 20
91.984687
 42
-0.055749
  0
VERTEX
  8
0
 10
60.042258
 20
92.062810
 42
-0.119238
  0
VERTEX
  8
0
 10
59.594912
 20
92.289252
 42
-0.187649
  0
VERTEX
  8
0
 10
59.416871
 20
92.619957
 42
-0.170746
  0
VERTEX
  8
0
 10
59.500000
 20
93.000000
 42
0.094696
  0
VERTEX
  8
0
 10
59.645673
 20
93.381513
 42
0.172837
  0
VERTEX
  8
0
 10
59.591140
 20
93.706250
 42
0.172824
  0
VERTEX
  8
0
 10
59.343540
 20
93.923350
 42
0.094680
  0
VERTEX
  8
0
 10
58.942386
 20
94.000000
 42
-0.179585
  0
VERTEX
  8
0
 10
58.516056
 20
94.158228
 42
-0.141038
  0
VERTEX
  8
0
 10
58.243978
 20
94.573686
 42
-0.092997
  0
VERTEX
  8
0
 10
58.168680
 20
95.230650
 42
-0.046141
  0
VERTEX
  8
0
 10
58.305746
 20
96.061172
 42
0.057441
  0
VERTEX
  8
0
 10
58.429312
 20
96.931571
 42
0.083637
  0
VERTEX
  8
0
 10
58.320897
 20
97.697465
 42
0.100370
  0
VERTEX
  8
0
 10
57.994282
 20
98.284714
 42
0.124829
  0
VERTEX
  8
0
 10
57.485519
 20
98.643930
 42
-0.093696
  0
VERTEX
  8
0
 10
57.004312
 20
98.941120
 42
-0.096528
  0
VERTEX
  8
0
 10
56.670780
 20
99.390740
 42
-0.099097
  0
VERTEX
  8
0
 10
56.536046
 20
99.922335
 42
-0.104651
  0
VERTEX
  8
0
 10
56.620653
 20
100.453820
 42
0.125919
  0
VERTEX
  8
0
 10
56.691876
 20
101.065655
 42
0.059140
  0
VERTEX
  8
0
 10
56.491299
 20
101.842184
 42
0.053154
  0
VERTEX
  8
0
 10
56.072457
 20
102.652383
 42
0.050559
  0
VERTEX
  8
0
 10
55.486082
 20
103.371061
 42
-0.017266
  0
VERTEX
  8
0
 10
54.902027
 20
103.996909
 42
-0.037943
  0
VERTEX
  8
0
 10
54.511044
 20
104.521499
 42
-0.073782
  0
VERTEX
  8
0
 10
54.356090
 20
104.870974
 42
-0.495712
  0
VERTEX
  8
0
 10
54.454252
 20
105.000000
 42
0.468688
  0
VERTEX
  8
0
 10
54.597633
 20
105.172237
 42
0.031415
  0
VERTEX
  8
0
 10
54.420248
 20
105.881250
 42
0.027526
  0
VERTEX
  8
0
 10
54.052692
 20
106.848925
 42
0.014804
  0
VERTEX
  8
0
 10
53.500000
 20
108.000000
 42
-0.016081
  0
VERTEX
  8
0
 10
52.950904
 20
109.151112
 42
-0.030130
  0
VERTEX
  8
0
 10
52.594738
 20
110.118750
 42
-0.036946
  0
VERTEX
  8
0
 10
52.439401
 20
110.818038
 42
-0.457268
  0
VERTEX
  8
0
 10
52.596765
 20
111.000000
 42
0.390496
  0
VERTEX
  8
0
 10
52.735595
 20
111.127933
 42
0.115585
  0
VERTEX
  8
0
 10
52.688816
 20
111.440625
 42
0.054330
  0
VERTEX
  8
0
 10
52.432874
 20
111.923721
 42
0.024247
  0
VERTEX
  8
0
 10
52.000000
 20
112.500000
 42
-0.033478
  0
VERTEX
  8
0
 10
51.582717
 20
113.077403
 42
-0.079630
  0
VERTEX
  8
0
 10
51.377077
 20
113.563873
 42
-0.174542
  0
VERTEX
  8
0
 10
51.409849
 20
113.876054
 42
-0.282972
  0
VERTEX
  8
0
 10
51.627555
 20
114.015313
 42
0.127082
  0
VERTEX
  8
0
 10
51.871775
 20
114.082997
 42
0.320973
  0
VERTEX
  8
0
 10
51.943990
 20
114.241942
 42
0.149984
  0
VERTEX
  8
0
 10
51.815814
 20
114.480829
 42
0.039156
  0
VERTEX
  8
0
 10
51.479646
 20
114.765313
 42
-0.104391
  0
VERTEX
  8
0
 10
50.417966
 20
115.931029
 42
-0.019844
  0
VERTEX
  8
0
 10
49.056667
 20
118.476992
 42
-0.021362
  0
VERTEX
  8
0
 10
47.894776
 20
121.160464
 42
-0.074355
  0
VERTEX
  8
0
 10
47.488331
 20
123.000000
 42
0.039587
  0
VERTEX
  8
0
 10
47.167094
 20
125.152396
 42
0.019274
  0
VERTEX
  8
0
 10
46.436661
 20
127.835120
 42
0.018040
  0
VERTEX
  8
0
 10
45.547561
 20
130.344996
 42
0.072788
  0
VERTEX
  8
0
 10
44.739668
 20
131.750000
 42
-0.035345
  0
VERTEX
  8
0
 10
44.413582
 20
132.230234
 42
-0.084300
  0
VERTEX
  8
0
 10
44.263136
 20
132.632812
 42
-0.181215
  0
VERTEX
  8
0
 10
44.306879
 20
132.889022
 42
-0.266866
  0
VERTEX
  8
0
 10
44.500000
 20
133.000000
 42
0.341777
  0
VERTEX
  8
0
 10
44.670922
 20
133.132287
 42
0.144806
  0
VERTEX
  8
0
 10
44.660392
 20
133.440625
 42
0.064878
  0
VERTEX
  8
0
 10
44.426283
 20
133.923630
 42
0.027963
  0
VERTEX
  8
0
 10
44.000000
 20
134.500000
 42
-0.025998
  0
VERTEX
  8
0
 10
43.570237
 20
135.076326
 42
-0.059248
  0
VERTEX
  8
0
 10
43.324622
 20
135.559375
 42
-0.129665
  0
VERTEX
  8
0
 10
43.295323
 20
135.869644
 42
-0.367029
  0
VERTEX
  8
0
 10
43.448984
 20
136.000000
 42
0.451996
  0
VERTEX
  8
0
 10
43.571838
 20
136.139574
 42
0.099587
  0
VERTEX
  8
0
 10
43.455720
 20
136.483312
 42
0.045431
  0
VERTEX
  8
0
 10
43.081485
 20
137.012996
 42
0.019879
  0
VERTEX
  8
0
 10
42.497540
 20
137.645317
 42
-0.035995
  0
VERTEX
  8
0
 10
41.838470
 20
138.406785
 42
-0.100042
  0
VERTEX
  8
0
 10
41.537186
 20
139.043348
 42
-0.164795
  0
VERTEX
  8
0
 10
41.580295
 20
139.555238
 42
-0.152811
  0
VERTEX
  8
0
 10
41.926037
 20
139.954289
 42
0.147410
  0
VERTEX
  8
0
 10
42.297873
 20
140.374404
 42
0.146546
  0
VERTEX
  8
0
 10
42.376759
 20
140.931059
 42
0.091428
  0
VERTEX
  8
0
 10
42.127903
 20
141.651497
 42
0.033167
  0
VERTEX
  8
0
 10
41.531730
 20
142.558971
 42
-0.036478
  0
VERTEX
  8
0
 10
40.967371
 20
143.430525
 42
-0.028940
  0
VERTEX
  8
0
 10
40.485526
 20
144.443885
 42
-0.029757
  0
VERTEX
  8
0
 10
40.147973
 20
145.440772
 42
-0.062286
  0
VERTEX
  8
0
 10
40.031803
 20
146.250000
 42
0.045901
  0
VERTEX
  8
0
 10
39.957888
 20
146.919805
 42
0.065096
  0
VERTEX
  8
0
 10
39.762927
 20
147.485938
 42
0.084239
  0
VERTEX
  8
0
 10
39.484091
 20
147.868574
 42
0.195685
  0
VERTEX
  8
0
 10
39.161140
 20
148.000000
 42
-0.360395
  0
VERTEX
  8
0
 10
38.414712
 20
148.618330
 42
-0.003004
  0
VERTEX
  8
0
 10
36.954981
 20
156.587391
 42
-0.006888
  0
VERTEX
  8
0
 10
35.728252
 20
164.122634
 42
-0.086249
  0
VERTEX
  8
0
 10
35.798660
 20
167.000000
 42
-0.006961
  0
VERTEX
  8
0
 10
37.093239
 20
173.060166
 42
-0.018683
  0
VERTEX
  8
0
 10
38.234304
 20
177.319686
 42
-0.022114
  0
VERTEX
  8
0
 10
39.569457
 20
181.054590
 42
-0.013852
  0
VERTEX
  8
0
 10
41.442217
 20
185.302343
 42
-0.017104
  0
VERTEX
  8
0
 10
42.635671
 20
187.610781
 42
-0.019035
  0
VERTEX
  8
0
 10
43.945099
 20
189.749283
 42
-0.018726
  0
VERTEX
  8
0
 10
45.190834
 20
191.476148
 42
-0.087766
  0
VERTEX
  8
0
 10
46.097383
 20
192.292890
 42
0.037906
  0
VERTEX
  8
0
 10
46.825409
 20
192.828203
 42
0.041435
  0
VERTEX
  8
0
 10
47.441106
 20
193.452860
 42
0.045438
  0
VERTEX
  8
0
 10
47.868073
 20
194.070918
 42
0.129142
  0
VERTEX
  8
0
 10
48.000000
 20
194.573182
 42
-0.208302
  0
VERTEX
  8
0
 10
48.508688
 20
195.741236
 42
-0.009413
  0
VERTEX
  8
0
 10
51.842883
 20
198.728128
 42
-0.011000
  0
VERTEX
  8
0
 10
55.257277
 20
201.544356
 42
-0.154359
  0
VERTEX
  8
0
 10
56.726991
 20
202.099892
 42
0.111194
  0
VERTEX
  8
0
 10
57.137719
 20
202.216473
 42
0.020497
  0
VERTEX
  8
0
 10
57.817611
 20
202.623127
 42
0.021103
  0
VERTEX
  8
0
 10
58.587646
 20
203.175447
 42
0.017838
  0
VERTEX
  8
0
 10
59.354238
 20
203.821259
 42
-0.095384
  0
VERTEX
  8
0
 10
60.708850
 20
204.643551
 42
-0.050074
  0
VERTEX
  8
0
 10
62.622654
 20
205.143082
 42
-0.031121
  0
VERTEX
  8
0
 10
65.436636
 20
205.405632
 42
-0.008725
  0
VERTEX
  8
0
 10
69.854238
 20
205.464660
 42
-0.010814
  0
VERTEX
  8
0
 10
75.876296
 20
205.309766
 42
-0.030747
  0
VERTEX
  8
0
 10
80.047327
 20
204.854082
 42
-0.036762
  0
VERTEX
  8
0
 10
83.697383
 20
203.946204
 42
-0.021883
  0
VERTEX
  8
0
 10
87.889443
 20
202.363354
 42
0.004465
  0
VERTEX
  8
0
 10
89.345122
 20
201.754989
 42
0.005273
  0
VERTEX
  8
0
 10
90.733149
 20
201.206399
 42
0.004638
  0
VERTEX
  8
0
 10
91.913146
 20
200.766865
 42
0.032867
  0
VERTEX
  8
0
 10
92.500000
 20
200.597109
 42
-0.025992
  0
VERTEX
  8
0
 10
94.841313
 20
199.954574
 42
-0.023812
  0
VERTEX
  8
0
 10
97.174426
 20
199.056546
 42
-0.023806
  0
VERTEX
  8
0
 10
99.412164
 20
197.940479
 42
-0.025944
  0
VERTEX
  8
0
 10
101.468061
 20
196.645437
 42
0.017290
  0
VERTEX
  8
0
 10
102.716803
 20
195.828324
 42
0.017493
  0
VERTEX
  8
0
 10
104.014261
 20
195.102808
 42
0.017578
  0
VERTEX
  8
0
 10
105.185091
 20
194.551990
 42
0.065358
  0
VERTEX
  8
0
 10
105.968061
 20
194.331879
 42
-0.090645
  0
VERTEX
  8
0
 10
106.653215
 20
194.101539
 42
-0.039968
  0
VERTEX
  8
0
 10
107.453010
 20
193.571797
 42
-0.037840
  0
VERTEX
  8
0
 10
108.233860
 20
192.858028
 42
-0.041523
  0
VERTEX
  8
0
 10
108.871972
 20
192.055247
 42
0.049321
  0
VERTEX
  8
0
 10
109.517422
 20
191.268685
 42
0.045893
  0
VERTEX
  8
0
 10
110.319161
 20
190.602471
 42
0.049083
  0
VERTEX
  8
0
 10
111.149026
 20
190.145306
 42
0.101044
  0
VERTEX
  8
0
 10
111.871972
 20
189.995719
 42
-0.096363
  0
VERTEX
  8
0
 10
112.768532
 20
189.818861
 42
-0.016951
  0
VERTEX
  8
0
 10
114.343642
 20
189.113960
 42
-0.017819
  0
VERTEX
  8
0
 10
116.157771
 20
188.145566
 42
-0.015182
  0
VERTEX
  8
0
 10
118.000000
 20
187.000000
 42
0.010184
  0
VERTEX
  8
0
 10
119.802446
 20
185.854035
 42
0.013357
  0
VERTEX
  8
0
 10
121.496082
 20
184.886040
 42
0.010875
  0
VERTEX
  8
0
 10
122.935861
 20
184.153275
 42
0.111730
  0
VERTEX
  8
0
 10
123.582408
 20
184.004281
 42
-0.199989
  0
VERTEX
  8
0
 10
124.771737
 20
183.503227
 42
-0.007409
  0
VERTEX
  8
0
 10
128.205312
 20
179.908571
 42
-0.007844
  0
VERTEX
  8
0
 10
131.513116
 20
176.227039
 42
-0.181012
  0
VERTEX
  8
0
 10
132.000000
 20
174.926209
 42
0.264584
  0
VERTEX
  8
0
 10
132.199245
 20
174.576042
 42
0.007163
  0
VERTEX
  8
0
 10
133.787405
 20
173.662830
 42
0.013064
  0
VERTEX
  8
0
 10
135.752565
 20
172.636270
 42
0.008358
  0
VERTEX
  8
0
 10
138.084784
 20
171.542439
 42
-0.009326
  0
VERTEX
  8
0
 10
141.576849
 20
169.896370
 42
-0.071990
  0
VERTEX
  8
0
 10
143.061414
 20
168.874456
 42
-0.163600
  0
VERTEX
  8
0
 10
143.627550
 20
167.837826
 42
-0.105753
  0
VERTEX
  8
0
 10
143.579014
 20
166.458794
 42
0.051300
  0
VERTEX
  8
0
 10
143.417046
 20
165.337015
 42
0.093591
  0
VERTEX
  8
0
 10
143.550957
 20
164.424793
 42
0.103706
  0
VERTEX
  8
0
 10
143.992623
 20
163.686422
 42
0.074563
  0
VERTEX
  8
0
 10
144.744230
 20
163.083328
 42
-0.019946
  0
VERTEX
  8
0
 10
145.365944
 20
162.687243
 42
-0.059093
  0
VERTEX
  8
0
 10
145.743927
 20
162.352247
 42
-0.217283
  0
VERTEX
  8
0
 10
145.807845
 20
162.145366
 42
-0.366555
  0
VERTEX
  8
0
 10
145.681906
 20
162.030409
 42
0.458510
  0
VERTEX
  8
0
 10
145.511278
 20
161.816723
 42
0.054219
  0
VERTEX
  8
0
 10
145.711629
 20
161.155774
 42
0.035924
  0
VERTEX
  8
0
 10
146.196026
 20
160.212642
 42
0.018124
  0
VERTEX
  8
0
 10
146.931906
 20
159.095630
 42
-0.010044
  0
VERTEX
  8
0
 10
147.723994
 20
157.934573
 42
-0.013430
  0
VERTEX
  8
0
 10
148.392497
 20
156.848470
 42
-0.010612
  0
VERTEX
  8
0
 10
148.901408
 20
155.924966
 42
-0.121198
  0
VERTEX
  8
0
 10
149.000000
 20
155.524201
 42
0.115269
  0
VERTEX
  8
0
 10
149.079426
 20
155.184257
 42
0.027390
  0
VERTEX
  8
0
 10
149.367188
 20
154.674386
 42
0.026741
  0
VERTEX
  8
0
 10
149.771531
 20
154.110460
 42
0.023613
  0
VERTEX
  8
0
 10
150.250000
 20
153.567934
 42
-0.006704
  0
VERTEX
  8
0
 10
150.903557
 20
152.875539
 42
-0.001847
  0
VERTEX
  8
0
 10
151.912823
 20
151.768989
 42
-0.001865
  0
VERTEX
  8
0
 10
153.047056
 20
150.506729
 42
-0.001949
  0
VERTEX
  8
0
 10
154.155354
 20
149.254244
 42
0.011675
  0
VERTEX
  8
0
 10
155.245529
 20
148.069496
 42
0.014089
  0
VERTEX
  8
0
 10
156.325341
 20
147.011021
 42
0.012759
  0
VERTEX
  8
0
 10
157.275076
 20
146.175134
 42
0.087048
  0
VERTEX
  8
0
 10
157.813750
 20
145.864882
 42
-0.127255
  0
VERTEX
  8
0
 10
158.222999
 20
145.583671
 42
-0.049691
  0
VERTEX
  8
0
 10
158.622495
 20
145.019684
 42
-0.045029
  0
VERTEX
  8
0
 10
158.953509
 20
144.292187
 42
-0.041985
  0
VERTEX
  8
0
 10
159.158397
 20
143.500000
 42
0.046896
  0
VERTEX
  8
0
 10
159.552656
 20
142.035005
 42
0.050403
  0
VERTEX
  8
0
 10
160.206511
 20
140.706394
 42
0.036426
  0
VERTEX
  8
0
 10
161.289259
 20
139.224105
 42
0.011916
  0
VERTEX
  8
0
 10
163.089895
 20
137.201993
 42
-0.026332
  0
VERTEX
  8
0
 10
163.744707
 20
136.422530
 42
-0.018708
  0
VERTEX
  8
0
 10
164.397445
 20
135.485898
 42
-0.018954
  0
VERTEX
  8
0
 10
164.954511
 20
134.542351
 42
-0.037647
  0
VERTEX
  8
0
 10
165.308511
 20
133.750000
 42
0.076651
  0
VERTEX
  8
0
 10
165.672143
 20
133.081057
 42
0.066233
  0
VERTEX
  8
0
 10
166.236633
 20
132.514062
 42
0.068495
  0
VERTEX
  8
0
 10
166.908210
 20
132.130824
 42
0.095737
  0
VERTEX
  8
0
 10
167.585192
 20
132.000000
 42
-0.095777
  0
VERTEX
  8
0
 10
168.319876
 20
131.857966
 42
-0.183705
  0
VERTEX
  8
0
 10
168.754755
 20
131.456634
 42
-0.126738
  0
VERTEX
  8
0
 10
168.907382
 20
130.740575
 42
-0.036706
  0
VERTEX
  8
0
 10
168.776112
 20
129.609136
 42
0.069313
  0
VERTEX
  8
0
 10
168.711380
 20
128.327890
 42
0.135205
  0
VERTEX
  8
0
 10
169.065918
 20
127.376479
 42
0.098829
  0
VERTEX
  8
0
 10
169.953236
 20
126.552681
 42
0.026583
  0
VERTEX
  8
0
 10
171.650047
 20
125.629839
 42
0.014209
  0
VERTEX
  8
0
 10
173.762121
 20
124.695359
 42
0.135484
  0
VERTEX
  8
0
 10
174.732413
 20
124.579533
 42
0.181913
  0
VERTEX
  8
0
 10
175.488795
 20
125.003029
 42
0.030123
  0
VERTEX
  8
0
 10
176.504186
 20
126.366045
 42
0.110192
  0
VERTEX
  8
0
 10
177.453592
 20
128.884221
 42
0.057627
  0
VERTEX
  8
0
 10
177.540865
 20
132.250917
 42
0.054573
  0
VERTEX
  8
0
 10
176.828169
 20
135.798698
 42
0.065412
  0
VERTEX
  8
0
 10
175.384734
 20
138.881352
 42
0.000000
  0
VERTEX
  8
0
 10
173.711578
 20
141.500000
 42
0.000000
  0
VERTEX
  8
0
 10
176.377297
 20
139.055480
 42
0.021768
  0
VERTEX
  8
0
 10
177.511118
 20
138.103166
 42
0.022392
  0
VERTEX
  8
0
 10
178.713105
 20
137.262531
 42
0.022823
  0
VERTEX
  8
0
 10
179.816559
 20
136.630899
 42
0.082315
  0
VERTEX
  8
0
 10
180.585633
 20
136.384553
 42
-0.074080
  0
VERTEX
  8
0
 10
181.296217
 20
136.169703
 42
-0.031370
  0
VERTEX
  8
0
 10
182.170333
 20
135.687362
 42
-0.030179
  0
VERTEX
  8
0
 10
183.055300
 20
135.045792
 42
-0.034637
  0
VERTEX
  8
0
 10
183.814126
 20
134.329072
 42
0.029839
  0
VERTEX
  8
0
 10
184.565113
 20
133.606013
 42
0.026429
  0
VERTEX
  8
0
 10
185.426796
 20
132.945574
 42
0.027351
  0
VERTEX
  8
0
 10
186.267758
 20
132.434119
 42
0.069543
  0
VERTEX
  8
0
 10
186.936671
 20
132.187776
 42
-0.078179
  0
VERTEX
  8
0
 10
187.613121
 20
131.925377
 42
-0.027656
  0
VERTEX
  8
0
 10
188.483985
 20
131.353100
 42
-0.026655
  0
VERTEX
  8
0
 10
189.386859
 20
130.607968
 42
-0.028277
  0
VERTEX
  8
0
 10
190.186671
 20
129.784767
 42
0.020371
  0
VERTEX
  8
0
 10
190.884671
 20
129.043262
 42
0.049434
  0
VERTEX
  8
0
 10
191.470369
 20
128.573408
 42
0.123892
  0
VERTEX
  8
0
 10
191.843400
 20
128.445314
 42
0.435702
  0
VERTEX
  8
0
 10
192.010331
 20
128.596990
 42
-0.758693
  0
VERTEX
  8
0
 10
192.344337
 20
128.686299
 42
-0.006405
  0
VERTEX
  8
0
 10
194.406890
 20
125.093780
 42
-0.010454
  0
VERTEX
  8
0
 10
196.523075
 20
121.101953
 42
-0.018748
  0
VERTEX
  8
0
 10
198.066202
 20
117.728891
 42
0.064214
  0
VERTEX
  8
0
 10
199.135721
 20
115.860160
 42
0.066357
  0
VERTEX
  8
0
 10
200.634160
 20
114.347246
 42
0.063357
  0
VERTEX
  8
0
 10
202.541208
 20
113.226949
 42
0.050850
  0
VERTEX
  8
0
 10
204.814897
 20
112.516175
 42
-0.013421
  0
VERTEX
  8
0
 10
205.570638
 20
112.340647
 42
-0.008210
  0
VERTEX
  8
0
 10
206.452449
 20
112.095200
 42
-0.008228
  0
VERTEX
  8
0
 10
207.318375
 20
111.823206
 42
-0.014469
  0
VERTEX
  8
0
 10
208.023226
 20
111.566123
 42
0.141564
  0
VERTEX
  8
0
 10
208.774101
 20
111.492743
 42
0.139012
  0
VERTEX
  8
0
 10
209.454496
 20
111.829924
 42
0.087502
  0
VERTEX
  8
0
 10
210.082704
 20
112.639547
 42
0.031111
  0
VERTEX
  8
0
 10
210.686361
 20
113.980033
 42
0.024256
  0
VERTEX
  8
0
 10
211.060520
 20
115.138424
 42
0.044690
  0
VERTEX
  8
0
 10
211.232409
 20
116.112885
 42
0.065635
  0
VERTEX
  8
0
 10
211.201610
 20
116.784792
 42
0.363303
  0
VERTEX
  8
0
 10
210.944521
 20
117.000000
 42
-0.228420
  0
VERTEX
  8
0
 10
210.662172
 20
117.136089
 42
-0.132621
  0
VERTEX
  8
0
 10
210.509359
 20
117.488813
 42
-0.083058
  0
VERTEX
  8
0
 10
210.520442
 20
118.026326
 42
-0.045044
  0
VERTEX
  8
0
 10
210.701324
 20
118.664045
 42
0.026179
  0
VERTEX
  8
0
 10
210.936014
 20
119.386586
 42
0.196415
  0
VERTEX
  8
0
 10
210.891636
 20
119.736436
 42
0.357523
  0
VERTEX
  8
0
 10
210.652308
 20
119.829264
 42
0.059284
  0
VERTEX
  8
0
 10
210.169939
 20
119.605028
 42
-0.085866
  0
VERTEX
  8
0
 10
209.708091
 20
119.419348
 42
-0.181031
  0
VERTEX
  8
0
 10
209.331520
 20
119.475196
 42
-0.181835
  0
VERTEX
  8
0
 10
209.085289
 20
119.764208
 42
-0.086691
  0
VERTEX
  8
0
 10
209.000000
 20
120.252422
 42
0.098683
  0
VERTEX
  8
0
 10
208.866072
 20
120.924390
 42
0.030905
  0
VERTEX
  8
0
 10
208.412500
 20
121.850913
 42
0.029530
  0
VERTEX
  8
0
 10
207.765427
 20
122.847057
 42
0.028734
  0
VERTEX
  8
0
 10
207.000000
 20
123.769625
 42
-0.019921
  0
VERTEX
  8
0
 10
206.234341
 20
124.660075
 42
-0.023671
  0
VERTEX
  8
0
 10
205.587500
 20
125.560371
 42
-0.023420
  0
VERTEX
  8
0
 10
205.121106
 20
126.358474
 42
-0.121092
  0
VERTEX
  8
0
 10
205.000000
 20
126.851198
 42
0.143474
  0
VERTEX
  8
0
 10
204.881694
 20
127.255002
 42
0.059979
  0
VERTEX
  8
0
 10
204.517331
 20
127.696635
 42
0.052576
  0
VERTEX
  8
0
 10
203.985472
 20
128.106105
 42
0.046193
  0
VERTEX
  8
0
 10
203.356872
 20
128.416550
 42
-0.045535
  0
VERTEX
  8
0
 10
202.772821
 20
128.704039
 42
-0.087530
  0
VERTEX
  8
0
 10
202.382783
 20
129.048230
 42
-0.144005
  0
VERTEX
  8
0
 10
202.243937
 20
129.388814
 42
-0.225315
  0
VERTEX
  8
0
 10
202.348196
 20
129.681529
 42
0.168396
  0
VERTEX
  8
0
 10
202.511861
 20
130.018846
 42
0.083285
  0
VERTEX
  8
0
 10
202.488683
 20
130.500240
 42
0.067654
  0
VERTEX
  8
0
 10
202.289099
 20
131.048024
 42
0.052103
  0
VERTEX
  8
0
 10
201.935517
 20
131.577698
 42
-0.035608
  0
VERTEX
  8
0
 10
201.498224
 20
132.188242
 42
-0.309606
  0
VERTEX
  8
0
 10
201.514098
 20
132.504563
 42
-0.245588
  0
VERTEX
  8
0
 10
201.836227
 20
132.655634
 42
-0.025657
  0
VERTEX
  8
0
 10
202.694193
 20
132.574378
 42
-0.052016
  0
VERTEX
  8
0
 10
203.384966
 20
132.398239
 42
-0.065231
  0
VERTEX
  8
0
 10
203.969544
 20
132.091011
 42
-0.078758
  0
VERTEX
  8
0
 10
204.365189
 20
131.706328
 42
-0.161957
  0
VERTEX
  8
0
 10
204.500000
 20
131.301051
 42
0.144596
  0
VERTEX
  8
0
 10
204.945569
 20
129.792531
 42
0.029775
  0
VERTEX
  8
0
 10
206.606082
 20
127.533827
 42
0.027919
  0
VERTEX
  8
0
 10
208.499517
 20
125.498485
 42
0.193792
  0
VERTEX
  8
0
 10
209.737349
 20
125.000000
 42
-0.077685
  0
VERTEX
  8
0
 10
210.219706
 20
124.924601
 42
-0.090172
  0
VERTEX
  8
0
 10
210.629096
 20
124.706250
 42
-0.100779
  0
VERTEX
  8
0
 10
210.902781
 20
124.381374
 42
-0.125453
  0
VERTEX
  8
0
 10
211.000000
 20
124.000000
 42
0.154397
  0
VERTEX
  8
0
 10
211.120645
 20
123.618616
 42
0.097848
  0
VERTEX
  8
0
 10
211.460420
 20
123.293750
 42
0.080290
  0
VERTEX
  8
0
 10
211.968061
 20
123.074524
 42
0.061935
  0
VERTEX
  8
0
 10
212.567388
 20
123.000000
 42
-0.088639
  0
VERTEX
  8
0
 10
213.242687
 20
122.879337
 42
-0.197727
  0
VERTEX
  8
0
 10
213.619739
 20
122.532245
 42
-0.144755
  0
VERTEX
  8
0
 10
213.710381
 20
121.927670
 42
-0.042184
  0
VERTEX
  8
0
 10
213.500000
 20
121.000000
 42
0.036682
  0
VERTEX
  8
0
 10
213.315993
 20
120.228052
 42
0.062176
  0
VERTEX
  8
0
 10
213.291798
 20
119.565025
 42
0.091749
  0
VERTEX
  8
0
 10
213.419274
 20
119.105674
 42
0.261683
  0
VERTEX
  8
0
 10
213.682612
 20
118.923489
 42
-0.012721
  0
VERTEX
  8
0
 10
214.109217
 20
118.872580
 42
-0.003737
  0
VERTEX
  8
0
 10
214.761137
 20
118.772926
 42
-0.003750
  0
VERTEX
  8
0
 10
215.493123
 20
118.649790
 42
-0.004020
  0
VERTEX
  8
0
 10
216.206363
 20
118.518377
 42
0.124084
  0
VERTEX
  8
0
 10
217.051537
 20
118.566317
 42
0.039990
  0
VERTEX
  8
0
 10
218.224129
 20
119.039438
 42
0.037053
  0
VERTEX
  8
0
 10
219.494647
 20
119.796737
 42
0.033969
  0
VERTEX
  8
0
 10
220.679183
 20
120.753642
 42
0.008156
  0
VERTEX
  8
0
 10
222.389222
 20
122.391104
 42
0.140189
  0
VERTEX
  8
0
 10
222.765405
 20
123.060169
 42
0.326306
  0
VERTEX
  8
0
 10
222.558331
 20
123.553809
 42
0.042585
  0
VERTEX
  8
0
 10
221.472820
 20
124.088468
 42
-0.015104
  0
VERTEX
  8
0
 10
220.764246
 20
124.390346
 42
-0.044928
  0
VERTEX
  8
0
 10
220.307372
 20
124.653606
 42
-0.190617
  0
VERTEX
  8
0
 10
220.196287
 20
124.822591
 42
-0.448149
  0
VERTEX
  8
0
 10
220.275680
 20
124.929715
 42
0.503798
  0
VERTEX
  8
0
 10
220.601397
 20
125.464483
 42
0.016506
  0
VERTEX
  8
0
 10
219.415487
 20
128.125050
 42
0.023363
  0
VERTEX
  8
0
 10
217.949849
 20
130.814080
 42
0.068091
  0
VERTEX
  8
0
 10
216.620325
 20
132.452416
 42
0.024846
  0
VERTEX
  8
0
 10
215.966387
 20
133.007060
 42
0.005171
  0
VERTEX
  8
0
 10
214.761701
 20
133.910384
 42
0.005417
  0
VERTEX
  8
0
 10
213.339615
 20
134.930404
 42
0.005092
  0
VERTEX
  8
0
 10
211.866316
 20
135.940948
 42
-0.058882
  0
VERTEX
  8
0
 10
209.756934
 20
137.749068
 42
-0.105869
  0
VERTEX
  8
0
 10
208.602710
 20
139.702989
 42
-0.299666
  0
VERTEX
  8
0
 10
208.904093
 20
140.837361
 42
-0.254162
  0
VERTEX
  8
0
 10
210.132837
 20
141.126394
 42
0.004463
  0
VERTEX
  8
0
 10
210.857918
 20
140.935189
 42
0.001244
  0
VERTEX
  8
0
 10
211.996849
 20
140.648712
 42
0.001255
  0
VERTEX
  8
0
 10
213.287308
 20
140.330968
 42
0.001317
  0
VERTEX
  8
0
 10
214.558564
 20
140.024881
 42
-0.026543
  0
VERTEX
  8
0
 10
215.916030
 20
139.624644
 42
-0.016220
  0
VERTEX
  8
0
 10
217.472187
 20
139.017076
 42
-0.016243
  0
VERTEX
  8
0
 10
218.978837
 20
138.313016
 42
-0.027609
  0
VERTEX
  8
0
 10
220.182277
 20
137.616223
 42
0.039615
  0
VERTEX
  8
0
 10
221.408232
 20
136.945125
 42
0.022335
  0
VERTEX
  8
0
 10
222.985698
 20
136.320548
 42
0.022178
  0
VERTEX
  8
0
 10
224.643840
 20
135.829369
 42
0.033645
  0
VERTEX
  8
0
 10
226.123713
 20
135.565616
 42
-0.012771
  0
VERTEX
  8
0
 10
229.277495
 20
135.138372
 42
-0.023069
  0
VERTEX
  8
0
 10
231.828454
 20
134.604459
 42
-0.027323
  0
VERTEX
  8
0
 10
233.987783
 20
133.919708
 42
-0.032432
  0
VERTEX
  8
0
 10
235.935103
 20
133.034732
 42
0.026339
  0
VERTEX
  8
0
 10
236.727532
 20
132.662900
 42
0.052247
  0
VERTEX
  8
0
 10
237.393436
 20
132.470216
 42
0.089916
  0
VERTEX
  8
0
 10
237.838626
 20
132.471144
 42
0.362017
  0
VERTEX
  8
0
 10
238.000000
 20
132.664816
 42
-0.305318
  0
VERTEX
  8
0
 10
238.110978
 20
132.829616
 42
-0.191032
  0
VERTEX
  8
0
 10
238.352500
 20
132.831540
 42
-0.075079
  0
VERTEX
  8
0
 10
238.738452
 20
132.610851
 42
-0.029031
  0
VERTEX
  8
0
 10
239.200000
 20
132.200000
 42
0.074885
  0
VERTEX
  8
0
 10
239.823411
 20
131.739798
 42
0.038502
  0
VERTEX
  8
0
 10
240.715854
 20
131.352500
 42
0.037184
  0
VERTEX
  8
0
 10
241.716065
 20
131.088405
 42
0.045986
  0
VERTEX
  8
0
 10
242.675249
 20
131.000000
 42
-0.033646
  0
VERTEX
  8
0
 10
243.912721
 20
130.916633
 42
-0.233879
  0
VERTEX
  8
0
 10
244.401145
 20
130.586746
 42
-0.198586
  0
VERTEX
  8
0
 10
244.480428
 20
129.956784
 42
-0.024116
  0
VERTEX
  8
0
 10
244.039093
 20
128.602823
 42
0.028273
  0
VERTEX
  8
0
 10
243.734344
 20
127.640838
 42
0.036956
  0
VERTEX
  8
0
 10
243.572492
 20
126.732737
 42
0.040417
  0
VERTEX
  8
0
 10
243.556374
 20
125.990431
 42
0.183602
  0
VERTEX
  8
0
 10
243.730511
 20
125.602823
 42
-0.189398
  0
VERTEX
  8
0
 10
243.829475
 20
125.375769
 42
-0.251591
  0
VERTEX
  8
0
 10
243.731954
 20
125.177079
 42
-0.115689
  0
VERTEX
  8
0
 10
243.403135
 20
125.041449
 42
-0.040237
  0
VERTEX
  8
0
 10
242.888908
 20
125.000000
 42
0.160811
  0
VERTEX
  8
0
 10
241.497821
 20
124.540718
 42
0.044981
  0
VERTEX
  8
0
 10
239.764416
 20
122.996676
 42
0.043901
  0
VERTEX
  8
0
 10
238.393929
 20
121.250608
 42
0.290614
  0
VERTEX
  8
0
 10
238.381151
 20
120.192301
 42
-0.184082
  0
VERTEX
  8
0
 10
238.458425
 20
119.789387
 42
-0.044256
  0
VERTEX
  8
0
 10
238.278382
 20
119.120819
 42
-0.039615
  0
VERTEX
  8
0
 10
237.919245
 20
118.339174
 42
-0.030381
  0
VERTEX
  8
0
 10
237.411324
 20
117.547842
 42
-0.016785
  0
VERTEX
  8
0
 10
236.868450
 20
116.855443
 42
-0.041546
  0
VERTEX
  8
0
 10
236.414577
 20
116.398063
 42
-0.110001
  0
VERTEX
  8
0
 10
236.128142
 20
116.246353
 42
-0.495062
  0
VERTEX
  8
0
 10
236.000000
 20
116.344054
 42
0.364967
  0
VERTEX
  8
0
 10
235.839350
 20
116.534827
 42
0.088298
  0
VERTEX
  8
0
 10
235.393723
 20
116.532543
 42
0.051560
  0
VERTEX
  8
0
 10
234.728134
 20
116.338054
 42
0.026025
  0
VERTEX
  8
0
 10
233.936078
 20
115.965790
 42
-0.038483
  0
VERTEX
  8
0
 10
232.893178
 20
115.506962
 42
-0.084730
  0
VERTEX
  8
0
 10
232.037443
 20
115.361403
 42
-0.100857
  0
VERTEX
  8
0
 10
231.278757
 20
115.516464
 42
-0.072648
  0
VERTEX
  8
0
 10
230.538888
 20
115.967726
 42
0.233486
  0
VERTEX
  8
0
 10
228.513526
 20
116.450441
 42
0.089587
  0
VERTEX
  8
0
 10
225.778174
 20
115.282710
 42
0.082556
  0
VERTEX
  8
0
 10
223.432941
 20
113.111366
 42
0.155074
  0
VERTEX
  8
0
 10
222.552609
 20
110.710459
 42
0.072216
  0
VERTEX
  8
0
 10
222.724505
 20
109.004702
 42
0.167694
  0
VERTEX
  8
0
 10
223.416670
 20
107.941085
 42
0.100810
  0
VERTEX
  8
0
 10
224.890500
 20
107.209691
 42
0.017365
  0
VERTEX
  8
0
 10
227.946825
 20
106.510241
 42
0.034131
  0
VERTEX
  8
0
 10
228.718924
 20
106.415560
 42
0.088253
  0
VERTEX
  8
0
 10
229.273897
 20
106.483755
 42
0.206626
  0
VERTEX
  8
0
 10
229.520548
 20
106.693978
 42
0.258279
  0
VERTEX
  8
0
 10
229.506320
 20
106.989774
 42
-0.505890
  0
VERTEX
  8
0
 10
229.645659
 20
107.335495
 42
-0.025844
  0
VERTEX
  8
0
 10
231.029306
 20
107.614965
 42
-0.024086
  0
VERTEX
  8
0
 10
233.003882
 20
107.812008
 42
-0.012825
  0
VERTEX
  8
0
 10
235.459220
 20
107.875000
 42
-0.013731
  0
VERTEX
  8
0
 10
237.992432
 20
107.805419
 42
-0.019809
  0
VERTEX
  8
0
 10
240.223595
 20
107.593866
 42
-0.016007
  0
VERTEX
  8
0
 10
242.009489
 20
107.294365
 42
-0.207674
  0
VERTEX
  8
0
 10
242.550710
 20
106.917950
 42
-0.197693
  0
VERTEX
  8
0
 10
242.816872
 20
105.301779
 42
-0.035282
  0
VERTEX
  8
0
 10
241.900601
 20
102.315050
 42
-0.036970
  0
VERTEX
  8
0
 10
240.540597
 20
99.441947
 42
-0.141785
  0
VERTEX
  8
0
 10
239.138896
 20
98.074335
 42
0.139352
  0
VERTEX
  8
0
 10
237.833574
 20
96.812857
 42
0.128961
  0
VERTEX
  8
0
 10
237.337612
 20
95.014166
 42
0.130495
  0
VERTEX
  8
0
 10
237.790004
 20
93.219872
 42
0.144211
  0
VERTEX
  8
0
 10
239.062288
 20
91.966664
 42
0.014239
  0
VERTEX
  8
0
 10
239.805785
 20
91.595592
 42
0.026502
  0
VERTEX
  8
0
 10
240.430797
 20
91.344901
 42
0.029583
  0
VERTEX
  8
0
 10
240.890813
 20
91.217928
 42
0.477198
  0
VERTEX
  8
0
 10
241.000000
 20
91.306281
 42
-0.425932
  0
VERTEX
  8
0
 10
241.135472
 20
91.436460
 42
-0.006825
  0
VERTEX
  8
0
 10
242.309064
 20
91.373623
 42
-0.013116
  0
VERTEX
  8
0
 10
243.747481
 20
91.238921
 42
-0.007752
  0
VERTEX
  8
0
 10
245.456387
 20
91.006619
 42
0.015554
  0
VERTEX
  8
0
 10
247.666396
 20
90.741240
 42
0.058064
  0
VERTEX
  8
0
 10
249.063457
 20
90.779802
 42
0.106163
  0
VERTEX
  8
0
 10
249.939317
 20
91.104613
 42
0.160797
  0
VERTEX
  8
0
 10
250.449324
 20
91.728536
 42
-0.072300
  0
VERTEX
  8
0
 10
250.724494
 20
92.219601
 42
-0.102143
  0
VERTEX
  8
0
 10
251.102938
 20
92.546276
 42
-0.124004
  0
VERTEX
  8
0
 10
251.522742
 20
92.658754
 42
-0.143117
  0
VERTEX
  8
0
 10
251.920941
 20
92.548861
 42
0.207595
  0
VERTEX
  8
0
 10
252.327508
 20
92.489825
 42
0.119179
  0
VERTEX
  8
0
 10
252.769151
 20
92.732483
 42
0.081930
  0
VERTEX
  8
0
 10
253.182160
 20
93.256320
 42
0.049245
  0
VERTEX
  8
0
 10
253.495391
 20
93.985479
 42
-0.039423
  0
VERTEX
  8
0
 10
253.808825
 20
94.756445
 42
-0.049463
  0
VERTEX
  8
0
 10
254.220911
 20
95.408235
 42
-0.057809
  0
VERTEX
  8
0
 10
254.664193
 20
95.858014
 42
-0.170932
  0
VERTEX
  8
0
 10
255.067388
 20
96.000000
 42
0.195359
  0
VERTEX
  8
0
 10
255.423625
 20
96.144711
 42
0.086773
  0
VERTEX
  8
0
 10
255.726045
 20
96.563021
 42
0.066655
  0
VERTEX
  8
0
 10
255.931347
 20
97.183079
 42
0.046690
  0
VERTEX
  8
0
 10
256.000000
 20
97.916667
 42
-0.112017
  0
VERTEX
  8
0
 10
256.344118
 20
99.433405
 42
-0.230992
  0
VERTEX
  8
0
 10
257.274248
 20
100.171169
 42
-0.180581
  0
VERTEX
  8
0
 10
258.634189
 20
99.978468
 42
-0.071955
  0
VERTEX
  8
0
 10
260.166667
 20
98.833333
 42
-0.139555
  0
VERTEX
  8
0
 10
261.165344
 20
97.039860
 42
-0.066575
  0
VERTEX
  8
0
 10
261.425318
 20
94.390278
 42
-0.068030
  0
VERTEX
  8
0
 10
260.987061
 20
91.852382
 42
-0.179484
  0
VERTEX
  8
0
 10
259.870838
 20
90.420174
 42
0.141555
  0
VERTEX
  8
0
 10
259.535381
 20
90.049809
 42
0.042029
  0
VERTEX
  8
0
 10
259.255809
 20
89.330569
 42
0.038467
  0
VERTEX
  8
0
 10
259.064168
 20
88.430687
 42
0.033245
  0
VERTEX
  8
0
 10
259.000000
 20
87.466663
 42
0.165460
  0
VERTEX
  8
0
 10
259.685504
 20
85.451859
 42
0.087319
  0
VERTEX
  8
0
 10
261.657418
 20
83.648775
 42
0.089997
  0
VERTEX
  8
0
 10
264.066256
 20
82.667048
 42
0.192596
  0
VERTEX
  8
0
 10
266.011388
 20
83.007038
 42
-0.050992
  0
VERTEX
  8
0
 10
266.608453
 20
83.296691
 42
-0.051609
  0
VERTEX
  8
0
 10
267.249389
 20
83.458068
 42
-0.056680
  0
VERTEX
  8
0
 10
267.837110
 20
83.475877
 42
-0.118203
  0
VERTEX
  8
0
 10
268.269562
 20
83.333401
 42
0.234357
  0
VERTEX
  8
0
 10
268.642398
 20
83.298564
 42
0.117787
  0
VERTEX
  8
0
 10
269.041870
 20
83.572873
 42
0.076420
  0
VERTEX
  8
0
 10
269.410679
 20
84.133310
 42
0.043455
  0
VERTEX
  8
0
 10
269.683939
 20
84.899384
 42
-0.044032
  0
VERTEX
  8
0
 10
269.971694
 20
85.703163
 42
-0.054792
  0
VERTEX
  8
0
 10
270.380347
 20
86.382944
 42
-0.064921
  0
VERTEX
  8
0
 10
270.841147
 20
86.848371
 42
-0.166702
  0
VERTEX
  8
0
 10
271.283298
 20
87.000000
 42
0.062424
  0
VERTEX
  8
0
 10
271.641381
 20
87.044881
 42
0.186072
  0
VERTEX
  8
0
 10
271.839423
 20
87.185462
 42
0.246305
  0
VERTEX
  8
0
 10
271.860559
 20
87.390840
 42
0.101586
  0
VERTEX
  8
0
 10
271.701972
 20
87.631361
 42
-0.218755
  0
VERTEX
  8
0
 10
271.559064
 20
88.017253
 42
-0.055302
  0
VERTEX
  8
0
 10
271.686327
 20
88.691534
 42
-0.046052
  0
VERTEX
  8
0
 10
272.020616
 20
89.506924
 42
-0.032486
  0
VERTEX
  8
0
 10
272.535305
 20
90.353868
 42
0.042701
  0
VERTEX
  8
0
 10
273.096302
 20
91.320928
 42
0.029212
  0
VERTEX
  8
0
 10
273.569746
 20
92.499753
 42
0.029517
  0
VERTEX
  8
0
 10
273.894450
 20
93.698693
 42
0.051411
  0
VERTEX
  8
0
 10
274.000000
 20
94.722506
 42
0.000000
  0
VERTEX
  8
0
 10
274.000000
 20
97.000000
 42
0.000000
  0
VERTEX
  8
0
 10
276.000000
 20
95.000000
 42
0.020808
  0
VERTEX
  8
0
 10
276.832183
 20
94.234342
 42
0.024869
  0
VERTEX
  8
0
 10
277.678749
 20
93.587500
 42
0.024792
  0
VERTEX
  8
0
 10
278.433041
 20
93.121765
 42
0.126563
  0
VERTEX
  8
0
 10
278.906380
 20
93.000000
 42
-0.242554
  0
VERTEX
  8
0
 10
279.210400
 20
92.843298
 42
-0.107133
  0
VERTEX
  8
0
 10
279.393810
 20
92.416069
 42
-0.070870
  0
VERTEX
  8
0
 10
279.426308
 20
91.773804
 42
-0.041231
  0
VERTEX
  8
0
 10
279.292927
 20
91.012151
 42
0.063474
  0
VERTEX
  8
0
 10
279.181220
 20
90.151015
 42
0.093232
  0
VERTEX
  8
0
 10
279.320302
 20
89.402453
 42
0.105762
  0
VERTEX
  8
0
 10
279.701002
 20
88.821854
 42
0.103688
  0
VERTEX
  8
0
 10
280.288384
 20
88.442831
 42
-0.120420
  0
VERTEX
  8
0
 10
280.932118
 20
87.996647
 42
-0.109468
  0
VERTEX
  8
0
 10
281.325250
 20
87.288764
 42
-0.078055
  0
VERTEX
  8
0
 10
281.460998
 20
86.274832
 42
-0.033416
  0
VERTEX
  8
0
 10
281.338465
 20
84.909556
 42
0.024449
  0
VERTEX
  8
0
 10
281.218023
 20
83.792727
 42
0.046351
  0
VERTEX
  8
0
 10
281.248839
 20
82.889249
 42
0.071928
  0
VERTEX
  8
0
 10
281.409414
 20
82.309810
 42
0.370747
  0
VERTEX
  8
0
 10
281.686628
 20
82.177001
 42
-0.092676
  0
VERTEX
  8
0
 10
282.146414
 20
82.213156
 42
-0.018849
  0
VERTEX
  8
0
 10
282.958683
 20
82.095337
 42
-0.019270
  0
VERTEX
  8
0
 10
283.905993
 20
81.883227
 42
-0.017016
  0
VERTEX
  8
0
 10
284.874846
 20
81.591113
 42
0.037854
  0
VERTEX
  8
0
 10
285.829814
 20
81.346054
 42
0.048241
  0
VERTEX
  8
0
 10
286.735720
 20
81.274232
 42
0.056394
  0
VERTEX
  8
0
 10
287.468553
 20
81.370010
 42
0.176279
  0
VERTEX
  8
0
 10
287.874846
 20
81.642988
 42
-0.079759
  0
VERTEX
  8
0
 10
288.205664
 20
81.971165
 42
-0.048418
  0
VERTEX
  8
0
 10
288.683548
 20
82.248253
 42
-0.047105
  0
VERTEX
  8
0
 10
289.225517
 20
82.436649
 42
-0.060175
  0
VERTEX
  8
0
 10
289.750000
 20
82.500000
 42
0.038589
  0
VERTEX
  8
0
 10
290.216951
 20
82.536092
 42
0.069849
  0
VERTEX
  8
0
 10
290.583175
 20
82.646875
 42
0.111151
  0
VERTEX
  8
0
 10
290.795550
 20
82.809876
 42
0.260861
  0
VERTEX
  8
0
 10
290.831020
 20
83.000000
 42
-0.157993
  0
VERTEX
  8
0
 10
290.827109
 20
83.312580
 42
-0.015576
  0
VERTEX
  8
0
 10
291.075451
 20
84.032840
 42
-0.018450
  0
VERTEX
  8
0
 10
291.438431
 20
84.891192
 42
-0.013608
  0
VERTEX
  8
0
 10
291.900414
 20
85.813922
 42
0.036926
  0
VERTEX
  8
0
 10
292.382473
 20
86.900445
 42
0.067932
  0
VERTEX
  8
0
 10
292.581995
 20
87.845320
 42
0.085933
  0
VERTEX
  8
0
 10
292.502230
 20
88.648436
 42
0.105965
  0
VERTEX
  8
0
 10
292.154431
 20
89.313922
 42
-0.036392
  0
VERTEX
  8
0
 10
291.782997
 20
89.834235
 42
-0.033699
  0
VERTEX
  8
0
 10
291.480180
 20
90.416110
 42
-0.035442
  0
VERTEX
  8
0
 10
291.282628
 20
90.971717
 42
-0.087675
  0
VERTEX
  8
0
 10
291.241399
 20
91.400493
 42
0.149085
  0
VERTEX
  8
0
 10
291.132671
 20
91.893773
 42
0.021807
  0
VERTEX
  8
0
 10
290.584903
 20
92.774219
 42
0.023042
  0
VERTEX
  8
0
 10
289.822581
 20
93.784892
 42
0.017931
  0
VERTEX
  8
0
 10
288.906362
 20
94.812485
 42
-0.001198
  0
VERTEX
  8
0
 10
287.207428
 20
96.594175
 42
-0.168531
  0
VERTEX
  8
0
 10
287.088671
 20
96.856360
 42
-0.592466
  0
VERTEX
  8
0
 10
287.206896
 20
96.935939
 42
-0.002939
  0
VERTEX
  8
0
 10
288.787773
 20
96.106593
 42
0.047570
  0
VERTEX
  8
0
 10
289.802433
 20
95.684818
 42
0.037997
  0
VERTEX
  8
0
 10
290.958114
 20
95.422834
 42
0.039274
  0
VERTEX
  8
0
 10
292.075085
 20
95.346246
 42
0.074458
  0
VERTEX
  8
0
 10
292.963553
 20
95.488432
 42
-0.074377
  0
VERTEX
  8
0
 10
293.834224
 20
95.627914
 42
-0.099095
  0
VERTEX
  8
0
 10
294.619434
 20
95.479202
 42
-0.098030
  0
VERTEX
  8
0
 10
295.293001
 20
95.037752
 42
-0.071370
  0
VERTEX
  8
0
 10
295.838300
 20
94.324458
 42
0.091286
  0
VERTEX
  8
0
 10
296.469174
 20
93.563604
 42
0.084855
  0
VERTEX
  8
0
 10
297.345003
 20
93.053788
 42
0.069777
  0
VERTEX
  8
0
 10
298.490102
 20
92.799504
 42
0.038829
  0
VERTEX
  8
0
 10
299.922320
 20
92.797258
 42
-0.046043
  0
VERTEX
  8
0
 10
301.279552
 20
92.775580
 42
-0.031603
  0
VERTEX
  8
0
 10
302.797811
 20
92.513118
 42
-0.031930
  0
VERTEX
  8
0
 10
304.240292
 20
92.069745
 42
-0.054553
  0
VERTEX
  8
0
 10
305.361851
 20
91.498562
 42
0.055862
  0
VERTEX
  8
0
 10
306.616211
 20
90.863864
 42
0.049724
  0
VERTEX
  8
0
 10
308.029996
 20
90.491617
 42
0.045425
  0
VERTEX
  8
0
 10
309.607954
 20
90.385258
 42
0.033543
  0
VERTEX
  8
0
 10
311.352050
 20
90.543613
 42
-0.017024
  0
VERTEX
  8
0
 10
313.210065
 20
90.774369
 42
-0.086072
  0
VERTEX
  8
0
 10
314.247511
 20
90.688893
 42
-0.186549
  0
VERTEX
  8
0
 10
314.790893
 20
90.298679
 42
-0.145809
  0
VERTEX
  8
0
 10
315.000000
 20
89.596866
 42
0.194153
  0
VERTEX
  8
0
 10
315.620652
 20
88.058759
 42
0.111732
  0
VERTEX
  8
0
 10
317.315667
 20
86.945362
 42
0.079966
  0
VERTEX
  8
0
 10
319.885657
 20
86.426935
 42
0.049546
  0
VERTEX
  8
0
 10
322.966384
 20
86.610615
 42
-0.020522
  0
VERTEX
  8
0
 10
324.524738
 20
86.794611
 42
-0.035853
  0
VERTEX
  8
0
 10
325.824251
 20
86.800866
 42
-0.043138
  0
VERTEX
  8
0
 10
326.750727
 20
86.657919
 42
-0.345738
  0
VERTEX
  8
0
 10
327.000000
 20
86.340516
 42
0.355530
  0
VERTEX
  8
0
 10
327.668035
 20
85.519778
 42
0.040615
  0
VERTEX
  8
0
 10
330.212444
 20
85.204615
 42
0.040104
  0
VERTEX
  8
0
 10
332.869196
 20
85.305926
 42
0.228597
  0
VERTEX
  8
0
 10
334.027701
 20
86.044821
 42
-0.139907
  0
VERTEX
  8
0
 10
334.436624
 20
86.417614
 42
-0.174118
  0
VERTEX
  8
0
 10
334.944253
 20
86.476982
 42
-0.105162
  0
VERTEX
  8
0
 10
335.574998
 20
86.181648
 42
-0.034497
  0
VERTEX
  8
0
 10
336.352668
 20
85.504474
 42
0.087546
  0
VERTEX
  8
0
 10
337.301204
 20
84.840465
 42
0.028844
  0
VERTEX
  8
0
 10
338.888980
 20
84.209172
 42
0.027715
  0
VERTEX
  8
0
 10
340.765843
 20
83.699128
 42
0.028086
  0
VERTEX
  8
0
 10
342.679304
 20
83.402549
 42
-0.014113
  0
VERTEX
  8
0
 10
344.550714
 20
83.165802
 42
-0.016752
  0
VERTEX
  8
0
 10
346.300833
 20
82.833638
 42
-0.015695
  0
VERTEX
  8
0
 10
347.745814
 20
82.460897
 42
-0.095005
  0
VERTEX
  8
0
 10
348.431319
 20
82.109851
 42
0.078121
  0
VERTEX
  8
0
 10
349.774589
 20
81.364124
 42
0.017030
  0
VERTEX
  8
0
 10
352.298402
 20
80.536679
 42
0.018046
  0
VERTEX
  8
0
 10
355.198493
 20
79.806448
 42
0.021025
  0
VERTEX
  8
0
 10
358.000000
 20
79.329770
 42
0.019100
  0
VERTEX
  8
0
 10
360.573099
 20
79.101980
 42
0.004934
  0
VERTEX
  8
0
 10
364.735371
 20
78.934426
 42
0.000798
  0
VERTEX
  8
0
 10
369.317208
 20
78.802575
 42
0.422195
  0
VERTEX
  8
0
 10
369.500000
 20
78.980466
 42
-0.386219
  0
VERTEX
  8
0
 10
369.558753
 20
79.045183
 42
-0.000545
  0
VERTEX
  8
0
 10
371.335938
 20
79.215286
 42
-0.003676
  0
VERTEX
  8
0
 10
373.353483
 20
79.391222
 42
-0.002210
  0
VERTEX
  8
0
 10
375.750000
 20
79.571808
 42
-0.013580
  0
VERTEX
  8
0
 10
378.146332
 20
79.676437
 42
-0.022661
  0
VERTEX
  8
0
 10
380.164062
 20
79.618233
 42
-0.018939
  0
VERTEX
  8
0
 10
381.710257
 20
79.444289
 42
-0.370960
  0
VERTEX
  8
0
 10
382.000000
 20
79.107498
 42
0.158363
  0
VERTEX
  8
0
 10
382.172389
 20
78.576865
 42
0.011975
  0
VERTEX
  8
0
 10
383.101562
 20
77.360119
 42
0.015572
  0
VERTEX
  8
0
 10
384.313527
 20
75.942281
 42
0.011192
  0
VERTEX
  8
0
 10
385.750000
 20
74.433333
 42
-0.013441
  0
VERTEX
  8
0
 10
387.168634
 20
72.929644
 42
-0.019752
  0
VERTEX
  8
0
 10
388.325000
 20
71.528333
 42
-0.015610
  0
VERTEX
  8
0
 10
389.174957
 20
70.335762
 42
-0.223474
  0
VERTEX
  8
0
 10
389.250000
 20
69.833333
 42
0.188889
  0
VERTEX
  8
0
 10
389.275993
 20
69.516751
 42
0.132643
  0
VERTEX
  8
0
 10
389.514062
 20
69.244792
 42
0.092475
  0
VERTEX
  8
0
 10
389.944100
 20
69.061158
 42
0.054843
  0
VERTEX
  8
0
 10
390.500000
 20
69.000000
 42
-0.068870
  0
VERTEX
  8
0
 10
391.073318
 20
68.920655
 42
-0.085131
  0
VERTEX
  8
0
 10
391.559375
 20
68.688914
 42
-0.099915
  0
VERTEX
  8
0
 10
391.884374
 20
68.344827
 42
-0.140337
  0
VERTEX
  8
0
 10
392.000000
 20
67.940983
 42
0.108972
  0
VERTEX
  8
0
 10
392.078288
 20
67.586039
 42
0.182303
  0
VERTEX
  8
0
 10
392.293750
 20
67.374600
 42
0.161196
  0
VERTEX
  8
0
 10
392.617900
 20
67.343488
 42
0.082592
  0
VERTEX
  8
0
 10
393.000000
 20
67.500000
 42
-0.134850
  0
VERTEX
  8
0
 10
393.379802
 20
67.611476
 42
-0.190614
  0
VERTEX
  8
0
 10
393.706250
 20
67.488860
 42
-0.141757
  0
VERTEX
  8
0
 10
393.926524
 20
67.132109
 42
-0.067982
  0
VERTEX
  8
0
 10
394.000000
 20
66.594201
 42
0.108718
  0
VERTEX
  8
0
 10
394.145589
 20
65.932545
 42
0.055959
  0
VERTEX
  8
0
 10
394.587500
 20
65.203573
 42
0.051755
  0
VERTEX
  8
0
 10
395.235034
 20
64.522546
 42
0.053999
  0
VERTEX
  8
0
 10
396.000000
 20
64.000000
 42
-0.050820
  0
VERTEX
  8
0
 10
396.765013
 20
63.484507
 42
-0.050431
  0
VERTEX
  8
0
 10
397.412500
 20
62.824098
 42
-0.055023
  0
VERTEX
  8
0
 10
397.855267
 20
62.125359
 42
-0.114211
  0
VERTEX
  8
0
 10
398.000000
 20
61.500000
 42
0.115423
  0
VERTEX
  8
0
 10
398.146553
 20
60.873608
 42
0.054793
  0
VERTEX
  8
0
 10
398.595727
 20
60.171498
 42
0.050132
  0
VERTEX
  8
0
 10
399.252270
 20
59.506223
 42
0.050149
  0
VERTEX
  8
0
 10
400.028008
 20
58.985010
 42
-0.046669
  0
VERTEX
  8
0
 10
400.761187
 20
58.499748
 42
-0.069300
  0
VERTEX
  8
0
 10
401.287850
 20
57.939465
 42
-0.092842
  0
VERTEX
  8
0
 10
401.538079
 20
57.395213
 42
-0.202545
  0
VERTEX
  8
0
 10
401.468991
 20
56.949827
 42
0.088302
  0
VERTEX
  8
0
 10
401.325219
 20
56.587162
 42
0.167147
  0
VERTEX
  8
0
 10
401.365491
 20
56.279012
 42
0.177958
  0
VERTEX
  8
0
 10
401.582773
 20
56.073575
 42
0.101637
  0
VERTEX
  8
0
 10
401.940983
 20
56.000000
 42
-0.140337
  0
VERTEX
  8
0
 10
402.344827
 20
55.884374
 42
-0.099915
  0
VERTEX
  8
0
 10
402.688914
 20
55.559375
 42
-0.085131
  0
VERTEX
  8
0
 10
402.920655
 20
55.073318
 42
-0.068870
  0
VERTEX
  8
0
 10
403.000000
 20
54.500000
 42
0.064853
  0
VERTEX
  8
0
 10
403.074694
 20
53.926543
 42
0.082425
  0
VERTEX
  8
0
 10
403.293750
 20
53.440625
 42
0.098894
  0
VERTEX
  8
0
 10
403.618646
 20
53.115568
 42
0.148195
  0
VERTEX
  8
0
 10
404.000000
 20
53.000000
 42
-0.195654
  0
VERTEX
  8
0
 10
404.381985
 20
52.844577
 42
-0.086673
  0
VERTEX
  8
0
 10
404.706250
 20
52.395164
 42
-0.066561
  0
VERTEX
  8
0
 10
404.926392
 20
51.729059
 42
-0.046600
  0
VERTEX
  8
0
 10
405.000000
 20
50.940983
 42
0.043794
  0
VERTEX
  8
0
 10
405.065762
 20
50.191607
 42
0.095228
  0
VERTEX
  8
0
 10
405.271041
 20
49.654315
 42
0.173355
  0
VERTEX
  8
0
 10
405.574010
 20
49.412969
 42
0.224392
  0
VERTEX
  8
0
 10
405.922693
 20
49.452222
 42
-0.328178
  0
VERTEX
  8
0
 10
406.393284
 20
49.414195
 42
-0.048037
  0
VERTEX
  8
0
 10
407.094211
 20
48.676664
 42
-0.038957
  0
VERTEX
  8
0
 10
407.870175
 20
47.507858
 42
-0.023178
  0
VERTEX
  8
0
 10
408.615141
 20
46.011239
 42
0.018020
  0
VERTEX
  8
0
 10
409.360356
 20
44.474603
 42
0.025962
  0
VERTEX
  8
0
 10
410.136509
 20
43.178301
 42
0.024142
  0
VERTEX
  8
0
 10
410.852815
 20
42.215592
 42
0.224365
  0
VERTEX
  8
0
 10
411.309079
 20
42.000000
 42
-0.239988
  0
VERTEX
  8
0
 10
411.619469
 20
41.841915
 42
-0.108226
  0
VERTEX
  8
0
 10
411.807968
 20
41.411808
 42
-0.071685
  0
VERTEX
  8
0
 10
411.843141
 20
40.764829
 42
-0.041766
  0
VERTEX
  8
0
 10
411.709635
 20
39.997643
 42
0.070041
  0
VERTEX
  8
0
 10
411.605476
 20
39.103168
 42
0.086282
  0
VERTEX
  8
0
 10
411.768875
 20
38.280487
 42
0.089711
  0
VERTEX
  8
0
 10
412.192357
 20
37.585327
 42
0.082890
  0
VERTEX
  8
0
 10
412.843003
 20
37.059922
 42
-0.033141
  0
VERTEX
  8
0
 10
413.695555
 20
36.501161
 42
-0.205076
  0
VERTEX
  8
0
 10
413.949959
 20
36.056667
 42
-0.203203
  0
VERTEX
  8
0
 10
413.805020
 20
35.563151
 42
-0.032500
  0
VERTEX
  8
0
 10
413.103296
 20
34.812279
 42
-0.013298
  0
VERTEX
  8
0
 10
412.557873
 20
34.326475
 42
-0.130858
  0
VERTEX
  8
0
 10
412.282037
 20
34.196342
 42
-0.571263
  0
VERTEX
  8
0
 10
412.197316
 20
34.294247
 42
-0.046728
  0
VERTEX
  8
0
 10
412.367816
 20
34.678004
 42
0.171896
  0
VERTEX
  8
0
 10
412.458473
 20
35.202921
 42
0.132309
  0
VERTEX
  8
0
 10
412.213030
 20
35.734539
 42
0.091492
  0
VERTEX
  8
0
 10
411.629195
 20
36.219051
 42
0.048384
  0
VERTEX
  8
0
 10
410.764521
 20
36.598496
 42
0.043491
  0
VERTEX
  8
0
 10
407.943264
 20
37.258799
 42
0.028117
  0
VERTEX
  8
0
 10
404.599520
 20
37.549640
 42
0.020707
  0
VERTEX
  8
0
 10
401.588498
 20
37.516926
 42
0.398985
  0
VERTEX
  8
0
 10
401.000000
 20
36.896833
 42
-0.153107
  0
VERTEX
  8
0
 10
400.892751
 20
36.554802
 42
-0.098082
  0
VERTEX
  8
0
 10
400.590803
 20
36.263445
 42
-0.080734
  0
VERTEX
  8
0
 10
400.139619
 20
36.066867
 42
-0.062525
  0
VERTEX
  8
0
 10
399.606989
 20
36.000000
 42
0.109281
  0
VERTEX
  8
0
 10
399.021417
 20
35.870469
 42
0.064683
  0
VERTEX
  8
0
 10
398.414278
 20
35.485937
 42
0.059993
  0
VERTEX
  8
0
 10
397.878592
 20
34.919141
 42
0.062924
  0
VERTEX
  8
0
 10
397.502840
 20
34.250000
 42
0.015754
  0
VERTEX
  8
0
 10
396.609852
 20
31.837220
 42
0.015648
  0
VERTEX
  8
0
 10
395.868379
 20
29.367590
 42
0.016091
  0
VERTEX
  8
0
 10
395.422956
 20
27.449698
 42
0.741523
  0
VERTEX
  8
0
 10
395.657640
 20
27.324306
 42
-0.224052
  0
VERTEX
  8
0
 10
396.057841
 20
27.467935
 42
-0.036748
  0
VERTEX
  8
0
 10
396.890604
 20
27.325233
 42
-0.034361
  0
VERTEX
  8
0
 10
397.915797
 20
26.994721
 42
-0.024176
  0
VERTEX
  8
0
 10
399.018131
 20
26.490624
 42
0.013437
  0
VERTEX
  8
0
 10
400.665277
 20
25.694197
 42
0.134074
  0
VERTEX
  8
0
 10
401.414933
 20
25.575567
 42
0.251131
  0
VERTEX
  8
0
 10
401.886094
 20
25.899084
 42
0.055364
  0
VERTEX
  8
0
 10
402.249545
 20
26.846261
 42
-0.103362
  0
VERTEX
  8
0
 10
402.672413
 20
27.695980
 42
-0.145997
  0
VERTEX
  8
0
 10
403.359683
 20
28.179491
 42
-0.088213
  0
VERTEX
  8
0
 10
404.474308
 20
28.344729
 42
-0.021859
  0
VERTEX
  8
0
 10
406.323158
 20
28.210439
 42
-0.049671
  0
VERTEX
  8
0
 10
409.332440
 20
27.551777
 42
-0.141225
  0
VERTEX
  8
0
 10
411.092519
 20
26.359662
 42
-0.185613
  0
VERTEX
  8
0
 10
411.675349
 20
24.645912
 42
-0.097380
  0
VERTEX
  8
0
 10
411.147022
 20
22.423333
 42
0.043307
  0
VERTEX
  8
0
 10
410.244243
 20
19.879041
 42
0.090385
  0
VERTEX
  8
0
 10
410.089068
 20
17.789526
 42
0.121318
  0
VERTEX
  8
0
 10
410.672456
 20
16.179395
 42
0.123201
  0
VERTEX
  8
0
 10
411.934259
 20
15.035184
 42
0.061095
  0
VERTEX
  8
0
 10
413.836546
 20
14.298758
 42
0.059156
  0
VERTEX
  8
0
 10
415.881547
 20
14.033172
 42
0.075374
  0
VERTEX
  8
0
 10
417.468998
 20
14.256052
 42
0.331624
  0
VERTEX
  8
0
 10
418.000000
 20
14.968615
 42
-0.158061
  0
VERTEX
  8
0
 10
418.106083
 20
15.295808
 42
-0.151949
  0
VERTEX
  8
0
 10
418.385490
 20
15.504773
 42
-0.112270
  0
VERTEX
  8
0
 10
418.810221
 20
15.554674
 42
-0.065030
  0
VERTEX
  8
0
 10
419.312308
 20
15.433651
 42
0.180081
  0
VERTEX
  8
0
 10
419.915639
 20
15.427578
 42
0.076221
  0
VERTEX
  8
0
 10
420.637617
 20
15.820521
 42
0.061414
  0
VERTEX
  8
0
 10
421.364359
 20
16.529813
 42
0.045902
  0
VERTEX
  8
0
 10
421.981288
 20
17.465035
 42
-0.053359
  0
VERTEX
  8
0
 10
422.697985
 20
18.517105
 42
-0.064184
  0
VERTEX
  8
0
 10
423.582852
 20
19.321784
 42
-0.069653
  0
VERTEX
  8
0
 10
424.575494
 20
19.826886
 42
-0.083095
  0
VERTEX
  8
0
 10
425.609963
 20
20.000000
 42
-0.074280
  0
VERTEX
  8
0
 10
427.386181
 20
19.734659
 42
-0.173703
  0
VERTEX
  8
0
 10
428.448244
 20
18.942997
 42
-0.212763
  0
VERTEX
  8
0
 10
428.643289
 20
17.785922
 42
-0.110559
  0
VERTEX
  8
0
 10
427.963645
 20
16.456195
 42
0.022108
  0
VERTEX
  8
0
 10
427.539709
 20
15.896812
 42
0.048468
  0
VERTEX
  8
0
 10
427.278910
 20
15.427757
 42
0.098058
  0
VERTEX
  8
0
 10
427.211743
 20
15.120317
 42
0.419966
  0
VERTEX
  8
0
 10
427.329724
 20
15.000000
 42
-0.447632
  0
VERTEX
  8
0
 10
427.499668
 20
14.809730
 42
-0.014707
  0
VERTEX
  8
0
 10
427.337719
 20
13.678125
 42
-0.019189
  0
VERTEX
  8
0
 10
427.028293
 20
12.225916
 42
-0.011007
  0
VERTEX
  8
0
 10
426.550037
 20
10.500000
 42
0.008218
  0
VERTEX
  8
0
 10
425.836717
 20
7.980494
 42
0.068383
  0
VERTEX
  8
0
 10
425.691567
 20
6.805502
 42
0.219038
  0
VERTEX
  8
0
 10
425.963857
 20
6.234414
 42
0.175422
  0
VERTEX
  8
0
 10
426.611437
 20
6.000000
 42
-0.062453
  0
VERTEX
  8
0
 10
427.296830
 20
5.914056
 42
-0.024233
  0
VERTEX
  8
0
 10
428.212680
 20
5.632812
 42
-0.023538
  0
VERTEX
  8
0
 10
429.186716
 20
5.228476
 42
-0.026908
  0
VERTEX
  8
0
 10
430.074473
 20
4.750000
 42
0.033366
  0
VERTEX
  8
0
 10
431.212918
 20
4.155238
 42
0.137742
  0
VERTEX
  8
0
 10
431.974687
 20
4.047139
 42
0.155116
  0
VERTEX
  8
0
 10
432.629596
 20
4.355918
 42
0.045912
  0
VERTEX
  8
0
 10
433.378245
 20
5.191328
 42
-0.075179
  0
VERTEX
  8
0
 10
434.058179
 20
5.866385
 42
-0.039362
  0
VERTEX
  8
0
 10
435.075328
 20
6.494265
 42
-0.038041
  0
VERTEX
  8
0
 10
436.243660
 20
6.985903
 42
-0.047320
  0
VERTEX
  8
0
 10
437.391191
 20
7.251803
 42
0.072210
  0
VERTEX
  8
0
 10
439.268405
 20
7.786113
 42
0.089586
  0
VERTEX
  8
0
 10
440.764833
 20
8.810226
 42
0.120816
  0
VERTEX
  8
0
 10
441.522170
 20
10.041393
 42
0.219576
  0
VERTEX
  8
0
 10
441.382079
 20
11.190800
 42
-0.199834
  0
VERTEX
  8
0
 10
441.343627
 20
11.430436
 42
-0.297161
  0
VERTEX
  8
0
 10
441.493068
 20
11.571827
 42
-0.105443
  0
VERTEX
  8
0
 10
441.878439
 20
11.560231
 42
-0.031564
  0
VERTEX
  8
0
 10
442.442319
 20
11.383761
 42
-0.061745
  0
VERTEX
  8
0
 10
442.992689
 20
11.090383
 42
-0.092628
  0
VERTEX
  8
0
 10
443.371794
 20
10.701752
 42
-0.121099
  0
VERTEX
  8
0
 10
443.523411
 20
10.282806
 42
-0.166459
  0
VERTEX
  8
0
 10
443.435239
 20
9.895215
 42
0.157600
  0
VERTEX
  8
0
 10
443.351856
 20
9.555870
 42
0.191289
  0
VERTEX
  8
0
 10
443.493232
 20
9.262969
 42
0.127170
  0
VERTEX
  8
0
 10
443.864391
 20
9.064946
 42
0.059351
  0
VERTEX
  8
0
 10
444.409598
 20
9.000000
 42
-0.086989
  0
VERTEX
  8
0
 10
444.993822
 20
8.897583
 42
-0.160766
  0
VERTEX
  8
0
 10
445.368883
 20
8.602944
 42
-0.157266
  0
VERTEX
  8
0
 10
445.499760
 20
8.137534
 42
-0.082325
  0
VERTEX
  8
0
 10
445.377694
 20
7.541872
 42
0.136003
  0
VERTEX
  8
0
 10
445.312559
 20
6.865894
 42
0.150663
  0
VERTEX
  8
0
 10
445.611023
 20
6.283189
 42
0.099834
  0
VERTEX
  8
0
 10
446.314592
 20
5.802524
 42
0.038628
  0
VERTEX
  8
0
 10
447.439626
 20
5.425797
 42
-0.036041
  0
VERTEX
  8
0
 10
448.698058
 20
5.011621
 42
-0.127800
  0
VERTEX
  8
0
 10
449.371966
 20
4.505424
 42
-0.169702
  0
VERTEX
  8
0
 10
449.609181
 20
3.826516
 42
-0.076971
  0
VERTEX
  8
0
 10
449.463159
 20
2.883925
 42
0.052743
  0
VERTEX
  8
0
 10
449.281864
 20
1.998404
 42
0.164720
  0
VERTEX
  8
0
 10
449.418640
 20
1.414127
 42
0.179942
  0
VERTEX
  8
0
 10
449.870529
 20
1.064671
 42
0.065120
  0
VERTEX
  8
0
 10
450.682612
 20
0.923489
 42
-0.011442
  0
VERTEX
  8
0
 10
451.506546
 20
0.869892
 42
-0.006792
  0
VERTEX
  8
0
 10
452.485686
 20
0.770240
 42
-0.006795
  0
VERTEX
  8
0
 10
453.460019
 20
0.644248
 42
-0.011626
  0
VERTEX
  8
0
 10
454.268660
 20
0.509234
 42
0.235242
  0
VERTEX
  8
0
 10
455.678825
 20
0.904665
 42
0.051855
  0
VERTEX
  8
0
 10
457.408241
 20
2.830537
 42
0.053168
  0
VERTEX
  8
0
 10
458.659164
 20
5.005968
 42
0.309614
  0
VERTEX
  8
0
 10
458.428758
 20
6.237909
 42
-0.100347
  0
VERTEX
  8
0
 10
458.211052
 20
6.566335
 42
-0.016498
  0
VERTEX
  8
0
 10
457.946899
 20
7.284729
 42
-0.017570
  0
VERTEX
  8
0
 10
457.690214
 20
8.163382
 42
-0.014710
  0
VERTEX
  8
0
 10
457.478548
 20
9.111391
 42
0.035345
  0
VERTEX
  8
0
 10
457.228531
 20
10.047788
 42
0.040954
  0
VERTEX
  8
0
 10
456.857908
 20
10.892568
 42
0.045271
  0
VERTEX
  8
0
 10
456.429946
 20
11.537617
 42
0.144184
  0
VERTEX
  8
0
 10
456.009908
 20
11.830031
 42
-0.114679
  0
VERTEX
  8
0
 10
455.623720
 20
12.066864
 42
-0.069684
  0
VERTEX
  8
0
 10
455.296660
 20
12.494261
 42
-0.063979
  0
VERTEX
  8
0
 10
455.075403
 20
13.038316
 42
-0.064708
  0
VERTEX
  8
0
 10
455.000000
 20
13.618517
 42
-0.076642
  0
VERTEX
  8
0
 10
455.100415
 20
14.269760
 42
-0.265961
  0
VERTEX
  8
0
 10
455.402076
 20
14.547950
 42
-0.154567
  0
VERTEX
  8
0
 10
455.943582
 20
14.503636
 42
-0.025765
  0
VERTEX
  8
0
 10
456.900039
 20
14.053498
 42
0.037698
  0
VERTEX
  8
0
 10
457.865825
 20
13.626787
 42
0.139885
  0
VERTEX
  8
0
 10
458.523541
 20
13.585486
 42
0.178812
  0
VERTEX
  8
0
 10
459.008862
 20
13.895971
 42
0.070458
  0
VERTEX
  8
0
 10
459.400039
 20
14.600101
 42
0.048794
  0
VERTEX
  8
0
 10
459.868007
 20
16.298278
 42
0.131146
  0
VERTEX
  8
0
 10
459.757032
 20
17.536037
 42
0.090281
  0
VERTEX
  8
0
 10
459.001952
 20
18.823874
 42
0.015918
  0
VERTEX
  8
0
 10
457.099430
 20
20.898285
 42
-0.023516
  0
VERTEX
  8
0
 10
456.035322
 20
22.094514
 42
-0.035915
  0
VERTEX
  8
0
 10
455.242007
 20
23.233962
 42
-0.039839
  0
VERTEX
  8
0
 10
454.775240
 20
24.183809
 42
-0.268553
  0
VERTEX
  8
0
 10
454.849430
 20
24.682763
 42
0.013658
  0
VERTEX
  8
0
 10
455.070766
 20
24.976946
 42
0.466589
  0
VERTEX
  8
0
 10
455.051340
 20
25.051340
 42
0.277115
  0
VERTEX
  8
0
 10
454.946865
 20
25.041024
 42
0.010420
  0
VERTEX
  8
0
 10
454.623216
 20
24.789882
 42
-0.180453
  0
VERTEX
  8
0
 10
454.096454
 20
24.613158
 42
-0.042676
  0
VERTEX
  8
0
 10
453.159980
 20
24.724815
 42
-0.038554
  0
VERTEX
  8
0
 10
452.037525
 20
25.048849
 42
-0.029793
  0
VERTEX
  8
0
 10
450.873216
 20
25.565563
 42
0.024308
  0
VERTEX
  8
0
 10
449.770645
 20
26.069417
 42
0.047448
  0
VERTEX
  8
0
 10
448.844007
 20
26.341114
 42
0.077606
  0
VERTEX
  8
0
 10
448.216555
 20
26.363391
 42
0.379655
  0
VERTEX
  8
0
 10
448.000000
 20
26.119300
 42
-0.224800
  0
VERTEX
  8
0
 10
447.850627
 20
25.803854
 42
-0.114421
  0
VERTEX
  8
0
 10
447.448308
 20
25.605303
 42
-0.076663
  0
VERTEX
  8
0
 10
446.841320
 20
25.558124
 42
-0.045111
  0
VERTEX
  8
0
 10
446.121898
 20
25.678374
 42
-0.131954
  0
VERTEX
  8
0
 10
444.645456
 20
26.520147
 42
-0.073439
  0
VERTEX
  8
0
 10
443.394055
 20
28.188275
 42
-0.069948
  0
VERTEX
  8
0
 10
442.624349
 20
30.249827
 42
-0.092347
  0
VERTEX
  8
0
 10
442.557331
 20
32.250000
 42
0.073874
  0
VERTEX
  8
0
 10
442.559470
 20
32.918728
 42
0.100136
  0
VERTEX
  8
0
 10
442.356342
 20
33.485937
 42
0.119089
  0
VERTEX
  8
0
 10
441.983027
 20
33.862885
 42
0.139183
  0
VERTEX
  8
0
 10
441.500000
 20
34.000000
 42
-0.139854
  0
VERTEX
  8
0
 10
441.018718
 20
34.137304
 42
-0.120678
  0
VERTEX
  8
0
 10
440.649868
 20
34.514062
 42
-0.101039
  0
VERTEX
  8
0
 10
440.453559
 20
35.081256
 42
-0.073702
  0
VERTEX
  8
0
 10
440.463810
 20
35.750000
 42
0.071102
  0
VERTEX
  8
0
 10
440.479798
 20
36.529765
 42
0.044163
  0
VERTEX
  8
0
 10
440.288903
 20
37.426562
 42
0.043459
  0
VERTEX
  8
0
 10
439.936302
 20
38.297045
 42
0.059232
  0
VERTEX
  8
0
 10
439.465580
 20
39.000000
 42
-0.042605
  0
VERTEX
  8
0
 10
438.948442
 20
39.719466
 42
-0.025834
  0
VERTEX
  8
0
 10
438.458048
 20
40.646875
 42
-0.025779
  0
VERTEX
  8
0
 10
438.063788
 20
41.624877
 42
-0.040808
  0
VERTEX
  8
0
 10
437.840254
 20
42.500000
 42
0.060988
  0
VERTEX
  8
0
 10
437.573642
 20
43.392331
 42
0.031744
  0
VERTEX
  8
0
 10
437.040940
 20
44.426562
 42
0.031022
  0
VERTEX
  8
0
 10
436.350515
 20
45.433328
 42
0.041051
  0
VERTEX
  8
0
 10
435.596990
 20
46.250000
 42
-0.017342
  0
VERTEX
  8
0
 10
434.914708
 20
46.922553
 42
-0.039313
  0
VERTEX
  8
0
 10
434.459761
 20
47.485937
 42
-0.083061
  0
VERTEX
  8
0
 10
434.287968
 20
47.855648
 42
-0.495461
  0
VERTEX
  8
0
 10
434.397882
 20
48.000000
 42
0.533930
  0
VERTEX
  8
0
 10
434.525984
 20
48.191344
 42
0.028354
  0
VERTEX
  8
0
 10
434.147093
 20
48.980572
 42
0.024284
  0
VERTEX
  8
0
 10
433.483003
 20
50.056867
 42
0.012553
  0
VERTEX
  8
0
 10
432.555676
 20
51.338118
 42
-0.020777
  0
VERTEX
  8
0
 10
431.628014
 20
52.665244
 42
-0.032081
  0
VERTEX
  8
0
 10
430.951916
 20
53.890092
 42
-0.033478
  0
VERTEX
  8
0
 10
430.561356
 20
54.887286
 42
-0.279927
  0
VERTEX
  8
0
 10
430.671451
 20
55.338118
 42
0.123797
  0
VERTEX
  8
0
 10
430.821712
 20
55.589328
 42
0.257749
  0
VERTEX
  8
0
 10
430.775215
 20
55.805572
 42
0.161415
  0
VERTEX
  8
0
 10
430.524793
 20
55.953787
 42
0.053637
  0
VERTEX
  8
0
 10
430.095238
 20
56.000000
 42
-0.079562
  0
VERTEX
  8
0
 10
429.535939
 20
56.089565
 42
-0.039962
  0
VERTEX
  8
0
 10
428.874628
 20
56.367188
 42
-0.038377
  0
VERTEX
  8
0
 10
428.220911
 20
56.771647
 42
-0.046038
  0
VERTEX
  8
0
 10
427.678571
 20
57.250000
 42
-0.071216
  0
VERTEX
  8
0
 10
426.938502
 20
58.300350
 42
-0.053127
  0
VERTEX
  8
0
 10
426.431403
 20
59.625601
 42
-0.030987
  0
VERTEX
  8
0
 10
426.035745
 20
61.604394
 42
-0.007010
  0
VERTEX
  8
0
 10
425.620609
 20
65.007898
 42
0.048985
  0
VERTEX
  8
0
 10
424.925116
 20
68.348743
 42
0.019622
  0
VERTEX
  8
0
 10
423.355423
 20
72.752861
 42
0.014894
  0
VERTEX
  8
0
 10
421.544208
 20
76.904172
 42
0.145975
  0
VERTEX
  8
0
 10
420.282038
 20
78.311460
 42
-0.069361
  0
VERTEX
  8
0
 10
419.819438
 20
78.691944
 42
-0.085702
  0
VERTEX
  8
0
 10
419.517280
 20
79.160250
 42
-0.100429
  0
VERTEX
  8
0
 10
419.418912
 20
79.640993
 42
-0.139703
  0
VERTEX
  8
0
 10
419.537985
 20
80.061460
 42
0.096373
  0
VERTEX
  8
0
 10
419.673315
 20
80.419451
 42
0.174170
  0
VERTEX
  8
0
 10
419.619222
 20
80.724304
 42
0.171456
  0
VERTEX
  8
0
 10
419.382286
 20
80.928244
 42
0.093039
  0
VERTEX
  8
0
 10
419.000000
 20
81.000000
 42
-0.101261
  0
VERTEX
  8
0
 10
418.621649
 20
81.077418
 42
-0.177706
  0
VERTEX
  8
0
 10
418.391936
 20
81.293750
 42
-0.167455
  0
VERTEX
  8
0
 10
418.348919
 20
81.618194
 42
-0.088621
  0
VERTEX
  8
0
 10
418.500000
 20
82.000000
 42
0.088621
  0
VERTEX
  8
0
 10
418.651081
 20
82.381806
 42
0.167455
  0
VERTEX
  8
0
 10
418.608064
 20
82.706250
 42
0.177706
  0
VERTEX
  8
0
 10
418.378351
 20
82.922582
 42
0.101261
  0
VERTEX
  8
0
 10
418.000000
 20
83.000000
 42
-0.089920
  0
VERTEX
  8
0
 10
417.616203
 20
83.069584
 42
-0.168680
  0
VERTEX
  8
0
 10
417.376430
 20
83.268661
 42
-0.176677
  0
VERTEX
  8
0
 10
417.318063
 20
83.565881
 42
-0.099764
  0
VERTEX
  8
0
 10
417.447214
 20
83.914590
 42
0.121055
  0
VERTEX
  8
0
 10
417.569809
 20
84.293863
 42
0.129291
  0
VERTEX
  8
0
 10
417.497991
 20
84.676662
 42
0.116342
  0
VERTEX
  8
0
 10
417.236263
 20
85.004148
 42
0.085998
  0
VERTEX
  8
0
 10
416.826320
 20
85.224560
 42
-0.142777
  0
VERTEX
  8
0
 10
416.406099
 20
85.515385
 42
-0.115049
  0
VERTEX
  8
0
 10
416.164868
 20
86.011369
 42
-0.090564
  0
VERTEX
  8
0
 10
416.136621
 20
86.668548
 42
-0.057244
  0
VERTEX
  8
0
 10
416.328519
 20
87.413724
 42
-0.071642
  0
VERTEX
  8
0
 10
416.717911
 20
88.110768
 42
-0.106516
  0
VERTEX
  8
0
 10
417.247942
 20
88.562741
 42
-0.116821
  0
VERTEX
  8
0
 10
417.878800
 20
88.731411
 42
-0.099091
  0
VERTEX
  8
0
 10
418.560367
 20
88.615209
 42
0.030122
  0
VERTEX
  8
0
 10
419.124534
 20
88.436863
 42
0.097944
  0
VERTEX
  8
0
 10
419.514387
 20
88.417084
 42
0.287127
  0
VERTEX
  8
0
 10
419.668366
 20
88.547779
 42
0.218735
  0
VERTEX
  8
0
 10
419.640613
 20
88.772483
 42
-0.254337
  0
VERTEX
  8
0
 10
419.581316
 20
89.840541
 42
-0.062857
  0
VERTEX
  8
0
 10
420.558946
 20
91.371841
 42
-0.064958
  0
VERTEX
  8
0
 10
421.857181
 20
92.574779
 42
-0.301453
  0
VERTEX
  8
0
 10
422.828680
 20
92.605881
 42
0.321229
  0
VERTEX
  8
0
 10
423.607430
 20
92.658965
 42
0.083951
  0
VERTEX
  8
0
 10
424.476225
 20
93.662433
 42
0.070102
  0
VERTEX
  8
0
 10
425.091491
 20
95.093249
 42
0.123381
  0
VERTEX
  8
0
 10
425.117865
 20
96.372681
 42
-0.185814
  0
VERTEX
  8
0
 10
425.158810
 20
96.658014
 42
-0.195737
  0
VERTEX
  8
0
 10
425.379601
 20
96.834466
 42
-0.113865
  0
VERTEX
  8
0
 10
425.777552
 20
96.858733
 42
-0.050182
  0
VERTEX
  8
0
 10
426.289245
 20
96.719248
 42
0.354983
  0
VERTEX
  8
0
 10
427.566850
 20
97.136694
 42
0.017176
  0
VERTEX
  8
0
 10
430.024460
 20
101.251266
 42
0.025663
  0
VERTEX
  8
0
 10
432.233350
 20
105.791931
 42
0.055862
  0
VERTEX
  8
0
 10
433.339245
 20
109.500000
 42
-0.018746
  0
VERTEX
  8
0
 10
433.667696
 20
110.998881
 42
-0.018186
  0
VERTEX
  8
0
 10
434.110306
 20
112.484389
 42
-0.008494
  0
VERTEX
  8
0
 10
434.892599
 20
114.675447
 42
-0.001009
  0
VERTEX
  8
0
 10
436.719250
 20
119.500000
 42
0.016546
  0
VERTEX
  8
0
 10
438.147057
 20
123.656723
 42
0.009115
  0
VERTEX
  8
0
 10
439.630322
 20
128.823693
 42
0.008854
  0
VERTEX
  8
0
 10
440.873905
 20
133.827040
 42
0.026887
  0
VERTEX
  8
0
 10
441.474266
 20
137.280013
 42
-0.028909
  0
VERTEX
  8
0
 10
441.680890
 20
138.440602
 42
-0.024986
  0
VERTEX
  8
0
 10
442.027649
 20
139.628796
 42
-0.025767
  0
VERTEX
  8
0
 10
442.452209
 20
140.675211
 42
-0.064029
  0
VERTEX
  8
0
 10
442.893788
 20
141.372022
 42
0.047497
  0
VERTEX
  8
0
 10
443.265941
 20
141.918571
 42
0.063665
  0
VERTEX
  8
0
 10
443.485708
 20
142.475707
 42
0.079530
  0
VERTEX
  8
0
 10
443.529208
 20
142.958615
 42
0.181068
  0
VERTEX
  8
0
 10
443.379797
 20
143.286870
 42
-0.172453
  0
VERTEX
  8
0
 10
442.977791
 20
144.132317
 42
-0.002861
  0
VERTEX
  8
0
 10
442.468415
 20
149.389865
 42
-0.007110
  0
VERTEX
  8
0
 10
441.997796
 20
155.518340
 42
-0.004842
  0
VERTEX
  8
0
 10
441.629248
 20
162.500000
 42
0.033093
  0
VERTEX
  8
0
 10
441.497495
 20
163.701522
 42
0.036839
  0
VERTEX
  8
0
 10
441.210098
 20
164.831655
 42
0.039799
  0
VERTEX
  8
0
 10
440.822493
 20
165.742772
 42
0.128981
  0
VERTEX
  8
0
 10
440.383851
 20
166.224783
 42
-0.143827
  0
VERTEX
  8
0
 10
439.990260
 20
166.683463
 42
-0.057813
  0
VERTEX
  8
0
 10
439.737372
 20
167.478444
 42
-0.050832
  0
VERTEX
  8
0
 10
439.648345
 20
168.455040
 42
-0.044584
  0
VERTEX
  8
0
 10
439.750429
 20
169.474783
 42
0.035374
  0
VERTEX
  8
0
 10
439.876938
 20
170.540425
 42
0.083396
  0
VERTEX
  8
0
 10
439.782243
 20
171.332677
 42
0.136421
  0
VERTEX
  8
0
 10
439.481464
 20
171.816137
 42
0.187940
  0
VERTEX
  8
0
 10
439.009588
 20
172.000000
 42
-0.128339
  0
VERTEX
  8
0
 10
438.586441
 20
172.110431
 42
-0.151433
  0
VERTEX
  8
0
 10
438.302529
 20
172.409354
 42
-0.127699
  0
VERTEX
  8
0
 10
438.208577
 20
172.861119
 42
-0.079524
  0
VERTEX
  8
0
 10
438.320777
 20
173.393547
 42
0.158502
  0
VERTEX
  8
0
 10
438.356939
 20
174.088101
 42
0.053282
  0
VERTEX
  8
0
 10
437.986449
 20
175.046627
 42
0.046664
  0
VERTEX
  8
0
 10
437.319816
 20
176.089977
 42
0.038717
  0
VERTEX
  8
0
 10
436.431708
 20
177.064157
 42
-0.015087
  0
VERTEX
  8
0
 10
435.529667
 20
177.964327
 42
-0.024892
  0
VERTEX
  8
0
 10
434.830780
 20
178.783229
 42
-0.022275
  0
VERTEX
  8
0
 10
434.356914
 20
179.458098
 42
-0.351778
  0
VERTEX
  8
0
 10
434.385406
 20
179.718739
 42
0.396905
  0
VERTEX
  8
0
 10
434.416390
 20
180.760709
 42
0.004578
  0
VERTEX
  8
0
 10
429.354830
 20
186.358898
 42
0.010137
  0
VERTEX
  8
0
 10
424.403765
 20
191.521040
 42
0.078385
  0
VERTEX
  8
0
 10
421.708066
 20
193.484629
 42
-0.037726
  0
VERTEX
  8
0
 10
420.965159
 20
193.938588
 42
-0.050170
  0
VERTEX
  8
0
 10
420.372667
 20
194.462643
 42
-0.060101
  0
VERTEX
  8
0
 10
420.001556
 20
194.975605
 42
-0.190365
  0
VERTEX
  8
0
 10
419.947608
 20
195.388197
 42
0.239004
  0
VERTEX
  8
0
 10
419.741864
 20
196.295493
 42
0.091768
  0
VERTEX
  8
0
 10
418.720486
 20
197.148084
 42
0.069878
  0
VERTEX
  8
0
 10
417.140972
 20
197.766212
 42
0.056666
  0
VERTEX
  8
0
 10
415.333333
 20
197.984687
 42
-0.039777
  0
VERTEX
  8
0
 10
414.479609
 20
198.058787
 42
-0.048454
  0
VERTEX
  8
0
 10
413.705208
 20
198.267221
 42
-0.055874
  0
VERTEX
  8
0
 10
413.113800
 20
198.568670
 42
-0.161867
  0
VERTEX
  8
0
 10
412.833333
 20
198.925000
 42
0.106070
  0
VERTEX
  8
0
 10
412.597782
 20
199.303039
 42
0.050765
  0
VERTEX
  8
0
 10
412.158354
 20
199.673750
 42
0.047122
  0
VERTEX
  8
0
 10
411.600747
 20
199.982122
 42
0.049320
  0
VERTEX
  8
0
 10
411.003617
 20
200.175000
 42
-0.051737
  0
VERTEX
  8
0
 10
410.357408
 20
200.387178
 42
-0.032307
  0
VERTEX
  8
0
 10
409.651984
 20
200.759128
 42
-0.032225
  0
VERTEX
  8
0
 10
408.997004
 20
201.221057
 42
-0.049672
  0
VERTEX
  8
0
 10
408.503617
 20
201.707136
 42
0.080860
  0
VERTEX
  8
0
 10
407.933252
 20
202.203191
 42
0.031881
  0
VERTEX
  8
0
 10
407.012766
 20
202.695018
 42
0.030526
  0
VERTEX
  8
0
 10
405.930554
 20
203.109729
 42
0.033400
  0
VERTEX
  8
0
 10
404.837713
 20
203.375010
 42
-0.022519
  0
VERTEX
  8
0
 10
403.666205
 20
203.632550
 42
-0.014832
  0
VERTEX
  8
0
 10
402.344206
 20
204.028616
 42
-0.014935
  0
VERTEX
  8
0
 10
401.078493
 20
204.491522
 42
-0.027735
  0
VERTEX
  8
0
 10
400.087713
 20
204.953058
 42
0.022963
  0
VERTEX
  8
0
 10
399.286528
 20
205.335617
 42
0.044891
  0
VERTEX
  8
0
 10
398.613266
 20
205.551163
 42
0.072256
  0
VERTEX
  8
0
 10
398.154858
 20
205.586004
 42
0.394318
  0
VERTEX
  8
0
 10
398.000000
 20
205.420174
 42
-0.465530
  0
VERTEX
  8
0
 10
397.832719
 20
205.279443
 42
-0.050230
  0
VERTEX
  8
0
 10
397.277133
 20
205.434615
 42
-0.034388
  0
VERTEX
  8
0
 10
396.483745
 20
205.809561
 42
-0.017455
  0
VERTEX
  8
0
 10
395.539176
 20
206.382374
 42
0.065100
  0
VERTEX
  8
0
 10
394.176286
 20
207.040763
 42
0.019449
  0
VERTEX
  8
0
 10
391.953773
 20
207.682535
 42
0.019146
  0
VERTEX
  8
0
 10
389.377459
 20
208.215336
 42
0.019627
  0
VERTEX
  8
0
 10
386.789176
 20
208.544239
 42
-0.006243
  0
VERTEX
  8
0
 10
384.234708
 20
208.799592
 42
-0.006805
  0
VERTEX
  8
0
 10
381.759945
 20
209.112387
 42
-0.006425
  0
VERTEX
  8
0
 10
379.650043
 20
209.435989
 42
-0.033111
  0
VERTEX
  8
0
 10
378.500000
 20
209.706763
 42
0.043469
  0
VERTEX
  8
0
 10
375.757771
 20
210.292823
 42
0.030368
  0
VERTEX
  8
0
 10
372.600283
 20
210.491842
 42
0.028392
  0
VERTEX
  8
0
 10
369.737887
 20
210.335575
 42
0.138596
  0
VERTEX
  8
0
 10
368.250000
 20
209.729624
 42
-0.030191
  0
VERTEX
  8
0
 10
367.769788
 20
209.399808
 42
-0.069333
  0
VERTEX
  8
0
 10
367.367188
 20
209.228159
 42
-0.150349
  0
VERTEX
  8
0
 10
367.109824
 20
209.236886
 42
-0.319897
  0
VERTEX
  8
0
 10
367.000000
 20
209.390975
 42
0.437185
  0
VERTEX
  8
0
 10
366.813921
 20
209.563114
 42
0.032254
  0
VERTEX
  8
0
 10
366.045313
 20
209.453018
 42
0.028764
  0
VERTEX
  8
0
 10
364.996753
 20
209.169278
 42
0.015845
  0
VERTEX
  8
0
 10
363.750000
 20
208.709267
 42
-0.030370
  0
VERTEX
  8
0
 10
362.184785
 20
208.182852
 42
-0.014784
  0
VERTEX
  8
0
 10
360.132997
 20
207.693449
 42
-0.014605
  0
VERTEX
  8
0
 10
357.960863
 20
207.308555
 42
-0.020436
  0
VERTEX
  8
0
 10
356.000629
 20
207.101373
 42
0.013996
  0
VERTEX
  8
0
 10
354.240706
 20
206.938246
 42
0.019382
  0
VERTEX
  8
0
 10
352.675888
 20
206.687041
 42
0.016252
  0
VERTEX
  8
0
 10
351.420748
 20
206.392580
 42
0.175612
  0
VERTEX
  8
0
 10
351.000629
 20
206.098565
 42
-0.190631
  0
VERTEX
  8
0
 10
350.582618
 20
205.823769
 42
-0.018884
  0
VERTEX
  8
0
 10
349.375602
 20
205.620242
 42
-0.021687
  0
VERTEX
  8
0
 10
347.866071
 20
205.490226
 42
-0.015529
  0
VERTEX
  8
0
 10
346.171632
 20
205.470746
 42
0.017111
  0
VERTEX
  8
0
 10
344.478310
 20
205.445921
 42
0.023936
  0
VERTEX
  8
0
 10
342.972086
 20
205.299752
 42
0.021743
  0
VERTEX
  8
0
 10
341.777772
 20
205.072436
 42
0.198980
  0
VERTEX
  8
0
 10
341.357694
 20
204.769744
 42
-0.176205
  0
VERTEX
  8
0
 10
341.011150
 20
204.496098
 42
-0.048545
  0
VERTEX
  8
0
 10
340.322838
 20
204.340334
 42
-0.042734
  0
VERTEX
  8
0
 10
339.453978
 20
204.305457
 42
-0.033534
  0
VERTEX
  8
0
 10
338.516645
 20
204.411204
 42
0.059992
  0
VERTEX
  8
0
 10
337.480584
 20
204.472969
 42
0.041322
  0
VERTEX
  8
0
 10
336.315355
 20
204.305326
 42
0.041560
  0
VERTEX
  8
0
 10
335.203799
 20
203.951030
 42
0.064312
  0
VERTEX
  8
0
 10
334.330583
 20
203.450970
 42
-0.038425
  0
VERTEX
  8
0
 10
333.501398
 20
202.917482
 42
-0.029395
  0
VERTEX
  8
0
 10
332.523671
 20
202.461802
 42
-0.030107
  0
VERTEX
  8
0
 10
331.551866
 20
202.142816
 42
-0.059769
  0
VERTEX
  8
0
 10
330.750000
 20
202.031803
 42
0.053991
  0
VERTEX
  8
0
 10
330.080533
 20
201.946968
 42
0.072802
  0
VERTEX
  8
0
 10
329.514063
 20
201.721189
 42
0.091578
  0
VERTEX
  8
0
 10
329.133482
 20
201.395872
 42
0.171883
  0
VERTEX
  8
0
 10
329.000000
 20
201.019052
 42
-0.199521
  0
VERTEX
  8
0
 10
328.824874
 20
200.597658
 42
-0.054342
  0
VERTEX
  8
0
 10
328.250025
 20
200.138026
 42
-0.046052
  0
VERTEX
  8
0
 10
327.424347
 20
199.714590
 42
-0.033993
  0
VERTEX
  8
0
 10
326.446892
 20
199.397315
 42
0.049683
  0
VERTEX
  8
0
 10
325.076441
 20
198.904520
 42
0.161049
  0
VERTEX
  8
0
 10
324.387502
 20
198.244679
 42
0.120803
  0
VERTEX
  8
0
 10
324.118676
 20
197.179310
 42
0.022675
  0
VERTEX
  8
0
 10
324.196892
 20
195.154639
 42
0.031799
  0
VERTEX
  8
0
 10
324.500350
 20
193.112690
 42
0.125157
  0
VERTEX
  8
0
 10
325.060759
 20
191.981941
 42
0.119776
  0
VERTEX
  8
0
 10
326.107628
 20
191.229450
 42
0.028004
  0
VERTEX
  8
0
 10
328.168154
 20
190.526376
 42
-0.012501
  0
VERTEX
  8
0
 10
329.627435
 20
190.078432
 42
-0.014893
  0
VERTEX
  8
0
 10
330.978664
 20
189.581185
 42
-0.013719
  0
VERTEX
  8
0
 10
332.085555
 20
189.100310
 42
-0.087501
  0
VERTEX
  8
0
 10
332.584821
 20
188.750000
 42
0.078358
  0
VERTEX
  8
0
 10
332.979474
 20
188.462256
 42
0.038147
  0
VERTEX
  8
0
 10
333.555993
 20
188.220312
 42
0.036635
  0
VERTEX
  8
0
 10
334.208120
 20
188.055292
 42
0.043680
  0
VERTEX
  8
0
 10
334.839837
 20
188.000000
 42
-0.093257
  0
VERTEX
  8
0
 10
335.816603
 20
187.816221
 42
-0.005498
  0
VERTEX
  8
0
 10
338.626909
 20
186.684127
 42
-0.008145
  0
VERTEX
  8
0
 10
341.955741
 20
185.236382
 42
-0.005903
  0
VERTEX
  8
0
 10
345.616481
 20
183.520432
 42
-0.013860
  0
VERTEX
  8
0
 10
350.206854
 20
181.143131
 42
-0.023006
  0
VERTEX
  8
0
 10
353.918810
 20
178.859251
 42
-0.025932
  0
VERTEX
  8
0
 10
357.069179
 20
176.467142
 42
-0.026233
  0
VERTEX
  8
0
 10
359.942275
 20
173.770432
 42
-0.018486
  0
VERTEX
  8
0
 10
363.792862
 20
169.447169
 42
-0.136408
  0
VERTEX
  8
0
 10
364.907223
 20
166.948616
 42
-0.353896
  0
VERTEX
  8
0
 10
364.069117
 20
165.524413
 42
-0.091370
  0
VERTEX
  8
0
 10
361.250000
 20
165.021962
 42
-0.063031
  0
VERTEX
  8
0
 10
357.785422
 20
165.481086
 42
-0.031237
  0
VERTEX
  8
0
 10
353.569250
 20
166.878756
 42
-0.024634
  0
VERTEX
  8
0
 10
349.812957
 20
168.609723
 42
-0.279377
  0
VERTEX
  8
0
 10
349.000000
 20
169.951108
 42
0.173977
  0
VERTEX
  8
0
 10
348.856389
 20
170.351343
 42
0.093351
  0
VERTEX
  8
0
 10
348.448468
 20
170.691888
 42
0.073643
  0
VERTEX
  8
0
 10
347.840734
 20
170.922334
 42
0.053906
  0
VERTEX
  8
0
 10
347.122445
 20
171.000000
 42
-0.109053
  0
VERTEX
  8
0
 10
345.619092
 20
171.331835
 42
-0.084054
  0
VERTEX
  8
0
 10
344.231234
 20
172.285822
 42
-0.110256
  0
VERTEX
  8
0
 10
343.479255
 20
173.430458
 42
-0.294884
  0
VERTEX
  8
0
 10
343.675343
 20
174.342009
 42
0.121041
  0
VERTEX
  8
0
 10
343.826632
 20
174.591850
 42
0.256884
  0
VERTEX
  8
0
 10
343.783229
 20
174.806715
 42
0.164125
  0
VERTEX
  8
0
 10
343.539339
 20
174.953985
 42
0.054525
  0
VERTEX
  8
0
 10
343.118630
 20
175.000000
 42
-0.111287
  0
VERTEX
  8
0
 10
342.381027
 20
175.166231
 42
-0.009732
  0
VERTEX
  8
0
 10
340.653528
 20
176.028125
 42
-0.012391
  0
VERTEX
  8
0
 10
338.616722
 20
177.159506
 42
-0.009321
  0
VERTEX
  8
0
 10
336.432546
 20
178.500000
 42
0.006617
  0
VERTEX
  8
0
 10
334.274038
 20
179.840863
 42
0.009378
  0
VERTEX
  8
0
 10
332.316305
 20
180.971875
 42
0.005988
  0
VERTEX
  8
0
 10
330.655436
 20
181.864475
 42
0.120875
  0
VERTEX
  8
0
 10
330.103027
 20
182.000000
 42
-0.119554
  0
VERTEX
  8
0
 10
329.688907
 20
182.100455
 42
-0.035918
  0
VERTEX
  8
0
 10
329.131281
 20
182.440625
 42
-0.033736
  0
VERTEX
  8
0
 10
328.539671
 20
182.925939
 42
-0.030913
  0
VERTEX
  8
0
 10
328.000000
 20
183.500000
 42
0.063676
  0
VERTEX
  8
0
 10
327.384758
 20
184.074183
 42
0.044302
  0
VERTEX
  8
0
 10
326.566390
 20
184.559375
 42
0.044521
  0
VERTEX
  8
0
 10
325.681633
 20
184.890014
 42
0.067264
  0
VERTEX
  8
0
 10
324.867768
 20
185.000000
 42
-0.082612
  0
VERTEX
  8
0
 10
324.024008
 20
185.140368
 42
-0.042934
  0
VERTEX
  8
0
 10
323.044683
 20
185.572452
 42
-0.041163
  0
VERTEX
  8
0
 10
322.089685
 20
186.203078
 42
-0.049242
  0
VERTEX
  8
0
 10
321.311834
 20
186.948773
 42
0.035153
  0
VERTEX
  8
0
 10
320.612765
 20
187.657731
 42
0.049432
  0
VERTEX
  8
0
 10
319.892040
 20
188.175930
 42
0.060441
  0
VERTEX
  8
0
 10
319.253998
 20
188.448586
 42
0.212276
  0
VERTEX
  8
0
 10
318.821621
 20
188.389756
 42
-0.096479
  0
VERTEX
  8
0
 10
318.508232
 20
188.271361
 42
-0.174252
  0
VERTEX
  8
0
 10
318.241351
 20
188.318876
 42
-0.171369
  0
VERTEX
  8
0
 10
318.062807
 20
188.526546
 42
-0.092937
  0
VERTEX
  8
0
 10
318.000000
 20
188.861528
 42
0.231904
  0
VERTEX
  8
0
 10
317.792023
 20
189.285824
 42
0.044506
  0
VERTEX
  8
0
 10
317.049509
 20
189.762106
 42
0.039169
  0
VERTEX
  8
0
 10
316.003604
 20
190.208118
 42
0.027153
  0
VERTEX
  8
0
 10
314.764288
 20
190.551771
 42
-0.030784
  0
VERTEX
  8
0
 10
313.451050
 20
190.926204
 42
-0.029901
  0
VERTEX
  8
0
 10
312.180490
 20
191.462017
 42
-0.031300
  0
VERTEX
  8
0
 10
311.123983
 20
192.068967
 42
-0.089083
  0
VERTEX
  8
0
 10
310.512146
 20
192.652502
 42
0.088731
  0
VERTEX
  8
0
 10
309.913554
 20
193.224206
 42
0.034454
  0
VERTEX
  8
0
 10
308.913673
 20
193.792126
 42
0.032765
  0
VERTEX
  8
0
 10
307.720059
 20
194.271865
 42
0.034822
  0
VERTEX
  8
0
 10
306.497859
 20
194.580091
 42
-0.026446
  0
VERTEX
  8
0
 10
305.325683
 20
194.854922
 42
-0.033660
  0
VERTEX
  8
0
 10
304.282704
 20
195.236202
 42
-0.035751
  0
VERTEX
  8
0
 10
303.485536
 20
195.660628
 42
-0.169007
  0
VERTEX
  8
0
 10
303.166667
 20
196.058816
 42
0.118055
  0
VERTEX
  8
0
 10
302.933141
 20
196.418852
 42
0.067638
  0
VERTEX
  8
0
 10
302.511118
 20
196.723527
 42
0.061575
  0
VERTEX
  8
0
 10
301.974816
 20
196.929833
 42
0.061135
  0
VERTEX
  8
0
 10
301.403098
 20
197.000000
 42
-0.046523
  0
VERTEX
  8
0
 10
300.731552
 20
197.062620
 42
-0.021947
  0
VERTEX
  8
0
 10
299.882917
 20
197.261183
 42
-0.021530
  0
VERTEX
  8
0
 10
299.005988
 20
197.548661
 42
-0.028358
  0
VERTEX
  8
0
 10
298.236431
 20
197.889133
 42
0.008014
  0
VERTEX
  8
0
 10
297.308525
 20
198.345644
 42
0.002210
  0
VERTEX
  8
0
 10
295.835077
 20
199.033498
 42
0.002232
  0
VERTEX
  8
0
 10
294.158768
 20
199.797991
 42
0.002332
  0
VERTEX
  8
0
 10
292.500000
 20
200.536271
 42
-0.001661
  0
VERTEX
  8
0
 10
290.841232
 20
201.271888
 42
-0.001596
  0
VERTEX
  8
0
 10
289.164923
 20
202.028390
 42
-0.001578
  0
VERTEX
  8
0
 10
287.691046
 20
202.704832
 42
-0.005779
  0
VERTEX
  8
0
 10
286.763569
 20
203.147138
 42
0.034828
  0
VERTEX
  8
0
 10
285.961326
 20
203.474020
 42
0.021598
  0
VERTEX
  8
0
 10
284.981697
 20
203.749472
 42
0.021632
  0
VERTEX
  8
0
 10
283.986175
 20
203.938512
 42
0.036116
  0
VERTEX
  8
0
 10
283.136014
 20
204.000000
 42
-0.067151
  0
VERTEX
  8
0
 10
282.320698
 20
204.109995
 42
-0.044516
  0
VERTEX
  8
0
 10
281.434721
 20
204.440625
 42
-0.044311
  0
VERTEX
  8
0
 10
280.615513
 20
204.925814
 42
-0.063785
  0
VERTEX
  8
0
 10
280.000000
 20
205.500000
 42
0.048620
  0
VERTEX
  8
0
 10
279.420878
 20
206.073944
 42
0.041624
  0
VERTEX
  8
0
 10
278.712154
 20
206.559375
 42
0.043623
  0
VERTEX
  8
0
 10
277.986912
 20
206.892121
 42
0.085951
  0
VERTEX
  8
0
 10
277.363986
 20
207.000000
 42
-0.047887
  0
VERTEX
  8
0
 10
276.707717
 20
207.062998
 42
-0.022001
  0
VERTEX
  8
0
 10
275.871428
 20
207.263577
 42
-0.021553
  0
VERTEX
  8
0
 10
275.003167
 20
207.553711
 42
-0.027847
  0
VERTEX
  8
0
 10
274.236431
 20
207.897282
 42
0.031980
  0
VERTEX
  8
0
 10
273.157228
 20
208.370205
 42
0.004241
  0
VERTEX
  8
0
 10
270.806952
 20
209.203144
 42
0.004901
  0
VERTEX
  8
0
 10
267.998860
 20
210.140907
 42
0.004096
  0
VERTEX
  8
0
 10
265.000000
 20
211.082754
 42
-0.008335
  0
VERTEX
  8
0
 10
261.798873
 20
212.118022
 42
-0.006646
  0
VERTEX
  8
0
 10
258.381250
 20
213.337555
 42
-0.006725
  0
VERTEX
  8
0
 10
255.245835
 20
214.551842
 42
-0.016801
  0
VERTEX
  8
0
 10
253.000000
 20
215.545470
 42
0.018180
  0
VERTEX
  8
0
 10
251.181206
 20
216.344173
 42
0.022701
  0
VERTEX
  8
0
 10
249.437690
 20
216.945336
 42
0.021757
  0
VERTEX
  8
0
 10
247.961580
 20
217.311468
 42
0.135727
  0
VERTEX
  8
0
 10
247.192136
 20
217.257378
 42
-0.115088
  0
VERTEX
  8
0
 10
246.568808
 20
217.188017
 42
-0.053598
  0
VERTEX
  8
0
 10
245.771392
 20
217.370896
 42
-0.049082
  0
VERTEX
  8
0
 10
244.936397
 20
217.754472
 42
-0.049075
  0
VERTEX
  8
0
 10
244.192136
 20
218.293461
 42
0.072429
  0
VERTEX
  8
0
 10
243.265705
 20
218.900755
 42
0.026886
  0
VERTEX
  8
0
 10
241.815826
 20
219.483022
 42
0.025969
  0
VERTEX
  8
0
 10
240.142420
 20
219.957337
 42
0.028442
  0
VERTEX
  8
0
 10
238.478762
 20
220.238469
 42
-0.018953
  0
VERTEX
  8
0
 10
236.785393
 20
220.491688
 42
-0.016163
  0
VERTEX
  8
0
 10
235.022687
 20
220.883385
 42
-0.016466
  0
VERTEX
  8
0
 10
233.441707
 20
221.344708
 42
-0.043667
  0
VERTEX
  8
0
 10
232.360245
 20
221.807203
 42
0.026137
  0
VERTEX
  8
0
 10
231.521249
 20
222.201299
 42
0.036795
  0
VERTEX
  8
0
 10
230.735119
 20
222.455997
 42
0.040498
  0
VERTEX
  8
0
 10
230.094853
 20
222.558541
 42
0.219228
  0
VERTEX
  8
0
 10
229.773018
 20
222.439685
 42
-0.259348
  0
VERTEX
  8
0
 10
229.385332
 20
222.329091
 42
-0.013348
  0
VERTEX
  8
0
 10
228.079052
 20
222.671454
 42
-0.018432
  0
VERTEX
  8
0
 10
226.488341
 20
223.198384
 42
-0.012056
  0
VERTEX
  8
0
 10
224.694338
 20
223.916697
 42
0.012598
  0
VERTEX
  8
0
 10
222.805322
 20
224.670676
 42
0.013512
  0
VERTEX
  8
0
 10
220.923973
 20
225.309932
 42
0.013148
  0
VERTEX
  8
0
 10
219.283151
 20
225.771526
 42
0.060135
  0
VERTEX
  8
0
 10
218.302803
 20
225.897511
 42
-0.038864
  0
VERTEX
  8
0
 10
217.223101
 20
225.989914
 42
-0.005206
  0
VERTEX
  8
0
 10
214.973323
 20
226.384156
 42
-0.005991
  0
VERTEX
  8
0
 10
212.312274
 20
226.912142
 42
-0.005007
  0
VERTEX
  8
0
 10
209.500000
 20
227.534720
 42
0.002187
  0
VERTEX
  8
0
 10
206.673341
 20
228.177228
 42
0.002512
  0
VERTEX
  8
0
 10
203.968750
 20
228.765310
 42
0.002259
  0
VERTEX
  8
0
 10
201.671087
 20
229.241994
 42
0.014468
  0
VERTEX
  8
0
 10
200.500000
 20
229.444357
 42
-0.009498
  0
VERTEX
  8
0
 10
199.556095
 20
229.597818
 42
-0.004583
  0
VERTEX
  8
0
 10
198.353125
 20
229.828342
 42
-0.004543
  0
VERTEX
  8
0
 10
197.103143
 20
230.091614
 42
-0.006502
  0
VERTEX
  8
0
 10
196.000000
 20
230.349529
 42
0.017888
  0
VERTEX
  8
0
 10
194.762077
 20
230.609382
 42
0.007172
  0
VERTEX
  8
0
 10
193.052532
 20
230.879641
 42
0.007087
  0
VERTEX
  8
0
 10
191.200209
 20
231.118555
 42
0.008889
  0
VERTEX
  8
0
 10
189.476705
 20
231.285082
 42
-0.014777
  0
VERTEX
  8
0
 10
187.846462
 20
231.461997
 42
-0.016073
  0
VERTEX
  8
0
 10
186.274908
 20
231.731429
 42
-0.015718
  0
VERTEX
  8
0
 10
184.949287
 20
232.046529
 42
-0.072319
  0
VERTEX
  8
0
 10
184.226705
 20
232.359889
 42
0.027493
  0
VERTEX
  8
0
 10
183.755796
 20
232.616293
 42
0.057014
  0
VERTEX
  8
0
 10
183.360345
 20
232.751623
 42
0.106582
  0
VERTEX
  8
0
 10
183.100225
 20
232.752522
 42
0.354269
  0
VERTEX
  8
0
 10
183.000000
 20
232.628823
 42
-0.422542
  0
VERTEX
  8
0
 10
182.847671
 20
232.480752
 42
-0.023691
  0
VERTEX
  8
0
 10
182.118750
 20
232.536056
 42
-0.024869
  0
VERTEX
  8
0
 10
181.150601
 20
232.705066
 42
-0.014187
  0
VERTEX
  8
0
 10
180.000000
 20
233.000000
 42
0.022871
  0
VERTEX
  8
0
 10
178.754071
 20
233.296417
 42
0.054968
  0
VERTEX
  8
0
 10
177.809595
 20
233.370243
 42
0.096532
  0
VERTEX
  8
0
 10
177.214836
 20
233.234564
 42
0.296791
  0
VERTEX
  8
0
 10
177.000000
 20
232.904514
 42
-0.355887
  0
VERTEX
  8
0
 10
176.787855
 20
232.644213
 42
-0.086643
  0
VERTEX
  8
0
 10
176.192187
 20
232.626156
 42
-0.051885
  0
VERTEX
  8
0
 10
175.305180
 20
232.849084
 42
-0.026659
  0
VERTEX
  8
0
 10
174.250000
 20
233.299202
 42
0.048851
  0
VERTEX
  8
0
 10
172.882396
 20
233.812237
 42
0.036279
  0
VERTEX
  8
0
 10
171.296619
 20
234.115138
 42
0.035177
  0
VERTEX
  8
0
 10
169.625155
 20
234.191891
 42
0.037806
  0
VERTEX
  8
0
 10
168.000000
 20
234.028811
 42
-0.027495
  0
VERTEX
  8
0
 10
166.187116
 20
233.809090
 42
-0.008771
  0
VERTEX
  8
0
 10
163.471875
 20
233.678405
 42
-0.008724
  0
VERTEX
  8
0
 10
160.436696
 20
233.638626
 42
-0.009625
  0
VERTEX
  8
0
 10
157.500000
 20
233.707917
 42
-0.000720
  0
VERTEX
  8
0
 10
148.781188
 20
234.094239
 42
-0.045885
  0
VERTEX
  8
0
 10
147.268492
 20
234.303443
 42
-0.469468
  0
VERTEX
  8
0
 10
147.000235
 20
234.839735
 42
-0.073648
  0
VERTEX
  8
0
 10
147.722104
 20
235.988410
 42
-0.064415
  0
VERTEX
  8
0
 10
148.431403
 20
236.628361
 42
-0.057070
  0
VERTEX
  8
0
 10
149.308839
 20
237.097930
 42
-0.060212
  0
VERTEX
  8
0
 10
150.214036
 20
237.335906
 42
-0.098462
  0
VERTEX
  8
0
 10
151.003229
 20
237.288905
 42
0.061754
  0
VERTEX
  8
0
 10
151.729988
 20
237.192096
 42
0.063972
  0
VERTEX
  8
0
 10
152.449381
 20
237.277887
 42
0.070941
  0
VERTEX
  8
0
 10
153.053183
 20
237.524750
 42
0.122473
  0
VERTEX
  8
0
 10
153.439288
 20
237.901767
 42
-0.151264
  0
VERTEX
  8
0
 10
153.877158
 20
238.283467
 42
-0.134895
  0
VERTEX
  8
0
 10
154.475659
 20
238.373031
 42
-0.083552
  0
VERTEX
  8
0
 10
155.271481
 20
238.138713
 42
-0.030159
  0
VERTEX
  8
0
 10
156.302147
 20
237.557649
 42
0.138147
  0
VERTEX
  8
0
 10
158.945476
 20
236.742575
 42
0.121125
  0
VERTEX
  8
0
 10
161.775413
 20
237.365102
 42
0.114787
  0
VERTEX
  8
0
 10
164.107068
 20
239.274569
 42
0.115167
  0
VERTEX
  8
0
 10
165.352982
 20
242.014910
 42
0.022255
  0
VERTEX
  8
0
 10
165.938133
 20
245.812255
 42
0.079869
  0
VERTEX
  8
0
 10
165.813438
 20
248.254586
 42
0.116679
  0
VERTEX
  8
0
 10
164.976157
 20
250.020608
 42
0.079097
  0
VERTEX
  8
0
 10
163.321950
 20
251.524706
 42
0.080622
  0
VERTEX
  8
0
 10
160.568826
 20
252.751349
 42
0.035156
  0
VERTEX
  8
0
 10
156.626576
 20
253.501207
 42
0.030042
  0
VERTEX
  8
0
 10
152.868681
 20
253.717965
 42
0.259280
  0
VERTEX
  8
0
 10
151.455310
 20
252.927689
 42
-0.126079
  0
VERTEX
  8
0
 10
151.082592
 20
252.568880
 42
-0.045398
  0
VERTEX
  8
0
 10
150.406784
 20
252.263166
 42
-0.041486
  0
VERTEX
  8
0
 10
149.571688
 20
252.048897
 42
-0.038450
  0
VERTEX
  8
0
 10
148.690983
 20
251.968197
 42
0.092781
  0
VERTEX
  8
0
 10
146.892981
 20
251.604571
 42
0.036384
  0
VERTEX
  8
0
 10
144.613869
 20
250.483000
 42
0.075542
  0
VERTEX
  8
0
 10
143.350814
 20
249.459843
 42
0.636878
  0
VERTEX
  8
0
 10
143.558870
 20
248.960858
 42
-0.771248
  0
VERTEX
  8
0
 10
143.631263
 20
248.629838
 42
-0.019185
  0
VERTEX
  8
0
 10
141.367659
 20
247.581236
 42
-0.016188
  0
VERTEX
  8
0
 10
138.297502
 20
246.414829
 42
-0.023111
  0
VERTEX
  8
0
 10
135.500000
 20
245.596783
 42
-0.002709
  0
VERTEX
  8
0
 10
133.512150
 20
245.125348
 42
-0.230325
  0
VERTEX
  8
0
 10
133.217578
 20
245.192866
 42
-0.479676
  0
VERTEX
  8
0
 10
133.217944
 20
245.398141
 42
-0.005041
  0
VERTEX
  8
0
 10
134.500000
 20
246.402256
 42
-0.044636
  0
VERTEX
  8
0
 10
135.430241
 20
246.992131
 42
-0.030732
  0
VERTEX
  8
0
 10
136.573437
 20
247.495083
 42
-0.031069
  0
VERTEX
  8
0
 10
137.743192
 20
247.845304
 42
-0.053715
  0
VERTEX
  8
0
 10
138.750000
 20
247.968197
 42
0.132847
  0
VERTEX
  8
0
 10
140.345613
 20
248.424056
 42
0.276668
  0
VERTEX
  8
0
 10
140.930929
 20
249.525296
 42
0.172207
  0
VERTEX
  8
0
 10
140.298989
 20
251.052368
 42
0.064419
  0
VERTEX
  8
0
 10
138.513037
 20
252.583415
 42
0.034015
  0
VERTEX
  8
0
 10
136.951877
 20
253.460843
 42
0.131155
  0
VERTEX
  8
0
 10
135.867673
 20
253.661736
 42
0.099118
  0
VERTEX
  8
0
 10
134.664957
 20
253.322135
 42
0.015065
  0
VERTEX
  8
0
 10
132.467441
 20
252.113291
 42
-0.015801
  0
VERTEX
  8
0
 10
130.328004
 20
250.940494
 42
-0.092955
  0
VERTEX
  8
0
 10
129.104831
 20
250.582841
 42
-0.128806
  0
VERTEX
  8
0
 10
128.026877
 20
250.753607
 42
-0.041706
  0
VERTEX
  8
0
 10
126.595309
 20
251.529508
 42
0.084162
  0
VERTEX
  8
0
 10
124.545505
 20
252.425567
 42
0.145878
  0
VERTEX
  8
0
 10
122.703837
 20
252.341659
 42
0.153145
  0
VERTEX
  8
0
 10
121.269098
 20
251.275280
 42
0.095739
  0
VERTEX
  8
0
 10
120.376215
 20
249.362823
 42
-0.134285
  0
VERTEX
  8
0
 10
119.628070
 20
248.034309
 42
-0.347402
  0
VERTEX
  8
0
 10
118.606367
 20
247.908802
 42
-0.129780
  0
VERTEX
  8
0
 10
117.348459
 20
249.215984
 42
-0.028852
  0
VERTEX
  8
0
 10
115.986267
 20
252.033156
 42
0.044305
  0
VERTEX
  8
0
 10
114.984753
 20
253.951019
 42
0.178218
  0
VERTEX
  8
0
 10
113.948152
 20
254.736203
 42
0.155743
  0
VERTEX
  8
0
 10
112.558548
 20
254.717473
 42
0.031733
  0
SEQEND
  0
ENDSEC
  0
EOF
