  0
SECTION
  2
HEADER
  9
$ACADVER
  1
AC1006
  9
$EXTMIN
 10
0.000000
 20
0.000000
 30
0.000000
  9
$EXTMAX
 10
329.000000
 20
256.000000
 30
0.000000
  0
ENDSEC
  0
SECTION
  2
ENTITIES
  0
POLYLINE
  8
0
 66
1
 70
1
  0
VERTEX
  8
0
 10
68.500000
 20
254.683882
 42
0.030263
  0
VERTEX
  8
0
 10
64.102927
 20
253.080593
 42
0.041228
  0
VERTEX
  8
0
 10
60.385880
 20
251.085716
 42
0.036956
  0
VERTEX
  8
0
 10
56.757746
 20
248.334173
 42
0.018663
  0
VERTEX
  8
0
 10
52.595237
 20
244.377520
 42
0.039054
  0
VERTEX
  8
0
 10
48.617905
 20
239.610728
 42
0.040947
  0
VERTEX
  8
0
 10
45.500230
 20
234.355481
 42
0.032323
  0
VERTEX
  8
0
 10
42.760589
 20
227.670980
 42
0.013355
  0
VERTEX
  8
0
 10
39.891887
 20
218.319032
 42
0.022893
  0
VERTEX
  8
0
 10
38.757064
 20
213.364226
 42
0.021824
  0
VERTEX
  8
0
 10
38.058172
 20
208.246830
 42
0.014431
  0
VERTEX
  8
0
 10
37.631172
 20
201.502679
 42
0.003828
  0
VERTEX
  8
0
 10
37.343055
 20
190.719868
 42
0.006945
  0
VERTEX
  8
0
 10
37.267966
 20
176.189677
 42
0.025217
  0
VERTEX
  8
0
 10
37.813804
 20
166.971839
 42
0.038674
  0
VERTEX
  8
0
 10
39.099948
 20
160.169947
 42
0.046356
  0
VERTEX
  8
0
 10
41.375317
 20
154.066400
 42
0.000000
  0
VERTEX
  8
0
 10
43.915084
 20
148.801716
 42
0.000000
  0
VERTEX
  8
0
 10
40.073930
 20
143.650858
 42
0.013412
  0
VERTEX
  8
0
 10
37.218955
 20
139.600107
 42
0.023516
  0
VERTEX
  8
0
 10
35.110572
 20
136.083552
 42
0.027937
  0
VERTEX
  8
0
 10
33.615001
 20
132.883649
 42
0.036579
  0
VERTEX
  8
0
 10
32.636057
 20
129.808844
 42
-0.075064
  0
VERTEX
  8
0
 10
32.062914
 20
128.394258
 42
-0.015391
  0
VERTEX
  8
0
 10
30.614232
 20
126.111971
 42
-0.015879
  0
VERTEX
  8
0
 10
28.747327
 20
123.541297
 42
-0.014334
  0
VERTEX
  8
0
 10
26.658465
 20
121.002814
 42
0.019364
  0
VERTEX
  8
0
 10
24.310588
 20
118.090360
 42
0.010573
  0
VERTEX
  8
0
 10
21.648968
 20
114.351160
 42
0.010523
  0
VERTEX
  8
0
 10
19.101142
 20
110.431811
 42
0.016455
  0
VERTEX
  8
0
 10
17.093711
 20
106.945733
 42
-0.006245
  0
VERTEX
  8
0
 10
14.619417
 20
102.438544
 42
-0.051547
  0
VERTEX
  8
0
 10
13.267192
 20
100.534548
 42
-0.150479
  0
VERTEX
  8
0
 10
12.172182
 20
99.860874
 42
-0.188231
  0
VERTEX
  8
0
 10
10.996705
 20
100.001764
 42
0.055099
  0
VERTEX
  8
0
 10
9.029152
 20
100.790621
 42
0.120739
  0
VERTEX
  8
0
 10
7.417576
 20
100.840451
 42
0.102227
  0
VERTEX
  8
0
 10
5.794643
 20
100.128989
 42
0.032705
  0
VERTEX
  8
0
 10
3.739782
 20
98.459531
 42
0.060670
  0
VERTEX
  8
0
 10
1.949724
 20
96.342626
 42
0.101174
  0
VERTEX
  8
0
 10
1.089155
 20
94.182279
 42
0.187062
  0
VERTEX
  8
0
 10
1.385781
 20
92.659884
 42
0.257611
  0
VERTEX
  8
0
 10
2.581559
 20
92.000000
 42
-0.132632
  0
VERTEX
  8
0
 10
3.263381
 20
91.815899
 42
-0.310617
  0
VERTEX
  8
0
 10
3.477845
 20
91.361542
 42
-0.088841
  0
VERTEX
  8
0
 10
3.158964
 20
90.455888
 42
-0.009454
  0
VERTEX
  8
0
 10
2.016241
 20
88.526279
 42
0.065738
  0
VERTEX
  8
0
 10
0.487269
 20
85.123409
 42
0.090698
  0
VERTEX
  8
0
 10
0.120030
 20
81.801311
 42
0.126981
  0
VERTEX
  8
0
 10
0.948383
 20
79.329964
 42
0.216724
  0
VERTEX
  8
0
 10
2.750000
 20
78.180449
 42
0.046348
  0
VERTEX
  8
0
 10
3.746593
 20
78.132128
 42
0.116249
  0
VERTEX
  8
0
 10
4.442516
 20
78.328962
 42
0.157322
  0
VERTEX
  8
0
 10
4.851771
 20
78.766850
 42
0.110326
  0
VERTEX
  8
0
 10
5.000000
 20
79.430449
 42
-0.070535
  0
VERTEX
  8
0
 10
5.085042
 20
80.030291
 42
-0.086175
  0
VERTEX
  8
0
 10
5.333010
 20
80.538944
 42
-0.100212
  0
VERTEX
  8
0
 10
5.701346
 20
80.879014
 42
-0.137293
  0
VERTEX
  8
0
 10
6.133651
 20
81.000000
 42
0.140562
  0
VERTEX
  8
0
 10
6.717358
 20
81.167402
 42
0.026894
  0
VERTEX
  8
0
 10
7.629048
 20
81.807812
 42
0.026761
  0
VERTEX
  8
0
 10
8.643790
 20
82.697178
 42
0.021839
  0
VERTEX
  8
0
 10
9.632429
 20
83.750000
 42
0.000000
  0
VERTEX
  8
0
 10
11.997557
 20
86.500000
 42
0.000000
  0
VERTEX
  8
0
 10
11.998779
 20
83.356989
 42
0.039518
  0
VERTEX
  8
0
 10
12.102956
 20
82.047404
 42
0.056389
  0
VERTEX
  8
0
 10
12.414918
 20
80.924732
 42
0.068643
  0
VERTEX
  8
0
 10
12.894213
 20
80.089110
 42
0.137495
  0
VERTEX
  8
0
 10
13.500000
 20
79.638374
 42
-0.104363
  0
VERTEX
  8
0
 10
14.073641
 20
79.267132
 42
-0.066680
  0
VERTEX
  8
0
 10
14.559375
 20
78.635134
 42
-0.062710
  0
VERTEX
  8
0
 10
14.888006
 20
77.850994
 42
-0.068006
  0
VERTEX
  8
0
 10
15.000000
 20
77.031385
 42
0.079144
  0
VERTEX
  8
0
 10
15.159486
 20
76.030124
 42
0.169230
  0
VERTEX
  8
0
 10
15.628014
 20
75.415338
 42
0.117458
  0
VERTEX
  8
0
 10
16.515720
 20
75.090828
 42
0.029164
  0
VERTEX
  8
0
 10
18.071566
 20
75.000000
 42
0.026203
  0
VERTEX
  8
0
 10
19.714311
 20
75.086148
 42
0.140119
  0
VERTEX
  8
0
 10
20.538213
 20
75.418297
 42
0.192382
  0
VERTEX
  8
0
 10
20.920775
 20
76.072665
 42
0.057500
  0
VERTEX
  8
0
 10
20.960875
 20
77.250000
 42
-0.013096
  0
VERTEX
  8
0
 10
20.897960
 20
78.400365
 42
-0.004359
  0
VERTEX
  8
0
 10
20.864671
 20
80.087500
 42
-0.004336
  0
VERTEX
  8
0
 10
20.860298
 20
81.957862
 42
-0.004926
  0
VERTEX
  8
0
 10
20.889309
 20
83.750000
 42
-0.016222
  0
VERTEX
  8
0
 10
21.023324
 20
86.039044
 42
-0.092772
  0
VERTEX
  8
0
 10
21.353450
 20
87.204914
 42
-0.178608
  0
VERTEX
  8
0
 10
21.974079
 20
87.790503
 42
-0.101059
  0
VERTEX
  8
0
 10
23.000000
 20
88.000000
 42
-0.072062
  0
VERTEX
  8
0
 10
23.782624
 20
87.886616
 42
-0.093131
  0
VERTEX
  8
0
 10
24.427349
 20
87.556293
 42
-0.106255
  0
VERTEX
  8
0
 10
24.849385
 20
87.055107
 42
-0.122650
  0
VERTEX
  8
0
 10
25.000000
 20
86.450340
 42
0.063758
  0
VERTEX
  8
0
 10
25.101811
 20
85.655169
 42
0.018592
  0
VERTEX
  8
0
 10
25.457584
 20
84.471022
 42
0.018358
  0
VERTEX
  8
0
 10
25.961476
 20
83.155347
 42
0.018697
  0
VERTEX
  8
0
 10
26.557734
 20
81.888355
 42
0.034674
  0
VERTEX
  8
0
 10
27.407762
 20
80.491189
 42
0.082895
  0
VERTEX
  8
0
 10
28.259793
 20
79.632148
 42
0.106360
  0
VERTEX
  8
0
 10
29.201120
 20
79.220599
 42
0.085608
  0
VERTEX
  8
0
 10
30.307734
 20
79.188015
 42
0.097704
  0
VERTEX
  8
0
 10
31.470010
 20
79.594130
 42
0.155806
  0
VERTEX
  8
0
 10
32.166519
 20
80.371284
 42
0.078579
  0
VERTEX
  8
0
 10
32.559346
 20
81.820127
 42
0.012606
  0
VERTEX
  8
0
 10
32.802260
 20
84.750000
 42
-0.012298
  0
VERTEX
  8
0
 10
33.033935
 20
87.565399
 42
-0.071361
  0
VERTEX
  8
0
 10
33.400546
 20
89.006109
 42
-0.157833
  0
VERTEX
  8
0
 10
34.015271
 20
89.728957
 42
-0.139131
  0
VERTEX
  8
0
 10
34.970472
 20
90.000000
 42
-0.045417
  0
VERTEX
  8
0
 10
36.974371
 20
89.817603
 42
-0.074303
  0
VERTEX
  8
0
 10
38.584526
 20
89.266308
 42
-0.100396
  0
VERTEX
  8
0
 10
39.627480
 20
88.425789
 42
-0.174836
  0
VERTEX
  8
0
 10
40.000000
 20
87.393011
 42
0.142170
  0
VERTEX
  8
0
 10
40.154161
 20
86.861800
 42
0.099710
  0
VERTEX
  8
0
 10
40.587500
 20
86.409197
 42
0.084500
  0
VERTEX
  8
0
 10
41.235532
 20
86.104293
 42
0.067898
  0
VERTEX
  8
0
 10
42.000000
 20
86.000000
 42
0.099893
  0
VERTEX
  8
0
 10
43.031129
 20
86.208082
 42
0.187001
  0
VERTEX
  8
0
 10
43.634411
 20
86.790711
 42
0.093526
  0
VERTEX
  8
0
 10
43.928965
 20
87.961003
 42
0.015017
  0
VERTEX
  8
0
 10
44.000000
 20
90.325686
 42
0.077596
  0
VERTEX
  8
0
 10
43.433547
 20
93.953699
 42
0.103714
  0
VERTEX
  8
0
 10
41.792372
 20
96.843786
 42
0.122130
  0
VERTEX
  8
0
 10
39.363995
 20
98.521568
 42
0.138481
  0
VERTEX
  8
0
 10
36.551067
 20
98.765011
 42
-0.010227
  0
VERTEX
  8
0
 10
35.572767
 20
98.598659
 42
-0.017458
  0
VERTEX
  8
0
 10
34.749376
 20
98.505163
 42
-0.011925
  0
VERTEX
  8
0
 10
34.098405
 20
98.469779
 42
-0.423162
  0
VERTEX
  8
0
 10
34.000000
 20
98.565232
 42
-0.113762
  0
VERTEX
  8
0
 10
34.049712
 20
98.780897
 42
-0.000390
  0
VERTEX
  8
0
 10
35.232826
 20
101.206067
 42
-0.002092
  0
VERTEX
  8
0
 10
36.587980
 20
103.949256
 42
-0.001307
  0
VERTEX
  8
0
 10
38.196854
 20
107.151041
 42
-0.027909
  0
VERTEX
  8
0
 10
41.570209
 20
112.987669
 42
-0.031997
  0
VERTEX
  8
0
 10
45.435919
 20
118.138365
 42
-0.026888
  0
VERTEX
  8
0
 10
50.470293
 20
123.418549
 42
-0.012500
  0
VERTEX
  8
0
 10
57.524574
 20
129.737433
 42
-0.032614
  0
VERTEX
  8
0
 10
61.199065
 20
132.474738
 42
-0.089521
  0
VERTEX
  8
0
 10
64.171170
 20
133.719045
 42
-0.113081
  0
VERTEX
  8
0
 10
66.962716
 20
133.698717
 42
-0.071830
  0
VERTEX
  8
0
 10
70.000000
 20
132.500000
 42
0.122643
  0
VERTEX
  8
0
 10
74.681914
 20
131.177760
 42
0.007795
  0
VERTEX
  8
0
 10
89.053509
 20
130.953702
 42
0.011330
  0
VERTEX
  8
0
 10
103.237647
 20
131.275143
 42
0.052420
  0
VERTEX
  8
0
 10
111.338691
 20
132.500000
 42
-0.009483
  0
VERTEX
  8
0
 10
113.728109
 20
133.074203
 42
-0.009392
  0
VERTEX
  8
0
 10
116.145261
 20
133.559375
 42
-0.009290
  0
VERTEX
  8
0
 10
118.274806
 20
133.904622
 42
-0.035551
  0
VERTEX
  8
0
 10
119.614532
 20
134.000000
 42
0.030538
  0
VERTEX
  8
0
 10
120.702701
 20
134.066523
 42
0.022609
  0
VERTEX
  8
0
 10
121.891660
 20
134.267341
 42
0.023013
  0
VERTEX
  8
0
 10
123.001015
 20
134.560732
 42
0.046742
  0
VERTEX
  8
0
 10
123.832018
 20
134.910099
 42
-0.062413
  0
VERTEX
  8
0
 10
124.798529
 20
135.281344
 42
-0.015158
  0
VERTEX
  8
0
 10
126.473575
 20
135.641442
 42
-0.015310
  0
VERTEX
  8
0
 10
128.434383
 20
135.939444
 42
-0.014699
  0
VERTEX
  8
0
 10
130.436570
 20
136.121769
 42
-0.014751
  0
VERTEX
  8
0
 10
133.582229
 20
136.222209
 42
-0.128093
  0
VERTEX
  8
0
 10
134.926673
 20
135.875507
 42
-0.145623
  0
VERTEX
  8
0
 10
135.850549
 20
134.931094
 42
-0.020875
  0
VERTEX
  8
0
 10
137.023529
 20
132.461671
 42
0.000000
  0
VERTEX
  8
0
 10
138.706472
 20
128.500000
 42
0.000000
  0
VERTEX
  8
0
 10
134.512677
 20
128.838013
 42
0.062120
  0
VERTEX
  8
0
 10
131.026420
 20
128.685717
 42
0.143887
  0
VERTEX
  8
0
 10
128.694216
 20
127.548904
 42
0.151920
  0
VERTEX
  8
0
 10
127.424619
 20
125.381555
 42
0.071949
  0
VERTEX
  8
0
 10
127.147809
 20
122.121835
 42
-0.038340
  0
VERTEX
  8
0
 10
127.113714
 20
120.196425
 42
-0.069134
  0
VERTEX
  8
0
 10
126.750893
 20
118.663419
 42
-0.067972
  0
VERTEX
  8
0
 10
125.978608
 20
117.270293
 42
-0.035886
  0
VERTEX
  8
0
 10
124.682082
 20
115.772991
 42
0.119168
  0
VERTEX
  8
0
 10
122.448136
 20
112.114417
 42
0.112181
  0
VERTEX
  8
0
 10
122.065389
 20
107.753190
 42
0.140921
  0
VERTEX
  8
0
 10
123.575303
 20
104.334399
 42
0.222283
  0
VERTEX
  8
0
 10
126.428571
 20
103.000000
 42
0.089093
  0
VERTEX
  8
0
 10
127.028541
 20
103.107762
 42
0.095040
  0
VERTEX
  8
0
 10
127.538393
 20
103.416820
 42
0.099894
  0
VERTEX
  8
0
 10
127.879492
 20
103.877628
 42
0.109961
  0
VERTEX
  8
0
 10
128.000000
 20
104.418960
 42
-0.106820
  0
VERTEX
  8
0
 10
128.403295
 20
106.285151
 42
-0.032032
  0
VERTEX
  8
0
 10
129.778865
 20
108.865898
 42
-0.032815
  0
VERTEX
  8
0
 10
131.568336
 20
111.375895
 42
-0.059710
  0
VERTEX
  8
0
 10
133.379918
 20
113.120456
 42
-0.035809
  0
VERTEX
  8
0
 10
134.686515
 20
113.968464
 42
-0.435842
  0
VERTEX
  8
0
 10
135.193736
 20
113.801536
 42
-0.116707
  0
VERTEX
  8
0
 10
135.379484
 20
112.877904
 42
-0.003877
  0
VERTEX
  8
0
 10
135.222489
 20
109.111527
 42
0.035825
  0
VERTEX
  8
0
 10
135.324116
 20
104.535797
 42
0.083071
  0
VERTEX
  8
0
 10
136.202833
 20
101.227119
 42
0.126969
  0
VERTEX
  8
0
 10
137.804932
 20
99.237550
 42
0.161450
  0
VERTEX
  8
0
 10
140.029533
 20
98.500000
 42
0.079016
  0
VERTEX
  8
0
 10
141.432799
 20
98.723155
 42
0.207851
  0
VERTEX
  8
0
 10
142.179058
 20
99.384672
 42
0.088120
  0
VERTEX
  8
0
 10
142.558662
 20
100.812389
 42
0.008195
  0
VERTEX
  8
0
 10
142.806331
 20
104.465412
 42
-0.030191
  0
VERTEX
  8
0
 10
143.426428
 20
109.995233
 42
-0.154704
  0
VERTEX
  8
0
 10
144.832369
 20
112.702340
 42
-0.514478
  0
VERTEX
  8
0
 10
146.293681
 20
112.458240
 42
-0.074234
  0
VERTEX
  8
0
 10
147.378807
 20
109.032534
 42
0.034700
  0
VERTEX
  8
0
 10
148.524175
 20
104.094912
 42
0.108882
  0
VERTEX
  8
0
 10
150.189226
 20
101.147443
 42
0.138079
  0
VERTEX
  8
0
 10
152.680943
 20
99.566987
 42
0.070995
  0
VERTEX
  8
0
 10
156.365223
 20
99.013655
 42
0.128244
  0
VERTEX
  8
0
 10
157.331632
 20
99.258129
 42
0.219804
  0
VERTEX
  8
0
 10
157.815572
 20
99.914667
 42
0.074411
  0
VERTEX
  8
0
 10
157.891087
 20
101.313673
 42
0.007419
  0
VERTEX
  8
0
 10
157.523680
 20
104.656771
 42
0.005495
  0
VERTEX
  8
0
 10
157.215548
 20
106.920458
 42
0.006584
  0
VERTEX
  8
0
 10
156.874064
 20
109.043963
 42
0.005726
  0
VERTEX
  8
0
 10
156.542779
 20
110.823399
 42
0.042748
  0
VERTEX
  8
0
 10
156.304702
 20
111.648342
 42
-0.120001
  0
VERTEX
  8
0
 10
156.233312
 20
112.205017
 42
-0.100695
  0
VERTEX
  8
0
 10
156.416436
 20
112.772736
 42
-0.091951
  0
VERTEX
  8
0
 10
156.827424
 20
113.264533
 42
-0.081398
  0
VERTEX
  8
0
 10
157.404347
 20
113.601668
 42
-0.161035
  0
VERTEX
  8
0
 10
159.244041
 20
113.688344
 42
-0.032304
  0
VERTEX
  8
0
 10
162.383172
 20
112.589086
 42
-0.029436
  0
VERTEX
  8
0
 10
165.313318
 20
111.136341
 42
-0.269146
  0
VERTEX
  8
0
 10
166.000000
 20
109.953083
 42
0.312449
  0
VERTEX
  8
0
 10
166.632395
 20
109.039881
 42
0.168490
  0
VERTEX
  8
0
 10
168.063815
 20
109.003230
 42
0.108764
  0
VERTEX
  8
0
 10
169.696936
 20
109.948994
 42
0.146866
  0
VERTEX
  8
0
 10
170.565979
 20
111.406859
 42
0.093744
  0
VERTEX
  8
0
 10
170.700039
 20
113.677846
 42
0.092869
  0
VERTEX
  8
0
 10
169.996893
 20
115.849105
 42
0.086324
  0
VERTEX
  8
0
 10
168.496012
 20
117.741169
 42
0.068349
  0
VERTEX
  8
0
 10
166.325219
 20
119.199290
 42
-0.083575
  0
VERTEX
  8
0
 10
164.849784
 20
120.256532
 42
-0.088956
  0
VERTEX
  8
0
 10
163.839442
 20
121.718136
 42
-0.047835
  0
VERTEX
  8
0
 10
163.011708
 20
124.120663
 42
-0.008730
  0
VERTEX
  8
0
 10
161.989758
 20
128.718072
 42
0.000000
  0
VERTEX
  8
0
 10
160.312988
 20
136.936145
 42
0.000000
  0
VERTEX
  8
0
 10
173.156494
 20
136.828011
 42
-0.003290
  0
VERTEX
  8
0
 10
180.607708
 20
136.716238
 42
-0.029733
  0
VERTEX
  8
0
 10
183.854339
 20
136.452589
 42
-0.087443
  0
VERTEX
  8
0
 10
185.446328
 20
135.933979
 42
-0.277144
  0
VERTEX
  8
0
 10
186.000000
 20
135.011813
 42
-0.158088
  0
VERTEX
  8
0
 10
185.735002
 20
134.194622
 42
-0.056099
  0
VERTEX
  8
0
 10
184.896914
 20
133.275361
 42
-0.045359
  0
VERTEX
  8
0
 10
183.618994
 20
132.345921
 42
-0.028640
  0
VERTEX
  8
0
 10
181.982942
 20
131.492308
 42
0.068051
  0
VERTEX
  8
0
 10
178.570793
 20
129.355321
 42
0.074658
  0
VERTEX
  8
0
 10
175.979642
 20
126.438499
 42
0.082593
  0
VERTEX
  8
0
 10
174.549295
 20
123.169829
 42
0.116493
  0
VERTEX
  8
0
 10
174.499448
 20
120.002512
 42
0.038927
  0
VERTEX
  8
0
 10
174.908354
 20
118.652073
 42
0.084708
  0
VERTEX
  8
0
 10
175.464125
 20
117.726684
 42
0.110919
  0
VERTEX
  8
0
 10
176.184528
 20
117.190310
 42
0.105152
  0
VERTEX
  8
0
 10
177.079455
 20
117.000000
 42
0.077989
  0
VERTEX
  8
0
 10
177.819022
 20
117.116063
 42
0.092346
  0
VERTEX
  8
0
 10
178.440638
 20
117.452029
 42
0.102588
  0
VERTEX
  8
0
 10
178.853309
 20
117.955440
 42
0.121139
  0
VERTEX
  8
0
 10
179.000000
 20
118.552020
 42
-0.154513
  0
VERTEX
  8
0
 10
179.211839
 20
119.221160
 42
-0.060034
  0
VERTEX
  8
0
 10
179.869247
 20
119.951155
 42
-0.051936
  0
VERTEX
  8
0
 10
180.826934
 20
120.626170
 42
-0.043718
  0
VERTEX
  8
0
 10
181.959140
 20
121.135601
 42
0.046120
  0
VERTEX
  8
0
 10
183.136283
 20
121.672052
 42
0.042735
  0
VERTEX
  8
0
 10
184.227705
 20
122.427089
 42
0.045536
  0
VERTEX
  8
0
 10
185.081746
 20
123.274706
 42
0.098021
  0
VERTEX
  8
0
 10
185.526528
 20
124.083581
 42
-0.065502
  0
VERTEX
  8
0
 10
185.869790
 20
124.816232
 42
-0.065057
  0
VERTEX
  8
0
 10
186.391529
 20
125.437052
 42
-0.070911
  0
VERTEX
  8
0
 10
187.004955
 20
125.857064
 42
-0.115205
  0
VERTEX
  8
0
 10
187.617078
 20
126.000000
 42
-0.324609
  0
VERTEX
  8
0
 10
188.290297
 20
125.511456
 42
-0.214085
  0
VERTEX
  8
0
 10
188.184337
 20
124.520450
 42
-0.045159
  0
VERTEX
  8
0
 10
186.736818
 20
122.486740
 42
-0.005995
  0
VERTEX
  8
0
 10
183.250000
 20
118.517803
 42
0.018836
  0
VERTEX
  8
0
 10
181.332414
 20
116.218611
 42
0.037195
  0
VERTEX
  8
0
 10
180.024060
 20
114.235180
 42
0.047585
  0
VERTEX
  8
0
 10
179.254549
 20
112.482311
 42
0.079812
  0
VERTEX
  8
0
 10
179.000000
 20
110.897785
 42
0.037164
  0
VERTEX
  8
0
 10
179.126187
 20
109.202441
 42
0.201477
  0
VERTEX
  8
0
 10
179.595091
 20
108.431112
 42
0.141899
  0
VERTEX
  8
0
 10
180.582256
 20
108.076320
 42
0.015779
  0
VERTEX
  8
0
 10
183.000000
 20
108.000000
 42
0.022211
  0
VERTEX
  8
0
 10
184.746541
 20
108.077623
 42
0.056820
  0
VERTEX
  8
0
 10
185.985019
 20
108.331701
 42
0.094017
  0
VERTEX
  8
0
 10
186.735244
 20
108.744818
 42
0.223610
  0
VERTEX
  8
0
 10
187.000000
 20
109.307222
 42
-0.147793
  0
VERTEX
  8
0
 10
187.421655
 20
110.702565
 42
-0.014612
  0
VERTEX
  8
0
 10
189.468654
 20
113.593365
 42
-0.019522
  0
VERTEX
  8
0
 10
191.883073
 20
116.552292
 42
-0.031425
  0
VERTEX
  8
0
 10
194.185477
 20
118.850659
 42
-0.068181
  0
VERTEX
  8
0
 10
195.986446
 20
120.044912
 42
-0.005880
  0
VERTEX
  8
0
 10
200.994930
 20
122.388320
 42
-0.004554
  0
VERTEX
  8
0
 10
206.152729
 20
124.671646
 42
-0.102268
  0
VERTEX
  8
0
 10
207.741302
 20
125.000000
 42
-0.570054
  0
VERTEX
  8
0
 10
207.799089
 20
124.902400
 42
-0.033885
  0
VERTEX
  8
0
 10
207.571056
 20
124.546156
 42
-0.024845
  0
VERTEX
  8
0
 10
207.162779
 20
124.048250
 42
-0.012228
  0
VERTEX
  8
0
 10
206.597855
 20
123.454998
 42
0.097678
  0
VERTEX
  8
0
 10
205.183039
 20
121.344942
 42
0.034238
  0
VERTEX
  8
0
 10
204.003491
 20
117.872634
 42
0.033939
  0
VERTEX
  8
0
 10
203.312006
 20
114.299652
 42
0.108080
  0
VERTEX
  8
0
 10
203.534107
 20
111.892539
 42
0.178429
  0
VERTEX
  8
0
 10
204.621820
 20
110.492405
 42
0.181456
  0
VERTEX
  8
0
 10
206.349241
 20
110.145519
 42
0.166099
  0
VERTEX
  8
0
 10
207.992723
 20
111.022178
 42
0.153822
  0
VERTEX
  8
0
 10
208.819551
 20
112.750000
 42
-0.048467
  0
VERTEX
  8
0
 10
209.029157
 20
113.614245
 42
-0.061037
  0
VERTEX
  8
0
 10
209.391991
 20
114.352665
 42
-0.073572
  0
VERTEX
  8
0
 10
209.844245
 20
114.862606
 42
-0.166307
  0
VERTEX
  8
0
 10
210.319551
 20
115.046305
 42
0.163730
  0
VERTEX
  8
0
 10
210.944522
 20
115.284251
 42
0.020753
  0
VERTEX
  8
0
 10
212.034493
 20
116.259418
 42
0.022559
  0
VERTEX
  8
0
 10
213.264861
 20
117.568733
 42
0.016981
  0
VERTEX
  8
0
 10
214.500000
 20
119.111030
 42
-0.011780
  0
VERTEX
  8
0
 10
215.831558
 20
120.809625
 42
-0.009219
  0
VERTEX
  8
0
 10
217.352951
 20
122.590963
 42
-0.009340
  0
VERTEX
  8
0
 10
218.831105
 20
124.196960
 42
-0.022430
  0
VERTEX
  8
0
 10
219.999409
 20
125.314725
 42
0.017122
  0
VERTEX
  8
0
 10
223.924739
 20
128.991268
 42
0.020696
  0
VERTEX
  8
0
 10
227.337831
 20
132.710603
 42
0.022738
  0
VERTEX
  8
0
 10
230.026346
 20
136.206124
 42
0.048702
  0
VERTEX
  8
0
 10
231.694484
 20
139.168595
 42
-0.024876
  0
VERTEX
  8
0
 10
232.693297
 20
141.158236
 42
-0.087710
  0
VERTEX
  8
0
 10
233.600744
 20
142.257802
 42
-0.115805
  0
VERTEX
  8
0
 10
234.682990
 20
142.814749
 42
-0.061250
  0
VERTEX
  8
0
 10
236.189567
 20
143.000000
 42
0.077335
  0
VERTEX
  8
0
 10
237.637066
 20
143.225232
 42
0.043808
  0
VERTEX
  8
0
 10
239.277633
 20
143.911682
 42
0.037400
  0
VERTEX
  8
0
 10
241.048867
 20
145.018736
 42
0.025339
  0
VERTEX
  8
0
 10
242.894126
 20
146.523314
 42
-0.080554
  0
VERTEX
  8
0
 10
248.492514
 20
150.142996
 42
-0.054737
  0
VERTEX
  8
0
 10
255.747489
 20
152.417665
 42
-0.053022
  0
VERTEX
  8
0
 10
263.604676
 20
153.114970
 42
-0.062300
  0
VERTEX
  8
0
 10
271.000000
 20
152.058714
 42
-0.027915
  0
VERTEX
  8
0
 10
273.080684
 20
151.364290
 42
-0.013716
  0
VERTEX
  8
0
 10
275.646875
 20
150.263039
 42
-0.013564
  0
VERTEX
  8
0
 10
278.257094
 20
148.970044
 42
-0.019201
  0
VERTEX
  8
0
 10
280.500000
 20
147.669557
 42
-0.067387
  0
VERTEX
  8
0
 10
290.747819
 20
139.065616
 42
-0.087525
  0
VERTEX
  8
0
 10
297.282567
 20
128.716365
 42
-0.098031
  0
VERTEX
  8
0
 10
299.434636
 20
117.714077
 42
-0.109247
  0
VERTEX
  8
0
 10
297.079063
 20
107.175471
 42
-0.012286
  0
VERTEX
  8
0
 10
296.091271
 20
105.192248
 42
-0.018514
  0
VERTEX
  8
0
 10
295.125738
 20
103.520295
 42
-0.013676
  0
VERTEX
  8
0
 10
294.261209
 20
102.223710
 42
-0.243490
  0
VERTEX
  8
0
 10
293.829063
 20
102.000000
 42
0.162331
  0
VERTEX
  8
0
 10
293.512822
 20
101.894550
 42
0.096230
  0
VERTEX
  8
0
 10
293.243537
 20
101.596787
 42
0.077575
  0
VERTEX
  8
0
 10
293.061616
 20
101.152334
 42
0.058484
  0
VERTEX
  8
0
 10
293.000000
 20
100.627360
 42
-0.160652
  0
VERTEX
  8
0
 10
292.750734
 20
99.871591
 42
-0.017911
  0
VERTEX
  8
0
 10
291.604688
 20
98.433860
 42
-0.020327
  0
VERTEX
  8
0
 10
290.069194
 20
96.783804
 42
-0.015146
  0
VERTEX
  8
0
 10
288.250000
 20
95.087664
 42
0.000186
  0
VERTEX
  8
0
 10
286.269038
 20
93.348510
 42
0.000174
  0
VERTEX
  8
0
 10
284.244872
 20
91.568841
 42
0.000173
  0
VERTEX
  8
0
 10
282.449035
 20
89.987709
 42
0.000597
  0
VERTEX
  8
0
 10
281.285733
 20
88.960304
 42
-0.013804
  0
VERTEX
  8
0
 10
280.389073
 20
88.209597
 42
-0.017974
  0
VERTEX
  8
0
 10
279.526181
 20
87.575839
 42
-0.015751
  0
VERTEX
  8
0
 10
278.782534
 20
87.103332
 42
-0.134436
  0
VERTEX
  8
0
 10
278.405163
 20
87.000000
 42
0.135584
  0
VERTEX
  8
0
 10
277.974272
 20
86.880968
 42
0.005428
  0
VERTEX
  8
0
 10
276.575135
 20
86.023331
 42
0.009206
  0
VERTEX
  8
0
 10
274.932484
 20
84.949059
 42
0.006351
  0
VERTEX
  8
0
 10
273.110940
 20
83.675171
 42
-0.016267
  0
VERTEX
  8
0
 10
270.752599
 20
82.094574
 42
-0.006088
  0
VERTEX
  8
0
 10
267.348090
 20
80.027116
 42
-0.006024
  0
VERTEX
  8
0
 10
263.581787
 20
77.863038
 42
-0.007268
  0
VERTEX
  8
0
 10
259.991510
 20
75.925171
 42
0.002437
  0
VERTEX
  8
0
 10
256.701225
 20
74.190066
 42
0.003654
  0
VERTEX
  8
0
 10
253.847506
 20
72.640466
 42
0.001534
  0
VERTEX
  8
0
 10
251.421823
 20
71.290519
 42
0.079027
  0
VERTEX
  8
0
 10
251.000000
 20
70.957266
 42
-0.095494
  0
VERTEX
  8
0
 10
250.574844
 20
70.643389
 42
-0.002193
  0
VERTEX
  8
0
 10
248.296875
 20
69.567765
 42
-0.004817
  0
VERTEX
  8
0
 10
245.601831
 20
68.341113
 42
-0.003236
  0
VERTEX
  8
0
 10
242.500000
 20
66.989187
 42
0.006299
  0
VERTEX
  8
0
 10
239.410184
 20
65.619910
 42
0.009448
  0
VERTEX
  8
0
 10
236.752083
 20
64.340348
 42
0.004932
  0
VERTEX
  8
0
 10
234.553804
 20
63.203149
 42
0.171800
  0
VERTEX
  8
0
 10
234.166667
 20
62.781921
 42
-0.101161
  0
VERTEX
  8
0
 10
233.960015
 20
62.482826
 42
-0.063911
  0
VERTEX
  8
0
 10
233.617820
 20
62.229689
 42
-0.060430
  0
VERTEX
  8
0
 10
233.199165
 20
62.058311
 42
-0.067058
  0
VERTEX
  8
0
 10
232.766338
 20
62.000000
 42
0.097687
  0
VERTEX
  8
0
 10
231.564741
 20
61.762976
 42
0.006748
  0
VERTEX
  8
0
 10
228.369904
 20
60.400870
 42
0.005112
  0
VERTEX
  8
0
 10
223.155117
 20
58.029868
 42
0.000726
  0
VERTEX
  8
0
 10
212.500000
 20
53.034389
 42
0.002491
  0
VERTEX
  8
0
 10
194.876076
 20
44.632957
 42
0.012088
  0
VERTEX
  8
0
 10
185.020543
 20
39.577032
 42
0.021311
  0
VERTEX
  8
0
 10
178.588511
 20
35.714592
 42
0.037584
  0
VERTEX
  8
0
 10
173.690550
 20
31.924740
 42
0.028442
  0
VERTEX
  8
0
 10
169.085510
 20
27.272123
 42
0.057867
  0
VERTEX
  8
0
 10
166.151983
 20
23.055013
 42
0.067733
  0
VERTEX
  8
0
 10
164.544431
 20
18.743931
 42
0.055471
  0
VERTEX
  8
0
 10
164.000000
 20
13.851718
 42
0.098950
  0
VERTEX
  8
0
 10
165.393377
 20
6.879815
 42
0.154998
  0
VERTEX
  8
0
 10
169.310143
 20
2.249098
 42
0.136053
  0
VERTEX
  8
0
 10
175.617444
 20
0.361852
 42
0.069309
  0
VERTEX
  8
0
 10
183.897277
 20
1.344317
 42
0.027474
  0
VERTEX
  8
0
 10
189.688878
 20
3.208697
 42
0.039057
  0
VERTEX
  8
0
 10
194.569538
 20
5.532970
 42
0.044184
  0
VERTEX
  8
0
 10
198.027641
 20
7.954176
 42
0.221430
  0
VERTEX
  8
0
 10
199.000000
 20
10.042154
 42
0.233930
  0
VERTEX
  8
0
 10
198.320265
 20
11.415510
 42
0.164725
  0
VERTEX
  8
0
 10
196.658955
 20
11.975447
 42
0.082116
  0
VERTEX
  8
0
 10
193.925988
 20
11.519542
 42
0.030238
  0
VERTEX
  8
0
 10
190.297620
 20
10.029706
 42
-0.028388
  0
VERTEX
  8
0
 10
185.694192
 20
8.119582
 42
-0.039949
  0
VERTEX
  8
0
 10
181.396402
 20
6.991457
 42
-0.046738
  0
VERTEX
  8
0
 10
177.720148
 20
6.684021
 42
-0.109723
  0
VERTEX
  8
0
 10
175.050757
 20
7.304955
 42
-0.082206
  0
VERTEX
  8
0
 10
172.834260
 20
8.857947
 42
-0.093007
  0
VERTEX
  8
0
 10
171.347749
 20
10.984319
 42
-0.096118
  0
VERTEX
  8
0
 10
170.763811
 20
13.445175
 42
-0.094470
  0
VERTEX
  8
0
 10
171.136593
 20
15.961987
 42
-0.085666
  0
VERTEX
  8
0
 10
172.769997
 20
18.907356
 42
-0.032517
  0
VERTEX
  8
0
 10
175.958170
 20
22.383129
 42
-0.031664
  0
VERTEX
  8
0
 10
179.907311
 20
25.710870
 42
-0.038649
  0
VERTEX
  8
0
 10
184.000862
 20
28.275287
 42
0.002794
  0
VERTEX
  8
0
 10
186.116104
 20
29.398028
 42
0.001376
  0
VERTEX
  8
0
 10
188.794003
 20
30.848177
 42
0.001365
  0
VERTEX
  8
0
 10
191.566090
 20
32.369046
 42
0.001991
  0
VERTEX
  8
0
 10
194.000000
 20
33.725713
 42
-0.041558
  0
VERTEX
  8
0
 10
199.694804
 20
36.333485
 42
-0.008150
  0
VERTEX
  8
0
 10
210.357636
 20
39.986398
 42
-0.008514
  0
VERTEX
  8
0
 10
223.070587
 20
43.873398
 42
-0.007426
  0
VERTEX
  8
0
 10
236.500000
 20
47.515686
 42
0.015488
  0
VERTEX
  8
0
 10
247.304728
 20
50.633961
 42
0.008083
  0
VERTEX
  8
0
 10
260.572176
 20
55.150346
 42
0.007777
  0
VERTEX
  8
0
 10
273.180313
 20
59.893575
 42
0.025319
  0
VERTEX
  8
0
 10
281.305236
 20
63.580642
 42
0.015630
  0
VERTEX
  8
0
 10
287.135797
 20
66.825902
 42
0.008997
  0
VERTEX
  8
0
 10
293.958873
 20
71.076514
 42
0.008989
  0
VERTEX
  8
0
 10
300.489330
 20
75.478525
 42
0.019083
  0
VERTEX
  8
0
 10
305.345089
 20
79.164179
 42
0.048192
  0
VERTEX
  8
0
 10
310.321227
 20
84.123707
 42
0.023357
  0
VERTEX
  8
0
 10
315.721099
 20
91.315255
 42
0.022999
  0
VERTEX
  8
0
 10
320.662917
 20
99.351069
 42
0.031811
  0
VERTEX
  8
0
 10
324.280407
 20
107.000000
 42
0.012242
  0
VERTEX
  8
0
 10
326.460328
 20
112.904321
 42
0.032599
  0
VERTEX
  8
0
 10
327.632120
 20
117.238895
 42
0.030013
  0
VERTEX
  8
0
 10
328.281707
 20
121.887356
 42
0.009087
  0
VERTEX
  8
0
 10
328.713708
 20
129.000000
 42
0.026445
  0
VERTEX
  8
0
 10
328.603215
 20
139.635619
 42
0.042848
  0
VERTEX
  8
0
 10
327.262373
 20
148.573342
 42
0.044799
  0
VERTEX
  8
0
 10
324.476424
 20
156.866445
 42
0.032448
  0
VERTEX
  8
0
 10
319.986720
 20
165.521985
 42
0.028420
  0
VERTEX
  8
0
 10
315.421971
 20
172.191383
 42
0.038929
  0
VERTEX
  8
0
 10
310.546570
 20
177.586443
 42
0.039809
  0
VERTEX
  8
0
 10
304.984741
 20
182.070840
 42
0.031820
  0
VERTEX
  8
0
 10
298.360495
 20
186.000000
 42
-0.000691
  0
VERTEX
  8
0
 10
295.697324
 20
187.363303
 42
-0.001036
  0
VERTEX
  8
0
 10
293.376902
 20
188.561285
 42
-0.000413
  0
VERTEX
  8
0
 10
291.388484
 20
189.595171
 42
-0.023347
  0
VERTEX
  8
0
 10
291.028960
 20
189.804373
 42
-0.314164
  0
VERTEX
  8
0
 10
290.955065
 20
189.985006
 42
-0.106539
  0
VERTEX
  8
0
 10
291.080670
 20
190.256897
 42
-0.061608
  0
VERTEX
  8
0
 10
291.398074
 20
190.585477
 42
-0.031526
  0
VERTEX
  8
0
 10
291.866452
 20
190.917463
 42
0.120460
  0
VERTEX
  8
0
 10
292.342919
 20
191.401558
 42
0.060748
  0
VERTEX
  8
0
 10
292.691465
 20
192.189774
 42
0.055044
  0
VERTEX
  8
0
 10
292.869329
 20
193.140098
 42
0.053929
  0
VERTEX
  8
0
 10
292.837492
 20
194.113090
 42
0.065120
  0
VERTEX
  8
0
 10
292.510753
 20
195.291310
 42
0.126793
  0
VERTEX
  8
0
 10
291.922022
 20
196.061240
 42
0.105664
  0
VERTEX
  8
0
 10
290.953167
 20
196.535473
 42
0.036860
  0
VERTEX
  8
0
 10
289.414825
 20
196.801065
 42
0.042184
  0
VERTEX
  8
0
 10
288.061703
 20
196.818600
 42
0.051820
  0
VERTEX
  8
0
 10
286.818192
 20
196.598855
 42
0.058290
  0
VERTEX
  8
0
 10
285.781018
 20
196.166564
 42
0.091938
  0
VERTEX
  8
0
 10
285.042380
 20
195.551065
 42
-0.157166
  0
VERTEX
  8
0
 10
283.266320
 20
194.421939
 42
-0.373359
  0
VERTEX
  8
0
 10
281.967987
 20
195.065442
 42
-0.119744
  0
VERTEX
  8
0
 10
281.519614
 20
197.886341
 42
-0.032363
  0
VERTEX
  8
0
 10
282.180275
 20
202.397139
 42
-0.111187
  0
VERTEX
  8
0
 10
284.076291
 20
206.513970
 42
-0.277223
  0
VERTEX
  8
0
 10
287.038839
 20
207.686525
 42
-0.227559
  0
VERTEX
  8
0
 10
289.971251
 20
205.630507
 42
-0.088542
  0
VERTEX
  8
0
 10
291.642968
 20
200.831293
 42
0.074579
  0
VERTEX
  8
0
 10
292.580455
 20
197.878717
 42
0.279976
  0
VERTEX
  8
0
 10
294.150557
 20
196.875666
 42
0.242274
  0
VERTEX
  8
0
 10
295.968802
 20
197.760420
 42
0.061769
  0
VERTEX
  8
0
 10
297.646374
 20
200.696080
 42
0.025595
  0
VERTEX
  8
0
 10
298.400650
 20
202.797585
 42
0.063482
  0
VERTEX
  8
0
 10
298.671367
 20
204.407199
 42
0.063753
  0
VERTEX
  8
0
 10
298.529081
 20
206.029167
 42
0.025991
  0
VERTEX
  8
0
 10
297.944205
 20
208.169059
 42
0.037437
  0
VERTEX
  8
0
 10
297.053338
 20
210.314254
 42
0.104850
  0
VERTEX
  8
0
 10
296.038603
 20
211.575809
 42
0.082801
  0
VERTEX
  8
0
 10
294.456343
 20
212.480164
 42
0.017779
  0
VERTEX
  8
0
 10
291.444951
 20
213.472980
 42
0.007314
  0
VERTEX
  8
0
 10
289.318344
 20
214.057605
 42
0.008414
  0
VERTEX
  8
0
 10
287.272277
 20
214.551438
 42
0.007681
  0
VERTEX
  8
0
 10
285.527928
 20
214.913469
 42
0.047355
  0
VERTEX
  8
0
 10
284.616329
 20
215.000000
 42
0.080443
  0
VERTEX
  8
0
 10
282.367821
 20
214.635891
 42
0.020677
  0
VERTEX
  8
0
 10
278.915811
 20
213.326968
 42
0.013432
  0
VERTEX
  8
0
 10
275.554782
 20
211.782936
 42
0.285741
  0
VERTEX
  8
0
 10
275.000000
 20
210.891420
 42
-0.111410
  0
VERTEX
  8
0
 10
274.923275
 20
210.551358
 42
-0.100065
  0
VERTEX
  8
0
 10
274.706250
 20
210.261855
 42
-0.094614
  0
VERTEX
  8
0
 10
274.381820
 20
210.067651
 42
-0.087906
  0
VERTEX
  8
0
 10
274.000000
 20
210.000000
 42
-0.278035
  0
VERTEX
  8
0
 10
273.252560
 20
210.450451
 42
-0.151214
  0
VERTEX
  8
0
 10
273.047510
 20
211.540729
 42
-0.093929
  0
VERTEX
  8
0
 10
273.505647
 20
213.013602
 42
-0.074268
  0
VERTEX
  8
0
 10
274.500000
 20
214.357143
 42
0.058077
  0
VERTEX
  8
0
 10
275.074386
 20
215.083077
 42
0.038951
  0
VERTEX
  8
0
 10
275.559375
 20
216.025000
 42
0.039070
  0
VERTEX
  8
0
 10
275.890482
 20
217.025728
 42
0.060430
  0
VERTEX
  8
0
 10
276.000000
 20
217.928571
 42
0.086790
  0
VERTEX
  8
0
 10
275.812669
 20
218.999667
 42
0.187908
  0
VERTEX
  8
0
 10
275.271592
 20
219.619358
 42
0.103312
  0
VERTEX
  8
0
 10
274.191732
 20
219.924790
 42
0.017439
  0
VERTEX
  8
0
 10
272.036051
 20
220.000000
 42
0.032501
  0
VERTEX
  8
0
 10
269.800539
 20
219.854534
 42
0.095284
  0
VERTEX
  8
0
 10
268.341819
 20
219.371205
 42
0.089596
  0
VERTEX
  8
0
 10
267.116044
 20
218.362279
 42
0.026649
  0
VERTEX
  8
0
 10
265.642090
 20
216.423916
 42
-0.022599
  0
VERTEX
  8
0
 10
264.621496
 20
215.058963
 42
-0.051077
  0
VERTEX
  8
0
 10
263.706504
 20
214.151067
 42
-0.090599
  0
VERTEX
  8
0
 10
262.991765
 20
213.761776
 42
-0.346791
  0
VERTEX
  8
0
 10
262.547022
 20
213.923916
 42
0.105825
  0
VERTEX
  8
0
 10
262.151454
 20
214.336424
 42
0.051312
  0
VERTEX
  8
0
 10
261.504619
 20
214.683900
 42
0.047648
  0
VERTEX
  8
0
 10
260.727427
 20
214.920233
 42
0.050036
  0
VERTEX
  8
0
 10
259.932324
 20
215.000000
 42
-0.092479
  0
VERTEX
  8
0
 10
258.916220
 20
215.189558
 42
-0.022200
  0
VERTEX
  8
0
 10
257.338859
 20
215.881250
 42
-0.022051
  0
VERTEX
  8
0
 10
255.569876
 20
216.851669
 42
-0.020270
  0
VERTEX
  8
0
 10
253.841303
 20
218.000000
 42
0.085159
  0
VERTEX
  8
0
 10
248.353208
 20
220.698624
 42
0.125851
  0
VERTEX
  8
0
 10
243.017806
 20
220.894583
 42
0.149237
  0
VERTEX
  8
0
 10
238.861494
 20
218.569930
 42
0.137951
  0
VERTEX
  8
0
 10
236.554703
 20
214.249059
 42
-0.056233
  0
VERTEX
  8
0
 10
235.855655
 20
212.198513
 42
-0.187821
  0
VERTEX
  8
0
 10
234.842287
 20
211.238091
 42
-0.155740
  0
VERTEX
  8
0
 10
233.308389
 20
211.117791
 42
-0.035758
  0
VERTEX
  8
0
 10
230.797053
 20
211.900741
 42
0.032973
  0
VERTEX
  8
0
 10
221.853750
 20
214.743648
 42
0.014702
  0
VERTEX
  8
0
 10
209.766125
 20
217.351069
 42
0.014571
  0
VERTEX
  8
0
 10
196.894771
 20
219.347932
 42
0.020517
  0
VERTEX
  8
0
 10
185.321402
 20
220.319425
 42
0.016830
  0
VERTEX
  8
0
 10
175.576976
 20
220.407727
 42
0.007020
  0
VERTEX
  8
0
 10
162.441398
 20
219.899977
 42
0.006918
  0
VERTEX
  8
0
 10
149.481068
 20
219.036686
 42
0.019692
  0
VERTEX
  8
0
 10
140.500000
 20
217.956243
 42
0.015179
  0
VERTEX
  8
0
 10
128.755748
 20
215.704159
 42
0.013650
  0
VERTEX
  8
0
 10
116.742627
 20
212.673604
 42
0.014157
  0
VERTEX
  8
0
 10
105.864796
 20
209.276190
 42
0.030648
  0
VERTEX
  8
0
 10
97.771940
 20
205.927672
 42
-0.015330
  0
VERTEX
  8
0
 10
94.610506
 20
204.504725
 42
-0.107043
  0
VERTEX
  8
0
 10
92.954018
 20
204.204999
 42
-0.376667
  0
VERTEX
  8
0
 10
92.340453
 20
204.782042
 42
-0.124995
  0
VERTEX
  8
0
 10
92.544882
 20
206.106872
 42
-0.112632
  0
VERTEX
  8
0
 10
94.158007
 20
208.337457
 42
-0.056752
  0
VERTEX
  8
0
 10
97.025510
 20
210.328731
 42
-0.048345
  0
VERTEX
  8
0
 10
100.834493
 20
211.925601
 42
-0.035503
  0
VERTEX
  8
0
 10
105.296708
 20
212.967524
 42
0.024399
  0
VERTEX
  8
0
 10
110.584016
 20
214.079008
 42
0.027079
  0
VERTEX
  8
0
 10
115.553035
 20
215.671449
 42
0.029139
  0
VERTEX
  8
0
 10
119.692316
 20
217.532554
 42
0.076297
  0
VERTEX
  8
0
 10
122.312784
 20
219.455641
 42
0.202457
  0
VERTEX
  8
0
 10
123.815009
 20
223.153407
 42
0.098608
  0
VERTEX
  8
0
 10
122.732192
 20
228.228435
 42
0.077319
  0
VERTEX
  8
0
 10
119.339504
 20
233.626383
 42
0.063260
  0
VERTEX
  8
0
 10
114.249126
 20
238.172606
 42
-0.004795
  0
VERTEX
  8
0
 10
110.299333
 20
240.946310
 42
-0.012602
  0
VERTEX
  8
0
 10
107.537805
 20
243.032676
 42
-0.012152
  0
VERTEX
  8
0
 10
104.828987
 20
245.298229
 42
-0.004189
  0
VERTEX
  8
0
 10
101.021557
 20
248.700108
 42
0.025712
  0
VERTEX
  8
0
 10
98.836745
 20
250.489282
 42
0.024547
  0
VERTEX
  8
0
 10
96.446717
 20
252.074594
 42
0.025755
  0
VERTEX
  8
0
 10
94.073870
 20
253.325306
 42
0.042786
  0
VERTEX
  8
0
 10
91.949634
 20
254.096065
 42
0.039366
  0
VERTEX
  8
0
 10
86.547621
 20
255.100614
 42
0.020029
  0
VERTEX
  8
0
 10
79.649934
 20
255.550391
 42
0.019536
  0
VERTEX
  8
0
 10
72.973545
 20
255.456885
 42
0.059085
  0
SEQEND
  0
ENDSEC
  0
EOF
