  0
SECTION
  2
HEADER
  9
$ACADVER
  1
AC1006
  9
$EXTMIN
 10
0.000000
 20
0.000000
 30
0.000000
  9
$EXTMAX
 10
254.000000
 20
84.000000
 30
0.000000
  0
ENDSEC
  0
SECTION
  2
ENTITIES
  0
POLYLINE
  8
0
 66
1
 70
1
  0
VERTEX
  8
0
 10
152.000000
 20
83.051656
 42
0.012039
  0
VERTEX
  8
0
 10
144.292481
 20
82.058766
 42
0.008277
  0
VERTEX
  8
0
 10
135.606839
 20
80.579027
 42
0.005461
  0
VERTEX
  8
0
 10
127.577227
 20
78.982897
 42
0.073071
  0
VERTEX
  8
0
 10
124.763569
 20
77.946165
 42
-0.028211
  0
VERTEX
  8
0
 10
123.999062
 20
77.583908
 42
-0.022388
  0
VERTEX
  8
0
 10
123.137735
 20
77.277936
 42
-0.022906
  0
VERTEX
  8
0
 10
122.311245
 20
77.066231
 42
-0.051283
  0
VERTEX
  8
0
 10
121.667207
 20
77.000000
 42
0.097613
  0
VERTEX
  8
0
 10
119.721250
 20
76.616445
 42
0.030331
  0
VERTEX
  8
0
 10
117.024563
 20
75.314256
 42
0.030884
  0
VERTEX
  8
0
 10
114.343630
 20
73.587323
 42
0.050418
  0
VERTEX
  8
0
 10
112.338678
 20
71.775817
 42
0.060866
  0
VERTEX
  8
0
 10
111.046621
 20
69.941696
 42
0.034820
  0
VERTEX
  8
0
 10
109.934544
 20
67.468187
 42
0.021448
  0
VERTEX
  8
0
 10
108.758021
 20
63.795521
 42
0.005530
  0
VERTEX
  8
0
 10
107.181540
 20
57.774196
 42
0.000000
  0
VERTEX
  8
0
 10
106.500000
 20
55.048392
 42
0.000000
  0
VERTEX
  8
0
 10
103.250000
 20
57.596674
 42
-0.031679
  0
VERTEX
  8
0
 10
102.006214
 20
58.705957
 42
-0.034854
  0
VERTEX
  8
0
 10
100.954688
 20
59.930623
 42
-0.037302
  0
VERTEX
  8
0
 10
100.218321
 20
61.091610
 42
-0.123284
  0
VERTEX
  8
0
 10
100.000000
 20
61.963594
 42
0.156439
  0
VERTEX
  8
0
 10
99.181396
 20
64.515934
 42
0.023709
  0
VERTEX
  8
0
 10
95.818881
 20
68.776478
 42
0.025181
  0
VERTEX
  8
0
 10
92.037570
 20
72.708230
 42
0.123935
  0
VERTEX
  8
0
 10
89.369806
 20
74.193249
 42
0.085640
  0
VERTEX
  8
0
 10
86.314174
 20
74.470428
 42
0.021885
  0
VERTEX
  8
0
 10
81.366278
 20
73.852912
 42
0.023087
  0
VERTEX
  8
0
 10
76.340933
 20
72.760287
 42
0.054302
  0
VERTEX
  8
0
 10
72.764731
 20
71.378338
 42
0.088814
  0
VERTEX
  8
0
 10
70.013786
 20
69.267834
 42
0.048650
  0
VERTEX
  8
0
 10
67.461832
 20
65.854537
 42
0.048859
  0
VERTEX
  8
0
 10
65.639007
 20
62.053220
 42
0.097288
  0
VERTEX
  8
0
 10
65.123985
 20
58.768516
 42
-0.035277
  0
VERTEX
  8
0
 10
64.980566
 20
54.300210
 42
-0.045357
  0
VERTEX
  8
0
 10
64.191456
 20
50.268045
 42
-0.052505
  0
VERTEX
  8
0
 10
62.966344
 20
47.277660
 42
-0.243021
  0
VERTEX
  8
0
 10
61.472662
 20
46.255211
 42
0.015526
  0
VERTEX
  8
0
 10
57.890343
 20
45.697259
 42
0.002510
  0
VERTEX
  8
0
 10
50.962002
 20
44.360631
 42
0.002988
  0
VERTEX
  8
0
 10
43.594802
 20
42.855128
 42
0.005191
  0
VERTEX
  8
0
 10
37.500000
 20
41.505421
 42
-0.007536
  0
VERTEX
  8
0
 10
34.347677
 20
40.822825
 42
-0.004745
  0
VERTEX
  8
0
 10
30.646875
 20
40.116139
 42
-0.004763
  0
VERTEX
  8
0
 10
26.992849
 20
39.490155
 42
-0.008710
  0
VERTEX
  8
0
 10
24.000000
 20
39.060088
 42
0.010512
  0
VERTEX
  8
0
 10
18.799418
 20
38.293639
 42
0.054448
  0
VERTEX
  8
0
 10
16.008447
 20
37.502750
 42
0.090409
  0
VERTEX
  8
0
 10
14.155518
 20
36.327458
 42
0.061371
  0
VERTEX
  8
0
 10
12.536939
 20
34.416032
 42
-0.039119
  0
VERTEX
  8
0
 10
11.822084
 20
33.491592
 42
-0.041529
  0
VERTEX
  8
0
 10
10.985060
 20
32.709710
 42
-0.045320
  0
VERTEX
  8
0
 10
10.154953
 20
32.168502
 42
-0.122401
  0
VERTEX
  8
0
 10
9.476947
 20
32.000000
 42
0.138297
  0
VERTEX
  8
0
 10
8.675425
 20
31.773982
 42
0.020277
  0
VERTEX
  8
0
 10
7.258853
 20
30.825000
 42
0.021615
  0
VERTEX
  8
0
 10
5.639746
 20
29.531631
 42
0.017041
  0
VERTEX
  8
0
 10
4.000000
 20
28.000000
 42
0.020261
  0
VERTEX
  8
0
 10
2.036575
 20
25.870657
 42
0.051467
  0
VERTEX
  8
0
 10
0.847905
 20
24.138842
 42
0.066384
  0
VERTEX
  8
0
 10
0.215018
 20
22.488067
 42
0.058449
  0
VERTEX
  8
0
 10
0.000000
 20
20.654988
 42
0.084100
  0
VERTEX
  8
0
 10
0.456356
 20
17.960992
 42
0.115388
  0
VERTEX
  8
0
 10
1.768503
 20
15.892845
 42
0.072664
  0
VERTEX
  8
0
 10
4.359807
 20
14.001137
 42
0.017677
  0
VERTEX
  8
0
 10
9.140274
 20
11.690921
 42
0.027842
  0
VERTEX
  8
0
 10
15.056163
 20
9.469915
 42
0.046743
  0
VERTEX
  8
0
 10
20.243273
 20
8.363989
 42
0.025678
  0
VERTEX
  8
0
 10
27.349121
 20
7.899317
 42
0.003404
  0
VERTEX
  8
0
 10
42.417690
 20
7.791610
 42
0.000000
  0
VERTEX
  8
0
 10
63.642903
 20
7.784405
 42
0.000000
  0
VERTEX
  8
0
 10
64.730941
 20
4.901864
 42
0.153665
  0
VERTEX
  8
0
 10
67.206872
 20
1.750024
 42
0.125737
  0
VERTEX
  8
0
 10
71.251373
 20
0.274479
 42
0.059757
  0
VERTEX
  8
0
 10
78.008270
 20
0.407676
 42
0.011769
  0
VERTEX
  8
0
 10
90.000000
 20
2.375142
 42
0.011199
  0
VERTEX
  8
0
 10
99.285902
 20
4.340334
 42
0.017982
  0
VERTEX
  8
0
 10
107.093524
 20
6.475227
 42
0.015883
  0
VERTEX
  8
0
 10
113.138480
 20
8.577144
 42
0.161549
  0
VERTEX
  8
0
 10
115.165566
 20
10.239063
 42
0.249064
  0
VERTEX
  8
0
 10
115.258318
 20
11.464603
 42
0.125456
  0
VERTEX
  8
0
 10
114.277654
 20
12.722282
 42
0.089284
  0
VERTEX
  8
0
 10
112.456220
 20
13.672458
 42
0.075828
  0
VERTEX
  8
0
 10
110.308870
 20
14.000000
 42
-0.041390
  0
VERTEX
  8
0
 10
109.424879
 20
14.073302
 42
-0.060889
  0
VERTEX
  8
0
 10
108.678231
 20
14.293750
 42
-0.080040
  0
VERTEX
  8
0
 10
108.171405
 20
14.617511
 42
-0.213821
  0
VERTEX
  8
0
 10
108.000000
 20
15.000000
 42
-0.222681
  0
VERTEX
  8
0
 10
108.179376
 20
15.382793
 42
-0.076538
  0
VERTEX
  8
0
 10
108.717039
 20
15.706250
 42
-0.058208
  0
VERTEX
  8
0
 10
109.506280
 20
15.926830
 42
-0.039081
  0
VERTEX
  8
0
 10
110.440983
 20
16.000000
 42
0.033414
  0
VERTEX
  8
0
 10
111.415464
 20
16.065196
 42
0.038588
  0
VERTEX
  8
0
 10
112.325543
 20
16.259882
 42
0.042176
  0
VERTEX
  8
0
 10
113.053172
 20
16.543934
 42
0.141109
  0
VERTEX
  8
0
 10
113.428743
 20
16.884704
 42
-0.141083
  0
VERTEX
  8
0
 10
113.838762
 20
17.256769
 42
-0.027792
  0
VERTEX
  8
0
 10
114.763120
 20
17.648695
 42
-0.027459
  0
VERTEX
  8
0
 10
115.927581
 20
17.996882
 42
-0.022483
  0
VERTEX
  8
0
 10
117.203487
 20
18.243173
 42
-0.056451
  0
VERTEX
  8
0
 10
119.102301
 20
18.305753
 42
-0.105246
  0
VERTEX
  8
0
 10
120.570883
 20
17.868217
 42
-0.069240
  0
VERTEX
  8
0
 10
122.111551
 20
16.727015
 42
-0.014203
  0
VERTEX
  8
0
 10
124.465727
 20
14.282616
 42
0.020104
  0
VERTEX
  8
0
 10
127.005256
 20
11.707278
 42
0.073376
  0
VERTEX
  8
0
 10
128.886573
 20
10.404380
 42
0.068423
  0
VERTEX
  8
0
 10
131.130829
 20
9.654219
 42
0.016014
  0
VERTEX
  8
0
 10
135.058349
 20
9.044860
 42
0.034880
  0
VERTEX
  8
0
 10
140.197897
 20
8.776499
 42
0.025144
  0
VERTEX
  8
0
 10
145.928781
 20
9.165886
 42
0.023791
  0
VERTEX
  8
0
 10
151.958321
 20
10.174178
 42
0.022286
  0
VERTEX
  8
0
 10
158.000000
 20
11.767367
 42
0.002505
  0
VERTEX
  8
0
 10
174.787864
 20
17.096985
 42
0.018536
  0
VERTEX
  8
0
 10
182.674045
 20
19.971049
 42
0.036829
  0
VERTEX
  8
0
 10
186.912238
 20
22.071785
 42
0.265217
  0
VERTEX
  8
0
 10
188.000000
 20
23.978236
 42
0.160069
  0
VERTEX
  8
0
 10
187.453725
 20
25.640890
 42
0.125203
  0
VERTEX
  8
0
 10
185.976046
 20
26.852536
 42
0.064997
  0
VERTEX
  8
0
 10
183.215698
 20
27.730290
 42
0.016020
  0
VERTEX
  8
0
 10
178.500000
 20
28.423842
 42
-0.009761
  0
VERTEX
  8
0
 10
175.841240
 20
28.780934
 42
-0.006474
  0
VERTEX
  8
0
 10
172.804784
 20
29.289596
 42
-0.006517
  0
VERTEX
  8
0
 10
169.867594
 20
29.860444
 42
-0.012605
  0
VERTEX
  8
0
 10
167.537564
 20
30.406498
 42
-0.004397
  0
VERTEX
  8
0
 10
164.339695
 20
31.271605
 42
-0.124318
  0
VERTEX
  8
0
 10
163.600309
 20
31.695304
 42
-0.468568
  0
VERTEX
  8
0
 10
163.634380
 20
32.159242
 42
-0.032441
  0
VERTEX
  8
0
 10
164.903988
 20
32.948616
 42
-0.061991
  0
VERTEX
  8
0
 10
166.520111
 20
33.570945
 42
-0.004270
  0
VERTEX
  8
0
 10
171.287983
 20
34.713551
 42
-0.006035
  0
VERTEX
  8
0
 10
177.017085
 20
35.962254
 42
-0.004496
  0
VERTEX
  8
0
 10
183.366424
 20
37.206686
 42
-0.007318
  0
VERTEX
  8
0
 10
193.070042
 20
38.871521
 42
-0.017614
  0
VERTEX
  8
0
 10
200.305353
 20
39.744354
 42
-0.015200
  0
VERTEX
  8
0
 10
208.183447
 20
40.173606
 42
-0.004269
  0
VERTEX
  8
0
 10
220.502006
 20
40.364513
 42
0.006442
  0
VERTEX
  8
0
 10
236.223239
 20
40.676474
 42
0.066997
  0
VERTEX
  8
0
 10
242.583988
 20
41.745552
 42
0.134045
  0
VERTEX
  8
0
 10
246.603108
 20
44.303651
 42
0.051894
  0
VERTEX
  8
0
 10
250.545834
 20
49.668422
 42
0.024809
  0
VERTEX
  8
0
 10
251.974295
 20
52.409003
 42
0.051884
  0
VERTEX
  8
0
 10
252.746442
 20
54.684038
 42
0.046411
  0
VERTEX
  8
0
 10
253.080781
 20
57.226169
 42
0.016381
  0
VERTEX
  8
0
 10
253.100110
 20
60.904728
 42
0.018003
  0
VERTEX
  8
0
 10
252.930445
 20
63.572736
 42
0.019360
  0
VERTEX
  8
0
 10
252.570916
 20
66.157192
 42
0.019299
  0
VERTEX
  8
0
 10
252.092934
 20
68.340416
 42
0.081659
  0
VERTEX
  8
0
 10
251.552391
 20
69.560385
 42
-0.033197
  0
VERTEX
  8
0
 10
251.003683
 20
70.532949
 42
-0.020660
  0
VERTEX
  8
0
 10
250.486287
 20
71.736564
 42
-0.020703
  0
VERTEX
  8
0
 10
250.072536
 20
72.971549
 42
-0.034911
  0
VERTEX
  8
0
 10
249.842702
 20
74.038974
 42
0.092694
  0
VERTEX
  8
0
 10
249.466481
 20
75.147668
 42
0.041470
  0
VERTEX
  8
0
 10
248.600048
 20
76.428104
 42
0.038113
  0
VERTEX
  8
0
 10
247.401849
 20
77.704068
 42
0.035821
  0
VERTEX
  8
0
 10
246.000000
 20
78.812448
 42
0.032803
  0
VERTEX
  8
0
 10
243.888629
 20
80.054714
 42
0.067427
  0
VERTEX
  8
0
 10
242.078437
 20
80.677970
 42
0.055106
  0
VERTEX
  8
0
 10
239.942271
 20
80.863944
 42
0.015973
  0
VERTEX
  8
0
 10
236.634340
 20
80.681150
 42
0.015418
  0
VERTEX
  8
0
 10
234.308986
 20
80.405527
 42
0.019259
  0
VERTEX
  8
0
 10
232.173193
 20
80.000693
 42
0.017789
  0
VERTEX
  8
0
 10
230.435421
 20
79.535779
 42
0.122713
  0
VERTEX
  8
0
 10
229.684340
 20
79.084340
 42
-0.085263
  0
VERTEX
  8
0
 10
229.095175
 20
78.667911
 42
-0.036957
  0
VERTEX
  8
0
 10
228.197807
 20
78.318525
 42
-0.035190
  0
VERTEX
  8
0
 10
227.165388
 20
78.079996
 42
-0.039196
  0
VERTEX
  8
0
 10
226.146491
 20
78.000000
 42
0.060345
  0
VERTEX
  8
0
 10
224.869551
 20
77.845322
 42
0.016585
  0
VERTEX
  8
0
 10
222.916607
 20
77.295870
 42
0.016508
  0
VERTEX
  8
0
 10
220.727703
 20
76.520501
 42
0.016547
  0
VERTEX
  8
0
 10
218.596491
 20
75.602962
 42
-0.020048
  0
VERTEX
  8
0
 10
209.364591
 20
71.704776
 42
-0.011834
  0
VERTEX
  8
0
 10
198.063931
 20
67.760867
 42
-0.011783
  0
VERTEX
  8
0
 10
186.955869
 20
64.463622
 42
-0.027730
  0
VERTEX
  8
0
 10
178.500000
 20
62.665401
 42
-0.004251
  0
VERTEX
  8
0
 10
170.329448
 20
61.467379
 42
-0.010006
  0
VERTEX
  8
0
 10
164.208824
 20
60.747511
 42
-0.004949
  0
VERTEX
  8
0
 10
159.468285
 20
60.333241
 42
-0.437031
  0
VERTEX
  8
0
 10
159.000000
 20
60.766671
 42
-0.194656
  0
VERTEX
  8
0
 10
159.139462
 20
61.111324
 42
-0.001407
  0
VERTEX
  8
0
 10
161.350000
 20
63.382705
 42
-0.005050
  0
VERTEX
  8
0
 10
163.933337
 20
65.969456
 42
-0.003181
  0
VERTEX
  8
0
 10
167.000000
 20
68.940708
 42
0.009409
  0
VERTEX
  8
0
 10
170.065001
 20
71.985275
 42
0.013562
  0
VERTEX
  8
0
 10
172.650000
 20
74.800434
 42
0.009245
  0
VERTEX
  8
0
 10
174.673249
 20
77.216262
 42
0.171322
  0
VERTEX
  8
0
 10
175.000000
 20
78.141887
 42
0.255189
  0
VERTEX
  8
0
 10
173.422876
 20
81.030762
 42
0.090510
  0
VERTEX
  8
0
 10
168.920574
 20
82.885881
 42
0.055251
  0
VERTEX
  8
0
 10
161.713819
 20
83.608405
 42
0.023397
  0
SEQEND
  0
ENDSEC
  0
EOF
