  0
SECTION
  2
HEADER
  9
$ACADVER
  1
AC1006
  9
$EXTMIN
 10
0.000000
 20
0.000000
 30
0.000000
  9
$EXTMAX
 10
589.000000
 20
376.000000
 30
0.000000
  0
ENDSEC
  0
SECTION
  2
ENTITIES
  0
POLYLINE
  8
0
 66
1
 70
1
  0
VERTEX
  8
0
 10
74.000000
 20
374.868517
 42
-0.046217
  0
VERTEX
  8
0
 10
73.960815
 20
374.445497
 42
-0.137048
  0
VERTEX
  8
0
 10
73.833350
 20
374.186360
 42
-0.260080
  0
VERTEX
  8
0
 10
73.647132
 20
374.122081
 42
-0.153409
  0
VERTEX
  8
0
 10
73.432681
 20
374.233986
 42
0.247777
  0
VERTEX
  8
0
 10
72.976407
 20
374.374942
 42
0.011851
  0
VERTEX
  8
0
 10
71.362724
 20
374.031261
 42
0.017090
  0
VERTEX
  8
0
 10
69.401484
 20
373.493278
 42
0.011239
  0
VERTEX
  8
0
 10
67.182681
 20
372.747196
 42
-0.047365
  0
VERTEX
  8
0
 10
62.145532
 20
371.449209
 42
-0.025659
  0
VERTEX
  8
0
 10
55.777494
 20
370.770169
 42
-0.022033
  0
VERTEX
  8
0
 10
48.228170
 20
370.688141
 42
-0.014479
  0
VERTEX
  8
0
 10
39.551865
 20
371.228063
 42
0.019987
  0
VERTEX
  8
0
 10
36.793175
 20
371.369257
 42
0.023212
  0
VERTEX
  8
0
 10
34.167185
 20
371.276664
 42
0.025168
  0
VERTEX
  8
0
 10
31.793750
 20
370.961573
 42
0.039239
  0
VERTEX
  8
0
 10
29.801865
 20
370.430094
 42
-0.012725
  0
VERTEX
  8
0
 10
28.343583
 20
369.956952
 42
-0.022542
  0
VERTEX
  8
0
 10
27.116798
 20
369.652560
 42
-0.020258
  0
VERTEX
  8
0
 10
26.182934
 20
369.504131
 42
-0.448946
  0
VERTEX
  8
0
 10
26.000000
 20
369.666804
 42
0.455427
  0
VERTEX
  8
0
 10
25.870501
 20
369.779489
 42
0.077448
  0
VERTEX
  8
0
 10
25.514227
 20
369.671921
 42
0.041702
  0
VERTEX
  8
0
 10
24.981453
 20
369.358926
 42
0.019554
  0
VERTEX
  8
0
 10
24.346305
 20
368.872445
 42
-0.018042
  0
VERTEX
  8
0
 10
23.687532
 20
368.364700
 42
-0.027294
  0
VERTEX
  8
0
 10
23.076656
 20
367.976593
 42
-0.025745
  0
VERTEX
  8
0
 10
22.570076
 20
367.725646
 42
-0.264346
  0
VERTEX
  8
0
 10
22.346305
 20
367.750000
 42
0.284546
  0
VERTEX
  8
0
 10
19.371588
 20
367.961079
 42
0.055216
  0
VERTEX
  8
0
 10
14.705562
 20
364.810358
 42
0.047850
  0
VERTEX
  8
0
 10
9.734753
 20
359.693599
 42
0.041850
  0
VERTEX
  8
0
 10
5.572943
 20
353.500000
 42
0.039651
  0
VERTEX
  8
0
 10
2.093879
 20
345.888817
 42
0.057236
  0
VERTEX
  8
0
 10
0.371433
 20
338.698897
 42
0.069901
  0
VERTEX
  8
0
 10
0.486317
 20
332.585468
 42
0.136117
  0
VERTEX
  8
0
 10
2.500000
 20
328.182369
 42
-0.009945
  0
VERTEX
  8
0
 10
3.457634
 20
326.997221
 42
-0.013744
  0
VERTEX
  8
0
 10
4.265625
 20
325.894241
 42
-0.010289
  0
VERTEX
  8
0
 10
4.887551
 20
324.953572
 42
-0.141839
  0
VERTEX
  8
0
 10
5.000000
 20
324.565152
 42
0.124686
  0
VERTEX
  8
0
 10
5.097892
 20
324.178700
 42
0.010965
  0
VERTEX
  8
0
 10
5.601560
 20
323.295164
 42
0.013827
  0
VERTEX
  8
0
 10
6.263522
 20
322.257153
 42
0.010323
  0
VERTEX
  8
0
 10
7.047865
 20
321.149129
 42
-0.029486
  0
VERTEX
  8
0
 10
7.843906
 20
319.927949
 42
-0.024770
  0
VERTEX
  8
0
 10
8.542621
 20
318.549696
 42
-0.025497
  0
VERTEX
  8
0
 10
9.054831
 20
317.223932
 42
-0.060703
  0
VERTEX
  8
0
 10
9.260669
 20
316.189622
 42
0.022983
  0
VERTEX
  8
0
 10
9.362820
 20
315.350528
 42
0.035793
  0
VERTEX
  8
0
 10
9.534959
 20
314.642994
 42
0.039940
  0
VERTEX
  8
0
 10
9.744406
 20
314.133529
 42
0.282039
  0
VERTEX
  8
0
 10
9.962804
 20
313.999294
 42
-0.305053
  0
VERTEX
  8
0
 10
10.180632
 20
313.852344
 42
-0.031655
  0
VERTEX
  8
0
 10
10.386389
 20
313.235276
 42
-0.030818
  0
VERTEX
  8
0
 10
10.553928
 20
312.395610
 42
-0.019381
  0
VERTEX
  8
0
 10
10.650434
 20
311.399375
 42
0.150146
  0
VERTEX
  8
0
 10
11.501716
 20
309.109156
 42
0.022354
  0
VERTEX
  8
0
 10
14.704375
 20
305.296340
 42
0.020806
  0
VERTEX
  8
0
 10
18.221425
 20
301.776140
 42
0.188237
  0
VERTEX
  8
0
 10
20.209975
 20
301.000000
 42
-0.180336
  0
VERTEX
  8
0
 10
20.511510
 20
300.887589
 42
-0.091555
  0
VERTEX
  8
0
 10
20.767930
 20
300.566919
 42
-0.071531
  0
VERTEX
  8
0
 10
20.941610
 20
300.089788
 42
-0.051616
  0
VERTEX
  8
0
 10
21.000000
 20
299.525680
 42
0.149351
  0
VERTEX
  8
0
 10
21.205828
 20
298.851977
 42
0.047064
  0
VERTEX
  8
0
 10
21.881250
 20
298.028730
 42
0.042228
  0
VERTEX
  8
0
 10
22.851913
 20
297.202395
 42
0.035915
  0
VERTEX
  8
0
 10
24.000000
 20
296.500000
 42
-0.033354
  0
VERTEX
  8
0
 10
25.148218
 20
295.805572
 42
-0.040283
  0
VERTEX
  8
0
 10
26.118750
 20
295.002698
 42
-0.044674
  0
VERTEX
  8
0
 10
26.797546
 20
294.212724
 42
-0.156397
  0
VERTEX
  8
0
 10
27.000000
 20
293.581309
 42
0.101520
  0
VERTEX
  8
0
 10
27.116433
 20
293.013771
 42
0.066801
  0
VERTEX
  8
0
 10
27.459243
 20
292.439403
 42
0.063322
  0
VERTEX
  8
0
 10
27.965693
 20
291.945536
 42
0.070099
  0
VERTEX
  8
0
 10
28.563382
 20
291.614052
 42
-0.069916
  0
VERTEX
  8
0
 10
29.114122
 20
291.308867
 42
-0.100178
  0
VERTEX
  8
0
 10
29.483409
 20
290.892454
 42
-0.123689
  0
VERTEX
  8
0
 10
29.615276
 20
290.433307
 42
-0.147843
  0
VERTEX
  8
0
 10
29.500000
 20
290.000000
 42
0.147843
  0
VERTEX
  8
0
 10
29.384724
 20
289.566693
 42
0.123689
  0
VERTEX
  8
0
 10
29.516591
 20
289.107546
 42
0.100178
  0
VERTEX
  8
0
 10
29.885878
 20
288.691133
 42
0.069916
  0
VERTEX
  8
0
 10
30.436618
 20
288.385948
 42
-0.062400
  0
VERTEX
  8
0
 10
31.034393
 20
288.066298
 42
-0.060787
  0
VERTEX
  8
0
 10
31.540757
 20
287.606619
 42
-0.066000
  0
VERTEX
  8
0
 10
31.884189
 20
287.082944
 42
-0.112633
  0
VERTEX
  8
0
 10
32.000000
 20
286.575360
 42
0.183887
  0
VERTEX
  8
0
 10
32.566295
 20
285.087636
 42
0.006020
  0
VERTEX
  8
0
 10
36.934477
 20
280.298486
 42
0.012411
  0
VERTEX
  8
0
 10
41.636135
 20
275.510680
 42
0.020682
  0
VERTEX
  8
0
 10
45.852828
 20
271.750000
 42
-0.007913
  0
VERTEX
  8
0
 10
47.099161
 20
270.694322
 42
-0.015480
  0
VERTEX
  8
0
 10
48.051623
 20
269.807813
 42
-0.015134
  0
VERTEX
  8
0
 10
48.690520
 20
269.135641
 42
-0.648243
  0
VERTEX
  8
0
 10
48.629862
 20
269.000000
 42
0.661198
  0
VERTEX
  8
0
 10
48.534452
 20
268.775822
 42
0.008489
  0
VERTEX
  8
0
 10
49.986041
 20
267.317285
 42
0.007939
  0
VERTEX
  8
0
 10
52.405603
 20
265.040840
 42
0.001528
  0
VERTEX
  8
0
 10
56.866775
 20
261.000000
 42
0.018230
  0
VERTEX
  8
0
 10
57.712422
 20
260.292784
 42
0.007266
  0
VERTEX
  8
0
 10
58.919955
 20
259.383359
 42
0.007179
  0
VERTEX
  8
0
 10
60.252152
 20
258.439098
 42
0.008971
  0
VERTEX
  8
0
 10
61.516505
 20
257.602926
 42
-0.015586
  0
VERTEX
  8
0
 10
63.958721
 20
255.940932
 42
-0.023399
  0
VERTEX
  8
0
 10
65.970058
 20
254.329371
 42
-0.010844
  0
VERTEX
  8
0
 10
68.684890
 20
251.830638
 42
-0.001041
  0
VERTEX
  8
0
 10
75.146716
 20
245.593070
 42
0.006488
  0
VERTEX
  8
0
 10
78.246938
 20
242.665014
 42
0.007811
  0
VERTEX
  8
0
 10
81.238487
 20
239.997250
 42
0.006796
  0
VERTEX
  8
0
 10
83.817366
 20
237.829344
 42
0.051091
  0
VERTEX
  8
0
 10
85.146716
 20
236.952021
 42
-0.021942
  0
VERTEX
  8
0
 10
86.840921
 20
235.970407
 42
-0.030882
  0
VERTEX
  8
0
 10
88.250875
 20
234.940762
 42
-0.013849
  0
VERTEX
  8
0
 10
90.163979
 20
233.262185
 42
-0.001293
  0
VERTEX
  8
0
 10
94.751145
 20
228.984727
 42
0.008887
  0
VERTEX
  8
0
 10
96.438967
 20
227.458116
 42
0.012727
  0
VERTEX
  8
0
 10
97.992524
 20
226.170513
 42
0.008605
  0
VERTEX
  8
0
 10
99.320956
 20
225.161888
 42
0.159377
  0
VERTEX
  8
0
 10
99.815933
 20
225.000000
 42
-0.283931
  0
VERTEX
  8
0
 10
101.028239
 20
224.251213
 42
-0.023987
  0
VERTEX
  8
0
 10
102.578904
 20
220.743400
 42
-0.029939
  0
VERTEX
  8
0
 10
103.904764
 20
216.581505
 42
-0.038001
  0
VERTEX
  8
0
 10
104.597222
 20
212.609062
 42
0.012047
  0
VERTEX
  8
0
 10
105.676330
 20
203.712783
 42
0.026027
  0
VERTEX
  8
0
 10
107.024406
 20
196.953029
 42
0.033991
  0
VERTEX
  8
0
 10
108.690605
 20
191.871452
 42
0.071902
  0
VERTEX
  8
0
 10
110.775706
 20
188.299317
 42
0.072248
  0
VERTEX
  8
0
 10
114.123806
 20
185.151122
 42
0.010285
  0
VERTEX
  8
0
 10
121.983842
 20
179.890419
 42
0.007435
  0
VERTEX
  8
0
 10
130.187211
 20
174.811279
 42
0.135702
  0
VERTEX
  8
0
 10
133.121349
 20
174.000000
 42
-0.125799
  0
VERTEX
  8
0
 10
134.707549
 20
173.594496
 42
-0.005887
  0
VERTEX
  8
0
 10
139.568624
 20
170.860444
 42
-0.003682
  0
VERTEX
  8
0
 10
144.545846
 20
167.934304
 42
-0.263869
  0
VERTEX
  8
0
 10
145.000000
 20
167.133656
 42
0.233648
  0
VERTEX
  8
0
 10
145.181206
 20
166.767049
 42
0.011099
  0
VERTEX
  8
0
 10
146.321875
 20
165.934531
 42
0.016278
  0
VERTEX
  8
0
 10
147.775585
 20
164.990950
 42
0.010801
  0
VERTEX
  8
0
 10
149.500000
 20
164.000000
 42
-0.010674
  0
VERTEX
  8
0
 10
151.224428
 20
163.009623
 42
-0.016107
  0
VERTEX
  8
0
 10
152.678125
 20
162.067800
 42
-0.010889
  0
VERTEX
  8
0
 10
153.820237
 20
161.237039
 42
-0.234182
  0
VERTEX
  8
0
 10
154.000000
 20
160.874277
 42
0.256890
  0
VERTEX
  8
0
 10
154.218783
 20
160.476548
 42
0.001350
  0
VERTEX
  8
0
 10
158.111207
 20
158.023780
 42
0.005403
  0
VERTEX
  8
0
 10
162.630074
 20
155.260816
 42
0.003344
  0
VERTEX
  8
0
 10
167.995598
 20
152.107793
 42
-0.003680
  0
VERTEX
  8
0
 10
173.520179
 20
148.856312
 42
-0.004750
  0
VERTEX
  8
0
 10
178.542220
 20
145.785453
 42
-0.003643
  0
VERTEX
  8
0
 10
182.702070
 20
143.144871
 42
-0.041339
  0
VERTEX
  8
0
 10
184.245598
 20
141.957984
 42
0.001017
  0
VERTEX
  8
0
 10
185.218550
 20
141.076503
 42
0.000795
  0
VERTEX
  8
0
 10
186.278395
 20
140.123269
 42
0.000803
  0
VERTEX
  8
0
 10
187.267937
 20
139.238971
 42
0.001964
  0
VERTEX
  8
0
 10
188.000000
 20
138.592021
 42
0.074457
  0
VERTEX
  8
0
 10
191.801895
 20
136.148753
 42
0.079950
  0
VERTEX
  8
0
 10
196.061420
 20
135.001995
 42
0.094655
  0
VERTEX
  8
0
 10
199.855939
 20
135.326534
 42
0.173128
  0
VERTEX
  8
0
 10
202.358643
 20
137.101647
 42
0.135180
  0
VERTEX
  8
0
 10
203.443143
 20
140.145384
 42
0.154095
  0
VERTEX
  8
0
 10
202.733553
 20
143.145734
 42
0.063627
  0
VERTEX
  8
0
 10
199.656017
 20
147.069593
 42
0.008799
  0
VERTEX
  8
0
 10
192.137296
 20
154.230277
 42
-0.037526
  0
VERTEX
  8
0
 10
190.951665
 20
155.496944
 42
-0.028473
  0
VERTEX
  8
0
 10
189.845103
 20
157.045578
 42
-0.029124
  0
VERTEX
  8
0
 10
188.970244
 20
158.627178
 42
-0.057769
  0
VERTEX
  8
0
 10
188.504332
 20
159.980277
 42
0.029110
  0
VERTEX
  8
0
 10
188.178777
 20
161.136743
 42
0.041432
  0
VERTEX
  8
0
 10
187.748171
 20
162.112956
 42
0.047972
  0
VERTEX
  8
0
 10
187.283184
 20
162.801284
 42
0.223832
  0
VERTEX
  8
0
 10
186.861528
 20
163.000000
 42
-0.090852
  0
VERTEX
  8
0
 10
186.525662
 20
163.061536
 42
-0.169534
  0
VERTEX
  8
0
 10
186.316334
 20
163.237238
 42
-0.175933
  0
VERTEX
  8
0
 10
186.266318
 20
163.499656
 42
-0.098721
  0
VERTEX
  8
0
 10
186.381102
 20
163.807620
 42
0.248634
  0
VERTEX
  8
0
 10
186.409877
 20
164.241726
 42
0.053241
  0
VERTEX
  8
0
 10
186.016832
 20
164.916284
 42
0.043941
  0
VERTEX
  8
0
 10
185.338475
 20
165.686938
 42
0.029274
  0
VERTEX
  8
0
 10
184.440119
 20
166.447692
 42
-0.028682
  0
VERTEX
  8
0
 10
183.506158
 20
167.236705
 42
-0.033247
  0
VERTEX
  8
0
 10
182.716785
 20
168.091703
 42
-0.035325
  0
VERTEX
  8
0
 10
182.159755
 20
168.891376
 42
-0.135266
  0
VERTEX
  8
0
 10
182.000000
 20
169.471093
 42
0.150381
  0
VERTEX
  8
0
 10
181.831086
 20
170.020013
 42
0.045289
  0
VERTEX
  8
0
 10
181.270493
 20
170.702620
 42
0.040849
  0
VERTEX
  8
0
 10
180.467013
 20
171.394719
 42
0.034517
  0
VERTEX
  8
0
 10
179.516570
 20
171.991132
 42
-0.040078
  0
VERTEX
  8
0
 10
178.525288
 20
172.628626
 42
-0.035034
  0
VERTEX
  8
0
 10
177.599723
 20
173.443133
 42
-0.036652
  0
VERTEX
  8
0
 10
176.866968
 20
174.302876
 42
-0.081485
  0
VERTEX
  8
0
 10
176.478503
 20
175.067730
 42
0.060368
  0
VERTEX
  8
0
 10
176.153793
 20
175.779648
 42
0.044942
  0
VERTEX
  8
0
 10
175.638729
 20
176.473845
 42
0.045759
  0
VERTEX
  8
0
 10
175.023211
 20
177.048625
 42
0.073463
  0
VERTEX
  8
0
 10
174.398551
 20
177.400556
 42
-0.072560
  0
VERTEX
  8
0
 10
173.863030
 20
177.701000
 42
-0.102350
  0
VERTEX
  8
0
 10
173.507088
 20
178.114553
 42
-0.124029
  0
VERTEX
  8
0
 10
173.385031
 20
178.573596
 42
-0.142620
  0
VERTEX
  8
0
 10
173.505716
 20
179.009249
 42
-0.115190
  0
VERTEX
  8
0
 10
173.837710
 20
179.342877
 42
-0.100965
  0
VERTEX
  8
0
 10
174.299295
 20
179.515164
 42
-0.093989
  0
VERTEX
  8
0
 10
174.820224
 20
179.498781
 42
-0.085158
  0
VERTEX
  8
0
 10
175.319098
 20
179.294432
 42
0.031241
  0
VERTEX
  8
0
 10
176.272825
 20
178.778085
 42
0.039969
  0
VERTEX
  8
0
 10
177.209452
 20
178.432087
 42
0.020596
  0
VERTEX
  8
0
 10
178.580683
 20
178.107001
 42
0.002755
  0
VERTEX
  8
0
 10
181.500000
 20
177.557409
 42
-0.027494
  0
VERTEX
  8
0
 10
182.931023
 20
177.213959
 42
-0.011915
  0
VERTEX
  8
0
 10
184.793750
 20
176.608327
 42
-0.011748
  0
VERTEX
  8
0
 10
186.748949
 20
175.868643
 42
-0.015291
  0
VERTEX
  8
0
 10
188.500000
 20
175.095580
 42
0.001985
  0
VERTEX
  8
0
 10
190.388429
 20
174.201098
 42
0.000981
  0
VERTEX
  8
0
 10
192.793750
 20
173.079204
 42
0.000973
  0
VERTEX
  8
0
 10
195.293921
 20
171.924948
 42
0.001423
  0
VERTEX
  8
0
 10
197.500000
 20
170.919266
 42
-0.002657
  0
VERTEX
  8
0
 10
199.686261
 20
169.916094
 42
-0.001894
  0
VERTEX
  8
0
 10
202.124785
 20
168.770188
 42
-0.001911
  0
VERTEX
  8
0
 10
204.442298
 20
167.659537
 42
-0.004080
  0
VERTEX
  8
0
 10
206.222671
 20
166.779922
 42
0.009002
  0
VERTEX
  8
0
 10
207.691361
 20
166.072200
 42
0.012779
  0
VERTEX
  8
0
 10
209.023610
 20
165.500308
 42
0.008837
  0
VERTEX
  8
0
 10
210.144024
 20
165.075700
 42
0.152911
  0
VERTEX
  8
0
 10
210.530200
 20
165.059818
 42
-0.156395
  0
VERTEX
  8
0
 10
210.931080
 20
165.040597
 42
-0.006140
  0
VERTEX
  8
0
 10
212.321669
 20
164.500495
 42
-0.010373
  0
VERTEX
  8
0
 10
213.967116
 20
163.798034
 42
-0.007088
  0
VERTEX
  8
0
 10
215.807529
 20
162.935176
 42
0.005127
  0
VERTEX
  8
0
 10
219.486993
 20
161.192463
 42
0.013446
  0
VERTEX
  8
0
 10
222.172350
 20
160.040657
 42
0.017086
  0
VERTEX
  8
0
 10
224.507305
 20
159.203833
 42
0.014945
  0
VERTEX
  8
0
 10
227.000000
 20
158.486846
 42
-0.031548
  0
VERTEX
  8
0
 10
229.232513
 20
157.763672
 42
-0.008374
  0
VERTEX
  8
0
 10
232.692930
 20
156.328755
 42
-0.008022
  0
VERTEX
  8
0
 10
236.773250
 20
154.477754
 42
-0.006229
  0
VERTEX
  8
0
 10
241.154292
 20
152.337750
 42
0.015589
  0
VERTEX
  8
0
 10
242.254365
 20
151.825674
 42
0.016454
  0
VERTEX
  8
0
 10
243.364776
 20
151.392964
 42
0.016292
  0
VERTEX
  8
0
 10
244.343037
 20
151.083808
 42
0.068485
  0
VERTEX
  8
0
 10
244.952041
 20
151.000000
 42
-0.187293
  0
VERTEX
  8
0
 10
246.592296
 20
150.363245
 42
-0.040164
  0
VERTEX
  8
0
 10
248.711300
 20
148.088277
 42
-0.041741
  0
VERTEX
  8
0
 10
250.578341
 20
145.276748
 42
-0.073770
  0
VERTEX
  8
0
 10
251.545773
 20
142.670985
 42
0.026599
  0
VERTEX
  8
0
 10
251.928625
 20
141.239907
 42
0.015056
  0
VERTEX
  8
0
 10
252.535278
 20
139.550227
 42
0.015000
  0
VERTEX
  8
0
 10
253.251352
 20
137.878997
 42
0.023803
  0
VERTEX
  8
0
 10
253.973485
 20
136.500000
 42
-0.028623
  0
VERTEX
  8
0
 10
254.725394
 20
135.029852
 42
-0.013394
  0
VERTEX
  8
0
 10
255.536024
 20
133.050745
 42
-0.013222
  0
VERTEX
  8
0
 10
256.277554
 20
130.924228
 42
-0.018063
  0
VERTEX
  8
0
 10
256.824456
 20
128.970622
 42
0.011124
  0
VERTEX
  8
0
 10
257.355807
 20
126.965824
 42
0.007295
  0
VERTEX
  8
0
 10
258.052623
 20
124.680219
 42
0.007340
  0
VERTEX
  8
0
 10
258.796779
 20
122.473082
 42
0.013978
  0
VERTEX
  8
0
 10
259.470270
 20
120.725396
 42
-0.007761
  0
VERTEX
  8
0
 10
260.057917
 20
119.255217
 42
-0.010602
  0
VERTEX
  8
0
 10
260.538335
 20
117.912206
 42
-0.007659
  0
VERTEX
  8
0
 10
260.896361
 20
116.782914
 42
-0.110744
  0
VERTEX
  8
0
 10
260.926015
 20
116.366577
 42
0.117884
  0
VERTEX
  8
0
 10
260.950843
 20
116.075883
 42
0.056079
  0
VERTEX
  8
0
 10
261.109006
 20
115.732762
 42
0.051097
  0
VERTEX
  8
0
 10
261.364795
 20
115.393529
 42
0.050531
  0
VERTEX
  8
0
 10
261.684944
 20
115.111803
 42
-0.073333
  0
VERTEX
  8
0
 10
262.092688
 20
114.718735
 42
-0.017130
  0
VERTEX
  8
0
 10
262.648404
 20
113.945342
 42
-0.017302
  0
VERTEX
  8
0
 10
263.232285
 20
113.001938
 42
-0.016210
  0
VERTEX
  8
0
 10
263.763096
 20
112.000000
 42
0.015429
  0
VERTEX
  8
0
 10
265.143699
 20
109.384165
 42
0.023486
  0
VERTEX
  8
0
 10
266.515555
 20
107.212702
 42
0.025237
  0
VERTEX
  8
0
 10
268.004038
 20
105.298284
 42
0.022480
  0
VERTEX
  8
0
 10
269.733736
 20
103.464849
 42
-0.028000
  0
VERTEX
  8
0
 10
270.542446
 20
102.588464
 42
-0.044236
  0
VERTEX
  8
0
 10
271.120256
 20
101.745437
 42
-0.055391
  0
VERTEX
  8
0
 10
271.417088
 20
101.046826
 42
-0.275818
  0
VERTEX
  8
0
 10
271.317069
 20
100.650402
 42
0.104329
  0
VERTEX
  8
0
 10
271.155700
 20
100.402749
 42
0.248343
  0
VERTEX
  8
0
 10
271.180636
 20
100.191056
 42
0.182650
  0
VERTEX
  8
0
 10
271.390087
 20
100.046098
 42
0.061094
  0
VERTEX
  8
0
 10
271.765946
 20
100.000000
 42
-0.145357
  0
VERTEX
  8
0
 10
272.230797
 20
99.861945
 42
-0.065483
  0
VERTEX
  8
0
 10
272.718750
 20
99.444092
 42
-0.056813
  0
VERTEX
  8
0
 10
273.154593
 20
98.831455
 42
-0.049419
  0
VERTEX
  8
0
 10
273.465866
 20
98.107546
 42
0.095361
  0
VERTEX
  8
0
 10
273.907971
 20
97.293408
 42
0.041546
  0
VERTEX
  8
0
 10
274.768512
 20
96.407138
 42
0.039127
  0
VERTEX
  8
0
 10
275.868339
 20
95.590202
 42
0.042013
  0
VERTEX
  8
0
 10
277.056951
 20
94.976410
 42
-0.024737
  0
VERTEX
  8
0
 10
278.254981
 20
94.409231
 42
-0.025273
  0
VERTEX
  8
0
 10
279.382303
 20
93.730161
 42
-0.026055
  0
VERTEX
  8
0
 10
280.296253
 20
93.042845
 42
-0.088357
  0
VERTEX
  8
0
 10
280.773697
 20
92.473286
 42
0.100898
  0
VERTEX
  8
0
 10
281.372683
 20
91.793783
 42
0.009324
  0
VERTEX
  8
0
 10
283.196024
 20
90.468452
 42
0.011717
  0
VERTEX
  8
0
 10
285.457585
 20
88.965804
 42
0.008930
  0
VERTEX
  8
0
 10
288.000000
 20
87.423917
 42
-0.006120
  0
VERTEX
  8
0
 10
290.562282
 20
85.889612
 42
-0.007804
  0
VERTEX
  8
0
 10
292.884375
 20
84.409770
 42
-0.006256
  0
VERTEX
  8
0
 10
294.789042
 20
83.119243
 42
-0.063019
  0
VERTEX
  8
0
 10
295.500000
 20
82.477995
 42
0.084056
  0
VERTEX
  8
0
 10
298.135730
 20
80.293561
 42
0.005565
  0
VERTEX
  8
0
 10
306.747751
 20
75.440136
 42
0.006300
  0
VERTEX
  8
0
 10
315.394229
 20
70.834113
 42
0.067832
  0
VERTEX
  8
0
 10
319.122991
 20
69.509190
 42
-0.018976
  0
VERTEX
  8
0
 10
320.562446
 20
69.150973
 42
-0.014837
  0
VERTEX
  8
0
 10
322.095504
 20
68.657320
 42
-0.015082
  0
VERTEX
  8
0
 10
323.496683
 20
68.111669
 42
-0.035085
  0
VERTEX
  8
0
 10
324.500000
 20
67.599925
 42
0.031200
  0
VERTEX
  8
0
 10
325.568061
 20
67.044671
 42
0.009731
  0
VERTEX
  8
0
 10
327.234375
 20
66.344924
 42
0.009685
  0
VERTEX
  8
0
 10
329.130471
 20
65.633948
 42
0.010544
  0
VERTEX
  8
0
 10
331.000000
 20
65.017959
 42
-0.006975
  0
VERTEX
  8
0
 10
332.796237
 20
64.440300
 42
-0.008327
  0
VERTEX
  8
0
 10
334.471875
 20
63.844263
 42
-0.007333
  0
VERTEX
  8
0
 10
335.865183
 20
63.298924
 42
-0.052748
  0
VERTEX
  8
0
 10
336.500000
 20
62.957761
 42
0.048939
  0
VERTEX
  8
0
 10
337.074614
 20
62.643300
 42
0.011681
  0
VERTEX
  8
0
 10
338.087500
 20
62.239242
 42
0.011897
  0
VERTEX
  8
0
 10
339.278132
 20
61.828198
 42
0.011513
  0
VERTEX
  8
0
 10
340.500000
 20
61.469420
 42
-0.000376
  0
VERTEX
  8
0
 10
341.685489
 20
61.149822
 42
-0.000497
  0
VERTEX
  8
0
 10
342.765625
 20
60.856601
 42
-0.000357
  0
VERTEX
  8
0
 10
343.670805
 20
60.609215
 42
-0.004847
  0
VERTEX
  8
0
 10
344.000000
 20
60.515554
 42
-0.030815
  0
VERTEX
  8
0
 10
344.341038
 20
60.391647
 42
-0.001283
  0
VERTEX
  8
0
 10
345.528125
 20
59.871927
 42
-0.002218
  0
VERTEX
  8
0
 10
346.931231
 20
59.245890
 42
-0.001573
  0
VERTEX
  8
0
 10
348.500000
 20
58.531629
 42
0.000743
  0
VERTEX
  8
0
 10
350.355025
 20
57.683316
 42
0.000399
  0
VERTEX
  8
0
 10
352.646875
 20
56.641563
 42
0.000397
  0
VERTEX
  8
0
 10
354.986256
 20
55.582693
 42
0.000622
  0
VERTEX
  8
0
 10
357.000000
 20
54.676155
 42
-0.003320
  0
VERTEX
  8
0
 10
359.003293
 20
53.761292
 42
-0.002148
  0
VERTEX
  8
0
 10
361.309987
 20
52.677233
 42
-0.002159
  0
VERTEX
  8
0
 10
363.554796
 20
51.598552
 42
-0.004085
  0
VERTEX
  8
0
 10
365.353148
 20
50.706590
 42
0.044218
  0
VERTEX
  8
0
 10
367.665342
 20
49.782464
 42
0.030119
  0
VERTEX
  8
0
 10
370.423292
 20
49.131969
 42
0.023534
  0
VERTEX
  8
0
 10
373.879978
 20
48.699905
 42
0.011005
  0
VERTEX
  8
0
 10
378.385499
 20
48.450592
 42
-0.001606
  0
VERTEX
  8
0
 10
381.972618
 20
48.319674
 42
-0.002299
  0
VERTEX
  8
0
 10
385.152559
 20
48.178740
 42
-0.001242
  0
VERTEX
  8
0
 10
387.841523
 20
48.040481
 42
-0.035264
  0
VERTEX
  8
0
 10
388.532352
 20
47.954128
 42
0.024328
  0
VERTEX
  8
0
 10
388.939511
 20
47.894172
 42
0.022297
  0
VERTEX
  8
0
 10
389.362628
 20
47.871739
 42
0.022915
  0
VERTEX
  8
0
 10
389.741918
 20
47.885945
 42
0.065075
  0
VERTEX
  8
0
 10
390.000000
 20
47.941825
 42
-0.053543
  0
VERTEX
  8
0
 10
390.362937
 20
48.029185
 42
-0.001891
  0
VERTEX
  8
0
 10
391.794336
 20
48.209695
 42
-0.003486
  0
VERTEX
  8
0
 10
393.490190
 20
48.405050
 42
-0.002431
  0
VERTEX
  8
0
 10
395.406251
 20
48.602829
 42
0.029051
  0
VERTEX
  8
0
 10
397.674541
 20
48.959772
 42
0.034346
  0
VERTEX
  8
0
 10
399.759318
 20
49.565662
 42
0.037102
  0
VERTEX
  8
0
 10
401.587463
 20
50.394526
 42
0.049958
  0
VERTEX
  8
0
 10
403.086645
 20
51.419453
 42
0.016477
  0
VERTEX
  8
0
 10
404.739311
 20
52.905780
 42
0.140265
  0
VERTEX
  8
0
 10
405.235610
 20
53.759315
 42
0.179919
  0
VERTEX
  8
0
 10
405.139665
 20
54.643730
 42
0.031006
  0
VERTEX
  8
0
 10
404.278457
 20
56.126870
 42
0.013374
  0
VERTEX
  8
0
 10
403.521639
 20
57.198670
 42
0.007418
  0
VERTEX
  8
0
 10
402.544629
 20
58.466926
 42
0.007393
  0
VERTEX
  8
0
 10
401.516468
 20
59.722811
 42
0.011832
  0
VERTEX
  8
0
 10
400.598063
 20
60.760539
 42
0.000017
  0
VERTEX
  8
0
 10
399.676837
 20
61.753036
 42
0.000012
  0
VERTEX
  8
0
 10
398.641807
 20
62.868011
 42
0.000012
  0
VERTEX
  8
0
 10
397.652340
 20
63.933799
 42
0.000026
  0
VERTEX
  8
0
 10
396.884685
 20
64.760539
 42
-0.036643
  0
VERTEX
  8
0
 10
394.782097
 20
67.386539
 42
-0.019152
  0
VERTEX
  8
0
 10
392.542498
 20
70.930311
 42
-0.010156
  0
VERTEX
  8
0
 10
390.584430
 20
74.472365
 42
-0.328640
  0
VERTEX
  8
0
 10
390.723474
 20
75.390140
 42
0.122778
  0
VERTEX
  8
0
 10
390.862578
 20
75.621642
 42
0.257445
  0
VERTEX
  8
0
 10
390.820698
 20
75.820854
 42
0.162407
  0
VERTEX
  8
0
 10
390.591687
 20
75.957394
 42
0.053960
  0
VERTEX
  8
0
 10
390.198051
 20
76.000000
 42
-0.153432
  0
VERTEX
  8
0
 10
389.813169
 20
76.120954
 42
-0.152337
  0
VERTEX
  8
0
 10
389.565342
 20
76.440625
 42
-0.114556
  0
VERTEX
  8
0
 10
389.502351
 20
76.926204
 42
-0.066923
  0
VERTEX
  8
0
 10
389.638374
 20
77.500000
 42
0.059121
  0
VERTEX
  8
0
 10
389.783955
 20
78.074207
 42
0.104595
  0
VERTEX
  8
0
 10
389.745920
 20
78.559375
 42
0.149482
  0
VERTEX
  8
0
 10
389.535675
 20
78.877886
 42
0.174385
  0
VERTEX
  8
0
 10
389.196195
 20
79.000000
 42
-0.224149
  0
VERTEX
  8
0
 10
388.681242
 20
79.243064
 42
-0.020827
  0
VERTEX
  8
0
 10
387.810501
 20
80.395313
 42
-0.023623
  0
VERTEX
  8
0
 10
386.851915
 20
81.930254
 42
-0.016291
  0
VERTEX
  8
0
 10
385.908164
 20
83.750000
 42
0.011463
  0
VERTEX
  8
0
 10
384.960619
 20
85.621044
 42
0.014226
  0
VERTEX
  8
0
 10
383.990795
 20
87.314286
 42
0.012552
  0
VERTEX
  8
0
 10
383.108780
 20
88.679198
 42
0.096148
  0
VERTEX
  8
0
 10
382.568958
 20
89.213525
 42
-0.053783
  0
VERTEX
  8
0
 10
382.150665
 20
89.563025
 42
-0.042169
  0
VERTEX
  8
0
 10
381.777288
 20
90.021917
 42
-0.043441
  0
VERTEX
  8
0
 10
381.500472
 20
90.514605
 42
-0.076409
  0
VERTEX
  8
0
 10
381.375000
 20
90.963525
 42
0.014870
  0
VERTEX
  8
0
 10
381.312359
 20
91.378671
 42
0.017266
  0
VERTEX
  8
0
 10
381.227525
 20
91.768973
 42
0.016464
  0
VERTEX
  8
0
 10
381.134175
 20
92.091805
 42
0.091254
  0
VERTEX
  8
0
 10
381.048489
 20
92.250000
 42
-0.093833
  0
VERTEX
  8
0
 10
380.954038
 20
92.426526
 42
-0.008660
  0
VERTEX
  8
0
 10
380.813094
 20
92.904304
 42
-0.010925
  0
VERTEX
  8
0
 10
380.666185
 20
93.485239
 42
-0.008357
  0
VERTEX
  8
0
 10
380.530120
 20
94.126355
 42
0.011836
  0
VERTEX
  8
0
 10
380.358237
 20
94.909368
 42
0.005124
  0
VERTEX
  8
0
 10
380.094243
 20
95.943225
 42
0.005067
  0
VERTEX
  8
0
 10
379.790892
 20
97.037654
 42
0.006702
  0
VERTEX
  8
0
 10
379.491232
 20
98.027627
 42
-0.016796
  0
VERTEX
  8
0
 10
379.134935
 20
99.296526
 42
-0.228197
  0
VERTEX
  8
0
 10
379.231758
 20
99.754025
 42
-0.311117
  0
VERTEX
  8
0
 10
379.617386
 20
99.877672
 42
-0.027296
  0
VERTEX
  8
0
 10
380.634601
 20
99.509184
 42
0.041250
  0
VERTEX
  8
0
 10
382.516665
 20
98.886170
 42
0.017391
  0
VERTEX
  8
0
 10
385.128053
 20
98.350177
 42
0.015493
  0
VERTEX
  8
0
 10
388.245731
 20
97.921386
 42
0.011315
  0
VERTEX
  8
0
 10
391.729836
 20
97.631309
 42
-0.058829
  0
VERTEX
  8
0
 10
393.204252
 20
97.366118
 42
-0.029979
  0
VERTEX
  8
0
 10
394.971494
 20
96.710146
 42
-0.029264
  0
VERTEX
  8
0
 10
396.738943
 20
95.803715
 42
-0.038153
  0
VERTEX
  8
0
 10
398.229836
 20
94.764688
 42
0.036708
  0
VERTEX
  8
0
 10
399.754950
 20
93.695262
 42
0.024472
  0
VERTEX
  8
0
 10
401.639413
 20
92.691998
 42
0.024669
  0
VERTEX
  8
0
 10
403.573874
 20
91.894660
 42
0.043522
  0
VERTEX
  8
0
 10
405.244760
 20
91.459741
 42
-0.019596
  0
VERTEX
  8
0
 10
406.719908
 20
91.150197
 42
-0.024657
  0
VERTEX
  8
0
 10
408.055247
 20
90.743954
 42
-0.024034
  0
VERTEX
  8
0
 10
409.114700
 20
90.305124
 42
-0.145124
  0
VERTEX
  8
0
 10
409.553777
 20
89.912988
 42
0.117262
  0
VERTEX
  8
0
 10
409.905336
 20
89.562575
 42
0.048980
  0
VERTEX
  8
0
 10
410.511004
 20
89.268190
 42
0.044867
  0
VERTEX
  8
0
 10
411.250622
 20
89.067574
 42
0.043827
  0
VERTEX
  8
0
 10
412.020062
 20
89.000000
 42
-0.076079
  0
VERTEX
  8
0
 10
412.877851
 20
88.868721
 42
-0.039121
  0
VERTEX
  8
0
 10
413.888875
 20
88.462638
 42
-0.037739
  0
VERTEX
  8
0
 10
414.886224
 20
87.870777
 42
-0.046416
  0
VERTEX
  8
0
 10
415.711045
 20
87.170684
 42
0.054631
  0
VERTEX
  8
0
 10
416.986918
 20
86.123229
 42
0.004360
  0
VERTEX
  8
0
 10
420.667202
 20
83.766748
 42
0.005860
  0
VERTEX
  8
0
 10
425.125769
 20
81.038781
 42
0.004460
  0
VERTEX
  8
0
 10
430.070921
 20
78.151643
 42
-0.017001
  0
VERTEX
  8
0
 10
438.846510
 20
72.728623
 42
-0.050714
  0
VERTEX
  8
0
 10
444.291453
 20
68.245089
 42
-0.069491
  0
VERTEX
  8
0
 10
447.732336
 20
63.641237
 42
-0.060081
  0
VERTEX
  8
0
 10
449.988912
 20
58.041177
 42
0.017321
  0
VERTEX
  8
0
 10
450.463971
 20
56.492679
 42
0.026250
  0
VERTEX
  8
0
 10
450.992713
 20
55.187096
 42
0.024155
  0
VERTEX
  8
0
 10
451.507675
 20
54.211291
 42
0.265194
  0
VERTEX
  8
0
 10
451.878029
 20
54.000000
 42
-0.258018
  0
VERTEX
  8
0
 10
452.662592
 20
53.566261
 42
-0.018252
  0
VERTEX
  8
0
 10
453.960688
 20
51.321282
 42
-0.021405
  0
VERTEX
  8
0
 10
455.074615
 20
48.985223
 42
-0.158264
  0
VERTEX
  8
0
 10
455.181909
 20
47.772190
 42
0.233985
  0
VERTEX
  8
0
 10
455.295106
 20
47.297301
 42
0.004627
  0
VERTEX
  8
0
 10
456.951690
 20
45.342281
 42
0.010021
  0
VERTEX
  8
0
 10
458.990232
 20
43.074649
 42
0.006432
  0
VERTEX
  8
0
 10
461.441369
 20
40.522190
 42
-0.004287
  0
VERTEX
  8
0
 10
463.864844
 20
38.020110
 42
-0.007658
  0
VERTEX
  8
0
 10
465.807713
 20
35.915893
 42
-0.003302
  0
VERTEX
  8
0
 10
467.355551
 20
34.163981
 42
-0.643731
  0
VERTEX
  8
0
 10
467.280963
 20
34.000000
 42
0.590566
  0
VERTEX
  8
0
 10
467.207732
 20
33.867182
 42
0.036760
  0
VERTEX
  8
0
 10
467.543800
 20
33.412500
 42
0.024748
  0
VERTEX
  8
0
 10
468.155583
 20
32.768153
 42
0.011846
  0
VERTEX
  8
0
 10
469.000000
 20
32.000000
 42
-0.013974
  0
VERTEX
  8
0
 10
469.837504
 20
31.231597
 42
-0.030406
  0
VERTEX
  8
0
 10
470.425223
 20
30.587500
 42
-0.054446
  0
VERTEX
  8
0
 10
470.706122
 20
30.149339
 42
-0.556767
  0
VERTEX
  8
0
 10
470.613583
 20
30.000000
 42
0.597025
  0
VERTEX
  8
0
 10
470.403006
 20
29.609300
 42
0.029790
  0
VERTEX
  8
0
 10
471.503971
 20
28.135777
 42
0.014443
  0
VERTEX
  8
0
 10
473.815214
 20
25.553825
 42
0.002310
  0
VERTEX
  8
0
 10
478.500000
 20
20.660566
 42
0.023231
  0
VERTEX
  8
0
 10
483.342325
 20
16.094108
 42
0.032000
  0
VERTEX
  8
0
 10
488.116979
 20
12.497028
 42
0.036300
  0
VERTEX
  8
0
 10
492.709479
 20
9.933551
 42
0.056637
  0
VERTEX
  8
0
 10
497.000000
 20
8.495580
 42
-0.022732
  0
VERTEX
  8
0
 10
498.388857
 20
8.132520
 42
-0.026499
  0
VERTEX
  8
0
 10
499.668030
 20
7.659590
 42
-0.026936
  0
VERTEX
  8
0
 10
500.690401
 20
7.151816
 42
-0.123029
  0
VERTEX
  8
0
 10
501.167762
 20
6.698415
 42
0.103415
  0
VERTEX
  8
0
 10
501.585703
 20
6.269469
 42
0.038080
  0
VERTEX
  8
0
 10
502.324464
 20
5.850229
 42
0.035750
  0
VERTEX
  8
0
 10
503.226017
 20
5.502022
 42
0.035775
  0
VERTEX
  8
0
 10
504.167762
 20
5.285894
 42
-0.004345
  0
VERTEX
  8
0
 10
506.683809
 20
4.872728
 42
-0.008167
  0
VERTEX
  8
0
 10
508.707327
 20
4.488214
 42
-0.002901
  0
VERTEX
  8
0
 10
510.372643
 20
4.133403
 42
-0.352352
  0
VERTEX
  8
0
 10
510.500000
 20
3.975117
 42
0.359117
  0
VERTEX
  8
0
 10
510.563087
 20
3.898608
 42
0.004435
  0
VERTEX
  8
0
 10
511.234375
 20
3.774489
 42
0.010575
  0
VERTEX
  8
0
 10
512.041481
 20
3.650184
 42
0.006431
  0
VERTEX
  8
0
 10
513.000000
 20
3.535772
 42
-0.009362
  0
VERTEX
  8
0
 10
514.235131
 20
3.380995
 42
-0.003624
  0
VERTEX
  8
0
 10
515.940625
 20
3.122129
 42
-0.003586
  0
VERTEX
  8
0
 10
517.785391
 20
2.814851
 42
-0.004427
  0
VERTEX
  8
0
 10
519.500000
 20
2.500935
 42
0.025596
  0
VERTEX
  8
0
 10
521.769737
 20
2.183972
 42
0.005109
  0
VERTEX
  8
0
 10
525.850000
 20
1.867735
 42
0.005392
  0
VERTEX
  8
0
 10
530.612478
 20
1.599096
 42
0.005003
  0
VERTEX
  8
0
 10
535.500000
 20
1.425227
 42
-0.002705
  0
VERTEX
  8
0
 10
540.240972
 20
1.278380
 42
-0.003574
  0
VERTEX
  8
0
 10
544.558506
 20
1.090351
 42
-0.002583
  0
VERTEX
  8
0
 10
548.172461
 20
0.888352
 42
-0.034755
  0
VERTEX
  8
0
 10
549.486405
 20
0.715924
 42
0.090662
  0
VERTEX
  8
0
 10
551.521064
 20
0.676984
 42
0.010328
  0
VERTEX
  8
0
 10
556.059350
 20
1.513828
 42
0.013393
  0
VERTEX
  8
0
 10
560.690654
 20
2.597185
 42
0.033019
  0
VERTEX
  8
0
 10
564.000000
 20
3.703382
 42
-0.023770
  0
VERTEX
  8
0
 10
564.629320
 20
3.926756
 42
-0.023467
  0
VERTEX
  8
0
 10
565.279688
 20
4.090480
 42
-0.024111
  0
VERTEX
  8
0
 10
565.861238
 20
4.179252
 42
-0.078124
  0
VERTEX
  8
0
 10
566.250000
 20
4.158759
 42
0.145940
  0
VERTEX
  8
0
 10
566.535425
 20
4.181996
 42
0.126958
  0
VERTEX
  8
0
 10
566.779688
 20
4.357722
 42
0.103054
  0
VERTEX
  8
0
 10
566.943862
 20
4.666100
 42
0.071077
  0
VERTEX
  8
0
 10
567.000000
 20
5.059017
 42
-0.108972
  0
VERTEX
  8
0
 10
567.078288
 20
5.413961
 42
-0.182303
  0
VERTEX
  8
0
 10
567.293750
 20
5.625400
 42
-0.161196
  0
VERTEX
  8
0
 10
567.617900
 20
5.656512
 42
-0.082592
  0
VERTEX
  8
0
 10
568.000000
 20
5.500000
 42
0.075954
  0
VERTEX
  8
0
 10
568.382422
 20
5.337431
 42
0.153151
  0
VERTEX
  8
0
 10
568.706250
 20
5.354805
 42
0.186776
  0
VERTEX
  8
0
 10
568.920620
 20
5.545429
 42
0.119226
  0
VERTEX
  8
0
 10
569.000000
 20
5.873595
 42
-0.147752
  0
VERTEX
  8
0
 10
569.127175
 20
6.294569
 42
-0.064352
  0
VERTEX
  8
0
 10
569.514063
 20
6.739898
 42
-0.055726
  0
VERTEX
  8
0
 10
570.080545
 20
7.140600
 42
-0.048042
  0
VERTEX
  8
0
 10
570.750000
 20
7.430209
 42
0.095697
  0
VERTEX
  8
0
 10
573.363615
 20
8.868565
 42
0.029059
  0
VERTEX
  8
0
 10
576.681241
 20
11.971746
 42
0.028556
  0
VERTEX
  8
0
 10
579.993232
 20
15.875375
 42
0.031712
  0
VERTEX
  8
0
 10
582.714824
 20
20.001565
 42
0.004912
  0
VERTEX
  8
0
 10
583.923656
 20
22.163384
 42
0.007003
  0
VERTEX
  8
0
 10
584.951113
 20
24.108225
 42
0.004155
  0
VERTEX
  8
0
 10
585.776604
 20
25.758932
 42
0.097951
  0
VERTEX
  8
0
 10
585.910093
 20
26.260478
 42
-0.071956
  0
VERTEX
  8
0
 10
586.004115
 20
26.704846
 42
-0.009547
  0
VERTEX
  8
0
 10
586.353516
 20
27.602300
 42
-0.010899
  0
VERTEX
  8
0
 10
586.814125
 20
28.655835
 42
-0.008953
  0
VERTEX
  8
0
 10
587.350272
 20
29.760478
 42
0.041904
  0
VERTEX
  8
0
 10
587.850954
 20
30.992471
 42
0.030475
  0
VERTEX
  8
0
 10
588.204668
 20
32.429640
 42
0.031027
  0
VERTEX
  8
0
 10
588.372935
 20
33.844688
 42
0.057235
  0
VERTEX
  8
0
 10
588.305824
 20
35.000000
 42
-0.015228
  0
VERTEX
  8
0
 10
587.813790
 20
38.443792
 42
-0.026232
  0
VERTEX
  8
0
 10
587.643019
 20
41.334418
 42
-0.031631
  0
VERTEX
  8
0
 10
587.774178
 20
43.645800
 42
-0.081117
  0
VERTEX
  8
0
 10
588.238610
 20
45.250000
 42
0.036979
  0
VERTEX
  8
0
 10
588.498773
 20
45.921234
 42
0.072748
  0
VERTEX
  8
0
 10
588.584465
 20
46.485937
 42
0.126909
  0
VERTEX
  8
0
 10
588.491197
 20
46.855661
 42
0.274396
  0
VERTEX
  8
0
 10
588.247988
 20
47.000000
 42
-0.191940
  0
VERTEX
  8
0
 10
587.923018
 20
47.129521
 42
-0.077549
  0
VERTEX
  8
0
 10
587.626128
 20
47.514063
 42
-0.061342
  0
VERTEX
  8
0
 10
587.399896
 20
48.080219
 42
-0.044512
  0
VERTEX
  8
0
 10
587.285848
 20
48.750000
 42
0.018976
  0
VERTEX
  8
0
 10
587.094347
 20
50.370323
 42
0.009533
  0
VERTEX
  8
0
 10
586.736262
 20
52.399693
 42
0.004273
  0
VERTEX
  8
0
 10
586.060251
 20
55.696212
 42
0.000513
  0
VERTEX
  8
0
 10
584.498941
 20
62.955984
 42
0.037957
  0
VERTEX
  8
0
 10
582.948005
 20
68.177268
 42
0.025443
  0
VERTEX
  8
0
 10
580.432839
 20
73.878307
 42
0.025408
  0
VERTEX
  8
0
 10
577.344297
 20
79.308095
 42
0.037207
  0
VERTEX
  8
0
 10
574.052369
 20
83.707794
 42
-0.034935
  0
VERTEX
  8
0
 10
573.649618
 20
84.241013
 42
-0.031435
  0
VERTEX
  8
0
 10
573.309133
 20
84.843755
 42
-0.032837
  0
VERTEX
  8
0
 10
573.073340
 20
85.424468
 42
-0.080184
  0
VERTEX
  8
0
 10
573.000000
 20
85.878846
 42
0.191894
  0
VERTEX
  8
0
 10
572.447733
 20
87.264850
 42
0.006968
  0
VERTEX
  8
0
 10
568.406158
 20
91.413775
 42
0.006977
  0
VERTEX
  8
0
 10
564.250885
 20
95.447964
 42
0.191454
  0
VERTEX
  8
0
 10
562.862036
 20
96.000000
 42
-0.109381
  0
VERTEX
  8
0
 10
562.533719
 20
96.072693
 42
-0.182515
  0
VERTEX
  8
0
 10
562.338338
 20
96.272601
 42
-0.160868
  0
VERTEX
  8
0
 10
562.310014
 20
96.573400
 42
-0.082300
  0
VERTEX
  8
0
 10
562.455504
 20
96.928004
 42
0.209118
  0
VERTEX
  8
0
 10
562.512946
 20
97.331877
 42
0.118650
  0
VERTEX
  8
0
 10
562.268799
 20
97.771225
 42
0.081387
  0
VERTEX
  8
0
 10
561.744038
 20
98.182695
 42
0.048846
  0
VERTEX
  8
0
 10
561.014521
 20
98.495391
 42
-0.033416
  0
VERTEX
  8
0
 10
560.243314
 20
98.798191
 42
-0.044107
  0
VERTEX
  8
0
 10
559.591765
 20
99.179159
 42
-0.050985
  0
VERTEX
  8
0
 10
559.136858
 20
99.577452
 42
-0.189670
  0
VERTEX
  8
0
 10
559.000000
 20
99.925251
 42
0.255422
  0
VERTEX
  8
0
 10
558.414360
 20
100.996875
 42
0.004773
  0
VERTEX
  8
0
 10
552.803351
 20
104.522135
 42
0.007132
  0
VERTEX
  8
0
 10
547.280602
 20
107.811223
 42
0.131470
  0
VERTEX
  8
0
 10
545.329251
 20
108.333333
 42
-0.060809
  0
VERTEX
  8
0
 10
544.820946
 20
108.395382
 42
-0.079427
  0
VERTEX
  8
0
 10
544.390468
 20
108.578125
 42
-0.097368
  0
VERTEX
  8
0
 10
544.102261
 20
108.848833
 42
-0.156912
  0
VERTEX
  8
0
 10
544.000000
 20
109.166667
 42
0.181382
  0
VERTEX
  8
0
 10
543.880687
 20
109.484746
 42
0.091246
  0
VERTEX
  8
0
 10
543.540063
 20
109.755208
 42
0.071187
  0
VERTEX
  8
0
 10
543.033360
 20
109.938428
 42
0.051252
  0
VERTEX
  8
0
 10
542.434259
 20
110.000000
 42
-0.055048
  0
VERTEX
  8
0
 10
541.681031
 20
110.083179
 42
-0.022552
  0
VERTEX
  8
0
 10
540.686828
 20
110.353060
 42
-0.021986
  0
VERTEX
  8
0
 10
539.635390
 20
110.741792
 42
-0.026243
  0
VERTEX
  8
0
 10
538.684259
 20
111.201907
 42
0.011988
  0
VERTEX
  8
0
 10
537.756310
 20
111.683909
 42
0.010823
  0
VERTEX
  8
0
 10
536.774438
 20
112.138319
 42
0.010914
  0
VERTEX
  8
0
 10
535.877081
 20
112.507156
 42
0.033524
  0
VERTEX
  8
0
 10
535.250000
 20
112.701907
 42
-0.002710
  0
VERTEX
  8
0
 10
534.680993
 20
112.840864
 42
-0.001580
  0
VERTEX
  8
0
 10
534.000000
 20
113.013373
 42
-0.001579
  0
VERTEX
  8
0
 10
533.319070
 20
113.190452
 42
-0.002673
  0
VERTEX
  8
0
 10
532.750000
 20
113.343619
 42
0.001327
  0
VERTEX
  8
0
 10
532.076850
 20
113.526744
 42
0.000339
  0
VERTEX
  8
0
 10
530.985937
 20
113.819617
 42
0.000346
  0
VERTEX
  8
0
 10
529.740234
 20
114.152216
 42
0.000351
  0
VERTEX
  8
0
 10
528.500000
 20
114.481507
 42
-0.011412
  0
VERTEX
  8
0
 10
527.278132
 20
114.835032
 42
-0.011805
  0
VERTEX
  8
0
 10
526.087500
 20
115.240289
 42
-0.011583
  0
VERTEX
  8
0
 10
525.074473
 20
115.638862
 42
-0.048710
  0
VERTEX
  8
0
 10
524.500000
 20
115.949240
 42
0.060596
  0
VERTEX
  8
0
 10
524.008968
 20
116.199687
 42
0.032190
  0
VERTEX
  8
0
 10
523.353125
 20
116.392721
 42
0.031506
  0
VERTEX
  8
0
 10
522.647608
 20
116.505778
 42
0.042212
  0
VERTEX
  8
0
 10
522.000000
 20
116.513246
 42
-0.103568
  0
VERTEX
  8
0
 10
521.096493
 20
116.634638
 42
-0.011218
  0
VERTEX
  8
0
 10
519.117974
 20
117.384768
 42
-0.013378
  0
VERTEX
  8
0
 10
516.780995
 20
118.404888
 42
-0.010410
  0
VERTEX
  8
0
 10
514.295230
 20
119.633838
 42
0.023855
  0
VERTEX
  8
0
 10
509.979782
 20
121.624864
 42
0.036815
  0
VERTEX
  8
0
 10
506.069987
 20
122.881471
 42
0.029293
  0
VERTEX
  8
0
 10
501.419987
 20
123.721902
 42
0.009631
  0
VERTEX
  8
0
 10
494.500000
 20
124.423046
 42
-0.010784
  0
VERTEX
  8
0
 10
489.729097
 20
124.917551
 42
-0.019431
  0
VERTEX
  8
0
 10
485.850212
 20
125.558276
 42
-0.020725
  0
VERTEX
  8
0
 10
482.914899
 20
126.289067
 42
-0.121199
  0
VERTEX
  8
0
 10
481.550000
 20
127.082692
 42
0.170006
  0
VERTEX
  8
0
 10
479.960699
 20
127.813695
 42
0.024676
  0
VERTEX
  8
0
 10
476.348577
 20
127.976225
 42
0.022537
  0
VERTEX
  8
0
 10
472.746038
 20
127.797957
 42
0.234858
  0
VERTEX
  8
0
 10
471.523987
 20
127.038812
 42
-0.407524
  0
VERTEX
  8
0
 10
469.854531
 20
126.624475
 42
-0.008264
  0
VERTEX
  8
0
 10
461.735838
 20
131.570932
 42
-0.017089
  0
VERTEX
  8
0
 10
453.884471
 20
136.918252
 42
-0.045582
  0
VERTEX
  8
0
 10
448.809351
 20
141.398137
 42
-0.005894
  0
VERTEX
  8
0
 10
446.966313
 20
143.397550
 42
-0.008889
  0
VERTEX
  8
0
 10
445.412747
 20
145.186262
 42
-0.004423
  0
VERTEX
  8
0
 10
444.145887
 20
146.725812
 42
-0.171577
  0
VERTEX
  8
0
 10
444.000000
 20
147.138434
 42
-0.305516
  0
VERTEX
  8
0
 10
444.333518
 20
147.633313
 42
-0.018190
  0
VERTEX
  8
0
 10
446.116007
 20
148.280704
 42
-0.021381
  0
VERTEX
  8
0
 10
448.511659
 20
148.941784
 42
-0.011653
  0
VERTEX
  8
0
 10
451.500000
 20
149.557477
 42
-0.017929
  0
VERTEX
  8
0
 10
452.667896
 20
149.726860
 42
-0.003018
  0
VERTEX
  8
0
 10
454.914852
 20
149.957162
 42
-0.003299
  0
VERTEX
  8
0
 10
457.560129
 20
150.194561
 42
-0.002925
  0
VERTEX
  8
0
 10
460.316517
 20
150.407383
 42
0.071130
  0
VERTEX
  8
0
 10
469.141994
 20
152.318267
 42
0.148638
  0
VERTEX
  8
0
 10
474.682898
 20
156.533667
 42
0.141836
  0
VERTEX
  8
0
 10
477.094515
 20
163.275542
 42
0.062548
  0
VERTEX
  8
0
 10
476.491070
 20
172.810863
 42
0.058304
  0
VERTEX
  8
0
 10
475.242168
 20
176.783259
 42
0.038530
  0
VERTEX
  8
0
 10
472.953721
 20
180.991126
 42
0.029650
  0
VERTEX
  8
0
 10
469.423460
 20
185.788350
 42
0.013601
  0
VERTEX
  8
0
 10
464.295455
 20
191.624539
 42
-0.010421
  0
VERTEX
  8
0
 10
463.483928
 20
192.536378
 42
-0.020297
  0
VERTEX
  8
0
 10
462.882379
 20
193.302208
 42
-0.022031
  0
VERTEX
  8
0
 10
462.508037
 20
193.872101
 42
-0.581870
  0
VERTEX
  8
0
 10
462.580730
 20
194.000000
 42
0.573092
  0
VERTEX
  8
0
 10
462.655056
 20
194.126854
 42
0.025183
  0
VERTEX
  8
0
 10
462.319353
 20
194.660937
 42
0.021806
  0
VERTEX
  8
0
 10
461.762073
 20
195.386272
 42
0.011106
  0
VERTEX
  8
0
 10
461.003100
 20
196.250000
 42
-0.016844
  0
VERTEX
  8
0
 10
457.894510
 20
199.870594
 42
-0.010715
  0
VERTEX
  8
0
 10
454.513259
 20
204.278527
 42
-0.005192
  0
VERTEX
  8
0
 10
451.402190
 20
208.613062
 42
-0.154243
  0
VERTEX
  8
0
 10
451.000000
 20
209.885797
 42
0.194951
  0
VERTEX
  8
0
 10
450.408815
 20
211.344412
 42
0.002563
  0
VERTEX
  8
0
 10
443.413505
 20
218.482904
 42
0.007630
  0
VERTEX
  8
0
 10
436.667853
 20
225.091607
 42
0.027356
  0
VERTEX
  8
0
 10
432.076178
 20
229.000000
 42
-0.001890
  0
VERTEX
  8
0
 10
430.732601
 20
230.030469
 42
-0.001957
  0
VERTEX
  8
0
 10
429.412225
 20
231.059375
 42
-0.001886
  0
VERTEX
  8
0
 10
428.275793
 20
231.959062
 42
-0.008435
  0
VERTEX
  8
0
 10
427.620761
 20
232.500000
 42
0.029036
  0
VERTEX
  8
0
 10
421.085582
 20
237.458802
 42
0.009810
  0
VERTEX
  8
0
 10
411.030860
 20
243.923817
 42
0.006818
  0
VERTEX
  8
0
 10
400.863936
 20
249.992950
 42
0.083766
  0
VERTEX
  8
0
 10
396.645392
 20
251.568291
 42
-0.040137
  0
VERTEX
  8
0
 10
395.754203
 20
251.815399
 42
-0.017676
  0
VERTEX
  8
0
 10
394.620026
 20
252.276395
 42
-0.017361
  0
VERTEX
  8
0
 10
393.445470
 20
252.852675
 42
-0.022302
  0
VERTEX
  8
0
 10
392.410698
 20
253.466556
 42
0.019742
  0
VERTEX
  8
0
 10
391.432749
 20
254.053515
 42
0.020906
  0
VERTEX
  8
0
 10
390.429744
 20
254.549551
 42
0.021068
  0
VERTEX
  8
0
 10
389.534543
 20
254.902280
 42
0.083496
  0
VERTEX
  8
0
 10
388.953448
 20
255.000000
 42
-0.107396
  0
VERTEX
  8
0
 10
388.252746
 20
255.152261
 42
-0.007530
  0
VERTEX
  8
0
 10
386.426134
 20
256.018901
 42
-0.010388
  0
VERTEX
  8
0
 10
384.266584
 20
257.139995
 42
-0.007628
  0
VERTEX
  8
0
 10
381.918264
 20
258.468600
 42
0.006544
  0
VERTEX
  8
0
 10
379.648041
 20
259.759524
 42
0.011588
  0
VERTEX
  8
0
 10
377.738490
 20
260.755533
 42
0.006182
  0
VERTEX
  8
0
 10
376.180906
 20
261.498796
 42
0.547493
  0
VERTEX
  8
0
 10
376.000000
 20
261.383105
 42
-0.530372
  0
VERTEX
  8
0
 10
375.822527
 20
261.262858
 42
-0.010040
  0
VERTEX
  8
0
 10
374.604687
 20
261.777576
 42
-0.014915
  0
VERTEX
  8
0
 10
373.072210
 20
262.517439
 42
-0.008322
  0
VERTEX
  8
0
 10
371.250000
 20
263.504075
 42
0.013852
  0
VERTEX
  8
0
 10
367.648122
 20
265.403110
 42
0.039360
  0
VERTEX
  8
0
 10
365.013250
 20
266.451895
 42
0.038315
  0
VERTEX
  8
0
 10
362.207542
 20
267.089757
 42
0.012578
  0
VERTEX
  8
0
 10
358.000000
 20
267.604774
 42
-0.002231
  0
VERTEX
  8
0
 10
355.884076
 20
267.819434
 42
-0.001111
  0
VERTEX
  8
0
 10
353.206250
 20
268.109193
 42
-0.001103
  0
VERTEX
  8
0
 10
350.433873
 20
268.421612
 42
-0.001624
  0
VERTEX
  8
0
 10
348.000000
 20
268.709336
 42
0.021746
  0
VERTEX
  8
0
 10
342.752426
 20
269.116491
 42
0.020896
  0
VERTEX
  8
0
 10
337.418747
 20
269.074693
 42
0.020967
  0
VERTEX
  8
0
 10
332.125752
 20
268.588764
 42
0.022285
  0
VERTEX
  8
0
 10
327.000000
 20
267.666410
 42
-0.012783
  0
VERTEX
  8
0
 10
325.406215
 20
267.348245
 42
-0.001410
  0
VERTEX
  8
0
 10
321.736845
 20
266.723459
 42
-0.001884
  0
VERTEX
  8
0
 10
317.926393
 20
266.100453
 42
-0.004113
  0
VERTEX
  8
0
 10
315.000000
 20
265.657963
 42
0.029910
  0
VERTEX
  8
0
 10
314.341055
 20
265.523259
 42
0.019533
  0
VERTEX
  8
0
 10
313.599678
 20
265.293511
 42
0.019658
  0
VERTEX
  8
0
 10
312.891938
 20
265.011748
 42
0.035158
  0
VERTEX
  8
0
 10
312.339329
 20
264.718071
 42
-0.058438
  0
VERTEX
  8
0
 10
311.718033
 20
264.424040
 42
-0.019922
  0
VERTEX
  8
0
 10
310.758990
 20
264.142604
 42
-0.019495
  0
VERTEX
  8
0
 10
309.665802
 20
263.913461
 42
-0.021268
  0
VERTEX
  8
0
 10
308.589329
 20
263.778084
 42
0.028328
  0
VERTEX
  8
0
 10
307.597400
 20
263.639093
 42
0.042881
  0
VERTEX
  8
0
 10
306.760616
 20
263.397054
 42
0.051646
  0
VERTEX
  8
0
 10
306.171918
 20
263.097665
 42
0.254576
  0
VERTEX
  8
0
 10
306.000000
 20
262.781892
 42
-0.164322
  0
VERTEX
  8
0
 10
305.899257
 20
262.483629
 42
-0.095778
  0
VERTEX
  8
0
 10
305.614550
 20
262.229681
 42
-0.076897
  0
VERTEX
  8
0
 10
305.189702
 20
262.058072
 42
-0.057663
  0
VERTEX
  8
0
 10
304.687829
 20
262.000000
 42
0.076443
  0
VERTEX
  8
0
 10
303.937783
 20
261.884655
 42
0.012013
  0
VERTEX
  8
0
 10
302.519510
 20
261.400125
 42
0.013107
  0
VERTEX
  8
0
 10
300.863393
 20
260.739727
 42
0.011106
  0
VERTEX
  8
0
 10
299.148941
 20
259.957872
 42
0.000000
  0
VERTEX
  8
0
 10
294.922222
 20
257.915744
 42
0.000000
  0
VERTEX
  8
0
 10
291.041387
 20
260.096895
 42
-0.030229
  0
VERTEX
  8
0
 10
289.517672
 20
261.078875
 42
-0.031597
  0
VERTEX
  8
0
 10
288.147088
 20
262.224161
 42
-0.033319
  0
VERTEX
  8
0
 10
287.100211
 20
263.359406
 42
-0.106028
  0
VERTEX
  8
0
 10
286.638139
 20
264.275756
 42
-0.162385
  0
VERTEX
  8
0
 10
286.785470
 20
266.498641
 42
-0.019656
  0
VERTEX
  8
0
 10
288.845096
 20
271.019942
 42
-0.016998
  0
VERTEX
  8
0
 10
291.176496
 20
275.279944
 42
-0.489687
  0
VERTEX
  8
0
 10
292.251309
 20
275.415358
 42
0.262217
  0
VERTEX
  8
0
 10
292.601902
 20
275.317380
 42
0.059026
  0
VERTEX
  8
0
 10
293.204017
 20
275.542845
 42
0.046622
  0
VERTEX
  8
0
 10
293.928516
 20
276.006598
 42
0.029998
  0
VERTEX
  8
0
 10
294.677259
 20
276.666667
 42
-0.011732
  0
VERTEX
  8
0
 10
295.580557
 20
277.523583
 42
-0.005344
  0
VERTEX
  8
0
 10
296.798951
 20
278.602813
 42
-0.005288
  0
VERTEX
  8
0
 10
298.107847
 20
279.713453
 42
-0.007242
  0
VERTEX
  8
0
 10
299.310699
 20
280.683334
 42
0.020093
  0
VERTEX
  8
0
 10
300.879042
 20
282.015847
 42
0.127358
  0
VERTEX
  8
0
 10
301.441829
 20
282.888134
 42
0.167651
  0
VERTEX
  8
0
 10
301.430327
 20
283.802242
 42
0.041675
  0
VERTEX
  8
0
 10
300.800107
 20
285.183334
 42
0.016161
  0
VERTEX
  8
0
 10
300.234379
 20
286.119201
 42
0.016209
  0
VERTEX
  8
0
 10
299.609908
 20
287.015635
 42
0.016252
  0
VERTEX
  8
0
 10
299.015537
 20
287.760693
 42
0.060107
  0
VERTEX
  8
0
 10
298.574047
 20
288.167762
 42
-0.255994
  0
VERTEX
  8
0
 10
297.134838
 20
291.187256
 42
-0.113738
  0
VERTEX
  8
0
 10
298.405988
 20
295.559369
 42
-0.104122
  0
VERTEX
  8
0
 10
301.580690
 20
299.201479
 42
-0.203481
  0
VERTEX
  8
0
 10
305.250000
 20
300.118421
 42
0.132511
  0
VERTEX
  8
0
 10
305.535663
 20
300.149071
 42
0.119960
  0
VERTEX
  8
0
 10
305.779688
 20
300.319317
 42
0.103422
  0
VERTEX
  8
0
 10
305.943457
 20
300.607510
 42
0.077818
  0
VERTEX
  8
0
 10
306.000000
 20
300.968615
 42
-0.184534
  0
VERTEX
  8
0
 10
306.122486
 20
301.289193
 42
-0.147206
  0
VERTEX
  8
0
 10
306.440625
 20
301.483616
 42
-0.100118
  0
VERTEX
  8
0
 10
306.925634
 20
301.511135
 42
-0.055937
  0
VERTEX
  8
0
 10
307.500000
 20
301.361626
 42
0.162536
  0
VERTEX
  8
0
 10
308.644448
 20
301.311061
 42
0.464247
  0
VERTEX
  8
0
 10
308.929368
 20
301.943261
 42
0.111946
  0
VERTEX
  8
0
 10
307.876262
 20
303.275739
 42
0.050483
  0
VERTEX
  8
0
 10
306.000000
 20
304.500000
 42
-0.031500
  0
VERTEX
  8
0
 10
304.851682
 20
305.188693
 42
-0.038787
  0
VERTEX
  8
0
 10
303.881250
 20
305.974638
 42
-0.042750
  0
VERTEX
  8
0
 10
303.199613
 20
306.740820
 42
-0.161796
  0
VERTEX
  8
0
 10
303.000000
 20
307.341539
 42
0.182977
  0
VERTEX
  8
0
 10
302.759089
 20
307.977808
 42
0.030796
  0
VERTEX
  8
0
 10
301.821898
 20
308.914858
 42
0.030200
  0
VERTEX
  8
0
 10
300.525193
 20
309.928257
 42
0.022742
  0
VERTEX
  8
0
 10
298.989439
 20
310.885779
 42
-0.017300
  0
VERTEX
  8
0
 10
297.015256
 20
312.087025
 42
-0.076097
  0
VERTEX
  8
0
 10
296.005097
 20
312.996737
 42
-0.151595
  0
VERTEX
  8
0
 10
295.667731
 20
313.829592
 42
-0.149647
  0
VERTEX
  8
0
 10
295.858677
 20
314.711953
 42
0.104720
  0
VERTEX
  8
0
 10
296.318804
 20
316.191419
 42
0.065676
  0
VERTEX
  8
0
 10
296.249116
 20
318.009191
 42
0.074501
  0
VERTEX
  8
0
 10
295.756073
 20
319.505968
 42
0.283191
  0
VERTEX
  8
0
 10
294.953765
 20
320.000000
 42
-0.495575
  0
VERTEX
  8
0
 10
294.770324
 20
320.241007
 42
-0.023887
  0
VERTEX
  8
0
 10
295.135271
 20
321.352036
 42
-0.023462
  0
VERTEX
  8
0
 10
295.784165
 20
322.836661
 42
-0.012673
  0
VERTEX
  8
0
 10
296.713278
 20
324.602677
 42
0.034536
  0
VERTEX
  8
0
 10
298.248510
 20
327.858526
 42
0.188064
  0
VERTEX
  8
0
 10
298.248093
 20
329.771846
 42
0.320860
  0
VERTEX
  8
0
 10
297.049380
 20
330.553488
 42
0.077080
  0
VERTEX
  8
0
 10
294.583474
 20
330.061335
 42
-0.074902
  0
VERTEX
  8
0
 10
291.898472
 20
329.513351
 42
-0.050999
  0
VERTEX
  8
0
 10
288.780043
 20
329.669746
 42
-0.048660
  0
VERTEX
  8
0
 10
285.590114
 20
330.481768
 42
-0.051813
  0
VERTEX
  8
0
 10
282.688120
 20
331.883735
 42
-0.030055
  0
VERTEX
  8
0
 10
280.764879
 20
333.238448
 42
-0.112839
  0
VERTEX
  8
0
 10
279.851331
 20
334.386089
 42
-0.097709
  0
VERTEX
  8
0
 10
279.458790
 20
335.905740
 42
-0.019485
  0
VERTEX
  8
0
 10
279.405222
 20
338.721989
 42
-0.016367
  0
VERTEX
  8
0
 10
279.531600
 20
341.118783
 42
-0.065705
  0
VERTEX
  8
0
 10
279.846384
 20
342.549067
 42
-0.120445
  0
VERTEX
  8
0
 10
280.401042
 20
343.381806
 42
-0.139202
  0
VERTEX
  8
0
 10
281.250000
 20
343.809687
 42
0.077120
  0
VERTEX
  8
0
 10
282.504920
 20
344.259475
 42
0.268407
  0
VERTEX
  8
0
 10
282.936791
 20
344.966643
 42
0.243893
  0
VERTEX
  8
0
 10
282.552502
 20
345.752839
 42
0.067929
  0
VERTEX
  8
0
 10
281.312462
 20
346.433591
 42
0.080738
  0
VERTEX
  8
0
 10
280.562571
 20
346.589730
 42
0.096018
  0
VERTEX
  8
0
 10
279.848569
 20
346.483794
 42
0.096963
  0
VERTEX
  8
0
 10
279.231076
 20
346.120280
 42
0.083998
  0
VERTEX
  8
0
 10
278.759072
 20
345.533970
 42
-0.066942
  0
VERTEX
  8
0
 10
278.236099
 20
344.837237
 42
-0.155080
  0
VERTEX
  8
0
 10
277.664173
 20
344.535469
 42
-0.128362
  0
VERTEX
  8
0
 10
276.947174
 20
344.591167
 42
-0.039657
  0
VERTEX
  8
0
 10
275.946610
 20
345.028573
 42
0.023851
  0
VERTEX
  8
0
 10
275.024278
 20
345.466971
 42
0.111646
  0
VERTEX
  8
0
 10
274.448996
 20
345.567880
 42
0.246136
  0
VERTEX
  8
0
 10
274.127193
 20
345.378721
 42
0.140084
  0
VERTEX
  8
0
 10
274.000000
 20
344.933642
 42
-0.546550
  0
VERTEX
  8
0
 10
273.300944
 20
344.485159
 42
-0.021284
  0
VERTEX
  8
0
 10
270.022655
 20
346.160856
 42
-0.019489
  0
VERTEX
  8
0
 10
266.704580
 20
348.213785
 42
-0.222296
  0
VERTEX
  8
0
 10
265.933093
 20
349.500000
 42
0.061778
  0
VERTEX
  8
0
 10
265.825960
 20
349.965511
 42
0.027238
  0
VERTEX
  8
0
 10
265.577197
 20
350.547286
 42
0.026450
  0
VERTEX
  8
0
 10
265.242823
 20
351.143088
 42
0.032117
  0
VERTEX
  8
0
 10
264.866405
 20
351.660972
 42
-0.060999
  0
VERTEX
  8
0
 10
264.519970
 20
352.200418
 42
-0.124640
  0
VERTEX
  8
0
 10
264.420188
 20
352.690071
 42
-0.146408
  0
VERTEX
  8
0
 10
264.569702
 20
353.115821
 42
-0.097494
  0
VERTEX
  8
0
 10
264.951442
 20
353.469989
 42
0.057548
  0
VERTEX
  8
0
 10
265.352528
 20
353.786802
 42
0.050185
  0
VERTEX
  8
0
 10
265.691986
 20
354.200621
 42
0.052883
  0
VERTEX
  8
0
 10
265.923425
 20
354.644041
 42
0.094121
  0
VERTEX
  8
0
 10
266.000000
 20
355.047227
 42
0.371048
  0
VERTEX
  8
0
 10
265.464156
 20
355.669883
 42
0.061395
  0
VERTEX
  8
0
 10
263.750055
 20
355.716095
 42
0.055196
  0
VERTEX
  8
0
 10
261.875174
 20
355.324383
 42
0.159199
  0
VERTEX
  8
0
 10
260.817257
 20
354.549807
 42
-0.196454
  0
VERTEX
  8
0
 10
260.213022
 20
354.171172
 42
-0.012257
  0
VERTEX
  8
0
 10
258.085054
 20
353.855451
 42
-0.016634
  0
VERTEX
  8
0
 10
255.459107
 20
353.619761
 42
-0.011476
  0
VERTEX
  8
0
 10
252.474887
 20
353.520355
 42
-0.021810
  0
VERTEX
  8
0
 10
246.806480
 20
353.708991
 42
-0.080795
  0
VERTEX
  8
0
 10
243.341135
 20
354.550116
 42
-0.195564
  0
VERTEX
  8
0
 10
241.884348
 20
356.007527
 42
-0.226332
  0
VERTEX
  8
0
 10
241.974312
 20
357.952001
 42
0.035420
  0
VERTEX
  8
0
 10
242.420206
 20
358.948912
 42
0.276207
  0
VERTEX
  8
0
 10
242.328387
 20
359.428406
 42
0.206838
  0
VERTEX
  8
0
 10
241.821982
 20
359.663538
 42
0.021027
  0
VERTEX
  8
0
 10
240.466698
 20
359.642833
 42
0.061618
  0
VERTEX
  8
0
 10
239.473466
 20
359.461680
 42
0.060783
  0
VERTEX
  8
0
 10
238.549378
 20
359.043562
 42
0.066221
  0
VERTEX
  8
0
 10
237.828674
 20
358.462461
 42
0.113536
  0
VERTEX
  8
0
 10
237.437677
 20
357.801029
 42
-0.078415
  0
VERTEX
  8
0
 10
237.131795
 20
357.190238
 42
-0.095245
  0
VERTEX
  8
0
 10
236.668578
 20
356.749898
 42
-0.107545
  0
VERTEX
  8
0
 10
236.122760
 20
356.547000
 42
-0.127698
  0
VERTEX
  8
0
 10
235.577851
 20
356.608500
 42
0.117263
  0
VERTEX
  8
0
 10
235.028518
 20
356.681965
 42
0.100563
  0
VERTEX
  8
0
 10
234.470204
 20
356.508667
 42
0.092821
  0
VERTEX
  8
0
 10
233.988558
 20
356.113948
 42
0.083379
  0
VERTEX
  8
0
 10
233.660427
 20
355.557471
 42
-0.078257
  0
VERTEX
  8
0
 10
233.317470
 20
354.962084
 42
-0.065197
  0
VERTEX
  8
0
 10
232.788487
 20
354.457507
 42
-0.066717
  0
VERTEX
  8
0
 10
232.161482
 20
354.116321
 42
-0.091531
  0
VERTEX
  8
0
 10
231.531385
 20
354.000000
 42
0.063461
  0
VERTEX
  8
0
 10
230.945880
 20
353.925386
 42
0.081424
  0
VERTEX
  8
0
 10
230.449844
 20
353.706250
 42
0.098430
  0
VERTEX
  8
0
 10
230.117941
 20
353.381366
 42
0.151099
  0
VERTEX
  8
0
 10
230.000000
 20
353.000000
 42
-0.150182
  0
VERTEX
  8
0
 10
229.882810
 20
352.618638
 42
-0.098581
  0
VERTEX
  8
0
 10
229.553077
 20
352.293750
 42
-0.081740
  0
VERTEX
  8
0
 10
229.060248
 20
352.074639
 42
-0.063895
  0
VERTEX
  8
0
 10
228.478561
 20
352.000000
 42
0.131379
  0
VERTEX
  8
0
 10
227.814294
 20
351.822393
 42
0.057104
  0
VERTEX
  8
0
 10
227.073638
 20
351.274836
 42
0.051023
  0
VERTEX
  8
0
 10
226.375367
 20
350.475711
 42
0.047201
  0
VERTEX
  8
0
 10
225.832333
 20
349.531357
 42
-0.031781
  0
VERTEX
  8
0
 10
225.345052
 20
348.620142
 42
-0.052100
  0
VERTEX
  8
0
 10
224.809924
 20
347.928806
 42
-0.071492
  0
VERTEX
  8
0
 10
224.309975
 20
347.536583
 42
-0.275699
  0
VERTEX
  8
0
 10
223.931283
 20
347.542469
 42
0.317090
  0
VERTEX
  8
0
 10
223.100605
 20
347.492111
 42
0.009959
  0
VERTEX
  8
0
 10
220.346055
 20
345.197353
 42
0.009960
  0
VERTEX
  8
0
 10
216.124486
 20
341.385619
 42
0.001739
  0
VERTEX
  8
0
 10
208.335909
 20
334.015158
 42
-0.013404
  0
VERTEX
  8
0
 10
207.057164
 20
332.860397
 42
-0.017846
  0
VERTEX
  8
0
 10
205.831922
 20
331.885703
 42
-0.015233
  0
VERTEX
  8
0
 10
204.775971
 20
331.154188
 42
-0.144846
  0
VERTEX
  8
0
 10
204.254889
 20
331.000000
 42
0.174696
  0
VERTEX
  8
0
 10
203.815334
 20
330.841589
 42
0.036355
  0
VERTEX
  8
0
 10
203.213782
 20
330.264692
 42
0.034108
  0
VERTEX
  8
0
 10
202.578430
 20
329.455194
 42
0.026472
  0
VERTEX
  8
0
 10
201.998300
 20
328.496824
 42
-0.022474
  0
VERTEX
  8
0
 10
201.133023
 20
327.041257
 42
-0.182091
  0
VERTEX
  8
0
 10
200.516292
 20
326.592264
 42
-0.189770
  0
VERTEX
  8
0
 10
199.770831
 20
326.671603
 42
-0.024738
  0
VERTEX
  8
0
 10
198.366614
 20
327.495441
 42
0.048408
  0
VERTEX
  8
0
 10
197.217661
 20
328.098425
 42
0.022308
  0
VERTEX
  8
0
 10
195.624740
 20
328.665396
 42
0.021850
  0
VERTEX
  8
0
 10
193.882979
 20
329.116914
 42
0.028240
  0
VERTEX
  8
0
 10
192.251167
 20
329.369365
 42
-0.046496
  0
VERTEX
  8
0
 10
190.404869
 20
329.724345
 42
-0.018339
  0
VERTEX
  8
0
 10
187.945864
 20
330.537995
 42
-0.017964
  0
VERTEX
  8
0
 10
185.336171
 20
331.617271
 42
-0.021437
  0
VERTEX
  8
0
 10
182.963874
 20
332.825115
 42
0.004443
  0
VERTEX
  8
0
 10
180.816819
 20
334.011809
 42
0.006332
  0
VERTEX
  8
0
 10
178.887784
 20
335.024362
 42
0.003707
  0
VERTEX
  8
0
 10
177.250188
 20
335.842432
 42
0.089613
  0
VERTEX
  8
0
 10
176.760498
 20
335.981724
 42
-0.055697
  0
VERTEX
  8
0
 10
174.644095
 20
336.432070
 42
-0.025254
  0
VERTEX
  8
0
 10
172.000747
 20
337.461704
 42
-0.012617
  0
VERTEX
  8
0
 10
167.931761
 20
339.413053
 42
-0.001962
  0
VERTEX
  8
0
 10
160.000000
 20
343.505432
 42
0.002709
  0
VERTEX
  8
0
 10
154.039780
 20
346.569338
 42
0.017076
  0
VERTEX
  8
0
 10
150.942092
 20
348.009790
 42
0.030719
  0
VERTEX
  8
0
 10
148.600732
 20
348.837213
 42
0.024728
  0
VERTEX
  8
0
 10
146.000000
 20
349.442949
 42
-0.006074
  0
VERTEX
  8
0
 10
142.805797
 20
350.062339
 42
-0.031677
  0
VERTEX
  8
0
 10
141.076891
 20
350.535276
 42
-0.031551
  0
VERTEX
  8
0
 10
139.418652
 20
351.223559
 42
-0.005996
  0
VERTEX
  8
0
 10
136.500000
 20
352.700629
 42
0.005623
  0
VERTEX
  8
0
 10
134.912483
 20
353.505525
 42
0.007493
  0
VERTEX
  8
0
 10
133.451610
 20
354.198659
 42
0.005484
  0
VERTEX
  8
0
 10
132.217755
 20
354.745317
 42
0.073191
  0
VERTEX
  8
0
 10
131.739522
 20
354.872522
 42
-0.066448
  0
VERTEX
  8
0
 10
131.287662
 20
354.986241
 42
-0.007809
  0
VERTEX
  8
0
 10
130.327340
 20
355.386462
 42
-0.009244
  0
VERTEX
  8
0
 10
129.196380
 20
355.903741
 42
-0.007447
  0
VERTEX
  8
0
 10
128.000000
 20
356.500000
 42
0.006981
  0
VERTEX
  8
0
 10
126.821678
 20
357.088632
 42
0.009615
  0
VERTEX
  8
0
 10
125.746097
 20
357.582043
 42
0.006690
  0
VERTEX
  8
0
 10
124.838010
 20
357.963290
 42
0.106343
  0
VERTEX
  8
0
 10
124.510478
 20
358.020262
 42
-0.020115
  0
VERTEX
  8
0
 10
124.296699
 20
358.020380
 42
-0.018249
  0
VERTEX
  8
0
 10
124.076515
 20
358.037429
 42
-0.018614
  0
VERTEX
  8
0
 10
123.880655
 20
358.067229
 42
-0.054233
  0
VERTEX
  8
0
 10
123.750000
 20
358.107155
 42
0.072798
  0
VERTEX
  8
0
 10
123.558213
 20
358.158091
 42
0.001428
  0
VERTEX
  8
0
 10
122.545312
 20
358.271395
 42
0.003390
  0
VERTEX
  8
0
 10
121.359352
 20
358.392501
 42
0.002264
  0
VERTEX
  8
0
 10
120.000000
 20
358.515799
 42
-0.014463
  0
VERTEX
  8
0
 10
116.760544
 20
358.889497
 42
-0.026920
  0
VERTEX
  8
0
 10
114.169391
 20
359.408282
 42
-0.031385
  0
VERTEX
  8
0
 10
111.938102
 20
360.133317
 42
-0.031376
  0
VERTEX
  8
0
 10
109.814897
 20
361.131992
 42
0.009199
  0
VERTEX
  8
0
 10
108.855287
 20
361.636454
 42
0.009449
  0
VERTEX
  8
0
 10
107.886251
 20
362.100609
 42
0.009239
  0
VERTEX
  8
0
 10
107.031495
 20
362.471423
 42
0.038931
  0
VERTEX
  8
0
 10
106.500000
 20
362.643448
 42
0.002262
  0
VERTEX
  8
0
 10
105.967233
 20
362.768571
 42
0.000612
  0
VERTEX
  8
0
 10
105.122202
 20
362.961913
 42
0.000619
  0
VERTEX
  8
0
 10
104.162472
 20
363.179013
 42
0.000642
  0
VERTEX
  8
0
 10
103.213879
 20
363.391079
 42
-0.050426
  0
VERTEX
  8
0
 10
101.978722
 20
363.799608
 42
-0.010459
  0
VERTEX
  8
0
 10
99.907978
 20
364.777280
 42
-0.010888
  0
VERTEX
  8
0
 10
97.542057
 20
366.020458
 42
-0.010079
  0
VERTEX
  8
0
 10
95.170046
 20
367.396703
 42
0.015317
  0
VERTEX
  8
0
 10
89.945532
 20
370.355278
 42
0.017833
  0
VERTEX
  8
0
 10
84.804354
 20
372.832220
 42
0.013213
  0
VERTEX
  8
0
 10
80.329906
 20
374.655185
 42
0.178853
  0
VERTEX
  8
0
 10
78.593998
 20
374.666460
 42
-0.092666
  0
VERTEX
  8
0
 10
78.051043
 20
374.577354
 42
-0.038320
  0
VERTEX
  8
0
 10
77.307299
 20
374.651032
 42
-0.036229
  0
VERTEX
  8
0
 10
76.500412
 20
374.855149
 42
-0.038729
  0
VERTEX
  8
0
 10
75.750000
 20
375.170311
 42
0.033611
  0
VERTEX
  8
0
 10
74.957970
 20
375.512520
 42
0.128556
  0
VERTEX
  8
0
 10
74.426799
 20
375.557744
 42
0.230631
  0
VERTEX
  8
0
 10
74.117456
 20
375.334976
 42
0.123967
  0
SEQEND
  0
ENDSEC
  0
EOF
