  0
SECTION
  2
HEADER
  9
$ACADVER
  1
AC1006
  9
$EXTMIN
 10
0.000000
 20
0.000000
 30
0.000000
  9
$EXTMAX
 10
331.000000
 20
431.000000
 30
0.000000
  0
ENDSEC
  0
SECTION
  2
ENTITIES
  0
POLYLINE
  8
0
 66
1
 70
1
  0
VERTEX
  8
0
 10
185.670069
 20
430.250000
 42
0.069124
  0
VERTEX
  8
0
 10
185.443960
 20
429.715786
 42
0.004184
  0
VERTEX
  8
0
 10
185.005887
 20
428.028313
 42
0.006190
  0
VERTEX
  8
0
 10
184.524254
 20
426.000998
 42
0.004533
  0
VERTEX
  8
0
 10
184.038079
 20
423.740001
 42
-0.120668
  0
VERTEX
  8
0
 10
179.897683
 20
415.011255
 42
-0.121671
  0
VERTEX
  8
0
 10
172.203236
 20
409.215613
 42
-0.071659
  0
VERTEX
  8
0
 10
159.257477
 20
405.767087
 42
-0.019272
  0
VERTEX
  8
0
 10
138.000000
 20
404.090099
 42
0.003454
  0
VERTEX
  8
0
 10
126.230092
 20
403.535371
 42
0.020262
  0
VERTEX
  8
0
 10
120.069496
 20
402.951319
 42
0.031438
  0
VERTEX
  8
0
 10
115.211698
 20
401.977235
 42
0.016486
  0
VERTEX
  8
0
 10
109.309623
 20
400.192043
 42
0.021280
  0
VERTEX
  8
0
 10
99.340214
 20
396.333972
 42
0.016956
  0
VERTEX
  8
0
 10
88.933622
 20
391.362042
 42
0.015709
  0
VERTEX
  8
0
 10
78.081826
 20
385.277333
 42
0.012542
  0
VERTEX
  8
0
 10
66.771214
 20
378.066993
 42
0.002244
  0
VERTEX
  8
0
 10
61.542379
 20
374.511992
 42
0.002962
  0
VERTEX
  8
0
 10
56.810919
 20
371.222605
 42
0.002138
  0
VERTEX
  8
0
 10
52.875119
 20
368.426396
 42
0.028779
  0
VERTEX
  8
0
 10
51.500000
 20
367.315464
 42
-0.008032
  0
VERTEX
  8
0
 10
50.385731
 20
366.336186
 42
-0.001843
  0
VERTEX
  8
0
 10
48.471875
 20
364.720048
 42
-0.001905
  0
VERTEX
  8
0
 10
46.252344
 20
362.874113
 42
-0.001857
  0
VERTEX
  8
0
 10
44.000000
 20
361.029381
 42
0.008315
  0
VERTEX
  8
0
 10
41.389238
 20
358.834154
 42
0.003700
  0
VERTEX
  8
0
 10
38.018554
 20
355.858819
 42
0.003661
  0
VERTEX
  8
0
 10
34.496407
 20
352.656315
 42
0.004943
  0
VERTEX
  8
0
 10
31.361036
 20
349.705360
 42
-0.014256
  0
VERTEX
  8
0
 10
28.241746
 20
346.877221
 42
-0.011857
  0
VERTEX
  8
0
 10
24.772020
 20
344.046852
 42
-0.012029
  0
VERTEX
  8
0
 10
21.469431
 20
341.605895
 42
-0.031491
  0
VERTEX
  8
0
 10
18.955272
 20
340.066279
 42
0.025208
  0
VERTEX
  8
0
 10
13.160014
 20
336.616693
 42
0.026047
  0
VERTEX
  8
0
 10
7.806943
 20
332.636083
 42
0.027319
  0
VERTEX
  8
0
 10
3.528640
 20
328.681436
 42
0.081453
  0
VERTEX
  8
0
 10
1.258869
 20
325.416663
 42
0.020009
  0
VERTEX
  8
0
 10
0.300404
 20
323.180656
 42
0.101027
  0
VERTEX
  8
0
 10
0.080344
 20
321.847350
 42
0.097384
  0
VERTEX
  8
0
 10
0.395973
 20
320.511092
 42
0.017920
  0
VERTEX
  8
0
 10
1.530547
 20
318.232256
 42
0.051144
  0
VERTEX
  8
0
 10
2.769584
 20
316.421086
 42
0.013274
  0
VERTEX
  8
0
 10
5.124598
 20
313.782783
 42
0.013358
  0
VERTEX
  8
0
 10
7.984330
 20
310.903465
 42
0.013268
  0
VERTEX
  8
0
 10
11.000000
 20
308.174329
 42
-0.012612
  0
VERTEX
  8
0
 10
24.496116
 20
295.992711
 42
-0.028886
  0
VERTEX
  8
0
 10
33.867628
 20
286.004728
 42
-0.036272
  0
VERTEX
  8
0
 10
40.632856
 20
276.594158
 42
-0.037131
  0
VERTEX
  8
0
 10
45.907913
 20
266.375923
 42
-0.029412
  0
VERTEX
  8
0
 10
48.966264
 20
257.825892
 42
-0.033021
  0
VERTEX
  8
0
 10
50.861490
 20
249.298308
 42
-0.029797
  0
VERTEX
  8
0
 10
51.740497
 20
239.883737
 42
-0.017633
  0
VERTEX
  8
0
 10
51.720839
 20
228.597958
 42
-0.028333
  0
VERTEX
  8
0
 10
50.237250
 20
212.803162
 42
-0.041848
  0
VERTEX
  8
0
 10
47.011916
 20
199.269341
 42
-0.032119
  0
VERTEX
  8
0
 10
40.917814
 20
184.091791
 42
-0.009976
  0
VERTEX
  8
0
 10
29.867636
 20
162.119986
 42
0.008191
  0
VERTEX
  8
0
 10
22.050637
 20
146.714202
 42
0.024125
  0
VERTEX
  8
0
 10
17.370798
 20
135.795839
 42
0.034898
  0
VERTEX
  8
0
 10
14.835773
 20
127.204530
 42
0.054343
  0
VERTEX
  8
0
 10
14.000000
 20
119.537472
 42
0.055689
  0
VERTEX
  8
0
 10
14.921030
 20
111.293719
 42
0.045286
  0
VERTEX
  8
0
 10
17.659673
 20
102.832715
 42
0.042481
  0
VERTEX
  8
0
 10
22.098137
 20
94.480426
 42
0.036808
  0
VERTEX
  8
0
 10
28.079939
 20
86.561736
 42
0.000000
  0
VERTEX
  8
0
 10
31.097469
 20
83.124959
 42
0.000000
  0
VERTEX
  8
0
 10
34.298735
 20
84.989154
 42
-0.045588
  0
VERTEX
  8
0
 10
37.936569
 20
86.684974
 42
-0.057223
  0
VERTEX
  8
0
 10
41.555788
 20
87.535360
 42
-0.061415
  0
VERTEX
  8
0
 10
45.054768
 20
87.513601
 42
-0.066820
  0
VERTEX
  8
0
 10
48.339093
 20
86.631678
 42
-0.078458
  0
VERTEX
  8
0
 10
52.618133
 20
83.994174
 42
-0.047964
  0
VERTEX
  8
0
 10
56.738704
 20
79.710308
 42
-0.031582
  0
VERTEX
  8
0
 10
61.373017
 20
73.036687
 42
-0.009913
  0
VERTEX
  8
0
 10
67.462077
 20
62.500000
 42
0.024392
  0
VERTEX
  8
0
 10
76.360931
 20
48.081378
 42
0.059255
  0
VERTEX
  8
0
 10
84.592676
 20
38.697779
 42
0.078509
  0
VERTEX
  8
0
 10
93.198048
 20
33.113459
 42
0.079172
  0
VERTEX
  8
0
 10
103.081041
 20
30.474685
 42
-0.030795
  0
VERTEX
  8
0
 10
109.143333
 20
29.468517
 42
-0.024376
  0
VERTEX
  8
0
 10
115.539558
 20
27.665308
 42
-0.015139
  0
VERTEX
  8
0
 10
124.087447
 20
24.508173
 42
-0.003677
  0
VERTEX
  8
0
 10
138.000000
 20
18.765994
 42
0.006168
  0
VERTEX
  8
0
 10
162.231418
 20
8.905861
 42
0.022922
  0
VERTEX
  8
0
 10
177.829282
 20
3.593109
 42
0.034586
  0
VERTEX
  8
0
 10
190.163917
 20
0.921459
 42
0.035694
  0
VERTEX
  8
0
 10
202.619010
 20
0.013137
 42
0.040952
  0
VERTEX
  8
0
 10
218.029653
 20
1.255106
 42
0.029894
  0
VERTEX
  8
0
 10
234.792534
 20
5.039660
 42
0.026424
  0
VERTEX
  8
0
 10
253.043485
 20
11.386104
 42
0.018321
  0
VERTEX
  8
0
 10
272.956919
 20
20.377619
 42
0.005990
  0
VERTEX
  8
0
 10
290.686238
 20
29.444769
 42
0.023917
  0
VERTEX
  8
0
 10
301.196152
 20
35.638736
 42
0.036760
  0
VERTEX
  8
0
 10
307.364438
 20
40.365582
 42
0.214044
  0
VERTEX
  8
0
 10
309.000000
 20
44.011164
 42
0.258685
  0
VERTEX
  8
0
 10
304.778495
 20
51.624705
 42
0.032047
  0
VERTEX
  8
0
 10
287.472508
 20
60.948690
 42
0.028631
  0
VERTEX
  8
0
 10
262.359199
 20
70.772069
 42
0.014146
  0
VERTEX
  8
0
 10
229.500000
 20
80.482143
 42
-0.000427
  0
VERTEX
  8
0
 10
214.699410
 20
84.417706
 42
-0.002604
  0
VERTEX
  8
0
 10
207.060379
 20
86.498628
 42
-0.001444
  0
VERTEX
  8
0
 10
202.028319
 20
87.913257
 42
-0.127804
  0
VERTEX
  8
0
 10
201.361892
 20
88.304775
 42
-0.293862
  0
VERTEX
  8
0
 10
201.204372
 20
89.030401
 42
-0.006251
  0
VERTEX
  8
0
 10
202.589793
 20
92.598429
 42
-0.011180
  0
VERTEX
  8
0
 10
204.535782
 20
97.134843
 42
-0.005042
  0
VERTEX
  8
0
 10
207.280316
 20
103.000000
 42
-0.026566
  0
VERTEX
  8
0
 10
208.974229
 20
106.094255
 42
-0.018532
  0
VERTEX
  8
0
 10
211.192365
 20
109.399564
 42
-0.017980
  0
VERTEX
  8
0
 10
213.744964
 20
112.661065
 42
-0.019723
  0
VERTEX
  8
0
 10
216.451095
 20
115.627957
 42
-0.039137
  0
VERTEX
  8
0
 10
222.152364
 20
120.564709
 42
-0.062105
  0
VERTEX
  8
0
 10
227.776971
 20
123.721001
 42
-0.060890
  0
VERTEX
  8
0
 10
234.085849
 20
125.437790
 42
-0.036031
  0
VERTEX
  8
0
 10
241.877550
 20
126.000000
 42
-0.034031
  0
VERTEX
  8
0
 10
249.368465
 20
125.489556
 42
-0.028355
  0
VERTEX
  8
0
 10
257.201963
 20
123.960521
 42
-0.020236
  0
VERTEX
  8
0
 10
266.940969
 20
121.055021
 42
-0.006899
  0
VERTEX
  8
0
 10
280.832288
 20
116.075502
 42
0.009680
  0
VERTEX
  8
0
 10
293.626367
 20
111.569451
 42
0.027441
  0
VERTEX
  8
0
 10
302.756545
 20
109.097528
 42
0.039799
  0
VERTEX
  8
0
 10
309.597344
 20
108.203335
 42
0.085588
  0
VERTEX
  8
0
 10
314.858855
 20
108.839566
 42
0.084067
  0
VERTEX
  8
0
 10
320.816105
 20
111.782453
 42
0.093031
  0
VERTEX
  8
0
 10
325.231494
 20
116.440223
 42
0.077572
  0
VERTEX
  8
0
 10
328.195428
 20
123.107229
 42
0.040642
  0
VERTEX
  8
0
 10
329.845089
 20
132.058253
 42
0.025099
  0
VERTEX
  8
0
 10
330.279254
 20
140.592733
 42
0.036339
  0
VERTEX
  8
0
 10
329.736360
 20
148.119360
 42
0.039536
  0
VERTEX
  8
0
 10
328.175955
 20
154.978583
 42
0.039647
  0
VERTEX
  8
0
 10
325.556334
 20
161.500000
 42
0.016867
  0
VERTEX
  8
0
 10
322.791845
 20
166.621681
 42
0.033793
  0
VERTEX
  8
0
 10
320.210922
 20
170.424814
 42
0.022264
  0
VERTEX
  8
0
 10
316.522622
 20
174.730490
 42
0.003857
  0
VERTEX
  8
0
 10
309.129868
 20
182.500000
 42
-0.007553
  0
VERTEX
  8
0
 10
302.453835
 20
189.620951
 42
-0.018141
  0
VERTEX
  8
0
 10
297.785600
 20
195.143322
 42
-0.023412
  0
VERTEX
  8
0
 10
294.321460
 20
200.009192
 42
-0.026642
  0
VERTEX
  8
0
 10
291.486009
 20
204.977524
 42
-0.016559
  0
VERTEX
  8
0
 10
289.288244
 20
209.741772
 42
-0.011810
  0
VERTEX
  8
0
 10
287.133541
 20
215.208069
 42
-0.009166
  0
VERTEX
  8
0
 10
285.375170
 20
220.283162
 42
-0.078962
  0
VERTEX
  8
0
 10
285.000000
 20
222.643979
 42
-0.228329
  0
VERTEX
  8
0
 10
285.333034
 20
223.335241
 42
-0.016795
  0
VERTEX
  8
0
 10
287.069111
 20
224.625899
 42
-0.020721
  0
VERTEX
  8
0
 10
289.345005
 20
226.066319
 42
-0.014078
  0
VERTEX
  8
0
 10
292.043783
 20
227.522049
 42
0.023402
  0
VERTEX
  8
0
 10
303.966213
 20
234.242907
 42
0.029794
  0
VERTEX
  8
0
 10
314.242335
 20
241.574123
 42
0.033389
  0
VERTEX
  8
0
 10
322.326375
 20
249.045015
 42
0.063940
  0
VERTEX
  8
0
 10
327.525380
 20
256.170527
 42
0.057267
  0
VERTEX
  8
0
 10
329.794292
 20
261.718272
 42
0.065055
  0
VERTEX
  8
0
 10
330.617514
 20
267.400088
 42
0.067403
  0
VERTEX
  8
0
 10
329.947110
 20
272.929963
 42
0.069019
  0
VERTEX
  8
0
 10
327.830579
 20
278.034405
 42
0.042849
  0
VERTEX
  8
0
 10
324.991687
 20
282.040245
 42
0.022162
  0
VERTEX
  8
0
 10
320.820832
 20
286.548914
 42
0.021617
  0
VERTEX
  8
0
 10
316.016936
 20
290.906786
 42
0.027237
  0
VERTEX
  8
0
 10
311.198313
 20
294.487461
 42
-0.003545
  0
VERTEX
  8
0
 10
309.588861
 20
295.569032
 42
-0.005690
  0
VERTEX
  8
0
 10
308.233254
 20
296.516821
 42
-0.001550
  0
VERTEX
  8
0
 10
307.071386
 20
297.354458
 42
-0.240231
  0
VERTEX
  8
0
 10
307.000000
 20
297.494461
 42
-0.107199
  0
VERTEX
  8
0
 10
307.037735
 20
297.668441
 42
-0.000232
  0
VERTEX
  8
0
 10
308.167783
 20
300.147956
 42
-0.001564
  0
VERTEX
  8
0
 10
309.451364
 20
302.937746
 42
-0.000969
  0
VERTEX
  8
0
 10
310.975430
 20
306.206496
 42
0.020973
  0
VERTEX
  8
0
 10
314.158328
 20
313.813376
 42
0.029030
  0
VERTEX
  8
0
 10
316.317354
 20
320.885408
 42
0.030690
  0
VERTEX
  8
0
 10
317.559822
 20
327.835574
 42
0.028404
  0
VERTEX
  8
0
 10
317.985219
 20
335.068499
 42
0.054023
  0
VERTEX
  8
0
 10
316.868327
 20
345.566980
 42
0.057344
  0
VERTEX
  8
0
 10
313.530025
 20
355.361357
 42
0.053607
  0
VERTEX
  8
0
 10
307.818474
 20
364.673710
 42
0.038471
  0
VERTEX
  8
0
 10
299.633513
 20
373.743183
 42
0.035047
  0
VERTEX
  8
0
 10
288.234751
 20
383.144209
 42
0.029016
  0
VERTEX
  8
0
 10
274.911976
 20
391.526003
 42
0.022261
  0
VERTEX
  8
0
 10
257.651731
 20
400.056867
 42
0.009282
  0
VERTEX
  8
0
 10
233.683743
 20
410.076366
 42
-0.003366
  0
VERTEX
  8
0
 10
225.771409
 20
413.274567
 42
-0.004135
  0
VERTEX
  8
0
 10
218.430131
 20
416.370863
 42
-0.003446
  0
VERTEX
  8
0
 10
212.304114
 20
419.064723
 42
-0.029728
  0
VERTEX
  8
0
 10
209.657458
 20
420.444689
 42
0.013049
  0
VERTEX
  8
0
 10
203.595474
 20
423.867125
 42
0.009217
  0
VERTEX
  8
0
 10
196.620501
 20
427.405198
 42
0.005117
  0
VERTEX
  8
0
 10
189.982943
 20
430.536231
 42
0.108050
  0
VERTEX
  8
0
 10
187.861914
 20
431.000000
 42
0.039505
  0
VERTEX
  8
0
 10
187.161555
 20
430.944578
 42
0.042964
  0
VERTEX
  8
0
 10
186.498709
 20
430.779688
 42
0.047294
  0
VERTEX
  8
0
 10
185.964003
 20
430.538200
 42
0.129123
  0
SEQEND
  0
ENDSEC
  0
EOF
