  0
SECTION
  2
HEADER
  9
$ACADVER
  1
AC1006
  9
$EXTMIN
 10
0.000000
 20
0.000000
 30
0.000000
  9
$EXTMAX
 10
348.000000
 20
403.000000
 30
0.000000
  0
ENDSEC
  0
SECTION
  2
ENTITIES
  0
POLYLINE
  8
0
 66
1
 70
1
  0
VERTEX
  8
0
 10
115.444589
 20
401.109470
 42
0.045084
  0
VERTEX
  8
0
 10
96.086594
 20
393.914749
 42
0.026624
  0
VERTEX
  8
0
 10
74.420874
 20
382.101540
 42
0.025255
  0
VERTEX
  8
0
 10
52.553217
 20
367.047072
 42
0.025877
  0
VERTEX
  8
0
 10
32.500000
 20
349.978710
 42
-0.015676
  0
VERTEX
  8
0
 10
28.830059
 20
346.723674
 42
-0.010175
  0
VERTEX
  8
0
 10
24.398097
 20
343.184533
 42
-0.010233
  0
VERTEX
  8
0
 10
19.925426
 20
339.902563
 42
-0.019081
  0
VERTEX
  8
0
 10
16.153095
 20
337.461038
 42
0.024341
  0
VERTEX
  8
0
 10
9.851420
 20
333.287822
 42
0.033372
  0
VERTEX
  8
0
 10
4.652680
 20
328.906124
 42
0.036297
  0
VERTEX
  8
0
 10
1.009892
 20
324.845353
 42
0.166162
  0
VERTEX
  8
0
 10
0.000000
 20
321.890377
 42
0.119290
  0
VERTEX
  8
0
 10
0.747128
 20
318.803389
 42
0.049252
  0
VERTEX
  8
0
 10
3.094870
 20
315.167386
 42
0.035806
  0
VERTEX
  8
0
 10
7.033248
 20
310.883039
 42
0.015339
  0
VERTEX
  8
0
 10
12.854997
 20
305.723265
 42
-0.021779
  0
VERTEX
  8
0
 10
27.449359
 20
292.449001
 42
-0.041153
  0
VERTEX
  8
0
 10
37.774824
 20
280.360952
 42
-0.047723
  0
VERTEX
  8
0
 10
44.963770
 20
268.071295
 42
-0.043748
  0
VERTEX
  8
0
 10
49.941948
 20
254.282722
 42
-0.044132
  0
VERTEX
  8
0
 10
51.815642
 20
243.421201
 42
-0.027521
  0
VERTEX
  8
0
 10
52.172263
 20
230.500125
 42
-0.026723
  0
VERTEX
  8
0
 10
51.081288
 20
217.038543
 42
-0.031468
  0
VERTEX
  8
0
 10
48.575841
 20
204.499517
 42
-0.016084
  0
VERTEX
  8
0
 10
45.788454
 20
195.236438
 42
-0.021730
  0
VERTEX
  8
0
 10
42.642665
 20
187.075378
 42
-0.015335
  0
VERTEX
  8
0
 10
38.030972
 20
177.330952
 42
-0.004017
  0
VERTEX
  8
0
 10
30.035229
 20
162.000000
 42
0.005185
  0
VERTEX
  8
0
 10
25.673288
 20
153.588604
 42
0.005531
  0
VERTEX
  8
0
 10
21.581745
 20
145.266957
 42
0.005273
  0
VERTEX
  8
0
 10
18.219036
 20
138.037202
 42
0.025541
  0
VERTEX
  8
0
 10
16.566611
 20
133.823683
 42
0.049737
  0
VERTEX
  8
0
 10
14.279976
 20
123.753194
 42
0.061295
  0
VERTEX
  8
0
 10
14.266047
 20
114.129175
 42
0.061481
  0
VERTEX
  8
0
 10
16.583624
 20
104.812100
 42
0.050476
  0
VERTEX
  8
0
 10
21.207734
 20
95.651597
 42
0.017559
  0
VERTEX
  8
0
 10
24.760254
 20
90.497148
 42
0.030147
  0
VERTEX
  8
0
 10
28.116022
 20
86.503652
 42
0.031906
  0
VERTEX
  8
0
 10
30.944998
 20
83.879317
 42
0.354896
  0
VERTEX
  8
0
 10
32.379721
 20
83.876391
 42
-0.060051
  0
VERTEX
  8
0
 10
33.089012
 20
84.321141
 42
-0.009524
  0
VERTEX
  8
0
 10
34.590554
 20
84.993591
 42
-0.010442
  0
VERTEX
  8
0
 10
36.400380
 20
85.718824
 42
-0.008966
  0
VERTEX
  8
0
 10
38.332803
 20
86.407424
 42
-0.101718
  0
VERTEX
  8
0
 10
45.189288
 20
87.245594
 42
-0.136777
  0
VERTEX
  8
0
 10
51.031599
 20
85.093337
 42
-0.082874
  0
VERTEX
  8
0
 10
56.911037
 20
79.157144
 42
-0.020596
  0
VERTEX
  8
0
 10
64.362979
 20
67.633765
 42
0.001993
  0
VERTEX
  8
0
 10
71.774398
 20
55.180501
 42
0.012760
  0
VERTEX
  8
0
 10
75.712677
 20
48.986472
 42
0.024068
  0
VERTEX
  8
0
 10
78.774323
 20
44.874236
 42
0.024124
  0
VERTEX
  8
0
 10
82.214734
 20
41.078624
 42
0.033684
  0
VERTEX
  8
0
 10
87.303170
 20
36.625919
 42
0.048930
  0
VERTEX
  8
0
 10
92.374511
 20
33.490480
 42
0.048988
  0
VERTEX
  8
0
 10
97.953782
 20
31.402755
 42
0.033870
  0
VERTEX
  8
0
 10
104.574981
 20
30.112524
 42
-0.035995
  0
VERTEX
  8
0
 10
111.146594
 20
28.802969
 42
-0.020264
  0
VERTEX
  8
0
 10
118.898507
 20
26.326833
 42
-0.009295
  0
VERTEX
  8
0
 10
131.066806
 20
21.631103
 42
-0.001188
  0
VERTEX
  8
0
 10
157.000000
 20
10.993658
 42
0.011718
  0
VERTEX
  8
0
 10
171.123932
 20
5.544790
 42
0.030997
  0
VERTEX
  8
0
 10
181.520744
 20
2.523741
 42
0.035429
  0
VERTEX
  8
0
 10
191.382318
 20
1.033461
 42
0.019874
  0
VERTEX
  8
0
 10
203.500000
 20
0.555611
 42
0.006207
  0
VERTEX
  8
0
 10
212.074421
 20
0.664874
 42
0.019976
  0
VERTEX
  8
0
 10
217.767428
 20
1.036021
 42
0.023594
  0
VERTEX
  8
0
 10
222.894384
 20
1.822562
 42
0.011661
  0
VERTEX
  8
0
 10
229.320753
 20
3.278031
 42
0.023914
  0
VERTEX
  8
0
 10
243.805823
 20
7.661651
 42
0.016379
  0
VERTEX
  8
0
 10
259.798141
 20
13.946383
 42
0.014825
  0
VERTEX
  8
0
 10
277.086022
 20
22.018700
 42
0.011352
  0
VERTEX
  8
0
 10
295.500000
 20
31.821552
 42
0.021098
  0
VERTEX
  8
0
 10
304.688948
 20
37.507200
 42
0.124040
  0
VERTEX
  8
0
 10
308.430839
 20
41.707892
 42
0.233074
  0
VERTEX
  8
0
 10
308.523524
 20
45.753377
 42
0.091576
  0
VERTEX
  8
0
 10
305.205354
 20
50.423856
 42
0.033128
  0
VERTEX
  8
0
 10
301.407496
 20
53.650189
 42
0.028041
  0
VERTEX
  8
0
 10
297.005484
 20
56.546301
 42
0.022430
  0
VERTEX
  8
0
 10
291.442835
 20
59.449305
 42
0.010465
  0
VERTEX
  8
0
 10
284.000000
 20
62.730407
 42
0.013159
  0
VERTEX
  8
0
 10
270.357631
 20
67.989841
 42
0.009581
  0
VERTEX
  8
0
 10
254.936159
 20
73.142921
 42
0.008465
  0
VERTEX
  8
0
 10
237.364143
 20
78.317699
 42
0.005732
  0
VERTEX
  8
0
 10
217.178655
 20
83.644280
 42
0.000000
  0
VERTEX
  8
0
 10
201.857310
 20
87.500000
 42
0.000000
  0
VERTEX
  8
0
 10
202.431874
 20
90.391094
 42
-0.056538
  0
VERTEX
  8
0
 10
203.967038
 20
95.197891
 42
-0.010172
  0
VERTEX
  8
0
 10
207.996442
 20
103.703135
 42
-0.011626
  0
VERTEX
  8
0
 10
212.538805
 20
112.301309
 42
-0.028302
  0
VERTEX
  8
0
 10
216.381593
 20
118.351518
 42
-0.037432
  0
VERTEX
  8
0
 10
224.945417
 20
128.575125
 42
-0.033300
  0
VERTEX
  8
0
 10
235.260902
 20
137.845935
 42
-0.032304
  0
VERTEX
  8
0
 10
247.049326
 20
145.927293
 42
-0.030453
  0
VERTEX
  8
0
 10
260.009738
 20
152.600292
 42
-0.012648
  0
VERTEX
  8
0
 10
265.328777
 20
154.782333
 42
-0.003557
  0
VERTEX
  8
0
 10
273.736098
 20
157.917039
 42
-0.003584
  0
VERTEX
  8
0
 10
283.294025
 20
161.326084
 42
-0.003771
  0
VERTEX
  8
0
 10
292.739207
 20
164.539103
 42
0.004196
  0
VERTEX
  8
0
 10
301.988770
 20
167.694352
 42
0.004516
  0
VERTEX
  8
0
 10
310.959598
 20
170.930081
 42
0.004277
  0
VERTEX
  8
0
 10
318.609199
 20
173.842264
 42
0.021423
  0
VERTEX
  8
0
 10
322.804105
 20
175.691240
 42
0.031758
  0
VERTEX
  8
0
 10
329.104363
 20
179.310941
 42
0.032618
  0
VERTEX
  8
0
 10
334.836426
 20
183.670202
 42
0.033457
  0
VERTEX
  8
0
 10
339.815163
 20
188.618111
 42
0.037897
  0
VERTEX
  8
0
 10
343.867201
 20
193.994402
 42
0.020540
  0
VERTEX
  8
0
 10
345.860199
 20
197.403524
 42
0.054526
  0
VERTEX
  8
0
 10
346.902799
 20
200.021393
 42
0.044917
  0
VERTEX
  8
0
 10
347.460445
 20
203.080849
 42
0.010529
  0
VERTEX
  8
0
 10
347.822264
 20
208.281506
 42
0.073287
  0
VERTEX
  8
0
 10
346.588103
 20
220.846479
 42
0.148011
  0
VERTEX
  8
0
 10
341.537716
 20
229.308061
 42
0.100234
  0
VERTEX
  8
0
 10
331.076396
 20
235.564667
 42
0.023214
  0
VERTEX
  8
0
 10
311.338129
 20
241.514607
 42
-0.010597
  0
VERTEX
  8
0
 10
298.311822
 20
245.085434
 42
-0.027620
  0
VERTEX
  8
0
 10
289.168131
 20
248.360791
 42
-0.038379
  0
VERTEX
  8
0
 10
282.529504
 20
251.782538
 42
-0.061543
  0
VERTEX
  8
0
 10
277.562962
 20
255.762490
 42
-0.044987
  0
VERTEX
  8
0
 10
274.799321
 20
259.163405
 42
-0.022753
  0
VERTEX
  8
0
 10
271.925447
 20
263.882789
 42
-0.020378
  0
VERTEX
  8
0
 10
269.599615
 20
268.568621
 42
-0.105382
  0
VERTEX
  8
0
 10
269.000000
 20
271.381998
 42
-0.212362
  0
VERTEX
  8
0
 10
269.339063
 20
272.144309
 42
-0.030962
  0
VERTEX
  8
0
 10
270.698143
 20
273.225209
 42
-0.029238
  0
VERTEX
  8
0
 10
272.623703
 20
274.409801
 42
-0.017808
  0
VERTEX
  8
0
 10
275.020778
 20
275.589812
 42
0.006951
  0
VERTEX
  8
0
 10
277.303507
 20
276.652609
 42
0.012061
  0
VERTEX
  8
0
 10
279.164355
 20
277.606672
 42
0.006155
  0
VERTEX
  8
0
 10
280.641710
 20
278.433413
 42
0.493487
  0
VERTEX
  8
0
 10
280.671862
 20
278.661471
 42
0.258355
  0
VERTEX
  8
0
 10
280.324048
 20
278.761390
 42
0.000665
  0
VERTEX
  8
0
 10
275.226932
 20
277.582774
 42
0.003774
  0
VERTEX
  8
0
 10
269.447514
 20
276.192219
 42
0.002314
  0
VERTEX
  8
0
 10
262.655077
 20
274.470166
 42
-0.021362
  0
VERTEX
  8
0
 10
235.219914
 20
268.616694
 42
-0.032060
  0
VERTEX
  8
0
 10
210.876636
 20
266.090844
 42
-0.037615
  0
VERTEX
  8
0
 10
190.308406
 20
266.829628
 42
-0.073598
  0
VERTEX
  8
0
 10
174.490035
 20
271.004272
 42
0.000000
  0
VERTEX
  8
0
 10
170.024394
 20
272.918469
 42
0.000000
  0
VERTEX
  8
0
 10
176.105128
 20
282.709234
 42
-0.016351
  0
VERTEX
  8
0
 10
189.162612
 20
302.275811
 42
-0.025652
  0
VERTEX
  8
0
 10
201.756466
 20
318.092049
 42
-0.029295
  0
VERTEX
  8
0
 10
214.439574
 20
330.853409
 42
-0.035771
  0
VERTEX
  8
0
 10
227.750000
 20
341.149382
 42
0.009664
  0
VERTEX
  8
0
 10
231.670955
 20
343.867726
 42
0.020598
  0
VERTEX
  8
0
 10
234.569018
 20
346.148307
 42
0.020902
  0
VERTEX
  8
0
 10
236.564673
 20
348.006369
 42
0.197325
  0
VERTEX
  8
0
 10
237.000000
 20
349.066491
 42
0.184831
  0
VERTEX
  8
0
 10
236.384431
 20
350.674827
 42
0.031493
  0
VERTEX
  8
0
 10
234.003224
 20
353.015236
 42
0.025536
  0
VERTEX
  8
0
 10
230.301126
 20
355.904682
 42
0.010435
  0
VERTEX
  8
0
 10
225.000000
 20
359.460215
 42
-0.035353
  0
VERTEX
  8
0
 10
219.934312
 20
363.236611
 42
-0.024026
  0
VERTEX
  8
0
 10
214.716278
 20
368.189403
 42
-0.022218
  0
VERTEX
  8
0
 10
209.548967
 20
374.092885
 42
-0.018980
  0
VERTEX
  8
0
 10
204.632968
 20
380.742452
 42
0.035903
  0
VERTEX
  8
0
 10
200.878663
 20
385.476982
 42
0.028161
  0
VERTEX
  8
0
 10
196.183254
 20
390.050776
 42
0.028729
  0
VERTEX
  8
0
 10
191.163347
 20
393.934929
 42
0.046207
  0
VERTEX
  8
0
 10
186.441704
 20
396.568200
 42
0.043575
  0
VERTEX
  8
0
 10
179.037708
 20
399.098403
 42
0.026075
  0
VERTEX
  8
0
 10
169.898682
 20
400.856571
 42
0.020082
  0
VERTEX
  8
0
 10
158.270357
 20
401.997007
 42
0.009136
  0
VERTEX
  8
0
 10
143.000000
 20
402.597939
 42
0.003047
  0
VERTEX
  8
0
 10
131.285707
 20
402.773299
 42
0.015711
  0
VERTEX
  8
0
 10
124.801672
 20
402.627094
 42
0.026830
  0
VERTEX
  8
0
 10
120.103754
 20
402.119584
 42
0.026126
  0
SEQEND
  0
ENDSEC
  0
EOF
