  0
SECTION
  2
HEADER
  9
$ACADVER
  1
AC1006
  9
$EXTMIN
 10
0.000000
 20
0.000000
 30
0.000000
  9
$EXTMAX
 10
231.000000
 20
134.000000
 30
0.000000
  0
ENDSEC
  0
SECTION
  2
ENTITIES
  0
POLYLINE
  8
0
 66
1
 70
1
  0
VERTEX
  8
0
 10
96.500000
 20
133.376541
 42
0.019358
  0
VERTEX
  8
0
 10
75.471684
 20
130.312731
 42
0.024399
  0
VERTEX
  8
0
 10
56.332136
 20
125.787276
 42
0.026787
  0
VERTEX
  8
0
 10
39.476232
 20
119.928253
 42
0.038403
  0
VERTEX
  8
0
 10
25.343537
 20
112.840491
 42
0.031399
  0
VERTEX
  8
0
 10
18.936768
 20
108.415837
 42
0.027208
  0
VERTEX
  8
0
 10
12.804216
 20
103.019971
 42
0.028143
  0
VERTEX
  8
0
 10
7.576496
 20
97.277846
 42
0.046395
  0
VERTEX
  8
0
 10
3.930033
 20
91.826376
 42
0.016373
  0
VERTEX
  8
0
 10
2.011392
 20
87.993198
 42
0.049123
  0
VERTEX
  8
0
 10
1.054888
 20
85.229252
 42
0.045873
  0
VERTEX
  8
0
 10
0.622154
 20
82.230507
 42
0.012909
  0
VERTEX
  8
0
 10
0.500000
 20
77.500000
 42
0.012888
  0
VERTEX
  8
0
 10
0.621828
 20
72.774522
 42
0.045726
  0
VERTEX
  8
0
 10
1.053241
 20
69.776967
 42
0.049130
  0
VERTEX
  8
0
 10
2.005778
 20
67.018652
 42
0.016543
  0
VERTEX
  8
0
 10
3.911714
 20
63.207995
 42
0.043429
  0
VERTEX
  8
0
 10
7.146570
 20
58.309783
 42
0.022916
  0
VERTEX
  8
0
 10
11.934636
 20
52.809598
 42
0.022918
  0
VERTEX
  8
0
 10
17.175666
 20
47.799729
 42
0.045897
  0
VERTEX
  8
0
 10
21.816818
 20
44.449137
 42
0.000000
  0
VERTEX
  8
0
 10
24.656103
 20
42.771930
 42
0.000000
  0
VERTEX
  8
0
 10
22.785252
 20
37.135965
 42
0.010654
  0
VERTEX
  8
0
 10
22.029352
 20
34.685377
 42
0.008192
  0
VERTEX
  8
0
 10
21.305449
 20
31.980565
 42
0.008294
  0
VERTEX
  8
0
 10
20.711762
 20
29.428168
 42
0.019465
  0
VERTEX
  8
0
 10
20.374777
 20
27.500000
 42
0.021174
  0
VERTEX
  8
0
 10
20.170399
 20
25.278813
 42
0.091275
  0
VERTEX
  8
0
 10
20.345081
 20
23.969499
 42
0.123894
  0
VERTEX
  8
0
 10
20.942608
 20
23.018981
 42
0.054578
  0
VERTEX
  8
0
 10
22.129430
 20
22.109222
 42
0.010490
  0
VERTEX
  8
0
 10
25.609283
 20
20.098343
 42
0.008190
  0
VERTEX
  8
0
 10
29.468139
 20
18.056772
 42
0.004066
  0
VERTEX
  8
0
 10
33.120681
 20
16.237498
 42
0.113985
  0
VERTEX
  8
0
 10
34.148939
 20
16.000000
 42
0.338211
  0
VERTEX
  8
0
 10
34.482425
 20
16.254713
 42
0.024302
  0
VERTEX
  8
0
 10
34.750001
 20
17.464534
 42
0.026224
  0
VERTEX
  8
0
 10
34.938628
 20
19.074411
 42
0.016052
  0
VERTEX
  8
0
 10
35.000000
 20
20.985649
 42
-0.032545
  0
VERTEX
  8
0
 10
35.291702
 20
25.462429
 42
-0.026746
  0
VERTEX
  8
0
 10
36.166441
 20
30.172784
 42
-0.019601
  0
VERTEX
  8
0
 10
37.314694
 20
34.222443
 42
-0.324552
  0
VERTEX
  8
0
 10
38.386407
 20
35.000000
 42
-0.058259
  0
VERTEX
  8
0
 10
38.945779
 20
34.934602
 42
-0.009406
  0
VERTEX
  8
0
 10
40.009657
 20
34.661155
 42
-0.010276
  0
VERTEX
  8
0
 10
41.255440
 20
34.288114
 42
-0.008870
  0
VERTEX
  8
0
 10
42.547993
 20
33.846485
 42
0.000000
  0
VERTEX
  8
0
 10
45.737982
 20
32.692970
 42
0.000000
  0
VERTEX
  8
0
 10
44.380860
 20
27.596485
 42
0.018482
  0
VERTEX
  8
0
 10
43.859877
 20
25.302151
 42
0.011923
  0
VERTEX
  8
0
 10
43.418906
 20
22.612115
 42
0.011987
  0
VERTEX
  8
0
 10
43.113180
 20
19.957515
 42
0.022047
  0
VERTEX
  8
0
 10
43.011869
 20
17.785184
 42
0.044198
  0
VERTEX
  8
0
 10
43.303154
 20
14.399460
 42
0.169868
  0
VERTEX
  8
0
 10
44.320893
 20
12.582905
 42
0.105388
  0
VERTEX
  8
0
 10
46.553251
 20
11.323683
 42
0.012039
  0
VERTEX
  8
0
 10
52.141505
 20
9.719730
 42
0.000000
  0
VERTEX
  8
0
 10
57.767344
 20
8.250619
 42
0.000000
  0
VERTEX
  8
0
 10
58.192048
 20
17.133686
 42
-0.009599
  0
VERTEX
  8
0
 10
58.425007
 20
20.606914
 42
-0.013518
  0
VERTEX
  8
0
 10
58.775638
 20
23.690994
 42
-0.009693
  0
VERTEX
  8
0
 10
59.182559
 20
26.218543
 42
-0.152769
  0
VERTEX
  8
0
 10
59.582344
 20
26.982344
 42
-0.135510
  0
VERTEX
  8
0
 10
60.171429
 20
27.316525
 42
-0.052524
  0
VERTEX
  8
0
 10
61.108179
 20
27.450148
 42
-0.044494
  0
VERTEX
  8
0
 10
62.261155
 20
27.389918
 42
-0.032003
  0
VERTEX
  8
0
 10
63.523967
 20
27.127216
 42
-0.035952
  0
VERTEX
  8
0
 10
65.161453
 20
26.546208
 42
-0.146319
  0
VERTEX
  8
0
 10
65.958615
 20
25.870107
 42
-0.133642
  0
VERTEX
  8
0
 10
66.292836
 20
24.830673
 42
-0.028067
  0
VERTEX
  8
0
 10
66.272157
 20
22.903249
 42
-0.015465
  0
VERTEX
  8
0
 10
66.104900
 20
21.198121
 42
-0.005562
  0
VERTEX
  8
0
 10
65.764974
 20
18.782976
 42
-0.005511
  0
VERTEX
  8
0
 10
65.333553
 20
16.142806
 42
-0.006509
  0
VERTEX
  8
0
 10
64.865527
 20
13.655820
 42
0.028636
  0
VERTEX
  8
0
 10
64.219441
 20
9.129281
 42
0.221619
  0
VERTEX
  8
0
 10
64.936798
 20
7.174215
 42
0.179079
  0
VERTEX
  8
0
 10
67.008847
 20
6.227596
 42
0.017903
  0
VERTEX
  8
0
 10
72.543724
 20
6.015313
 42
0.000000
  0
VERTEX
  8
0
 10
78.587447
 20
6.000000
 42
0.000000
  0
VERTEX
  8
0
 10
79.775915
 20
11.750000
 42
0.003651
  0
VERTEX
  8
0
 10
80.250543
 20
14.134016
 42
0.003571
  0
VERTEX
  8
0
 10
80.693940
 20
16.542312
 42
0.003518
  0
VERTEX
  8
0
 10
81.053126
 20
18.661530
 42
0.013428
  0
VERTEX
  8
0
 10
81.232192
 20
19.989784
 42
-0.118774
  0
VERTEX
  8
0
 10
81.838007
 20
21.683032
 42
-0.162587
  0
VERTEX
  8
0
 10
83.099498
 20
22.679193
 42
-0.102264
  0
VERTEX
  8
0
 10
85.202968
 20
22.980421
 42
-0.030976
  0
VERTEX
  8
0
 10
88.419121
 20
22.581151
 42
0.000000
  0
VERTEX
  8
0
 10
91.638514
 20
21.977189
 42
0.000000
  0
VERTEX
  8
0
 10
90.894224
 20
17.238595
 42
-0.000701
  0
VERTEX
  8
0
 10
90.559099
 20
15.124333
 42
-0.000455
  0
VERTEX
  8
0
 10
90.166007
 20
12.680900
 42
-0.000457
  0
VERTEX
  8
0
 10
89.777850
 20
10.295899
 42
-0.000869
  0
VERTEX
  8
0
 10
89.460363
 20
8.377234
 42
0.000000
  0
VERTEX
  8
0
 10
88.770793
 20
4.254467
 42
0.000000
  0
VERTEX
  8
0
 10
93.635397
 20
3.190558
 42
0.004108
  0
VERTEX
  8
0
 10
100.149844
 20
1.821810
 42
0.058752
  0
VERTEX
  8
0
 10
102.509903
 20
1.629013
 42
0.235198
  0
VERTEX
  8
0
 10
103.572448
 20
2.206533
 42
0.153933
  0
VERTEX
  8
0
 10
104.000000
 20
3.562382
 42
-0.028324
  0
VERTEX
  8
0
 10
104.069260
 20
4.784058
 42
-0.007325
  0
VERTEX
  8
0
 10
104.320930
 20
6.740788
 42
-0.007429
  0
VERTEX
  8
0
 10
104.674301
 20
8.966930
 42
-0.007508
  0
VERTEX
  8
0
 10
105.092528
 20
11.173710
 42
0.000560
  0
VERTEX
  8
0
 10
105.542084
 20
13.377915
 42
0.000550
  0
VERTEX
  8
0
 10
105.989417
 20
15.596340
 42
0.000540
  0
VERTEX
  8
0
 10
106.377421
 20
17.542415
 42
0.002093
  0
VERTEX
  8
0
 10
106.611580
 20
18.750000
 42
-0.098473
  0
VERTEX
  8
0
 10
107.107479
 20
19.978512
 42
-0.169091
  0
VERTEX
  8
0
 10
107.973107
 20
20.644541
 42
-0.072085
  0
VERTEX
  8
0
 10
109.614285
 20
20.937894
 42
-0.008239
  0
VERTEX
  8
0
 10
113.383051
 20
21.000000
 42
-0.011314
  0
VERTEX
  8
0
 10
117.417604
 20
20.908698
 42
-0.089079
  0
VERTEX
  8
0
 10
119.236818
 20
20.496265
 42
-0.116551
  0
VERTEX
  8
0
 10
120.584279
 20
19.508260
 42
-0.025016
  0
VERTEX
  8
0
 10
122.363999
 20
17.196249
 42
-0.030493
  0
VERTEX
  8
0
 10
123.372969
 20
15.532131
 42
-0.026471
  0
VERTEX
  8
0
 10
124.225675
 20
13.678471
 42
-0.027365
  0
VERTEX
  8
0
 10
124.817213
 20
11.914163
 42
-0.067298
  0
VERTEX
  8
0
 10
125.000000
 20
10.562269
 42
0.029696
  0
VERTEX
  8
0
 10
125.080667
 20
9.205237
 42
0.013134
  0
VERTEX
  8
0
 10
125.340247
 20
7.427776
 42
0.012946
  0
VERTEX
  8
0
 10
125.714699
 20
5.553333
 42
0.017010
  0
VERTEX
  8
0
 10
126.158288
 20
3.866020
 42
0.000000
  0
VERTEX
  8
0
 10
127.316575
 20
-0.000000
 42
0.000000
  0
VERTEX
  8
0
 10
134.783288
 20
-0.000000
 42
0.000000
  0
VERTEX
  8
0
 10
142.250000
 20
0.000000
 42
0.000000
  0
VERTEX
  8
0
 10
141.565720
 20
3.250000
 42
-0.004484
  0
VERTEX
  8
0
 10
141.240725
 20
4.865286
 42
-0.001721
  0
VERTEX
  8
0
 10
140.816885
 20
7.115922
 42
-0.001704
  0
VERTEX
  8
0
 10
140.373646
 20
9.561563
 42
-0.002096
  0
VERTEX
  8
0
 10
139.977399
 20
11.846756
 42
0.004228
  0
VERTEX
  8
0
 10
139.585377
 20
14.051689
 42
0.004195
  0
VERTEX
  8
0
 10
139.155150
 20
16.255417
 42
0.004117
  0
VERTEX
  8
0
 10
138.746864
 20
18.176380
 42
0.016275
  0
VERTEX
  8
0
 10
138.447760
 20
19.346756
 42
-0.139212
  0
VERTEX
  8
0
 10
138.444698
 20
19.848260
 42
-0.535500
  0
VERTEX
  8
0
 10
138.686216
 20
19.927486
 42
-0.063001
  0
VERTEX
  8
0
 10
139.344305
 20
19.260450
 42
-0.010474
  0
VERTEX
  8
0
 10
140.411082
 20
17.803054
 42
-0.014427
  0
VERTEX
  8
0
 10
141.402313
 20
16.296911
 42
-0.017506
  0
VERTEX
  8
0
 10
142.239505
 20
14.828620
 42
-0.016246
  0
VERTEX
  8
0
 10
142.853229
 20
13.560407
 42
-0.104937
  0
VERTEX
  8
0
 10
143.000000
 20
12.868778
 42
0.073876
  0
VERTEX
  8
0
 10
143.105583
 20
12.158083
 42
0.011410
  0
VERTEX
  8
0
 10
143.552104
 20
10.800608
 42
0.012517
  0
VERTEX
  8
0
 10
144.159905
 20
9.213054
 42
0.010587
  0
VERTEX
  8
0
 10
144.879502
 20
7.565724
 42
-0.004083
  0
VERTEX
  8
0
 10
145.645009
 20
5.873640
 42
-0.003958
  0
VERTEX
  8
0
 10
146.390941
 20
4.151607
 42
-0.003910
  0
VERTEX
  8
0
 10
147.023287
 20
2.626437
 42
-0.014567
  0
VERTEX
  8
0
 10
147.385526
 20
1.652512
 42
0.123573
  0
VERTEX
  8
0
 10
147.998851
 20
0.701617
 42
0.148107
  0
VERTEX
  8
0
 10
148.950540
 20
0.232509
 42
0.061460
  0
VERTEX
  8
0
 10
150.643492
 20
0.162843
 42
0.007947
  0
VERTEX
  8
0
 10
154.256025
 20
0.516298
 42
0.005932
  0
VERTEX
  8
0
 10
156.708922
 20
0.825235
 42
0.008076
  0
VERTEX
  8
0
 10
158.912525
 20
1.165726
 42
0.005647
  0
VERTEX
  8
0
 10
160.742389
 20
1.500123
 42
0.086619
  0
VERTEX
  8
0
 10
161.339807
 20
1.728307
 42
0.289525
  0
VERTEX
  8
0
 10
161.916544
 20
2.865100
 42
0.029738
  0
VERTEX
  8
0
 10
161.434201
 20
5.980667
 42
0.033447
  0
VERTEX
  8
0
 10
160.404964
 20
9.560953
 42
0.036319
  0
VERTEX
  8
0
 10
158.929239
 20
12.870840
 42
-0.016093
  0
VERTEX
  8
0
 10
158.190745
 20
14.362057
 42
-0.017174
  0
VERTEX
  8
0
 10
157.566714
 20
15.866068
 42
-0.016995
  0
VERTEX
  8
0
 10
157.120441
 20
17.190692
 42
-0.072872
  0
VERTEX
  8
0
 10
157.000000
 20
18.012685
 42
0.071240
  0
VERTEX
  8
0
 10
156.893179
 20
18.758610
 42
0.026907
  0
VERTEX
  8
0
 10
156.542718
 20
19.754797
 42
0.025996
  0
VERTEX
  8
0
 10
156.039122
 20
20.813326
 42
0.028751
  0
VERTEX
  8
0
 10
155.443296
 20
21.777494
 42
-0.010201
  0
VERTEX
  8
0
 10
154.567931
 20
23.083148
 42
-0.138691
  0
VERTEX
  8
0
 10
154.403166
 20
23.626183
 42
-0.355987
  0
VERTEX
  8
0
 10
154.628885
 20
23.914017
 42
-0.055499
  0
VERTEX
  8
0
 10
155.401142
 20
24.000000
 42
-0.239076
  0
VERTEX
  8
0
 10
157.096693
 20
23.140120
 42
-0.029823
  0
VERTEX
  8
0
 10
159.402581
 20
19.562193
 42
-0.031635
  0
VERTEX
  8
0
 10
161.657327
 20
14.889798
 42
-0.027522
  0
VERTEX
  8
0
 10
163.425460
 20
9.750000
 42
0.010025
  0
VERTEX
  8
0
 10
164.513426
 20
6.186849
 42
0.098110
  0
VERTEX
  8
0
 10
165.280417
 20
4.822039
 42
0.174913
  0
VERTEX
  8
0
 10
166.340939
 20
4.219201
 42
0.048641
  0
VERTEX
  8
0
 10
168.277935
 20
4.076852
 42
0.041202
  0
VERTEX
  8
0
 10
171.695057
 20
4.441136
 42
0.027824
  0
VERTEX
  8
0
 10
175.500541
 20
5.389343
 42
0.020317
  0
VERTEX
  8
0
 10
178.836729
 20
6.571199
 42
0.319456
  0
VERTEX
  8
0
 10
179.454348
 20
7.532039
 42
0.061863
  0
VERTEX
  8
0
 10
179.090767
 20
9.641286
 42
0.004946
  0
VERTEX
  8
0
 10
177.394534
 20
15.045037
 42
0.006568
  0
VERTEX
  8
0
 10
175.591799
 20
20.356793
 42
0.032690
  0
VERTEX
  8
0
 10
174.349145
 20
23.250000
 42
-0.011496
  0
VERTEX
  8
0
 10
173.509880
 20
24.996099
 42
-0.200639
  0
VERTEX
  8
0
 10
173.491969
 20
25.612722
 42
-0.286163
  0
VERTEX
  8
0
 10
173.917425
 20
25.933736
 42
-0.022243
  0
VERTEX
  8
0
 10
175.406226
 20
26.000000
 42
-0.151703
  0
VERTEX
  8
0
 10
177.409301
 20
25.377938
 42
-0.057065
  0
VERTEX
  8
0
 10
179.649172
 20
23.428319
 42
-0.056759
  0
VERTEX
  8
0
 10
181.423966
 20
20.979597
 42
-0.129154
  0
VERTEX
  8
0
 10
182.000000
 20
18.786759
 42
0.074669
  0
VERTEX
  8
0
 10
182.101225
 20
18.112717
 42
0.028861
  0
VERTEX
  8
0
 10
182.431283
 20
17.224624
 42
0.027792
  0
VERTEX
  8
0
 10
182.906265
 20
16.287479
 42
0.030731
  0
VERTEX
  8
0
 10
183.468197
 20
15.441130
 42
-0.038918
  0
VERTEX
  8
0
 10
184.032646
 20
14.560052
 42
-0.029501
  0
VERTEX
  8
0
 10
184.514453
 20
13.517709
 42
-0.030185
  0
VERTEX
  8
0
 10
184.851290
 20
12.479213
 42
-0.059166
  0
VERTEX
  8
0
 10
184.968197
 20
11.619158
 42
0.083154
  0
VERTEX
  8
0
 10
185.141663
 20
10.680987
 42
0.211699
  0
VERTEX
  8
0
 10
185.611116
 20
10.192957
 42
0.118105
  0
VERTEX
  8
0
 10
186.514087
 20
10.054233
 42
0.019551
  0
VERTEX
  8
0
 10
188.274170
 20
10.269640
 42
0.057596
  0
VERTEX
  8
0
 10
191.735740
 20
11.249830
 42
0.040818
  0
VERTEX
  8
0
 10
195.333765
 20
13.089268
 42
0.039254
  0
VERTEX
  8
0
 10
198.219486
 20
15.205043
 42
0.218290
  0
VERTEX
  8
0
 10
199.000000
 20
16.907646
 42
0.065116
  0
VERTEX
  8
0
 10
198.896184
 20
17.701435
 42
0.030567
  0
VERTEX
  8
0
 10
198.568717
 20
18.685607
 42
0.029651
  0
VERTEX
  8
0
 10
198.093819
 20
19.690153
 42
0.036683
  0
VERTEX
  8
0
 10
197.531803
 20
20.558870
 42
-0.031526
  0
VERTEX
  8
0
 10
196.967183
 20
21.412209
 42
-0.027352
  0
VERTEX
  8
0
 10
196.484290
 20
22.370418
 42
-0.028311
  0
VERTEX
  8
0
 10
196.143423
 20
23.288494
 42
-0.068821
  0
VERTEX
  8
0
 10
196.027522
 20
24.000000
 42
0.094921
  0
VERTEX
  8
0
 10
195.846486
 20
24.835722
 42
0.015409
  0
VERTEX
  8
0
 10
195.145589
 20
26.350318
 42
0.016517
  0
VERTEX
  8
0
 10
194.194771
 20
28.102165
 42
0.013867
  0
VERTEX
  8
0
 10
193.075869
 20
29.894700
 42
0.000000
  0
VERTEX
  8
0
 10
190.160300
 20
34.289400
 42
0.000000
  0
VERTEX
  8
0
 10
197.288074
 20
37.705294
 42
0.030725
  0
VERTEX
  8
0
 10
207.217003
 20
43.237371
 42
0.036686
  0
VERTEX
  8
0
 10
215.788009
 20
49.660237
 42
0.039755
  0
VERTEX
  8
0
 10
222.701322
 20
56.720394
 42
0.053426
  0
VERTEX
  8
0
 10
227.668107
 20
64.159787
 42
0.023258
  0
VERTEX
  8
0
 10
229.140000
 20
67.323855
 42
0.045310
  0
VERTEX
  8
0
 10
229.957727
 20
69.982891
 42
0.038622
  0
VERTEX
  8
0
 10
230.355393
 20
73.010820
 42
0.012742
  0
VERTEX
  8
0
 10
230.480667
 20
77.500000
 42
0.012833
  0
VERTEX
  8
0
 10
230.370438
 20
82.240727
 42
0.046235
  0
VERTEX
  8
0
 10
229.945066
 20
85.230747
 42
0.049531
  0
VERTEX
  8
0
 10
228.992894
 20
87.986310
 42
0.016286
  0
VERTEX
  8
0
 10
227.069967
 20
91.826376
 42
0.046395
  0
VERTEX
  8
0
 10
223.423504
 20
97.277846
 42
0.028143
  0
VERTEX
  8
0
 10
218.195784
 20
103.019971
 42
0.027208
  0
VERTEX
  8
0
 10
212.063232
 20
108.415837
 42
0.031399
  0
VERTEX
  8
0
 10
205.656463
 20
112.840491
 42
0.033557
  0
VERTEX
  8
0
 10
194.229642
 20
118.710309
 42
0.021574
  0
VERTEX
  8
0
 10
180.302521
 20
124.021114
 42
0.020535
  0
VERTEX
  8
0
 10
165.029156
 20
128.414703
 42
0.020752
  0
VERTEX
  8
0
 10
149.500000
 20
131.522827
 42
0.024968
  0
VERTEX
  8
0
 10
139.684890
 20
132.568268
 42
0.005306
  0
VERTEX
  8
0
 10
122.513945
 20
133.351364
 42
0.004983
  0
VERTEX
  8
0
 10
105.367958
 20
133.780039
 42
0.030259
  0
SEQEND
  0
ENDSEC
  0
EOF
