  0
SECTION
  2
HEADER
  9
$ACADVER
  1
AC1006
  9
$EXTMIN
 10
0.000000
 20
0.000000
 30
0.000000
  9
$EXTMAX
 10
208.000000
 20
227.000000
 30
0.000000
  0
ENDSEC
  0
SECTION
  2
ENTITIES
  0
POLYLINE
  8
0
 66
1
 70
1
  0
VERTEX
  8
0
 10
85.713083
 20
225.979696
 42
0.060419
  0
VERTEX
  8
0
 10
63.834572
 20
219.739480
 42
0.061693
  0
VERTEX
  8
0
 10
44.249206
 20
208.479733
 42
0.062998
  0
VERTEX
  8
0
 10
28.347984
 20
193.035401
 42
0.068152
  0
VERTEX
  8
0
 10
17.286425
 20
174.500000
 42
0.049270
  0
VERTEX
  8
0
 10
14.011225
 20
164.041712
 42
0.036455
  0
VERTEX
  8
0
 10
12.413076
 20
152.019202
 42
0.036098
  0
VERTEX
  8
0
 10
12.571351
 20
139.738583
 42
0.044918
  0
VERTEX
  8
0
 10
14.556445
 20
128.500000
 42
0.029586
  0
VERTEX
  8
0
 10
16.427683
 20
122.923650
 42
0.015394
  0
VERTEX
  8
0
 10
19.378338
 20
116.202915
 42
0.015315
  0
VERTEX
  8
0
 10
22.675416
 20
109.793543
 42
0.035772
  0
VERTEX
  8
0
 10
25.617264
 20
105.276302
 42
0.000000
  0
VERTEX
  8
0
 10
28.061660
 20
102.052603
 42
0.000000
  0
VERTEX
  8
0
 10
24.720645
 20
100.656638
 42
0.100867
  0
VERTEX
  8
0
 10
20.647400
 20
97.888875
 42
0.031450
  0
VERTEX
  8
0
 10
15.805235
 20
92.255706
 42
0.032072
  0
VERTEX
  8
0
 10
11.484708
 20
85.704556
 42
0.055979
  0
VERTEX
  8
0
 10
8.912545
 20
79.738701
 42
0.035773
  0
VERTEX
  8
0
 10
7.497073
 20
73.517340
 42
0.048442
  0
VERTEX
  8
0
 10
7.178114
 20
67.764483
 42
0.042111
  0
VERTEX
  8
0
 10
7.972356
 20
61.473865
 42
0.019624
  0
VERTEX
  8
0
 10
10.000000
 20
53.500000
 42
-0.019803
  0
VERTEX
  8
0
 10
11.934339
 20
45.881620
 42
-0.035120
  0
VERTEX
  8
0
 10
12.830562
 20
39.467961
 42
-0.043594
  0
VERTEX
  8
0
 10
12.733966
 20
34.248799
 42
-0.089170
  0
VERTEX
  8
0
 10
11.592502
 20
30.331040
 42
0.002258
  0
VERTEX
  8
0
 10
10.957656
 20
29.039512
 42
0.001325
  0
VERTEX
  8
0
 10
10.209131
 20
27.488741
 42
0.001325
  0
VERTEX
  8
0
 10
9.468876
 20
25.934105
 42
0.002259
  0
VERTEX
  8
0
 10
8.859639
 20
24.630632
 42
-0.038901
  0
VERTEX
  8
0
 10
8.093204
 20
23.261943
 42
-0.014507
  0
VERTEX
  8
0
 10
6.817003
 20
21.463869
 42
-0.014272
  0
VERTEX
  8
0
 10
5.306593
 20
19.576085
 42
-0.016769
  0
VERTEX
  8
0
 10
3.767137
 20
17.879487
 42
0.008975
  0
VERTEX
  8
0
 10
2.323869
 20
16.337874
 42
0.012896
  0
VERTEX
  8
0
 10
1.106605
 20
14.918006
 42
0.008689
  0
VERTEX
  8
0
 10
0.152435
 20
13.702565
 42
0.163487
  0
VERTEX
  8
0
 10
0.000029
 20
13.248855
 42
0.214211
  0
VERTEX
  8
0
 10
0.397790
 20
12.363119
 42
0.006502
  0
VERTEX
  8
0
 10
3.516398
 20
9.662651
 42
0.013554
  0
VERTEX
  8
0
 10
6.738171
 20
7.091503
 42
0.032181
  0
VERTEX
  8
0
 10
9.298598
 20
5.406276
 42
0.075196
  0
VERTEX
  8
0
 10
10.406920
 20
4.979385
 42
0.132807
  0
VERTEX
  8
0
 10
11.379607
 20
5.024669
 42
0.089531
  0
VERTEX
  8
0
 10
12.452106
 20
5.595595
 42
0.021966
  0
VERTEX
  8
0
 10
13.971794
 20
6.906276
 42
0.040725
  0
VERTEX
  8
0
 10
16.644423
 20
9.870109
 42
0.012782
  0
VERTEX
  8
0
 10
20.151873
 20
14.713017
 42
0.007807
  0
VERTEX
  8
0
 10
23.469770
 20
19.715472
 42
0.143478
  0
VERTEX
  8
0
 10
24.000000
 20
21.525210
 42
-0.085043
  0
VERTEX
  8
0
 10
24.106143
 20
22.144746
 42
-0.010724
  0
VERTEX
  8
0
 10
24.587500
 20
23.420466
 42
-0.012344
  0
VERTEX
  8
0
 10
25.234178
 20
24.920892
 42
-0.009964
  0
VERTEX
  8
0
 10
26.000000
 20
26.500000
 42
0.080733
  0
VERTEX
  8
0
 10
27.644895
 20
31.628618
 42
0.046113
  0
VERTEX
  8
0
 10
28.016963
 20
38.139071
 42
0.037991
  0
VERTEX
  8
0
 10
27.147607
 20
45.937535
 42
0.022864
  0
VERTEX
  8
0
 10
25.000000
 20
55.000000
 42
-0.019894
  0
VERTEX
  8
0
 10
22.604575
 20
64.847279
 42
-0.069841
  0
VERTEX
  8
0
 10
22.218225
 20
71.345642
 42
-0.091746
  0
VERTEX
  8
0
 10
23.665280
 20
76.719165
 42
-0.051230
  0
VERTEX
  8
0
 10
27.208218
 20
82.518583
 42
-0.050841
  0
VERTEX
  8
0
 10
29.904317
 20
85.398925
 42
-0.028486
  0
VERTEX
  8
0
 10
33.697858
 20
88.342345
 42
-0.020712
  0
VERTEX
  8
0
 10
37.440955
 20
90.696904
 42
-0.338474
  0
VERTEX
  8
0
 10
38.820521
 20
90.512812
 42
-0.385216
  0
VERTEX
  8
0
 10
38.834432
 20
90.234850
 42
-0.012400
  0
VERTEX
  8
0
 10
38.039807
 20
89.310715
 42
-0.018031
  0
VERTEX
  8
0
 10
36.965932
 20
88.205562
 42
-0.010790
  0
VERTEX
  8
0
 10
35.615805
 20
86.967534
 42
0.123331
  0
VERTEX
  8
0
 10
31.393494
 20
80.859447
 42
0.062695
  0
VERTEX
  8
0
 10
29.212685
 20
71.718196
 42
0.053083
  0
VERTEX
  8
0
 10
29.180421
 20
60.587821
 42
0.039538
  0
VERTEX
  8
0
 10
31.407547
 20
48.500000
 42
-0.022186
  0
VERTEX
  8
0
 10
34.135620
 20
36.118613
 42
-0.077755
  0
VERTEX
  8
0
 10
34.276583
 20
27.975301
 42
-0.082268
  0
VERTEX
  8
0
 10
31.923525
 20
20.423510
 42
-0.026716
  0
VERTEX
  8
0
 10
26.098410
 20
10.241239
 42
0.007838
  0
VERTEX
  8
0
 10
24.823217
 20
8.195395
 42
0.012786
  0
VERTEX
  8
0
 10
23.814004
 20
6.416867
 42
0.006429
  0
VERTEX
  8
0
 10
23.039143
 20
4.920135
 42
0.344028
  0
VERTEX
  8
0
 10
23.098410
 20
4.624480
 42
0.146634
  0
VERTEX
  8
0
 10
23.444108
 20
4.470483
 42
0.002237
  0
VERTEX
  8
0
 10
25.642245
 20
4.197823
 42
0.005792
  0
VERTEX
  8
0
 10
28.216360
 20
3.920421
 42
0.003773
  0
VERTEX
  8
0
 10
31.194338
 20
3.657015
 42
0.022508
  0
VERTEX
  8
0
 10
36.723220
 20
3.459734
 42
0.144020
  0
VERTEX
  8
0
 10
39.376106
 20
4.267062
 42
0.118752
  0
VERTEX
  8
0
 10
41.419596
 20
6.447839
 42
0.013251
  0
VERTEX
  8
0
 10
44.647842
 20
12.500000
 42
0.044324
  0
VERTEX
  8
0
 10
48.100060
 20
21.272347
 42
0.059725
  0
VERTEX
  8
0
 10
49.517263
 20
29.678476
 42
0.053800
  0
VERTEX
  8
0
 10
48.969316
 20
38.833145
 42
0.028313
  0
VERTEX
  8
0
 10
46.436377
 20
49.956768
 42
-0.015219
  0
VERTEX
  8
0
 10
45.352746
 20
54.199448
 42
-0.017925
  0
VERTEX
  8
0
 10
44.595068
 20
58.275601
 42
-0.018493
  0
VERTEX
  8
0
 10
44.148971
 20
62.279645
 42
-0.018495
  0
VERTEX
  8
0
 10
44.000000
 20
66.305559
 42
-0.008187
  0
VERTEX
  8
0
 10
44.080278
 20
71.207971
 42
-0.061937
  0
VERTEX
  8
0
 10
44.440286
 20
73.490060
 42
-0.099066
  0
VERTEX
  8
0
 10
45.298893
 20
75.148716
 42
-0.036085
  0
VERTEX
  8
0
 10
47.105755
 20
77.098790
 42
-0.034287
  0
VERTEX
  8
0
 10
48.470849
 20
78.209055
 42
-0.032228
  0
VERTEX
  8
0
 10
50.002504
 20
79.147770
 42
-0.033849
  0
VERTEX
  8
0
 10
51.470149
 20
79.799183
 42
-0.087738
  0
VERTEX
  8
0
 10
52.605755
 20
80.000000
 42
-0.068159
  0
VERTEX
  8
0
 10
54.082515
 20
79.797752
 42
-0.193075
  0
VERTEX
  8
0
 10
54.892989
 20
79.176917
 42
-0.280139
  0
VERTEX
  8
0
 10
54.884286
 20
78.356530
 42
-0.115596
  0
VERTEX
  8
0
 10
54.065585
 20
77.540534
 42
0.179693
  0
VERTEX
  8
0
 10
52.858205
 20
75.990069
 42
0.015131
  0
VERTEX
  8
0
 10
51.453926
 20
71.027799
 42
0.021149
  0
VERTEX
  8
0
 10
50.354855
 20
65.694436
 42
0.040651
  0
VERTEX
  8
0
 10
50.007639
 20
61.346093
 42
0.030438
  0
VERTEX
  8
0
 10
50.152419
 20
59.030194
 42
0.013657
  0
VERTEX
  8
0
 10
50.610113
 20
56.014165
 42
0.013462
  0
VERTEX
  8
0
 10
51.268884
 20
52.843258
 42
0.017830
  0
VERTEX
  8
0
 10
52.047886
 20
50.000000
 42
-0.010033
  0
VERTEX
  8
0
 10
53.355578
 20
45.503381
 42
-0.012075
  0
VERTEX
  8
0
 10
54.396784
 20
41.226359
 42
-0.008718
  0
VERTEX
  8
0
 10
55.456900
 20
35.920716
 42
-0.002568
  0
VERTEX
  8
0
 10
56.898524
 20
27.750000
 42
-0.043132
  0
VERTEX
  8
0
 10
57.317723
 20
22.728870
 42
-0.036217
  0
VERTEX
  8
0
 10
56.915686
 20
17.401215
 42
-0.036175
  0
VERTEX
  8
0
 10
55.747993
 20
12.180417
 42
-0.042733
  0
VERTEX
  8
0
 10
53.881952
 20
7.478083
 42
0.011390
  0
VERTEX
  8
0
 10
53.060227
 20
5.734479
 42
0.017709
  0
VERTEX
  8
0
 10
52.440365
 20
4.192479
 42
0.012241
  0
VERTEX
  8
0
 10
52.015704
 20
2.920922
 42
0.277630
  0
VERTEX
  8
0
 10
52.105079
 20
2.561587
 42
0.159107
  0
VERTEX
  8
0
 10
53.396014
 20
1.906114
 42
0.004652
  0
VERTEX
  8
0
 10
59.526511
 20
1.011179
 42
0.004456
  0
VERTEX
  8
0
 10
65.692327
 20
0.225507
 42
0.169445
  0
VERTEX
  8
0
 10
67.037839
 20
0.523386
 42
0.182408
  0
VERTEX
  8
0
 10
68.451929
 20
2.359130
 42
0.011649
  0
VERTEX
  8
0
 10
70.306338
 20
9.002061
 42
0.018049
  0
VERTEX
  8
0
 10
71.807313
 20
15.947593
 42
0.040558
  0
VERTEX
  8
0
 10
72.321948
 20
21.310578
 42
0.028537
  0
VERTEX
  8
0
 10
72.075430
 20
27.112447
 42
0.018177
  0
VERTEX
  8
0
 10
71.159940
 20
33.808747
 42
0.015577
  0
VERTEX
  8
0
 10
69.570916
 20
41.514016
 42
0.009813
  0
VERTEX
  8
0
 10
67.260515
 20
50.408138
 42
-0.026748
  0
VERTEX
  8
0
 10
65.610127
 20
57.778400
 42
-0.052700
  0
VERTEX
  8
0
 10
65.241602
 20
63.762615
 42
-0.071726
  0
VERTEX
  8
0
 10
66.093640
 20
68.265630
 42
-0.149687
  0
VERTEX
  8
0
 10
68.168536
 20
71.127127
 42
-0.054147
  0
VERTEX
  8
0
 10
70.406594
 20
72.462793
 42
-0.276057
  0
VERTEX
  8
0
 10
71.788790
 20
72.311779
 42
-0.299522
  0
VERTEX
  8
0
 10
72.233212
 20
71.060341
 42
-0.059181
  0
VERTEX
  8
0
 10
71.354106
 20
68.717872
 42
0.102220
  0
VERTEX
  8
0
 10
70.159380
 20
64.459321
 42
0.044030
  0
VERTEX
  8
0
 10
70.267335
 20
58.534868
 42
0.038765
  0
VERTEX
  8
0
 10
71.541738
 20
51.676178
 42
0.030441
  0
VERTEX
  8
0
 10
73.936320
 20
44.500000
 42
-0.016332
  0
VERTEX
  8
0
 10
75.835480
 20
39.301580
 42
-0.043581
  0
VERTEX
  8
0
 10
76.736499
 20
35.462123
 42
-0.028969
  0
VERTEX
  8
0
 10
77.141764
 20
30.732331
 42
-0.004137
  0
VERTEX
  8
0
 10
77.329418
 20
21.000000
 42
-0.005287
  0
VERTEX
  8
0
 10
77.332063
 20
14.863001
 42
-0.006882
  0
VERTEX
  8
0
 10
77.197734
 20
9.245313
 42
-0.005268
  0
VERTEX
  8
0
 10
76.971512
 20
4.556338
 42
-0.061030
  0
VERTEX
  8
0
 10
76.641592
 20
2.750000
 42
0.000000
  0
VERTEX
  8
0
 10
75.783184
 20
0.000000
 42
0.000000
  0
VERTEX
  8
0
 10
83.332575
 20
0.000000
 42
0.011214
  0
VERTEX
  8
0
 10
86.671703
 20
0.074896
 42
0.026037
  0
VERTEX
  8
0
 10
89.163963
 20
0.317191
 42
0.031473
  0
VERTEX
  8
0
 10
90.922737
 20
0.695560
 42
0.186792
  0
VERTEX
  8
0
 10
91.660985
 20
1.250000
 42
0.128521
  0
VERTEX
  8
0
 10
92.526850
 20
4.032602
 42
0.007172
  0
VERTEX
  8
0
 10
92.816737
 20
13.177180
 42
0.012000
  0
VERTEX
  8
0
 10
92.751751
 20
22.945413
 42
0.017708
  0
VERTEX
  8
0
 10
92.185775
 20
31.500000
 42
0.013323
  0
VERTEX
  8
0
 10
91.541482
 20
36.501243
 42
0.018348
  0
VERTEX
  8
0
 10
90.679443
 20
40.948621
 42
0.019531
  0
VERTEX
  8
0
 10
89.545638
 20
45.090346
 42
0.019044
  0
VERTEX
  8
0
 10
88.083757
 20
49.166586
 42
-0.016320
  0
VERTEX
  8
0
 10
86.070615
 20
54.685166
 42
-0.049135
  0
VERTEX
  8
0
 10
85.201110
 20
58.592519
 42
-0.065682
  0
VERTEX
  8
0
 10
85.235736
 20
61.920219
 42
-0.051368
  0
VERTEX
  8
0
 10
86.110128
 20
65.429002
 42
0.000000
  0
VERTEX
  8
0
 10
87.220255
 20
68.500000
 42
0.000000
  0
VERTEX
  8
0
 10
100.026027
 20
68.500000
 42
0.000000
  0
VERTEX
  8
0
 10
112.831799
 20
68.500000
 42
0.000000
  0
VERTEX
  8
0
 10
113.915900
 20
64.883980
 42
-0.027285
  0
VERTEX
  8
0
 10
114.727036
 20
61.521665
 42
-0.070022
  0
VERTEX
  8
0
 10
114.832721
 20
59.027480
 42
-0.047178
  0
VERTEX
  8
0
 10
114.259821
 20
56.076514
 42
-0.007372
  0
VERTEX
  8
0
 10
112.500000
 20
50.403252
 42
0.018829
  0
VERTEX
  8
0
 10
111.155023
 20
45.688244
 42
0.031650
  0
VERTEX
  8
0
 10
110.430656
 20
41.637257
 42
0.023001
  0
VERTEX
  8
0
 10
110.097462
 20
36.720932
 42
0.005659
  0
VERTEX
  8
0
 10
110.013584
 20
28.622355
 42
0.006284
  0
VERTEX
  8
0
 10
110.110838
 20
21.434347
 42
0.016134
  0
VERTEX
  8
0
 10
110.414077
 20
16.244444
 42
0.021720
  0
VERTEX
  8
0
 10
110.966772
 20
12.146481
 42
0.029075
  0
VERTEX
  8
0
 10
111.842248
 20
8.500000
 42
0.000000
  0
VERTEX
  8
0
 10
113.657327
 20
2.500000
 42
0.000000
  0
VERTEX
  8
0
 10
121.434946
 20
2.689615
 42
0.005154
  0
VERTEX
  8
0
 10
124.447562
 20
2.794143
 42
0.007877
  0
VERTEX
  8
0
 10
127.057219
 20
2.952861
 42
0.003498
  0
VERTEX
  8
0
 10
129.264325
 20
3.137574
 42
0.175496
  0
VERTEX
  8
0
 10
129.652837
 20
3.319504
 42
0.283606
  0
VERTEX
  8
0
 10
129.735575
 20
3.668620
 42
0.012072
  0
VERTEX
  8
0
 10
129.289167
 20
4.914167
 42
0.017617
  0
VERTEX
  8
0
 10
128.644938
 20
6.423106
 42
0.011277
  0
VERTEX
  8
0
 10
127.796555
 20
8.129888
 42
-0.043775
  0
VERTEX
  8
0
 10
126.519175
 20
11.182134
 42
-0.049189
  0
VERTEX
  8
0
 10
125.854167
 20
14.293521
 42
-0.024696
  0
VERTEX
  8
0
 10
125.564910
 20
18.887147
 42
-0.003376
  0
VERTEX
  8
0
 10
125.500000
 20
28.500000
 42
-0.003370
  0
VERTEX
  8
0
 10
125.565469
 20
38.214055
 42
-0.025430
  0
VERTEX
  8
0
 10
125.860514
 20
42.794303
 42
-0.050014
  0
VERTEX
  8
0
 10
126.549840
 20
45.949070
 42
-0.039390
  0
VERTEX
  8
0
 10
127.892497
 20
49.180403
 42
0.024033
  0
VERTEX
  8
0
 10
129.138454
 20
51.937144
 42
0.053478
  0
VERTEX
  8
0
 10
129.751133
 20
54.154557
 42
0.047850
  0
VERTEX
  8
0
 10
129.915457
 20
56.599955
 42
0.016007
  0
VERTEX
  8
0
 10
129.698426
 20
60.180403
 42
0.006929
  0
VERTEX
  8
0
 10
129.420915
 20
62.778496
 42
0.006999
  0
VERTEX
  8
0
 10
129.072330
 20
65.359113
 42
0.006851
  0
VERTEX
  8
0
 10
128.706666
 20
67.596983
 42
0.028050
  0
VERTEX
  8
0
 10
128.390729
 20
68.935727
 42
0.000000
  0
VERTEX
  8
0
 10
127.669600
 20
71.371454
 42
0.000000
  0
VERTEX
  8
0
 10
130.962731
 20
69.026538
 42
0.000000
  0
VERTEX
  8
0
 10
134.255862
 20
66.681622
 42
0.000000
  0
VERTEX
  8
0
 10
133.708665
 20
57.590811
 42
-0.013850
  0
VERTEX
  8
0
 10
133.333370
 20
53.328214
 42
-0.017542
  0
VERTEX
  8
0
 10
132.740158
 20
49.418922
 42
-0.019306
  0
VERTEX
  8
0
 10
131.947497
 20
45.944161
 42
-0.029159
  0
VERTEX
  8
0
 10
130.967946
 20
43.000000
 42
0.023348
  0
VERTEX
  8
0
 10
129.818759
 20
39.675395
 42
0.044341
  0
VERTEX
  8
0
 10
129.263608
 20
36.901053
 42
0.034844
  0
VERTEX
  8
0
 10
129.136553
 20
33.662293
 42
0.009569
  0
VERTEX
  8
0
 10
129.389727
 20
28.560937
 42
0.011307
  0
VERTEX
  8
0
 10
129.897346
 20
23.018789
 42
0.051307
  0
VERTEX
  8
0
 10
130.593044
 20
19.855396
 42
0.052381
  0
VERTEX
  8
0
 10
131.912205
 20
16.930273
 42
0.012102
  0
VERTEX
  8
0
 10
134.752515
 20
12.323853
 42
0.000000
  0
VERTEX
  8
0
 10
139.500000
 20
5.025832
 42
0.000000
  0
VERTEX
  8
0
 10
145.125000
 20
5.012916
 42
0.016153
  0
VERTEX
  8
0
 10
150.149568
 20
5.163738
 42
0.037900
  0
VERTEX
  8
0
 10
153.867231
 20
5.680341
 42
0.053640
  0
VERTEX
  8
0
 10
156.289031
 20
6.485629
 42
0.293683
  0
VERTEX
  8
0
 10
157.000000
 20
7.591667
 42
0.134479
  0
VERTEX
  8
0
 10
156.803094
 20
8.310533
 42
0.021774
  0
VERTEX
  8
0
 10
156.003355
 20
9.535863
 42
0.022685
  0
VERTEX
  8
0
 10
154.906220
 20
10.928813
 42
0.018222
  0
VERTEX
  8
0
 10
153.607168
 20
12.326166
 42
-0.052673
  0
VERTEX
  8
0
 10
147.993602
 20
19.265846
 42
-0.077822
  0
VERTEX
  8
0
 10
144.809257
 20
26.404724
 42
-0.086887
  0
VERTEX
  8
0
 10
144.156613
 20
33.564688
 42
-0.085144
  0
VERTEX
  8
0
 10
145.963967
 20
40.575073
 42
0.035512
  0
VERTEX
  8
0
 10
147.084902
 20
43.634484
 42
0.030059
  0
VERTEX
  8
0
 10
147.837137
 20
46.996727
 42
0.021405
  0
VERTEX
  8
0
 10
148.350079
 20
51.353217
 42
0.007233
  0
VERTEX
  8
0
 10
148.732855
 20
57.732126
 42
0.003974
  0
VERTEX
  8
0
 10
149.027520
 20
65.581731
 42
0.039405
  0
VERTEX
  8
0
 10
148.865443
 20
68.873496
 42
0.077578
  0
VERTEX
  8
0
 10
148.185392
 20
71.213628
 42
0.036752
  0
VERTEX
  8
0
 10
146.644715
 20
73.960686
 42
-0.005671
  0
VERTEX
  8
0
 10
144.735292
 20
76.918368
 42
-0.067308
  0
VERTEX
  8
0
 10
144.170778
 20
78.157405
 42
-0.313454
  0
VERTEX
  8
0
 10
144.361392
 20
78.743543
 42
-0.163656
  0
VERTEX
  8
0
 10
145.123928
 20
79.000000
 42
-0.205768
  0
VERTEX
  8
0
 10
146.713825
 20
78.316770
 42
-0.011227
  0
VERTEX
  8
0
 10
150.452409
 20
74.194269
 42
-0.017860
  0
VERTEX
  8
0
 10
153.961461
 20
69.840964
 42
-0.054290
  0
VERTEX
  8
0
 10
155.894166
 20
66.574192
 42
-0.081139
  0
VERTEX
  8
0
 10
156.785681
 20
63.274004
 42
-0.018138
  0
VERTEX
  8
0
 10
157.169614
 20
57.434078
 42
-0.011820
  0
VERTEX
  8
0
 10
157.221140
 20
48.456473
 42
-0.002765
  0
VERTEX
  8
0
 10
156.868632
 20
33.412979
 42
0.013604
  0
VERTEX
  8
0
 10
156.853745
 20
24.911815
 42
0.072101
  0
VERTEX
  8
0
 10
157.636462
 20
20.335779
 42
0.082018
  0
VERTEX
  8
0
 10
159.647953
 20
16.443879
 42
0.020446
  0
VERTEX
  8
0
 10
164.175630
 20
10.863014
 42
0.000000
  0
VERTEX
  8
0
 10
166.500000
 20
8.226028
 42
0.000000
  0
VERTEX
  8
0
 10
173.750000
 20
10.263383
 42
0.013757
  0
VERTEX
  8
0
 10
176.706849
 20
11.182783
 42
0.026525
  0
VERTEX
  8
0
 10
179.006972
 20
12.106855
 42
0.027625
  0
VERTEX
  8
0
 10
180.628187
 20
12.972190
 42
0.262083
  0
VERTEX
  8
0
 10
181.000000
 20
13.632809
 42
0.145663
  0
VERTEX
  8
0
 10
180.774614
 20
14.390051
 42
0.015179
  0
VERTEX
  8
0
 10
179.701871
 20
15.928388
 42
0.017824
  0
VERTEX
  8
0
 10
178.273322
 20
17.713354
 42
0.013365
  0
VERTEX
  8
0
 10
176.580836
 20
19.576976
 42
-0.058127
  0
VERTEX
  8
0
 10
173.332248
 20
23.868832
 42
-0.083436
  0
VERTEX
  8
0
 10
171.632030
 20
28.314174
 42
-0.064194
  0
VERTEX
  8
0
 10
171.236789
 20
33.902587
 42
-0.021900
  0
VERTEX
  8
0
 10
172.061459
 20
42.007742
 42
0.038376
  0
VERTEX
  8
0
 10
172.905173
 20
54.309794
 42
0.053544
  0
VERTEX
  8
0
 10
171.638015
 20
65.258324
 42
0.059941
  0
VERTEX
  8
0
 10
168.282486
 20
74.685770
 42
0.070874
  0
VERTEX
  8
0
 10
162.918797
 20
82.472268
 42
-0.022020
  0
VERTEX
  8
0
 10
160.318884
 20
85.554737
 42
-0.136200
  0
VERTEX
  8
0
 10
159.546378
 20
87.456117
 42
-0.404333
  0
VERTEX
  8
0
 10
160.225993
 20
88.344026
 42
-0.099407
  0
VERTEX
  8
0
 10
162.250996
 20
88.244457
 42
-0.106467
  0
VERTEX
  8
0
 10
167.772415
 20
85.512817
 42
-0.049265
  0
VERTEX
  8
0
 10
173.549570
 20
79.910769
 42
-0.047416
  0
VERTEX
  8
0
 10
178.467247
 20
72.838161
 42
-0.062195
  0
VERTEX
  8
0
 10
181.445352
 20
65.563817
 42
-0.022238
  0
VERTEX
  8
0
 10
182.143289
 20
62.441010
 42
-0.008044
  0
VERTEX
  8
0
 10
182.864531
 20
57.952545
 42
-0.007959
  0
VERTEX
  8
0
 10
183.497772
 20
53.005876
 42
-0.009384
  0
VERTEX
  8
0
 10
183.934405
 20
48.305873
 42
0.022305
  0
VERTEX
  8
0
 10
184.906965
 20
40.134919
 42
0.043611
  0
VERTEX
  8
0
 10
186.529452
 20
33.787047
 42
0.042355
  0
VERTEX
  8
0
 10
189.263336
 20
27.698878
 42
0.019854
  0
VERTEX
  8
0
 10
193.754042
 20
20.315235
 42
0.000000
  0
VERTEX
  8
0
 10
197.253659
 20
15.044432
 42
0.000000
  0
VERTEX
  8
0
 10
199.876829
 20
16.930840
 42
0.017967
  0
VERTEX
  8
0
 10
201.087663
 20
17.869377
 42
0.008557
  0
VERTEX
  8
0
 10
202.579640
 20
19.158083
 42
0.008470
  0
VERTEX
  8
0
 10
204.094659
 20
20.559540
 42
0.011907
  0
VERTEX
  8
0
 10
205.394285
 20
21.863944
 42
0.013302
  0
VERTEX
  8
0
 10
207.168357
 20
23.833821
 42
0.124801
  0
VERTEX
  8
0
 10
207.668785
 20
24.848390
 42
0.169326
  0
VERTEX
  8
0
 10
207.543542
 20
25.840593
 42
0.029760
  0
VERTEX
  8
0
 10
206.594274
 20
27.496463
 42
-0.017500
  0
VERTEX
  8
0
 10
202.932817
 20
33.535419
 42
-0.046307
  0
VERTEX
  8
0
 10
200.886266
 20
38.149166
 42
-0.045497
  0
VERTEX
  8
0
 10
199.704272
 20
43.107447
 42
-0.016414
  0
VERTEX
  8
0
 10
198.906045
 20
50.317375
 42
0.037174
  0
VERTEX
  8
0
 10
196.524494
 20
65.890369
 42
0.054189
  0
VERTEX
  8
0
 10
191.972069
 20
78.995399
 42
0.061903
  0
VERTEX
  8
0
 10
185.326399
 20
89.449468
 42
0.076141
  0
VERTEX
  8
0
 10
176.713006
 20
97.140745
 42
-0.008162
  0
VERTEX
  8
0
 10
173.753354
 20
99.136308
 42
-0.101435
  0
VERTEX
  8
0
 10
172.825412
 20
100.114474
 42
-0.234411
  0
VERTEX
  8
0
 10
172.735342
 20
101.046210
 42
-0.064938
  0
VERTEX
  8
0
 10
173.452264
 20
102.377984
 42
0.064320
  0
VERTEX
  8
0
 10
184.323155
 20
122.512677
 42
0.077599
  0
VERTEX
  8
0
 10
188.834685
 20
143.503115
 42
0.078461
  0
VERTEX
  8
0
 10
186.714414
 20
164.682601
 42
0.067649
  0
VERTEX
  8
0
 10
178.173580
 20
185.373799
 42
0.039307
  0
VERTEX
  8
0
 10
173.969410
 20
191.451768
 42
0.018401
  0
VERTEX
  8
0
 10
167.653205
 20
198.645860
 42
0.018426
  0
VERTEX
  8
0
 10
160.760626
 20
205.418758
 42
0.035787
  0
VERTEX
  8
0
 10
154.705730
 20
210.198541
 42
0.024543
  0
VERTEX
  8
0
 10
147.952220
 20
214.317151
 42
0.017418
  0
VERTEX
  8
0
 10
140.015259
 20
218.286355
 42
0.017480
  0
VERTEX
  8
0
 10
131.872706
 20
221.670875
 42
0.025825
  0
VERTEX
  8
0
 10
124.500000
 20
224.010917
 42
0.036016
  0
VERTEX
  8
0
 10
116.295716
 20
225.535206
 42
0.015247
  0
VERTEX
  8
0
 10
105.130262
 20
226.443909
 42
0.015228
  0
VERTEX
  8
0
 10
93.949708
 20
226.670484
 42
0.036757
  0
SEQEND
  0
ENDSEC
  0
EOF
