  0
SECTION
  2
HEADER
  9
$ACADVER
  1
AC1006
  9
$EXTMIN
 10
0.000000
 20
0.000000
 30
0.000000
  9
$EXTMAX
 10
173.000000
 20
197.000000
 30
0.000000
  0
ENDSEC
  0
SECTION
  2
ENTITIES
  0
POLYLINE
  8
0
 66
1
 70
1
  0
VERTEX
  8
0
 10
82.382679
 20
196.114597
 42
0.094212
  0
VERTEX
  8
0
 10
69.709537
 20
190.126600
 42
0.067015
  0
VERTEX
  8
0
 10
58.328207
 20
179.241816
 42
0.059901
  0
VERTEX
  8
0
 10
49.139788
 20
164.395637
 42
0.048774
  0
VERTEX
  8
0
 10
42.951117
 20
146.736556
 42
0.030988
  0
VERTEX
  8
0
 10
41.442731
 20
138.335350
 42
0.014351
  0
VERTEX
  8
0
 10
40.478626
 20
127.280934
 42
0.014205
  0
VERTEX
  8
0
 10
40.151945
 20
116.353461
 42
0.036834
  0
VERTEX
  8
0
 10
40.719607
 20
108.500000
 42
0.000000
  0
VERTEX
  8
0
 10
41.600604
 20
102.500000
 42
0.000000
  0
VERTEX
  8
0
 10
33.463594
 20
102.500000
 42
0.010890
  0
VERTEX
  8
0
 10
28.438058
 20
102.390532
 42
0.055642
  0
VERTEX
  8
0
 10
25.682288
 20
101.960701
 42
0.063443
  0
VERTEX
  8
0
 10
23.254626
 20
100.955371
 42
0.016701
  0
VERTEX
  8
0
 10
19.667738
 20
98.742737
 42
0.040460
  0
VERTEX
  8
0
 10
15.103855
 20
95.149177
 42
0.036522
  0
VERTEX
  8
0
 10
11.006489
 20
90.750104
 42
0.037974
  0
VERTEX
  8
0
 10
7.773277
 20
86.034057
 42
0.058526
  0
VERTEX
  8
0
 10
5.812606
 20
81.500000
 42
-0.011839
  0
VERTEX
  8
0
 10
5.265974
 20
79.821911
 42
-0.010239
  0
VERTEX
  8
0
 10
4.614995
 20
78.087500
 42
-0.010355
  0
VERTEX
  8
0
 10
3.960172
 20
76.539768
 42
-0.029345
  0
VERTEX
  8
0
 10
3.419345
 20
75.500000
 42
0.073371
  0
VERTEX
  8
0
 10
1.761177
 20
71.486904
 42
0.032915
  0
VERTEX
  8
0
 10
0.739715
 20
65.858779
 42
0.024457
  0
VERTEX
  8
0
 10
0.250555
 20
58.323799
 42
0.010311
  0
VERTEX
  8
0
 10
0.298229
 20
48.175542
 42
0.000000
  0
VERTEX
  8
0
 10
0.685326
 20
32.889998
 42
0.000000
  0
VERTEX
  8
0
 10
7.240303
 20
28.492604
 42
0.000000
  0
VERTEX
  8
0
 10
13.795280
 20
24.095209
 42
0.000000
  0
VERTEX
  8
0
 10
14.594556
 20
27.797605
 42
0.039277
  0
VERTEX
  8
0
 10
14.910883
 20
30.142264
 42
0.004084
  0
VERTEX
  8
0
 10
15.174638
 20
35.699921
 42
0.005053
  0
VERTEX
  8
0
 10
15.368140
 20
42.336370
 42
0.004024
  0
VERTEX
  8
0
 10
15.446916
 20
49.500000
 42
-0.003153
  0
VERTEX
  8
0
 10
15.537334
 20
59.269568
 42
-0.016855
  0
VERTEX
  8
0
 10
15.799829
 20
64.593144
 42
-0.030722
  0
VERTEX
  8
0
 10
16.282833
 20
67.914759
 42
-0.094798
  0
VERTEX
  8
0
 10
17.151839
 20
70.000000
 42
0.032964
  0
VERTEX
  8
0
 10
17.836048
 20
71.200610
 42
0.017711
  0
VERTEX
  8
0
 10
18.526245
 20
72.760128
 42
0.017566
  0
VERTEX
  8
0
 10
19.120108
 20
74.406870
 42
0.026257
  0
VERTEX
  8
0
 10
19.511064
 20
75.885541
 42
-0.064034
  0
VERTEX
  8
0
 10
20.097268
 20
77.575581
 42
-0.030478
  0
VERTEX
  8
0
 10
21.248584
 20
79.573846
 42
-0.027585
  0
VERTEX
  8
0
 10
22.823255
 20
81.694114
 42
-0.022865
  0
VERTEX
  8
0
 10
24.718763
 20
83.771395
 42
0.000000
  0
VERTEX
  8
0
 10
29.219076
 20
88.271708
 42
0.000000
  0
VERTEX
  8
0
 10
35.859538
 20
87.708174
 42
-0.010572
  0
VERTEX
  8
0
 10
40.595521
 20
87.205209
 42
-0.035978
  0
VERTEX
  8
0
 10
43.635593
 20
86.592523
 42
-0.060665
  0
VERTEX
  8
0
 10
45.443648
 20
85.845129
 42
-0.270749
  0
VERTEX
  8
0
 10
46.000000
 20
84.893011
 42
-0.193080
  0
VERTEX
  8
0
 10
45.863195
 20
84.551947
 42
-0.087543
  0
VERTEX
  8
0
 10
45.468644
 20
84.262322
 42
-0.067385
  0
VERTEX
  8
0
 10
44.883428
 20
84.065775
 42
-0.047398
  0
VERTEX
  8
0
 10
44.191130
 20
84.000000
 42
0.062488
  0
VERTEX
  8
0
 10
43.358927
 20
83.895586
 42
0.030896
  0
VERTEX
  8
0
 10
42.343408
 20
83.568717
 42
0.030083
  0
VERTEX
  8
0
 10
41.317028
 20
83.093864
 42
0.038541
  0
VERTEX
  8
0
 10
40.441130
 20
82.531803
 42
-0.037371
  0
VERTEX
  8
0
 10
39.566079
 20
81.967395
 42
-0.029159
  0
VERTEX
  8
0
 10
38.542156
 20
81.485547
 42
-0.029930
  0
VERTEX
  8
0
 10
37.530132
 20
81.148261
 42
-0.061118
  0
VERTEX
  8
0
 10
36.702381
 20
81.031803
 42
0.176720
  0
VERTEX
  8
0
 10
34.354169
 20
80.127714
 42
0.018476
  0
VERTEX
  8
0
 10
29.984396
 20
76.021643
 42
0.023861
  0
VERTEX
  8
0
 10
25.795665
 20
71.358359
 42
0.054149
  0
VERTEX
  8
0
 10
23.217877
 20
67.388705
 42
0.052810
  0
VERTEX
  8
0
 10
19.899139
 20
58.630718
 42
0.043425
  0
VERTEX
  8
0
 10
18.207803
 20
48.771843
 42
0.042595
  0
VERTEX
  8
0
 10
18.228565
 20
38.561712
 42
0.045822
  0
VERTEX
  8
0
 10
20.000000
 20
28.757441
 42
-0.006194
  0
VERTEX
  8
0
 10
20.768068
 20
25.846112
 42
-0.007263
  0
VERTEX
  8
0
 10
21.421830
 20
23.066860
 42
-0.006484
  0
VERTEX
  8
0
 10
21.908917
 20
20.706873
 42
-0.043739
  0
VERTEX
  8
0
 10
22.031762
 20
19.520099
 42
0.157298
  0
VERTEX
  8
0
 10
22.427661
 20
18.355774
 42
0.039141
  0
VERTEX
  8
0
 10
23.768321
 20
16.821147
 42
0.029906
  0
VERTEX
  8
0
 10
25.899885
 20
14.971440
 42
0.012792
  0
VERTEX
  8
0
 10
28.950855
 20
12.750000
 42
0.003681
  0
VERTEX
  8
0
 10
31.632484
 20
10.929539
 42
0.005637
  0
VERTEX
  8
0
 10
33.985674
 20
9.395313
 42
0.002196
  0
VERTEX
  8
0
 10
36.019061
 20
8.114534
 42
0.140337
  0
VERTEX
  8
0
 10
36.419093
 20
8.000000
 42
0.424887
  0
VERTEX
  8
0
 10
37.336753
 20
8.951594
 42
0.007803
  0
VERTEX
  8
0
 10
36.935427
 20
16.675715
 42
0.016772
  0
VERTEX
  8
0
 10
36.137325
 20
24.546208
 42
0.033302
  0
VERTEX
  8
0
 10
34.884996
 20
30.686942
 42
-0.015540
  0
VERTEX
  8
0
 10
33.876708
 20
34.867227
 42
-0.025395
  0
VERTEX
  8
0
 10
33.314662
 20
38.468418
 42
-0.025297
  0
VERTEX
  8
0
 10
33.119366
 20
42.117884
 42
-0.015272
  0
VERTEX
  8
0
 10
33.239182
 20
46.448099
 42
-0.026498
  0
VERTEX
  8
0
 10
34.042995
 20
53.647514
 42
-0.062010
  0
VERTEX
  8
0
 10
35.579280
 20
58.832875
 42
-0.077669
  0
VERTEX
  8
0
 10
38.071638
 20
62.747770
 42
-0.066052
  0
VERTEX
  8
0
 10
41.767875
 20
65.969637
 42
-0.046156
  0
VERTEX
  8
0
 10
44.961933
 20
67.684725
 42
-0.045206
  0
VERTEX
  8
0
 10
48.438499
 20
68.799063
 42
-0.048230
  0
VERTEX
  8
0
 10
51.487222
 20
69.177342
 42
-0.205955
  0
VERTEX
  8
0
 10
53.153085
 20
68.513581
 42
-0.374074
  0
VERTEX
  8
0
 10
53.178723
 20
68.145184
 42
-0.007884
  0
VERTEX
  8
0
 10
51.966316
 20
66.590098
 42
-0.014252
  0
VERTEX
  8
0
 10
50.392385
 20
64.745825
 42
-0.008615
  0
VERTEX
  8
0
 10
48.429964
 20
62.648610
 42
0.047740
  0
VERTEX
  8
0
 10
44.110598
 20
57.241526
 42
0.064702
  0
VERTEX
  8
0
 10
41.397732
 20
51.616849
 42
0.056107
  0
VERTEX
  8
0
 10
39.976538
 20
44.885663
 42
0.026467
  0
VERTEX
  8
0
 10
39.593672
 20
36.000000
 42
0.022845
  0
VERTEX
  8
0
 10
39.966517
 20
29.293986
 42
0.025395
  0
VERTEX
  8
0
 10
40.948162
 20
22.885672
 42
0.026368
  0
VERTEX
  8
0
 10
42.345188
 20
17.537451
 42
0.096421
  0
VERTEX
  8
0
 10
44.018869
 20
14.477264
 42
-0.092258
  0
VERTEX
  8
0
 10
44.462812
 20
13.681229
 42
-0.017605
  0
VERTEX
  8
0
 10
44.937958
 20
12.086240
 42
-0.018233
  0
VERTEX
  8
0
 10
45.364623
 20
10.158882
 42
-0.015879
  0
VERTEX
  8
0
 10
45.672820
 20
8.114709
 42
0.015014
  0
VERTEX
  8
0
 10
46.135729
 20
5.007950
 42
0.107090
  0
VERTEX
  8
0
 10
46.712223
 20
3.610668
 42
0.141640
  0
VERTEX
  8
0
 10
47.748829
 20
2.764289
 42
0.033103
  0
VERTEX
  8
0
 10
49.888245
 20
2.014410
 42
0.023213
  0
VERTEX
  8
0
 10
51.575542
 20
1.629070
 42
0.012545
  0
VERTEX
  8
0
 10
53.681865
 20
1.304222
 42
0.012471
  0
VERTEX
  8
0
 10
55.847999
 20
1.080337
 42
0.019185
  0
VERTEX
  8
0
 10
57.730870
 20
1.005577
 42
0.000000
  0
VERTEX
  8
0
 10
61.961739
 20
1.000000
 42
0.000000
  0
VERTEX
  8
0
 10
61.375805
 20
5.750000
 42
0.020736
  0
VERTEX
  8
0
 10
60.618327
 20
10.321598
 42
0.016222
  0
VERTEX
  8
0
 10
59.431815
 20
15.210179
 42
0.013821
  0
VERTEX
  8
0
 10
58.104499
 20
19.528740
 42
0.091982
  0
VERTEX
  8
0
 10
57.011399
 20
21.486265
 42
-0.106800
  0
VERTEX
  8
0
 10
56.554837
 20
22.363387
 42
-0.009884
  0
VERTEX
  8
0
 10
55.952339
 20
24.749117
 42
-0.012377
  0
VERTEX
  8
0
 10
55.354479
 20
27.655884
 42
-0.009403
  0
VERTEX
  8
0
 10
54.838449
 20
30.867958
 42
-0.041600
  0
VERTEX
  8
0
 10
54.306297
 20
40.139352
 42
-0.083956
  0
VERTEX
  8
0
 10
55.708294
 20
47.300350
 42
-0.115693
  0
VERTEX
  8
0
 10
58.947486
 20
52.125466
 42
-0.138838
  0
VERTEX
  8
0
 10
63.798075
 20
54.609615
 42
-0.048821
  0
VERTEX
  8
0
 10
66.039421
 20
54.834116
 42
-0.323329
  0
VERTEX
  8
0
 10
66.900959
 20
54.214919
 42
-0.204271
  0
VERTEX
  8
0
 10
66.792943
 20
52.881230
 42
-0.024118
  0
VERTEX
  8
0
 10
65.250000
 20
50.260110
 42
0.075377
  0
VERTEX
  8
0
 10
64.369095
 20
48.338305
 42
0.035122
  0
VERTEX
  8
0
 10
63.798634
 20
45.650151
 42
0.022199
  0
VERTEX
  8
0
 10
63.426690
 20
41.726183
 42
0.006157
  0
VERTEX
  8
0
 10
63.192935
 20
35.545293
 42
0.015369
  0
VERTEX
  8
0
 10
63.236345
 20
27.275634
 42
0.037588
  0
VERTEX
  8
0
 10
63.910995
 20
21.229641
 42
0.030117
  0
VERTEX
  8
0
 10
65.575012
 20
14.615879
 42
0.007022
  0
VERTEX
  8
0
 10
69.184818
 20
3.750000
 42
0.000000
  0
VERTEX
  8
0
 10
70.489381
 20
0.000000
 42
0.000000
  0
VERTEX
  8
0
 10
77.744690
 20
0.000000
 42
0.005223
  0
VERTEX
  8
0
 10
82.434497
 20
0.048993
 42
0.078886
  0
VERTEX
  8
0
 10
84.033672
 20
0.337251
 42
0.229902
  0
VERTEX
  8
0
 10
84.754229
 20
1.061184
 42
0.082967
  0
VERTEX
  8
0
 10
85.000000
 20
2.532119
 42
0.045048
  0
VERTEX
  8
0
 10
84.888953
 20
3.762164
 42
0.018107
  0
VERTEX
  8
0
 10
84.526333
 20
5.412555
 42
0.017744
  0
VERTEX
  8
0
 10
84.004865
 20
7.173024
 42
0.021444
  0
VERTEX
  8
0
 10
83.387517
 20
8.782119
 42
-0.020354
  0
VERTEX
  8
0
 10
80.861156
 20
15.324318
 42
-0.029609
  0
VERTEX
  8
0
 10
79.219950
 20
21.286444
 42
-0.030100
  0
VERTEX
  8
0
 10
78.311974
 20
27.325339
 42
-0.022068
  0
VERTEX
  8
0
 10
78.007639
 20
34.095012
 42
-0.006206
  0
VERTEX
  8
0
 10
78.071078
 20
39.556182
 42
-0.037995
  0
VERTEX
  8
0
 10
78.352208
 20
42.358663
 42
-0.076217
  0
VERTEX
  8
0
 10
78.955761
 20
44.131868
 42
-0.088988
  0
VERTEX
  8
0
 10
80.041849
 20
45.537873
 42
-0.048010
  0
VERTEX
  8
0
 10
81.423200
 20
46.565528
 42
-0.138479
  0
VERTEX
  8
0
 10
82.563085
 20
46.879115
 42
-0.073123
  0
VERTEX
  8
0
 10
84.102624
 20
46.642135
 42
-0.007236
  0
VERTEX
  8
0
 10
87.671375
 20
45.486411
 42
-0.064974
  0
VERTEX
  8
0
 10
94.504141
 20
42.123014
 42
-0.105859
  0
VERTEX
  8
0
 10
98.997947
 20
37.513351
 42
-0.091142
  0
VERTEX
  8
0
 10
101.620845
 20
30.945648
 42
-0.038688
  0
VERTEX
  8
0
 10
102.767823
 20
21.500000
 42
-0.006970
  0
VERTEX
  8
0
 10
102.952926
 20
15.239958
 42
-0.045035
  0
VERTEX
  8
0
 10
102.718283
 20
12.091512
 42
-0.061491
  0
VERTEX
  8
0
 10
101.940268
 20
9.457690
 42
-0.019350
  0
VERTEX
  8
0
 10
100.154967
 20
5.750000
 42
0.000000
  0
VERTEX
  8
0
 10
97.106832
 20
0.000000
 42
0.000000
  0
VERTEX
  8
0
 10
101.149509
 20
-0.000000
 42
0.028054
  0
VERTEX
  8
0
 10
103.074620
 20
0.108098
 42
0.012865
  0
VERTEX
  8
0
 10
105.565927
 20
0.453876
 42
0.012695
  0
VERTEX
  8
0
 10
108.176556
 20
0.953322
 42
0.017125
  0
VERTEX
  8
0
 10
110.507173
 20
1.545109
 42
0.016008
  0
VERTEX
  8
0
 10
113.855267
 20
2.635802
 42
0.112447
  0
VERTEX
  8
0
 10
115.289419
 20
3.556851
 42
0.117508
  0
VERTEX
  8
0
 10
116.153434
 20
4.991697
 42
0.018157
  0
VERTEX
  8
0
 10
117.051362
 20
8.214102
 42
0.053837
  0
VERTEX
  8
0
 10
117.901012
 20
14.822174
 42
0.017210
  0
VERTEX
  8
0
 10
117.761025
 20
24.741431
 42
0.013728
  0
VERTEX
  8
0
 10
117.020585
 20
34.467615
 42
0.119718
  0
VERTEX
  8
0
 10
115.579566
 20
38.518911
 42
-0.027345
  0
VERTEX
  8
0
 10
114.974971
 20
39.561846
 42
-0.024598
  0
VERTEX
  8
0
 10
114.463998
 20
40.701463
 42
-0.025390
  0
VERTEX
  8
0
 10
114.108137
 20
41.769776
 42
-0.067798
  0
VERTEX
  8
0
 10
114.000000
 20
42.563607
 42
0.119885
  0
VERTEX
  8
0
 10
113.801254
 20
43.380601
 42
0.030406
  0
VERTEX
  8
0
 10
113.096389
 20
44.561700
 42
0.029238
  0
VERTEX
  8
0
 10
112.101287
 20
45.851028
 42
0.025923
  0
VERTEX
  8
0
 10
110.923876
 20
47.071110
 42
-0.023528
  0
VERTEX
  8
0
 10
109.786519
 20
48.238453
 42
-0.034998
  0
VERTEX
  8
0
 10
108.917355
 20
49.369122
 42
-0.038006
  0
VERTEX
  8
0
 10
108.380982
 20
50.329314
 42
-0.251890
  0
VERTEX
  8
0
 10
108.412831
 20
50.858957
 42
-0.187274
  0
VERTEX
  8
0
 10
109.558817
 20
51.724661
 42
-0.024626
  0
VERTEX
  8
0
 10
112.584676
 20
52.425047
 42
-0.028565
  0
VERTEX
  8
0
 10
115.744023
 20
52.809537
 42
-0.093098
  0
VERTEX
  8
0
 10
117.827347
 20
52.554798
 42
-0.175592
  0
VERTEX
  8
0
 10
120.671589
 20
50.370195
 42
-0.045838
  0
VERTEX
  8
0
 10
123.356023
 20
45.170452
 42
-0.044326
  0
VERTEX
  8
0
 10
125.309541
 20
38.773066
 42
-0.052819
  0
VERTEX
  8
0
 10
125.953109
 20
32.500000
 42
-0.026535
  0
VERTEX
  8
0
 10
125.667320
 20
27.434848
 42
-0.006229
  0
VERTEX
  8
0
 10
124.634661
 20
19.003913
 42
-0.005947
  0
VERTEX
  8
0
 10
123.401426
 20
10.630549
 42
-0.031203
  0
VERTEX
  8
0
 10
122.384104
 20
6.092069
 42
0.019849
  0
VERTEX
  8
0
 10
122.035721
 20
4.687943
 42
0.251000
  0
VERTEX
  8
0
 10
122.185579
 20
4.182681
 42
0.251827
  0
VERTEX
  8
0
 10
122.688761
 20
4.028552
 42
0.019964
  0
VERTEX
  8
0
 10
124.092069
 20
4.366142
 42
-0.005365
  0
VERTEX
  8
0
 10
125.215695
 20
4.671404
 42
-0.002822
  0
VERTEX
  8
0
 10
126.618136
 20
5.027861
 42
-0.002807
  0
VERTEX
  8
0
 10
128.058947
 20
5.376851
 42
-0.004317
  0
VERTEX
  8
0
 10
129.310096
 20
5.661093
 42
0.094151
  0
VERTEX
  8
0
 10
131.917553
 20
6.771221
 42
0.039781
  0
VERTEX
  8
0
 10
134.912426
 20
9.142828
 42
0.039718
  0
VERTEX
  8
0
 10
137.557345
 20
12.027281
 42
0.074987
  0
VERTEX
  8
0
 10
139.103211
 20
14.771465
 42
0.052964
  0
VERTEX
  8
0
 10
139.499507
 20
16.276355
 42
0.007366
  0
VERTEX
  8
0
 10
139.940470
 20
19.476483
 42
0.008363
  0
VERTEX
  8
0
 10
140.344737
 20
23.294991
 42
0.007005
  0
VERTEX
  8
0
 10
140.648944
 20
27.357422
 42
0.009372
  0
VERTEX
  8
0
 10
140.885538
 20
32.988649
 42
0.026166
  0
VERTEX
  8
0
 10
140.770634
 20
36.939599
 42
0.030817
  0
VERTEX
  8
0
 10
140.260954
 20
40.479221
 42
0.017924
  0
VERTEX
  8
0
 10
139.238337
 20
44.649537
 42
0.040595
  0
VERTEX
  8
0
 10
136.974571
 20
50.710432
 42
0.028398
  0
VERTEX
  8
0
 10
133.506403
 20
57.129115
 42
0.025315
  0
VERTEX
  8
0
 10
129.769580
 20
62.558709
 42
0.153709
  0
VERTEX
  8
0
 10
127.010837
 20
64.496561
 42
-0.039495
  0
VERTEX
  8
0
 10
126.241284
 20
64.809549
 42
-0.049523
  0
VERTEX
  8
0
 10
125.590683
 20
65.221255
 42
-0.057880
  0
VERTEX
  8
0
 10
125.141776
 20
65.664269
 42
-0.170724
  0
VERTEX
  8
0
 10
125.000000
 20
66.067388
 42
-0.219102
  0
VERTEX
  8
0
 10
125.290364
 20
66.698200
 42
-0.188097
  0
VERTEX
  8
0
 10
125.985641
 20
66.941154
 42
-0.064388
  0
VERTEX
  8
0
 10
127.344491
 20
66.715896
 42
-0.010639
  0
VERTEX
  8
0
 10
129.876120
 20
65.893340
 42
-0.108184
  0
VERTEX
  8
0
 10
133.244600
 20
63.823662
 42
-0.063071
  0
VERTEX
  8
0
 10
136.232839
 20
60.115739
 42
-0.054929
  0
VERTEX
  8
0
 10
138.571915
 20
55.180678
 42
-0.043640
  0
VERTEX
  8
0
 10
140.006931
 20
49.456614
 42
0.007033
  0
VERTEX
  8
0
 10
140.474209
 20
46.774313
 42
0.009211
  0
VERTEX
  8
0
 10
140.980566
 20
44.338526
 42
0.007131
  0
VERTEX
  8
0
 10
141.468492
 20
42.324156
 42
0.081619
  0
VERTEX
  8
0
 10
141.796452
 20
41.579348
 42
-0.117309
  0
VERTEX
  8
0
 10
142.094014
 20
40.749018
 42
-0.004225
  0
VERTEX
  8
0
 10
142.440208
 20
37.370390
 42
-0.007561
  0
VERTEX
  8
0
 10
142.757345
 20
33.340647
 42
-0.005207
  0
VERTEX
  8
0
 10
143.000000
 20
28.766661
 42
0.000000
  0
VERTEX
  8
0
 10
143.500000
 20
17.033322
 42
0.000000
  0
VERTEX
  8
0
 10
150.733171
 20
21.766661
 42
0.000000
  0
VERTEX
  8
0
 10
157.966342
 20
26.500000
 42
0.000000
  0
VERTEX
  8
0
 10
157.983171
 20
32.335865
 42
0.019486
  0
VERTEX
  8
0
 10
157.886458
 20
35.014973
 42
0.010836
  0
VERTEX
  8
0
 10
157.570822
 20
38.268160
 42
0.010795
  0
VERTEX
  8
0
 10
157.108165
 20
41.551724
 42
0.017145
  0
VERTEX
  8
0
 10
156.555799
 20
44.335865
 42
-0.001537
  0
VERTEX
  8
0
 10
155.918102
 20
47.095867
 42
-0.000985
  0
VERTEX
  8
0
 10
155.193686
 20
50.304910
 42
-0.000989
  0
VERTEX
  8
0
 10
154.496498
 20
53.451113
 42
-0.001851
  0
VERTEX
  8
0
 10
153.946844
 20
56.000000
 42
0.055101
  0
VERTEX
  8
0
 10
152.293573
 20
61.009345
 42
0.026016
  0
VERTEX
  8
0
 10
149.140180
 20
67.053266
 42
0.025975
  0
VERTEX
  8
0
 10
145.399435
 20
72.702858
 42
0.058692
  0
VERTEX
  8
0
 10
141.892160
 20
76.437288
 42
0.032257
  0
VERTEX
  8
0
 10
140.582319
 20
77.402409
 42
0.022554
  0
VERTEX
  8
0
 10
138.995121
 20
78.322642
 42
0.022840
  0
VERTEX
  8
0
 10
137.387004
 20
79.069226
 42
0.043220
  0
VERTEX
  8
0
 10
136.023955
 20
79.494739
 42
-0.048557
  0
VERTEX
  8
0
 10
133.365945
 20
80.355685
 42
-0.599510
  0
VERTEX
  8
0
 10
133.299064
 20
81.185784
 42
-0.127209
  0
VERTEX
  8
0
 10
135.317915
 20
81.850369
 42
-0.016241
  0
VERTEX
  8
0
 10
139.923275
 20
82.000000
 42
-0.012442
  0
VERTEX
  8
0
 10
143.875607
 20
81.901637
 42
-0.052767
  0
VERTEX
  8
0
 10
146.210172
 20
81.536372
 42
-0.072303
  0
VERTEX
  8
0
 10
148.039486
 20
80.752162
 42
-0.037557
  0
VERTEX
  8
0
 10
150.059249
 20
79.296691
 42
-0.069286
  0
VERTEX
  8
0
 10
152.991141
 20
76.039852
 42
-0.074117
  0
VERTEX
  8
0
 10
154.841115
 20
72.176905
 42
-0.045262
  0
VERTEX
  8
0
 10
156.035544
 20
66.523200
 42
-0.010454
  0
VERTEX
  8
0
 10
156.977582
 20
56.825373
 42
0.004964
  0
VERTEX
  8
0
 10
157.438772
 20
51.466968
 42
0.005786
  0
VERTEX
  8
0
 10
157.986336
 20
46.386203
 42
0.005168
  0
VERTEX
  8
0
 10
158.543128
 20
42.102889
 42
0.034477
  0
VERTEX
  8
0
 10
158.988107
 20
40.000000
 42
0.012590
  0
VERTEX
  8
0
 10
160.121163
 20
36.370998
 42
0.023482
  0
VERTEX
  8
0
 10
161.248201
 20
33.505814
 42
0.022070
  0
VERTEX
  8
0
 10
162.291499
 20
31.430676
 42
0.271600
  0
VERTEX
  8
0
 10
163.025862
 20
31.000000
 42
0.257367
  0
VERTEX
  8
0
 10
163.831166
 20
31.443923
 42
0.003790
  0
VERTEX
  8
0
 10
166.788798
 20
36.207711
 42
0.010796
  0
VERTEX
  8
0
 10
169.588925
 20
41.025970
 42
0.020946
  0
VERTEX
  8
0
 10
171.577188
 20
45.009276
 42
0.110676
  0
VERTEX
  8
0
 10
172.302869
 20
48.577697
 42
0.009081
  0
VERTEX
  8
0
 10
171.939530
 20
58.136965
 42
0.012900
  0
VERTEX
  8
0
 10
171.148325
 20
67.769870
 42
0.038840
  0
VERTEX
  8
0
 10
169.933746
 20
74.246048
 42
0.071822
  0
VERTEX
  8
0
 10
166.051270
 20
83.266801
 42
0.077027
  0
VERTEX
  8
0
 10
159.846928
 20
90.579594
 42
0.081737
  0
VERTEX
  8
0
 10
152.077741
 20
95.346737
 42
0.097115
  0
VERTEX
  8
0
 10
143.646135
 20
97.000000
 42
0.000000
  0
VERTEX
  8
0
 10
138.212595
 20
97.000000
 42
0.000000
  0
VERTEX
  8
0
 10
139.292688
 20
101.250000
 42
0.042298
  0
VERTEX
  8
0
 10
139.714952
 20
103.796516
 42
0.006406
  0
VERTEX
  8
0
 10
140.060698
 20
108.951563
 42
0.007141
  0
VERTEX
  8
0
 10
140.304518
 20
115.062599
 42
0.006123
  0
VERTEX
  8
0
 10
140.390466
 20
121.500000
 42
0.005453
  0
VERTEX
  8
0
 10
140.305194
 20
130.201061
 42
0.016615
  0
VERTEX
  8
0
 10
139.986658
 20
136.101562
 42
0.021918
  0
VERTEX
  8
0
 10
139.340934
 20
141.002946
 42
0.017494
  0
VERTEX
  8
0
 10
138.230689
 20
146.216904
 42
0.050985
  0
VERTEX
  8
0
 10
130.959578
 20
166.344048
 42
0.072021
  0
VERTEX
  8
0
 10
120.331900
 20
182.136576
 42
0.084640
  0
VERTEX
  8
0
 10
107.219329
 20
192.435309
 42
0.111550
  0
VERTEX
  8
0
 10
92.629683
 20
196.547376
 42
0.012046
  0
VERTEX
  8
0
 10
89.671415
 20
196.631561
 42
0.011642
  0
VERTEX
  8
0
 10
86.678631
 20
196.574913
 42
0.011634
  0
VERTEX
  8
0
 10
84.048087
 20
196.402428
 42
0.041221
  0
SEQEND
  0
ENDSEC
  0
EOF
