  0
SECTION
  2
HEADER
  9
$ACADVER
  1
AC1006
  9
$EXTMIN
 10
0.000000
 20
0.000000
 30
0.000000
  9
$EXTMAX
 10
280.000000
 20
53.000000
 30
0.000000
  0
ENDSEC
  0
SECTION
  2
ENTITIES
  0
POLYLINE
  8
0
 66
1
 70
1
  0
VERTEX
  8
0
 10
27.500000
 20
51.000000
 42
-0.047555
  0
VERTEX
  8
0
 10
25.874794
 20
50.133310
 42
-0.037965
  0
VERTEX
  8
0
 10
23.988358
 20
49.510291
 42
-0.034488
  0
VERTEX
  8
0
 10
21.848176
 20
49.133781
 42
-0.025977
  0
VERTEX
  8
0
 10
19.461890
 20
49.006589
 42
0.058361
  0
VERTEX
  8
0
 10
14.497926
 20
48.418619
 42
0.061096
  0
VERTEX
  8
0
 10
9.885428
 20
46.700710
 42
0.064650
  0
VERTEX
  8
0
 10
6.054591
 20
44.036410
 42
0.082259
  0
VERTEX
  8
0
 10
3.385404
 20
40.666170
 42
0.066618
  0
VERTEX
  8
0
 10
1.701321
 20
36.358085
 42
0.038621
  0
VERTEX
  8
0
 10
0.801126
 20
30.864008
 42
0.035546
  0
VERTEX
  8
0
 10
0.714128
 20
24.712137
 42
0.032219
  0
VERTEX
  8
0
 10
1.483724
 20
18.400689
 42
0.015967
  0
VERTEX
  8
0
 10
2.310490
 20
14.662899
 42
0.050226
  0
VERTEX
  8
0
 10
3.190390
 20
12.252300
 42
0.061320
  0
VERTEX
  8
0
 10
4.427772
 20
10.333828
 42
0.033425
  0
VERTEX
  8
0
 10
6.365436
 20
8.303914
 42
0.027318
  0
VERTEX
  8
0
 10
8.678196
 20
6.405982
 42
0.083196
  0
VERTEX
  8
0
 10
10.487256
 20
5.494847
 42
0.063694
  0
VERTEX
  8
0
 10
12.750285
 20
5.098601
 42
0.011531
  0
VERTEX
  8
0
 10
17.025153
 20
5.000000
 42
-0.015986
  0
VERTEX
  8
0
 10
20.556527
 20
4.887065
 42
-0.029863
  0
VERTEX
  8
0
 10
23.394159
 20
4.534402
 42
-0.035196
  0
VERTEX
  8
0
 10
25.827697
 20
3.903372
 42
-0.036933
  0
VERTEX
  8
0
 10
28.108230
 20
2.944785
 42
0.046826
  0
VERTEX
  8
0
 10
32.643213
 20
1.143126
 42
0.050749
  0
VERTEX
  8
0
 10
37.313359
 20
0.278027
 42
0.055374
  0
VERTEX
  8
0
 10
41.639153
 20
0.402996
 42
0.088528
  0
VERTEX
  8
0
 10
45.143003
 20
1.549032
 42
-0.077680
  0
VERTEX
  8
0
 10
47.964493
 20
2.539669
 42
-0.027247
  0
VERTEX
  8
0
 10
52.237335
 20
3.090165
 42
-0.013502
  0
VERTEX
  8
0
 10
59.287499
 20
3.419274
 42
-0.002011
  0
VERTEX
  8
0
 10
73.500000
 20
3.641322
 42
0.001557
  0
VERTEX
  8
0
 10
100.213194
 20
4.034442
 42
0.008371
  0
VERTEX
  8
0
 10
114.749680
 20
4.537194
 42
0.012290
  0
VERTEX
  8
0
 10
123.807522
 20
5.225941
 42
0.094474
  0
VERTEX
  8
0
 10
127.871931
 20
6.433773
 42
-0.089586
  0
VERTEX
  8
0
 10
130.800000
 20
7.334894
 42
-0.013099
  0
VERTEX
  8
0
 10
137.015763
 20
7.918777
 42
-0.008514
  0
VERTEX
  8
0
 10
147.060833
 20
8.425838
 42
-0.001539
  0
VERTEX
  8
0
 10
165.744146
 20
8.992661
 42
0.000627
  0
VERTEX
  8
0
 10
200.613951
 20
9.986892
 42
0.002746
  0
VERTEX
  8
0
 10
221.218692
 20
10.713546
 42
0.004355
  0
VERTEX
  8
0
 10
236.706783
 20
11.480111
 42
0.004287
  0
VERTEX
  8
0
 10
252.260480
 20
12.519654
 42
0.006021
  0
VERTEX
  8
0
 10
266.052358
 20
13.727465
 42
0.054680
  0
VERTEX
  8
0
 10
271.953447
 20
14.976869
 42
0.120554
  0
VERTEX
  8
0
 10
275.435129
 20
17.149261
 42
0.075508
  0
VERTEX
  8
0
 10
278.248446
 20
21.071085
 42
0.078234
  0
VERTEX
  8
0
 10
279.542868
 20
25.038215
 42
0.036999
  0
VERTEX
  8
0
 10
280.002553
 20
30.415448
 42
0.036240
  0
VERTEX
  8
0
 10
279.684962
 20
35.604020
 42
0.119928
  0
VERTEX
  8
0
 10
278.448715
 20
38.769757
 42
0.180015
  0
VERTEX
  8
0
 10
273.279580
 20
42.333295
 42
0.042163
  0
VERTEX
  8
0
 10
262.724687
 20
44.069968
 42
0.016274
  0
VERTEX
  8
0
 10
242.924247
 20
44.986494
 42
0.001437
  0
VERTEX
  8
0
 10
192.846587
 20
45.529198
 42
-0.001158
  0
VERTEX
  8
0
 10
165.686214
 20
45.808409
 42
-0.002368
  0
VERTEX
  8
0
 10
144.380356
 20
46.177703
 42
-0.000559
  0
VERTEX
  8
0
 10
126.608739
 20
46.589804
 42
-0.117307
  0
VERTEX
  8
0
 10
124.948202
 20
47.027721
 42
0.114903
  0
VERTEX
  8
0
 10
123.387975
 20
47.447112
 42
0.001693
  0
VERTEX
  8
0
 10
113.814715
 20
47.738269
 42
0.004262
  0
VERTEX
  8
0
 10
102.194434
 20
47.953189
 42
0.002271
  0
VERTEX
  8
0
 10
87.815741
 20
48.031210
 42
0.000000
  0
VERTEX
  8
0
 10
52.500000
 20
48.062419
 42
0.000000
  0
VERTEX
  8
0
 10
48.500000
 20
50.526086
 42
0.084635
  0
VERTEX
  8
0
 10
43.818984
 20
52.412990
 42
0.047972
  0
VERTEX
  8
0
 10
37.733409
 20
53.137123
 42
0.048388
  0
VERTEX
  8
0
 10
31.767289
 20
52.694005
 42
0.103901
  0
SEQEND
  0
ENDSEC
  0
EOF
