  0
SECTION
  2
HEADER
  9
$ACADVER
  1
AC1006
  9
$EXTMIN
 10
0.000000
 20
0.000000
 30
0.000000
  9
$EXTMAX
 10
468.000000
 20
48.000000
 30
0.000000
  0
ENDSEC
  0
SECTION
  2
ENTITIES
  0
POLYLINE
  8
0
 66
1
 70
1
  0
VERTEX
  8
0
 10
428.000000
 20
47.335977
 42
-0.006862
  0
VERTEX
  8
0
 10
424.119348
 20
47.187649
 42
-0.000253
  0
VERTEX
  8
0
 10
409.428125
 20
46.835348
 42
-0.000460
  0
VERTEX
  8
0
 10
392.055700
 20
46.443529
 42
-0.000323
  0
VERTEX
  8
0
 10
372.500000
 20
46.033120
 42
0.001433
  0
VERTEX
  8
0
 10
348.885742
 20
45.485071
 42
0.004144
  0
VERTEX
  8
0
 10
332.537121
 20
44.923111
 42
0.004718
  0
VERTEX
  8
0
 10
320.988028
 20
44.321046
 42
0.034513
  0
VERTEX
  8
0
 10
315.500000
 20
43.600665
 42
-0.033634
  0
VERTEX
  8
0
 10
310.153955
 20
42.889366
 42
-0.004574
  0
VERTEX
  8
0
 10
298.879542
 20
42.258654
 42
-0.004179
  0
VERTEX
  8
0
 10
283.248628
 20
41.658487
 42
-0.001601
  0
VERTEX
  8
0
 10
261.500000
 20
41.075114
 42
0.000222
  0
VERTEX
  8
0
 10
225.806305
 20
40.216226
 42
0.000664
  0
VERTEX
  8
0
 10
201.411188
 20
39.585967
 42
0.000562
  0
VERTEX
  8
0
 10
174.946058
 20
38.837305
 42
0.000124
  0
VERTEX
  8
0
 10
129.500000
 20
37.489379
 42
0.000237
  0
VERTEX
  8
0
 10
65.556478
 20
35.546635
 42
0.002300
  0
VERTEX
  8
0
 10
38.440858
 20
34.585051
 42
0.001914
  0
VERTEX
  8
0
 10
22.009052
 20
33.863621
 42
0.111380
  0
VERTEX
  8
0
 10
19.124738
 20
33.066758
 42
-0.073545
  0
VERTEX
  8
0
 10
17.973211
 20
32.653488
 42
-0.016720
  0
VERTEX
  8
0
 10
15.921838
 20
32.313360
 42
-0.016958
  0
VERTEX
  8
0
 10
13.506087
 20
32.078389
 42
-0.015763
  0
VERTEX
  8
0
 10
11.020287
 20
32.000000
 42
0.014554
  0
VERTEX
  8
0
 10
7.652671
 20
31.901953
 42
0.055272
  0
VERTEX
  8
0
 10
5.580704
 20
31.549176
 42
0.077447
  0
VERTEX
  8
0
 10
4.012531
 20
30.823017
 42
0.049327
  0
VERTEX
  8
0
 10
2.454545
 20
29.545455
 42
0.053929
  0
VERTEX
  8
0
 10
1.126250
 20
27.894931
 42
0.083398
  0
VERTEX
  8
0
 10
0.409291
 20
26.215474
 42
0.050145
  0
VERTEX
  8
0
 10
0.081556
 20
23.835777
 42
0.009164
  0
VERTEX
  8
0
 10
-0.000000
 20
19.386323
 42
0.011375
  0
VERTEX
  8
0
 10
0.109931
 20
14.554961
 42
0.063552
  0
VERTEX
  8
0
 10
0.553378
 20
12.008792
 42
0.070866
  0
VERTEX
  8
0
 10
1.605381
 20
9.779186
 42
0.016087
  0
VERTEX
  8
0
 10
4.022221
 20
6.354343
 42
0.021358
  0
VERTEX
  8
0
 10
5.740109
 20
4.270393
 42
0.023634
  0
VERTEX
  8
0
 10
7.575164
 20
2.413109
 42
0.023893
  0
VERTEX
  8
0
 10
9.276846
 20
0.990296
 42
0.101016
  0
VERTEX
  8
0
 10
10.469119
 20
0.418395
 42
0.063657
  0
VERTEX
  8
0
 10
16.407498
 20
-0.290194
 42
0.000217
  0
VERTEX
  8
0
 10
89.106393
 20
0.350670
 42
0.000365
  0
VERTEX
  8
0
 10
160.105102
 20
1.059273
 42
0.036745
  0
VERTEX
  8
0
 10
170.000000
 20
1.894068
 42
-0.035803
  0
VERTEX
  8
0
 10
175.450497
 20
2.364232
 42
-0.000971
  0
VERTEX
  8
0
 10
199.425484
 20
2.664685
 42
-0.001772
  0
VERTEX
  8
0
 10
230.120489
 20
2.880980
 42
-0.000793
  0
VERTEX
  8
0
 10
270.500000
 20
2.958408
 42
0.000548
  0
VERTEX
  8
0
 10
309.893306
 20
3.014644
 42
0.000499
  0
VERTEX
  8
0
 10
350.524998
 20
3.157719
 42
0.000499
  0
VERTEX
  8
0
 10
386.842226
 20
3.358100
 42
0.001621
  0
VERTEX
  8
0
 10
410.925526
 20
3.593074
 42
0.000000
  0
VERTEX
  8
0
 10
457.351053
 20
4.196521
 42
0.000000
  0
VERTEX
  8
0
 10
461.089628
 20
6.556580
 42
0.044589
  0
VERTEX
  8
0
 10
464.953473
 20
9.507421
 42
0.116188
  0
VERTEX
  8
0
 10
466.910429
 20
12.379441
 42
0.078589
  0
VERTEX
  8
0
 10
467.786193
 20
16.489652
 42
0.013270
  0
VERTEX
  8
0
 10
468.000000
 20
24.544367
 42
0.018942
  0
VERTEX
  8
0
 10
467.685068
 20
32.854625
 42
0.040489
  0
VERTEX
  8
0
 10
466.683524
 20
39.194049
 42
0.054638
  0
VERTEX
  8
0
 10
465.032474
 20
43.762557
 42
0.126626
  0
VERTEX
  8
0
 10
462.679402
 20
46.512002
 42
0.138725
  0
VERTEX
  8
0
 10
459.944185
 20
47.465179
 42
0.008970
  0
VERTEX
  8
0
 10
451.442501
 20
47.819853
 42
0.011899
  0
VERTEX
  8
0
 10
440.755257
 20
47.819410
 42
0.007022
  0
SEQEND
  0
ENDSEC
  0
EOF
