  0
SECTION
  2
HEADER
  9
$ACADVER
  1
AC1006
  9
$EXTMIN
 10
0.000000
 20
0.000000
 30
0.000000
  9
$EXTMAX
 10
339.000000
 20
67.000000
 30
0.000000
  0
ENDSEC
  0
SECTION
  2
ENTITIES
  0
POLYLINE
  8
0
 66
1
 70
1
  0
VERTEX
  8
0
 10
293.500000
 20
66.447689
 42
-0.066500
  0
VERTEX
  8
0
 10
291.876078
 20
66.045330
 42
-0.000195
  0
VERTEX
  8
0
 10
270.042241
 20
63.640838
 42
-0.001329
  0
VERTEX
  8
0
 10
248.694498
 20
61.355717
 42
-0.001979
  0
VERTEX
  8
0
 10
230.000000
 20
59.479646
 42
0.000724
  0
VERTEX
  8
0
 10
208.698521
 20
57.395933
 42
0.002249
  0
VERTEX
  8
0
 10
194.340448
 20
55.905156
 42
0.002943
  0
VERTEX
  8
0
 10
184.330903
 20
54.760701
 42
0.014037
  0
VERTEX
  8
0
 10
178.638536
 20
53.913193
 42
-0.010871
  0
VERTEX
  8
0
 10
176.300972
 20
53.550026
 42
-0.013736
  0
VERTEX
  8
0
 10
174.125257
 20
53.320917
 42
-0.011819
  0
VERTEX
  8
0
 10
172.309557
 20
53.223122
 42
-0.099471
  0
VERTEX
  8
0
 10
171.505173
 20
53.359641
 42
0.107989
  0
VERTEX
  8
0
 10
170.522574
 20
53.509416
 42
0.001662
  0
VERTEX
  8
0
 10
164.771070
 20
53.122307
 42
0.004359
  0
VERTEX
  8
0
 10
158.072482
 20
52.590357
 42
0.002861
  0
VERTEX
  8
0
 10
150.366637
 20
51.866314
 42
-0.005068
  0
VERTEX
  8
0
 10
142.357218
 20
51.149396
 42
-0.005875
  0
VERTEX
  8
0
 10
134.720200
 20
50.633983
 42
-0.005276
  0
VERTEX
  8
0
 10
128.251487
 20
50.342150
 42
-0.034402
  0
VERTEX
  8
0
 10
125.000000
 20
50.453539
 42
0.018191
  0
VERTEX
  8
0
 10
117.254909
 20
50.970450
 42
0.016118
  0
VERTEX
  8
0
 10
109.172551
 20
50.954530
 42
0.014275
  0
VERTEX
  8
0
 10
100.218522
 20
50.391925
 42
0.009013
  0
VERTEX
  8
0
 10
89.810110
 20
49.249489
 42
0.005719
  0
VERTEX
  8
0
 10
81.678052
 20
48.113570
 42
0.022263
  0
VERTEX
  8
0
 10
76.693934
 20
47.130490
 42
0.032944
  0
VERTEX
  8
0
 10
72.885286
 20
45.930911
 42
0.027962
  0
VERTEX
  8
0
 10
69.045493
 20
44.184287
 42
-0.016496
  0
VERTEX
  8
0
 10
66.519111
 20
42.964465
 42
-0.017186
  0
VERTEX
  8
0
 10
63.951698
 20
41.931663
 42
-0.017130
  0
VERTEX
  8
0
 10
61.678200
 20
41.193759
 42
-0.068847
  0
VERTEX
  8
0
 10
60.235383
 20
40.987333
 42
0.067885
  0
VERTEX
  8
0
 10
58.796242
 20
40.784242
 42
0.017170
  0
VERTEX
  8
0
 10
56.541019
 20
40.061602
 42
0.017197
  0
VERTEX
  8
0
 10
53.997778
 20
39.049277
 42
0.016611
  0
VERTEX
  8
0
 10
51.500000
 20
37.853697
 42
-0.001907
  0
VERTEX
  8
0
 10
44.644858
 20
34.321079
 42
-0.005372
  0
VERTEX
  8
0
 10
39.815918
 20
31.920925
 42
-0.003534
  0
VERTEX
  8
0
 10
36.219231
 20
30.212439
 42
-0.108131
  0
VERTEX
  8
0
 10
35.254903
 20
29.995815
 42
0.112673
  0
VERTEX
  8
0
 10
34.194202
 20
29.747521
 42
0.003804
  0
VERTEX
  8
0
 10
30.324230
 20
27.820726
 42
0.005738
  0
VERTEX
  8
0
 10
25.150054
 20
25.120167
 42
0.002084
  0
VERTEX
  8
0
 10
17.872114
 20
21.175528
 42
-0.012886
  0
VERTEX
  8
0
 10
14.764236
 20
19.576930
 42
-0.015059
  0
VERTEX
  8
0
 10
11.733797
 20
18.226561
 42
-0.014088
  0
VERTEX
  8
0
 10
9.122622
 20
17.241026
 42
-0.083374
  0
VERTEX
  8
0
 10
7.687214
 20
17.000000
 42
0.050332
  0
VERTEX
  8
0
 10
4.957091
 20
16.724475
 42
0.052910
  0
VERTEX
  8
0
 10
2.384868
 20
15.909359
 42
0.063895
  0
VERTEX
  8
0
 10
0.572573
 20
14.822482
 42
0.315402
  0
VERTEX
  8
0
 10
0.248449
 20
13.743847
 42
0.244587
  0
VERTEX
  8
0
 10
0.844347
 20
13.163825
 42
0.023967
  0
VERTEX
  8
0
 10
2.854028
 20
12.663029
 42
0.022483
  0
VERTEX
  8
0
 10
5.710677
 20
12.227390
 42
0.009477
  0
VERTEX
  8
0
 10
9.579732
 20
11.888287
 42
-0.022402
  0
VERTEX
  8
0
 10
14.604232
 20
11.316743
 42
-0.008926
  0
VERTEX
  8
0
 10
21.432924
 20
10.102944
 42
-0.007932
  0
VERTEX
  8
0
 10
29.525885
 20
8.381143
 42
-0.005557
  0
VERTEX
  8
0
 10
38.587567
 20
6.196188
 42
0.004006
  0
VERTEX
  8
0
 10
49.981639
 20
3.411427
 42
0.015790
  0
VERTEX
  8
0
 10
57.060585
 20
1.975600
 42
0.022288
  0
VERTEX
  8
0
 10
62.915870
 20
1.245982
 42
0.015399
  0
VERTEX
  8
0
 10
69.587567
 20
0.921454
 42
0.002140
  0
VERTEX
  8
0
 10
85.499689
 20
0.706194
 42
0.008355
  0
VERTEX
  8
0
 10
95.336888
 20
0.779615
 42
0.012177
  0
VERTEX
  8
0
 10
103.148782
 20
1.158989
 42
0.009878
  0
VERTEX
  8
0
 10
111.500000
 20
1.934811
 42
0.006462
  0
VERTEX
  8
0
 10
117.988495
 20
2.752182
 42
0.026786
  0
VERTEX
  8
0
 10
121.864112
 20
3.504758
 42
0.043793
  0
VERTEX
  8
0
 10
124.567592
 20
4.439492
 42
0.054403
  0
VERTEX
  8
0
 10
126.863057
 20
5.781716
 42
-0.073594
  0
VERTEX
  8
0
 10
130.008601
 20
7.463111
 42
-0.046421
  0
VERTEX
  8
0
 10
134.049120
 20
8.499952
 42
-0.015132
  0
VERTEX
  8
0
 10
141.321829
 20
9.437110
 42
-0.000984
  0
VERTEX
  8
0
 10
162.500000
 20
11.474853
 42
0.001093
  0
VERTEX
  8
0
 10
169.609214
 20
12.160459
 42
0.000725
  0
VERTEX
  8
0
 10
177.765625
 20
12.976992
 42
0.000729
  0
VERTEX
  8
0
 10
185.685052
 20
13.793069
 42
0.001421
  0
VERTEX
  8
0
 10
192.000000
 20
14.471273
 42
-0.001224
  0
VERTEX
  8
0
 10
210.669671
 20
16.483798
 42
-0.000327
  0
VERTEX
  8
0
 10
240.384790
 20
19.593773
 42
-0.000325
  0
VERTEX
  8
0
 10
270.071065
 20
22.661572
 42
-0.001257
  0
VERTEX
  8
0
 10
288.500000
 20
24.507101
 42
0.001896
  0
VERTEX
  8
0
 10
302.160700
 20
25.892760
 42
0.034787
  0
VERTEX
  8
0
 10
306.455102
 20
26.649512
 42
0.132562
  0
VERTEX
  8
0
 10
308.496575
 20
27.784903
 42
0.142252
  0
VERTEX
  8
0
 10
309.622658
 20
29.765230
 42
-0.058396
  0
VERTEX
  8
0
 10
310.632344
 20
32.521953
 42
-0.149516
  0
VERTEX
  8
0
 10
312.088178
 20
34.039693
 42
-0.093020
  0
VERTEX
  8
0
 10
314.603263
 20
34.883993
 42
-0.014709
  0
VERTEX
  8
0
 10
319.805990
 20
35.453089
 42
0.004089
  0
VERTEX
  8
0
 10
328.215003
 20
36.192565
 42
0.020486
  0
VERTEX
  8
0
 10
332.898386
 20
36.837546
 42
0.036726
  0
VERTEX
  8
0
 10
335.794633
 20
37.580911
 42
0.115696
  0
VERTEX
  8
0
 10
337.488053
 20
38.630910
 42
0.187186
  0
VERTEX
  8
0
 10
339.000758
 20
42.061412
 42
0.038246
  0
VERTEX
  8
0
 10
338.789826
 20
48.812171
 42
0.038827
  0
VERTEX
  8
0
 10
337.536629
 20
55.497423
 42
0.165451
  0
VERTEX
  8
0
 10
335.304966
 20
58.824325
 42
0.115701
  0
VERTEX
  8
0
 10
333.828983
 20
59.486352
 42
0.034244
  0
VERTEX
  8
0
 10
331.355166
 20
59.791661
 42
0.021039
  0
VERTEX
  8
0
 10
327.552189
 20
59.838297
 42
0.005126
  0
VERTEX
  8
0
 10
321.282302
 20
59.586985
 42
0.000000
  0
VERTEX
  8
0
 10
309.064605
 20
58.971768
 42
0.000000
  0
VERTEX
  8
0
 10
307.352272
 20
61.735884
 42
0.016617
  0
VERTEX
  8
0
 10
306.585906
 20
62.885802
 42
0.013875
  0
VERTEX
  8
0
 10
305.699052
 20
64.055228
 42
0.014103
  0
VERTEX
  8
0
 10
304.827401
 20
65.080095
 42
0.036690
  0
VERTEX
  8
0
 10
304.128840
 20
65.750000
 42
0.133023
  0
VERTEX
  8
0
 10
302.495410
 20
66.492456
 42
0.024150
  0
VERTEX
  8
0
 10
299.157680
 20
66.874065
 42
0.026367
  0
VERTEX
  8
0
 10
295.730804
 20
66.918017
 42
0.084144
  0
SEQEND
  0
ENDSEC
  0
EOF
