  0
SECTION
  2
HEADER
  9
$ACADVER
  1
AC1006
  9
$EXTMIN
 10
0.000000
 20
0.000000
 30
0.000000
  9
$EXTMAX
 10
502.000000
 20
198.000000
 30
0.000000
  0
ENDSEC
  0
SECTION
  2
ENTITIES
  0
POLYLINE
  8
0
 66
1
 70
1
  0
VERTEX
  8
0
 10
247.193142
 20
196.919916
 42
0.021273
  0
VERTEX
  8
0
 10
239.766054
 20
195.887017
 42
0.038673
  0
VERTEX
  8
0
 10
233.844074
 20
194.324113
 42
0.038955
  0
VERTEX
  8
0
 10
228.262023
 20
191.876642
 42
0.021936
  0
VERTEX
  8
0
 10
221.894143
 20
188.103156
 42
0.027170
  0
VERTEX
  8
0
 10
212.947349
 20
181.536811
 42
0.012733
  0
VERTEX
  8
0
 10
202.080372
 20
172.140852
 42
0.012719
  0
VERTEX
  8
0
 10
191.416695
 20
161.927542
 42
0.020928
  0
VERTEX
  8
0
 10
183.000000
 20
152.703809
 42
-0.006595
  0
VERTEX
  8
0
 10
178.447363
 20
147.418059
 42
-0.027301
  0
VERTEX
  8
0
 10
175.487713
 20
144.419079
 42
-0.046325
  0
VERTEX
  8
0
 10
173.179740
 20
142.683315
 42
-0.084525
  0
VERTEX
  8
0
 10
171.000000
 20
141.803600
 42
-0.020691
  0
VERTEX
  8
0
 10
166.638111
 20
141.038814
 42
-0.004064
  0
VERTEX
  8
0
 10
158.740487
 20
140.053937
 42
-0.003531
  0
VERTEX
  8
0
 10
148.093959
 20
138.890201
 42
-0.001557
  0
VERTEX
  8
0
 10
134.000000
 20
137.494614
 42
0.001006
  0
VERTEX
  8
0
 10
127.442485
 20
136.852577
 42
0.000868
  0
VERTEX
  8
0
 10
120.556250
 20
136.152286
 42
0.000874
  0
VERTEX
  8
0
 10
114.313386
 20
135.495445
 42
0.002537
  0
VERTEX
  8
0
 10
110.000000
 20
135.011847
 42
-0.010876
  0
VERTEX
  8
0
 10
102.606500
 20
134.307559
 42
-0.016372
  0
VERTEX
  8
0
 10
96.137434
 20
134.045560
 42
-0.010881
  0
VERTEX
  8
0
 10
90.853582
 20
134.119672
 42
-0.250404
  0
VERTEX
  8
0
 10
89.590262
 20
134.853952
 42
-0.199332
  0
VERTEX
  8
0
 10
89.491033
 20
135.468575
 42
-0.010494
  0
VERTEX
  8
0
 10
90.002696
 20
137.436034
 42
-0.015210
  0
VERTEX
  8
0
 10
90.749586
 20
139.801571
 42
-0.010365
  0
VERTEX
  8
0
 10
91.735416
 20
142.444850
 42
0.007814
  0
VERTEX
  8
0
 10
93.272909
 20
146.503931
 42
0.055238
  0
VERTEX
  8
0
 10
93.765466
 20
148.551358
 42
0.101442
  0
VERTEX
  8
0
 10
93.646811
 20
150.100007
 42
0.057754
  0
VERTEX
  8
0
 10
92.922974
 20
151.840898
 42
0.134309
  0
VERTEX
  8
0
 10
90.975422
 20
153.823660
 42
0.105287
  0
VERTEX
  8
0
 10
88.099872
 20
154.768726
 42
0.062968
  0
VERTEX
  8
0
 10
83.839196
 20
154.691870
 42
0.018779
  0
VERTEX
  8
0
 10
77.429683
 20
153.516526
 42
0.045024
  0
VERTEX
  8
0
 10
71.705940
 20
151.689994
 42
0.088043
  0
VERTEX
  8
0
 10
67.699986
 20
149.096679
 42
0.082393
  0
VERTEX
  8
0
 10
64.667561
 20
145.158862
 42
0.035559
  0
VERTEX
  8
0
 10
61.954536
 20
139.095464
 42
-0.014693
  0
VERTEX
  8
0
 10
60.997751
 20
136.693173
 42
-0.016251
  0
VERTEX
  8
0
 10
59.930714
 20
134.431967
 42
-0.015793
  0
VERTEX
  8
0
 10
58.901188
 20
132.569578
 42
-0.076193
  0
VERTEX
  8
0
 10
58.134364
 20
131.637942
 42
-0.113908
  0
VERTEX
  8
0
 10
55.923522
 20
130.420950
 42
-0.017392
  0
VERTEX
  8
0
 10
51.007175
 20
129.209591
 42
-0.020451
  0
VERTEX
  8
0
 10
45.567247
 20
128.298711
 42
-0.031262
  0
VERTEX
  8
0
 10
40.794383
 20
128.000000
 42
0.078441
  0
VERTEX
  8
0
 10
36.069115
 20
127.254104
 42
0.036388
  0
VERTEX
  8
0
 10
30.297804
 20
124.909623
 42
0.036102
  0
VERTEX
  8
0
 10
24.749193
 20
121.652761
 42
0.058882
  0
VERTEX
  8
0
 10
20.652830
 20
118.055742
 42
0.035537
  0
VERTEX
  8
0
 10
17.098556
 20
113.490656
 42
0.065144
  0
VERTEX
  8
0
 10
15.007268
 20
109.273832
 42
0.057020
  0
VERTEX
  8
0
 10
13.911532
 20
104.288999
 42
0.021550
  0
VERTEX
  8
0
 10
13.487639
 20
97.156704
 42
0.000000
  0
VERTEX
  8
0
 10
13.335614
 20
87.813407
 42
0.000000
  0
VERTEX
  8
0
 10
9.917807
 20
85.162322
 42
0.037927
  0
VERTEX
  8
0
 10
4.368899
 20
80.140827
 42
0.087130
  0
VERTEX
  8
0
 10
1.265684
 20
75.461835
 42
0.111381
  0
VERTEX
  8
0
 10
0.364242
 20
70.773281
 42
0.091221
  0
VERTEX
  8
0
 10
1.449808
 20
65.774369
 42
0.081579
  0
VERTEX
  8
0
 10
3.451696
 20
62.571184
 42
0.056708
  0
VERTEX
  8
0
 10
6.619661
 20
59.700960
 42
0.057776
  0
VERTEX
  8
0
 10
10.261730
 20
57.676098
 42
0.098312
  0
VERTEX
  8
0
 10
13.667035
 20
57.000000
 42
-0.048849
  0
VERTEX
  8
0
 10
17.148554
 20
56.659046
 42
-0.078273
  0
VERTEX
  8
0
 10
19.945827
 20
55.633299
 42
-0.072982
  0
VERTEX
  8
0
 10
22.423531
 20
53.736394
 42
-0.037238
  0
VERTEX
  8
0
 10
24.945602
 20
50.725278
 42
0.029101
  0
VERTEX
  8
0
 10
26.411045
 20
48.916742
 42
0.022737
  0
VERTEX
  8
0
 10
28.197398
 20
47.127671
 42
0.023245
  0
VERTEX
  8
0
 10
30.019354
 20
45.611006
 42
0.050733
  0
VERTEX
  8
0
 10
31.570446
 20
44.667797
 42
0.063791
  0
VERTEX
  8
0
 10
35.410904
 20
43.405499
 42
0.012396
  0
VERTEX
  8
0
 10
42.621655
 20
42.202148
 42
0.013886
  0
VERTEX
  8
0
 10
50.511435
 20
41.308413
 42
0.020844
  0
VERTEX
  8
0
 10
57.433182
 20
41.008205
 42
-0.034612
  0
VERTEX
  8
0
 10
60.553495
 20
40.786733
 42
-0.099832
  0
VERTEX
  8
0
 10
62.588491
 20
40.069035
 42
-0.060188
  0
VERTEX
  8
0
 10
64.718194
 20
38.421976
 42
-0.007085
  0
VERTEX
  8
0
 10
68.933182
 20
34.145021
 42
0.042396
  0
VERTEX
  8
0
 10
76.779872
 20
27.233399
 42
0.073377
  0
VERTEX
  8
0
 10
84.430091
 20
23.144087
 42
0.073221
  0
VERTEX
  8
0
 10
92.946858
 20
21.433429
 42
0.042043
  0
VERTEX
  8
0
 10
103.435427
 20
21.769162
 42
0.029135
  0
VERTEX
  8
0
 10
109.661776
 20
22.865469
 42
0.058057
  0
VERTEX
  8
0
 10
114.358831
 20
24.572188
 42
0.049156
  0
VERTEX
  8
0
 10
119.012292
 20
27.507490
 42
0.015802
  0
VERTEX
  8
0
 10
125.302277
 20
32.726171
 42
-0.014656
  0
VERTEX
  8
0
 10
126.919266
 20
34.074022
 42
-0.014095
  0
VERTEX
  8
0
 10
128.633216
 20
35.343142
 42
-0.014170
  0
VERTEX
  8
0
 10
130.205838
 20
36.375372
 42
-0.048573
  0
VERTEX
  8
0
 10
131.302277
 20
36.912382
 42
-0.096473
  0
VERTEX
  8
0
 10
134.955866
 20
37.524561
 42
-0.000979
  0
VERTEX
  8
0
 10
161.272941
 20
36.779701
 42
-0.000866
  0
VERTEX
  8
0
 10
187.761644
 20
35.932176
 42
-0.110906
  0
VERTEX
  8
0
 10
190.928329
 20
35.107964
 42
-0.132999
  0
VERTEX
  8
0
 10
191.630621
 20
34.466731
 42
-0.014910
  0
VERTEX
  8
0
 10
192.746240
 20
32.590959
 42
-0.017266
  0
VERTEX
  8
0
 10
193.951965
 20
30.230238
 42
-0.013202
  0
VERTEX
  8
0
 10
195.111223
 20
27.572293
 42
0.035059
  0
VERTEX
  8
0
 10
197.840697
 20
21.992716
 42
0.034562
  0
VERTEX
  8
0
 10
201.334523
 20
16.821124
 42
0.033779
  0
VERTEX
  8
0
 10
205.589574
 20
12.073866
 42
0.030398
  0
VERTEX
  8
0
 10
210.590495
 20
7.760536
 42
0.056219
  0
VERTEX
  8
0
 10
217.829717
 20
3.434766
 42
0.059889
  0
VERTEX
  8
0
 10
225.699872
 20
0.942714
 42
0.056133
  0
VERTEX
  8
0
 10
234.371361
 20
0.292234
 42
0.040684
  0
VERTEX
  8
0
 10
243.996127
 20
1.439084
 42
0.018642
  0
VERTEX
  8
0
 10
250.548890
 20
3.023207
 42
0.041078
  0
VERTEX
  8
0
 10
255.372047
 20
4.819889
 42
0.044704
  0
VERTEX
  8
0
 10
259.581585
 20
7.275290
 42
0.026301
  0
VERTEX
  8
0
 10
264.151796
 20
10.895931
 42
0.035806
  0
VERTEX
  8
0
 10
268.227376
 20
15.043513
 42
0.028650
  0
VERTEX
  8
0
 10
272.008383
 20
20.040201
 42
0.026673
  0
VERTEX
  8
0
 10
275.449270
 20
25.817614
 42
0.021984
  0
VERTEX
  8
0
 10
278.503934
 20
32.308383
 42
-0.016124
  0
VERTEX
  8
0
 10
279.725976
 20
34.986045
 42
-0.019725
  0
VERTEX
  8
0
 10
281.044781
 20
37.401014
 42
-0.018578
  0
VERTEX
  8
0
 10
282.290509
 20
39.317258
 42
-0.116982
  0
VERTEX
  8
0
 10
283.157496
 20
40.084289
 42
-0.069080
  0
VERTEX
  8
0
 10
284.211513
 20
40.473168
 42
-0.014873
  0
VERTEX
  8
0
 10
286.128432
 20
40.833430
 42
-0.015259
  0
VERTEX
  8
0
 10
288.392104
 20
41.119049
 42
-0.014041
  0
VERTEX
  8
0
 10
290.732664
 20
41.275906
 42
-0.017923
  0
VERTEX
  8
0
 10
293.928929
 20
41.285477
 42
-0.054262
  0
VERTEX
  8
0
 10
296.080252
 20
40.979536
 42
-0.064001
  0
VERTEX
  8
0
 10
297.914718
 20
40.252122
 42
-0.032820
  0
VERTEX
  8
0
 10
300.000000
 20
38.912720
 42
0.036268
  0
VERTEX
  8
0
 10
305.237913
 20
35.599084
 42
0.043723
  0
VERTEX
  8
0
 10
310.590117
 20
33.309856
 42
0.043546
  0
VERTEX
  8
0
 10
316.277255
 20
31.979799
 42
0.035502
  0
VERTEX
  8
0
 10
322.516077
 20
31.531523
 42
0.031903
  0
VERTEX
  8
0
 10
330.503713
 20
32.035649
 42
0.055055
  0
VERTEX
  8
0
 10
336.970129
 20
33.596262
 42
0.058935
  0
VERTEX
  8
0
 10
342.635536
 20
36.435330
 42
0.042954
  0
VERTEX
  8
0
 10
348.170192
 20
40.803423
 42
-0.031118
  0
VERTEX
  8
0
 10
350.496140
 20
42.730073
 42
-0.068661
  0
VERTEX
  8
0
 10
352.524361
 20
43.818309
 42
-0.051342
  0
VERTEX
  8
0
 10
355.119271
 20
44.488518
 42
-0.011420
  0
VERTEX
  8
0
 10
359.670192
 20
45.071099
 42
-0.007437
  0
VERTEX
  8
0
 10
363.217205
 20
45.389793
 42
-0.004500
  0
VERTEX
  8
0
 10
367.425352
 20
45.666814
 42
-0.004507
  0
VERTEX
  8
0
 10
371.609589
 20
45.866648
 42
-0.007898
  0
VERTEX
  8
0
 10
375.075686
 20
45.946082
 42
-0.029207
  0
VERTEX
  8
0
 10
380.696543
 20
45.657593
 42
-0.127541
  0
VERTEX
  8
0
 10
383.783287
 20
44.483776
 42
-0.105745
  0
VERTEX
  8
0
 10
386.210087
 20
41.841888
 42
-0.016991
  0
VERTEX
  8
0
 10
389.574389
 20
35.658657
 42
0.046981
  0
VERTEX
  8
0
 10
392.623785
 20
30.775466
 42
0.035805
  0
VERTEX
  8
0
 10
396.800366
 20
26.048768
 42
0.035686
  0
VERTEX
  8
0
 10
401.628094
 20
21.947748
 42
0.045533
  0
VERTEX
  8
0
 10
406.628691
 20
18.937702
 42
0.036896
  0
VERTEX
  8
0
 10
409.073817
 20
17.969352
 42
0.017042
  0
VERTEX
  8
0
 10
412.373216
 20
17.058905
 42
0.015971
  0
VERTEX
  8
0
 10
416.122124
 20
16.286371
 42
0.015026
  0
VERTEX
  8
0
 10
419.989583
 20
15.736485
 42
0.009696
  0
VERTEX
  8
0
 10
425.177855
 20
15.258888
 42
0.037684
  0
VERTEX
  8
0
 10
428.401992
 20
15.268334
 42
0.044024
  0
VERTEX
  8
0
 10
431.334986
 20
15.760494
 42
0.016754
  0
VERTEX
  8
0
 10
435.314622
 20
16.938310
 42
0.037428
  0
VERTEX
  8
0
 10
440.900406
 20
19.274123
 42
0.039066
  0
VERTEX
  8
0
 10
445.991649
 20
22.388486
 42
0.040181
  0
VERTEX
  8
0
 10
450.404341
 20
26.161392
 42
0.045141
  0
VERTEX
  8
0
 10
453.970678
 20
30.457382
 42
0.036232
  0
VERTEX
  8
0
 10
456.357642
 20
34.529342
 42
0.009834
  0
VERTEX
  8
0
 10
459.527295
 20
41.295308
 42
0.006552
  0
VERTEX
  8
0
 10
462.491960
 20
48.204388
 42
0.098374
  0
VERTEX
  8
0
 10
463.000000
 20
50.761599
 42
-0.206816
  0
VERTEX
  8
0
 10
463.659434
 20
52.287659
 42
-0.074778
  0
VERTEX
  8
0
 10
465.642733
 20
53.661327
 42
-0.054991
  0
VERTEX
  8
0
 10
468.671427
 20
54.755250
 42
-0.031567
  0
VERTEX
  8
0
 10
472.500000
 20
55.426735
 42
0.015214
  0
VERTEX
  8
0
 10
480.473194
 20
56.557931
 42
0.022376
  0
VERTEX
  8
0
 10
487.383848
 20
58.075051
 42
0.024952
  0
VERTEX
  8
0
 10
492.859233
 20
59.833461
 42
0.084920
  0
VERTEX
  8
0
 10
496.080414
 20
61.721118
 42
0.039261
  0
VERTEX
  8
0
 10
498.673312
 20
64.275864
 42
0.071820
  0
VERTEX
  8
0
 10
500.274297
 20
66.768490
 42
0.064155
  0
VERTEX
  8
0
 10
501.210884
 20
69.802593
 42
0.025769
  0
VERTEX
  8
0
 10
501.730497
 20
74.121191
 42
0.018375
  0
VERTEX
  8
0
 10
501.828214
 20
77.225136
 42
0.053262
  0
VERTEX
  8
0
 10
501.589043
 20
79.357466
 42
0.062118
  0
VERTEX
  8
0
 10
500.931640
 20
81.203003
 42
0.032500
  0
VERTEX
  8
0
 10
499.693983
 20
83.309288
 42
-0.047932
  0
VERTEX
  8
0
 10
498.355381
 20
85.757012
 42
-0.060308
  0
VERTEX
  8
0
 10
497.631491
 20
88.235348
 42
-0.032453
  0
VERTEX
  8
0
 10
497.275774
 20
91.822934
 42
-0.004991
  0
VERTEX
  8
0
 10
497.104028
 20
98.987927
 42
0.034889
  0
VERTEX
  8
0
 10
496.031620
 20
111.765160
 42
0.092153
  0
VERTEX
  8
0
 10
493.006259
 20
120.392518
 42
0.095269
  0
VERTEX
  8
0
 10
487.152491
 20
127.188864
 42
0.038981
  0
VERTEX
  8
0
 10
477.000000
 20
134.014274
 42
-0.000207
  0
VERTEX
  8
0
 10
473.877400
 20
135.778918
 42
-0.000196
  0
VERTEX
  8
0
 10
470.697068
 20
137.579573
 42
-0.000194
  0
VERTEX
  8
0
 10
467.882480
 20
139.176053
 42
-0.000686
  0
VERTEX
  8
0
 10
466.075125
 20
140.205425
 42
-0.009961
  0
VERTEX
  8
0
 10
460.399245
 20
143.600144
 42
-0.011491
  0
VERTEX
  8
0
 10
455.131553
 20
147.065845
 42
-0.012394
  0
VERTEX
  8
0
 10
450.470991
 20
150.461711
 42
-0.019214
  0
VERTEX
  8
0
 10
446.641846
 20
153.640757
 42
0.008134
  0
VERTEX
  8
0
 10
444.718494
 20
155.310914
 42
0.011732
  0
VERTEX
  8
0
 10
442.959899
 20
156.719472
 42
0.007571
  0
VERTEX
  8
0
 10
441.457443
 20
157.830474
 42
0.156657
  0
VERTEX
  8
0
 10
440.929646
 20
158.000000
 42
-0.161040
  0
VERTEX
  8
0
 10
440.387946
 20
158.179117
 42
-0.005575
  0
VERTEX
  8
0
 10
438.594275
 20
159.542188
 42
-0.009909
  0
VERTEX
  8
0
 10
436.500240
 20
161.238312
 42
-0.006705
  0
VERTEX
  8
0
 10
434.178746
 20
163.250000
 42
0.022331
  0
VERTEX
  8
0
 10
422.942436
 20
172.388110
 42
0.027351
  0
VERTEX
  8
0
 10
411.647845
 20
179.843546
 42
0.028926
  0
VERTEX
  8
0
 10
400.198675
 20
185.672473
 42
0.031763
  0
VERTEX
  8
0
 10
388.500000
 20
189.937151
 42
0.018125
  0
VERTEX
  8
0
 10
377.849015
 20
192.654764
 42
0.018955
  0
VERTEX
  8
0
 10
367.186479
 20
194.547336
 42
0.015616
  0
VERTEX
  8
0
 10
354.770379
 20
195.875078
 42
0.007141
  0
VERTEX
  8
0
 10
338.500000
 20
196.869139
 42
0.008019
  0
VERTEX
  8
0
 10
316.775061
 20
197.536332
 42
0.003527
  0
VERTEX
  8
0
 10
288.009731
 20
197.755247
 42
0.002803
  0
VERTEX
  8
0
 10
260.260722
 20
197.615125
 42
0.021251
  0
SEQEND
  0
ENDSEC
  0
EOF
