  0
SECTION
  2
HEADER
  9
$ACADVER
  1
AC1006
  9
$EXTMIN
 10
0.000000
 20
0.000000
 30
0.000000
  9
$EXTMAX
 10
139.000000
 20
211.000000
 30
0.000000
  0
ENDSEC
  0
SECTION
  2
ENTITIES
  0
POLYLINE
  8
0
 66
1
 70
1
  0
VERTEX
  8
0
 10
57.500000
 20
210.159858
 42
0.052754
  0
VERTEX
  8
0
 10
53.107967
 20
209.089746
 42
0.038119
  0
VERTEX
  8
0
 10
48.504047
 20
207.030436
 42
0.036946
  0
VERTEX
  8
0
 10
44.099944
 20
204.203439
 42
0.040437
  0
VERTEX
  8
0
 10
40.300681
 20
200.835113
 42
0.098545
  0
VERTEX
  8
0
 10
35.208144
 20
192.857854
 42
0.101907
  0
VERTEX
  8
0
 10
33.638335
 20
183.635177
 42
0.102760
  0
VERTEX
  8
0
 10
35.841817
 20
174.604313
 42
0.101886
  0
VERTEX
  8
0
 10
41.463270
 20
167.166393
 42
-0.035434
  0
VERTEX
  8
0
 10
42.924429
 20
165.687674
 42
-0.025074
  0
VERTEX
  8
0
 10
44.353092
 20
163.840953
 42
-0.025432
  0
VERTEX
  8
0
 10
45.545325
 20
161.928527
 42
-0.047801
  0
VERTEX
  8
0
 10
46.272185
 20
160.261073
 42
0.028300
  0
VERTEX
  8
0
 10
47.024944
 20
158.332482
 42
0.087830
  0
VERTEX
  8
0
 10
47.814999
 20
157.187333
 42
0.110056
  0
VERTEX
  8
0
 10
48.839828
 20
156.526929
 42
0.059820
  0
VERTEX
  8
0
 10
50.304081
 20
156.178359
 42
-0.057563
  0
VERTEX
  8
0
 10
51.572930
 20
155.882331
 42
-0.067273
  0
VERTEX
  8
0
 10
52.670131
 20
155.313139
 42
-0.068728
  0
VERTEX
  8
0
 10
53.558690
 20
154.485141
 42
-0.064062
  0
VERTEX
  8
0
 10
54.214596
 20
153.428359
 42
0.050076
  0
VERTEX
  8
0
 10
54.755752
 20
152.499638
 42
0.052617
  0
VERTEX
  8
0
 10
55.462926
 20
151.713866
 42
0.058502
  0
VERTEX
  8
0
 10
56.221241
 20
151.177078
 42
0.125722
  0
VERTEX
  8
0
 10
56.910515
 20
151.001822
 42
-0.197603
  0
VERTEX
  8
0
 10
57.686711
 20
150.683640
 42
-0.147578
  0
VERTEX
  8
0
 10
58.133577
 20
149.862813
 42
-0.056566
  0
VERTEX
  8
0
 10
58.285283
 20
148.227240
 42
-0.008968
  0
VERTEX
  8
0
 10
58.161179
 20
145.001822
 42
-0.009883
  0
VERTEX
  8
0
 10
57.910547
 20
141.717245
 42
-0.063987
  0
VERTEX
  8
0
 10
57.542832
 20
140.101144
 42
-0.154277
  0
VERTEX
  8
0
 10
56.926009
 20
139.302534
 42
-0.152923
  0
VERTEX
  8
0
 10
55.959969
 20
139.000000
 42
0.056668
  0
VERTEX
  8
0
 10
52.938484
 20
138.656451
 42
0.013680
  0
VERTEX
  8
0
 10
48.057699
 20
137.390461
 42
0.014712
  0
VERTEX
  8
0
 10
43.074505
 20
135.791076
 42
0.032122
  0
VERTEX
  8
0
 10
39.387768
 20
134.213998
 42
-0.030493
  0
VERTEX
  8
0
 10
37.519706
 20
133.407694
 42
-0.035734
  0
VERTEX
  8
0
 10
35.662828
 20
132.883648
 42
-0.038399
  0
VERTEX
  8
0
 10
33.881845
 20
132.656480
 42
-0.049984
  0
VERTEX
  8
0
 10
32.240841
 20
132.738234
 42
0.069106
  0
VERTEX
  8
0
 10
29.578571
 20
132.769306
 42
0.131915
  0
VERTEX
  8
0
 10
27.612819
 20
131.964405
 42
0.143351
  0
VERTEX
  8
0
 10
26.417204
 20
130.341974
 42
0.087805
  0
VERTEX
  8
0
 10
26.000000
 20
127.984544
 42
-0.049624
  0
VERTEX
  8
0
 10
25.889582
 20
126.874737
 42
-0.055829
  0
VERTEX
  8
0
 10
25.562709
 20
125.853869
 42
-0.063498
  0
VERTEX
  8
0
 10
25.078648
 20
125.061222
 42
-0.133108
  0
VERTEX
  8
0
 10
24.500000
 20
124.638374
 42
0.081035
  0
VERTEX
  8
0
 10
23.926585
 20
124.303843
 42
0.065663
  0
VERTEX
  8
0
 10
23.440625
 20
123.782009
 42
0.066520
  0
VERTEX
  8
0
 10
23.112085
 20
123.159833
 42
0.088478
  0
VERTEX
  8
0
 10
23.000000
 20
122.531385
 42
-0.086176
  0
VERTEX
  8
0
 10
22.898462
 20
121.946622
 42
-0.093960
  0
VERTEX
  8
0
 10
22.606574
 20
121.449844
 42
-0.100286
  0
VERTEX
  8
0
 10
22.171578
 20
121.117577
 42
-0.113584
  0
VERTEX
  8
0
 10
21.660678
 20
121.000000
 42
0.232328
  0
VERTEX
  8
0
 10
18.236357
 20
119.318086
 42
0.020991
  0
VERTEX
  8
0
 10
12.566361
 20
111.303393
 42
0.026939
  0
VERTEX
  8
0
 10
7.101623
 20
101.756132
 42
0.035611
  0
VERTEX
  8
0
 10
3.248455
 20
92.509088
 42
0.016801
  0
VERTEX
  8
0
 10
1.779770
 20
87.587810
 42
0.033276
  0
VERTEX
  8
0
 10
1.011113
 20
83.588767
 42
0.025160
  0
VERTEX
  8
0
 10
0.665201
 20
78.862366
 42
0.006044
  0
VERTEX
  8
0
 10
0.581392
 20
71.000000
 42
0.006935
  0
VERTEX
  8
0
 10
0.684404
 20
64.267297
 42
0.015641
  0
VERTEX
  8
0
 10
0.992616
 20
59.174785
 42
0.020219
  0
VERTEX
  8
0
 10
1.537377
 20
55.076837
 42
0.028746
  0
VERTEX
  8
0
 10
2.375128
 20
51.500000
 42
0.018791
  0
VERTEX
  8
0
 10
4.010784
 20
46.647635
 42
0.010680
  0
VERTEX
  8
0
 10
6.332391
 20
40.902875
 42
0.006203
  0
VERTEX
  8
0
 10
8.743623
 20
35.471717
 42
0.115430
  0
VERTEX
  8
0
 10
9.885997
 20
34.000000
 42
-0.076422
  0
VERTEX
  8
0
 10
10.206614
 20
33.647003
 42
-0.009581
  0
VERTEX
  8
0
 10
10.762045
 20
32.772118
 42
-0.011089
  0
VERTEX
  8
0
 10
11.382664
 20
31.698966
 42
-0.008990
  0
VERTEX
  8
0
 10
12.001594
 20
30.522103
 42
0.068864
  0
VERTEX
  8
0
 10
14.808782
 20
26.451218
 42
0.013927
  0
VERTEX
  8
0
 10
20.930677
 20
20.125928
 42
0.015292
  0
VERTEX
  8
0
 10
27.565010
 20
14.027864
 42
0.042060
  0
VERTEX
  8
0
 10
32.701699
 20
10.293211
 42
0.079280
  0
VERTEX
  8
0
 10
51.135434
 20
2.794380
 42
0.068501
  0
VERTEX
  8
0
 10
71.961910
 20
0.886847
 42
0.068681
  0
VERTEX
  8
0
 10
92.476503
 20
4.674949
 42
0.080550
  0
VERTEX
  8
0
 10
110.000000
 20
13.808919
 42
0.066936
  0
VERTEX
  8
0
 10
123.025846
 20
26.564639
 42
0.061716
  0
VERTEX
  8
0
 10
132.642820
 20
42.647296
 42
0.062960
  0
VERTEX
  8
0
 10
137.896398
 20
60.258985
 42
0.075929
  0
VERTEX
  8
0
 10
138.113294
 20
77.504968
 42
0.033900
  0
VERTEX
  8
0
 10
135.735569
 20
88.840215
 42
0.034342
  0
VERTEX
  8
0
 10
131.855088
 20
99.699566
 42
0.035628
  0
VERTEX
  8
0
 10
126.703327
 20
109.521134
 42
0.044530
  0
VERTEX
  8
0
 10
120.530534
 20
117.754815
 42
-0.019035
  0
VERTEX
  8
0
 10
118.796072
 20
119.838264
 42
-0.022726
  0
VERTEX
  8
0
 10
117.330844
 20
121.931417
 42
-0.022271
  0
VERTEX
  8
0
 10
116.271481
 20
123.778405
 42
-0.119620
  0
VERTEX
  8
0
 10
116.000000
 20
124.896929
 42
0.042720
  0
VERTEX
  8
0
 10
115.931084
 20
125.702061
 42
0.062387
  0
VERTEX
  8
0
 10
115.724116
 20
126.382223
 42
0.081897
  0
VERTEX
  8
0
 10
115.419904
 20
126.843090
 42
0.208947
  0
VERTEX
  8
0
 10
115.060820
 20
127.000000
 42
-0.146727
  0
VERTEX
  8
0
 10
114.493309
 20
127.170202
 42
-0.009714
  0
VERTEX
  8
0
 10
113.072652
 20
128.146668
 42
-0.013383
  0
VERTEX
  8
0
 10
111.407541
 20
129.408205
 42
-0.009573
  0
VERTEX
  8
0
 10
109.611439
 20
130.903550
 42
0.024800
  0
VERTEX
  8
0
 10
107.423546
 20
132.615056
 42
0.030578
  0
VERTEX
  8
0
 10
105.219958
 20
133.975518
 42
0.033479
  0
VERTEX
  8
0
 10
103.071669
 20
134.947884
 42
0.047719
  0
VERTEX
  8
0
 10
101.050620
 20
135.491448
 42
-0.022524
  0
VERTEX
  8
0
 10
99.498676
 20
135.826142
 42
-0.034069
  0
VERTEX
  8
0
 10
98.189870
 20
136.267958
 42
-0.036615
  0
VERTEX
  8
0
 10
97.242738
 20
136.745343
 42
-0.263542
  0
VERTEX
  8
0
 10
97.000000
 20
137.173886
 42
0.304450
  0
VERTEX
  8
0
 10
96.754289
 20
137.540015
 42
0.050693
  0
VERTEX
  8
0
 10
95.898438
 20
137.792953
 42
0.040953
  0
VERTEX
  8
0
 10
94.687283
 20
137.919614
 42
0.025031
  0
VERTEX
  8
0
 10
93.250000
 20
137.879773
 42
-0.022917
  0
VERTEX
  8
0
 10
91.508617
 20
137.824138
 42
-0.012193
  0
VERTEX
  8
0
 10
89.353125
 20
137.906675
 42
-0.012112
  0
VERTEX
  8
0
 10
87.150325
 20
138.098535
 42
-0.018407
  0
VERTEX
  8
0
 10
85.250000
 20
138.381682
 42
0.000000
  0
VERTEX
  8
0
 10
81.000000
 20
139.175796
 42
0.000000
  0
VERTEX
  8
0
 10
81.025798
 20
144.837898
 42
-0.011846
  0
VERTEX
  8
0
 10
81.127821
 20
148.448811
 42
-0.105806
  0
VERTEX
  8
0
 10
81.537848
 20
149.973174
 42
-0.143112
  0
VERTEX
  8
0
 10
82.499090
 20
150.988820
 42
-0.027612
  0
VERTEX
  8
0
 10
84.775798
 20
152.155091
 42
-0.006531
  0
VERTEX
  8
0
 10
86.366581
 20
152.837319
 42
-0.005511
  0
VERTEX
  8
0
 10
88.066953
 20
153.518548
 42
-0.005564
  0
VERTEX
  8
0
 10
89.631910
 20
154.105645
 42
-0.015378
  0
VERTEX
  8
0
 10
90.750000
 20
154.472479
 42
0.070646
  0
VERTEX
  8
0
 10
91.857331
 20
154.976745
 42
0.125650
  0
VERTEX
  8
0
 10
92.537895
 20
155.703743
 42
0.095948
  0
VERTEX
  8
0
 10
92.894819
 20
156.813707
 42
0.029962
  0
VERTEX
  8
0
 10
93.000000
 20
158.567388
 42
-0.022535
  0
VERTEX
  8
0
 10
93.059323
 20
159.882950
 42
-0.036107
  0
VERTEX
  8
0
 10
93.240875
 20
160.991670
 42
-0.041095
  0
VERTEX
  8
0
 10
93.502127
 20
161.788998
 42
-0.301687
  0
VERTEX
  8
0
 10
93.820001
 20
162.000000
 42
0.181932
  0
VERTEX
  8
0
 10
95.691132
 20
162.704144
 42
0.015840
  0
VERTEX
  8
0
 10
99.469313
 20
166.234722
 42
0.021637
  0
VERTEX
  8
0
 10
103.079408
 20
170.154311
 42
0.055244
  0
VERTEX
  8
0
 10
105.227223
 20
173.357446
 42
0.125470
  0
VERTEX
  8
0
 10
107.414263
 20
182.670110
 42
0.098469
  0
VERTEX
  8
0
 10
105.190808
 20
192.838529
 42
0.091912
  0
VERTEX
  8
0
 10
99.020346
 20
201.957543
 42
0.092331
  0
VERTEX
  8
0
 10
90.000000
 20
208.241379
 42
0.081040
  0
VERTEX
  8
0
 10
85.423833
 20
209.471456
 42
0.010477
  0
VERTEX
  8
0
 10
75.289429
 20
210.283067
 42
0.012980
  0
VERTEX
  8
0
 10
64.872895
 20
210.626961
 42
0.035171
  0
SEQEND
  0
POLYLINE
  8
0
 66
1
 70
1
  0
VERTEX
  8
0
 10
81.218945
 20
196.955994
 42
-0.057312
  0
VERTEX
  8
0
 10
84.519484
 20
195.617012
 42
-0.043359
  0
VERTEX
  8
0
 10
87.778464
 20
193.451141
 42
-0.043678
  0
VERTEX
  8
0
 10
90.586256
 20
190.779674
 42
-0.061508
  0
VERTEX
  8
0
 10
92.535917
 20
187.930544
 42
-0.071873
  0
VERTEX
  8
0
 10
93.570219
 20
184.947453
 42
-0.048295
  0
VERTEX
  8
0
 10
93.908415
 20
181.350118
 42
-0.048760
  0
VERTEX
  8
0
 10
93.552273
 20
177.808464
 42
-0.080586
  0
VERTEX
  8
0
 10
92.500000
 20
175.000000
 42
0.000000
  0
VERTEX
  8
0
 10
91.070871
 20
172.500000
 42
0.000000
  0
VERTEX
  8
0
 10
91.035435
 20
175.115141
 42
0.187501
  0
VERTEX
  8
0
 10
89.106657
 20
179.885261
 42
0.104287
  0
VERTEX
  8
0
 10
83.885315
 20
183.519257
 42
0.074916
  0
VERTEX
  8
0
 10
75.896139
 20
185.564800
 42
0.044545
  0
VERTEX
  8
0
 10
66.053068
 20
185.683611
 42
0.027705
  0
VERTEX
  8
0
 10
58.062646
 20
184.619802
 42
0.084180
  0
VERTEX
  8
0
 10
52.942836
 20
182.717695
 42
0.132799
  0
VERTEX
  8
0
 10
50.061246
 20
179.822627
 42
0.126598
  0
VERTEX
  8
0
 10
48.964565
 20
175.815741
 42
0.000000
  0
VERTEX
  8
0
 10
48.929129
 20
173.500000
 42
0.000000
  0
VERTEX
  8
0
 10
47.500000
 20
176.000000
 42
-0.135658
  0
VERTEX
  8
0
 10
45.913016
 20
182.224344
 42
-0.126866
  0
VERTEX
  8
0
 10
47.682674
 20
188.559234
 42
-0.112823
  0
VERTEX
  8
0
 10
52.555588
 20
193.795346
 42
-0.091811
  0
VERTEX
  8
0
 10
59.589293
 20
196.881786
 42
-0.039254
  0
VERTEX
  8
0
 10
64.381952
 20
197.615599
 42
-0.017510
  0
VERTEX
  8
0
 10
70.766325
 20
197.861186
 42
-0.017122
  0
VERTEX
  8
0
 10
77.016865
 20
197.668551
 42
-0.051508
  0
SEQEND
  0
POLYLINE
  8
0
 66
1
 70
1
  0
VERTEX
  8
0
 10
63.683114
 20
158.812500
 42
-0.054073
  0
VERTEX
  8
0
 10
63.461564
 20
158.395823
 42
-0.470617
  0
VERTEX
  8
0
 10
63.279315
 20
158.378580
 42
-0.168741
  0
VERTEX
  8
0
 10
63.137993
 20
158.670344
 42
-0.018894
  0
VERTEX
  8
0
 10
63.078947
 20
159.416667
 42
-0.028489
  0
VERTEX
  8
0
 10
63.089945
 20
160.112848
 42
-0.077125
  0
VERTEX
  8
0
 10
63.200665
 20
160.592839
 42
-0.208169
  0
VERTEX
  8
0
 10
63.385309
 20
160.775380
 42
-0.296942
  0
VERTEX
  8
0
 10
63.604167
 20
160.729167
 42
-0.126455
  0
VERTEX
  8
0
 10
63.797407
 20
160.402231
 42
-0.060344
  0
VERTEX
  8
0
 10
63.876576
 20
159.916927
 42
-0.054150
  0
VERTEX
  8
0
 10
63.839148
 20
159.359369
 42
-0.051402
  0
SEQEND
  0
POLYLINE
  8
0
 66
1
 70
1
  0
VERTEX
  8
0
 10
63.883999
 20
117.750000
 42
-0.010557
  0
VERTEX
  8
0
 10
63.809845
 20
116.219137
 42
-0.038999
  0
VERTEX
  8
0
 10
63.667734
 20
115.262500
 42
-0.338770
  0
VERTEX
  8
0
 10
63.491151
 20
115.116137
 42
-0.352052
  0
VERTEX
  8
0
 10
63.310674
 20
115.250000
 42
0.185859
  0
VERTEX
  8
0
 10
62.540935
 20
116.321085
 42
0.094487
  0
VERTEX
  8
0
 10
60.984866
 20
116.963849
 42
0.124055
  0
VERTEX
  8
0
 10
59.568681
 20
116.902147
 42
0.331502
  0
VERTEX
  8
0
 10
59.000000
 20
116.138672
 42
-0.292220
  0
VERTEX
  8
0
 10
58.812080
 20
115.844590
 42
-0.073315
  0
VERTEX
  8
0
 10
58.240067
 20
115.675629
 42
-0.051886
  0
VERTEX
  8
0
 10
57.404568
 20
115.644565
 42
-0.030601
  0
VERTEX
  8
0
 10
56.412993
 20
115.771882
 42
0.025744
  0
VERTEX
  8
0
 10
54.968030
 20
115.971688
 42
0.198624
  0
VERTEX
  8
0
 10
54.330344
 20
115.770078
 42
0.223877
  0
VERTEX
  8
0
 10
54.065226
 20
115.194960
 42
0.033017
  0
VERTEX
  8
0
 10
54.163205
 20
113.883210
 42
0.058943
  0
VERTEX
  8
0
 10
54.497857
 20
112.616631
 42
0.175800
  0
VERTEX
  8
0
 10
55.082901
 20
111.955088
 42
0.118785
  0
VERTEX
  8
0
 10
56.118687
 20
111.677125
 42
0.020722
  0
VERTEX
  8
0
 10
58.155657
 20
111.709145
 42
-0.030109
  0
VERTEX
  8
0
 10
60.252442
 20
111.702762
 42
-0.120288
  0
VERTEX
  8
0
 10
61.469656
 20
111.322669
 42
-0.118291
  0
VERTEX
  8
0
 10
62.385799
 20
110.420732
 42
-0.028672
  0
VERTEX
  8
0
 10
63.412574
 20
108.542994
 42
-0.071710
  0
VERTEX
  8
0
 10
64.429371
 20
105.254701
 42
-0.132473
  0
VERTEX
  8
0
 10
64.133558
 20
102.492749
 42
-0.168703
  0
VERTEX
  8
0
 10
62.593157
 20
100.680050
 42
-0.133833
  0
VERTEX
  8
0
 10
60.097993
 20
100.000000
 42
-0.052162
  0
VERTEX
  8
0
 10
58.561781
 20
100.160700
 42
-0.100394
  0
VERTEX
  8
0
 10
57.430725
 20
100.650378
 42
-0.089656
  0
VERTEX
  8
0
 10
56.499665
 20
101.585411
 42
-0.035439
  0
VERTEX
  8
0
 10
55.573242
 20
103.153638
 42
-0.020592
  0
VERTEX
  8
0
 10
54.971029
 20
104.496522
 42
-0.018888
  0
VERTEX
  8
0
 10
54.462140
 20
105.923264
 42
-0.019278
  0
VERTEX
  8
0
 10
54.105577
 20
107.230469
 42
-0.056996
  0
VERTEX
  8
0
 10
54.000000
 20
108.153638
 42
0.085720
  0
VERTEX
  8
0
 10
53.864760
 20
108.936691
 42
0.122609
  0
VERTEX
  8
0
 10
53.476618
 20
109.521383
 42
0.115441
  0
VERTEX
  8
0
 10
52.839356
 20
109.878583
 42
0.070372
  0
VERTEX
  8
0
 10
51.980948
 20
110.000000
 42
-0.055229
  0
VERTEX
  8
0
 10
50.965444
 20
110.112515
 42
-0.214546
  0
VERTEX
  8
0
 10
50.471253
 20
110.483063
 42
-0.160435
  0
VERTEX
  8
0
 10
50.338847
 20
111.184481
 42
-0.028588
  0
VERTEX
  8
0
 10
50.592615
 20
112.512986
 42
0.049602
  0
VERTEX
  8
0
 10
50.749750
 20
113.575819
 42
0.044367
  0
VERTEX
  8
0
 10
50.704011
 20
114.690288
 42
0.046985
  0
VERTEX
  8
0
 10
50.476703
 20
115.689893
 42
0.094083
  0
VERTEX
  8
0
 10
50.086144
 20
116.396203
 42
-0.229217
  0
VERTEX
  8
0
 10
49.818246
 20
117.481180
 42
-0.223910
  0
VERTEX
  8
0
 10
50.500162
 20
118.379819
 42
-0.057109
  0
VERTEX
  8
0
 10
52.746298
 20
119.243321
 42
-0.006602
  0
VERTEX
  8
0
 10
58.000000
 20
120.527447
 42
0.000723
  0
VERTEX
  8
0
 10
60.126157
 20
121.020713
 42
0.001125
  0
VERTEX
  8
0
 10
61.957812
 20
121.452799
 42
0.000312
  0
VERTEX
  8
0
 10
63.552651
 20
121.833861
 42
0.038478
  0
VERTEX
  8
0
 10
63.750000
 20
121.897529
 42
-0.518056
  0
VERTEX
  8
0
 10
63.847836
 20
121.835236
 42
-0.003886
  0
VERTEX
  8
0
 10
63.892487
 20
120.721462
 42
-0.009442
  0
VERTEX
  8
0
 10
63.910579
 20
119.372698
 42
-0.005454
  0
SEQEND
  0
POLYLINE
  8
0
 66
1
 70
1
  0
VERTEX
  8
0
 10
84.000000
 20
119.587317
 42
-0.010347
  0
VERTEX
  8
0
 10
88.277848
 20
118.270459
 42
-0.048941
  0
VERTEX
  8
0
 10
90.620685
 20
117.232285
 42
-0.173375
  0
VERTEX
  8
0
 10
91.373673
 20
116.360711
 42
-0.361185
  0
VERTEX
  8
0
 10
91.106763
 20
115.565983
 42
0.107614
  0
VERTEX
  8
0
 10
90.673768
 20
115.147817
 42
0.046605
  0
VERTEX
  8
0
 10
90.291036
 20
114.439295
 42
0.043222
  0
VERTEX
  8
0
 10
90.010277
 20
113.579838
 42
0.044143
  0
VERTEX
  8
0
 10
89.883999
 20
112.690983
 42
-0.005163
  0
VERTEX
  8
0
 10
89.811325
 20
111.542991
 42
-0.213559
  0
VERTEX
  8
0
 10
89.696170
 20
111.329337
 42
-0.524627
  0
VERTEX
  8
0
 10
89.557626
 20
111.373816
 42
-0.009556
  0
VERTEX
  8
0
 10
89.310674
 20
112.250000
 42
0.095520
  0
VERTEX
  8
0
 10
88.990924
 20
112.918626
 42
0.075402
  0
VERTEX
  8
0
 10
88.421729
 20
113.485938
 42
0.073873
  0
VERTEX
  8
0
 10
87.697252
 20
113.868413
 42
0.084769
  0
VERTEX
  8
0
 10
86.926676
 20
114.000000
 42
-0.048143
  0
VERTEX
  8
0
 10
86.189325
 20
114.071162
 42
-0.068141
  0
VERTEX
  8
0
 10
85.565961
 20
114.283632
 42
-0.088322
  0
VERTEX
  8
0
 10
85.145960
 20
114.596835
 42
-0.190727
  0
VERTEX
  8
0
 10
85.000000
 20
114.965557
 42
0.295374
  0
VERTEX
  8
0
 10
84.732778
 20
115.378437
 42
0.026767
  0
VERTEX
  8
0
 10
83.531250
 20
115.842319
 42
0.027942
  0
VERTEX
  8
0
 10
81.916224
 20
116.270316
 42
0.017827
  0
VERTEX
  8
0
 10
80.000000
 20
116.594388
 42
-0.012832
  0
VERTEX
  8
0
 10
77.127358
 20
117.050746
 42
-0.093282
  0
VERTEX
  8
0
 10
75.830597
 20
117.552570
 42
-0.178529
  0
VERTEX
  8
0
 10
75.209736
 20
118.348917
 42
-0.077370
  0
VERTEX
  8
0
 10
75.000000
 20
119.696218
 42
-0.035589
  0
VERTEX
  8
0
 10
75.083428
 20
120.866819
 42
-0.148384
  0
VERTEX
  8
0
 10
75.379267
 20
121.500282
 42
-0.205010
  0
VERTEX
  8
0
 10
75.911792
 20
121.747639
 42
-0.075886
  0
VERTEX
  8
0
 10
76.750000
 20
121.645674
 42
-0.000866
  0
VERTEX
  8
0
 10
77.751448
 20
121.363911
 42
-0.000159
  0
VERTEX
  8
0
 10
79.601562
 20
120.839277
 42
-0.000171
  0
VERTEX
  8
0
 10
81.765989
 20
120.223974
 42
-0.000155
  0
SEQEND
  0
POLYLINE
  8
0
 66
1
 70
1
  0
VERTEX
  8
0
 10
81.000000
 20
112.000000
 42
0.154765
  0
VERTEX
  8
0
 10
81.120948
 20
111.618614
 42
0.097780
  0
VERTEX
  8
0
 10
81.461607
 20
111.293750
 42
0.080164
  0
VERTEX
  8
0
 10
81.970550
 20
111.074515
 42
0.061768
  0
VERTEX
  8
0
 10
82.571429
 20
111.000000
 42
-0.073062
  0
VERTEX
  8
0
 10
83.277707
 20
110.896242
 42
-0.038685
  0
VERTEX
  8
0
 10
84.104983
 20
110.576267
 42
-0.037484
  0
VERTEX
  8
0
 10
84.917549
 20
110.109595
 42
-0.047321
  0
VERTEX
  8
0
 10
85.585352
 20
109.557506
 42
-0.085907
  0
VERTEX
  8
0
 10
86.253355
 20
108.609843
 42
-0.142978
  0
VERTEX
  8
0
 10
86.406458
 20
107.652488
 42
-0.076366
  0
VERTEX
  8
0
 10
86.036172
 20
106.354461
 42
-0.012541
  0
VERTEX
  8
0
 10
84.884946
 20
104.003767
 42
-0.018898
  0
VERTEX
  8
0
 10
83.572738
 20
101.702767
 42
-0.097437
  0
VERTEX
  8
0
 10
82.577514
 20
100.635173
 42
-0.133493
  0
VERTEX
  8
0
 10
81.410336
 20
100.194792
 42
-0.048134
  0
VERTEX
  8
0
 10
79.621023
 20
100.196261
 42
-0.046145
  0
VERTEX
  8
0
 10
77.722566
 20
100.559875
 42
-0.204928
  0
VERTEX
  8
0
 10
76.862528
 20
101.263534
 42
-0.101250
  0
VERTEX
  8
0
 10
76.456503
 20
102.680851
 42
-0.007398
  0
VERTEX
  8
0
 10
76.202283
 20
106.750000
 42
-0.006136
  0
VERTEX
  8
0
 10
76.059679
 20
110.785048
 42
-0.092414
  0
VERTEX
  8
0
 10
76.284296
 20
112.165920
 42
-0.243288
  0
VERTEX
  8
0
 10
76.965080
 20
112.797518
 42
-0.067762
  0
VERTEX
  8
0
 10
78.452283
 20
113.000000
 42
-0.037396
  0
VERTEX
  8
0
 10
79.427954
 20
112.926925
 42
-0.056188
  0
VERTEX
  8
0
 10
80.251608
 20
112.706250
 42
-0.073753
  0
VERTEX
  8
0
 10
80.814423
 20
112.383054
 42
-0.229477
  0
SEQEND
  0
POLYLINE
  8
0
 66
1
 70
1
  0
VERTEX
  8
0
 10
107.704500
 20
103.621744
 42
-0.018255
  0
VERTEX
  8
0
 10
108.880365
 20
101.993330
 42
-0.028624
  0
VERTEX
  8
0
 10
109.755665
 20
100.505105
 42
-0.027872
  0
VERTEX
  8
0
 10
110.295489
 20
99.292056
 42
-0.295249
  0
VERTEX
  8
0
 10
110.187253
 20
98.787253
 42
-0.212501
  0
VERTEX
  8
0
 10
109.010366
 20
98.335346
 42
-0.071849
  0
VERTEX
  8
0
 10
107.167919
 20
98.700394
 42
-0.073185
  0
VERTEX
  8
0
 10
105.536076
 20
99.560677
 42
-0.239299
  0
VERTEX
  8
0
 10
105.000000
 20
100.616631
 42
0.143115
  0
VERTEX
  8
0
 10
104.845846
 20
101.144167
 42
0.099595
  0
VERTEX
  8
0
 10
104.412500
 20
101.593635
 42
0.084175
  0
VERTEX
  8
0
 10
103.764490
 20
101.896468
 42
0.067406
  0
VERTEX
  8
0
 10
103.000000
 20
102.000000
 42
-0.072254
  0
VERTEX
  8
0
 10
102.126841
 20
102.126841
 42
-0.124864
  0
VERTEX
  8
0
 10
101.500000
 20
102.500000
 42
-0.124864
  0
VERTEX
  8
0
 10
101.126841
 20
103.126841
 42
-0.072254
  0
VERTEX
  8
0
 10
101.000000
 20
104.000000
 42
0.067406
  0
VERTEX
  8
0
 10
100.896468
 20
104.764490
 42
0.084175
  0
VERTEX
  8
0
 10
100.593635
 20
105.412500
 42
0.099595
  0
VERTEX
  8
0
 10
100.144167
 20
105.845846
 42
0.143115
  0
VERTEX
  8
0
 10
99.616631
 20
106.000000
 42
-0.223113
  0
VERTEX
  8
0
 10
98.684844
 20
106.437570
 42
-0.068063
  0
VERTEX
  8
0
 10
97.840095
 20
107.794571
 42
-0.056186
  0
VERTEX
  8
0
 10
97.233312
 20
109.697750
 42
-0.046533
  0
VERTEX
  8
0
 10
97.013655
 20
111.814854
 42
-0.578613
  0
VERTEX
  8
0
 10
97.858413
 20
112.312188
 42
-0.034237
  0
VERTEX
  8
0
 10
100.936712
 20
110.271334
 42
-0.030086
  0
VERTEX
  8
0
 10
104.597010
 20
107.099356
 42
-0.033685
  0
SEQEND
  0
POLYLINE
  8
0
 66
1
 70
1
  0
VERTEX
  8
0
 10
42.000000
 20
107.308870
 42
-0.150790
  0
VERTEX
  8
0
 10
41.845961
 20
106.809714
 42
-0.098481
  0
VERTEX
  8
0
 10
41.412500
 20
106.384481
 42
-0.081531
  0
VERTEX
  8
0
 10
40.764667
 20
106.097671
 42
-0.063606
  0
VERTEX
  8
0
 10
40.000000
 20
106.000000
 42
0.072314
  0
VERTEX
  8
0
 10
39.230589
 20
105.888136
 42
0.088920
  0
VERTEX
  8
0
 10
38.583333
 20
105.562500
 42
0.102140
  0
VERTEX
  8
0
 10
38.153209
 20
105.075754
 42
0.130775
  0
VERTEX
  8
0
 10
38.000000
 20
104.500000
 42
-0.131972
  0
VERTEX
  8
0
 10
37.843327
 20
103.916754
 42
-0.105076
  0
VERTEX
  8
0
 10
37.405075
 20
103.431199
 42
-0.089435
  0
VERTEX
  8
0
 10
36.737638
 20
103.109795
 42
-0.067699
  0
VERTEX
  8
0
 10
35.930449
 20
103.000000
 42
0.058734
  0
VERTEX
  8
0
 10
34.943554
 20
102.883670
 42
0.170392
  0
VERTEX
  8
0
 10
34.373967
 20
102.516803
 42
0.155275
  0
VERTEX
  8
0
 10
34.127586
 20
101.847977
 42
0.046519
  0
VERTEX
  8
0
 10
34.180449
 20
100.750000
 42
0.156242
  0
VERTEX
  8
0
 10
35.038240
 20
98.979024
 42
0.161719
  0
VERTEX
  8
0
 10
36.753694
 20
98.066008
 42
0.217827
  0
VERTEX
  8
0
 10
38.317319
 20
98.482833
 42
0.223967
  0
VERTEX
  8
0
 10
39.000000
 20
99.930449
 42
-0.039221
  0
VERTEX
  8
0
 10
39.062258
 20
100.722916
 42
-0.058374
  0
VERTEX
  8
0
 10
39.249916
 20
101.392069
 42
-0.076760
  0
VERTEX
  8
0
 10
39.525122
 20
101.847816
 42
-0.222130
  0
VERTEX
  8
0
 10
39.850777
 20
102.000000
 42
-0.082689
  0
VERTEX
  8
0
 10
41.998264
 20
101.642410
 42
-0.038129
  0
VERTEX
  8
0
 10
44.608826
 20
100.519478
 42
-0.037650
  0
VERTEX
  8
0
 10
46.950288
 20
99.058963
 42
-0.114236
  0
VERTEX
  8
0
 10
48.166618
 20
97.644816
 42
-0.002652
  0
VERTEX
  8
0
 10
48.919293
 20
96.190369
 42
-0.425193
  0
VERTEX
  8
0
 10
48.865645
 20
96.034669
 42
-0.296235
  0
VERTEX
  8
0
 10
48.667088
 20
96.062871
 42
-0.002042
  0
VERTEX
  8
0
 10
47.316769
 20
97.250000
 42
0.096553
  0
VERTEX
  8
0
 10
44.439361
 20
98.946562
 42
0.323117
  0
VERTEX
  8
0
 10
42.455618
 20
98.365768
 42
0.266344
  0
VERTEX
  8
0
 10
42.131233
 20
96.069235
 42
0.083737
  0
VERTEX
  8
0
 10
44.006343
 20
92.992686
 42
-0.013518
  0
VERTEX
  8
0
 10
44.752914
 20
92.083343
 42
-0.021882
  0
VERTEX
  8
0
 10
45.331505
 20
91.267077
 42
-0.017541
  0
VERTEX
  8
0
 10
45.732543
 20
90.594681
 42
-0.333641
  0
VERTEX
  8
0
 10
45.700114
 20
90.366781
 42
-0.236614
  0
VERTEX
  8
0
 10
45.439134
 20
90.280088
 42
-0.008365
  0
VERTEX
  8
0
 10
44.360782
 20
90.454881
 42
-0.013899
  0
VERTEX
  8
0
 10
43.061582
 20
90.725311
 42
-0.009096
  0
VERTEX
  8
0
 10
41.579617
 20
91.105628
 42
-0.033520
  0
VERTEX
  8
0
 10
39.965714
 20
91.670026
 42
-0.050129
  0
VERTEX
  8
0
 10
38.658282
 20
92.390414
 42
-0.060701
  0
VERTEX
  8
0
 10
37.732074
 20
93.211050
 42
-0.117722
  0
VERTEX
  8
0
 10
37.269215
 20
94.078523
 42
0.088606
  0
VERTEX
  8
0
 10
36.896471
 20
94.885881
 42
0.093798
  0
VERTEX
  8
0
 10
36.273131
 20
95.495743
 42
0.085866
  0
VERTEX
  8
0
 10
35.420860
 20
95.872374
 42
0.061276
  0
VERTEX
  8
0
 10
34.383369
 20
96.000000
 42
-0.049732
  0
VERTEX
  8
0
 10
33.283901
 20
96.109629
 42
-0.122364
  0
VERTEX
  8
0
 10
32.555512
 20
96.454575
 42
-0.143330
  0
VERTEX
  8
0
 10
32.141822
 20
97.058905
 42
-0.079053
  0
VERTEX
  8
0
 10
32.000000
 20
97.950310
 42
0.077763
  0
VERTEX
  8
0
 10
31.872056
 20
98.767984
 42
0.056072
  0
VERTEX
  8
0
 10
31.492869
 20
99.611521
 42
0.055903
  0
VERTEX
  8
0
 10
30.933986
 20
100.352569
 42
0.075827
  0
VERTEX
  8
0
 10
30.273597
 20
100.866764
 42
-0.193096
  0
VERTEX
  8
0
 10
29.655994
 20
101.631915
 42
-0.207095
  0
VERTEX
  8
0
 10
29.761860
 20
102.583313
 42
-0.060023
  0
VERTEX
  8
0
 10
30.874251
 20
104.080062
 42
-0.006590
  0
VERTEX
  8
0
 10
33.865414
 20
107.151128
 42
-0.005304
  0
VERTEX
  8
0
 10
37.242628
 20
110.457440
 42
-0.074403
  0
VERTEX
  8
0
 10
38.625781
 20
111.435828
 42
-0.247612
  0
VERTEX
  8
0
 10
39.598049
 20
111.417990
 42
-0.109338
  0
VERTEX
  8
0
 10
40.591818
 20
110.543545
 42
-0.028678
  0
VERTEX
  8
0
 10
41.130781
 20
109.710104
 42
-0.026530
  0
VERTEX
  8
0
 10
41.586346
 20
108.798965
 42
-0.027508
  0
VERTEX
  8
0
 10
41.903786
 20
107.944208
 42
-0.075289
  0
SEQEND
  0
POLYLINE
  8
0
 66
1
 70
1
  0
VERTEX
  8
0
 10
94.583333
 20
104.000000
 42
-0.105033
  0
VERTEX
  8
0
 10
95.123872
 20
103.885184
 42
-0.099164
  0
VERTEX
  8
0
 10
95.583854
 20
103.559375
 42
-0.096425
  0
VERTEX
  8
0
 10
95.892158
 20
103.072590
 42
-0.093350
  0
VERTEX
  8
0
 10
96.000000
 20
102.500000
 42
0.130775
  0
VERTEX
  8
0
 10
96.153209
 20
101.924246
 42
0.102140
  0
VERTEX
  8
0
 10
96.583333
 20
101.437500
 42
0.088920
  0
VERTEX
  8
0
 10
97.230589
 20
101.111864
 42
0.072314
  0
VERTEX
  8
0
 10
98.000000
 20
101.000000
 42
-0.072314
  0
VERTEX
  8
0
 10
98.769411
 20
100.888136
 42
-0.088920
  0
VERTEX
  8
0
 10
99.416667
 20
100.562500
 42
-0.102140
  0
VERTEX
  8
0
 10
99.846791
 20
100.075754
 42
-0.130775
  0
VERTEX
  8
0
 10
100.000000
 20
99.500000
 42
0.099038
  0
VERTEX
  8
0
 10
100.114514
 20
98.927543
 42
0.097945
  0
VERTEX
  8
0
 10
100.440625
 20
98.440625
 42
0.097945
  0
VERTEX
  8
0
 10
100.927543
 20
98.114514
 42
0.099038
  0
VERTEX
  8
0
 10
101.500000
 20
98.000000
 42
-0.356121
  0
VERTEX
  8
0
 10
102.735046
 20
96.992585
 42
-0.192306
  0
VERTEX
  8
0
 10
102.365923
 20
94.936665
 42
-0.083462
  0
VERTEX
  8
0
 10
99.968411
 20
92.225943
 42
-0.066693
  0
VERTEX
  8
0
 10
96.632286
 20
90.194709
 42
-0.040976
  0
VERTEX
  8
0
 10
94.864892
 20
89.585748
 42
-0.148598
  0
VERTEX
  8
0
 10
93.690516
 20
89.638782
 42
-0.101423
  0
VERTEX
  8
0
 10
92.495678
 20
90.358778
 42
-0.013885
  0
VERTEX
  8
0
 10
90.399317
 20
92.400703
 42
0.000000
  0
VERTEX
  8
0
 10
87.034061
 20
95.865797
 42
0.000000
  0
VERTEX
  8
0
 10
89.761302
 20
100.950085
 42
-0.012719
  0
VERTEX
  8
0
 10
90.832392
 20
102.830443
 42
-0.025704
  0
VERTEX
  8
0
 10
91.787015
 20
104.242065
 42
-0.034998
  0
VERTEX
  8
0
 10
92.523820
 20
105.088989
 42
-0.557357
  0
VERTEX
  8
0
 10
92.827604
 20
105.017187
 42
0.111603
  0
VERTEX
  8
0
 10
93.062879
 20
104.628258
 42
0.069957
  0
VERTEX
  8
0
 10
93.483213
 20
104.298799
 42
0.064737
  0
VERTEX
  8
0
 10
94.016414
 20
104.075996
 42
0.066727
  0
SEQEND
  0
POLYLINE
  8
0
 66
1
 70
1
  0
VERTEX
  8
0
 10
79.681608
 20
94.077738
 42
-0.014801
  0
VERTEX
  8
0
 10
82.755096
 20
92.322928
 42
-0.035453
  0
VERTEX
  8
0
 10
84.891238
 20
90.800292
 42
-0.034460
  0
VERTEX
  8
0
 10
86.825970
 20
88.964982
 42
-0.013299
  0
VERTEX
  8
0
 10
89.256142
 20
86.173275
 42
-0.016103
  0
VERTEX
  8
0
 10
91.359641
 20
83.448766
 42
-0.145557
  0
VERTEX
  8
0
 10
91.850673
 20
82.043621
 42
-0.345601
  0
VERTEX
  8
0
 10
91.292339
 20
81.258886
 42
-0.071847
  0
VERTEX
  8
0
 10
89.500000
 20
81.000000
 42
0.045087
  0
VERTEX
  8
0
 10
88.341179
 20
80.895292
 42
0.117547
  0
VERTEX
  8
0
 10
87.580047
 20
80.560633
 42
0.146213
  0
VERTEX
  8
0
 10
87.149549
 20
79.972871
 42
0.085658
  0
VERTEX
  8
0
 10
87.000000
 20
79.106330
 42
-0.078581
  0
VERTEX
  8
0
 10
86.843447
 20
78.116357
 42
-0.259576
  0
VERTEX
  8
0
 10
86.376801
 20
77.682351
 42
-0.111654
  0
VERTEX
  8
0
 10
85.428145
 20
77.664473
 42
-0.011259
  0
VERTEX
  8
0
 10
83.211514
 20
78.174281
 42
0.032221
  0
VERTEX
  8
0
 10
81.229921
 20
78.543387
 42
0.041747
  0
VERTEX
  8
0
 10
79.383306
 20
78.610431
 42
0.040681
  0
VERTEX
  8
0
 10
77.513830
 20
78.368925
 42
0.028387
  0
VERTEX
  8
0
 10
75.461514
 20
77.808553
 42
-0.036620
  0
VERTEX
  8
0
 10
72.392526
 20
77.024595
 42
-0.054092
  0
VERTEX
  8
0
 10
69.622235
 20
76.833667
 42
-0.075591
  0
VERTEX
  8
0
 10
67.655925
 20
77.212159
 42
-0.317501
  0
VERTEX
  8
0
 10
67.000000
 20
78.140980
 42
0.152720
  0
VERTEX
  8
0
 10
66.642817
 20
79.283108
 42
0.053284
  0
VERTEX
  8
0
 10
65.503640
 20
80.601336
 42
0.053237
  0
VERTEX
  8
0
 10
64.094333
 20
81.662264
 42
0.135550
  0
VERTEX
  8
0
 10
62.871429
 20
82.000000
 42
-0.046340
  0
VERTEX
  8
0
 10
62.287447
 20
82.054240
 42
-0.344233
  0
VERTEX
  8
0
 10
62.114881
 20
82.250000
 42
-0.194180
  0
VERTEX
  8
0
 10
62.225397
 20
82.578934
 42
-0.019422
  0
VERTEX
  8
0
 10
62.800000
 20
83.200000
 42
0.130143
  0
VERTEX
  8
0
 10
63.886937
 20
85.069795
 42
0.137675
  0
VERTEX
  8
0
 10
63.874439
 20
87.189842
 42
0.110100
  0
VERTEX
  8
0
 10
62.694015
 20
89.356561
 42
0.064036
  0
VERTEX
  8
0
 10
60.466702
 20
91.328836
 42
0.000000
  0
VERTEX
  8
0
 10
56.933404
 20
93.729774
 42
0.000000
  0
VERTEX
  8
0
 10
59.716702
 20
94.808797
 42
-0.048374
  0
VERTEX
  8
0
 10
64.887283
 20
96.257431
 42
-0.053324
  0
VERTEX
  8
0
 10
70.071187
 20
96.620614
 42
-0.055051
  0
VERTEX
  8
0
 10
75.066701
 20
95.883021
 42
-0.058216
  0
SEQEND
  0
POLYLINE
  8
0
 66
1
 70
1
  0
VERTEX
  8
0
 10
25.418213
 20
91.393011
 42
-0.093632
  0
VERTEX
  8
0
 10
26.022963
 20
91.019628
 42
-0.066804
  0
VERTEX
  8
0
 10
26.535350
 20
90.408253
 42
-0.064844
  0
VERTEX
  8
0
 10
26.881759
 20
89.662047
 42
-0.076427
  0
VERTEX
  8
0
 10
27.000000
 20
88.893011
 42
0.127717
  0
VERTEX
  8
0
 10
27.252592
 20
87.920270
 42
0.179218
  0
VERTEX
  8
0
 10
27.927849
 20
87.342203
 42
0.077062
  0
VERTEX
  8
0
 10
29.300069
 20
87.064732
 42
0.011425
  0
VERTEX
  8
0
 10
32.132705
 20
87.000000
 42
-0.019295
  0
VERTEX
  8
0
 10
34.797625
 20
86.897122
 42
-0.056282
  0
VERTEX
  8
0
 10
36.602787
 20
86.550672
 42
-0.076039
  0
VERTEX
  8
0
 10
37.963332
 20
85.886989
 42
-0.062761
  0
VERTEX
  8
0
 10
39.166171
 20
84.808403
 42
-0.041743
  0
VERTEX
  8
0
 10
39.853962
 20
83.867082
 42
-0.045760
  0
VERTEX
  8
0
 10
40.351878
 20
82.852220
 42
-0.050850
  0
VERTEX
  8
0
 10
40.604263
 20
81.914996
 42
-0.132733
  0
VERTEX
  8
0
 10
40.533466
 20
81.226616
 42
0.016777
  0
VERTEX
  8
0
 10
40.329249
 20
80.635912
 42
0.015016
  0
VERTEX
  8
0
 10
40.156706
 20
80.010707
 42
0.015245
  0
VERTEX
  8
0
 10
40.035781
 20
79.439887
 42
0.044597
  0
VERTEX
  8
0
 10
40.000000
 20
79.039533
 42
-0.286862
  0
VERTEX
  8
0
 10
39.336942
 20
77.978929
 42
-0.037070
  0
VERTEX
  8
0
 10
36.737197
 20
76.942822
 42
-0.040629
  0
VERTEX
  8
0
 10
33.803339
 20
76.274637
 42
-0.097462
  0
VERTEX
  8
0
 10
31.585598
 20
76.389160
 42
-0.062914
  0
VERTEX
  8
0
 10
30.447149
 20
76.832776
 42
-0.096474
  0
VERTEX
  8
0
 10
29.632924
 20
77.504213
 42
-0.091706
  0
VERTEX
  8
0
 10
29.103764
 20
78.459256
 42
-0.052169
  0
VERTEX
  8
0
 10
28.816187
 20
79.752440
 42
0.047443
  0
VERTEX
  8
0
 10
28.536927
 20
81.066577
 42
0.104048
  0
VERTEX
  8
0
 10
28.035990
 20
81.958874
 42
0.114080
  0
VERTEX
  8
0
 10
27.252287
 20
82.523963
 42
0.064353
  0
VERTEX
  8
0
 10
26.116790
 20
82.837007
 42
0.032507
  0
VERTEX
  8
0
 10
24.829025
 20
82.934402
 42
0.209930
  0
VERTEX
  8
0
 10
24.243411
 20
82.684491
 42
0.206959
  0
VERTEX
  8
0
 10
24.026377
 20
82.081393
 42
0.031551
  0
VERTEX
  8
0
 10
24.190449
 20
80.784063
 42
-0.097330
  0
VERTEX
  8
0
 10
24.181070
 20
78.968439
 42
-0.115596
  0
VERTEX
  8
0
 10
23.468946
 20
77.413159
 42
-0.119571
  0
VERTEX
  8
0
 10
22.163503
 20
76.372034
 42
-0.109236
  0
VERTEX
  8
0
 10
20.480933
 20
76.000000
 42
-0.156134
  0
VERTEX
  8
0
 10
19.709296
 20
76.246979
 42
-0.193528
  0
VERTEX
  8
0
 10
19.306216
 20
76.877319
 42
-0.073427
  0
VERTEX
  8
0
 10
19.255328
 20
78.148445
 42
-0.010568
  0
VERTEX
  8
0
 10
19.587270
 20
80.733388
 42
-0.025827
  0
VERTEX
  8
0
 10
20.302747
 20
84.254056
 42
-0.019176
  0
VERTEX
  8
0
 10
21.439637
 20
88.057166
 42
-0.010661
  0
VERTEX
  8
0
 10
22.695860
 20
91.496996
 42
-0.309151
  0
VERTEX
  8
0
 10
23.431633
 20
92.000000
 42
-0.065948
  0
VERTEX
  8
0
 10
23.673455
 20
91.967965
 42
-0.008281
  0
VERTEX
  8
0
 10
24.182167
 20
91.821697
 42
-0.009621
  0
VERTEX
  8
0
 10
24.782903
 20
91.625431
 42
-0.007847
  0
SEQEND
  0
POLYLINE
  8
0
 66
1
 70
1
  0
VERTEX
  8
0
 10
117.024751
 20
87.434900
 42
-0.017570
  0
VERTEX
  8
0
 10
117.841658
 20
85.035744
 42
-0.129732
  0
VERTEX
  8
0
 10
117.883625
 20
83.838026
 42
-0.261745
  0
VERTEX
  8
0
 10
117.317829
 20
83.212122
 42
-0.081125
  0
VERTEX
  8
0
 10
116.019052
 20
83.000000
 42
-0.092909
  0
VERTEX
  8
0
 10
115.140267
 20
83.164717
 42
-0.096513
  0
VERTEX
  8
0
 10
114.393998
 20
83.635719
 42
-0.085655
  0
VERTEX
  8
0
 10
113.814864
 20
84.406342
 42
-0.056979
  0
VERTEX
  8
0
 10
113.424909
 20
85.443165
 42
-0.079905
  0
VERTEX
  8
0
 10
113.180420
 20
88.264784
 42
-0.253318
  0
VERTEX
  8
0
 10
114.168130
 20
89.808338
 42
-0.342001
  0
VERTEX
  8
0
 10
115.681721
 20
89.573848
 42
-0.098999
  0
SEQEND
  0
POLYLINE
  8
0
 66
1
 70
1
  0
VERTEX
  8
0
 10
108.571429
 20
85.571429
 42
-0.030209
  0
VERTEX
  8
0
 10
109.118147
 20
84.954329
 42
-0.031169
  0
VERTEX
  8
0
 10
109.580357
 20
84.282012
 42
-0.032810
  0
VERTEX
  8
0
 10
109.903807
 20
83.652084
 42
-0.102549
  0
VERTEX
  8
0
 10
110.000000
 20
83.188006
 42
-0.317530
  0
VERTEX
  8
0
 10
109.311274
 20
82.212846
 42
-0.062291
  0
VERTEX
  8
0
 10
107.093230
 20
81.724920
 42
-0.057578
  0
VERTEX
  8
0
 10
104.532463
 20
81.783620
 42
-0.118821
  0
VERTEX
  8
0
 10
102.679664
 20
82.511819
 42
-0.028497
  0
VERTEX
  8
0
 10
101.613228
 20
83.353224
 42
-0.301739
  0
VERTEX
  8
0
 10
101.477859
 20
83.862650
 42
-0.178272
  0
VERTEX
  8
0
 10
101.890474
 20
84.373716
 42
-0.010546
  0
VERTEX
  8
0
 10
103.648796
 20
85.374999
 42
-0.005338
  0
VERTEX
  8
0
 10
106.018132
 20
86.626292
 42
-0.109265
  0
VERTEX
  8
0
 10
106.795750
 20
86.831115
 42
-0.186703
  0
VERTEX
  8
0
 10
107.435717
 20
86.612430
 42
-0.021745
  0
SEQEND
  0
POLYLINE
  8
0
 66
1
 70
1
  0
VERTEX
  8
0
 10
52.450061
 20
77.423178
 42
0.048363
  0
VERTEX
  8
0
 10
53.582248
 20
77.252929
 42
0.049097
  0
VERTEX
  8
0
 10
54.720203
 20
77.304756
 42
0.052755
  0
VERTEX
  8
0
 10
55.738790
 20
77.563805
 42
0.084769
  0
VERTEX
  8
0
 10
56.512986
 20
78.010777
 42
-0.021231
  0
VERTEX
  8
0
 10
57.241823
 20
78.565150
 42
-0.142160
  0
VERTEX
  8
0
 10
57.668659
 20
78.709155
 42
-0.322913
  0
VERTEX
  8
0
 10
57.912676
 20
78.548680
 42
-0.091349
  0
VERTEX
  8
0
 10
58.000000
 20
78.074696
 42
0.126632
  0
VERTEX
  8
0
 10
58.153096
 20
77.479899
 42
0.028423
  0
VERTEX
  8
0
 10
58.714081
 20
76.586459
 42
0.027733
  0
VERTEX
  8
0
 10
59.500376
 20
75.599993
 42
0.023748
  0
VERTEX
  8
0
 10
60.430912
 20
74.651609
 42
-0.041770
  0
VERTEX
  8
0
 10
61.414762
 20
73.573885
 42
-0.027853
  0
VERTEX
  8
0
 10
62.360143
 20
72.194129
 42
-0.028065
  0
VERTEX
  8
0
 10
63.132408
 20
70.742447
 42
-0.048130
  0
VERTEX
  8
0
 10
63.584885
 20
69.449358
 42
0.026523
  0
VERTEX
  8
0
 10
63.942331
 20
68.266444
 42
0.028050
  0
VERTEX
  8
0
 10
64.417504
 20
67.150559
 42
0.029159
  0
VERTEX
  8
0
 10
64.933415
 20
66.243109
 42
0.101600
  0
VERTEX
  8
0
 10
65.403972
 20
65.765313
 42
-0.210943
  0
VERTEX
  8
0
 10
65.581236
 20
65.485368
 42
-0.315429
  0
VERTEX
  8
0
 10
65.456843
 20
65.235812
 42
-0.095362
  0
VERTEX
  8
0
 10
64.906771
 20
65.061346
 42
-0.026516
  0
VERTEX
  8
0
 10
64.000000
 20
65.003267
 42
0.097125
  0
VERTEX
  8
0
 10
61.223396
 20
64.427154
 42
0.026800
  0
VERTEX
  8
0
 10
57.193906
 20
62.471659
 42
0.027225
  0
VERTEX
  8
0
 10
53.372226
 20
60.076514
 42
0.086592
  0
VERTEX
  8
0
 10
51.251916
 20
57.949273
 42
-0.029255
  0
VERTEX
  8
0
 10
50.661420
 20
57.203178
 42
-0.034322
  0
VERTEX
  8
0
 10
50.016533
 20
56.572599
 42
-0.036698
  0
VERTEX
  8
0
 10
49.409461
 20
56.127923
 42
-0.140626
  0
VERTEX
  8
0
 10
48.963620
 20
56.000000
 42
-0.274569
  0
VERTEX
  8
0
 10
47.606887
 20
56.805781
 42
-0.026253
  0
VERTEX
  8
0
 10
45.876402
 20
60.420968
 42
-0.031176
  0
VERTEX
  8
0
 10
44.364757
 20
64.811084
 42
-0.036262
  0
VERTEX
  8
0
 10
43.501734
 20
69.139824
 42
-0.020001
  0
VERTEX
  8
0
 10
43.237997
 20
72.260940
 42
-0.045870
  0
VERTEX
  8
0
 10
43.349619
 20
74.615473
 42
-0.047385
  0
VERTEX
  8
0
 10
43.884856
 20
76.863431
 42
-0.022677
  0
VERTEX
  8
0
 10
44.969750
 20
79.629376
 42
0.000000
  0
VERTEX
  8
0
 10
47.139806
 20
84.500000
 42
0.000000
  0
VERTEX
  8
0
 10
48.506978
 20
81.284845
 42
0.044570
  0
VERTEX
  8
0
 10
49.252134
 20
79.891659
 42
0.053954
  0
VERTEX
  8
0
 10
50.192946
 20
78.747152
 42
0.058734
  0
VERTEX
  8
0
 10
51.277798
 20
77.909299
 42
0.073732
  0
SEQEND
  0
POLYLINE
  8
0
 66
1
 70
1
  0
VERTEX
  8
0
 10
119.819551
 20
76.171672
 42
-0.049806
  0
VERTEX
  8
0
 10
119.867607
 20
75.140419
 42
-0.149787
  0
VERTEX
  8
0
 10
119.628458
 20
74.485932
 42
-0.166791
  0
VERTEX
  8
0
 10
119.084397
 20
74.119626
 42
-0.065600
  0
VERTEX
  8
0
 10
118.176540
 20
74.000000
 42
-0.145730
  0
VERTEX
  8
0
 10
116.678489
 20
74.446095
 42
-0.138625
  0
VERTEX
  8
0
 10
115.633515
 20
75.646085
 42
-0.162949
  0
VERTEX
  8
0
 10
115.464993
 20
77.068786
 42
-0.202906
  0
VERTEX
  8
0
 10
116.216130
 20
78.153794
 42
-0.087884
  0
VERTEX
  8
0
 10
117.520232
 20
78.689200
 42
-0.181233
  0
VERTEX
  8
0
 10
118.595644
 20
78.532909
 42
-0.163155
  0
VERTEX
  8
0
 10
119.379409
 20
77.682163
 42
-0.068830
  0
SEQEND
  0
POLYLINE
  8
0
 66
1
 70
1
  0
VERTEX
  8
0
 10
109.500000
 20
75.000000
 42
-0.023180
  0
VERTEX
  8
0
 10
108.624391
 20
74.670913
 42
-0.018093
  0
VERTEX
  8
0
 10
107.646875
 20
74.393028
 42
-0.018434
  0
VERTEX
  8
0
 10
106.715952
 20
74.200514
 42
-0.041790
  0
VERTEX
  8
0
 10
106.000000
 20
74.140571
 42
-0.055166
  0
VERTEX
  8
0
 10
105.497353
 20
74.196198
 42
-0.507108
  0
VERTEX
  8
0
 10
105.422706
 20
74.367142
 42
-0.145150
  0
VERTEX
  8
0
 10
105.696484
 20
74.625069
 42
-0.015364
  0
VERTEX
  8
0
 10
106.500000
 20
75.000000
 42
-0.023180
  0
VERTEX
  8
0
 10
107.375609
 20
75.329087
 42
-0.018093
  0
VERTEX
  8
0
 10
108.353125
 20
75.606972
 42
-0.018434
  0
VERTEX
  8
0
 10
109.284048
 20
75.799486
 42
-0.041790
  0
VERTEX
  8
0
 10
110.000000
 20
75.859429
 42
-0.055166
  0
VERTEX
  8
0
 10
110.502647
 20
75.803802
 42
-0.507108
  0
VERTEX
  8
0
 10
110.577294
 20
75.632858
 42
-0.145150
  0
VERTEX
  8
0
 10
110.303516
 20
75.374931
 42
-0.015364
  0
SEQEND
  0
POLYLINE
  8
0
 66
1
 70
1
  0
VERTEX
  8
0
 10
95.000000
 20
68.627118
 42
-0.079832
  0
VERTEX
  8
0
 10
94.563430
 20
65.910224
 42
-0.022168
  0
VERTEX
  8
0
 10
93.026361
 20
61.863256
 42
-0.021340
  0
VERTEX
  8
0
 10
91.158815
 20
57.996954
 42
-0.096654
  0
VERTEX
  8
0
 10
89.581382
 20
56.067541
 42
-0.054327
  0
VERTEX
  8
0
 10
88.801205
 20
55.551724
 42
-0.195266
  0
VERTEX
  8
0
 10
88.218387
 20
55.499157
 42
-0.162185
  0
VERTEX
  8
0
 10
87.693609
 20
55.871666
 42
-0.035147
  0
VERTEX
  8
0
 10
87.093364
 20
56.825549
 42
0.101951
  0
VERTEX
  8
0
 10
85.299045
 20
58.979348
 42
0.021835
  0
VERTEX
  8
0
 10
81.344892
 20
61.858355
 42
0.020601
  0
VERTEX
  8
0
 10
77.180072
 20
64.380277
 42
0.126488
  0
VERTEX
  8
0
 10
74.769538
 20
65.000000
 42
-0.141933
  0
VERTEX
  8
0
 10
73.595355
 20
65.340162
 42
-0.555318
  0
VERTEX
  8
0
 10
73.599569
 20
65.941931
 42
-0.076420
  0
VERTEX
  8
0
 10
75.587490
 20
66.776366
 42
-0.027171
  0
VERTEX
  8
0
 10
78.621811
 20
67.361642
 42
0.014668
  0
VERTEX
  8
0
 10
80.493196
 20
67.674311
 42
0.017088
  0
VERTEX
  8
0
 10
82.249094
 20
68.083695
 42
0.016243
  0
VERTEX
  8
0
 10
83.699318
 20
68.525496
 42
0.091386
  0
VERTEX
  8
0
 10
84.403128
 20
68.919603
 42
-0.081502
  0
VERTEX
  8
0
 10
85.054160
 20
69.301124
 42
-0.021077
  0
VERTEX
  8
0
 10
86.210410
 20
69.691090
 42
-0.020873
  0
VERTEX
  8
0
 10
87.584600
 20
70.029416
 42
-0.019909
  0
VERTEX
  8
0
 10
89.004015
 20
70.258258
 42
0.000234
  0
VERTEX
  8
0
 10
90.434121
 20
70.431431
 42
0.000247
  0
VERTEX
  8
0
 10
91.840242
 20
70.603072
 42
0.000236
  0
VERTEX
  8
0
 10
93.053279
 20
70.752332
 42
0.001109
  0
VERTEX
  8
0
 10
93.750000
 20
70.839963
 42
-0.191651
  0
VERTEX
  8
0
 10
94.228947
 20
70.716967
 42
-0.107035
  0
VERTEX
  8
0
 10
94.635165
 20
70.260721
 42
-0.078298
  0
VERTEX
  8
0
 10
94.908728
 20
69.529331
 42
-0.050454
  0
SEQEND
  0
POLYLINE
  8
0
 66
1
 70
1
  0
VERTEX
  8
0
 10
37.418213
 20
66.393011
 42
-0.107100
  0
VERTEX
  8
0
 10
38.023191
 20
65.996826
 42
-0.066507
  0
VERTEX
  8
0
 10
38.535350
 20
65.315784
 42
-0.062096
  0
VERTEX
  8
0
 10
38.881951
 20
64.467632
 42
-0.066074
  0
VERTEX
  8
0
 10
39.000000
 20
63.578223
 42
-0.203352
  0
VERTEX
  8
0
 10
38.094807
 20
61.444579
 42
-0.082110
  0
VERTEX
  8
0
 10
35.439855
 20
59.610717
 42
-0.071889
  0
VERTEX
  8
0
 10
31.902179
 20
58.527629
 42
-0.084956
  0
VERTEX
  8
0
 10
28.407457
 20
58.583339
 42
0.016220
  0
VERTEX
  8
0
 10
26.459677
 20
58.883713
 42
0.132864
  0
VERTEX
  8
0
 10
25.577787
 20
58.756186
 42
0.234361
  0
VERTEX
  8
0
 10
25.136783
 20
58.235355
 42
0.060619
  0
VERTEX
  8
0
 10
25.000000
 20
57.111291
 42
0.045404
  0
VERTEX
  8
0
 10
25.073537
 20
56.303147
 42
0.065305
  0
VERTEX
  8
0
 10
25.293750
 20
55.620192
 42
0.085299
  0
VERTEX
  8
0
 10
25.617918
 20
55.158865
 42
0.199610
  0
VERTEX
  8
0
 10
26.000000
 20
55.000000
 42
-0.295895
  0
VERTEX
  8
0
 10
26.931578
 20
54.395802
 42
-0.186596
  0
VERTEX
  8
0
 10
27.000133
 20
53.055441
 42
-0.118663
  0
VERTEX
  8
0
 10
26.063436
 20
51.541506
 42
-0.148994
  0
VERTEX
  8
0
 10
24.610417
 20
50.776356
 42
-0.063721
  0
VERTEX
  8
0
 10
23.307734
 20
50.695992
 42
-0.169280
  0
VERTEX
  8
0
 10
22.461182
 20
51.054943
 42
-0.114788
  0
VERTEX
  8
0
 10
21.822615
 20
51.976807
 42
-0.022097
  0
VERTEX
  8
0
 10
21.153952
 20
53.909779
 42
-0.011600
  0
VERTEX
  8
0
 10
20.696641
 20
55.590552
 42
-0.006099
  0
VERTEX
  8
0
 10
20.202509
 20
57.698511
 42
-0.006064
  0
VERTEX
  8
0
 10
19.748638
 20
59.871282
 42
-0.009282
  0
VERTEX
  8
0
 10
19.413169
 20
61.766002
 42
-0.006712
  0
VERTEX
  8
0
 10
19.011264
 20
64.552358
 42
-0.150123
  0
VERTEX
  8
0
 10
19.146202
 20
65.347062
 42
-0.345443
  0
VERTEX
  8
0
 10
19.663431
 20
65.590163
 42
-0.031598
  0
VERTEX
  8
0
 10
21.119633
 20
65.157155
 42
-0.067095
  0
VERTEX
  8
0
 10
22.053774
 20
64.663455
 42
-0.055170
  0
VERTEX
  8
0
 10
22.894635
 20
63.910330
 42
-0.057049
  0
VERTEX
  8
0
 10
23.521544
 20
63.025064
 42
-0.088746
  0
VERTEX
  8
0
 10
23.819551
 20
62.141154
 42
0.069723
  0
VERTEX
  8
0
 10
24.083459
 20
61.248219
 42
0.096192
  0
VERTEX
  8
0
 10
24.566941
 20
60.568670
 42
0.102284
  0
VERTEX
  8
0
 10
25.244094
 20
60.147182
 42
0.088454
  0
VERTEX
  8
0
 10
26.069551
 20
60.000000
 42
0.087046
  0
VERTEX
  8
0
 10
26.992612
 20
60.161924
 42
0.161076
  0
VERTEX
  8
0
 10
27.584533
 20
60.627719
 42
0.113919
  0
VERTEX
  8
0
 10
27.906349
 20
61.488402
 42
0.032750
  0
VERTEX
  8
0
 10
28.000000
 20
62.916667
 42
-0.039935
  0
VERTEX
  8
0
 10
28.092263
 20
64.069992
 42
-0.047701
  0
VERTEX
  8
0
 10
28.367188
 20
65.124726
 42
-0.054536
  0
VERTEX
  8
0
 10
28.769889
 20
65.939005
 42
-0.156004
  0
VERTEX
  8
0
 10
29.250000
 20
66.337719
 42
-0.068032
  0
VERTEX
  8
0
 10
30.925434
 20
66.761375
 42
-0.026268
  0
VERTEX
  8
0
 10
33.323273
 20
66.903716
 42
-0.026292
  0
VERTEX
  8
0
 10
35.725544
 20
66.793609
 42
-0.067109
  0
SEQEND
  0
POLYLINE
  8
0
 66
1
 70
1
  0
VERTEX
  8
0
 10
108.000000
 20
64.000000
 42
0.135066
  0
VERTEX
  8
0
 10
108.104927
 20
63.618659
 42
0.100391
  0
VERTEX
  8
0
 10
108.399890
 20
63.293750
 42
0.086936
  0
VERTEX
  8
0
 10
108.841102
 20
63.075086
 42
0.071794
  0
VERTEX
  8
0
 10
109.361328
 20
63.000000
 42
-0.150112
  0
VERTEX
  8
0
 10
109.917994
 20
62.829022
 42
-0.160129
  0
VERTEX
  8
0
 10
110.265536
 20
62.378654
 42
-0.097718
  0
VERTEX
  8
0
 10
110.377818
 20
61.608959
 42
-0.034745
  0
VERTEX
  8
0
 10
110.244751
 20
60.500000
 42
-0.032131
  0
VERTEX
  8
0
 10
109.997121
 20
59.542685
 42
-0.045349
  0
VERTEX
  8
0
 10
109.647725
 20
58.734375
 42
-0.054081
  0
VERTEX
  8
0
 10
109.256048
 20
58.170003
 42
-0.217340
  0
VERTEX
  8
0
 10
108.883423
 20
58.000000
 42
0.166053
  0
VERTEX
  8
0
 10
108.546414
 20
57.884903
 42
0.095371
  0
VERTEX
  8
0
 10
108.259505
 20
57.559375
 42
0.076310
  0
VERTEX
  8
0
 10
108.065576
 20
57.073739
 42
0.056963
  0
VERTEX
  8
0
 10
108.000000
 20
56.500000
 42
-0.095419
  0
VERTEX
  8
0
 10
107.799875
 20
55.460879
 42
-0.336114
  0
VERTEX
  8
0
 10
107.252731
 20
55.131586
 42
-0.086107
  0
VERTEX
  8
0
 10
106.100544
 20
55.461058
 42
-0.005358
  0
VERTEX
  8
0
 10
102.911440
 20
57.045180
 42
-0.031774
  0
VERTEX
  8
0
 10
100.237387
 20
58.630941
 42
-0.089743
  0
VERTEX
  8
0
 10
98.696157
 20
60.148933
 42
-0.132226
  0
VERTEX
  8
0
 10
98.114684
 20
61.736657
 42
-0.114127
  0
VERTEX
  8
0
 10
98.361626
 20
63.500000
 42
-0.261069
  0
VERTEX
  8
0
 10
99.660058
 20
64.579637
 42
-0.032783
  0
VERTEX
  8
0
 10
103.427690
 20
65.023892
 42
-0.033433
  0
VERTEX
  8
0
 10
107.107563
 20
64.968647
 42
-0.390438
  0
SEQEND
  0
POLYLINE
  8
0
 66
1
 70
1
  0
VERTEX
  8
0
 10
118.579821
 20
60.250000
 42
-0.032584
  0
VERTEX
  8
0
 10
117.636483
 20
56.308177
 42
-0.034414
  0
VERTEX
  8
0
 10
116.201667
 20
52.596149
 42
-0.032743
  0
VERTEX
  8
0
 10
114.613816
 20
49.710934
 42
-0.255936
  0
VERTEX
  8
0
 10
113.315901
 20
49.000000
 42
-0.217129
  0
VERTEX
  8
0
 10
112.025104
 20
49.588274
 42
-0.094791
  0
VERTEX
  8
0
 10
111.057757
 20
51.252457
 42
-0.112845
  0
VERTEX
  8
0
 10
110.863491
 20
52.967673
 42
-0.317073
  0
VERTEX
  8
0
 10
111.623166
 20
53.823324
 42
0.076114
  0
VERTEX
  8
0
 10
112.149741
 20
54.035226
 42
0.073042
  0
VERTEX
  8
0
 10
112.597193
 20
54.397320
 42
0.077610
  0
VERTEX
  8
0
 10
112.899716
 20
54.849424
 42
0.107933
  0
VERTEX
  8
0
 10
113.005577
 20
55.323324
 42
-0.043650
  0
VERTEX
  8
0
 10
113.067754
 20
55.997368
 42
-0.007543
  0
VERTEX
  8
0
 10
113.315435
 20
57.255914
 42
-0.008156
  0
VERTEX
  8
0
 10
113.653469
 20
58.728016
 42
-0.007215
  0
VERTEX
  8
0
 10
114.052581
 20
60.250000
 42
-0.026664
  0
VERTEX
  8
0
 10
114.657520
 20
62.050094
 42
-0.078707
  0
VERTEX
  8
0
 10
115.320476
 20
63.169724
 42
-0.116016
  0
VERTEX
  8
0
 10
116.129411
 20
63.782259
 42
-0.104655
  0
VERTEX
  8
0
 10
117.158295
 20
64.000000
 42
-0.069430
  0
VERTEX
  8
0
 10
118.255127
 20
63.846955
 42
-0.237094
  0
VERTEX
  8
0
 10
118.770462
 20
63.373691
 42
-0.119805
  0
VERTEX
  8
0
 10
118.889780
 20
62.415330
 42
-0.013787
  0
SEQEND
  0
POLYLINE
  8
0
 66
1
 70
1
  0
VERTEX
  8
0
 10
63.729167
 20
56.395833
 42
-0.126455
  0
VERTEX
  8
0
 10
63.402231
 20
56.202593
 42
-0.060344
  0
VERTEX
  8
0
 10
62.916927
 20
56.123424
 42
-0.054150
  0
VERTEX
  8
0
 10
62.359369
 20
56.160852
 42
-0.051402
  0
VERTEX
  8
0
 10
61.812500
 20
56.316886
 42
-0.054073
  0
VERTEX
  8
0
 10
61.395823
 20
56.538436
 42
-0.470617
  0
VERTEX
  8
0
 10
61.378580
 20
56.720685
 42
-0.168741
  0
VERTEX
  8
0
 10
61.670344
 20
56.862007
 42
-0.018894
  0
VERTEX
  8
0
 10
62.416667
 20
56.921053
 42
-0.028489
  0
VERTEX
  8
0
 10
63.112848
 20
56.910055
 42
-0.077125
  0
VERTEX
  8
0
 10
63.592839
 20
56.799335
 42
-0.208169
  0
VERTEX
  8
0
 10
63.775380
 20
56.614691
 42
-0.296942
  0
SEQEND
  0
POLYLINE
  8
0
 66
1
 70
1
  0
VERTEX
  8
0
 10
79.374308
 20
53.678995
 42
-0.039779
  0
VERTEX
  8
0
 10
81.522178
 20
51.372092
 42
-0.074042
  0
VERTEX
  8
0
 10
82.794255
 20
49.162586
 42
-0.161832
  0
VERTEX
  8
0
 10
82.874604
 20
47.667365
 42
-0.337950
  0
VERTEX
  8
0
 10
82.000000
 20
47.000000
 42
-0.191087
  0
VERTEX
  8
0
 10
81.618118
 20
47.151477
 42
-0.088204
  0
VERTEX
  8
0
 10
81.293750
 20
47.587500
 42
-0.068025
  0
VERTEX
  8
0
 10
81.073693
 20
48.234582
 42
-0.048028
  0
VERTEX
  8
0
 10
81.000000
 20
49.000000
 42
0.072254
  0
VERTEX
  8
0
 10
80.873159
 20
49.873159
 42
0.124864
  0
VERTEX
  8
0
 10
80.500000
 20
50.500000
 42
0.124864
  0
VERTEX
  8
0
 10
79.873159
 20
50.873159
 42
0.072254
  0
VERTEX
  8
0
 10
79.000000
 20
51.000000
 42
0.197727
  0
VERTEX
  8
0
 10
77.598356
 20
50.423163
 42
0.184372
  0
VERTEX
  8
0
 10
76.956197
 20
49.005467
 42
0.190829
  0
VERTEX
  8
0
 10
77.430487
 20
47.557094
 42
0.205581
  0
VERTEX
  8
0
 10
78.750000
 20
46.883999
 42
-0.002113
  0
VERTEX
  8
0
 10
79.923939
 20
46.801199
 42
-0.392517
  0
VERTEX
  8
0
 10
80.000000
 20
46.719237
 42
-0.339035
  0
VERTEX
  8
0
 10
79.926177
 20
46.622879
 42
-0.001923
  0
VERTEX
  8
0
 10
78.750000
 20
46.310674
 42
0.149498
  0
VERTEX
  8
0
 10
77.878213
 20
45.773284
 42
0.114000
  0
VERTEX
  8
0
 10
77.343110
 20
44.781016
 42
0.055707
  0
VERTEX
  8
0
 10
77.070177
 20
43.048495
 42
0.011238
  0
VERTEX
  8
0
 10
77.000000
 20
39.926676
 42
0.008630
  0
VERTEX
  8
0
 10
77.059086
 20
36.503704
 42
0.072863
  0
VERTEX
  8
0
 10
77.334364
 20
34.990834
 42
0.188881
  0
VERTEX
  8
0
 10
77.940209
 20
34.269826
 42
0.125303
  0
VERTEX
  8
0
 10
79.000000
 20
34.000000
 42
-0.046275
  0
VERTEX
  8
0
 10
79.765503
 20
33.929000
 42
-0.066223
  0
VERTEX
  8
0
 10
80.412500
 20
33.716585
 42
-0.086308
  0
VERTEX
  8
0
 10
80.849156
 20
33.403753
 42
-0.196715
  0
VERTEX
  8
0
 10
81.000000
 20
33.035184
 42
-0.149836
  0
VERTEX
  8
0
 10
80.863792
 20
32.590863
 42
-0.045472
  0
VERTEX
  8
0
 10
80.412500
 20
32.039362
 42
-0.040999
  0
VERTEX
  8
0
 10
79.765421
 20
31.480738
 42
-0.034718
  0
VERTEX
  8
0
 10
79.000000
 20
31.000000
 42
-0.025083
  0
VERTEX
  8
0
 10
77.898060
 20
30.479556
 42
-0.213289
  0
VERTEX
  8
0
 10
77.364195
 20
30.495146
 42
-0.251306
  0
VERTEX
  8
0
 10
77.073103
 20
30.895305
 42
-0.034136
  0
VERTEX
  8
0
 10
77.000000
 20
31.964816
 42
0.069201
  0
VERTEX
  8
0
 10
76.883433
 20
32.803019
 42
0.105271
  0
VERTEX
  8
0
 10
76.541174
 20
33.450708
 42
0.117566
  0
VERTEX
  8
0
 10
75.997608
 20
33.856125
 42
0.102047
  0
VERTEX
  8
0
 10
75.300000
 20
34.000000
 42
-0.028321
  0
VERTEX
  8
0
 10
74.474466
 20
34.046798
 42
-0.272121
  0
VERTEX
  8
0
 10
74.204167
 20
34.250000
 42
-0.273085
  0
VERTEX
  8
0
 10
74.250731
 20
34.584347
 42
-0.028470
  0
VERTEX
  8
0
 10
74.800000
 20
35.200000
 42
0.112953
  0
VERTEX
  8
0
 10
75.731433
 20
36.684186
 42
0.114841
  0
VERTEX
  8
0
 10
75.917166
 20
38.416417
 42
0.104813
  0
VERTEX
  8
0
 10
75.312588
 20
40.177288
 42
0.080953
  0
VERTEX
  8
0
 10
74.000000
 20
41.732028
 42
-0.021075
  0
VERTEX
  8
0
 10
73.234279
 20
42.445717
 42
-0.026133
  0
VERTEX
  8
0
 10
72.587500
 20
43.174056
 42
-0.026010
  0
VERTEX
  8
0
 10
72.120186
 20
43.826027
 42
-0.143443
  0
VERTEX
  8
0
 10
72.000000
 20
44.236337
 42
0.164645
  0
VERTEX
  8
0
 10
71.846251
 20
44.690593
 42
0.013396
  0
VERTEX
  8
0
 10
71.045312
 20
45.682030
 42
0.016880
  0
VERTEX
  8
0
 10
69.994920
 20
46.832264
 42
0.012158
  0
VERTEX
  8
0
 10
68.750000
 20
48.045877
 42
0.000000
  0
VERTEX
  8
0
 10
65.500000
 20
51.063561
 42
0.000000
  0
VERTEX
  8
0
 10
71.000000
 20
50.781781
 42
0.009276
  0
VERTEX
  8
0
 10
74.286219
 20
50.674493
 42
0.085260
  0
VERTEX
  8
0
 10
75.690854
 20
50.895444
 42
0.192736
  0
VERTEX
  8
0
 10
76.423022
 20
51.520871
 42
0.085704
  0
VERTEX
  8
0
 10
76.819551
 20
52.750000
 42
0.046348
  0
VERTEX
  8
0
 10
76.867872
 20
53.746593
 42
0.116249
  0
VERTEX
  8
0
 10
76.671038
 20
54.442516
 42
0.157322
  0
VERTEX
  8
0
 10
76.233150
 20
54.851771
 42
0.110326
  0
VERTEX
  8
0
 10
75.569551
 20
55.000000
 42
-0.061846
  0
VERTEX
  8
0
 10
74.969394
 20
55.074519
 42
-0.080222
  0
VERTEX
  8
0
 10
74.461056
 20
55.293750
 42
-0.097811
  0
VERTEX
  8
0
 10
74.120807
 20
55.618615
 42
-0.154594
  0
VERTEX
  8
0
 10
74.000000
 20
56.000000
 42
-0.267560
  0
VERTEX
  8
0
 10
74.419572
 20
56.727940
 42
-0.237502
  0
VERTEX
  8
0
 10
75.301319
 20
56.779747
 42
-0.068684
  0
VERTEX
  8
0
 10
76.909539
 20
55.805146
 42
-0.014897
  0
SEQEND
  0
POLYLINE
  8
0
 66
1
 70
1
  0
VERTEX
  8
0
 10
47.879603
 20
49.095571
 42
-0.115119
  0
VERTEX
  8
0
 10
48.525384
 20
48.438811
 42
-0.137797
  0
VERTEX
  8
0
 10
48.759206
 20
47.606495
 42
-0.066891
  0
VERTEX
  8
0
 10
48.586827
 20
46.323755
 42
-0.011350
  0
VERTEX
  8
0
 10
47.879603
 20
43.952636
 42
-0.049941
  0
VERTEX
  8
0
 10
46.583546
 20
40.989848
 42
-0.077466
  0
VERTEX
  8
0
 10
44.860932
 20
38.801113
 42
-0.162046
  0
VERTEX
  8
0
 10
43.327972
 20
38.101608
 42
-0.344946
  0
VERTEX
  8
0
 10
42.288097
 20
38.750000
 42
0.117948
  0
VERTEX
  8
0
 10
41.972225
 20
39.228216
 42
0.066887
  0
VERTEX
  8
0
 10
41.403899
 20
39.632812
 42
0.060898
  0
VERTEX
  8
0
 10
40.683438
 20
39.906840
 42
0.060526
  0
VERTEX
  8
0
 10
39.916667
 20
40.000000
 42
-0.138971
  0
VERTEX
  8
0
 10
38.550750
 20
40.387121
 42
-0.335453
  0
VERTEX
  8
0
 10
38.192093
 20
41.308709
 42
-0.100495
  0
VERTEX
  8
0
 10
39.069401
 20
43.008383
 42
-0.014476
  0
VERTEX
  8
0
 10
41.616362
 20
45.997119
 42
-0.007802
  0
VERTEX
  8
0
 10
44.197853
 20
48.766402
 42
-0.086584
  0
VERTEX
  8
0
 10
45.413271
 20
49.656569
 42
-0.191250
  0
VERTEX
  8
0
 10
46.470199
 20
49.742864
 42
-0.067133
  0
SEQEND
  0
POLYLINE
  8
0
 66
1
 70
1
  0
VERTEX
  8
0
 10
96.345630
 20
47.798180
 42
-0.025234
  0
VERTEX
  8
0
 10
99.293636
 20
45.510906
 42
-0.090808
  0
VERTEX
  8
0
 10
100.782823
 20
43.666971
 42
-0.307759
  0
VERTEX
  8
0
 10
100.671819
 20
42.547953
 42
-0.222255
  0
VERTEX
  8
0
 10
99.500000
 20
42.000000
 42
0.099038
  0
VERTEX
  8
0
 10
98.927543
 20
41.885486
 42
0.097945
  0
VERTEX
  8
0
 10
98.440625
 20
41.559375
 42
0.097945
  0
VERTEX
  8
0
 10
98.114514
 20
41.072457
 42
0.099038
  0
VERTEX
  8
0
 10
98.000000
 20
40.500000
 42
-0.099038
  0
VERTEX
  8
0
 10
97.885486
 20
39.927543
 42
-0.097945
  0
VERTEX
  8
0
 10
97.559375
 20
39.440625
 42
-0.097945
  0
VERTEX
  8
0
 10
97.072457
 20
39.114514
 42
-0.099038
  0
VERTEX
  8
0
 10
96.500000
 20
39.000000
 42
0.115601
  0
VERTEX
  8
0
 10
95.926630
 20
38.865641
 42
0.099524
  0
VERTEX
  8
0
 10
95.436127
 20
38.485937
 42
0.092453
  0
VERTEX
  8
0
 10
95.104104
 20
37.918312
 42
0.084232
  0
VERTEX
  8
0
 10
94.984687
 20
37.250000
 42
-0.037791
  0
VERTEX
  8
0
 10
94.931864
 20
36.624842
 42
-0.157676
  0
VERTEX
  8
0
 10
94.762025
 20
36.292650
 42
-0.327951
  0
VERTEX
  8
0
 10
94.519256
 20
36.255562
 42
-0.114236
  0
VERTEX
  8
0
 10
94.234687
 20
36.500000
 42
0.052133
  0
VERTEX
  8
0
 10
93.816780
 20
36.959712
 42
0.018243
  0
VERTEX
  8
0
 10
93.128314
 20
37.530644
 42
0.017888
  0
VERTEX
  8
0
 10
92.319576
 20
38.108118
 42
0.019957
  0
VERTEX
  8
0
 10
91.500000
 20
38.604321
 42
-0.180267
  0
VERTEX
  8
0
 10
89.994401
 20
40.357422
 42
-0.041485
  0
VERTEX
  8
0
 10
88.937001
 20
44.178583
 42
-0.040345
  0
VERTEX
  8
0
 10
88.531106
 20
47.979092
 42
-0.309663
  0
VERTEX
  8
0
 10
89.455672
 20
49.406277
 42
-0.069049
  0
VERTEX
  8
0
 10
91.052151
 20
49.826665
 42
-0.087445
  0
VERTEX
  8
0
 10
92.573043
 20
49.743165
 42
-0.068319
  0
VERTEX
  8
0
 10
94.244701
 20
49.103011
 42
-0.026820
  0
SEQEND
  0
POLYLINE
  8
0
 66
1
 70
1
  0
VERTEX
  8
0
 10
65.000000
 20
41.795596
 42
0.087578
  0
VERTEX
  8
0
 10
65.141617
 20
40.993279
 42
0.076282
  0
VERTEX
  8
0
 10
65.552322
 20
40.244497
 42
0.076523
  0
VERTEX
  8
0
 10
66.167168
 20
39.655308
 42
0.089127
  0
VERTEX
  8
0
 10
66.900757
 20
39.315702
 42
-0.169710
  0
VERTEX
  8
0
 10
68.106048
 20
38.505205
 42
-0.062340
  0
VERTEX
  8
0
 10
69.136294
 20
36.697747
 42
-0.063839
  0
VERTEX
  8
0
 10
69.661910
 20
34.768895
 42
-0.235181
  0
VERTEX
  8
0
 10
69.271824
 20
33.605157
 42
-0.220370
  0
VERTEX
  8
0
 10
68.945859
 20
33.485583
 42
-0.021972
  0
VERTEX
  8
0
 10
68.099815
 20
33.592884
 42
-0.024394
  0
VERTEX
  8
0
 10
67.056112
 20
33.825036
 42
-0.016947
  0
VERTEX
  8
0
 10
65.902475
 20
34.183842
 42
0.027555
  0
VERTEX
  8
0
 10
64.680823
 20
34.535575
 42
0.027781
  0
VERTEX
  8
0
 10
63.431226
 20
34.749678
 42
0.028910
  0
VERTEX
  8
0
 10
62.326278
 20
34.811996
 42
0.091490
  0
VERTEX
  8
0
 10
61.600672
 20
34.677005
 42
-0.084620
  0
VERTEX
  8
0
 10
61.005788
 20
34.557920
 42
-0.278648
  0
VERTEX
  8
0
 10
60.671621
 20
34.746940
 42
-0.162487
  0
VERTEX
  8
0
 10
60.574655
 20
35.250171
 42
-0.031003
  0
VERTEX
  8
0
 10
60.756583
 20
36.177176
 42
0.061198
  0
VERTEX
  8
0
 10
60.868280
 20
37.008665
 42
0.063718
  0
VERTEX
  8
0
 10
60.772515
 20
37.830710
 42
0.070810
  0
VERTEX
  8
0
 10
60.493601
 20
38.519763
 42
0.123425
  0
VERTEX
  8
0
 10
60.066265
 20
38.959046
 42
-0.151151
  0
VERTEX
  8
0
 10
59.538156
 20
39.564599
 42
-0.102606
  0
VERTEX
  8
0
 10
59.343675
 20
40.465275
 42
-0.054645
  0
VERTEX
  8
0
 10
59.483970
 20
41.849409
 42
-0.013210
  0
VERTEX
  8
0
 10
60.024359
 20
44.090462
 42
0.000000
  0
VERTEX
  8
0
 10
61.202985
 20
48.467547
 42
0.000000
  0
VERTEX
  8
0
 10
63.101493
 20
46.122989
 42
-0.036164
  0
VERTEX
  8
0
 10
63.828140
 20
45.079681
 42
-0.030668
  0
VERTEX
  8
0
 10
64.442313
 20
43.884688
 42
-0.031811
  0
VERTEX
  8
0
 10
64.866502
 20
42.722015
 42
-0.071681
  0
SEQEND
  0
POLYLINE
  8
0
 66
1
 70
1
  0
VERTEX
  8
0
 10
34.000000
 20
41.000000
 42
0.072314
  0
VERTEX
  8
0
 10
34.111864
 20
40.230589
 42
0.088920
  0
VERTEX
  8
0
 10
34.437500
 20
39.583333
 42
0.102140
  0
VERTEX
  8
0
 10
34.924246
 20
39.153209
 42
0.130775
  0
VERTEX
  8
0
 10
35.500000
 20
39.000000
 42
-0.099038
  0
VERTEX
  8
0
 10
36.072457
 20
38.885486
 42
-0.097945
  0
VERTEX
  8
0
 10
36.559375
 20
38.559375
 42
-0.097945
  0
VERTEX
  8
0
 10
36.885486
 20
38.072457
 42
-0.099038
  0
VERTEX
  8
0
 10
37.000000
 20
37.500000
 42
0.130775
  0
VERTEX
  8
0
 10
37.153209
 20
36.924246
 42
0.102140
  0
VERTEX
  8
0
 10
37.583333
 20
36.437500
 42
0.088920
  0
VERTEX
  8
0
 10
38.230589
 20
36.111864
 42
0.072314
  0
VERTEX
  8
0
 10
39.000000
 20
36.000000
 42
-0.167597
  0
VERTEX
  8
0
 10
40.247680
 20
35.569697
 42
-0.177057
  0
VERTEX
  8
0
 10
40.930386
 20
34.471264
 42
-0.124151
  0
VERTEX
  8
0
 10
40.862974
 20
32.844726
 42
-0.068968
  0
VERTEX
  8
0
 10
40.037357
 20
31.026205
 42
-0.101301
  0
VERTEX
  8
0
 10
39.425771
 20
30.390177
 42
-0.220836
  0
VERTEX
  8
0
 10
38.773579
 20
30.279312
 42
-0.102731
  0
VERTEX
  8
0
 10
37.899333
 20
30.724566
 42
-0.014932
  0
VERTEX
  8
0
 10
36.371624
 20
32.026205
 42
-0.012394
  0
VERTEX
  8
0
 10
33.301041
 20
34.946476
 42
-0.026730
  0
VERTEX
  8
0
 10
31.120714
 20
37.371817
 42
-0.032892
  0
VERTEX
  8
0
 10
29.845151
 20
39.185100
 42
-0.474644
  0
VERTEX
  8
0
 10
30.073752
 20
39.833333
 42
0.118105
  0
VERTEX
  8
0
 10
30.428097
 20
40.065776
 42
0.067178
  0
VERTEX
  8
0
 10
30.727915
 20
40.484896
 42
0.061144
  0
VERTEX
  8
0
 10
30.930961
 20
41.016799
 42
0.060706
  0
VERTEX
  8
0
 10
31.000000
 20
41.583333
 42
-0.105033
  0
VERTEX
  8
0
 10
31.114816
 20
42.123872
 42
-0.099164
  0
VERTEX
  8
0
 10
31.440625
 20
42.583854
 42
-0.096425
  0
VERTEX
  8
0
 10
31.927410
 20
42.892158
 42
-0.093350
  0
VERTEX
  8
0
 10
32.500000
 20
43.000000
 42
-0.130775
  0
VERTEX
  8
0
 10
33.075754
 20
42.846791
 42
-0.102140
  0
VERTEX
  8
0
 10
33.562500
 20
42.416667
 42
-0.088920
  0
VERTEX
  8
0
 10
33.888136
 20
41.769411
 42
-0.072314
  0
SEQEND
  0
POLYLINE
  8
0
 66
1
 70
1
  0
VERTEX
  8
0
 10
106.853549
 20
39.676462
 42
-0.359710
  0
VERTEX
  8
0
 10
106.858567
 20
37.315991
 42
-0.034704
  0
VERTEX
  8
0
 10
102.619528
 20
32.836736
 42
-0.034750
  0
VERTEX
  8
0
 10
97.804989
 20
28.990215
 42
-0.362204
  0
VERTEX
  8
0
 10
95.464303
 20
29.202364
 42
-0.252474
  0
VERTEX
  8
0
 10
95.134821
 20
30.303317
 42
-0.075442
  0
VERTEX
  8
0
 10
95.763902
 20
32.003308
 42
-0.072432
  0
VERTEX
  8
0
 10
96.903788
 20
33.503897
 42
-0.196614
  0
VERTEX
  8
0
 10
98.116631
 20
34.000000
 42
0.078143
  0
VERTEX
  8
0
 10
98.836097
 20
34.113134
 42
0.090403
  0
VERTEX
  8
0
 10
99.446760
 20
34.440625
 42
0.100781
  0
VERTEX
  8
0
 10
99.855006
 20
34.927933
 42
0.124756
  0
VERTEX
  8
0
 10
100.000000
 20
35.500000
 42
-0.099038
  0
VERTEX
  8
0
 10
100.114514
 20
36.072457
 42
-0.097945
  0
VERTEX
  8
0
 10
100.440625
 20
36.559375
 42
-0.097945
  0
VERTEX
  8
0
 10
100.927543
 20
36.885486
 42
-0.099038
  0
VERTEX
  8
0
 10
101.500000
 20
37.000000
 42
0.130775
  0
VERTEX
  8
0
 10
102.075754
 20
37.153209
 42
0.102140
  0
VERTEX
  8
0
 10
102.562500
 20
37.583333
 42
0.088920
  0
VERTEX
  8
0
 10
102.888136
 20
38.230589
 42
0.072314
  0
VERTEX
  8
0
 10
103.000000
 20
39.000000
 42
-0.138751
  0
VERTEX
  8
0
 10
103.365599
 20
40.292101
 42
-0.214591
  0
VERTEX
  8
0
 10
104.309822
 20
40.933298
 42
-0.171830
  0
VERTEX
  8
0
 10
105.599884
 20
40.716409
 42
-0.093060
  0
SEQEND
  0
POLYLINE
  8
0
 66
1
 70
1
  0
VERTEX
  8
0
 10
56.000000
 20
35.940983
 42
-0.047867
  0
VERTEX
  8
0
 10
55.928459
 20
35.195401
 42
-0.104212
  0
VERTEX
  8
0
 10
55.706250
 20
34.668350
 42
-0.181468
  0
VERTEX
  8
0
 10
55.378123
 20
34.441401
 42
-0.202618
  0
VERTEX
  8
0
 10
55.000000
 20
34.500000
 42
-0.088250
  0
VERTEX
  8
0
 10
54.617164
 20
34.842344
 42
-0.053305
  0
VERTEX
  8
0
 10
54.293750
 20
35.359775
 42
-0.051278
  0
VERTEX
  8
0
 10
54.074167
 20
35.961978
 42
-0.061875
  0
VERTEX
  8
0
 10
54.000000
 20
36.559017
 42
-0.067639
  0
VERTEX
  8
0
 10
54.074854
 20
37.109818
 42
-0.084330
  0
VERTEX
  8
0
 10
54.293750
 20
37.576711
 42
-0.099650
  0
VERTEX
  8
0
 10
54.618660
 20
37.888931
 42
-0.142666
  0
VERTEX
  8
0
 10
55.000000
 20
38.000000
 42
-0.195654
  0
VERTEX
  8
0
 10
55.381985
 20
37.844577
 42
-0.086673
  0
VERTEX
  8
0
 10
55.706250
 20
37.395164
 42
-0.066561
  0
VERTEX
  8
0
 10
55.926392
 20
36.729059
 42
-0.046600
  0
SEQEND
  0
POLYLINE
  8
0
 66
1
 70
1
  0
VERTEX
  8
0
 10
60.000000
 20
31.531385
 42
-0.094119
  0
VERTEX
  8
0
 10
59.893789
 20
30.972145
 42
-0.166113
  0
VERTEX
  8
0
 10
59.592642
 20
30.617923
 42
-0.151899
  0
VERTEX
  8
0
 10
59.114961
 20
30.503306
 42
-0.075244
  0
VERTEX
  8
0
 10
58.500000
 20
30.638374
 42
-0.048303
  0
VERTEX
  8
0
 10
57.926204
 20
30.924763
 42
-0.053891
  0
VERTEX
  8
0
 10
57.440625
 20
31.307216
 42
-0.061199
  0
VERTEX
  8
0
 10
57.108626
 20
31.723081
 42
-0.138750
  0
VERTEX
  8
0
 10
57.000000
 20
32.106989
 42
-0.164455
  0
VERTEX
  8
0
 10
57.115158
 20
32.447641
 42
-0.095748
  0
VERTEX
  8
0
 10
57.440625
 20
32.737678
 42
-0.076852
  0
VERTEX
  8
0
 10
57.926285
 20
32.933678
 42
-0.057609
  0
VERTEX
  8
0
 10
58.500000
 20
33.000000
 42
-0.096899
  0
VERTEX
  8
0
 10
59.072505
 20
32.887999
 42
-0.097416
  0
VERTEX
  8
0
 10
59.559375
 20
32.568594
 42
-0.098432
  0
VERTEX
  8
0
 10
59.885371
 20
32.091819
 42
-0.101220
  0
SEQEND
  0
POLYLINE
  8
0
 66
1
 70
1
  0
VERTEX
  8
0
 10
76.000000
 20
28.606989
 42
-0.222225
  0
VERTEX
  8
0
 10
75.912889
 20
28.420671
 42
-0.030693
  0
VERTEX
  8
0
 10
75.559375
 20
28.160341
 42
-0.030395
  0
VERTEX
  8
0
 10
75.074558
 20
27.887494
 42
-0.021360
  0
VERTEX
  8
0
 10
74.500000
 20
27.638374
 42
-0.055937
  0
VERTEX
  8
0
 10
73.925634
 20
27.488865
 42
-0.100118
  0
VERTEX
  8
0
 10
73.440625
 20
27.516384
 42
-0.147206
  0
VERTEX
  8
0
 10
73.122486
 20
27.710807
 42
-0.184534
  0
VERTEX
  8
0
 10
73.000000
 20
28.031385
 42
-0.152681
  0
VERTEX
  8
0
 10
73.115494
 20
28.400789
 42
-0.098158
  0
VERTEX
  8
0
 10
73.440625
 20
28.715469
 42
-0.080880
  0
VERTEX
  8
0
 10
73.926468
 20
28.927770
 42
-0.062722
  0
VERTEX
  8
0
 10
74.500000
 20
29.000000
 42
-0.024748
  0
VERTEX
  8
0
 10
75.074824
 20
28.971531
 42
-0.039339
  0
VERTEX
  8
0
 10
75.559375
 20
28.884553
 42
-0.046727
  0
VERTEX
  8
0
 10
75.903916
 20
28.758929
 42
-0.289661
  0
SEQEND
  0
POLYLINE
  8
0
 66
1
 70
1
  0
VERTEX
  8
0
 10
57.000000
 20
25.588589
 42
0.022277
  0
VERTEX
  8
0
 10
57.765274
 20
25.042383
 42
0.008700
  0
VERTEX
  8
0
 10
58.867188
 20
24.354696
 42
0.008592
  0
VERTEX
  8
0
 10
60.087201
 20
23.650715
 42
0.010570
  0
VERTEX
  8
0
 10
61.250000
 20
23.037890
 42
-0.032097
  0
VERTEX
  8
0
 10
63.588815
 20
21.673608
 42
-0.350160
  0
VERTEX
  8
0
 10
63.894284
 20
20.703064
 42
-0.325252
  0
VERTEX
  8
0
 10
63.002435
 20
20.127424
 42
-0.030423
  0
VERTEX
  8
0
 10
60.250000
 20
20.449764
 42
-0.010326
  0
VERTEX
  8
0
 10
53.264063
 20
21.851768
 42
-0.081413
  0
VERTEX
  8
0
 10
50.206652
 20
23.077114
 42
-0.282711
  0
VERTEX
  8
0
 10
49.436419
 20
24.570757
 42
-0.164106
  0
VERTEX
  8
0
 10
50.250000
 20
26.493732
 42
-0.149295
  0
VERTEX
  8
0
 10
51.481196
 20
27.246612
 42
-0.096733
  0
VERTEX
  8
0
 10
53.160133
 20
27.346739
 42
-0.077885
  0
VERTEX
  8
0
 10
55.082404
 20
26.775713
 42
-0.055111
  0
SEQEND
  0
POLYLINE
  8
0
 66
1
 70
1
  0
VERTEX
  8
0
 10
85.136460
 20
22.872921
 42
-0.113916
  0
VERTEX
  8
0
 10
83.619430
 20
21.940482
 42
-0.008775
  0
VERTEX
  8
0
 10
79.029581
 20
20.486826
 42
-0.005352
  0
VERTEX
  8
0
 10
74.224892
 20
19.113208
 42
-0.269547
  0
VERTEX
  8
0
 10
73.311679
 20
19.354988
 42
-0.233863
  0
VERTEX
  8
0
 10
72.978312
 20
20.341327
 42
-0.119070
  0
VERTEX
  8
0
 10
73.463894
 20
21.591183
 42
-0.101529
  0
VERTEX
  8
0
 10
74.554697
 20
22.629694
 42
-0.140534
  0
VERTEX
  8
0
 10
75.846170
 20
23.000000
 42
0.064352
  0
VERTEX
  8
0
 10
76.664711
 20
23.105788
 42
0.044355
  0
VERTEX
  8
0
 10
77.545410
 20
23.422990
 42
0.044490
  0
VERTEX
  8
0
 10
78.352613
 20
23.888683
 42
0.066567
  0
VERTEX
  8
0
 10
78.950176
 20
24.439966
 42
-0.106761
  0
VERTEX
  8
0
 10
80.447588
 20
25.615019
 42
-0.090838
  0
VERTEX
  8
0
 10
82.386310
 20
26.154626
 42
-0.107067
  0
VERTEX
  8
0
 10
84.135112
 20
25.938362
 42
-0.211353
  0
VERTEX
  8
0
 10
85.136460
 20
25.000000
 42
-0.047424
  0
VERTEX
  8
0
 10
85.332767
 20
24.379716
 42
-0.052982
  0
VERTEX
  8
0
 10
85.399000
 20
23.756420
 42
-0.060109
  0
VERTEX
  8
0
 10
85.334470
 20
23.221589
 42
-0.139055
  0
SEQEND
  0
ENDSEC
  0
EOF
