  0
SECTION
  2
HEADER
  9
$ACADVER
  1
AC1006
  9
$EXTMIN
 10
0.000000
 20
0.000000
 30
0.000000
  9
$EXTMAX
 10
200.000000
 20
282.000000
 30
0.000000
  0
ENDSEC
  0
SECTION
  2
ENTITIES
  0
POLYLINE
  8
0
 66
1
 70
1
  0
VERTEX
  8
0
 10
89.000000
 20
281.094111
 42
0.033401
  0
VERTEX
  8
0
 10
82.661063
 20
279.562553
 42
0.040258
  0
VERTEX
  8
0
 10
76.982322
 20
277.265909
 42
0.041247
  0
VERTEX
  8
0
 10
71.859269
 20
274.144367
 42
0.038270
  0
VERTEX
  8
0
 10
67.178813
 20
270.152297
 42
0.024206
  0
VERTEX
  8
0
 10
62.317268
 20
264.824842
 42
0.060457
  0
VERTEX
  8
0
 10
59.476424
 20
260.397942
 42
0.072519
  0
VERTEX
  8
0
 10
58.070894
 20
255.933188
 42
0.049011
  0
VERTEX
  8
0
 10
57.738265
 20
250.597298
 42
0.053256
  0
VERTEX
  8
0
 10
58.904023
 20
242.448578
 42
0.072762
  0
VERTEX
  8
0
 10
61.745306
 20
235.609926
 42
0.075979
  0
VERTEX
  8
0
 10
66.310095
 20
230.087085
 42
0.064692
  0
VERTEX
  8
0
 10
72.558634
 20
225.819417
 42
-0.017599
  0
VERTEX
  8
0
 10
75.007781
 20
224.464840
 42
-0.022744
  0
VERTEX
  8
0
 10
77.148035
 20
223.044559
 42
-0.021370
  0
VERTEX
  8
0
 10
78.790448
 20
221.732373
 42
-0.150673
  0
VERTEX
  8
0
 10
79.322847
 20
220.873434
 42
0.133495
  0
VERTEX
  8
0
 10
79.769466
 20
220.095561
 42
0.067564
  0
VERTEX
  8
0
 10
80.676138
 20
219.407369
 42
0.052871
  0
VERTEX
  8
0
 10
81.983139
 20
218.841343
 42
0.031073
  0
VERTEX
  8
0
 10
83.639090
 20
218.434495
 42
-0.019458
  0
VERTEX
  8
0
 10
87.632843
 20
217.551045
 42
-0.106938
  0
VERTEX
  8
0
 10
89.589086
 20
216.558129
 42
-0.187051
  0
VERTEX
  8
0
 10
90.398931
 20
215.137859
 42
-0.086664
  0
VERTEX
  8
0
 10
90.346061
 20
212.980304
 42
0.026446
  0
VERTEX
  8
0
 10
90.161230
 20
211.710257
 42
0.066921
  0
VERTEX
  8
0
 10
90.200336
 20
210.779832
 42
0.118251
  0
VERTEX
  8
0
 10
90.447410
 20
210.213003
 42
0.235286
  0
VERTEX
  8
0
 10
90.875000
 20
210.000000
 42
-0.247605
  0
VERTEX
  8
0
 10
91.690731
 20
209.569658
 42
-0.175102
  0
VERTEX
  8
0
 10
91.955265
 20
208.547370
 42
-0.110812
  0
VERTEX
  8
0
 10
91.513278
 20
207.187262
 42
-0.085998
  0
VERTEX
  8
0
 10
90.500000
 20
206.000000
 42
0.108916
  0
VERTEX
  8
0
 10
89.886689
 20
205.211543
 42
0.044418
  0
VERTEX
  8
0
 10
89.411525
 20
203.931100
 42
0.038448
  0
VERTEX
  8
0
 10
89.102522
 20
202.321822
 42
0.028219
  0
VERTEX
  8
0
 10
89.000000
 20
200.506722
 42
0.000000
  0
VERTEX
  8
0
 10
89.000000
 20
196.258333
 42
0.000000
  0
VERTEX
  8
0
 10
82.750000
 20
195.436135
 42
-0.012747
  0
VERTEX
  8
0
 10
79.956720
 20
195.140891
 42
-0.008308
  0
VERTEX
  8
0
 10
76.720313
 20
194.936086
 42
-0.008357
  0
VERTEX
  8
0
 10
73.554932
 20
194.841516
 42
-0.015756
  0
VERTEX
  8
0
 10
71.000000
 20
194.888416
 42
0.056734
  0
VERTEX
  8
0
 10
64.802230
 20
194.494439
 42
0.057802
  0
VERTEX
  8
0
 10
58.892659
 20
192.716108
 42
0.054203
  0
VERTEX
  8
0
 10
53.233052
 20
189.505029
 42
0.040665
  0
VERTEX
  8
0
 10
47.776599
 20
184.856029
 42
-0.006695
  0
VERTEX
  8
0
 10
45.478780
 20
182.611978
 42
-0.010024
  0
VERTEX
  8
0
 10
43.407459
 20
180.720208
 42
-0.005399
  0
VERTEX
  8
0
 10
41.626073
 20
179.191290
 42
-0.176417
  0
VERTEX
  8
0
 10
41.100795
 20
179.000000
 42
0.180309
  0
VERTEX
  8
0
 10
40.554274
 20
178.796293
 42
0.002859
  0
VERTEX
  8
0
 10
38.019771
 20
176.576562
 42
0.007133
  0
VERTEX
  8
0
 10
35.097297
 20
173.911989
 42
0.004617
  0
VERTEX
  8
0
 10
31.788874
 20
170.750000
 42
0.029422
  0
VERTEX
  8
0
 10
22.517354
 20
160.595256
 42
0.032105
  0
VERTEX
  8
0
 10
14.790817
 20
149.702275
 42
0.032441
  0
VERTEX
  8
0
 10
8.589926
 20
138.017819
 42
0.031373
  0
VERTEX
  8
0
 10
3.873668
 20
125.500000
 42
0.009513
  0
VERTEX
  8
0
 10
1.888295
 20
118.558139
 42
0.033520
  0
VERTEX
  8
0
 10
1.000476
 20
114.003770
 42
0.028542
  0
VERTEX
  8
0
 10
0.658961
 20
109.021608
 42
0.005537
  0
VERTEX
  8
0
 10
0.656278
 20
100.000000
 42
0.015067
  0
VERTEX
  8
0
 10
1.188735
 20
86.991895
 42
0.028090
  0
VERTEX
  8
0
 10
2.526432
 20
76.532878
 42
0.032986
  0
VERTEX
  8
0
 10
4.820880
 20
67.521623
 42
0.034173
  0
VERTEX
  8
0
 10
8.260044
 20
59.000000
 42
0.009558
  0
VERTEX
  8
0
 10
12.157920
 20
51.345926
 42
0.023591
  0
VERTEX
  8
0
 10
15.382614
 20
45.933390
 42
0.023971
  0
VERTEX
  8
0
 10
19.071905
 20
40.899051
 42
0.010164
  0
VERTEX
  8
0
 10
24.469189
 20
34.500000
 42
0.006166
  0
VERTEX
  8
0
 10
30.332474
 20
27.992104
 42
0.020119
  0
VERTEX
  8
0
 10
34.434224
 20
23.894510
 42
0.025521
  0
VERTEX
  8
0
 10
38.301784
 20
20.678814
 42
0.015671
  0
VERTEX
  8
0
 10
43.155776
 20
17.277172
 42
-0.017493
  0
VERTEX
  8
0
 10
46.018756
 20
15.255229
 42
-0.045989
  0
VERTEX
  8
0
 10
47.869951
 20
13.558820
 42
-0.059630
  0
VERTEX
  8
0
 10
49.091424
 20
11.840491
 42
-0.051986
  0
VERTEX
  8
0
 10
49.941029
 20
9.802491
 42
0.034779
  0
VERTEX
  8
0
 10
50.513348
 20
8.284877
 42
0.033513
  0
VERTEX
  8
0
 10
51.296555
 20
6.841486
 42
0.035375
  0
VERTEX
  8
0
 10
52.161164
 20
5.667723
 42
0.093723
  0
VERTEX
  8
0
 10
52.969511
 20
5.016317
 42
0.087037
  0
VERTEX
  8
0
 10
54.176301
 20
4.619398
 42
0.011827
  0
VERTEX
  8
0
 10
56.826740
 20
4.298543
 42
0.013322
  0
VERTEX
  8
0
 10
60.015130
 20
4.074426
 42
0.010884
  0
VERTEX
  8
0
 10
63.433814
 20
4.000000
 42
-0.014683
  0
VERTEX
  8
0
 10
67.379775
 20
3.884101
 42
-0.008060
  0
VERTEX
  8
0
 10
72.200373
 20
3.522624
 42
-0.008028
  0
VERTEX
  8
0
 10
77.085360
 20
2.997820
 42
-0.012708
  0
VERTEX
  8
0
 10
81.249555
 20
2.374891
 42
0.025154
  0
VERTEX
  8
0
 10
90.851412
 20
1.181955
 42
0.015242
  0
VERTEX
  8
0
 10
102.295021
 20
0.691554
 42
0.015195
  0
VERTEX
  8
0
 10
113.338917
 20
0.890829
 42
0.035985
  0
VERTEX
  8
0
 10
121.500000
 20
1.877934
 42
-0.009822
  0
VERTEX
  8
0
 10
126.574606
 20
2.762941
 42
-0.030821
  0
VERTEX
  8
0
 10
130.019037
 20
3.078634
 42
-0.026304
  0
VERTEX
  8
0
 10
133.750524
 20
2.993468
 42
-0.005699
  0
VERTEX
  8
0
 10
140.176360
 20
2.434208
 42
0.000000
  0
VERTEX
  8
0
 10
146.852721
 20
1.776387
 42
0.000000
  0
VERTEX
  8
0
 10
148.080437
 20
5.874138
 42
-0.037389
  0
VERTEX
  8
0
 10
148.754977
 20
7.634950
 42
-0.036341
  0
VERTEX
  8
0
 10
149.689652
 20
9.293320
 42
-0.038507
  0
VERTEX
  8
0
 10
150.776084
 20
10.684939
 42
-0.065318
  0
VERTEX
  8
0
 10
151.904077
 20
11.636021
 42
0.024400
  0
VERTEX
  8
0
 10
161.548243
 20
18.504385
 42
0.015685
  0
VERTEX
  8
0
 10
172.062754
 20
27.342885
 42
0.008671
  0
VERTEX
  8
0
 10
181.590606
 20
36.178520
 42
0.204203
  0
VERTEX
  8
0
 10
183.000000
 20
39.485581
 42
-0.051397
  0
VERTEX
  8
0
 10
183.055681
 20
40.025826
 42
-0.053610
  0
VERTEX
  8
0
 10
183.220313
 20
40.535348
 42
-0.059523
  0
VERTEX
  8
0
 10
183.462665
 20
40.940989
 42
-0.124416
  0
VERTEX
  8
0
 10
183.750000
 20
41.166667
 42
0.167120
  0
VERTEX
  8
0
 10
185.137840
 20
42.458029
 42
0.005077
  0
VERTEX
  8
0
 10
188.820955
 20
49.531615
 42
0.010832
  0
VERTEX
  8
0
 10
192.244412
 20
56.650651
 42
0.027412
  0
VERTEX
  8
0
 10
194.330115
 20
62.000000
 42
0.012928
  0
VERTEX
  8
0
 10
197.125579
 20
71.330205
 42
0.030301
  0
VERTEX
  8
0
 10
198.604524
 20
78.455250
 42
0.027405
  0
VERTEX
  8
0
 10
199.290899
 20
86.122435
 42
0.008907
  0
VERTEX
  8
0
 10
199.480619
 20
97.500000
 42
0.004156
  0
VERTEX
  8
0
 10
199.385521
 20
107.561778
 42
0.021203
  0
VERTEX
  8
0
 10
199.049187
 20
113.145497
 42
0.031415
  0
VERTEX
  8
0
 10
198.300850
 20
117.629349
 42
0.017306
  0
VERTEX
  8
0
 10
196.856082
 20
123.000000
 42
0.031430
  0
VERTEX
  8
0
 10
190.235601
 20
140.576094
 42
0.045657
  0
VERTEX
  8
0
 10
182.087451
 20
154.996163
 42
0.047814
  0
VERTEX
  8
0
 10
171.778949
 20
167.206692
 42
0.039411
  0
VERTEX
  8
0
 10
158.685724
 20
178.130746
 42
0.012724
  0
VERTEX
  8
0
 10
155.425353
 20
180.318932
 42
0.008269
  0
VERTEX
  8
0
 10
151.554556
 20
182.687419
 42
0.008315
  0
VERTEX
  8
0
 10
147.697193
 20
184.875281
 42
0.015626
  0
VERTEX
  8
0
 10
144.500000
 20
186.491572
 42
0.018442
  0
VERTEX
  8
0
 10
137.746433
 20
189.346414
 42
0.011845
  0
VERTEX
  8
0
 10
129.723546
 20
192.178682
 42
0.009638
  0
VERTEX
  8
0
 10
122.197208
 20
194.477203
 42
0.069392
  0
VERTEX
  8
0
 10
118.448378
 20
195.000000
 42
-0.060107
  0
VERTEX
  8
0
 10
117.087606
 20
195.164178
 42
-0.206108
  0
VERTEX
  8
0
 10
116.392348
 20
195.689066
 42
-0.115913
  0
VERTEX
  8
0
 10
116.070603
 20
196.779927
 42
-0.014005
  0
VERTEX
  8
0
 10
116.000000
 20
199.300000
 42
0.024579
  0
VERTEX
  8
0
 10
115.914855
 20
201.031040
 42
0.027687
  0
VERTEX
  8
0
 10
115.659950
 20
202.676925
 42
0.028542
  0
VERTEX
  8
0
 10
115.289920
 20
204.034616
 42
0.116080
  0
VERTEX
  8
0
 10
114.842382
 20
204.757618
 42
-0.065253
  0
VERTEX
  8
0
 10
114.353101
 20
205.394498
 42
-0.140414
  0
VERTEX
  8
0
 10
114.203865
 20
205.989485
 42
-0.122105
  0
VERTEX
  8
0
 10
114.385289
 20
206.629409
 42
-0.043392
  0
VERTEX
  8
0
 10
114.930833
 20
207.416659
 42
0.086870
  0
VERTEX
  8
0
 10
115.404469
 20
208.244995
 42
0.054959
  0
VERTEX
  8
0
 10
115.665651
 20
209.329612
 42
0.048378
  0
VERTEX
  8
0
 10
115.703369
 20
210.594154
 42
0.037353
  0
VERTEX
  8
0
 10
115.508699
 20
211.960392
 42
-0.043547
  0
VERTEX
  8
0
 10
115.270546
 20
213.793916
 42
-0.178217
  0
VERTEX
  8
0
 10
115.607903
 20
214.844892
 42
-0.113109
  0
VERTEX
  8
0
 10
116.652113
 20
215.693111
 42
-0.012996
  0
VERTEX
  8
0
 10
119.420248
 20
216.965814
 42
0.013813
  0
VERTEX
  8
0
 10
121.175111
 20
217.776121
 42
0.020701
  0
VERTEX
  8
0
 10
122.654698
 20
218.587502
 42
0.016491
  0
VERTEX
  8
0
 10
123.788048
 20
219.323535
 42
0.245205
  0
VERTEX
  8
0
 10
124.000000
 20
219.729743
 42
-0.261755
  0
VERTEX
  8
0
 10
124.221534
 20
220.123920
 42
-0.016631
  0
VERTEX
  8
0
 10
125.419351
 20
220.799430
 42
-0.020970
  0
VERTEX
  8
0
 10
126.980229
 20
221.531022
 42
-0.013775
  0
VERTEX
  8
0
 10
128.831833
 20
222.246677
 42
0.044815
  0
VERTEX
  8
0
 10
134.107679
 20
224.671672
 42
0.046312
  0
VERTEX
  8
0
 10
138.804952
 20
227.975499
 42
0.047776
  0
VERTEX
  8
0
 10
142.682725
 20
231.976269
 42
0.054878
  0
VERTEX
  8
0
 10
145.528419
 20
236.468559
 42
0.020373
  0
VERTEX
  8
0
 10
146.963857
 20
239.732976
 42
0.048670
  0
VERTEX
  8
0
 10
147.685169
 20
242.277087
 42
0.043891
  0
VERTEX
  8
0
 10
147.940472
 20
245.066102
 42
0.014012
  0
VERTEX
  8
0
 10
147.838471
 20
249.235085
 42
0.037103
  0
VERTEX
  8
0
 10
147.075433
 20
255.227413
 42
0.050367
  0
VERTEX
  8
0
 10
145.457127
 20
260.431744
 42
0.050837
  0
VERTEX
  8
0
 10
142.845214
 20
265.170917
 42
0.038803
  0
VERTEX
  8
0
 10
139.105717
 20
269.768208
 42
0.058911
  0
VERTEX
  8
0
 10
132.930451
 20
274.892723
 42
0.059983
  0
VERTEX
  8
0
 10
125.766537
 20
278.399056
 42
0.050109
  0
VERTEX
  8
0
 10
116.901273
 20
280.523587
 42
0.025697
  0
VERTEX
  8
0
 10
105.500000
 20
281.480044
 42
0.006851
  0
VERTEX
  8
0
 10
100.575784
 20
281.571691
 42
0.007073
  0
VERTEX
  8
0
 10
95.703125
 20
281.526672
 42
0.006868
  0
VERTEX
  8
0
 10
91.485113
 20
281.370023
 42
0.029867
  0
SEQEND
  0
POLYLINE
  8
0
 66
1
 70
1
  0
VERTEX
  8
0
 10
99.269032
 20
276.344063
 42
-0.062780
  0
VERTEX
  8
0
 10
98.671085
 20
276.185595
 42
-0.030339
  0
VERTEX
  8
0
 10
97.880008
 20
276.127736
 42
-0.029507
  0
VERTEX
  8
0
 10
97.036634
 20
276.167106
 42
-0.037336
  0
VERTEX
  8
0
 10
96.269032
 20
276.307009
 42
-0.087174
  0
VERTEX
  8
0
 10
95.883358
 20
276.483340
 42
-0.597527
  0
VERTEX
  8
0
 10
95.900903
 20
276.643467
 42
-0.080377
  0
VERTEX
  8
0
 10
96.431793
 20
276.764444
 42
-0.012823
  0
VERTEX
  8
0
 10
97.500000
 20
276.805051
 42
-0.014395
  0
VERTEX
  8
0
 10
98.580113
 20
276.787295
 42
-0.052471
  0
VERTEX
  8
0
 10
99.257153
 20
276.684921
 42
-0.333666
  0
VERTEX
  8
0
 10
99.386009
 20
276.522870
 42
-0.313180
  0
SEQEND
  0
POLYLINE
  8
0
 66
1
 70
1
  0
VERTEX
  8
0
 10
110.250000
 20
276.294267
 42
-0.029693
  0
VERTEX
  8
0
 10
109.225293
 20
276.159351
 42
-0.017887
  0
VERTEX
  8
0
 10
108.000000
 20
276.115502
 42
-0.017887
  0
VERTEX
  8
0
 10
106.774707
 20
276.159351
 42
-0.029693
  0
VERTEX
  8
0
 10
105.750000
 20
276.294267
 42
-0.142433
  0
VERTEX
  8
0
 10
105.439977
 20
276.453014
 42
-0.611425
  0
VERTEX
  8
0
 10
105.482813
 20
276.600334
 42
-0.039503
  0
VERTEX
  8
0
 10
106.388510
 20
276.701569
 42
-0.008087
  0
VERTEX
  8
0
 10
108.000000
 20
276.727636
 42
-0.008087
  0
VERTEX
  8
0
 10
109.611490
 20
276.701569
 42
-0.039503
  0
VERTEX
  8
0
 10
110.517187
 20
276.600334
 42
-0.611425
  0
VERTEX
  8
0
 10
110.560023
 20
276.453014
 42
-0.142433
  0
SEQEND
  0
POLYLINE
  8
0
 66
1
 70
1
  0
VERTEX
  8
0
 10
113.103858
 20
265.980304
 42
-0.088316
  0
VERTEX
  8
0
 10
124.718522
 20
261.560763
 42
-0.133186
  0
VERTEX
  8
0
 10
132.183847
 20
253.803313
 42
-0.186654
  0
VERTEX
  8
0
 10
133.326391
 20
245.220090
 42
-0.185417
  0
VERTEX
  8
0
 10
128.400665
 20
238.072369
 42
-0.067780
  0
VERTEX
  8
0
 10
125.269926
 20
236.500217
 42
-0.111710
  0
VERTEX
  8
0
 10
122.338748
 20
236.183811
 42
-0.133586
  0
VERTEX
  8
0
 10
119.915296
 20
237.153364
 42
-0.120450
  0
VERTEX
  8
0
 10
118.202822
 20
239.250000
 42
0.039688
  0
VERTEX
  8
0
 10
117.594062
 20
240.302274
 42
0.045764
  0
VERTEX
  8
0
 10
116.851658
 20
241.192187
 42
0.051486
  0
VERTEX
  8
0
 10
116.092617
 20
241.807473
 42
0.145590
  0
VERTEX
  8
0
 10
115.445434
 20
242.000000
 42
-0.059788
  0
VERTEX
  8
0
 10
114.892665
 20
242.066335
 42
-0.078625
  0
VERTEX
  8
0
 10
114.424596
 20
242.261915
 42
-0.096893
  0
VERTEX
  8
0
 10
114.111137
 20
242.551543
 42
-0.159254
  0
VERTEX
  8
0
 10
114.000000
 20
242.891624
 42
0.363798
  0
VERTEX
  8
0
 10
113.699505
 20
243.249961
 42
0.011810
  0
VERTEX
  8
0
 10
111.702432
 20
243.554898
 42
0.017631
  0
VERTEX
  8
0
 10
109.177247
 20
243.789517
 42
0.010695
  0
VERTEX
  8
0
 10
106.178493
 20
243.897511
 42
0.027464
  0
VERTEX
  8
0
 10
100.145188
 20
243.654202
 42
0.032661
  0
VERTEX
  8
0
 10
94.520507
 20
242.743508
 42
0.034713
  0
VERTEX
  8
0
 10
89.982254
 20
241.363429
 42
0.137515
  0
VERTEX
  8
0
 10
87.662564
 20
239.643782
 42
-0.125449
  0
VERTEX
  8
0
 10
86.291544
 20
238.576103
 42
-0.063460
  0
VERTEX
  8
0
 10
84.177020
 20
237.955902
 42
-0.058889
  0
VERTEX
  8
0
 10
81.766408
 20
237.857225
 42
-0.066379
  0
VERTEX
  8
0
 10
79.500000
 20
238.338621
 42
-0.110197
  0
VERTEX
  8
0
 10
77.216430
 20
239.774655
 42
-0.068926
  0
VERTEX
  8
0
 10
75.291337
 20
242.295008
 42
-0.060095
  0
VERTEX
  8
0
 10
73.903778
 20
245.626889
 42
-0.047992
  0
VERTEX
  8
0
 10
73.211880
 20
249.458545
 42
-0.019071
  0
VERTEX
  8
0
 10
73.075223
 20
252.520460
 42
-0.085747
  0
VERTEX
  8
0
 10
73.367884
 20
254.282271
 42
-0.091281
  0
VERTEX
  8
0
 10
74.226154
 20
255.789143
 42
-0.023193
  0
VERTEX
  8
0
 10
76.144559
 20
257.864246
 42
-0.077598
  0
VERTEX
  8
0
 10
83.183776
 20
262.925319
 42
-0.063159
  0
VERTEX
  8
0
 10
91.941636
 20
266.046124
 42
-0.057031
  0
VERTEX
  8
0
 10
102.057316
 20
267.083820
 42
-0.043955
  0
SEQEND
  0
POLYLINE
  8
0
 66
1
 70
1
  0
VERTEX
  8
0
 10
146.044868
 20
142.750000
 42
-0.006953
  0
VERTEX
  8
0
 10
149.432930
 20
139.280735
 42
-0.030371
  0
VERTEX
  8
0
 10
151.277880
 20
137.085561
 42
-0.072278
  0
VERTEX
  8
0
 10
151.991885
 20
135.759417
 42
-0.461134
  0
VERTEX
  8
0
 10
151.662429
 20
135.176676
 42
0.078412
  0
VERTEX
  8
0
 10
151.027229
 20
134.945820
 42
0.076638
  0
VERTEX
  8
0
 10
150.488339
 20
134.529242
 42
0.081448
  0
VERTEX
  8
0
 10
150.125722
 20
133.996015
 42
0.109097
  0
VERTEX
  8
0
 10
150.000000
 20
133.426676
 42
-0.029995
  0
VERTEX
  8
0
 10
149.967181
 20
132.880092
 42
-0.046677
  0
VERTEX
  8
0
 10
149.867362
 20
132.419086
 42
-0.059175
  0
VERTEX
  8
0
 10
149.722178
 20
132.098064
 42
-0.262773
  0
VERTEX
  8
0
 10
149.548467
 20
132.000000
 42
-0.188350
  0
VERTEX
  8
0
 10
149.246864
 20
132.117793
 42
-0.001372
  0
VERTEX
  8
0
 10
147.232522
 20
133.984667
 42
-0.004925
  0
VERTEX
  8
0
 10
144.937106
 20
136.166414
 42
-0.003106
  0
VERTEX
  8
0
 10
142.298467
 20
138.756313
 42
-0.006428
  0
VERTEX
  8
0
 10
138.441817
 20
142.688883
 42
-0.047397
  0
VERTEX
  8
0
 10
136.815002
 20
144.750434
 42
-0.113245
  0
VERTEX
  8
0
 10
136.267173
 20
146.261439
 42
-0.135002
  0
VERTEX
  8
0
 10
136.487128
 20
147.756313
 42
-0.022501
  0
VERTEX
  8
0
 10
136.912297
 20
148.615616
 42
-0.031143
  0
VERTEX
  8
0
 10
137.373848
 20
149.340917
 42
-0.031916
  0
VERTEX
  8
0
 10
137.810198
 20
149.866606
 42
-0.206405
  0
VERTEX
  8
0
 10
138.119567
 20
150.000000
 42
-0.184966
  0
VERTEX
  8
0
 10
138.542654
 20
149.837942
 42
-0.002333
  0
VERTEX
  8
0
 10
140.713814
 20
147.870313
 42
-0.006459
  0
VERTEX
  8
0
 10
143.207880
 20
145.528868
 42
-0.004142
  0
SEQEND
  0
POLYLINE
  8
0
 66
1
 70
1
  0
VERTEX
  8
0
 10
161.167136
 20
119.216956
 42
-0.020075
  0
VERTEX
  8
0
 10
162.532068
 20
115.684001
 42
-0.012423
  0
VERTEX
  8
0
 10
163.863133
 20
111.436594
 42
-0.004890
  0
VERTEX
  8
0
 10
165.019286
 20
107.243849
 42
-0.267275
  0
VERTEX
  8
0
 10
164.813675
 20
106.480342
 42
-0.108706
  0
VERTEX
  8
0
 10
164.571877
 20
106.325753
 42
-0.007908
  0
VERTEX
  8
0
 10
163.820653
 20
106.063009
 42
-0.010758
  0
VERTEX
  8
0
 10
162.904774
 20
105.780570
 42
-0.007927
  0
VERTEX
  8
0
 10
161.879411
 20
105.505870
 42
-0.078874
  0
VERTEX
  8
0
 10
160.311327
 20
105.366759
 42
-0.223918
  0
VERTEX
  8
0
 10
159.377176
 20
105.888681
 42
-0.084730
  0
VERTEX
  8
0
 10
158.660310
 20
107.366426
 42
-0.006391
  0
VERTEX
  8
0
 10
157.468803
 20
111.674587
 42
0.004907
  0
VERTEX
  8
0
 10
156.720786
 20
114.410786
 42
0.005767
  0
VERTEX
  8
0
 10
155.956818
 20
116.987766
 42
0.005107
  0
VERTEX
  8
0
 10
155.264748
 20
119.148624
 42
0.035284
  0
VERTEX
  8
0
 10
154.841021
 20
120.177384
 42
-0.057383
  0
VERTEX
  8
0
 10
154.550060
 20
120.982952
 42
-0.160379
  0
VERTEX
  8
0
 10
154.601054
 20
121.573850
 42
-0.166408
  0
VERTEX
  8
0
 10
154.990089
 20
122.005146
 42
-0.062915
  0
VERTEX
  8
0
 10
155.753679
 20
122.311383
 42
-0.031614
  0
VERTEX
  8
0
 10
157.933182
 20
122.736289
 42
-0.163592
  0
VERTEX
  8
0
 10
159.120866
 20
122.501738
 42
-0.140379
  0
VERTEX
  8
0
 10
160.024855
 20
121.574256
 42
-0.021206
  0
SEQEND
  0
POLYLINE
  8
0
 66
1
 70
1
  0
VERTEX
  8
0
 10
165.316345
 20
90.291339
 42
-0.021975
  0
VERTEX
  8
0
 10
164.444768
 20
85.505961
 42
-0.016303
  0
VERTEX
  8
0
 10
163.079981
 20
80.306694
 42
-0.007689
  0
VERTEX
  8
0
 10
161.568926
 20
75.501722
 42
-0.341579
  0
VERTEX
  8
0
 10
160.750000
 20
74.950521
 42
0.010719
  0
VERTEX
  8
0
 10
160.316985
 20
74.969777
 42
0.001881
  0
VERTEX
  8
0
 10
159.501759
 20
74.985465
 42
0.002039
  0
VERTEX
  8
0
 10
158.545369
 20
74.996370
 42
0.001831
  0
VERTEX
  8
0
 10
157.553861
 20
75.000000
 42
0.000000
  0
VERTEX
  8
0
 10
155.107723
 20
75.000000
 42
0.000000
  0
VERTEX
  8
0
 10
157.053861
 20
80.656550
 42
0.017643
  0
VERTEX
  8
0
 10
157.799013
 20
83.099274
 42
0.014356
  0
VERTEX
  8
0
 10
158.428322
 20
85.761891
 42
0.014599
  0
VERTEX
  8
0
 10
158.866140
 20
88.249940
 42
0.036263
  0
VERTEX
  8
0
 10
159.000000
 20
90.093192
 42
-0.020955
  0
VERTEX
  8
0
 10
159.094411
 20
92.344888
 42
-0.145175
  0
VERTEX
  8
0
 10
159.491616
 20
93.362491
 42
-0.167844
  0
VERTEX
  8
0
 10
160.350688
 20
93.922539
 42
-0.030427
  0
VERTEX
  8
0
 10
162.250000
 20
94.276604
 42
0.003712
  0
VERTEX
  8
0
 10
163.512137
 20
94.442757
 42
0.005535
  0
VERTEX
  8
0
 10
164.613130
 20
94.608461
 42
0.002551
  0
VERTEX
  8
0
 10
165.546050
 20
94.764338
 42
0.109303
  0
VERTEX
  8
0
 10
165.730870
 20
94.839963
 42
-0.632671
  0
VERTEX
  8
0
 10
165.808936
 20
94.795052
 42
-0.002858
  0
VERTEX
  8
0
 10
165.704337
 20
93.569820
 42
-0.007246
  0
VERTEX
  8
0
 10
165.547419
 20
92.086163
 42
-0.004088
  0
SEQEND
  0
POLYLINE
  8
0
 66
1
 70
1
  0
VERTEX
  8
0
 10
152.581787
 20
63.000000
 42
-0.293990
  0
VERTEX
  8
0
 10
153.523095
 20
62.394167
 42
-0.242127
  0
VERTEX
  8
0
 10
153.464614
 20
61.177985
 42
-0.051174
  0
VERTEX
  8
0
 10
151.687696
 20
58.717290
 42
-0.007145
  0
VERTEX
  8
0
 10
147.437671
 20
54.081074
 42
0.000000
  0
VERTEX
  8
0
 10
140.875341
 20
47.124659
 42
0.000000
  0
VERTEX
  8
0
 10
138.872549
 20
49.127451
 42
0.000000
  0
VERTEX
  8
0
 10
136.869757
 20
51.130243
 42
0.000000
  0
VERTEX
  8
0
 10
142.434879
 20
56.739923
 42
0.007744
  0
VERTEX
  8
0
 10
144.567245
 20
58.957005
 42
0.011385
  0
VERTEX
  8
0
 10
146.365246
 20
60.975590
 42
0.006871
  0
VERTEX
  8
0
 10
147.797440
 20
62.706798
 42
0.170991
  0
VERTEX
  8
0
 10
148.000000
 20
63.281791
 42
-0.204227
  0
VERTEX
  8
0
 10
148.129553
 20
63.585739
 42
-0.141484
  0
VERTEX
  8
0
 10
148.464650
 20
63.761845
 42
-0.092030
  0
VERTEX
  8
0
 10
148.975838
 20
63.771671
 42
-0.050564
  0
VERTEX
  8
0
 10
149.581787
 20
63.606989
 42
0.024761
  0
VERTEX
  8
0
 10
150.290883
 20
63.374442
 42
0.016939
  0
VERTEX
  8
0
 10
151.115525
 20
63.178303
 42
0.017107
  0
VERTEX
  8
0
 10
151.925091
 20
63.043146
 42
0.032815
  0
SEQEND
  0
POLYLINE
  8
0
 66
1
 70
1
  0
VERTEX
  8
0
 10
126.264352
 20
42.511440
 42
-0.011889
  0
VERTEX
  8
0
 10
127.326835
 20
40.975197
 42
-0.146356
  0
VERTEX
  8
0
 10
127.528704
 20
40.300321
 42
-0.241136
  0
VERTEX
  8
0
 10
127.267536
 20
39.790271
 42
-0.036911
  0
VERTEX
  8
0
 10
126.264352
 20
39.174477
 42
-0.032433
  0
VERTEX
  8
0
 10
123.816389
 20
38.104979
 42
-0.014238
  0
VERTEX
  8
0
 10
120.454955
 20
36.996320
 42
-0.013476
  0
VERTEX
  8
0
 10
116.642292
 20
35.969167
 42
-0.013163
  0
VERTEX
  8
0
 10
112.750000
 20
35.140033
 42
0.000000
  0
VERTEX
  8
0
 10
108.000000
 20
34.258211
 42
0.000000
  0
VERTEX
  8
0
 10
108.000000
 20
37.629105
 42
-0.023194
  0
VERTEX
  8
0
 10
108.088268
 20
39.530892
 42
-0.143608
  0
VERTEX
  8
0
 10
108.445347
 20
40.430057
 42
-0.185166
  0
VERTEX
  8
0
 10
109.181163
 20
40.872451
 42
-0.043813
  0
VERTEX
  8
0
 10
110.633980
 20
41.000000
 42
0.047604
  0
VERTEX
  8
0
 10
113.398239
 20
41.263777
 42
0.017933
  0
VERTEX
  8
0
 10
117.189294
 20
42.135981
 42
0.015294
  0
VERTEX
  8
0
 10
120.807597
 20
43.225910
 42
0.099265
  0
VERTEX
  8
0
 10
122.450000
 20
44.168578
 42
-0.069852
  0
VERTEX
  8
0
 10
123.401261
 20
44.791073
 42
-0.215711
  0
VERTEX
  8
0
 10
124.151366
 20
44.802374
 42
-0.117890
  0
VERTEX
  8
0
 10
124.954014
 20
44.199082
 42
-0.015678
  0
SEQEND
  0
ENDSEC
  0
EOF
