  0
SECTION
  2
HEADER
  9
$ACADVER
  1
AC1006
  9
$EXTMIN
 10
0.000000
 20
0.000000
 30
0.000000
  9
$EXTMAX
 10
269.000000
 20
374.000000
 30
0.000000
  0
ENDSEC
  0
SECTION
  2
ENTITIES
  0
POLYLINE
  8
0
 66
1
 70
1
  0
VERTEX
  8
0
 10
123.963746
 20
372.699445
 42
0.070296
  0
VERTEX
  8
0
 10
116.203269
 20
368.783039
 42
0.049630
  0
VERTEX
  8
0
 10
108.766152
 20
362.430500
 42
0.047669
  0
VERTEX
  8
0
 10
102.416856
 20
354.407111
 42
0.051330
  0
VERTEX
  8
0
 10
97.882563
 20
345.516157
 42
0.013045
  0
VERTEX
  8
0
 10
96.105039
 20
340.537918
 42
0.043360
  0
VERTEX
  8
0
 10
95.312874
 20
337.157652
 42
0.037650
  0
VERTEX
  8
0
 10
95.059628
 20
333.453766
 42
0.008090
  0
VERTEX
  8
0
 10
95.208858
 20
327.016157
 42
0.008948
  0
VERTEX
  8
0
 10
95.551694
 20
321.034562
 42
0.031175
  0
VERTEX
  8
0
 10
96.081688
 20
317.203782
 42
0.038835
  0
VERTEX
  8
0
 10
97.016469
 20
313.921376
 42
0.020345
  0
VERTEX
  8
0
 10
98.654823
 20
310.000000
 42
0.036674
  0
VERTEX
  8
0
 10
101.590060
 20
304.749503
 42
0.026118
  0
VERTEX
  8
0
 10
105.590628
 20
299.323223
 42
0.026188
  0
VERTEX
  8
0
 10
109.825433
 20
294.684250
 42
0.071912
  0
VERTEX
  8
0
 10
113.385784
 20
292.061127
 42
-0.049240
  0
VERTEX
  8
0
 10
114.385775
 20
291.391869
 42
-0.049713
  0
VERTEX
  8
0
 10
115.232074
 20
290.541932
 42
-0.054462
  0
VERTEX
  8
0
 10
115.811466
 20
289.648050
 42
-0.117100
  0
VERTEX
  8
0
 10
116.000000
 20
288.854073
 42
0.169388
  0
VERTEX
  8
0
 10
116.565695
 20
287.232170
 42
0.072041
  0
VERTEX
  8
0
 10
118.262621
 20
285.632901
 42
0.059038
  0
VERTEX
  8
0
 10
120.774322
 20
284.280233
 42
0.044698
  0
VERTEX
  8
0
 10
123.779847
 20
283.394031
 42
-0.051371
  0
VERTEX
  8
0
 10
126.279070
 20
282.620804
 42
-0.108832
  0
VERTEX
  8
0
 10
127.920737
 20
281.450019
 42
-0.129682
  0
VERTEX
  8
0
 10
128.747208
 20
279.849060
 42
-0.090105
  0
VERTEX
  8
0
 10
128.826764
 20
277.805042
 42
-0.068864
  0
VERTEX
  8
0
 10
128.516685
 20
276.719901
 42
-0.112402
  0
VERTEX
  8
0
 10
127.947841
 20
275.955419
 42
-0.100839
  0
VERTEX
  8
0
 10
127.054820
 20
275.460319
 42
-0.047684
  0
VERTEX
  8
0
 10
125.760918
 20
275.184631
 42
0.054884
  0
VERTEX
  8
0
 10
124.613856
 20
274.922954
 42
0.041569
  0
VERTEX
  8
0
 10
123.432614
 20
274.399635
 42
0.042545
  0
VERTEX
  8
0
 10
122.393900
 20
273.711405
 42
0.072521
  0
VERTEX
  8
0
 10
121.681149
 20
272.955164
 42
-0.106918
  0
VERTEX
  8
0
 10
120.670571
 20
272.019818
 42
-0.048977
  0
VERTEX
  8
0
 10
119.033967
 20
271.257611
 42
-0.034920
  0
VERTEX
  8
0
 10
116.690947
 20
270.613786
 42
-0.014090
  0
VERTEX
  8
0
 10
113.420231
 20
270.051754
 42
0.015594
  0
VERTEX
  8
0
 10
106.639790
 20
268.865617
 42
0.011415
  0
VERTEX
  8
0
 10
99.195146
 20
267.144494
 42
0.011543
  0
VERTEX
  8
0
 10
91.999629
 20
265.128945
 42
0.018728
  0
VERTEX
  8
0
 10
86.000000
 20
263.049427
 42
0.015334
  0
VERTEX
  8
0
 10
78.987326
 20
260.069905
 42
0.009001
  0
VERTEX
  8
0
 10
70.779250
 20
256.100580
 42
0.002562
  0
VERTEX
  8
0
 10
62.614361
 20
251.916505
 42
0.280022
  0
VERTEX
  8
0
 10
62.000000
 20
250.905535
 42
-0.124059
  0
VERTEX
  8
0
 10
61.912972
 20
250.560181
 42
-0.100780
  0
VERTEX
  8
0
 10
61.667895
 20
250.266001
 42
-0.090632
  0
VERTEX
  8
0
 10
61.301308
 20
250.068319
 42
-0.078607
  0
VERTEX
  8
0
 10
60.869430
 20
250.000000
 42
0.149655
  0
VERTEX
  8
0
 10
59.119113
 20
249.464109
 42
0.008311
  0
VERTEX
  8
0
 10
54.386525
 20
246.150535
 42
0.013692
  0
VERTEX
  8
0
 10
49.421049
 20
242.337705
 42
0.018341
  0
VERTEX
  8
0
 10
45.148875
 20
238.599040
 42
0.009733
  0
VERTEX
  8
0
 10
39.139731
 20
232.713102
 42
0.008562
  0
VERTEX
  8
0
 10
33.096992
 20
226.344714
 42
0.003281
  0
VERTEX
  8
0
 10
27.578804
 20
220.246157
 42
0.178197
  0
VERTEX
  8
0
 10
27.015973
 20
218.821429
 42
-0.114816
  0
VERTEX
  8
0
 10
26.926823
 20
218.475418
 42
-0.026546
  0
VERTEX
  8
0
 10
26.618604
 20
217.954018
 42
-0.026052
  0
VERTEX
  8
0
 10
26.189940
 20
217.377131
 42
-0.022896
  0
VERTEX
  8
0
 10
25.685658
 20
216.821429
 42
0.062385
  0
VERTEX
  8
0
 10
21.901311
 20
211.926192
 42
0.011597
  0
VERTEX
  8
0
 10
16.337390
 20
201.986221
 42
0.013224
  0
VERTEX
  8
0
 10
11.032740
 20
191.297170
 42
0.027477
  0
VERTEX
  8
0
 10
7.587445
 20
182.652996
 42
0.041768
  0
VERTEX
  8
0
 10
2.126993
 20
160.421034
 42
0.037582
  0
VERTEX
  8
0
 10
0.178868
 20
136.783471
 42
0.038015
  0
VERTEX
  8
0
 10
1.791102
 20
113.417766
 42
0.045630
  0
VERTEX
  8
0
 10
6.943535
 20
92.000000
 42
0.024483
  0
VERTEX
  8
0
 10
9.900351
 20
84.515429
 42
0.009650
  0
VERTEX
  8
0
 10
14.665361
 20
74.510769
 42
0.008992
  0
VERTEX
  8
0
 10
19.674256
 20
64.931100
 42
0.037995
  0
VERTEX
  8
0
 10
23.199335
 20
59.500000
 42
0.006638
  0
VERTEX
  8
0
 10
28.576813
 20
52.641397
 42
0.006055
  0
VERTEX
  8
0
 10
34.299356
 20
45.712364
 42
0.005848
  0
VERTEX
  8
0
 10
39.514145
 20
39.695751
 42
0.023556
  0
VERTEX
  8
0
 10
42.908328
 20
36.215832
 42
0.033228
  0
VERTEX
  8
0
 10
48.885061
 20
31.339675
 42
0.007374
  0
VERTEX
  8
0
 10
59.761586
 20
23.848140
 42
0.006561
  0
VERTEX
  8
0
 10
70.814214
 20
16.681017
 42
0.046735
  0
VERTEX
  8
0
 10
76.500000
 20
13.801658
 42
0.000017
  0
VERTEX
  8
0
 10
78.320920
 20
13.084200
 42
0.000010
  0
VERTEX
  8
0
 10
80.500000
 20
12.225758
 42
0.000010
  0
VERTEX
  8
0
 10
82.679082
 20
11.367414
 42
0.000017
  0
VERTEX
  8
0
 10
84.500000
 20
10.650263
 42
0.010162
  0
VERTEX
  8
0
 10
86.338696
 20
9.969009
 42
0.005891
  0
VERTEX
  8
0
 10
88.573437
 20
9.221678
 42
0.005886
  0
VERTEX
  8
0
 10
90.832911
 20
8.524792
 42
0.009855
  0
VERTEX
  8
0
 10
92.750000
 20
7.998985
 42
-0.021267
  0
VERTEX
  8
0
 10
94.849263
 20
7.371371
 42
-0.074771
  0
VERTEX
  8
0
 10
96.095010
 20
6.719170
 42
-0.121739
  0
VERTEX
  8
0
 10
96.760885
 20
5.923693
 42
-0.114157
  0
VERTEX
  8
0
 10
97.000000
 20
4.890027
 42
0.225922
  0
VERTEX
  8
0
 10
98.300352
 20
2.159043
 42
0.138828
  0
VERTEX
  8
0
 10
101.637131
 20
0.724077
 42
0.032283
  0
VERTEX
  8
0
 10
109.225629
 20
0.224791
 42
0.001935
  0
VERTEX
  8
0
 10
132.141599
 20
0.286972
 42
0.000000
  0
VERTEX
  8
0
 10
164.500000
 20
0.500000
 42
0.000000
  0
VERTEX
  8
0
 10
164.816422
 20
3.250000
 42
-0.042113
  0
VERTEX
  8
0
 10
165.070506
 20
4.511624
 42
-0.100827
  0
VERTEX
  8
0
 10
165.512549
 20
5.352712
 42
-0.128857
  0
VERTEX
  8
0
 10
166.169539
 20
5.831363
 42
-0.093605
  0
VERTEX
  8
0
 10
167.062441
 20
6.000000
 42
0.099849
  0
VERTEX
  8
0
 10
174.612103
 20
7.522832
 42
0.010845
  0
VERTEX
  8
0
 10
190.910323
 20
14.796564
 42
0.012562
  0
VERTEX
  8
0
 10
206.813369
 20
22.806381
 42
0.068600
  0
VERTEX
  8
0
 10
214.584917
 20
28.457072
 42
-0.022850
  0
VERTEX
  8
0
 10
215.189801
 20
28.987571
 42
-0.005987
  0
VERTEX
  8
0
 10
216.207445
 20
29.781140
 42
-0.006069
  0
VERTEX
  8
0
 10
217.389314
 20
30.657783
 42
-0.006183
  0
VERTEX
  8
0
 10
218.584917
 20
31.500000
 42
0.043118
  0
VERTEX
  8
0
 10
222.761543
 20
34.929666
 42
0.007399
  0
VERTEX
  8
0
 10
230.001009
 20
42.214036
 42
0.007761
  0
VERTEX
  8
0
 10
237.029858
 20
49.728995
 42
0.037147
  0
VERTEX
  8
0
 10
240.636810
 20
54.355388
 42
-0.005670
  0
VERTEX
  8
0
 10
241.820919
 20
56.088843
 42
-0.004998
  0
VERTEX
  8
0
 10
243.094200
 20
57.870020
 42
-0.005026
  0
VERTEX
  8
0
 10
244.274517
 20
59.453076
 42
-0.015120
  0
VERTEX
  8
0
 10
245.122797
 20
60.500000
 42
0.051420
  0
VERTEX
  8
0
 10
247.701777
 20
64.202145
 42
0.005830
  0
VERTEX
  8
0
 10
252.549183
 20
73.202297
 42
0.003434
  0
VERTEX
  8
0
 10
257.419876
 20
82.661382
 42
0.117701
  0
VERTEX
  8
0
 10
258.000000
 20
85.091644
 42
-0.040985
  0
VERTEX
  8
0
 10
258.056741
 20
85.782701
 42
-0.047700
  0
VERTEX
  8
0
 10
258.225614
 20
86.419629
 42
-0.054133
  0
VERTEX
  8
0
 10
258.473121
 20
86.915863
 42
-0.148708
  0
VERTEX
  8
0
 10
258.768049
 20
87.166667
 42
0.219848
  0
VERTEX
  8
0
 10
259.991253
 20
88.537589
 42
0.004677
  0
VERTEX
  8
0
 10
262.611366
 20
97.436137
 42
0.011233
  0
VERTEX
  8
0
 10
265.093184
 20
106.975191
 42
0.013897
  0
VERTEX
  8
0
 10
266.955449
 20
115.964556
 42
0.091829
  0
VERTEX
  8
0
 10
266.649609
 20
161.866932
 42
0.086502
  0
VERTEX
  8
0
 10
250.040368
 20
205.676434
 42
0.086534
  0
VERTEX
  8
0
 10
219.595347
 20
241.269940
 42
0.091990
  0
VERTEX
  8
0
 10
179.500000
 20
263.545277
 42
0.005369
  0
VERTEX
  8
0
 10
174.288205
 20
265.231441
 42
0.006810
  0
VERTEX
  8
0
 10
169.437901
 20
266.671146
 42
0.006660
  0
VERTEX
  8
0
 10
164.462970
 20
268.003140
 42
0.004775
  0
VERTEX
  8
0
 10
158.869492
 20
269.364466
 42
-0.060541
  0
VERTEX
  8
0
 10
157.796154
 20
269.756411
 42
-0.058398
  0
VERTEX
  8
0
 10
156.833593
 20
270.397724
 42
-0.061929
  0
VERTEX
  8
0
 10
156.097723
 20
271.199254
 42
-0.091060
  0
VERTEX
  8
0
 10
155.693704
 20
272.063274
 42
0.073326
  0
VERTEX
  8
0
 10
155.338096
 20
272.899308
 42
0.055546
  0
VERTEX
  8
0
 10
154.726459
 20
273.688145
 42
0.056145
  0
VERTEX
  8
0
 10
153.965199
 20
274.314024
 42
0.080211
  0
VERTEX
  8
0
 10
153.166667
 20
274.666667
 42
-0.146153
  0
VERTEX
  8
0
 10
151.800121
 20
275.497055
 42
-0.080639
  0
VERTEX
  8
0
 10
150.730447
 20
277.152793
 42
-0.087611
  0
VERTEX
  8
0
 10
150.300048
 20
278.927828
 42
-0.228975
  0
VERTEX
  8
0
 10
150.782753
 20
280.111951
 42
-0.075723
  0
VERTEX
  8
0
 10
151.263828
 20
280.428767
 42
-0.009896
  0
VERTEX
  8
0
 10
152.390871
 20
280.920519
 42
-0.011326
  0
VERTEX
  8
0
 10
153.761607
 20
281.450567
 42
-0.009256
  0
VERTEX
  8
0
 10
155.250000
 20
281.956750
 42
0.026486
  0
VERTEX
  8
0
 10
156.686965
 20
282.501346
 42
0.036796
  0
VERTEX
  8
0
 10
157.901923
 20
283.147494
 42
0.040425
  0
VERTEX
  8
0
 10
158.770014
 20
283.798086
 42
0.212286
  0
VERTEX
  8
0
 10
159.011865
 20
284.327552
 42
-0.214644
  0
VERTEX
  8
0
 10
159.295647
 20
284.941471
 42
-0.017518
  0
VERTEX
  8
0
 10
160.705822
 20
286.081594
 42
-0.021068
  0
VERTEX
  8
0
 10
162.562668
 20
287.359409
 42
-0.014564
  0
VERTEX
  8
0
 10
164.761865
 20
288.652341
 42
0.055578
  0
VERTEX
  8
0
 10
172.499572
 20
294.099614
 42
0.059664
  0
VERTEX
  8
0
 10
178.641388
 20
301.001846
 42
0.057542
  0
VERTEX
  8
0
 10
183.146584
 20
309.387055
 42
0.046135
  0
VERTEX
  8
0
 10
186.038183
 20
319.225376
 42
0.044785
  0
VERTEX
  8
0
 10
186.817740
 20
326.683500
 42
0.032871
  0
VERTEX
  8
0
 10
186.392904
 20
334.993073
 42
0.033220
  0
VERTEX
  8
0
 10
184.902271
 20
343.037828
 42
0.051047
  0
VERTEX
  8
0
 10
182.464592
 20
349.682122
 42
0.050454
  0
VERTEX
  8
0
 10
178.994409
 20
355.285841
 42
0.033513
  0
VERTEX
  8
0
 10
173.992152
 20
360.962957
 42
0.032832
  0
VERTEX
  8
0
 10
168.114920
 20
366.074843
 42
0.040500
  0
VERTEX
  8
0
 10
162.000000
 20
369.987996
 42
0.019520
  0
VERTEX
  8
0
 10
157.674242
 20
372.073709
 42
0.058198
  0
VERTEX
  8
0
 10
154.532262
 20
373.024934
 42
0.036204
  0
VERTEX
  8
0
 10
150.540751
 20
373.446943
 42
0.004151
  0
VERTEX
  8
0
 10
141.500000
 20
373.669908
 42
0.006558
  0
VERTEX
  8
0
 10
135.355136
 20
373.689805
 42
0.011352
  0
VERTEX
  8
0
 10
130.250396
 20
373.523428
 42
0.012444
  0
VERTEX
  8
0
 10
126.256075
 20
373.202513
 42
0.055545
  0
SEQEND
  0
POLYLINE
  8
0
 66
1
 70
1
  0
VERTEX
  8
0
 10
149.041912
 20
354.394913
 42
-0.030847
  0
VERTEX
  8
0
 10
151.802861
 20
353.385998
 42
-0.036051
  0
VERTEX
  8
0
 10
154.272297
 20
352.087508
 42
-0.034073
  0
VERTEX
  8
0
 10
156.639378
 20
350.382273
 42
-0.023129
  0
VERTEX
  8
0
 10
159.096327
 20
348.144913
 42
-0.028064
  0
VERTEX
  8
0
 10
162.990386
 20
343.791667
 42
-0.056979
  0
VERTEX
  8
0
 10
165.426282
 20
339.904886
 42
-0.058834
  0
VERTEX
  8
0
 10
166.875840
 20
335.651585
 42
-0.031846
  0
VERTEX
  8
0
 10
167.688200
 20
330.174987
 42
-0.016707
  0
VERTEX
  8
0
 10
167.887417
 20
326.208202
 42
-0.051142
  0
VERTEX
  8
0
 10
167.657941
 20
323.528498
 42
-0.048875
  0
VERTEX
  8
0
 10
166.883033
 20
320.886414
 42
-0.014276
  0
VERTEX
  8
0
 10
165.186872
 20
317.000000
 42
-0.008363
  0
VERTEX
  8
0
 10
161.869532
 20
310.250008
 42
-0.118053
  0
VERTEX
  8
0
 10
160.127726
 20
308.217529
 42
-0.225579
  0
VERTEX
  8
0
 10
158.093111
 20
307.839906
 42
-0.040945
  0
VERTEX
  8
0
 10
154.376190
 20
309.163354
 42
0.034679
  0
VERTEX
  8
0
 10
151.255838
 20
310.318578
 42
0.038875
  0
VERTEX
  8
0
 10
148.122128
 20
310.978427
 42
0.025115
  0
VERTEX
  8
0
 10
143.955873
 20
311.310766
 42
0.005983
  0
VERTEX
  8
0
 10
137.000000
 20
311.431908
 42
0.003778
  0
VERTEX
  8
0
 10
132.037369
 20
311.421446
 42
0.004827
  0
VERTEX
  8
0
 10
127.465804
 20
311.333123
 42
0.003778
  0
VERTEX
  8
0
 10
123.639912
 20
311.193310
 42
0.040274
  0
VERTEX
  8
0
 10
122.096353
 20
311.000000
 42
-0.094919
  0
VERTEX
  8
0
 10
120.716271
 20
310.978162
 42
-0.127210
  0
VERTEX
  8
0
 10
119.581552
 20
311.493779
 42
-0.070729
  0
VERTEX
  8
0
 10
118.398679
 20
312.763493
 42
-0.013995
  0
VERTEX
  8
0
 10
116.688513
 20
315.369248
 42
-0.026345
  0
VERTEX
  8
0
 10
115.157814
 20
318.170316
 42
-0.042220
  0
VERTEX
  8
0
 10
114.190931
 20
320.715395
 42
-0.037486
  0
VERTEX
  8
0
 10
113.595995
 20
323.595028
 42
-0.016179
  0
VERTEX
  8
0
 10
113.218484
 20
327.497230
 42
-0.013350
  0
VERTEX
  8
0
 10
113.054701
 20
331.875624
 42
-0.053401
  0
VERTEX
  8
0
 10
113.311538
 20
334.542488
 42
-0.056667
  0
VERTEX
  8
0
 10
114.120199
 20
337.016416
 42
-0.016295
  0
VERTEX
  8
0
 10
115.917312
 20
340.627982
 42
-0.076167
  0
VERTEX
  8
0
 10
122.008377
 20
348.701326
 42
-0.094911
  0
VERTEX
  8
0
 10
129.838140
 20
353.866422
 42
-0.094909
  0
VERTEX
  8
0
 10
139.022496
 20
355.772581
 42
-0.076162
  0
SEQEND
  0
POLYLINE
  8
0
 66
1
 70
1
  0
VERTEX
  8
0
 10
100.683114
 20
325.812500
 42
-0.054073
  0
VERTEX
  8
0
 10
100.461564
 20
325.395823
 42
-0.470617
  0
VERTEX
  8
0
 10
100.279315
 20
325.378580
 42
-0.168741
  0
VERTEX
  8
0
 10
100.137993
 20
325.670344
 42
-0.018894
  0
VERTEX
  8
0
 10
100.078947
 20
326.416667
 42
-0.028489
  0
VERTEX
  8
0
 10
100.089945
 20
327.112848
 42
-0.077125
  0
VERTEX
  8
0
 10
100.200665
 20
327.592839
 42
-0.208169
  0
VERTEX
  8
0
 10
100.385309
 20
327.775380
 42
-0.296942
  0
VERTEX
  8
0
 10
100.604167
 20
327.729167
 42
-0.126455
  0
VERTEX
  8
0
 10
100.797407
 20
327.402231
 42
-0.060344
  0
VERTEX
  8
0
 10
100.876576
 20
326.916927
 42
-0.054150
  0
VERTEX
  8
0
 10
100.839148
 20
326.359369
 42
-0.051402
  0
SEQEND
  0
POLYLINE
  8
0
 66
1
 70
1
  0
VERTEX
  8
0
 10
138.093885
 20
305.399714
 42
-0.010350
  0
VERTEX
  8
0
 10
140.521306
 20
305.190311
 42
-0.007693
  0
VERTEX
  8
0
 10
143.191987
 20
304.862489
 42
-0.007782
  0
VERTEX
  8
0
 10
145.702947
 20
304.475065
 42
-0.017403
  0
VERTEX
  8
0
 10
147.593885
 20
304.084954
 42
-0.020590
  0
VERTEX
  8
0
 10
149.121733
 20
303.646562
 42
-0.809796
  0
VERTEX
  8
0
 10
149.099676
 20
303.448982
 42
-0.040665
  0
VERTEX
  8
0
 10
147.798106
 20
303.426900
 42
-0.002267
  0
VERTEX
  8
0
 10
143.750000
 20
303.706076
 42
0.005707
  0
VERTEX
  8
0
 10
139.350264
 20
303.979097
 42
0.046915
  0
VERTEX
  8
0
 10
137.345927
 20
303.892453
 42
0.143328
  0
VERTEX
  8
0
 10
136.378510
 20
303.458483
 42
0.219528
  0
VERTEX
  8
0
 10
136.000000
 20
302.637932
 42
-0.059146
  0
VERTEX
  8
0
 10
135.925640
 20
302.011522
 42
-0.078112
  0
VERTEX
  8
0
 10
135.706250
 20
301.481142
 42
-0.096575
  0
VERTEX
  8
0
 10
135.381430
 20
301.125887
 42
-0.160756
  0
VERTEX
  8
0
 10
135.000000
 20
301.000000
 42
-0.148195
  0
VERTEX
  8
0
 10
134.618646
 20
301.115568
 42
-0.098894
  0
VERTEX
  8
0
 10
134.293750
 20
301.440625
 42
-0.082425
  0
VERTEX
  8
0
 10
134.074694
 20
301.926543
 42
-0.064853
  0
VERTEX
  8
0
 10
134.000000
 20
302.500000
 42
0.217710
  0
VERTEX
  8
0
 10
133.670297
 20
303.221317
 42
0.110284
  0
VERTEX
  8
0
 10
132.772333
 20
303.704506
 42
0.051730
  0
VERTEX
  8
0
 10
131.109812
 20
303.990931
 42
0.011768
  0
VERTEX
  8
0
 10
128.250000
 20
304.116001
 42
-0.007862
  0
VERTEX
  8
0
 10
126.151280
 20
304.191367
 42
-0.022690
  0
VERTEX
  8
0
 10
124.703125
 20
304.332266
 42
-0.104480
  0
VERTEX
  8
0
 10
124.222315
 20
304.508084
 42
-0.657748
  0
VERTEX
  8
0
 10
124.250000
 20
304.689326
 42
0.052955
  0
VERTEX
  8
0
 10
124.919331
 20
304.942351
 42
0.061164
  0
VERTEX
  8
0
 10
125.485938
 20
305.321240
 42
0.070915
  0
VERTEX
  8
0
 10
125.870778
 20
305.762132
 42
0.145011
  0
VERTEX
  8
0
 10
126.000000
 20
306.198324
 42
-0.270412
  0
VERTEX
  8
0
 10
126.227638
 20
306.588456
 42
-0.105247
  0
VERTEX
  8
0
 10
126.846169
 20
306.782975
 42
-0.057944
  0
VERTEX
  8
0
 10
127.858101
 20
306.761934
 42
-0.021988
  0
VERTEX
  8
0
 10
129.250000
 20
306.507905
 42
0.018163
  0
VERTEX
  8
0
 10
130.881140
 20
306.197305
 42
0.006797
  0
VERTEX
  8
0
 10
133.188516
 20
305.876260
 42
0.006724
  0
VERTEX
  8
0
 10
135.713998
 20
305.594242
 42
0.008102
  0
SEQEND
  0
POLYLINE
  8
0
 66
1
 70
1
  0
VERTEX
  8
0
 10
112.846990
 20
261.132705
 42
-0.019736
  0
VERTEX
  8
0
 10
114.504249
 20
259.576639
 42
-0.184194
  0
VERTEX
  8
0
 10
114.890797
 20
258.694776
 42
-0.366900
  0
VERTEX
  8
0
 10
114.478999
 20
258.158110
 42
-0.053300
  0
VERTEX
  8
0
 10
113.000000
 20
258.000000
 42
-0.043961
  0
VERTEX
  8
0
 10
112.234387
 20
258.067444
 42
-0.063754
  0
VERTEX
  8
0
 10
111.587500
 20
258.269725
 42
-0.083526
  0
VERTEX
  8
0
 10
111.149844
 20
258.567260
 42
-0.204550
  0
VERTEX
  8
0
 10
111.000000
 20
258.918213
 42
0.044250
  0
VERTEX
  8
0
 10
110.959197
 20
259.378353
 42
0.015326
  0
VERTEX
  8
0
 10
110.821697
 20
260.031350
 42
0.015089
  0
VERTEX
  8
0
 10
110.625376
 20
260.745256
 42
0.016969
  0
VERTEX
  8
0
 10
110.393011
 20
261.418213
 42
-0.044150
  0
VERTEX
  8
0
 10
110.054421
 20
262.603883
 42
-0.506879
  0
VERTEX
  8
0
 10
110.335685
 20
262.906801
 42
-0.140290
  0
VERTEX
  8
0
 10
111.094032
 20
262.591007
 42
-0.010277
  0
SEQEND
  0
POLYLINE
  8
0
 66
1
 70
1
  0
VERTEX
  8
0
 10
132.000000
 20
261.106989
 42
-0.222864
  0
VERTEX
  8
0
 10
131.686417
 20
260.438404
 42
-0.051607
  0
VERTEX
  8
0
 10
130.626657
 20
259.727991
 42
-0.050133
  0
VERTEX
  8
0
 10
129.289774
 20
259.182761
 42
-0.071889
  0
VERTEX
  8
0
 10
128.025201
 20
259.000000
 42
-0.148799
  0
VERTEX
  8
0
 10
127.672867
 20
259.107228
 42
-0.058497
  0
VERTEX
  8
0
 10
127.283191
 20
259.440625
 42
-0.051083
  0
VERTEX
  8
0
 10
126.918601
 20
259.926101
 42
-0.043941
  0
VERTEX
  8
0
 10
126.638374
 20
260.500000
 42
-0.118031
  0
VERTEX
  8
0
 10
126.545380
 20
261.203458
 42
-0.230808
  0
VERTEX
  8
0
 10
126.837412
 20
261.672153
 42
-0.116597
  0
VERTEX
  8
0
 10
127.600201
 20
261.931524
 42
-0.023909
  0
VERTEX
  8
0
 10
129.031385
 20
262.000000
 42
-0.028481
  0
VERTEX
  8
0
 10
130.168801
 20
261.935158
 42
-0.044608
  0
VERTEX
  8
0
 10
131.127969
 20
261.737678
 42
-0.055741
  0
VERTEX
  8
0
 10
131.799415
 20
261.450963
 42
-0.270271
  0
SEQEND
  0
POLYLINE
  8
0
 66
1
 70
1
  0
VERTEX
  8
0
 10
107.000000
 20
259.080367
 42
-0.146847
  0
VERTEX
  8
0
 10
106.699471
 20
258.079161
 42
-0.098459
  0
VERTEX
  8
0
 10
105.853511
 20
257.223171
 42
-0.057001
  0
VERTEX
  8
0
 10
104.305888
 20
256.415245
 42
-0.016392
  0
VERTEX
  8
0
 10
101.750000
 20
255.527014
 42
0.006338
  0
VERTEX
  8
0
 10
99.612713
 20
254.832088
 42
0.006690
  0
VERTEX
  8
0
 10
97.532111
 20
254.095122
 42
0.006427
  0
VERTEX
  8
0
 10
95.756334
 20
253.413192
 42
0.029914
  0
VERTEX
  8
0
 10
94.763569
 20
252.946647
 42
-0.028569
  0
VERTEX
  8
0
 10
93.997663
 20
252.584198
 42
-0.022480
  0
VERTEX
  8
0
 10
93.132071
 20
252.278078
 42
-0.022989
  0
VERTEX
  8
0
 10
92.299507
 20
252.066374
 42
-0.050801
  0
VERTEX
  8
0
 10
91.647926
 20
252.000000
 42
0.104576
  0
VERTEX
  8
0
 10
90.052484
 20
251.662621
 42
0.002952
  0
VERTEX
  8
0
 10
83.628511
 20
248.773079
 42
0.006194
  0
VERTEX
  8
0
 10
77.513002
 20
245.886663
 42
0.026735
  0
VERTEX
  8
0
 10
74.000000
 20
243.936242
 42
-0.015242
  0
VERTEX
  8
0
 10
73.266693
 20
243.506779
 42
-0.006853
  0
VERTEX
  8
0
 10
72.279687
 20
242.985870
 42
-0.006777
  0
VERTEX
  8
0
 10
71.221166
 20
242.463597
 42
-0.009173
  0
VERTEX
  8
0
 10
70.250000
 20
242.022363
 42
0.066153
  0
VERTEX
  8
0
 10
69.389686
 20
241.506407
 42
0.059891
  0
VERTEX
  8
0
 10
68.660938
 20
240.768010
 42
0.063470
  0
VERTEX
  8
0
 10
68.166747
 20
239.929205
 42
0.101759
  0
VERTEX
  8
0
 10
68.000000
 20
239.118370
 42
-0.058808
  0
VERTEX
  8
0
 10
67.895581
 20
238.233640
 42
-0.177112
  0
VERTEX
  8
0
 10
67.564966
 20
237.735072
 42
-0.170532
  0
VERTEX
  8
0
 10
66.980862
 20
237.556405
 42
-0.053754
  0
VERTEX
  8
0
 10
66.064572
 20
237.693365
 42
0.102364
  0
VERTEX
  8
0
 10
64.631883
 20
237.767589
 42
0.098505
  0
VERTEX
  8
0
 10
63.265591
 20
237.270971
 42
0.044157
  0
VERTEX
  8
0
 10
61.442514
 20
235.932599
 42
0.005955
  0
VERTEX
  8
0
 10
57.910675
 20
232.750000
 42
-0.008361
  0
VERTEX
  8
0
 10
56.730080
 20
231.696395
 42
-0.012057
  0
VERTEX
  8
0
 10
55.648581
 20
230.807813
 42
-0.007859
  0
VERTEX
  8
0
 10
54.723981
 20
230.107903
 42
-0.159390
  0
VERTEX
  8
0
 10
54.394093
 20
230.000000
 42
0.183987
  0
VERTEX
  8
0
 10
53.549160
 20
229.678193
 42
0.032624
  0
VERTEX
  8
0
 10
52.339339
 20
228.449752
 42
0.033960
  0
VERTEX
  8
0
 10
51.292416
 20
227.057175
 42
0.145195
  0
VERTEX
  8
0
 10
51.000000
 20
226.071429
 42
-0.138775
  0
VERTEX
  8
0
 10
50.884373
 20
225.662852
 42
-0.100075
  0
VERTEX
  8
0
 10
50.559375
 20
225.314732
 42
-0.085667
  0
VERTEX
  8
0
 10
50.073289
 20
225.080326
 42
-0.069717
  0
VERTEX
  8
0
 10
49.500000
 20
225.000000
 42
0.124206
  0
VERTEX
  8
0
 10
48.927929
 20
224.855664
 42
0.100780
  0
VERTEX
  8
0
 10
48.440625
 20
224.449219
 42
0.090584
  0
VERTEX
  8
0
 10
48.113162
 20
223.841255
 42
0.078509
  0
VERTEX
  8
0
 10
48.000000
 20
223.125000
 42
-0.109085
  0
VERTEX
  8
0
 10
47.808364
 20
222.257071
 42
-0.112059
  0
VERTEX
  8
0
 10
47.270000
 20
221.560250
 42
-0.084595
  0
VERTEX
  8
0
 10
46.344416
 20
221.029050
 42
-0.038727
  0
VERTEX
  8
0
 10
45.000000
 20
220.650000
 42
0.039326
  0
VERTEX
  8
0
 10
43.686883
 20
220.278077
 42
0.079580
  0
VERTEX
  8
0
 10
42.753392
 20
219.751689
 42
0.105709
  0
VERTEX
  8
0
 10
42.197929
 20
219.075774
 42
0.119883
  0
VERTEX
  8
0
 10
42.000000
 20
218.262128
 42
-0.108343
  0
VERTEX
  8
0
 10
41.834020
 20
217.505129
 42
-0.062483
  0
VERTEX
  8
0
 10
41.339063
 20
216.709475
 42
-0.057996
  0
VERTEX
  8
0
 10
40.610389
 20
215.997745
 42
-0.061160
  0
VERTEX
  8
0
 10
39.750000
 20
215.487128
 42
0.117357
  0
VERTEX
  8
0
 10
38.071077
 20
214.218516
 42
0.127979
  0
VERTEX
  8
0
 10
37.209935
 20
212.367739
 42
0.167094
  0
VERTEX
  8
0
 10
37.466235
 20
210.674314
 42
0.212078
  0
VERTEX
  8
0
 10
38.691533
 20
209.700585
 42
-0.198390
  0
VERTEX
  8
0
 10
38.937445
 20
209.515489
 42
-0.486827
  0
VERTEX
  8
0
 10
38.867200
 20
209.335573
 42
-0.053402
  0
VERTEX
  8
0
 10
38.091824
 20
209.189862
 42
-0.012033
  0
VERTEX
  8
0
 10
36.750000
 20
209.116001
 42
0.023814
  0
VERTEX
  8
0
 10
35.033278
 20
208.980886
 42
0.070296
  0
VERTEX
  8
0
 10
33.894334
 20
208.669932
 42
0.120426
  0
VERTEX
  8
0
 10
33.241166
 20
208.176903
 42
0.172819
  0
VERTEX
  8
0
 10
33.000000
 20
207.500000
 42
-0.118892
  0
VERTEX
  8
0
 10
32.735648
 20
206.403980
 42
-0.312312
  0
VERTEX
  8
0
 10
32.058836
 20
206.041215
 42
-0.229970
  0
VERTEX
  8
0
 10
31.280356
 20
206.535252
 42
-0.090347
  0
VERTEX
  8
0
 10
30.804964
 20
207.750000
 42
-0.138415
  0
VERTEX
  8
0
 10
30.936785
 20
209.348872
 42
-0.071041
  0
VERTEX
  8
0
 10
31.907129
 20
211.128511
 42
-0.072264
  0
VERTEX
  8
0
 10
33.309127
 20
212.530760
 42
-0.161690
  0
VERTEX
  8
0
 10
34.722241
 20
213.000000
 42
0.116645
  0
VERTEX
  8
0
 10
35.209622
 20
213.115270
 42
0.100525
  0
VERTEX
  8
0
 10
35.624658
 20
213.440625
 42
0.093015
  0
VERTEX
  8
0
 10
35.903269
 20
213.927156
 42
0.083837
  0
VERTEX
  8
0
 10
36.000000
 20
214.500000
 42
-0.099038
  0
VERTEX
  8
0
 10
36.114514
 20
215.072457
 42
-0.097945
  0
VERTEX
  8
0
 10
36.440625
 20
215.559375
 42
-0.097945
  0
VERTEX
  8
0
 10
36.927543
 20
215.885486
 42
-0.099038
  0
VERTEX
  8
0
 10
37.500000
 20
216.000000
 42
0.139121
  0
VERTEX
  8
0
 10
38.115124
 20
216.174531
 42
0.116855
  0
VERTEX
  8
0
 10
38.595845
 20
216.655435
 42
0.088745
  0
VERTEX
  8
0
 10
38.899811
 20
217.426467
 42
0.049666
  0
VERTEX
  8
0
 10
39.000000
 20
218.432612
 42
-0.062013
  0
VERTEX
  8
0
 10
39.137393
 20
219.536140
 42
-0.089987
  0
VERTEX
  8
0
 10
39.543157
 20
220.427407
 42
-0.093234
  0
VERTEX
  8
0
 10
40.223148
 20
221.097612
 42
-0.071343
  0
VERTEX
  8
0
 10
41.165309
 20
221.552467
 42
0.078741
  0
VERTEX
  8
0
 10
43.346759
 20
222.645490
 42
0.042189
  0
VERTEX
  8
0
 10
45.645136
 20
224.604986
 42
0.041354
  0
VERTEX
  8
0
 10
47.467427
 20
226.778031
 42
0.155017
  0
VERTEX
  8
0
 10
48.000000
 20
228.454545
 42
-0.132382
  0
VERTEX
  8
0
 10
48.174584
 20
229.102387
 42
-0.123281
  0
VERTEX
  8
0
 10
48.654412
 20
229.595455
 42
-0.091939
  0
VERTEX
  8
0
 10
49.440606
 20
229.900679
 42
-0.046774
  0
VERTEX
  8
0
 10
50.500000
 20
230.000000
 42
0.047160
  0
VERTEX
  8
0
 10
51.543379
 20
230.098630
 42
0.088208
  0
VERTEX
  8
0
 10
52.333333
 20
230.400000
 42
0.118484
  0
VERTEX
  8
0
 10
52.822179
 20
230.880020
 42
0.140575
  0
VERTEX
  8
0
 10
53.000000
 20
231.500000
 42
-0.099038
  0
VERTEX
  8
0
 10
53.114514
 20
232.072457
 42
-0.097945
  0
VERTEX
  8
0
 10
53.440625
 20
232.559375
 42
-0.097945
  0
VERTEX
  8
0
 10
53.927543
 20
232.885486
 42
-0.099038
  0
VERTEX
  8
0
 10
54.500000
 20
233.000000
 42
0.099038
  0
VERTEX
  8
0
 10
55.072457
 20
233.114514
 42
0.097945
  0
VERTEX
  8
0
 10
55.559375
 20
233.440625
 42
0.097945
  0
VERTEX
  8
0
 10
55.885486
 20
233.927543
 42
0.099038
  0
VERTEX
  8
0
 10
56.000000
 20
234.500000
 42
-0.130775
  0
VERTEX
  8
0
 10
56.153209
 20
235.075754
 42
-0.102140
  0
VERTEX
  8
0
 10
56.583333
 20
235.562500
 42
-0.088920
  0
VERTEX
  8
0
 10
57.230589
 20
235.888136
 42
-0.072314
  0
VERTEX
  8
0
 10
58.000000
 20
236.000000
 42
0.072314
  0
VERTEX
  8
0
 10
58.769411
 20
236.111864
 42
0.088920
  0
VERTEX
  8
0
 10
59.416667
 20
236.437500
 42
0.102140
  0
VERTEX
  8
0
 10
59.846791
 20
236.924246
 42
0.130775
  0
VERTEX
  8
0
 10
60.000000
 20
237.500000
 42
-0.130775
  0
VERTEX
  8
0
 10
60.153209
 20
238.075754
 42
-0.102140
  0
VERTEX
  8
0
 10
60.583333
 20
238.562500
 42
-0.088920
  0
VERTEX
  8
0
 10
61.230589
 20
238.888136
 42
-0.072314
  0
VERTEX
  8
0
 10
62.000000
 20
239.000000
 42
0.075780
  0
VERTEX
  8
0
 10
62.935258
 20
239.142566
 42
0.149477
  0
VERTEX
  8
0
 10
63.550000
 20
239.562500
 42
0.124434
  0
VERTEX
  8
0
 10
63.893532
 20
240.317234
 42
0.044917
  0
VERTEX
  8
0
 10
64.000000
 20
241.500000
 42
-0.054490
  0
VERTEX
  8
0
 10
64.151756
 20
242.888366
 42
-0.201266
  0
VERTEX
  8
0
 10
64.650000
 20
243.593750
 42
-0.124134
  0
VERTEX
  8
0
 10
65.678456
 20
243.925001
 42
-0.016149
  0
VERTEX
  8
0
 10
68.000000
 20
244.000000
 42
0.019871
  0
VERTEX
  8
0
 10
69.919973
 20
244.076333
 42
0.072642
  0
VERTEX
  8
0
 10
71.104543
 20
244.346831
 42
0.136690
  0
VERTEX
  8
0
 10
71.755384
 20
244.832652
 42
0.165968
  0
VERTEX
  8
0
 10
72.000000
 20
245.549290
 42
-0.275204
  0
VERTEX
  8
0
 10
73.094485
 20
247.387186
 42
-0.013329
  0
VERTEX
  8
0
 10
79.697646
 20
250.740678
 42
-0.018784
  0
VERTEX
  8
0
 10
86.423345
 20
253.629538
 42
-0.111505
  0
VERTEX
  8
0
 10
90.184511
 20
254.182764
 42
0.035084
  0
VERTEX
  8
0
 10
91.376642
 20
254.175716
 42
0.078132
  0
VERTEX
  8
0
 10
92.259781
 20
254.373364
 42
0.121166
  0
VERTEX
  8
0
 10
92.799858
 20
254.756712
 42
0.179998
  0
VERTEX
  8
0
 10
93.000000
 20
255.294657
 42
-0.254486
  0
VERTEX
  8
0
 10
93.351647
 20
255.940810
 42
-0.025823
  0
VERTEX
  8
0
 10
94.919650
 20
256.843547
 42
-0.026388
  0
VERTEX
  8
0
 10
97.081888
 20
257.803909
 42
-0.015608
  0
VERTEX
  8
0
 10
99.750000
 20
258.729751
 42
0.000034
  0
VERTEX
  8
0
 10
102.355466
 20
259.543880
 42
0.000054
  0
VERTEX
  8
0
 10
104.590625
 20
260.242730
 42
0.000012
  0
VERTEX
  8
0
 10
106.554219
 20
260.856953
 42
0.002346
  0
VERTEX
  8
0
 10
106.750000
 20
260.919209
 42
-0.444964
  0
VERTEX
  8
0
 10
106.848450
 20
260.862219
 42
-0.018404
  0
VERTEX
  8
0
 10
106.926563
 20
260.412375
 42
-0.021534
  0
VERTEX
  8
0
 10
106.982098
 20
259.810861
 42
-0.012252
  0
SEQEND
  0
POLYLINE
  8
0
 66
1
 70
1
  0
VERTEX
  8
0
 10
121.000000
 20
260.000000
 42
-0.042167
  0
VERTEX
  8
0
 10
120.967655
 20
259.617151
 42
-0.061769
  0
VERTEX
  8
0
 10
120.870461
 20
259.293750
 42
-0.081139
  0
VERTEX
  8
0
 10
120.727648
 20
259.074460
 42
-0.210953
  0
VERTEX
  8
0
 10
120.559017
 20
259.000000
 42
-0.151918
  0
VERTEX
  8
0
 10
120.348290
 20
259.065539
 42
-0.038439
  0
VERTEX
  8
0
 10
120.066025
 20
259.293750
 42
-0.035638
  0
VERTEX
  8
0
 10
119.768994
 20
259.617226
 42
-0.029505
  0
VERTEX
  8
0
 10
119.500000
 20
260.000000
 42
-0.082592
  0
VERTEX
  8
0
 10
119.343488
 20
260.382100
 42
-0.161196
  0
VERTEX
  8
0
 10
119.374600
 20
260.706250
 42
-0.182303
  0
VERTEX
  8
0
 10
119.586039
 20
260.921712
 42
-0.108972
  0
VERTEX
  8
0
 10
119.940983
 20
261.000000
 42
-0.093332
  0
VERTEX
  8
0
 10
120.345238
 20
260.923877
 42
-0.096420
  0
VERTEX
  8
0
 10
120.688914
 20
260.706250
 42
-0.099167
  0
VERTEX
  8
0
 10
120.918938
 20
260.381556
 42
-0.105053
  0
SEQEND
  0
POLYLINE
  8
0
 66
1
 70
1
  0
VERTEX
  8
0
 10
151.369926
 20
251.030074
 42
-0.643287
  0
VERTEX
  8
0
 10
151.237591
 20
250.676228
 42
-0.010219
  0
VERTEX
  8
0
 10
148.422632
 20
250.537647
 42
-0.012376
  0
VERTEX
  8
0
 10
144.521753
 20
250.522034
 42
-0.005509
  0
VERTEX
  8
0
 10
139.383095
 20
250.685322
 42
0.032510
  0
VERTEX
  8
0
 10
124.926879
 20
250.364138
 42
0.031373
  0
VERTEX
  8
0
 10
110.458065
 20
248.178336
 42
0.030940
  0
VERTEX
  8
0
 10
96.182799
 20
244.157957
 42
0.029667
  0
VERTEX
  8
0
 10
82.304509
 20
238.360553
 42
0.037694
  0
VERTEX
  8
0
 10
71.852182
 20
232.231220
 42
0.025298
  0
VERTEX
  8
0
 10
60.874650
 20
223.776339
 42
0.024625
  0
VERTEX
  8
0
 10
50.411818
 20
213.908699
 42
0.028422
  0
VERTEX
  8
0
 10
41.490629
 20
203.500000
 42
0.070377
  0
VERTEX
  8
0
 10
28.125526
 20
179.676029
 42
0.060804
  0
VERTEX
  8
0
 10
21.044894
 20
151.860668
 42
0.059315
  0
VERTEX
  8
0
 10
20.771173
 20
122.477376
 42
0.060446
  0
VERTEX
  8
0
 10
27.425369
 20
94.047943
 42
0.027146
  0
VERTEX
  8
0
 10
29.563436
 20
89.059849
 42
0.012500
  0
VERTEX
  8
0
 10
32.854079
 20
82.803730
 42
0.011762
  0
VERTEX
  8
0
 10
36.858549
 20
76.011982
 42
0.011204
  0
VERTEX
  8
0
 10
41.241188
 20
69.303255
 42
0.031732
  0
VERTEX
  8
0
 10
46.680706
 20
62.359587
 42
0.016656
  0
VERTEX
  8
0
 10
54.251162
 20
54.414782
 42
0.010010
  0
VERTEX
  8
0
 10
61.924453
 20
47.177082
 42
0.186150
  0
VERTEX
  8
0
 10
64.976541
 20
46.000000
 42
-0.065610
  0
VERTEX
  8
0
 10
65.750082
 20
45.898057
 42
-0.082955
  0
VERTEX
  8
0
 10
66.405609
 20
45.599325
 42
-0.099122
  0
VERTEX
  8
0
 10
66.844077
 20
45.156161
 42
-0.146656
  0
VERTEX
  8
0
 10
67.000000
 20
44.636001
 42
0.166104
  0
VERTEX
  8
0
 10
67.237208
 20
43.941665
 42
0.027577
  0
VERTEX
  8
0
 10
68.175000
 20
42.858401
 42
0.027676
  0
VERTEX
  8
0
 10
69.468373
 20
41.661269
 42
0.021359
  0
VERTEX
  8
0
 10
71.000000
 20
40.500000
 42
-0.004269
  0
VERTEX
  8
0
 10
74.427968
 20
38.080836
 42
-0.194339
  0
VERTEX
  8
0
 10
74.881535
 20
37.363481
 42
-0.640096
  0
VERTEX
  8
0
 10
74.571827
 20
37.146117
 42
-0.005289
  0
VERTEX
  8
0
 10
71.250000
 20
39.125529
 42
-0.024550
  0
VERTEX
  8
0
 10
67.420988
 20
41.728564
 42
-0.009439
  0
VERTEX
  8
0
 10
62.358659
 20
45.698343
 42
-0.009378
  0
VERTEX
  8
0
 10
57.064024
 20
50.182022
 42
-0.012078
  0
VERTEX
  8
0
 10
52.379871
 20
54.507103
 42
-0.040008
  0
VERTEX
  8
0
 10
41.901257
 20
66.427799
 42
-0.031540
  0
VERTEX
  8
0
 10
32.508722
 20
80.824284
 42
-0.031797
  0
VERTEX
  8
0
 10
25.090780
 20
96.124227
 42
-0.043405
  0
VERTEX
  8
0
 10
20.548629
 20
110.750000
 42
0.037116
  0
VERTEX
  8
0
 10
20.143019
 20
112.116412
 42
0.064475
  0
VERTEX
  8
0
 10
19.585391
 20
113.158016
 42
0.084525
  0
VERTEX
  8
0
 10
18.914821
 20
113.823839
 42
0.142445
  0
VERTEX
  8
0
 10
18.170545
 20
114.078947
 42
-0.019455
  0
VERTEX
  8
0
 10
17.506201
 20
114.136308
 42
-0.208214
  0
VERTEX
  8
0
 10
17.278690
 20
114.271327
 42
-0.437683
  0
VERTEX
  8
0
 10
17.313732
 20
114.443762
 42
-0.040435
  0
VERTEX
  8
0
 10
17.750000
 20
114.662281
 42
0.172505
  0
VERTEX
  8
0
 10
18.231263
 20
115.088808
 42
0.048881
  0
VERTEX
  8
0
 10
18.632813
 20
116.022149
 42
0.043052
  0
VERTEX
  8
0
 10
18.908066
 20
117.238446
 42
0.034139
  0
VERTEX
  8
0
 10
19.000000
 20
118.583333
 42
0.024957
  0
VERTEX
  8
0
 10
18.916429
 20
120.256601
 42
0.093203
  0
VERTEX
  8
0
 10
18.620831
 20
121.263035
 42
0.156561
  0
VERTEX
  8
0
 10
18.077614
 20
121.809797
 42
0.117866
  0
VERTEX
  8
0
 10
17.250000
 20
122.015313
 42
-0.024368
  0
VERTEX
  8
0
 10
16.519404
 20
122.057351
 42
-0.206664
  0
VERTEX
  8
0
 10
16.239343
 20
122.215403
 42
-0.378752
  0
VERTEX
  8
0
 10
16.256718
 20
122.447576
 42
-0.051409
  0
VERTEX
  8
0
 10
16.672225
 20
122.776262
 42
0.220476
  0
VERTEX
  8
0
 10
17.228028
 20
123.642903
 42
0.013422
  0
VERTEX
  8
0
 10
17.572885
 20
126.782417
 42
0.014539
  0
VERTEX
  8
0
 10
17.811092
 20
131.231690
 42
0.005074
  0
VERTEX
  8
0
 10
17.902558
 20
137.644122
 42
-0.005674
  0
VERTEX
  8
0
 10
17.988864
 20
143.225596
 42
-0.007469
  0
VERTEX
  8
0
 10
18.201372
 20
148.313198
 42
-0.005616
  0
VERTEX
  8
0
 10
18.489806
 20
152.553701
 42
-0.069086
  0
VERTEX
  8
0
 10
18.838197
 20
154.133173
 42
0.030308
  0
VERTEX
  8
0
 10
19.222930
 20
155.401796
 42
0.008637
  0
VERTEX
  8
0
 10
19.665466
 20
157.413026
 42
0.008664
  0
VERTEX
  8
0
 10
20.087276
 20
159.705287
 42
0.009083
  0
VERTEX
  8
0
 10
20.422154
 20
161.975002
 42
-0.013558
  0
VERTEX
  8
0
 10
20.764123
 20
164.157365
 42
-0.016292
  0
VERTEX
  8
0
 10
21.207618
 20
166.186994
 42
-0.015073
  0
VERTEX
  8
0
 10
21.683989
 20
167.857104
 42
-0.096479
  0
VERTEX
  8
0
 10
22.104070
 20
168.625397
 42
0.102221
  0
VERTEX
  8
0
 10
22.495265
 20
169.360600
 42
0.020631
  0
VERTEX
  8
0
 10
22.854762
 20
170.804609
 42
0.020982
  0
VERTEX
  8
0
 10
23.137671
 20
172.548995
 42
0.018273
  0
VERTEX
  8
0
 10
23.289780
 20
174.393439
 42
-0.018772
  0
VERTEX
  8
0
 10
23.461370
 20
176.449048
 42
-0.052407
  0
VERTEX
  8
0
 10
23.784558
 20
177.857633
 42
-0.088482
  0
VERTEX
  8
0
 10
24.251441
 20
178.698693
 42
-0.224261
  0
VERTEX
  8
0
 10
24.866577
 20
178.993044
 42
0.148955
  0
VERTEX
  8
0
 10
25.426173
 20
179.166654
 42
0.159731
  0
VERTEX
  8
0
 10
25.775289
 20
179.618862
 42
0.097874
  0
VERTEX
  8
0
 10
25.888270
 20
180.389689
 42
0.034837
  0
VERTEX
  8
0
 10
25.755249
 20
181.500000
 42
-0.034745
  0
VERTEX
  8
0
 10
25.622182
 20
182.608959
 42
-0.097718
  0
VERTEX
  8
0
 10
25.734464
 20
183.378654
 42
-0.160129
  0
VERTEX
  8
0
 10
26.082006
 20
183.829022
 42
-0.150112
  0
VERTEX
  8
0
 10
26.638672
 20
184.000000
 42
0.145316
  0
VERTEX
  8
0
 10
27.157808
 20
184.154133
 42
0.099310
  0
VERTEX
  8
0
 10
27.600110
 20
184.587500
 42
0.083417
  0
VERTEX
  8
0
 10
27.898205
 20
185.235458
 42
0.066280
  0
VERTEX
  8
0
 10
28.000000
 20
186.000000
 42
-0.036704
  0
VERTEX
  8
0
 10
28.056303
 20
186.765949
 42
-0.055342
  0
VERTEX
  8
0
 10
28.226448
 20
187.412500
 42
-0.072551
  0
VERTEX
  8
0
 10
28.475504
 20
187.854901
 42
-0.232352
  0
VERTEX
  8
0
 10
28.770886
 20
188.000000
 42
0.233824
  0
VERTEX
  8
0
 10
29.181585
 20
188.203171
 42
0.012990
  0
VERTEX
  8
0
 10
30.043564
 20
189.395312
 42
0.017841
  0
VERTEX
  8
0
 10
31.015025
 20
190.929868
 42
0.011917
  0
VERTEX
  8
0
 10
32.020886
 20
192.750000
 42
-0.003756
  0
VERTEX
  8
0
 10
33.007385
 20
194.606013
 42
-0.005227
  0
VERTEX
  8
0
 10
33.920306
 20
196.251563
 42
-0.003285
  0
VERTEX
  8
0
 10
34.709777
 20
197.619177
 42
-0.065331
  0
VERTEX
  8
0
 10
35.005689
 20
198.000000
 42
0.039741
  0
VERTEX
  8
0
 10
36.764709
 20
200.039816
 42
0.016527
  0
VERTEX
  8
0
 10
38.817103
 20
203.045432
 42
0.011982
  0
VERTEX
  8
0
 10
40.638593
 20
206.069637
 42
0.130267
  0
VERTEX
  8
0
 10
41.000000
 20
207.433278
 42
-0.064583
  0
VERTEX
  8
0
 10
41.077691
 20
208.032253
 42
-0.082234
  0
VERTEX
  8
0
 10
41.305599
 20
208.539775
 42
-0.098809
  0
VERTEX
  8
0
 10
41.643599
 20
208.879299
 42
-0.148750
  0
VERTEX
  8
0
 10
42.040338
 20
209.000000
 42
0.196191
  0
VERTEX
  8
0
 10
43.574366
 20
209.626020
 42
0.002999
  0
VERTEX
  8
0
 10
50.516518
 20
216.506259
 42
0.003008
  0
VERTEX
  8
0
 10
57.374257
 20
223.468129
 42
0.195393
  0
VERTEX
  8
0
 10
58.000000
 20
225.008238
 42
-0.149351
  0
VERTEX
  8
0
 10
58.115552
 20
225.386455
 42
-0.098715
  0
VERTEX
  8
0
 10
58.440625
 20
225.708670
 42
-0.082026
  0
VERTEX
  8
0
 10
58.926524
 20
225.925953
 42
-0.064293
  0
VERTEX
  8
0
 10
59.500000
 20
226.000000
 42
0.064853
  0
VERTEX
  8
0
 10
60.073457
 20
226.074694
 42
0.082425
  0
VERTEX
  8
0
 10
60.559375
 20
226.293750
 42
0.098894
  0
VERTEX
  8
0
 10
60.884432
 20
226.618646
 42
0.148195
  0
VERTEX
  8
0
 10
61.000000
 20
227.000000
 42
-0.110826
  0
VERTEX
  8
0
 10
61.085610
 20
227.381490
 42
-0.099999
  0
VERTEX
  8
0
 10
61.327832
 20
227.706250
 42
-0.094786
  0
VERTEX
  8
0
 10
61.689912
 20
227.924087
 42
-0.088381
  0
VERTEX
  8
0
 10
62.116023
 20
228.000000
 42
0.123792
  0
VERTEX
  8
0
 10
62.783322
 20
228.167784
 42
0.010988
  0
VERTEX
  8
0
 10
64.304801
 20
229.028125
 42
0.013819
  0
VERTEX
  8
0
 10
66.092427
 20
230.159489
 42
0.010335
  0
VERTEX
  8
0
 10
68.000000
 20
231.500000
 42
-0.010335
  0
VERTEX
  8
0
 10
69.907573
 20
232.840511
 42
-0.013819
  0
VERTEX
  8
0
 10
71.695199
 20
233.971875
 42
-0.010988
  0
VERTEX
  8
0
 10
73.216678
 20
234.832216
 42
-0.123792
  0
VERTEX
  8
0
 10
73.883977
 20
235.000000
 42
0.069896
  0
VERTEX
  8
0
 10
74.310508
 20
235.059918
 42
0.085779
  0
VERTEX
  8
0
 10
74.672168
 20
235.234739
 42
0.100106
  0
VERTEX
  8
0
 10
74.913972
 20
235.494380
 42
0.138448
  0
VERTEX
  8
0
 10
75.000000
 20
235.799112
 42
-0.237366
  0
VERTEX
  8
0
 10
75.191819
 20
236.180403
 42
-0.026408
  0
VERTEX
  8
0
 10
76.028125
 20
236.735259
 42
-0.027614
  0
VERTEX
  8
0
 10
77.159144
 20
237.320867
 42
-0.018895
  0
VERTEX
  8
0
 10
78.500000
 20
237.863840
 42
0.022114
  0
VERTEX
  8
0
 10
79.840620
 20
238.416785
 42
0.031492
  0
VERTEX
  8
0
 10
80.971875
 20
239.032417
 42
0.032342
  0
VERTEX
  8
0
 10
81.793712
 20
239.626618
 42
0.223653
  0
VERTEX
  8
0
 10
82.000000
 20
240.064728
 42
-0.185095
  0
VERTEX
  8
0
 10
82.136866
 20
240.421779
 42
-0.090118
  0
VERTEX
  8
0
 10
82.528750
 20
240.725264
 42
-0.069969
  0
VERTEX
  8
0
 10
83.111209
 20
240.930967
 42
-0.049986
  0
VERTEX
  8
0
 10
83.800000
 20
241.000000
 42
0.043005
  0
VERTEX
  8
0
 10
84.558872
 20
241.065392
 42
0.035124
  0
VERTEX
  8
0
 10
85.350313
 20
241.260862
 42
0.036392
  0
VERTEX
  8
0
 10
86.057075
 20
241.547344
 42
0.073594
  0
VERTEX
  8
0
 10
86.550000
 20
241.888042
 42
-0.112228
  0
VERTEX
  8
0
 10
90.148447
 20
243.987651
 42
-0.010035
  0
VERTEX
  8
0
 10
100.258208
 20
246.945069
 42
-0.013796
  0
VERTEX
  8
0
 10
111.661225
 20
249.698492
 42
-0.016686
  0
VERTEX
  8
0
 10
122.500000
 20
251.625723
 42
-0.026017
  0
VERTEX
  8
0
 10
130.339974
 20
252.337808
 42
-0.014797
  0
VERTEX
  8
0
 10
139.863983
 20
252.423179
 42
-0.008189
  0
VERTEX
  8
0
 10
149.004279
 20
252.084778
 42
-0.185075
  0
SEQEND
  0
POLYLINE
  8
0
 66
1
 70
1
  0
VERTEX
  8
0
 10
161.000000
 20
249.383423
 42
-0.347462
  0
VERTEX
  8
0
 10
160.880837
 20
249.232649
 42
-0.020244
  0
VERTEX
  8
0
 10
160.265625
 20
249.112630
 42
-0.023639
  0
VERTEX
  8
0
 10
159.458419
 20
249.027631
 42
-0.014412
  0
VERTEX
  8
0
 10
158.500000
 20
249.000000
 42
-0.032714
  0
VERTEX
  8
0
 10
157.542347
 20
249.062724
 42
-0.050289
  0
VERTEX
  8
0
 10
156.734375
 20
249.253015
 42
-0.064968
  0
VERTEX
  8
0
 10
156.176307
 20
249.530586
 42
-0.249889
  0
VERTEX
  8
0
 10
156.000000
 20
249.861328
 42
-0.285831
  0
VERTEX
  8
0
 10
156.183445
 20
250.156008
 42
-0.076393
  0
VERTEX
  8
0
 10
156.734375
 20
250.329256
 42
-0.053628
  0
VERTEX
  8
0
 10
157.541823
 20
250.365641
 42
-0.031701
  0
VERTEX
  8
0
 10
158.500000
 20
250.244751
 42
-0.013875
  0
VERTEX
  8
0
 10
159.458200
 20
250.033865
 42
-0.021857
  0
VERTEX
  8
0
 10
160.265625
 20
249.794600
 42
-0.017542
  0
VERTEX
  8
0
 10
160.885601
 20
249.556361
 42
-0.300822
  0
SEQEND
  0
POLYLINE
  8
0
 66
1
 70
1
  0
VERTEX
  8
0
 10
164.729167
 20
248.395833
 42
-0.126455
  0
VERTEX
  8
0
 10
164.402231
 20
248.202593
 42
-0.060344
  0
VERTEX
  8
0
 10
163.916927
 20
248.123424
 42
-0.054150
  0
VERTEX
  8
0
 10
163.359369
 20
248.160852
 42
-0.051402
  0
VERTEX
  8
0
 10
162.812500
 20
248.316886
 42
-0.054073
  0
VERTEX
  8
0
 10
162.395823
 20
248.538436
 42
-0.470617
  0
VERTEX
  8
0
 10
162.378580
 20
248.720685
 42
-0.168741
  0
VERTEX
  8
0
 10
162.670344
 20
248.862007
 42
-0.018894
  0
VERTEX
  8
0
 10
163.416667
 20
248.921053
 42
-0.028489
  0
VERTEX
  8
0
 10
164.112848
 20
248.910055
 42
-0.077125
  0
VERTEX
  8
0
 10
164.592839
 20
248.799335
 42
-0.208169
  0
VERTEX
  8
0
 10
164.775380
 20
248.614691
 42
-0.296942
  0
SEQEND
  0
POLYLINE
  8
0
 66
1
 70
1
  0
VERTEX
  8
0
 10
135.183578
 20
244.250000
 42
0.052079
  0
VERTEX
  8
0
 10
135.536054
 20
242.663517
 42
0.195107
  0
VERTEX
  8
0
 10
136.186904
 20
241.903321
 42
0.108502
  0
VERTEX
  8
0
 10
137.437627
 20
241.568987
 42
0.011262
  0
VERTEX
  8
0
 10
140.500000
 20
241.500000
 42
0.012319
  0
VERTEX
  8
0
 10
143.365788
 20
241.570616
 42
0.087945
  0
VERTEX
  8
0
 10
144.712691
 20
241.878478
 42
0.174450
  0
VERTEX
  8
0
 10
145.432312
 20
242.542945
 42
0.084884
  0
VERTEX
  8
0
 10
145.819551
 20
243.750000
 42
-0.063200
  0
VERTEX
  8
0
 10
146.081850
 20
244.707764
 42
-0.098278
  0
VERTEX
  8
0
 10
146.556336
 20
245.417234
 42
-0.107865
  0
VERTEX
  8
0
 10
147.229196
 20
245.848990
 42
-0.089135
  0
VERTEX
  8
0
 10
148.069551
 20
246.000000
 42
-0.089105
  0
VERTEX
  8
0
 10
149.002169
 20
245.832468
 42
-0.164951
  0
VERTEX
  8
0
 10
149.592774
 20
245.352482
 42
-0.111280
  0
VERTEX
  8
0
 10
149.909840
 20
244.455446
 42
-0.029535
  0
VERTEX
  8
0
 10
150.000000
 20
242.930449
 42
0.024371
  0
VERTEX
  8
0
 10
150.081295
 20
241.263613
 42
0.148135
  0
VERTEX
  8
0
 10
150.407226
 20
240.474289
 42
0.206043
  0
VERTEX
  8
0
 10
151.052884
 20
240.139245
 42
0.053387
  0
VERTEX
  8
0
 10
152.250000
 20
240.180449
 42
0.071286
  0
VERTEX
  8
0
 10
153.227453
 20
240.465132
 42
0.090158
  0
VERTEX
  8
0
 10
154.000000
 20
241.000000
 42
0.090158
  0
VERTEX
  8
0
 10
154.534868
 20
241.772547
 42
0.071286
  0
VERTEX
  8
0
 10
154.819551
 20
242.750000
 42
-0.034957
  0
VERTEX
  8
0
 10
155.004048
 20
243.611524
 42
-0.049551
  0
VERTEX
  8
0
 10
155.294528
 20
244.339063
 42
-0.060860
  0
VERTEX
  8
0
 10
155.639337
 20
244.842567
 42
-0.215434
  0
VERTEX
  8
0
 10
155.987763
 20
245.000000
 42
-0.075560
  0
VERTEX
  8
0
 10
157.523686
 20
244.766560
 42
-0.089552
  0
VERTEX
  8
0
 10
158.823835
 20
244.089204
 42
-0.101184
  0
VERTEX
  8
0
 10
159.691487
 20
243.080148
 42
-0.127817
  0
VERTEX
  8
0
 10
160.000000
 20
241.893011
 42
0.081193
  0
VERTEX
  8
0
 10
160.132149
 20
241.084583
 42
0.122815
  0
VERTEX
  8
0
 10
160.514129
 20
240.486626
 42
0.118272
  0
VERTEX
  8
0
 10
161.144510
 20
240.123622
 42
0.071879
  0
VERTEX
  8
0
 10
162.000000
 20
240.000000
 42
0.071853
  0
VERTEX
  8
0
 10
162.796893
 20
240.115113
 42
0.097797
  0
VERTEX
  8
0
 10
163.438859
 20
240.450874
 42
0.110377
  0
VERTEX
  8
0
 10
163.852481
 20
240.968618
 42
0.114041
  0
VERTEX
  8
0
 10
164.000000
 20
241.606989
 42
-0.076855
  0
VERTEX
  8
0
 10
164.101342
 20
242.262395
 42
-0.176865
  0
VERTEX
  8
0
 10
164.401650
 20
242.651801
 42
-0.167010
  0
VERTEX
  8
0
 10
164.896449
 20
242.769113
 42
-0.067159
  0
VERTEX
  8
0
 10
165.581787
 20
242.606989
 42
0.016969
  0
VERTEX
  8
0
 10
166.254744
 20
242.374624
 42
0.015089
  0
VERTEX
  8
0
 10
166.968650
 20
242.178303
 42
0.015326
  0
VERTEX
  8
0
 10
167.621647
 20
242.040803
 42
0.044250
  0
VERTEX
  8
0
 10
168.081787
 20
242.000000
 42
-0.289487
  0
VERTEX
  8
0
 10
168.436760
 20
241.775682
 42
-0.046808
  0
VERTEX
  8
0
 10
168.730275
 20
240.971875
 42
-0.039386
  0
VERTEX
  8
0
 10
168.933484
 20
239.841255
 42
-0.024781
  0
VERTEX
  8
0
 10
169.000000
 20
238.500000
 42
0.022206
  0
VERTEX
  8
0
 10
169.082442
 20
236.644596
 42
0.113045
  0
VERTEX
  8
0
 10
169.399544
 20
235.667936
 42
0.181392
  0
VERTEX
  8
0
 10
170.025598
 20
235.169046
 42
0.078650
  0
VERTEX
  8
0
 10
171.093620
 20
235.000000
 42
0.079954
  0
VERTEX
  8
0
 10
171.985124
 20
235.143476
 42
0.085889
  0
VERTEX
  8
0
 10
172.762416
 20
235.558568
 42
0.085466
  0
VERTEX
  8
0
 10
173.357887
 20
236.212784
 42
0.078191
  0
VERTEX
  8
0
 10
173.722914
 20
237.048424
 42
-0.067214
  0
VERTEX
  8
0
 10
174.053044
 20
237.851542
 42
-0.093974
  0
VERTEX
  8
0
 10
174.558712
 20
238.437918
 42
-0.107159
  0
VERTEX
  8
0
 10
175.188659
 20
238.748667
 42
-0.112441
  0
VERTEX
  8
0
 10
175.879295
 20
238.763051
 42
-0.133058
  0
VERTEX
  8
0
 10
176.622546
 20
238.387671
 42
-0.131173
  0
VERTEX
  8
0
 10
177.079562
 20
237.686601
 42
-0.076984
  0
VERTEX
  8
0
 10
177.269690
 20
236.531783
 42
-0.022078
  0
VERTEX
  8
0
 10
177.206718
 20
234.714627
 42
0.020140
  0
VERTEX
  8
0
 10
177.138145
 20
232.935091
 42
0.075879
  0
VERTEX
  8
0
 10
177.308004
 20
231.835247
 42
0.148074
  0
VERTEX
  8
0
 10
177.720356
 20
231.230839
 42
0.171162
  0
VERTEX
  8
0
 10
178.374930
 20
231.000000
 42
0.054099
  0
VERTEX
  8
0
 10
180.148870
 20
231.192500
 42
0.074409
  0
VERTEX
  8
0
 10
181.645026
 20
231.763751
 42
0.094363
  0
VERTEX
  8
0
 10
182.646611
 20
232.609849
 42
0.171961
  0
VERTEX
  8
0
 10
183.000000
 20
233.606989
 42
-0.124682
  0
VERTEX
  8
0
 10
183.243608
 20
234.568724
 42
-0.281973
  0
VERTEX
  8
0
 10
183.868425
 20
234.930594
 42
-0.129901
  0
VERTEX
  8
0
 10
184.938832
 20
234.619229
 42
-0.027585
  0
VERTEX
  8
0
 10
186.558870
 20
233.519003
 42
-0.024238
  0
VERTEX
  8
0
 10
187.517227
 20
232.711451
 42
-0.145267
  0
VERTEX
  8
0
 10
187.845471
 20
232.155832
 42
-0.239809
  0
VERTEX
  8
0
 10
187.733624
 20
231.668582
 42
-0.073037
  0
VERTEX
  8
0
 10
187.151607
 20
231.149176
 42
0.179237
  0
VERTEX
  8
0
 10
186.210982
 20
229.867957
 42
0.164817
  0
VERTEX
  8
0
 10
186.289834
 20
228.230435
 42
0.125410
  0
VERTEX
  8
0
 10
187.439035
 20
226.635353
 42
0.089936
  0
VERTEX
  8
0
 10
189.356967
 20
225.543422
 42
0.028978
  0
VERTEX
  8
0
 10
190.894861
 20
225.100808
 42
0.105105
  0
VERTEX
  8
0
 10
191.906844
 20
225.087804
 42
0.130601
  0
VERTEX
  8
0
 10
192.713467
 20
225.483758
 42
0.055900
  0
VERTEX
  8
0
 10
193.532249
 20
226.374990
 42
-0.035509
  0
VERTEX
  8
0
 10
194.346846
 20
227.337495
 42
-0.168948
  0
VERTEX
  8
0
 10
194.982567
 20
227.654612
 42
-0.156659
  0
VERTEX
  8
0
 10
195.706444
 20
227.520783
 42
-0.029360
  0
VERTEX
  8
0
 10
196.868933
 20
226.804356
 42
-0.042541
  0
VERTEX
  8
0
 10
197.737071
 20
226.078985
 42
-0.107323
  0
VERTEX
  8
0
 10
198.183114
 20
225.392038
 42
-0.138644
  0
VERTEX
  8
0
 10
198.243473
 20
224.696262
 42
-0.094039
  0
VERTEX
  8
0
 10
197.949248
 20
223.952123
 42
0.043479
  0
VERTEX
  8
0
 10
197.596074
 20
223.268989
 42
0.026620
  0
VERTEX
  8
0
 10
197.295973
 20
222.412499
 42
0.026580
  0
VERTEX
  8
0
 10
197.087772
 20
221.525857
 42
0.042211
  0
VERTEX
  8
0
 10
197.015313
 20
220.750000
 42
0.228423
  0
VERTEX
  8
0
 10
197.607252
 20
219.493915
 42
0.181068
  0
VERTEX
  8
0
 10
199.047672
 20
219.011757
 42
0.142619
  0
VERTEX
  8
0
 10
200.724285
 20
219.564715
 42
0.153901
  0
VERTEX
  8
0
 10
201.782224
 20
220.918077
 42
-0.044744
  0
VERTEX
  8
0
 10
202.293481
 20
221.983217
 42
-0.302451
  0
VERTEX
  8
0
 10
202.795094
 20
222.223329
 42
-0.135002
  0
VERTEX
  8
0
 10
203.511809
 20
221.912382
 42
-0.008399
  0
VERTEX
  8
0
 10
205.305764
 20
220.418077
 42
-0.006098
  0
VERTEX
  8
0
 10
206.988038
 20
218.932117
 42
-0.134383
  0
VERTEX
  8
0
 10
207.336949
 20
218.385268
 42
-0.460527
  0
VERTEX
  8
0
 10
207.144026
 20
218.079178
 42
-0.036330
  0
VERTEX
  8
0
 10
206.055764
 20
218.000000
 42
0.071209
  0
VERTEX
  8
0
 10
205.084129
 20
217.860917
 42
0.150687
  0
VERTEX
  8
0
 10
204.455576
 20
217.445977
 42
0.127891
  0
VERTEX
  8
0
 10
204.107420
 20
216.694378
 42
0.044878
  0
VERTEX
  8
0
 10
204.000000
 20
215.500000
 42
0.045527
  0
VERTEX
  8
0
 10
204.115743
 20
214.231486
 42
0.152009
  0
VERTEX
  8
0
 10
204.500000
 20
213.500000
 42
0.152009
  0
VERTEX
  8
0
 10
205.231486
 20
213.115743
 42
0.045527
  0
VERTEX
  8
0
 10
206.500000
 20
213.000000
 42
0.047160
  0
VERTEX
  8
0
 10
207.543379
 20
213.098630
 42
0.088208
  0
VERTEX
  8
0
 10
208.333333
 20
213.400000
 42
0.118484
  0
VERTEX
  8
0
 10
208.822179
 20
213.880020
 42
0.140575
  0
VERTEX
  8
0
 10
209.000000
 20
214.500000
 42
-0.089645
  0
VERTEX
  8
0
 10
209.198648
 20
215.599072
 42
-0.370992
  0
VERTEX
  8
0
 10
209.744511
 20
215.899174
 42
-0.142701
  0
VERTEX
  8
0
 10
210.662543
 20
215.407946
 42
-0.020387
  0
VERTEX
  8
0
 10
212.140787
 20
213.837671
 42
-0.022204
  0
VERTEX
  8
0
 10
213.161413
 20
212.549544
 42
-0.133283
  0
VERTEX
  8
0
 10
213.460384
 20
211.756804
 42
-0.168371
  0
VERTEX
  8
0
 10
213.281303
 20
211.018539
 42
-0.041017
  0
VERTEX
  8
0
 10
212.508082
 20
210.008931
 42
0.043279
  0
VERTEX
  8
0
 10
211.930853
 20
209.248138
 42
0.034557
  0
VERTEX
  8
0
 10
211.442999
 20
208.341095
 42
0.035675
  0
VERTEX
  8
0
 10
211.107807
 20
207.431482
 42
0.070552
  0
VERTEX
  8
0
 10
211.000000
 20
206.671259
 42
0.267274
  0
VERTEX
  8
0
 10
211.686966
 20
205.477929
 42
0.129687
  0
VERTEX
  8
0
 10
213.442079
 20
204.995616
 42
0.106274
  0
VERTEX
  8
0
 10
215.480508
 20
205.412016
 42
0.163262
  0
VERTEX
  8
0
 10
216.802619
 20
206.611783
 42
-0.086031
  0
VERTEX
  8
0
 10
217.372040
 20
207.313284
 42
-0.294502
  0
VERTEX
  8
0
 10
217.926509
 20
207.393967
 42
-0.118661
  0
VERTEX
  8
0
 10
218.615617
 20
206.854130
 42
-0.012820
  0
VERTEX
  8
0
 10
219.839702
 20
205.225118
 42
0.000000
  0
VERTEX
  8
0
 10
221.974786
 20
202.226669
 42
0.000000
  0
VERTEX
  8
0
 10
219.908285
 20
201.686267
 42
0.067355
  0
VERTEX
  8
0
 10
218.976525
 20
201.302952
 42
0.125410
  0
VERTEX
  8
0
 10
218.396398
 20
200.735551
 42
0.117588
  0
VERTEX
  8
0
 10
218.136490
 20
199.932111
 42
0.055086
  0
VERTEX
  8
0
 10
218.170892
 20
198.833148
 42
0.132535
  0
VERTEX
  8
0
 10
218.885331
 20
197.166110
 42
0.163639
  0
VERTEX
  8
0
 10
220.293492
 20
196.247607
 42
0.165238
  0
VERTEX
  8
0
 10
221.959705
 20
196.371049
 42
0.135306
  0
VERTEX
  8
0
 10
223.366620
 20
197.486705
 42
-0.041498
  0
VERTEX
  8
0
 10
224.105136
 20
198.338443
 42
-0.292672
  0
VERTEX
  8
0
 10
224.617325
 20
198.444450
 42
-0.166208
  0
VERTEX
  8
0
 10
225.134492
 20
198.013460
 42
-0.013810
  0
VERTEX
  8
0
 10
226.013887
 20
196.474052
 42
-0.019560
  0
VERTEX
  8
0
 10
226.776313
 20
194.904865
 42
-0.122360
  0
VERTEX
  8
0
 10
226.925812
 20
194.032165
 42
-0.170604
  0
VERTEX
  8
0
 10
226.622899
 20
193.338645
 42
-0.047452
  0
VERTEX
  8
0
 10
225.722776
 20
192.539239
 42
0.204802
  0
VERTEX
  8
0
 10
224.300573
 20
190.141746
 42
0.173630
  0
VERTEX
  8
0
 10
224.926147
 20
187.241493
 42
0.134668
  0
VERTEX
  8
0
 10
227.494700
 20
184.863954
 42
0.120344
  0
VERTEX
  8
0
 10
231.032224
 20
184.000000
 42
-0.041257
  0
VERTEX
  8
0
 10
232.509603
 20
183.877888
 42
-0.090560
  0
VERTEX
  8
0
 10
233.572889
 20
183.495098
 42
-0.104265
  0
VERTEX
  8
0
 10
234.339364
 20
182.803668
 42
-0.067874
  0
VERTEX
  8
0
 10
234.906132
 20
181.750000
 42
-0.046082
  0
VERTEX
  8
0
 10
235.245146
 20
180.505054
 42
-0.193557
  0
VERTEX
  8
0
 10
235.087716
 20
179.761406
 42
-0.153621
  0
VERTEX
  8
0
 10
234.424554
 20
179.230668
 42
-0.026383
  0
VERTEX
  8
0
 10
232.873908
 20
178.721408
 42
0.042383
  0
VERTEX
  8
0
 10
231.568214
 20
178.245853
 42
0.088416
  0
VERTEX
  8
0
 10
230.684185
 20
177.627499
 42
0.108228
  0
VERTEX
  8
0
 10
230.177203
 20
176.833802
 42
0.088434
  0
VERTEX
  8
0
 10
230.000000
 20
175.839739
 42
0.072274
  0
VERTEX
  8
0
 10
230.163311
 20
174.715833
 42
0.231224
  0
VERTEX
  8
0
 10
230.661717
 20
174.173327
 42
0.114075
  0
VERTEX
  8
0
 10
231.679800
 20
174.023505
 42
0.013070
  0
VERTEX
  8
0
 10
234.000000
 20
174.273174
 42
-0.015174
  0
VERTEX
  8
0
 10
235.534677
 20
174.431786
 42
-0.025534
  0
VERTEX
  8
0
 10
236.829011
 20
174.459726
 42
-0.023647
  0
VERTEX
  8
0
 10
237.806512
 20
174.384546
 42
-0.372385
  0
VERTEX
  8
0
 10
238.013655
 20
174.154843
 42
0.040721
  0
VERTEX
  8
0
 10
238.052794
 20
173.773383
 42
0.006383
  0
VERTEX
  8
0
 10
238.200423
 20
173.031423
 42
0.007060
  0
VERTEX
  8
0
 10
238.398430
 20
172.159448
 42
0.006106
  0
VERTEX
  8
0
 10
238.630286
 20
171.250000
 42
-0.036755
  0
VERTEX
  8
0
 10
238.852099
 20
170.086359
 42
-0.178633
  0
VERTEX
  8
0
 10
238.695948
 20
169.444534
 42
-0.199953
  0
VERTEX
  8
0
 10
238.175195
 20
169.100440
 42
-0.047336
  0
VERTEX
  8
0
 10
237.116631
 20
169.000000
 42
0.067615
  0
VERTEX
  8
0
 10
236.092449
 20
168.860863
 42
0.156805
  0
VERTEX
  8
0
 10
235.451584
 20
168.439955
 42
0.130003
  0
VERTEX
  8
0
 10
235.104141
 20
167.662012
 42
0.040392
  0
VERTEX
  8
0
 10
235.000000
 20
166.375000
 42
0.032337
  0
VERTEX
  8
0
 10
235.096591
 20
164.883074
 42
0.215167
  0
VERTEX
  8
0
 10
235.478571
 20
164.264464
 42
0.178339
  0
VERTEX
  8
0
 10
236.245300
 20
164.076198
 42
0.021305
  0
VERTEX
  8
0
 10
238.000000
 20
164.350000
 42
-0.022055
  0
VERTEX
  8
0
 10
239.151199
 20
164.527865
 42
-0.037678
  0
VERTEX
  8
0
 10
240.122761
 20
164.560781
 42
-0.046311
  0
VERTEX
  8
0
 10
240.817218
 20
164.467156
 42
-0.344034
  0
VERTEX
  8
0
 10
241.013655
 20
164.225000
 42
0.039350
  0
VERTEX
  8
0
 10
241.054034
 20
163.812129
 42
0.007057
  0
VERTEX
  8
0
 10
241.200423
 20
163.052031
 42
0.007580
  0
VERTEX
  8
0
 10
241.398442
 20
162.164581
 42
0.006785
  0
VERTEX
  8
0
 10
241.630286
 20
161.250000
 42
-0.039829
  0
VERTEX
  8
0
 10
241.854098
 20
160.035378
 42
-0.211216
  0
VERTEX
  8
0
 10
241.650355
 20
159.407361
 42
-0.183090
  0
VERTEX
  8
0
 10
241.023230
 20
159.081983
 42
-0.029118
  0
VERTEX
  8
0
 10
239.616631
 20
159.000000
 42
0.041020
  0
VERTEX
  8
0
 10
238.268459
 20
158.889210
 42
0.150782
  0
VERTEX
  8
0
 10
237.511663
 20
158.511143
 42
0.157442
  0
VERTEX
  8
0
 10
237.118139
 20
157.783675
 42
0.045919
  0
VERTEX
  8
0
 10
237.000000
 20
156.500000
 42
0.049887
  0
VERTEX
  8
0
 10
237.135396
 20
155.146338
 42
0.185339
  0
VERTEX
  8
0
 10
237.586916
 20
154.435506
 42
0.137163
  0
VERTEX
  8
0
 10
238.496164
 20
154.087277
 42
0.023286
  0
VERTEX
  8
0
 10
240.369158
 20
154.000000
 42
-0.030263
  0
VERTEX
  8
0
 10
242.346335
 20
153.880218
 42
-0.159715
  0
VERTEX
  8
0
 10
243.317300
 20
153.425747
 42
-0.141870
  0
VERTEX
  8
0
 10
243.892658
 20
152.453625
 42
-0.022189
  0
VERTEX
  8
0
 10
244.358152
 20
150.250000
 42
-0.029860
  0
VERTEX
  8
0
 10
244.928869
 20
144.787758
 42
-0.086265
  0
VERTEX
  8
0
 10
244.446092
 20
141.027763
 42
-0.149932
  0
VERTEX
  8
0
 10
242.956004
 20
138.837746
 42
-0.170550
  0
VERTEX
  8
0
 10
240.571429
 20
138.000000
 42
0.184762
  0
VERTEX
  8
0
 10
239.817640
 20
137.711612
 42
0.135038
  0
VERTEX
  8
0
 10
239.328181
 20
136.950568
 42
0.062378
  0
VERTEX
  8
0
 10
239.068342
 20
135.510323
 42
0.013475
  0
VERTEX
  8
0
 10
239.000000
 20
132.975000
 42
0.011956
  0
VERTEX
  8
0
 10
239.074584
 20
129.856294
 42
0.112693
  0
VERTEX
  8
0
 10
239.432377
 20
128.574761
 42
0.179821
  0
VERTEX
  8
0
 10
240.253965
 20
127.856699
 42
0.041279
  0
VERTEX
  8
0
 10
242.054815
 20
127.339037
 42
-0.029562
  0
VERTEX
  8
0
 10
243.419864
 20
126.981014
 42
-0.093479
  0
VERTEX
  8
0
 10
244.244966
 20
126.528088
 42
-0.162652
  0
VERTEX
  8
0
 10
244.598822
 20
125.963526
 42
-0.152108
  0
VERTEX
  8
0
 10
244.554815
 20
125.282250
 42
0.018393
  0
VERTEX
  8
0
 10
244.342406
 20
124.661366
 42
0.015583
  0
VERTEX
  8
0
 10
244.162977
 20
123.991411
 42
0.015865
  0
VERTEX
  8
0
 10
244.037851
 20
123.370290
 42
0.041790
  0
VERTEX
  8
0
 10
244.000000
 20
122.918213
 42
-0.267736
  0
VERTEX
  8
0
 10
243.796077
 20
122.564681
 42
-0.056906
  0
VERTEX
  8
0
 10
243.118750
 20
122.269725
 42
-0.045305
  0
VERTEX
  8
0
 10
242.149411
 20
122.066694
 42
-0.028988
  0
VERTEX
  8
0
 10
241.000000
 20
122.000000
 42
0.030703
  0
VERTEX
  8
0
 10
239.499083
 20
121.907747
 42
0.116834
  0
VERTEX
  8
0
 10
238.625000
 20
121.583333
 42
0.166173
  0
VERTEX
  8
0
 10
238.159458
 20
120.975317
 42
0.081208
  0
VERTEX
  8
0
 10
238.000000
 20
120.000000
 42
0.075780
  0
VERTEX
  8
0
 10
238.142566
 20
119.064742
 42
0.149477
  0
VERTEX
  8
0
 10
238.562500
 20
118.450000
 42
0.124434
  0
VERTEX
  8
0
 10
239.317234
 20
118.106468
 42
0.044917
  0
VERTEX
  8
0
 10
240.500000
 20
118.000000
 42
-0.047675
  0
VERTEX
  8
0
 10
241.824437
 20
117.873428
 42
-0.173074
  0
VERTEX
  8
0
 10
242.541667
 20
117.450000
 42
-0.144586
  0
VERTEX
  8
0
 10
242.902765
 20
116.613599
 42
-0.030103
  0
VERTEX
  8
0
 10
243.000000
 20
115.000000
 42
-0.032088
  0
VERTEX
  8
0
 10
242.888231
 20
113.260192
 42
-0.185552
  0
VERTEX
  8
0
 10
242.458333
 20
112.464286
 42
-0.157079
  0
VERTEX
  8
0
 10
241.561026
 20
112.088063
 42
-0.021354
  0
VERTEX
  8
0
 10
239.500000
 20
112.000000
 42
0.022584
  0
VERTEX
  8
0
 10
237.682371
 20
111.917860
 42
0.106579
  0
VERTEX
  8
0
 10
236.691708
 20
111.608504
 42
0.176216
  0
VERTEX
  8
0
 10
236.179020
 20
111.008289
 42
0.089755
  0
VERTEX
  8
0
 10
236.000000
 20
110.019052
 42
0.094397
  0
VERTEX
  8
0
 10
236.169753
 20
109.127917
 42
0.099484
  0
VERTEX
  8
0
 10
236.654109
 20
108.380158
 42
0.085812
  0
VERTEX
  8
0
 10
237.457417
 20
107.798762
 42
0.052393
  0
VERTEX
  8
0
 10
238.559644
 20
107.395674
 42
-0.040126
  0
VERTEX
  8
0
 10
239.652224
 20
107.026176
 42
-0.101259
  0
VERTEX
  8
0
 10
240.337885
 20
106.548836
 42
-0.150094
  0
VERTEX
  8
0
 10
240.627707
 20
105.968035
 42
-0.133610
  0
VERTEX
  8
0
 10
240.559644
 20
105.294835
 42
0.019049
  0
VERTEX
  8
0
 10
240.345377
 20
104.665826
 42
0.015785
  0
VERTEX
  8
0
 10
240.164396
 20
103.981797
 42
0.016075
  0
VERTEX
  8
0
 10
240.038407
 20
103.343710
 42
0.040720
  0
VERTEX
  8
0
 10
240.000000
 20
102.872899
 42
-0.317765
  0
VERTEX
  8
0
 10
239.758846
 20
102.531762
 42
-0.064892
  0
VERTEX
  8
0
 10
238.994060
 20
102.368357
 42
-0.044551
  0
VERTEX
  8
0
 10
237.851077
 20
102.377673
 42
-0.022066
  0
VERTEX
  8
0
 10
236.413745
 20
102.582159
 42
0.011980
  0
VERTEX
  8
0
 10
234.216887
 20
102.940040
 42
0.156407
  0
VERTEX
  8
0
 10
233.412875
 20
102.799732
 42
0.274957
  0
VERTEX
  8
0
 10
233.076911
 20
102.253079
 42
0.038750
  0
VERTEX
  8
0
 10
233.163745
 20
100.877473
 42
0.064102
  0
VERTEX
  8
0
 10
233.453422
 20
99.824780
 42
0.092229
  0
VERTEX
  8
0
 10
233.982216
 20
99.018545
 42
0.094939
  0
VERTEX
  8
0
 10
234.752511
 20
98.472049
 42
0.071788
  0
VERTEX
  8
0
 10
235.750000
 20
98.180449
 42
-0.025601
  0
VERTEX
  8
0
 10
237.348946
 20
97.869173
 42
-0.245269
  0
VERTEX
  8
0
 10
237.852400
 20
97.423582
 42
-0.199825
  0
VERTEX
  8
0
 10
237.830997
 20
96.690939
 42
-0.016936
  0
VERTEX
  8
0
 10
236.980304
 20
94.963198
 42
-0.070719
  0
VERTEX
  8
0
 10
236.326479
 20
94.071338
 42
-0.120749
  0
VERTEX
  8
0
 10
235.546633
 20
93.586036
 42
-0.095614
  0
VERTEX
  8
0
 10
234.498541
 20
93.453619
 42
-0.033117
  0
VERTEX
  8
0
 10
232.980304
 20
93.653939
 42
0.021323
  0
VERTEX
  8
0
 10
231.308634
 20
93.914726
 42
0.153865
  0
VERTEX
  8
0
 10
230.518663
 20
93.760161
 42
0.222296
  0
VERTEX
  8
0
 10
230.117127
 20
93.214919
 42
0.049361
  0
VERTEX
  8
0
 10
230.000000
 20
92.031380
 42
0.070651
  0
VERTEX
  8
0
 10
230.134053
 20
91.087422
 42
0.083963
  0
VERTEX
  8
0
 10
230.524827
 20
90.277778
 42
0.087942
  0
VERTEX
  8
0
 10
231.142160
 20
89.669320
 42
0.086955
  0
VERTEX
  8
0
 10
231.933361
 20
89.307176
 42
-0.050964
  0
VERTEX
  8
0
 10
232.921386
 20
88.937966
 42
-0.210570
  0
VERTEX
  8
0
 10
233.320986
 20
88.459931
 42
-0.153847
  0
VERTEX
  8
0
 10
233.303512
 20
87.735341
 42
-0.024534
  0
VERTEX
  8
0
 10
232.772845
 20
86.400795
 42
-0.046849
  0
VERTEX
  8
0
 10
231.903133
 20
84.885877
 42
-0.127791
  0
VERTEX
  8
0
 10
230.966679
 20
84.094219
 42
-0.340862
  0
VERTEX
  8
0
 10
230.306899
 20
84.234446
 42
-0.177931
  0
VERTEX
  8
0
 10
230.000000
 20
85.069551
 42
0.357578
  0
VERTEX
  8
0
 10
229.331080
 20
85.885304
 42
0.128212
  0
VERTEX
  8
0
 10
227.718757
 20
85.791887
 42
0.090561
  0
VERTEX
  8
0
 10
225.953795
 20
84.842448
 42
0.180133
  0
VERTEX
  8
0
 10
225.148747
 20
83.500000
 42
-0.052451
  0
VERTEX
  8
0
 10
224.904051
 20
82.675651
 42
-0.042003
  0
VERTEX
  8
0
 10
224.478364
 20
81.852591
 42
-0.043451
  0
VERTEX
  8
0
 10
223.947566
 20
81.151623
 42
-0.078487
  0
VERTEX
  8
0
 10
223.388531
 20
80.700310
 42
0.171437
  0
VERTEX
  8
0
 10
222.430835
 20
79.583151
 42
0.082533
  0
VERTEX
  8
0
 10
222.042935
 20
77.712160
 42
0.078910
  0
VERTEX
  8
0
 10
222.278035
 20
75.724948
 42
0.128232
  0
VERTEX
  8
0
 10
223.132783
 20
74.267217
 42
-0.093429
  0
VERTEX
  8
0
 10
223.516585
 20
73.705107
 42
-0.062890
  0
VERTEX
  8
0
 10
223.737300
 20
72.957700
 42
-0.060657
  0
VERTEX
  8
0
 10
223.770017
 20
72.147639
 42
-0.071524
  0
VERTEX
  8
0
 10
223.600000
 20
71.400000
 42
-0.039612
  0
VERTEX
  8
0
 10
223.216909
 20
70.597930
 42
-0.188664
  0
VERTEX
  8
0
 10
222.826989
 20
70.287054
 42
-0.220316
  0
VERTEX
  8
0
 10
222.370779
 20
70.348354
 42
-0.054586
  0
VERTEX
  8
0
 10
221.767217
 20
70.832783
 42
0.063632
  0
VERTEX
  8
0
 10
221.189073
 20
71.279917
 42
0.039129
  0
VERTEX
  8
0
 10
220.414120
 20
71.657130
 42
0.038699
  0
VERTEX
  8
0
 10
219.574732
 20
71.914411
 42
0.055070
  0
VERTEX
  8
0
 10
218.800000
 20
72.000000
 42
0.215809
  0
VERTEX
  8
0
 10
217.591856
 20
71.453070
 42
0.161174
  0
VERTEX
  8
0
 10
217.013855
 20
70.089767
 42
0.135124
  0
VERTEX
  8
0
 10
217.322809
 20
68.458887
 42
0.151396
  0
VERTEX
  8
0
 10
218.416550
 20
67.299690
 42
-0.089130
  0
VERTEX
  8
0
 10
219.048857
 20
66.775991
 42
-0.217901
  0
VERTEX
  8
0
 10
219.207654
 20
66.207066
 42
-0.113797
  0
VERTEX
  8
0
 10
218.899129
 20
65.442450
 42
-0.017944
  0
VERTEX
  8
0
 10
217.916550
 20
64.139216
 42
-0.012821
  0
VERTEX
  8
0
 10
216.945630
 20
63.004012
 42
-0.116674
  0
VERTEX
  8
0
 10
216.413859
 20
62.636051
 42
-0.417399
  0
VERTEX
  8
0
 10
216.113473
 20
62.769411
 42
-0.090785
  0
VERTEX
  8
0
 10
216.000000
 20
63.389216
 42
0.121565
  0
VERTEX
  8
0
 10
215.830184
 20
64.077353
 42
0.129350
  0
VERTEX
  8
0
 10
215.361990
 20
64.588922
 42
0.097132
  0
VERTEX
  8
0
 10
214.580997
 20
64.899693
 42
0.046296
  0
VERTEX
  8
0
 10
213.500000
 20
65.000000
 42
0.151855
  0
VERTEX
  8
0
 10
211.843856
 20
64.485139
 42
0.193737
  0
VERTEX
  8
0
 10
210.968362
 20
63.164027
 42
0.181801
  0
VERTEX
  8
0
 10
211.226427
 20
61.535497
 42
0.136784
  0
VERTEX
  8
0
 10
212.523971
 20
60.246523
 42
-0.091446
  0
VERTEX
  8
0
 10
213.191039
 20
59.693058
 42
-0.254433
  0
VERTEX
  8
0
 10
213.306609
 20
59.115610
 42
-0.114660
  0
VERTEX
  8
0
 10
212.863481
 20
58.357724
 42
-0.014801
  0
VERTEX
  8
0
 10
211.523971
 20
57.022519
 42
-0.010270
  0
VERTEX
  8
0
 10
210.139818
 20
55.774692
 42
-0.111390
  0
VERTEX
  8
0
 10
209.480914
 20
55.422189
 42
-0.389918
  0
VERTEX
  8
0
 10
209.128936
 20
55.602843
 42
-0.088488
  0
VERTEX
  8
0
 10
209.000000
 20
56.325686
 42
0.112053
  0
VERTEX
  8
0
 10
208.834859
 20
57.053322
 42
0.134383
  0
VERTEX
  8
0
 10
208.376713
 20
57.582569
 42
0.102001
  0
VERTEX
  8
0
 10
207.600552
 20
57.898730
 42
0.045912
  0
VERTEX
  8
0
 10
206.500000
 20
58.000000
 42
0.151756
  0
VERTEX
  8
0
 10
204.834680
 20
57.482641
 42
0.197005
  0
VERTEX
  8
0
 10
203.968020
 20
56.157935
 42
0.182057
  0
VERTEX
  8
0
 10
204.249058
 20
54.519312
 42
0.133425
  0
VERTEX
  8
0
 10
205.578395
 20
53.216066
 42
-0.061310
  0
VERTEX
  8
0
 10
206.313718
 20
52.676915
 42
-0.299039
  0
VERTEX
  8
0
 10
206.427880
 20
52.199055
 42
-0.146909
  0
VERTEX
  8
0
 10
206.017242
 20
51.645648
 42
-0.015164
  0
VERTEX
  8
0
 10
204.670957
 20
50.703972
 42
-0.014949
  0
VERTEX
  8
0
 10
203.258997
 20
49.838011
 42
-0.116954
  0
VERTEX
  8
0
 10
202.524991
 20
49.621051
 42
-0.238721
  0
VERTEX
  8
0
 10
202.031169
 20
49.838106
 42
-0.080573
  0
VERTEX
  8
0
 10
201.623947
 20
50.537596
 42
0.205227
  0
VERTEX
  8
0
 10
200.476864
 20
51.717625
 42
0.118332
  0
VERTEX
  8
0
 10
198.487759
 20
52.036895
 42
0.129835
  0
VERTEX
  8
0
 10
196.695180
 20
51.413577
 42
0.249472
  0
VERTEX
  8
0
 10
196.000000
 20
50.106989
 42
0.079650
  0
VERTEX
  8
0
 10
196.123619
 20
49.335897
 42
0.065441
  0
VERTEX
  8
0
 10
196.485715
 20
48.583663
 42
0.066627
  0
VERTEX
  8
0
 10
197.021366
 20
47.963463
 42
0.089980
  0
VERTEX
  8
0
 10
197.653497
 20
47.579471
 42
-0.032242
  0
VERTEX
  8
0
 10
198.547739
 20
47.168412
 42
-0.308065
  0
VERTEX
  8
0
 10
198.731033
 20
46.814426
 42
-0.189425
  0
VERTEX
  8
0
 10
198.496371
 20
46.379007
 42
-0.013551
  0
VERTEX
  8
0
 10
197.403497
 20
45.504286
 42
-0.063322
  0
VERTEX
  8
0
 10
195.556796
 20
44.443498
 42
-0.098853
  0
VERTEX
  8
0
 10
193.764515
 20
44.084178
 42
-0.159466
  0
VERTEX
  8
0
 10
192.510724
 20
44.493386
 42
-0.239173
  0
VERTEX
  8
0
 10
192.000000
 20
45.500000
 42
0.258540
  0
VERTEX
  8
0
 10
191.425731
 20
46.536365
 42
0.135622
  0
VERTEX
  8
0
 10
189.970376
 20
46.969392
 42
0.117308
  0
VERTEX
  8
0
 10
188.341565
 20
46.615494
 42
0.191514
  0
VERTEX
  8
0
 10
187.396258
 20
45.590247
 42
-0.109474
  0
VERTEX
  8
0
 10
187.008237
 20
45.003760
 42
-0.045708
  0
VERTEX
  8
0
 10
186.265017
 20
44.406578
 42
-0.042332
  0
VERTEX
  8
0
 10
185.320681
 20
43.889569
 42
-0.042623
  0
VERTEX
  8
0
 10
184.304891
 20
43.540387
 42
0.044386
  0
VERTEX
  8
0
 10
182.911657
 20
43.055969
 42
0.175405
  0
VERTEX
  8
0
 10
182.270813
 20
42.433805
 42
0.132711
  0
VERTEX
  8
0
 10
182.079493
 20
41.433770
 42
0.021509
  0
VERTEX
  8
0
 10
182.314378
 20
39.450139
 42
-0.018355
  0
VERTEX
  8
0
 10
182.479607
 20
38.126324
 42
-0.031056
  0
VERTEX
  8
0
 10
182.507950
 20
37.009467
 42
-0.033418
  0
VERTEX
  8
0
 10
182.422688
 20
36.188881
 42
-0.359537
  0
VERTEX
  8
0
 10
182.187129
 20
35.986345
 42
0.040088
  0
VERTEX
  8
0
 10
181.791116
 20
35.946611
 42
0.006701
  0
VERTEX
  8
0
 10
181.040907
 20
35.799577
 42
0.007305
  0
VERTEX
  8
0
 10
180.161809
 20
35.601564
 42
0.006420
  0
VERTEX
  8
0
 10
179.250000
 20
35.369714
 42
-0.035681
  0
VERTEX
  8
0
 10
178.173554
 20
35.162127
 42
-0.136451
  0
VERTEX
  8
0
 10
177.504700
 20
35.264620
 42
-0.199763
  0
VERTEX
  8
0
 10
177.130525
 20
35.663717
 42
-0.089952
  0
VERTEX
  8
0
 10
177.000000
 20
36.383369
 42
0.122993
  0
VERTEX
  8
0
 10
176.824987
 20
37.084081
 42
0.133099
  0
VERTEX
  8
0
 10
176.344063
 20
37.596035
 42
0.096241
  0
VERTEX
  8
0
 10
175.529747
 20
37.902646
 42
0.042079
  0
VERTEX
  8
0
 10
174.375000
 20
38.000000
 42
0.031924
  0
VERTEX
  8
0
 10
172.904829
 20
37.906036
 42
0.204990
  0
VERTEX
  8
0
 10
172.276705
 20
37.536291
 42
0.184710
  0
VERTEX
  8
0
 10
172.073661
 20
36.800015
 42
0.025300
  0
VERTEX
  8
0
 10
172.310985
 20
35.195075
 42
-0.039587
  0
VERTEX
  8
0
 10
172.496067
 20
33.637367
 42
-0.147207
  0
VERTEX
  8
0
 10
172.251284
 20
32.691303
 42
-0.135409
  0
VERTEX
  8
0
 10
171.510155
 20
31.992353
 42
-0.031514
  0
VERTEX
  8
0
 10
169.935985
 20
31.281939
 42
-0.013953
  0
VERTEX
  8
0
 10
168.226527
 20
30.690632
 42
-0.144162
  0
VERTEX
  8
0
 10
167.488845
 20
30.676786
 42
-0.277707
  0
VERTEX
  8
0
 10
167.111902
 20
31.072231
 42
-0.054977
  0
VERTEX
  8
0
 10
167.000000
 20
32.086864
 42
0.079397
  0
VERTEX
  8
0
 10
166.868874
 20
32.907422
 42
0.123286
  0
VERTEX
  8
0
 10
166.488649
 20
33.510858
 42
0.119553
  0
VERTEX
  8
0
 10
165.858964
 20
33.875775
 42
0.071936
  0
VERTEX
  8
0
 10
165.000000
 20
34.000000
 42
0.074827
  0
VERTEX
  8
0
 10
164.075739
 20
33.860901
 42
0.144971
  0
VERTEX
  8
0
 10
163.458942
 20
33.450874
 42
0.125450
  0
VERTEX
  8
0
 10
163.110238
 20
32.722646
 42
0.049285
  0
VERTEX
  8
0
 10
163.000000
 20
31.606989
 42
-0.101036
  0
VERTEX
  8
0
 10
162.688435
 20
30.080878
 42
-0.125936
  0
VERTEX
  8
0
 10
161.811681
 20
28.935498
 42
-0.107500
  0
VERTEX
  8
0
 10
160.369207
 20
28.233826
 42
-0.059711
  0
VERTEX
  8
0
 10
158.418213
 20
28.000000
 42
-0.139749
  0
VERTEX
  8
0
 10
157.877394
 20
28.154169
 42
-0.099977
  0
VERTEX
  8
0
 10
157.416600
 20
28.587500
 42
-0.085333
  0
VERTEX
  8
0
 10
157.106283
 20
29.235591
 42
-0.069187
  0
VERTEX
  8
0
 10
157.000000
 20
30.000000
 42
0.072254
  0
VERTEX
  8
0
 10
156.873159
 20
30.873159
 42
0.124864
  0
VERTEX
  8
0
 10
156.500000
 20
31.500000
 42
0.124864
  0
VERTEX
  8
0
 10
155.873159
 20
31.873159
 42
0.072254
  0
VERTEX
  8
0
 10
155.000000
 20
32.000000
 42
0.075780
  0
VERTEX
  8
0
 10
154.064742
 20
31.857434
 42
0.149477
  0
VERTEX
  8
0
 10
153.450000
 20
31.437500
 42
0.124434
  0
VERTEX
  8
0
 10
153.106468
 20
30.682766
 42
0.044917
  0
VERTEX
  8
0
 10
153.000000
 20
29.500000
 42
-0.034930
  0
VERTEX
  8
0
 10
152.933025
 20
28.542466
 42
-0.053132
  0
VERTEX
  8
0
 10
152.730275
 20
27.734375
 42
-0.069316
  0
VERTEX
  8
0
 10
152.433926
 20
27.179314
 42
-0.239948
  0
VERTEX
  8
0
 10
152.081787
 20
27.000000
 42
0.044250
  0
VERTEX
  8
0
 10
151.621647
 20
26.959197
 42
0.015326
  0
VERTEX
  8
0
 10
150.968650
 20
26.821697
 42
0.015089
  0
VERTEX
  8
0
 10
150.254744
 20
26.625376
 42
0.016969
  0
VERTEX
  8
0
 10
149.581787
 20
26.393011
 42
-0.090021
  0
VERTEX
  8
0
 10
148.829584
 20
26.250804
 42
-0.231224
  0
VERTEX
  8
0
 10
148.343479
 20
26.483926
 42
-0.139263
  0
VERTEX
  8
0
 10
148.072648
 20
27.138292
 42
-0.028926
  0
VERTEX
  8
0
 10
148.000000
 20
28.393011
 42
0.041367
  0
VERTEX
  8
0
 10
147.888817
 20
29.734575
 42
0.150900
  0
VERTEX
  8
0
 10
147.510260
 20
30.489301
 42
0.157006
  0
VERTEX
  8
0
 10
146.782477
 20
30.882062
 42
0.045884
  0
VERTEX
  8
0
 10
145.500000
 20
31.000000
 42
0.045527
  0
VERTEX
  8
0
 10
144.231486
 20
30.884257
 42
0.152009
  0
VERTEX
  8
0
 10
143.500000
 20
30.500000
 42
0.152009
  0
VERTEX
  8
0
 10
143.115743
 20
29.768514
 42
0.045527
  0
VERTEX
  8
0
 10
143.000000
 20
28.500000
 42
-0.046966
  0
VERTEX
  8
0
 10
142.876572
 20
27.188884
 42
-0.167790
  0
VERTEX
  8
0
 10
142.463867
 20
26.468430
 42
-0.147103
  0
VERTEX
  8
0
 10
141.655706
 20
26.101703
 42
-0.033483
  0
VERTEX
  8
0
 10
140.138672
 20
26.000000
 42
-0.026298
  0
VERTEX
  8
0
 10
138.552806
 20
26.083467
 42
-0.174993
  0
VERTEX
  8
0
 10
137.852003
 20
26.423417
 42
-0.205414
  0
VERTEX
  8
0
 10
137.592191
 20
27.098306
 42
-0.037811
  0
VERTEX
  8
0
 10
137.746437
 20
28.453901
 42
0.156321
  0
VERTEX
  8
0
 10
137.538410
 20
30.161176
 42
0.193578
  0
VERTEX
  8
0
 10
136.383483
 20
31.252277
 42
0.087772
  0
VERTEX
  8
0
 10
133.921498
 20
31.749981
 42
0.018320
  0
VERTEX
  8
0
 10
129.500000
 20
31.695753
 42
0.020663
  0
VERTEX
  8
0
 10
127.363975
 20
31.502517
 42
0.096210
  0
VERTEX
  8
0
 10
126.196490
 20
31.111253
 42
0.151375
  0
VERTEX
  8
0
 10
125.536631
 20
30.410187
 42
0.078556
  0
VERTEX
  8
0
 10
125.180449
 20
29.250000
 42
-0.068473
  0
VERTEX
  8
0
 10
124.858523
 20
28.121173
 42
-0.149792
  0
VERTEX
  8
0
 10
124.276990
 20
27.447217
 42
-0.111579
  0
VERTEX
  8
0
 10
123.289655
 20
27.098771
 42
-0.029266
  0
VERTEX
  8
0
 10
121.603642
 20
27.000000
 42
-0.020709
  0
VERTEX
  8
0
 10
119.653978
 20
27.080784
 42
-0.185597
  0
VERTEX
  8
0
 10
118.896658
 20
27.446461
 42
-0.202430
  0
VERTEX
  8
0
 10
118.615194
 20
28.206946
 42
-0.025192
  0
VERTEX
  8
0
 10
118.786692
 20
30.000000
 42
0.023735
  0
VERTEX
  8
0
 10
118.956170
 20
31.719108
 42
0.171070
  0
VERTEX
  8
0
 10
118.723270
 20
32.505147
 42
0.203387
  0
VERTEX
  8
0
 10
118.073937
 20
32.896660
 42
0.035336
  0
VERTEX
  8
0
 10
116.613499
 20
33.000000
 42
0.041132
  0
VERTEX
  8
0
 10
115.267474
 20
32.889083
 42
0.150821
  0
VERTEX
  8
0
 10
114.511350
 20
32.510857
 42
0.157301
  0
VERTEX
  8
0
 10
114.118074
 20
31.783287
 42
0.045908
  0
VERTEX
  8
0
 10
114.000000
 20
30.500000
 42
-0.034930
  0
VERTEX
  8
0
 10
113.933025
 20
29.542466
 42
-0.053132
  0
VERTEX
  8
0
 10
113.730275
 20
28.734375
 42
-0.069316
  0
VERTEX
  8
0
 10
113.433926
 20
28.179314
 42
-0.239948
  0
VERTEX
  8
0
 10
113.081787
 20
28.000000
 42
-0.076373
  0
VERTEX
  8
0
 10
111.427795
 20
28.254123
 42
-0.105090
  0
VERTEX
  8
0
 10
110.122314
 20
28.991765
 42
-0.113064
  0
VERTEX
  8
0
 10
109.293161
 20
30.148536
 42
-0.099509
  0
VERTEX
  8
0
 10
109.000000
 20
31.606989
 42
0.049285
  0
VERTEX
  8
0
 10
108.889762
 20
32.722646
 42
0.125450
  0
VERTEX
  8
0
 10
108.541058
 20
33.450874
 42
0.144971
  0
VERTEX
  8
0
 10
107.924261
 20
33.860901
 42
0.074827
  0
VERTEX
  8
0
 10
107.000000
 20
34.000000
 42
0.072254
  0
VERTEX
  8
0
 10
106.126841
 20
33.873159
 42
0.124864
  0
VERTEX
  8
0
 10
105.500000
 20
33.500000
 42
0.124864
  0
VERTEX
  8
0
 10
105.126841
 20
32.873159
 42
0.072254
  0
VERTEX
  8
0
 10
105.000000
 20
32.000000
 42
-0.027437
  0
VERTEX
  8
0
 10
104.921400
 20
30.568688
 42
-0.293213
  0
VERTEX
  8
0
 10
104.571970
 20
30.136717
 42
-0.163791
  0
VERTEX
  8
0
 10
103.871877
 20
30.139864
 42
-0.008532
  0
VERTEX
  8
0
 10
101.725698
 20
30.914190
 42
-0.050586
  0
VERTEX
  8
0
 10
100.502105
 20
31.527148
 42
-0.138726
  0
VERTEX
  8
0
 10
99.863908
 20
32.240839
 42
-0.118443
  0
VERTEX
  8
0
 10
99.638486
 20
33.257808
 42
-0.032030
  0
VERTEX
  8
0
 10
99.774098
 20
34.914190
 42
0.022149
  0
VERTEX
  8
0
 10
99.955663
 20
36.697972
 42
0.168567
  0
VERTEX
  8
0
 10
99.728299
 20
37.498143
 42
0.207292
  0
VERTEX
  8
0
 10
99.082250
 20
37.895272
 42
0.035607
  0
VERTEX
  8
0
 10
97.613499
 20
38.000000
 42
0.041026
  0
VERTEX
  8
0
 10
96.275250
 20
37.890008
 42
0.148246
  0
VERTEX
  8
0
 10
95.516904
 20
37.515833
 42
0.157641
  0
VERTEX
  8
0
 10
95.120551
 20
36.799502
 42
0.048205
  0
VERTEX
  8
0
 10
95.000000
 20
35.552020
 42
-0.030738
  0
VERTEX
  8
0
 10
94.911693
 20
34.116939
 42
-0.265359
  0
VERTEX
  8
0
 10
94.542193
 20
33.622396
 42
-0.175073
  0
VERTEX
  8
0
 10
93.809097
 20
33.575615
 42
-0.013131
  0
VERTEX
  8
0
 10
91.876218
 20
34.192995
 42
-0.012207
  0
VERTEX
  8
0
 10
90.210064
 20
34.819839
 42
-0.136458
  0
VERTEX
  8
0
 10
89.653561
 20
35.247740
 42
-0.375662
  0
VERTEX
  8
0
 10
89.685296
 20
35.672120
 42
-0.066912
  0
VERTEX
  8
0
 10
90.376218
 20
36.190666
 42
0.080025
  0
VERTEX
  8
0
 10
90.997419
 20
36.682730
 42
0.056222
  0
VERTEX
  8
0
 10
91.523014
 20
37.405349
 42
0.055667
  0
VERTEX
  8
0
 10
91.879523
 20
38.236262
 42
0.073654
  0
VERTEX
  8
0
 10
92.000000
 20
39.049690
 42
-0.076223
  0
VERTEX
  8
0
 10
92.129266
 20
39.892711
 42
-0.124049
  0
VERTEX
  8
0
 10
92.506370
 20
40.506211
 42
-0.121868
  0
VERTEX
  8
0
 10
93.134806
 20
40.874659
 42
-0.072059
  0
VERTEX
  8
0
 10
94.000000
 20
41.000000
 42
0.195908
  0
VERTEX
  8
0
 10
95.316901
 20
41.536576
 42
0.163129
  0
VERTEX
  8
0
 10
96.011247
 20
42.891533
 42
0.169496
  0
VERTEX
  8
0
 10
95.736801
 20
44.352798
 42
0.207210
  0
VERTEX
  8
0
 10
94.631878
 20
45.176676
 42
-0.356972
  0
VERTEX
  8
0
 10
94.153798
 20
45.801682
 42
-0.053721
  0
VERTEX
  8
0
 10
94.390786
 20
47.482146
 42
-0.028247
  0
VERTEX
  8
0
 10
95.269438
 20
50.283652
 42
-0.006151
  0
VERTEX
  8
0
 10
97.113408
 20
55.000000
 42
0.005615
  0
VERTEX
  8
0
 10
98.633393
 20
58.875417
 42
0.006172
  0
VERTEX
  8
0
 10
100.017217
 20
62.664062
 42
0.005788
  0
VERTEX
  8
0
 10
101.121680
 20
65.928086
 42
0.030836
  0
VERTEX
  8
0
 10
101.592821
 20
67.750000
 42
0.017766
  0
VERTEX
  8
0
 10
101.881826
 20
69.589070
 42
0.137878
  0
VERTEX
  8
0
 10
101.750054
 20
70.439735
 42
0.231141
  0
VERTEX
  8
0
 10
101.229503
 20
70.868298
 42
0.058687
  0
VERTEX
  8
0
 10
100.111291
 20
71.000000
 42
-0.046441
  0
VERTEX
  8
0
 10
99.303200
 20
71.075220
 42
-0.066396
  0
VERTEX
  8
0
 10
98.620192
 20
71.300220
 42
-0.086495
  0
VERTEX
  8
0
 10
98.159305
 20
71.631614
 42
-0.196172
  0
VERTEX
  8
0
 10
98.000000
 20
72.022024
 42
0.244877
  0
VERTEX
  8
0
 10
97.309810
 20
73.346775
 42
0.013210
  0
VERTEX
  8
0
 10
93.241510
 20
76.034184
 42
0.017494
  0
VERTEX
  8
0
 10
89.067303
 20
78.437322
 42
0.122453
  0
VERTEX
  8
0
 10
86.804219
 20
79.000000
 42
0.078001
  0
VERTEX
  8
0
 10
86.114984
 20
78.891819
 42
0.090332
  0
VERTEX
  8
0
 10
85.529989
 20
78.578625
 42
0.100781
  0
VERTEX
  8
0
 10
85.138906
 20
78.112605
 42
0.124971
  0
VERTEX
  8
0
 10
85.000000
 20
77.565533
 42
-0.146148
  0
VERTEX
  8
0
 10
84.214137
 20
74.934369
 42
-0.006425
  0
VERTEX
  8
0
 10
78.812704
 20
66.925038
 42
-0.004722
  0
VERTEX
  8
0
 10
73.102899
 20
58.852657
 42
-0.240938
  0
VERTEX
  8
0
 10
71.436164
 20
58.000000
 42
0.274667
  0
VERTEX
  8
0
 10
70.275314
 20
57.310269
 42
0.214930
  0
VERTEX
  8
0
 10
70.163118
 20
55.820121
 42
0.097764
  0
VERTEX
  8
0
 10
71.449341
 20
53.689754
 42
0.053627
  0
VERTEX
  8
0
 10
73.738120
 20
51.659712
 42
-0.002880
  0
VERTEX
  8
0
 10
76.293797
 20
49.819055
 42
-0.146340
  0
VERTEX
  8
0
 10
76.662618
 20
49.334145
 42
-0.506470
  0
VERTEX
  8
0
 10
76.475942
 20
49.047963
 42
-0.013797
  0
VERTEX
  8
0
 10
74.738120
 20
49.000000
 42
0.041295
  0
VERTEX
  8
0
 10
73.623805
 20
48.907811
 42
0.074211
  0
VERTEX
  8
0
 10
72.752840
 20
48.625706
 42
0.103946
  0
VERTEX
  8
0
 10
72.199125
 20
48.188343
 42
0.175549
  0
VERTEX
  8
0
 10
72.000000
 20
47.638672
 42
-0.343230
  0
VERTEX
  8
0
 10
71.288827
 20
46.724718
 42
-0.129828
  0
VERTEX
  8
0
 10
69.562824
 20
46.741870
 42
-0.092917
  0
VERTEX
  8
0
 10
67.645017
 20
47.676451
 42
-0.170696
  0
VERTEX
  8
0
 10
66.684298
 20
49.099243
 42
-0.043235
  0
VERTEX
  8
0
 10
66.559778
 20
49.827433
 42
-0.073897
  0
VERTEX
  8
0
 10
66.599500
 20
50.441653
 42
-0.111082
  0
VERTEX
  8
0
 10
66.788158
 20
50.849386
 42
-0.233135
  0
VERTEX
  8
0
 10
67.093620
 20
51.000000
 42
0.241977
  0
VERTEX
  8
0
 10
67.441306
 20
51.178730
 42
0.068439
  0
VERTEX
  8
0
 10
67.733751
 20
51.734375
 42
0.052547
  0
VERTEX
  8
0
 10
67.933911
 20
52.542441
 42
0.034468
  0
VERTEX
  8
0
 10
68.000000
 20
53.500000
 42
0.134272
  0
VERTEX
  8
0
 10
67.560576
 20
55.106824
 42
0.195997
  0
VERTEX
  8
0
 10
66.406297
 20
55.983976
 42
0.166543
  0
VERTEX
  8
0
 10
64.805775
 20
55.876051
 42
0.097308
  0
VERTEX
  8
0
 10
63.192857
 20
54.792857
 42
-0.074779
  0
VERTEX
  8
0
 10
62.511803
 20
54.289881
 42
-0.165679
  0
VERTEX
  8
0
 10
61.882164
 20
54.189265
 42
-0.122045
  0
VERTEX
  8
0
 10
61.190420
 20
54.492225
 42
-0.032438
  0
VERTEX
  8
0
 10
60.278571
 20
55.292857
 42
-0.007018
  0
VERTEX
  8
0
 10
59.216911
 20
56.384747
 42
-0.192711
  0
VERTEX
  8
0
 10
59.072475
 20
56.750000
 42
-0.390182
  0
VERTEX
  8
0
 10
59.267393
 20
56.959982
 42
-0.019642
  0
VERTEX
  8
0
 10
60.285714
 20
57.000000
 42
0.099923
  0
VERTEX
  8
0
 10
60.987379
 20
57.141640
 42
0.116472
  0
VERTEX
  8
0
 10
61.535714
 20
57.541667
 42
0.106002
  0
VERTEX
  8
0
 10
61.881692
 20
58.178890
 42
0.071671
  0
VERTEX
  8
0
 10
62.000000
 20
59.000000
 42
0.075780
  0
VERTEX
  8
0
 10
61.857434
 20
59.935258
 42
0.149477
  0
VERTEX
  8
0
 10
61.437500
 20
60.550000
 42
0.124434
  0
VERTEX
  8
0
 10
60.682766
 20
60.893532
 42
0.044917
  0
VERTEX
  8
0
 10
59.500000
 20
61.000000
 42
0.045014
  0
VERTEX
  8
0
 10
58.543046
 20
60.913671
 42
0.064891
  0
VERTEX
  8
0
 10
57.734375
 20
60.655045
 42
0.084833
  0
VERTEX
  8
0
 10
57.187905
 20
60.274409
 42
0.200925
  0
VERTEX
  8
0
 10
57.000000
 20
59.825686
 42
-0.397775
  0
VERTEX
  8
0
 10
56.778370
 20
59.591178
 42
-0.125461
  0
VERTEX
  8
0
 10
56.258584
 20
59.692851
 42
-0.054547
  0
VERTEX
  8
0
 10
55.446106
 20
60.192966
 42
-0.023363
  0
VERTEX
  8
0
 10
54.476029
 20
61.022519
 42
-0.014801
  0
VERTEX
  8
0
 10
53.136519
 20
62.357724
 42
-0.114660
  0
VERTEX
  8
0
 10
52.693391
 20
63.115610
 42
-0.254433
  0
VERTEX
  8
0
 10
52.808961
 20
63.693058
 42
-0.091446
  0
VERTEX
  8
0
 10
53.476029
 20
64.246523
 42
0.142025
  0
VERTEX
  8
0
 10
54.678809
 20
65.466186
 42
0.151803
  0
VERTEX
  8
0
 10
55.002826
 20
67.107022
 42
0.178784
  0
VERTEX
  8
0
 10
54.333501
 20
68.457382
 42
0.191489
  0
VERTEX
  8
0
 10
52.968615
 20
69.000000
 42
0.067380
  0
VERTEX
  8
0
 10
52.149418
 20
68.889102
 42
0.062516
  0
VERTEX
  8
0
 10
51.366498
 20
68.563628
 42
0.066630
  0
VERTEX
  8
0
 10
50.736248
 20
68.082601
 42
0.105238
  0
VERTEX
  8
0
 10
50.367183
 20
67.514480
 42
-0.087857
  0
VERTEX
  8
0
 10
49.989569
 20
66.886905
 42
-0.298013
  0
VERTEX
  8
0
 10
49.551394
 20
66.763466
 42
-0.129999
  0
VERTEX
  8
0
 10
48.964766
 20
67.133889
 42
-0.016772
  0
VERTEX
  8
0
 10
47.982154
 20
68.264480
 42
-0.010649
  0
VERTEX
  8
0
 10
46.859187
 20
69.709473
 42
-0.170031
  0
VERTEX
  8
0
 10
46.677220
 20
70.292538
 42
-0.272919
  0
VERTEX
  8
0
 10
46.948388
 20
70.718224
 42
-0.028101
  0
VERTEX
  8
0
 10
48.083586
 20
71.217776
 42
0.059139
  0
VERTEX
  8
0
 10
48.816403
 20
71.596043
 42
0.059847
  0
VERTEX
  8
0
 10
49.437053
 20
72.134061
 42
0.065891
  0
VERTEX
  8
0
 10
49.858442
 20
72.742857
 42
0.119022
  0
VERTEX
  8
0
 10
50.000000
 20
73.329104
 42
-0.142674
  0
VERTEX
  8
0
 10
50.168097
 20
73.906205
 42
-0.164675
  0
VERTEX
  8
0
 10
50.612759
 20
74.263955
 42
-0.100846
  0
VERTEX
  8
0
 10
51.379002
 20
74.379819
 42
-0.034500
  0
VERTEX
  8
0
 10
52.500000
 20
74.244751
 42
0.032904
  0
VERTEX
  8
0
 10
53.774982
 20
74.087005
 42
0.149735
  0
VERTEX
  8
0
 10
54.492999
 20
74.262676
 42
0.197292
  0
VERTEX
  8
0
 10
54.877300
 20
74.774538
 42
0.063692
  0
VERTEX
  8
0
 10
55.000000
 20
75.733856
 42
-0.108074
  0
VERTEX
  8
0
 10
55.198561
 20
76.641759
 42
-0.042520
  0
VERTEX
  8
0
 10
55.833263
 20
77.761651
 42
-0.039553
  0
VERTEX
  8
0
 10
56.751267
 20
78.897639
 42
-0.039562
  0
VERTEX
  8
0
 10
57.836638
 20
79.874803
 42
0.011584
  0
VERTEX
  8
0
 10
68.161865
 20
88.174459
 42
0.090354
  0
VERTEX
  8
0
 10
72.076529
 20
92.914255
 42
0.199835
  0
VERTEX
  8
0
 10
72.553076
 20
97.016400
 42
0.096689
  0
VERTEX
  8
0
 10
70.109129
 20
101.808638
 42
-0.024242
  0
VERTEX
  8
0
 10
68.915335
 20
103.495400
 42
-0.016540
  0
VERTEX
  8
0
 10
67.718864
 20
105.517225
 42
-0.016700
  0
VERTEX
  8
0
 10
66.692464
 20
107.548500
 42
-0.032012
  0
VERTEX
  8
0
 10
66.031577
 20
109.250000
 42
0.073249
  0
VERTEX
  8
0
 10
64.807276
 20
111.767023
 42
0.166530
  0
VERTEX
  8
0
 10
63.134648
 20
113.017089
 42
0.286048
  0
VERTEX
  8
0
 10
61.673788
 20
112.651168
 42
0.154973
  0
VERTEX
  8
0
 10
60.819551
 20
110.929804
 42
-0.141426
  0
VERTEX
  8
0
 10
60.302352
 20
109.814281
 42
-0.042689
  0
VERTEX
  8
0
 10
58.948164
 20
108.500262
 42
-0.032657
  0
VERTEX
  8
0
 10
56.872436
 20
107.019231
 42
-0.015085
  0
VERTEX
  8
0
 10
54.000000
 20
105.358254
 42
0.002582
  0
VERTEX
  8
0
 10
51.345158
 20
103.910431
 42
0.002695
  0
VERTEX
  8
0
 10
48.743147
 20
102.455577
 42
0.002589
  0
VERTEX
  8
0
 10
46.507859
 20
101.174573
 42
0.011855
  0
VERTEX
  8
0
 10
45.231990
 20
100.393596
 42
-0.015834
  0
VERTEX
  8
0
 10
43.912293
 20
99.600156
 42
-0.134476
  0
VERTEX
  8
0
 10
43.247033
 20
99.435726
 42
-0.239734
  0
VERTEX
  8
0
 10
42.786881
 20
99.684501
 42
-0.059614
  0
VERTEX
  8
0
 10
42.375001
 20
100.465146
 42
0.096173
  0
VERTEX
  8
0
 10
42.008583
 20
101.051983
 42
0.066859
  0
VERTEX
  8
0
 10
41.402963
 20
101.549137
 42
0.064385
  0
VERTEX
  8
0
 10
40.660704
 20
101.885289
 42
0.074299
  0
VERTEX
  8
0
 10
39.893011
 20
102.000000
 42
0.212553
  0
VERTEX
  8
0
 10
38.619640
 20
101.433069
 42
0.172107
  0
VERTEX
  8
0
 10
38.042482
 20
100.037621
 42
0.084433
  0
VERTEX
  8
0
 10
38.321015
 20
97.671242
 42
0.027544
  0
VERTEX
  8
0
 10
39.500000
 20
94.345757
 42
-0.005552
  0
VERTEX
  8
0
 10
40.767054
 20
91.216015
 42
-0.195948
  0
VERTEX
  8
0
 10
40.756692
 20
90.444090
 42
-0.288546
  0
VERTEX
  8
0
 10
40.204635
 20
90.059438
 42
-0.011680
  0
VERTEX
  8
0
 10
37.660515
 20
90.000000
 42
-0.036392
  0
VERTEX
  8
0
 10
35.946841
 20
90.124895
 42
-0.092651
  0
VERTEX
  8
0
 10
34.772347
 20
90.527555
 42
-0.103901
  0
VERTEX
  8
0
 10
33.902672
 20
91.293577
 42
-0.053575
  0
VERTEX
  8
0
 10
33.160515
 20
92.547053
 42
-0.008111
  0
VERTEX
  8
0
 10
32.193346
 20
94.764400
 42
-0.173306
  0
VERTEX
  8
0
 10
32.156792
 20
95.468364
 42
-0.270538
  0
VERTEX
  8
0
 10
32.593226
 20
95.875799
 42
-0.020388
  0
VERTEX
  8
0
 10
34.250000
 20
96.180449
 42
0.071868
  0
VERTEX
  8
0
 10
35.250113
 20
96.472989
 42
0.095572
  0
VERTEX
  8
0
 10
36.020127
 20
97.021108
 42
0.092457
  0
VERTEX
  8
0
 10
36.548183
 20
97.832003
 42
0.063185
  0
VERTEX
  8
0
 10
36.838581
 20
98.895217
 42
0.038918
  0
VERTEX
  8
0
 10
36.925005
 20
100.273316
 42
0.264258
  0
VERTEX
  8
0
 10
36.591812
 20
100.839554
 42
0.158801
  0
VERTEX
  8
0
 10
35.791461
 20
101.007843
 42
0.013289
  0
VERTEX
  8
0
 10
33.666586
 20
100.720746
 42
-0.023317
  0
VERTEX
  8
0
 10
31.958969
 20
100.524797
 42
-0.073334
  0
VERTEX
  8
0
 10
30.811891
 20
100.615351
 42
-0.117980
  0
VERTEX
  8
0
 10
30.055404
 20
100.990208
 42
-0.128057
  0
VERTEX
  8
0
 10
29.578006
 20
101.657317
 42
-0.044800
  0
VERTEX
  8
0
 10
29.063449
 20
103.468076
 42
-0.121889
  0
VERTEX
  8
0
 10
29.136548
 20
104.789705
 42
-0.160019
  0
VERTEX
  8
0
 10
29.784958
 20
105.707273
 42
-0.095914
  0
VERTEX
  8
0
 10
31.000000
 20
106.289749
 42
0.156827
  0
VERTEX
  8
0
 10
32.592374
 20
107.303453
 42
0.202329
  0
VERTEX
  8
0
 10
33.088977
 20
108.946516
 42
0.208122
  0
VERTEX
  8
0
 10
32.256374
 20
110.413791
 42
0.162475
  0
VERTEX
  8
0
 10
30.500000
 20
111.000000
 42
0.047697
  0
VERTEX
  8
0
 10
29.534639
 20
110.907701
 42
0.063778
  0
VERTEX
  8
0
 10
28.699620
 20
110.632812
 42
0.079575
  0
VERTEX
  8
0
 10
28.113200
 20
110.227974
 42
0.180262
  0
VERTEX
  8
0
 10
27.881685
 20
109.750000
 42
-0.394191
  0
VERTEX
  8
0
 10
27.761761
 20
109.643657
 42
-0.289789
  0
VERTEX
  8
0
 10
27.605151
 20
109.748437
 42
-0.039196
  0
VERTEX
  8
0
 10
27.367882
 20
110.422046
 42
-0.011185
  0
VERTEX
  8
0
 10
27.106436
 20
111.500000
 42
-0.026026
  0
VERTEX
  8
0
 10
26.841558
 20
113.105231
 42
-0.120676
  0
VERTEX
  8
0
 10
26.961298
 20
114.030513
 42
-0.170765
  0
VERTEX
  8
0
 10
27.466544
 20
114.621730
 42
-0.066351
  0
VERTEX
  8
0
 10
28.474751
 20
115.039546
 42
0.090772
  0
VERTEX
  8
0
 10
29.362098
 20
115.458822
 42
0.085525
  0
VERTEX
  8
0
 10
30.064879
 20
116.172503
 42
0.074403
  0
VERTEX
  8
0
 10
30.558390
 20
117.172263
 42
0.048733
  0
VERTEX
  8
0
 10
30.830029
 20
118.430552
 42
0.022245
  0
VERTEX
  8
0
 10
30.952097
 20
120.153162
 42
0.232695
  0
VERTEX
  8
0
 10
30.664658
 20
120.778272
 42
0.205564
  0
VERTEX
  8
0
 10
29.968188
 20
120.976339
 42
0.017249
  0
VERTEX
  8
0
 10
28.080029
 20
120.666006
 42
-0.019792
  0
VERTEX
  8
0
 10
26.287126
 20
120.380684
 42
-0.166841
  0
VERTEX
  8
0
 10
25.498891
 20
120.550669
 42
-0.222756
  0
VERTEX
  8
0
 10
25.104800
 20
121.140014
 42
-0.037780
  0
VERTEX
  8
0
 10
25.000000
 20
122.525000
 42
-0.045884
  0
VERTEX
  8
0
 10
25.107323
 20
123.692049
 42
-0.124701
  0
VERTEX
  8
0
 10
25.452020
 20
124.440625
 42
-0.148457
  0
VERTEX
  8
0
 10
26.067220
 20
124.858250
 42
-0.075549
  0
VERTEX
  8
0
 10
27.000000
 20
125.000000
 42
0.072254
  0
VERTEX
  8
0
 10
27.873159
 20
125.126841
 42
0.124864
  0
VERTEX
  8
0
 10
28.500000
 20
125.500000
 42
0.124864
  0
VERTEX
  8
0
 10
28.873159
 20
126.126841
 42
0.072254
  0
VERTEX
  8
0
 10
29.000000
 20
127.000000
 42
0.075780
  0
VERTEX
  8
0
 10
28.857434
 20
127.935258
 42
0.149477
  0
VERTEX
  8
0
 10
28.437500
 20
128.550000
 42
0.124434
  0
VERTEX
  8
0
 10
27.682766
 20
128.893532
 42
0.044917
  0
VERTEX
  8
0
 10
26.500000
 20
129.000000
 42
-0.047675
  0
VERTEX
  8
0
 10
25.175563
 20
129.126572
 42
-0.173074
  0
VERTEX
  8
0
 10
24.458333
 20
129.550000
 42
-0.144586
  0
VERTEX
  8
0
 10
24.097235
 20
130.386401
 42
-0.030103
  0
VERTEX
  8
0
 10
24.000000
 20
132.000000
 42
-0.030099
  0
VERTEX
  8
0
 10
24.097013
 20
133.610119
 42
-0.143631
  0
VERTEX
  8
0
 10
24.456746
 20
134.447696
 42
-0.173128
  0
VERTEX
  8
0
 10
25.170137
 20
134.872382
 42
-0.048564
  0
VERTEX
  8
0
 10
26.480948
 20
135.000000
 42
0.149724
  0
VERTEX
  8
0
 10
28.239989
 20
135.538820
 42
0.147412
  0
VERTEX
  8
0
 10
29.408453
 20
136.973160
 42
0.090116
  0
VERTEX
  8
0
 10
29.940441
 20
139.455220
 42
0.031668
  0
VERTEX
  8
0
 10
29.823679
 20
143.111627
 42
0.025734
  0
VERTEX
  8
0
 10
29.551931
 20
144.950804
 42
0.127572
  0
VERTEX
  8
0
 10
29.099044
 20
145.883762
 42
0.167173
  0
VERTEX
  8
0
 10
28.319655
 20
146.344421
 42
0.052981
  0
VERTEX
  8
0
 10
26.956452
 20
146.476611
 42
-0.036714
  0
VERTEX
  8
0
 10
25.569079
 20
146.565804
 42
-0.195614
  0
VERTEX
  8
0
 10
24.924567
 20
146.938211
 42
-0.174948
  0
VERTEX
  8
0
 10
24.682289
 20
147.683987
 42
-0.028370
  0
VERTEX
  8
0
 10
24.819952
 20
149.226611
 42
-0.041938
  0
VERTEX
  8
0
 10
25.158124
 20
150.673802
 42
-0.140295
  0
VERTEX
  8
0
 10
25.696766
 20
151.474542
 42
-0.136761
  0
VERTEX
  8
0
 10
26.586557
 20
151.880504
 42
-0.039069
  0
VERTEX
  8
0
 10
28.113499
 20
152.000000
 42
0.032828
  0
VERTEX
  8
0
 10
29.648020
 20
152.100858
 42
0.146664
  0
VERTEX
  8
0
 10
30.461350
 20
152.466525
 42
0.168779
  0
VERTEX
  8
0
 10
30.876009
 20
153.186356
 42
0.047089
  0
VERTEX
  8
0
 10
31.000000
 20
154.500000
 42
0.045097
  0
VERTEX
  8
0
 10
30.887657
 20
155.743028
 42
0.143285
  0
VERTEX
  8
0
 10
30.517319
 20
156.481392
 42
0.152873
  0
VERTEX
  8
0
 10
29.824611
 20
156.876051
 42
0.053669
  0
VERTEX
  8
0
 10
28.673193
 20
157.000000
 42
-0.046189
  0
VERTEX
  8
0
 10
27.445290
 20
157.113673
 42
-0.198547
  0
VERTEX
  8
0
 10
26.842447
 20
157.505730
 42
-0.160397
  0
VERTEX
  8
0
 10
26.618985
 20
158.271019
 42
-0.027943
  0
VERTEX
  8
0
 10
26.755805
 20
159.789555
 42
-0.036864
  0
VERTEX
  8
0
 10
27.106008
 20
161.359875
 42
-0.181788
  0
VERTEX
  8
0
 10
27.647411
 20
162.067981
 42
-0.147758
  0
VERTEX
  8
0
 10
28.592095
 20
162.324339
 42
-0.021957
  0
VERTEX
  8
0
 10
30.582613
 20
162.180149
 42
0.019073
  0
VERTEX
  8
0
 10
32.445653
 20
162.034393
 42
0.120149
  0
VERTEX
  8
0
 10
33.372885
 20
162.221598
 42
0.209954
  0
VERTEX
  8
0
 10
33.842957
 20
162.759147
 42
0.076306
  0
VERTEX
  8
0
 10
34.000000
 20
163.782186
 42
0.092910
  0
VERTEX
  8
0
 10
33.830078
 20
164.688736
 42
0.101170
  0
VERTEX
  8
0
 10
33.345052
 20
165.441742
 42
0.086843
  0
VERTEX
  8
0
 10
32.534193
 20
166.025114
 42
0.051171
  0
VERTEX
  8
0
 10
31.409079
 20
166.433464
 42
-0.037939
  0
VERTEX
  8
0
 10
30.262536
 20
166.815640
 42
-0.108717
  0
VERTEX
  8
0
 10
29.580180
 20
167.296803
 42
-0.160994
  0
VERTEX
  8
0
 10
29.312118
 20
167.895798
 42
-0.117524
  0
VERTEX
  8
0
 10
29.409079
 20
168.623659
 42
0.022268
  0
VERTEX
  8
0
 10
29.635392
 20
169.302310
 42
0.016560
  0
VERTEX
  8
0
 10
29.826417
 20
170.068839
 42
0.016814
  0
VERTEX
  8
0
 10
29.958513
 20
170.805243
 42
0.035983
  0
VERTEX
  8
0
 10
30.000000
 20
171.380987
 42
-0.231286
  0
VERTEX
  8
0
 10
30.242742
 20
171.877680
 42
-0.111052
  0
VERTEX
  8
0
 10
30.900281
 20
172.187590
 42
-0.061802
  0
VERTEX
  8
0
 10
32.004846
 20
172.293726
 42
-0.022145
  0
VERTEX
  8
0
 10
33.585191
 20
172.179848
 42
0.014040
  0
VERTEX
  8
0
 10
35.725615
 20
171.990700
 42
0.151305
  0
VERTEX
  8
0
 10
36.560243
 20
172.195186
 42
0.254471
  0
VERTEX
  8
0
 10
36.907297
 20
172.785033
 42
0.043529
  0
VERTEX
  8
0
 10
36.835191
 20
174.130648
 42
0.064424
  0
VERTEX
  8
0
 10
36.548562
 20
175.169518
 42
0.090067
  0
VERTEX
  8
0
 10
36.023787
 20
175.974831
 42
0.093534
  0
VERTEX
  8
0
 10
35.266519
 20
176.523603
 42
0.074951
  0
VERTEX
  8
0
 10
34.300135
 20
176.812981
 42
-0.036640
  0
VERTEX
  8
0
 10
33.102785
 20
177.073915
 42
-0.231378
  0
VERTEX
  8
0
 10
32.655854
 20
177.484116
 42
-0.180582
  0
VERTEX
  8
0
 10
32.644893
 20
178.162396
 42
-0.021596
  0
VERTEX
  8
0
 10
33.217030
 20
179.576984
 42
-0.045885
  0
VERTEX
  8
0
 10
33.953968
 20
180.866368
 42
-0.143604
  0
VERTEX
  8
0
 10
34.725907
 20
181.483743
 42
-0.117975
  0
VERTEX
  8
0
 10
35.804567
 20
181.651712
 42
-0.026271
  0
VERTEX
  8
0
 10
37.666895
 20
181.402712
 42
0.016850
  0
VERTEX
  8
0
 10
39.667578
 20
181.096758
 42
0.165334
  0
VERTEX
  8
0
 10
40.490759
 20
181.271912
 42
0.227749
  0
VERTEX
  8
0
 10
40.896165
 20
181.883220
 42
0.034445
  0
VERTEX
  8
0
 10
41.000000
 20
183.388709
 42
0.040972
  0
VERTEX
  8
0
 10
40.897153
 20
184.641691
 42
0.123067
  0
VERTEX
  8
0
 10
40.558524
 20
185.423589
 42
0.153785
  0
VERTEX
  8
0
 10
39.945662
 20
185.853770
 42
0.076860
  0
VERTEX
  8
0
 10
39.000000
 20
186.000000
 42
-0.067559
  0
VERTEX
  8
0
 10
37.645911
 20
186.183801
 42
-0.276986
  0
VERTEX
  8
0
 10
37.097993
 20
186.759653
 42
-0.182860
  0
VERTEX
  8
0
 10
37.237351
 20
187.737227
 42
-0.032023
  0
VERTEX
  8
0
 10
38.254244
 20
189.333022
 42
-0.076654
  0
VERTEX
  8
0
 10
39.029548
 20
190.109906
 42
-0.099900
  0
VERTEX
  8
0
 10
39.938767
 20
190.531600
 42
-0.077724
  0
VERTEX
  8
0
 10
41.113777
 20
190.625793
 42
-0.030572
  0
VERTEX
  8
0
 10
42.727185
 20
190.404563
 42
-0.012926
  0
VERTEX
  8
0
 10
44.699225
 20
189.956851
 42
-0.191159
  0
VERTEX
  8
0
 10
45.263065
 20
189.548456
 42
-0.274794
  0
VERTEX
  8
0
 10
45.280917
 20
188.950190
 42
-0.026130
  0
VERTEX
  8
0
 10
44.472941
 20
187.657906
 42
0.049518
  0
VERTEX
  8
0
 10
43.003183
 20
185.042972
 42
0.222210
  0
VERTEX
  8
0
 10
43.044588
 20
183.333151
 42
0.233011
  0
VERTEX
  8
0
 10
44.370872
 20
182.321932
 42
0.053917
  0
VERTEX
  8
0
 10
47.250000
 20
182.074192
 42
-0.025307
  0
VERTEX
  8
0
 10
52.218118
 20
181.931530
 42
-0.075348
  0
VERTEX
  8
0
 10
55.524369
 20
181.158361
 42
-0.100259
  0
VERTEX
  8
0
 10
57.905646
 20
179.598272
 42
-0.069845
  0
VERTEX
  8
0
 10
59.859771
 20
177.035715
 42
0.013143
  0
VERTEX
  8
0
 10
60.772717
 20
175.506867
 42
0.013326
  0
VERTEX
  8
0
 10
61.760707
 20
174.035271
 42
0.013216
  0
VERTEX
  8
0
 10
62.686830
 20
172.802586
 42
0.051873
  0
VERTEX
  8
0
 10
63.351056
 20
172.123612
 42
-0.100284
  0
VERTEX
  8
0
 10
63.854481
 20
171.498738
 42
-0.059367
  0
VERTEX
  8
0
 10
64.192675
 20
170.599369
 42
-0.054528
  0
VERTEX
  8
0
 10
64.331597
 20
169.554123
 42
-0.053067
  0
VERTEX
  8
0
 10
64.243537
 20
168.493650
 42
0.033600
  0
VERTEX
  8
0
 10
64.082184
 20
167.174474
 42
0.170210
  0
VERTEX
  8
0
 10
64.285774
 20
166.473477
 42
0.194418
  0
VERTEX
  8
0
 10
64.862324
 20
166.106436
 42
0.045748
  0
VERTEX
  8
0
 10
66.023180
 20
166.000000
 42
0.115555
  0
VERTEX
  8
0
 10
67.795145
 20
166.415062
 42
0.087775
  0
VERTEX
  8
0
 10
69.406225
 20
167.602804
 42
0.085423
  0
VERTEX
  8
0
 10
70.546793
 20
169.306338
 42
0.100544
  0
VERTEX
  8
0
 10
70.968197
 20
171.198478
 42
-0.096546
  0
VERTEX
  8
0
 10
71.147176
 20
172.033203
 42
-0.029713
  0
VERTEX
  8
0
 10
71.725033
 20
173.190432
 42
-0.028496
  0
VERTEX
  8
0
 10
72.540856
 20
174.436976
 42
-0.027738
  0
VERTEX
  8
0
 10
73.500000
 20
175.594501
 42
0.065934
  0
VERTEX
  8
0
 10
75.186805
 20
177.978729
 42
0.092618
  0
VERTEX
  8
0
 10
75.953632
 20
180.463438
 42
0.154583
  0
VERTEX
  8
0
 10
75.604942
 20
182.256182
 42
0.274594
  0
VERTEX
  8
0
 10
74.352671
 20
183.000000
 42
-0.081256
  0
VERTEX
  8
0
 10
70.974807
 20
183.552592
 42
-0.020608
  0
VERTEX
  8
0
 10
65.766337
 20
185.545971
 42
-0.019952
  0
VERTEX
  8
0
 10
60.763144
 20
187.942022
 42
-0.094006
  0
VERTEX
  8
0
 10
58.285963
 20
189.920715
 42
-0.045951
  0
VERTEX
  8
0
 10
57.435630
 20
191.118108
 42
-0.033431
  0
VERTEX
  8
0
 10
56.711735
 20
192.583488
 42
-0.034041
  0
VERTEX
  8
0
 10
56.209300
 20
194.079854
 42
-0.060907
  0
VERTEX
  8
0
 10
56.035963
 20
195.363499
 42
0.028656
  0
VERTEX
  8
0
 10
55.920923
 20
197.007677
 42
0.194920
  0
VERTEX
  8
0
 10
55.529964
 20
197.703082
 42
0.182257
  0
VERTEX
  8
0
 10
54.748276
 20
197.956122
 42
0.024564
  0
VERTEX
  8
0
 10
53.000000
 20
197.786692
 42
-0.027608
  0
VERTEX
  8
0
 10
51.675376
 20
197.666449
 42
-0.076989
  0
VERTEX
  8
0
 10
50.751069
 20
197.776353
 42
-0.135845
  0
VERTEX
  8
0
 10
50.207132
 20
198.103930
 42
-0.191983
  0
VERTEX
  8
0
 10
50.000000
 20
198.623503
 42
0.111341
  0
VERTEX
  8
0
 10
49.873540
 20
199.184359
 42
0.053649
  0
VERTEX
  8
0
 10
49.485937
 20
199.815519
 42
0.049400
  0
VERTEX
  8
0
 10
48.919403
 20
200.415606
 42
0.050474
  0
VERTEX
  8
0
 10
48.250000
 20
200.888031
 42
-0.042204
  0
VERTEX
  8
0
 10
47.482156
 20
201.411162
 42
-0.146999
  0
VERTEX
  8
0
 10
47.148757
 20
201.902204
 42
-0.192646
  0
VERTEX
  8
0
 10
47.187529
 20
202.410912
 42
-0.080954
  0
VERTEX
  8
0
 10
47.592382
 20
202.980103
 42
-0.080512
  0
VERTEX
  8
0
 10
48.174366
 20
203.404713
 42
-0.164481
  0
VERTEX
  8
0
 10
48.727312
 20
203.484662
 42
-0.131046
  0
VERTEX
  8
0
 10
49.303002
 20
203.211486
 42
-0.043630
  0
VERTEX
  8
0
 10
49.964826
 20
202.542382
 42
0.108434
  0
VERTEX
  8
0
 10
51.355258
 20
201.458690
 42
0.105734
  0
VERTEX
  8
0
 10
53.084573
 20
201.044029
 42
0.147704
  0
VERTEX
  8
0
 10
54.448652
 20
201.419540
 42
0.257708
  0
VERTEX
  8
0
 10
55.000000
 20
202.418213
 42
0.055939
  0
VERTEX
  8
0
 10
54.797630
 20
204.221403
 42
0.082286
  0
VERTEX
  8
0
 10
54.196064
 20
205.694397
 42
0.104012
  0
VERTEX
  8
0
 10
53.284073
 20
206.655462
 42
0.152239
  0
VERTEX
  8
0
 10
52.178725
 20
207.000000
 42
-0.023416
  0
VERTEX
  8
0
 10
51.265558
 20
207.042788
 42
-0.383481
  0
VERTEX
  8
0
 10
51.074531
 20
207.250000
 42
-0.193233
  0
VERTEX
  8
0
 10
51.213566
 20
207.609153
 42
-0.008571
  0
VERTEX
  8
0
 10
52.159023
 20
208.587594
 42
-0.042770
  0
VERTEX
  8
0
 10
53.071352
 20
209.355899
 42
-0.130529
  0
VERTEX
  8
0
 10
53.824176
 20
209.634831
 42
-0.125702
  0
VERTEX
  8
0
 10
54.633547
 20
209.508490
 42
-0.038345
  0
VERTEX
  8
0
 10
55.740843
 20
208.929773
 42
0.052680
  0
VERTEX
  8
0
 10
56.624583
 20
208.499621
 42
0.044699
  0
VERTEX
  8
0
 10
57.628802
 20
208.234215
 42
0.046802
  0
VERTEX
  8
0
 10
58.597505
 20
208.160931
 42
0.087316
  0
VERTEX
  8
0
 10
59.367534
 20
208.310795
 42
0.178249
  0
VERTEX
  8
0
 10
60.414295
 20
209.227395
 42
0.091437
  0
VERTEX
  8
0
 10
60.964474
 20
210.907652
 42
0.115916
  0
VERTEX
  8
0
 10
60.818324
 20
212.413775
 42
0.321226
  0
VERTEX
  8
0
 10
60.000000
 20
213.000000
 42
-0.162771
  0
VERTEX
  8
0
 10
59.335028
 20
213.222368
 42
-0.233240
  0
VERTEX
  8
0
 10
59.059942
 20
213.767841
 42
-0.112187
  0
VERTEX
  8
0
 10
59.260939
 20
214.689859
 42
-0.031435
  0
VERTEX
  8
0
 10
59.973672
 20
215.991641
 42
-0.043931
  0
VERTEX
  8
0
 10
60.509250
 20
216.693851
 42
-0.181316
  0
VERTEX
  8
0
 10
60.976839
 20
216.932945
 42
-0.182338
  0
VERTEX
  8
0
 10
61.484638
 20
216.805025
 42
-0.044506
  0
VERTEX
  8
0
 10
62.158359
 20
216.241641
 42
0.114556
  0
VERTEX
  8
0
 10
63.863938
 20
215.178778
 42
0.116407
  0
VERTEX
  8
0
 10
65.852910
 20
214.984450
 42
0.148190
  0
VERTEX
  8
0
 10
67.393957
 20
215.688628
 42
0.215218
  0
VERTEX
  8
0
 10
68.000000
 20
217.031385
 42
0.074013
  0
VERTEX
  8
0
 10
67.877412
 20
217.855000
 42
0.064319
  0
VERTEX
  8
0
 10
67.518162
 20
218.650949
 42
0.066862
  0
VERTEX
  8
0
 10
66.986859
 20
219.300012
 42
0.096523
  0
VERTEX
  8
0
 10
66.359701
 20
219.692211
 42
-0.028649
  0
VERTEX
  8
0
 10
65.458842
 20
220.098503
 42
-0.304262
  0
VERTEX
  8
0
 10
65.275706
 20
220.434449
 42
-0.200749
  0
VERTEX
  8
0
 10
65.491191
 20
220.840538
 42
-0.013836
  0
VERTEX
  8
0
 10
66.539840
 20
221.652790
 42
-0.035741
  0
VERTEX
  8
0
 10
67.558352
 20
222.291231
 42
-0.121466
  0
VERTEX
  8
0
 10
68.312660
 20
222.481204
 42
-0.131361
  0
VERTEX
  8
0
 10
69.034256
 20
222.292135
 42
-0.044913
  0
VERTEX
  8
0
 10
69.930139
 20
221.669650
 42
0.052018
  0
VERTEX
  8
0
 10
70.811532
 20
221.075581
 42
0.015244
  0
VERTEX
  8
0
 10
72.277716
 20
220.351638
 42
0.015134
  0
VERTEX
  8
0
 10
73.987652
 20
219.632937
 42
0.015698
  0
VERTEX
  8
0
 10
75.717406
 20
219.028384
 42
-0.082567
  0
VERTEX
  8
0
 10
79.935563
 20
216.887837
 42
-0.062792
  0
VERTEX
  8
0
 10
83.699609
 20
213.311887
 42
-0.063393
  0
VERTEX
  8
0
 10
86.424131
 20
208.956351
 42
-0.088664
  0
VERTEX
  8
0
 10
87.582089
 20
204.523227
 42
-0.021109
  0
VERTEX
  8
0
 10
87.645731
 20
202.776529
 42
-0.028933
  0
VERTEX
  8
0
 10
87.545718
 20
201.207169
 42
-0.028800
  0
VERTEX
  8
0
 10
87.321749
 20
199.969872
 42
-0.197656
  0
VERTEX
  8
0
 10
86.966239
 20
199.479134
 42
0.114239
  0
VERTEX
  8
0
 10
86.595518
 20
199.111612
 42
0.049664
  0
VERTEX
  8
0
 10
86.283833
 20
198.487220
 42
0.045624
  0
VERTEX
  8
0
 10
86.071548
 20
197.727756
 42
0.045376
  0
VERTEX
  8
0
 10
86.000000
 20
196.940983
 42
0.089392
  0
VERTEX
  8
0
 10
86.170407
 20
195.995451
 42
0.167784
  0
VERTEX
  8
0
 10
86.658460
 20
195.403014
 42
0.110130
  0
VERTEX
  8
0
 10
87.578306
 20
195.088087
 42
0.027628
  0
VERTEX
  8
0
 10
89.171259
 20
195.000000
 42
0.036429
  0
VERTEX
  8
0
 10
90.501253
 20
195.097031
 42
0.031253
  0
VERTEX
  8
0
 10
91.874716
 20
195.387103
 42
0.032480
  0
VERTEX
  8
0
 10
93.092028
 20
195.811642
 42
0.073898
  0
VERTEX
  8
0
 10
93.921259
 20
196.317798
 42
-0.048113
  0
VERTEX
  8
0
 10
94.913874
 20
196.996009
 42
-0.007525
  0
VERTEX
  8
0
 10
97.011160
 20
198.109828
 42
-0.008311
  0
VERTEX
  8
0
 10
99.533350
 20
199.348555
 42
-0.007160
  0
VERTEX
  8
0
 10
102.223116
 20
200.567798
 42
0.027738
  0
VERTEX
  8
0
 10
106.563061
 20
202.754503
 42
0.109577
  0
VERTEX
  8
0
 10
108.756972
 20
204.759639
 42
0.353903
  0
VERTEX
  8
0
 10
108.656073
 20
206.235622
 42
0.170031
  0
VERTEX
  8
0
 10
106.864937
 20
207.180449
 42
-0.211211
  0
VERTEX
  8
0
 10
104.272169
 20
208.823621
 42
-0.016654
  0
VERTEX
  8
0
 10
99.861633
 20
215.916388
 42
-0.020874
  0
VERTEX
  8
0
 10
96.000554
 20
223.309828
 42
-0.109931
  0
VERTEX
  8
0
 10
95.005088
 20
227.750000
 42
0.025448
  0
VERTEX
  8
0
 10
94.913559
 20
229.493429
 42
0.129104
  0
VERTEX
  8
0
 10
94.573631
 20
230.396186
 42
0.180057
  0
VERTEX
  8
0
 10
93.900257
 20
230.854486
 42
0.060397
  0
VERTEX
  8
0
 10
92.700000
 20
231.000000
 42
0.045545
  0
VERTEX
  8
0
 10
91.731340
 20
230.911582
 42
0.037078
  0
VERTEX
  8
0
 10
90.723125
 20
230.647500
 42
0.038434
  0
VERTEX
  8
0
 10
89.825061
 20
230.260236
 42
0.075503
  0
VERTEX
  8
0
 10
89.200000
 20
229.800000
 42
-0.110925
  0
VERTEX
  8
0
 10
88.628040
 20
229.437854
 42
-0.376505
  0
VERTEX
  8
0
 10
88.250000
 20
229.587393
 42
-0.106457
  0
VERTEX
  8
0
 10
88.044371
 20
230.354730
 42
-0.012429
  0
VERTEX
  8
0
 10
88.000000
 20
232.139485
 42
-0.031979
  0
VERTEX
  8
0
 10
88.116798
 20
233.963795
 42
-0.089277
  0
VERTEX
  8
0
 10
88.501592
 20
235.181999
 42
-0.106810
  0
VERTEX
  8
0
 10
89.238224
 20
236.062176
 42
-0.058469
  0
VERTEX
  8
0
 10
90.447071
 20
236.793930
 42
-0.024628
  0
VERTEX
  8
0
 10
91.815983
 20
237.337963
 42
-0.150157
  0
VERTEX
  8
0
 10
92.568214
 20
237.361250
 42
-0.201858
  0
VERTEX
  8
0
 10
93.081579
 20
236.958280
 42
-0.049942
  0
VERTEX
  8
0
 10
93.514459
 20
235.954445
 42
0.085013
  0
VERTEX
  8
0
 10
93.906441
 20
235.195874
 42
0.073057
  0
VERTEX
  8
0
 10
94.546653
 20
234.564592
 42
0.073108
  0
VERTEX
  8
0
 10
95.340894
 20
234.144453
 42
0.085358
  0
VERTEX
  8
0
 10
96.180887
 20
234.000000
 42
0.063839
  0
VERTEX
  8
0
 10
97.211869
 20
234.132172
 42
0.201674
  0
VERTEX
  8
0
 10
97.753702
 20
234.546663
 42
0.140654
  0
VERTEX
  8
0
 10
97.948713
 20
235.342535
 42
0.026643
  0
VERTEX
  8
0
 10
97.809341
 20
236.845681
 42
-0.043321
  0
VERTEX
  8
0
 10
97.712529
 20
238.480775
 42
-0.174892
  0
VERTEX
  8
0
 10
98.071667
 20
239.396568
 42
-0.128749
  0
VERTEX
  8
0
 10
99.010075
 20
240.031285
 42
-0.019445
  0
VERTEX
  8
0
 10
101.195842
 20
240.706751
 42
-0.010836
  0
VERTEX
  8
0
 10
103.425611
 20
241.250438
 42
-0.109495
  0
VERTEX
  8
0
 10
104.375381
 20
241.249842
 42
-0.262953
  0
VERTEX
  8
0
 10
104.841918
 20
240.829793
 42
-0.081057
  0
VERTEX
  8
0
 10
105.000000
 20
239.861069
 42
0.084163
  0
VERTEX
  8
0
 10
105.133795
 20
239.071848
 42
0.121975
  0
VERTEX
  8
0
 10
105.518663
 20
238.482634
 42
0.116199
  0
VERTEX
  8
0
 10
106.150177
 20
238.122668
 42
0.071801
  0
VERTEX
  8
0
 10
107.000000
 20
238.000000
 42
0.197639
  0
VERTEX
  8
0
 10
108.402751
 20
238.577016
 42
0.184397
  0
VERTEX
  8
0
 10
109.045642
 20
239.995235
 42
0.192053
  0
VERTEX
  8
0
 10
108.569852
 20
241.437829
 42
0.206834
  0
VERTEX
  8
0
 10
107.250000
 20
242.099680
 42
-0.043676
  0
VERTEX
  8
0
 10
106.623966
 20
242.190582
 42
-0.557347
  0
VERTEX
  8
0
 10
106.562500
 20
242.374600
 42
-0.131249
  0
VERTEX
  8
0
 10
106.920856
 20
242.627860
 42
-0.011072
  0
VERTEX
  8
0
 10
108.000000
 20
243.000000
 42
-0.024020
  0
VERTEX
  8
0
 10
110.751573
 20
243.737594
 42
-0.093154
  0
VERTEX
  8
0
 10
112.508657
 20
243.786987
 42
-0.164551
  0
VERTEX
  8
0
 10
113.619414
 20
243.203271
 42
-0.126923
  0
VERTEX
  8
0
 10
114.289749
 20
242.000000
 42
0.081595
  0
VERTEX
  8
0
 10
114.638684
 20
241.215706
 42
0.078198
  0
VERTEX
  8
0
 10
115.224345
 20
240.571090
 42
0.079688
  0
VERTEX
  8
0
 10
115.968612
 20
240.146766
 42
0.090022
  0
VERTEX
  8
0
 10
116.777170
 20
240.000000
 42
-0.151905
  0
VERTEX
  8
0
 10
117.826092
 20
239.673800
 42
-0.151053
  0
VERTEX
  8
0
 10
118.507840
 20
238.809644
 42
-0.060102
  0
VERTEX
  8
0
 10
118.958514
 20
237.030179
 42
-0.008402
  0
VERTEX
  8
0
 10
119.380555
 20
233.250000
 42
-0.004406
  0
VERTEX
  8
0
 10
120.924530
 20
215.250433
 42
-0.021244
  0
VERTEX
  8
0
 10
121.276626
 20
204.981772
 42
-0.037990
  0
VERTEX
  8
0
 10
120.717964
 20
198.358609
 42
-0.097153
  0
VERTEX
  8
0
 10
119.057319
 20
193.862276
 42
0.064965
  0
VERTEX
  8
0
 10
117.580383
 20
190.534863
 42
0.075546
  0
VERTEX
  8
0
 10
117.107347
 20
187.108506
 42
0.070805
  0
VERTEX
  8
0
 10
117.668050
 20
183.519802
 42
0.048649
  0
VERTEX
  8
0
 10
119.250000
 20
179.710162
 42
-0.027321
  0
VERTEX
  8
0
 10
121.262440
 20
175.392703
 42
-0.075370
  0
VERTEX
  8
0
 10
122.029090
 20
172.134444
 42
-0.109586
  0
VERTEX
  8
0
 10
121.670340
 20
169.544998
 42
-0.108083
  0
VERTEX
  8
0
 10
120.250000
 20
167.335386
 42
0.052564
  0
VERTEX
  8
0
 10
119.201552
 20
166.043085
 42
0.061885
  0
VERTEX
  8
0
 10
118.512318
 20
164.626948
 42
0.054167
  0
VERTEX
  8
0
 10
118.131933
 20
162.934740
 42
0.029087
  0
VERTEX
  8
0
 10
118.014742
 20
160.795455
 42
0.045870
  0
VERTEX
  8
0
 10
118.386199
 20
156.901609
 42
0.082097
  0
VERTEX
  8
0
 10
119.487284
 20
153.890893
 42
0.084440
  0
VERTEX
  8
0
 10
121.472787
 20
151.450203
 42
0.051063
  0
VERTEX
  8
0
 10
124.518979
 20
149.287620
 42
-0.011588
  0
VERTEX
  8
0
 10
125.972195
 20
148.419487
 42
-0.027378
  0
VERTEX
  8
0
 10
127.001253
 20
147.690392
 42
-0.061792
  0
VERTEX
  8
0
 10
127.472830
 20
147.210071
 42
-0.616174
  0
VERTEX
  8
0
 10
127.378902
 20
147.016450
 42
0.168807
  0
VERTEX
  8
0
 10
126.804752
 20
146.807433
 42
0.025800
  0
VERTEX
  8
0
 10
125.888324
 20
145.978715
 42
0.026411
  0
VERTEX
  8
0
 10
124.871860
 20
144.845673
 42
0.020137
  0
VERTEX
  8
0
 10
123.878902
 20
143.506833
 42
-0.034836
  0
VERTEX
  8
0
 10
122.002345
 20
141.126068
 42
-0.138232
  0
VERTEX
  8
0
 10
120.438951
 20
140.148258
 42
-0.341336
  0
VERTEX
  8
0
 10
119.424376
 20
140.546073
 42
-0.135635
  0
VERTEX
  8
0
 10
119.000000
 20
142.081703
 42
0.145519
  0
VERTEX
  8
0
 10
118.197290
 20
144.781392
 42
0.032612
  0
VERTEX
  8
0
 10
115.286087
 20
148.665282
 42
0.031146
  0
VERTEX
  8
0
 10
111.937532
 20
152.113815
 42
0.186580
  0
VERTEX
  8
0
 10
109.645388
 20
153.000000
 42
0.102000
  0
VERTEX
  8
0
 10
106.412295
 20
152.333516
 42
0.030370
  0
VERTEX
  8
0
 10
101.888286
 20
150.050733
 42
0.027516
  0
VERTEX
  8
0
 10
97.750045
 20
147.321387
 42
0.172269
  0
VERTEX
  8
0
 10
96.358528
 20
145.250000
 42
-0.072805
  0
VERTEX
  8
0
 10
95.887500
 20
144.122414
 42
-0.134425
  0
VERTEX
  8
0
 10
95.174374
 20
143.441227
 42
-0.096245
  0
VERTEX
  8
0
 10
94.036964
 20
143.085205
 42
-0.025962
  0
VERTEX
  8
0
 10
92.141592
 20
142.972222
 42
0.042859
  0
VERTEX
  8
0
 10
90.283113
 20
142.798335
 42
0.060293
  0
VERTEX
  8
0
 10
88.693718
 20
142.307728
 42
0.057942
  0
VERTEX
  8
0
 10
87.221765
 20
141.434195
 42
0.035997
  0
VERTEX
  8
0
 10
85.714374
 20
140.103263
 42
-0.083444
  0
VERTEX
  8
0
 10
83.003149
 20
138.131580
 42
-0.060617
  0
VERTEX
  8
0
 10
79.480964
 20
136.880977
 42
-0.041124
  0
VERTEX
  8
0
 10
74.578943
 20
136.200704
 42
-0.013924
  0
VERTEX
  8
0
 10
67.373183
 20
136.000000
 42
0.000000
  0
VERTEX
  8
0
 10
61.025508
 20
136.000000
 42
0.000000
  0
VERTEX
  8
0
 10
61.659490
 20
143.500000
 42
0.004637
  0
VERTEX
  8
0
 10
62.017263
 20
148.257727
 42
0.066300
  0
VERTEX
  8
0
 10
61.904324
 20
149.950412
 42
0.227723
  0
VERTEX
  8
0
 10
61.328174
 20
150.713293
 42
0.119602
  0
VERTEX
  8
0
 10
60.146736
 20
151.000000
 42
0.063671
  0
VERTEX
  8
0
 10
59.319692
 20
150.894254
 42
0.083438
  0
VERTEX
  8
0
 10
58.625555
 20
150.583580
 42
0.100728
  0
VERTEX
  8
0
 10
58.164389
 20
150.119915
 42
0.146514
  0
VERTEX
  8
0
 10
58.000000
 20
149.570958
 42
-0.297634
  0
VERTEX
  8
0
 10
57.224811
 20
148.384068
 42
-0.018099
  0
VERTEX
  8
0
 10
53.088843
 20
146.744268
 42
-0.026090
  0
VERTEX
  8
0
 10
48.621680
 20
145.415588
 42
-0.059302
  0
VERTEX
  8
0
 10
45.130020
 20
145.000000
 42
-0.082396
  0
VERTEX
  8
0
 10
42.363163
 20
145.459074
 42
-0.046950
  0
VERTEX
  8
0
 10
39.263313
 20
146.853333
 42
-0.046263
  0
VERTEX
  8
0
 10
36.725166
 20
148.623382
 42
-0.220831
  0
VERTEX
  8
0
 10
36.000000
 20
150.185212
 42
0.087853
  0
VERTEX
  8
0
 10
35.868583
 20
150.927379
 42
0.112887
  0
VERTEX
  8
0
 10
35.492510
 20
151.507272
 42
0.110862
  0
VERTEX
  8
0
 10
34.895688
 20
151.873037
 42
0.082435
  0
VERTEX
  8
0
 10
34.130842
 20
152.000000
 42
0.278004
  0
VERTEX
  8
0
 10
32.638886
 20
151.100978
 42
0.075649
  0
VERTEX
  8
0
 10
31.694710
 20
148.390158
 42
0.037306
  0
VERTEX
  8
0
 10
31.160981
 20
143.538620
 42
0.008451
  0
VERTEX
  8
0
 10
31.011006
 20
135.250000
 42
0.003542
  0
VERTEX
  8
0
 10
31.047081
 20
129.130592
 42
0.062550
  0
VERTEX
  8
0
 10
31.318667
 20
127.173899
 42
0.224146
  0
VERTEX
  8
0
 10
32.048792
 20
126.313819
 42
0.106888
  0
VERTEX
  8
0
 10
33.500000
 20
126.000000
 42
0.044971
  0
VERTEX
  8
0
 10
34.730447
 20
126.110893
 42
0.139157
  0
VERTEX
  8
0
 10
35.472210
 20
126.474988
 42
0.152784
  0
VERTEX
  8
0
 10
35.872000
 20
127.149974
 42
0.057956
  0
VERTEX
  8
0
 10
35.999875
 20
128.250000
 42
-0.146806
  0
VERTEX
  8
0
 10
36.379680
 20
129.515938
 42
-0.193996
  0
VERTEX
  8
0
 10
37.360802
 20
130.193750
 42
-0.051927
  0
VERTEX
  8
0
 10
39.578291
 20
130.455666
 42
-0.003452
  0
VERTEX
  8
0
 10
45.999185
 20
130.500000
 42
-0.004397
  0
VERTEX
  8
0
 10
51.782098
 20
130.449139
 42
-0.038933
  0
VERTEX
  8
0
 10
54.320146
 20
130.206230
 42
-0.119423
  0
VERTEX
  8
0
 10
55.539680
 20
129.674786
 42
-0.234597
  0
VERTEX
  8
0
 10
55.999309
 20
128.750000
 42
0.213654
  0
VERTEX
  8
0
 10
56.560157
 20
127.498727
 42
0.195393
  0
VERTEX
  8
0
 10
57.897033
 20
127.022030
 42
0.159869
  0
VERTEX
  8
0
 10
59.401118
 20
127.588957
 42
0.160740
  0
VERTEX
  8
0
 10
60.272909
 20
128.935603
 42
-0.184180
  0
VERTEX
  8
0
 10
61.030388
 20
129.996508
 42
-0.099934
  0
VERTEX
  8
0
 10
62.535183
 20
130.610241
 42
-0.035935
  0
VERTEX
  8
0
 10
65.447827
 20
130.950255
 42
-0.003996
  0
VERTEX
  8
0
 10
72.139540
 20
131.193812
 42
-0.004049
  0
VERTEX
  8
0
 10
79.161492
 20
131.336321
 42
-0.038937
  0
VERTEX
  8
0
 10
82.141724
 20
131.140414
 42
-0.092863
  0
VERTEX
  8
0
 10
83.962990
 20
130.519289
 42
-0.080889
  0
VERTEX
  8
0
 10
85.537565
 20
129.258210
 42
0.056857
  0
VERTEX
  8
0
 10
86.776823
 20
128.164425
 42
0.071795
  0
VERTEX
  8
0
 10
88.141201
 20
127.477896
 42
0.057505
  0
VERTEX
  8
0
 10
89.873076
 20
127.112449
 42
0.023274
  0
VERTEX
  8
0
 10
92.287565
 20
127.000000
 42
-0.013362
  0
VERTEX
  8
0
 10
94.834437
 20
126.931926
 42
-0.081125
  0
VERTEX
  8
0
 10
96.119021
 20
126.650948
 42
-0.176684
  0
VERTEX
  8
0
 10
96.761245
 20
126.079678
 42
-0.124143
  0
VERTEX
  8
0
 10
97.000000
 20
125.132886
 42
0.142460
  0
VERTEX
  8
0
 10
97.268753
 20
124.208772
 42
0.041628
  0
VERTEX
  8
0
 10
98.172864
 20
123.017592
 42
0.036684
  0
VERTEX
  8
0
 10
99.502322
 20
121.741257
 42
0.026775
  0
VERTEX
  8
0
 10
101.147608
 20
120.521016
 42
0.022889
  0
VERTEX
  8
0
 10
103.424169
 20
119.159982
 42
0.055553
  0
VERTEX
  8
0
 10
105.238245
 20
118.431053
 42
0.063273
  0
VERTEX
  8
0
 10
107.020254
 20
118.171375
 42
0.037933
  0
VERTEX
  8
0
 10
109.158927
 20
118.294491
 42
0.093123
  0
VERTEX
  8
0
 10
112.523808
 20
119.406005
 42
0.063332
  0
VERTEX
  8
0
 10
115.787767
 20
121.792051
 42
0.065925
  0
VERTEX
  8
0
 10
118.198976
 20
124.765294
 42
0.138305
  0
VERTEX
  8
0
 10
119.000000
 20
127.605755
 42
-0.144312
  0
VERTEX
  8
0
 10
119.494786
 20
129.284351
 42
-0.240820
  0
VERTEX
  8
0
 10
120.740734
 20
130.005810
 42
-0.194126
  0
VERTEX
  8
0
 10
122.292589
 20
129.472085
 42
-0.107184
  0
VERTEX
  8
0
 10
123.512872
 20
127.841669
 42
0.114486
  0
VERTEX
  8
0
 10
125.384161
 20
125.415222
 42
0.070485
  0
VERTEX
  8
0
 10
128.482512
 20
123.536244
 42
0.063626
  0
VERTEX
  8
0
 10
132.338630
 20
122.438546
 42
0.059488
  0
VERTEX
  8
0
 10
136.437975
 20
122.309734
 42
0.026596
  0
VERTEX
  8
0
 10
139.162278
 20
122.695326
 42
0.065659
  0
VERTEX
  8
0
 10
141.071396
 20
123.338411
 42
0.066096
  0
VERTEX
  8
0
 10
142.741063
 20
124.451616
 42
0.027240
  0
VERTEX
  8
0
 10
144.687975
 20
126.356584
 42
0.026065
  0
VERTEX
  8
0
 10
146.523495
 20
128.581907
 42
0.075514
  0
VERTEX
  8
0
 10
147.454840
 20
130.341363
 42
0.066810
  0
VERTEX
  8
0
 10
147.881549
 20
132.417804
 42
0.017316
  0
VERTEX
  8
0
 10
148.000000
 20
135.837001
 42
0.016441
  0
VERTEX
  8
0
 10
147.890184
 20
139.175886
 42
0.062718
  0
VERTEX
  8
0
 10
147.495345
 20
141.217594
 42
0.077622
  0
VERTEX
  8
0
 10
146.653867
 20
142.869106
 42
0.034153
  0
VERTEX
  8
0
 10
145.079952
 20
144.758923
 42
0.021893
  0
VERTEX
  8
0
 10
143.809285
 20
145.977049
 42
0.020356
  0
VERTEX
  8
0
 10
142.406682
 20
147.110825
 42
0.020825
  0
VERTEX
  8
0
 10
141.077374
 20
148.015289
 42
0.062199
  0
VERTEX
  8
0
 10
140.079952
 20
148.474624
 42
-0.075900
  0
VERTEX
  8
0
 10
138.836147
 20
149.089072
 42
-0.123386
  0
VERTEX
  8
0
 10
138.067905
 20
149.974034
 42
-0.285401
  0
VERTEX
  8
0
 10
138.127833
 20
150.664007
 42
-0.236290
  0
VERTEX
  8
0
 10
138.799112
 20
151.000000
 42
0.302174
  0
VERTEX
  8
0
 10
139.793811
 20
151.661549
 42
0.025830
  0
VERTEX
  8
0
 10
140.883306
 20
154.689895
 42
0.031621
  0
VERTEX
  8
0
 10
141.719915
 20
158.255285
 42
0.042077
  0
VERTEX
  8
0
 10
141.996262
 20
161.570998
 42
0.041375
  0
VERTEX
  8
0
 10
141.850116
 20
163.313922
 42
0.026125
  0
VERTEX
  8
0
 10
141.407220
 20
165.307643
 42
0.026176
  0
VERTEX
  8
0
 10
140.761647
 20
167.235214
 42
0.043028
  0
VERTEX
  8
0
 10
139.996262
 20
168.774170
 42
-0.029131
  0
VERTEX
  8
0
 10
139.232069
 20
170.209383
 42
-0.024224
  0
VERTEX
  8
0
 10
138.586402
 20
171.813827
 42
-0.024903
  0
VERTEX
  8
0
 10
138.138978
 20
173.344625
 42
-0.058709
  0
VERTEX
  8
0
 10
138.000000
 20
174.524170
 42
0.058331
  0
VERTEX
  8
0
 10
137.838635
 20
175.902648
 42
0.204364
  0
VERTEX
  8
0
 10
137.318606
 20
176.606620
 42
0.117658
  0
VERTEX
  8
0
 10
136.238282
 20
176.937428
 42
0.014420
  0
VERTEX
  8
0
 10
133.750000
 20
177.022236
 42
-0.033045
  0
VERTEX
  8
0
 10
131.861161
 20
177.157135
 42
-0.033605
  0
VERTEX
  8
0
 10
130.017386
 20
177.539628
 42
-0.035827
  0
VERTEX
  8
0
 10
128.382737
 20
178.124045
 42
-0.060219
  0
VERTEX
  8
0
 10
127.130655
 20
178.866559
 42
0.000000
  0
VERTEX
  8
0
 10
124.761311
 20
180.688646
 42
0.000000
  0
VERTEX
  8
0
 10
127.821319
 20
180.239533
 42
0.048434
  0
VERTEX
  8
0
 10
129.431349
 20
180.160682
 42
0.078002
  0
VERTEX
  8
0
 10
130.773601
 20
180.437728
 42
0.071690
  0
VERTEX
  8
0
 10
132.043014
 20
181.135123
 42
0.034987
  0
VERTEX
  8
0
 10
133.440664
 20
182.349755
 42
0.094362
  0
VERTEX
  8
0
 10
135.424766
 20
185.267213
 42
0.111193
  0
VERTEX
  8
0
 10
136.046439
 20
188.542312
 42
0.102349
  0
VERTEX
  8
0
 10
135.213502
 20
191.977526
 42
0.069779
  0
VERTEX
  8
0
 10
133.000000
 20
195.347219
 42
-0.019862
  0
VERTEX
  8
0
 10
131.851547
 20
196.765044
 42
-0.023215
  0
VERTEX
  8
0
 10
130.881250
 20
198.199657
 42
-0.023029
  0
VERTEX
  8
0
 10
130.183016
 20
199.471099
 42
-0.114535
  0
VERTEX
  8
0
 10
130.000000
 20
200.259570
 42
0.081277
  0
VERTEX
  8
0
 10
129.891470
 20
200.922809
 42
0.044133
  0
VERTEX
  8
0
 10
129.559375
 20
201.681482
 42
0.042478
  0
VERTEX
  8
0
 10
129.073970
 20
202.413204
 42
0.051908
  0
VERTEX
  8
0
 10
128.500000
 20
203.000000
 42
-0.063393
  0
VERTEX
  8
0
 10
127.925824
 20
203.614539
 42
-0.044279
  0
VERTEX
  8
0
 10
127.440625
 20
204.430735
 42
-0.044533
  0
VERTEX
  8
0
 10
127.109963
 20
205.312334
 42
-0.067559
  0
VERTEX
  8
0
 10
127.000000
 20
206.122445
 42
-0.198075
  0
VERTEX
  8
0
 10
127.440381
 20
207.190483
 42
-0.133485
  0
VERTEX
  8
0
 10
128.597377
 20
207.857890
 42
-0.056444
  0
VERTEX
  8
0
 10
130.837970
 20
208.185183
 42
-0.010524
  0
VERTEX
  8
0
 10
135.000000
 20
208.231935
 42
-0.018561
  0
VERTEX
  8
0
 10
135.375193
 20
208.214313
 42
-0.000261
  0
VERTEX
  8
0
 10
137.629688
 20
208.023187
 42
-0.000728
  0
VERTEX
  8
0
 10
140.243704
 20
207.796370
 42
-0.000480
  0
VERTEX
  8
0
 10
143.250000
 20
207.528194
 42
0.004442
  0
VERTEX
  8
0
 10
148.145758
 20
207.130544
 42
0.062378
  0
VERTEX
  8
0
 10
149.904666
 20
207.222854
 42
0.221287
  0
VERTEX
  8
0
 10
150.696323
 20
207.779207
 42
0.131414
  0
VERTEX
  8
0
 10
151.000000
 20
208.914680
 42
0.051423
  0
VERTEX
  8
0
 10
150.917722
 20
209.712579
 42
0.071349
  0
VERTEX
  8
0
 10
150.672933
 20
210.387437
 42
0.091392
  0
VERTEX
  8
0
 10
150.311558
 20
210.841051
 42
0.180890
  0
VERTEX
  8
0
 10
149.886581
 20
211.000000
 42
-0.419298
  0
VERTEX
  8
0
 10
148.805449
 20
212.100029
 42
-0.006939
  0
VERTEX
  8
0
 10
149.100761
 20
221.560325
 42
-0.008016
  0
VERTEX
  8
0
 10
149.675524
 20
230.953287
 42
-0.239444
  0
VERTEX
  8
0
 10
150.875628
 20
232.923134
 42
0.102290
  0
VERTEX
  8
0
 10
151.353905
 20
233.375393
 42
0.066998
  0
VERTEX
  8
0
 10
151.702503
 20
234.052102
 42
0.063388
  0
VERTEX
  8
0
 10
151.874801
 20
234.840039
 42
0.069770
  0
VERTEX
  8
0
 10
151.835278
 20
235.619827
 42
0.249498
  0
VERTEX
  8
0
 10
150.629108
 20
237.114546
 42
0.055560
  0
VERTEX
  8
0
 10
147.378445
 20
238.091004
 42
0.033585
  0
VERTEX
  8
0
 10
142.068973
 20
238.697100
 42
0.009512
  0
VERTEX
  8
0
 10
133.750000
 20
238.925877
 42
0.004595
  0
VERTEX
  8
0
 10
128.429847
 20
238.922049
 42
0.051730
  0
VERTEX
  8
0
 10
126.334485
 20
238.683670
 42
0.173443
  0
VERTEX
  8
0
 10
125.374955
 20
238.081939
 42
0.168367
  0
VERTEX
  8
0
 10
125.000000
 20
237.000000
 42
0.041975
  0
VERTEX
  8
0
 10
125.064394
 20
236.234293
 42
0.061552
  0
VERTEX
  8
0
 10
125.257934
 20
235.587500
 42
0.080871
  0
VERTEX
  8
0
 10
125.542281
 20
235.148813
 42
0.211657
  0
VERTEX
  8
0
 10
125.878075
 20
235.000000
 42
-0.266209
  0
VERTEX
  8
0
 10
126.320268
 20
234.746611
 42
-0.012998
  0
VERTEX
  8
0
 10
127.167021
 20
233.211630
 42
-0.018220
  0
VERTEX
  8
0
 10
128.096825
 20
231.245126
 42
-0.011841
  0
VERTEX
  8
0
 10
129.032936
 20
228.911931
 42
-0.010938
  0
VERTEX
  8
0
 10
130.394189
 20
225.014167
 42
-0.066228
  0
VERTEX
  8
0
 10
130.780443
 20
222.913716
 42
-0.073621
  0
VERTEX
  8
0
 10
130.581784
 20
220.880129
 42
-0.015253
  0
VERTEX
  8
0
 10
129.603761
 20
217.411931
 42
-0.024529
  0
VERTEX
  8
0
 10
128.427670
 20
214.233614
 42
-0.078776
  0
VERTEX
  8
0
 10
127.231171
 20
212.328075
 42
-0.410110
  0
VERTEX
  8
0
 10
126.437839
 20
212.268861
 42
-0.213657
  0
VERTEX
  8
0
 10
125.968808
 20
213.250000
 42
0.020869
  0
VERTEX
  8
0
 10
125.909582
 20
214.136904
 42
0.000689
  0
VERTEX
  8
0
 10
125.521463
 20
217.657813
 42
0.001313
  0
VERTEX
  8
0
 10
125.046735
 20
221.811571
 42
0.000914
  0
VERTEX
  8
0
 10
124.489734
 20
226.500000
 42
-0.004782
  0
VERTEX
  8
0
 10
123.454385
 20
235.830507
 42
-0.018962
  0
VERTEX
  8
0
 10
123.091112
 20
241.586539
 42
-0.024270
  0
VERTEX
  8
0
 10
123.176551
 20
245.233767
 42
-0.393293
  0
VERTEX
  8
0
 10
124.000000
 20
246.000000
 42
-0.191087
  0
VERTEX
  8
0
 10
124.381882
 20
245.848523
 42
-0.088204
  0
VERTEX
  8
0
 10
124.706250
 20
245.412500
 42
-0.068025
  0
VERTEX
  8
0
 10
124.926307
 20
244.765418
 42
-0.048028
  0
VERTEX
  8
0
 10
125.000000
 20
244.000000
 42
0.072254
  0
VERTEX
  8
0
 10
125.126841
 20
243.126841
 42
0.124864
  0
VERTEX
  8
0
 10
125.500000
 20
242.500000
 42
0.124864
  0
VERTEX
  8
0
 10
126.126841
 20
242.126841
 42
0.072254
  0
VERTEX
  8
0
 10
127.000000
 20
242.000000
 42
0.192998
  0
VERTEX
  8
0
 10
128.379850
 20
242.553223
 42
0.189794
  0
VERTEX
  8
0
 10
129.007672
 20
243.911191
 42
0.174674
  0
VERTEX
  8
0
 10
128.560466
 20
245.421218
 42
0.172017
  0
VERTEX
  8
0
 10
127.250000
 20
246.310674
 42
-0.467288
  0
VERTEX
  8
0
 10
127.164818
 20
246.491186
 42
-0.240595
  0
VERTEX
  8
0
 10
127.389863
 20
246.667734
 42
-0.032446
  0
VERTEX
  8
0
 10
128.489245
 20
246.809377
 42
-0.009626
  0
VERTEX
  8
0
 10
130.183578
 20
246.883999
 42
-0.012338
  0
VERTEX
  8
0
 10
133.040069
 20
246.884248
 42
-0.115578
  0
VERTEX
  8
0
 10
134.221881
 20
246.576530
 42
-0.196822
  0
VERTEX
  8
0
 10
134.843185
 20
245.834783
 42
-0.048545
  0
SEQEND
  0
POLYLINE
  8
0
 66
1
 70
1
  0
VERTEX
  8
0
 10
177.472506
 20
244.350805
 42
-0.023487
  0
VERTEX
  8
0
 10
178.741719
 20
243.391085
 42
-0.577706
  0
VERTEX
  8
0
 10
178.680983
 20
243.040057
 42
-0.194573
  0
VERTEX
  8
0
 10
177.976895
 20
243.063023
 42
-0.014988
  0
VERTEX
  8
0
 10
176.236431
 20
243.897167
 42
0.007083
  0
VERTEX
  8
0
 10
175.395022
 20
244.316908
 42
0.003158
  0
VERTEX
  8
0
 10
174.275702
 20
244.846940
 42
0.003125
  0
VERTEX
  8
0
 10
173.084150
 20
245.392953
 42
0.004228
  0
VERTEX
  8
0
 10
172.000000
 20
245.870587
 42
-0.001111
  0
VERTEX
  8
0
 10
170.300215
 20
246.606829
 42
-0.544293
  0
VERTEX
  8
0
 10
170.284138
 20
246.704631
 42
-0.238989
  0
VERTEX
  8
0
 10
170.442191
 20
246.747973
 42
-0.000775
  0
VERTEX
  8
0
 10
172.500000
 20
246.324225
 42
-0.025170
  0
VERTEX
  8
0
 10
173.792900
 20
245.987249
 42
-0.018129
  0
VERTEX
  8
0
 10
175.198174
 20
245.487704
 42
-0.018382
  0
VERTEX
  8
0
 10
176.503165
 20
244.913422
 42
-0.037303
  0
SEQEND
  0
POLYLINE
  8
0
 66
1
 70
1
  0
VERTEX
  8
0
 10
136.000000
 20
234.059017
 42
-0.089642
  0
VERTEX
  8
0
 10
135.926698
 20
233.653442
 42
-0.053229
  0
VERTEX
  8
0
 10
135.706250
 20
233.212900
 42
-0.051032
  0
VERTEX
  8
0
 10
135.382515
 20
232.806203
 42
-0.060810
  0
VERTEX
  8
0
 10
135.000000
 20
232.500000
 42
-0.139169
  0
VERTEX
  8
0
 10
134.620352
 20
232.392057
 42
-0.191142
  0
VERTEX
  8
0
 10
134.293750
 20
232.521475
 42
-0.138808
  0
VERTEX
  8
0
 10
134.073267
 20
232.889346
 42
-0.066118
  0
VERTEX
  8
0
 10
134.000000
 20
233.440983
 42
-0.062283
  0
VERTEX
  8
0
 10
134.074545
 20
234.037096
 42
-0.080552
  0
VERTEX
  8
0
 10
134.293750
 20
234.542039
 42
-0.097988
  0
VERTEX
  8
0
 10
134.618621
 20
234.879982
 42
-0.153634
  0
VERTEX
  8
0
 10
135.000000
 20
235.000000
 42
-0.092995
  0
VERTEX
  8
0
 10
135.381732
 20
234.928382
 42
-0.096318
  0
VERTEX
  8
0
 10
135.706250
 20
234.723586
 42
-0.099231
  0
VERTEX
  8
0
 10
135.923444
 20
234.418051
 42
-0.105429
  0
SEQEND
  0
POLYLINE
  8
0
 66
1
 70
1
  0
VERTEX
  8
0
 10
81.448892
 20
226.397817
 42
0.034020
  0
VERTEX
  8
0
 10
82.425580
 20
226.714901
 42
0.046079
  0
VERTEX
  8
0
 10
83.250612
 20
227.138173
 42
0.054379
  0
VERTEX
  8
0
 10
83.824977
 20
227.597689
 42
0.199427
  0
VERTEX
  8
0
 10
84.000000
 20
228.019052
 42
-0.163300
  0
VERTEX
  8
0
 10
84.125558
 20
228.393238
 42
-0.096012
  0
VERTEX
  8
0
 10
84.480240
 20
228.711847
 42
-0.077245
  0
VERTEX
  8
0
 10
85.009582
 20
228.927119
 42
-0.058082
  0
VERTEX
  8
0
 10
85.634859
 20
229.000000
 42
-0.081343
  0
VERTEX
  8
0
 10
86.262611
 20
228.897193
 42
-0.438934
  0
VERTEX
  8
0
 10
86.387542
 20
228.616619
 42
-0.120648
  0
VERTEX
  8
0
 10
86.018720
 20
228.129892
 42
-0.012646
  0
VERTEX
  8
0
 10
84.877761
 20
227.250000
 42
-0.020803
  0
VERTEX
  8
0
 10
80.529729
 20
224.338539
 42
-0.087017
  0
VERTEX
  8
0
 10
77.610698
 20
223.190080
 42
-0.192416
  0
VERTEX
  8
0
 10
75.691219
 20
223.537277
 42
-0.177926
  0
VERTEX
  8
0
 10
74.460375
 20
225.124846
 42
-0.118884
  0
VERTEX
  8
0
 10
74.334909
 20
226.897146
 42
-0.202889
  0
VERTEX
  8
0
 10
75.118470
 20
228.129554
 42
-0.241088
  0
VERTEX
  8
0
 10
76.422370
 20
228.301320
 42
-0.147644
  0
VERTEX
  8
0
 10
77.698892
 20
227.360107
 42
0.078783
  0
VERTEX
  8
0
 10
78.391231
 20
226.687060
 42
0.090959
  0
VERTEX
  8
0
 10
79.225835
 20
226.301653
 42
0.079270
  0
VERTEX
  8
0
 10
80.235432
 20
226.207507
 42
0.045201
  0
SEQEND
  0
POLYLINE
  8
0
 66
1
 70
1
  0
VERTEX
  8
0
 10
29.886090
 20
202.750000
 42
-0.015017
  0
VERTEX
  8
0
 10
29.307474
 20
201.726492
 42
-0.008109
  0
VERTEX
  8
0
 10
28.537331
 20
200.500228
 42
-0.008069
  0
VERTEX
  8
0
 10
27.711718
 20
199.275481
 42
-0.012583
  0
VERTEX
  8
0
 10
26.957597
 20
198.250777
 42
-0.014407
  0
VERTEX
  8
0
 10
25.962969
 20
197.041768
 42
-0.146363
  0
VERTEX
  8
0
 10
25.419054
 20
196.698557
 42
-0.317204
  0
VERTEX
  8
0
 10
25.000745
 20
196.847512
 42
-0.062072
  0
VERTEX
  8
0
 10
24.602564
 20
197.593317
 42
-0.093682
  0
VERTEX
  8
0
 10
24.469427
 20
198.326679
 42
-0.150867
  0
VERTEX
  8
0
 10
24.659625
 20
198.927240
 42
-0.124222
  0
VERTEX
  8
0
 10
25.194907
 20
199.394296
 42
-0.053672
  0
VERTEX
  8
0
 10
26.085667
 20
199.732653
 42
0.062135
  0
VERTEX
  8
0
 10
27.059900
 20
200.121649
 42
0.139007
  0
VERTEX
  8
0
 10
27.621586
 20
200.677576
 42
0.127810
  0
VERTEX
  8
0
 10
27.834987
 20
201.479554
 42
0.048716
  0
VERTEX
  8
0
 10
27.728465
 20
202.640113
 42
-0.037664
  0
VERTEX
  8
0
 10
27.595442
 20
203.806137
 42
-0.148029
  0
VERTEX
  8
0
 10
27.776354
 20
204.498385
 42
-0.189132
  0
VERTEX
  8
0
 10
28.276406
 20
204.876479
 42
-0.068495
  0
VERTEX
  8
0
 10
29.173856
 20
205.000000
 42
-0.040591
  0
VERTEX
  8
0
 10
30.178827
 20
204.918281
 42
-0.282676
  0
VERTEX
  8
0
 10
30.535701
 20
204.609515
 42
-0.182115
  0
VERTEX
  8
0
 10
30.504711
 20
204.033108
 42
-0.017629
  0
SEQEND
  0
POLYLINE
  8
0
 66
1
 70
1
  0
VERTEX
  8
0
 10
24.000000
 20
193.082162
 42
-0.092589
  0
VERTEX
  8
0
 10
23.891951
 20
192.503678
 42
-0.006955
  0
VERTEX
  8
0
 10
23.291596
 20
191.014491
 42
-0.009424
  0
VERTEX
  8
0
 10
22.512092
 20
189.249903
 42
-0.007022
  0
VERTEX
  8
0
 10
21.588411
 20
187.332162
 42
0.018240
  0
VERTEX
  8
0
 10
19.870373
 20
183.550479
 42
0.013816
  0
VERTEX
  8
0
 10
18.254768
 20
179.288296
 42
0.011587
  0
VERTEX
  8
0
 10
16.626715
 20
174.232241
 42
0.006441
  0
VERTEX
  8
0
 10
14.865187
 20
168.000000
 42
-0.014150
  0
VERTEX
  8
0
 10
14.347592
 20
166.271058
 42
-0.052715
  0
VERTEX
  8
0
 10
13.880356
 20
165.237335
 42
-0.262248
  0
VERTEX
  8
0
 10
13.530647
 20
165.033368
 42
-0.353885
  0
VERTEX
  8
0
 10
13.254497
 20
165.250000
 42
0.045866
  0
VERTEX
  8
0
 10
13.034832
 20
165.919581
 42
0.057296
  0
VERTEX
  8
0
 10
12.708196
 20
166.485938
 42
0.068383
  0
VERTEX
  8
0
 10
12.330225
 20
166.872506
 42
0.166537
  0
VERTEX
  8
0
 10
11.958061
 20
167.000000
 42
-0.201422
  0
VERTEX
  8
0
 10
11.665524
 20
167.122830
 42
-0.142392
  0
VERTEX
  8
0
 10
11.494845
 20
167.440625
 42
-0.093137
  0
VERTEX
  8
0
 10
11.483089
 20
167.925413
 42
-0.051274
  0
VERTEX
  8
0
 10
11.638374
 20
168.500000
 42
-0.074185
  0
VERTEX
  8
0
 10
11.962529
 20
169.073431
 42
-0.064359
  0
VERTEX
  8
0
 10
12.454091
 20
169.559375
 42
-0.066860
  0
VERTEX
  8
0
 10
13.031441
 20
169.888097
 42
-0.096313
  0
VERTEX
  8
0
 10
13.606989
 20
170.000000
 42
0.202008
  0
VERTEX
  8
0
 10
14.414804
 20
170.340255
 42
0.127735
  0
VERTEX
  8
0
 10
14.929777
 20
171.240926
 42
0.046683
  0
VERTEX
  8
0
 10
15.249542
 20
173.081556
 42
0.006298
  0
VERTEX
  8
0
 10
15.508982
 20
177.000000
 42
-0.032346
  0
VERTEX
  8
0
 10
15.868705
 20
180.029491
 42
-0.046725
  0
VERTEX
  8
0
 10
16.603856
 20
182.622735
 42
-0.057190
  0
VERTEX
  8
0
 10
17.562670
 20
184.447135
 42
-0.248074
  0
VERTEX
  8
0
 10
18.608408
 20
185.000000
 42
0.260333
  0
VERTEX
  8
0
 10
19.633165
 20
185.572345
 42
0.160105
  0
VERTEX
  8
0
 10
19.963020
 20
186.952722
 42
0.129167
  0
VERTEX
  8
0
 10
19.421863
 20
188.483210
 42
0.181559
  0
VERTEX
  8
0
 10
18.250000
 20
189.310674
 42
-0.049066
  0
VERTEX
  8
0
 10
17.717606
 20
189.507227
 42
-0.602595
  0
VERTEX
  8
0
 10
17.711790
 20
189.676084
 42
-0.109045
  0
VERTEX
  8
0
 10
18.150445
 20
189.813383
 42
-0.010989
  0
VERTEX
  8
0
 10
19.250000
 20
189.883999
 42
0.038775
  0
VERTEX
  8
0
 10
20.568262
 20
190.042512
 42
0.115169
  0
VERTEX
  8
0
 10
21.391750
 20
190.416706
 42
0.148529
  0
VERTEX
  8
0
 10
21.844251
 20
191.050463
 42
0.081469
  0
VERTEX
  8
0
 10
22.000000
 20
192.000000
 42
-0.048028
  0
VERTEX
  8
0
 10
22.073693
 20
192.765418
 42
-0.068025
  0
VERTEX
  8
0
 10
22.293750
 20
193.412500
 42
-0.088204
  0
VERTEX
  8
0
 10
22.618118
 20
193.848523
 42
-0.191087
  0
VERTEX
  8
0
 10
23.000000
 20
194.000000
 42
-0.090620
  0
VERTEX
  8
0
 10
23.381772
 20
193.930235
 42
-0.095562
  0
VERTEX
  8
0
 10
23.706250
 20
193.730385
 42
-0.099653
  0
VERTEX
  8
0
 10
23.923363
 20
193.432335
 42
-0.108147
  0
SEQEND
  0
POLYLINE
  8
0
 66
1
 70
1
  0
VERTEX
  8
0
 10
49.000000
 20
193.000000
 42
-0.099038
  0
VERTEX
  8
0
 10
48.923658
 20
192.618362
 42
-0.097945
  0
VERTEX
  8
0
 10
48.706250
 20
192.293750
 42
-0.097945
  0
VERTEX
  8
0
 10
48.381638
 20
192.076342
 42
-0.099038
  0
VERTEX
  8
0
 10
48.000000
 20
192.000000
 42
-0.099038
  0
VERTEX
  8
0
 10
47.618362
 20
192.076342
 42
-0.097945
  0
VERTEX
  8
0
 10
47.293750
 20
192.293750
 42
-0.097945
  0
VERTEX
  8
0
 10
47.076342
 20
192.618362
 42
-0.099038
  0
VERTEX
  8
0
 10
47.000000
 20
193.000000
 42
-0.099038
  0
VERTEX
  8
0
 10
47.076342
 20
193.381638
 42
-0.097945
  0
VERTEX
  8
0
 10
47.293750
 20
193.706250
 42
-0.097945
  0
VERTEX
  8
0
 10
47.618362
 20
193.923658
 42
-0.099038
  0
VERTEX
  8
0
 10
48.000000
 20
194.000000
 42
-0.099038
  0
VERTEX
  8
0
 10
48.381638
 20
193.923658
 42
-0.097945
  0
VERTEX
  8
0
 10
48.706250
 20
193.706250
 42
-0.097945
  0
VERTEX
  8
0
 10
48.923658
 20
193.381638
 42
-0.099038
  0
SEQEND
  0
POLYLINE
  8
0
 66
1
 70
1
  0
VERTEX
  8
0
 10
129.171259
 20
191.345012
 42
-0.057441
  0
VERTEX
  8
0
 10
130.447937
 20
189.890790
 42
-0.136328
  0
VERTEX
  8
0
 10
130.916927
 20
188.542437
 42
-0.155107
  0
VERTEX
  8
0
 10
130.597827
 20
187.260783
 42
-0.081755
  0
VERTEX
  8
0
 10
129.511833
 20
186.009821
 42
-0.034203
  0
VERTEX
  8
0
 10
128.710897
 20
185.432755
 42
-0.185400
  0
VERTEX
  8
0
 10
128.194323
 20
185.333767
 42
-0.213606
  0
VERTEX
  8
0
 10
127.789133
 20
185.609902
 42
-0.046359
  0
VERTEX
  8
0
 10
127.404844
 20
186.387376
 42
0.159138
  0
VERTEX
  8
0
 10
126.394179
 20
187.631982
 42
0.178858
  0
VERTEX
  8
0
 10
124.895082
 20
187.965884
 42
0.169522
  0
VERTEX
  8
0
 10
123.479102
 20
187.245427
 42
0.144493
  0
VERTEX
  8
0
 10
122.705733
 20
185.750000
 42
-0.003196
  0
VERTEX
  8
0
 10
122.437444
 20
184.403473
 42
-0.562065
  0
VERTEX
  8
0
 10
122.324055
 20
184.362901
 42
-0.211194
  0
VERTEX
  8
0
 10
122.225668
 20
184.554673
 42
-0.001891
  0
VERTEX
  8
0
 10
122.136182
 20
186.211045
 42
-0.063545
  0
VERTEX
  8
0
 10
122.231908
 20
187.456195
 42
-0.051096
  0
VERTEX
  8
0
 10
122.636528
 20
188.738068
 42
-0.049859
  0
VERTEX
  8
0
 10
123.306618
 20
189.943124
 42
-0.053463
  0
VERTEX
  8
0
 10
124.188561
 20
190.961045
 42
-0.014325
  0
VERTEX
  8
0
 10
125.944302
 20
192.505230
 42
-0.155183
  0
VERTEX
  8
0
 10
126.808424
 20
192.855209
 42
-0.183483
  0
VERTEX
  8
0
 10
127.647437
 20
192.608469
 42
-0.021657
  0
SEQEND
  0
POLYLINE
  8
0
 66
1
 70
1
  0
VERTEX
  8
0
 10
68.000000
 20
177.000000
 42
-0.042167
  0
VERTEX
  8
0
 10
67.967655
 20
176.617151
 42
-0.061769
  0
VERTEX
  8
0
 10
67.870461
 20
176.293750
 42
-0.081139
  0
VERTEX
  8
0
 10
67.727648
 20
176.074460
 42
-0.210953
  0
VERTEX
  8
0
 10
67.559017
 20
176.000000
 42
-0.151918
  0
VERTEX
  8
0
 10
67.348290
 20
176.065539
 42
-0.038439
  0
VERTEX
  8
0
 10
67.066025
 20
176.293750
 42
-0.035638
  0
VERTEX
  8
0
 10
66.768994
 20
176.617226
 42
-0.029505
  0
VERTEX
  8
0
 10
66.500000
 20
177.000000
 42
-0.082592
  0
VERTEX
  8
0
 10
66.343488
 20
177.382100
 42
-0.161196
  0
VERTEX
  8
0
 10
66.374600
 20
177.706250
 42
-0.182303
  0
VERTEX
  8
0
 10
66.586039
 20
177.921712
 42
-0.108972
  0
VERTEX
  8
0
 10
66.940983
 20
178.000000
 42
-0.093332
  0
VERTEX
  8
0
 10
67.345238
 20
177.923877
 42
-0.096420
  0
VERTEX
  8
0
 10
67.688914
 20
177.706250
 42
-0.099167
  0
VERTEX
  8
0
 10
67.918938
 20
177.381556
 42
-0.105053
  0
SEQEND
  0
POLYLINE
  8
0
 66
1
 70
1
  0
VERTEX
  8
0
 10
130.558870
 20
169.444834
 42
-0.000858
  0
VERTEX
  8
0
 10
131.929096
 20
168.343189
 42
-0.251175
  0
VERTEX
  8
0
 10
131.983710
 20
168.213921
 42
-0.515711
  0
VERTEX
  8
0
 10
131.904417
 20
168.167876
 42
-0.001244
  0
VERTEX
  8
0
 10
130.500000
 20
168.809706
 42
0.004617
  0
VERTEX
  8
0
 10
129.624619
 20
169.202646
 42
0.003388
  0
VERTEX
  8
0
 10
128.646875
 20
169.622861
 42
0.003423
  0
VERTEX
  8
0
 10
127.715877
 20
170.008049
 42
0.007594
  0
VERTEX
  8
0
 10
127.000000
 20
170.285925
 42
-0.005492
  0
VERTEX
  8
0
 10
126.121755
 20
170.622585
 42
-0.333106
  0
VERTEX
  8
0
 10
126.038557
 20
170.758082
 42
-0.366178
  0
VERTEX
  8
0
 10
126.146399
 20
170.863988
 42
-0.005928
  0
VERTEX
  8
0
 10
127.058870
 20
170.921053
 42
-0.078825
  0
VERTEX
  8
0
 10
127.793843
 20
170.842314
 42
-0.033785
  0
VERTEX
  8
0
 10
128.730029
 20
170.519979
 42
-0.032368
  0
VERTEX
  8
0
 10
129.701106
 20
170.034194
 42
-0.036738
  0
SEQEND
  0
POLYLINE
  8
0
 66
1
 70
1
  0
VERTEX
  8
0
 10
129.000000
 20
164.015200
 42
-0.059282
  0
VERTEX
  8
0
 10
129.715359
 20
163.430801
 42
-0.172544
  0
VERTEX
  8
0
 10
129.975000
 20
162.858133
 42
-0.131449
  0
VERTEX
  8
0
 10
129.847200
 20
162.145521
 42
-0.028998
  0
VERTEX
  8
0
 10
129.250000
 20
161.044081
 42
0.048994
  0
VERTEX
  8
0
 10
128.260802
 20
159.031881
 42
0.123807
  0
VERTEX
  8
0
 10
128.078782
 20
157.422715
 42
0.204874
  0
VERTEX
  8
0
 10
128.686593
 20
156.403845
 42
0.158497
  0
VERTEX
  8
0
 10
129.928571
 20
156.000000
 42
0.119144
  0
VERTEX
  8
0
 10
131.899812
 20
156.476485
 42
0.105102
  0
VERTEX
  8
0
 10
133.542035
 20
157.814766
 42
0.093732
  0
VERTEX
  8
0
 10
134.631608
 20
159.854209
 42
0.074873
  0
VERTEX
  8
0
 10
135.015313
 20
162.321429
 42
-0.010863
  0
VERTEX
  8
0
 10
135.057180
 20
163.898421
 42
-0.121152
  0
VERTEX
  8
0
 10
135.235261
 20
164.496499
 42
-0.473380
  0
VERTEX
  8
0
 10
135.534529
 20
164.543574
 42
-0.067309
  0
VERTEX
  8
0
 10
136.000000
 20
164.000000
 42
-0.080057
  0
VERTEX
  8
0
 10
136.795095
 20
162.190288
 42
-0.115922
  0
VERTEX
  8
0
 10
136.835743
 20
160.451595
 42
-0.098651
  0
VERTEX
  8
0
 10
136.076670
 20
158.676563
 42
-0.046190
  0
VERTEX
  8
0
 10
134.473280
 20
156.746008
 42
-0.043569
  0
VERTEX
  8
0
 10
131.924867
 20
154.606838
 42
-0.120267
  0
VERTEX
  8
0
 10
129.756369
 20
153.761143
 42
-0.145407
  0
VERTEX
  8
0
 10
127.701068
 20
154.085085
 42
-0.075717
  0
VERTEX
  8
0
 10
125.535101
 20
155.555050
 42
-0.128369
  0
VERTEX
  8
0
 10
123.300395
 20
159.056552
 42
-0.177174
  0
VERTEX
  8
0
 10
123.440855
 20
162.750393
 42
-0.252949
  0
VERTEX
  8
0
 10
125.739772
 20
164.634573
 42
-0.191704
  0
SEQEND
  0
POLYLINE
  8
0
 66
1
 70
1
  0
VERTEX
  8
0
 10
12.692991
 20
159.269032
 42
-0.087174
  0
VERTEX
  8
0
 10
12.516660
 20
158.883358
 42
-0.597527
  0
VERTEX
  8
0
 10
12.356533
 20
158.900903
 42
-0.080377
  0
VERTEX
  8
0
 10
12.235556
 20
159.431793
 42
-0.012823
  0
VERTEX
  8
0
 10
12.194949
 20
160.500000
 42
-0.014395
  0
VERTEX
  8
0
 10
12.212705
 20
161.580113
 42
-0.052471
  0
VERTEX
  8
0
 10
12.315079
 20
162.257153
 42
-0.333666
  0
VERTEX
  8
0
 10
12.477130
 20
162.386009
 42
-0.313180
  0
VERTEX
  8
0
 10
12.655937
 20
162.269032
 42
-0.062780
  0
VERTEX
  8
0
 10
12.814405
 20
161.671085
 42
-0.030339
  0
VERTEX
  8
0
 10
12.872264
 20
160.880008
 42
-0.029507
  0
VERTEX
  8
0
 10
12.832894
 20
160.036634
 42
-0.037336
  0
SEQEND
  0
POLYLINE
  8
0
 66
1
 70
1
  0
VERTEX
  8
0
 10
11.149182
 20
148.000000
 42
-0.003853
  0
VERTEX
  8
0
 10
10.686545
 20
145.346678
 42
-0.062534
  0
VERTEX
  8
0
 10
10.414904
 20
144.484551
 42
-0.752142
  0
VERTEX
  8
0
 10
10.220952
 20
144.513683
 42
-0.024009
  0
VERTEX
  8
0
 10
10.116903
 20
145.750000
 42
0.034449
  0
VERTEX
  8
0
 10
9.982475
 20
147.027703
 42
0.055297
  0
VERTEX
  8
0
 10
9.675553
 20
148.078514
 42
0.073484
  0
VERTEX
  8
0
 10
9.248728
 20
148.788373
 42
0.217667
  0
VERTEX
  8
0
 10
8.750000
 20
149.031803
 42
-0.152503
  0
VERTEX
  8
0
 10
8.392029
 20
149.153663
 42
-0.334795
  0
VERTEX
  8
0
 10
8.312946
 20
149.414972
 42
-0.116637
  0
VERTEX
  8
0
 10
8.590702
 20
149.834807
 42
-0.026204
  0
VERTEX
  8
0
 10
9.250000
 20
150.392046
 42
0.081610
  0
VERTEX
  8
0
 10
9.930585
 20
151.110076
 42
0.043850
  0
VERTEX
  8
0
 10
10.525941
 20
152.179122
 42
0.042163
  0
VERTEX
  8
0
 10
10.954839
 20
153.406384
 42
0.051255
  0
VERTEX
  8
0
 10
11.136182
 20
154.610243
 42
-0.006736
  0
VERTEX
  8
0
 10
11.213194
 20
155.880290
 42
-0.116797
  0
VERTEX
  8
0
 10
11.337574
 20
156.273206
 42
-0.654408
  0
VERTEX
  8
0
 10
11.483774
 20
156.254500
 42
-0.022275
  0
VERTEX
  8
0
 10
11.668461
 20
155.500000
 42
-0.054213
  0
VERTEX
  8
0
 10
11.765780
 20
154.386785
 42
-0.012002
  0
VERTEX
  8
0
 10
11.679313
 20
152.471875
 42
-0.012340
  0
VERTEX
  8
0
 10
11.470497
 20
150.252339
 42
-0.011610
  0
SEQEND
  0
POLYLINE
  8
0
 66
1
 70
1
  0
VERTEX
  8
0
 10
104.000000
 20
143.500000
 42
-0.060850
  0
VERTEX
  8
0
 10
103.929934
 20
142.926402
 42
-0.079459
  0
VERTEX
  8
0
 10
103.723586
 20
142.440625
 42
-0.097386
  0
VERTEX
  8
0
 10
103.417907
 20
142.115400
 42
-0.156819
  0
VERTEX
  8
0
 10
103.059017
 20
142.000000
 42
-0.139398
  0
VERTEX
  8
0
 10
102.230079
 20
142.235684
 42
-0.123736
  0
VERTEX
  8
0
 10
101.603969
 20
142.880661
 42
-0.139481
  0
VERTEX
  8
0
 10
101.401415
 20
143.683432
 42
-0.191124
  0
VERTEX
  8
0
 10
101.693853
 20
144.360520
 42
-0.094876
  0
VERTEX
  8
0
 10
102.508765
 20
144.913511
 42
-0.193400
  0
VERTEX
  8
0
 10
103.269246
 20
144.932483
 42
-0.202875
  0
VERTEX
  8
0
 10
103.806289
 20
144.424643
 42
-0.103624
  0
SEQEND
  0
POLYLINE
  8
0
 66
1
 70
1
  0
VERTEX
  8
0
 10
113.457295
 20
142.069098
 42
-0.108373
  0
VERTEX
  8
0
 10
113.598899
 20
141.665803
 42
-0.099685
  0
VERTEX
  8
0
 10
113.565079
 20
141.227140
 42
-0.095498
  0
VERTEX
  8
0
 10
113.360589
 20
140.820631
 42
-0.090427
  0
VERTEX
  8
0
 10
113.016312
 20
140.510081
 42
-0.136093
  0
VERTEX
  8
0
 10
112.630360
 20
140.397824
 42
-0.190788
  0
VERTEX
  8
0
 10
112.298542
 20
140.524436
 42
-0.140899
  0
VERTEX
  8
0
 10
112.074611
 20
140.890269
 42
-0.067432
  0
VERTEX
  8
0
 10
112.000000
 20
141.440983
 42
-0.039415
  0
VERTEX
  8
0
 10
112.085158
 20
142.519563
 42
-0.257010
  0
VERTEX
  8
0
 10
112.407182
 20
142.933879
 42
-0.315493
  0
VERTEX
  8
0
 10
112.866860
 20
142.838655
 42
-0.050477
  0
SEQEND
  0
POLYLINE
  8
0
 66
1
 70
1
  0
VERTEX
  8
0
 10
48.250000
 20
137.337719
 42
-0.057986
  0
VERTEX
  8
0
 10
47.679992
 20
137.181385
 42
-0.037979
  0
VERTEX
  8
0
 10
47.000000
 20
137.129660
 42
-0.037979
  0
VERTEX
  8
0
 10
46.320008
 20
137.181385
 42
-0.057986
  0
VERTEX
  8
0
 10
45.750000
 20
137.337719
 42
-0.174857
  0
VERTEX
  8
0
 10
45.540618
 20
137.525001
 42
-0.447206
  0
VERTEX
  8
0
 10
45.601562
 20
137.693942
 42
-0.078554
  0
VERTEX
  8
0
 10
46.108560
 20
137.810911
 42
-0.017491
  0
VERTEX
  8
0
 10
47.000000
 20
137.842105
 42
-0.017491
  0
VERTEX
  8
0
 10
47.891440
 20
137.810911
 42
-0.078554
  0
VERTEX
  8
0
 10
48.398438
 20
137.693942
 42
-0.447206
  0
VERTEX
  8
0
 10
48.459382
 20
137.525001
 42
-0.174857
  0
SEQEND
  0
POLYLINE
  8
0
 66
1
 70
1
  0
VERTEX
  8
0
 10
11.171390
 20
124.000000
 42
-0.022410
  0
VERTEX
  8
0
 10
11.306999
 20
121.304461
 42
-0.177217
  0
VERTEX
  8
0
 10
10.890695
 20
120.147272
 42
-0.531140
  0
VERTEX
  8
0
 10
10.255676
 20
120.212161
 42
-0.046317
  0
VERTEX
  8
0
 10
9.500000
 20
122.000000
 42
-0.080724
  0
VERTEX
  8
0
 10
9.268103
 20
123.574489
 42
-0.036058
  0
VERTEX
  8
0
 10
9.450539
 20
125.667328
 42
-0.030781
  0
VERTEX
  8
0
 10
9.874570
 20
127.558396
 42
-0.333798
  0
VERTEX
  8
0
 10
10.462352
 20
128.000000
 42
-0.356803
  0
VERTEX
  8
0
 10
10.604726
 20
127.883580
 42
-0.006118
  0
VERTEX
  8
0
 10
10.805758
 20
126.825000
 42
-0.012483
  0
VERTEX
  8
0
 10
11.001557
 20
125.533597
 42
-0.007607
  0
SEQEND
  0
POLYLINE
  8
0
 66
1
 70
1
  0
VERTEX
  8
0
 10
103.500000
 20
127.000000
 42
-0.082592
  0
VERTEX
  8
0
 10
103.656512
 20
126.617900
 42
-0.161196
  0
VERTEX
  8
0
 10
103.625400
 20
126.293750
 42
-0.182303
  0
VERTEX
  8
0
 10
103.413961
 20
126.078288
 42
-0.108972
  0
VERTEX
  8
0
 10
103.059017
 20
126.000000
 42
-0.093332
  0
VERTEX
  8
0
 10
102.654762
 20
126.076123
 42
-0.096420
  0
VERTEX
  8
0
 10
102.311086
 20
126.293750
 42
-0.099167
  0
VERTEX
  8
0
 10
102.081062
 20
126.618444
 42
-0.105053
  0
VERTEX
  8
0
 10
102.000000
 20
127.000000
 42
-0.042167
  0
VERTEX
  8
0
 10
102.032345
 20
127.382849
 42
-0.061769
  0
VERTEX
  8
0
 10
102.129539
 20
127.706250
 42
-0.081139
  0
VERTEX
  8
0
 10
102.272352
 20
127.925540
 42
-0.210953
  0
VERTEX
  8
0
 10
102.440983
 20
128.000000
 42
-0.151918
  0
VERTEX
  8
0
 10
102.651710
 20
127.934461
 42
-0.038439
  0
VERTEX
  8
0
 10
102.933975
 20
127.706250
 42
-0.035638
  0
VERTEX
  8
0
 10
103.231006
 20
127.382774
 42
-0.029505
  0
SEQEND
  0
POLYLINE
  8
0
 66
1
 70
1
  0
VERTEX
  8
0
 10
12.000000
 20
115.000000
 42
-0.092995
  0
VERTEX
  8
0
 10
11.928382
 20
114.618268
 42
-0.096318
  0
VERTEX
  8
0
 10
11.723586
 20
114.293750
 42
-0.099231
  0
VERTEX
  8
0
 10
11.418051
 20
114.076556
 42
-0.105429
  0
VERTEX
  8
0
 10
11.059017
 20
114.000000
 42
-0.089642
  0
VERTEX
  8
0
 10
10.653442
 20
114.073302
 42
-0.053229
  0
VERTEX
  8
0
 10
10.212900
 20
114.293750
 42
-0.051032
  0
VERTEX
  8
0
 10
9.806203
 20
114.617485
 42
-0.060810
  0
VERTEX
  8
0
 10
9.500000
 20
115.000000
 42
-0.139169
  0
VERTEX
  8
0
 10
9.392057
 20
115.379648
 42
-0.191142
  0
VERTEX
  8
0
 10
9.521475
 20
115.706250
 42
-0.138808
  0
VERTEX
  8
0
 10
9.889346
 20
115.926733
 42
-0.066118
  0
VERTEX
  8
0
 10
10.440983
 20
116.000000
 42
-0.062283
  0
VERTEX
  8
0
 10
11.037096
 20
115.925455
 42
-0.080552
  0
VERTEX
  8
0
 10
11.542039
 20
115.706250
 42
-0.097988
  0
VERTEX
  8
0
 10
11.879982
 20
115.381379
 42
-0.153634
  0
SEQEND
  0
POLYLINE
  8
0
 66
1
 70
1
  0
VERTEX
  8
0
 10
12.580803
 20
108.247470
 42
-0.198794
  0
VERTEX
  8
0
 10
11.946392
 20
107.984519
 42
-0.333818
  0
VERTEX
  8
0
 10
11.507280
 20
108.314139
 42
-0.105932
  0
VERTEX
  8
0
 10
11.428282
 20
109.418233
 42
-0.033547
  0
VERTEX
  8
0
 10
11.769157
 20
111.043670
 42
0.000000
  0
VERTEX
  8
0
 10
12.458987
 20
113.500000
 42
0.000000
  0
VERTEX
  8
0
 10
12.810296
 20
111.164136
 42
-0.025797
  0
VERTEX
  8
0
 10
12.902115
 20
110.227293
 42
-0.031169
  0
VERTEX
  8
0
 10
12.887798
 20
109.343822
 42
-0.032576
  0
VERTEX
  8
0
 10
12.783166
 20
108.620469
 42
-0.145161
  0
SEQEND
  0
POLYLINE
  8
0
 66
1
 70
1
  0
VERTEX
  8
0
 10
16.000000
 20
100.031385
 42
-0.179198
  0
VERTEX
  8
0
 10
15.593015
 20
98.932276
 42
-0.260980
  0
VERTEX
  8
0
 10
14.644736
 20
98.585094
 42
-0.165709
  0
VERTEX
  8
0
 10
13.466138
 20
99.210789
 42
-0.097282
  0
VERTEX
  8
0
 10
12.608704
 20
100.577319
 42
-0.100237
  0
VERTEX
  8
0
 10
12.505989
 20
101.188132
 42
-0.190297
  0
VERTEX
  8
0
 10
12.701429
 20
101.638659
 42
-0.145076
  0
VERTEX
  8
0
 10
13.207988
 20
101.913592
 42
-0.052327
  0
VERTEX
  8
0
 10
14.031385
 20
102.000000
 42
-0.074582
  0
VERTEX
  8
0
 10
14.880613
 20
101.872617
 42
-0.122513
  0
VERTEX
  8
0
 10
15.500000
 20
101.500000
 42
-0.122513
  0
VERTEX
  8
0
 10
15.872617
 20
100.880613
 42
-0.074582
  0
SEQEND
  0
POLYLINE
  8
0
 66
1
 70
1
  0
VERTEX
  8
0
 10
19.104920
 20
91.250000
 42
-0.030758
  0
VERTEX
  8
0
 10
19.382097
 20
90.328403
 42
-0.073012
  0
VERTEX
  8
0
 10
19.442662
 20
89.616657
 42
-0.133351
  0
VERTEX
  8
0
 10
19.292763
 20
89.173270
 42
-0.249928
  0
VERTEX
  8
0
 10
18.967776
 20
89.000000
 42
-0.094893
  0
VERTEX
  8
0
 10
18.598374
 20
89.070744
 42
-0.096874
  0
VERTEX
  8
0
 10
18.284284
 20
89.272768
 42
-0.098858
  0
VERTEX
  8
0
 10
18.074025
 20
89.574249
 42
-0.103345
  0
VERTEX
  8
0
 10
18.000000
 20
89.928571
 42
0.114427
  0
VERTEX
  8
0
 10
17.891673
 20
90.395719
 42
0.029101
  0
VERTEX
  8
0
 10
17.506712
 20
91.077663
 42
0.028122
  0
VERTEX
  8
0
 10
16.963478
 20
91.825347
 42
0.025216
  0
VERTEX
  8
0
 10
16.320721
 20
92.536422
 42
-0.005182
  0
VERTEX
  8
0
 10
15.263767
 20
93.615517
 42
-0.220493
  0
VERTEX
  8
0
 10
15.161860
 20
93.912426
 42
-0.427975
  0
VERTEX
  8
0
 10
15.342272
 20
94.052042
 42
-0.011087
  0
VERTEX
  8
0
 10
16.457865
 20
93.857850
 42
-0.092769
  0
VERTEX
  8
0
 10
17.214188
 20
93.556182
 42
-0.053402
  0
VERTEX
  8
0
 10
17.984712
 20
92.944181
 42
-0.050854
  0
VERTEX
  8
0
 10
18.652431
 20
92.137191
 42
-0.059061
  0
SEQEND
  0
POLYLINE
  8
0
 66
1
 70
1
  0
VERTEX
  8
0
 10
46.961552
 20
81.000000
 42
-0.052542
  0
VERTEX
  8
0
 10
47.242477
 20
80.678026
 42
-0.008412
  0
VERTEX
  8
0
 10
47.711508
 20
79.985937
 42
-0.009227
  0
VERTEX
  8
0
 10
48.237175
 20
79.148091
 42
-0.007975
  0
VERTEX
  8
0
 10
48.758474
 20
78.250000
 42
-0.017956
  0
VERTEX
  8
0
 10
49.451408
 20
76.899488
 42
-0.234146
  0
VERTEX
  8
0
 10
49.439440
 20
76.351793
 42
-0.256472
  0
VERTEX
  8
0
 10
49.000829
 20
76.060133
 42
-0.021178
  0
VERTEX
  8
0
 10
47.581798
 20
76.000000
 42
0.056690
  0
VERTEX
  8
0
 10
46.545254
 20
75.882098
 42
0.082858
  0
VERTEX
  8
0
 10
45.697980
 20
75.531982
 42
0.095878
  0
VERTEX
  8
0
 10
45.097020
 20
74.973962
 42
0.105619
  0
VERTEX
  8
0
 10
44.773022
 20
74.250000
 42
-0.106050
  0
VERTEX
  8
0
 10
44.491952
 20
73.623389
 42
-0.410560
  0
VERTEX
  8
0
 10
44.112119
 20
73.562607
 42
-0.104252
  0
VERTEX
  8
0
 10
43.570428
 20
74.152806
 42
-0.011692
  0
VERTEX
  8
0
 10
42.674017
 20
75.750000
 42
-0.009304
  0
VERTEX
  8
0
 10
41.729564
 20
77.611862
 42
-0.097675
  0
VERTEX
  8
0
 10
41.514096
 20
78.434728
 42
-0.310791
  0
VERTEX
  8
0
 10
41.760982
 20
78.845399
 42
-0.107121
  0
VERTEX
  8
0
 10
42.474320
 20
79.000000
 42
0.308692
  0
VERTEX
  8
0
 10
43.514297
 20
79.709693
 42
0.073243
  0
VERTEX
  8
0
 10
44.012103
 20
81.865627
 42
0.067791
  0
VERTEX
  8
0
 10
43.883305
 20
84.218900
 42
0.209792
  0
VERTEX
  8
0
 10
43.000000
 20
85.500000
 42
-0.075933
  0
VERTEX
  8
0
 10
42.618657
 20
85.824572
 42
-0.054116
  0
VERTEX
  8
0
 10
42.298699
 20
86.286338
 42
-0.053974
  0
VERTEX
  8
0
 10
42.084435
 20
86.807626
 42
-0.074205
  0
VERTEX
  8
0
 10
42.016847
 20
87.309017
 42
-0.538680
  0
VERTEX
  8
0
 10
42.221818
 20
87.439944
 42
-0.097094
  0
VERTEX
  8
0
 10
42.673439
 20
87.122024
 42
-0.036325
  0
VERTEX
  8
0
 10
43.382955
 20
86.264493
 42
-0.014633
  0
VERTEX
  8
0
 10
44.228399
 20
85.000000
 42
0.004256
  0
VERTEX
  8
0
 10
45.108255
 20
83.623035
 42
0.005580
  0
VERTEX
  8
0
 10
45.936579
 20
82.381250
 42
0.004163
  0
VERTEX
  8
0
 10
46.649396
 20
81.356455
 42
0.051629
  0
SEQEND
  0
POLYLINE
  8
0
 66
1
 70
1
  0
VERTEX
  8
0
 10
93.578723
 20
66.226190
 42
-0.001428
  0
VERTEX
  8
0
 10
92.349181
 20
65.055240
 42
-0.406252
  0
VERTEX
  8
0
 10
92.219485
 20
65.057007
 42
-0.342804
  0
VERTEX
  8
0
 10
92.201648
 20
65.199081
 42
-0.001303
  0
VERTEX
  8
0
 10
93.100391
 20
66.704522
 42
-0.024195
  0
VERTEX
  8
0
 10
93.642413
 20
67.515455
 42
-0.042367
  0
VERTEX
  8
0
 10
94.175905
 20
68.120955
 42
-0.056956
  0
VERTEX
  8
0
 10
94.628468
 20
68.465039
 42
-0.342991
  0
VERTEX
  8
0
 10
94.902621
 20
68.430712
 42
-0.289503
  0
VERTEX
  8
0
 10
94.969679
 20
68.133352
 42
-0.049795
  0
VERTEX
  8
0
 10
94.711038
 20
67.585822
 42
-0.040938
  0
VERTEX
  8
0
 10
94.234722
 20
66.922345
 42
-0.025624
  0
SEQEND
  0
POLYLINE
  8
0
 66
1
 70
1
  0
VERTEX
  8
0
 10
81.500000
 20
47.000000
 42
-0.009027
  0
VERTEX
  8
0
 10
82.656439
 20
46.478132
 42
-0.485414
  0
VERTEX
  8
0
 10
82.703411
 20
46.272912
 42
-0.215481
  0
VERTEX
  8
0
 10
82.415213
 20
46.127419
 42
-0.004372
  0
VERTEX
  8
0
 10
80.750000
 20
46.070285
 42
-0.034583
  0
VERTEX
  8
0
 10
79.696629
 20
46.116227
 42
-0.053373
  0
VERTEX
  8
0
 10
78.807812
 20
46.314396
 42
-0.070412
  0
VERTEX
  8
0
 10
78.197844
 20
46.621640
 42
-0.245670
  0
VERTEX
  8
0
 10
78.000000
 20
47.000000
 42
-0.163981
  0
VERTEX
  8
0
 10
78.210590
 20
47.624848
 42
-0.234317
  0
VERTEX
  8
0
 10
78.725732
 20
47.880286
 42
-0.087053
  0
VERTEX
  8
0
 10
79.711280
 20
47.707387
 42
-0.014632
  0
SEQEND
  0
POLYLINE
  8
0
 66
1
 70
1
  0
VERTEX
  8
0
 10
86.000000
 20
44.000000
 42
0.233768
  0
VERTEX
  8
0
 10
86.194624
 20
43.606472
 42
0.065198
  0
VERTEX
  8
0
 10
86.807812
 20
43.253747
 42
0.051217
  0
VERTEX
  8
0
 10
87.696799
 20
42.988991
 42
0.034421
  0
VERTEX
  8
0
 10
88.750000
 20
42.863818
 42
-0.002060
  0
VERTEX
  8
0
 10
90.399204
 20
42.775336
 42
-0.200315
  0
VERTEX
  8
0
 10
90.606231
 20
42.674534
 42
-0.575270
  0
VERTEX
  8
0
 10
90.567361
 20
42.557941
 42
-0.003652
  0
VERTEX
  8
0
 10
89.251650
 20
42.294483
 42
0.078757
  0
VERTEX
  8
0
 10
88.307841
 20
41.952625
 42
0.068411
  0
VERTEX
  8
0
 10
87.464056
 20
41.322669
 42
0.067024
  0
VERTEX
  8
0
 10
86.806969
 20
40.474322
 42
0.069932
  0
VERTEX
  8
0
 10
86.409196
 20
39.494229
 42
-0.033172
  0
VERTEX
  8
0
 10
85.992192
 20
38.202323
 42
-0.200615
  0
VERTEX
  8
0
 10
85.510134
 20
37.709660
 42
-0.182242
  0
VERTEX
  8
0
 10
84.790653
 20
37.681027
 42
-0.026700
  0
VERTEX
  8
0
 10
83.407545
 20
38.224079
 42
-0.082688
  0
VERTEX
  8
0
 10
81.948620
 20
39.206257
 42
-0.114612
  0
VERTEX
  8
0
 10
81.081026
 20
40.516034
 42
-0.226835
  0
VERTEX
  8
0
 10
81.171667
 20
41.528272
 42
-0.264782
  0
VERTEX
  8
0
 10
82.000000
 20
42.000000
 42
0.148195
  0
VERTEX
  8
0
 10
82.381354
 20
42.115568
 42
0.098894
  0
VERTEX
  8
0
 10
82.706250
 20
42.440625
 42
0.082425
  0
VERTEX
  8
0
 10
82.925306
 20
42.926543
 42
0.064853
  0
VERTEX
  8
0
 10
83.000000
 20
43.500000
 42
-0.099038
  0
VERTEX
  8
0
 10
83.114514
 20
44.072457
 42
-0.097945
  0
VERTEX
  8
0
 10
83.440625
 20
44.559375
 42
-0.097945
  0
VERTEX
  8
0
 10
83.927543
 20
44.885486
 42
-0.099038
  0
VERTEX
  8
0
 10
84.500000
 20
45.000000
 42
-0.064853
  0
VERTEX
  8
0
 10
85.073457
 20
44.925306
 42
-0.082425
  0
VERTEX
  8
0
 10
85.559375
 20
44.706250
 42
-0.098894
  0
VERTEX
  8
0
 10
85.884432
 20
44.381354
 42
-0.148195
  0
SEQEND
  0
POLYLINE
  8
0
 66
1
 70
1
  0
VERTEX
  8
0
 10
85.751504
 20
31.418170
 42
-0.325077
  0
VERTEX
  8
0
 10
85.025557
 20
31.303403
 42
-0.004205
  0
VERTEX
  8
0
 10
80.697123
 20
33.558034
 42
-0.004511
  0
VERTEX
  8
0
 10
76.426305
 20
35.878181
 42
-0.272490
  0
VERTEX
  8
0
 10
76.000000
 20
36.602340
 42
-0.529670
  0
VERTEX
  8
0
 10
76.145836
 20
36.701385
 42
-0.005462
  0
VERTEX
  8
0
 10
77.497959
 20
36.147909
 42
-0.011074
  0
VERTEX
  8
0
 10
79.143450
 20
35.409915
 42
-0.006319
  0
VERTEX
  8
0
 10
81.099434
 20
34.449613
 42
-0.009884
  0
VERTEX
  8
0
 10
83.023248
 20
33.426461
 42
-0.017243
  0
VERTEX
  8
0
 10
84.569496
 20
32.493194
 42
-0.012102
  0
VERTEX
  8
0
 10
85.729237
 20
31.696831
 42
-0.461731
  0
SEQEND
  0
POLYLINE
  8
0
 66
1
 70
1
  0
VERTEX
  8
0
 10
92.500000
 20
29.000000
 42
-0.076764
  0
VERTEX
  8
0
 10
92.661825
 20
28.617617
 42
-0.154201
  0
VERTEX
  8
0
 10
92.642737
 20
28.293750
 42
-0.186277
  0
VERTEX
  8
0
 10
92.449529
 20
28.079239
 42
-0.117858
  0
VERTEX
  8
0
 10
92.118034
 20
28.000000
 42
-0.085235
  0
VERTEX
  8
0
 10
91.689814
 20
28.073533
 42
-0.053414
  0
VERTEX
  8
0
 10
91.230237
 20
28.293750
 42
-0.051777
  0
VERTEX
  8
0
 10
90.810561
 20
28.617474
 42
-0.064269
  0
VERTEX
  8
0
 10
90.500000
 20
29.000000
 42
-0.076764
  0
VERTEX
  8
0
 10
90.338175
 20
29.382383
 42
-0.154201
  0
VERTEX
  8
0
 10
90.357263
 20
29.706250
 42
-0.186277
  0
VERTEX
  8
0
 10
90.550471
 20
29.920761
 42
-0.117858
  0
VERTEX
  8
0
 10
90.881966
 20
30.000000
 42
-0.085235
  0
VERTEX
  8
0
 10
91.310186
 20
29.926467
 42
-0.053414
  0
VERTEX
  8
0
 10
91.769763
 20
29.706250
 42
-0.051777
  0
VERTEX
  8
0
 10
92.189439
 20
29.382526
 42
-0.064269
  0
SEQEND
  0
POLYLINE
  8
0
 66
1
 70
1
  0
VERTEX
  8
0
 10
119.729167
 20
22.395833
 42
-0.126455
  0
VERTEX
  8
0
 10
119.402231
 20
22.202593
 42
-0.060344
  0
VERTEX
  8
0
 10
118.916927
 20
22.123424
 42
-0.054150
  0
VERTEX
  8
0
 10
118.359369
 20
22.160852
 42
-0.051402
  0
VERTEX
  8
0
 10
117.812500
 20
22.316886
 42
-0.054073
  0
VERTEX
  8
0
 10
117.395823
 20
22.538436
 42
-0.470617
  0
VERTEX
  8
0
 10
117.378580
 20
22.720685
 42
-0.168741
  0
VERTEX
  8
0
 10
117.670344
 20
22.862007
 42
-0.018894
  0
VERTEX
  8
0
 10
118.416667
 20
22.921053
 42
-0.028489
  0
VERTEX
  8
0
 10
119.112848
 20
22.910055
 42
-0.077125
  0
VERTEX
  8
0
 10
119.592839
 20
22.799335
 42
-0.208169
  0
VERTEX
  8
0
 10
119.775380
 20
22.614691
 42
-0.296942
  0
SEQEND
  0
POLYLINE
  8
0
 66
1
 70
1
  0
VERTEX
  8
0
 10
181.123246
 20
223.250000
 42
-0.127756
  0
VERTEX
  8
0
 10
180.380815
 20
219.546148
 42
-0.016780
  0
VERTEX
  8
0
 10
176.604825
 20
212.389851
 42
-0.014348
  0
VERTEX
  8
0
 10
172.363772
 20
205.437774
 42
-0.186766
  0
VERTEX
  8
0
 10
169.952395
 20
203.697802
 42
0.082839
  0
VERTEX
  8
0
 10
169.207303
 20
203.364101
 42
0.073927
  0
VERTEX
  8
0
 10
168.577152
 20
202.795654
 42
0.076146
  0
VERTEX
  8
0
 10
168.154674
 20
202.086436
 42
0.098306
  0
VERTEX
  8
0
 10
168.012379
 20
201.343620
 42
0.198915
  0
VERTEX
  8
0
 10
168.765085
 20
199.560409
 42
0.042373
  0
VERTEX
  8
0
 10
171.407554
 20
197.361748
 42
0.043977
  0
VERTEX
  8
0
 10
174.534822
 20
195.565426
 42
0.108799
  0
VERTEX
  8
0
 10
177.102553
 20
195.000000
 42
0.053760
  0
VERTEX
  8
0
 10
178.200369
 20
195.118379
 42
0.210154
  0
VERTEX
  8
0
 10
178.739339
 20
195.510618
 42
0.154330
  0
VERTEX
  8
0
 10
178.909479
 20
196.267346
 42
0.026237
  0
VERTEX
  8
0
 10
178.704248
 20
197.750000
 42
-0.160203
  0
VERTEX
  8
0
 10
179.186777
 20
201.508132
 42
-0.018263
  0
VERTEX
  8
0
 10
183.204715
 20
209.189693
 42
-0.015434
  0
VERTEX
  8
0
 10
187.760372
 20
216.631584
 42
-0.250989
  0
VERTEX
  8
0
 10
190.250000
 20
217.987787
 42
0.226962
  0
VERTEX
  8
0
 10
191.622950
 20
218.656664
 42
0.238746
  0
VERTEX
  8
0
 10
191.923697
 20
220.122411
 42
0.121092
  0
VERTEX
  8
0
 10
190.807679
 20
222.130037
 42
0.067316
  0
VERTEX
  8
0
 10
188.631966
 20
223.918441
 42
0.036506
  0
VERTEX
  8
0
 10
185.332797
 20
225.638522
 42
0.124742
  0
VERTEX
  8
0
 10
182.961592
 20
226.019761
 42
0.241558
  0
VERTEX
  8
0
 10
181.586337
 20
225.152127
 42
0.148642
  0
SEQEND
  0
POLYLINE
  8
0
 66
1
 70
1
  0
VERTEX
  8
0
 10
215.981789
 20
191.319551
 42
-0.248792
  0
VERTEX
  8
0
 10
214.732189
 20
189.019567
 42
-0.013404
  0
VERTEX
  8
0
 10
207.475084
 20
184.483712
 42
-0.016490
  0
VERTEX
  8
0
 10
200.038422
 20
180.432326
 42
-0.150152
  0
VERTEX
  8
0
 10
196.441718
 20
179.823159
 42
0.042800
  0
VERTEX
  8
0
 10
195.113897
 20
179.882623
 42
0.197912
  0
VERTEX
  8
0
 10
194.429863
 20
179.567610
 42
0.161861
  0
VERTEX
  8
0
 10
194.086394
 20
178.813754
 42
0.026650
  0
VERTEX
  8
0
 10
194.000000
 20
177.194010
 42
0.042312
  0
VERTEX
  8
0
 10
194.102901
 20
175.980203
 42
0.039494
  0
VERTEX
  8
0
 10
194.409021
 20
174.771736
 42
0.041973
  0
VERTEX
  8
0
 10
194.857882
 20
173.741640
 42
0.096104
  0
VERTEX
  8
0
 10
195.392413
 20
173.089289
 42
-0.057081
  0
VERTEX
  8
0
 10
196.012093
 20
172.442547
 42
-0.020908
  0
VERTEX
  8
0
 10
196.736796
 20
171.401636
 42
-0.020408
  0
VERTEX
  8
0
 10
197.440992
 20
170.187452
 42
-0.023018
  0
VERTEX
  8
0
 10
198.013733
 20
168.966844
 42
0.040671
  0
VERTEX
  8
0
 10
198.715003
 20
167.599857
 42
0.081998
  0
VERTEX
  8
0
 10
199.510421
 20
166.690975
 42
0.096625
  0
VERTEX
  8
0
 10
200.460971
 20
166.177114
 42
0.075880
  0
VERTEX
  8
0
 10
201.621320
 20
166.000000
 42
0.037811
  0
VERTEX
  8
0
 10
202.532235
 20
166.068983
 42
0.056690
  0
VERTEX
  8
0
 10
203.301263
 20
166.277213
 42
0.074456
  0
VERTEX
  8
0
 10
203.826339
 20
166.582277
 42
0.227780
  0
VERTEX
  8
0
 10
204.000000
 20
166.943702
 42
-0.265907
  0
VERTEX
  8
0
 10
204.618526
 20
168.024514
 42
-0.001997
  0
VERTEX
  8
0
 10
213.779944
 20
173.358294
 42
-0.003310
  0
VERTEX
  8
0
 10
222.703392
 20
178.427486
 42
-0.128194
  0
VERTEX
  8
0
 10
224.899694
 20
179.000000
 42
0.496428
  0
VERTEX
  8
0
 10
226.063696
 20
180.533636
 42
0.046195
  0
VERTEX
  8
0
 10
224.089278
 20
185.705733
 42
0.038228
  0
VERTEX
  8
0
 10
220.921929
 20
191.069472
 42
0.205385
  0
VERTEX
  8
0
 10
218.104465
 20
192.819551
 42
0.053275
  0
VERTEX
  8
0
 10
217.140730
 20
192.862218
 42
0.139131
  0
VERTEX
  8
0
 10
216.492687
 20
192.633934
 42
0.160211
  0
VERTEX
  8
0
 10
216.116144
 20
192.125969
 42
0.077697
  0
SEQEND
  0
POLYLINE
  8
0
 66
1
 70
1
  0
VERTEX
  8
0
 10
239.000000
 20
147.000000
 42
0.075780
  0
VERTEX
  8
0
 10
239.142566
 20
146.064742
 42
0.149477
  0
VERTEX
  8
0
 10
239.562500
 20
145.450000
 42
0.124434
  0
VERTEX
  8
0
 10
240.317234
 20
145.106468
 42
0.044917
  0
VERTEX
  8
0
 10
241.500000
 20
145.000000
 42
0.044917
  0
VERTEX
  8
0
 10
242.682766
 20
145.106468
 42
0.124434
  0
VERTEX
  8
0
 10
243.437500
 20
145.450000
 42
0.149477
  0
VERTEX
  8
0
 10
243.857434
 20
146.064742
 42
0.075780
  0
VERTEX
  8
0
 10
244.000000
 20
147.000000
 42
0.075780
  0
VERTEX
  8
0
 10
243.857434
 20
147.935258
 42
0.149477
  0
VERTEX
  8
0
 10
243.437500
 20
148.550000
 42
0.124434
  0
VERTEX
  8
0
 10
242.682766
 20
148.893532
 42
0.044917
  0
VERTEX
  8
0
 10
241.500000
 20
149.000000
 42
0.044917
  0
VERTEX
  8
0
 10
240.317234
 20
148.893532
 42
0.124434
  0
VERTEX
  8
0
 10
239.562500
 20
148.550000
 42
0.149477
  0
VERTEX
  8
0
 10
239.142566
 20
147.935258
 42
0.075780
  0
SEQEND
  0
POLYLINE
  8
0
 66
1
 70
1
  0
VERTEX
  8
0
 10
232.000000
 20
144.000000
 42
-0.200111
  0
VERTEX
  8
0
 10
231.543078
 20
142.904045
 42
-0.151374
  0
VERTEX
  8
0
 10
230.375000
 20
142.295455
 42
-0.041619
  0
VERTEX
  8
0
 10
227.800382
 20
142.045807
 42
-0.003368
  0
VERTEX
  8
0
 10
221.000000
 20
142.000000
 42
-0.007181
  0
VERTEX
  8
0
 10
216.476434
 20
142.064968
 42
-0.015486
  0
VERTEX
  8
0
 10
213.000000
 20
142.272727
 42
-0.010792
  0
VERTEX
  8
0
 10
210.377449
 20
142.568330
 42
-0.375539
  0
VERTEX
  8
0
 10
210.000000
 20
143.000000
 42
0.191087
  0
VERTEX
  8
0
 10
209.848523
 20
143.381882
 42
0.088204
  0
VERTEX
  8
0
 10
209.412500
 20
143.706250
 42
0.068025
  0
VERTEX
  8
0
 10
208.765418
 20
143.926307
 42
0.048028
  0
VERTEX
  8
0
 10
208.000000
 20
144.000000
 42
0.085742
  0
VERTEX
  8
0
 10
207.004503
 20
143.828024
 42
0.174458
  0
VERTEX
  8
0
 10
206.399106
 20
143.330836
 42
0.110387
  0
VERTEX
  8
0
 10
206.084806
 20
142.375701
 42
0.024510
  0
VERTEX
  8
0
 10
206.000000
 20
140.646691
 42
-0.012595
  0
VERTEX
  8
0
 10
205.957090
 20
138.943454
 42
-0.004287
  0
VERTEX
  8
0
 10
205.811278
 20
136.472826
 42
-0.004259
  0
VERTEX
  8
0
 10
205.603513
 20
133.745883
 42
-0.004895
  0
VERTEX
  8
0
 10
205.357544
 20
131.146691
 42
0.006612
  0
VERTEX
  8
0
 10
205.020506
 20
127.449902
 42
0.071652
  0
VERTEX
  8
0
 10
205.118135
 20
125.958412
 42
0.217996
  0
VERTEX
  8
0
 10
205.632880
 20
125.263726
 42
0.126626
  0
VERTEX
  8
0
 10
206.657544
 20
125.000000
 42
0.036217
  0
VERTEX
  8
0
 10
207.470940
 20
125.058995
 42
0.031353
  0
VERTEX
  8
0
 10
208.308466
 20
125.235312
 42
0.032620
  0
VERTEX
  8
0
 10
209.048759
 20
125.493350
 42
0.075125
  0
VERTEX
  8
0
 10
209.550000
 20
125.801062
 42
-0.160546
  0
VERTEX
  8
0
 10
210.305992
 20
126.104921
 42
-0.006827
  0
VERTEX
  8
0
 10
213.220706
 20
126.251198
 42
-0.011124
  0
VERTEX
  8
0
 10
216.730277
 20
126.301187
 42
-0.007630
  0
VERTEX
  8
0
 10
220.711977
 20
126.208543
 42
-0.004976
  0
VERTEX
  8
0
 10
226.556018
 20
125.925037
 42
-0.037810
  0
VERTEX
  8
0
 10
229.286511
 20
125.556917
 42
-0.094872
  0
VERTEX
  8
0
 10
230.753223
 20
124.938921
 42
-0.170502
  0
VERTEX
  8
0
 10
231.529365
 20
123.907481
 42
0.084811
  0
VERTEX
  8
0
 10
231.905697
 20
123.178483
 42
0.070248
  0
VERTEX
  8
0
 10
232.524641
 20
122.560322
 42
0.070983
  0
VERTEX
  8
0
 10
233.283377
 20
122.143089
 42
0.090507
  0
VERTEX
  8
0
 10
234.067388
 20
122.000000
 42
0.224959
  0
VERTEX
  8
0
 10
235.124368
 20
122.500903
 42
0.132267
  0
VERTEX
  8
0
 10
235.709737
 20
123.802303
 42
0.036841
  0
VERTEX
  8
0
 10
235.954434
 20
126.639591
 42
0.003095
  0
VERTEX
  8
0
 10
236.000000
 20
134.000000
 42
0.002988
  0
VERTEX
  8
0
 10
235.955380
 20
141.467369
 42
0.038318
  0
VERTEX
  8
0
 10
235.708333
 20
144.250000
 42
0.142907
  0
VERTEX
  8
0
 10
235.101385
 20
145.509562
 42
0.212584
  0
VERTEX
  8
0
 10
234.000000
 20
146.000000
 42
0.072254
  0
VERTEX
  8
0
 10
233.126841
 20
145.873159
 42
0.124864
  0
VERTEX
  8
0
 10
232.500000
 20
145.500000
 42
0.124864
  0
VERTEX
  8
0
 10
232.126841
 20
144.873159
 42
0.072254
  0
SEQEND
  0
POLYLINE
  8
0
 66
1
 70
1
  0
VERTEX
  8
0
 10
198.790717
 20
104.250000
 42
-0.005324
  0
VERTEX
  8
0
 10
197.881980
 20
102.358014
 42
-0.006424
  0
VERTEX
  8
0
 10
196.986961
 20
100.601562
 42
-0.005536
  0
VERTEX
  8
0
 10
196.199286
 20
99.143099
 42
-0.042775
  0
VERTEX
  8
0
 10
195.767057
 20
98.500000
 42
-0.001739
  0
VERTEX
  8
0
 10
195.331121
 20
97.961725
 42
-0.000437
  0
VERTEX
  8
0
 10
194.617084
 20
97.087866
 42
-0.000447
  0
VERTEX
  8
0
 10
193.799045
 20
96.090330
 42
-0.000450
  0
VERTEX
  8
0
 10
192.981463
 20
95.096990
 42
0.072631
  0
VERTEX
  8
0
 10
191.694165
 20
92.971393
 42
0.072009
  0
VERTEX
  8
0
 10
191.063663
 20
90.560183
 42
0.103036
  0
VERTEX
  8
0
 10
191.238014
 20
88.698028
 42
0.329197
  0
VERTEX
  8
0
 10
192.183319
 20
88.000000
 42
-0.119504
  0
VERTEX
  8
0
 10
192.970843
 20
87.809048
 42
-0.004231
  0
VERTEX
  8
0
 10
195.755812
 20
86.344190
 42
-0.007619
  0
VERTEX
  8
0
 10
199.027703
 20
84.522956
 42
-0.005237
  0
VERTEX
  8
0
 10
202.683319
 20
82.363201
 42
-0.008914
  0
VERTEX
  8
0
 10
206.900945
 20
79.707601
 42
-0.024512
  0
VERTEX
  8
0
 10
209.743576
 20
77.640336
 42
-0.031249
  0
VERTEX
  8
0
 10
211.541532
 20
75.997770
 42
-0.194409
  0
VERTEX
  8
0
 10
212.000000
 20
74.863201
 42
0.083759
  0
VERTEX
  8
0
 10
212.132609
 20
74.077147
 42
0.120278
  0
VERTEX
  8
0
 10
212.514232
 20
73.486534
 42
0.115927
  0
VERTEX
  8
0
 10
213.137254
 20
73.124081
 42
0.074156
  0
VERTEX
  8
0
 10
213.969271
 20
73.000000
 42
0.208759
  0
VERTEX
  8
0
 10
215.727827
 20
73.767686
 42
0.030509
  0
VERTEX
  8
0
 10
218.254785
 20
76.850824
 42
0.024687
  0
VERTEX
  8
0
 10
221.371192
 20
81.646951
 42
0.009323
  0
VERTEX
  8
0
 10
225.263769
 20
88.635328
 42
0.015433
  0
VERTEX
  8
0
 10
227.429879
 20
93.021687
 42
0.108478
  0
VERTEX
  8
0
 10
227.927580
 20
95.337165
 42
0.297363
  0
VERTEX
  8
0
 10
227.165820
 20
96.493642
 42
0.122181
  0
VERTEX
  8
0
 10
225.227851
 20
96.820539
 42
-0.131182
  0
VERTEX
  8
0
 10
221.734913
 20
97.473572
 42
-0.012455
  0
VERTEX
  8
0
 10
213.918645
 20
101.449945
 42
-0.008836
  0
VERTEX
  8
0
 10
206.096314
 20
105.858229
 42
-0.264592
  0
VERTEX
  8
0
 10
205.006598
 20
107.750000
 42
0.156603
  0
VERTEX
  8
0
 10
204.850732
 20
108.226780
 42
0.096771
  0
VERTEX
  8
0
 10
204.415943
 20
108.632812
 42
0.079064
  0
VERTEX
  8
0
 10
203.768453
 20
108.906924
 42
0.060742
  0
VERTEX
  8
0
 10
203.005123
 20
109.000000
 42
0.135445
  0
VERTEX
  8
0
 10
201.967755
 20
108.713735
 42
0.076793
  0
VERTEX
  8
0
 10
200.957113
 20
107.876572
 42
0.051826
  0
VERTEX
  8
0
 10
199.919910
 20
106.430344
 42
0.020373
  0
SEQEND
  0
POLYLINE
  8
0
 66
1
 70
1
  0
VERTEX
  8
0
 10
169.000000
 20
70.309546
 42
0.063431
  0
VERTEX
  8
0
 10
169.373775
 20
67.375115
 42
0.005256
  0
VERTEX
  8
0
 10
171.383239
 20
59.938195
 42
0.006583
  0
VERTEX
  8
0
 10
173.546492
 20
52.624414
 42
0.039250
  0
VERTEX
  8
0
 10
175.018528
 20
48.930398
 42
-0.069394
  0
VERTEX
  8
0
 10
175.279726
 20
48.139823
 42
-0.029826
  0
VERTEX
  8
0
 10
175.414014
 20
47.034500
 42
-0.028800
  0
VERTEX
  8
0
 10
175.418480
 20
45.821821
 42
-0.033758
  0
VERTEX
  8
0
 10
175.279236
 20
44.680398
 42
0.027929
  0
VERTEX
  8
0
 10
175.089755
 20
43.264563
 42
0.150279
  0
VERTEX
  8
0
 10
175.258258
 20
42.515018
 42
0.206664
  0
VERTEX
  8
0
 10
175.781712
 20
42.122224
 42
0.059108
  0
VERTEX
  8
0
 10
176.811994
 20
42.000000
 42
0.061073
  0
VERTEX
  8
0
 10
177.704743
 20
42.109453
 42
0.039091
  0
VERTEX
  8
0
 10
178.697005
 20
42.440625
 42
0.038908
  0
VERTEX
  8
0
 10
179.633079
 20
42.925636
 42
0.057456
  0
VERTEX
  8
0
 10
180.357143
 20
43.500000
 42
-0.032161
  0
VERTEX
  8
0
 10
181.010186
 20
44.074034
 42
-0.032192
  0
VERTEX
  8
0
 10
181.731250
 20
44.559375
 42
-0.033960
  0
VERTEX
  8
0
 10
182.413868
 20
44.897730
 42
-0.098387
  0
VERTEX
  8
0
 10
182.928571
 20
45.000000
 42
0.297408
  0
VERTEX
  8
0
 10
183.812628
 20
45.576877
 42
0.155023
  0
VERTEX
  8
0
 10
183.958929
 20
46.940354
 42
0.112656
  0
VERTEX
  8
0
 10
183.267592
 20
48.467597
 42
0.167948
  0
VERTEX
  8
0
 10
182.058981
 20
49.274325
 42
-0.170041
  0
VERTEX
  8
0
 10
180.721433
 20
50.175008
 42
-0.026768
  0
VERTEX
  8
0
 10
178.935065
 20
52.855885
 42
-0.029504
  0
VERTEX
  8
0
 10
177.433014
 20
55.774750
 42
-0.104445
  0
VERTEX
  8
0
 10
177.000000
 20
57.825072
 42
-0.622287
  0
VERTEX
  8
0
 10
177.156849
 20
57.902295
 42
-0.009433
  0
VERTEX
  8
0
 10
178.175000
 20
57.087922
 42
-0.013011
  0
VERTEX
  8
0
 10
179.465049
 20
55.957515
 42
-0.006984
  0
VERTEX
  8
0
 10
181.000000
 20
54.500000
 42
-0.015361
  0
VERTEX
  8
0
 10
182.531817
 20
52.909423
 42
-0.020113
  0
VERTEX
  8
0
 10
183.825000
 20
51.360452
 42
-0.018064
  0
VERTEX
  8
0
 10
184.784814
 20
50.014002
 42
-0.146835
  0
VERTEX
  8
0
 10
185.000000
 20
49.297052
 42
0.272346
  0
VERTEX
  8
0
 10
185.559583
 20
48.345915
 42
0.177045
  0
VERTEX
  8
0
 10
186.854190
 20
48.141309
 42
0.069028
  0
VERTEX
  8
0
 10
189.114610
 20
48.919470
 42
0.019051
  0
VERTEX
  8
0
 10
192.406591
 20
50.750000
 42
0.039102
  0
VERTEX
  8
0
 10
195.837836
 20
53.219037
 42
0.169466
  0
VERTEX
  8
0
 10
197.093929
 20
55.347463
 42
0.402484
  0
VERTEX
  8
0
 10
196.290763
 20
56.606358
 42
0.099954
  0
VERTEX
  8
0
 10
193.598579
 20
56.709710
 42
-0.084523
  0
VERTEX
  8
0
 10
191.359026
 20
56.727110
 42
-0.099341
  0
VERTEX
  8
0
 10
189.387015
 20
57.502082
 42
-0.042849
  0
VERTEX
  8
0
 10
186.808721
 20
59.495358
 42
-0.004783
  0
VERTEX
  8
0
 10
181.388272
 20
64.578868
 42
0.010938
  0
VERTEX
  8
0
 10
175.210236
 20
70.231560
 42
0.071590
  0
VERTEX
  8
0
 10
171.695155
 20
72.515538
 42
0.298368
  0
VERTEX
  8
0
 10
169.869646
 20
72.245902
 42
0.214249
  0
SEQEND
  0
POLYLINE
  8
0
 66
1
 70
1
  0
VERTEX
  8
0
 10
122.837159
 20
50.500000
 42
-0.002252
  0
VERTEX
  8
0
 10
123.053822
 20
41.733276
 42
-0.036773
  0
VERTEX
  8
0
 10
122.897226
 20
38.798506
 42
-0.157470
  0
VERTEX
  8
0
 10
122.292249
 20
37.510768
 42
-0.207719
  0
VERTEX
  8
0
 10
121.115829
 20
37.000000
 42
0.064082
  0
VERTEX
  8
0
 10
120.171931
 20
36.878527
 42
0.125981
  0
VERTEX
  8
0
 10
119.514479
 20
36.513686
 42
0.131424
  0
VERTEX
  8
0
 10
119.130378
 20
35.890259
 42
0.072836
  0
VERTEX
  8
0
 10
119.000000
 20
35.000000
 42
0.224251
  0
VERTEX
  8
0
 10
119.522682
 20
33.893213
 42
0.134742
  0
VERTEX
  8
0
 10
120.875000
 20
33.288462
 42
0.035495
  0
VERTEX
  8
0
 10
123.865477
 20
33.043630
 42
0.002682
  0
VERTEX
  8
0
 10
132.000000
 20
33.000000
 42
0.002682
  0
VERTEX
  8
0
 10
140.134523
 20
33.043630
 42
0.035495
  0
VERTEX
  8
0
 10
143.125000
 20
33.288462
 42
0.134742
  0
VERTEX
  8
0
 10
144.477318
 20
33.893213
 42
0.224251
  0
VERTEX
  8
0
 10
145.000000
 20
35.000000
 42
0.071824
  0
VERTEX
  8
0
 10
144.877030
 20
35.851635
 42
0.116860
  0
VERTEX
  8
0
 10
144.516104
 20
36.482787
 42
0.122253
  0
VERTEX
  8
0
 10
143.924119
 20
36.866729
 42
0.083208
  0
VERTEX
  8
0
 10
143.128831
 20
37.000000
 42
-0.143613
  0
VERTEX
  8
0
 10
142.168951
 20
37.281508
 42
-0.138522
  0
VERTEX
  8
0
 10
141.497051
 20
38.039971
 42
-0.067489
  0
VERTEX
  8
0
 10
141.016000
 20
39.516829
 42
-0.013640
  0
VERTEX
  8
0
 10
140.594984
 20
42.250000
 42
0.009565
  0
VERTEX
  8
0
 10
140.223858
 20
44.797059
 42
0.004038
  0
VERTEX
  8
0
 10
139.632528
 20
48.203186
 42
0.003993
  0
VERTEX
  8
0
 10
138.942130
 20
51.833033
 42
0.005201
  0
VERTEX
  8
0
 10
138.249106
 20
55.143826
 42
0.000000
  0
VERTEX
  8
0
 10
136.565905
 20
62.787651
 42
0.000000
  0
VERTEX
  8
0
 10
132.143381
 20
63.393826
 42
0.006905
  0
VERTEX
  8
0
 10
130.256742
 20
63.625925
 42
0.005742
  0
VERTEX
  8
0
 10
128.244739
 20
63.821936
 42
0.005801
  0
VERTEX
  8
0
 10
126.397868
 20
63.958907
 42
0.015608
  0
VERTEX
  8
0
 10
125.081759
 20
64.000000
 42
0.000000
  0
VERTEX
  8
0
 10
122.442660
 20
64.000000
 42
0.000000
  0
SEQEND
  0
POLYLINE
  8
0
 66
1
 70
1
  0
VERTEX
  8
0
 10
131.295588
 20
55.250000
 42
-0.003727
  0
VERTEX
  8
0
 10
130.715658
 20
51.669141
 42
-0.279890
  0
VERTEX
  8
0
 10
130.347318
 20
51.243905
 42
-0.502833
  0
VERTEX
  8
0
 10
130.030788
 20
51.470197
 42
-0.004577
  0
VERTEX
  8
0
 10
130.000000
 20
54.833333
 42
-0.021202
  0
VERTEX
  8
0
 10
130.067747
 20
56.430314
 42
-0.034122
  0
VERTEX
  8
0
 10
130.275282
 20
57.776042
 42
-0.037637
  0
VERTEX
  8
0
 10
130.573180
 20
58.751252
 42
-0.309087
  0
VERTEX
  8
0
 10
130.937129
 20
59.000000
 42
-0.330839
  0
VERTEX
  8
0
 10
131.263503
 20
58.757503
 42
-0.049411
  0
VERTEX
  8
0
 10
131.431232
 20
57.903978
 42
-0.039304
  0
VERTEX
  8
0
 10
131.451465
 20
56.694828
 42
-0.022821
  0
SEQEND
  0
POLYLINE
  8
0
 66
1
 70
1
  0
VERTEX
  8
0
 10
133.580803
 20
37.247470
 42
-0.229376
  0
VERTEX
  8
0
 10
132.886652
 20
37.006252
 42
-0.292360
  0
VERTEX
  8
0
 10
132.373676
 20
37.425654
 42
-0.111582
  0
VERTEX
  8
0
 10
132.259660
 20
38.630973
 42
-0.051336
  0
VERTEX
  8
0
 10
132.621937
 20
40.174639
 42
0.000000
  0
VERTEX
  8
0
 10
133.426486
 20
42.500000
 42
0.000000
  0
VERTEX
  8
0
 10
133.794046
 20
40.164136
 42
-0.025908
  0
VERTEX
  8
0
 10
133.892087
 20
39.227292
 42
-0.031372
  0
VERTEX
  8
0
 10
133.883024
 20
38.343822
 42
-0.032832
  0
VERTEX
  8
0
 10
133.782114
 20
37.620539
 42
-0.146315
  0
SEQEND
  0
ENDSEC
  0
EOF
