  0
SECTION
  2
HEADER
  9
$ACADVER
  1
AC1006
  9
$EXTMIN
 10
0.000000
 20
0.000000
 30
0.000000
  9
$EXTMAX
 10
145.000000
 20
195.000000
 30
0.000000
  0
ENDSEC
  0
SECTION
  2
ENTITIES
  0
POLYLINE
  8
0
 66
1
 70
1
  0
VERTEX
  8
0
 10
65.000000
 20
193.110817
 42
0.016720
  0
VERTEX
  8
0
 10
59.502976
 20
191.415599
 42
0.038438
  0
VERTEX
  8
0
 10
55.533993
 20
189.693334
 42
0.043507
  0
VERTEX
  8
0
 10
52.181092
 20
187.529021
 42
0.027860
  0
VERTEX
  8
0
 10
48.681744
 20
184.485311
 42
0.053092
  0
VERTEX
  8
0
 10
45.128456
 20
180.207416
 42
0.089319
  0
VERTEX
  8
0
 10
43.277937
 20
175.936689
 42
0.093598
  0
VERTEX
  8
0
 10
43.079349
 20
171.432851
 42
0.063383
  0
VERTEX
  8
0
 10
44.449286
 20
166.467132
 42
0.059680
  0
VERTEX
  8
0
 10
46.259966
 20
163.267709
 42
0.048709
  0
VERTEX
  8
0
 10
48.889892
 20
160.338166
 42
0.037228
  0
VERTEX
  8
0
 10
52.681644
 20
157.349673
 42
0.016051
  0
VERTEX
  8
0
 10
58.133923
 20
153.924104
 42
-0.016079
  0
VERTEX
  8
0
 10
62.476034
 20
151.195705
 42
-0.066617
  0
VERTEX
  8
0
 10
64.786880
 20
149.143439
 42
-0.205223
  0
VERTEX
  8
0
 10
65.250046
 20
147.681088
 42
-0.283848
  0
VERTEX
  8
0
 10
64.436858
 20
146.614144
 42
0.077624
  0
VERTEX
  8
0
 10
63.887577
 20
146.298664
 42
0.065079
  0
VERTEX
  8
0
 10
63.422077
 20
145.813326
 42
0.066751
  0
VERTEX
  8
0
 10
63.107298
 20
145.238846
 42
0.092249
  0
VERTEX
  8
0
 10
63.000000
 20
144.662227
 42
-0.308883
  0
VERTEX
  8
0
 10
62.192289
 20
143.479502
 42
-0.053449
  0
VERTEX
  8
0
 10
59.434648
 20
142.729191
 42
-0.041538
  0
VERTEX
  8
0
 10
55.476464
 20
142.428468
 42
-0.023916
  0
VERTEX
  8
0
 10
50.699375
 20
142.691578
 42
0.036677
  0
VERTEX
  8
0
 10
46.588500
 20
142.812979
 42
0.082994
  0
VERTEX
  8
0
 10
43.553089
 20
142.167883
 42
0.108919
  0
VERTEX
  8
0
 10
41.409973
 20
140.726735
 42
0.099954
  0
VERTEX
  8
0
 10
39.990975
 20
138.476263
 42
-0.077936
  0
VERTEX
  8
0
 10
39.363393
 20
137.377309
 42
-0.027872
  0
VERTEX
  8
0
 10
38.155954
 20
136.028536
 42
-0.026853
  0
VERTEX
  8
0
 10
36.644322
 20
134.672450
 42
-0.028613
  0
VERTEX
  8
0
 10
35.026587
 20
133.516783
 42
0.011859
  0
VERTEX
  8
0
 10
30.946817
 20
130.803937
 42
0.022219
  0
VERTEX
  8
0
 10
27.804897
 20
128.390749
 42
0.016364
  0
VERTEX
  8
0
 10
24.323669
 20
125.262044
 42
0.003825
  0
VERTEX
  8
0
 10
18.702924
 20
119.784547
 42
0.012755
  0
VERTEX
  8
0
 10
14.444666
 20
115.350226
 42
0.029792
  0
VERTEX
  8
0
 10
11.552642
 20
111.774429
 42
0.030874
  0
VERTEX
  8
0
 10
9.166930
 20
107.958776
 42
0.014674
  0
VERTEX
  8
0
 10
6.553536
 20
102.784513
 42
0.048971
  0
VERTEX
  8
0
 10
2.347950
 20
90.914020
 42
0.043209
  0
VERTEX
  8
0
 10
0.303893
 20
77.939798
 42
0.043487
  0
VERTEX
  8
0
 10
0.525889
 20
64.897439
 42
0.051364
  0
VERTEX
  8
0
 10
3.055758
 20
52.825462
 42
-0.011856
  0
VERTEX
  8
0
 10
3.800008
 20
50.289878
 42
-0.011610
  0
VERTEX
  8
0
 10
4.428879
 20
47.704131
 42
-0.011567
  0
VERTEX
  8
0
 10
4.875076
 20
45.411543
 42
-0.042297
  0
VERTEX
  8
0
 10
5.000000
 20
43.937451
 42
0.148626
  0
VERTEX
  8
0
 10
6.424547
 20
39.250939
 42
0.009503
  0
VERTEX
  8
0
 10
14.712758
 20
27.371873
 42
0.007436
  0
VERTEX
  8
0
 10
23.561125
 20
15.563444
 42
0.232260
  0
VERTEX
  8
0
 10
26.745286
 20
14.000000
 42
-0.075551
  0
VERTEX
  8
0
 10
27.908863
 20
13.823172
 42
-0.022353
  0
VERTEX
  8
0
 10
29.608347
 20
13.209874
 42
-0.021880
  0
VERTEX
  8
0
 10
31.481944
 20
12.339740
 42
-0.021964
  0
VERTEX
  8
0
 10
33.269872
 20
11.310208
 42
0.010673
  0
VERTEX
  8
0
 10
35.298794
 20
10.080101
 42
0.005148
  0
VERTEX
  8
0
 10
37.946462
 20
8.587311
 42
0.005102
  0
VERTEX
  8
0
 10
40.739635
 20
7.087095
 42
0.007293
  0
VERTEX
  8
0
 10
43.250000
 20
5.817925
 42
-0.019249
  0
VERTEX
  8
0
 10
45.479177
 20
4.623168
 42
-0.028195
  0
VERTEX
  8
0
 10
47.331880
 20
3.391058
 42
-0.028145
  0
VERTEX
  8
0
 10
48.674834
 20
2.261003
 42
-0.206617
  0
VERTEX
  8
0
 10
49.000000
 20
1.507717
 42
0.367139
  0
VERTEX
  8
0
 10
49.722696
 20
0.656154
 42
0.024780
  0
VERTEX
  8
0
 10
53.135447
 20
0.266086
 42
0.014258
  0
VERTEX
  8
0
 10
59.245021
 20
0.047640
 42
0.001806
  0
VERTEX
  8
0
 10
72.432612
 20
0.000000
 42
0.001484
  0
VERTEX
  8
0
 10
86.937113
 20
0.043040
 42
0.017993
  0
VERTEX
  8
0
 10
92.500138
 20
0.276361
 42
0.050128
  0
VERTEX
  8
0
 10
95.340385
 20
0.787542
 42
0.251410
  0
VERTEX
  8
0
 10
96.460497
 20
1.875537
 42
-0.133386
  0
VERTEX
  8
0
 10
97.053126
 20
2.794973
 42
-0.021618
  0
VERTEX
  8
0
 10
98.708654
 20
4.160841
 42
-0.022538
  0
VERTEX
  8
0
 10
100.851944
 20
5.631936
 42
-0.018131
  0
VERTEX
  8
0
 10
103.277885
 20
7.021561
 42
0.021226
  0
VERTEX
  8
0
 10
109.165491
 20
10.442643
 42
0.013989
  0
VERTEX
  8
0
 10
115.644228
 20
14.844628
 42
0.013574
  0
VERTEX
  8
0
 10
121.464344
 20
19.286799
 42
0.044313
  0
VERTEX
  8
0
 10
124.947982
 20
22.648854
 42
0.020420
  0
VERTEX
  8
0
 10
127.842301
 20
26.274079
 42
0.007386
  0
VERTEX
  8
0
 10
131.661575
 20
31.644879
 42
0.007110
  0
VERTEX
  8
0
 10
135.271566
 20
37.046341
 42
0.026112
  0
VERTEX
  8
0
 10
137.323697
 20
40.607923
 42
0.036144
  0
VERTEX
  8
0
 10
140.062614
 20
47.117705
 42
0.019714
  0
VERTEX
  8
0
 10
142.513780
 20
55.435522
 42
0.019622
  0
VERTEX
  8
0
 10
144.260598
 20
63.715696
 42
0.046326
  0
VERTEX
  8
0
 10
144.739701
 20
70.000000
 42
0.019084
  0
VERTEX
  8
0
 10
144.410893
 20
76.009851
 42
0.009659
  0
VERTEX
  8
0
 10
143.562446
 20
83.544308
 42
0.008747
  0
VERTEX
  8
0
 10
142.490301
 20
90.689205
 42
0.040237
  0
VERTEX
  8
0
 10
141.467815
 20
94.746547
 42
0.061042
  0
VERTEX
  8
0
 10
133.934805
 20
110.371729
 42
0.057833
  0
VERTEX
  8
0
 10
122.735297
 20
124.032894
 42
0.058774
  0
VERTEX
  8
0
 10
108.901488
 20
134.574413
 42
0.067576
  0
VERTEX
  8
0
 10
93.612314
 20
141.016683
 42
-0.022668
  0
VERTEX
  8
0
 10
91.471823
 20
141.700376
 42
-0.044162
  0
VERTEX
  8
0
 10
89.853188
 20
142.467867
 42
-0.058337
  0
VERTEX
  8
0
 10
88.758362
 20
143.295971
 42
-0.138604
  0
VERTEX
  8
0
 10
88.245682
 20
144.168511
 42
0.064953
  0
VERTEX
  8
0
 10
87.961553
 20
144.868671
 42
0.067608
  0
VERTEX
  8
0
 10
87.510282
 20
145.462000
 42
0.074906
  0
VERTEX
  8
0
 10
86.967385
 20
145.862861
 42
0.122225
  0
VERTEX
  8
0
 10
86.414753
 20
146.000000
 42
-0.100509
  0
VERTEX
  8
0
 10
85.939665
 20
146.096476
 42
-0.147283
  0
VERTEX
  8
0
 10
85.613763
 20
146.367188
 42
-0.146953
  0
VERTEX
  8
0
 10
85.491070
 20
146.773349
 42
-0.099909
  0
VERTEX
  8
0
 10
85.586507
 20
147.250000
 42
-0.132383
  0
VERTEX
  8
0
 10
86.733129
 20
148.727396
 42
-0.022411
  0
VERTEX
  8
0
 10
89.701415
 20
150.770087
 42
-0.023255
  0
VERTEX
  8
0
 10
92.853538
 20
152.539165
 42
-0.114960
  0
VERTEX
  8
0
 10
94.819340
 20
153.011923
 42
0.117394
  0
VERTEX
  8
0
 10
98.086798
 20
153.814337
 42
0.026054
  0
VERTEX
  8
0
 10
103.099341
 20
156.728601
 42
0.026906
  0
VERTEX
  8
0
 10
107.814225
 20
160.184532
 42
0.098368
  0
VERTEX
  8
0
 10
110.157315
 20
163.032912
 42
0.089609
  0
VERTEX
  8
0
 10
111.849967
 20
168.253551
 42
0.082550
  0
VERTEX
  8
0
 10
111.681015
 20
173.895290
 42
0.079214
  0
VERTEX
  8
0
 10
109.662779
 20
179.377204
 42
0.073248
  0
VERTEX
  8
0
 10
105.998329
 20
184.127218
 42
0.074947
  0
VERTEX
  8
0
 10
97.642610
 20
190.065390
 42
0.063215
  0
VERTEX
  8
0
 10
87.411547
 20
193.707241
 42
0.060853
  0
VERTEX
  8
0
 10
76.208190
 20
194.765226
 42
0.059645
  0
SEQEND
  0
POLYLINE
  8
0
 66
1
 70
1
  0
VERTEX
  8
0
 10
92.158775
 20
179.249201
 42
-0.032547
  0
VERTEX
  8
0
 10
97.482179
 20
175.694881
 42
-0.140178
  0
VERTEX
  8
0
 10
99.728754
 20
172.667910
 42
-0.220164
  0
VERTEX
  8
0
 10
99.512657
 20
169.732087
 42
-0.091353
  0
VERTEX
  8
0
 10
96.923275
 20
166.588894
 42
-0.026218
  0
VERTEX
  8
0
 10
94.405049
 20
164.686095
 42
-0.136174
  0
VERTEX
  8
0
 10
92.769082
 20
164.136725
 42
-0.223651
  0
VERTEX
  8
0
 10
91.538183
 20
164.638046
 42
-0.082639
  0
VERTEX
  8
0
 10
90.487128
 20
166.245566
 42
0.118935
  0
VERTEX
  8
0
 10
88.896445
 20
168.334012
 42
0.068105
  0
VERTEX
  8
0
 10
86.176307
 20
169.990978
 42
0.053497
  0
VERTEX
  8
0
 10
82.421576
 20
171.169866
 42
0.030714
  0
VERTEX
  8
0
 10
77.715509
 20
171.813517
 42
0.045904
  0
VERTEX
  8
0
 10
72.507054
 20
171.723792
 42
0.053108
  0
VERTEX
  8
0
 10
67.661360
 20
170.665175
 42
0.063357
  0
VERTEX
  8
0
 10
64.111412
 20
168.960201
 42
0.254411
  0
VERTEX
  8
0
 10
63.000000
 20
166.917292
 42
-0.148450
  0
VERTEX
  8
0
 10
62.589433
 20
165.564918
 42
-0.281939
  0
VERTEX
  8
0
 10
61.592831
 20
165.105813
 42
-0.125773
  0
VERTEX
  8
0
 10
59.955945
 20
165.737223
 42
-0.032333
  0
VERTEX
  8
0
 10
57.739782
 20
167.540469
 42
-0.089828
  0
VERTEX
  8
0
 10
55.365358
 20
170.703391
 42
-0.242331
  0
VERTEX
  8
0
 10
55.394587
 20
173.430482
 42
-0.136023
  0
VERTEX
  8
0
 10
57.935536
 20
176.122166
 42
-0.025111
  0
VERTEX
  8
0
 10
64.000000
 20
179.384979
 42
-0.023002
  0
VERTEX
  8
0
 10
67.406220
 20
180.814656
 42
-0.049945
  0
VERTEX
  8
0
 10
70.151094
 20
181.520196
 42
-0.037766
  0
VERTEX
  8
0
 10
73.424445
 20
181.770403
 42
-0.008555
  0
VERTEX
  8
0
 10
79.000000
 20
181.679421
 42
-0.009446
  0
VERTEX
  8
0
 10
83.930450
 20
181.421236
 42
-0.027861
  0
VERTEX
  8
0
 10
87.295966
 20
180.991782
 42
-0.039268
  0
VERTEX
  8
0
 10
89.867128
 20
180.304708
 42
-0.046036
  0
SEQEND
  0
POLYLINE
  8
0
 66
1
 70
1
  0
VERTEX
  8
0
 10
71.050187
 20
121.560472
 42
0.083813
  0
VERTEX
  8
0
 10
70.614562
 20
120.809229
 42
0.038828
  0
VERTEX
  8
0
 10
70.301092
 20
119.721707
 42
0.037041
  0
VERTEX
  8
0
 10
70.142581
 20
118.499487
 42
0.042417
  0
VERTEX
  8
0
 10
70.177742
 20
117.322313
 42
0.054158
  0
VERTEX
  8
0
 10
70.521277
 20
115.806384
 42
0.140200
  0
VERTEX
  8
0
 10
71.157105
 20
114.895969
 42
0.104151
  0
VERTEX
  8
0
 10
72.308756
 20
114.303693
 42
0.022648
  0
VERTEX
  8
0
 10
74.500000
 20
113.808702
 42
0.021095
  0
VERTEX
  8
0
 10
76.232877
 20
113.573874
 42
0.016375
  0
VERTEX
  8
0
 10
78.132812
 20
113.460197
 42
0.016659
  0
VERTEX
  8
0
 10
79.914430
 20
113.471424
 42
0.037940
  0
VERTEX
  8
0
 10
81.250000
 20
113.626316
 42
0.045319
  0
VERTEX
  8
0
 10
82.723275
 20
114.052961
 42
0.148717
  0
VERTEX
  8
0
 10
83.510083
 20
114.673404
 42
0.124771
  0
VERTEX
  8
0
 10
83.895204
 20
115.697992
 42
0.027828
  0
VERTEX
  8
0
 10
84.000000
 20
117.579455
 42
-0.015518
  0
VERTEX
  8
0
 10
84.040707
 20
118.890736
 42
-0.025386
  0
VERTEX
  8
0
 10
84.165857
 20
119.995215
 42
-0.022964
  0
VERTEX
  8
0
 10
84.343129
 20
120.828922
 42
-0.341231
  0
VERTEX
  8
0
 10
84.564619
 20
121.000000
 42
-0.102137
  0
VERTEX
  8
0
 10
85.811162
 20
120.742679
 42
-0.003903
  0
VERTEX
  8
0
 10
90.164839
 20
118.824803
 42
-0.001896
  0
VERTEX
  8
0
 10
94.708484
 20
116.759999
 42
-0.293102
  0
VERTEX
  8
0
 10
95.000000
 20
116.305427
 42
-0.150907
  0
VERTEX
  8
0
 10
94.921463
 20
116.051136
 42
-0.015212
  0
VERTEX
  8
0
 10
94.543743
 20
115.532569
 42
-0.017987
  0
VERTEX
  8
0
 10
94.041664
 20
114.931521
 42
-0.013378
  0
VERTEX
  8
0
 10
93.446783
 20
114.303926
 42
0.067287
  0
VERTEX
  8
0
 10
92.874658
 20
113.552935
 42
0.047308
  0
VERTEX
  8
0
 10
92.438894
 20
112.582644
 42
0.047489
  0
VERTEX
  8
0
 10
92.194946
 20
111.553103
 42
0.069979
  0
VERTEX
  8
0
 10
92.196783
 20
110.625354
 42
0.079770
  0
VERTEX
  8
0
 10
92.525627
 20
109.565721
 42
0.151130
  0
VERTEX
  8
0
 10
93.135723
 20
108.923957
 42
0.102511
  0
VERTEX
  8
0
 10
94.184242
 20
108.592256
 42
0.025526
  0
VERTEX
  8
0
 10
95.990179
 20
108.500000
 42
0.026368
  0
VERTEX
  8
0
 10
97.924844
 20
108.602099
 42
0.125063
  0
VERTEX
  8
0
 10
98.956909
 20
108.983850
 42
0.152127
  0
VERTEX
  8
0
 10
99.573500
 20
109.768970
 42
0.045234
  0
VERTEX
  8
0
 10
99.990179
 20
111.254890
 42
0.000000
  0
VERTEX
  8
0
 10
100.500000
 20
114.009779
 42
0.000000
  0
VERTEX
  8
0
 10
105.858202
 20
109.226219
 42
0.000000
  0
VERTEX
  8
0
 10
111.216404
 20
104.442658
 42
0.000000
  0
VERTEX
  8
0
 10
108.608202
 20
102.483980
 42
0.072590
  0
VERTEX
  8
0
 10
107.033537
 20
100.897784
 42
0.088119
  0
VERTEX
  8
0
 10
106.102813
 20
99.024139
 42
0.156615
  0
VERTEX
  8
0
 10
106.138774
 20
97.611360
 42
0.318851
  0
VERTEX
  8
0
 10
107.000000
 20
97.000000
 42
-0.174820
  0
VERTEX
  8
0
 10
107.381591
 20
96.862375
 42
-0.093122
  0
VERTEX
  8
0
 10
107.706250
 20
96.471250
 42
-0.073362
  0
VERTEX
  8
0
 10
107.925973
 20
95.888633
 42
-0.053595
  0
VERTEX
  8
0
 10
108.000000
 20
95.200000
 42
0.107528
  0
VERTEX
  8
0
 10
108.387752
 20
93.417819
 42
0.127511
  0
VERTEX
  8
0
 10
109.471077
 20
92.083952
 42
0.104243
  0
VERTEX
  8
0
 10
111.261251
 20
91.268802
 42
0.054944
  0
VERTEX
  8
0
 10
113.700000
 20
91.000000
 42
0.025137
  0
VERTEX
  8
0
 10
115.459133
 20
91.088494
 42
0.123698
  0
VERTEX
  8
0
 10
116.386420
 20
91.423488
 42
0.177081
  0
VERTEX
  8
0
 10
116.867359
 20
92.086653
 42
0.064873
  0
VERTEX
  8
0
 10
117.040038
 20
93.250000
 42
-0.016339
  0
VERTEX
  8
0
 10
117.104509
 20
94.526414
 42
-0.516838
  0
VERTEX
  8
0
 10
117.334885
 20
94.662512
 42
-0.159516
  0
VERTEX
  8
0
 10
117.692854
 20
94.337735
 42
-0.004501
  0
VERTEX
  8
0
 10
118.717452
 20
92.500000
 42
-0.029417
  0
VERTEX
  8
0
 10
119.432053
 20
90.985199
 42
-0.011804
  0
VERTEX
  8
0
 10
120.235863
 20
88.839062
 42
-0.011633
  0
VERTEX
  8
0
 10
120.995460
 20
86.479875
 42
-0.014416
  0
VERTEX
  8
0
 10
121.587214
 20
84.250000
 42
0.000000
  0
VERTEX
  8
0
 10
122.819599
 20
79.000000
 42
0.000000
  0
VERTEX
  8
0
 10
118.505790
 20
79.000000
 42
0.000000
  0
VERTEX
  8
0
 10
114.191980
 20
79.000000
 42
0.000000
  0
VERTEX
  8
0
 10
114.154906
 20
74.213690
 42
0.023958
  0
VERTEX
  8
0
 10
114.322242
 20
70.049319
 42
0.142296
  0
VERTEX
  8
0
 10
115.103111
 20
68.040603
 42
0.211410
  0
VERTEX
  8
0
 10
116.656429
 20
67.190696
 42
0.061289
  0
VERTEX
  8
0
 10
119.449928
 20
67.298162
 42
-0.012393
  0
VERTEX
  8
0
 10
121.471604
 20
67.575004
 42
-0.111880
  0
VERTEX
  8
0
 10
122.353044
 20
67.476289
 42
-0.290581
  0
VERTEX
  8
0
 10
122.696175
 20
67.043937
 42
-0.094945
  0
VERTEX
  8
0
 10
122.624666
 20
66.195245
 42
0.009849
  0
VERTEX
  8
0
 10
122.395508
 20
65.311388
 42
0.003031
  0
VERTEX
  8
0
 10
122.084332
 20
63.969853
 42
0.003031
  0
VERTEX
  8
0
 10
121.754301
 20
62.464325
 42
0.003321
  0
VERTEX
  8
0
 10
121.452747
 20
61.000000
 42
-0.015696
  0
VERTEX
  8
0
 10
121.079168
 20
59.388827
 42
-0.008377
  0
VERTEX
  8
0
 10
120.521850
 20
57.420971
 42
-0.008331
  0
VERTEX
  8
0
 10
119.884977
 20
55.428647
 42
-0.012850
  0
VERTEX
  8
0
 10
119.261894
 20
53.730965
 42
-0.007412
  0
VERTEX
  8
0
 10
118.243485
 20
51.269377
 42
-0.168868
  0
VERTEX
  8
0
 10
117.734259
 20
50.713561
 42
-0.323412
  0
VERTEX
  8
0
 10
117.158818
 20
50.789410
 42
-0.024931
  0
VERTEX
  8
0
 10
116.016509
 20
51.980965
 42
0.084506
  0
VERTEX
  8
0
 10
114.089729
 20
53.563886
 42
0.157446
  0
VERTEX
  8
0
 10
112.132022
 20
53.974606
 42
0.185713
  0
VERTEX
  8
0
 10
110.524863
 20
53.152612
 42
0.121817
  0
VERTEX
  8
0
 10
109.537834
 20
51.294718
 42
-0.047078
  0
VERTEX
  8
0
 10
109.136413
 20
50.159888
 42
-0.034351
  0
VERTEX
  8
0
 10
108.491533
 20
48.987133
 42
-0.034990
  0
VERTEX
  8
0
 10
107.718028
 20
47.951223
 42
-0.062193
  0
VERTEX
  8
0
 10
106.929426
 20
47.238014
 42
0.137891
  0
VERTEX
  8
0
 10
105.476140
 20
45.461781
 42
0.105589
  0
VERTEX
  8
0
 10
104.972223
 20
42.992104
 42
0.117733
  0
VERTEX
  8
0
 10
105.532675
 20
40.736203
 42
0.198957
  0
VERTEX
  8
0
 10
107.000000
 20
39.500000
 42
-0.085917
  0
VERTEX
  8
0
 10
108.488963
 20
38.727204
 42
-0.314302
  0
VERTEX
  8
0
 10
108.797564
 20
37.769045
 42
-0.130813
  0
VERTEX
  8
0
 10
107.967253
 20
36.437627
 42
-0.015917
  0
VERTEX
  8
0
 10
105.357897
 20
34.143479
 42
-0.013399
  0
VERTEX
  8
0
 10
103.327530
 20
32.559295
 42
-0.079687
  0
VERTEX
  8
0
 10
102.136335
 20
31.944066
 42
-0.164344
  0
VERTEX
  8
0
 10
101.232526
 20
31.951359
 42
-0.113370
  0
VERTEX
  8
0
 10
100.357897
 20
32.499246
 42
-0.035296
  0
VERTEX
  8
0
 10
99.838261
 20
33.097925
 42
-0.033656
  0
VERTEX
  8
0
 10
99.398882
 20
33.772993
 42
-0.035502
  0
VERTEX
  8
0
 10
99.094114
 20
34.422513
 42
-0.092197
  0
VERTEX
  8
0
 10
99.000000
 20
34.928571
 42
0.336801
  0
VERTEX
  8
0
 10
98.282646
 20
35.872720
 42
0.100889
  0
VERTEX
  8
0
 10
96.362003
 20
36.007821
 42
0.084199
  0
VERTEX
  8
0
 10
94.298762
 20
35.372131
 42
0.215271
  0
VERTEX
  8
0
 10
93.337677
 20
34.183276
 42
-0.089658
  0
VERTEX
  8
0
 10
92.949172
 20
33.346379
 42
-0.142025
  0
VERTEX
  8
0
 10
92.336332
 20
32.855665
 42
-0.102237
  0
VERTEX
  8
0
 10
91.398103
 20
32.675953
 42
-0.032815
  0
VERTEX
  8
0
 10
89.977146
 20
32.790046
 42
0.034229
  0
VERTEX
  8
0
 10
88.413171
 20
32.911178
 42
0.140005
  0
VERTEX
  8
0
 10
87.504416
 20
32.660321
 42
0.152478
  0
VERTEX
  8
0
 10
86.908736
 20
31.982017
 42
0.043053
  0
VERTEX
  8
0
 10
86.444861
 20
30.636330
 42
0.050210
  0
VERTEX
  8
0
 10
86.260082
 20
29.375956
 42
0.073352
  0
VERTEX
  8
0
 10
86.373252
 20
28.261584
 42
0.076034
  0
VERTEX
  8
0
 10
86.797509
 20
27.256515
 42
0.058616
  0
VERTEX
  8
0
 10
87.535889
 20
26.321254
 42
-0.015590
  0
VERTEX
  8
0
 10
88.569577
 20
25.221015
 42
-0.252848
  0
VERTEX
  8
0
 10
88.680393
 20
24.742843
 42
-0.251038
  0
VERTEX
  8
0
 10
88.341407
 20
24.385824
 42
-0.015392
  0
VERTEX
  8
0
 10
86.886878
 20
23.953978
 42
-0.003318
  0
VERTEX
  8
0
 10
81.117448
 20
22.473478
 42
-0.122989
  0
VERTEX
  8
0
 10
79.771200
 20
22.473738
 42
-0.316387
  0
VERTEX
  8
0
 10
79.136205
 20
23.208028
 42
-0.025046
  0
VERTEX
  8
0
 10
79.000000
 20
25.925392
 42
0.000000
  0
VERTEX
  8
0
 10
79.000000
 20
29.888889
 42
0.000000
  0
VERTEX
  8
0
 10
71.549755
 20
29.888889
 42
0.007401
  0
VERTEX
  8
0
 10
67.322542
 20
29.826312
 42
0.051774
  0
VERTEX
  8
0
 10
65.280117
 20
29.552932
 42
0.121602
  0
VERTEX
  8
0
 10
64.150523
 20
28.966962
 42
0.136569
  0
VERTEX
  8
0
 10
63.482367
 20
27.944444
 42
0.046590
  0
VERTEX
  8
0
 10
63.290042
 20
27.060422
 42
0.029664
  0
VERTEX
  8
0
 10
63.224978
 20
26.008879
 42
0.029707
  0
VERTEX
  8
0
 10
63.284718
 20
24.960278
 42
0.047793
  0
VERTEX
  8
0
 10
63.472774
 20
24.085781
 42
-0.058469
  0
VERTEX
  8
0
 10
63.677346
 20
23.025082
 42
-0.388078
  0
VERTEX
  8
0
 10
63.372118
 20
22.637156
 42
-0.109599
  0
VERTEX
  8
0
 10
62.504225
 20
22.684554
 42
-0.005637
  0
VERTEX
  8
0
 10
59.790162
 20
23.477232
 42
-0.013337
  0
VERTEX
  8
0
 10
55.449686
 20
24.925772
 42
-0.034549
  0
VERTEX
  8
0
 10
52.436257
 20
26.263719
 42
-0.048627
  0
VERTEX
  8
0
 10
50.547160
 20
27.512489
 42
-0.226120
  0
VERTEX
  8
0
 10
50.000000
 20
28.660515
 42
-0.077877
  0
VERTEX
  8
0
 10
50.080187
 20
29.172219
 42
-0.090269
  0
VERTEX
  8
0
 10
50.312362
 20
29.606526
 42
-0.100780
  0
VERTEX
  8
0
 10
50.657820
 20
29.896870
 42
-0.125159
  0
VERTEX
  8
0
 10
51.063358
 20
30.000000
 42
0.392165
  0
VERTEX
  8
0
 10
51.946552
 20
30.818612
 42
0.071141
  0
VERTEX
  8
0
 10
51.784712
 20
33.260384
 42
0.059402
  0
VERTEX
  8
0
 10
50.875482
 20
35.942048
 42
0.156784
  0
VERTEX
  8
0
 10
49.500000
 20
37.399151
 42
-0.026824
  0
VERTEX
  8
0
 10
48.675647
 20
37.912316
 42
-0.022012
  0
VERTEX
  8
0
 10
47.852591
 20
38.543813
 42
-0.022559
  0
VERTEX
  8
0
 10
47.146730
 20
39.192980
 42
-0.053292
  0
VERTEX
  8
0
 10
46.700310
 20
39.750000
 42
0.135296
  0
VERTEX
  8
0
 10
46.165494
 20
40.231224
 42
0.042543
  0
VERTEX
  8
0
 10
45.156261
 20
40.632813
 42
0.038961
  0
VERTEX
  8
0
 10
43.901674
 20
40.907820
 42
0.034490
  0
VERTEX
  8
0
 10
42.566941
 20
41.000000
 42
0.031622
  0
VERTEX
  8
0
 10
40.874936
 20
40.892884
 42
0.097432
  0
VERTEX
  8
0
 10
39.791730
 20
40.533085
 42
0.125102
  0
VERTEX
  8
0
 10
39.080157
 20
39.851528
 42
0.070084
  0
VERTEX
  8
0
 10
38.590765
 20
38.750000
 42
-0.055683
  0
VERTEX
  8
0
 10
38.101881
 20
37.558637
 42
-0.380572
  0
VERTEX
  8
0
 10
37.552326
 20
37.362476
 42
-0.110243
  0
VERTEX
  8
0
 10
36.725040
 20
37.933378
 42
-0.005387
  0
VERTEX
  8
0
 10
34.475625
 20
40.414884
 42
-0.011240
  0
VERTEX
  8
0
 10
33.010395
 20
42.143464
 42
-0.008516
  0
VERTEX
  8
0
 10
31.478843
 20
44.102171
 42
-0.008621
  0
VERTEX
  8
0
 10
30.103652
 20
45.990870
 42
-0.019768
  0
VERTEX
  8
0
 10
29.150289
 20
47.469853
 42
0.000000
  0
VERTEX
  8
0
 10
27.297594
 20
50.609937
 42
0.000000
  0
VERTEX
  8
0
 10
30.007893
 20
50.212149
 42
0.039308
  0
VERTEX
  8
0
 10
31.413730
 20
50.117602
 42
0.129779
  0
VERTEX
  8
0
 10
32.301331
 20
50.362813
 42
0.143872
  0
VERTEX
  8
0
 10
32.899374
 20
50.995371
 42
0.052543
  0
VERTEX
  8
0
 10
33.345441
 20
52.157181
 42
0.018755
  0
VERTEX
  8
0
 10
33.879350
 20
54.499712
 42
0.081308
  0
VERTEX
  8
0
 10
33.913911
 20
55.920163
 42
0.181141
  0
VERTEX
  8
0
 10
33.495816
 20
56.692206
 42
0.180955
  0
VERTEX
  8
0
 10
32.673193
 20
57.000000
 42
-0.173363
  0
VERTEX
  8
0
 10
32.128080
 20
57.194861
 42
-0.144468
  0
VERTEX
  8
0
 10
31.780216
 20
57.706378
 42
-0.084141
  0
VERTEX
  8
0
 10
31.654987
 20
58.579958
 42
-0.030065
  0
VERTEX
  8
0
 10
31.763024
 20
59.838740
 42
0.048774
  0
VERTEX
  8
0
 10
31.825649
 20
61.135441
 42
0.055212
  0
VERTEX
  8
0
 10
31.627857
 20
62.364789
 42
0.058711
  0
VERTEX
  8
0
 10
31.183657
 20
63.454324
 42
0.070363
  0
VERTEX
  8
0
 10
30.518403
 20
64.338740
 42
0.085100
  0
VERTEX
  8
0
 10
28.980958
 20
65.426173
 42
0.085014
  0
VERTEX
  8
0
 10
27.168555
 20
65.939883
 42
0.100193
  0
VERTEX
  8
0
 10
25.536161
 20
65.787400
 42
0.183096
  0
VERTEX
  8
0
 10
24.489919
 20
64.983688
 42
-0.293124
  0
VERTEX
  8
0
 10
23.536965
 20
64.526940
 42
-0.283893
  0
VERTEX
  8
0
 10
22.700922
 20
65.198264
 42
-0.067021
  0
VERTEX
  8
0
 10
22.154053
 20
67.800104
 42
-0.018334
  0
VERTEX
  8
0
 10
22.000000
 20
72.000000
 42
-0.019017
  0
VERTEX
  8
0
 10
22.168580
 20
76.430779
 42
-0.079472
  0
VERTEX
  8
0
 10
22.787247
 20
79.018544
 42
-0.489603
  0
VERTEX
  8
0
 10
23.620989
 20
79.246531
 42
-0.156202
  0
VERTEX
  8
0
 10
24.495391
 20
78.014521
 42
0.257008
  0
VERTEX
  8
0
 10
26.356388
 20
76.244536
 42
0.255489
  0
VERTEX
  8
0
 10
28.855442
 20
76.864221
 42
0.111352
  0
VERTEX
  8
0
 10
31.338478
 20
80.449908
 42
0.066819
  0
VERTEX
  8
0
 10
32.627782
 20
85.490101
 42
0.000000
  0
VERTEX
  8
0
 10
33.275363
 20
91.000000
 42
0.000000
  0
VERTEX
  8
0
 10
29.637681
 20
91.000000
 42
-0.014256
  0
VERTEX
  8
0
 10
28.243107
 20
91.039769
 42
-0.023391
  0
VERTEX
  8
0
 10
27.068569
 20
91.162115
 42
-0.019865
  0
VERTEX
  8
0
 10
26.172132
 20
91.334788
 42
-0.348340
  0
VERTEX
  8
0
 10
26.000000
 20
91.551882
 42
-0.111638
  0
VERTEX
  8
0
 10
26.081651
 20
91.913021
 42
-0.005159
  0
VERTEX
  8
0
 10
26.638259
 20
93.050649
 42
-0.008347
  0
VERTEX
  8
0
 10
27.340378
 20
94.392598
 42
-0.005874
  0
VERTEX
  8
0
 10
28.172798
 20
95.879084
 42
-0.008985
  0
VERTEX
  8
0
 10
29.600400
 20
98.259605
 42
-0.140771
  0
VERTEX
  8
0
 10
30.298312
 20
98.887860
 42
-0.277687
  0
VERTEX
  8
0
 10
31.006799
 20
98.824989
 42
-0.038811
  0
VERTEX
  8
0
 10
32.172798
 20
97.827202
 42
0.098974
  0
VERTEX
  8
0
 10
34.233089
 20
96.453405
 42
0.103798
  0
VERTEX
  8
0
 10
36.627974
 20
96.007871
 42
0.128009
  0
VERTEX
  8
0
 10
38.637297
 20
96.580344
 42
0.198245
  0
VERTEX
  8
0
 10
39.710251
 20
98.000000
 42
-0.060903
  0
VERTEX
  8
0
 10
40.013407
 20
98.764694
 42
-0.065681
  0
VERTEX
  8
0
 10
40.485993
 20
99.412500
 42
-0.073972
  0
VERTEX
  8
0
 10
41.048695
 20
99.850737
 42
-0.129214
  0
VERTEX
  8
0
 10
41.616631
 20
100.000000
 42
0.204052
  0
VERTEX
  8
0
 10
42.227140
 20
100.259976
 42
0.108593
  0
VERTEX
  8
0
 10
42.663539
 20
100.972873
 42
0.061957
  0
VERTEX
  8
0
 10
42.922786
 20
102.193913
 42
0.021366
  0
VERTEX
  8
0
 10
43.000000
 20
104.000000
 42
0.015936
  0
VERTEX
  8
0
 10
42.924536
 20
106.367136
 42
0.132158
  0
VERTEX
  8
0
 10
42.582855
 20
107.376072
 42
0.202306
  0
VERTEX
  8
0
 10
41.847275
 20
107.860367
 42
0.045788
  0
VERTEX
  8
0
 10
40.325686
 20
108.000000
 42
0.000000
  0
VERTEX
  8
0
 10
37.651372
 20
108.000000
 42
0.000000
  0
VERTEX
  8
0
 10
40.000000
 20
110.500000
 42
-0.016001
  0
VERTEX
  8
0
 10
41.984689
 20
112.481553
 42
-0.217211
  0
VERTEX
  8
0
 10
42.930646
 20
112.800112
 42
-0.247083
  0
VERTEX
  8
0
 10
43.718432
 20
112.275596
 42
-0.020554
  0
VERTEX
  8
0
 10
44.839706
 20
110.000000
 42
0.110975
  0
VERTEX
  8
0
 10
46.293562
 20
108.038182
 42
0.124343
  0
VERTEX
  8
0
 10
48.391506
 20
106.986791
 42
0.158457
  0
VERTEX
  8
0
 10
50.376786
 20
107.180268
 42
0.200873
  0
VERTEX
  8
0
 10
51.638374
 20
108.500000
 42
-0.099570
  0
VERTEX
  8
0
 10
52.001888
 20
109.073558
 42
-0.066848
  0
VERTEX
  8
0
 10
52.610185
 20
109.559375
 42
-0.063724
  0
VERTEX
  8
0
 10
53.359678
 20
109.887933
 42
-0.071589
  0
VERTEX
  8
0
 10
54.138374
 20
110.000000
 42
0.150814
  0
VERTEX
  8
0
 10
55.691790
 20
110.479461
 42
0.166490
  0
VERTEX
  8
0
 10
56.631026
 20
111.735446
 42
0.108195
  0
VERTEX
  8
0
 10
56.830230
 20
113.791366
 42
0.044735
  0
VERTEX
  8
0
 10
56.248947
 20
116.540516
 42
0.000000
  0
VERTEX
  8
0
 10
55.216361
 20
119.904987
 42
0.000000
  0
VERTEX
  8
0
 10
60.358181
 20
120.951293
 42
-0.002356
  0
VERTEX
  8
0
 10
62.510111
 20
121.378640
 42
-0.002175
  0
VERTEX
  8
0
 10
64.723966
 20
121.797471
 42
-0.002170
  0
VERTEX
  8
0
 10
66.699251
 20
122.153417
 42
-0.007241
  0
VERTEX
  8
0
 10
68.000000
 20
122.362617
 42
0.000310
  0
VERTEX
  8
0
 10
69.021104
 20
122.512352
 42
0.000329
  0
VERTEX
  8
0
 10
70.021906
 20
122.660415
 42
0.000313
  0
VERTEX
  8
0
 10
70.883448
 20
122.789005
 42
0.001514
  0
VERTEX
  8
0
 10
71.372445
 20
122.863818
 42
-0.272706
  0
VERTEX
  8
0
 10
71.586331
 20
122.778978
 42
-0.229692
  0
VERTEX
  8
0
 10
71.637665
 20
122.537135
 42
-0.083330
  0
VERTEX
  8
0
 10
71.450688
 20
122.105368
 42
-0.029453
  0
SEQEND
  0
POLYLINE
  8
0
 66
1
 70
1
  0
VERTEX
  8
0
 10
70.729167
 20
21.395833
 42
-0.126455
  0
VERTEX
  8
0
 10
70.402231
 20
21.202593
 42
-0.060344
  0
VERTEX
  8
0
 10
69.916927
 20
21.123424
 42
-0.054150
  0
VERTEX
  8
0
 10
69.359369
 20
21.160852
 42
-0.051402
  0
VERTEX
  8
0
 10
68.812500
 20
21.316886
 42
-0.054073
  0
VERTEX
  8
0
 10
68.395823
 20
21.538436
 42
-0.470617
  0
VERTEX
  8
0
 10
68.378580
 20
21.720685
 42
-0.168741
  0
VERTEX
  8
0
 10
68.670344
 20
21.862007
 42
-0.018894
  0
VERTEX
  8
0
 10
69.416667
 20
21.921053
 42
-0.028489
  0
VERTEX
  8
0
 10
70.112848
 20
21.910055
 42
-0.077125
  0
VERTEX
  8
0
 10
70.592839
 20
21.799335
 42
-0.208169
  0
VERTEX
  8
0
 10
70.775380
 20
21.614691
 42
-0.296942
  0
SEQEND
  0
POLYLINE
  8
0
 66
1
 70
1
  0
VERTEX
  8
0
 10
63.500000
 20
110.062212
 42
-0.009390
  0
VERTEX
  8
0
 10
62.464056
 20
109.668997
 42
-0.003017
  0
VERTEX
  8
0
 10
60.912500
 20
109.123715
 42
-0.003008
  0
VERTEX
  8
0
 10
59.178097
 20
108.537553
 42
-0.003363
  0
VERTEX
  8
0
 10
57.500000
 20
107.994142
 42
0.033822
  0
VERTEX
  8
0
 10
53.962779
 20
106.605631
 42
0.040727
  0
VERTEX
  8
0
 10
50.869743
 20
104.821968
 42
0.044520
  0
VERTEX
  8
0
 10
48.638725
 20
102.967539
 42
0.199676
  0
VERTEX
  8
0
 10
48.000000
 20
101.431906
 42
-0.138463
  0
VERTEX
  8
0
 10
47.845831
 20
100.885865
 42
-0.100105
  0
VERTEX
  8
0
 10
47.412500
 20
100.420622
 42
-0.085774
  0
VERTEX
  8
0
 10
46.764378
 20
100.107365
 42
-0.069887
  0
VERTEX
  8
0
 10
46.000000
 20
100.000000
 42
0.040317
  0
VERTEX
  8
0
 10
45.234216
 20
99.938151
 42
0.059656
  0
VERTEX
  8
0
 10
44.587500
 20
99.751940
 42
0.078458
  0
VERTEX
  8
0
 10
44.147811
 20
99.478650
 42
0.217874
  0
VERTEX
  8
0
 10
44.000000
 20
99.155539
 42
-0.132697
  0
VERTEX
  8
0
 10
43.869802
 20
98.673595
 42
-0.015019
  0
VERTEX
  8
0
 10
43.265984
 20
97.705637
 42
-0.017345
  0
VERTEX
  8
0
 10
42.458154
 20
96.579952
 42
-0.013282
  0
VERTEX
  8
0
 10
41.501221
 20
95.405539
 42
0.032401
  0
VERTEX
  8
0
 10
40.544830
 20
94.135634
 42
0.030240
  0
VERTEX
  8
0
 10
39.736100
 20
92.723993
 42
0.031613
  0
VERTEX
  8
0
 10
39.173902
 20
91.381520
 42
0.083396
  0
VERTEX
  8
0
 10
39.001221
 20
90.356989
 42
-0.059396
  0
VERTEX
  8
0
 10
38.898351
 20
89.498228
 42
-0.059549
  0
VERTEX
  8
0
 10
38.596498
 20
88.688511
 42
-0.065350
  0
VERTEX
  8
0
 10
38.151327
 20
88.046524
 42
-0.117429
  0
VERTEX
  8
0
 10
37.625154
 20
87.686400
 42
0.193235
  0
VERTEX
  8
0
 10
36.609998
 20
86.744143
 42
0.042520
  0
VERTEX
  8
0
 10
35.765004
 20
84.470794
 42
0.029790
  0
VERTEX
  8
0
 10
35.016788
 20
80.982978
 42
0.010187
  0
VERTEX
  8
0
 10
34.338858
 20
75.852783
 42
0.000000
  0
VERTEX
  8
0
 10
33.820837
 20
71.205566
 42
0.000000
  0
VERTEX
  8
0
 10
40.643977
 20
71.352783
 42
0.000000
  0
VERTEX
  8
0
 10
47.467117
 20
71.500000
 42
0.000000
  0
VERTEX
  8
0
 10
48.073015
 20
75.230776
 42
-0.023174
  0
VERTEX
  8
0
 10
48.434246
 20
76.947964
 42
-0.012187
  0
VERTEX
  8
0
 10
49.032982
 20
79.045514
 42
-0.012099
  0
VERTEX
  8
0
 10
49.752171
 20
81.168563
 42
-0.018206
  0
VERTEX
  8
0
 10
50.490150
 20
82.978157
 42
-0.015134
  0
VERTEX
  8
0
 10
51.479050
 20
85.005119
 42
-0.086402
  0
VERTEX
  8
0
 10
52.207465
 20
85.950406
 42
-0.209713
  0
VERTEX
  8
0
 10
52.894795
 20
86.184641
 42
-0.153114
  0
VERTEX
  8
0
 10
53.650693
 20
85.874936
 42
-0.068445
  0
VERTEX
  8
0
 10
54.167321
 20
85.310716
 42
-0.044562
  0
VERTEX
  8
0
 10
54.603641
 20
84.540926
 42
-0.044204
  0
VERTEX
  8
0
 10
54.900767
 20
83.696230
 42
-0.062553
  0
VERTEX
  8
0
 10
55.000000
 20
82.906147
 42
0.119999
  0
VERTEX
  8
0
 10
55.210446
 20
82.041909
 42
0.100519
  0
VERTEX
  8
0
 10
55.803861
 20
81.305191
 42
0.074302
  0
VERTEX
  8
0
 10
56.810399
 20
80.696323
 42
0.035254
  0
VERTEX
  8
0
 10
58.250000
 20
80.210909
 42
-0.027661
  0
VERTEX
  8
0
 10
60.017522
 20
79.644637
 42
-0.131924
  0
VERTEX
  8
0
 10
60.868106
 20
79.027475
 42
-0.157099
  0
VERTEX
  8
0
 10
61.215894
 20
78.128474
 42
-0.044301
  0
VERTEX
  8
0
 10
61.168624
 20
76.607449
 42
0.029064
  0
VERTEX
  8
0
 10
61.068354
 20
74.979119
 42
0.227011
  0
VERTEX
  8
0
 10
61.385225
 20
74.311365
 42
0.179160
  0
VERTEX
  8
0
 10
62.158628
 20
74.049290
 42
0.017344
  0
VERTEX
  8
0
 10
64.168624
 20
74.175132
 42
-0.023378
  0
VERTEX
  8
0
 10
66.124232
 20
74.273903
 42
-0.160618
  0
VERTEX
  8
0
 10
67.027583
 20
73.979748
 42
-0.179599
  0
VERTEX
  8
0
 10
67.524776
 20
73.224294
 42
-0.030751
  0
VERTEX
  8
0
 10
67.812217
 20
71.500000
 42
0.077455
  0
VERTEX
  8
0
 10
68.439667
 20
69.125121
 42
0.113050
  0
VERTEX
  8
0
 10
69.723682
 20
67.393505
 42
0.109039
  0
VERTEX
  8
0
 10
71.672229
 20
66.353207
 42
0.068398
  0
VERTEX
  8
0
 10
74.242156
 20
66.000000
 42
0.055455
  0
VERTEX
  8
0
 10
75.766815
 20
66.169621
 42
0.116197
  0
VERTEX
  8
0
 10
76.833370
 20
66.688710
 42
0.094410
  0
VERTEX
  8
0
 10
77.690970
 20
67.710558
 42
0.028554
  0
VERTEX
  8
0
 10
78.581028
 20
69.539685
 42
-0.021577
  0
VERTEX
  8
0
 10
79.562128
 20
71.629488
 42
-0.141018
  0
VERTEX
  8
0
 10
80.354537
 20
72.459440
 42
-0.152899
  0
VERTEX
  8
0
 10
81.434802
 20
72.706571
 42
-0.026731
  0
VERTEX
  8
0
 10
83.530001
 20
72.428394
 42
0.017149
  0
VERTEX
  8
0
 10
85.333313
 20
72.153728
 42
0.095323
  0
VERTEX
  8
0
 10
86.305723
 20
72.225052
 42
0.204289
  0
VERTEX
  8
0
 10
86.809905
 20
72.621481
 42
0.126022
  0
VERTEX
  8
0
 10
87.000000
 20
73.363716
 42
-0.254291
  0
VERTEX
  8
0
 10
87.811267
 20
74.855722
 42
-0.025777
  0
VERTEX
  8
0
 10
91.430838
 20
76.943560
 42
-0.026226
  0
VERTEX
  8
0
 10
95.253329
 20
78.646994
 42
-0.234236
  0
VERTEX
  8
0
 10
97.031691
 20
78.480414
 42
-0.194640
  0
VERTEX
  8
0
 10
97.410296
 20
77.964136
 42
-0.021439
  0
VERTEX
  8
0
 10
97.715559
 20
76.498942
 42
-0.023646
  0
VERTEX
  8
0
 10
97.929416
 20
74.651577
 42
-0.016993
  0
VERTEX
  8
0
 10
98.000000
 20
72.575350
 42
0.000000
  0
VERTEX
  8
0
 10
98.000000
 20
67.268735
 42
0.000000
  0
VERTEX
  8
0
 10
105.250000
 20
66.739197
 42
0.002990
  0
VERTEX
  8
0
 10
108.046322
 20
66.551757
 42
0.004762
  0
VERTEX
  8
0
 10
110.439965
 20
66.428549
 42
0.001250
  0
VERTEX
  8
0
 10
112.521602
 20
66.346482
 42
0.196174
  0
VERTEX
  8
0
 10
112.737116
 20
66.425279
 42
0.251427
  0
VERTEX
  8
0
 10
113.093393
 20
67.431815
 42
0.002364
  0
VERTEX
  8
0
 10
111.825220
 20
75.434127
 42
0.002030
  0
VERTEX
  8
0
 10
110.476573
 20
83.485903
 42
0.365250
  0
VERTEX
  8
0
 10
109.866699
 20
84.000000
 42
-0.168901
  0
VERTEX
  8
0
 10
109.536042
 20
84.114977
 42
-0.094675
  0
VERTEX
  8
0
 10
109.254593
 20
84.440625
 42
-0.075347
  0
VERTEX
  8
0
 10
109.064276
 20
84.926221
 42
-0.055837
  0
VERTEX
  8
0
 10
109.000000
 20
85.500000
 42
0.085307
  0
VERTEX
  8
0
 10
108.901556
 20
86.072802
 42
0.093618
  0
VERTEX
  8
0
 10
108.618360
 20
86.559375
 42
0.100383
  0
VERTEX
  8
0
 10
108.196382
 20
86.884794
 42
0.114704
  0
VERTEX
  8
0
 10
107.700801
 20
87.000000
 42
-0.203909
  0
VERTEX
  8
0
 10
107.154554
 20
87.232434
 42
-0.129980
  0
VERTEX
  8
0
 10
106.813849
 20
87.844865
 42
-0.069314
  0
VERTEX
  8
0
 10
106.695539
 20
88.908644
 42
-0.022147
  0
VERTEX
  8
0
 10
106.810207
 20
90.500000
 42
0.020409
  0
VERTEX
  8
0
 10
106.939487
 20
92.211196
 42
0.084481
  0
VERTEX
  8
0
 10
106.801487
 20
93.235110
 42
0.167113
  0
VERTEX
  8
0
 10
106.394991
 20
93.788322
 42
0.152653
  0
VERTEX
  8
0
 10
105.717814
 20
94.000000
 42
-0.145761
  0
VERTEX
  8
0
 10
105.097124
 20
94.184873
 42
-0.071756
  0
VERTEX
  8
0
 10
104.473418
 20
94.734375
 42
-0.061751
  0
VERTEX
  8
0
 10
103.940835
 20
95.543819
 42
-0.053226
  0
VERTEX
  8
0
 10
103.589356
 20
96.500000
 42
0.101845
  0
VERTEX
  8
0
 10
102.730339
 20
98.283334
 42
0.253917
  0
VERTEX
  8
0
 10
101.451916
 20
98.856681
 42
0.140270
  0
VERTEX
  8
0
 10
99.633772
 20
98.183811
 42
0.029554
  0
VERTEX
  8
0
 10
97.000000
 20
96.000000
 42
-0.044236
  0
VERTEX
  8
0
 10
94.434462
 20
93.996737
 42
-0.099576
  0
VERTEX
  8
0
 10
92.148866
 20
93.094337
 42
-0.209294
  0
VERTEX
  8
0
 10
90.664565
 20
93.449865
 42
-0.239973
  0
VERTEX
  8
0
 10
90.033269
 20
94.750000
 42
-0.119159
  0
VERTEX
  8
0
 10
90.487751
 20
96.484896
 42
-0.042331
  0
VERTEX
  8
0
 10
91.898431
 20
98.647395
 42
-0.040807
  0
VERTEX
  8
0
 10
93.589494
 20
100.483883
 42
-0.188442
  0
VERTEX
  8
0
 10
94.910293
 20
101.000000
 42
0.283581
  0
VERTEX
  8
0
 10
95.746951
 20
101.516019
 42
0.153134
  0
VERTEX
  8
0
 10
95.948844
 20
102.754603
 42
0.099615
  0
VERTEX
  8
0
 10
95.386821
 20
104.338881
 42
0.095795
  0
VERTEX
  8
0
 10
94.250000
 20
105.607954
 42
0.075004
  0
VERTEX
  8
0
 10
92.219073
 20
106.716342
 42
0.186212
  0
VERTEX
  8
0
 10
90.553340
 20
106.685764
 42
0.144938
  0
VERTEX
  8
0
 10
89.058583
 20
105.490713
 42
0.040407
  0
VERTEX
  8
0
 10
87.533430
 20
102.874036
 42
-0.019075
  0
VERTEX
  8
0
 10
86.686395
 20
101.267075
 42
-0.023082
  0
VERTEX
  8
0
 10
85.767532
 20
99.831609
 42
-0.022554
  0
VERTEX
  8
0
 10
84.899012
 20
98.714031
 42
-0.125310
  0
VERTEX
  8
0
 10
84.283430
 20
98.278521
 42
0.274585
  0
VERTEX
  8
0
 10
83.156885
 20
96.851968
 42
0.176348
  0
VERTEX
  8
0
 10
83.623317
 20
94.732732
 42
0.117737
  0
VERTEX
  8
0
 10
85.640295
 20
92.774372
 42
0.130251
  0
VERTEX
  8
0
 10
88.250000
 20
92.031803
 42
-0.083563
  0
VERTEX
  8
0
 10
88.918342
 20
91.906792
 42
-0.091406
  0
VERTEX
  8
0
 10
89.485938
 20
91.571206
 42
-0.098551
  0
VERTEX
  8
0
 10
89.865721
 20
91.079903
 42
-0.115915
  0
VERTEX
  8
0
 10
90.000000
 20
90.508474
 42
0.107418
  0
VERTEX
  8
0
 10
90.143819
 20
89.846761
 42
0.050645
  0
VERTEX
  8
0
 10
90.587500
 20
89.088184
 42
0.046919
  0
VERTEX
  8
0
 10
91.234913
 20
88.356259
 42
0.048682
  0
VERTEX
  8
0
 10
92.000000
 20
87.767927
 42
-0.040631
  0
VERTEX
  8
0
 10
92.765224
 20
87.198820
 42
-0.043027
  0
VERTEX
  8
0
 10
93.412500
 20
86.523385
 42
-0.047119
  0
VERTEX
  8
0
 10
93.859660
 20
85.846711
 42
-0.123059
  0
VERTEX
  8
0
 10
94.000000
 20
85.285133
 42
-0.237747
  0
VERTEX
  8
0
 10
93.347783
 20
83.991000
 42
-0.042481
  0
VERTEX
  8
0
 10
90.972746
 20
82.527550
 42
-0.044022
  0
VERTEX
  8
0
 10
88.091818
 20
81.379099
 42
-0.072965
  0
VERTEX
  8
0
 10
85.507846
 20
81.000000
 42
0.061553
  0
VERTEX
  8
0
 10
84.363084
 20
80.858537
 42
0.037112
  0
VERTEX
  8
0
 10
83.063290
 20
80.427666
 42
0.036682
  0
VERTEX
  8
0
 10
81.815619
 20
79.797635
 42
0.052318
  0
VERTEX
  8
0
 10
80.825042
 20
79.051629
 42
-0.050753
  0
VERTEX
  8
0
 10
79.678833
 20
78.182797
 42
-0.070661
  0
VERTEX
  8
0
 10
78.497644
 20
77.674887
 42
-0.067380
  0
VERTEX
  8
0
 10
77.178912
 20
77.501871
 42
-0.041489
  0
VERTEX
  8
0
 10
75.616856
 20
77.638163
 42
-0.010052
  0
VERTEX
  8
0
 10
72.351169
 20
78.266441
 42
-0.079227
  0
VERTEX
  8
0
 10
70.916426
 20
78.820110
 42
-0.171170
  0
VERTEX
  8
0
 10
70.238061
 20
79.616842
 42
-0.091825
  0
VERTEX
  8
0
 10
70.000000
 20
80.902193
 42
0.090014
  0
VERTEX
  8
0
 10
69.833850
 20
81.817621
 42
0.130529
  0
VERTEX
  8
0
 10
69.359862
 20
82.483413
 42
0.102907
  0
VERTEX
  8
0
 10
68.521340
 20
82.927913
 42
0.041971
  0
VERTEX
  8
0
 10
67.250000
 20
83.183578
 42
-0.046923
  0
VERTEX
  8
0
 10
65.867034
 20
83.475942
 42
-0.121321
  0
VERTEX
  8
0
 10
65.000275
 20
83.999725
 42
-0.121403
  0
VERTEX
  8
0
 10
64.476209
 20
84.865859
 42
-0.047019
  0
VERTEX
  8
0
 10
64.183813
 20
86.247560
 42
0.071862
  0
VERTEX
  8
0
 10
63.741605
 20
87.922988
 42
0.158866
  0
VERTEX
  8
0
 10
62.882846
 20
88.908798
 42
0.083686
  0
VERTEX
  8
0
 10
61.217819
 20
89.558600
 42
0.011190
  0
VERTEX
  8
0
 10
57.500000
 20
90.245593
 42
-0.332610
  0
VERTEX
  8
0
 10
57.131760
 20
90.626679
 42
-0.257661
  0
VERTEX
  8
0
 10
57.351930
 20
91.180657
 42
-0.048677
  0
VERTEX
  8
0
 10
58.731848
 20
92.106337
 42
-0.008641
  0
VERTEX
  8
0
 10
61.500000
 20
93.534527
 42
-0.018712
  0
VERTEX
  8
0
 10
64.904249
 20
95.061362
 42
-0.040365
  0
VERTEX
  8
0
 10
67.643206
 20
95.919156
 42
-0.040181
  0
VERTEX
  8
0
 10
70.492210
 20
96.327913
 42
-0.018382
  0
VERTEX
  8
0
 10
74.250000
 20
96.423462
 42
0.000000
  0
VERTEX
  8
0
 10
81.000000
 20
96.346924
 42
0.000000
  0
VERTEX
  8
0
 10
81.000000
 20
101.173462
 42
-0.019514
  0
VERTEX
  8
0
 10
81.072229
 20
103.023479
 42
-0.031574
  0
VERTEX
  8
0
 10
81.293750
 20
104.582204
 42
-0.033231
  0
VERTEX
  8
0
 10
81.610626
 20
105.723893
 42
-0.318570
  0
VERTEX
  8
0
 10
82.000000
 20
106.000000
 42
0.311326
  0
VERTEX
  8
0
 10
82.802735
 20
106.553469
 42
0.124438
  0
VERTEX
  8
0
 10
82.965277
 20
107.949203
 42
0.096830
  0
VERTEX
  8
0
 10
82.437285
 20
109.517604
 42
0.173357
  0
VERTEX
  8
0
 10
81.418213
 20
110.393011
 42
0.087087
  0
VERTEX
  8
0
 10
78.772651
 20
110.909137
 42
0.009349
  0
VERTEX
  8
0
 10
72.502194
 20
110.910627
 42
0.009653
  0
VERTEX
  8
0
 10
66.245826
 20
110.674245
 42
0.081299
  0
SEQEND
  0
POLYLINE
  8
0
 66
1
 70
1
  0
VERTEX
  8
0
 10
65.664167
 20
104.432783
 42
-0.078522
  0
VERTEX
  8
0
 10
65.809667
 20
103.749087
 42
-0.061901
  0
VERTEX
  8
0
 10
65.756150
 20
102.993180
 42
-0.062620
  0
VERTEX
  8
0
 10
65.521164
 20
102.282667
 42
-0.085436
  0
VERTEX
  8
0
 10
65.132783
 20
101.732783
 42
-0.022750
  0
VERTEX
  8
0
 10
64.581853
 20
101.229831
 42
-0.172056
  0
VERTEX
  8
0
 10
64.256515
 20
101.109730
 42
-0.341337
  0
VERTEX
  8
0
 10
64.062311
 20
101.255842
 42
-0.067079
  0
VERTEX
  8
0
 10
64.000000
 20
101.718213
 42
0.038908
  0
VERTEX
  8
0
 10
63.957953
 20
102.257735
 42
0.016397
  0
VERTEX
  8
0
 10
63.821697
 20
102.972600
 42
0.016106
  0
VERTEX
  8
0
 10
63.625428
 20
103.730670
 42
0.020216
  0
VERTEX
  8
0
 10
63.393011
 20
104.418213
 42
-0.062998
  0
VERTEX
  8
0
 10
63.244335
 20
105.024240
 42
-0.110153
  0
VERTEX
  8
0
 10
63.298090
 20
105.535923
 42
-0.151794
  0
VERTEX
  8
0
 10
63.540748
 20
105.871984
 42
-0.162438
  0
VERTEX
  8
0
 10
63.924396
 20
106.000000
 42
-0.118752
  0
VERTEX
  8
0
 10
64.404393
 20
105.884368
 42
-0.065210
  0
VERTEX
  8
0
 10
64.905033
 20
105.539630
 42
-0.059258
  0
VERTEX
  8
0
 10
65.349425
 20
105.032082
 42
-0.058659
  0
SEQEND
  0
POLYLINE
  8
0
 66
1
 70
1
  0
VERTEX
  8
0
 10
52.250000
 20
97.607954
 42
-0.052702
  0
VERTEX
  8
0
 10
52.919550
 20
96.978411
 42
-0.044568
  0
VERTEX
  8
0
 10
53.485937
 20
96.188065
 42
-0.046630
  0
VERTEX
  8
0
 10
53.873250
 20
95.364363
 42
-0.086802
  0
VERTEX
  8
0
 10
54.000000
 20
94.639757
 42
-0.040879
  0
VERTEX
  8
0
 10
53.905254
 20
93.482842
 42
-0.310225
  0
VERTEX
  8
0
 10
53.545922
 20
93.108581
 42
-0.135245
  0
VERTEX
  8
0
 10
52.817022
 20
93.155830
 42
-0.007433
  0
VERTEX
  8
0
 10
50.644366
 20
93.945112
 42
-0.042693
  0
VERTEX
  8
0
 10
49.481132
 20
94.505090
 42
-0.115710
  0
VERTEX
  8
0
 10
48.824498
 20
95.134692
 42
-0.137415
  0
VERTEX
  8
0
 10
48.579435
 20
95.918860
 42
-0.071511
  0
VERTEX
  8
0
 10
48.695898
 20
96.945112
 42
-0.041910
  0
VERTEX
  8
0
 10
49.201110
 20
98.375382
 42
-0.245537
  0
VERTEX
  8
0
 10
49.807890
 20
98.852099
 42
-0.186511
  0
VERTEX
  8
0
 10
50.670975
 20
98.691115
 42
-0.024034
  0
SEQEND
  0
POLYLINE
  8
0
 66
1
 70
1
  0
VERTEX
  8
0
 10
45.803810
 20
86.803584
 42
-0.045928
  0
VERTEX
  8
0
 10
45.837079
 20
85.578618
 42
-0.111670
  0
VERTEX
  8
0
 10
45.582617
 20
84.716651
 42
-0.129446
  0
VERTEX
  8
0
 10
45.012727
 20
84.125321
 42
-0.072783
  0
VERTEX
  8
0
 10
44.088597
 20
83.733420
 42
-0.180579
  0
VERTEX
  8
0
 10
42.534485
 20
83.891752
 42
-0.184100
  0
VERTEX
  8
0
 10
41.479778
 20
85.028824
 42
-0.152465
  0
VERTEX
  8
0
 10
41.338077
 20
86.771916
 42
-0.126331
  0
VERTEX
  8
0
 10
42.189703
 20
88.436837
 42
-0.081357
  0
VERTEX
  8
0
 10
43.453958
 20
89.468204
 42
-0.241111
  0
VERTEX
  8
0
 10
44.539232
 20
89.521152
 42
-0.200627
  0
VERTEX
  8
0
 10
45.360998
 20
88.639679
 42
-0.058922
  0
SEQEND
  0
POLYLINE
  8
0
 66
1
 70
1
  0
VERTEX
  8
0
 10
42.714785
 20
69.381452
 42
-0.150845
  0
VERTEX
  8
0
 10
42.261896
 20
69.142228
 42
-0.016636
  0
VERTEX
  8
0
 10
41.088801
 20
68.961014
 42
-0.019102
  0
VERTEX
  8
0
 10
39.643638
 20
68.842543
 42
-0.014350
  0
VERTEX
  8
0
 10
38.048119
 20
68.818772
 42
0.101265
  0
VERTEX
  8
0
 10
35.114647
 20
68.260565
 42
0.296512
  0
VERTEX
  8
0
 10
33.998673
 20
66.644674
 42
0.084597
  0
VERTEX
  8
0
 10
34.491916
 20
63.167066
 42
0.005873
  0
VERTEX
  8
0
 10
37.627620
 20
53.750000
 42
0.065516
  0
VERTEX
  8
0
 10
37.962460
 20
53.080949
 42
0.063678
  0
VERTEX
  8
0
 10
38.461720
 20
52.514063
 42
0.068931
  0
VERTEX
  8
0
 10
39.042537
 20
52.130270
 42
0.112033
  0
VERTEX
  8
0
 10
39.616631
 20
52.000000
 42
-0.143115
  0
VERTEX
  8
0
 10
40.144167
 20
51.845846
 42
-0.099595
  0
VERTEX
  8
0
 10
40.593635
 20
51.412500
 42
-0.084175
  0
VERTEX
  8
0
 10
40.896468
 20
50.764490
 42
-0.067406
  0
VERTEX
  8
0
 10
41.000000
 20
50.000000
 42
0.071833
  0
VERTEX
  8
0
 10
41.123084
 20
49.147682
 42
0.117109
  0
VERTEX
  8
0
 10
41.484375
 20
48.516667
 42
0.122356
  0
VERTEX
  8
0
 10
42.077409
 20
48.133074
 42
0.082850
  0
VERTEX
  8
0
 10
42.875000
 20
48.000000
 42
-0.109085
  0
VERTEX
  8
0
 10
43.742929
 20
47.808364
 42
-0.112059
  0
VERTEX
  8
0
 10
44.439750
 20
47.270000
 42
-0.084595
  0
VERTEX
  8
0
 10
44.970950
 20
46.344416
 42
-0.038727
  0
VERTEX
  8
0
 10
45.350000
 20
45.000000
 42
0.041865
  0
VERTEX
  8
0
 10
45.696501
 20
43.799874
 42
0.062968
  0
VERTEX
  8
0
 10
46.209051
 20
42.840164
 42
0.080034
  0
VERTEX
  8
0
 10
46.823464
 20
42.214122
 42
0.160109
  0
VERTEX
  8
0
 10
47.475000
 20
42.000000
 42
-0.063739
  0
VERTEX
  8
0
 10
48.058054
 20
41.925370
 42
-0.081627
  0
VERTEX
  8
0
 10
48.552031
 20
41.706250
 42
-0.098527
  0
VERTEX
  8
0
 10
48.882541
 20
41.381363
 42
-0.150510
  0
VERTEX
  8
0
 10
49.000000
 20
41.000000
 42
0.148195
  0
VERTEX
  8
0
 10
49.115568
 20
40.618646
 42
0.098894
  0
VERTEX
  8
0
 10
49.440625
 20
40.293750
 42
0.082425
  0
VERTEX
  8
0
 10
49.926543
 20
40.074694
 42
0.064853
  0
VERTEX
  8
0
 10
50.500000
 20
40.000000
 42
-0.064853
  0
VERTEX
  8
0
 10
51.073457
 20
39.925306
 42
-0.082425
  0
VERTEX
  8
0
 10
51.559375
 20
39.706250
 42
-0.098894
  0
VERTEX
  8
0
 10
51.884432
 20
39.381354
 42
-0.148195
  0
VERTEX
  8
0
 10
52.000000
 20
39.000000
 42
0.191087
  0
VERTEX
  8
0
 10
52.151477
 20
38.618118
 42
0.088204
  0
VERTEX
  8
0
 10
52.587500
 20
38.293750
 42
0.068025
  0
VERTEX
  8
0
 10
53.234582
 20
38.073693
 42
0.048028
  0
VERTEX
  8
0
 10
54.000000
 20
38.000000
 42
-0.048028
  0
VERTEX
  8
0
 10
54.765418
 20
37.926307
 42
-0.068025
  0
VERTEX
  8
0
 10
55.412500
 20
37.706250
 42
-0.088204
  0
VERTEX
  8
0
 10
55.848523
 20
37.381882
 42
-0.191087
  0
VERTEX
  8
0
 10
56.000000
 20
37.000000
 42
0.148195
  0
VERTEX
  8
0
 10
56.115568
 20
36.618646
 42
0.098894
  0
VERTEX
  8
0
 10
56.440625
 20
36.293750
 42
0.082425
  0
VERTEX
  8
0
 10
56.926543
 20
36.074694
 42
0.064853
  0
VERTEX
  8
0
 10
57.500000
 20
36.000000
 42
-0.064853
  0
VERTEX
  8
0
 10
58.073457
 20
35.925306
 42
-0.082425
  0
VERTEX
  8
0
 10
58.559375
 20
35.706250
 42
-0.098894
  0
VERTEX
  8
0
 10
58.884432
 20
35.381354
 42
-0.148195
  0
VERTEX
  8
0
 10
59.000000
 20
35.000000
 42
0.182338
  0
VERTEX
  8
0
 10
59.143988
 20
34.618288
 42
0.090960
  0
VERTEX
  8
0
 10
59.555358
 20
34.293750
 42
0.070872
  0
VERTEX
  8
0
 10
60.167171
 20
34.073867
 42
0.050922
  0
VERTEX
  8
0
 10
60.890580
 20
34.000000
 42
0.170064
  0
VERTEX
  8
0
 10
61.890759
 20
34.350322
 42
0.160346
  0
VERTEX
  8
0
 10
62.483273
 20
35.256667
 42
0.055164
  0
VERTEX
  8
0
 10
62.773347
 20
37.165649
 42
0.006388
  0
VERTEX
  8
0
 10
62.893900
 20
41.500000
 42
0.010436
  0
VERTEX
  8
0
 10
62.875359
 20
44.674037
 42
0.024995
  0
VERTEX
  8
0
 10
62.695046
 20
47.020577
 42
0.027699
  0
VERTEX
  8
0
 10
62.397033
 20
48.639401
 42
0.346261
  0
VERTEX
  8
0
 10
61.938759
 20
49.000000
 42
-0.151286
  0
VERTEX
  8
0
 10
61.376895
 20
49.173987
 42
-0.023808
  0
VERTEX
  8
0
 10
60.443046
 20
49.881250
 42
-0.024608
  0
VERTEX
  8
0
 10
59.391305
 20
50.851292
 42
-0.019271
  0
VERTEX
  8
0
 10
58.346546
 20
52.000000
 42
0.038338
  0
VERTEX
  8
0
 10
57.211685
 20
53.156063
 42
0.038339
  0
VERTEX
  8
0
 10
55.913637
 20
54.125294
 42
0.041171
  0
VERTEX
  8
0
 10
54.642779
 20
54.790861
 42
0.100371
  0
VERTEX
  8
0
 10
53.611440
 20
55.000000
 42
-0.141106
  0
VERTEX
  8
0
 10
52.361431
 20
55.359933
 42
-0.120022
  0
VERTEX
  8
0
 10
51.401429
 20
56.347641
 42
-0.053160
  0
VERTEX
  8
0
 10
50.488785
 20
58.358523
 42
-0.008425
  0
VERTEX
  8
0
 10
49.194131
 20
62.500000
 42
0.009920
  0
VERTEX
  8
0
 10
48.007145
 20
66.257582
 42
0.041933
  0
VERTEX
  8
0
 10
47.067427
 20
68.421888
 42
0.080125
  0
VERTEX
  8
0
 10
46.165585
 20
69.599979
 42
0.191680
  0
VERTEX
  8
0
 10
45.160464
 20
70.000000
 42
0.030580
  0
VERTEX
  8
0
 10
44.415624
 20
69.954403
 42
0.031370
  0
VERTEX
  8
0
 10
43.688354
 20
69.818302
 42
0.033041
  0
VERTEX
  8
0
 10
43.076398
 20
69.619723
 42
0.101740
  0
SEQEND
  0
POLYLINE
  8
0
 66
1
 70
1
  0
VERTEX
  8
0
 10
51.000000
 20
53.655539
 42
-0.161235
  0
VERTEX
  8
0
 10
50.925739
 20
53.431238
 42
-0.004005
  0
VERTEX
  8
0
 10
50.265984
 20
52.558762
 42
-0.008235
  0
VERTEX
  8
0
 10
49.458798
 20
51.543945
 42
-0.005468
  0
VERTEX
  8
0
 10
48.501221
 20
50.405539
 42
-0.014987
  0
VERTEX
  8
0
 10
47.540935
 20
49.354368
 42
-0.033313
  0
VERTEX
  8
0
 10
46.736100
 20
48.628320
 42
-0.064770
  0
VERTEX
  8
0
 10
46.197437
 20
48.306878
 42
-0.539231
  0
VERTEX
  8
0
 10
46.001221
 20
48.435549
 42
-0.126382
  0
VERTEX
  8
0
 10
46.128988
 20
48.935663
 42
-0.021957
  0
VERTEX
  8
0
 10
46.639064
 20
49.776150
 42
-0.022637
  0
VERTEX
  8
0
 10
47.341948
 20
50.730844
 42
-0.018573
  0
VERTEX
  8
0
 10
48.174314
 20
51.685549
 42
-0.008105
  0
VERTEX
  8
0
 10
49.545350
 20
53.098344
 42
-0.043869
  0
VERTEX
  8
0
 10
50.364398
 20
53.783343
 42
-0.182436
  0
VERTEX
  8
0
 10
50.789737
 20
53.891009
 42
-0.381496
  0
SEQEND
  0
POLYLINE
  8
0
 66
1
 70
1
  0
VERTEX
  8
0
 10
97.000000
 20
63.583333
 42
-0.028936
  0
VERTEX
  8
0
 10
96.944995
 20
62.633662
 42
-0.037653
  0
VERTEX
  8
0
 10
96.779687
 20
61.778646
 42
-0.041405
  0
VERTEX
  8
0
 10
96.539674
 20
61.119108
 42
-0.182175
  0
VERTEX
  8
0
 10
96.250000
 20
60.833333
 42
0.101079
  0
VERTEX
  8
0
 10
95.827674
 20
60.532024
 42
0.008212
  0
VERTEX
  8
0
 10
94.912500
 20
59.515954
 42
0.010782
  0
VERTEX
  8
0
 10
93.857986
 20
58.251762
 42
0.008080
  0
VERTEX
  8
0
 10
92.750000
 20
56.816722
 42
0.030193
  0
VERTEX
  8
0
 10
91.023761
 20
54.187464
 42
0.069265
  0
VERTEX
  8
0
 10
90.141929
 20
51.994230
 42
0.147873
  0
VERTEX
  8
0
 10
90.211546
 20
50.592881
 42
0.316897
  0
VERTEX
  8
0
 10
91.053054
 20
50.000000
 42
-0.108357
  0
VERTEX
  8
0
 10
91.660901
 20
49.866706
 42
-0.013573
  0
VERTEX
  8
0
 10
92.877503
 20
49.265625
 42
-0.015454
  0
VERTEX
  8
0
 10
94.299338
 20
48.457307
 42
-0.012251
  0
VERTEX
  8
0
 10
95.785188
 20
47.500000
 42
0.033812
  0
VERTEX
  8
0
 10
98.437967
 20
45.948366
 42
0.062539
  0
VERTEX
  8
0
 10
100.790794
 20
45.124714
 42
0.114502
  0
VERTEX
  8
0
 10
102.376371
 20
45.150388
 42
0.344368
  0
VERTEX
  8
0
 10
103.000000
 20
45.948478
 42
-0.132072
  0
VERTEX
  8
0
 10
103.140024
 20
46.469338
 42
-0.018953
  0
VERTEX
  8
0
 10
103.734375
 20
47.410744
 42
-0.020427
  0
VERTEX
  8
0
 10
104.542731
 20
48.492160
 42
-0.016167
  0
VERTEX
  8
0
 10
105.500000
 20
49.594501
 42
0.022835
  0
VERTEX
  8
0
 10
106.456948
 20
50.726609
 42
0.025811
  0
VERTEX
  8
0
 10
107.265625
 20
51.897373
 42
0.026299
  0
VERTEX
  8
0
 10
107.841888
 20
52.951519
 42
0.112393
  0
VERTEX
  8
0
 10
108.000000
 20
53.646023
 42
-0.072203
  0
VERTEX
  8
0
 10
108.075108
 20
54.163428
 42
-0.087177
  0
VERTEX
  8
0
 10
108.293750
 20
54.602269
 42
-0.100442
  0
VERTEX
  8
0
 10
108.618657
 20
54.895644
 42
-0.134357
  0
VERTEX
  8
0
 10
109.000000
 20
55.000000
 42
0.210124
  0
VERTEX
  8
0
 10
109.382374
 20
55.168115
 42
0.081453
  0
VERTEX
  8
0
 10
109.706250
 20
55.662667
 42
0.062024
  0
VERTEX
  8
0
 10
109.926640
 20
56.392236
 42
0.042395
  0
VERTEX
  8
0
 10
110.000000
 20
57.255889
 42
0.083839
  0
VERTEX
  8
0
 10
109.820005
 20
58.321799
 42
0.085756
  0
VERTEX
  8
0
 10
109.300405
 20
59.260239
 42
0.074297
  0
VERTEX
  8
0
 10
108.423542
 20
60.070129
 42
0.045199
  0
VERTEX
  8
0
 10
107.187841
 20
60.756560
 42
-0.025100
  0
VERTEX
  8
0
 10
105.954980
 20
61.378025
 42
-0.015573
  0
VERTEX
  8
0
 10
104.571358
 20
62.222990
 42
-0.015614
  0
VERTEX
  8
0
 10
103.254421
 20
63.144625
 42
-0.027053
  0
VERTEX
  8
0
 10
102.229654
 20
64.000671
 42
0.051451
  0
VERTEX
  8
0
 10
100.181037
 20
65.549048
 42
0.157287
  0
VERTEX
  8
0
 10
98.506637
 20
65.945310
 42
0.254157
  0
VERTEX
  8
0
 10
97.418191
 20
65.236219
 42
0.124541
  0
SEQEND
  0
POLYLINE
  8
0
 66
1
 70
1
  0
VERTEX
  8
0
 10
84.612944
 20
48.182747
 42
0.116463
  0
VERTEX
  8
0
 10
84.417089
 20
47.595071
 42
0.007563
  0
VERTEX
  8
0
 10
84.281975
 20
45.789380
 42
0.010686
  0
VERTEX
  8
0
 10
84.198726
 20
43.610611
 42
0.007750
  0
VERTEX
  8
0
 10
84.195518
 20
41.182747
 42
0.009011
  0
VERTEX
  8
0
 10
84.305067
 20
37.781712
 42
0.061120
  0
VERTEX
  8
0
 10
84.593002
 20
36.127236
 42
0.155867
  0
VERTEX
  8
0
 10
85.154774
 20
35.312476
 42
0.165977
  0
VERTEX
  8
0
 10
86.070163
 20
35.000000
 42
0.061866
  0
VERTEX
  8
0
 10
86.851692
 20
35.097072
 42
0.039111
  0
VERTEX
  8
0
 10
87.723296
 20
35.391079
 42
0.038850
  0
VERTEX
  8
0
 10
88.547839
 20
35.821575
 42
0.056702
  0
VERTEX
  8
0
 10
89.188474
 20
36.331331
 42
-0.056604
  0
VERTEX
  8
0
 10
89.891495
 20
36.890953
 42
-0.024719
  0
VERTEX
  8
0
 10
90.933631
 20
37.473602
 42
-0.024080
  0
VERTEX
  8
0
 10
92.113200
 20
37.989393
 42
-0.029549
  0
VERTEX
  8
0
 10
93.259903
 20
38.350383
 42
0.115461
  0
VERTEX
  8
0
 10
95.274507
 20
39.388499
 42
0.254919
  0
VERTEX
  8
0
 10
95.874581
 20
40.954753
 42
0.144520
  0
VERTEX
  8
0
 10
94.929739
 20
43.068341
 42
0.037188
  0
VERTEX
  8
0
 10
92.267424
 20
45.750000
 42
0.032130
  0
VERTEX
  8
0
 10
89.696750
 20
47.706020
 42
0.069732
  0
VERTEX
  8
0
 10
87.463919
 20
48.776249
 42
0.112856
  0
VERTEX
  8
0
 10
85.738956
 20
48.919686
 42
0.222418
  0
SEQEND
  0
POLYLINE
  8
0
 66
1
 70
1
  0
VERTEX
  8
0
 10
67.743056
 20
46.409722
 42
0.134722
  0
VERTEX
  8
0
 10
67.453950
 20
45.901926
 42
0.021680
  0
VERTEX
  8
0
 10
67.218273
 20
44.776234
 42
0.022617
  0
VERTEX
  8
0
 10
67.054439
 20
43.391910
 42
0.018146
  0
VERTEX
  8
0
 10
67.000000
 20
41.892350
 42
-0.024577
  0
VERTEX
  8
0
 10
66.926699
 20
40.401984
 42
-0.031402
  0
VERTEX
  8
0
 10
66.706250
 20
39.045192
 42
-0.032653
  0
VERTEX
  8
0
 10
66.387437
 20
37.973447
 42
-0.167235
  0
VERTEX
  8
0
 10
66.000000
 20
37.500000
 42
0.111412
  0
VERTEX
  8
0
 10
65.616444
 20
37.123976
 42
0.050262
  0
VERTEX
  8
0
 10
65.293750
 20
36.493350
 42
0.046318
  0
VERTEX
  8
0
 10
65.074077
 20
35.729296
 42
0.046881
  0
VERTEX
  8
0
 10
65.000000
 20
34.940983
 42
0.183137
  0
VERTEX
  8
0
 10
65.395712
 20
33.896847
 42
0.159806
  0
VERTEX
  8
0
 10
66.409206
 20
33.303916
 42
0.048528
  0
VERTEX
  8
0
 10
68.600699
 20
33.049818
 42
0.004613
  0
VERTEX
  8
0
 10
74.000000
 20
33.000000
 42
0.004593
  0
VERTEX
  8
0
 10
79.410239
 20
33.049697
 42
0.048796
  0
VERTEX
  8
0
 10
81.596337
 20
33.304175
 42
0.161218
  0
VERTEX
  8
0
 10
82.605776
 20
33.899816
 42
0.181459
  0
VERTEX
  8
0
 10
83.000000
 20
34.950310
 42
0.057351
  0
VERTEX
  8
0
 10
82.907321
 20
35.755648
 42
0.049409
  0
VERTEX
  8
0
 10
82.632812
 20
36.562625
 42
0.051912
  0
VERTEX
  8
0
 10
82.228745
 20
37.251692
 42
0.092152
  0
VERTEX
  8
0
 10
81.750000
 20
37.700310
 42
-0.086414
  0
VERTEX
  8
0
 10
81.158367
 20
38.242194
 42
-0.019101
  0
VERTEX
  8
0
 10
80.357877
 20
39.366654
 42
-0.019313
  0
VERTEX
  8
0
 10
79.521728
 20
40.755757
 42
-0.017537
  0
VERTEX
  8
0
 10
78.766179
 20
42.250000
 42
0.028479
  0
VERTEX
  8
0
 10
78.000354
 20
43.685698
 42
0.036960
  0
VERTEX
  8
0
 10
77.133009
 20
44.898438
 42
0.040400
  0
VERTEX
  8
0
 10
76.290791
 20
45.757505
 42
0.180561
  0
VERTEX
  8
0
 10
75.641179
 20
46.000000
 42
-0.025876
  0
VERTEX
  8
0
 10
74.916233
 20
46.037543
 42
-0.007649
  0
VERTEX
  8
0
 10
73.812088
 20
46.169314
 42
-0.007655
  0
VERTEX
  8
0
 10
72.573463
 20
46.355738
 42
-0.008175
  0
VERTEX
  8
0
 10
71.368056
 20
46.576389
 42
0.027485
  0
VERTEX
  8
0
 10
70.210261
 20
46.742428
 42
0.033369
  0
VERTEX
  8
0
 10
69.114410
 20
46.765191
 42
0.035434
  0
VERTEX
  8
0
 10
68.215813
 20
46.659770
 42
0.150567
  0
SEQEND
  0
ENDSEC
  0
EOF
