  0
SECTION
  2
HEADER
  9
$ACADVER
  1
AC1006
  9
$EXTMIN
 10
0.000000
 20
0.000000
 30
0.000000
  9
$EXTMAX
 10
137.000000
 20
198.000000
 30
0.000000
  0
ENDSEC
  0
SECTION
  2
ENTITIES
  0
POLYLINE
  8
0
 66
1
 70
1
  0
VERTEX
  8
0
 10
27.621521
 20
193.675030
 42
0.013078
  0
VERTEX
  8
0
 10
23.530108
 20
191.301184
 42
0.035550
  0
VERTEX
  8
0
 10
20.810267
 20
189.347290
 42
0.046131
  0
VERTEX
  8
0
 10
18.823062
 20
187.356791
 42
0.039717
  0
VERTEX
  8
0
 10
17.121521
 20
184.937642
 42
0.037254
  0
VERTEX
  8
0
 10
15.619738
 20
181.899724
 42
0.061430
  0
VERTEX
  8
0
 10
14.879059
 20
179.136968
 42
0.031694
  0
VERTEX
  8
0
 10
14.580433
 20
175.208086
 42
0.003799
  0
VERTEX
  8
0
 10
14.537771
 20
166.500000
 42
0.011010
  0
VERTEX
  8
0
 10
14.804375
 20
155.715805
 42
0.070983
  0
VERTEX
  8
0
 10
15.822548
 20
150.377457
 42
0.124849
  0
VERTEX
  8
0
 10
18.055953
 20
146.958176
 42
0.064801
  0
VERTEX
  8
0
 10
22.249450
 20
144.000000
 42
-0.023054
  0
VERTEX
  8
0
 10
24.066284
 20
142.932962
 42
-0.030873
  0
VERTEX
  8
0
 10
25.600008
 20
141.793750
 42
-0.031689
  0
VERTEX
  8
0
 10
26.707443
 20
140.732841
 42
-0.188297
  0
VERTEX
  8
0
 10
26.992748
 20
140.000000
 42
-0.076295
  0
VERTEX
  8
0
 10
26.754493
 20
138.457717
 42
-0.005916
  0
VERTEX
  8
0
 10
25.446436
 20
134.475844
 42
-0.006064
  0
VERTEX
  8
0
 10
23.446461
 20
128.846307
 42
-0.001923
  0
VERTEX
  8
0
 10
20.330293
 20
120.500000
 42
0.019139
  0
VERTEX
  8
0
 10
19.620108
 20
118.377611
 42
0.005599
  0
VERTEX
  8
0
 10
18.690801
 20
115.064085
 42
0.005615
  0
VERTEX
  8
0
 10
17.727700
 20
111.308044
 42
0.005993
  0
VERTEX
  8
0
 10
16.870861
 20
107.611779
 42
-0.005459
  0
VERTEX
  8
0
 10
16.056127
 20
104.080005
 42
-0.006812
  0
VERTEX
  8
0
 10
15.219217
 20
100.819589
 42
-0.005617
  0
VERTEX
  8
0
 10
14.450575
 20
98.106989
 42
-0.051055
  0
VERTEX
  8
0
 10
13.984352
 20
96.970762
 42
0.087199
  0
VERTEX
  8
0
 10
13.085943
 20
94.236289
 42
0.006541
  0
VERTEX
  8
0
 10
12.064663
 20
86.448722
 42
0.009954
  0
VERTEX
  8
0
 10
11.267799
 20
78.293930
 42
0.019023
  0
VERTEX
  8
0
 10
11.008205
 20
71.718615
 42
0.013346
  0
VERTEX
  8
0
 10
11.079943
 20
68.880547
 42
0.046835
  0
VERTEX
  8
0
 10
11.344856
 20
67.073508
 42
0.081067
  0
VERTEX
  8
0
 10
11.823159
 20
65.945187
 42
0.161806
  0
VERTEX
  8
0
 10
12.564247
 20
65.336973
 42
0.164925
  0
VERTEX
  8
0
 10
13.578464
 20
65.296890
 42
0.013790
  0
VERTEX
  8
0
 10
16.112215
 20
66.122471
 42
0.017149
  0
VERTEX
  8
0
 10
19.149546
 20
67.324573
 42
0.012226
  0
VERTEX
  8
0
 10
22.466495
 20
68.868357
 42
-0.004399
  0
VERTEX
  8
0
 10
25.733127
 20
70.451393
 42
-0.006383
  0
VERTEX
  8
0
 10
28.646245
 20
71.786330
 42
-0.003471
  0
VERTEX
  8
0
 10
31.122539
 20
72.862566
 42
-0.101104
  0
VERTEX
  8
0
 10
31.795259
 20
73.000000
 42
-0.311129
  0
VERTEX
  8
0
 10
33.275191
 20
71.980404
 42
-0.076146
  0
VERTEX
  8
0
 10
33.933098
 20
68.927526
 42
-0.066863
  0
VERTEX
  8
0
 10
33.673011
 20
65.384075
 42
-0.132968
  0
VERTEX
  8
0
 10
32.404919
 20
62.894937
 42
0.086700
  0
VERTEX
  8
0
 10
30.287969
 20
59.537752
 42
0.053558
  0
VERTEX
  8
0
 10
28.983242
 20
55.044716
 42
0.033906
  0
VERTEX
  8
0
 10
28.281761
 20
48.563648
 42
0.009820
  0
VERTEX
  8
0
 10
28.076539
 20
38.500000
 42
0.005048
  0
VERTEX
  8
0
 10
28.151965
 20
30.430726
 42
0.018529
  0
VERTEX
  8
0
 10
28.440389
 20
25.331196
 42
0.028240
  0
VERTEX
  8
0
 10
29.016034
 20
21.522886
 42
0.032952
  0
VERTEX
  8
0
 10
30.000000
 20
18.000000
 42
-0.014246
  0
VERTEX
  8
0
 10
31.700458
 20
12.687046
 42
-0.096306
  0
VERTEX
  8
0
 10
31.945469
 20
9.948982
 42
-0.242598
  0
VERTEX
  8
0
 10
31.026878
 20
8.543160
 42
-0.129726
  0
VERTEX
  8
0
 10
28.968615
 20
8.000000
 42
-0.042265
  0
VERTEX
  8
0
 10
27.727434
 20
8.105104
 42
-0.055369
  0
VERTEX
  8
0
 10
26.634296
 20
8.418947
 42
-0.065729
  0
VERTEX
  8
0
 10
25.808090
 20
8.893623
 42
-0.138792
  0
VERTEX
  8
0
 10
25.369122
 20
9.480468
 42
0.194209
  0
VERTEX
  8
0
 10
24.127359
 20
10.813273
 42
0.041008
  0
VERTEX
  8
0
 10
21.086420
 20
11.941025
 42
0.037876
  0
VERTEX
  8
0
 10
17.151111
 20
12.728299
 42
0.030144
  0
VERTEX
  8
0
 10
12.826725
 20
12.994423
 42
0.027346
  0
VERTEX
  8
0
 10
10.425353
 20
12.865861
 42
0.051490
  0
VERTEX
  8
0
 10
8.528841
 20
12.459542
 42
0.056313
  0
VERTEX
  8
0
 10
6.869687
 20
11.705733
 42
0.040159
  0
VERTEX
  8
0
 10
5.206433
 20
10.520248
 42
0.055589
  0
VERTEX
  8
0
 10
2.929385
 20
8.125582
 42
0.049761
  0
VERTEX
  8
0
 10
1.137408
 20
5.200971
 42
0.053977
  0
VERTEX
  8
0
 10
0.176881
 20
2.506467
 42
0.261924
  0
VERTEX
  8
0
 10
0.605635
 20
1.002722
 42
0.215631
  0
VERTEX
  8
0
 10
1.368778
 20
0.719001
 42
0.011128
  0
VERTEX
  8
0
 10
4.050677
 20
0.963915
 42
0.015346
  0
VERTEX
  8
0
 10
7.418311
 20
1.452277
 42
0.008829
  0
VERTEX
  8
0
 10
11.442757
 20
2.236106
 42
-0.009078
  0
VERTEX
  8
0
 10
17.339289
 20
3.381505
 42
-0.030600
  0
VERTEX
  8
0
 10
21.240634
 20
3.822358
 42
-0.032715
  0
VERTEX
  8
0
 10
25.030741
 20
3.769050
 42
-0.011523
  0
VERTEX
  8
0
 10
30.441691
 20
3.212397
 42
0.005715
  0
VERTEX
  8
0
 10
35.488363
 20
2.633910
 42
0.033894
  0
VERTEX
  8
0
 10
38.141483
 20
2.541178
 42
0.070016
  0
VERTEX
  8
0
 10
39.795037
 20
2.829497
 42
0.118796
  0
VERTEX
  8
0
 10
40.987230
 20
3.558659
 42
0.106145
  0
VERTEX
  8
0
 10
41.684029
 20
4.636485
 42
0.114722
  0
VERTEX
  8
0
 10
41.850878
 20
5.874557
 42
0.052776
  0
VERTEX
  8
0
 10
41.471074
 20
7.748752
 42
0.007598
  0
VERTEX
  8
0
 10
40.238296
 20
11.461426
 42
-0.012172
  0
VERTEX
  8
0
 10
38.697506
 20
16.247689
 42
-0.050575
  0
VERTEX
  8
0
 10
38.137087
 20
19.225279
 42
-0.068888
  0
VERTEX
  8
0
 10
38.271502
 20
21.779025
 42
-0.036337
  0
VERTEX
  8
0
 10
39.097825
 20
24.850777
 42
0.000000
  0
VERTEX
  8
0
 10
40.195650
 20
28.000000
 42
0.000000
  0
VERTEX
  8
0
 10
51.597825
 20
28.000000
 42
0.000000
  0
VERTEX
  8
0
 10
63.000000
 20
28.000000
 42
0.000000
  0
VERTEX
  8
0
 10
63.000000
 20
21.627118
 42
-0.020827
  0
VERTEX
  8
0
 10
62.870621
 20
18.522422
 42
-0.025820
  0
VERTEX
  8
0
 10
62.481620
 20
15.656861
 42
-0.027381
  0
VERTEX
  8
0
 10
61.827138
 20
12.997421
 42
-0.030114
  0
VERTEX
  8
0
 10
60.901838
 20
10.510994
 42
0.093344
  0
VERTEX
  8
0
 10
59.847945
 20
6.016467
 42
0.325945
  0
VERTEX
  8
0
 10
61.400420
 20
3.677617
 42
0.076512
  0
VERTEX
  8
0
 10
66.594568
 20
2.614442
 42
0.003727
  0
VERTEX
  8
0
 10
84.214275
 20
1.878929
 42
0.003688
  0
VERTEX
  8
0
 10
92.818700
 20
1.647489
 42
0.005814
  0
VERTEX
  8
0
 10
100.205587
 20
1.589209
 42
0.001843
  0
VERTEX
  8
0
 10
106.571258
 20
1.636470
 42
0.194888
  0
VERTEX
  8
0
 10
107.357936
 20
1.965426
 42
0.248108
  0
VERTEX
  8
0
 10
107.776690
 20
3.303076
 42
0.030635
  0
VERTEX
  8
0
 10
107.012504
 20
6.369209
 42
0.035426
  0
VERTEX
  8
0
 10
105.780670
 20
9.486464
 42
0.084763
  0
VERTEX
  8
0
 10
104.348003
 20
11.509140
 42
0.154084
  0
VERTEX
  8
0
 10
102.168411
 20
12.642845
 42
0.049869
  0
VERTEX
  8
0
 10
98.499123
 20
12.915662
 42
0.037353
  0
VERTEX
  8
0
 10
93.542882
 20
12.417820
 42
0.017420
  0
VERTEX
  8
0
 10
87.223504
 20
11.073399
 42
-0.010505
  0
VERTEX
  8
0
 10
83.845989
 20
10.305881
 42
-0.007760
  0
VERTEX
  8
0
 10
80.079717
 20
9.593571
 42
-0.007849
  0
VERTEX
  8
0
 10
76.498406
 20
9.031390
 42
-0.017395
  0
VERTEX
  8
0
 10
73.750000
 20
8.741126
 42
-0.008495
  0
VERTEX
  8
0
 10
70.489893
 20
8.566726
 42
-0.068152
  0
VERTEX
  8
0
 10
68.997744
 20
8.715897
 42
-0.187178
  0
VERTEX
  8
0
 10
68.278371
 20
9.214204
 42
-0.149835
  0
VERTEX
  8
0
 10
68.000000
 20
10.122273
 42
-0.098348
  0
VERTEX
  8
0
 10
68.170469
 20
10.980550
 42
-0.033971
  0
VERTEX
  8
0
 10
68.734375
 20
12.118588
 42
-0.032202
  0
VERTEX
  8
0
 10
69.543277
 20
13.320603
 42
-0.032180
  0
VERTEX
  8
0
 10
70.500000
 20
14.409091
 42
0.041916
  0
VERTEX
  8
0
 10
71.456717
 20
15.541231
 42
0.036087
  0
VERTEX
  8
0
 10
72.265625
 20
16.873451
 42
0.037712
  0
VERTEX
  8
0
 10
72.822475
 20
18.197319
 42
0.080868
  0
VERTEX
  8
0
 10
73.000000
 20
19.287764
 42
-0.027917
  0
VERTEX
  8
0
 10
73.071256
 20
20.562997
 42
-0.007123
  0
VERTEX
  8
0
 10
73.331150
 20
22.616621
 42
-0.007237
  0
VERTEX
  8
0
 10
73.695775
 20
24.956235
 42
-0.007279
  0
VERTEX
  8
0
 10
74.127320
 20
27.279777
 42
-0.014846
  0
VERTEX
  8
0
 10
74.862117
 20
30.448238
 42
-0.074924
  0
VERTEX
  8
0
 10
75.579383
 20
32.111523
 42
-0.113665
  0
VERTEX
  8
0
 10
76.605899
 20
33.142838
 42
-0.056546
  0
VERTEX
  8
0
 10
78.276543
 20
33.946559
 42
-0.060842
  0
VERTEX
  8
0
 10
80.174792
 20
34.358890
 42
-0.007376
  0
VERTEX
  8
0
 10
84.439813
 20
34.690552
 42
-0.008671
  0
VERTEX
  8
0
 10
89.541199
 20
34.922897
 42
-0.007043
  0
VERTEX
  8
0
 10
95.014365
 20
35.000000
 42
0.003890
  0
VERTEX
  8
0
 10
102.998576
 20
35.062113
 42
0.027049
  0
VERTEX
  8
0
 10
106.894500
 20
35.333878
 42
0.057191
  0
VERTEX
  8
0
 10
109.337306
 20
35.926462
 42
0.078730
  0
VERTEX
  8
0
 10
111.306033
 20
37.026085
 42
0.034695
  0
VERTEX
  8
0
 10
112.342822
 20
37.964961
 42
0.027563
  0
VERTEX
  8
0
 10
113.328140
 20
39.110283
 42
0.028318
  0
VERTEX
  8
0
 10
114.125575
 20
40.279126
 42
0.060280
  0
VERTEX
  8
0
 10
114.572792
 20
41.276085
 42
-0.040510
  0
VERTEX
  8
0
 10
115.044322
 20
42.449026
 42
-0.009632
  0
VERTEX
  8
0
 10
116.021889
 20
44.315475
 42
-0.009844
  0
VERTEX
  8
0
 10
117.232344
 20
46.422614
 42
-0.009579
  0
VERTEX
  8
0
 10
118.535536
 20
48.500000
 42
0.040879
  0
VERTEX
  8
0
 10
121.336043
 20
53.654277
 42
0.028330
  0
VERTEX
  8
0
 10
123.669681
 20
59.866239
 42
0.026620
  0
VERTEX
  8
0
 10
125.427972
 20
66.767100
 42
0.024598
  0
VERTEX
  8
0
 10
126.499459
 20
74.000000
 42
-0.028177
  0
VERTEX
  8
0
 10
127.454742
 20
80.144896
 42
-0.057146
  0
VERTEX
  8
0
 10
129.013552
 20
84.775238
 42
-0.075688
  0
VERTEX
  8
0
 10
131.191690
 20
88.028425
 42
-0.109692
  0
VERTEX
  8
0
 10
134.013029
 20
90.005397
 42
0.014797
  0
VERTEX
  8
0
 10
135.752415
 20
90.786944
 42
0.143941
  0
VERTEX
  8
0
 10
136.343466
 20
91.324249
 42
0.281217
  0
VERTEX
  8
0
 10
136.342766
 20
91.908238
 42
0.059050
  0
VERTEX
  8
0
 10
135.682401
 20
92.746170
 42
0.368498
  0
VERTEX
  8
0
 10
132.245567
 20
93.019223
 42
0.080671
  0
VERTEX
  8
0
 10
127.717746
 20
88.469356
 42
0.049642
  0
VERTEX
  8
0
 10
122.836054
 20
79.997870
 42
0.026322
  0
VERTEX
  8
0
 10
118.439507
 20
68.694027
 42
-0.015411
  0
VERTEX
  8
0
 10
114.731897
 20
58.509342
 42
-0.043657
  0
VERTEX
  8
0
 10
111.328787
 20
51.763186
 42
-0.063947
  0
VERTEX
  8
0
 10
107.730235
 20
47.332973
 42
-0.091343
  0
VERTEX
  8
0
 10
103.500000
 20
44.569222
 42
-0.053308
  0
VERTEX
  8
0
 10
99.685422
 20
43.430827
 42
-0.020148
  0
VERTEX
  8
0
 10
94.170798
 20
42.635620
 42
-0.020350
  0
VERTEX
  8
0
 10
88.528995
 20
42.284087
 42
-0.045055
  0
VERTEX
  8
0
 10
84.231291
 20
42.579006
 42
-0.029638
  0
VERTEX
  8
0
 10
81.915363
 20
43.091600
 42
-0.108679
  0
VERTEX
  8
0
 10
80.600385
 20
43.799070
 42
-0.102653
  0
VERTEX
  8
0
 10
79.663617
 20
45.015831
 42
-0.024921
  0
VERTEX
  8
0
 10
78.666589
 20
47.362983
 42
-0.021725
  0
VERTEX
  8
0
 10
78.036936
 20
49.339435
 42
-0.010693
  0
VERTEX
  8
0
 10
77.400494
 20
51.900376
 42
-0.010589
  0
VERTEX
  8
0
 10
76.851984
 20
54.592132
 42
-0.015175
  0
VERTEX
  8
0
 10
76.489304
 20
57.000000
 42
0.034578
  0
VERTEX
  8
0
 10
75.947860
 20
59.841665
 42
0.010089
  0
VERTEX
  8
0
 10
74.727239
 20
64.125380
 42
0.010086
  0
VERTEX
  8
0
 10
73.154044
 20
68.905638
 42
0.010641
  0
VERTEX
  8
0
 10
71.415424
 20
73.533209
 42
-0.007799
  0
VERTEX
  8
0
 10
69.724671
 20
77.956836
 42
-0.009690
  0
VERTEX
  8
0
 10
68.297031
 20
82.123470
 42
-0.008203
  0
VERTEX
  8
0
 10
67.228701
 20
85.647943
 42
-0.069589
  0
VERTEX
  8
0
 10
67.000000
 20
87.283209
 42
-0.046824
  0
VERTEX
  8
0
 10
67.147713
 20
88.857084
 42
-0.212059
  0
VERTEX
  8
0
 10
67.659795
 20
89.597485
 42
-0.124923
  0
VERTEX
  8
0
 10
68.741873
 20
89.931293
 42
-0.012668
  0
VERTEX
  8
0
 10
71.453315
 20
90.000000
 42
-0.023591
  0
VERTEX
  8
0
 10
73.829767
 20
89.887813
 42
-0.072685
  0
VERTEX
  8
0
 10
75.389003
 20
89.507134
 42
-0.090818
  0
VERTEX
  8
0
 10
76.576643
 20
88.753056
 42
-0.051634
  0
VERTEX
  8
0
 10
77.703315
 20
87.470453
 42
0.011261
  0
VERTEX
  8
0
 10
78.769269
 20
86.039100
 42
0.002005
  0
VERTEX
  8
0
 10
80.833074
 20
83.416077
 42
0.002167
  0
VERTEX
  8
0
 10
83.277772
 20
80.361741
 42
0.001953
  0
VERTEX
  8
0
 10
85.834810
 20
77.220453
 42
-0.005860
  0
VERTEX
  8
0
 10
88.368410
 20
74.057802
 42
-0.006475
  0
VERTEX
  8
0
 10
90.742774
 20
70.939284
 42
-0.006055
  0
VERTEX
  8
0
 10
92.701628
 20
68.228148
 42
-0.032782
  0
VERTEX
  8
0
 10
93.647083
 20
66.679237
 42
0.021522
  0
VERTEX
  8
0
 10
94.481247
 20
65.240842
 42
0.123887
  0
VERTEX
  8
0
 10
95.116790
 20
64.641956
 42
0.219117
  0
VERTEX
  8
0
 10
95.764413
 20
64.591482
 42
0.084976
  0
VERTEX
  8
0
 10
96.562273
 20
65.051682
 42
0.103309
  0
VERTEX
  8
0
 10
97.114773
 20
65.745936
 42
0.040409
  0
VERTEX
  8
0
 10
97.577668
 20
66.886542
 42
0.037819
  0
VERTEX
  8
0
 10
97.893804
 20
68.241922
 42
0.038406
  0
VERTEX
  8
0
 10
98.000000
 20
69.622445
 42
-0.025032
  0
VERTEX
  8
0
 10
98.083788
 20
71.295004
 42
-0.097693
  0
VERTEX
  8
0
 10
98.383232
 20
72.280895
 42
-0.162350
  0
VERTEX
  8
0
 10
98.939421
 20
72.808745
 42
-0.109781
  0
VERTEX
  8
0
 10
99.800000
 20
73.000000
 42
-0.048893
  0
VERTEX
  8
0
 10
100.563825
 20
72.925129
 42
-0.037801
  0
VERTEX
  8
0
 10
101.370126
 20
72.701124
 42
-0.038855
  0
VERTEX
  8
0
 10
102.097572
 20
72.372575
 42
-0.070995
  0
VERTEX
  8
0
 10
102.617451
 20
71.982549
 42
0.099040
  0
VERTEX
  8
0
 10
104.378227
 20
70.808801
 42
0.047522
  0
VERTEX
  8
0
 10
106.987114
 20
70.014470
 42
0.046694
  0
VERTEX
  8
0
 10
109.525498
 20
69.741154
 42
0.202537
  0
VERTEX
  8
0
 10
110.898823
 20
70.298823
 42
0.167944
  0
VERTEX
  8
0
 10
111.833454
 20
72.220802
 42
0.040537
  0
VERTEX
  8
0
 10
111.972736
 20
75.808388
 42
0.041086
  0
VERTEX
  8
0
 10
111.523096
 20
79.405573
 42
0.145749
  0
VERTEX
  8
0
 10
110.428571
 20
81.428571
 42
0.102752
  0
VERTEX
  8
0
 10
109.328964
 20
82.149963
 42
0.046716
  0
VERTEX
  8
0
 10
107.669243
 20
82.631656
 42
0.033583
  0
VERTEX
  8
0
 10
105.368885
 20
82.913609
 42
0.013706
  0
VERTEX
  8
0
 10
102.217896
 20
83.000000
 42
0.000000
  0
VERTEX
  8
0
 10
95.578650
 20
83.000000
 42
0.000000
  0
VERTEX
  8
0
 10
88.498389
 20
90.337450
 42
0.012290
  0
VERTEX
  8
0
 10
84.896483
 20
93.891114
 42
0.025855
  0
VERTEX
  8
0
 10
81.897745
 20
96.429138
 42
0.032541
  0
VERTEX
  8
0
 10
79.176988
 20
98.233636
 42
0.041882
  0
VERTEX
  8
0
 10
76.459064
 20
99.502735
 42
-0.006101
  0
VERTEX
  8
0
 10
74.503424
 20
100.250782
 42
-0.007902
  0
VERTEX
  8
0
 10
72.729671
 20
100.986832
 42
-0.006165
  0
VERTEX
  8
0
 10
71.266937
 20
101.642642
 42
-0.067899
  0
VERTEX
  8
0
 10
70.727050
 20
101.988234
 42
-0.302379
  0
VERTEX
  8
0
 10
70.362205
 20
103.264068
 42
-0.030332
  0
VERTEX
  8
0
 10
71.564811
 20
106.370301
 42
-0.032519
  0
VERTEX
  8
0
 10
73.516341
 20
109.984983
 42
-0.028209
  0
VERTEX
  8
0
 10
76.007040
 20
113.500000
 42
0.019594
  0
VERTEX
  8
0
 10
78.982439
 20
117.549387
 42
0.043628
  0
VERTEX
  8
0
 10
80.839203
 20
120.889945
 42
0.052344
  0
VERTEX
  8
0
 10
81.884320
 20
124.091750
 42
0.043224
  0
VERTEX
  8
0
 10
82.330463
 20
127.655979
 42
0.000000
  0
VERTEX
  8
0
 10
82.500000
 20
132.100082
 42
0.000000
  0
VERTEX
  8
0
 10
92.560328
 20
131.426277
 42
0.016874
  0
VERTEX
  8
0
 10
99.823926
 20
131.185530
 42
0.068622
  0
VERTEX
  8
0
 10
104.193529
 20
131.790794
 42
0.091946
  0
VERTEX
  8
0
 10
107.566581
 20
133.453775
 42
0.045309
  0
VERTEX
  8
0
 10
111.135838
 20
136.660724
 42
0.063003
  0
VERTEX
  8
0
 10
114.909674
 20
141.919937
 42
0.057230
  0
VERTEX
  8
0
 10
117.403771
 20
148.123897
 42
0.048761
  0
VERTEX
  8
0
 10
118.691688
 20
155.605927
 42
0.028298
  0
VERTEX
  8
0
 10
118.841716
 20
164.732250
 42
0.008886
  0
VERTEX
  8
0
 10
118.511768
 20
170.422906
 42
0.036980
  0
VERTEX
  8
0
 10
117.999787
 20
173.819323
 42
0.048742
  0
VERTEX
  8
0
 10
117.066354
 20
176.627119
 42
0.023980
  0
VERTEX
  8
0
 10
115.372407
 20
179.992601
 42
0.085358
  0
VERTEX
  8
0
 10
109.424986
 20
187.279016
 42
0.177443
  0
VERTEX
  8
0
 10
102.666722
 20
189.859190
 42
0.126494
  0
VERTEX
  8
0
 10
94.160047
 20
187.793872
 42
0.035027
  0
VERTEX
  8
0
 10
82.421218
 20
180.436554
 42
0.024470
  0
VERTEX
  8
0
 10
77.197347
 20
176.222455
 42
0.035558
  0
VERTEX
  8
0
 10
73.068131
 20
171.980797
 42
0.039602
  0
VERTEX
  8
0
 10
69.928931
 20
167.599519
 42
0.045439
  0
VERTEX
  8
0
 10
67.682187
 20
162.968974
 42
-0.035278
  0
VERTEX
  8
0
 10
67.159015
 20
161.832577
 42
-0.044562
  0
VERTEX
  8
0
 10
66.514495
 20
160.872136
 42
-0.051036
  0
VERTEX
  8
0
 10
65.850436
 20
160.203671
 42
-0.173387
  0
VERTEX
  8
0
 10
65.280762
 20
160.000000
 42
-0.325558
  0
VERTEX
  8
0
 10
64.659290
 20
160.452623
 42
-0.044628
  0
VERTEX
  8
0
 10
64.283564
 20
162.112141
 42
-0.026863
  0
VERTEX
  8
0
 10
64.060320
 20
164.905715
 42
-0.006508
  0
VERTEX
  8
0
 10
64.000000
 20
169.539838
 42
0.023141
  0
VERTEX
  8
0
 10
63.670530
 20
176.654817
 42
0.062479
  0
VERTEX
  8
0
 10
62.581797
 20
181.584968
 42
0.074214
  0
VERTEX
  8
0
 10
60.442861
 20
185.592199
 42
0.043969
  0
VERTEX
  8
0
 10
56.837629
 20
189.650594
 42
0.043932
  0
VERTEX
  8
0
 10
49.373929
 20
195.548829
 42
0.111478
  0
VERTEX
  8
0
 10
42.941853
 20
197.961987
 42
0.113344
  0
VERTEX
  8
0
 10
36.164332
 20
197.358296
 42
0.046288
  0
SEQEND
  0
ENDSEC
  0
EOF
