  0
SECTION
  2
HEADER
  9
$ACADVER
  1
AC1006
  9
$EXTMIN
 10
0.000000
 20
0.000000
 30
0.000000
  9
$EXTMAX
 10
162.000000
 20
197.000000
 30
0.000000
  0
ENDSEC
  0
SECTION
  2
ENTITIES
  0
POLYLINE
  8
0
 66
1
 70
1
  0
VERTEX
  8
0
 10
49.650000
 20
193.658040
 42
0.010435
  0
VERTEX
  8
0
 10
45.964847
 20
189.581121
 42
0.019522
  0
VERTEX
  8
0
 10
43.186207
 20
186.110099
 42
0.018406
  0
VERTEX
  8
0
 10
40.583504
 20
182.299306
 42
0.008202
  0
VERTEX
  8
0
 10
37.426211
 20
177.103116
 42
0.010953
  0
VERTEX
  8
0
 10
34.963159
 20
172.675813
 42
0.042864
  0
VERTEX
  8
0
 10
33.745483
 20
169.796626
 42
0.053897
  0
VERTEX
  8
0
 10
33.178426
 20
167.093036
 42
0.024769
  0
VERTEX
  8
0
 10
33.000000
 20
163.493415
 42
0.033209
  0
VERTEX
  8
0
 10
33.300302
 20
158.977052
 42
0.086765
  0
VERTEX
  8
0
 10
34.276502
 20
155.885826
 42
0.106908
  0
VERTEX
  8
0
 10
36.093426
 20
153.693287
 42
0.068382
  0
VERTEX
  8
0
 10
38.960173
 20
152.016497
 42
-0.106383
  0
VERTEX
  8
0
 10
41.094826
 20
150.541429
 42
-0.179788
  0
VERTEX
  8
0
 10
41.928109
 20
148.561629
 42
-0.110230
  0
VERTEX
  8
0
 10
41.427750
 20
145.763714
 42
-0.028288
  0
VERTEX
  8
0
 10
39.404005
 20
141.607166
 42
0.030262
  0
VERTEX
  8
0
 10
34.590698
 20
131.621288
 42
0.018462
  0
VERTEX
  8
0
 10
30.079621
 20
119.329161
 42
0.018481
  0
VERTEX
  8
0
 10
26.499389
 20
106.777098
 42
0.031098
  0
VERTEX
  8
0
 10
24.552534
 20
96.000000
 42
-0.022966
  0
VERTEX
  8
0
 10
24.140140
 20
93.484069
 42
-0.012590
  0
VERTEX
  8
0
 10
23.417109
 20
90.445019
 42
-0.012526
  0
VERTEX
  8
0
 10
22.526123
 20
87.390289
 42
-0.019514
  0
VERTEX
  8
0
 10
21.591479
 20
84.812830
 42
0.024188
  0
VERTEX
  8
0
 10
20.285969
 20
81.104895
 42
0.104676
  0
VERTEX
  8
0
 10
20.096831
 20
78.791437
 42
0.218981
  0
VERTEX
  8
0
 10
20.899784
 20
77.505497
 42
0.146399
  0
VERTEX
  8
0
 10
22.589218
 20
77.000000
 42
0.103197
  0
VERTEX
  8
0
 10
24.529548
 20
77.404782
 42
0.001592
  0
VERTEX
  8
0
 10
35.033242
 20
82.026498
 42
0.002274
  0
VERTEX
  8
0
 10
45.233545
 20
86.609167
 42
0.066581
  0
VERTEX
  8
0
 10
47.644392
 20
88.119835
 42
-0.031272
  0
VERTEX
  8
0
 10
48.357455
 20
88.639958
 42
-0.007929
  0
VERTEX
  8
0
 10
49.578729
 20
89.391790
 42
-0.008055
  0
VERTEX
  8
0
 10
51.004059
 20
90.207603
 42
-0.008066
  0
VERTEX
  8
0
 10
52.454247
 20
90.976674
 42
0.000000
  0
VERTEX
  8
0
 10
56.000000
 20
92.784402
 42
0.000000
  0
VERTEX
  8
0
 10
56.000000
 20
87.809814
 42
-0.035476
  0
VERTEX
  8
0
 10
55.814447
 20
85.197916
 42
-0.026736
  0
VERTEX
  8
0
 10
55.255726
 20
82.373619
 42
-0.023964
  0
VERTEX
  8
0
 10
54.321052
 20
79.316192
 42
-0.017248
  0
VERTEX
  8
0
 10
53.000000
 20
76.000000
 42
0.004202
  0
VERTEX
  8
0
 10
51.850607
 20
73.320240
 42
0.006034
  0
VERTEX
  8
0
 10
50.881250
 20
70.926087
 42
0.003404
  0
VERTEX
  8
0
 10
50.103486
 20
68.895786
 42
0.089998
  0
VERTEX
  8
0
 10
50.000000
 20
68.325510
 42
-0.084419
  0
VERTEX
  8
0
 10
49.899113
 20
67.732231
 42
-0.002030
  0
VERTEX
  8
0
 10
48.962043
 20
65.091050
 42
-0.004385
  0
VERTEX
  8
0
 10
47.820520
 20
62.000048
 42
-0.002960
  0
VERTEX
  8
0
 10
46.466529
 20
58.493123
 42
0.014821
  0
VERTEX
  8
0
 10
43.433807
 20
50.047232
 42
0.025000
  0
VERTEX
  8
0
 10
41.462415
 20
42.786104
 42
0.027888
  0
VERTEX
  8
0
 10
40.366497
 20
35.967320
 42
0.025905
  0
VERTEX
  8
0
 10
40.000000
 20
28.898109
 42
0.012738
  0
VERTEX
  8
0
 10
40.103195
 20
24.847958
 42
0.028905
  0
VERTEX
  8
0
 10
40.435525
 20
21.803887
 42
0.036557
  0
VERTEX
  8
0
 10
41.045316
 20
19.307930
 42
0.039782
  0
VERTEX
  8
0
 10
42.000000
 20
17.000000
 42
-0.009863
  0
VERTEX
  8
0
 10
42.765829
 20
15.422751
 42
-0.012256
  0
VERTEX
  8
0
 10
43.412500
 20
13.925819
 42
-0.010602
  0
VERTEX
  8
0
 10
43.894364
 20
12.653633
 42
-0.085424
  0
VERTEX
  8
0
 10
44.000000
 20
12.039838
 42
-0.387582
  0
VERTEX
  8
0
 10
43.559749
 20
11.557210
 42
-0.007092
  0
VERTEX
  8
0
 10
39.812397
 20
11.265873
 42
-0.011542
  0
VERTEX
  8
0
 10
34.743912
 20
11.061389
 42
-0.004310
  0
VERTEX
  8
0
 10
27.622124
 20
11.000000
 42
0.004503
  0
VERTEX
  8
0
 10
19.535889
 20
10.927174
 42
0.014101
  0
VERTEX
  8
0
 10
14.105711
 20
10.676051
 42
0.020178
  0
VERTEX
  8
0
 10
10.315100
 20
10.239100
 42
0.064230
  0
VERTEX
  8
0
 10
7.872124
 20
9.527606
 42
0.028769
  0
VERTEX
  8
0
 10
4.475107
 20
7.805424
 42
0.050150
  0
VERTEX
  8
0
 10
1.920031
 20
5.954410
 42
0.067754
  0
VERTEX
  8
0
 10
0.412049
 20
4.194059
 42
0.239276
  0
VERTEX
  8
0
 10
0.263042
 20
2.756907
 42
0.266914
  0
VERTEX
  8
0
 10
1.302355
 20
1.911764
 42
0.019775
  0
VERTEX
  8
0
 10
5.078825
 20
1.450608
 42
0.013447
  0
VERTEX
  8
0
 10
11.461815
 20
1.098715
 42
0.002065
  0
VERTEX
  8
0
 10
24.169133
 20
0.793014
 42
0.003756
  0
VERTEX
  8
0
 10
33.497546
 20
0.677237
 42
0.005738
  0
VERTEX
  8
0
 10
41.590328
 20
0.730465
 42
0.003694
  0
VERTEX
  8
0
 10
48.257335
 20
0.900107
 42
0.073765
  0
VERTEX
  8
0
 10
50.256028
 20
1.263992
 42
0.101568
  0
VERTEX
  8
0
 10
52.144099
 20
2.369721
 42
0.133867
  0
VERTEX
  8
0
 10
53.220046
 20
4.039474
 42
0.055007
  0
VERTEX
  8
0
 10
53.827392
 20
7.092710
 42
0.006004
  0
VERTEX
  8
0
 10
54.360853
 20
14.245399
 42
-0.015107
  0
VERTEX
  8
0
 10
54.716960
 20
18.078025
 42
-0.027139
  0
VERTEX
  8
0
 10
55.273375
 20
21.186482
 42
-0.031931
  0
VERTEX
  8
0
 10
56.078308
 20
23.833274
 42
-0.036097
  0
VERTEX
  8
0
 10
57.188157
 20
26.245399
 42
0.000000
  0
VERTEX
  8
0
 10
59.531240
 20
30.500000
 42
0.000000
  0
VERTEX
  8
0
 10
66.896795
 20
30.796457
 42
0.000000
  0
VERTEX
  8
0
 10
74.262350
 20
31.092914
 42
0.000000
  0
VERTEX
  8
0
 10
73.760425
 20
23.296457
 42
-0.014615
  0
VERTEX
  8
0
 10
73.448489
 20
19.970594
 42
-0.011827
  0
VERTEX
  8
0
 10
72.925496
 20
16.423750
 42
-0.012003
  0
VERTEX
  8
0
 10
72.286677
 20
13.173235
 42
-0.030019
  0
VERTEX
  8
0
 10
71.622943
 20
10.848223
 42
0.059984
  0
VERTEX
  8
0
 10
70.592661
 20
6.203281
 42
0.324081
  0
VERTEX
  8
0
 10
71.820914
 20
4.099041
 42
0.092404
  0
VERTEX
  8
0
 10
75.751910
 20
3.172981
 42
0.003794
  0
VERTEX
  8
0
 10
90.316752
 20
2.597537
 42
-0.001795
  0
VERTEX
  8
0
 10
98.119389
 20
2.320499
 42
-0.001955
  0
VERTEX
  8
0
 10
105.700858
 20
1.994372
 42
-0.001832
  0
VERTEX
  8
0
 10
112.190692
 20
1.665943
 42
-0.009637
  0
VERTEX
  8
0
 10
115.750000
 20
1.403860
 42
0.006580
  0
VERTEX
  8
0
 10
119.506097
 20
1.104194
 42
0.070747
  0
VERTEX
  8
0
 10
121.024502
 20
1.217991
 42
0.214638
  0
VERTEX
  8
0
 10
121.731383
 20
1.743114
 42
0.127944
  0
VERTEX
  8
0
 10
122.000000
 20
2.775670
 42
0.096508
  0
VERTEX
  8
0
 10
121.811049
 20
3.745489
 42
0.028795
  0
VERTEX
  8
0
 10
121.162576
 20
5.114338
 42
0.027705
  0
VERTEX
  8
0
 10
120.240277
 20
6.600621
 42
0.026749
  0
VERTEX
  8
0
 10
119.149196
 20
7.994146
 42
0.000000
  0
VERTEX
  8
0
 10
116.298392
 20
11.259309
 42
0.000000
  0
VERTEX
  8
0
 10
98.649196
 20
10.822203
 42
0.000000
  0
VERTEX
  8
0
 10
81.000000
 20
10.385098
 42
0.000000
  0
VERTEX
  8
0
 10
81.000000
 20
12.845926
 42
-0.107853
  0
VERTEX
  8
0
 10
81.300617
 20
14.223354
 42
-0.035974
  0
VERTEX
  8
0
 10
82.298504
 20
16.042756
 42
-0.029533
  0
VERTEX
  8
0
 10
83.870021
 20
18.186248
 42
-0.016463
  0
VERTEX
  8
0
 10
86.016522
 20
20.610985
 42
0.019961
  0
VERTEX
  8
0
 10
87.983109
 20
22.864042
 42
0.020745
  0
VERTEX
  8
0
 10
89.737280
 20
25.238797
 42
0.021025
  0
VERTEX
  8
0
 10
91.077707
 20
27.411972
 42
0.078472
  0
VERTEX
  8
0
 10
91.632753
 20
28.913766
 42
-0.115423
  0
VERTEX
  8
0
 10
92.525437
 20
30.874558
 42
-0.158908
  0
VERTEX
  8
0
 10
94.113639
 20
31.957756
 42
-0.046794
  0
VERTEX
  8
0
 10
97.403064
 20
32.589908
 42
-0.002864
  0
VERTEX
  8
0
 10
107.363973
 20
33.494992
 42
0.045095
  0
VERTEX
  8
0
 10
114.501096
 20
34.757003
 42
0.021645
  0
VERTEX
  8
0
 10
123.370106
 20
37.582604
 42
0.017192
  0
VERTEX
  8
0
 10
131.565508
 20
40.913966
 42
0.143545
  0
VERTEX
  8
0
 10
134.580523
 20
43.482550
 42
0.047794
  0
VERTEX
  8
0
 10
135.253941
 20
44.761897
 42
0.009387
  0
VERTEX
  8
0
 10
136.195032
 20
47.186535
 42
0.009879
  0
VERTEX
  8
0
 10
137.186380
 20
50.064730
 42
0.009021
  0
VERTEX
  8
0
 10
138.095389
 20
53.067965
 42
-0.006710
  0
VERTEX
  8
0
 10
143.526959
 20
71.316782
 42
-0.031247
  0
VERTEX
  8
0
 10
147.447125
 20
81.570091
 42
-0.058796
  0
VERTEX
  8
0
 10
150.893012
 20
87.252602
 42
-0.231040
  0
VERTEX
  8
0
 10
154.472737
 20
89.000000
 42
0.062094
  0
VERTEX
  8
0
 10
155.299671
 20
89.103093
 42
0.019056
  0
VERTEX
  8
0
 10
156.508960
 20
89.458918
 42
0.018747
  0
VERTEX
  8
0
 10
157.844415
 20
89.964277
 42
0.019502
  0
VERTEX
  8
0
 10
159.120423
 20
90.562273
 42
0.019741
  0
VERTEX
  8
0
 10
160.671016
 20
91.443355
 42
0.117376
  0
VERTEX
  8
0
 10
161.322122
 20
92.100330
 42
0.221607
  0
VERTEX
  8
0
 10
161.395730
 20
92.760364
 42
0.092165
  0
VERTEX
  8
0
 10
160.948318
 20
93.562273
 42
0.186770
  0
VERTEX
  8
0
 10
158.550513
 20
94.899690
 42
0.083112
  0
VERTEX
  8
0
 10
154.874393
 20
94.802832
 42
0.075489
  0
VERTEX
  8
0
 10
151.053300
 20
93.438791
 42
0.100501
  0
VERTEX
  8
0
 10
148.225906
 20
91.086657
 42
0.063861
  0
VERTEX
  8
0
 10
145.156565
 20
86.069422
 42
0.008848
  0
VERTEX
  8
0
 10
140.348869
 20
74.816829
 42
0.010805
  0
VERTEX
  8
0
 10
135.867225
 20
63.069921
 42
0.028261
  0
VERTEX
  8
0
 10
133.316769
 20
54.408127
 42
-0.092778
  0
VERTEX
  8
0
 10
132.088954
 20
51.620429
 42
-0.062923
  0
VERTEX
  8
0
 10
129.780660
 20
49.018044
 42
-0.051566
  0
VERTEX
  8
0
 10
126.412109
 20
46.630995
 42
-0.031016
  0
VERTEX
  8
0
 10
122.000000
 20
44.491868
 42
-0.006543
  0
VERTEX
  8
0
 10
113.026466
 20
40.945759
 42
-0.016051
  0
VERTEX
  8
0
 10
106.317901
 20
38.639265
 42
-0.021649
  0
VERTEX
  8
0
 10
101.063512
 20
37.265308
 42
-0.042699
  0
VERTEX
  8
0
 10
96.786906
 20
36.718703
 42
0.000000
  0
VERTEX
  8
0
 10
91.554997
 20
36.500000
 42
0.000000
  0
VERTEX
  8
0
 10
90.835505
 20
40.500000
 42
-0.001070
  0
VERTEX
  8
0
 10
90.449316
 20
42.673710
 42
-0.000261
  0
VERTEX
  8
0
 10
89.821568
 20
46.262500
 42
-0.000267
  0
VERTEX
  8
0
 10
89.106142
 20
50.378125
 42
-0.000266
  0
VERTEX
  8
0
 10
88.394155
 20
54.500000
 42
0.009619
  0
VERTEX
  8
0
 10
87.564219
 20
58.821181
 42
0.007239
  0
VERTEX
  8
0
 10
86.491850
 20
63.539796
 42
0.007325
  0
VERTEX
  8
0
 10
85.353822
 20
67.948909
 42
0.016704
  0
VERTEX
  8
0
 10
84.336149
 20
71.231219
 42
-0.019875
  0
VERTEX
  8
0
 10
83.270782
 20
74.745985
 42
-0.023167
  0
VERTEX
  8
0
 10
82.549410
 20
78.159946
 42
-0.022706
  0
VERTEX
  8
0
 10
82.136894
 20
81.684575
 42
-0.017778
  0
VERTEX
  8
0
 10
82.000000
 20
85.533479
 42
0.000000
  0
VERTEX
  8
0
 10
82.000000
 20
93.104519
 42
0.000000
  0
VERTEX
  8
0
 10
87.122459
 20
92.802260
 42
0.000000
  0
VERTEX
  8
0
 10
92.244918
 20
92.500000
 42
0.000000
  0
VERTEX
  8
0
 10
94.199946
 20
87.500000
 42
0.030057
  0
VERTEX
  8
0
 10
96.369226
 20
82.805026
 42
0.048877
  0
VERTEX
  8
0
 10
98.812887
 20
79.160045
 42
0.058602
  0
VERTEX
  8
0
 10
101.517871
 20
76.560864
 42
0.082589
  0
VERTEX
  8
0
 10
104.473073
 20
75.008887
 42
-0.048160
  0
VERTEX
  8
0
 10
105.996225
 20
74.337767
 42
-0.027751
  0
VERTEX
  8
0
 10
107.688548
 20
73.260778
 42
-0.027514
  0
VERTEX
  8
0
 10
109.282608
 20
71.978942
 42
-0.040925
  0
VERTEX
  8
0
 10
110.511287
 20
70.677691
 42
0.010634
  0
VERTEX
  8
0
 10
112.089250
 20
68.789686
 42
0.125766
  0
VERTEX
  8
0
 10
112.869648
 20
68.252196
 42
0.267143
  0
VERTEX
  8
0
 10
113.538823
 20
68.366502
 42
0.057197
  0
VERTEX
  8
0
 10
114.387418
 20
69.250000
 42
-0.051186
  0
VERTEX
  8
0
 10
115.015258
 20
69.919545
 42
-0.044079
  0
VERTEX
  8
0
 10
115.796754
 20
70.485938
 42
-0.046295
  0
VERTEX
  8
0
 10
116.606410
 20
70.873578
 42
-0.088731
  0
VERTEX
  8
0
 10
117.313190
 20
71.000000
 42
0.083104
  0
VERTEX
  8
0
 10
119.694626
 20
71.398569
 42
0.070189
  0
VERTEX
  8
0
 10
121.972641
 20
72.560897
 42
0.070497
  0
VERTEX
  8
0
 10
123.831316
 20
74.301874
 42
0.085344
  0
VERTEX
  8
0
 10
124.990044
 20
76.387836
 42
0.026889
  0
VERTEX
  8
0
 10
125.513467
 20
78.187710
 42
0.116906
  0
VERTEX
  8
0
 10
125.509589
 20
79.290942
 42
0.127988
  0
VERTEX
  8
0
 10
125.012164
 20
80.221582
 42
0.034961
  0
VERTEX
  8
0
 10
123.789819
 20
81.372813
 42
0.066746
  0
VERTEX
  8
0
 10
122.241202
 20
82.327098
 42
0.072626
  0
VERTEX
  8
0
 10
120.539412
 20
82.805359
 42
0.042516
  0
VERTEX
  8
0
 10
118.116035
 20
82.912024
 42
0.008793
  0
VERTEX
  8
0
 10
113.850326
 20
82.661851
 42
0.000000
  0
VERTEX
  8
0
 10
106.200652
 20
82.078077
 42
0.000000
  0
VERTEX
  8
0
 10
101.850326
 20
86.916171
 42
-0.005759
  0
VERTEX
  8
0
 10
100.047324
 20
88.968390
 42
-0.005188
  0
VERTEX
  8
0
 10
98.227311
 20
91.133797
 42
-0.005204
  0
VERTEX
  8
0
 10
96.635943
 20
93.109096
 42
-0.016348
  0
VERTEX
  8
0
 10
95.625627
 20
94.480125
 42
0.077816
  0
VERTEX
  8
0
 10
93.646179
 20
96.572419
 42
0.049059
  0
VERTEX
  8
0
 10
90.790563
 20
98.361740
 42
0.048383
  0
VERTEX
  8
0
 10
87.580080
 20
99.588602
 42
0.067183
  0
VERTEX
  8
0
 10
84.532119
 20
100.000000
 42
-0.154665
  0
VERTEX
  8
0
 10
82.468426
 20
100.654006
 42
-0.329858
  0
VERTEX
  8
0
 10
81.970761
 20
102.156959
 42
-0.138173
  0
VERTEX
  8
0
 10
83.455295
 20
104.364188
 42
-0.043531
  0
VERTEX
  8
0
 10
86.729543
 20
106.687389
 42
0.007549
  0
VERTEX
  8
0
 10
88.663089
 20
107.860094
 42
0.007532
  0
VERTEX
  8
0
 10
90.561870
 20
109.091534
 42
0.007409
  0
VERTEX
  8
0
 10
92.187491
 20
110.216209
 42
0.029250
  0
VERTEX
  8
0
 10
93.134278
 20
110.979543
 42
-0.012774
  0
VERTEX
  8
0
 10
93.944528
 20
111.678047
 42
-0.006185
  0
VERTEX
  8
0
 10
95.014277
 20
112.531762
 42
-0.006129
  0
VERTEX
  8
0
 10
96.151216
 20
113.394141
 42
-0.008771
  0
VERTEX
  8
0
 10
97.181877
 20
114.128583
 42
0.073108
  0
VERTEX
  8
0
 10
98.872773
 20
115.696071
 42
0.031397
  0
VERTEX
  8
0
 10
100.651485
 20
118.216655
 42
0.030152
  0
VERTEX
  8
0
 10
102.245719
 20
121.195018
 42
0.034297
  0
VERTEX
  8
0
 10
103.393469
 20
124.220268
 42
-0.092753
  0
VERTEX
  8
0
 10
103.851260
 20
125.101702
 42
-0.243163
  0
VERTEX
  8
0
 10
104.480408
 20
125.390036
 42
-0.087566
  0
VERTEX
  8
0
 10
105.563894
 20
125.145444
 42
-0.007336
  0
VERTEX
  8
0
 10
108.207206
 20
123.992230
 42
0.027705
  0
VERTEX
  8
0
 10
110.131722
 20
123.244322
 42
0.019440
  0
VERTEX
  8
0
 10
112.368781
 20
122.609787
 42
0.019680
  0
VERTEX
  8
0
 10
114.565084
 20
122.168790
 42
0.038291
  0
VERTEX
  8
0
 10
116.346093
 20
122.021962
 42
0.045614
  0
VERTEX
  8
0
 10
119.781603
 20
122.316257
 42
0.016621
  0
VERTEX
  8
0
 10
124.563461
 20
123.334767
 42
0.015704
  0
VERTEX
  8
0
 10
129.177805
 20
124.634224
 42
0.064966
  0
VERTEX
  8
0
 10
131.798878
 20
125.854300
 42
0.132457
  0
VERTEX
  8
0
 10
132.461374
 20
126.576937
 42
0.008739
  0
VERTEX
  8
0
 10
133.729977
 20
129.130075
 42
0.012165
  0
VERTEX
  8
0
 10
135.132299
 20
132.275812
 42
0.008767
  0
VERTEX
  8
0
 10
136.548878
 20
135.848557
 42
0.011833
  0
VERTEX
  8
0
 10
138.573072
 20
141.639237
 42
0.039429
  0
VERTEX
  8
0
 10
139.505767
 20
145.555574
 42
0.032550
  0
VERTEX
  8
0
 10
139.900662
 20
149.936105
 42
0.006207
  0
VERTEX
  8
0
 10
140.000000
 20
157.937903
 42
0.009561
  0
VERTEX
  8
0
 10
139.830782
 20
166.786276
 42
0.065257
  0
VERTEX
  8
0
 10
139.100111
 20
171.079570
 42
0.164470
  0
VERTEX
  8
0
 10
137.577012
 20
173.190962
 42
0.156214
  0
VERTEX
  8
0
 10
135.050695
 20
174.000000
 42
-0.050244
  0
VERTEX
  8
0
 10
134.130738
 20
174.092679
 42
-0.015840
  0
VERTEX
  8
0
 10
132.784330
 20
174.411463
 42
-0.015644
  0
VERTEX
  8
0
 10
131.295698
 20
174.864538
 42
-0.016743
  0
VERTEX
  8
0
 10
129.872124
 20
175.400726
 42
0.034713
  0
VERTEX
  8
0
 10
128.125270
 20
175.987961
 42
0.011992
  0
VERTEX
  8
0
 10
125.532140
 20
176.597635
 42
0.011849
  0
VERTEX
  8
0
 10
122.632835
 20
177.134924
 42
0.013478
  0
VERTEX
  8
0
 10
119.833034
 20
177.508331
 42
0.013737
  0
VERTEX
  8
0
 10
115.849525
 20
177.820322
 42
0.055698
  0
VERTEX
  8
0
 10
113.423854
 20
177.673165
 42
0.062008
  0
VERTEX
  8
0
 10
111.220040
 20
177.001739
 42
0.019713
  0
VERTEX
  8
0
 10
108.137020
 20
175.478059
 42
0.028431
  0
VERTEX
  8
0
 10
103.075071
 20
172.337672
 42
0.048415
  0
VERTEX
  8
0
 10
99.298538
 20
169.098986
 42
0.056759
  0
VERTEX
  8
0
 10
96.641065
 20
165.616036
 42
0.063494
  0
VERTEX
  8
0
 10
94.953627
 20
161.750000
 42
-0.014596
  0
VERTEX
  8
0
 10
93.999867
 20
158.812257
 42
-0.121794
  0
VERTEX
  8
0
 10
93.233141
 20
157.655921
 42
-0.157715
  0
VERTEX
  8
0
 10
92.099561
 20
157.135975
 42
-0.029307
  0
VERTEX
  8
0
 10
89.781685
 20
157.000000
 42
0.000000
  0
VERTEX
  8
0
 10
86.000000
 20
157.000000
 42
0.000000
  0
VERTEX
  8
0
 10
86.000000
 20
165.603618
 42
0.015344
  0
VERTEX
  8
0
 10
85.860382
 20
170.152274
 42
0.022530
  0
VERTEX
  8
0
 10
85.435449
 20
174.130127
 42
0.022488
  0
VERTEX
  8
0
 10
84.653554
 20
178.059104
 42
0.015207
  0
VERTEX
  8
0
 10
83.427095
 20
182.459439
 42
0.000000
  0
VERTEX
  8
0
 10
80.854190
 20
190.711643
 42
0.000000
  0
VERTEX
  8
0
 10
72.576848
 20
193.855821
 42
0.013739
  0
VERTEX
  8
0
 10
68.480190
 20
195.284451
 42
0.021894
  0
VERTEX
  8
0
 10
64.899701
 20
196.253391
 42
0.025028
  0
VERTEX
  8
0
 10
61.646809
 20
196.813311
 42
0.030112
  0
VERTEX
  8
0
 10
58.549753
 20
197.000000
 42
0.016547
  0
VERTEX
  8
0
 10
55.158899
 20
196.887751
 42
0.073390
  0
VERTEX
  8
0
 10
53.214060
 20
196.467729
 42
0.086253
  0
VERTEX
  8
0
 10
51.630070
 20
195.536873
 42
0.027902
  0
SEQEND
  0
ENDSEC
  0
EOF
