  0
SECTION
  2
HEADER
  9
$ACADVER
  1
AC1006
  9
$EXTMIN
 10
0.000000
 20
0.000000
 30
0.000000
  9
$EXTMAX
 10
154.000000
 20
196.000000
 30
0.000000
  0
ENDSEC
  0
SECTION
  2
ENTITIES
  0
POLYLINE
  8
0
 66
1
 70
1
  0
VERTEX
  8
0
 10
44.500000
 20
193.520267
 42
-0.004119
  0
VERTEX
  8
0
 10
42.384086
 20
192.523182
 42
-0.003630
  0
VERTEX
  8
0
 10
40.161073
 20
191.517429
 42
-0.003648
  0
VERTEX
  8
0
 10
38.143144
 20
190.639616
 42
-0.011001
  0
VERTEX
  8
0
 10
36.750460
 20
190.081711
 42
0.062627
  0
VERTEX
  8
0
 10
35.553088
 20
189.452078
 42
0.031934
  0
VERTEX
  8
0
 10
34.222060
 20
188.390951
 42
0.031137
  0
VERTEX
  8
0
 10
32.970402
 20
187.104398
 42
0.040491
  0
VERTEX
  8
0
 10
32.004198
 20
185.774926
 42
0.124479
  0
VERTEX
  8
0
 10
29.941700
 20
179.103602
 42
0.027598
  0
VERTEX
  8
0
 10
29.978179
 20
167.054312
 42
0.022199
  0
VERTEX
  8
0
 10
31.182574
 20
155.356939
 42
0.371787
  0
VERTEX
  8
0
 10
33.914177
 20
153.000000
 42
-0.136885
  0
VERTEX
  8
0
 10
34.497948
 20
152.837130
 42
-0.014360
  0
VERTEX
  8
0
 10
35.701790
 20
152.060615
 42
-0.016936
  0
VERTEX
  8
0
 10
37.103519
 20
151.026825
 42
-0.012802
  0
VERTEX
  8
0
 10
38.572622
 20
149.802093
 42
-0.020952
  0
VERTEX
  8
0
 10
40.726414
 20
147.745028
 42
-0.100500
  0
VERTEX
  8
0
 10
41.632320
 20
146.319604
 42
-0.094835
  0
VERTEX
  8
0
 10
41.936862
 20
144.614158
 42
-0.017587
  0
VERTEX
  8
0
 10
41.784653
 20
141.416745
 42
-0.054792
  0
VERTEX
  8
0
 10
40.860936
 20
136.670363
 42
-0.030300
  0
VERTEX
  8
0
 10
38.765549
 20
131.141560
 42
-0.026411
  0
VERTEX
  8
0
 10
35.618016
 20
125.031116
 42
-0.018567
  0
VERTEX
  8
0
 10
31.472213
 20
118.500000
 42
-0.000126
  0
VERTEX
  8
0
 10
29.568092
 20
115.734475
 42
-0.000069
  0
VERTEX
  8
0
 10
27.238020
 20
112.353125
 42
-0.000069
  0
VERTEX
  8
0
 10
24.873869
 20
108.924350
 42
-0.000111
  0
VERTEX
  8
0
 10
22.855971
 20
106.000000
 42
0.012658
  0
VERTEX
  8
0
 10
18.069821
 20
98.677400
 42
0.044689
  0
VERTEX
  8
0
 10
15.555390
 20
93.656444
 42
0.061834
  0
VERTEX
  8
0
 10
14.406512
 20
89.184114
 42
0.043707
  0
VERTEX
  8
0
 10
14.195883
 20
83.996560
 42
0.007146
  0
VERTEX
  8
0
 10
14.450839
 20
79.826893
 42
0.091649
  0
VERTEX
  8
0
 10
14.848380
 20
78.321281
 42
0.200026
  0
VERTEX
  8
0
 10
15.681297
 20
77.568323
 42
0.056731
  0
VERTEX
  8
0
 10
17.418771
 20
77.167292
 42
0.069644
  0
VERTEX
  8
0
 10
20.973145
 20
77.258177
 42
0.031458
  0
VERTEX
  8
0
 10
25.524082
 20
78.311862
 42
0.025667
  0
VERTEX
  8
0
 10
30.998689
 20
80.259158
 42
0.014343
  0
VERTEX
  8
0
 10
37.451934
 20
83.154540
 42
-0.020564
  0
VERTEX
  8
0
 10
42.419969
 20
85.309726
 42
-0.032681
  0
VERTEX
  8
0
 10
46.842395
 20
86.691560
 42
-0.038235
  0
VERTEX
  8
0
 10
50.137233
 20
87.226923
 42
-0.439228
  0
VERTEX
  8
0
 10
51.000000
 20
86.434259
 42
-0.120281
  0
VERTEX
  8
0
 10
50.730951
 20
85.332018
 42
-0.021637
  0
VERTEX
  8
0
 10
49.669361
 20
83.486866
 42
-0.022975
  0
VERTEX
  8
0
 10
48.243759
 20
81.452777
 42
-0.022546
  0
VERTEX
  8
0
 10
46.629008
 20
79.544701
 42
0.047973
  0
VERTEX
  8
0
 10
45.591311
 20
78.184021
 42
0.017328
  0
VERTEX
  8
0
 10
44.379532
 20
76.072554
 42
0.017001
  0
VERTEX
  8
0
 10
43.204015
 20
73.653636
 42
0.019381
  0
VERTEX
  8
0
 10
42.250113
 20
71.262613
 42
-0.001448
  0
VERTEX
  8
0
 10
41.269547
 20
68.523228
 42
-0.000682
  0
VERTEX
  8
0
 10
39.987690
 20
64.989643
 42
-0.000676
  0
VERTEX
  8
0
 10
38.635069
 20
61.292333
 42
-0.000952
  0
VERTEX
  8
0
 10
37.418439
 20
58.000000
 42
0.018808
  0
VERTEX
  8
0
 10
35.948090
 20
53.537129
 42
0.029975
  0
VERTEX
  8
0
 10
35.068733
 20
49.617998
 42
0.023943
  0
VERTEX
  8
0
 10
34.550007
 20
45.043428
 42
0.007730
  0
VERTEX
  8
0
 10
34.211966
 20
38.229962
 42
0.006617
  0
VERTEX
  8
0
 10
34.017246
 20
28.904758
 42
0.046926
  0
VERTEX
  8
0
 10
34.406223
 20
24.400330
 42
0.081367
  0
VERTEX
  8
0
 10
35.566522
 20
21.144072
 42
0.041730
  0
VERTEX
  8
0
 10
37.977404
 20
17.528433
 42
-0.014244
  0
VERTEX
  8
0
 10
39.134795
 20
15.983678
 42
-0.017939
  0
VERTEX
  8
0
 10
40.112113
 20
14.487580
 42
-0.016223
  0
VERTEX
  8
0
 10
40.834439
 20
13.197242
 42
-0.120044
  0
VERTEX
  8
0
 10
41.000000
 20
12.517596
 42
-0.382804
  0
VERTEX
  8
0
 10
40.453353
 20
11.908221
 42
-0.015645
  0
VERTEX
  8
0
 10
37.264408
 20
11.661769
 42
-0.014286
  0
VERTEX
  8
0
 10
32.266816
 20
11.575440
 42
-0.003204
  0
VERTEX
  8
0
 10
23.750000
 20
11.726257
 42
0.002637
  0
VERTEX
  8
0
 10
13.238344
 20
11.924322
 42
0.023358
  0
VERTEX
  8
0
 10
8.604254
 20
11.770684
 42
0.054203
  0
VERTEX
  8
0
 10
5.727306
 20
11.222909
 42
0.067027
  0
VERTEX
  8
0
 10
3.250000
 20
10.085855
 42
0.064826
  0
VERTEX
  8
0
 10
1.173689
 20
8.359494
 42
0.126553
  0
VERTEX
  8
0
 10
0.156051
 20
6.478560
 42
0.159656
  0
VERTEX
  8
0
 10
0.289461
 20
4.641069
 42
0.122851
  0
VERTEX
  8
0
 10
1.487309
 20
3.010533
 42
0.176360
  0
VERTEX
  8
0
 10
4.780435
 20
1.832297
 42
0.002948
  0
VERTEX
  8
0
 10
24.454916
 20
2.057205
 42
0.002781
  0
VERTEX
  8
0
 10
44.201528
 20
2.509273
 42
0.191528
  0
VERTEX
  8
0
 10
47.202733
 20
3.802733
 42
0.137875
  0
VERTEX
  8
0
 10
48.370762
 20
5.884161
 42
0.013267
  0
VERTEX
  8
0
 10
49.597255
 20
11.615389
 42
0.017797
  0
VERTEX
  8
0
 10
50.550821
 20
17.980780
 42
0.024520
  0
VERTEX
  8
0
 10
50.921003
 20
23.750000
 42
0.000000
  0
VERTEX
  8
0
 10
51.000000
 20
29.000000
 42
0.000000
  0
VERTEX
  8
0
 10
60.000000
 20
29.000000
 42
0.000000
  0
VERTEX
  8
0
 10
69.000000
 20
29.000000
 42
0.000000
  0
VERTEX
  8
0
 10
69.000000
 20
25.966756
 42
-0.056136
  0
VERTEX
  8
0
 10
68.830825
 20
24.464670
 42
-0.019944
  0
VERTEX
  8
0
 10
68.265625
 20
22.375309
 42
-0.019501
  0
VERTEX
  8
0
 10
67.456978
 20
20.111419
 42
-0.021743
  0
VERTEX
  8
0
 10
66.500000
 20
18.000000
 42
0.056671
  0
VERTEX
  8
0
 10
64.853835
 20
13.570271
 42
0.041362
  0
VERTEX
  8
0
 10
64.017093
 20
8.382162
 42
0.041020
  0
VERTEX
  8
0
 10
64.039461
 20
3.690423
 42
0.176457
  0
VERTEX
  8
0
 10
65.200000
 20
1.200000
 42
0.178294
  0
VERTEX
  8
0
 10
66.501946
 20
0.598927
 42
0.007860
  0
VERTEX
  8
0
 10
71.557484
 20
0.275340
 42
0.009351
  0
VERTEX
  8
0
 10
78.831814
 20
0.060704
 42
0.002699
  0
VERTEX
  8
0
 10
90.077555
 20
-0.000000
 42
0.002009
  0
VERTEX
  8
0
 10
103.173471
 20
0.052619
 42
0.013409
  0
VERTEX
  8
0
 10
109.688495
 20
0.279774
 42
0.022370
  0
VERTEX
  8
0
 10
113.528853
 20
0.689937
 42
0.183763
  0
VERTEX
  8
0
 10
115.034007
 20
1.540976
 42
0.113072
  0
VERTEX
  8
0
 10
115.521220
 20
2.506000
 42
0.160413
  0
VERTEX
  8
0
 10
115.448983
 20
3.457603
 42
0.078492
  0
VERTEX
  8
0
 10
114.710709
 20
4.660285
 42
0.013400
  0
VERTEX
  8
0
 10
112.906452
 20
6.660217
 42
0.077660
  0
VERTEX
  8
0
 10
107.664629
 20
10.686444
 42
0.086305
  0
VERTEX
  8
0
 10
101.628182
 20
12.739185
 42
0.071200
  0
VERTEX
  8
0
 10
94.328734
 20
12.837342
 42
0.035419
  0
VERTEX
  8
0
 10
85.242559
 20
11.000000
 42
-0.009917
  0
VERTEX
  8
0
 10
80.559822
 20
9.801821
 42
-0.023541
  0
VERTEX
  8
0
 10
77.024787
 20
9.145431
 42
-0.025741
  0
VERTEX
  8
0
 10
74.539838
 20
8.933584
 42
-0.424082
  0
VERTEX
  8
0
 10
74.000000
 20
9.455594
 42
-0.159226
  0
VERTEX
  8
0
 10
74.431460
 20
10.776115
 42
-0.003263
  0
VERTEX
  8
0
 10
78.634855
 20
16.443849
 42
-0.008466
  0
VERTEX
  8
0
 10
82.991544
 20
22.039048
 42
-0.015488
  0
VERTEX
  8
0
 10
86.758399
 20
26.426028
 42
0.000000
  0
VERTEX
  8
0
 10
91.852695
 20
32.000000
 42
0.000000
  0
VERTEX
  8
0
 10
102.676348
 20
32.010824
 42
0.025702
  0
VERTEX
  8
0
 10
114.025816
 20
32.606001
 42
0.078078
  0
VERTEX
  8
0
 10
121.472432
 20
34.583978
 42
0.099456
  0
VERTEX
  8
0
 10
126.922047
 20
38.423115
 42
0.059540
  0
VERTEX
  8
0
 10
131.669333
 20
44.800932
 42
0.019007
  0
VERTEX
  8
0
 10
133.456400
 20
48.209227
 42
0.049802
  0
VERTEX
  8
0
 10
134.390791
 20
50.806104
 42
0.045890
  0
VERTEX
  8
0
 10
134.833739
 20
53.656721
 42
0.014206
  0
VERTEX
  8
0
 10
134.981593
 20
58.000000
 42
-0.024627
  0
VERTEX
  8
0
 10
135.310409
 20
63.987346
 42
-0.027778
  0
VERTEX
  8
0
 10
136.226059
 20
69.673920
 42
-0.030255
  0
VERTEX
  8
0
 10
137.617958
 20
74.594270
 42
-0.061042
  0
VERTEX
  8
0
 10
139.397534
 20
78.203274
 42
-0.062083
  0
VERTEX
  8
0
 10
140.471448
 20
79.467850
 42
-0.073273
  0
VERTEX
  8
0
 10
141.769081
 20
80.348880
 42
-0.057082
  0
VERTEX
  8
0
 10
143.519248
 20
80.960377
 42
-0.022556
  0
VERTEX
  8
0
 10
146.032978
 20
81.409987
 42
0.022679
  0
VERTEX
  8
0
 10
148.489532
 20
81.849989
 42
0.053566
  0
VERTEX
  8
0
 10
150.247296
 20
82.451307
 42
0.069391
  0
VERTEX
  8
0
 10
151.545736
 20
83.293127
 42
0.069360
  0
VERTEX
  8
0
 10
152.564552
 20
84.458175
 42
0.141524
  0
VERTEX
  8
0
 10
153.422110
 20
87.241664
 42
0.139390
  0
VERTEX
  8
0
 10
152.671210
 20
90.072171
 42
0.115137
  0
VERTEX
  8
0
 10
150.356489
 20
92.480536
 42
0.078391
  0
VERTEX
  8
0
 10
146.872213
 20
94.034410
 42
0.061556
  0
VERTEX
  8
0
 10
143.389135
 20
94.525522
 42
0.080722
  0
VERTEX
  8
0
 10
140.214392
 20
94.065253
 42
0.076774
  0
VERTEX
  8
0
 10
137.231603
 20
92.593683
 42
0.049931
  0
VERTEX
  8
0
 10
134.315324
 20
90.080242
 42
0.050959
  0
VERTEX
  8
0
 10
131.214736
 20
86.067347
 42
0.052488
  0
VERTEX
  8
0
 10
129.025649
 20
81.548670
 42
0.033577
  0
VERTEX
  8
0
 10
127.196773
 20
75.167516
 42
0.008338
  0
VERTEX
  8
0
 10
125.086301
 20
64.500000
 42
-0.032626
  0
VERTEX
  8
0
 10
123.818333
 20
59.404144
 42
-0.011382
  0
VERTEX
  8
0
 10
121.354473
 20
52.254385
 42
-0.010714
  0
VERTEX
  8
0
 10
118.624084
 20
45.339249
 42
-0.045672
  0
VERTEX
  8
0
 10
116.541165
 20
41.422482
 42
-0.096409
  0
VERTEX
  8
0
 10
115.140547
 20
39.984580
 42
-0.116213
  0
VERTEX
  8
0
 10
113.389814
 20
39.295607
 42
-0.038402
  0
VERTEX
  8
0
 10
110.255294
 20
39.086017
 42
-0.002608
  0
VERTEX
  8
0
 10
101.315896
 20
39.222050
 42
-0.004281
  0
VERTEX
  8
0
 10
94.242795
 20
39.427188
 42
-0.021281
  0
VERTEX
  8
0
 10
90.280307
 20
39.745314
 42
-0.035744
  0
VERTEX
  8
0
 10
87.888868
 20
40.215478
 42
-0.204029
  0
VERTEX
  8
0
 10
86.894789
 20
41.000000
 42
-0.014760
  0
VERTEX
  8
0
 10
86.401015
 20
41.970553
 42
-0.001367
  0
VERTEX
  8
0
 10
85.257697
 20
44.409375
 42
-0.001760
  0
VERTEX
  8
0
 10
83.912233
 20
47.326720
 42
-0.001380
  0
VERTEX
  8
0
 10
82.472827
 20
50.500000
 42
-0.025884
  0
VERTEX
  8
0
 10
80.187591
 20
56.368736
 42
-0.029001
  0
VERTEX
  8
0
 10
78.619608
 20
62.225557
 42
-0.021561
  0
VERTEX
  8
0
 10
77.440435
 20
69.510021
 42
-0.007200
  0
VERTEX
  8
0
 10
76.330653
 20
80.250000
 42
-0.004959
  0
VERTEX
  8
0
 10
75.980974
 20
84.686981
 42
-0.085392
  0
VERTEX
  8
0
 10
76.128206
 20
86.130515
 42
-0.256183
  0
VERTEX
  8
0
 10
76.767066
 20
86.784641
 42
-0.074041
  0
VERTEX
  8
0
 10
78.213412
 20
87.000000
 42
-0.171925
  0
VERTEX
  8
0
 10
80.838917
 20
86.069721
 42
-0.022899
  0
VERTEX
  8
0
 10
85.302405
 20
82.100653
 42
-0.023414
  0
VERTEX
  8
0
 10
90.477729
 20
76.560382
 42
-0.015124
  0
VERTEX
  8
0
 10
95.960024
 20
69.701142
 42
0.011456
  0
VERTEX
  8
0
 10
97.766831
 20
67.406215
 42
0.013218
  0
VERTEX
  8
0
 10
99.595215
 20
65.305916
 42
0.012333
  0
VERTEX
  8
0
 10
101.227306
 20
63.613973
 42
0.071959
  0
VERTEX
  8
0
 10
102.220956
 20
62.881748
 42
0.136456
  0
VERTEX
  8
0
 10
104.077496
 20
62.466279
 42
0.185585
  0
VERTEX
  8
0
 10
105.631424
 20
63.156631
 42
0.134617
  0
VERTEX
  8
0
 10
106.660640
 20
64.962123
 42
0.062702
  0
VERTEX
  8
0
 10
107.000000
 20
67.657628
 42
-0.011928
  0
VERTEX
  8
0
 10
107.048889
 20
69.706613
 42
-0.172141
  0
VERTEX
  8
0
 10
107.320277
 20
70.369376
 42
-0.307017
  0
VERTEX
  8
0
 10
107.860146
 20
70.504607
 42
-0.035282
  0
VERTEX
  8
0
 10
109.063922
 20
69.965790
 42
0.118479
  0
VERTEX
  8
0
 10
110.874993
 20
69.492649
 42
0.157590
  0
VERTEX
  8
0
 10
112.493832
 20
69.980903
 42
0.146316
  0
VERTEX
  8
0
 10
113.602086
 20
71.366380
 42
0.098141
  0
VERTEX
  8
0
 10
113.984687
 20
73.372445
 42
0.126808
  0
VERTEX
  8
0
 10
113.189193
 20
76.369216
 42
0.142777
  0
VERTEX
  8
0
 10
111.066235
 20
78.450236
 42
0.091917
  0
VERTEX
  8
0
 10
107.325995
 20
79.642018
 42
0.031297
  0
VERTEX
  8
0
 10
101.612536
 20
80.000000
 42
0.000000
  0
VERTEX
  8
0
 10
95.093589
 20
80.000000
 42
0.000000
  0
VERTEX
  8
0
 10
93.134230
 20
84.250000
 42
0.031020
  0
VERTEX
  8
0
 10
92.090478
 20
86.188099
 42
0.015170
  0
VERTEX
  8
0
 10
90.537108
 20
88.526454
 42
0.014986
  0
VERTEX
  8
0
 10
88.769317
 20
90.868013
 42
0.021008
  0
VERTEX
  8
0
 10
87.044407
 20
92.840055
 42
0.014709
  0
VERTEX
  8
0
 10
84.367328
 20
95.492208
 42
0.089261
  0
VERTEX
  8
0
 10
82.734177
 20
96.546523
 42
0.096207
  0
VERTEX
  8
0
 10
80.889081
 20
96.927044
 42
0.018447
  0
VERTEX
  8
0
 10
77.455608
 20
96.840055
 42
-0.015466
  0
VERTEX
  8
0
 10
75.363025
 20
96.774558
 42
-0.025705
  0
VERTEX
  8
0
 10
73.601060
 20
96.864566
 42
-0.023697
  0
VERTEX
  8
0
 10
72.273798
 20
97.064924
 42
-0.357990
  0
VERTEX
  8
0
 10
71.998637
 20
97.401022
 42
-0.158906
  0
VERTEX
  8
0
 10
72.195281
 20
98.001059
 42
-0.002938
  0
VERTEX
  8
0
 10
74.202861
 20
100.710193
 42
-0.006915
  0
VERTEX
  8
0
 10
76.625833
 20
103.848665
 42
-0.004529
  0
VERTEX
  8
0
 10
79.500463
 20
107.401022
 42
-0.001717
  0
VERTEX
  8
0
 10
88.295522
 20
117.996169
 42
-0.031285
  0
VERTEX
  8
0
 10
91.314213
 20
121.179794
 42
-0.102296
  0
VERTEX
  8
0
 10
93.538280
 20
122.529804
 42
-0.085625
  0
VERTEX
  8
0
 10
96.263809
 20
123.000000
 42
-0.026003
  0
VERTEX
  8
0
 10
97.695015
 20
122.925517
 42
-0.032690
  0
VERTEX
  8
0
 10
99.003431
 20
122.701799
 42
-0.034455
  0
VERTEX
  8
0
 10
100.038068
 20
122.377680
 42
-0.162599
  0
VERTEX
  8
0
 10
100.509364
 20
121.984849
 42
0.175761
  0
VERTEX
  8
0
 10
103.352899
 20
119.735493
 42
0.048346
  0
VERTEX
  8
0
 10
109.004867
 20
118.443857
 42
0.044172
  0
VERTEX
  8
0
 10
115.927064
 20
118.168435
 42
0.040708
  0
VERTEX
  8
0
 10
122.987128
 20
119.090660
 42
0.079311
  0
VERTEX
  8
0
 10
127.886963
 20
120.988595
 42
0.193570
  0
VERTEX
  8
0
 10
130.219688
 20
123.990894
 42
0.072225
  0
VERTEX
  8
0
 10
130.999994
 20
129.781955
 42
0.005218
  0
VERTEX
  8
0
 10
130.664705
 20
145.978833
 42
0.004030
  0
VERTEX
  8
0
 10
130.344077
 20
154.155300
 42
0.005611
  0
VERTEX
  8
0
 10
129.915994
 20
161.467595
 42
0.003539
  0
VERTEX
  8
0
 10
129.444771
 20
167.593080
 42
0.069980
  0
VERTEX
  8
0
 10
129.027756
 20
169.426997
 42
0.064147
  0
VERTEX
  8
0
 10
128.447727
 20
170.510681
 42
0.039591
  0
VERTEX
  8
0
 10
127.516553
 20
171.619139
 42
0.039157
  0
VERTEX
  8
0
 10
126.403037
 20
172.585347
 42
0.055645
  0
VERTEX
  8
0
 10
125.270078
 20
173.241936
 42
-0.017954
  0
VERTEX
  8
0
 10
124.160373
 20
173.777936
 42
-0.019164
  0
VERTEX
  8
0
 10
123.116437
 20
174.381480
 42
-0.019128
  0
VERTEX
  8
0
 10
122.262787
 20
174.966455
 42
-0.079580
  0
VERTEX
  8
0
 10
121.828432
 20
175.411757
 42
0.245153
  0
VERTEX
  8
0
 10
120.250125
 20
176.225120
 42
0.004811
  0
VERTEX
  8
0
 10
110.869588
 20
176.088133
 42
0.008249
  0
VERTEX
  8
0
 10
101.871907
 20
175.721534
 42
0.100329
  0
VERTEX
  8
0
 10
98.549966
 20
174.847750
 42
0.062765
  0
VERTEX
  8
0
 10
97.441114
 20
174.117195
 42
0.009885
  0
VERTEX
  8
0
 10
95.486552
 20
172.376105
 42
0.010844
  0
VERTEX
  8
0
 10
93.256034
 20
170.216888
 42
0.009281
  0
VERTEX
  8
0
 10
91.000000
 20
167.849841
 42
0.000000
  0
VERTEX
  8
0
 10
85.500000
 20
161.860439
 42
0.000000
  0
VERTEX
  8
0
 10
80.250000
 20
162.559050
 42
0.000000
  0
VERTEX
  8
0
 10
75.000000
 20
163.257661
 42
0.000000
  0
VERTEX
  8
0
 10
75.000000
 20
171.160949
 42
0.024897
  0
VERTEX
  8
0
 10
74.696762
 20
177.247133
 42
0.056671
  0
VERTEX
  8
0
 10
73.726189
 20
181.739318
 42
0.073558
  0
VERTEX
  8
0
 10
71.990211
 20
185.132743
 42
0.077433
  0
VERTEX
  8
0
 10
69.371180
 20
187.810721
 42
-0.007529
  0
VERTEX
  8
0
 10
68.125780
 20
188.771364
 42
-0.005331
  0
VERTEX
  8
0
 10
66.755909
 20
189.885363
 42
-0.005381
  0
VERTEX
  8
0
 10
65.469736
 20
190.977893
 42
-0.011328
  0
VERTEX
  8
0
 10
64.500000
 20
191.859069
 42
0.083022
  0
VERTEX
  8
0
 10
60.329771
 20
194.679012
 42
0.086728
  0
VERTEX
  8
0
 10
55.531627
 20
195.934343
 42
0.078691
  0
VERTEX
  8
0
 10
50.207013
 20
195.538586
 42
0.054393
  0
SEQEND
  0
ENDSEC
  0
EOF
