  0
SECTION
  2
HEADER
  9
$ACADVER
  1
AC1006
  9
$EXTMIN
 10
0.000000
 20
0.000000
 30
0.000000
  9
$EXTMAX
 10
148.000000
 20
200.000000
 30
0.000000
  0
ENDSEC
  0
SECTION
  2
ENTITIES
  0
POLYLINE
  8
0
 66
1
 70
1
  0
VERTEX
  8
0
 10
45.769287
 20
198.941489
 42
0.029544
  0
VERTEX
  8
0
 10
43.158723
 20
198.477177
 42
0.016230
  0
VERTEX
  8
0
 10
40.027243
 20
197.618787
 42
0.016130
  0
VERTEX
  8
0
 10
36.895319
 20
196.538117
 42
0.024770
  0
VERTEX
  8
0
 10
34.269287
 20
195.384111
 42
0.057043
  0
VERTEX
  8
0
 10
29.870873
 20
192.517867
 42
0.123797
  0
VERTEX
  8
0
 10
27.501446
 20
189.288224
 42
0.080512
  0
VERTEX
  8
0
 10
26.382330
 20
184.419547
 42
0.014944
  0
VERTEX
  8
0
 10
26.056442
 20
175.210162
 42
0.019442
  0
VERTEX
  8
0
 10
26.311933
 20
167.562315
 42
0.066830
  0
VERTEX
  8
0
 10
27.324378
 20
162.710852
 42
0.063792
  0
VERTEX
  8
0
 10
29.605822
 20
158.181550
 42
0.016656
  0
VERTEX
  8
0
 10
34.395652
 20
151.575209
 42
-0.036435
  0
VERTEX
  8
0
 10
38.167671
 20
145.914743
 42
-0.143348
  0
VERTEX
  8
0
 10
39.114249
 20
141.875856
 42
-0.144905
  0
VERTEX
  8
0
 10
37.729193
 20
137.989462
 42
-0.037516
  0
VERTEX
  8
0
 10
33.374541
 20
132.873218
 42
0.011395
  0
VERTEX
  8
0
 10
31.050294
 20
130.414866
 42
0.009808
  0
VERTEX
  8
0
 10
28.718535
 20
127.729105
 42
0.009919
  0
VERTEX
  8
0
 10
26.698624
 20
125.208189
 42
0.027930
  0
VERTEX
  8
0
 10
25.423890
 20
123.344221
 42
0.009310
  0
VERTEX
  8
0
 10
22.050624
 20
117.525253
 42
0.014145
  0
VERTEX
  8
0
 10
19.359458
 20
112.336412
 42
0.013182
  0
VERTEX
  8
0
 10
17.434191
 20
108.068844
 42
0.099688
  0
VERTEX
  8
0
 10
17.000000
 20
105.912730
 42
-0.042428
  0
VERTEX
  8
0
 10
16.904208
 20
104.785874
 42
-0.011664
  0
VERTEX
  8
0
 10
16.562544
 20
103.037016
 42
-0.011699
  0
VERTEX
  8
0
 10
16.080853
 20
101.065731
 42
-0.011969
  0
VERTEX
  8
0
 10
15.510786
 20
99.134214
 42
0.002809
  0
VERTEX
  8
0
 10
11.601858
 20
86.731446
 42
0.013307
  0
VERTEX
  8
0
 10
9.592913
 20
79.558693
 42
0.017429
  0
VERTEX
  8
0
 10
8.599538
 20
74.934744
 42
0.184640
  0
VERTEX
  8
0
 10
8.954349
 20
73.073865
 42
0.334494
  0
VERTEX
  8
0
 10
11.037151
 20
72.262109
 42
0.018515
  0
VERTEX
  8
0
 10
18.107098
 20
74.534477
 42
0.026652
  0
VERTEX
  8
0
 10
25.271632
 20
77.574593
 42
0.063086
  0
VERTEX
  8
0
 10
30.109703
 20
80.748488
 42
-0.010276
  0
VERTEX
  8
0
 10
35.386384
 20
85.068625
 42
-0.039601
  0
VERTEX
  8
0
 10
38.912779
 20
87.411107
 42
-0.062221
  0
VERTEX
  8
0
 10
41.855505
 20
88.596374
 42
-0.064744
  0
VERTEX
  8
0
 10
44.959507
 20
89.000000
 42
-0.015451
  0
VERTEX
  8
0
 10
47.511225
 20
88.921126
 42
-0.164131
  0
VERTEX
  8
0
 10
48.460622
 20
88.534020
 42
-0.193927
  0
VERTEX
  8
0
 10
48.899995
 20
87.680030
 42
-0.023023
  0
VERTEX
  8
0
 10
49.000000
 20
85.509332
 42
-0.056517
  0
VERTEX
  8
0
 10
48.782647
 20
83.592578
 42
-0.011928
  0
VERTEX
  8
0
 10
47.949174
 20
80.324118
 42
-0.012351
  0
VERTEX
  8
0
 10
46.792139
 20
76.560264
 42
-0.011436
  0
VERTEX
  8
0
 10
45.422719
 20
72.759332
 42
0.004074
  0
VERTEX
  8
0
 10
43.988995
 20
68.956443
 42
0.004260
  0
VERTEX
  8
0
 10
42.639096
 20
65.186732
 42
0.004094
  0
VERTEX
  8
0
 10
41.527628
 20
61.911447
 42
0.018757
  0
VERTEX
  8
0
 10
40.969973
 20
59.982733
 42
-0.026202
  0
VERTEX
  8
0
 10
40.383782
 20
58.062877
 42
-0.005694
  0
VERTEX
  8
0
 10
39.162795
 20
54.820236
 42
-0.005921
  0
VERTEX
  8
0
 10
37.660889
 20
51.096219
 42
-0.005639
  0
VERTEX
  8
0
 10
36.047254
 20
47.347414
 42
0.009836
  0
VERTEX
  8
0
 10
33.759970
 20
41.908321
 42
0.037095
  0
VERTEX
  8
0
 10
32.653342
 20
38.383996
 42
0.042144
  0
VERTEX
  8
0
 10
32.150822
 20
34.963118
 42
0.015406
  0
VERTEX
  8
0
 10
32.000000
 20
30.069226
 42
0.008190
  0
VERTEX
  8
0
 10
32.078041
 20
25.305434
 42
0.048660
  0
VERTEX
  8
0
 10
32.400399
 20
22.839817
 42
0.084455
  0
VERTEX
  8
0
 10
33.115665
 20
21.127833
 42
0.055339
  0
VERTEX
  8
0
 10
34.454545
 20
19.454545
 42
0.019590
  0
VERTEX
  8
0
 10
35.470946
 20
18.514816
 42
0.023867
  0
VERTEX
  8
0
 10
36.495170
 20
17.721023
 42
0.023416
  0
VERTEX
  8
0
 10
37.402150
 20
17.146343
 42
0.130216
  0
VERTEX
  8
0
 10
37.954545
 20
17.000000
 42
-0.130600
  0
VERTEX
  8
0
 10
38.353232
 20
16.894056
 42
-0.100652
  0
VERTEX
  8
0
 10
38.692898
 20
16.596094
 42
-0.088451
  0
VERTEX
  8
0
 10
38.921352
 20
16.150372
 42
-0.074435
  0
VERTEX
  8
0
 10
39.000000
 20
15.625000
 42
-0.313619
  0
VERTEX
  8
0
 10
38.120641
 20
14.360939
 42
-0.045278
  0
VERTEX
  8
0
 10
34.917397
 20
13.492717
 42
-0.024675
  0
VERTEX
  8
0
 10
29.272728
 20
12.784287
 42
-0.004766
  0
VERTEX
  8
0
 10
19.000000
 20
12.105501
 42
0.009706
  0
VERTEX
  8
0
 10
10.921438
 20
11.491482
 42
0.029191
  0
VERTEX
  8
0
 10
5.459418
 20
10.645658
 42
0.041054
  0
VERTEX
  8
0
 10
1.969343
 20
9.588714
 42
0.278923
  0
VERTEX
  8
0
 10
0.923489
 20
8.214816
 42
-0.011801
  0
VERTEX
  8
0
 10
0.872887
 20
7.828468
 42
-0.002899
  0
VERTEX
  8
0
 10
0.771045
 20
7.195915
 42
-0.002967
  0
VERTEX
  8
0
 10
0.645835
 20
6.472416
 42
-0.002961
  0
VERTEX
  8
0
 10
0.511973
 20
5.750000
 42
0.383507
  0
VERTEX
  8
0
 10
1.115687
 20
4.750284
 42
0.054386
  0
VERTEX
  8
0
 10
3.685521
 20
4.265523
 42
0.017961
  0
VERTEX
  8
0
 10
9.036239
 20
4.041401
 42
0.001486
  0
VERTEX
  8
0
 10
22.966039
 20
4.000000
 42
0.003371
  0
VERTEX
  8
0
 10
40.794516
 20
4.120207
 42
0.084310
  0
VERTEX
  8
0
 10
45.596253
 20
5.002442
 42
0.278394
  0
VERTEX
  8
0
 10
47.531446
 20
7.406170
 42
0.059515
  0
VERTEX
  8
0
 10
47.620372
 20
12.997502
 42
0.000001
  0
VERTEX
  8
0
 10
47.337972
 20
15.729845
 42
0.000001
  0
VERTEX
  8
0
 10
47.000053
 20
18.999266
 42
0.000001
  0
VERTEX
  8
0
 10
46.662151
 20
22.268450
 42
0.000001
  0
VERTEX
  8
0
 10
46.379809
 20
25.000000
 42
0.000000
  0
VERTEX
  8
0
 10
45.759618
 20
31.000000
 42
0.000000
  0
VERTEX
  8
0
 10
52.629809
 20
30.984687
 42
-0.011329
  0
VERTEX
  8
0
 10
55.358503
 20
30.916769
 42
-0.014322
  0
VERTEX
  8
0
 10
57.875023
 20
30.724681
 42
-0.012393
  0
VERTEX
  8
0
 10
59.953548
 20
30.453768
 42
-0.102998
  0
VERTEX
  8
0
 10
60.838356
 20
30.121063
 42
-0.201235
  0
VERTEX
  8
0
 10
61.494095
 20
29.180232
 42
-0.033215
  0
VERTEX
  8
0
 10
61.821018
 20
26.943343
 42
-0.021682
  0
VERTEX
  8
0
 10
61.947012
 20
23.381678
 42
-0.005150
  0
VERTEX
  8
0
 10
61.838356
 20
17.443793
 42
0.009843
  0
VERTEX
  8
0
 10
61.758815
 20
8.518385
 42
0.146767
  0
VERTEX
  8
0
 10
62.677317
 20
5.572364
 42
0.164929
  0
VERTEX
  8
0
 10
65.042124
 20
3.773873
 42
0.013276
  0
VERTEX
  8
0
 10
72.629964
 20
1.453783
 42
0.026510
  0
VERTEX
  8
0
 10
76.307842
 20
0.642223
 42
0.024393
  0
VERTEX
  8
0
 10
80.154612
 20
0.196343
 42
0.018246
  0
VERTEX
  8
0
 10
84.919567
 20
0.052728
 42
0.006763
  0
VERTEX
  8
0
 10
91.629964
 20
0.186164
 42
0.013219
  0
VERTEX
  8
0
 10
100.501517
 20
0.717725
 42
0.047371
  0
VERTEX
  8
0
 10
106.080679
 20
1.738464
 42
0.079364
  0
VERTEX
  8
0
 10
109.678630
 20
3.406105
 42
0.122351
  0
VERTEX
  8
0
 10
111.966770
 20
5.937908
 42
0.094110
  0
VERTEX
  8
0
 10
112.533528
 20
7.746162
 42
0.147713
  0
VERTEX
  8
0
 10
112.248485
 20
9.337500
 42
0.090495
  0
VERTEX
  8
0
 10
110.954190
 20
11.036370
 42
0.021260
  0
VERTEX
  8
0
 10
108.202101
 20
13.339124
 42
0.078366
  0
VERTEX
  8
0
 10
104.805234
 20
15.185212
 42
0.100649
  0
VERTEX
  8
0
 10
101.292359
 20
15.683050
 42
0.051860
  0
VERTEX
  8
0
 10
96.284680
 20
14.857080
 42
0.008051
  0
VERTEX
  8
0
 10
86.627011
 20
12.046504
 42
-0.010191
  0
VERTEX
  8
0
 10
82.554829
 20
10.880294
 42
-0.010538
  0
VERTEX
  8
0
 10
78.483496
 20
9.894910
 42
-0.010305
  0
VERTEX
  8
0
 10
74.926435
 20
9.189477
 42
-0.043820
  0
VERTEX
  8
0
 10
72.768603
 20
9.000000
 42
-0.011580
  0
VERTEX
  8
0
 10
70.263306
 20
9.058029
 42
-0.161750
  0
VERTEX
  8
0
 10
69.432233
 20
9.377544
 42
-0.256493
  0
VERTEX
  8
0
 10
69.157802
 20
10.062893
 42
-0.031164
  0
VERTEX
  8
0
 10
69.464502
 20
11.714589
 42
-0.032002
  0
VERTEX
  8
0
 10
69.846841
 20
12.908639
 42
-0.019892
  0
VERTEX
  8
0
 10
70.438328
 20
14.256063
 42
-0.019934
  0
VERTEX
  8
0
 10
71.130870
 20
15.544217
 42
-0.033742
  0
VERTEX
  8
0
 10
71.822910
 20
16.554440
 42
-0.002186
  0
VERTEX
  8
0
 10
77.644486
 20
23.865785
 42
-0.009921
  0
VERTEX
  8
0
 10
81.138675
 20
28.042509
 42
-0.013553
  0
VERTEX
  8
0
 10
83.510286
 20
30.621151
 42
-0.105538
  0
VERTEX
  8
0
 10
84.860226
 20
31.524608
 42
-0.056578
  0
VERTEX
  8
0
 10
85.948119
 20
31.821551
 42
-0.004852
  0
VERTEX
  8
0
 10
88.808941
 20
32.235569
 42
-0.006361
  0
VERTEX
  8
0
 10
92.241951
 20
32.654033
 42
-0.004889
  0
VERTEX
  8
0
 10
96.000000
 20
33.026531
 42
0.025667
  0
VERTEX
  8
0
 10
104.735050
 20
34.260550
 42
0.046671
  0
VERTEX
  8
0
 10
111.647770
 20
36.285363
 42
0.053297
  0
VERTEX
  8
0
 10
117.422335
 20
39.326304
 42
0.047586
  0
VERTEX
  8
0
 10
122.667236
 20
43.622600
 42
0.019531
  0
VERTEX
  8
0
 10
125.490457
 20
46.651076
 42
0.043852
  0
VERTEX
  8
0
 10
127.324006
 20
49.199776
 42
0.042764
  0
VERTEX
  8
0
 10
128.711719
 20
52.068846
 42
0.017750
  0
VERTEX
  8
0
 10
130.106401
 20
56.146811
 42
-0.012008
  0
VERTEX
  8
0
 10
131.199486
 20
59.466944
 42
-0.007044
  0
VERTEX
  8
0
 10
132.658182
 20
63.387963
 42
-0.007042
  0
VERTEX
  8
0
 10
134.228347
 20
67.270304
 42
-0.011899
  0
VERTEX
  8
0
 10
135.666527
 20
70.471788
 42
0.012745
  0
VERTEX
  8
0
 10
136.943063
 20
73.326348
 42
0.014260
  0
VERTEX
  8
0
 10
138.022430
 20
76.138276
 42
0.013640
  0
VERTEX
  8
0
 10
138.804579
 20
78.574016
 42
0.070423
  0
VERTEX
  8
0
 10
139.005577
 20
79.971788
 42
-0.046209
  0
VERTEX
  8
0
 10
139.379996
 20
83.919679
 42
-0.059569
  0
VERTEX
  8
0
 10
140.476241
 20
87.390787
 42
-0.066681
  0
VERTEX
  8
0
 10
142.220592
 20
90.185050
 42
-0.086847
  0
VERTEX
  8
0
 10
144.510779
 20
92.138861
 42
0.056554
  0
VERTEX
  8
0
 10
146.599901
 20
93.713984
 42
0.190213
  0
VERTEX
  8
0
 10
147.309524
 20
95.237738
 42
0.246450
  0
VERTEX
  8
0
 10
146.713319
 20
96.560829
 42
0.089445
  0
VERTEX
  8
0
 10
144.835447
 20
97.552227
 42
0.192993
  0
VERTEX
  8
0
 10
139.787307
 20
97.178149
 42
0.099751
  0
VERTEX
  8
0
 10
134.683820
 20
93.265252
 42
0.080855
  0
VERTEX
  8
0
 10
130.627979
 20
86.745216
 42
0.071734
  0
VERTEX
  8
0
 10
128.634623
 20
79.000000
 42
-0.029978
  0
VERTEX
  8
0
 10
127.758120
 20
73.851115
 42
-0.026587
  0
VERTEX
  8
0
 10
126.246652
 20
68.628562
 42
-0.024964
  0
VERTEX
  8
0
 10
124.081845
 20
63.283108
 42
-0.020065
  0
VERTEX
  8
0
 10
121.245272
 20
57.765149
 42
0.005752
  0
VERTEX
  8
0
 10
120.001971
 20
55.507863
 42
0.008180
  0
VERTEX
  8
0
 10
118.953299
 20
53.471668
 42
0.005025
  0
VERTEX
  8
0
 10
118.121251
 20
51.745574
 42
0.110225
  0
VERTEX
  8
0
 10
118.000000
 20
51.202240
 42
-0.194229
  0
VERTEX
  8
0
 10
117.550122
 20
50.087817
 42
-0.014735
  0
VERTEX
  8
0
 10
115.179355
 20
47.770644
 42
-0.021199
  0
VERTEX
  8
0
 10
112.544435
 20
45.541779
 42
-0.046313
  0
VERTEX
  8
0
 10
110.315741
 20
44.122186
 42
-0.111619
  0
VERTEX
  8
0
 10
106.279142
 20
43.081673
 42
-0.009442
  0
VERTEX
  8
0
 10
95.476653
 20
42.962015
 42
-0.006959
  0
VERTEX
  8
0
 10
84.423319
 20
43.202179
 42
-0.189666
  0
VERTEX
  8
0
 10
81.798017
 20
44.344840
 42
-0.113531
  0
VERTEX
  8
0
 10
81.204152
 20
45.293533
 42
-0.014313
  0
VERTEX
  8
0
 10
80.473796
 20
47.616774
 42
-0.016214
  0
VERTEX
  8
0
 10
79.765013
 20
50.469372
 42
-0.012812
  0
VERTEX
  8
0
 10
79.178529
 20
53.594840
 42
0.003434
  0
VERTEX
  8
0
 10
77.428372
 20
63.994047
 42
0.014744
  0
VERTEX
  8
0
 10
76.161586
 20
70.145651
 42
0.024333
  0
VERTEX
  8
0
 10
74.913106
 20
74.467327
 42
0.032950
  0
VERTEX
  8
0
 10
73.346559
 20
78.216756
 42
-0.018993
  0
VERTEX
  8
0
 10
72.448352
 20
80.208481
 42
-0.018166
  0
VERTEX
  8
0
 10
71.689302
 20
82.292106
 42
-0.018450
  0
VERTEX
  8
0
 10
71.154889
 20
84.178051
 42
-0.059879
  0
VERTEX
  8
0
 10
71.000000
 20
85.466756
 42
-0.044361
  0
VERTEX
  8
0
 10
71.117933
 20
86.793386
 42
-0.165510
  0
VERTEX
  8
0
 10
71.517894
 20
87.516253
 42
-0.152665
  0
VERTEX
  8
0
 10
72.298606
 20
87.878459
 42
-0.036086
  0
VERTEX
  8
0
 10
73.750000
 20
87.964565
 42
-0.040678
  0
VERTEX
  8
0
 10
74.984475
 20
87.847936
 42
-0.024140
  0
VERTEX
  8
0
 10
76.426563
 20
87.519732
 42
-0.024057
  0
VERTEX
  8
0
 10
77.842674
 20
87.050208
 42
-0.037782
  0
VERTEX
  8
0
 10
79.000000
 20
86.500000
 42
0.038330
  0
VERTEX
  8
0
 10
80.160671
 20
85.949757
 42
0.024094
  0
VERTEX
  8
0
 10
81.587464
 20
85.480268
 42
0.024146
  0
VERTEX
  8
0
 10
83.044863
 20
85.152174
 42
0.040143
  0
VERTEX
  8
0
 10
84.297749
 20
85.035435
 42
-0.122733
  0
VERTEX
  8
0
 10
86.837572
 20
84.368184
 42
-0.075065
  0
VERTEX
  8
0
 10
89.315262
 20
82.480703
 42
-0.046287
  0
VERTEX
  8
0
 10
92.076673
 20
79.047930
 42
-0.013936
  0
VERTEX
  8
0
 10
95.622441
 20
73.355157
 42
0.024079
  0
VERTEX
  8
0
 10
98.623266
 20
68.748171
 42
0.077668
  0
VERTEX
  8
0
 10
101.187849
 20
66.158380
 42
0.146852
  0
VERTEX
  8
0
 10
103.458287
 20
65.345922
 42
0.188369
  0
VERTEX
  8
0
 10
105.546808
 20
66.038847
 42
0.081249
  0
VERTEX
  8
0
 10
106.251749
 20
66.849224
 42
0.086479
  0
VERTEX
  8
0
 10
106.642981
 20
67.825178
 42
0.068016
  0
VERTEX
  8
0
 10
106.733495
 20
69.064501
 42
0.030641
  0
VERTEX
  8
0
 10
106.531109
 20
70.685869
 42
0.000000
  0
VERTEX
  8
0
 10
105.909374
 20
74.000000
 42
0.000000
  0
VERTEX
  8
0
 10
111.372899
 20
74.000000
 42
0.015168
  0
VERTEX
  8
0
 10
115.680625
 20
74.130712
 42
0.066596
  0
VERTEX
  8
0
 10
118.171993
 20
74.619326
 42
0.138774
  0
VERTEX
  8
0
 10
119.497854
 20
75.531167
 42
0.174892
  0
VERTEX
  8
0
 10
120.000000
 20
76.922848
 42
0.230113
  0
VERTEX
  8
0
 10
118.911221
 20
79.163327
 42
0.068186
  0
VERTEX
  8
0
 10
115.530654
 20
81.143754
 42
0.055259
  0
VERTEX
  8
0
 10
110.752863
 20
82.535054
 42
0.043130
  0
VERTEX
  8
0
 10
105.363845
 20
83.003738
 42
-0.035973
  0
VERTEX
  8
0
 10
99.460099
 20
83.432266
 42
-0.099291
  0
VERTEX
  8
0
 10
95.550629
 20
84.825340
 42
-0.115646
  0
VERTEX
  8
0
 10
92.829028
 20
87.467069
 42
-0.058925
  0
VERTEX
  8
0
 10
90.734425
 20
91.777791
 42
0.063555
  0
VERTEX
  8
0
 10
88.772565
 20
95.722331
 42
0.086443
  0
VERTEX
  8
0
 10
86.036881
 20
98.595275
 42
0.073625
  0
VERTEX
  8
0
 10
82.141961
 20
100.674899
 42
0.034184
  0
VERTEX
  8
0
 10
76.612079
 20
102.235724
 42
-0.023754
  0
VERTEX
  8
0
 10
72.704384
 20
103.251245
 42
-0.372540
  0
VERTEX
  8
0
 10
72.031065
 20
104.335244
 42
-0.231676
  0
VERTEX
  8
0
 10
72.956970
 20
105.652361
 42
-0.012980
  0
VERTEX
  8
0
 10
77.529203
 20
108.014137
 42
0.049417
  0
VERTEX
  8
0
 10
81.833827
 20
110.650921
 42
0.045560
  0
VERTEX
  8
0
 10
85.666881
 20
114.146664
 42
0.045640
  0
VERTEX
  8
0
 10
88.797258
 20
118.272019
 42
0.050011
  0
VERTEX
  8
0
 10
91.017532
 20
122.776405
 42
0.005510
  0
VERTEX
  8
0
 10
91.776835
 20
124.876039
 42
0.007335
  0
VERTEX
  8
0
 10
92.417650
 20
126.801286
 42
0.005372
  0
VERTEX
  8
0
 10
92.911569
 20
128.421488
 42
0.071410
  0
VERTEX
  8
0
 10
93.000000
 20
129.037513
 42
-0.304467
  0
VERTEX
  8
0
 10
93.561992
 20
129.874869
 42
-0.220774
  0
VERTEX
  8
0
 10
94.718055
 20
129.821676
 42
-0.089400
  0
VERTEX
  8
0
 10
96.365003
 20
128.546420
 42
-0.050178
  0
VERTEX
  8
0
 10
97.867499
 20
126.500000
 42
0.000000
  0
VERTEX
  8
0
 10
99.932549
 20
123.000000
 42
0.000000
  0
VERTEX
  8
0
 10
108.498393
 20
123.000000
 42
0.021642
  0
VERTEX
  8
0
 10
114.930926
 20
123.278550
 42
0.056698
  0
VERTEX
  8
0
 10
119.455047
 20
124.194824
 42
0.065665
  0
VERTEX
  8
0
 10
123.262761
 20
126.007208
 42
0.037765
  0
VERTEX
  8
0
 10
127.311656
 20
129.090838
 42
0.057762
  0
VERTEX
  8
0
 10
131.129779
 20
133.365695
 42
0.027532
  0
VERTEX
  8
0
 10
135.042855
 20
139.626939
 42
0.026229
  0
VERTEX
  8
0
 10
138.129706
 20
145.999612
 42
0.099990
  0
VERTEX
  8
0
 10
139.000000
 20
150.308009
 42
0.041115
  0
VERTEX
  8
0
 10
138.749989
 20
153.343237
 42
0.039628
  0
VERTEX
  8
0
 10
138.006343
 20
156.335561
 42
0.041862
  0
VERTEX
  8
0
 10
136.867024
 20
158.982402
 42
0.067228
  0
VERTEX
  8
0
 10
135.432525
 20
160.973169
 42
-0.019003
  0
VERTEX
  8
0
 10
134.584848
 20
161.938382
 42
-0.002349
  0
VERTEX
  8
0
 10
132.828185
 20
164.119787
 42
-0.002772
  0
VERTEX
  8
0
 10
130.767392
 20
166.733198
 42
-0.002289
  0
VERTEX
  8
0
 10
128.599038
 20
169.540999
 42
0.034795
  0
VERTEX
  8
0
 10
123.263957
 20
175.592280
 42
0.117184
  0
VERTEX
  8
0
 10
118.783117
 20
178.310913
 42
0.100724
  0
VERTEX
  8
0
 10
113.173537
 20
178.937707
 42
0.022058
  0
VERTEX
  8
0
 10
103.500000
 20
177.637547
 42
0.028895
  0
VERTEX
  8
0
 10
97.656649
 20
176.235517
 42
0.075461
  0
VERTEX
  8
0
 10
93.766065
 20
174.385364
 42
0.085450
  0
VERTEX
  8
0
 10
90.882742
 20
171.617248
 42
0.045021
  0
VERTEX
  8
0
 10
88.300203
 20
167.360397
 42
-0.027443
  0
VERTEX
  8
0
 10
86.444682
 20
164.044775
 42
-0.115169
  0
VERTEX
  8
0
 10
84.826539
 20
162.455524
 42
-0.184526
  0
VERTEX
  8
0
 10
83.111192
 20
162.139631
 42
-0.095603
  0
VERTEX
  8
0
 10
81.052796
 20
162.946208
 42
-0.175420
  0
VERTEX
  8
0
 10
80.345159
 20
163.859112
 42
-0.050105
  0
VERTEX
  8
0
 10
79.962175
 20
165.638760
 42
-0.028641
  0
VERTEX
  8
0
 10
79.805124
 20
168.513540
 42
-0.006602
  0
VERTEX
  8
0
 10
79.882291
 20
173.368168
 42
0.000000
  0
VERTEX
  8
0
 10
80.158988
 20
182.874546
 42
0.000000
  0
VERTEX
  8
0
 10
75.899204
 20
185.563630
 42
0.010455
  0
VERTEX
  8
0
 10
74.012228
 20
186.700358
 42
0.007522
  0
VERTEX
  8
0
 10
71.861084
 20
187.893009
 42
0.007601
  0
VERTEX
  8
0
 10
69.779275
 20
188.966236
 42
0.016254
  0
VERTEX
  8
0
 10
68.134238
 20
189.717272
 42
-0.022364
  0
VERTEX
  8
0
 10
66.408701
 20
190.530673
 42
-0.008017
  0
VERTEX
  8
0
 10
64.024122
 20
191.837259
 42
-0.007935
  0
VERTEX
  8
0
 10
61.451941
 20
193.355278
 42
-0.009311
  0
VERTEX
  8
0
 10
59.064527
 20
194.877635
 42
0.005477
  0
VERTEX
  8
0
 10
54.053624
 20
198.127205
 42
0.067031
  0
VERTEX
  8
0
 10
51.983189
 20
199.078015
 42
0.090263
  0
VERTEX
  8
0
 10
49.933649
 20
199.318093
 42
0.013380
  0
SEQEND
  0
ENDSEC
  0
EOF
