  0
SECTION
  2
HEADER
  9
$ACADVER
  1
AC1006
  9
$EXTMIN
 10
0.000000
 20
0.000000
 30
0.000000
  9
$EXTMAX
 10
145.000000
 20
198.000000
 30
0.000000
  0
ENDSEC
  0
SECTION
  2
ENTITIES
  0
POLYLINE
  8
0
 66
1
 70
1
  0
VERTEX
  8
0
 10
36.043554
 20
195.485873
 42
0.019996
  0
VERTEX
  8
0
 10
30.883684
 20
193.205860
 42
0.067735
  0
VERTEX
  8
0
 10
27.833796
 20
191.157934
 42
0.076520
  0
VERTEX
  8
0
 10
25.641009
 20
188.509014
 42
0.030337
  0
VERTEX
  8
0
 10
23.461813
 20
184.303347
 42
0.052875
  0
VERTEX
  8
0
 10
20.600241
 20
175.423898
 42
0.091119
  0
VERTEX
  8
0
 10
20.411569
 20
167.683825
 42
0.104623
  0
VERTEX
  8
0
 10
22.926134
 20
161.120113
 42
0.089022
  0
VERTEX
  8
0
 10
28.001663
 20
155.692822
 42
-0.014066
  0
VERTEX
  8
0
 10
30.861100
 20
153.430062
 42
-0.073537
  0
VERTEX
  8
0
 10
32.190945
 20
151.933331
 42
-0.103435
  0
VERTEX
  8
0
 10
32.806718
 20
150.361962
 42
-0.041860
  0
VERTEX
  8
0
 10
33.000000
 20
148.057334
 42
-0.038430
  0
VERTEX
  8
0
 10
32.853705
 20
146.156776
 42
-0.046180
  0
VERTEX
  8
0
 10
32.417368
 20
144.418534
 42
-0.047087
  0
VERTEX
  8
0
 10
31.678701
 20
142.817800
 42
-0.042720
  0
VERTEX
  8
0
 10
30.632494
 20
141.326725
 42
0.048949
  0
VERTEX
  8
0
 10
27.467476
 20
136.694458
 42
0.018981
  0
VERTEX
  8
0
 10
23.989366
 20
129.737805
 42
0.015144
  0
VERTEX
  8
0
 10
20.132183
 20
120.495882
 42
0.007400
  0
VERTEX
  8
0
 10
15.749342
 20
108.500000
 42
0.001408
  0
VERTEX
  8
0
 10
13.382083
 20
101.648737
 42
0.001638
  0
VERTEX
  8
0
 10
11.171088
 20
95.121174
 42
0.001453
  0
VERTEX
  8
0
 10
9.334379
 20
89.586247
 42
0.009836
  0
VERTEX
  8
0
 10
8.487526
 20
86.827401
 42
-0.008409
  0
VERTEX
  8
0
 10
7.901104
 20
84.897362
 42
-0.008080
  0
VERTEX
  8
0
 10
7.242664
 20
82.962142
 42
-0.008036
  0
VERTEX
  8
0
 10
6.607337
 20
81.275202
 42
-0.028793
  0
VERTEX
  8
0
 10
6.123412
 20
80.230597
 42
0.043424
  0
VERTEX
  8
0
 10
5.717560
 20
79.282856
 42
0.089711
  0
VERTEX
  8
0
 10
5.606395
 20
78.487502
 42
0.106414
  0
VERTEX
  8
0
 10
5.785212
 20
77.793293
 42
0.080489
  0
VERTEX
  8
0
 10
6.246804
 20
77.153196
 42
0.108868
  0
VERTEX
  8
0
 10
7.592301
 20
76.293588
 42
0.148251
  0
VERTEX
  8
0
 10
9.021483
 20
76.211638
 42
0.071534
  0
VERTEX
  8
0
 10
10.996224
 20
77.000157
 42
0.011473
  0
VERTEX
  8
0
 10
14.554219
 20
79.160464
 42
-0.018509
  0
VERTEX
  8
0
 10
16.913408
 20
80.547845
 42
-0.009564
  0
VERTEX
  8
0
 10
19.956552
 20
82.114632
 42
-0.009495
  0
VERTEX
  8
0
 10
23.150697
 20
83.608031
 42
-0.014201
  0
VERTEX
  8
0
 10
26.000000
 20
84.779108
 42
-0.023338
  0
VERTEX
  8
0
 10
32.044171
 20
86.747862
 42
-0.017640
  0
VERTEX
  8
0
 10
38.836774
 20
88.359429
 42
-0.009115
  0
VERTEX
  8
0
 10
45.153056
 20
89.505154
 42
-0.462260
  0
VERTEX
  8
0
 10
46.000000
 20
88.784817
 42
-0.110646
  0
VERTEX
  8
0
 10
45.480354
 20
86.465318
 42
-0.005748
  0
VERTEX
  8
0
 10
42.116474
 20
79.542006
 42
-0.007940
  0
VERTEX
  8
0
 10
38.641086
 20
72.860909
 42
-0.061737
  0
VERTEX
  8
0
 10
36.606428
 20
70.004002
 42
0.058588
  0
VERTEX
  8
0
 10
32.610027
 20
64.466435
 42
0.031064
  0
VERTEX
  8
0
 10
28.954469
 20
56.820611
 42
0.030048
  0
VERTEX
  8
0
 10
26.091907
 20
48.291198
 42
0.036298
  0
VERTEX
  8
0
 10
24.487395
 20
40.000000
 42
0.059886
  0
VERTEX
  8
0
 10
24.492429
 20
35.146691
 42
0.046180
  0
VERTEX
  8
0
 10
25.612182
 20
29.968402
 42
0.045493
  0
VERTEX
  8
0
 10
27.691648
 20
24.997131
 42
0.053151
  0
VERTEX
  8
0
 10
30.550886
 20
20.757156
 42
-0.039119
  0
VERTEX
  8
0
 10
32.732787
 20
17.709317
 42
-0.349336
  0
VERTEX
  8
0
 10
32.534842
 20
16.184074
 42
-0.164703
  0
VERTEX
  8
0
 10
30.581953
 20
15.257293
 42
-0.010707
  0
VERTEX
  8
0
 10
24.250000
 20
14.652614
 42
0.015520
  0
VERTEX
  8
0
 10
17.839659
 20
13.978133
 42
0.018944
  0
VERTEX
  8
0
 10
11.900054
 20
12.935600
 42
0.020752
  0
VERTEX
  8
0
 10
6.852153
 20
11.629794
 42
0.049231
  0
VERTEX
  8
0
 10
3.271597
 20
10.145354
 42
0.088876
  0
VERTEX
  8
0
 10
1.767832
 20
8.957212
 42
0.073088
  0
VERTEX
  8
0
 10
0.646928
 20
7.242285
 42
0.080462
  0
VERTEX
  8
0
 10
0.147908
 20
5.456011
 42
0.167906
  0
VERTEX
  8
0
 10
0.460461
 20
4.063976
 42
0.266719
  0
VERTEX
  8
0
 10
2.031715
 20
3.213902
 42
0.001651
  0
VERTEX
  8
0
 10
18.764629
 20
3.694002
 42
0.002356
  0
VERTEX
  8
0
 10
35.157526
 20
4.295836
 42
0.158134
  0
VERTEX
  8
0
 10
37.750000
 20
5.257112
 42
0.174886
  0
VERTEX
  8
0
 10
38.324424
 20
6.181990
 42
0.024106
  0
VERTEX
  8
0
 10
38.694152
 20
8.454220
 42
0.020501
  0
VERTEX
  8
0
 10
38.929164
 20
11.708002
 42
0.007776
  0
VERTEX
  8
0
 10
39.000000
 20
16.262202
 42
-0.017799
  0
VERTEX
  8
0
 10
39.288964
 20
24.377070
 42
-0.186545
  0
VERTEX
  8
0
 10
40.680503
 20
27.332590
 42
-0.175960
  0
VERTEX
  8
0
 10
43.738187
 20
28.674498
 42
-0.015492
  0
VERTEX
  8
0
 10
52.317388
 20
28.968197
 42
-0.003688
  0
VERTEX
  8
0
 10
58.257876
 20
28.943629
 42
-0.044751
  0
VERTEX
  8
0
 10
60.524009
 20
28.714077
 42
-0.192584
  0
VERTEX
  8
0
 10
61.408495
 20
28.146020
 42
-0.235914
  0
VERTEX
  8
0
 10
61.559352
 20
27.187002
 42
0.040764
  0
VERTEX
  8
0
 10
61.289406
 20
26.012145
 42
0.003816
  0
VERTEX
  8
0
 10
60.884617
 20
23.070255
 42
0.004878
  0
VERTEX
  8
0
 10
60.462307
 20
19.548622
 42
0.003816
  0
VERTEX
  8
0
 10
60.070423
 20
15.718459
 42
-0.005193
  0
VERTEX
  8
0
 10
59.673699
 20
11.943722
 42
-0.007352
  0
VERTEX
  8
0
 10
59.236377
 20
8.593612
 42
-0.004507
  0
VERTEX
  8
0
 10
58.803561
 20
5.796590
 42
-0.098072
  0
VERTEX
  8
0
 10
58.513911
 20
5.022509
 42
0.097478
  0
VERTEX
  8
0
 10
58.311321
 20
4.483025
 42
0.040331
  0
VERTEX
  8
0
 10
58.245419
 20
3.702851
 42
0.037926
  0
VERTEX
  8
0
 10
58.308535
 20
2.829757
 42
0.039859
  0
VERTEX
  8
0
 10
58.502840
 20
1.991051
 42
0.236991
  0
VERTEX
  8
0
 10
59.632652
 20
0.832240
 42
0.062124
  0
VERTEX
  8
0
 10
62.248018
 20
0.278665
 42
0.019696
  0
VERTEX
  8
0
 10
67.501834
 20
0.041511
 42
0.001431
  0
VERTEX
  8
0
 10
82.010684
 20
0.000000
 42
0.001481
  0
VERTEX
  8
0
 10
96.627138
 20
0.043285
 42
0.020115
  0
VERTEX
  8
0
 10
101.951913
 20
0.289186
 42
0.061703
  0
VERTEX
  8
0
 10
104.737292
 20
0.881769
 42
0.158024
  0
VERTEX
  8
0
 10
106.363562
 20
2.108670
 42
0.071319
  0
VERTEX
  8
0
 10
107.051462
 20
3.467548
 42
0.152109
  0
VERTEX
  8
0
 10
107.079792
 20
4.632392
 42
0.076969
  0
VERTEX
  8
0
 10
106.403674
 20
6.101883
 42
0.009532
  0
VERTEX
  8
0
 10
104.396876
 20
9.010656
 42
0.014224
  0
VERTEX
  8
0
 10
102.964178
 20
10.889682
 42
0.017022
  0
VERTEX
  8
0
 10
101.507015
 20
12.571603
 42
0.015891
  0
VERTEX
  8
0
 10
100.198692
 20
13.894813
 42
0.098534
  0
VERTEX
  8
0
 10
99.394823
 20
14.401987
 42
0.077052
  0
VERTEX
  8
0
 10
98.295619
 20
14.639272
 42
0.003977
  0
VERTEX
  8
0
 10
94.659665
 20
14.824334
 42
0.006241
  0
VERTEX
  8
0
 10
90.316732
 20
14.956476
 42
0.004484
  0
VERTEX
  8
0
 10
85.463526
 20
15.000000
 42
0.000000
  0
VERTEX
  8
0
 10
73.090626
 20
15.000000
 42
0.000000
  0
VERTEX
  8
0
 10
72.435255
 20
18.493427
 42
-0.049374
  0
VERTEX
  8
0
 10
72.132038
 20
21.978820
 42
-0.083505
  0
VERTEX
  8
0
 10
72.651213
 20
24.856216
 42
-0.077324
  0
VERTEX
  8
0
 10
74.122724
 20
27.553157
 42
-0.037026
  0
VERTEX
  8
0
 10
76.754252
 20
30.506520
 42
0.000000
  0
VERTEX
  8
0
 10
80.500000
 20
34.130973
 42
0.000000
  0
VERTEX
  8
0
 10
92.124854
 20
33.485224
 42
0.004955
  0
VERTEX
  8
0
 10
99.365895
 20
33.154935
 42
0.037210
  0
VERTEX
  8
0
 10
102.793978
 20
33.287713
 42
0.062603
  0
VERTEX
  8
0
 10
105.407759
 20
33.922201
 42
0.028477
  0
VERTEX
  8
0
 10
108.624854
 20
35.359338
 42
0.037022
  0
VERTEX
  8
0
 10
113.768378
 20
38.520435
 42
0.062744
  0
VERTEX
  8
0
 10
117.460220
 20
41.962521
 42
0.055627
  0
VERTEX
  8
0
 10
120.462616
 20
46.506101
 42
0.023203
  0
VERTEX
  8
0
 10
123.504947
 20
53.203402
 42
0.013177
  0
VERTEX
  8
0
 10
125.338589
 20
58.170443
 42
0.022034
  0
VERTEX
  8
0
 10
126.582960
 20
62.445851
 42
0.022944
  0
VERTEX
  8
0
 10
127.413565
 20
66.689415
 42
0.015920
  0
VERTEX
  8
0
 10
127.977219
 20
71.544745
 42
-0.019423
  0
VERTEX
  8
0
 10
128.884402
 20
78.908588
 42
-0.072411
  0
VERTEX
  8
0
 10
130.287141
 20
83.348923
 42
-0.114231
  0
VERTEX
  8
0
 10
132.502750
 20
86.099829
 42
-0.093822
  0
VERTEX
  8
0
 10
135.859832
 20
87.839859
 42
0.070719
  0
VERTEX
  8
0
 10
139.345329
 20
89.448094
 42
0.063826
  0
VERTEX
  8
0
 10
142.382500
 20
92.011368
 42
0.078140
  0
VERTEX
  8
0
 10
144.160879
 20
94.688372
 42
0.288403
  0
VERTEX
  8
0
 10
143.907142
 20
96.611887
 42
0.149053
  0
VERTEX
  8
0
 10
142.254640
 20
97.699629
 42
0.109869
  0
VERTEX
  8
0
 10
140.055835
 20
97.847963
 42
0.073133
  0
VERTEX
  8
0
 10
137.244297
 20
96.985924
 42
0.030425
  0
VERTEX
  8
0
 10
133.759914
 20
95.062696
 42
0.032923
  0
VERTEX
  8
0
 10
130.125870
 20
92.407512
 42
0.068389
  0
VERTEX
  8
0
 10
127.769777
 20
89.813713
 42
0.057585
  0
VERTEX
  8
0
 10
125.965727
 20
86.397017
 42
0.017799
  0
VERTEX
  8
0
 10
124.048984
 20
80.894016
 42
-0.010364
  0
VERTEX
  8
0
 10
123.054090
 20
77.894853
 42
-0.005841
  0
VERTEX
  8
0
 10
121.729556
 20
74.296599
 42
-0.005828
  0
VERTEX
  8
0
 10
120.307597
 20
70.695233
 42
-0.009498
  0
VERTEX
  8
0
 10
119.007971
 20
67.677851
 42
0.008375
  0
VERTEX
  8
0
 10
117.856119
 20
65.020005
 42
0.010549
  0
VERTEX
  8
0
 10
116.883591
 20
62.520750
 42
0.008829
  0
VERTEX
  8
0
 10
116.153623
 20
60.405789
 42
0.078834
  0
VERTEX
  8
0
 10
116.000000
 20
59.437503
 42
-0.160414
  0
VERTEX
  8
0
 10
115.030386
 20
56.493059
 42
-0.022757
  0
VERTEX
  8
0
 10
110.960528
 20
51.478135
 42
-0.026731
  0
VERTEX
  8
0
 10
106.240128
 20
46.713159
 42
-0.068472
  0
VERTEX
  8
0
 10
102.241320
 20
43.977911
 42
-0.031308
  0
VERTEX
  8
0
 10
99.362385
 20
42.758709
 42
-0.042205
  0
VERTEX
  8
0
 10
96.624855
 20
42.049090
 42
-0.031318
  0
VERTEX
  8
0
 10
93.241859
 20
41.686883
 42
-0.009489
  0
VERTEX
  8
0
 10
88.079252
 20
41.557442
 42
0.000000
  0
VERTEX
  8
0
 10
78.648685
 20
41.500000
 42
0.000000
  0
VERTEX
  8
0
 10
76.195605
 20
47.500000
 42
-0.029087
  0
VERTEX
  8
0
 10
74.912832
 20
51.245631
 42
-0.028161
  0
VERTEX
  8
0
 10
74.057048
 20
55.155322
 42
-0.019529
  0
VERTEX
  8
0
 10
73.444844
 20
60.226989
 42
-0.005836
  0
VERTEX
  8
0
 10
72.904506
 20
68.000000
 42
0.003106
  0
VERTEX
  8
0
 10
72.536094
 20
73.753871
 42
0.003972
  0
VERTEX
  8
0
 10
72.121770
 20
79.048437
 42
0.003090
  0
VERTEX
  8
0
 10
71.712113
 20
83.478095
 42
0.033424
  0
VERTEX
  8
0
 10
71.416666
 20
85.250000
 42
-0.028641
  0
VERTEX
  8
0
 10
71.123701
 20
86.909134
 42
-0.238730
  0
VERTEX
  8
0
 10
71.378277
 20
87.604002
 42
-0.174855
  0
VERTEX
  8
0
 10
72.151651
 20
87.935289
 42
-0.014628
  0
VERTEX
  8
0
 10
74.363099
 20
88.000000
 42
-0.036366
  0
VERTEX
  8
0
 10
76.398650
 20
87.851755
 42
-0.113524
  0
VERTEX
  8
0
 10
77.670556
 20
87.356263
 42
-0.100570
  0
VERTEX
  8
0
 10
78.684100
 20
86.316795
 42
-0.025103
  0
VERTEX
  8
0
 10
79.873266
 20
84.250000
 42
0.020289
  0
VERTEX
  8
0
 10
80.758874
 20
82.675945
 42
0.016038
  0
VERTEX
  8
0
 10
81.837981
 20
81.047172
 42
0.016322
  0
VERTEX
  8
0
 10
82.938952
 20
79.598453
 42
0.038290
  0
VERTEX
  8
0
 10
83.874033
 20
78.612712
 42
-0.061943
  0
VERTEX
  8
0
 10
84.721127
 20
77.630845
 42
-0.031563
  0
VERTEX
  8
0
 10
85.539157
 20
76.218581
 42
-0.030788
  0
VERTEX
  8
0
 10
86.209641
 20
74.634276
 42
-0.040136
  0
VERTEX
  8
0
 10
86.612068
 20
73.112712
 42
0.024057
  0
VERTEX
  8
0
 10
87.344342
 20
69.934278
 42
0.058800
  0
VERTEX
  8
0
 10
88.260358
 20
67.718480
 42
0.075554
  0
VERTEX
  8
0
 10
89.500348
 20
66.121736
 42
0.067172
  0
VERTEX
  8
0
 10
91.205915
 20
64.889798
 42
0.045401
  0
VERTEX
  8
0
 10
92.427879
 20
64.372213
 42
0.145238
  0
VERTEX
  8
0
 10
93.303465
 20
64.353422
 42
0.125965
  0
VERTEX
  8
0
 10
94.122094
 20
64.819546
 42
0.030488
  0
VERTEX
  8
0
 10
95.182996
 20
65.977663
 42
0.037862
  0
VERTEX
  8
0
 10
95.878482
 20
66.983487
 42
0.031147
  0
VERTEX
  8
0
 10
96.466255
 20
68.149223
 42
0.032212
  0
VERTEX
  8
0
 10
96.871482
 20
69.293578
 42
0.069092
  0
VERTEX
  8
0
 10
97.000000
 20
70.219192
 42
-0.159530
  0
VERTEX
  8
0
 10
97.356925
 20
71.309399
 42
-0.232165
  0
VERTEX
  8
0
 10
98.237766
 20
71.769948
 42
-0.070880
  0
VERTEX
  8
0
 10
100.072853
 20
71.556101
 42
-0.007659
  0
VERTEX
  8
0
 10
104.194363
 20
70.402783
 42
0.230651
  0
VERTEX
  8
0
 10
105.866058
 20
70.681495
 42
0.092132
  0
VERTEX
  8
0
 10
107.522672
 20
72.395159
 42
0.083372
  0
VERTEX
  8
0
 10
108.579777
 20
74.772735
 42
0.140753
  0
VERTEX
  8
0
 10
108.519884
 20
76.937352
 42
0.168559
  0
VERTEX
  8
0
 10
106.652887
 20
79.438073
 42
0.027350
  0
VERTEX
  8
0
 10
101.376277
 20
82.606907
 42
0.030458
  0
VERTEX
  8
0
 10
95.607592
 20
85.219344
 42
0.091337
  0
VERTEX
  8
0
 10
91.369740
 20
86.000000
 42
-0.049787
  0
VERTEX
  8
0
 10
89.031030
 20
86.233452
 42
-0.082689
  0
VERTEX
  8
0
 10
87.183832
 20
86.937161
 42
-0.054270
  0
VERTEX
  8
0
 10
85.182857
 20
88.418971
 42
-0.011449
  0
VERTEX
  8
0
 10
82.053340
 20
91.445989
 42
0.013968
  0
VERTEX
  8
0
 10
79.786029
 20
93.617040
 42
0.014360
  0
VERTEX
  8
0
 10
77.421371
 20
95.637473
 42
0.014229
  0
VERTEX
  8
0
 10
75.275028
 20
97.268746
 42
0.057245
  0
VERTEX
  8
0
 10
73.837500
 20
98.067310
 42
-0.044574
  0
VERTEX
  8
0
 10
72.333905
 20
98.853518
 42
-0.121264
  0
VERTEX
  8
0
 10
71.513131
 20
99.719559
 42
-0.102761
  0
VERTEX
  8
0
 10
71.112920
 20
100.958624
 42
-0.026910
  0
VERTEX
  8
0
 10
71.000000
 20
103.055224
 42
-0.037984
  0
VERTEX
  8
0
 10
71.166774
 20
105.247395
 42
-0.103233
  0
VERTEX
  8
0
 10
71.709192
 20
106.699011
 42
-0.084184
  0
VERTEX
  8
0
 10
72.858432
 20
107.979820
 42
-0.019853
  0
VERTEX
  8
0
 10
75.186735
 20
109.683903
 42
0.035360
  0
VERTEX
  8
0
 10
76.984899
 20
111.087570
 42
0.020887
  0
VERTEX
  8
0
 10
78.931024
 20
112.994647
 42
0.020835
  0
VERTEX
  8
0
 10
80.723867
 20
115.071651
 42
0.033313
  0
VERTEX
  8
0
 10
82.054006
 20
117.000000
 42
-0.022897
  0
VERTEX
  8
0
 10
83.211450
 20
118.755052
 42
-0.037146
  0
VERTEX
  8
0
 10
84.366154
 20
120.117470
 42
-0.043311
  0
VERTEX
  8
0
 10
85.398403
 20
120.999182
 42
-0.224192
  0
VERTEX
  8
0
 10
86.117271
 20
121.129437
 42
0.057003
  0
VERTEX
  8
0
 10
89.583878
 20
120.612745
 42
0.002312
  0
VERTEX
  8
0
 10
102.267224
 20
120.239068
 42
0.002043
  0
VERTEX
  8
0
 10
115.078317
 20
119.973270
 42
0.066944
  0
VERTEX
  8
0
 10
118.146561
 20
120.333993
 42
0.148711
  0
VERTEX
  8
0
 10
120.785809
 20
121.937554
 42
0.052600
  0
VERTEX
  8
0
 10
123.399616
 20
125.564511
 42
0.051141
  0
VERTEX
  8
0
 10
125.354270
 20
129.975099
 42
0.077793
  0
VERTEX
  8
0
 10
126.019442
 20
134.104857
 42
-0.019166
  0
VERTEX
  8
0
 10
126.119454
 20
136.442822
 42
-0.005142
  0
VERTEX
  8
0
 10
126.458772
 20
140.146427
 42
-0.005202
  0
VERTEX
  8
0
 10
126.931669
 20
144.349106
 42
-0.005357
  0
VERTEX
  8
0
 10
127.487732
 20
148.500000
 42
0.011307
  0
VERTEX
  8
0
 10
128.635741
 20
157.920078
 42
0.027108
  0
VERTEX
  8
0
 10
128.948298
 20
164.946428
 42
0.035528
  0
VERTEX
  8
0
 10
128.537495
 20
170.021172
 42
0.136200
  0
VERTEX
  8
0
 10
127.250000
 20
172.884716
 42
0.123575
  0
VERTEX
  8
0
 10
123.881837
 20
175.348885
 42
0.015171
  0
VERTEX
  8
0
 10
115.259963
 20
178.548814
 42
0.018412
  0
VERTEX
  8
0
 10
106.313132
 20
181.201364
 42
0.061893
  0
VERTEX
  8
0
 10
100.265777
 20
181.978298
 42
0.080408
  0
VERTEX
  8
0
 10
95.591142
 20
181.241524
 42
0.113113
  0
VERTEX
  8
0
 10
91.987861
 20
179.071481
 42
0.068942
  0
VERTEX
  8
0
 10
88.541648
 20
174.683818
 42
0.015186
  0
VERTEX
  8
0
 10
83.958753
 20
166.250000
 42
-0.010125
  0
VERTEX
  8
0
 10
81.875447
 20
162.321872
 42
-0.015460
  0
VERTEX
  8
0
 10
79.896160
 20
159.010938
 42
-0.009975
  0
VERTEX
  8
0
 10
78.143422
 20
156.391305
 42
-0.245028
  0
VERTEX
  8
0
 10
77.392873
 20
156.000000
 42
-0.285480
  0
VERTEX
  8
0
 10
76.712176
 20
156.423137
 42
-0.072535
  0
VERTEX
  8
0
 10
76.292614
 20
157.716670
 42
-0.034907
  0
VERTEX
  8
0
 10
76.060227
 20
160.055243
 42
-0.007315
  0
VERTEX
  8
0
 10
76.000000
 20
164.171539
 42
0.036751
  0
VERTEX
  8
0
 10
75.520201
 20
170.690342
 42
0.038142
  0
VERTEX
  8
0
 10
74.091320
 20
176.985847
 42
0.038046
  0
VERTEX
  8
0
 10
71.718356
 20
183.005641
 42
0.036187
  0
VERTEX
  8
0
 10
68.426647
 20
188.703230
 42
0.044969
  0
VERTEX
  8
0
 10
65.022445
 20
192.860700
 42
0.081612
  0
VERTEX
  8
0
 10
61.486131
 20
195.449631
 42
0.073863
  0
VERTEX
  8
0
 10
57.062669
 20
196.923491
 42
0.031197
  0
VERTEX
  8
0
 10
50.825565
 20
197.623663
 42
0.012144
  0
VERTEX
  8
0
 10
46.076093
 20
197.743052
 42
0.036134
  0
VERTEX
  8
0
 10
42.831013
 20
197.510993
 42
0.040158
  0
VERTEX
  8
0
 10
39.844085
 20
196.830820
 42
0.017981
  0
SEQEND
  0
ENDSEC
  0
EOF
