  0
SECTION
  2
HEADER
  9
$ACADVER
  1
AC1006
  9
$EXTMIN
 10
0.000000
 20
0.000000
 30
0.000000
  9
$EXTMAX
 10
346.000000
 20
469.000000
 30
0.000000
  0
ENDSEC
  0
SECTION
  2
ENTITIES
  0
POLYLINE
  8
0
 66
1
 70
1
  0
VERTEX
  8
0
 10
204.744086
 20
468.410753
 42
-0.152799
  0
VERTEX
  8
0
 10
204.437103
 20
468.250096
 42
-0.004876
  0
VERTEX
  8
0
 10
203.036967
 20
468.010987
 42
-0.009022
  0
VERTEX
  8
0
 10
201.360595
 20
467.772441
 42
-0.006092
  0
VERTEX
  8
0
 10
199.441020
 20
467.558251
 42
0.004870
  0
VERTEX
  8
0
 10
194.511178
 20
467.020369
 42
0.008154
  0
VERTEX
  8
0
 10
190.379786
 20
466.460374
 42
0.005933
  0
VERTEX
  8
0
 10
187.079755
 20
465.917995
 42
0.094986
  0
VERTEX
  8
0
 10
186.027118
 20
465.516760
 42
-0.063568
  0
VERTEX
  8
0
 10
185.592800
 20
465.319352
 42
-0.009763
  0
VERTEX
  8
0
 10
184.679441
 20
465.056595
 42
-0.010772
  0
VERTEX
  8
0
 10
183.583199
 20
464.789431
 42
-0.009163
  0
VERTEX
  8
0
 10
182.415844
 20
464.553792
 42
0.002730
  0
VERTEX
  8
0
 10
181.117480
 20
464.309051
 42
0.001782
  0
VERTEX
  8
0
 10
179.622154
 20
464.013186
 42
0.001793
  0
VERTEX
  8
0
 10
178.166376
 20
463.714313
 42
0.003429
  0
VERTEX
  8
0
 10
177.000000
 20
463.462135
 42
-0.005470
  0
VERTEX
  8
0
 10
175.861816
 20
463.220912
 42
-0.003245
  0
VERTEX
  8
0
 10
174.500000
 20
462.957006
 42
-0.003246
  0
VERTEX
  8
0
 10
173.137996
 20
462.711364
 42
-0.005584
  0
VERTEX
  8
0
 10
172.000000
 20
462.526809
 42
0.017680
  0
VERTEX
  8
0
 10
170.862189
 20
462.313922
 42
0.010010
  0
VERTEX
  8
0
 10
169.500000
 20
461.980083
 42
0.009984
  0
VERTEX
  8
0
 10
168.138608
 20
461.588131
 42
0.016168
  0
VERTEX
  8
0
 10
167.000000
 20
461.194787
 42
-0.005292
  0
VERTEX
  8
0
 10
165.987862
 20
460.820303
 42
-0.006088
  0
VERTEX
  8
0
 10
165.014062
 20
460.484996
 42
-0.005511
  0
VERTEX
  8
0
 10
164.182878
 20
460.220196
 42
-0.034764
  0
VERTEX
  8
0
 10
163.750000
 20
460.119801
 42
0.007986
  0
VERTEX
  8
0
 10
163.444531
 20
460.065990
 42
0.008468
  0
VERTEX
  8
0
 10
163.146875
 20
460.003394
 42
0.008150
  0
VERTEX
  8
0
 10
162.892602
 20
459.941031
 42
0.037969
  0
VERTEX
  8
0
 10
162.750000
 20
459.891754
 42
-0.081796
  0
VERTEX
  8
0
 10
162.552800
 20
459.842369
 42
-0.000996
  0
VERTEX
  8
0
 10
161.238183
 20
459.736758
 42
-0.002939
  0
VERTEX
  8
0
 10
159.714666
 20
459.626425
 42
-0.001915
  0
VERTEX
  8
0
 10
157.954451
 20
459.516114
 42
0.015864
  0
VERTEX
  8
0
 10
153.554541
 20
459.116909
 42
0.030259
  0
VERTEX
  8
0
 10
150.063972
 20
458.471962
 42
0.033599
  0
VERTEX
  8
0
 10
147.600119
 20
457.681685
 42
0.307486
  0
VERTEX
  8
0
 10
147.000000
 20
456.798100
 42
-0.186469
  0
VERTEX
  8
0
 10
146.877679
 20
456.481511
 42
-0.246621
  0
VERTEX
  8
0
 10
146.592062
 20
456.377319
 42
-0.107933
  0
VERTEX
  8
0
 10
146.121536
 20
456.548451
 42
-0.032226
  0
VERTEX
  8
0
 10
145.500000
 20
457.000000
 42
0.017761
  0
VERTEX
  8
0
 10
144.719927
 20
457.601935
 42
0.154048
  0
VERTEX
  8
0
 10
144.308161
 20
457.736562
 42
0.338971
  0
VERTEX
  8
0
 10
144.075301
 20
457.561980
 42
0.068567
  0
VERTEX
  8
0
 10
144.000000
 20
457.015456
 42
-0.128562
  0
VERTEX
  8
0
 10
143.888860
 20
456.590355
 42
-0.151467
  0
VERTEX
  8
0
 10
143.588094
 20
456.305232
 42
-0.127577
  0
VERTEX
  8
0
 10
143.133520
 20
456.211061
 42
-0.079390
  0
VERTEX
  8
0
 10
142.597766
 20
456.324110
 42
0.054010
  0
VERTEX
  8
0
 10
142.010855
 20
456.479294
 42
0.054833
  0
VERTEX
  8
0
 10
141.407365
 20
456.504062
 42
0.060404
  0
VERTEX
  8
0
 10
140.877699
 20
456.402636
 42
0.119448
  0
VERTEX
  8
0
 10
140.514432
 20
456.181099
 42
-0.038829
  0
VERTEX
  8
0
 10
140.204686
 20
455.916057
 42
-0.031995
  0
VERTEX
  8
0
 10
139.837573
 20
455.682715
 42
-0.033118
  0
VERTEX
  8
0
 10
139.470822
 20
455.511839
 42
-0.070466
  0
VERTEX
  8
0
 10
139.166667
 20
455.440911
 42
0.017885
  0
VERTEX
  8
0
 10
138.729391
 20
455.386334
 42
0.001278
  0
VERTEX
  8
0
 10
137.520833
 20
455.188209
 42
0.001797
  0
VERTEX
  8
0
 10
136.080667
 20
454.943010
 42
0.001356
  0
VERTEX
  8
0
 10
134.500000
 20
454.663624
 42
-0.011269
  0
VERTEX
  8
0
 10
132.566591
 20
454.361285
 42
-0.004995
  0
VERTEX
  8
0
 10
130.003008
 20
454.045424
 42
-0.004941
  0
VERTEX
  8
0
 10
127.279900
 20
453.764712
 42
-0.006642
  0
VERTEX
  8
0
 10
124.808113
 20
453.567646
 42
0.008801
  0
VERTEX
  8
0
 10
122.556070
 20
453.378309
 42
0.011374
  0
VERTEX
  8
0
 10
120.497695
 20
453.121286
 42
0.009240
  0
VERTEX
  8
0
 10
118.796390
 20
452.837210
 42
0.092676
  0
VERTEX
  8
0
 10
118.127212
 20
452.578621
 42
-0.095503
  0
VERTEX
  8
0
 10
117.704739
 20
452.418082
 42
-0.097044
  0
VERTEX
  8
0
 10
117.255370
 20
452.427415
 42
-0.098732
  0
VERTEX
  8
0
 10
116.848883
 20
452.604606
 42
-0.102689
  0
VERTEX
  8
0
 10
116.548070
 20
452.922221
 42
0.147787
  0
VERTEX
  8
0
 10
116.167334
 20
453.258701
 42
0.059101
  0
VERTEX
  8
0
 10
115.498299
 20
453.474676
 42
0.051614
  0
VERTEX
  8
0
 10
114.671165
 20
453.550199
 42
0.044572
  0
VERTEX
  8
0
 10
113.803069
 20
453.462075
 42
-0.053181
  0
VERTEX
  8
0
 10
112.880734
 20
453.384424
 42
-0.042986
  0
VERTEX
  8
0
 10
111.892235
 20
453.491790
 42
-0.044549
  0
VERTEX
  8
0
 10
110.987700
 20
453.754979
 42
-0.080306
  0
VERTEX
  8
0
 10
110.324097
 20
454.145986
 42
0.029560
  0
VERTEX
  8
0
 10
109.815294
 20
454.519792
 42
0.069528
  0
VERTEX
  8
0
 10
109.388954
 20
454.718261
 42
0.156376
  0
VERTEX
  8
0
 10
109.117693
 20
454.714630
 42
0.322305
  0
VERTEX
  8
0
 10
109.000000
 20
454.551016
 42
-0.463951
  0
VERTEX
  8
0
 10
108.857615
 20
454.430598
 42
-0.092402
  0
VERTEX
  8
0
 10
108.499051
 20
454.561917
 42
-0.043367
  0
VERTEX
  8
0
 10
107.949989
 20
454.955580
 42
-0.019175
  0
VERTEX
  8
0
 10
107.294643
 20
455.562500
 42
0.030540
  0
VERTEX
  8
0
 10
106.529284
 20
456.239668
 42
0.099984
  0
VERTEX
  8
0
 10
105.928037
 20
456.540535
 42
0.202257
  0
VERTEX
  8
0
 10
105.495448
 20
456.482014
 42
0.180795
  0
VERTEX
  8
0
 10
105.209233
 20
456.127698
 42
-0.118743
  0
VERTEX
  8
0
 10
104.973544
 20
455.750200
 42
-0.129619
  0
VERTEX
  8
0
 10
104.598722
 20
455.536343
 42
-0.117948
  0
VERTEX
  8
0
 10
104.138081
 20
455.524419
 42
-0.087678
  0
VERTEX
  8
0
 10
103.664590
 20
455.715649
 42
0.049149
  0
VERTEX
  8
0
 10
102.538343
 20
456.274389
 42
0.033033
  0
VERTEX
  8
0
 10
101.163527
 20
456.694056
 42
0.018810
  0
VERTEX
  8
0
 10
99.118393
 20
457.092919
 42
0.003916
  0
VERTEX
  8
0
 10
95.500000
 20
457.629295
 42
-0.001459
  0
VERTEX
  8
0
 10
91.633129
 20
458.183095
 42
-0.005924
  0
VERTEX
  8
0
 10
89.284339
 20
458.554949
 42
-0.002666
  0
VERTEX
  8
0
 10
87.621571
 20
458.847558
 42
-0.362557
  0
VERTEX
  8
0
 10
87.500000
 20
458.993178
 42
0.354239
  0
VERTEX
  8
0
 10
87.333827
 20
459.198295
 42
0.002894
  0
VERTEX
  8
0
 10
85.156994
 20
459.646866
 42
0.008462
  0
VERTEX
  8
0
 10
82.576356
 20
460.117819
 42
0.005089
  0
VERTEX
  8
0
 10
79.500000
 20
460.593488
 42
-0.001529
  0
VERTEX
  8
0
 10
75.626500
 20
461.164209
 42
-0.006251
  0
VERTEX
  8
0
 10
73.280058
 20
461.547327
 42
-0.002982
  0
VERTEX
  8
0
 10
71.627738
 20
461.848535
 42
-0.360649
  0
VERTEX
  8
0
 10
71.500000
 20
462.002596
 42
0.363414
  0
VERTEX
  8
0
 10
71.436941
 20
462.077896
 42
0.002968
  0
VERTEX
  8
0
 10
70.618750
 20
462.218817
 42
0.008615
  0
VERTEX
  8
0
 10
69.650252
 20
462.362613
 42
0.005224
  0
VERTEX
  8
0
 10
68.500000
 20
462.500982
 42
-0.008145
  0
VERTEX
  8
0
 10
67.142894
 20
462.672282
 42
-0.004879
  0
VERTEX
  8
0
 10
65.536109
 20
462.917767
 42
-0.004883
  0
VERTEX
  8
0
 10
63.941297
 20
463.193386
 42
-0.008465
  0
VERTEX
  8
0
 10
62.622926
 20
463.457653
 42
0.030777
  0
VERTEX
  8
0
 10
58.756540
 20
464.054747
 42
0.017983
  0
VERTEX
  8
0
 10
54.073831
 20
464.315960
 42
0.008909
  0
VERTEX
  8
0
 10
49.588359
 20
464.324678
 42
0.409572
  0
VERTEX
  8
0
 10
49.000000
 20
463.726904
 42
-0.200018
  0
VERTEX
  8
0
 10
48.894121
 20
463.472819
 42
-0.182320
  0
VERTEX
  8
0
 10
48.633865
 20
463.356450
 42
-0.105364
  0
VERTEX
  8
0
 10
48.231663
 20
463.417305
 42
-0.048402
  0
VERTEX
  8
0
 10
47.753583
 20
463.652294
 42
0.142196
  0
VERTEX
  8
0
 10
45.481140
 20
464.283845
 42
0.003335
  0
VERTEX
  8
0
 10
34.290314
 20
464.081357
 42
0.004807
  0
VERTEX
  8
0
 10
23.421159
 20
463.707563
 42
0.085089
  0
VERTEX
  8
0
 10
20.000000
 20
462.964912
 42
-0.057191
  0
VERTEX
  8
0
 10
19.752573
 20
462.896629
 42
-0.025244
  0
VERTEX
  8
0
 10
19.414663
 20
462.861176
 42
-0.024586
  0
VERTEX
  8
0
 10
19.048818
 20
462.859385
 42
-0.030283
  0
VERTEX
  8
0
 10
18.709490
 20
462.895082
 42
0.107834
  0
VERTEX
  8
0
 10
18.269919
 20
462.873316
 42
0.020570
  0
VERTEX
  8
0
 10
17.502154
 20
462.631227
 42
0.021076
  0
VERTEX
  8
0
 10
16.613367
 20
462.267206
 42
0.018011
  0
VERTEX
  8
0
 10
15.709490
 20
461.811596
 42
-0.015544
  0
VERTEX
  8
0
 10
14.765706
 20
461.330017
 42
-0.013849
  0
VERTEX
  8
0
 10
13.757152
 20
460.888015
 42
-0.014040
  0
VERTEX
  8
0
 10
12.828171
 20
460.541239
 42
-0.041106
  0
VERTEX
  8
0
 10
12.165920
 20
460.374236
 42
0.135327
  0
VERTEX
  8
0
 10
10.853804
 20
459.766303
 42
0.051662
  0
VERTEX
  8
0
 10
9.447325
 20
458.300266
 42
0.047832
  0
VERTEX
  8
0
 10
8.212139
 20
456.355463
 42
0.050843
  0
VERTEX
  8
0
 10
7.398765
 20
454.250000
 42
-0.033412
  0
VERTEX
  8
0
 10
7.099995
 20
453.388592
 42
-0.044995
  0
VERTEX
  8
0
 10
6.711325
 20
452.660937
 42
-0.052631
  0
VERTEX
  8
0
 10
6.296067
 20
452.153350
 42
-0.197497
  0
VERTEX
  8
0
 10
5.922977
 20
452.000000
 42
0.190613
  0
VERTEX
  8
0
 10
5.639594
 20
451.887894
 42
0.145610
  0
VERTEX
  8
0
 10
5.470005
 20
451.597251
 42
0.097539
  0
VERTEX
  8
0
 10
5.450247
 20
451.154011
 42
0.054175
  0
VERTEX
  8
0
 10
5.588895
 20
450.628939
 42
-0.100636
  0
VERTEX
  8
0
 10
5.693726
 20
450.002512
 42
-0.060589
  0
VERTEX
  8
0
 10
5.576390
 20
449.255564
 42
-0.057151
  0
VERTEX
  8
0
 10
5.268340
 20
448.508322
 42
-0.063489
  0
VERTEX
  8
0
 10
4.807510
 20
447.878939
 42
0.077222
  0
VERTEX
  8
0
 10
4.296038
 20
447.138776
 42
0.033287
  0
VERTEX
  8
0
 10
3.845538
 20
446.023813
 42
0.031936
  0
VERTEX
  8
0
 10
3.515334
 20
444.749742
 42
0.036525
  0
VERTEX
  8
0
 10
3.368790
 20
443.500000
 42
-0.014865
  0
VERTEX
  8
0
 10
3.265834
 20
442.100545
 42
-0.007620
  0
VERTEX
  8
0
 10
3.057961
 20
440.353125
 42
-0.007565
  0
VERTEX
  8
0
 10
2.789004
 20
438.558651
 42
-0.011298
  0
VERTEX
  8
0
 10
2.494900
 20
437.000000
 42
0.017401
  0
VERTEX
  8
0
 10
2.205310
 20
435.355368
 42
0.008958
  0
VERTEX
  8
0
 10
1.951697
 20
433.279687
 42
0.008893
  0
VERTEX
  8
0
 10
1.766827
 20
431.132309
 42
0.013283
  0
VERTEX
  8
0
 10
1.688610
 20
429.250000
 42
-0.019303
  0
VERTEX
  8
0
 10
1.601265
 20
427.621000
 42
-0.031112
  0
VERTEX
  8
0
 10
1.387677
 20
426.248438
 42
-0.032359
  0
VERTEX
  8
0
 10
1.096609
 20
425.241052
 42
-0.316150
  0
VERTEX
  8
0
 10
0.753483
 20
425.000000
 42
0.158642
  0
VERTEX
  8
0
 10
0.478467
 20
424.910489
 42
0.191208
  0
VERTEX
  8
0
 10
0.334288
 20
424.682358
 42
0.126556
  0
VERTEX
  8
0
 10
0.357382
 20
424.333017
 42
0.059016
  0
VERTEX
  8
0
 10
0.550268
 20
423.918665
 42
-0.120794
  0
VERTEX
  8
0
 10
0.821909
 20
423.079762
 42
-0.003629
  0
VERTEX
  8
0
 10
1.064219
 20
419.383965
 42
-0.007009
  0
VERTEX
  8
0
 10
1.258206
 20
414.997300
 42
-0.004762
  0
VERTEX
  8
0
 10
1.361422
 20
409.999861
 42
0.004723
  0
VERTEX
  8
0
 10
1.463642
 20
405.032198
 42
0.007286
  0
VERTEX
  8
0
 10
1.655149
 20
400.740561
 42
0.002973
  0
VERTEX
  8
0
 10
1.893026
 20
397.092407
 42
0.180508
  0
VERTEX
  8
0
 10
2.160743
 20
396.505924
 42
-0.177068
  0
VERTEX
  8
0
 10
2.363106
 20
396.070320
 42
-0.033828
  0
VERTEX
  8
0
 10
2.377977
 20
395.183153
 42
-0.032313
  0
VERTEX
  8
0
 10
2.251491
 20
394.092656
 42
-0.024811
  0
VERTEX
  8
0
 10
1.978412
 20
392.924727
 42
0.020317
  0
VERTEX
  8
0
 10
1.705494
 20
391.803036
 42
0.035984
  0
VERTEX
  8
0
 10
1.585816
 20
390.859054
 42
0.044873
  0
VERTEX
  8
0
 10
1.609764
 20
390.185055
 42
0.377880
  0
VERTEX
  8
0
 10
1.819806
 20
389.999713
 42
-0.372245
  0
VERTEX
  8
0
 10
2.088484
 20
389.767310
 42
-0.010930
  0
VERTEX
  8
0
 10
2.286899
 20
388.163657
 42
-0.016910
  0
VERTEX
  8
0
 10
2.423151
 20
386.145943
 42
-0.010213
  0
VERTEX
  8
0
 10
2.454744
 20
383.749713
 42
0.023072
  0
VERTEX
  8
0
 10
2.657225
 20
378.546502
 42
0.025002
  0
VERTEX
  8
0
 10
3.339624
 20
373.523351
 42
0.022228
  0
VERTEX
  8
0
 10
4.311705
 20
369.361705
 42
0.173712
  0
VERTEX
  8
0
 10
5.446349
 20
367.765313
 42
-0.031934
  0
VERTEX
  8
0
 10
5.838799
 20
367.452637
 42
-0.193044
  0
VERTEX
  8
0
 10
5.950463
 20
367.223123
 42
-0.348639
  0
VERTEX
  8
0
 10
5.846086
 20
367.070396
 42
-0.071383
  0
VERTEX
  8
0
 10
5.500000
 20
367.015313
 42
0.252257
  0
VERTEX
  8
0
 10
5.115645
 20
366.800565
 42
0.061791
  0
VERTEX
  8
0
 10
4.793750
 20
366.123248
 42
0.048494
  0
VERTEX
  8
0
 10
4.572798
 20
365.150327
 42
0.031611
  0
VERTEX
  8
0
 10
4.500000
 20
364.000000
 42
0.021619
  0
VERTEX
  8
0
 10
4.549738
 20
362.850194
 42
0.034746
  0
VERTEX
  8
0
 10
4.702056
 20
361.881250
 42
0.038722
  0
VERTEX
  8
0
 10
4.920872
 20
361.180814
 42
0.306763
  0
VERTEX
  8
0
 10
5.187851
 20
361.000000
 42
-0.233594
  0
VERTEX
  8
0
 10
5.447481
 20
360.871703
 42
-0.076085
  0
VERTEX
  8
0
 10
5.658729
 20
360.485937
 42
-0.057149
  0
VERTEX
  8
0
 10
5.794146
 20
359.920222
 42
-0.037465
  0
VERTEX
  8
0
 10
5.824920
 20
359.250000
 42
0.025431
  0
VERTEX
  8
0
 10
5.846792
 20
358.248702
 42
0.004630
  0
VERTEX
  8
0
 10
5.998762
 20
356.398438
 42
0.004973
  0
VERTEX
  8
0
 10
6.218455
 20
354.234011
 42
0.004494
  0
VERTEX
  8
0
 10
6.488032
 20
352.000000
 42
-0.001488
  0
VERTEX
  8
0
 10
7.167901
 20
346.637183
 42
-0.003060
  0
VERTEX
  8
0
 10
7.661910
 20
342.434434
 42
-0.003507
  0
VERTEX
  8
0
 10
8.059908
 20
338.616638
 42
-0.002809
  0
VERTEX
  8
0
 10
8.436556
 20
334.500000
 42
0.012483
  0
VERTEX
  8
0
 10
8.676686
 20
332.337442
 42
0.009385
  0
VERTEX
  8
0
 10
9.044612
 20
329.972241
 42
0.009503
  0
VERTEX
  8
0
 10
9.474980
 20
327.759482
 42
0.021473
  0
VERTEX
  8
0
 10
9.903884
 20
326.107628
 42
-0.019722
  0
VERTEX
  8
0
 10
10.262547
 20
324.745914
 42
-0.024782
  0
VERTEX
  8
0
 10
10.481390
 20
323.459837
 42
-0.024203
  0
VERTEX
  8
0
 10
10.557009
 20
322.390482
 42
-0.144946
  0
VERTEX
  8
0
 10
10.412009
 20
321.857628
 42
0.076025
  0
VERTEX
  8
0
 10
10.272642
 20
321.529655
 42
0.153244
  0
VERTEX
  8
0
 10
10.287672
 20
321.251928
 42
0.186733
  0
VERTEX
  8
0
 10
10.451353
 20
321.068068
 42
0.119104
  0
VERTEX
  8
0
 10
10.733049
 20
321.000000
 42
-0.281367
  0
VERTEX
  8
0
 10
11.058655
 20
320.801018
 42
-0.052451
  0
VERTEX
  8
0
 10
11.322410
 20
320.118750
 42
-0.042542
  0
VERTEX
  8
0
 10
11.497822
 20
319.149568
 42
-0.026835
  0
VERTEX
  8
0
 10
11.544246
 20
318.000000
 42
-0.031655
  0
VERTEX
  8
0
 10
11.455980
 20
316.849709
 42
-0.048255
  0
VERTEX
  8
0
 10
11.221686
 20
315.876752
 42
-0.061134
  0
VERTEX
  8
0
 10
10.890207
 20
315.198966
 42
-0.249636
  0
VERTEX
  8
0
 10
10.502180
 20
314.984687
 42
0.109276
  0
VERTEX
  8
0
 10
10.218671
 20
314.917418
 42
0.349636
  0
VERTEX
  8
0
 10
10.140212
 20
314.753927
 42
0.159770
  0
VERTEX
  8
0
 10
10.286507
 20
314.511040
 42
0.036350
  0
VERTEX
  8
0
 10
10.677264
 20
314.220624
 42
-0.200743
  0
VERTEX
  8
0
 10
11.405884
 20
313.173898
 42
-0.017161
  0
VERTEX
  8
0
 10
11.995608
 20
309.887649
 42
-0.012558
  0
VERTEX
  8
0
 10
12.632868
 20
304.518108
 42
-0.002266
  0
VERTEX
  8
0
 10
13.521596
 20
294.500000
 42
0.005878
  0
VERTEX
  8
0
 10
13.632018
 20
293.349748
 42
0.009700
  0
VERTEX
  8
0
 10
13.755545
 20
292.381250
 42
0.003740
  0
VERTEX
  8
0
 10
13.881262
 20
291.569969
 42
0.367745
  0
VERTEX
  8
0
 10
13.963529
 20
291.500000
 42
-0.343413
  0
VERTEX
  8
0
 10
14.214055
 20
291.304926
 42
-0.004937
  0
VERTEX
  8
0
 10
14.688927
 20
289.345303
 42
-0.013149
  0
VERTEX
  8
0
 10
15.093940
 20
287.363342
 42
-0.025057
  0
VERTEX
  8
0
 10
15.296950
 20
285.750000
 42
0.044957
  0
VERTEX
  8
0
 10
15.408425
 20
285.080231
 42
0.061949
  0
VERTEX
  8
0
 10
15.633588
 20
284.514063
 42
0.078402
  0
VERTEX
  8
0
 10
15.931044
 20
284.129800
 42
0.191171
  0
VERTEX
  8
0
 10
16.258122
 20
284.000000
 42
-0.162740
  0
VERTEX
  8
0
 10
16.554196
 20
283.901013
 42
-0.122961
  0
VERTEX
  8
0
 10
16.771435
 20
283.632812
 42
-0.094822
  0
VERTEX
  8
0
 10
16.873501
 20
283.228079
 42
-0.063345
  0
VERTEX
  8
0
 10
16.840667
 20
282.750000
 42
0.105245
  0
VERTEX
  8
0
 10
16.850656
 20
282.067147
 42
0.022974
  0
VERTEX
  8
0
 10
17.166525
 20
280.927088
 42
0.022965
  0
VERTEX
  8
0
 10
17.663013
 20
279.616585
 42
0.020252
  0
VERTEX
  8
0
 10
18.296830
 20
278.299660
 42
-0.017072
  0
VERTEX
  8
0
 10
18.948769
 20
276.966832
 42
-0.017711
  0
VERTEX
  8
0
 10
19.499694
 20
275.608686
 42
-0.017708
  0
VERTEX
  8
0
 10
19.891753
 20
274.403580
 42
-0.069893
  0
VERTEX
  8
0
 10
20.000000
 20
273.632993
 42
0.072791
  0
VERTEX
  8
0
 10
20.086241
 20
273.043745
 42
0.066687
  0
VERTEX
  8
0
 10
20.338531
 20
272.484557
 42
0.070368
  0
VERTEX
  8
0
 10
20.711902
 20
272.039025
 42
0.103122
  0
VERTEX
  8
0
 10
21.152445
 20
271.782518
 42
-0.140191
  0
VERTEX
  8
0
 10
21.606453
 20
271.471704
 42
-0.057981
  0
VERTEX
  8
0
 10
22.015682
 20
270.841716
 42
-0.051183
  0
VERTEX
  8
0
 10
22.323228
 20
270.019598
 42
-0.045571
  0
VERTEX
  8
0
 10
22.472798
 20
269.119230
 42
0.034833
  0
VERTEX
  8
0
 10
22.605659
 20
268.197631
 42
0.035880
  0
VERTEX
  8
0
 10
22.864467
 20
267.312761
 42
0.038353
  0
VERTEX
  8
0
 10
23.201148
 20
266.584313
 42
0.109602
  0
VERTEX
  8
0
 10
23.570354
 20
266.170045
 42
-0.055699
  0
VERTEX
  8
0
 10
24.002571
 20
265.778707
 42
-0.017905
  0
VERTEX
  8
0
 10
24.552681
 20
265.109326
 42
-0.017612
  0
VERTEX
  8
0
 10
25.116148
 20
264.314822
 42
-0.018845
  0
VERTEX
  8
0
 10
25.608986
 20
263.500000
 42
0.031236
  0
VERTEX
  8
0
 10
26.099015
 20
262.733360
 42
0.037616
  0
VERTEX
  8
0
 10
26.653943
 20
262.083002
 42
0.041072
  0
VERTEX
  8
0
 10
27.191689
 20
261.623485
 42
0.153139
  0
VERTEX
  8
0
 10
27.608986
 20
261.484687
 42
-0.058395
  0
VERTEX
  8
0
 10
28.031561
 20
261.427789
 42
-0.025096
  0
VERTEX
  8
0
 10
28.575857
 20
261.259013
 42
-0.024418
  0
VERTEX
  8
0
 10
29.143873
 20
261.019068
 42
-0.029577
  0
VERTEX
  8
0
 10
29.649250
 20
260.737937
 42
0.085986
  0
VERTEX
  8
0
 10
30.331786
 20
260.453189
 42
0.018628
  0
VERTEX
  8
0
 10
31.592065
 20
260.215467
 42
0.018906
  0
VERTEX
  8
0
 10
33.090750
 20
260.047857
 42
0.017091
  0
VERTEX
  8
0
 10
34.649250
 20
259.986438
 42
-0.000634
  0
VERTEX
  8
0
 10
36.446243
 20
259.974797
 42
-0.000329
  0
VERTEX
  8
0
 10
38.690717
 20
259.955935
 42
-0.000327
  0
VERTEX
  8
0
 10
40.996720
 20
259.933532
 42
-0.000497
  0
VERTEX
  8
0
 10
43.000000
 20
259.910770
 42
0.009846
  0
VERTEX
  8
0
 10
47.058368
 20
259.940538
 42
0.023973
  0
VERTEX
  8
0
 10
50.041441
 20
260.164575
 42
0.028801
  0
VERTEX
  8
0
 10
52.141400
 20
260.547757
 42
0.181382
  0
VERTEX
  8
0
 10
53.026393
 20
261.149238
 42
-0.164975
  0
VERTEX
  8
0
 10
53.330236
 20
261.370212
 42
-0.087976
  0
VERTEX
  8
0
 10
53.796405
 20
261.429398
 42
-0.071393
  0
VERTEX
  8
0
 10
54.350888
 20
261.321748
 42
-0.054873
  0
VERTEX
  8
0
 10
54.908521
 20
261.056537
 42
-0.058647
  0
VERTEX
  8
0
 10
55.469567
 20
260.611375
 42
-0.324905
  0
VERTEX
  8
0
 10
55.525454
 20
260.252788
 42
-0.177707
  0
VERTEX
  8
0
 10
55.163984
 20
259.919155
 42
-0.021578
  0
VERTEX
  8
0
 10
54.132128
 20
259.541936
 42
0.034768
  0
VERTEX
  8
0
 10
53.315957
 20
259.218934
 42
0.045377
  0
VERTEX
  8
0
 10
52.626313
 20
258.808310
 42
0.052684
  0
VERTEX
  8
0
 10
52.146274
 20
258.376112
 42
0.185206
  0
VERTEX
  8
0
 10
52.000000
 20
257.994761
 42
-0.195568
  0
VERTEX
  8
0
 10
51.866699
 20
257.666992
 42
-0.091273
  0
VERTEX
  8
0
 10
51.485938
 20
257.397324
 42
-0.069294
  0
VERTEX
  8
0
 10
50.919798
 20
257.224786
 42
-0.047824
  0
VERTEX
  8
0
 10
50.250000
 20
257.183286
 42
0.060815
  0
VERTEX
  8
0
 10
48.543175
 20
257.033064
 42
0.004519
  0
VERTEX
  8
0
 10
43.968357
 20
256.018177
 42
0.005193
  0
VERTEX
  8
0
 10
37.818699
 20
254.528029
 42
0.002127
  0
VERTEX
  8
0
 10
29.500000
 20
252.382879
 42
-0.008282
  0
VERTEX
  8
0
 10
28.589386
 20
252.159976
 42
-0.004952
  0
VERTEX
  8
0
 10
27.500000
 20
251.923683
 42
-0.004956
  0
VERTEX
  8
0
 10
26.410362
 20
251.709849
 42
-0.008573
  0
VERTEX
  8
0
 10
25.500000
 20
251.556650
 42
0.000088
  0
VERTEX
  8
0
 10
24.673174
 20
251.431896
 42
0.000087
  0
VERTEX
  8
0
 10
23.842697
 20
251.306294
 42
0.000085
  0
VERTEX
  8
0
 10
23.115354
 20
251.196033
 42
0.000335
  0
VERTEX
  8
0
 10
22.666629
 20
251.127623
 42
0.159915
  0
VERTEX
  8
0
 10
21.160199
 20
250.364104
 42
0.014777
  0
VERTEX
  8
0
 10
18.256651
 20
247.278410
 42
0.014444
  0
VERTEX
  8
0
 10
15.535040
 20
244.024528
 42
0.168485
  0
VERTEX
  8
0
 10
15.000000
 20
242.481808
 42
-0.063529
  0
VERTEX
  8
0
 10
14.927724
 20
241.915261
 42
-0.081474
  0
VERTEX
  8
0
 10
14.715469
 20
241.435281
 42
-0.098454
  0
VERTEX
  8
0
 10
14.400781
 20
241.114125
 42
-0.150955
  0
VERTEX
  8
0
 10
14.031385
 20
241.000000
 42
0.184534
  0
VERTEX
  8
0
 10
13.710807
 20
240.877514
 42
0.147206
  0
VERTEX
  8
0
 10
13.516384
 20
240.559375
 42
0.100118
  0
VERTEX
  8
0
 10
13.488865
 20
240.074366
 42
0.055937
  0
VERTEX
  8
0
 10
13.638374
 20
239.500000
 42
-0.072958
  0
VERTEX
  8
0
 10
13.770599
 20
238.910777
 42
-0.131747
  0
VERTEX
  8
0
 10
13.679310
 20
238.428026
 42
-0.159768
  0
VERTEX
  8
0
 10
13.378598
 20
238.115252
 42
-0.122659
  0
VERTEX
  8
0
 10
12.915859
 20
238.000000
 42
0.182895
  0
VERTEX
  8
0
 10
12.576149
 20
237.871437
 42
0.325852
  0
VERTEX
  8
0
 10
12.514791
 20
237.593410
 42
0.102845
  0
VERTEX
  8
0
 10
12.841943
 20
237.132984
 42
0.025130
  0
VERTEX
  8
0
 10
13.558870
 20
236.531803
 42
-0.021603
  0
VERTEX
  8
0
 10
14.244948
 20
235.964681
 42
-0.056181
  0
VERTEX
  8
0
 10
14.669089
 20
235.485547
 42
-0.160018
  0
VERTEX
  8
0
 10
14.761175
 20
235.182499
 42
-0.397278
  0
VERTEX
  8
0
 10
14.612495
 20
235.031803
 42
0.688922
  0
VERTEX
  8
0
 10
14.395990
 20
234.396553
 42
0.019979
  0
VERTEX
  8
0
 10
17.565051
 20
231.973321
 42
0.016810
  0
VERTEX
  8
0
 10
21.330861
 20
229.510143
 42
0.120600
  0
VERTEX
  8
0
 10
23.387505
 20
228.861336
 42
0.008595
  0
VERTEX
  8
0
 10
27.821750
 20
228.646743
 42
0.040063
  0
VERTEX
  8
0
 10
30.376269
 20
228.771800
 42
0.066824
  0
VERTEX
  8
0
 10
32.197273
 20
229.261004
 42
0.061190
  0
VERTEX
  8
0
 10
33.884859
 20
230.223056
 42
-0.024616
  0
VERTEX
  8
0
 10
34.898137
 20
230.903164
 42
-0.024854
  0
VERTEX
  8
0
 10
35.970175
 20
231.478023
 42
-0.025609
  0
VERTEX
  8
0
 10
36.950528
 20
231.882496
 42
-0.085230
  0
VERTEX
  8
0
 10
37.634859
 20
232.000000
 42
0.063578
  0
VERTEX
  8
0
 10
38.156799
 20
232.066637
 42
0.081510
  0
VERTEX
  8
0
 10
38.598990
 20
232.262322
 42
0.098471
  0
VERTEX
  8
0
 10
38.894859
 20
232.552448
 42
0.150851
  0
VERTEX
  8
0
 10
39.000000
 20
232.893011
 42
-0.143191
  0
VERTEX
  8
0
 10
39.112750
 20
233.278643
 42
-0.060054
  0
VERTEX
  8
0
 10
39.459834
 20
233.700155
 42
-0.052655
  0
VERTEX
  8
0
 10
39.966533
 20
234.090780
 42
-0.046317
  0
VERTEX
  8
0
 10
40.565391
 20
234.386719
 42
-0.054597
  0
VERTEX
  8
0
 10
41.323565
 20
234.586238
 42
-0.318424
  0
VERTEX
  8
0
 10
41.671562
 20
234.410207
 42
-0.178343
  0
VERTEX
  8
0
 10
41.740436
 20
233.895281
 42
-0.020358
  0
VERTEX
  8
0
 10
41.433206
 20
232.743708
 42
-0.026664
  0
VERTEX
  8
0
 10
41.106512
 20
231.861740
 42
-0.031239
  0
VERTEX
  8
0
 10
40.702125
 20
231.066673
 42
-0.032765
  0
VERTEX
  8
0
 10
40.282579
 20
230.451427
 42
-0.135066
  0
VERTEX
  8
0
 10
39.923993
 20
230.185392
 42
0.171659
  0
VERTEX
  8
0
 10
39.656441
 20
229.955520
 42
0.093532
  0
VERTEX
  8
0
 10
39.512574
 20
229.541554
 42
0.074132
  0
VERTEX
  8
0
 10
39.512594
 20
229.007808
 42
0.054648
  0
VERTEX
  8
0
 10
39.663166
 20
228.435392
 42
-0.060243
  0
VERTEX
  8
0
 10
39.801156
 20
227.885972
 42
-0.106115
  0
VERTEX
  8
0
 10
39.761259
 20
227.421647
 42
-0.150114
  0
VERTEX
  8
0
 10
39.554803
 20
227.116712
 42
-0.171049
  0
VERTEX
  8
0
 10
39.223620
 20
227.000000
 42
0.175935
  0
VERTEX
  8
0
 10
38.791989
 20
226.843271
 42
0.055259
  0
VERTEX
  8
0
 10
38.309123
 20
226.339063
 42
0.047459
  0
VERTEX
  8
0
 10
37.854264
 20
225.611170
 42
0.037293
  0
VERTEX
  8
0
 10
37.501153
 20
224.750000
 42
-0.002141
  0
VERTEX
  8
0
 10
37.204653
 20
223.851855
 42
-0.002613
  0
VERTEX
  8
0
 10
36.919215
 20
223.014062
 42
-0.002190
  0
VERTEX
  8
0
 10
36.672439
 20
222.311914
 42
-0.018412
  0
VERTEX
  8
0
 10
36.548155
 20
222.000000
 42
0.004167
  0
VERTEX
  8
0
 10
36.417496
 20
221.697445
 42
0.000562
  0
VERTEX
  8
0
 10
36.149074
 20
221.059375
 42
0.000648
  0
VERTEX
  8
0
 10
35.832784
 20
220.302399
 42
0.000546
  0
VERTEX
  8
0
 10
35.499764
 20
219.500000
 42
-0.002599
  0
VERTEX
  8
0
 10
35.038675
 20
218.401782
 42
-0.000591
  0
VERTEX
  8
0
 10
34.245266
 20
216.545312
 42
-0.000611
  0
VERTEX
  8
0
 10
33.325163
 20
214.406641
 42
-0.000594
  0
VERTEX
  8
0
 10
32.391159
 20
212.250000
 42
0.008541
  0
VERTEX
  8
0
 10
31.556779
 20
210.236223
 42
0.015053
  0
VERTEX
  8
0
 10
30.946810
 20
208.542188
 42
0.009680
  0
VERTEX
  8
0
 10
30.534139
 20
207.189726
 42
0.497814
  0
VERTEX
  8
0
 10
30.677474
 20
207.000000
 42
-0.393951
  0
VERTEX
  8
0
 10
30.798418
 20
206.887202
 42
-0.113518
  0
VERTEX
  8
0
 10
30.754748
 20
206.610251
 42
-0.053627
  0
VERTEX
  8
0
 10
30.527030
 20
206.182927
 42
-0.023994
  0
VERTEX
  8
0
 10
30.143738
 20
205.673193
 42
0.105009
  0
VERTEX
  8
0
 10
29.456642
 20
204.364521
 42
0.032660
  0
VERTEX
  8
0
 10
28.993588
 20
202.180499
 42
0.030377
  0
VERTEX
  8
0
 10
28.775598
 20
199.556782
 42
0.026121
  0
VERTEX
  8
0
 10
28.858857
 20
196.788955
 42
0.086355
  0
VERTEX
  8
0
 10
29.067514
 20
195.987142
 42
0.033161
  0
VERTEX
  8
0
 10
29.614508
 20
194.969402
 42
0.031620
  0
VERTEX
  8
0
 10
30.368087
 20
193.919798
 42
0.033731
  0
VERTEX
  8
0
 10
31.233085
 20
192.997475
 42
0.014387
  0
VERTEX
  8
0
 10
32.626959
 20
191.771863
 42
0.149454
  0
VERTEX
  8
0
 10
33.323289
 20
191.480929
 42
0.225961
  0
VERTEX
  8
0
 10
33.919206
 20
191.695358
 42
0.037408
  0
VERTEX
  8
0
 10
34.733085
 20
192.649650
 42
-0.025317
  0
VERTEX
  8
0
 10
35.223170
 20
193.253227
 42
-0.072841
  0
VERTEX
  8
0
 10
35.637186
 20
193.596848
 42
-0.224570
  0
VERTEX
  8
0
 10
35.897035
 20
193.624369
 42
-0.309534
  0
VERTEX
  8
0
 10
36.031803
 20
193.441130
 42
0.369612
  0
VERTEX
  8
0
 10
36.184109
 20
193.274948
 42
0.179095
  0
VERTEX
  8
0
 10
36.485547
 20
193.346664
 42
0.061049
  0
VERTEX
  8
0
 10
36.964555
 20
193.758342
 42
0.022839
  0
VERTEX
  8
0
 10
37.531803
 20
194.441130
 42
-0.020752
  0
VERTEX
  8
0
 10
38.095060
 20
195.124896
 42
-0.058084
  0
VERTEX
  8
0
 10
38.559375
 20
195.535596
 42
-0.190929
  0
VERTEX
  8
0
 10
38.835289
 20
195.600445
 42
-0.381580
  0
VERTEX
  8
0
 10
38.968197
 20
195.441130
 42
-0.123869
  0
VERTEX
  8
0
 10
38.654718
 20
194.352055
 42
-0.029618
  0
VERTEX
  8
0
 10
37.605119
 20
192.770683
 42
-0.026399
  0
VERTEX
  8
0
 10
36.403391
 20
191.338045
 42
-0.207932
  0
VERTEX
  8
0
 10
35.625661
 20
191.000000
 42
0.212977
  0
VERTEX
  8
0
 10
34.220061
 20
190.372830
 42
0.020427
  0
VERTEX
  8
0
 10
31.774631
 20
187.413376
 42
0.023427
  0
VERTEX
  8
0
 10
29.593101
 20
184.244315
 42
0.136490
  0
VERTEX
  8
0
 10
29.029313
 20
182.318094
 42
0.171501
  0
VERTEX
  8
0
 10
29.630265
 20
180.541997
 42
0.040951
  0
VERTEX
  8
0
 10
31.782797
 20
178.221274
 42
0.042271
  0
VERTEX
  8
0
 10
34.385104
 20
176.215618
 42
0.107009
  0
VERTEX
  8
0
 10
36.609519
 20
175.381047
 42
0.200269
  0
VERTEX
  8
0
 10
38.049172
 20
175.748006
 42
0.020314
  0
VERTEX
  8
0
 10
40.839777
 20
178.030207
 42
0.020566
  0
VERTEX
  8
0
 10
43.434322
 20
180.532295
 42
0.192945
  0
VERTEX
  8
0
 10
44.000000
 20
181.943629
 42
-0.101644
  0
VERTEX
  8
0
 10
44.082803
 20
182.346742
 42
-0.098521
  0
VERTEX
  8
0
 10
44.318229
 20
182.689691
 42
-0.097310
  0
VERTEX
  8
0
 10
44.669851
 20
182.919454
 42
-0.096493
  0
VERTEX
  8
0
 10
45.083333
 20
183.000000
 42
0.123138
  0
VERTEX
  8
0
 10
45.464014
 20
183.095196
 42
0.143108
  0
VERTEX
  8
0
 10
45.729984
 20
183.355362
 42
0.125516
  0
VERTEX
  8
0
 10
45.835384
 20
183.747755
 42
0.083805
  0
VERTEX
  8
0
 10
45.763419
 20
184.209743
 42
-0.171083
  0
VERTEX
  8
0
 10
45.774343
 20
184.847200
 42
-0.039634
  0
VERTEX
  8
0
 10
46.233538
 20
185.834744
 42
-0.036459
  0
VERTEX
  8
0
 10
46.975854
 20
186.949773
 42
-0.028722
  0
VERTEX
  8
0
 10
47.930086
 20
188.042875
 42
0.010603
  0
VERTEX
  8
0
 10
50.486785
 20
190.765951
 42
0.020434
  0
VERTEX
  8
0
 10
52.394863
 20
193.069234
 42
0.021855
  0
VERTEX
  8
0
 10
53.686313
 20
194.927822
 42
0.141830
  0
VERTEX
  8
0
 10
54.000000
 20
196.011431
 42
-0.094836
  0
VERTEX
  8
0
 10
54.072221
 20
196.388770
 42
-0.096858
  0
VERTEX
  8
0
 10
54.278469
 20
196.709608
 42
-0.098870
  0
VERTEX
  8
0
 10
54.586252
 20
196.924382
 42
-0.103405
  0
VERTEX
  8
0
 10
54.947980
 20
197.000000
 42
-0.315701
  0
VERTEX
  8
0
 10
55.257774
 20
196.782743
 42
-0.095337
  0
VERTEX
  8
0
 10
55.353017
 20
196.183046
 42
-0.053448
  0
VERTEX
  8
0
 10
55.220202
 20
195.236405
 42
-0.022314
  0
VERTEX
  8
0
 10
54.850155
 20
194.000000
 42
-0.028077
  0
VERTEX
  8
0
 10
54.375849
 20
192.851250
 42
-0.038237
  0
VERTEX
  8
0
 10
53.815113
 20
191.881250
 42
-0.042506
  0
VERTEX
  8
0
 10
53.252601
 20
191.193471
 42
-0.202787
  0
VERTEX
  8
0
 10
52.795186
 20
191.000000
 42
0.176100
  0
VERTEX
  8
0
 10
52.459024
 20
190.877814
 42
0.149134
  0
VERTEX
  8
0
 10
52.251548
 20
190.559375
 42
0.103822
  0
VERTEX
  8
0
 10
52.215354
 20
190.074236
 42
0.058560
  0
VERTEX
  8
0
 10
52.361626
 20
189.500000
 42
-0.054716
  0
VERTEX
  8
0
 10
52.512645
 20
188.925574
 42
-0.098337
  0
VERTEX
  8
0
 10
52.489213
 20
188.440625
 42
-0.146126
  0
VERTEX
  8
0
 10
52.300940
 20
188.122603
 42
-0.188712
  0
VERTEX
  8
0
 10
51.987667
 20
188.000000
 42
0.200900
  0
VERTEX
  8
0
 10
51.579313
 20
187.829022
 42
0.053798
  0
VERTEX
  8
0
 10
51.132722
 20
187.265625
 42
0.045658
  0
VERTEX
  8
0
 10
50.720500
 20
186.457143
 42
0.033602
  0
VERTEX
  8
0
 10
50.410644
 20
185.500000
 42
-0.034505
  0
VERTEX
  8
0
 10
50.098895
 20
184.542904
 42
-0.046564
  0
VERTEX
  8
0
 10
49.681116
 20
183.734375
 42
-0.055041
  0
VERTEX
  8
0
 10
49.226481
 20
183.172123
 42
-0.197734
  0
VERTEX
  8
0
 10
48.808259
 20
183.000000
 42
0.139515
  0
VERTEX
  8
0
 10
48.469603
 20
182.903629
 42
0.144816
  0
VERTEX
  8
0
 10
48.238245
 20
182.644418
 42
0.117240
  0
VERTEX
  8
0
 10
48.155614
 20
182.252189
 42
0.074128
  0
VERTEX
  8
0
 10
48.236831
 20
181.789507
 42
-0.167814
  0
VERTEX
  8
0
 10
48.229810
 20
181.138170
 42
-0.035851
  0
VERTEX
  8
0
 10
47.766815
 20
180.087254
 42
-0.033729
  0
VERTEX
  8
0
 10
47.024537
 20
178.887585
 42
-0.026583
  0
VERTEX
  8
0
 10
46.070164
 20
177.694444
 42
0.012122
  0
VERTEX
  8
0
 10
45.076845
 20
176.523666
 42
0.015282
  0
VERTEX
  8
0
 10
44.218267
 20
175.391390
 42
0.013404
  0
VERTEX
  8
0
 10
43.560767
 20
174.412380
 42
0.107243
  0
VERTEX
  8
0
 10
43.375000
 20
173.904936
 42
0.006614
  0
VERTEX
  8
0
 10
43.318403
 20
173.450983
 42
0.002423
  0
VERTEX
  8
0
 10
43.250000
 20
172.807864
 42
0.002401
  0
VERTEX
  8
0
 10
43.182017
 20
172.104196
 42
0.002876
  0
VERTEX
  8
0
 10
43.125000
 20
171.440983
 42
-0.049435
  0
VERTEX
  8
0
 10
43.022926
 20
170.876190
 42
-0.098361
  0
VERTEX
  8
0
 10
42.816406
 20
170.473306
 42
-0.160832
  0
VERTEX
  8
0
 10
42.544485
 20
170.294338
 42
-0.204674
  0
VERTEX
  8
0
 10
42.250000
 20
170.336023
 42
0.268878
  0
VERTEX
  8
0
 10
41.415512
 20
170.351926
 42
0.096843
  0
VERTEX
  8
0
 10
40.472159
 20
169.558381
 42
0.070481
  0
VERTEX
  8
0
 10
39.643806
 20
168.168997
 42
0.056992
  0
VERTEX
  8
0
 10
39.158397
 20
166.500000
 42
-0.038110
  0
VERTEX
  8
0
 10
38.960605
 20
165.710088
 42
-0.042594
  0
VERTEX
  8
0
 10
38.650298
 20
164.989583
 42
-0.047082
  0
VERTEX
  8
0
 10
38.281332
 20
164.433610
 42
-0.135599
  0
VERTEX
  8
0
 10
37.908397
 20
164.166667
 42
0.119281
  0
VERTEX
  8
0
 10
37.560833
 20
163.934391
 42
0.066454
  0
VERTEX
  8
0
 10
37.266842
 20
163.515104
 42
0.060328
  0
VERTEX
  8
0
 10
37.067674
 20
162.983210
 42
0.059514
  0
VERTEX
  8
0
 10
37.000000
 20
162.416667
 42
-0.066593
  0
VERTEX
  8
0
 10
36.927553
 20
161.875126
 42
-0.083630
  0
VERTEX
  8
0
 10
36.715469
 20
161.416146
 42
-0.099393
  0
VERTEX
  8
0
 10
36.400760
 20
161.109182
 42
-0.144699
  0
VERTEX
  8
0
 10
36.031385
 20
161.000000
 42
0.184534
  0
VERTEX
  8
0
 10
35.710807
 20
160.877514
 42
0.147206
  0
VERTEX
  8
0
 10
35.516384
 20
160.559375
 42
0.100118
  0
VERTEX
  8
0
 10
35.488865
 20
160.074366
 42
0.055937
  0
VERTEX
  8
0
 10
35.638374
 20
159.500000
 42
-0.067976
  0
VERTEX
  8
0
 10
35.773113
 20
158.926261
 42
-0.115790
  0
VERTEX
  8
0
 10
35.706839
 20
158.440625
 42
-0.152481
  0
VERTEX
  8
0
 10
35.454058
 20
158.120782
 42
-0.150969
  0
VERTEX
  8
0
 10
35.063152
 20
158.000000
 42
0.113114
  0
VERTEX
  8
0
 10
34.640503
 20
157.903145
 42
0.118902
  0
VERTEX
  8
0
 10
34.311110
 20
157.632812
 42
0.111884
  0
VERTEX
  8
0
 10
34.127955
 20
157.227074
 42
0.091527
  0
VERTEX
  8
0
 10
34.119060
 20
156.750000
 42
-0.086720
  0
VERTEX
  8
0
 10
34.104171
 20
155.114399
 42
-0.026942
  0
VERTEX
  8
0
 10
33.527326
 20
152.715475
 42
-0.019818
  0
VERTEX
  8
0
 10
32.749664
 20
150.441235
 42
-0.309798
  0
VERTEX
  8
0
 10
32.105878
 20
150.000000
 42
0.220939
  0
VERTEX
  8
0
 10
31.836707
 20
149.874955
 42
0.067203
  0
VERTEX
  8
0
 10
31.589107
 20
149.485938
 42
0.053036
  0
VERTEX
  8
0
 10
31.397423
 20
148.920102
 42
0.036529
  0
VERTEX
  8
0
 10
31.297770
 20
148.250000
 42
-0.009219
  0
VERTEX
  8
0
 10
30.947822
 20
144.499653
 42
-0.004739
  0
VERTEX
  8
0
 10
30.378466
 20
139.815499
 42
-0.004110
  0
VERTEX
  8
0
 10
29.758970
 20
135.376206
 42
-0.022518
  0
VERTEX
  8
0
 10
29.297293
 20
133.000000
 42
0.023819
  0
VERTEX
  8
0
 10
29.051668
 20
131.717997
 42
0.008094
  0
VERTEX
  8
0
 10
28.814154
 20
129.835178
 42
0.008027
  0
VERTEX
  8
0
 10
28.618573
 20
127.743744
 42
0.009154
  0
VERTEX
  8
0
 10
28.500260
 20
125.736777
 42
-0.010413
  0
VERTEX
  8
0
 10
28.385593
 20
123.871570
 42
-0.014493
  0
VERTEX
  8
0
 10
28.199935
 20
122.208996
 42
-0.010878
  0
VERTEX
  8
0
 10
27.977937
 20
120.850192
 42
-0.151569
  0
VERTEX
  8
0
 10
27.749421
 20
120.416088
 42
0.227990
  0
VERTEX
  8
0
 10
27.616973
 20
120.038155
 42
0.035261
  0
VERTEX
  8
0
 10
27.764498
 20
119.235330
 42
0.033395
  0
VERTEX
  8
0
 10
28.091170
 20
118.246210
 42
0.023327
  0
VERTEX
  8
0
 10
28.583572
 20
117.179311
 42
-0.024127
  0
VERTEX
  8
0
 10
29.063883
 20
116.134219
 42
-0.040729
  0
VERTEX
  8
0
 10
29.349733
 20
115.213863
 42
-0.051652
  0
VERTEX
  8
0
 10
29.430538
 20
114.523495
 42
-0.325396
  0
VERTEX
  8
0
 10
29.237595
 20
114.250862
 42
0.311344
  0
VERTEX
  8
0
 10
28.812430
 20
113.681480
 42
0.005024
  0
VERTEX
  8
0
 10
28.695767
 20
109.468652
 42
0.007157
  0
VERTEX
  8
0
 10
28.682113
 20
105.360591
 42
0.160320
  0
VERTEX
  8
0
 10
29.061185
 20
104.250000
 42
-0.063628
  0
VERTEX
  8
0
 10
29.143820
 20
104.105600
 42
-0.016283
  0
VERTEX
  8
0
 10
29.238889
 20
103.853125
 42
-0.016320
  0
VERTEX
  8
0
 10
29.329314
 20
103.555465
 42
-0.015907
  0
VERTEX
  8
0
 10
29.400991
 20
103.250000
 42
0.070492
  0
VERTEX
  8
0
 10
29.554315
 20
102.815756
 42
0.008821
  0
VERTEX
  8
0
 10
30.032359
 20
101.936127
 42
0.010240
  0
VERTEX
  8
0
 10
30.643251
 20
100.907533
 42
0.008327
  0
VERTEX
  8
0
 10
31.338299
 20
99.830434
 42
-0.026830
  0
VERTEX
  8
0
 10
32.003504
 20
98.710739
 42
-0.028990
  0
VERTEX
  8
0
 10
32.526159
 20
97.554238
 42
-0.030219
  0
VERTEX
  8
0
 10
32.853243
 20
96.519174
 42
-0.108449
  0
VERTEX
  8
0
 10
32.873635
 20
95.830434
 42
0.086013
  0
VERTEX
  8
0
 10
32.843292
 20
93.787304
 42
0.034373
  0
VERTEX
  8
0
 10
33.471190
 20
91.049847
 42
0.028682
  0
VERTEX
  8
0
 10
34.381624
 20
88.567571
 42
0.298932
  0
VERTEX
  8
0
 10
35.246122
 20
88.000000
 42
-0.058432
  0
VERTEX
  8
0
 10
35.619804
 20
87.956181
 42
-0.175466
  0
VERTEX
  8
0
 10
35.831313
 20
87.817348
 42
-0.252172
  0
VERTEX
  8
0
 10
35.861627
 20
87.614715
 42
-0.110409
  0
VERTEX
  8
0
 10
35.711539
 20
87.378205
 42
0.265631
  0
VERTEX
  8
0
 10
35.582573
 20
86.905100
 42
0.017795
  0
VERTEX
  8
0
 10
35.997528
 20
85.508085
 42
0.021854
  0
VERTEX
  8
0
 10
36.657360
 20
83.796825
 42
0.014328
  0
VERTEX
  8
0
 10
37.558276
 20
81.884998
 42
-0.006471
  0
VERTEX
  8
0
 10
38.496887
 20
79.971727
 42
-0.009351
  0
VERTEX
  8
0
 10
39.272650
 20
78.255097
 42
-0.005598
  0
VERTEX
  8
0
 10
39.877621
 20
76.802161
 42
-0.134648
  0
VERTEX
  8
0
 10
39.927994
 20
76.368596
 42
0.164551
  0
VERTEX
  8
0
 10
39.981622
 20
76.063791
 42
0.049774
  0
VERTEX
  8
0
 10
40.250483
 20
75.670632
 42
0.043887
  0
VERTEX
  8
0
 10
40.660763
 20
75.261653
 42
0.035645
  0
VERTEX
  8
0
 10
41.164590
 20
74.898278
 42
-0.038351
  0
VERTEX
  8
0
 10
41.677146
 20
74.524378
 42
-0.041069
  0
VERTEX
  8
0
 10
42.114006
 20
74.084362
 42
-0.044827
  0
VERTEX
  8
0
 10
42.420348
 20
73.646162
 42
-0.123962
  0
VERTEX
  8
0
 10
42.521389
 20
73.286475
 42
0.099755
  0
VERTEX
  8
0
 10
42.649735
 20
72.728381
 42
0.001713
  0
VERTEX
  8
0
 10
43.956227
 20
69.866964
 42
0.004285
  0
VERTEX
  8
0
 10
45.522149
 20
66.543455
 42
0.002831
  0
VERTEX
  8
0
 10
47.375910
 20
62.750000
 42
0.008234
  0
VERTEX
  8
0
 10
49.729456
 20
58.192312
 42
0.026239
  0
VERTEX
  8
0
 10
51.506765
 20
55.264657
 42
0.036960
  0
VERTEX
  8
0
 10
52.928833
 20
53.476891
 42
0.209213
  0
VERTEX
  8
0
 10
54.018672
 20
53.000000
 42
-0.117243
  0
VERTEX
  8
0
 10
54.946114
 20
52.779496
 42
-0.026776
  0
VERTEX
  8
0
 10
56.355410
 20
51.971875
 42
-0.026276
  0
VERTEX
  8
0
 10
57.919753
 20
50.839751
 42
-0.022943
  0
VERTEX
  8
0
 10
59.432342
 20
49.500000
 42
-0.007786
  0
VERTEX
  8
0
 10
60.773132
 20
48.156720
 42
-0.014796
  0
VERTEX
  8
0
 10
61.802210
 20
47.028125
 42
-0.012514
  0
VERTEX
  8
0
 10
62.514982
 20
46.155116
 42
-0.623633
  0
VERTEX
  8
0
 10
62.438985
 20
46.000000
 42
0.628637
  0
VERTEX
  8
0
 10
62.362548
 20
45.841107
 42
0.009361
  0
VERTEX
  8
0
 10
63.215339
 20
44.813649
 42
0.012847
  0
VERTEX
  8
0
 10
64.397910
 20
43.511167
 42
0.006880
  0
VERTEX
  8
0
 10
65.920793
 20
41.961357
 42
-0.019197
  0
VERTEX
  8
0
 10
67.484428
 20
40.289645
 42
-0.023409
  0
VERTEX
  8
0
 10
68.809291
 20
38.606355
 42
-0.022862
  0
VERTEX
  8
0
 10
69.773630
 20
37.115927
 42
-0.129092
  0
VERTEX
  8
0
 10
70.025729
 20
36.211357
 42
0.164923
  0
VERTEX
  8
0
 10
70.343741
 20
35.317859
 42
0.023472
  0
VERTEX
  8
0
 10
71.639607
 20
33.827711
 42
0.024620
  0
VERTEX
  8
0
 10
73.401561
 20
32.156898
 42
0.018731
  0
VERTEX
  8
0
 10
75.483650
 20
30.500000
 42
-0.007661
  0
VERTEX
  8
0
 10
77.568360
 20
28.915097
 42
-0.011512
  0
VERTEX
  8
0
 10
79.332496
 20
27.463907
 42
-0.006519
  0
VERTEX
  8
0
 10
80.755686
 20
26.204458
 42
-0.196168
  0
VERTEX
  8
0
 10
80.957921
 20
25.781385
 42
0.411194
  0
VERTEX
  8
0
 10
81.450270
 20
25.338934
 42
0.125858
  0
VERTEX
  8
0
 10
82.509075
 20
25.664799
 42
0.079203
  0
VERTEX
  8
0
 10
83.621991
 20
26.615672
 42
0.178273
  0
VERTEX
  8
0
 10
84.000000
 20
27.642173
 42
-0.333574
  0
VERTEX
  8
0
 10
84.486751
 20
28.290588
 42
-0.175537
  0
VERTEX
  8
0
 10
85.547606
 20
28.221953
 42
-0.064373
  0
VERTEX
  8
0
 10
87.308939
 20
27.164459
 42
-0.021760
  0
VERTEX
  8
0
 10
89.576875
 20
25.204075
 42
0.028999
  0
VERTEX
  8
0
 10
90.530848
 20
24.403287
 42
0.020740
  0
VERTEX
  8
0
 10
91.682023
 20
23.617640
 42
0.021036
  0
VERTEX
  8
0
 10
92.845417
 20
22.958722
 42
0.041507
  0
VERTEX
  8
0
 10
93.826875
 20
22.554948
 42
-0.036548
  0
VERTEX
  8
0
 10
94.658662
 20
22.222341
 42
-0.046992
  0
VERTEX
  8
0
 10
95.361644
 20
21.793876
 42
-0.054773
  0
VERTEX
  8
0
 10
95.849197
 20
21.339015
 42
-0.179552
  0
VERTEX
  8
0
 10
96.000000
 20
20.932612
 42
0.081121
  0
VERTEX
  8
0
 10
96.056710
 20
20.585371
 42
0.105541
  0
VERTEX
  8
0
 10
96.220313
 20
20.308741
 42
0.119760
  0
VERTEX
  8
0
 10
96.464284
 20
20.146084
 42
0.127241
  0
VERTEX
  8
0
 10
96.750000
 20
20.118421
 42
-0.030259
  0
VERTEX
  8
0
 10
97.073800
 20
20.149635
 42
-0.023750
  0
VERTEX
  8
0
 10
97.426562
 20
20.145441
 42
-0.024306
  0
VERTEX
  8
0
 10
97.755239
 20
20.109812
 42
-0.052881
  0
VERTEX
  8
0
 10
98.000000
 20
20.044111
 42
0.034630
  0
VERTEX
  8
0
 10
98.318626
 20
19.946010
 42
0.003724
  0
VERTEX
  8
0
 10
99.072124
 20
19.775930
 42
0.004564
  0
VERTEX
  8
0
 10
99.973802
 20
19.588055
 42
0.003660
  0
VERTEX
  8
0
 10
100.947658
 20
19.401800
 42
-0.038624
  0
VERTEX
  8
0
 10
102.004053
 20
19.122062
 42
-0.026264
  0
VERTEX
  8
0
 10
103.155447
 20
18.650677
 42
-0.026527
  0
VERTEX
  8
0
 10
104.225091
 20
18.074433
 42
-0.047129
  0
VERTEX
  8
0
 10
105.026398
 20
17.476110
 42
0.033434
  0
VERTEX
  8
0
 10
105.741309
 20
16.911207
 42
0.031412
  0
VERTEX
  8
0
 10
106.539744
 20
16.433607
 42
0.032935
  0
VERTEX
  8
0
 10
107.301978
 20
16.101934
 42
0.086358
  0
VERTEX
  8
0
 10
107.887758
 20
16.000000
 42
-0.062144
  0
VERTEX
  8
0
 10
108.325899
 20
15.945333
 42
-0.130728
  0
VERTEX
  8
0
 10
108.623261
 20
15.779687
 42
-0.189402
  0
VERTEX
  8
0
 10
108.735187
 20
15.534480
 42
-0.150681
  0
VERTEX
  8
0
 10
108.663977
 20
15.250000
 42
0.268977
  0
VERTEX
  8
0
 10
108.648196
 20
14.413840
 42
0.097274
  0
VERTEX
  8
0
 10
109.443291
 20
13.470986
 42
0.070845
  0
VERTEX
  8
0
 10
110.833975
 20
12.647126
 42
0.057709
  0
VERTEX
  8
0
 10
112.500000
 20
12.171519
 42
-0.032199
  0
VERTEX
  8
0
 10
113.468775
 20
11.947583
 42
-0.012813
  0
VERTEX
  8
0
 10
114.765444
 20
11.521958
 42
-0.012618
  0
VERTEX
  8
0
 10
116.145380
 20
10.989866
 42
-0.015503
  0
VERTEX
  8
0
 10
117.403638
 20
10.421519
 42
0.020553
  0
VERTEX
  8
0
 10
118.641475
 20
9.877377
 42
0.018688
  0
VERTEX
  8
0
 10
119.959360
 20
9.417571
 42
0.019075
  0
VERTEX
  8
0
 10
121.168773
 20
9.095615
 42
0.055564
  0
VERTEX
  8
0
 10
122.026520
 20
9.000000
 42
-0.062604
  0
VERTEX
  8
0
 10
122.961434
 20
8.882481
 42
-0.013644
  0
VERTEX
  8
0
 10
124.526514
 20
8.436878
 42
-0.014013
  0
VERTEX
  8
0
 10
126.321010
 20
7.816829
 42
-0.013023
  0
VERTEX
  8
0
 10
128.122882
 20
7.082989
 42
0.014767
  0
VERTEX
  8
0
 10
130.054567
 20
6.304127
 42
0.010779
  0
VERTEX
  8
0
 10
132.242347
 20
5.549435
 42
0.010908
  0
VERTEX
  8
0
 10
134.348796
 20
4.923585
 42
0.023501
  0
VERTEX
  8
0
 10
136.000000
 20
4.554349
 42
-0.000365
  0
VERTEX
  8
0
 10
137.558451
 20
4.280834
 42
-0.000240
  0
VERTEX
  8
0
 10
139.353125
 20
3.963621
 42
-0.000241
  0
VERTEX
  8
0
 10
141.100392
 20
3.653055
 42
-0.000464
  0
VERTEX
  8
0
 10
142.500000
 20
3.402245
 42
0.004854
  0
VERTEX
  8
0
 10
143.830830
 20
3.175802
 42
0.003277
  0
VERTEX
  8
0
 10
145.353125
 20
2.942186
 42
0.003300
  0
VERTEX
  8
0
 10
146.828236
 20
2.735631
 42
0.006559
  0
VERTEX
  8
0
 10
148.000000
 20
2.595049
 42
-0.022441
  0
VERTEX
  8
0
 10
149.137827
 20
2.421731
 42
-0.012663
  0
VERTEX
  8
0
 10
150.500000
 20
2.115176
 42
-0.012620
  0
VERTEX
  8
0
 10
151.861241
 20
1.735620
 42
-0.020178
  0
VERTEX
  8
0
 10
153.000000
 20
1.335982
 42
0.095254
  0
VERTEX
  8
0
 10
157.060991
 20
0.563685
 42
0.017118
  0
VERTEX
  8
0
 10
164.792982
 20
0.843989
 42
0.019473
  0
VERTEX
  8
0
 10
173.070829
 20
1.753299
 42
0.032310
  0
VERTEX
  8
0
 10
179.932883
 20
3.237066
 42
0.039540
  0
VERTEX
  8
0
 10
181.916954
 20
3.976154
 42
0.026677
  0
VERTEX
  8
0
 10
184.050699
 20
5.111435
 42
0.026567
  0
VERTEX
  8
0
 10
186.065598
 20
6.476417
 42
0.037441
  0
VERTEX
  8
0
 10
187.691249
 20
7.912015
 42
0.011447
  0
VERTEX
  8
0
 10
189.604049
 20
9.966653
 42
0.097054
  0
VERTEX
  8
0
 10
190.242486
 20
11.048173
 42
0.196689
  0
VERTEX
  8
0
 10
190.198820
 20
11.944973
 42
0.074762
  0
VERTEX
  8
0
 10
189.492607
 20
13.008169
 42
0.149414
  0
VERTEX
  8
0
 10
187.679979
 20
14.091264
 42
0.037348
  0
VERTEX
  8
0
 10
184.240460
 20
14.672144
 42
0.034879
  0
VERTEX
  8
0
 10
180.839131
 20
14.750102
 42
0.247476
  0
VERTEX
  8
0
 10
179.462939
 20
13.940034
 42
-0.265646
  0
VERTEX
  8
0
 10
178.698851
 20
13.524670
 42
-0.047864
  0
VERTEX
  8
0
 10
177.028438
 20
13.721060
 42
-0.048308
  0
VERTEX
  8
0
 10
175.446159
 20
14.226563
 42
-0.299782
  0
VERTEX
  8
0
 10
175.000000
 20
14.903827
 42
0.217153
  0
VERTEX
  8
0
 10
174.876287
 20
15.175247
 42
0.063812
  0
VERTEX
  8
0
 10
174.485938
 20
15.435485
 42
0.051244
  0
VERTEX
  8
0
 10
173.920078
 20
15.647289
 42
0.035834
  0
VERTEX
  8
0
 10
173.250000
 20
15.772082
 42
-0.014657
  0
VERTEX
  8
0
 10
171.708860
 20
15.992092
 42
-0.007333
  0
VERTEX
  8
0
 10
169.773877
 20
16.355762
 42
-0.006267
  0
VERTEX
  8
0
 10
167.942178
 20
16.751879
 42
-0.036573
  0
VERTEX
  8
0
 10
167.000000
 20
17.041910
 42
0.053202
  0
VERTEX
  8
0
 10
166.755226
 20
17.108451
 42
0.024504
  0
VERTEX
  8
0
 10
166.426562
 20
17.144795
 42
0.023940
  0
VERTEX
  8
0
 10
166.073800
 20
17.149473
 42
0.030507
  0
VERTEX
  8
0
 10
165.750000
 20
17.118421
 42
-0.117068
  0
VERTEX
  8
0
 10
165.464163
 20
17.140323
 42
-0.118686
  0
VERTEX
  8
0
 10
165.220313
 20
17.288429
 42
-0.109549
  0
VERTEX
  8
0
 10
165.057061
 20
17.542852
 42
-0.088293
  0
VERTEX
  8
0
 10
165.000000
 20
17.863464
 42
0.245060
  0
VERTEX
  8
0
 10
164.834267
 20
18.181304
 42
0.077935
  0
VERTEX
  8
0
 10
164.339063
 20
18.422929
 42
0.057254
  0
VERTEX
  8
0
 10
163.611867
 20
18.558267
 42
0.036432
  0
VERTEX
  8
0
 10
162.750000
 20
18.555500
 42
-0.029078
  0
VERTEX
  8
0
 10
161.815215
 20
18.538762
 42
-0.027517
  0
VERTEX
  8
0
 10
160.867188
 20
18.629341
 42
-0.028610
  0
VERTEX
  8
0
 10
160.038226
 20
18.803845
 42
-0.080459
  0
VERTEX
  8
0
 10
159.500000
 20
19.047603
 42
0.073576
  0
VERTEX
  8
0
 10
157.671177
 20
19.906217
 42
0.050761
  0
VERTEX
  8
0
 10
155.421178
 20
20.340383
 42
0.048409
  0
VERTEX
  8
0
 10
153.005621
 20
20.322123
 42
0.050974
  0
VERTEX
  8
0
 10
150.681815
 20
19.836139
 42
-0.000753
  0
VERTEX
  8
0
 10
147.639367
 20
18.873236
 42
-0.004290
  0
VERTEX
  8
0
 10
146.017199
 20
18.377778
 42
-0.007913
  0
VERTEX
  8
0
 10
144.980272
 20
18.088540
 42
-0.021872
  0
VERTEX
  8
0
 10
144.239502
 20
17.928744
 42
0.048016
  0
VERTEX
  8
0
 10
143.843646
 20
17.821452
 42
0.010880
  0
VERTEX
  8
0
 10
143.197095
 20
17.561412
 42
0.011171
  0
VERTEX
  8
0
 10
142.461474
 20
17.227155
 42
0.010640
  0
VERTEX
  8
0
 10
141.729333
 20
16.855144
 42
-0.074358
  0
VERTEX
  8
0
 10
140.101995
 20
16.274081
 42
-0.220115
  0
VERTEX
  8
0
 10
138.977480
 20
16.547851
 42
-0.322768
  0
VERTEX
  8
0
 10
138.727557
 20
17.436210
 42
-0.109236
  0
VERTEX
  8
0
 10
139.492329
 20
18.635186
 42
0.063706
  0
VERTEX
  8
0
 10
140.665931
 20
20.153119
 42
0.274573
  0
VERTEX
  8
0
 10
140.660434
 20
21.248298
 42
0.131903
  0
VERTEX
  8
0
 10
139.552335
 20
22.317525
 42
0.013137
  0
VERTEX
  8
0
 10
136.250000
 20
24.032491
 42
-0.000798
  0
VERTEX
  8
0
 10
134.169080
 20
25.048768
 42
-0.000568
  0
VERTEX
  8
0
 10
131.840371
 20
26.193950
 42
-0.000573
  0
VERTEX
  8
0
 10
129.621120
 20
27.291603
 42
-0.001222
  0
VERTEX
  8
0
 10
127.908710
 20
28.146238
 42
0.040352
  0
VERTEX
  8
0
 10
126.117268
 20
28.871542
 42
0.017489
  0
VERTEX
  8
0
 10
123.636678
 20
29.555567
 42
0.017173
  0
VERTEX
  8
0
 10
120.934083
 20
30.102698
 42
0.021845
  0
VERTEX
  8
0
 10
118.408710
 20
30.411617
 42
-0.006877
  0
VERTEX
  8
0
 10
112.399854
 20
30.964745
 42
-0.055449
  0
VERTEX
  8
0
 10
109.696413
 20
31.558887
 42
-0.093515
  0
VERTEX
  8
0
 10
107.792430
 20
32.632928
 42
-0.036532
  0
VERTEX
  8
0
 10
105.622747
 20
34.750000
 42
0.016900
  0
VERTEX
  8
0
 10
104.443546
 20
35.994565
 42
0.022074
  0
VERTEX
  8
0
 10
103.279812
 20
37.045312
 42
0.020413
  0
VERTEX
  8
0
 10
102.259125
 20
37.820372
 42
0.153345
  0
VERTEX
  8
0
 10
101.687198
 20
38.000000
 42
-0.117874
  0
VERTEX
  8
0
 10
101.137159
 20
38.131498
 42
-0.024994
  0
VERTEX
  8
0
 10
100.275490
 20
38.624065
 42
-0.024858
  0
VERTEX
  8
0
 10
99.310914
 20
39.311216
 42
-0.021376
  0
VERTEX
  8
0
 10
98.367500
 20
40.124477
 42
-0.019688
  0
VERTEX
  8
0
 10
97.147108
 20
41.364952
 42
-0.129124
  0
VERTEX
  8
0
 10
96.746816
 20
42.131894
 42
-0.197675
  0
VERTEX
  8
0
 10
96.863348
 20
42.826979
 42
-0.057306
  0
VERTEX
  8
0
 10
97.553049
 20
43.695906
 42
0.029067
  0
VERTEX
  8
0
 10
98.106816
 20
44.318094
 42
0.030528
  0
VERTEX
  8
0
 10
98.574958
 20
44.990583
 42
0.032063
  0
VERTEX
  8
0
 10
98.903372
 20
45.616833
 42
0.105105
  0
VERTEX
  8
0
 10
99.000000
 20
46.071429
 42
0.134014
  0
VERTEX
  8
0
 10
98.865045
 20
46.565895
 42
0.174774
  0
VERTEX
  8
0
 10
98.506555
 20
46.862893
 42
0.081700
  0
VERTEX
  8
0
 10
97.804566
 20
46.992646
 42
0.014967
  0
VERTEX
  8
0
 10
96.480571
 20
46.979146
 42
-0.159506
  0
VERTEX
  8
0
 10
96.173876
 20
47.066083
 42
-0.012214
  0
VERTEX
  8
0
 10
95.464340
 20
47.569411
 42
-0.015796
  0
VERTEX
  8
0
 10
94.635116
 20
48.230435
 42
-0.011357
  0
VERTEX
  8
0
 10
93.750471
 20
49.017845
 42
0.031582
  0
VERTEX
  8
0
 10
92.737979
 20
49.848197
 42
0.023272
  0
VERTEX
  8
0
 10
91.522401
 20
50.639757
 42
0.023685
  0
VERTEX
  8
0
 10
90.297927
 20
51.282386
 42
0.047546
  0
VERTEX
  8
0
 10
89.269899
 20
51.647108
 42
-0.068641
  0
VERTEX
  8
0
 10
87.894951
 20
52.201024
 42
-0.134709
  0
VERTEX
  8
0
 10
87.069148
 20
53.030879
 42
-0.340361
  0
VERTEX
  8
0
 10
87.161821
 20
53.683866
 42
-0.195872
  0
VERTEX
  8
0
 10
87.937851
 20
54.000000
 42
0.205326
  0
VERTEX
  8
0
 10
88.284506
 20
54.148620
 42
0.093706
  0
VERTEX
  8
0
 10
88.557234
 20
54.570498
 42
0.069424
  0
VERTEX
  8
0
 10
88.716550
 20
55.198642
 42
0.046271
  0
VERTEX
  8
0
 10
88.729407
 20
55.942121
 42
0.121593
  0
VERTEX
  8
0
 10
88.431363
 20
56.850053
 42
0.066603
  0
VERTEX
  8
0
 10
87.679634
 20
57.756814
 42
0.053985
  0
VERTEX
  8
0
 10
86.530905
 20
58.608045
 42
0.034529
  0
VERTEX
  8
0
 10
85.041556
 20
59.347488
 42
0.003616
  0
VERTEX
  8
0
 10
81.015628
 20
60.976877
 42
0.005807
  0
VERTEX
  8
0
 10
77.556802
 20
62.301449
 42
0.003626
  0
VERTEX
  8
0
 10
74.704423
 20
63.332506
 42
0.080690
  0
VERTEX
  8
0
 10
73.840570
 20
63.488429
 42
-0.213131
  0
VERTEX
  8
0
 10
72.959606
 20
63.900507
 42
-0.013203
  0
VERTEX
  8
0
 10
71.085922
 20
66.185144
 42
-0.015348
  0
VERTEX
  8
0
 10
69.360109
 20
68.553172
 42
-0.150905
  0
VERTEX
  8
0
 10
69.000000
 20
69.719168
 42
0.118946
  0
VERTEX
  8
0
 10
68.885895
 20
70.192032
 42
0.024211
  0
VERTEX
  8
0
 10
68.453166
 20
70.944370
 42
0.024254
  0
VERTEX
  8
0
 10
67.851073
 20
71.789747
 42
0.020665
  0
VERTEX
  8
0
 10
67.138437
 20
72.621031
 42
-0.044825
  0
VERTEX
  8
0
 10
65.066765
 20
75.287962
 42
-0.017750
  0
VERTEX
  8
0
 10
62.696963
 20
79.283433
 42
-0.009013
  0
VERTEX
  8
0
 10
60.553405
 20
83.382539
 42
-0.322865
  0
VERTEX
  8
0
 10
60.715553
 20
84.382219
 42
0.236216
  0
VERTEX
  8
0
 10
60.803938
 20
84.647621
 42
0.139551
  0
VERTEX
  8
0
 10
60.664778
 20
84.959431
 42
0.083646
  0
VERTEX
  8
0
 10
60.292476
 20
85.277378
 42
0.043403
  0
VERTEX
  8
0
 10
59.741291
 20
85.545782
 42
-0.114594
  0
VERTEX
  8
0
 10
59.091332
 20
85.985309
 42
-0.107918
  0
VERTEX
  8
0
 10
58.684244
 20
86.675341
 42
-0.080814
  0
VERTEX
  8
0
 10
58.531173
 20
87.644061
 42
-0.037957
  0
VERTEX
  8
0
 10
58.633357
 20
88.911652
 42
0.063937
  0
VERTEX
  8
0
 10
58.696365
 20
91.112928
 42
0.054597
  0
VERTEX
  8
0
 10
58.216318
 20
93.385534
 42
0.040643
  0
VERTEX
  8
0
 10
57.097963
 20
96.041800
 42
0.016222
  0
VERTEX
  8
0
 10
55.160890
 20
99.487174
 42
-0.082136
  0
VERTEX
  8
0
 10
54.163221
 20
101.979828
 42
-0.034536
  0
VERTEX
  8
0
 10
53.629939
 20
105.562450
 42
-0.031113
  0
VERTEX
  8
0
 10
53.573033
 20
109.007344
 42
-0.187065
  0
VERTEX
  8
0
 10
54.282963
 20
110.616296
 42
0.227066
  0
VERTEX
  8
0
 10
54.413388
 20
110.986371
 42
0.007967
  0
VERTEX
  8
0
 10
54.220903
 20
112.535032
 42
0.013396
  0
VERTEX
  8
0
 10
53.907710
 20
114.400014
 42
0.008808
  0
VERTEX
  8
0
 10
53.452244
 20
116.528710
 42
-0.011818
  0
VERTEX
  8
0
 10
52.953124
 20
118.932053
 42
-0.034355
  0
VERTEX
  8
0
 10
52.762867
 20
120.616876
 42
-0.055008
  0
VERTEX
  8
0
 10
52.833437
 20
121.682295
 42
-0.363542
  0
VERTEX
  8
0
 10
53.212645
 20
122.000000
 42
0.122485
  0
VERTEX
  8
0
 10
53.576184
 20
122.090413
 42
0.256591
  0
VERTEX
  8
0
 10
53.731231
 20
122.326581
 42
0.142636
  0
VERTEX
  8
0
 10
53.650771
 20
122.714013
 42
0.038388
  0
VERTEX
  8
0
 10
53.311092
 20
123.250000
 42
-0.065269
  0
VERTEX
  8
0
 10
52.724315
 20
124.295946
 42
-0.098057
  0
VERTEX
  8
0
 10
52.532019
 20
125.321187
 42
-0.064523
  0
VERTEX
  8
0
 10
52.715592
 20
126.633819
 42
-0.015303
  0
VERTEX
  8
0
 10
53.366544
 20
128.750000
 42
-0.034314
  0
VERTEX
  8
0
 10
53.728283
 20
129.611285
 42
-0.044456
  0
VERTEX
  8
0
 10
54.179591
 20
130.339063
 42
-0.051231
  0
VERTEX
  8
0
 10
54.648702
 20
130.846362
 42
-0.182516
  0
VERTEX
  8
0
 10
55.055570
 20
131.000000
 42
0.272482
  0
VERTEX
  8
0
 10
55.450957
 20
131.232752
 42
0.033701
  0
VERTEX
  8
0
 10
55.893771
 20
132.175000
 42
0.032262
  0
VERTEX
  8
0
 10
56.304099
 20
133.467319
 42
0.021098
  0
VERTEX
  8
0
 10
56.615991
 20
135.000000
 42
-0.019254
  0
VERTEX
  8
0
 10
56.922030
 20
136.532816
 42
-0.029735
  0
VERTEX
  8
0
 10
57.314713
 20
137.825000
 42
-0.029606
  0
VERTEX
  8
0
 10
57.732930
 20
138.777657
 42
-0.281591
  0
VERTEX
  8
0
 10
58.096423
 20
139.000000
 42
0.215474
  0
VERTEX
  8
0
 10
58.368272
 20
139.122857
 42
0.137580
  0
VERTEX
  8
0
 10
58.521160
 20
139.440625
 42
0.087738
  0
VERTEX
  8
0
 10
58.521143
 20
139.925264
 42
0.047873
  0
VERTEX
  8
0
 10
58.361626
 20
140.500000
 42
-0.061205
  0
VERTEX
  8
0
 10
58.218607
 20
141.074100
 42
-0.107396
  0
VERTEX
  8
0
 10
58.263418
 20
141.559375
 42
-0.150591
  0
VERTEX
  8
0
 10
58.483858
 20
141.878169
 42
-0.168281
  0
VERTEX
  8
0
 10
58.835594
 20
142.000000
 42
0.194738
  0
VERTEX
  8
0
 10
59.206123
 20
142.150001
 42
0.114389
  0
VERTEX
  8
0
 10
59.469477
 20
142.557558
 42
0.082186
  0
VERTEX
  8
0
 10
59.582401
 20
143.171517
 42
0.052083
  0
VERTEX
  8
0
 10
59.519630
 20
143.898069
 42
-0.109058
  0
VERTEX
  8
0
 10
59.543817
 20
144.793549
 42
-0.051556
  0
VERTEX
  8
0
 10
59.939169
 20
145.885827
 42
-0.046924
  0
VERTEX
  8
0
 10
60.618329
 20
147.008416
 42
-0.044716
  0
VERTEX
  8
0
 10
61.504813
 20
148.004522
 42
0.036251
  0
VERTEX
  8
0
 10
62.368753
 20
148.942868
 42
0.044720
  0
VERTEX
  8
0
 10
63.022458
 20
149.935672
 42
0.050948
  0
VERTEX
  8
0
 10
63.394891
 20
150.838890
 42
0.165409
  0
VERTEX
  8
0
 10
63.370255
 20
151.477514
 42
-0.123411
  0
VERTEX
  8
0
 10
63.297674
 20
152.075291
 42
-0.059656
  0
VERTEX
  8
0
 10
63.485048
 20
152.828162
 42
-0.053811
  0
VERTEX
  8
0
 10
63.882803
 20
153.610010
 42
-0.051863
  0
VERTEX
  8
0
 10
64.442490
 20
154.299633
 42
0.028097
  0
VERTEX
  8
0
 10
65.038584
 20
154.966768
 42
0.029958
  0
VERTEX
  8
0
 10
65.542481
 20
155.682928
 42
0.031382
  0
VERTEX
  8
0
 10
65.896783
 20
156.346372
 42
0.107349
  0
VERTEX
  8
0
 10
66.000000
 20
156.821583
 42
-0.135083
  0
VERTEX
  8
0
 10
66.113681
 20
157.234687
 42
-0.062080
  0
VERTEX
  8
0
 10
66.459243
 20
157.678946
 42
-0.054904
  0
VERTEX
  8
0
 10
66.965380
 20
158.084915
 42
-0.050019
  0
VERTEX
  8
0
 10
67.563382
 20
158.385948
 42
0.060249
  0
VERTEX
  8
0
 10
68.120925
 20
158.681018
 42
0.091105
  0
VERTEX
  8
0
 10
68.506859
 20
159.069603
 42
0.120322
  0
VERTEX
  8
0
 10
68.664194
 20
159.486619
 42
0.170334
  0
VERTEX
  8
0
 10
68.579830
 20
159.870833
 42
-0.263204
  0
VERTEX
  8
0
 10
68.557839
 20
160.436735
 42
-0.021222
  0
VERTEX
  8
0
 10
69.324048
 20
161.780140
 42
-0.024256
  0
VERTEX
  8
0
 10
70.446341
 20
163.388390
 42
-0.016005
  0
VERTEX
  8
0
 10
71.881376
 20
165.127896
 42
0.006967
  0
VERTEX
  8
0
 10
73.362816
 20
166.858945
 42
0.009883
  0
VERTEX
  8
0
 10
74.627927
 20
168.442227
 42
0.006369
  0
VERTEX
  8
0
 10
75.638288
 20
169.794569
 42
0.126543
  0
VERTEX
  8
0
 10
75.827088
 20
170.271176
 42
-0.082191
  0
VERTEX
  8
0
 10
76.144570
 20
171.337275
 42
-0.026973
  0
VERTEX
  8
0
 10
76.942995
 20
172.773485
 42
-0.039971
  0
VERTEX
  8
0
 10
77.692278
 20
173.777309
 42
-0.678090
  0
VERTEX
  8
0
 10
77.969591
 20
173.678571
 42
0.363666
  0
VERTEX
  8
0
 10
78.121719
 20
173.510145
 42
0.145131
  0
VERTEX
  8
0
 10
78.452675
 20
173.560045
 42
0.061290
  0
VERTEX
  8
0
 10
78.965273
 20
173.881648
 42
0.025668
  0
VERTEX
  8
0
 10
79.571429
 20
174.428571
 42
-0.046978
  0
VERTEX
  8
0
 10
80.296511
 20
175.028854
 42
-0.037787
  0
VERTEX
  8
0
 10
81.174330
 20
175.533895
 42
-0.039101
  0
VERTEX
  8
0
 10
82.064863
 20
175.877646
 42
-0.074976
  0
VERTEX
  8
0
 10
82.821429
 20
175.984687
 42
-0.016311
  0
VERTEX
  8
0
 10
83.660242
 20
175.949653
 42
-0.286875
  0
VERTEX
  8
0
 10
83.870077
 20
175.795658
 42
-0.338639
  0
VERTEX
  8
0
 10
83.805305
 20
175.565290
 42
-0.019679
  0
VERTEX
  8
0
 10
83.164590
 20
175.122884
 42
0.045013
  0
VERTEX
  8
0
 10
82.657291
 20
174.733275
 42
0.046930
  0
VERTEX
  8
0
 10
82.235666
 20
174.264142
 42
0.051645
  0
VERTEX
  8
0
 10
81.954182
 20
173.789322
 42
0.122187
  0
VERTEX
  8
0
 10
81.877553
 20
173.388197
 42
-0.128358
  0
VERTEX
  8
0
 10
81.780023
 20
172.909307
 42
-0.022629
  0
VERTEX
  8
0
 10
81.335096
 20
172.097736
 42
-0.023210
  0
VERTEX
  8
0
 10
80.710949
 20
171.171863
 42
-0.019039
  0
VERTEX
  8
0
 10
79.962963
 20
170.242394
 42
0.019911
  0
VERTEX
  8
0
 10
79.211512
 20
169.305276
 42
0.023184
  0
VERTEX
  8
0
 10
78.576620
 20
168.356444
 42
0.023025
  0
VERTEX
  8
0
 10
78.120019
 20
167.515262
 42
0.113297
  0
VERTEX
  8
0
 10
78.000000
 20
166.992394
 42
-0.183716
  0
VERTEX
  8
0
 10
77.855942
 20
166.613561
 42
-0.090542
  0
VERTEX
  8
0
 10
77.443928
 20
166.291516
 42
-0.070420
  0
VERTEX
  8
0
 10
76.831350
 20
166.073277
 42
-0.050452
  0
VERTEX
  8
0
 10
76.106989
 20
166.000000
 42
0.075594
  0
VERTEX
  8
0
 10
75.338480
 20
165.883142
 42
0.064670
  0
VERTEX
  8
0
 10
74.593821
 20
165.540757
 42
0.066832
  0
VERTEX
  8
0
 10
73.984706
 20
165.034343
 42
0.094614
  0
VERTEX
  8
0
 10
73.614052
 20
164.436618
 42
-0.058876
  0
VERTEX
  8
0
 10
73.320422
 20
163.878107
 42
-0.089669
  0
VERTEX
  8
0
 10
72.935863
 20
163.489763
 42
-0.119513
  0
VERTEX
  8
0
 10
72.524910
 20
163.328694
 42
-0.174030
  0
VERTEX
  8
0
 10
72.147775
 20
163.408670
 42
0.330845
  0
VERTEX
  8
0
 10
71.713487
 20
163.371472
 42
0.050726
  0
VERTEX
  8
0
 10
71.088202
 20
162.693468
 42
0.040120
  0
VERTEX
  8
0
 10
70.404026
 20
161.610411
 42
0.023643
  0
VERTEX
  8
0
 10
69.757296
 20
160.222052
 42
-0.001701
  0
VERTEX
  8
0
 10
69.058333
 20
158.531550
 42
-0.001003
  0
VERTEX
  8
0
 10
68.212254
 20
156.516171
 42
-0.001003
  0
VERTEX
  8
0
 10
67.358952
 20
154.506215
 42
-0.001717
  0
VERTEX
  8
0
 10
66.637843
 20
152.832998
 42
0.018604
  0
VERTEX
  8
0
 10
65.713468
 20
150.471817
 42
0.130270
  0
VERTEX
  8
0
 10
65.619311
 20
149.249233
 42
0.125989
  0
VERTEX
  8
0
 10
66.140492
 20
148.121394
 42
0.016959
  0
VERTEX
  8
0
 10
67.871579
 20
146.137475
 42
0.027221
  0
VERTEX
  8
0
 10
69.285104
 20
144.780450
 42
0.060526
  0
VERTEX
  8
0
 10
70.523418
 20
143.951914
 42
0.081288
  0
VERTEX
  8
0
 10
71.665825
 20
143.590310
 42
0.100362
  0
VERTEX
  8
0
 10
72.778741
 20
143.652390
 42
0.110888
  0
VERTEX
  8
0
 10
74.861725
 20
144.727967
 42
0.026028
  0
VERTEX
  8
0
 10
77.751969
 20
147.418189
 42
0.019861
  0
VERTEX
  8
0
 10
80.325460
 20
150.296964
 42
0.386467
  0
VERTEX
  8
0
 10
80.272968
 20
151.393699
 42
-0.286470
  0
VERTEX
  8
0
 10
80.190743
 20
151.749029
 42
-0.058262
  0
VERTEX
  8
0
 10
80.482980
 20
152.358687
 42
-0.045281
  0
VERTEX
  8
0
 10
81.043581
 20
153.090213
 42
-0.027999
  0
VERTEX
  8
0
 10
81.821489
 20
153.845178
 42
0.022855
  0
VERTEX
  8
0
 10
82.607455
 20
154.592428
 42
0.037509
  0
VERTEX
  8
0
 10
83.191515
 20
155.300152
 42
0.044370
  0
VERTEX
  8
0
 10
83.530889
 20
155.884322
 42
0.315651
  0
VERTEX
  8
0
 10
83.477303
 20
156.189363
 42
-0.272743
  0
VERTEX
  8
0
 10
83.223525
 20
157.171496
 42
-0.020908
  0
VERTEX
  8
0
 10
84.121518
 20
159.867921
 42
-0.020662
  0
VERTEX
  8
0
 10
85.239579
 20
162.478790
 42
-0.288873
  0
VERTEX
  8
0
 10
86.066440
 20
163.000000
 42
-0.311788
  0
VERTEX
  8
0
 10
86.472605
 20
162.719453
 42
-0.129303
  0
VERTEX
  8
0
 10
86.545928
 20
162.021513
 42
-0.044668
  0
VERTEX
  8
0
 10
86.216442
 20
160.685432
 42
-0.007852
  0
VERTEX
  8
0
 10
85.336367
 20
158.250000
 42
0.000883
  0
VERTEX
  8
0
 10
85.069812
 20
157.543336
 42
0.001012
  0
VERTEX
  8
0
 10
84.817691
 20
156.867188
 42
0.000910
  0
VERTEX
  8
0
 10
84.606046
 20
156.292856
 42
0.005804
  0
VERTEX
  8
0
 10
84.502572
 20
156.000000
 42
-0.012726
  0
VERTEX
  8
0
 10
84.382640
 20
155.674959
 42
-0.000941
  0
VERTEX
  8
0
 10
84.030247
 20
154.794751
 42
-0.001307
  0
VERTEX
  8
0
 10
83.605166
 20
153.746666
 42
-0.000991
  0
VERTEX
  8
0
 10
83.133605
 20
152.599153
 42
0.029969
  0
VERTEX
  8
0
 10
82.556754
 20
150.925776
 42
0.110985
  0
VERTEX
  8
0
 10
82.500205
 20
149.817473
 42
0.114023
  0
VERTEX
  8
0
 10
82.923614
 20
148.808008
 42
0.032505
  0
VERTEX
  8
0
 10
84.011459
 20
147.487803
 42
0.040807
  0
VERTEX
  8
0
 10
84.932130
 20
146.655485
 42
0.040332
  0
VERTEX
  8
0
 10
85.979221
 20
145.980116
 42
0.043345
  0
VERTEX
  8
0
 10
86.992830
 20
145.544871
 42
0.106722
  0
VERTEX
  8
0
 10
87.794060
 20
145.459365
 42
0.063396
  0
VERTEX
  8
0
 10
90.968470
 20
146.212497
 42
0.022549
  0
VERTEX
  8
0
 10
95.262800
 20
148.051725
 42
0.022885
  0
VERTEX
  8
0
 10
99.455797
 20
150.317975
 42
0.050041
  0
VERTEX
  8
0
 10
102.378734
 20
152.500000
 42
-0.012136
  0
VERTEX
  8
0
 10
103.923811
 20
153.846947
 42
-0.049249
  0
VERTEX
  8
0
 10
104.956721
 20
154.545000
 42
-0.072837
  0
VERTEX
  8
0
 10
105.888556
 20
154.885645
 42
-0.051309
  0
VERTEX
  8
0
 10
107.000000
 20
155.000000
 42
0.148195
  0
VERTEX
  8
0
 10
107.381354
 20
155.115568
 42
0.098894
  0
VERTEX
  8
0
 10
107.706250
 20
155.440625
 42
0.082425
  0
VERTEX
  8
0
 10
107.925306
 20
155.926543
 42
0.064853
  0
VERTEX
  8
0
 10
108.000000
 20
156.500000
 42
-0.050320
  0
VERTEX
  8
0
 10
108.057912
 20
157.073980
 42
-0.070293
  0
VERTEX
  8
0
 10
108.230415
 20
157.559375
 42
-0.090423
  0
VERTEX
  8
0
 10
108.484956
 20
157.885877
 42
-0.184104
  0
VERTEX
  8
0
 10
108.784392
 20
158.000000
 42
0.195036
  0
VERTEX
  8
0
 10
109.187056
 20
158.163279
 42
0.023446
  0
VERTEX
  8
0
 10
109.856205
 20
158.876625
 42
0.025107
  0
VERTEX
  8
0
 10
110.599222
 20
159.841237
 42
0.018148
  0
VERTEX
  8
0
 10
111.331628
 20
160.984255
 42
-0.022952
  0
VERTEX
  8
0
 10
112.068553
 20
162.110371
 42
-0.033468
  0
VERTEX
  8
0
 10
112.825322
 20
163.023073
 42
-0.035418
  0
VERTEX
  8
0
 10
113.506621
 20
163.646176
 42
-0.239412
  0
VERTEX
  8
0
 10
113.941065
 20
163.734255
 42
0.212949
  0
VERTEX
  8
0
 10
114.416872
 20
163.806011
 42
0.024332
  0
VERTEX
  8
0
 10
115.322909
 20
164.450062
 42
0.025973
  0
VERTEX
  8
0
 10
116.372450
 20
165.367903
 42
0.018323
  0
VERTEX
  8
0
 10
117.456380
 20
166.500000
 42
0.000000
  0
VERTEX
  8
0
 10
120.125100
 20
169.500000
 42
0.000000
  0
VERTEX
  8
0
 10
119.437141
 20
165.500000
 42
0.004565
  0
VERTEX
  8
0
 10
119.167255
 20
163.840234
 42
0.004444
  0
VERTEX
  8
0
 10
118.925162
 20
162.160938
 42
0.004387
  0
VERTEX
  8
0
 10
118.738505
 20
160.681632
 42
0.016501
  0
VERTEX
  8
0
 10
118.660305
 20
159.750000
 42
-0.046025
  0
VERTEX
  8
0
 10
118.564058
 20
159.080243
 42
-0.063929
  0
VERTEX
  8
0
 10
118.349396
 20
158.514062
 42
-0.081549
  0
VERTEX
  8
0
 10
118.056278
 20
158.130731
 42
-0.191087
  0
VERTEX
  8
0
 10
117.726697
 20
158.000000
 42
0.113171
  0
VERTEX
  8
0
 10
117.445046
 20
157.935424
 42
0.184345
  0
VERTEX
  8
0
 10
117.278988
 20
157.759104
 42
0.157855
  0
VERTEX
  8
0
 10
117.258297
 20
157.493392
 42
0.079708
  0
VERTEX
  8
0
 10
117.388799
 20
157.179927
 42
-0.059400
  0
VERTEX
  8
0
 10
117.617000
 20
156.688730
 42
-0.011407
  0
VERTEX
  8
0
 10
117.901580
 20
155.746910
 42
-0.012005
  0
VERTEX
  8
0
 10
118.183729
 20
154.626115
 42
-0.010806
  0
VERTEX
  8
0
 10
118.422715
 20
153.453162
 42
0.054487
  0
VERTEX
  8
0
 10
118.790703
 20
152.212096
 42
0.036140
  0
VERTEX
  8
0
 10
119.463279
 20
150.885954
 42
0.036261
  0
VERTEX
  8
0
 10
120.315015
 20
149.677893
 42
0.057126
  0
VERTEX
  8
0
 10
121.224900
 20
148.795471
 42
-0.018268
  0
VERTEX
  8
0
 10
122.038532
 20
148.120547
 42
-0.044476
  0
VERTEX
  8
0
 10
122.570985
 20
147.552296
 42
-0.112807
  0
VERTEX
  8
0
 10
122.742352
 20
147.187653
 42
-0.470906
  0
VERTEX
  8
0
 10
122.612495
 20
147.022236
 42
0.605402
  0
VERTEX
  8
0
 10
122.513093
 20
146.820074
 42
0.032771
  0
VERTEX
  8
0
 10
123.096110
 20
146.124085
 42
0.023036
  0
VERTEX
  8
0
 10
124.115749
 20
145.151243
 42
0.011088
  0
VERTEX
  8
0
 10
125.505125
 20
143.995927
 42
0.018540
  0
VERTEX
  8
0
 10
127.307341
 20
142.669650
 42
0.053533
  0
VERTEX
  8
0
 10
128.673143
 20
141.940469
 42
0.088299
  0
VERTEX
  8
0
 10
129.712135
 20
141.721966
 42
0.182968
  0
VERTEX
  8
0
 10
130.484639
 20
141.987251
 42
-0.056980
  0
VERTEX
  8
0
 10
130.992255
 20
142.319019
 42
-0.071460
  0
VERTEX
  8
0
 10
131.524986
 20
142.496966
 42
-0.086268
  0
VERTEX
  8
0
 10
131.999915
 20
142.500570
 42
-0.156478
  0
VERTEX
  8
0
 10
132.342009
 20
142.324657
 42
0.131282
  0
VERTEX
  8
0
 10
132.591462
 20
142.180393
 42
0.259457
  0
VERTEX
  8
0
 10
132.806715
 20
142.234088
 42
0.154481
  0
VERTEX
  8
0
 10
132.954229
 20
142.496526
 42
0.051431
  0
VERTEX
  8
0
 10
133.000000
 20
142.940322
 42
-0.125799
  0
VERTEX
  8
0
 10
133.112833
 20
143.381692
 42
-0.151009
  0
VERTEX
  8
0
 10
133.419148
 20
143.678999
 42
-0.129086
  0
VERTEX
  8
0
 10
133.881803
 20
143.779533
 42
-0.081084
  0
VERTEX
  8
0
 10
134.426887
 20
143.666430
 42
0.338795
  0
VERTEX
  8
0
 10
136.545569
 20
144.291544
 42
0.105868
  0
VERTEX
  8
0
 10
137.984745
 20
147.517530
 42
0.038988
  0
VERTEX
  8
0
 10
138.875456
 20
154.291759
 42
0.007034
  0
VERTEX
  8
0
 10
139.367889
 20
167.000000
 42
-0.008311
  0
VERTEX
  8
0
 10
139.574660
 20
172.005825
 42
-0.009951
  0
VERTEX
  8
0
 10
139.941359
 20
176.709375
 42
-0.008817
  0
VERTEX
  8
0
 10
140.397528
 20
180.646836
 42
-0.062750
  0
VERTEX
  8
0
 10
140.887157
 20
182.500000
 42
-0.003938
  0
VERTEX
  8
0
 10
142.666804
 20
186.810799
 42
-0.018569
  0
VERTEX
  8
0
 10
143.798292
 20
189.236028
 42
-0.027028
  0
VERTEX
  8
0
 10
144.634966
 20
190.671541
 42
-0.252427
  0
VERTEX
  8
0
 10
145.244111
 20
191.000000
 42
0.189864
  0
VERTEX
  8
0
 10
145.532752
 20
191.113704
 42
0.088604
  0
VERTEX
  8
0
 10
145.777958
 20
191.440625
 42
0.068420
  0
VERTEX
  8
0
 10
145.944278
 20
191.925951
 42
0.048420
  0
VERTEX
  8
0
 10
146.000000
 20
192.500000
 42
-0.060362
  0
VERTEX
  8
0
 10
146.069503
 20
193.073616
 42
-0.079078
  0
VERTEX
  8
0
 10
146.274298
 20
193.559375
 42
-0.097165
  0
VERTEX
  8
0
 10
146.577629
 20
193.884630
 42
-0.157929
  0
VERTEX
  8
0
 10
146.933779
 20
194.000000
 42
-0.247319
  0
VERTEX
  8
0
 10
147.259947
 20
193.828153
 42
-0.091766
  0
VERTEX
  8
0
 10
147.477168
 20
193.339063
 42
-0.063647
  0
VERTEX
  8
0
 10
147.555866
 20
192.611995
 42
-0.038663
  0
VERTEX
  8
0
 10
147.472347
 20
191.750000
 42
0.012171
  0
VERTEX
  8
0
 10
146.905532
 20
187.987798
 42
0.019797
  0
VERTEX
  8
0
 10
146.629344
 20
184.769466
 42
0.015657
  0
VERTEX
  8
0
 10
146.591820
 20
182.218388
 42
0.255507
  0
VERTEX
  8
0
 10
147.000311
 20
181.499808
 42
-0.178398
  0
VERTEX
  8
0
 10
147.264458
 20
181.162352
 42
-0.040023
  0
VERTEX
  8
0
 10
147.434477
 20
180.439652
 42
-0.036705
  0
VERTEX
  8
0
 10
147.505755
 20
179.523845
 42
-0.028415
  0
VERTEX
  8
0
 10
147.453213
 20
178.524321
 42
0.025869
  0
VERTEX
  8
0
 10
147.397413
 20
177.556774
 42
0.042768
  0
VERTEX
  8
0
 10
147.462448
 20
176.741519
 42
0.054562
  0
VERTEX
  8
0
 10
147.623423
 20
176.169017
 42
0.305964
  0
VERTEX
  8
0
 10
147.873770
 20
176.000000
 42
-0.247975
  0
VERTEX
  8
0
 10
148.141596
 20
175.858469
 42
-0.065814
  0
VERTEX
  8
0
 10
148.366491
 20
175.412500
 42
-0.050832
  0
VERTEX
  8
0
 10
148.520608
 20
174.766105
 42
-0.033132
  0
VERTEX
  8
0
 10
148.571429
 20
174.000000
 42
-0.043463
  0
VERTEX
  8
0
 10
148.504749
 20
173.234363
 42
-0.063209
  0
VERTEX
  8
0
 10
148.304657
 20
172.587500
 42
-0.082884
  0
VERTEX
  8
0
 10
148.010424
 20
172.149601
 42
-0.206298
  0
VERTEX
  8
0
 10
147.663270
 20
172.000000
 42
0.268983
  0
VERTEX
  8
0
 10
147.432558
 20
171.866205
 42
0.186755
  0
VERTEX
  8
0
 10
147.386270
 20
171.560940
 42
0.084197
  0
VERTEX
  8
0
 10
147.582267
 20
171.079709
 42
0.034503
  0
VERTEX
  8
0
 10
147.995580
 20
170.505326
 42
-0.073999
  0
VERTEX
  8
0
 10
148.431841
 20
169.785710
 42
-0.048933
  0
VERTEX
  8
0
 10
148.717549
 20
168.860390
 42
-0.048383
  0
VERTEX
  8
0
 10
148.820612
 20
167.882467
 42
-0.066118
  0
VERTEX
  8
0
 10
148.711414
 20
167.004446
 42
0.091470
  0
VERTEX
  8
0
 10
148.637612
 20
166.000037
 42
0.087006
  0
VERTEX
  8
0
 10
148.923362
 20
165.016173
 42
0.071900
  0
VERTEX
  8
0
 10
149.589620
 20
164.041860
 42
0.040257
  0
VERTEX
  8
0
 10
150.644937
 20
163.064652
 42
-0.020125
  0
VERTEX
  8
0
 10
151.581896
 20
162.264571
 42
-0.026610
  0
VERTEX
  8
0
 10
152.363465
 20
161.459493
 42
-0.025974
  0
VERTEX
  8
0
 10
152.924510
 20
160.744655
 42
-0.173360
  0
VERTEX
  8
0
 10
153.043364
 20
160.315532
 42
0.127719
  0
VERTEX
  8
0
 10
153.123315
 20
159.878527
 42
0.023953
  0
VERTEX
  8
0
 10
153.504211
 20
159.152063
 42
0.024234
  0
VERTEX
  8
0
 10
154.044871
 20
158.325515
 42
0.020097
  0
VERTEX
  8
0
 10
154.696085
 20
157.500000
 42
-0.012342
  0
VERTEX
  8
0
 10
155.336225
 20
156.713903
 42
-0.019677
  0
VERTEX
  8
0
 10
155.839316
 20
156.008285
 42
-0.014500
  0
VERTEX
  8
0
 10
156.199893
 20
155.421536
 42
-0.314298
  0
VERTEX
  8
0
 10
156.183215
 20
155.230332
 42
0.369282
  0
VERTEX
  8
0
 10
156.191351
 20
154.519505
 42
0.064979
  0
VERTEX
  8
0
 10
157.276233
 20
153.563991
 42
0.058927
  0
VERTEX
  8
0
 10
158.643215
 20
152.861702
 42
0.263434
  0
VERTEX
  8
0
 10
159.500000
 20
152.998470
 42
-0.188650
  0
VERTEX
  8
0
 10
160.199109
 20
153.215144
 42
-0.019424
  0
VERTEX
  8
0
 10
161.948281
 20
153.019794
 42
-0.022054
  0
VERTEX
  8
0
 10
164.085907
 20
152.599448
 42
-0.015869
  0
VERTEX
  8
0
 10
166.430317
 20
151.950609
 42
0.010901
  0
VERTEX
  8
0
 10
168.761850
 20
151.280329
 42
0.015572
  0
VERTEX
  8
0
 10
170.859386
 20
150.795853
 42
0.011432
  0
VERTEX
  8
0
 10
172.597217
 20
150.492194
 42
0.177762
  0
VERTEX
  8
0
 10
173.180317
 20
150.611442
 42
-0.116305
  0
VERTEX
  8
0
 10
173.492233
 20
150.715502
 42
-0.185676
  0
VERTEX
  8
0
 10
173.759218
 20
150.639672
 42
-0.155402
  0
VERTEX
  8
0
 10
173.938841
 20
150.387295
 42
-0.077709
  0
VERTEX
  8
0
 10
174.000000
 20
149.996159
 42
0.161029
  0
VERTEX
  8
0
 10
174.136697
 20
149.582716
 42
0.109821
  0
VERTEX
  8
0
 10
174.514062
 20
149.256126
 42
0.087031
  0
VERTEX
  8
0
 10
175.080763
 20
149.067694
 42
0.062269
  0
VERTEX
  8
0
 10
175.750000
 20
149.052296
 42
-0.011589
  0
VERTEX
  8
0
 10
176.456656
 20
149.107667
 42
-0.013333
  0
VERTEX
  8
0
 10
177.132812
 20
149.126844
 42
-0.012474
  0
VERTEX
  8
0
 10
177.704009
 20
149.113558
 42
-0.071889
  0
VERTEX
  8
0
 10
178.000000
 20
149.056100
 42
0.060332
  0
VERTEX
  8
0
 10
178.671944
 20
148.909543
 42
0.000986
  0
VERTEX
  8
0
 10
182.512479
 20
148.554223
 42
0.002143
  0
VERTEX
  8
0
 10
187.516302
 20
148.122840
 42
0.000814
  0
VERTEX
  8
0
 10
194.500000
 20
147.562360
 42
0.004282
  0
VERTEX
  8
0
 10
201.406756
 20
147.078847
 42
0.012767
  0
VERTEX
  8
0
 10
206.143798
 20
146.909211
 42
0.014195
  0
VERTEX
  8
0
 10
209.454269
 20
146.969225
 42
0.127448
  0
VERTEX
  8
0
 10
210.829748
 20
147.394778
 42
-0.072492
  0
VERTEX
  8
0
 10
211.277471
 20
147.588758
 42
-0.148443
  0
VERTEX
  8
0
 10
211.656238
 20
147.577155
 42
-0.188709
  0
VERTEX
  8
0
 10
211.906370
 20
147.367161
 42
-0.125497
  0
VERTEX
  8
0
 10
212.000000
 20
147.000000
 42
0.129693
  0
VERTEX
  8
0
 10
212.096371
 20
146.634715
 42
0.189700
  0
VERTEX
  8
0
 10
212.352054
 20
146.427970
 42
0.145394
  0
VERTEX
  8
0
 10
212.739840
 20
146.421667
 42
0.070382
  0
VERTEX
  8
0
 10
213.198483
 20
146.622669
 42
-0.109269
  0
VERTEX
  8
0
 10
214.068114
 20
146.926283
 42
-0.006515
  0
VERTEX
  8
0
 10
216.850670
 20
147.220078
 42
-0.009542
  0
VERTEX
  8
0
 10
220.202351
 20
147.465461
 42
-0.006882
  0
VERTEX
  8
0
 10
223.948483
 20
147.616265
 42
0.003716
  0
VERTEX
  8
0
 10
228.152811
 20
147.758859
 42
0.002587
  0
VERTEX
  8
0
 10
232.897367
 20
147.979682
 42
0.002609
  0
VERTEX
  8
0
 10
237.447881
 20
148.238882
 42
0.005393
  0
VERTEX
  8
0
 10
241.000000
 20
148.498304
 42
-0.003892
  0
VERTEX
  8
0
 10
244.581188
 20
148.770662
 42
-0.001807
  0
VERTEX
  8
0
 10
249.234375
 20
149.071249
 42
-0.001790
  0
VERTEX
  8
0
 10
254.123410
 20
149.351770
 42
-0.002495
  0
VERTEX
  8
0
 10
258.500000
 20
149.565275
 42
0.001284
  0
VERTEX
  8
0
 10
271.204476
 20
150.154197
 42
0.004955
  0
VERTEX
  8
0
 10
279.087900
 20
150.618275
 42
0.006649
  0
VERTEX
  8
0
 10
284.333947
 20
151.049450
 42
0.040915
  0
VERTEX
  8
0
 10
287.000000
 20
151.526573
 42
-0.014759
  0
VERTEX
  8
0
 10
290.412202
 20
152.323200
 42
-0.011795
  0
VERTEX
  8
0
 10
294.130185
 20
152.985369
 42
-0.004164
  0
VERTEX
  8
0
 10
297.676950
 20
153.500872
 42
-0.454633
  0
VERTEX
  8
0
 10
298.000000
 20
153.219020
 42
0.460266
  0
VERTEX
  8
0
 10
298.104861
 20
153.129239
 42
0.074691
  0
VERTEX
  8
0
 10
298.396889
 20
153.220773
 42
0.040792
  0
VERTEX
  8
0
 10
298.832193
 20
153.478396
 42
0.019202
  0
VERTEX
  8
0
 10
299.351113
 20
153.876435
 42
-0.064232
  0
VERTEX
  8
0
 10
300.055762
 20
154.322581
 42
-0.028201
  0
VERTEX
  8
0
 10
301.083447
 20
154.732768
 42
-0.027338
  0
VERTEX
  8
0
 10
302.237847
 20
155.050656
 42
-0.032880
  0
VERTEX
  8
0
 10
303.351113
 20
155.216987
 42
0.026556
  0
VERTEX
  8
0
 10
304.365951
 20
155.355525
 42
0.040564
  0
VERTEX
  8
0
 10
305.221889
 20
155.592279
 42
0.047861
  0
VERTEX
  8
0
 10
305.828172
 20
155.882599
 42
0.262962
  0
VERTEX
  8
0
 10
306.000000
 20
156.186723
 42
-0.241897
  0
VERTEX
  8
0
 10
306.122266
 20
156.424659
 42
-0.127018
  0
VERTEX
  8
0
 10
306.440625
 20
156.547685
 42
-0.078455
  0
VERTEX
  8
0
 10
306.925047
 20
156.528049
 42
-0.042352
  0
VERTEX
  8
0
 10
307.500000
 20
156.361626
 42
0.062927
  0
VERTEX
  8
0
 10
308.074010
 20
156.220718
 42
0.109632
  0
VERTEX
  8
0
 10
308.559375
 20
156.271065
 42
0.151303
  0
VERTEX
  8
0
 10
308.878421
 20
156.499837
 42
0.163532
  0
VERTEX
  8
0
 10
309.000000
 20
156.861626
 42
-0.150571
  0
VERTEX
  8
0
 10
309.112611
 20
157.227096
 42
-0.152500
  0
VERTEX
  8
0
 10
309.410912
 20
157.463590
 42
-0.115991
  0
VERTEX
  8
0
 10
309.863809
 20
157.525898
 42
-0.068149
  0
VERTEX
  8
0
 10
310.398849
 20
157.400442
 42
0.079342
  0
VERTEX
  8
0
 10
310.983758
 20
157.276962
 42
0.077271
  0
VERTEX
  8
0
 10
311.583672
 20
157.339902
 42
0.081875
  0
VERTEX
  8
0
 10
312.106134
 20
157.574570
 42
0.108341
  0
VERTEX
  8
0
 10
312.467948
 20
157.948138
 42
-0.080337
  0
VERTEX
  8
0
 10
312.790949
 20
158.320972
 42
-0.091463
  0
VERTEX
  8
0
 10
313.201833
 20
158.553045
 42
-0.100742
  0
VERTEX
  8
0
 10
313.635257
 20
158.610115
 42
-0.121515
  0
VERTEX
  8
0
 10
314.025080
 20
158.484500
 42
0.175129
  0
VERTEX
  8
0
 10
314.586087
 20
158.366781
 42
0.024657
  0
VERTEX
  8
0
 10
315.765934
 20
158.592725
 42
0.025675
  0
VERTEX
  8
0
 10
317.188224
 20
159.016928
 42
0.019262
  0
VERTEX
  8
0
 10
318.705982
 20
159.622632
 42
-0.009396
  0
VERTEX
  8
0
 10
320.211338
 20
160.258090
 42
-0.012721
  0
VERTEX
  8
0
 10
321.595630
 20
160.771579
 42
-0.009716
  0
VERTEX
  8
0
 10
322.758761
 20
161.144590
 42
-0.122623
  0
VERTEX
  8
0
 10
323.215312
 20
161.166007
 42
0.097281
  0
VERTEX
  8
0
 10
323.637219
 20
161.164657
 42
0.014397
  0
VERTEX
  8
0
 10
324.472738
 20
161.351096
 42
0.015768
  0
VERTEX
  8
0
 10
325.458535
 20
161.634430
 42
0.012980
  0
VERTEX
  8
0
 10
326.491429
 20
161.996741
 42
-0.012575
  0
VERTEX
  8
0
 10
327.668850
 20
162.410819
 42
-0.007324
  0
VERTEX
  8
0
 10
329.100137
 20
162.851022
 42
-0.007319
  0
VERTEX
  8
0
 10
330.547632
 20
163.250209
 42
-0.012274
  0
VERTEX
  8
0
 10
331.776116
 20
163.537726
 42
0.002059
  0
VERTEX
  8
0
 10
334.726325
 20
164.164925
 42
0.019781
  0
VERTEX
  8
0
 10
335.969348
 20
164.486498
 42
0.040787
  0
VERTEX
  8
0
 10
336.819461
 20
164.820378
 42
0.025660
  0
VERTEX
  8
0
 10
337.752884
 20
165.338920
 42
-0.010437
  0
VERTEX
  8
0
 10
338.415631
 20
165.733952
 42
-0.003100
  0
VERTEX
  8
0
 10
339.444698
 20
166.310166
 42
-0.003108
  0
VERTEX
  8
0
 10
340.609249
 20
166.943379
 42
-0.003351
  0
VERTEX
  8
0
 10
341.752884
 20
167.546210
 42
0.108579
  0
VERTEX
  8
0
 10
343.561071
 20
169.052959
 42
0.126338
  0
VERTEX
  8
0
 10
344.447673
 20
171.101654
 42
0.029896
  0
VERTEX
  8
0
 10
344.842100
 20
175.142153
 42
0.001105
  0
VERTEX
  8
0
 10
345.383778
 20
190.470027
 42
0.004988
  0
VERTEX
  8
0
 10
345.536544
 20
197.071216
 42
0.012001
  0
VERTEX
  8
0
 10
345.483554
 20
201.959750
 42
0.010314
  0
VERTEX
  8
0
 10
345.283172
 20
205.568637
 42
0.155390
  0
VERTEX
  8
0
 10
344.817394
 20
206.720027
 42
-0.029059
  0
VERTEX
  8
0
 10
344.392413
 20
207.297274
 42
-0.139494
  0
VERTEX
  8
0
 10
344.273174
 20
207.683669
 42
-0.292214
  0
VERTEX
  8
0
 10
344.412466
 20
207.912669
 42
-0.114427
  0
VERTEX
  8
0
 10
344.789071
 20
208.000000
 42
0.182493
  0
VERTEX
  8
0
 10
345.155974
 20
208.138528
 42
0.117734
  0
VERTEX
  8
0
 10
345.420899
 20
208.514062
 42
0.086609
  0
VERTEX
  8
0
 10
345.539939
 20
209.080321
 42
0.055949
  0
VERTEX
  8
0
 10
345.488027
 20
209.750000
 42
0.007903
  0
VERTEX
  8
0
 10
345.348570
 20
210.420894
 42
0.012803
  0
VERTEX
  8
0
 10
345.206480
 20
210.985938
 42
0.006487
  0
VERTEX
  8
0
 10
345.071352
 20
211.447269
 42
0.329416
  0
VERTEX
  8
0
 10
345.000000
 20
211.500000
 42
-0.352343
  0
VERTEX
  8
0
 10
344.834457
 20
211.633191
 42
-0.003806
  0
VERTEX
  8
0
 10
344.512540
 20
213.157424
 42
-0.007682
  0
VERTEX
  8
0
 10
344.119383
 20
215.256363
 42
-0.002316
  0
VERTEX
  8
0
 10
343.585695
 20
218.458054
 42
0.014455
  0
VERTEX
  8
0
 10
343.287456
 20
220.013433
 42
0.018956
  0
VERTEX
  8
0
 10
342.920834
 20
221.412626
 42
0.016723
  0
VERTEX
  8
0
 10
342.538822
 20
222.536658
 42
0.142477
  0
VERTEX
  8
0
 10
342.222378
 20
222.958054
 42
-0.092731
  0
VERTEX
  8
0
 10
341.934774
 20
223.271634
 42
-0.038984
  0
VERTEX
  8
0
 10
341.669786
 20
223.781428
 42
-0.036842
  0
VERTEX
  8
0
 10
341.464203
 20
224.386008
 42
-0.039562
  0
VERTEX
  8
0
 10
341.355617
 20
225.000000
 42
0.020456
  0
VERTEX
  8
0
 10
340.992581
 20
227.635905
 42
0.013359
  0
VERTEX
  8
0
 10
340.369142
 20
230.642050
 42
0.012904
  0
VERTEX
  8
0
 10
339.549810
 20
233.759441
 42
0.014092
  0
VERTEX
  8
0
 10
338.592011
 20
236.739213
 42
-0.016260
  0
VERTEX
  8
0
 10
338.083464
 20
238.345200
 42
-0.023582
  0
VERTEX
  8
0
 10
337.748799
 20
239.794123
 42
-0.020770
  0
VERTEX
  8
0
 10
337.585171
 20
240.969674
 42
-0.224189
  0
VERTEX
  8
0
 10
337.742924
 20
241.409591
 42
0.171252
  0
VERTEX
  8
0
 10
337.849476
 20
241.632335
 42
0.257010
  0
VERTEX
  8
0
 10
337.768234
 20
241.826567
 42
0.125587
  0
VERTEX
  8
0
 10
337.472223
 20
241.959341
 42
0.042971
  0
VERTEX
  8
0
 10
337.000000
 20
242.000000
 42
-0.048683
  0
VERTEX
  8
0
 10
336.532927
 20
242.045585
 42
-0.145465
  0
VERTEX
  8
0
 10
336.251618
 20
242.193285
 42
-0.260490
  0
VERTEX
  8
0
 10
336.187564
 20
242.408911
 42
-0.142069
  0
VERTEX
  8
0
 10
336.324657
 20
242.657991
 42
0.171918
  0
VERTEX
  8
0
 10
336.492554
 20
243.010146
 42
0.082297
  0
VERTEX
  8
0
 10
336.462194
 20
243.516912
 42
0.066538
  0
VERTEX
  8
0
 10
336.246292
 20
244.095866
 42
0.050768
  0
VERTEX
  8
0
 10
335.868879
 20
244.657991
 42
-0.025337
  0
VERTEX
  8
0
 10
335.483332
 20
245.173599
 42
-0.057379
  0
VERTEX
  8
0
 10
335.260105
 20
245.605785
 42
-0.124398
  0
VERTEX
  8
0
 10
335.228065
 20
245.884118
 42
-0.375798
  0
VERTEX
  8
0
 10
335.360471
 20
246.000000
 42
0.500549
  0
VERTEX
  8
0
 10
335.496039
 20
246.181088
 42
0.021978
  0
VERTEX
  8
0
 10
335.199901
 20
247.047074
 42
0.022428
  0
VERTEX
  8
0
 10
334.688788
 20
248.196853
 42
0.012153
  0
VERTEX
  8
0
 10
333.963768
 20
249.564509
 42
-0.020480
  0
VERTEX
  8
0
 10
333.236464
 20
250.993468
 42
-0.027926
  0
VERTEX
  8
0
 10
332.708488
 20
252.338689
 42
-0.027439
  0
VERTEX
  8
0
 10
332.406834
 20
253.457723
 42
-0.192843
  0
VERTEX
  8
0
 10
332.501884
 20
254.003048
 42
0.193421
  0
VERTEX
  8
0
 10
332.573246
 20
254.415184
 42
0.090987
  0
VERTEX
  8
0
 10
332.363146
 20
254.923204
 42
0.069402
  0
VERTEX
  8
0
 10
331.909065
 20
255.449146
 42
0.048238
  0
VERTEX
  8
0
 10
331.271032
 20
255.908131
 42
-0.018795
  0
VERTEX
  8
0
 10
330.640991
 20
256.307357
 42
-0.053509
  0
VERTEX
  8
0
 10
330.247325
 20
256.645244
 42
-0.189026
  0
VERTEX
  8
0
 10
330.163425
 20
256.854731
 42
-0.404866
  0
VERTEX
  8
0
 10
330.273053
 20
256.969591
 42
0.433576
  0
VERTEX
  8
0
 10
330.446219
 20
257.169735
 42
0.060087
  0
VERTEX
  8
0
 10
330.308938
 20
257.769554
 42
0.038974
  0
VERTEX
  8
0
 10
329.921281
 20
258.630830
 42
0.019802
  0
VERTEX
  8
0
 10
329.309650
 20
259.650166
 42
-0.012269
  0
VERTEX
  8
0
 10
328.629803
 20
260.745452
 42
-0.013268
  0
VERTEX
  8
0
 10
328.022816
 20
261.844922
 42
-0.012852
  0
VERTEX
  8
0
 10
327.552976
 20
262.812136
 42
-0.060446
  0
VERTEX
  8
0
 10
327.367366
 20
263.400166
 42
0.029995
  0
VERTEX
  8
0
 10
327.192685
 20
264.098894
 42
0.002537
  0
VERTEX
  8
0
 10
326.626595
 20
265.865986
 42
0.003360
  0
VERTEX
  8
0
 10
325.925920
 20
267.967561
 42
0.002593
  0
VERTEX
  8
0
 10
325.134630
 20
270.250000
 42
-0.006773
  0
VERTEX
  8
0
 10
324.390676
 20
272.455300
 42
-0.011704
  0
VERTEX
  8
0
 10
323.840150
 20
274.310938
 42
-0.005749
  0
VERTEX
  8
0
 10
323.445218
 20
275.835327
 42
-0.487008
  0
VERTEX
  8
0
 10
323.574185
 20
276.000000
 42
0.515853
  0
VERTEX
  8
0
 10
323.682109
 20
276.151718
 42
0.010397
  0
VERTEX
  8
0
 10
323.299044
 20
277.185075
 42
0.015369
  0
VERTEX
  8
0
 10
322.738684
 20
278.486711
 42
0.008621
  0
VERTEX
  8
0
 10
321.982503
 20
280.034296
 42
-0.018507
  0
VERTEX
  8
0
 10
321.234636
 20
281.644817
 42
-0.025396
  0
VERTEX
  8
0
 10
320.691599
 20
283.146708
 42
-0.023934
  0
VERTEX
  8
0
 10
320.375910
 20
284.391845
 42
-0.190770
  0
VERTEX
  8
0
 10
320.478095
 20
284.964557
 42
0.131635
  0
VERTEX
  8
0
 10
320.814323
 20
286.083879
 42
0.001939
  0
VERTEX
  8
0
 10
320.996025
 20
293.025960
 42
0.005951
  0
VERTEX
  8
0
 10
321.067553
 20
299.910595
 42
0.011018
  0
VERTEX
  8
0
 10
320.935911
 20
305.500000
 42
-0.020516
  0
VERTEX
  8
0
 10
320.931535
 20
306.460353
 42
-0.009214
  0
VERTEX
  8
0
 10
321.000773
 20
307.720313
 42
-0.009104
  0
VERTEX
  8
0
 10
321.122899
 20
309.050836
 42
-0.012243
  0
VERTEX
  8
0
 10
321.284827
 20
310.250000
 42
0.022078
  0
VERTEX
  8
0
 10
321.406140
 20
311.304317
 42
0.037445
  0
VERTEX
  8
0
 10
321.402195
 20
312.192187
 42
0.045529
  0
VERTEX
  8
0
 10
321.293245
 20
312.825766
 42
0.339596
  0
VERTEX
  8
0
 10
321.066299
 20
313.000000
 42
-0.388457
  0
VERTEX
  8
0
 10
320.802896
 20
313.241009
 42
-0.005127
  0
VERTEX
  8
0
 10
320.613940
 20
315.643750
 42
-0.011409
  0
VERTEX
  8
0
 10
320.481914
 20
318.549104
 42
-0.006862
  0
VERTEX
  8
0
 10
320.451300
 20
322.000000
 42
-0.005233
  0
VERTEX
  8
0
 10
320.504174
 20
325.451252
 42
-0.008700
  0
VERTEX
  8
0
 10
320.629758
 20
328.357560
 42
-0.003012
  0
VERTEX
  8
0
 10
320.793559
 20
330.813135
 42
-0.390539
  0
VERTEX
  8
0
 10
320.997487
 20
331.004458
 42
0.386495
  0
VERTEX
  8
0
 10
321.203539
 20
331.195069
 42
0.003177
  0
VERTEX
  8
0
 10
321.395260
 20
333.576610
 42
0.008939
  0
VERTEX
  8
0
 10
321.553858
 20
336.400803
 42
0.005383
  0
VERTEX
  8
0
 10
321.645952
 20
339.754458
 42
-0.003219
  0
VERTEX
  8
0
 10
321.733149
 20
343.524432
 42
-0.002505
  0
VERTEX
  8
0
 10
321.874895
 20
347.622676
 42
-0.002532
  0
VERTEX
  8
0
 10
322.045510
 20
351.441529
 42
-0.006138
  0
VERTEX
  8
0
 10
322.220379
 20
354.258906
 42
0.007543
  0
VERTEX
  8
0
 10
322.353003
 20
356.497317
 42
0.011313
  0
VERTEX
  8
0
 10
322.395020
 20
358.454103
 42
0.006392
  0
VERTEX
  8
0
 10
322.372305
 20
360.083435
 42
0.191976
  0
VERTEX
  8
0
 10
322.213212
 20
360.453454
 42
-0.150814
  0
VERTEX
  8
0
 10
322.024851
 20
360.810000
 42
-0.007007
  0
VERTEX
  8
0
 10
321.787223
 20
362.172728
 42
-0.011075
  0
VERTEX
  8
0
 10
321.560756
 20
363.821778
 42
-0.007677
  0
VERTEX
  8
0
 10
321.374790
 20
365.694548
 42
0.004438
  0
VERTEX
  8
0
 10
320.979016
 20
369.961081
 42
0.011208
  0
VERTEX
  8
0
 10
320.594078
 20
373.054844
 42
0.015097
  0
VERTEX
  8
0
 10
320.184847
 20
375.350730
 42
0.036881
  0
VERTEX
  8
0
 10
319.710032
 20
377.000000
 42
-0.022481
  0
VERTEX
  8
0
 10
319.424749
 20
377.893401
 42
-0.003556
  0
VERTEX
  8
0
 10
318.956480
 20
379.675000
 42
-0.003939
  0
VERTEX
  8
0
 10
318.435752
 20
381.784295
 42
-0.003435
  0
VERTEX
  8
0
 10
317.923300
 20
384.000000
 42
0.006858
  0
VERTEX
  8
0
 10
317.394849
 20
386.215683
 42
0.007772
  0
VERTEX
  8
0
 10
316.826062
 20
388.325000
 42
0.007164
  0
VERTEX
  8
0
 10
316.289957
 20
390.100368
 42
0.042021
  0
VERTEX
  8
0
 10
315.918494
 20
391.000000
 42
-0.017768
  0
VERTEX
  8
0
 10
315.309008
 20
392.294489
 42
-0.007483
  0
VERTEX
  8
0
 10
314.578515
 20
394.073912
 42
-0.007490
  0
VERTEX
  8
0
 10
313.900688
 20
395.876909
 42
-0.017482
  0
VERTEX
  8
0
 10
313.461367
 20
397.250000
 42
0.011310
  0
VERTEX
  8
0
 10
313.362177
 20
397.573729
 42
0.008412
  0
VERTEX
  8
0
 10
313.238651
 20
397.926563
 42
0.008512
  0
VERTEX
  8
0
 10
313.110811
 20
398.255574
 42
0.019007
  0
VERTEX
  8
0
 10
313.000000
 20
398.500000
 42
-0.018527
  0
VERTEX
  8
0
 10
312.888910
 20
398.744416
 42
-0.008283
  0
VERTEX
  8
0
 10
312.760165
 20
399.073437
 42
-0.008187
  0
VERTEX
  8
0
 10
312.635338
 20
399.426271
 42
-0.011001
  0
VERTEX
  8
0
 10
312.534606
 20
399.750000
 42
0.026258
  0
VERTEX
  8
0
 10
312.369843
 20
400.227638
 42
0.002130
  0
VERTEX
  8
0
 10
311.866985
 20
401.454688
 42
0.002863
  0
VERTEX
  8
0
 10
311.252144
 20
402.913303
 42
0.002197
  0
VERTEX
  8
0
 10
310.564323
 20
404.500000
 42
-0.001330
  0
VERTEX
  8
0
 10
307.314305
 20
411.961822
 42
-0.008723
  0
VERTEX
  8
0
 10
305.759886
 20
415.736189
 42
-0.017464
  0
VERTEX
  8
0
 10
304.879992
 20
418.237158
 42
-0.028335
  0
VERTEX
  8
0
 10
304.329867
 20
420.421516
 42
0.027604
  0
VERTEX
  8
0
 10
304.125947
 20
421.236238
 42
0.021547
  0
VERTEX
  8
0
 10
303.818610
 20
422.095391
 42
0.022008
  0
VERTEX
  8
0
 10
303.461619
 20
422.872494
 42
0.048484
  0
VERTEX
  8
0
 10
303.108524
 20
423.421516
 42
-0.076443
  0
VERTEX
  8
0
 10
302.802486
 20
423.961221
 42
-0.041241
  0
VERTEX
  8
0
 10
302.590188
 20
424.697258
 42
-0.039880
  0
VERTEX
  8
0
 10
302.494394
 20
425.500770
 42
-0.049871
  0
VERTEX
  8
0
 10
302.539941
 20
426.250000
 42
0.049320
  0
VERTEX
  8
0
 10
302.581408
 20
426.919947
 42
0.077157
  0
VERTEX
  8
0
 10
302.472116
 20
427.485937
 42
0.107343
  0
VERTEX
  8
0
 10
302.236482
 20
427.862931
 42
0.202269
  0
VERTEX
  8
0
 10
301.911516
 20
428.000000
 42
-0.205712
  0
VERTEX
  8
0
 10
301.563094
 20
428.149683
 42
-0.083100
  0
VERTEX
  8
0
 10
301.267758
 20
428.587500
 42
-0.063391
  0
VERTEX
  8
0
 10
301.066935
 20
429.234371
 42
-0.043629
  0
VERTEX
  8
0
 10
301.000000
 20
430.000000
 42
0.035683
  0
VERTEX
  8
0
 10
300.945264
 20
430.765990
 42
0.054080
  0
VERTEX
  8
0
 10
300.779688
 20
431.412484
 42
0.070722
  0
VERTEX
  8
0
 10
300.537518
 20
431.855784
 42
0.236696
  0
VERTEX
  8
0
 10
300.250000
 20
431.999944
 42
-0.352315
  0
VERTEX
  8
0
 10
299.956447
 20
432.236068
 42
-0.019060
  0
VERTEX
  8
0
 10
299.731089
 20
433.490061
 42
-0.022847
  0
VERTEX
  8
0
 10
299.576653
 20
435.127943
 42
-0.013890
  0
VERTEX
  8
0
 10
299.536687
 20
437.072762
 42
0.013253
  0
VERTEX
  8
0
 10
299.498602
 20
439.048526
 42
0.019258
  0
VERTEX
  8
0
 10
299.351826
 20
440.785742
 42
0.015211
  0
VERTEX
  8
0
 10
299.136665
 20
442.179007
 42
0.211466
  0
VERTEX
  8
0
 10
298.855857
 20
442.589085
 42
-0.191026
  0
VERTEX
  8
0
 10
298.608093
 20
442.922054
 42
-0.042828
  0
VERTEX
  8
0
 10
298.481413
 20
443.631868
 42
-0.038562
  0
VERTEX
  8
0
 10
298.468871
 20
444.532813
 42
-0.029063
  0
VERTEX
  8
0
 10
298.588728
 20
445.516267
 42
0.038152
  0
VERTEX
  8
0
 10
298.687202
 20
446.467852
 42
0.063113
  0
VERTEX
  8
0
 10
298.607318
 20
447.270403
 42
0.091283
  0
VERTEX
  8
0
 10
298.374303
 20
447.810464
 42
0.250395
  0
VERTEX
  8
0
 10
298.019557
 20
448.000000
 42
-0.091453
  0
VERTEX
  8
0
 10
297.649548
 20
448.068247
 42
-0.124430
  0
VERTEX
  8
0
 10
297.372932
 20
448.262562
 42
-0.133531
  0
VERTEX
  8
0
 10
297.234172
 20
448.553273
 42
-0.113627
  0
VERTEX
  8
0
 10
297.250000
 20
448.893830
 42
0.208436
  0
VERTEX
  8
0
 10
297.181538
 20
449.385836
 42
0.027935
  0
VERTEX
  8
0
 10
296.572623
 20
450.266209
 42
0.028433
  0
VERTEX
  8
0
 10
295.688184
 20
451.279079
 42
0.020341
  0
VERTEX
  8
0
 10
294.592973
 20
452.310595
 42
0.033069
  0
VERTEX
  8
0
 10
292.905266
 20
453.590053
 42
0.075872
  0
VERTEX
  8
0
 10
291.459878
 20
454.254866
 42
0.072734
  0
VERTEX
  8
0
 10
289.843898
 20
454.473429
 42
0.028468
  0
VERTEX
  8
0
 10
287.592973
 20
454.320812
 42
-0.022374
  0
VERTEX
  8
0
 10
281.210093
 20
453.809872
 42
-0.020805
  0
VERTEX
  8
0
 10
274.649582
 20
453.852301
 42
-0.012703
  0
VERTEX
  8
0
 10
268.894349
 20
454.275940
 42
-0.385539
  0
VERTEX
  8
0
 10
268.000000
 20
455.263404
 42
0.155288
  0
VERTEX
  8
0
 10
267.913830
 20
455.534166
 42
0.191438
  0
VERTEX
  8
0
 10
267.693332
 20
455.677455
 42
0.128549
  0
VERTEX
  8
0
 10
267.356014
 20
455.657961
 42
0.060110
  0
VERTEX
  8
0
 10
266.956024
 20
455.472821
 42
-0.142641
  0
VERTEX
  8
0
 10
266.400858
 20
455.319052
 42
-0.050078
  0
VERTEX
  8
0
 10
265.570696
 20
455.413462
 42
-0.044763
  0
VERTEX
  8
0
 10
264.627247
 20
455.708179
 42
-0.039183
  0
VERTEX
  8
0
 10
263.706024
 20
456.176791
 42
0.076627
  0
VERTEX
  8
0
 10
262.417771
 20
456.715306
 42
0.024316
  0
VERTEX
  8
0
 10
260.369298
 20
457.118550
 42
0.022555
  0
VERTEX
  8
0
 10
257.907524
 20
457.367147
 42
0.018206
  0
VERTEX
  8
0
 10
255.250000
 20
457.418000
 42
-0.013945
  0
VERTEX
  8
0
 10
252.764909
 20
457.444379
 42
-0.026279
  0
VERTEX
  8
0
 10
250.767819
 20
457.626714
 42
-0.026290
  0
VERTEX
  8
0
 10
249.316158
 20
457.915183
 42
-0.343102
  0
VERTEX
  8
0
 10
249.000000
 20
458.321680
 42
0.058823
  0
VERTEX
  8
0
 10
248.958983
 20
458.669125
 42
0.176550
  0
VERTEX
  8
0
 10
248.829166
 20
458.865326
 42
0.251634
  0
VERTEX
  8
0
 10
248.639681
 20
458.892753
 42
0.109462
  0
VERTEX
  8
0
 10
248.418439
 20
458.751772
 42
-0.225601
  0
VERTEX
  8
0
 10
248.002519
 20
458.603885
 42
-0.026562
  0
VERTEX
  8
0
 10
247.004947
 20
458.760026
 42
-0.027637
  0
VERTEX
  8
0
 10
245.773225
 20
459.092485
 42
-0.019224
  0
VERTEX
  8
0
 10
244.423212
 20
459.596531
 42
0.005145
  0
VERTEX
  8
0
 10
243.078773
 20
460.142092
 42
0.007170
  0
VERTEX
  8
0
 10
241.864034
 20
460.600513
 42
0.004619
  0
VERTEX
  8
0
 10
240.838909
 20
460.960001
 42
0.087893
  0
VERTEX
  8
0
 10
240.504774
 20
461.011425
 42
-0.013875
  0
VERTEX
  8
0
 10
240.293181
 20
461.012508
 42
-0.012566
  0
VERTEX
  8
0
 10
240.074840
 20
461.025185
 42
-0.012698
  0
VERTEX
  8
0
 10
239.879973
 20
461.046415
 42
-0.038772
  0
VERTEX
  8
0
 10
239.750000
 20
461.074310
 42
0.022439
  0
VERTEX
  8
0
 10
239.573041
 20
461.118376
 42
0.000899
  0
VERTEX
  8
0
 10
238.922699
 20
461.248438
 42
0.001580
  0
VERTEX
  8
0
 10
238.151587
 20
461.398683
 42
0.001117
  0
VERTEX
  8
0
 10
237.284719
 20
461.562737
 42
-0.003019
  0
VERTEX
  8
0
 10
234.425700
 20
462.115076
 42
-0.026563
  0
VERTEX
  8
0
 10
233.178015
 20
462.433650
 42
-0.063760
  0
VERTEX
  8
0
 10
232.462951
 20
462.761986
 42
-0.092827
  0
VERTEX
  8
0
 10
231.953281
 20
463.230101
 42
0.138751
  0
VERTEX
  8
0
 10
231.544932
 20
463.542018
 42
0.020403
  0
VERTEX
  8
0
 10
230.552760
 20
463.888265
 42
0.021724
  0
VERTEX
  8
0
 10
229.315590
 20
464.206177
 42
0.017124
  0
VERTEX
  8
0
 10
227.953281
 20
464.445413
 42
-0.005622
  0
VERTEX
  8
0
 10
226.448399
 20
464.674143
 42
-0.004092
  0
VERTEX
  8
0
 10
224.780026
 20
464.960984
 42
-0.004134
  0
VERTEX
  8
0
 10
223.201772
 20
465.259143
 42
-0.009058
  0
VERTEX
  8
0
 10
222.000000
 20
465.519188
 42
0.006261
  0
VERTEX
  8
0
 10
220.890077
 20
465.765867
 42
0.004232
  0
VERTEX
  8
0
 10
219.618804
 20
466.020536
 42
0.004263
  0
VERTEX
  8
0
 10
218.385607
 20
466.245856
 42
0.008476
  0
VERTEX
  8
0
 10
217.404441
 20
466.399409
 42
-0.020382
  0
VERTEX
  8
0
 10
216.525467
 20
466.558493
 42
-0.017583
  0
VERTEX
  8
0
 10
215.617361
 20
466.795185
 42
-0.017942
  0
VERTEX
  8
0
 10
214.808691
 20
467.068576
 42
-0.047958
  0
VERTEX
  8
0
 10
214.263466
 20
467.337169
 42
0.099683
  0
VERTEX
  8
0
 10
212.806654
 20
467.876992
 42
0.010963
  0
VERTEX
  8
0
 10
209.258210
 20
468.356178
 42
0.007121
  0
VERTEX
  8
0
 10
205.583025
 20
468.717738
 42
0.220792
  0
SEQEND
  0
POLYLINE
  8
0
 66
1
 70
1
  0
VERTEX
  8
0
 10
146.345077
 20
440.456872
 42
-0.035865
  0
VERTEX
  8
0
 10
146.083816
 20
439.899181
 42
-0.069269
  0
VERTEX
  8
0
 10
145.786868
 20
439.507038
 42
-0.118528
  0
VERTEX
  8
0
 10
145.505460
 20
439.335123
 42
-0.281567
  0
VERTEX
  8
0
 10
145.276326
 20
439.390341
 42
-0.156651
  0
VERTEX
  8
0
 10
145.142323
 20
439.651151
 42
-0.070517
  0
VERTEX
  8
0
 10
145.133355
 20
440.040231
 42
-0.059701
  0
VERTEX
  8
0
 10
145.242038
 20
440.490157
 42
-0.049364
  0
VERTEX
  8
0
 10
145.458881
 20
440.933469
 42
-0.030391
  0
VERTEX
  8
0
 10
146.120758
 20
441.871774
 42
-0.361950
  0
VERTEX
  8
0
 10
146.525317
 20
441.954259
 42
-0.344086
  0
VERTEX
  8
0
 10
146.696703
 20
441.564815
 42
-0.029555
  0
SEQEND
  0
POLYLINE
  8
0
 66
1
 70
1
  0
VERTEX
  8
0
 10
276.500000
 20
430.000000
 42
-0.082592
  0
VERTEX
  8
0
 10
276.656512
 20
429.617900
 42
-0.161196
  0
VERTEX
  8
0
 10
276.625400
 20
429.293750
 42
-0.182303
  0
VERTEX
  8
0
 10
276.413961
 20
429.078288
 42
-0.108972
  0
VERTEX
  8
0
 10
276.059017
 20
429.000000
 42
-0.093332
  0
VERTEX
  8
0
 10
275.654762
 20
429.076123
 42
-0.096420
  0
VERTEX
  8
0
 10
275.311086
 20
429.293750
 42
-0.099167
  0
VERTEX
  8
0
 10
275.081062
 20
429.618444
 42
-0.105053
  0
VERTEX
  8
0
 10
275.000000
 20
430.000000
 42
-0.042167
  0
VERTEX
  8
0
 10
275.032345
 20
430.382849
 42
-0.061769
  0
VERTEX
  8
0
 10
275.129539
 20
430.706250
 42
-0.081139
  0
VERTEX
  8
0
 10
275.272352
 20
430.925540
 42
-0.210953
  0
VERTEX
  8
0
 10
275.440983
 20
431.000000
 42
-0.151918
  0
VERTEX
  8
0
 10
275.651710
 20
430.934461
 42
-0.038439
  0
VERTEX
  8
0
 10
275.933975
 20
430.706250
 42
-0.035638
  0
VERTEX
  8
0
 10
276.231006
 20
430.382774
 42
-0.029505
  0
SEQEND
  0
POLYLINE
  8
0
 66
1
 70
1
  0
VERTEX
  8
0
 10
226.500000
 20
303.000000
 42
-0.064269
  0
VERTEX
  8
0
 10
226.189439
 20
302.617474
 42
-0.051777
  0
VERTEX
  8
0
 10
225.769763
 20
302.293750
 42
-0.053414
  0
VERTEX
  8
0
 10
225.310186
 20
302.073533
 42
-0.085235
  0
VERTEX
  8
0
 10
224.881966
 20
302.000000
 42
-0.117858
  0
VERTEX
  8
0
 10
224.550471
 20
302.079239
 42
-0.186277
  0
VERTEX
  8
0
 10
224.357263
 20
302.293750
 42
-0.154201
  0
VERTEX
  8
0
 10
224.338175
 20
302.617617
 42
-0.076764
  0
VERTEX
  8
0
 10
224.500000
 20
303.000000
 42
-0.064269
  0
VERTEX
  8
0
 10
224.810561
 20
303.382526
 42
-0.051777
  0
VERTEX
  8
0
 10
225.230237
 20
303.706250
 42
-0.053414
  0
VERTEX
  8
0
 10
225.689814
 20
303.926467
 42
-0.085235
  0
VERTEX
  8
0
 10
226.118034
 20
304.000000
 42
-0.117858
  0
VERTEX
  8
0
 10
226.449529
 20
303.920761
 42
-0.186277
  0
VERTEX
  8
0
 10
226.642737
 20
303.706250
 42
-0.154201
  0
VERTEX
  8
0
 10
226.661825
 20
303.382383
 42
-0.076764
  0
SEQEND
  0
ENDSEC
  0
EOF
