  0
SECTION
  2
HEADER
  9
$ACADVER
  1
AC1006
  9
$EXTMIN
 10
0.000000
 20
0.000000
 30
0.000000
  9
$EXTMAX
 10
329.000000
 20
378.000000
 30
0.000000
  0
ENDSEC
  0
SECTION
  2
ENTITIES
  0
POLYLINE
  8
0
 66
1
 70
1
  0
VERTEX
  8
0
 10
153.287463
 20
368.450859
 42
0.008805
  0
VERTEX
  8
0
 10
146.311516
 20
363.250924
 42
0.017495
  0
VERTEX
  8
0
 10
141.008955
 20
358.846353
 42
0.019132
  0
VERTEX
  8
0
 10
136.340605
 20
354.352112
 42
0.013120
  0
VERTEX
  8
0
 10
131.382418
 20
348.920918
 42
-0.010461
  0
VERTEX
  8
0
 10
127.766154
 20
344.917125
 42
-0.011433
  0
VERTEX
  8
0
 10
124.088658
 20
341.187579
 42
-0.010938
  0
VERTEX
  8
0
 10
120.806941
 20
338.144494
 42
-0.054371
  0
VERTEX
  8
0
 10
118.759095
 20
336.691226
 42
-0.000088
  0
VERTEX
  8
0
 10
117.036220
 20
335.731211
 42
-0.000063
  0
VERTEX
  8
0
 10
115.106645
 20
334.656782
 42
-0.000063
  0
VERTEX
  8
0
 10
113.266434
 20
333.632723
 42
-0.000136
  0
VERTEX
  8
0
 10
111.845093
 20
332.842501
 42
0.011150
  0
VERTEX
  8
0
 10
110.579792
 20
332.102088
 42
0.008819
  0
VERTEX
  8
0
 10
109.244438
 20
331.247337
 42
0.008934
  0
VERTEX
  8
0
 10
108.032882
 20
330.409749
 42
0.021856
  0
VERTEX
  8
0
 10
107.180954
 20
329.739705
 42
-0.064208
  0
VERTEX
  8
0
 10
103.614025
 20
327.392961
 42
-0.005175
  0
VERTEX
  8
0
 10
93.443326
 20
322.563351
 42
-0.005546
  0
VERTEX
  8
0
 10
83.219620
 20
317.974544
 42
-0.056685
  0
VERTEX
  8
0
 10
78.788155
 20
316.615628
 42
0.024780
  0
VERTEX
  8
0
 10
76.996004
 20
316.188727
 42
0.010204
  0
VERTEX
  8
0
 10
74.613269
 20
315.441713
 42
0.010067
  0
VERTEX
  8
0
 10
72.084642
 20
314.534860
 42
0.012742
  0
VERTEX
  8
0
 10
69.788155
 20
313.590980
 42
-0.011079
  0
VERTEX
  8
0
 10
67.507062
 20
312.644549
 42
-0.009022
  0
VERTEX
  8
0
 10
65.025270
 20
311.729937
 42
-0.009138
  0
VERTEX
  8
0
 10
62.708485
 20
310.970486
 42
-0.023424
  0
VERTEX
  8
0
 10
61.000000
 20
310.531231
 42
0.021880
  0
VERTEX
  8
0
 10
59.278468
 20
310.094281
 42
0.008266
  0
VERTEX
  8
0
 10
56.912500
 20
309.339395
 42
0.008169
  0
VERTEX
  8
0
 10
54.362253
 20
308.432337
 42
0.009866
  0
VERTEX
  8
0
 10
52.000000
 20
307.494866
 42
-0.009245
  0
VERTEX
  8
0
 10
47.400985
 20
305.663105
 42
-0.008204
  0
VERTEX
  8
0
 10
42.551433
 20
303.925024
 42
-0.007024
  0
VERTEX
  8
0
 10
36.981653
 20
302.118218
 42
-0.003920
  0
VERTEX
  8
0
 10
30.153674
 20
300.067287
 42
0.023588
  0
VERTEX
  8
0
 10
26.542690
 20
298.825892
 42
0.050561
  0
VERTEX
  8
0
 10
23.931512
 20
297.468713
 42
0.044417
  0
VERTEX
  8
0
 10
21.445677
 20
295.502780
 42
0.014634
  0
VERTEX
  8
0
 10
18.153674
 20
292.199021
 42
0.002778
  0
VERTEX
  8
0
 10
14.460870
 20
288.225461
 42
0.013178
  0
VERTEX
  8
0
 10
12.420279
 20
285.884167
 42
0.019507
  0
VERTEX
  8
0
 10
10.902007
 20
283.893252
 42
0.012069
  0
VERTEX
  8
0
 10
9.268821
 20
281.445419
 42
0.003990
  0
VERTEX
  8
0
 10
3.654056
 20
272.414697
 42
0.039402
  0
VERTEX
  8
0
 10
1.631791
 20
268.428753
 42
0.065333
  0
VERTEX
  8
0
 10
0.694894
 20
264.910651
 42
0.020222
  0
VERTEX
  8
0
 10
0.204969
 20
259.441955
 42
0.000000
  0
VERTEX
  8
0
 10
-0.189466
 20
251.383911
 42
0.000000
  0
VERTEX
  8
0
 10
6.907813
 20
236.827751
 42
0.003551
  0
VERTEX
  8
0
 10
9.808194
 20
230.984921
 42
0.004117
  0
VERTEX
  8
0
 10
12.653893
 20
225.466403
 42
0.003680
  0
VERTEX
  8
0
 10
15.134787
 20
220.834110
 42
0.024300
  0
VERTEX
  8
0
 10
16.502546
 20
218.591387
 42
-0.006620
  0
VERTEX
  8
0
 10
17.459367
 20
217.140454
 42
-0.009464
  0
VERTEX
  8
0
 10
18.266373
 20
215.826626
 42
-0.005891
  0
VERTEX
  8
0
 10
18.905730
 20
214.710262
 42
-0.127772
  0
VERTEX
  8
0
 10
19.000000
 20
214.347383
 42
0.156267
  0
VERTEX
  8
0
 10
19.121700
 20
213.967495
 42
0.002535
  0
VERTEX
  8
0
 10
20.449599
 20
212.127465
 42
0.006347
  0
VERTEX
  8
0
 10
22.043501
 20
209.999548
 42
0.004136
  0
VERTEX
  8
0
 10
23.934806
 20
207.581930
 42
-0.009325
  0
VERTEX
  8
0
 10
25.917992
 20
204.991932
 42
-0.009419
  0
VERTEX
  8
0
 10
27.796404
 20
202.338346
 42
-0.009262
  0
VERTEX
  8
0
 10
29.344572
 20
199.968273
 42
-0.037297
  0
VERTEX
  8
0
 10
30.150944
 20
198.440137
 42
0.019650
  0
VERTEX
  8
0
 10
30.799419
 20
197.098662
 42
0.010333
  0
VERTEX
  8
0
 10
31.703997
 20
195.482415
 42
0.010264
  0
VERTEX
  8
0
 10
32.700292
 20
193.862635
 42
0.015542
  0
VERTEX
  8
0
 10
33.638618
 20
192.500000
 42
-0.021778
  0
VERTEX
  8
0
 10
34.753411
 20
190.837088
 42
-0.005550
  0
VERTEX
  8
0
 10
36.410805
 20
188.046406
 42
-0.005646
  0
VERTEX
  8
0
 10
38.233531
 20
184.814655
 42
-0.005694
  0
VERTEX
  8
0
 10
39.977584
 20
181.551596
 42
0.012832
  0
VERTEX
  8
0
 10
43.381241
 20
175.396483
 42
0.006786
  0
VERTEX
  8
0
 10
47.899878
 20
167.932300
 42
0.003442
  0
VERTEX
  8
0
 10
52.468991
 20
160.721887
 42
0.085976
  0
VERTEX
  8
0
 10
54.051470
 20
159.000000
 42
-0.071986
  0
VERTEX
  8
0
 10
54.425518
 20
158.615055
 42
-0.004876
  0
VERTEX
  8
0
 10
55.312803
 20
157.365780
 42
-0.006912
  0
VERTEX
  8
0
 10
56.339364
 20
155.845732
 42
-0.005124
  0
VERTEX
  8
0
 10
57.433235
 20
154.138826
 42
0.048204
  0
VERTEX
  8
0
 10
61.170217
 20
149.283813
 42
0.004125
  0
VERTEX
  8
0
 10
72.002004
 20
137.900656
 42
0.001459
  0
VERTEX
  8
0
 10
83.794810
 20
125.781497
 42
0.195900
  0
VERTEX
  8
0
 10
85.640916
 20
124.980816
 42
-0.141794
  0
VERTEX
  8
0
 10
86.156674
 20
124.818989
 42
-0.009879
  0
VERTEX
  8
0
 10
87.419061
 20
123.945100
 42
-0.013396
  0
VERTEX
  8
0
 10
88.897670
 20
122.816253
 42
-0.009655
  0
VERTEX
  8
0
 10
90.487801
 20
121.481914
 42
0.027669
  0
VERTEX
  8
0
 10
94.478660
 20
118.370884
 42
0.049142
  0
VERTEX
  8
0
 10
98.116587
 20
116.342611
 42
0.060425
  0
VERTEX
  8
0
 10
101.478451
 20
115.340480
 42
0.082656
  0
VERTEX
  8
0
 10
104.631790
 20
115.327674
 42
-0.039199
  0
VERTEX
  8
0
 10
106.683604
 20
115.497368
 42
-0.169005
  0
VERTEX
  8
0
 10
107.824501
 20
115.105705
 42
-0.399429
  0
VERTEX
  8
0
 10
107.930315
 20
114.382254
 42
-0.100948
  0
VERTEX
  8
0
 10
106.977622
 20
113.486170
 42
0.109607
  0
VERTEX
  8
0
 10
106.432569
 20
112.955617
 42
0.008525
  0
VERTEX
  8
0
 10
105.339375
 20
111.225377
 42
0.011316
  0
VERTEX
  8
0
 10
104.105468
 20
109.089202
 42
0.008400
  0
VERTEX
  8
0
 10
102.836291
 20
106.677153
 42
0.018684
  0
VERTEX
  8
0
 10
101.387264
 20
103.519371
 42
0.029949
  0
VERTEX
  8
0
 10
100.418461
 20
100.718086
 42
0.033122
  0
VERTEX
  8
0
 10
99.856705
 20
98.041379
 42
0.031531
  0
VERTEX
  8
0
 10
99.641142
 20
95.269302
 42
0.046940
  0
VERTEX
  8
0
 10
99.945426
 20
91.437578
 42
0.131409
  0
VERTEX
  8
0
 10
101.069639
 20
89.014339
 42
0.130546
  0
VERTEX
  8
0
 10
103.258770
 20
87.466403
 42
0.046053
  0
VERTEX
  8
0
 10
107.000000
 20
86.455875
 42
-0.011934
  0
VERTEX
  8
0
 10
108.525483
 20
86.153569
 42
-0.008528
  0
VERTEX
  8
0
 10
110.217380
 20
85.745701
 42
-0.008617
  0
VERTEX
  8
0
 10
111.817401
 20
85.301423
 42
-0.018201
  0
VERTEX
  8
0
 10
113.037889
 20
84.890890
 42
0.057275
  0
VERTEX
  8
0
 10
114.570265
 20
84.505394
 42
0.009002
  0
VERTEX
  8
0
 10
117.666357
 20
84.150827
 42
0.009901
  0
VERTEX
  8
0
 10
121.348034
 20
83.869669
 42
0.008498
  0
VERTEX
  8
0
 10
125.230532
 20
83.716539
 42
-0.005130
  0
VERTEX
  8
0
 10
130.781983
 20
83.535028
 42
-0.040405
  0
VERTEX
  8
0
 10
133.337778
 20
83.217227
 42
-0.105121
  0
VERTEX
  8
0
 10
134.687398
 20
82.624291
 42
-0.173864
  0
VERTEX
  8
0
 10
135.385461
 20
81.610661
 42
0.094974
  0
VERTEX
  8
0
 10
135.838279
 20
80.668882
 42
0.162676
  0
VERTEX
  8
0
 10
136.545283
 20
80.173998
 42
0.089133
  0
VERTEX
  8
0
 10
137.732311
 20
80.042433
 42
0.016482
  0
VERTEX
  8
0
 10
139.929350
 20
80.263698
 42
0.000000
  0
VERTEX
  8
0
 10
143.973063
 20
80.806074
 42
0.000000
  0
VERTEX
  8
0
 10
146.085631
 20
73.653037
 42
0.027087
  0
VERTEX
  8
0
 10
150.930285
 20
60.015355
 42
0.028677
  0
VERTEX
  8
0
 10
157.142731
 20
47.247143
 42
0.030076
  0
VERTEX
  8
0
 10
164.427006
 20
35.890337
 42
0.038845
  0
VERTEX
  8
0
 10
172.480398
 20
26.484572
 42
0.028061
  0
VERTEX
  8
0
 10
182.283341
 20
17.730368
 42
0.042303
  0
VERTEX
  8
0
 10
191.805301
 20
11.378567
 42
0.040465
  0
VERTEX
  8
0
 10
202.573697
 20
6.532991
 42
0.023063
  0
VERTEX
  8
0
 10
216.234807
 20
2.369385
 42
0.011502
  0
VERTEX
  8
0
 10
222.711763
 20
0.875279
 42
0.032067
  0
VERTEX
  8
0
 10
227.329493
 20
0.226426
 42
0.024357
  0
VERTEX
  8
0
 10
232.641593
 20
0.084119
 42
0.004480
  0
VERTEX
  8
0
 10
242.446151
 20
0.386995
 42
0.009225
  0
VERTEX
  8
0
 10
258.866630
 20
1.345228
 42
0.039335
  0
VERTEX
  8
0
 10
268.564603
 20
2.864226
 42
0.054630
  0
VERTEX
  8
0
 10
276.278562
 20
5.620305
 42
0.030342
  0
VERTEX
  8
0
 10
284.992477
 20
10.528515
 42
0.037184
  0
VERTEX
  8
0
 10
294.848676
 20
17.989674
 42
0.055241
  0
VERTEX
  8
0
 10
302.126462
 20
25.990244
 42
0.059145
  0
VERTEX
  8
0
 10
307.131542
 20
34.946448
 42
0.051529
  0
VERTEX
  8
0
 10
310.189278
 20
45.250000
 42
-0.010354
  0
VERTEX
  8
0
 10
310.730590
 20
47.837515
 42
-0.016600
  0
VERTEX
  8
0
 10
311.310735
 20
50.017187
 42
-0.010614
  0
VERTEX
  8
0
 10
311.874068
 20
51.748617
 42
-0.318954
  0
VERTEX
  8
0
 10
312.228054
 20
52.000000
 42
0.326215
  0
VERTEX
  8
0
 10
312.529321
 20
52.219964
 42
0.029716
  0
VERTEX
  8
0
 10
312.773241
 20
53.175000
 42
0.029507
  0
VERTEX
  8
0
 10
312.944280
 20
54.466719
 42
0.018164
  0
VERTEX
  8
0
 10
313.000000
 20
56.000000
 42
0.020303
  0
VERTEX
  8
0
 10
312.937720
 20
57.533157
 42
0.032770
  0
VERTEX
  8
0
 10
312.746815
 20
58.825000
 42
0.035292
  0
VERTEX
  8
0
 10
312.473280
 20
59.766367
 42
0.314124
  0
VERTEX
  8
0
 10
312.138095
 20
60.000000
 42
-0.335231
  0
VERTEX
  8
0
 10
311.769757
 20
60.278223
 42
-0.013837
  0
VERTEX
  8
0
 10
311.335784
 20
61.982813
 42
-0.019211
  0
VERTEX
  8
0
 10
310.931947
 20
64.162381
 42
-0.011866
  0
VERTEX
  8
0
 10
310.617159
 20
66.750000
 42
0.023767
  0
VERTEX
  8
0
 10
309.656668
 20
73.334445
 42
0.029592
  0
VERTEX
  8
0
 10
308.117626
 20
79.323274
 42
0.031746
  0
VERTEX
  8
0
 10
306.002702
 20
84.709177
 42
0.037321
  0
VERTEX
  8
0
 10
303.316220
 20
89.486652
 42
-0.008947
  0
VERTEX
  8
0
 10
302.046033
 20
91.472826
 42
-0.012091
  0
VERTEX
  8
0
 10
300.974140
 20
93.315341
 42
-0.009167
  0
VERTEX
  8
0
 10
300.151888
 20
94.877982
 42
-0.117042
  0
VERTEX
  8
0
 10
300.000000
 20
95.517955
 42
0.195197
  0
VERTEX
  8
0
 10
299.366839
 20
97.078008
 42
0.005567
  0
VERTEX
  8
0
 10
294.193017
 20
102.284752
 42
0.005642
  0
VERTEX
  8
0
 10
288.909168
 20
107.369040
 42
0.190990
  0
VERTEX
  8
0
 10
287.317607
 20
108.000000
 42
0.487050
  0
VERTEX
  8
0
 10
286.988076
 20
107.579179
 42
0.005376
  0
VERTEX
  8
0
 10
288.028568
 20
103.552879
 42
0.010850
  0
VERTEX
  8
0
 10
289.503081
 20
98.526388
 42
0.005469
  0
VERTEX
  8
0
 10
291.568953
 20
92.250000
 42
-0.004421
  0
VERTEX
  8
0
 10
294.834666
 20
82.397913
 42
-0.027192
  0
VERTEX
  8
0
 10
296.192404
 20
77.228861
 42
-0.037225
  0
VERTEX
  8
0
 10
296.783575
 20
72.638397
 42
-0.012762
  0
VERTEX
  8
0
 10
296.972349
 20
65.931501
 42
-0.031464
  0
VERTEX
  8
0
 10
296.293932
 20
54.692700
 42
-0.058007
  0
VERTEX
  8
0
 10
294.128257
 20
45.807637
 42
-0.063214
  0
VERTEX
  8
0
 10
290.141381
 20
38.172432
 42
-0.045285
  0
VERTEX
  8
0
 10
283.945102
 20
30.785937
 42
-0.038498
  0
VERTEX
  8
0
 10
278.421570
 20
26.082918
 42
-0.050769
  0
VERTEX
  8
0
 10
272.708500
 20
22.759068
 42
-0.046915
  0
VERTEX
  8
0
 10
266.092266
 20
20.480154
 42
-0.026972
  0
VERTEX
  8
0
 10
257.794976
 20
18.935789
 42
-0.010287
  0
VERTEX
  8
0
 10
252.410112
 20
18.343679
 42
-0.029257
  0
VERTEX
  8
0
 10
248.638811
 20
18.228817
 42
-0.030691
  0
VERTEX
  8
0
 10
244.980518
 20
18.556786
 42
-0.012287
  0
VERTEX
  8
0
 10
240.027590
 20
19.434278
 42
-0.067167
  0
VERTEX
  8
0
 10
222.723452
 20
25.439817
 42
-0.074477
  0
VERTEX
  8
0
 10
208.296963
 20
35.670845
 42
-0.068808
  0
VERTEX
  8
0
 10
196.661660
 20
50.422048
 42
-0.046881
  0
VERTEX
  8
0
 10
187.610938
 20
69.809597
 42
-0.011311
  0
VERTEX
  8
0
 10
186.611464
 20
72.821087
 42
-0.011891
  0
VERTEX
  8
0
 10
185.766963
 20
75.825143
 42
-0.011600
  0
VERTEX
  8
0
 10
185.161321
 20
78.446388
 42
-0.051011
  0
VERTEX
  8
0
 10
185.000000
 20
80.023510
 42
0.000000
  0
VERTEX
  8
0
 10
185.000000
 20
82.927826
 42
0.000000
  0
VERTEX
  8
0
 10
195.250000
 20
82.812866
 42
0.008897
  0
VERTEX
  8
0
 10
201.424243
 20
82.853479
 42
0.037129
  0
VERTEX
  8
0
 10
205.122560
 20
83.219299
 42
0.042157
  0
VERTEX
  8
0
 10
208.497814
 20
84.106653
 42
0.013776
  0
VERTEX
  8
0
 10
213.302378
 20
85.964075
 42
0.024699
  0
VERTEX
  8
0
 10
218.773049
 20
88.578673
 42
0.077017
  0
VERTEX
  8
0
 10
222.016506
 20
91.039018
 42
0.120457
  0
VERTEX
  8
0
 10
223.556748
 20
93.677743
 42
0.118303
  0
VERTEX
  8
0
 10
223.719887
 20
96.748116
 42
0.010345
  0
VERTEX
  8
0
 10
223.012693
 20
100.181807
 42
0.002398
  0
VERTEX
  8
0
 10
221.676371
 20
105.925242
 42
0.002292
  0
VERTEX
  8
0
 10
220.290672
 20
111.637568
 42
0.012074
  0
VERTEX
  8
0
 10
219.440278
 20
114.750000
 42
-0.047015
  0
VERTEX
  8
0
 10
219.185914
 20
116.025097
 42
-0.261881
  0
VERTEX
  8
0
 10
219.453396
 20
116.641669
 42
-0.149336
  0
VERTEX
  8
0
 10
220.263070
 20
116.939739
 42
-0.014065
  0
VERTEX
  8
0
 10
222.404809
 20
117.000000
 42
0.085131
  0
VERTEX
  8
0
 10
225.182152
 20
117.476330
 42
0.027344
  0
VERTEX
  8
0
 10
229.057177
 20
119.089059
 42
0.027624
  0
VERTEX
  8
0
 10
232.759364
 20
121.132247
 42
0.076844
  0
VERTEX
  8
0
 10
235.000000
 20
123.069513
 42
-0.064455
  0
VERTEX
  8
0
 10
235.419449
 20
123.450640
 42
-0.001188
  0
VERTEX
  8
0
 10
237.882801
 20
125.159372
 42
-0.002908
  0
VERTEX
  8
0
 10
240.775315
 20
127.130897
 42
-0.001937
  0
VERTEX
  8
0
 10
244.111664
 20
129.357900
 42
0.016281
  0
VERTEX
  8
0
 10
251.537039
 20
134.628307
 42
0.018974
  0
VERTEX
  8
0
 10
258.222056
 20
140.120605
 42
0.020682
  0
VERTEX
  8
0
 10
263.738782
 20
145.438677
 42
0.041426
  0
VERTEX
  8
0
 10
267.541199
 20
150.144949
 42
-0.007476
  0
VERTEX
  8
0
 10
268.838781
 20
151.994740
 42
-0.005957
  0
VERTEX
  8
0
 10
270.291790
 20
153.952077
 42
-0.006026
  0
VERTEX
  8
0
 10
271.681374
 20
155.733160
 42
-0.015065
  0
VERTEX
  8
0
 10
272.750000
 20
156.989782
 42
0.018173
  0
VERTEX
  8
0
 10
273.612676
 20
158.017089
 42
0.021840
  0
VERTEX
  8
0
 10
274.344137
 20
159.044942
 42
0.021179
  0
VERTEX
  8
0
 10
274.877321
 20
159.949809
 42
0.118809
  0
VERTEX
  8
0
 10
275.017277
 20
160.489782
 42
-0.128099
  0
VERTEX
  8
0
 10
275.163327
 20
161.013606
 42
-0.025182
  0
VERTEX
  8
0
 10
275.700788
 20
161.839205
 42
-0.025206
  0
VERTEX
  8
0
 10
276.443713
 20
162.762002
 42
-0.021054
  0
VERTEX
  8
0
 10
277.319865
 20
163.664958
 42
0.042438
  0
VERTEX
  8
0
 10
280.130839
 20
166.821150
 42
0.012581
  0
VERTEX
  8
0
 10
283.878034
 20
172.096463
 42
0.007773
  0
VERTEX
  8
0
 10
287.430149
 20
177.554782
 42
0.141272
  0
VERTEX
  8
0
 10
288.000000
 20
179.531394
 42
-0.055213
  0
VERTEX
  8
0
 10
288.062227
 20
180.093187
 42
-0.074804
  0
VERTEX
  8
0
 10
288.246599
 20
180.568597
 42
-0.094265
  0
VERTEX
  8
0
 10
288.519194
 20
180.887501
 42
-0.170513
  0
VERTEX
  8
0
 10
288.839485
 20
181.000000
 42
0.174352
  0
VERTEX
  8
0
 10
289.239034
 20
181.143693
 42
0.037644
  0
VERTEX
  8
0
 10
289.777046
 20
181.660937
 42
0.035027
  0
VERTEX
  8
0
 10
290.341540
 20
182.388584
 42
0.027276
  0
VERTEX
  8
0
 10
290.852332
 20
183.250000
 42
-0.010206
  0
VERTEX
  8
0
 10
291.861152
 20
185.091787
 42
-0.004393
  0
VERTEX
  8
0
 10
293.277857
 20
187.508033
 42
-0.002121
  0
VERTEX
  8
0
 10
295.619091
 20
191.384458
 42
-0.000295
  0
VERTEX
  8
0
 10
300.508708
 20
199.392588
 42
-0.006114
  0
VERTEX
  8
0
 10
303.881400
 20
204.760385
 42
-0.006877
  0
VERTEX
  8
0
 10
307.257403
 20
209.835789
 42
-0.006717
  0
VERTEX
  8
0
 10
310.252463
 20
214.083382
 42
-0.030619
  0
VERTEX
  8
0
 10
312.173306
 20
216.416397
 42
0.030023
  0
VERTEX
  8
0
 10
312.872390
 20
217.263435
 42
0.030212
  0
VERTEX
  8
0
 10
313.463409
 20
218.186395
 42
0.031687
  0
VERTEX
  8
0
 10
313.876558
 20
219.050920
 42
0.095906
  0
VERTEX
  8
0
 10
314.000000
 20
219.688561
 42
-0.069394
  0
VERTEX
  8
0
 10
314.069902
 20
220.189793
 42
-0.085464
  0
VERTEX
  8
0
 10
314.273955
 20
220.614765
 42
-0.100016
  0
VERTEX
  8
0
 10
314.576972
 20
220.898908
 42
-0.139366
  0
VERTEX
  8
0
 10
314.932612
 20
221.000000
 42
0.171749
  0
VERTEX
  8
0
 10
315.336106
 20
221.142812
 42
0.057530
  0
VERTEX
  8
0
 10
315.780442
 20
221.596027
 42
0.049228
  0
VERTEX
  8
0
 10
316.194027
 20
222.252500
 42
0.039142
  0
VERTEX
  8
0
 10
316.509213
 20
223.029029
 42
-0.054474
  0
VERTEX
  8
0
 10
317.371746
 20
224.980514
 42
-0.005363
  0
VERTEX
  8
0
 10
319.997346
 20
229.403335
 42
-0.007094
  0
VERTEX
  8
0
 10
322.747144
 20
233.783008
 42
-0.024539
  0
VERTEX
  8
0
 10
324.702894
 20
236.500000
 42
0.056655
  0
VERTEX
  8
0
 10
326.170727
 20
238.842352
 42
0.024600
  0
VERTEX
  8
0
 10
327.595187
 20
242.236051
 42
0.024465
  0
VERTEX
  8
0
 10
328.670862
 20
245.722143
 42
0.062675
  0
VERTEX
  8
0
 10
329.000000
 20
248.337583
 42
0.050805
  0
VERTEX
  8
0
 10
328.837304
 20
249.934645
 42
0.019589
  0
VERTEX
  8
0
 10
328.302358
 20
252.099817
 42
0.019157
  0
VERTEX
  8
0
 10
327.534232
 20
254.420042
 42
0.022411
  0
VERTEX
  8
0
 10
326.625049
 20
256.553656
 42
-0.005607
  0
VERTEX
  8
0
 10
325.600714
 20
258.749835
 42
-0.003838
  0
VERTEX
  8
0
 10
324.484911
 20
261.265080
 42
-0.003868
  0
VERTEX
  8
0
 10
323.446973
 20
263.705594
 42
-0.007816
  0
VERTEX
  8
0
 10
322.674512
 20
265.646616
 42
0.043726
  0
VERTEX
  8
0
 10
320.461282
 20
270.222323
 42
0.007639
  0
VERTEX
  8
0
 10
315.423359
 20
278.380879
 42
0.008467
  0
VERTEX
  8
0
 10
310.066883
 20
286.461081
 42
0.029559
  0
VERTEX
  8
0
 10
306.226035
 20
291.395341
 42
0.049961
  0
VERTEX
  8
0
 10
304.732123
 20
292.788246
 42
0.018777
  0
VERTEX
  8
0
 10
302.389483
 20
294.436163
 42
0.018381
  0
VERTEX
  8
0
 10
299.686358
 20
296.051821
 42
0.021275
  0
VERTEX
  8
0
 10
296.998289
 20
297.381694
 42
-0.008076
  0
VERTEX
  8
0
 10
294.391434
 20
298.586827
 42
-0.009150
  0
VERTEX
  8
0
 10
291.932255
 20
299.828220
 42
-0.008479
  0
VERTEX
  8
0
 10
289.883843
 20
300.954563
 42
-0.048968
  0
VERTEX
  8
0
 10
288.877475
 20
301.669307
 42
0.069567
  0
VERTEX
  8
0
 10
287.084206
 20
302.835252
 42
0.010240
  0
VERTEX
  8
0
 10
283.116782
 20
304.593267
 42
0.011801
  0
VERTEX
  8
0
 10
278.462592
 20
306.414701
 42
0.011975
  0
VERTEX
  8
0
 10
273.750157
 20
308.005061
 42
-0.034379
  0
VERTEX
  8
0
 10
270.415710
 20
309.299368
 42
-0.005483
  0
VERTEX
  8
0
 10
264.108728
 20
312.345641
 42
-0.006496
  0
VERTEX
  8
0
 10
257.335187
 20
315.819781
 42
-0.009628
  0
VERTEX
  8
0
 10
251.500000
 20
319.054398
 42
0.013720
  0
VERTEX
  8
0
 10
249.455574
 20
320.165913
 42
0.015831
  0
VERTEX
  8
0
 10
247.447354
 20
321.108596
 42
0.015010
  0
VERTEX
  8
0
 10
245.708399
 20
321.797523
 42
0.083701
  0
VERTEX
  8
0
 10
244.725036
 20
321.976641
 42
-0.113677
  0
VERTEX
  8
0
 10
240.972132
 20
322.893216
 42
-0.010491
  0
VERTEX
  8
0
 10
232.458841
 20
327.400319
 42
-0.014277
  0
VERTEX
  8
0
 10
223.251203
 20
332.875180
 42
-0.017552
  0
VERTEX
  8
0
 10
215.000000
 20
338.521249
 42
-0.008050
  0
VERTEX
  8
0
 10
206.940444
 20
344.664626
 42
-0.012495
  0
VERTEX
  8
0
 10
200.210569
 20
350.246046
 42
-0.014381
  0
VERTEX
  8
0
 10
194.931147
 20
355.126319
 42
-0.037012
  0
VERTEX
  8
0
 10
191.500000
 20
359.023305
 42
0.011245
  0
VERTEX
  8
0
 10
189.715991
 20
361.273208
 42
0.008496
  0
VERTEX
  8
0
 10
187.660658
 20
363.664950
 42
0.008601
  0
VERTEX
  8
0
 10
185.652235
 20
365.846564
 42
0.019643
  0
VERTEX
  8
0
 10
184.046922
 20
367.403892
 42
-0.005948
  0
VERTEX
  8
0
 10
182.462756
 20
368.858652
 42
-0.003178
  0
VERTEX
  8
0
 10
180.537963
 20
370.692081
 42
-0.003163
  0
VERTEX
  8
0
 10
178.596470
 20
372.588961
 42
-0.004931
  0
VERTEX
  8
0
 10
176.950532
 20
374.250000
 42
0.082053
  0
VERTEX
  8
0
 10
172.736395
 20
377.362057
 42
0.180080
  0
VERTEX
  8
0
 10
168.813425
 20
377.819200
 42
0.085564
  0
VERTEX
  8
0
 10
163.620054
 20
375.555529
 42
0.010297
  0
SEQEND
  0
ENDSEC
  0
EOF
