  0
SECTION
  2
HEADER
  9
$ACADVER
  1
AC1006
  9
$EXTMIN
 10
0.000000
 20
0.000000
 30
0.000000
  9
$EXTMAX
 10
260.000000
 20
159.000000
 30
0.000000
  0
ENDSEC
  0
SECTION
  2
ENTITIES
  0
POLYLINE
  8
0
 66
1
 70
1
  0
VERTEX
  8
0
 10
215.500000
 20
157.025788
 42
0.004928
  0
VERTEX
  8
0
 10
212.362709
 20
156.395323
 42
0.006774
  0
VERTEX
  8
0
 10
209.556250
 20
155.762666
 42
0.004527
  0
VERTEX
  8
0
 10
207.221662
 20
155.180641
 42
0.077645
  0
VERTEX
  8
0
 10
206.500000
 20
154.868393
 42
-0.080713
  0
VERTEX
  8
0
 10
205.786371
 20
154.564773
 42
-0.005258
  0
VERTEX
  8
0
 10
203.590625
 20
154.049104
 42
-0.007538
  0
VERTEX
  8
0
 10
200.945669
 20
153.498951
 42
-0.005547
  0
VERTEX
  8
0
 10
198.000000
 20
152.966260
 42
0.008249
  0
VERTEX
  8
0
 10
195.058007
 20
152.417804
 42
0.011208
  0
VERTEX
  8
0
 10
192.424062
 20
151.819890
 42
0.008280
  0
VERTEX
  8
0
 10
190.259824
 20
151.239066
 42
0.112951
  0
VERTEX
  8
0
 10
189.550000
 20
150.847867
 42
-0.081010
  0
VERTEX
  8
0
 10
189.038300
 20
150.522056
 42
-0.033556
  0
VERTEX
  8
0
 10
188.262187
 20
150.249061
 42
-0.032094
  0
VERTEX
  8
0
 10
187.373699
 20
150.062493
 42
-0.035718
  0
VERTEX
  8
0
 10
186.500000
 20
150.000000
 42
0.037254
  0
VERTEX
  8
0
 10
185.626299
 20
149.934811
 42
0.033316
  0
VERTEX
  8
0
 10
184.737813
 20
149.740271
 42
0.034879
  0
VERTEX
  8
0
 10
183.962186
 20
149.455480
 42
0.082161
  0
VERTEX
  8
0
 10
183.450000
 20
149.115815
 42
-0.143767
  0
VERTEX
  8
0
 10
180.733683
 20
147.756619
 42
-0.009641
  0
VERTEX
  8
0
 10
172.062913
 20
146.365399
 42
-0.014463
  0
VERTEX
  8
0
 10
163.316100
 20
145.391496
 42
-0.047197
  0
VERTEX
  8
0
 10
157.496875
 20
145.463432
 42
0.016538
  0
VERTEX
  8
0
 10
153.970731
 20
145.723463
 42
0.055965
  0
VERTEX
  8
0
 10
151.671466
 20
145.559299
 42
0.060302
  0
VERTEX
  8
0
 10
149.556853
 20
144.896938
 42
0.021416
  0
VERTEX
  8
0
 10
146.722303
 20
143.468357
 42
-0.030849
  0
VERTEX
  8
0
 10
143.857968
 20
142.091855
 42
-0.042733
  0
VERTEX
  8
0
 10
141.137709
 20
141.247740
 42
-0.032421
  0
VERTEX
  8
0
 10
137.794240
 20
140.740193
 42
-0.010216
  0
VERTEX
  8
0
 10
132.747093
 20
140.409624
 42
0.008617
  0
VERTEX
  8
0
 10
112.684594
 20
139.160023
 42
0.009907
  0
VERTEX
  8
0
 10
93.591864
 20
137.258794
 42
0.010072
  0
VERTEX
  8
0
 10
77.390914
 20
134.988799
 42
0.038636
  0
VERTEX
  8
0
 10
67.500000
 20
132.604083
 42
-0.000875
  0
VERTEX
  8
0
 10
65.679040
 20
132.016619
 42
-0.000515
  0
VERTEX
  8
0
 10
63.500000
 20
131.320314
 42
-0.000515
  0
VERTEX
  8
0
 10
61.320879
 20
130.628923
 42
-0.000880
  0
VERTEX
  8
0
 10
59.500000
 20
130.056779
 42
0.009245
  0
VERTEX
  8
0
 10
57.679518
 20
129.451116
 42
0.005261
  0
VERTEX
  8
0
 10
55.500000
 20
128.655075
 42
0.005251
  0
VERTEX
  8
0
 10
53.321457
 20
127.807069
 42
0.008646
  0
VERTEX
  8
0
 10
51.500000
 20
127.039111
 42
-0.006122
  0
VERTEX
  8
0
 10
49.624271
 20
126.237091
 42
-0.003179
  0
VERTEX
  8
0
 10
47.264464
 20
125.279604
 42
-0.003160
  0
VERTEX
  8
0
 10
44.827940
 20
124.326777
 42
-0.004805
  0
VERTEX
  8
0
 10
42.698175
 20
123.532784
 42
0.058056
  0
VERTEX
  8
0
 10
34.211554
 20
119.294010
 42
0.023333
  0
VERTEX
  8
0
 10
23.685672
 20
111.685972
 42
0.019613
  0
VERTEX
  8
0
 10
14.209715
 20
103.512418
 42
0.138484
  0
VERTEX
  8
0
 10
11.089113
 20
98.360572
 42
-0.033381
  0
VERTEX
  8
0
 10
10.534042
 20
96.771916
 42
-0.017918
  0
VERTEX
  8
0
 10
9.651558
 20
94.891093
 42
-0.017767
  0
VERTEX
  8
0
 10
8.609985
 20
93.029308
 42
-0.026507
  0
VERTEX
  8
0
 10
7.559000
 20
91.488465
 42
0.026201
  0
VERTEX
  8
0
 10
6.579589
 20
90.054445
 42
0.025921
  0
VERTEX
  8
0
 10
5.751706
 20
88.520817
 42
0.026830
  0
VERTEX
  8
0
 10
5.171102
 20
87.106400
 42
0.084165
  0
VERTEX
  8
0
 10
5.000000
 20
86.097138
 42
-0.060508
  0
VERTEX
  8
0
 10
4.877772
 20
85.090825
 42
-0.021416
  0
VERTEX
  8
0
 10
4.469600
 20
83.695375
 42
-0.020892
  0
VERTEX
  8
0
 10
3.885535
 20
82.185800
 42
-0.023059
  0
VERTEX
  8
0
 10
3.194381
 20
80.780416
 42
0.060407
  0
VERTEX
  8
0
 10
1.965695
 20
77.726379
 42
0.036949
  0
VERTEX
  8
0
 10
1.239058
 20
73.906303
 42
0.024260
  0
VERTEX
  8
0
 10
0.890156
 20
68.594964
 42
0.007308
  0
VERTEX
  8
0
 10
0.870168
 20
60.500000
 42
0.010324
  0
VERTEX
  8
0
 10
1.085377
 20
53.939985
 42
0.017633
  0
VERTEX
  8
0
 10
1.570847
 20
48.481404
 42
0.017661
  0
VERTEX
  8
0
 10
2.247997
 20
44.266195
 42
0.121456
  0
VERTEX
  8
0
 10
3.128186
 20
42.378612
 42
-0.066851
  0
VERTEX
  8
0
 10
3.564515
 20
41.658167
 42
-0.010053
  0
VERTEX
  8
0
 10
4.209734
 20
40.092721
 42
-0.011134
  0
VERTEX
  8
0
 10
4.897248
 20
38.200907
 42
-0.009409
  0
VERTEX
  8
0
 10
5.541690
 20
36.171570
 42
0.012504
  0
VERTEX
  8
0
 10
6.186915
 20
34.182520
 42
0.016683
  0
VERTEX
  8
0
 10
6.877156
 20
32.413680
 42
0.013939
  0
VERTEX
  8
0
 10
7.532461
 20
30.997134
 42
0.139916
  0
VERTEX
  8
0
 10
7.967142
 20
30.520307
 42
-0.104501
  0
VERTEX
  8
0
 10
8.441001
 20
30.068282
 42
-0.010967
  0
VERTEX
  8
0
 10
9.284140
 20
28.777990
 42
-0.013201
  0
VERTEX
  8
0
 10
10.224195
 20
27.175271
 42
-0.010219
  0
VERTEX
  8
0
 10
11.165397
 20
25.383275
 42
0.030858
  0
VERTEX
  8
0
 10
12.407912
 20
23.237547
 42
0.040692
  0
VERTEX
  8
0
 10
13.807423
 20
21.463488
 42
0.043380
  0
VERTEX
  8
0
 10
15.394413
 20
20.029397
 42
0.044124
  0
VERTEX
  8
0
 10
17.196434
 20
18.899787
 42
-0.019604
  0
VERTEX
  8
0
 10
18.868864
 20
17.962219
 42
-0.011347
  0
VERTEX
  8
0
 10
20.806285
 20
16.712611
 42
-0.011330
  0
VERTEX
  8
0
 10
22.695647
 20
15.368921
 42
-0.018653
  0
VERTEX
  8
0
 10
24.222196
 20
14.139112
 42
0.033105
  0
VERTEX
  8
0
 10
27.091559
 20
11.961116
 42
0.029740
  0
VERTEX
  8
0
 10
30.325178
 20
10.094094
 42
0.024528
  0
VERTEX
  8
0
 10
34.299425
 20
8.342551
 42
0.012275
  0
VERTEX
  8
0
 10
39.475481
 20
6.502738
 42
-0.011732
  0
VERTEX
  8
0
 10
41.485068
 20
5.790893
 42
-0.012641
  0
VERTEX
  8
0
 10
43.409078
 20
5.001872
 42
-0.012235
  0
VERTEX
  8
0
 10
45.022342
 20
4.244497
 42
-0.057359
  0
VERTEX
  8
0
 10
45.879602
 20
3.685312
 42
0.129046
  0
VERTEX
  8
0
 10
46.959185
 20
3.182457
 42
0.016090
  0
VERTEX
  8
0
 10
49.539969
 20
2.800184
 42
0.016750
  0
VERTEX
  8
0
 10
52.879326
 20
2.527826
 42
0.009711
  0
VERTEX
  8
0
 10
56.904121
 20
2.413243
 42
-0.005402
  0
VERTEX
  8
0
 10
60.688885
 20
2.338122
 42
-0.007215
  0
VERTEX
  8
0
 10
64.121836
 20
2.183261
 42
-0.005236
  0
VERTEX
  8
0
 10
66.983918
 20
1.982639
 42
-0.071424
  0
VERTEX
  8
0
 10
68.000000
 20
1.752155
 42
0.041841
  0
VERTEX
  8
0
 10
70.895019
 20
0.913301
 42
0.046214
  0
VERTEX
  8
0
 10
73.793844
 20
0.604756
 42
0.034600
  0
VERTEX
  8
0
 10
77.327052
 20
0.801034
 42
0.012135
  0
VERTEX
  8
0
 10
82.357218
 20
1.555789
 42
0.010574
  0
VERTEX
  8
0
 10
88.330046
 20
2.731446
 42
0.022265
  0
VERTEX
  8
0
 10
92.896567
 20
3.946332
 42
0.020141
  0
VERTEX
  8
0
 10
97.612364
 20
5.640092
 42
0.007194
  0
VERTEX
  8
0
 10
104.200958
 20
8.421686
 42
-0.023818
  0
VERTEX
  8
0
 10
106.025982
 20
9.121666
 42
-0.010256
  0
VERTEX
  8
0
 10
108.518229
 20
9.887431
 42
-0.010122
  0
VERTEX
  8
0
 10
111.209748
 20
10.595798
 42
-0.013187
  0
VERTEX
  8
0
 10
113.700958
 20
11.128692
 42
0.015764
  0
VERTEX
  8
0
 10
116.249472
 20
11.687596
 42
0.010652
  0
VERTEX
  8
0
 10
119.118407
 20
12.477633
 42
0.010738
  0
VERTEX
  8
0
 10
121.861807
 20
13.360939
 42
0.020954
  0
VERTEX
  8
0
 10
124.000000
 20
14.202267
 42
-0.001176
  0
VERTEX
  8
0
 10
128.218358
 20
16.057903
 42
-0.001606
  0
VERTEX
  8
0
 10
132.028328
 20
17.708653
 42
-0.001768
  0
VERTEX
  8
0
 10
135.236976
 20
19.073227
 42
-0.004939
  0
VERTEX
  8
0
 10
137.500000
 20
20.000000
 42
0.002514
  0
VERTEX
  8
0
 10
138.506014
 20
20.406306
 42
0.000893
  0
VERTEX
  8
0
 10
139.940625
 20
20.997114
 42
0.000886
  0
VERTEX
  8
0
 10
141.513377
 20
21.651366
 42
0.001044
  0
VERTEX
  8
0
 10
143.000000
 20
22.276531
 42
-0.001335
  0
VERTEX
  8
0
 10
144.414919
 20
22.870573
 42
-0.001524
  0
VERTEX
  8
0
 10
145.772011
 20
23.431230
 42
-0.001377
  0
VERTEX
  8
0
 10
146.926657
 20
23.900428
 42
-0.008619
  0
VERTEX
  8
0
 10
147.521738
 20
24.128491
 42
0.034267
  0
VERTEX
  8
0
 10
148.207493
 20
24.432472
 42
0.001558
  0
VERTEX
  8
0
 10
150.476868
 20
25.639652
 42
0.002597
  0
VERTEX
  8
0
 10
153.159824
 20
27.095569
 42
0.001857
  0
VERTEX
  8
0
 10
156.146973
 20
28.751174
 42
0.009661
  0
VERTEX
  8
0
 10
160.282384
 20
31.169354
 42
0.046134
  0
VERTEX
  8
0
 10
162.473185
 20
32.802732
 42
0.080622
  0
VERTEX
  8
0
 10
163.697868
 20
34.326379
 42
0.079857
  0
VERTEX
  8
0
 10
164.382812
 20
36.164060
 42
0.037500
  0
VERTEX
  8
0
 10
164.576950
 20
37.741835
 42
0.066103
  0
VERTEX
  8
0
 10
164.466243
 20
39.048084
 42
0.072818
  0
VERTEX
  8
0
 10
164.032879
 20
40.192666
 42
0.056445
  0
VERTEX
  8
0
 10
163.257577
 20
41.278449
 42
0.075610
  0
VERTEX
  8
0
 10
162.026159
 20
42.288588
 42
0.095390
  0
VERTEX
  8
0
 10
160.642302
 20
42.787257
 42
0.052575
  0
VERTEX
  8
0
 10
158.595022
 20
42.890951
 42
0.009380
  0
VERTEX
  8
0
 10
154.769804
 20
42.610421
 42
0.020712
  0
VERTEX
  8
0
 10
150.062043
 20
41.978726
 42
0.018086
  0
VERTEX
  8
0
 10
145.202275
 20
40.937965
 42
0.018458
  0
VERTEX
  8
0
 10
140.556973
 20
39.581784
 42
0.025299
  0
VERTEX
  8
0
 10
136.500000
 20
38.000987
 42
-0.020089
  0
VERTEX
  8
0
 10
135.320826
 20
37.527320
 42
-0.003409
  0
VERTEX
  8
0
 10
133.031250
 20
36.730334
 42
-0.003718
  0
VERTEX
  8
0
 10
130.326631
 20
35.831886
 42
-0.003302
  0
VERTEX
  8
0
 10
127.500000
 20
34.936776
 42
0.002843
  0
VERTEX
  8
0
 10
124.418629
 20
33.964113
 42
0.001962
  0
VERTEX
  8
0
 10
120.940625
 20
32.829381
 42
0.001978
  0
VERTEX
  8
0
 10
117.604964
 20
31.711927
 42
0.004050
  0
VERTEX
  8
0
 10
115.000000
 20
30.804185
 42
-0.038846
  0
VERTEX
  8
0
 10
100.926669
 20
26.973518
 42
-0.024872
  0
VERTEX
  8
0
 10
84.139624
 20
24.635753
 42
-0.024943
  0
VERTEX
  8
0
 10
67.942712
 20
24.007613
 42
-0.059178
  0
VERTEX
  8
0
 10
56.000000
 20
25.560845
 42
-0.017809
  0
VERTEX
  8
0
 10
48.418697
 20
27.766875
 42
-0.027512
  0
VERTEX
  8
0
 10
42.068026
 20
30.257798
 42
-0.032316
  0
VERTEX
  8
0
 10
36.989704
 20
32.988803
 42
-0.058718
  0
VERTEX
  8
0
 10
33.315875
 20
35.931364
 42
-0.056206
  0
VERTEX
  8
0
 10
27.554001
 20
43.266009
 42
-0.097340
  0
VERTEX
  8
0
 10
24.836517
 20
50.496212
 42
-0.095195
  0
VERTEX
  8
0
 10
25.027481
 20
58.330632
 42
-0.051899
  0
VERTEX
  8
0
 10
28.044696
 20
67.500000
 42
0.006158
  0
VERTEX
  8
0
 10
28.774836
 20
69.183204
 42
0.005648
  0
VERTEX
  8
0
 10
29.485212
 20
70.932880
 42
0.005652
  0
VERTEX
  8
0
 10
30.083758
 20
72.508362
 42
0.018427
  0
VERTEX
  8
0
 10
30.429393
 20
73.569380
 42
-0.170827
  0
VERTEX
  8
0
 10
32.706750
 20
76.783401
 42
-0.035105
  0
VERTEX
  8
0
 10
38.738809
 20
80.446701
 42
-0.034745
  0
VERTEX
  8
0
 10
46.415916
 20
83.748150
 42
-0.033589
  0
VERTEX
  8
0
 10
54.562853
 20
85.998630
 42
0.008344
  0
VERTEX
  8
0
 10
56.909593
 20
86.521065
 42
0.010693
  0
VERTEX
  8
0
 10
59.049713
 20
87.083792
 42
0.008735
  0
VERTEX
  8
0
 10
60.812401
 20
87.621296
 42
0.085176
  0
VERTEX
  8
0
 10
61.500000
 20
87.982235
 42
-0.092133
  0
VERTEX
  8
0
 10
62.161729
 20
88.318026
 42
-0.012404
  0
VERTEX
  8
0
 10
63.675000
 20
88.722262
 42
-0.013970
  0
VERTEX
  8
0
 10
65.512279
 20
89.110574
 42
-0.011352
  0
VERTEX
  8
0
 10
67.500000
 20
89.426550
 42
0.012394
  0
VERTEX
  8
0
 10
69.741195
 20
89.787610
 42
0.007692
  0
VERTEX
  8
0
 10
72.353125
 20
90.316796
 42
0.007715
  0
VERTEX
  8
0
 10
74.916505
 20
90.918913
 42
0.013796
  0
VERTEX
  8
0
 10
77.000000
 20
91.503910
 42
-0.031534
  0
VERTEX
  8
0
 10
79.361878
 20
92.077577
 42
-0.009822
  0
VERTEX
  8
0
 10
82.968750
 20
92.643312
 42
-0.009775
  0
VERTEX
  8
0
 10
87.032821
 20
93.118467
 42
-0.010633
  0
VERTEX
  8
0
 10
91.000000
 20
93.418847
 42
0.009023
  0
VERTEX
  8
0
 10
95.184479
 20
93.722134
 42
0.006217
  0
VERTEX
  8
0
 10
99.912500
 20
94.210053
 42
0.006270
  0
VERTEX
  8
0
 10
104.450337
 20
94.793206
 42
0.012718
  0
VERTEX
  8
0
 10
108.000000
 20
95.387130
 42
-0.022491
  0
VERTEX
  8
0
 10
112.058409
 20
95.984911
 42
-0.009558
  0
VERTEX
  8
0
 10
117.537219
 20
96.436024
 42
-0.008828
  0
VERTEX
  8
0
 10
123.833355
 20
96.721943
 42
-0.007459
  0
VERTEX
  8
0
 10
130.500000
 20
96.807327
 42
0.007395
  0
VERTEX
  8
0
 10
138.341502
 20
96.906753
 42
0.013423
  0
VERTEX
  8
0
 10
144.744108
 20
97.254844
 42
0.014814
  0
VERTEX
  8
0
 10
150.668998
 20
97.913931
 42
0.011882
  0
VERTEX
  8
0
 10
157.000000
 20
98.962762
 42
0.010871
  0
VERTEX
  8
0
 10
165.335866
 20
100.736700
 42
0.014206
  0
VERTEX
  8
0
 10
172.867503
 20
102.738914
 42
0.013451
  0
VERTEX
  8
0
 10
178.975088
 20
104.730018
 42
0.083258
  0
VERTEX
  8
0
 10
181.848019
 20
106.330135
 42
-0.128452
  0
VERTEX
  8
0
 10
182.820785
 20
106.763147
 42
-0.011097
  0
VERTEX
  8
0
 10
185.533034
 20
107.148418
 42
-0.014046
  0
VERTEX
  8
0
 10
188.838012
 20
107.449413
 42
-0.010440
  0
VERTEX
  8
0
 10
192.499785
 20
107.602763
 42
0.008767
  0
VERTEX
  8
0
 10
199.430193
 20
107.869782
 42
0.025480
  0
VERTEX
  8
0
 10
204.195269
 20
108.381567
 42
0.027190
  0
VERTEX
  8
0
 10
208.712192
 20
109.355223
 42
0.011167
  0
VERTEX
  8
0
 10
214.721556
 20
111.142000
 42
0.020419
  0
VERTEX
  8
0
 10
221.698692
 20
113.706048
 42
0.023442
  0
VERTEX
  8
0
 10
228.121217
 20
116.728725
 42
0.024493
  0
VERTEX
  8
0
 10
233.971178
 20
120.201542
 42
0.027347
  0
VERTEX
  8
0
 10
239.232974
 20
124.114221
 42
-0.008632
  0
VERTEX
  8
0
 10
241.714130
 20
126.107584
 42
-0.009921
  0
VERTEX
  8
0
 10
244.151627
 20
127.921294
 42
-0.009124
  0
VERTEX
  8
0
 10
246.270820
 20
129.376149
 42
-0.055068
  0
VERTEX
  8
0
 10
247.456712
 20
129.983542
 42
0.036789
  0
VERTEX
  8
0
 10
248.487651
 20
130.464946
 42
0.014174
  0
VERTEX
  8
0
 10
249.844098
 20
131.275746
 42
0.013944
  0
VERTEX
  8
0
 10
251.271306
 20
132.241682
 42
0.016717
  0
VERTEX
  8
0
 10
252.556370
 20
133.231437
 42
-0.014503
  0
VERTEX
  8
0
 10
253.813423
 20
134.208517
 42
-0.013463
  0
VERTEX
  8
0
 10
255.156034
 20
135.136542
 42
-0.013587
  0
VERTEX
  8
0
 10
256.394439
 20
135.897015
 42
-0.043356
  0
VERTEX
  8
0
 10
257.272681
 20
136.307125
 42
0.168962
  0
VERTEX
  8
0
 10
259.410940
 20
138.053927
 42
0.238345
  0
VERTEX
  8
0
 10
259.611604
 20
140.463169
 42
0.205356
  0
VERTEX
  8
0
 10
257.731433
 20
142.326333
 42
0.144282
  0
VERTEX
  8
0
 10
254.725656
 20
142.595131
 42
-0.073388
  0
VERTEX
  8
0
 10
252.759730
 20
142.495013
 42
-0.440420
  0
VERTEX
  8
0
 10
252.212560
 20
143.221620
 42
-0.197506
  0
VERTEX
  8
0
 10
253.004281
 20
144.445305
 42
-0.038260
  0
VERTEX
  8
0
 10
255.323842
 20
145.804566
 42
0.160894
  0
VERTEX
  8
0
 10
257.709944
 20
148.130515
 42
0.284201
  0
VERTEX
  8
0
 10
257.511755
 20
150.779030
 42
0.147204
  0
VERTEX
  8
0
 10
254.367974
 20
153.168927
 42
0.056898
  0
VERTEX
  8
0
 10
249.000000
 20
154.505422
 42
-0.011429
  0
VERTEX
  8
0
 10
246.601919
 20
154.875703
 42
-0.008204
  0
VERTEX
  8
0
 10
243.940625
 20
155.394317
 42
-0.008291
  0
VERTEX
  8
0
 10
241.422224
 20
155.971904
 42
-0.017637
  0
VERTEX
  8
0
 10
239.500000
 20
156.519030
 42
0.043874
  0
VERTEX
  8
0
 10
234.436484
 20
157.677280
 42
0.029026
  0
VERTEX
  8
0
 10
228.485248
 20
158.149291
 42
0.027189
  0
VERTEX
  8
0
 10
222.045135
 20
157.935057
 42
0.025216
  0
SEQEND
  0
ENDSEC
  0
EOF
