  0
SECTION
  2
HEADER
  9
$ACADVER
  1
AC1006
  9
$EXTMIN
 10
0.000000
 20
0.000000
 30
0.000000
  9
$EXTMAX
 10
104.000000
 20
138.000000
 30
0.000000
  0
ENDSEC
  0
SECTION
  2
ENTITIES
  0
POLYLINE
  8
0
 66
1
 70
1
  0
VERTEX
  8
0
 10
93.000000
 20
136.008369
 42
-0.028963
  0
VERTEX
  8
0
 10
89.320205
 20
134.270806
 42
-0.007997
  0
VERTEX
  8
0
 10
83.348651
 20
131.973522
 42
-0.008432
  0
VERTEX
  8
0
 10
76.944518
 20
129.748448
 42
-0.014260
  0
VERTEX
  8
0
 10
71.500000
 20
128.129573
 42
0.069760
  0
VERTEX
  8
0
 10
69.014414
 20
127.079295
 42
0.048773
  0
VERTEX
  8
0
 10
66.564816
 20
125.268550
 42
0.027887
  0
VERTEX
  8
0
 10
63.469324
 20
122.145798
 42
0.006049
  0
VERTEX
  8
0
 10
58.500000
 20
116.401138
 42
-0.006672
  0
VERTEX
  8
0
 10
54.571130
 20
111.870701
 42
-0.005275
  0
VERTEX
  8
0
 10
50.205660
 20
107.073357
 42
-0.005336
  0
VERTEX
  8
0
 10
46.058654
 20
102.705983
 42
-0.013200
  0
VERTEX
  8
0
 10
42.902247
 20
99.619461
 42
0.009169
  0
VERTEX
  8
0
 10
40.200524
 20
97.019824
 42
0.008618
  0
VERTEX
  8
0
 10
37.538503
 20
94.269467
 42
0.008616
  0
VERTEX
  8
0
 10
35.262867
 20
91.750101
 42
0.029237
  0
VERTEX
  8
0
 10
33.907621
 20
90.000000
 42
-0.015221
  0
VERTEX
  8
0
 10
32.647342
 20
88.274774
 42
-0.005403
  0
VERTEX
  8
0
 10
30.744501
 20
85.883546
 42
-0.005356
  0
VERTEX
  8
0
 10
28.597460
 20
83.301485
 42
-0.006284
  0
VERTEX
  8
0
 10
26.505374
 20
80.901432
 42
0.019441
  0
VERTEX
  8
0
 10
18.767162
 20
71.537767
 42
0.020378
  0
VERTEX
  8
0
 10
11.906827
 20
61.743215
 42
0.020837
  0
VERTEX
  8
0
 10
6.686041
 20
52.803962
 42
0.073784
  0
VERTEX
  8
0
 10
4.478715
 20
46.556494
 42
-0.012764
  0
VERTEX
  8
0
 10
4.187267
 20
45.239889
 42
-0.009657
  0
VERTEX
  8
0
 10
3.802858
 20
43.810345
 42
-0.009780
  0
VERTEX
  8
0
 10
3.389450
 20
42.481271
 42
-0.022279
  0
VERTEX
  8
0
 10
3.013728
 20
41.500000
 42
0.045083
  0
VERTEX
  8
0
 10
2.119052
 20
38.801294
 42
0.018387
  0
VERTEX
  8
0
 10
1.375934
 20
35.003753
 42
0.017369
  0
VERTEX
  8
0
 10
0.846130
 20
30.673261
 42
0.016608
  0
VERTEX
  8
0
 10
0.608030
 20
26.251115
 42
0.011154
  0
VERTEX
  8
0
 10
0.612936
 20
23.413898
 42
0.069884
  0
VERTEX
  8
0
 10
0.848518
 20
21.986576
 42
0.167630
  0
VERTEX
  8
0
 10
1.373820
 20
21.274058
 42
0.151825
  0
VERTEX
  8
0
 10
2.250000
 20
21.001115
 42
-0.100749
  0
VERTEX
  8
0
 10
3.017953
 20
20.844278
 42
-0.136393
  0
VERTEX
  8
0
 10
3.568938
 20
20.404710
 42
-0.108286
  0
VERTEX
  8
0
 10
3.895121
 20
19.655378
 42
-0.048746
  0
VERTEX
  8
0
 10
4.000000
 20
18.582162
 42
0.093220
  0
VERTEX
  8
0
 10
4.602415
 20
15.379094
 42
0.028933
  0
VERTEX
  8
0
 10
6.652281
 20
10.905404
 42
0.022171
  0
VERTEX
  8
0
 10
9.057230
 20
6.818084
 42
0.354026
  0
VERTEX
  8
0
 10
10.482721
 20
6.354996
 42
-0.163876
  0
VERTEX
  8
0
 10
11.139497
 20
6.382296
 42
-0.051478
  0
VERTEX
  8
0
 10
12.063239
 20
6.006701
 42
-0.045152
  0
VERTEX
  8
0
 10
13.076451
 20
5.343902
 42
-0.036785
  0
VERTEX
  8
0
 10
14.031536
 20
4.466431
 42
0.031112
  0
VERTEX
  8
0
 10
15.165854
 20
3.400336
 42
0.079739
  0
VERTEX
  8
0
 10
16.133314
 20
2.829500
 42
0.111561
  0
VERTEX
  8
0
 10
17.021937
 20
2.693638
 42
0.105617
  0
VERTEX
  8
0
 10
17.902203
 20
2.947661
 42
-0.079941
  0
VERTEX
  8
0
 10
18.712358
 20
3.226838
 42
-0.076777
  0
VERTEX
  8
0
 10
19.580965
 20
3.243393
 42
-0.070700
  0
VERTEX
  8
0
 10
20.474440
 20
2.990951
 42
-0.053762
  0
VERTEX
  8
0
 10
21.356447
 20
2.481310
 42
0.053153
  0
VERTEX
  8
0
 10
22.320069
 20
1.922947
 42
0.020242
  0
VERTEX
  8
0
 10
23.764502
 20
1.348561
 42
0.019776
  0
VERTEX
  8
0
 10
25.397144
 20
0.846286
 42
0.022889
  0
VERTEX
  8
0
 10
26.987078
 20
0.502183
 42
0.099894
  0
VERTEX
  8
0
 10
30.973481
 20
0.628829
 42
0.055268
  0
VERTEX
  8
0
 10
35.580820
 20
2.265412
 42
0.051578
  0
VERTEX
  8
0
 10
40.102215
 20
5.067447
 42
0.054794
  0
VERTEX
  8
0
 10
43.853623
 20
8.685778
 42
-0.000895
  0
VERTEX
  8
0
 10
45.336647
 20
10.461699
 42
-0.000466
  0
VERTEX
  8
0
 10
47.192532
 20
12.671869
 42
-0.000463
  0
VERTEX
  8
0
 10
49.102004
 20
14.937294
 42
-0.000707
  0
VERTEX
  8
0
 10
50.763603
 20
16.899307
 42
0.004212
  0
VERTEX
  8
0
 10
52.298494
 20
18.737686
 42
0.004066
  0
VERTEX
  8
0
 10
53.820638
 20
20.623396
 42
0.004021
  0
VERTEX
  8
0
 10
55.134206
 20
22.305668
 42
0.014822
  0
VERTEX
  8
0
 10
55.923677
 20
23.399307
 42
-0.031259
  0
VERTEX
  8
0
 10
56.894558
 20
24.655164
 42
-0.003251
  0
VERTEX
  8
0
 10
59.375006
 20
27.443039
 42
-0.004028
  0
VERTEX
  8
0
 10
62.381107
 20
30.724263
 42
-0.003213
  0
VERTEX
  8
0
 10
65.673677
 20
34.215294
 42
0.005208
  0
VERTEX
  8
0
 10
70.791464
 20
39.685112
 42
0.045207
  0
VERTEX
  8
0
 10
72.810489
 20
42.333343
 42
0.089850
  0
VERTEX
  8
0
 10
73.704720
 20
44.560414
 42
0.050694
  0
VERTEX
  8
0
 10
74.000000
 20
47.465294
 42
0.020783
  0
VERTEX
  8
0
 10
73.927724
 20
49.203364
 42
0.033494
  0
VERTEX
  8
0
 10
73.706250
 20
50.667930
 42
0.036546
  0
VERTEX
  8
0
 10
73.388605
 20
51.731959
 42
0.311427
  0
VERTEX
  8
0
 10
73.000000
 20
52.000000
 42
0.102530
  0
VERTEX
  8
0
 10
72.618411
 20
51.920920
 42
0.098701
  0
VERTEX
  8
0
 10
72.293750
 20
51.696196
 42
0.097085
  0
VERTEX
  8
0
 10
72.076216
 20
51.360528
 42
0.095653
  0
VERTEX
  8
0
 10
72.000000
 20
50.965775
 42
-0.179961
  0
VERTEX
  8
0
 10
71.765242
 20
50.334653
 42
-0.007015
  0
VERTEX
  8
0
 10
70.090625
 20
48.449227
 42
-0.011702
  0
VERTEX
  8
0
 10
67.990649
 20
46.256018
 42
-0.007912
  0
VERTEX
  8
0
 10
65.500000
 20
43.851119
 42
0.013423
  0
VERTEX
  8
0
 10
63.010397
 20
41.393642
 42
0.018260
  0
VERTEX
  8
0
 10
60.909375
 20
39.038963
 42
0.015302
  0
VERTEX
  8
0
 10
59.324804
 20
37.003212
 42
0.159023
  0
VERTEX
  8
0
 10
59.000000
 20
36.007789
 42
-0.071201
  0
VERTEX
  8
0
 10
58.890350
 20
35.241687
 42
-0.044602
  0
VERTEX
  8
0
 10
58.559375
 20
34.397055
 42
-0.043929
  0
VERTEX
  8
0
 10
58.074096
 20
33.606276
 42
-0.060037
  0
VERTEX
  8
0
 10
57.500000
 20
33.000000
 42
0.058473
  0
VERTEX
  8
0
 10
56.925935
 20
32.397529
 42
0.043718
  0
VERTEX
  8
0
 10
56.440625
 20
31.618374
 42
0.044587
  0
VERTEX
  8
0
 10
56.109478
 20
30.790659
 42
0.072993
  0
VERTEX
  8
0
 10
56.000000
 20
30.044735
 42
-0.194098
  0
VERTEX
  8
0
 10
54.961832
 20
27.471144
 42
-0.004579
  0
VERTEX
  8
0
 10
45.679573
 20
18.013023
 42
-0.007543
  0
VERTEX
  8
0
 10
36.529882
 20
9.131310
 42
-0.088135
  0
VERTEX
  8
0
 10
32.381512
 20
6.415593
 42
-0.112171
  0
VERTEX
  8
0
 10
27.498017
 20
5.524878
 42
-0.071914
  0
VERTEX
  8
0
 10
21.811133
 20
6.598425
 42
-0.072687
  0
VERTEX
  8
0
 10
16.727224
 20
9.214735
 42
-0.121642
  0
VERTEX
  8
0
 10
13.616272
 20
12.846543
 42
-0.037938
  0
VERTEX
  8
0
 10
13.058616
 20
14.201757
 42
-0.014585
  0
VERTEX
  8
0
 10
12.485162
 20
16.156458
 42
-0.014343
  0
VERTEX
  8
0
 10
11.983754
 20
18.322161
 42
-0.017146
  0
VERTEX
  8
0
 10
11.640703
 20
20.388209
 42
-0.033791
  0
VERTEX
  8
0
 10
11.448243
 20
23.453846
 42
-0.075811
  0
VERTEX
  8
0
 10
11.810067
 20
25.751525
 42
-0.048700
  0
VERTEX
  8
0
 10
12.945905
 20
28.402144
 42
-0.007710
  0
VERTEX
  8
0
 10
15.750187
 20
33.327424
 42
-0.021312
  0
VERTEX
  8
0
 10
18.234544
 20
37.155781
 42
-0.012554
  0
VERTEX
  8
0
 10
21.506868
 20
41.520239
 42
-0.012184
  0
VERTEX
  8
0
 10
25.172190
 20
45.935775
 42
-0.014225
  0
VERTEX
  8
0
 10
28.869312
 20
49.939215
 42
0.004172
  0
VERTEX
  8
0
 10
32.337836
 20
53.546825
 42
0.003856
  0
VERTEX
  8
0
 10
35.838757
 20
57.307144
 42
0.003849
  0
VERTEX
  8
0
 10
38.904742
 20
60.703779
 42
0.012832
  0
VERTEX
  8
0
 10
40.842431
 20
63.000000
 42
-0.009641
  0
VERTEX
  8
0
 10
42.720247
 20
65.254299
 42
-0.003259
  0
VERTEX
  8
0
 10
45.538574
 20
68.465463
 42
-0.003240
  0
VERTEX
  8
0
 10
48.700947
 20
71.975524
 42
-0.003715
  0
VERTEX
  8
0
 10
51.768636
 20
75.286681
 42
0.009422
  0
VERTEX
  8
0
 10
54.846958
 20
78.686339
 42
0.007508
  0
VERTEX
  8
0
 10
58.041876
 20
82.464313
 42
0.007600
  0
VERTEX
  8
0
 10
60.896148
 20
86.054042
 42
0.018909
  0
VERTEX
  8
0
 10
62.841833
 20
88.786681
 42
-0.027185
  0
VERTEX
  8
0
 10
64.907811
 20
91.588976
 42
-0.009045
  0
VERTEX
  8
0
 10
68.224513
 20
95.465463
 42
-0.008974
  0
VERTEX
  8
0
 10
72.060814
 20
99.635238
 42
-0.010101
  0
VERTEX
  8
0
 10
75.898769
 20
103.500000
 42
0.001084
  0
VERTEX
  8
0
 10
79.583074
 20
107.078600
 42
0.001393
  0
VERTEX
  8
0
 10
82.955194
 20
110.386597
 42
0.001065
  0
VERTEX
  8
0
 10
85.768322
 20
113.173499
 42
0.012062
  0
VERTEX
  8
0
 10
86.852452
 20
114.305438
 42
-0.006714
  0
VERTEX
  8
0
 10
87.890084
 20
115.412288
 42
-0.000749
  0
VERTEX
  8
0
 10
90.292595
 20
117.899606
 42
-0.000911
  0
VERTEX
  8
0
 10
93.161811
 20
120.850446
 42
-0.000738
  0
VERTEX
  8
0
 10
96.250000
 20
124.005609
 42
0.005097
  0
VERTEX
  8
0
 10
99.220229
 20
127.093651
 42
0.007816
  0
VERTEX
  8
0
 10
101.723438
 20
129.834410
 42
0.003398
  0
VERTEX
  8
0
 10
103.793336
 20
132.205400
 42
0.179622
  0
VERTEX
  8
0
 10
104.000000
 20
132.762113
 42
0.217317
  0
VERTEX
  8
0
 10
103.557410
 20
133.732328
 42
0.013974
  0
VERTEX
  8
0
 10
101.092485
 20
135.753878
 42
0.015751
  0
VERTEX
  8
0
 10
98.528153
 20
137.613569
 42
0.163670
  0
VERTEX
  8
0
 10
97.290493
 20
137.958084
 42
0.085418
  0
VERTEX
  8
0
 10
96.809812
 20
137.848879
 42
0.008178
  0
VERTEX
  8
0
 10
95.704082
 20
137.368065
 42
0.010232
  0
VERTEX
  8
0
 10
94.398135
 20
136.742056
 42
0.007901
  0
SEQEND
  0
ENDSEC
  0
EOF
