  0
SECTION
  2
HEADER
  9
$ACADVER
  1
AC1006
  9
$EXTMIN
 10
0.000000
 20
0.000000
 30
0.000000
  9
$EXTMAX
 10
233.000000
 20
250.000000
 30
0.000000
  0
ENDSEC
  0
SECTION
  2
ENTITIES
  0
POLYLINE
  8
0
 66
1
 70
1
  0
VERTEX
  8
0
 10
58.500000
 20
248.481839
 42
0.044854
  0
VERTEX
  8
0
 10
46.459025
 20
245.270788
 42
0.053184
  0
VERTEX
  8
0
 10
35.896389
 20
240.083161
 42
0.047062
  0
VERTEX
  8
0
 10
25.705548
 20
232.225333
 42
0.025676
  0
VERTEX
  8
0
 10
14.720050
 20
220.863339
 42
0.005640
  0
VERTEX
  8
0
 10
12.205703
 20
217.913891
 42
0.009325
  0
VERTEX
  8
0
 10
10.158185
 20
215.361102
 42
0.003458
  0
VERTEX
  8
0
 10
8.487860
 20
213.165886
 42
0.373243
  0
VERTEX
  8
0
 10
8.512370
 20
212.820963
 42
-0.267111
  0
VERTEX
  8
0
 10
8.612379
 20
212.450049
 42
-0.005216
  0
VERTEX
  8
0
 10
8.068123
 20
210.476612
 42
-0.011033
  0
VERTEX
  8
0
 10
7.340711
 20
208.138340
 42
-0.006992
  0
VERTEX
  8
0
 10
6.395134
 20
205.445099
 42
0.020071
  0
VERTEX
  8
0
 10
3.322760
 20
195.902833
 42
0.032358
  0
VERTEX
  8
0
 10
1.571392
 20
187.549365
 42
0.032883
  0
VERTEX
  8
0
 10
0.928861
 20
179.136875
 42
0.021606
  0
VERTEX
  8
0
 10
1.246707
 20
169.425279
 42
0.061157
  0
VERTEX
  8
0
 10
2.870140
 20
161.337113
 42
0.035332
  0
VERTEX
  8
0
 10
6.656729
 20
152.148290
 42
0.031263
  0
VERTEX
  8
0
 10
12.342219
 20
142.310355
 42
0.023541
  0
VERTEX
  8
0
 10
19.740517
 20
132.239766
 42
-0.003893
  0
VERTEX
  8
0
 10
23.364887
 20
127.692050
 42
-0.002703
  0
VERTEX
  8
0
 10
27.392234
 20
122.499607
 42
-0.002726
  0
VERTEX
  8
0
 10
31.204993
 20
117.472049
 42
-0.005618
  0
VERTEX
  8
0
 10
34.121673
 20
113.489766
 42
0.008230
  0
VERTEX
  8
0
 10
36.532306
 20
110.234238
 42
0.012388
  0
VERTEX
  8
0
 10
38.749137
 20
107.485085
 42
0.007247
  0
VERTEX
  8
0
 10
40.674626
 20
105.280313
 42
0.205962
  0
VERTEX
  8
0
 10
41.347169
 20
104.970097
 42
-0.163453
  0
VERTEX
  8
0
 10
42.073501
 20
104.704988
 42
-0.005314
  0
VERTEX
  8
0
 10
44.511356
 20
102.714805
 42
-0.009691
  0
VERTEX
  8
0
 10
47.350906
 20
100.251077
 42
-0.006526
  0
VERTEX
  8
0
 10
50.500000
 20
97.334497
 42
0.005122
  0
VERTEX
  8
0
 10
57.701957
 20
90.626606
 42
0.015999
  0
VERTEX
  8
0
 10
62.733883
 20
86.321991
 42
0.019202
  0
VERTEX
  8
0
 10
66.389306
 20
83.615902
 42
0.150844
  0
VERTEX
  8
0
 10
68.384377
 20
83.000000
 42
-0.076528
  0
VERTEX
  8
0
 10
69.066281
 20
82.895016
 42
-0.064864
  0
VERTEX
  8
0
 10
69.728053
 20
82.587448
 42
-0.066800
  0
VERTEX
  8
0
 10
70.270357
 20
82.132510
 42
-0.093514
  0
VERTEX
  8
0
 10
70.601701
 20
81.595567
 42
0.111397
  0
VERTEX
  8
0
 10
71.106061
 20
80.839494
 42
0.011971
  0
VERTEX
  8
0
 10
72.675350
 20
79.416095
 42
0.014247
  0
VERTEX
  8
0
 10
74.657576
 20
77.799148
 42
0.011015
  0
VERTEX
  8
0
 10
76.904133
 20
76.148269
 42
-0.006975
  0
VERTEX
  8
0
 10
79.206837
 20
74.484609
 42
-0.007982
  0
VERTEX
  8
0
 10
81.359674
 20
72.829016
 42
-0.007306
  0
VERTEX
  8
0
 10
83.140077
 20
71.371089
 42
-0.044358
  0
VERTEX
  8
0
 10
83.978505
 20
70.525900
 42
0.058400
  0
VERTEX
  8
0
 10
85.867913
 20
68.725048
 42
0.012347
  0
VERTEX
  8
0
 10
89.580138
 20
66.074604
 42
0.013672
  0
VERTEX
  8
0
 10
93.666444
 20
63.466873
 42
0.024299
  0
VERTEX
  8
0
 10
97.184700
 20
61.580880
 42
-0.033998
  0
VERTEX
  8
0
 10
98.767756
 20
60.692354
 42
-0.012975
  0
VERTEX
  8
0
 10
100.848006
 20
59.252705
 42
-0.012779
  0
VERTEX
  8
0
 10
103.034087
 20
57.566979
 42
-0.015306
  0
VERTEX
  8
0
 10
105.000000
 20
55.866780
 42
0.009623
  0
VERTEX
  8
0
 10
109.955437
 20
51.481713
 42
0.004823
  0
VERTEX
  8
0
 10
116.376099
 20
46.122685
 42
0.004640
  0
VERTEX
  8
0
 10
123.422472
 20
40.464170
 42
0.005082
  0
VERTEX
  8
0
 10
130.363614
 20
35.108758
 42
0.021821
  0
VERTEX
  8
0
 10
135.933901
 20
31.270461
 42
0.020115
  0
VERTEX
  8
0
 10
141.967962
 20
27.819665
 42
0.021015
  0
VERTEX
  8
0
 10
147.753717
 20
25.115303
 42
0.043592
  0
VERTEX
  8
0
 10
152.500000
 20
23.604926
 42
-0.012825
  0
VERTEX
  8
0
 10
157.443133
 20
22.360574
 42
-0.013430
  0
VERTEX
  8
0
 10
162.239844
 20
20.881423
 42
-0.011668
  0
VERTEX
  8
0
 10
166.289947
 20
19.406192
 42
-0.082864
  0
VERTEX
  8
0
 10
168.078741
 20
18.338808
 42
0.032716
  0
VERTEX
  8
0
 10
168.769889
 20
17.826431
 42
0.030184
  0
VERTEX
  8
0
 10
169.540327
 20
17.393275
 42
0.031526
  0
VERTEX
  8
0
 10
170.274566
 20
17.092495
 42
0.081622
  0
VERTEX
  8
0
 10
170.837399
 20
17.000000
 42
-0.114957
  0
VERTEX
  8
0
 10
171.517734
 20
16.841487
 42
-0.013885
  0
VERTEX
  8
0
 10
172.887247
 20
16.118750
 42
-0.015913
  0
VERTEX
  8
0
 10
174.486526
 20
15.148803
 42
-0.012479
  0
VERTEX
  8
0
 10
176.158697
 20
14.000000
 42
0.009833
  0
VERTEX
  8
0
 10
177.812411
 20
12.850952
 42
0.013252
  0
VERTEX
  8
0
 10
179.355409
 20
11.881250
 42
0.010300
  0
VERTEX
  8
0
 10
180.667251
 20
11.140594
 42
0.123974
  0
VERTEX
  8
0
 10
181.225565
 20
11.000000
 42
-0.113252
  0
VERTEX
  8
0
 10
181.835707
 20
10.860004
 42
-0.004770
  0
VERTEX
  8
0
 10
183.839818
 20
9.865504
 42
-0.008010
  0
VERTEX
  8
0
 10
186.201120
 20
8.617557
 42
-0.005590
  0
VERTEX
  8
0
 10
188.825527
 20
7.137885
 42
0.028779
  0
VERTEX
  8
0
 10
194.179525
 20
4.438262
 42
0.045600
  0
VERTEX
  8
0
 10
199.055246
 20
2.831463
 42
0.037677
  0
VERTEX
  8
0
 10
204.769192
 20
1.956851
 42
0.013516
  0
VERTEX
  8
0
 10
213.000000
 20
1.548786
 42
-0.006897
  0
VERTEX
  8
0
 10
216.533809
 20
1.420450
 42
-0.006558
  0
VERTEX
  8
0
 10
220.122738
 20
1.193291
 42
-0.006525
  0
VERTEX
  8
0
 10
223.289654
 20
0.909492
 42
-0.022982
  0
VERTEX
  8
0
 10
225.311447
 20
0.607276
 42
0.054243
  0
VERTEX
  8
0
 10
228.328447
 20
0.347300
 42
0.146056
  0
VERTEX
  8
0
 10
230.355889
 20
1.002296
 42
0.144279
  0
VERTEX
  8
0
 10
231.707669
 20
2.668212
 42
0.052460
  0
VERTEX
  8
0
 10
232.586975
 20
5.611925
 42
0.112744
  0
VERTEX
  8
0
 10
232.448743
 20
9.145926
 42
0.036497
  0
VERTEX
  8
0
 10
230.709239
 20
14.117165
 42
0.036480
  0
VERTEX
  8
0
 10
228.071543
 20
19.153073
 42
0.053996
  0
VERTEX
  8
0
 10
225.005098
 20
23.077314
 42
-0.027409
  0
VERTEX
  8
0
 10
223.901846
 20
24.344410
 42
-0.013877
  0
VERTEX
  8
0
 10
222.648373
 20
26.049831
 42
-0.013741
  0
VERTEX
  8
0
 10
221.448318
 20
27.887134
 42
-0.019906
  0
VERTEX
  8
0
 10
220.500000
 20
29.577314
 42
0.043908
  0
VERTEX
  8
0
 10
216.862163
 20
35.389298
 42
0.034055
  0
VERTEX
  8
0
 10
211.965786
 20
41.027409
 42
0.034224
  0
VERTEX
  8
0
 10
206.384674
 20
45.914402
 42
0.046121
  0
VERTEX
  8
0
 10
200.694249
 20
49.470836
 42
-0.006141
  0
VERTEX
  8
0
 10
194.837822
 20
52.510043
 42
-0.011687
  0
VERTEX
  8
0
 10
190.217478
 20
55.120914
 42
-0.014315
  0
VERTEX
  8
0
 10
186.669104
 20
57.377077
 42
-0.035161
  0
VERTEX
  8
0
 10
184.239048
 20
59.283664
 42
0.017872
  0
VERTEX
  8
0
 10
183.458606
 20
59.940786
 42
0.021805
  0
VERTEX
  8
0
 10
182.681931
 20
60.495826
 42
0.020976
  0
VERTEX
  8
0
 10
182.000573
 20
60.899573
 42
0.123874
  0
VERTEX
  8
0
 10
181.601435
 20
61.000000
 42
-0.123843
  0
VERTEX
  8
0
 10
181.134916
 20
61.117350
 42
-0.007316
  0
VERTEX
  8
0
 10
179.850117
 20
61.831795
 42
-0.010674
  0
VERTEX
  8
0
 10
178.335442
 20
62.746907
 42
-0.007643
  0
VERTEX
  8
0
 10
176.680175
 20
63.831644
 42
0.005049
  0
VERTEX
  8
0
 10
174.969788
 20
64.965233
 42
0.005526
  0
VERTEX
  8
0
 10
173.287301
 20
66.029818
 42
0.005189
  0
VERTEX
  8
0
 10
171.829359
 20
66.909150
 42
0.027358
  0
VERTEX
  8
0
 10
171.000000
 20
67.338438
 42
-0.020821
  0
VERTEX
  8
0
 10
170.177092
 20
67.750844
 42
-0.004297
  0
VERTEX
  8
0
 10
168.765625
 20
68.549282
 42
-0.004511
  0
VERTEX
  8
0
 10
167.141408
 20
69.506222
 42
-0.004235
  0
VERTEX
  8
0
 10
165.500000
 20
70.512377
 42
0.005146
  0
VERTEX
  8
0
 10
163.678626
 20
71.624288
 42
0.003112
  0
VERTEX
  8
0
 10
161.500000
 20
72.905390
 42
0.003117
  0
VERTEX
  8
0
 10
159.320480
 20
74.150740
 42
0.005470
  0
VERTEX
  8
0
 10
157.500000
 20
75.149868
 42
-0.010538
  0
VERTEX
  8
0
 10
155.749702
 20
76.133690
 42
-0.007113
  0
VERTEX
  8
0
 10
153.793750
 20
77.325849
 42
-0.007168
  0
VERTEX
  8
0
 10
151.934607
 20
78.533141
 42
-0.014138
  0
VERTEX
  8
0
 10
150.500000
 20
79.554180
 42
0.019465
  0
VERTEX
  8
0
 10
148.147822
 20
81.190810
 42
0.010215
  0
VERTEX
  8
0
 10
145.106312
 20
83.049477
 42
0.006780
  0
VERTEX
  8
0
 10
140.816116
 20
85.474932
 42
0.002022
  0
VERTEX
  8
0
 10
134.204247
 20
89.060836
 42
-0.008335
  0
VERTEX
  8
0
 10
132.841718
 20
89.822211
 42
-0.007776
  0
VERTEX
  8
0
 10
131.473126
 20
90.645923
 42
-0.007776
  0
VERTEX
  8
0
 10
130.280317
 20
91.415361
 42
-0.026075
  0
VERTEX
  8
0
 10
129.534894
 20
91.971040
 42
0.039517
  0
VERTEX
  8
0
 10
128.628509
 20
92.609576
 42
0.004270
  0
VERTEX
  8
0
 10
126.411412
 20
93.897310
 42
0.005221
  0
VERTEX
  8
0
 10
123.738249
 20
95.382808
 42
0.004186
  0
VERTEX
  8
0
 10
120.830648
 20
96.927723
 42
-0.000496
  0
VERTEX
  8
0
 10
117.449315
 20
98.692478
 42
-0.000272
  0
VERTEX
  8
0
 10
113.309533
 20
100.861173
 42
-0.000271
  0
VERTEX
  8
0
 10
109.108343
 20
103.067851
 42
-0.000432
  0
VERTEX
  8
0
 10
105.520953
 20
104.958573
 42
-0.036896
  0
VERTEX
  8
0
 10
89.890333
 20
114.751061
 42
-0.025875
  0
VERTEX
  8
0
 10
73.800325
 20
127.900581
 42
-0.025363
  0
VERTEX
  8
0
 10
58.736281
 20
143.031828
 42
-0.030069
  0
VERTEX
  8
0
 10
46.174305
 20
158.811890
 42
-0.046767
  0
VERTEX
  8
0
 10
44.128057
 20
162.396108
 42
-0.013472
  0
VERTEX
  8
0
 10
41.649738
 20
168.285075
 42
-0.011506
  0
VERTEX
  8
0
 10
39.494675
 20
174.218554
 42
-0.081524
  0
VERTEX
  8
0
 10
39.000000
 20
177.232310
 42
-0.138576
  0
VERTEX
  8
0
 10
39.551221
 20
179.182990
 42
-0.007049
  0
VERTEX
  8
0
 10
43.112791
 20
184.802485
 42
-0.008247
  0
VERTEX
  8
0
 10
48.419509
 20
192.634926
 42
-0.002525
  0
VERTEX
  8
0
 10
56.692540
 20
204.296370
 42
0.004344
  0
VERTEX
  8
0
 10
59.109752
 20
207.730018
 42
0.006578
  0
VERTEX
  8
0
 10
61.147184
 20
210.762823
 42
0.002887
  0
VERTEX
  8
0
 10
62.829666
 20
213.372666
 42
0.142667
  0
VERTEX
  8
0
 10
63.000000
 20
213.957476
 42
-0.163142
  0
VERTEX
  8
0
 10
63.157845
 20
214.428368
 42
-0.019022
  0
VERTEX
  8
0
 10
63.870031
 20
215.300279
 42
-0.021234
  0
VERTEX
  8
0
 10
64.827489
 20
216.296801
 42
-0.015856
  0
VERTEX
  8
0
 10
65.961807
 20
217.314409
 42
-0.028512
  0
VERTEX
  8
0
 10
67.672387
 20
218.594666
 42
-0.081929
  0
VERTEX
  8
0
 10
69.020964
 20
219.200137
 42
-0.086309
  0
VERTEX
  8
0
 10
70.451396
 20
219.323910
 42
-0.034000
  0
VERTEX
  8
0
 10
72.411743
 20
219.019905
 42
0.012459
  0
VERTEX
  8
0
 10
73.777184
 20
218.747509
 42
0.018179
  0
VERTEX
  8
0
 10
74.992575
 20
218.581639
 42
0.013861
  0
VERTEX
  8
0
 10
75.985073
 20
218.510494
 42
0.210331
  0
VERTEX
  8
0
 10
76.299331
 20
218.632665
 42
-0.353972
  0
VERTEX
  8
0
 10
76.643990
 20
218.668981
 42
-0.000854
  0
VERTEX
  8
0
 10
81.123726
 20
215.752253
 42
-0.004572
  0
VERTEX
  8
0
 10
86.204154
 20
212.365348
 42
-0.002765
  0
VERTEX
  8
0
 10
92.161857
 20
208.266063
 42
0.000296
  0
VERTEX
  8
0
 10
99.281930
 20
203.315003
 42
0.000164
  0
VERTEX
  8
0
 10
107.971513
 20
197.284406
 42
0.000164
  0
VERTEX
  8
0
 10
116.773340
 20
191.184457
 42
0.000265
  0
VERTEX
  8
0
 10
124.267872
 20
186.000000
 42
-0.005201
  0
VERTEX
  8
0
 10
130.691057
 20
181.462263
 42
-0.007743
  0
VERTEX
  8
0
 10
136.207032
 20
177.347339
 42
-0.003896
  0
VERTEX
  8
0
 10
140.776892
 20
173.769686
 42
-0.141761
  0
VERTEX
  8
0
 10
141.540868
 20
172.693070
 42
0.148057
  0
VERTEX
  8
0
 10
142.922674
 20
170.795809
 42
0.059229
  0
VERTEX
  8
0
 10
145.726019
 20
169.156972
 42
0.059771
  0
VERTEX
  8
0
 10
148.755114
 20
168.248764
 42
0.186983
  0
VERTEX
  8
0
 10
150.803873
 20
168.659375
 42
0.145071
  0
VERTEX
  8
0
 10
151.671708
 20
169.658543
 42
0.067248
  0
VERTEX
  8
0
 10
152.172492
 20
171.320048
 42
0.033836
  0
VERTEX
  8
0
 10
152.423651
 20
174.078389
 42
0.006444
  0
VERTEX
  8
0
 10
152.475425
 20
179.120278
 42
0.000000
  0
VERTEX
  8
0
 10
152.450850
 20
188.500000
 42
0.000000
  0
VERTEX
  8
0
 10
147.557190
 20
196.000000
 42
0.015045
  0
VERTEX
  8
0
 10
145.277765
 20
199.273822
 42
0.009805
  0
VERTEX
  8
0
 10
142.461400
 20
202.918393
 42
0.009862
  0
VERTEX
  8
0
 10
139.571819
 20
206.368306
 42
0.018500
  0
VERTEX
  8
0
 10
137.081765
 20
209.020062
 42
-0.010486
  0
VERTEX
  8
0
 10
134.617699
 20
211.561286
 42
-0.006441
  0
VERTEX
  8
0
 10
131.817769
 20
214.651652
 42
-0.006456
  0
VERTEX
  8
0
 10
129.125223
 20
217.782105
 42
-0.011454
  0
VERTEX
  8
0
 10
127.000000
 20
220.439857
 42
0.062514
  0
VERTEX
  8
0
 10
118.656871
 20
228.933234
 42
0.033304
  0
VERTEX
  8
0
 10
106.504579
 20
237.298415
 42
0.033218
  0
VERTEX
  8
0
 10
93.227642
 20
244.040606
 42
0.057622
  0
VERTEX
  8
0
 10
81.384718
 20
247.553422
 42
0.006374
  0
VERTEX
  8
0
 10
73.175473
 20
248.882325
 42
0.026804
  0
VERTEX
  8
0
 10
68.205390
 20
249.351610
 42
0.035388
  0
VERTEX
  8
0
 10
63.909348
 20
249.221834
 42
0.017507
  0
SEQEND
  0
ENDSEC
  0
EOF
