  0
SECTION
  2
HEADER
  9
$ACADVER
  1
AC1006
  9
$EXTMIN
 10
0.000000
 20
0.000000
 30
0.000000
  9
$EXTMAX
 10
455.000000
 20
203.000000
 30
0.000000
  0
ENDSEC
  0
SECTION
  2
ENTITIES
  0
POLYLINE
  8
0
 66
1
 70
1
  0
VERTEX
  8
0
 10
257.285640
 20
199.446756
 42
0.007055
  0
VERTEX
  8
0
 10
254.861942
 20
198.027412
 42
0.009633
  0
VERTEX
  8
0
 10
252.722068
 20
196.676418
 42
0.006851
  0
VERTEX
  8
0
 10
250.979530
 20
195.494194
 42
0.102205
  0
VERTEX
  8
0
 10
250.476623
 20
194.962176
 42
-0.161031
  0
VERTEX
  8
0
 10
250.032862
 20
194.589990
 42
-0.035055
  0
VERTEX
  8
0
 10
249.068396
 20
194.282639
 42
-0.033125
  0
VERTEX
  8
0
 10
247.849291
 20
194.070619
 42
-0.026498
  0
VERTEX
  8
0
 10
246.517708
 20
194.000000
 42
0.092906
  0
VERTEX
  8
0
 10
243.695435
 20
193.471024
 42
0.060326
  0
VERTEX
  8
0
 10
240.760225
 20
191.901403
 42
0.056868
  0
VERTEX
  8
0
 10
238.105002
 20
189.548127
 42
0.060223
  0
VERTEX
  8
0
 10
236.106550
 20
186.699091
 42
-0.064385
  0
VERTEX
  8
0
 10
235.377882
 20
185.678393
 42
-0.047497
  0
VERTEX
  8
0
 10
234.339661
 20
184.754317
 42
-0.047259
  0
VERTEX
  8
0
 10
233.138677
 20
184.037797
 42
-0.061598
  0
VERTEX
  8
0
 10
231.924922
 20
183.634984
 42
0.098863
  0
VERTEX
  8
0
 10
229.103037
 20
182.460226
 42
0.027433
  0
VERTEX
  8
0
 10
225.256834
 20
179.558005
 42
0.023320
  0
VERTEX
  8
0
 10
221.790282
 20
176.342146
 42
0.196540
  0
VERTEX
  8
0
 10
221.000000
 20
174.409318
 42
-0.165341
  0
VERTEX
  8
0
 10
220.784865
 20
173.776523
 42
-0.042335
  0
VERTEX
  8
0
 10
220.045312
 20
172.966669
 42
-0.038448
  0
VERTEX
  8
0
 10
218.994060
 20
172.135071
 42
-0.030893
  0
VERTEX
  8
0
 10
217.750000
 20
171.405091
 42
0.023434
  0
VERTEX
  8
0
 10
214.779988
 20
169.721380
 42
0.049189
  0
VERTEX
  8
0
 10
212.687242
 20
168.094214
 42
0.067467
  0
VERTEX
  8
0
 10
211.422487
 20
166.520190
 42
0.136374
  0
VERTEX
  8
0
 10
211.000000
 20
165.000000
 42
-0.142413
  0
VERTEX
  8
0
 10
210.488196
 20
163.239540
 42
-0.082988
  0
VERTEX
  8
0
 10
209.008025
 20
161.590363
 42
-0.077097
  0
VERTEX
  8
0
 10
206.942480
 20
160.408077
 42
-0.091750
  0
VERTEX
  8
0
 10
204.737356
 20
160.000000
 42
0.085144
  0
VERTEX
  8
0
 10
203.342818
 20
159.760792
 42
0.080762
  0
VERTEX
  8
0
 10
202.079177
 20
159.068933
 42
0.057999
  0
VERTEX
  8
0
 10
200.790532
 20
157.799283
 42
0.021679
  0
VERTEX
  8
0
 10
199.285029
 20
155.750000
 42
-0.021186
  0
VERTEX
  8
0
 10
197.535312
 20
153.363364
 42
-0.083501
  0
VERTEX
  8
0
 10
196.180958
 20
152.153283
 42
-0.093023
  0
VERTEX
  8
0
 10
194.582257
 20
151.520167
 42
-0.029947
  0
VERTEX
  8
0
 10
192.043659
 20
151.183938
 42
0.025570
  0
VERTEX
  8
0
 10
190.211134
 20
150.957520
 42
0.022808
  0
VERTEX
  8
0
 10
188.338877
 20
150.539500
 42
0.023463
  0
VERTEX
  8
0
 10
186.690317
 20
150.007431
 42
0.063059
  0
VERTEX
  8
0
 10
185.602221
 20
149.433938
 42
-0.039403
  0
VERTEX
  8
0
 10
184.669929
 20
148.884874
 42
-0.028796
  0
VERTEX
  8
0
 10
183.560786
 20
148.421280
 42
-0.029329
  0
VERTEX
  8
0
 10
182.451666
 20
148.102720
 42
-0.055344
  0
VERTEX
  8
0
 10
181.527494
 20
148.000206
 42
0.050493
  0
VERTEX
  8
0
 10
180.385911
 20
147.884744
 42
0.009465
  0
VERTEX
  8
0
 10
178.333076
 20
147.424334
 42
0.010042
  0
VERTEX
  8
0
 10
175.945785
 20
146.790180
 42
0.009038
  0
VERTEX
  8
0
 10
173.500000
 20
146.039502
 42
-0.032719
  0
VERTEX
  8
0
 10
169.858289
 20
145.107835
 42
-0.010692
  0
VERTEX
  8
0
 10
164.386072
 20
144.204153
 42
-0.009351
  0
VERTEX
  8
0
 10
157.562302
 20
143.356565
 42
-0.005750
  0
VERTEX
  8
0
 10
149.500000
 20
142.601549
 42
0.005271
  0
VERTEX
  8
0
 10
141.020049
 20
141.815616
 42
0.011121
  0
VERTEX
  8
0
 10
134.464576
 20
140.990545
 42
0.014044
  0
VERTEX
  8
0
 10
129.428218
 20
140.097322
 42
0.035574
  0
VERTEX
  8
0
 10
125.851990
 20
139.089318
 42
-0.025074
  0
VERTEX
  8
0
 10
122.736674
 20
138.140241
 42
-0.006083
  0
VERTEX
  8
0
 10
117.500312
 20
136.895323
 42
-0.006224
  0
VERTEX
  8
0
 10
111.452290
 20
135.613842
 42
-0.006156
  0
VERTEX
  8
0
 10
105.351990
 20
134.478319
 42
0.006702
  0
VERTEX
  8
0
 10
78.438307
 20
129.438135
 42
0.015844
  0
VERTEX
  8
0
 10
58.576251
 20
124.783000
 42
0.020552
  0
VERTEX
  8
0
 10
42.655998
 20
119.805885
 42
0.025617
  0
VERTEX
  8
0
 10
28.356171
 20
113.838709
 42
0.025399
  0
VERTEX
  8
0
 10
20.392063
 20
109.515433
 42
0.040684
  0
VERTEX
  8
0
 10
14.142837
 20
104.964345
 42
0.042614
  0
VERTEX
  8
0
 10
8.916139
 20
99.626226
 42
0.031527
  0
VERTEX
  8
0
 10
4.068242
 20
92.930094
 42
0.000000
  0
VERTEX
  8
0
 10
0.636484
 20
87.500000
 42
0.000000
  0
VERTEX
  8
0
 10
0.568242
 20
74.500000
 42
0.005004
  0
VERTEX
  8
0
 10
0.605983
 20
66.567378
 42
0.031799
  0
VERTEX
  8
0
 10
0.921279
 20
62.550962
 42
0.050073
  0
VERTEX
  8
0
 10
1.694393
 20
59.418615
 42
0.023993
  0
VERTEX
  8
0
 10
3.271054
 20
55.583170
 42
0.075733
  0
VERTEX
  8
0
 10
10.973216
 20
44.059188
 42
0.056943
  0
VERTEX
  8
0
 10
22.485775
 20
34.029279
 42
0.045220
  0
VERTEX
  8
0
 10
38.509367
 20
25.012825
 42
0.023094
  0
VERTEX
  8
0
 10
60.000000
 20
16.529192
 42
0.022086
  0
VERTEX
  8
0
 10
87.841743
 20
8.353010
 42
0.022926
  0
VERTEX
  8
0
 10
115.953107
 20
2.782372
 42
0.024460
  0
VERTEX
  8
0
 10
141.982515
 20
0.147709
 42
0.044323
  0
VERTEX
  8
0
 10
163.357537
 20
0.930892
 42
0.018684
  0
VERTEX
  8
0
 10
172.512484
 20
2.432514
 42
0.018389
  0
VERTEX
  8
0
 10
181.578993
 20
4.619680
 42
0.013716
  0
VERTEX
  8
0
 10
192.505011
 20
8.010481
 42
0.004875
  0
VERTEX
  8
0
 10
207.934793
 20
13.435550
 42
-0.016876
  0
VERTEX
  8
0
 10
230.324307
 20
20.708803
 42
-0.023579
  0
VERTEX
  8
0
 10
250.799777
 20
25.572133
 42
-0.025553
  0
VERTEX
  8
0
 10
270.241072
 20
28.211875
 42
-0.026976
  0
VERTEX
  8
0
 10
289.500000
 20
28.788283
 42
0.000000
  0
VERTEX
  8
0
 10
301.500000
 20
28.500000
 42
0.000000
  0
VERTEX
  8
0
 10
301.763718
 20
24.000000
 42
0.031975
  0
VERTEX
  8
0
 10
302.502737
 20
17.995709
 42
0.182215
  0
VERTEX
  8
0
 10
304.145977
 20
15.296593
 42
0.118042
  0
VERTEX
  8
0
 10
307.552870
 20
13.740488
 42
0.010277
  0
VERTEX
  8
0
 10
317.000000
 20
12.090555
 42
0.015548
  0
VERTEX
  8
0
 10
341.626879
 20
9.089600
 42
0.015883
  0
VERTEX
  8
0
 10
366.218272
 20
7.651761
 42
0.016380
  0
VERTEX
  8
0
 10
387.828225
 20
7.783943
 42
0.050556
  0
VERTEX
  8
0
 10
402.274776
 20
9.818307
 42
0.012505
  0
VERTEX
  8
0
 10
408.779684
 20
11.590169
 42
0.032170
  0
VERTEX
  8
0
 10
413.346155
 20
13.284352
 42
0.035009
  0
VERTEX
  8
0
 10
417.431421
 20
15.461125
 42
0.017365
  0
VERTEX
  8
0
 10
422.298925
 20
18.750475
 42
0.054129
  0
VERTEX
  8
0
 10
426.259186
 20
22.345990
 42
0.043185
  0
VERTEX
  8
0
 10
429.702050
 20
26.978168
 42
0.042121
  0
VERTEX
  8
0
 10
432.379880
 20
32.267397
 42
0.044918
  0
VERTEX
  8
0
 10
434.065031
 20
37.819258
 42
-0.018835
  0
VERTEX
  8
0
 10
434.692501
 20
40.354960
 42
-0.008373
  0
VERTEX
  8
0
 10
435.700541
 20
43.648741
 42
-0.008274
  0
VERTEX
  8
0
 10
436.885185
 20
47.104084
 42
-0.011072
  0
VERTEX
  8
0
 10
438.080291
 20
50.194708
 42
0.012570
  0
VERTEX
  8
0
 10
440.818721
 20
57.340004
 42
0.015017
  0
VERTEX
  8
0
 10
443.024001
 20
64.205256
 42
0.010868
  0
VERTEX
  8
0
 10
444.588176
 20
70.107828
 42
0.152086
  0
VERTEX
  8
0
 10
444.448118
 20
72.274607
 42
-0.142705
  0
VERTEX
  8
0
 10
444.288415
 20
74.196383
 42
-0.013648
  0
VERTEX
  8
0
 10
445.361878
 20
78.825221
 42
-0.012351
  0
VERTEX
  8
0
 10
447.276477
 20
85.486590
 42
-0.003737
  0
VERTEX
  8
0
 10
450.506687
 20
95.500000
 42
0.026664
  0
VERTEX
  8
0
 10
453.038122
 20
104.783542
 42
0.029461
  0
VERTEX
  8
0
 10
454.465619
 20
113.980299
 42
0.031997
  0
VERTEX
  8
0
 10
454.723118
 20
122.254078
 42
0.065327
  0
VERTEX
  8
0
 10
453.668570
 20
128.653165
 42
0.023045
  0
VERTEX
  8
0
 10
450.464502
 20
137.714423
 42
0.024850
  0
VERTEX
  8
0
 10
446.509528
 20
146.211026
 42
0.025900
  0
VERTEX
  8
0
 10
442.379188
 20
153.146578
 42
0.086997
  0
VERTEX
  8
0
 10
438.741999
 20
156.954476
 42
-0.025181
  0
VERTEX
  8
0
 10
437.094217
 20
158.300975
 42
-0.014454
  0
VERTEX
  8
0
 10
435.241750
 20
160.077139
 42
-0.014415
  0
VERTEX
  8
0
 10
433.478832
 20
161.974484
 42
-0.023241
  0
VERTEX
  8
0
 10
432.103453
 20
163.698491
 42
0.100522
  0
VERTEX
  8
0
 10
426.985726
 20
168.404510
 42
0.077085
  0
VERTEX
  8
0
 10
419.939984
 20
171.294748
 42
0.030766
  0
VERTEX
  8
0
 10
407.588686
 20
173.464551
 42
0.003257
  0
VERTEX
  8
0
 10
378.500000
 20
176.555824
 42
-0.002326
  0
VERTEX
  8
0
 10
367.999992
 20
177.651900
 42
-0.002644
  0
VERTEX
  8
0
 10
357.951181
 20
178.801961
 42
-0.002400
  0
VERTEX
  8
0
 10
349.427214
 20
179.864740
 42
-0.014754
  0
VERTEX
  8
0
 10
345.057213
 20
180.562564
 42
-0.021145
  0
VERTEX
  8
0
 10
337.452181
 20
182.344346
 42
-0.005143
  0
VERTEX
  8
0
 10
325.068427
 20
185.941696
 42
-0.005507
  0
VERTEX
  8
0
 10
311.715454
 20
190.130978
 42
-0.007927
  0
VERTEX
  8
0
 10
300.000000
 20
194.155282
 42
0.006758
  0
VERTEX
  8
0
 10
280.908248
 20
200.763283
 42
0.049150
  0
VERTEX
  8
0
 10
271.456978
 20
202.891405
 42
0.095792
  0
VERTEX
  8
0
 10
264.590108
 20
202.425469
 42
0.064317
  0
SEQEND
  0
ENDSEC
  0
EOF
