  0
SECTION
  2
HEADER
  9
$ACADVER
  1
AC1006
  9
$EXTMIN
 10
0.000000
 20
0.000000
 30
0.000000
  9
$EXTMAX
 10
440.000000
 20
245.000000
 30
0.000000
  0
ENDSEC
  0
SECTION
  2
ENTITIES
  0
POLYLINE
  8
0
 66
1
 70
1
  0
VERTEX
  8
0
 10
193.352547
 20
243.598921
 42
0.051613
  0
VERTEX
  8
0
 10
188.631302
 20
241.530755
 42
0.040107
  0
VERTEX
  8
0
 10
183.988401
 20
238.380329
 42
0.038387
  0
VERTEX
  8
0
 10
179.701018
 20
234.361408
 42
0.037428
  0
VERTEX
  8
0
 10
176.038650
 20
229.701953
 42
0.014667
  0
VERTEX
  8
0
 10
173.600738
 20
225.830630
 42
0.065052
  0
VERTEX
  8
0
 10
172.548513
 20
223.360814
 42
0.058072
  0
VERTEX
  8
0
 10
172.108308
 20
220.576657
 42
0.010200
  0
VERTEX
  8
0
 10
172.000000
 20
215.268049
 42
-0.006852
  0
VERTEX
  8
0
 10
171.929484
 20
210.122477
 42
-0.054661
  0
VERTEX
  8
0
 10
171.606511
 20
207.773166
 42
-0.104420
  0
VERTEX
  8
0
 10
170.845929
 20
206.214266
 42
-0.055848
  0
VERTEX
  8
0
 10
169.341960
 20
204.674332
 42
0.013838
  0
VERTEX
  8
0
 10
164.971620
 20
200.892694
 42
0.035145
  0
VERTEX
  8
0
 10
162.083492
 20
197.851281
 42
0.047553
  0
VERTEX
  8
0
 10
160.208051
 20
195.075888
 42
0.059116
  0
VERTEX
  8
0
 10
159.050239
 20
192.186572
 42
-0.031280
  0
VERTEX
  8
0
 10
158.336059
 20
190.071019
 42
-0.065590
  0
VERTEX
  8
0
 10
157.476329
 20
188.566346
 42
-0.072847
  0
VERTEX
  8
0
 10
156.321334
 20
187.434527
 42
-0.047288
  0
VERTEX
  8
0
 10
154.710641
 20
186.479246
 42
0.005639
  0
VERTEX
  8
0
 10
153.299041
 20
185.793717
 42
0.003842
  0
VERTEX
  8
0
 10
151.708751
 20
184.983790
 42
0.003872
  0
VERTEX
  8
0
 10
150.186457
 20
184.178680
 42
0.007778
  0
VERTEX
  8
0
 10
149.000000
 20
183.515365
 42
-0.017285
  0
VERTEX
  8
0
 10
147.623688
 20
182.779891
 42
-0.004316
  0
VERTEX
  8
0
 10
145.325000
 20
181.676369
 42
-0.004405
  0
VERTEX
  8
0
 10
142.671874
 20
180.459167
 42
-0.004416
  0
VERTEX
  8
0
 10
140.000000
 20
179.289970
 42
0.020716
  0
VERTEX
  8
0
 10
137.138460
 20
177.925005
 42
0.012969
  0
VERTEX
  8
0
 10
133.903920
 20
176.105348
 42
0.013013
  0
VERTEX
  8
0
 10
130.806005
 20
174.144058
 42
0.023050
  0
VERTEX
  8
0
 10
128.375045
 20
172.347220
 42
-0.026342
  0
VERTEX
  8
0
 10
122.531650
 20
168.087264
 42
-0.080778
  0
VERTEX
  8
0
 10
118.064076
 20
166.113241
 42
-0.049632
  0
VERTEX
  8
0
 10
112.134518
 20
165.182647
 42
-0.005580
  0
VERTEX
  8
0
 10
98.500000
 20
164.564178
 42
0.002455
  0
VERTEX
  8
0
 10
90.238285
 20
164.241144
 42
0.001823
  0
VERTEX
  8
0
 10
81.115625
 20
163.806245
 42
0.001842
  0
VERTEX
  8
0
 10
72.510144
 20
163.332750
 42
0.004165
  0
VERTEX
  8
0
 10
66.000000
 20
162.896030
 42
-0.004099
  0
VERTEX
  8
0
 10
59.671662
 20
162.470665
 42
-0.002084
  0
VERTEX
  8
0
 10
51.706880
 20
162.034166
 42
-0.002070
  0
VERTEX
  8
0
 10
43.486167
 20
161.652106
 42
-0.003095
  0
VERTEX
  8
0
 10
36.300017
 20
161.392483
 42
0.000000
  0
VERTEX
  8
0
 10
20.100035
 20
160.907596
 42
0.000000
  0
VERTEX
  8
0
 10
17.550017
 20
157.877073
 42
0.026241
  0
VERTEX
  8
0
 10
16.574048
 20
156.585319
 42
0.027024
  0
VERTEX
  8
0
 10
15.749068
 20
155.210701
 42
0.028024
  0
VERTEX
  8
0
 10
15.168877
 20
153.947175
 42
0.093882
  0
VERTEX
  8
0
 10
15.000000
 20
153.055692
 42
-0.134402
  0
VERTEX
  8
0
 10
14.440171
 20
151.010653
 42
-0.007006
  0
VERTEX
  8
0
 10
10.855510
 20
145.143136
 42
-0.011354
  0
VERTEX
  8
0
 10
7.113010
 20
139.494415
 42
-0.044417
  0
VERTEX
  8
0
 10
4.430156
 20
136.287299
 42
0.096015
  0
VERTEX
  8
0
 10
2.526441
 20
133.468233
 42
0.057392
  0
VERTEX
  8
0
 10
1.374303
 20
129.576904
 42
0.030368
  0
VERTEX
  8
0
 10
0.682578
 20
123.453133
 42
0.005880
  0
VERTEX
  8
0
 10
0.236922
 20
112.319072
 42
0.005180
  0
VERTEX
  8
0
 10
0.004755
 20
99.340618
 42
0.034278
  0
VERTEX
  8
0
 10
0.399880
 20
92.871424
 42
0.070062
  0
VERTEX
  8
0
 10
1.545437
 20
88.722999
 42
0.078987
  0
VERTEX
  8
0
 10
3.764590
 20
85.237614
 42
-0.003274
  0
VERTEX
  8
0
 10
5.084425
 20
83.726912
 42
-0.001389
  0
VERTEX
  8
0
 10
6.835113
 20
81.684926
 42
-0.001374
  0
VERTEX
  8
0
 10
8.691990
 20
79.494711
 42
-0.001798
  0
VERTEX
  8
0
 10
10.376221
 20
77.482390
 42
0.028107
  0
VERTEX
  8
0
 10
13.664648
 20
73.948797
 42
0.041103
  0
VERTEX
  8
0
 10
16.959581
 20
71.268137
 42
0.048648
  0
VERTEX
  8
0
 10
20.060107
 20
69.559869
 42
0.101521
  0
VERTEX
  8
0
 10
22.748163
 20
69.003738
 42
-0.110708
  0
VERTEX
  8
0
 10
23.927962
 20
68.737210
 42
-0.069273
  0
VERTEX
  8
0
 10
25.116508
 20
67.956773
 42
-0.050276
  0
VERTEX
  8
0
 10
26.368000
 20
66.616026
 42
-0.022287
  0
VERTEX
  8
0
 10
27.748163
 20
64.624159
 42
0.038890
  0
VERTEX
  8
0
 10
30.741584
 20
60.596278
 42
0.041764
  0
VERTEX
  8
0
 10
34.257714
 20
57.183679
 42
0.019288
  0
VERTEX
  8
0
 10
40.091575
 20
52.763397
 42
0.002215
  0
VERTEX
  8
0
 10
53.635427
 20
43.389672
 42
0.037878
  0
VERTEX
  8
0
 10
57.444851
 20
41.181880
 42
0.029288
  0
VERTEX
  8
0
 10
61.882307
 20
39.352774
 42
0.018720
  0
VERTEX
  8
0
 10
68.109504
 20
37.460654
 42
0.004941
  0
VERTEX
  8
0
 10
78.200753
 20
34.909006
 42
0.030292
  0
VERTEX
  8
0
 10
79.921173
 20
34.600883
 42
0.033139
  0
VERTEX
  8
0
 10
81.615066
 20
34.515441
 42
0.035456
  0
VERTEX
  8
0
 10
83.183119
 20
34.651793
 42
0.051471
  0
VERTEX
  8
0
 10
84.524419
 20
35.009284
 42
-0.051267
  0
VERTEX
  8
0
 10
86.047723
 20
35.415946
 42
-0.123852
  0
VERTEX
  8
0
 10
87.200718
 20
35.314200
 42
-0.092272
  0
VERTEX
  8
0
 10
88.373429
 20
34.645100
 42
-0.020724
  0
VERTEX
  8
0
 10
90.072727
 20
33.081119
 42
0.056283
  0
VERTEX
  8
0
 10
92.949752
 20
30.787930
 42
0.057419
  0
VERTEX
  8
0
 10
96.247029
 20
29.212240
 42
0.035864
  0
VERTEX
  8
0
 10
100.974954
 20
27.957632
 42
0.008548
  0
VERTEX
  8
0
 10
109.000000
 20
26.575207
 42
-0.001904
  0
VERTEX
  8
0
 10
113.265410
 20
25.898663
 42
-0.001194
  0
VERTEX
  8
0
 10
118.249414
 20
25.076449
 42
-0.001199
  0
VERTEX
  8
0
 10
123.152221
 20
24.243507
 42
-0.002191
  0
VERTEX
  8
0
 10
127.146941
 20
23.536947
 42
0.012572
  0
VERTEX
  8
0
 10
132.818185
 20
22.654854
 42
0.048219
  0
VERTEX
  8
0
 10
136.384478
 20
22.537851
 42
0.034544
  0
VERTEX
  8
0
 10
140.434211
 20
23.078125
 42
0.004272
  0
VERTEX
  8
0
 10
149.146941
 20
24.937290
 42
0.012655
  0
VERTEX
  8
0
 10
160.158698
 20
27.679782
 42
0.019809
  0
VERTEX
  8
0
 10
169.458170
 20
30.648472
 42
0.022439
  0
VERTEX
  8
0
 10
177.545602
 20
34.005877
 42
0.026294
  0
VERTEX
  8
0
 10
184.869416
 20
37.921100
 42
-0.015654
  0
VERTEX
  8
0
 10
187.950512
 20
39.653464
 42
-0.024079
  0
VERTEX
  8
0
 10
190.727089
 20
40.936116
 42
-0.028069
  0
VERTEX
  8
0
 10
193.110181
 20
41.748337
 42
-0.068195
  0
VERTEX
  8
0
 10
194.946776
 20
42.000000
 42
0.019533
  0
VERTEX
  8
0
 10
196.771803
 20
42.071326
 42
0.004467
  0
VERTEX
  8
0
 10
199.849209
 20
42.339916
 42
0.004613
  0
VERTEX
  8
0
 10
203.393168
 20
42.714186
 42
0.004480
  0
VERTEX
  8
0
 10
206.964583
 20
43.157162
 42
-0.005784
  0
VERTEX
  8
0
 10
212.423496
 20
43.819798
 42
-0.050301
  0
VERTEX
  8
0
 10
214.865349
 20
43.841068
 42
-0.093531
  0
VERTEX
  8
0
 10
216.631881
 20
43.336292
 42
-0.042974
  0
VERTEX
  8
0
 10
218.679843
 20
42.078581
 42
0.090485
  0
VERTEX
  8
0
 10
222.432177
 20
40.237404
 42
0.030119
  0
VERTEX
  8
0
 10
228.436216
 20
38.923364
 42
0.020715
  0
VERTEX
  8
0
 10
237.139055
 20
37.928531
 42
0.006710
  0
VERTEX
  8
0
 10
250.079090
 20
37.164550
 42
-0.009058
  0
VERTEX
  8
0
 10
260.805081
 20
36.480748
 42
-0.080982
  0
VERTEX
  8
0
 10
265.372384
 20
35.346619
 42
-0.074176
  0
VERTEX
  8
0
 10
269.491135
 20
32.803884
 42
-0.006964
  0
VERTEX
  8
0
 10
278.500000
 20
24.980401
 42
0.013833
  0
VERTEX
  8
0
 10
284.309347
 20
20.073783
 42
0.019794
  0
VERTEX
  8
0
 10
289.741931
 20
16.078525
 42
0.018886
  0
VERTEX
  8
0
 10
295.664965
 20
12.391781
 42
0.011106
  0
VERTEX
  8
0
 10
303.000000
 20
8.415249
 42
0.014893
  0
VERTEX
  8
0
 10
307.687019
 20
6.181222
 42
0.045114
  0
VERTEX
  8
0
 10
311.033056
 20
5.054388
 42
0.037569
  0
VERTEX
  8
0
 10
314.841189
 20
4.441522
 42
0.007985
  0
VERTEX
  8
0
 10
321.544690
 20
3.981654
 42
-0.007623
  0
VERTEX
  8
0
 10
326.896527
 20
3.618406
 42
-0.021181
  0
VERTEX
  8
0
 10
330.635835
 20
3.147130
 42
-0.029794
  0
VERTEX
  8
0
 10
333.287419
 20
2.533829
 42
-0.081214
  0
VERTEX
  8
0
 10
335.017196
 20
1.700509
 42
0.100997
  0
VERTEX
  8
0
 10
337.119367
 20
0.787587
 42
0.032709
  0
VERTEX
  8
0
 10
340.492709
 20
0.301906
 42
0.016658
  0
VERTEX
  8
0
 10
346.062629
 20
0.055084
 42
0.002658
  0
VERTEX
  8
0
 10
356.972506
 20
-0.006608
 42
0.006576
  0
VERTEX
  8
0
 10
369.514925
 20
0.154105
 42
0.012327
  0
VERTEX
  8
0
 10
379.644164
 20
0.667250
 42
0.014449
  0
VERTEX
  8
0
 10
388.539969
 20
1.597240
 42
0.015115
  0
VERTEX
  8
0
 10
397.233436
 20
3.029529
 42
0.117990
  0
VERTEX
  8
0
 10
406.260215
 20
7.152036
 42
0.035105
  0
VERTEX
  8
0
 10
417.599563
 20
17.371177
 42
0.035307
  0
VERTEX
  8
0
 10
428.269592
 20
30.128227
 42
0.050618
  0
VERTEX
  8
0
 10
435.650133
 20
42.875950
 42
0.008830
  0
VERTEX
  8
0
 10
438.106478
 20
48.589861
 42
0.035720
  0
VERTEX
  8
0
 10
439.287500
 20
52.190618
 42
0.043514
  0
VERTEX
  8
0
 10
439.827214
 20
55.566013
 42
0.017740
  0
VERTEX
  8
0
 10
439.995159
 20
60.215618
 42
0.015717
  0
VERTEX
  8
0
 10
439.879695
 20
63.962761
 42
0.006651
  0
VERTEX
  8
0
 10
439.500020
 20
68.979560
 42
0.006573
  0
VERTEX
  8
0
 10
438.952420
 20
74.330465
 42
0.008540
  0
VERTEX
  8
0
 10
438.302783
 20
79.215618
 42
-0.006489
  0
VERTEX
  8
0
 10
437.074392
 20
88.171716
 42
-0.027597
  0
VERTEX
  8
0
 10
436.706481
 20
93.562027
 42
-0.041910
  0
VERTEX
  8
0
 10
437.004865
 20
97.769340
 42
-0.033182
  0
VERTEX
  8
0
 10
438.004421
 20
102.220184
 42
0.058790
  0
VERTEX
  8
0
 10
438.669632
 20
106.099973
 42
0.098466
  0
VERTEX
  8
0
 10
438.196609
 20
109.363466
 42
0.064021
  0
VERTEX
  8
0
 10
436.311743
 20
113.091526
 42
0.013657
  0
VERTEX
  8
0
 10
432.064225
 20
119.000000
 42
-0.011487
  0
VERTEX
  8
0
 10
429.664569
 20
122.307638
 42
-0.062975
  0
VERTEX
  8
0
 10
428.649728
 20
124.262343
 42
-0.091674
  0
VERTEX
  8
0
 10
428.340360
 20
126.061885
 42
-0.039292
  0
VERTEX
  8
0
 10
428.563163
 20
128.500000
 42
0.000042
  0
VERTEX
  8
0
 10
428.880799
 20
130.354959
 42
0.000022
  0
VERTEX
  8
0
 10
429.272956
 20
132.646875
 42
0.000022
  0
VERTEX
  8
0
 10
429.673015
 20
134.986224
 42
0.000035
  0
VERTEX
  8
0
 10
430.017162
 20
137.000000
 42
0.043976
  0
VERTEX
  8
0
 10
430.245738
 20
139.805412
 42
0.032389
  0
VERTEX
  8
0
 10
430.023348
 20
142.916856
 42
0.022145
  0
VERTEX
  8
0
 10
429.286270
 20
146.958403
 42
0.007050
  0
VERTEX
  8
0
 10
427.839012
 20
152.903939
 42
0.009912
  0
VERTEX
  8
0
 10
425.354962
 20
161.786151
 42
0.039864
  0
VERTEX
  8
0
 10
423.306953
 20
167.032022
 42
0.036657
  0
VERTEX
  8
0
 10
420.374995
 20
172.091908
 42
0.007499
  0
VERTEX
  8
0
 10
414.419854
 20
180.550073
 42
0.021015
  0
VERTEX
  8
0
 10
405.399730
 20
191.924394
 42
0.054244
  0
VERTEX
  8
0
 10
397.741799
 20
199.057320
 42
0.088604
  0
VERTEX
  8
0
 10
391.388883
 20
202.242860
 42
0.220494
  0
VERTEX
  8
0
 10
386.366236
 20
201.504311
 42
0.039470
  0
VERTEX
  8
0
 10
385.266630
 20
200.652771
 42
0.022481
  0
VERTEX
  8
0
 10
384.073903
 20
199.466249
 42
0.022339
  0
VERTEX
  8
0
 10
382.973731
 20
198.155778
 42
0.034169
  0
VERTEX
  8
0
 10
382.154254
 20
196.919601
 42
-0.131640
  0
VERTEX
  8
0
 10
379.258861
 20
193.986117
 42
-0.081438
  0
VERTEX
  8
0
 10
374.711127
 20
192.234554
 42
-0.052707
  0
VERTEX
  8
0
 10
368.032477
 20
191.565767
 42
-0.018524
  0
VERTEX
  8
0
 10
358.393405
 20
191.976203
 42
-0.006102
  0
VERTEX
  8
0
 10
353.555827
 20
192.421549
 42
-0.006598
  0
VERTEX
  8
0
 10
348.855248
 20
192.974989
 42
-0.006256
  0
VERTEX
  8
0
 10
344.839335
 20
193.552826
 42
-0.031441
  0
VERTEX
  8
0
 10
342.624461
 20
194.044116
 42
-0.023887
  0
VERTEX
  8
0
 10
333.590417
 20
197.127462
 42
-0.015444
  0
VERTEX
  8
0
 10
323.443256
 20
201.508292
 42
-0.015011
  0
VERTEX
  8
0
 10
313.157128
 20
206.713411
 42
-0.017238
  0
VERTEX
  8
0
 10
303.676034
 20
212.306240
 42
0.002949
  0
VERTEX
  8
0
 10
291.630750
 20
219.883720
 42
0.017350
  0
VERTEX
  8
0
 10
285.156315
 20
223.598779
 42
0.031037
  0
VERTEX
  8
0
 10
280.258999
 20
225.810407
 42
0.028116
  0
VERTEX
  8
0
 10
274.962692
 20
227.483124
 42
-0.007045
  0
VERTEX
  8
0
 10
272.069057
 20
228.264637
 42
-0.004407
  0
VERTEX
  8
0
 10
268.703185
 20
229.256934
 42
-0.004422
  0
VERTEX
  8
0
 10
265.404033
 20
230.293220
 42
-0.008032
  0
VERTEX
  8
0
 10
262.729000
 20
231.207264
 42
0.020433
  0
VERTEX
  8
0
 10
259.482676
 20
232.227358
 42
0.037294
  0
VERTEX
  8
0
 10
256.756432
 20
232.748976
 42
0.035359
  0
VERTEX
  8
0
 10
253.887186
 20
232.874747
 42
0.016449
  0
VERTEX
  8
0
 10
250.165688
 20
232.652017
 42
0.039239
  0
VERTEX
  8
0
 10
241.952652
 20
231.232798
 42
0.033653
  0
VERTEX
  8
0
 10
233.614547
 20
228.498951
 42
0.035062
  0
VERTEX
  8
0
 10
226.362609
 20
224.958165
 42
0.077889
  0
VERTEX
  8
0
 10
221.593795
 20
221.103643
 42
-0.072801
  0
VERTEX
  8
0
 10
220.048746
 20
219.828750
 42
-0.080344
  0
VERTEX
  8
0
 10
218.252881
 20
219.102702
 42
-0.101138
  0
VERTEX
  8
0
 10
216.657370
 20
219.067176
 42
-0.212592
  0
VERTEX
  8
0
 10
215.653724
 20
219.751269
 42
-0.151221
  0
VERTEX
  8
0
 10
215.516804
 20
220.279972
 42
-0.011410
  0
VERTEX
  8
0
 10
215.620974
 20
221.774681
 42
-0.014926
  0
VERTEX
  8
0
 10
215.843161
 20
223.583116
 42
-0.010777
  0
VERTEX
  8
0
 10
216.194245
 20
225.584506
 42
0.021633
  0
VERTEX
  8
0
 10
216.647962
 20
228.547488
 42
0.057168
  0
VERTEX
  8
0
 10
216.636135
 20
230.689638
 42
0.054003
  0
VERTEX
  8
0
 10
216.137401
 20
232.842629
 42
0.017683
  0
VERTEX
  8
0
 10
214.955369
 20
235.882109
 42
0.024991
  0
VERTEX
  8
0
 10
213.851744
 20
238.130915
 42
0.032801
  0
VERTEX
  8
0
 10
212.614291
 20
240.053978
 42
0.037195
  0
VERTEX
  8
0
 10
211.334401
 20
241.537890
 42
0.078063
  0
VERTEX
  8
0
 10
210.105832
 20
242.431623
 42
0.065132
  0
VERTEX
  8
0
 10
206.535298
 20
243.706829
 42
0.035861
  0
VERTEX
  8
0
 10
201.936292
 20
244.360817
 42
0.035711
  0
VERTEX
  8
0
 10
197.238483
 20
244.352231
 42
0.059200
  0
SEQEND
  0
ENDSEC
  0
EOF
