  0
SECTION
  2
HEADER
  9
$ACADVER
  1
AC1006
  9
$EXTMIN
 10
0.000000
 20
0.000000
 30
0.000000
  9
$EXTMAX
 10
46.000000
 20
243.000000
 30
0.000000
  0
ENDSEC
  0
SECTION
  2
ENTITIES
  0
POLYLINE
  8
0
 66
1
 70
1
  0
VERTEX
  8
0
 10
11.923077
 20
240.076923
 42
0.082858
  0
VERTEX
  8
0
 10
9.882219
 20
237.218571
 42
0.095833
  0
VERTEX
  8
0
 10
9.011473
 20
233.992631
 42
0.097264
  0
VERTEX
  8
0
 10
9.411483
 20
230.712834
 42
0.088036
  0
VERTEX
  8
0
 10
11.023307
 20
227.697499
 42
-0.106934
  0
VERTEX
  8
0
 10
13.601739
 20
222.406526
 42
-0.009012
  0
VERTEX
  8
0
 10
16.969798
 20
207.511201
 42
-0.012168
  0
VERTEX
  8
0
 10
20.145384
 20
190.061745
 42
-0.011219
  0
VERTEX
  8
0
 10
22.566377
 20
172.000000
 42
-0.009466
  0
VERTEX
  8
0
 10
24.129447
 20
155.035376
 42
-0.012823
  0
VERTEX
  8
0
 10
24.857177
 20
139.661593
 42
-0.014133
  0
VERTEX
  8
0
 10
24.764623
 20
125.657842
 42
-0.018259
  0
VERTEX
  8
0
 10
23.847764
 20
112.836247
 42
0.000000
  0
VERTEX
  8
0
 10
22.692640
 20
102.172494
 42
0.000000
  0
VERTEX
  8
0
 10
16.225531
 20
95.336247
 42
0.031928
  0
VERTEX
  8
0
 10
11.117479
 20
89.195167
 42
0.043086
  0
VERTEX
  8
0
 10
7.380116
 20
83.014678
 42
0.039434
  0
VERTEX
  8
0
 10
4.534267
 20
75.867326
 42
0.021443
  0
VERTEX
  8
0
 10
2.128567
 20
66.721856
 42
0.025462
  0
VERTEX
  8
0
 10
0.640887
 20
57.700100
 42
0.026320
  0
VERTEX
  8
0
 10
0.099660
 20
48.673363
 42
0.027238
  0
VERTEX
  8
0
 10
0.511236
 20
39.960633
 42
0.032816
  0
VERTEX
  8
0
 10
1.875664
 20
31.880011
 42
0.062478
  0
VERTEX
  8
0
 10
5.160704
 20
23.090693
 42
0.059117
  0
VERTEX
  8
0
 10
10.563143
 20
15.203579
 42
0.056046
  0
VERTEX
  8
0
 10
17.955515
 20
8.451525
 42
0.046611
  0
VERTEX
  8
0
 10
27.119735
 20
3.019931
 42
0.028189
  0
VERTEX
  8
0
 10
32.667318
 20
0.768606
 42
0.080946
  0
VERTEX
  8
0
 10
36.752845
 20
0.077344
 42
0.111648
  0
VERTEX
  8
0
 10
40.057389
 20
0.803492
 42
0.086898
  0
VERTEX
  8
0
 10
43.076923
 20
2.923077
 42
0.084286
  0
VERTEX
  8
0
 10
45.118864
 20
5.800162
 42
0.114987
  0
VERTEX
  8
0
 10
45.810646
 20
8.892553
 42
0.050292
  0
VERTEX
  8
0
 10
45.287151
 20
13.659240
 42
0.005604
  0
VERTEX
  8
0
 10
42.886600
 20
24.339455
 42
-0.009684
  0
VERTEX
  8
0
 10
41.184448
 20
32.212130
 42
-0.020150
  0
VERTEX
  8
0
 10
40.225845
 20
38.417368
 42
-0.016838
  0
VERTEX
  8
0
 10
39.675682
 20
45.340106
 42
-0.004939
  0
VERTEX
  8
0
 10
39.294377
 20
56.000000
 42
-0.006699
  0
VERTEX
  8
0
 10
39.160943
 20
66.692485
 42
-0.012442
  0
VERTEX
  8
0
 10
39.384734
 20
75.363678
 42
-0.011038
  0
VERTEX
  8
0
 10
40.063035
 20
84.669490
 42
-0.004157
  0
VERTEX
  8
0
 10
41.407777
 20
97.660036
 42
0.018435
  0
VERTEX
  8
0
 10
43.621464
 20
127.280658
 42
0.022735
  0
VERTEX
  8
0
 10
43.407336
 20
154.972570
 42
0.022427
  0
VERTEX
  8
0
 10
40.666382
 20
182.840022
 42
0.017138
  0
VERTEX
  8
0
 10
35.266585
 20
213.000000
 42
0.000000
  0
VERTEX
  8
0
 10
30.651780
 20
234.500000
 42
0.000000
  0
VERTEX
  8
0
 10
26.457469
 20
238.750000
 42
0.056918
  0
VERTEX
  8
0
 10
22.552432
 20
241.896756
 42
0.118937
  0
VERTEX
  8
0
 10
18.878604
 20
243.146129
 42
0.135448
  0
VERTEX
  8
0
 10
15.360422
 20
242.512418
 42
0.084684
  0
SEQEND
  0
ENDSEC
  0
EOF
