  0
SECTION
  2
HEADER
  9
$ACADVER
  1
AC1006
  9
$EXTMIN
 10
0.000000
 20
0.000000
 30
0.000000
  9
$EXTMAX
 10
231.000000
 20
243.000000
 30
0.000000
  0
ENDSEC
  0
SECTION
  2
ENTITIES
  0
POLYLINE
  8
0
 66
1
 70
1
  0
VERTEX
  8
0
 10
208.697990
 20
241.556065
 42
0.020062
  0
VERTEX
  8
0
 10
206.975391
 20
240.862553
 42
0.011072
  0
VERTEX
  8
0
 10
204.926535
 20
239.885439
 42
0.011024
  0
VERTEX
  8
0
 10
202.890083
 20
238.801326
 42
0.017376
  0
VERTEX
  8
0
 10
201.197990
 20
237.773208
 42
0.000335
  0
VERTEX
  8
0
 10
199.471563
 20
236.638632
 42
0.000173
  0
VERTEX
  8
0
 10
197.313482
 20
235.217243
 42
0.000172
  0
VERTEX
  8
0
 10
195.095291
 20
233.754071
 42
0.000260
  0
VERTEX
  8
0
 10
193.167055
 20
232.479768
 42
0.052055
  0
VERTEX
  8
0
 10
189.417081
 20
229.394145
 42
0.010216
  0
VERTEX
  8
0
 10
183.409021
 20
223.045412
 42
0.008963
  0
VERTEX
  8
0
 10
175.713219
 20
214.261695
 42
0.004133
  0
VERTEX
  8
0
 10
166.000000
 20
202.571323
 42
-0.010536
  0
VERTEX
  8
0
 10
163.587148
 20
199.741839
 42
-0.008531
  0
VERTEX
  8
0
 10
160.884160
 20
196.806571
 42
-0.008639
  0
VERTEX
  8
0
 10
158.297421
 20
194.184231
 42
-0.021979
  0
VERTEX
  8
0
 10
156.307780
 20
192.400065
 42
0.026527
  0
VERTEX
  8
0
 10
147.182344
 20
184.066143
 42
0.004671
  0
VERTEX
  8
0
 10
131.043998
 20
167.366866
 42
0.002903
  0
VERTEX
  8
0
 10
114.697095
 20
149.930805
 42
0.063556
  0
VERTEX
  8
0
 10
110.639721
 20
144.252550
 42
-0.055401
  0
VERTEX
  8
0
 10
108.767059
 20
141.539626
 42
-0.006772
  0
VERTEX
  8
0
 10
103.953091
 20
136.143065
 42
-0.006005
  0
VERTEX
  8
0
 10
96.870831
 20
128.600825
 42
-0.001961
  0
VERTEX
  8
0
 10
86.247106
 20
117.642324
 42
0.000000
  0
VERTEX
  8
0
 10
71.729870
 20
102.784648
 42
0.000000
  0
VERTEX
  8
0
 10
67.114935
 20
104.874467
 42
0.035171
  0
VERTEX
  8
0
 10
61.338263
 20
107.015246
 42
0.024587
  0
VERTEX
  8
0
 10
54.582132
 20
108.635849
 42
0.023431
  0
VERTEX
  8
0
 10
47.295928
 20
109.658226
 42
0.023142
  0
VERTEX
  8
0
 10
39.915750
 20
110.000000
 42
0.011271
  0
VERTEX
  8
0
 10
34.390176
 20
109.875422
 42
0.046980
  0
VERTEX
  8
0
 10
31.095314
 20
109.414551
 42
0.047000
  0
VERTEX
  8
0
 10
27.945092
 20
108.346786
 42
0.011288
  0
VERTEX
  8
0
 10
22.955356
 20
105.977553
 42
0.028738
  0
VERTEX
  8
0
 10
16.470636
 20
102.235852
 42
0.044901
  0
VERTEX
  8
0
 10
11.424324
 20
98.233451
 42
0.047215
  0
VERTEX
  8
0
 10
7.351968
 20
93.554141
 42
0.036399
  0
VERTEX
  8
0
 10
3.818936
 20
87.779069
 42
0.020998
  0
VERTEX
  8
0
 10
1.950529
 20
83.750655
 42
0.050031
  0
VERTEX
  8
0
 10
1.000798
 20
80.594661
 42
0.034314
  0
VERTEX
  8
0
 10
0.512742
 20
76.670262
 42
0.005783
  0
VERTEX
  8
0
 10
0.183156
 20
69.108949
 42
0.015559
  0
VERTEX
  8
0
 10
0.175153
 20
60.006721
 42
0.026651
  0
VERTEX
  8
0
 10
0.808462
 20
52.442018
 42
0.031985
  0
VERTEX
  8
0
 10
2.086495
 20
46.161834
 42
0.049682
  0
VERTEX
  8
0
 10
4.052990
 20
41.000000
 42
0.053953
  0
VERTEX
  8
0
 10
7.192334
 20
36.113794
 42
0.012850
  0
VERTEX
  8
0
 10
13.461875
 20
28.739152
 42
0.013762
  0
VERTEX
  8
0
 10
20.290930
 20
21.522379
 42
0.034470
  0
VERTEX
  8
0
 10
25.755728
 20
16.762531
 42
0.009410
  0
VERTEX
  8
0
 10
34.896857
 20
10.113967
 42
0.026419
  0
VERTEX
  8
0
 10
41.610798
 20
5.930943
 42
0.035840
  0
VERTEX
  8
0
 10
47.413935
 20
3.250442
 42
0.037579
  0
VERTEX
  8
0
 10
53.450188
 20
1.475814
 42
0.031921
  0
VERTEX
  8
0
 10
62.172838
 20
0.184305
 42
0.037792
  0
VERTEX
  8
0
 10
70.505454
 20
0.120742
 42
0.041569
  0
VERTEX
  8
0
 10
77.931646
 20
1.250763
 42
0.066257
  0
VERTEX
  8
0
 10
83.919034
 20
3.548421
 42
0.080448
  0
VERTEX
  8
0
 10
96.139981
 20
13.019269
 42
0.094720
  0
VERTEX
  8
0
 10
103.931937
 20
25.390355
 42
0.089125
  0
VERTEX
  8
0
 10
106.900300
 20
40.385803
 42
0.062925
  0
VERTEX
  8
0
 10
105.044051
 20
57.500000
 42
0.011743
  0
VERTEX
  8
0
 10
102.573960
 20
66.890698
 42
0.035258
  0
VERTEX
  8
0
 10
100.294115
 20
73.113522
 42
0.040489
  0
VERTEX
  8
0
 10
97.347498
 20
78.474052
 42
0.019762
  0
VERTEX
  8
0
 10
92.791062
 20
84.815339
 42
-0.007920
  0
VERTEX
  8
0
 10
90.125490
 20
88.345569
 42
-0.049710
  0
VERTEX
  8
0
 10
88.981688
 20
90.290758
 42
-0.114164
  0
VERTEX
  8
0
 10
88.701090
 20
91.641115
 42
-0.153921
  0
VERTEX
  8
0
 10
89.100548
 20
92.815339
 42
-0.031974
  0
VERTEX
  8
0
 10
90.047261
 20
93.945542
 42
-0.001141
  0
VERTEX
  8
0
 10
93.963655
 20
98.037415
 42
-0.002102
  0
VERTEX
  8
0
 10
98.625562
 20
102.845373
 42
-0.001471
  0
VERTEX
  8
0
 10
103.918766
 20
108.226924
 42
0.002876
  0
VERTEX
  8
0
 10
113.486170
 20
118.008876
 42
0.008139
  0
VERTEX
  8
0
 10
120.012454
 20
124.982415
 42
0.010378
  0
VERTEX
  8
0
 10
124.458617
 20
130.100636
 42
0.048680
  0
VERTEX
  8
0
 10
126.648661
 20
133.321076
 42
-0.060321
  0
VERTEX
  8
0
 10
130.696893
 20
138.986572
 42
-0.003976
  0
VERTEX
  8
0
 10
144.388942
 20
153.717406
 42
-0.006243
  0
VERTEX
  8
0
 10
158.418322
 20
168.205722
 42
-0.018304
  0
VERTEX
  8
0
 10
168.560995
 20
177.700158
 42
0.014276
  0
VERTEX
  8
0
 10
171.246021
 20
180.173314
 42
0.007859
  0
VERTEX
  8
0
 10
174.393724
 20
183.341335
 42
0.007829
  0
VERTEX
  8
0
 10
177.488195
 20
186.657655
 42
0.012430
  0
VERTEX
  8
0
 10
180.020274
 20
189.601813
 42
-0.003607
  0
VERTEX
  8
0
 10
188.073337
 20
199.306672
 42
-0.004319
  0
VERTEX
  8
0
 10
195.800720
 20
208.324253
 42
-0.000840
  0
VERTEX
  8
0
 10
203.050562
 20
216.609993
 42
-0.215836
  0
VERTEX
  8
0
 10
203.911955
 20
217.000000
 42
0.124025
  0
VERTEX
  8
0
 10
204.389000
 20
217.120179
 42
0.006271
  0
VERTEX
  8
0
 10
205.802368
 20
217.903573
 42
0.009726
  0
VERTEX
  8
0
 10
207.467736
 20
218.897574
 42
0.006866
  0
VERTEX
  8
0
 10
209.301015
 20
220.075994
 42
-0.009775
  0
VERTEX
  8
0
 10
212.176902
 20
221.901037
 42
-0.083111
  0
VERTEX
  8
0
 10
213.592144
 20
222.466440
 42
-0.151569
  0
VERTEX
  8
0
 10
214.745707
 20
222.366285
 42
-0.055948
  0
VERTEX
  8
0
 10
216.194966
 20
221.575994
 42
0.148671
  0
VERTEX
  8
0
 10
220.678579
 20
220.110881
 42
0.117488
  0
VERTEX
  8
0
 10
225.689959
 20
221.196062
 42
0.120845
  0
VERTEX
  8
0
 10
229.571862
 20
224.384817
 42
0.162551
  0
VERTEX
  8
0
 10
230.994423
 20
228.673077
 42
0.045169
  0
VERTEX
  8
0
 10
230.655170
 20
232.340191
 42
0.045128
  0
VERTEX
  8
0
 10
229.662898
 20
235.887931
 42
0.048565
  0
VERTEX
  8
0
 10
228.169380
 20
238.902624
 42
0.087033
  0
VERTEX
  8
0
 10
226.330697
 20
240.954514
 42
0.114274
  0
VERTEX
  8
0
 10
223.268106
 20
242.392420
 42
0.044353
  0
VERTEX
  8
0
 10
218.591015
 20
242.969432
 42
0.042502
  0
VERTEX
  8
0
 10
213.412640
 20
242.705887
 42
0.051752
  0
SEQEND
  0
ENDSEC
  0
EOF
