  0
SECTION
  2
HEADER
  9
$ACADVER
  1
AC1006
  9
$EXTMIN
 10
0.000000
 20
0.000000
 30
0.000000
  9
$EXTMAX
 10
236.000000
 20
205.000000
 30
0.000000
  0
ENDSEC
  0
SECTION
  2
ENTITIES
  0
POLYLINE
  8
0
 66
1
 70
1
  0
VERTEX
  8
0
 10
212.391800
 20
203.104749
 42
0.040256
  0
VERTEX
  8
0
 10
204.860922
 20
200.595713
 42
0.012821
  0
VERTEX
  8
0
 10
194.098034
 20
195.689434
 42
0.012373
  0
VERTEX
  8
0
 10
183.698533
 20
190.300504
 42
0.048978
  0
VERTEX
  8
0
 10
177.764704
 20
186.234696
 42
-0.037816
  0
VERTEX
  8
0
 10
176.841334
 20
185.571303
 42
-0.006415
  0
VERTEX
  8
0
 10
174.973747
 20
184.465549
 42
-0.006975
  0
VERTEX
  8
0
 10
172.740395
 20
183.222771
 42
-0.006159
  0
VERTEX
  8
0
 10
170.379097
 20
181.988876
 42
0.021971
  0
VERTEX
  8
0
 10
167.663944
 20
180.458910
 42
0.010576
  0
VERTEX
  8
0
 10
164.317610
 20
178.274960
 42
0.010464
  0
VERTEX
  8
0
 10
160.917854
 20
175.846273
 42
0.014745
  0
VERTEX
  8
0
 10
158.000000
 20
173.531165
 42
-0.007029
  0
VERTEX
  8
0
 10
155.254703
 20
171.283081
 42
-0.006541
  0
VERTEX
  8
0
 10
152.381250
 20
169.057524
 42
-0.006535
  0
VERTEX
  8
0
 10
149.775427
 20
167.146136
 42
-0.021913
  0
VERTEX
  8
0
 10
148.000000
 20
165.993125
 42
0.016781
  0
VERTEX
  8
0
 10
139.230464
 20
160.425045
 42
0.024289
  0
VERTEX
  8
0
 10
131.913636
 20
154.887691
 42
0.020144
  0
VERTEX
  8
0
 10
124.244051
 20
147.931127
 42
0.007674
  0
VERTEX
  8
0
 10
114.108503
 20
137.654357
 42
-0.002011
  0
VERTEX
  8
0
 10
109.183831
 20
132.546624
 42
-0.002247
  0
VERTEX
  8
0
 10
104.396514
 20
127.665226
 42
-0.002068
  0
VERTEX
  8
0
 10
100.282048
 20
123.541696
 42
-0.011913
  0
VERTEX
  8
0
 10
98.044575
 20
121.421306
 42
0.017221
  0
VERTEX
  8
0
 10
96.484212
 20
119.910839
 42
0.018477
  0
VERTEX
  8
0
 10
95.069194
 20
118.330485
 42
0.018357
  0
VERTEX
  8
0
 10
93.959343
 20
116.890369
 42
0.078298
  0
VERTEX
  8
0
 10
93.475312
 20
115.922214
 42
-0.060058
  0
VERTEX
  8
0
 10
93.140625
 20
115.187224
 42
-0.062716
  0
VERTEX
  8
0
 10
92.644806
 20
114.564650
 42
-0.069808
  0
VERTEX
  8
0
 10
92.070424
 20
114.142689
 42
-0.124184
  0
VERTEX
  8
0
 10
91.504776
 20
114.000000
 42
0.183199
  0
VERTEX
  8
0
 10
89.959666
 20
113.414215
 42
0.004385
  0
VERTEX
  8
0
 10
84.151733
 20
108.179560
 42
0.006282
  0
VERTEX
  8
0
 10
75.828031
 20
100.349270
 42
0.001466
  0
VERTEX
  8
0
 10
62.071089
 20
87.000000
 42
-0.004541
  0
VERTEX
  8
0
 10
57.268177
 20
82.396414
 42
-0.003075
  0
VERTEX
  8
0
 10
51.715761
 20
77.234375
 42
-0.003098
  0
VERTEX
  8
0
 10
46.289325
 20
72.312948
 42
-0.006184
  0
VERTEX
  8
0
 10
41.924981
 20
68.500000
 42
0.007526
  0
VERTEX
  8
0
 10
33.503367
 20
61.102436
 42
0.016146
  0
VERTEX
  8
0
 10
27.285825
 20
55.096419
 42
0.020443
  0
VERTEX
  8
0
 10
22.882558
 20
50.171459
 42
0.057253
  0
VERTEX
  8
0
 10
20.371838
 20
46.290938
 42
-0.013114
  0
VERTEX
  8
0
 10
19.452962
 20
44.551980
 42
-0.006902
  0
VERTEX
  8
0
 10
18.225613
 20
42.438588
 42
-0.006861
  0
VERTEX
  8
0
 10
16.908137
 20
40.307318
 42
-0.010493
  0
VERTEX
  8
0
 10
15.702281
 20
38.500000
 42
0.007162
  0
VERTEX
  8
0
 10
9.168220
 20
28.846766
 42
0.013449
  0
VERTEX
  8
0
 10
4.214152
 20
20.835299
 42
0.012347
  0
VERTEX
  8
0
 10
0.722454
 20
14.477522
 42
0.120269
  0
VERTEX
  8
0
 10
0.003738
 20
11.516862
 42
0.083921
  0
VERTEX
  8
0
 10
0.516418
 20
8.506540
 42
0.052646
  0
VERTEX
  8
0
 10
2.045646
 20
5.269479
 42
0.053209
  0
VERTEX
  8
0
 10
4.182006
 20
2.475785
 42
0.096322
  0
VERTEX
  8
0
 10
6.516983
 20
0.810308
 42
0.121024
  0
VERTEX
  8
0
 10
9.830386
 20
0.184582
 42
0.029645
  0
VERTEX
  8
0
 10
15.386513
 20
0.817929
 42
0.029931
  0
VERTEX
  8
0
 10
21.575745
 20
2.284190
 42
0.033728
  0
VERTEX
  8
0
 10
27.295575
 20
4.436437
 42
-0.000359
  0
VERTEX
  8
0
 10
29.471473
 20
5.425414
 42
-0.000333
  0
VERTEX
  8
0
 10
31.705575
 20
6.437115
 42
-0.000332
  0
VERTEX
  8
0
 10
33.695570
 20
7.335090
 42
-0.001115
  0
VERTEX
  8
0
 10
35.000000
 20
7.919170
 42
0.025333
  0
VERTEX
  8
0
 10
37.120139
 20
8.994583
 42
0.010587
  0
VERTEX
  8
0
 10
39.867229
 20
10.645936
 42
0.005784
  0
VERTEX
  8
0
 10
44.032212
 20
13.339068
 42
0.001063
  0
VERTEX
  8
0
 10
51.650902
 20
18.414708
 42
-0.000048
  0
VERTEX
  8
0
 10
54.376986
 20
20.238850
 42
-0.000025
  0
VERTEX
  8
0
 10
57.774421
 20
22.511496
 42
-0.000025
  0
VERTEX
  8
0
 10
61.260424
 20
24.842879
 42
-0.000038
  0
VERTEX
  8
0
 10
64.283296
 20
26.863970
 42
0.013234
  0
VERTEX
  8
0
 10
67.053632
 20
28.823929
 42
0.012529
  0
VERTEX
  8
0
 10
69.768468
 20
30.962653
 42
0.012588
  0
VERTEX
  8
0
 10
72.074584
 20
32.975028
 42
0.042241
  0
VERTEX
  8
0
 10
73.430746
 20
34.449262
 42
-0.013733
  0
VERTEX
  8
0
 10
74.678877
 20
35.971611
 42
-0.004584
  0
VERTEX
  8
0
 10
76.585565
 20
38.130805
 42
-0.004558
  0
VERTEX
  8
0
 10
78.741676
 20
40.484289
 42
-0.005185
  0
VERTEX
  8
0
 10
80.850678
 20
42.698158
 42
0.015319
  0
VERTEX
  8
0
 10
82.926069
 20
44.967086
 42
0.012966
  0
VERTEX
  8
0
 10
84.981162
 20
47.486148
 42
0.013163
  0
VERTEX
  8
0
 10
86.734876
 20
49.881054
 42
0.035277
  0
VERTEX
  8
0
 10
87.812296
 20
51.698158
 42
0.053005
  0
VERTEX
  8
0
 10
89.281608
 20
55.616323
 42
0.009126
  0
VERTEX
  8
0
 10
91.128623
 20
63.344101
 42
0.008979
  0
VERTEX
  8
0
 10
93.113625
 20
73.217475
 42
0.005395
  0
VERTEX
  8
0
 10
95.131984
 20
85.000000
 42
-0.012103
  0
VERTEX
  8
0
 10
96.013621
 20
89.761959
 42
-0.075101
  0
VERTEX
  8
0
 10
96.880107
 20
92.083718
 42
-0.081155
  0
VERTEX
  8
0
 10
98.369117
 20
93.966776
 42
-0.015379
  0
VERTEX
  8
0
 10
101.702207
 20
96.825963
 42
0.018265
  0
VERTEX
  8
0
 10
103.936167
 20
98.764787
 42
0.014462
  0
VERTEX
  8
0
 10
106.209212
 20
101.014480
 42
0.014702
  0
VERTEX
  8
0
 10
108.198237
 20
103.227074
 42
0.034949
  0
VERTEX
  8
0
 10
109.506303
 20
105.009985
 42
-0.014365
  0
VERTEX
  8
0
 10
110.539358
 20
106.546810
 42
-0.015741
  0
VERTEX
  8
0
 10
111.629223
 20
107.974432
 42
-0.015322
  0
VERTEX
  8
0
 10
112.632772
 20
109.132232
 42
-0.072447
  0
VERTEX
  8
0
 10
113.313223
 20
109.684021
 42
0.061200
  0
VERTEX
  8
0
 10
114.221869
 20
110.387728
 42
0.001541
  0
VERTEX
  8
0
 10
117.921315
 20
114.079056
 42
0.003282
  0
VERTEX
  8
0
 10
122.227504
 20
118.459493
 42
0.002229
  0
VERTEX
  8
0
 10
127.074499
 20
123.500000
 42
-0.008712
  0
VERTEX
  8
0
 10
136.444689
 20
132.994746
 42
-0.017966
  0
VERTEX
  8
0
 10
144.157965
 20
140.018552
 42
-0.022565
  0
VERTEX
  8
0
 10
150.970056
 20
145.279269
 42
-0.032030
  0
VERTEX
  8
0
 10
157.500000
 20
149.268780
 42
0.032725
  0
VERTEX
  8
0
 10
159.067703
 20
150.229571
 42
0.007888
  0
VERTEX
  8
0
 10
161.528125
 20
152.027384
 42
0.008064
  0
VERTEX
  8
0
 10
164.291400
 20
154.184996
 42
0.007925
  0
VERTEX
  8
0
 10
167.000000
 20
156.442956
 42
-0.017612
  0
VERTEX
  8
0
 10
169.962170
 20
158.816575
 42
-0.011842
  0
VERTEX
  8
0
 10
173.500000
 20
161.324335
 42
-0.011937
  0
VERTEX
  8
0
 10
177.044040
 20
163.591350
 42
-0.023042
  0
VERTEX
  8
0
 10
180.000000
 20
165.202860
 42
0.007387
  0
VERTEX
  8
0
 10
182.623574
 20
166.528379
 42
0.008053
  0
VERTEX
  8
0
 10
185.131708
 20
167.894365
 42
0.007628
  0
VERTEX
  8
0
 10
187.239781
 20
169.129707
 42
0.038938
  0
VERTEX
  8
0
 10
188.341986
 20
169.921848
 42
-0.033518
  0
VERTEX
  8
0
 10
190.446373
 20
171.469065
 42
-0.007746
  0
VERTEX
  8
0
 10
194.194970
 20
173.774991
 42
-0.006992
  0
VERTEX
  8
0
 10
199.074700
 20
176.581936
 42
-0.003919
  0
VERTEX
  8
0
 10
205.079964
 20
179.864032
 42
-0.030532
  0
VERTEX
  8
0
 10
210.193645
 20
182.217308
 42
-0.022731
  0
VERTEX
  8
0
 10
216.083006
 20
184.200394
 42
-0.023152
  0
VERTEX
  8
0
 10
221.835955
 20
185.565914
 42
-0.046722
  0
VERTEX
  8
0
 10
226.471268
 20
186.000000
 42
0.042321
  0
VERTEX
  8
0
 10
228.376388
 20
186.161541
 42
0.061936
  0
VERTEX
  8
0
 10
229.985768
 20
186.646879
 42
0.058665
  0
VERTEX
  8
0
 10
231.488766
 20
187.535209
 42
0.033612
  0
VERTEX
  8
0
 10
233.076923
 20
188.923077
 42
0.084164
  0
VERTEX
  8
0
 10
235.321761
 20
192.084425
 42
0.112858
  0
VERTEX
  8
0
 10
236.102661
 20
195.500000
 42
0.112858
  0
VERTEX
  8
0
 10
235.321761
 20
198.915575
 42
0.084164
  0
VERTEX
  8
0
 10
233.076923
 20
202.076923
 42
0.033710
  0
VERTEX
  8
0
 10
231.287610
 20
203.639961
 42
0.079680
  0
VERTEX
  8
0
 10
229.731303
 20
204.473247
 42
0.067539
  0
VERTEX
  8
0
 10
227.837307
 20
204.852622
 42
0.019161
  0
VERTEX
  8
0
 10
224.826923
 20
204.926384
 42
0.022623
  0
VERTEX
  8
0
 10
222.283495
 20
204.776004
 42
0.010291
  0
VERTEX
  8
0
 10
218.976750
 20
204.360913
 42
0.010166
  0
VERTEX
  8
0
 10
215.502842
 20
203.779645
 42
0.013754
  0
SEQEND
  0
ENDSEC
  0
EOF
