  0
SECTION
  2
HEADER
  9
$ACADVER
  1
AC1006
  9
$EXTMIN
 10
0.000000
 20
0.000000
 30
0.000000
  9
$EXTMAX
 10
261.000000
 20
156.000000
 30
0.000000
  0
ENDSEC
  0
SECTION
  2
ENTITIES
  0
POLYLINE
  8
0
 66
1
 70
1
  0
VERTEX
  8
0
 10
214.500000
 20
153.269778
 42
0.028457
  0
VERTEX
  8
0
 10
212.751140
 20
151.830461
 42
0.016092
  0
VERTEX
  8
0
 10
210.794576
 20
149.903824
 42
0.016026
  0
VERTEX
  8
0
 10
208.940766
 20
147.827638
 42
0.025280
  0
VERTEX
  8
0
 10
207.502812
 20
145.921409
 42
-0.005858
  0
VERTEX
  8
0
 10
206.295448
 20
144.184488
 42
-0.007609
  0
VERTEX
  8
0
 10
205.146674
 20
142.623307
 42
-0.005888
  0
VERTEX
  8
0
 10
204.152757
 20
141.346272
 42
-0.066363
  0
VERTEX
  8
0
 10
203.690731
 20
140.902614
 42
0.153392
  0
VERTEX
  8
0
 10
202.298488
 20
139.008270
 42
0.006922
  0
VERTEX
  8
0
 10
199.760188
 20
131.232800
 42
0.010798
  0
VERTEX
  8
0
 10
197.556787
 20
123.573244
 42
0.063889
  0
VERTEX
  8
0
 10
197.013378
 20
119.445781
 42
0.084144
  0
VERTEX
  8
0
 10
197.649311
 20
115.617083
 42
0.048638
  0
VERTEX
  8
0
 10
199.599248
 20
111.361814
 42
0.043804
  0
VERTEX
  8
0
 10
202.628794
 20
107.067897
 42
0.037361
  0
VERTEX
  8
0
 10
206.514076
 20
103.114250
 42
0.000000
  0
VERTEX
  8
0
 10
210.378813
 20
99.728500
 42
0.000000
  0
VERTEX
  8
0
 10
218.939407
 20
100.327868
 42
0.007996
  0
VERTEX
  8
0
 10
222.473541
 20
100.632171
 42
0.007880
  0
VERTEX
  8
0
 10
226.013451
 20
101.050548
 42
0.007784
  0
VERTEX
  8
0
 10
229.101939
 20
101.514076
 42
0.029712
  0
VERTEX
  8
0
 10
231.000000
 20
101.946389
 42
0.102081
  0
VERTEX
  8
0
 10
236.456763
 20
104.834636
 42
0.065189
  0
VERTEX
  8
0
 10
241.367978
 20
110.102908
 42
0.064281
  0
VERTEX
  8
0
 10
244.825449
 20
116.557653
 42
0.091094
  0
VERTEX
  8
0
 10
246.000000
 20
122.951096
 42
0.104392
  0
VERTEX
  8
0
 10
245.188742
 20
126.794375
 42
0.046373
  0
VERTEX
  8
0
 10
242.653240
 20
131.340667
 42
0.043801
  0
VERTEX
  8
0
 10
239.013545
 20
135.759920
 42
0.049593
  0
VERTEX
  8
0
 10
234.796669
 20
139.277136
 42
0.022386
  0
VERTEX
  8
0
 10
232.210042
 20
140.867674
 42
0.066789
  0
VERTEX
  8
0
 10
230.278684
 20
141.623815
 42
0.063198
  0
VERTEX
  8
0
 10
228.157573
 20
141.865718
 42
0.018548
  0
VERTEX
  8
0
 10
224.877137
 20
141.702331
 42
0.022965
  0
VERTEX
  8
0
 10
222.532975
 20
141.389232
 42
0.020596
  0
VERTEX
  8
0
 10
220.139441
 20
140.854276
 42
0.021104
  0
VERTEX
  8
0
 10
218.031083
 20
140.194513
 42
0.058708
  0
VERTEX
  8
0
 10
216.644748
 20
139.502885
 42
0.066119
  0
VERTEX
  8
0
 10
214.205692
 20
137.397583
 42
0.045541
  0
VERTEX
  8
0
 10
212.035497
 20
134.456127
 42
0.046490
  0
VERTEX
  8
0
 10
210.500281
 20
131.291837
 42
0.089941
  0
VERTEX
  8
0
 10
210.000000
 20
128.533176
 42
0.171712
  0
VERTEX
  8
0
 10
211.286238
 20
124.898283
 42
0.060985
  0
VERTEX
  8
0
 10
215.307169
 20
121.008973
 42
0.059126
  0
VERTEX
  8
0
 10
220.450748
 20
118.003369
 42
0.103040
  0
VERTEX
  8
0
 10
225.267881
 20
117.000000
 42
0.077287
  0
VERTEX
  8
0
 10
226.916416
 20
117.256352
 42
0.069016
  0
VERTEX
  8
0
 10
228.480268
 20
118.004749
 42
0.077338
  0
VERTEX
  8
0
 10
229.615660
 20
119.038411
 42
0.171115
  0
VERTEX
  8
0
 10
230.000000
 20
120.128571
 42
0.182038
  0
VERTEX
  8
0
 10
229.539955
 20
121.350298
 42
0.059704
  0
VERTEX
  8
0
 10
228.084883
 20
122.655785
 42
0.057607
  0
VERTEX
  8
0
 10
226.227326
 20
123.663138
 42
0.095747
  0
VERTEX
  8
0
 10
224.484335
 20
124.000000
 42
-0.073788
  0
VERTEX
  8
0
 10
223.383340
 20
124.163369
 42
-0.033536
  0
VERTEX
  8
0
 10
222.018236
 20
124.679790
 42
-0.032285
  0
VERTEX
  8
0
 10
220.625552
 20
125.428465
 42
-0.038159
  0
VERTEX
  8
0
 10
219.421132
 20
126.314180
 42
-0.021869
  0
VERTEX
  8
0
 10
217.965929
 20
127.681020
 42
-0.114339
  0
VERTEX
  8
0
 10
217.399651
 20
128.614505
 42
-0.153579
  0
VERTEX
  8
0
 10
217.387561
 20
129.557977
 42
-0.049899
  0
VERTEX
  8
0
 10
217.926170
 20
130.862048
 42
-0.095693
  0
VERTEX
  8
0
 10
219.316200
 20
132.573254
 42
-0.068435
  0
VERTEX
  8
0
 10
221.409700
 20
133.889077
 42
-0.060154
  0
VERTEX
  8
0
 10
224.057810
 20
134.720764
 42
-0.046070
  0
VERTEX
  8
0
 10
227.081924
 20
135.000000
 42
-0.153417
  0
VERTEX
  8
0
 10
230.523967
 20
133.918406
 42
-0.049910
  0
VERTEX
  8
0
 10
234.618107
 20
130.408925
 42
-0.049960
  0
VERTEX
  8
0
 10
237.951609
 20
126.136438
 42
-0.145608
  0
VERTEX
  8
0
 10
238.951968
 20
122.571099
 42
-0.068165
  0
VERTEX
  8
0
 10
238.473221
 20
119.440662
 42
-0.045512
  0
VERTEX
  8
0
 10
237.130174
 20
116.066717
 42
-0.045709
  0
VERTEX
  8
0
 10
235.210694
 20
113.012922
 42
-0.071793
  0
VERTEX
  8
0
 10
233.000000
 20
110.847947
 42
-0.079135
  0
VERTEX
  8
0
 10
230.162104
 20
109.393267
 42
-0.025360
  0
VERTEX
  8
0
 10
225.576249
 20
108.148654
 42
-0.025342
  0
VERTEX
  8
0
 10
220.427587
 20
107.298544
 42
-0.032126
  0
VERTEX
  8
0
 10
215.613510
 20
107.063751
 42
-0.037700
  0
VERTEX
  8
0
 10
213.227350
 20
107.281158
 42
-0.090261
  0
VERTEX
  8
0
 10
211.561768
 20
107.882092
 42
-0.070811
  0
VERTEX
  8
0
 10
209.982359
 20
109.127435
 42
-0.016874
  0
VERTEX
  8
0
 10
207.750000
 20
111.632059
 42
-0.020639
  0
VERTEX
  8
0
 10
205.982855
 20
113.942357
 42
-0.042978
  0
VERTEX
  8
0
 10
204.845870
 20
115.901731
 42
-0.053200
  0
VERTEX
  8
0
 10
204.213966
 20
117.725197
 42
-0.056884
  0
VERTEX
  8
0
 10
204.000000
 20
119.599854
 42
-0.082150
  0
VERTEX
  8
0
 10
205.167042
 20
126.655060
 42
-0.036638
  0
VERTEX
  8
0
 10
208.855024
 20
135.351118
 42
-0.036268
  0
VERTEX
  8
0
 10
213.659930
 20
143.243739
 42
-0.104850
  0
VERTEX
  8
0
 10
218.349765
 20
147.547540
 42
-0.047817
  0
VERTEX
  8
0
 10
220.010028
 20
148.325113
 42
-0.050114
  0
VERTEX
  8
0
 10
221.761957
 20
148.758110
 42
-0.041428
  0
VERTEX
  8
0
 10
223.832561
 20
148.881136
 42
-0.019848
  0
VERTEX
  8
0
 10
226.492534
 20
148.712926
 42
-0.053702
  0
VERTEX
  8
0
 10
232.355031
 20
147.462485
 42
-0.067188
  0
VERTEX
  8
0
 10
237.355047
 20
145.037204
 42
-0.046409
  0
VERTEX
  8
0
 10
242.784927
 20
140.659319
 42
-0.012880
  0
VERTEX
  8
0
 10
250.438396
 20
132.825311
 42
-0.035321
  0
VERTEX
  8
0
 10
251.105994
 20
131.995298
 42
-0.017926
  0
VERTEX
  8
0
 10
251.830686
 20
130.866941
 42
-0.017714
  0
VERTEX
  8
0
 10
252.498426
 20
129.643599
 42
-0.025229
  0
VERTEX
  8
0
 10
252.996118
 20
128.510211
 42
-0.075505
  0
VERTEX
  8
0
 10
253.778116
 20
124.887476
 42
-0.016195
  0
VERTEX
  8
0
 10
253.968184
 20
118.443113
 42
-0.016280
  0
VERTEX
  8
0
 10
253.739486
 20
111.996227
 42
-0.073960
  0
VERTEX
  8
0
 10
252.937576
 20
108.335812
 42
-0.079555
  0
VERTEX
  8
0
 10
251.558801
 20
105.939400
 42
-0.030885
  0
VERTEX
  8
0
 10
248.963270
 20
103.111760
 42
-0.027953
  0
VERTEX
  8
0
 10
246.161515
 20
100.700990
 42
-0.156297
  0
VERTEX
  8
0
 10
244.321429
 20
100.040641
 42
0.091934
  0
VERTEX
  8
0
 10
243.759029
 20
99.916163
 42
0.032808
  0
VERTEX
  8
0
 10
243.021788
 20
99.544664
 42
0.031229
  0
VERTEX
  8
0
 10
242.247791
 20
99.021037
 42
0.032052
  0
VERTEX
  8
0
 10
241.552136
 20
98.409279
 42
-0.116803
  0
VERTEX
  8
0
 10
240.259895
 20
97.611930
 42
-0.004930
  0
VERTEX
  8
0
 10
235.095418
 20
95.955133
 42
-0.008258
  0
VERTEX
  8
0
 10
228.877152
 20
94.139678
 42
-0.005757
  0
VERTEX
  8
0
 10
221.805597
 20
92.288515
 42
-0.001997
  0
VERTEX
  8
0
 10
210.516790
 20
89.519700
 42
-0.023924
  0
VERTEX
  8
0
 10
206.110580
 20
88.678283
 42
-0.072431
  0
VERTEX
  8
0
 10
203.748571
 20
88.687163
 42
-0.200383
  0
VERTEX
  8
0
 10
202.354052
 20
89.530483
 42
0.160914
  0
VERTEX
  8
0
 10
200.108770
 20
91.134534
 42
0.021589
  0
VERTEX
  8
0
 10
194.416614
 20
92.636991
 42
0.021228
  0
VERTEX
  8
0
 10
186.840174
 20
93.956617
 42
0.011743
  0
VERTEX
  8
0
 10
177.500000
 20
94.955233
 42
0.014953
  0
VERTEX
  8
0
 10
170.132112
 20
95.347012
 42
0.029645
  0
VERTEX
  8
0
 10
164.287091
 20
95.136189
 42
0.036412
  0
VERTEX
  8
0
 10
159.397851
 20
94.306391
 42
0.044183
  0
VERTEX
  8
0
 10
155.000000
 20
92.803868
 42
-0.012949
  0
VERTEX
  8
0
 10
153.361308
 20
92.127155
 42
-0.006953
  0
VERTEX
  8
0
 10
151.307666
 20
91.373268
 42
-0.006919
  0
VERTEX
  8
0
 10
149.190655
 20
90.662115
 42
-0.010767
  0
VERTEX
  8
0
 10
147.345246
 20
90.114018
 42
0.048514
  0
VERTEX
  8
0
 10
145.358814
 20
89.356950
 42
0.022666
  0
VERTEX
  8
0
 10
142.948145
 20
88.019889
 42
0.021684
  0
VERTEX
  8
0
 10
140.454306
 20
86.331690
 42
0.023470
  0
VERTEX
  8
0
 10
138.183683
 20
84.475238
 42
-0.021753
  0
VERTEX
  8
0
 10
135.957980
 20
82.642731
 42
-0.017336
  0
VERTEX
  8
0
 10
133.409714
 20
80.859258
 42
-0.017666
  0
VERTEX
  8
0
 10
130.930259
 20
79.370817
 42
-0.041557
  0
VERTEX
  8
0
 10
128.962711
 20
78.486844
 42
-0.090297
  0
VERTEX
  8
0
 10
119.111170
 20
76.906304
 42
-0.017179
  0
VERTEX
  8
0
 10
100.902126
 20
77.915766
 42
-0.017293
  0
VERTEX
  8
0
 10
78.897181
 20
80.665559
 42
-0.013135
  0
VERTEX
  8
0
 10
55.000000
 20
85.141848
 42
0.020035
  0
VERTEX
  8
0
 10
52.641614
 20
85.550014
 42
0.006051
  0
VERTEX
  8
0
 10
49.031250
 20
85.982443
 42
0.006052
  0
VERTEX
  8
0
 10
44.967170
 20
86.369699
 42
0.006547
  0
VERTEX
  8
0
 10
41.000000
 20
86.647071
 42
0.057279
  0
VERTEX
  8
0
 10
26.565536
 20
85.812943
 42
0.081724
  0
VERTEX
  8
0
 10
14.467055
 20
81.597947
 42
0.095740
  0
VERTEX
  8
0
 10
5.725777
 20
74.394860
 42
0.114301
  0
VERTEX
  8
0
 10
0.967410
 20
64.864150
 42
0.051060
  0
VERTEX
  8
0
 10
0.328513
 20
60.103812
 42
0.025422
  0
VERTEX
  8
0
 10
0.446975
 20
54.013978
 42
0.025392
  0
VERTEX
  8
0
 10
1.191650
 20
47.892546
 42
0.045515
  0
VERTEX
  8
0
 10
2.506214
 20
43.006008
 42
-0.010631
  0
VERTEX
  8
0
 10
3.091850
 20
41.310107
 42
-0.004784
  0
VERTEX
  8
0
 10
3.791666
 20
39.061140
 42
-0.004734
  0
VERTEX
  8
0
 10
4.485880
 20
36.670697
 42
-0.006434
  0
VERTEX
  8
0
 10
5.064034
 20
34.500000
 42
0.026533
  0
VERTEX
  8
0
 10
7.016711
 20
28.198407
 42
0.034382
  0
VERTEX
  8
0
 10
9.495554
 20
22.681384
 42
0.035602
  0
VERTEX
  8
0
 10
12.626722
 20
17.711317
 42
0.032114
  0
VERTEX
  8
0
 10
16.532567
 20
13.051207
 42
0.037103
  0
VERTEX
  8
0
 10
21.654911
 20
8.422223
 42
0.045799
  0
VERTEX
  8
0
 10
27.073658
 20
4.955543
 42
0.045417
  0
VERTEX
  8
0
 10
33.071288
 20
2.512350
 42
0.035549
  0
VERTEX
  8
0
 10
39.925661
 20
0.943584
 42
0.015323
  0
VERTEX
  8
0
 10
44.166005
 20
0.418147
 42
0.051084
  0
VERTEX
  8
0
 10
46.967997
 20
0.444589
 42
0.045406
  0
VERTEX
  8
0
 10
49.873081
 20
1.040332
 42
0.010300
  0
VERTEX
  8
0
 10
54.663490
 20
2.593935
 42
0.016668
  0
VERTEX
  8
0
 10
60.059541
 20
4.671630
 42
0.034868
  0
VERTEX
  8
0
 10
64.068049
 20
6.710759
 42
0.035325
  0
VERTEX
  8
0
 10
67.721837
 20
9.269426
 42
0.017563
  0
VERTEX
  8
0
 10
71.986746
 20
12.984882
 42
0.029526
  0
VERTEX
  8
0
 10
73.998494
 20
15.101579
 42
0.087051
  0
VERTEX
  8
0
 10
75.005077
 20
16.830292
 42
0.064581
  0
VERTEX
  8
0
 10
75.518088
 20
19.075504
 42
0.011300
  0
VERTEX
  8
0
 10
75.835370
 20
23.410957
 42
0.015403
  0
VERTEX
  8
0
 10
75.917914
 20
27.610871
 42
0.046345
  0
VERTEX
  8
0
 10
75.621279
 20
30.459010
 42
0.046427
  0
VERTEX
  8
0
 10
74.805447
 20
33.201054
 42
0.015500
  0
VERTEX
  8
0
 10
73.123959
 20
37.038593
 42
0.028138
  0
VERTEX
  8
0
 10
69.219224
 20
44.182260
 42
0.042797
  0
VERTEX
  8
0
 10
64.986303
 20
49.843461
 42
0.049622
  0
VERTEX
  8
0
 10
60.426706
 20
54.040861
 42
0.066828
  0
VERTEX
  8
0
 10
55.539900
 20
56.783598
 42
0.023152
  0
VERTEX
  8
0
 10
49.771580
 20
58.770280
 42
0.047932
  0
VERTEX
  8
0
 10
45.096442
 20
59.667472
 42
0.060877
  0
VERTEX
  8
0
 10
41.137343
 20
59.557413
 42
0.073550
  0
VERTEX
  8
0
 10
37.584343
 20
58.472999
 42
0.060029
  0
VERTEX
  8
0
 10
32.693538
 20
55.386365
 42
0.030758
  0
VERTEX
  8
0
 10
27.351002
 20
50.464941
 42
0.030740
  0
VERTEX
  8
0
 10
22.710723
 20
44.994170
 42
0.067807
  0
VERTEX
  8
0
 10
20.057766
 20
40.212980
 42
0.037450
  0
VERTEX
  8
0
 10
18.268909
 20
34.353497
 42
0.111450
  0
VERTEX
  8
0
 10
18.271181
 20
30.181205
 42
0.104548
  0
VERTEX
  8
0
 10
20.073764
 20
26.259761
 42
0.030739
  0
VERTEX
  8
0
 10
24.366792
 20
21.169795
 42
0.045621
  0
VERTEX
  8
0
 10
29.856575
 20
16.379196
 42
0.090315
  0
VERTEX
  8
0
 10
35.053853
 20
13.893124
 42
0.105115
  0
VERTEX
  8
0
 10
40.249729
 20
13.598889
 42
0.079271
  0
VERTEX
  8
0
 10
45.709001
 20
15.354293
 42
0.015721
  0
VERTEX
  8
0
 10
47.674705
 20
16.430087
 42
0.014594
  0
VERTEX
  8
0
 10
49.619262
 20
17.652969
 42
0.014759
  0
VERTEX
  8
0
 10
51.284177
 20
18.841775
 42
0.046637
  0
VERTEX
  8
0
 10
52.292744
 20
19.767886
 42
0.089859
  0
VERTEX
  8
0
 10
53.877637
 20
22.321003
 42
0.068639
  0
VERTEX
  8
0
 10
54.658329
 20
25.521563
 42
0.067136
  0
VERTEX
  8
0
 10
54.550983
 20
28.887445
 42
0.077982
  0
VERTEX
  8
0
 10
53.539306
 20
31.923990
 42
0.112254
  0
VERTEX
  8
0
 10
50.737283
 20
35.245126
 42
0.096854
  0
VERTEX
  8
0
 10
46.626174
 20
37.247766
 42
0.123504
  0
VERTEX
  8
0
 10
42.800625
 20
37.302967
 42
0.248178
  0
VERTEX
  8
0
 10
40.589137
 20
35.371691
 42
0.100185
  0
VERTEX
  8
0
 10
40.344705
 20
33.919040
 42
0.165366
  0
VERTEX
  8
0
 10
40.779632
 20
32.766233
 42
0.098961
  0
VERTEX
  8
0
 10
42.054567
 20
31.724686
 42
0.022986
  0
VERTEX
  8
0
 10
44.568381
 20
30.535875
 42
-0.247338
  0
VERTEX
  8
0
 10
47.285416
 20
27.244337
 42
-0.292832
  0
VERTEX
  8
0
 10
45.871282
 20
23.539213
 42
-0.131967
  0
VERTEX
  8
0
 10
39.805376
 20
21.158258
 42
-0.108603
  0
VERTEX
  8
0
 10
32.866592
 20
21.887693
 42
-0.091485
  0
VERTEX
  8
0
 10
30.072014
 20
23.427317
 42
-0.058223
  0
VERTEX
  8
0
 10
27.483819
 20
26.104709
 42
-0.058944
  0
VERTEX
  8
0
 10
25.620925
 20
29.252376
 42
-0.104539
  0
VERTEX
  8
0
 10
25.000000
 20
32.189756
 42
-0.094484
  0
VERTEX
  8
0
 10
25.877824
 20
36.793629
 42
-0.058302
  0
VERTEX
  8
0
 10
28.496338
 20
41.664182
 42
-0.051853
  0
VERTEX
  8
0
 10
32.568713
 20
46.369875
 42
-0.042776
  0
VERTEX
  8
0
 10
37.779635
 20
50.483912
 42
-0.017810
  0
VERTEX
  8
0
 10
40.492756
 20
52.136871
 42
-0.085217
  0
VERTEX
  8
0
 10
42.194478
 20
52.741803
 42
-0.082189
  0
VERTEX
  8
0
 10
44.029300
 20
52.755598
 42
-0.015919
  0
VERTEX
  8
0
 10
47.297614
 20
52.132706
 42
-0.034006
  0
VERTEX
  8
0
 10
52.009620
 20
50.736083
 42
-0.051991
  0
VERTEX
  8
0
 10
55.825394
 20
48.845463
 42
-0.053796
  0
VERTEX
  8
0
 10
59.076491
 20
46.262360
 42
-0.039762
  0
VERTEX
  8
0
 10
62.081738
 20
42.783090
 42
-0.028489
  0
VERTEX
  8
0
 10
65.131590
 20
38.086978
 42
-0.038823
  0
VERTEX
  8
0
 10
67.287709
 20
33.523850
 42
-0.042531
  0
VERTEX
  8
0
 10
68.568980
 20
29.047802
 42
-0.048484
  0
VERTEX
  8
0
 10
69.000000
 20
24.613261
 42
-0.020621
  0
VERTEX
  8
0
 10
68.876637
 20
21.623264
 42
-0.072251
  0
VERTEX
  8
0
 10
68.444298
 20
19.749133
 42
-0.079688
  0
VERTEX
  8
0
 10
67.520985
 20
18.173338
 42
-0.028628
  0
VERTEX
  8
0
 10
65.750000
 20
16.258134
 42
-0.030483
  0
VERTEX
  8
0
 10
64.178422
 20
14.917358
 42
-0.017089
  0
VERTEX
  8
0
 10
62.121098
 20
13.475799
 42
-0.017002
  0
VERTEX
  8
0
 10
59.935231
 20
12.156538
 42
-0.026471
  0
VERTEX
  8
0
 10
57.960120
 20
11.187572
 42
-0.051456
  0
VERTEX
  8
0
 10
48.906986
 20
8.383762
 42
-0.076141
  0
VERTEX
  8
0
 10
40.619432
 20
8.006204
 42
-0.078244
  0
VERTEX
  8
0
 10
32.764100
 20
10.118062
 42
-0.057707
  0
VERTEX
  8
0
 10
25.000000
 20
14.709947
 42
-0.041580
  0
VERTEX
  8
0
 10
20.906917
 20
18.391307
 42
-0.045797
  0
VERTEX
  8
0
 10
17.623912
 20
22.589545
 42
-0.043178
  0
VERTEX
  8
0
 10
15.014125
 20
27.531868
 42
-0.030678
  0
VERTEX
  8
0
 10
12.933914
 20
33.446486
 42
0.001248
  0
VERTEX
  8
0
 10
12.064723
 20
36.476573
 42
0.000986
  0
VERTEX
  8
0
 10
11.109909
 20
39.749905
 42
0.000997
  0
VERTEX
  8
0
 10
10.211573
 20
42.784794
 42
0.002481
  0
VERTEX
  8
0
 10
9.539073
 20
45.000000
 42
-0.023633
  0
VERTEX
  8
0
 10
8.203772
 20
50.176595
 42
-0.031533
  0
VERTEX
  8
0
 10
7.516198
 20
54.981093
 42
-0.034189
  0
VERTEX
  8
0
 10
7.467689
 20
59.493907
 42
-0.038433
  0
VERTEX
  8
0
 10
8.049317
 20
63.794354
 42
-0.129153
  0
VERTEX
  8
0
 10
11.678790
 20
70.972417
 42
-0.100247
  0
VERTEX
  8
0
 10
18.695900
 20
76.262060
 42
-0.079298
  0
VERTEX
  8
0
 10
28.767787
 20
79.244080
 42
-0.047848
  0
VERTEX
  8
0
 10
41.238383
 20
79.667787
 42
-0.003877
  0
VERTEX
  8
0
 10
49.032215
 20
79.125918
 42
-0.014377
  0
VERTEX
  8
0
 10
53.930551
 20
78.605133
 42
-0.022582
  0
VERTEX
  8
0
 10
57.427424
 20
77.969424
 42
-0.035931
  0
VERTEX
  8
0
 10
60.333916
 20
77.080464
 42
0.023695
  0
VERTEX
  8
0
 10
61.479907
 20
76.699081
 42
0.029223
  0
VERTEX
  8
0
 10
62.579819
 20
76.458359
 42
0.029966
  0
VERTEX
  8
0
 10
63.502085
 20
76.368510
 42
0.148777
  0
VERTEX
  8
0
 10
64.000000
 20
76.500000
 42
-0.150469
  0
VERTEX
  8
0
 10
64.497909
 20
76.629727
 42
-0.030207
  0
VERTEX
  8
0
 10
65.420181
 20
76.533264
 42
-0.029424
  0
VERTEX
  8
0
 10
66.520091
 20
76.283326
 42
-0.023780
  0
VERTEX
  8
0
 10
67.666084
 20
75.891021
 42
0.034883
  0
VERTEX
  8
0
 10
69.072547
 20
75.444153
 42
0.014759
  0
VERTEX
  8
0
 10
71.011137
 20
75.034235
 42
0.014519
  0
VERTEX
  8
0
 10
73.115132
 20
74.716610
 42
0.018401
  0
VERTEX
  8
0
 10
75.073955
 20
74.551685
 42
-0.011667
  0
VERTEX
  8
0
 10
76.900160
 20
74.422665
 42
-0.014130
  0
VERTEX
  8
0
 10
78.604682
 20
74.213462
 42
-0.012759
  0
VERTEX
  8
0
 10
80.018501
 20
73.962178
 42
-0.088268
  0
VERTEX
  8
0
 10
80.670449
 20
73.703674
 42
0.089641
  0
VERTEX
  8
0
 10
81.374729
 20
73.426637
 42
0.007819
  0
VERTEX
  8
0
 10
83.273646
 20
73.080445
 42
0.010071
  0
VERTEX
  8
0
 10
85.569379
 20
72.746263
 42
0.007660
  0
VERTEX
  8
0
 10
88.096493
 20
72.469481
 42
-0.002156
  0
VERTEX
  8
0
 10
90.877315
 20
72.195849
 42
-0.001611
  0
VERTEX
  8
0
 10
93.940845
 20
71.871077
 42
-0.001628
  0
VERTEX
  8
0
 10
96.825435
 20
71.546369
 42
-0.003711
  0
VERTEX
  8
0
 10
99.000000
 20
71.278045
 42
0.019636
  0
VERTEX
  8
0
 10
101.655003
 20
71.035967
 42
0.003082
  0
VERTEX
  8
0
 10
106.903055
 20
70.797040
 42
0.003421
  0
VERTEX
  8
0
 10
113.096683
 20
70.595739
 42
0.002979
  0
VERTEX
  8
0
 10
119.584869
 20
70.467978
 42
-0.005174
  0
VERTEX
  8
0
 10
126.683386
 20
70.297024
 42
-0.011156
  0
VERTEX
  8
0
 10
132.141335
 20
69.987014
 42
-0.011204
  0
VERTEX
  8
0
 10
136.211442
 20
69.572650
 42
-0.092143
  0
VERTEX
  8
0
 10
137.979787
 20
69.010818
 42
0.071308
  0
VERTEX
  8
0
 10
139.358700
 20
68.509003
 42
0.013584
  0
VERTEX
  8
0
 10
141.992127
 20
68.031216
 42
0.014242
  0
VERTEX
  8
0
 10
145.122517
 20
67.641586
 42
0.012666
  0
VERTEX
  8
0
 10
148.394918
 20
67.412085
 42
-0.003257
  0
VERTEX
  8
0
 10
151.916493
 20
67.231618
 42
-0.002427
  0
VERTEX
  8
0
 10
155.799659
 20
66.988329
 42
-0.002453
  0
VERTEX
  8
0
 10
159.458620
 20
66.723214
 42
-0.005569
  0
VERTEX
  8
0
 10
162.220941
 20
66.478458
 42
0.040762
  0
VERTEX
  8
0
 10
168.026187
 20
66.373751
 42
0.070287
  0
VERTEX
  8
0
 10
172.750048
 20
67.349964
 42
0.066697
  0
VERTEX
  8
0
 10
177.183246
 20
69.642893
 42
0.033229
  0
VERTEX
  8
0
 10
182.119611
 20
73.609962
 42
-0.011552
  0
VERTEX
  8
0
 10
185.017868
 20
76.153414
 42
-0.034687
  0
VERTEX
  8
0
 10
187.147737
 20
77.699297
 42
-0.052875
  0
VERTEX
  8
0
 10
188.767940
 20
78.487629
 42
-0.165106
  0
VERTEX
  8
0
 10
189.963874
 20
78.511466
 42
0.057940
  0
VERTEX
  8
0
 10
190.726764
 20
78.363496
 42
0.064566
  0
VERTEX
  8
0
 10
191.474910
 20
78.403277
 42
0.073769
  0
VERTEX
  8
0
 10
192.096060
 20
78.615584
 42
0.135979
  0
VERTEX
  8
0
 10
192.484941
 20
78.975635
 42
-0.086805
  0
VERTEX
  8
0
 10
192.804982
 20
79.335602
 42
-0.094203
  0
VERTEX
  8
0
 10
193.219755
 20
79.553130
 42
-0.100210
  0
VERTEX
  8
0
 10
193.663844
 20
79.595632
 42
-0.112784
  0
VERTEX
  8
0
 10
194.069098
 20
79.457295
 42
0.101161
  0
VERTEX
  8
0
 10
194.516100
 20
79.293144
 42
0.059126
  0
VERTEX
  8
0
 10
195.088571
 20
79.274711
 42
0.055621
  0
VERTEX
  8
0
 10
195.691858
 20
79.395155
 42
0.061425
  0
VERTEX
  8
0
 10
196.232419
 20
79.643643
 42
-0.048600
  0
VERTEX
  8
0
 10
197.296045
 20
80.165921
 42
-0.040034
  0
VERTEX
  8
0
 10
198.511738
 20
80.514578
 42
-0.018109
  0
VERTEX
  8
0
 10
200.445638
 20
80.832747
 42
-0.002180
  0
VERTEX
  8
0
 10
204.734968
 20
81.360780
 42
0.012878
  0
VERTEX
  8
0
 10
206.445965
 20
81.608675
 42
0.014240
  0
VERTEX
  8
0
 10
208.085091
 20
81.937729
 42
0.013705
  0
VERTEX
  8
0
 10
209.463162
 20
82.295489
 42
0.068146
  0
VERTEX
  8
0
 10
210.192666
 20
82.619074
 42
-0.047638
  0
VERTEX
  8
0
 10
210.814165
 20
82.925734
 42
-0.020157
  0
VERTEX
  8
0
 10
211.697005
 20
83.221098
 42
-0.019726
  0
VERTEX
  8
0
 10
212.671977
 20
83.462895
 42
-0.024364
  0
VERTEX
  8
0
 10
213.596793
 20
83.607338
 42
0.033310
  0
VERTEX
  8
0
 10
219.916431
 20
84.710446
 42
0.007326
  0
VERTEX
  8
0
 10
230.585410
 20
87.480862
 42
0.004343
  0
VERTEX
  8
0
 10
241.458113
 20
90.576753
 42
0.095396
  0
VERTEX
  8
0
 10
244.379777
 20
92.084093
 42
-0.019801
  0
VERTEX
  8
0
 10
245.392193
 20
92.817496
 42
-0.022373
  0
VERTEX
  8
0
 10
246.419986
 20
93.437202
 42
-0.022325
  0
VERTEX
  8
0
 10
247.331847
 20
93.881291
 42
-0.102497
  0
VERTEX
  8
0
 10
247.904848
 20
94.000000
 42
0.180358
  0
VERTEX
  8
0
 10
249.807989
 20
94.709576
 42
0.017624
  0
VERTEX
  8
0
 10
253.462247
 20
98.107085
 42
0.023201
  0
VERTEX
  8
0
 10
256.959028
 20
101.935518
 42
0.055561
  0
VERTEX
  8
0
 10
259.072417
 20
105.141948
 42
0.044104
  0
VERTEX
  8
0
 10
260.014736
 20
107.476812
 42
0.037679
  0
VERTEX
  8
0
 10
260.594326
 20
110.067185
 42
0.027191
  0
VERTEX
  8
0
 10
260.897086
 20
113.406008
 42
0.009607
  0
VERTEX
  8
0
 10
260.978038
 20
118.210162
 42
0.028295
  0
VERTEX
  8
0
 10
260.518214
 20
126.002701
 42
0.074258
  0
VERTEX
  8
0
 10
259.061656
 20
131.396316
 42
0.069353
  0
VERTEX
  8
0
 10
256.027788
 20
136.339239
 42
0.022373
  0
VERTEX
  8
0
 10
250.259386
 20
142.736986
 42
0.026695
  0
VERTEX
  8
0
 10
243.870570
 20
148.558429
 42
0.050429
  0
VERTEX
  8
0
 10
238.064374
 20
152.402552
 42
0.057481
  0
VERTEX
  8
0
 10
232.155018
 20
154.689194
 42
0.047857
  0
VERTEX
  8
0
 10
225.500000
 20
155.754518
 42
0.011467
  0
VERTEX
  8
0
 10
221.269558
 20
155.924495
 42
0.059917
  0
VERTEX
  8
0
 10
218.954387
 20
155.686435
 42
0.076756
  0
VERTEX
  8
0
 10
217.030950
 20
154.928502
 42
0.025789
  0
SEQEND
  0
ENDSEC
  0
EOF
