  0
SECTION
  2
HEADER
  9
$ACADVER
  1
AC1006
  9
$EXTMIN
 10
0.000000
 20
0.000000
 30
0.000000
  9
$EXTMAX
 10
120.000000
 20
87.000000
 30
0.000000
  0
ENDSEC
  0
SECTION
  2
ENTITIES
  0
POLYLINE
  8
0
 66
1
 70
1
  0
VERTEX
  8
0
 10
12.454545
 20
84.545455
 42
0.065276
  0
VERTEX
  8
0
 10
10.816405
 20
82.412945
 42
0.106974
  0
VERTEX
  8
0
 10
10.121141
 20
80.253829
 42
0.097274
  0
VERTEX
  8
0
 10
10.351123
 20
77.854178
 42
0.046976
  0
VERTEX
  8
0
 10
11.510350
 20
74.979984
 42
0.054655
  0
VERTEX
  8
0
 10
12.928217
 20
72.846016
 42
0.071191
  0
VERTEX
  8
0
 10
14.669246
 20
71.278497
 42
0.075561
  0
VERTEX
  8
0
 10
16.690950
 20
70.326653
 42
0.072424
  0
VERTEX
  8
0
 10
18.934259
 20
70.000000
 42
-0.067610
  0
VERTEX
  8
0
 10
19.854907
 20
69.874939
 42
-0.128372
  0
VERTEX
  8
0
 10
20.497651
 20
69.502327
 42
-0.129278
  0
VERTEX
  8
0
 10
20.873460
 20
68.865232
 42
-0.069063
  0
VERTEX
  8
0
 10
21.000000
 20
67.953490
 42
0.108778
  0
VERTEX
  8
0
 10
21.211662
 20
66.992098
 42
0.065194
  0
VERTEX
  8
0
 10
21.839129
 20
65.999261
 42
0.055127
  0
VERTEX
  8
0
 10
22.828595
 20
65.045858
 42
0.039225
  0
VERTEX
  8
0
 10
24.119143
 20
64.203490
 42
-0.041026
  0
VERTEX
  8
0
 10
27.643033
 20
61.885260
 42
-0.008442
  0
VERTEX
  8
0
 10
33.428427
 20
57.199447
 42
-0.003225
  0
VERTEX
  8
0
 10
39.453371
 20
52.082282
 42
-0.218438
  0
VERTEX
  8
0
 10
40.000000
 20
50.890764
 42
-0.277527
  0
VERTEX
  8
0
 10
39.783656
 20
50.531014
 42
-0.012927
  0
VERTEX
  8
0
 10
38.457812
 20
49.870678
 42
-0.018261
  0
VERTEX
  8
0
 10
36.762114
 20
49.154315
 42
-0.011760
  0
VERTEX
  8
0
 10
34.750000
 20
48.443280
 42
0.015848
  0
VERTEX
  8
0
 10
28.468981
 20
46.165789
 42
0.057768
  0
VERTEX
  8
0
 10
24.743364
 20
44.154812
 42
0.081496
  0
VERTEX
  8
0
 10
22.271857
 20
41.743861
 42
0.055526
  0
VERTEX
  8
0
 10
20.302553
 20
38.337881
 42
0.005782
  0
VERTEX
  8
0
 10
17.466174
 20
31.661369
 42
0.012670
  0
VERTEX
  8
0
 10
15.484950
 20
26.473843
 42
0.015878
  0
VERTEX
  8
0
 10
14.074582
 20
22.036359
 42
0.018665
  0
VERTEX
  8
0
 10
13.031747
 20
17.750000
 42
0.000000
  0
VERTEX
  8
0
 10
11.858204
 20
12.000000
 42
0.000000
  0
VERTEX
  8
0
 10
6.488119
 20
12.000000
 42
0.018789
  0
VERTEX
  8
0
 10
4.382505
 20
11.920845
 42
0.025626
  0
VERTEX
  8
0
 10
2.498632
 20
11.681466
 42
0.024316
  0
VERTEX
  8
0
 10
1.008680
 20
11.338484
 42
0.187746
  0
VERTEX
  8
0
 10
0.447855
 20
10.915628
 42
0.332491
  0
VERTEX
  8
0
 10
0.563229
 20
9.614062
 42
0.029629
  0
VERTEX
  8
0
 10
3.045224
 20
7.153020
 42
0.031205
  0
VERTEX
  8
0
 10
6.545179
 20
4.439331
 42
0.023954
  0
VERTEX
  8
0
 10
10.672490
 20
1.913169
 42
0.054070
  0
VERTEX
  8
0
 10
14.371837
 20
0.378214
 42
0.260425
  0
VERTEX
  8
0
 10
16.513707
 20
0.866767
 42
0.183686
  0
VERTEX
  8
0
 10
17.705653
 20
3.192028
 42
0.027597
  0
VERTEX
  8
0
 10
18.000000
 20
8.520899
 42
-0.021005
  0
VERTEX
  8
0
 10
18.144699
 20
11.963790
 42
-0.040433
  0
VERTEX
  8
0
 10
18.597415
 20
14.685459
 42
-0.039857
  0
VERTEX
  8
0
 10
19.487403
 20
17.323970
 42
-0.019818
  0
VERTEX
  8
0
 10
21.006351
 20
20.512073
 42
0.017059
  0
VERTEX
  8
0
 10
22.203741
 20
22.989976
 42
0.014025
  0
VERTEX
  8
0
 10
23.315292
 20
25.709746
 42
0.014258
  0
VERTEX
  8
0
 10
24.195456
 20
28.267562
 42
0.036100
  0
VERTEX
  8
0
 10
24.644891
 20
30.180730
 42
-0.057197
  0
VERTEX
  8
0
 10
25.761180
 20
34.170162
 42
-0.171622
  0
VERTEX
  8
0
 10
27.614567
 20
36.253566
 42
-0.084404
  0
VERTEX
  8
0
 10
31.198854
 20
37.503009
 42
-0.007841
  0
VERTEX
  8
0
 10
40.500000
 20
38.921358
 42
-0.010842
  0
VERTEX
  8
0
 10
49.899488
 20
39.997186
 42
-0.086010
  0
VERTEX
  8
0
 10
54.246118
 20
39.651680
 42
-0.103573
  0
VERTEX
  8
0
 10
57.883968
 20
37.861398
 42
-0.018860
  0
VERTEX
  8
0
 10
63.654838
 20
32.986292
 42
0.011783
  0
VERTEX
  8
0
 10
67.767832
 20
29.410770
 42
0.028398
  0
VERTEX
  8
0
 10
71.012737
 20
27.018620
 42
0.035200
  0
VERTEX
  8
0
 10
74.046246
 20
25.329330
 42
0.030765
  0
VERTEX
  8
0
 10
77.424470
 20
23.994785
 42
-0.001181
  0
VERTEX
  8
0
 10
80.278202
 20
23.058331
 42
-0.000591
  0
VERTEX
  8
0
 10
83.883452
 20
21.861094
 42
-0.000587
  0
VERTEX
  8
0
 10
87.612076
 20
20.613131
 42
-0.000866
  0
VERTEX
  8
0
 10
90.880898
 20
19.508493
 42
0.007917
  0
VERTEX
  8
0
 10
93.862139
 20
18.547661
 42
0.009310
  0
VERTEX
  8
0
 10
96.716143
 20
17.735231
 42
0.008368
  0
VERTEX
  8
0
 10
99.144438
 20
17.135910
 42
0.055708
  0
VERTEX
  8
0
 10
100.380898
 20
16.994423
 42
-0.054473
  0
VERTEX
  8
0
 10
104.181209
 20
16.569041
 42
-0.065358
  0
VERTEX
  8
0
 10
107.558004
 20
15.333209
 42
-0.061254
  0
VERTEX
  8
0
 10
110.666505
 20
13.189536
 42
-0.040477
  0
VERTEX
  8
0
 10
113.671164
 20
10.052246
 42
0.011804
  0
VERTEX
  8
0
 10
115.706111
 20
7.667916
 42
0.051886
  0
VERTEX
  8
0
 10
117.074085
 20
6.426322
 42
0.116053
  0
VERTEX
  8
0
 10
118.070064
 20
6.002580
 42
0.243810
  0
VERTEX
  8
0
 10
118.849899
 20
6.249899
 42
0.175155
  0
VERTEX
  8
0
 10
119.755150
 20
8.179744
 42
0.022951
  0
VERTEX
  8
0
 10
119.966575
 20
12.780558
 42
0.026515
  0
VERTEX
  8
0
 10
119.718277
 20
17.461949
 42
0.094909
  0
VERTEX
  8
0
 10
118.850296
 20
20.315741
 42
0.048463
  0
VERTEX
  8
0
 10
117.587485
 20
22.237489
 42
0.111683
  0
VERTEX
  8
0
 10
116.239923
 20
23.305414
 42
0.088328
  0
VERTEX
  8
0
 10
114.359526
 20
23.828868
 42
0.022937
  0
VERTEX
  8
0
 10
111.210162
 20
23.984687
 42
-0.037320
  0
VERTEX
  8
0
 10
109.280855
 20
24.135820
 42
-0.022215
  0
VERTEX
  8
0
 10
107.019959
 20
24.587547
 42
-0.022163
  0
VERTEX
  8
0
 10
104.794153
 20
25.241936
 42
-0.035385
  0
VERTEX
  8
0
 10
102.969670
 20
26.015473
 42
0.016859
  0
VERTEX
  8
0
 10
100.873361
 20
26.997331
 42
0.005009
  0
VERTEX
  8
0
 10
97.606416
 20
28.356657
 42
0.005019
  0
VERTEX
  8
0
 10
93.902874
 20
29.811217
 42
0.005399
  0
VERTEX
  8
0
 10
90.259509
 20
31.155222
 42
-0.013199
  0
VERTEX
  8
0
 10
85.600795
 20
32.956831
 42
-0.033289
  0
VERTEX
  8
0
 10
82.347347
 20
34.576678
 42
-0.039797
  0
VERTEX
  8
0
 10
79.691763
 20
36.425063
 42
-0.027693
  0
VERTEX
  8
0
 10
77.000000
 20
38.897657
 42
0.010909
  0
VERTEX
  8
0
 10
74.945760
 20
40.915816
 42
0.007034
  0
VERTEX
  8
0
 10
72.483026
 20
43.167466
 42
0.007070
  0
VERTEX
  8
0
 10
70.011317
 20
45.302502
 42
0.013213
  0
VERTEX
  8
0
 10
67.942215
 20
46.948102
 42
-0.028136
  0
VERTEX
  8
0
 10
65.995643
 20
48.593386
 42
-0.017835
  0
VERTEX
  8
0
 10
63.912044
 20
50.711597
 42
-0.017907
  0
VERTEX
  8
0
 10
62.008811
 20
52.945297
 42
-0.031338
  0
VERTEX
  8
0
 10
60.622779
 20
54.940194
 42
0.016996
  0
VERTEX
  8
0
 10
57.985053
 20
58.978965
 42
0.029119
  0
VERTEX
  8
0
 10
55.484748
 20
62.129968
 42
0.027649
  0
VERTEX
  8
0
 10
52.544802
 20
65.076575
 42
0.013656
  0
VERTEX
  8
0
 10
48.512679
 20
68.500000
 42
-0.003154
  0
VERTEX
  8
0
 10
46.360492
 20
70.250855
 42
-0.002359
  0
VERTEX
  8
0
 10
44.010302
 20
72.206250
 42
-0.002384
  0
VERTEX
  8
0
 10
41.814176
 20
74.069003
 42
-0.005445
  0
VERTEX
  8
0
 10
40.179665
 20
75.500000
 42
0.020619
  0
VERTEX
  8
0
 10
37.363523
 20
77.818425
 42
0.061637
  0
VERTEX
  8
0
 10
35.207634
 20
79.065478
 42
0.067429
  0
VERTEX
  8
0
 10
32.923315
 20
79.689439
 42
0.028333
  0
VERTEX
  8
0
 10
29.740213
 20
79.929715
 42
-0.035681
  0
VERTEX
  8
0
 10
27.967256
 20
80.089755
 42
-0.054130
  0
VERTEX
  8
0
 10
26.476602
 20
80.501516
 42
-0.060967
  0
VERTEX
  8
0
 10
25.243699
 20
81.174168
 42
-0.065164
  0
VERTEX
  8
0
 10
24.240213
 20
82.111591
 42
0.011252
  0
VERTEX
  8
0
 10
21.925913
 20
84.794431
 42
0.054349
  0
VERTEX
  8
0
 10
20.424575
 20
86.132395
 42
0.089446
  0
VERTEX
  8
0
 10
19.053211
 20
86.779536
 42
0.065718
  0
VERTEX
  8
0
 10
17.383117
 20
87.000000
 42
0.077497
  0
VERTEX
  8
0
 10
16.258691
 20
86.824668
 42
0.038193
  0
VERTEX
  8
0
 10
14.914813
 20
86.278977
 42
0.036725
  0
VERTEX
  8
0
 10
13.576269
 20
85.484813
 42
0.044154
  0
SEQEND
  0
ENDSEC
  0
EOF
