  0
SECTION
  2
HEADER
  9
$ACADVER
  1
AC1006
  9
$EXTMIN
 10
0.000000
 20
0.000000
 30
0.000000
  9
$EXTMAX
 10
102.000000
 20
99.000000
 30
0.000000
  0
ENDSEC
  0
SECTION
  2
ENTITIES
  0
POLYLINE
  8
0
 66
1
 70
1
  0
VERTEX
  8
0
 10
2.978737
 20
96.132583
 42
0.022866
  0
VERTEX
  8
0
 10
1.838498
 20
94.882994
 42
0.026458
  0
VERTEX
  8
0
 10
0.875004
 20
93.591741
 42
0.026933
  0
VERTEX
  8
0
 10
0.186884
 20
92.428773
 42
0.120690
  0
VERTEX
  8
0
 10
0.000000
 20
91.665817
 42
0.186295
  0
VERTEX
  8
0
 10
0.664525
 20
89.944189
 42
0.035744
  0
VERTEX
  8
0
 10
3.129604
 20
87.589006
 42
0.037271
  0
VERTEX
  8
0
 10
5.959396
 20
85.583122
 42
0.136369
  0
VERTEX
  8
0
 10
8.057673
 20
85.000000
 42
-0.141297
  0
VERTEX
  8
0
 10
9.210025
 20
84.667718
 42
-0.139773
  0
VERTEX
  8
0
 10
10.014316
 20
83.771834
 42
-0.064562
  0
VERTEX
  8
0
 10
10.615379
 20
81.987312
 42
-0.011502
  0
VERTEX
  8
0
 10
11.222451
 20
78.511993
 42
0.189637
  0
VERTEX
  8
0
 10
12.175043
 20
76.866454
 42
0.029078
  0
VERTEX
  8
0
 10
15.328154
 20
74.648206
 42
0.016483
  0
VERTEX
  8
0
 10
20.963253
 20
71.406955
 42
0.002616
  0
VERTEX
  8
0
 10
32.250000
 20
65.476568
 42
-0.009695
  0
VERTEX
  8
0
 10
36.030574
 20
63.421323
 42
-0.058265
  0
VERTEX
  8
0
 10
37.830783
 20
62.098456
 42
-0.113587
  0
VERTEX
  8
0
 10
38.696095
 20
60.818487
 42
-0.092326
  0
VERTEX
  8
0
 10
39.000000
 20
59.186694
 42
-0.069498
  0
VERTEX
  8
0
 10
38.786157
 20
57.655651
 42
-0.114273
  0
VERTEX
  8
0
 10
38.156242
 20
56.516463
 42
-0.077426
  0
VERTEX
  8
0
 10
36.897078
 20
55.490736
 42
-0.019199
  0
VERTEX
  8
0
 10
34.543273
 20
54.233286
 42
0.032182
  0
VERTEX
  8
0
 10
32.559171
 20
53.106218
 42
0.036220
  0
VERTEX
  8
0
 10
30.817553
 20
51.773014
 42
0.038870
  0
VERTEX
  8
0
 10
29.403815
 20
50.307273
 42
0.053966
  0
VERTEX
  8
0
 10
28.401878
 20
48.784020
 42
-0.012582
  0
VERTEX
  8
0
 10
27.621484
 20
47.352625
 42
-0.008579
  0
VERTEX
  8
0
 10
26.666116
 20
45.764129
 42
-0.008650
  0
VERTEX
  8
0
 10
25.691237
 20
44.262846
 42
-0.017198
  0
VERTEX
  8
0
 10
24.858605
 20
43.115141
 42
0.106007
  0
VERTEX
  8
0
 10
23.379241
 20
40.058769
 42
0.091964
  0
VERTEX
  8
0
 10
23.179117
 20
36.498316
 42
0.064744
  0
VERTEX
  8
0
 10
24.335558
 20
32.090376
 42
0.025340
  0
VERTEX
  8
0
 10
27.000000
 20
26.379690
 42
-0.012824
  0
VERTEX
  8
0
 10
28.953280
 20
22.452775
 42
-0.030559
  0
VERTEX
  8
0
 10
30.145823
 20
19.421602
 42
-0.038915
  0
VERTEX
  8
0
 10
30.785141
 20
16.762370
 42
-0.039557
  0
VERTEX
  8
0
 10
31.000000
 20
14.050834
 42
-0.017447
  0
VERTEX
  8
0
 10
30.893411
 20
10.997076
 42
-0.135012
  0
VERTEX
  8
0
 10
30.423876
 20
9.662003
 42
-0.133664
  0
VERTEX
  8
0
 10
29.335847
 20
8.748429
 42
-0.016976
  0
VERTEX
  8
0
 10
26.488587
 20
7.548792
 42
0.024458
  0
VERTEX
  8
0
 10
24.692810
 20
6.760344
 42
0.026290
  0
VERTEX
  8
0
 10
23.026837
 20
5.817079
 42
0.027078
  0
VERTEX
  8
0
 10
21.694268
 20
4.861914
 42
0.101182
  0
VERTEX
  8
0
 10
21.039082
 20
4.073026
 42
0.124628
  0
VERTEX
  8
0
 10
20.800134
 20
3.110862
 42
0.241302
  0
VERTEX
  8
0
 10
21.155554
 20
2.424998
 42
0.087875
  0
VERTEX
  8
0
 10
22.326431
 20
1.868272
 42
0.010421
  0
VERTEX
  8
0
 10
25.126785
 20
1.160093
 42
0.024741
  0
VERTEX
  8
0
 10
31.651514
 20
-0.009568
 42
0.121794
  0
VERTEX
  8
0
 10
35.338134
 20
0.414348
 42
0.212490
  0
VERTEX
  8
0
 10
37.299602
 20
2.337871
 42
0.096249
  0
VERTEX
  8
0
 10
37.973730
 20
5.950000
 42
0.048340
  0
VERTEX
  8
0
 10
37.591724
 20
9.609725
 42
0.007143
  0
VERTEX
  8
0
 10
36.004498
 20
16.881721
 42
0.007996
  0
VERTEX
  8
0
 10
33.861962
 20
25.444783
 42
0.006793
  0
VERTEX
  8
0
 10
31.333218
 20
34.415797
 42
-0.005597
  0
VERTEX
  8
0
 10
30.246849
 20
38.234819
 42
-0.073979
  0
VERTEX
  8
0
 10
30.074321
 20
39.686912
 42
-0.187349
  0
VERTEX
  8
0
 10
30.454332
 20
40.586138
 42
-0.073995
  0
VERTEX
  8
0
 10
31.539290
 20
41.415797
 42
0.042503
  0
VERTEX
  8
0
 10
32.534187
 20
42.082038
 42
0.010925
  0
VERTEX
  8
0
 10
34.018868
 20
43.324658
 42
0.011043
  0
VERTEX
  8
0
 10
35.656293
 20
44.822212
 42
0.011022
  0
VERTEX
  8
0
 10
37.227067
 20
46.391549
 42
-0.007580
  0
VERTEX
  8
0
 10
39.413446
 20
48.606214
 42
-0.085821
  0
VERTEX
  8
0
 10
40.422719
 20
49.304790
 42
-0.314298
  0
VERTEX
  8
0
 10
41.055465
 20
49.193030
 42
-0.122267
  0
VERTEX
  8
0
 10
41.539830
 20
48.391549
 42
0.008272
  0
VERTEX
  8
0
 10
41.880646
 20
47.352043
 42
0.001840
  0
VERTEX
  8
0
 10
42.499176
 20
45.586893
 42
0.001910
  0
VERTEX
  8
0
 10
43.229059
 20
43.552974
 42
0.001843
  0
VERTEX
  8
0
 10
43.983222
 20
41.500000
 42
-0.003406
  0
VERTEX
  8
0
 10
44.746356
 20
39.402363
 42
-0.003128
  0
VERTEX
  8
0
 10
45.503151
 20
37.234375
 42
-0.003125
  0
VERTEX
  8
0
 10
46.153994
 20
35.292174
 42
-0.010294
  0
VERTEX
  8
0
 10
46.548769
 20
34.000000
 42
0.034317
  0
VERTEX
  8
0
 10
47.792357
 20
30.534389
 42
0.030865
  0
VERTEX
  8
0
 10
49.536537
 20
27.141529
 42
0.031500
  0
VERTEX
  8
0
 10
51.443079
 20
24.351948
 42
0.104601
  0
VERTEX
  8
0
 10
53.133607
 20
22.928496
 42
0.100720
  0
VERTEX
  8
0
 10
54.505330
 20
22.518209
 42
0.109708
  0
VERTEX
  8
0
 10
55.883872
 20
22.696571
 42
0.056239
  0
VERTEX
  8
0
 10
57.707388
 20
23.599058
 42
0.009936
  0
VERTEX
  8
0
 10
60.880341
 20
25.731820
 42
-0.032922
  0
VERTEX
  8
0
 10
67.004438
 20
29.451676
 42
-0.056001
  0
VERTEX
  8
0
 10
72.588300
 20
31.605551
 42
-0.047135
  0
VERTEX
  8
0
 10
79.151678
 20
32.678635
 42
-0.016967
  0
VERTEX
  8
0
 10
88.619122
 20
33.000000
 42
0.006427
  0
VERTEX
  8
0
 10
93.881834
 20
33.067652
 42
0.014643
  0
VERTEX
  8
0
 10
97.849324
 20
33.286053
 42
0.011678
  0
VERTEX
  8
0
 10
100.803336
 20
33.605227
 42
0.225257
  0
VERTEX
  8
0
 10
101.557462
 20
34.092975
 42
0.246718
  0
VERTEX
  8
0
 10
101.688280
 20
35.964120
 42
0.017833
  0
VERTEX
  8
0
 10
99.360344
 20
40.787792
 42
0.023332
  0
VERTEX
  8
0
 10
96.630757
 20
45.425657
 42
0.103403
  0
VERTEX
  8
0
 10
94.406153
 20
47.653448
 42
0.120359
  0
VERTEX
  8
0
 10
92.292125
 20
48.402384
 42
0.128495
  0
VERTEX
  8
0
 10
90.126480
 20
48.064699
 42
0.068080
  0
VERTEX
  8
0
 10
87.400045
 20
46.407246
 42
0.014416
  0
VERTEX
  8
0
 10
83.175146
 20
42.768459
 42
-0.041002
  0
VERTEX
  8
0
 10
78.755887
 20
39.353679
 42
-0.037361
  0
VERTEX
  8
0
 10
73.702979
 20
36.585196
 42
-0.038434
  0
VERTEX
  8
0
 10
68.465727
 20
34.675171
 42
-0.051926
  0
VERTEX
  8
0
 10
63.500000
 20
33.827269
 42
0.000000
  0
VERTEX
  8
0
 10
58.500000
 20
33.500000
 42
0.000000
  0
VERTEX
  8
0
 10
58.000000
 20
49.000000
 42
0.004536
  0
VERTEX
  8
0
 10
57.667446
 20
57.044014
 42
0.017599
  0
VERTEX
  8
0
 10
57.241080
 20
62.013667
 42
0.028380
  0
VERTEX
  8
0
 10
56.638254
 20
65.373659
 42
0.066542
  0
VERTEX
  8
0
 10
55.724320
 20
67.750000
 42
0.020197
  0
VERTEX
  8
0
 10
54.977464
 20
68.994714
 42
0.027678
  0
VERTEX
  8
0
 10
54.201487
 20
70.045312
 42
0.027050
  0
VERTEX
  8
0
 10
53.491491
 20
70.814203
 42
0.195203
  0
VERTEX
  8
0
 10
53.033717
 20
71.000000
 42
-0.170026
  0
VERTEX
  8
0
 10
52.444966
 20
71.206166
 42
-0.004195
  0
VERTEX
  8
0
 10
50.192322
 20
73.035445
 42
-0.008606
  0
VERTEX
  8
0
 10
47.575805
 20
75.273752
 42
-0.005697
  0
VERTEX
  8
0
 10
44.645668
 20
77.929176
 42
0.020809
  0
VERTEX
  8
0
 10
39.431122
 20
82.375408
 42
0.050644
  0
VERTEX
  8
0
 10
35.163438
 20
85.070224
 42
0.063125
  0
VERTEX
  8
0
 10
31.057091
 20
86.504044
 42
0.052055
  0
VERTEX
  8
0
 10
26.441130
 20
86.994423
 42
-0.067780
  0
VERTEX
  8
0
 10
23.729294
 20
87.368776
 42
-0.101931
  0
VERTEX
  8
0
 10
21.613831
 20
88.458548
 42
-0.079122
  0
VERTEX
  8
0
 10
19.750263
 20
90.524130
 42
-0.027788
  0
VERTEX
  8
0
 10
17.757562
 20
94.000000
 42
0.019015
  0
VERTEX
  8
0
 10
16.265754
 20
96.711265
 42
0.107928
  0
VERTEX
  8
0
 10
15.142114
 20
97.902835
 42
0.112784
  0
VERTEX
  8
0
 10
13.646832
 20
98.491571
 42
0.021627
  0
VERTEX
  8
0
 10
10.728737
 20
98.805660
 42
0.022281
  0
VERTEX
  8
0
 10
8.001161
 20
98.858635
 42
0.076901
  0
VERTEX
  8
0
 10
6.266338
 20
98.545394
 42
0.083840
  0
VERTEX
  8
0
 10
4.787878
 20
97.738811
 42
0.029680
  0
SEQEND
  0
ENDSEC
  0
EOF
