  0
SECTION
  2
HEADER
  9
$ACADVER
  1
AC1006
  9
$EXTMIN
 10
0.000000
 20
0.000000
 30
0.000000
  9
$EXTMAX
 10
111.000000
 20
117.000000
 30
0.000000
  0
ENDSEC
  0
SECTION
  2
ENTITIES
  0
POLYLINE
  8
0
 66
1
 70
1
  0
VERTEX
  8
0
 10
4.749978
 20
115.961064
 42
0.094686
  0
VERTEX
  8
0
 10
3.141316
 20
114.510953
 42
0.039687
  0
VERTEX
  8
0
 10
1.563563
 20
112.044266
 42
0.039714
  0
VERTEX
  8
0
 10
0.379580
 20
109.322610
 42
0.082925
  0
VERTEX
  8
0
 10
0.000000
 20
107.049660
 42
0.128349
  0
VERTEX
  8
0
 10
0.627731
 20
104.644540
 42
0.110592
  0
VERTEX
  8
0
 10
2.375805
 20
102.694717
 42
0.092174
  0
VERTEX
  8
0
 10
5.094186
 20
101.428929
 42
0.063072
  0
VERTEX
  8
0
 10
8.480948
 20
101.000000
 42
-0.048564
  0
VERTEX
  8
0
 10
11.587522
 20
100.697550
 42
-0.210839
  0
VERTEX
  8
0
 10
13.069807
 20
99.662227
 42
-0.113582
  0
VERTEX
  8
0
 10
13.807489
 20
97.431093
 42
-0.010192
  0
VERTEX
  8
0
 10
14.238687
 20
91.513587
 42
0.019684
  0
VERTEX
  8
0
 10
14.522292
 20
88.430204
 42
0.111146
  0
VERTEX
  8
0
 10
15.089019
 20
86.889464
 42
0.109321
  0
VERTEX
  8
0
 10
16.265248
 20
85.727799
 42
0.018757
  0
VERTEX
  8
0
 10
19.000000
 20
84.147859
 42
-0.009489
  0
VERTEX
  8
0
 10
21.098099
 20
82.987045
 42
-0.004689
  0
VERTEX
  8
0
 10
23.720312
 20
81.437566
 42
-0.004651
  0
VERTEX
  8
0
 10
26.411792
 20
79.778565
 42
-0.006779
  0
VERTEX
  8
0
 10
28.750000
 20
78.262494
 42
-0.013407
  0
VERTEX
  8
0
 10
31.729962
 20
76.154749
 42
-0.072023
  0
VERTEX
  8
0
 10
33.130556
 20
74.751844
 42
-0.109394
  0
VERTEX
  8
0
 10
33.787131
 20
73.292791
 42
-0.051278
  0
VERTEX
  8
0
 10
34.000000
 20
71.222613
 42
-0.096979
  0
VERTEX
  8
0
 10
33.302273
 20
67.659152
 42
-0.073717
  0
VERTEX
  8
0
 10
31.272530
 20
64.225517
 42
-0.066359
  0
VERTEX
  8
0
 10
28.092243
 20
61.219532
 42
-0.054667
  0
VERTEX
  8
0
 10
24.027116
 20
58.916319
 42
0.029038
  0
VERTEX
  8
0
 10
20.188348
 20
56.993719
 42
0.070461
  0
VERTEX
  8
0
 10
17.696258
 20
55.047318
 42
0.082957
  0
VERTEX
  8
0
 10
16.083529
 20
52.697590
 42
0.053587
  0
VERTEX
  8
0
 10
15.015169
 20
49.567256
 42
0.047409
  0
VERTEX
  8
0
 10
14.737659
 20
47.395264
 42
0.085340
  0
VERTEX
  8
0
 10
14.983862
 20
45.621682
 42
0.056709
  0
VERTEX
  8
0
 10
15.896276
 20
43.586745
 42
0.011660
  0
VERTEX
  8
0
 10
17.983163
 20
40.244143
 42
0.020069
  0
VERTEX
  8
0
 10
19.864697
 20
37.617325
 42
0.009955
  0
VERTEX
  8
0
 10
22.447379
 20
34.434038
 42
0.009863
  0
VERTEX
  8
0
 10
25.259820
 20
31.235429
 42
0.014254
  0
VERTEX
  8
0
 10
27.879173
 20
28.531303
 42
-0.010527
  0
VERTEX
  8
0
 10
31.078892
 20
25.276912
 42
-0.042217
  0
VERTEX
  8
0
 10
32.814398
 20
23.093012
 42
-0.069093
  0
VERTEX
  8
0
 10
33.697483
 20
21.260859
 42
-0.077950
  0
VERTEX
  8
0
 10
34.000000
 20
19.332195
 42
-0.052808
  0
VERTEX
  8
0
 10
33.817642
 20
17.610403
 42
-0.081274
  0
VERTEX
  8
0
 10
33.272539
 20
16.218349
 42
-0.068429
  0
VERTEX
  8
0
 10
32.234278
 20
14.913378
 42
-0.027628
  0
VERTEX
  8
0
 10
30.500000
 20
13.432202
 42
0.032458
  0
VERTEX
  8
0
 10
29.143648
 20
12.250972
 42
0.037010
  0
VERTEX
  8
0
 10
28.014608
 20
10.951729
 42
0.040447
  0
VERTEX
  8
0
 10
27.236448
 20
9.712153
 42
0.120512
  0
VERTEX
  8
0
 10
27.000000
 20
8.745387
 42
0.082886
  0
VERTEX
  8
0
 10
27.178131
 20
7.678209
 42
0.234442
  0
VERTEX
  8
0
 10
27.700601
 20
7.161925
 42
0.104484
  0
VERTEX
  8
0
 10
28.775090
 20
7.042529
 42
0.011490
  0
VERTEX
  8
0
 10
31.250000
 20
7.342276
 42
0.030862
  0
VERTEX
  8
0
 10
37.997640
 20
8.746731
 42
0.043733
  0
VERTEX
  8
0
 10
43.746602
 20
10.873479
 42
0.051625
  0
VERTEX
  8
0
 10
47.805717
 20
13.333704
 42
0.235168
  0
VERTEX
  8
0
 10
48.997989
 20
15.735302
 42
0.133993
  0
VERTEX
  8
0
 10
48.360236
 20
18.061924
 42
0.007994
  0
VERTEX
  8
0
 10
44.519472
 20
24.327405
 42
0.010353
  0
VERTEX
  8
0
 10
40.517381
 20
30.348562
 42
0.081241
  0
VERTEX
  8
0
 10
38.187269
 20
32.754196
 42
-0.033233
  0
VERTEX
  8
0
 10
34.797531
 20
35.642290
 42
-0.010654
  0
VERTEX
  8
0
 10
30.155611
 20
40.359185
 42
-0.004767
  0
VERTEX
  8
0
 10
25.534523
 20
45.354054
 42
-0.186367
  0
VERTEX
  8
0
 10
25.000000
 20
46.738305
 42
-0.277751
  0
VERTEX
  8
0
 10
25.885186
 20
48.208863
 42
-0.059245
  0
VERTEX
  8
0
 10
28.788417
 20
49.330769
 42
-0.037312
  0
VERTEX
  8
0
 10
33.517846
 20
50.170945
 42
-0.012600
  0
VERTEX
  8
0
 10
40.500000
 20
50.702785
 42
0.000000
  0
VERTEX
  8
0
 10
50.500000
 20
51.211472
 42
0.000000
  0
VERTEX
  8
0
 10
60.416650
 20
41.355736
 42
0.010063
  0
VERTEX
  8
0
 10
66.490335
 20
35.557596
 42
0.028961
  0
VERTEX
  8
0
 10
71.002646
 20
31.877495
 42
0.026658
  0
VERTEX
  8
0
 10
76.110300
 20
28.582320
 42
0.007497
  0
VERTEX
  8
0
 10
84.416650
 20
23.994178
 42
0.000000
  0
VERTEX
  8
0
 10
98.500000
 20
16.488356
 42
0.000000
  0
VERTEX
  8
0
 10
98.555399
 20
9.238779
 42
0.013593
  0
VERTEX
  8
0
 10
98.654861
 20
6.384024
 42
0.018160
  0
VERTEX
  8
0
 10
98.909377
 20
3.803912
 42
0.015518
  0
VERTEX
  8
0
 10
99.259826
 20
1.708042
 42
0.148244
  0
VERTEX
  8
0
 10
99.682636
 20
0.917364
 42
0.351908
  0
VERTEX
  8
0
 10
101.434925
 20
0.726225
 42
0.049985
  0
VERTEX
  8
0
 10
104.485590
 20
3.133135
 42
0.046960
  0
VERTEX
  8
0
 10
107.527315
 20
6.678609
 42
0.062685
  0
VERTEX
  8
0
 10
109.521579
 20
10.417333
 42
0.037358
  0
VERTEX
  8
0
 10
110.623244
 20
14.107359
 42
0.086534
  0
VERTEX
  8
0
 10
110.746526
 20
16.985460
 42
0.121562
  0
VERTEX
  8
0
 10
109.914889
 20
19.118419
 42
0.124681
  0
VERTEX
  8
0
 10
108.192632
 20
20.595783
 42
-0.067591
  0
VERTEX
  8
0
 10
107.012765
 20
21.395898
 42
-0.013854
  0
VERTEX
  8
0
 10
105.180931
 20
23.132047
 42
-0.014349
  0
VERTEX
  8
0
 10
103.150784
 20
25.286041
 42
-0.013048
  0
VERTEX
  8
0
 10
101.180166
 20
27.620815
 42
0.022513
  0
VERTEX
  8
0
 10
98.502974
 20
30.673615
 42
0.032450
  0
VERTEX
  8
0
 10
95.853239
 20
33.097732
 42
0.030658
  0
VERTEX
  8
0
 10
92.798401
 20
35.254657
 42
0.017390
  0
VERTEX
  8
0
 10
88.865112
 20
37.500000
 42
-0.007292
  0
VERTEX
  8
0
 10
85.409585
 20
39.381135
 42
-0.004161
  0
VERTEX
  8
0
 10
81.287924
 20
41.748861
 42
-0.004155
  0
VERTEX
  8
0
 10
77.179133
 20
44.200972
 42
-0.006873
  0
VERTEX
  8
0
 10
73.756748
 20
46.347185
 42
-0.010206
  0
VERTEX
  8
0
 10
69.575333
 20
49.172821
 42
-0.047028
  0
VERTEX
  8
0
 10
67.358469
 20
51.073160
 42
-0.072712
  0
VERTEX
  8
0
 10
66.026003
 20
52.927922
 42
-0.049379
  0
VERTEX
  8
0
 10
65.062175
 20
55.347185
 42
0.030637
  0
VERTEX
  8
0
 10
64.217923
 20
57.720994
 42
0.004982
  0
VERTEX
  8
0
 10
62.254250
 20
62.203166
 42
0.005476
  0
VERTEX
  8
0
 10
59.829335
 20
67.437492
 42
0.004797
  0
VERTEX
  8
0
 10
57.183004
 20
72.855081
 42
0.000000
  0
VERTEX
  8
0
 10
50.500000
 20
86.210161
 42
0.000000
  0
VERTEX
  8
0
 10
40.298733
 20
92.855081
 42
0.000819
  0
VERTEX
  8
0
 10
36.057355
 20
95.607953
 42
0.000786
  0
VERTEX
  8
0
 10
31.749250
 20
98.384520
 42
0.000778
  0
VERTEX
  8
0
 10
27.942519
 20
100.821133
 42
0.002847
  0
VERTEX
  8
0
 10
25.519295
 20
102.347540
 42
-0.031454
  0
VERTEX
  8
0
 10
23.515805
 20
103.775775
 42
-0.029075
  0
VERTEX
  8
0
 10
21.650973
 20
105.479675
 42
-0.030190
  0
VERTEX
  8
0
 10
20.078439
 20
107.301942
 42
-0.044995
  0
VERTEX
  8
0
 10
18.957700
 20
109.082915
 42
0.079652
  0
VERTEX
  8
0
 10
16.126351
 20
112.960384
 42
0.082753
  0
VERTEX
  8
0
 10
12.258297
 20
115.698457
 42
0.094870
  0
VERTEX
  8
0
 10
8.188420
 20
116.788473
 42
0.155565
  0
SEQEND
  0
ENDSEC
  0
EOF
