  0
SECTION
  2
HEADER
  9
$ACADVER
  1
AC1006
  9
$EXTMIN
 10
0.000000
 20
0.000000
 30
0.000000
  9
$EXTMAX
 10
121.000000
 20
103.000000
 30
0.000000
  0
ENDSEC
  0
SECTION
  2
ENTITIES
  0
POLYLINE
  8
0
 66
1
 70
1
  0
VERTEX
  8
0
 10
1.521480
 20
101.378622
 42
0.117504
  0
VERTEX
  8
0
 10
0.375333
 20
99.515333
 42
0.204984
  0
VERTEX
  8
0
 10
0.530003
 20
97.738708
 42
0.120394
  0
VERTEX
  8
0
 10
2.146272
 20
95.935708
 42
0.031682
  0
VERTEX
  8
0
 10
5.501692
 20
93.938125
 42
-0.016171
  0
VERTEX
  8
0
 10
8.571583
 20
92.237141
 42
-0.101796
  0
VERTEX
  8
0
 10
9.885244
 20
91.034739
 42
-0.110924
  0
VERTEX
  8
0
 10
10.563344
 20
89.456250
 42
-0.020811
  0
VERTEX
  8
0
 10
11.014972
 20
86.323780
 42
0.020885
  0
VERTEX
  8
0
 10
11.311347
 20
84.270277
 42
0.021787
  0
VERTEX
  8
0
 10
11.775061
 20
82.277852
 42
0.022104
  0
VERTEX
  8
0
 10
12.324691
 20
80.599275
 42
0.083213
  0
VERTEX
  8
0
 10
12.879356
 20
79.645367
 42
0.072023
  0
VERTEX
  8
0
 10
13.799915
 20
78.814430
 42
0.010492
  0
VERTEX
  8
0
 10
15.928465
 20
77.451618
 42
0.011688
  0
VERTEX
  8
0
 10
18.533437
 20
75.942290
 42
0.009779
  0
VERTEX
  8
0
 10
21.364384
 20
74.460522
 42
-0.036764
  0
VERTEX
  8
0
 10
26.526464
 20
71.393221
 42
-0.033635
  0
VERTEX
  8
0
 10
31.348708
 20
67.518460
 42
-0.032411
  0
VERTEX
  8
0
 10
35.027043
 20
63.662819
 42
-0.177794
  0
VERTEX
  8
0
 10
35.984461
 20
61.000000
 42
-0.201862
  0
VERTEX
  8
0
 10
35.612702
 20
60.133114
 42
-0.009162
  0
VERTEX
  8
0
 10
33.193901
 20
57.884375
 42
-0.014092
  0
VERTEX
  8
0
 10
30.130395
 20
55.291039
 42
-0.009507
  0
VERTEX
  8
0
 10
26.498904
 20
52.500000
 42
0.006792
  0
VERTEX
  8
0
 10
22.826666
 20
49.709230
 42
0.009573
  0
VERTEX
  8
0
 10
19.636231
 20
47.115625
 42
0.006244
  0
VERTEX
  8
0
 10
17.047533
 20
44.871546
 42
0.119208
  0
VERTEX
  8
0
 10
16.442532
 20
44.000000
 42
0.059134
  0
VERTEX
  8
0
 10
16.176491
 20
42.964056
 42
0.003636
  0
VERTEX
  8
0
 10
15.775783
 20
39.800076
 42
0.005363
  0
VERTEX
  8
0
 10
15.365289
 20
36.013267
 42
0.003944
  0
VERTEX
  8
0
 10
14.988543
 20
31.808770
 42
-0.010206
  0
VERTEX
  8
0
 10
14.045298
 20
22.583413
 42
-0.044990
  0
VERTEX
  8
0
 10
12.895024
 20
17.244878
 42
-0.084639
  0
VERTEX
  8
0
 10
11.271478
 20
14.056727
 42
-0.143468
  0
VERTEX
  8
0
 10
8.897868
 20
12.267551
 42
0.074218
  0
VERTEX
  8
0
 10
6.906513
 20
11.156053
 42
0.088928
  0
VERTEX
  8
0
 10
5.466880
 20
9.567166
 42
0.152002
  0
VERTEX
  8
0
 10
5.089838
 20
8.132934
 42
0.310548
  0
VERTEX
  8
0
 10
5.758887
 20
7.247038
 42
-0.065328
  0
VERTEX
  8
0
 10
6.414016
 20
6.928778
 42
-0.006988
  0
VERTEX
  8
0
 10
7.815389
 20
5.976888
 42
-0.008510
  0
VERTEX
  8
0
 10
9.456065
 20
4.786511
 42
-0.006749
  0
VERTEX
  8
0
 10
11.188797
 20
3.446774
 42
0.026428
  0
VERTEX
  8
0
 10
14.437479
 20
1.133226
 42
0.093389
  0
VERTEX
  8
0
 10
16.806330
 20
0.187761
 42
0.171724
  0
VERTEX
  8
0
 10
18.547086
 20
0.444830
 42
0.151406
  0
VERTEX
  8
0
 10
19.847361
 20
1.750000
 42
0.071713
  0
VERTEX
  8
0
 10
20.643203
 20
4.001189
 42
0.007674
  0
VERTEX
  8
0
 10
21.644745
 20
9.465405
 42
0.007950
  0
VERTEX
  8
0
 10
22.756106
 20
16.817237
 42
0.003577
  0
VERTEX
  8
0
 10
23.992261
 20
26.500000
 42
-0.002144
  0
VERTEX
  8
0
 10
25.131148
 20
35.629080
 42
-0.020668
  0
VERTEX
  8
0
 10
25.791658
 20
39.483149
 42
-0.053199
  0
VERTEX
  8
0
 10
26.431197
 20
41.430225
 42
-0.294915
  0
VERTEX
  8
0
 10
27.313179
 20
42.000000
 42
0.102379
  0
VERTEX
  8
0
 10
27.998014
 20
42.141712
 42
0.015888
  0
VERTEX
  8
0
 10
29.257336
 20
42.734375
 42
0.017139
  0
VERTEX
  8
0
 10
30.716593
 20
43.542817
 42
0.014165
  0
VERTEX
  8
0
 10
32.214812
 20
44.500000
 42
-0.033558
  0
VERTEX
  8
0
 10
34.126662
 20
45.619558
 42
-0.040347
  0
VERTEX
  8
0
 10
36.059340
 20
46.396011
 42
-0.040611
  0
VERTEX
  8
0
 10
38.080812
 20
46.848446
 42
-0.034766
  0
VERTEX
  8
0
 10
40.257786
 20
47.000000
 42
-0.034954
  0
VERTEX
  8
0
 10
42.844347
 20
46.818957
 42
-0.090829
  0
VERTEX
  8
0
 10
44.609420
 20
46.232225
 42
-0.069262
  0
VERTEX
  8
0
 10
46.318762
 20
44.958522
 42
-0.014445
  0
VERTEX
  8
0
 10
48.909732
 20
42.250000
 42
0.000051
  0
VERTEX
  8
0
 10
50.736706
 20
40.226624
 42
0.000043
  0
VERTEX
  8
0
 10
52.680651
 20
38.074514
 42
0.000043
  0
VERTEX
  8
0
 10
54.461681
 20
36.103441
 42
0.000116
  0
VERTEX
  8
0
 10
55.725382
 20
34.705794
 42
0.053992
  0
VERTEX
  8
0
 10
59.087090
 20
31.711996
 42
0.059696
  0
VERTEX
  8
0
 10
62.905149
 20
29.623976
 42
0.055972
  0
VERTEX
  8
0
 10
67.318515
 20
28.405552
 42
0.039405
  0
VERTEX
  8
0
 10
72.456480
 20
28.000000
 42
-0.025897
  0
VERTEX
  8
0
 10
75.762500
 20
27.828651
 42
-0.008875
  0
VERTEX
  8
0
 10
80.525285
 20
27.248001
 42
-0.008794
  0
VERTEX
  8
0
 10
85.767012
 20
26.420088
 42
-0.010054
  0
VERTEX
  8
0
 10
90.746318
 20
25.440003
 42
0.001930
  0
VERTEX
  8
0
 10
95.537533
 20
24.415815
 42
0.002086
  0
VERTEX
  8
0
 10
100.214278
 20
23.455310
 42
0.001965
  0
VERTEX
  8
0
 10
104.232021
 20
22.664017
 42
0.010063
  0
VERTEX
  8
0
 10
106.472499
 20
22.278491
 42
-0.075908
  0
VERTEX
  8
0
 10
109.883366
 20
21.216642
 42
-0.024998
  0
VERTEX
  8
0
 10
114.497816
 20
18.675862
 42
-0.022169
  0
VERTEX
  8
0
 10
118.750517
 20
15.781194
 42
-0.136609
  0
VERTEX
  8
0
 10
120.352593
 20
13.705378
 42
0.746013
  0
VERTEX
  8
0
 10
120.546386
 20
13.724206
 42
0.023826
  0
VERTEX
  8
0
 10
120.721502
 20
14.928377
 42
0.014729
  0
VERTEX
  8
0
 10
120.856565
 20
16.931823
 42
0.006670
  0
VERTEX
  8
0
 10
120.921053
 20
19.561439
 42
0.035591
  0
VERTEX
  8
0
 10
120.527708
 20
26.112346
 42
0.189374
  0
VERTEX
  8
0
 10
118.823172
 20
29.192529
 42
0.152858
  0
VERTEX
  8
0
 10
115.238294
 20
30.656368
 42
0.021080
  0
VERTEX
  8
0
 10
107.091090
 20
31.000000
 42
-0.012832
  0
VERTEX
  8
0
 10
101.598120
 20
31.140992
 42
-0.024526
  0
VERTEX
  8
0
 10
97.208121
 20
31.583089
 42
-0.023699
  0
VERTEX
  8
0
 10
92.785471
 20
32.464870
 42
-0.011147
  0
VERTEX
  8
0
 10
87.161708
 20
34.000000
 42
0.003628
  0
VERTEX
  8
0
 10
83.187949
 20
35.149203
 42
0.005013
  0
VERTEX
  8
0
 10
79.604484
 20
36.118750
 42
0.003219
  0
VERTEX
  8
0
 10
76.585889
 20
36.882359
 42
0.060406
  0
VERTEX
  8
0
 10
75.615693
 20
37.000000
 42
-0.207440
  0
VERTEX
  8
0
 10
73.933453
 20
37.729312
 42
-0.023391
  0
VERTEX
  8
0
 10
71.173401
 20
40.967419
 42
-0.019315
  0
VERTEX
  8
0
 10
67.521808
 20
46.077291
 42
-0.006054
  0
VERTEX
  8
0
 10
62.446584
 20
54.000000
 42
0.006379
  0
VERTEX
  8
0
 10
59.948711
 20
57.893746
 42
0.006307
  0
VERTEX
  8
0
 10
57.342942
 20
61.737500
 42
0.006211
  0
VERTEX
  8
0
 10
54.978231
 20
65.044316
 42
0.024106
  0
VERTEX
  8
0
 10
53.392170
 20
67.000000
 42
-0.022141
  0
VERTEX
  8
0
 10
52.021565
 20
68.676513
 42
-0.012043
  0
VERTEX
  8
0
 10
50.482282
 20
70.846474
 42
-0.011979
  0
VERTEX
  8
0
 10
49.020210
 20
73.132850
 42
-0.018570
  0
VERTEX
  8
0
 10
47.881191
 20
75.179484
 42
0.043269
  0
VERTEX
  8
0
 10
46.385266
 20
77.580477
 42
0.021788
  0
VERTEX
  8
0
 10
44.119044
 20
80.341757
 42
0.019326
  0
VERTEX
  8
0
 10
41.237062
 20
83.317091
 42
0.014317
  0
VERTEX
  8
0
 10
37.836626
 20
86.385128
 42
0.009575
  0
VERTEX
  8
0
 10
33.256701
 20
90.136506
 42
0.042890
  0
VERTEX
  8
0
 10
30.361287
 20
92.039273
 42
0.056237
  0
VERTEX
  8
0
 10
27.569825
 20
93.164955
 42
0.024641
  0
VERTEX
  8
0
 10
23.673046
 20
94.043249
 42
-0.011087
  0
VERTEX
  8
0
 10
20.127355
 20
94.742038
 42
-0.058758
  0
VERTEX
  8
0
 10
18.261231
 20
95.389880
 42
-0.112832
  0
VERTEX
  8
0
 10
17.205971
 20
96.236681
 42
-0.106384
  0
VERTEX
  8
0
 10
16.595536
 20
97.475379
 42
0.094724
  0
VERTEX
  8
0
 10
16.087743
 20
98.568746
 42
0.060835
  0
VERTEX
  8
0
 10
15.136420
 20
99.599815
 42
0.050050
  0
VERTEX
  8
0
 10
13.763677
 20
100.547175
 42
0.030870
  0
VERTEX
  8
0
 10
11.988879
 20
101.387773
 42
0.030753
  0
VERTEX
  8
0
 10
8.461729
 20
102.553202
 42
0.064718
  0
VERTEX
  8
0
 10
5.605873
 20
102.921866
 42
0.086502
  0
VERTEX
  8
0
 10
3.321737
 20
102.521665
 42
0.110288
  0
SEQEND
  0
ENDSEC
  0
EOF
