  0
SECTION
  2
HEADER
  9
$ACADVER
  1
AC1006
  9
$EXTMIN
 10
0.000000
 20
0.000000
 30
0.000000
  9
$EXTMAX
 10
189.000000
 20
218.000000
 30
0.000000
  0
ENDSEC
  0
SECTION
  2
ENTITIES
  0
POLYLINE
  8
0
 66
1
 70
1
  0
VERTEX
  8
0
 10
58.500000
 20
216.845268
 42
0.027882
  0
VERTEX
  8
0
 10
57.642958
 20
216.312408
 42
0.018509
  0
VERTEX
  8
0
 10
56.720312
 20
215.612441
 42
0.018652
  0
VERTEX
  8
0
 10
55.872399
 20
214.863752
 42
0.034205
  0
VERTEX
  8
0
 10
55.250000
 20
214.184547
 42
0.134952
  0
VERTEX
  8
0
 10
54.278766
 20
211.919739
 42
0.039421
  0
VERTEX
  8
0
 10
54.056886
 20
208.100675
 42
0.037673
  0
VERTEX
  8
0
 10
54.479825
 20
203.712270
 42
0.038997
  0
VERTEX
  8
0
 10
55.555253
 20
199.489004
 42
-0.027870
  0
VERTEX
  8
0
 10
56.128978
 20
197.428589
 42
-0.018629
  0
VERTEX
  8
0
 10
56.563982
 20
195.018808
 42
-0.018783
  0
VERTEX
  8
0
 10
56.811331
 20
192.643931
 42
-0.034688
  0
VERTEX
  8
0
 10
56.805253
 20
190.704056
 42
0.000000
  0
VERTEX
  8
0
 10
56.500000
 20
186.500000
 42
0.000000
  0
VERTEX
  8
0
 10
51.000000
 20
185.882883
 42
0.028957
  0
VERTEX
  8
0
 10
42.559724
 20
184.437241
 42
0.094220
  0
VERTEX
  8
0
 10
37.390319
 20
182.157091
 42
0.124830
  0
VERTEX
  8
0
 10
34.232808
 20
178.550607
 42
0.071131
  0
VERTEX
  8
0
 10
32.351070
 20
173.033862
 42
-0.022421
  0
VERTEX
  8
0
 10
31.965916
 20
171.400197
 42
-0.010458
  0
VERTEX
  8
0
 10
31.328489
 20
169.319555
 42
-0.010337
  0
VERTEX
  8
0
 10
30.567530
 20
167.160596
 42
-0.014233
  0
VERTEX
  8
0
 10
29.789377
 20
165.256756
 42
0.025663
  0
VERTEX
  8
0
 10
29.104456
 20
163.465192
 42
0.027206
  0
VERTEX
  8
0
 10
28.621905
 20
161.647182
 42
0.028176
  0
VERTEX
  8
0
 10
28.382253
 20
160.047549
 42
0.100260
  0
VERTEX
  8
0
 10
28.492844
 20
159.022545
 42
0.143651
  0
VERTEX
  8
0
 10
30.023376
 20
156.749861
 42
0.057455
  0
VERTEX
  8
0
 10
33.196674
 20
154.679962
 42
0.050262
  0
VERTEX
  8
0
 10
37.381344
 20
153.091651
 42
0.042999
  0
VERTEX
  8
0
 10
42.025160
 20
152.264002
 42
-0.015437
  0
VERTEX
  8
0
 10
44.315350
 20
151.984831
 42
-0.024709
  0
VERTEX
  8
0
 10
46.244891
 20
151.590524
 42
-0.021741
  0
VERTEX
  8
0
 10
47.705679
 20
151.147501
 42
-0.318361
  0
VERTEX
  8
0
 10
48.000000
 20
150.732107
 42
0.172104
  0
VERTEX
  8
0
 10
48.211421
 20
150.136074
 42
0.008639
  0
VERTEX
  8
0
 10
49.562716
 20
148.528545
 42
0.013042
  0
VERTEX
  8
0
 10
51.281642
 20
146.654954
 42
0.008998
  0
VERTEX
  8
0
 10
53.319883
 20
144.620996
 42
-0.018015
  0
VERTEX
  8
0
 10
58.648247
 20
139.108548
 42
-0.074511
  0
VERTEX
  8
0
 10
61.194740
 20
135.252525
 42
-0.250058
  0
VERTEX
  8
0
 10
61.073412
 20
133.055385
 42
-0.259505
  0
VERTEX
  8
0
 10
59.190983
 20
131.983178
 42
0.073701
  0
VERTEX
  8
0
 10
58.129138
 20
131.814993
 42
0.006280
  0
VERTEX
  8
0
 10
55.499851
 20
130.953055
 42
0.008206
  0
VERTEX
  8
0
 10
52.378837
 20
129.828794
 42
0.006264
  0
VERTEX
  8
0
 10
49.000000
 20
128.500000
 42
-0.000803
  0
VERTEX
  8
0
 10
45.723431
 20
127.169930
 42
-0.001289
  0
VERTEX
  8
0
 10
42.923438
 20
126.046945
 42
-0.000213
  0
VERTEX
  8
0
 10
40.441519
 20
125.060171
 42
-0.077859
  0
VERTEX
  8
0
 10
40.250000
 20
125.016822
 42
-0.419124
  0
VERTEX
  8
0
 10
40.148562
 20
125.106978
 42
-0.001828
  0
VERTEX
  8
0
 10
40.073437
 20
126.711297
 42
-0.006750
  0
VERTEX
  8
0
 10
40.017962
 20
128.582638
 42
-0.004034
  0
VERTEX
  8
0
 10
40.000000
 20
130.808870
 42
0.020266
  0
VERTEX
  8
0
 10
39.904546
 20
133.162920
 42
0.022124
  0
VERTEX
  8
0
 10
39.618626
 20
135.432945
 42
0.022262
  0
VERTEX
  8
0
 10
39.204138
 20
137.339653
 42
0.093471
  0
VERTEX
  8
0
 10
38.701705
 20
138.393265
 42
0.149107
  0
VERTEX
  8
0
 10
36.665583
 20
139.920010
 42
0.022802
  0
VERTEX
  8
0
 10
31.769516
 20
141.444006
 42
0.026175
  0
VERTEX
  8
0
 10
26.211298
 20
142.592881
 42
0.036987
  0
VERTEX
  8
0
 10
21.173077
 20
142.984379
 42
0.030039
  0
VERTEX
  8
0
 10
18.871958
 20
142.854345
 42
0.064517
  0
VERTEX
  8
0
 10
17.151302
 20
142.423477
 42
0.067408
  0
VERTEX
  8
0
 10
15.644394
 20
141.582884
 42
0.035504
  0
VERTEX
  8
0
 10
14.022194
 20
140.176041
 42
0.092156
  0
VERTEX
  8
0
 10
11.140354
 20
135.978148
 42
0.030427
  0
VERTEX
  8
0
 10
8.515561
 20
128.940362
 42
0.030510
  0
VERTEX
  8
0
 10
6.625737
 20
121.052112
 42
0.043563
  0
VERTEX
  8
0
 10
6.000000
 20
113.883760
 42
0.058058
  0
VERTEX
  8
0
 10
6.996212
 20
105.333256
 42
0.103130
  0
VERTEX
  8
0
 10
9.988643
 20
98.935587
 42
0.099463
  0
VERTEX
  8
0
 10
15.377458
 20
94.118065
 42
0.051207
  0
VERTEX
  8
0
 10
23.641508
 20
90.339153
 42
-0.027442
  0
VERTEX
  8
0
 10
31.557666
 20
87.164204
 42
-0.142183
  0
VERTEX
  8
0
 10
35.067803
 20
84.093191
 42
-0.125524
  0
VERTEX
  8
0
 10
36.615294
 20
79.420529
 42
-0.019474
  0
VERTEX
  8
0
 10
36.921053
 20
69.600777
 42
-0.003882
  0
VERTEX
  8
0
 10
36.843455
 20
64.620847
 42
-0.028482
  0
VERTEX
  8
0
 10
36.652443
 20
62.247035
 42
-0.319317
  0
VERTEX
  8
0
 10
36.300356
 20
61.873170
 42
-0.369647
  0
VERTEX
  8
0
 10
35.885883
 20
62.105509
 42
0.098335
  0
VERTEX
  8
0
 10
34.752136
 20
63.963953
 42
0.066897
  0
VERTEX
  8
0
 10
32.841536
 20
65.551742
 42
0.064440
  0
VERTEX
  8
0
 10
30.493820
 20
66.631542
 42
0.075740
  0
VERTEX
  8
0
 10
28.075392
 20
67.000000
 42
-0.071518
  0
VERTEX
  8
0
 10
27.279412
 20
67.114439
 42
-0.044601
  0
VERTEX
  8
0
 10
26.400838
 20
67.459994
 42
-0.043893
  0
VERTEX
  8
0
 10
25.577489
 20
67.966610
 42
-0.059756
  0
VERTEX
  8
0
 10
24.945277
 20
68.565937
 42
0.086380
  0
VERTEX
  8
0
 10
22.253329
 20
70.859877
 42
0.064351
  0
VERTEX
  8
0
 10
18.659485
 20
72.400060
 42
0.065238
  0
VERTEX
  8
0
 10
14.850037
 20
72.960483
 42
0.095837
  0
VERTEX
  8
0
 10
11.526372
 20
72.371746
 42
0.146471
  0
VERTEX
  8
0
 10
9.023797
 20
70.440367
 42
0.023910
  0
VERTEX
  8
0
 10
5.655107
 20
65.240212
 42
0.025767
  0
VERTEX
  8
0
 10
2.791484
 20
59.678705
 42
0.106392
  0
VERTEX
  8
0
 10
2.000000
 20
56.001165
 42
-0.030062
  0
VERTEX
  8
0
 10
1.911754
 20
54.534738
 42
-0.031088
  0
VERTEX
  8
0
 10
1.648299
 20
53.106141
 42
-0.032717
  0
VERTEX
  8
0
 10
1.264040
 20
51.906277
 42
-0.102875
  0
VERTEX
  8
0
 10
0.802719
 20
51.202719
 42
0.114373
  0
VERTEX
  8
0
 10
0.346675
 20
50.471492
 42
0.145482
  0
VERTEX
  8
0
 10
0.314273
 20
49.680653
 42
0.085155
  0
VERTEX
  8
0
 10
0.755521
 20
48.686945
 42
0.021478
  0
VERTEX
  8
0
 10
1.802856
 20
47.252719
 42
-0.039480
  0
VERTEX
  8
0
 10
4.113978
 20
43.836345
 42
-0.007025
  0
VERTEX
  8
0
 10
7.827876
 20
37.067089
 42
-0.003765
  0
VERTEX
  8
0
 10
11.540163
 20
29.940260
 42
-0.118725
  0
VERTEX
  8
0
 10
12.000000
 20
28.030999
 42
0.088356
  0
VERTEX
  8
0
 10
12.118986
 20
27.362924
 42
0.004632
  0
VERTEX
  8
0
 10
12.891671
 20
25.321105
 42
0.007196
  0
VERTEX
  8
0
 10
13.872647
 20
22.903262
 42
0.005162
  0
VERTEX
  8
0
 10
15.035475
 20
20.228896
 42
0.000000
  0
VERTEX
  8
0
 10
18.070950
 20
13.440190
 42
0.000000
  0
VERTEX
  8
0
 10
28.285475
 20
8.182921
 42
0.010649
  0
VERTEX
  8
0
 10
33.069604
 20
5.848095
 42
0.017353
  0
VERTEX
  8
0
 10
37.233414
 20
4.097320
 42
0.020531
  0
VERTEX
  8
0
 10
40.787679
 20
2.910503
 42
0.041795
  0
VERTEX
  8
0
 10
43.672310
 20
2.332736
 42
0.022650
  0
VERTEX
  8
0
 10
46.984913
 20
2.104329
 42
0.104413
  0
VERTEX
  8
0
 10
48.864706
 20
2.455184
 42
0.079127
  0
VERTEX
  8
0
 10
50.687646
 20
3.574141
 42
0.009826
  0
VERTEX
  8
0
 10
54.172310
 20
6.680694
 42
-0.014785
  0
VERTEX
  8
0
 10
59.576748
 20
11.403365
 42
-0.019191
  0
VERTEX
  8
0
 10
64.812084
 20
15.385227
 42
-0.017250
  0
VERTEX
  8
0
 10
69.341096
 20
18.335446
 42
-0.136556
  0
VERTEX
  8
0
 10
71.728989
 20
19.000000
 42
-0.083989
  0
VERTEX
  8
0
 10
72.617245
 20
18.849732
 42
-0.040814
  0
VERTEX
  8
0
 10
73.672867
 20
18.382426
 42
-0.038969
  0
VERTEX
  8
0
 10
74.719831
 20
17.702111
 42
-0.045306
  0
VERTEX
  8
0
 10
75.592652
 20
16.897621
 42
0.060452
  0
VERTEX
  8
0
 10
78.346777
 20
14.508859
 42
0.072622
  0
VERTEX
  8
0
 10
81.433734
 20
13.022529
 42
0.055532
  0
VERTEX
  8
0
 10
85.446300
 20
12.239222
 42
0.020630
  0
VERTEX
  8
0
 10
91.200340
 20
12.005577
 42
0.009572
  0
VERTEX
  8
0
 10
94.634588
 20
12.073633
 42
0.009355
  0
VERTEX
  8
0
 10
98.090100
 20
12.273119
 42
0.009285
  0
VERTEX
  8
0
 10
101.115508
 20
12.561226
 42
0.034382
  0
VERTEX
  8
0
 10
103.000000
 20
12.908526
 42
-0.001971
  0
VERTEX
  8
0
 10
104.538794
 20
13.296603
 42
-0.001389
  0
VERTEX
  8
0
 10
106.271557
 20
13.721235
 42
-0.001402
  0
VERTEX
  8
0
 10
107.931035
 20
14.118100
 42
-0.002950
  0
VERTEX
  8
0
 10
109.222323
 20
14.415055
 42
0.047528
  0
VERTEX
  8
0
 10
110.408308
 20
14.801668
 42
0.028986
  0
VERTEX
  8
0
 10
111.723998
 20
15.466793
 42
0.028893
  0
VERTEX
  8
0
 10
112.962799
 20
16.285142
 42
0.044833
  0
VERTEX
  8
0
 10
113.915829
 20
17.140028
 42
-0.018540
  0
VERTEX
  8
0
 10
115.142581
 20
18.362610
 42
-0.156764
  0
VERTEX
  8
0
 10
115.840295
 20
18.687356
 42
-0.197705
  0
VERTEX
  8
0
 10
116.512648
 20
18.504348
 42
-0.032329
  0
VERTEX
  8
0
 10
117.547836
 20
17.595021
 42
0.057620
  0
VERTEX
  8
0
 10
119.709802
 20
15.881192
 42
0.021539
  0
VERTEX
  8
0
 10
123.090130
 20
13.981047
 42
0.019660
  0
VERTEX
  8
0
 10
126.520594
 20
12.408952
 42
0.097911
  0
VERTEX
  8
0
 10
128.588961
 20
12.000000
 42
-0.117722
  0
VERTEX
  8
0
 10
129.468796
 20
11.789936
 42
-0.023204
  0
VERTEX
  8
0
 10
130.891365
 20
10.984598
 42
-0.023425
  0
VERTEX
  8
0
 10
132.496507
 20
9.866613
 42
-0.019877
  0
VERTEX
  8
0
 10
134.083739
 20
8.543312
 42
0.034808
  0
VERTEX
  8
0
 10
138.368735
 20
5.182380
 42
0.050554
  0
VERTEX
  8
0
 10
142.595597
 20
2.903258
 42
0.048251
  0
VERTEX
  8
0
 10
147.341913
 20
1.450307
 42
0.028336
  0
VERTEX
  8
0
 10
153.223639
 20
0.597554
 42
0.010597
  0
VERTEX
  8
0
 10
157.218900
 20
0.332957
 42
0.031448
  0
VERTEX
  8
0
 10
159.963415
 20
0.382189
 42
0.044839
  0
VERTEX
  8
0
 10
162.066309
 20
0.744094
 42
0.054354
  0
VERTEX
  8
0
 10
163.931930
 20
1.464800
 42
0.111676
  0
VERTEX
  8
0
 10
166.876352
 20
3.943244
 42
0.025620
  0
VERTEX
  8
0
 10
170.556330
 20
9.351712
 42
0.021603
  0
VERTEX
  8
0
 10
174.745942
 20
16.965824
 42
0.010625
  0
VERTEX
  8
0
 10
179.442092
 20
26.977908
 42
0.008910
  0
VERTEX
  8
0
 10
182.265150
 20
33.664141
 42
0.039465
  0
VERTEX
  8
0
 10
183.537533
 20
37.736902
 42
0.036904
  0
VERTEX
  8
0
 10
184.194664
 20
42.080667
 42
0.007143
  0
VERTEX
  8
0
 10
184.687663
 20
50.011490
 42
0.003919
  0
VERTEX
  8
0
 10
184.976719
 20
57.241604
 42
0.027905
  0
VERTEX
  8
0
 10
184.893769
 20
60.744663
 42
0.062024
  0
VERTEX
  8
0
 10
184.461536
 20
62.840742
 42
0.115041
  0
VERTEX
  8
0
 10
183.549123
 20
64.308020
 42
-0.065198
  0
VERTEX
  8
0
 10
182.674512
 20
65.446214
 42
-0.212825
  0
VERTEX
  8
0
 10
182.576697
 20
66.369213
 42
-0.096969
  0
VERTEX
  8
0
 10
183.214073
 20
67.516365
 42
-0.008559
  0
VERTEX
  8
0
 10
185.404965
 20
70.026487
 42
0.032936
  0
VERTEX
  8
0
 10
187.889647
 20
73.170034
 42
0.123179
  0
VERTEX
  8
0
 10
188.765070
 20
75.510738
 42
0.086504
  0
VERTEX
  8
0
 10
188.590925
 20
78.418960
 42
0.011539
  0
VERTEX
  8
0
 10
187.031590
 20
84.389535
 42
0.025453
  0
VERTEX
  8
0
 10
185.210473
 20
89.716098
 42
0.080342
  0
VERTEX
  8
0
 10
183.274468
 20
92.940946
 42
0.059743
  0
VERTEX
  8
0
 10
180.124048
 20
95.878474
 42
0.009807
  0
VERTEX
  8
0
 10
173.291466
 20
100.669024
 42
-0.014648
  0
VERTEX
  8
0
 10
168.696753
 20
103.957336
 42
-0.032308
  0
VERTEX
  8
0
 10
165.439788
 20
106.785541
 42
-0.032268
  0
VERTEX
  8
0
 10
162.571928
 20
110.011935
 42
-0.014578
  0
VERTEX
  8
0
 10
159.222919
 20
114.576687
 42
-0.002998
  0
VERTEX
  8
0
 10
156.907417
 20
117.977159
 42
-0.003197
  0
VERTEX
  8
0
 10
154.682373
 20
121.333416
 42
-0.003038
  0
VERTEX
  8
0
 10
152.804780
 20
124.243730
 42
-0.014848
  0
VERTEX
  8
0
 10
151.802180
 20
125.927029
 42
0.036099
  0
VERTEX
  8
0
 10
150.607792
 20
127.751395
 42
0.152880
  0
VERTEX
  8
0
 10
149.554431
 20
128.496355
 42
0.094909
  0
VERTEX
  8
0
 10
147.998737
 20
128.688509
 42
0.009446
  0
VERTEX
  8
0
 10
144.240031
 20
128.367300
 42
-0.037316
  0
VERTEX
  8
0
 10
139.870873
 20
128.238175
 42
-0.071685
  0
VERTEX
  8
0
 10
136.435306
 20
128.892412
 42
-0.070093
  0
VERTEX
  8
0
 10
133.274563
 20
130.502968
 42
-0.034272
  0
VERTEX
  8
0
 10
129.750000
 20
133.351585
 42
-0.146422
  0
VERTEX
  8
0
 10
127.191821
 20
137.700054
 42
-0.123602
  0
VERTEX
  8
0
 10
127.218430
 20
143.057844
 42
-0.138046
  0
VERTEX
  8
0
 10
129.709253
 20
147.355380
 42
-0.195214
  0
VERTEX
  8
0
 10
133.761069
 20
149.000000
 42
0.052413
  0
VERTEX
  8
0
 10
138.347828
 20
149.482138
 42
0.114570
  0
VERTEX
  8
0
 10
141.530121
 20
150.971007
 42
0.091437
  0
VERTEX
  8
0
 10
144.162726
 20
153.956451
 42
0.025526
  0
VERTEX
  8
0
 10
147.102663
 20
159.478004
 42
0.024408
  0
VERTEX
  8
0
 10
149.486494
 20
165.286869
 42
0.047058
  0
VERTEX
  8
0
 10
150.712604
 20
170.158376
 42
0.043296
  0
VERTEX
  8
0
 10
151.061193
 20
175.433608
 42
0.017662
  0
VERTEX
  8
0
 10
150.659432
 20
182.616558
 42
0.020062
  0
VERTEX
  8
0
 10
150.233935
 20
185.838215
 42
0.083662
  0
VERTEX
  8
0
 10
149.586325
 20
187.678537
 42
0.148696
  0
VERTEX
  8
0
 10
148.588723
 20
188.646395
 42
0.119321
  0
VERTEX
  8
0
 10
147.128074
 20
189.000000
 42
-0.163211
  0
VERTEX
  8
0
 10
145.205679
 20
189.644683
 42
-0.045105
  0
VERTEX
  8
0
 10
142.815111
 20
191.815614
 42
-0.045474
  0
VERTEX
  8
0
 10
140.719294
 20
194.558398
 42
-0.082880
  0
VERTEX
  8
0
 10
139.634439
 20
197.151682
 42
0.084028
  0
VERTEX
  8
0
 10
139.079768
 20
198.469141
 42
0.050937
  0
VERTEX
  8
0
 10
138.029428
 20
199.800529
 42
0.042079
  0
VERTEX
  8
0
 10
136.503556
 20
201.130645
 42
0.025697
  0
VERTEX
  8
0
 10
134.505624
 20
202.443836
 42
-0.020054
  0
VERTEX
  8
0
 10
132.295299
 20
203.861190
 42
-0.060358
  0
VERTEX
  8
0
 10
130.963667
 20
205.054969
 42
-0.088704
  0
VERTEX
  8
0
 10
130.248859
 20
206.240945
 42
-0.091623
  0
VERTEX
  8
0
 10
130.000000
 20
207.587608
 42
0.127183
  0
VERTEX
  8
0
 10
129.357889
 20
210.071143
 42
0.073376
  0
VERTEX
  8
0
 10
127.471676
 20
212.539491
 42
0.072886
  0
VERTEX
  8
0
 10
124.935288
 20
214.374439
 42
0.120776
  0
VERTEX
  8
0
 10
122.383312
 20
215.000000
 42
0.065804
  0
VERTEX
  8
0
 10
121.036099
 20
214.821924
 42
0.022138
  0
VERTEX
  8
0
 10
119.142429
 20
214.221364
 42
0.021586
  0
VERTEX
  8
0
 10
117.083096
 20
213.363908
 42
0.023100
  0
VERTEX
  8
0
 10
115.152677
 20
212.349323
 42
-0.034964
  0
VERTEX
  8
0
 10
112.224800
 20
210.898012
 42
-0.049773
  0
VERTEX
  8
0
 10
109.445297
 20
210.066065
 42
-0.031446
  0
VERTEX
  8
0
 10
105.727024
 20
209.585648
 42
-0.006335
  0
VERTEX
  8
0
 10
99.064819
 20
209.232545
 42
-0.015556
  0
VERTEX
  8
0
 10
90.421480
 20
209.153259
 42
-0.040649
  0
VERTEX
  8
0
 10
84.247225
 20
209.792643
 42
-0.058380
  0
VERTEX
  8
0
 10
79.795332
 20
211.174989
 42
-0.100213
  0
VERTEX
  8
0
 10
76.638773
 20
213.416383
 42
0.021411
  0
VERTEX
  8
0
 10
75.660442
 20
214.373428
 42
0.015164
  0
VERTEX
  8
0
 10
74.486638
 20
215.364638
 42
0.015344
  0
VERTEX
  8
0
 10
73.305448
 20
216.244538
 42
0.031056
  0
VERTEX
  8
0
 10
72.315741
 20
216.847889
 42
0.092509
  0
VERTEX
  8
0
 10
69.612920
 20
217.686578
 42
0.029152
  0
VERTEX
  8
0
 10
65.371867
 20
217.933254
 42
0.029010
  0
VERTEX
  8
0
 10
61.142227
 20
217.686841
 42
0.096374
  0
SEQEND
  0
ENDSEC
  0
EOF
