  0
SECTION
  2
HEADER
  9
$ACADVER
  1
AC1006
  9
$EXTMIN
 10
0.000000
 20
0.000000
 30
0.000000
  9
$EXTMAX
 10
191.000000
 20
217.000000
 30
0.000000
  0
ENDSEC
  0
SECTION
  2
ENTITIES
  0
POLYLINE
  8
0
 66
1
 70
1
  0
VERTEX
  8
0
 10
65.972506
 20
215.331594
 42
0.001859
  0
VERTEX
  8
0
 10
64.989140
 20
214.662699
 42
0.002308
  0
VERTEX
  8
0
 10
64.079424
 20
214.032748
 42
0.001883
  0
VERTEX
  8
0
 10
63.320060
 20
213.497438
 42
0.017354
  0
VERTEX
  8
0
 10
63.000000
 20
213.252858
 42
0.199830
  0
VERTEX
  8
0
 10
62.787527
 20
212.853666
 42
0.002132
  0
VERTEX
  8
0
 10
62.500000
 20
209.681503
 42
0.006328
  0
VERTEX
  8
0
 10
62.227758
 20
205.982958
 42
0.004023
  0
VERTEX
  8
0
 10
62.000000
 20
201.671264
 42
0.000000
  0
VERTEX
  8
0
 10
61.500000
 20
190.500000
 42
0.000000
  0
VERTEX
  8
0
 10
52.000000
 20
189.748281
 42
0.029552
  0
VERTEX
  8
0
 10
41.549403
 20
188.296333
 42
0.123541
  0
VERTEX
  8
0
 10
35.856285
 20
185.595418
 42
0.161371
  0
VERTEX
  8
0
 10
32.941839
 20
180.967445
 42
0.061390
  0
VERTEX
  8
0
 10
32.021962
 20
173.299660
 42
0.070124
  0
VERTEX
  8
0
 10
33.376069
 20
163.911608
 42
0.088397
  0
VERTEX
  8
0
 10
37.264124
 20
156.056234
 42
0.102594
  0
VERTEX
  8
0
 10
43.072200
 20
150.854444
 42
0.132241
  0
VERTEX
  8
0
 10
49.961165
 20
149.000000
 42
-0.144906
  0
VERTEX
  8
0
 10
52.422077
 20
148.271504
 42
-0.089785
  0
VERTEX
  8
0
 10
54.634391
 20
146.190987
 42
-0.066000
  0
VERTEX
  8
0
 10
56.508718
 20
142.801982
 42
-0.034584
  0
VERTEX
  8
0
 10
57.954932
 20
138.196023
 42
-0.007291
  0
VERTEX
  8
0
 10
58.415683
 20
136.140590
 42
-0.011413
  0
VERTEX
  8
0
 10
58.745645
 20
134.358800
 42
-0.005660
  0
VERTEX
  8
0
 10
58.969950
 20
132.864223
 42
-0.255338
  0
VERTEX
  8
0
 10
58.862690
 20
132.581275
 42
-0.099620
  0
VERTEX
  8
0
 10
57.357114
 20
131.739368
 42
-0.004414
  0
VERTEX
  8
0
 10
51.619541
 20
129.949046
 42
-0.005637
  0
VERTEX
  8
0
 10
45.956575
 20
128.306163
 42
-0.067875
  0
VERTEX
  8
0
 10
43.711626
 20
128.000000
 42
-0.089081
  0
VERTEX
  8
0
 10
42.628349
 20
128.194542
 42
-0.069234
  0
VERTEX
  8
0
 10
41.572111
 20
128.762864
 42
-0.059918
  0
VERTEX
  8
0
 10
40.581450
 20
129.688675
 42
-0.041516
  0
VERTEX
  8
0
 10
39.693971
 20
130.940920
 42
0.042198
  0
VERTEX
  8
0
 10
37.283188
 20
134.332758
 42
0.024389
  0
VERTEX
  8
0
 10
33.865144
 20
137.994240
 42
0.024440
  0
VERTEX
  8
0
 10
30.152047
 20
141.264914
 42
0.047160
  0
VERTEX
  8
0
 10
26.839560
 20
143.430475
 42
0.028205
  0
VERTEX
  8
0
 10
24.615270
 20
144.446187
 42
0.073055
  0
VERTEX
  8
0
 10
22.901451
 20
144.840460
 42
0.060602
  0
VERTEX
  8
0
 10
20.965353
 20
144.761450
 42
0.014980
  0
VERTEX
  8
0
 10
17.839560
 20
144.154464
 42
0.008240
  0
VERTEX
  8
0
 10
15.702785
 20
143.635551
 42
0.009699
  0
VERTEX
  8
0
 10
13.698096
 20
143.071846
 42
0.008728
  0
VERTEX
  8
0
 10
12.027627
 20
142.534965
 42
0.058034
  0
VERTEX
  8
0
 10
11.239063
 20
142.159515
 42
0.159657
  0
VERTEX
  8
0
 10
9.620405
 20
140.213641
 42
0.021132
  0
VERTEX
  8
0
 10
7.835365
 20
135.085286
 42
0.025553
  0
VERTEX
  8
0
 10
6.446786
 20
129.450221
 42
0.047672
  0
VERTEX
  8
0
 10
6.000171
 20
124.774983
 42
0.029978
  0
VERTEX
  8
0
 10
6.278746
 20
120.135359
 42
0.009576
  0
VERTEX
  8
0
 10
7.237352
 20
113.286415
 42
0.008841
  0
VERTEX
  8
0
 10
8.429898
 20
106.576591
 42
0.043243
  0
VERTEX
  8
0
 10
9.494116
 20
102.875772
 42
0.159057
  0
VERTEX
  8
0
 10
12.411090
 20
99.282682
 42
0.024331
  0
VERTEX
  8
0
 10
20.493604
 20
94.603731
 42
0.028190
  0
VERTEX
  8
0
 10
29.580844
 20
90.548455
 42
0.055072
  0
VERTEX
  8
0
 10
37.250000
 20
88.562874
 42
0.000000
  0
VERTEX
  8
0
 10
42.000000
 20
87.877454
 42
0.000000
  0
VERTEX
  8
0
 10
42.000000
 20
71.938727
 42
-0.005284
  0
VERTEX
  8
0
 10
41.935378
 20
65.823876
 42
-0.008812
  0
VERTEX
  8
0
 10
41.735890
 20
60.679445
 42
-0.003092
  0
VERTEX
  8
0
 10
41.464000
 20
56.339414
 42
-0.394218
  0
VERTEX
  8
0
 10
41.100411
 20
56.000000
 42
-0.162476
  0
VERTEX
  8
0
 10
39.270342
 20
56.610809
 42
-0.009577
  0
VERTEX
  8
0
 10
34.593136
 20
60.266561
 42
-0.015239
  0
VERTEX
  8
0
 10
30.071090
 20
64.177479
 42
-0.043328
  0
VERTEX
  8
0
 10
27.262409
 20
67.249410
 42
0.043291
  0
VERTEX
  8
0
 10
24.470167
 20
70.303812
 42
0.099152
  0
VERTEX
  8
0
 10
21.816675
 20
71.916190
 42
0.084211
  0
VERTEX
  8
0
 10
18.472148
 20
72.525957
 42
0.025247
  0
VERTEX
  8
0
 10
13.279483
 20
72.327652
 42
0.016415
  0
VERTEX
  8
0
 10
7.867199
 20
71.666908
 42
0.076537
  0
VERTEX
  8
0
 10
4.879765
 20
70.719544
 42
0.116172
  0
VERTEX
  8
0
 10
2.954139
 20
69.126467
 42
0.063219
  0
VERTEX
  8
0
 10
1.415342
 20
66.451627
 42
0.119184
  0
VERTEX
  8
0
 10
-0.153126
 20
56.640814
 42
0.032112
  0
VERTEX
  8
0
 10
2.108115
 20
40.927176
 42
0.033330
  0
VERTEX
  8
0
 10
6.571595
 20
25.032120
 42
0.072768
  0
VERTEX
  8
0
 10
12.465575
 20
13.865992
 42
0.055616
  0
VERTEX
  8
0
 10
16.450296
 20
9.520115
 42
0.051758
  0
VERTEX
  8
0
 10
21.386924
 20
6.038989
 42
0.053812
  0
VERTEX
  8
0
 10
26.715317
 20
3.765812
 42
0.074065
  0
VERTEX
  8
0
 10
31.856846
 20
3.000000
 42
0.067019
  0
VERTEX
  8
0
 10
40.096266
 20
4.109377
 42
0.025470
  0
VERTEX
  8
0
 10
51.133133
 20
7.749794
 42
0.025170
  0
VERTEX
  8
0
 10
61.644766
 20
12.442276
 42
0.076107
  0
VERTEX
  8
0
 10
67.998671
 20
16.998701
 42
-0.037278
  0
VERTEX
  8
0
 10
70.587164
 20
19.176812
 42
-0.149934
  0
VERTEX
  8
0
 10
72.522079
 20
19.833826
 42
-0.171715
  0
VERTEX
  8
0
 10
74.334883
 20
19.252290
 42
-0.052586
  0
VERTEX
  8
0
 10
76.460152
 20
17.250000
 42
0.072284
  0
VERTEX
  8
0
 10
78.329828
 20
15.622132
 42
0.098661
  0
VERTEX
  8
0
 10
80.403013
 20
14.805185
 42
0.036177
  0
VERTEX
  8
0
 10
83.902644
 20
14.431547
 42
0.002627
  0
VERTEX
  8
0
 10
93.613259
 20
14.151955
 42
0.009953
  0
VERTEX
  8
0
 10
104.151997
 20
14.113763
 42
0.037813
  0
VERTEX
  8
0
 10
110.703326
 20
14.717349
 42
0.067164
  0
VERTEX
  8
0
 10
114.692557
 20
15.958315
 42
0.209942
  0
VERTEX
  8
0
 10
116.506998
 20
18.022048
 42
-0.042284
  0
VERTEX
  8
0
 10
116.819747
 20
18.778911
 42
-0.051759
  0
VERTEX
  8
0
 10
117.238908
 20
19.418977
 42
-0.060438
  0
VERTEX
  8
0
 10
117.695396
 20
19.858836
 42
-0.162950
  0
VERTEX
  8
0
 10
118.117048
 20
20.000000
 42
-0.119889
  0
VERTEX
  8
0
 10
120.141577
 20
19.507485
 42
-0.020342
  0
VERTEX
  8
0
 10
123.620386
 20
17.525084
 42
-0.019055
  0
VERTEX
  8
0
 10
127.934595
 20
14.594176
 42
-0.010443
  0
VERTEX
  8
0
 10
133.000000
 20
10.697426
 42
0.012461
  0
VERTEX
  8
0
 10
136.251591
 20
8.216836
 42
0.010419
  0
VERTEX
  8
0
 10
139.820220
 20
5.744160
 42
0.010556
  0
VERTEX
  8
0
 10
143.179394
 20
3.619403
 42
0.028118
  0
VERTEX
  8
0
 10
145.685855
 20
2.293221
 42
0.000000
  0
VERTEX
  8
0
 10
150.871710
 20
-0.087881
 42
0.000000
  0
VERTEX
  8
0
 10
158.185855
 20
3.393576
 42
0.040409
  0
VERTEX
  8
0
 10
165.626859
 20
7.703853
 42
0.037180
  0
VERTEX
  8
0
 10
172.501929
 20
13.264934
 42
0.038171
  0
VERTEX
  8
0
 10
178.288679
 20
19.602039
 42
0.050006
  0
VERTEX
  8
0
 10
182.476502
 20
26.225656
 42
0.006881
  0
VERTEX
  8
0
 10
183.826089
 20
29.018726
 42
0.009278
  0
VERTEX
  8
0
 10
184.964972
 20
31.584182
 42
0.006761
  0
VERTEX
  8
0
 10
185.844120
 20
33.749263
 42
0.093318
  0
VERTEX
  8
0
 10
186.000000
 20
34.577197
 42
-0.081929
  0
VERTEX
  8
0
 10
186.116904
 20
35.285855
 42
-0.016936
  0
VERTEX
  8
0
 10
186.564828
 20
36.472791
 42
-0.017379
  0
VERTEX
  8
0
 10
187.186746
 20
37.830726
 42
-0.015603
  0
VERTEX
  8
0
 10
187.922818
 20
39.192840
 42
0.081047
  0
VERTEX
  8
0
 10
190.243458
 20
45.267712
 42
0.072198
  0
VERTEX
  8
0
 10
190.642389
 20
52.019786
 42
0.078598
  0
VERTEX
  8
0
 10
189.153880
 20
58.049971
 42
0.139173
  0
VERTEX
  8
0
 10
185.974998
 20
62.017803
 42
-0.090765
  0
VERTEX
  8
0
 10
183.825638
 20
64.230029
 42
-0.149167
  0
VERTEX
  8
0
 10
183.075917
 20
66.707987
 42
-0.125279
  0
VERTEX
  8
0
 10
183.793891
 20
69.501031
 42
-0.054971
  0
VERTEX
  8
0
 10
186.000000
 20
72.652781
 42
0.077715
  0
VERTEX
  8
0
 10
188.144764
 20
76.032919
 42
0.097350
  0
VERTEX
  8
0
 10
188.939769
 20
79.652466
 42
0.071705
  0
VERTEX
  8
0
 10
188.395864
 20
84.123881
 42
0.025202
  0
VERTEX
  8
0
 10
186.390144
 20
90.287490
 42
0.019556
  0
VERTEX
  8
0
 10
184.728753
 20
94.172487
 42
0.049739
  0
VERTEX
  8
0
 10
183.147050
 20
96.795609
 42
0.047182
  0
VERTEX
  8
0
 10
181.028679
 20
99.132913
 42
0.016161
  0
VERTEX
  8
0
 10
177.551937
 20
102.108493
 42
-0.034409
  0
VERTEX
  8
0
 10
171.971953
 20
107.248249
 42
-0.015797
  0
VERTEX
  8
0
 10
165.403106
 20
114.646866
 42
-0.014632
  0
VERTEX
  8
0
 10
159.526176
 20
122.138327
 42
-0.062074
  0
VERTEX
  8
0
 10
156.740130
 20
127.096300
 42
0.000000
  0
VERTEX
  8
0
 10
155.349092
 20
130.500000
 42
0.000000
  0
VERTEX
  8
0
 10
144.458879
 20
130.500000
 42
0.000000
  0
VERTEX
  8
0
 10
133.568665
 20
130.500000
 42
0.000000
  0
VERTEX
  8
0
 10
132.617310
 20
133.176017
 42
-0.061559
  0
VERTEX
  8
0
 10
132.274189
 20
134.720452
 42
-0.023008
  0
VERTEX
  8
0
 10
132.163809
 20
136.942052
 42
-0.020348
  0
VERTEX
  8
0
 10
132.263004
 20
139.617786
 42
-0.014239
  0
VERTEX
  8
0
 10
132.582977
 20
142.618737
 42
0.000000
  0
VERTEX
  8
0
 10
133.500000
 20
149.385440
 42
0.000000
  0
VERTEX
  8
0
 10
138.000000
 20
150.531008
 42
0.027088
  0
VERTEX
  8
0
 10
142.336146
 20
151.888690
 42
0.037491
  0
VERTEX
  8
0
 10
146.034904
 20
153.596440
 42
0.037194
  0
VERTEX
  8
0
 10
149.459118
 20
155.848936
 42
0.026064
  0
VERTEX
  8
0
 10
152.966890
 20
158.853722
 42
0.019080
  0
VERTEX
  8
0
 10
155.196334
 20
161.142769
 42
0.071220
  0
VERTEX
  8
0
 10
156.314726
 20
162.806441
 42
0.082030
  0
VERTEX
  8
0
 10
156.839742
 20
164.592104
 42
0.030576
  0
VERTEX
  8
0
 10
157.000000
 20
167.210305
 42
0.029357
  0
VERTEX
  8
0
 10
156.872981
 20
169.371799
 42
0.041164
  0
VERTEX
  8
0
 10
156.489632
 20
171.266076
 42
0.045365
  0
VERTEX
  8
0
 10
155.842783
 20
172.920902
 42
0.050850
  0
VERTEX
  8
0
 10
154.927420
 20
174.365141
 42
-0.013841
  0
VERTEX
  8
0
 10
153.938008
 20
175.697256
 42
-0.095079
  0
VERTEX
  8
0
 10
153.605615
 20
176.438448
 42
-0.311691
  0
VERTEX
  8
0
 10
153.759725
 20
176.833069
 42
-0.149650
  0
VERTEX
  8
0
 10
154.304975
 20
177.000000
 42
0.138030
  0
VERTEX
  8
0
 10
155.877498
 20
177.442544
 42
0.116237
  0
VERTEX
  8
0
 10
157.111247
 20
178.663267
 42
0.115728
  0
VERTEX
  8
0
 10
157.673574
 20
180.311224
 42
0.135968
  0
VERTEX
  8
0
 10
157.392195
 20
181.932202
 42
0.093828
  0
VERTEX
  8
0
 10
156.635044
 20
182.972273
 42
0.009325
  0
VERTEX
  8
0
 10
154.338645
 20
185.051391
 42
0.011484
  0
VERTEX
  8
0
 10
151.474637
 20
187.435284
 42
0.008877
  0
VERTEX
  8
0
 10
148.250000
 20
189.904248
 42
-0.007174
  0
VERTEX
  8
0
 10
145.088241
 20
192.308034
 42
-0.010964
  0
VERTEX
  8
0
 10
142.423438
 20
194.490930
 42
-0.005725
  0
VERTEX
  8
0
 10
140.260336
 20
196.386930
 42
-0.213053
  0
VERTEX
  8
0
 10
140.000000
 20
196.970164
 42
0.182831
  0
VERTEX
  8
0
 10
139.821713
 20
197.441439
 42
0.034652
  0
VERTEX
  8
0
 10
139.155907
 20
198.097710
 42
0.032923
  0
VERTEX
  8
0
 10
138.226756
 20
198.793973
 42
0.025009
  0
VERTEX
  8
0
 10
137.126492
 20
199.434589
 42
-0.073153
  0
VERTEX
  8
0
 10
135.651019
 20
200.495301
 42
-0.045541
  0
VERTEX
  8
0
 10
134.258766
 20
202.113664
 42
-0.035206
  0
VERTEX
  8
0
 10
132.871112
 20
204.381907
 42
-0.016951
  0
VERTEX
  8
0
 10
131.403968
 20
207.460269
 42
0.013017
  0
VERTEX
  8
0
 10
130.233718
 20
209.966247
 42
0.019613
  0
VERTEX
  8
0
 10
129.073662
 20
212.078954
 42
0.015027
  0
VERTEX
  8
0
 10
128.026215
 20
213.708047
 42
0.247191
  0
VERTEX
  8
0
 10
127.471756
 20
214.000000
 42
0.114533
  0
VERTEX
  8
0
 10
126.859833
 20
213.857965
 42
0.015717
  0
VERTEX
  8
0
 10
125.694991
 20
213.240273
 42
0.017372
  0
VERTEX
  8
0
 10
124.342412
 20
212.404008
 42
0.013898
  0
VERTEX
  8
0
 10
122.944280
 20
211.413695
 42
-0.044038
  0
VERTEX
  8
0
 10
118.733257
 20
208.796672
 42
-0.078638
  0
VERTEX
  8
0
 10
114.860998
 20
207.551647
 42
-0.043364
  0
VERTEX
  8
0
 10
109.423306
 20
207.184265
 42
-0.005881
  0
VERTEX
  8
0
 10
98.000000
 20
207.538229
 42
0.000000
  0
VERTEX
  8
0
 10
81.500000
 20
208.243851
 42
0.000000
  0
VERTEX
  8
0
 10
77.459514
 20
212.621926
 42
0.040134
  0
VERTEX
  8
0
 10
74.317623
 20
215.521159
 42
0.108769
  0
VERTEX
  8
0
 10
71.600750
 20
216.828004
 42
0.132823
  0
VERTEX
  8
0
 10
68.927811
 20
216.741251
 42
0.074401
  0
SEQEND
  0
ENDSEC
  0
EOF
