  0
SECTION
  2
HEADER
  9
$ACADVER
  1
AC1006
  9
$EXTMIN
 10
0.000000
 20
0.000000
 30
0.000000
  9
$EXTMAX
 10
191.000000
 20
219.000000
 30
0.000000
  0
ENDSEC
  0
SECTION
  2
ENTITIES
  0
POLYLINE
  8
0
 66
1
 70
1
  0
VERTEX
  8
0
 10
66.780876
 20
216.947755
 42
0.050339
  0
VERTEX
  8
0
 10
63.748685
 20
214.933208
 42
0.106052
  0
VERTEX
  8
0
 10
61.996917
 20
212.733255
 42
0.102568
  0
VERTEX
  8
0
 10
61.268296
 20
209.957798
 42
0.045066
  0
VERTEX
  8
0
 10
61.412400
 20
206.143431
 42
-0.003961
  0
VERTEX
  8
0
 10
61.684142
 20
203.888070
 42
-0.001695
  0
VERTEX
  8
0
 10
62.013240
 20
200.869551
 42
-0.001677
  0
VERTEX
  8
0
 10
62.342340
 20
197.649647
 42
-0.002208
  0
VERTEX
  8
0
 10
62.619704
 20
194.710359
 42
0.000000
  0
VERTEX
  8
0
 10
63.230173
 20
187.920719
 42
0.000000
  0
VERTEX
  8
0
 10
56.732112
 20
188.586465
 42
0.014850
  0
VERTEX
  8
0
 10
52.856612
 20
188.867541
 42
0.056473
  0
VERTEX
  8
0
 10
50.439956
 20
188.697798
 42
0.060357
  0
VERTEX
  8
0
 10
48.203815
 20
187.997453
 42
0.018589
  0
VERTEX
  8
0
 10
45.034306
 20
186.422155
 42
0.033805
  0
VERTEX
  8
0
 10
40.791699
 20
183.726565
 42
0.054126
  0
VERTEX
  8
0
 10
37.631006
 20
180.830431
 42
0.066810
  0
VERTEX
  8
0
 10
35.664015
 20
177.876604
 42
0.114005
  0
VERTEX
  8
0
 10
35.000000
 20
175.002231
 42
0.050660
  0
VERTEX
  8
0
 10
35.404365
 20
171.021471
 42
0.007937
  0
VERTEX
  8
0
 10
37.115343
 20
163.310062
 42
0.005264
  0
VERTEX
  8
0
 10
39.079003
 20
155.447461
 42
0.108897
  0
VERTEX
  8
0
 10
40.179871
 20
153.292042
 42
0.157225
  0
VERTEX
  8
0
 10
40.954441
 20
152.795834
 42
0.019006
  0
VERTEX
  8
0
 10
42.955962
 20
152.348566
 42
0.020722
  0
VERTEX
  8
0
 10
45.477651
 20
151.992160
 42
0.014555
  0
VERTEX
  8
0
 10
48.337553
 20
151.792042
 42
0.000000
  0
VERTEX
  8
0
 10
55.500000
 20
151.500000
 42
0.000000
  0
VERTEX
  8
0
 10
56.019940
 20
146.332954
 42
0.026078
  0
VERTEX
  8
0
 10
56.353836
 20
144.159501
 42
0.027449
  0
VERTEX
  8
0
 10
56.908423
 20
142.070234
 42
0.029247
  0
VERTEX
  8
0
 10
57.599938
 20
140.302179
 42
0.076212
  0
VERTEX
  8
0
 10
58.350298
 20
139.165419
 42
-0.056205
  0
VERTEX
  8
0
 10
59.018727
 20
138.235575
 42
-0.043583
  0
VERTEX
  8
0
 10
59.531862
 20
137.098368
 42
-0.044781
  0
VERTEX
  8
0
 10
59.825118
 20
135.936606
 42
-0.076402
  0
VERTEX
  8
0
 10
59.830358
 20
134.937845
 42
-0.221531
  0
VERTEX
  8
0
 10
58.627182
 20
133.114491
 42
-0.053647
  0
VERTEX
  8
0
 10
55.280041
 20
131.521089
 42
-0.040292
  0
VERTEX
  8
0
 10
50.308213
 20
130.216707
 42
-0.019699
  0
VERTEX
  8
0
 10
43.811772
 20
129.323469
 42
0.000000
  0
VERTEX
  8
0
 10
38.123544
 20
128.768555
 42
0.000000
  0
VERTEX
  8
0
 10
36.706692
 20
132.134277
 42
0.044967
  0
VERTEX
  8
0
 10
35.832035
 20
133.780743
 42
0.014478
  0
VERTEX
  8
0
 10
34.253188
 20
136.053506
 42
0.014310
  0
VERTEX
  8
0
 10
32.341341
 20
138.493036
 42
0.015562
  0
VERTEX
  8
0
 10
30.343959
 20
140.750000
 42
0.012289
  0
VERTEX
  8
0
 10
27.443596
 20
143.680927
 42
0.058398
  0
VERTEX
  8
0
 10
25.567812
 20
145.105127
 42
0.086549
  0
VERTEX
  8
0
 10
23.784136
 20
145.776646
 42
0.047238
  0
VERTEX
  8
0
 10
21.449040
 20
145.994423
 42
0.053983
  0
VERTEX
  8
0
 10
15.559593
 20
145.348288
 42
0.073634
  0
VERTEX
  8
0
 10
10.576381
 20
143.449013
 42
0.077258
  0
VERTEX
  8
0
 10
6.532234
 20
140.275509
 42
0.066990
  0
VERTEX
  8
0
 10
3.408395
 20
135.876182
 42
0.056740
  0
VERTEX
  8
0
 10
2.543701
 20
133.648875
 42
0.029353
  0
VERTEX
  8
0
 10
1.954687
 20
130.717072
 42
0.020631
  0
VERTEX
  8
0
 10
1.560507
 20
126.720859
 42
0.007388
  0
VERTEX
  8
0
 10
1.318432
 20
121.000000
 42
0.000000
  0
VERTEX
  8
0
 10
1.001937
 20
109.500000
 42
0.000000
  0
VERTEX
  8
0
 10
4.750969
 20
102.000000
 42
0.051029
  0
VERTEX
  8
0
 10
9.231019
 20
94.940980
 42
0.105167
  0
VERTEX
  8
0
 10
14.235985
 20
90.778535
 42
0.090324
  0
VERTEX
  8
0
 10
21.019966
 20
88.650016
 42
0.030820
  0
VERTEX
  8
0
 10
31.359053
 20
88.005577
 42
-0.007376
  0
VERTEX
  8
0
 10
36.439293
 20
87.927425
 42
-0.042033
  0
VERTEX
  8
0
 10
39.120234
 20
87.620055
 42
-0.076051
  0
VERTEX
  8
0
 10
40.937427
 20
86.956774
 42
-0.064306
  0
VERTEX
  8
0
 10
42.591776
 20
85.750000
 42
-0.088634
  0
VERTEX
  8
0
 10
43.958612
 20
83.896194
 42
-0.082174
  0
VERTEX
  8
0
 10
44.644762
 20
81.634430
 42
-0.029911
  0
VERTEX
  8
0
 10
44.921375
 20
77.731851
 42
-0.002469
  0
VERTEX
  8
0
 10
44.982723
 20
67.541792
 42
0.000000
  0
VERTEX
  8
0
 10
45.000000
 20
51.583584
 42
0.000000
  0
VERTEX
  8
0
 10
40.643711
 20
55.858959
 42
-0.022990
  0
VERTEX
  8
0
 10
38.805430
 20
57.836969
 42
-0.015407
  0
VERTEX
  8
0
 10
36.882559
 20
60.254024
 42
-0.015534
  0
VERTEX
  8
0
 10
35.161347
 20
62.715965
 42
-0.029341
  0
VERTEX
  8
0
 10
33.957134
 20
64.817167
 42
0.030584
  0
VERTEX
  8
0
 10
31.893014
 20
68.398163
 42
0.035085
  0
VERTEX
  8
0
 10
29.490853
 20
71.530767
 42
0.037694
  0
VERTEX
  8
0
 10
26.862056
 20
74.085548
 42
0.051137
  0
VERTEX
  8
0
 10
24.119936
 20
75.935812
 42
0.118850
  0
VERTEX
  8
0
 10
20.768960
 20
76.808637
 42
0.049844
  0
VERTEX
  8
0
 10
16.092603
 20
76.427196
 42
0.045340
  0
VERTEX
  8
0
 10
10.921552
 20
74.987087
 42
0.043068
  0
VERTEX
  8
0
 10
6.000000
 20
72.619933
 42
0.000000
  0
VERTEX
  8
0
 10
0.500000
 20
69.364818
 42
0.000000
  0
VERTEX
  8
0
 10
0.209880
 20
59.986374
 42
0.018364
  0
VERTEX
  8
0
 10
0.245095
 20
53.914906
 42
0.036796
  0
VERTEX
  8
0
 10
0.800381
 20
49.152942
 42
0.047348
  0
VERTEX
  8
0
 10
1.748690
 20
45.907332
 42
0.307119
  0
VERTEX
  8
0
 10
3.086524
 20
45.000000
 42
-0.142637
  0
VERTEX
  8
0
 10
3.583138
 20
44.855387
 42
-0.012047
  0
VERTEX
  8
0
 10
4.701805
 20
44.105053
 42
-0.015225
  0
VERTEX
  8
0
 10
6.009728
 20
43.120311
 42
-0.011182
  0
VERTEX
  8
0
 10
7.400324
 20
41.953373
 42
-0.066291
  0
VERTEX
  8
0
 10
9.852455
 20
39.145533
 42
-0.046620
  0
VERTEX
  8
0
 10
11.837395
 20
35.444818
 42
-0.038854
  0
VERTEX
  8
0
 10
13.394572
 20
30.768991
 42
-0.022990
  0
VERTEX
  8
0
 10
14.550997
 20
25.000000
 42
0.064440
  0
VERTEX
  8
0
 10
16.385338
 20
18.634360
 42
0.062983
  0
VERTEX
  8
0
 10
19.789422
 20
12.891378
 42
0.074174
  0
VERTEX
  8
0
 10
23.804481
 20
9.061032
 42
0.227578
  0
VERTEX
  8
0
 10
27.414279
 20
8.455314
 42
-0.042777
  0
VERTEX
  8
0
 10
28.761979
 20
8.722593
 42
-0.004033
  0
VERTEX
  8
0
 10
32.118569
 20
9.066882
 42
-0.005142
  0
VERTEX
  8
0
 10
36.135043
 20
9.404512
 42
-0.004025
  0
VERTEX
  8
0
 10
40.500000
 20
9.690961
 42
0.008977
  0
VERTEX
  8
0
 10
46.970287
 20
10.179968
 42
0.032806
  0
VERTEX
  8
0
 10
51.030750
 20
10.830974
 42
0.037348
  0
VERTEX
  8
0
 10
54.701083
 20
11.963227
 42
0.014244
  0
VERTEX
  8
0
 10
59.628024
 20
14.060106
 42
0.007440
  0
VERTEX
  8
0
 10
62.791266
 20
15.571542
 42
0.010405
  0
VERTEX
  8
0
 10
65.568483
 20
17.022440
 42
0.007064
  0
VERTEX
  8
0
 10
67.833587
 20
18.308446
 42
0.122286
  0
VERTEX
  8
0
 10
68.437041
 20
18.898131
 42
-0.218402
  0
VERTEX
  8
0
 10
69.826929
 20
19.823052
 42
-0.060559
  0
VERTEX
  8
0
 10
72.510923
 20
19.920116
 42
-0.051926
  0
VERTEX
  8
0
 10
75.768295
 20
19.298446
 42
-0.044881
  0
VERTEX
  8
0
 10
79.000000
 20
18.000000
 42
0.040524
  0
VERTEX
  8
0
 10
81.388881
 20
17.015973
 42
0.040058
  0
VERTEX
  8
0
 10
83.914440
 20
16.425529
 42
0.029468
  0
VERTEX
  8
0
 10
87.105679
 20
16.135383
 42
0.010338
  0
VERTEX
  8
0
 10
91.710162
 20
16.084383
 42
0.010299
  0
VERTEX
  8
0
 10
100.879660
 20
16.361354
 42
0.029767
  0
VERTEX
  8
0
 10
107.192189
 20
17.060525
 42
0.043784
  0
VERTEX
  8
0
 10
111.599691
 20
18.220459
 42
0.102694
  0
VERTEX
  8
0
 10
114.490017
 20
19.990621
 42
0.000000
  0
VERTEX
  8
0
 10
117.035476
 20
22.381956
 42
0.000000
  0
VERTEX
  8
0
 10
119.767738
 20
19.216601
 42
0.037157
  0
VERTEX
  8
0
 10
123.806469
 20
15.185751
 42
0.016607
  0
VERTEX
  8
0
 10
129.663208
 20
10.479295
 42
0.016653
  0
VERTEX
  8
0
 10
135.943337
 20
6.086100
 42
0.030453
  0
VERTEX
  8
0
 10
141.377739
 20
3.001735
 42
0.012949
  0
VERTEX
  8
0
 10
145.188340
 20
1.256676
 42
0.060576
  0
VERTEX
  8
0
 10
147.501411
 20
0.585167
 42
0.064802
  0
VERTEX
  8
0
 10
149.835451
 20
0.510178
 42
0.016124
  0
VERTEX
  8
0
 10
153.631965
 20
1.004787
 42
0.032750
  0
VERTEX
  8
0
 10
159.493397
 20
2.360346
 42
0.031476
  0
VERTEX
  8
0
 10
165.208323
 20
4.483323
 42
0.033096
  0
VERTEX
  8
0
 10
170.001086
 20
7.007687
 42
0.088563
  0
VERTEX
  8
0
 10
172.872548
 20
9.565101
 42
0.048596
  0
VERTEX
  8
0
 10
175.570709
 20
13.780170
 42
0.004143
  0
VERTEX
  8
0
 10
181.324776
 20
25.278242
 42
0.005312
  0
VERTEX
  8
0
 10
186.811796
 20
36.781164
 42
0.027916
  0
VERTEX
  8
0
 10
189.399286
 20
43.284947
 42
0.037699
  0
VERTEX
  8
0
 10
190.480131
 20
47.563079
 42
0.037919
  0
VERTEX
  8
0
 10
190.903584
 20
51.946637
 42
0.040780
  0
VERTEX
  8
0
 10
190.664286
 20
55.863681
 42
0.092565
  0
VERTEX
  8
0
 10
189.714565
 20
58.662525
 42
0.028467
  0
VERTEX
  8
0
 10
189.030673
 20
59.732651
 42
0.009222
  0
VERTEX
  8
0
 10
187.902091
 20
61.235800
 42
0.009161
  0
VERTEX
  8
0
 10
186.583339
 20
62.863964
 42
0.010172
  0
VERTEX
  8
0
 10
185.250000
 20
64.385875
 42
-0.011248
  0
VERTEX
  8
0
 10
184.005137
 20
65.812980
 42
-0.015404
  0
VERTEX
  8
0
 10
182.954688
 20
67.155354
 42
-0.012116
  0
VERTEX
  8
0
 10
182.153172
 20
68.304688
 42
-0.147233
  0
VERTEX
  8
0
 10
182.000000
 20
68.813581
 42
-0.105471
  0
VERTEX
  8
0
 10
182.119546
 20
69.374002
 42
-0.005795
  0
VERTEX
  8
0
 10
182.875929
 20
71.014936
 42
-0.008776
  0
VERTEX
  8
0
 10
183.839587
 20
72.954772
 42
-0.006288
  0
VERTEX
  8
0
 10
184.981885
 20
75.090231
 42
0.025594
  0
VERTEX
  8
0
 10
187.113635
 20
79.474271
 42
0.091326
  0
VERTEX
  8
0
 10
187.789345
 20
82.506445
 42
0.076650
  0
VERTEX
  8
0
 10
187.399677
 20
85.853951
 42
0.014742
  0
VERTEX
  8
0
 10
185.598993
 20
91.708948
 42
0.032924
  0
VERTEX
  8
0
 10
182.459413
 20
99.267768
 42
0.040550
  0
VERTEX
  8
0
 10
178.531643
 20
105.812112
 42
0.040952
  0
VERTEX
  8
0
 10
173.634595
 20
111.585397
 42
0.034708
  0
VERTEX
  8
0
 10
167.597937
 20
116.838306
 42
-0.018889
  0
VERTEX
  8
0
 10
164.603738
 20
119.281826
 42
-0.061226
  0
VERTEX
  8
0
 10
162.903623
 20
121.195962
 42
-0.062459
  0
VERTEX
  8
0
 10
161.735497
 20
123.444133
 42
-0.020225
  0
VERTEX
  8
0
 10
160.575383
 20
127.016586
 42
0.006963
  0
VERTEX
  8
0
 10
159.374440
 20
131.078394
 42
0.106833
  0
VERTEX
  8
0
 10
158.659709
 20
132.343479
 42
0.222827
  0
VERTEX
  8
0
 10
157.659105
 20
132.772659
 42
0.044028
  0
VERTEX
  8
0
 10
155.669721
 20
132.530156
 42
-0.009832
  0
VERTEX
  8
0
 10
154.136743
 20
132.235913
 42
-0.004352
  0
VERTEX
  8
0
 10
152.102195
 20
131.904927
 42
-0.004305
  0
VERTEX
  8
0
 10
149.939945
 20
131.591492
 42
-0.005787
  0
VERTEX
  8
0
 10
147.976048
 20
131.347171
 42
-0.025423
  0
VERTEX
  8
0
 10
145.284141
 20
131.181787
 42
-0.089769
  0
VERTEX
  8
0
 10
143.582770
 20
131.471272
 42
-0.082719
  0
VERTEX
  8
0
 10
142.017722
 20
132.352159
 42
-0.019607
  0
VERTEX
  8
0
 10
139.752584
 20
134.326553
 42
0.009586
  0
VERTEX
  8
0
 10
138.248266
 20
135.691777
 42
0.011698
  0
VERTEX
  8
0
 10
136.787657
 20
136.908105
 42
0.010281
  0
VERTEX
  8
0
 10
135.521912
 20
137.871207
 42
0.077185
  0
VERTEX
  8
0
 10
134.854276
 20
138.215241
 42
-0.226933
  0
VERTEX
  8
0
 10
134.348970
 20
138.703320
 42
-0.027036
  0
VERTEX
  8
0
 10
133.872705
 20
140.230117
 42
-0.027145
  0
VERTEX
  8
0
 10
133.474015
 20
142.258985
 42
-0.016889
  0
VERTEX
  8
0
 10
133.217407
 20
144.671133
 42
0.000000
  0
VERTEX
  8
0
 10
132.779334
 20
150.727425
 42
0.000000
  0
VERTEX
  8
0
 10
136.038890
 20
151.863713
 42
-0.013493
  0
VERTEX
  8
0
 10
137.404257
 20
152.298738
 42
-0.012912
  0
VERTEX
  8
0
 10
138.811180
 20
152.666447
 42
-0.012959
  0
VERTEX
  8
0
 10
140.068768
 20
152.926483
 42
-0.044402
  0
VERTEX
  8
0
 10
140.899223
 20
153.000789
 42
0.103608
  0
VERTEX
  8
0
 10
143.712586
 20
153.591534
 42
0.015881
  0
VERTEX
  8
0
 10
148.903536
 20
156.068446
 42
0.012878
  0
VERTEX
  8
0
 10
153.984905
 20
158.862400
 42
0.170605
  0
VERTEX
  8
0
 10
155.349383
 20
160.468094
 42
0.093571
  0
VERTEX
  8
0
 10
156.197639
 20
165.134694
 42
0.050867
  0
VERTEX
  8
0
 10
155.564797
 20
170.947844
 42
0.051154
  0
VERTEX
  8
0
 10
153.904041
 20
176.091611
 42
0.200074
  0
VERTEX
  8
0
 10
151.536985
 20
178.347434
 42
-0.176761
  0
VERTEX
  8
0
 10
150.460126
 20
179.284916
 42
-0.125155
  0
VERTEX
  8
0
 10
150.051239
 20
180.849910
 42
-0.109276
  0
VERTEX
  8
0
 10
150.425690
 20
182.596897
 42
-0.112784
  0
VERTEX
  8
0
 10
151.500000
 20
184.000000
 42
0.085205
  0
VERTEX
  8
0
 10
152.571927
 20
185.251982
 42
0.150832
  0
VERTEX
  8
0
 10
152.890464
 20
186.561198
 42
0.084146
  0
VERTEX
  8
0
 10
152.474157
 20
188.350184
 42
0.014856
  0
VERTEX
  8
0
 10
151.043887
 20
191.500000
 42
-0.013250
  0
VERTEX
  8
0
 10
150.253595
 20
193.225680
 42
-0.010949
  0
VERTEX
  8
0
 10
149.501279
 20
195.103459
 42
-0.011101
  0
VERTEX
  8
0
 10
148.886942
 20
196.857098
 42
-0.028890
  0
VERTEX
  8
0
 10
148.547137
 20
198.150074
 42
0.065289
  0
VERTEX
  8
0
 10
148.122930
 20
199.390055
 42
0.076074
  0
VERTEX
  8
0
 10
147.408199
 20
200.408605
 42
0.070738
  0
VERTEX
  8
0
 10
146.374858
 20
201.220271
 42
0.047323
  0
VERTEX
  8
0
 10
145.006028
 20
201.848054
 42
-0.047111
  0
VERTEX
  8
0
 10
143.243200
 20
202.655629
 42
-0.162128
  0
VERTEX
  8
0
 10
142.419462
 20
203.584269
 42
-0.091755
  0
VERTEX
  8
0
 10
142.071434
 20
205.132253
 42
-0.009538
  0
VERTEX
  8
0
 10
142.000000
 20
208.876552
 42
0.032637
  0
VERTEX
  8
0
 10
141.711692
 20
213.288705
 42
0.116014
  0
VERTEX
  8
0
 10
140.716283
 20
215.921264
 42
0.141304
  0
VERTEX
  8
0
 10
138.779942
 20
217.544138
 42
0.057904
  0
VERTEX
  8
0
 10
135.474047
 20
218.570847
 42
0.073590
  0
VERTEX
  8
0
 10
130.401603
 20
218.766383
 42
0.028602
  0
VERTEX
  8
0
 10
123.456579
 20
217.605834
 42
0.028112
  0
VERTEX
  8
0
 10
116.134641
 20
215.508514
 42
0.036342
  0
VERTEX
  8
0
 10
109.719687
 20
212.736875
 42
-0.063150
  0
VERTEX
  8
0
 10
105.157788
 20
211.049108
 42
-0.039907
  0
VERTEX
  8
0
 10
99.537885
 20
210.208658
 42
-0.039744
  0
VERTEX
  8
0
 10
93.816024
 20
210.270289
 42
-0.059780
  0
VERTEX
  8
0
 10
88.940585
 20
211.307594
 42
-0.015880
  0
VERTEX
  8
0
 10
86.826721
 20
212.105214
 42
-0.007024
  0
VERTEX
  8
0
 10
84.085530
 20
213.285604
 42
-0.006944
  0
VERTEX
  8
0
 10
81.213575
 20
214.618590
 42
-0.009288
  0
VERTEX
  8
0
 10
78.648454
 20
215.911954
 42
0.010723
  0
VERTEX
  8
0
 10
74.170398
 20
218.153749
 42
0.089145
  0
VERTEX
  8
0
 10
71.987990
 20
218.745731
 42
0.118828
  0
VERTEX
  8
0
 10
69.996919
 20
218.445853
 42
0.024954
  0
SEQEND
  0
ENDSEC
  0
EOF
