  0
SECTION
  2
HEADER
  9
$ACADVER
  1
AC1006
  9
$EXTMIN
 10
0.000000
 20
0.000000
 30
0.000000
  9
$EXTMAX
 10
190.000000
 20
216.000000
 30
0.000000
  0
ENDSEC
  0
SECTION
  2
ENTITIES
  0
POLYLINE
  8
0
 66
1
 70
1
  0
VERTEX
  8
0
 10
61.749978
 20
214.919889
 42
0.065317
  0
VERTEX
  8
0
 10
60.966319
 20
214.314369
 42
0.024919
  0
VERTEX
  8
0
 10
60.041767
 20
213.286767
 42
0.024169
  0
VERTEX
  8
0
 10
59.136347
 20
212.056636
 42
0.027238
  0
VERTEX
  8
0
 10
58.392270
 20
210.791672
 42
0.031193
  0
VERTEX
  8
0
 10
57.600402
 20
208.993817
 42
0.074483
  0
VERTEX
  8
0
 10
57.305902
 20
207.569031
 42
0.069329
  0
VERTEX
  8
0
 10
57.431981
 20
206.059015
 42
0.024264
  0
VERTEX
  8
0
 10
58.014934
 20
203.954751
 42
-0.035887
  0
VERTEX
  8
0
 10
58.441341
 20
202.263880
 42
-0.023179
  0
VERTEX
  8
0
 10
58.701108
 20
200.260414
 42
-0.023294
  0
VERTEX
  8
0
 10
58.772910
 20
198.267333
 42
-0.040039
  0
VERTEX
  8
0
 10
58.622642
 20
196.613376
 42
-0.002345
  0
VERTEX
  8
0
 10
57.215486
 20
188.670049
 42
-0.085120
  0
VERTEX
  8
0
 10
56.581594
 20
186.932693
 42
-0.235329
  0
VERTEX
  8
0
 10
55.461479
 20
186.184551
 42
-0.031665
  0
VERTEX
  8
0
 10
52.550316
 20
186.000000
 42
0.079093
  0
VERTEX
  8
0
 10
48.107979
 20
185.292859
 42
0.031685
  0
VERTEX
  8
0
 10
42.372271
 20
183.008166
 42
0.030859
  0
VERTEX
  8
0
 10
37.086932
 20
180.092491
 42
0.106638
  0
VERTEX
  8
0
 10
34.318192
 20
177.362870
 42
0.134916
  0
VERTEX
  8
0
 10
33.183357
 20
173.842289
 42
0.033730
  0
VERTEX
  8
0
 10
33.328576
 20
167.747099
 42
0.034981
  0
VERTEX
  8
0
 10
34.385451
 20
161.247215
 42
0.057165
  0
VERTEX
  8
0
 10
36.273096
 20
156.000000
 42
0.000000
  0
VERTEX
  8
0
 10
38.500000
 20
151.500000
 42
0.000000
  0
VERTEX
  8
0
 10
45.552129
 20
151.210184
 42
0.000000
  0
VERTEX
  8
0
 10
52.604258
 20
150.920369
 42
0.000000
  0
VERTEX
  8
0
 10
54.552129
 20
143.785054
 42
0.011486
  0
VERTEX
  8
0
 10
55.394731
 20
140.955952
 42
0.014080
  0
VERTEX
  8
0
 10
56.315983
 20
138.356558
 42
0.012563
  0
VERTEX
  8
0
 10
57.199246
 20
136.231288
 42
0.091527
  0
VERTEX
  8
0
 10
57.821429
 20
135.324870
 42
-0.047571
  0
VERTEX
  8
0
 10
58.445010
 20
134.567824
 42
-0.166267
  0
VERTEX
  8
0
 10
58.608039
 20
133.965753
 42
-0.146702
  0
VERTEX
  8
0
 10
58.376056
 20
133.342657
 42
-0.034430
  0
VERTEX
  8
0
 10
57.636937
 20
132.494080
 42
0.036562
  0
VERTEX
  8
0
 10
57.014001
 20
131.772711
 42
0.022674
  0
VERTEX
  8
0
 10
56.387468
 20
130.844763
 42
0.022703
  0
VERTEX
  8
0
 10
55.849401
 20
129.867139
 42
0.037620
  0
VERTEX
  8
0
 10
55.498121
 20
128.994080
 42
-0.123848
  0
VERTEX
  8
0
 10
54.850830
 20
127.947203
 42
-0.127874
  0
VERTEX
  8
0
 10
53.792366
 20
127.346472
 42
-0.057033
  0
VERTEX
  8
0
 10
51.905581
 20
127.065351
 42
-0.008491
  0
VERTEX
  8
0
 10
48.057612
 20
127.000000
 42
-0.006606
  0
VERTEX
  8
0
 10
43.694367
 20
127.057654
 42
-0.083741
  0
VERTEX
  8
0
 10
42.088486
 20
127.372358
 42
-0.192324
  0
VERTEX
  8
0
 10
41.241733
 20
128.146476
 42
-0.063279
  0
VERTEX
  8
0
 10
40.694691
 20
129.776543
 42
0.073530
  0
VERTEX
  8
0
 10
39.709740
 20
132.524266
 42
0.044812
  0
VERTEX
  8
0
 10
37.815040
 20
135.412703
 42
0.039313
  0
VERTEX
  8
0
 10
35.126707
 20
138.305936
 42
0.029157
  0
VERTEX
  8
0
 10
31.745964
 20
141.069063
 42
0.000000
  0
VERTEX
  8
0
 10
27.806424
 20
143.922851
 42
0.000000
  0
VERTEX
  8
0
 10
19.051151
 20
139.525690
 42
0.028845
  0
VERTEX
  8
0
 10
12.067349
 20
135.498196
 42
0.142443
  0
VERTEX
  8
0
 10
9.147758
 20
132.081022
 42
0.104726
  0
VERTEX
  8
0
 10
8.058997
 20
127.103933
 42
0.012144
  0
VERTEX
  8
0
 10
8.261235
 20
115.624721
 42
0.012425
  0
VERTEX
  8
0
 10
8.938794
 20
105.489503
 42
0.057718
  0
VERTEX
  8
0
 10
10.141617
 20
99.759443
 42
0.093419
  0
VERTEX
  8
0
 10
12.308430
 20
95.872162
 42
0.067596
  0
VERTEX
  8
0
 10
15.975939
 20
92.516674
 42
0.029118
  0
VERTEX
  8
0
 10
18.478016
 20
90.990225
 42
0.049094
  0
VERTEX
  8
0
 10
20.748402
 20
90.053083
 42
0.042607
  0
VERTEX
  8
0
 10
23.374128
 20
89.498387
 42
0.016648
  0
VERTEX
  8
0
 10
27.068364
 20
89.165979
 42
0.000000
  0
VERTEX
  8
0
 10
33.881235
 20
88.781018
 42
0.000000
  0
VERTEX
  8
0
 10
34.940618
 20
83.841288
 42
-0.027154
  0
VERTEX
  8
0
 10
35.349511
 20
81.257765
 42
-0.008336
  0
VERTEX
  8
0
 10
35.688806
 20
77.322302
 42
-0.008315
  0
VERTEX
  8
0
 10
35.922221
 20
72.897448
 42
-0.009019
  0
VERTEX
  8
0
 10
36.000000
 20
68.585638
 42
0.006277
  0
VERTEX
  8
0
 10
36.072910
 20
62.778480
 42
0.033408
  0
VERTEX
  8
0
 10
36.364082
 20
59.619019
 42
0.060757
  0
VERTEX
  8
0
 10
36.977080
 20
57.487685
 42
0.066372
  0
VERTEX
  8
0
 10
38.072580
 20
55.634859
 42
-0.056707
  0
VERTEX
  8
0
 10
39.268772
 20
53.697867
 42
-0.782452
  0
VERTEX
  8
0
 10
38.905124
 20
53.402092
 42
-0.033583
  0
VERTEX
  8
0
 10
35.974569
 20
55.932258
 42
-0.006576
  0
VERTEX
  8
0
 10
31.081655
 20
60.895171
 42
0.022557
  0
VERTEX
  8
0
 10
24.818479
 20
66.854536
 42
0.075693
  0
VERTEX
  8
0
 10
20.047128
 20
69.874880
 42
0.114610
  0
VERTEX
  8
0
 10
15.753946
 20
70.678402
 42
0.095396
  0
VERTEX
  8
0
 10
11.225848
 20
69.601843
 42
0.074402
  0
VERTEX
  8
0
 10
8.135012
 20
67.611264
 42
0.024417
  0
VERTEX
  8
0
 10
4.236678
 20
63.834805
 42
0.020009
  0
VERTEX
  8
0
 10
0.773339
 20
59.825291
 42
0.169981
  0
VERTEX
  8
0
 10
0.001178
 20
57.612086
 42
0.048630
  0
VERTEX
  8
0
 10
0.301507
 20
54.564933
 42
0.006942
  0
VERTEX
  8
0
 10
1.607383
 20
48.417370
 42
0.007550
  0
VERTEX
  8
0
 10
3.091906
 20
42.305954
 42
0.038510
  0
VERTEX
  8
0
 10
4.225669
 20
39.000000
 42
0.041100
  0
VERTEX
  8
0
 10
5.258040
 20
37.062226
 42
0.007077
  0
VERTEX
  8
0
 10
7.561506
 20
33.590625
 42
0.007663
  0
VERTEX
  8
0
 10
10.392680
 20
29.585198
 42
0.006782
  0
VERTEX
  8
0
 10
13.460960
 20
25.500000
 42
-0.005454
  0
VERTEX
  8
0
 10
16.559187
 20
21.397649
 42
-0.005931
  0
VERTEX
  8
0
 10
19.480535
 20
17.340637
 42
-0.005597
  0
VERTEX
  8
0
 10
21.901311
 20
13.809910
 42
-0.028774
  0
VERTEX
  8
0
 10
23.105172
 20
11.766000
 42
0.087263
  0
VERTEX
  8
0
 10
25.245210
 20
8.944143
 42
0.130554
  0
VERTEX
  8
0
 10
27.963067
 20
7.500644
 42
0.058604
  0
VERTEX
  8
0
 10
32.532687
 20
6.988934
 42
0.006899
  0
VERTEX
  8
0
 10
42.784859
 20
7.187395
 42
0.013176
  0
VERTEX
  8
0
 10
52.524979
 20
7.767663
 42
0.074504
  0
VERTEX
  8
0
 10
57.571441
 20
8.973711
 42
0.107779
  0
VERTEX
  8
0
 10
61.148916
 20
11.410972
 42
0.042255
  0
VERTEX
  8
0
 10
64.893571
 20
16.103170
 42
-0.016906
  0
VERTEX
  8
0
 10
66.378358
 20
18.170238
 42
-0.023261
  0
VERTEX
  8
0
 10
67.857334
 20
19.914681
 42
-0.021108
  0
VERTEX
  8
0
 10
69.171375
 20
21.211613
 42
-0.186269
  0
VERTEX
  8
0
 10
69.918629
 20
21.500000
 42
-0.150101
  0
VERTEX
  8
0
 10
70.578029
 20
21.297484
 42
-0.043633
  0
VERTEX
  8
0
 10
71.411950
 20
20.618750
 42
-0.039591
  0
VERTEX
  8
0
 10
72.265413
 20
19.648178
 42
-0.033377
  0
VERTEX
  8
0
 10
73.010161
 20
18.500000
 42
0.037991
  0
VERTEX
  8
0
 10
74.102751
 20
16.849080
 42
0.118287
  0
VERTEX
  8
0
 10
75.137113
 20
16.021592
 42
0.097228
  0
VERTEX
  8
0
 10
76.553121
 20
15.666936
 42
0.020973
  0
VERTEX
  8
0
 10
79.091532
 20
15.642500
 42
0.001530
  0
VERTEX
  8
0
 10
81.784734
 20
15.737806
 42
0.000190
  0
VERTEX
  8
0
 10
87.648764
 20
15.965516
 42
0.000224
  0
VERTEX
  8
0
 10
94.613247
 20
16.241726
 42
0.000185
  0
VERTEX
  8
0
 10
102.031920
 20
16.542025
 42
-0.007080
  0
VERTEX
  8
0
 10
116.159887
 20
16.918882
 42
-0.054919
  0
VERTEX
  8
0
 10
122.720038
 20
16.279097
 42
-0.096352
  0
VERTEX
  8
0
 10
127.385767
 20
14.311645
 42
-0.043467
  0
VERTEX
  8
0
 10
132.579398
 20
10.128521
 42
0.008708
  0
VERTEX
  8
0
 10
134.687224
 20
8.174669
 42
0.009254
  0
VERTEX
  8
0
 10
136.820198
 20
6.335437
 42
0.008916
  0
VERTEX
  8
0
 10
138.711329
 20
4.820968
 42
0.041528
  0
VERTEX
  8
0
 10
139.883394
 20
4.062406
 42
0.038064
  0
VERTEX
  8
0
 10
143.086724
 20
2.649883
 42
0.018459
  0
VERTEX
  8
0
 10
147.362468
 20
1.316445
 42
0.018265
  0
VERTEX
  8
0
 10
151.640779
 20
0.319833
 42
0.047297
  0
VERTEX
  8
0
 10
154.789838
 20
0.010824
 42
0.105722
  0
VERTEX
  8
0
 10
159.957050
 20
1.097982
 42
0.054932
  0
VERTEX
  8
0
 10
165.676523
 20
4.432124
 42
0.050469
  0
VERTEX
  8
0
 10
171.106908
 20
9.374543
 42
0.050409
  0
VERTEX
  8
0
 10
175.439485
 20
15.306527
 42
-0.009674
  0
VERTEX
  8
0
 10
176.540989
 20
17.105393
 42
-0.014640
  0
VERTEX
  8
0
 10
177.574467
 20
18.622319
 42
-0.009289
  0
VERTEX
  8
0
 10
178.481082
 20
19.825074
 42
-0.229129
  0
VERTEX
  8
0
 10
178.845022
 20
20.003497
 42
0.246090
  0
VERTEX
  8
0
 10
179.201771
 20
20.192834
 42
0.008541
  0
VERTEX
  8
0
 10
180.095258
 20
21.547126
 42
0.014182
  0
VERTEX
  8
0
 10
181.106357
 20
23.242530
 42
0.009229
  0
VERTEX
  8
0
 10
182.181388
 20
25.253497
 42
0.014398
  0
VERTEX
  8
0
 10
187.600476
 20
36.655330
 42
0.064676
  0
VERTEX
  8
0
 10
189.677902
 20
43.727422
 42
0.095278
  0
VERTEX
  8
0
 10
189.478594
 20
49.685065
 42
0.053616
  0
VERTEX
  8
0
 10
187.121612
 20
56.553816
 42
-0.023604
  0
VERTEX
  8
0
 10
184.871474
 20
62.020306
 42
-0.082319
  0
VERTEX
  8
0
 10
184.194254
 20
65.762728
 42
-0.086568
  0
VERTEX
  8
0
 10
184.777080
 20
69.421884
 42
-0.027814
  0
VERTEX
  8
0
 10
186.856314
 20
74.534297
 42
0.000000
  0
VERTEX
  8
0
 10
189.711051
 20
80.568594
 42
0.000000
  0
VERTEX
  8
0
 10
187.517316
 20
87.339026
 42
0.021711
  0
VERTEX
  8
0
 10
186.183924
 20
90.916621
 42
0.036180
  0
VERTEX
  8
0
 10
184.721314
 20
93.778212
 42
0.035877
  0
VERTEX
  8
0
 10
182.852247
 20
96.415451
 42
0.020928
  0
VERTEX
  8
0
 10
180.265912
 20
99.304729
 42
-0.001520
  0
VERTEX
  8
0
 10
178.120332
 20
101.522126
 42
-0.001270
  0
VERTEX
  8
0
 10
175.855535
 20
103.889015
 42
-0.001281
  0
VERTEX
  8
0
 10
173.795239
 20
106.064295
 42
-0.003506
  0
VERTEX
  8
0
 10
172.354121
 20
107.615321
 42
0.026955
  0
VERTEX
  8
0
 10
170.779688
 20
109.158054
 42
0.007967
  0
VERTEX
  8
0
 10
168.208711
 20
111.347396
 42
0.007971
  0
VERTEX
  8
0
 10
165.234991
 20
113.720444
 42
0.008506
  0
VERTEX
  8
0
 10
162.250000
 20
115.945553
 42
-0.009323
  0
VERTEX
  8
0
 10
158.444098
 20
118.792288
 42
-0.042073
  0
VERTEX
  8
0
 10
156.405330
 20
120.672446
 42
-0.076385
  0
VERTEX
  8
0
 10
155.359859
 20
122.236324
 42
-0.109638
  0
VERTEX
  8
0
 10
155.000000
 20
123.857726
 42
0.048349
  0
VERTEX
  8
0
 10
154.883721
 20
125.057399
 42
0.029532
  0
VERTEX
  8
0
 10
154.528309
 20
126.436100
 42
0.029432
  0
VERTEX
  8
0
 10
154.009429
 20
127.773144
 42
0.045526
  0
VERTEX
  8
0
 10
153.394245
 20
128.847524
 42
0.049458
  0
VERTEX
  8
0
 10
152.367672
 20
130.042237
 42
0.120671
  0
VERTEX
  8
0
 10
151.368466
 20
130.616912
 42
0.091526
  0
VERTEX
  8
0
 10
150.042702
 20
130.748872
 42
0.021012
  0
VERTEX
  8
0
 10
147.801266
 20
130.466424
 42
-0.028591
  0
VERTEX
  8
0
 10
145.890492
 20
130.254997
 42
-0.013311
  0
VERTEX
  8
0
 10
143.396977
 20
130.189115
 42
-0.013138
  0
VERTEX
  8
0
 10
140.768791
 20
130.258724
 42
-0.017888
  0
VERTEX
  8
0
 10
138.407022
 20
130.468350
 42
-0.013051
  0
VERTEX
  8
0
 10
135.587561
 20
130.895619
 42
-0.065463
  0
VERTEX
  8
0
 10
134.069042
 20
131.377423
 42
-0.136607
  0
VERTEX
  8
0
 10
133.289738
 20
132.046596
 42
-0.148515
  0
VERTEX
  8
0
 10
133.000000
 20
133.000528
 42
0.066081
  0
VERTEX
  8
0
 10
132.891118
 20
133.820783
 42
0.039099
  0
VERTEX
  8
0
 10
132.559375
 20
134.752387
 42
0.038446
  0
VERTEX
  8
0
 10
132.074223
 20
135.646587
 42
0.052908
  0
VERTEX
  8
0
 10
131.500000
 20
136.357143
 42
-0.196321
  0
VERTEX
  8
0
 10
130.198516
 20
139.455394
 42
-0.134754
  0
VERTEX
  8
0
 10
131.182787
 20
143.186627
 42
-0.107968
  0
VERTEX
  8
0
 10
134.234920
 20
146.523139
 42
-0.098493
  0
VERTEX
  8
0
 10
138.500000
 20
148.419763
 42
0.022163
  0
VERTEX
  8
0
 10
144.098327
 20
149.947416
 42
0.060987
  0
VERTEX
  8
0
 10
147.807426
 20
151.659863
 42
0.078513
  0
VERTEX
  8
0
 10
150.440971
 20
153.928318
 42
0.058569
  0
VERTEX
  8
0
 10
152.564476
 20
157.127238
 42
0.063316
  0
VERTEX
  8
0
 10
154.290398
 20
161.966908
 42
0.042877
  0
VERTEX
  8
0
 10
155.052671
 20
167.779632
 42
0.043598
  0
VERTEX
  8
0
 10
154.821260
 20
173.227957
 42
0.120940
  0
VERTEX
  8
0
 10
153.443296
 20
176.777494
 42
-0.009966
  0
VERTEX
  8
0
 10
152.561170
 20
178.091895
 42
-0.140165
  0
VERTEX
  8
0
 10
152.398869
 20
178.630587
 42
-0.357192
  0
VERTEX
  8
0
 10
152.626028
 20
178.916127
 42
-0.053211
  0
VERTEX
  8
0
 10
153.411911
 20
179.000000
 42
0.327937
  0
VERTEX
  8
0
 10
154.262147
 20
179.624846
 42
0.229328
  0
VERTEX
  8
0
 10
154.080302
 20
180.847826
 42
0.064894
  0
VERTEX
  8
0
 10
152.235254
 20
182.917530
 42
0.019975
  0
VERTEX
  8
0
 10
148.959195
 20
185.529954
 42
-0.020078
  0
VERTEX
  8
0
 10
146.739225
 20
187.300968
 42
-0.042261
  0
VERTEX
  8
0
 10
145.200875
 20
188.878583
 42
-0.055546
  0
VERTEX
  8
0
 10
144.242493
 20
190.349887
 42
-0.088090
  0
VERTEX
  8
0
 10
143.812641
 20
191.786975
 42
0.076806
  0
VERTEX
  8
0
 10
143.441249
 20
193.138219
 42
0.062185
  0
VERTEX
  8
0
 10
142.659834
 20
194.424978
 42
0.051808
  0
VERTEX
  8
0
 10
141.439851
 20
195.674379
 42
0.030196
  0
VERTEX
  8
0
 10
139.750000
 20
196.915332
 42
-0.021838
  0
VERTEX
  8
0
 10
138.314073
 20
197.933339
 42
-0.028543
  0
VERTEX
  8
0
 10
137.101562
 20
198.991338
 42
-0.028652
  0
VERTEX
  8
0
 10
136.223251
 20
199.955212
 42
-0.172093
  0
VERTEX
  8
0
 10
136.000000
 20
200.584637
 42
0.094514
  0
VERTEX
  8
0
 10
135.597403
 20
202.695440
 42
0.012898
  0
VERTEX
  8
0
 10
133.829462
 20
206.845380
 42
0.011017
  0
VERTEX
  8
0
 10
131.850263
 20
210.936787
 42
0.133747
  0
VERTEX
  8
0
 10
130.686976
 20
212.214621
 42
0.102762
  0
VERTEX
  8
0
 10
129.030051
 20
212.841259
 42
0.069598
  0
VERTEX
  8
0
 10
127.005209
 20
212.877288
 42
0.052879
  0
VERTEX
  8
0
 10
124.546443
 20
212.309777
 42
0.025978
  0
VERTEX
  8
0
 10
121.565724
 20
211.103865
 42
-0.039946
  0
VERTEX
  8
0
 10
115.270301
 20
208.759118
 42
-0.042156
  0
VERTEX
  8
0
 10
108.794398
 20
207.497388
 42
-0.037181
  0
VERTEX
  8
0
 10
101.528237
 20
207.251453
 42
-0.021451
  0
VERTEX
  8
0
 10
92.803339
 20
207.980700
 42
-0.012747
  0
VERTEX
  8
0
 10
87.747913
 20
208.753940
 42
-0.024239
  0
VERTEX
  8
0
 10
83.738254
 20
209.674765
 42
-0.026992
  0
VERTEX
  8
0
 10
80.134363
 20
210.901852
 42
-0.021003
  0
VERTEX
  8
0
 10
76.360673
 20
212.605888
 42
0.025440
  0
VERTEX
  8
0
 10
71.615294
 20
214.698231
 42
0.051881
  0
VERTEX
  8
0
 10
67.685243
 20
215.746830
 42
0.068395
  0
VERTEX
  8
0
 10
64.430945
 20
215.813536
 42
0.103196
  0
SEQEND
  0
ENDSEC
  0
EOF
