  0
SECTION
  2
HEADER
  9
$ACADVER
  1
AC1006
  9
$EXTMIN
 10
0.000000
 20
0.000000
 30
0.000000
  9
$EXTMAX
 10
188.000000
 20
215.000000
 30
0.000000
  0
ENDSEC
  0
SECTION
  2
ENTITIES
  0
POLYLINE
  8
0
 66
1
 70
1
  0
VERTEX
  8
0
 10
62.105755
 20
212.098790
 42
0.000000
  0
VERTEX
  8
0
 10
59.000000
 20
209.197580
 42
0.000000
  0
VERTEX
  8
0
 10
59.000000
 20
197.498097
 42
0.000000
  0
VERTEX
  8
0
 10
59.000000
 20
185.798613
 42
0.000000
  0
VERTEX
  8
0
 10
54.750000
 20
186.352990
 42
-0.003108
  0
VERTEX
  8
0
 10
52.849583
 20
186.612907
 42
-0.001988
  0
VERTEX
  8
0
 10
50.644743
 20
186.937386
 42
-0.001997
  0
VERTEX
  8
0
 10
48.486803
 20
187.272556
 42
-0.003729
  0
VERTEX
  8
0
 10
46.742741
 20
187.563937
 42
0.083674
  0
VERTEX
  8
0
 10
43.208392
 20
187.585285
 42
0.117984
  0
VERTEX
  8
0
 10
40.313041
 20
186.375455
 42
0.093366
  0
VERTEX
  8
0
 10
37.821066
 20
183.721445
 42
0.037853
  0
VERTEX
  8
0
 10
35.467890
 20
179.331478
 42
0.076185
  0
VERTEX
  8
0
 10
33.180312
 20
170.879152
 42
0.062110
  0
VERTEX
  8
0
 10
33.291259
 20
161.495185
 42
0.069963
  0
VERTEX
  8
0
 10
35.480469
 20
153.753328
 42
0.231406
  0
VERTEX
  8
0
 10
39.419316
 20
150.430894
 42
0.075612
  0
VERTEX
  8
0
 10
40.841376
 20
150.295436
 42
0.054537
  0
VERTEX
  8
0
 10
42.415710
 20
150.557480
 42
0.042804
  0
VERTEX
  8
0
 10
44.234498
 20
151.240950
 42
0.021273
  0
VERTEX
  8
0
 10
46.412077
 20
152.395606
 42
-0.005469
  0
VERTEX
  8
0
 10
50.074270
 20
154.488324
 42
-0.121162
  0
VERTEX
  8
0
 10
51.249171
 20
154.809781
 42
-0.369667
  0
VERTEX
  8
0
 10
51.838052
 20
154.331375
 42
-0.045122
  0
VERTEX
  8
0
 10
52.000000
 20
152.540469
 42
0.083394
  0
VERTEX
  8
0
 10
52.191418
 20
151.400774
 42
0.041850
  0
VERTEX
  8
0
 10
52.783702
 20
150.061756
 42
0.039326
  0
VERTEX
  8
0
 10
53.661319
 20
148.718470
 42
0.041474
  0
VERTEX
  8
0
 10
54.724410
 20
147.554723
 42
-0.049813
  0
VERTEX
  8
0
 10
56.271108
 20
145.803929
 42
-0.096365
  0
VERTEX
  8
0
 10
57.050283
 20
144.113466
 42
-0.052448
  0
VERTEX
  8
0
 10
57.386120
 20
141.640263
 42
-0.006808
  0
VERTEX
  8
0
 10
57.474410
 20
136.305780
 42
-0.005429
  0
VERTEX
  8
0
 10
57.431314
 20
130.867555
 42
-0.056008
  0
VERTEX
  8
0
 10
57.139369
 20
128.646266
 42
-0.133474
  0
VERTEX
  8
0
 10
56.418217
 20
127.350819
 42
-0.081499
  0
VERTEX
  8
0
 10
55.000000
 20
126.306268
 42
-0.076361
  0
VERTEX
  8
0
 10
53.373584
 20
125.767733
 42
-0.016484
  0
VERTEX
  8
0
 10
50.427432
 20
125.369477
 42
-0.015390
  0
VERTEX
  8
0
 10
46.693144
 20
125.105314
 42
-0.009600
  0
VERTEX
  8
0
 10
42.306704
 20
125.014742
 42
-0.004870
  0
VERTEX
  8
0
 10
36.167217
 20
125.065667
 42
-0.041948
  0
VERTEX
  8
0
 10
33.442334
 20
125.344249
 42
-0.098649
  0
VERTEX
  8
0
 10
31.823926
 20
125.995152
 42
-0.095472
  0
VERTEX
  8
0
 10
30.556704
 20
127.222506
 42
-0.037550
  0
VERTEX
  8
0
 10
29.960686
 20
128.226012
 42
-0.028471
  0
VERTEX
  8
0
 10
29.457282
 20
129.403654
 42
-0.029120
  0
VERTEX
  8
0
 10
29.110830
 20
130.569701
 42
-0.057711
  0
VERTEX
  8
0
 10
29.000000
 20
131.526726
 42
0.084121
  0
VERTEX
  8
0
 10
28.813628
 20
132.626644
 42
0.019578
  0
VERTEX
  8
0
 10
28.125220
 20
134.376321
 42
0.019656
  0
VERTEX
  8
0
 10
27.161951
 20
136.353728
 42
0.018143
  0
VERTEX
  8
0
 10
26.022024
 20
138.304219
 42
0.015691
  0
VERTEX
  8
0
 10
24.107114
 20
141.124038
 42
0.095634
  0
VERTEX
  8
0
 10
22.826285
 20
142.322467
 42
0.114250
  0
VERTEX
  8
0
 10
21.293881
 20
142.854167
 42
0.026622
  0
VERTEX
  8
0
 10
18.556820
 20
143.000000
 42
0.030689
  0
VERTEX
  8
0
 10
16.138717
 20
142.851442
 42
0.060714
  0
VERTEX
  8
0
 10
14.275906
 20
142.387684
 42
0.059853
  0
VERTEX
  8
0
 10
12.562112
 20
141.484899
 42
0.029041
  0
VERTEX
  8
0
 10
10.606791
 20
139.959620
 42
0.080674
  0
VERTEX
  8
0
 10
7.275433
 20
135.917203
 42
0.040370
  0
VERTEX
  8
0
 10
4.400960
 20
129.929475
 42
0.040299
  0
VERTEX
  8
0
 10
2.511163
 20
123.510512
 42
0.075533
  0
VERTEX
  8
0
 10
2.214456
 20
118.119915
 42
0.054597
  0
VERTEX
  8
0
 10
3.261162
 20
113.082705
 42
0.037256
  0
VERTEX
  8
0
 10
5.477951
 20
107.665806
 42
0.036493
  0
VERTEX
  8
0
 10
8.550037
 20
102.492514
 42
0.044466
  0
VERTEX
  8
0
 10
12.167473
 20
98.177652
 42
0.034678
  0
VERTEX
  8
0
 10
16.849239
 20
94.113526
 42
0.017917
  0
VERTEX
  8
0
 10
23.208020
 20
89.671734
 42
0.017210
  0
VERTEX
  8
0
 10
29.590051
 20
85.850558
 42
0.058320
  0
VERTEX
  8
0
 10
34.075051
 20
84.014482
 42
-0.136787
  0
VERTEX
  8
0
 10
37.621375
 20
81.869645
 42
-0.099053
  0
VERTEX
  8
0
 10
40.076725
 20
77.931475
 42
-0.062240
  0
VERTEX
  8
0
 10
41.573133
 20
71.701250
 42
-0.021051
  0
VERTEX
  8
0
 10
42.220355
 20
62.377273
 42
0.000000
  0
VERTEX
  8
0
 10
42.523050
 20
51.254546
 42
0.000000
  0
VERTEX
  8
0
 10
39.847483
 20
54.877273
 42
0.038859
  0
VERTEX
  8
0
 10
36.382820
 20
58.877217
 42
0.021210
  0
VERTEX
  8
0
 10
31.571946
 20
63.242639
 42
0.020381
  0
VERTEX
  8
0
 10
26.663062
 20
67.003310
 42
0.070187
  0
VERTEX
  8
0
 10
23.100777
 20
68.825497
 42
0.049417
  0
VERTEX
  8
0
 10
19.618370
 20
69.655312
 42
0.035918
  0
VERTEX
  8
0
 10
15.640605
 20
69.907707
 42
0.036624
  0
VERTEX
  8
0
 10
11.812815
 20
69.594459
 42
0.066641
  0
VERTEX
  8
0
 10
8.809412
 20
68.704896
 42
0.054772
  0
VERTEX
  8
0
 10
7.564245
 20
67.974540
 42
0.021232
  0
VERTEX
  8
0
 10
6.010482
 20
66.711984
 42
0.020717
  0
VERTEX
  8
0
 10
4.428195
 20
65.189162
 42
0.024096
  0
VERTEX
  8
0
 10
3.059412
 20
63.612495
 42
0.076157
  0
VERTEX
  8
0
 10
0.805214
 20
59.626941
 42
0.083386
  0
VERTEX
  8
0
 10
-0.060819
 20
55.272633
 42
0.075710
  0
VERTEX
  8
0
 10
0.516171
 20
50.534919
 42
0.050090
  0
VERTEX
  8
0
 10
2.514504
 20
45.419478
 42
-0.017965
  0
VERTEX
  8
0
 10
3.654697
 20
42.975951
 42
-0.007428
  0
VERTEX
  8
0
 10
5.027862
 20
39.595097
 42
-0.007338
  0
VERTEX
  8
0
 10
6.394380
 20
35.923190
 42
-0.009377
  0
VERTEX
  8
0
 10
7.539609
 20
32.500000
 42
0.007488
  0
VERTEX
  8
0
 10
11.119727
 20
21.662768
 42
0.048636
  0
VERTEX
  8
0
 10
13.518960
 20
16.448377
 42
0.075471
  0
VERTEX
  8
0
 10
16.440490
 20
12.828817
 42
0.032212
  0
VERTEX
  8
0
 10
21.304489
 20
8.922347
 42
0.010371
  0
VERTEX
  8
0
 10
25.516984
 20
6.092632
 42
0.049846
  0
VERTEX
  8
0
 10
28.089157
 20
4.782300
 42
0.066229
  0
VERTEX
  8
0
 10
30.517943
 20
4.189776
 42
0.027292
  0
VERTEX
  8
0
 10
33.906829
 20
4.011869
 42
0.057485
  0
VERTEX
  8
0
 10
43.301760
 20
5.115792
 42
0.043792
  0
VERTEX
  8
0
 10
53.145755
 20
8.370747
 42
0.045329
  0
VERTEX
  8
0
 10
61.549509
 20
12.934060
 42
0.112769
  0
VERTEX
  8
0
 10
66.331428
 20
17.983917
 42
-0.061334
  0
VERTEX
  8
0
 10
67.864779
 20
19.975697
 42
-0.148741
  0
VERTEX
  8
0
 10
69.479487
 20
20.851300
 42
-0.160738
  0
VERTEX
  8
0
 10
71.221945
 20
20.646181
 42
-0.075049
  0
VERTEX
  8
0
 10
73.138273
 20
19.374864
 42
0.103733
  0
VERTEX
  8
0
 10
76.734246
 20
17.273538
 42
0.028868
  0
VERTEX
  8
0
 10
83.067581
 20
15.558927
 42
0.027490
  0
VERTEX
  8
0
 10
90.712082
 20
14.390243
 42
0.024189
  0
VERTEX
  8
0
 10
98.773812
 20
14.000000
 42
0.005248
  0
VERTEX
  8
0
 10
105.044543
 20
14.065820
 42
0.042245
  0
VERTEX
  8
0
 10
107.909049
 20
14.368955
 42
0.086939
  0
VERTEX
  8
0
 10
109.777366
 20
15.079271
 42
0.062241
  0
VERTEX
  8
0
 10
111.545455
 20
16.454545
 42
0.019590
  0
VERTEX
  8
0
 10
112.485184
 20
17.470946
 42
0.023867
  0
VERTEX
  8
0
 10
113.278977
 20
18.495170
 42
0.023416
  0
VERTEX
  8
0
 10
113.853657
 20
19.402150
 42
0.130216
  0
VERTEX
  8
0
 10
114.000000
 20
19.954545
 42
-0.552273
  0
VERTEX
  8
0
 10
115.312570
 20
20.780431
 42
-0.078389
  0
VERTEX
  8
0
 10
118.540729
 20
18.552874
 42
-0.036295
  0
VERTEX
  8
0
 10
123.286136
 20
13.332459
 42
-0.018769
  0
VERTEX
  8
0
 10
128.468299
 20
6.190231
 42
0.018453
  0
VERTEX
  8
0
 10
129.720947
 20
4.461493
 42
0.018476
  0
VERTEX
  8
0
 10
131.097157
 20
2.830571
 42
0.018660
  0
VERTEX
  8
0
 10
132.400834
 20
1.499924
 42
0.066830
  0
VERTEX
  8
0
 10
133.364160
 20
0.805107
 42
0.125350
  0
VERTEX
  8
0
 10
136.524459
 20
0.025034
 42
0.010954
  0
VERTEX
  8
0
 10
144.849197
 20
0.269093
 42
0.013162
  0
VERTEX
  8
0
 10
153.096827
 20
0.909892
 42
0.081760
  0
VERTEX
  8
0
 10
157.175968
 20
2.025744
 42
0.104635
  0
VERTEX
  8
0
 10
158.778038
 20
3.215286
 42
0.013468
  0
VERTEX
  8
0
 10
161.536571
 20
6.512583
 42
0.013514
  0
VERTEX
  8
0
 10
164.921121
 20
11.032808
 42
0.006904
  0
VERTEX
  8
0
 10
168.935273
 20
16.876784
 42
-0.001659
  0
VERTEX
  8
0
 10
172.577429
 20
22.300217
 42
-0.002050
  0
VERTEX
  8
0
 10
176.008584
 20
27.328446
 42
-0.001684
  0
VERTEX
  8
0
 10
178.922152
 20
31.530410
 42
-0.015169
  0
VERTEX
  8
0
 10
180.259305
 20
33.326436
 42
0.058422
  0
VERTEX
  8
0
 10
181.468063
 20
35.282132
 42
0.066805
  0
VERTEX
  8
0
 10
182.124690
 20
37.378973
 42
0.036523
  0
VERTEX
  8
0
 10
182.423465
 20
40.447786
 42
0.006213
  0
VERTEX
  8
0
 10
182.491737
 20
46.326436
 42
0.017220
  0
VERTEX
  8
0
 10
182.218939
 20
54.062635
 42
0.049475
  0
VERTEX
  8
0
 10
181.318586
 20
59.353633
 42
0.077370
  0
VERTEX
  8
0
 10
179.752346
 20
62.843490
 42
0.142703
  0
VERTEX
  8
0
 10
177.414685
 20
64.856918
 42
-0.083348
  0
VERTEX
  8
0
 10
175.843590
 20
65.917609
 42
-0.333844
  0
VERTEX
  8
0
 10
175.663339
 20
66.991971
 42
-0.138731
  0
VERTEX
  8
0
 10
176.834036
 20
68.238854
 42
-0.017366
  0
VERTEX
  8
0
 10
180.109340
 20
70.055781
 42
0.028604
  0
VERTEX
  8
0
 10
184.060461
 20
72.365166
 42
0.082011
  0
VERTEX
  8
0
 10
186.379608
 20
74.524739
 42
0.103049
  0
VERTEX
  8
0
 10
187.584584
 20
77.006648
 42
0.063028
  0
VERTEX
  8
0
 10
187.978038
 20
80.250000
 42
0.058195
  0
VERTEX
  8
0
 10
187.464249
 20
84.460447
 42
0.050951
  0
VERTEX
  8
0
 10
185.987005
 20
88.643215
 42
0.052266
  0
VERTEX
  8
0
 10
183.748559
 20
92.329278
 42
0.070749
  0
VERTEX
  8
0
 10
180.979756
 20
95.064771
 42
-0.031361
  0
VERTEX
  8
0
 10
175.526350
 20
99.665440
 42
-0.032445
  0
VERTEX
  8
0
 10
170.757050
 20
104.863150
 42
-0.028002
  0
VERTEX
  8
0
 10
166.157495
 20
111.284367
 42
-0.015065
  0
VERTEX
  8
0
 10
161.186560
 20
119.663014
 42
0.039823
  0
VERTEX
  8
0
 10
160.507688
 20
120.688102
 42
0.023078
  0
VERTEX
  8
0
 10
159.543204
 20
121.808632
 42
0.022961
  0
VERTEX
  8
0
 10
158.465465
 20
122.849588
 42
0.035536
  0
VERTEX
  8
0
 10
157.436560
 20
123.633524
 42
-0.045925
  0
VERTEX
  8
0
 10
156.504411
 20
124.374797
 42
-0.044938
  0
VERTEX
  8
0
 10
155.715740
 20
125.278797
 42
-0.048568
  0
VERTEX
  8
0
 10
155.173974
 20
126.202398
 42
-0.108784
  0
VERTEX
  8
0
 10
155.000000
 20
126.992565
 42
0.158794
  0
VERTEX
  8
0
 10
154.387563
 20
128.872336
 42
0.144329
  0
VERTEX
  8
0
 10
152.763741
 20
130.117568
 42
0.068748
  0
VERTEX
  8
0
 10
149.650115
 20
130.847393
 42
0.014447
  0
VERTEX
  8
0
 10
144.055563
 20
131.206324
 42
-0.010408
  0
VERTEX
  8
0
 10
138.382359
 20
131.524316
 42
-0.101416
  0
VERTEX
  8
0
 10
136.083345
 20
132.182791
 42
-0.145859
  0
VERTEX
  8
0
 10
134.597700
 20
133.625577
 42
-0.028842
  0
VERTEX
  8
0
 10
132.956462
 20
137.000000
 42
0.009986
  0
VERTEX
  8
0
 10
132.458456
 20
138.130347
 42
0.005795
  0
VERTEX
  8
0
 10
131.817666
 20
139.468647
 42
0.005790
  0
VERTEX
  8
0
 10
131.143912
 20
140.795940
 42
0.009707
  0
VERTEX
  8
0
 10
130.543422
 20
141.893265
 42
-0.067827
  0
VERTEX
  8
0
 10
129.810650
 20
143.703239
 42
-0.092644
  0
VERTEX
  8
0
 10
129.697552
 20
145.454910
 42
-0.196812
  0
VERTEX
  8
0
 10
130.219318
 20
146.390028
 42
-0.316686
  0
VERTEX
  8
0
 10
131.093258
 20
146.442363
 42
0.239479
  0
VERTEX
  8
0
 10
132.807873
 20
146.298912
 42
0.021191
  0
VERTEX
  8
0
 10
136.879455
 20
148.161348
 42
0.025873
  0
VERTEX
  8
0
 10
141.479756
 20
150.814390
 42
0.024174
  0
VERTEX
  8
0
 10
145.890936
 20
153.984875
 42
0.000000
  0
VERTEX
  8
0
 10
151.281872
 20
158.269314
 42
0.000000
  0
VERTEX
  8
0
 10
150.737160
 20
170.092071
 42
-0.004896
  0
VERTEX
  8
0
 10
150.514032
 20
176.244669
 42
-0.023131
  0
VERTEX
  8
0
 10
150.583897
 20
179.773701
 42
-0.039986
  0
VERTEX
  8
0
 10
150.904948
 20
181.957378
 42
-0.164501
  0
VERTEX
  8
0
 10
151.596224
 20
183.079859
 42
0.069361
  0
VERTEX
  8
0
 10
152.133736
 20
183.669040
 42
0.044584
  0
VERTEX
  8
0
 10
152.587641
 20
184.476790
 42
0.044119
  0
VERTEX
  8
0
 10
152.896713
 20
185.365560
 42
0.061701
  0
VERTEX
  8
0
 10
153.000000
 20
186.199368
 42
0.152641
  0
VERTEX
  8
0
 10
152.388022
 20
188.157292
 42
0.034182
  0
VERTEX
  8
0
 10
150.177893
 20
190.922876
 42
0.033504
  0
VERTEX
  8
0
 10
147.629144
 20
193.351414
 42
0.172444
  0
VERTEX
  8
0
 10
145.826923
 20
194.014877
 42
-0.169727
  0
VERTEX
  8
0
 10
143.348645
 20
194.912394
 42
-0.033877
  0
VERTEX
  8
0
 10
139.858018
 20
198.173648
 42
-0.034710
  0
VERTEX
  8
0
 10
136.385338
 20
202.448419
 42
-0.039157
  0
VERTEX
  8
0
 10
133.690476
 20
207.000000
 42
0.028394
  0
VERTEX
  8
0
 10
130.960322
 20
211.845918
 42
0.173109
  0
VERTEX
  8
0
 10
128.721060
 20
213.577142
 42
0.217166
  0
VERTEX
  8
0
 10
126.200825
 20
213.292731
 42
0.046785
  0
VERTEX
  8
0
 10
122.571825
 20
210.626888
 42
-0.046520
  0
VERTEX
  8
0
 10
119.016324
 20
208.012138
 42
-0.080586
  0
VERTEX
  8
0
 10
115.619076
 20
206.654049
 42
-0.039848
  0
VERTEX
  8
0
 10
110.563641
 20
205.942543
 42
-0.004395
  0
VERTEX
  8
0
 10
98.878672
 20
205.341661
 42
-0.005596
  0
VERTEX
  8
0
 10
87.952650
 20
204.998524
 42
-0.043032
  0
VERTEX
  8
0
 10
82.843235
 20
205.335249
 42
-0.105946
  0
VERTEX
  8
0
 10
79.978418
 20
206.423142
 42
-0.143279
  0
VERTEX
  8
0
 10
78.177960
 20
208.508766
 42
0.128514
  0
VERTEX
  8
0
 10
76.618538
 20
210.424774
 42
0.030974
  0
VERTEX
  8
0
 10
73.144232
 20
212.652119
 42
0.032182
  0
VERTEX
  8
0
 10
69.346624
 20
214.457700
 42
0.095155
  0
VERTEX
  8
0
 10
66.522850
 20
215.000000
 42
0.123114
  0
VERTEX
  8
0
 10
65.827605
 20
214.826176
 42
0.022794
  0
VERTEX
  8
0
 10
64.684401
 20
214.147770
 42
0.023220
  0
VERTEX
  8
0
 10
63.390975
 20
213.209493
 42
0.019339
  0
SEQEND
  0
ENDSEC
  0
EOF
