  0
SECTION
  2
HEADER
  9
$ACADVER
  1
AC1006
  9
$EXTMIN
 10
0.000000
 20
0.000000
 30
0.000000
  9
$EXTMAX
 10
245.000000
 20
362.000000
 30
0.000000
  0
ENDSEC
  0
SECTION
  2
ENTITIES
  0
POLYLINE
  8
0
 66
1
 70
1
  0
VERTEX
  8
0
 10
106.454545
 20
359.545455
 42
0.046472
  0
VERTEX
  8
0
 10
105.240152
 20
358.081594
 42
0.069350
  0
VERTEX
  8
0
 10
104.501173
 20
356.594418
 42
0.057832
  0
VERTEX
  8
0
 10
104.117550
 20
354.769089
 42
0.022908
  0
VERTEX
  8
0
 10
104.000000
 20
352.204750
 42
-0.035139
  0
VERTEX
  8
0
 10
103.711285
 20
348.101688
 42
-0.009048
  0
VERTEX
  8
0
 10
102.661903
 20
341.540509
 42
-0.008611
  0
VERTEX
  8
0
 10
101.114559
 20
333.661140
 42
-0.006368
  0
VERTEX
  8
0
 10
99.142545
 20
325.000000
 42
-0.029345
  0
VERTEX
  8
0
 10
97.916146
 20
320.968042
 42
-0.015921
  0
VERTEX
  8
0
 10
95.965795
 20
316.165899
 42
-0.007497
  0
VERTEX
  8
0
 10
93.846348
 20
311.576342
 42
-0.288416
  0
VERTEX
  8
0
 10
92.930310
 20
311.000000
 42
0.215420
  0
VERTEX
  8
0
 10
92.463593
 20
310.789134
 42
0.009552
  0
VERTEX
  8
0
 10
91.287939
 20
309.401771
 42
0.014667
  0
VERTEX
  8
0
 10
89.939074
 20
307.644083
 42
0.009808
  0
VERTEX
  8
0
 10
88.495525
 20
305.559221
 42
-0.020342
  0
VERTEX
  8
0
 10
86.612890
 20
302.958977
 42
-0.008106
  0
VERTEX
  8
0
 10
83.832315
 20
299.545388
 42
-0.008006
  0
VERTEX
  8
0
 10
80.710304
 20
295.955324
 42
-0.009982
  0
VERTEX
  8
0
 10
77.692071
 20
292.726841
 42
0.001454
  0
VERTEX
  8
0
 10
74.691418
 20
289.624944
 42
0.001336
  0
VERTEX
  8
0
 10
71.622837
 20
286.417199
 42
0.001334
  0
VERTEX
  8
0
 10
68.901315
 20
283.541668
 42
0.004409
  0
VERTEX
  8
0
 10
67.130352
 20
281.626904
 42
-0.025033
  0
VERTEX
  8
0
 10
65.560002
 20
280.063574
 42
-0.016770
  0
VERTEX
  8
0
 10
63.620507
 20
278.431393
 42
-0.016909
  0
VERTEX
  8
0
 10
61.629925
 20
276.973261
 42
-0.031675
  0
VERTEX
  8
0
 10
59.913788
 20
275.956018
 42
0.048038
  0
VERTEX
  8
0
 10
56.808935
 20
273.975760
 42
0.109672
  0
VERTEX
  8
0
 10
55.052951
 20
271.841978
 42
0.108623
  0
VERTEX
  8
0
 10
54.355386
 20
269.151743
 42
0.046574
  0
VERTEX
  8
0
 10
54.563399
 20
265.425795
 42
0.052537
  0
VERTEX
  8
0
 10
55.873270
 20
260.376605
 42
0.178895
  0
VERTEX
  8
0
 10
58.059499
 20
257.847688
 42
0.104353
  0
VERTEX
  8
0
 10
62.134714
 20
256.605136
 42
0.012271
  0
VERTEX
  8
0
 10
71.658214
 20
256.000000
 42
0.000000
  0
VERTEX
  8
0
 10
84.500000
 20
255.500000
 42
0.000000
  0
VERTEX
  8
0
 10
82.167033
 20
253.500000
 42
0.046946
  0
VERTEX
  8
0
 10
81.096772
 20
252.392433
 42
0.016489
  0
VERTEX
  8
0
 10
79.772121
 20
250.618750
 42
0.016204
  0
VERTEX
  8
0
 10
78.435364
 20
248.560938
 42
0.018265
  0
VERTEX
  8
0
 10
77.290221
 20
246.500000
 42
-0.014072
  0
VERTEX
  8
0
 10
76.215484
 20
244.526993
 42
-0.016805
  0
VERTEX
  8
0
 10
75.089773
 20
242.733570
 42
-0.015684
  0
VERTEX
  8
0
 10
74.052484
 20
241.297378
 42
-0.096952
  0
VERTEX
  8
0
 10
73.371541
 20
240.699388
 42
0.082271
  0
VERTEX
  8
0
 10
72.650489
 20
240.102458
 42
0.011500
  0
VERTEX
  8
0
 10
71.410576
 20
238.606635
 42
0.012887
  0
VERTEX
  8
0
 10
70.017641
 20
236.748818
 42
0.010621
  0
VERTEX
  8
0
 10
68.626537
 20
234.699388
 42
-0.039207
  0
VERTEX
  8
0
 10
64.544261
 20
229.367948
 42
-0.008245
  0
VERTEX
  8
0
 10
56.550579
 20
220.758654
 42
-0.003227
  0
VERTEX
  8
0
 10
47.874381
 20
211.833944
 42
-0.200905
  0
VERTEX
  8
0
 10
45.882688
 20
211.000000
 42
0.162350
  0
VERTEX
  8
0
 10
45.260365
 20
210.792461
 42
0.010341
  0
VERTEX
  8
0
 10
43.727015
 20
209.591414
 42
0.014304
  0
VERTEX
  8
0
 10
41.937784
 20
208.041811
 42
0.010103
  0
VERTEX
  8
0
 10
40.014915
 20
206.204814
 42
-0.010425
  0
VERTEX
  8
0
 10
37.997196
 20
204.279682
 42
-0.010747
  0
VERTEX
  8
0
 10
35.920964
 20
202.460238
 42
-0.010528
  0
VERTEX
  8
0
 10
34.056833
 20
200.961923
 42
-0.044304
  0
VERTEX
  8
0
 10
32.847225
 20
200.190988
 42
0.010104
  0
VERTEX
  8
0
 10
31.644830
 20
199.535549
 42
0.003134
  0
VERTEX
  8
0
 10
29.863306
 20
198.502329
 42
0.003132
  0
VERTEX
  8
0
 10
27.885936
 20
197.322168
 42
0.003443
  0
VERTEX
  8
0
 10
25.985308
 20
196.153641
 42
-0.014168
  0
VERTEX
  8
0
 10
24.057100
 20
195.024412
 42
-0.012697
  0
VERTEX
  8
0
 10
21.997025
 20
193.962196
 42
-0.012845
  0
VERTEX
  8
0
 10
20.098980
 20
193.103207
 42
-0.038367
  0
VERTEX
  8
0
 10
18.747958
 20
192.651589
 42
0.138340
  0
VERTEX
  8
0
 10
15.298827
 20
190.672901
 42
0.147454
  0
VERTEX
  8
0
 10
13.496344
 20
187.229373
 42
0.150947
  0
VERTEX
  8
0
 10
13.917248
 20
183.425607
 42
0.146259
  0
VERTEX
  8
0
 10
16.411659
 20
180.465926
 42
0.081247
  0
VERTEX
  8
0
 10
18.147306
 20
179.695199
 42
0.049590
  0
VERTEX
  8
0
 10
20.367029
 20
179.344576
 42
0.027192
  0
VERTEX
  8
0
 10
23.716868
 20
179.333878
 42
0.005523
  0
VERTEX
  8
0
 10
29.645782
 20
179.703276
 42
-0.009757
  0
VERTEX
  8
0
 10
34.964044
 20
179.989447
 42
-0.003999
  0
VERTEX
  8
0
 10
42.191345
 20
180.179183
 42
-0.003954
  0
VERTEX
  8
0
 10
49.957098
 20
180.259492
 42
-0.005054
  0
VERTEX
  8
0
 10
57.111987
 20
180.204579
 42
0.000000
  0
VERTEX
  8
0
 10
73.723974
 20
179.909159
 42
0.000000
  0
VERTEX
  8
0
 10
67.611987
 20
173.592749
 42
0.001867
  0
VERTEX
  8
0
 10
59.719249
 20
165.374846
 42
0.006751
  0
VERTEX
  8
0
 10
54.785192
 20
160.057019
 42
0.004441
  0
VERTEX
  8
0
 10
51.384446
 20
156.223123
 42
0.181122
  0
VERTEX
  8
0
 10
51.000000
 20
155.196647
 42
-0.197933
  0
VERTEX
  8
0
 10
50.405405
 20
153.753478
 42
-0.000943
  0
VERTEX
  8
0
 10
38.847802
 20
142.152209
 42
-0.000943
  0
VERTEX
  8
0
 10
27.246543
 20
130.594595
 42
-0.197933
  0
VERTEX
  8
0
 10
25.803376
 20
130.000000
 42
0.168429
  0
VERTEX
  8
0
 10
25.242423
 20
129.805521
 42
0.007554
  0
VERTEX
  8
0
 10
23.630874
 20
128.495488
 42
0.011975
  0
VERTEX
  8
0
 10
21.750229
 20
126.840651
 42
0.008213
  0
VERTEX
  8
0
 10
19.693750
 20
124.878258
 42
-0.016690
  0
VERTEX
  8
0
 10
17.228216
 20
122.604111
 42
-0.009255
  0
VERTEX
  8
0
 10
14.079559
 20
119.988672
 42
-0.009221
  0
VERTEX
  8
0
 10
10.789339
 20
117.455074
 42
-0.014682
  0
VERTEX
  8
0
 10
7.874960
 20
115.425091
 42
0.026004
  0
VERTEX
  8
0
 10
2.507659
 20
111.503196
 42
0.123604
  0
VERTEX
  8
0
 10
0.248897
 20
108.480841
 42
0.206309
  0
VERTEX
  8
0
 10
0.280549
 20
105.620793
 42
0.092115
  0
VERTEX
  8
0
 10
2.454545
 20
102.454545
 42
0.103721
  0
VERTEX
  8
0
 10
4.989571
 20
100.798403
 42
0.070456
  0
VERTEX
  8
0
 10
8.355883
 20
100.005543
 42
0.071021
  0
VERTEX
  8
0
 10
11.779247
 20
100.180873
 42
0.110040
  0
VERTEX
  8
0
 10
14.479911
 20
101.361652
 42
-0.052755
  0
VERTEX
  8
0
 10
15.319994
 20
101.849322
 42
-0.043075
  0
VERTEX
  8
0
 10
16.302295
 20
102.190677
 42
-0.044733
  0
VERTEX
  8
0
 10
17.272198
 20
102.346150
 42
-0.081509
  0
VERTEX
  8
0
 10
18.068808
 20
102.271755
 42
0.077641
  0
VERTEX
  8
0
 10
18.898159
 20
102.187866
 42
0.035622
  0
VERTEX
  8
0
 10
19.979277
 20
102.324128
 42
0.034182
  0
VERTEX
  8
0
 10
21.120299
 20
102.633694
 42
0.039971
  0
VERTEX
  8
0
 10
22.147767
 20
103.084136
 42
-0.064696
  0
VERTEX
  8
0
 10
23.380628
 20
103.553618
 42
-0.023538
  0
VERTEX
  8
0
 10
25.221294
 20
103.902986
 42
-0.022875
  0
VERTEX
  8
0
 10
27.294468
 20
104.100039
 42
-0.025313
  0
VERTEX
  8
0
 10
29.307703
 20
104.096831
 42
0.025188
  0
VERTEX
  8
0
 10
31.515071
 20
104.092760
 42
0.033806
  0
VERTEX
  8
0
 10
33.501545
 20
104.324443
 42
0.038211
  0
VERTEX
  8
0
 10
35.204333
 20
104.777559
 42
0.060970
  0
VERTEX
  8
0
 10
36.553288
 20
105.442959
 42
-0.047720
  0
VERTEX
  8
0
 10
37.754350
 20
106.075395
 42
-0.050703
  0
VERTEX
  8
0
 10
39.029589
 20
106.453145
 42
-0.052086
  0
VERTEX
  8
0
 10
40.322486
 20
106.560165
 42
-0.056163
  0
VERTEX
  8
0
 10
41.576014
 20
106.391566
 42
0.061170
  0
VERTEX
  8
0
 10
42.922770
 20
106.224094
 42
0.066597
  0
VERTEX
  8
0
 10
44.230085
 20
106.396962
 42
0.058710
  0
VERTEX
  8
0
 10
45.575072
 20
106.936900
 42
0.034414
  0
VERTEX
  8
0
 10
47.039592
 20
107.871151
 42
-0.057131
  0
VERTEX
  8
0
 10
48.878056
 20
108.929896
 42
-0.045169
  0
VERTEX
  8
0
 10
51.059152
 20
109.648054
 42
-0.031923
  0
VERTEX
  8
0
 10
53.972019
 20
110.130041
 42
-0.011150
  0
VERTEX
  8
0
 10
58.209163
 20
110.460609
 42
0.011010
  0
VERTEX
  8
0
 10
64.174262
 20
110.924313
 42
0.015852
  0
VERTEX
  8
0
 10
69.423840
 20
111.617575
 42
0.017331
  0
VERTEX
  8
0
 10
74.226283
 20
112.579387
 42
0.018618
  0
VERTEX
  8
0
 10
78.835771
 20
113.852872
 42
-0.032013
  0
VERTEX
  8
0
 10
80.662583
 20
114.305306
 42
-0.008066
  0
VERTEX
  8
0
 10
83.687692
 20
114.801703
 42
-0.008199
  0
VERTEX
  8
0
 10
87.170898
 20
115.257490
 42
-0.008189
  0
VERTEX
  8
0
 10
90.668675
 20
115.599039
 42
0.000000
  0
VERTEX
  8
0
 10
99.165808
 20
116.288492
 42
0.000000
  0
VERTEX
  8
0
 10
98.536447
 20
111.894246
 42
0.031976
  0
VERTEX
  8
0
 10
98.376143
 20
109.851826
 42
0.017142
  0
VERTEX
  8
0
 10
98.426453
 20
107.322060
 42
0.017003
  0
VERTEX
  8
0
 10
98.655165
 20
104.734740
 42
0.025443
  0
VERTEX
  8
0
 10
99.045784
 20
102.500000
 42
-0.013651
  0
VERTEX
  8
0
 10
99.506114
 20
100.189045
 42
-0.007612
  0
VERTEX
  8
0
 10
99.946617
 20
97.353125
 42
-0.007588
  0
VERTEX
  8
0
 10
100.305219
 20
94.468955
 42
-0.012198
  0
VERTEX
  8
0
 10
100.513424
 20
92.000000
 42
0.012559
  0
VERTEX
  8
0
 10
100.985450
 20
86.450429
 42
0.012463
  0
VERTEX
  8
0
 10
101.736387
 20
80.917287
 42
0.009969
  0
VERTEX
  8
0
 10
102.604269
 20
76.141209
 42
0.089596
  0
VERTEX
  8
0
 10
103.387119
 20
74.172092
 42
-0.133836
  0
VERTEX
  8
0
 10
103.719785
 20
73.061485
 42
-0.001093
  0
VERTEX
  8
0
 10
103.929321
 20
63.854329
 42
-0.003823
  0
VERTEX
  8
0
 10
104.066382
 20
53.248001
 42
-0.002439
  0
VERTEX
  8
0
 10
104.071293
 20
40.912511
 42
0.000000
  0
VERTEX
  8
0
 10
103.928253
 20
8.980838
 42
0.000000
  0
VERTEX
  8
0
 10
106.418672
 20
6.490419
 42
0.047975
  0
VERTEX
  8
0
 10
107.995979
 20
5.189880
 42
0.077916
  0
VERTEX
  8
0
 10
109.565423
 20
4.454604
 42
0.056038
  0
VERTEX
  8
0
 10
111.630336
 20
4.098766
 42
0.014674
  0
VERTEX
  8
0
 10
114.995038
 20
4.000000
 42
-0.017262
  0
VERTEX
  8
0
 10
118.107035
 20
3.892527
 42
-0.041041
  0
VERTEX
  8
0
 10
120.394433
 20
3.544294
 42
-0.051908
  0
VERTEX
  8
0
 10
122.244811
 20
2.896319
 42
-0.049058
  0
VERTEX
  8
0
 10
123.960063
 20
1.871405
 42
0.088661
  0
VERTEX
  8
0
 10
126.790389
 20
0.469900
 42
0.144793
  0
VERTEX
  8
0
 10
129.448418
 20
0.482301
 42
0.115898
  0
VERTEX
  8
0
 10
132.087050
 20
2.003679
 42
0.045760
  0
VERTEX
  8
0
 10
134.885096
 20
5.158393
 42
0.000000
  0
VERTEX
  8
0
 10
137.948012
 20
9.323312
 42
0.000000
  0
VERTEX
  8
0
 10
138.062762
 20
23.911656
 42
-0.000487
  0
VERTEX
  8
0
 10
138.405866
 20
62.728160
 42
-0.000801
  0
VERTEX
  8
0
 10
138.780557
 20
95.553761
 42
-0.000037
  0
VERTEX
  8
0
 10
139.168658
 20
125.201506
 42
-0.195494
  0
VERTEX
  8
0
 10
139.387995
 20
125.721328
 42
-0.223390
  0
VERTEX
  8
0
 10
139.708221
 20
125.836711
 42
-0.001209
  0
VERTEX
  8
0
 10
143.062622
 20
125.513202
 42
-0.004896
  0
VERTEX
  8
0
 10
146.911843
 20
125.094477
 42
-0.003050
  0
VERTEX
  8
0
 10
151.416448
 20
124.531899
 42
0.019638
  0
VERTEX
  8
0
 10
162.926366
 20
123.480738
 42
0.010396
  0
VERTEX
  8
0
 10
177.253029
 20
123.036311
 42
0.005762
  0
VERTEX
  8
0
 10
191.158375
 20
123.054441
 42
0.120217
  0
VERTEX
  8
0
 10
195.158562
 20
124.084860
 42
-0.097027
  0
VERTEX
  8
0
 10
196.605236
 20
124.529120
 42
-0.005749
  0
VERTEX
  8
0
 10
201.189484
 20
124.956702
 42
-0.008488
  0
VERTEX
  8
0
 10
206.697534
 20
125.312629
 42
-0.006146
  0
VERTEX
  8
0
 10
212.842821
 20
125.529412
 42
0.009857
  0
VERTEX
  8
0
 10
231.022227
 20
126.305835
 42
0.075588
  0
VERTEX
  8
0
 10
239.345558
 20
128.108500
 42
0.184207
  0
VERTEX
  8
0
 10
243.335973
 20
131.668852
 42
0.122428
  0
VERTEX
  8
0
 10
244.776011
 20
137.701570
 42
0.029687
  0
VERTEX
  8
0
 10
244.504238
 20
141.652473
 42
0.087504
  0
VERTEX
  8
0
 10
243.695758
 20
144.242220
 42
0.108398
  0
VERTEX
  8
0
 10
242.169420
 20
146.079892
 42
0.060910
  0
VERTEX
  8
0
 10
239.669509
 20
147.578623
 42
-0.024769
  0
VERTEX
  8
0
 10
236.791878
 20
149.032838
 42
-0.008982
  0
VERTEX
  8
0
 10
232.855679
 20
151.367822
 42
-0.006449
  0
VERTEX
  8
0
 10
227.518359
 20
154.760860
 42
-0.002247
  0
VERTEX
  8
0
 10
219.918125
 20
159.780162
 42
0.015504
  0
VERTEX
  8
0
 10
217.149208
 20
161.505159
 42
0.013324
  0
VERTEX
  8
0
 10
214.136887
 20
163.148841
 42
0.013524
  0
VERTEX
  8
0
 10
211.321375
 20
164.494359
 42
0.037152
  0
VERTEX
  8
0
 10
209.250000
 20
165.237567
 42
-0.017163
  0
VERTEX
  8
0
 10
207.621489
 20
165.749446
 42
-0.025985
  0
VERTEX
  8
0
 10
206.248437
 20
166.315172
 42
-0.023764
  0
VERTEX
  8
0
 10
205.221094
 20
166.863546
 42
-0.264141
  0
VERTEX
  8
0
 10
205.000000
 20
167.252859
 42
0.190688
  0
VERTEX
  8
0
 10
204.386623
 20
168.802702
 42
0.039526
  0
VERTEX
  8
0
 10
202.176558
 20
170.812923
 42
0.041145
  0
VERTEX
  8
0
 10
199.597831
 20
172.490745
 42
0.124279
  0
VERTEX
  8
0
 10
197.580638
 20
173.000000
 42
-0.062919
  0
VERTEX
  8
0
 10
196.550931
 20
173.130091
 42
-0.054654
  0
VERTEX
  8
0
 10
195.532501
 20
173.514062
 42
-0.057423
  0
VERTEX
  8
0
 10
194.676746
 20
174.080200
 42
-0.095288
  0
VERTEX
  8
0
 10
194.133317
 20
174.750000
 42
0.093016
  0
VERTEX
  8
0
 10
193.377961
 20
175.689626
 42
0.010311
  0
VERTEX
  8
0
 10
191.239573
 20
177.445787
 42
0.012277
  0
VERTEX
  8
0
 10
188.576286
 20
179.438639
 42
0.009652
  0
VERTEX
  8
0
 10
185.598133
 20
181.469701
 42
-0.006264
  0
VERTEX
  8
0
 10
182.685872
 20
183.427045
 42
-0.009761
  0
VERTEX
  8
0
 10
180.231952
 20
185.193062
 42
-0.004431
  0
VERTEX
  8
0
 10
178.209775
 20
186.737328
 42
-0.231441
  0
VERTEX
  8
0
 10
178.000000
 20
187.166246
 42
0.223495
  0
VERTEX
  8
0
 10
177.803119
 20
187.584706
 42
0.007198
  0
VERTEX
  8
0
 10
176.310937
 20
188.783682
 42
0.012608
  0
VERTEX
  8
0
 10
174.453597
 20
190.158675
 42
0.008274
  0
VERTEX
  8
0
 10
172.250000
 20
191.651735
 42
-0.010832
  0
VERTEX
  8
0
 10
165.877726
 20
196.017037
 42
-0.016428
  0
VERTEX
  8
0
 10
160.551792
 20
200.109159
 42
-0.009992
  0
VERTEX
  8
0
 10
156.400520
 20
203.662678
 42
-0.431140
  0
VERTEX
  8
0
 10
156.370605
 20
204.703938
 42
-0.249142
  0
VERTEX
  8
0
 10
156.591111
 20
204.771438
 42
-0.007471
  0
VERTEX
  8
0
 10
157.564212
 20
204.567865
 42
-0.013202
  0
VERTEX
  8
0
 10
158.731254
 20
204.272888
 42
-0.008536
  0
VERTEX
  8
0
 10
160.066232
 20
203.872993
 42
0.011905
  0
VERTEX
  8
0
 10
161.701556
 20
203.395112
 42
0.005770
  0
VERTEX
  8
0
 10
163.813206
 20
202.858263
 42
0.005719
  0
VERTEX
  8
0
 10
166.026425
 20
202.349429
 42
0.008197
  0
VERTEX
  8
0
 10
168.000000
 20
201.953169
 42
-0.004984
  0
VERTEX
  8
0
 10
170.243307
 20
201.517731
 42
-0.001850
  0
VERTEX
  8
0
 10
173.390728
 20
200.862036
 42
-0.001833
  0
VERTEX
  8
0
 10
176.818664
 20
200.121510
 42
-0.002213
  0
VERTEX
  8
0
 10
180.032266
 20
199.400019
 42
0.023548
  0
VERTEX
  8
0
 10
186.194414
 20
198.290232
 42
0.089655
  0
VERTEX
  8
0
 10
190.082435
 20
198.475955
 42
0.124298
  0
VERTEX
  8
0
 10
192.964646
 20
199.954152
 42
0.066341
  0
VERTEX
  8
0
 10
195.613244
 20
202.991758
 42
0.061757
  0
VERTEX
  8
0
 10
197.441674
 20
206.670671
 42
0.163076
  0
VERTEX
  8
0
 10
197.484020
 20
209.574109
 42
0.133611
  0
VERTEX
  8
0
 10
195.726536
 20
212.289823
 42
0.036213
  0
VERTEX
  8
0
 10
191.639732
 20
215.451034
 42
0.005757
  0
VERTEX
  8
0
 10
189.539026
 20
216.810822
 42
0.008371
  0
VERTEX
  8
0
 10
187.652799
 20
217.957491
 42
0.004763
  0
VERTEX
  8
0
 10
186.046548
 20
218.877072
 42
0.128304
  0
VERTEX
  8
0
 10
185.575386
 20
219.000000
 42
-0.187133
  0
VERTEX
  8
0
 10
185.105640
 20
219.182189
 42
-0.002278
  0
VERTEX
  8
0
 10
182.666029
 20
221.430110
 42
-0.006404
  0
VERTEX
  8
0
 10
179.865667
 20
224.101818
 42
-0.004100
  0
VERTEX
  8
0
 10
176.678891
 20
227.272714
 42
0.005632
  0
VERTEX
  8
0
 10
173.347414
 20
230.567349
 42
0.006528
  0
VERTEX
  8
0
 10
170.100850
 20
233.625476
 42
0.005876
  0
VERTEX
  8
0
 10
167.291561
 20
236.143149
 42
0.038079
  0
VERTEX
  8
0
 10
165.770810
 20
237.282132
 42
-0.041867
  0
VERTEX
  8
0
 10
164.613650
 20
238.162541
 42
-0.025172
  0
VERTEX
  8
0
 10
163.391609
 20
239.382190
 42
-0.025105
  0
VERTEX
  8
0
 10
162.290965
 20
240.727109
 42
-0.039619
  0
VERTEX
  8
0
 10
161.503883
 20
241.992491
 42
0.043775
  0
VERTEX
  8
0
 10
160.715779
 20
243.236388
 42
0.029211
  0
VERTEX
  8
0
 10
159.615016
 20
244.515383
 42
0.029426
  0
VERTEX
  8
0
 10
158.391727
 20
245.638907
 42
0.049893
  0
VERTEX
  8
0
 10
157.233073
 20
246.405288
 42
-0.048958
  0
VERTEX
  8
0
 10
154.294622
 20
248.341033
 42
-0.020212
  0
VERTEX
  8
0
 10
150.711751
 20
251.488328
 42
-0.011219
  0
VERTEX
  8
0
 10
147.410428
 20
254.777952
 42
-0.408175
  0
VERTEX
  8
0
 10
147.420510
 20
255.753843
 42
-0.192364
  0
VERTEX
  8
0
 10
147.972968
 20
255.990887
 42
-0.001375
  0
VERTEX
  8
0
 10
153.123151
 20
256.106674
 42
-0.004968
  0
VERTEX
  8
0
 10
159.062321
 20
256.164836
 42
-0.003129
  0
VERTEX
  8
0
 10
165.999211
 20
256.120423
 42
0.000000
  0
VERTEX
  8
0
 10
183.983614
 20
255.892705
 42
0.000000
  0
VERTEX
  8
0
 10
186.491807
 20
258.400898
 42
0.137380
  0
VERTEX
  8
0
 10
188.599043
 20
262.147458
 42
0.180670
  0
VERTEX
  8
0
 10
188.140324
 20
266.010683
 42
0.099024
  0
VERTEX
  8
0
 10
184.675907
 20
270.356031
 42
0.026150
  0
VERTEX
  8
0
 10
177.557169
 20
275.745644
 42
-0.041413
  0
VERTEX
  8
0
 10
172.682517
 20
279.675687
 42
-0.007470
  0
VERTEX
  8
0
 10
164.364233
 20
287.842983
 42
-0.006981
  0
VERTEX
  8
0
 10
156.284153
 20
296.248582
 42
-0.049570
  0
VERTEX
  8
0
 10
152.854273
 20
300.735791
 42
0.014155
  0
VERTEX
  8
0
 10
151.998818
 20
302.036148
 42
0.015208
  0
VERTEX
  8
0
 10
151.090539
 20
303.254529
 42
0.014889
  0
VERTEX
  8
0
 10
150.250523
 20
304.250229
 42
0.066932
  0
VERTEX
  8
0
 10
149.672264
 20
304.743813
 42
-0.081499
  0
VERTEX
  8
0
 10
148.320484
 20
305.967093
 42
-0.016308
  0
VERTEX
  8
0
 10
146.372111
 20
308.583922
 42
-0.017278
  0
VERTEX
  8
0
 10
144.337084
 20
311.739077
 42
-0.017741
  0
VERTEX
  8
0
 10
142.543719
 20
315.000000
 42
0.015969
  0
VERTEX
  8
0
 10
141.733058
 20
316.486498
 42
0.012225
  0
VERTEX
  8
0
 10
140.756447
 20
318.059375
 42
0.012400
  0
VERTEX
  8
0
 10
139.768828
 20
319.487904
 42
0.028391
  0
VERTEX
  8
0
 10
138.939503
 20
320.500000
 42
-0.003925
  0
VERTEX
  8
0
 10
134.664437
 20
325.225597
 42
-0.014664
  0
VERTEX
  8
0
 10
132.089143
 20
328.294228
 42
-0.022487
  0
VERTEX
  8
0
 10
130.331429
 20
330.736041
 42
-0.026594
  0
VERTEX
  8
0
 10
128.903805
 20
333.196373
 42
0.020049
  0
VERTEX
  8
0
 10
128.073772
 20
334.670946
 42
0.021234
  0
VERTEX
  8
0
 10
127.142994
 20
336.045442
 42
0.021428
  0
VERTEX
  8
0
 10
126.244865
 20
337.154818
 42
0.084497
  0
VERTEX
  8
0
 10
125.563227
 20
337.704678
 42
-0.156988
  0
VERTEX
  8
0
 10
124.094799
 20
339.283596
 42
-0.007957
  0
VERTEX
  8
0
 10
121.184306
 20
345.769469
 42
-0.010658
  0
VERTEX
  8
0
 10
118.569387
 20
352.230318
 42
-0.090585
  0
VERTEX
  8
0
 10
118.003429
 20
355.295455
 42
0.149372
  0
VERTEX
  8
0
 10
117.393514
 20
357.277942
 42
0.053096
  0
VERTEX
  8
0
 10
115.459937
 20
359.568422
 42
0.053073
  0
VERTEX
  8
0
 10
113.069260
 20
361.414479
 42
0.138757
  0
VERTEX
  8
0
 10
111.000000
 20
362.000000
 42
0.087500
  0
VERTEX
  8
0
 10
110.024739
 20
361.828012
 42
0.036522
  0
VERTEX
  8
0
 10
108.802273
 20
361.278977
 42
0.034710
  0
VERTEX
  8
0
 10
107.548102
 20
360.484747
 42
0.037888
  0
SEQEND
  0
ENDSEC
  0
EOF
