  0
SECTION
  2
HEADER
  9
$ACADVER
  1
AC1006
  9
$EXTMIN
 10
0.000000
 20
0.000000
 30
0.000000
  9
$EXTMAX
 10
134.000000
 20
443.000000
 30
0.000000
  0
ENDSEC
  0
SECTION
  2
ENTITIES
  0
POLYLINE
  8
0
 66
1
 70
1
  0
VERTEX
  8
0
 10
54.006153
 20
440.516183
 42
0.046119
  0
VERTEX
  8
0
 10
53.617798
 20
439.119198
 42
0.014596
  0
VERTEX
  8
0
 10
53.294543
 20
436.977236
 42
0.014437
  0
VERTEX
  8
0
 10
53.071789
 20
434.555506
 42
0.015562
  0
VERTEX
  8
0
 10
52.996546
 20
432.184900
 42
-0.021553
  0
VERTEX
  8
0
 10
52.473998
 20
420.236845
 42
-0.006557
  0
VERTEX
  8
0
 10
50.666487
 20
402.207718
 42
-0.003461
  0
VERTEX
  8
0
 10
48.455557
 20
383.865403
 42
-0.086585
  0
VERTEX
  8
0
 10
46.962789
 20
379.033201
 42
0.033985
  0
VERTEX
  8
0
 10
46.526681
 20
378.014277
 42
0.002859
  0
VERTEX
  8
0
 10
45.596963
 20
375.306628
 42
0.003791
  0
VERTEX
  8
0
 10
44.529823
 20
372.058772
 42
0.002921
  0
VERTEX
  8
0
 10
43.413222
 20
368.500000
 42
-0.002607
  0
VERTEX
  8
0
 10
42.299822
 20
364.943609
 42
-0.003404
  0
VERTEX
  8
0
 10
41.242385
 20
361.703125
 42
-0.002527
  0
VERTEX
  8
0
 10
40.324606
 20
358.999786
 42
-0.031425
  0
VERTEX
  8
0
 10
39.907581
 20
358.000000
 42
0.010186
  0
VERTEX
  8
0
 10
38.544579
 20
355.086926
 42
0.009234
  0
VERTEX
  8
0
 10
37.254159
 20
352.024511
 42
0.006079
  0
VERTEX
  8
0
 10
36.184544
 20
349.251752
 42
0.089238
  0
VERTEX
  8
0
 10
36.000000
 20
348.225989
 42
-0.100823
  0
VERTEX
  8
0
 10
35.618500
 20
346.353295
 42
-0.011843
  0
VERTEX
  8
0
 10
33.850947
 20
342.454257
 42
-0.012130
  0
VERTEX
  8
0
 10
31.900244
 20
338.647692
 42
-0.095350
  0
VERTEX
  8
0
 10
30.644772
 20
337.120150
 42
0.095721
  0
VERTEX
  8
0
 10
30.004960
 20
336.340519
 42
0.016596
  0
VERTEX
  8
0
 10
29.149037
 20
334.626604
 42
0.017509
  0
VERTEX
  8
0
 10
28.270346
 20
332.518753
 42
0.014885
  0
VERTEX
  8
0
 10
27.488693
 20
330.238043
 42
-0.015090
  0
VERTEX
  8
0
 10
26.570409
 20
327.562244
 42
-0.007444
  0
VERTEX
  8
0
 10
25.251226
 20
324.217289
 42
-0.007379
  0
VERTEX
  8
0
 10
23.777949
 20
320.783494
 42
-0.010688
  0
VERTEX
  8
0
 10
22.367940
 20
317.799538
 42
0.029302
  0
VERTEX
  8
0
 10
19.531354
 20
311.168540
 42
0.299571
  0
VERTEX
  8
0
 10
20.197773
 20
308.403338
 42
0.242742
  0
VERTEX
  8
0
 10
23.224616
 20
307.546356
 42
0.021277
  0
VERTEX
  8
0
 10
31.210909
 20
309.525403
 42
-0.004899
  0
VERTEX
  8
0
 10
38.576074
 20
311.608731
 42
-0.073066
  0
VERTEX
  8
0
 10
41.225300
 20
311.928149
 42
-0.374136
  0
VERTEX
  8
0
 10
42.102205
 20
311.124383
 42
-0.124044
  0
VERTEX
  8
0
 10
41.849593
 20
309.250000
 42
0.018236
  0
VERTEX
  8
0
 10
41.338295
 20
307.824218
 42
0.005996
  0
VERTEX
  8
0
 10
40.688432
 20
305.692187
 42
0.005964
  0
VERTEX
  8
0
 10
40.023426
 20
303.307382
 42
0.006718
  0
VERTEX
  8
0
 10
39.442656
 20
301.000000
 42
-0.017528
  0
VERTEX
  8
0
 10
35.831826
 20
287.860921
 42
-0.010983
  0
VERTEX
  8
0
 10
30.737141
 20
272.751456
 42
-0.005211
  0
VERTEX
  8
0
 10
25.359147
 20
258.358902
 42
-0.163740
  0
VERTEX
  8
0
 10
22.973240
 20
255.483461
 42
0.099376
  0
VERTEX
  8
0
 10
22.600365
 20
255.134923
 42
0.052290
  0
VERTEX
  8
0
 10
22.285889
 20
254.581236
 42
0.049095
  0
VERTEX
  8
0
 10
22.072182
 20
253.923009
 42
0.054008
  0
VERTEX
  8
0
 10
22.000000
 20
253.256707
 42
-0.090691
  0
VERTEX
  8
0
 10
21.730150
 20
251.781197
 42
-0.015954
  0
VERTEX
  8
0
 10
20.644252
 20
249.166855
 42
-0.013784
  0
VERTEX
  8
0
 10
18.949361
 20
245.686204
 42
-0.005815
  0
VERTEX
  8
0
 10
16.490814
 20
241.102836
 42
-0.040749
  0
VERTEX
  8
0
 10
14.842558
 20
238.616613
 42
-0.007612
  0
VERTEX
  8
0
 10
11.391191
 20
234.366949
 42
-0.008389
  0
VERTEX
  8
0
 10
7.329380
 20
229.680400
 42
-0.009321
  0
VERTEX
  8
0
 10
3.250000
 20
225.297318
 42
0.014079
  0
VERTEX
  8
0
 10
0.951786
 20
222.780405
 42
0.109778
  0
VERTEX
  8
0
 10
0.204434
 20
221.389911
 42
0.215194
  0
VERTEX
  8
0
 10
0.374020
 20
220.263479
 42
0.076327
  0
VERTEX
  8
0
 10
1.481082
 20
219.015701
 42
0.123445
  0
VERTEX
  8
0
 10
2.607327
 20
218.475717
 42
0.035551
  0
VERTEX
  8
0
 10
4.537302
 20
218.222700
 42
0.025390
  0
VERTEX
  8
0
 10
7.297393
 20
218.199202
 42
0.009063
  0
VERTEX
  8
0
 10
11.231082
 20
218.437013
 42
-0.003815
  0
VERTEX
  8
0
 10
18.934513
 20
218.983921
 42
-0.014917
  0
VERTEX
  8
0
 10
23.702557
 20
219.143305
 42
-0.020791
  0
VERTEX
  8
0
 10
27.630070
 20
218.994015
 42
-0.013878
  0
VERTEX
  8
0
 10
32.105694
 20
218.511822
 42
0.000000
  0
VERTEX
  8
0
 10
37.711389
 20
217.749982
 42
0.000000
  0
VERTEX
  8
0
 10
33.224664
 20
206.124991
 42
-0.000189
  0
VERTEX
  8
0
 10
31.447938
 20
201.526720
 42
-0.000248
  0
VERTEX
  8
0
 10
29.821120
 20
197.327341
 42
-0.000181
  0
VERTEX
  8
0
 10
28.454314
 20
193.808106
 42
-0.002348
  0
VERTEX
  8
0
 10
27.938641
 20
192.500000
 42
0.012779
  0
VERTEX
  8
0
 10
27.554883
 20
191.463670
 42
0.004143
  0
VERTEX
  8
0
 10
27.039455
 20
189.912500
 42
0.004128
  0
VERTEX
  8
0
 10
26.494828
 20
188.178096
 42
0.004630
  0
VERTEX
  8
0
 10
26.000000
 20
186.500000
 42
-0.004970
  0
VERTEX
  8
0
 10
25.503933
 20
184.821904
 42
-0.004425
  0
VERTEX
  8
0
 10
24.955581
 20
183.087500
 42
-0.004443
  0
VERTEX
  8
0
 10
24.434772
 20
181.536466
 42
-0.013658
  0
VERTEX
  8
0
 10
24.044462
 20
180.500000
 42
0.008422
  0
VERTEX
  8
0
 10
23.556216
 20
179.243518
 42
0.000905
  0
VERTEX
  8
0
 10
22.479811
 20
176.312641
 42
0.001113
  0
VERTEX
  8
0
 10
21.212062
 20
172.817242
 42
0.000896
  0
VERTEX
  8
0
 10
19.864134
 20
169.053672
 42
-0.008869
  0
VERTEX
  8
0
 10
18.411047
 20
165.191636
 42
-0.008974
  0
VERTEX
  8
0
 10
16.827277
 20
161.398704
 42
-0.008811
  0
VERTEX
  8
0
 10
15.332229
 20
158.148438
 42
-0.035756
  0
VERTEX
  8
0
 10
14.250000
 20
156.259263
 42
0.012333
  0
VERTEX
  8
0
 10
13.388436
 20
154.906303
 42
0.015486
  0
VERTEX
  8
0
 10
12.660938
 20
153.609990
 42
0.013671
  0
VERTEX
  8
0
 10
12.120689
 20
152.500375
 42
0.106842
  0
VERTEX
  8
0
 10
12.000000
 20
151.942022
 42
-0.061970
  0
VERTEX
  8
0
 10
11.939146
 20
151.452906
 42
-0.019718
  0
VERTEX
  8
0
 10
11.730945
 20
150.747476
 42
-0.019343
  0
VERTEX
  8
0
 10
11.434661
 20
149.972358
 42
-0.020403
  0
VERTEX
  8
0
 10
11.084067
 20
149.236431
 42
0.005445
  0
VERTEX
  8
0
 10
10.621427
 20
148.335723
 42
0.001724
  0
VERTEX
  8
0
 10
9.950428
 20
146.981952
 42
0.001721
  0
VERTEX
  8
0
 10
9.212664
 20
145.467341
 42
0.001913
  0
VERTEX
  8
0
 10
8.511072
 20
144.000000
 42
-0.006880
  0
VERTEX
  8
0
 10
6.987151
 20
140.892514
 42
-0.012070
  0
VERTEX
  8
0
 10
5.629842
 20
138.371186
 42
-0.014545
  0
VERTEX
  8
0
 10
4.406402
 20
136.362507
 42
-0.028664
  0
VERTEX
  8
0
 10
3.300444
 20
134.856652
 42
0.134899
  0
VERTEX
  8
0
 10
1.675842
 20
131.243974
 42
0.056387
  0
VERTEX
  8
0
 10
1.451036
 20
125.864721
 42
0.058229
  0
VERTEX
  8
0
 10
2.376696
 20
120.978219
 42
0.275952
  0
VERTEX
  8
0
 10
4.415107
 20
119.158574
 42
0.108187
  0
VERTEX
  8
0
 10
7.080558
 20
119.225980
 42
0.017891
  0
VERTEX
  8
0
 10
12.055259
 20
120.638176
 42
0.020532
  0
VERTEX
  8
0
 10
17.057068
 20
122.483479
 42
0.054068
  0
VERTEX
  8
0
 10
20.400921
 20
124.321211
 42
-0.030833
  0
VERTEX
  8
0
 10
24.557003
 20
126.863094
 42
-0.002730
  0
VERTEX
  8
0
 10
35.453936
 20
132.561150
 42
-0.000958
  0
VERTEX
  8
0
 10
47.234869
 20
138.611206
 42
-0.118680
  0
VERTEX
  8
0
 10
48.849793
 20
139.000000
 42
-0.385013
  0
VERTEX
  8
0
 10
49.204682
 20
138.679168
 42
-0.002448
  0
VERTEX
  8
0
 10
49.646763
 20
134.079688
 42
-0.007830
  0
VERTEX
  8
0
 10
50.054507
 20
128.672522
 42
-0.004717
  0
VERTEX
  8
0
 10
50.377005
 20
122.250000
 42
0.002435
  0
VERTEX
  8
0
 10
50.708095
 20
114.995555
 42
0.001847
  0
VERTEX
  8
0
 10
51.139376
 20
107.042187
 42
0.001867
  0
VERTEX
  8
0
 10
51.599556
 20
99.581404
 42
0.004355
  0
VERTEX
  8
0
 10
52.013592
 20
94.000000
 42
-0.013622
  0
VERTEX
  8
0
 10
52.386039
 20
87.297764
 42
-0.002272
  0
VERTEX
  8
0
 10
52.692037
 20
74.404582
 42
-0.002489
  0
VERTEX
  8
0
 10
52.907533
 20
59.238268
 42
-0.002203
  0
VERTEX
  8
0
 10
52.983727
 20
43.441130
 42
0.001466
  0
VERTEX
  8
0
 10
53.048671
 20
24.048884
 42
0.006193
  0
VERTEX
  8
0
 10
53.265667
 20
12.425918
 42
0.004917
  0
VERTEX
  8
0
 10
53.588374
 20
4.537746
 42
0.146507
  0
VERTEX
  8
0
 10
54.250000
 20
2.677217
 42
0.186741
  0
VERTEX
  8
0
 10
56.459324
 20
1.264355
 42
0.043723
  0
VERTEX
  8
0
 10
60.905687
 20
0.762738
 42
0.043491
  0
VERTEX
  8
0
 10
65.350078
 20
1.038538
 42
0.200244
  0
VERTEX
  8
0
 10
67.511250
 20
2.346272
 42
0.152314
  0
VERTEX
  8
0
 10
68.490947
 20
5.215220
 42
0.000919
  0
VERTEX
  8
0
 10
69.190162
 20
33.261242
 42
0.003389
  0
VERTEX
  8
0
 10
69.744754
 20
67.262595
 42
0.001618
  0
VERTEX
  8
0
 10
70.020003
 20
110.985551
 42
-0.000571
  0
VERTEX
  8
0
 10
70.082070
 20
125.758906
 42
-0.000943
  0
VERTEX
  8
0
 10
70.172257
 20
138.235054
 42
-0.000051
  0
VERTEX
  8
0
 10
70.275853
 20
149.474938
 42
-0.196492
  0
VERTEX
  8
0
 10
70.372941
 20
149.706274
 42
-0.267734
  0
VERTEX
  8
0
 10
70.772274
 20
149.813447
 42
-0.001059
  0
VERTEX
  8
0
 10
75.445317
 20
148.554717
 42
-0.005551
  0
VERTEX
  8
0
 10
80.156930
 20
147.218545
 42
-0.006929
  0
VERTEX
  8
0
 10
84.500000
 20
145.868903
 42
0.031814
  0
VERTEX
  8
0
 10
86.115609
 20
145.453704
 42
0.008756
  0
VERTEX
  8
0
 10
88.703712
 20
145.008288
 42
0.008810
  0
VERTEX
  8
0
 10
91.660324
 20
144.605796
 42
0.009098
  0
VERTEX
  8
0
 10
94.597744
 20
144.312598
 42
0.017715
  0
VERTEX
  8
0
 10
98.856303
 20
144.117151
 42
0.044781
  0
VERTEX
  8
0
 10
101.944599
 20
144.361839
 42
0.038099
  0
VERTEX
  8
0
 10
105.216916
 20
145.179050
 42
0.010001
  0
VERTEX
  8
0
 10
110.314197
 20
146.987266
 42
-0.009439
  0
VERTEX
  8
0
 10
115.417079
 20
148.803929
 42
-0.039008
  0
VERTEX
  8
0
 10
118.591828
 20
149.598237
 42
-0.048373
  0
VERTEX
  8
0
 10
121.509161
 20
149.804298
 42
-0.020135
  0
VERTEX
  8
0
 10
125.452317
 20
149.542009
 42
0.007170
  0
VERTEX
  8
0
 10
129.528428
 20
149.164528
 42
0.074628
  0
VERTEX
  8
0
 10
131.201819
 20
149.283496
 42
0.163479
  0
VERTEX
  8
0
 10
132.208252
 20
149.892331
 42
0.068892
  0
VERTEX
  8
0
 10
133.065345
 20
151.244071
 42
0.071164
  0
VERTEX
  8
0
 10
133.495849
 20
152.711108
 42
0.090323
  0
VERTEX
  8
0
 10
133.443987
 20
154.119556
 42
0.057555
  0
VERTEX
  8
0
 10
132.844105
 20
155.859860
 42
0.013927
  0
VERTEX
  8
0
 10
131.450003
 20
158.572152
 42
0.008414
  0
VERTEX
  8
0
 10
127.570133
 20
165.356980
 42
0.009346
  0
VERTEX
  8
0
 10
123.593542
 20
171.771064
 42
0.003351
  0
VERTEX
  8
0
 10
119.841043
 20
177.493930
 42
0.251011
  0
VERTEX
  8
0
 10
118.896495
 20
178.000000
 42
-0.111743
  0
VERTEX
  8
0
 10
118.554500
 20
178.077398
 42
-0.100102
  0
VERTEX
  8
0
 10
118.263345
 20
178.296294
 42
-0.094515
  0
VERTEX
  8
0
 10
118.068026
 20
178.623527
 42
-0.087637
  0
VERTEX
  8
0
 10
118.000000
 20
179.008659
 42
0.120946
  0
VERTEX
  8
0
 10
117.852930
 20
179.607765
 42
0.011506
  0
VERTEX
  8
0
 10
117.118750
 20
180.937554
 42
0.014161
  0
VERTEX
  8
0
 10
116.148963
 20
182.498964
 42
0.010701
  0
VERTEX
  8
0
 10
115.000000
 20
184.158697
 42
-0.008516
  0
VERTEX
  8
0
 10
113.850814
 20
185.803346
 42
-0.011800
  0
VERTEX
  8
0
 10
112.881250
 20
187.318497
 42
-0.008439
  0
VERTEX
  8
0
 10
112.129451
 20
188.605227
 42
-0.128677
  0
VERTEX
  8
0
 10
112.000000
 20
189.099906
 42
0.143379
  0
VERTEX
  8
0
 10
111.614073
 20
190.418071
 42
0.005288
  0
VERTEX
  8
0
 10
108.737200
 20
194.807115
 42
0.009743
  0
VERTEX
  8
0
 10
105.815873
 20
198.984502
 42
0.041421
  0
VERTEX
  8
0
 10
103.824896
 20
201.288955
 42
-0.047187
  0
VERTEX
  8
0
 10
103.126478
 20
202.116399
 42
-0.037869
  0
VERTEX
  8
0
 10
102.536063
 20
203.121690
 42
-0.039172
  0
VERTEX
  8
0
 10
102.131177
 20
204.144203
 42
-0.074821
  0
VERTEX
  8
0
 10
102.000000
 20
205.015902
 42
0.103344
  0
VERTEX
  8
0
 10
101.820140
 20
205.876809
 42
0.049592
  0
VERTEX
  8
0
 10
101.265625
 20
206.865790
 42
0.046215
  0
VERTEX
  8
0
 10
100.456377
 20
207.821738
 42
0.049017
  0
VERTEX
  8
0
 10
99.500000
 20
208.591957
 42
-0.035141
  0
VERTEX
  8
0
 10
98.543308
 20
209.319681
 42
-0.039120
  0
VERTEX
  8
0
 10
97.734375
 20
210.150506
 42
-0.042664
  0
VERTEX
  8
0
 10
97.170911
 20
210.959158
 42
-0.131575
  0
VERTEX
  8
0
 10
97.000000
 20
211.597397
 42
0.108737
  0
VERTEX
  8
0
 10
96.814962
 20
212.438185
 42
0.008830
  0
VERTEX
  8
0
 10
95.825000
 20
214.482829
 42
0.011550
  0
VERTEX
  8
0
 10
94.532044
 20
216.897191
 42
0.008621
  0
VERTEX
  8
0
 10
93.000000
 20
219.500000
 42
-0.006346
  0
VERTEX
  8
0
 10
91.467583
 20
222.076553
 42
-0.008993
  0
VERTEX
  8
0
 10
90.175000
 20
224.409917
 42
-0.005693
  0
VERTEX
  8
0
 10
89.153711
 20
226.388490
 42
-0.116806
  0
VERTEX
  8
0
 10
89.000000
 20
227.037485
 42
0.103677
  0
VERTEX
  8
0
 10
88.876898
 20
227.624786
 42
0.012163
  0
VERTEX
  8
0
 10
88.306862
 20
228.843331
 42
0.014157
  0
VERTEX
  8
0
 10
87.543961
 20
230.272957
 42
0.011148
  0
VERTEX
  8
0
 10
86.640383
 20
231.777620
 42
-0.014363
  0
VERTEX
  8
0
 10
84.682488
 20
235.085951
 42
-0.007859
  0
VERTEX
  8
0
 10
82.464813
 20
239.244341
 42
-0.007856
  0
VERTEX
  8
0
 10
80.399241
 20
243.429173
 42
-0.015799
  0
VERTEX
  8
0
 10
78.927543
 20
246.804211
 42
0.000000
  0
VERTEX
  8
0
 10
78.008280
 20
249.108422
 42
0.000000
  0
VERTEX
  8
0
 10
82.254140
 20
246.499206
 42
0.018695
  0
VERTEX
  8
0
 10
87.413217
 20
243.588652
 42
0.020585
  0
VERTEX
  8
0
 10
92.614760
 20
241.170928
 42
0.021154
  0
VERTEX
  8
0
 10
97.228578
 20
239.478200
 42
0.077488
  0
VERTEX
  8
0
 10
100.295690
 20
239.000000
 42
-0.046212
  0
VERTEX
  8
0
 10
101.594993
 20
238.879657
 42
-0.035156
  0
VERTEX
  8
0
 10
102.979195
 20
238.518834
 42
-0.036036
  0
VERTEX
  8
0
 10
104.239330
 20
237.990030
 42
-0.066649
  0
VERTEX
  8
0
 10
105.152502
 20
237.361988
 42
0.033101
  0
VERTEX
  8
0
 10
106.156577
 20
236.567507
 42
0.123185
  0
VERTEX
  8
0
 10
106.905904
 20
236.287105
 42
0.147499
  0
VERTEX
  8
0
 10
107.620545
 20
236.417107
 42
0.055029
  0
VERTEX
  8
0
 10
108.481242
 20
236.984433
 42
0.107136
  0
VERTEX
  8
0
 10
109.474594
 20
238.252233
 42
0.087021
  0
VERTEX
  8
0
 10
109.948685
 20
239.916269
 42
0.097508
  0
VERTEX
  8
0
 10
109.807068
 20
241.477600
 42
0.185165
  0
VERTEX
  8
0
 10
109.053212
 20
242.467113
 42
-0.101214
  0
VERTEX
  8
0
 10
107.687639
 20
243.752901
 42
-0.007716
  0
VERTEX
  8
0
 10
104.821808
 20
247.957112
 42
-0.011509
  0
VERTEX
  8
0
 10
101.906433
 20
252.608648
 42
-0.016724
  0
VERTEX
  8
0
 10
99.570055
 20
256.851026
 42
0.016955
  0
VERTEX
  8
0
 10
98.475693
 20
258.835993
 42
0.012528
  0
VERTEX
  8
0
 10
97.137380
 20
260.957311
 42
0.012694
  0
VERTEX
  8
0
 10
95.770293
 20
262.899781
 42
0.027582
  0
VERTEX
  8
0
 10
94.604403
 20
264.301522
 42
-0.013532
  0
VERTEX
  8
0
 10
93.606982
 20
265.434423
 42
-0.017887
  0
VERTEX
  8
0
 10
92.765043
 20
266.521371
 42
-0.015404
  0
VERTEX
  8
0
 10
92.134530
 20
267.458032
 42
-0.141349
  0
VERTEX
  8
0
 10
92.000000
 20
267.924404
 42
0.081777
  0
VERTEX
  8
0
 10
91.912495
 20
268.455849
 42
0.005305
  0
VERTEX
  8
0
 10
91.393518
 20
269.937143
 42
0.007615
  0
VERTEX
  8
0
 10
90.726213
 20
271.694894
 42
0.005599
  0
VERTEX
  8
0
 10
89.935381
 20
273.622882
 42
-0.000691
  0
VERTEX
  8
0
 10
89.070652
 20
275.673460
 42
-0.000620
  0
VERTEX
  8
0
 10
88.179726
 20
277.801722
 42
-0.000621
  0
VERTEX
  8
0
 10
87.384914
 20
279.713687
 42
-0.001952
  0
VERTEX
  8
0
 10
86.857934
 20
281.000000
 42
0.010933
  0
VERTEX
  8
0
 10
86.307466
 20
282.277731
 42
0.003457
  0
VERTEX
  8
0
 10
85.431000
 20
284.161091
 42
0.003450
  0
VERTEX
  8
0
 10
84.424314
 20
286.248405
 42
0.003826
  0
VERTEX
  8
0
 10
83.422553
 20
288.250522
 42
-0.011071
  0
VERTEX
  8
0
 10
82.495012
 20
290.173431
 42
-0.013295
  0
VERTEX
  8
0
 10
81.711625
 20
292.022656
 42
-0.012019
  0
VERTEX
  8
0
 10
81.134467
 20
293.603377
 42
-0.081693
  0
VERTEX
  8
0
 10
81.000000
 20
294.420885
 42
0.092664
  0
VERTEX
  8
0
 10
80.834623
 20
295.305573
 42
0.007603
  0
VERTEX
  8
0
 10
79.948776
 20
297.492882
 42
0.009986
  0
VERTEX
  8
0
 10
78.791986
 20
300.083385
 42
0.007524
  0
VERTEX
  8
0
 10
77.421366
 20
302.884929
 42
-0.022190
  0
VERTEX
  8
0
 10
75.188544
 20
307.809591
 42
-0.086768
  0
VERTEX
  8
0
 10
74.500684
 20
311.065558
 42
-0.170013
  0
VERTEX
  8
0
 10
75.159008
 20
313.180935
 42
-0.157521
  0
VERTEX
  8
0
 10
77.013380
 20
314.504247
 42
-0.068817
  0
VERTEX
  8
0
 10
77.896781
 20
314.655810
 42
-0.039814
  0
VERTEX
  8
0
 10
78.975272
 20
314.604987
 42
-0.038980
  0
VERTEX
  8
0
 10
80.070277
 20
314.377775
 42
-0.052268
  0
VERTEX
  8
0
 10
81.008524
 20
313.995438
 42
0.065880
  0
VERTEX
  8
0
 10
84.301010
 20
312.756785
 42
0.025717
  0
VERTEX
  8
0
 10
89.094511
 20
311.900172
 42
0.020512
  0
VERTEX
  8
0
 10
93.770067
 20
311.504638
 42
0.186131
  0
VERTEX
  8
0
 10
95.676160
 20
312.146200
 42
0.207023
  0
VERTEX
  8
0
 10
97.019137
 20
314.791386
 42
0.076930
  0
VERTEX
  8
0
 10
96.627418
 20
319.035170
 42
0.042874
  0
VERTEX
  8
0
 10
94.464215
 20
325.324003
 42
0.011822
  0
VERTEX
  8
0
 10
90.000000
 20
334.790918
 42
-0.001913
  0
VERTEX
  8
0
 10
87.316841
 20
340.200338
 42
-0.003002
  0
VERTEX
  8
0
 10
85.056250
 20
344.872654
 42
-0.000803
  0
VERTEX
  8
0
 10
83.117817
 20
348.958127
 42
-0.110802
  0
VERTEX
  8
0
 10
83.000000
 20
349.483253
 42
0.081271
  0
VERTEX
  8
0
 10
82.928606
 20
349.919584
 42
0.008231
  0
VERTEX
  8
0
 10
82.576085
 20
350.913505
 42
0.010134
  0
VERTEX
  8
0
 10
82.109533
 20
352.089912
 42
0.007908
  0
VERTEX
  8
0
 10
81.556885
 20
353.348871
 42
-0.018230
  0
VERTEX
  8
0
 10
80.813162
 20
355.142828
 42
-0.003741
  0
VERTEX
  8
0
 10
79.640393
 20
358.364981
 42
-0.003933
  0
VERTEX
  8
0
 10
78.334476
 20
362.131856
 42
-0.003689
  0
VERTEX
  8
0
 10
77.059158
 20
366.000000
 42
-0.000767
  0
VERTEX
  8
0
 10
74.187481
 20
374.978273
 42
-0.005883
  0
VERTEX
  8
0
 10
72.896056
 20
379.208991
 42
-0.012046
  0
VERTEX
  8
0
 10
72.125338
 20
382.101419
 42
-0.012399
  0
VERTEX
  8
0
 10
71.502915
 20
385.000000
 42
0.021519
  0
VERTEX
  8
0
 10
71.067737
 20
386.860637
 42
0.005545
  0
VERTEX
  8
0
 10
70.203771
 20
389.821875
 42
0.005634
  0
VERTEX
  8
0
 10
69.141844
 20
393.180467
 42
0.005706
  0
VERTEX
  8
0
 10
68.008845
 20
396.500000
 42
-0.013294
  0
VERTEX
  8
0
 10
65.625786
 20
403.844802
 42
-0.014339
  0
VERTEX
  8
0
 10
63.701238
 20
411.123989
 42
-0.013952
  0
VERTEX
  8
0
 10
62.154688
 20
418.679679
 42
-0.011310
  0
VERTEX
  8
0
 10
60.907166
 20
426.857784
 42
0.016333
  0
VERTEX
  8
0
 10
59.423463
 20
435.969315
 42
0.068547
  0
VERTEX
  8
0
 10
57.624892
 20
441.203767
 42
0.345141
  0
VERTEX
  8
0
 10
55.784491
 20
442.066309
 42
0.250306
  0
SEQEND
  0
ENDSEC
  0
EOF
