  0
SECTION
  2
HEADER
  9
$ACADVER
  1
AC1006
  9
$EXTMIN
 10
0.000000
 20
0.000000
 30
0.000000
  9
$EXTMAX
 10
106.000000
 20
55.000000
 30
0.000000
  0
ENDSEC
  0
SECTION
  2
ENTITIES
  0
POLYLINE
  8
0
 66
1
 70
1
  0
VERTEX
  8
0
 10
49.200000
 20
53.800000
 42
0.060863
  0
VERTEX
  8
0
 10
48.740405
 20
53.212469
 42
0.039085
  0
VERTEX
  8
0
 10
48.352500
 20
52.437572
 42
0.038923
  0
VERTEX
  8
0
 10
48.087823
 20
51.606104
 42
0.057658
  0
VERTEX
  8
0
 10
48.000000
 20
50.847053
 42
-0.070300
  0
VERTEX
  8
0
 10
47.635326
 20
48.266155
 42
-0.088240
  0
VERTEX
  8
0
 10
46.571478
 20
46.101306
 42
-0.103294
  0
VERTEX
  8
0
 10
44.986931
 20
44.677106
 42
-0.137594
  0
VERTEX
  8
0
 10
43.121622
 20
44.195194
 42
0.040232
  0
VERTEX
  8
0
 10
41.779600
 20
44.114876
 42
0.012772
  0
VERTEX
  8
0
 10
39.801351
 20
43.783962
 42
0.012659
  0
VERTEX
  8
0
 10
37.606593
 20
43.300999
 42
0.013763
  0
VERTEX
  8
0
 10
35.500000
 20
42.719249
 42
-0.022486
  0
VERTEX
  8
0
 10
32.908230
 20
42.051936
 42
-0.007338
  0
VERTEX
  8
0
 10
29.031250
 20
41.296820
 42
-0.007295
  0
VERTEX
  8
0
 10
24.695255
 20
40.583302
 42
-0.008166
  0
VERTEX
  8
0
 10
20.500000
 20
40.025550
 42
0.016478
  0
VERTEX
  8
0
 10
12.690275
 20
38.854848
 42
0.044249
  0
VERTEX
  8
0
 10
7.279790
 20
37.356345
 42
0.065416
  0
VERTEX
  8
0
 10
3.635451
 20
35.415885
 42
0.118963
  0
VERTEX
  8
0
 10
1.438146
 20
32.880387
 42
0.091511
  0
VERTEX
  8
0
 10
0.451299
 20
29.629659
 42
0.266795
  0
VERTEX
  8
0
 10
1.350457
 20
27.556468
 42
0.129406
  0
VERTEX
  8
0
 10
4.396605
 20
26.330075
 42
0.019570
  0
VERTEX
  8
0
 10
11.000000
 20
25.759229
 42
-0.011732
  0
VERTEX
  8
0
 10
14.041817
 20
25.544239
 42
-0.072100
  0
VERTEX
  8
0
 10
15.564727
 20
25.174826
 42
-0.150471
  0
VERTEX
  8
0
 10
16.379493
 20
24.515113
 42
-0.112837
  0
VERTEX
  8
0
 10
16.795783
 20
23.431375
 42
-0.084766
  0
VERTEX
  8
0
 10
16.769241
 20
22.452407
 42
-0.099928
  0
VERTEX
  8
0
 10
16.412723
 20
21.598295
 42
-0.087229
  0
VERTEX
  8
0
 10
15.704859
 20
20.866301
 42
-0.050195
  0
VERTEX
  8
0
 10
14.642067
 20
20.246684
 42
0.152807
  0
VERTEX
  8
0
 10
12.556910
 20
18.377656
 42
0.030084
  0
VERTEX
  8
0
 10
10.222643
 20
13.856314
 42
0.031758
  0
VERTEX
  8
0
 10
8.435233
 20
9.004017
 42
0.110088
  0
VERTEX
  8
0
 10
8.202131
 20
5.686673
 42
0.109174
  0
VERTEX
  8
0
 10
8.929526
 20
3.792350
 42
0.131299
  0
VERTEX
  8
0
 10
10.352527
 20
2.530167
 42
0.136024
  0
VERTEX
  8
0
 10
12.174331
 20
2.172074
 42
0.121073
  0
VERTEX
  8
0
 10
14.012281
 20
2.775597
 42
-0.056988
  0
VERTEX
  8
0
 10
15.201956
 20
3.342074
 42
-0.127836
  0
VERTEX
  8
0
 10
16.192128
 20
3.417721
 42
-0.093284
  0
VERTEX
  8
0
 10
17.290041
 20
2.999352
 42
-0.021638
  0
VERTEX
  8
0
 10
18.935308
 20
1.889708
 42
0.082200
  0
VERTEX
  8
0
 10
21.480420
 20
0.588518
 42
0.105074
  0
VERTEX
  8
0
 10
24.094455
 20
0.328362
 42
0.128342
  0
VERTEX
  8
0
 10
26.217181
 20
1.140651
 42
0.162073
  0
VERTEX
  8
0
 10
27.446460
 20
2.831312
 42
-0.160835
  0
VERTEX
  8
0
 10
28.134957
 20
3.783039
 42
-0.069847
  0
VERTEX
  8
0
 10
29.532274
 20
4.521400
 42
-0.039093
  0
VERTEX
  8
0
 10
31.868770
 20
5.164284
 42
-0.009828
  0
VERTEX
  8
0
 10
35.763111
 20
5.835596
 42
-0.009956
  0
VERTEX
  8
0
 10
42.754422
 20
6.757709
 42
-0.039727
  0
VERTEX
  8
0
 10
47.071302
 20
6.895086
 42
-0.062792
  0
VERTEX
  8
0
 10
50.263656
 20
6.337167
 42
-0.062351
  0
VERTEX
  8
0
 10
53.225830
 20
5.003738
 42
0.032491
  0
VERTEX
  8
0
 10
55.921107
 20
3.591761
 42
0.091788
  0
VERTEX
  8
0
 10
57.979848
 20
3.099853
 42
0.130464
  0
VERTEX
  8
0
 10
59.640470
 20
3.450309
 42
0.103018
  0
VERTEX
  8
0
 10
61.082137
 20
4.598969
 42
-0.198298
  0
VERTEX
  8
0
 10
63.062891
 20
5.646733
 42
-0.029836
  0
VERTEX
  8
0
 10
67.648036
 20
5.809052
 42
-0.021166
  0
VERTEX
  8
0
 10
74.667351
 20
5.340925
 42
-0.005687
  0
VERTEX
  8
0
 10
85.761072
 20
3.999960
 42
0.014005
  0
VERTEX
  8
0
 10
92.923335
 20
3.254863
 42
0.125102
  0
VERTEX
  8
0
 10
96.015617
 20
3.796062
 42
0.230982
  0
VERTEX
  8
0
 10
97.530566
 20
5.614429
 42
0.060228
  0
VERTEX
  8
0
 10
98.000000
 20
9.497445
 42
-0.017276
  0
VERTEX
  8
0
 10
98.086334
 20
11.995338
 42
-0.116910
  0
VERTEX
  8
0
 10
98.451509
 20
13.168110
 42
-0.166378
  0
VERTEX
  8
0
 10
99.245645
 20
13.845783
 42
-0.044856
  0
VERTEX
  8
0
 10
100.856431
 20
14.321286
 42
0.060003
  0
VERTEX
  8
0
 10
102.225069
 20
14.770676
 42
0.073725
  0
VERTEX
  8
0
 10
103.345614
 20
15.511730
 42
0.068428
  0
VERTEX
  8
0
 10
104.262671
 20
16.594623
 42
0.043359
  0
VERTEX
  8
0
 10
105.026729
 20
18.064530
 42
0.071764
  0
VERTEX
  8
0
 10
105.805040
 20
21.120082
 42
0.220975
  0
VERTEX
  8
0
 10
105.133210
 20
23.089019
 42
0.156473
  0
VERTEX
  8
0
 10
102.938629
 20
24.278197
 42
0.033358
  0
VERTEX
  8
0
 10
98.574291
 20
24.802058
 42
-0.012930
  0
VERTEX
  8
0
 10
94.917952
 20
25.090146
 42
-0.107586
  0
VERTEX
  8
0
 10
93.348847
 20
25.608103
 42
-0.131016
  0
VERTEX
  8
0
 10
92.276910
 20
26.698056
 42
-0.022590
  0
VERTEX
  8
0
 10
90.949763
 20
29.302058
 42
-0.013180
  0
VERTEX
  8
0
 10
90.218590
 20
31.032352
 42
-0.014117
  0
VERTEX
  8
0
 10
89.597313
 20
32.759935
 42
-0.013777
  0
VERTEX
  8
0
 10
89.147716
 20
34.269661
 42
-0.062281
  0
VERTEX
  8
0
 10
89.021962
 20
35.178571
 42
0.129836
  0
VERTEX
  8
0
 10
88.502261
 20
37.046858
 42
0.102826
  0
VERTEX
  8
0
 10
87.092215
 20
38.608369
 42
0.088700
  0
VERTEX
  8
0
 10
84.970401
 20
39.645012
 42
0.069492
  0
VERTEX
  8
0
 10
82.428571
 20
40.000000
 42
0.000000
  0
VERTEX
  8
0
 10
79.000000
 20
40.000000
 42
0.000000
  0
VERTEX
  8
0
 10
79.000000
 20
46.300000
 42
0.016838
  0
VERTEX
  8
0
 10
78.914218
 20
48.846475
 42
0.022831
  0
VERTEX
  8
0
 10
78.654762
 20
51.132738
 42
0.022572
  0
VERTEX
  8
0
 10
78.276764
 20
52.961810
 42
0.134927
  0
VERTEX
  8
0
 10
77.800000
 20
53.800000
 42
0.192640
  0
VERTEX
  8
0
 10
75.213830
 20
54.908019
 42
0.006041
  0
VERTEX
  8
0
 10
63.500000
 20
55.049548
 42
0.006041
  0
VERTEX
  8
0
 10
51.786170
 20
54.908019
 42
0.192640
  0
SEQEND
  0
ENDSEC
  0
EOF
