  0
SECTION
  2
HEADER
  9
$ACADVER
  1
AC1006
  9
$EXTMIN
 10
0.000000
 20
0.000000
 30
0.000000
  9
$EXTMAX
 10
116.000000
 20
60.000000
 30
0.000000
  0
ENDSEC
  0
SECTION
  2
ENTITIES
  0
POLYLINE
  8
0
 66
1
 70
1
  0
VERTEX
  8
0
 10
63.680338
 20
59.062689
 42
0.036661
  0
VERTEX
  8
0
 10
60.292476
 20
58.335505
 42
0.125894
  0
VERTEX
  8
0
 10
58.372464
 20
57.197095
 42
0.122006
  0
VERTEX
  8
0
 10
57.201708
 20
55.254206
 42
0.033460
  0
VERTEX
  8
0
 10
56.371566
 20
51.750000
 42
0.000000
  0
VERTEX
  8
0
 10
55.744384
 20
48.000000
 42
0.000000
  0
VERTEX
  8
0
 10
44.122192
 20
47.996805
 42
0.021672
  0
VERTEX
  8
0
 10
30.931730
 20
47.421185
 42
0.032942
  0
VERTEX
  8
0
 10
19.596537
 20
45.675475
 42
0.035099
  0
VERTEX
  8
0
 10
11.110626
 20
43.153921
 42
0.243660
  0
VERTEX
  8
0
 10
8.299221
 20
40.036219
 42
-0.088488
  0
VERTEX
  8
0
 10
7.945504
 20
39.269608
 42
-0.043969
  0
VERTEX
  8
0
 10
7.256467
 20
38.446043
 42
-0.041799
  0
VERTEX
  8
0
 10
6.369314
 20
37.694743
 42
-0.047936
  0
VERTEX
  8
0
 10
5.407638
 20
37.139871
 42
0.109976
  0
VERTEX
  8
0
 10
3.135441
 20
35.424705
 42
0.065471
  0
VERTEX
  8
0
 10
1.285573
 20
32.566244
 42
0.069952
  0
VERTEX
  8
0
 10
0.356458
 20
29.604059
 42
0.217586
  0
VERTEX
  8
0
 10
0.889801
 20
27.632782
 42
0.084724
  0
VERTEX
  8
0
 10
1.648379
 20
26.982044
 42
0.104434
  0
VERTEX
  8
0
 10
2.527694
 20
26.679019
 42
0.075105
  0
VERTEX
  8
0
 10
3.674045
 20
26.709028
 42
0.025806
  0
VERTEX
  8
0
 10
5.295506
 20
27.084750
 42
-0.026709
  0
VERTEX
  8
0
 10
6.825045
 20
27.436264
 42
-0.012810
  0
VERTEX
  8
0
 10
8.818343
 20
27.731145
 42
-0.012660
  0
VERTEX
  8
0
 10
10.919536
 20
27.933340
 42
-0.017655
  0
VERTEX
  8
0
 10
12.806757
 20
28.000000
 42
-0.011614
  0
VERTEX
  8
0
 10
15.591903
 20
27.935295
 42
-0.159246
  0
VERTEX
  8
0
 10
16.525737
 20
27.581347
 42
-0.225344
  0
VERTEX
  8
0
 10
16.905123
 20
26.794710
 42
-0.025725
  0
VERTEX
  8
0
 10
16.813358
 20
24.772351
 42
-0.048452
  0
VERTEX
  8
0
 10
16.460563
 20
22.972992
 42
-0.120866
  0
VERTEX
  8
0
 10
15.786532
 20
21.825247
 42
-0.091435
  0
VERTEX
  8
0
 10
14.531484
 20
20.935185
 42
-0.020472
  0
VERTEX
  8
0
 10
12.098019
 20
19.924747
 42
0.044023
  0
VERTEX
  8
0
 10
8.513978
 20
18.234762
 42
0.111208
  0
VERTEX
  8
0
 10
6.416941
 20
16.280744
 42
0.108966
  0
VERTEX
  8
0
 10
5.335672
 20
13.590075
 42
0.041282
  0
VERTEX
  8
0
 10
5.000000
 20
9.531377
 42
0.041922
  0
VERTEX
  8
0
 10
5.419422
 20
4.537810
 42
0.159414
  0
VERTEX
  8
0
 10
6.856074
 20
1.803407
 42
0.155105
  0
VERTEX
  8
0
 10
9.658385
 20
0.404130
 42
0.039067
  0
VERTEX
  8
0
 10
14.806704
 20
0.005577
 42
0.022563
  0
VERTEX
  8
0
 10
20.070010
 20
0.247600
 42
0.032134
  0
VERTEX
  8
0
 10
24.692795
 20
0.971415
 42
0.032286
  0
VERTEX
  8
0
 10
28.168871
 20
1.986468
 42
0.315410
  0
VERTEX
  8
0
 10
29.000000
 20
3.172933
 42
-0.397756
  0
VERTEX
  8
0
 10
29.493664
 20
3.695316
 42
-0.006333
  0
VERTEX
  8
0
 10
33.935621
 20
3.890219
 42
-0.010035
  0
VERTEX
  8
0
 10
40.171426
 20
3.959521
 42
-0.003020
  0
VERTEX
  8
0
 10
49.656325
 20
3.817270
 42
0.000000
  0
VERTEX
  8
0
 10
70.312650
 20
3.382682
 42
0.000000
  0
VERTEX
  8
0
 10
71.906325
 20
6.185018
 42
-0.100821
  0
VERTEX
  8
0
 10
73.541039
 20
8.056220
 42
-0.127516
  0
VERTEX
  8
0
 10
75.651161
 20
8.943700
 42
-0.125370
  0
VERTEX
  8
0
 10
77.954334
 20
8.701024
 42
-0.095576
  0
VERTEX
  8
0
 10
80.130965
 20
7.381479
 42
0.128627
  0
VERTEX
  8
0
 10
82.209027
 20
6.300369
 42
0.138447
  0
VERTEX
  8
0
 10
84.488233
 20
6.417346
 42
0.127449
  0
VERTEX
  8
0
 10
86.508577
 20
7.740880
 42
0.100810
  0
VERTEX
  8
0
 10
87.848054
 20
9.993972
 42
-0.038536
  0
VERTEX
  8
0
 10
88.525518
 20
11.542246
 42
-0.112634
  0
VERTEX
  8
0
 10
89.284026
 20
12.417930
 42
-0.116248
  0
VERTEX
  8
0
 10
90.332086
 20
12.862526
 42
-0.042461
  0
VERTEX
  8
0
 10
91.947980
 20
13.000000
 42
-0.028975
  0
VERTEX
  8
0
 10
93.606249
 20
12.903823
 42
-0.145840
  0
VERTEX
  8
0
 10
94.450248
 20
12.541494
 42
-0.174787
  0
VERTEX
  8
0
 10
94.874707
 20
11.816349
 42
-0.045906
  0
VERTEX
  8
0
 10
95.000000
 20
10.454545
 42
0.077229
  0
VERTEX
  8
0
 10
95.179641
 20
9.298441
 42
0.038227
  0
VERTEX
  8
0
 10
95.738416
 20
7.918402
 42
0.036773
  0
VERTEX
  8
0
 10
96.551733
 20
6.544978
 42
0.044337
  0
VERTEX
  8
0
 10
97.513756
 20
5.395335
 42
0.036212
  0
VERTEX
  8
0
 10
99.080195
 20
4.040728
 42
0.098712
  0
VERTEX
  8
0
 10
100.397628
 20
3.414335
 42
0.079654
  0
VERTEX
  8
0
 10
102.018472
 20
3.271218
 42
0.018203
  0
VERTEX
  8
0
 10
104.763756
 20
3.566934
 42
0.028414
  0
VERTEX
  8
0
 10
108.821575
 20
4.391691
 42
0.142579
  0
VERTEX
  8
0
 10
110.788171
 20
5.572081
 42
0.153424
  0
VERTEX
  8
0
 10
111.736810
 20
7.574149
 42
0.034519
  0
VERTEX
  8
0
 10
112.000000
 20
11.381898
 42
-0.016963
  0
VERTEX
  8
0
 10
112.090950
 20
14.061964
 42
-0.060501
  0
VERTEX
  8
0
 10
112.412316
 20
15.744753
 42
-0.092744
  0
VERTEX
  8
0
 10
113.034911
 20
16.899415
 42
-0.083462
  0
VERTEX
  8
0
 10
114.053091
 20
17.801083
 42
0.076066
  0
VERTEX
  8
0
 10
115.078486
 20
18.682593
 42
0.106474
  0
VERTEX
  8
0
 10
115.652468
 20
19.741496
 42
0.069699
  0
VERTEX
  8
0
 10
115.876230
 20
21.269574
 42
0.017656
  0
VERTEX
  8
0
 10
115.803091
 20
23.783727
 42
0.019883
  0
VERTEX
  8
0
 10
115.525954
 20
26.434955
 42
0.087955
  0
VERTEX
  8
0
 10
115.035203
 20
27.918957
 42
0.114079
  0
VERTEX
  8
0
 10
114.132246
 20
28.944314
 42
0.044859
  0
VERTEX
  8
0
 10
112.500000
 20
29.904969
 42
-0.028505
  0
VERTEX
  8
0
 10
111.255611
 20
30.583639
 42
-0.022840
  0
VERTEX
  8
0
 10
109.997406
 20
31.448047
 42
-0.023393
  0
VERTEX
  8
0
 10
108.905165
 20
32.357635
 42
-0.052889
  0
VERTEX
  8
0
 10
108.193296
 20
33.162872
 42
0.082165
  0
VERTEX
  8
0
 10
107.487909
 20
33.872766
 42
0.050186
  0
VERTEX
  8
0
 10
106.462962
 20
34.465524
 42
0.048338
  0
VERTEX
  8
0
 10
105.286249
 20
34.865223
 42
0.057776
  0
VERTEX
  8
0
 10
104.123763
 20
35.000000
 42
-0.058412
  0
VERTEX
  8
0
 10
102.697831
 20
35.167154
 42
-0.105257
  0
VERTEX
  8
0
 10
101.639146
 20
35.669610
 42
-0.090232
  0
VERTEX
  8
0
 10
100.773562
 20
36.621489
 42
-0.034612
  0
VERTEX
  8
0
 10
99.930467
 20
38.206776
 42
0.044796
  0
VERTEX
  8
0
 10
99.103808
 20
39.687710
 42
0.062279
  0
VERTEX
  8
0
 10
98.099811
 20
40.825417
 42
0.064878
  0
VERTEX
  8
0
 10
96.881169
 20
41.648049
 42
0.054265
  0
VERTEX
  8
0
 10
95.417232
 20
42.192034
 42
-0.096511
  0
VERTEX
  8
0
 10
93.053895
 20
43.304019
 42
-0.116641
  0
VERTEX
  8
0
 10
91.466404
 20
45.164631
 42
-0.097545
  0
VERTEX
  8
0
 10
90.704452
 20
47.817937
 42
-0.051479
  0
VERTEX
  8
0
 10
90.765318
 20
51.257259
 42
0.034592
  0
VERTEX
  8
0
 10
90.856770
 20
53.034752
 42
0.042165
  0
VERTEX
  8
0
 10
90.687132
 20
54.691577
 42
0.045228
  0
VERTEX
  8
0
 10
90.260776
 20
56.192875
 42
0.053285
  0
VERTEX
  8
0
 10
89.587201
 20
57.507259
 42
0.077464
  0
VERTEX
  8
0
 10
88.305049
 20
58.926598
 42
0.119758
  0
VERTEX
  8
0
 10
86.819214
 20
59.631801
 42
0.049948
  0
VERTEX
  8
0
 10
84.342118
 20
59.892708
 42
0.004716
  0
VERTEX
  8
0
 10
78.226947
 20
59.866387
 42
0.005432
  0
VERTEX
  8
0
 10
74.149450
 20
59.766059
 42
0.004932
  0
VERTEX
  8
0
 10
69.941515
 20
59.575186
 42
0.004941
  0
VERTEX
  8
0
 10
66.180204
 20
59.330068
 42
0.015798
  0
SEQEND
  0
ENDSEC
  0
EOF
