  0
SECTION
  2
HEADER
  9
$ACADVER
  1
AC1006
  9
$EXTMIN
 10
0.000000
 20
0.000000
 30
0.000000
  9
$EXTMAX
 10
374.000000
 20
377.000000
 30
0.000000
  0
ENDSEC
  0
SECTION
  2
ENTITIES
  0
POLYLINE
  8
0
 66
1
 70
1
  0
VERTEX
  8
0
 10
193.865619
 20
376.532285
 42
-0.140552
  0
VERTEX
  8
0
 10
193.408961
 20
376.279169
 42
-0.010649
  0
VERTEX
  8
0
 10
192.011619
 20
375.987830
 42
-0.014012
  0
VERTEX
  8
0
 10
190.301368
 20
375.718436
 42
-0.010190
  0
VERTEX
  8
0
 10
188.386452
 20
375.511142
 42
0.013848
  0
VERTEX
  8
0
 10
182.759900
 20
374.860385
 42
0.016985
  0
VERTEX
  8
0
 10
177.551908
 20
373.929860
 42
0.017155
  0
VERTEX
  8
0
 10
172.462769
 20
372.657030
 42
0.014651
  0
VERTEX
  8
0
 10
167.194501
 20
370.977093
 42
-0.011108
  0
VERTEX
  8
0
 10
165.042974
 20
370.274187
 42
-0.015982
  0
VERTEX
  8
0
 10
163.107476
 20
369.756000
 42
-0.011712
  0
VERTEX
  8
0
 10
161.502991
 20
369.420369
 42
-0.186199
  0
VERTEX
  8
0
 10
160.965845
 20
369.521109
 42
0.207400
  0
VERTEX
  8
0
 10
160.628500
 20
369.570223
 42
0.109726
  0
VERTEX
  8
0
 10
160.247155
 20
369.370231
 42
0.077476
  0
VERTEX
  8
0
 10
159.877230
 20
368.943807
 42
0.048417
  0
VERTEX
  8
0
 10
159.581246
 20
368.351128
 42
-0.045709
  0
VERTEX
  8
0
 10
159.294598
 20
367.769294
 42
-0.087842
  0
VERTEX
  8
0
 10
158.951122
 20
367.381096
 42
-0.144340
  0
VERTEX
  8
0
 10
158.611004
 20
367.243466
 42
-0.224462
  0
VERTEX
  8
0
 10
158.318471
 20
367.348196
 42
0.177037
  0
VERTEX
  8
0
 10
157.975625
 20
367.507493
 42
0.080783
  0
VERTEX
  8
0
 10
157.476174
 20
367.469108
 42
0.064926
  0
VERTEX
  8
0
 10
156.902383
 20
367.248146
 42
0.048905
  0
VERTEX
  8
0
 10
156.342009
 20
366.868879
 42
-0.026608
  0
VERTEX
  8
0
 10
155.826373
 20
366.485349
 42
-0.060983
  0
VERTEX
  8
0
 10
155.394215
 20
366.268808
 42
-0.134454
  0
VERTEX
  8
0
 10
155.117237
 20
366.247889
 42
-0.359054
  0
VERTEX
  8
0
 10
155.000000
 20
366.390100
 42
0.524708
  0
VERTEX
  8
0
 10
154.811262
 20
366.520434
 42
0.018922
  0
VERTEX
  8
0
 10
153.857271
 20
366.117188
 42
0.020357
  0
VERTEX
  8
0
 10
152.602531
 20
365.466405
 42
0.010982
  0
VERTEX
  8
0
 10
151.109860
 20
364.569351
 42
-0.017151
  0
VERTEX
  8
0
 10
149.574943
 20
363.672493
 42
-0.026315
  0
VERTEX
  8
0
 10
148.183302
 20
363.014133
 42
-0.024206
  0
VERTEX
  8
0
 10
147.050986
 20
362.612493
 42
-0.276182
  0
VERTEX
  8
0
 10
146.609860
 20
362.723474
 42
0.234952
  0
VERTEX
  8
0
 10
146.380802
 20
362.800365
 42
0.231438
  0
VERTEX
  8
0
 10
146.179146
 20
362.664604
 42
0.096229
  0
VERTEX
  8
0
 10
146.041915
 20
362.265944
 42
0.034929
  0
VERTEX
  8
0
 10
146.000000
 20
361.666667
 42
-0.043725
  0
VERTEX
  8
0
 10
145.945621
 20
361.046023
 42
-0.078063
  0
VERTEX
  8
0
 10
145.779687
 20
360.562527
 42
-0.121850
  0
VERTEX
  8
0
 10
145.534919
 20
360.288419
 42
-0.233909
  0
VERTEX
  8
0
 10
145.250000
 20
360.248319
 42
0.208404
  0
VERTEX
  8
0
 10
143.914606
 20
360.126199
 42
0.015388
  0
VERTEX
  8
0
 10
140.679246
 20
358.217943
 42
0.014526
  0
VERTEX
  8
0
 10
137.554649
 20
356.113528
 42
0.241811
  0
VERTEX
  8
0
 10
137.000000
 20
355.033725
 42
-0.143617
  0
VERTEX
  8
0
 10
136.884387
 20
354.639522
 42
-0.099533
  0
VERTEX
  8
0
 10
136.559375
 20
354.303657
 42
-0.084002
  0
VERTEX
  8
0
 10
136.073377
 20
354.077350
 42
-0.067147
  0
VERTEX
  8
0
 10
135.500000
 20
354.000000
 42
0.064853
  0
VERTEX
  8
0
 10
134.926543
 20
353.925306
 42
0.082425
  0
VERTEX
  8
0
 10
134.440625
 20
353.706250
 42
0.098894
  0
VERTEX
  8
0
 10
134.115568
 20
353.381354
 42
0.148195
  0
VERTEX
  8
0
 10
134.000000
 20
353.000000
 42
-0.151099
  0
VERTEX
  8
0
 10
133.882059
 20
352.618634
 42
-0.098430
  0
VERTEX
  8
0
 10
133.550156
 20
352.293750
 42
-0.081424
  0
VERTEX
  8
0
 10
133.054120
 20
352.074614
 42
-0.063461
  0
VERTEX
  8
0
 10
132.468615
 20
352.000000
 42
0.090259
  0
VERTEX
  8
0
 10
131.839207
 20
351.885448
 42
0.066645
  0
VERTEX
  8
0
 10
131.214222
 20
351.549552
 42
0.065398
  0
VERTEX
  8
0
 10
130.688229
 20
351.052759
 42
0.079397
  0
VERTEX
  8
0
 10
130.348794
 20
350.466560
 42
-0.137194
  0
VERTEX
  8
0
 10
129.858778
 20
349.807170
 42
-0.083001
  0
VERTEX
  8
0
 10
128.996110
 20
349.343266
 42
-0.059970
  0
VERTEX
  8
0
 10
127.756270
 20
349.081629
 42
-0.028866
  0
VERTEX
  8
0
 10
126.130179
 20
349.032080
 42
0.015961
  0
VERTEX
  8
0
 10
123.593974
 20
349.020247
 42
0.034801
  0
VERTEX
  8
0
 10
121.660910
 20
348.814260
 42
0.037236
  0
VERTEX
  8
0
 10
119.857516
 20
348.353451
 42
0.021042
  0
VERTEX
  8
0
 10
117.750000
 20
347.544052
 42
-0.049654
  0
VERTEX
  8
0
 10
116.972215
 20
347.295304
 42
-0.037486
  0
VERTEX
  8
0
 10
116.082845
 20
347.174167
 42
-0.038378
  0
VERTEX
  8
0
 10
115.221138
 20
347.188200
 42
-0.068458
  0
VERTEX
  8
0
 10
114.532025
 20
347.349337
 42
0.067860
  0
VERTEX
  8
0
 10
113.925910
 20
347.491828
 42
0.072801
  0
VERTEX
  8
0
 10
113.318688
 20
347.461466
 42
0.081220
  0
VERTEX
  8
0
 10
112.803354
 20
347.269027
 42
0.125083
  0
VERTEX
  8
0
 10
112.462927
 20
346.940014
 42
-0.087354
  0
VERTEX
  8
0
 10
112.168017
 20
346.609040
 42
-0.094409
  0
VERTEX
  8
0
 10
111.785229
 20
346.409547
 42
-0.100139
  0
VERTEX
  8
0
 10
111.374889
 20
346.371459
 42
-0.112095
  0
VERTEX
  8
0
 10
111.000000
 20
346.500000
 42
0.125033
  0
VERTEX
  8
0
 10
110.619726
 20
346.619635
 42
0.100781
  0
VERTEX
  8
0
 10
110.194466
 20
346.557598
 42
0.090311
  0
VERTEX
  8
0
 10
109.788983
 20
346.322260
 42
0.077961
  0
VERTEX
  8
0
 10
109.467948
 20
345.948138
 42
-0.108341
  0
VERTEX
  8
0
 10
109.106134
 20
345.574570
 42
-0.081875
  0
VERTEX
  8
0
 10
108.583672
 20
345.339902
 42
-0.077271
  0
VERTEX
  8
0
 10
107.983758
 20
345.276962
 42
-0.079342
  0
VERTEX
  8
0
 10
107.398849
 20
345.400442
 42
0.075020
  0
VERTEX
  8
0
 10
106.864162
 20
345.518127
 42
0.123404
  0
VERTEX
  8
0
 10
106.410912
 20
345.436268
 42
0.152332
  0
VERTEX
  8
0
 10
106.111545
 20
345.170194
 42
0.136303
  0
VERTEX
  8
0
 10
106.000000
 20
344.768615
 42
-0.057942
  0
VERTEX
  8
0
 10
105.941902
 20
344.268956
 42
-0.336288
  0
VERTEX
  8
0
 10
105.750000
 20
344.110420
 42
-0.185784
  0
VERTEX
  8
0
 10
105.430383
 20
344.218372
 42
-0.023078
  0
VERTEX
  8
0
 10
104.878145
 20
344.721855
 42
0.078275
  0
VERTEX
  8
0
 10
104.344166
 20
345.110507
 42
0.061866
  0
VERTEX
  8
0
 10
103.672024
 20
345.355371
 42
0.062638
  0
VERTEX
  8
0
 10
102.969803
 20
345.426306
 42
0.085701
  0
VERTEX
  8
0
 10
102.347573
 20
345.303135
 42
-0.212398
  0
VERTEX
  8
0
 10
101.524184
 20
345.346129
 42
-0.036888
  0
VERTEX
  8
0
 10
100.159315
 20
346.172618
 42
-0.032409
  0
VERTEX
  8
0
 10
98.520657
 20
347.505953
 42
-0.018639
  0
VERTEX
  8
0
 10
96.719428
 20
349.306084
 42
0.010556
  0
VERTEX
  8
0
 10
94.193968
 20
351.912927
 42
0.075283
  0
VERTEX
  8
0
 10
92.778152
 20
352.944913
 42
0.144534
  0
VERTEX
  8
0
 10
91.537817
 20
353.186666
 42
0.075816
  0
VERTEX
  8
0
 10
90.000000
 20
352.800664
 42
-0.029171
  0
VERTEX
  8
0
 10
88.801066
 20
352.377980
 42
-0.014517
  0
VERTEX
  8
0
 10
87.240542
 20
351.976873
 42
-0.014358
  0
VERTEX
  8
0
 10
85.594724
 20
351.653787
 42
-0.020461
  0
VERTEX
  8
0
 10
84.116738
 20
351.469254
 42
0.032226
  0
VERTEX
  8
0
 10
82.764388
 20
351.268010
 42
0.035854
  0
VERTEX
  8
0
 10
81.497893
 20
350.898560
 42
0.038567
  0
VERTEX
  8
0
 10
80.481076
 20
350.429015
 42
0.127565
  0
VERTEX
  8
0
 10
79.952486
 20
349.923121
 42
-0.028465
  0
VERTEX
  8
0
 10
79.440983
 20
349.192033
 42
-0.003876
  0
VERTEX
  8
0
 10
78.274162
 20
347.734748
 42
-0.004451
  0
VERTEX
  8
0
 10
76.861612
 20
346.029561
 42
-0.003744
  0
VERTEX
  8
0
 10
75.335749
 20
344.247851
 42
0.009200
  0
VERTEX
  8
0
 10
73.866325
 20
342.493658
 42
0.012959
  0
VERTEX
  8
0
 10
72.626751
 20
340.873097
 42
0.009164
  0
VERTEX
  8
0
 10
71.663032
 20
339.490485
 42
0.148682
  0
VERTEX
  8
0
 10
71.500000
 20
338.954346
 42
-0.203314
  0
VERTEX
  8
0
 10
71.011972
 20
337.803771
 42
-0.005886
  0
VERTEX
  8
0
 10
67.071878
 20
334.083526
 42
-0.006296
  0
VERTEX
  8
0
 10
63.063011
 20
330.478974
 42
-0.181905
  0
VERTEX
  8
0
 10
61.790025
 20
330.000000
 42
0.131670
  0
VERTEX
  8
0
 10
61.488750
 20
329.919263
 42
0.100602
  0
VERTEX
  8
0
 10
61.232070
 20
329.692224
 42
0.088090
  0
VERTEX
  8
0
 10
61.059405
 20
329.352599
 42
0.073788
  0
VERTEX
  8
0
 10
61.000000
 20
328.952251
 42
-0.141188
  0
VERTEX
  8
0
 10
60.839803
 20
328.396239
 42
-0.022935
  0
VERTEX
  8
0
 10
60.192188
 20
327.463506
 42
-0.023733
  0
VERTEX
  8
0
 10
59.302936
 20
326.408225
 42
-0.018910
  0
VERTEX
  8
0
 10
58.250000
 20
325.355491
 42
0.041449
  0
VERTEX
  8
0
 10
56.723894
 20
323.685662
 42
0.095795
  0
VERTEX
  8
0
 10
55.962614
 20
322.174276
 42
0.064373
  0
VERTEX
  8
0
 10
55.660489
 20
320.134185
 42
0.011374
  0
VERTEX
  8
0
 10
55.677123
 20
316.257297
 42
0.011465
  0
VERTEX
  8
0
 10
55.804795
 20
313.704299
 42
0.016502
  0
VERTEX
  8
0
 10
56.043936
 20
311.454496
 42
0.012258
  0
VERTEX
  8
0
 10
56.344545
 20
309.631307
 42
0.189635
  0
VERTEX
  8
0
 10
56.677123
 20
309.104058
 42
-0.067001
  0
VERTEX
  8
0
 10
56.993344
 20
308.799242
 42
-0.046900
  0
VERTEX
  8
0
 10
57.263364
 20
308.383692
 42
-0.047058
  0
VERTEX
  8
0
 10
57.450185
 20
307.927190
 42
-0.069385
  0
VERTEX
  8
0
 10
57.517309
 20
307.500000
 42
0.089547
  0
VERTEX
  8
0
 10
57.637886
 20
306.892470
 42
0.008795
  0
VERTEX
  8
0
 10
58.210604
 20
305.507584
 42
0.010894
  0
VERTEX
  8
0
 10
58.963975
 20
303.871409
 42
0.008426
  0
VERTEX
  8
0
 10
59.853157
 20
302.121562
 42
-0.010184
  0
VERTEX
  8
0
 10
61.189560
 20
299.468554
 42
-0.082950
  0
VERTEX
  8
0
 10
61.564711
 20
298.167550
 42
-0.159498
  0
VERTEX
  8
0
 10
61.366356
 20
297.194599
 42
-0.067289
  0
VERTEX
  8
0
 10
60.547541
 20
296.121562
 42
-0.113039
  0
VERTEX
  8
0
 10
59.256643
 20
295.313173
 42
-0.053546
  0
VERTEX
  8
0
 10
57.333002
 20
294.868104
 42
-0.029892
  0
VERTEX
  8
0
 10
54.339375
 20
294.686433
 42
-0.006654
  0
VERTEX
  8
0
 10
49.211693
 20
294.750345
 42
-0.003459
  0
VERTEX
  8
0
 10
41.041244
 20
295.017532
 42
-0.010328
  0
VERTEX
  8
0
 10
35.457421
 20
295.354438
 42
-0.008720
  0
VERTEX
  8
0
 10
31.486336
 20
295.746288
 42
-0.168982
  0
VERTEX
  8
0
 10
30.389963
 20
296.276704
 42
0.114326
  0
VERTEX
  8
0
 10
30.081358
 20
296.469211
 42
0.060584
  0
VERTEX
  8
0
 10
29.637989
 20
296.563272
 42
0.055510
  0
VERTEX
  8
0
 10
29.136432
 20
296.551797
 42
0.056314
  0
VERTEX
  8
0
 10
28.652234
 20
296.430073
 42
-0.044578
  0
VERTEX
  8
0
 10
27.953343
 20
296.236873
 42
-0.006689
  0
VERTEX
  8
0
 10
26.516594
 20
295.994345
 42
-0.007469
  0
VERTEX
  8
0
 10
24.807364
 20
295.755375
 42
-0.006385
  0
VERTEX
  8
0
 10
23.000000
 20
295.553556
 42
0.011164
  0
VERTEX
  8
0
 10
18.352639
 20
294.989590
 42
0.069195
  0
VERTEX
  8
0
 10
16.049070
 20
294.324049
 42
0.092435
  0
VERTEX
  8
0
 10
14.318285
 20
293.130337
 42
0.027800
  0
VERTEX
  8
0
 10
12.183141
 20
290.730453
 42
-0.013972
  0
VERTEX
  8
0
 10
11.030297
 20
289.360203
 42
-0.023536
  0
VERTEX
  8
0
 10
9.979818
 20
288.286467
 42
-0.020443
  0
VERTEX
  8
0
 10
9.107963
 20
287.539499
 42
-0.380096
  0
VERTEX
  8
0
 10
8.774137
 20
287.559196
 42
0.438406
  0
VERTEX
  8
0
 10
8.063662
 20
287.530091
 42
0.011689
  0
VERTEX
  8
0
 10
5.861738
 20
284.807915
 42
0.020506
  0
VERTEX
  8
0
 10
3.780502
 20
281.866290
 42
0.049502
  0
VERTEX
  8
0
 10
2.561132
 20
279.500000
 42
0.023691
  0
VERTEX
  8
0
 10
1.607753
 20
276.712276
 42
0.024291
  0
VERTEX
  8
0
 10
0.931484
 20
273.869870
 42
0.018125
  0
VERTEX
  8
0
 10
0.568758
 20
271.449561
 42
0.447566
  0
VERTEX
  8
0
 10
0.970383
 20
271.000000
 42
-0.409002
  0
VERTEX
  8
0
 10
1.381261
 20
270.596381
 42
-0.012951
  0
VERTEX
  8
0
 10
1.360491
 20
268.024747
 42
-0.015918
  0
VERTEX
  8
0
 10
1.125218
 20
264.454911
 42
-0.006106
  0
VERTEX
  8
0
 10
0.579861
 20
259.510667
 42
0.106891
  0
VERTEX
  8
0
 10
0.739984
 20
257.754047
 42
0.127846
  0
VERTEX
  8
0
 10
1.617560
 20
256.348640
 42
0.105091
  0
VERTEX
  8
0
 10
3.229501
 20
255.362830
 42
0.055756
  0
VERTEX
  8
0
 10
5.520170
 20
254.831145
 42
-0.042051
  0
VERTEX
  8
0
 10
6.879356
 20
254.554597
 42
-0.107440
  0
VERTEX
  8
0
 10
7.757125
 20
254.076396
 42
-0.126726
  0
VERTEX
  8
0
 10
8.272129
 20
253.332898
 42
-0.070776
  0
VERTEX
  8
0
 10
8.505625
 20
252.250000
 42
-0.031068
  0
VERTEX
  8
0
 10
8.513329
 20
251.387890
 42
-0.049726
  0
VERTEX
  8
0
 10
8.401564
 20
250.660937
 42
-0.065866
  0
VERTEX
  8
0
 10
8.199029
 20
250.158910
 42
-0.270253
  0
VERTEX
  8
0
 10
7.926501
 20
250.000000
 42
0.262497
  0
VERTEX
  8
0
 10
7.680976
 20
249.861562
 42
0.098263
  0
VERTEX
  8
0
 10
7.541279
 20
249.476563
 42
0.064766
  0
VERTEX
  8
0
 10
7.528139
 20
248.900991
 42
0.037330
  0
VERTEX
  8
0
 10
7.653220
 20
248.218085
 42
0.129604
  0
VERTEX
  8
0
 10
8.519482
 20
246.682236
 42
0.034693
  0
VERTEX
  8
0
 10
10.626901
 20
244.795825
 42
0.032854
  0
VERTEX
  8
0
 10
12.930149
 20
243.236687
 42
0.183015
  0
VERTEX
  8
0
 10
14.375854
 20
242.992440
 42
-0.200470
  0
VERTEX
  8
0
 10
14.817959
 20
242.902343
 42
-0.037651
  0
VERTEX
  8
0
 10
15.477937
 20
242.377323
 42
-0.035009
  0
VERTEX
  8
0
 10
16.203339
 20
241.604165
 42
-0.025750
  0
VERTEX
  8
0
 10
16.897703
 20
240.655942
 42
0.047049
  0
VERTEX
  8
0
 10
18.556737
 20
238.581566
 42
0.021335
  0
VERTEX
  8
0
 10
21.080990
 20
236.184782
 42
0.017098
  0
VERTEX
  8
0
 10
23.500072
 20
234.217956
 42
0.619746
  0
VERTEX
  8
0
 10
24.000000
 20
234.466375
 42
-0.535000
  0
VERTEX
  8
0
 10
24.147207
 20
234.564574
 42
-0.045112
  0
VERTEX
  8
0
 10
24.631987
 20
234.309487
 42
-0.029549
  0
VERTEX
  8
0
 10
25.325258
 20
233.800154
 42
-0.014331
  0
VERTEX
  8
0
 10
26.151444
 20
233.073536
 42
0.030726
  0
VERTEX
  8
0
 10
27.037364
 20
232.344448
 42
0.042244
  0
VERTEX
  8
0
 10
27.920164
 20
231.811999
 42
0.048745
  0
VERTEX
  8
0
 10
28.680981
 20
231.524870
 42
0.207146
  0
VERTEX
  8
0
 10
29.151444
 20
231.593597
 42
-0.091310
  0
VERTEX
  8
0
 10
29.475317
 20
231.719760
 42
-0.169946
  0
VERTEX
  8
0
 10
29.750737
 20
231.678887
 42
-0.175565
  0
VERTEX
  8
0
 10
29.934606
 20
231.477194
 42
-0.098218
  0
VERTEX
  8
0
 10
30.000000
 20
231.147501
 42
0.331977
  0
VERTEX
  8
0
 10
30.495367
 20
230.483639
 42
0.143482
  0
VERTEX
  8
0
 10
31.664084
 20
230.479359
 42
0.077274
  0
VERTEX
  8
0
 10
33.300201
 20
231.240829
 42
0.052520
  0
VERTEX
  8
0
 10
34.880896
 20
232.558193
 42
-0.013149
  0
VERTEX
  8
0
 10
35.821974
 20
233.477012
 42
-0.005579
  0
VERTEX
  8
0
 10
37.128898
 20
234.660745
 42
-0.005515
  0
VERTEX
  8
0
 10
38.552735
 20
235.893984
 42
-0.007192
  0
VERTEX
  8
0
 10
39.883920
 20
236.989023
 42
0.022796
  0
VERTEX
  8
0
 10
41.076889
 20
238.034436
 42
0.028084
  0
VERTEX
  8
0
 10
42.084651
 20
239.117308
 42
0.028517
  0
VERTEX
  8
0
 10
42.808782
 20
240.097413
 42
0.145845
  0
VERTEX
  8
0
 10
43.000000
 20
240.739023
 42
-0.077793
  0
VERTEX
  8
0
 10
43.075405
 20
241.220738
 42
-0.090227
  0
VERTEX
  8
0
 10
43.293750
 20
241.629588
 42
-0.100780
  0
VERTEX
  8
0
 10
43.618625
 20
241.902913
 42
-0.125288
  0
VERTEX
  8
0
 10
44.000000
 20
242.000000
 42
0.075146
  0
VERTEX
  8
0
 10
44.373191
 20
242.056406
 42
0.101574
  0
VERTEX
  8
0
 10
44.671464
 20
242.220313
 42
0.119953
  0
VERTEX
  8
0
 10
44.848335
 20
242.464378
 42
0.137085
  0
VERTEX
  8
0
 10
44.881579
 20
242.750000
 42
-0.048951
  0
VERTEX
  8
0
 10
44.769565
 20
244.653501
 42
-0.164501
  0
VERTEX
  8
0
 10
45.209230
 20
245.803651
 42
-0.177698
  0
VERTEX
  8
0
 10
46.229137
 20
246.398309
 42
-0.058958
  0
VERTEX
  8
0
 10
47.984960
 20
246.500895
 42
0.052750
  0
VERTEX
  8
0
 10
49.306047
 20
246.561684
 42
0.042982
  0
VERTEX
  8
0
 10
50.683140
 20
246.894738
 42
0.043820
  0
VERTEX
  8
0
 10
51.950776
 20
247.446887
 42
0.062995
  0
VERTEX
  8
0
 10
52.943146
 20
248.161659
 42
-0.023208
  0
VERTEX
  8
0
 10
53.772466
 20
248.865330
 42
-0.026116
  0
VERTEX
  8
0
 10
54.632435
 20
249.459987
 42
-0.026682
  0
VERTEX
  8
0
 10
55.408306
 20
249.883263
 42
-0.111982
  0
VERTEX
  8
0
 10
55.923003
 20
250.000000
 42
0.137025
  0
VERTEX
  8
0
 10
56.377742
 20
250.127006
 42
0.049496
  0
VERTEX
  8
0
 10
56.919358
 20
250.533318
 42
0.044493
  0
VERTEX
  8
0
 10
57.455126
 20
251.120863
 42
0.039774
  0
VERTEX
  8
0
 10
57.901286
 20
251.815551
 42
-0.103087
  0
VERTEX
  8
0
 10
58.620182
 20
252.674541
 42
-0.092072
  0
VERTEX
  8
0
 10
59.650511
 20
253.217344
 42
-0.060753
  0
VERTEX
  8
0
 10
61.164575
 20
253.492692
 42
-0.019881
  0
VERTEX
  8
0
 10
63.436469
 20
253.535365
 42
0.014239
  0
VERTEX
  8
0
 10
65.186038
 20
253.548487
 42
0.023475
  0
VERTEX
  8
0
 10
66.659463
 20
253.670939
 42
0.020041
  0
VERTEX
  8
0
 10
67.783494
 20
253.863812
 42
0.353957
  0
VERTEX
  8
0
 10
68.000000
 20
254.131331
 42
-0.389137
  0
VERTEX
  8
0
 10
68.374342
 20
254.539486
 42
-0.081839
  0
VERTEX
  8
0
 10
69.430046
 20
254.458094
 42
-0.032838
  0
VERTEX
  8
0
 10
71.355605
 20
253.849949
 42
-0.006316
  0
VERTEX
  8
0
 10
74.750000
 20
252.477632
 42
-0.025204
  0
VERTEX
  8
0
 10
76.377496
 20
251.697020
 42
-0.034278
  0
VERTEX
  8
0
 10
77.751562
 20
250.823726
 42
-0.036568
  0
VERTEX
  8
0
 10
78.736169
 20
249.981213
 42
-0.200085
  0
VERTEX
  8
0
 10
79.000000
 20
249.348310
 42
0.077013
  0
VERTEX
  8
0
 10
79.079812
 20
248.833210
 42
0.089829
  0
VERTEX
  8
0
 10
79.311086
 20
248.396066
 42
0.100769
  0
VERTEX
  8
0
 10
79.655141
 20
248.103832
 42
0.126487
  0
VERTEX
  8
0
 10
80.059017
 20
248.000000
 42
-0.103619
  0
VERTEX
  8
0
 10
80.416340
 20
247.925146
 42
-0.179234
  0
VERTEX
  8
0
 10
80.632022
 20
247.716964
 42
-0.165529
  0
VERTEX
  8
0
 10
80.669803
 20
247.404446
 42
-0.086666
  0
VERTEX
  8
0
 10
80.522542
 20
247.036475
 42
0.189937
  0
VERTEX
  8
0
 10
80.431169
 20
246.529070
 42
0.059676
  0
VERTEX
  8
0
 10
80.675712
 20
245.782249
 42
0.049907
  0
VERTEX
  8
0
 10
81.176339
 20
244.938266
 42
0.037589
  0
VERTEX
  8
0
 10
81.880192
 20
244.119808
 42
-0.027112
  0
VERTEX
  8
0
 10
82.587973
 20
243.330806
 42
-0.042703
  0
VERTEX
  8
0
 10
83.095158
 20
242.575962
 42
-0.052519
  0
VERTEX
  8
0
 10
83.359756
 20
241.952436
 42
-0.277238
  0
VERTEX
  8
0
 10
83.273539
 20
241.606872
 42
0.256545
  0
VERTEX
  8
0
 10
83.196661
 20
241.342649
 42
0.130549
  0
VERTEX
  8
0
 10
83.360852
 20
241.026299
 42
0.076879
  0
VERTEX
  8
0
 10
83.767017
 20
240.698546
 42
0.039795
  0
VERTEX
  8
0
 10
84.356872
 20
240.416550
 42
-0.057645
  0
VERTEX
  8
0
 10
84.985217
 20
240.088171
 42
-0.058808
  0
VERTEX
  8
0
 10
85.517331
 20
239.626891
 42
-0.064943
  0
VERTEX
  8
0
 10
85.878923
 20
239.108867
 42
-0.120501
  0
VERTEX
  8
0
 10
86.000000
 20
238.613770
 42
0.120622
  0
VERTEX
  8
0
 10
86.134038
 20
238.066241
 42
0.041791
  0
VERTEX
  8
0
 10
86.571767
 20
237.373761
 42
0.038606
  0
VERTEX
  8
0
 10
87.201622
 20
236.661979
 42
0.036188
  0
VERTEX
  8
0
 10
87.946439
 20
236.038604
 42
-0.033013
  0
VERTEX
  8
0
 10
88.659751
 20
235.449252
 42
-0.048988
  0
VERTEX
  8
0
 10
89.191657
 20
234.838335
 42
-0.061402
  0
VERTEX
  8
0
 10
89.485816
 20
234.294495
 42
-0.235924
  0
VERTEX
  8
0
 10
89.452183
 20
233.922630
 42
0.189134
  0
VERTEX
  8
0
 10
89.395167
 20
233.608809
 42
0.115590
  0
VERTEX
  8
0
 10
89.552180
 20
233.261224
 42
0.083977
  0
VERTEX
  8
0
 10
89.908084
 20
232.930469
 42
0.053757
  0
VERTEX
  8
0
 10
90.411448
 20
232.672354
 42
-0.127723
  0
VERTEX
  8
0
 10
90.996359
 20
232.254359
 42
-0.043581
  0
VERTEX
  8
0
 10
91.598084
 20
231.391848
 42
-0.039944
  0
VERTEX
  8
0
 10
92.123998
 20
230.281056
 42
-0.036552
  0
VERTEX
  8
0
 10
92.485159
 20
229.067570
 42
0.030066
  0
VERTEX
  8
0
 10
92.818280
 20
227.892841
 42
0.042510
  0
VERTEX
  8
0
 10
93.262834
 20
226.901099
 42
0.049590
  0
VERTEX
  8
0
 10
93.745410
 20
226.203932
 42
0.220007
  0
VERTEX
  8
0
 10
94.186444
 20
226.000000
 42
-0.168356
  0
VERTEX
  8
0
 10
94.530775
 20
225.880678
 42
-0.150578
  0
VERTEX
  8
0
 10
94.746543
 20
225.568462
 42
-0.107361
  0
VERTEX
  8
0
 10
94.790346
 20
225.093195
 42
-0.061179
  0
VERTEX
  8
0
 10
94.650244
 20
224.530933
 42
0.106431
  0
VERTEX
  8
0
 10
94.532659
 20
223.775156
 42
0.037016
  0
VERTEX
  8
0
 10
94.678216
 20
222.676505
 42
0.034771
  0
VERTEX
  8
0
 10
95.023589
 20
221.453513
 42
0.034024
  0
VERTEX
  8
0
 10
95.537094
 20
220.280933
 42
-0.016409
  0
VERTEX
  8
0
 10
96.092807
 20
219.124551
 42
-0.017095
  0
VERTEX
  8
0
 10
96.563379
 20
217.949712
 42
-0.017034
  0
VERTEX
  8
0
 10
96.899681
 20
216.909597
 42
-0.068539
  0
VERTEX
  8
0
 10
96.993839
 20
216.250000
 42
0.075867
  0
VERTEX
  8
0
 10
97.069133
 20
215.772427
 42
0.088858
  0
VERTEX
  8
0
 10
97.282721
 20
215.367188
 42
0.100185
  0
VERTEX
  8
0
 10
97.598734
 20
215.096236
 42
0.127960
  0
VERTEX
  8
0
 10
97.968615
 20
215.000000
 42
-0.186304
  0
VERTEX
  8
0
 10
98.288760
 20
214.876422
 42
-0.146758
  0
VERTEX
  8
0
 10
98.482181
 20
214.555634
 42
-0.099359
  0
VERTEX
  8
0
 10
98.508170
 20
214.066534
 42
-0.055413
  0
VERTEX
  8
0
 10
98.356740
 20
213.487265
 42
0.089310
  0
VERTEX
  8
0
 10
98.225560
 20
212.798715
 42
0.056234
  0
VERTEX
  8
0
 10
98.309349
 20
211.982012
 42
0.054222
  0
VERTEX
  8
0
 10
98.581594
 20
211.168467
 42
0.065458
  0
VERTEX
  8
0
 10
99.010569
 20
210.487265
 42
-0.024358
  0
VERTEX
  8
0
 10
99.439572
 20
209.915876
 42
-0.054638
  0
VERTEX
  8
0
 10
99.692693
 20
209.436884
 42
-0.116486
  0
VERTEX
  8
0
 10
99.737956
 20
209.127020
 42
-0.388990
  0
VERTEX
  8
0
 10
99.599392
 20
209.000000
 42
0.480263
  0
VERTEX
  8
0
 10
99.462209
 20
208.828729
 42
0.042620
  0
VERTEX
  8
0
 10
99.653593
 20
208.221514
 42
0.031316
  0
VERTEX
  8
0
 10
100.069659
 20
207.367020
 42
0.016077
  0
VERTEX
  8
0
 10
100.690350
 20
206.349834
 42
-0.015903
  0
VERTEX
  8
0
 10
101.369330
 20
205.237995
 42
-0.016065
  0
VERTEX
  8
0
 10
101.973846
 20
204.088942
 42
-0.016075
  0
VERTEX
  8
0
 10
102.434866
 20
203.056683
 42
-0.060613
  0
VERTEX
  8
0
 10
102.621271
 20
202.374690
 42
0.075039
  0
VERTEX
  8
0
 10
102.828350
 20
201.694495
 42
0.018738
  0
VERTEX
  8
0
 10
103.369173
 20
200.662721
 42
0.018722
  0
VERTEX
  8
0
 10
104.084338
 20
199.516185
 42
0.017844
  0
VERTEX
  8
0
 10
104.894243
 20
198.407319
 42
-0.023894
  0
VERTEX
  8
0
 10
105.655221
 20
197.338536
 42
-0.033485
  0
VERTEX
  8
0
 10
106.221003
 20
196.312686
 42
-0.035382
  0
VERTEX
  8
0
 10
106.552099
 20
195.449679
 42
-0.215542
  0
VERTEX
  8
0
 10
106.492119
 20
194.987248
 42
0.192807
  0
VERTEX
  8
0
 10
106.432278
 20
194.644069
 42
0.114500
  0
VERTEX
  8
0
 10
106.610229
 20
194.262432
 42
0.082637
  0
VERTEX
  8
0
 10
107.008266
 20
193.897835
 42
0.052616
  0
VERTEX
  8
0
 10
107.569126
 20
193.611848
 42
-0.069662
  0
VERTEX
  8
0
 10
108.118020
 20
193.308048
 42
-0.099962
  0
VERTEX
  8
0
 10
108.486378
 20
192.893882
 42
-0.123645
  0
VERTEX
  8
0
 10
108.618411
 20
192.437510
 42
-0.148363
  0
VERTEX
  8
0
 10
108.504365
 20
192.007063
 42
0.081847
  0
VERTEX
  8
0
 10
108.346067
 20
191.622228
 42
0.160356
  0
VERTEX
  8
0
 10
108.375882
 20
191.295825
 42
0.182842
  0
VERTEX
  8
0
 10
108.586502
 20
191.078957
 42
0.110022
  0
VERTEX
  8
0
 10
108.940983
 20
191.000000
 42
-0.140337
  0
VERTEX
  8
0
 10
109.344827
 20
190.884374
 42
-0.099915
  0
VERTEX
  8
0
 10
109.688914
 20
190.559375
 42
-0.085131
  0
VERTEX
  8
0
 10
109.920655
 20
190.073318
 42
-0.068870
  0
VERTEX
  8
0
 10
110.000000
 20
189.500000
 42
0.064853
  0
VERTEX
  8
0
 10
110.074694
 20
188.926543
 42
0.082425
  0
VERTEX
  8
0
 10
110.293750
 20
188.440625
 42
0.098894
  0
VERTEX
  8
0
 10
110.618646
 20
188.115568
 42
0.148195
  0
VERTEX
  8
0
 10
111.000000
 20
188.000000
 42
-0.079293
  0
VERTEX
  8
0
 10
111.363205
 20
187.942036
 42
-0.120985
  0
VERTEX
  8
0
 10
111.632813
 20
187.774014
 42
-0.142963
  0
VERTEX
  8
0
 10
111.766047
 20
187.523433
 42
-0.130453
  0
VERTEX
  8
0
 10
111.750000
 20
187.230687
 42
0.189332
  0
VERTEX
  8
0
 10
111.775941
 20
186.799104
 42
0.028677
  0
VERTEX
  8
0
 10
112.191863
 20
186.022337
 42
0.028762
  0
VERTEX
  8
0
 10
112.817306
 20
185.120669
 42
0.021290
  0
VERTEX
  8
0
 10
113.605277
 20
184.197467
 42
-0.030728
  0
VERTEX
  8
0
 10
114.546455
 20
183.051686
 42
-0.013670
  0
VERTEX
  8
0
 10
115.648704
 20
181.436712
 42
-0.013472
  0
VERTEX
  8
0
 10
116.725869
 20
179.658391
 42
-0.017737
  0
VERTEX
  8
0
 10
117.605277
 20
177.978253
 42
0.014301
  0
VERTEX
  8
0
 10
118.385692
 20
176.461982
 42
0.021030
  0
VERTEX
  8
0
 10
119.163738
 20
175.181447
 42
0.017203
  0
VERTEX
  8
0
 10
119.864741
 20
174.204574
 42
0.228523
  0
VERTEX
  8
0
 10
120.250000
 20
174.011473
 42
-0.178145
  0
VERTEX
  8
0
 10
120.536310
 20
173.901119
 42
-0.090203
  0
VERTEX
  8
0
 10
120.779687
 20
173.594173
 42
-0.070979
  0
VERTEX
  8
0
 10
120.944540
 20
173.140813
 42
-0.051806
  0
VERTEX
  8
0
 10
121.000000
 20
172.606989
 42
0.096313
  0
VERTEX
  8
0
 10
121.111903
 20
172.031441
 42
0.066860
  0
VERTEX
  8
0
 10
121.440625
 20
171.454091
 42
0.064359
  0
VERTEX
  8
0
 10
121.926569
 20
170.962529
 42
0.074185
  0
VERTEX
  8
0
 10
122.500000
 20
170.638374
 42
-0.075752
  0
VERTEX
  8
0
 10
123.073424
 20
170.311860
 42
-0.064704
  0
VERTEX
  8
0
 10
123.559375
 20
169.813437
 42
-0.066827
  0
VERTEX
  8
0
 10
123.888042
 20
169.225921
 42
-0.094426
  0
VERTEX
  8
0
 10
124.000000
 20
168.638374
 42
0.097951
  0
VERTEX
  8
0
 10
124.116575
 20
168.049013
 42
0.066865
  0
VERTEX
  8
0
 10
124.459243
 20
167.456166
 42
0.064045
  0
VERTEX
  8
0
 10
124.965713
 20
166.949836
 42
0.072863
  0
VERTEX
  8
0
 10
125.563382
 20
166.614052
 42
-0.073416
  0
VERTEX
  8
0
 10
126.111668
 20
166.305217
 42
-0.103026
  0
VERTEX
  8
0
 10
126.475056
 20
165.878939
 42
-0.124095
  0
VERTEX
  8
0
 10
126.597984
 20
165.404780
 42
-0.141002
  0
VERTEX
  8
0
 10
126.471565
 20
164.953991
 42
0.187495
  0
VERTEX
  8
0
 10
126.372108
 20
164.416253
 42
0.069032
  0
VERTEX
  8
0
 10
126.623302
 20
163.672343
 42
0.056218
  0
VERTEX
  8
0
 10
127.155826
 20
162.852059
 42
0.042080
  0
VERTEX
  8
0
 10
127.908183
 20
162.079633
 42
-0.018681
  0
VERTEX
  8
0
 10
128.709156
 20
161.330739
 42
-0.023891
  0
VERTEX
  8
0
 10
129.385529
 20
160.580785
 42
-0.022905
  0
VERTEX
  8
0
 10
129.879746
 20
159.917388
 42
-0.149724
  0
VERTEX
  8
0
 10
130.000000
 20
159.524804
 42
0.181245
  0
VERTEX
  8
0
 10
130.174243
 20
159.059913
 42
0.004977
  0
VERTEX
  8
0
 10
131.635371
 20
157.417822
 42
0.009662
  0
VERTEX
  8
0
 10
133.433757
 20
155.512097
 42
0.006406
  0
VERTEX
  8
0
 10
135.567221
 20
153.392099
 42
-0.005920
  0
VERTEX
  8
0
 10
137.653412
 20
151.323102
 42
-0.010907
  0
VERTEX
  8
0
 10
139.292835
 20
149.583929
 42
-0.006842
  0
VERTEX
  8
0
 10
140.518727
 20
148.187301
 42
-0.640087
  0
VERTEX
  8
0
 10
140.432362
 20
148.000000
 42
0.614706
  0
VERTEX
  8
0
 10
140.356673
 20
147.850429
 42
0.036040
  0
VERTEX
  8
0
 10
140.783946
 20
147.349189
 42
0.023444
  0
VERTEX
  8
0
 10
141.556223
 20
146.635538
 42
0.011044
  0
VERTEX
  8
0
 10
142.615141
 20
145.784474
 42
-0.003017
  0
VERTEX
  8
0
 10
143.756447
 20
144.896970
 42
-0.003825
  0
VERTEX
  8
0
 10
144.799448
 20
144.062757
 42
-0.003023
  0
VERTEX
  8
0
 10
145.663867
 20
143.351748
 42
-0.031094
  0
VERTEX
  8
0
 10
146.000000
 20
143.034474
 42
0.031809
  0
VERTEX
  8
0
 10
148.190363
 20
140.972914
 42
0.005177
  0
VERTEX
  8
0
 10
152.727256
 20
137.295357
 42
0.001386
  0
VERTEX
  8
0
 10
157.704623
 20
133.367879
 42
0.625579
  0
VERTEX
  8
0
 10
158.000000
 20
133.511571
 42
-0.553044
  0
VERTEX
  8
0
 10
158.176580
 20
133.622386
 42
-0.027263
  0
VERTEX
  8
0
 10
158.906122
 20
133.219634
 42
-0.023245
  0
VERTEX
  8
0
 10
159.900597
 20
132.531338
 42
-0.011902
  0
VERTEX
  8
0
 10
161.084672
 20
131.582207
 42
0.023749
  0
VERTEX
  8
0
 10
162.332911
 20
130.629310
 42
0.033744
  0
VERTEX
  8
0
 10
163.532099
 20
129.915254
 42
0.035790
  0
VERTEX
  8
0
 10
164.542252
 20
129.490481
 42
0.223641
  0
VERTEX
  8
0
 10
165.084672
 20
129.552330
 42
-0.092708
  0
VERTEX
  8
0
 10
165.433969
 20
129.687282
 42
-0.171172
  0
VERTEX
  8
0
 10
165.731122
 20
129.640772
 42
-0.174438
  0
VERTEX
  8
0
 10
165.929620
 20
129.419447
 42
-0.096719
  0
VERTEX
  8
0
 10
166.000000
 20
129.059017
 42
0.084999
  0
VERTEX
  8
0
 10
166.065996
 20
128.673607
 42
0.121231
  0
VERTEX
  8
0
 10
166.255586
 20
128.384524
 42
0.136441
  0
VERTEX
  8
0
 10
166.538763
 20
128.237875
 42
0.122209
  0
VERTEX
  8
0
 10
166.870080
 20
128.250000
 42
-0.209442
  0
VERTEX
  8
0
 10
168.021824
 20
128.095764
 42
-0.002954
  0
VERTEX
  8
0
 10
174.110588
 20
124.346374
 42
-0.008813
  0
VERTEX
  8
0
 10
179.924034
 20
120.575020
 42
-0.021494
  0
VERTEX
  8
0
 10
184.030520
 20
117.542451
 42
0.000000
  0
VERTEX
  8
0
 10
186.561040
 20
115.500000
 42
0.000000
  0
VERTEX
  8
0
 10
175.809391
 20
115.673109
 42
-0.009456
  0
VERTEX
  8
0
 10
171.269282
 20
115.832129
 42
-0.008208
  0
VERTEX
  8
0
 10
166.518496
 20
116.166852
 42
-0.008285
  0
VERTEX
  8
0
 10
162.226973
 20
116.611862
 42
-0.023891
  0
VERTEX
  8
0
 10
159.278871
 20
117.110849
 42
-0.000414
  0
VERTEX
  8
0
 10
154.669021
 20
118.123655
 42
-0.005815
  0
VERTEX
  8
0
 10
153.017587
 20
118.508108
 42
-0.013534
  0
VERTEX
  8
0
 10
152.134457
 20
118.750072
 42
-0.099073
  0
VERTEX
  8
0
 10
151.750000
 20
118.956120
 42
0.148173
  0
VERTEX
  8
0
 10
151.533409
 20
119.046492
 42
0.001693
  0
VERTEX
  8
0
 10
149.957813
 20
119.200910
 42
0.005015
  0
VERTEX
  8
0
 10
148.126135
 20
119.355646
 42
0.003229
  0
VERTEX
  8
0
 10
146.000000
 20
119.500000
 42
-0.003412
  0
VERTEX
  8
0
 10
143.856343
 20
119.646334
 42
-0.004969
  0
VERTEX
  8
0
 10
141.968750
 20
119.807013
 42
-0.002568
  0
VERTEX
  8
0
 10
140.374348
 20
119.966974
 42
-0.082966
  0
VERTEX
  8
0
 10
140.000000
 20
120.070852
 42
0.107779
  0
VERTEX
  8
0
 10
138.317811
 20
120.449678
 42
0.004339
  0
VERTEX
  8
0
 10
132.026782
 20
120.437694
 42
0.002044
  0
VERTEX
  8
0
 10
125.420701
 20
120.340758
 42
0.408729
  0
VERTEX
  8
0
 10
125.000000
 20
119.912089
 42
-0.217343
  0
VERTEX
  8
0
 10
124.864215
 20
119.614470
 42
-0.045885
  0
VERTEX
  8
0
 10
124.388690
 20
119.272807
 42
-0.040242
  0
VERTEX
  8
0
 10
123.715893
 20
118.947075
 42
-0.028674
  0
VERTEX
  8
0
 10
122.918944
 20
118.689054
 42
0.067536
  0
VERTEX
  8
0
 10
121.958195
 20
118.293410
 42
0.130995
  0
VERTEX
  8
0
 10
121.375639
 20
117.710132
 42
0.116722
  0
VERTEX
  8
0
 10
121.121390
 20
116.863933
 42
0.047483
  0
VERTEX
  8
0
 10
121.164230
 20
115.654517
 42
-0.084714
  0
VERTEX
  8
0
 10
121.113506
 20
114.345287
 42
-0.049041
  0
VERTEX
  8
0
 10
120.638095
 20
112.839155
 42
-0.041044
  0
VERTEX
  8
0
 10
119.762179
 20
111.180229
 42
-0.026319
  0
VERTEX
  8
0
 10
118.495286
 20
109.407386
 42
0.006716
  0
VERTEX
  8
0
 10
117.346557
 20
107.926221
 42
0.009724
  0
VERTEX
  8
0
 10
116.375367
 20
106.585152
 42
0.005846
  0
VERTEX
  8
0
 10
115.599948
 20
105.441048
 42
0.140242
  0
VERTEX
  8
0
 10
115.484687
 20
105.075291
 42
-0.077539
  0
VERTEX
  8
0
 10
115.429726
 20
104.775604
 42
-0.019521
  0
VERTEX
  8
0
 10
115.247344
 20
104.312519
 42
-0.019453
  0
VERTEX
  8
0
 10
114.994521
 20
103.793283
 42
-0.018520
  0
VERTEX
  8
0
 10
114.698213
 20
103.286475
 42
0.145262
  0
VERTEX
  8
0
 10
114.522991
 20
102.671545
 42
0.076472
  0
VERTEX
  8
0
 10
114.653473
 20
101.880928
 42
0.063208
  0
VERTEX
  8
0
 10
115.063294
 20
101.015938
 42
0.047196
  0
VERTEX
  8
0
 10
115.713525
 20
100.183342
 42
-0.007707
  0
VERTEX
  8
0
 10
116.627596
 20
99.186155
 42
-0.002337
  0
VERTEX
  8
0
 10
117.983223
 20
97.646277
 42
-0.002340
  0
VERTEX
  8
0
 10
119.486695
 20
95.905901
 42
-0.002548
  0
VERTEX
  8
0
 10
120.931488
 20
94.200016
 42
0.015319
  0
VERTEX
  8
0
 10
122.300876
 20
92.664459
 42
0.024215
  0
VERTEX
  8
0
 10
123.575117
 20
91.444882
 42
0.020969
  0
VERTEX
  8
0
 10
124.650527
 20
90.587395
 42
0.305169
  0
VERTEX
  8
0
 10
125.112390
 20
90.569461
 42
-0.135474
  0
VERTEX
  8
0
 10
125.446922
 20
90.667204
 42
-0.100361
  0
VERTEX
  8
0
 10
125.827454
 20
90.595953
 42
-0.086797
  0
VERTEX
  8
0
 10
126.196320
 20
90.365562
 42
-0.071561
  0
VERTEX
  8
0
 10
126.494284
 20
90.009249
 42
-0.135340
  0
VERTEX
  8
0
 10
126.621047
 20
89.575816
 42
-0.124175
  0
VERTEX
  8
0
 10
126.514191
 20
89.122719
 42
-0.105399
  0
VERTEX
  8
0
 10
126.181373
 20
88.718405
 42
-0.076563
  0
VERTEX
  8
0
 10
125.673890
 20
88.428354
 42
0.255986
  0
VERTEX
  8
0
 10
124.761575
 20
87.352179
 42
0.131813
  0
VERTEX
  8
0
 10
124.870923
 20
85.536268
 42
0.081543
  0
VERTEX
  8
0
 10
126.072064
 20
83.256907
 42
0.048755
  0
VERTEX
  8
0
 10
128.154212
 20
81.000000
 42
0.003608
  0
VERTEX
  8
0
 10
131.504056
 20
78.056009
 42
0.026904
  0
VERTEX
  8
0
 10
133.177120
 20
76.757558
 42
0.056054
  0
VERTEX
  8
0
 10
134.423411
 20
76.086054
 42
0.057757
  0
VERTEX
  8
0
 10
135.775290
 20
75.716522
 42
-0.087632
  0
VERTEX
  8
0
 10
136.777711
 20
75.377352
 42
-0.015650
  0
VERTEX
  8
0
 10
138.487412
 20
74.370146
 42
-0.016484
  0
VERTEX
  8
0
 10
140.436952
 20
73.045992
 42
-0.014218
  0
VERTEX
  8
0
 10
142.395950
 20
71.531749
 42
0.019588
  0
VERTEX
  8
0
 10
145.359338
 20
69.291556
 42
0.066271
  0
VERTEX
  8
0
 10
147.511074
 20
68.182849
 42
0.060184
  0
VERTEX
  8
0
 10
149.984799
 20
67.621335
 42
0.014234
  0
VERTEX
  8
0
 10
154.213933
 20
67.305595
 42
0.013929
  0
VERTEX
  8
0
 10
157.005513
 20
67.254789
 42
0.018209
  0
VERTEX
  8
0
 10
159.555488
 20
67.372358
 42
0.015944
  0
VERTEX
  8
0
 10
161.640437
 20
67.611864
 42
0.137473
  0
VERTEX
  8
0
 10
162.487488
 20
67.989616
 42
-0.123194
  0
VERTEX
  8
0
 10
163.245918
 20
68.353710
 42
-0.026107
  0
VERTEX
  8
0
 10
164.707077
 20
68.574864
 42
-0.025844
  0
VERTEX
  8
0
 10
166.473243
 20
68.656761
 42
-0.022035
  0
VERTEX
  8
0
 10
168.335814
 20
68.564668
 42
0.021064
  0
VERTEX
  8
0
 10
170.331691
 20
68.462101
 42
0.016517
  0
VERTEX
  8
0
 10
172.498934
 20
68.513709
 42
0.016811
  0
VERTEX
  8
0
 10
174.514480
 20
68.696530
 42
0.038825
  0
VERTEX
  8
0
 10
176.003313
 20
69.000950
 42
-0.017333
  0
VERTEX
  8
0
 10
177.138186
 20
69.284257
 42
-0.039455
  0
VERTEX
  8
0
 10
178.013435
 20
69.399669
 42
-0.084259
  0
VERTEX
  8
0
 10
178.504647
 20
69.342489
 42
-0.495562
  0
VERTEX
  8
0
 10
178.583978
 20
69.135879
 42
0.371964
  0
VERTEX
  8
0
 10
178.744563
 20
68.132119
 42
0.090521
  0
VERTEX
  8
0
 10
180.323175
 20
67.229533
 42
0.054948
  0
VERTEX
  8
0
 10
182.998946
 20
66.605671
 42
0.033295
  0
VERTEX
  8
0
 10
186.249708
 20
66.434172
 42
-0.011519
  0
VERTEX
  8
0
 10
188.070781
 20
66.417457
 42
-0.019055
  0
VERTEX
  8
0
 10
189.604275
 20
66.309442
 42
-0.013679
  0
VERTEX
  8
0
 10
190.805945
 20
66.145267
 42
-0.367058
  0
VERTEX
  8
0
 10
190.999708
 20
65.917119
 42
0.387000
  0
VERTEX
  8
0
 10
191.387736
 20
65.491304
 42
0.044401
  0
VERTEX
  8
0
 10
192.801752
 20
65.484866
 42
0.043800
  0
VERTEX
  8
0
 10
194.428303
 20
65.766981
 42
0.073707
  0
VERTEX
  8
0
 10
195.698483
 20
66.313652
 42
-0.090367
  0
VERTEX
  8
0
 10
196.192629
 20
66.507209
 42
-0.095478
  0
VERTEX
  8
0
 10
196.713402
 20
66.508620
 42
-0.099695
  0
VERTEX
  8
0
 10
197.179681
 20
66.318913
 42
-0.108444
  0
VERTEX
  8
0
 10
197.519929
 20
65.967754
 42
0.122476
  0
VERTEX
  8
0
 10
197.912924
 20
65.584013
 42
0.159861
  0
VERTEX
  8
0
 10
198.401054
 20
65.478590
 42
0.107779
  0
VERTEX
  8
0
 10
199.006559
 20
65.678618
 42
0.039054
  0
VERTEX
  8
0
 10
199.751649
 20
66.201442
 42
-0.027135
  0
VERTEX
  8
0
 10
200.546020
 20
66.787561
 42
-0.132887
  0
VERTEX
  8
0
 10
201.071419
 20
66.960036
 42
-0.232768
  0
VERTEX
  8
0
 10
201.446910
 20
66.799318
 42
-0.096341
  0
VERTEX
  8
0
 10
201.727229
 20
66.306177
 42
0.102304
  0
VERTEX
  8
0
 10
201.972671
 20
65.886020
 42
0.102810
  0
VERTEX
  8
0
 10
202.364236
 20
65.598538
 42
0.101639
  0
VERTEX
  8
0
 10
202.841838
 20
65.488814
 42
0.097721
  0
VERTEX
  8
0
 10
203.331272
 20
65.573626
 42
-0.148691
  0
VERTEX
  8
0
 10
203.889914
 20
65.613462
 42
-0.069766
  0
VERTEX
  8
0
 10
204.573707
 20
65.353472
 42
-0.059882
  0
VERTEX
  8
0
 10
205.271284
 20
64.853074
 42
-0.051141
  0
VERTEX
  8
0
 10
205.872844
 20
64.176419
 42
0.119628
  0
VERTEX
  8
0
 10
207.025514
 20
63.189369
 42
0.094168
  0
VERTEX
  8
0
 10
208.609226
 20
62.730115
 42
0.066530
  0
VERTEX
  8
0
 10
210.725118
 20
62.811409
 42
0.028119
  0
VERTEX
  8
0
 10
213.500000
 20
63.453784
 42
-0.016350
  0
VERTEX
  8
0
 10
213.947578
 20
63.568554
 42
-0.010877
  0
VERTEX
  8
0
 10
214.467158
 20
63.672022
 42
-0.010955
  0
VERTEX
  8
0
 10
214.976313
 20
63.750486
 42
-0.020965
  0
VERTEX
  8
0
 10
215.388197
 20
63.787271
 42
0.107578
  0
VERTEX
  8
0
 10
215.784661
 20
63.893368
 42
0.047091
  0
VERTEX
  8
0
 10
216.245153
 20
64.188479
 42
0.043664
  0
VERTEX
  8
0
 10
216.693386
 20
64.607148
 42
0.044690
  0
VERTEX
  8
0
 10
217.058241
 20
65.094236
 42
-0.153420
  0
VERTEX
  8
0
 10
218.137402
 20
66.026990
 42
-0.077745
  0
VERTEX
  8
0
 10
219.893455
 20
66.481209
 42
-0.095162
  0
VERTEX
  8
0
 10
221.446440
 20
66.338215
 42
-0.325812
  0
VERTEX
  8
0
 10
222.031803
 20
65.582881
 42
0.301683
  0
VERTEX
  8
0
 10
222.185331
 20
65.365705
 42
0.226019
  0
VERTEX
  8
0
 10
222.485547
 20
65.388303
 42
0.074920
  0
VERTEX
  8
0
 10
222.964238
 20
65.766974
 42
0.026109
  0
VERTEX
  8
0
 10
223.531803
 20
66.441130
 42
-0.020448
  0
VERTEX
  8
0
 10
224.096888
 20
67.127968
 42
-0.054213
  0
VERTEX
  8
0
 10
224.568717
 20
67.552889
 42
-0.162508
  0
VERTEX
  8
0
 10
224.859204
 20
67.643580
 42
-0.408490
  0
VERTEX
  8
0
 10
225.000000
 20
67.500000
 42
0.408490
  0
VERTEX
  8
0
 10
225.140796
 20
67.356420
 42
0.162508
  0
VERTEX
  8
0
 10
225.431283
 20
67.447111
 42
0.054213
  0
VERTEX
  8
0
 10
225.903112
 20
67.872032
 42
0.020448
  0
VERTEX
  8
0
 10
226.468197
 20
68.558870
 42
-0.020079
  0
VERTEX
  8
0
 10
227.035162
 20
69.249029
 42
-0.050466
  0
VERTEX
  8
0
 10
227.514453
 20
69.688499
 42
-0.136434
  0
VERTEX
  8
0
 10
227.820511
 20
69.807222
 42
-0.431943
  0
VERTEX
  8
0
 10
227.968197
 20
69.678571
 42
0.363326
  0
VERTEX
  8
0
 10
228.120759
 20
69.510035
 42
0.144920
  0
VERTEX
  8
0
 10
228.452265
 20
69.560045
 42
0.061329
  0
VERTEX
  8
0
 10
228.965183
 20
69.881666
 42
0.025712
  0
VERTEX
  8
0
 10
229.571429
 20
70.428571
 42
-0.071818
  0
VERTEX
  8
0
 10
230.377185
 20
71.031010
 42
-0.038792
  0
VERTEX
  8
0
 10
231.510090
 20
71.538393
 42
-0.037678
  0
VERTEX
  8
0
 10
232.768828
 20
71.884331
 42
-0.048259
  0
VERTEX
  8
0
 10
233.964440
 20
72.000000
 42
0.047777
  0
VERTEX
  8
0
 10
235.126090
 20
72.111254
 42
0.059479
  0
VERTEX
  8
0
 10
236.158377
 20
72.441675
 42
0.069168
  0
VERTEX
  8
0
 10
236.946959
 20
72.943486
 42
0.125542
  0
VERTEX
  8
0
 10
237.385948
 20
73.563382
 42
-0.062970
  0
VERTEX
  8
0
 10
237.683871
 20
74.119007
 42
-0.093843
  0
VERTEX
  8
0
 10
238.080382
 20
74.500197
 42
-0.121658
  0
VERTEX
  8
0
 10
238.509361
 20
74.650225
 42
-0.163403
  0
VERTEX
  8
0
 10
238.907527
 20
74.557151
 42
0.101961
  0
VERTEX
  8
0
 10
239.285382
 20
74.419071
 42
0.124243
  0
VERTEX
  8
0
 10
239.659020
 20
74.456591
 42
0.124303
  0
VERTEX
  8
0
 10
239.969975
 20
74.666889
 42
0.102120
  0
VERTEX
  8
0
 10
240.171567
 20
75.014700
 42
-0.342225
  0
VERTEX
  8
0
 10
240.630786
 20
75.321895
 42
-0.032374
  0
VERTEX
  8
0
 10
242.062794
 20
75.127963
 42
-0.028543
  0
VERTEX
  8
0
 10
244.031533
 20
74.611809
 42
-0.013499
  0
VERTEX
  8
0
 10
246.506977
 20
73.734844
 42
0.009006
  0
VERTEX
  8
0
 10
248.911572
 20
72.858583
 42
0.011172
  0
VERTEX
  8
0
 10
251.180174
 20
72.134135
 42
0.009592
  0
VERTEX
  8
0
 10
253.098546
 20
71.608217
 42
0.078475
  0
VERTEX
  8
0
 10
254.000000
 20
71.525265
 42
-0.055432
  0
VERTEX
  8
0
 10
254.665541
 20
71.494708
 42
-0.034667
  0
VERTEX
  8
0
 10
255.426562
 20
71.319779
 42
-0.034524
  0
VERTEX
  8
0
 10
256.161804
 20
71.039448
 42
-0.052127
  0
VERTEX
  8
0
 10
256.750000
 20
70.688908
 42
0.036876
  0
VERTEX
  8
0
 10
257.230107
 20
70.382606
 42
0.086256
  0
VERTEX
  8
0
 10
257.632812
 20
70.248225
 42
0.178967
  0
VERTEX
  8
0
 10
257.889936
 20
70.301470
 42
0.258652
  0
VERTEX
  8
0
 10
258.000000
 20
70.500000
 42
-0.267098
  0
VERTEX
  8
0
 10
258.111003
 20
70.692971
 42
-0.181270
  0
VERTEX
  8
0
 10
258.367188
 20
70.736453
 42
-0.084244
  0
VERTEX
  8
0
 10
258.769762
 20
70.585563
 42
-0.035304
  0
VERTEX
  8
0
 10
259.250000
 20
70.258932
 42
0.075257
  0
VERTEX
  8
0
 10
259.889858
 20
69.894591
 42
0.036395
  0
VERTEX
  8
0
 10
260.793750
 20
69.620290
 42
0.035046
  0
VERTEX
  8
0
 10
261.796798
 20
69.466835
 42
0.042229
  0
VERTEX
  8
0
 10
262.750000
 20
69.469368
 42
-0.042350
  0
VERTEX
  8
0
 10
263.611584
 20
69.471449
 42
-0.065248
  0
VERTEX
  8
0
 10
264.339063
 20
69.314454
 42
-0.089415
  0
VERTEX
  8
0
 10
264.829299
 20
69.032972
 42
-0.221317
  0
VERTEX
  8
0
 10
265.000000
 20
68.666214
 42
0.070085
  0
VERTEX
  8
0
 10
265.047297
 20
68.330447
 42
0.203689
  0
VERTEX
  8
0
 10
265.191940
 20
68.152224
 42
0.233732
  0
VERTEX
  8
0
 10
265.403895
 20
68.146302
 42
0.088760
  0
VERTEX
  8
0
 10
265.653412
 20
68.320079
 42
-0.253521
  0
VERTEX
  8
0
 10
266.102717
 20
68.453579
 42
-0.033069
  0
VERTEX
  8
0
 10
267.097945
 20
68.173987
 42
-0.031956
  0
VERTEX
  8
0
 10
268.323784
 20
67.650097
 42
-0.021455
  0
VERTEX
  8
0
 10
269.653412
 20
66.905186
 42
0.014347
  0
VERTEX
  8
0
 10
270.937699
 20
66.161503
 42
0.027279
  0
VERTEX
  8
0
 10
272.016940
 20
65.651247
 42
0.032547
  0
VERTEX
  8
0
 10
272.803018
 20
65.388977
 42
0.491642
  0
VERTEX
  8
0
 10
273.000000
 20
65.540885
 42
-0.372864
  0
VERTEX
  8
0
 10
273.133926
 20
65.695508
 42
-0.126160
  0
VERTEX
  8
0
 10
273.454591
 20
65.660811
 42
-0.058000
  0
VERTEX
  8
0
 10
273.952962
 20
65.404735
 42
-0.025557
  0
VERTEX
  8
0
 10
274.547543
 20
64.960543
 42
0.136363
  0
VERTEX
  8
0
 10
276.662318
 20
64.011903
 42
0.023451
  0
VERTEX
  8
0
 10
281.077813
 20
63.552269
 42
0.026228
  0
VERTEX
  8
0
 10
285.644801
 20
63.532243
 42
0.074053
  0
VERTEX
  8
0
 10
288.766185
 20
64.151648
 42
-0.023503
  0
VERTEX
  8
0
 10
290.057512
 20
64.546484
 42
-0.246385
  0
VERTEX
  8
0
 10
290.578507
 20
64.422620
 42
-0.240405
  0
VERTEX
  8
0
 10
290.780526
 20
63.920305
 42
-0.022481
  0
VERTEX
  8
0
 10
290.596236
 20
62.557673
 42
0.048721
  0
VERTEX
  8
0
 10
290.509953
 20
61.508060
 42
0.080971
  0
VERTEX
  8
0
 10
290.665834
 20
60.636261
 42
0.100033
  0
VERTEX
  8
0
 10
291.053109
 20
59.987141
 42
0.117298
  0
VERTEX
  8
0
 10
291.643433
 20
59.583333
 42
-0.067986
  0
VERTEX
  8
0
 10
292.167260
 20
59.295688
 42
-0.098509
  0
VERTEX
  8
0
 10
292.520751
 20
58.905803
 42
-0.123302
  0
VERTEX
  8
0
 10
292.650597
 20
58.478073
 42
-0.151887
  0
VERTEX
  8
0
 10
292.547070
 20
58.076161
 42
0.109301
  0
VERTEX
  8
0
 10
292.405083
 20
57.669392
 42
0.099810
  0
VERTEX
  8
0
 10
292.440995
 20
57.226253
 42
0.095232
  0
VERTEX
  8
0
 10
292.649794
 20
56.814912
 42
0.089643
  0
VERTEX
  8
0
 10
293.000000
 20
56.500000
 42
-0.078510
  0
VERTEX
  8
0
 10
293.355947
 20
56.193884
 42
-0.090585
  0
VERTEX
  8
0
 10
293.579311
 20
55.806602
 42
-0.100780
  0
VERTEX
  8
0
 10
293.637286
 20
55.399879
 42
-0.124203
  0
VERTEX
  8
0
 10
293.522055
 20
55.035686
 42
0.189528
  0
VERTEX
  8
0
 10
293.456267
 20
54.672005
 42
0.115475
  0
VERTEX
  8
0
 10
293.638934
 20
54.269020
 42
0.083832
  0
VERTEX
  8
0
 10
294.052387
 20
53.885384
 42
0.053633
  0
VERTEX
  8
0
 10
294.636907
 20
53.585838
 42
-0.063638
  0
VERTEX
  8
0
 10
295.412540
 20
53.168619
 42
-0.308758
  0
VERTEX
  8
0
 10
295.575578
 20
52.723682
 42
-0.139649
  0
VERTEX
  8
0
 10
295.229584
 20
52.126628
 42
-0.013409
  0
VERTEX
  8
0
 10
293.978154
 20
50.981053
 42
-0.024807
  0
VERTEX
  8
0
 10
293.010887
 20
50.222815
 42
-0.026502
  0
VERTEX
  8
0
 10
291.993757
 20
49.581934
 42
-0.027342
  0
VERTEX
  8
0
 10
291.067105
 20
49.129055
 42
-0.100314
  0
VERTEX
  8
0
 10
290.430324
 20
49.000000
 42
0.076243
  0
VERTEX
  8
0
 10
289.921294
 20
48.921926
 42
0.067591
  0
VERTEX
  8
0
 10
289.435778
 20
48.693735
 42
0.070366
  0
VERTEX
  8
0
 10
289.046573
 20
48.355917
 42
0.098747
  0
VERTEX
  8
0
 10
288.819132
 20
47.957396
 42
-0.222802
  0
VERTEX
  8
0
 10
288.409748
 20
47.526837
 42
-0.025682
  0
VERTEX
  8
0
 10
287.109107
 20
47.094651
 42
-0.027011
  0
VERTEX
  8
0
 10
285.421006
 20
46.725221
 42
-0.018838
  0
VERTEX
  8
0
 10
283.485799
 20
46.484475
 42
0.006705
  0
VERTEX
  8
0
 10
274.077536
 20
45.545196
 42
0.038184
  0
VERTEX
  8
0
 10
269.143359
 20
44.600103
 42
0.071585
  0
VERTEX
  8
0
 10
265.942872
 20
43.214755
 42
0.072666
  0
VERTEX
  8
0
 10
263.281255
 20
40.988749
 42
0.037231
  0
VERTEX
  8
0
 10
261.322547
 20
38.437624
 42
0.158848
  0
VERTEX
  8
0
 10
260.825541
 20
36.608358
 42
0.237427
  0
VERTEX
  8
0
 10
261.576518
 20
35.284475
 42
0.085879
  0
VERTEX
  8
0
 10
263.610301
 20
34.382960
 42
-0.035201
  0
VERTEX
  8
0
 10
264.525135
 20
34.083568
 42
-0.047251
  0
VERTEX
  8
0
 10
265.298026
 20
33.680127
 42
-0.055969
  0
VERTEX
  8
0
 10
265.834673
 20
33.239609
 42
-0.195338
  0
VERTEX
  8
0
 10
266.000000
 20
32.832575
 42
0.093000
  0
VERTEX
  8
0
 10
266.060988
 20
32.507520
 42
0.171423
  0
VERTEX
  8
0
 10
266.234338
 20
32.306036
 42
0.174201
  0
VERTEX
  8
0
 10
266.493460
 20
32.259999
 42
0.096413
  0
VERTEX
  8
0
 10
266.797746
 20
32.375000
 42
-0.110914
  0
VERTEX
  8
0
 10
267.189692
 20
32.510412
 42
-0.057944
  0
VERTEX
  8
0
 10
267.708849
 20
32.508318
 42
-0.053404
  0
VERTEX
  8
0
 10
268.267161
 20
32.379653
 42
-0.055148
  0
VERTEX
  8
0
 10
268.779135
 20
32.136502
 42
-0.246902
  0
VERTEX
  8
0
 10
269.100997
 20
31.591056
 42
-0.120608
  0
VERTEX
  8
0
 10
268.943243
 20
30.775530
 42
-0.059566
  0
VERTEX
  8
0
 10
268.237430
 20
29.624643
 42
-0.017759
  0
VERTEX
  8
0
 10
266.900267
 20
28.051949
 42
0.000000
  0
VERTEX
  8
0
 10
263.837755
 20
24.698928
 42
0.000000
  0
VERTEX
  8
0
 10
267.103762
 20
21.911441
 42
0.026729
  0
VERTEX
  8
0
 10
268.865468
 20
20.563634
 42
0.064092
  0
VERTEX
  8
0
 10
270.327646
 20
19.817925
 42
0.076155
  0
VERTEX
  8
0
 10
271.768728
 20
19.538401
 42
0.052128
  0
VERTEX
  8
0
 10
273.434884
 20
19.646169
 42
-0.010462
  0
VERTEX
  8
0
 10
274.838379
 20
19.855172
 42
-0.096844
  0
VERTEX
  8
0
 10
275.448121
 20
19.814761
 42
-0.528034
  0
VERTEX
  8
0
 10
275.526632
 20
19.592733
 42
-0.081288
  0
VERTEX
  8
0
 10
275.124969
 20
19.197902
 42
0.138845
  0
VERTEX
  8
0
 10
273.887303
 20
17.668233
 42
0.100203
  0
VERTEX
  8
0
 10
273.439026
 20
15.507951
 42
0.112164
  0
VERTEX
  8
0
 10
273.877902
 20
13.531709
 42
0.208323
  0
VERTEX
  8
0
 10
275.092240
 20
12.470724
 42
-0.034455
  0
VERTEX
  8
0
 10
275.822535
 20
12.182236
 42
-0.045086
  0
VERTEX
  8
0
 10
276.439595
 20
11.816360
 42
-0.052299
  0
VERTEX
  8
0
 10
276.869404
 20
11.431854
 42
-0.186227
  0
VERTEX
  8
0
 10
277.000000
 20
11.093377
 42
0.392064
  0
VERTEX
  8
0
 10
277.496423
 20
10.557602
 42
0.029125
  0
VERTEX
  8
0
 10
279.672603
 20
10.518475
 42
0.032706
  0
VERTEX
  8
0
 10
282.277981
 20
10.794748
 42
0.035613
  0
VERTEX
  8
0
 10
284.750000
 20
11.405534
 42
-0.032796
  0
VERTEX
  8
0
 10
285.620531
 20
11.625829
 42
-0.054944
  0
VERTEX
  8
0
 10
286.372556
 20
11.680453
 42
-0.078096
  0
VERTEX
  8
0
 10
286.904471
 20
11.576420
 42
-0.277613
  0
VERTEX
  8
0
 10
287.114020
 20
11.317388
 42
-0.003635
  0
VERTEX
  8
0
 10
287.177223
 20
10.838903
 42
-0.000589
  0
VERTEX
  8
0
 10
287.292204
 20
9.907903
 42
-0.000650
  0
VERTEX
  8
0
 10
287.424849
 20
8.811545
 42
-0.000572
  0
VERTEX
  8
0
 10
287.560490
 20
7.666963
 42
0.047254
  0
VERTEX
  8
0
 10
288.157034
 20
4.885219
 42
0.146940
  0
VERTEX
  8
0
 10
289.224314
 20
3.316713
 42
0.171714
  0
VERTEX
  8
0
 10
290.861711
 20
2.734901
 42
0.070266
  0
VERTEX
  8
0
 10
293.231799
 20
3.066479
 42
0.027636
  0
VERTEX
  8
0
 10
294.488090
 20
3.503198
 42
0.028378
  0
VERTEX
  8
0
 10
295.677122
 20
4.072525
 42
0.029578
  0
VERTEX
  8
0
 10
296.645511
 20
4.682950
 42
0.096210
  0
VERTEX
  8
0
 10
297.164378
 20
5.231729
 42
-0.029308
  0
VERTEX
  8
0
 10
297.476265
 20
5.664782
 42
-0.110056
  0
VERTEX
  8
0
 10
297.737405
 20
5.871165
 42
-0.338051
  0
VERTEX
  8
0
 10
297.904203
 20
5.836935
 42
-0.176515
  0
VERTEX
  8
0
 10
297.984687
 20
5.627555
 42
0.320719
  0
VERTEX
  8
0
 10
298.139176
 20
5.419305
 42
0.150298
  0
VERTEX
  8
0
 10
298.492515
 20
5.414547
 42
0.069177
  0
VERTEX
  8
0
 10
299.040878
 20
5.661428
 42
0.030094
  0
VERTEX
  8
0
 10
299.691958
 20
6.127555
 42
-0.017198
  0
VERTEX
  8
0
 10
300.309587
 20
6.594274
 42
-0.094704
  0
VERTEX
  8
0
 10
300.688227
 20
6.765128
 42
-0.512058
  0
VERTEX
  8
0
 10
300.803245
 20
6.665974
 42
-0.113604
  0
VERTEX
  8
0
 10
300.707570
 20
6.370752
 42
0.203609
  0
VERTEX
  8
0
 10
300.622845
 20
5.760296
 42
0.052738
  0
VERTEX
  8
0
 10
300.988929
 20
4.814192
 42
0.044896
  0
VERTEX
  8
0
 10
301.675402
 20
3.729654
 42
0.032852
  0
VERTEX
  8
0
 10
302.615149
 20
2.657578
 42
0.000000
  0
VERTEX
  8
0
 10
305.199075
 20
0.073653
 42
0.000000
  0
VERTEX
  8
0
 10
312.349537
 20
5.707455
 42
-0.000140
  0
VERTEX
  8
0
 10
315.114119
 20
7.884400
 42
-0.000218
  0
VERTEX
  8
0
 10
317.496461
 20
9.757594
 42
-0.000057
  0
VERTEX
  8
0
 10
319.577894
 20
11.392338
 42
-0.007893
  0
VERTEX
  8
0
 10
319.829903
 20
11.583865
 42
0.336733
  0
VERTEX
  8
0
 10
319.892199
 20
11.794856
 42
0.013255
  0
VERTEX
  8
0
 10
319.566869
 20
12.588506
 42
0.018769
  0
VERTEX
  8
0
 10
319.094750
 20
13.558259
 42
0.011581
  0
VERTEX
  8
0
 10
318.471200
 20
14.663236
 42
-0.000559
  0
VERTEX
  8
0
 10
317.260358
 20
16.702568
 42
-0.213251
  0
VERTEX
  8
0
 10
317.241229
 20
16.868940
 42
-0.578591
  0
VERTEX
  8
0
 10
317.329906
 20
16.888398
 42
-0.000867
  0
VERTEX
  8
0
 10
318.697117
 20
15.379018
 42
0.038060
  0
VERTEX
  8
0
 10
319.608413
 20
14.512127
 42
0.025588
  0
VERTEX
  8
0
 10
320.767227
 20
13.661555
 42
0.025814
  0
VERTEX
  8
0
 10
321.981012
 20
12.949722
 42
0.045548
  0
VERTEX
  8
0
 10
323.055820
 20
12.510737
 42
-0.022415
  0
VERTEX
  8
0
 10
324.101412
 20
12.139057
 42
-0.016576
  0
VERTEX
  8
0
 10
325.222647
 20
11.638995
 42
-0.016825
  0
VERTEX
  8
0
 10
326.252102
 20
11.094765
 42
-0.035729
  0
VERTEX
  8
0
 10
327.000000
 20
10.592503
 42
0.060853
  0
VERTEX
  8
0
 10
327.784984
 20
10.120617
 42
0.025289
  0
VERTEX
  8
0
 10
328.940625
 20
9.673536
 42
0.024566
  0
VERTEX
  8
0
 10
330.241396
 20
9.314311
 42
0.029086
  0
VERTEX
  8
0
 10
331.500000
 20
9.108396
 42
-0.023751
  0
VERTEX
  8
0
 10
332.686682
 20
8.927218
 42
-0.029080
  0
VERTEX
  8
0
 10
333.771603
 20
8.641922
 42
-0.029828
  0
VERTEX
  8
0
 10
334.632520
 20
8.303117
 42
-0.145763
  0
VERTEX
  8
0
 10
335.020352
 20
7.960173
 42
0.209666
  0
VERTEX
  8
0
 10
337.444710
 20
6.300894
 42
0.035886
  0
VERTEX
  8
0
 10
343.122761
 20
5.644403
 42
0.035432
  0
VERTEX
  8
0
 10
348.811524
 20
5.800697
 42
0.230633
  0
VERTEX
  8
0
 10
351.181163
 20
7.258887
 42
-0.036428
  0
VERTEX
  8
0
 10
351.488607
 20
7.672990
 42
-0.145597
  0
VERTEX
  8
0
 10
351.751678
 20
7.841673
 42
-0.335639
  0
VERTEX
  8
0
 10
351.931640
 20
7.772567
 42
-0.128049
  0
VERTEX
  8
0
 10
352.016491
 20
7.500000
 42
0.241090
  0
VERTEX
  8
0
 10
352.148180
 20
7.270123
 42
0.251403
  0
VERTEX
  8
0
 10
352.407612
 20
7.248066
 42
0.092816
  0
VERTEX
  8
0
 10
352.809494
 20
7.518829
 42
0.031421
  0
VERTEX
  8
0
 10
353.281803
 20
8.046607
 42
-0.060887
  0
VERTEX
  8
0
 10
353.972081
 20
8.732214
 42
-0.022307
  0
VERTEX
  8
0
 10
355.096842
 20
9.528033
 42
-0.021725
  0
VERTEX
  8
0
 10
356.416406
 20
10.297153
 42
-0.024313
  0
VERTEX
  8
0
 10
357.750000
 20
10.917928
 42
0.021670
  0
VERTEX
  8
0
 10
358.994816
 20
11.489396
 42
0.030528
  0
VERTEX
  8
0
 10
360.045313
 20
12.111618
 42
0.030933
  0
VERTEX
  8
0
 10
360.809970
 20
12.702178
 42
0.216102
  0
VERTEX
  8
0
 10
361.000000
 20
13.121320
 42
-0.089621
  0
VERTEX
  8
0
 10
361.057159
 20
13.437652
 42
-0.129629
  0
VERTEX
  8
0
 10
361.220313
 20
13.668450
 42
-0.141230
  0
VERTEX
  8
0
 10
361.464322
 20
13.776548
 42
-0.115046
  0
VERTEX
  8
0
 10
361.750000
 20
13.750000
 42
0.201804
  0
VERTEX
  8
0
 10
362.171526
 20
13.782314
 42
0.028316
  0
VERTEX
  8
0
 10
362.940625
 20
14.234375
 42
0.028635
  0
VERTEX
  8
0
 10
363.833521
 20
14.906501
 42
0.020724
  0
VERTEX
  8
0
 10
364.750000
 20
15.750000
 42
0.013017
  0
VERTEX
  8
0
 10
365.570183
 20
16.614039
 42
0.026782
  0
VERTEX
  8
0
 10
366.156219
 20
17.339063
 42
0.039088
  0
VERTEX
  8
0
 10
366.468872
 20
17.851199
 42
0.559606
  0
VERTEX
  8
0
 10
366.377555
 20
18.000000
 42
-0.403901
  0
VERTEX
  8
0
 10
366.246758
 20
18.126255
 42
-0.107581
  0
VERTEX
  8
0
 10
366.303640
 20
18.440625
 42
-0.051628
  0
VERTEX
  8
0
 10
366.565383
 20
18.923751
 42
-0.023269
  0
VERTEX
  8
0
 10
367.000000
 20
19.500000
 42
0.019298
  0
VERTEX
  8
0
 10
367.441727
 20
20.076106
 42
0.041040
  0
VERTEX
  8
0
 10
367.727163
 20
20.559375
 42
0.075443
  0
VERTEX
  8
0
 10
367.827672
 20
20.883293
 42
0.458944
  0
VERTEX
  8
0
 10
367.727305
 20
21.000000
 42
-0.471048
  0
VERTEX
  8
0
 10
367.576995
 20
21.181987
 42
-0.007134
  0
VERTEX
  8
0
 10
367.893040
 20
22.706999
 42
-0.013156
  0
VERTEX
  8
0
 10
368.361782
 20
24.582378
 42
-0.007624
  0
VERTEX
  8
0
 10
369.018327
 20
26.811062
 42
0.016689
  0
VERTEX
  8
0
 10
369.694460
 20
29.269807
 42
0.015090
  0
VERTEX
  8
0
 10
370.230802
 20
31.851875
 42
0.015310
  0
VERTEX
  8
0
 10
370.570342
 20
34.193303
 42
0.045660
  0
VERTEX
  8
0
 10
370.606157
 20
35.811062
 42
-0.025588
  0
VERTEX
  8
0
 10
370.584208
 20
37.033250
 42
-0.041656
  0
VERTEX
  8
0
 10
370.704718
 20
38.063249
 42
-0.051811
  0
VERTEX
  8
0
 10
370.932015
 20
38.789632
 42
-0.299503
  0
VERTEX
  8
0
 10
371.251708
 20
39.000000
 42
0.143646
  0
VERTEX
  8
0
 10
371.530018
 20
39.081641
 42
0.191476
  0
VERTEX
  8
0
 10
371.682003
 20
39.293750
 42
0.135841
  0
VERTEX
  8
0
 10
371.673383
 20
39.617038
 42
0.064310
  0
VERTEX
  8
0
 10
371.500000
 20
40.000000
 42
-0.065255
  0
VERTEX
  8
0
 10
371.327504
 20
40.382920
 42
-0.137404
  0
VERTEX
  8
0
 10
371.321092
 20
40.706250
 42
-0.191324
  0
VERTEX
  8
0
 10
371.476328
 20
40.918557
 42
-0.141270
  0
VERTEX
  8
0
 10
371.758830
 20
41.000000
 42
0.427289
  0
VERTEX
  8
0
 10
372.700820
 20
41.984805
 42
0.027405
  0
VERTEX
  8
0
 10
372.262777
 20
46.384642
 42
0.031027
  0
VERTEX
  8
0
 10
371.113720
 20
51.619829
 42
0.033077
  0
VERTEX
  8
0
 10
369.343275
 20
56.558355
 42
-0.010122
  0
VERTEX
  8
0
 10
368.700008
 20
58.122780
 42
-0.013704
  0
VERTEX
  8
0
 10
368.186754
 20
59.562454
 42
-0.010648
  0
VERTEX
  8
0
 10
367.821339
 20
60.770398
 42
-0.129535
  0
VERTEX
  8
0
 10
367.814227
 20
61.250000
 42
0.136669
  0
VERTEX
  8
0
 10
367.805992
 20
61.535441
 42
0.132247
  0
VERTEX
  8
0
 10
367.651679
 20
61.779688
 42
0.110539
  0
VERTEX
  8
0
 10
367.368137
 20
61.943609
 42
0.076145
  0
VERTEX
  8
0
 10
367.000000
 20
62.000000
 42
-0.103303
  0
VERTEX
  8
0
 10
366.618421
 20
62.079687
 42
-0.098850
  0
VERTEX
  8
0
 10
366.293750
 20
62.306033
 42
-0.096885
  0
VERTEX
  8
0
 10
366.076187
 20
62.644152
 42
-0.094931
  0
VERTEX
  8
0
 10
366.000000
 20
63.041813
 42
0.113879
  0
VERTEX
  8
0
 10
365.876317
 20
63.577816
 42
0.026024
  0
VERTEX
  8
0
 10
365.422658
 20
64.397298
 42
0.025613
  0
VERTEX
  8
0
 10
364.786914
 20
65.309144
 42
0.022494
  0
VERTEX
  8
0
 10
364.034580
 20
66.193257
 42
-0.027452
  0
VERTEX
  8
0
 10
363.315455
 20
67.055514
 42
-0.038690
  0
VERTEX
  8
0
 10
362.781533
 20
67.901666
 42
-0.043481
  0
VERTEX
  8
0
 10
362.477436
 20
68.623629
 42
-0.219769
  0
VERTEX
  8
0
 10
362.528837
 20
69.046659
 42
0.193368
  0
VERTEX
  8
0
 10
362.585726
 20
69.375010
 42
0.114330
  0
VERTEX
  8
0
 10
362.414545
 20
69.740384
 42
0.082433
  0
VERTEX
  8
0
 10
362.032410
 20
70.089652
 42
0.052445
  0
VERTEX
  8
0
 10
361.494256
 20
70.363830
 42
-0.069255
  0
VERTEX
  8
0
 10
360.924147
 20
70.678768
 42
-0.063756
  0
VERTEX
  8
0
 10
360.443436
 20
71.145201
 42
-0.067668
  0
VERTEX
  8
0
 10
360.120781
 20
71.685917
 42
-0.104079
  0
VERTEX
  8
0
 10
360.015313
 20
72.218615
 42
-0.021394
  0
VERTEX
  8
0
 10
360.050580
 20
72.862349
 42
-0.391408
  0
VERTEX
  8
0
 10
360.191160
 20
72.987432
 42
-0.238864
  0
VERTEX
  8
0
 10
360.404276
 20
72.874315
 42
-0.012150
  0
VERTEX
  8
0
 10
360.853584
 20
72.202666
 42
0.342071
  0
VERTEX
  8
0
 10
361.982786
 20
71.795180
 42
0.185661
  0
VERTEX
  8
0
 10
363.196505
 20
72.776690
 42
0.076123
  0
VERTEX
  8
0
 10
364.222865
 20
75.409659
 42
0.040939
  0
VERTEX
  8
0
 10
364.703038
 20
78.869420
 42
-0.006285
  0
VERTEX
  8
0
 10
364.833748
 20
80.770578
 42
-0.006426
  0
VERTEX
  8
0
 10
365.011426
 20
82.653829
 42
-0.006257
  0
VERTEX
  8
0
 10
365.207120
 20
84.284542
 42
-0.026567
  0
VERTEX
  8
0
 10
365.387864
 20
85.250000
 42
0.040049
  0
VERTEX
  8
0
 10
365.494789
 20
85.920527
 42
0.068280
  0
VERTEX
  8
0
 10
365.461805
 20
86.485938
 42
0.102301
  0
VERTEX
  8
0
 10
365.302949
 20
86.863234
 42
0.246942
  0
VERTEX
  8
0
 10
365.042916
 20
87.000000
 42
-0.264935
  0
VERTEX
  8
0
 10
364.760279
 20
87.161066
 42
-0.069381
  0
VERTEX
  8
0
 10
364.551104
 20
87.660937
 42
-0.051730
  0
VERTEX
  8
0
 10
364.437948
 20
88.387933
 42
-0.032359
  0
VERTEX
  8
0
 10
364.449719
 20
89.250000
 42
0.034230
  0
VERTEX
  8
0
 10
364.459457
 20
90.231951
 42
0.024598
  0
VERTEX
  8
0
 10
364.341517
 20
91.322764
 42
0.024985
  0
VERTEX
  8
0
 10
364.125010
 20
92.354487
 42
0.048043
  0
VERTEX
  8
0
 10
363.833314
 20
93.146644
 42
-0.080533
  0
VERTEX
  8
0
 10
363.589631
 20
93.968897
 42
-0.194047
  0
VERTEX
  8
0
 10
363.747442
 20
94.571982
 42
-0.137694
  0
VERTEX
  8
0
 10
364.342777
 20
95.031990
 42
-0.034587
  0
VERTEX
  8
0
 10
365.520130
 20
95.415696
 42
0.043077
  0
VERTEX
  8
0
 10
366.474668
 20
95.744790
 42
0.052347
  0
VERTEX
  8
0
 10
367.294014
 20
96.216863
 42
0.061065
  0
VERTEX
  8
0
 10
367.869652
 20
96.752353
 42
0.160728
  0
VERTEX
  8
0
 10
368.076511
 20
97.269052
 42
-0.018814
  0
VERTEX
  8
0
 10
368.137522
 20
97.878966
 42
-0.007114
  0
VERTEX
  8
0
 10
368.266868
 20
98.725909
 42
-0.007035
  0
VERTEX
  8
0
 10
368.433800
 20
99.644065
 42
-0.008521
  0
VERTEX
  8
0
 10
368.617094
 20
100.500000
 42
0.027242
  0
VERTEX
  8
0
 10
369.073131
 20
103.101561
 42
0.004176
  0
VERTEX
  8
0
 10
369.653921
 20
108.326249
 42
0.005006
  0
VERTEX
  8
0
 10
370.154792
 20
113.734838
 42
0.012042
  0
VERTEX
  8
0
 10
370.388927
 20
117.750000
 42
-0.015473
  0
VERTEX
  8
0
 10
370.470153
 20
118.995842
 42
-0.025104
  0
VERTEX
  8
0
 10
370.624738
 20
120.045312
 42
-0.022437
  0
VERTEX
  8
0
 10
370.819971
 20
120.838594
 42
-0.332671
  0
VERTEX
  8
0
 10
371.035714
 20
121.000000
 42
0.255639
  0
VERTEX
  8
0
 10
371.249950
 20
121.117193
 42
0.053369
  0
VERTEX
  8
0
 10
371.448085
 20
121.514062
 42
0.043806
  0
VERTEX
  8
0
 10
371.603902
 20
122.079598
 42
0.028810
  0
VERTEX
  8
0
 10
371.687250
 20
122.750000
 42
-0.010892
  0
VERTEX
  8
0
 10
371.773552
 20
123.729606
 42
-0.002235
  0
VERTEX
  8
0
 10
371.971285
 20
125.454688
 42
-0.002351
  0
VERTEX
  8
0
 10
372.219472
 20
127.457416
 42
-0.002208
  0
VERTEX
  8
0
 10
372.491533
 20
129.500000
 42
0.013388
  0
VERTEX
  8
0
 10
373.016781
 20
134.253233
 42
0.021279
  0
VERTEX
  8
0
 10
373.183412
 20
138.342056
 42
0.021594
  0
VERTEX
  8
0
 10
373.001267
 20
142.386719
 42
0.014343
  0
VERTEX
  8
0
 10
372.459655
 20
147.000000
 42
-0.030691
  0
VERTEX
  8
0
 10
372.006803
 20
152.366366
 42
-0.004536
  0
VERTEX
  8
0
 10
371.857114
 20
163.250441
 42
-0.005307
  0
VERTEX
  8
0
 10
371.922532
 20
174.272729
 42
-0.017693
  0
VERTEX
  8
0
 10
372.298200
 20
181.500000
 42
0.027322
  0
VERTEX
  8
0
 10
372.345045
 20
182.932739
 42
0.012659
  0
VERTEX
  8
0
 10
372.257021
 20
184.793750
 42
0.012498
  0
VERTEX
  8
0
 10
372.065615
 20
186.749146
 42
0.016998
  0
VERTEX
  8
0
 10
371.789237
 20
188.500000
 42
-0.019858
  0
VERTEX
  8
0
 10
371.454738
 20
190.700692
 42
-0.004656
  0
VERTEX
  8
0
 10
371.075814
 20
194.409375
 42
-0.004791
  0
VERTEX
  8
0
 10
370.720303
 20
198.686720
 42
-0.004692
  0
VERTEX
  8
0
 10
370.444055
 20
203.000000
 42
0.005280
  0
VERTEX
  8
0
 10
370.167492
 20
207.239955
 42
0.005996
  0
VERTEX
  8
0
 10
369.810834
 20
211.296875
 42
0.005487
  0
VERTEX
  8
0
 10
369.429024
 20
214.733269
 42
0.032928
  0
VERTEX
  8
0
 10
369.093899
 20
216.500000
 42
-0.027463
  0
VERTEX
  8
0
 10
368.826290
 20
217.831244
 42
-0.019230
  0
VERTEX
  8
0
 10
368.665889
 20
219.353125
 42
-0.019464
  0
VERTEX
  8
0
 10
368.625144
 20
220.827429
 42
-0.037830
  0
VERTEX
  8
0
 10
368.727318
 20
222.000000
 42
0.028310
  0
VERTEX
  8
0
 10
369.114263
 20
225.638932
 42
0.032824
  0
VERTEX
  8
0
 10
369.057530
 20
229.121152
 42
0.032591
  0
VERTEX
  8
0
 10
368.637886
 20
231.953841
 42
0.200996
  0
VERTEX
  8
0
 10
367.813014
 20
233.136725
 42
-0.012047
  0
VERTEX
  8
0
 10
367.123036
 20
233.597952
 42
-0.260327
  0
VERTEX
  8
0
 10
367.020911
 20
233.810392
 42
-0.372443
  0
VERTEX
  8
0
 10
367.158655
 20
233.951229
 42
-0.018059
  0
VERTEX
  8
0
 10
367.865010
 20
233.984687
 42
0.125330
  0
VERTEX
  8
0
 10
368.431033
 20
234.135611
 42
0.300863
  0
VERTEX
  8
0
 10
368.621045
 20
234.503854
 42
0.104219
  0
VERTEX
  8
0
 10
368.395163
 20
235.195138
 42
0.014134
  0
VERTEX
  8
0
 10
367.591957
 20
236.500000
 42
-0.014475
  0
VERTEX
  8
0
 10
367.002254
 20
237.459476
 42
-0.027812
  0
VERTEX
  8
0
 10
366.596265
 20
238.265625
 42
-0.034401
  0
VERTEX
  8
0
 10
366.388380
 20
238.849312
 42
-0.496749
  0
VERTEX
  8
0
 10
366.502627
 20
239.000000
 42
0.473960
  0
VERTEX
  8
0
 10
366.633725
 20
239.160274
 42
0.028923
  0
VERTEX
  8
0
 10
366.453717
 20
239.844007
 42
0.026305
  0
VERTEX
  8
0
 10
366.096528
 20
240.770806
 42
0.014200
  0
VERTEX
  8
0
 10
365.565563
 20
241.873216
 42
-0.024466
  0
VERTEX
  8
0
 10
365.042215
 20
243.019408
 42
-0.034696
  0
VERTEX
  8
0
 10
364.700336
 20
244.086542
 42
-0.037261
  0
VERTEX
  8
0
 10
364.554892
 20
244.953650
 42
-0.222858
  0
VERTEX
  8
0
 10
364.706549
 20
245.373216
 42
0.133607
  0
VERTEX
  8
0
 10
364.842481
 20
245.610759
 42
0.259813
  0
VERTEX
  8
0
 10
364.789171
 20
245.815882
 42
0.152445
  0
VERTEX
  8
0
 10
364.535255
 20
245.956444
 42
0.050799
  0
VERTEX
  8
0
 10
364.107650
 20
246.000000
 42
-0.067284
  0
VERTEX
  8
0
 10
363.674602
 20
246.058539
 42
-0.140666
  0
VERTEX
  8
0
 10
363.386808
 20
246.234287
 42
-0.190832
  0
VERTEX
  8
0
 10
363.287018
 20
246.494698
 42
-0.136434
  0
VERTEX
  8
0
 10
363.374892
 20
246.797571
 42
0.250491
  0
VERTEX
  8
0
 10
363.444522
 20
247.906748
 42
0.003388
  0
VERTEX
  8
0
 10
360.472999
 20
254.302061
 42
0.005631
  0
VERTEX
  8
0
 10
357.500407
 20
260.408962
 42
0.115509
  0
VERTEX
  8
0
 10
356.198433
 20
261.972853
 42
-0.096920
  0
VERTEX
  8
0
 10
355.195571
 20
263.091170
 42
-0.013652
  0
VERTEX
  8
0
 10
353.675081
 20
265.806356
 42
-0.008817
  0
VERTEX
  8
0
 10
352.266448
 20
268.610292
 42
-0.552391
  0
VERTEX
  8
0
 10
352.511558
 20
269.000000
 42
0.497330
  0
VERTEX
  8
0
 10
352.639597
 20
269.169206
 42
0.036314
  0
VERTEX
  8
0
 10
352.408052
 20
269.807813
 42
0.028485
  0
VERTEX
  8
0
 10
351.949363
 20
270.694522
 42
0.014720
  0
VERTEX
  8
0
 10
351.282058
 20
271.750000
 42
-0.017161
  0
VERTEX
  8
0
 10
350.037188
 20
273.740455
 42
-0.017120
  0
VERTEX
  8
0
 10
348.930709
 20
275.813166
 42
-0.010447
  0
VERTEX
  8
0
 10
347.591742
 20
278.692992
 42
-0.002236
  0
VERTEX
  8
0
 10
345.394721
 20
283.750000
 42
0.004558
  0
VERTEX
  8
0
 10
343.673414
 20
287.662227
 42
0.005883
  0
VERTEX
  8
0
 10
342.018197
 20
291.220765
 42
0.003346
  0
VERTEX
  8
0
 10
340.544329
 20
294.242292
 42
0.081398
  0
VERTEX
  8
0
 10
340.000000
 20
295.000000
 42
-0.050305
  0
VERTEX
  8
0
 10
339.138358
 20
296.054959
 42
-0.014075
  0
VERTEX
  8
0
 10
338.012437
 20
297.866079
 42
-0.014663
  0
VERTEX
  8
0
 10
336.970353
 20
299.779370
 42
-0.036382
  0
VERTEX
  8
0
 10
336.354336
 20
301.250000
 42
0.042458
  0
VERTEX
  8
0
 10
336.064248
 20
301.919620
 42
0.051373
  0
VERTEX
  8
0
 10
335.679855
 20
302.485937
 42
0.059674
  0
VERTEX
  8
0
 10
335.264197
 20
302.875191
 42
0.159687
  0
VERTEX
  8
0
 10
334.883369
 20
303.000000
 42
-0.155266
  0
VERTEX
  8
0
 10
334.546462
 20
303.107205
 42
-0.097686
  0
VERTEX
  8
0
 10
334.259490
 20
303.409197
 42
-0.079992
  0
VERTEX
  8
0
 10
334.065812
 20
303.860348
 42
-0.061543
  0
VERTEX
  8
0
 10
334.000000
 20
304.393011
 42
0.104296
  0
VERTEX
  8
0
 10
333.877764
 20
304.972642
 42
0.066683
  0
VERTEX
  8
0
 10
333.517331
 20
305.562043
 42
0.062725
  0
VERTEX
  8
0
 10
332.985068
 20
306.071482
 42
0.068054
  0
VERTEX
  8
0
 10
332.356872
 20
306.416550
 42
-0.036588
  0
VERTEX
  8
0
 10
331.763772
 20
306.695444
 42
-0.070685
  0
VERTEX
  8
0
 10
331.348333
 20
307.013780
 42
-0.120915
  0
VERTEX
  8
0
 10
331.168856
 20
307.316496
 42
-0.276734
  0
VERTEX
  8
0
 10
331.230918
 20
307.564251
 42
0.378188
  0
VERTEX
  8
0
 10
331.285691
 20
308.442683
 42
0.015989
  0
VERTEX
  8
0
 10
329.128592
 20
311.041281
 42
0.018751
  0
VERTEX
  8
0
 10
326.792463
 20
313.487904
 42
0.194004
  0
VERTEX
  8
0
 10
325.527316
 20
314.004627
 42
-0.137052
  0
VERTEX
  8
0
 10
324.953964
 20
314.167581
 42
-0.017087
  0
VERTEX
  8
0
 10
323.863018
 20
314.887786
 42
-0.019098
  0
VERTEX
  8
0
 10
322.603142
 20
315.857232
 42
-0.014751
  0
VERTEX
  8
0
 10
321.304234
 20
317.004627
 42
0.018269
  0
VERTEX
  8
0
 10
319.985076
 20
318.153492
 42
0.022087
  0
VERTEX
  8
0
 10
318.664105
 20
319.128428
 42
0.021402
  0
VERTEX
  8
0
 10
317.499859
 20
319.840377
 42
0.121679
  0
VERTEX
  8
0
 10
316.804234
 20
320.028318
 42
-0.136146
  0
VERTEX
  8
0
 10
316.056969
 20
320.253215
 42
-0.014049
  0
VERTEX
  8
0
 10
314.514383
 20
321.288436
 42
-0.016667
  0
VERTEX
  8
0
 10
312.720223
 20
322.659422
 42
-0.012581
  0
VERTEX
  8
0
 10
310.840476
 20
324.278318
 42
0.005742
  0
VERTEX
  8
0
 10
306.552591
 20
328.074534
 42
0.020935
  0
VERTEX
  8
0
 10
303.707113
 20
330.334933
 42
0.031664
  0
VERTEX
  8
0
 10
301.663395
 20
331.633782
 42
0.126374
  0
VERTEX
  8
0
 10
300.237592
 20
332.000000
 42
-0.070841
  0
VERTEX
  8
0
 10
299.760802
 20
332.067893
 42
-0.146069
  0
VERTEX
  8
0
 10
299.447191
 20
332.270228
 42
-0.189498
  0
VERTEX
  8
0
 10
299.343334
 20
332.570326
 42
-0.128754
  0
VERTEX
  8
0
 10
299.450511
 20
332.919925
 42
0.231358
  0
VERTEX
  8
0
 10
299.498898
 20
333.407785
 42
0.057834
  0
VERTEX
  8
0
 10
299.124834
 20
334.141647
 42
0.047128
  0
VERTEX
  8
0
 10
298.450029
 20
334.974209
 42
0.032254
  0
VERTEX
  8
0
 10
297.543440
 20
335.787170
 42
-0.026747
  0
VERTEX
  8
0
 10
296.640304
 20
336.579277
 42
-0.044299
  0
VERTEX
  8
0
 10
295.980908
 20
337.348337
 42
-0.057554
  0
VERTEX
  8
0
 10
295.625306
 20
337.991208
 42
-0.302685
  0
VERTEX
  8
0
 10
295.700578
 20
338.367245
 42
0.090637
  0
VERTEX
  8
0
 10
295.867469
 20
338.608787
 42
0.235919
  0
VERTEX
  8
0
 10
295.859348
 20
338.814128
 42
0.200940
  0
VERTEX
  8
0
 10
295.682839
 20
338.954343
 42
0.068784
  0
VERTEX
  8
0
 10
295.352521
 20
339.000000
 42
-0.226004
  0
VERTEX
  8
0
 10
294.099693
 20
339.596770
 42
-0.009373
  0
VERTEX
  8
0
 10
290.962282
 20
343.614566
 42
-0.009401
  0
VERTEX
  8
0
 10
287.978535
 20
347.746423
 42
-0.224627
  0
VERTEX
  8
0
 10
287.750000
 20
349.121382
 42
0.099420
  0
VERTEX
  8
0
 10
287.776536
 20
349.456480
 42
0.129092
  0
VERTEX
  8
0
 10
287.663878
 20
349.741906
 42
0.131199
  0
VERTEX
  8
0
 10
287.427358
 20
349.932077
 42
0.104450
  0
VERTEX
  8
0
 10
287.105755
 20
350.000000
 42
-0.144284
  0
VERTEX
  8
0
 10
286.593450
 20
350.150978
 42
-0.014461
  0
VERTEX
  8
0
 10
285.530814
 20
350.881250
 42
-0.017218
  0
VERTEX
  8
0
 10
284.295259
 20
351.851017
 42
-0.012868
  0
VERTEX
  8
0
 10
283.000000
 20
353.000000
 42
0.019867
  0
VERTEX
  8
0
 10
281.668208
 20
354.148494
 42
0.023647
  0
VERTEX
  8
0
 10
280.322311
 20
355.118750
 42
0.023377
  0
VERTEX
  8
0
 10
279.129502
 20
355.818574
 42
0.121553
  0
VERTEX
  8
0
 10
278.394245
 20
356.000000
 42
-0.060876
  0
VERTEX
  8
0
 10
277.861088
 20
356.065154
 42
-0.079479
  0
VERTEX
  8
0
 10
277.409559
 20
356.257031
 42
-0.097398
  0
VERTEX
  8
0
 10
277.107265
 20
356.541276
 42
-0.156760
  0
VERTEX
  8
0
 10
277.000000
 20
356.875000
 42
0.241465
  0
VERTEX
  8
0
 10
276.806533
 20
357.252253
 42
0.042672
  0
VERTEX
  8
0
 10
276.101702
 20
357.672628
 42
0.037925
  0
VERTEX
  8
0
 10
275.113347
 20
358.063588
 42
0.025873
  0
VERTEX
  8
0
 10
273.941964
 20
358.361607
 42
-0.032868
  0
VERTEX
  8
0
 10
272.660174
 20
358.706859
 42
-0.026584
  0
VERTEX
  8
0
 10
271.337667
 20
359.238114
 42
-0.027337
  0
VERTEX
  8
0
 10
270.166761
 20
359.862346
 42
-0.060310
  0
VERTEX
  8
0
 10
269.370536
 20
360.486607
 42
0.050278
  0
VERTEX
  8
0
 10
268.649896
 20
361.075257
 42
0.035061
  0
VERTEX
  8
0
 10
267.735184
 20
361.592160
 42
0.035466
  0
VERTEX
  8
0
 10
266.777292
 20
361.967405
 42
0.059505
  0
VERTEX
  8
0
 10
265.928571
 20
362.125000
 42
-0.013650
  0
VERTEX
  8
0
 10
264.502486
 20
362.256603
 42
-0.019385
  0
VERTEX
  8
0
 10
263.245054
 20
362.457054
 42
-0.019657
  0
VERTEX
  8
0
 10
262.243949
 20
362.697967
 42
-0.105204
  0
VERTEX
  8
0
 10
261.750000
 20
362.958333
 42
0.129236
  0
VERTEX
  8
0
 10
261.279573
 20
363.178476
 42
0.004897
  0
VERTEX
  8
0
 10
259.352724
 20
363.510922
 42
0.006977
  0
VERTEX
  8
0
 10
256.728552
 20
363.899756
 42
0.002540
  0
VERTEX
  8
0
 10
253.000000
 20
364.379901
 42
-0.006355
  0
VERTEX
  8
0
 10
248.157823
 20
365.041052
 42
-0.013376
  0
VERTEX
  8
0
 10
244.421281
 20
365.702329
 42
-0.016377
  0
VERTEX
  8
0
 10
241.616720
 20
366.372812
 42
-0.055998
  0
VERTEX
  8
0
 10
239.877241
 20
367.066162
 42
0.059251
  0
VERTEX
  8
0
 10
239.101850
 20
367.369417
 42
0.033219
  0
VERTEX
  8
0
 10
238.106290
 20
367.558855
 42
0.032667
  0
VERTEX
  8
0
 10
237.060588
 20
367.617800
 42
0.045344
  0
VERTEX
  8
0
 10
236.127241
 20
367.524504
 42
-0.041174
  0
VERTEX
  8
0
 10
235.312359
 20
367.436193
 42
-0.067883
  0
VERTEX
  8
0
 10
234.624877
 20
367.512059
 42
-0.098630
  0
VERTEX
  8
0
 10
234.164766
 20
367.729847
 42
-0.237331
  0
VERTEX
  8
0
 10
234.000000
 20
368.057418
 42
0.080179
  0
VERTEX
  8
0
 10
233.943337
 20
368.408498
 42
0.104955
  0
VERTEX
  8
0
 10
233.779687
 20
368.688330
 42
0.119839
  0
VERTEX
  8
0
 10
233.535700
 20
368.853087
 42
0.128703
  0
VERTEX
  8
0
 10
233.250000
 20
368.881579
 42
-0.030259
  0
VERTEX
  8
0
 10
232.926200
 20
368.850365
 42
-0.023750
  0
VERTEX
  8
0
 10
232.573438
 20
368.854559
 42
-0.024306
  0
VERTEX
  8
0
 10
232.244761
 20
368.890188
 42
-0.052881
  0
VERTEX
  8
0
 10
232.000000
 20
368.955889
 42
0.034529
  0
VERTEX
  8
0
 10
231.679922
 20
369.054508
 42
0.003597
  0
VERTEX
  8
0
 10
230.912500
 20
369.228259
 42
0.004452
  0
VERTEX
  8
0
 10
229.993907
 20
369.420746
 42
0.003550
  0
VERTEX
  8
0
 10
229.000000
 20
369.612463
 42
-0.002907
  0
VERTEX
  8
0
 10
226.041542
 20
370.179176
 42
-0.012788
  0
VERTEX
  8
0
 10
224.307709
 20
370.568081
 42
-0.019190
  0
VERTEX
  8
0
 10
222.959954
 20
370.962358
 42
-0.014154
  0
VERTEX
  8
0
 10
221.500000
 20
371.497406
 42
0.000823
  0
VERTEX
  8
0
 10
220.523885
 20
371.884952
 42
0.000343
  0
VERTEX
  8
0
 10
219.206250
 20
372.404535
 42
0.000340
  0
VERTEX
  8
0
 10
217.794990
 20
372.958811
 42
0.000440
  0
VERTEX
  8
0
 10
216.500000
 20
373.465092
 42
0.036394
  0
VERTEX
  8
0
 10
215.078500
 20
373.903328
 42
0.019296
  0
VERTEX
  8
0
 10
213.266439
 20
374.247508
 42
0.019104
  0
VERTEX
  8
0
 10
211.376963
 20
374.457935
 42
0.027993
  0
VERTEX
  8
0
 10
209.704900
 20
374.485918
 42
-0.018655
  0
VERTEX
  8
0
 10
208.217826
 20
374.483046
 42
-0.025845
  0
VERTEX
  8
0
 10
206.889719
 20
374.598954
 42
-0.024421
  0
VERTEX
  8
0
 10
205.839496
 20
374.798280
 42
-0.197724
  0
VERTEX
  8
0
 10
205.450597
 20
375.079936
 42
0.175664
  0
VERTEX
  8
0
 10
205.110601
 20
375.348991
 42
0.041083
  0
VERTEX
  8
0
 10
204.393173
 20
375.524210
 42
0.037469
  0
VERTEX
  8
0
 10
203.484829
 20
375.599335
 42
0.029246
  0
VERTEX
  8
0
 10
202.495697
 20
375.548985
 42
-0.031567
  0
VERTEX
  8
0
 10
201.539376
 20
375.504751
 42
-0.051365
  0
VERTEX
  8
0
 10
200.733111
 20
375.601587
 42
-0.069717
  0
VERTEX
  8
0
 10
200.178828
 20
375.811093
 42
-0.274125
  0
VERTEX
  8
0
 10
200.000000
 20
376.112762
 42
0.329182
  0
VERTEX
  8
0
 10
199.815570
 20
376.362541
 42
0.083863
  0
VERTEX
  8
0
 10
199.285200
 20
376.432647
 42
0.053231
  0
VERTEX
  8
0
 10
198.499933
 20
376.320163
 42
0.028679
  0
VERTEX
  8
0
 10
197.566638
 20
376.025336
 42
-0.029022
  0
VERTEX
  8
0
 10
196.496803
 20
375.688182
 42
-0.069799
  0
VERTEX
  8
0
 10
195.672784
 20
375.598929
 42
-0.112930
  0
VERTEX
  8
0
 10
195.107069
 20
375.747234
 42
-0.194331
  0
VERTEX
  8
0
 10
194.795804
 20
376.112587
 42
0.072951
  0
VERTEX
  8
0
 10
194.622654
 20
376.455668
 42
0.134275
  0
VERTEX
  8
0
 10
194.383356
 20
376.653494
 42
0.170607
  0
VERTEX
  8
0
 10
194.117964
 20
376.676345
 42
0.134128
  0
SEQEND
  0
POLYLINE
  8
0
 66
1
 70
1
  0
VERTEX
  8
0
 10
198.345077
 20
358.456872
 42
-0.035865
  0
VERTEX
  8
0
 10
198.083816
 20
357.899181
 42
-0.069269
  0
VERTEX
  8
0
 10
197.786868
 20
357.507038
 42
-0.118528
  0
VERTEX
  8
0
 10
197.505460
 20
357.335123
 42
-0.281567
  0
VERTEX
  8
0
 10
197.276326
 20
357.390341
 42
-0.156651
  0
VERTEX
  8
0
 10
197.142323
 20
357.651151
 42
-0.070517
  0
VERTEX
  8
0
 10
197.133355
 20
358.040231
 42
-0.059701
  0
VERTEX
  8
0
 10
197.242038
 20
358.490157
 42
-0.049364
  0
VERTEX
  8
0
 10
197.458881
 20
358.933469
 42
-0.030391
  0
VERTEX
  8
0
 10
198.120758
 20
359.871774
 42
-0.361950
  0
VERTEX
  8
0
 10
198.525317
 20
359.954259
 42
-0.344086
  0
VERTEX
  8
0
 10
198.696703
 20
359.564815
 42
-0.029555
  0
SEQEND
  0
POLYLINE
  8
0
 66
1
 70
1
  0
VERTEX
  8
0
 10
221.527986
 20
328.393014
 42
-0.110388
  0
VERTEX
  8
0
 10
222.951687
 20
327.847985
 42
-0.046446
  0
VERTEX
  8
0
 10
224.556647
 20
326.554558
 42
-0.046940
  0
VERTEX
  8
0
 10
225.754802
 20
325.148790
 42
-0.364298
  0
VERTEX
  8
0
 10
225.685579
 20
324.352245
 42
-0.166478
  0
VERTEX
  8
0
 10
225.377904
 20
324.201541
 42
-0.068971
  0
VERTEX
  8
0
 10
224.908633
 20
324.207260
 42
-0.057723
  0
VERTEX
  8
0
 10
224.361101
 20
324.355984
 42
-0.046177
  0
VERTEX
  8
0
 10
223.816531
 20
324.634552
 42
0.047532
  0
VERTEX
  8
0
 10
222.591080
 20
325.257238
 42
0.086621
  0
VERTEX
  8
0
 10
221.494737
 20
325.482132
 42
0.113603
  0
VERTEX
  8
0
 10
220.591908
 20
325.302199
 42
0.133464
  0
VERTEX
  8
0
 10
219.920050
 20
324.749588
 42
-0.249243
  0
VERTEX
  8
0
 10
219.023412
 20
324.299589
 42
-0.100738
  0
VERTEX
  8
0
 10
217.647221
 20
324.613384
 42
-0.093690
  0
VERTEX
  8
0
 10
216.429060
 20
325.468080
 42
-0.195470
  0
VERTEX
  8
0
 10
216.000000
 20
326.523655
 42
0.084691
  0
VERTEX
  8
0
 10
215.909452
 20
327.054400
 42
0.069228
  0
VERTEX
  8
0
 10
215.645106
 20
327.566913
 42
0.069795
  0
VERTEX
  8
0
 10
215.253609
 20
327.983974
 42
0.089207
  0
VERTEX
  8
0
 10
214.791852
 20
328.236049
 42
-0.108528
  0
VERTEX
  8
0
 10
214.318544
 20
328.518454
 42
-0.239848
  0
VERTEX
  8
0
 10
214.179790
 20
328.903562
 42
-0.128287
  0
VERTEX
  8
0
 10
214.394047
 20
329.439742
 42
-0.026937
  0
VERTEX
  8
0
 10
215.041852
 20
330.225917
 42
-0.031581
  0
VERTEX
  8
0
 10
215.940041
 20
331.087489
 42
-0.178592
  0
VERTEX
  8
0
 10
216.553551
 20
331.310044
 42
-0.158577
  0
VERTEX
  8
0
 10
217.206602
 20
331.093632
 42
-0.023554
  0
VERTEX
  8
0
 10
218.297975
 20
330.208130
 42
0.028946
  0
VERTEX
  8
0
 10
219.091499
 20
329.578350
 42
0.025257
  0
VERTEX
  8
0
 10
219.988455
 20
329.012903
 42
0.026070
  0
VERTEX
  8
0
 10
220.853070
 20
328.584696
 42
0.065591
  0
SEQEND
  0
POLYLINE
  8
0
 66
1
 70
1
  0
VERTEX
  8
0
 10
200.740407
 20
316.796086
 42
-0.079538
  0
VERTEX
  8
0
 10
200.600720
 20
315.128200
 42
-0.074098
  0
VERTEX
  8
0
 10
199.948520
 20
313.542552
 42
-0.084533
  0
VERTEX
  8
0
 10
198.968928
 20
312.395490
 42
-0.175602
  0
VERTEX
  8
0
 10
197.877555
 20
312.000000
 42
-0.361914
  0
VERTEX
  8
0
 10
197.076623
 20
312.667117
 42
-0.082215
  0
VERTEX
  8
0
 10
197.042805
 20
314.573216
 42
-0.067697
  0
VERTEX
  8
0
 10
197.657678
 20
316.699415
 42
-0.157967
  0
VERTEX
  8
0
 10
198.750000
 20
317.919901
 42
0.000349
  0
VERTEX
  8
0
 10
199.423573
 20
318.312852
 42
0.000562
  0
VERTEX
  8
0
 10
199.996864
 20
318.648701
 42
0.000081
  0
VERTEX
  8
0
 10
200.505851
 20
318.947761
 42
0.038509
  0
VERTEX
  8
0
 10
200.537196
 20
318.969591
 42
-0.599881
  0
VERTEX
  8
0
 10
200.553867
 20
318.962634
 42
-0.000396
  0
VERTEX
  8
0
 10
200.612232
 20
318.343668
 42
-0.002839
  0
VERTEX
  8
0
 10
200.674072
 20
317.639100
 42
-0.001670
  0
SEQEND
  0
POLYLINE
  8
0
 66
1
 70
1
  0
VERTEX
  8
0
 10
287.611848
 20
316.430874
 42
0.071657
  0
VERTEX
  8
0
 10
287.483134
 20
315.864172
 42
0.074475
  0
VERTEX
  8
0
 10
287.522340
 20
315.291936
 42
0.081683
  0
VERTEX
  8
0
 10
287.718052
 20
314.802061
 42
0.119091
  0
VERTEX
  8
0
 10
288.043674
 20
314.473008
 42
-0.079752
  0
VERTEX
  8
0
 10
288.407216
 20
314.158796
 42
-0.055134
  0
VERTEX
  8
0
 10
288.709737
 20
313.705733
 42
-0.054482
  0
VERTEX
  8
0
 10
288.909455
 20
313.190388
 42
-0.072015
  0
VERTEX
  8
0
 10
288.968197
 20
312.690983
 42
-0.257071
  0
VERTEX
  8
0
 10
288.816007
 20
312.431203
 42
-0.255697
  0
VERTEX
  8
0
 10
288.514453
 20
312.420058
 42
-0.086484
  0
VERTEX
  8
0
 10
288.035980
 20
312.773532
 42
-0.028616
  0
VERTEX
  8
0
 10
287.468197
 20
313.441130
 42
-0.069278
  0
VERTEX
  8
0
 10
286.477289
 20
315.215863
 42
-0.072959
  0
VERTEX
  8
0
 10
286.031241
 20
317.162677
 42
-0.164883
  0
VERTEX
  8
0
 10
286.315369
 20
318.288283
 42
-0.408219
  0
VERTEX
  8
0
 10
287.068174
 20
318.457866
 42
-0.107533
  0
VERTEX
  8
0
 10
287.436441
 20
318.102326
 42
-0.081854
  0
VERTEX
  8
0
 10
287.668500
 20
317.590118
 42
-0.077466
  0
VERTEX
  8
0
 10
287.731837
 20
317.002791
 42
-0.079972
  0
SEQEND
  0
POLYLINE
  8
0
 66
1
 70
1
  0
VERTEX
  8
0
 10
264.750000
 20
294.056438
 42
-0.024264
  0
VERTEX
  8
0
 10
265.611314
 20
293.263981
 42
-0.028973
  0
VERTEX
  8
0
 10
266.339063
 20
292.435168
 42
-0.029836
  0
VERTEX
  8
0
 10
266.858637
 20
291.680539
 42
-0.136673
  0
VERTEX
  8
0
 10
267.000000
 20
291.173041
 42
0.109908
  0
VERTEX
  8
0
 10
267.093024
 20
290.754965
 42
0.068263
  0
VERTEX
  8
0
 10
267.367188
 20
290.331151
 42
0.063370
  0
VERTEX
  8
0
 10
267.772106
 20
289.966059
 42
0.066128
  0
VERTEX
  8
0
 10
268.250000
 20
289.720238
 42
-0.057812
  0
VERTEX
  8
0
 10
268.687521
 20
289.504275
 42
-0.105697
  0
VERTEX
  8
0
 10
268.967915
 20
289.224314
 42
-0.154677
  0
VERTEX
  8
0
 10
269.049283
 20
288.928739
 42
-0.177221
  0
VERTEX
  8
0
 10
268.938646
 20
288.658884
 42
-0.370325
  0
VERTEX
  8
0
 10
268.540668
 20
288.610259
 42
-0.021314
  0
VERTEX
  8
0
 10
267.467779
 20
289.393137
 42
-0.024157
  0
VERTEX
  8
0
 10
266.162477
 20
290.540988
 42
-0.014434
  0
VERTEX
  8
0
 10
264.719722
 20
292.021979
 42
-0.007538
  0
VERTEX
  8
0
 10
262.209477
 20
294.836145
 42
-0.184084
  0
VERTEX
  8
0
 10
261.857111
 20
295.803827
 42
-0.614357
  0
VERTEX
  8
0
 10
262.287079
 20
296.013701
 42
-0.011887
  0
SEQEND
  0
POLYLINE
  8
0
 66
1
 70
1
  0
VERTEX
  8
0
 10
258.597244
 20
291.172529
 42
-0.007189
  0
VERTEX
  8
0
 10
259.958613
 20
289.803683
 42
-0.003386
  0
VERTEX
  8
0
 10
261.679327
 20
287.998730
 42
-0.003355
  0
VERTEX
  8
0
 10
263.456196
 20
286.083833
 42
-0.004721
  0
VERTEX
  8
0
 10
265.013230
 20
284.350523
 42
-0.008164
  0
VERTEX
  8
0
 10
267.218560
 20
281.764473
 42
-0.104017
  0
VERTEX
  8
0
 10
267.807412
 20
280.640238
 42
-0.211881
  0
VERTEX
  8
0
 10
267.673266
 20
279.704473
 42
-0.050431
  0
VERTEX
  8
0
 10
266.684358
 20
278.432239
 42
-0.015607
  0
VERTEX
  8
0
 10
265.868749
 20
277.628507
 42
-0.107493
  0
VERTEX
  8
0
 10
265.387027
 20
277.344516
 42
-0.444540
  0
VERTEX
  8
0
 10
265.168934
 20
277.468834
 42
-0.110866
  0
VERTEX
  8
0
 10
265.171128
 20
277.933248
 42
0.179860
  0
VERTEX
  8
0
 10
265.084757
 20
278.592054
 42
0.063862
  0
VERTEX
  8
0
 10
264.528618
 20
279.381322
 42
0.052865
  0
VERTEX
  8
0
 10
263.631527
 20
280.174166
 42
0.039714
  0
VERTEX
  8
0
 10
262.500000
 20
280.850551
 42
-0.038542
  0
VERTEX
  8
0
 10
260.048324
 20
282.308292
 42
-0.075565
  0
VERTEX
  8
0
 10
258.413058
 20
283.876036
 42
-0.119160
  0
VERTEX
  8
0
 10
257.755553
 20
285.354599
 42
-0.222033
  0
VERTEX
  8
0
 10
258.080363
 20
286.596832
 42
0.149761
  0
VERTEX
  8
0
 10
258.336462
 20
287.210394
 42
0.097187
  0
VERTEX
  8
0
 10
258.262485
 20
287.981333
 42
0.070271
  0
VERTEX
  8
0
 10
257.848709
 20
288.884168
 42
0.036115
  0
VERTEX
  8
0
 10
257.101923
 20
289.882482
 42
0.022672
  0
VERTEX
  8
0
 10
256.023994
 20
291.017092
 42
0.130487
  0
VERTEX
  8
0
 10
255.305736
 20
291.415251
 42
0.197014
  0
VERTEX
  8
0
 10
254.644149
 20
291.320409
 42
0.063578
  0
VERTEX
  8
0
 10
253.845315
 20
290.702458
 42
-0.101993
  0
VERTEX
  8
0
 10
252.559497
 20
289.856138
 42
-0.170052
  0
VERTEX
  8
0
 10
251.278425
 20
289.802364
 42
-0.192141
  0
VERTEX
  8
0
 10
250.350301
 20
290.544625
 42
-0.129862
  0
VERTEX
  8
0
 10
250.000000
 20
291.870626
 42
-0.271268
  0
VERTEX
  8
0
 10
250.886273
 20
293.383988
 42
-0.149152
  0
VERTEX
  8
0
 10
253.051555
 20
293.857057
 42
-0.095571
  0
VERTEX
  8
0
 10
255.959969
 20
293.047166
 42
-0.078061
  0
SEQEND
  0
POLYLINE
  8
0
 66
1
 70
1
  0
VERTEX
  8
0
 10
249.000000
 20
290.500000
 42
-0.090674
  0
VERTEX
  8
0
 10
248.895288
 20
289.927343
 42
-0.095580
  0
VERTEX
  8
0
 10
248.595343
 20
289.440625
 42
-0.099644
  0
VERTEX
  8
0
 10
248.148010
 20
289.114952
 42
-0.108083
  0
VERTEX
  8
0
 10
247.622445
 20
289.000000
 42
0.087648
  0
VERTEX
  8
0
 10
247.003401
 20
288.890644
 42
0.043397
  0
VERTEX
  8
0
 10
246.277969
 20
288.552276
 42
0.041292
  0
VERTEX
  8
0
 10
245.565745
 20
288.059020
 42
0.047491
  0
VERTEX
  8
0
 10
244.979944
 20
287.475834
 42
-0.034968
  0
VERTEX
  8
0
 10
244.457854
 20
286.929413
 42
-0.055760
  0
VERTEX
  8
0
 10
243.935151
 20
286.550817
 42
-0.076276
  0
VERTEX
  8
0
 10
243.489569
 20
286.381474
 42
-0.254365
  0
VERTEX
  8
0
 10
243.199509
 20
286.467158
 42
0.211989
  0
VERTEX
  8
0
 10
242.890553
 20
286.586140
 42
0.059221
  0
VERTEX
  8
0
 10
242.367791
 20
286.497216
 42
0.048695
  0
VERTEX
  8
0
 10
241.739330
 20
286.243204
 42
0.034711
  0
VERTEX
  8
0
 10
241.092009
 20
285.845604
 42
-0.701169
  0
VERTEX
  8
0
 10
241.024087
 20
285.892353
 42
-0.130081
  0
VERTEX
  8
0
 10
241.142653
 20
286.102468
 42
-0.012392
  0
VERTEX
  8
0
 10
242.059310
 20
286.997666
 42
-0.003707
  0
VERTEX
  8
0
 10
243.500000
 20
288.316734
 42
-0.009311
  0
VERTEX
  8
0
 10
246.424201
 20
290.857346
 42
-0.079874
  0
VERTEX
  8
0
 10
247.907919
 20
291.741272
 42
-0.340811
  0
VERTEX
  8
0
 10
248.663328
 20
291.524828
 42
-0.160050
  0
SEQEND
  0
POLYLINE
  8
0
 66
1
 70
1
  0
VERTEX
  8
0
 10
272.571429
 20
288.014286
 42
-0.037548
  0
VERTEX
  8
0
 10
272.515007
 20
287.264011
 42
-0.135981
  0
VERTEX
  8
0
 10
272.321429
 20
286.831029
 42
-0.282794
  0
VERTEX
  8
0
 10
272.028511
 20
286.731066
 42
-0.141706
  0
VERTEX
  8
0
 10
271.672847
 20
286.927153
 42
-0.091551
  0
VERTEX
  8
0
 10
271.380187
 20
287.352368
 42
-0.076786
  0
VERTEX
  8
0
 10
271.235589
 20
287.881122
 42
-0.076639
  0
VERTEX
  8
0
 10
271.257168
 20
288.429833
 42
-0.090569
  0
VERTEX
  8
0
 10
271.446149
 20
288.912868
 42
-0.018728
  0
VERTEX
  8
0
 10
272.073167
 20
289.847260
 42
-0.427566
  0
VERTEX
  8
0
 10
272.361390
 20
289.886183
 42
-0.218731
  0
VERTEX
  8
0
 10
272.544594
 20
289.522161
 42
-0.008897
  0
SEQEND
  0
POLYLINE
  8
0
 66
1
 70
1
  0
VERTEX
  8
0
 10
237.900845
 20
282.938719
 42
-0.045833
  0
VERTEX
  8
0
 10
236.726264
 20
282.353884
 42
-0.378545
  0
VERTEX
  8
0
 10
236.210848
 20
282.544001
 42
-0.279930
  0
VERTEX
  8
0
 10
236.244982
 20
283.197078
 42
-0.036521
  0
VERTEX
  8
0
 10
237.149120
 20
284.335692
 42
-0.043126
  0
VERTEX
  8
0
 10
237.711655
 20
284.849826
 42
-0.100007
  0
VERTEX
  8
0
 10
238.222967
 20
285.099930
 42
-0.174998
  0
VERTEX
  8
0
 10
238.616868
 20
285.064019
 42
-0.198255
  0
VERTEX
  8
0
 10
238.871885
 20
284.785824
 42
-0.130528
  0
VERTEX
  8
0
 10
238.913014
 20
284.334770
 42
-0.079001
  0
VERTEX
  8
0
 10
238.740044
 20
283.823670
 42
-0.069842
  0
VERTEX
  8
0
 10
238.386463
 20
283.332003
 42
-0.063661
  0
SEQEND
  0
POLYLINE
  8
0
 66
1
 70
1
  0
VERTEX
  8
0
 10
215.887064
 20
282.636080
 42
-0.039465
  0
VERTEX
  8
0
 10
216.378322
 20
281.938906
 42
-0.335485
  0
VERTEX
  8
0
 10
216.337983
 20
281.581610
 42
-0.206299
  0
VERTEX
  8
0
 10
215.918661
 20
281.402290
 42
-0.018862
  0
VERTEX
  8
0
 10
214.759509
 20
281.449263
 42
0.036101
  0
VERTEX
  8
0
 10
213.766491
 20
281.455271
 42
0.024945
  0
VERTEX
  8
0
 10
212.649668
 20
281.325135
 42
0.025238
  0
VERTEX
  8
0
 10
211.583033
 20
281.090705
 42
0.046180
  0
VERTEX
  8
0
 10
210.750000
 20
280.778000
 42
-0.036935
  0
VERTEX
  8
0
 10
210.007644
 20
280.483590
 42
-0.107472
  0
VERTEX
  8
0
 10
209.461173
 20
280.434492
 42
-0.196256
  0
VERTEX
  8
0
 10
209.131570
 20
280.619771
 42
-0.169369
  0
VERTEX
  8
0
 10
209.000000
 20
280.997040
 42
-0.161269
  0
VERTEX
  8
0
 10
209.156715
 20
281.470283
 42
-0.052957
  0
VERTEX
  8
0
 10
209.660937
 20
282.016562
 42
-0.046324
  0
VERTEX
  8
0
 10
210.388936
 20
282.544035
 42
-0.038080
  0
VERTEX
  8
0
 10
211.250000
 20
282.968838
 42
-0.012429
  0
VERTEX
  8
0
 10
213.269878
 20
283.722977
 42
-0.101373
  0
VERTEX
  8
0
 10
214.241966
 20
283.850479
 42
-0.159229
  0
VERTEX
  8
0
 10
214.985699
 20
283.546983
 42
-0.043733
  0
SEQEND
  0
POLYLINE
  8
0
 66
1
 70
1
  0
VERTEX
  8
0
 10
225.250000
 20
281.607954
 42
-0.026529
  0
VERTEX
  8
0
 10
225.919875
 20
281.041030
 42
-0.031525
  0
VERTEX
  8
0
 10
226.485938
 20
280.436287
 42
-0.033088
  0
VERTEX
  8
0
 10
226.887789
 20
279.877182
 42
-0.140167
  0
VERTEX
  8
0
 10
227.000000
 20
279.484770
 42
-0.412007
  0
VERTEX
  8
0
 10
226.842993
 20
279.326574
 42
-0.112394
  0
VERTEX
  8
0
 10
226.462099
 20
279.410275
 42
-0.051342
  0
VERTEX
  8
0
 10
225.872496
 20
279.765910
 42
-0.022558
  0
VERTEX
  8
0
 10
225.168848
 20
280.347194
 42
0.036341
  0
VERTEX
  8
0
 10
224.418720
 20
280.932883
 42
0.053499
  0
VERTEX
  8
0
 10
223.679123
 20
281.321096
 42
0.068493
  0
VERTEX
  8
0
 10
223.056639
 20
281.473230
 42
0.225806
  0
VERTEX
  8
0
 10
222.668848
 20
281.335515
 42
-0.109963
  0
VERTEX
  8
0
 10
222.414422
 20
281.173742
 42
-0.251921
  0
VERTEX
  8
0
 10
222.196474
 20
281.205849
 42
-0.175975
  0
VERTEX
  8
0
 10
222.047153
 20
281.432486
 42
-0.058615
  0
VERTEX
  8
0
 10
222.000000
 20
281.833333
 42
-0.144420
  0
VERTEX
  8
0
 10
222.232496
 20
282.621474
 42
-0.273079
  0
VERTEX
  8
0
 10
222.805407
 20
282.908127
 42
-0.118705
  0
VERTEX
  8
0
 10
223.789364
 20
282.597769
 42
-0.026871
  0
SEQEND
  0
POLYLINE
  8
0
 66
1
 70
1
  0
VERTEX
  8
0
 10
234.361626
 20
281.500000
 42
-0.087470
  0
VERTEX
  8
0
 10
234.018655
 20
280.929006
 42
-0.067803
  0
VERTEX
  8
0
 10
233.472472
 20
280.449967
 42
-0.067377
  0
VERTEX
  8
0
 10
232.814123
 20
280.131909
 42
-0.083909
  0
VERTEX
  8
0
 10
232.143011
 20
280.031803
 42
-0.031561
  0
VERTEX
  8
0
 10
231.309240
 20
280.100709
 42
-0.429122
  0
VERTEX
  8
0
 10
231.151244
 20
280.324602
 42
-0.174018
  0
VERTEX
  8
0
 10
231.370436
 20
280.689627
 42
-0.009469
  0
VERTEX
  8
0
 10
232.441130
 20
281.531803
 42
-0.005555
  0
VERTEX
  8
0
 10
234.086998
 20
282.748169
 42
-0.161867
  0
VERTEX
  8
0
 10
234.579354
 20
282.902845
 42
-0.495169
  0
VERTEX
  8
0
 10
234.754834
 20
282.664523
 42
-0.020389
  0
SEQEND
  0
POLYLINE
  8
0
 66
1
 70
1
  0
VERTEX
  8
0
 10
254.000000
 20
279.681530
 42
0.079796
  0
VERTEX
  8
0
 10
254.150331
 20
278.745557
 42
0.053111
  0
VERTEX
  8
0
 10
254.598898
 20
277.753453
 42
0.052211
  0
VERTEX
  8
0
 10
255.258843
 20
276.857913
 42
0.068392
  0
VERTEX
  8
0
 10
256.038803
 20
276.207840
 42
-0.045332
  0
VERTEX
  8
0
 10
256.775231
 20
275.649340
 42
-0.065043
  0
VERTEX
  8
0
 10
257.303098
 20
275.024462
 42
-0.084792
  0
VERTEX
  8
0
 10
257.554974
 20
274.432614
 42
-0.199264
  0
VERTEX
  8
0
 10
257.479786
 20
273.967293
 42
-0.199397
  0
VERTEX
  8
0
 10
256.407988
 20
273.196301
 42
-0.081404
  0
VERTEX
  8
0
 10
254.582922
 20
273.072901
 42
-0.060845
  0
VERTEX
  8
0
 10
252.256316
 20
273.584579
 42
-0.038078
  0
VERTEX
  8
0
 10
249.700340
 20
274.708084
 42
0.018345
  0
VERTEX
  8
0
 10
248.352779
 20
275.364978
 42
0.017931
  0
VERTEX
  8
0
 10
246.950517
 20
275.926732
 42
0.018150
  0
VERTEX
  8
0
 10
245.686061
 20
276.330201
 42
0.061937
  0
VERTEX
  8
0
 10
244.833333
 20
276.458084
 42
-0.032448
  0
VERTEX
  8
0
 10
244.149864
 20
276.519775
 42
-0.031665
  0
VERTEX
  8
0
 10
243.474392
 20
276.669545
 42
-0.033306
  0
VERTEX
  8
0
 10
242.899966
 20
276.877987
 42
-0.092945
  0
VERTEX
  8
0
 10
242.547576
 20
277.119091
 42
-0.492097
  0
VERTEX
  8
0
 10
242.652176
 20
277.924100
 42
-0.022458
  0
VERTEX
  8
0
 10
245.493584
 20
279.410838
 42
-0.021845
  0
VERTEX
  8
0
 10
248.582794
 20
280.693238
 42
-0.229761
  0
VERTEX
  8
0
 10
249.906290
 20
280.557916
 42
0.169858
  0
VERTEX
  8
0
 10
250.290018
 20
280.473287
 42
0.120421
  0
VERTEX
  8
0
 10
250.706295
 20
280.629557
 42
0.091291
  0
VERTEX
  8
0
 10
251.093978
 20
281.013758
 42
0.060429
  0
VERTEX
  8
0
 10
251.388152
 20
281.569126
 42
-0.159942
  0
VERTEX
  8
0
 10
252.116668
 20
282.463402
 42
-0.308185
  0
VERTEX
  8
0
 10
252.999644
 20
282.438756
 42
-0.164583
  0
VERTEX
  8
0
 10
253.748837
 20
281.386560
 42
-0.073258
  0
SEQEND
  0
POLYLINE
  8
0
 66
1
 70
1
  0
VERTEX
  8
0
 10
313.000000
 20
279.000000
 42
-0.099038
  0
VERTEX
  8
0
 10
312.923658
 20
278.618362
 42
-0.097945
  0
VERTEX
  8
0
 10
312.706250
 20
278.293750
 42
-0.097945
  0
VERTEX
  8
0
 10
312.381638
 20
278.076342
 42
-0.099038
  0
VERTEX
  8
0
 10
312.000000
 20
278.000000
 42
0.125138
  0
VERTEX
  8
0
 10
311.618624
 20
277.903033
 42
0.100780
  0
VERTEX
  8
0
 10
311.293750
 20
277.630036
 42
0.090277
  0
VERTEX
  8
0
 10
311.075410
 20
277.221677
 42
0.077892
  0
VERTEX
  8
0
 10
311.000000
 20
276.740547
 42
-0.120077
  0
VERTEX
  8
0
 10
310.861011
 20
276.170139
 42
-0.047885
  0
VERTEX
  8
0
 10
310.421245
 20
275.489619
 42
-0.043794
  0
VERTEX
  8
0
 10
309.783574
 20
274.814585
 42
-0.042043
  0
VERTEX
  8
0
 10
309.029769
 20
274.250664
 42
-0.032358
  0
VERTEX
  8
0
 10
307.938092
 20
273.663383
 42
-0.155945
  0
VERTEX
  8
0
 10
307.246658
 20
273.580386
 42
-0.178863
  0
VERTEX
  8
0
 10
306.689943
 20
273.917067
 42
-0.045406
  0
VERTEX
  8
0
 10
306.099545
 20
274.813999
 42
-0.057086
  0
VERTEX
  8
0
 10
305.768327
 20
275.649685
 42
-0.062428
  0
VERTEX
  8
0
 10
305.647820
 20
276.513520
 42
-0.066027
  0
VERTEX
  8
0
 10
305.745372
 20
277.336757
 42
-0.078733
  0
VERTEX
  8
0
 10
306.054463
 20
278.053882
 42
-0.011214
  0
VERTEX
  8
0
 10
306.557921
 20
278.811500
 42
-0.224226
  0
VERTEX
  8
0
 10
306.792541
 20
278.946051
 42
-0.408101
  0
VERTEX
  8
0
 10
306.946149
 20
278.817873
 42
-0.022327
  0
VERTEX
  8
0
 10
306.984687
 20
278.128028
 42
0.100798
  0
VERTEX
  8
0
 10
307.112639
 20
277.533775
 42
0.321648
  0
VERTEX
  8
0
 10
307.442283
 20
277.338228
 42
0.116923
  0
VERTEX
  8
0
 10
308.054644
 20
277.541005
 42
0.014133
  0
VERTEX
  8
0
 10
309.250000
 20
278.325576
 42
-0.018517
  0
VERTEX
  8
0
 10
311.010032
 20
279.458824
 42
-0.089510
  0
VERTEX
  8
0
 10
312.120214
 20
279.872255
 42
-0.253191
  0
VERTEX
  8
0
 10
312.733479
 20
279.670375
 42
-0.191496
  0
SEQEND
  0
POLYLINE
  8
0
 66
1
 70
1
  0
VERTEX
  8
0
 10
321.000000
 20
271.940983
 42
-0.087308
  0
VERTEX
  8
0
 10
320.936779
 20
271.581686
 42
-0.094392
  0
VERTEX
  8
0
 10
320.755208
 20
271.276414
 42
-0.100145
  0
VERTEX
  8
0
 10
320.484563
 20
271.072214
 42
-0.112153
  0
VERTEX
  8
0
 10
320.166667
 20
271.000000
 42
-0.170324
  0
VERTEX
  8
0
 10
319.848724
 20
271.111542
 42
-0.094314
  0
VERTEX
  8
0
 10
319.578125
 20
271.427703
 42
-0.074868
  0
VERTEX
  8
0
 10
319.395108
 20
271.899039
 42
-0.055286
  0
VERTEX
  8
0
 10
319.333333
 20
272.456011
 42
-0.057730
  0
VERTEX
  8
0
 10
319.393656
 20
272.976727
 42
-0.124167
  0
VERTEX
  8
0
 10
319.578125
 20
273.333030
 42
-0.190804
  0
VERTEX
  8
0
 10
319.850897
 20
273.471218
 42
-0.162770
  0
VERTEX
  8
0
 10
320.166667
 20
273.396994
 42
-0.071639
  0
VERTEX
  8
0
 10
320.485481
 20
273.130304
 42
-0.052880
  0
VERTEX
  8
0
 10
320.755208
 20
272.756842
 42
-0.053298
  0
VERTEX
  8
0
 10
320.938439
 20
272.339084
 42
-0.076861
  0
SEQEND
  0
POLYLINE
  8
0
 66
1
 70
1
  0
VERTEX
  8
0
 10
266.342166
 20
266.200445
 42
-0.115613
  0
VERTEX
  8
0
 10
265.584381
 20
264.765889
 42
-0.048490
  0
VERTEX
  8
0
 10
263.988134
 20
263.255679
 42
-0.074172
  0
VERTEX
  8
0
 10
262.550018
 20
262.446089
 42
-0.525532
  0
VERTEX
  8
0
 10
262.000000
 20
262.824859
 42
-0.071393
  0
VERTEX
  8
0
 10
262.054075
 20
263.201644
 42
-0.038825
  0
VERTEX
  8
0
 10
262.220312
 20
263.639698
 42
-0.037742
  0
VERTEX
  8
0
 10
262.462939
 20
264.067651
 42
-0.048585
  0
VERTEX
  8
0
 10
262.750000
 20
264.416667
 42
0.044385
  0
VERTEX
  8
0
 10
263.046350
 20
264.770882
 42
0.031142
  0
VERTEX
  8
0
 10
263.316406
 20
265.215625
 42
0.031558
  0
VERTEX
  8
0
 10
263.523023
 20
265.677860
 42
0.055489
  0
VERTEX
  8
0
 10
263.625000
 20
266.083333
 42
-0.019687
  0
VERTEX
  8
0
 10
263.823693
 20
267.207780
 42
-0.134443
  0
VERTEX
  8
0
 10
264.082004
 20
267.702080
 42
-0.170540
  0
VERTEX
  8
0
 10
264.525811
 20
267.935469
 42
-0.036593
  0
VERTEX
  8
0
 10
265.406380
 20
268.000000
 42
-0.118760
  0
VERTEX
  8
0
 10
265.947288
 20
267.869685
 42
-0.155855
  0
VERTEX
  8
0
 10
266.305604
 20
267.513762
 42
-0.123282
  0
VERTEX
  8
0
 10
266.441826
 20
266.942791
 42
-0.061240
  0
SEQEND
  0
POLYLINE
  8
0
 66
1
 70
1
  0
VERTEX
  8
0
 10
153.187086
 20
242.000000
 42
-0.012192
  0
VERTEX
  8
0
 10
154.150737
 20
240.846236
 42
-0.023661
  0
VERTEX
  8
0
 10
154.852449
 20
239.871908
 42
-0.027489
  0
VERTEX
  8
0
 10
155.266685
 20
239.151570
 42
-0.542913
  0
VERTEX
  8
0
 10
155.159770
 20
238.968197
 42
0.416097
  0
VERTEX
  8
0
 10
155.047742
 20
238.844021
 42
0.133256
  0
VERTEX
  8
0
 10
155.134433
 20
238.582024
 42
0.052599
  0
VERTEX
  8
0
 10
155.468805
 20
238.176557
 42
0.021511
  0
VERTEX
  8
0
 10
156.000000
 20
237.698225
 42
-0.034935
  0
VERTEX
  8
0
 10
156.663125
 20
237.068075
 42
-0.017005
  0
VERTEX
  8
0
 10
157.422264
 20
236.179567
 42
-0.016777
  0
VERTEX
  8
0
 10
158.152825
 20
235.197290
 42
-0.023235
  0
VERTEX
  8
0
 10
158.735367
 20
234.267029
 42
-0.010171
  0
VERTEX
  8
0
 10
159.373735
 20
233.077862
 42
-0.135981
  0
VERTEX
  8
0
 10
159.472286
 20
232.596694
 42
-0.436777
  0
VERTEX
  8
0
 10
159.259630
 20
232.425111
 42
-0.055484
  0
VERTEX
  8
0
 10
158.620817
 20
232.592012
 42
-0.093432
  0
VERTEX
  8
0
 10
158.024839
 20
232.959651
 42
-0.034526
  0
VERTEX
  8
0
 10
157.340197
 20
233.676073
 42
-0.032753
  0
VERTEX
  8
0
 10
156.682768
 20
234.581149
 42
-0.033814
  0
VERTEX
  8
0
 10
156.156889
 20
235.555012
 42
0.032209
  0
VERTEX
  8
0
 10
155.655378
 20
236.490912
 42
0.040423
  0
VERTEX
  8
0
 10
155.070071
 20
237.281785
 42
0.045135
  0
VERTEX
  8
0
 10
154.489711
 20
237.836340
 42
0.169716
  0
VERTEX
  8
0
 10
154.021439
 20
238.000000
 42
-0.104029
  0
VERTEX
  8
0
 10
153.631689
 20
238.081977
 42
-0.098986
  0
VERTEX
  8
0
 10
153.300048
 20
238.314732
 42
-0.096694
  0
VERTEX
  8
0
 10
153.077794
 20
238.662452
 42
-0.094263
  0
VERTEX
  8
0
 10
153.000000
 20
239.071429
 42
0.144414
  0
VERTEX
  8
0
 10
152.656206
 20
240.236915
 42
0.059313
  0
VERTEX
  8
0
 10
151.594060
 20
241.518152
 42
0.065168
  0
VERTEX
  8
0
 10
150.389387
 20
242.396461
 42
0.332840
  0
VERTEX
  8
0
 10
149.619048
 20
242.285714
 42
-0.229436
  0
VERTEX
  8
0
 10
149.386480
 20
242.204927
 42
-0.234237
  0
VERTEX
  8
0
 10
149.181845
 20
242.338095
 42
-0.098270
  0
VERTEX
  8
0
 10
149.042542
 20
242.734677
 42
-0.035486
  0
VERTEX
  8
0
 10
149.000000
 20
243.333333
 42
-0.113634
  0
VERTEX
  8
0
 10
149.280160
 20
244.550142
 42
-0.372551
  0
VERTEX
  8
0
 10
149.979990
 20
244.850124
 42
-0.118623
  0
VERTEX
  8
0
 10
151.198469
 20
244.112375
 42
-0.017499
  0
SEQEND
  0
POLYLINE
  8
0
 66
1
 70
1
  0
VERTEX
  8
0
 10
273.000000
 20
240.500000
 42
-0.060850
  0
VERTEX
  8
0
 10
272.929934
 20
239.926402
 42
-0.079459
  0
VERTEX
  8
0
 10
272.723586
 20
239.440625
 42
-0.097386
  0
VERTEX
  8
0
 10
272.417907
 20
239.115400
 42
-0.156819
  0
VERTEX
  8
0
 10
272.059017
 20
239.000000
 42
-0.139398
  0
VERTEX
  8
0
 10
271.230079
 20
239.235684
 42
-0.123736
  0
VERTEX
  8
0
 10
270.603969
 20
239.880661
 42
-0.139481
  0
VERTEX
  8
0
 10
270.401415
 20
240.683432
 42
-0.191124
  0
VERTEX
  8
0
 10
270.693853
 20
241.360520
 42
-0.094876
  0
VERTEX
  8
0
 10
271.508765
 20
241.913511
 42
-0.193400
  0
VERTEX
  8
0
 10
272.269246
 20
241.932483
 42
-0.202875
  0
VERTEX
  8
0
 10
272.806289
 20
241.424643
 42
-0.103624
  0
SEQEND
  0
POLYLINE
  8
0
 66
1
 70
1
  0
VERTEX
  8
0
 10
146.018999
 20
235.477108
 42
-0.008807
  0
VERTEX
  8
0
 10
146.707299
 20
234.617386
 42
-0.270710
  0
VERTEX
  8
0
 10
146.741192
 20
234.355597
 42
-0.389672
  0
VERTEX
  8
0
 10
146.541716
 20
234.264678
 42
-0.012731
  0
VERTEX
  8
0
 10
145.641444
 20
234.584097
 42
-0.044200
  0
VERTEX
  8
0
 10
145.013435
 20
234.891147
 42
-0.051260
  0
VERTEX
  8
0
 10
144.482174
 20
235.291272
 42
-0.058677
  0
VERTEX
  8
0
 10
144.117443
 20
235.719384
 42
-0.148172
  0
VERTEX
  8
0
 10
144.000000
 20
236.106989
 42
-0.097466
  0
VERTEX
  8
0
 10
144.129499
 20
236.765008
 42
-0.389178
  0
VERTEX
  8
0
 10
144.469452
 20
236.925000
 42
-0.127361
  0
VERTEX
  8
0
 10
145.053128
 20
236.562498
 42
-0.017238
  0
SEQEND
  0
POLYLINE
  8
0
 66
1
 70
1
  0
VERTEX
  8
0
 10
139.495259
 20
230.992329
 42
0.157085
  0
VERTEX
  8
0
 10
139.371718
 20
230.491725
 42
0.070398
  0
VERTEX
  8
0
 10
139.514778
 20
229.821308
 42
0.059573
  0
VERTEX
  8
0
 10
139.884165
 20
229.093771
 42
0.049186
  0
VERTEX
  8
0
 10
140.436242
 20
228.420901
 42
-0.043610
  0
VERTEX
  8
0
 10
141.573517
 20
227.065827
 42
-0.154855
  0
VERTEX
  8
0
 10
141.908688
 20
225.996708
 42
-0.153837
  0
VERTEX
  8
0
 10
141.567052
 20
224.925587
 42
-0.042867
  0
VERTEX
  8
0
 10
140.419380
 20
223.562237
 42
-0.085124
  0
VERTEX
  8
0
 10
139.075196
 20
222.611596
 42
-0.229754
  0
VERTEX
  8
0
 10
137.936475
 20
222.618371
 42
-0.260831
  0
VERTEX
  8
0
 10
137.337139
 20
223.489023
 42
-0.100315
  0
VERTEX
  8
0
 10
137.500000
 20
225.000000
 42
0.058170
  0
VERTEX
  8
0
 10
137.644789
 20
225.748324
 42
0.064695
  0
VERTEX
  8
0
 10
137.604883
 20
226.482561
 42
0.073852
  0
VERTEX
  8
0
 10
137.395323
 20
227.092491
 42
0.135531
  0
VERTEX
  8
0
 10
137.040677
 20
227.474860
 42
-0.144268
  0
VERTEX
  8
0
 10
136.214346
 20
228.396991
 42
-0.158036
  0
VERTEX
  8
0
 10
136.058280
 20
229.584964
 42
-0.152331
  0
VERTEX
  8
0
 10
136.630672
 20
230.670625
 42
-0.132684
  0
VERTEX
  8
0
 10
137.750000
 20
231.310674
 42
0.001737
  0
VERTEX
  8
0
 10
138.442778
 20
231.494290
 42
0.002252
  0
VERTEX
  8
0
 10
139.076711
 20
231.667734
 42
0.001693
  0
VERTEX
  8
0
 10
139.606771
 20
231.817263
 42
0.020196
  0
VERTEX
  8
0
 10
139.809017
 20
231.883999
 42
-0.518557
  0
VERTEX
  8
0
 10
139.872110
 20
231.841051
 42
-0.088914
  0
VERTEX
  8
0
 10
139.844320
 20
231.669921
 42
-0.037841
  0
VERTEX
  8
0
 10
139.713301
 20
231.371733
 42
-0.015986
  0
SEQEND
  0
POLYLINE
  8
0
 66
1
 70
1
  0
VERTEX
  8
0
 10
164.503323
 20
227.994623
 42
-0.147868
  0
VERTEX
  8
0
 10
164.689306
 20
227.295397
 42
-0.520917
  0
VERTEX
  8
0
 10
164.366903
 20
227.085700
 42
-0.076109
  0
VERTEX
  8
0
 10
163.263103
 20
227.740972
 42
-0.019544
  0
VERTEX
  8
0
 10
161.708187
 20
229.123409
 42
0.000000
  0
VERTEX
  8
0
 10
159.500000
 20
231.246819
 42
0.000000
  0
VERTEX
  8
0
 10
161.694306
 20
230.118032
 42
-0.021784
  0
VERTEX
  8
0
 10
162.579421
 20
229.612804
 42
-0.021265
  0
VERTEX
  8
0
 10
163.424607
 20
229.028656
 42
-0.021728
  0
VERTEX
  8
0
 10
164.121106
 20
228.452951
 42
-0.070878
  0
SEQEND
  0
POLYLINE
  8
0
 66
1
 70
1
  0
VERTEX
  8
0
 10
271.345077
 20
221.456872
 42
-0.035865
  0
VERTEX
  8
0
 10
271.083816
 20
220.899181
 42
-0.069269
  0
VERTEX
  8
0
 10
270.786868
 20
220.507038
 42
-0.118528
  0
VERTEX
  8
0
 10
270.505460
 20
220.335123
 42
-0.281567
  0
VERTEX
  8
0
 10
270.276326
 20
220.390341
 42
-0.156651
  0
VERTEX
  8
0
 10
270.142323
 20
220.651151
 42
-0.070517
  0
VERTEX
  8
0
 10
270.133355
 20
221.040231
 42
-0.059701
  0
VERTEX
  8
0
 10
270.242038
 20
221.490157
 42
-0.049364
  0
VERTEX
  8
0
 10
270.458881
 20
221.933469
 42
-0.030391
  0
VERTEX
  8
0
 10
271.120758
 20
222.871774
 42
-0.361950
  0
VERTEX
  8
0
 10
271.525317
 20
222.954259
 42
-0.344086
  0
VERTEX
  8
0
 10
271.696703
 20
222.564815
 42
-0.029555
  0
SEQEND
  0
POLYLINE
  8
0
 66
1
 70
1
  0
VERTEX
  8
0
 10
324.039838
 20
219.979676
 42
-0.022178
  0
VERTEX
  8
0
 10
325.561890
 20
219.116084
 42
-0.029361
  0
VERTEX
  8
0
 10
326.859178
 20
218.191605
 42
-0.029660
  0
VERTEX
  8
0
 10
327.810700
 20
217.327728
 42
-0.179955
  0
VERTEX
  8
0
 10
328.076511
 20
216.729676
 42
0.013233
  0
VERTEX
  8
0
 10
328.129545
 20
216.132697
 42
0.005575
  0
VERTEX
  8
0
 10
328.230948
 20
215.333578
 42
0.005512
  0
VERTEX
  8
0
 10
328.358326
 20
214.481497
 42
0.007155
  0
VERTEX
  8
0
 10
328.494811
 20
213.703781
 42
-0.080340
  0
VERTEX
  8
0
 10
328.519772
 20
212.802825
 42
-0.254009
  0
VERTEX
  8
0
 10
328.175852
 20
212.331263
 42
-0.129210
  0
VERTEX
  8
0
 10
327.371611
 20
212.179784
 42
-0.017923
  0
VERTEX
  8
0
 10
325.668300
 20
212.362169
 42
-0.001096
  0
VERTEX
  8
0
 10
324.427442
 20
212.542991
 42
-0.001541
  0
VERTEX
  8
0
 10
323.321282
 20
212.710146
 42
-0.000898
  0
VERTEX
  8
0
 10
322.389073
 20
212.855669
 42
-0.021137
  0
VERTEX
  8
0
 10
322.127555
 20
212.908388
 42
-0.435246
  0
VERTEX
  8
0
 10
322.057871
 20
213.033385
 42
-0.043731
  0
VERTEX
  8
0
 10
322.206583
 20
213.385255
 42
-0.033501
  0
VERTEX
  8
0
 10
322.499337
 20
213.858226
 42
-0.017876
  0
VERTEX
  8
0
 10
322.919594
 20
214.403117
 42
0.107943
  0
VERTEX
  8
0
 10
323.351531
 20
215.237532
 42
0.146893
  0
VERTEX
  8
0
 10
323.327026
 20
216.079884
 42
0.086126
  0
VERTEX
  8
0
 10
322.783050
 20
217.093351
 42
0.020745
  0
VERTEX
  8
0
 10
321.542039
 20
218.549140
 42
-0.008083
  0
VERTEX
  8
0
 10
319.012807
 20
221.368292
 42
-0.472540
  0
VERTEX
  8
0
 10
319.114427
 20
221.968199
 42
-0.247845
  0
VERTEX
  8
0
 10
319.983673
 20
221.997956
 42
-0.005016
  0
SEQEND
  0
POLYLINE
  8
0
 66
1
 70
1
  0
VERTEX
  8
0
 10
314.500000
 20
214.000000
 42
-0.064269
  0
VERTEX
  8
0
 10
314.189439
 20
213.617474
 42
-0.051777
  0
VERTEX
  8
0
 10
313.769763
 20
213.293750
 42
-0.053414
  0
VERTEX
  8
0
 10
313.310186
 20
213.073533
 42
-0.085235
  0
VERTEX
  8
0
 10
312.881966
 20
213.000000
 42
-0.117858
  0
VERTEX
  8
0
 10
312.550471
 20
213.079239
 42
-0.186277
  0
VERTEX
  8
0
 10
312.357263
 20
213.293750
 42
-0.154201
  0
VERTEX
  8
0
 10
312.338175
 20
213.617617
 42
-0.076764
  0
VERTEX
  8
0
 10
312.500000
 20
214.000000
 42
-0.064269
  0
VERTEX
  8
0
 10
312.810561
 20
214.382526
 42
-0.051777
  0
VERTEX
  8
0
 10
313.230237
 20
214.706250
 42
-0.053414
  0
VERTEX
  8
0
 10
313.689814
 20
214.926467
 42
-0.085235
  0
VERTEX
  8
0
 10
314.118034
 20
215.000000
 42
-0.117858
  0
VERTEX
  8
0
 10
314.449529
 20
214.920761
 42
-0.186277
  0
VERTEX
  8
0
 10
314.642737
 20
214.706250
 42
-0.154201
  0
VERTEX
  8
0
 10
314.661825
 20
214.382383
 42
-0.076764
  0
SEQEND
  0
POLYLINE
  8
0
 66
1
 70
1
  0
VERTEX
  8
0
 10
166.900680
 20
207.217880
 42
0.013748
  0
VERTEX
  8
0
 10
165.542379
 20
206.209714
 42
0.203956
  0
VERTEX
  8
0
 10
165.263113
 20
205.701428
 42
0.242999
  0
VERTEX
  8
0
 10
165.462166
 20
205.198318
 42
0.019619
  0
VERTEX
  8
0
 10
166.605612
 20
204.277322
 42
-0.028058
  0
VERTEX
  8
0
 10
167.705390
 20
203.360488
 42
-0.254044
  0
VERTEX
  8
0
 10
167.896717
 20
202.787378
 42
-0.169262
  0
VERTEX
  8
0
 10
167.549027
 20
202.166812
 42
-0.011824
  0
VERTEX
  8
0
 10
166.000000
 20
200.859163
 42
0.001862
  0
VERTEX
  8
0
 10
164.893927
 20
199.962565
 42
0.001244
  0
VERTEX
  8
0
 10
163.634138
 20
198.928329
 42
0.001252
  0
VERTEX
  8
0
 10
162.417891
 20
197.919633
 42
0.002463
  0
VERTEX
  8
0
 10
161.456639
 20
197.110287
 42
-0.019089
  0
VERTEX
  8
0
 10
160.550401
 20
196.397370
 42
-0.014943
  0
VERTEX
  8
0
 10
159.516488
 20
195.692295
 42
-0.015192
  0
VERTEX
  8
0
 10
158.513587
 20
195.093520
 42
-0.035378
  0
VERTEX
  8
0
 10
157.721272
 20
194.723284
 42
-0.020236
  0
VERTEX
  8
0
 10
156.789731
 20
194.408427
 42
-0.398061
  0
VERTEX
  8
0
 10
156.543368
 20
194.534253
 42
-0.218623
  0
VERTEX
  8
0
 10
156.576421
 20
194.902417
 42
-0.009560
  0
VERTEX
  8
0
 10
157.255180
 20
196.037000
 42
-0.028569
  0
VERTEX
  8
0
 10
157.786387
 20
196.788415
 42
-0.034793
  0
VERTEX
  8
0
 10
158.368550
 20
197.423369
 42
-0.037319
  0
VERTEX
  8
0
 10
158.918711
 20
197.872448
 42
-0.153688
  0
VERTEX
  8
0
 10
159.323880
 20
198.000000
 42
0.163508
  0
VERTEX
  8
0
 10
159.611827
 20
198.096750
 42
0.143312
  0
VERTEX
  8
0
 10
159.801530
 20
198.352705
 42
0.105791
  0
VERTEX
  8
0
 10
159.857218
 20
198.741316
 42
0.063406
  0
VERTEX
  8
0
 10
159.766434
 20
199.200699
 42
-0.179283
  0
VERTEX
  8
0
 10
159.787909
 20
199.850332
 42
-0.035087
  0
VERTEX
  8
0
 10
160.313868
 20
200.917311
 42
-0.033218
  0
VERTEX
  8
0
 10
161.139406
 20
202.138245
 42
-0.025449
  0
VERTEX
  8
0
 10
162.192069
 20
203.358397
 42
0.016259
  0
VERTEX
  8
0
 10
163.239217
 20
204.528007
 42
0.026395
  0
VERTEX
  8
0
 10
164.040877
 20
205.593739
 42
0.024510
  0
VERTEX
  8
0
 10
164.568646
 20
206.467976
 42
0.331256
  0
VERTEX
  8
0
 10
164.517644
 20
206.815689
 42
-0.317436
  0
VERTEX
  8
0
 10
164.375277
 20
207.641855
 42
-0.112470
  0
VERTEX
  8
0
 10
165.160206
 20
208.636478
 42
-0.089729
  0
VERTEX
  8
0
 10
166.454121
 20
209.342865
 42
-0.173495
  0
VERTEX
  8
0
 10
167.618181
 20
209.316276
 42
-0.079529
  0
VERTEX
  8
0
 10
168.237644
 20
208.957362
 42
-0.313836
  0
VERTEX
  8
0
 10
168.352435
 20
208.556258
 42
-0.140828
  0
VERTEX
  8
0
 10
167.994186
 20
208.042897
 42
-0.017673
  0
SEQEND
  0
POLYLINE
  8
0
 66
1
 70
1
  0
VERTEX
  8
0
 10
312.995097
 20
203.751541
 42
0.019283
  0
VERTEX
  8
0
 10
311.991243
 20
201.947665
 42
0.096490
  0
VERTEX
  8
0
 10
311.676502
 20
200.840086
 42
0.128805
  0
VERTEX
  8
0
 10
311.846827
 20
199.857938
 42
0.045807
  0
VERTEX
  8
0
 10
312.559768
 20
198.611207
 42
-0.042741
  0
VERTEX
  8
0
 10
313.654484
 20
196.723764
 42
-0.127548
  0
VERTEX
  8
0
 10
313.929093
 20
195.267858
 42
-0.230661
  0
VERTEX
  8
0
 10
313.412647
 20
194.367309
 42
-0.152533
  0
VERTEX
  8
0
 10
312.250000
 20
194.015313
 42
-0.015581
  0
VERTEX
  8
0
 10
311.371676
 20
194.050384
 42
-0.274898
  0
VERTEX
  8
0
 10
311.147413
 20
194.206329
 42
-0.351045
  0
VERTEX
  8
0
 10
311.206782
 20
194.440234
 42
-0.020555
  0
VERTEX
  8
0
 10
311.853245
 20
194.888139
 42
0.078174
  0
VERTEX
  8
0
 10
312.482281
 20
195.440784
 42
0.170759
  0
VERTEX
  8
0
 10
312.702813
 20
196.034471
 42
0.107743
  0
VERTEX
  8
0
 10
312.544305
 20
196.827624
 42
0.021887
  0
VERTEX
  8
0
 10
311.909566
 20
198.122826
 42
-0.080596
  0
VERTEX
  8
0
 10
311.213826
 20
200.098480
 42
-0.036791
  0
VERTEX
  8
0
 10
310.928457
 20
202.827174
 42
-0.036312
  0
VERTEX
  8
0
 10
311.040386
 20
205.494461
 42
-0.109289
  0
VERTEX
  8
0
 10
311.631038
 20
207.206326
 42
-0.158509
  0
VERTEX
  8
0
 10
311.900807
 20
207.436533
 42
-0.075365
  0
VERTEX
  8
0
 10
312.349074
 20
207.546985
 42
-0.063133
  0
VERTEX
  8
0
 10
312.898448
 20
207.527771
 42
-0.051382
  0
VERTEX
  8
0
 10
313.467355
 20
207.374154
 42
-0.128483
  0
VERTEX
  8
0
 10
314.069580
 20
206.942423
 42
-0.208674
  0
VERTEX
  8
0
 10
314.241833
 20
206.347453
 42
-0.090136
  0
VERTEX
  8
0
 10
313.945122
 20
205.419321
 42
-0.014295
  0
SEQEND
  0
POLYLINE
  8
0
 66
1
 70
1
  0
VERTEX
  8
0
 10
205.000000
 20
199.115010
 42
-0.170250
  0
VERTEX
  8
0
 10
204.843517
 20
198.668763
 42
-0.028652
  0
VERTEX
  8
0
 10
204.229457
 20
197.985107
 42
-0.028520
  0
VERTEX
  8
0
 10
203.381293
 20
197.234183
 42
-0.021903
  0
VERTEX
  8
0
 10
202.376876
 20
196.511283
 42
-0.012202
  0
VERTEX
  8
0
 10
201.243441
 20
195.807547
 42
-0.082836
  0
VERTEX
  8
0
 10
200.629837
 20
195.572415
 42
-0.488785
  0
VERTEX
  8
0
 10
200.452521
 20
195.724400
 42
-0.126177
  0
VERTEX
  8
0
 10
200.582157
 20
196.146273
 42
-0.032414
  0
VERTEX
  8
0
 10
202.108032
 20
198.311154
 42
-0.075229
  0
VERTEX
  8
0
 10
203.568864
 20
199.649998
 42
-0.230890
  0
VERTEX
  8
0
 10
204.516699
 20
199.781491
 42
-0.324417
  0
SEQEND
  0
POLYLINE
  8
0
 66
1
 70
1
  0
VERTEX
  8
0
 10
195.943859
 20
183.000000
 42
-0.152672
  0
VERTEX
  8
0
 10
196.426237
 20
182.849194
 42
-0.010118
  0
VERTEX
  8
0
 10
197.618224
 20
181.986938
 42
-0.013879
  0
VERTEX
  8
0
 10
199.012835
 20
180.872406
 42
-0.009894
  0
VERTEX
  8
0
 10
200.513741
 20
179.551279
 42
0.020336
  0
VERTEX
  8
0
 10
202.104377
 20
178.209060
 42
0.021523
  0
VERTEX
  8
0
 10
203.769831
 20
177.027119
 42
0.021751
  0
VERTEX
  8
0
 10
205.284651
 20
176.138217
 42
0.085202
  0
VERTEX
  8
0
 10
206.311106
 20
175.801279
 42
-0.053263
  0
VERTEX
  8
0
 10
207.119447
 20
175.591770
 42
-0.052551
  0
VERTEX
  8
0
 10
207.869208
 20
175.215588
 42
-0.057319
  0
VERTEX
  8
0
 10
208.453408
 20
174.738751
 42
-0.113871
  0
VERTEX
  8
0
 10
208.761502
 20
174.230509
 42
-0.123488
  0
VERTEX
  8
0
 10
208.801051
 20
173.685700
 42
-0.361950
  0
VERTEX
  8
0
 10
208.534460
 20
173.459798
 42
-0.095465
  0
VERTEX
  8
0
 10
207.840254
 20
173.587520
 42
-0.010523
  0
VERTEX
  8
0
 10
206.339830
 20
174.210155
 42
-0.015720
  0
VERTEX
  8
0
 10
205.207781
 20
174.751187
 42
-0.017588
  0
VERTEX
  8
0
 10
204.154483
 20
175.343738
 42
-0.017126
  0
VERTEX
  8
0
 10
203.297862
 20
175.907253
 42
-0.083698
  0
VERTEX
  8
0
 10
202.888197
 20
176.315056
 42
0.041856
  0
VERTEX
  8
0
 10
202.625484
 20
176.624231
 42
0.059785
  0
VERTEX
  8
0
 10
202.342078
 20
176.845720
 42
0.076917
  0
VERTEX
  8
0
 10
202.081865
 20
176.952807
 42
0.205516
  0
VERTEX
  8
0
 10
201.888197
 20
176.919860
 42
-0.246118
  0
VERTEX
  8
0
 10
201.416068
 20
176.876657
 42
-0.001961
  0
VERTEX
  8
0
 10
197.818051
 20
178.378031
 42
-0.005620
  0
VERTEX
  8
0
 10
194.500313
 20
179.821891
 42
-0.052569
  0
VERTEX
  8
0
 10
193.154839
 20
180.604375
 42
-0.261007
  0
VERTEX
  8
0
 10
193.049439
 20
180.835184
 42
-0.011135
  0
VERTEX
  8
0
 10
193.146290
 20
181.758475
 42
-0.016639
  0
VERTEX
  8
0
 10
193.328522
 20
182.887260
 42
-0.010808
  0
VERTEX
  8
0
 10
193.610428
 20
184.178494
 42
-0.004821
  0
VERTEX
  8
0
 10
194.081114
 20
186.051440
 42
-0.143779
  0
VERTEX
  8
0
 10
194.330068
 20
186.465393
 42
-0.574218
  0
VERTEX
  8
0
 10
194.548414
 20
186.398150
 42
-0.017297
  0
VERTEX
  8
0
 10
194.775140
 20
185.250000
 42
0.032900
  0
VERTEX
  8
0
 10
194.973378
 20
184.388408
 42
0.046821
  0
VERTEX
  8
0
 10
195.268585
 20
183.660937
 42
0.056625
  0
VERTEX
  8
0
 10
195.609242
 20
183.154570
 42
0.219807
  0
SEQEND
  0
POLYLINE
  8
0
 66
1
 70
1
  0
VERTEX
  8
0
 10
207.000000
 20
184.429632
 42
-0.439016
  0
VERTEX
  8
0
 10
206.867419
 20
184.307737
 42
-0.048507
  0
VERTEX
  8
0
 10
206.412500
 20
184.390928
 42
-0.035050
  0
VERTEX
  8
0
 10
205.767478
 20
184.624831
 42
-0.018363
  0
VERTEX
  8
0
 10
205.000000
 20
185.000000
 42
-0.018122
  0
VERTEX
  8
0
 10
204.233921
 20
185.446431
 42
-0.025446
  0
VERTEX
  8
0
 10
203.587500
 20
185.902822
 42
-0.023718
  0
VERTEX
  8
0
 10
203.108693
 20
186.316932
 42
-0.205392
  0
VERTEX
  8
0
 10
203.000000
 20
186.570368
 42
-0.439016
  0
VERTEX
  8
0
 10
203.132581
 20
186.692263
 42
-0.048507
  0
VERTEX
  8
0
 10
203.587500
 20
186.609072
 42
-0.035050
  0
VERTEX
  8
0
 10
204.232522
 20
186.375169
 42
-0.018363
  0
VERTEX
  8
0
 10
205.000000
 20
186.000000
 42
-0.018122
  0
VERTEX
  8
0
 10
205.766079
 20
185.553569
 42
-0.025446
  0
VERTEX
  8
0
 10
206.412500
 20
185.097178
 42
-0.023718
  0
VERTEX
  8
0
 10
206.891307
 20
184.683068
 42
-0.205392
  0
SEQEND
  0
POLYLINE
  8
0
 66
1
 70
1
  0
VERTEX
  8
0
 10
193.065741
 20
175.964816
 42
-0.038016
  0
VERTEX
  8
0
 10
193.805901
 20
175.493116
 42
-0.043338
  0
VERTEX
  8
0
 10
194.431812
 20
174.932967
 42
-0.048219
  0
VERTEX
  8
0
 10
194.865799
 20
174.371237
 42
-0.141289
  0
VERTEX
  8
0
 10
195.000000
 20
173.905799
 42
-0.098330
  0
VERTEX
  8
0
 10
194.930944
 20
173.558049
 42
-0.175648
  0
VERTEX
  8
0
 10
194.736823
 20
173.345369
 42
-0.169854
  0
VERTEX
  8
0
 10
194.446034
 20
173.302389
 42
-0.091207
  0
VERTEX
  8
0
 10
194.104078
 20
173.435676
 42
0.164287
  0
VERTEX
  8
0
 10
193.579256
 20
173.557403
 42
0.035372
  0
VERTEX
  8
0
 10
192.646361
 20
173.398734
 42
0.033369
  0
VERTEX
  8
0
 10
191.540647
 20
173.049537
 42
0.026498
  0
VERTEX
  8
0
 10
190.399741
 20
172.532363
 42
-0.019512
  0
VERTEX
  8
0
 10
188.380594
 20
171.582872
 42
-0.159275
  0
VERTEX
  8
0
 10
187.378014
 20
171.497805
 42
-0.434596
  0
VERTEX
  8
0
 10
187.089154
 20
172.002773
 42
-0.066293
  0
VERTEX
  8
0
 10
187.634552
 20
173.183469
 42
0.016030
  0
VERTEX
  8
0
 10
187.964428
 20
173.742541
 42
0.015030
  0
VERTEX
  8
0
 10
188.265362
 20
174.333581
 42
0.015194
  0
VERTEX
  8
0
 10
188.500465
 20
174.873760
 42
0.048832
  0
VERTEX
  8
0
 10
188.609687
 20
175.250000
 42
-0.015483
  0
VERTEX
  8
0
 10
188.835057
 20
176.277547
 42
-0.112242
  0
VERTEX
  8
0
 10
189.062801
 20
176.725426
 42
-0.171948
  0
VERTEX
  8
0
 10
189.417749
 20
176.936392
 42
-0.048963
  0
VERTEX
  8
0
 10
190.065741
 20
177.000000
 42
-0.063338
  0
VERTEX
  8
0
 10
190.604963
 20
176.931418
 42
-0.019816
  0
VERTEX
  8
0
 10
191.386610
 20
176.695915
 42
-0.019450
  0
VERTEX
  8
0
 10
192.246988
 20
176.361054
 42
-0.020338
  0
SEQEND
  0
POLYLINE
  8
0
 66
1
 70
1
  0
VERTEX
  8
0
 10
282.489919
 20
174.983688
 42
-0.083440
  0
VERTEX
  8
0
 10
282.184813
 20
174.635866
 42
-0.092847
  0
VERTEX
  8
0
 10
281.793158
 20
174.422376
 42
-0.100558
  0
VERTEX
  8
0
 10
281.376993
 20
174.374953
 42
-0.117181
  0
VERTEX
  8
0
 10
281.000000
 20
174.500000
 42
0.117181
  0
VERTEX
  8
0
 10
280.623007
 20
174.625047
 42
0.100558
  0
VERTEX
  8
0
 10
280.206842
 20
174.577624
 42
0.092847
  0
VERTEX
  8
0
 10
279.815187
 20
174.364134
 42
0.083440
  0
VERTEX
  8
0
 10
279.510081
 20
174.016312
 42
-0.062206
  0
VERTEX
  8
0
 10
279.197104
 20
173.627554
 42
-0.051351
  0
VERTEX
  8
0
 10
278.778480
 20
173.298542
 42
-0.053325
  0
VERTEX
  8
0
 10
278.322988
 20
173.074599
 42
-0.087824
  0
VERTEX
  8
0
 10
277.901556
 20
173.000000
 42
-0.244570
  0
VERTEX
  8
0
 10
277.648779
 20
173.131510
 42
-0.207831
  0
VERTEX
  8
0
 10
277.587911
 20
173.429452
 42
-0.092669
  0
VERTEX
  8
0
 10
277.783037
 20
173.899973
 42
-0.036227
  0
VERTEX
  8
0
 10
278.210573
 20
174.461963
 42
-0.104344
  0
VERTEX
  8
0
 10
279.521333
 20
175.438061
 42
-0.077865
  0
VERTEX
  8
0
 10
281.259841
 20
175.931837
 42
-0.171700
  0
VERTEX
  8
0
 10
282.323917
 20
175.695269
 42
-0.412670
  0
SEQEND
  0
POLYLINE
  8
0
 66
1
 70
1
  0
VERTEX
  8
0
 10
276.000000
 20
172.559017
 42
-0.151918
  0
VERTEX
  8
0
 10
275.934461
 20
172.348290
 42
-0.038439
  0
VERTEX
  8
0
 10
275.706250
 20
172.066025
 42
-0.035638
  0
VERTEX
  8
0
 10
275.382774
 20
171.768994
 42
-0.029505
  0
VERTEX
  8
0
 10
275.000000
 20
171.500000
 42
-0.082592
  0
VERTEX
  8
0
 10
274.617900
 20
171.343488
 42
-0.161196
  0
VERTEX
  8
0
 10
274.293750
 20
171.374600
 42
-0.182303
  0
VERTEX
  8
0
 10
274.078288
 20
171.586039
 42
-0.108972
  0
VERTEX
  8
0
 10
274.000000
 20
171.940983
 42
-0.093332
  0
VERTEX
  8
0
 10
274.076123
 20
172.345238
 42
-0.096420
  0
VERTEX
  8
0
 10
274.293750
 20
172.688914
 42
-0.099167
  0
VERTEX
  8
0
 10
274.618444
 20
172.918938
 42
-0.105053
  0
VERTEX
  8
0
 10
275.000000
 20
173.000000
 42
-0.042167
  0
VERTEX
  8
0
 10
275.382849
 20
172.967655
 42
-0.061769
  0
VERTEX
  8
0
 10
275.706250
 20
172.870461
 42
-0.081139
  0
VERTEX
  8
0
 10
275.925540
 20
172.727648
 42
-0.210953
  0
SEQEND
  0
POLYLINE
  8
0
 66
1
 70
1
  0
VERTEX
  8
0
 10
270.750000
 20
170.607954
 42
0.035693
  0
VERTEX
  8
0
 10
270.080346
 20
170.019838
 42
0.037658
  0
VERTEX
  8
0
 10
269.514063
 20
169.352276
 42
0.040583
  0
VERTEX
  8
0
 10
269.120335
 20
168.705885
 42
0.117023
  0
VERTEX
  8
0
 10
269.000000
 20
168.198774
 42
-0.086967
  0
VERTEX
  8
0
 10
268.918685
 20
167.734802
 42
-0.053361
  0
VERTEX
  8
0
 10
268.674779
 20
167.234504
 42
-0.051496
  0
VERTEX
  8
0
 10
268.316367
 20
166.775673
 42
-0.062879
  0
VERTEX
  8
0
 10
267.892866
 20
166.433788
 42
-0.559458
  0
VERTEX
  8
0
 10
267.356216
 20
166.704081
 42
-0.096640
  0
VERTEX
  8
0
 10
267.509886
 20
168.113332
 42
-0.048241
  0
VERTEX
  8
0
 10
268.342960
 20
170.096426
 42
-0.124173
  0
VERTEX
  8
0
 10
269.384781
 20
171.234687
 42
-0.043434
  0
VERTEX
  8
0
 10
270.676816
 20
171.933353
 42
-0.212952
  0
VERTEX
  8
0
 10
271.486952
 20
171.924654
 42
-0.484234
  0
VERTEX
  8
0
 10
271.602677
 20
171.448699
 42
-0.064613
  0
SEQEND
  0
POLYLINE
  8
0
 66
1
 70
1
  0
VERTEX
  8
0
 10
295.000000
 20
167.833994
 42
0.114288
  0
VERTEX
  8
0
 10
295.073415
 20
167.517007
 42
0.184838
  0
VERTEX
  8
0
 10
295.273452
 20
167.330627
 42
0.156976
  0
VERTEX
  8
0
 10
295.575041
 20
167.308540
 42
0.078981
  0
VERTEX
  8
0
 10
295.930902
 20
167.457295
 42
-0.110145
  0
VERTEX
  8
0
 10
296.334982
 20
167.597587
 42
-0.099917
  0
VERTEX
  8
0
 10
296.775821
 20
167.560288
 42
-0.094986
  0
VERTEX
  8
0
 10
297.185645
 20
167.350569
 42
-0.088941
  0
VERTEX
  8
0
 10
297.500000
 20
167.000000
 42
0.082063
  0
VERTEX
  8
0
 10
297.808915
 20
166.645885
 42
0.092249
  0
VERTEX
  8
0
 10
298.203881
 20
166.427168
 42
0.100657
  0
VERTEX
  8
0
 10
298.622221
 20
166.376253
 42
0.119070
  0
VERTEX
  8
0
 10
299.000000
 20
166.500000
 42
-0.109888
  0
VERTEX
  8
0
 10
299.373981
 20
166.630055
 42
-0.099885
  0
VERTEX
  8
0
 10
299.781806
 20
166.595991
 42
-0.095061
  0
VERTEX
  8
0
 10
300.160765
 20
166.402541
 42
-0.089153
  0
VERTEX
  8
0
 10
300.451275
 20
166.078838
 42
-0.576310
  0
VERTEX
  8
0
 10
300.098081
 20
165.419943
 42
-0.079292
  0
VERTEX
  8
0
 10
298.149591
 20
165.665090
 42
-0.043815
  0
VERTEX
  8
0
 10
295.421414
 20
166.726339
 42
-0.081823
  0
VERTEX
  8
0
 10
293.500000
 20
168.103397
 42
-0.005002
  0
VERTEX
  8
0
 10
292.369791
 20
169.255811
 42
-0.146362
  0
VERTEX
  8
0
 10
292.183537
 20
169.617977
 42
-0.559820
  0
VERTEX
  8
0
 10
292.331507
 20
169.751586
 42
-0.018364
  0
VERTEX
  8
0
 10
293.250000
 20
169.444156
 42
-0.044448
  0
VERTEX
  8
0
 10
293.919538
 20
169.121927
 42
-0.051650
  0
VERTEX
  8
0
 10
294.485937
 20
168.699691
 42
-0.059216
  0
VERTEX
  8
0
 10
294.874628
 20
168.246283
 42
-0.148682
  0
SEQEND
  0
POLYLINE
  8
0
 66
1
 70
1
  0
VERTEX
  8
0
 10
280.984687
 20
162.690983
 42
-0.161615
  0
VERTEX
  8
0
 10
280.905663
 20
162.436899
 42
-0.195564
  0
VERTEX
  8
0
 10
280.696009
 20
162.304712
 42
-0.125969
  0
VERTEX
  8
0
 10
280.370145
 20
162.328975
 42
-0.057221
  0
VERTEX
  8
0
 10
279.980450
 20
162.512083
 42
0.136582
  0
VERTEX
  8
0
 10
279.376714
 20
162.687057
 42
0.029557
  0
VERTEX
  8
0
 10
278.281041
 20
162.633888
 42
0.028756
  0
VERTEX
  8
0
 10
276.978090
 20
162.416819
 42
0.024054
  0
VERTEX
  8
0
 10
275.626938
 20
162.041893
 42
-0.011147
  0
VERTEX
  8
0
 10
272.005993
 20
160.935748
 42
-0.045614
  0
VERTEX
  8
0
 10
269.748695
 20
160.517932
 42
-0.105806
  0
VERTEX
  8
0
 10
268.478504
 20
160.669760
 42
-0.320604
  0
VERTEX
  8
0
 10
268.000000
 20
161.339310
 42
-0.194018
  0
VERTEX
  8
0
 10
268.195457
 20
161.824057
 42
-0.076457
  0
VERTEX
  8
0
 10
268.778111
 20
162.268493
 42
-0.060474
  0
VERTEX
  8
0
 10
269.635032
 20
162.608985
 42
-0.043737
  0
VERTEX
  8
0
 10
270.648887
 20
162.783013
 42
0.026574
  0
VERTEX
  8
0
 10
271.743782
 20
162.932520
 42
0.024770
  0
VERTEX
  8
0
 10
272.843116
 20
163.199654
 42
0.025587
  0
VERTEX
  8
0
 10
273.795170
 20
163.535434
 42
0.072685
  0
VERTEX
  8
0
 10
274.398887
 20
163.893512
 42
-0.094923
  0
VERTEX
  8
0
 10
276.509895
 20
165.022710
 42
-0.121216
  0
VERTEX
  8
0
 10
278.704946
 20
165.156003
 42
-0.157695
  0
VERTEX
  8
0
 10
280.326681
 20
164.283854
 42
-0.188599
  0
SEQEND
  0
POLYLINE
  8
0
 66
1
 70
1
  0
VERTEX
  8
0
 10
285.743265
 20
162.000000
 42
-0.015469
  0
VERTEX
  8
0
 10
285.894067
 20
161.370863
 42
-0.258208
  0
VERTEX
  8
0
 10
285.832603
 20
161.172910
 42
-0.422126
  0
VERTEX
  8
0
 10
285.674725
 20
161.178360
 42
-0.023327
  0
VERTEX
  8
0
 10
285.326131
 20
161.600056
 42
0.046559
  0
VERTEX
  8
0
 10
284.901948
 20
162.067248
 42
0.025114
  0
VERTEX
  8
0
 10
284.302051
 20
162.562711
 42
0.024796
  0
VERTEX
  8
0
 10
283.634774
 20
163.010018
 42
0.035522
  0
VERTEX
  8
0
 10
283.000000
 20
163.332422
 42
-0.011419
  0
VERTEX
  8
0
 10
282.328600
 20
163.633680
 42
-0.524627
  0
VERTEX
  8
0
 10
282.308194
 20
163.760225
 42
-0.218072
  0
VERTEX
  8
0
 10
282.509648
 20
163.830343
 42
-0.006534
  0
VERTEX
  8
0
 10
283.417134
 20
163.732366
 42
-0.068372
  0
VERTEX
  8
0
 10
284.180637
 20
163.531587
 42
-0.061690
  0
VERTEX
  8
0
 10
284.891252
 20
163.127632
 42
-0.065182
  0
VERTEX
  8
0
 10
285.444377
 20
162.590957
 42
-0.101374
  0
SEQEND
  0
POLYLINE
  8
0
 66
1
 70
1
  0
VERTEX
  8
0
 10
314.325699
 20
158.398814
 42
-0.016679
  0
VERTEX
  8
0
 10
315.366548
 20
157.367031
 42
-0.027476
  0
VERTEX
  8
0
 10
316.165964
 20
156.420775
 42
-0.026493
  0
VERTEX
  8
0
 10
316.691075
 20
155.642524
 42
-0.344199
  0
VERTEX
  8
0
 10
316.651127
 20
155.317794
 42
-0.297029
  0
VERTEX
  8
0
 10
315.825228
 20
155.143537
 42
-0.041204
  0
VERTEX
  8
0
 10
314.170851
 20
155.946530
 42
-0.039635
  0
VERTEX
  8
0
 10
312.297796
 20
157.265341
 42
-0.035648
  0
VERTEX
  8
0
 10
310.583824
 20
158.907376
 42
-0.091066
  0
VERTEX
  8
0
 10
309.621783
 20
160.462745
 42
-0.571958
  0
VERTEX
  8
0
 10
310.079949
 20
161.044882
 42
-0.118645
  0
VERTEX
  8
0
 10
311.934495
 20
160.322864
 42
-0.035068
  0
SEQEND
  0
POLYLINE
  8
0
 66
1
 70
1
  0
VERTEX
  8
0
 10
254.000000
 20
158.000000
 42
-0.010223
  0
VERTEX
  8
0
 10
254.842749
 20
157.430616
 42
-0.295079
  0
VERTEX
  8
0
 10
254.935744
 20
157.199331
 42
-0.343021
  0
VERTEX
  8
0
 10
254.761472
 20
157.046994
 42
-0.012098
  0
VERTEX
  8
0
 10
253.809017
 20
157.015313
 42
-0.053738
  0
VERTEX
  8
0
 10
253.116349
 20
157.083635
 42
-0.049393
  0
VERTEX
  8
0
 10
252.433213
 20
157.298248
 42
-0.052761
  0
VERTEX
  8
0
 10
251.859627
 20
157.617978
 42
-0.101161
  0
VERTEX
  8
0
 10
251.500000
 20
158.000000
 42
-0.175918
  0
VERTEX
  8
0
 10
251.366526
 20
158.640978
 42
-0.372932
  0
VERTEX
  8
0
 10
251.722292
 20
158.949198
 42
-0.110887
  0
VERTEX
  8
0
 10
252.680839
 20
158.733972
 42
-0.033010
  0
SEQEND
  0
POLYLINE
  8
0
 66
1
 70
1
  0
VERTEX
  8
0
 10
288.041097
 20
156.178432
 42
-0.031657
  0
VERTEX
  8
0
 10
289.110874
 20
155.690430
 42
-0.023636
  0
VERTEX
  8
0
 10
290.224146
 20
155.025320
 42
-0.024087
  0
VERTEX
  8
0
 10
291.216887
 20
154.295456
 42
-0.049025
  0
VERTEX
  8
0
 10
291.904404
 20
153.615186
 42
0.041234
  0
VERTEX
  8
0
 10
292.467387
 20
153.040538
 42
0.056106
  0
VERTEX
  8
0
 10
293.065397
 20
152.630420
 42
0.069505
  0
VERTEX
  8
0
 10
293.607835
 20
152.432257
 42
0.193628
  0
VERTEX
  8
0
 10
294.000000
 20
152.500000
 42
-0.184382
  0
VERTEX
  8
0
 10
294.386651
 20
152.573923
 42
-0.072740
  0
VERTEX
  8
0
 10
294.909206
 20
152.400182
 42
-0.058889
  0
VERTEX
  8
0
 10
295.479205
 20
152.023591
 42
-0.044173
  0
VERTEX
  8
0
 10
296.009138
 20
151.488990
 42
-0.181594
  0
VERTEX
  8
0
 10
296.386358
 20
150.399975
 42
-0.483735
  0
VERTEX
  8
0
 10
295.823482
 20
149.977491
 42
-0.084808
  0
VERTEX
  8
0
 10
293.859130
 20
150.869934
 42
-0.038023
  0
VERTEX
  8
0
 10
291.631977
 20
152.640431
 42
0.039814
  0
VERTEX
  8
0
 10
290.020835
 20
153.911847
 42
0.058206
  0
VERTEX
  8
0
 10
288.413086
 20
154.733017
 42
0.053950
  0
VERTEX
  8
0
 10
286.568958
 20
155.200249
 42
0.028870
  0
VERTEX
  8
0
 10
284.224200
 20
155.394417
 42
-0.023000
  0
VERTEX
  8
0
 10
282.370006
 20
155.526079
 42
-0.037684
  0
VERTEX
  8
0
 10
280.825281
 20
155.826706
 42
-0.044631
  0
VERTEX
  8
0
 10
279.699561
 20
156.246258
 42
-0.203515
  0
VERTEX
  8
0
 10
279.247090
 20
156.758731
 42
-0.459573
  0
VERTEX
  8
0
 10
279.697122
 20
157.509801
 42
-0.058891
  0
VERTEX
  8
0
 10
281.833417
 20
157.620463
 42
-0.042217
  0
VERTEX
  8
0
 10
284.854432
 20
157.163030
 42
-0.032517
  0
SEQEND
  0
POLYLINE
  8
0
 66
1
 70
1
  0
VERTEX
  8
0
 10
302.633768
 20
155.583246
 42
-0.056665
  0
VERTEX
  8
0
 10
303.250877
 20
155.419784
 42
-0.030917
  0
VERTEX
  8
0
 10
303.962494
 20
155.090004
 42
-0.030391
  0
VERTEX
  8
0
 10
304.653036
 20
154.660392
 42
-0.042049
  0
VERTEX
  8
0
 10
305.210123
 20
154.189877
 42
0.043433
  0
VERTEX
  8
0
 10
305.752300
 20
153.734516
 42
0.036529
  0
VERTEX
  8
0
 10
306.396380
 20
153.349526
 42
0.038051
  0
VERTEX
  8
0
 10
307.040915
 20
153.084841
 42
0.078561
  0
VERTEX
  8
0
 10
307.577555
 20
153.000000
 42
-0.097175
  0
VERTEX
  8
0
 10
308.117609
 20
152.894040
 42
-0.041760
  0
VERTEX
  8
0
 10
308.774890
 20
152.559375
 42
-0.039252
  0
VERTEX
  8
0
 10
309.436654
 20
152.073940
 42
-0.041704
  0
VERTEX
  8
0
 10
310.000000
 20
151.500000
 42
-0.024942
  0
VERTEX
  8
0
 10
310.517710
 20
150.808783
 42
-0.128583
  0
VERTEX
  8
0
 10
310.674576
 20
150.361364
 42
-0.300026
  0
VERTEX
  8
0
 10
310.532179
 20
150.101643
 42
-0.122183
  0
VERTEX
  8
0
 10
310.122445
 20
150.000000
 42
-0.087854
  0
VERTEX
  8
0
 10
309.693871
 20
150.075889
 42
-0.094595
  0
VERTEX
  8
0
 10
309.329718
 20
150.293750
 42
-0.100072
  0
VERTEX
  8
0
 10
309.086121
 20
150.618517
 42
-0.111474
  0
VERTEX
  8
0
 10
309.000000
 20
151.000000
 42
0.123767
  0
VERTEX
  8
0
 10
308.903870
 20
151.382401
 42
0.099640
  0
VERTEX
  8
0
 10
308.632812
 20
151.710030
 42
0.089712
  0
VERTEX
  8
0
 10
308.227509
 20
151.932523
 42
0.078361
  0
VERTEX
  8
0
 10
307.750000
 20
152.012867
 42
-0.083012
  0
VERTEX
  8
0
 10
307.002880
 20
152.145687
 42
-0.009518
  0
VERTEX
  8
0
 10
305.398438
 20
152.750738
 42
-0.011272
  0
VERTEX
  8
0
 10
303.506083
 20
153.555724
 42
-0.008964
  0
VERTEX
  8
0
 10
301.500000
 20
154.506701
 42
-0.008126
  0
VERTEX
  8
0
 10
299.714966
 20
155.428872
 42
-0.032084
  0
VERTEX
  8
0
 10
298.666008
 20
156.082498
 42
-0.414858
  0
VERTEX
  8
0
 10
298.630501
 20
156.298527
 42
-0.307962
  0
VERTEX
  8
0
 10
298.873645
 20
156.387203
 42
0.005031
  0
VERTEX
  8
0
 10
299.884055
 20
156.142387
 42
0.004253
  0
VERTEX
  8
0
 10
300.957310
 20
155.903349
 42
0.004290
  0
VERTEX
  8
0
 10
301.939628
 20
155.702116
 42
0.011938
  0
SEQEND
  0
POLYLINE
  8
0
 66
1
 70
1
  0
VERTEX
  8
0
 10
250.605959
 20
150.500000
 42
-0.051649
  0
VERTEX
  8
0
 10
251.026200
 20
150.063387
 42
-0.064455
  0
VERTEX
  8
0
 10
251.312583
 20
149.579453
 42
-0.077598
  0
VERTEX
  8
0
 10
251.429255
 20
149.123931
 42
-0.161375
  0
VERTEX
  8
0
 10
251.348679
 20
148.770479
 42
-0.356096
  0
VERTEX
  8
0
 10
250.624664
 20
148.512348
 42
-0.043740
  0
VERTEX
  8
0
 10
248.982809
 20
149.263622
 42
-0.042723
  0
VERTEX
  8
0
 10
247.430573
 20
150.330027
 42
-0.224524
  0
VERTEX
  8
0
 10
247.000000
 20
151.240547
 42
-0.339439
  0
VERTEX
  8
0
 10
247.348089
 20
151.694211
 42
-0.116626
  0
VERTEX
  8
0
 10
248.230004
 20
151.720369
 42
-0.070864
  0
VERTEX
  8
0
 10
249.438794
 20
151.287270
 42
-0.053993
  0
SEQEND
  0
POLYLINE
  8
0
 66
1
 70
1
  0
VERTEX
  8
0
 10
304.218471
 20
148.551804
 42
-0.233308
  0
VERTEX
  8
0
 10
304.466488
 20
148.635921
 42
-0.140768
  0
VERTEX
  8
0
 10
304.757114
 20
148.509215
 42
-0.084663
  0
VERTEX
  8
0
 10
305.052762
 20
148.165976
 42
-0.043957
  0
VERTEX
  8
0
 10
305.301643
 20
147.656313
 42
-0.070421
  0
VERTEX
  8
0
 10
305.445279
 20
147.031040
 42
-0.263422
  0
VERTEX
  8
0
 10
305.283371
 20
146.677964
 42
-0.185409
  0
VERTEX
  8
0
 10
304.830859
 20
146.558046
 42
-0.037060
  0
VERTEX
  8
0
 10
303.994357
 20
146.711727
 42
-0.061415
  0
VERTEX
  8
0
 10
303.240452
 20
147.011495
 42
-0.047726
  0
VERTEX
  8
0
 10
302.509632
 20
147.507737
 42
-0.048955
  0
VERTEX
  8
0
 10
301.908911
 20
148.113672
 42
-0.079375
  0
VERTEX
  8
0
 10
301.546283
 20
148.739985
 42
-0.015844
  0
VERTEX
  8
0
 10
301.272942
 20
149.525876
 42
-0.361050
  0
VERTEX
  8
0
 10
301.357465
 20
149.731543
 42
-0.290238
  0
VERTEX
  8
0
 10
301.605560
 20
149.712387
 42
-0.012679
  0
VERTEX
  8
0
 10
302.319117
 20
149.150119
 42
0.040320
  0
VERTEX
  8
0
 10
302.880867
 20
148.755719
 42
0.056651
  0
VERTEX
  8
0
 10
303.440074
 20
148.507098
 42
0.071517
  0
VERTEX
  8
0
 10
303.914512
 20
148.429374
 42
0.204009
  0
SEQEND
  0
POLYLINE
  8
0
 66
1
 70
1
  0
VERTEX
  8
0
 10
284.500000
 20
147.000000
 42
-0.229941
  0
VERTEX
  8
0
 10
284.538683
 20
146.620381
 42
-0.175006
  0
VERTEX
  8
0
 10
284.266583
 20
146.295345
 42
-0.092833
  0
VERTEX
  8
0
 10
283.660528
 20
146.079473
 42
-0.040942
  0
VERTEX
  8
0
 10
282.809017
 20
146.015313
 42
-0.011265
  0
VERTEX
  8
0
 10
281.590160
 20
146.050865
 42
-0.210879
  0
VERTEX
  8
0
 10
281.255355
 20
146.219823
 42
-0.418214
  0
VERTEX
  8
0
 10
281.283036
 20
146.483883
 42
-0.025105
  0
VERTEX
  8
0
 10
282.000000
 20
147.000000
 42
-0.006588
  0
VERTEX
  8
0
 10
283.248743
 20
147.783870
 42
-0.137706
  0
VERTEX
  8
0
 10
283.669081
 20
147.901875
 42
-0.235263
  0
VERTEX
  8
0
 10
283.993465
 20
147.740301
 42
-0.023248
  0
SEQEND
  0
POLYLINE
  8
0
 66
1
 70
1
  0
VERTEX
  8
0
 10
314.258333
 20
143.871853
 42
-0.010682
  0
VERTEX
  8
0
 10
314.523368
 20
143.559786
 42
-0.110539
  0
VERTEX
  8
0
 10
314.598174
 20
143.409756
 42
-0.646038
  0
VERTEX
  8
0
 10
314.552978
 20
143.374245
 42
-0.036521
  0
VERTEX
  8
0
 10
314.350343
 20
143.499657
 42
0.179024
  0
VERTEX
  8
0
 10
313.992101
 20
143.599931
 42
0.061389
  0
VERTEX
  8
0
 10
313.455902
 20
143.489006
 42
0.051583
  0
VERTEX
  8
0
 10
312.842436
 20
143.207884
 42
0.040010
  0
VERTEX
  8
0
 10
312.241127
 20
142.785155
 42
-0.049325
  0
VERTEX
  8
0
 10
310.564231
 20
141.652260
 42
-0.144860
  0
VERTEX
  8
0
 10
309.214830
 20
141.367653
 42
-0.305645
  0
VERTEX
  8
0
 10
308.524476
 20
141.918088
 42
-0.154145
  0
VERTEX
  8
0
 10
308.526163
 20
143.082433
 42
0.048150
  0
VERTEX
  8
0
 10
308.685414
 20
143.825560
 42
0.087652
  0
VERTEX
  8
0
 10
308.648312
 20
144.443421
 42
0.133374
  0
VERTEX
  8
0
 10
308.428240
 20
144.846242
 42
0.204167
  0
VERTEX
  8
0
 10
308.067388
 20
145.000000
 42
-0.087568
  0
VERTEX
  8
0
 10
307.659831
 20
145.071930
 42
-0.094489
  0
VERTEX
  8
0
 10
307.313545
 20
145.278469
 42
-0.100111
  0
VERTEX
  8
0
 10
307.081906
 20
145.586346
 42
-0.111828
  0
VERTEX
  8
0
 10
307.000000
 20
145.947980
 42
-0.466459
  0
VERTEX
  8
0
 10
307.573506
 20
146.428967
 42
-0.025897
  0
VERTEX
  8
0
 10
310.161062
 20
145.831802
 42
-0.029636
  0
VERTEX
  8
0
 10
312.830135
 20
144.894106
 42
-0.112533
  0
SEQEND
  0
POLYLINE
  8
0
 66
1
 70
1
  0
VERTEX
  8
0
 10
288.049660
 20
139.474320
 42
-0.024261
  0
VERTEX
  8
0
 10
289.179388
 20
138.818809
 42
-0.032183
  0
VERTEX
  8
0
 10
290.133338
 20
138.110602
 42
-0.033580
  0
VERTEX
  8
0
 10
290.818913
 20
137.445695
 42
-0.185476
  0
VERTEX
  8
0
 10
291.000000
 20
136.974320
 42
-0.230186
  0
VERTEX
  8
0
 10
290.672551
 20
136.300739
 42
-0.255038
  0
VERTEX
  8
0
 10
289.964453
 20
136.181822
 42
-0.074397
  0
VERTEX
  8
0
 10
288.647093
 20
136.870271
 42
-0.014139
  0
VERTEX
  8
0
 10
286.500000
 20
138.530996
 42
-0.010707
  0
VERTEX
  8
0
 10
284.325262
 20
140.392866
 42
-0.503358
  0
VERTEX
  8
0
 10
284.370935
 20
140.891596
 42
-0.253627
  0
VERTEX
  8
0
 10
285.127310
 20
140.929472
 42
-0.007626
  0
SEQEND
  0
POLYLINE
  8
0
 66
1
 70
1
  0
VERTEX
  8
0
 10
277.000000
 20
136.000000
 42
-0.042167
  0
VERTEX
  8
0
 10
276.967655
 20
135.617151
 42
-0.061769
  0
VERTEX
  8
0
 10
276.870461
 20
135.293750
 42
-0.081139
  0
VERTEX
  8
0
 10
276.727648
 20
135.074460
 42
-0.210953
  0
VERTEX
  8
0
 10
276.559017
 20
135.000000
 42
-0.151918
  0
VERTEX
  8
0
 10
276.348290
 20
135.065539
 42
-0.038439
  0
VERTEX
  8
0
 10
276.066025
 20
135.293750
 42
-0.035638
  0
VERTEX
  8
0
 10
275.768994
 20
135.617226
 42
-0.029505
  0
VERTEX
  8
0
 10
275.500000
 20
136.000000
 42
-0.082592
  0
VERTEX
  8
0
 10
275.343488
 20
136.382100
 42
-0.161196
  0
VERTEX
  8
0
 10
275.374600
 20
136.706250
 42
-0.182303
  0
VERTEX
  8
0
 10
275.586039
 20
136.921712
 42
-0.108972
  0
VERTEX
  8
0
 10
275.940983
 20
137.000000
 42
-0.093332
  0
VERTEX
  8
0
 10
276.345238
 20
136.923877
 42
-0.096420
  0
VERTEX
  8
0
 10
276.688914
 20
136.706250
 42
-0.099167
  0
VERTEX
  8
0
 10
276.918938
 20
136.381556
 42
-0.105053
  0
SEQEND
  0
POLYLINE
  8
0
 66
1
 70
1
  0
VERTEX
  8
0
 10
299.064347
 20
134.302918
 42
-0.026778
  0
VERTEX
  8
0
 10
300.206199
 20
133.543159
 42
-0.026659
  0
VERTEX
  8
0
 10
301.262083
 20
132.664654
 42
-0.027652
  0
VERTEX
  8
0
 10
302.098061
 20
131.799493
 42
-0.086854
  0
VERTEX
  8
0
 10
302.511673
 20
131.108985
 42
-0.033331
  0
VERTEX
  8
0
 10
302.725970
 20
130.415656
 42
-0.531682
  0
VERTEX
  8
0
 10
302.586322
 20
130.264003
 42
-0.139263
  0
VERTEX
  8
0
 10
302.204013
 20
130.438183
 42
-0.007830
  0
VERTEX
  8
0
 10
301.214294
 20
131.306067
 42
0.025291
  0
VERTEX
  8
0
 10
300.420683
 20
131.954409
 42
0.027217
  0
VERTEX
  8
0
 10
299.584263
 20
132.502407
 42
0.028149
  0
VERTEX
  8
0
 10
298.820700
 20
132.889598
 42
0.103622
  0
VERTEX
  8
0
 10
298.293704
 20
133.000000
 42
-0.105261
  0
VERTEX
  8
0
 10
297.804019
 20
133.104244
 42
-0.039936
  0
VERTEX
  8
0
 10
297.187292
 20
133.440625
 42
-0.037348
  0
VERTEX
  8
0
 10
296.553806
 20
133.926031
 42
-0.037416
  0
VERTEX
  8
0
 10
296.000000
 20
134.500000
 42
-0.065504
  0
VERTEX
  8
0
 10
295.333186
 20
135.559103
 42
-0.567958
  0
VERTEX
  8
0
 10
295.586658
 20
135.928040
 42
-0.105489
  0
VERTEX
  8
0
 10
296.729035
 20
135.606426
 42
-0.012234
  0
SEQEND
  0
POLYLINE
  8
0
 66
1
 70
1
  0
VERTEX
  8
0
 10
256.000000
 20
120.738024
 42
0.342525
  0
VERTEX
  8
0
 10
256.179728
 20
120.506447
 42
0.154923
  0
VERTEX
  8
0
 10
256.587500
 20
120.529555
 42
0.065656
  0
VERTEX
  8
0
 10
257.231236
 20
120.877172
 42
0.027334
  0
VERTEX
  8
0
 10
258.000000
 20
121.500000
 42
-0.029262
  0
VERTEX
  8
0
 10
258.768833
 20
122.117991
 42
-0.071687
  0
VERTEX
  8
0
 10
259.412500
 20
122.449353
 42
-0.170442
  0
VERTEX
  8
0
 10
259.818875
 20
122.447179
 42
-0.316970
  0
VERTEX
  8
0
 10
260.000000
 20
122.190171
 42
-0.127403
  0
VERTEX
  8
0
 10
259.873667
 20
121.702415
 42
-0.057449
  0
VERTEX
  8
0
 10
259.485937
 20
121.161200
 42
-0.051588
  0
VERTEX
  8
0
 10
258.919412
 20
120.652890
 42
-0.048647
  0
VERTEX
  8
0
 10
258.250000
 20
120.259781
 42
-0.054869
  0
VERTEX
  8
0
 10
256.584399
 20
119.700152
 42
-0.053716
  0
VERTEX
  8
0
 10
254.824848
 20
119.510829
 42
-0.065402
  0
VERTEX
  8
0
 10
253.450565
 20
119.691566
 42
-0.336353
  0
VERTEX
  8
0
 10
253.008541
 20
120.260541
 42
-0.001114
  0
VERTEX
  8
0
 10
253.005260
 20
120.612490
 42
-0.000524
  0
VERTEX
  8
0
 10
253.002509
 20
121.067315
 42
-0.000519
  0
VERTEX
  8
0
 10
253.000621
 20
121.543761
 42
-0.000731
  0
VERTEX
  8
0
 10
253.000000
 20
121.968615
 42
-0.184534
  0
VERTEX
  8
0
 10
253.122486
 20
122.289193
 42
-0.147206
  0
VERTEX
  8
0
 10
253.440625
 20
122.483616
 42
-0.100118
  0
VERTEX
  8
0
 10
253.925634
 20
122.511135
 42
-0.055937
  0
VERTEX
  8
0
 10
254.500000
 20
122.361626
 42
-0.056486
  0
VERTEX
  8
0
 10
255.073632
 20
122.063527
 42
-0.058275
  0
VERTEX
  8
0
 10
255.559375
 20
121.647256
 42
-0.064608
  0
VERTEX
  8
0
 10
255.889645
 20
121.181502
 42
-0.122552
  0
SEQEND
  0
POLYLINE
  8
0
 66
1
 70
1
  0
VERTEX
  8
0
 10
247.492921
 20
121.011454
 42
-0.114400
  0
VERTEX
  8
0
 10
247.606889
 20
120.674071
 42
-0.329480
  0
VERTEX
  8
0
 10
247.487528
 20
120.474315
 42
-0.155351
  0
VERTEX
  8
0
 10
247.131719
 20
120.443138
 42
-0.036408
  0
VERTEX
  8
0
 10
246.551938
 20
120.618443
 42
-0.029964
  0
VERTEX
  8
0
 10
245.480030
 20
121.105273
 42
-0.168622
  0
VERTEX
  8
0
 10
245.057392
 20
121.558518
 42
-0.444011
  0
VERTEX
  8
0
 10
245.201747
 20
121.882327
 42
-0.079093
  0
VERTEX
  8
0
 10
245.940983
 20
122.000000
 42
-0.088797
  0
VERTEX
  8
0
 10
246.346050
 20
121.927491
 42
-0.053277
  0
VERTEX
  8
0
 10
246.785020
 20
121.709615
 42
-0.051183
  0
VERTEX
  8
0
 10
247.189428
 20
121.389589
 42
-0.061454
  0
SEQEND
  0
POLYLINE
  8
0
 66
1
 70
1
  0
VERTEX
  8
0
 10
251.000000
 20
121.000000
 42
-0.105053
  0
VERTEX
  8
0
 10
250.918938
 20
120.618444
 42
-0.099167
  0
VERTEX
  8
0
 10
250.688914
 20
120.293750
 42
-0.096420
  0
VERTEX
  8
0
 10
250.345238
 20
120.076123
 42
-0.093332
  0
VERTEX
  8
0
 10
249.940983
 20
120.000000
 42
-0.108972
  0
VERTEX
  8
0
 10
249.586039
 20
120.078288
 42
-0.182303
  0
VERTEX
  8
0
 10
249.374600
 20
120.293750
 42
-0.161196
  0
VERTEX
  8
0
 10
249.343488
 20
120.617900
 42
-0.082592
  0
VERTEX
  8
0
 10
249.500000
 20
121.000000
 42
-0.029505
  0
VERTEX
  8
0
 10
249.768994
 20
121.382774
 42
-0.035638
  0
VERTEX
  8
0
 10
250.066025
 20
121.706250
 42
-0.038439
  0
VERTEX
  8
0
 10
250.348290
 20
121.934461
 42
-0.151918
  0
VERTEX
  8
0
 10
250.559017
 20
122.000000
 42
-0.210953
  0
VERTEX
  8
0
 10
250.727648
 20
121.925540
 42
-0.081139
  0
VERTEX
  8
0
 10
250.870461
 20
121.706250
 42
-0.061769
  0
VERTEX
  8
0
 10
250.967655
 20
121.382849
 42
-0.042167
  0
SEQEND
  0
POLYLINE
  8
0
 66
1
 70
1
  0
VERTEX
  8
0
 10
297.492921
 20
105.011454
 42
-0.114400
  0
VERTEX
  8
0
 10
297.606889
 20
104.674071
 42
-0.329480
  0
VERTEX
  8
0
 10
297.487528
 20
104.474315
 42
-0.155351
  0
VERTEX
  8
0
 10
297.131719
 20
104.443138
 42
-0.036408
  0
VERTEX
  8
0
 10
296.551938
 20
104.618443
 42
-0.029964
  0
VERTEX
  8
0
 10
295.480030
 20
105.105273
 42
-0.168622
  0
VERTEX
  8
0
 10
295.057392
 20
105.558518
 42
-0.444011
  0
VERTEX
  8
0
 10
295.201747
 20
105.882327
 42
-0.079093
  0
VERTEX
  8
0
 10
295.940983
 20
106.000000
 42
-0.088797
  0
VERTEX
  8
0
 10
296.346050
 20
105.927491
 42
-0.053277
  0
VERTEX
  8
0
 10
296.785020
 20
105.709615
 42
-0.051183
  0
VERTEX
  8
0
 10
297.189428
 20
105.389589
 42
-0.061454
  0
SEQEND
  0
POLYLINE
  8
0
 66
1
 70
1
  0
VERTEX
  8
0
 10
315.492921
 20
101.011454
 42
-0.114400
  0
VERTEX
  8
0
 10
315.606889
 20
100.674071
 42
-0.329480
  0
VERTEX
  8
0
 10
315.487528
 20
100.474315
 42
-0.155351
  0
VERTEX
  8
0
 10
315.131719
 20
100.443138
 42
-0.036408
  0
VERTEX
  8
0
 10
314.551938
 20
100.618443
 42
-0.029964
  0
VERTEX
  8
0
 10
313.480030
 20
101.105273
 42
-0.168622
  0
VERTEX
  8
0
 10
313.057392
 20
101.558518
 42
-0.444011
  0
VERTEX
  8
0
 10
313.201747
 20
101.882327
 42
-0.079093
  0
VERTEX
  8
0
 10
313.940983
 20
102.000000
 42
-0.088797
  0
VERTEX
  8
0
 10
314.346050
 20
101.927491
 42
-0.053277
  0
VERTEX
  8
0
 10
314.785020
 20
101.709615
 42
-0.051183
  0
VERTEX
  8
0
 10
315.189428
 20
101.389589
 42
-0.061454
  0
SEQEND
  0
POLYLINE
  8
0
 66
1
 70
1
  0
VERTEX
  8
0
 10
185.000000
 20
93.535184
 42
-0.210508
  0
VERTEX
  8
0
 10
184.895152
 20
93.297185
 42
-0.021557
  0
VERTEX
  8
0
 10
184.412500
 20
92.892487
 42
-0.023970
  0
VERTEX
  8
0
 10
183.766136
 20
92.443865
 42
-0.016854
  0
VERTEX
  8
0
 10
183.000000
 20
92.000000
 42
-0.030196
  0
VERTEX
  8
0
 10
182.179514
 20
91.622691
 42
-0.079278
  0
VERTEX
  8
0
 10
181.548029
 20
91.486492
 42
-0.161832
  0
VERTEX
  8
0
 10
181.160120
 20
91.592464
 42
-0.250882
  0
VERTEX
  8
0
 10
181.000000
 20
91.891492
 42
-0.155423
  0
VERTEX
  8
0
 10
181.127982
 20
92.293268
 42
-0.068268
  0
VERTEX
  8
0
 10
181.514062
 20
92.705144
 42
-0.058116
  0
VERTEX
  8
0
 10
182.080527
 20
93.064476
 42
-0.048432
  0
VERTEX
  8
0
 10
182.750000
 20
93.310674
 42
0.002507
  0
VERTEX
  8
0
 10
183.438530
 20
93.494300
 42
0.003384
  0
VERTEX
  8
0
 10
184.059375
 20
93.667734
 42
0.002306
  0
VERTEX
  8
0
 10
184.578204
 20
93.819055
 42
0.036526
  0
VERTEX
  8
0
 10
184.750000
 20
93.883999
 42
-0.190496
  0
VERTEX
  8
0
 10
184.844760
 20
93.889497
 42
-0.158923
  0
VERTEX
  8
0
 10
184.926562
 20
93.829385
 42
-0.102471
  0
VERTEX
  8
0
 10
184.981830
 20
93.704832
 42
-0.053400
  0
SEQEND
  0
POLYLINE
  8
0
 66
1
 70
1
  0
VERTEX
  8
0
 10
183.571429
 20
80.000000
 42
-0.061941
  0
VERTEX
  8
0
 10
184.117676
 20
79.932069
 42
-0.080294
  0
VERTEX
  8
0
 10
184.580357
 20
79.732242
 42
-0.097850
  0
VERTEX
  8
0
 10
184.890040
 20
79.436121
 42
-0.154384
  0
VERTEX
  8
0
 10
185.000000
 20
79.088484
 42
-0.161879
  0
VERTEX
  8
0
 10
184.889992
 20
78.757602
 42
-0.115872
  0
VERTEX
  8
0
 10
184.589009
 20
78.505046
 42
-0.090707
  0
VERTEX
  8
0
 10
184.135954
 20
78.371573
 42
-0.062911
  0
VERTEX
  8
0
 10
183.600882
 20
78.382315
 42
-0.090609
  0
VERTEX
  8
0
 10
182.183098
 20
78.862329
 42
-0.046199
  0
VERTEX
  8
0
 10
180.625299
 20
79.926958
 42
-0.045573
  0
VERTEX
  8
0
 10
179.369492
 20
81.176573
 42
-0.175980
  0
VERTEX
  8
0
 10
179.000000
 20
82.193873
 42
-0.311268
  0
VERTEX
  8
0
 10
179.145262
 20
82.404604
 42
-0.187370
  0
VERTEX
  8
0
 10
179.461607
 20
82.402486
 42
-0.073599
  0
VERTEX
  8
0
 10
179.967037
 20
82.110356
 42
-0.028606
  0
VERTEX
  8
0
 10
180.571429
 20
81.571429
 42
0.040215
  0
VERTEX
  8
0
 10
181.278163
 20
80.970075
 42
0.035542
  0
VERTEX
  8
0
 10
182.100893
 20
80.461607
 42
0.037263
  0
VERTEX
  8
0
 10
182.911928
 20
80.111012
 42
0.083576
  0
SEQEND
  0
POLYLINE
  8
0
 66
1
 70
1
  0
VERTEX
  8
0
 10
330.411106
 20
68.923275
 42
-0.016722
  0
VERTEX
  8
0
 10
332.140706
 20
66.722405
 42
-0.084914
  0
VERTEX
  8
0
 10
332.834922
 20
65.332432
 42
-0.184404
  0
VERTEX
  8
0
 10
332.764268
 20
64.338004
 42
-0.146428
  0
VERTEX
  8
0
 10
332.043674
 20
63.526992
 42
0.230524
  0
VERTEX
  8
0
 10
331.481101
 20
62.637778
 42
0.146441
  0
VERTEX
  8
0
 10
331.704610
 20
61.408490
 42
0.144832
  0
VERTEX
  8
0
 10
332.569744
 20
60.495212
 42
0.226563
  0
VERTEX
  8
0
 10
333.629042
 20
60.411145
 42
-0.109244
  0
VERTEX
  8
0
 10
334.201698
 20
60.496980
 42
-0.182257
  0
VERTEX
  8
0
 10
334.639391
 20
60.296562
 42
-0.139635
  0
VERTEX
  8
0
 10
334.912277
 20
59.801019
 42
-0.056532
  0
VERTEX
  8
0
 10
335.000000
 20
59.027632
 42
0.048346
  0
VERTEX
  8
0
 10
335.075311
 20
58.250583
 42
0.046956
  0
VERTEX
  8
0
 10
335.298542
 20
57.494470
 42
0.050782
  0
VERTEX
  8
0
 10
335.626606
 20
56.867991
 42
0.108762
  0
VERTEX
  8
0
 10
336.016312
 20
56.489919
 42
-0.101183
  0
VERTEX
  8
0
 10
336.355137
 20
56.170929
 42
-0.098424
  0
VERTEX
  8
0
 10
336.545697
 20
55.741498
 42
-0.097425
  0
VERTEX
  8
0
 10
336.558573
 20
55.268087
 42
-0.096934
  0
VERTEX
  8
0
 10
336.391312
 20
54.824139
 42
-0.069166
  0
VERTEX
  8
0
 10
336.065196
 20
54.430363
 42
-0.201182
  0
VERTEX
  8
0
 10
335.739292
 20
54.313635
 42
-0.185148
  0
VERTEX
  8
0
 10
335.408102
 20
54.461249
 42
-0.058012
  0
VERTEX
  8
0
 10
335.065098
 20
54.894669
 42
0.188126
  0
VERTEX
  8
0
 10
334.617596
 20
55.231567
 42
0.147801
  0
VERTEX
  8
0
 10
334.005602
 20
55.219284
 42
0.081457
  0
VERTEX
  8
0
 10
333.201529
 20
54.804653
 42
0.027849
  0
VERTEX
  8
0
 10
332.190098
 20
53.962477
 42
-0.022637
  0
VERTEX
  8
0
 10
331.348421
 20
53.246669
 42
-0.052188
  0
VERTEX
  8
0
 10
330.643341
 20
52.809310
 42
-0.117226
  0
VERTEX
  8
0
 10
330.189911
 20
52.709084
 42
-0.409581
  0
VERTEX
  8
0
 10
330.000000
 20
52.902028
 42
-0.090147
  0
VERTEX
  8
0
 10
330.076831
 20
53.324710
 42
-0.053198
  0
VERTEX
  8
0
 10
330.308014
 20
53.784472
 42
-0.050941
  0
VERTEX
  8
0
 10
330.647470
 20
54.209437
 42
-0.060430
  0
VERTEX
  8
0
 10
331.048558
 20
54.530011
 42
0.122190
  0
VERTEX
  8
0
 10
331.423299
 20
54.913357
 42
0.157800
  0
VERTEX
  8
0
 10
331.529054
 20
55.391098
 42
0.108662
  0
VERTEX
  8
0
 10
331.339641
 20
55.979087
 42
0.041175
  0
VERTEX
  8
0
 10
330.842389
 20
56.689910
 42
-0.034967
  0
VERTEX
  8
0
 10
330.345273
 20
57.382105
 42
-0.025502
  0
VERTEX
  8
0
 10
329.889455
 20
58.212679
 42
-0.025948
  0
VERTEX
  8
0
 10
329.536922
 20
59.048724
 42
-0.050401
  0
VERTEX
  8
0
 10
329.360315
 20
59.750775
 42
0.051094
  0
VERTEX
  8
0
 10
329.198663
 20
60.389645
 42
0.041999
  0
VERTEX
  8
0
 10
328.902753
 20
61.028320
 42
0.043672
  0
VERTEX
  8
0
 10
328.525865
 20
61.573218
 42
0.081385
  0
VERTEX
  8
0
 10
328.121910
 20
61.924655
 42
-0.173641
  0
VERTEX
  8
0
 10
327.558052
 20
62.631466
 42
-0.099076
  0
VERTEX
  8
0
 10
327.412553
 20
63.727275
 42
-0.061994
  0
VERTEX
  8
0
 10
327.706210
 20
65.259719
 42
-0.023627
  0
VERTEX
  8
0
 10
328.474384
 20
67.298044
 42
0.077197
  0
VERTEX
  8
0
 10
328.705300
 20
68.189131
 42
0.107547
  0
VERTEX
  8
0
 10
328.611233
 20
69.004944
 42
0.096451
  0
VERTEX
  8
0
 10
328.171244
 20
69.770958
 42
0.052296
  0
VERTEX
  8
0
 10
327.375425
 20
70.516241
 42
-0.028917
  0
VERTEX
  8
0
 10
326.731100
 20
71.065523
 42
-0.087683
  0
VERTEX
  8
0
 10
326.391981
 20
71.528566
 42
-0.257659
  0
VERTEX
  8
0
 10
326.405772
 20
71.820866
 42
-0.253192
  0
VERTEX
  8
0
 10
326.661106
 20
71.968197
 42
-0.152315
  0
VERTEX
  8
0
 10
327.266137
 20
71.797539
 42
-0.026199
  0
VERTEX
  8
0
 10
328.241625
 20
71.086870
 42
-0.026433
  0
VERTEX
  8
0
 10
329.334797
 20
70.098968
 42
-0.020898
  0
SEQEND
  0
POLYLINE
  8
0
 66
1
 70
1
  0
VERTEX
  8
0
 10
324.572942
 20
31.234687
 42
-0.092928
  0
VERTEX
  8
0
 10
325.725508
 20
30.081345
 42
-0.101516
  0
VERTEX
  8
0
 10
326.337645
 20
28.622942
 42
-0.164141
  0
VERTEX
  8
0
 10
326.188598
 20
27.485736
 42
-0.286227
  0
VERTEX
  8
0
 10
325.409598
 20
27.000000
 42
-0.071048
  0
VERTEX
  8
0
 10
324.847239
 20
27.080315
 42
-0.169278
  0
VERTEX
  8
0
 10
324.508062
 20
27.321992
 42
-0.196967
  0
VERTEX
  8
0
 10
324.422277
 20
27.692760
 42
-0.098312
  0
VERTEX
  8
0
 10
324.593758
 20
28.151704
 42
0.158721
  0
VERTEX
  8
0
 10
324.725689
 20
28.693735
 42
0.087512
  0
VERTEX
  8
0
 10
324.554814
 20
29.361157
 42
0.072019
  0
VERTEX
  8
0
 10
324.113965
 20
30.050449
 42
0.056718
  0
VERTEX
  8
0
 10
323.461646
 20
30.651704
 42
-0.048492
  0
VERTEX
  8
0
 10
322.501638
 20
31.507864
 42
-0.493356
  0
VERTEX
  8
0
 10
322.579780
 20
31.960296
 42
-0.237925
  0
VERTEX
  8
0
 10
323.302632
 20
31.971840
 42
-0.037321
  0
SEQEND
  0
POLYLINE
  8
0
 66
1
 70
1
  0
VERTEX
  8
0
 10
352.103470
 20
26.250000
 42
0.030467
  0
VERTEX
  8
0
 10
353.443393
 20
25.195079
 42
0.029467
  0
VERTEX
  8
0
 10
354.916153
 20
24.297956
 42
0.030806
  0
VERTEX
  8
0
 10
356.304862
 20
23.666761
 42
0.087584
  0
VERTEX
  8
0
 10
357.344812
 20
23.466445
 42
-0.051959
  0
VERTEX
  8
0
 10
359.199912
 20
23.243900
 42
-0.079385
  0
VERTEX
  8
0
 10
360.700992
 20
22.641467
 42
-0.127466
  0
VERTEX
  8
0
 10
361.501494
 20
21.827633
 42
-0.275991
  0
VERTEX
  8
0
 10
361.488808
 20
20.981891
 42
-0.291007
  0
VERTEX
  8
0
 10
359.661655
 20
20.097361
 42
-0.068248
  0
VERTEX
  8
0
 10
356.212992
 20
20.984596
 42
-0.065618
  0
VERTEX
  8
0
 10
353.016455
 20
22.811167
 42
-0.234304
  0
VERTEX
  8
0
 10
352.000000
 20
24.861184
 42
0.161721
  0
VERTEX
  8
0
 10
351.857009
 20
25.291715
 42
0.060826
  0
VERTEX
  8
0
 10
351.412500
 20
25.756753
 42
0.052113
  0
VERTEX
  8
0
 10
350.765283
 20
26.182950
 42
0.042743
  0
VERTEX
  8
0
 10
350.000000
 20
26.500000
 42
-0.039709
  0
VERTEX
  8
0
 10
349.234602
 20
26.811679
 42
-0.049700
  0
VERTEX
  8
0
 10
348.587500
 20
27.222265
 42
-0.058089
  0
VERTEX
  8
0
 10
348.141156
 20
27.664493
 42
-0.170109
  0
VERTEX
  8
0
 10
348.000000
 20
28.067388
 42
-0.194977
  0
VERTEX
  8
0
 10
348.259638
 20
28.707894
 42
-0.314131
  0
VERTEX
  8
0
 10
348.814518
 20
28.815652
 42
-0.069410
  0
VERTEX
  8
0
 10
349.924496
 20
28.126654
 42
-0.008436
  0
SEQEND
  0
POLYLINE
  8
0
 66
1
 70
1
  0
VERTEX
  8
0
 10
3.057878
 20
228.569739
 42
0.057478
  0
VERTEX
  8
0
 10
2.553951
 20
227.797038
 42
0.197135
  0
VERTEX
  8
0
 10
2.510647
 20
227.211221
 42
0.158106
  0
VERTEX
  8
0
 10
2.897887
 20
226.679114
 42
0.034182
  0
VERTEX
  8
0
 10
3.874745
 20
226.067034
 42
0.093008
  0
VERTEX
  8
0
 10
5.360560
 20
225.597772
 42
0.217139
  0
VERTEX
  8
0
 10
6.447464
 20
225.942596
 42
0.213544
  0
VERTEX
  8
0
 10
6.911957
 20
226.996336
 42
0.090450
  0
VERTEX
  8
0
 10
6.619998
 20
228.547887
 42
0.096715
  0
VERTEX
  8
0
 10
5.980563
 20
229.569532
 42
0.205990
  0
VERTEX
  8
0
 10
5.143066
 20
229.935958
 42
0.163669
  0
VERTEX
  8
0
 10
4.150111
 20
229.608747
 42
0.058889
  0
SEQEND
  0
ENDSEC
  0
EOF
