  0
SECTION
  2
HEADER
  9
$ACADVER
  1
AC1006
  9
$EXTMIN
 10
0.000000
 20
0.000000
 30
0.000000
  9
$EXTMAX
 10
244.000000
 20
210.000000
 30
0.000000
  0
ENDSEC
  0
SECTION
  2
ENTITIES
  0
POLYLINE
  8
0
 66
1
 70
1
  0
VERTEX
  8
0
 10
87.651320
 20
208.405846
 42
-0.042302
  0
VERTEX
  8
0
 10
86.352381
 20
207.825776
 42
-0.038184
  0
VERTEX
  8
0
 10
84.929257
 20
207.448545
 42
-0.039978
  0
VERTEX
  8
0
 10
83.553115
 20
207.306481
 42
-0.067317
  0
VERTEX
  8
0
 10
82.401320
 20
207.435411
 42
0.030521
  0
VERTEX
  8
0
 10
81.480753
 20
207.607572
 42
0.053256
  0
VERTEX
  8
0
 10
80.705388
 20
207.621101
 42
0.078096
  0
VERTEX
  8
0
 10
80.177522
 20
207.489211
 42
0.301159
  0
VERTEX
  8
0
 10
80.000000
 20
207.221211
 42
-0.269547
  0
VERTEX
  8
0
 10
79.815558
 20
206.903936
 42
-0.054228
  0
VERTEX
  8
0
 10
79.192188
 20
206.633527
 42
-0.043839
  0
VERTEX
  8
0
 10
78.303644
 20
206.441060
 42
-0.028103
  0
VERTEX
  8
0
 10
77.250000
 20
206.367712
 42
0.060887
  0
VERTEX
  8
0
 10
71.830612
 20
205.631984
 42
0.009057
  0
VERTEX
  8
0
 10
61.204394
 20
202.637583
 42
0.003534
  0
VERTEX
  8
0
 10
49.958103
 20
199.160515
 42
0.326922
  0
VERTEX
  8
0
 10
49.000000
 20
197.851788
 42
-0.172419
  0
VERTEX
  8
0
 10
48.884492
 20
197.526781
 42
-0.093768
  0
VERTEX
  8
0
 10
48.556701
 20
197.250213
 42
-0.074165
  0
VERTEX
  8
0
 10
48.068209
 20
197.063101
 42
-0.054489
  0
VERTEX
  8
0
 10
47.490898
 20
197.000000
 42
0.161516
  0
VERTEX
  8
0
 10
45.783922
 20
196.433820
 42
0.026274
  0
VERTEX
  8
0
 10
43.061568
 20
194.172873
 42
0.025440
  0
VERTEX
  8
0
 10
40.592414
 20
191.648400
 42
0.182861
  0
VERTEX
  8
0
 10
40.000000
 20
190.082720
 42
-0.077085
  0
VERTEX
  8
0
 10
39.935022
 20
189.663750
 42
-0.154611
  0
VERTEX
  8
0
 10
39.743926
 20
189.392950
 42
-0.186076
  0
VERTEX
  8
0
 10
39.459947
 20
189.310818
 42
-0.117326
  0
VERTEX
  8
0
 10
39.128258
 20
189.420732
 42
0.259585
  0
VERTEX
  8
0
 10
38.636495
 20
189.443180
 42
0.042108
  0
VERTEX
  8
0
 10
37.788724
 20
188.927469
 42
0.037349
  0
VERTEX
  8
0
 10
36.799739
 20
188.085391
 42
0.024742
  0
VERTEX
  8
0
 10
35.792291
 20
186.984973
 42
-0.046348
  0
VERTEX
  8
0
 10
34.334030
 20
185.524014
 42
-0.054811
  0
VERTEX
  8
0
 10
32.706647
 20
184.448056
 42
-0.047483
  0
VERTEX
  8
0
 10
30.697552
 20
183.646130
 42
-0.024369
  0
VERTEX
  8
0
 10
28.058915
 20
183.011173
 42
-0.012271
  0
VERTEX
  8
0
 10
25.975510
 20
182.668797
 42
-0.016520
  0
VERTEX
  8
0
 10
24.074706
 20
182.467899
 42
-0.013603
  0
VERTEX
  8
0
 10
22.506223
 20
182.397180
 42
-0.143836
  0
VERTEX
  8
0
 10
21.894882
 20
182.564967
 42
0.091794
  0
VERTEX
  8
0
 10
21.553348
 20
182.697631
 42
0.170376
  0
VERTEX
  8
0
 10
21.262872
 20
182.653703
 42
0.175175
  0
VERTEX
  8
0
 10
21.068909
 20
182.439722
 42
0.097692
  0
VERTEX
  8
0
 10
21.000000
 20
182.090402
 42
-0.158258
  0
VERTEX
  8
0
 10
20.887324
 20
181.743327
 42
-0.151929
  0
VERTEX
  8
0
 10
20.590592
 20
181.521741
 42
-0.112175
  0
VERTEX
  8
0
 10
20.139514
 20
181.468972
 42
-0.064953
  0
VERTEX
  8
0
 10
19.606271
 20
181.597594
 42
0.317022
  0
VERTEX
  8
0
 10
18.044509
 20
181.202814
 42
0.076485
  0
VERTEX
  8
0
 10
16.554069
 20
178.807104
 42
0.062240
  0
VERTEX
  8
0
 10
15.587395
 20
175.439552
 42
0.074402
  0
VERTEX
  8
0
 10
15.565332
 20
172.141757
 42
-0.014676
  0
VERTEX
  8
0
 10
15.721217
 20
170.761838
 42
-0.053342
  0
VERTEX
  8
0
 10
15.700561
 20
169.880898
 42
-0.277252
  0
VERTEX
  8
0
 10
15.510902
 20
169.641969
 42
-0.345526
  0
VERTEX
  8
0
 10
15.249277
 20
169.724747
 42
0.088906
  0
VERTEX
  8
0
 10
14.756170
 20
170.226865
 42
0.036605
  0
VERTEX
  8
0
 10
13.937161
 20
170.722188
 42
0.034748
  0
VERTEX
  8
0
 10
12.958350
 20
171.137505
 42
0.037586
  0
VERTEX
  8
0
 10
11.956590
 20
171.400436
 42
-0.003650
  0
VERTEX
  8
0
 10
10.979313
 20
171.587214
 42
-0.004555
  0
VERTEX
  8
0
 10
10.074748
 20
171.775530
 42
-0.003710
  0
VERTEX
  8
0
 10
9.318881
 20
171.945973
 42
-0.034691
  0
VERTEX
  8
0
 10
9.000000
 20
172.044111
 42
0.052881
  0
VERTEX
  8
0
 10
8.755239
 20
172.109812
 42
0.024306
  0
VERTEX
  8
0
 10
8.426563
 20
172.145441
 42
0.023750
  0
VERTEX
  8
0
 10
8.073800
 20
172.149635
 42
0.030259
  0
VERTEX
  8
0
 10
7.750000
 20
172.118421
 42
-0.114430
  0
VERTEX
  8
0
 10
7.464127
 20
172.138829
 42
-0.118245
  0
VERTEX
  8
0
 10
7.220313
 20
172.283173
 42
-0.110556
  0
VERTEX
  8
0
 10
7.057158
 20
172.531848
 42
-0.090352
  0
VERTEX
  8
0
 10
7.000000
 20
172.845571
 42
0.366128
  0
VERTEX
  8
0
 10
6.510480
 20
173.424467
 42
0.048653
  0
VERTEX
  8
0
 10
4.784563
 20
173.544937
 42
0.047107
  0
VERTEX
  8
0
 10
2.801389
 20
173.302415
 42
0.085672
  0
VERTEX
  8
0
 10
1.293674
 20
172.688369
 42
0.220141
  0
VERTEX
  8
0
 10
0.654241
 20
171.711839
 42
0.121693
  0
VERTEX
  8
0
 10
0.793433
 20
170.263691
 42
0.069934
  0
VERTEX
  8
0
 10
1.784651
 20
168.348815
 42
0.027637
  0
VERTEX
  8
0
 10
3.636306
 20
166.023881
 42
-0.014753
  0
VERTEX
  8
0
 10
4.497740
 20
164.997653
 42
-0.018875
  0
VERTEX
  8
0
 10
5.225754
 20
164.001403
 42
-0.017020
  0
VERTEX
  8
0
 10
5.765390
 20
163.139307
 42
-0.130757
  0
VERTEX
  8
0
 10
5.889321
 20
162.683024
 42
0.179295
  0
VERTEX
  8
0
 10
6.061107
 20
162.226628
 42
0.014770
  0
VERTEX
  8
0
 10
6.936636
 20
161.276105
 42
0.018304
  0
VERTEX
  8
0
 10
8.086547
 20
160.182513
 42
0.013049
  0
VERTEX
  8
0
 10
9.448714
 20
159.040757
 42
-0.013155
  0
VERTEX
  8
0
 10
11.166849
 20
157.600014
 42
-0.077053
  0
VERTEX
  8
0
 10
11.917356
 20
156.695991
 42
-0.240566
  0
VERTEX
  8
0
 10
11.958190
 20
156.086662
 42
-0.202487
  0
VERTEX
  8
0
 10
11.486932
 20
155.633359
 42
0.148378
  0
VERTEX
  8
0
 10
9.992011
 20
154.470713
 42
0.073022
  0
VERTEX
  8
0
 10
8.892004
 20
152.301929
 42
0.079655
  0
VERTEX
  8
0
 10
8.526519
 20
150.102008
 42
0.258296
  0
VERTEX
  8
0
 10
9.211246
 20
148.848281
 42
-0.028845
  0
VERTEX
  8
0
 10
9.652084
 20
148.531533
 42
-0.107056
  0
VERTEX
  8
0
 10
9.865148
 20
148.266314
 42
-0.335092
  0
VERTEX
  8
0
 10
9.833881
 20
148.097542
 42
-0.182847
  0
VERTEX
  8
0
 10
9.627555
 20
148.015313
 42
0.282972
  0
VERTEX
  8
0
 10
9.409849
 20
147.876054
 42
0.174542
  0
VERTEX
  8
0
 10
9.377077
 20
147.563873
 42
0.079630
  0
VERTEX
  8
0
 10
9.582717
 20
147.077403
 42
0.033478
  0
VERTEX
  8
0
 10
10.000000
 20
146.500000
 42
-0.030534
  0
VERTEX
  8
0
 10
10.421749
 20
145.923591
 42
-0.072390
  0
VERTEX
  8
0
 10
10.640970
 20
145.440625
 42
-0.163044
  0
VERTEX
  8
0
 10
10.628175
 20
145.133762
 42
-0.310947
  0
VERTEX
  8
0
 10
10.433883
 20
145.000000
 42
0.494530
  0
VERTEX
  8
0
 10
10.305993
 20
144.832560
 42
0.082165
  0
VERTEX
  8
0
 10
10.504000
 20
144.401057
 42
0.039277
  0
VERTEX
  8
0
 10
11.026944
 20
143.744617
 42
0.017395
  0
VERTEX
  8
0
 10
11.811439
 20
142.961045
 42
-0.018262
  0
VERTEX
  8
0
 10
12.649436
 20
142.121126
 42
-0.023115
  0
VERTEX
  8
0
 10
13.357110
 20
141.283521
 42
-0.022087
  0
VERTEX
  8
0
 10
13.874155
 20
140.545513
 42
-0.142697
  0
VERTEX
  8
0
 10
14.000000
 20
140.113537
 42
0.159898
  0
VERTEX
  8
0
 10
14.165258
 20
139.609987
 42
0.006855
  0
VERTEX
  8
0
 10
15.306430
 20
138.102390
 42
0.011137
  0
VERTEX
  8
0
 10
16.743393
 20
136.339584
 42
0.007645
  0
VERTEX
  8
0
 10
18.447420
 20
134.402493
 42
-0.014550
  0
VERTEX
  8
0
 10
20.164581
 20
132.395247
 42
-0.032356
  0
VERTEX
  8
0
 10
21.322863
 20
130.751620
 42
-0.044924
  0
VERTEX
  8
0
 10
21.914079
 20
129.556536
 42
-0.426333
  0
VERTEX
  8
0
 10
21.697420
 20
129.091968
 42
0.074024
  0
VERTEX
  8
0
 10
21.146391
 20
128.807755
 42
0.027353
  0
VERTEX
  8
0
 10
20.464456
 20
128.257804
 42
0.026393
  0
VERTEX
  8
0
 10
19.774341
 20
127.566675
 42
0.028741
  0
VERTEX
  8
0
 10
19.181578
 20
126.825239
 42
-0.045802
  0
VERTEX
  8
0
 10
18.608360
 20
126.156310
 42
-0.063218
  0
VERTEX
  8
0
 10
17.976791
 20
125.681659
 42
-0.080256
  0
VERTEX
  8
0
 10
17.386020
 20
125.460604
 42
-0.190106
  0
VERTEX
  8
0
 10
16.931578
 20
125.542287
 42
0.079348
  0
VERTEX
  8
0
 10
16.575475
 20
125.690839
 42
0.157422
  0
VERTEX
  8
0
 10
16.273651
 20
125.668028
 42
0.184591
  0
VERTEX
  8
0
 10
16.073412
 20
125.480441
 42
0.113721
  0
VERTEX
  8
0
 10
16.000000
 20
125.161845
 42
-0.131026
  0
VERTEX
  8
0
 10
15.856927
 20
124.625245
 42
-0.016675
  0
VERTEX
  8
0
 10
15.221840
 20
123.599728
 42
-0.018609
  0
VERTEX
  8
0
 10
14.365356
 20
122.412715
 42
-0.014497
  0
VERTEX
  8
0
 10
13.350943
 20
121.186735
 42
0.081624
  0
VERTEX
  8
0
 10
11.173110
 20
117.692494
 42
0.086540
  0
VERTEX
  8
0
 10
10.285202
 20
113.755408
 42
0.087917
  0
VERTEX
  8
0
 10
10.786859
 20
109.802074
 42
0.087724
  0
VERTEX
  8
0
 10
12.616426
 20
106.258471
 42
0.023994
  0
VERTEX
  8
0
 10
15.923621
 20
102.328690
 42
0.023595
  0
VERTEX
  8
0
 10
19.609809
 20
98.710737
 42
0.017256
  0
VERTEX
  8
0
 10
23.034708
 20
95.858807
 42
0.262349
  0
VERTEX
  8
0
 10
24.507301
 20
95.641175
 42
-0.283258
  0
VERTEX
  8
0
 10
25.678445
 20
95.421222
 42
-0.029912
  0
VERTEX
  8
0
 10
27.707967
 20
93.341935
 42
-0.033439
  0
VERTEX
  8
0
 10
29.501870
 20
90.965580
 42
-0.145967
  0
VERTEX
  8
0
 10
30.000000
 20
89.295630
 42
0.094934
  0
VERTEX
  8
0
 10
30.081654
 20
88.869449
 42
0.034847
  0
VERTEX
  8
0
 10
30.348489
 20
88.314602
 42
0.033019
  0
VERTEX
  8
0
 10
30.732354
 20
87.733710
 42
0.033873
  0
VERTEX
  8
0
 10
31.186346
 20
87.213654
 42
0.079493
  0
VERTEX
  8
0
 10
31.858893
 20
86.726634
 42
0.155897
  0
VERTEX
  8
0
 10
32.504886
 20
86.623187
 42
0.114114
  0
VERTEX
  8
0
 10
33.231008
 20
86.911326
 42
0.032651
  0
VERTEX
  8
0
 10
34.186346
 20
87.668641
 42
0.035860
  0
VERTEX
  8
0
 10
34.880363
 20
88.393676
 42
0.035358
  0
VERTEX
  8
0
 10
35.467239
 20
89.213711
 42
0.037572
  0
VERTEX
  8
0
 10
35.874498
 20
90.004901
 42
0.100401
  0
VERTEX
  8
0
 10
36.000000
 20
90.623603
 42
-0.119581
  0
VERTEX
  8
0
 10
36.114390
 20
91.095059
 42
-0.160737
  0
VERTEX
  8
0
 10
36.425924
 20
91.400784
 42
-0.133703
  0
VERTEX
  8
0
 10
36.908154
 20
91.494232
 42
-0.073127
  0
VERTEX
  8
0
 10
37.500000
 20
91.361626
 42
-0.068592
  0
VERTEX
  8
0
 10
38.073470
 20
91.045819
 42
-0.062887
  0
VERTEX
  8
0
 10
38.559375
 20
90.578452
 42
-0.066720
  0
VERTEX
  8
0
 10
38.888377
 20
90.036975
 42
-0.103554
  0
VERTEX
  8
0
 10
39.000000
 20
89.503795
 42
0.092045
  0
VERTEX
  8
0
 10
39.119181
 20
88.861875
 42
0.026975
  0
VERTEX
  8
0
 10
39.530912
 20
87.942574
 42
0.026104
  0
VERTEX
  8
0
 10
40.115618
 20
86.938244
 42
0.025317
  0
VERTEX
  8
0
 10
40.807360
 20
85.989573
 42
0.017903
  0
VERTEX
  8
0
 10
41.947164
 20
84.680696
 42
0.167962
  0
VERTEX
  8
0
 10
42.597776
 20
84.337239
 42
0.208141
  0
VERTEX
  8
0
 10
43.247971
 20
84.508482
 42
0.029372
  0
VERTEX
  8
0
 10
44.307360
 20
85.450217
 42
0.037566
  0
VERTEX
  8
0
 10
44.955090
 20
86.203346
 42
0.034586
  0
VERTEX
  8
0
 10
45.502787
 20
87.065287
 42
0.036406
  0
VERTEX
  8
0
 10
45.881546
 20
87.904104
 42
0.088065
  0
VERTEX
  8
0
 10
46.000000
 20
88.571429
 42
-0.059346
  0
VERTEX
  8
0
 10
46.065075
 20
89.117764
 42
-0.078273
  0
VERTEX
  8
0
 10
46.257031
 20
89.580357
 42
-0.096676
  0
VERTEX
  8
0
 10
46.541252
 20
89.890189
 42
-0.160285
  0
VERTEX
  8
0
 10
46.875000
 20
90.000000
 42
0.247457
  0
VERTEX
  8
0
 10
47.210883
 20
90.177076
 42
0.066043
  0
VERTEX
  8
0
 10
47.492969
 20
90.734375
 42
0.050979
  0
VERTEX
  8
0
 10
47.686256
 20
91.542375
 42
0.033246
  0
VERTEX
  8
0
 10
47.750000
 20
92.500000
 42
0.033246
  0
VERTEX
  8
0
 10
47.686256
 20
93.457625
 42
0.050979
  0
VERTEX
  8
0
 10
47.492969
 20
94.265625
 42
0.066043
  0
VERTEX
  8
0
 10
47.210883
 20
94.822924
 42
0.247457
  0
VERTEX
  8
0
 10
46.875000
 20
95.000000
 42
-0.201124
  0
VERTEX
  8
0
 10
46.540645
 20
95.140164
 42
-0.084762
  0
VERTEX
  8
0
 10
46.257031
 20
95.547885
 42
-0.064828
  0
VERTEX
  8
0
 10
46.064322
 20
96.151197
 42
-0.044956
  0
VERTEX
  8
0
 10
46.000000
 20
96.865141
 42
0.080532
  0
VERTEX
  8
0
 10
45.853402
 20
97.769423
 42
0.028953
  0
VERTEX
  8
0
 10
45.369012
 20
98.984569
 42
0.027829
  0
VERTEX
  8
0
 10
44.674062
 20
100.278557
 42
0.029513
  0
VERTEX
  8
0
 10
43.851955
 20
101.461079
 42
-0.049208
  0
VERTEX
  8
0
 10
42.307210
 20
103.880780
 42
-0.079345
  0
VERTEX
  8
0
 10
41.559542
 20
106.202990
 42
-0.101812
  0
VERTEX
  8
0
 10
41.659732
 20
108.213170
 42
-0.142903
  0
VERTEX
  8
0
 10
42.572948
 20
109.748431
 42
-0.088586
  0
VERTEX
  8
0
 10
43.361897
 20
110.258132
 42
-0.167107
  0
VERTEX
  8
0
 10
44.109425
 20
110.307336
 42
-0.102880
  0
VERTEX
  8
0
 10
44.980829
 20
109.864182
 42
-0.022524
  0
VERTEX
  8
0
 10
46.251569
 20
108.748431
 42
0.021218
  0
VERTEX
  8
0
 10
47.253982
 20
107.863636
 42
0.021010
  0
VERTEX
  8
0
 10
48.331001
 20
107.063905
 42
0.021420
  0
VERTEX
  8
0
 10
49.330393
 20
106.445845
 42
0.072313
  0
VERTEX
  8
0
 10
50.045455
 20
106.171245
 42
-0.046004
  0
VERTEX
  8
0
 10
50.709933
 20
105.955293
 42
-0.022411
  0
VERTEX
  8
0
 10
51.513352
 20
105.566221
 42
-0.022016
  0
VERTEX
  8
0
 10
52.319251
 20
105.083333
 42
-0.029612
  0
VERTEX
  8
0
 10
53.000000
 20
104.573245
 42
0.027701
  0
VERTEX
  8
0
 10
53.705787
 20
104.040174
 42
0.016906
  0
VERTEX
  8
0
 10
54.592056
 20
103.487390
 42
0.016926
  0
VERTEX
  8
0
 10
55.510201
 20
102.997637
 42
0.028625
  0
VERTEX
  8
0
 10
56.313382
 20
102.659062
 42
-0.052749
  0
VERTEX
  8
0
 10
56.966547
 20
102.345877
 42
-0.084326
  0
VERTEX
  8
0
 10
57.430277
 20
101.938532
 42
-0.118134
  0
VERTEX
  8
0
 10
57.637269
 20
101.506284
 42
-0.193617
  0
VERTEX
  8
0
 10
57.569126
 20
101.111848
 42
0.313297
  0
VERTEX
  8
0
 10
57.604428
 20
100.454434
 42
0.074114
  0
VERTEX
  8
0
 10
58.443955
 20
99.653352
 42
0.059430
  0
VERTEX
  8
0
 10
59.740392
 20
98.953013
 42
0.061287
  0
VERTEX
  8
0
 10
61.151842
 20
98.586367
 42
-0.125142
  0
VERTEX
  8
0
 10
61.548194
 20
98.427728
 42
-0.007327
  0
VERTEX
  8
0
 10
62.595726
 20
97.640666
 42
-0.010720
  0
VERTEX
  8
0
 10
63.821792
 20
96.648268
 42
-0.007665
  0
VERTEX
  8
0
 10
65.151842
 20
95.488241
 42
0.004732
  0
VERTEX
  8
0
 10
66.638153
 20
94.176498
 42
0.003296
  0
VERTEX
  8
0
 10
68.339433
 20
92.722953
 42
0.003325
  0
VERTEX
  8
0
 10
69.990133
 20
91.350013
 42
0.006874
  0
VERTEX
  8
0
 10
71.301548
 20
90.303773
 42
-0.015549
  0
VERTEX
  8
0
 10
72.380270
 20
89.412120
 42
-0.020437
  0
VERTEX
  8
0
 10
73.303643
 20
88.529735
 42
-0.018379
  0
VERTEX
  8
0
 10
74.001130
 20
87.751085
 42
-0.150093
  0
VERTEX
  8
0
 10
74.183102
 20
87.315532
 42
0.156546
  0
VERTEX
  8
0
 10
74.382444
 20
86.854824
 42
0.012292
  0
VERTEX
  8
0
 10
75.298796
 20
85.858313
 42
0.015787
  0
VERTEX
  8
0
 10
76.481843
 20
84.708563
 42
0.011401
  0
VERTEX
  8
0
 10
77.868858
 20
83.500000
 42
-0.008487
  0
VERTEX
  8
0
 10
79.414885
 20
82.168654
 42
-0.006286
  0
VERTEX
  8
0
 10
81.079932
 20
80.646875
 42
-0.006357
  0
VERTEX
  8
0
 10
82.616194
 20
79.169805
 42
-0.014208
  0
VERTEX
  8
0
 10
83.736780
 20
78.000000
 42
0.000113
  0
VERTEX
  8
0
 10
84.841258
 20
76.779958
 42
0.000047
  0
VERTEX
  8
0
 10
86.333342
 20
75.132812
 42
0.000046
  0
VERTEX
  8
0
 10
87.931940
 20
73.368745
 42
0.000060
  0
VERTEX
  8
0
 10
89.399475
 20
71.750000
 42
-0.007605
  0
VERTEX
  8
0
 10
90.665036
 20
70.310986
 42
-0.014174
  0
VERTEX
  8
0
 10
91.638649
 20
69.101563
 42
-0.010774
  0
VERTEX
  8
0
 10
92.327135
 20
68.153113
 42
-0.605273
  0
VERTEX
  8
0
 10
92.246990
 20
68.000000
 42
0.655591
  0
VERTEX
  8
0
 10
92.155458
 20
67.789520
 42
0.018120
  0
VERTEX
  8
0
 10
93.100404
 20
66.846882
 42
0.009490
  0
VERTEX
  8
0
 10
94.965715
 20
65.181072
 42
0.001206
  0
VERTEX
  8
0
 10
99.060149
 20
61.679057
 42
0.014618
  0
VERTEX
  8
0
 10
100.120151
 20
60.828996
 42
0.016446
  0
VERTEX
  8
0
 10
101.188034
 20
60.076574
 42
0.015870
  0
VERTEX
  8
0
 10
102.132526
 20
59.498574
 42
0.080508
  0
VERTEX
  8
0
 10
102.708908
 20
59.283747
 42
-0.064863
  0
VERTEX
  8
0
 10
103.373174
 20
59.059449
 42
-0.005929
  0
VERTEX
  8
0
 10
104.933744
 20
58.272526
 42
-0.007590
  0
VERTEX
  8
0
 10
106.776380
 20
57.280003
 42
-0.005873
  0
VERTEX
  8
0
 10
108.754135
 20
56.144967
 42
0.015432
  0
VERTEX
  8
0
 10
110.900671
 20
54.967030
 42
0.012812
  0
VERTEX
  8
0
 10
113.251918
 20
53.844533
 42
0.013010
  0
VERTEX
  8
0
 10
115.460279
 20
52.927035
 42
0.033757
  0
VERTEX
  8
0
 10
117.105377
 20
52.417676
 42
-0.000093
  0
VERTEX
  8
0
 10
118.460126
 20
52.096238
 42
-0.000115
  0
VERTEX
  8
0
 10
119.723142
 20
51.796009
 42
-0.000095
  0
VERTEX
  8
0
 10
120.784319
 20
51.543288
 42
-0.000848
  0
VERTEX
  8
0
 10
121.250000
 20
51.431456
 42
-0.013638
  0
VERTEX
  8
0
 10
121.573729
 20
51.343722
 42
-0.010109
  0
VERTEX
  8
0
 10
121.926562
 20
51.229865
 42
-0.010234
  0
VERTEX
  8
0
 10
122.255504
 20
51.108737
 42
-0.022592
  0
VERTEX
  8
0
 10
122.500000
 20
51.000000
 42
0.048935
  0
VERTEX
  8
0
 10
122.773229
 20
50.895325
 42
0.013840
  0
VERTEX
  8
0
 10
123.216290
 20
50.786719
 42
0.013806
  0
VERTEX
  8
0
 10
123.726313
 20
50.691222
 42
0.014181
  0
VERTEX
  8
0
 10
124.236305
 20
50.625000
 42
-0.123843
  0
VERTEX
  8
0
 10
124.734597
 20
50.444691
 42
-0.071387
  0
VERTEX
  8
0
 10
125.210149
 20
50.013806
 42
-0.064175
  0
VERTEX
  8
0
 10
125.592134
 20
49.409820
 42
-0.061453
  0
VERTEX
  8
0
 10
125.815431
 20
48.719873
 42
-0.139785
  0
VERTEX
  8
0
 10
125.657748
 20
46.922710
 42
-0.035489
  0
VERTEX
  8
0
 10
124.407948
 20
44.241818
 42
-0.034081
  0
VERTEX
  8
0
 10
122.819754
 20
41.792781
 42
-0.182485
  0
VERTEX
  8
0
 10
121.500000
 20
40.953647
 42
0.042811
  0
VERTEX
  8
0
 10
119.571255
 20
40.376156
 42
0.053483
  0
VERTEX
  8
0
 10
117.917201
 20
39.507979
 42
0.041556
  0
VERTEX
  8
0
 10
116.194154
 20
38.133667
 42
0.015114
  0
VERTEX
  8
0
 10
113.985770
 20
35.920108
 42
0.055127
  0
VERTEX
  8
0
 10
111.775806
 20
32.975690
 42
0.084813
  0
VERTEX
  8
0
 10
110.642725
 20
30.005967
 42
0.082352
  0
VERTEX
  8
0
 10
110.542393
 20
26.764420
 42
0.049152
  0
VERTEX
  8
0
 10
111.430227
 20
23.000000
 42
0.067923
  0
VERTEX
  8
0
 10
112.403402
 20
21.062527
 42
0.040181
  0
VERTEX
  8
0
 10
114.035888
 20
19.049695
 42
0.038939
  0
VERTEX
  8
0
 10
115.815595
 20
17.453145
 42
0.164809
  0
VERTEX
  8
0
 10
117.153010
 20
17.000000
 42
-0.106926
  0
VERTEX
  8
0
 10
117.456482
 20
16.934351
 42
-0.133483
  0
VERTEX
  8
0
 10
117.677759
 20
16.751171
 42
-0.129241
  0
VERTEX
  8
0
 10
117.780331
 20
16.476049
 42
-0.096999
  0
VERTEX
  8
0
 10
117.750000
 20
16.152923
 42
0.265756
  0
VERTEX
  8
0
 10
117.995884
 20
15.114572
 42
0.010457
  0
VERTEX
  8
0
 10
120.831693
 20
12.207196
 42
0.018703
  0
VERTEX
  8
0
 10
124.002350
 20
9.314762
 42
0.030347
  0
VERTEX
  8
0
 10
126.923721
 20
7.133011
 42
0.021745
  0
VERTEX
  8
0
 10
128.103268
 20
6.430267
 42
0.089591
  0
VERTEX
  8
0
 10
128.890283
 20
6.173715
 42
0.186507
  0
VERTEX
  8
0
 10
129.410546
 20
6.296828
 42
0.163408
  0
VERTEX
  8
0
 10
129.748423
 20
6.745270
 42
-0.160477
  0
VERTEX
  8
0
 10
130.084392
 20
7.196519
 42
-0.188064
  0
VERTEX
  8
0
 10
130.599573
 20
7.323018
 42
-0.090671
  0
VERTEX
  8
0
 10
131.378252
 20
7.071993
 42
-0.021838
  0
VERTEX
  8
0
 10
132.548373
 20
6.376348
 42
0.020616
  0
VERTEX
  8
0
 10
133.988620
 20
5.515340
 42
0.126688
  0
VERTEX
  8
0
 10
134.820341
 20
5.306900
 42
0.158404
  0
VERTEX
  8
0
 10
135.554848
 20
5.550859
 42
0.037649
  0
VERTEX
  8
0
 10
136.545099
 20
6.402242
 42
-0.026276
  0
VERTEX
  8
0
 10
137.224519
 20
7.013773
 42
-0.028823
  0
VERTEX
  8
0
 10
137.944440
 20
7.530659
 42
-0.029988
  0
VERTEX
  8
0
 10
138.604838
 20
7.895821
 42
-0.111747
  0
VERTEX
  8
0
 10
139.065154
 20
8.000000
 42
0.247532
  0
VERTEX
  8
0
 10
139.389423
 20
8.171012
 42
0.089720
  0
VERTEX
  8
0
 10
139.608927
 20
8.660937
 42
0.062693
  0
VERTEX
  8
0
 10
139.694412
 20
9.388021
 42
0.038318
  0
VERTEX
  8
0
 10
139.621154
 20
10.250000
 42
-0.046148
  0
VERTEX
  8
0
 10
139.551984
 20
11.248659
 42
-0.030896
  0
VERTEX
  8
0
 10
139.649103
 20
12.390482
 42
-0.031121
  0
VERTEX
  8
0
 10
139.883184
 20
13.494971
 42
-0.052127
  0
VERTEX
  8
0
 10
140.230674
 20
14.377174
 42
0.039432
  0
VERTEX
  8
0
 10
140.587853
 20
15.220651
 42
0.079870
  0
VERTEX
  8
0
 10
140.704067
 20
15.930210
 42
0.110774
  0
VERTEX
  8
0
 10
140.581396
 20
16.484743
 42
0.141158
  0
VERTEX
  8
0
 10
140.238026
 20
16.877174
 42
-0.084635
  0
VERTEX
  8
0
 10
139.821322
 20
17.257954
 42
-0.030348
  0
VERTEX
  8
0
 10
139.365020
 20
17.923684
 42
-0.029072
  0
VERTEX
  8
0
 10
138.943698
 20
18.728902
 42
-0.030478
  0
VERTEX
  8
0
 10
138.626061
 20
19.565155
 42
-0.175077
  0
VERTEX
  8
0
 10
138.690224
 20
21.003584
 42
-0.056014
  0
VERTEX
  8
0
 10
139.738219
 20
22.907744
 42
-0.030556
  0
VERTEX
  8
0
 10
141.910862
 20
25.615823
 42
-0.006671
  0
VERTEX
  8
0
 10
145.991280
 20
29.990897
 42
0.007180
  0
VERTEX
  8
0
 10
149.060042
 20
33.287988
 42
0.010612
  0
VERTEX
  8
0
 10
151.647438
 20
36.274226
 42
0.006125
  0
VERTEX
  8
0
 10
153.720410
 20
38.835133
 42
0.168631
  0
VERTEX
  8
0
 10
154.000000
 20
39.640557
 42
-0.191694
  0
VERTEX
  8
0
 10
154.496398
 20
40.887745
 42
-0.083553
  0
VERTEX
  8
0
 10
155.943667
 20
41.979976
 42
-0.093738
  0
VERTEX
  8
0
 10
157.539577
 20
42.461165
 42
-0.288404
  0
VERTEX
  8
0
 10
158.508410
 20
41.986392
 42
0.090177
  0
VERTEX
  8
0
 10
158.819590
 20
41.641072
 42
0.095414
  0
VERTEX
  8
0
 10
159.226649
 20
41.435715
 42
0.099725
  0
VERTEX
  8
0
 10
159.665673
 20
41.401318
 42
0.108667
  0
VERTEX
  8
0
 10
160.069098
 20
41.542705
 42
-0.090666
  0
VERTEX
  8
0
 10
160.424430
 20
41.681645
 42
-0.169366
  0
VERTEX
  8
0
 10
160.726548
 20
41.637945
 42
-0.176081
  0
VERTEX
  8
0
 10
160.928183
 20
41.418448
 42
-0.098926
  0
VERTEX
  8
0
 10
161.000000
 20
41.059017
 42
0.070581
  0
VERTEX
  8
0
 10
161.056168
 20
40.663103
 42
0.098132
  0
VERTEX
  8
0
 10
161.220312
 20
40.345872
 42
0.119530
  0
VERTEX
  8
0
 10
161.464438
 20
40.156510
 42
0.145617
  0
VERTEX
  8
0
 10
161.750000
 20
40.118421
 42
-0.030507
  0
VERTEX
  8
0
 10
162.073800
 20
40.149473
 42
-0.023940
  0
VERTEX
  8
0
 10
162.426562
 20
40.144795
 42
-0.024504
  0
VERTEX
  8
0
 10
162.755226
 20
40.108451
 42
-0.053202
  0
VERTEX
  8
0
 10
163.000000
 20
40.041910
 42
0.042109
  0
VERTEX
  8
0
 10
165.329024
 20
39.353060
 42
0.033403
  0
VERTEX
  8
0
 10
167.929640
 20
38.995538
 42
0.034334
  0
VERTEX
  8
0
 10
170.351542
 20
38.992640
 42
0.084330
  0
VERTEX
  8
0
 10
172.076707
 20
39.406974
 42
-0.218460
  0
VERTEX
  8
0
 10
173.055430
 20
39.381330
 42
-0.072970
  0
VERTEX
  8
0
 10
174.264832
 20
38.550307
 42
-0.041253
  0
VERTEX
  8
0
 10
175.814254
 20
36.855501
 42
-0.011613
  0
VERTEX
  8
0
 10
177.940764
 20
33.968943
 42
0.009196
  0
VERTEX
  8
0
 10
181.680511
 20
28.840830
 42
0.031841
  0
VERTEX
  8
0
 10
184.363888
 20
25.732456
 42
0.051040
  0
VERTEX
  8
0
 10
186.476898
 20
23.977845
 42
0.154667
  0
VERTEX
  8
0
 10
188.250000
 20
23.460096
 42
-0.043162
  0
VERTEX
  8
0
 10
188.917715
 20
23.417658
 42
-0.065293
  0
VERTEX
  8
0
 10
189.476595
 20
23.256862
 42
-0.088282
  0
VERTEX
  8
0
 10
189.847903
 20
23.010047
 42
-0.215335
  0
VERTEX
  8
0
 10
189.968195
 20
22.712202
 42
0.210070
  0
VERTEX
  8
0
 10
190.243295
 20
22.010784
 42
0.009099
  0
VERTEX
  8
0
 10
192.192710
 20
20.140401
 42
0.014384
  0
VERTEX
  8
0
 10
194.639915
 20
18.003771
 42
0.010203
  0
VERTEX
  8
0
 10
197.500000
 20
15.744483
 42
-0.015794
  0
VERTEX
  8
0
 10
198.113462
 20
15.248648
 42
-0.001605
  0
VERTEX
  8
0
 10
199.528125
 20
14.021466
 42
-0.002006
  0
VERTEX
  8
0
 10
201.203648
 20
12.546656
 42
-0.001598
  0
VERTEX
  8
0
 10
203.000000
 20
10.942365
 42
0.017946
  0
VERTEX
  8
0
 10
208.986269
 20
5.938079
 42
0.043987
  0
VERTEX
  8
0
 10
213.805910
 20
2.831947
 42
0.057692
  0
VERTEX
  8
0
 10
218.211020
 20
1.126880
 42
0.060622
  0
VERTEX
  8
0
 10
222.815337
 20
0.511082
 42
0.018042
  0
VERTEX
  8
0
 10
226.238000
 20
0.594001
 42
0.078054
  0
VERTEX
  8
0
 10
228.217773
 20
1.028606
 42
0.081321
  0
VERTEX
  8
0
 10
229.928908
 20
2.040803
 42
0.020561
  0
VERTEX
  8
0
 10
232.329207
 20
4.221833
 42
-0.011169
  0
VERTEX
  8
0
 10
233.863077
 20
5.669090
 42
-0.015522
  0
VERTEX
  8
0
 10
235.304067
 20
6.890164
 42
-0.011946
  0
VERTEX
  8
0
 10
236.540299
 20
7.826139
 42
-0.157317
  0
VERTEX
  8
0
 10
237.079207
 20
8.000000
 42
0.122242
  0
VERTEX
  8
0
 10
237.430391
 20
8.087161
 42
0.100758
  0
VERTEX
  8
0
 10
237.729517
 20
8.332732
 42
0.091227
  0
VERTEX
  8
0
 10
237.930472
 20
8.700039
 42
0.079836
  0
VERTEX
  8
0
 10
238.000000
 20
9.132705
 42
-0.119864
  0
VERTEX
  8
0
 10
238.134691
 20
9.686484
 42
-0.033829
  0
VERTEX
  8
0
 10
238.598360
 20
10.451632
 42
-0.032020
  0
VERTEX
  8
0
 10
239.257368
 20
11.272495
 42
-0.028975
  0
VERTEX
  8
0
 10
240.036970
 20
12.032064
 42
0.079906
  0
VERTEX
  8
0
 10
241.024581
 20
13.212064
 42
0.058573
  0
VERTEX
  8
0
 10
241.722479
 20
14.773224
 42
0.041780
  0
VERTEX
  8
0
 10
242.202490
 20
16.921160
 42
0.015969
  0
VERTEX
  8
0
 10
242.522079
 20
19.970757
 42
-0.006997
  0
VERTEX
  8
0
 10
242.732453
 20
22.397497
 42
-0.009481
  0
VERTEX
  8
0
 10
242.994618
 20
24.582238
 42
-0.006851
  0
VERTEX
  8
0
 10
243.272067
 20
26.392382
 42
-0.097250
  0
VERTEX
  8
0
 10
243.501421
 20
27.002299
 42
0.119389
  0
VERTEX
  8
0
 10
243.624619
 20
27.379202
 42
0.100671
  0
VERTEX
  8
0
 10
243.573250
 20
27.796794
 42
0.092147
  0
VERTEX
  8
0
 10
243.354233
 20
28.191265
 42
0.081834
  0
VERTEX
  8
0
 10
243.000000
 20
28.500000
 42
-0.077662
  0
VERTEX
  8
0
 10
242.643616
 20
28.805449
 42
-0.090161
  0
VERTEX
  8
0
 10
242.419142
 20
29.190895
 42
-0.100779
  0
VERTEX
  8
0
 10
242.359477
 20
29.594843
 42
-0.125487
  0
VERTEX
  8
0
 10
242.472678
 20
29.955791
 42
0.176827
  0
VERTEX
  8
0
 10
242.556083
 20
30.359893
 42
0.075207
  0
VERTEX
  8
0
 10
242.392156
 20
30.896220
 42
0.061191
  0
VERTEX
  8
0
 10
242.021424
 20
31.475902
 42
0.046747
  0
VERTEX
  8
0
 10
241.488990
 20
32.009138
 42
-0.048513
  0
VERTEX
  8
0
 10
240.919259
 20
32.583761
 42
-0.041593
  0
VERTEX
  8
0
 10
240.437391
 20
33.286544
 42
-0.043603
  0
VERTEX
  8
0
 10
240.107064
 20
34.005390
 42
-0.086111
  0
VERTEX
  8
0
 10
240.000000
 20
34.622445
 42
0.070908
  0
VERTEX
  8
0
 10
239.924963
 20
35.148899
 42
0.086403
  0
VERTEX
  8
0
 10
239.706250
 20
35.595343
 42
0.100269
  0
VERTEX
  8
0
 10
239.381339
 20
35.893816
 42
0.136626
  0
VERTEX
  8
0
 10
239.000000
 20
36.000000
 42
-0.104447
  0
VERTEX
  8
0
 10
238.618436
 20
36.080585
 42
-0.099061
  0
VERTEX
  8
0
 10
238.293750
 20
36.309335
 42
-0.096583
  0
VERTEX
  8
0
 10
238.076146
 20
36.651084
 42
-0.093881
  0
VERTEX
  8
0
 10
238.000000
 20
37.053054
 42
0.106803
  0
VERTEX
  8
0
 10
237.869698
 20
37.656104
 42
0.014181
  0
VERTEX
  8
0
 10
237.294338
 20
38.835248
 42
0.015897
  0
VERTEX
  8
0
 10
236.517592
 20
40.210585
 42
0.012737
  0
VERTEX
  8
0
 10
235.597748
 20
41.641340
 42
-0.032707
  0
VERTEX
  8
0
 10
234.697892
 20
43.172032
 42
-0.030263
  0
VERTEX
  8
0
 10
233.978924
 20
44.846539
 42
-0.031620
  0
VERTEX
  8
0
 10
233.524316
 20
46.416645
 42
-0.082171
  0
VERTEX
  8
0
 10
233.460234
 20
47.588286
 42
0.033695
  0
VERTEX
  8
0
 10
233.499038
 20
48.512322
 42
0.054444
  0
VERTEX
  8
0
 10
233.393851
 20
49.291559
 42
0.074790
  0
VERTEX
  8
0
 10
233.173530
 20
49.824125
 42
0.263142
  0
VERTEX
  8
0
 10
232.862487
 20
50.000000
 42
-0.158714
  0
VERTEX
  8
0
 10
232.533523
 20
50.107121
 42
-0.097005
  0
VERTEX
  8
0
 10
232.253355
 20
50.409197
 42
-0.078810
  0
VERTEX
  8
0
 10
232.064179
 20
50.860298
 42
-0.060021
  0
VERTEX
  8
0
 10
232.000000
 20
51.393011
 42
0.104296
  0
VERTEX
  8
0
 10
231.877764
 20
51.972642
 42
0.066683
  0
VERTEX
  8
0
 10
231.517331
 20
52.562043
 42
0.062725
  0
VERTEX
  8
0
 10
230.985068
 20
53.071482
 42
0.068054
  0
VERTEX
  8
0
 10
230.356872
 20
53.416550
 42
-0.045165
  0
VERTEX
  8
0
 10
229.772447
 20
53.703687
 42
-0.086862
  0
VERTEX
  8
0
 10
229.381388
 20
54.046835
 42
-0.143276
  0
VERTEX
  8
0
 10
229.240972
 20
54.385867
 42
-0.227150
  0
VERTEX
  8
0
 10
229.343446
 20
54.676779
 42
0.344295
  0
VERTEX
  8
0
 10
229.391214
 20
55.065631
 42
0.041942
  0
VERTEX
  8
0
 10
228.853797
 20
55.810867
 42
0.035616
  0
VERTEX
  8
0
 10
227.966470
 20
56.708170
 42
0.021042
  0
VERTEX
  8
0
 10
226.792294
 20
57.653241
 42
-0.013331
  0
VERTEX
  8
0
 10
225.635481
 20
58.555305
 42
-0.030195
  0
VERTEX
  8
0
 10
224.823199
 20
59.310998
 42
-0.060682
  0
VERTEX
  8
0
 10
224.447877
 20
59.815212
 42
-0.575279
  0
VERTEX
  8
0
 10
224.555720
 20
60.001221
 42
0.545973
  0
VERTEX
  8
0
 10
224.683110
 20
60.199963
 42
0.061890
  0
VERTEX
  8
0
 10
224.341368
 20
60.753494
 42
0.032390
  0
VERTEX
  8
0
 10
223.586801
 20
61.577423
 42
0.014630
  0
VERTEX
  8
0
 10
222.500000
 20
62.560435
 42
-0.000253
  0
VERTEX
  8
0
 10
221.186484
 20
63.681573
 42
-0.000181
  0
VERTEX
  8
0
 10
219.718078
 20
64.937123
 42
-0.000183
  0
VERTEX
  8
0
 10
218.319732
 20
66.134533
 42
-0.000393
  0
VERTEX
  8
0
 10
217.242394
 20
67.059214
 42
0.016895
  0
VERTEX
  8
0
 10
216.316501
 20
67.802285
 42
0.020679
  0
VERTEX
  8
0
 10
215.401390
 20
68.429894
 42
0.019648
  0
VERTEX
  8
0
 10
214.602504
 20
68.887845
 42
0.120888
  0
VERTEX
  8
0
 10
214.145404
 20
69.000000
 42
-0.122916
  0
VERTEX
  8
0
 10
213.686529
 20
69.114536
 42
-0.019291
  0
VERTEX
  8
0
 10
212.875195
 20
69.587500
 42
-0.020451
  0
VERTEX
  8
0
 10
211.944431
 20
70.234238
 42
-0.016575
  0
VERTEX
  8
0
 10
211.000000
 20
71.000000
 42
0.026119
  0
VERTEX
  8
0
 10
210.018225
 20
71.765465
 42
0.027277
  0
VERTEX
  8
0
 10
208.975695
 20
72.412500
 42
0.028290
  0
VERTEX
  8
0
 10
208.018811
 20
72.868081
 42
0.097252
  0
VERTEX
  8
0
 10
207.346990
 20
73.000000
 42
-0.060744
  0
VERTEX
  8
0
 10
206.389905
 20
73.116706
 42
-0.351004
  0
VERTEX
  8
0
 10
206.101361
 20
73.493929
 42
-0.108687
  0
VERTEX
  8
0
 10
206.288670
 20
74.263736
 42
-0.005843
  0
VERTEX
  8
0
 10
207.424952
 20
76.517984
 42
0.037624
  0
VERTEX
  8
0
 10
208.021353
 20
77.915467
 42
0.058473
  0
VERTEX
  8
0
 10
208.295926
 20
79.195255
 42
0.062717
  0
VERTEX
  8
0
 10
208.257755
 20
80.436558
 42
0.051874
  0
VERTEX
  8
0
 10
207.917798
 20
81.716207
 42
-0.027182
  0
VERTEX
  8
0
 10
207.598765
 20
82.715707
 42
-0.031945
  0
VERTEX
  8
0
 10
207.410305
 20
83.691678
 42
-0.033651
  0
VERTEX
  8
0
 10
207.360921
 20
84.519180
 42
-0.137330
  0
VERTEX
  8
0
 10
207.499077
 20
84.998506
 42
0.108763
  0
VERTEX
  8
0
 10
207.619081
 20
85.341128
 42
0.125370
  0
VERTEX
  8
0
 10
207.574569
 20
85.683696
 42
0.120532
  0
VERTEX
  8
0
 10
207.368680
 20
85.972973
 42
0.095723
  0
VERTEX
  8
0
 10
207.035150
 20
86.164590
 42
-0.151241
  0
VERTEX
  8
0
 10
206.628006
 20
86.461949
 42
-0.043059
  0
VERTEX
  8
0
 10
206.211382
 20
87.135848
 42
-0.039139
  0
VERTEX
  8
0
 10
205.849183
 20
88.018467
 42
-0.032836
  0
VERTEX
  8
0
 10
205.603229
 20
89.000000
 42
0.005536
  0
VERTEX
  8
0
 10
205.414574
 20
89.975948
 42
0.007858
  0
VERTEX
  8
0
 10
205.223614
 20
90.839062
 42
0.004823
  0
VERTEX
  8
0
 10
205.045497
 20
91.557266
 42
0.105466
  0
VERTEX
  8
0
 10
204.949310
 20
91.750000
 42
-0.068441
  0
VERTEX
  8
0
 10
204.863265
 20
91.894729
 42
-0.018081
  0
VERTEX
  8
0
 10
204.767330
 20
92.146875
 42
-0.018002
  0
VERTEX
  8
0
 10
204.678050
 20
92.444536
 42
-0.017616
  0
VERTEX
  8
0
 10
204.609687
 20
92.750000
 42
0.047426
  0
VERTEX
  8
0
 10
204.502689
 20
93.122479
 42
0.015601
  0
VERTEX
  8
0
 10
204.277441
 20
93.646875
 42
0.015382
  0
VERTEX
  8
0
 10
203.989809
 20
94.216400
 42
0.016827
  0
VERTEX
  8
0
 10
203.675670
 20
94.750000
 42
-0.031234
  0
VERTEX
  8
0
 10
203.411461
 20
95.229877
 42
-0.066508
  0
VERTEX
  8
0
 10
203.283270
 20
95.632812
 42
-0.129602
  0
VERTEX
  8
0
 10
203.304914
 20
95.894352
 42
-0.317700
  0
VERTEX
  8
0
 10
203.454403
 20
96.000000
 42
0.464397
  0
VERTEX
  8
0
 10
203.604731
 20
96.178015
 42
0.021319
  0
VERTEX
  8
0
 10
203.416070
 20
97.059331
 42
0.022849
  0
VERTEX
  8
0
 10
203.057160
 20
98.222854
 42
0.012721
  0
VERTEX
  8
0
 10
202.520059
 20
99.606234
 42
-0.018720
  0
VERTEX
  8
0
 10
201.980276
 20
101.047532
 42
-0.024895
  0
VERTEX
  8
0
 10
201.605612
 20
102.395383
 42
-0.023675
  0
VERTEX
  8
0
 10
201.409237
 20
103.512519
 42
-0.171718
  0
VERTEX
  8
0
 10
201.522951
 20
104.037136
 42
0.101262
  0
VERTEX
  8
0
 10
201.653051
 20
104.391632
 42
0.098441
  0
VERTEX
  8
0
 10
201.635385
 20
104.772534
 42
0.097406
  0
VERTEX
  8
0
 10
201.472733
 20
105.120922
 42
0.096858
  0
VERTEX
  8
0
 10
201.189995
 20
105.382576
 42
-0.180106
  0
VERTEX
  8
0
 10
200.874921
 20
105.787850
 42
-0.033584
  0
VERTEX
  8
0
 10
200.649659
 20
106.719256
 42
-0.032156
  0
VERTEX
  8
0
 10
200.524127
 20
107.900617
 42
-0.024515
  0
VERTEX
  8
0
 10
200.533817
 20
109.201675
 42
0.016804
  0
VERTEX
  8
0
 10
200.564325
 20
110.535704
 42
0.018923
  0
VERTEX
  8
0
 10
200.502043
 20
111.816683
 42
0.018515
  0
VERTEX
  8
0
 10
200.368326
 20
112.894347
 42
0.090091
  0
VERTEX
  8
0
 10
200.163826
 20
113.472141
 42
-0.076268
  0
VERTEX
  8
0
 10
199.937969
 20
114.058577
 42
-0.014224
  0
VERTEX
  8
0
 10
199.723012
 20
115.195024
 42
-0.014939
  0
VERTEX
  8
0
 10
199.547739
 20
116.550223
 42
-0.013157
  0
VERTEX
  8
0
 10
199.444567
 20
117.972141
 42
0.030431
  0
VERTEX
  8
0
 10
199.240695
 20
119.870862
 42
0.007471
  0
VERTEX
  8
0
 10
198.669685
 20
122.960566
 42
0.007623
  0
VERTEX
  8
0
 10
197.907218
 20
126.487015
 42
0.007550
  0
VERTEX
  8
0
 10
197.035307
 20
130.000000
 42
-0.000268
  0
VERTEX
  8
0
 10
196.157376
 20
133.329098
 42
-0.000378
  0
VERTEX
  8
0
 10
195.378830
 20
136.296875
 42
-0.000216
  0
VERTEX
  8
0
 10
194.724587
 20
138.802943
 42
-0.005307
  0
VERTEX
  8
0
 10
194.550813
 20
139.500000
 42
0.009541
  0
VERTEX
  8
0
 10
193.811780
 20
142.361035
 42
0.025256
  0
VERTEX
  8
0
 10
193.142323
 20
144.365282
 42
0.030200
  0
VERTEX
  8
0
 10
192.530517
 20
145.687928
 42
0.275995
  0
VERTEX
  8
0
 10
192.008223
 20
146.000000
 42
-0.277961
  0
VERTEX
  8
0
 10
191.379521
 20
146.378774
 42
-0.025790
  0
VERTEX
  8
0
 10
190.582922
 20
148.094122
 42
-0.031405
  0
VERTEX
  8
0
 10
189.966125
 20
149.952862
 42
-0.100543
  0
VERTEX
  8
0
 10
189.891849
 20
151.250000
 42
0.136940
  0
VERTEX
  8
0
 10
189.854802
 20
151.535654
 42
0.118150
  0
VERTEX
  8
0
 10
189.674481
 20
151.779687
 42
0.100285
  0
VERTEX
  8
0
 10
189.373963
 20
151.943594
 42
0.074993
  0
VERTEX
  8
0
 10
189.000000
 20
152.000000
 42
-0.127083
  0
VERTEX
  8
0
 10
188.618634
 20
152.098521
 42
-0.100760
  0
VERTEX
  8
0
 10
188.293750
 20
152.375777
 42
-0.089631
  0
VERTEX
  8
0
 10
188.075344
 20
152.790518
 42
-0.076630
  0
VERTEX
  8
0
 10
188.000000
 20
153.279241
 42
0.115942
  0
VERTEX
  8
0
 10
187.860855
 20
153.871239
 42
0.043072
  0
VERTEX
  8
0
 10
187.412500
 20
154.606151
 42
0.039803
  0
VERTEX
  8
0
 10
186.765268
 20
155.353917
 42
0.038332
  0
VERTEX
  8
0
 10
186.000000
 20
156.000000
 42
-0.036400
  0
VERTEX
  8
0
 10
185.234692
 20
156.641073
 42
-0.038728
  0
VERTEX
  8
0
 10
184.587500
 20
157.374054
 42
-0.041925
  0
VERTEX
  8
0
 10
184.137876
 20
158.087879
 42
-0.120148
  0
VERTEX
  8
0
 10
184.000000
 20
158.653372
 42
0.140715
  0
VERTEX
  8
0
 10
183.853426
 20
159.163879
 42
0.066613
  0
VERTEX
  8
0
 10
183.412500
 20
159.695708
 42
0.058134
  0
VERTEX
  8
0
 10
182.764979
 20
160.167241
 42
0.051531
  0
VERTEX
  8
0
 10
182.000000
 20
160.500000
 42
-0.045789
  0
VERTEX
  8
0
 10
181.234828
 20
160.822470
 42
-0.054359
  0
VERTEX
  8
0
 10
180.587500
 20
161.264355
 42
-0.063169
  0
VERTEX
  8
0
 10
180.144486
 20
161.752428
 42
-0.153916
  0
VERTEX
  8
0
 10
180.000000
 20
162.210672
 42
0.193919
  0
VERTEX
  8
0
 10
179.527922
 20
163.382107
 42
0.004636
  0
VERTEX
  8
0
 10
175.332874
 20
167.661578
 42
0.006747
  0
VERTEX
  8
0
 10
169.118181
 20
173.719127
 42
0.001660
  0
VERTEX
  8
0
 10
158.740048
 20
183.500000
 42
0.004112
  0
VERTEX
  8
0
 10
153.227833
 20
188.576119
 42
0.014864
  0
VERTEX
  8
0
 10
149.598031
 20
191.672671
 42
0.018711
  0
VERTEX
  8
0
 10
147.041868
 20
193.572443
 42
0.151576
  0
VERTEX
  8
0
 10
145.663905
 20
194.000000
 42
-0.134764
  0
VERTEX
  8
0
 10
145.191529
 20
194.129673
 42
-0.028657
  0
VERTEX
  8
0
 10
144.477896
 20
194.610727
 42
-0.028033
  0
VERTEX
  8
0
 10
143.689944
 20
195.283178
 42
-0.023460
  0
VERTEX
  8
0
 10
142.931421
 20
196.079072
 42
0.027687
  0
VERTEX
  8
0
 10
142.144507
 20
196.890912
 42
0.027598
  0
VERTEX
  8
0
 10
141.271908
 20
197.611754
 42
0.028709
  0
VERTEX
  8
0
 10
140.441560
 20
198.153237
 42
0.089062
  0
VERTEX
  8
0
 10
139.814126
 20
198.377165
 42
-0.038707
  0
VERTEX
  8
0
 10
139.172187
 20
198.535976
 42
-0.014429
  0
VERTEX
  8
0
 10
138.298524
 20
198.853654
 42
-0.014197
  0
VERTEX
  8
0
 10
137.362086
 20
199.256216
 42
-0.016683
  0
VERTEX
  8
0
 10
136.500000
 20
199.691695
 42
0.048876
  0
VERTEX
  8
0
 10
132.042475
 20
201.594429
 42
0.017393
  0
VERTEX
  8
0
 10
125.362241
 20
203.450342
 42
0.017712
  0
VERTEX
  8
0
 10
118.371833
 20
204.873072
 42
0.035240
  0
VERTEX
  8
0
 10
112.750087
 20
205.408252
 42
-0.013489
  0
VERTEX
  8
0
 10
111.312494
 20
205.482265
 42
-0.022054
  0
VERTEX
  8
0
 10
110.101685
 20
205.631357
 42
-0.017834
  0
VERTEX
  8
0
 10
109.170442
 20
205.822344
 42
-0.346073
  0
VERTEX
  8
0
 10
109.000087
 20
206.038920
 42
0.332500
  0
VERTEX
  8
0
 10
108.837991
 20
206.255652
 42
0.022683
  0
VERTEX
  8
0
 10
108.045338
 20
206.450700
 42
0.025260
  0
VERTEX
  8
0
 10
106.995846
 20
206.604389
 42
0.015567
  0
VERTEX
  8
0
 10
105.750000
 20
206.683941
 42
-0.013698
  0
VERTEX
  8
0
 10
103.039852
 20
206.846826
 42
-0.034763
  0
VERTEX
  8
0
 10
101.093094
 20
207.154847
 42
-0.049274
  0
VERTEX
  8
0
 10
99.737299
 20
207.611509
 42
-0.127494
  0
VERTEX
  8
0
 10
98.939161
 20
208.252948
 42
0.194725
  0
VERTEX
  8
0
 10
97.349159
 20
209.218967
 42
0.036961
  0
VERTEX
  8
0
 10
93.904158
 20
209.520945
 42
0.039510
  0
VERTEX
  8
0
 10
90.255641
 20
209.281867
 42
0.090280
  0
SEQEND
  0
ENDSEC
  0
EOF
