  0
SECTION
  2
HEADER
  9
$ACADVER
  1
AC1006
  9
$EXTMIN
 10
0.000000
 20
0.000000
 30
0.000000
  9
$EXTMAX
 10
423.000000
 20
110.000000
 30
0.000000
  0
ENDSEC
  0
SECTION
  2
ENTITIES
  0
POLYLINE
  8
0
 66
1
 70
1
  0
VERTEX
  8
0
 10
234.000000
 20
108.412525
 42
-0.002671
  0
VERTEX
  8
0
 10
230.870301
 20
107.857640
 42
-0.002509
  0
VERTEX
  8
0
 10
227.668661
 20
107.324150
 42
-0.002495
  0
VERTEX
  8
0
 10
224.824554
 20
106.879441
 42
-0.008648
  0
VERTEX
  8
0
 10
222.978421
 20
106.632787
 42
0.072320
  0
VERTEX
  8
0
 10
218.507901
 20
105.443960
 42
0.025818
  0
VERTEX
  8
0
 10
212.565268
 20
102.529799
 42
0.025314
  0
VERTEX
  8
0
 10
206.377046
 20
98.665901
 42
0.029948
  0
VERTEX
  8
0
 10
200.965664
 20
94.390518
 42
-0.015506
  0
VERTEX
  8
0
 10
197.946211
 20
91.860011
 42
-0.034898
  0
VERTEX
  8
0
 10
195.476386
 20
90.182077
 42
-0.044062
  0
VERTEX
  8
0
 10
193.202407
 20
89.114547
 42
-0.047002
  0
VERTEX
  8
0
 10
190.824889
 20
88.489928
 42
0.016916
  0
VERTEX
  8
0
 10
188.684342
 20
88.063128
 42
0.006342
  0
VERTEX
  8
0
 10
185.714186
 20
87.325825
 42
0.006274
  0
VERTEX
  8
0
 10
182.496994
 20
86.440460
 42
0.007574
  0
VERTEX
  8
0
 10
179.500000
 20
85.525692
 42
-0.002389
  0
VERTEX
  8
0
 10
171.352433
 20
82.946164
 42
-0.003480
  0
VERTEX
  8
0
 10
164.143616
 20
80.756613
 42
-0.003136
  0
VERTEX
  8
0
 10
158.265247
 20
79.055783
 42
-0.024002
  0
VERTEX
  8
0
 10
155.465344
 20
78.407938
 42
0.016588
  0
VERTEX
  8
0
 10
154.344672
 20
78.166077
 42
0.008478
  0
VERTEX
  8
0
 10
152.954760
 20
77.792332
 42
0.008414
  0
VERTEX
  8
0
 10
151.534105
 20
77.358367
 42
0.012508
  0
VERTEX
  8
0
 10
150.307298
 20
76.926735
 42
-0.070925
  0
VERTEX
  8
0
 10
148.448612
 20
76.507763
 42
-0.022682
  0
VERTEX
  8
0
 10
145.610814
 20
76.409141
 42
-0.017224
  0
VERTEX
  8
0
 10
141.760295
 20
76.582766
 42
-0.006987
  0
VERTEX
  8
0
 10
136.531182
 20
77.072999
 42
-0.007979
  0
VERTEX
  8
0
 10
130.676677
 20
77.799183
 42
-0.026804
  0
VERTEX
  8
0
 10
126.886917
 20
78.539669
 42
-0.039311
  0
VERTEX
  8
0
 10
124.058554
 20
79.493112
 42
-0.042886
  0
VERTEX
  8
0
 10
121.500000
 20
80.855974
 42
0.043650
  0
VERTEX
  8
0
 10
118.668212
 20
82.358839
 42
0.068850
  0
VERTEX
  8
0
 10
116.016229
 20
83.073384
 42
0.031565
  0
VERTEX
  8
0
 10
112.069890
 20
83.320736
 42
0.003072
  0
VERTEX
  8
0
 10
102.500000
 20
83.257038
 42
0.007975
  0
VERTEX
  8
0
 10
95.798573
 20
83.064314
 42
0.005131
  0
VERTEX
  8
0
 10
88.036156
 20
82.637244
 42
0.005156
  0
VERTEX
  8
0
 10
80.447625
 20
82.062939
 42
0.009653
  0
VERTEX
  8
0
 10
74.325211
 20
81.416754
 42
-0.006077
  0
VERTEX
  8
0
 10
67.309257
 20
80.625493
 42
-0.018243
  0
VERTEX
  8
0
 10
62.497665
 20
80.318729
 42
-0.025025
  0
VERTEX
  8
0
 10
58.610007
 20
80.407590
 42
-0.024885
  0
VERTEX
  8
0
 10
54.743298
 20
80.884248
 42
0.022769
  0
VERTEX
  8
0
 10
51.364941
 20
81.315221
 42
0.006627
  0
VERTEX
  8
0
 10
46.129829
 20
81.672284
 42
0.006646
  0
VERTEX
  8
0
 10
40.216621
 20
81.918148
 42
0.007064
  0
VERTEX
  8
0
 10
34.418087
 20
82.000124
 42
0.004708
  0
VERTEX
  8
0
 10
26.016875
 20
81.921095
 42
0.028560
  0
VERTEX
  8
0
 10
21.678820
 20
81.591088
 42
0.045408
  0
VERTEX
  8
0
 10
18.321212
 20
80.826908
 42
0.024079
  0
VERTEX
  8
0
 10
14.328230
 20
79.311681
 42
0.049649
  0
VERTEX
  8
0
 10
9.742224
 20
76.746148
 42
0.079842
  0
VERTEX
  8
0
 10
6.529107
 20
73.639111
 42
0.087779
  0
VERTEX
  8
0
 10
4.647165
 20
69.913284
 42
0.073285
  0
VERTEX
  8
0
 10
4.000000
 20
65.521575
 42
-0.041798
  0
VERTEX
  8
0
 10
3.860346
 20
63.853910
 42
-0.035682
  0
VERTEX
  8
0
 10
3.443575
 20
62.139167
 42
-0.036567
  0
VERTEX
  8
0
 10
2.804722
 20
60.552891
 42
-0.052687
  0
VERTEX
  8
0
 10
2.000000
 20
59.272871
 42
0.062467
  0
VERTEX
  8
0
 10
0.996686
 20
57.605695
 42
0.056657
  0
VERTEX
  8
0
 10
0.395150
 20
55.686820
 42
0.037171
  0
VERTEX
  8
0
 10
0.086934
 20
53.048137
 42
0.010494
  0
VERTEX
  8
0
 10
-0.000000
 20
48.906350
 42
0.011050
  0
VERTEX
  8
0
 10
0.108604
 20
43.992743
 42
0.062815
  0
VERTEX
  8
0
 10
0.549296
 20
41.420263
 42
0.070741
  0
VERTEX
  8
0
 10
1.597213
 20
39.173249
 42
0.016126
  0
VERTEX
  8
0
 10
4.007699
 20
35.723422
 42
0.020335
  0
VERTEX
  8
0
 10
6.407115
 20
32.773115
 42
0.053544
  0
VERTEX
  8
0
 10
8.416396
 20
30.937124
 42
0.053949
  0
VERTEX
  8
0
 10
10.760782
 20
29.577380
 42
0.020897
  0
VERTEX
  8
0
 10
14.257699
 20
28.196853
 42
0.057695
  0
VERTEX
  8
0
 10
22.064817
 20
26.459620
 42
0.021967
  0
VERTEX
  8
0
 10
33.211693
 20
25.792648
 42
0.021379
  0
VERTEX
  8
0
 10
44.198183
 20
26.088415
 42
0.072850
  0
VERTEX
  8
0
 10
51.172312
 20
27.612191
 42
-0.013920
  0
VERTEX
  8
0
 10
54.091381
 20
28.620906
 42
-0.076302
  0
VERTEX
  8
0
 10
55.735155
 20
28.873656
 42
-0.085974
  0
VERTEX
  8
0
 10
57.289653
 20
28.604786
 42
-0.020212
  0
VERTEX
  8
0
 10
59.746289
 20
27.614408
 42
0.051940
  0
VERTEX
  8
0
 10
62.378931
 20
26.742426
 42
0.024196
  0
VERTEX
  8
0
 10
65.928977
 20
26.141518
 42
0.016669
  0
VERTEX
  8
0
 10
70.853664
 20
25.717144
 42
0.005578
  0
VERTEX
  8
0
 10
78.073977
 20
25.417549
 42
-0.000454
  0
VERTEX
  8
0
 10
83.781510
 20
25.239285
 42
-0.000595
  0
VERTEX
  8
0
 10
88.996731
 20
25.065446
 42
-0.000435
  0
VERTEX
  8
0
 10
93.368275
 20
24.910715
 42
-0.005610
  0
VERTEX
  8
0
 10
95.000000
 20
24.833198
 42
0.026051
  0
VERTEX
  8
0
 10
96.293611
 20
24.824659
 42
0.008097
  0
VERTEX
  8
0
 10
98.234375
 20
24.944525
 42
0.008071
  0
VERTEX
  8
0
 10
100.402356
 20
25.148959
 42
0.008810
  0
VERTEX
  8
0
 10
102.500000
 20
25.418464
 42
-0.018312
  0
VERTEX
  8
0
 10
105.458812
 20
25.741596
 42
-0.002831
  0
VERTEX
  8
0
 10
111.347446
 20
26.133744
 42
-0.003155
  0
VERTEX
  8
0
 10
118.302201
 20
26.513323
 42
-0.002738
  0
VERTEX
  8
0
 10
125.597688
 20
26.825314
 42
0.004054
  0
VERTEX
  8
0
 10
133.988026
 20
27.206250
 42
0.011842
  0
VERTEX
  8
0
 10
139.764936
 20
27.652887
 42
0.012074
  0
VERTEX
  8
0
 10
143.819356
 20
28.162306
 42
0.136849
  0
VERTEX
  8
0
 10
145.280856
 20
28.816980
 42
-0.112737
  0
VERTEX
  8
0
 10
146.443299
 20
29.405454
 42
-0.039784
  0
VERTEX
  8
0
 10
148.296900
 20
29.713295
 42
-0.027775
  0
VERTEX
  8
0
 10
150.930612
 20
29.791050
 42
-0.009954
  0
VERTEX
  8
0
 10
154.683169
 20
29.618578
 42
0.001299
  0
VERTEX
  8
0
 10
158.483995
 20
29.377900
 42
0.000551
  0
VERTEX
  8
0
 10
163.581931
 20
29.074025
 42
0.000545
  0
VERTEX
  8
0
 10
169.025009
 20
28.761548
 42
0.000714
  0
VERTEX
  8
0
 10
174.000000
 20
28.488506
 42
-0.009762
  0
VERTEX
  8
0
 10
180.813036
 20
27.990796
 42
-0.029780
  0
VERTEX
  8
0
 10
185.395180
 20
27.288953
 42
-0.029586
  0
VERTEX
  8
0
 10
189.877409
 20
26.045155
 42
-0.009536
  0
VERTEX
  8
0
 10
196.359780
 20
23.686908
 42
-0.010404
  0
VERTEX
  8
0
 10
201.964779
 20
21.390877
 42
-0.024474
  0
VERTEX
  8
0
 10
206.017936
 20
19.390136
 42
-0.030388
  0
VERTEX
  8
0
 10
209.283836
 20
17.304940
 42
-0.028194
  0
VERTEX
  8
0
 10
212.359780
 20
14.790154
 42
0.034016
  0
VERTEX
  8
0
 10
217.325649
 20
10.825706
 42
0.038206
  0
VERTEX
  8
0
 10
222.600950
 20
7.739452
 42
0.032412
  0
VERTEX
  8
0
 10
228.977427
 20
5.132014
 42
0.015810
  0
VERTEX
  8
0
 10
237.399539
 20
2.602708
 42
0.013031
  0
VERTEX
  8
0
 10
245.136764
 20
0.757847
 42
0.045824
  0
VERTEX
  8
0
 10
250.215322
 20
0.163892
 42
0.044014
  0
VERTEX
  8
0
 10
255.419799
 20
0.492892
 42
0.011361
  0
VERTEX
  8
0
 10
263.711941
 20
1.948956
 42
-0.002834
  0
VERTEX
  8
0
 10
268.021172
 20
2.781622
 42
-0.001985
  0
VERTEX
  8
0
 10
272.885222
 20
3.672950
 42
-0.002002
  0
VERTEX
  8
0
 10
277.551973
 20
4.489711
 42
-0.004176
  0
VERTEX
  8
0
 10
281.195197
 20
5.081040
 42
0.020780
  0
VERTEX
  8
0
 10
285.635539
 20
5.953935
 42
0.036308
  0
VERTEX
  8
0
 10
289.206406
 20
7.090878
 42
0.030174
  0
VERTEX
  8
0
 10
292.993287
 20
8.879033
 42
0.010118
  0
VERTEX
  8
0
 10
298.298671
 20
11.928846
 42
-0.012533
  0
VERTEX
  8
0
 10
303.501110
 20
14.886145
 42
-0.024564
  0
VERTEX
  8
0
 10
307.805224
 20
16.926705
 42
-0.025466
  0
VERTEX
  8
0
 10
312.185628
 20
18.489384
 42
-0.014610
  0
VERTEX
  8
0
 10
317.603474
 20
19.945334
 42
0.004016
  0
VERTEX
  8
0
 10
321.817756
 20
20.982645
 42
0.003307
  0
VERTEX
  8
0
 10
326.297601
 20
22.155166
 42
0.003340
  0
VERTEX
  8
0
 10
330.396779
 20
23.286486
 42
0.008882
  0
VERTEX
  8
0
 10
333.303252
 20
24.165623
 42
-0.028078
  0
VERTEX
  8
0
 10
336.717694
 20
25.056953
 42
-0.024218
  0
VERTEX
  8
0
 10
340.383391
 20
25.613900
 42
-0.018940
  0
VERTEX
  8
0
 10
344.844435
 20
25.901944
 42
-0.008168
  0
VERTEX
  8
0
 10
350.803252
 20
25.963128
 42
0.008187
  0
VERTEX
  8
0
 10
355.676481
 20
26.013351
 42
0.007699
  0
VERTEX
  8
0
 10
360.646362
 20
26.222593
 42
0.007687
  0
VERTEX
  8
0
 10
365.045653
 20
26.543649
 42
0.026255
  0
VERTEX
  8
0
 10
367.886490
 20
26.946077
 42
-0.031717
  0
VERTEX
  8
0
 10
371.029384
 20
27.356353
 42
-0.005442
  0
VERTEX
  8
0
 10
377.041145
 20
27.690410
 42
-0.005910
  0
VERTEX
  8
0
 10
384.118886
 20
27.922684
 42
-0.005246
  0
VERTEX
  8
0
 10
391.487266
 20
28.000000
 42
0.006420
  0
VERTEX
  8
0
 10
403.992302
 20
28.160562
 42
0.034697
  0
VERTEX
  8
0
 10
410.750946
 20
28.804872
 42
0.061573
  0
VERTEX
  8
0
 10
415.423966
 20
30.186138
 42
0.057119
  0
VERTEX
  8
0
 10
419.750000
 20
32.688994
 42
0.000000
  0
VERTEX
  8
0
 10
423.000000
 20
35.101783
 42
0.000000
  0
VERTEX
  8
0
 10
422.996974
 20
48.300891
 42
0.009201
  0
VERTEX
  8
0
 10
422.874608
 20
54.868458
 42
0.012168
  0
VERTEX
  8
0
 10
422.507725
 20
60.839645
 42
0.012968
  0
VERTEX
  8
0
 10
421.878234
 20
66.455041
 42
0.013550
  0
VERTEX
  8
0
 10
420.965423
 20
71.948218
 42
0.002762
  0
VERTEX
  8
0
 10
420.159172
 20
75.981718
 42
0.004314
  0
VERTEX
  8
0
 10
419.415981
 20
79.444068
 42
0.001322
  0
VERTEX
  8
0
 10
418.739086
 20
82.432950
 42
0.140932
  0
VERTEX
  8
0
 10
418.539292
 20
82.794042
 42
0.117060
  0
VERTEX
  8
0
 10
418.190012
 20
83.009312
 42
0.001654
  0
VERTEX
  8
0
 10
415.829321
 20
83.781078
 42
0.004498
  0
VERTEX
  8
0
 10
413.070298
 20
84.645646
 42
0.002936
  0
VERTEX
  8
0
 10
409.872202
 20
85.595824
 42
0.016633
  0
VERTEX
  8
0
 10
405.113110
 20
86.809332
 42
0.024423
  0
VERTEX
  8
0
 10
400.856241
 20
87.529403
 42
0.020810
  0
VERTEX
  8
0
 10
396.076810
 20
87.898722
 42
0.008462
  0
VERTEX
  8
0
 10
389.551359
 20
88.019993
 42
-0.009429
  0
VERTEX
  8
0
 10
384.322689
 20
88.127281
 42
-0.007069
  0
VERTEX
  8
0
 10
378.572192
 20
88.435289
 42
-0.007151
  0
VERTEX
  8
0
 10
373.165893
 20
88.879329
 42
-0.016226
  0
VERTEX
  8
0
 10
369.098655
 20
89.405693
 42
0.013425
  0
VERTEX
  8
0
 10
364.256949
 20
90.059875
 42
0.026493
  0
VERTEX
  8
0
 10
360.383232
 20
90.271120
 42
0.024078
  0
VERTEX
  8
0
 10
356.278119
 20
90.079511
 42
0.009231
  0
VERTEX
  8
0
 10
350.598655
 20
89.433545
 42
0.006464
  0
VERTEX
  8
0
 10
346.486271
 20
88.834548
 42
0.006905
  0
VERTEX
  8
0
 10
342.480547
 20
88.141252
 42
0.006596
  0
VERTEX
  8
0
 10
339.055112
 20
87.452650
 42
0.031818
  0
VERTEX
  8
0
 10
337.143632
 20
86.912940
 42
-0.079334
  0
VERTEX
  8
0
 10
333.404596
 20
86.230748
 42
-0.018440
  0
VERTEX
  8
0
 10
326.998749
 20
86.325212
 42
-0.019900
  0
VERTEX
  8
0
 10
320.208150
 20
86.947715
 42
-0.034845
  0
VERTEX
  8
0
 10
314.678572
 20
88.073640
 42
-0.030094
  0
VERTEX
  8
0
 10
310.646167
 20
89.458012
 42
-0.007387
  0
VERTEX
  8
0
 10
304.200462
 20
92.226224
 42
-0.006933
  0
VERTEX
  8
0
 10
296.359720
 20
95.862926
 42
-0.004659
  0
VERTEX
  8
0
 10
287.500000
 20
100.224605
 42
0.013082
  0
VERTEX
  8
0
 10
283.787616
 20
101.975170
 42
0.007404
  0
VERTEX
  8
0
 10
279.206250
 20
103.910285
 42
0.007387
  0
VERTEX
  8
0
 10
274.526631
 20
105.725734
 42
0.012048
  0
VERTEX
  8
0
 10
270.500000
 20
107.110377
 42
0.012794
  0
VERTEX
  8
0
 10
265.346348
 20
108.600831
 42
0.027879
  0
VERTEX
  8
0
 10
261.314667
 20
109.418898
 42
0.027035
  0
VERTEX
  8
0
 10
257.141090
 20
109.797187
 42
0.011347
  0
VERTEX
  8
0
 10
251.500000
 20
109.874146
 42
0.010831
  0
VERTEX
  8
0
 10
247.123382
 20
109.739686
 42
0.007739
  0
VERTEX
  8
0
 10
242.234375
 20
109.407454
 42
0.007819
  0
VERTEX
  8
0
 10
237.582503
 20
108.945575
 42
0.016555
  0
SEQEND
  0
ENDSEC
  0
EOF
