  0
SECTION
  2
HEADER
  9
$ACADVER
  1
AC1006
  9
$EXTMIN
 10
0.000000
 20
0.000000
 30
0.000000
  9
$EXTMAX
 10
419.000000
 20
100.000000
 30
0.000000
  0
ENDSEC
  0
SECTION
  2
ENTITIES
  0
POLYLINE
  8
0
 66
1
 70
1
  0
VERTEX
  8
0
 10
188.014383
 20
97.515310
 42
-0.052522
  0
VERTEX
  8
0
 10
186.859876
 20
96.519640
 42
-0.031665
  0
VERTEX
  8
0
 10
185.311239
 20
95.584158
 42
-0.031460
  0
VERTEX
  8
0
 10
183.635333
 20
94.841372
 42
-0.047190
  0
VERTEX
  8
0
 10
182.090069
 20
94.430317
 42
0.037891
  0
VERTEX
  8
0
 10
173.638508
 20
92.349310
 42
0.024532
  0
VERTEX
  8
0
 10
164.230676
 20
88.741164
 42
0.020940
  0
VERTEX
  8
0
 10
155.949862
 20
84.667769
 42
0.141321
  0
VERTEX
  8
0
 10
152.732103
 20
81.485778
 42
-0.063623
  0
VERTEX
  8
0
 10
152.311403
 20
80.917515
 42
-0.053883
  0
VERTEX
  8
0
 10
151.738842
 20
80.436447
 42
-0.056241
  0
VERTEX
  8
0
 10
151.108640
 20
80.109355
 42
-0.091855
  0
VERTEX
  8
0
 10
150.518404
 20
80.000000
 42
0.144373
  0
VERTEX
  8
0
 10
149.842297
 20
79.800621
 42
0.034597
  0
VERTEX
  8
0
 10
148.895408
 20
79.091644
 42
0.032710
  0
VERTEX
  8
0
 10
147.878747
 20
78.091399
 42
0.027348
  0
VERTEX
  8
0
 10
146.934294
 20
76.907724
 42
-0.027638
  0
VERTEX
  8
0
 10
145.530202
 20
75.150080
 42
-0.118900
  0
VERTEX
  8
0
 10
144.436742
 20
74.394263
 42
-0.109963
  0
VERTEX
  8
0
 10
143.073994
 20
74.189598
 42
-0.021985
  0
VERTEX
  8
0
 10
140.616200
 20
74.470849
 42
0.020917
  0
VERTEX
  8
0
 10
131.256994
 20
75.562083
 42
0.014543
  0
VERTEX
  8
0
 10
120.624130
 20
76.042561
 42
0.008484
  0
VERTEX
  8
0
 10
105.424846
 20
76.028953
 42
0.001808
  0
VERTEX
  8
0
 10
79.000000
 20
75.461266
 42
-0.001353
  0
VERTEX
  8
0
 10
57.212106
 20
74.973359
 42
-0.007462
  0
VERTEX
  8
0
 10
45.470630
 20
74.917480
 42
-0.013800
  0
VERTEX
  8
0
 10
37.596319
 20
75.214982
 42
-0.022028
  0
VERTEX
  8
0
 10
30.903486
 20
75.950187
 42
0.016044
  0
VERTEX
  8
0
 10
27.337350
 20
76.385164
 42
0.031780
  0
VERTEX
  8
0
 10
24.489702
 20
76.458515
 42
0.033690
  0
VERTEX
  8
0
 10
21.765531
 20
76.171034
 42
0.020580
  0
VERTEX
  8
0
 10
18.604696
 20
75.485254
 42
-0.014014
  0
VERTEX
  8
0
 10
16.139921
 20
74.916510
 42
-0.011103
  0
VERTEX
  8
0
 10
13.448223
 20
74.436293
 42
-0.011262
  0
VERTEX
  8
0
 10
10.929909
 20
74.102390
 42
-0.027331
  0
VERTEX
  8
0
 10
9.058199
 20
74.000000
 42
0.052153
  0
VERTEX
  8
0
 10
6.433249
 20
73.725457
 42
0.170083
  0
VERTEX
  8
0
 10
4.960924
 20
72.832132
 42
0.140988
  0
VERTEX
  8
0
 10
4.207991
 20
71.091990
 42
0.032069
  0
VERTEX
  8
0
 10
4.000000
 20
67.852471
 42
-0.028764
  0
VERTEX
  8
0
 10
3.926286
 20
66.572186
 42
-0.022257
  0
VERTEX
  8
0
 10
3.704297
 20
65.192527
 42
-0.022731
  0
VERTEX
  8
0
 10
3.379990
 20
63.919757
 42
-0.049152
  0
VERTEX
  8
0
 10
2.993351
 20
62.987577
 42
0.108545
  0
VERTEX
  8
0
 10
1.234295
 20
56.756758
 42
0.024780
  0
VERTEX
  8
0
 10
1.131110
 20
45.735358
 42
0.022165
  0
VERTEX
  8
0
 10
2.053346
 20
34.848624
 42
0.165632
  0
VERTEX
  8
0
 10
4.309230
 20
30.262199
 42
0.188176
  0
VERTEX
  8
0
 10
6.229644
 20
29.419760
 42
0.003763
  0
VERTEX
  8
0
 10
17.060062
 20
29.052790
 42
0.004814
  0
VERTEX
  8
0
 10
34.099884
 20
28.767894
 42
0.000720
  0
VERTEX
  8
0
 10
68.366455
 20
28.574226
 42
-0.000717
  0
VERTEX
  8
0
 10
116.199874
 20
28.304080
 42
-0.025490
  0
VERTEX
  8
0
 10
127.297404
 20
27.659136
 42
-0.120313
  0
VERTEX
  8
0
 10
133.004705
 20
25.585541
 42
-0.100307
  0
VERTEX
  8
0
 10
137.567226
 20
21.000000
 42
0.028773
  0
VERTEX
  8
0
 10
139.913300
 20
17.852047
 42
0.010957
  0
VERTEX
  8
0
 10
143.522804
 20
13.735882
 42
0.011008
  0
VERTEX
  8
0
 10
147.541108
 20
9.540476
 42
0.016040
  0
VERTEX
  8
0
 10
151.277721
 20
6.039412
 42
0.100040
  0
VERTEX
  8
0
 10
154.689262
 20
4.079881
 42
0.042141
  0
VERTEX
  8
0
 10
159.851949
 20
2.828943
 42
0.022242
  0
VERTEX
  8
0
 10
168.155327
 20
1.920161
 42
0.004132
  0
VERTEX
  8
0
 10
183.485779
 20
1.056587
 42
0.003121
  0
VERTEX
  8
0
 10
193.106126
 20
0.654573
 42
0.015397
  0
VERTEX
  8
0
 10
198.532790
 20
0.628913
 42
0.026787
  0
VERTEX
  8
0
 10
201.991921
 20
0.904934
 42
0.086228
  0
VERTEX
  8
0
 10
204.186119
 20
1.596246
 42
-0.015357
  0
VERTEX
  8
0
 10
205.308423
 20
2.133596
 42
-0.016479
  0
VERTEX
  8
0
 10
206.435817
 20
2.587647
 42
-0.016228
  0
VERTEX
  8
0
 10
207.425738
 20
2.912911
 42
-0.071373
  0
VERTEX
  8
0
 10
208.032727
 20
3.000000
 42
0.100963
  0
VERTEX
  8
0
 10
210.187279
 20
3.439543
 42
0.005413
  0
VERTEX
  8
0
 10
216.606875
 20
6.255042
 42
0.006853
  0
VERTEX
  8
0
 10
222.846471
 20
9.176128
 42
0.067534
  0
VERTEX
  8
0
 10
225.256886
 20
10.777552
 42
-0.014780
  0
VERTEX
  8
0
 10
226.066742
 20
11.448301
 42
-0.009202
  0
VERTEX
  8
0
 10
227.053090
 20
12.188458
 42
-0.009231
  0
VERTEX
  8
0
 10
228.053649
 20
12.883149
 42
-0.016491
  0
VERTEX
  8
0
 10
228.904508
 20
13.411219
 42
0.019771
  0
VERTEX
  8
0
 10
229.871790
 20
14.020368
 42
0.005753
  0
VERTEX
  8
0
 10
231.312337
 20
15.033754
 42
0.005772
  0
VERTEX
  8
0
 10
232.909782
 20
16.213474
 42
0.006145
  0
VERTEX
  8
0
 10
234.446296
 20
17.405815
 42
0.000000
  0
VERTEX
  8
0
 10
238.097349
 20
20.311630
 42
0.000000
  0
VERTEX
  8
0
 10
280.798675
 20
20.272259
 42
-0.001982
  0
VERTEX
  8
0
 10
310.797666
 20
20.125654
 42
-0.001015
  0
VERTEX
  8
0
 10
348.426944
 20
19.716148
 42
-0.000758
  0
VERTEX
  8
0
 10
384.324412
 20
19.198193
 42
-0.006863
  0
VERTEX
  8
0
 10
400.000000
 20
18.732979
 42
0.014813
  0
VERTEX
  8
0
 10
405.611112
 20
18.655700
 42
0.021413
  0
VERTEX
  8
0
 10
410.561911
 20
18.946500
 42
0.022291
  0
VERTEX
  8
0
 10
414.513161
 20
19.527774
 42
0.110626
  0
VERTEX
  8
0
 10
416.558870
 20
20.419321
 42
0.165959
  0
VERTEX
  8
0
 10
417.674884
 20
22.014304
 42
0.049203
  0
VERTEX
  8
0
 10
418.225203
 20
24.983250
 42
0.018483
  0
VERTEX
  8
0
 10
418.491119
 20
30.520133
 42
0.001677
  0
VERTEX
  8
0
 10
418.597323
 20
44.357341
 42
0.002990
  0
VERTEX
  8
0
 10
418.582871
 20
53.071914
 42
0.004620
  0
VERTEX
  8
0
 10
418.455775
 20
60.601415
 42
0.001593
  0
VERTEX
  8
0
 10
418.265780
 20
67.083137
 42
0.131013
  0
VERTEX
  8
0
 10
417.978793
 20
68.034313
 42
0.225315
  0
VERTEX
  8
0
 10
416.041443
 20
69.287039
 42
0.010971
  0
VERTEX
  8
0
 10
408.229187
 20
70.140573
 42
0.017709
  0
VERTEX
  8
0
 10
399.389856
 20
70.595917
 42
0.018884
  0
VERTEX
  8
0
 10
390.728516
 20
70.407857
 42
-0.001831
  0
VERTEX
  8
0
 10
386.555863
 20
70.174737
 42
-0.001962
  0
VERTEX
  8
0
 10
382.476502
 20
69.977854
 42
-0.001857
  0
VERTEX
  8
0
 10
378.970109
 20
69.835457
 42
-0.009249
  0
VERTEX
  8
0
 10
377.000000
 20
69.799248
 42
-0.001632
  0
VERTEX
  8
0
 10
374.331847
 20
69.808274
 42
-0.000017
  0
VERTEX
  8
0
 10
355.685502
 20
69.932839
 42
-0.000055
  0
VERTEX
  8
0
 10
334.192721
 20
70.079493
 42
-0.000035
  0
VERTEX
  8
0
 10
309.354901
 20
70.253441
 42
-0.000872
  0
VERTEX
  8
0
 10
259.645598
 20
70.691792
 42
-0.029248
  0
VERTEX
  8
0
 10
247.799130
 20
71.510991
 42
-0.111407
  0
VERTEX
  8
0
 10
240.849259
 20
74.043317
 42
-0.055938
  0
VERTEX
  8
0
 10
233.564995
 20
79.970968
 42
0.015378
  0
VERTEX
  8
0
 10
231.555204
 20
81.896848
 42
0.020109
  0
VERTEX
  8
0
 10
229.597698
 20
83.522722
 42
0.018081
  0
VERTEX
  8
0
 10
227.896216
 20
84.729079
 42
0.146174
  0
VERTEX
  8
0
 10
226.989309
 20
85.000000
 42
-0.105789
  0
VERTEX
  8
0
 10
226.198447
 20
85.169223
 42
-0.034567
  0
VERTEX
  8
0
 10
225.140669
 20
85.734375
 42
-0.032665
  0
VERTEX
  8
0
 10
224.019776
 20
86.543268
 42
-0.031558
  0
VERTEX
  8
0
 10
223.000000
 20
87.500000
 42
0.045493
  0
VERTEX
  8
0
 10
221.655211
 20
88.693065
 42
0.066369
  0
VERTEX
  8
0
 10
220.268586
 20
89.454581
 42
0.060801
  0
VERTEX
  8
0
 10
218.640591
 20
89.867195
 42
0.031703
  0
VERTEX
  8
0
 10
216.548192
 20
90.000000
 42
-0.029089
  0
VERTEX
  8
0
 10
214.832544
 20
90.099896
 42
-0.025889
  0
VERTEX
  8
0
 10
213.070898
 20
90.398828
 42
-0.026774
  0
VERTEX
  8
0
 10
211.513808
 20
90.835451
 42
-0.069089
  0
VERTEX
  8
0
 10
210.472506
 20
91.357711
 42
0.034865
  0
VERTEX
  8
0
 10
209.442167
 20
91.965759
 42
0.012654
  0
VERTEX
  8
0
 10
207.904424
 20
92.686194
 42
0.012478
  0
VERTEX
  8
0
 10
206.176074
 20
93.392344
 42
0.014542
  0
VERTEX
  8
0
 10
204.500000
 20
93.973634
 42
-0.031853
  0
VERTEX
  8
0
 10
202.800808
 20
94.629640
 42
-0.023185
  0
VERTEX
  8
0
 10
201.002175
 20
95.562570
 42
-0.023569
  0
VERTEX
  8
0
 10
199.372674
 20
96.611581
 42
-0.046612
  0
VERTEX
  8
0
 10
198.209531
 20
97.615924
 42
0.091133
  0
VERTEX
  8
0
 10
195.798051
 20
99.350848
 42
0.113423
  0
VERTEX
  8
0
 10
193.107835
 20
99.941179
 42
0.112856
  0
VERTEX
  8
0
 10
190.419555
 20
99.298595
 42
0.089543
  0
SEQEND
  0
ENDSEC
  0
EOF
