  0
SECTION
  2
HEADER
  9
$ACADVER
  1
AC1006
  9
$EXTMIN
 10
0.000000
 20
0.000000
 30
0.000000
  9
$EXTMAX
 10
424.000000
 20
109.000000
 30
0.000000
  0
ENDSEC
  0
SECTION
  2
ENTITIES
  0
POLYLINE
  8
0
 66
1
 70
1
  0
VERTEX
  8
0
 10
245.861815
 20
107.676297
 42
0.029399
  0
VERTEX
  8
0
 10
243.852506
 20
106.978802
 42
0.019795
  0
VERTEX
  8
0
 10
241.647000
 20
105.960673
 42
0.019973
  0
VERTEX
  8
0
 10
239.584372
 20
104.801481
 42
0.036906
  0
VERTEX
  8
0
 10
238.026706
 20
103.675925
 42
-0.037382
  0
VERTEX
  8
0
 10
236.163283
 20
102.332127
 42
-0.008341
  0
VERTEX
  8
0
 10
232.782942
 20
100.336218
 42
-0.008614
  0
VERTEX
  8
0
 10
228.790905
 20
98.158186
 42
-0.008227
  0
VERTEX
  8
0
 10
224.664891
 20
96.084204
 42
-0.013827
  0
VERTEX
  8
0
 10
218.594148
 20
93.361018
 42
-0.024772
  0
VERTEX
  8
0
 10
213.451205
 20
91.515786
 42
-0.020296
  0
VERTEX
  8
0
 10
207.504403
 20
89.969644
 42
-0.006391
  0
VERTEX
  8
0
 10
198.500000
 20
88.135020
 42
-0.012740
  0
VERTEX
  8
0
 10
183.158498
 20
85.616151
 42
-0.010296
  0
VERTEX
  8
0
 10
166.578602
 20
83.673059
 42
-0.009511
  0
VERTEX
  8
0
 10
148.590289
 20
82.284303
 42
-0.007413
  0
VERTEX
  8
0
 10
129.000000
 20
81.437415
 42
-0.001050
  0
VERTEX
  8
0
 10
92.496001
 20
80.477983
 42
-0.005468
  0
VERTEX
  8
0
 10
72.358597
 20
80.211313
 42
-0.008787
  0
VERTEX
  8
0
 10
59.661461
 20
80.405172
 42
-0.043936
  0
VERTEX
  8
0
 10
52.601277
 20
81.261183
 42
0.014639
  0
VERTEX
  8
0
 10
49.270762
 20
81.864467
 42
0.024096
  0
VERTEX
  8
0
 10
46.423766
 20
82.155112
 42
0.028337
  0
VERTEX
  8
0
 10
43.956693
 20
82.147447
 42
0.040334
  0
VERTEX
  8
0
 10
41.787223
 20
81.840857
 42
-0.017625
  0
VERTEX
  8
0
 10
40.219732
 20
81.546269
 42
-0.022033
  0
VERTEX
  8
0
 10
38.747898
 20
81.388975
 42
-0.020954
  0
VERTEX
  8
0
 10
37.526997
 20
81.363937
 42
-0.133835
  0
VERTEX
  8
0
 10
36.938708
 20
81.537880
 42
0.119095
  0
VERTEX
  8
0
 10
35.311965
 20
82.070655
 42
0.003724
  0
VERTEX
  8
0
 10
28.278179
 20
82.577806
 42
0.007540
  0
VERTEX
  8
0
 10
20.346319
 20
82.970361
 42
0.006818
  0
VERTEX
  8
0
 10
12.135714
 20
83.140630
 42
0.009259
  0
VERTEX
  8
0
 10
8.017491
 20
83.093599
 42
0.029445
  0
VERTEX
  8
0
 10
5.276607
 20
82.849538
 42
0.045012
  0
VERTEX
  8
0
 10
3.412698
 20
82.398052
 42
0.114949
  0
VERTEX
  8
0
 10
2.239881
 20
81.668452
 42
0.157145
  0
VERTEX
  8
0
 10
1.411769
 20
80.052863
 42
0.023913
  0
VERTEX
  8
0
 10
0.993884
 20
76.406360
 42
0.014218
  0
VERTEX
  8
0
 10
0.763558
 20
70.324218
 42
0.002354
  0
VERTEX
  8
0
 10
0.708333
 20
58.596634
 42
0.003275
  0
VERTEX
  8
0
 10
0.806035
 20
43.682620
 42
0.041830
  0
VERTEX
  8
0
 10
1.345760
 20
38.119306
 42
0.120692
  0
VERTEX
  8
0
 10
2.717295
 20
35.052541
 42
0.103848
  0
VERTEX
  8
0
 10
5.417756
 20
32.763737
 42
0.098310
  0
VERTEX
  8
0
 10
6.979034
 20
32.280551
 42
0.011347
  0
VERTEX
  8
0
 10
10.654652
 20
31.980513
 42
0.011824
  0
VERTEX
  8
0
 10
15.483708
 20
31.810906
 42
0.006029
  0
VERTEX
  8
0
 10
21.554499
 20
31.814531
 42
-0.006726
  0
VERTEX
  8
0
 10
28.322112
 20
31.809139
 42
-0.013373
  0
VERTEX
  8
0
 10
33.678469
 20
31.589444
 42
-0.016752
  0
VERTEX
  8
0
 10
37.990848
 20
31.151369
 42
-0.030026
  0
VERTEX
  8
0
 10
41.482221
 20
30.462615
 42
0.023979
  0
VERTEX
  8
0
 10
44.487661
 20
29.831901
 42
0.008272
  0
VERTEX
  8
0
 10
48.882667
 20
29.201951
 42
0.008197
  0
VERTEX
  8
0
 10
53.757934
 20
28.666326
 42
0.009417
  0
VERTEX
  8
0
 10
58.427723
 20
28.319196
 42
-0.004976
  0
VERTEX
  8
0
 10
62.812578
 20
28.032387
 42
-0.006438
  0
VERTEX
  8
0
 10
66.828567
 20
27.677484
 42
-0.004970
  0
VERTEX
  8
0
 10
70.177915
 20
27.304307
 42
-0.055899
  0
VERTEX
  8
0
 10
71.478037
 20
26.996350
 42
0.068703
  0
VERTEX
  8
0
 10
72.470831
 20
26.787780
 42
0.027633
  0
VERTEX
  8
0
 10
73.860061
 20
26.767454
 42
0.026707
  0
VERTEX
  8
0
 10
75.380352
 20
26.910819
 42
0.030503
  0
VERTEX
  8
0
 10
76.809388
 20
27.213037
 42
-0.035800
  0
VERTEX
  8
0
 10
78.475625
 20
27.547039
 42
-0.039608
  0
VERTEX
  8
0
 10
80.116600
 20
27.624361
 42
-0.040012
  0
VERTEX
  8
0
 10
81.734336
 20
27.442295
 42
-0.038013
  0
VERTEX
  8
0
 10
83.331351
 20
27.003673
 42
0.065273
  0
VERTEX
  8
0
 10
85.555102
 20
26.521161
 42
0.004636
  0
VERTEX
  8
0
 10
91.891843
 20
26.051167
 42
0.006306
  0
VERTEX
  8
0
 10
99.639962
 20
25.646735
 42
0.004238
  0
VERTEX
  8
0
 10
108.500000
 20
25.371432
 42
-0.003671
  0
VERTEX
  8
0
 10
117.138538
 20
25.112814
 42
-0.005066
  0
VERTEX
  8
0
 10
124.889147
 20
24.745129
 42
-0.003269
  0
VERTEX
  8
0
 10
131.382636
 20
24.328484
 42
-0.060586
  0
VERTEX
  8
0
 10
133.399223
 20
23.937225
 42
0.056986
  0
VERTEX
  8
0
 10
137.037079
 20
23.204281
 42
0.025546
  0
VERTEX
  8
0
 10
141.919492
 20
23.038775
 42
0.024046
  0
VERTEX
  8
0
 10
146.612104
 20
23.345530
 42
0.098530
  0
VERTEX
  8
0
 10
149.315741
 20
24.210937
 42
-0.098215
  0
VERTEX
  8
0
 10
153.845946
 20
25.664117
 42
-0.005169
  0
VERTEX
  8
0
 10
169.055553
 20
27.255719
 42
-0.008963
  0
VERTEX
  8
0
 10
185.270440
 20
28.490457
 42
-0.013213
  0
VERTEX
  8
0
 10
199.540520
 20
28.942288
 42
0.000000
  0
VERTEX
  8
0
 10
210.581039
 20
29.000000
 42
0.000000
  0
VERTEX
  8
0
 10
218.040520
 20
22.034370
 42
0.025133
  0
VERTEX
  8
0
 10
223.945222
 20
17.051607
 42
0.025988
  0
VERTEX
  8
0
 10
230.256649
 20
12.745742
 42
0.026611
  0
VERTEX
  8
0
 10
236.825511
 20
9.212151
 42
0.029702
  0
VERTEX
  8
0
 10
243.500000
 20
6.539043
 42
-0.015149
  0
VERTEX
  8
0
 10
245.718206
 20
5.724698
 42
-0.009548
  0
VERTEX
  8
0
 10
248.258558
 20
4.646959
 42
-0.009585
  0
VERTEX
  8
0
 10
250.718265
 20
3.490485
 42
-0.017333
  0
VERTEX
  8
0
 10
252.678070
 20
2.436751
 42
0.050396
  0
VERTEX
  8
0
 10
256.738408
 20
0.587918
 42
0.090427
  0
VERTEX
  8
0
 10
260.350630
 20
0.055961
 42
0.100964
  0
VERTEX
  8
0
 10
263.643551
 20
0.845736
 42
0.076023
  0
VERTEX
  8
0
 10
266.748434
 20
2.917411
 42
-0.040219
  0
VERTEX
  8
0
 10
268.379759
 20
4.182844
 42
-0.018095
  0
VERTEX
  8
0
 10
270.701801
 20
5.584779
 42
-0.017778
  0
VERTEX
  8
0
 10
273.274820
 20
6.896430
 42
-0.023127
  0
VERTEX
  8
0
 10
275.721295
 20
7.901022
 42
0.009711
  0
VERTEX
  8
0
 10
278.226201
 20
8.851920
 42
0.007049
  0
VERTEX
  8
0
 10
280.977505
 20
10.003267
 42
0.007125
  0
VERTEX
  8
0
 10
283.558977
 20
11.170595
 42
0.015447
  0
VERTEX
  8
0
 10
285.500000
 20
12.156128
 42
0.031223
  0
VERTEX
  8
0
 10
290.160269
 20
15.098293
 42
0.014818
  0
VERTEX
  8
0
 10
295.792607
 20
19.426400
 42
0.012070
  0
VERTEX
  8
0
 10
300.940641
 20
23.842067
 42
0.086790
  0
VERTEX
  8
0
 10
302.950645
 20
26.407778
 42
-0.095529
  0
VERTEX
  8
0
 10
305.100435
 20
29.056056
 42
-0.080988
  0
VERTEX
  8
0
 10
308.202206
 20
30.901960
 42
-0.060597
  0
VERTEX
  8
0
 10
312.519696
 20
32.023504
 42
-0.026909
  0
VERTEX
  8
0
 10
318.394384
 20
32.490343
 42
0.006633
  0
VERTEX
  8
0
 10
324.434060
 20
32.724558
 42
0.007311
  0
VERTEX
  8
0
 10
330.272235
 20
33.114238
 42
0.003603
  0
VERTEX
  8
0
 10
338.738253
 20
33.865246
 42
0.000456
  0
VERTEX
  8
0
 10
357.000000
 20
35.634748
 42
-0.004749
  0
VERTEX
  8
0
 10
371.443898
 20
36.909223
 42
-0.003523
  0
VERTEX
  8
0
 10
387.425936
 20
38.053316
 42
-0.003093
  0
VERTEX
  8
0
 10
401.967672
 20
38.901058
 42
-0.017079
  0
VERTEX
  8
0
 10
409.809562
 20
39.041360
 42
0.017616
  0
VERTEX
  8
0
 10
412.129697
 20
39.085363
 42
0.012654
  0
VERTEX
  8
0
 10
414.713989
 20
39.291248
 42
0.012805
  0
VERTEX
  8
0
 10
417.166567
 20
39.612926
 42
0.026759
  0
VERTEX
  8
0
 10
419.049504
 20
40.013330
 42
0.085463
  0
VERTEX
  8
0
 10
421.959672
 20
41.360501
 42
0.161446
  0
VERTEX
  8
0
 10
423.501118
 20
43.402510
 42
0.107408
  0
VERTEX
  8
0
 10
423.861887
 20
46.596326
 42
0.026811
  0
VERTEX
  8
0
 10
423.045695
 20
51.815612
 42
-0.025896
  0
VERTEX
  8
0
 10
422.544386
 20
54.983363
 42
-0.005731
  0
VERTEX
  8
0
 10
422.030094
 20
60.455347
 42
-0.005942
  0
VERTEX
  8
0
 10
421.582889
 20
66.800259
 42
-0.005693
  0
VERTEX
  8
0
 10
421.279133
 20
73.245145
 42
0.005015
  0
VERTEX
  8
0
 10
420.965290
 20
80.101811
 42
0.011924
  0
VERTEX
  8
0
 10
420.559396
 20
85.189159
 42
0.009181
  0
VERTEX
  8
0
 10
420.096057
 20
88.973673
 42
0.186593
  0
VERTEX
  8
0
 10
419.543123
 20
89.964211
 42
0.155870
  0
VERTEX
  8
0
 10
417.241454
 20
90.892809
 42
0.014291
  0
VERTEX
  8
0
 10
411.003982
 20
91.177697
 42
0.011804
  0
VERTEX
  8
0
 10
401.441639
 20
91.115105
 42
0.002795
  0
VERTEX
  8
0
 10
385.500000
 20
90.545080
 42
-0.000458
  0
VERTEX
  8
0
 10
369.750357
 20
89.908206
 42
-0.004756
  0
VERTEX
  8
0
 10
363.268340
 20
89.713776
 42
-0.009480
  0
VERTEX
  8
0
 10
358.487689
 20
89.706537
 42
-0.004871
  0
VERTEX
  8
0
 10
352.500000
 20
89.869363
 42
0.002222
  0
VERTEX
  8
0
 10
349.667688
 20
89.961404
 42
0.001089
  0
VERTEX
  8
0
 10
346.059375
 20
90.054746
 42
0.001080
  0
VERTEX
  8
0
 10
342.309204
 20
90.135476
 42
0.001570
  0
VERTEX
  8
0
 10
339.000000
 20
90.189165
 42
-0.002524
  0
VERTEX
  8
0
 10
335.835259
 20
90.246548
 42
-0.002210
  0
VERTEX
  8
0
 10
332.528125
 20
90.337840
 42
-0.002222
  0
VERTEX
  8
0
 10
329.541693
 20
90.446778
 42
-0.006636
  0
VERTEX
  8
0
 10
327.500000
 20
90.557499
 42
-0.002738
  0
VERTEX
  8
0
 10
309.672510
 20
91.859895
 42
-0.026882
  0
VERTEX
  8
0
 10
302.202289
 20
92.852895
 42
-0.064680
  0
VERTEX
  8
0
 10
297.658407
 20
94.333938
 42
-0.068357
  0
VERTEX
  8
0
 10
293.736870
 20
96.907501
 42
0.032757
  0
VERTEX
  8
0
 10
290.725249
 20
99.205401
 42
0.022309
  0
VERTEX
  8
0
 10
287.032269
 20
101.427495
 42
0.018692
  0
VERTEX
  8
0
 10
282.491779
 20
103.675286
 42
0.010777
  0
VERTEX
  8
0
 10
276.874801
 20
106.055084
 42
0.059448
  0
VERTEX
  8
0
 10
270.566846
 20
107.736127
 42
0.022368
  0
VERTEX
  8
0
 10
261.455094
 20
108.622354
 42
0.022364
  0
VERTEX
  8
0
 10
252.302454
 20
108.691073
 42
0.059601
  0
SEQEND
  0
ENDSEC
  0
EOF
